/* XPM */
static char * close_inactive_xpm[] = {
"25 26 11 1",
" 	c None",
".	c #EBEBEB",
"+	c #D0D0D0",
"@	c #C1C1C1",
"#	c #AFAFAF",
"$	c #BEBEBE",
"%	c #A4A4A4",
"&	c #969696",
"*	c #A1A1A1",
"=	c #CFCFCF",
"-	c #ABABAB",
".........................",
"+++++++++++++++++++++++++",
"+++++++++++++++++++++++++",
"+++++++++++++++++++++++++",
"+++++++++++++++++++++++++",
"+++++++++++++++++++++++++",
"+++++++++++++++++++++++++",
"+++++++@#$+++++$#@+++++++",
"++++++@%&*$+++$*&%@++++++",
"++++++$*&&*$=$*&&*$++++++",
"+++++++$*&&*-*&&*$+++++++",
"++++++++$*&&&&&*$++++++++",
"++++++++=$*&&&*$+++++++++",
"++++++++=$*&&&*$+++++++++",
"++++++==$*&&&&&*$++++++++",
"+++++++$*&&*-*&&*$+++++++",
"++++++$*&&*$=$*&&*$++++++",
"++++++@%&*$+++$*&%@++++++",
"+++++++@#$+++++$#@+++++++",
"+++++++++++++++++++++++++",
"+++++++++++++++++++++++++",
"+++++++++++++++++++++++++",
"+++++++++++++++++++++++++",
"+++++++++++++++++++++++++",
"+++++++++++++++++++++++++",
"+++++++++++++++++++++++++"};
