/* XPM */
static char * hide_active_xpm[] = {
"25 26 13 1",
" 	c None",
".	c #EBEBEB",
"+	c #D0D0D0",
"@	c #C8C8C8",
"#	c #B8B8B8",
"$	c #B1B1B1",
"%	c #C0C0C0",
"&	c #A3A3A3",
"*	c #969696",
"=	c #A5A5A5",
"-	c #C3C3C3",
";	c #999999",
">	c #A8A8A8",
".........................",
"+++++++++++++++++++++++++",
"+++++++++++++++++++++++++",
"+++++++++++++++++++++++++",
"+++++++++++++++++++++++++",
"+++++++++++++++++++++++++",
"+++++++++++++++++++++++++",
"+++++++++++++++++++++++++",
"+++++++++++++++++++++++++",
"+++++++++++++++++++++++++",
"+++++++++++++++++++++++++",
"+++++++++++++++++++++++++",
"+++++++++++++++++++++++++",
"+++++++++++++++++++++++++",
"+++++++++++++++++++++++++",
"++++++@#$$$$$$$$$#@++++++",
"++++++%&*********=-++++++",
"++++++%&*********=-++++++",
"++++++%=;;;;;;;;;>%++++++",
"+++++++++++++++++++++++++",
"+++++++++++++++++++++++++",
"+++++++++++++++++++++++++",
"+++++++++++++++++++++++++",
"+++++++++++++++++++++++++",
"+++++++++++++++++++++++++",
"+++++++++++++++++++++++++"};
