<?xml version="1.0" encoding="UTF-8" standalone="no"?>
<!-- Created with Inkscape (http://www.inkscape.org/) -->
<svg id="svg2" xmlns:rdf="http://www.w3.org/1999/02/22-rdf-syntax-ns#" xmlns="http://www.w3.org/2000/svg" height="100%" width="100%" version="1.1" xmlns:cc="http://creativecommons.org/ns#" viewBox="0 0 512 512" xmlns:dc="http://purl.org/dc/elements/1.1/">
 <metadata id="metadata106">
  <rdf:RDF>
   <cc:Work rdf:about="">
    <dc:format>image/svg+xml</dc:format>
    <dc:type rdf:resource="http://purl.org/dc/dcmitype/StillImage"/>
   </cc:Work>
  </rdf:RDF>
 </metadata>
 <g id="g4" fill="#fff8eb">
  <text id="text6" style="word-spacing:0;letter-spacing:0" font-size="162.29px" line-height="125%" y="229.53" x="859.15997" font-family="Gentium Book Basic">
   <tspan id="tspan8" y="229.53" x="859.15997"/>
  </text>
  <text id="text10" style="text-anchor:middle" transform="scale(4.0128 .2492)" font-size="58.966px" y="482.59" x="461.60001" font-family="Arial"/>
  <text id="text12" style="word-spacing:0;letter-spacing:0" font-size="162.29px" line-height="125%" y="272.64999" x="1463.98" font-family="Gentium Book Basic">
   <tspan id="tspan14" y="272.64999" x="1463.98"/>
  </text>
  <text id="text16" style="text-anchor:middle" transform="scale(4.0128 .2492)" font-size="58.966px" y="655.63" x="612.32001" font-family="Arial"/>
  <text id="text18" style="word-spacing:0;letter-spacing:0" font-size="162.29px" line-height="125%" y="172.17999" x="2193.96" font-family="Gentium Book Basic">
   <tspan id="tspan20" y="172.17999" x="2193.96"/>
  </text>
  <text id="text22" style="text-anchor:middle" transform="scale(4.0128 .2492)" font-size="58.966px" y="252.47" x="794.22998" font-family="Arial"/>
  <text id="text24" style="word-spacing:0;letter-spacing:0" font-size="162.29px" line-height="125%" y="129.47" x="1486.27" font-family="Gentium Book Basic">
   <tspan id="tspan26" y="129.47" x="1486.27"/>
  </text>
  <text id="text28" style="text-anchor:middle" transform="scale(4.0128 .2492)" font-size="58.966px" y="81.07" x="617.88" font-family="Arial"/>
  <text id="text30" style="word-spacing:0;letter-spacing:0" font-size="162.29px" line-height="125%" y="29" x="2216.24" font-family="Gentium Book Basic">
   <tspan id="tspan32" y="29" x="2216.24"/>
  </text>
  <text id="text34" style="text-anchor:middle" transform="scale(4.0128 .2492)" font-size="58.966px" y="-322.10001" x="799.78998" font-family="Arial"/>
  <text id="text36" style="word-spacing:0;letter-spacing:0" font-size="162.29px" line-height="125%" y="496.14001" x="-956.12" font-family="Gentium Book Basic">
   <tspan id="tspan38" y="496.14001" x="-956.12"/>
  </text>
  <text id="text40" style="text-anchor:middle" transform="scale(4.0128 .2492)" font-size="58.966px" y="1552.46" x="9.2349997" font-family="Arial"/>
 </g>
 <path id="path42" fill="#e4a146" d="m471.95 253.05c0 120.9-98.01 218.9-218.9 218.9-120.9 0-218.9-98.01-218.9-218.9 0-120.9 98.01-218.9 218.9-218.9 120.9 0 218.9 98.01 218.9 218.9" fill-rule="evenodd"/>
 <path id="path44" d="m254.09 113.28c-23.787 0.457-42.38 24.362-38.28 47.688 5.065 42.15 18.14 83.02 21.563 125.47 0.447 12.149 1.833 23.05 9.938 26.688 2.967 4.201 7.112 7.119 10.375 10.969-26.718-2.5-48.4 28.508-35.75 52.594 9.949 16.54 26.658 27.535 40.09 41.19 16.448 15.515 33.3 30.67 49.969 46.03 75.65-21.11 134.79-81.83 153.63-158.41-61.18-61.2-122.29-122.49-183.66-183.5-7.04-6.01-16.404-8.749-25.563-8.688-0.778-0.035-1.545-0.046-2.313-0.031" fill-opacity="0.235"/>
 <g id="g46" fill-rule="evenodd">
  <path id="path48" d="m256 1c-140.83 0-255 114.17-255 255s114.17 255 255 255 255-114.17 255-255-114.17-255-255-255m8.827 44.931c120.9 0 218.9 98 218.9 218.9s-98 218.9-218.9 218.9-218.93-98-218.93-218.9 98.03-218.9 218.93-218.9" fill-opacity="0.067"/>
  <g id="g50" fill-opacity="0.129">
   <path id="path52" d="m256 4.433c-138.94 0-251.57 112.63-251.57 251.57s112.63 251.57 251.57 251.57 251.57-112.63 251.57-251.57-112.63-251.57-251.57-251.57m5.885 38.556c120.9 0 218.9 98 218.9 218.9s-98 218.9-218.9 218.9-218.93-98-218.93-218.9 98.03-218.9 218.93-218.9"/>
   <path id="path54" d="m256 8.356c-136.77 0-247.64 110.87-247.64 247.64s110.87 247.64 247.64 247.64 247.64-110.87 247.64-247.64-110.87-247.64-247.64-247.64m2.942 31.691c120.9 0 218.9 98 218.9 218.9s-98 218.9-218.9 218.9-218.93-98-218.93-218.9 98.03-218.9 218.93-218.9"/>
  </g>
  <path id="path56" d="m253.04 7.859c-135.42 0-245.19 109.78-245.19 245.19 0 135.42 109.78 245.19 245.19 245.19 135.42 0 245.19-109.78 245.19-245.19 0-135.42-109.78-245.19-245.19-245.19zm0 26.297c120.9 0 218.9 98 218.9 218.9s-98 218.9-218.9 218.9-218.93-98-218.93-218.9 98.03-218.9 218.93-218.9z" stroke-opacity="0.31" stroke="#000" stroke-width="4.904" fill="#fff"/>
 </g>
 <text id="text58" style="word-spacing:0;letter-spacing:0" font-size="129.23px" line-height="125%" y="231.36" x="729.64001" font-family="Gentium Book Basic">
  <tspan id="tspan60" y="231.36" x="729.64001"/>
 </text>
 <text id="text62" style="text-anchor:middle" transform="scale(4.0128 .2492)" font-size="46.954px" y="579.25" x="378.91" font-family="Arial"/>
 <text id="text64" style="word-spacing:0;letter-spacing:0" font-size="129.23px" line-height="125%" y="151.36" x="1310.91" font-family="Gentium Book Basic">
  <tspan id="tspan66" y="151.36" x="1310.91"/>
 </text>
 <text id="text68" style="text-anchor:middle" transform="scale(4.0128 .2492)" font-size="46.954px" y="258.22" x="523.76001" font-family="Arial"/>
 <text id="text70" style="word-spacing:0;letter-spacing:0" font-size="129.23px" line-height="125%" y="-29.900999" x="239.33" font-family="Gentium Book Basic">
  <tspan id="tspan72" y="-29.900999" x="239.33"/>
 </text>
 <text id="text74" style="text-anchor:middle" transform="scale(4.0128 .2492)" font-size="46.954px" y="-469.14001" x="256.72" font-family="Arial"/>
 <text id="text76" style="word-spacing:0;letter-spacing:0" font-size="129.23px" line-height="125%" y="-246.37" x="1337.38" font-family="Gentium Book Basic">
  <tspan id="tspan78" y="-246.37" x="1337.38"/>
 </text>
 <text id="text80" style="text-anchor:middle" transform="scale(4.0128 .2492)" font-size="46.954px" y="-1337.8101" x="530.35999" font-family="Arial"/>
 <text id="text82" style="word-spacing:0;letter-spacing:0" font-size="129.23px" line-height="125%" y="-326.38" x="1918.65" font-family="Gentium Book Basic">
  <tspan id="tspan84" y="-326.38" x="1918.65"/>
 </text>
 <text id="text86" style="text-anchor:middle" transform="scale(4.0128 .2492)" font-size="46.954px" y="-1658.85" x="675.21002" font-family="Arial"/>
 <text id="text88" style="word-spacing:0;letter-spacing:0" font-size="129.23px" line-height="125%" y="-798.78003" x="1529.53" font-family="Gentium Book Basic">
  <tspan id="tspan90" y="-798.78003" x="1529.53"/>
 </text>
 <text id="text92" style="text-anchor:middle" transform="scale(4.0128 .2492)" font-size="46.954px" y="-3554.51" x="578.23999" font-family="Arial"/>
 <text id="text94" style="word-spacing:0;letter-spacing:0" font-size="129.23px" line-height="125%" y="-878.78003" x="2110.79" font-family="Gentium Book Basic">
  <tspan id="tspan96" y="-878.78003" x="2110.79"/>
 </text>
 <text id="text98" style="text-anchor:middle" transform="scale(4.0128 .2492)" font-size="46.954px" y="-3875.54" x="723.09003" font-family="Arial"/>
 <path id="path100" transform="matrix(1.1004 0 0 1.1004 -27.11 -35.591)" d="m257.28 326.8c-18.709 0-34.12 15.04-34.12 33.02 0 19.442 15.04 34.85 33.749 34.85s34.12-15.407 34.12-34.12c0-18.709-15.04-33.749-33.749-33.749m15.04-16.14c2.568-35.22 4.769-50.26 12.839-86.21 7.337-30.815 8.804-38.518 8.804-48.79 0-24.578-14.307-40.35-36.32-40.35-20.91 0-37.05 16.14-37.05 36.684 0 12.11 1.467 20.91 8.804 54.659 6.236 28.25 9.538 49.89 12.839 84.01h30.08" fill="#fff8eb"/>
</svg>
