<?xml version="1.0" encoding="UTF-8" standalone="no"?>
<!-- Created with Inkscape (http://www.inkscape.org/) -->
<svg id="svg2" xmlns:rdf="http://www.w3.org/1999/02/22-rdf-syntax-ns#" xmlns="http://www.w3.org/2000/svg" height="100%" width="100%" version="1.1" xmlns:cc="http://creativecommons.org/ns#" xmlns:xlink="http://www.w3.org/1999/xlink" viewBox="0 0 512 512" xmlns:dc="http://purl.org/dc/elements/1.1/">
 <metadata id="metadata473">
  <rdf:RDF>
   <cc:Work rdf:about="">
    <dc:format>image/svg+xml</dc:format>
    <dc:type rdf:resource="http://purl.org/dc/dcmitype/StillImage"/>
   </cc:Work>
  </rdf:RDF>
 </metadata>
 <defs id="defs4">
  <linearGradient id="linearGradient3216" gradientUnits="userSpaceOnUse" x2="0" y1="213.78" y2="454.64">
   <stop id="stop7" stop-color="#6a6a6a" offset="0"/>
   <stop id="stop9" offset=".47"/>
   <stop id="stop11" stop-color="#fff" offset="0.494"/>
   <stop id="stop13" stop-color="#fff" offset="0.901"/>
   <stop id="stop15" offset="0.955"/>
   <stop id="stop17" offset="1"/>
  </linearGradient>
 </defs>
 <path id="path467" opacity=".1" d="m34.906 222.66c-7.787 0-15.279 1.659-21.469 4.469l280.81 227.56h28.594l-286.28-232.03h-1.656m30.25 0 286.31 232.03h28.563l-286.24-232.03h-28.627m57.22 0 286.31 232.03h28.594l-286.28-232.03h-28.625m57.25 0 282.34 228.84c6.316-2.573 11.362-6.538 14.719-11.25l-268.5-217.59h-28.563m57.22 0 245.47 199 3.219-20.625-220.12-178.37h-28.563m57.22 0 194.69 157.81 3.188-20.594-169.31-137.22h-28.563m57.19 0 143.91 116.63 3.219-20.594-118.53-96.03h-28.594m57.22 0 93.09 75.47 0.469-3 2.469-17.813-67.44-54.656h-28.594m57.19 0 41.688 33.781 2.906-20.844-8.781-7.094c-6.666-3.658-15.229-5.844-24.281-5.844h-11.531m-463.91 18.19 2.875 25.5 232.41 188.34h28.594l-263.88-213.86m5.969 51.19 3.281 25.813 168.84 136.84h28.563l-200.69-162.66m6.594 51.719 3.281 25.844 104.97 85.09h28.59l-136.84-110.94m6.594 51.719 3.281 25.844 41.16 33.375h28.625l-73.06-59.21" fill-rule="evenodd" fill="#fff"/>
 <text id="text19" style="word-spacing:0;letter-spacing:0" font-size="129.23px" line-height="125%" y="233.74001" x="729.64001" font-family="Gentium Book Basic">
  <tspan id="tspan21" y="233.74001" x="729.64001"/>
 </text>
 <text id="text23" style="text-anchor:middle" transform="scale(4.0128 .2492)" font-size="46.954px" y="588.81" x="378.91" font-family="Arial"/>
 <text id="text25" style="word-spacing:0;letter-spacing:0" font-size="129.23px" line-height="125%" y="153.74001" x="1310.91" font-family="Gentium Book Basic">
  <tspan id="tspan27" y="153.74001" x="1310.91"/>
 </text>
 <text id="text29" style="text-anchor:middle" transform="scale(4.0128 .2492)" font-size="46.954px" y="267.76999" x="523.76001" font-family="Arial"/>
 <text id="text31" style="word-spacing:0;letter-spacing:0" font-size="129.23px" line-height="125%" y="-27.52" x="239.33" font-family="Gentium Book Basic">
  <tspan id="tspan33" y="-27.52" x="239.33"/>
 </text>
 <text id="text35" style="text-anchor:middle" transform="scale(4.0128 .2492)" font-size="46.954px" y="-459.57999" x="256.72" font-family="Arial"/>
 <text id="text37" style="word-spacing:0;letter-spacing:0" font-size="129.23px" line-height="125%" y="-243.99001" x="1337.38" font-family="Gentium Book Basic">
  <tspan id="tspan39" y="-243.99001" x="1337.38"/>
 </text>
 <text id="text41" style="text-anchor:middle" transform="scale(4.0128 .2492)" font-size="46.954px" y="-1328.26" x="530.35999" font-family="Arial"/>
 <text id="text43" style="word-spacing:0;letter-spacing:0" font-size="129.23px" line-height="125%" y="-324" x="1918.65" font-family="Gentium Book Basic">
  <tspan id="tspan45" y="-324" x="1918.65"/>
 </text>
 <text id="text47" style="text-anchor:middle" transform="scale(4.0128 .2492)" font-size="46.954px" y="-1649.29" x="675.21002" font-family="Arial"/>
 <text id="text49" style="word-spacing:0;letter-spacing:0" font-size="129.23px" line-height="125%" y="-796.40002" x="1529.53" font-family="Gentium Book Basic">
  <tspan id="tspan51" y="-796.40002" x="1529.53"/>
 </text>
 <text id="text53" style="text-anchor:middle" transform="scale(4.0128 .2492)" font-size="46.954px" y="-3544.95" x="578.23999" font-family="Arial"/>
 <text id="text55" style="word-spacing:0;letter-spacing:0" font-size="129.23px" line-height="125%" y="-876.40002" x="2110.8" font-family="Gentium Book Basic">
  <tspan id="tspan57" y="-876.40002" x="2110.8"/>
 </text>
 <text id="text59" style="text-anchor:middle" transform="scale(4.0128 .2492)" font-size="46.954px" y="-3865.99" x="723.09003" font-family="Arial"/>
 <g id="g61" style="word-spacing:0;letter-spacing:0" font-family="Gentium Book Basic" line-height="125%">
  <text id="text63" y="538.32001" x="277.98999" font-size="208.33px">
   <tspan id="tspan65" y="538.32001" x="277.98999"/>
  </text>
  <text id="text67" y="-509.14001" x="3833.78" font-size="129.23px">
   <tspan id="tspan69" y="-509.14001" x="3833.78"/>
  </text>
 </g>
 <text id="text71" style="text-anchor:middle" transform="scale(4.0128 .2492)" font-size="46.954px" y="-2392.23" x="1152.46" font-family="Arial"/>
 <text id="text73" style="word-spacing:0;letter-spacing:0" font-size="129.23px" line-height="125%" y="-589.14001" x="4415.0498" font-family="Gentium Book Basic">
  <tspan id="tspan75" y="-589.14001" x="4415.0498"/>
 </text>
 <text id="text77" style="text-anchor:middle" transform="scale(4.0128 .2492)" font-size="46.954px" y="-2713.26" x="1297.3101" font-family="Arial"/>
 <text id="text79" style="word-spacing:0;letter-spacing:0" font-size="129.23px" line-height="125%" y="-770.39001" x="3343.47" font-family="Gentium Book Basic">
  <tspan id="tspan81" y="-770.39001" x="3343.47"/>
 </text>
 <text id="text83" style="text-anchor:middle" transform="scale(4.0128 .2492)" font-size="46.954px" y="-3440.6201" x="1030.27" font-family="Arial"/>
 <text id="text85" style="word-spacing:0;letter-spacing:0" font-size="129.23px" line-height="125%" y="-986.87" x="4441.52" font-family="Gentium Book Basic">
  <tspan id="tspan87" y="-986.87" x="4441.52"/>
 </text>
 <text id="text89" style="text-anchor:middle" transform="scale(4.0128 .2492)" font-size="46.954px" y="-4309.29" x="1303.91" font-family="Arial"/>
 <text id="text91" style="word-spacing:0;letter-spacing:0" font-size="129.23px" line-height="125%" y="-1066.87" x="5022.79" font-family="Gentium Book Basic">
  <tspan id="tspan93" y="-1066.87" x="5022.79"/>
 </text>
 <text id="text95" style="text-anchor:middle" transform="scale(4.0128 .2492)" font-size="46.954px" y="-4630.3198" x="1448.76" font-family="Arial"/>
 <text id="text97" style="word-spacing:0;letter-spacing:0" font-size="129.23px" line-height="125%" y="-1539.27" x="4633.6699" font-family="Gentium Book Basic">
  <tspan id="tspan99" y="-1539.27" x="4633.6699"/>
 </text>
 <text id="text101" style="text-anchor:middle" transform="scale(4.0128 .2492)" font-size="46.954px" y="-6525.9902" x="1351.79" font-family="Arial"/>
 <text id="text103" style="word-spacing:0;letter-spacing:0" font-size="129.23px" line-height="125%" y="-1619.27" x="5214.9302" font-family="Gentium Book Basic">
  <tspan id="tspan105" y="-1619.27" x="5214.9302"/>
 </text>
 <text id="text107" style="text-anchor:middle" transform="scale(4.0128 .2492)" font-size="46.954px" y="-6847.02" x="1496.64" font-family="Arial"/>
 <g id="g109" style="word-spacing:0;letter-spacing:0" font-family="Gentium Book Basic" line-height="125%">
  <text id="text111" y="-204.56" x="3382.1299" font-size="208.33px">
   <tspan id="tspan113" y="-204.56" x="3382.1299"/>
  </text>
  <text id="text115" y="140.66" x="90.120003" font-size="129.23px">
   <tspan id="tspan117" y="140.66" x="90.120003"/>
  </text>
 </g>
 <text id="text119" style="text-anchor:middle" transform="scale(4.0128 .2492)" font-size="46.954px" y="215.28999" x="219.53999" font-family="Arial"/>
 <text id="text121" style="word-spacing:0;letter-spacing:0" font-size="129.23px" line-height="125%" y="60.661999" x="671.39001" font-family="Gentium Book Basic">
  <tspan id="tspan123" y="60.661999" x="671.39001"/>
 </text>
 <text id="text125" style="text-anchor:middle" transform="scale(4.0128 .2492)" font-size="46.954px" y="-105.74" x="364.39001" font-family="Arial"/>
 <text id="text127" style="word-spacing:0;letter-spacing:0" font-size="129.23px" line-height="125%" y="-120.6" x="-400.19" font-family="Gentium Book Basic">
  <tspan id="tspan129" y="-120.6" x="-400.19"/>
 </text>
 <text id="text131" style="text-anchor:middle" transform="scale(4.0128 .2492)" font-size="46.954px" y="-833.09003" x="97.349998" font-family="Arial"/>
 <text id="text133" style="word-spacing:0;letter-spacing:0" font-size="129.23px" line-height="125%" y="-337.07001" x="697.85999" font-family="Gentium Book Basic">
  <tspan id="tspan135" y="-337.07001" x="697.85999"/>
 </text>
 <text id="text137" style="text-anchor:middle" transform="scale(4.0128 .2492)" font-size="46.954px" y="-1701.76" x="370.98999" font-family="Arial"/>
 <text id="text139" style="word-spacing:0;letter-spacing:0" font-size="129.23px" line-height="125%" y="-417.07999" x="1279.13" font-family="Gentium Book Basic">
  <tspan id="tspan141" y="-417.07999" x="1279.13"/>
 </text>
 <text id="text143" style="text-anchor:middle" transform="scale(4.0128 .2492)" font-size="46.954px" y="-2022.8" x="515.84003" font-family="Arial"/>
 <text id="text145" style="word-spacing:0;letter-spacing:0" font-size="129.23px" line-height="125%" y="-889.47998" x="890.01001" font-family="Gentium Book Basic">
  <tspan id="tspan147" y="-889.47998" x="890.01001"/>
 </text>
 <text id="text149" style="text-anchor:middle" transform="scale(4.0128 .2492)" font-size="46.954px" y="-3918.45" x="418.87" font-family="Arial"/>
 <text id="text151" style="word-spacing:0;letter-spacing:0" font-size="129.23px" line-height="125%" y="-969.47998" x="1471.27" font-family="Gentium Book Basic">
  <tspan id="tspan153" y="-969.47998" x="1471.27"/>
 </text>
 <text id="text155" style="text-anchor:middle" transform="scale(4.0128 .2492)" font-size="46.954px" y="-4239.48" x="563.71997" font-family="Arial"/>
 <g id="g157" style="word-spacing:0;letter-spacing:0" font-family="Gentium Book Basic" font-size="208.33px" line-height="125%">
  <text id="text159" y="445.23999" x="-361.53">
   <tspan id="tspan161" y="445.23999" x="-361.53"/>
  </text>
  <text id="text163" y="426.28" x="-2585.3601">
   <tspan id="tspan165" y="426.28" x="-2585.3601"/>
  </text>
 </g>
 <text id="text167" style="text-anchor:middle" transform="scale(4.0128 .2492)" font-size="75.7px" y="1147.7" x="-326.54999" font-family="Arial"/>
 <text id="text169" style="word-spacing:0;letter-spacing:0" font-size="208.33px" line-height="125%" y="270.64999" x="-1879.02" font-family="Gentium Book Basic">
  <tspan id="tspan171" y="270.64999" x="-1879.02"/>
 </text>
 <text id="text173" style="text-anchor:middle" transform="scale(4.0128 .2492)" font-size="75.7px" y="523.16998" x="-150.53" font-family="Arial"/>
 <text id="text175" style="word-spacing:0;letter-spacing:0" font-size="208.33px" line-height="125%" y="262.53" x="-1845.65" font-family="Gentium Book Basic">
  <tspan id="tspan177" y="262.53" x="-1845.65"/>
 </text>
 <text id="text179" style="text-anchor:middle" transform="scale(4.0128 .2492)" font-size="75.7px" y="490.57001" x="-142.21001" font-family="Arial"/>
 <text id="text181" style="word-spacing:0;letter-spacing:0" font-size="129.23px" line-height="125%" y="108.12" x="-695.22998" font-family="Gentium Book Basic">
  <tspan id="tspan183" y="108.12" x="-695.22998"/>
 </text>
 <text id="text185" style="text-anchor:middle" transform="scale(4.0128 .2492)" font-size="46.954px" y="84.709999" x="23.830999" font-family="Arial"/>
 <text id="text187" style="word-spacing:0;letter-spacing:0" font-size="129.23px" line-height="125%" y="28.120001" x="-113.97" font-family="Gentium Book Basic">
  <tspan id="tspan189" y="28.120001" x="-113.97"/>
 </text>
 <text id="text191" style="text-anchor:middle" transform="scale(4.0128 .2492)" font-size="46.954px" y="-236.33" x="168.67999" font-family="Arial"/>
 <text id="text193" style="word-spacing:0;letter-spacing:0" font-size="129.23px" line-height="125%" y="-153.14" x="-1185.55" font-family="Gentium Book Basic">
  <tspan id="tspan195" y="-153.14" x="-1185.55"/>
 </text>
 <text id="text197" style="text-anchor:middle" transform="scale(4.0128 .2492)" font-size="46.954px" y="-963.65997" x="-98.360001" font-family="Arial"/>
 <text id="text199" style="word-spacing:0;letter-spacing:0" font-size="129.23px" line-height="125%" y="-369.60999" x="-87.5" font-family="Gentium Book Basic">
  <tspan id="tspan201" y="-369.60999" x="-87.5"/>
 </text>
 <text id="text203" style="text-anchor:middle" transform="scale(4.0128 .2492)" font-size="46.954px" y="-1832.34" x="175.28" font-family="Arial"/>
 <text id="text205" style="word-spacing:0;letter-spacing:0" font-size="129.23px" line-height="125%" y="-449.60999" x="493.76999" font-family="Gentium Book Basic">
  <tspan id="tspan207" y="-449.60999" x="493.76999"/>
 </text>
 <text id="text209" style="text-anchor:middle" transform="scale(4.0128 .2492)" font-size="46.954px" y="-2153.3701" x="320.12" font-family="Arial"/>
 <text id="text211" style="word-spacing:0;letter-spacing:0" font-size="129.23px" line-height="125%" y="-922.01001" x="104.65" font-family="Gentium Book Basic">
  <tspan id="tspan213" y="-922.01001" x="104.65"/>
 </text>
 <text id="text215" style="text-anchor:middle" transform="scale(4.0128 .2492)" font-size="46.954px" y="-4049.01" x="223.16" font-family="Arial"/>
 <text id="text217" style="word-spacing:0;letter-spacing:0" font-size="129.23px" line-height="125%" y="-1002.02" x="685.90997" font-family="Gentium Book Basic">
  <tspan id="tspan219" y="-1002.02" x="685.90997"/>
 </text>
 <text id="text221" style="text-anchor:middle" transform="scale(4.0128 .2492)" font-size="46.954px" y="-4370.04" x="368" font-family="Arial"/>
 <g id="g223" style="word-spacing:0;letter-spacing:0" font-family="Gentium Book Basic" line-height="125%">
  <text id="text225" y="412.70001" x="-1146.89" font-size="208.33px">
   <tspan id="tspan227" y="412.70001" x="-1146.89"/>
  </text>
  <text id="text229" y="-630.89001" x="-745.67999" font-size="129.23px">
   <tspan id="tspan231" y="-630.89001" x="-745.67999"/>
  </text>
 </g>
 <text id="text233" style="text-anchor:middle" transform="scale(4.0128 .2492)" font-size="46.954px" y="-2880.79" x="11.261" font-family="Arial"/>
 <text id="text235" style="word-spacing:0;letter-spacing:0" font-size="129.23px" line-height="125%" y="-710.89001" x="-164.41" font-family="Gentium Book Basic">
  <tspan id="tspan237" y="-710.89001" x="-164.41"/>
 </text>
 <text id="text239" style="text-anchor:middle" transform="scale(4.0128 .2492)" font-size="46.954px" y="-3201.8201" x="156.11" font-family="Arial"/>
 <text id="text241" style="word-spacing:0;letter-spacing:0" font-size="129.23px" line-height="125%" y="-892.15002" x="-1235.99" font-family="Gentium Book Basic">
  <tspan id="tspan243" y="-892.15002" x="-1235.99"/>
 </text>
 <text id="text245" style="text-anchor:middle" transform="scale(4.0128 .2492)" font-size="46.954px" y="-3929.1799" x="-110.93" font-family="Arial"/>
 <text id="text247" style="word-spacing:0;letter-spacing:0" font-size="129.23px" line-height="125%" y="-1108.62" x="-137.94" font-family="Gentium Book Basic">
  <tspan id="tspan249" y="-1108.62" x="-137.94"/>
 </text>
 <text id="text251" style="text-anchor:middle" transform="scale(4.0128 .2492)" font-size="46.954px" y="-4797.8301" x="162.71001" font-family="Arial"/>
 <text id="text253" style="word-spacing:0;letter-spacing:0" font-size="129.23px" line-height="125%" y="-1188.63" x="443.32001" font-family="Gentium Book Basic">
  <tspan id="tspan255" y="-1188.63" x="443.32001"/>
 </text>
 <text id="text257" style="text-anchor:middle" transform="scale(4.0128 .2492)" font-size="46.954px" y="-5118.8701" x="307.54999" font-family="Arial"/>
 <text id="text259" style="word-spacing:0;letter-spacing:0" font-size="129.23px" line-height="125%" y="-1661.03" x="54.200001" font-family="Gentium Book Basic">
  <tspan id="tspan261" y="-1661.03" x="54.200001"/>
 </text>
 <text id="text263" style="text-anchor:middle" transform="scale(4.0128 .2492)" font-size="46.954px" y="-7014.5098" x="210.59" font-family="Arial"/>
 <text id="text265" style="word-spacing:0;letter-spacing:0" font-size="129.23px" line-height="125%" y="-1741.03" x="635.46997" font-family="Gentium Book Basic">
  <tspan id="tspan267" y="-1741.03" x="635.46997"/>
 </text>
 <text id="text269" style="text-anchor:middle" transform="scale(4.0128 .2492)" font-size="46.954px" y="-7335.54" x="355.42999" font-family="Arial"/>
 <g id="g271" style="word-spacing:0;letter-spacing:0" font-family="Gentium Book Basic" line-height="125%">
  <text id="text273" y="-326.31" x="-1197.34" font-size="208.33px">
   <tspan id="tspan275" y="-326.31" x="-1197.34"/>
  </text>
  <text id="text277" y="-1373.77" x="2358.46" font-size="129.23px">
   <tspan id="tspan279" y="-1373.77" x="2358.46"/>
  </text>
 </g>
 <text id="text281" style="text-anchor:middle" transform="scale(4.0128 .2492)" font-size="46.954px" y="-5861.7998" x="784.79999" font-family="Arial"/>
 <text id="text283" style="word-spacing:0;letter-spacing:0" font-size="129.23px" line-height="125%" y="-1453.77" x="2939.72" font-family="Gentium Book Basic">
  <tspan id="tspan285" y="-1453.77" x="2939.72"/>
 </text>
 <text id="text287" style="text-anchor:middle" transform="scale(4.0128 .2492)" font-size="46.954px" y="-6182.8398" x="929.65002" font-family="Arial"/>
 <text id="text289" style="word-spacing:0;letter-spacing:0" font-size="129.23px" line-height="125%" y="-1635.02" x="1868.14" font-family="Gentium Book Basic">
  <tspan id="tspan291" y="-1635.02" x="1868.14"/>
 </text>
 <text id="text293" style="text-anchor:middle" transform="scale(4.0128 .2492)" font-size="46.954px" y="-6910.1699" x="662.60999" font-family="Arial"/>
 <text id="text295" style="word-spacing:0;letter-spacing:0" font-size="129.23px" line-height="125%" y="-1851.5" x="2966.1899" font-family="Gentium Book Basic">
  <tspan id="tspan297" y="-1851.5" x="2966.1899"/>
 </text>
 <text id="text299" style="text-anchor:middle" transform="scale(4.0128 .2492)" font-size="46.954px" y="-7778.8398" x="936.25" font-family="Arial"/>
 <text id="text301" style="word-spacing:0;letter-spacing:0" font-size="129.23px" line-height="125%" y="-1931.5" x="3547.46" font-family="Gentium Book Basic">
  <tspan id="tspan303" y="-1931.5" x="3547.46"/>
 </text>
 <text id="text305" style="text-anchor:middle" transform="scale(4.0128 .2492)" font-size="46.954px" y="-8099.8799" x="1081.1" font-family="Arial"/>
 <text id="text307" style="word-spacing:0;letter-spacing:0" font-size="129.23px" line-height="125%" y="-2403.8999" x="3158.3401" font-family="Gentium Book Basic">
  <tspan id="tspan309" y="-2403.8999" x="3158.3401"/>
 </text>
 <text id="text311" style="text-anchor:middle" transform="scale(4.0128 .2492)" font-size="46.954px" y="-9995.5195" x="984.13" font-family="Arial"/>
 <text id="text313" style="word-spacing:0;letter-spacing:0" font-size="129.23px" line-height="125%" y="-2483.8999" x="3739.6101" font-family="Gentium Book Basic">
  <tspan id="tspan315" y="-2483.8999" x="3739.6101"/>
 </text>
 <text id="text317" style="text-anchor:middle" transform="scale(4.0128 .2492)" font-size="46.954px" y="-10316.54" x="1128.98" font-family="Arial"/>
 <g id="g319" style="word-spacing:0;letter-spacing:0" font-family="Gentium Book Basic" font-size="208.33px" line-height="125%">
  <text id="text321" y="-1069.1899" x="1906.8">
   <tspan id="tspan323" y="-1069.1899" x="1906.8"/>
  </text>
  <text id="text325" y="-315.10999" x="-2635.8101">
   <tspan id="tspan327" y="-315.10999" x="-2635.8101"/>
  </text>
 </g>
 <text id="text329" style="text-anchor:middle" transform="scale(4.0128 .2492)" font-size="75.7px" y="-1827.37" x="-339.12" font-family="Arial"/>
 <text id="text331" style="word-spacing:0;letter-spacing:0" font-size="208.33px" line-height="125%" y="-315.10999" x="-2635.8101" font-family="Gentium Book Basic">
  <tspan id="tspan333" y="-315.10999" x="-2635.8101"/>
 </text>
 <text id="text335" style="text-anchor:middle" transform="scale(4.0128 .2492)" font-size="75.7px" y="-1827.37" x="-339.12" font-family="Arial"/>
 <text id="text337" style="word-spacing:0;letter-spacing:0" font-size="208.33px" line-height="125%" y="317.79999" x="-2969.3601" font-family="Gentium Book Basic">
  <tspan id="tspan339" y="317.79999" x="-2969.3601"/>
 </text>
 <text id="text341" style="text-anchor:middle" transform="scale(4.0128 .2492)" font-size="75.7px" y="712.40002" x="-422.23999" font-family="Arial"/>
 <text id="text343" style="word-spacing:0;letter-spacing:0" font-size="208.33px" line-height="125%" y="162.17" x="-2263.02" font-family="Gentium Book Basic">
  <tspan id="tspan345" y="162.17" x="-2263.02"/>
 </text>
 <text id="text347" style="text-anchor:middle" transform="scale(4.0128 .2492)" font-size="75.7px" y="87.879997" x="-246.22" font-family="Arial"/>
 <path id="path349" fill="#ccc" d="m108.62 57.37c-7.963 0-15.223 2.323-20.688 6.25-4.545 3.266-7.749 7.867-8.75 13.13h-11.906c-16.447 0-29.875 13.02-29.875 29.19v66.75c0 0.505 0.005 1 0.031 1.5-0.001 0.011 0.001 0.021 0 0.031-0.026 0.499-0.031 1.026-0.031 1.531v66.72c0 16.17 13.428 29.22 29.875 29.22h377.47c16.447 0 29.875-13.05 29.875-29.22v-66.72c0-0.505-0.005-1.032-0.031-1.531 0.001-0.011-0.001-0.021 0-0.031 0.026-0.499 0.031-0.995 0.031-1.5v-66.75c0-16.17-13.428-29.19-29.875-29.19h-262.91c-1-5.255-4.205-9.857-8.75-13.12-5.465-3.927-12.756-6.25-20.719-6.25h-43.75" fill-rule="evenodd"/>
 <text id="text351" style="word-spacing:0;letter-spacing:0" font-size="208.33px" line-height="125%" y="549.52002" x="-1160.49" font-family="Gentium Book Basic">
  <tspan id="tspan353" y="549.52002" x="-1160.49"/>
 </text>
 <text id="text355" style="text-anchor:middle" transform="scale(4.0128 .2492)" font-size="75.7px" y="1642.24" x="28.532" font-family="Arial"/>
 <text id="text357" style="word-spacing:0;letter-spacing:0" font-size="208.33px" line-height="125%" y="549.52002" x="-1160.49" font-family="Gentium Book Basic">
  <tspan id="tspan359" y="549.52002" x="-1160.49"/>
 </text>
 <text id="text361" style="text-anchor:middle" transform="scale(4.0128 .2492)" font-size="75.7px" y="1642.24" x="28.532" font-family="Arial"/>
 <text id="text363" style="word-spacing:0;letter-spacing:0" font-size="129.23px" line-height="125%" y="233.74001" x="729.63" font-family="Gentium Book Basic">
  <tspan id="tspan365" y="233.74001" x="729.63"/>
 </text>
 <text id="text367" style="text-anchor:middle" transform="scale(4.0128 .2492)" font-size="46.954px" y="588.81" x="378.91" font-family="Arial"/>
 <text id="text369" style="word-spacing:0;letter-spacing:0" font-size="129.23px" line-height="125%" y="153.74001" x="1310.9" font-family="Gentium Book Basic">
  <tspan id="tspan371" y="153.74001" x="1310.9"/>
 </text>
 <text id="text373" style="text-anchor:middle" transform="scale(4.0128 .2492)" font-size="46.954px" y="267.78" x="523.76001" font-family="Arial"/>
 <text id="text375" style="word-spacing:0;letter-spacing:0" font-size="129.23px" line-height="125%" y="-27.52" x="239.32001" font-family="Gentium Book Basic">
  <tspan id="tspan377" y="-27.52" x="239.32001"/>
 </text>
 <text id="text379" style="text-anchor:middle" transform="scale(4.0128 .2492)" font-size="46.954px" y="-459.57999" x="256.72" font-family="Arial"/>
 <text id="text381" style="word-spacing:0;letter-spacing:0" font-size="129.23px" line-height="125%" y="-243.99001" x="1337.37" font-family="Gentium Book Basic">
  <tspan id="tspan383" y="-243.99001" x="1337.37"/>
 </text>
 <text id="text385" style="text-anchor:middle" transform="scale(4.0128 .2492)" font-size="46.954px" y="-1328.24" x="530.35999" font-family="Arial"/>
 <text id="text387" style="word-spacing:0;letter-spacing:0" font-size="129.23px" line-height="125%" y="-323.98999" x="1918.64" font-family="Gentium Book Basic">
  <tspan id="tspan389" y="-323.98999" x="1918.64"/>
 </text>
 <text id="text391" style="text-anchor:middle" transform="scale(4.0128 .2492)" font-size="46.954px" y="-1649.28" x="675.20001" font-family="Arial"/>
 <text id="text393" style="word-spacing:0;letter-spacing:0" font-size="129.23px" line-height="125%" y="-796.39001" x="1529.52" font-family="Gentium Book Basic">
  <tspan id="tspan395" y="-796.39001" x="1529.52"/>
 </text>
 <text id="text397" style="text-anchor:middle" transform="scale(4.0128 .2492)" font-size="46.954px" y="-3544.9299" x="578.23999" font-family="Arial"/>
 <text id="text399" style="word-spacing:0;letter-spacing:0" font-size="129.23px" line-height="125%" y="-876.40002" x="2110.79" font-family="Gentium Book Basic">
  <tspan id="tspan401" y="-876.40002" x="2110.79"/>
 </text>
 <text id="text403" style="text-anchor:middle" transform="scale(4.0128 .2492)" font-size="46.954px" y="-3865.96" x="723.08002" font-family="Arial"/>
 <g id="g405" style="word-spacing:0;letter-spacing:0" font-family="Gentium Book Basic" line-height="125%">
  <text id="text407" y="538.32001" x="277.98001" font-size="208.33px">
   <tspan id="tspan409" y="538.32001" x="277.98001"/>
  </text>
  <text id="text411" y="-509.13" x="3833.77" font-size="129.23px">
   <tspan id="tspan413" y="-509.13" x="3833.77"/>
  </text>
 </g>
 <text id="text415" style="text-anchor:middle" transform="scale(4.0128 .2492)" font-size="46.954px" y="-2392.21" x="1152.45" font-family="Arial"/>
 <text id="text417" style="word-spacing:0;letter-spacing:0" font-size="129.23px" line-height="125%" y="-589.14001" x="4415.04" font-family="Gentium Book Basic">
  <tspan id="tspan419" y="-589.14001" x="4415.04"/>
 </text>
 <text id="text421" style="text-anchor:middle" transform="scale(4.0128 .2492)" font-size="46.954px" y="-2713.25" x="1297.3" font-family="Arial"/>
 <text id="text423" style="word-spacing:0;letter-spacing:0" font-size="129.23px" line-height="125%" y="-770.39001" x="3343.46" font-family="Gentium Book Basic">
  <tspan id="tspan425" y="-770.39001" x="3343.46"/>
 </text>
 <text id="text427" style="text-anchor:middle" transform="scale(4.0128 .2492)" font-size="46.954px" y="-3440.5901" x="1030.26" font-family="Arial"/>
 <text id="text429" style="word-spacing:0;letter-spacing:0" font-size="129.23px" line-height="125%" y="-986.87" x="4441.5098" font-family="Gentium Book Basic">
  <tspan id="tspan431" y="-986.87" x="4441.5098"/>
 </text>
 <text id="text433" style="text-anchor:middle" transform="scale(4.0128 .2492)" font-size="46.954px" y="-4309.2598" x="1303.9" font-family="Arial"/>
 <text id="text435" style="word-spacing:0;letter-spacing:0" font-size="129.23px" line-height="125%" y="-1066.87" x="5022.7798" font-family="Gentium Book Basic">
  <tspan id="tspan437" y="-1066.87" x="5022.7798"/>
 </text>
 <text id="text439" style="text-anchor:middle" transform="scale(4.0128 .2492)" font-size="46.954px" y="-4630.2998" x="1448.75" font-family="Arial"/>
 <text id="text441" style="word-spacing:0;letter-spacing:0" font-size="129.23px" line-height="125%" y="-1539.27" x="4633.6602" font-family="Gentium Book Basic">
  <tspan id="tspan443" y="-1539.27" x="4633.6602"/>
 </text>
 <text id="text445" style="text-anchor:middle" transform="scale(4.0128 .2492)" font-size="46.954px" y="-6525.9502" x="1351.78" font-family="Arial"/>
 <text id="text447" style="word-spacing:0;letter-spacing:0" font-size="129.23px" line-height="125%" y="-1619.27" x="5214.9199" font-family="Gentium Book Basic">
  <tspan id="tspan449" y="-1619.27" x="5214.9199"/>
 </text>
 <text id="text451" style="text-anchor:middle" transform="scale(4.0128 .2492)" font-size="46.954px" y="-6846.9902" x="1496.63" font-family="Arial"/>
 <text id="text453" style="word-spacing:0;letter-spacing:0" font-size="208.33px" line-height="125%" y="-204.56" x="3382.1201" font-family="Gentium Book Basic">
  <tspan id="tspan455" y="-204.56" x="3382.1201"/>
 </text>
 <path id="path459" opacity="0.764" d="m108.54 57.31c-7.963 0-15.11 2.403-20.572 6.33-4.545 3.266-7.702 7.931-8.703 13.187h-12.13c-17.677 0-29.802 12.771-29.802 30.661v3.956c0-16.17 13.355-29.27 29.802-29.27h14.286c1-5.256 2-9.657 6.549-12.923 5.465-3.927 12.609-6.33 20.572-6.33h43.78c7.963 0 15.371 2.403 20.835 6.33 4.545 3.266 5.766 7.668 6.769 12.923h264.88c16.447 0 29.802 11.455 29.802 27.625v-3.956c0-16.17-13.355-29.01-29.802-29.01h-262.95c-1-5.256-4.159-9.921-8.703-13.187-5.465-3.927-12.872-6.33-20.835-6.33z" fill-rule="evenodd" fill="#fff"/>
 <path id="path461" fill="#6997c7" d="m37.35 213.72c-19.928 0-38.06 11.337-36.23 25.697l24.26 190.23c1.733 13.594 16.271 25.05 36.2 25.05h383.41c19.933 0 34.1-11.5 36.2-24.98l29.632-190.23c1.123-7.206-3.137-13.807-9.971-18.394-6.833-4.587-16.258-7.371-26.22-7.371h-437.27" fill-rule="evenodd"/>
 <path id="path465" opacity=".4" d="m37.34 213.71c-19.928 0-38.05 11.353-36.22 25.713l0.406 3.136c3-11.423 18.732-19.755 35.812-19.755h437.28c9.966 0 19.386 2.782 26.22 7.369 4.736 3.178 8.234 7.317 9.563 11.96l0.406-2.643c1.123-7.206-3.134-13.825-9.969-18.411-6.833-4.587-16.252-7.369-26.22-7.369h-437.28" fill-rule="evenodd" fill="#fff"/>
 <path id="path469" opacity=".05" d="m37.35 213.72c-19.928 0-38.06 11.337-36.23 25.697l24.26 190.23c1.733 13.594 16.271 25.05 36.2 25.05h383.41c19.933 0 34.1-11.5 36.2-24.98l29.632-190.23c1.123-7.206-3.137-13.807-9.971-18.394-6.833-4.587-16.258-7.371-26.22-7.371h-437.27" fill-rule="evenodd" fill="url(#linearGradient3216)"/>
</svg>
