<?xml version="1.0" encoding="UTF-8" standalone="no"?>
<svg
   xmlns:dc="http://purl.org/dc/elements/1.1/"
   xmlns:cc="http://creativecommons.org/ns#"
   xmlns:rdf="http://www.w3.org/1999/02/22-rdf-syntax-ns#"
   xmlns:svg="http://www.w3.org/2000/svg"
   xmlns="http://www.w3.org/2000/svg"
   xmlns:sodipodi="http://sodipodi.sourceforge.net/DTD/sodipodi-0.dtd"
   xmlns:inkscape="http://www.inkscape.org/namespaces/inkscape"
   viewBox="0 0 512 512"
   id="svg2"
   version="1.1"
   inkscape:version="0.91 r"
   sodipodi:docname="application-vnd.oasis.opendocument.database.svg">
  <metadata
     id="metadata235">
    <rdf:RDF>
      <cc:Work
         rdf:about="">
        <dc:format>image/svg+xml</dc:format>
        <dc:type
           rdf:resource="http://purl.org/dc/dcmitype/StillImage" />
      </cc:Work>
    </rdf:RDF>
  </metadata>
  <defs
     id="defs233" />
  <sodipodi:namedview
     pagecolor="#ffffff"
     bordercolor="#666666"
     borderopacity="1"
     objecttolerance="10"
     gridtolerance="10"
     guidetolerance="10"
     inkscape:pageopacity="0"
     inkscape:pageshadow="2"
     inkscape:window-width="1920"
     inkscape:window-height="1028"
     id="namedview231"
     showgrid="false"
     inkscape:zoom="0.4609375"
     inkscape:cx="-696.40678"
     inkscape:cy="256"
     inkscape:window-x="0"
     inkscape:window-y="0"
     inkscape:window-maximized="1"
     inkscape:current-layer="svg2" />
  <text
     font-size="129.23"
     y="148.92"
     x="-109.95"
     font-family="Gentium Book Basic"
     line-height="125%"
     word-spacing="0"
     letter-spacing="0"
     id="text4">
    <tspan
       y="148.92"
       x="-109.95"
       id="tspan6" />
  </text>
  <text
     transform="scale(4.0128.2492)"
     font-size="46.954"
     y="248.43"
     x="169.68"
     font-family="Arial"
     text-anchor="middle"
     id="text8" />
  <text
     font-size="129.23"
     y="68.919"
     x="471.32"
     font-family="Gentium Book Basic"
     line-height="125%"
     word-spacing="0"
     letter-spacing="0"
     id="text10">
    <tspan
       y="68.919"
       x="471.32"
       id="tspan12" />
  </text>
  <text
     transform="scale(4.0128.2492)"
     font-size="46.954"
     y="-72.6"
     x="314.53"
     font-family="Arial"
     text-anchor="middle"
     id="text14" />
  <text
     font-size="129.23"
     y="-112.34"
     x="-600.26"
     font-family="Gentium Book Basic"
     line-height="125%"
     word-spacing="0"
     letter-spacing="0"
     id="text16">
    <tspan
       y="-112.34"
       x="-600.26"
       id="tspan18" />
  </text>
  <text
     transform="scale(4.0128.2492)"
     font-size="46.954"
     y="-799.96"
     x="47.49"
     font-family="Arial"
     text-anchor="middle"
     id="text20" />
  <text
     font-size="129.23"
     y="-328.81"
     x="497.79"
     font-family="Gentium Book Basic"
     line-height="125%"
     word-spacing="0"
     letter-spacing="0"
     id="text22">
    <tspan
       y="-328.81"
       x="497.79"
       id="tspan24" />
  </text>
  <text
     transform="scale(4.0128.2492)"
     font-size="46.954"
     y="-1668.62"
     x="321.13"
     font-family="Arial"
     text-anchor="middle"
     id="text26" />
  <text
     font-size="129.23"
     y="-408.82"
     x="1079.06"
     font-family="Gentium Book Basic"
     line-height="125%"
     word-spacing="0"
     letter-spacing="0"
     id="text28">
    <tspan
       y="-408.82"
       x="1079.06"
       id="tspan30" />
  </text>
  <text
     transform="scale(4.0128.2492)"
     font-size="46.954"
     y="-1989.66"
     x="465.98"
     font-family="Arial"
     text-anchor="middle"
     id="text32" />
  <text
     font-size="129.23"
     y="-881.22"
     x="689.94"
     font-family="Gentium Book Basic"
     line-height="125%"
     word-spacing="0"
     letter-spacing="0"
     id="text34">
    <tspan
       y="-881.22"
       x="689.94"
       id="tspan36" />
  </text>
  <text
     transform="scale(4.0128.2492)"
     font-size="46.954"
     y="-3885.31"
     x="369.01"
     font-family="Arial"
     text-anchor="middle"
     id="text38" />
  <text
     font-size="129.23"
     y="-961.22"
     x="1271.2"
     font-family="Gentium Book Basic"
     line-height="125%"
     word-spacing="0"
     letter-spacing="0"
     id="text40">
    <tspan
       y="-961.22"
       x="1271.2"
       id="tspan42" />
  </text>
  <text
     transform="scale(4.0128.2492)"
     font-size="46.954"
     y="-4206.34"
     x="513.86"
     font-family="Arial"
     text-anchor="middle"
     id="text44" />
  <text
     font-size="208.33"
     y="453.5"
     x="-561.6"
     font-family="Gentium Book Basic"
     line-height="125%"
     word-spacing="0"
     letter-spacing="0"
     id="text46">
    <tspan
       y="453.5"
       x="-561.6"
       id="tspan48" />
  </text>
  <path
     style="fill:#BFBFBF;fill-opacity:1"
     d="m 51.56793,8.3311719 c -5.398999,0 -9.71875,4.3509901 -9.71875,9.7500001 l 0,471.499998 c 0,5.399 4.319751,9.75 9.71875,9.75 l 421.88086,0 c 5.399,0 9.71875,-4.351 9.71875,-9.75 l 0,-315.44141 -165.81055,-165.8085881 -265.779295,0 -0.0098,0 z M 305.65582,195.63976 c 36.39788,0.18564 73.65601,6.26766 105.0332,24.31641 19.846,10.677 38.82445,30.48375 35.56445,53.59375 -4.13,23.247 -25.87137,39.33337 -47.35937,48.85937 -48.86,21.04 -105.937,23.36553 -157.5,10.01953 -27.359,-7.491 -56.62467,-19.99656 -70.88867,-44.60156 -10.804,-17.144 -4.31341,-39.16736 9.93359,-52.69336 31.00709,-28.51024 75.91341,-37.94519 117.95117,-39.45508 2.41688,-0.0383 4.8391,-0.0514 7.26563,-0.0391 z m 140.9414,106.40234 c -0.057,6.917 0.10574,13.83705 -0.0723,20.74805 1.012,14.806 0.21648,30.54961 -9.97852,42.59961 -18.417,22.904 -48.49739,33.78286 -77.15039,40.50586 -46.63,9.118 -97.02015,6.99258 -141.16015,-10.35742 -22.001,-9.5 -45.31053,-23.97777 -51.89453,-47.50977 -2.943,-15.105 -0.47226,-30.67707 -1.28126,-45.95507 8.82001,18.11499 26.57338,30.36489 45.10938,38.83789 50.47,21.989 109.61937,24.31726 162.85938,10.19726 28.63914,-8.10976 58.9878,-21.67612 73.06835,-48.01758 l 0.0293,-0.0625 0.4707,-0.98633 z m -281.54296,72.58594 c 8.82,18.449 27.20776,30.79032 46.00976,39.32032 51.01,21.878 110.71906,23.93557 164.28906,9.14257 28.06,-8.25 58.006,-22.12864 71.25,-48.43164 -0.034,8.246 0.0896,16.49628 -0.10742,24.73828 2.128,16.849 -3.42828,34.29329 -16.48828,45.98829 -24.44,22.60099 -58.98055,32.22995 -92.06055,36.75195 -44.51,4.823 -91.46046,0.29958 -131.48046,-19.35742 -20.20001,-10.414 -40.66693,-28.01778 -41.41993,-51.30079 l 0.008,0.002 0,-36.85352 z"
     id="path56"
     inkscape:connector-curvature="0" />
  <text
     font-size="208.33"
     y="-43.575"
     x="-990.51"
     font-family="Gentium Book Basic"
     line-height="125%"
     word-spacing="0"
     letter-spacing="0"
     id="text63">
    <tspan
       y="-43.575"
       x="-990.51"
       id="tspan65" />
  </text>
  <text
     transform="scale(4.0128.2492)"
     font-size="75.7"
     y="-737.75"
     x="70.891"
     font-family="Arial"
     text-anchor="middle"
     id="text67" />
  <text
     font-size="208.33"
     y="-811.53"
     x="-1638.27"
     font-family="Gentium Book Basic"
     line-height="125%"
     word-spacing="0"
     letter-spacing="0"
     id="text69">
    <tspan
       y="-811.53"
       x="-1638.27"
       id="tspan71" />
  </text>
  <text
     transform="scale(4.0128.2492)"
     font-size="75.7"
     y="-3819.41"
     x="-90.53"
     font-family="Arial"
     text-anchor="middle"
     id="text73" />
  <text
     font-size="208.33"
     y="-967.16"
     x="-931.93"
     font-family="Gentium Book Basic"
     line-height="125%"
     word-spacing="0"
     letter-spacing="0"
     id="text75">
    <tspan
       y="-967.16"
       x="-931.93"
       id="tspan77" />
  </text>
  <text
     transform="scale(4.0128.2492)"
     font-size="75.7"
     y="-4443.94"
     x="85.49"
     font-family="Arial"
     text-anchor="middle"
     id="text79" />
  <text
     font-size="129.23"
     y="244.38"
     x="-34.02"
     font-family="Gentium Book Basic"
     line-height="125%"
     word-spacing="0"
     letter-spacing="0"
     id="text87">
    <tspan
       y="244.38"
       x="-34.02"
       id="tspan89" />
  </text>
  <text
     transform="scale(4.0128.2492)"
     font-size="46.954"
     y="631.48"
     x="188.6"
     font-family="Arial"
     text-anchor="middle"
     id="text91" />
  <text
     font-size="129.23"
     y="164.38"
     x="547.25"
     font-family="Gentium Book Basic"
     line-height="125%"
     word-spacing="0"
     letter-spacing="0"
     id="text93">
    <tspan
       y="164.38"
       x="547.25"
       id="tspan95" />
  </text>
  <text
     transform="scale(4.0128.2492)"
     font-size="46.954"
     y="310.45"
     x="333.45"
     font-family="Arial"
     text-anchor="middle"
     id="text97" />
  <text
     font-size="129.23"
     y="-16.884"
     x="-524.33"
     font-family="Gentium Book Basic"
     line-height="125%"
     word-spacing="0"
     letter-spacing="0"
     id="text99">
    <tspan
       y="-16.884"
       x="-524.33"
       id="tspan101" />
  </text>
  <text
     transform="scale(4.0128.2492)"
     font-size="46.954"
     y="-416.9"
     x="66.41"
     font-family="Arial"
     text-anchor="middle"
     id="text103" />
  <text
     font-size="129.23"
     y="-233.35"
     x="573.72"
     font-family="Gentium Book Basic"
     line-height="125%"
     word-spacing="0"
     letter-spacing="0"
     id="text105">
    <tspan
       y="-233.35"
       x="573.72"
       id="tspan107" />
  </text>
  <text
     transform="scale(4.0128.2492)"
     font-size="46.954"
     y="-1285.57"
     x="340.05"
     font-family="Arial"
     text-anchor="middle"
     id="text109" />
  <text
     font-size="129.23"
     y="-313.36"
     x="1154.99"
     font-family="Gentium Book Basic"
     line-height="125%"
     word-spacing="0"
     letter-spacing="0"
     id="text111">
    <tspan
       y="-313.36"
       x="1154.99"
       id="tspan113" />
  </text>
  <text
     transform="scale(4.0128.2492)"
     font-size="46.954"
     y="-1606.61"
     x="484.9"
     font-family="Arial"
     text-anchor="middle"
     id="text115" />
  <text
     font-size="129.23"
     y="-785.76"
     x="765.87"
     font-family="Gentium Book Basic"
     line-height="125%"
     word-spacing="0"
     letter-spacing="0"
     id="text117">
    <tspan
       y="-785.76"
       x="765.87"
       id="tspan119" />
  </text>
  <text
     transform="scale(4.0128.2492)"
     font-size="46.954"
     y="-3502.26"
     x="387.93"
     font-family="Arial"
     text-anchor="middle"
     id="text121" />
  <text
     font-size="129.23"
     y="-865.76"
     x="1347.13"
     font-family="Gentium Book Basic"
     line-height="125%"
     word-spacing="0"
     letter-spacing="0"
     id="text123">
    <tspan
       y="-865.76"
       x="1347.13"
       id="tspan125" />
  </text>
  <text
     transform="scale(4.0128.2492)"
     font-size="46.954"
     y="-3823.29"
     x="532.78"
     font-family="Arial"
     text-anchor="middle"
     id="text127" />
  <g
     font-family="Gentium Book Basic"
     line-height="125%"
     word-spacing="0"
     letter-spacing="0"
     id="g129">
    <text
       y="548.96"
       x="-485.67"
       font-size="208.33"
       id="text131">
      <tspan
         y="548.96"
         x="-485.67"
         id="tspan133" />
    </text>
    <text
       y="217.75"
       x="-38.25"
       font-size="129.23"
       id="text135">
      <tspan
         y="217.75"
         x="-38.25"
         id="tspan137" />
    </text>
  </g>
  <text
     transform="scale(4.0128.2492)"
     font-size="46.954"
     y="524.62"
     x="187.55"
     font-family="Arial"
     text-anchor="middle"
     id="text139" />
  <text
     font-size="129.23"
     y="137.75"
     x="543.02"
     font-family="Gentium Book Basic"
     line-height="125%"
     word-spacing="0"
     letter-spacing="0"
     id="text141">
    <tspan
       y="137.75"
       x="543.02"
       id="tspan143" />
  </text>
  <text
     transform="scale(4.0128.2492)"
     font-size="46.954"
     y="203.59"
     x="332.4"
     font-family="Arial"
     text-anchor="middle"
     id="text145" />
  <text
     font-size="129.23"
     y="-43.514"
     x="-528.56"
     font-family="Gentium Book Basic"
     line-height="125%"
     word-spacing="0"
     letter-spacing="0"
     id="text147">
    <tspan
       y="-43.514"
       x="-528.56"
       id="tspan149" />
  </text>
  <text
     transform="scale(4.0128.2492)"
     font-size="46.954"
     y="-523.76"
     x="65.36"
     font-family="Arial"
     text-anchor="middle"
     id="text151" />
  <text
     font-size="129.23"
     y="-259.98"
     x="569.49"
     font-family="Gentium Book Basic"
     line-height="125%"
     word-spacing="0"
     letter-spacing="0"
     id="text153">
    <tspan
       y="-259.98"
       x="569.49"
       id="tspan155" />
  </text>
  <text
     transform="scale(4.0128.2492)"
     font-size="46.954"
     y="-1392.43"
     x="339"
     font-family="Arial"
     text-anchor="middle"
     id="text157" />
  <text
     font-size="129.23"
     y="-339.99"
     x="1150.76"
     font-family="Gentium Book Basic"
     line-height="125%"
     word-spacing="0"
     letter-spacing="0"
     id="text159">
    <tspan
       y="-339.99"
       x="1150.76"
       id="tspan161" />
  </text>
  <text
     transform="scale(4.0128.2492)"
     font-size="46.954"
     y="-1713.47"
     x="483.85"
     font-family="Arial"
     text-anchor="middle"
     id="text163" />
  <text
     font-size="129.23"
     y="-812.39"
     x="761.64"
     font-family="Gentium Book Basic"
     line-height="125%"
     word-spacing="0"
     letter-spacing="0"
     id="text165">
    <tspan
       y="-812.39"
       x="761.64"
       id="tspan167" />
  </text>
  <text
     transform="scale(4.0128.2492)"
     font-size="46.954"
     y="-3609.12"
     x="386.88"
     font-family="Arial"
     text-anchor="middle"
     id="text169" />
  <text
     font-size="129.23"
     y="-892.39"
     x="1342.9"
     font-family="Gentium Book Basic"
     line-height="125%"
     word-spacing="0"
     letter-spacing="0"
     id="text171">
    <tspan
       y="-892.39"
       x="1342.9"
       id="tspan173" />
  </text>
  <text
     transform="scale(4.0128.2492)"
     font-size="46.954"
     y="-3930.15"
     x="531.73"
     font-family="Arial"
     text-anchor="middle"
     id="text175" />
  <g
     font-family="Gentium Book Basic"
     line-height="125%"
     word-spacing="0"
     letter-spacing="0"
     id="g177">
    <text
       y="522.33"
       x="-489.9"
       font-size="208.33"
       id="text179">
      <tspan
         y="522.33"
         x="-489.9"
         id="tspan181" />
    </text>
    <text
       y="-78.877"
       x="-90.43"
       font-size="129.23"
       id="text183">
      <tspan
         y="-78.877"
         x="-90.43"
         id="tspan185" />
    </text>
  </g>
  <text
     transform="scale(4.0128.2492)"
     font-size="46.954"
     y="-665.68"
     x="174.55"
     font-family="Arial"
     text-anchor="middle"
     id="text187" />
  <text
     font-size="129.23"
     y="-158.88"
     x="490.84"
     font-family="Gentium Book Basic"
     line-height="125%"
     word-spacing="0"
     letter-spacing="0"
     id="text189">
    <tspan
       y="-158.88"
       x="490.84"
       id="tspan191" />
  </text>
  <text
     transform="scale(4.0128.2492)"
     font-size="46.954"
     y="-986.71"
     x="319.4"
     font-family="Arial"
     text-anchor="middle"
     id="text193" />
  <text
     font-size="129.23"
     y="-340.14"
     x="-580.74"
     font-family="Gentium Book Basic"
     line-height="125%"
     word-spacing="0"
     letter-spacing="0"
     id="text195">
    <tspan
       y="-340.14"
       x="-580.74"
       id="tspan197" />
  </text>
  <text
     transform="scale(4.0128.2492)"
     font-size="46.954"
     y="-1714.06"
     x="52.36"
     font-family="Arial"
     text-anchor="middle"
     id="text199" />
  <text
     font-size="129.23"
     y="-556.61"
     x="517.31"
     font-family="Gentium Book Basic"
     line-height="125%"
     word-spacing="0"
     letter-spacing="0"
     id="text201">
    <tspan
       y="-556.61"
       x="517.31"
       id="tspan203" />
  </text>
  <text
     transform="scale(4.0128.2492)"
     font-size="46.954"
     y="-2582.73"
     x="326"
     font-family="Arial"
     text-anchor="middle"
     id="text205" />
  <text
     font-size="129.23"
     y="-636.62"
     x="1098.58"
     font-family="Gentium Book Basic"
     line-height="125%"
     word-spacing="0"
     letter-spacing="0"
     id="text207">
    <tspan
       y="-636.62"
       x="1098.58"
       id="tspan209" />
  </text>
  <text
     transform="scale(4.0128.2492)"
     font-size="46.954"
     y="-2903.77"
     x="470.84"
     font-family="Arial"
     text-anchor="middle"
     id="text211" />
  <text
     font-size="129.23"
     y="-1109.02"
     x="709.46"
     font-family="Gentium Book Basic"
     line-height="125%"
     word-spacing="0"
     letter-spacing="0"
     id="text213">
    <tspan
       y="-1109.02"
       x="709.46"
       id="tspan215" />
  </text>
  <text
     transform="scale(4.0128.2492)"
     font-size="46.954"
     y="-4799.42"
     x="373.88"
     font-family="Arial"
     text-anchor="middle"
     id="text217" />
  <text
     font-size="129.23"
     y="-1189.02"
     x="1290.72"
     font-family="Gentium Book Basic"
     line-height="125%"
     word-spacing="0"
     letter-spacing="0"
     id="text219">
    <tspan
       y="-1189.02"
       x="1290.72"
       id="tspan221" />
  </text>
  <text
     transform="scale(4.0128.2492)"
     font-size="46.954"
     y="-5120.45"
     x="518.72"
     font-family="Arial"
     text-anchor="middle"
     id="text223" />
  <text
     font-size="208.33"
     y="225.7"
     x="-542.08"
     font-family="Gentium Book Basic"
     line-height="125%"
     word-spacing="0"
     letter-spacing="0"
     id="text225">
    <tspan
       y="225.7"
       x="-542.08"
       id="tspan227" />
  </text>
</svg>
