<?xml version="1.0" encoding="UTF-8" standalone="no"?>
<svg
   xmlns:dc="http://purl.org/dc/elements/1.1/"
   xmlns:cc="http://creativecommons.org/ns#"
   xmlns:rdf="http://www.w3.org/1999/02/22-rdf-syntax-ns#"
   xmlns:svg="http://www.w3.org/2000/svg"
   xmlns="http://www.w3.org/2000/svg"
   xmlns:sodipodi="http://sodipodi.sourceforge.net/DTD/sodipodi-0.dtd"
   xmlns:inkscape="http://www.inkscape.org/namespaces/inkscape"
   viewBox="0 0 512 512"
   id="svg2"
   version="1.1"
   inkscape:version="0.91 r"
   sodipodi:docname="application-vnd.oasis.opendocument.graphics.svg">
  <metadata
     id="metadata139">
    <rdf:RDF>
      <cc:Work
         rdf:about="">
        <dc:format>image/svg+xml</dc:format>
        <dc:type
           rdf:resource="http://purl.org/dc/dcmitype/StillImage" />
      </cc:Work>
    </rdf:RDF>
  </metadata>
  <defs
     id="defs137" />
  <sodipodi:namedview
     pagecolor="#ffffff"
     bordercolor="#666666"
     borderopacity="1"
     objecttolerance="10"
     gridtolerance="10"
     guidetolerance="10"
     inkscape:pageopacity="0"
     inkscape:pageshadow="2"
     inkscape:window-width="1680"
     inkscape:window-height="998"
     id="namedview135"
     showgrid="false"
     inkscape:zoom="0.4609375"
     inkscape:cx="256"
     inkscape:cy="256"
     inkscape:window-x="0"
     inkscape:window-y="0"
     inkscape:window-maximized="1"
     inkscape:current-layer="svg2" />
  <text
     font-size="129.23"
     y="148.92"
     x="-109.95"
     font-family="Gentium Book Basic"
     line-height="125%"
     word-spacing="0"
     letter-spacing="0"
     id="text4">
    <tspan
       y="148.92"
       x="-109.95"
       id="tspan6" />
  </text>
  <text
     transform="scale(4.0128.2492)"
     font-size="46.954"
     y="248.43"
     x="169.68"
     font-family="Arial"
     text-anchor="middle"
     id="text8" />
  <text
     font-size="129.23"
     y="68.919"
     x="471.32"
     font-family="Gentium Book Basic"
     line-height="125%"
     word-spacing="0"
     letter-spacing="0"
     id="text10">
    <tspan
       y="68.919"
       x="471.32"
       id="tspan12" />
  </text>
  <text
     transform="scale(4.0128.2492)"
     font-size="46.954"
     y="-72.6"
     x="314.53"
     font-family="Arial"
     text-anchor="middle"
     id="text14" />
  <text
     font-size="129.23"
     y="-112.34"
     x="-600.26"
     font-family="Gentium Book Basic"
     line-height="125%"
     word-spacing="0"
     letter-spacing="0"
     id="text16">
    <tspan
       y="-112.34"
       x="-600.26"
       id="tspan18" />
  </text>
  <text
     transform="scale(4.0128.2492)"
     font-size="46.954"
     y="-799.96"
     x="47.49"
     font-family="Arial"
     text-anchor="middle"
     id="text20" />
  <text
     font-size="129.23"
     y="-328.81"
     x="497.79"
     font-family="Gentium Book Basic"
     line-height="125%"
     word-spacing="0"
     letter-spacing="0"
     id="text22">
    <tspan
       y="-328.81"
       x="497.79"
       id="tspan24" />
  </text>
  <text
     transform="scale(4.0128.2492)"
     font-size="46.954"
     y="-1668.62"
     x="321.13"
     font-family="Arial"
     text-anchor="middle"
     id="text26" />
  <text
     font-size="129.23"
     y="-408.82"
     x="1079.06"
     font-family="Gentium Book Basic"
     line-height="125%"
     word-spacing="0"
     letter-spacing="0"
     id="text28">
    <tspan
       y="-408.82"
       x="1079.06"
       id="tspan30" />
  </text>
  <text
     transform="scale(4.0128.2492)"
     font-size="46.954"
     y="-1989.66"
     x="465.98"
     font-family="Arial"
     text-anchor="middle"
     id="text32" />
  <text
     font-size="129.23"
     y="-881.22"
     x="689.94"
     font-family="Gentium Book Basic"
     line-height="125%"
     word-spacing="0"
     letter-spacing="0"
     id="text34">
    <tspan
       y="-881.22"
       x="689.94"
       id="tspan36" />
  </text>
  <text
     transform="scale(4.0128.2492)"
     font-size="46.954"
     y="-3885.31"
     x="369.01"
     font-family="Arial"
     text-anchor="middle"
     id="text38" />
  <text
     font-size="129.23"
     y="-961.22"
     x="1271.2"
     font-family="Gentium Book Basic"
     line-height="125%"
     word-spacing="0"
     letter-spacing="0"
     id="text40">
    <tspan
       y="-961.22"
       x="1271.2"
       id="tspan42" />
  </text>
  <text
     transform="scale(4.0128.2492)"
     font-size="46.954"
     y="-4206.34"
     x="513.86"
     font-family="Arial"
     text-anchor="middle"
     id="text44" />
  <text
     font-size="208.33"
     y="453.5"
     x="-561.6"
     font-family="Gentium Book Basic"
     line-height="125%"
     word-spacing="0"
     letter-spacing="0"
     id="text46">
    <tspan
       y="453.5"
       x="-561.6"
       id="tspan48" />
  </text>
  <path
     style="fill:#BFBFBF;fill-opacity:1"
     d="M 49.398438 8.3300781 C 43.999437 8.3300781 39.679688 12.681078 39.679688 18.080078 L 39.679688 489.58008 C 39.679688 494.97908 43.999437 499.33008 49.398438 499.33008 L 471.2793 499.33008 C 476.6783 499.33008 480.99805 494.97908 480.99805 489.58008 L 480.99805 174.14062 L 315.1875 8.3300781 L 49.408203 8.3300781 L 49.398438 8.3300781 z M 255.31055 165.17969 L 255.30859 165.1875 C 265.66559 166.7585 265.93589 180.39703 267.46289 188.45703 C 267.78289 201.48503 271.05014 218.28492 260.24414 228.04492 C 245.62814 236.14492 241.18656 214.32744 241.85156 204.02344 C 243.11656 191.01344 240.95555 170.81469 255.31055 165.17969 z M 276.47461 234.24219 C 277.50928 234.23902 278.54438 234.24758 279.57812 234.26758 L 279.55664 234.24805 C 288.60564 234.27905 297.74489 234.98811 306.46289 237.53711 C 325.63989 238.10611 335.45516 267.9223 309.28516 263.4043 C 293.56116 260.6203 277.84672 255.22692 261.63672 258.16992 C 219.81672 262.63992 182.5978 300.67836 185.2168 343.81836 C 183.4978 362.77836 197.17811 377.2202 210.16211 388.9082 C 222.51211 403.0662 242.21203 402.4852 259.33203 401.9082 C 282.73203 402.9542 301.65281 386.06612 314.88281 368.57812 C 329.27181 349.16812 318.78509 321.58759 302.37109 307.05859 C 283.69709 290.43959 254.03011 298.19053 239.53711 316.51953 C 226.32411 329.47953 236.38042 349.15623 252.10742 353.74023 C 272.79542 360.60923 252.32617 380.27414 238.32617 373.24414 C 218.23617 365.63314 203.34027 341.65844 209.19727 320.27344 C 216.03027 291.73044 245.23845 274.65945 273.18945 273.81445 C 305.51745 271.38245 336.58637 294.78453 344.10938 326.14453 C 351.87237 351.06353 344.5723 379.5143 325.0293 397.0293 C 304.7503 415.5113 277.69769 428.47133 249.92969 428.61133 C 218.52969 426.02433 186.75331 409.90289 170.07031 382.46289 C 147.51331 346.16289 159.25719 297.04148 189.36719 268.77148 C 212.04369 245.58445 244.39985 234.3405 276.47461 234.24219 z M 398.74219 246.07617 C 404.09875 246.14226 409.10859 251.01844 407.21484 256.61719 C 399.45284 272.34119 382.11338 279.8165 367.73438 288.3125 C 353.97737 299.8145 341.01197 277.83675 356.54297 270.09375 C 368.81597 260.20275 381.99187 249.45081 397.67188 246.13281 L 397.66797 246.12891 C 398.02622 246.08934 398.38508 246.07177 398.74219 246.07617 z M 114.91211 246.13281 C 118.05211 246.12381 121.08789 247.11416 123.96289 248.28516 C 137.44489 254.70816 152.5785 261.44725 160.9375 274.28125 C 159.6435 294.39125 134.16533 282.30492 123.98633 275.54492 C 111.68033 271.75392 92.021016 248.36077 114.91602 246.13477 L 114.91211 246.13281 z M 177.22852 409.62891 L 177.23242 409.63477 C 181.25242 409.54777 184.3917 413.56664 183.5957 417.43164 C 178.5107 433.42964 164.65008 444.96312 152.08008 455.32812 C 138.10508 469.12812 125.95623 446.43534 140.24023 437.27734 C 150.86723 426.38234 161.98552 413.45391 177.22852 409.62891 z M 322.20508 421.17773 C 325.44182 421.26649 328.32938 423.24102 330.82031 425.13477 C 342.55131 435.60177 354.16017 448.13238 358.70117 463.48438 C 360.51817 488.25538 334.38433 471.64714 329.61133 458.36914 C 324.09833 448.56014 306.22273 428.86069 321.55273 421.17969 L 321.55469 421.18555 C 321.77356 421.17411 321.9893 421.17182 322.20508 421.17773 z "
     id="path56" />
  <text
     font-size="208.33"
     y="-43.575"
     x="-990.51"
     font-family="Gentium Book Basic"
     line-height="125%"
     word-spacing="0"
     letter-spacing="0"
     id="text63">
    <tspan
       y="-43.575"
       x="-990.51"
       id="tspan65" />
  </text>
  <text
     transform="scale(4.0128.2492)"
     font-size="75.7"
     y="-737.75"
     x="70.891"
     font-family="Arial"
     text-anchor="middle"
     id="text67" />
  <text
     font-size="208.33"
     y="-811.53"
     x="-1638.27"
     font-family="Gentium Book Basic"
     line-height="125%"
     word-spacing="0"
     letter-spacing="0"
     id="text69">
    <tspan
       y="-811.53"
       x="-1638.27"
       id="tspan71" />
  </text>
  <text
     transform="scale(4.0128.2492)"
     font-size="75.7"
     y="-3819.41"
     x="-90.53"
     font-family="Arial"
     text-anchor="middle"
     id="text73" />
  <text
     font-size="208.33"
     y="-967.16"
     x="-931.93"
     font-family="Gentium Book Basic"
     line-height="125%"
     word-spacing="0"
     letter-spacing="0"
     id="text75">
    <tspan
       y="-967.16"
       x="-931.93"
       id="tspan77" />
  </text>
  <text
     transform="scale(4.0128.2492)"
     font-size="75.7"
     y="-4443.94"
     x="85.49"
     font-family="Arial"
     text-anchor="middle"
     id="text79" />
  <text
     font-size="129.23"
     y="244.38"
     x="-34.02"
     font-family="Gentium Book Basic"
     line-height="125%"
     word-spacing="0"
     letter-spacing="0"
     id="text87">
    <tspan
       y="244.38"
       x="-34.02"
       id="tspan89" />
  </text>
  <text
     transform="scale(4.0128.2492)"
     font-size="46.954"
     y="631.48"
     x="188.6"
     font-family="Arial"
     text-anchor="middle"
     id="text91" />
  <text
     font-size="129.23"
     y="164.38"
     x="547.25"
     font-family="Gentium Book Basic"
     line-height="125%"
     word-spacing="0"
     letter-spacing="0"
     id="text93">
    <tspan
       y="164.38"
       x="547.25"
       id="tspan95" />
  </text>
  <text
     transform="scale(4.0128.2492)"
     font-size="46.954"
     y="310.45"
     x="333.45"
     font-family="Arial"
     text-anchor="middle"
     id="text97" />
  <text
     font-size="129.23"
     y="-16.884"
     x="-524.33"
     font-family="Gentium Book Basic"
     line-height="125%"
     word-spacing="0"
     letter-spacing="0"
     id="text99">
    <tspan
       y="-16.884"
       x="-524.33"
       id="tspan101" />
  </text>
  <text
     transform="scale(4.0128.2492)"
     font-size="46.954"
     y="-416.9"
     x="66.41"
     font-family="Arial"
     text-anchor="middle"
     id="text103" />
  <text
     font-size="129.23"
     y="-233.35"
     x="573.72"
     font-family="Gentium Book Basic"
     line-height="125%"
     word-spacing="0"
     letter-spacing="0"
     id="text105">
    <tspan
       y="-233.35"
       x="573.72"
       id="tspan107" />
  </text>
  <text
     transform="scale(4.0128.2492)"
     font-size="46.954"
     y="-1285.57"
     x="340.05"
     font-family="Arial"
     text-anchor="middle"
     id="text109" />
  <text
     font-size="129.23"
     y="-313.36"
     x="1154.99"
     font-family="Gentium Book Basic"
     line-height="125%"
     word-spacing="0"
     letter-spacing="0"
     id="text111">
    <tspan
       y="-313.36"
       x="1154.99"
       id="tspan113" />
  </text>
  <text
     transform="scale(4.0128.2492)"
     font-size="46.954"
     y="-1606.61"
     x="484.9"
     font-family="Arial"
     text-anchor="middle"
     id="text115" />
  <text
     font-size="129.23"
     y="-785.76"
     x="765.87"
     font-family="Gentium Book Basic"
     line-height="125%"
     word-spacing="0"
     letter-spacing="0"
     id="text117">
    <tspan
       y="-785.76"
       x="765.87"
       id="tspan119" />
  </text>
  <text
     transform="scale(4.0128.2492)"
     font-size="46.954"
     y="-3502.26"
     x="387.93"
     font-family="Arial"
     text-anchor="middle"
     id="text121" />
  <text
     font-size="129.23"
     y="-865.76"
     x="1347.13"
     font-family="Gentium Book Basic"
     line-height="125%"
     word-spacing="0"
     letter-spacing="0"
     id="text123">
    <tspan
       y="-865.76"
       x="1347.13"
       id="tspan125" />
  </text>
  <text
     transform="scale(4.0128.2492)"
     font-size="46.954"
     y="-3823.29"
     x="532.78"
     font-family="Arial"
     text-anchor="middle"
     id="text127" />
  <text
     font-size="208.33"
     y="548.96"
     x="-485.67"
     font-family="Gentium Book Basic"
     line-height="125%"
     word-spacing="0"
     letter-spacing="0"
     id="text129">
    <tspan
       y="548.96"
       x="-485.67"
       id="tspan131" />
  </text>
</svg>
