<?xml version="1.0" encoding="UTF-8" standalone="no"?>
<svg
   xmlns:dc="http://purl.org/dc/elements/1.1/"
   xmlns:cc="http://creativecommons.org/ns#"
   xmlns:rdf="http://www.w3.org/1999/02/22-rdf-syntax-ns#"
   xmlns:svg="http://www.w3.org/2000/svg"
   xmlns="http://www.w3.org/2000/svg"
   xmlns:sodipodi="http://sodipodi.sourceforge.net/DTD/sodipodi-0.dtd"
   xmlns:inkscape="http://www.inkscape.org/namespaces/inkscape"
   viewBox="0 0 512 512"
   id="svg2"
   version="1.1"
   inkscape:version="0.91 r"
   sodipodi:docname="image-x-xcf.svg">
  <metadata
     id="metadata38">
    <rdf:RDF>
      <cc:Work
         rdf:about="">
        <dc:format>image/svg+xml</dc:format>
        <dc:type
           rdf:resource="http://purl.org/dc/dcmitype/StillImage" />
      </cc:Work>
    </rdf:RDF>
  </metadata>
  <defs
     id="defs36" />
  <sodipodi:namedview
     pagecolor="#ffffff"
     bordercolor="#666666"
     borderopacity="1"
     objecttolerance="10"
     gridtolerance="10"
     guidetolerance="10"
     inkscape:pageopacity="0"
     inkscape:pageshadow="2"
     inkscape:window-width="1920"
     inkscape:window-height="1028"
     id="namedview34"
     showgrid="false"
     inkscape:zoom="0.4609375"
     inkscape:cx="256"
     inkscape:cy="256"
     inkscape:window-x="0"
     inkscape:window-y="0"
     inkscape:window-maximized="1"
     inkscape:current-layer="svg2" />
  <path
     d="m 50.402576,12.669487 c -4.57342,0.004 -8.24805,3.12179 -8.24805,7 l 0,477.000003 c 0,3.881 3.67981,7 8.25781,7 l 428.529304,0 c 4.578,0 8.25781,-3.119 8.25781,-7 l 0,-477.000003 c 0,-3.881 -3.67981,-7 -8.25781,-7 l -428.529304,0 -0.01,0 z m 157.875004,147.962893 9.125,8.21875 9.08984,8.21875 13.21875,12.31445 c 0,0 13.95,-4.04345 14.625,-4.06445 0.675,-0.021 7.00825,-2.01175 8.15625,-2.21875 3.988,-0.552 5.5765,-0.947 12.3125,-0.75 l 7.40625,-0.0937 8.71875,1.03125 14.65625,2.9375 8.53125,3.09375 6.96875,3.25 8.1875,5.18945 5.53125,3.9375 6,5.59375 c 3.99,3.98 7.86255,7.33714 10.06055,13.11914 l 10.5,-3.02929 15.625,-8.21875 29.6875,-23.3125 c 11.061,-6.975 0.0545,0.02 10.9375,-7 -3.62,19.93 0.1265,-0.0713 -3.5625,19.96875 l -1.65625,6.90625 -4.5625,17.71875 -7.9375,21.34375 -7.5,19.84375 -12.15625,24.34375 -6.625,11.28125 -8,11.34375 -9.34375,11.375 -10.08984,10.46875 -12.65625,9.5 -13.59375,7.78125 -13.47071,5.4375 -16.25,2.5957 -17.1875,-0.7207 -14.15625,-1.25 -14.4375,-4.5 -16.84375,-8.5293 -15.02929,-8.28125 -11.0918,-7.625 -11.125,-9.18945 -13.7793,-13.0586 -18.16015,-20.625 -9.21875,-13.625 0.1875,-0.25 c -14.03,3.333 -29.12086,-6.20925 -35.13086,-23.03125 -6.61,-18.511 0.25375,-38.84815 15.34375,-45.41015 15.08,-6.565 32.70054,3.118 39.31054,21.625 2.405,6.735 3.00375,13.7284 2.09375,20.1914 l 0.625,0.25 8.28125,0.15625 8.125,-1.43945 7.875,-5.15625 4.625,-5.4043 4,-7.53125 c 0,0 2.40175,-7.234 2.46875,-7.75 0.068,-0.516 2.09375,-11.65625 2.09375,-11.65625 l 0.65625,-7.8125 0.21875,-10.09179 -0.46875,-12.0586 -0.375,-8.09375 -0.84375,-7.25 0.01,-0.008 z"
     id="path12"
     style="fill:#BFBFBF;fill-opacity:1"
     inkscape:connector-curvature="0" />
  <text
     font-size="208.33"
     y="430.79"
     x="-511.65"
     font-family="Gentium Book Basic"
     line-height="125%"
     word-spacing="0"
     letter-spacing="0"
     id="text20">
    <tspan
       y="430.79"
       x="-511.65"
       id="tspan22" />
  </text>
  <text
     transform="scale(4.0128.2492)"
     font-size="75.7"
     y="1165.8"
     x="190.22"
     font-family="Arial"
     text-anchor="middle"
     id="text24" />
  <text
     font-size="208.33"
     y="304.85"
     x="300.18"
     font-family="Gentium Book Basic"
     line-height="125%"
     word-spacing="0"
     letter-spacing="0"
     id="text26">
    <tspan
       y="304.85"
       x="300.18"
       id="tspan28" />
  </text>
  <text
     transform="scale(4.0128.2492)"
     font-size="75.7"
     y="660.42"
     x="392.53"
     font-family="Arial"
     text-anchor="middle"
     id="text30" />
</svg>
