/* XPM */
static char * hide_pressed_xpm[] = {
"25 26 14 1",
" 	c None",
".	c #EBEBEB",
"+	c #D0D0D0",
"@	c #C2C2C2",
"#	c #A8A8A8",
"$	c #9C9C9C",
"%	c #C4C4C4",
"&	c #B4B4B4",
"*	c #838383",
"=	c #6E6E6E",
"-	c #888888",
";	c #BABABA",
">	c #757575",
",	c #8D8D8D",
".........................",
"+++++++++++++++++++++++++",
"+++++++++++++++++++++++++",
"+++++++++++++++++++++++++",
"+++++++++++++++++++++++++",
"+++++++++++++++++++++++++",
"+++++++++++++++++++++++++",
"+++++++++++++++++++++++++",
"+++++++++++++++++++++++++",
"+++++++++++++++++++++++++",
"+++++++++++++++++++++++++",
"+++++++++++++++++++++++++",
"+++++++++++++++++++++++++",
"+++++++++++++++++++++++++",
"+++++++++++++++++++++++++",
"++++++@#$$$$$$$$$#%++++++",
"++++++&*=========-;++++++",
"++++++&*=========-;++++++",
"++++++&->>>>>>>>>,;++++++",
"+++++++++++++++++++++++++",
"+++++++++++++++++++++++++",
"+++++++++++++++++++++++++",
"+++++++++++++++++++++++++",
"+++++++++++++++++++++++++",
"+++++++++++++++++++++++++",
"+++++++++++++++++++++++++"};
