/* XPM */
static char * maximize_active_xpm[] = {
"25 26 16 1",
" 	c None",
".	c #EBEBEB",
"+	c #D0D0D0",
"@	c #CFCFCF",
"#	c #C7C7C7",
"$	c #B5B5B5",
"%	c #A4A4A4",
"&	c #A1A1A1",
"*	c #9E9E9E",
"=	c #9A9A9A",
"-	c #BEBEBE",
";	c #969696",
">	c #BBBBBB",
",	c #ADADAD",
"'	c #A8A8A8",
")	c #B2B2B2",
".........................",
"+++++++++++++++++++++++++",
"+++++++++++++++++++++++++",
"+++++++++++++++++++++++++",
"+++++++++++++++++++++++++",
"+++++++++++++++++@+++++++",
"+++++++++++#$%%&*=*$+++++",
"++++++++++++-&;;;;=$+++++",
"+++++++++++++-&;;;=$@@+++",
"+++++++++++++-&;;;=$+++++",
"++++++++++++-&;;;;=>+++++",
"+++++++++++-&;;&,&=$+++++",
"++++@##+++-&;;&-+#%-+++++",
"++++@-&>@-&;;&-+++##+++++",
"++++@-**'&;;&-+++++++++++",
"++++@-*;;;;&-++++++++++++",
"+++++$*;;;&-@@+++++++++++",
"+++++>=;;;&-@@+++++++++++",
"++++@$=;;;;&-@@++++++++++",
"++++@>**&%%%)#+++++++++++",
"+++++++++++++++++++++++++",
"+++++++++++++++++++++++++",
"+++++++++++++++++++++++++",
"+++++++++++++++++++++++++",
"+++++++++++++++++++++++++",
"+++++++++++++++++++++++++"};
