/* XPM */
static char * maximize_prelight_xpm[] = {
"25 26 16 1",
" 	c None",
".	c #EBEBEB",
"+	c #D0D0D0",
"@	c #C6C6C6",
"#	c #B0B0B0",
"$	c #9C9C9C",
"%	c #999999",
"&	c #929292",
"*	c #959595",
"=	c #BBBBBB",
"-	c #8C8C8C",
";	c #CFCFCF",
">	c #A8A8A8",
",	c #B8B8B8",
"'	c #A2A2A2",
")	c #AEAEAE",
".........................",
"+++++++++++++++++++++++++",
"+++++++++++++++++++++++++",
"+++++++++++++++++++++++++",
"+++++++++++++++++++++++++",
"+++++++++++++++++++++++++",
"+++++++++++@#$$%%&*#+++++",
"++++++++++++=%-----#+++++",
"+++++++++++++=%----#+++++",
"+++++++++++++=%---&#+++++",
"++++++;;++++=%----&#+++++",
"++++++;;+++=%--%>$&,+++++",
"+++++@@;++=%--%=+=',+++++",
"++++;,',+=%--%=+++@@+++++",
"++++;,**'%--%=+++++++++++",
"++++;=*----%=++++++++++++",
"+++++#&---%,;;+++++++++++",
"+++++,&---*=+++++++++++++",
"+++++)&----*=;;++++++++++",
"+++++,**%$$')@;++++++++++",
"+++++++++++++++++++++++++",
"+++++++++++++++++++++++++",
"+++++++++++++++++++++++++",
"+++++++++++++++++++++++++",
"+++++++++++++++++++++++++",
"+++++++++++++++++++++++++"};
