/* XPM */
static char * menu_active_xpm[] = {
"25 26 7 1",
" 	c None",
".	c #EBEBEB",
"+	c #D0D0D0",
"@	c #C9C9C9",
"#	c #B3B3B3",
"$	c #969696",
"%	c #C1C1C1",
".........................",
"+++++++++++++++++++++++++",
"+++++++++++++++++++++++++",
"+++++++++++++++++++++++++",
"+++++++++++++++++++++++++",
"+++++++++++++++++++++++++",
"+++++++++++++++++++++++++",
"+++++++++++++++++++++++++",
"+++++++++++++++++++++++++",
"+++++++++++++++++++++++++",
"+++++++@#########@+++++++",
"++++++++#$$$$$$$#++++++++",
"+++++++++#$$$$$#+++++++++",
"++++++++++#$$$#++++++++++",
"+++++++++++#$#+++++++++++",
"++++++++++++%++++++++++++",
"+++++++++++++++++++++++++",
"+++++++++++++++++++++++++",
"+++++++++++++++++++++++++",
"+++++++++++++++++++++++++",
"+++++++++++++++++++++++++",
"+++++++++++++++++++++++++",
"+++++++++++++++++++++++++",
"+++++++++++++++++++++++++",
"+++++++++++++++++++++++++",
"+++++++++++++++++++++++++"};
