/* XPM */
static char * title_5_inactive_xpm[] = {
"10 26 3 1",
" 	c None",
".	c #EBEBEB",
"+	c #D0D0D0",
"..........",
"++++++++++",
"++++++++++",
"++++++++++",
"++++++++++",
"++++++++++",
"++++++++++",
"++++++++++",
"++++++++++",
"++++++++++",
"++++++++++",
"++++++++++",
"++++++++++",
"++++++++++",
"++++++++++",
"++++++++++",
"++++++++++",
"++++++++++",
"++++++++++",
"++++++++++",
"++++++++++",
"++++++++++",
"++++++++++",
"++++++++++",
"++++++++++",
"++++++++++"};
