/* XPM */
static char * title_1_active_xpm[] = {
"4 20 3 1",
" 	c None",
".	c #282828",
"+	c #222222",
"....",
"....",
"....",
"....",
"....",
"....",
"....",
"....",
"++++",
"++++",
"++++",
"++++",
"++++",
"++++",
"++++",
"++++",
"++++",
"++++",
"++++",
"++++"};
