<?xml version="1.0" encoding="UTF-8" standalone="no"?>
<svg
   xmlns:dc="http://purl.org/dc/elements/1.1/"
   xmlns:cc="http://creativecommons.org/ns#"
   xmlns:rdf="http://www.w3.org/1999/02/22-rdf-syntax-ns#"
   xmlns:svg="http://www.w3.org/2000/svg"
   xmlns="http://www.w3.org/2000/svg"
   xmlns:sodipodi="http://sodipodi.sourceforge.net/DTD/sodipodi-0.dtd"
   xmlns:inkscape="http://www.inkscape.org/namespaces/inkscape"
   version="1.1"
   width="512"
   height="512"
   viewBox="0 0 512 512"
   id="svg2"
   inkscape:version="0.91 r"
   sodipodi:docname="applications-python.svg">
  <defs
     id="defs42" />
  <sodipodi:namedview
     pagecolor="#ffffff"
     bordercolor="#666666"
     borderopacity="1"
     objecttolerance="10"
     gridtolerance="10"
     guidetolerance="10"
     inkscape:pageopacity="0"
     inkscape:pageshadow="2"
     inkscape:window-width="647"
     inkscape:window-height="480"
     id="namedview40"
     showgrid="false"
     inkscape:zoom="0.4609375"
     inkscape:cx="256"
     inkscape:cy="256"
     inkscape:window-x="0"
     inkscape:window-y="0"
     inkscape:window-maximized="0"
     inkscape:current-layer="svg2" />
  <metadata
     id="metadata78">
    <rdf:RDF>
      <cc:Work
         rdf:about="">
        <dc:format>image/svg+xml</dc:format>
        <dc:type
           rdf:resource="http://purl.org/dc/dcmitype/StillImage" />
      </cc:Work>
    </rdf:RDF>
  </metadata>
  <text
     x="729.64"
     y="231.36"
     id="text20"
     font-family="Gentium Book Basic"
     word-spacing="0"
     line-height="125%"
     letter-spacing="0"
     font-size="129.23">
    <tspan
       x="729.64"
       y="231.36"
       id="tspan22" />
  </text>
  <text
     x="378.91"
     y="579.25"
     transform="scale(4.0128,0.2492)"
     id="text24"
     font-family="Arial"
     text-anchor="middle"
     font-size="46.954" />
  <text
     x="1310.91"
     y="151.36"
     id="text26"
     font-family="Gentium Book Basic"
     word-spacing="0"
     line-height="125%"
     letter-spacing="0"
     font-size="129.23">
    <tspan
       x="1310.91"
       y="151.36"
       id="tspan28" />
  </text>
  <text
     x="523.76"
     y="258.22"
     transform="scale(4.0128,0.2492)"
     id="text30"
     font-family="Arial"
     text-anchor="middle"
     font-size="46.954" />
  <text
     x="239.33"
     y="-29.901"
     id="text32"
     font-family="Gentium Book Basic"
     word-spacing="0"
     line-height="125%"
     letter-spacing="0"
     font-size="129.23">
    <tspan
       x="239.33"
       y="-29.901"
       id="tspan34" />
  </text>
  <text
     x="256.72"
     y="-469.14"
     transform="scale(4.0128,0.2492)"
     id="text36"
     font-family="Arial"
     text-anchor="middle"
     font-size="46.954" />
  <text
     x="1337.38"
     y="-246.37"
     id="text38"
     font-family="Gentium Book Basic"
     word-spacing="0"
     line-height="125%"
     letter-spacing="0"
     font-size="129.23">
    <tspan
       x="1337.38"
       y="-246.37"
       id="tspan40" />
  </text>
  <text
     x="530.36"
     y="-1337.81"
     transform="scale(4.0128,0.2492)"
     id="text42"
     font-family="Arial"
     text-anchor="middle"
     font-size="46.954" />
  <text
     x="1918.65"
     y="-326.38"
     id="text44"
     font-family="Gentium Book Basic"
     word-spacing="0"
     line-height="125%"
     letter-spacing="0"
     font-size="129.23">
    <tspan
       x="1918.65"
       y="-326.38"
       id="tspan46" />
  </text>
  <text
     x="675.21"
     y="-1658.85"
     transform="scale(4.0128,0.2492)"
     id="text48"
     font-family="Arial"
     text-anchor="middle"
     font-size="46.954" />
  <text
     x="1529.53"
     y="-798.78"
     id="text50"
     font-family="Gentium Book Basic"
     word-spacing="0"
     line-height="125%"
     letter-spacing="0"
     font-size="129.23">
    <tspan
       x="1529.53"
       y="-798.78"
       id="tspan52" />
  </text>
  <text
     x="578.24"
     y="-3554.51"
     transform="scale(4.0128,0.2492)"
     id="text54"
     font-family="Arial"
     text-anchor="middle"
     font-size="46.954" />
  <text
     x="2110.79"
     y="-878.78"
     id="text56"
     font-family="Gentium Book Basic"
     word-spacing="0"
     line-height="125%"
     letter-spacing="0"
     font-size="129.23">
    <tspan
       x="2110.79"
       y="-878.78"
       id="tspan58" />
  </text>
  <text
     x="723.09"
     y="-3875.54"
     transform="scale(4.0128,0.2492)"
     id="text60"
     font-family="Arial"
     text-anchor="middle"
     font-size="46.954" />
  <text
     x="277.99"
     y="535.94"
     id="text62"
     font-family="Gentium Book Basic"
     word-spacing="0"
     line-height="125%"
     letter-spacing="0"
     font-size="208.33">
    <tspan
       x="277.99"
       y="535.94"
       id="tspan64" />
  </text>
  <path
     d="m 255.90756,65.537993 c -15.54972,0.07138 -30.35943,1.380082 -43.41905,3.69053 -38.47573,6.796903 -45.47132,21.04387 -45.47132,47.284467 l 0,34.64481 90.90695,0 0,11.55938 -90.90695,0 -34.12252,0 c -26.42381,0 -49.553269,15.88403 -56.789189,46.10068 -8.35187,34.63292 -8.71831,56.25024 0,92.40601 6.46259,26.91754 21.90286,46.09949 48.329049,46.09949 l 26.77597,0 0,-46.03049 c 0,-30.01678 25.95505,-56.47628 56.78918,-56.47628 l 95.29704,0 c 25.28048,0 49.19516,-20.81545 49.19516,-46.20419 l 0,-82.10298 c 0,-24.640415 -24.52382,-43.139462 -49.19516,-47.248775 -15.6211,-2.59955 -31.84421,-3.797604 -47.38797,-3.725031 m -49.15947,27.855051 c 9.39169,0 17.06066,7.790325 17.06066,17.374755 0,9.5535 -7.66897,17.30456 -17.06066,17.30456 -9.42501,0 -17.06067,-7.75463 -17.06067,-17.30456 0,-9.58919 7.63566,-17.374755 17.06067,-17.374755 m 158.56665,69.111175 0,40.39 c 0,31.30169 -26.52731,53.93027 -56.78918,53.93027 l -99.75851,0 c -24.87598,0 -45.47132,24.98424 -45.47132,49.89591 l 0,86.60014 c 0,24.64161 21.43886,39.13366 45.47132,46.2042 28.77947,8.46252 60.09305,9.9925 94.53561,0 22.89033,-6.62797 45.47133,-19.96598 45.47133,-46.2042 l 0,-34.64481 -90.84747,0 0,-11.55938 90.84747,0 45.43562,0 c 26.42381,0 36.28307,-18.43361 45.47133,-46.09949 9.49282,-28.48204 9.08831,-55.8731 0,-92.40601 -6.53041,-26.30484 -19.01539,-46.10068 -45.47133,-46.10068 l -28.89963,0 m -56.29782,219.25457 c 9.42501,0 17.06067,7.72013 17.06067,17.27006 0,9.58919 -7.63566,17.40926 -17.06067,17.40926 -9.3917,0 -17.06067,-7.82483 -17.06067,-17.40926 0,-9.5535 7.66897,-17.27006 17.06067,-17.27006"
     inkscape:connector-curvature="0"
     id="path72"
     style="fill:#BFBFBF" />
</svg>
