<?xml version="1.0" encoding="UTF-8" standalone="no"?>
<svg
   xmlns:dc="http://purl.org/dc/elements/1.1/"
   xmlns:cc="http://creativecommons.org/ns#"
   xmlns:rdf="http://www.w3.org/1999/02/22-rdf-syntax-ns#"
   xmlns:svg="http://www.w3.org/2000/svg"
   xmlns="http://www.w3.org/2000/svg"
   xmlns:sodipodi="http://sodipodi.sourceforge.net/DTD/sodipodi-0.dtd"
   xmlns:inkscape="http://www.inkscape.org/namespaces/inkscape"
   viewBox="0 0 24 24"
   id="svg2"
   version="1.1"
   inkscape:version="0.91 r13725"
   sodipodi:docname="nm-vpn-lock.svg">
  <metadata
     id="metadata10">
    <rdf:RDF>
      <cc:Work
         rdf:about="">
        <dc:format>image/svg+xml</dc:format>
        <dc:type
           rdf:resource="http://purl.org/dc/dcmitype/StillImage" />
      </cc:Work>
    </rdf:RDF>
  </metadata>
  <defs
     id="defs8" />
  <sodipodi:namedview
     pagecolor="#ffffff"
     bordercolor="#666666"
     borderopacity="1"
     objecttolerance="10"
     gridtolerance="10"
     guidetolerance="10"
     inkscape:pageopacity="0"
     inkscape:pageshadow="2"
     inkscape:window-width="1680"
     inkscape:window-height="991"
     id="namedview6"
     showgrid="false"
     inkscape:zoom="9.8333333"
     inkscape:cx="-0.96610169"
     inkscape:cy="12"
     inkscape:window-x="0"
     inkscape:window-y="0"
     inkscape:window-maximized="1"
     inkscape:current-layer="svg2" />
  <path
     d="m 20.727 14.184 c -1.207 0 -2.18 0.992 -2.18 2.215 l 0 1.055 c -0.605 0 -1.094 0.488 -1.094 1.094 l 0 3.27 c 0 0.605 0.488 1.094 1.094 1.094 l 4.363 0 c 0.602 0 1.09 -0.488 1.09 -1.094 l 0 -3.27 c 0 -0.605 -0.488 -1.094 -1.09 -1.094 l 0 -1.055 c 0 -1.223 -0.973 -2.215 -2.184 -2.215 m 0 1.09 c 0.605 0 1.09 0.48 1.09 1.09 l 0 1.09 l -2.18 0 l 0 -1.09 c 0 -0.609 0.484 -1.09 1.09 -1.09 Z"
     style="fill:#BFBFBF;fill-opacity:1"
     id="path4" />
</svg>
