<?xml version="1.0" encoding="UTF-8" standalone="no"?>
<svg
   xmlns:dc="http://purl.org/dc/elements/1.1/"
   xmlns:cc="http://creativecommons.org/ns#"
   xmlns:rdf="http://www.w3.org/1999/02/22-rdf-syntax-ns#"
   xmlns:svg="http://www.w3.org/2000/svg"
   xmlns="http://www.w3.org/2000/svg"
   viewBox="0 0 512 512"
   id="svg2"
   version="1.1">
  <metadata
     id="metadata2417">
    <rdf:RDF>
      <cc:Work
         rdf:about="">
        <dc:format>image/svg+xml</dc:format>
        <dc:type
           rdf:resource="http://purl.org/dc/dcmitype/StillImage" />
      </cc:Work>
    </rdf:RDF>
  </metadata>
  <defs
     id="defs4">
    <linearGradient
       gradientTransform="translate(0,-0.0025)"
       y1="0.107"
       x2="0"
       y2="512.53998"
       id="0-3"
       gradientUnits="userSpaceOnUse">
      <stop
         style="stop-color:#6a6a6a"
         id="stop7-4" />
      <stop
         offset=".47"
         id="stop9-2" />
      <stop
         offset=".494"
         style="stop-color:#fff"
         id="stop11-8" />
      <stop
         offset=".901"
         style="stop-color:#fff"
         id="stop13-3" />
      <stop
         offset=".955"
         id="stop15-6" />
      <stop
         offset="1"
         id="stop17-5" />
    </linearGradient>
  </defs>
  <path
     d="M 50.25,-0.0025 C 22.427,-0.0025 0,22.3925 0,50.2175 l 0,411.56 c 0,27.823 22.427,50.22 50.25,50.22 l 411.53,0 c 27.823,0 50.22,-22.395 50.22,-50.22 l 0,-411.56 c 0,-27.823 -22.395,-50.22 -50.22,-50.22 l -411.53,0"
     style="fill:#6997c7;fill-rule:evenodd"
     id="path19" />
  <path
     d="M 50.25,-0.0025 C 22.427,-0.0025 0,22.3925 0,50.2175 l 0,411.56 c 0,27.823 22.427,50.22 50.25,50.22 l 411.53,0 c 27.823,0 50.22,-22.395 50.22,-50.22 l 0,-411.56 c 0,-27.823 -22.395,-50.22 -50.22,-50.22 l -411.53,0"
     style="opacity:0.05;fill:url(#0-3);fill-rule:evenodd"
     id="path1333" />
  <path
     d="m 219.63,40.9975 c -12.341,0 -10.221,8.219 -10.221,8.219 l 0,0.002 0,144.66 0,23.459 -53.875,0 119.5,119.5 c -10e-4,0.001 -10e-4,0.003 -0.002,0.004 l -119.5,-119.5 c -14.364,0 -3.578,11.428 -1.535,13.471 l 114.22,114.22 -113.91,-113.9 95.63,115.5 c 0,0 0.172,0.2 0.48,0.51 l 0.002,0.002 0.004,0.004 66.764,66.764 -112.62,0 -97.13,-97.13 -57.06,0 -0.031,0 57.09,57.09 0,0.01 -57.1,-57.1 0,125.69 c 0,7.872 3.186,14.999 8.348,20.16 l 49.37,49.37 353.72,0 c 27.823,0 50.22,-22.396 50.22,-50.22 l 0,-208.69 -209.82,-209.82 c -1.252,-1.252 -3.321,-2.269 -6.74,-2.27 l -75.81,0"
     style="opacity:0.25"
     id="path2411" />
  <path
     d="m 219.63,40.9975 c -12.341,0 -10.219,8.219 -10.219,8.219 l 0,144.66 0,23.469 -53.875,0 c -15.774,0 -1.219,13.781 -1.219,13.781 l 95.63,115.5 c 0,0 7.757,9.178 15.938,0.969 11.338,-11.327 92.72,-119.31 92.72,-119.31 0,0 14.422,-14.375 -4.719,-14.375 l -49.781,0 0,-21 0,-145.03 c 0,0 0.233,-6.875 -8.656,-6.875 l -75.81,0 m -169.28,275.78 0,125.69 c 0,15.757 12.766,28.531 28.594,28.531 l 354.13,0 c 15.814,0 28.594,-12.762 28.594,-28.531 l 0,-125.69 -57.09,0 0,97.13 -297.12,0 0,-97.12 -57.06,0 -0.031,0"
     style="fill:#ffffff"
     id="path2413" />
</svg>
