<?xml version="1.0" encoding="UTF-8" standalone="no"?>
<svg
   xmlns:dc="http://purl.org/dc/elements/1.1/"
   xmlns:cc="http://creativecommons.org/ns#"
   xmlns:rdf="http://www.w3.org/1999/02/22-rdf-syntax-ns#"
   xmlns:svg="http://www.w3.org/2000/svg"
   xmlns="http://www.w3.org/2000/svg"
   version="1.1"
   width="100%"
   height="100%"
   viewBox="0 0 512 512"
   id="svg2">
  <metadata
     id="metadata3605">
    <rdf:RDF>
      <cc:Work
         rdf:about="">
        <dc:format>image/svg+xml</dc:format>
        <dc:type
           rdf:resource="http://purl.org/dc/dcmitype/StillImage" />
      </cc:Work>
    </rdf:RDF>
  </metadata>
  <defs
     id="defs4">
    <linearGradient
       gradientTransform="translate(-5e-4,-0.005)"
       y1="0.107"
       x2="0"
       y2="512.53998"
       id="0-8"
       gradientUnits="userSpaceOnUse">
      <stop
         id="stop7-7"
         style="stop-color:#6a6a6a;stop-opacity:1"
         offset="0" />
      <stop
         id="stop9-5"
         style="stop-color:#000000;stop-opacity:1"
         offset="0.47" />
      <stop
         id="stop11-9"
         style="stop-color:#ffffff;stop-opacity:1"
         offset="0.49399999" />
      <stop
         id="stop13-1"
         style="stop-color:#ffffff;stop-opacity:1"
         offset="0.90100002" />
      <stop
         id="stop15-8"
         style="stop-color:#000000;stop-opacity:1"
         offset="0.95499998" />
      <stop
         id="stop17-4"
         style="stop-color:#000000;stop-opacity:1"
         offset="1" />
    </linearGradient>
  </defs>
  <path
     d="m 50.2495,-0.005 c -27.823,0 -50.25,22.395 -50.25,50.22 l 0,411.56 c 0,27.823 22.427,50.22 50.25,50.22 l 411.53,0 c 27.823,0 50.22,-22.395 50.22,-50.22 l 0,-411.56 c 0,-27.823 -22.395,-50.22 -50.22,-50.22 l -411.53,0"
     id="path19"
     style="fill:#6997c7;fill-rule:evenodd" />
  <path
     d="m 50.2495,-0.005 c -27.823,0 -50.25,22.395 -50.25,50.22 l 0,411.56 c 0,27.823 22.427,50.22 50.25,50.22 l 411.53,0 c 27.823,0 50.22,-22.395 50.22,-50.22 l 0,-411.56 c 0,-27.823 -22.395,-50.22 -50.22,-50.22 l -411.53,0"
     id="path1333"
     style="opacity:0.05;fill:url(#0-8);fill-rule:evenodd" />
  <g
     transform="translate(-5e-4,-0.005)"
     id="g3597"
     style="fill-rule:evenodd">
    <path
       d="m 254.16,41 c -56.27,0 -113.25,37.616 -113.25,94.63 l 0,103.69 -41.719,0 0,231.69 41,41 321.59,0 c 27.823,0 50.22,-22.394 50.22,-50.22 l 0,-218.06 -168.28,-168.28 c -20.03,-20.03 -50.81,-34.438 -89.56,-34.438"
       id="path3599"
       style="opacity:0.25" />
    <path
       d="m 254.17,41.01 c -56.27,0 -113.25,37.591 -113.25,94.6 l 0,103.71 -41.727,0 0,231.68 313.62,0 0,-231.68 -42.989,0 0,-106.59 C 369.824,89.885 325.524,41 254.154,41 m -0.807,51.961 c 30.3,-0.158 63.3,20.991 63.3,53.22 l 0,93.14 -124.24,0 0.05,-0.05 0,-92.68 c 0,-34.959 34.815,-53.49 60.88,-53.626 m 1.412,197.17 c 17.337,0 31.398,14.06 31.398,31.398 0,10.337 -5.04,19.48 -12.751,25.2 l 12.447,69.852 -61.64,0 12.348,-69.5 c -7.978,-5.692 -13.204,-15 -13.204,-25.552 0,-17.337 14.06,-31.398 31.398,-31.398"
       id="path3601"
       style="fill:#ffffff" />
  </g>
</svg>
