<?xml version="1.0" encoding="UTF-8" standalone="no"?>
<svg
   xmlns:dc="http://purl.org/dc/elements/1.1/"
   xmlns:cc="http://creativecommons.org/ns#"
   xmlns:rdf="http://www.w3.org/1999/02/22-rdf-syntax-ns#"
   xmlns:svg="http://www.w3.org/2000/svg"
   xmlns="http://www.w3.org/2000/svg"
   viewBox="0 0 512 512"
   id="svg2"
   version="1.1">
  <metadata
     id="metadata1341">
    <rdf:RDF>
      <cc:Work
         rdf:about="">
        <dc:format>image/svg+xml</dc:format>
        <dc:type
           rdf:resource="http://purl.org/dc/dcmitype/StillImage" />
      </cc:Work>
    </rdf:RDF>
  </metadata>
  <defs
     id="defs4">
    <linearGradient
       gradientTransform="translate(-0.001,-0.004)"
       y1="0.107"
       x2="0"
       y2="512.53998"
       id="0-4"
       gradientUnits="userSpaceOnUse">
      <stop
         style="stop-color:#6a6a6a"
         id="stop7-1" />
      <stop
         offset=".47"
         id="stop9-8" />
      <stop
         offset=".494"
         style="stop-color:#fff"
         id="stop11-8" />
      <stop
         offset=".901"
         style="stop-color:#fff"
         id="stop13-3" />
      <stop
         offset=".955"
         id="stop15-6" />
      <stop
         offset="1"
         id="stop17-1" />
    </linearGradient>
  </defs>
  <path
     d="m 50.249,-0.004 c -27.823,0 -50.25,22.395 -50.25,50.22 l 0,411.56 c 0,27.823 22.427,50.22 50.25,50.22 l 411.53,0 c 27.823,0 50.22,-22.395 50.22,-50.22 l 0,-411.56 c 0,-27.823 -22.395,-50.22 -50.22,-50.22 l -411.53,0"
     style="fill:#6997c7;fill-rule:evenodd"
     id="path19" />
  <path
     d="m 50.249,-0.004 c -27.823,0 -50.25,22.395 -50.25,50.22 l 0,411.56 c 0,27.823 22.427,50.22 50.25,50.22 l 411.53,0 c 27.823,0 50.22,-22.395 50.22,-50.22 l 0,-411.56 c 0,-27.823 -22.395,-50.22 -50.22,-50.22 l -411.53,0"
     style="opacity:0.05;fill:url(#0-4);fill-rule:evenodd"
     id="path1333" />
  <path
     d="m 159.529,79.586 247.54,247.54 c -0.006,0.005 -0.012,0.011 -0.018,0.016 L 159.501,79.592 c -65.35,0 -118.5,53.18 -118.5,118.54 0,28.777 4.652,71.68 45.03,112.07 l 0.479,0.479 c -0.123,-0.122 -0.267,-0.256 -0.389,-0.377 l 201.7,201.7 173.96,0 c 27.823,0 50.22,-22.396 50.22,-50.22 l 0,-271.67 -75.76,-75.76 c -21.466,-21.466 -51.1,-34.762 -83.78,-34.762 l 0,0.002 c -39.16,0 -73.865,19.08 -95.47,48.43 L 243.327,114.36 c 0.064,0.064 0.127,0.131 0.191,0.195 l -0.195,-0.195 C 221.847,92.884 192.213,79.587 159.533,79.587"
     style="opacity:0.25"
     id="path1335" />
  <path
     d="m 159.499,79.586 c -65.35,0 -118.5,53.18 -118.5,118.54 0,28.777 4.653,71.68 45.03,112.07 36.12,36.18 152.61,115.08 157.58,118.42 3.748,2.536 8.092,3.793 12.392,3.793 4.3,0 8.6,-1.257 12.349,-3.793 4.917,-3.329 121.39,-82.23 157.58,-118.42 40.37,-40.37 45.07,-83.29 45.07,-112.07 0,-65.35 -53.18,-118.54 -118.54,-118.54 -39.74,0 -74.909,19.647 -96.44,49.746 -21.545,-30.1 -56.759,-49.746 -96.49,-49.746"
     style="fill:#ffffff"
     id="path1337" />
</svg>
