<?xml version="1.0" encoding="UTF-8" standalone="no"?>
<svg
   xmlns:dc="http://purl.org/dc/elements/1.1/"
   xmlns:cc="http://creativecommons.org/ns#"
   xmlns:rdf="http://www.w3.org/1999/02/22-rdf-syntax-ns#"
   xmlns:svg="http://www.w3.org/2000/svg"
   xmlns="http://www.w3.org/2000/svg"
   version="1.1"
   width="100%"
   height="100%"
   viewBox="0 0 512 512"
   id="svg2">
  <metadata
     id="metadata1519">
    <rdf:RDF>
      <cc:Work
         rdf:about="">
        <dc:format>image/svg+xml</dc:format>
        <dc:type
           rdf:resource="http://purl.org/dc/dcmitype/StillImage" />
      </cc:Work>
    </rdf:RDF>
  </metadata>
  <defs
     id="defs4">
    <linearGradient
       gradientTransform="translate(-0.0025)"
       y1="0.107"
       x2="0"
       y2="512.53998"
       id="0-3"
       gradientUnits="userSpaceOnUse">
      <stop
         id="stop7-4"
         style="stop-color:#6a6a6a;stop-opacity:1"
         offset="0" />
      <stop
         id="stop9-2"
         style="stop-color:#000000;stop-opacity:1"
         offset="0.47" />
      <stop
         id="stop11-1"
         style="stop-color:#ffffff;stop-opacity:1"
         offset="0.49399999" />
      <stop
         id="stop13-2"
         style="stop-color:#ffffff;stop-opacity:1"
         offset="0.90100002" />
      <stop
         id="stop15-0"
         style="stop-color:#000000;stop-opacity:1"
         offset="0.95499998" />
      <stop
         id="stop17-8"
         style="stop-color:#000000;stop-opacity:1"
         offset="1" />
    </linearGradient>
  </defs>
  <path
     d="m 50.2475,0 c -27.823,0 -50.25,22.395 -50.25,50.22 l 0,411.56 c 0,27.823 22.427,50.22 50.25,50.22 l 411.53,0 c 27.823,0 50.22,-22.395 50.22,-50.22 l 0,-411.56 C 511.9975,22.397 489.6025,0 461.7775,0 l -411.53,0"
     id="path19"
     style="fill:#6997c7;fill-rule:evenodd" />
  <path
     d="m 50.2475,0 c -27.823,0 -50.25,22.395 -50.25,50.22 l 0,411.56 c 0,27.823 22.427,50.22 50.25,50.22 l 411.53,0 c 27.823,0 50.22,-22.395 50.22,-50.22 l 0,-411.56 C 511.9975,22.397 489.6025,0 461.7775,0 l -411.53,0"
     id="path1333"
     style="opacity:0.05;fill:url(#0-3);fill-rule:evenodd" />
  <g
     transform="translate(-0.0025)"
     id="g1499"
     style="fill:#000000">
    <text
       x="-8930.6904"
       y="-20683.59"
       id="text1501"
       style="font-size:4654.54980469px;line-height:125%;font-family:'Gentium Book Basic';letter-spacing:0;word-spacing:0;stroke:#cd1d31;stroke-width:23.27300072">
      <tspan
         x="-8930.6904"
         y="-20683.59"
         id="tspan1503" />
    </text>
    <text
       x="4872.9702"
       y="-95575.102"
       transform="scale(4.0128,0.2492)"
       id="text1505"
       style="font-size:1691.2199707px;font-family:Arial;text-anchor:middle;stroke:none" />
    <text
       x="12005.92"
       y="-23565.221"
       id="text1507"
       style="font-size:4654.54980469px;line-height:125%;font-family:'Gentium Book Basic';letter-spacing:0;word-spacing:0;stroke:#cd1d31;stroke-width:23.27300072">
      <tspan
         x="12005.92"
         y="-23565.221"
         id="tspan1509" />
    </text>
    <text
       x="10090.45"
       y="-107138.34"
       transform="scale(4.0128,0.2492)"
       id="text1511"
       style="font-size:1691.2199707px;font-family:Arial;text-anchor:middle;stroke:none" />
    <path
       d="M 107.78,41 C 92.934,41 80.905,53.02 80.905,67.875 l 0,376.25 c 0,7.427 3.01,14.14 7.875,19 l 48.875,48.875 324.13,0 c 27.823,0 50.22,-22.394 50.22,-50.22 l 0,-244.34 L 335.565,41 l 0,27.344 L 308.221,41 107.781,41"
       id="path1513"
       style="opacity:0.25" />
  </g>
  <path
     d="m 107.7875,41.01 c -14.846,0 -26.875,12.02 -26.875,26.875 l 0,376.25 c 0,14.857 12.03,26.875 26.875,26.875 l 296.42,0 c 14.857,0 26.875,-12.02 26.875,-26.875 l 0,-276.17 -109.43,0 c -7.428,0 -13.437,-6.01 -13.437,-13.437 l 0,-113.52 -200.43,0 m 227.78,0 0,96.69 95.52,0 -95.52,-96.69 m -214.24,79.82 134.69,0 0,30.31 -134.69,0 0,-30.31 m 0,84.18 262.61,0 0,30.31 -262.61,0 0,-30.31 m 0,84.17 134.69,0 0,30.31 -134.69,0 0,-30.31 m 178.45,0 84.17,0 0,114.49 -84.17,0 0,-114.49 m -178.45,84.17 134.69,0 0,30.31 -134.69,0 0,-30.31"
     id="path1515"
     style="fill:#ffffff" />
</svg>
