<?xml version="1.0" encoding="UTF-8" standalone="no"?>
<svg
   xmlns:dc="http://purl.org/dc/elements/1.1/"
   xmlns:cc="http://creativecommons.org/ns#"
   xmlns:rdf="http://www.w3.org/1999/02/22-rdf-syntax-ns#"
   xmlns:svg="http://www.w3.org/2000/svg"
   xmlns="http://www.w3.org/2000/svg"
   viewBox="0 0 512 512"
   id="svg2"
   version="1.1">
  <metadata
     id="metadata4813">
    <rdf:RDF>
      <cc:Work
         rdf:about="">
        <dc:format>image/svg+xml</dc:format>
        <dc:type
           rdf:resource="http://purl.org/dc/dcmitype/StillImage" />
      </cc:Work>
    </rdf:RDF>
  </metadata>
  <defs
     id="defs4">
    <linearGradient
       gradientTransform="translate(-0.0025,-10e-4)"
       y1="0.107"
       x2="0"
       y2="512.53998"
       id="0-3"
       gradientUnits="userSpaceOnUse">
      <stop
         style="stop-color:#6a6a6a"
         id="stop7-9" />
      <stop
         offset=".47"
         id="stop9-2" />
      <stop
         offset=".494"
         style="stop-color:#fff"
         id="stop11-7" />
      <stop
         offset=".901"
         style="stop-color:#fff"
         id="stop13-1" />
      <stop
         offset=".955"
         id="stop15-3" />
      <stop
         offset="1"
         id="stop17-4" />
    </linearGradient>
  </defs>
  <path
     d="m 50.2475,-0.001 c -27.823,0 -50.25,22.395 -50.25,50.22 l 0,411.56 c 0,27.823 22.427,50.22 50.25,50.22 l 411.53,0 c 27.823,0 50.22,-22.395 50.22,-50.22 l 0,-411.56 c 0,-27.823 -22.395,-50.22 -50.22,-50.22 l -411.53,0"
     style="fill:#6997c7;fill-rule:evenodd"
     id="path19" />
  <path
     d="m 50.2475,-0.001 c -27.823,0 -50.25,22.395 -50.25,50.22 l 0,411.56 c 0,27.823 22.427,50.22 50.25,50.22 l 411.53,0 c 27.823,0 50.22,-22.395 50.22,-50.22 l 0,-411.56 c 0,-27.823 -22.395,-50.22 -50.22,-50.22 l -411.53,0"
     style="opacity:0.05;fill:url(#0-3);fill-rule:evenodd"
     id="path1333" />
  <path
     d="m 255.9975,40.997 0,0.002 c -118.74,0 -215,96.26 -215,215 0,59.37 24.07,113.12 62.973,152.03 0.027,0.027 0.055,0.055 0.082,0.082 l 103.89,103.89 253.84,0 c 27.823,0 50.22,-22.396 50.22,-50.22 l 0,-253.84 -103.97,-103.97 c -38.907,-38.907 -92.66,-62.973 -152.03,-62.973"
     style="opacity:0.25"
     id="path4807" />
  <path
     d="m 255.9975,40.999 c -118.74,0 -215,96.26 -215,215 0,118.74 96.26,215 215,215 118.74,0 215,-96.26 215,-215 0,-118.74 -96.26,-215 -215,-215 m 0,41.625 c 95.61,0 173.38,77.77 173.38,173.38 0,95.61 -77.77,173.38 -173.37,173.38 -95.61,0 -173.37,-77.77 -173.37,-173.37 0,-95.61 77.77,-173.37 173.38,-173.37 m -2.938,17.844 0,155.53 0,155.53 c 85.9,0 155.53,-69.64 155.53,-155.53 0,-85.9 -69.64,-155.53 -155.53,-155.53 m -52.06,12.188 -11.969,7.03 18.438,31.656 12,-7 -18.469,-31.688 m -61.47,56.22 -6.938,12 31.781,18.375 6.938,-12 -31.781,-18.375 m 221.06,50.38 c 9.529,-0.007 16.22,3.356 20.06,10.06 3.835,6.707 5.75,16.217 5.75,28.563 0,12.345 -1.915,21.859 -5.75,28.531 -3.842,6.672 -10.533,10 -20.06,10 -9.529,0 -16.189,-3.328 -20.03,-10 -3.835,-6.672 -5.75,-16.186 -5.75,-28.531 0,-12.345 1.915,-21.856 5.75,-28.563 3.842,-6.707 10.502,-10.06 20.03,-10.06 m -59.56,0.125 c 7.144,0 12.922,1.866 17.313,5.563 4.383,3.697 6.563,8.647 6.563,14.875 0,4.404 -1.323,8.125 -3.938,11.156 -0.77,0.881 -1.553,1.633 -2.344,2.25 -1.422,1.103 -1.255,1.838 0.313,2.906 0.791,0.548 1.678,1.262 2.656,2.156 3.752,3.475 5.625,8.23 5.625,14.25 0.007,6.332 -2.193,11.895 -6.563,16.688 -4.383,4.781 -10.886,7.156 -19.469,7.156 -10.584,0 -17.936,-3.429 -22.06,-10.344 -1.255,-2.143 -2.171,-4.681 -2.781,-7.594 -0.784,-3.752 2.304,-6.875 6.125,-6.875 l 0.594,0 c 3.828,0 6.851,1.739 7.219,3.813 0.243,1.359 0.612,2.564 1.125,3.625 1.789,3.613 5.05,5.406 9.75,5.406 2.871,0 5.388,-0.992 7.531,-2.969 2.15,-1.977 3.219,-4.807 3.219,-8.531 0,-4.917 -1.995,-8.2 -5.969,-9.844 -1.318,-0.541 -3.076,-0.934 -5.281,-1.156 -2.982,-0.312 -5.406,-2.594 -5.406,-5.5 0,-2.906 2.281,-5.233 5.063,-5.531 2.164,-0.229 3.769,-0.612 4.906,-1.125 3.253,-1.443 4.875,-4.377 4.875,-8.781 0,-2.857 -0.804,-5.176 -2.469,-6.938 -1.665,-1.789 -4.01,-2.688 -7.03,-2.688 -3.468,0 -6.03,1.114 -7.656,3.313 -0.881,1.186 -1.532,2.572 -1.906,4.188 -0.596,2.497 -3.488,4.625 -7.281,4.625 -3.794,0 -6.833,-2.417 -6.313,-5.344 0.319,-1.789 0.768,-3.533 1.344,-5.219 1.207,-2.927 3.083,-5.618 5.656,-8.094 1.928,-1.755 4.201,-3.102 6.844,-4.03 2.656,-0.929 5.901,-1.406 9.75,-1.406 m 59.59,11.938 c -4.376,-0.007 -7.28,2.165 -8.688,6.5 -1.408,4.335 -2.125,11.02 -2.125,20.03 0,8.6 0.717,15.169 2.125,19.719 1.408,4.564 4.318,6.844 8.688,6.844 4.369,0 7.234,-2.28 8.594,-6.844 1.352,-4.55 2.031,-11.12 2.031,-19.719 0,-9.01 -0.679,-15.697 -2.031,-20.03 -1.359,-4.335 -4.224,-6.5 -8.594,-6.5 m -246.47,7.344 0,34.688 48.531,0 0,-34.688 -48.531,0 m 50.22,74.06 -31.781,18.375 6.938,12 31.781,-18.375 -6.938,-12 m 43.06,47.875 -18.438,31.688 12,7 18.438,-31.688 -12,-7"
     style="fill:#ffffff"
     id="path4809" />
</svg>
