<?xml version="1.0" encoding="UTF-8" standalone="no"?>
<svg
   xmlns:dc="http://purl.org/dc/elements/1.1/"
   xmlns:cc="http://creativecommons.org/ns#"
   xmlns:rdf="http://www.w3.org/1999/02/22-rdf-syntax-ns#"
   xmlns:svg="http://www.w3.org/2000/svg"
   xmlns="http://www.w3.org/2000/svg"
   version="1.1"
   width="100%"
   height="100%"
   viewBox="0 0 512 512"
   id="svg2">
  <metadata
     id="metadata3893">
    <rdf:RDF>
      <cc:Work
         rdf:about="">
        <dc:format>image/svg+xml</dc:format>
        <dc:type
           rdf:resource="http://purl.org/dc/dcmitype/StillImage" />
      </cc:Work>
    </rdf:RDF>
  </metadata>
  <defs
     id="defs4">
    <linearGradient
       y1="0.107"
       x2="0"
       y2="512.53998"
       id="0-7"
       gradientUnits="userSpaceOnUse">
      <stop
         id="stop7-3"
         style="stop-color:#6a6a6a;stop-opacity:1"
         offset="0" />
      <stop
         id="stop9-4"
         style="stop-color:#000000;stop-opacity:1"
         offset="0.47" />
      <stop
         id="stop11-0"
         style="stop-color:#ffffff;stop-opacity:1"
         offset="0.49399999" />
      <stop
         id="stop13-9"
         style="stop-color:#ffffff;stop-opacity:1"
         offset="0.90100002" />
      <stop
         id="stop15-1"
         style="stop-color:#000000;stop-opacity:1"
         offset="0.95499998" />
      <stop
         id="stop17-0"
         style="stop-color:#000000;stop-opacity:1"
         offset="1" />
    </linearGradient>
  </defs>
  <path
     d="M 50.25,0 C 22.427,0 0,22.395 0,50.22 L 0,461.78 C 0,489.603 22.427,512 50.25,512 l 411.53,0 C 489.603,512 512,489.605 512,461.78 L 512,50.22 C 512,22.397 489.605,0 461.78,0 L 50.25,0"
     id="path19"
     style="fill:#6997c7;fill-rule:evenodd" />
  <path
     d="M 50.25,0 C 22.427,0 0,22.395 0,50.22 L 0,461.78 C 0,489.603 22.427,512 50.25,512 l 411.53,0 C 489.603,512 512,489.605 512,461.78 L 512,50.22 C 512,22.397 489.605,0 461.78,0 L 50.25,0"
     id="path1333"
     style="opacity:0.05;fill:url(#0-7);fill-rule:evenodd" />
  <g
     id="g3885"
     style="fill-rule:evenodd">
    <path
       d="m 188.44,101.72 c -6.974,0 -12.594,6.309 -12.594,14.156 l 0,80.69 c 0,4.225 1.63,8.01 4.219,10.594 l 47.09,47.09 -151.28,0 0,22.344 0,10.25 0,28.969 22.313,22.313 -44.563,0 C 46.651,338.126 41,344.435 41,352.282 l 0,43.844 c 0,4.216 1.631,8.01 4.219,10.594 l 105.28,105.28 311.28,0 c 27.823,0 50.22,-22.394 50.22,-50.22 l 0,-176.5 -180,-180 c -2.229,-2.229 -5.179,-3.563 -8.406,-3.563 l -135.16,0"
       id="path3887"
       style="opacity:0.25" />
    <path
       d="m 188.43,101.71 c -6.974,0 -12.583,6.309 -12.583,14.156 l 0,80.69 c 0,7.848 5.606,14.156 12.583,14.156 l 135.16,0 c 6.974,0 12.614,-6.309 12.614,-14.156 l 0,-80.69 c 0,-7.848 -5.64,-14.156 -12.614,-14.156 l -135.16,0 m 51.964,128.56 0,23.99 -164.53,0 0,22.334 0,10.263 0,28.969 30.369,0 0,-28.969 134.16,0 0,31.01 30.369,0 0,-31.01 133.67,0 0,31.63 30.369,0 0,-31.63 0,-7.483 0,-25.11 -164.05,0 0,-23.99 -30.369,0 m -186.78,107.85 c -6.974,0 -12.614,6.309 -12.614,14.156 l 0,43.858 c 0,7.848 5.64,14.156 12.614,14.156 l 80.17,0 c 6.974,0 12.583,-6.309 12.583,-14.156 l 0,-43.858 c 0,-7.848 -5.606,-14.156 -12.583,-14.156 l -80.17,0 m 160.79,0 c -6.974,0 -12.583,6.309 -12.583,14.156 l 0,43.858 c 0,7.848 5.606,14.156 12.583,14.156 l 80.17,0 c 6.974,0 12.614,-6.309 12.614,-14.156 l 0,-43.858 c 0,-7.848 -5.64,-14.156 -12.614,-14.156 l -80.17,0 m 163.81,0 c -6.974,0 -12.583,6.309 -12.583,14.156 l 0,43.858 c 0,7.848 5.606,14.156 12.583,14.156 l 80.21,0 c 6.974,0 12.583,-6.309 12.583,-14.156 l 0,-43.858 c 0,-7.848 -5.606,-14.156 -12.583,-14.156 l -80.21,0"
       id="path3889"
       style="fill:#ffffff" />
  </g>
</svg>
