<?xml version="1.0" encoding="UTF-8" standalone="no"?>
<svg
   xmlns:dc="http://purl.org/dc/elements/1.1/"
   xmlns:cc="http://creativecommons.org/ns#"
   xmlns:rdf="http://www.w3.org/1999/02/22-rdf-syntax-ns#"
   xmlns:svg="http://www.w3.org/2000/svg"
   xmlns="http://www.w3.org/2000/svg"
   version="1.1"
   width="100%"
   height="100%"
   viewBox="0 0 512 512"
   id="svg2">
  <metadata
     id="metadata1725">
    <rdf:RDF>
      <cc:Work
         rdf:about="">
        <dc:format>image/svg+xml</dc:format>
        <dc:type
           rdf:resource="http://purl.org/dc/dcmitype/StillImage" />
      </cc:Work>
    </rdf:RDF>
  </metadata>
  <defs
     id="defs4">
    <linearGradient
       gradientTransform="translate(-0.003)"
       y1="0.107"
       x2="0"
       y2="512.53998"
       id="0-2"
       gradientUnits="userSpaceOnUse">
      <stop
         id="stop7-1"
         style="stop-color:#6a6a6a;stop-opacity:1"
         offset="0" />
      <stop
         id="stop9-0"
         style="stop-color:#000000;stop-opacity:1"
         offset="0.47" />
      <stop
         id="stop11-3"
         style="stop-color:#ffffff;stop-opacity:1"
         offset="0.49399999" />
      <stop
         id="stop13-5"
         style="stop-color:#ffffff;stop-opacity:1"
         offset="0.90100002" />
      <stop
         id="stop15-9"
         style="stop-color:#000000;stop-opacity:1"
         offset="0.95499998" />
      <stop
         id="stop17-9"
         style="stop-color:#000000;stop-opacity:1"
         offset="1" />
    </linearGradient>
  </defs>
  <path
     d="M 50.247,0 C 22.424,0 -0.003,22.395 -0.003,50.22 l 0,411.56 c 0,27.823 22.427,50.22 50.25,50.22 l 411.53,0 c 27.823,0 50.22,-22.395 50.22,-50.22 l 0,-411.56 C 511.997,22.397 489.602,0 461.777,0 L 50.247,0"
     id="path19"
     style="fill:#6997c7;fill-rule:evenodd" />
  <path
     d="M 50.247,0 C 22.424,0 -0.003,22.395 -0.003,50.22 l 0,411.56 c 0,27.823 22.427,50.22 50.25,50.22 l 411.53,0 c 27.823,0 50.22,-22.395 50.22,-50.22 l 0,-411.56 C 511.997,22.397 489.602,0 461.777,0 L 50.247,0"
     id="path1333"
     style="opacity:0.05;fill:url(#0-2);fill-rule:evenodd" />
  <path
     style="opacity:0.25;fill-rule:evenodd"
     id="path1719"
     d="m 371.717,63.44 c -0.85,0.003 -1.711,0.037 -2.563,0.063 -11.278,0.337 -22.667,2.626 -33.75,7.06 -50.35,20.16 -74.939,77.1 -55.34,127.53 l -30.625,112.59 c -0.92,0.326 -1.836,0.696 -2.75,1.063 -13.388,5.361 -24.26,14.346 -31.906,25.375 l -173.78,-0.844 0,83.88 91.84,91.84 328.94,0 c 27.823,0 50.22,-22.394 50.22,-50.22 l 0,-299.41 -68.19,-68.19 -1.719,-1.75 c -18.593,-18.593 -44.02,-29.1 -70.37,-29" />
  <path
     style="fill:#ffffff;fill-rule:evenodd"
     id="path1721"
     d="m 369.157,63.49 c -11.278,0.337 -22.662,2.639 -33.745,7.08 -50.35,20.16 -74.955,77.09 -55.36,127.52 l -30.616,112.6 c -0.92,0.326 -1.83,0.693 -2.744,1.059 -13.388,5.361 -24.267,14.34 -31.916,25.369 l -173.78,-0.818 0,83.86 175.75,0.674 c 18.871,24.6 52.45,34.715 82.65,22.625 34.403,-13.776 52.09,-51.45 41.592,-86.26 l 62.63,-101.24 c 1.756,-0.592 3.506,-1.228 5.247,-1.926 50.666,-20.288 75.31,-77.82 55.02,-128.48 -15.85,-39.584 -54.46,-63.25 -94.74,-62.05 m 1.3,43.37 c 22.584,-0.667 44.21,12.653 53.1,34.852 11.379,28.411 -2.394,60.64 -30.809,72.02 -28.411,11.379 -60.684,-2.442 -72.06,-30.857 -11.379,-28.411 2.442,-60.681 30.857,-72.06 6.215,-2.489 12.595,-3.761 18.918,-3.947 m -99.07,215.32 c 22.597,-0.672 44.25,12.605 53.14,34.804 11.379,28.411 -2.49,60.687 -30.905,72.06 -19.17,7.677 -40.05,3.865 -55.12,-8.135 l 26.669,0.096 c 23.16,0.133 41.94,-18.428 42.07,-41.592 0.133,-23.16 -18.429,-41.94 -41.592,-42.07 l -30.568,-0.144 c 4.891,-4.603 10.72,-8.419 17.33,-11.07 6.215,-2.489 12.639,-3.759 18.967,-3.947" />
</svg>
