<?xml version="1.0" encoding="UTF-8" standalone="no"?>
<svg
   xmlns:dc="http://purl.org/dc/elements/1.1/"
   xmlns:cc="http://creativecommons.org/ns#"
   xmlns:rdf="http://www.w3.org/1999/02/22-rdf-syntax-ns#"
   xmlns:svg="http://www.w3.org/2000/svg"
   xmlns="http://www.w3.org/2000/svg"
   version="1.1"
   width="100%"
   height="100%"
   viewBox="0 0 512 512"
   id="svg2">
  <metadata
     id="metadata473">
    <rdf:RDF>
      <cc:Work
         rdf:about="">
        <dc:format>image/svg+xml</dc:format>
        <dc:type
           rdf:resource="http://purl.org/dc/dcmitype/StillImage" />
      </cc:Work>
    </rdf:RDF>
  </metadata>
  <defs
     id="defs4">
    <linearGradient
       gradientTransform="translate(0.00333,-0.0045)"
       y1="213.78"
       x2="0"
       y2="454.64001"
       id="0-5"
       gradientUnits="userSpaceOnUse">
      <stop
         id="stop7-0"
         style="stop-color:#6a6a6a;stop-opacity:1"
         offset="0" />
      <stop
         id="stop9-4"
         style="stop-color:#000000;stop-opacity:1"
         offset="0.47" />
      <stop
         id="stop11-7"
         style="stop-color:#ffffff;stop-opacity:1"
         offset="0.49399999" />
      <stop
         id="stop13-1"
         style="stop-color:#ffffff;stop-opacity:1"
         offset="0.90100002" />
      <stop
         id="stop15-5"
         style="stop-color:#000000;stop-opacity:1"
         offset="0.95499998" />
      <stop
         id="stop17-6"
         style="stop-color:#000000;stop-opacity:1"
         offset="1" />
    </linearGradient>
  </defs>
  <path
     d="m 108.62333,57.3655 c -7.963,0 -15.223,2.323 -20.688,6.25 -4.545,3.266 -7.749,7.867 -8.75,13.13 l -11.906,0 c -16.447,0 -29.875,13.02 -29.875,29.19 l 0,66.75 c 0,0.505 0.005,1 0.031,1.5 -10e-4,0.011 10e-4,0.021 0,0.031 -0.026,0.499 -0.031,1.026 -0.031,1.531 l 0,66.72 c 0,16.17 13.428,29.22 29.875,29.22 l 377.47,0 c 16.447,0 29.875,-13.05 29.875,-29.22 l 0,-66.72 c 0,-0.505 -0.005,-1.032 -0.031,-1.531 0.001,-0.011 -10e-4,-0.021 0,-0.031 0.026,-0.499 0.031,-0.995 0.031,-1.5 l 0,-66.75 c 0,-16.17 -13.428,-29.19 -29.875,-29.19 l -262.91,0 c -1,-5.255 -4.205,-9.857 -8.75,-13.12 -5.465,-3.927 -12.756,-6.25 -20.719,-6.25 l -43.75,0"
     id="path349"
     style="fill:#cccccc;fill-rule:evenodd" />
  <path
     style="opacity:0.76399997;fill:#ffffff;fill-rule:evenodd"
     id="path459"
     d="m 108.54333,57.3055 c -7.963,0 -15.11,2.403 -20.572,6.33 -4.545,3.266 -7.702,7.931 -8.703,13.187 l -12.13,0 c -17.677,0 -29.802,12.771 -29.802,30.661 l 0,3.956 c 0,-16.17 13.355,-29.27 29.802,-29.27 l 14.286,0 c 1,-5.256 2,-9.657 6.549,-12.923 5.465,-3.927 12.609,-6.33 20.572,-6.33 l 43.78,0 c 7.963,0 15.371,2.403 20.835,6.33 4.545,3.266 5.766,7.668 6.769,12.923 l 264.88,0 c 16.447,0 29.802,11.455 29.802,27.625 l 0,-3.956 c 0,-16.17 -13.355,-29.01 -29.802,-29.01 l -262.95,0 c -1,-5.256 -4.159,-9.921 -8.703,-13.187 -5.465,-3.927 -12.872,-6.33 -20.835,-6.33 z" />
  <path
     style="fill:#6997c7;fill-rule:evenodd"
     id="path461"
     d="m 37.35333,213.7155 c -19.928,0 -38.06,11.337 -36.23,25.697 l 24.26,190.23 c 1.733,13.594 16.271,25.05 36.2,25.05 l 383.41,0 c 19.933,0 34.1,-11.5 36.2,-24.98 l 29.632,-190.23 c 1.123,-7.206 -3.137,-13.807 -9.971,-18.394 -6.833,-4.587 -16.258,-7.371 -26.22,-7.371 l -437.27,0" />
  <path
     d="m 37.34333,213.7055 c -19.928,0 -38.05,11.353 -36.22,25.713 l 0.406,3.136 c 3,-11.423 18.732,-19.755 35.812,-19.755 l 437.28,0 c 9.966,0 19.386,2.782 26.22,7.369 4.736,3.178 8.234,7.317 9.563,11.96 l 0.406,-2.643 c 1.123,-7.206 -3.134,-13.825 -9.969,-18.411 -6.833,-4.587 -16.252,-7.369 -26.22,-7.369 l -437.28,0"
     id="path465"
     style="opacity:0.4;fill:#ffffff;fill-rule:evenodd" />
  <path
     d="m 34.90933,222.6555 c -7.787,0 -15.279,1.659 -21.469,4.469 l 280.81,227.56 28.594,0 -286.28,-232.03 -1.656,0 m 30.25,0 286.31,232.03 28.563,0 -286.25,-232.03 -28.625,0 m 57.22,0 286.31,232.03 28.594,0 -286.28,-232.03 -28.625,0 m 57.25,0 282.34,228.84 c 6.316,-2.573 11.362,-6.538 14.719,-11.25 l -268.5,-217.59 -28.563,0 m 57.22,0 245.47,199 3.219,-20.625 -220.12,-178.37 -28.563,0 m 57.22,0 194.69,157.81 3.188,-20.594 -169.31,-137.22 -28.563,0 m 57.19,0 143.91,116.63 3.219,-20.594 -118.53,-96.03 -28.594,0 m 57.22,0 93.09,75.47 0.469,-3 2.469,-17.813 -67.44,-54.656 -28.594,0 m 57.19,0 41.688,33.781 2.906,-20.844 -8.781,-7.094 c -6.666,-3.658 -15.229,-5.844 -24.281,-5.844 l -11.531,0 m -463.91,18.19 2.875,25.5 232.41,188.34 28.594,0 -263.87,-213.84 m 5.969,51.19 3.281,25.813 168.84,136.84 28.563,0 -200.69,-162.66 m 6.594,51.719 3.281,25.844 104.97,85.09 28.594,0 -136.84,-110.94 m 6.594,51.719 3.281,25.844 41.16,33.375 28.625,0 -73.06,-59.22"
     id="path467"
     style="opacity:0;fill:#ffffff;fill-rule:evenodd" />
  <path
     style="opacity:0.05;fill:url(#0-5);fill-rule:evenodd"
     id="path469"
     d="m 37.35333,213.7155 c -19.928,0 -38.06,11.337 -36.23,25.697 l 24.26,190.23 c 1.733,13.594 16.271,25.05 36.2,25.05 l 383.41,0 c 19.933,0 34.1,-11.5 36.2,-24.98 l 29.632,-190.23 c 1.123,-7.206 -3.137,-13.807 -9.971,-18.394 -6.833,-4.587 -16.258,-7.371 -26.22,-7.371 l -437.27,0" />
</svg>
