<?xml version="1.0" encoding="UTF-8" standalone="no"?>
<svg
   xmlns:dc="http://purl.org/dc/elements/1.1/"
   xmlns:cc="http://creativecommons.org/ns#"
   xmlns:rdf="http://www.w3.org/1999/02/22-rdf-syntax-ns#"
   xmlns:svg="http://www.w3.org/2000/svg"
   xmlns="http://www.w3.org/2000/svg"
   version="1.1"
   width="100%"
   height="100%"
   viewBox="0 0 512 512"
   id="svg2">
  <metadata
     id="metadata4089">
    <rdf:RDF>
      <cc:Work
         rdf:about="">
        <dc:format>image/svg+xml</dc:format>
        <dc:type
           rdf:resource="http://purl.org/dc/dcmitype/StillImage" />
      </cc:Work>
    </rdf:RDF>
  </metadata>
  <defs
     id="defs4">
    <linearGradient
       y1="0.107"
       x2="0"
       y2="512.53998"
       id="0-2"
       gradientUnits="userSpaceOnUse">
      <stop
         id="stop7-9"
         style="stop-color:#6a6a6a;stop-opacity:1"
         offset="0" />
      <stop
         id="stop9-4"
         style="stop-color:#000000;stop-opacity:1"
         offset="0.47" />
      <stop
         id="stop11-7"
         style="stop-color:#ffffff;stop-opacity:1"
         offset="0.49399999" />
      <stop
         id="stop13-0"
         style="stop-color:#ffffff;stop-opacity:1"
         offset="0.90100002" />
      <stop
         id="stop15-5"
         style="stop-color:#000000;stop-opacity:1"
         offset="0.95499998" />
      <stop
         id="stop17-7"
         style="stop-color:#000000;stop-opacity:1"
         offset="1" />
    </linearGradient>
  </defs>
  <path
     d="M 50.25,-1e-6 C 22.427,-1e-6 0,22.394999 0,50.219999 L 0,461.78 C 0,489.603 22.427,512 50.25,512 l 411.53,0 C 489.603,512 512,489.605 512,461.78 L 512,50.219999 C 512,22.396999 489.605,-9.9999998e-7 461.78,-9.9999998e-7 l -411.53,0"
     id="path19"
     style="fill:#6997c7;fill-rule:evenodd" />
  <path
     d="M 50.25,-1e-6 C 22.427,-1e-6 0,22.394999 0,50.219999 L 0,461.78 C 0,489.603 22.427,512 50.25,512 l 411.53,0 C 489.603,512 512,489.605 512,461.78 L 512,50.219999 C 512,22.396999 489.605,-9.9999998e-7 461.78,-9.9999998e-7 l -411.53,0"
     id="path1333"
     style="opacity:0.05;fill:url(#0-2);fill-rule:evenodd" />
  <g
     id="g4039"
     style="fill:#000000">
    <text
       x="-718.89001"
       y="-126.34"
       id="text4041"
       style="font-size:100px;line-height:125%;font-family:'Gentium Book Basic';letter-spacing:0;word-spacing:0">
      <tspan
         x="-718.89001"
         y="-126.34"
         id="tspan4043" />
    </text>
    <text
       x="-26.643"
       y="-777.20001"
       transform="scale(4.0128,0.2492)"
       id="text4045"
       style="font-size:36.33000183px;font-family:Arial;text-anchor:middle" />
    <text
       x="-269.09"
       y="-188.25"
       id="text4047"
       style="font-size:100px;line-height:125%;font-family:'Gentium Book Basic';letter-spacing:0;word-spacing:0">
      <tspan
         x="-269.09"
         y="-188.25"
         id="tspan4049" />
    </text>
    <text
       x="85.449997"
       y="-1025.63"
       transform="scale(4.0128,0.2492)"
       id="text4051"
       style="font-size:36.33000183px;font-family:Arial;text-anchor:middle" />
    <text
       x="-1381.47"
       y="-28.354"
       id="text4053"
       style="font-size:100px;line-height:125%;font-family:'Gentium Book Basic';letter-spacing:0;word-spacing:0">
      <tspan
         x="-1381.47"
         y="-28.354"
         id="tspan4055" />
    </text>
    <text
       x="-191.75"
       y="-383.97"
       transform="scale(4.0128,0.2492)"
       id="text4057"
       style="font-size:36.33000183px;font-family:Arial;text-anchor:middle" />
    <text
       x="-531.76001"
       y="-195.87"
       id="text4059"
       style="font-size:100px;line-height:125%;font-family:'Gentium Book Basic';letter-spacing:0;word-spacing:0">
      <tspan
         x="-531.76001"
         y="-195.87"
         id="tspan4061" />
    </text>
    <text
       x="19.997"
       y="-1056.1899"
       transform="scale(4.0128,0.2492)"
       id="text4063"
       style="font-size:36.33000183px;font-family:Arial;text-anchor:middle" />
    <text
       x="-81.948997"
       y="-257.78"
       id="text4065"
       style="font-size:100px;line-height:125%;font-family:'Gentium Book Basic';letter-spacing:0;word-spacing:0">
      <tspan
         x="-81.948997"
         y="-257.78"
         id="tspan4067" />
    </text>
    <text
       x="132.09"
       y="-1304.61"
       transform="scale(4.0128,0.2492)"
       id="text4069"
       style="font-size:36.33000183px;font-family:Arial;text-anchor:middle" />
    <text
       x="-383.07001"
       y="-623.34003"
       id="text4071"
       style="font-size:100px;line-height:125%;font-family:'Gentium Book Basic';letter-spacing:0;word-spacing:0">
      <tspan
         x="-383.07001"
         y="-623.34003"
         id="tspan4073" />
    </text>
    <text
       x="57.049999"
       y="-2771.54"
       transform="scale(4.0128,0.2492)"
       id="text4075"
       style="font-size:36.33000183px;font-family:Arial;text-anchor:middle" />
    <text
       x="66.740997"
       y="-685.25"
       id="text4077"
       style="font-size:100px;line-height:125%;font-family:'Gentium Book Basic';letter-spacing:0;word-spacing:0">
      <tspan
         x="66.740997"
         y="-685.25"
         id="tspan4079" />
    </text>
    <text
       x="169.14"
       y="-3019.97"
       transform="scale(4.0128,0.2492)"
       id="text4081"
       style="font-size:36.33000183px;font-family:Arial;text-anchor:middle" />
    <path
       d="M 256,41 C 137.25,41 41,137.26 41,256 c 0,59.37 24.06,113.12 62.969,152.03 l 103.97,103.97 253.84,0 c 27.823,0 50.22,-22.394 50.22,-50.22 l 0,-253.84 -103.97,-103.97 C 369.121,65.062 315.369,41.001 255.999,41.001"
       id="path4083"
       style="opacity:0.25;fill-rule:evenodd" />
  </g>
  <path
     d="M 256,40.999999 C 137.25,40.999999 41,137.26 41,256 41,374.75 137.26,471 256,471 374.75,471 471,374.74 471,256 471,137.25 374.74,40.999999 256,40.999999 m -1.505,84.550001 3.01,0 c 17.2,0 31.06,16.09 31.06,36.12 l 0,61.762 61.762,0 c 20.03,0 36.17,13.863 36.17,31.06 l 0,3.063 c 0,17.2 -16.15,31.01 -36.17,31.01 l -61.762,0 0,61.762 c 0,20.03 -13.863,36.17 -31.06,36.17 l -3.01,0 c -17.2,0 -31.06,-16.15 -31.06,-36.17 l 0,-61.762 -61.762,0 c -20.03,0 -36.17,-13.812 -36.17,-31.01 l 0,-3.063 c 0,-17.2 16.15,-31.06 36.17,-31.06 l 61.762,0 0,-61.762 c 0,-20.03 13.863,-36.12 31.06,-36.12"
     id="path4085"
     style="fill:#ffffff;fill-rule:evenodd" />
</svg>
