<?xml version="1.0" encoding="UTF-8" standalone="no"?>
<svg
   xmlns:dc="http://purl.org/dc/elements/1.1/"
   xmlns:cc="http://creativecommons.org/ns#"
   xmlns:rdf="http://www.w3.org/1999/02/22-rdf-syntax-ns#"
   xmlns:svg="http://www.w3.org/2000/svg"
   xmlns="http://www.w3.org/2000/svg"
   version="1.1"
   width="100%"
   height="100%"
   viewBox="0 0 512 512"
   id="svg2">
  <metadata
     id="metadata3699">
    <rdf:RDF>
      <cc:Work
         rdf:about="">
        <dc:format>image/svg+xml</dc:format>
        <dc:type
           rdf:resource="http://purl.org/dc/dcmitype/StillImage" />
      </cc:Work>
    </rdf:RDF>
  </metadata>
  <defs
     id="defs4">
    <linearGradient
       gradientTransform="translate(-0.0085,-0.0035)"
       y1="0.107"
       x2="0"
       y2="512.53998"
       id="0-3"
       gradientUnits="userSpaceOnUse">
      <stop
         id="stop7-1"
         style="stop-color:#6a6a6a;stop-opacity:1"
         offset="0" />
      <stop
         id="stop9-0"
         style="stop-color:#000000;stop-opacity:1"
         offset="0.47" />
      <stop
         id="stop11-4"
         style="stop-color:#ffffff;stop-opacity:1"
         offset="0.49399999" />
      <stop
         id="stop13-4"
         style="stop-color:#ffffff;stop-opacity:1"
         offset="0.90100002" />
      <stop
         id="stop15-9"
         style="stop-color:#000000;stop-opacity:1"
         offset="0.95499998" />
      <stop
         id="stop17-2"
         style="stop-color:#000000;stop-opacity:1"
         offset="1" />
    </linearGradient>
  </defs>
  <path
     d="m 50.2415,-0.0035 c -27.823,0 -50.25,22.395 -50.25,50.22 l 0,411.56 c 0,27.823 22.427,50.22 50.25,50.22 l 411.53,0 c 27.823,0 50.22,-22.395 50.22,-50.22 l 0,-411.56 c 0,-27.823 -22.395,-50.22 -50.22,-50.22 l -411.53,0"
     id="path19"
     style="fill:#6997c7;fill-rule:evenodd" />
  <path
     d="m 50.2415,-0.0035 c -27.823,0 -50.25,22.395 -50.25,50.22 l 0,411.56 c 0,27.823 22.427,50.22 50.25,50.22 l 411.53,0 c 27.823,0 50.22,-22.395 50.22,-50.22 l 0,-411.56 c 0,-27.823 -22.395,-50.22 -50.22,-50.22 l -411.53,0"
     id="path1333"
     style="opacity:0.05;fill:url(#0-3);fill-rule:evenodd" />
  <path
     d="m 318.8715,40.9965 c -10.667,0.095 -21.21,3.819 -28.969,9.5 -4.219,3.02 -7.668,6.401 -10.5,10.09 -2.057,2.772 -3.845,4.568 -6.125,8.125 -9.465,13.811 -13.837,27.802 -15.969,41.844 -2.041,13.846 -2.096,27.06 -1.469,39.75 l 0.313,7.188 c -18.18,9.278 -37.436,18.878 -55.813,30.563 -12.03,7.601 -23.963,16.09 -34.906,26.656 -10.882,10.442 -20.844,23.364 -26.531,38.594 -5.692,15.27 -6.911,31.558 -3.5,47.13 2.772,14.13 9.01,28.791 18.13,41.5 3.456,4.921 7.347,9.503 11.594,13.75 l 1.719,1.688 42.25,42.28 c -2.377,1.378 -4.378,3.348 -5.719,5.813 -1.773,3.259 -3.65,6.338 -4.813,10.125 -1.357,3.529 -2.145,7.639 -2.25,11.75 -0.373,8.304 2.709,17.18 8.03,23.75 1.06,1.34 2.191,2.597 3.375,3.781 l 57.13,57.13 196.94,0 c 27.823,0 50.22,-22.394 50.22,-50.22 l 0,-249.75 -155.75,-155.75 c -8.754,-8.754 -21.17,-14.94 -35.25,-15.25 -0.711,-0.026 -1.414,-0.038 -2.125,-0.031"
     id="path3693"
     style="opacity:0.25" />
  <path
     d="m 362.0115,261.5365 c -10.166,-12.402 -23.12,-21.775 -37.501,-28.482 -7.244,-3.327 -14.846,-6.073 -23.477,-7.79 -3.37,-0.662 -6.559,-1.029 -9.643,-1.218 l -0.91,-36.963 c 0,-0.96 0,-1.933 0,-2.881 1.237,-0.704 2.488,-1.407 3.712,-2.11 12.372,-7.155 24.13,-14.581 35.715,-23.479 11.448,-8.912 22.941,-19.02 31.587,-33.33 8.497,-14.513 12.11001,-31.707 6.619,-49.622 -5.194,-17.664 -23.899,-34.13 -47.12,-34.64 -11.384,-0.42 -22.824,3.395 -31.1,9.454 -4.219,3.02 -7.677,6.424 -10.509,10.116 -2.057,2.772 -3.83,4.572 -6.111,8.128 -9.465,13.811 -13.846,27.777 -15.978,41.819 -2.041,13.846 -2.087,27.08 -1.46,39.764 l 0.313,7.195 c -18.18,9.278 -37.444,18.868 -55.821,30.553 -12.03,7.601 -23.967,16.1 -34.911,26.658 -10.882,10.442 -20.846,23.357 -26.533,38.587 -5.692,15.27 -6.914,31.553 -3.503,47.12 2.772,14.13 9.02,28.794 18.13,41.503 18.306,26.06 48.805,42.751 79.72,49.19 10.301,2 20.743,3.192 31.25,3.406 l 0.552,16.677 c 0.029,0.568 0.06,1.204 0.149,1.786 0.208,1.407 0.403,4.04 0.403,6.06 0.016,2.177 -0.074,4.341 -0.313,6.438 -0.447,4.165 -1.491,7.978 -2.936,10.779 -1.505,2.826 -3.101,4.247 -4.948,5.262 -0.983,0.447 -2.207,0.826 -3.667,1.082 -0.79,0.067 -1.536,0.244 -2.475,0.244 -0.105,0 -0.91,0.027 -0.939,0.027 l -1.908,-0.095 -2.131,-0.136 -1.029,-0.231 c -0.626,-0.08 -1.431,-0.244 -2.444,-0.5 -1.849,-0.406 -3.667,-1.055 -5.277,-1.826 -3.28,-1.474 -5.918,-3.543 -7.423,-5.545 -1.521,-2.055 -2.087,-3.936 -1.968,-6.262 0.074,-1.162 0.224,-2.461 0.879,-3.882 0.373,-1.407 1.46,-2.961 2.22,-4.516 l 1.058,-2.136 c 3.474,-7.07 0.195,-15.459 -7.542,-18.894 -7.932,-3.543 -17.485,-0.582 -21.392,6.599 -1.773,3.259 -3.638,6.357 -4.8,10.145 -1.357,3.529 -2.131,7.642 -2.236,11.753 -0.373,8.304 2.699,17.16 8.02,23.735 5.277,6.668 12.223,11.361 19.468,14.525 3.638,1.61 7.394,2.826 11.224,3.665 3.101,0.879 9.615,1.597 11.761,1.597 l 2.207,0.109 c 2.355,0.053 2.415,-0.041 3.741,-0.053 2.01,-0.027 4.188,-0.311 6.305,-0.595 4.293,-0.717 8.749,-1.947 12.968,-3.963 8.557,-4.099 14.936,-11.144 18.439,-17.948 3.562,-6.871 5.098,-13.59 5.858,-20.02 0.373,-3.206 0.522,-6.397 0.522,-9.508 -0.06,-2.99 -0.149,-5.492 -0.552,-8.805 l -0.492,-18.03 c 10.748,-1.975 21.346,-5.111 31.617,-9.616 7.513,-3.395 14.846,-7.601 21.449,-13.08 6.44,-5.072 13.4,-13.241 16.86,-19.463 7.334,-12.808 12.96801,-27.726 12.774,-43.847 0.074,-16.08 -6.289,-32.22 -16.473,-44.517 m -70.13,-146.37 c 1.714,-10.55 5.813,-20.794 11.03,-27.995 1.102,-1.866 3.906,-4.774 5.739,-7.114 1.102,-1.379 2.444,-2.517 3.667,-3.273 2.504,-1.597 4.785,-2.097 7.139,-1.921 4.66701,0.338 9.898,4.138 11.492,10.482 1.76,6.168 0.208,15.323 -4.56,22.428 -7.22899,11.1 -21.15,21.738 -36.562,31.25 0.163,-8.345 0.71501,-16.38 2.057,-23.854 m -48.47,238.01 c -22.15,-5.1 -41.623,-16.513 -52.708,-32.884 -5.59,-8.223 -9.526,-17.189 -11.372,-27.554 -1.67,-8.846 -1.281,-18.207 1.833,-26.454 5.918,-16.892 23.641,-32.392 44.39,-45.626 10.275,-6.599 21.15,-12.659 32.421,-18.746 l 0.923,25.603 c -10.337,2.692 -20.17,6.846 -29.394,12.493 -6.87099,4.396 -13.4,9.887 -18.587,16.947 -2.609,3.652 -4.711,7.01 -6.529,12.295 -0.403,1.19 -0.91,2.637 -1.132,3.57 l -0.432,2.299 -0.611,3.434 -0.195,3.327 c -0.611,8.954 2.862,18.826 8.809,26.24 6.305,7.412 13.04,12.459 22.583,16.5 0.536,0.256 1.192,0.473 1.773,0.662 8.422,2.543 17.529,-1.61 20.318,-9.278 2.802,-7.655 -1.773,-15.91 -10.207,-18.435 l -0.149,-0.027 c -17.469,-5.275 -16.411,-22.979 2.325,-33.529 3.83,-2.177 8.08,-4.071 12.549,-5.573 l 0.135,3.707 3.101,94.03 c -6.752,-0.487 -13.431,-1.474 -19.84,-3.02 m 97.67,-47.35 c -0.179,8.859 -3.817,18.2 -9.407,27.17 -3.115,4.652 -4.979,6.208 -8.869,9.332 -3.562,2.814 -8.05,5.211 -12.85,7.169 -4.77,1.947 -9.867,3.474 -15.189,4.599 l -2.52,-92.46 -0.149,-6.533 c 0.432,0.095 0.923,0.189 1.313,0.311 4.74,1.082 9.943,3.07 14.812,5.518 19.96,9.967 34,27.396 32.85,44.891"
     id="path3695"
     style="fill:#ffffff" />
</svg>
