<?xml version="1.0" encoding="UTF-8" standalone="no"?>
<svg
   xmlns:dc="http://purl.org/dc/elements/1.1/"
   xmlns:cc="http://creativecommons.org/ns#"
   xmlns:rdf="http://www.w3.org/1999/02/22-rdf-syntax-ns#"
   xmlns:svg="http://www.w3.org/2000/svg"
   xmlns="http://www.w3.org/2000/svg"
   xmlns:xlink="http://www.w3.org/1999/xlink"
   version="1.1"
   width="100%"
   height="100%"
   viewBox="0 0 512 512"
   id="svg2">
  <metadata
     id="metadata3699">
    <rdf:RDF>
      <cc:Work
         rdf:about="">
        <dc:format>image/svg+xml</dc:format>
        <dc:type
           rdf:resource="http://purl.org/dc/dcmitype/StillImage" />
        <dc:title />
      </cc:Work>
    </rdf:RDF>
  </metadata>
  <defs
     id="defs4">
    <linearGradient
       y1="0.107"
       x2="0"
       y2="512.53998"
       id="0"
       gradientUnits="userSpaceOnUse">
      <stop
         id="stop7"
         style="stop-color:#6a6a6a;stop-opacity:1"
         offset="0" />
      <stop
         id="stop9"
         style="stop-color:#000000;stop-opacity:1"
         offset="0.47" />
      <stop
         id="stop11"
         style="stop-color:#ffffff;stop-opacity:1"
         offset="0.49399999" />
      <stop
         id="stop13"
         style="stop-color:#ffffff;stop-opacity:1"
         offset="0.90100002" />
      <stop
         id="stop15"
         style="stop-color:#000000;stop-opacity:1"
         offset="0.95499998" />
      <stop
         id="stop17"
         style="stop-color:#000000;stop-opacity:1"
         offset="1" />
    </linearGradient>
    <linearGradient
       y1="0.107"
       x2="0"
       y2="512.53998"
       id="linearGradient17283"
       xlink:href="#0"
       gradientUnits="userSpaceOnUse" />
    <clipPath
       id="clipPath17279-0">
      <path
         d="M 50.25,0 C 22.427,0 0,22.395 0,50.22 L 0,461.78 C 0,489.603 22.427,512 50.25,512 l 411.53,0 C 489.603,512 512,489.605 512,461.78 L 512,50.22 C 512,22.397 489.605,0 461.78,0 L 50.25,0"
         id="path17281-1"
         style="opacity:0.05;fill:url(#linearGradient17283);fill-rule:evenodd" />
    </clipPath>
    <linearGradient
       y1="0.107"
       x2="0"
       y2="512.53998"
       id="0-6"
       gradientUnits="userSpaceOnUse">
      <stop
         id="stop7-9"
         style="stop-color:#6a6a6a;stop-opacity:1"
         offset="0" />
      <stop
         id="stop9-1"
         style="stop-color:#000000;stop-opacity:1"
         offset="0.47" />
      <stop
         id="stop11-7"
         style="stop-color:#ffffff;stop-opacity:1"
         offset="0.49399999" />
      <stop
         id="stop13-0"
         style="stop-color:#ffffff;stop-opacity:1"
         offset="0.90100002" />
      <stop
         id="stop15-0"
         style="stop-color:#000000;stop-opacity:1"
         offset="0.95499998" />
      <stop
         id="stop17-1"
         style="stop-color:#000000;stop-opacity:1"
         offset="1" />
    </linearGradient>
  </defs>
  <path
     d="M 50.25,0 C 22.427,0 0,22.395 0,50.22 L 0,461.78 C 0,489.603 22.427,512 50.25,512 l 411.53,0 C 489.603,512 512,489.605 512,461.78 L 512,50.22 C 512,22.397 489.605,0 461.78,0 L 50.25,0"
     id="path19"
     style="fill:#6997c7;fill-rule:evenodd" />
  <path
     d="M 50.25,0 C 22.427,0 0,22.395 0,50.22 L 0,461.78 C 0,489.603 22.427,512 50.25,512 l 411.53,0 C 489.603,512 512,489.605 512,461.78 L 512,50.22 C 512,22.397 489.605,0 461.78,0 L 50.25,0"
     id="path1333"
     style="opacity:0.05;fill:url(#0-6);fill-rule:evenodd" />
  <path
     d="M 266.6875,45.3125 372.53125,151.15625 354.1875,169.5 334.84375,150.15625 282.75,108.1875 235.03125,60.46875 l 0,169.4375 -65.4375,-60.59375 118.96875,118.96875 -24.875,24.875 L 213,262.46875 143.21875,197.84375 210.25,264.875 135.1875,330.5 l 27.5625,27.5625 -1.96875,1.71875 74.25,74.25 0,17.5625 L 623.9375,840.5 l 0,-17.125 31.96875,31.96875 100.21875,-84.375 -224.3125,-224.3125 7.5625,-7.5625 19.125,19.125 65.4375,60.59375 0,-2.875 38.90625,38.90625 93.9375,86.96875 -93.4375,-93.4375 103.34375,-96.09375 -146.8125,-146.8125 3.5,-3.46875 32.21875,32.21875 110.0625,88.625 L 376.75,133.9375 266.6875,45.3125 Z"
     clip-path="url(#clipPath17279-0)"
     id="path14944"
     style="color:#000000;font-style:normal;font-variant:normal;font-weight:normal;font-stretch:normal;font-size:medium;line-height:normal;font-family:Sans;-inkscape-font-specification:Sans;text-indent:0;text-align:start;text-decoration:none;text-decoration-line:none;letter-spacing:normal;word-spacing:normal;text-transform:none;direction:ltr;block-progression:tb;writing-mode:lr-tb;text-anchor:start;visibility:visible;opacity:0.25;fill:#000000;fill-opacity:1;stroke:none;stroke-width:22.84569359;marker:none" />
  <path
     d="m 254.07827,41.00401 a 19.44754,19.44754 0 0 0 -19.04496,19.47054 l 0,169.43626 -65.43378,-60.59275 a 19.44754,19.44754 0 1 0 -26.38631,28.51424 l 69.79604,64.63581 -77.82896,68.04049 a 19.44754,19.44754 0 1 0 25.58833,29.25901 l 74.26468,-64.9018 0,156.72189 a 19.44754,19.44754 0 0 0 31.97212,14.84229 l 100.2254,-84.37234 a 19.44754,19.44754 0 0 0 0.63838,-29.15261 l -93.94802,-86.97905 0,-6.0114 103.84288,-96.55472 a 19.44754,19.44754 0 0 0 -1.01076,-29.41861 L 266.68624,45.31307 a 19.44754,19.44754 0 0 0 -12.60797,-4.30906 z m 19.84292,60.06077 60.91194,49.10193 -60.91194,56.65608 0,-105.75801 z m 0,217.79342 51.44266,47.61238 -51.44266,43.30333 0,-90.91571 z"
     id="path3366"
     style="color:#000000;font-style:normal;font-variant:normal;font-weight:normal;font-stretch:normal;font-size:medium;line-height:normal;font-family:Sans;-inkscape-font-specification:Sans;text-indent:0;text-align:start;text-decoration:none;text-decoration-line:none;letter-spacing:normal;word-spacing:normal;text-transform:none;direction:ltr;block-progression:tb;writing-mode:lr-tb;baseline-shift:baseline;text-anchor:start;display:inline;overflow:visible;visibility:visible;fill:#ffffff;fill-opacity:1;stroke:none;stroke-width:22.84569359;marker:none;enable-background:accumulate" />
</svg>
