<?xml version="1.0" encoding="UTF-8" standalone="no"?>
<svg
   xmlns:dc="http://purl.org/dc/elements/1.1/"
   xmlns:cc="http://creativecommons.org/ns#"
   xmlns:rdf="http://www.w3.org/1999/02/22-rdf-syntax-ns#"
   xmlns:svg="http://www.w3.org/2000/svg"
   xmlns="http://www.w3.org/2000/svg"
   viewBox="0 0 512 512"
   id="svg2"
   version="1.1">
  <metadata
     id="metadata5501">
    <rdf:RDF>
      <cc:Work
         rdf:about="">
        <dc:format>image/svg+xml</dc:format>
        <dc:type
           rdf:resource="http://purl.org/dc/dcmitype/StillImage" />
      </cc:Work>
    </rdf:RDF>
  </metadata>
  <defs
     id="defs4">
    <linearGradient
       gradientTransform="translate(-0.0045,-0.0095)"
       y1="0.107"
       x2="0"
       y2="512.53998"
       id="0-8"
       gradientUnits="userSpaceOnUse">
      <stop
         style="stop-color:#6a6a6a"
         id="stop7-9" />
      <stop
         offset=".47"
         id="stop9-5" />
      <stop
         offset=".494"
         style="stop-color:#fff"
         id="stop11-4" />
      <stop
         offset=".901"
         style="stop-color:#fff"
         id="stop13-8" />
      <stop
         offset=".955"
         id="stop15-7" />
      <stop
         offset="1"
         id="stop17-7" />
    </linearGradient>
  </defs>
  <path
     d="m 50.2455,-0.0095 c -27.823,0 -50.25,22.395 -50.25,50.22 l 0,411.56 c 0,27.823 22.427,50.22 50.25,50.22 l 411.53,0 c 27.823,0 50.22,-22.395 50.22,-50.22 l 0,-411.56 c 0,-27.823 -22.395,-50.22 -50.22,-50.22 l -411.53,0"
     style="fill:#6997c7;fill-rule:evenodd"
     id="path19" />
  <path
     d="m 50.2455,-0.0095 c -27.823,0 -50.25,22.395 -50.25,50.22 l 0,411.56 c 0,27.823 22.427,50.22 50.25,50.22 l 411.53,0 c 27.823,0 50.22,-22.395 50.22,-50.22 l 0,-411.56 c 0,-27.823 -22.395,-50.22 -50.22,-50.22 l -411.53,0"
     style="opacity:0.05;fill:url(#0-8);fill-rule:evenodd"
     id="path1333" />
  <path
     d="m 232.9355,91.5405 19.03,49.26 22.492,57.744 -56.762,-56.762 -32.27,106.12 -59.56,-59.56 -13.221,0 -71.64,0 0,30.797 89.82,89.82 20.809,59.15 18.381,52.35 91.55,91.55 200.22,0 c 27.823,0 50.22,-22.396 50.22,-50.22 l 0,-193.99 -173.36,-173.36 -17.457,42.916 -12.287,30.15 -75.957,-75.957"
     style="opacity:0.25"
     id="path5495" />
  <path
     d="m 232.9355,91.5405 19.03,49.26 33.14,85.08 36.08,-88.54 17.458,-42.916 16.57,43.13 57.12,149.34 58.662,0 0,30.797 -71.64,0 -13.02,0 -4.03,-10.598 -44.551,-116.82 -36.08,88.52 -17.458,42.539 -16.57,-42.718 -30.475,-78.71 -51.04,167.63 -16.13,52.905 -18.38,-52.34 -52.41,-148.96 -58.22,0 0,-30.797 71.64,0 13.222,0 4.03,10.979 37.649,107.39 50.15,-164.93 z"
     style="fill:#ffffff"
     id="path5497" />
</svg>
