<?xml version="1.0" encoding="UTF-8" standalone="no"?>
<svg
   xmlns:dc="http://purl.org/dc/elements/1.1/"
   xmlns:cc="http://creativecommons.org/ns#"
   xmlns:rdf="http://www.w3.org/1999/02/22-rdf-syntax-ns#"
   xmlns:svg="http://www.w3.org/2000/svg"
   xmlns="http://www.w3.org/2000/svg"
   version="1.1"
   width="100%"
   height="100%"
   viewBox="0 0 512 512"
   id="svg2">
  <metadata
     id="metadata6029">
    <rdf:RDF>
      <cc:Work
         rdf:about="">
        <dc:format>image/svg+xml</dc:format>
        <dc:type
           rdf:resource="http://purl.org/dc/dcmitype/StillImage" />
      </cc:Work>
    </rdf:RDF>
  </metadata>
  <defs
     id="defs4">
    <linearGradient
       gradientTransform="translate(-5e-4,-0.0025)"
       y1="0.107"
       x2="0"
       y2="512.53998"
       id="0-6"
       gradientUnits="userSpaceOnUse">
      <stop
         id="stop7-2"
         style="stop-color:#6a6a6a;stop-opacity:1"
         offset="0" />
      <stop
         id="stop9-1"
         style="stop-color:#000000;stop-opacity:1"
         offset="0.47" />
      <stop
         id="stop11-1"
         style="stop-color:#ffffff;stop-opacity:1"
         offset="0.49399999" />
      <stop
         id="stop13-2"
         style="stop-color:#ffffff;stop-opacity:1"
         offset="0.90100002" />
      <stop
         id="stop15-5"
         style="stop-color:#000000;stop-opacity:1"
         offset="0.95499998" />
      <stop
         id="stop17-6"
         style="stop-color:#000000;stop-opacity:1"
         offset="1" />
    </linearGradient>
  </defs>
  <path
     d="m 50.2495,-0.0025 c -27.823,0 -50.25,22.395 -50.25,50.22 l 0,411.56 c 0,27.823 22.427,50.22 50.25,50.22 l 411.53,0 c 27.823,0 50.22,-22.395 50.22,-50.22 l 0,-411.56 c 0,-27.823 -22.395,-50.22 -50.22,-50.22 l -411.53,0"
     id="path19"
     style="fill:#6997c7;fill-rule:evenodd" />
  <path
     d="m 50.2495,-0.0025 c -27.823,0 -50.25,22.395 -50.25,50.22 l 0,411.56 c 0,27.823 22.427,50.22 50.25,50.22 l 411.53,0 c 27.823,0 50.22,-22.395 50.22,-50.22 l 0,-411.56 c 0,-27.823 -22.395,-50.22 -50.22,-50.22 l -411.53,0"
     id="path1333"
     style="opacity:0.05;fill:url(#0-6);fill-rule:evenodd" />
  <path
     d="m 265.8095,40.9975 0,0.063 c -43.18,0 -50.704,2.971 -63.813,13.281 -12.47,9.806 -17.58,23.351 -17.5,28.406 0.018,1.224 0.436,2.249 1.281,3.094 l 16.219,16.219 -18.969,0 c -8.402,0 -16.17,2.607 -22.563,7.03 l -7.03,-7.03 -45.16,0 c -21.988,0 -39.719,17.734 -39.719,39.719 l 0,153.66 c 0,10.994 4.444,20.913 11.625,28.09 l 124.41,124.41 0,6.563 57.5,57.5 199.69,0 c 27.823,0 50.22,-22.394 50.22,-50.22 l 0,-332.5 -78.19,-78.19 c -9.137,-9.137 -27.19,-7.629 -111.53,-9.438 -23.854,-0.51 -42.07,-0.657 -56.46999,-0.656"
     id="path4711"
     style="opacity:0.25" />
  <path
     d="m 265.8095,40.9975 0,0.063 c -43.18,0 -50.704,2.971 -63.813,13.281 -12.47,9.806 -17.58,23.351 -17.5,28.406 0.041,2.749 2.057,4.458 6.531,5.5 168.08,0 16.812,-0.219 182.38001,-0.219 13.976,0 25.65699,9.428 25.84399,21.16 0,214.09 -0.084,114.03 -0.094,213.84 0,14.676 -15.96001,25.354 -29.19,25.688 -13.827,0.017 -38.606,0.063 -87.87001,0.063 -106.37,0 -72.68,0.281 -98.87,0.281 5.04,19.26 4.825,17.255 10.688,25.625 9.143,13.05 16.911,15.16 54.75,15.16 l 35.09001,0 9.25,0 c 0,3.187 0.003,5.204 0,7.969 -0.238,6.965 -0.229,14.269 -0.219,21.594 l -28.46901,0 0,16.5 -59.719,0 0,18.594 59.719,0 0,16.5 98.03,0 0,-16.5 59.688,0 0,-18.594 -59.688,0 0,-16.5 -28.28,0 0,-20.531 c 0,-1.063 -0.002,-0.445 0,-1.063 0.007,-4.572 0,-0.119 0,-7.969 31.798,0 29.26001,-0.02 46.65601,0 63.47999,0 62.71899,2.01 62.71899,-170.97 0,-117.15 0.199,-154.75 -7.469,-165.25 -8.718,-11.939 -22.283,-10.01 -113.68999,-11.969 -23.85401,-0.51 -42.07,-0.657 -56.47,-0.656 m -157.53001,61.06 c -21.988,0 -39.719,17.734 -39.719,39.719 l 0,153.66 c 0,21.988 17.734,39.719 39.719,39.719 l 45.16,0 c -21.988,0 -39.719,-17.734 -39.719,-39.719 l 0,-153.66 c 0,-21.988 17.734,-39.719 39.719,-39.719 l -45.16,0 m 74.75,0 c -21.99,0 -39.656,17.726 -39.656,39.719 l 0,153.66 c 0,21.99 17.667,39.719 39.656,39.719 l 103.84001,0 c 21.98999,0 39.719,-17.726 39.719,-39.719 l 0,-153.66 c 0,-21.99 -17.72601,-39.719 -39.719,-39.719 l -103.84001,0"
     id="path4713"
     style="fill:#ffffff" />
</svg>
