<?xml version="1.0" encoding="UTF-8" standalone="no"?>
<svg
   xmlns:dc="http://purl.org/dc/elements/1.1/"
   xmlns:cc="http://creativecommons.org/ns#"
   xmlns:rdf="http://www.w3.org/1999/02/22-rdf-syntax-ns#"
   xmlns:svg="http://www.w3.org/2000/svg"
   xmlns="http://www.w3.org/2000/svg"
   version="1.1"
   width="100%"
   height="100%"
   viewBox="0 0 512 512"
   id="svg2">
  <metadata
     id="metadata4261">
    <rdf:RDF>
      <cc:Work
         rdf:about="">
        <dc:format>image/svg+xml</dc:format>
        <dc:type
           rdf:resource="http://purl.org/dc/dcmitype/StillImage" />
      </cc:Work>
    </rdf:RDF>
  </metadata>
  <defs
     id="defs4">
    <linearGradient
       gradientTransform="translate(-0.0055,-0.0025)"
       y1="0.107"
       x2="0"
       y2="512.53998"
       id="0-5"
       gradientUnits="userSpaceOnUse">
      <stop
         id="stop7-1"
         style="stop-color:#6a6a6a;stop-opacity:1"
         offset="0" />
      <stop
         id="stop9-6"
         style="stop-color:#000000;stop-opacity:1"
         offset="0.47" />
      <stop
         id="stop11-8"
         style="stop-color:#ffffff;stop-opacity:1"
         offset="0.49399999" />
      <stop
         id="stop13-6"
         style="stop-color:#ffffff;stop-opacity:1"
         offset="0.90100002" />
      <stop
         id="stop15-8"
         style="stop-color:#000000;stop-opacity:1"
         offset="0.95499998" />
      <stop
         id="stop17-0"
         style="stop-color:#000000;stop-opacity:1"
         offset="1" />
    </linearGradient>
  </defs>
  <path
     d="m 50.2445,-0.0025 c -27.823,0 -50.25,22.395 -50.25,50.22 l 0,411.56 c 0,27.823 22.427,50.22 50.25,50.22 l 411.53,0 c 27.823,0 50.22,-22.395 50.22,-50.22 l 0,-411.56 c 0,-27.823 -22.395,-50.22 -50.22,-50.22 l -411.53,0"
     id="path19"
     style="fill:#6997c7;fill-rule:evenodd" />
  <path
     d="m 50.2445,-0.0025 c -27.823,0 -50.25,22.395 -50.25,50.22 l 0,411.56 c 0,27.823 22.427,50.22 50.25,50.22 l 411.53,0 c 27.823,0 50.22,-22.395 50.22,-50.22 l 0,-411.56 c 0,-27.823 -22.395,-50.22 -50.22,-50.22 l -411.53,0"
     id="path1333"
     style="opacity:0.05;fill:url(#0-5);fill-rule:evenodd" />
  <path
     d="m 148.4945,40.9975 c -14.824,0 -26.875,12.05 -26.875,26.875 l 0,53.75 26.875,26.875 -80.62,0 c -14.824,0 -26.875,12.05 -26.875,26.875 l 0,134.38 c 0,7.425 3.01,14.14 7.875,19 l 0.938,0.906 71.813,71.813 0,0.031 0,42.625 c 0,7.425 3.01,14.14 7.875,19 l 48.875,48.875 283.41,0 c 27.823,0 50.22,-22.394 50.22,-50.22 l 0,-283.37 -128.59,-128.59 -0.906,-0.938 c -4.861,-4.861 -11.577,-7.875 -19,-7.875 l -215,0"
     id="path4255"
     style="opacity:0.25" />
  <path
     d="m 148.4945,40.9975 c -14.824,0 -26.875,12.05 -26.875,26.875 l 0,53.75 26.875,0 0,-53.75 215,0 0,53.75 26.875,0 0,-53.75 c 0,-14.824 -12.02,-26.875 -26.875,-26.875 l -215,0 m -80.62,107.5 c -14.824,0 -26.875,12.05 -26.875,26.875 l 0,134.38 c 0,14.858 12.05,26.875 26.875,26.875 l 53.75,0 0,107.5 c 0,14.858 12.05,26.875 26.875,26.875 l 215,0 c 14.858,0 26.875,-12.02 26.875,-26.875 l 0,-107.5 53.75,0 c 14.858,0 26.875,-12.02 26.875,-26.875 l 0,-134.37 c 0,-14.824 -12.02,-26.875 -26.875,-26.875 l -376.25,0 m 349.38,26.875 c 14.858,0 26.875,12.05 26.875,26.875 0,14.858 -12.02,26.875 -26.875,26.875 -14.858,0 -26.875,-12.02 -26.875,-26.875 0,-14.824 12.02,-26.875 26.875,-26.875 m -268.75,80.63 215,0 0,188.13 -215,0 0,-188.12 m 26.875,26.875 0,26.875 107.5,0 0,-26.875 -107.5,0 m 0,53.75 0,26.875 161.25,0 0,-26.875 -161.25,0 m 0,53.75 0,26.875 161.25,0 0,-26.875 -161.25,0"
     id="path4257"
     style="fill:#ffffff" />
</svg>
