<?xml version="1.0" encoding="UTF-8" standalone="no"?>
<svg
   xmlns:dc="http://purl.org/dc/elements/1.1/"
   xmlns:cc="http://creativecommons.org/ns#"
   xmlns:rdf="http://www.w3.org/1999/02/22-rdf-syntax-ns#"
   xmlns:svg="http://www.w3.org/2000/svg"
   xmlns="http://www.w3.org/2000/svg"
   id="svg2"
   viewBox="0 0 512 512"
   height="100%"
   width="100%"
   version="1.1">
  <metadata
     id="metadata2229">
    <rdf:RDF>
      <cc:Work
         rdf:about="">
        <dc:format>image/svg+xml</dc:format>
        <dc:type
           rdf:resource="http://purl.org/dc/dcmitype/StillImage" />
        <dc:title />
      </cc:Work>
    </rdf:RDF>
  </metadata>
  <defs
     id="defs4">
    <linearGradient
       gradientTransform="translate(-2e-5)"
       y1="0.107"
       x2="0"
       y2="512.53998"
       id="0-7-2"
       gradientUnits="userSpaceOnUse">
      <stop
         id="stop7-1-7"
         style="stop-color:#6a6a6a;stop-opacity:1"
         offset="0" />
      <stop
         id="stop9-1-8"
         style="stop-color:#000000;stop-opacity:1"
         offset="0.47" />
      <stop
         id="stop11-8-1"
         style="stop-color:#ffffff;stop-opacity:1"
         offset="0.49399999" />
      <stop
         id="stop13-1-8"
         style="stop-color:#ffffff;stop-opacity:1"
         offset="0.90100002" />
      <stop
         id="stop15-0-2"
         style="stop-color:#000000;stop-opacity:1"
         offset="0.95499998" />
      <stop
         id="stop17-9-3"
         style="stop-color:#000000;stop-opacity:1"
         offset="1" />
    </linearGradient>
  </defs>
  <path
     d="M 50.24998,0 C 22.42698,0 -2e-5,22.395 -2e-5,50.22 l 0,411.56 c 0,27.823 22.427,50.22 50.25,50.22 l 411.53,0 c 27.823,0 50.22,-22.395 50.22,-50.22 l 0,-411.56 c 0,-27.823 -22.395,-50.22 -50.22,-50.22 l -411.53,0"
     id="path19"
     style="fill:#6997c7;fill-rule:evenodd" />
  <path
     d="M 50.24998,0 C 22.42698,0 -2e-5,22.395 -2e-5,50.22 l 0,411.56 c 0,27.823 22.427,50.22 50.25,50.22 l 411.53,0 c 27.823,0 50.22,-22.395 50.22,-50.22 l 0,-411.56 c 0,-27.823 -22.395,-50.22 -50.22,-50.22 l -411.53,0"
     id="path1333"
     style="opacity:0.05;fill:url(#0-7-2);fill-rule:evenodd" />
  <path
     id="path3425"
     d="m 219.74807,98.95672 c -0.4646,0.0163 -0.93434,0.10813 -1.40039,0.26367 -2.46675,0.83444 -3.79487,3.49262 -2.96289,5.96875 l 6.81641,20.14844 3.0039,8.97461 3.08985,9.10156 c -43.63291,7.66799 -79.03371,34.86698 -89.5293,74.03711 l 26.79297,26.79297 -29.71289,-7.95703 -1.99023,-0.55078 -5.91407,22.14062 -27.04883,-27.04883 c -3.40512,-3.40512 -7.72359,-5.98787 -12.71094,-7.32422 -2.83877,-0.76064 -5.71999,-1.08517 -8.50976,-0.97461 -12.08899,0.47912 -22.9439,8.7224 -26.24414,21.03907 L 21.97463,360.86688 c -2.71975,10.15023 0.42717,20.49553 7.36328,27.43164 l 123.70118,123.70117 308.74023,0 c 27.823,0 50.22071,-22.39375 50.22071,-50.21875 l 0,-237.43555 -29.33008,-29.33008 c -3.40509,-3.40509 -7.72282,-5.98871 -12.70703,-7.32422 -2.84054,-0.76111 -5.6764,-1.08305 -8.4668,-0.97265 -8.73598,0.34562 -16.83027,4.7587 -21.9043,11.81836 L 384.6719,143.61688 c -1.76525,-1.76527 -4.58752,-1.87188 -6.48242,-0.20313 l -17.14453,15.07031 -7.19531,6.30664 -7.28125,6.4336 c -14.80136,-10.82668 -32.28017,-19.38259 -51.72852,-24.59375 -10.21867,-2.73809 -20.41562,-4.3965 -30.44141,-5.07617 l -41.22851,-41.22852 c -0.78826,-0.78826 -1.83519,-1.27457 -2.95899,-1.35938 -0.15358,-0.0116 -0.30802,-0.0152 -0.46289,-0.01 z"
     style="opacity:0.25;fill:#000000" />
  <path
     style="fill:#ffffff"
     id="path3554"
     d="m 220.21072,98.96596 c -0.61435,-0.0463 -1.24117,0.0466 -1.86256,0.25399 -2.46675,0.83444 -3.79513,3.49252 -2.96315,5.96865 l 6.81526,20.14947 3.00549,8.97414 3.09015,9.10112 c -43.63291,7.66799 -79.03411,34.86649 -89.5297,74.03662 l 255.88985,68.57594 c 10.49308,-39.16068 -6.5997,-80.41776 -40.55293,-108.87489 l 7.23857,-6.34962 7.11158,-6.26496 15.95872,-14.01151 c 1.95852,-1.72842 2.17272,-4.72535 0.46564,-6.68827 -1.74471,-1.97299 -4.71778,-2.15863 -6.68827,-0.42331 l -17.14398,15.06978 -7.19625,6.30729 -7.2809,6.43429 c -14.80136,-10.82668 -32.27992,-19.38305 -51.72827,-24.59421 -19.4295,-5.20613 -38.78799,-6.54725 -57.01963,-4.57173 l -3.09015,-9.18579 -3.09015,-9.0588 -7.32323,-21.63105 c -0.62392,-1.85709 -2.26307,-3.07806 -4.10609,-3.21715 z m 4.57173,73.65565 c 1.39659,-0.0545 2.81017,0.0844 4.23308,0.46563 7.5701,2.0284 12.06079,9.78558 10.03241,17.35564 -2.0284,7.57007 -9.78556,12.10314 -17.35564,10.07474 -7.58888,-2.03344 -12.10314,-9.82792 -10.07474,-17.39797 1.64806,-6.15067 7.113,-10.26201 13.16489,-10.49804 z m 236.71399,14.09616 c -12.09172,0.47839 -22.98721,8.72175 -26.28744,21.03842 l -31.40948,117.29873 c -4.05426,15.13069 4.91531,30.69431 20.06481,34.75361 15.13072,4.05426 30.69935,-4.97644 34.75361,-20.10715 l 31.40948,-117.25639 c 4.0593,-15.14956 -4.9341,-30.69935 -20.06481,-34.75361 -2.84054,-0.76111 -5.67577,-1.08401 -8.46617,-0.97361 z M 334.41929,201.9992 c 1.39425,-0.0551 2.8137,0.0853 4.23309,0.46564 7.58893,2.03345 12.10312,9.8279 10.07473,17.39797 -2.02839,7.57007 -9.80903,12.06586 -17.39797,10.03241 -7.57009,-2.0284 -12.0608,-9.82791 -10.0324,-17.39797 1.64804,-6.15068 7.08077,-10.2593 13.12255,-10.49805 z M 79.67236,222.52965 c -12.08899,0.47912 -22.94487,8.72175 -26.24511,21.03842 L 21.97544,360.8668 c -4.05426,15.1307 4.92468,30.69683 20.06481,34.75361 15.1307,4.05425 30.74169,-4.93412 34.79595,-20.06481 l 31.40948,-117.29873 c 4.05932,-15.14955 -4.92468,-30.69683 -20.06482,-34.75361 -2.83877,-0.76064 -5.71873,-1.08417 -8.5085,-0.97361 z m 54.18347,13.20722 -6.09564,22.81632 -4.99504,18.58323 -36.40452,135.92429 274.26145,0 18.03292,-67.34835 4.99503,-18.62556 6.09564,-22.77399 -1.94721,-0.5503 -251.95308,-67.47534 -1.98955,-0.5503 z" />
</svg>
