<?xml version="1.0" encoding="UTF-8" standalone="no"?>
<svg
   xmlns:dc="http://purl.org/dc/elements/1.1/"
   xmlns:cc="http://creativecommons.org/ns#"
   xmlns:rdf="http://www.w3.org/1999/02/22-rdf-syntax-ns#"
   xmlns:svg="http://www.w3.org/2000/svg"
   xmlns="http://www.w3.org/2000/svg"
   version="1.1"
   width="100%"
   height="100%"
   viewBox="0 0 512 512"
   id="svg2">
  <metadata
     id="metadata5115">
    <rdf:RDF>
      <cc:Work
         rdf:about="">
        <dc:format>image/svg+xml</dc:format>
        <dc:type
           rdf:resource="http://purl.org/dc/dcmitype/StillImage" />
      </cc:Work>
    </rdf:RDF>
  </metadata>
  <defs
     id="defs4">
    <linearGradient
       y1="0.107"
       x2="0"
       y2="512.53998"
       id="0-7"
       gradientUnits="userSpaceOnUse">
      <stop
         id="stop7-3"
         style="stop-color:#6a6a6a;stop-opacity:1"
         offset="0" />
      <stop
         id="stop9-4"
         style="stop-color:#000000;stop-opacity:1"
         offset="0.47" />
      <stop
         id="stop11-6"
         style="stop-color:#ffffff;stop-opacity:1"
         offset="0.49399999" />
      <stop
         id="stop13-6"
         style="stop-color:#ffffff;stop-opacity:1"
         offset="0.90100002" />
      <stop
         id="stop15-7"
         style="stop-color:#000000;stop-opacity:1"
         offset="0.95499998" />
      <stop
         id="stop17-4"
         style="stop-color:#000000;stop-opacity:1"
         offset="1" />
    </linearGradient>
  </defs>
  <path
     d="M 50.25,0 C 22.427,0 0,22.395 0,50.22 L 0,461.78 C 0,489.603 22.427,512 50.25,512 l 411.53,0 C 489.603,512 512,489.605 512,461.78 L 512,50.22 C 512,22.397 489.605,0 461.78,0 L 50.25,0"
     id="path19"
     style="fill:#6997c7;fill-rule:evenodd" />
  <path
     d="M 50.25,0 C 22.427,0 0,22.395 0,50.22 L 0,461.78 C 0,489.603 22.427,512 50.25,512 l 411.53,0 C 489.603,512 512,489.605 512,461.78 L 512,50.22 C 512,22.397 489.605,0 461.78,0 L 50.25,0"
     id="path1333"
     style="opacity:0.05;fill:url(#0-7);fill-rule:evenodd" />
  <path
     style="opacity:0.25;fill-rule:evenodd"
     id="path5109"
     d="M 115.22,93.59 C 74.11,93.59 41,126.7 41,167.81 l 0,176.41 c 0,20.544 8.253,39.1 21.656,52.5 l 115.28,115.28 283.84,0 c 27.823,0 50.22,-22.394 50.22,-50.22 l 0,-283.81 -62.688,-62.688 c -13.403,-13.403 -31.956,-21.688 -52.5,-21.688 l -281.59,0" />
  <path
     style="fill:#ffffff;fill-rule:evenodd"
     id="path5111"
     d="M 115.22,93.6 C 74.11,93.6 41,126.71 41,167.82 l 0,176.4 c 0,41.11 33.11,74.18 74.22,74.18 l 281.6,0 c 41.11,0 74.18,-33.06 74.18,-74.18 l 0,-176.4 C 471,126.71 437.94,93.6 396.82,93.6 l -281.6,0 m 84.57,61.762 76.938,50.26 76.898,50.22 -76.73,50.51 -76.73,50.51 -0.203,-100.72 -0.163,-100.77" />
</svg>
