<?xml version="1.0" encoding="UTF-8" standalone="no"?>
<svg
   xmlns:dc="http://purl.org/dc/elements/1.1/"
   xmlns:cc="http://creativecommons.org/ns#"
   xmlns:rdf="http://www.w3.org/1999/02/22-rdf-syntax-ns#"
   xmlns:svg="http://www.w3.org/2000/svg"
   xmlns="http://www.w3.org/2000/svg"
   viewBox="0 0 512 512"
   id="svg2"
   version="1.1">
  <metadata
     id="metadata4739">
    <rdf:RDF>
      <cc:Work
         rdf:about="">
        <dc:format>image/svg+xml</dc:format>
        <dc:type
           rdf:resource="http://purl.org/dc/dcmitype/StillImage" />
      </cc:Work>
    </rdf:RDF>
  </metadata>
  <defs
     id="defs4">
    <linearGradient
       gradientTransform="translate(0,-5e-4)"
       y1="0.107"
       x2="0"
       y2="512.53998"
       id="0-6"
       gradientUnits="userSpaceOnUse">
      <stop
         style="stop-color:#6a6a6a"
         id="stop7-4" />
      <stop
         offset=".47"
         id="stop9-7" />
      <stop
         offset=".494"
         style="stop-color:#fff"
         id="stop11-0" />
      <stop
         offset=".901"
         style="stop-color:#fff"
         id="stop13-5" />
      <stop
         offset=".955"
         id="stop15-5" />
      <stop
         offset="1"
         id="stop17-4" />
    </linearGradient>
  </defs>
  <path
     d="M 50.25,-5e-4 C 22.427,-5e-4 0,22.3945 0,50.2195 l 0,411.56 c 0,27.823 22.427,50.22 50.25,50.22 l 411.53,0 c 27.823,0 50.22,-22.395 50.22,-50.22 l 0,-411.56 c 0,-27.823 -22.395,-50.22 -50.22,-50.22 l -411.53,0"
     style="fill:#6997c7;fill-rule:evenodd"
     id="path19" />
  <path
     d="M 50.25,-5e-4 C 22.427,-5e-4 0,22.3945 0,50.2195 l 0,411.56 c 0,27.823 22.427,50.22 50.25,50.22 l 411.53,0 c 27.823,0 50.22,-22.395 50.22,-50.22 l 0,-411.56 c 0,-27.823 -22.395,-50.22 -50.22,-50.22 l -411.53,0"
     style="opacity:0.05;fill:url(#0-6);fill-rule:evenodd"
     id="path1333" />
  <path
     d="m 265.6,108.6695 c -57.972,0 -105.88,42.813 -113.93,98.55 -1.472,-0.187 -3.01,-0.277 -4.535,-0.277 -19.497,0 -35.29,15.788 -35.29,35.29 0,4.01 0.706,7.86 1.936,11.449 -40.38,1.111 -72.78,34.12 -72.78,74.77 0,20.675 8.383,39.4 21.936,52.949 l 130.6,130.6 268.24,0 c 27.823,0 50.22,-22.396 50.22,-50.22 l 0,-154.42 -164.98,-164.98 c -20.836,-20.836 -49.622,-33.721 -81.43,-33.721"
     style="opacity:0.25"
     id="path4733" />
  <path
     d="m 265.6,108.6695 c -57.972,0 -105.88,42.813 -113.93,98.55 -1.472,-0.187 -3.01,-0.277 -4.535,-0.277 -19.497,0 -35.28,15.788 -35.28,35.28 0,4.01 0.706,7.859 1.936,11.448 -40.38,1.111 -72.78,34.12 -72.78,74.77 0,41.35 33.534,74.884 74.884,74.884 109.53,-1.357 0.245,-0.053 266.46,-2.931 0.037,-0.001 0.074,10e-4 0.111,0 49.06,-0.887 88.54,-40.872 88.54,-90.15 0,-49.832 -40.37,-90.26 -90.2,-90.26 -0.037,0 -0.074,0 -0.11,0 -2.02,-61.842 -52.758,-111.33 -115.09,-111.33"
     style="fill:#ffffff"
     id="path4735" />
</svg>
