<?xml version="1.0" encoding="UTF-8" standalone="no"?>
<svg
   xmlns:dc="http://purl.org/dc/elements/1.1/"
   xmlns:cc="http://creativecommons.org/ns#"
   xmlns:rdf="http://www.w3.org/1999/02/22-rdf-syntax-ns#"
   xmlns:svg="http://www.w3.org/2000/svg"
   xmlns="http://www.w3.org/2000/svg"
   version="1.1"
   width="100%"
   height="100%"
   viewBox="0 0 512 512"
   id="svg2">
  <metadata
     id="metadata2973">
    <rdf:RDF>
      <cc:Work
         rdf:about="">
        <dc:format>image/svg+xml</dc:format>
        <dc:type
           rdf:resource="http://purl.org/dc/dcmitype/StillImage" />
      </cc:Work>
    </rdf:RDF>
  </metadata>
  <defs
     id="defs4">
    <linearGradient
       y1="0.107"
       x2="0"
       y2="512.53998"
       id="0-4"
       gradientUnits="userSpaceOnUse">
      <stop
         id="stop7-7"
         style="stop-color:#6a6a6a;stop-opacity:1"
         offset="0" />
      <stop
         id="stop9-0"
         style="stop-color:#000000;stop-opacity:1"
         offset="0.47" />
      <stop
         id="stop11-6"
         style="stop-color:#ffffff;stop-opacity:1"
         offset="0.49399999" />
      <stop
         id="stop13-2"
         style="stop-color:#ffffff;stop-opacity:1"
         offset="0.90100002" />
      <stop
         id="stop15-4"
         style="stop-color:#000000;stop-opacity:1"
         offset="0.95499998" />
      <stop
         id="stop17-3"
         style="stop-color:#000000;stop-opacity:1"
         offset="1" />
    </linearGradient>
  </defs>
  <path
     d="M 50.25,0 C 22.427,0 0,22.395 0,50.22 L 0,461.78 C 0,489.603 22.427,512 50.25,512 l 411.53,0 C 489.603,512 512,489.605 512,461.78 L 512,50.22 C 512,22.397 489.605,0 461.78,0 L 50.25,0"
     id="path19"
     style="fill:#6997c7;fill-rule:evenodd" />
  <path
     d="M 50.25,0 C 22.427,0 0,22.395 0,50.22 L 0,461.78 C 0,489.603 22.427,512 50.25,512 l 411.53,0 C 489.603,512 512,489.605 512,461.78 L 512,50.22 C 512,22.397 489.605,0 461.78,0 L 50.25,0"
     id="path1333"
     style="opacity:0.05;fill:url(#0-4);fill-rule:evenodd" />
  <g
     id="g1655"
     style="fill-rule:evenodd">
    <path
       d="m 216.59,104.06 c -31.342,0 -56.781,25.408 -56.781,56.75 0,15.613 6.293,29.699 16.5,39.906 l 22.531,22.531 c -2.524,-0.885 -5.222,-1.611 -8.156,-2.125 -2.195,-0.237 -4.392,-0.283 -6.594,-0.219 -6.604,0.191 -13.12,1.843 -18.625,4.719 -6.06,4.391 -10.891,11.05 -14.625,18.75 l -90.75,-90.75 c -4.126,-4.126 -7.771,-5.905 -10.75,-5.03 -0.963,0.282 -2.026,1.027 -2.844,1.875 -13.09,13.567 -2,95.74 24.75,183.75 8.521,28.02 17.507,52.777 26.375,73.72 l 104.06,104.06 260.09,0 c 27.823,0 50.22,-22.394 50.22,-50.22 l 0,-247.72 -73.969,-73.969 -28.03,-16 -45.906,104.06 -107.59,-107.59 c -10.207,-10.207 -24.293,-16.5 -39.906,-16.5"
       id="path1657"
       style="opacity:0.25" />
    <path
       d="m 216.58,104.05 c -31.342,0 -56.771,25.429 -56.771,56.771 0,31.342 25.429,56.54 56.771,56.54 31.342,0 56.54,-25.19 56.54,-56.54 0,-31.342 -25.19,-56.771 -56.54,-56.771 m 193.41,20.02 -65.25,147.94 25.913,10.837 28.27,-59.828 0,73.971 -9.894,0 0,14.37 -8.481,0 0,-15.782 -29.443,0 0,-2.828 -39.575,-17.904 -70.67,-3.769 c -2.809,-6.164 -6.215,-12.276 -10.837,-18.14 -4.449,-5.788 -8.857,-11.236 -12.01,-16.726 -6.823,-7.486 -15.184,-12.947 -27.327,-15.08 -2.195,-0.237 -4.394,-0.299 -6.596,-0.234 -6.604,0.191 -13.1,1.837 -18.61,4.712 -8.499,6.16 -14.575,16.826 -18.61,28.504 -3.73,11.446 -5.733,23.774 -7.538,35.34 -1.928,17.338 -1.143,34.11 3.534,52.29 5.444,22.677 14.07,45.15 21.2,66.2 l 101.29,0 c -1.291,-14.369 -3.965,-42.15 -4.947,-48.53 -1.262,-8.197 -6.201,-36.648 -6.835,-41.693 -0.9,-4.466 -1.717,-8.713 -2.591,-12.956 l 96.82,0 0,6.596 -64.31,0 0,22.615 36.984,0 0,73.971 24.26,0 0,-73.971 126.27,0 0,-22.615 -29.21,0 0,-14.37 -25.21,0 0,-111.43 21.438,-45.47 -28.03,-16.02 m -360.66,24.493 c -0.963,0.282 -2.01,1.037 -2.828,1.884 -13.09,13.567 -2.02,95.73 24.735,183.74 8.521,28.02 17.516,52.791 26.384,73.73 l 48.771,0 c -4.306,-33.704 -13.793,-77.43 -27.56,-122.73 -25.09,-82.51 -55.06,-140.86 -69.49,-136.63"
       id="path1659"
       style="fill:#ffffff" />
  </g>
</svg>
