<?xml version="1.0" encoding="UTF-8" standalone="no"?>
<svg
   xmlns:dc="http://purl.org/dc/elements/1.1/"
   xmlns:cc="http://creativecommons.org/ns#"
   xmlns:rdf="http://www.w3.org/1999/02/22-rdf-syntax-ns#"
   xmlns:svg="http://www.w3.org/2000/svg"
   xmlns="http://www.w3.org/2000/svg"
   viewBox="0 0 512 512"
   id="svg2"
   version="1.1">
  <metadata
     id="metadata6735">
    <rdf:RDF>
      <cc:Work
         rdf:about="">
        <dc:format>image/svg+xml</dc:format>
        <dc:type
           rdf:resource="http://purl.org/dc/dcmitype/StillImage" />
      </cc:Work>
    </rdf:RDF>
  </metadata>
  <defs
     id="defs4">
    <linearGradient
       y2="512.53998"
       x2="0"
       y1="0.107"
       gradientUnits="userSpaceOnUse"
       id="0-3">
      <stop
         style="stop-color:#6a6a6a"
         id="stop7-4" />
      <stop
         offset=".47"
         id="stop9-7" />
      <stop
         offset=".494"
         style="stop-color:#fff"
         id="stop11-3" />
      <stop
         offset=".901"
         style="stop-color:#fff"
         id="stop13-9" />
      <stop
         offset=".955"
         id="stop15-6" />
      <stop
         offset="1"
         id="stop17-6" />
    </linearGradient>
  </defs>
  <path
     d="M 50.25,0 C 22.427,0 0,22.395 0,50.22 L 0,461.78 C 0,489.603 22.427,512 50.25,512 l 411.53,0 C 489.603,512 512,489.605 512,461.78 L 512,50.22 C 512,22.397 489.605,0 461.78,0 L 50.25,0"
     style="fill:#6997c7;fill-rule:evenodd"
     id="path503" />
  <path
     d="M 50.25,0 C 22.427,0 0,22.395 0,50.22 L 0,461.78 C 0,489.603 22.427,512 50.25,512 l 411.53,0 C 489.603,512 512,489.605 512,461.78 L 512,50.22 C 512,22.397 489.605,0 461.78,0 L 50.25,0"
     style="opacity:0.05;fill:url(#0-3);fill-rule:evenodd"
     id="path1817" />
  <g
     style="color:#000000"
     id="g6727">
    <path
       d="m 189.44,64.23 c -35.99,1.275 -59.32,3.134 -77.63,10.168 -18.305,7.03 -30.17,20.18 -39.91,38.746 l 28.914,28.914 c -0.016,0.013 -0.033,0.028 -0.049,0.041 l -28.91,-28.91 -29.654,57.34 16.15,16.15 -7.508,-0.564 92.28,92.28 c -9.383,32.52 -23.658,67.903 -47.49,109.69 l 53.918,53.918 c -0.423,0.24 -0.851,0.467 -1.279,0.691 l -53.27,-53.27 c -5.03,12.659 -5.551,24.649 -1.926,34.574 1.829,5.02 4.701,9.375 8.254,12.928 l 75.07,75.07 285.38,0 c 27.823,0 50.22,-22.396 50.22,-50.22 l 0,-345.82 -41,-41 -10.705,-10.707 -270.47,0 64.49,64.49 -0.371,0 -64.5,-64.5"
       style="opacity:0.25"
       id="path6729" />
    <path
       d="m 189.44,64.23 c -35.99,1.275 -59.32,3.133 -77.63,10.168 -18.305,7.03 -30.17,20.18 -39.91,38.747 a 10.701434,10.701434 0 0 0 -0.04486,0.0447 l -29.654,57.34 a 10.701434,10.701434 0 0 0 8.645119,15.58806 l 10.124,0.762 a 10.701434,10.701434 0 0 0 10.212875,-5.50957 c 10.41,-19.09 20.529,-32.514 31.712996,-40.941 11.11,-8.375 23.402,-12.445 40.762,-12.498 l 0.313,0 25.712,0.671 c -14.636,84.69 -11.741,150.25 -74.039996,259.49 a 10.701434,10.701434 0 0 0 -0.627113,1.34382 c -5.03,12.659 -5.552,24.648 -1.927,34.573 3.618,9.932 11.323999,17.263 20.291999,20.919 17.934,7.309 41.19,0.508 53.797,-20.246 a 10.701434,10.701434 0 0 0 0.49272,-0.94066 c 26.19,-54.903 39.964,-159.14 48.47,-295 l 87.26,0 -14.244,223.03 a 10.701434,10.701434 0 0 0 0,0.44791 c -0.707,33.06 7.356,57.984 22.08,74.23 14.727,16.23 35.84,22.629 56.799,19.973 41.918,-5.303 84.81,-43.655 101.46,-105.17 a 10.701434,10.701434 0 0 0 -10.34726,-13.52758 l -10.08,0 a 10.701434,10.701434 0 0 0 -9.49615,5.73356 c -14.763,28.03 -29.07,44.21 -40.36,51.38 -11.291,7.168 -18.301,6.602 -25.621,2.106 -7.32,-4.498 -14.884,-15.05 -19.8,-30.19 -4.912,-15.13 -7.237,-34.483 -5.824,-55.18 10e-4,-0.015 -0.002,-0.029 0,-0.045 l 12.498,-172.14 99.97,-1.433 a 10.701434,10.701434 0 0 0 10.57121,-10.70561 l 0,-42.29 A 10.701434,10.701434 0 0 0 460.30093,64.255046 l -270.47,0 a 10.701434,10.701434 0 0 0 -0.40313,0"
       style="fill:#ffffff"
       id="path6731" />
  </g>
</svg>
