<?xml version="1.0" encoding="UTF-8" standalone="no"?>
<svg
   xmlns:dc="http://purl.org/dc/elements/1.1/"
   xmlns:cc="http://creativecommons.org/ns#"
   xmlns:rdf="http://www.w3.org/1999/02/22-rdf-syntax-ns#"
   xmlns:svg="http://www.w3.org/2000/svg"
   xmlns="http://www.w3.org/2000/svg"
   viewBox="0 0 512 512"
   id="svg2"
   version="1.1">
  <metadata
     id="metadata4173">
    <rdf:RDF>
      <cc:Work
         rdf:about="">
        <dc:format>image/svg+xml</dc:format>
        <dc:type
           rdf:resource="http://purl.org/dc/dcmitype/StillImage" />
      </cc:Work>
    </rdf:RDF>
  </metadata>
  <defs
     id="defs4">
    <linearGradient
       gradientTransform="translate(-0.002,-5e-4)"
       y1="0.107"
       x2="0"
       y2="512.53998"
       id="0-8"
       gradientUnits="userSpaceOnUse">
      <stop
         style="stop-color:#6a6a6a"
         id="stop7-3" />
      <stop
         offset=".47"
         id="stop9-6" />
      <stop
         offset=".494"
         style="stop-color:#fff"
         id="stop11-0" />
      <stop
         offset=".901"
         style="stop-color:#fff"
         id="stop13-8" />
      <stop
         offset=".955"
         id="stop15-7" />
      <stop
         offset="1"
         id="stop17-1" />
    </linearGradient>
  </defs>
  <path
     d="m 50.248,-5e-4 c -27.823,0 -50.25,22.395 -50.25,50.22 l 0,411.56 c 0,27.823 22.427,50.22 50.25,50.22 l 411.53,0 c 27.823,0 50.22,-22.395 50.22,-50.22 l 0,-411.56 c 0,-27.823 -22.395,-50.22 -50.22,-50.22 l -411.53,0"
     style="fill:#6997c7;fill-rule:evenodd"
     id="path19" />
  <path
     d="m 50.248,-5e-4 c -27.823,0 -50.25,22.395 -50.25,50.22 l 0,411.56 c 0,27.823 22.427,50.22 50.25,50.22 l 411.53,0 c 27.823,0 50.22,-22.395 50.22,-50.22 l 0,-411.56 c 0,-27.823 -22.395,-50.22 -50.22,-50.22 l -411.53,0"
     style="opacity:0.05;fill:url(#0-8);fill-rule:evenodd"
     id="path1333" />
  <path
     d="m 66.816,66.8435 c -14.244,0 -25.818,11.526 -25.818,25.77 l 0,39.447 22.844,22.844 -22.795,0 0,264.43 c 0,7.325 3.063,13.944 7.975,18.646 l 74.02,74.02 338.74,0 c 27.823,0 50.22,-22.396 50.22,-50.22 l 0,-338.85 -48.541,-48.541 c -4.661,-4.661 -11.1,-7.541 -18.229,-7.541 l -378.36,0 -0.051,0"
     style="opacity:0.25"
     id="path4167" />
  <path
     d="m 66.817,66.8435 c -14.244,0 -25.819,11.526 -25.819,25.769 l 0,39.447 430,0 0,-39.447 c 0,-14.248 -11.521,-25.769 -25.769,-25.769 l -378.36,0 -0.049,0 m 266.56,17.15 c 9.48,0 17.246,7.761 17.246,17.246 0,9.485 -7.766,17.15 -17.246,17.15 -9.48,0 -17.15,-7.662 -17.15,-17.15 0,-9.485 7.665,-17.246 17.15,-17.246 m 47.33,0 c 9.48,0 17.196,7.761 17.196,17.246 0,9.485 -7.716,17.15 -17.196,17.15 -9.48,0 -17.15,-7.662 -17.15,-17.15 0,-9.485 7.665,-17.246 17.15,-17.246 m 47.28,0 c 9.48,0 17.196,7.761 17.196,17.246 0,9.485 -7.716,17.15 -17.196,17.15 -9.48,0 -17.196,-7.662 -17.196,-17.15 0,-9.485 7.716,-17.246 17.196,-17.246 m -386.94,70.915 0,264.43 c 0,14.244 11.575,25.819 25.819,25.819 l 378.31,0 c 14.248,0 25.769,-11.58 25.769,-25.819 l 0,-264.43 -429.9,0 m 210.86,44.799 5.947,0 22.845,0 10.209,0 -2.726,9.812 -48.863,178.35 -1.536,5.749 -5.947,0 -22.845,0 -10.209,0 2.726,-9.812 48.863,-178.35 1.536,-5.749 m -62.986,37.22 0,12.835 0,20.962 0,4.857 -4.361,2.131 -41.03,20.22 40.735,17.84 4.658,2.032 0,5.104 0,20.863 0,12.141 -11.05,-5.104 -83.06,-38.21 -4.51,-2.081 0,-4.956 0,-12.488 0,-4.708 4.163,-2.18 83.06,-43.31 11.398,-5.947 m 134.15,0 11.398,5.947 83.06,43.31 4.163,2.18 0,4.708 0,12.488 0,4.956 -4.51,2.081 -83.06,38.21 -11.05,5.104 0,-12.141 0,-20.863 0,-5.104 4.658,-2.032 40.735,-17.84 -41.03,-20.22 -4.361,-2.131 0,-4.857 0,-20.962 0,-12.835"
     style="fill:#ffffff"
     id="path4169" />
</svg>
