<?xml version="1.0" encoding="UTF-8" standalone="no"?>
<svg
   xmlns:dc="http://purl.org/dc/elements/1.1/"
   xmlns:cc="http://creativecommons.org/ns#"
   xmlns:rdf="http://www.w3.org/1999/02/22-rdf-syntax-ns#"
   xmlns:svg="http://www.w3.org/2000/svg"
   xmlns="http://www.w3.org/2000/svg"
   version="1.1"
   width="100%"
   height="100%"
   viewBox="0 0 512 512"
   id="svg2">
  <metadata
     id="metadata6029">
    <rdf:RDF>
      <cc:Work
         rdf:about="">
        <dc:format>image/svg+xml</dc:format>
        <dc:type
           rdf:resource="http://purl.org/dc/dcmitype/StillImage" />
      </cc:Work>
    </rdf:RDF>
  </metadata>
  <defs
     id="defs4">
    <linearGradient
       gradientTransform="translate(-0.0025)"
       y1="0.107"
       x2="0"
       y2="512.53998"
       id="0-3"
       gradientUnits="userSpaceOnUse">
      <stop
         id="stop7-3"
         style="stop-color:#6a6a6a;stop-opacity:1"
         offset="0" />
      <stop
         id="stop9-5"
         style="stop-color:#000000;stop-opacity:1"
         offset="0.47" />
      <stop
         id="stop11-0"
         style="stop-color:#ffffff;stop-opacity:1"
         offset="0.49399999" />
      <stop
         id="stop13-3"
         style="stop-color:#ffffff;stop-opacity:1"
         offset="0.90100002" />
      <stop
         id="stop15-7"
         style="stop-color:#000000;stop-opacity:1"
         offset="0.95499998" />
      <stop
         id="stop17-4"
         style="stop-color:#000000;stop-opacity:1"
         offset="1" />
    </linearGradient>
  </defs>
  <path
     d="m 50.2475,0 c -27.823,0 -50.25,22.395 -50.25,50.22 l 0,411.56 c 0,27.823 22.427,50.22 50.25,50.22 l 411.53,0 c 27.823,0 50.22,-22.395 50.22,-50.22 l 0,-411.56 C 511.9975,22.397 489.6025,0 461.7775,0 l -411.53,0"
     id="path19"
     style="fill:#6997c7;fill-rule:evenodd" />
  <path
     d="m 50.2475,0 c -27.823,0 -50.25,22.395 -50.25,50.22 l 0,411.56 c 0,27.823 22.427,50.22 50.25,50.22 l 411.53,0 c 27.823,0 50.22,-22.395 50.22,-50.22 l 0,-411.56 C 511.9975,22.397 489.6025,0 461.7775,0 l -411.53,0"
     id="path1333"
     style="opacity:0.05;fill:url(#0-3);fill-rule:evenodd" />
  <path
     d="m 61.4075,94.75 282.84,282.84 45.31,39.656 -17.03,0 -116.53,-116.53 -52.12,-45.594 -1.188,1.344 -19.03,-19.03 -8.406,9.438 -134.25,-134.25 0,284.47 19.03,19.03 -1.031,1.125 94.75,94.75 308.03,0 c 27.823,0 50.22,-22.394 50.22,-50.22 l 0,-308.16 -41,-41 0,2.531 -20.406,-20.406 -389.19,0 m 307.16,282.84 48.969,0 13.531,15.16 0,24.5 -22.844,0 -39.656,-39.656 m 62,0 2.375,0 c -0.281,0.542 -0.5,1.103 -0.719,1.656 l -1.656,-1.656"
     id="path6023"
     style="opacity:0.25" />
  <path
     d="m 308.0975,255.13 144.88,162.12 -393.97,0 144.88,-162.12 52.11,45.591 m 194.6,-205.97 -389.18,0 194.6,170.28 m 72.33,-27.583 142.67,159.65 0,-284.49 m -430,0 0,284.49 142.66,-159.67"
     id="path6025"
     style="fill:#ffffff" />
</svg>
