<?xml version="1.0" encoding="UTF-8" standalone="no"?>
<svg
   xmlns:dc="http://purl.org/dc/elements/1.1/"
   xmlns:cc="http://creativecommons.org/ns#"
   xmlns:rdf="http://www.w3.org/1999/02/22-rdf-syntax-ns#"
   xmlns:svg="http://www.w3.org/2000/svg"
   xmlns="http://www.w3.org/2000/svg"
   viewBox="0 0 512 512"
   id="svg2"
   version="1.1">
  <metadata
     id="metadata6783">
    <rdf:RDF>
      <cc:Work
         rdf:about="">
        <dc:format>image/svg+xml</dc:format>
        <dc:type
           rdf:resource="http://purl.org/dc/dcmitype/StillImage" />
      </cc:Work>
    </rdf:RDF>
  </metadata>
  <defs
     id="defs4">
    <linearGradient
       id="0-5"
       gradientUnits="userSpaceOnUse"
       y1="0.107"
       x2="0"
       y2="512.53998">
      <stop
         style="stop-color:#6a6a6a"
         id="stop7-8" />
      <stop
         offset=".47"
         id="stop9-7" />
      <stop
         offset=".494"
         style="stop-color:#fff"
         id="stop11-4" />
      <stop
         offset=".901"
         style="stop-color:#fff"
         id="stop13-3" />
      <stop
         offset=".955"
         id="stop15-0" />
      <stop
         offset="1"
         id="stop17-4" />
    </linearGradient>
  </defs>
  <g
     transform="translate(-0.003,-0.002)"
     style="fill-rule:evenodd"
     id="g19">
    <path
       d="M 50.25,0 C 22.427,0 0,22.395 0,50.22 L 0,461.78 C 0,489.603 22.427,512 50.25,512 l 411.53,0 C 489.603,512 512,489.605 512,461.78 L 512,50.22 C 512,22.397 489.605,0 461.78,0 L 50.25,0"
       style="fill:#d23638"
       id="path21" />
    <path
       d="M 50.25,0 C 22.427,0 0,22.395 0,50.22 L 0,461.78 C 0,489.603 22.427,512 50.25,512 l 411.53,0 C 489.603,512 512,489.605 512,461.78 L 512,50.22 C 512,22.397 489.605,0 461.78,0 L 50.25,0"
       style="opacity:0.05;fill:url(#0-5)"
       id="path23" />
  </g>
  <path
     d="m 272.467,40.873 c -45.29,0 -85.59,9.988 -120.87,30 -35.28,19.837 -62.6,47.51 -81.906,82.969 -19.13,35.461 -28.688,74.859 -28.688,118.22 0,60.46 17.404,108.1 52.23,142.93 l 97.01,97.01 271.54,0 c 27.823,0 50.22,-22.396 50.22,-50.22 l 0,-272.86 -93.22,-93.22 C 406.493,83.412 392.213,73.036 375.945,64.572 345.575,48.773 311.096,40.885 272.475,40.884"
     style="opacity:0.25"
     id="path6777" />
  <path
     d="m 272.467,40.873 c -45.29,0 -85.59,9.988 -120.87,30 -35.28,19.837 -62.6,47.51 -81.906,82.969 -19.13,35.461 -28.688,74.859 -28.688,118.22 0,62.49 18.597,111.3 55.813,146.41 37.39,35.11 89.45,52.656 156.16,52.656 46.17,0 87.88,-7.888 125.09,-23.688 l 0,-50.813 c -20.19,7.548 -41.53,13.518 -64,17.906 -22.47,4.389 -43.527,6.563 -63.19,6.563 -49.15,0 -86.74,-12.882 -112.72,-38.688 -25.805,-25.981 -38.688,-63.31 -38.688,-111.94 0,-35.811 6.913,-67.4 20.781,-94.78 13.868,-27.385 33.98,-48.44 60.31,-63.19 26.332,-14.746 57.12,-22.12 92.41,-22.12 27.56,0 51.977,5.789 73.22,17.375 21.416,11.411 37.914,28.01 49.5,49.781 11.761,21.592 17.656,46.519 17.656,74.78 0,26.508 -3.361,47.999 -10.03,64.5 -6.671,16.326 -15.609,24.5 -26.844,24.5 -13.342,0 -20,-12.298 -20,-36.875 l 6.03,-128.75 c -11.762,-4.213 -26.924,-7.648 -45.531,-10.281 -18.608,-2.808 -35.03,-4.218 -49.25,-4.219 -38.445,0 -69.34,11.429 -92.69,34.25 -23.17,22.821 -34.75,52.56 -34.75,89.25 0,32.3 8.938,57.842 26.844,76.63 17.906,18.608 42.4,27.906 73.47,27.906 15.1,0 28.805,-2.969 41.09,-8.938 12.288,-6.144 22.71,-14.498 31.31,-25.03 l 4.219,0 c 4.213,10.182 11.337,18.43 21.344,24.75 10.181,6.144 21.759,9.219 34.75,9.219 19.485,0 36.597,-5.863 51.34,-17.625 14.745,-11.762 26.14,-28.18 34.22,-49.25 8.07,-21.07 12.12,-44.25 12.13,-69.53 0,-38.09 -8.249,-71.7 -24.75,-100.84 -16.502,-29.14 -39.943,-51.607 -70.31,-67.41 -30.37,-15.799 -64.849,-23.687 -103.47,-23.688 m -1.594,148.25 c 12.11,0 22.21,0.87 30.28,2.625 l -3.406,58.19 c -1.756,25.279 -6.855,43.546 -15.281,54.781 -8.251,11.06 -20.19,16.594 -35.813,16.594 -30.19,0 -45.28,-18.522 -45.28,-55.56 0,-23.699 6.04,-42.4 18.16,-56.09 12.288,-13.692 29.4,-20.531 51.34,-20.531"
     style="fill:#ffffff"
     id="path6779" />
</svg>
