<?xml version="1.0" encoding="UTF-8" standalone="no"?>
<svg
   xmlns:dc="http://purl.org/dc/elements/1.1/"
   xmlns:cc="http://creativecommons.org/ns#"
   xmlns:rdf="http://www.w3.org/1999/02/22-rdf-syntax-ns#"
   xmlns:svg="http://www.w3.org/2000/svg"
   xmlns="http://www.w3.org/2000/svg"
   version="1.1"
   width="100%"
   height="100%"
   viewBox="0 0 512 512"
   id="svg2">
  <metadata
     id="metadata7795">
    <rdf:RDF>
      <cc:Work
         rdf:about="">
        <dc:format>image/svg+xml</dc:format>
        <dc:type
           rdf:resource="http://purl.org/dc/dcmitype/StillImage" />
      </cc:Work>
    </rdf:RDF>
  </metadata>
  <defs
     id="defs4">
    <linearGradient
       y1="0.107"
       x2="0"
       y2="512.53998"
       id="0-5"
       gradientUnits="userSpaceOnUse">
      <stop
         id="stop7-7"
         style="stop-color:#6a6a6a;stop-opacity:1"
         offset="0" />
      <stop
         id="stop9-2"
         style="stop-color:#000000;stop-opacity:1"
         offset="0.47" />
      <stop
         id="stop11-3"
         style="stop-color:#ffffff;stop-opacity:1"
         offset="0.49399999" />
      <stop
         id="stop13-4"
         style="stop-color:#ffffff;stop-opacity:1"
         offset="0.90100002" />
      <stop
         id="stop15-4"
         style="stop-color:#000000;stop-opacity:1"
         offset="0.95499998" />
      <stop
         id="stop17-9"
         style="stop-color:#000000;stop-opacity:1"
         offset="1" />
    </linearGradient>
  </defs>
  <path
     d="M 50.25,0 C 22.427,0 0,22.395 0,50.22 L 0,461.78 C 0,489.603 22.427,512 50.25,512 l 411.53,0 C 489.603,512 512,489.605 512,461.78 L 512,50.22 C 512,22.397 489.605,0 461.78,0 L 50.25,0"
     id="path19"
     style="fill:#6997c7;fill-rule:evenodd" />
  <path
     d="M 50.25,0 C 22.427,0 0,22.395 0,50.22 L 0,461.78 C 0,489.603 22.427,512 50.25,512 l 411.53,0 C 489.603,512 512,489.605 512,461.78 L 512,50.22 C 512,22.397 489.605,0 461.78,0 L 50.25,0"
     id="path1333"
     style="opacity:0.05;fill:url(#0-5);fill-rule:evenodd" />
  <path
     style="color:#000000;opacity:0.25"
     id="path7789"
     d="m 134.53,74.69 0,164.75 -117.19,0 c -0.507,7.287 -0.75,14.655 -0.75,22.09 0,3.706 0.062,7.361 0.188,11.03 l 117.72,117.72 0,47.03 74.69,74.69 252.59,0 c 27.823,0 50.22,-22.394 50.22,-50.22 l 0,-252.56 -134.53,-134.53 -242.94,0" />
  <path
     style="color:#000000;display:block;fill:#ffffff"
     id="path7791"
     d="m 134.52,74.69 0,164.75 -117.17,0 c -0.507,7.287 -0.76,14.635 -0.76,22.07 0,3.706 0.074,7.367 0.2,11.04 l 117.72,0 0,164.75 242.97,0 0,-164.75 117.72,0 c 0.127,-3.67 0.2,-7.331 0.2,-11.04 0,-7.439 -0.253,-14.786 -0.76,-22.07 l -117.17,0 0,-164.75 -242.96,0" />
</svg>
