<?xml version="1.0" encoding="UTF-8" standalone="no"?>
<svg
   xmlns:dc="http://purl.org/dc/elements/1.1/"
   xmlns:cc="http://creativecommons.org/ns#"
   xmlns:rdf="http://www.w3.org/1999/02/22-rdf-syntax-ns#"
   xmlns:svg="http://www.w3.org/2000/svg"
   xmlns="http://www.w3.org/2000/svg"
   viewBox="0 0 512 512"
   id="svg2"
   version="1.1">
  <metadata
     id="metadata7559">
    <rdf:RDF>
      <cc:Work
         rdf:about="">
        <dc:format>image/svg+xml</dc:format>
        <dc:type
           rdf:resource="http://purl.org/dc/dcmitype/StillImage" />
      </cc:Work>
    </rdf:RDF>
  </metadata>
  <defs
     id="defs4">
    <linearGradient
       gradientTransform="translate(-10e-4,-0.0065)"
       y1="0.107"
       x2="0"
       y2="512.53998"
       id="0-5"
       gradientUnits="userSpaceOnUse">
      <stop
         style="stop-color:#6a6a6a"
         id="stop7-7" />
      <stop
         offset=".47"
         id="stop9-2" />
      <stop
         offset=".494"
         style="stop-color:#fff"
         id="stop11-8" />
      <stop
         offset=".901"
         style="stop-color:#fff"
         id="stop13-1" />
      <stop
         offset=".955"
         id="stop15-8" />
      <stop
         offset="1"
         id="stop17-3" />
    </linearGradient>
  </defs>
  <path
     d="m 50.249,-0.0065 c -27.823,0 -50.25,22.395 -50.25,50.22 l 0,411.56 c 0,27.823 22.427,50.22 50.25,50.22 l 411.53,0 c 27.823,0 50.22,-22.395 50.22,-50.22 l 0,-411.56 c 0,-27.823 -22.395,-50.22 -50.22,-50.22 l -411.53,0"
     style="fill:#6997c7;fill-rule:evenodd"
     id="path19" />
  <path
     d="m 50.249,-0.0065 c -27.823,0 -50.25,22.395 -50.25,50.22 l 0,411.56 c 0,27.823 22.427,50.22 50.25,50.22 l 411.53,0 c 27.823,0 50.22,-22.395 50.22,-50.22 l 0,-411.56 c 0,-27.823 -22.395,-50.22 -50.22,-50.22 l -411.53,0"
     style="opacity:0.05;fill:url(#0-5);fill-rule:evenodd"
     id="path1333" />
  <path
     d="m 255.999,40.9935 c -74.63,0 -135.13,19.991 -135.13,44.652 l 0.012,0.012 c 0.004,4.896 2.39,9.606 6.797,14.02 l 0.119,0.117 c -0.04,-0.04 -0.087,-0.077 -0.127,-0.117 l 29.863,29.863 c -4.634,-1.638 -8.894,-3.392 -12.746,-5.246 l -23.598,-23.598 c -2.407,4.332 -3.832,8.864 -3.832,13.502 l 0.002,0.002 0,42.19 c 0,8.192 3.929,15.999 11.03,23.1 l 35.484,35.484 c -9.604,-3.656 -17.995,-7.876 -24.908,-12.537 l -17.387,-17.387 c -2.65,4.508 -4.219,9.304 -4.219,14.168 l 98.66,98.66 c -0.001,0 -0.003,0 -0.004,0 l -98.65,-98.65 0,42.15 c 0,8.196 3.924,16 11.01,23.09 l 38.867,38.867 c -11.05,-3.938 -20.624,-8.6 -28.346,-13.813 l -17.311,-17.311 c 0.003,0.005 0.007,0.01 0.01,0.016 l -0.01,-0.01 c -2.65,4.508 -4.219,9.202 -4.219,14.1 l -0.002,0 0,42.23 c 0,8.177 3.914,15.962 10.988,23.04 l 101.95,101.95 -174.54,0 c 0.428,0.434 0.858,0.868 1.289,1.299 l 57.17,57.17 347.56,0 c 27.823,0 50.22,-22.396 50.22,-50.22 l 0,-262.49 -127.67,-127.67 c 0.068,0.068 0.125,0.137 0.191,0.205 l -0.193,-0.193 c -17.793,-17.793 -68.51,-30.626 -128.33,-30.627 l -0.004,-0.004"
     style="opacity:0.25"
     id="path7553" />
  <path
     d="m 255.999,40.9935 c -74.63,0 -135.13,19.992 -135.13,44.653 0,24.668 60.48,44.653 135.13,44.653 74.63,0 135.13,-19.992 135.13,-44.653 0,-24.668 -60.48,-44.653 -135.13,-44.653 m -134.81,59.7 c -2.407,4.332 -3.833,8.863 -3.833,13.501 l 0,42.19 c 0,32.577 62.13,59.07 138.65,59.07 76.58,0 138.67,-26.505 138.67,-59.07 l 0,-42.19 c 0,-4.637 -1.421,-9.171 -3.798,-13.501 -2.65,23.866 -61.955,42.966 -134.88,42.966 -72.921,0 -132.12,-19.1 -134.81,-42.966 m 0.386,84.35 c -2.65,4.508 -4.219,9.305 -4.219,14.169 l 0,42.15 c 0,32.615 62.13,59 138.65,59 76.58,0 138.67,-26.402 138.67,-59 l 0,-42.15 c 0,-4.865 -1.601,-9.661 -4.219,-14.169 -14.885,25.794 -69.32,44.899 -134.46,44.899 -65.08,0 -119.55,-19.12 -134.41,-44.899 m 0,87.16 c -2.65,4.508 -4.219,9.202 -4.219,14.1 l 0,42.23 c 0,32.577 62.13,58.923 138.65,58.923 76.58,0 138.67,-26.363 138.67,-58.923 l 0,-42.23 c 0,-4.898 -1.601,-9.59 -4.219,-14.1 -14.885,25.744 -69.32,44.829 -134.46,44.829 -65.08,0 -119.55,-19.08 -134.41,-44.829 m 124.95,126.5 0,54.815 -190.78,0 c 6.03,6.113 12.349,11.931 18.917,17.474 l 362.65,0 c 6.567,-5.544 12.885,-11.361 18.917,-17.474 l -190.74,0 0,-54.815 -18.951,0"
     style="fill:#ffffff"
     id="path7555" />
</svg>
