<?xml version="1.0" encoding="UTF-8" standalone="no"?>
<!-- Created with Inkscape (http://www.inkscape.org/) -->
<svg id="svg2" xmlns:rdf="http://www.w3.org/1999/02/22-rdf-syntax-ns#" xmlns="http://www.w3.org/2000/svg" height="100%" width="100%" version="1.1" xmlns:cc="http://creativecommons.org/ns#" viewBox="0 0 512 512" xmlns:dc="http://purl.org/dc/elements/1.1/">
 <metadata id="metadata750">
  <rdf:RDF>
   <cc:Work rdf:about="">
    <dc:format>image/svg+xml</dc:format>
    <dc:type rdf:resource="http://purl.org/dc/dcmitype/StillImage"/>
   </cc:Work>
  </rdf:RDF>
 </metadata>
 <text id="text4" style="word-spacing:0;letter-spacing:0" font-size="129.23px" line-height="125%" y="231.36" x="729.64001" font-family="Gentium Book Basic">
  <tspan id="tspan6" y="231.36" x="729.64001"/>
 </text>
 <text id="text8" style="text-anchor:middle" transform="scale(4.0128 .2492)" font-size="46.954px" y="579.25" x="378.91" font-family="Arial"/>
 <text id="text10" style="word-spacing:0;letter-spacing:0" font-size="129.23px" line-height="125%" y="151.36" x="1310.91" font-family="Gentium Book Basic">
  <tspan id="tspan12" y="151.36" x="1310.91"/>
 </text>
 <text id="text14" style="text-anchor:middle" transform="scale(4.0128 .2492)" font-size="46.954px" y="258.22" x="523.76001" font-family="Arial"/>
 <text id="text16" style="word-spacing:0;letter-spacing:0" font-size="129.23px" line-height="125%" y="-29.900999" x="239.33" font-family="Gentium Book Basic">
  <tspan id="tspan18" y="-29.900999" x="239.33"/>
 </text>
 <text id="text20" style="text-anchor:middle" transform="scale(4.0128 .2492)" font-size="46.954px" y="-469.14001" x="256.72" font-family="Arial"/>
 <text id="text22" style="word-spacing:0;letter-spacing:0" font-size="129.23px" line-height="125%" y="-246.37" x="1337.38" font-family="Gentium Book Basic">
  <tspan id="tspan24" y="-246.37" x="1337.38"/>
 </text>
 <text id="text26" style="text-anchor:middle" transform="scale(4.0128 .2492)" font-size="46.954px" y="-1337.8101" x="530.35999" font-family="Arial"/>
 <text id="text28" style="word-spacing:0;letter-spacing:0" font-size="129.23px" line-height="125%" y="-326.38" x="1918.65" font-family="Gentium Book Basic">
  <tspan id="tspan30" y="-326.38" x="1918.65"/>
 </text>
 <text id="text32" style="text-anchor:middle" transform="scale(4.0128 .2492)" font-size="46.954px" y="-1658.85" x="675.21002" font-family="Arial"/>
 <text id="text34" style="word-spacing:0;letter-spacing:0" font-size="129.23px" line-height="125%" y="-798.78003" x="1529.53" font-family="Gentium Book Basic">
  <tspan id="tspan36" y="-798.78003" x="1529.53"/>
 </text>
 <text id="text38" style="text-anchor:middle" transform="scale(4.0128 .2492)" font-size="46.954px" y="-3554.51" x="578.23999" font-family="Arial"/>
 <text id="text40" style="word-spacing:0;letter-spacing:0" font-size="129.23px" line-height="125%" y="-878.78003" x="2110.79" font-family="Gentium Book Basic">
  <tspan id="tspan42" y="-878.78003" x="2110.79"/>
 </text>
 <text id="text44" style="text-anchor:middle" transform="scale(4.0128 .2492)" font-size="46.954px" y="-3875.54" x="723.09003" font-family="Arial"/>
 <g id="g46" style="word-spacing:0;letter-spacing:0" font-family="Gentium Book Basic" line-height="125%">
  <text id="text48" y="535.94" x="277.98999" font-size="208.33px">
   <tspan id="tspan50" y="535.94" x="277.98999"/>
  </text>
  <text id="text52" y="-11.341" x="-307.17999" font-size="200px">
   <tspan id="tspan54" y="-11.341" x="-307.17999"/>
  </text>
 </g>
 <text id="text56" style="text-anchor:middle" transform="scale(4.0128 .2492)" font-size="72.67px" y="-585.88" x="228.47" font-family="Arial"/>
 <text id="text58" style="word-spacing:0;letter-spacing:0" font-size="200px" line-height="125%" y="41.801998" x="438.20001" font-family="Gentium Book Basic">
  <tspan id="tspan60" y="41.801998" x="438.20001"/>
 </text>
 <text id="text62" style="text-anchor:middle" transform="scale(4.0128 .2492)" font-size="72.67px" y="-372.63" x="414.22" font-family="Arial"/>
 <text id="text64" style="word-spacing:0;letter-spacing:0" font-size="200px" line-height="125%" y="-82.019997" x="1337.8101" font-family="Gentium Book Basic">
  <tspan id="tspan66" y="-82.019997" x="1337.8101"/>
 </text>
 <text id="text68" style="text-anchor:middle" transform="scale(4.0128 .2492)" font-size="72.67px" y="-869.48999" x="638.40002" font-family="Arial"/>
 <text id="text70" style="word-spacing:0;letter-spacing:0" font-size="200px" line-height="125%" y="-134.64999" x="465.66" font-family="Gentium Book Basic">
  <tspan id="tspan72" y="-134.64999" x="465.66"/>
 </text>
 <text id="text74" style="text-anchor:middle" transform="scale(4.0128 .2492)" font-size="72.67px" y="-1080.71" x="421.06" font-family="Arial"/>
 <text id="text76" style="word-spacing:0;letter-spacing:0" font-size="200px" line-height="125%" y="-258.47" x="1365.27" font-family="Gentium Book Basic">
  <tspan id="tspan78" y="-258.47" x="1365.27"/>
 </text>
 <text id="text80" style="text-anchor:middle" transform="scale(4.0128 .2492)" font-size="72.67px" y="-1577.5699" x="645.23999" font-family="Arial"/>
 <text id="text82" style="word-spacing:0;letter-spacing:0" font-size="200px" line-height="125%" y="317.23001" x="-2544.3201" font-family="Gentium Book Basic">
  <tspan id="tspan84" y="317.23001" x="-2544.3201"/>
 </text>
 <text id="text86" style="text-anchor:middle" transform="scale(4.0128 .2492)" font-size="72.67px" y="732.62" x="-329.03" font-family="Arial"/>
 <text id="text88" style="word-spacing:0;letter-spacing:0" font-size="200px" line-height="125%" y="81.800003" x="-616.03998" font-family="Gentium Book Basic">
  <tspan id="tspan90" y="81.800003" x="-616.03998"/>
 </text>
 <text id="text92" style="text-anchor:middle" transform="scale(4.0128 .2492)" font-size="72.67px" y="-212.12" x="151.5" font-family="Arial"/>
 <text id="text94" style="word-spacing:0;letter-spacing:0" font-size="200px" line-height="125%" y="134.94" x="129.34" font-family="Gentium Book Basic">
  <tspan id="tspan96" y="134.94" x="129.34"/>
 </text>
 <text id="text98" style="text-anchor:middle" transform="scale(4.0128 .2492)" font-size="72.67px" y="1.138" x="337.25" font-family="Arial"/>
 <text id="text100" style="word-spacing:0;letter-spacing:0" font-size="200px" line-height="125%" y="11.127" x="1028.95" font-family="Gentium Book Basic">
  <tspan id="tspan102" y="11.127" x="1028.95"/>
 </text>
 <text id="text104" style="text-anchor:middle" transform="scale(4.0128 .2492)" font-size="72.67px" y="-495.72" x="561.42999" font-family="Arial"/>
 <text id="text106" style="word-spacing:0;letter-spacing:0" font-size="200px" line-height="125%" y="-41.509998" x="156.8" font-family="Gentium Book Basic">
  <tspan id="tspan108" y="-41.509998" x="156.8"/>
 </text>
 <text id="text110" style="text-anchor:middle" transform="scale(4.0128 .2492)" font-size="72.67px" y="-706.95001" x="344.09" font-family="Arial"/>
 <text id="text112" style="word-spacing:0;letter-spacing:0" font-size="200px" line-height="125%" y="-165.33" x="1056.42" font-family="Gentium Book Basic">
  <tspan id="tspan114" y="-165.33" x="1056.42"/>
 </text>
 <text id="text116" style="text-anchor:middle" transform="scale(4.0128 .2492)" font-size="72.67px" y="-1203.8101" x="568.28003" font-family="Arial"/>
 <text id="text118" style="word-spacing:0;letter-spacing:0" font-size="200px" line-height="125%" y="410.37" x="-2853.1799" font-family="Gentium Book Basic">
  <tspan id="tspan120" y="410.37" x="-2853.1799"/>
 </text>
 <text id="text122" style="text-anchor:middle" transform="scale(4.0128 .2492)" font-size="72.67px" y="1106.39" x="-406" font-family="Arial"/>
 <text id="text124" style="word-spacing:0;letter-spacing:0" font-size="200px" line-height="125%" y="-35.060001" x="-1330.61" font-family="Gentium Book Basic">
  <tspan id="tspan126" y="-35.060001" x="-1330.61"/>
 </text>
 <text id="text128" style="text-anchor:middle" transform="scale(4.0128 .2492)" font-size="72.67px" y="-681.03998" x="-26.570999" font-family="Arial"/>
 <text id="text130" style="word-spacing:0;letter-spacing:0" font-size="200px" line-height="125%" y="18.09" x="-585.22998" font-family="Gentium Book Basic">
  <tspan id="tspan132" y="18.09" x="-585.22998"/>
 </text>
 <text id="text134" style="text-anchor:middle" transform="scale(4.0128 .2492)" font-size="72.67px" y="-467.79001" x="159.17999" font-family="Arial"/>
 <text id="text136" style="word-spacing:0;letter-spacing:0" font-size="200px" line-height="125%" y="-105.73" x="314.38" font-family="Gentium Book Basic">
  <tspan id="tspan138" y="-105.73" x="314.38"/>
 </text>
 <text id="text140" style="text-anchor:middle" transform="scale(4.0128 .2492)" font-size="72.67px" y="-964.65002" x="383.35999" font-family="Arial"/>
 <text id="text142" style="word-spacing:0;letter-spacing:0" font-size="200px" line-height="125%" y="-158.37" x="-557.77002" font-family="Gentium Book Basic">
  <tspan id="tspan144" y="-158.37" x="-557.77002"/>
 </text>
 <text id="text146" style="text-anchor:middle" transform="scale(4.0128 .2492)" font-size="72.67px" y="-1175.88" x="166.02" font-family="Arial"/>
 <text id="text148" style="word-spacing:0;letter-spacing:0" font-size="200px" line-height="125%" y="-282.17999" x="341.85001" font-family="Gentium Book Basic">
  <tspan id="tspan150" y="-282.17999" x="341.85001"/>
 </text>
 <text id="text152" style="text-anchor:middle" transform="scale(4.0128 .2492)" font-size="72.67px" y="-1672.73" x="390.20001" font-family="Arial"/>
 <text id="text154" style="word-spacing:0;letter-spacing:0" font-size="200px" line-height="125%" y="293.51999" x="-3567.75" font-family="Gentium Book Basic">
  <tspan id="tspan156" y="293.51999" x="-3567.75"/>
 </text>
 <text id="text158" style="text-anchor:middle" transform="scale(4.0128 .2492)" font-size="72.67px" y="637.46002" x="-584.07001" font-family="Arial"/>
 <text id="text160" style="word-spacing:0;letter-spacing:0" font-size="129.23px" line-height="125%" y="231.36" x="729.64001" font-family="Gentium Book Basic">
  <tspan id="tspan162" y="231.36" x="729.64001"/>
 </text>
 <text id="text164" style="text-anchor:middle" transform="scale(4.0128 .2492)" font-size="46.954px" y="579.25" x="378.91" font-family="Arial"/>
 <text id="text166" style="word-spacing:0;letter-spacing:0" font-size="129.23px" line-height="125%" y="151.36" x="1310.91" font-family="Gentium Book Basic">
  <tspan id="tspan168" y="151.36" x="1310.91"/>
 </text>
 <text id="text170" style="text-anchor:middle" transform="scale(4.0128 .2492)" font-size="46.954px" y="258.22" x="523.76001" font-family="Arial"/>
 <text id="text172" style="word-spacing:0;letter-spacing:0" font-size="129.23px" line-height="125%" y="-29.900999" x="239.33" font-family="Gentium Book Basic">
  <tspan id="tspan174" y="-29.900999" x="239.33"/>
 </text>
 <text id="text176" style="text-anchor:middle" transform="scale(4.0128 .2492)" font-size="46.954px" y="-469.14001" x="256.72" font-family="Arial"/>
 <text id="text178" style="word-spacing:0;letter-spacing:0" font-size="129.23px" line-height="125%" y="-246.37" x="1337.38" font-family="Gentium Book Basic">
  <tspan id="tspan180" y="-246.37" x="1337.38"/>
 </text>
 <text id="text182" style="text-anchor:middle" transform="scale(4.0128 .2492)" font-size="46.954px" y="-1337.8" x="530.35999" font-family="Arial"/>
 <text id="text184" style="word-spacing:0;letter-spacing:0" font-size="129.23px" line-height="125%" y="-326.38" x="1918.65" font-family="Gentium Book Basic">
  <tspan id="tspan186" y="-326.38" x="1918.65"/>
 </text>
 <text id="text188" style="text-anchor:middle" transform="scale(4.0128 .2492)" font-size="46.954px" y="-1658.84" x="675.21002" font-family="Arial"/>
 <text id="text190" style="word-spacing:0;letter-spacing:0" font-size="129.23px" line-height="125%" y="-798.78003" x="1529.53" font-family="Gentium Book Basic">
  <tspan id="tspan192" y="-798.78003" x="1529.53"/>
 </text>
 <text id="text194" style="text-anchor:middle" transform="scale(4.0128 .2492)" font-size="46.954px" y="-3554.49" x="578.23999" font-family="Arial"/>
 <text id="text196" style="word-spacing:0;letter-spacing:0" font-size="129.23px" line-height="125%" y="-878.78003" x="2110.79" font-family="Gentium Book Basic">
  <tspan id="tspan198" y="-878.78003" x="2110.79"/>
 </text>
 <text id="text200" style="text-anchor:middle" transform="scale(4.0128 .2492)" font-size="46.954px" y="-3875.52" x="723.09003" font-family="Arial"/>
 <g id="g202" style="word-spacing:0;letter-spacing:0" font-family="Gentium Book Basic" line-height="125%">
  <text id="text204" y="535.94" x="277.98999" font-size="208.33px">
   <tspan id="tspan206" y="535.94" x="277.98999"/>
  </text>
  <text id="text208" y="227.12" x="104.96" font-size="129.23px">
   <tspan id="tspan210" y="227.12" x="104.96"/>
  </text>
 </g>
 <text id="text212" style="text-anchor:middle" transform="scale(4.0128 .2492)" font-size="46.954px" y="562.22998" x="223.24001" font-family="Arial"/>
 <text id="text214" style="word-spacing:0;letter-spacing:0" font-size="129.23px" line-height="125%" y="147.11" x="686.22998" font-family="Gentium Book Basic">
  <tspan id="tspan216" y="147.11" x="686.22998"/>
 </text>
 <text id="text218" style="text-anchor:middle" transform="scale(4.0128 .2492)" font-size="46.954px" y="241.19" x="368.09" font-family="Arial"/>
 <text id="text220" style="word-spacing:0;letter-spacing:0" font-size="129.23px" line-height="125%" y="-34.139999" x="-385.35001" font-family="Gentium Book Basic">
  <tspan id="tspan222" y="-34.139999" x="-385.35001"/>
 </text>
 <text id="text224" style="text-anchor:middle" transform="scale(4.0128 .2492)" font-size="46.954px" y="-486.16" x="101.05" font-family="Arial"/>
 <text id="text226" style="word-spacing:0;letter-spacing:0" font-size="129.23px" line-height="125%" y="-250.62" x="712.70001" font-family="Gentium Book Basic">
  <tspan id="tspan228" y="-250.62" x="712.70001"/>
 </text>
 <text id="text230" style="text-anchor:middle" transform="scale(4.0128 .2492)" font-size="46.954px" y="-1354.84" x="374.69" font-family="Arial"/>
 <text id="text232" style="word-spacing:0;letter-spacing:0" font-size="129.23px" line-height="125%" y="-330.62" x="1293.97" font-family="Gentium Book Basic">
  <tspan id="tspan234" y="-330.62" x="1293.97"/>
 </text>
 <text id="text236" style="text-anchor:middle" transform="scale(4.0128 .2492)" font-size="46.954px" y="-1675.87" x="519.53998" font-family="Arial"/>
 <text id="text238" style="word-spacing:0;letter-spacing:0" font-size="129.23px" line-height="125%" y="-803.02002" x="904.84998" font-family="Gentium Book Basic">
  <tspan id="tspan240" y="-803.02002" x="904.84998"/>
 </text>
 <text id="text242" style="text-anchor:middle" transform="scale(4.0128 .2492)" font-size="46.954px" y="-3571.53" x="422.57001" font-family="Arial"/>
 <text id="text244" style="word-spacing:0;letter-spacing:0" font-size="129.23px" line-height="125%" y="-883.02002" x="1486.12" font-family="Gentium Book Basic">
  <tspan id="tspan246" y="-883.02002" x="1486.12"/>
 </text>
 <text id="text248" style="text-anchor:middle" transform="scale(4.0128 .2492)" font-size="46.954px" y="-3892.5701" x="567.41998" font-family="Arial"/>
 <g id="g250" style="word-spacing:0;letter-spacing:0" font-family="Gentium Book Basic" line-height="125%">
  <text id="text252" y="531.69" x="-346.69" font-size="208.33px">
   <tspan id="tspan254" y="531.69" x="-346.69"/>
  </text>
  <text id="text256" y="-15.584" x="-931.85999" font-size="200px">
   <tspan id="tspan258" y="-15.584" x="-931.85999"/>
  </text>
 </g>
 <text id="text260" style="text-anchor:middle" transform="scale(4.0128 .2492)" font-size="72.67px" y="-602.90997" x="72.796997" font-family="Arial"/>
 <text id="text262" style="word-spacing:0;letter-spacing:0" font-size="200px" line-height="125%" y="37.558998" x="-186.48" font-family="Gentium Book Basic">
  <tspan id="tspan264" y="37.558998" x="-186.48"/>
 </text>
 <text id="text266" style="text-anchor:middle" transform="scale(4.0128 .2492)" font-size="72.67px" y="-389.66" x="258.54999" font-family="Arial"/>
 <text id="text268" style="word-spacing:0;letter-spacing:0" font-size="200px" line-height="125%" y="-86.260002" x="713.13" font-family="Gentium Book Basic">
  <tspan id="tspan270" y="-86.260002" x="713.13"/>
 </text>
 <text id="text272" style="text-anchor:middle" transform="scale(4.0128 .2492)" font-size="72.67px" y="-886.51001" x="482.73001" font-family="Arial"/>
 <text id="text274" style="word-spacing:0;letter-spacing:0" font-size="200px" line-height="125%" y="-138.89999" x="-159.02" font-family="Gentium Book Basic">
  <tspan id="tspan276" y="-138.89999" x="-159.02"/>
 </text>
 <text id="text278" style="text-anchor:middle" transform="scale(4.0128 .2492)" font-size="72.67px" y="-1097.74" x="265.39001" font-family="Arial"/>
 <text id="text280" style="word-spacing:0;letter-spacing:0" font-size="200px" line-height="125%" y="-262.70999" x="740.59998" font-family="Gentium Book Basic">
  <tspan id="tspan282" y="-262.70999" x="740.59998"/>
 </text>
 <text id="text284" style="text-anchor:middle" transform="scale(4.0128 .2492)" font-size="72.67px" y="-1594.6" x="489.57001" font-family="Arial"/>
 <text id="text286" style="word-spacing:0;letter-spacing:0" font-size="200px" line-height="125%" y="312.98999" x="-3169" font-family="Gentium Book Basic">
  <tspan id="tspan288" y="312.98999" x="-3169"/>
 </text>
 <text id="text290" style="text-anchor:middle" transform="scale(4.0128 .2492)" font-size="72.67px" y="715.59003" x="-484.70001" font-family="Arial"/>
 <text id="text292" style="word-spacing:0;letter-spacing:0" font-size="200px" line-height="125%" y="77.559998" x="-1240.72" font-family="Gentium Book Basic">
  <tspan id="tspan294" y="77.559998" x="-1240.72"/>
 </text>
 <text id="text296" style="text-anchor:middle" transform="scale(4.0128 .2492)" font-size="72.67px" y="-229.14" x="-4.1700001" font-family="Arial"/>
 <text id="text298" style="word-spacing:0;letter-spacing:0" font-size="200px" line-height="125%" y="130.7" x="-495.34" font-family="Gentium Book Basic">
  <tspan id="tspan300" y="130.7" x="-495.34"/>
 </text>
 <text id="text302" style="text-anchor:middle" transform="scale(4.0128 .2492)" font-size="72.67px" y="-15.889" x="181.58" font-family="Arial"/>
 <text id="text304" style="word-spacing:0;letter-spacing:0" font-size="200px" line-height="125%" y="6.8839998" x="404.26999" font-family="Gentium Book Basic">
  <tspan id="tspan306" y="6.8839998" x="404.26999"/>
 </text>
 <text id="text308" style="text-anchor:middle" transform="scale(4.0128 .2492)" font-size="72.67px" y="-512.75" x="405.76001" font-family="Arial"/>
 <text id="text310" style="word-spacing:0;letter-spacing:0" font-size="200px" line-height="125%" y="-45.754002" x="-467.88" font-family="Gentium Book Basic">
  <tspan id="tspan312" y="-45.754002" x="-467.88"/>
 </text>
 <text id="text314" style="text-anchor:middle" transform="scale(4.0128 .2492)" font-size="72.67px" y="-723.96997" x="188.42" font-family="Arial"/>
 <text id="text316" style="word-spacing:0;letter-spacing:0" font-size="200px" line-height="125%" y="-169.57001" x="431.73999" font-family="Gentium Book Basic">
  <tspan id="tspan318" y="-169.57001" x="431.73999"/>
 </text>
 <text id="text320" style="text-anchor:middle" transform="scale(4.0128 .2492)" font-size="72.67px" y="-1220.83" x="412.60999" font-family="Arial"/>
 <text id="text322" style="word-spacing:0;letter-spacing:0" font-size="200px" line-height="125%" y="406.13" x="-3477.8601" font-family="Gentium Book Basic">
  <tspan id="tspan324" y="406.13" x="-3477.8601"/>
 </text>
 <text id="text326" style="text-anchor:middle" transform="scale(4.0128 .2492)" font-size="72.67px" y="1089.36" x="-561.66998" font-family="Arial"/>
 <text id="text328" style="word-spacing:0;letter-spacing:0" font-size="200px" line-height="125%" y="-39.299999" x="-1955.29" font-family="Gentium Book Basic">
  <tspan id="tspan330" y="-39.299999" x="-1955.29"/>
 </text>
 <text id="text332" style="text-anchor:middle" transform="scale(4.0128 .2492)" font-size="72.67px" y="-698.07001" x="-182.24001" font-family="Arial"/>
 <text id="text334" style="word-spacing:0;letter-spacing:0" font-size="200px" line-height="125%" y="13.844" x="-1209.91" font-family="Gentium Book Basic">
  <tspan id="tspan336" y="13.844" x="-1209.91"/>
 </text>
 <text id="text338" style="text-anchor:middle" transform="scale(4.0128 .2492)" font-size="72.67px" y="-484.82001" x="3.507" font-family="Arial"/>
 <text id="text340" style="word-spacing:0;letter-spacing:0" font-size="200px" line-height="125%" y="-109.97" x="-310.29999" font-family="Gentium Book Basic">
  <tspan id="tspan342" y="-109.97" x="-310.29999"/>
 </text>
 <text id="text344" style="text-anchor:middle" transform="scale(4.0128 .2492)" font-size="72.67px" y="-981.67999" x="227.69" font-family="Arial"/>
 <text id="text346" style="word-spacing:0;letter-spacing:0" font-size="200px" line-height="125%" y="-162.61" x="-1182.45" font-family="Gentium Book Basic">
  <tspan id="tspan348" y="-162.61" x="-1182.45"/>
 </text>
 <text id="text350" style="text-anchor:middle" transform="scale(4.0128 .2492)" font-size="72.67px" y="-1192.9" x="10.351" font-family="Arial"/>
 <text id="text352" style="word-spacing:0;letter-spacing:0" font-size="200px" line-height="125%" y="-286.42999" x="-282.82999" font-family="Gentium Book Basic">
  <tspan id="tspan354" y="-286.42999" x="-282.82999"/>
 </text>
 <text id="text356" style="text-anchor:middle" transform="scale(4.0128 .2492)" font-size="72.67px" y="-1689.76" x="234.53999" font-family="Arial"/>
 <text id="text358" style="word-spacing:0;letter-spacing:0" font-size="200px" line-height="125%" y="289.26999" x="-4192.4302" font-family="Gentium Book Basic">
  <tspan id="tspan360" y="289.26999" x="-4192.4302"/>
 </text>
 <text id="text362" style="text-anchor:middle" transform="scale(4.0128 .2492)" font-size="72.67px" y="620.42999" x="-739.73999" font-family="Arial"/>
 <text id="text364" style="word-spacing:0;letter-spacing:0" font-size="129.23px" line-height="125%" y="231.36" x="729.64001" font-family="Gentium Book Basic">
  <tspan id="tspan366" y="231.36" x="729.64001"/>
 </text>
 <text id="text368" style="text-anchor:middle" transform="scale(4.0128 .2492)" font-size="46.954px" y="579.25" x="378.91" font-family="Arial"/>
 <text id="text370" style="word-spacing:0;letter-spacing:0" font-size="129.23px" line-height="125%" y="151.36" x="1310.91" font-family="Gentium Book Basic">
  <tspan id="tspan372" y="151.36" x="1310.91"/>
 </text>
 <text id="text374" style="text-anchor:middle" transform="scale(4.0128 .2492)" font-size="46.954px" y="258.22" x="523.76001" font-family="Arial"/>
 <text id="text376" style="word-spacing:0;letter-spacing:0" font-size="129.23px" line-height="125%" y="-29.900999" x="239.33" font-family="Gentium Book Basic">
  <tspan id="tspan378" y="-29.900999" x="239.33"/>
 </text>
 <text id="text380" style="text-anchor:middle" transform="scale(4.0128 .2492)" font-size="46.954px" y="-469.14001" x="256.72" font-family="Arial"/>
 <text id="text382" style="word-spacing:0;letter-spacing:0" font-size="129.23px" line-height="125%" y="-246.37" x="1337.38" font-family="Gentium Book Basic">
  <tspan id="tspan384" y="-246.37" x="1337.38"/>
 </text>
 <text id="text386" style="text-anchor:middle" transform="scale(4.0128 .2492)" font-size="46.954px" y="-1337.8" x="530.35999" font-family="Arial"/>
 <text id="text388" style="word-spacing:0;letter-spacing:0" font-size="129.23px" line-height="125%" y="-326.38" x="1918.65" font-family="Gentium Book Basic">
  <tspan id="tspan390" y="-326.38" x="1918.65"/>
 </text>
 <text id="text392" style="text-anchor:middle" transform="scale(4.0128 .2492)" font-size="46.954px" y="-1658.84" x="675.21002" font-family="Arial"/>
 <text id="text394" style="word-spacing:0;letter-spacing:0" font-size="129.23px" line-height="125%" y="-798.78003" x="1529.53" font-family="Gentium Book Basic">
  <tspan id="tspan396" y="-798.78003" x="1529.53"/>
 </text>
 <text id="text398" style="text-anchor:middle" transform="scale(4.0128 .2492)" font-size="46.954px" y="-3554.49" x="578.23999" font-family="Arial"/>
 <text id="text400" style="word-spacing:0;letter-spacing:0" font-size="129.23px" line-height="125%" y="-878.78003" x="2110.79" font-family="Gentium Book Basic">
  <tspan id="tspan402" y="-878.78003" x="2110.79"/>
 </text>
 <text id="text404" style="text-anchor:middle" transform="scale(4.0128 .2492)" font-size="46.954px" y="-3875.52" x="723.09003" font-family="Arial"/>
 <g id="g406" style="word-spacing:0;letter-spacing:0" font-family="Gentium Book Basic" line-height="125%">
  <text id="text408" y="535.94" x="277.98999" font-size="208.33px">
   <tspan id="tspan410" y="535.94" x="277.98999"/>
  </text>
  <text id="text412" y="-11.341" x="-307.17999" font-size="200px">
   <tspan id="tspan414" y="-11.341" x="-307.17999"/>
  </text>
 </g>
 <text id="text416" style="text-anchor:middle" transform="scale(4.0128 .2492)" font-size="72.67px" y="-585.88" x="228.47" font-family="Arial"/>
 <text id="text418" style="word-spacing:0;letter-spacing:0" font-size="200px" line-height="125%" y="41.801998" x="438.20001" font-family="Gentium Book Basic">
  <tspan id="tspan420" y="41.801998" x="438.20001"/>
 </text>
 <text id="text422" style="text-anchor:middle" transform="scale(4.0128 .2492)" font-size="72.67px" y="-372.63" x="414.22" font-family="Arial"/>
 <text id="text424" style="word-spacing:0;letter-spacing:0" font-size="200px" line-height="125%" y="-82.019997" x="1337.8101" font-family="Gentium Book Basic">
  <tspan id="tspan426" y="-82.019997" x="1337.8101"/>
 </text>
 <text id="text428" style="text-anchor:middle" transform="scale(4.0128 .2492)" font-size="72.67px" y="-869.48999" x="638.40002" font-family="Arial"/>
 <text id="text430" style="word-spacing:0;letter-spacing:0" font-size="200px" line-height="125%" y="-134.64999" x="465.66" font-family="Gentium Book Basic">
  <tspan id="tspan432" y="-134.64999" x="465.66"/>
 </text>
 <text id="text434" style="text-anchor:middle" transform="scale(4.0128 .2492)" font-size="72.67px" y="-1080.7" x="421.06" font-family="Arial"/>
 <text id="text436" style="word-spacing:0;letter-spacing:0" font-size="200px" line-height="125%" y="-258.47" x="1365.27" font-family="Gentium Book Basic">
  <tspan id="tspan438" y="-258.47" x="1365.27"/>
 </text>
 <text id="text440" style="text-anchor:middle" transform="scale(4.0128 .2492)" font-size="72.67px" y="-1577.5601" x="645.23999" font-family="Arial"/>
 <text id="text442" style="word-spacing:0;letter-spacing:0" font-size="200px" line-height="125%" y="317.23001" x="-2544.3201" font-family="Gentium Book Basic">
  <tspan id="tspan444" y="317.23001" x="-2544.3201"/>
 </text>
 <text id="text446" style="text-anchor:middle" transform="scale(4.0128 .2492)" font-size="72.67px" y="732.62" x="-329.03" font-family="Arial"/>
 <text id="text448" style="word-spacing:0;letter-spacing:0" font-size="200px" line-height="125%" y="81.800003" x="-616.03998" font-family="Gentium Book Basic">
  <tspan id="tspan450" y="81.800003" x="-616.03998"/>
 </text>
 <text id="text452" style="text-anchor:middle" transform="scale(4.0128 .2492)" font-size="72.67px" y="-212.12" x="151.5" font-family="Arial"/>
 <text id="text454" style="word-spacing:0;letter-spacing:0" font-size="200px" line-height="125%" y="134.94" x="129.34" font-family="Gentium Book Basic">
  <tspan id="tspan456" y="134.94" x="129.34"/>
 </text>
 <text id="text458" style="text-anchor:middle" transform="scale(4.0128 .2492)" font-size="72.67px" y="1.138" x="337.25" font-family="Arial"/>
 <text id="text460" style="word-spacing:0;letter-spacing:0" font-size="200px" line-height="125%" y="11.127" x="1028.95" font-family="Gentium Book Basic">
  <tspan id="tspan462" y="11.127" x="1028.95"/>
 </text>
 <text id="text464" style="text-anchor:middle" transform="scale(4.0128 .2492)" font-size="72.67px" y="-495.72" x="561.42999" font-family="Arial"/>
 <text id="text466" style="word-spacing:0;letter-spacing:0" font-size="200px" line-height="125%" y="-41.509998" x="156.8" font-family="Gentium Book Basic">
  <tspan id="tspan468" y="-41.509998" x="156.8"/>
 </text>
 <text id="text470" style="text-anchor:middle" transform="scale(4.0128 .2492)" font-size="72.67px" y="-706.95001" x="344.09" font-family="Arial"/>
 <text id="text472" style="word-spacing:0;letter-spacing:0" font-size="200px" line-height="125%" y="-165.33" x="1056.42" font-family="Gentium Book Basic">
  <tspan id="tspan474" y="-165.33" x="1056.42"/>
 </text>
 <text id="text476" style="text-anchor:middle" transform="scale(4.0128 .2492)" font-size="72.67px" y="-1203.8" x="568.28003" font-family="Arial"/>
 <text id="text478" style="word-spacing:0;letter-spacing:0" font-size="200px" line-height="125%" y="410.37" x="-2853.1799" font-family="Gentium Book Basic">
  <tspan id="tspan480" y="410.37" x="-2853.1799"/>
 </text>
 <text id="text482" style="text-anchor:middle" transform="scale(4.0128 .2492)" font-size="72.67px" y="1106.38" x="-406" font-family="Arial"/>
 <text id="text484" style="word-spacing:0;letter-spacing:0" font-size="200px" line-height="125%" y="-35.060001" x="-1330.61" font-family="Gentium Book Basic">
  <tspan id="tspan486" y="-35.060001" x="-1330.61"/>
 </text>
 <text id="text488" style="text-anchor:middle" transform="scale(4.0128 .2492)" font-size="72.67px" y="-681.03998" x="-26.570999" font-family="Arial"/>
 <text id="text490" style="word-spacing:0;letter-spacing:0" font-size="200px" line-height="125%" y="18.09" x="-585.22998" font-family="Gentium Book Basic">
  <tspan id="tspan492" y="18.09" x="-585.22998"/>
 </text>
 <text id="text494" style="text-anchor:middle" transform="scale(4.0128 .2492)" font-size="72.67px" y="-467.79001" x="159.17999" font-family="Arial"/>
 <text id="text496" style="word-spacing:0;letter-spacing:0" font-size="200px" line-height="125%" y="-105.73" x="314.38" font-family="Gentium Book Basic">
  <tspan id="tspan498" y="-105.73" x="314.38"/>
 </text>
 <text id="text500" style="text-anchor:middle" transform="scale(4.0128 .2492)" font-size="72.67px" y="-964.65002" x="383.35999" font-family="Arial"/>
 <text id="text502" style="word-spacing:0;letter-spacing:0" font-size="200px" line-height="125%" y="-158.37" x="-557.77002" font-family="Gentium Book Basic">
  <tspan id="tspan504" y="-158.37" x="-557.77002"/>
 </text>
 <text id="text506" style="text-anchor:middle" transform="scale(4.0128 .2492)" font-size="72.67px" y="-1175.87" x="166.02" font-family="Arial"/>
 <text id="text508" style="word-spacing:0;letter-spacing:0" font-size="200px" line-height="125%" y="-282.17999" x="341.85001" font-family="Gentium Book Basic">
  <tspan id="tspan510" y="-282.17999" x="341.85001"/>
 </text>
 <text id="text512" style="text-anchor:middle" transform="scale(4.0128 .2492)" font-size="72.67px" y="-1672.72" x="390.20001" font-family="Arial"/>
 <text id="text514" style="word-spacing:0;letter-spacing:0" font-size="200px" line-height="125%" y="293.51999" x="-3567.75" font-family="Gentium Book Basic">
  <tspan id="tspan516" y="293.51999" x="-3567.75"/>
 </text>
 <text id="text518" style="text-anchor:middle" transform="scale(4.0128 .2492)" font-size="72.67px" y="637.46002" x="-584.07001" font-family="Arial"/>
 <path id="path520" fill="#0078ad" d="m471.95 253.05c0 120.9-98.01 218.9-218.9 218.9-120.9 0-218.9-98.01-218.9-218.9 0-120.9 98.01-218.9 218.9-218.9 120.9 0 218.9 98.01 218.9 218.9" fill-rule="evenodd"/>
 <path id="path522" d="m272.97 123.91c-14.427 4.496-24.05 18.11-36.19 26.906-34.591 30-70.05 59.1-104.09 89.66-10.675 12.06-9.234 22.08-2.469 26.75 6.593 3.382-14.603-0.45-7.438 11.938 0.453 24.02-0.955 48.17 0.844 72.09 5.767 20.07 25.739 30.505 39.16 45.19 26.703 25.35 54.14 49.991 80.88 75.28 3.116 0.132 6.258 0.219 9.406 0.219 101.28 0 186.48-68.782 211.47-162.19-61.09-61.1-122.12-122.26-183.34-183.22-2.354-1.755-5.286-2.685-8.219-2.625" fill-opacity="0.235"/>
 <g id="g524" fill-rule="evenodd">
  <path id="path526" d="m256 1c-140.83 0-255 114.17-255 255s114.17 255 255 255 255-114.17 255-255-114.17-255-255-255m8.827 44.931c120.9 0 218.9 98 218.9 218.9s-98 218.9-218.9 218.9-218.93-98-218.93-218.9 98.03-218.9 218.93-218.9" fill-opacity="0.067"/>
  <g id="g528" fill-opacity="0.129">
   <path id="path530" d="m256 4.433c-138.94 0-251.57 112.63-251.57 251.57s112.63 251.57 251.57 251.57 251.57-112.63 251.57-251.57-112.63-251.57-251.57-251.57m5.885 38.556c120.9 0 218.9 98 218.9 218.9s-98 218.9-218.9 218.9-218.93-98-218.93-218.9 98.03-218.9 218.93-218.9"/>
   <path id="path532" d="m256 8.356c-136.77 0-247.64 110.87-247.64 247.64s110.87 247.64 247.64 247.64 247.64-110.87 247.64-247.64-110.87-247.64-247.64-247.64m2.942 31.691c120.9 0 218.9 98 218.9 218.9s-98 218.9-218.9 218.9-218.93-98-218.93-218.9 98.03-218.9 218.93-218.9"/>
  </g>
  <path id="path534" d="m253.04 7.859c-135.42 0-245.19 109.78-245.19 245.19 0 135.42 109.78 245.19 245.19 245.19 135.42 0 245.19-109.78 245.19-245.19 0-135.42-109.78-245.19-245.19-245.19zm0 26.297c120.9 0 218.9 98 218.9 218.9s-98 218.9-218.9 218.9-218.93-98-218.93-218.9 98.03-218.9 218.93-218.9z" stroke-opacity="0.31" stroke="#000" stroke-width="4.904" fill="#fff"/>
 </g>
 <text id="text536" style="word-spacing:0;letter-spacing:0" font-size="129.23px" line-height="125%" y="231.36" x="729.64001" font-family="Gentium Book Basic">
  <tspan id="tspan538" y="231.36" x="729.64001"/>
 </text>
 <text id="text540" style="text-anchor:middle" transform="scale(4.0128 .2492)" font-size="46.954px" y="579.25" x="378.91" font-family="Arial"/>
 <text id="text542" style="word-spacing:0;letter-spacing:0" font-size="129.23px" line-height="125%" y="151.36" x="1310.91" font-family="Gentium Book Basic">
  <tspan id="tspan544" y="151.36" x="1310.91"/>
 </text>
 <text id="text546" style="text-anchor:middle" transform="scale(4.0128 .2492)" font-size="46.954px" y="258.22" x="523.76001" font-family="Arial"/>
 <text id="text548" style="word-spacing:0;letter-spacing:0" font-size="129.23px" line-height="125%" y="-29.900999" x="239.33" font-family="Gentium Book Basic">
  <tspan id="tspan550" y="-29.900999" x="239.33"/>
 </text>
 <text id="text552" style="text-anchor:middle" transform="scale(4.0128 .2492)" font-size="46.954px" y="-469.14001" x="256.72" font-family="Arial"/>
 <text id="text554" style="word-spacing:0;letter-spacing:0" font-size="129.23px" line-height="125%" y="-246.37" x="1337.38" font-family="Gentium Book Basic">
  <tspan id="tspan556" y="-246.37" x="1337.38"/>
 </text>
 <text id="text558" style="text-anchor:middle" transform="scale(4.0128 .2492)" font-size="46.954px" y="-1337.79" x="530.35999" font-family="Arial"/>
 <text id="text560" style="word-spacing:0;letter-spacing:0" font-size="129.23px" line-height="125%" y="-326.38" x="1918.65" font-family="Gentium Book Basic">
  <tspan id="tspan562" y="-326.38" x="1918.65"/>
 </text>
 <text id="text564" style="text-anchor:middle" transform="scale(4.0128 .2492)" font-size="46.954px" y="-1658.83" x="675.21002" font-family="Arial"/>
 <text id="text566" style="word-spacing:0;letter-spacing:0" font-size="129.23px" line-height="125%" y="-798.78003" x="1529.53" font-family="Gentium Book Basic">
  <tspan id="tspan568" y="-798.78003" x="1529.53"/>
 </text>
 <text id="text570" style="text-anchor:middle" transform="scale(4.0128 .2492)" font-size="46.954px" y="-3554.47" x="578.23999" font-family="Arial"/>
 <text id="text572" style="word-spacing:0;letter-spacing:0" font-size="129.23px" line-height="125%" y="-878.78003" x="2110.79" font-family="Gentium Book Basic">
  <tspan id="tspan574" y="-878.78003" x="2110.79"/>
 </text>
 <text id="text576" style="text-anchor:middle" transform="scale(4.0128 .2492)" font-size="46.954px" y="-3875.5" x="723.09003" font-family="Arial"/>
 <g id="g578" style="word-spacing:0;letter-spacing:0" font-family="Gentium Book Basic" line-height="125%">
  <text id="text580" y="535.94" x="277.98999" font-size="208.33px">
   <tspan id="tspan582" y="535.94" x="277.98999"/>
  </text>
  <text id="text584" y="227.12" x="104.96" font-size="129.23px">
   <tspan id="tspan586" y="227.12" x="104.96"/>
  </text>
 </g>
 <text id="text588" style="text-anchor:middle" transform="scale(4.0128 .2492)" font-size="46.954px" y="562.22998" x="223.24001" font-family="Arial"/>
 <text id="text590" style="word-spacing:0;letter-spacing:0" font-size="129.23px" line-height="125%" y="147.11" x="686.22998" font-family="Gentium Book Basic">
  <tspan id="tspan592" y="147.11" x="686.22998"/>
 </text>
 <text id="text594" style="text-anchor:middle" transform="scale(4.0128 .2492)" font-size="46.954px" y="241.19" x="368.09" font-family="Arial"/>
 <text id="text596" style="word-spacing:0;letter-spacing:0" font-size="129.23px" line-height="125%" y="-34.139999" x="-385.35001" font-family="Gentium Book Basic">
  <tspan id="tspan598" y="-34.139999" x="-385.35001"/>
 </text>
 <text id="text600" style="text-anchor:middle" transform="scale(4.0128 .2492)" font-size="46.954px" y="-486.16" x="101.05" font-family="Arial"/>
 <text id="text602" style="word-spacing:0;letter-spacing:0" font-size="129.23px" line-height="125%" y="-250.62" x="712.70001" font-family="Gentium Book Basic">
  <tspan id="tspan604" y="-250.62" x="712.70001"/>
 </text>
 <text id="text606" style="text-anchor:middle" transform="scale(4.0128 .2492)" font-size="46.954px" y="-1354.83" x="374.69" font-family="Arial"/>
 <text id="text608" style="word-spacing:0;letter-spacing:0" font-size="129.23px" line-height="125%" y="-330.62" x="1293.97" font-family="Gentium Book Basic">
  <tspan id="tspan610" y="-330.62" x="1293.97"/>
 </text>
 <text id="text612" style="text-anchor:middle" transform="scale(4.0128 .2492)" font-size="46.954px" y="-1675.86" x="519.53998" font-family="Arial"/>
 <text id="text614" style="word-spacing:0;letter-spacing:0" font-size="129.23px" line-height="125%" y="-803.02002" x="904.84998" font-family="Gentium Book Basic">
  <tspan id="tspan616" y="-803.02002" x="904.84998"/>
 </text>
 <text id="text618" style="text-anchor:middle" transform="scale(4.0128 .2492)" font-size="46.954px" y="-3571.51" x="422.57001" font-family="Arial"/>
 <text id="text620" style="word-spacing:0;letter-spacing:0" font-size="129.23px" line-height="125%" y="-883.02002" x="1486.12" font-family="Gentium Book Basic">
  <tspan id="tspan622" y="-883.02002" x="1486.12"/>
 </text>
 <text id="text624" style="text-anchor:middle" transform="scale(4.0128 .2492)" font-size="46.954px" y="-3892.55" x="567.41998" font-family="Arial"/>
 <g id="g626" style="word-spacing:0;letter-spacing:0" font-family="Gentium Book Basic" line-height="125%">
  <text id="text628" y="531.69" x="-346.69" font-size="208.33px">
   <tspan id="tspan630" y="531.69" x="-346.69"/>
  </text>
  <text id="text632" y="-15.584" x="-931.85999" font-size="200px">
   <tspan id="tspan634" y="-15.584" x="-931.85999"/>
  </text>
 </g>
 <text id="text636" style="text-anchor:middle" transform="scale(4.0128 .2492)" font-size="72.67px" y="-602.90997" x="72.796997" font-family="Arial"/>
 <text id="text638" style="word-spacing:0;letter-spacing:0" font-size="200px" line-height="125%" y="37.558998" x="-186.48" font-family="Gentium Book Basic">
  <tspan id="tspan640" y="37.558998" x="-186.48"/>
 </text>
 <text id="text642" style="text-anchor:middle" transform="scale(4.0128 .2492)" font-size="72.67px" y="-389.66" x="258.54999" font-family="Arial"/>
 <text id="text644" style="word-spacing:0;letter-spacing:0" font-size="200px" line-height="125%" y="-86.260002" x="713.13" font-family="Gentium Book Basic">
  <tspan id="tspan646" y="-86.260002" x="713.13"/>
 </text>
 <text id="text648" style="text-anchor:middle" transform="scale(4.0128 .2492)" font-size="72.67px" y="-886.51001" x="482.73001" font-family="Arial"/>
 <text id="text650" style="word-spacing:0;letter-spacing:0" font-size="200px" line-height="125%" y="-138.89999" x="-159.02" font-family="Gentium Book Basic">
  <tspan id="tspan652" y="-138.89999" x="-159.02"/>
 </text>
 <text id="text654" style="text-anchor:middle" transform="scale(4.0128 .2492)" font-size="72.67px" y="-1097.73" x="265.39001" font-family="Arial"/>
 <text id="text656" style="word-spacing:0;letter-spacing:0" font-size="200px" line-height="125%" y="-262.70999" x="740.59998" font-family="Gentium Book Basic">
  <tspan id="tspan658" y="-262.70999" x="740.59998"/>
 </text>
 <text id="text660" style="text-anchor:middle" transform="scale(4.0128 .2492)" font-size="72.67px" y="-1594.59" x="489.57001" font-family="Arial"/>
 <text id="text662" style="word-spacing:0;letter-spacing:0" font-size="200px" line-height="125%" y="312.98999" x="-3169" font-family="Gentium Book Basic">
  <tspan id="tspan664" y="312.98999" x="-3169"/>
 </text>
 <text id="text666" style="text-anchor:middle" transform="scale(4.0128 .2492)" font-size="72.67px" y="715.59003" x="-484.70001" font-family="Arial"/>
 <text id="text668" style="word-spacing:0;letter-spacing:0" font-size="200px" line-height="125%" y="77.559998" x="-1240.72" font-family="Gentium Book Basic">
  <tspan id="tspan670" y="77.559998" x="-1240.72"/>
 </text>
 <text id="text672" style="text-anchor:middle" transform="scale(4.0128 .2492)" font-size="72.67px" y="-229.14" x="-4.1700001" font-family="Arial"/>
 <text id="text674" style="word-spacing:0;letter-spacing:0" font-size="200px" line-height="125%" y="130.7" x="-495.34" font-family="Gentium Book Basic">
  <tspan id="tspan676" y="130.7" x="-495.34"/>
 </text>
 <text id="text678" style="text-anchor:middle" transform="scale(4.0128 .2492)" font-size="72.67px" y="-15.889" x="181.58" font-family="Arial"/>
 <text id="text680" style="word-spacing:0;letter-spacing:0" font-size="200px" line-height="125%" y="6.8839998" x="404.26999" font-family="Gentium Book Basic">
  <tspan id="tspan682" y="6.8839998" x="404.26999"/>
 </text>
 <text id="text684" style="text-anchor:middle" transform="scale(4.0128 .2492)" font-size="72.67px" y="-512.75" x="405.76001" font-family="Arial"/>
 <text id="text686" style="word-spacing:0;letter-spacing:0" font-size="200px" line-height="125%" y="-45.754002" x="-467.88" font-family="Gentium Book Basic">
  <tspan id="tspan688" y="-45.754002" x="-467.88"/>
 </text>
 <text id="text690" style="text-anchor:middle" transform="scale(4.0128 .2492)" font-size="72.67px" y="-723.96997" x="188.42" font-family="Arial"/>
 <text id="text692" style="word-spacing:0;letter-spacing:0" font-size="200px" line-height="125%" y="-169.57001" x="431.73999" font-family="Gentium Book Basic">
  <tspan id="tspan694" y="-169.57001" x="431.73999"/>
 </text>
 <text id="text696" style="text-anchor:middle" transform="scale(4.0128 .2492)" font-size="72.67px" y="-1220.8199" x="412.60999" font-family="Arial"/>
 <text id="text698" style="word-spacing:0;letter-spacing:0" font-size="200px" line-height="125%" y="406.13" x="-3477.8601" font-family="Gentium Book Basic">
  <tspan id="tspan700" y="406.13" x="-3477.8601"/>
 </text>
 <text id="text702" style="text-anchor:middle" transform="scale(4.0128 .2492)" font-size="72.67px" y="1089.35" x="-561.66998" font-family="Arial"/>
 <text id="text704" style="word-spacing:0;letter-spacing:0" font-size="200px" line-height="125%" y="-39.299999" x="-1955.29" font-family="Gentium Book Basic">
  <tspan id="tspan706" y="-39.299999" x="-1955.29"/>
 </text>
 <text id="text708" style="text-anchor:middle" transform="scale(4.0128 .2492)" font-size="72.67px" y="-698.07001" x="-182.24001" font-family="Arial"/>
 <text id="text710" style="word-spacing:0;letter-spacing:0" font-size="200px" line-height="125%" y="13.844" x="-1209.91" font-family="Gentium Book Basic">
  <tspan id="tspan712" y="13.844" x="-1209.91"/>
 </text>
 <text id="text714" style="text-anchor:middle" transform="scale(4.0128 .2492)" font-size="72.67px" y="-484.82001" x="3.507" font-family="Arial"/>
 <text id="text716" style="word-spacing:0;letter-spacing:0" font-size="200px" line-height="125%" y="-109.97" x="-310.29999" font-family="Gentium Book Basic">
  <tspan id="tspan718" y="-109.97" x="-310.29999"/>
 </text>
 <text id="text720" style="text-anchor:middle" transform="scale(4.0128 .2492)" font-size="72.67px" y="-981.66998" x="227.69" font-family="Arial"/>
 <text id="text722" style="word-spacing:0;letter-spacing:0" font-size="200px" line-height="125%" y="-162.61" x="-1182.45" font-family="Gentium Book Basic">
  <tspan id="tspan724" y="-162.61" x="-1182.45"/>
 </text>
 <text id="text726" style="text-anchor:middle" transform="scale(4.0128 .2492)" font-size="72.67px" y="-1192.89" x="10.351" font-family="Arial"/>
 <text id="text728" style="word-spacing:0;letter-spacing:0" font-size="200px" line-height="125%" y="-286.42999" x="-282.82999" font-family="Gentium Book Basic">
  <tspan id="tspan730" y="-286.42999" x="-282.82999"/>
 </text>
 <text id="text732" style="text-anchor:middle" transform="scale(4.0128 .2492)" font-size="72.67px" y="-1689.75" x="234.53999" font-family="Arial"/>
 <text id="text734" style="word-spacing:0;letter-spacing:0" font-size="200px" line-height="125%" y="289.26999" x="-4192.4302" font-family="Gentium Book Basic">
  <tspan id="tspan736" y="289.26999" x="-4192.4302"/>
 </text>
 <text id="text738" style="text-anchor:middle" transform="scale(4.0128 .2492)" font-size="72.67px" y="620.42999" x="-739.73999" font-family="Arial"/>
 <g id="g740" fill="#fff" transform="matrix(4.4904 0 0 4.4904 112.31 116.42)">
  <path id="path742" d="m61.67 50.577v-16.525h-59.334v16.524c0 4.418 3.582 8 8 8h1.834v1.924h39.667v-1.923h1.834c4.417 0 7.999-3.582 7.999-8m-5.334-11.909c1.15 0 2.083 0.932 2.083 2.083s-0.932 2.083-2.083 2.083c-1.15 0-2.083-0.932-2.083-2.083s0.933-2.083 2.083-2.083m-7 0c1.15 0 2.083 0.932 2.083 2.083s-0.932 2.083-2.083 2.083c-1.15 0-2.083-0.932-2.083-2.083s0.933-2.083 2.083-2.083m-34.666 9.285h34.667v9.547h-34.667v-9.547"/>
  <path id="path744" d="m38.11 2.716c-1.076-1.26-2.972-1.405-4.229-0.33l-28.833 24.668c-0.401 0.343-0.675 0.772-0.847 1.234-0.887 1.057-1.499 2.348-1.744 3.765h19.872v-6.63h-6.147l21.596-18.477c1.259-1.077 1.406-2.971 0.329-4.23"/>
 </g>
</svg>
