<?xml version="1.0" encoding="UTF-8" standalone="no"?>
<!-- Created with Inkscape (http://www.inkscape.org/) -->
<svg id="svg2" xmlns:rdf="http://www.w3.org/1999/02/22-rdf-syntax-ns#" xmlns="http://www.w3.org/2000/svg" height="100%" width="100%" version="1.1" xmlns:cc="http://creativecommons.org/ns#" viewBox="0 0 512 512" xmlns:dc="http://purl.org/dc/elements/1.1/">
 <metadata id="metadata394">
  <rdf:RDF>
   <cc:Work rdf:about="">
    <dc:format>image/svg+xml</dc:format>
    <dc:type rdf:resource="http://purl.org/dc/dcmitype/StillImage"/>
   </cc:Work>
  </rdf:RDF>
 </metadata>
 <text id="text4" style="word-spacing:0;letter-spacing:0" font-size="129.23px" line-height="125%" y="231.36" x="729.64001" font-family="Gentium Book Basic">
  <tspan id="tspan6" y="231.36" x="729.64001"/>
 </text>
 <text id="text8" style="text-anchor:middle" transform="scale(4.0128 .2492)" font-size="46.954px" y="579.25" x="378.91" font-family="Arial"/>
 <text id="text10" style="word-spacing:0;letter-spacing:0" font-size="129.23px" line-height="125%" y="151.36" x="1310.91" font-family="Gentium Book Basic">
  <tspan id="tspan12" y="151.36" x="1310.91"/>
 </text>
 <text id="text14" style="text-anchor:middle" transform="scale(4.0128 .2492)" font-size="46.954px" y="258.22" x="523.76001" font-family="Arial"/>
 <text id="text16" style="word-spacing:0;letter-spacing:0" font-size="129.23px" line-height="125%" y="-29.900999" x="239.33" font-family="Gentium Book Basic">
  <tspan id="tspan18" y="-29.900999" x="239.33"/>
 </text>
 <text id="text20" style="text-anchor:middle" transform="scale(4.0128 .2492)" font-size="46.954px" y="-469.14001" x="256.72" font-family="Arial"/>
 <text id="text22" style="word-spacing:0;letter-spacing:0" font-size="129.23px" line-height="125%" y="-246.37" x="1337.38" font-family="Gentium Book Basic">
  <tspan id="tspan24" y="-246.37" x="1337.38"/>
 </text>
 <text id="text26" style="text-anchor:middle" transform="scale(4.0128 .2492)" font-size="46.954px" y="-1337.8101" x="530.35999" font-family="Arial"/>
 <text id="text28" style="word-spacing:0;letter-spacing:0" font-size="129.23px" line-height="125%" y="-326.38" x="1918.65" font-family="Gentium Book Basic">
  <tspan id="tspan30" y="-326.38" x="1918.65"/>
 </text>
 <text id="text32" style="text-anchor:middle" transform="scale(4.0128 .2492)" font-size="46.954px" y="-1658.85" x="675.21002" font-family="Arial"/>
 <text id="text34" style="word-spacing:0;letter-spacing:0" font-size="129.23px" line-height="125%" y="-798.78003" x="1529.53" font-family="Gentium Book Basic">
  <tspan id="tspan36" y="-798.78003" x="1529.53"/>
 </text>
 <text id="text38" style="text-anchor:middle" transform="scale(4.0128 .2492)" font-size="46.954px" y="-3554.51" x="578.23999" font-family="Arial"/>
 <text id="text40" style="word-spacing:0;letter-spacing:0" font-size="129.23px" line-height="125%" y="-878.78003" x="2110.79" font-family="Gentium Book Basic">
  <tspan id="tspan42" y="-878.78003" x="2110.79"/>
 </text>
 <text id="text44" style="text-anchor:middle" transform="scale(4.0128 .2492)" font-size="46.954px" y="-3875.54" x="723.09003" font-family="Arial"/>
 <g id="g46" style="word-spacing:0;letter-spacing:0" font-family="Gentium Book Basic" line-height="125%">
  <text id="text48" y="535.94" x="277.98999" font-size="208.33px">
   <tspan id="tspan50" y="535.94" x="277.98999"/>
  </text>
  <text id="text52" y="-11.341" x="-307.17999" font-size="200px">
   <tspan id="tspan54" y="-11.341" x="-307.17999"/>
  </text>
 </g>
 <text id="text56" style="text-anchor:middle" transform="scale(4.0128 .2492)" font-size="72.67px" y="-585.88" x="228.47" font-family="Arial"/>
 <text id="text58" style="word-spacing:0;letter-spacing:0" font-size="200px" line-height="125%" y="41.801998" x="438.20001" font-family="Gentium Book Basic">
  <tspan id="tspan60" y="41.801998" x="438.20001"/>
 </text>
 <text id="text62" style="text-anchor:middle" transform="scale(4.0128 .2492)" font-size="72.67px" y="-372.63" x="414.22" font-family="Arial"/>
 <text id="text64" style="word-spacing:0;letter-spacing:0" font-size="200px" line-height="125%" y="-82.019997" x="1337.8101" font-family="Gentium Book Basic">
  <tspan id="tspan66" y="-82.019997" x="1337.8101"/>
 </text>
 <text id="text68" style="text-anchor:middle" transform="scale(4.0128 .2492)" font-size="72.67px" y="-869.48999" x="638.40002" font-family="Arial"/>
 <text id="text70" style="word-spacing:0;letter-spacing:0" font-size="200px" line-height="125%" y="-134.64999" x="465.66" font-family="Gentium Book Basic">
  <tspan id="tspan72" y="-134.64999" x="465.66"/>
 </text>
 <text id="text74" style="text-anchor:middle" transform="scale(4.0128 .2492)" font-size="72.67px" y="-1080.71" x="421.06" font-family="Arial"/>
 <text id="text76" style="word-spacing:0;letter-spacing:0" font-size="200px" line-height="125%" y="-258.47" x="1365.27" font-family="Gentium Book Basic">
  <tspan id="tspan78" y="-258.47" x="1365.27"/>
 </text>
 <text id="text80" style="text-anchor:middle" transform="scale(4.0128 .2492)" font-size="72.67px" y="-1577.5699" x="645.23999" font-family="Arial"/>
 <text id="text82" style="word-spacing:0;letter-spacing:0" font-size="200px" line-height="125%" y="317.23001" x="-2544.3201" font-family="Gentium Book Basic">
  <tspan id="tspan84" y="317.23001" x="-2544.3201"/>
 </text>
 <text id="text86" style="text-anchor:middle" transform="scale(4.0128 .2492)" font-size="72.67px" y="732.62" x="-329.03" font-family="Arial"/>
 <text id="text88" style="word-spacing:0;letter-spacing:0" font-size="200px" line-height="125%" y="81.800003" x="-616.03998" font-family="Gentium Book Basic">
  <tspan id="tspan90" y="81.800003" x="-616.03998"/>
 </text>
 <text id="text92" style="text-anchor:middle" transform="scale(4.0128 .2492)" font-size="72.67px" y="-212.12" x="151.5" font-family="Arial"/>
 <text id="text94" style="word-spacing:0;letter-spacing:0" font-size="200px" line-height="125%" y="134.94" x="129.34" font-family="Gentium Book Basic">
  <tspan id="tspan96" y="134.94" x="129.34"/>
 </text>
 <text id="text98" style="text-anchor:middle" transform="scale(4.0128 .2492)" font-size="72.67px" y="1.138" x="337.25" font-family="Arial"/>
 <text id="text100" style="word-spacing:0;letter-spacing:0" font-size="200px" line-height="125%" y="11.127" x="1028.95" font-family="Gentium Book Basic">
  <tspan id="tspan102" y="11.127" x="1028.95"/>
 </text>
 <text id="text104" style="text-anchor:middle" transform="scale(4.0128 .2492)" font-size="72.67px" y="-495.72" x="561.42999" font-family="Arial"/>
 <text id="text106" style="word-spacing:0;letter-spacing:0" font-size="200px" line-height="125%" y="-41.509998" x="156.8" font-family="Gentium Book Basic">
  <tspan id="tspan108" y="-41.509998" x="156.8"/>
 </text>
 <text id="text110" style="text-anchor:middle" transform="scale(4.0128 .2492)" font-size="72.67px" y="-706.95001" x="344.09" font-family="Arial"/>
 <text id="text112" style="word-spacing:0;letter-spacing:0" font-size="200px" line-height="125%" y="-165.33" x="1056.42" font-family="Gentium Book Basic">
  <tspan id="tspan114" y="-165.33" x="1056.42"/>
 </text>
 <text id="text116" style="text-anchor:middle" transform="scale(4.0128 .2492)" font-size="72.67px" y="-1203.8101" x="568.28003" font-family="Arial"/>
 <text id="text118" style="word-spacing:0;letter-spacing:0" font-size="200px" line-height="125%" y="410.37" x="-2853.1799" font-family="Gentium Book Basic">
  <tspan id="tspan120" y="410.37" x="-2853.1799"/>
 </text>
 <text id="text122" style="text-anchor:middle" transform="scale(4.0128 .2492)" font-size="72.67px" y="1106.39" x="-406" font-family="Arial"/>
 <text id="text124" style="word-spacing:0;letter-spacing:0" font-size="200px" line-height="125%" y="-35.060001" x="-1330.61" font-family="Gentium Book Basic">
  <tspan id="tspan126" y="-35.060001" x="-1330.61"/>
 </text>
 <text id="text128" style="text-anchor:middle" transform="scale(4.0128 .2492)" font-size="72.67px" y="-681.03998" x="-26.570999" font-family="Arial"/>
 <text id="text130" style="word-spacing:0;letter-spacing:0" font-size="200px" line-height="125%" y="18.09" x="-585.22998" font-family="Gentium Book Basic">
  <tspan id="tspan132" y="18.09" x="-585.22998"/>
 </text>
 <text id="text134" style="text-anchor:middle" transform="scale(4.0128 .2492)" font-size="72.67px" y="-467.79001" x="159.17999" font-family="Arial"/>
 <text id="text136" style="word-spacing:0;letter-spacing:0" font-size="200px" line-height="125%" y="-105.73" x="314.38" font-family="Gentium Book Basic">
  <tspan id="tspan138" y="-105.73" x="314.38"/>
 </text>
 <text id="text140" style="text-anchor:middle" transform="scale(4.0128 .2492)" font-size="72.67px" y="-964.65002" x="383.35999" font-family="Arial"/>
 <text id="text142" style="word-spacing:0;letter-spacing:0" font-size="200px" line-height="125%" y="-158.37" x="-557.77002" font-family="Gentium Book Basic">
  <tspan id="tspan144" y="-158.37" x="-557.77002"/>
 </text>
 <text id="text146" style="text-anchor:middle" transform="scale(4.0128 .2492)" font-size="72.67px" y="-1175.88" x="166.02" font-family="Arial"/>
 <text id="text148" style="word-spacing:0;letter-spacing:0" font-size="200px" line-height="125%" y="-282.17999" x="341.85001" font-family="Gentium Book Basic">
  <tspan id="tspan150" y="-282.17999" x="341.85001"/>
 </text>
 <text id="text152" style="text-anchor:middle" transform="scale(4.0128 .2492)" font-size="72.67px" y="-1672.73" x="390.20001" font-family="Arial"/>
 <text id="text154" style="word-spacing:0;letter-spacing:0" font-size="200px" line-height="125%" y="293.51999" x="-3567.75" font-family="Gentium Book Basic">
  <tspan id="tspan156" y="293.51999" x="-3567.75"/>
 </text>
 <text id="text158" style="text-anchor:middle" transform="scale(4.0128 .2492)" font-size="72.67px" y="637.46002" x="-584.07001" font-family="Arial"/>
 <path id="path160" fill="#e96d63" d="m471.95 253.05c0 120.9-98.01 218.9-218.9 218.9-120.9 0-218.9-98.01-218.9-218.9 0-120.9 98.01-218.9 218.9-218.9 120.9 0 218.9 98.01 218.9 218.9" fill-rule="evenodd"/>
 <path id="path162" d="m354.28 164.28c-8.305 0.105-16.79 0.916-24.781 0.25-60.38-0.001-120.75 0.004-181.12 0-20.992-0.702-35.442 20.572-32.28 40.16 0.44 28.36-0.898 56.846 0.75 85.13 3.911 17.531 22.837 26.09 31.531 40.06-2.314 15.241 13.677 23.02 22.09 33.28 35.769 35.799 71.56 71.59 107.34 107.38 107.18-12.07 190.91-101.5 194.03-211.16-29.18-29.18-58.38-58.33-87.66-87.41-8.814-6.793-19.229-7.822-29.906-7.688" fill-opacity="0.235"/>
 <g id="g164" fill-rule="evenodd">
  <path id="path166" d="m256 1c-140.83 0-255 114.17-255 255s114.17 255 255 255 255-114.17 255-255-114.17-255-255-255m8.827 44.931c120.9 0 218.9 98 218.9 218.9s-98 218.9-218.9 218.9-218.93-98-218.93-218.9 98.03-218.9 218.93-218.9" fill-opacity="0.067"/>
  <g id="g168" fill-opacity="0.129">
   <path id="path170" d="m256 4.433c-138.94 0-251.57 112.63-251.57 251.57s112.63 251.57 251.57 251.57 251.57-112.63 251.57-251.57-112.63-251.57-251.57-251.57m5.885 38.556c120.9 0 218.9 98 218.9 218.9s-98 218.9-218.9 218.9-218.93-98-218.93-218.9 98.03-218.9 218.93-218.9"/>
   <path id="path172" d="m256 8.356c-136.77 0-247.64 110.87-247.64 247.64s110.87 247.64 247.64 247.64 247.64-110.87 247.64-247.64-110.87-247.64-247.64-247.64m2.942 31.691c120.9 0 218.9 98 218.9 218.9s-98 218.9-218.9 218.9-218.93-98-218.93-218.9 98.03-218.9 218.93-218.9"/>
  </g>
  <path id="path174" d="m253.04 7.859c-135.42 0-245.19 109.78-245.19 245.19 0 135.42 109.78 245.19 245.19 245.19 135.42 0 245.19-109.78 245.19-245.19 0-135.42-109.78-245.19-245.19-245.19zm0 26.297c120.9 0 218.9 98 218.9 218.9s-98 218.9-218.9 218.9-218.93-98-218.93-218.9 98.03-218.9 218.93-218.9z" stroke-opacity="0.31" stroke="#000" stroke-width="4.904" fill="#fff"/>
 </g>
 <text id="text176" style="word-spacing:0;letter-spacing:0" font-size="129.23px" line-height="125%" y="231.36" x="729.64001" font-family="Gentium Book Basic">
  <tspan id="tspan178" y="231.36" x="729.64001"/>
 </text>
 <text id="text180" style="text-anchor:middle" transform="scale(4.0128 .2492)" font-size="46.954px" y="579.25" x="378.91" font-family="Arial"/>
 <text id="text182" style="word-spacing:0;letter-spacing:0" font-size="129.23px" line-height="125%" y="151.36" x="1310.91" font-family="Gentium Book Basic">
  <tspan id="tspan184" y="151.36" x="1310.91"/>
 </text>
 <text id="text186" style="text-anchor:middle" transform="scale(4.0128 .2492)" font-size="46.954px" y="258.22" x="523.76001" font-family="Arial"/>
 <text id="text188" style="word-spacing:0;letter-spacing:0" font-size="129.23px" line-height="125%" y="-29.900999" x="239.33" font-family="Gentium Book Basic">
  <tspan id="tspan190" y="-29.900999" x="239.33"/>
 </text>
 <text id="text192" style="text-anchor:middle" transform="scale(4.0128 .2492)" font-size="46.954px" y="-469.14001" x="256.72" font-family="Arial"/>
 <text id="text194" style="word-spacing:0;letter-spacing:0" font-size="129.23px" line-height="125%" y="-246.37" x="1337.38" font-family="Gentium Book Basic">
  <tspan id="tspan196" y="-246.37" x="1337.38"/>
 </text>
 <text id="text198" style="text-anchor:middle" transform="scale(4.0128 .2492)" font-size="46.954px" y="-1337.8" x="530.35999" font-family="Arial"/>
 <text id="text200" style="word-spacing:0;letter-spacing:0" font-size="129.23px" line-height="125%" y="-326.38" x="1918.65" font-family="Gentium Book Basic">
  <tspan id="tspan202" y="-326.38" x="1918.65"/>
 </text>
 <text id="text204" style="text-anchor:middle" transform="scale(4.0128 .2492)" font-size="46.954px" y="-1658.84" x="675.21002" font-family="Arial"/>
 <text id="text206" style="word-spacing:0;letter-spacing:0" font-size="129.23px" line-height="125%" y="-798.78003" x="1529.53" font-family="Gentium Book Basic">
  <tspan id="tspan208" y="-798.78003" x="1529.53"/>
 </text>
 <text id="text210" style="text-anchor:middle" transform="scale(4.0128 .2492)" font-size="46.954px" y="-3554.49" x="578.23999" font-family="Arial"/>
 <text id="text212" style="word-spacing:0;letter-spacing:0" font-size="129.23px" line-height="125%" y="-878.78003" x="2110.79" font-family="Gentium Book Basic">
  <tspan id="tspan214" y="-878.78003" x="2110.79"/>
 </text>
 <text id="text216" style="text-anchor:middle" transform="scale(4.0128 .2492)" font-size="46.954px" y="-3875.52" x="723.09003" font-family="Arial"/>
 <g id="g218" style="word-spacing:0;letter-spacing:0" font-family="Gentium Book Basic" line-height="125%">
  <text id="text220" y="535.94" x="277.98999" font-size="208.33px">
   <tspan id="tspan222" y="535.94" x="277.98999"/>
  </text>
  <text id="text224" y="227.12" x="104.96" font-size="129.23px">
   <tspan id="tspan226" y="227.12" x="104.96"/>
  </text>
 </g>
 <text id="text228" style="text-anchor:middle" transform="scale(4.0128 .2492)" font-size="46.954px" y="562.22998" x="223.24001" font-family="Arial"/>
 <text id="text230" style="word-spacing:0;letter-spacing:0" font-size="129.23px" line-height="125%" y="147.11" x="686.22998" font-family="Gentium Book Basic">
  <tspan id="tspan232" y="147.11" x="686.22998"/>
 </text>
 <text id="text234" style="text-anchor:middle" transform="scale(4.0128 .2492)" font-size="46.954px" y="241.19" x="368.09" font-family="Arial"/>
 <text id="text236" style="word-spacing:0;letter-spacing:0" font-size="129.23px" line-height="125%" y="-34.139999" x="-385.35001" font-family="Gentium Book Basic">
  <tspan id="tspan238" y="-34.139999" x="-385.35001"/>
 </text>
 <text id="text240" style="text-anchor:middle" transform="scale(4.0128 .2492)" font-size="46.954px" y="-486.16" x="101.05" font-family="Arial"/>
 <text id="text242" style="word-spacing:0;letter-spacing:0" font-size="129.23px" line-height="125%" y="-250.62" x="712.70001" font-family="Gentium Book Basic">
  <tspan id="tspan244" y="-250.62" x="712.70001"/>
 </text>
 <text id="text246" style="text-anchor:middle" transform="scale(4.0128 .2492)" font-size="46.954px" y="-1354.84" x="374.69" font-family="Arial"/>
 <text id="text248" style="word-spacing:0;letter-spacing:0" font-size="129.23px" line-height="125%" y="-330.62" x="1293.97" font-family="Gentium Book Basic">
  <tspan id="tspan250" y="-330.62" x="1293.97"/>
 </text>
 <text id="text252" style="text-anchor:middle" transform="scale(4.0128 .2492)" font-size="46.954px" y="-1675.87" x="519.53998" font-family="Arial"/>
 <text id="text254" style="word-spacing:0;letter-spacing:0" font-size="129.23px" line-height="125%" y="-803.02002" x="904.84998" font-family="Gentium Book Basic">
  <tspan id="tspan256" y="-803.02002" x="904.84998"/>
 </text>
 <text id="text258" style="text-anchor:middle" transform="scale(4.0128 .2492)" font-size="46.954px" y="-3571.53" x="422.57001" font-family="Arial"/>
 <text id="text260" style="word-spacing:0;letter-spacing:0" font-size="129.23px" line-height="125%" y="-883.02002" x="1486.12" font-family="Gentium Book Basic">
  <tspan id="tspan262" y="-883.02002" x="1486.12"/>
 </text>
 <text id="text264" style="text-anchor:middle" transform="scale(4.0128 .2492)" font-size="46.954px" y="-3892.5701" x="567.41998" font-family="Arial"/>
 <g id="g266" style="word-spacing:0;letter-spacing:0" font-family="Gentium Book Basic" line-height="125%">
  <text id="text268" y="531.69" x="-346.69" font-size="208.33px">
   <tspan id="tspan270" y="531.69" x="-346.69"/>
  </text>
  <text id="text272" y="-15.584" x="-931.85999" font-size="200px">
   <tspan id="tspan274" y="-15.584" x="-931.85999"/>
  </text>
 </g>
 <text id="text276" style="text-anchor:middle" transform="scale(4.0128 .2492)" font-size="72.67px" y="-602.90997" x="72.796997" font-family="Arial"/>
 <text id="text278" style="word-spacing:0;letter-spacing:0" font-size="200px" line-height="125%" y="37.558998" x="-186.48" font-family="Gentium Book Basic">
  <tspan id="tspan280" y="37.558998" x="-186.48"/>
 </text>
 <text id="text282" style="text-anchor:middle" transform="scale(4.0128 .2492)" font-size="72.67px" y="-389.66" x="258.54999" font-family="Arial"/>
 <text id="text284" style="word-spacing:0;letter-spacing:0" font-size="200px" line-height="125%" y="-86.260002" x="713.13" font-family="Gentium Book Basic">
  <tspan id="tspan286" y="-86.260002" x="713.13"/>
 </text>
 <text id="text288" style="text-anchor:middle" transform="scale(4.0128 .2492)" font-size="72.67px" y="-886.51001" x="482.73001" font-family="Arial"/>
 <text id="text290" style="word-spacing:0;letter-spacing:0" font-size="200px" line-height="125%" y="-138.89999" x="-159.02" font-family="Gentium Book Basic">
  <tspan id="tspan292" y="-138.89999" x="-159.02"/>
 </text>
 <text id="text294" style="text-anchor:middle" transform="scale(4.0128 .2492)" font-size="72.67px" y="-1097.74" x="265.39001" font-family="Arial"/>
 <text id="text296" style="word-spacing:0;letter-spacing:0" font-size="200px" line-height="125%" y="-262.70999" x="740.59998" font-family="Gentium Book Basic">
  <tspan id="tspan298" y="-262.70999" x="740.59998"/>
 </text>
 <text id="text300" style="text-anchor:middle" transform="scale(4.0128 .2492)" font-size="72.67px" y="-1594.6" x="489.57001" font-family="Arial"/>
 <text id="text302" style="word-spacing:0;letter-spacing:0" font-size="200px" line-height="125%" y="312.98999" x="-3169" font-family="Gentium Book Basic">
  <tspan id="tspan304" y="312.98999" x="-3169"/>
 </text>
 <text id="text306" style="text-anchor:middle" transform="scale(4.0128 .2492)" font-size="72.67px" y="715.59003" x="-484.70001" font-family="Arial"/>
 <text id="text308" style="word-spacing:0;letter-spacing:0" font-size="200px" line-height="125%" y="77.559998" x="-1240.72" font-family="Gentium Book Basic">
  <tspan id="tspan310" y="77.559998" x="-1240.72"/>
 </text>
 <text id="text312" style="text-anchor:middle" transform="scale(4.0128 .2492)" font-size="72.67px" y="-229.14" x="-4.1700001" font-family="Arial"/>
 <text id="text314" style="word-spacing:0;letter-spacing:0" font-size="200px" line-height="125%" y="130.7" x="-495.34" font-family="Gentium Book Basic">
  <tspan id="tspan316" y="130.7" x="-495.34"/>
 </text>
 <text id="text318" style="text-anchor:middle" transform="scale(4.0128 .2492)" font-size="72.67px" y="-15.889" x="181.58" font-family="Arial"/>
 <text id="text320" style="word-spacing:0;letter-spacing:0" font-size="200px" line-height="125%" y="6.8839998" x="404.26999" font-family="Gentium Book Basic">
  <tspan id="tspan322" y="6.8839998" x="404.26999"/>
 </text>
 <text id="text324" style="text-anchor:middle" transform="scale(4.0128 .2492)" font-size="72.67px" y="-512.75" x="405.76001" font-family="Arial"/>
 <text id="text326" style="word-spacing:0;letter-spacing:0" font-size="200px" line-height="125%" y="-45.754002" x="-467.88" font-family="Gentium Book Basic">
  <tspan id="tspan328" y="-45.754002" x="-467.88"/>
 </text>
 <text id="text330" style="text-anchor:middle" transform="scale(4.0128 .2492)" font-size="72.67px" y="-723.96997" x="188.42" font-family="Arial"/>
 <text id="text332" style="word-spacing:0;letter-spacing:0" font-size="200px" line-height="125%" y="-169.57001" x="431.73999" font-family="Gentium Book Basic">
  <tspan id="tspan334" y="-169.57001" x="431.73999"/>
 </text>
 <text id="text336" style="text-anchor:middle" transform="scale(4.0128 .2492)" font-size="72.67px" y="-1220.83" x="412.60999" font-family="Arial"/>
 <text id="text338" style="word-spacing:0;letter-spacing:0" font-size="200px" line-height="125%" y="406.13" x="-3477.8601" font-family="Gentium Book Basic">
  <tspan id="tspan340" y="406.13" x="-3477.8601"/>
 </text>
 <text id="text342" style="text-anchor:middle" transform="scale(4.0128 .2492)" font-size="72.67px" y="1089.36" x="-561.66998" font-family="Arial"/>
 <text id="text344" style="word-spacing:0;letter-spacing:0" font-size="200px" line-height="125%" y="-39.299999" x="-1955.29" font-family="Gentium Book Basic">
  <tspan id="tspan346" y="-39.299999" x="-1955.29"/>
 </text>
 <text id="text348" style="text-anchor:middle" transform="scale(4.0128 .2492)" font-size="72.67px" y="-698.07001" x="-182.24001" font-family="Arial"/>
 <text id="text350" style="word-spacing:0;letter-spacing:0" font-size="200px" line-height="125%" y="13.844" x="-1209.91" font-family="Gentium Book Basic">
  <tspan id="tspan352" y="13.844" x="-1209.91"/>
 </text>
 <text id="text354" style="text-anchor:middle" transform="scale(4.0128 .2492)" font-size="72.67px" y="-484.82001" x="3.507" font-family="Arial"/>
 <text id="text356" style="word-spacing:0;letter-spacing:0" font-size="200px" line-height="125%" y="-109.97" x="-310.29999" font-family="Gentium Book Basic">
  <tspan id="tspan358" y="-109.97" x="-310.29999"/>
 </text>
 <text id="text360" style="text-anchor:middle" transform="scale(4.0128 .2492)" font-size="72.67px" y="-981.67999" x="227.69" font-family="Arial"/>
 <text id="text362" style="word-spacing:0;letter-spacing:0" font-size="200px" line-height="125%" y="-162.61" x="-1182.45" font-family="Gentium Book Basic">
  <tspan id="tspan364" y="-162.61" x="-1182.45"/>
 </text>
 <text id="text366" style="text-anchor:middle" transform="scale(4.0128 .2492)" font-size="72.67px" y="-1192.9" x="10.351" font-family="Arial"/>
 <text id="text368" style="word-spacing:0;letter-spacing:0" font-size="200px" line-height="125%" y="-286.42999" x="-282.82999" font-family="Gentium Book Basic">
  <tspan id="tspan370" y="-286.42999" x="-282.82999"/>
 </text>
 <text id="text372" style="text-anchor:middle" transform="scale(4.0128 .2492)" font-size="72.67px" y="-1689.76" x="234.53999" font-family="Arial"/>
 <text id="text374" style="word-spacing:0;letter-spacing:0" font-size="200px" line-height="125%" y="289.26999" x="-4192.4302" font-family="Gentium Book Basic">
  <tspan id="tspan376" y="289.26999" x="-4192.4302"/>
 </text>
 <text id="text378" style="text-anchor:middle" transform="scale(4.0128 .2492)" font-size="72.67px" y="620.42999" x="-739.73999" font-family="Arial"/>
 <g id="g380" fill="#fff" transform="matrix(10.762 0 0 10.762 116.1 89.19)">
  <path id="path382" d="m7 22v1c0 0.551-0.449 1-1 1h-2c-0.551 0-1-0.449-1-1v-1h4"/>
  <path id="path384" d="m23 22v1c0 0.551-0.449 1-1 1h-2c-0.551 0-1-0.449-1-1v-1h4"/>
  <path id="path386" d="m23 7h-20c-1.657 0-3 1.344-3 3v8c0 1.656 1.343 3 3 3h20c1.657 0 3-1.344 3-3v-8c0-1.656-1.343-3-3-3m-12.5 10h-7c-0.276 0-0.5-0.225-0.5-0.5s0.224-0.5 0.5-0.5h7c0.276 0 0.5 0.225 0.5 0.5s-0.224 0.5-0.5 0.5m0-2h-7c-0.276 0-0.5-0.225-0.5-0.5s0.224-0.5 0.5-0.5h7c0.276 0 0.5 0.225 0.5 0.5s-0.224 0.5-0.5 0.5m0-2h-7c-0.276 0-0.5-0.224-0.5-0.5s0.224-0.5 0.5-0.5h7c0.276 0 0.5 0.224 0.5 0.5s-0.224 0.5-0.5 0.5m8.5 6.06c-2.793 0-5.059-2.265-5.059-5.059s2.266-5.059 5.059-5.059 5.059 2.265 5.059 5.059-2.266 5.059-5.059 5.059"/>
  <circle id="circle388" cy="14" cx="19" r="2.813"/>
 </g>
</svg>
