/* XPM */
static char * top_left_active_xpm[] = {
"4 22 4 1",
" 	c None",
".	c #323232",
"+	c #282828",
"@	c #222222",
" .++",
".+++",
"++++",
"++++",
"++++",
"++++",
"++++",
"++++",
"@@@@",
"@@@@",
"@@@@",
"@@@@",
"@@@@",
"@@@@",
"@@@@",
"@@@@",
"@@@@",
"@@@@",
"@@@@",
"@@@@",
"    ",
"    "};
