<?xml version="1.0" encoding="UTF-8" standalone="no"?>
<svg
   xmlns:dc="http://purl.org/dc/elements/1.1/"
   xmlns:cc="http://creativecommons.org/ns#"
   xmlns:rdf="http://www.w3.org/1999/02/22-rdf-syntax-ns#"
   xmlns:svg="http://www.w3.org/2000/svg"
   xmlns="http://www.w3.org/2000/svg"
   xmlns:sodipodi="http://sodipodi.sourceforge.net/DTD/sodipodi-0.dtd"
   xmlns:inkscape="http://www.inkscape.org/namespaces/inkscape"
   height="100%"
   width="100%"
   version="1.1"
   id="svg2"
   viewBox="0 0 512 512"
   inkscape:version="0.91 r"
   sodipodi:docname="mail-mark-important.svg">
  <sodipodi:namedview
     pagecolor="#ffffff"
     bordercolor="#666666"
     borderopacity="1"
     objecttolerance="10"
     gridtolerance="10"
     guidetolerance="10"
     inkscape:pageopacity="0"
     inkscape:pageshadow="2"
     inkscape:window-width="640"
     inkscape:window-height="480"
     id="namedview8"
     showgrid="false"
     inkscape:zoom="0.4609375"
     inkscape:cx="256"
     inkscape:cy="256"
     inkscape:window-x="0"
     inkscape:window-y="0"
     inkscape:window-maximized="0"
     inkscape:current-layer="svg2" />
  <metadata
     id="metadata102">
    <rdf:RDF>
      <cc:Work
         rdf:about="">
        <dc:format>image/svg+xml</dc:format>
        <dc:type
           rdf:resource="http://purl.org/dc/dcmitype/StillImage" />
        <dc:title />
      </cc:Work>
    </rdf:RDF>
  </metadata>
  <defs
     id="defs100" />
  <path
     id="path12"
     d="m 55.79431,95.94715 167.33632,146.44641 167.36729,-146.44641 -334.70361,0 z m -17.29462,15.15605 0,244.54222 L 161.11174,218.5902 38.49969,111.1032 Z m 369.32386,0 -122.64303,107.487 12.98645,14.41218 c 20.52773,-18.45156 47.53844,-29.56821 77.17494,-29.56821 11.35417,0 22.05784,1.98403 32.45065,5.05201 l 0.0309,-97.38298 z m -32.41967,109.47061 c -54.08386,0 -98.09584,43.29384 -98.09584,97.38298 0,54.08387 44.02256,98.09584 98.09584,98.09584 54.08387,0 98.09583,-44.02256 98.09583,-98.09584 0,-54.08384 -44.02255,-97.38298 -98.09583,-97.38298 z m -196.96652,13.14144 -124.81263,139.2248 220.73889,0 c -9.00959,-16.41638 -14.44319,-34.87843 -14.44319,-54.82827 0,-25.42993 8.28606,-48.79929 22.37765,-67.78378 l -14.44319,-16.61275 -44.72426,38.95939 -44.69327,-38.95939 z m 196.96652,3.47132 c 6.65173,0 12.3712,2.26851 16.58176,6.47774 4.47899,4.75273 6.47775,10.80036 6.47775,19.4952 0,8.82309 -2.2738,19.18085 -6.47775,30.99393 l -5.05201,14.44319 c -2.44382,7.33011 -4.13831,17.5172 -5.76488,30.28108 l -11.56072,0 c -0.27375,-1.90161 -0.43914,-3.28528 -0.71287,-5.05201 -0.13477,-1.76675 -0.44441,-3.42547 -0.71287,-5.05202 -0.68236,-4.07565 -1.35761,-8.27134 -2.16956,-11.52974 -0.68237,-3.25444 -1.21877,-6.20351 -2.16958,-8.64731 l -5.05202,-14.44319 c -4.21054,-11.8144 -6.47773,-22.17084 -6.47773,-30.99393 0,-8.28623 2.7744,-14.33912 7.93444,-19.4952 4.20525,-4.21055 9.18008,-6.47774 15.15604,-6.47774 z m -0.74385,123.3249 c 5.70354,0 10.77614,1.96296 14.44317,5.76488 3.80192,3.80192 5.76488,8.29654 5.76488,13.73034 0,5.42848 -1.96296,9.89738 -5.76488,13.69932 -3.66703,3.66702 -8.74095,5.76486 -14.44317,5.76486 -5.42848,0 -9.89739,-2.09784 -13.69932,-5.76486 -3.80192,-3.80194 -5.76487,-8.27084 -5.76487,-13.69932 0,-5.4338 1.96295,-9.92842 5.76487,-13.73034 3.80193,-3.80192 8.27084,-5.76488 13.69932,-5.76488 z"
     style="fill:#BFBFBF;fill-rule:evenodd" />
</svg>
