<?xml version="1.0" encoding="UTF-8" standalone="no"?>
<svg
   xmlns:dc="http://purl.org/dc/elements/1.1/"
   xmlns:cc="http://creativecommons.org/ns#"
   xmlns:rdf="http://www.w3.org/1999/02/22-rdf-syntax-ns#"
   xmlns:svg="http://www.w3.org/2000/svg"
   xmlns="http://www.w3.org/2000/svg"
   xmlns:sodipodi="http://sodipodi.sourceforge.net/DTD/sodipodi-0.dtd"
   xmlns:inkscape="http://www.inkscape.org/namespaces/inkscape"
   height="100%"
   width="100%"
   version="1.1"
   id="svg2"
   viewBox="0 0 512 512"
   inkscape:version="0.91 r"
   sodipodi:docname="object-flip-horizontal.svg">
  <sodipodi:namedview
     pagecolor="#ffffff"
     bordercolor="#666666"
     borderopacity="1"
     objecttolerance="10"
     gridtolerance="10"
     guidetolerance="10"
     inkscape:pageopacity="0"
     inkscape:pageshadow="2"
     inkscape:window-width="640"
     inkscape:window-height="480"
     id="namedview8"
     showgrid="false"
     inkscape:zoom="0.4609375"
     inkscape:cx="256"
     inkscape:cy="256"
     inkscape:window-x="0"
     inkscape:window-y="0"
     inkscape:window-maximized="0"
     inkscape:current-layer="svg2" />
  <metadata
     id="metadata100">
    <rdf:RDF>
      <cc:Work
         rdf:about="">
        <dc:format>image/svg+xml</dc:format>
        <dc:type
           rdf:resource="http://purl.org/dc/dcmitype/StillImage" />
        <dc:title />
      </cc:Work>
    </rdf:RDF>
  </metadata>
  <defs
     id="defs98" />
  <path
     id="path4005"
     d="m 218.40577,66.8662 a 14.010108,14.010108 0 0 0 -12.40625,8.34375 L 52.18702,425.4912 a 14.010108,14.010108 0 0 0 12.8125,19.65625 l 153.84375,0 a 14.010108,14.010108 0 0 0 14,-14.03125 l 0,-350.25 a 14.010108,14.010108 0 0 0 -14.4375,-14 z m 74.15625,0 a 14.010108,14.010108 0 0 0 -13.40625,14 l 0,350.25 a 14.010108,14.010108 0 0 0 14,14.03125 l 153.84375,0 a 14.010108,14.010108 0 0 0 12.8125,-19.65625 L 305.99952,75.20995 a 14.010108,14.010108 0 0 0 -13.4375,-8.34375 z m 14.625,80.75 118.34375,269.5 -118.34375,0 0,-269.5 z"
     style="color:#000000;font-style:normal;font-variant:normal;font-weight:normal;font-stretch:normal;font-size:medium;line-height:normal;font-family:Sans;-inkscape-font-specification:Sans;text-indent:0;text-align:start;text-decoration:none;text-decoration-line:none;letter-spacing:normal;word-spacing:normal;text-transform:none;direction:ltr;block-progression:tb;writing-mode:lr-tb;baseline-shift:baseline;text-anchor:start;display:inline;overflow:visible;visibility:visible;fill:#BFBFBF;fill-opacity:1;fill-rule:nonzero;stroke:none;stroke-width:28.01741409;marker:none;enable-background:accumulate" />
</svg>
