<?xml version="1.0" encoding="UTF-8" standalone="no"?>
<svg
   xmlns:dc="http://purl.org/dc/elements/1.1/"
   xmlns:cc="http://creativecommons.org/ns#"
   xmlns:rdf="http://www.w3.org/1999/02/22-rdf-syntax-ns#"
   xmlns:svg="http://www.w3.org/2000/svg"
   xmlns="http://www.w3.org/2000/svg"
   xmlns:sodipodi="http://sodipodi.sourceforge.net/DTD/sodipodi-0.dtd"
   xmlns:inkscape="http://www.inkscape.org/namespaces/inkscape"
   height="100%"
   width="100%"
   version="1.1"
   id="svg2"
   viewBox="0 0 512 512"
   inkscape:version="0.91 r"
   sodipodi:docname="stock_spellcheck.svg">
  <sodipodi:namedview
     pagecolor="#ffffff"
     bordercolor="#666666"
     borderopacity="1"
     objecttolerance="10"
     gridtolerance="10"
     guidetolerance="10"
     inkscape:pageopacity="0"
     inkscape:pageshadow="2"
     inkscape:window-width="640"
     inkscape:window-height="480"
     id="namedview8"
     showgrid="false"
     inkscape:zoom="0.4609375"
     inkscape:cx="256"
     inkscape:cy="256"
     inkscape:window-x="0"
     inkscape:window-y="0"
     inkscape:window-maximized="0"
     inkscape:current-layer="svg2" />
  <metadata
     id="metadata100">
    <rdf:RDF>
      <cc:Work
         rdf:about="">
        <dc:format>image/svg+xml</dc:format>
        <dc:type
           rdf:resource="http://purl.org/dc/dcmitype/StillImage" />
        <dc:title />
      </cc:Work>
    </rdf:RDF>
  </metadata>
  <defs
     id="defs98" />
  <path
     style="fill:#BFBFBF;stroke:none"
     id="path497"
     d="m 415.44,133.12992 c -22.993,0 -42.9,12.462 -56.625,35.34 -11.791,19.66 -18.75,44.31 -18.75,67.22 0,18.414 6.01,37.831 15.469,50.53 11.01,14.433 27.808,22.906 46.16,22.906 27.428,0 50.25,-16.455 65.906,-47.813 l -13.344,-11.188 c -11.202,21.907 -28.963,36.09 -45,36.09 -20.09,0 -32.09,-17.694 -32.09,-47.563 0,-21.42 4.858,-43.821 12.781,-59.5 7.924,-15.435 17.362,-23.16 28.375,-23.16 10.05,0 19.722,6.962 26.469,18.688 5.99,10.453 10.417,22.399 11.594,30.875 l 14.313,-3.969 -9.688,-65.25 -10.781,0 -2.313,7.5 c -12.947,-7.718 -21.855,-10.719 -32.469,-10.719 m -289.12,3.219 -53.719,117.25 c -0.967,2 -2.132,4.996 -3.688,8.219 -5.801,14.19 -11.772,19.899 -24.719,23.906 l -2.906,20.19 55.844,0 2.906,-20.19 -3.688,-0.469 c -7.924,-1.246 -11.188,-3.276 -11.188,-7.5 0,-2.979 0.193,-3.234 3.094,-10.438 l 8.875,-21.656 42.906,0 3.094,19.16 c 0.778,4.739 1.344,9.221 1.344,11.469 0,4.983 -2.729,6.952 -11.03,8.469 l -3.656,0.5 -2.719,0.469 -2.906,20.19 68,0 77.69,0 c 18.349,0 32.639,-5.47 42.875,-16.438 9.668,-10.453 15.844,-26.396 15.844,-41.34 0,-19.416 -12.351,-32.856 -30.531,-33.34 20.681,-3.25 34.969,-20.662 34.969,-42.813 0,-12.186 -4.826,-23.16 -12.75,-28.875 -6.957,-4.983 -15.841,-6.719 -35.16,-6.719 l -72.844,0 -2.688,20.16 4.25,0.5 c 6.957,0.758 10.219,4.451 10.219,11.438 0,2.491 -0.382,6.713 -0.781,9.719 l -12.156,85.91 c -2.312,15.435 -5.233,19.423 -15.469,21.16 l -1.5,0.156 c -0.599,-0.224 -1.123,-0.438 -1.375,-0.438 -8.113,-2.491 -8.69,-2.744 -10.813,-6.969 -0.967,-1.733 -1.94,-5.47 -4.063,-16.438 l -22.406,-125.22 -29.16,0 m 149.28,20.25 c 15.259,0 23.19,6.954 23.19,20.656 0,18.17 -11.975,27.875 -33.813,27.875 l -11.969,0 4.25,-29.875 c 1.555,-10.453 2.905,-14.448 5.406,-15.938 2.9,-2 6.947,-2.719 12.938,-2.719 m -146.41,15.469 7.938,54.16 -31.688,0 23.75,-54.16 m 120.94,53.688 16.219,0 c 17.97,0 24.75,5.99 24.75,22.16 0,10.209 -3.298,19.401 -9.688,26.875 -6.179,7.474 -12.579,10.219 -22.625,10.219 -10.05,0 -14.875,-2.991 -14.875,-9.219 0,-0.758 0.592,-7.477 1.938,-19.906 l 4.25,-30.09 0.031,-0.031 m -19.9063,98.4063 a 9.338663,9.338663 0 0 0 -7.78125,4.25 l -17.875,24.594 -17.906,-24.594 a 9.338663,9.338663 0 0 0 -14.90625,0 l -18.625,24.594 -17.906,-24.594 a 9.338663,9.338663 0 0 0 -14.90625,0 l -17.875,24.594 -18.656,-24.594 a 9.338663,9.338663 0 0 0 -10.4375,-3.75 9.338663,9.338663 0 0 0 -4.4375,3.75 l -26.12,35.03 a 9.621309,9.621309 0 1 0 15.65625,11.1875 l 17.906,-25.375 17.875,25.375 a 9.338663,9.338663 0 0 0 15.65625,0 l 17.906,-25.375 17.906,25.375 a 9.338663,9.338663 0 0 0 14.90625,0 l 18.625,-25.375 17.906,25.375 a 9.338663,9.338663 0 0 0 14.90625,0 l 18.625,-25.375 17.875,25.375 a 9.338663,9.338663 0 0 0 14.1875,0.75 9.338663,9.338663 0 0 0 0.75,-0.75 l 17.875,-25.375 18.625,25.375 a 9.338663,9.338663 0 0 0 14.90625,0 l 17.906,-25.375 18.625,25.375 a 9.338663,9.338663 0 0 0 14.90625,0 l 17.906,-25.375 17.906,25.375 a 9.338663,9.338663 0 0 0 15.65625,0 l 17.875,-25.375 17.906,25.375 a 9.621309,9.621309 0 1 0 15.65625,-11.1875 l -26.12,-35.03 a 9.338663,9.338663 0 0 0 -14.90625,0 l -18.625,24.594 -17.875,-24.594 a 9.338663,9.338663 0 0 0 -14.9375,0 l -17.875,24.594 -18.625,-24.594 a 9.338663,9.338663 0 0 0 -14.9375,0 l -17.875,24.594 -17.906,-24.594 a 9.338663,9.338663 0 0 0 -15.65625,0 l -17.875,24.594 -17.906,-24.594 a 9.338663,9.338663 0 0 0 -7.875,-4.25" />
</svg>
