/* XPM */
static char * close_active_xpm[] = {
"25 26 8 1",
" 	c None",
".	c #383A3B",
"+	c #AFAFAF",
"@	c #6D6E6F",
"#	c #A4A4A4",
"$	c #969696",
"%	c #A1A1A1",
"&	c #ABABAB",
".........................",
".........................",
".........................",
".........................",
".........................",
".........................",
".........................",
"........+@.....@+........",
".......#$%@...@%$#.......",
"......@%$$%@.@%$$%@......",
".......@%$$%&%$$%@.......",
"........@%$$$$$%@........",
".........@%$$$%@.........",
".........@%$$$%@.........",
"........@%$$$$$%@........",
".......@%$$%&%$$%@.......",
"......@%$$%@.@%$$%@......",
".......#$%@...@%$#.......",
"........+@.....@+........",
".........................",
".........................",
".........................",
".........................",
".........................",
".........................",
"........................."};
