/* XPM */
static char * close_pressed_xpm[] = {
"25 26 9 1",
" 	c None",
".	c #383A3B",
"+	c #B7B7B7",
"@	c #999999",
"#	c #B1B1B1",
"$	c #868686",
"%	c #6E6E6E",
"&	c #818181",
"*	c #939393",
".........................",
".........................",
".........................",
".........................",
".........................",
".........................",
".........................",
".......+@#.....#@+.......",
"......+$%&#...#&%$+......",
"......#&%%&#.#&%%&#......",
".......#&%%&*&%%&#.......",
"........#&%%%%%&#........",
".........+&%%%%+.........",
".........+%%%%$+.........",
"........+&%%%%%&#........",
".......#&%%&*&%%&#.......",
"......#&%%&#.#&%%&#......",
"......+$%&#...#&%$+......",
".......+@#.....#@+.......",
".........................",
".........................",
".........................",
".........................",
".........................",
".........................",
"........................."};
