/* XPM */
static char * hide_prelight_xpm[] = {
"25 26 10 1",
" 	c None",
".	c #383A3B",
"+	c #AFAFAF",
"@	c #A6A6A6",
"#	c #B1B1B1",
"$	c #939393",
"%	c #828282",
"&	c #979797",
"*	c #6D6E6F",
"=	c #878787",
".........................",
".........................",
".........................",
".........................",
".........................",
".........................",
".........................",
".........................",
".........................",
".........................",
".........................",
".........................",
".........................",
".........................",
".........................",
".......+@@@@@@@@@#.......",
"......#$%%%%%%%%%&*......",
"......#$%%%%%%%%%&*......",
"......#&=========&.......",
".........................",
".........................",
".........................",
".........................",
".........................",
".........................",
"........................."};
