/* XPM */
static char * hide_pressed_xpm[] = {
"25 26 11 1",
" 	c None",
".	c #383A3B",
"+	c #A8A8A8",
"@	c #9C9C9C",
"#	c #B4B4B4",
"$	c #838383",
"%	c #6E6E6E",
"&	c #888888",
"*	c #B1B1B1",
"=	c #757575",
"-	c #8D8D8D",
".........................",
".........................",
".........................",
".........................",
".........................",
".........................",
".........................",
".........................",
".........................",
".........................",
".........................",
".........................",
".........................",
".........................",
".........................",
".......+@@@@@@@@@+.......",
"......#$%%%%%%%%%&*......",
"......#$%%%%%%%%%&*......",
"......#&=========-*......",
".........................",
".........................",
".........................",
".........................",
".........................",
".........................",
"........................."};
