/* XPM */
static char * hide_active_xpm[] = {
"25 26 10 1",
" 	c None",
".	c #383A3B",
"+	c #B8B8B8",
"@	c #B1B1B1",
"#	c #4A4B4C",
"$	c #A3A3A3",
"%	c #969696",
"&	c #A5A5A5",
"*	c #999999",
"=	c #A8A8A8",
".........................",
".........................",
".........................",
".........................",
".........................",
".........................",
".........................",
".........................",
".........................",
".........................",
".........................",
".........................",
".........................",
".........................",
".........................",
".......+@@@@@@@@@+.......",
"......#$%%%%%%%%%&.......",
"......#$%%%%%%%%%&.......",
"......#&*********=#......",
".........................",
".........................",
".........................",
".........................",
".........................",
".........................",
"........................."};
