/* XPM */
static char * maximize_pressed_xpm[] = {
"25 26 20 1",
" 	c None",
".	c #383A3B",
"+	c #A2A2A2",
"@	c #8A8A8A",
"#	c #858585",
"$	c #808080",
"%	c #797979",
"&	c #767676",
"*	c #B1B1B1",
"=	c #6E6E6E",
"-	c #717171",
";	c #A7A7A7",
">	c #959595",
",	c #AAAAAA",
"'	c #7E7F80",
")	c #B5B5B5",
"!	c #8D8D8D",
"~	c #ACACAC",
"{	c #7C7C7C",
"]	c #9F9F9F",
".........................",
".........................",
".........................",
".........................",
".........................",
".........................",
"............+@#$%%&+.....",
"............*$====-+.....",
".............*$===-+.....",
".............*$===&;.....",
"............*$-===&;.....",
"...........*$==$>$&,.....",
"......'...*$-=$*.)!~.....",
".....*!,.*$==$*..........",
".....~{{!$==$*...........",
".....~{===-$*............",
".....,%===$*.............",
".....;&==={*.............",
".....;-===={~............",
".....,{{$$@@]............",
".........................",
".........................",
".........................",
".........................",
".........................",
"........................."};
