/* XPM */
static char * maximize_active_xpm[] = {
"25 26 13 1",
" 	c None",
".	c #383A3B",
"+	c #B5B5B5",
"@	c #A4A4A4",
"#	c #A1A1A1",
"$	c #9E9E9E",
"%	c #9A9A9A",
"&	c #6D6E6F",
"*	c #969696",
"=	c #A0A1A1",
"-	c #ADADAD",
";	c #A8A8A8",
">	c #B2B2B2",
".........................",
".........................",
".........................",
".........................",
".........................",
".........................",
"............+@@#$%$+.....",
"............&#****%+.....",
".............&#***%+.....",
".............&#***%+.....",
"............&#****%=.....",
"...........&#**#-#%+.....",
"..........&#**#&..@&.....",
".....&#=.&#**#&..........",
".....&$$;#**#&...........",
".....&$****#&............",
".....+$***#&.............",
".....=%***#&.............",
".....+%****#&............",
".....=$$#@@@>............",
".........................",
".........................",
".........................",
".........................",
".........................",
"........................."};
