/* XPM */
static char * menu_pressed_xpm[] = {
"25 26 5 1",
" 	c None",
".	c #383A3B",
"+	c #9F9F9F",
"@	c #6E6E6E",
"#	c #B7B7B7",
".........................",
".........................",
".........................",
".........................",
".........................",
".........................",
".........................",
".........................",
".........................",
".........................",
"........+++++++++........",
"........+@@@@@@@+........",
".........+@@@@@+.........",
"..........+@@@+..........",
"...........+@+...........",
"............#............",
".........................",
".........................",
".........................",
".........................",
".........................",
".........................",
".........................",
".........................",
".........................",
"........................."};
