<?xml version="1.0" encoding="UTF-8" standalone="no"?>
<!-- Created with Inkscape (http://www.inkscape.org/) -->

<svg
   xmlns:dc="http://purl.org/dc/elements/1.1/"
   xmlns:cc="http://creativecommons.org/ns#"
   xmlns:rdf="http://www.w3.org/1999/02/22-rdf-syntax-ns#"
   xmlns:svg="http://www.w3.org/2000/svg"
   xmlns="http://www.w3.org/2000/svg"
   xmlns:sodipodi="http://sodipodi.sourceforge.net/DTD/sodipodi-0.dtd"
   xmlns:inkscape="http://www.inkscape.org/namespaces/inkscape"
   version="1.1"
   width="100%"
   height="100%"
   viewBox="0 0 512 512"
   id="svg2"
   inkscape:version="0.91 r13725"
   sodipodi:docname="audio-headset.svg">
  <sodipodi:namedview
     pagecolor="#ffffff"
     bordercolor="#666666"
     borderopacity="1"
     objecttolerance="10"
     gridtolerance="10"
     guidetolerance="10"
     inkscape:pageopacity="0"
     inkscape:pageshadow="2"
     inkscape:window-width="640"
     inkscape:window-height="480"
     id="namedview2171"
     showgrid="false"
     inkscape:zoom="0.546875"
     inkscape:cx="34.742857"
     inkscape:cy="240.45714"
     inkscape:current-layer="svg2" />
  <metadata
     id="metadata4340">
    <rdf:RDF>
      <cc:Work
         rdf:about="">
        <dc:format>image/svg+xml</dc:format>
        <dc:type
           rdf:resource="http://purl.org/dc/dcmitype/StillImage" />
      </cc:Work>
    </rdf:RDF>
  </metadata>
  <defs
     id="defs4338" />
  <rect
     width="512"
     height="512"
     rx="26.26"
     x="-0.0020047168"
     y="-0.0059969923"
     id="rect2578"
     style="fill:#ae4a32" />
  <path
     d="m 254.58801,74.86899 c -72.33,1.01 -125.73,67.22 -140.16,133.44 -11.287,15.16 -9.517,-11.981 -24.625,-2.063 -34.903,20.512 -39.519,67.37 -37.34,104.13 5.174,28.13 -1.822,57.44 4.469,85.25 47.04,47.04 75.49,75.77 116.38,116.38 l 312.44,0 c 14.546,0 26.25,-11.704 26.25,-26.25 l 0,-206.56 c -51.696,-51.625 -121.54,-119.56 -172.31,-170.03 -22.913,-21.279 -53.53,-34.786 -85.06,-34.28 l -0.031,0"
     inkscape:connector-curvature="0"
     id="path4332"
     style="fill-opacity:0.23500001" />
  <path
     d="m 254.60801,74.06399 c -0.917,0.01 -1.816,0.005 -2.732,0.037 l 0,0.037 c -58.641,2.01 -116.17,49.19 -137.44,132.68 -0.058,0.215 0.053,0.445 0,0.665 -5.959,4.099 -10.225,10.579 -10.225,18.385 l 0,136.78 c 0,12.611 9.835,22.444 22.444,22.444 12.611,0 23.15,-9.835 23.15,-22.444 l 0,-136.78 c 0,-7.178 -3.699,-13.517 -8.86,-17.684 20.775,-54.778 67.763,-93.31 118.4,-91.88 47.578,1.267 85.03,43.28 101.41,86.42 l 3.397,7.498 c -3.743,4.054 -5.464,9.679 -5.464,15.653 l 0,136.74 c 0,12.611 9.873,22.481 22.481,22.481 12.611,0 23.11,-9.873 23.11,-22.481 l 0,-136.74 c 0,-6.51 -3.142,-12.216 -7.498,-16.354 -0.058,-0.215 0.058,-0.45 0,-0.665 -25.672,-92.32 -84.39,-135.38 -142.17,-134.78 m -155.17,129.33 c -26.456,0.683 -47.623,41.16 -47.623,91.19 0,10.246 0.908,20.06 2.547,29.2 l 0,60.07 c 0,4.02 1.589,9.869 4.504,14.841 12.1,17.319 63.32,20.961 79.38,20.969 l 50.28,0 12.33,0 c 3.625,10.571 15.303,18.274 29.24,18.274 l 15.07,0 c 16.849,0 30.42,-11.241 30.42,-25.21 0,-13.98 -13.572,-25.25 -30.42,-25.25 l -15.07,0 c -10.35,0 -19.468,4.262 -24.96,10.779 l -16.613,0 c -22.631,-0.763 -47.627,0.936 -69.08,-0.185 -5.85,-0.265 -11.325,-1.283 -16.761,-2.621 -10.708,-2.719 -18.928,-4.082 -23.332,-10.19 -2.06,-2.853 -3.302,-6.759 -3.545,-12.291 6.95,7.528 15.01,11.921 23.625,12.145 l 0,-181.71 m 308.92,0 0,181.71 c 26.456,-0.688 47.623,-40.491 47.623,-90.52 0,-50.02 -21.17,-90.5 -47.623,-91.19"
     inkscape:connector-curvature="0"
     id="path4334"
     style="fill:#ffffff" />
</svg>
