<?xml version="1.0" encoding="UTF-8" standalone="no"?>
<!-- Created with Inkscape (http://www.inkscape.org/) -->

<svg
   xmlns:dc="http://purl.org/dc/elements/1.1/"
   xmlns:cc="http://creativecommons.org/ns#"
   xmlns:rdf="http://www.w3.org/1999/02/22-rdf-syntax-ns#"
   xmlns:svg="http://www.w3.org/2000/svg"
   xmlns="http://www.w3.org/2000/svg"
   xmlns:sodipodi="http://sodipodi.sourceforge.net/DTD/sodipodi-0.dtd"
   xmlns:inkscape="http://www.inkscape.org/namespaces/inkscape"
   version="1.1"
   width="100%"
   height="100%"
   viewBox="0 0 512 512"
   id="svg2"
   inkscape:version="0.91 r13725"
   sodipodi:docname="audio-speakers.svg">
  <sodipodi:namedview
     pagecolor="#ffffff"
     bordercolor="#666666"
     borderopacity="1"
     objecttolerance="10"
     gridtolerance="10"
     guidetolerance="10"
     inkscape:pageopacity="0"
     inkscape:pageshadow="2"
     inkscape:window-width="640"
     inkscape:window-height="480"
     id="namedview2222"
     showgrid="false"
     inkscape:zoom="0.546875"
     inkscape:cx="34.742857"
     inkscape:cy="240.45714"
     inkscape:current-layer="svg2" />
  <metadata
     id="metadata4442">
    <rdf:RDF>
      <cc:Work
         rdf:about="">
        <dc:format>image/svg+xml</dc:format>
        <dc:type
           rdf:resource="http://purl.org/dc/dcmitype/StillImage" />
      </cc:Work>
    </rdf:RDF>
  </metadata>
  <defs
     id="defs4440" />
  <g
     id="g5574"
     transform="translate(362.05714,-422.39999)">
    <rect
       style="fill:#55405f"
       id="rect2578"
       y="422.39999"
       x="-362.06064"
       rx="26.26"
       height="512"
       width="512" />
    <g
       transform="translate(-362.06064,422.4)"
       style="fill-rule:evenodd"
       id="g4432">
      <path
         style="fill-opacity:0.23500001"
         id="path4434"
         inkscape:connector-curvature="0"
         d="m 399.75,47.34 c -22.382,0.099 -44.884,16.764 -46.875,40.5 -56.94,-31.795 -130.05,-31.905 -186.97,0 -18.11,-15.76 -32.62,-41.09 -59.719,-40.44 -34.24,-1.575 -58.743,40.531 -40.31,69.5 5.993,14.09 29.04,23.639 29.875,36.875 -43.31,65.17 -40.711,156.44 5.969,219.19 -32.356,1.821 -53.28,41.876 -35.656,69.28 13.146,16.725 47.38,49.35 67.813,69.75 l 351.88,0 c 14.546,0 26.25,-11.704 26.25,-26.25 l 0,-342.75 c -26.2,-26.476 -66.09,-68.764 -87.28,-87.59 -7.491,-5.608 -16.211,-8.101 -24.969,-8.06" />
      <path
         style="fill:#ffffff"
         id="path4436"
         inkscape:connector-curvature="0"
         d="m 105.47,47.04 -0.03,0.03 c -25.629,0 -46.42,20.793 -46.42,46.42 0,25.277 20.272,45.863 45.42,46.42 -25.17,32.851 -40.42,73.72 -40.42,118.35 0,42.742 13.667,82.23 36.932,114.34 -23.408,2.381 -41.935,21.906 -41.935,45.937 0,25.629 20.824,46.42 46.45,46.42 24.782,0 44.611,-19.489 45.937,-43.936 30.582,20.16 67.4,31.959 106.85,31.959 34.24,0 66.4,-8.939 94.36,-24.47 4.506,20.915 23.19,36.447 45.45,36.447 25.629,0 46.42,-20.793 46.42,-46.42 0,-20.18 -12.951,-37.04 -30.958,-43.45 24.558,-32.595 39.448,-72.919 39.448,-116.86 0,-45.49 -15.779,-87.16 -41.935,-120.32 19.302,-5.64 33.445,-23.314 33.445,-44.42 0,-25.629 -20.793,-46.45 -46.42,-46.45 -23.616,0 -43.01,17.632 -45.937,40.449 -27.818,-15.323 -59.874,-23.984 -93.88,-23.984 -39.29,0 -75.866,11.938 -106.37,31.959 0.032,-0.655 0,-1.3 0,-1.971 0,-25.629 -20.793,-46.45 -46.42,-46.45 m 0,27.956 c 10.03,0 18.466,8.478 18.466,18.496 0,10.03 -8.448,17.95 -18.466,17.95 -10.03,0 -17.981,-7.916 -17.981,-17.95 0,-10.03 7.946,-18.496 17.981,-18.496 m 292.6,0 c 10.03,0 18.466,8.478 18.466,18.496 0,10.03 -8.448,17.95 -18.466,17.95 -10.03,0 -17.981,-7.916 -17.981,-17.95 0,-10.03 7.946,-18.496 17.981,-18.496 m -139.81,18.981 c 90.82,0 164.8,73.48 164.8,164.28 0,90.82 -73.978,164.28 -164.8,164.28 -90.82,0 -164.25,-73.48 -164.25,-164.28 0,-90.82 73.45,-164.28 164.25,-164.28 m -0.061,27.08 c -75.77,0 -136.84,61.53 -136.84,137.3 0,75.77 61.06,137.33 136.84,137.33 75.77,0 137.3,-61.56 137.3,-137.33 0,-75.77 -61.53,-137.3 -137.3,-137.3 m 0,60.916 c 42.34,0 76.896,34.04 76.896,76.38 0,42.34 -34.553,76.896 -76.896,76.896 -42.34,0 -76.41,-34.553 -76.41,-76.896 0,-42.34 34.07,-76.38 76.41,-76.38 m 0.303,25.986 c -27.857,0 -50.42,22.598 -50.42,50.46 0,27.857 22.568,50.42 50.42,50.42 27.857,0 50.46,-22.568 50.46,-50.42 0,-27.857 -22.598,-50.46 -50.46,-50.46 m -153.03,192.18 c 10.03,0 18.466,8.448 18.466,18.466 0,10.03 -8.448,17.981 -18.466,17.981 -10.03,0 -17.981,-7.946 -17.981,-17.981 0,-10.03 7.946,-18.466 17.981,-18.466 m 292.6,0 c 10.03,0 18.466,8.448 18.466,18.466 0,10.03 -8.448,17.981 -18.466,17.981 -10.03,0 -17.981,-7.946 -17.981,-17.981 0,-10.03 7.946,-18.466 17.981,-18.466" />
    </g>
  </g>
</svg>
