<?xml version="1.0" encoding="UTF-8" standalone="no"?>
<!-- Created with Inkscape (http://www.inkscape.org/) -->

<svg
   xmlns:dc="http://purl.org/dc/elements/1.1/"
   xmlns:cc="http://creativecommons.org/ns#"
   xmlns:rdf="http://www.w3.org/1999/02/22-rdf-syntax-ns#"
   xmlns:svg="http://www.w3.org/2000/svg"
   xmlns="http://www.w3.org/2000/svg"
   xmlns:sodipodi="http://sodipodi.sourceforge.net/DTD/sodipodi-0.dtd"
   xmlns:inkscape="http://www.inkscape.org/namespaces/inkscape"
   version="1.1"
   width="100%"
   height="100%"
   viewBox="0 0 512 512"
   id="svg2"
   inkscape:version="0.91 r13725"
   sodipodi:docname="camera-web.svg">
  <sodipodi:namedview
     pagecolor="#ffffff"
     bordercolor="#666666"
     borderopacity="1"
     objecttolerance="10"
     gridtolerance="10"
     guidetolerance="10"
     inkscape:pageopacity="0"
     inkscape:pageshadow="2"
     inkscape:window-width="640"
     inkscape:window-height="480"
     id="namedview1478"
     showgrid="false"
     inkscape:zoom="0.546875"
     inkscape:cx="34.742857"
     inkscape:cy="240.45714"
     inkscape:current-layer="svg2"
     inkscape:snap-global="false" />
  <metadata
     id="metadata2954">
    <rdf:RDF>
      <cc:Work
         rdf:about="">
        <dc:format>image/svg+xml</dc:format>
        <dc:type
           rdf:resource="http://purl.org/dc/dcmitype/StillImage" />
      </cc:Work>
    </rdf:RDF>
  </metadata>
  <defs
     id="defs2952" />
  <g
     id="g4836"
     transform="translate(475.42857,-330.97143)">
    <rect
       style="fill:#0078ad"
       id="rect2578"
       y="330.96942"
       x="-475.42957"
       rx="26.26"
       height="512"
       width="512" />
    <path
       style="fill-opacity:0.23500001"
       id="path2736"
       inkscape:connector-curvature="0"
       d="m -222.64957,377.02943 c -83.25,0.128 -155.3,79.56 -146.47,162.66 1.836,46.14 30.26,84.13 63,114.06 18.292,18.317 36.611,36.592 54.875,54.938 -27.535,1.784 -70.64,-43.46 -83.938,-1.344 -6.517,24.21 -17.969,47.614 -20.969,72.41 9.569,17.615 41.564,47.43 57.844,63.22 l 308.629999,0 c 14.546,0 26.25,-11.704 26.25,-26.25 l 0,-248.97 c -46.96,-46.839 -113.36,-111.41 -157.779999,-154.94 -26.897,-22.972 -62.04,-35.882 -97.41,-35.75 -1.327,-0.039 -2.679,-0.034 -4,-0.031 l -0.031,0" />
    <g
       style="fill:#ffffff"
       id="g2942"
       transform="matrix(7.54898,0,0,7.54898,-370.30957,377.18943)">
      <path
         id="path2944"
         inkscape:connector-curvature="0"
         d="m 37.2,49.34 -2.063,-6.313 c -0.238,-0.725 -0.781,-1.311 -1.488,-1.6 -0.707,-0.291 -1.504,-0.256 -2.184,0.093 -7.228,3.722 -15.794,3.708 -23,-0.021 -0.682,-0.354 -1.482,-0.385 -2.192,-0.094 -0.71,0.293 -1.252,0.883 -1.487,1.612 l -2.922,9.1 c -0.257,0.793 -0.117,1.688 0.375,2.361 0.489,0.672 1.271,1.1 2.104,1.1 l 31.28,0 c 1.476,0 2.643,-1.195 2.643,-2.635 0,-0.211 -0.639,-2.289 -1.068,-3.6" />
      <path
         id="path2946"
         inkscape:connector-curvature="0"
         d="M 19.986,31.574 C 13.589,31.574 8.4,26.388 8.4,19.986 8.4,13.59 13.588,8.399 19.986,8.399 c 6.397,0 11.588,5.191 11.588,11.587 0,6.403 -5.189,11.588 -11.588,11.588 M 19.986,0 C 8.966,0 0,8.966 0,19.986 c 0,11.02 8.966,19.987 19.986,19.987 11.02,0 19.987,-8.968 19.987,-19.987 C 39.973,8.966 31.008,0 19.986,0" />
      <path
         id="path2948"
         inkscape:connector-curvature="0"
         d="m 17.813,19.907 c -1.199,0 -2.172,-0.973 -2.172,-2.173 0,-1.198 0.973,-2.172 2.172,-2.172 1.2,0 2.173,0.974 2.173,2.172 0,1.201 -0.972,2.173 -2.173,2.173 m 2.173,-7.162 c -4,0 -7.241,3.245 -7.241,7.241 0,4 3.241,7.242 7.241,7.242 4,0 7.242,-3.24 7.242,-7.242 10e-4,-3.996 -3.241,-7.241 -7.242,-7.241" />
    </g>
  </g>
</svg>
