<?xml version="1.0" encoding="UTF-8" standalone="no"?>
<!-- Created with Inkscape (http://www.inkscape.org/) -->

<svg
   xmlns:dc="http://purl.org/dc/elements/1.1/"
   xmlns:cc="http://creativecommons.org/ns#"
   xmlns:rdf="http://www.w3.org/1999/02/22-rdf-syntax-ns#"
   xmlns:svg="http://www.w3.org/2000/svg"
   xmlns="http://www.w3.org/2000/svg"
   xmlns:sodipodi="http://sodipodi.sourceforge.net/DTD/sodipodi-0.dtd"
   xmlns:inkscape="http://www.inkscape.org/namespaces/inkscape"
   version="1.1"
   width="100%"
   height="100%"
   viewBox="0 0 512 512"
   id="svg2"
   inkscape:version="0.91 r13725"
   sodipodi:docname="camera-video.svg">
  <sodipodi:namedview
     pagecolor="#ffffff"
     bordercolor="#666666"
     borderopacity="1"
     objecttolerance="10"
     gridtolerance="10"
     guidetolerance="10"
     inkscape:pageopacity="0"
     inkscape:pageshadow="2"
     inkscape:window-width="640"
     inkscape:window-height="480"
     id="namedview2582"
     showgrid="false"
     inkscape:zoom="0.546875"
     inkscape:cx="34.742857"
     inkscape:cy="240.45714"
     inkscape:current-layer="svg2" />
  <metadata
     id="metadata5162">
    <rdf:RDF>
      <cc:Work
         rdf:about="">
        <dc:format>image/svg+xml</dc:format>
        <dc:type
           rdf:resource="http://purl.org/dc/dcmitype/StillImage" />
      </cc:Work>
    </rdf:RDF>
  </metadata>
  <defs
     id="defs5160" />
  <g
     id="g5931"
     transform="translate(385.82857,-393.14286)">
    <rect
       style="fill:#669966"
       id="rect2578"
       y="393.14035"
       x="-385.83408"
       rx="26.26"
       height="512"
       width="512" />
    <path
       style="fill-opacity:0.23500001"
       id="path5154"
       inkscape:connector-curvature="0"
       d="m -35.174071,491.23036 c -10.785,-0.019 -22.03,1.489 -32.375,0.406 l -35.718999,0 c -1.448,6.238 3.737999,26.625 -0.031,26.625 -10.976,-10.976 -16.965,-16.777 -26.5,-26.313 l -10.719,1.719 0.063,0.031 c -2.078,-0.016 -3.725,-1.183 -6.188,-0.813 l -114.06,-1.25 c -20.813,85.11 -79.65,227.44 -78.09,294.13 31,31 85.33,83.938 120.41,119.38 l 318.309999,0 c 14.546001,0 26.250001,-11.704 26.250001,-26.25 l 0,-253.94 c -39.420001,-38.21 -97.190001,-90.45 -131.6200014,-124.97 -8.6089996,-7.185 -18.9339996,-8.731 -29.7189996,-8.75" />
    <path
       style="fill:#ffffff"
       id="path5156"
       inkscape:connector-curvature="0"
       d="m -261.00407,491.73036 c -14.501,0 -26.23,11.731 -26.23,26.23 l 0,52.46 c -14.501,0 -26.23,11.731 -26.23,26.23 -14.501,0 -26.23,11.731 -26.23,26.23 l 0,157.41 c 0,14.501 11.731,26.23 26.23,26.23 l 209.88,0 c 14.500999,0 26.229999,-11.731 26.229999,-26.23 l 0,-157.41 c 0,-14.5 -11.73,-26.23 -26.229999,-26.23 l -104.96,0 c 0,-14.501 -11.731,-26.23 -26.23,-26.23 l 0,-26.23 104.96,0 0,-52.46 -131.18,0 m 157.41,0 0,52.46 78.699999,0 c 14.501,0 26.2299996,-11.73 26.2299996,-26.23 0,-14.501 -11.7309996,-26.23 -26.2299996,-26.23 l -78.699999,0 m 183.609999,104.93 -78.7000004,52.46 -26.2299996,0 c -14.501,0 -26.23,11.731 -26.23,26.23 l 0,52.46 c 0,14.501 11.731,26.26 26.23,26.26 l 26.2299996,0 78.7000004,52.46 0,-209.88 m -380.389999,157.41 131.19,0 c 7.25,0 13.1,5.849 13.1,13.1 0,7.25 -5.849,13.13 -13.1,13.13 l -131.18,0 c -7.25,0 -13.1,-5.881 -13.1,-13.13 0,-7.25 5.849,-13.1 13.1,-13.1" />
  </g>
</svg>
