<?xml version="1.0" encoding="UTF-8" standalone="no"?>
<!-- Created with Inkscape (http://www.inkscape.org/) -->

<svg
   xmlns:dc="http://purl.org/dc/elements/1.1/"
   xmlns:cc="http://creativecommons.org/ns#"
   xmlns:rdf="http://www.w3.org/1999/02/22-rdf-syntax-ns#"
   xmlns:svg="http://www.w3.org/2000/svg"
   xmlns="http://www.w3.org/2000/svg"
   xmlns:sodipodi="http://sodipodi.sourceforge.net/DTD/sodipodi-0.dtd"
   xmlns:inkscape="http://www.inkscape.org/namespaces/inkscape"
   version="1.1"
   width="100%"
   height="100%"
   viewBox="0 0 512 512"
   id="svg2"
   inkscape:version="0.91 r13725"
   sodipodi:docname="input-keyboard.svg">
  <sodipodi:namedview
     pagecolor="#ffffff"
     bordercolor="#666666"
     borderopacity="1"
     objecttolerance="10"
     gridtolerance="10"
     guidetolerance="10"
     inkscape:pageopacity="0"
     inkscape:pageshadow="2"
     inkscape:window-width="1366"
     inkscape:window-height="709"
     id="namedview1688"
     showgrid="false"
     inkscape:zoom="0.65186406"
     inkscape:cx="197.32997"
     inkscape:cy="197.08515"
     inkscape:window-x="0"
     inkscape:window-y="0"
     inkscape:window-maximized="0"
     inkscape:current-layer="svg2" />
  <metadata
     id="metadata3374">
    <rdf:RDF>
      <cc:Work
         rdf:about="">
        <dc:format>image/svg+xml</dc:format>
        <dc:type
           rdf:resource="http://purl.org/dc/dcmitype/StillImage" />
      </cc:Work>
    </rdf:RDF>
  </metadata>
  <defs
     id="defs3372" />
  <g
     id="g3356"
     transform="translate(412.47433,-444.68965)">
    <rect
       style="fill:#0580b6"
       id="rect2578"
       y="444.68515"
       x="-412.47433"
       rx="26.26"
       height="512"
       width="512" />
    <path
       style="fill-opacity:0.23500001"
       id="path3346"
       inkscape:connector-curvature="0"
       d="m -37.344352,546.65514 c -8.834,0.017 -17.854,0.965 -26.5,0.281 -21.942,-0.429 -26.537,22.944 -24.594,40.16 -13.119998,-12.453 -24.219998,-27.432 -38.937998,-37.938 -8.463,-2.01 -17.18,-2.502 -25.969,-2.469 -8.792,0.033 -17.63,0.596 -26.313,0.719 -19.02,2.64 -20.438,24.466 -19.875,38.31 -13.09,-12.12 -24.369,-26.604 -39.06,-36.719 -15.14,-3.99 -31.444,-1.318 -47.03,-2.094 -22.17,-0.403 -26.451,23.283 -24.563,40.563 0.029,15.347 -2.516,33.503 12.219,43.5 14.754,14.755 29.55,29.478 44.25,44.28 -3.035,8.582 3.372,32.599 -8.875,14.688 -14.344,-12.421 -25.22,-34.716 -47.16,-32.12 -17.513,1.641 -39.537,-5.702 -51.75,10.875 -7.477,15.635 -2.941,33.765 -4.188,50.625 1.696,19.305 21.392,28.635 32.906,42.19 20.611,13.65 -28.11,3.717 -23.16,26.938 -0.184,17.341 -2.31,35.35 1.813,52.25 31.777,33 78.19,82.45 109.56,116 l 317.839998,0 c 14.546,0 26.25,-11.704 26.25,-26.25 l 0,-264.78 c -32.26,-33.34 -81.61,-83.29 -111.53,-113.81 -7.866,-4.306 -16.51,-5.204 -25.344,-5.188" />
    <path
       id="rect3352"
       d="m -282.60325,546.66426 c -15.44382,0 -27.87695,12.50151 -27.87695,28.0293 l 0,30.1914 c 0,15.52779 12.43313,28.0293 27.87695,28.0293 l 30.49414,0 c 15.44383,0 27.87696,-12.50151 27.87696,-28.0293 l 0,-30.1914 c 0,-15.52779 -12.43313,-28.0293 -27.87696,-28.0293 l -30.49414,0 z m 110.89063,0 c -15.44383,0 -27.87695,12.50151 -27.87695,28.0293 l 0,30.1914 c 0,15.52779 12.43312,28.0293 27.87695,28.0293 l 30.49609,0 c 15.44383,0 27.87696,-12.50151 27.87696,-28.0293 l 0,-30.1914 c 0,-15.52779 -12.43313,-28.0293 -27.87696,-28.0293 l -30.49609,0 z m 110.892578,0 c -15.44383,0 -27.87696,12.50151 -27.87696,28.0293 l 0,30.1914 c 0,15.52779 12.43313,28.0293 27.87696,28.0293 l 30.49609,0 c 15.44383,0 27.8769498,-12.50151 27.8769498,-28.0293 l 0,-30.1914 c 0,-15.52779 -12.4331198,-28.0293 -27.8769498,-28.0293 l -30.49609,0 z M -338.05832,657.54903 c -15.44383,-10e-6 -27.87696,12.50151 -27.87696,28.02929 l 0,30.19141 c 0,15.52778 12.43313,28.0293 27.87696,28.0293 l 30.49609,0 c 15.44383,0 27.87695,-12.50152 27.87695,-28.0293 l 0,-30.19141 c 0,-15.52778 -12.43312,-28.02929 -27.87695,-28.02929 l -30.49609,0 z m 110.89257,0 c -15.44382,-10e-6 -27.87695,12.50151 -27.87695,28.02929 l 0,30.19141 c 0,15.52778 12.43313,28.0293 27.87695,28.0293 l 30.49414,0 c 15.44383,0 27.87696,-12.50152 27.87696,-28.0293 l 0,-30.19141 c 0,-15.52778 -12.43313,-28.02929 -27.87696,-28.02929 l -30.49414,0 z m 110.89063,0 c -15.44383,-10e-6 -27.87695,12.50151 -27.87695,28.02929 l 0,30.19141 c 0,15.52778 12.43312,28.0293 27.87695,28.0293 l 30.496088,0 c 15.44383,0 27.87696,-12.50152 27.87696,-28.0293 l 0,-30.19141 c 0,-15.52778 -12.43313,-28.02929 -27.87696,-28.02929 l -30.496088,0 z m 110.8925778,0 c -15.4438298,-10e-6 -27.8769598,12.50151 -27.8769598,28.02929 l 0,30.19141 c 0,15.52778 12.43313,28.0293 27.8769598,28.0293 l 30.4941402,0 c 15.44382,0 27.87695,-12.50152 27.87695,-28.0293 l 0,-30.19141 c 0,-15.52778 -12.43313,-28.02929 -27.87695,-28.02929 l -30.4941402,0 z M -328.81418,768.44942 c -15.44383,0 -27.87696,12.49955 -27.87696,28.02734 l 0,30.19141 c 0,15.52778 12.43313,28.02929 27.87696,28.02929 l 344.689448,0 c 15.44383,0 27.87695,-12.50151 27.87695,-28.02929 l 0,-30.19141 c 0,-15.52779 -12.43312,-28.02734 -27.87695,-28.02734 l -344.689448,0 z"
       style="fill:#ffffff"
       inkscape:connector-curvature="0" />
  </g>
</svg>
