<?xml version="1.0" encoding="UTF-8" standalone="no"?>
<!-- Created with Inkscape (http://www.inkscape.org/) -->

<svg
   xmlns:dc="http://purl.org/dc/elements/1.1/"
   xmlns:cc="http://creativecommons.org/ns#"
   xmlns:rdf="http://www.w3.org/1999/02/22-rdf-syntax-ns#"
   xmlns:svg="http://www.w3.org/2000/svg"
   xmlns="http://www.w3.org/2000/svg"
   xmlns:sodipodi="http://sodipodi.sourceforge.net/DTD/sodipodi-0.dtd"
   xmlns:inkscape="http://www.inkscape.org/namespaces/inkscape"
   version="1.1"
   width="100%"
   height="100%"
   viewBox="0 0 512 512"
   id="svg2"
   inkscape:version="0.91 r13725"
   sodipodi:docname="input-dialpad.svg">
  <sodipodi:namedview
     pagecolor="#ffffff"
     bordercolor="#666666"
     borderopacity="1"
     objecttolerance="10"
     gridtolerance="10"
     guidetolerance="10"
     inkscape:pageopacity="0"
     inkscape:pageshadow="2"
     inkscape:window-width="640"
     inkscape:window-height="480"
     id="namedview1655"
     showgrid="false"
     inkscape:zoom="0.546875"
     inkscape:cx="34.742857"
     inkscape:cy="240.45714"
     inkscape:current-layer="svg2" />
  <metadata
     id="metadata3308">
    <rdf:RDF>
      <cc:Work
         rdf:about="">
        <dc:format>image/svg+xml</dc:format>
        <dc:type
           rdf:resource="http://purl.org/dc/dcmitype/StillImage" />
      </cc:Work>
    </rdf:RDF>
  </metadata>
  <defs
     id="defs3306" />
  <g
     id="g5004"
     transform="translate(334.62857,-351.08572)">
    <rect
       style="fill:#e4a146"
       id="rect2578"
       y="351.08572"
       x="-334.63358"
       rx="26.26"
       height="512"
       width="512" />
    <path
       style="fill-opacity:0.23500001"
       id="path3096"
       inkscape:connector-curvature="0"
       d="m 16.996429,397.74171 c -0.545,-0.021 -1.075,0 -1.594,0.031 -20.0400004,1.194 -20.3430004,38.988 -26.12,36.875 -17.03,-15.209 -31.14,-39.678 -57.47,-35.969 -21.01,-0.432 -51.059999,-3.289 -56.874999,23.531 0.874,14.399 -0.832,18.23 -9.906,6.375 -14.603,-13.914 -28.322,-33.89 -51.47,-29.906 -9.264,-0.006 -18.555,0.017 -27.813,0 -27.891,0.263 -31.916,29.808 -29.656,51.31 -4.196,25.927 20.68,39.737 35.438,56.56 4.35,7.289 -45.57,7.22 -35.438,35.19 0.09,20.17 -3.624,44.06 15.938,57.03 3.56,7.144 33.441,25.19 15.375,23.375 -26.26,-1.25 -34.32,26.14 -31.31,47.28 -2.405,16.7 4.203,32.482 17.531,42.656 41.682,41.533 103.37,105.89 147.999999,151 l 229.500001,0 c 14.546,0 26.25,-11.704 26.25,-26.25 l 0,-331.62 c -27,-27.07 -70.3,-71.04 -95.750001,-96.47 -15.921,-15.614 -39.4,-8.389 -59.34,-10.06 -1.893,-0.558 -3.648,-0.874 -5.281,-0.938" />
    <path
       style="fill:#ffffff"
       id="path3302"
       inkscape:connector-curvature="0"
       d="m -215.62357,397.76271 c -16.564,0.781 -29.654,13.565 -29.654,29.29 l 0,31.583 c 0,16.238 13.95,29.29 31.27,29.29 l 34.19,0 c 17.313,0 31.27,-13.06 31.27,-29.29 l 0,-31.583 c 0,-16.238 -13.95,-29.29 -31.27,-29.29 l -34.19,0 c -0.541,0 -1.081,-0.024 -1.615,0 m 118.259999,0 c -16.563999,0.781 -29.653999,13.565 -29.653999,29.29 l 0,31.583 c 0,16.238 13.95,29.29 31.269999,29.29 l 34.19,0 c 17.313,0 31.27,-13.06 31.27,-29.29 l 0,-31.583 c 0,-16.238 -13.95,-29.29 -31.27,-29.29 l -34.19,0 c -0.541,0 -1.081,-0.024 -1.615,0 m 118.26,0 c -16.5640004,0.781 -29.6540004,13.565 -29.6540004,29.29 l 0,31.583 c 0,16.238 13.95,29.29 31.2700004,29.29 l 34.19,0 c 17.313,0 31.27,-13.06 31.27,-29.29 l 0,-31.583 c 0,-16.238 -13.95,-29.29 -31.27,-29.29 l -34.19,0 c -0.541,0 -1.081,-0.024 -1.615,0 m -236.519999,111.7 c -16.564,0.784 -29.654,13.609 -29.654,29.341 l 0,31.539 c 0,16.238 13.95,29.341 31.27,29.341 l 34.19,0 c 17.313,0 31.27,-13.1 31.27,-29.341 l 0,-31.539 c 0,-16.238 -13.95,-29.341 -31.27,-29.341 l -34.19,0 c -0.541,0 -1.081,-0.026 -1.615,0 m 118.259999,0 c -16.563999,0.784 -29.653999,13.609 -29.653999,29.341 l 0,31.539 c 0,16.238 13.95,29.341 31.269999,29.341 l 34.19,0 c 17.313,0 31.27,-13.1 31.27,-29.341 l 0,-31.539 c 0,-16.238 -13.95,-29.341 -31.27,-29.341 l -34.19,0 c -0.541,0 -1.081,-0.026 -1.615,0 m 118.26,0 c -16.5640004,0.784 -29.6540004,13.609 -29.6540004,29.341 l 0,31.539 c 0,16.238 13.95,29.341 31.2700004,29.341 l 34.19,0 c 17.313,0 31.27,-13.1 31.27,-29.341 l 0,-31.539 c 0,-16.238 -13.95,-29.341 -31.27,-29.341 l -34.19,0 c -0.541,0 -1.081,-0.026 -1.615,0 m -236.519999,111.75 c -16.564,0.781 -29.654,13.565 -29.654,29.29 l 0,31.583 c 0,16.238 13.95,29.29 31.27,29.29 l 34.19,0 c 17.313,0 31.27,-13.06 31.27,-29.29 l 0,-31.583 c 0,-16.238 -13.95,-29.29 -31.27,-29.29 l -34.19,0 c -0.541,0 -1.081,-0.026 -1.615,0 m 118.259999,0 c -16.563999,0.781 -29.653999,13.565 -29.653999,29.29 l 0,31.583 c 0,16.238 13.95,29.29 31.269999,29.29 l 34.19,0 c 17.313,0 31.27,-13.06 31.27,-29.29 l 0,-31.583 c 0,-16.238 -13.95,-29.29 -31.27,-29.29 l -34.19,0 c -0.541,0 -1.081,-0.026 -1.615,0 m 118.26,0 c -16.5640004,0.781 -29.6540004,13.565 -29.6540004,29.29 l 0,31.583 c 0,16.238 13.95,29.29 31.2700004,29.29 l 34.19,0 c 17.313,0 31.27,-13.06 31.27,-29.29 l 0,-31.583 c 0,-16.238 -13.95,-29.29 -31.27,-29.29 l -34.19,0 c -0.541,0 -1.081,-0.026 -1.615,0 m -116.64,104.99 c -17.312999,0 -31.269999,13.1 -31.269999,29.341 l 0,31.539 c 0,16.238 13.95,29.341 31.269999,29.341 l 34.19,0 c 17.313,0 31.27,-13.1 31.27,-29.341 l 0,-31.539 c 0,-16.238 -13.95,-29.341 -31.27,-29.341 l -34.19,0" />
  </g>
</svg>
