<?xml version="1.0" encoding="UTF-8" standalone="no"?>
<!-- Created with Inkscape (http://www.inkscape.org/) -->

<svg
   xmlns:dc="http://purl.org/dc/elements/1.1/"
   xmlns:cc="http://creativecommons.org/ns#"
   xmlns:rdf="http://www.w3.org/1999/02/22-rdf-syntax-ns#"
   xmlns:svg="http://www.w3.org/2000/svg"
   xmlns="http://www.w3.org/2000/svg"
   xmlns:sodipodi="http://sodipodi.sourceforge.net/DTD/sodipodi-0.dtd"
   xmlns:inkscape="http://www.inkscape.org/namespaces/inkscape"
   version="1.1"
   width="100%"
   height="100%"
   viewBox="0 0 512 512"
   id="svg2"
   inkscape:version="0.91 r13725"
   sodipodi:docname="media-flash-memory-stick.svg">
  <sodipodi:namedview
     pagecolor="#ffffff"
     bordercolor="#666666"
     borderopacity="1"
     objecttolerance="10"
     gridtolerance="10"
     guidetolerance="10"
     inkscape:pageopacity="0"
     inkscape:pageshadow="2"
     inkscape:window-width="640"
     inkscape:window-height="480"
     id="namedview2195"
     showgrid="false"
     inkscape:zoom="0.546875"
     inkscape:cx="34.742857"
     inkscape:cy="240.45714"
     inkscape:current-layer="svg2" />
  <metadata
     id="metadata4388">
    <rdf:RDF>
      <cc:Work
         rdf:about="">
        <dc:format>image/svg+xml</dc:format>
        <dc:type
           rdf:resource="http://purl.org/dc/dcmitype/StillImage" />
      </cc:Work>
    </rdf:RDF>
  </metadata>
  <defs
     id="defs4386" />
  <g
     id="g5547"
     transform="translate(384,-352.91429)">
    <rect
       style="fill:#cd1d31"
       id="rect2578"
       y="352.91379"
       x="-384.004"
       rx="26.26"
       height="512"
       width="512" />
    <g
       transform="translate(-384.004,352.91379)"
       style="stroke-linejoin:round"
       id="g4378">
      <path
         style="fill-opacity:0.23500001"
         id="path4380"
         inkscape:connector-curvature="0"
         d="m 164.75,98.78 c -1.416,-0.013 -2.976,0.087 -4.688,0.375 -16.926,-0.009 -33.866,0.033 -50.781,0 l -62.906,62.906 0,237.91 c 1.797,4.55 4.326,8.657 7.313,12.5 24.623,25.275 72.16,71.38 100.63,99.53 l 331.44,0 c 14.546,0 26.25,-11.704 26.25,-26.25 l 0,-333.81 c -12.592,-12.397 -39.14,-37.46 -49.625,-47.938 -15.374,-9.215 -35.21,-2.987 -52.656,-4.813 l -206.09,0 c 6.304,16.717 -12.239,14.316 -21.19,11.938 -4.657,-5.346 -7.752,-12.213 -17.656,-12.313 l -0.031,-0.031" />
      <path
         style="fill:#ffffff"
         id="path4382"
         inkscape:connector-curvature="0"
         d="m 46.39,399.58 0,-237.91 62.879,-62.879 62.879,0 0,13.1 31.447,0 0,-13.1 248.4,0 c 7.526,0 13.626,6.1 13.626,13.626 l 0,49.26 c -5.789,0 -10.482,4.692 -10.482,10.482 l 0,146.72 c 0,5.789 4.692,10.482 10.482,10.482 l 0,70.23 c 0,7.526 -6.1,13.626 -13.626,13.626 l -206.47,0 0,-18.341 -94.33,0 0,18.341 -91.18,0 c -7.526,0 -13.626,-6.1 -13.626,-13.626" />
    </g>
  </g>
</svg>
