<?xml version="1.0" encoding="UTF-8" standalone="no"?>
<!-- Created with Inkscape (http://www.inkscape.org/) -->

<svg
   xmlns:dc="http://purl.org/dc/elements/1.1/"
   xmlns:cc="http://creativecommons.org/ns#"
   xmlns:rdf="http://www.w3.org/1999/02/22-rdf-syntax-ns#"
   xmlns:svg="http://www.w3.org/2000/svg"
   xmlns="http://www.w3.org/2000/svg"
   xmlns:sodipodi="http://sodipodi.sourceforge.net/DTD/sodipodi-0.dtd"
   xmlns:inkscape="http://www.inkscape.org/namespaces/inkscape"
   version="1.1"
   width="100%"
   height="100%"
   viewBox="0 0 512 512"
   id="svg2"
   inkscape:version="0.91 r13725"
   sodipodi:docname="media-optical-data.svg">
  <sodipodi:namedview
     pagecolor="#ffffff"
     bordercolor="#666666"
     borderopacity="1"
     objecttolerance="10"
     gridtolerance="10"
     guidetolerance="10"
     inkscape:pageopacity="0"
     inkscape:pageshadow="2"
     inkscape:window-width="640"
     inkscape:window-height="480"
     id="namedview1836"
     showgrid="false"
     inkscape:zoom="0.546875"
     inkscape:cx="34.742857"
     inkscape:cy="240.45714"
     inkscape:current-layer="svg2" />
  <metadata
     id="metadata3670">
    <rdf:RDF>
      <cc:Work
         rdf:about="">
        <dc:format>image/svg+xml</dc:format>
        <dc:type
           rdf:resource="http://purl.org/dc/dcmitype/StillImage" />
      </cc:Work>
    </rdf:RDF>
  </metadata>
  <defs
     id="defs3668" />
  <g
     id="g5188"
     transform="translate(363.88571,-354.74286)">
    <rect
       style="fill:#e75177"
       id="rect2578"
       y="354.75586"
       x="-363.87921"
       rx="26.26"
       height="512"
       width="512" />
    <path
       style="fill-opacity:0.23500001;fill-rule:evenodd"
       id="path3096"
       inkscape:connector-curvature="0"
       d="m -112.43921,400.88586 c -100.61,0.401 -192.66,82.945 -203.37,183.22 -10.247,71.17 20.993,143.57 74.72,190.06 30.933,30.812 61.784,61.695 92.63,92.59 l 270.34,0 c 14.547,0 26.25,-11.703 26.25,-26.25 l 0,-270.87 c -39.868,-39.972 -79.850004,-79.83 -120.340004,-119.12 -37.4110003,-31.875 -86.28,-49.771 -135.439996,-49.563 -1.6,-0.035 -3.184,-0.069 -4.781,-0.063" />
    <path
       style="fill:#ffffff;fill-rule:evenodd"
       id="path3302"
       inkscape:connector-curvature="0"
       d="m -107.87921,400.87586 c -115.91,0 -209.88,93.96 -209.88,209.88 0,115.91 93.96,209.88 209.88,209.88 115.9099957,0 209.88,-93.96 209.88,-209.88 0,-115.91 -93.9600043,-209.88 -209.88,-209.88 m 72.329996,24.997 c 24.798,9.689 48.03,24.531 68.06,44.562 16.857,16.857 30.08,36.02 39.614,56.44 l -122.63,70.796 c -2.397,-10.421 -7.66,-20.327 -15.778,-28.445 -8.449,-8.449 -18.831,-13.79 -29.72,-16.04 l 60.46,-127.31 m -72.329996,135.79 c 27.119996,0 49.089996,21.979 49.089996,49.09 0,27.12 -21.979,49.09 -49.089996,49.09 -27.12,0 -49.09,-21.979 -49.09,-49.09 0,-27.12 21.979,-49.09 49.09,-49.09 m 0,10.868 c -21.12,0 -38.23,17.12 -38.23,38.23 0,21.12 17.12,38.23 38.23,38.23 21.119996,0 38.229996,-17.12 38.229996,-38.23 0,-21.12 -17.12,-38.23 -38.229996,-38.23 m 0,11.242 c 14.902996,0 26.984996,12.08 26.984996,26.985 0,14.903 -12.08,26.985 -26.984996,26.985 -14.903,0 -26.985,-12.08 -26.985,-26.985 0,-14.903 12.08,-26.985 26.985,-26.985 m -57.903,39.989 c 0.45,1.954 1,3.899 1.649,5.81 0.216,0.637 0.436,1.243 0.675,1.874 1.912,5.05 4.521,9.874 7.871,14.354 0.418,0.559 0.835,1.102 1.274,1.649 1.325,1.648 2.743,3.23 4.272,4.76 2.641,2.641 5.458,4.976 8.435,7.01 0.595,0.406 1.193,0.817 1.799,1.2 2.433,1.535 4.945,2.866 7.533,4.01 1.289,0.571 2.579,1.063 3.898,1.536 1.978,0.711 4.01,1.342 6.03,1.836 0.676,0.165 1.344,0.309 2.024,0.45 l -60.46,127.31 c -1.56,-0.61 -3.099,-1.223 -4.648,-1.874 -1.538,-0.645 -3.049,-1.3 -4.572,-1.986 -3.063,-1.38 -6.067,-2.842 -9.07,-4.385 -1.485,-0.761 -2.954,-1.56 -4.423,-2.362 -0.013,-0.004 -0.028,0.004 -0.038,0 -1.479,-0.807 -2.923,-1.626 -4.385,-2.473 -2.933,-1.701 -5.833,-3.459 -8.695,-5.322 -1.426,-0.929 -2.828,-1.88 -4.232,-2.849 -5.642,-3.881 -11.12,-8.06 -16.415,-12.597 -1.316,-1.124 -2.605,-2.283 -3.898,-3.448 -0.007,-0.007 -0.031,0.007 -0.038,0 -1.3,-1.17 -2.584,-2.349 -3.86,-3.56 -1.276,-1.211 -2.533,-2.458 -3.785,-3.711 -6.331,-6.331 -12.13,-12.98 -17.428,-19.901 -0.881,-1.152 -1.733,-2.281 -2.586,-3.448 -7.683,-10.502 -14.2,-21.604 -19.566,-33.09 l 122.63,-70.796" />
    <path
       style="fill:#ffffff;fill-opacity:0.64299999"
       id="path3460"
       inkscape:connector-curvature="0"
       d="m -309.56921,354.75586 4.594,5.781 5.188,-4.188 c 0.307,-0.246 0.641,-0.536 0.969,-0.844 0.283,-0.265 0.548,-0.5 0.813,-0.75 l -11.563,0 m 13,0 c -0.012,0.257 -0.017,0.48 -0.031,0.75 -0.02,0.821 -0.051,1.647 -0.094,2.469 -0.02,0.801 -0.042,1.553 -0.063,2.313 l 0,1.906 0,26.09 9.531,0 0,-33.531 -9.344,0 m 38.34,0 c -0.105,0.425 -0.223,0.835 -0.313,1.281 -0.553,2.874 -0.813,6.147 -0.813,9.781 0,3.634 0.29,6.834 0.906,9.688 0.637,2.854 1.609,5.29 2.875,7.281 1.272,1.991 2.883,3.484 4.813,4.531 1.93,1.047 4.205,1.594 6.813,1.594 2.772,0 5.112,-0.547 7.06,-1.594 1.971,-1.047 3.58,-2.54 4.813,-4.531 1.252,-1.991 2.164,-4.428 2.719,-7.281 0.575,-2.854 0.844,-6.05 0.844,-9.688 0,-3.655 -0.301,-6.938 -0.938,-9.813 -0.095,-0.43 -0.233,-0.84 -0.344,-1.25 l -9.375,0 c 0.821,2.576 1.25,6.261 1.25,11.06 0,5.173 -0.493,8.996 -1.438,11.563 -0.924,2.567 -2.459,3.906 -4.594,3.906 -2.176,0 -3.68,-1.319 -4.563,-3.906 -0.883,-2.587 -1.344,-6.431 -1.344,-11.563 0,-2.567 0.106,-4.82 0.313,-6.75 0.177,-1.684 0.464,-3.115 0.844,-4.313 l -9.531,0 m 57.656,0 4.625,5.781 5.188,-4.188 c 0.307,-0.246 0.608,-0.536 0.938,-0.844 0.284,-0.266 0.568,-0.5 0.844,-0.75 l -11.594,0 m 13,0 c -0.012,0.261 -0.017,0.476 -0.031,0.75 -0.02,0.821 -0.051,1.647 -0.094,2.469 -0.02,0.801 -0.042,1.553 -0.063,2.313 l 0,1.938 0,26.06 9.5,0 0,-33.531 -9.313,0 m 38.38,0 c -0.105,0.424 -0.192,0.836 -0.281,1.281 -0.555,2.874 -0.844,6.147 -0.844,9.781 0,3.634 0.259,6.834 0.875,9.688 0.637,2.854 1.632,5.29 2.906,7.281 1.272,1.991 2.853,3.484 4.781,4.531 1.93,1.047 4.205,1.594 6.813,1.594 2.772,0 5.143,-0.547 7.094,-1.594 1.971,-1.047 3.551,-2.54 4.781,-4.531 1.252,-1.991 2.133,-4.428 2.688,-7.281 0.575,-2.854 0.905,-6.05 0.906,-9.688 0,-3.655 -0.301,-6.938 -0.938,-9.813 -0.095,-0.429 -0.203,-0.841 -0.313,-1.25 l -9.469,0 c 0.822,2.576 1.25,6.259 1.25,11.06 0,5.173 -0.462,8.996 -1.406,11.563 -0.924,2.567 -2.459,3.906 -4.594,3.906 -2.176,0 -3.711,-1.319 -4.594,-3.906 -0.883,-2.587 -1.313,-6.431 -1.313,-11.563 0,-2.567 0.075,-4.82 0.281,-6.75 0.177,-1.686 0.495,-3.114 0.875,-4.313 l -9.5,0 m 57.655996,0 4.594,5.781 5.156,-4.188 c 0.307,-0.246 0.672,-0.536 1,-0.844 0.283,-0.265 0.548,-0.5 0.813,-0.75 l -11.563,0 m 13,0 c -0.012,0.261 -0.017,0.476 -0.031,0.75 -0.02,0.821 -0.054,1.647 -0.094,2.469 -0.021,0.801 -0.042,1.553 -0.063,2.313 l 0,1.938 0,26.06 9.5,0 0,-33.531 -9.313,0 m 41.531,0 -0.031,0.031 4.625,5.75 5.188,-4.188 c 0.307,-0.246 0.577,-0.536 0.906,-0.844 0.283,-0.265 0.548,-0.5 0.813,-0.75 l -11.5,0 m 12.938,0 c -0.012,0.26 -0.018,0.476 -0.031,0.75 -0.02,0.821 -0.051,1.647 -0.094,2.469 -0.021,0.801 -0.011,1.553 -0.031,2.313 l 0,1.938 0,26.06 9.5,0 0,-33.531 -9.344,0 m 38.38,0 c -0.105,0.425 -0.223,0.835 -0.313,1.281 -0.555,2.874 -0.844,6.147 -0.844,9.781 0,3.634 0.321,6.834 0.938,9.688 0.637,2.854 1.609,5.29 2.875,7.281 1.272,1.991 2.883,3.484 4.813,4.531 1.93,1.047 4.205,1.594 6.813,1.594 2.772,0 5.143,-0.547 7.094,-1.594 1.971,-1.047 3.551,-2.54 4.781,-4.531 1.252,-1.991 2.133,-4.428 2.688,-7.281 0.575,-2.854 0.906,-6.05 0.906,-9.688 0,-3.655 -0.363,-6.938 -1,-9.813 -0.095,-0.429 -0.204,-0.841 -0.313,-1.25 l -9.406,0 c 0.821,2.576 1.25,6.261 1.25,11.06 0,5.173 -0.493,8.996 -1.438,11.563 -0.924,2.567 -2.428,3.906 -4.563,3.906 -2.176,0 -3.712,-1.319 -4.594,-3.906 -0.883,-2.587 -1.313,-6.431 -1.313,-11.563 0,-2.567 0.075,-4.82 0.281,-6.75 0.177,-1.686 0.495,-3.114 0.875,-4.313 l -9.531,0 m 54.53,0 c -0.105,0.425 -0.223,0.835 -0.313,1.281 -0.555,2.874 -0.844,6.147 -0.844,9.781 0,3.634 0.29,6.834 0.906,9.688 0.637,2.854 1.632,5.29 2.906,7.281 1.272,1.991 2.853,3.484 4.781,4.531 1.93,1.047 4.174,1.594 6.781,1.594 2.772,0 5.143,-0.547 7.094,-1.594 1.971,-1.047 3.551,-2.54 4.781,-4.531 1.252,-1.991 2.164,-4.428 2.719,-7.281 0.575,-2.854 0.875,-6.05 0.875,-9.688 0,-3.655 -0.301,-6.938 -0.938,-9.813 -0.095,-0.429 -0.203,-0.841 -0.313,-1.25 l -9.438,0 c 0.821,2.576 1.25,6.261 1.25,11.06 0,5.173 -0.493,8.996 -1.438,11.563 -0.924,2.567 -2.428,3.906 -4.563,3.906 -2.176,0 -3.711,-1.319 -4.594,-3.906 -0.883,-2.587 -1.344,-6.431 -1.344,-11.563 0,-2.567 0.106,-4.82 0.313,-6.75 0.177,-1.684 0.464,-3.115 0.844,-4.313 l -9.469,0 m -407.809996,0.031 c -0.084,0.004 -0.166,0.026 -0.25,0.031 -2.643,2.394 -5.245,4.808 -7.813,7.281 -0.016,0.008 0,0.055 0,0.063 0.06,1.129 0.094,2.367 0.094,3.656 0,5.173 -0.493,8.996 -1.438,11.563 -0.924,2.567 -2.428,3.906 -4.563,3.906 -2.176,0 -3.711,-1.319 -4.594,-3.906 -0.352,-1.03 -0.631,-2.35 -0.844,-3.781 -1.856,1.961 -3.664,3.936 -5.469,5.938 -0.027,0.49 -0.031,0.972 -0.031,1.469 l 0,2.719 c 1.151,1.54 2.505,2.746 4.125,3.625 1.93,1.047 4.205,1.563 6.813,1.563 2.772,0 5.143,-0.516 7.094,-1.563 1.971,-1.047 3.551,-2.54 4.781,-4.531 1.252,-1.991 2.133,-4.459 2.688,-7.313 0.575,-2.854 0.905,-6.05 0.906,-9.688 0,-3.655 -0.301,-6.938 -0.938,-9.813 -0.095,-0.425 -0.205,-0.816 -0.313,-1.219 -0.084,0.003 -0.167,-0.004 -0.25,0 m 478.28,14.906 0,18.594 8.813,0 0,-7.281 c 0,-0.688 -0.042,-1.357 -0.094,-2.031 -2.854,-3.14 -5.758,-6.247 -8.719,-9.281 m -383.22,42.875 c -2.772,0 -5.143,0.558 -7.094,1.625 -1.95,1.047 -3.552,2.54 -4.781,4.531 -1.231,1.991 -2.143,4.438 -2.719,7.313 -0.553,2.874 -0.813,6.116 -0.813,9.75 0,3.634 0.321,6.896 0.938,9.75 0.637,2.854 1.578,5.259 2.844,7.25 1.272,1.991 2.914,3.516 4.844,4.563 1.93,1.047 4.174,1.594 6.781,1.594 2.772,0 5.112,-0.547 7.06,-1.594 1.971,-1.047 3.58,-2.571 4.813,-4.563 1.252,-1.991 2.164,-4.396 2.719,-7.25 0.575,-2.854 0.844,-6.116 0.844,-9.75 0,-3.655 -0.301,-6.876 -0.938,-9.75 -0.637,-2.874 -1.612,-5.321 -2.906,-7.313 -1.293,-1.991 -2.914,-3.516 -4.844,-4.563 -1.93,-1.047 -4.164,-1.594 -6.75,-1.594 m 54.5,0 c -2.772,0 -5.143,0.558 -7.094,1.625 -1.95,1.047 -3.551,2.54 -4.781,4.531 -1.231,1.991 -2.143,4.438 -2.719,7.313 -0.555,2.874 -0.844,6.116 -0.844,9.75 0,3.634 0.321,6.896 0.938,9.75 0.637,2.854 1.609,5.259 2.875,7.25 1.272,1.991 2.883,3.516 4.813,4.563 1.93,1.047 4.205,1.594 6.813,1.594 2.772,0 5.143,-0.547 7.094,-1.594 1.971,-1.047 3.551,-2.571 4.781,-4.563 1.252,-1.991 2.164,-4.396 2.719,-7.25 0.574,-2.854 0.875,-6.116 0.875,-9.75 0,-3.655 -0.332,-6.876 -0.969,-9.75 -0.637,-2.874 -1.581,-5.321 -2.875,-7.313 -1.294,-1.991 -2.945,-3.516 -4.875,-4.563 -1.93,-1.047 -4.164,-1.594 -6.75,-1.594 m 163.529996,0 c -2.772,0 -5.143,0.558 -7.094,1.625 -1.95,1.047 -3.551,2.54 -4.781,4.531 -1.231,1.991 -2.143,4.438 -2.719,7.313 -0.555,2.874 -0.844,6.116 -0.844,9.75 0,3.634 0.321,6.896 0.938,9.75 0.637,2.854 1.609,5.259 2.875,7.25 1.272,1.991 2.883,3.516 4.813,4.563 1.93,1.047 4.205,1.594 6.813,1.594 2.772,0 5.081,-0.547 7.03,-1.594 1.971,-1.047 3.611,-2.571 4.844,-4.563 1.252,-1.991 2.164,-4.396 2.719,-7.25 0.575,-2.854 0.813,-6.116 0.813,-9.75 0,-3.655 -0.301,-6.876 -0.938,-9.75 -0.637,-2.874 -1.612,-5.321 -2.906,-7.313 -1.293,-1.991 -2.883,-3.516 -4.813,-4.563 -1.93,-1.047 -4.164,-1.594 -6.75,-1.594 m 109,0 c -2.772,0 -5.143,0.558 -7.094,1.625 -1.95,1.047 -3.519,2.54 -4.75,4.531 -1.231,1.991 -2.112,4.438 -2.688,7.313 -0.555,2.874 -0.844,6.116 -0.844,9.75 0,3.634 0.259,6.896 0.875,9.75 0.637,2.854 1.632,5.259 2.906,7.25 1.272,1.991 2.853,3.516 4.781,4.563 1.93,1.047 4.205,1.594 6.813,1.594 2.772,0 5.143,-0.547 7.094,-1.594 1.971,-1.047 3.551,-2.571 4.781,-4.563 1.252,-1.991 2.133,-4.396 2.688,-7.25 0.575,-2.854 0.906,-6.116 0.906,-9.75 0,-3.655 -0.301,-6.876 -0.938,-9.75 -0.637,-2.874 -1.612,-5.321 -2.906,-7.313 -1.293,-1.991 -2.914,-3.516 -4.844,-4.563 -1.93,-1.047 -4.194,-1.594 -6.781,-1.594 m -432.659996,0.688 -14.344,11.375 0,0.375 4.438,5.5 5.188,-4.125 c 0.307,-0.246 0.608,-0.536 0.938,-0.844 0.328,-0.307 0.661,-0.618 0.969,-0.906 l 0.844,-0.813 c 0.246,-0.246 0.396,-0.44 0.5,-0.563 -0.021,0.678 -0.053,1.397 -0.094,2.219 -0.02,0.821 -0.014,1.647 -0.063,2.469 -0.02,0.801 -0.072,1.615 -0.094,2.375 l 0,1.906 0,26.03 9.5,0 0,-45 -7.781,0 m 54.5,0 -14.5,11.531 4.594,5.719 5.156,-4.125 c 0.307,-0.246 0.672,-0.536 1,-0.844 0.328,-0.307 0.628,-0.618 0.938,-0.906 l 0.844,-0.813 c 0.246,-0.246 0.429,-0.44 0.531,-0.563 -0.02,0.678 -0.051,1.397 -0.094,2.219 -0.02,0.821 -0.051,1.647 -0.094,2.469 -0.02,0.801 -0.042,1.615 -0.063,2.375 l 0,1.906 0,26.03 9.5,0 0,-45 -7.813,0 m 163.5,0 -14.531,11.531 4.656,5.719 5.156,-4.125 c 0.307,-0.246 0.61,-0.536 0.938,-0.844 0.328,-0.307 0.693,-0.586 1,-0.875 l 0.813,-0.844 c 0.246,-0.246 0.396,-0.44 0.5,-0.563 -0.02,0.678 -0.051,1.397 -0.094,2.219 -0.02,0.821 -0.029,1.647 -0.063,2.469 -0.02,0.801 -0.073,1.615 -0.094,2.375 l 0,1.906 0,26.03 9.531,0 0,-45 -7.813,0 m 54.499996,0 -14.469,11.531 4.563,5.719 5.188,-4.125 c 0.307,-0.246 0.641,-0.536 0.969,-0.844 0.328,-0.307 0.628,-0.586 0.938,-0.875 l 0.844,-0.844 c 0.246,-0.246 0.427,-0.44 0.531,-0.563 -0.021,0.678 -0.051,1.397 -0.094,2.219 -0.02,0.821 -0.054,1.647 -0.094,2.469 -0.021,0.801 -0.042,1.615 -0.063,2.375 l 0,1.906 0,26.03 9.531,0 0,-45 -7.844,0 m 109,0 -14.5,11.531 4.625,5.719 5.188,-4.125 c 0.307,-0.246 0.608,-0.536 0.938,-0.844 0.328,-0.307 0.661,-0.586 0.969,-0.875 l 0.813,-0.844 c 0.246,-0.246 0.427,-0.44 0.531,-0.563 -0.021,0.678 -0.051,1.397 -0.094,2.219 -0.02,0.821 -0.054,1.647 -0.094,2.469 -0.021,0.801 -0.042,1.615 -0.063,2.375 l 0,1.906 0,26.03 9.5,0 0,-45 -7.813,0 m 109.030004,0 -14.5,11.531 4.594,5.719 5.156,-4.125 c 0.307,-0.246 0.672,-0.536 1,-0.844 0.33,-0.307 0.628,-0.586 0.938,-0.875 l 0.844,-0.844 c 0.246,-0.246 0.429,-0.408 0.531,-0.531 -0.021,0.678 -0.051,1.366 -0.094,2.188 -0.02,0.821 -0.051,1.647 -0.094,2.469 -0.021,0.801 -0.042,1.615 -0.063,2.375 l 0,1.938 0,26 8.813,0 0,-44.969 -7.125,0 0,-0.031 m -384.91,7 c 2.135,0 3.67,1.361 4.594,3.969 0.944,2.587 1.438,6.41 1.438,11.563 0,5.173 -0.493,9.06 -1.438,11.625 -0.924,2.567 -2.459,3.844 -4.594,3.844 -2.176,0 -3.68,-1.288 -4.563,-3.875 -0.883,-2.587 -1.344,-6.462 -1.344,-11.594 0,-2.567 0.106,-4.764 0.313,-6.688 0.205,-1.95 0.56,-3.581 1.031,-4.875 0.471,-1.293 1.01,-2.311 1.75,-2.969 0.76,-0.657 1.725,-1 2.813,-1 m 54.5,0 c 2.135,0 3.67,1.361 4.594,3.969 0.944,2.587 1.406,6.41 1.406,11.563 0,5.173 -0.462,9.06 -1.406,11.625 -0.924,2.567 -2.459,3.844 -4.594,3.844 -2.176,0 -3.711,-1.288 -4.594,-3.875 -0.883,-2.587 -1.313,-6.462 -1.313,-11.594 0,-2.567 0.075,-4.764 0.281,-6.688 0.205,-1.95 0.56,-3.581 1.031,-4.875 0.471,-1.293 1.104,-2.311 1.844,-2.969 0.76,-0.657 1.662,-1 2.75,-1 m 163.529996,0 c 2.135,0 3.639,1.361 4.563,3.969 0.944,2.587 1.438,6.41 1.438,11.563 0,5.173 -0.493,9.06 -1.438,11.625 -0.924,2.567 -2.428,3.844 -4.563,3.844 -2.176,0 -3.711,-1.288 -4.594,-3.875 -0.883,-2.587 -1.313,-6.462 -1.313,-11.594 0,-2.567 0.075,-4.764 0.281,-6.688 0.205,-1.95 0.56,-3.581 1.031,-4.875 0.473,-1.293 1.042,-2.311 1.781,-2.969 0.76,-0.657 1.725,-1 2.813,-1 m 109,0 c 2.135,0 3.639,1.361 4.563,3.969 0.944,2.587 1.438,6.41 1.438,11.563 0,5.173 -0.493,9.06 -1.438,11.625 -0.924,2.567 -2.428,3.844 -4.563,3.844 -2.176,0 -3.711,-1.288 -4.594,-3.875 -0.883,-2.587 -1.344,-6.462 -1.344,-11.594 0,-2.567 0.106,-4.764 0.313,-6.688 0.205,-1.95 0.56,-3.581 1.031,-4.875 0.473,-1.293 1.073,-2.311 1.813,-2.969 0.76,-0.657 1.693,-1 2.781,-1 m -218.029996,62.34 c -2.772,0 -5.143,0.495 -7.094,1.563 -1.95,1.047 -3.487,2.602 -4.719,4.594 -1.231,1.991 -2.143,4.407 -2.719,7.281 -0.555,2.874 -0.844,6.116 -0.844,9.75 0,3.634 0.29,6.928 0.906,9.781 0.637,2.854 1.632,5.227 2.906,7.219 1.272,1.991 2.853,3.547 4.781,4.594 1.93,1.047 4.174,1.531 6.781,1.531 2.772,0 5.143,-0.484 7.094,-1.531 1.971,-1.047 3.551,-2.602 4.781,-4.594 1.252,-1.991 2.164,-4.365 2.719,-7.219 0.575,-2.854 0.873,-6.147 0.875,-9.781 0,-3.655 -0.301,-6.907 -0.938,-9.781 -0.637,-2.874 -1.612,-5.321 -2.906,-7.313 -1.293,-1.991 -2.883,-3.484 -4.813,-4.531 -1.93,-1.047 -4.225,-1.563 -6.813,-1.563 m 54.499996,0 c -2.772,0 -5.112,0.495 -7.06,1.563 -1.95,1.047 -3.552,2.602 -4.781,4.594 -1.231,1.991 -2.112,4.407 -2.688,7.281 -0.555,2.874 -0.844,6.116 -0.844,9.75 0,3.634 0.321,6.928 0.938,9.781 0.637,2.854 1.578,5.227 2.844,7.219 1.272,1.991 2.853,3.547 4.781,4.594 1.93,1.047 4.205,1.531 6.813,1.531 2.772,0 5.143,-0.484 7.094,-1.531 1.971,-1.047 3.58,-2.602 4.813,-4.594 1.252,-1.991 2.164,-4.365 2.719,-7.219 0.575,-2.854 0.844,-6.147 0.844,-9.781 0,-3.655 -0.301,-6.907 -0.938,-9.781 -0.637,-2.874 -1.613,-5.321 -2.906,-7.313 -1.293,-1.991 -2.912,-3.484 -4.844,-4.531 -1.93,-1.047 -4.194,-1.563 -6.781,-1.563 m -269.119996,0.625 -14.344,11.438 0,0.375 4.469,5.5 5.156,-4.156 c 0.307,-0.246 0.608,-0.505 0.938,-0.813 0.328,-0.307 0.693,-0.618 1,-0.906 l 0.813,-0.844 c 0.246,-0.246 0.396,-0.471 0.5,-0.594 -0.021,0.678 -0.053,1.46 -0.094,2.281 -0.02,0.821 -0.029,1.647 -0.063,2.469 -0.02,0.801 -0.072,1.615 -0.094,2.375 l 0,1.844 0,26.06 9.5,0 0,-45.03 -7.781,0 m 54.5,0 -14.469,11.594 4.563,5.719 5.188,-4.156 c 0.307,-0.246 0.641,-0.505 0.969,-0.813 0.328,-0.307 0.628,-0.618 0.938,-0.906 l 0.844,-0.844 c 0.246,-0.246 0.429,-0.471 0.531,-0.594 -0.02,0.678 -0.051,1.46 -0.094,2.281 -0.02,0.821 -0.051,1.647 -0.094,2.469 -0.02,0.801 -0.042,1.615 -0.063,2.375 l 0,1.844 0,26.09 9.531,0 0,-45.06 -7.844,0 m 54.5,0 -14.5,11.594 4.625,5.719 5.188,-4.156 c 0.307,-0.246 0.608,-0.505 0.938,-0.813 0.328,-0.307 0.628,-0.618 0.938,-0.906 l 0.844,-0.844 c 0.246,-0.246 0.429,-0.44 0.531,-0.563 -0.02,0.678 -0.051,1.429 -0.094,2.25 -0.02,0.821 -0.051,1.647 -0.094,2.469 -0.02,0.801 -0.042,1.615 -0.063,2.375 l 0,1.875 0,26.06 9.5,0 0,-45.03 -7.813,0 0,-0.031 m 54.47,0.031 -14.469,11.563 4.625,5.719 5.188,-4.156 c 0.307,-0.246 0.608,-0.505 0.938,-0.813 0.328,-0.307 0.66,-0.618 0.969,-0.906 l 0.781,-0.844 c 0.246,-0.246 0.46,-0.44 0.563,-0.563 -0.02,0.678 -0.082,1.429 -0.125,2.25 -0.02,0.821 -0.051,1.647 -0.094,2.469 -0.02,0.801 -0.011,1.615 -0.031,2.375 l 0,1.875 0,26.06 9.5,0 0,-45.03 -7.844,0 m 163.529996,0 -14.469,11.563 4.625,5.719 5.156,-4.125 c 0.307,-0.246 0.608,-0.536 0.938,-0.844 0.328,-0.307 0.63,-0.618 0.938,-0.906 l 0.844,-0.813 c 0.246,-0.246 0.429,-0.471 0.531,-0.594 -0.02,0.678 -0.054,1.429 -0.094,2.25 -0.021,0.821 -0.051,1.647 -0.094,2.469 -0.02,0.801 -0.042,1.615 -0.063,2.375 l 0,1.875 0,26.06 9.531,0 0,-45.03 -7.844,0 m 54.5,0 -14.5,11.563 4.625,5.719 5.188,-4.125 c 0.307,-0.246 0.608,-0.536 0.938,-0.844 0.328,-0.307 0.661,-0.618 0.969,-0.906 l 0.813,-0.813 c 0.246,-0.246 0.427,-0.471 0.531,-0.594 -0.02,0.678 -0.051,1.429 -0.094,2.25 -0.021,0.821 -0.054,1.647 -0.094,2.469 -0.02,0.801 -0.042,1.615 -0.063,2.375 l 0,1.875 0,26.06 9.5,0 0,-45.03 -7.813,0 m 54.53,0 -14.531,11.563 4.625,5.719 5.188,-4.125 c 0.307,-0.246 0.608,-0.536 0.938,-0.844 0.328,-0.307 0.661,-0.618 0.969,-0.906 l 0.844,-0.813 c 0.246,-0.246 0.398,-0.471 0.5,-0.594 -0.02,0.678 -0.054,1.429 -0.094,2.25 -0.021,0.821 -0.029,1.647 -0.063,2.469 -0.021,0.801 -0.073,1.615 -0.094,2.375 l 0,1.875 0,26.06 9.5,0 0,-45.03 -7.781,0 m 54.470004,0 -14.469,11.563 4.594,5.719 5.156,-4.125 c 0.307,-0.246 0.672,-0.536 1,-0.844 0.33,-0.307 0.628,-0.618 0.938,-0.906 l 0.813,-0.813 c 0.246,-0.246 0.46,-0.471 0.563,-0.594 -0.021,0.678 -0.051,1.429 -0.094,2.25 -0.02,0.821 -0.082,1.647 -0.125,2.469 -0.021,0.801 -0.011,1.615 -0.031,2.375 l 0,1.875 0,26.06 8.813,0 0,-45.03 -7.125,0 -0.031,0 m -275.91,7.03 c 2.135,0 3.67,1.299 4.594,3.906 0.944,2.587 1.438,6.473 1.438,11.625 0,5.173 -0.493,9.06 -1.438,11.625 -0.924,2.567 -2.459,3.844 -4.594,3.844 -2.176,0 -3.68,-1.319 -4.563,-3.906 -0.883,-2.587 -1.344,-6.431 -1.344,-11.563 0,-2.567 0.106,-4.82 0.313,-6.75 0.205,-1.95 0.56,-3.581 1.031,-4.875 0.471,-1.293 1.075,-2.249 1.813,-2.906 0.76,-0.657 1.662,-1 2.75,-1 m 54.499996,0 c 2.135,0 3.701,1.299 4.625,3.906 0.944,2.587 1.406,6.473 1.406,11.625 0,5.173 -0.462,9.06 -1.406,11.625 -0.924,2.567 -2.489,3.844 -4.625,3.844 -2.176,0 -3.68,-1.319 -4.563,-3.906 -0.883,-2.587 -1.344,-6.431 -1.344,-11.563 0,-2.567 0.137,-4.82 0.344,-6.75 0.205,-1.95 0.527,-3.581 1,-4.875 0.473,-1.293 1.073,-2.249 1.813,-2.906 0.76,-0.657 1.662,-1 2.75,-1 m -272.499996,62.28 c -2.772,0 -5.143,0.558 -7.094,1.625 -1.508,0.809 -2.777,1.883 -3.844,3.25 l 0,36.28 c 1.151,1.54 2.537,2.746 4.156,3.625 1.93,1.047 4.174,1.594 6.781,1.594 2.772,0 5.143,-0.547 7.094,-1.594 1.971,-1.047 3.551,-2.54 4.781,-4.531 1.252,-1.991 2.164,-4.428 2.719,-7.281 0.575,-2.854 0.873,-6.086 0.875,-9.719 0,-3.655 -0.301,-6.938 -0.938,-9.813 -0.637,-2.874 -1.612,-5.29 -2.906,-7.281 -1.293,-1.991 -2.883,-3.516 -4.813,-4.563 -1.93,-1.047 -4.225,-1.594 -6.813,-1.594 m 54.5,0 c -2.772,0 -5.112,0.558 -7.06,1.625 -1.95,1.047 -3.52,2.54 -4.75,4.531 -1.231,1.991 -2.143,4.47 -2.719,7.344 -0.555,2.874 -0.844,6.116 -0.844,9.75 0,3.634 0.321,6.865 0.938,9.719 0.637,2.854 1.578,5.29 2.844,7.281 1.272,1.991 2.853,3.484 4.781,4.531 1.93,1.047 4.205,1.594 6.813,1.594 2.772,0 5.143,-0.547 7.094,-1.594 1.971,-1.047 3.58,-2.54 4.813,-4.531 1.252,-1.991 2.164,-4.428 2.719,-7.281 0.575,-2.854 0.844,-6.086 0.844,-9.719 0,-3.655 -0.301,-6.938 -0.938,-9.813 -0.637,-2.874 -1.612,-5.29 -2.906,-7.281 -1.293,-1.991 -2.914,-3.516 -4.844,-4.563 -1.93,-1.047 -4.194,-1.594 -6.781,-1.594 m 54.53,0 c -2.772,0 -5.143,0.558 -7.094,1.625 -1.95,1.047 -3.552,2.54 -4.781,4.531 -1.231,1.991 -2.112,4.47 -2.688,7.344 -0.553,2.874 -0.844,6.116 -0.844,9.75 0,3.634 0.321,6.865 0.938,9.719 0.637,2.854 1.578,5.29 2.844,7.281 1.272,1.991 2.914,3.484 4.844,4.531 1.93,1.047 4.174,1.594 6.781,1.594 2.772,0 5.112,-0.547 7.06,-1.594 1.971,-1.047 3.58,-2.54 4.813,-4.531 1.252,-1.991 2.164,-4.428 2.719,-7.281 0.575,-2.854 0.844,-6.086 0.844,-9.719 0,-3.655 -0.301,-6.938 -0.938,-9.813 -0.637,-2.874 -1.612,-5.29 -2.906,-7.281 -1.293,-1.991 -2.914,-3.516 -4.844,-4.563 -1.93,-1.047 -4.164,-1.594 -6.75,-1.594 m 218.029996,0 c -2.772,0 -5.143,0.558 -7.094,1.625 -1.95,1.047 -3.551,2.54 -4.781,4.531 -1.231,1.991 -2.143,4.47 -2.719,7.344 -0.555,2.874 -0.844,6.116 -0.844,9.75 0,3.634 0.321,6.865 0.938,9.719 0.637,2.854 1.609,5.29 2.875,7.281 1.272,1.991 2.883,3.484 4.813,4.531 1.93,1.047 4.205,1.594 6.813,1.594 2.772,0 5.081,-0.547 7.03,-1.594 1.971,-1.047 3.611,-2.54 4.844,-4.531 1.252,-1.991 2.164,-4.428 2.719,-7.281 0.575,-2.854 0.813,-6.086 0.813,-9.719 0,-3.655 -0.301,-6.938 -0.938,-9.813 -0.637,-2.874 -1.612,-5.29 -2.906,-7.281 -1.293,-1.991 -2.883,-3.516 -4.813,-4.563 -1.93,-1.047 -4.164,-1.594 -6.75,-1.594 m 54.5,0 c -2.772,0 -5.143,0.558 -7.094,1.625 -1.95,1.047 -3.551,2.54 -4.781,4.531 -1.231,1.991 -2.143,4.47 -2.719,7.344 -0.555,2.874 -0.844,6.116 -0.844,9.75 0,3.634 0.321,6.865 0.938,9.719 0.637,2.854 1.609,5.29 2.875,7.281 1.272,1.991 2.883,3.484 4.813,4.531 1.93,1.047 4.205,1.594 6.813,1.594 2.772,0 5.143,-0.547 7.094,-1.594 1.971,-1.047 3.551,-2.54 4.781,-4.531 1.252,-1.991 2.133,-4.428 2.688,-7.281 0.575,-2.854 0.906,-6.086 0.906,-9.719 0,-3.655 -0.363,-6.938 -1,-9.813 -0.637,-2.874 -1.549,-5.29 -2.844,-7.281 -1.293,-1.991 -2.945,-3.516 -4.875,-4.563 -1.93,-1.047 -4.164,-1.594 -6.75,-1.594 m 108.970004,0 c -2.772,0 -5.081,0.558 -7.03,1.625 -1.95,1.047 -3.551,2.54 -4.781,4.531 -1.231,1.991 -2.143,4.47 -2.719,7.344 -0.553,2.874 -0.813,6.116 -0.813,9.75 0,3.634 0.321,6.865 0.938,9.719 0.637,2.854 1.578,5.29 2.844,7.281 1.272,1.991 2.853,3.484 4.781,4.531 1.93,1.047 4.205,1.594 6.813,1.594 2.772,0 5.144,-0.547 7.094,-1.594 1.303,-0.692 2.419,-1.59 3.406,-2.688 l 0,-37.438 c -1.068,-1.275 -2.309,-2.298 -3.719,-3.063 -1.93,-1.047 -4.225,-1.594 -6.813,-1.594 m -323.62,0.688 -14.5,11.531 4.625,5.781 5.188,-4.188 c 0.307,-0.246 0.608,-0.536 0.938,-0.844 0.328,-0.307 0.66,-0.618 0.969,-0.906 l 0.813,-0.813 c 0.246,-0.246 0.429,-0.44 0.531,-0.563 -0.02,0.678 -0.051,1.46 -0.094,2.281 -0.02,0.821 -0.051,1.647 -0.094,2.469 -0.02,0.801 -0.042,1.553 -0.063,2.313 l 0,1.906 0,26.06 9.5,0 0,-45.03 -7.813,0 m 54.53,0 -14.531,11.531 4.625,5.781 5.188,-4.188 c 0.307,-0.246 0.61,-0.536 0.938,-0.844 0.328,-0.307 0.661,-0.618 0.969,-0.906 l 0.844,-0.813 c 0.246,-0.246 0.396,-0.44 0.5,-0.563 -0.02,0.678 -0.082,1.46 -0.125,2.281 -0.02,0.821 0.002,1.647 -0.031,2.469 -0.02,0.801 -0.073,1.553 -0.094,2.313 l 0,1.906 0,26.06 9.5,0 0,-45.03 -7.781,0 m 54.469996,0 -14.469,11.531 4.594,5.781 5.156,-4.188 c 0.307,-0.246 0.672,-0.536 1,-0.844 0.328,-0.307 0.628,-0.586 0.938,-0.875 l 0.813,-0.844 c 0.246,-0.246 0.458,-0.44 0.563,-0.563 -0.02,0.678 -0.051,1.46 -0.094,2.281 -0.021,0.821 -0.085,1.647 -0.125,2.469 -0.02,0.801 -0.011,1.553 -0.031,2.313 l 0,1.906 0,26.06 9.5,0 0,-45.03 -7.813,0 -0.031,0 m 163.53,0 -14.531,11.531 4.625,5.781 5.188,-4.188 c 0.307,-0.246 0.608,-0.536 0.938,-0.844 0.328,-0.307 0.661,-0.586 0.969,-0.875 l 0.844,-0.844 c 0.246,-0.246 0.398,-0.44 0.5,-0.563 -0.021,0.678 -0.054,1.46 -0.094,2.281 -0.021,0.821 -0.029,1.647 -0.063,2.469 -0.02,0.801 -0.073,1.553 -0.094,2.313 l 0,1.906 0,26.06 9.5,0 0,-45.03 -7.781,0 m -439.409996,7.06 c 2.135,0 3.639,1.267 4.563,3.875 0.944,2.587 1.438,6.504 1.438,11.656 0,5.173 -0.493,8.996 -1.438,11.563 -0.924,2.567 -2.428,3.844 -4.563,3.844 -2.176,0 -3.711,-1.257 -4.594,-3.844 -0.883,-2.587 -1.344,-6.431 -1.344,-11.563 0,-2.567 0.106,-4.82 0.313,-6.75 0.205,-1.95 0.56,-3.612 1.031,-4.906 0.471,-1.293 1.073,-2.249 1.813,-2.906 0.76,-0.657 1.693,-0.969 2.781,-0.969 m 54.47,0 c 2.135,0 3.731,1.267 4.656,3.875 0.944,2.587 1.375,6.504 1.375,11.656 0,5.173 -0.431,8.996 -1.375,11.563 -0.924,2.567 -2.52,3.844 -4.656,3.844 -2.176,0 -3.68,-1.257 -4.563,-3.844 -0.883,-2.587 -1.344,-6.431 -1.344,-11.563 0,-2.567 0.139,-4.82 0.344,-6.75 0.205,-1.95 0.529,-3.612 1,-4.906 0.471,-1.293 1.073,-2.249 1.813,-2.906 0.76,-0.657 1.662,-0.969 2.75,-0.969 m 54.56,0 c 2.135,0 3.639,1.267 4.563,3.875 0.944,2.587 1.438,6.504 1.438,11.656 0,5.173 -0.493,8.996 -1.438,11.563 -0.924,2.567 -2.428,3.844 -4.563,3.844 -2.176,0 -3.711,-1.257 -4.594,-3.844 -0.883,-2.587 -1.313,-6.431 -1.313,-11.563 0,-2.567 0.075,-4.82 0.281,-6.75 0.205,-1.95 0.56,-3.612 1.031,-4.906 0.471,-1.293 1.042,-2.249 1.781,-2.906 0.76,-0.657 1.725,-0.969 2.813,-0.969 m 217.999996,0 c 2.135,0 3.67,1.267 4.594,3.875 0.944,2.587 1.406,6.504 1.406,11.656 0,5.173 -0.462,8.996 -1.406,11.563 -0.924,2.567 -2.459,3.844 -4.594,3.844 -2.176,0 -3.68,-1.257 -4.563,-3.844 -0.883,-2.587 -1.344,-6.431 -1.344,-11.563 0,-2.567 0.075,-4.82 0.281,-6.75 0.205,-1.95 0.591,-3.612 1.063,-4.906 0.473,-1.293 1.01,-2.249 1.75,-2.906 0.76,-0.657 1.725,-0.969 2.813,-0.969 m 54.5,0 c 2.135,0 3.67,1.267 4.594,3.875 0.944,2.587 1.406,6.504 1.406,11.656 0,5.173 -0.462,8.996 -1.406,11.563 -0.924,2.567 -2.459,3.844 -4.594,3.844 -2.176,0 -3.712,-1.257 -4.594,-3.844 -0.883,-2.587 -1.313,-6.431 -1.313,-11.563 0,-2.567 0.075,-4.82 0.281,-6.75 0.205,-1.95 0.56,-3.612 1.031,-4.906 0.471,-1.293 1.104,-2.249 1.844,-2.906 0.76,-0.657 1.662,-0.969 2.75,-0.969 m 109.000004,0 c 2.135,0 3.7,1.267 4.625,3.875 0.944,2.587 1.375,6.504 1.375,11.656 0,5.173 -0.431,8.996 -1.375,11.563 -0.924,2.567 -2.489,3.844 -4.625,3.844 -2.176,0 -3.712,-1.257 -4.594,-3.844 -0.883,-2.587 -1.344,-6.431 -1.344,-11.563 0,-2.567 0.137,-4.82 0.344,-6.75 0.205,-1.95 0.527,-3.612 1,-4.906 0.471,-1.293 1.073,-2.249 1.813,-2.906 0.76,-0.657 1.693,-0.969 2.781,-0.969 m -436.06,62.28 c -2.772,0 -5.081,0.558 -7.03,1.625 -1.95,1.047 -3.551,2.54 -4.781,4.531 -1.231,1.991 -2.143,4.407 -2.719,7.281 -0.555,2.874 -0.844,6.116 -0.844,9.75 0,3.634 0.321,6.928 0.938,9.781 0.637,2.854 1.609,5.227 2.875,7.219 1.272,1.991 2.853,3.547 4.781,4.594 1.93,1.047 4.174,1.563 6.781,1.563 2.772,0 5.143,-0.516 7.094,-1.563 1.971,-1.047 3.611,-2.603 4.844,-4.594 1.252,-1.991 2.164,-4.365 2.719,-7.219 0.575,-2.854 0.813,-6.147 0.813,-9.781 0,-3.655 -0.301,-6.876 -0.938,-9.75 -0.637,-2.874 -1.612,-5.352 -2.906,-7.344 -1.293,-1.991 -2.883,-3.484 -4.813,-4.531 -1.93,-1.047 -4.225,-1.563 -6.813,-1.563 m 54.56,0 c -2.772,0 -5.143,0.558 -7.094,1.625 -1.95,1.047 -3.552,2.54 -4.781,4.531 -1.231,1.991 -2.143,4.407 -2.719,7.281 -0.553,2.874 -0.844,6.116 -0.844,9.75 0,3.634 0.321,6.928 0.938,9.781 0.637,2.854 1.609,5.227 2.875,7.219 1.272,1.991 2.883,3.547 4.813,4.594 1.93,1.047 4.205,1.563 6.813,1.563 2.772,0 5.081,-0.516 7.03,-1.563 1.971,-1.047 3.611,-2.603 4.844,-4.594 1.252,-1.991 2.133,-4.365 2.688,-7.219 0.575,-2.854 0.844,-6.147 0.844,-9.781 0,-3.655 -0.301,-6.876 -0.938,-9.75 -0.637,-2.874 -1.612,-5.352 -2.906,-7.344 -1.293,-1.991 -2.883,-3.484 -4.813,-4.531 -1.93,-1.047 -4.164,-1.563 -6.75,-1.563 m 108.97,0 c -2.772,0 -5.143,0.558 -7.094,1.625 -1.95,1.047 -3.487,2.54 -4.719,4.531 -1.231,1.991 -2.143,4.407 -2.719,7.281 -0.555,2.874 -0.813,6.116 -0.813,9.75 0,3.634 0.259,6.928 0.875,9.781 0.637,2.854 1.632,5.227 2.906,7.219 1.272,1.991 2.853,3.547 4.781,4.594 1.93,1.047 4.174,1.563 6.781,1.563 2.772,0 5.143,-0.516 7.094,-1.563 1.971,-1.047 3.552,-2.603 4.781,-4.594 1.252,-1.991 2.164,-4.365 2.719,-7.219 0.575,-2.854 0.873,-6.147 0.875,-9.781 0,-3.655 -0.269,-6.876 -0.906,-9.75 -0.637,-2.874 -1.643,-5.352 -2.938,-7.344 -1.293,-1.991 -2.883,-3.484 -4.813,-4.531 -1.93,-1.047 -4.225,-1.563 -6.813,-1.563 m 109.059996,0 c -2.772,0 -5.143,0.558 -7.094,1.625 -1.95,1.047 -3.551,2.54 -4.781,4.531 -1.231,1.991 -2.143,4.407 -2.719,7.281 -0.555,2.874 -0.844,6.116 -0.844,9.75 0,3.634 0.321,6.928 0.938,9.781 0.637,2.854 1.609,5.227 2.875,7.219 1.272,1.991 2.883,3.547 4.813,4.594 1.93,1.047 4.205,1.563 6.813,1.563 2.772,0 5.081,-0.516 7.03,-1.563 1.971,-1.047 3.611,-2.603 4.844,-4.594 1.252,-1.991 2.133,-4.365 2.688,-7.219 0.575,-2.854 0.844,-6.147 0.844,-9.781 0,-3.655 -0.301,-6.876 -0.938,-9.75 -0.637,-2.874 -1.612,-5.352 -2.906,-7.344 -1.293,-1.991 -2.883,-3.484 -4.813,-4.531 -1.93,-1.047 -4.164,-1.563 -6.75,-1.563 m 108.97,0 c -2.772,0 -5.143,0.558 -7.094,1.625 -1.95,1.047 -3.487,2.54 -4.719,4.531 -1.231,1.991 -2.143,4.407 -2.719,7.281 -0.555,2.874 -0.813,6.116 -0.813,9.75 0,3.634 0.259,6.928 0.875,9.781 0.637,2.854 1.632,5.227 2.906,7.219 1.272,1.991 2.853,3.547 4.781,4.594 1.93,1.047 4.174,1.563 6.781,1.563 2.772,0 5.144,-0.516 7.094,-1.563 1.971,-1.047 3.551,-2.603 4.781,-4.594 1.252,-1.991 2.164,-4.365 2.719,-7.219 0.575,-2.854 0.875,-6.147 0.875,-9.781 0,-3.655 -0.269,-6.876 -0.906,-9.75 -0.637,-2.874 -1.643,-5.352 -2.938,-7.344 -1.293,-1.991 -2.883,-3.484 -4.813,-4.531 -1.93,-1.047 -4.225,-1.563 -6.813,-1.563 m 54.500004,0 c -2.772,0 -5.081,0.558 -7.03,1.625 -1.95,1.047 -3.551,2.54 -4.781,4.531 -1.231,1.991 -2.143,4.407 -2.719,7.281 -0.553,2.874 -0.844,6.116 -0.844,9.75 0,3.634 0.321,6.928 0.938,9.781 0.637,2.854 1.609,5.227 2.875,7.219 1.272,1.991 2.853,3.547 4.781,4.594 1.93,1.047 4.174,1.563 6.781,1.563 2.772,0 5.143,-0.516 7.094,-1.563 1.289,-0.685 2.426,-1.592 3.406,-2.688 l 0,-37.5 c -1.068,-1.261 -2.278,-2.267 -3.688,-3.03 -1.93,-1.047 -4.225,-1.563 -6.813,-1.563 m -487.12,0.688 -14.375,11.406 0,0.313 4.469,5.531 5.188,-4.156 c 0.307,-0.246 0.608,-0.536 0.938,-0.844 0.328,-0.307 0.661,-0.586 0.969,-0.875 l 0.844,-0.844 c 0.246,-0.246 0.396,-0.408 0.5,-0.531 -0.02,0.678 -0.053,1.397 -0.094,2.219 -0.02,0.821 -0.014,1.647 -0.063,2.469 -0.021,0.801 -0.072,1.584 -0.094,2.344 l 0,1.938 0,26 9.5,0 0,-44.969 -7.781,0 m 163.47,0 -14.469,11.531 4.625,5.719 5.188,-4.156 c 0.307,-0.246 0.608,-0.505 0.938,-0.813 0.328,-0.307 0.66,-0.618 0.969,-0.906 l 0.781,-0.844 c 0.246,-0.246 0.46,-0.408 0.563,-0.531 -0.02,0.678 -0.083,1.397 -0.125,2.219 -0.02,0.821 -0.051,1.647 -0.094,2.469 -0.02,0.801 -0.011,1.584 -0.031,2.344 l 0,1.938 0,26 9.5,0 0,-44.969 -7.844,0 m 109.029996,0 -14.469,11.531 4.594,5.719 5.156,-4.156 c 0.307,-0.246 0.672,-0.505 1,-0.813 0.328,-0.307 0.628,-0.618 0.938,-0.906 l 0.813,-0.844 c 0.246,-0.246 0.458,-0.408 0.563,-0.531 -0.02,0.678 -0.051,1.397 -0.094,2.219 -0.021,0.821 -0.086,1.647 -0.125,2.469 -0.02,0.801 -0.011,1.584 -0.031,2.344 l 0,1.938 0,26 9.5,0 0,-44.969 -7.844,0 m 109,0 -14.5,11.531 4.656,5.719 5.156,-4.156 c 0.307,-0.246 0.608,-0.505 0.938,-0.813 0.328,-0.307 0.693,-0.618 1,-0.906 l 0.781,-0.844 c 0.246,-0.246 0.427,-0.408 0.531,-0.531 -0.02,0.678 -0.051,1.397 -0.094,2.219 -0.021,0.821 -0.054,1.647 -0.094,2.469 -0.02,0.801 -0.042,1.615 -0.063,2.375 l 0,1.906 0,26 9.531,0 0,-44.969 -7.844,0 m -330.409996,7 c 2.135,0 3.7,1.33 4.625,3.938 0.944,2.587 1.406,6.441 1.406,11.594 0,5.173 -0.462,9.06 -1.406,11.625 -0.924,2.567 -2.489,3.844 -4.625,3.844 -2.176,0 -3.68,-1.319 -4.563,-3.906 -0.883,-2.587 -1.344,-6.431 -1.344,-11.563 0,-2.567 0.139,-4.82 0.344,-6.75 0.205,-1.95 0.529,-3.549 1,-4.844 0.471,-1.293 1.073,-2.28 1.813,-2.938 0.76,-0.657 1.662,-1 2.75,-1 m 54.56,0 c 2.135,0 3.639,1.33 4.563,3.938 0.944,2.587 1.438,6.441 1.438,11.594 0,5.173 -0.493,9.06 -1.438,11.625 -0.924,2.567 -2.428,3.844 -4.563,3.844 -2.176,0 -3.711,-1.319 -4.594,-3.906 -0.883,-2.587 -1.344,-6.431 -1.344,-11.563 0,-2.567 0.106,-4.82 0.313,-6.75 0.205,-1.95 0.56,-3.549 1.031,-4.844 0.471,-1.293 1.042,-2.28 1.781,-2.938 0.76,-0.657 1.725,-1 2.813,-1 m 108.97,0 c 2.135,0 3.67,1.33 4.594,3.938 0.944,2.587 1.438,6.441 1.438,11.594 0,5.173 -0.493,9.06 -1.438,11.625 -0.924,2.567 -2.459,3.844 -4.594,3.844 -2.176,0 -3.68,-1.319 -4.563,-3.906 -0.883,-2.587 -1.344,-6.431 -1.344,-11.563 0,-2.567 0.106,-4.82 0.313,-6.75 0.205,-1.95 0.56,-3.549 1.031,-4.844 0.471,-1.293 1.075,-2.28 1.813,-2.938 0.76,-0.657 1.662,-1 2.75,-1 m 109.029996,0 c 2.135,0 3.67,1.33 4.594,3.938 0.944,2.587 1.438,6.441 1.438,11.594 0,5.173 -0.493,9.06 -1.438,11.625 -0.924,2.567 -2.459,3.844 -4.594,3.844 -2.176,0 -3.68,-1.319 -4.563,-3.906 -0.883,-2.587 -1.344,-6.431 -1.344,-11.563 0,-2.567 0.106,-4.82 0.313,-6.75 0.205,-1.95 0.56,-3.549 1.031,-4.844 0.473,-1.293 1.042,-2.28 1.781,-2.938 0.76,-0.657 1.693,-1 2.781,-1 m 109,0 c 2.135,0 3.67,1.33 4.594,3.938 0.944,2.587 1.438,6.441 1.438,11.594 0,5.173 -0.493,9.06 -1.438,11.625 -0.924,2.567 -2.459,3.844 -4.594,3.844 -2.176,0 -3.68,-1.319 -4.563,-3.906 -0.883,-2.587 -1.344,-6.431 -1.344,-11.563 0,-2.567 0.075,-4.82 0.281,-6.75 0.205,-1.95 0.591,-3.549 1.063,-4.844 0.473,-1.293 1.073,-2.28 1.813,-2.938 0.76,-0.657 1.662,-1 2.75,-1 m 54.500004,0 c 2.135,0 3.7,1.33 4.625,3.938 0.944,2.587 1.375,6.441 1.375,11.594 0,5.173 -0.431,9.06 -1.375,11.625 -0.924,2.567 -2.489,3.844 -4.625,3.844 -2.176,0 -3.712,-1.319 -4.594,-3.906 -0.883,-2.587 -1.313,-6.431 -1.313,-11.563 0,-2.567 0.137,-4.82 0.344,-6.75 0.205,-1.95 0.496,-3.549 0.969,-4.844 0.471,-1.293 1.104,-2.28 1.844,-2.938 0.76,-0.657 1.662,-1 2.75,-1 m -490.53,62.31 c -2.772,0 -5.143,0.526 -7.094,1.594 -1.551,0.833 -2.821,1.97 -3.906,3.406 l 0,36.03 c 1.167,1.59 2.564,2.82 4.219,3.719 1.93,1.047 4.174,1.563 6.781,1.563 2.772,0 5.175,-0.516 7.125,-1.563 1.971,-1.047 3.52,-2.54 4.75,-4.531 1.252,-1.991 2.164,-4.428 2.719,-7.281 0.575,-2.854 0.905,-6.086 0.906,-9.719 0,-3.655 -0.301,-6.938 -0.938,-9.813 -0.637,-2.874 -1.612,-5.29 -2.906,-7.281 -1.293,-1.991 -2.914,-3.484 -4.844,-4.531 -1.93,-1.047 -4.225,-1.594 -6.813,-1.594 m 54.5,0 c -2.772,0 -5.081,0.526 -7.03,1.594 -1.95,1.047 -3.551,2.571 -4.781,4.563 -1.231,1.991 -2.143,4.438 -2.719,7.313 -0.555,2.874 -0.844,6.116 -0.844,9.75 0,3.634 0.321,6.865 0.938,9.719 0.637,2.854 1.609,5.29 2.875,7.281 1.272,1.991 2.853,3.484 4.781,4.531 1.93,1.047 4.174,1.563 6.781,1.563 2.772,0 5.143,-0.516 7.094,-1.563 1.971,-1.047 3.611,-2.54 4.844,-4.531 1.252,-1.991 2.133,-4.428 2.688,-7.281 0.575,-2.854 0.844,-6.086 0.844,-9.719 0,-3.655 -0.301,-6.938 -0.938,-9.813 -0.637,-2.874 -1.612,-5.29 -2.906,-7.281 -1.293,-1.991 -2.883,-3.484 -4.813,-4.531 -1.93,-1.047 -4.225,-1.594 -6.813,-1.594 m 54.53,0 c -2.772,0 -5.143,0.526 -7.094,1.594 -1.95,1.047 -3.52,2.571 -4.75,4.563 -1.231,1.991 -2.143,4.438 -2.719,7.313 -0.553,2.874 -0.844,6.116 -0.844,9.75 0,3.634 0.321,6.865 0.938,9.719 0.637,2.854 1.578,5.29 2.844,7.281 1.272,1.991 2.914,3.484 4.844,4.531 1.93,1.047 4.205,1.563 6.813,1.563 2.772,0 5.081,-0.516 7.03,-1.563 1.971,-1.047 3.611,-2.54 4.844,-4.531 1.252,-1.991 2.133,-4.428 2.688,-7.281 0.575,-2.854 0.844,-6.086 0.844,-9.719 0,-3.655 -0.301,-6.938 -0.938,-9.813 -0.637,-2.874 -1.612,-5.29 -2.906,-7.281 -1.293,-1.991 -2.883,-3.484 -4.813,-4.531 -1.93,-1.047 -4.164,-1.594 -6.75,-1.594 l -0.031,0 m 54.5,0 c -2.772,0 -5.143,0.526 -7.094,1.594 -1.95,1.047 -3.551,2.571 -4.781,4.563 -1.231,1.991 -2.112,4.438 -2.688,7.313 -0.555,2.874 -0.844,6.116 -0.844,9.75 0,3.634 0.321,6.865 0.938,9.719 0.637,2.854 1.578,5.29 2.844,7.281 1.272,1.991 2.914,3.484 4.844,4.531 1.93,1.047 4.205,1.563 6.813,1.563 2.772,0 5.143,-0.516 7.094,-1.563 1.971,-1.047 3.52,-2.54 4.75,-4.531 1.252,-1.991 2.164,-4.428 2.719,-7.281 0.574,-2.854 0.906,-6.086 0.906,-9.719 0,-3.655 -0.363,-6.938 -1,-9.813 -0.637,-2.874 -1.549,-5.29 -2.844,-7.281 -1.294,-1.991 -2.976,-3.484 -4.906,-4.531 -1.93,-1.047 -4.164,-1.594 -6.75,-1.594 m 54.5,0 c -2.772,0 -5.143,0.526 -7.094,1.594 -1.95,1.047 -3.487,2.571 -4.719,4.563 -1.231,1.991 -2.143,4.438 -2.719,7.313 -0.555,2.874 -0.844,6.116 -0.844,9.75 0,3.634 0.29,6.865 0.906,9.719 0.637,2.854 1.632,5.29 2.906,7.281 1.272,1.991 2.853,3.484 4.781,4.531 1.93,1.047 4.174,1.563 6.781,1.563 2.772,0 5.143,-0.516 7.094,-1.563 1.971,-1.047 3.552,-2.54 4.781,-4.531 1.252,-1.991 2.164,-4.428 2.719,-7.281 0.575,-2.854 0.873,-6.086 0.875,-9.719 0,-3.655 -0.301,-6.938 -0.938,-9.813 -0.637,-2.874 -1.612,-5.29 -2.906,-7.281 -1.293,-1.991 -2.883,-3.484 -4.813,-4.531 -1.93,-1.047 -4.225,-1.594 -6.813,-1.594 m 54.499996,0 c -2.772,0 -5.112,0.526 -7.06,1.594 -1.95,1.047 -3.52,2.571 -4.75,4.563 -1.231,1.991 -2.143,4.438 -2.719,7.313 -0.555,2.874 -0.844,6.116 -0.844,9.75 0,3.634 0.321,6.865 0.938,9.719 0.637,2.854 1.578,5.29 2.844,7.281 1.272,1.991 2.853,3.484 4.781,4.531 1.93,1.047 4.205,1.563 6.813,1.563 2.772,0 5.143,-0.516 7.094,-1.563 1.971,-1.047 3.58,-2.54 4.813,-4.531 1.252,-1.991 2.164,-4.428 2.719,-7.281 0.575,-2.854 0.844,-6.086 0.844,-9.719 0,-3.655 -0.301,-6.938 -0.938,-9.813 -0.637,-2.874 -1.613,-5.29 -2.906,-7.281 -1.293,-1.991 -2.912,-3.484 -4.844,-4.531 -1.93,-1.047 -4.194,-1.594 -6.781,-1.594 m 54.53,0 c -2.772,0 -5.143,0.526 -7.094,1.594 -1.95,1.047 -3.551,2.571 -4.781,4.563 -1.231,1.991 -2.112,4.438 -2.688,7.313 -0.555,2.874 -0.844,6.116 -0.844,9.75 0,3.634 0.321,6.865 0.938,9.719 0.637,2.854 1.578,5.29 2.844,7.281 1.272,1.991 2.914,3.484 4.844,4.531 1.93,1.047 4.174,1.563 6.781,1.563 2.772,0 5.112,-0.516 7.06,-1.563 1.971,-1.047 3.58,-2.54 4.813,-4.531 1.252,-1.991 2.164,-4.428 2.719,-7.281 0.575,-2.854 0.844,-6.086 0.844,-9.719 0,-3.655 -0.301,-6.938 -0.938,-9.813 -0.637,-2.874 -1.612,-5.29 -2.906,-7.281 -1.293,-1.991 -2.914,-3.484 -4.844,-4.531 -1.93,-1.047 -4.164,-1.594 -6.75,-1.594 m 109,0 c -2.772,0 -5.143,0.526 -7.094,1.594 -1.95,1.047 -3.487,2.571 -4.719,4.563 -1.231,1.991 -2.143,4.438 -2.719,7.313 -0.555,2.874 -0.844,6.116 -0.844,9.75 0,3.634 0.29,6.865 0.906,9.719 0.637,2.854 1.632,5.29 2.906,7.281 1.272,1.991 2.822,3.484 4.75,4.531 1.93,1.047 4.205,1.563 6.813,1.563 2.772,0 5.143,-0.516 7.094,-1.563 1.971,-1.047 3.551,-2.54 4.781,-4.531 1.252,-1.991 2.164,-4.428 2.719,-7.281 0.575,-2.854 0.875,-6.086 0.875,-9.719 0,-3.655 -0.301,-6.938 -0.938,-9.813 -0.637,-2.874 -1.612,-5.29 -2.906,-7.281 -1.293,-1.991 -2.883,-3.484 -4.813,-4.531 -1.93,-1.047 -4.225,-1.594 -6.813,-1.594 m 54.500004,0 c -2.772,0 -5.112,0.526 -7.06,1.594 -1.95,1.047 -3.551,2.571 -4.781,4.563 -1.231,1.991 -2.112,4.438 -2.688,7.313 -0.553,2.874 -0.844,6.116 -0.844,9.75 0,3.634 0.321,6.865 0.938,9.719 0.637,2.854 1.578,5.29 2.844,7.281 1.272,1.991 2.853,3.484 4.781,4.531 1.93,1.047 4.205,1.563 6.813,1.563 2.772,0 5.143,-0.516 7.094,-1.563 1.258,-0.668 2.379,-1.516 3.344,-2.563 l 0,-37.656 c -1.051,-1.221 -2.279,-2.19 -3.656,-2.938 -1.93,-1.047 -4.194,-1.594 -6.781,-1.594 m -105.660004,0.656 -14.469,11.563 4.625,5.719 5.188,-4.188 c 0.307,-0.246 0.608,-0.474 0.938,-0.781 0.328,-0.307 0.661,-0.649 0.969,-0.938 l 0.781,-0.781 c 0.246,-0.246 0.458,-0.471 0.563,-0.594 -0.02,0.678 -0.051,1.46 -0.094,2.281 -0.021,0.821 -0.086,1.616 -0.125,2.438 -0.02,0.801 -0.011,1.553 -0.031,2.313 l 0,1.938 0,26.06 9.5,0 0,-45.03 -7.844,0 m -384.869996,7.03 c 2.135,0 3.639,1.299 4.563,3.906 0.944,2.587 1.438,6.473 1.438,11.625 0,5.173 -0.493,9.06 -1.438,11.625 -0.924,2.567 -2.428,3.844 -4.563,3.844 -2.176,0 -3.711,-1.288 -4.594,-3.875 -0.883,-2.587 -1.344,-6.462 -1.344,-11.594 0,-2.567 0.106,-4.82 0.313,-6.75 0.205,-1.95 0.56,-3.581 1.031,-4.875 0.471,-1.293 1.073,-2.249 1.813,-2.906 0.76,-0.657 1.693,-1 2.781,-1 m 54.47,0 c 2.135,0 3.731,1.299 4.656,3.906 0.944,2.587 1.375,6.473 1.375,11.625 0,5.173 -0.431,9.06 -1.375,11.625 -0.924,2.567 -2.52,3.844 -4.656,3.844 -2.176,0 -3.68,-1.288 -4.563,-3.875 -0.883,-2.587 -1.344,-6.462 -1.344,-11.594 0,-2.567 0.139,-4.82 0.344,-6.75 0.205,-1.95 0.529,-3.581 1,-4.875 0.471,-1.293 1.073,-2.249 1.813,-2.906 0.76,-0.657 1.662,-1 2.75,-1 m 54.56,0 c 2.135,0 3.639,1.299 4.563,3.906 0.944,2.587 1.438,6.473 1.438,11.625 0,5.173 -0.493,9.06 -1.438,11.625 -0.924,2.567 -2.428,3.844 -4.563,3.844 -2.176,0 -3.711,-1.288 -4.594,-3.875 -0.883,-2.587 -1.313,-6.462 -1.313,-11.594 0,-2.567 0.075,-4.82 0.281,-6.75 0.205,-1.95 0.56,-3.581 1.031,-4.875 0.471,-1.293 1.042,-2.249 1.781,-2.906 0.76,-0.657 1.725,-1 2.813,-1 m 54.47,0 c 2.135,0 3.67,1.299 4.594,3.906 0.944,2.587 1.438,6.473 1.438,11.625 0,5.173 -0.493,9.06 -1.438,11.625 -0.924,2.567 -2.459,3.844 -4.594,3.844 -2.176,0 -3.68,-1.288 -4.563,-3.875 -0.883,-2.587 -1.344,-6.462 -1.344,-11.594 0,-2.567 0.106,-4.82 0.313,-6.75 0.205,-1.95 0.56,-3.581 1.031,-4.875 0.471,-1.293 1.073,-2.249 1.813,-2.906 0.76,-0.657 1.662,-1 2.75,-1 m 54.5,0 c 2.135,0 3.67,1.299 4.594,3.906 0.944,2.587 1.438,6.473 1.438,11.625 0,5.173 -0.493,9.06 -1.438,11.625 -0.924,2.567 -2.459,3.844 -4.594,3.844 -2.176,0 -3.68,-1.288 -4.563,-3.875 -0.883,-2.587 -1.344,-6.462 -1.344,-11.594 0,-2.567 0.106,-4.82 0.313,-6.75 0.205,-1.95 0.56,-3.581 1.031,-4.875 0.471,-1.293 1.075,-2.249 1.813,-2.906 0.76,-0.657 1.662,-1 2.75,-1 m 54.499996,0 c 2.135,0 3.701,1.299 4.625,3.906 0.944,2.587 1.375,6.473 1.375,11.625 0,5.173 -0.431,9.06 -1.375,11.625 -0.924,2.567 -2.489,3.844 -4.625,3.844 -2.176,0 -3.711,-1.288 -4.594,-3.875 -0.883,-2.587 -1.313,-6.462 -1.313,-11.594 0,-2.567 0.137,-4.82 0.344,-6.75 0.205,-1.95 0.496,-3.581 0.969,-4.875 0.473,-1.293 1.104,-2.249 1.844,-2.906 0.76,-0.657 1.662,-1 2.75,-1 m 54.53,0 c 2.135,0 3.67,1.299 4.594,3.906 0.944,2.587 1.438,6.473 1.438,11.625 0,5.173 -0.493,9.06 -1.438,11.625 -0.924,2.567 -2.459,3.844 -4.594,3.844 -2.176,0 -3.68,-1.288 -4.563,-3.875 -0.883,-2.587 -1.344,-6.462 -1.344,-11.594 0,-2.567 0.106,-4.82 0.313,-6.75 0.205,-1.95 0.56,-3.581 1.031,-4.875 0.473,-1.293 1.01,-2.249 1.75,-2.906 0.76,-0.657 1.725,-1 2.813,-1 m 109,0 c 2.135,0 3.67,1.299 4.594,3.906 0.944,2.587 1.406,6.473 1.406,11.625 0,5.173 -0.462,9.06 -1.406,11.625 -0.924,2.567 -2.459,3.844 -4.594,3.844 -2.176,0 -3.711,-1.288 -4.594,-3.875 -0.883,-2.587 -1.313,-6.462 -1.313,-11.594 0,-2.567 0.075,-4.82 0.281,-6.75 0.205,-1.95 0.56,-3.581 1.031,-4.875 0.473,-1.293 1.104,-2.249 1.844,-2.906 0.76,-0.657 1.662,-1 2.75,-1 m 54.500004,0 c 2.135,0 3.7,1.299 4.625,3.906 0.944,2.587 1.375,6.473 1.375,11.625 0,5.173 -0.431,9.06 -1.375,11.625 -0.924,2.567 -2.489,3.844 -4.625,3.844 -2.176,0 -3.712,-1.288 -4.594,-3.875 -0.883,-2.587 -1.313,-6.462 -1.313,-11.594 0,-2.567 0.137,-4.82 0.344,-6.75 0.205,-1.95 0.496,-3.581 0.969,-4.875 0.471,-1.293 1.104,-2.249 1.844,-2.906 0.76,-0.657 1.662,-1 2.75,-1 m -327,62.28 c -2.772,0 -5.143,0.558 -7.094,1.625 -1.95,1.047 -3.551,2.54 -4.781,4.531 -1.231,1.991 -2.143,4.438 -2.719,7.313 -0.555,2.874 -0.844,6.147 -0.844,9.781 0,3.634 0.321,6.865 0.938,9.719 0.637,2.854 1.609,5.29 2.875,7.281 1.272,1.991 2.883,3.484 4.813,4.531 1.93,1.047 4.205,1.594 6.813,1.594 2.772,0 5.143,-0.547 7.094,-1.594 1.971,-1.047 3.551,-2.54 4.781,-4.531 1.252,-1.991 2.133,-4.428 2.688,-7.281 0.574,-2.854 0.906,-6.086 0.906,-9.719 0,-3.655 -0.363,-6.907 -1,-9.781 -0.637,-2.874 -1.549,-5.321 -2.844,-7.313 -1.294,-1.991 -2.945,-3.516 -4.875,-4.563 -1.93,-1.047 -4.164,-1.594 -6.75,-1.594 m 163.529996,0 c -2.772,0 -5.143,0.558 -7.094,1.625 -1.95,1.047 -3.551,2.54 -4.781,4.531 -1.231,1.991 -2.143,4.438 -2.719,7.313 -0.555,2.874 -0.844,6.147 -0.844,9.781 0,3.634 0.321,6.865 0.938,9.719 0.637,2.854 1.609,5.29 2.875,7.281 1.272,1.991 2.883,3.484 4.813,4.531 1.93,1.047 4.205,1.594 6.813,1.594 2.772,0 5.081,-0.547 7.03,-1.594 1.971,-1.047 3.611,-2.54 4.844,-4.531 1.252,-1.991 2.133,-4.428 2.688,-7.281 0.575,-2.854 0.844,-6.086 0.844,-9.719 0,-3.655 -0.301,-6.907 -0.938,-9.781 -0.637,-2.874 -1.612,-5.321 -2.906,-7.313 -1.293,-1.991 -2.883,-3.516 -4.813,-4.563 -1.93,-1.047 -4.164,-1.594 -6.75,-1.594 m 163.470004,0 c -2.772,0 -5.081,0.558 -7.03,1.625 -1.95,1.047 -3.551,2.54 -4.781,4.531 -1.231,1.991 -2.143,4.438 -2.719,7.313 -0.553,2.874 -0.844,6.147 -0.844,9.781 0,3.634 0.321,6.865 0.938,9.719 0.637,2.854 1.609,5.29 2.875,7.281 1.272,1.991 2.853,3.484 4.781,4.531 1.93,1.047 4.174,1.594 6.781,1.594 2.772,0 5.143,-0.547 7.094,-1.594 1.258,-0.668 2.38,-1.517 3.344,-2.563 l 0,-37.656 c -1.051,-1.235 -2.248,-2.222 -3.625,-2.969 -1.93,-1.047 -4.225,-1.594 -6.813,-1.594 m -487.12,0.688 -14.438,11.469 0,0.188 4.531,5.594 5.188,-4.125 c 0.307,-0.246 0.608,-0.536 0.938,-0.844 0.328,-0.307 0.661,-0.586 0.969,-0.875 l 0.844,-0.844 c 0.246,-0.246 0.396,-0.408 0.5,-0.531 -0.02,0.678 -0.053,1.429 -0.094,2.25 -0.02,0.821 -0.029,1.647 -0.063,2.469 -0.021,0.801 -0.072,1.553 -0.094,2.313 l 0,1.938 0,26.06 9.5,0 0,-45.03 -7.781,0 0,-0.031 m 54.5,0.031 -14.5,11.5 4.594,5.719 5.156,-4.125 c 0.307,-0.246 0.672,-0.536 1,-0.844 0.328,-0.307 0.628,-0.586 0.938,-0.875 l 0.844,-0.844 c 0.246,-0.246 0.429,-0.408 0.531,-0.531 -0.02,0.678 -0.051,1.429 -0.094,2.25 -0.02,0.821 -0.051,1.647 -0.094,2.469 -0.02,0.801 -0.042,1.553 -0.063,2.313 l 0,1.938 0,26.06 9.5,0 0,-45.03 -7.813,0 m 54.47,0 -14.469,11.531 4.625,5.688 5.188,-4.125 c 0.307,-0.246 0.608,-0.536 0.938,-0.844 0.328,-0.307 0.628,-0.586 0.938,-0.875 l 0.813,-0.844 c 0.246,-0.246 0.46,-0.408 0.563,-0.531 -0.02,0.678 -0.051,1.429 -0.094,2.25 -0.02,0.821 -0.082,1.647 -0.125,2.469 -0.02,0.801 -0.011,1.553 -0.031,2.313 l 0,1.938 0,26.06 9.5,0 0,-45.03 -7.844,0 m 109.03,0 -14.531,11.531 4.656,5.688 5.156,-4.125 c 0.307,-0.246 0.61,-0.536 0.938,-0.844 0.328,-0.307 0.693,-0.586 1,-0.875 l 0.813,-0.844 c 0.246,-0.246 0.396,-0.408 0.5,-0.531 -0.02,0.678 -0.051,1.429 -0.094,2.25 -0.02,0.821 0.002,1.647 -0.031,2.469 -0.02,0.801 -0.105,1.553 -0.125,2.313 l 0,1.938 0,26.06 9.531,0 0,-45.03 -7.781,0 -0.031,0 m 54.499996,0 -14.469,11.531 4.563,5.688 5.188,-4.125 c 0.307,-0.246 0.641,-0.536 0.969,-0.844 0.328,-0.307 0.628,-0.586 0.938,-0.875 l 0.844,-0.844 c 0.246,-0.246 0.427,-0.408 0.531,-0.531 -0.021,0.678 -0.051,1.429 -0.094,2.25 -0.02,0.821 -0.054,1.647 -0.094,2.469 -0.021,0.801 -0.011,1.553 -0.031,2.313 l 0,1.938 0,26.06 9.5,0 0,-45.03 -7.844,0 m 109,0 -14.5,11.531 4.625,5.719 5.188,-4.156 c 0.307,-0.246 0.608,-0.536 0.938,-0.844 0.328,-0.307 0.661,-0.586 0.969,-0.875 l 0.813,-0.844 c 0.246,-0.246 0.427,-0.408 0.531,-0.531 -0.021,0.678 -0.051,1.429 -0.094,2.25 -0.02,0.821 -0.054,1.647 -0.094,2.469 -0.021,0.801 -0.042,1.553 -0.063,2.313 l 0,1.938 0,26.06 9.5,0 0,-45.03 -7.813,0 m 54.53,0 -14.531,11.531 4.625,5.719 5.188,-4.156 c 0.307,-0.246 0.608,-0.536 0.938,-0.844 0.328,-0.307 0.661,-0.586 0.969,-0.875 l 0.844,-0.844 c 0.246,-0.246 0.398,-0.408 0.5,-0.531 -0.02,0.678 -0.054,1.429 -0.094,2.25 -0.021,0.821 -0.029,1.647 -0.063,2.469 -0.021,0.801 -0.073,1.553 -0.094,2.313 l 0,1.938 0,26.06 9.5,0 0,-45.03 -7.781,0 m -275.909996,7.03 c 2.135,0 3.67,1.299 4.594,3.906 0.944,2.587 1.438,6.473 1.438,11.625 0,5.173 -0.493,8.996 -1.438,11.563 -0.924,2.567 -2.459,3.844 -4.594,3.844 -2.176,0 -3.68,-1.257 -4.563,-3.844 -0.883,-2.587 -1.344,-6.431 -1.344,-11.563 0,-2.567 0.106,-4.82 0.313,-6.75 0.205,-1.95 0.56,-3.581 1.031,-4.875 0.471,-1.293 1.073,-2.249 1.813,-2.906 0.76,-0.657 1.662,-1 2.75,-1 m 163.529996,0 c 2.135,0 3.67,1.299 4.594,3.906 0.944,2.587 1.438,6.473 1.438,11.625 0,5.173 -0.493,8.996 -1.438,11.563 -0.924,2.567 -2.459,3.844 -4.594,3.844 -2.176,0 -3.68,-1.257 -4.563,-3.844 -0.883,-2.587 -1.344,-6.431 -1.344,-11.563 0,-2.567 0.106,-4.82 0.313,-6.75 0.205,-1.95 0.56,-3.581 1.031,-4.875 0.473,-1.293 1.01,-2.249 1.75,-2.906 0.76,-0.657 1.725,-1 2.813,-1 m 163.500004,0 c 2.135,0 3.7,1.299 4.625,3.906 0.944,2.587 1.375,6.473 1.375,11.625 0,5.173 -0.431,8.996 -1.375,11.563 -0.924,2.567 -2.489,3.844 -4.625,3.844 -2.176,0 -3.712,-1.257 -4.594,-3.844 -0.883,-2.587 -1.344,-6.431 -1.344,-11.563 0,-2.567 0.137,-4.82 0.344,-6.75 0.205,-1.95 0.527,-3.581 1,-4.875 0.471,-1.293 1.073,-2.249 1.813,-2.906 0.76,-0.657 1.693,-1 2.781,-1 m -490.53,62.28 c -2.772,0 -5.143,0.526 -7.094,1.594 -1.572,0.844 -2.875,2.01 -3.969,3.469 l 0,2.844 c 0,0.433 0.011,0.853 0.031,1.281 1.849,2.05 3.727,4.087 5.625,6.094 0.211,-1.392 0.445,-2.65 0.813,-3.656 0.471,-1.293 1.104,-2.28 1.844,-2.938 0.76,-0.657 1.662,-1 2.75,-1 2.135,0 3.67,1.33 4.594,3.938 0.944,2.587 1.406,6.441 1.406,11.594 0,1.275 -0.034,2.412 -0.094,3.531 2.584,2.489 5.214,4.965 7.875,7.375 0.167,0.009 0.332,-0.006 0.5,0 0.105,-0.378 0.233,-0.747 0.313,-1.156 0.575,-2.854 0.873,-6.116 0.875,-9.75 0,-3.655 -0.301,-6.938 -0.938,-9.813 -0.637,-2.874 -1.612,-5.29 -2.906,-7.281 -1.293,-1.991 -2.883,-3.484 -4.813,-4.531 -1.93,-1.047 -4.225,-1.594 -6.813,-1.594 m 218,0 c -2.772,0 -5.143,0.526 -7.094,1.594 -1.95,1.047 -3.487,2.571 -4.719,4.563 -1.231,1.991 -2.143,4.438 -2.719,7.313 -0.555,2.874 -0.844,6.116 -0.844,9.75 0,3.634 0.29,6.896 0.906,9.75 0.092,0.411 0.206,0.795 0.313,1.188 l 9.375,0 c -0.755,-2.569 -1.156,-6.194 -1.156,-10.938 0,-2.567 0.106,-4.82 0.313,-6.75 0.205,-1.95 0.56,-3.549 1.031,-4.844 0.471,-1.293 1.075,-2.28 1.813,-2.938 0.76,-0.657 1.662,-1 2.75,-1 2.135,0 3.67,1.33 4.594,3.938 0.944,2.587 1.438,6.441 1.438,11.594 0,4.744 -0.423,8.383 -1.219,10.938 l 9.531,0 c 0.095,-0.393 0.201,-0.776 0.281,-1.188 0.575,-2.854 0.873,-6.116 0.875,-9.75 0,-3.655 -0.301,-6.938 -0.938,-9.813 -0.637,-2.874 -1.612,-5.29 -2.906,-7.281 -1.293,-1.991 -2.883,-3.484 -4.813,-4.531 -1.93,-1.047 -4.225,-1.594 -6.813,-1.594 m 54.499996,0 c -2.772,0 -5.081,0.526 -7.03,1.594 -1.95,1.047 -3.551,2.571 -4.781,4.563 -1.231,1.991 -2.143,4.438 -2.719,7.313 -0.555,2.874 -0.844,6.116 -0.844,9.75 0,3.634 0.321,6.896 0.938,9.75 0.092,0.411 0.207,0.795 0.313,1.188 l 9.344,0 c -0.755,-2.569 -1.156,-6.194 -1.156,-10.938 0,-2.567 0.137,-4.82 0.344,-6.75 0.205,-1.95 0.527,-3.549 1,-4.844 0.473,-1.293 1.073,-2.28 1.813,-2.938 0.76,-0.657 1.662,-1 2.75,-1 2.135,0 3.701,1.33 4.625,3.938 0.944,2.587 1.406,6.441 1.406,11.594 0,4.744 -0.398,8.383 -1.188,10.938 l 9.531,0 c 0.095,-0.393 0.201,-0.776 0.281,-1.188 0.575,-2.854 0.844,-6.116 0.844,-9.75 0,-3.655 -0.301,-6.938 -0.938,-9.813 -0.637,-2.874 -1.613,-5.29 -2.906,-7.281 -1.293,-1.991 -2.881,-3.484 -4.813,-4.531 -1.93,-1.047 -4.225,-1.594 -6.813,-1.594 m 218.000004,0 c -2.772,0 -5.081,0.526 -7.03,1.594 -1.95,1.047 -3.551,2.571 -4.781,4.563 -1.231,1.991 -2.143,4.438 -2.719,7.313 -0.553,2.874 -0.813,6.116 -0.813,9.75 0,3.634 0.321,6.896 0.938,9.75 0.089,0.397 0.159,0.755 0.25,1.125 0.166,-0.01 0.334,-0.018 0.5,-0.031 2.643,-2.395 5.245,-4.839 7.813,-7.313 -0.054,-1.11 -0.063,-2.265 -0.063,-3.531 0,-2.567 0.137,-4.82 0.344,-6.75 0.205,-1.95 0.527,-3.549 1,-4.844 0.471,-1.293 1.073,-2.28 1.813,-2.938 0.76,-0.657 1.693,-1 2.781,-1 2.135,0 3.7,1.33 4.625,3.938 0.372,1.017 0.626,2.278 0.844,3.688 1.635,-1.727 3.238,-3.461 4.844,-5.219 0.059,-0.724 0.094,-1.447 0.094,-2.188 l 0,-3.406 c -1.045,-1.205 -2.26,-2.166 -3.625,-2.906 -1.93,-1.047 -4.225,-1.594 -6.813,-1.594 m -432.62,0.656 -14.469,11.563 4.563,5.719 5.188,-4.125 c 0.307,-0.246 0.641,-0.536 0.969,-0.844 0.328,-0.307 0.628,-0.618 0.938,-0.906 l 0.844,-0.813 c 0.246,-0.246 0.429,-0.44 0.531,-0.563 -0.02,0.678 -0.051,1.397 -0.094,2.219 -0.02,0.821 -0.051,1.647 -0.094,2.469 -0.02,0.801 -0.042,1.615 -0.063,2.375 l 0,1.875 0,14.531 9.531,0 0,-33.5 -7.844,0 m 54.5,0 -14.5,11.563 4.625,5.719 5.188,-4.125 c 0.307,-0.246 0.608,-0.536 0.938,-0.844 0.328,-0.307 0.628,-0.618 0.938,-0.906 l 0.844,-0.813 c 0.246,-0.246 0.429,-0.44 0.531,-0.563 -0.02,0.678 -0.051,1.397 -0.094,2.219 -0.02,0.821 -0.051,1.647 -0.094,2.469 -0.02,0.801 -0.042,1.615 -0.063,2.375 l 0,1.875 0,14.531 9.5,0 0,-33.5 -7.813,0 m 54.47,0 -14.469,11.563 4.625,5.719 5.188,-4.125 c 0.307,-0.246 0.608,-0.536 0.938,-0.844 0.328,-0.307 0.66,-0.618 0.969,-0.906 l 0.781,-0.813 c 0.246,-0.246 0.46,-0.44 0.563,-0.563 -0.02,0.678 -0.082,1.397 -0.125,2.219 -0.02,0.821 -0.051,1.647 -0.094,2.469 -0.02,0.801 -0.011,1.615 -0.031,2.375 l 0,1.875 0,14.531 9.5,0 0,-33.5 -7.844,0 m 163.529996,0 -14.469,11.563 4.625,5.719 5.156,-4.125 c 0.307,-0.246 0.608,-0.536 0.938,-0.844 0.328,-0.307 0.63,-0.618 0.938,-0.906 l 0.844,-0.813 c 0.246,-0.246 0.429,-0.44 0.531,-0.563 -0.021,0.678 -0.054,1.397 -0.094,2.219 -0.021,0.821 -0.051,1.647 -0.094,2.469 -0.021,0.801 -0.042,1.615 -0.063,2.375 l 0,1.875 0,14.531 9.531,0 0,-33.5 -7.844,0 m 54.5,0 -14.5,11.563 4.625,5.719 5.188,-4.125 c 0.307,-0.246 0.608,-0.536 0.938,-0.844 0.328,-0.307 0.661,-0.618 0.969,-0.906 l 0.813,-0.813 c 0.246,-0.246 0.427,-0.44 0.531,-0.563 -0.021,0.678 -0.051,1.397 -0.094,2.219 -0.02,0.821 -0.054,1.647 -0.094,2.469 -0.021,0.801 -0.042,1.615 -0.063,2.375 l 0,1.875 0,14.531 9.5,0 0,-33.5 -7.813,0 m 54.53,0 -14.531,11.563 4.625,5.719 5.188,-4.125 c 0.307,-0.246 0.608,-0.536 0.938,-0.844 0.328,-0.307 0.661,-0.618 0.969,-0.906 l 0.844,-0.813 c 0.246,-0.246 0.398,-0.44 0.5,-0.563 -0.021,0.678 -0.086,1.397 -0.125,2.219 -0.02,0.821 0.002,1.647 -0.031,2.469 -0.021,0.801 -0.073,1.615 -0.094,2.375 l 0,1.875 0,14.531 9.5,0 0,-33.5 -7.781,0" />
  </g>
</svg>
