<?xml version="1.0" encoding="UTF-8" standalone="no"?>
<!-- Created with Inkscape (http://www.inkscape.org/) -->

<svg
   xmlns:dc="http://purl.org/dc/elements/1.1/"
   xmlns:cc="http://creativecommons.org/ns#"
   xmlns:rdf="http://www.w3.org/1999/02/22-rdf-syntax-ns#"
   xmlns:svg="http://www.w3.org/2000/svg"
   xmlns="http://www.w3.org/2000/svg"
   xmlns:sodipodi="http://sodipodi.sourceforge.net/DTD/sodipodi-0.dtd"
   xmlns:inkscape="http://www.inkscape.org/namespaces/inkscape"
   version="1.1"
   width="100%"
   height="100%"
   viewBox="0 0 512 512"
   id="svg2"
   inkscape:version="0.91 r13725"
   sodipodi:docname="media-flash.svg">
  <sodipodi:namedview
     pagecolor="#ffffff"
     bordercolor="#666666"
     borderopacity="1"
     objecttolerance="10"
     gridtolerance="10"
     guidetolerance="10"
     inkscape:pageopacity="0"
     inkscape:pageshadow="2"
     inkscape:window-width="640"
     inkscape:window-height="480"
     id="namedview1475"
     showgrid="false"
     inkscape:zoom="0.546875"
     inkscape:cx="34.742857"
     inkscape:cy="240.45714"
     inkscape:current-layer="svg2" />
  <metadata
     id="metadata2948">
    <rdf:RDF>
      <cc:Work
         rdf:about="">
        <dc:format>image/svg+xml</dc:format>
        <dc:type
           rdf:resource="http://purl.org/dc/dcmitype/StillImage" />
      </cc:Work>
    </rdf:RDF>
  </metadata>
  <defs
     id="defs2946" />
  <g
     id="g4824"
     transform="translate(341.94285,-373.02856)">
    <rect
       style="fill:#0078ad"
       id="rect2578"
       y="373.02856"
       x="-341.95685"
       rx="26.26"
       height="512"
       width="512" />
    <path
       style="fill-opacity:0.23500001"
       id="path2736"
       inkscape:connector-curvature="0"
       d="m -32.796857,435.05857 c -18.12,0.115 -36.33,0.886 -54.34,0.281 l -87.120003,0 c -26.636,1.655 -20.649,31.958 -21.19,50.5 1.688,14.664 1.596,27.563 -16.781,22.16 -11.03,1.883 -32.554,-6.748 -27.06,11.656 l -56.12,2.625 c 1.738,10.475 -4.421,28.423 5.03,31.594 4.04,6.523 11.07,10.209 15.13,16.719 6.601,4.158 10.258,11.11 16.875,15.25 4.04,6.53 11.07,10.234 15.13,16.75 12.933,8.733 -6.39,12.931 -17,10.969 -10.59,3.02 -31.465,-3.762 -35.16,5.844 0.649,11.197 -3.167,26.607 6.688,29.09 4.111,6.468 11.1,10.225 15.188,16.719 6.576,4.171 10.262,11.09 16.813,15.281 4.105,6.476 11.08,10.218 15.16,16.719 10.634,12.532 -9.783,13.942 -20.813,12.906 -10,3.583 -33.09,-5.313 -33.03,7.875 -0.668,12.265 -0.971,24.15 6.688,28.531 47.42,47.42 93.53,93.09 139.34,138.5 l 293.19,0 c 14.547,0 26.25,-11.703 26.25,-26.25 l 0,-290 c -0.717,-0.864 -1.393,-1.783 -2,-2.75 -6.576,-4.171 -10.293,-11.06 -16.844,-15.25 -4.105,-6.476 -11.07,-10.222 -15.16,-16.719 -7.614,-3.911 -8.6,-14.222 -22.25,-12.25 -15.710997,3.577 -24.475997,-8.605 -34.189997,-18.688 -22.76,-21.716 -43.561,-45.856 -67.69,-65.875 -12.19900014,-1.587 -24.542,-2.111 -36.938,-2.188 l -0.031,0 c -2.585,-0.016 -5.161,-0.016 -7.75,0" />
    <path
       style="fill:#ffffff"
       id="path2942"
       inkscape:connector-curvature="0"
       d="m -174.70686,435.04857 c -11.67,0 -21.14,9.511 -21.14,21.19 l 0,51.52 -43.893,0 0,11.674 -56.07,2.62 0,28.13 56.07,2.62 0,15.167 43.893,0 0,32.725 -43.893,0 0,11.674 -56.07,2.62 0,28.13 56.07,2.62 0,15.167 43.893,0 0,36.22 -43.893,0 0,11.72 -56.07,2.574 0,28.17 56.07,2.574 0,15.213 43.893,0 0,44.491 c 0,11.685 9.472,21.14 21.14,21.14 l 177.4600029,0 c 11.6630001,0 21.1400001,-9.458 21.1400001,-21.14 l 0,-44.491 43.893,0 0,-15.213 56.119997,-2.574 0,-28.17 -56.119997,-2.574 0,-11.72 -43.893,0 0,-36.22 43.893,0 0,-15.167 56.119997,-2.62 0,-28.13 -56.119997,-2.62 0,-11.674 -43.893,0 0,-32.725 43.893,0 0,-15.167 56.119997,-2.62 0,-28.13 -56.119997,-2.62 0,-11.674 -43.893,0 0,-51.52 c 0,-11.67 -9.479,-21.19 -21.1400001,-21.19 l -177.4600029,0 m 17.741,27.669 c 7.581,0 13.743,6.155 13.743,13.743 0,7.581 -6.169,13.743 -13.743,13.743 -7.574,0 -13.743,-6.162 -13.743,-13.743 0,-7.588 6.162,-13.743 13.743,-13.743" />
  </g>
</svg>
