<?xml version="1.0" encoding="UTF-8" standalone="no"?>
<!-- Created with Inkscape (http://www.inkscape.org/) -->

<svg
   xmlns:dc="http://purl.org/dc/elements/1.1/"
   xmlns:cc="http://creativecommons.org/ns#"
   xmlns:rdf="http://www.w3.org/1999/02/22-rdf-syntax-ns#"
   xmlns:svg="http://www.w3.org/2000/svg"
   xmlns="http://www.w3.org/2000/svg"
   xmlns:sodipodi="http://sodipodi.sourceforge.net/DTD/sodipodi-0.dtd"
   xmlns:inkscape="http://www.inkscape.org/namespaces/inkscape"
   version="1.1"
   width="100%"
   height="100%"
   viewBox="0 0 512 512"
   id="svg2"
   inkscape:version="0.91 r13725"
   sodipodi:docname="media-tape.svg">
  <sodipodi:namedview
     pagecolor="#ffffff"
     bordercolor="#666666"
     borderopacity="1"
     objecttolerance="10"
     gridtolerance="10"
     guidetolerance="10"
     inkscape:pageopacity="0"
     inkscape:pageshadow="2"
     inkscape:window-width="640"
     inkscape:window-height="480"
     id="namedview1398"
     showgrid="false"
     inkscape:zoom="0.546875"
     inkscape:cx="34.742857"
     inkscape:cy="240.45714"
     inkscape:current-layer="svg2" />
  <metadata
     id="metadata2798">
    <rdf:RDF>
      <cc:Work
         rdf:about="">
        <dc:format>image/svg+xml</dc:format>
        <dc:type
           rdf:resource="http://purl.org/dc/dcmitype/StillImage" />
      </cc:Work>
    </rdf:RDF>
  </metadata>
  <defs
     id="defs4" />
  <g
     id="g4753"
     transform="translate(330.97142,-292.57143)">
    <rect
       style="fill:#b93d48"
       id="rect2786"
       y="292.56793"
       x="-330.97491"
       rx="26.853001"
       height="512"
       width="512" />
    <path
       style="fill-opacity:0.23500001"
       id="path2788"
       inkscape:connector-curvature="0"
       d="m -2.8149286,408.84793 c -3.736,-0.038 -7.7990004,0.147 -12.1560004,0.438 l -145.060001,0 c -17.968,8.952 1.621,27.03 9.688,42.5 8.273,8.273 9.05,8.887 29.06,30.969 -0.508,1.421 -3.548,1.804 -10.75,0.5 -2.829,0.546 -5.336,0.317 -7.625,-0.438 -22.4,-22.4 -42.07,-39.664 -63.03,-60.62 -4.108,-3.639 -8.372,-7.07 -12.875,-10.219 -9.485,-4.293 -20.222,-2.171 -30.28,-2.688 -26.908,-0.661 -41.911,27.904 -38.16,51.875 0.545,65.21 -1.074,130.56 0.875,195.69 6.838,24.47 30.994,37.905 46.656,56.56 30.404,30.376 60.796,60.768 91.19,91.16 l 299.47,0 c 14.876,0 26.844,-11.967 26.844,-26.844 l 0,-297 c -19.933,-19.92 -39.869,-39.839 -59.813,-59.75 -9.388,-8.142 -21.765999,-11.821 -34.279999,-12.12 -9.729,-0.237 -19.558,1.561 -28.12,4.844 -8.255,9.757 -11.12,22.547 -17.313,23.875 -18.608,-17.388 0.079,-0.521 -28.688,-26.06 -4.1089996,-1.883 -9.3979996,-2.593 -15.6249996,-2.656" />
    <g
       style="fill:#ffffff"
       id="g2790"
       transform="matrix(1.38002,0,0,1.38002,-428.23493,195.32793)">
      <path
         id="path2792"
         inkscape:connector-curvature="0"
         d="m 376.29,154.74 -13.628,0 c -6.576,0 -14.495,4.956 -17.683,10.712 l -18.856,32.913 c -3.803,6.862 -11.03,9.983 -18.875,9.983 l -106.39,0 c -7.843,0 -15.07,-2.973 -18.87,-9.835 l -18.879,-33.737 c -3.193,-5.751 -11.11,-10.06 -17.688,-10.06 l -13.652,0 c -15.887,0 -27.666,13.461 -27.666,29.339 l 0,143.81 c 0,15.887 11.779,29.348 27.666,29.348 l 244.5,0 c 15.882,0 31.593,-13.461 31.593,-29.348 l 0,-143.81 c 0,-15.877 -15.711,-29.339 -31.593,-29.339 m -193.88,135.32 c -11.898,0 -21.576,-9.683 -21.576,-21.581 0,-11.894 9.678,-21.576 21.576,-21.576 11.898,0 21.572,9.678 21.572,21.576 0,11.898 -9.678,21.581 -21.572,21.581 m 105.17,-12.08 c 0,5.79 -4.689,10.478 -10.478,10.478 l -47.5,0 c -5.785,0 -10.478,-4.689 -10.478,-10.478 l 0,-19.99 c 0,-5.79 4.694,-10.483 10.478,-10.483 l 47.5,0 c 5.79,0 10.478,4.694 10.478,10.483 l 0,19.99 m 36.887,12.08 c -11.898,0 -21.576,-9.683 -21.576,-21.581 0,-11.894 9.673,-21.576 21.576,-21.576 11.889,0 21.567,9.678 21.567,21.576 0,11.898 -9.678,21.581 -21.567,21.581" />
      <path
         id="path2794"
         inkscape:connector-curvature="0"
         d="m 195.08,179.35 c 3.193,5.761 11.11,11.131 17.688,11.131 l 82.56,0 c 6.581,0 14.495,-5.232 17.679,-10.988 l 7.3,-13.762 c 3.188,-5.751 0.438,-10.988 -6.142,-10.988 l -120.27,0 c -6.581,0 -9.33,4.951 -6.142,10.712 l 7.31,13.895" />
    </g>
  </g>
</svg>
