<?xml version="1.0" encoding="UTF-8" standalone="no"?>
<!-- Created with Inkscape (http://www.inkscape.org/) -->

<svg
   xmlns:dc="http://purl.org/dc/elements/1.1/"
   xmlns:cc="http://creativecommons.org/ns#"
   xmlns:rdf="http://www.w3.org/1999/02/22-rdf-syntax-ns#"
   xmlns:svg="http://www.w3.org/2000/svg"
   xmlns="http://www.w3.org/2000/svg"
   xmlns:sodipodi="http://sodipodi.sourceforge.net/DTD/sodipodi-0.dtd"
   xmlns:inkscape="http://www.inkscape.org/namespaces/inkscape"
   version="1.1"
   width="100%"
   height="100%"
   viewBox="0 0 512 512"
   id="svg2"
   inkscape:version="0.91 r13725"
   sodipodi:docname="media-optical-audio.svg">
  <sodipodi:namedview
     pagecolor="#ffffff"
     bordercolor="#666666"
     borderopacity="1"
     objecttolerance="10"
     gridtolerance="10"
     guidetolerance="10"
     inkscape:pageopacity="0"
     inkscape:pageshadow="2"
     inkscape:window-width="640"
     inkscape:window-height="480"
     id="namedview1518"
     showgrid="false"
     inkscape:zoom="0.546875"
     inkscape:cx="34.742857"
     inkscape:cy="240.45714"
     inkscape:current-layer="svg2" />
  <metadata
     id="metadata3034">
    <rdf:RDF>
      <cc:Work
         rdf:about="">
        <dc:format>image/svg+xml</dc:format>
        <dc:type
           rdf:resource="http://purl.org/dc/dcmitype/StillImage" />
      </cc:Work>
    </rdf:RDF>
  </metadata>
  <defs
     id="defs3032" />
  <g
     id="g4873"
     transform="translate(407.77142,-345.6)">
    <rect
       style="fill:#68af4c"
       id="rect2578"
       y="345.5975"
       x="-407.77441"
       rx="26.26"
       height="512"
       width="512" />
    <path
       style="fill-opacity:0.23500001;fill-rule:evenodd"
       id="path3022"
       inkscape:connector-curvature="0"
       d="m -171.71443,391.4725 c -92.77,0.37 -177.62,76.48 -187.5,168.94 -9.448,65.62 19.368,132.38 68.906,175.25 40.724,40.565 81.27,81.25 121.88,121.94 l 246.410001,0 c 14.547,0 26.249999,-11.703 26.249999,-26.25 l 0,-248.47 c -48.610999,-48.824 -97.2099986,-97.66 -146.619999,-145.62 -34.495,-29.39 -79.550001,-45.911 -124.870001,-45.719 -1.476,-0.032 -2.933,-0.038 -4.406,-0.031 l -0.031,-0.031" />
    <g
       style="fill:#ffffff"
       id="g3024"
       transform="translate(-406.77543,357.6275)">
      <path
         id="path3026"
         inkscape:connector-curvature="0"
         d="m 239.29,33.857 c -106.88,0 -193.52,86.64 -193.52,193.52 0,106.88 86.64,193.52 193.52,193.52 1.387,0 2.765,-0.051 4.145,-0.081 -0.183,-1.51 -0.322,-3.03 -0.322,-4.588 0,-15.684 9.578,-28.977 22.374,-37.498 12.796,-8.527 29.29,-13.239 47.28,-13.239 8.822,0 17.199,1.24 24.989,3.42 l 0,-160.96 0,-12.877 12.877,0 18.954,0 0,0.04 c 0.115,0.001 25.375,0.295 50.581,19.11 4.226,3.156 8.45,6.853 12.595,11.11 -1.104,-105.93 -87.28,-191.47 -193.48,-191.47 m 66.68,23.06 c 22.864,8.934 44.31,22.616 62.775,41.09 15.543,15.543 27.749,33.2 36.539,52.04 l -113.07,65.27 c -2.21,-9.609 -7.082,-18.751 -14.568,-26.24 -7.791,-7.791 -17.363,-12.693 -27.404,-14.769 l 55.732,-117.39 m -66.68,125.19 c 25,0 45.28,20.274 45.28,45.28 0,25 -20.274,45.28 -45.28,45.28 -25,0 -45.28,-20.274 -45.28,-45.28 0,-25 20.274,-45.28 45.28,-45.28 m 0,10.02 c -19.47,0 -35.25,15.785 -35.25,35.25 0,19.47 15.785,35.25 35.25,35.25 19.47,0 35.25,-15.785 35.25,-35.25 0,-19.47 -15.785,-35.25 -35.25,-35.25 m 0,10.379 c 13.741,0 24.869,11.128 24.869,24.869 0,13.741 -11.128,24.869 -24.869,24.869 -13.741,0 -24.869,-11.128 -24.869,-24.869 0,-13.741 11.128,-24.869 24.869,-24.869 m -53.4,36.86 c 0.415,1.802 0.93,3.59 1.53,5.352 0.2,0.587 0.384,1.149 0.604,1.731 1.763,4.659 4.194,9.104 7.283,13.239 0.385,0.515 0.762,1.025 1.167,1.53 1.222,1.519 2.534,2.976 3.944,4.386 2.435,2.435 5.02,4.562 7.765,6.438 0.549,0.375 1.091,0.774 1.65,1.127 2.243,1.415 4.575,2.648 6.961,3.702 1.189,0.527 2.365,0.972 3.581,1.409 1.823,0.655 3.723,1.235 5.594,1.691 0.623,0.152 1.225,0.273 1.852,0.403 l -55.732,117.39 c -1.438,-0.563 -2.878,-1.089 -4.306,-1.691 -1.418,-0.595 -2.82,-1.219 -4.225,-1.852 -2.824,-1.272 -5.562,-2.601 -8.33,-4.02 -1.369,-0.702 -2.751,-1.474 -4.105,-2.214 -0.012,-0.004 -0.031,0.004 -0.04,0 -1.364,-0.744 -2.676,-1.472 -4.02,-2.253 -2.704,-1.568 -5.37,-3.191 -8.01,-4.91 -1.315,-0.856 -2.609,-1.722 -3.902,-2.615 -5.202,-3.579 -10.244,-7.449 -15.13,-11.628 -1.213,-1.037 -2.43,-2.105 -3.622,-3.179 -0.006,-0.006 -0.034,0.006 -0.04,0 -1.199,-1.079 -2.364,-2.183 -3.541,-3.3 -1.177,-1.116 -2.347,-2.265 -3.501,-3.42 -5.837,-5.837 -11.171,-11.968 -16.06,-18.35 -0.813,-1.062 -1.588,-2.103 -2.375,-3.179 -7.084,-9.684 -13.12,-19.909 -18.07,-30.503 l 113.07,-65.27 m 196.54,37.786 0,80.44 c 15.517,-17.04 28.02,-36.857 36.699,-58.63 -0.322,-0.35 -0.641,-0.702 -0.966,-1.047 -11.05,-11.737 -22.316,-19.529 -35.734,-20.758" />
      <path
         id="path3028"
         inkscape:connector-curvature="0"
         d="m 369.58,207.95 -18.936,0 0,180.2 c -10.06,-6.05 -23.256,-9.814 -37.871,-9.814 -31.349,0 -56.788,16.936 -56.788,37.871 0,20.935 25.442,37.871 56.788,37.871 31.349,0 56.788,-16.936 56.788,-37.871 l 0,-151.46 c 47.33,-7.691 75.73,47.33 94.66,75.73 -11.829,-132.52 -94.66,-132.52 -94.66,-132.52" />
    </g>
  </g>
</svg>
