<?xml version="1.0" encoding="UTF-8" standalone="no"?>
<!-- Created with Inkscape (http://www.inkscape.org/) -->

<svg
   xmlns:dc="http://purl.org/dc/elements/1.1/"
   xmlns:cc="http://creativecommons.org/ns#"
   xmlns:rdf="http://www.w3.org/1999/02/22-rdf-syntax-ns#"
   xmlns:svg="http://www.w3.org/2000/svg"
   xmlns="http://www.w3.org/2000/svg"
   xmlns:sodipodi="http://sodipodi.sourceforge.net/DTD/sodipodi-0.dtd"
   xmlns:inkscape="http://www.inkscape.org/namespaces/inkscape"
   version="1.1"
   width="100%"
   height="100%"
   viewBox="0 0 512 512"
   id="svg2"
   inkscape:version="0.91 r13725"
   sodipodi:docname="media-optical-dvd-video.svg">
  <sodipodi:namedview
     pagecolor="#ffffff"
     bordercolor="#666666"
     borderopacity="1"
     objecttolerance="10"
     gridtolerance="10"
     guidetolerance="10"
     inkscape:pageopacity="0"
     inkscape:pageshadow="2"
     inkscape:window-width="640"
     inkscape:window-height="480"
     id="namedview2436"
     showgrid="false"
     inkscape:zoom="0.546875"
     inkscape:cx="34.742857"
     inkscape:cy="240.45714"
     inkscape:current-layer="svg2" />
  <metadata
     id="metadata4898">
    <rdf:RDF>
      <cc:Work
         rdf:about="">
        <dc:format>image/svg+xml</dc:format>
        <dc:type
           rdf:resource="http://purl.org/dc/dcmitype/StillImage" />
      </cc:Work>
    </rdf:RDF>
  </metadata>
  <defs
     id="defs4" />
  <g
     id="g5803"
     transform="translate(307.19999,-405.94287)">
    <rect
       style="fill:#924565"
       id="rect3408"
       y="405.94287"
       x="-307.20499"
       rx="26.26"
       height="512"
       width="512" />
    <path
       style="fill-opacity:0.23500001;fill-rule:evenodd"
       id="path3926"
       inkscape:connector-curvature="0"
       d="m -55.765,452.07286 c -100.61,0.401 -192.66,82.945 -203.37,183.22 -10.247,71.17 20.993,143.57 74.72,190.06 30.933,30.812 61.784,61.695 92.63,92.59 l 270.34,0 c 14.547,0 26.25,-11.703 26.25,-26.25 l 0,-270.87 c -39.868,-39.972 -79.85,-79.83 -120.34,-119.12 -37.411,-31.875 -86.28,-49.771 -135.44,-49.563 -1.6,-0.035 -3.184,-0.069 -4.781,-0.063" />
    <g
       style="fill:#ffffff"
       id="g4852"
       transform="matrix(1.39195,0,0,1.39195,-408.515,303.62286)">
      <path
         id="path4854"
         inkscape:connector-curvature="0"
         d="m 256,105.72 c -82.998,0 -150.28,67.28 -150.28,150.28 0,75.55 55.763,138.08 128.38,148.69 l -0.094,-2.469 -2.719,-71.75 -27.469,57.844 c -1.117,-0.437 -2.235,-0.846 -3.344,-1.313 -1.101,-0.462 -2.19,-0.947 -3.281,-1.438 -2.193,-0.988 -4.319,-2.02 -6.469,-3.125 -1.063,-0.545 -2.136,-1.145 -3.188,-1.719 -0.009,-0.003 -0.024,0.003 -0.031,0 -1.059,-0.578 -2.078,-1.143 -3.125,-1.75 -2.1,-1.218 -4.17,-2.478 -6.219,-3.813 -1.021,-0.665 -2.026,-1.337 -3.03,-2.031 -4.04,-2.779 -7.955,-5.785 -11.75,-9.03 -0.942,-0.805 -1.887,-1.635 -2.813,-2.469 -0.005,-0.005 -0.026,0.005 -0.031,0 -0.931,-0.838 -1.836,-1.695 -2.75,-2.563 -0.914,-0.867 -1.823,-1.759 -2.719,-2.656 -4.533,-4.533 -8.675,-9.294 -12.469,-14.25 -0.631,-0.825 -1.233,-1.633 -1.844,-2.469 -5.501,-7.52 -10.189,-15.461 -14.03,-23.688 l 87.81,-50.688 c 0.322,1.399 0.722,2.788 1.188,4.156 0.155,0.456 0.298,0.892 0.469,1.344 1.369,3.618 3.257,7.07 5.656,10.281 0.299,0.4 0.592,0.796 0.906,1.188 0.949,1.18 1.968,2.311 3.063,3.406 0.876,0.876 1.789,1.686 2.719,2.469 l -0.531,-10.938 c -4.475,-5.898 -7.156,-13.244 -7.156,-21.22 0,-19.417 15.744,-35.16 35.16,-35.16 14.681,0 27.24,9 32.5,21.781 2.314,-0.427 4.61,-0.846 6.969,-1.281 -2.053,-5.496 -5.27,-10.677 -9.688,-15.09 -6.05,-6.05 -13.484,-9.857 -21.281,-11.469 l 43.28,-91.16 c 17.756,6.938 34.407,17.563 48.75,31.906 12.07,12.07 21.549,25.785 28.375,40.41 l -73.62,42.5 c 31.89,-5.866 65.05,-11.953 86.59,-16.06 l 4.438,-0.844 c -15.579,-66.38 -75.17,-115.81 -146.31,-115.81" />
      <path
         id="path4856"
         inkscape:connector-curvature="0"
         d="m 256,228.63 c -14.427,0 -26.23,11.158 -27.28,25.313 2.407,-0.487 5.111,-1.035 8.313,-1.656 1.73,-8.896 9.567,-15.594 18.969,-15.594 6.855,0 12.883,3.555 16.313,8.938 2.784,-0.517 5.443,-0.994 8.344,-1.531 -4.428,-9.154 -13.806,-15.469 -24.656,-15.469" />
    </g>
    <g
       style="fill:#ffffff;fill-rule:evenodd"
       id="g4888"
       transform="matrix(1.14432,0,0,1.14432,-246.005,-179.46714)">
      <path
         id="path4890"
         inkscape:connector-curvature="0"
         d="m 176.91,779.51 -26.682,24.532 4.046,106.91 203.67,-5.719 -4.945,-130.66 -176.09,4.944 m 13.11,49.2 126.03,-3.539 0.281,7.424 -126.03,3.539 -0.281,-7.424 m 1,26.498 126.03,-3.539 0.281,7.424 -126.03,3.539 -0.281,-7.424" />
      <path
         id="path4892"
         inkscape:connector-curvature="0"
         d="m 146.56,750.19 1.214,25.12 1.148,23.746 26.423,-24.81 0.762,-0.716 -29.547,-23.338" />
      <path
         id="path4894"
         inkscape:connector-curvature="0"
         d="m 145.97,741.14 1.349,4.92 34.16,18.774 -0.59,0.815 171.3,-31.982 -8.092,-29.519 -198.13,36.991 m 42.01,-4.552 21.928,-4.094 14.1,22.755 -21.929,4.094 -14.1,-22.755 m 53.4,-9.97 21.928,-4.094 14.1,22.755 -21.928,4.094 -14.1,-22.755 m 51.34,-9.585 21.928,-4.094 14.1,22.755 -21.929,4.094 -14.1,-22.755" />
    </g>
  </g>
</svg>
