<?xml version="1.0" encoding="UTF-8" standalone="no"?>
<!-- Created with Inkscape (http://www.inkscape.org/) -->

<svg
   xmlns:dc="http://purl.org/dc/elements/1.1/"
   xmlns:cc="http://creativecommons.org/ns#"
   xmlns:rdf="http://www.w3.org/1999/02/22-rdf-syntax-ns#"
   xmlns:svg="http://www.w3.org/2000/svg"
   xmlns="http://www.w3.org/2000/svg"
   xmlns:sodipodi="http://sodipodi.sourceforge.net/DTD/sodipodi-0.dtd"
   xmlns:inkscape="http://www.inkscape.org/namespaces/inkscape"
   version="1.1"
   width="100%"
   height="100%"
   viewBox="0 0 512 512"
   id="svg2"
   inkscape:version="0.91 r13725"
   sodipodi:docname="media-optical.svg">
  <sodipodi:namedview
     pagecolor="#ffffff"
     bordercolor="#666666"
     borderopacity="1"
     objecttolerance="10"
     gridtolerance="10"
     guidetolerance="10"
     inkscape:pageopacity="0"
     inkscape:pageshadow="2"
     inkscape:window-width="640"
     inkscape:window-height="480"
     id="namedview1655"
     showgrid="false"
     inkscape:zoom="0.546875"
     inkscape:cx="34.742857"
     inkscape:cy="240.45714"
     inkscape:current-layer="svg2" />
  <metadata
     id="metadata3308">
    <rdf:RDF>
      <cc:Work
         rdf:about="">
        <dc:format>image/svg+xml</dc:format>
        <dc:type
           rdf:resource="http://purl.org/dc/dcmitype/StillImage" />
      </cc:Work>
    </rdf:RDF>
  </metadata>
  <defs
     id="defs3306" />
  <g
     id="g5004"
     transform="translate(394.97144,-502.85715)">
    <rect
       style="fill:#f37257"
       id="rect2578"
       y="502.85715"
       x="-394.97644"
       rx="26.26"
       height="512"
       width="512" />
    <path
       style="fill-opacity:0.23500001;fill-rule:evenodd"
       id="path3096"
       inkscape:connector-curvature="0"
       d="m -143.53643,548.98714 c -100.61,0.401 -192.66,82.945 -203.37,183.22 -10.247,71.17 20.993,143.57 74.72,190.06 30.933,30.812 61.784,61.695 92.63,92.58996 l 270.340001,0 c 14.546999,0 26.249999,-11.703 26.249999,-26.24996 l 0,-270.87 c -39.867999,-39.972 -79.849999,-79.83 -120.3399986,-119.12 -37.4110004,-31.875 -86.2800004,-49.771 -135.4400014,-49.563 -1.6,-0.035 -3.184,-0.069 -4.781,-0.063" />
    <path
       style="fill:#ffffff;fill-rule:evenodd"
       id="path3302"
       inkscape:connector-curvature="0"
       d="m -138.97643,548.97714 c -115.91,0 -209.88,93.96 -209.88,209.88 0,115.91 93.96,209.88 209.88,209.88 115.910001,0 209.880001,-93.96 209.880001,-209.88 0,-115.91 -93.96,-209.88 -209.880001,-209.88 m 72.330001,24.997 c 24.798,9.689 48.03,24.531 68.0600004,44.562 16.8569996,16.857 30.0799996,36.02 39.6139996,56.44 l -122.63,70.796 c -2.397,-10.421 -7.66,-20.327 -15.778,-28.445 -8.449001,-8.449 -18.831001,-13.79 -29.720001,-16.04 l 60.460001,-127.31 m -72.330001,135.79 c 27.12,0 49.090001,21.979 49.090001,49.09 0,27.12 -21.979001,49.09 -49.090001,49.09 -27.12,0 -49.09,-21.979 -49.09,-49.09 0,-27.12 21.979,-49.09 49.09,-49.09 m 0,10.868 c -21.12,0 -38.23,17.12 -38.23,38.23 0,21.12 17.12,38.23 38.23,38.23 21.12,0 38.23,-17.12 38.23,-38.23 0,-21.12 -17.12,-38.23 -38.23,-38.23 m 0,11.242 c 14.903,0 26.985,12.08 26.985,26.985 0,14.903 -12.08,26.985 -26.985,26.985 -14.903,0 -26.985,-12.08 -26.985,-26.985 0,-14.903 12.08,-26.985 26.985,-26.985 m -57.903,39.989 c 0.45,1.954 1,3.899 1.649,5.81 0.216,0.637 0.436,1.243 0.675,1.874 1.912,5.05 4.521,9.874 7.871,14.354 0.418,0.559 0.835,1.102 1.274,1.649 1.325,1.648 2.743,3.23 4.272,4.76 2.641,2.641 5.458,4.976 8.435,7.01 0.595,0.406 1.193,0.817 1.799,1.2 2.433,1.535 4.945,2.866 7.533,4.01 1.289,0.571 2.579,1.063 3.898,1.536 1.978,0.711 4.01,1.342 6.03,1.836 0.676,0.165 1.344,0.309 2.024,0.45 l -60.46,127.31 c -1.56,-0.61 -3.099,-1.223 -4.648,-1.874 -1.538,-0.645 -3.049,-1.3 -4.572,-1.986 -3.063,-1.38 -6.067,-2.842 -9.07,-4.385 -1.485,-0.761 -2.954,-1.56 -4.423,-2.362 -0.013,-0.004 -0.028,0.004 -0.038,0 -1.479,-0.807 -2.923,-1.626 -4.385,-2.473 -2.933,-1.701 -5.833,-3.459 -8.695,-5.322 -1.426,-0.929 -2.828,-1.88 -4.232,-2.849 -5.642,-3.881 -11.12,-8.06 -16.415,-12.597 -1.316,-1.124 -2.605,-2.283 -3.898,-3.448 -0.007,-0.007 -0.031,0.007 -0.038,0 -1.3,-1.17 -2.584,-2.349 -3.86,-3.56 -1.276,-1.211 -2.533,-2.458 -3.785,-3.711 -6.331,-6.331 -12.13,-12.98 -17.428,-19.901 -0.881,-1.152 -1.733,-2.281 -2.586,-3.448 -7.683,-10.502 -14.2,-21.604 -19.566,-33.09 l 122.63,-70.796" />
  </g>
</svg>
