<?xml version="1.0" encoding="UTF-8" standalone="no"?>
<!-- Created with Inkscape (http://www.inkscape.org/) -->

<svg
   xmlns:dc="http://purl.org/dc/elements/1.1/"
   xmlns:cc="http://creativecommons.org/ns#"
   xmlns:rdf="http://www.w3.org/1999/02/22-rdf-syntax-ns#"
   xmlns:svg="http://www.w3.org/2000/svg"
   xmlns="http://www.w3.org/2000/svg"
   xmlns:sodipodi="http://sodipodi.sourceforge.net/DTD/sodipodi-0.dtd"
   xmlns:inkscape="http://www.inkscape.org/namespaces/inkscape"
   version="1.1"
   width="100%"
   height="100%"
   viewBox="0 0 512 512"
   id="svg2"
   inkscape:version="0.91 r13725"
   sodipodi:docname="modem.svg">
  <sodipodi:namedview
     pagecolor="#ffffff"
     bordercolor="#666666"
     borderopacity="1"
     objecttolerance="10"
     gridtolerance="10"
     guidetolerance="10"
     inkscape:pageopacity="0"
     inkscape:pageshadow="2"
     inkscape:window-width="640"
     inkscape:window-height="480"
     id="namedview1443"
     showgrid="false"
     inkscape:zoom="0.546875"
     inkscape:cx="34.742857"
     inkscape:cy="240.45714"
     inkscape:current-layer="svg2" />
  <metadata
     id="metadata2884">
    <rdf:RDF>
      <cc:Work
         rdf:about="">
        <dc:format>image/svg+xml</dc:format>
        <dc:type
           rdf:resource="http://purl.org/dc/dcmitype/StillImage" />
      </cc:Work>
    </rdf:RDF>
  </metadata>
  <defs
     id="defs2882" />
  <g
     id="g4792"
     transform="translate(360.22858,-345.6)">
    <rect
       style="fill:#89d676"
       id="rect2780"
       y="345.59601"
       x="-360.22858"
       rx="26.853001"
       height="512"
       width="512" />
    <path
       style="fill-opacity:0.23500001"
       id="path2782"
       inkscape:connector-curvature="0"
       d="m -37.388571,389.036 c -13.855,12.701 -21.296,27.1 -2.375,45.22 5.947,13.486 17.23,77.51 0.594,66.19 -24.07,-25.904 -23.83,-25.54 -82.439999,-79.72 -2.204,20.19 -2.494,24.533 -1.563,35.19 18.505,13.905 17.566,87.48 -6.531,69.44 -18.489,-17.841 -34.573,-38.583 -54.906,-54.19 -37.87,-13.764 -47.26,22.868 -28.813,43.906 0,54.29 -6.813,110.36 -6.813,164.66 -28.355,-0.187 -64.19,-4.082 -80,25.594 -10.133,21.74 -5.841,47.09 -5.03,70.34 9.36,28.381 38.06,43.554 57.28,64.969 5.958,5.671 11.948,11.33 17.938,16.969 l 354.97,0 c 14.876,0 26.844,-11.967 26.844,-26.844 l 0,-252.06 c -4.554,-4.075 -8.859,-9.652 -13.531,-13 -6.04,-7.612 -12.586,-12.05 -18.625,-19.656 -5.586,-4 -10.676,-11.199 -16.25,-15.188 -6.060001,-7.667 -12.630001,-12.11 -18.656001,-19.719 -5.545,-3.954 -10.649,-11.209 -16.188,-15.16 -6.075,-7.636 -12.623,-12.09 -18.688,-19.719 -5.58,-3.993 -10.665,-11.186 -16.25,-15.188 -6.06,-7.616 -12.495,-12.01 -18.625,-19.688 -5.5860004,-4 -10.6450004,-11.199 -16.2190004,-15.188 -6.072,-7.636 -12.6149996,-12.08 -18.6879996,-19.719 -5.958,-5.106 -11.632,-10.749 -17.438,-17.438" />
    <path
       style="fill:#ffffff"
       id="path2878"
       inkscape:connector-curvature="0"
       d="m -37.798571,389.036 -21.43,21.476 c 27.385,42.845 27.481,111.53 -0.096,154.28 l 21.537,21.537 c 32.3399996,-55.943 32.1899996,-141.29 0,-197.29 m -84.389999,31.627 -17.862,17.434 c 27.779,27.308 28.01,71.44 0.191,98.79 l 17.815,17.528 c 37.449999,-36.809 37.259999,-96.98 -0.143,-133.75 m -82.64,39.582 c -15.08,0 -27.29,12.209 -27.29,27.29 0,9.191 4.516,17.295 11.479,22.244 l 0,169.95 -34.34,0 c -28.757,0 -51.869,21.84 -51.869,48.973 l 0,36.486 c 0,27.12 23.11,48.973 51.869,48.973 l 301.499999,0 c 28.757,0 51.869,-21.84 51.869,-48.957 l 0,-36.486 c 0,-27.12 -23.11,-48.957 -51.869,-48.957 l -235.529999,0 0,-169.99 c 6.937,-4.952 11.479,-13.02 11.479,-22.2 0,-15.08 -12.209,-27.29 -27.29,-27.29 m 233.539999,258.31 c 15.15,0 27.436,12.285 27.436,27.436 0,15.15 -12.285,27.436 -27.436,27.436 -15.15,0 -27.4360004,-12.285 -27.4360004,-27.436 0,-15.15 12.2850004,-27.436 27.4360004,-27.436" />
  </g>
</svg>
