<?xml version="1.0" encoding="UTF-8" standalone="no"?>
<!-- Created with Inkscape (http://www.inkscape.org/) -->

<svg
   xmlns:dc="http://purl.org/dc/elements/1.1/"
   xmlns:cc="http://creativecommons.org/ns#"
   xmlns:rdf="http://www.w3.org/1999/02/22-rdf-syntax-ns#"
   xmlns:svg="http://www.w3.org/2000/svg"
   xmlns="http://www.w3.org/2000/svg"
   xmlns:sodipodi="http://sodipodi.sourceforge.net/DTD/sodipodi-0.dtd"
   xmlns:inkscape="http://www.inkscape.org/namespaces/inkscape"
   version="1.1"
   width="100%"
   height="100%"
   viewBox="0 0 512 512"
   id="svg2"
   inkscape:version="0.91 r13725"
   sodipodi:docname="network-defaultroute.svg">
  <sodipodi:namedview
     pagecolor="#ffffff"
     bordercolor="#666666"
     borderopacity="1"
     objecttolerance="10"
     gridtolerance="10"
     guidetolerance="10"
     inkscape:pageopacity="0"
     inkscape:pageshadow="2"
     inkscape:window-width="640"
     inkscape:window-height="480"
     id="namedview1647"
     showgrid="false"
     inkscape:zoom="0.546875"
     inkscape:cx="34.742857"
     inkscape:cy="240.45714"
     inkscape:current-layer="svg2" />
  <metadata
     id="metadata3292">
    <rdf:RDF>
      <cc:Work
         rdf:about="">
        <dc:format>image/svg+xml</dc:format>
        <dc:type
           rdf:resource="http://purl.org/dc/dcmitype/StillImage" />
      </cc:Work>
    </rdf:RDF>
  </metadata>
  <defs
     id="defs3290" />
  <g
     id="g4996"
     transform="translate(336.45714,-340.11429)">
    <rect
       style="fill:#0279ad"
       id="rect2780"
       y="340.11429"
       x="-336.45914"
       rx="26.853001"
       height="512"
       width="512" />
    <path
       style="color:#000000;fill-opacity:0.23500001"
       id="path3238"
       inkscape:connector-curvature="0"
       d="m -83.769143,383.30429 c -82.599997,0.538 -160.419997,54.23 -191.559997,131 -34.02,79.4 -11.996,177.84 52.03,235.72 34.04,34.02 68.06,68.06 102.09,102.09 l 269.91,0 c 14.876,0 26.844,-11.967 26.844,-26.844 l 0,-273.62 c -38.877,-39 -77.760003,-77.977 -117.120003,-116.47 -38.01,-33.422 -87.37,-51.9 -138.25,-51.875 l 0,0.031 c -1.313,-0.018 -2.626,-0.04 -3.938,-0.031" />
    <path
       style="color:#000000;fill:#ffffff"
       id="path3286"
       inkscape:connector-curvature="0"
       d="m -79.829143,383.31429 c -33.129997,0 -64.539997,7.723 -92.489997,21.39 l -1.056,-0.396 c -0.13,0.352 -0.268,0.703 -0.396,1.056 -69.58,34.664 -117.51,106.59 -117.51,189.41 0,82.88 48.04,154.77 117.7,189.41 0.188,0.435 0.34,0.886 0.527,1.321 l 1.122,-0.462 c 27.855,13.543 59.11,21.13 92.089997,21.13 32.895,0 64.04,-7.512 91.77,-20.994 l 0.792,0.33 c 0.142,-0.326 0.255,-0.664 0.396,-0.991 69.81,-34.507 117.780003,-106.59 117.780003,-189.74 0,-83.08 -47.894003,-155.2 -117.640003,-189.74 -0.089,-0.241 -0.175,-0.485 -0.264,-0.726 l -0.726,0.264 c -27.812,-13.587 -59.06,-21.257 -92.09,-21.257 m -13.534,27 0,92.09 -79.679997,0 c 4.959,-26.338 11.772,-52.37 20.47,-77.7 18.396,-7.872 38.31,-12.887 59.219997,-14.391 m 26.407,0 c 20.859,1.435 40.752,6.291 59.0900001,14.06 8.74700004,25.432 15.621,51.578 20.5959999,78.03 l -79.68,0 0,-92.09 m 92.61,32.678 c 22.16,15.524 40.752,35.819 54.27,59.42 l -40.27,0 c -3.615,-20 -8.318,-39.878 -13.995,-59.42 m -211.849997,0.396 c -5.623,19.409 -10.277,39.16 -13.864,59.02 l -40.14,0 c 13.493,-23.401 31.992,-43.545 54,-59.02 m -66.48,85.43 48.529,0 c -2.341,17.581 -3.887,35.22 -4.556,52.813 l -55.59,0 c 1.291,-18.495 5.299,-36.23 11.618,-52.813 m 75.26,0 84.039997,0 0,52.813 -88.729997,0 c 0.698,-17.567 2.247,-35.24 4.687,-52.813 m 110.439997,0 83.973,0 c 2.435,17.578 4.06,35.25 4.753,52.813 l -88.73,0 0,-52.813 m 110.71,0 48.655,0 c 6.275,16.589 10.205003,34.32 11.487003,52.813 l -55.590003,0 c -0.673,-17.593 -2.211,-35.23 -4.556,-52.813 m -308.029997,79.22 55.26,0 c 0.196,17.745 1.23,35.395 3.235,52.813 l -46.806,0 c -6.322,-16.57 -10.376,-34.34 -11.686,-52.813 m 81.8,0 89.119997,0 0,52.813 -85.689997,0 c -2.095,-17.371 -3.232,-35.02 -3.434,-52.813 m 115.529997,0 89.06,0 c -0.207,17.794 -1.333,35.442 -3.434,52.813 l -85.62,0 0,-52.813 m 115.66,0 55.200003,0 c -1.299,18.474 -5.269003,36.24 -11.553003,52.813 l -46.938,0 c 2,-17.418 3.11,-35.07 3.301,-52.813 m -288.749997,79.22 38.09,0 c 3.365,19.573 7.953,38.753 13.797,57.43 -21.09,-15.244 -38.811,-34.805 -51.894,-57.43 m 64.96,0 81.719997,0 0,91.96 c -21.129997,-1.521 -41.249997,-6.643 -59.812997,-14.656 -9.79,-24.543 -17.07,-50.49 -21.925,-77.31 m 108.139997,0 81.66,0 c -4.8759999,26.928 -12.1299999,53 -21.9879999,77.64 -18.4980001,7.922 -38.5920001,12.875 -59.6720001,14.326 l 0,-91.96 m 108.59,0 38.16,0 c -13.08,22.781 -30.833,42.473 -52.02,57.764 5.891,-18.78 10.484,-38.08 13.864,-57.764" />
  </g>
</svg>
