<?xml version="1.0" encoding="UTF-8" standalone="no"?>
<!-- Created with Inkscape (http://www.inkscape.org/) -->

<svg
   xmlns:dc="http://purl.org/dc/elements/1.1/"
   xmlns:cc="http://creativecommons.org/ns#"
   xmlns:rdf="http://www.w3.org/1999/02/22-rdf-syntax-ns#"
   xmlns:svg="http://www.w3.org/2000/svg"
   xmlns="http://www.w3.org/2000/svg"
   xmlns:sodipodi="http://sodipodi.sourceforge.net/DTD/sodipodi-0.dtd"
   xmlns:inkscape="http://www.inkscape.org/namespaces/inkscape"
   version="1.1"
   width="100%"
   height="100%"
   viewBox="0 0 512 512"
   id="svg2"
   inkscape:version="0.91 r13725"
   sodipodi:docname="phone.svg">
  <sodipodi:namedview
     pagecolor="#ffffff"
     bordercolor="#666666"
     borderopacity="1"
     objecttolerance="10"
     gridtolerance="10"
     guidetolerance="10"
     inkscape:pageopacity="0"
     inkscape:pageshadow="2"
     inkscape:window-width="640"
     inkscape:window-height="480"
     id="namedview1599"
     showgrid="false"
     inkscape:zoom="0.546875"
     inkscape:cx="34.742857"
     inkscape:cy="240.45714"
     inkscape:current-layer="svg2" />
  <metadata
     id="metadata3196">
    <rdf:RDF>
      <cc:Work
         rdf:about="">
        <dc:format>image/svg+xml</dc:format>
        <dc:type
           rdf:resource="http://purl.org/dc/dcmitype/StillImage" />
      </cc:Work>
    </rdf:RDF>
  </metadata>
  <defs
     id="defs3194" />
  <g
     id="g4948"
     transform="translate(444.34286,-378.51429)">
    <rect
       style="fill:#b93d48"
       id="rect2780"
       y="378.5123"
       x="-444.34586"
       rx="26.853001"
       height="512"
       width="512" />
    <path
       style="fill-opacity:0.23500001"
       id="path3142"
       inkscape:connector-curvature="0"
       d="m -237.81586,428.07529 0,0.031 c -20.256,2.249 -13.287,25.449 -14.531,39.469 0.898,17.274 -41.12,4.513 -35.25,33.813 l 0,313.94 c 1.089,9.556 6.196,16.936 12.563,23.594 17.978,17.02 34.409,33.811 52.13,51.594 l 263.720003,0 c 14.876,0 26.844,-11.967 26.844,-26.844 l 0,-216.37 c -0.326,-0.607 -0.64,-1.204 -0.969,-1.813 -54.993,-55.1 -109.93,-110.23 -165.31,-164.91 -17.848003,-8.702 -38.755003,-3.261 -58.090003,-4.781 -9.514,-1.263 -21.13,2.523 -29.344,-1.938 -15.416,-14.685 -29.432,-31.02 -45.844,-44.531 l -5.906,-1.25" />
    <path
       style="fill:#ffffff"
       id="path3190"
       inkscape:connector-curvature="0"
       d="m -238.36586,428.08529 c -8.06,0 -14.544,6.479 -14.544,14.544 l 0,33.15 -9.644,0 c -14.177,0 -25.613,11.434 -25.613,25.613 l 0,313.94 c 0,14.177 11.434,25.613 25.613,25.613 l 148.45,0 c 14.177003,0 25.583003,-11.434 25.583003,-25.613 l 0,-313.94 c 0,-14.177 -11.404,-25.613 -25.583003,-25.613 l -109.71,0 0,-33.15 c 0,-8.06 -6.479,-14.544 -14.544,-14.544 m -7.04,98.65 114.14,0 c 4.619,0 8.31,3.723 8.31,8.345 l 0,106.98 c 0,4.619 -3.692,8.345 -8.31,8.345 l -114.14,0 c -4.619,0 -8.345,-3.723 -8.345,-8.345 l 0,-106.98 c 0,-4.619 3.723,-8.345 8.345,-8.345 m -7.349,160.23 23.475,0 c 2.361,0 4.279,1.886 4.279,4.248 l 0,17.15 c 0,2.361 -1.917,4.248 -4.279,4.248 l -23.475,0 c -2.361,0 -4.248,-1.886 -4.248,-4.248 l 0,-17.15 c 0,-2.361 1.886,-4.248 4.248,-4.248 m 52.685,0 23.443,0 c 2.361,0 4.279,1.886 4.279,4.248 l 0,17.15 c 0,2.361 -1.917,4.248 -4.279,4.248 l -23.443,0 c -2.361,0 -4.279,-1.886 -4.279,-4.248 l 0,-17.15 c 0,-2.361 1.917,-4.248 4.279,-4.248 m 52.654,0 23.475,0 c 2.361,0 4.248,1.886 4.248,4.248 l 0,17.15 c 0,2.361 -1.886,4.248 -4.248,4.248 l -23.475,0 c -2.361,0 -4.279,-1.886 -4.279,-4.248 l 0,-17.15 c 0,-2.361 1.917,-4.248 4.279,-4.248 m -105.34,46.33 23.475,0 c 2.361,0 4.279,1.886 4.279,4.248 l 0,17.15 c 0,2.361 -1.917,4.248 -4.279,4.248 l -23.475,0 c -2.361,0 -4.248,-1.886 -4.248,-4.248 l 0,-17.15 c 0,-2.361 1.886,-4.248 4.248,-4.248 m 52.685,0 23.443,0 c 2.361,0 4.279,1.886 4.279,4.248 l 0,17.15 c 0,2.361 -1.917,4.248 -4.279,4.248 l -23.443,0 c -2.361,0 -4.279,-1.886 -4.279,-4.248 l 0,-17.15 c 0,-2.361 1.917,-4.248 4.279,-4.248 m 52.654,0 23.475,0 c 2.361,0 4.248,1.886 4.248,4.248 l 0,17.15 c 0,2.361 -1.886,4.248 -4.248,4.248 l -23.475,0 c -2.361,0 -4.279,-1.886 -4.279,-4.248 l 0,-17.15 c 0,-2.361 1.917,-4.248 4.279,-4.248 m -105.34,46.33 23.475,0 c 2.361,0 4.279,1.886 4.279,4.248 l 0,17.15 c 0,2.361 -1.917,4.279 -4.279,4.279 l -23.475,0 c -2.361,0 -4.248,-1.917 -4.248,-4.279 l 0,-17.15 c 0,-2.361 1.886,-4.248 4.248,-4.248 m 52.685,0 23.443,0 c 2.361,0 4.279,1.886 4.279,4.248 l 0,17.15 c 0,2.361 -1.917,4.279 -4.279,4.279 l -23.443,0 c -2.361,0 -4.279,-1.917 -4.279,-4.279 l 0,-17.15 c 0,-2.361 1.917,-4.248 4.279,-4.248 m 52.654,0 23.475,0 c 2.361,0 4.248,1.886 4.248,4.248 l 0,17.15 c 0,2.361 -1.886,4.279 -4.248,4.279 l -23.475,0 c -2.361,0 -4.279,-1.917 -4.279,-4.279 l 0,-17.15 c 0,-2.361 1.917,-4.248 4.279,-4.248" />
  </g>
</svg>
