<?xml version="1.0" encoding="UTF-8" standalone="no"?>
<!-- Created with Inkscape (http://www.inkscape.org/) -->

<svg
   xmlns:dc="http://purl.org/dc/elements/1.1/"
   xmlns:cc="http://creativecommons.org/ns#"
   xmlns:rdf="http://www.w3.org/1999/02/22-rdf-syntax-ns#"
   xmlns:svg="http://www.w3.org/2000/svg"
   xmlns="http://www.w3.org/2000/svg"
   xmlns:sodipodi="http://sodipodi.sourceforge.net/DTD/sodipodi-0.dtd"
   xmlns:inkscape="http://www.inkscape.org/namespaces/inkscape"
   version="1.1"
   width="100%"
   height="100%"
   viewBox="0 0 512 512"
   id="svg2"
   inkscape:version="0.91 r13725"
   sodipodi:docname="printer.svg">
  <sodipodi:namedview
     pagecolor="#ffffff"
     bordercolor="#666666"
     borderopacity="1"
     objecttolerance="10"
     gridtolerance="10"
     guidetolerance="10"
     inkscape:pageopacity="0"
     inkscape:pageshadow="2"
     inkscape:window-width="1366"
     inkscape:window-height="709"
     id="namedview2348"
     showgrid="false"
     inkscape:zoom="0.4609375"
     inkscape:cx="-271.18644"
     inkscape:cy="219.11864"
     inkscape:window-x="-2"
     inkscape:window-y="-3"
     inkscape:window-maximized="1"
     inkscape:current-layer="svg2" />
  <metadata
     id="metadata4694">
    <rdf:RDF>
      <cc:Work
         rdf:about="">
        <dc:format>image/svg+xml</dc:format>
        <dc:type
           rdf:resource="http://purl.org/dc/dcmitype/StillImage" />
      </cc:Work>
    </rdf:RDF>
  </metadata>
  <defs
     id="defs4692" />
  <g
     id="g3376"
     transform="translate(355.79661,-423.05084)">
    <rect
       style="fill:#e75177"
       id="rect2780"
       y="423.05084"
       x="-355.80161"
       rx="26.853001"
       height="512"
       width="512" />
    <path
       style="fill-opacity:0.23500001"
       id="path4630"
       inkscape:connector-curvature="0"
       d="m -7.3916052,469.14085 c -9.6199998,0.046 -19.4509998,1.01 -28.8749998,0.281 l -168.310005,0 c -23.497,-0.403 -28.28,24.636 -26.22,43.03 l 0,35.594 c 5.866,3.611 9.104,9.826 14.938,13.469 0.932,4.571 15.02,11.244 8.938,12.75 -27.17,0.323 -54.43,-0.666 -81.56,0.531 -21.33,3.751 -21.948,26.887 -20.938,43.969 0.376,39.4 -0.763,78.901 0.594,118.25 7.741,18.644 26.307,30.03 39.31,45.09 12.534,13.594 28.02,25.942 38.719,40.31 1.475,18.447 -3.876,38.465 4.969,55.38 18.785,19.226 37.751,38.25 56.781,57.25 l 298.41,0 c 14.876,0 26.844,-11.967 26.844,-26.844 l 0,-298.28 c -45.2,-45.28 -90.329995,-90.66 -135.909995,-135.53 -8.657,-4.405 -18.0700002,-5.296 -27.6880002,-5.25" />
    <g
       style="fill:#ffffff"
       id="g4678"
       transform="matrix(0.81882,0,0,0.81882,-309.42161,469.43085)">
      <path
         id="path4680"
         inkscape:connector-curvature="0"
         d="m 128,32 256,0 0,64 32,0 0,-64 C 416,14.344 401.687,0 384,0 L 128,0 C 110.344,0 96,14.344 96,32 l 0,64 32,0 0,-64" />
      <path
         id="path4682"
         inkscape:connector-curvature="0"
         d="M 480,128 32,128 C 14.344,128 0,142.344 0,160 l 0,160 c 0,17.688 14.344,32 32,32 l 64,0 0,128 c 0,17.688 14.344,32 32,32 l 256,0 c 17.688,0 32,-14.313 32,-32 l 0,-128 64,0 c 17.688,0 32,-14.313 32,-32 l 0,-160 c 0,-17.656 -14.312,-32 -32,-32 m -96,352 -256,0 0,-224 256,0 0,224 m 64,-256 c -17.688,0 -32,-14.313 -32,-32 0,-17.656 14.313,-32 32,-32 17.687,0 32,14.344 32,32 0,17.688 -14.312,32 -32,32" />
      <path
         id="path4684"
         inkscape:connector-curvature="0"
         d="m 160,288 128,0 0,32 -128,0 z" />
      <path
         id="path4686"
         inkscape:connector-curvature="0"
         d="m 160,352 192,0 0,32 -192,0 z" />
      <path
         id="path4688"
         inkscape:connector-curvature="0"
         d="m 160,416 192,0 0,32 -192,0 z" />
    </g>
  </g>
</svg>
