<?xml version="1.0" encoding="UTF-8" standalone="no"?>
<!-- Created with Inkscape (http://www.inkscape.org/) -->

<svg
   xmlns:dc="http://purl.org/dc/elements/1.1/"
   xmlns:cc="http://creativecommons.org/ns#"
   xmlns:rdf="http://www.w3.org/1999/02/22-rdf-syntax-ns#"
   xmlns:svg="http://www.w3.org/2000/svg"
   xmlns="http://www.w3.org/2000/svg"
   xmlns:sodipodi="http://sodipodi.sourceforge.net/DTD/sodipodi-0.dtd"
   xmlns:inkscape="http://www.inkscape.org/namespaces/inkscape"
   version="1.1"
   width="100%"
   height="100%"
   viewBox="0 0 512 512"
   id="svg2"
   inkscape:version="0.91 r13725"
   sodipodi:docname="video-display.svg">
  <sodipodi:namedview
     pagecolor="#ffffff"
     bordercolor="#666666"
     borderopacity="1"
     objecttolerance="10"
     gridtolerance="10"
     guidetolerance="10"
     inkscape:pageopacity="0"
     inkscape:pageshadow="2"
     inkscape:window-width="640"
     inkscape:window-height="480"
     id="namedview3373"
     showgrid="false"
     inkscape:zoom="0.546875"
     inkscape:cx="34.742857"
     inkscape:cy="240.45714"
     inkscape:current-layer="svg2" />
  <metadata
     id="metadata6744">
    <rdf:RDF>
      <cc:Work
         rdf:about="">
        <dc:format>image/svg+xml</dc:format>
        <dc:type
           rdf:resource="http://purl.org/dc/dcmitype/StillImage" />
      </cc:Work>
    </rdf:RDF>
  </metadata>
  <defs
     id="defs6742" />
  <g
     id="g6725"
     transform="translate(480.91429,-332.8)">
    <rect
       style="fill:#669966"
       id="rect2780"
       y="332.7955"
       x="-480.92279"
       rx="26.853001"
       height="512"
       width="512" />
    <path
       style="fill-opacity:0.23500001"
       id="path6530"
       inkscape:connector-curvature="0"
       d="m -69.512786,378.6085 c -13.388,0.042 -27.1,1.546 -40.120004,0.406 l -282.75,0 c -35.812,-0.822 -45.52,36.9 -42.06,65.63 0.163,84.74 -0.351,169.52 0.219,254.25 5.03,27.742 32.739,42.19 49.594,62.66 27.845,27.691 55.633,55.46 83.38,83.25 l 305.5000043,0 c 14.8759997,0 26.8439997,-11.967 26.8439997,-26.844 l 0,-369.12 c -20.755,-20.64 -41.55,-41.22 -62.41,-61.75 -11.717,-7.081 -24.803,-8.511 -38.19,-8.469" />
    <g
       transform="translate(-480.92279,332.7955)"
       style="fill:#ffffff"
       id="g6736">
      <path
         style="fill:#ffffff"
         id="path6738"
         transform="matrix(10.50996,0,0,10.50996,45.801,45.801)"
         inkscape:connector-curvature="0"
         d="M 36,0 4,0 C 1.791,0 0,1.79 0,4 l 0,26 c 0,2.209 1.791,4 4,4 l 10,0 -1.367,4.103 C 12.283,39.15 12.896,40 14,40 l 12,0 c 1.104,0 1.717,-0.85 1.367,-1.897 L 26,34 36,34 c 2.209,0 4,-1.791 4,-4 L 40,4 C 40,1.79 38.209,0 36,0 M 36,26 4,26 4,4 36,4 36,26" />
    </g>
  </g>
</svg>
