<?xml version="1.0" encoding="UTF-8" standalone="no"?>
<!-- Created with Inkscape (http://www.inkscape.org/) -->

<svg
   xmlns:dc="http://purl.org/dc/elements/1.1/"
   xmlns:cc="http://creativecommons.org/ns#"
   xmlns:rdf="http://www.w3.org/1999/02/22-rdf-syntax-ns#"
   xmlns:svg="http://www.w3.org/2000/svg"
   xmlns="http://www.w3.org/2000/svg"
   xmlns:xlink="http://www.w3.org/1999/xlink"
   xmlns:sodipodi="http://sodipodi.sourceforge.net/DTD/sodipodi-0.dtd"
   xmlns:inkscape="http://www.inkscape.org/namespaces/inkscape"
   width="48"
   height="48"
   id="svg2"
   version="1.1"
   inkscape:version="0.49 r12742"
   sodipodi:docname="package-reinstall.svg">
  <defs
     id="defs4">
    <linearGradient
       gradientTransform="translate(7.7392578e-7,4.2609766e-5)"
       inkscape:collect="always"
       xlink:href="#linearGradient4708-4"
       id="linearGradient6778"
       x1="40.915409"
       y1="1049.3521"
       x2="40.915409"
       y2="1007.3218"
       gradientUnits="userSpaceOnUse" />
    <linearGradient
       id="linearGradient4708-4"
       inkscape:collect="always">
      <stop
         id="stop4710-4"
         offset="0"
         style="stop-color:#47b73d;stop-opacity:1" />
      <stop
         id="stop4712-1"
         offset="1"
         style="stop-color:#ade355;stop-opacity:1" />
    </linearGradient>
  </defs>
  <sodipodi:namedview
     id="base"
     pagecolor="#ffffff"
     bordercolor="#666666"
     borderopacity="1.0"
     inkscape:pageopacity="0.0"
     inkscape:pageshadow="2"
     inkscape:zoom="12.27461"
     inkscape:cx="23.531992"
     inkscape:cy="25.325208"
     inkscape:document-units="px"
     inkscape:current-layer="layer1"
     showgrid="false"
     inkscape:window-width="1366"
     inkscape:window-height="718"
     inkscape:window-x="0"
     inkscape:window-y="23"
     inkscape:window-maximized="1" />
  <metadata
     id="metadata7">
    <rdf:RDF>
      <cc:Work
         rdf:about="">
        <dc:format>image/svg+xml</dc:format>
        <dc:type
           rdf:resource="http://purl.org/dc/dcmitype/StillImage" />
        <dc:title />
      </cc:Work>
    </rdf:RDF>
  </metadata>
  <g
     inkscape:label="Capa 1"
     inkscape:groupmode="layer"
     id="layer1"
     transform="translate(0,-1004.3622)">
    <g
       id="layer1-5"
       inkscape:label="Capa 1">
      <g
         inkscape:label="Capa 1"
         id="layer1-41">
        <g
           id="layer1-4"
           inkscape:label="Capa 1"
           transform="translate(0,4.7900391e-5)">
          <rect
             ry="6.2786646"
             y="1006.1622"
             x="1.8000183"
             height="44.399963"
             width="44.399963"
             id="rect5263-6"
             style="fill:#000000;fill-opacity:0.01960784;stroke:none" />
          <rect
             style="fill:#000000;fill-opacity:0.03921569;stroke:none"
             id="rect5261-3"
             width="43.799973"
             height="43.799973"
             x="2.1000061"
             y="1006.4623"
             ry="6.1938181" />
          <rect
             ry="6.1089716"
             y="1006.7624"
             x="2.3999939"
             height="43.199982"
             width="43.199982"
             id="rect5259-9"
             style="fill:#000000;fill-opacity:0.07843137;stroke:none" />
          <rect
             style="fill:#000000;fill-opacity:0.15686275;stroke:none"
             id="rect5257-0"
             width="42.599991"
             height="42.599991"
             x="2.7000122"
             y="1007.0624"
             ry="6.0241251" />
          <rect
             ry="5.9392786"
             y="1007.3622"
             x="3"
             height="42"
             width="42"
             id="rect5237-0"
             style="fill:url(#linearGradient6778);fill-opacity:1;stroke:none" />
          <path
             id="rect5265-2"
             d="m 2.9999998,1040.9248 0,2.5 c 0,3.2904 2.64714,5.9375 5.9375,5.9375 l 30.1250002,0 c 3.29036,0 5.9375,-2.6471 5.9375,-5.9375 l 0,-2.5 c 0,3.2904 -2.64714,5.9375 -5.9375,5.9375 l -30.1250002,0 c -3.29036,0 -5.9375,-2.6471 -5.9375,-5.9375 z"
             style="fill:#000000;fill-opacity:0.11764706;stroke:none"
             inkscape:connector-curvature="0" />
          <path
             id="path5252-9"
             d="m 2.9999998,1042.9248 0,0.5 c 0,3.2904 2.64714,5.9375 5.9375,5.9375 l 30.1250002,0 c 3.29036,0 5.9375,-2.6471 5.9375,-5.9375 l 0,-0.5 c 0,3.2904 -2.64714,5.9375 -5.9375,5.9375 l -30.1250002,0 c -3.29036,0 -5.9375,-2.6471 -5.9375,-5.9375 z"
             style="fill:#000000;fill-opacity:0.09803922;stroke:none"
             inkscape:connector-curvature="0" />
          <g
             transform="matrix(0.86666666,0,0,0.86666666,3.2000002,137.11497)"
             style="fill:#000000;fill-opacity:0.49803922"
             inkscape:label="Capa 1"
             id="layer1-8" />
        </g>
      </g>
    </g>
    <g
       id="layer1-7"
       inkscape:label="Capa 1"
       transform="matrix(0.86666694,0,0,0.86666694,3.1999934,137.11467)">
      <path
         style="fill:#000000;fill-opacity:0.49803922;fill-rule:evenodd;stroke:none"
         d="M 24.005859 11 C 20.60223 10.999827 17.218566 12.399993 14.810547 14.806641 C 12.402528 17.213201 11 20.596512 11 24 C 11 27.403488 12.402528 30.786799 14.810547 33.193359 C 17.217369 35.598793 20.598084 37 24 37 L 24 33.533203 C 21.505716 33.53199 19.026404 32.505855 17.261719 30.742188 C 15.495838 28.977307 14.466797 26.495914 14.466797 24 C 14.466797 21.504086 15.495838 19.022693 17.261719 17.257812 C 19.0276 15.493019 21.509865 14.466624 24.005859 14.466797 C 26.405866 14.466964 28.783528 15.424312 30.53125 17.066406 L 27.466797 17.066406 L 27.466797 20.533203 L 32.865234 20.533203 L 33.533203 20.533203 L 36.507812 20.533203 L 37 20.533203 L 37 17.066406 L 37 11 L 33.533203 11 L 33.533203 15.169922 C 33.421452 15.048711 33.311942 14.925304 33.195312 14.808594 C 30.790362 12.402033 27.409489 11.000173 24.005859 11 z "
         transform="matrix(1.1538458,0,0,1.1538458,-3.6922989,1000.6699)"
         id="path3270" />
      <ellipse
         transform="scale(-1,1)"
         id="path3274"
         style="fill:none;stroke:none"
         cx="-24.001387"
         cy="1041.3622"
         rx="2.0013857"
         ry="2.0000615"
         d="m -22.000001,1041.3622 a 2.0013857,2.0000615 0 0 1 -2.001386,2 2.0013857,2.0000615 0 0 1 -2.001385,-2 2.0013857,2.0000615 0 0 1 2.001385,-2.0001 2.0013857,2.0000615 0 0 1 2.001386,2.0001 z" />
    </g>
  </g>
</svg>
