<?xml version="1.0" encoding="UTF-8" standalone="no"?>
<!-- Created with Inkscape (http://www.inkscape.org/) -->

<svg
   xmlns:dc="http://purl.org/dc/elements/1.1/"
   xmlns:cc="http://creativecommons.org/ns#"
   xmlns:rdf="http://www.w3.org/1999/02/22-rdf-syntax-ns#"
   xmlns:svg="http://www.w3.org/2000/svg"
   xmlns="http://www.w3.org/2000/svg"
   xmlns:xlink="http://www.w3.org/1999/xlink"
   xmlns:sodipodi="http://sodipodi.sourceforge.net/DTD/sodipodi-0.dtd"
   xmlns:inkscape="http://www.inkscape.org/namespaces/inkscape"
   width="48"
   height="48"
   id="svg2"
   version="1.1"
   inkscape:version="0.49 r12742"
   sodipodi:docname="package-remove.svg">
  <defs
     id="defs4">
    <linearGradient
       id="linearGradient6125"
       inkscape:collect="always">
      <stop
         id="stop6127"
         offset="0"
         style="stop-color:#f81654;stop-opacity:1" />
      <stop
         id="stop6129"
         offset="1"
         style="stop-color:#fd668f;stop-opacity:1" />
    </linearGradient>
    <linearGradient
       inkscape:collect="always"
       xlink:href="#linearGradient6125"
       id="linearGradient3030"
       gradientUnits="userSpaceOnUse"
       x1="28.399813"
       y1="1049.3252"
       x2="28.399813"
       y2="1007.3821"
       gradientTransform="translate(5.9082033e-8,5.9091328e-5)" />
  </defs>
  <sodipodi:namedview
     id="base"
     pagecolor="#ffffff"
     bordercolor="#666666"
     borderopacity="1.0"
     inkscape:pageopacity="0.0"
     inkscape:pageshadow="2"
     inkscape:zoom="3.0686524"
     inkscape:cx="-74.97603"
     inkscape:cy="13.375965"
     inkscape:document-units="px"
     inkscape:current-layer="layer1"
     showgrid="false"
     inkscape:window-width="1366"
     inkscape:window-height="718"
     inkscape:window-x="0"
     inkscape:window-y="23"
     inkscape:window-maximized="1" />
  <metadata
     id="metadata7">
    <rdf:RDF>
      <cc:Work
         rdf:about="">
        <dc:format>image/svg+xml</dc:format>
        <dc:type
           rdf:resource="http://purl.org/dc/dcmitype/StillImage" />
        <dc:title />
      </cc:Work>
    </rdf:RDF>
  </metadata>
  <g
     inkscape:label="Capa 1"
     inkscape:groupmode="layer"
     id="layer1"
     transform="translate(0,-1004.3622)">
    <g
       id="layer1-3"
       inkscape:label="Capa 1">
      <g
         transform="translate(0,4.7900391e-5)"
         inkscape:label="Capa 1"
         id="layer1-0">
        <rect
           style="fill:#000000;fill-opacity:0.01960784;stroke:none"
           id="rect5263"
           width="44.399963"
           height="44.399963"
           x="1.8000183"
           y="1006.1622"
           ry="6.2786646" />
        <rect
           ry="6.1938181"
           y="1006.4623"
           x="2.1000061"
           height="43.799973"
           width="43.799973"
           id="rect5261"
           style="fill:#000000;fill-opacity:0.03921569;stroke:none" />
        <rect
           style="fill:#000000;fill-opacity:0.07843137;stroke:none"
           id="rect5259"
           width="43.199982"
           height="43.199982"
           x="2.3999939"
           y="1006.7625"
           ry="6.1089716" />
        <rect
           ry="6.0241251"
           y="1007.0623"
           x="2.7000122"
           height="42.599991"
           width="42.599991"
           id="rect5257"
           style="fill:#000000;fill-opacity:0.15686275;stroke:none" />
        <rect
           style="fill:url(#linearGradient3030);fill-opacity:1;stroke:none"
           id="rect5237"
           width="42"
           height="42"
           x="3"
           y="1007.3622"
           ry="5.9392786" />
        <path
           inkscape:connector-curvature="0"
           style="fill:#000000;fill-opacity:0.11764706;stroke:none"
           d="m 2.9999991,1040.9247 0,2.5 c 0,3.2904 2.64714,5.9375 5.9375,5.9375 l 30.1249999,0 c 3.29036,0 5.9375,-2.6471 5.9375,-5.9375 l 0,-2.5 c 0,3.2904 -2.64714,5.9375 -5.9375,5.9375 l -30.1249999,0 c -3.29036,0 -5.9375,-2.6471 -5.9375,-5.9375 z"
           id="rect5265" />
        <path
           inkscape:connector-curvature="0"
           style="fill:#000000;fill-opacity:0.09803922;stroke:none"
           d="m 2.9999991,1042.9247 0,0.5 c 0,3.2904 2.64714,5.9375 5.9375,5.9375 l 30.1249999,0 c 3.29036,0 5.9375,-2.6471 5.9375,-5.9375 l 0,-0.5 c 0,3.2904 -2.64714,5.9375 -5.9375,5.9375 l -30.1249999,0 c -3.29036,0 -5.9375,-2.6471 -5.9375,-5.9375 z"
           id="path5252" />
        <text
           xml:space="preserve"
           style="font-size:40px;font-style:normal;font-variant:normal;font-weight:bold;font-stretch:normal;line-height:125%;letter-spacing:0px;word-spacing:0px;fill:#000000;fill-opacity:1;stroke:none;font-family:Impact;-inkscape-font-specification:Impact Bold"
           x="-8.1976318"
           y="1040.7161"
           id="text830"
           sodipodi:linespacing="125%"><tspan
             sodipodi:role="line"
             id="tspan832"
             x="-8.1976318"
             y="1040.7161" /></text>
      </g>
      <g
         inkscape:label="Capa 1"
         id="layer1-8"
         transform="matrix(0.86666854,0,0,0.86666854,-458.85821,527.3615)">
        <rect
           style="fill:none;stroke:none"
           id="rect3275"
           width="30"
           height="30"
           x="542.14288"
           y="563.07648" />
        <path
           id="rect3287"
           transform="matrix(1.1538437,0,0,1.1538437,529.45064,550.38423)"
           d="M 13.451172,11 11,13.451172 21.548828,24 11,34.548828 13.451172,37 24,26.451172 34.548828,37 37,34.548828 26.451172,24 37,13.451172 34.548828,11 24,21.548828 13.451172,11 Z"
           style="fill:#000000;fill-opacity:0.49803922;fill-rule:evenodd;stroke:none"
           inkscape:connector-curvature="0" />
      </g>
    </g>
  </g>
</svg>
