<?xml version="1.0" encoding="UTF-8" standalone="no"?>
<!-- Created with Inkscape (http://www.inkscape.org/) -->
<svg id="svg2" xmlns:rdf="http://www.w3.org/1999/02/22-rdf-syntax-ns#" xmlns="http://www.w3.org/2000/svg" height="100%" viewBox="0 0 512 512" width="100%" version="1.1" xmlns:cc="http://creativecommons.org/ns#" xmlns:dc="http://purl.org/dc/elements/1.1/">
 <metadata id="metadata70">
  <rdf:RDF>
   <cc:Work rdf:about="">
    <dc:format>image/svg+xml</dc:format>
    <dc:type rdf:resource="http://purl.org/dc/dcmitype/StillImage"/>
    <dc:title/>
   </cc:Work>
  </rdf:RDF>
 </metadata>
 <defs id="defs68">
  <style id="style2464" type="text/css"/>
  <style id="style2464-7" type="text/css"/>
 </defs>
 <text id="text20" style="word-spacing:0;letter-spacing:0" font-size="129.23px" line-height="125%" y="231.35997" x="729.64001" font-family="Gentium Book Basic">
  <tspan id="tspan22" y="231.35997" x="729.64001"/>
 </text>
 <text id="text24" style="text-anchor:middle" font-size="46.954px" transform="scale(4.0128 .24920)" y="579.25812" x="378.90805" font-family="Arial"/>
 <text id="text26" style="word-spacing:0;letter-spacing:0" font-size="129.23px" line-height="125%" y="151.35997" x="1310.91" font-family="Gentium Book Basic">
  <tspan id="tspan28" y="151.35997" x="1310.91"/>
 </text>
 <text id="text30" style="text-anchor:middle" font-size="46.954px" transform="scale(4.0128 .24920)" y="258.21997" x="523.75732" font-family="Arial"/>
 <text id="text32" style="word-spacing:0;letter-spacing:0" font-size="129.23px" line-height="125%" y="-29.900009" x="239.33" font-family="Gentium Book Basic">
  <tspan id="tspan34" y="-29.900009" x="239.33"/>
 </text>
 <text id="text36" style="text-anchor:middle" font-size="46.954px" transform="scale(4.0128 .24920)" y="-469.1264" x="256.71869" font-family="Arial"/>
 <text id="text38" style="word-spacing:0;letter-spacing:0" font-size="129.23px" line-height="125%" y="-246.37001" x="1337.38" font-family="Gentium Book Basic">
  <tspan id="tspan40" y="-246.37001" x="1337.38"/>
 </text>
 <text id="text42" style="text-anchor:middle" font-size="46.954px" transform="scale(4.0128 .24920)" y="-1337.802" x="530.3573" font-family="Arial"/>
 <text id="text44" style="word-spacing:0;letter-spacing:0" font-size="129.23px" line-height="125%" y="-326.37" x="1918.65" font-family="Gentium Book Basic">
  <tspan id="tspan46" y="-326.37" x="1918.65"/>
 </text>
 <text id="text48" style="text-anchor:middle" font-size="46.954px" transform="scale(4.0128 .24920)" y="-1658.8303" x="675.20654" font-family="Arial"/>
 <text id="text50" style="word-spacing:0;letter-spacing:0" font-size="129.23px" line-height="125%" y="-798.77002" x="1529.53" font-family="Gentium Book Basic">
  <tspan id="tspan52" y="-798.77002" x="1529.53"/>
 </text>
 <text id="text54" style="text-anchor:middle" font-size="46.954px" transform="scale(4.0128 .24920)" y="-3554.4807" x="578.237" font-family="Arial"/>
 <text id="text56" style="word-spacing:0;letter-spacing:0" font-size="129.23px" line-height="125%" y="-878.78003" x="2110.79" font-family="Gentium Book Basic">
  <tspan id="tspan58" y="-878.78003" x="2110.79"/>
 </text>
 <text id="text60" style="text-anchor:middle" font-size="46.954px" transform="scale(4.0128 .24920)" y="-3875.519" x="723.0863" font-family="Arial"/>
 <text id="text62" style="word-spacing:0;letter-spacing:0" font-size="208.33px" line-height="125%" y="535.94006" x="277.98999" font-family="Gentium Book Basic">
  <tspan id="tspan64" y="535.94006" x="277.98999"/>
 </text>
 <text id="text20-3" font-size="129.23px" style="word-spacing:0;letter-spacing:0" line-height="125%" y="231.35997" x="729.64001" font-family="Gentium Book Basic">
  <tspan id="tspan22-6" y="231.35997" x="729.64001"/>
 </text>
 <text id="text24-5" style="text-anchor:middle" font-size="46.954px" transform="scale(4.0128 .24920)" y="579.25812" x="378.90805" font-family="Arial"/>
 <text id="text26-3" font-size="129.23px" style="word-spacing:0;letter-spacing:0" line-height="125%" y="151.35997" x="1310.91" font-family="Gentium Book Basic">
  <tspan id="tspan28-9" y="151.35997" x="1310.91"/>
 </text>
 <text id="text30-9" style="text-anchor:middle" font-size="46.954px" transform="scale(4.0128 .24920)" y="258.21997" x="523.75732" font-family="Arial"/>
 <text id="text32-8" font-size="129.23px" style="word-spacing:0;letter-spacing:0" line-height="125%" y="-29.900009" x="239.33" font-family="Gentium Book Basic">
  <tspan id="tspan34-1" y="-29.900009" x="239.33"/>
 </text>
 <text id="text36-3" style="text-anchor:middle" font-size="46.954px" transform="scale(4.0128 .24920)" y="-469.1264" x="256.71869" font-family="Arial"/>
 <text id="text38-5" font-size="129.23px" style="word-spacing:0;letter-spacing:0" line-height="125%" y="-246.37001" x="1337.38" font-family="Gentium Book Basic">
  <tspan id="tspan40-7" y="-246.37001" x="1337.38"/>
 </text>
 <text id="text42-3" style="text-anchor:middle" font-size="46.954px" transform="scale(4.0128 .24920)" y="-1337.802" x="530.3573" font-family="Arial"/>
 <text id="text44-6" font-size="129.23px" style="word-spacing:0;letter-spacing:0" line-height="125%" y="-326.37" x="1918.65" font-family="Gentium Book Basic">
  <tspan id="tspan46-4" y="-326.37" x="1918.65"/>
 </text>
 <text id="text48-2" style="text-anchor:middle" font-size="46.954px" transform="scale(4.0128 .24920)" y="-1658.8303" x="675.20654" font-family="Arial"/>
 <text id="text50-4" font-size="129.23px" style="word-spacing:0;letter-spacing:0" line-height="125%" y="-798.77002" x="1529.53" font-family="Gentium Book Basic">
  <tspan id="tspan52-0" y="-798.77002" x="1529.53"/>
 </text>
 <text id="text54-6" style="text-anchor:middle" font-size="46.954px" transform="scale(4.0128 .24920)" y="-3554.4807" x="578.237" font-family="Arial"/>
 <text id="text56-5" font-size="129.23px" style="word-spacing:0;letter-spacing:0" line-height="125%" y="-878.78003" x="2110.79" font-family="Gentium Book Basic">
  <tspan id="tspan58-3" y="-878.78003" x="2110.79"/>
 </text>
 <text id="text60-8" style="text-anchor:middle" font-size="46.954px" transform="scale(4.0128 .24920)" y="-3875.519" x="723.0863" font-family="Arial"/>
 <text id="text62-4" font-size="208.33px" style="word-spacing:0;letter-spacing:0" line-height="125%" y="535.94006" x="277.98999" font-family="Gentium Book Basic">
  <tspan id="tspan64-1" y="535.94006" x="277.98999"/>
 </text>
 <text id="text20-8" style="word-spacing:0;letter-spacing:0" font-size="129.23px" line-height="125%" y="231.35997" x="729.64001" font-family="Gentium Book Basic">
  <tspan id="tspan22-7" y="231.35997" x="729.64001"/>
 </text>
 <text id="text24-2" style="text-anchor:middle" font-size="46.954px" transform="scale(4.0128 .24920)" y="579.25812" x="378.90805" font-family="Arial"/>
 <text id="text26-0" style="word-spacing:0;letter-spacing:0" font-size="129.23px" line-height="125%" y="151.35997" x="1310.91" font-family="Gentium Book Basic">
  <tspan id="tspan28-7" y="151.35997" x="1310.91"/>
 </text>
 <text id="text30-5" style="text-anchor:middle" font-size="46.954px" transform="scale(4.0128 .24920)" y="258.21997" x="523.75732" font-family="Arial"/>
 <text id="text32-84" style="word-spacing:0;letter-spacing:0" font-size="129.23px" line-height="125%" y="-29.900009" x="239.33" font-family="Gentium Book Basic">
  <tspan id="tspan34-9" y="-29.900009" x="239.33"/>
 </text>
 <text id="text36-0" style="text-anchor:middle" font-size="46.954px" transform="scale(4.0128 .24920)" y="-469.1264" x="256.71869" font-family="Arial"/>
 <text id="text38-4" style="word-spacing:0;letter-spacing:0" font-size="129.23px" line-height="125%" y="-246.37001" x="1337.38" font-family="Gentium Book Basic">
  <tspan id="tspan40-9" y="-246.37001" x="1337.38"/>
 </text>
 <text id="text42-1" style="text-anchor:middle" font-size="46.954px" transform="scale(4.0128 .24920)" y="-1337.802" x="530.3573" font-family="Arial"/>
 <text id="text44-7" style="word-spacing:0;letter-spacing:0" font-size="129.23px" line-height="125%" y="-326.37" x="1918.65" font-family="Gentium Book Basic">
  <tspan id="tspan46-40" y="-326.37" x="1918.65"/>
 </text>
 <text id="text48-0" style="text-anchor:middle" font-size="46.954px" transform="scale(4.0128 .24920)" y="-1658.8303" x="675.20654" font-family="Arial"/>
 <text id="text50-3" style="word-spacing:0;letter-spacing:0" font-size="129.23px" line-height="125%" y="-798.77002" x="1529.53" font-family="Gentium Book Basic">
  <tspan id="tspan52-4" y="-798.77002" x="1529.53"/>
 </text>
 <text id="text54-4" style="text-anchor:middle" font-size="46.954px" transform="scale(4.0128 .24920)" y="-3554.4807" x="578.237" font-family="Arial"/>
 <text id="text56-9" style="word-spacing:0;letter-spacing:0" font-size="129.23px" line-height="125%" y="-878.78003" x="2110.79" font-family="Gentium Book Basic">
  <tspan id="tspan58-5" y="-878.78003" x="2110.79"/>
 </text>
 <text id="text60-2" style="text-anchor:middle" font-size="46.954px" transform="scale(4.0128 .24920)" y="-3875.519" x="723.0863" font-family="Arial"/>
 <text id="text62-48" style="word-spacing:0;letter-spacing:0" font-size="208.33px" line-height="125%" y="535.94006" x="277.98999" font-family="Gentium Book Basic">
  <tspan id="tspan64-10" y="535.94006" x="277.98999"/>
 </text>
 <text id="text20-2" font-size="129.23px" style="word-spacing:0;letter-spacing:0" line-height="125%" y="231.35997" x="729.64001" font-family="Gentium Book Basic">
  <tspan id="tspan22-0" y="231.35997" x="729.64001"/>
 </text>
 <text id="text24-1" style="text-anchor:middle" font-size="46.954px" transform="scale(4.0128 .24920)" y="579.25812" x="378.90805" font-family="Arial"/>
 <text id="text26-6" font-size="129.23px" style="word-spacing:0;letter-spacing:0" line-height="125%" y="151.35997" x="1310.91" font-family="Gentium Book Basic">
  <tspan id="tspan28-1" y="151.35997" x="1310.91"/>
 </text>
 <text id="text30-1" style="text-anchor:middle" font-size="46.954px" transform="scale(4.0128 .24920)" y="258.21997" x="523.75732" font-family="Arial"/>
 <text id="text32-0" font-size="129.23px" style="word-spacing:0;letter-spacing:0" line-height="125%" y="-29.900009" x="239.33" font-family="Gentium Book Basic">
  <tspan id="tspan34-0" y="-29.900009" x="239.33"/>
 </text>
 <text id="text36-4" style="text-anchor:middle" font-size="46.954px" transform="scale(4.0128 .24920)" y="-469.1264" x="256.71869" font-family="Arial"/>
 <text id="text38-0" font-size="129.23px" style="word-spacing:0;letter-spacing:0" line-height="125%" y="-246.37001" x="1337.38" font-family="Gentium Book Basic">
  <tspan id="tspan40-74" y="-246.37001" x="1337.38"/>
 </text>
 <text id="text42-2" style="text-anchor:middle" font-size="46.954px" transform="scale(4.0128 .24920)" y="-1337.802" x="530.3573" font-family="Arial"/>
 <text id="text44-2" font-size="129.23px" style="word-spacing:0;letter-spacing:0" line-height="125%" y="-326.37" x="1918.65" font-family="Gentium Book Basic">
  <tspan id="tspan46-8" y="-326.37" x="1918.65"/>
 </text>
 <text id="text48-7" style="text-anchor:middle" font-size="46.954px" transform="scale(4.0128 .24920)" y="-1658.8303" x="675.20654" font-family="Arial"/>
 <text id="text50-33" font-size="129.23px" style="word-spacing:0;letter-spacing:0" line-height="125%" y="-798.77002" x="1529.53" font-family="Gentium Book Basic">
  <tspan id="tspan52-9" y="-798.77002" x="1529.53"/>
 </text>
 <text id="text54-7" style="text-anchor:middle" font-size="46.954px" transform="scale(4.0128 .24920)" y="-3554.4807" x="578.237" font-family="Arial"/>
 <text id="text56-2" font-size="129.23px" style="word-spacing:0;letter-spacing:0" line-height="125%" y="-878.78003" x="2110.79" font-family="Gentium Book Basic">
  <tspan id="tspan58-2" y="-878.78003" x="2110.79"/>
 </text>
 <text id="text60-9" style="text-anchor:middle" font-size="46.954px" transform="scale(4.0128 .24920)" y="-3875.519" x="723.0863" font-family="Arial"/>
 <text id="text62-5" font-size="208.33px" style="word-spacing:0;letter-spacing:0" line-height="125%" y="535.94006" x="277.98999" font-family="Gentium Book Basic">
  <tspan id="tspan64-4" y="535.94006" x="277.98999"/>
 </text>
 <text id="text20-6" style="word-spacing:0;letter-spacing:0" font-size="129.23px" line-height="125%" y="231.35997" x="729.64001" font-family="Gentium Book Basic">
  <tspan id="tspan22-3" y="231.35997" x="729.64001"/>
 </text>
 <text id="text24-9" style="text-anchor:middle" font-size="46.954px" transform="scale(4.0128 .24920)" y="579.25812" x="378.90805" font-family="Arial"/>
 <text id="text26-8" style="word-spacing:0;letter-spacing:0" font-size="129.23px" line-height="125%" y="151.35997" x="1310.91" font-family="Gentium Book Basic">
  <tspan id="tspan28-3" y="151.35997" x="1310.91"/>
 </text>
 <text id="text30-2" style="text-anchor:middle" font-size="46.954px" transform="scale(4.0128 .24920)" y="258.21997" x="523.75732" font-family="Arial"/>
 <text id="text32-7" style="word-spacing:0;letter-spacing:0" font-size="129.23px" line-height="125%" y="-29.900009" x="239.33" font-family="Gentium Book Basic">
  <tspan id="tspan34-5" y="-29.900009" x="239.33"/>
 </text>
 <text id="text36-39" style="text-anchor:middle" font-size="46.954px" transform="scale(4.0128 .24920)" y="-469.1264" x="256.71869" font-family="Arial"/>
 <text id="text38-7" style="word-spacing:0;letter-spacing:0" font-size="129.23px" line-height="125%" y="-246.37001" x="1337.38" font-family="Gentium Book Basic">
  <tspan id="tspan40-99" y="-246.37001" x="1337.38"/>
 </text>
 <text id="text42-4" style="text-anchor:middle" font-size="46.954px" transform="scale(4.0128 .24920)" y="-1337.802" x="530.3573" font-family="Arial"/>
 <text id="text44-3" style="word-spacing:0;letter-spacing:0" font-size="129.23px" line-height="125%" y="-326.37" x="1918.65" font-family="Gentium Book Basic">
  <tspan id="tspan46-46" y="-326.37" x="1918.65"/>
 </text>
 <text id="text48-21" style="text-anchor:middle" font-size="46.954px" transform="scale(4.0128 .24920)" y="-1658.8303" x="675.20654" font-family="Arial"/>
 <text id="text50-1" style="word-spacing:0;letter-spacing:0" font-size="129.23px" line-height="125%" y="-798.77002" x="1529.53" font-family="Gentium Book Basic">
  <tspan id="tspan52-7" y="-798.77002" x="1529.53"/>
 </text>
 <text id="text54-2" style="text-anchor:middle" font-size="46.954px" transform="scale(4.0128 .24920)" y="-3554.4807" x="578.237" font-family="Arial"/>
 <text id="text56-8" style="word-spacing:0;letter-spacing:0" font-size="129.23px" line-height="125%" y="-878.78003" x="2110.79" font-family="Gentium Book Basic">
  <tspan id="tspan58-9" y="-878.78003" x="2110.79"/>
 </text>
 <text id="text60-7" style="text-anchor:middle" font-size="46.954px" transform="scale(4.0128 .24920)" y="-3875.519" x="723.0863" font-family="Arial"/>
 <text id="text62-9" style="word-spacing:0;letter-spacing:0" font-size="208.33px" line-height="125%" y="535.94006" x="277.98999" font-family="Gentium Book Basic">
  <tspan id="tspan64-7" y="535.94006" x="277.98999"/>
 </text>
 <text id="text20-32" style="word-spacing:0;letter-spacing:0" font-size="129.23px" line-height="125%" y="231.35997" x="729.64001" font-family="Gentium Book Basic">
  <tspan id="tspan22-1" y="231.35997" x="729.64001"/>
 </text>
 <text id="text24-8" style="text-anchor:middle" font-size="46.954px" transform="scale(4.0128 .24920)" y="579.25812" x="378.90805" font-family="Arial"/>
 <text id="text26-81" style="word-spacing:0;letter-spacing:0" font-size="129.23px" line-height="125%" y="151.35997" x="1310.91" font-family="Gentium Book Basic">
  <tspan id="tspan28-6" y="151.35997" x="1310.91"/>
 </text>
 <text id="text30-7" style="text-anchor:middle" font-size="46.954px" transform="scale(4.0128 .24920)" y="258.21997" x="523.75732" font-family="Arial"/>
 <text id="text32-2" style="word-spacing:0;letter-spacing:0" font-size="129.23px" line-height="125%" y="-29.900009" x="239.33" font-family="Gentium Book Basic">
  <tspan id="tspan34-2" y="-29.900009" x="239.33"/>
 </text>
 <text id="text36-36" style="text-anchor:middle" font-size="46.954px" transform="scale(4.0128 .24920)" y="-469.1264" x="256.71869" font-family="Arial"/>
 <text id="text38-9" style="word-spacing:0;letter-spacing:0" font-size="129.23px" line-height="125%" y="-246.37001" x="1337.38" font-family="Gentium Book Basic">
  <tspan id="tspan40-5" y="-246.37001" x="1337.38"/>
 </text>
 <text id="text42-9" style="text-anchor:middle" font-size="46.954px" transform="scale(4.0128 .24920)" y="-1337.802" x="530.3573" font-family="Arial"/>
 <text id="text44-0" style="word-spacing:0;letter-spacing:0" font-size="129.23px" line-height="125%" y="-326.37" x="1918.65" font-family="Gentium Book Basic">
  <tspan id="tspan46-2" y="-326.37" x="1918.65"/>
 </text>
 <text id="text48-214" style="text-anchor:middle" font-size="46.954px" transform="scale(4.0128 .24920)" y="-1658.8303" x="675.20654" font-family="Arial"/>
 <text id="text50-12" style="word-spacing:0;letter-spacing:0" font-size="129.23px" line-height="125%" y="-798.77002" x="1529.53" font-family="Gentium Book Basic">
  <tspan id="tspan52-1" y="-798.77002" x="1529.53"/>
 </text>
 <text id="text54-28" style="text-anchor:middle" font-size="46.954px" transform="scale(4.0128 .24920)" y="-3554.4807" x="578.237" font-family="Arial"/>
 <text id="text56-85" style="word-spacing:0;letter-spacing:0" font-size="129.23px" line-height="125%" y="-878.78003" x="2110.79" font-family="Gentium Book Basic">
  <tspan id="tspan58-0" y="-878.78003" x="2110.79"/>
 </text>
 <text id="text60-85" style="text-anchor:middle" font-size="46.954px" transform="scale(4.0128 .24920)" y="-3875.519" x="723.0863" font-family="Arial"/>
 <text id="text62-41" style="word-spacing:0;letter-spacing:0" font-size="208.33px" line-height="125%" y="535.94006" x="277.98999" font-family="Gentium Book Basic">
  <tspan id="tspan64-9" y="535.94006" x="277.98999"/>
 </text>
 <text id="text20-7" font-size="129.23px" style="word-spacing:0;letter-spacing:0" line-height="125%" y="231.35997" x="729.64001" font-family="Gentium Book Basic">
  <tspan id="tspan22-8" y="231.35997" x="729.64001"/>
 </text>
 <text id="text24-91" style="text-anchor:middle" font-size="46.954px" transform="scale(4.0128 .24920)" y="579.25812" x="378.90805" font-family="Arial"/>
 <text id="text26-02" font-size="129.23px" style="word-spacing:0;letter-spacing:0" line-height="125%" y="151.35997" x="1310.91" font-family="Gentium Book Basic">
  <tspan id="tspan28-8" y="151.35997" x="1310.91"/>
 </text>
 <text id="text30-97" style="text-anchor:middle" font-size="46.954px" transform="scale(4.0128 .24920)" y="258.21997" x="523.75732" font-family="Arial"/>
 <text id="text32-9" font-size="129.23px" style="word-spacing:0;letter-spacing:0" line-height="125%" y="-29.900009" x="239.33" font-family="Gentium Book Basic">
  <tspan id="tspan34-21" y="-29.900009" x="239.33"/>
 </text>
 <text id="text36-35" style="text-anchor:middle" font-size="46.954px" transform="scale(4.0128 .24920)" y="-469.1264" x="256.71869" font-family="Arial"/>
 <text id="text38-54" font-size="129.23px" style="word-spacing:0;letter-spacing:0" line-height="125%" y="-246.37001" x="1337.38" font-family="Gentium Book Basic">
  <tspan id="tspan40-98" y="-246.37001" x="1337.38"/>
 </text>
 <text id="text42-97" style="text-anchor:middle" font-size="46.954px" transform="scale(4.0128 .24920)" y="-1337.802" x="530.3573" font-family="Arial"/>
 <text id="text44-8" font-size="129.23px" style="word-spacing:0;letter-spacing:0" line-height="125%" y="-326.37" x="1918.65" font-family="Gentium Book Basic">
  <tspan id="tspan46-47" y="-326.37" x="1918.65"/>
 </text>
 <text id="text48-6" style="text-anchor:middle" font-size="46.954px" transform="scale(4.0128 .24920)" y="-1658.8303" x="675.20654" font-family="Arial"/>
 <text id="text50-14" font-size="129.23px" style="word-spacing:0;letter-spacing:0" line-height="125%" y="-798.77002" x="1529.53" font-family="Gentium Book Basic">
  <tspan id="tspan52-8" y="-798.77002" x="1529.53"/>
 </text>
 <text id="text54-0" style="text-anchor:middle" font-size="46.954px" transform="scale(4.0128 .24920)" y="-3554.4807" x="578.237" font-family="Arial"/>
 <text id="text56-20" font-size="129.23px" style="word-spacing:0;letter-spacing:0" line-height="125%" y="-878.78003" x="2110.79" font-family="Gentium Book Basic">
  <tspan id="tspan58-01" y="-878.78003" x="2110.79"/>
 </text>
 <text id="text60-89" style="text-anchor:middle" font-size="46.954px" transform="scale(4.0128 .24920)" y="-3875.519" x="723.0863" font-family="Arial"/>
 <text id="text62-2" font-size="208.33px" style="word-spacing:0;letter-spacing:0" line-height="125%" y="535.94006" x="277.98999" font-family="Gentium Book Basic">
  <tspan id="tspan64-8" y="535.94006" x="277.98999"/>
 </text>
 <path id="path11" fill-rule="evenodd" fill="#e96d63" d="m471.95 253.05c0 120.9-98.01 218.9-218.9 218.9-120.9 0-218.9-98.01-218.9-218.9 0-120.9 98.01-218.9 218.9-218.9 120.9 0 218.9 98.01 218.9 218.9"/>
 <path id="path16200" opacity=".25" d="m294.16 119.88c-11.26 0.1-22.86 1.4-33.54 0.37h-106.74c-31.78-0.75-39.7 32.83-36.72 58.09 0.58 59.94-1.17 120.02 0.9 179.85 14.73 30.98 46.63 50.44 68.88 76.28 11.83 11.75 23.76 23.6 35.62 35.37 9.97 1.39 20.16 2.1 30.5 2.1 120.89 0 218.88-97.98 218.88-218.88 0-1.08-0.02-2.17-0.03-3.25-22.25-22.04-44.49-44.07-66.75-66.09-30.13-7.43-50.17-26.13-71.97-50.78-10.66-11.36-24.56-13.2-39.03-13.06z"/>
 <path id="path13" fill-rule="evenodd" fill-opacity=".067" d="m256 1c-140.83 0-255 114.17-255 255s114.17 255 255 255 255-114.17 255-255-114.17-255-255-255m8.827 44.931c120.9 0 218.9 98 218.9 218.9s-98 218.9-218.9 218.9-218.93-98-218.93-218.9 98.03-218.9 218.93-218.9"/>
 <path id="path17" fill-rule="evenodd" fill-opacity=".129" d="m256 4.433c-138.94 0-251.57 112.63-251.57 251.57s112.63 251.57 251.57 251.57 251.57-112.63 251.57-251.57-112.63-251.57-251.57-251.57m5.885 38.556c120.9 0 218.9 98 218.9 218.9s-98 218.9-218.9 218.9-218.93-98-218.93-218.9 98.03-218.9 218.93-218.9"/>
 <path id="path19" fill-rule="evenodd" fill-opacity=".129" d="m256 8.356c-136.77 0-247.64 110.87-247.64 247.64s110.87 247.64 247.64 247.64 247.64-110.87 247.64-247.64-110.87-247.64-247.64-247.64m2.942 31.691c120.9 0 218.9 98 218.9 218.9s-98 218.9-218.9 218.9-218.93-98-218.93-218.9 98.03-218.9 218.93-218.9"/>
 <path id="path21" d="m253.04 7.859c-135.42 0-245.19 109.78-245.19 245.19 0 135.42 109.78 245.19 245.19 245.19 135.42 0 245.19-109.78 245.19-245.19 0-135.42-109.78-245.19-245.19-245.19zm0 26.297c120.9 0 218.9 98 218.9 218.9s-98 218.9-218.9 218.9-218.93-98-218.93-218.9 98.03-218.9 218.93-218.9z" stroke-opacity=".31" fill-rule="evenodd" stroke="#000" stroke-width="4.904" fill="#fff"/>
 <text id="text23" style="word-spacing:0;letter-spacing:0" font-size="129.23px" line-height="125%" y="231.36" x="729.64001" font-family="Gentium Book Basic">
  <tspan id="tspan25" y="231.36" x="729.64001"/>
 </text>
 <text id="text27" style="text-anchor:middle" font-size="46.954px" transform="scale(4.0128 .24920)" y="579.24701" x="378.90805" font-family="Arial"/>
 <text id="text29" style="word-spacing:0;letter-spacing:0" font-size="129.23px" line-height="125%" y="151.36" x="1310.91" font-family="Gentium Book Basic">
  <tspan id="tspan31" y="151.36" x="1310.91"/>
 </text>
 <text id="text33" style="text-anchor:middle" font-size="46.954px" transform="scale(4.0128 .24920)" y="258.21869" x="523.75732" font-family="Arial"/>
 <text id="text35" style="word-spacing:0;letter-spacing:0" font-size="129.23px" line-height="125%" y="-29.900999" x="239.33" font-family="Gentium Book Basic">
  <tspan id="tspan37" y="-29.900999" x="239.33"/>
 </text>
 <text id="text39" style="text-anchor:middle" font-size="46.954px" transform="scale(4.0128 .24920)" y="-469.1376" x="256.71869" font-family="Arial"/>
 <text id="text41" style="word-spacing:0;letter-spacing:0" font-size="129.23px" line-height="125%" y="-246.37" x="1337.38" font-family="Gentium Book Basic">
  <tspan id="tspan43" y="-246.37" x="1337.38"/>
 </text>
 <text id="text45" style="text-anchor:middle" font-size="46.954px" transform="scale(4.0128 .24920)" y="-1337.8032" x="530.3573" font-family="Arial"/>
 <text id="text47" style="word-spacing:0;letter-spacing:0" font-size="129.23px" line-height="125%" y="-326.38" x="1918.65" font-family="Gentium Book Basic">
  <tspan id="tspan49" y="-326.38" x="1918.65"/>
 </text>
 <text id="text51" style="text-anchor:middle" font-size="46.954px" transform="scale(4.0128 .24920)" y="-1658.8414" x="675.20654" font-family="Arial"/>
 <text id="text53" style="word-spacing:0;letter-spacing:0" font-size="129.23px" line-height="125%" y="-798.78003" x="1529.53" font-family="Gentium Book Basic">
  <tspan id="tspan55" y="-798.78003" x="1529.53"/>
 </text>
 <text id="text57" style="text-anchor:middle" font-size="46.954px" transform="scale(4.0128 .24920)" y="-3554.4917" x="578.237" font-family="Arial"/>
 <text id="text59" style="word-spacing:0;letter-spacing:0" font-size="129.23px" line-height="125%" y="-878.78003" x="2110.79" font-family="Gentium Book Basic">
  <tspan id="tspan61" y="-878.78003" x="2110.79"/>
 </text>
 <text id="text63" style="text-anchor:middle" font-size="46.954px" transform="scale(4.0128 .24920)" y="-3875.5203" x="723.0863" font-family="Arial"/>
 <text id="text65" style="word-spacing:0;letter-spacing:0" font-size="208.33px" line-height="125%" y="535.94" x="277.98999" font-family="Gentium Book Basic">
  <tspan id="tspan67" y="535.94" x="277.98999"/>
 </text>
 <path id="rect3210" fill="#fff" d="m153.87 120.24c-20.336 0-36.719 16.351-36.719 36.688v193.12c0 20.336 16.382 36.688 36.719 36.688h53.938c-0.091-0.44853-0.1699-0.91016-0.21875-1.375 3.9098-25.221 15.265-48.869 21.438-73.594 37.134-38.206 75.613-75.578 113.06-113.56v-41.281c0-20.336-16.382-36.688-36.719-36.688h-151.5zm2.4688 32.844c10.134 0 18.344 8.2413 18.344 18.375s-8.2101 18.344-18.344 18.344-18.344-8.2101-18.344-18.344 8.2101-18.375 18.344-18.375zm48.906 4.625h102.25c7.6156 0 13.75 6.1344 13.75 13.75s-6.1344 13.719-13.75 13.719h-102.25c-7.6156 0-13.75-6.1032-13.75-13.719 0-7.6156 6.1344-13.75 13.75-13.75zm176.97 15.812c-2.7277 0.14128-5.126 1.0242-6.875 2.7188l-0.0937 0.0937-12.906 12.969-0.28125 0.28125 0.28125 0.28125 55.25 55.25 0.3125 0.25 0.25-0.25 12.781-12.781 0.15625-0.1875c0.0631-0.0631 0.0858-0.10921 0.0937-0.125 3.1081-3.2423 3.4457-8.5207 1.5625-14.406-1.8911-5.9092-6.0157-12.512-11.938-18.438l-12.531-12.562c-8.1878-8.1886-17.616-12.934-24.844-13.094-0.39306-0.009-0.81781-0.0205-1.2188 0zm-26.75 22.656-0.28125 0.28125-13.656 13.688-0.28125 0.28125 0.28125 0.28125 55.25 55.25 0.25 0.28125 0.3125-0.28125 13.656-13.688 0.28125-0.28125-0.28125-0.28125-55.25-55.25-0.28125-0.28125zm-199.12 11.625c10.134 0 18.344 8.2101 18.344 18.344s-8.2101 18.344-18.344 18.344-18.344-8.2101-18.344-18.344 8.2101-18.344 18.344-18.344zm48.906 4.5938h102.25c2.674 0 5.1426 0.78258 7.25 2.0938-8.5048 8.4748-17.022 16.936-25.531 25.406h-83.969c-7.6156 0-13.75-6.1344-13.75-13.75s6.1344-13.75 13.75-13.75zm128.09 5.9062-0.3125 0.25-83.344 83.438-10.312 10.281-2.5938 2.5938-0.0937 0.0625v0.0937l-20.844 65.25-0.0312 0.0312c-0.74901 3.5146 0.38725 7.3948 2.875 9.75l0.0312 0.0312c2.3062 1.7245 5.3765 2.1708 8 1.125h0.0312l66.125-20.906 0.0625-0.0312 0.0625-0.0625 2.1562-2.1875 9.9688-9.9375 83.719-83.688 0.28125-0.3125-0.28125-0.28125-55.25-55.219-0.25-0.28125zm-177 44.188c10.134 0 18.344 8.2101 18.344 18.344s-8.2101 18.344-18.344 18.344-18.344-8.2101-18.344-18.344 8.2101-18.344 18.344-18.344zm48.906 4.5938h56.719c-9.1128 9.1286-18.203 18.307-27.25 27.5h-29.469c-7.6156 0-13.75-6.1344-13.75-13.75s6.1344-13.75 13.75-13.75zm-48.906 50.094c10.134 0 18.344 8.2101 18.344 18.344s-8.2101 18.375-18.344 18.375-18.344-8.2413-18.344-18.375 8.2101-18.344 18.344-18.344zm48.906 4.625h12.781c-2.8649 9.2158-6.3266 18.307-9.4375 27.469h-3.3438c-7.6156 0-13.75-6.1344-13.75-13.75s6.1344-13.719 13.75-13.719zm46.312 2.5h0.0624c0.0781-0.003 0.14061-0.003 0.21875 0 0.009 0 0.0225-0.00079 0.0312 0h0.0312c0.72375 0.009 1.398 0.32757 1.9062 0.84375l4.75 4.7188 17.906-0.9375c0.008-0.00079 0.0233 0 0.0312 0 0.70797-0.0316 1.4352 0.25151 1.9688 0.71875 0.62825 0.55485 0.9817 1.3813 0.9375 2.2188l-0.90625 19.531 3.4688 3.5c0.68824 0.69218 0.97447 1.7139 0.71875 2.6562-0.25573 0.94238-1.0248 1.6873-1.9688 1.9375l-31.156 8.375h-0.0312c-0.93527 0.25651-1.9617-0.01-2.6562-0.6875h-0.0312l-6.0625-6.0625c-0.70876-0.70008-0.9598-1.7286-0.6875-2.6875l9.125-32.062c0.2865-1.086 1.2277-1.937 2.3438-2.0625zm90.531 8.0625c-14.502 14.483-28.993 28.972-43.438 43.469-10.038 4.2468-20.414 7.678-30.875 10.906h37.594c20.336 0 36.719-16.351 36.719-36.688v-17.688z"/>
</svg>
