<?xml version="1.0" encoding="UTF-8" standalone="no"?>
<!-- Created with Inkscape (http://www.inkscape.org/) -->
<svg id="svg2" xmlns:rdf="http://www.w3.org/1999/02/22-rdf-syntax-ns#" xmlns="http://www.w3.org/2000/svg" height="100%" viewBox="0 0 512 512" width="100%" version="1.1" xmlns:cc="http://creativecommons.org/ns#" xmlns:dc="http://purl.org/dc/elements/1.1/">
 <metadata id="metadata74">
  <rdf:RDF>
   <cc:Work rdf:about="">
    <dc:format>image/svg+xml</dc:format>
    <dc:type rdf:resource="http://purl.org/dc/dcmitype/StillImage"/>
   </cc:Work>
  </rdf:RDF>
 </metadata>
 <g id="g4" transform="translate(0,-540.36)">
  <path id="path6" d="m471.95 793.41c0 120.9-98.01 218.9-218.9 218.9-120.9 0-218.9-98.01-218.9-218.9 0-120.9 98.01-218.9 218.9-218.9 120.9 0 218.9 98.01 218.9 218.9" fill-rule="evenodd" fill="#ef6a47"/>
  <path id="path8" d="m202.97 115.22c-5.205 0-9.438 4.204-9.438 9.406 0 2.926 1.345 5.553 3.438 7.281 0.313 0.348 0.639 0.702 1 1 0.313 0.348 0.608 0.702 0.969 1 0.314 0.35 0.637 0.7 1 1 0.314 0.35 0.637 0.669 1 0.969 0.261 0.291 0.518 0.587 0.813 0.844 0.315 0.369 0.664 0.715 1.031 1.031 0.35 0.407 0.742 0.783 1.156 1.125 0.313 0.348 0.639 0.702 1 1 0.313 0.348 0.608 0.702 0.969 1 0.314 0.35 0.637 0.669 1 0.969 0.261 0.291 0.518 0.587 0.813 0.844 0.315 0.369 0.664 0.715 1.031 1.031 0.307 0.356 0.644 0.693 1 1v75.75c-0.03 0.236-0.074 0.48-0.094 0.719l-57.53 150.81c-0.408 1.071-0.625 2.199-0.625 3.344 0 6.16 2.635 11.712 6.813 15.625 0.323 0.345 0.655 0.677 1 1 0.343 0.366 0.695 0.721 1.063 1.063 0.274 0.289 0.554 0.57 0.844 0.844 0.36 0.387 0.738 0.765 1.125 1.125 0.304 0.322 0.614 0.635 0.938 0.938 0.323 0.345 0.655 0.677 1 1 0.323 0.345 0.655 0.677 1 1 0.343 0.366 0.695 0.721 1.063 1.063 0.299 0.316 0.62 0.609 0.938 0.906 0.298 0.318 0.59 0.638 0.906 0.938 0.341 0.368 0.696 0.72 1.063 1.063 0.323 0.345 0.655 0.677 1 1 0.323 0.345 0.655 0.677 1 1 0.343 0.366 0.695 0.721 1.063 1.063 0.299 0.316 0.62 0.609 0.938 0.906 0.298 0.318 0.59 0.638 0.906 0.938 0.341 0.368 0.696 0.72 1.063 1.063 0.323 0.345 0.655 0.677 1 1 0.323 0.345 0.655 0.677 1 1 0.303 0.323 0.616 0.633 0.938 0.938 0.382 0.411 0.775 0.807 1.188 1.188 0.255 0.267 0.513 0.528 0.781 0.781 0.341 0.368 0.696 0.72 1.063 1.063 0.323 0.345 0.655 0.677 1 1 0.323 0.345 0.655 0.677 1 1 0.323 0.345 0.655 0.677 1 1 0.343 0.366 0.695 0.721 1.063 1.063 0.253 0.268 0.514 0.527 0.781 0.781 0.38 0.413 0.777 0.805 1.188 1.188 0.304 0.322 0.614 0.635 0.938 0.938 0.323 0.345 0.655 0.677 1 1 0.323 0.345 0.655 0.677 1 1 0.343 0.366 0.695 0.721 1.063 1.063 0.299 0.316 0.62 0.609 0.938 0.906 0.298 0.318 0.59 0.638 0.906 0.938 0.341 0.368 0.696 0.72 1.063 1.063 0.323 0.345 0.655 0.677 1 1 0.323 0.345 0.655 0.677 1 1 0.343 0.366 0.695 0.721 1.063 1.063 0.299 0.316 0.62 0.609 0.938 0.906 0.298 0.318 0.59 0.638 0.906 0.938 0.341 0.368 0.696 0.72 1.063 1.063 0.323 0.345 0.655 0.677 1 1 0.323 0.345 0.655 0.677 1 1 0.323 0.345 0.655 0.677 1 1 0.343 0.366 0.695 0.721 1.063 1.063 0.274 0.289 0.554 0.57 0.844 0.844 0.36 0.387 0.738 0.765 1.125 1.125 0.304 0.322 0.614 0.635 0.938 0.938 0.323 0.345 0.655 0.677 1 1 0.323 0.345 0.655 0.677 1 1 0.343 0.366 0.695 0.721 1.063 1.063 0.299 0.316 0.62 0.609 0.938 0.906 0.298 0.318 0.59 0.638 0.906 0.938 0.341 0.368 0.696 0.72 1.063 1.063 0.323 0.345 0.655 0.677 1 1 0.323 0.345 0.655 0.677 1 1 0.343 0.366 0.695 0.721 1.063 1.063 0.299 0.316 0.62 0.609 0.938 0.906 0.298 0.318 0.59 0.638 0.906 0.938 0.341 0.368 0.696 0.72 1.063 1.063 0.323 0.345 0.655 0.677 1 1 0.323 0.345 0.655 0.677 1 1 0.303 0.323 0.616 0.633 0.938 0.938 0.382 0.411 0.775 0.807 1.188 1.188 0.255 0.267 0.513 0.528 0.781 0.781 0.341 0.368 0.696 0.72 1.063 1.063 0.323 0.345 0.655 0.677 1 1 0.323 0.345 0.655 0.677 1 1 0.323 0.345 0.655 0.677 1 1 0.343 0.366 0.695 0.721 1.063 1.063 0.253 0.268 0.514 0.527 0.781 0.781 0.38 0.413 0.777 0.805 1.188 1.188 0.304 0.322 0.614 0.635 0.938 0.938 0.323 0.345 0.655 0.677 1 1 0.323 0.345 0.655 0.677 1 1 0.343 0.366 0.695 0.721 1.063 1.063 0.299 0.316 0.62 0.609 0.938 0.906 0.298 0.318 0.59 0.638 0.906 0.938 0.341 0.368 0.696 0.72 1.063 1.063 0.293 0.312 0.596 0.612 0.906 0.906 4.704 0.302 9.438 0.5 14.219 0.5 113.59 0 206.97-86.52 217.84-197.25-0.347-0.401-0.717-0.788-1.125-1.125-0.226-0.252-0.467-0.493-0.719-0.719-0.043-0.053-0.081-0.105-0.125-0.156-0.049-0.042-0.106-0.084-0.156-0.125-0.226-0.252-0.467-0.493-0.719-0.719-0.043-0.053-0.081-0.105-0.125-0.156-0.049-0.042-0.106-0.084-0.156-0.125-0.224-0.249-0.438-0.495-0.688-0.719-0.042-0.051-0.082-0.106-0.125-0.156-0.05-0.043-0.105-0.083-0.156-0.125-0.224-0.249-0.47-0.463-0.719-0.688-0.041-0.05-0.083-0.107-0.125-0.156-0.051-0.044-0.104-0.082-0.156-0.125-0.226-0.252-0.467-0.492-0.719-0.719-0.041-0.05-0.083-0.107-0.125-0.156-0.051-0.044-0.104-0.082-0.156-0.125-0.226-0.252-0.467-0.492-0.719-0.719-0.384-0.465-0.816-0.897-1.281-1.281-0.226-0.252-0.467-0.493-0.719-0.719-0.043-0.053-0.081-0.105-0.125-0.156-0.049-0.042-0.106-0.084-0.156-0.125-0.224-0.249-0.438-0.495-0.688-0.719-0.042-0.051-0.082-0.106-0.125-0.156-0.05-0.043-0.105-0.083-0.156-0.125-0.314-0.35-0.637-0.7-1-1-0.221-0.246-0.473-0.466-0.719-0.688-0.041-0.05-0.083-0.107-0.125-0.156-0.051-0.044-0.104-0.082-0.156-0.125-0.226-0.252-0.467-0.492-0.719-0.719-0.384-0.465-0.816-0.897-1.281-1.281-0.226-0.252-0.467-0.493-0.719-0.719-0.043-0.053-0.081-0.105-0.125-0.156-0.049-0.042-0.106-0.084-0.156-0.125-0.224-0.249-0.438-0.495-0.688-0.719-0.042-0.051-0.082-0.106-0.125-0.156-0.05-0.043-0.105-0.083-0.156-0.125-0.226-0.252-0.467-0.493-0.719-0.719-0.042-0.051-0.082-0.106-0.125-0.156-0.05-0.043-0.105-0.083-0.156-0.125-0.224-0.249-0.47-0.463-0.719-0.688-0.041-0.05-0.083-0.107-0.125-0.156-0.051-0.044-0.104-0.082-0.156-0.125-0.226-0.252-0.467-0.492-0.719-0.719-0.384-0.465-0.816-0.897-1.281-1.281-0.226-0.252-0.467-0.493-0.719-0.719-0.043-0.053-0.081-0.105-0.125-0.156-0.049-0.042-0.106-0.084-0.156-0.125-0.226-0.252-0.467-0.493-0.719-0.719-0.043-0.053-0.081-0.105-0.125-0.156-0.049-0.042-0.106-0.084-0.156-0.125-0.224-0.249-0.438-0.495-0.688-0.719-0.042-0.051-0.082-0.106-0.125-0.156-0.05-0.043-0.105-0.083-0.156-0.125-0.224-0.249-0.47-0.463-0.719-0.688-0.041-0.05-0.083-0.107-0.125-0.156-0.051-0.044-0.104-0.082-0.156-0.125-0.226-0.252-0.467-0.492-0.719-0.719-0.041-0.05-0.083-0.107-0.125-0.156-0.051-0.044-0.104-0.082-0.156-0.125-0.226-0.252-0.467-0.492-0.719-0.719-0.384-0.465-0.816-0.897-1.281-1.281-0.226-0.252-0.467-0.493-0.719-0.719-0.043-0.053-0.081-0.105-0.125-0.156-0.049-0.042-0.106-0.084-0.156-0.125-0.224-0.249-0.438-0.495-0.688-0.719-0.042-0.051-0.082-0.106-0.125-0.156-0.05-0.043-0.105-0.083-0.156-0.125-0.224-0.249-0.47-0.463-0.719-0.688-0.041-0.05-0.083-0.107-0.125-0.156-0.051-0.044-0.104-0.082-0.156-0.125-0.226-0.252-0.467-0.492-0.719-0.719-0.041-0.05-0.083-0.107-0.125-0.156-0.051-0.044-0.104-0.082-0.156-0.125-0.226-0.252-0.467-0.492-0.719-0.719-0.384-0.465-0.816-0.897-1.281-1.281-0.226-0.252-0.467-0.493-0.719-0.719-0.043-0.053-0.081-0.105-0.125-0.156-0.049-0.042-0.106-0.084-0.156-0.125-0.224-0.249-0.438-0.495-0.688-0.719-0.042-0.051-0.082-0.106-0.125-0.156-0.05-0.043-0.105-0.083-0.156-0.125-0.226-0.252-0.467-0.493-0.719-0.719-0.042-0.051-0.082-0.106-0.125-0.156-0.05-0.043-0.105-0.083-0.156-0.125-0.224-0.249-0.47-0.463-0.719-0.688-0.041-0.05-0.083-0.107-0.125-0.156-0.051-0.044-0.104-0.082-0.156-0.125-0.226-0.252-0.467-0.492-0.719-0.719-0.384-0.465-0.816-0.897-1.281-1.281-0.226-0.252-0.467-0.493-0.719-0.719-0.043-0.053-0.081-0.105-0.125-0.156-0.049-0.042-0.106-0.084-0.156-0.125-0.226-0.252-0.467-0.493-0.719-0.719-0.043-0.053-0.081-0.105-0.125-0.156-0.049-0.042-0.106-0.084-0.156-0.125-0.224-0.249-0.438-0.495-0.688-0.719-0.042-0.051-0.082-0.106-0.125-0.156-0.05-0.043-0.105-0.083-0.156-0.125-0.224-0.249-0.47-0.463-0.719-0.688-0.041-0.05-0.083-0.107-0.125-0.156-0.051-0.044-0.104-0.082-0.156-0.125-0.226-0.252-0.467-0.492-0.719-0.719-0.384-0.465-0.816-0.897-1.281-1.281-0.226-0.252-0.467-0.493-0.719-0.719-0.043-0.053-0.081-0.105-0.125-0.156-0.049-0.042-0.106-0.084-0.156-0.125-0.226-0.252-0.467-0.493-0.719-0.719-0.043-0.053-0.081-0.105-0.125-0.156-0.049-0.042-0.106-0.084-0.156-0.125-0.224-0.249-0.438-0.495-0.688-0.719-0.042-0.051-0.082-0.106-0.125-0.156-0.05-0.043-0.105-0.083-0.156-0.125-0.224-0.249-0.47-0.463-0.719-0.688-0.041-0.05-0.083-0.107-0.125-0.156-0.051-0.044-0.104-0.082-0.156-0.125-0.226-0.252-0.467-0.492-0.719-0.719-0.041-0.05-0.083-0.107-0.125-0.156-0.051-0.044-0.104-0.082-0.156-0.125-0.226-0.252-0.467-0.492-0.719-0.719-0.384-0.465-0.816-0.897-1.281-1.281-0.226-0.252-0.467-0.493-0.719-0.719-0.043-0.053-0.081-0.105-0.125-0.156-0.049-0.042-0.106-0.084-0.156-0.125-0.224-0.249-0.438-0.495-0.688-0.719-0.042-0.051-0.082-0.106-0.125-0.156-0.05-0.043-0.105-0.083-0.156-0.125-0.314-0.35-0.637-0.7-1-1-0.221-0.246-0.473-0.466-0.719-0.688-0.041-0.05-0.083-0.107-0.125-0.156-0.051-0.044-0.104-0.082-0.156-0.125-0.226-0.252-0.467-0.492-0.719-0.719-0.384-0.465-0.816-0.897-1.281-1.281-0.226-0.252-0.467-0.493-0.719-0.719-0.043-0.053-0.081-0.105-0.125-0.156-0.049-0.042-0.106-0.084-0.156-0.125-0.224-0.249-0.438-0.495-0.688-0.719-0.042-0.051-0.082-0.106-0.125-0.156-0.05-0.043-0.105-0.083-0.156-0.125-0.226-0.252-0.467-0.493-0.719-0.719-0.042-0.051-0.082-0.106-0.125-0.156-0.05-0.043-0.105-0.083-0.156-0.125-0.224-0.249-0.47-0.463-0.719-0.688-0.041-0.05-0.083-0.107-0.125-0.156-0.051-0.044-0.104-0.082-0.156-0.125-0.226-0.252-0.467-0.492-0.719-0.719-0.384-0.465-0.816-0.897-1.281-1.281-0.226-0.252-0.467-0.493-0.719-0.719-0.043-0.053-0.081-0.105-0.125-0.156-0.049-0.042-0.106-0.084-0.156-0.125-0.226-0.252-0.467-0.493-0.719-0.719-0.043-0.053-0.081-0.105-0.125-0.156-0.049-0.042-0.106-0.084-0.156-0.125-0.224-0.249-0.438-0.495-0.688-0.719-0.042-0.051-0.082-0.106-0.125-0.156-0.05-0.043-0.105-0.083-0.156-0.125-0.224-0.249-0.47-0.463-0.719-0.688-0.041-0.05-0.083-0.107-0.125-0.156-0.051-0.044-0.104-0.082-0.156-0.125-0.226-0.252-0.467-0.492-0.719-0.719-0.041-0.05-0.083-0.107-0.125-0.156-0.051-0.044-0.104-0.082-0.156-0.125-0.226-0.252-0.467-0.492-0.719-0.719-0.384-0.465-0.816-0.897-1.281-1.281-0.226-0.252-0.467-0.493-0.719-0.719-0.043-0.053-0.081-0.105-0.125-0.156-0.049-0.042-0.106-0.084-0.156-0.125-0.224-0.249-0.438-0.495-0.688-0.719-0.042-0.051-0.082-0.106-0.125-0.156-0.05-0.043-0.105-0.083-0.156-0.125-0.224-0.249-0.47-0.463-0.719-0.688-0.041-0.05-0.083-0.107-0.125-0.156-0.051-0.044-0.104-0.082-0.156-0.125-0.226-0.252-0.467-0.492-0.719-0.719-0.041-0.05-0.083-0.107-0.125-0.156-0.051-0.044-0.104-0.082-0.156-0.125-0.226-0.252-0.467-0.492-0.719-0.719-0.384-0.465-0.816-0.897-1.281-1.281-0.226-0.252-0.467-0.493-0.719-0.719-0.043-0.053-0.081-0.105-0.125-0.156-0.049-0.042-0.106-0.084-0.156-0.125-0.224-0.249-0.438-0.495-0.688-0.719-0.042-0.051-0.082-0.106-0.125-0.156-0.05-0.043-0.105-0.083-0.156-0.125-0.226-0.252-0.467-0.493-0.719-0.719-0.042-0.051-0.082-0.106-0.125-0.156-0.05-0.043-0.105-0.083-0.156-0.125-0.224-0.249-0.47-0.463-0.719-0.688-0.041-0.05-0.083-0.107-0.125-0.156-0.051-0.044-0.104-0.082-0.156-0.125-0.226-0.252-0.467-0.492-0.719-0.719-0.384-0.465-0.816-0.897-1.281-1.281-0.226-0.252-0.467-0.493-0.719-0.719-0.043-0.053-0.081-0.105-0.125-0.156-0.049-0.042-0.106-0.084-0.156-0.125-0.226-0.252-0.467-0.493-0.719-0.719-0.043-0.053-0.081-0.105-0.125-0.156-0.049-0.042-0.106-0.084-0.156-0.125-0.224-0.249-0.438-0.495-0.688-0.719-0.042-0.051-0.082-0.106-0.125-0.156-0.05-0.043-0.105-0.083-0.156-0.125-0.224-0.249-0.47-0.463-0.719-0.688-0.041-0.05-0.083-0.107-0.125-0.156-0.051-0.044-0.104-0.082-0.156-0.125-0.226-0.252-0.467-0.492-0.719-0.719-0.384-0.465-0.816-0.897-1.281-1.281-0.226-0.252-0.467-0.493-0.719-0.719-0.043-0.053-0.081-0.105-0.125-0.156-0.049-0.042-0.106-0.084-0.156-0.125-0.226-0.252-0.467-0.493-0.719-0.719-0.043-0.053-0.081-0.105-0.125-0.156-0.049-0.042-0.106-0.084-0.156-0.125-0.224-0.249-0.438-0.495-0.688-0.719-0.042-0.051-0.082-0.106-0.125-0.156-0.05-0.043-0.105-0.083-0.156-0.125-0.224-0.249-0.47-0.463-0.719-0.688-0.041-0.05-0.083-0.107-0.125-0.156-0.051-0.044-0.104-0.082-0.156-0.125-0.226-0.252-0.467-0.492-0.719-0.719-0.041-0.05-0.083-0.107-0.125-0.156-0.051-0.044-0.104-0.082-0.156-0.125-0.226-0.252-0.467-0.492-0.719-0.719-0.384-0.465-0.816-0.897-1.281-1.281-0.226-0.252-0.467-0.493-0.719-0.719-0.043-0.053-0.081-0.105-0.125-0.156-0.049-0.042-0.106-0.084-0.156-0.125-0.224-0.249-0.438-0.495-0.688-0.719-0.042-0.051-0.082-0.106-0.125-0.156-0.05-0.043-0.105-0.083-0.156-0.125-0.314-0.35-0.637-0.7-1-1-0.221-0.246-0.473-0.466-0.719-0.688-0.041-0.05-0.083-0.107-0.125-0.156-0.051-0.044-0.104-0.082-0.156-0.125-0.226-0.252-0.467-0.492-0.719-0.719-0.384-0.465-0.816-0.897-1.281-1.281-0.226-0.252-0.467-0.493-0.719-0.719-0.043-0.053-0.081-0.105-0.125-0.156-0.049-0.042-0.106-0.084-0.156-0.125-0.224-0.249-0.438-0.495-0.688-0.719-0.042-0.051-0.082-0.106-0.125-0.156-0.05-0.043-0.105-0.083-0.156-0.125-0.226-0.252-0.467-0.493-0.719-0.719-0.042-0.051-0.082-0.106-0.125-0.156-0.05-0.043-0.105-0.083-0.156-0.125-0.224-0.249-0.47-0.463-0.719-0.688-0.041-0.05-0.083-0.107-0.125-0.156-0.051-0.044-0.104-0.082-0.156-0.125-0.226-0.252-0.467-0.492-0.719-0.719-0.384-0.465-0.816-0.897-1.281-1.281-0.226-0.252-0.467-0.493-0.719-0.719-0.043-0.053-0.081-0.105-0.125-0.156-0.049-0.042-0.106-0.084-0.156-0.125-0.226-0.252-0.467-0.493-0.719-0.719-0.043-0.053-0.081-0.105-0.125-0.156-0.049-0.042-0.106-0.084-0.156-0.125-0.224-0.249-0.438-0.495-0.688-0.719-0.042-0.051-0.082-0.106-0.125-0.156-0.05-0.043-0.105-0.083-0.156-0.125-0.224-0.249-0.47-0.463-0.719-0.688-0.041-0.05-0.083-0.107-0.125-0.156-0.051-0.044-0.104-0.082-0.156-0.125-0.226-0.252-0.467-0.492-0.719-0.719-0.341-0.414-0.719-0.806-1.125-1.156-0.35-0.407-0.742-0.783-1.156-1.125-0.226-0.252-0.467-0.493-0.719-0.719-0.043-0.053-0.081-0.105-0.125-0.156-0.049-0.042-0.106-0.084-0.156-0.125-0.224-0.249-0.438-0.495-0.688-0.719-0.042-0.051-0.082-0.106-0.125-0.156-0.05-0.043-0.105-0.083-0.156-0.125-0.224-0.249-0.47-0.463-0.719-0.688-0.041-0.05-0.083-0.107-0.125-0.156-0.051-0.044-0.104-0.082-0.156-0.125-0.226-0.252-0.467-0.492-0.719-0.719-0.041-0.05-0.083-0.107-0.125-0.156-0.051-0.044-0.104-0.082-0.156-0.125-0.226-0.252-0.467-0.492-0.719-0.719-0.384-0.465-0.816-0.897-1.281-1.281-0.226-0.252-0.467-0.493-0.719-0.719-0.043-0.053-0.081-0.105-0.125-0.156-0.049-0.042-0.106-0.084-0.156-0.125-0.224-0.249-0.438-0.495-0.688-0.719-0.042-0.051-0.082-0.106-0.125-0.156-0.05-0.043-0.105-0.083-0.156-0.125-0.226-0.252-0.467-0.493-0.719-0.719-0.042-0.051-0.082-0.106-0.125-0.156-0.05-0.043-0.105-0.083-0.156-0.125-0.224-0.249-0.47-0.463-0.719-0.688-0.041-0.05-0.083-0.107-0.125-0.156-0.051-0.044-0.104-0.082-0.156-0.125-0.226-0.252-0.467-0.492-0.719-0.719-0.384-0.465-0.816-0.897-1.281-1.281-0.226-0.252-0.467-0.493-0.719-0.719-0.043-0.053-0.081-0.105-0.125-0.156-0.049-0.042-0.106-0.084-0.156-0.125-0.226-0.252-0.467-0.493-0.719-0.719-0.043-0.053-0.081-0.105-0.125-0.156-0.049-0.042-0.106-0.084-0.156-0.125-0.224-0.249-0.438-0.495-0.688-0.719-0.042-0.051-0.082-0.106-0.125-0.156-0.05-0.043-0.105-0.083-0.156-0.125-0.224-0.249-0.47-0.463-0.719-0.688-0.041-0.05-0.083-0.107-0.125-0.156-0.051-0.044-0.104-0.082-0.156-0.125-0.226-0.252-0.467-0.492-0.719-0.719-0.384-0.465-0.816-0.897-1.281-1.281-0.226-0.252-0.467-0.493-0.719-0.719-0.043-0.053-0.081-0.105-0.125-0.156-0.049-0.042-0.106-0.084-0.156-0.125-0.226-0.252-0.467-0.493-0.719-0.719-0.043-0.053-0.081-0.105-0.125-0.156-0.049-0.042-0.106-0.084-0.156-0.125-0.224-0.249-0.438-0.495-0.688-0.719-0.042-0.051-0.082-0.106-0.125-0.156-0.05-0.043-0.105-0.083-0.156-0.125-0.224-0.249-0.47-0.463-0.719-0.688-0.041-0.05-0.083-0.107-0.125-0.156-0.051-0.044-0.104-0.082-0.156-0.125-0.226-0.252-0.467-0.492-0.719-0.719-0.041-0.05-0.083-0.107-0.125-0.156-0.051-0.044-0.104-0.082-0.156-0.125-0.226-0.252-0.467-0.492-0.719-0.719-0.384-0.465-0.816-0.897-1.281-1.281-0.226-0.252-0.467-0.493-0.719-0.719-0.043-0.053-0.081-0.105-0.125-0.156-0.049-0.042-0.106-0.084-0.156-0.125-0.224-0.249-0.438-0.495-0.688-0.719-0.042-0.051-0.082-0.106-0.125-0.156-0.05-0.043-0.105-0.083-0.156-0.125-0.314-0.35-0.637-0.7-1-1-0.221-0.246-0.473-0.466-0.719-0.688-0.041-0.05-0.083-0.107-0.125-0.156-0.051-0.044-0.104-0.082-0.156-0.125-0.226-0.252-0.467-0.492-0.719-0.719-0.384-0.465-0.816-0.897-1.281-1.281-0.226-0.252-0.467-0.493-0.719-0.719-0.043-0.053-0.081-0.105-0.125-0.156-0.049-0.042-0.106-0.084-0.156-0.125-0.224-0.249-0.438-0.495-0.688-0.719-0.042-0.051-0.082-0.106-0.125-0.156-0.05-0.043-0.105-0.083-0.156-0.125-0.226-0.252-0.467-0.493-0.719-0.719-0.042-0.051-0.082-0.106-0.125-0.156-0.05-0.043-0.105-0.083-0.156-0.125-0.224-0.249-0.47-0.463-0.719-0.688-0.041-0.05-0.083-0.107-0.125-0.156-0.051-0.044-0.104-0.082-0.156-0.125-0.226-0.252-0.467-0.492-0.719-0.719-0.384-0.465-0.816-0.897-1.281-1.281-0.226-0.252-0.467-0.493-0.719-0.719-0.043-0.052-0.081-0.105-0.125-0.156-0.049-0.042-0.106-0.084-0.156-0.125-0.226-0.252-0.467-0.493-0.719-0.719-0.043-0.052-0.081-0.105-0.125-0.156-0.049-0.042-0.106-0.084-0.156-0.125-0.224-0.249-0.438-0.495-0.688-0.719-0.042-0.051-0.082-0.106-0.125-0.156-0.05-0.043-0.105-0.083-0.156-0.125-0.224-0.249-0.47-0.463-0.719-0.688-0.041-0.05-0.083-0.107-0.125-0.156-0.051-0.044-0.104-0.082-0.156-0.125-0.226-0.252-0.467-0.492-0.719-0.719-1.726-2.094-4.353-3.438-7.281-3.438h-16.625c-5.205 0-9.406 4.204-9.406 9.406v49c-0.194-0.191-0.415-0.358-0.625-0.531-0.224-0.249-0.438-0.495-0.688-0.719-0.042-0.051-0.082-0.106-0.125-0.156-0.05-0.043-0.105-0.083-0.156-0.125-0.226-0.252-0.467-0.493-0.719-0.719-0.042-0.051-0.082-0.106-0.125-0.156-0.05-0.043-0.105-0.083-0.156-0.125-0.226-0.252-0.467-0.493-0.719-0.719-0.042-0.051-0.082-0.106-0.125-0.156-0.05-0.043-0.105-0.083-0.156-0.125-0.224-0.249-0.469-0.463-0.719-0.688-0.342-0.414-0.718-0.806-1.125-1.156-0.35-0.407-0.742-0.783-1.156-1.125-0.222-0.246-0.441-0.497-0.688-0.719-0.3-0.363-0.65-0.685-1-1-0.042-0.051-0.082-0.106-0.125-0.156-0.05-0.043-0.105-0.083-0.156-0.125-0.226-0.252-0.467-0.493-0.719-0.719-0.042-0.051-0.082-0.106-0.125-0.156-0.05-0.043-0.105-0.083-0.156-0.125-0.224-0.249-0.469-0.463-0.719-0.688-0.342-0.414-0.718-0.806-1.125-1.156-0.307-0.356-0.644-0.693-1-1-0.35-0.407-0.742-0.783-1.156-1.125-0.224-0.249-0.438-0.495-0.688-0.719-0.042-0.051-0.082-0.106-0.125-0.156-0.05-0.043-0.105-0.083-0.156-0.125-0.226-0.252-0.467-0.493-0.719-0.719-0.042-0.051-0.082-0.106-0.125-0.156-0.05-0.043-0.105-0.083-0.156-0.125-0.224-0.249-0.469-0.463-0.719-0.688-0.041-0.05-0.083-0.107-0.125-0.156-0.052-0.044-0.104-0.082-0.156-0.125-0.226-0.252-0.467-0.492-0.719-0.719-0.342-0.414-0.718-0.806-1.125-1.156-0.35-0.407-0.742-0.783-1.156-1.125-0.224-0.249-0.438-0.495-0.688-0.719-0.042-0.051-0.082-0.106-0.125-0.156-0.05-0.043-0.105-0.083-0.156-0.125-0.226-0.252-0.467-0.493-0.719-0.719-0.042-0.051-0.082-0.106-0.125-0.156-0.05-0.043-0.105-0.083-0.156-0.125-0.226-0.252-0.467-0.493-0.719-0.719-0.042-0.051-0.082-0.106-0.125-0.156-0.05-0.043-0.105-0.083-0.156-0.125-0.224-0.249-0.469-0.463-0.719-0.688-0.342-0.414-0.718-0.806-1.125-1.156-0.35-0.407-0.742-0.783-1.156-1.125-0.222-0.246-0.441-0.497-0.688-0.719-0.3-0.363-0.65-0.685-1-1-0.042-0.051-0.082-0.106-0.125-0.156-0.05-0.043-0.105-0.083-0.156-0.125-0.226-0.252-0.467-0.493-0.719-0.719-0.042-0.051-0.082-0.106-0.125-0.156-0.05-0.043-0.105-0.083-0.156-0.125-0.224-0.249-0.469-0.463-0.719-0.688-0.342-0.414-0.718-0.806-1.125-1.156-0.35-0.407-0.742-0.783-1.156-1.125-0.227-0.252-0.466-0.493-0.719-0.719-0.043-0.053-0.081-0.105-0.125-0.156-0.049-0.042-0.106-0.084-0.156-0.125-0.224-0.249-0.438-0.495-0.688-0.719-0.042-0.051-0.082-0.106-0.125-0.156-0.05-0.043-0.105-0.083-0.156-0.125-0.226-0.252-0.467-0.493-0.719-0.719-0.042-0.051-0.082-0.106-0.125-0.156-0.05-0.043-0.105-0.083-0.156-0.125-0.224-0.249-0.469-0.463-0.719-0.688-0.342-0.414-0.718-0.806-1.125-1.156-0.307-0.356-0.644-0.693-1-1-0.35-0.407-0.742-0.783-1.156-1.125-0.224-0.249-0.438-0.495-0.688-0.719-0.042-0.051-0.082-0.106-0.125-0.156-0.05-0.043-0.105-0.083-0.156-0.125-0.226-0.252-0.467-0.493-0.719-0.719-0.042-0.051-0.082-0.106-0.125-0.156-0.05-0.043-0.105-0.083-0.156-0.125-0.315-0.35-0.637-0.7-1-1-0.222-0.246-0.473-0.466-0.719-0.688-0.342-0.414-0.718-0.806-1.125-1.156-0.35-0.407-0.742-0.783-1.156-1.125-0.224-0.249-0.438-0.495-0.688-0.719-0.042-0.051-0.082-0.106-0.125-0.156-0.05-0.043-0.105-0.083-0.156-0.125-0.226-0.252-0.467-0.493-0.719-0.719-0.042-0.051-0.082-0.106-0.125-0.156-0.05-0.043-0.105-0.083-0.156-0.125-0.226-0.252-0.467-0.493-0.719-0.719-0.042-0.051-0.082-0.106-0.125-0.156-0.05-0.043-0.105-0.083-0.156-0.125-0.224-0.249-0.469-0.463-0.719-0.688-0.342-0.414-0.718-0.806-1.125-1.156-0.35-0.407-0.742-0.783-1.156-1.125-0.222-0.246-0.441-0.497-0.688-0.719-0.3-0.363-0.65-0.686-1-1-0.042-0.051-0.082-0.106-0.125-0.156-0.05-0.043-0.105-0.083-0.156-0.125-0.226-0.252-0.467-0.493-0.719-0.719-0.042-0.051-0.082-0.106-0.125-0.156-0.05-0.043-0.105-0.083-0.156-0.125-0.224-0.249-0.469-0.463-0.719-0.688-0.342-0.414-0.718-0.806-1.125-1.156-1.728-2.01-4.3-3.281-7.156-3.281h-16.188" fill-opacity=".235" transform="translate(0,540.36)"/>
  <g id="g10" fill-rule="evenodd">
   <path id="path12" fill-opacity=".067" d="m256 541.36c-140.83 0-255 114.17-255 255s114.17 255 255 255 255-114.17 255-255-114.17-255-255-255m8.827 44.931c120.9 0 218.9 98 218.9 218.9s-98 218.9-218.9 218.9-218.93-98-218.93-218.9 98.03-218.9 218.93-218.9"/>
   <g id="g14" fill-opacity=".129">
    <path id="path16" d="m256 544.79c-138.94 0-251.57 112.63-251.57 251.57s112.63 251.54 251.57 251.54 251.57-112.6 251.57-251.54-112.63-251.57-251.57-251.57m5.885 38.556c120.9 0 218.9 98 218.9 218.9s-98 218.9-218.9 218.9-218.93-98-218.93-218.9 98.03-218.9 218.93-218.9"/>
    <path id="path18" d="m256 548.72c-136.77 0-247.64 110.87-247.64 247.64s110.87 247.64 247.64 247.64 247.64-110.87 247.64-247.64-110.87-247.64-247.64-247.64m2.942 31.691c120.9 0 218.9 98 218.9 218.9s-98 218.9-218.9 218.9-218.93-98-218.93-218.9 98.03-218.9 218.93-218.9"/>
   </g>
   <path id="path20" d="m253.04 548.22c-135.42 0-245.19 109.78-245.19 245.19 0 135.42 109.78 245.19 245.19 245.19 135.42 0 245.19-109.78 245.19-245.19 0-135.42-109.78-245.19-245.19-245.19zm0 26.297c120.9 0 218.9 98 218.9 218.9s-98 218.9-218.9 218.9-218.93-98-218.93-218.9 98.03-218.9 218.93-218.9z" stroke-opacity=".31" stroke="#000" stroke-width="4.904" fill="#fff"/>
  </g>
  <text id="text22" style="word-spacing:0;letter-spacing:0" font-size="129.23px" line-height="125%" y="771.71997" x="729.64001" font-family="Gentium Book Basic">
   <tspan id="tspan24" y="771.71997" x="729.64001"/>
  </text>
  <text id="text26" style="text-anchor:middle" font-size="46.954px" transform="scale(4.0128 .2492)" y="2747.6399" x="378.91" font-family="Arial"/>
  <text id="text28" style="word-spacing:0;letter-spacing:0" font-size="129.23px" line-height="125%" y="691.71997" x="1310.91" font-family="Gentium Book Basic">
   <tspan id="tspan30" y="691.71997" x="1310.91"/>
  </text>
  <text id="text32" style="text-anchor:middle" font-size="46.954px" transform="scale(4.0128 .2492)" y="2426.6001" x="523.76001" font-family="Arial"/>
  <text id="text34" style="word-spacing:0;letter-spacing:0" font-size="129.23px" line-height="125%" y="510.45999" x="239.33" font-family="Gentium Book Basic">
   <tspan id="tspan36" y="510.45999" x="239.33"/>
  </text>
  <text id="text38" style="text-anchor:middle" font-size="46.954px" transform="scale(4.0128 .2492)" y="1699.25" x="256.72" font-family="Arial"/>
  <text id="text40" style="word-spacing:0;letter-spacing:0" font-size="129.23px" line-height="125%" y="293.98999" x="1337.38" font-family="Gentium Book Basic">
   <tspan id="tspan42" y="293.98999" x="1337.38"/>
  </text>
  <text id="text44" style="text-anchor:middle" font-size="46.954px" transform="scale(4.0128 .2492)" y="830.57001" x="530.35999" font-family="Arial"/>
  <text id="text46" style="word-spacing:0;letter-spacing:0" font-size="129.23px" line-height="125%" y="213.99001" x="1918.65" font-family="Gentium Book Basic">
   <tspan id="tspan48" y="213.99001" x="1918.65"/>
  </text>
  <text id="text50" style="text-anchor:middle" font-size="46.954px" transform="scale(4.0128 .2492)" y="509.54001" x="675.21002" font-family="Arial"/>
  <text id="text52" style="word-spacing:0;letter-spacing:0" font-size="129.23px" line-height="125%" y="-258.41" x="1529.53" font-family="Gentium Book Basic">
   <tspan id="tspan54" y="-258.41" x="1529.53"/>
  </text>
  <text id="text56" style="text-anchor:middle" font-size="46.954px" transform="scale(4.0128 .2492)" y="-1386.12" x="578.23999" font-family="Arial"/>
  <text id="text58" style="word-spacing:0;letter-spacing:0" font-size="129.23px" line-height="125%" y="-338.42001" x="2110.79" font-family="Gentium Book Basic">
   <tspan id="tspan60" y="-338.42001" x="2110.79"/>
  </text>
  <text id="text62" style="text-anchor:middle" font-size="46.954px" transform="scale(4.0128 .2492)" y="-1707.16" x="723.09003" font-family="Arial"/>
  <text id="text64" style="word-spacing:0;letter-spacing:0" font-size="208.33px" line-height="125%" y="1076.3" x="277.98999" font-family="Gentium Book Basic">
   <tspan id="tspan66" y="1076.3" x="277.98999"/>
  </text>
  <path id="path68" fill="#fff" d="m360.5 915.71c0 11.816-9.609 21.428-21.424 21.428h-166.14c-11.826 0-21.431-9.616-21.431-21.428 0-1.146 0.212-2.284 0.62-3.356l57.55-150.81c0.02-0.239 0.054-0.478 0.084-0.714v-86.42h-6.799c-5.205 0-9.417-4.218-9.417-9.42s4.211-9.42 9.417-9.42h16.216c5.205 0 9.424 4.218 9.424 9.42v96.56c0 0.542-0.047 1.078-0.138 1.614 0 1.149-0.276 2.695-0.691 3.763l-34.662 90.84h124.98l-35.811-90.73c-0.387-0.977-0.606-2.01-0.65-3.056l-0.077-0.569c-0.04-0.371-0.061-0.741-0.061-1.112v-97.31c0-5.202 4.211-9.42 9.417-9.42h16.64c5.205 0 9.417 4.218 9.417 9.42s-4.211 9.42-9.417 9.42h-7.227v87.04l59.52 150.8c0.435 1.105 0.66 2.274 0.66 3.46m-122.74-78.93c0-3.895 3.164-7.07 7.06-7.07 3.898 0 7.07 3.167 7.07 7.07 0 3.891-3.17 7.07-7.07 7.07-3.898 0-7.06-3.174-7.06-7.07m4.703 0c0 1.297 1.058 2.352 2.355 2.352s2.355-1.055 2.355-2.352c0-1.301-1.058-2.355-2.355-2.355s-2.355 1.055-2.355 2.355m31.791-7.07c0-3.895 3.17-7.07 7.07-7.07 3.898 0 7.06 3.167 7.06 7.07 0 3.891-3.164 7.07-7.06 7.07-3.898 0-7.07-3.17-7.07-7.07m4.71 0c0 1.297 1.058 2.352 2.355 2.352s2.355-1.055 2.355-2.352c0-1.3-1.058-2.355-2.355-2.355s-2.355 1.058-2.355 2.355m-24.339-23.547c0-5.411 4.403-9.814 9.818-9.814 5.407 0 9.811 4.403 9.811 9.814 0 5.407-4.403 9.814-9.811 9.814-5.418 0-9.818-4.403-9.818-9.814m4.71 0c0 2.813 2.291 5.104 5.108 5.104 2.81 0 5.108-2.291 5.108-5.104 0-2.817-2.298-5.108-5.108-5.108-2.817 0-5.108 2.291-5.108 5.108"/>
 </g>
</svg>
