<?xml version="1.0" encoding="UTF-8" standalone="no"?>
<!-- Created with Inkscape (http://www.inkscape.org/) -->
<svg id="svg2" xmlns:rdf="http://www.w3.org/1999/02/22-rdf-syntax-ns#" xmlns="http://www.w3.org/2000/svg" height="100%" viewBox="0 0 512 512" width="100%" version="1.1" xmlns:cc="http://creativecommons.org/ns#" xmlns:dc="http://purl.org/dc/elements/1.1/">
 <metadata id="metadata72">
  <rdf:RDF>
   <cc:Work rdf:about="">
    <dc:format>image/svg+xml</dc:format>
    <dc:type rdf:resource="http://purl.org/dc/dcmitype/StillImage"/>
   </cc:Work>
  </rdf:RDF>
 </metadata>
 <path id="path4" d="m471.95 253.05c0 120.9-98.01 218.9-218.9 218.9-120.9 0-218.9-98.01-218.9-218.9 0-120.9 98.01-218.9 218.9-218.9 120.9 0 218.9 98.01 218.9 218.9" fill-rule="evenodd" fill="#9a3034"/>
 <path id="path6" fill-opacity=".235" d="m142.97 137.44c-8.05 0-14.438 6.357-14.438 14.344v208.44c0 4.2 1.779 7.925 4.625 10.531 0.314 0.351 0.653 0.682 1 1 0.32 0.358 0.645 0.707 1 1.031 0.341 0.379 0.714 0.722 1.094 1.063 0.294 0.322 0.584 0.644 0.906 0.938 0.356 0.395 0.727 0.772 1.125 1.125 0.266 0.288 0.554 0.547 0.844 0.813 0.314 0.351 0.653 0.682 1 1 0.343 0.383 0.711 0.75 1.094 1.094 0.319 0.35 0.647 0.684 1 1 0.294 0.322 0.584 0.644 0.906 0.938 0.356 0.395 0.727 0.772 1.125 1.125 0.266 0.288 0.554 0.547 0.844 0.813 0.314 0.351 0.653 0.682 1 1 0.343 0.383 0.711 0.75 1.094 1.094 0.292 0.319 0.587 0.646 0.906 0.938 0.341 0.379 0.714 0.722 1.094 1.063 0.314 0.344 0.622 0.688 0.969 1 0.285 0.312 0.595 0.59 0.906 0.875 0.314 0.351 0.653 0.682 1 1 0.314 0.351 0.653 0.682 1 1 0.32 0.358 0.645 0.707 1 1.031 0.341 0.379 0.714 0.722 1.094 1.063 0.314 0.344 0.622 0.688 0.969 1 0.314 0.344 0.653 0.657 1 0.969 0.29 0.318 0.589 0.616 0.906 0.906 0.314 0.351 0.653 0.682 1 1 0.32 0.358 0.645 0.707 1 1.031 0.341 0.379 0.714 0.722 1.094 1.063 0.294 0.322 0.584 0.644 0.906 0.938 0.356 0.395 0.727 0.772 1.125 1.125 0.266 0.288 0.554 0.547 0.844 0.813 0.314 0.351 0.653 0.682 1 1 0.343 0.383 0.711 0.75 1.094 1.094 0.292 0.319 0.587 0.646 0.906 0.938 0.316 0.351 0.651 0.682 1 1 0.356 0.395 0.727 0.772 1.125 1.125 0.266 0.288 0.554 0.547 0.844 0.813 0.314 0.351 0.653 0.682 1 1 0.343 0.383 0.711 0.75 1.094 1.094 0.292 0.319 0.587 0.646 0.906 0.938 0.341 0.379 0.714 0.722 1.094 1.063 0.314 0.344 0.622 0.688 0.969 1 0.314 0.344 0.653 0.657 1 0.969 0.29 0.318 0.589 0.616 0.906 0.906 0.314 0.351 0.653 0.682 1 1 0.32 0.358 0.645 0.707 1 1.031 0.341 0.379 0.714 0.722 1.094 1.063 0.294 0.322 0.584 0.644 0.906 0.938 0.356 0.395 0.727 0.772 1.125 1.125 0.266 0.288 0.554 0.547 0.844 0.813 0.314 0.351 0.653 0.682 1 1 0.343 0.383 0.711 0.75 1.094 1.094 0.319 0.35 0.647 0.684 1 1 0.294 0.322 0.584 0.644 0.906 0.938 0.356 0.395 0.727 0.772 1.125 1.125 0.266 0.288 0.554 0.547 0.844 0.813 0.314 0.351 0.653 0.682 1 1 0.343 0.383 0.711 0.75 1.094 1.094 0.292 0.319 0.587 0.646 0.906 0.938 0.316 0.351 0.651 0.682 1 1 0.356 0.395 0.727 0.772 1.125 1.125 0.266 0.288 0.554 0.547 0.844 0.813 0.314 0.351 0.653 0.682 1 1 0.314 0.351 0.653 0.682 1 1 0.32 0.358 0.645 0.707 1 1.031 0.341 0.379 0.714 0.722 1.094 1.063 0.314 0.344 0.622 0.688 0.969 1 0.314 0.344 0.653 0.657 1 0.969 0.29 0.318 0.589 0.616 0.906 0.906 0.314 0.351 0.653 0.682 1 1 0.32 0.358 0.645 0.707 1 1.031 0.341 0.379 0.714 0.722 1.094 1.063 0.294 0.322 0.584 0.644 0.906 0.938 0.356 0.395 0.727 0.772 1.125 1.125 0.266 0.288 0.554 0.547 0.844 0.813 0.314 0.351 0.653 0.682 1 1 0.343 0.383 0.711 0.75 1.094 1.094 0.292 0.319 0.587 0.646 0.906 0.938 0.316 0.351 0.651 0.682 1 1 0.356 0.395 0.727 0.772 1.125 1.125 0.266 0.288 0.554 0.547 0.844 0.813 0.314 0.351 0.653 0.682 1 1 0.343 0.383 0.711 0.75 1.094 1.094 0.292 0.319 0.587 0.646 0.906 0.938 0.341 0.379 0.714 0.722 1.094 1.063 0.314 0.344 0.622 0.688 0.969 1 0.314 0.344 0.653 0.657 1 0.969 0.29 0.318 0.589 0.616 0.906 0.906 0.314 0.351 0.653 0.682 1 1 0.32 0.358 0.645 0.707 1 1.031 0.341 0.379 0.714 0.722 1.094 1.063 0.294 0.322 0.584 0.644 0.906 0.938 0.356 0.395 0.727 0.772 1.125 1.125 0.266 0.288 0.554 0.547 0.844 0.813 0.314 0.351 0.653 0.682 1 1 0.32 0.358 0.645 0.707 1 1.031 0.341 0.379 0.714 0.722 1.094 1.063 0.294 0.322 0.584 0.644 0.906 0.938 0.356 0.395 0.727 0.772 1.125 1.125 0.266 0.288 0.554 0.547 0.844 0.813 0.255 0.285 0.533 0.55 0.813 0.813 6.447 0.571 12.967 0.906 19.563 0.906 120.9 0 218.91-98.01 218.91-218.91 0-6.601-0.303-13.14-0.875-19.594-0.225-0.243-0.442-0.494-0.688-0.719-0.341-0.379-0.714-0.722-1.094-1.063-0.314-0.344-0.622-0.688-0.969-1-0.314-0.344-0.653-0.657-1-0.969-0.29-0.318-0.589-0.616-0.906-0.906-0.314-0.351-0.653-0.682-1-1-0.32-0.358-0.645-0.707-1-1.031-0.341-0.379-0.714-0.722-1.094-1.063-0.294-0.322-0.584-0.644-0.906-0.938-0.356-0.395-0.727-0.772-1.125-1.125-0.266-0.288-0.554-0.547-0.844-0.813-0.314-0.351-0.653-0.682-1-1-0.343-0.383-0.711-0.75-1.094-1.094-0.292-0.319-0.587-0.646-0.906-0.938-0.316-0.351-0.651-0.682-1-1-0.356-0.395-0.727-0.772-1.125-1.125-0.266-0.288-0.554-0.547-0.844-0.813-0.314-0.351-0.653-0.682-1-1-0.343-0.383-0.711-0.75-1.094-1.094-0.292-0.319-0.587-0.646-0.906-0.938-0.341-0.379-0.714-0.722-1.094-1.063-0.314-0.344-0.622-0.688-0.969-1-0.285-0.312-0.595-0.59-0.906-0.875-0.314-0.351-0.653-0.682-1-1-0.314-0.351-0.653-0.682-1-1-0.32-0.358-0.645-0.707-1-1.031-0.341-0.379-0.714-0.722-1.094-1.063-0.294-0.322-0.584-0.644-0.906-0.938-0.356-0.395-0.727-0.772-1.125-1.125-0.266-0.288-0.554-0.547-0.844-0.813-0.314-0.351-0.653-0.682-1-1-0.32-0.358-0.645-0.707-1-1.031-0.341-0.379-0.714-0.722-1.094-1.063-0.294-0.322-0.584-0.644-0.906-0.938-0.356-0.395-0.727-0.772-1.125-1.125-0.266-0.288-0.554-0.547-0.844-0.813-0.314-0.351-0.653-0.682-1-1-0.343-0.383-0.711-0.75-1.094-1.094-0.292-0.319-0.587-0.646-0.906-0.938-0.316-0.351-0.651-0.682-1-1-0.356-0.395-0.727-0.772-1.125-1.125-0.266-0.288-0.554-0.547-0.844-0.813-0.314-0.351-0.653-0.682-1-1-0.314-0.351-0.653-0.682-1-1-0.32-0.358-0.645-0.707-1-1.031-0.341-0.379-0.714-0.722-1.094-1.063-0.314-0.344-0.622-0.688-0.969-1-0.314-0.344-0.653-0.657-1-0.969-0.29-0.318-0.589-0.616-0.906-0.906-0.314-0.351-0.653-0.682-1-1-0.32-0.358-0.645-0.707-1-1.031-0.341-0.379-0.714-0.722-1.094-1.063-0.294-0.322-0.584-0.644-0.906-0.938-0.356-0.395-0.727-0.772-1.125-1.125-0.266-0.288-0.554-0.547-0.844-0.813-0.314-0.351-0.653-0.682-1-1-0.343-0.383-0.711-0.75-1.094-1.094-0.319-0.35-0.647-0.684-1-1-0.294-0.322-0.584-0.644-0.906-0.938-0.356-0.395-0.727-0.772-1.125-1.125-0.266-0.288-0.554-0.547-0.844-0.813-0.314-0.351-0.653-0.682-1-1-0.343-0.383-0.711-0.75-1.094-1.094-0.292-0.319-0.587-0.646-0.906-0.938-0.341-0.379-0.714-0.722-1.094-1.063-0.314-0.344-0.622-0.688-0.969-1-0.285-0.312-0.595-0.59-0.906-0.875-0.314-0.351-0.653-0.682-1-1-0.314-0.351-0.653-0.682-1-1-0.32-0.358-0.645-0.707-1-1.031-0.341-0.379-0.714-0.722-1.094-1.063-0.294-0.322-0.584-0.644-0.906-0.938-0.356-0.395-0.727-0.772-1.125-1.125-0.266-0.288-0.554-0.547-0.844-0.813-0.314-0.351-0.653-0.682-1-1-0.32-0.358-0.645-0.707-1-1.031-0.341-0.379-0.714-0.722-1.094-1.063-0.294-0.322-0.584-0.644-0.906-0.938-0.356-0.395-0.727-0.772-1.125-1.125-0.266-0.288-0.554-0.547-0.844-0.813-0.314-0.351-0.653-0.682-1-1-0.343-0.383-0.711-0.75-1.094-1.094-0.292-0.319-0.587-0.646-0.906-0.938-0.316-0.351-0.651-0.682-1-1-0.356-0.395-0.727-0.772-1.125-1.125-0.266-0.288-0.554-0.547-0.844-0.813-0.314-0.351-0.653-0.682-1-1-0.314-0.351-0.653-0.682-1-1-0.32-0.358-0.645-0.707-1-1.031-0.341-0.379-0.714-0.722-1.094-1.063-0.314-0.344-0.622-0.688-0.969-1-0.314-0.344-0.653-0.657-1-0.969-2.631-2.889-6.429-4.719-10.719-4.719h-226.06"/>
 <g id="g8" fill-rule="evenodd">
  <path id="path10" fill-opacity=".067" d="m256 1c-140.83 0-255 114.17-255 255s114.17 255 255 255 255-114.17 255-255-114.17-255-255-255m8.827 44.931c120.9 0 218.9 98 218.9 218.9s-98 218.9-218.9 218.9-218.93-98-218.93-218.9 98.03-218.9 218.93-218.9"/>
  <g id="g12" fill-opacity=".129">
   <path id="path14" d="m256 4.433c-138.94 0-251.57 112.63-251.57 251.57s112.63 251.57 251.57 251.57 251.57-112.63 251.57-251.57-112.63-251.57-251.57-251.57m5.885 38.556c120.9 0 218.9 98 218.9 218.9s-98 218.9-218.9 218.9-218.93-98-218.93-218.9 98.03-218.9 218.93-218.9"/>
   <path id="path16" d="m256 8.356c-136.77 0-247.64 110.87-247.64 247.64s110.87 247.64 247.64 247.64 247.64-110.87 247.64-247.64-110.87-247.64-247.64-247.64m2.942 31.691c120.9 0 218.9 98 218.9 218.9s-98 218.9-218.9 218.9-218.93-98-218.93-218.9 98.03-218.9 218.93-218.9"/>
  </g>
  <path id="path18" d="m253.04 7.859c-135.42 0-245.19 109.78-245.19 245.19 0 135.42 109.78 245.19 245.19 245.19 135.42 0 245.19-109.78 245.19-245.19 0-135.42-109.78-245.19-245.19-245.19zm0 26.297c120.9 0 218.9 98 218.9 218.9s-98 218.9-218.9 218.9-218.93-98-218.93-218.9 98.03-218.9 218.93-218.9z" stroke-opacity=".31" stroke="#000" stroke-width="4.904" fill="#fff"/>
 </g>
 <text id="text20" style="word-spacing:0;letter-spacing:0" font-size="129.23px" line-height="125%" y="231.36" x="729.64001" font-family="Gentium Book Basic">
  <tspan id="tspan22" y="231.36" x="729.64001"/>
 </text>
 <text id="text24" style="text-anchor:middle" font-size="46.954px" transform="scale(4.0128 .2492)" y="579.25" x="378.91" font-family="Arial"/>
 <text id="text26" style="word-spacing:0;letter-spacing:0" font-size="129.23px" line-height="125%" y="151.36" x="1310.91" font-family="Gentium Book Basic">
  <tspan id="tspan28" y="151.36" x="1310.91"/>
 </text>
 <text id="text30" style="text-anchor:middle" font-size="46.954px" transform="scale(4.0128 .2492)" y="258.22" x="523.76001" font-family="Arial"/>
 <text id="text32" style="word-spacing:0;letter-spacing:0" font-size="129.23px" line-height="125%" y="-29.900999" x="239.33" font-family="Gentium Book Basic">
  <tspan id="tspan34" y="-29.900999" x="239.33"/>
 </text>
 <text id="text36" style="text-anchor:middle" font-size="46.954px" transform="scale(4.0128 .2492)" y="-469.14001" x="256.72" font-family="Arial"/>
 <text id="text38" style="word-spacing:0;letter-spacing:0" font-size="129.23px" line-height="125%" y="-246.37" x="1337.38" font-family="Gentium Book Basic">
  <tspan id="tspan40" y="-246.37" x="1337.38"/>
 </text>
 <text id="text42" style="text-anchor:middle" font-size="46.954px" transform="scale(4.0128 .2492)" y="-1337.8101" x="530.35999" font-family="Arial"/>
 <text id="text44" style="word-spacing:0;letter-spacing:0" font-size="129.23px" line-height="125%" y="-326.38" x="1918.65" font-family="Gentium Book Basic">
  <tspan id="tspan46" y="-326.38" x="1918.65"/>
 </text>
 <text id="text48" style="text-anchor:middle" font-size="46.954px" transform="scale(4.0128 .2492)" y="-1658.85" x="675.21002" font-family="Arial"/>
 <text id="text50" style="word-spacing:0;letter-spacing:0" font-size="129.23px" line-height="125%" y="-798.78003" x="1529.53" font-family="Gentium Book Basic">
  <tspan id="tspan52" y="-798.78003" x="1529.53"/>
 </text>
 <text id="text54" style="text-anchor:middle" font-size="46.954px" transform="scale(4.0128 .2492)" y="-3554.51" x="578.23999" font-family="Arial"/>
 <text id="text56" style="word-spacing:0;letter-spacing:0" font-size="129.23px" line-height="125%" y="-878.78003" x="2110.79" font-family="Gentium Book Basic">
  <tspan id="tspan58" y="-878.78003" x="2110.79"/>
 </text>
 <text id="text60" style="text-anchor:middle" font-size="46.954px" transform="scale(4.0128 .2492)" y="-3875.54" x="723.09003" font-family="Arial"/>
 <text id="text62" style="word-spacing:0;letter-spacing:0" font-size="208.33px" line-height="125%" y="535.94" x="277.98999" font-family="Gentium Book Basic">
  <tspan id="tspan64" y="535.94" x="277.98999"/>
 </text>
 <path id="path66" fill="#fff" d="m142.96 137.45c-8.05 0-14.441 6.338-14.441 14.325v208.45c0 7.987 6.389 14.325 14.441 14.325h226.07c8.05 0 14.441-6.338 14.441-14.325v-208.45c0-7.987-6.389-14.325-14.441-14.325h-226.07m113.04 15.8c34.644 0 95.61 0.095 103.57 8.645 7.967 7.257 7.948 57.31 7.967 86.2 0.016 29.31 0 79.13-7.967 87.68s-68.963 7.162-103.57 7.162c-34.611 0-95.61 0.094-103.57-7.162-7.967-8.55-7.986-58.37-7.967-87.68 0.02-28.884 0-78.94 7.967-86.2 7.967-8.55 68.93-8.645 103.57-8.645m79.67 197.59c4.4 0 7.967 3.538 7.967 7.904 0 4.365-3.567 7.903-7.967 7.903s-7.967-3.538-7.967-7.903 3.567-7.904 7.967-7.904m23.902 0c4.4 0 7.967 3.538 7.967 7.904 0 4.365-3.567 7.903-7.967 7.903s-7.967-3.538-7.967-7.903 3.567-7.904 7.967-7.904"/>
</svg>
