<?xml version="1.0" encoding="UTF-8" standalone="no"?>
<!-- Created with Inkscape (http://www.inkscape.org/) -->
<svg id="svg2" xmlns:rdf="http://www.w3.org/1999/02/22-rdf-syntax-ns#" xmlns="http://www.w3.org/2000/svg" height="100%" viewBox="0 0 512 512" width="100%" version="1.1" xmlns:cc="http://creativecommons.org/ns#" xmlns:dc="http://purl.org/dc/elements/1.1/">
 <metadata id="metadata80">
  <rdf:RDF>
   <cc:Work rdf:about="">
    <dc:format>image/svg+xml</dc:format>
    <dc:type rdf:resource="http://purl.org/dc/dcmitype/StillImage"/>
   </cc:Work>
  </rdf:RDF>
 </metadata>
 <g id="g4" fill-rule="evenodd">
  <path id="path6" fill="#343030" d="m471.95 253.05c0 120.9-98.01 218.9-218.9 218.9-120.9 0-218.9-98.01-218.9-218.9 0-120.9 98.01-218.9 218.9-218.9 120.9 0 218.9 98.01 218.9 218.9"/>
  <path id="path8" fill-opacity=".235" d="m253.59 139.41c-29.606-0.18-62.985 14.964-69.37 46.44-2.194 12.316 13.241 18.322 19.625 27.406 21.443 14-23.621 19.407-21.938 39.625-9.555 24.11-1.981 52.712 18.469 68.56 9.805 9.789 19.579 19.609 29.406 29.375-39.24-3.738-77.15-17.08-111.53-35.781-5.197 4.361 5.01 9.129 7.625 13.13 47.596 47.704 95.52 95.6 143.16 143.22 92.81-6.704 169.59-71.28 194.44-157.81-18.256-18.15-36.509-36.29-54.59-54.59-36.23-35.666-71.39-72.54-108.34-107.41-12.822-8.788-28.775-11.931-44.09-12.09-0.946-0.038-1.889-0.057-2.844-0.063"/>
  <path id="path10" fill-opacity=".067" d="m256 1c-140.83 0-255 114.17-255 255s114.17 255 255 255 255-114.17 255-255-114.17-255-255-255m8.827 44.931c120.9 0 218.9 98 218.9 218.9s-98 218.9-218.9 218.9-218.93-98-218.93-218.9 98.03-218.9 218.93-218.9"/>
  <g id="g12" fill-opacity=".129">
   <path id="path14" d="m256 4.433c-138.94 0-251.57 112.63-251.57 251.57s112.63 251.57 251.57 251.57 251.57-112.63 251.57-251.57-112.63-251.57-251.57-251.57m5.885 38.556c120.9 0 218.9 98 218.9 218.9s-98 218.9-218.9 218.9-218.93-98-218.93-218.9 98.03-218.9 218.93-218.9"/>
   <path id="path16" d="m256 8.356c-136.77 0-247.64 110.87-247.64 247.64s110.87 247.64 247.64 247.64 247.64-110.87 247.64-247.64-110.87-247.64-247.64-247.64m2.942 31.691c120.9 0 218.9 98 218.9 218.9s-98 218.9-218.9 218.9-218.93-98-218.93-218.9 98.03-218.9 218.93-218.9"/>
  </g>
  <path id="path18" d="m253.04 7.859c-135.42 0-245.19 109.78-245.19 245.19 0 135.42 109.78 245.19 245.19 245.19 135.42 0 245.19-109.78 245.19-245.19 0-135.42-109.78-245.19-245.19-245.19zm0 26.297c120.9 0 218.9 98 218.9 218.9s-98 218.9-218.9 218.9-218.93-98-218.93-218.9 98.03-218.9 218.93-218.9z" stroke-opacity=".31" stroke="#000" stroke-width="4.904" fill="#fff"/>
 </g>
 <text id="text20" style="word-spacing:0;letter-spacing:0" font-size="129.23px" line-height="125%" y="231.36" x="729.64001" font-family="Gentium Book Basic">
  <tspan id="tspan22" y="231.36" x="729.64001"/>
 </text>
 <text id="text24" style="text-anchor:middle" font-size="46.954px" transform="scale(4.0128 .2492)" y="579.25" x="378.91" font-family="Arial"/>
 <text id="text26" style="word-spacing:0;letter-spacing:0" font-size="129.23px" line-height="125%" y="151.36" x="1310.91" font-family="Gentium Book Basic">
  <tspan id="tspan28" y="151.36" x="1310.91"/>
 </text>
 <text id="text30" style="text-anchor:middle" font-size="46.954px" transform="scale(4.0128 .2492)" y="258.22" x="523.76001" font-family="Arial"/>
 <text id="text32" style="word-spacing:0;letter-spacing:0" font-size="129.23px" line-height="125%" y="-29.900999" x="239.33" font-family="Gentium Book Basic">
  <tspan id="tspan34" y="-29.900999" x="239.33"/>
 </text>
 <text id="text36" style="text-anchor:middle" font-size="46.954px" transform="scale(4.0128 .2492)" y="-469.14001" x="256.72" font-family="Arial"/>
 <text id="text38" style="word-spacing:0;letter-spacing:0" font-size="129.23px" line-height="125%" y="-246.37" x="1337.38" font-family="Gentium Book Basic">
  <tspan id="tspan40" y="-246.37" x="1337.38"/>
 </text>
 <text id="text42" style="text-anchor:middle" font-size="46.954px" transform="scale(4.0128 .2492)" y="-1337.8101" x="530.35999" font-family="Arial"/>
 <text id="text44" style="word-spacing:0;letter-spacing:0" font-size="129.23px" line-height="125%" y="-326.38" x="1918.65" font-family="Gentium Book Basic">
  <tspan id="tspan46" y="-326.38" x="1918.65"/>
 </text>
 <text id="text48" style="text-anchor:middle" font-size="46.954px" transform="scale(4.0128 .2492)" y="-1658.85" x="675.21002" font-family="Arial"/>
 <text id="text50" style="word-spacing:0;letter-spacing:0" font-size="129.23px" line-height="125%" y="-798.78003" x="1529.53" font-family="Gentium Book Basic">
  <tspan id="tspan52" y="-798.78003" x="1529.53"/>
 </text>
 <text id="text54" style="text-anchor:middle" font-size="46.954px" transform="scale(4.0128 .2492)" y="-3554.51" x="578.23999" font-family="Arial"/>
 <text id="text56" style="word-spacing:0;letter-spacing:0" font-size="129.23px" line-height="125%" y="-878.78003" x="2110.79" font-family="Gentium Book Basic">
  <tspan id="tspan58" y="-878.78003" x="2110.79"/>
 </text>
 <text id="text60" style="text-anchor:middle" font-size="46.954px" transform="scale(4.0128 .2492)" y="-3875.54" x="723.09003" font-family="Arial"/>
 <text id="text62" style="word-spacing:0;letter-spacing:0" font-size="208.33px" line-height="125%" y="535.94" x="277.98999" font-family="Gentium Book Basic">
  <tspan id="tspan64" y="535.94" x="277.98999"/>
 </text>
 <g id="g66" fill-rule="evenodd">
  <path id="path68" fill="#fff" d="m256.44 139.47c-31.02 0-65.67 11.543-72.969 49.906-0.734 4.084 2.213 6.247 4.875 6.844l31.656 3.406c2.937-0.138 5.106-3.03 5.656-5.969 2.707-13.216 13.814-19.594 26.25-19.594 6.7 0 14.32 2.457 18.313 8.469 4.543 6.7 3.906 15.901 3.906 23.656v4.188c-18.907 2.157-43.63 3.542-61.34 11.344-20.421 8.811-34.781 26.865-34.781 53.34 0 33.912 21.402 50.844 48.844 50.844 23.22 0 35.884-5.455 53.781-23.719 5.966 8.581 7.889 12.756 18.719 21.75 2.432 1.285 5.531 1.146 7.688-0.781l0.125 0.063c6.516-5.782 18.315-16.07 24.969-21.625 2.662-2.203 2.236-5.751 0.125-8.688-5.966-8.26-12.313-14.969-12.313-30.25v-50.813c0-21.522 1.534-41.3-14.344-56.12-12.528-12.02-33.28-16.25-49.16-16.25m17.688 97.09v7.03c0 12.711 0.331 23.336-6.094 34.625-5.186 9.178-13.385 14.844-22.563 14.844-12.528 0-19.813-9.568-19.813-23.656 0-27.809 24.881-32.844 48.47-32.844"/>
  <g id="g70" fill="#ffa319">
   <path id="path72" d="m375.31 309.53c-9.789 0.135-21.353 2.324-30.11 8.484-2.707 1.881-2.234 4.506 0.771 4.139 9.866-1.17 31.836-3.819 35.737 1.183 3.924 5.02-4.353 25.716-8.05 34.94-1.124 2.799 1.281 3.911 3.805 1.8 16.451-13.744 20.678-42.537 17.329-46.69-1.675-2.065-9.699-3.991-19.488-3.857"/>
   <path id="path74" d="m118.69 315.03c-2.4-0.134-3.642 2.598-1.311 4.705 36.505 32.971 84.75 52.809 138.35 52.809 38.23 0 82.62-12.05 113.25-34.631 5.071-3.763 0.738-9.35-4.448-7.147-34.33 14.57-71.66 21.571-105.59 21.571-50.32 0-99.03-13.767-138.42-36.688-0.645-0.379-1.272-0.586-1.825-0.617"/>
  </g>
 </g>
</svg>
