<?xml version="1.0" encoding="UTF-8" standalone="no"?>
<!-- Created with Inkscape (http://www.inkscape.org/) -->
<svg id="svg2" xmlns:rdf="http://www.w3.org/1999/02/22-rdf-syntax-ns#" xmlns="http://www.w3.org/2000/svg" height="100%" viewBox="0 0 512 512" width="100%" version="1.1" xmlns:cc="http://creativecommons.org/ns#" xmlns:dc="http://purl.org/dc/elements/1.1/">
 <metadata id="metadata72">
  <rdf:RDF>
   <cc:Work rdf:about="">
    <dc:format>image/svg+xml</dc:format>
    <dc:type rdf:resource="http://purl.org/dc/dcmitype/StillImage"/>
   </cc:Work>
  </rdf:RDF>
 </metadata>
 <path id="path4" d="m471.95 253.05c0 120.9-98.01 218.9-218.9 218.9-120.9 0-218.9-98.01-218.9-218.9 0-120.9 98.01-218.9 218.9-218.9 120.9 0 218.9 98.01 218.9 218.9" fill-rule="evenodd" fill="#cd0f0f"/>
 <path id="path6" fill-opacity=".235" d="m138.69 138.69 67.66 67.66-67.66 66.781v100.19h1v1h0.969v1h1v1h1v1h1v0.969h1v1h1v1h0.969v1h1v1h1v1h1v1h1v0.969h1v1h1v1h0.969v1h1v1h1v1h1v0.969h1v1h1v1h0.969v1h1v1h1v1h1v0.969h1v1h1v1h0.969v1h1v1h1v1h1v0.969h1v1h1v1h0.969v1h1v1h1v1h1v1h1v0.969h1v1h1v1h0.969v1h1v1h1v1h1v0.969h1v1h1v1h0.969v1h1v1h1v1h1v0.969h1v1h1v1h0.969v1h1v1h1v1h1v1h1v0.969h1v1h1v1h0.969v1h1v1h1v1h1v0.969h1v1h1v1h0.969v1h1v1h1v1h1v0.969h1v1h1v1h0.969v1h1v1h1v1h1v0.969h1v1h1v1h0.969v1h1v1h1v1h1v1h1v0.969h1v1h1v1h0.969v1h1v1h1v1h1v0.969h1v1h1v1h0.969v1h1v1h1v1h1v0.969h1v1h1v1h0.969v1h1v1h1v1h1v0.531c5.234 0.374 10.514 0.594 15.844 0.594 120.9 0 218.91-98.01 218.91-218.91 0-5.338-0.187-10.633-0.563-15.875h-0.531v-1h-1v-1h-1v-1h-1v-0.969h-1v-1h-1v-1h-0.969v-1h-1v-1h-1v-1h-1v-0.969h-1v-1h-1v-1h-0.969v-1h-1v-1h-1v-1h-1v-0.969h-1v-1h-1v-1h-0.969v-1h-1v-1h-1v-1h-1v-1h-1v-0.969h-1v-1h-1v-1h-0.969v-1h-1v-1h-1v-1h-1v-0.969h-1v-1h-1v-1h-0.969v-1h-1v-1h-1v-1h-1v-0.969h-1v-1h-1v-1h-0.969v-1h-1v-1h-1v-1h-1v-0.969h-1v-1h-1v-1h-0.969v-1h-1v-1h-1v-1h-1v-1h-1v-0.969h-1v-1h-1v-1h-0.969v-1h-1v-1h-1v-1h-1v-0.969h-1v-1h-1v-1h-0.969v-1h-1v-1h-1v-1h-1v-0.969h-1v-1h-1v-1h-0.969v-1h-1v-1h-1v-1h-1v-1h-1v-0.969h-1v-1h-1v-1h-0.969v-1h-1v-1h-1v-1h-1v-0.969h-1v-1h-1v-1h-0.969v-1h-1v-1h-1v-1h-1v-0.969h-1v-1h-1v-1h-0.969v-1h-1v-1h-1v-1h-1v-0.969h-1v-1h-1v-1h-0.969v-1h-1v-1h-1v-1h-1v-1h-1v-0.969h-1v-1h-1v-1h-0.969v-1h-1v-1h-1v-1h-1v-0.969h-1v-1h-234.62m68.44 68.44 0.219 0.219-0.219 0.219v-0.438m1 1 0.188 0.188-0.188 0.188v-0.375m0.969 0.969 0.219 0.219-0.219 0.219v-0.438m1 1 0.219 0.219-0.219 0.219v-0.438m1 1 0.219 0.219-0.219 0.219v-0.438m1 1 0.219 0.219-0.219 0.219v-0.438m1 1 0.219 0.219-0.219 0.219v-0.438m1 1 0.188 0.188-0.188 0.188v-0.375m0.969 0.969 0.219 0.219-0.219 0.219v-0.438m1 1 0.219 0.219-0.219 0.219v-0.438m1 1 0.219 0.219-0.219 0.219v-0.438m1 1 0.219 0.219-0.219 0.219v-0.438m1 1 0.219 0.219-0.219 0.219v-0.438m1 1 0.188 0.188-0.188 0.188v-0.375m0.969 0.969 0.219 0.219-0.219 0.219v-0.438m1 1 0.219 0.219-0.219 0.219v-0.438m1 1 0.219 0.219-0.219 0.219v-0.438m1 1 0.219 0.219-0.219 0.219v-0.438m1 1 0.219 0.219-0.219 0.219v-0.438m1 1 0.219 0.219-0.219 0.219v-0.438m1 1 0.188 0.188-0.188 0.188v-0.375m0.969 0.969 0.219 0.219-0.219 0.219v-0.438m1 1 0.219 0.219-0.219 0.219v-0.438m1 1 0.219 0.219-0.219 0.219v-0.438m1 1 0.219 0.219-0.219 0.219v-0.438m1 1 0.219 0.219-0.219 0.219v-0.438m1 1 0.188 0.188-0.188 0.188v-0.375m0.969 0.969 0.219 0.219-0.219 0.219v-0.438m1 1 0.219 0.219-0.219 0.219v-0.438m1 1 0.219 0.219-0.219 0.219v-0.438m1 1 0.219 0.219-0.219 0.219v-0.438m1 1 0.219 0.219-0.219 0.219v-0.438m1 1 0.188 0.188-0.188 0.188v-0.375m0.969 0.969 0.219 0.219-0.219 0.219v-0.438m1 1 0.219 0.219-0.219 0.219v-0.438m1 1 0.219 0.219-0.219 0.219v-0.438m1 1 0.219 0.219-0.219 0.219v-0.438m1 1 0.219 0.219-0.219 0.219v-0.438m1 1 0.188 0.188-0.188 0.188v-0.375m1 1 0.188 0.188-0.188 0.188v-0.375m0.969 0.969 0.219 0.219-0.219 0.219v-0.438m1 1 0.219 0.219-0.219 0.219v-0.438m1 1 0.219 0.219-0.219 0.219v-0.438m1 1 0.219 0.219-0.219 0.219v-0.438m1 1 0.219 0.219-0.219 0.219v-0.438m1 1 0.188 0.188-0.188 0.188v-0.375m0.969 0.969 0.219 0.219-0.219 0.219v-0.438m1 1 0.219 0.219-0.219 0.219v-0.438m1 1 0.219 0.219-0.219 0.219v-0.438m1 1 0.219 0.219-0.219 0.219v-0.438m1 1 0.219 0.219-0.219 0.219v-0.438m1 1 0.188 0.188-0.188 0.188v-0.375m0.969 0.969 0.219 0.219-0.219 0.219v-0.438m1 1 0.219 0.219-0.219 0.219v-0.438m1 1 0.219 0.219-0.219 0.219v-0.438m1 1 0.219 0.219-0.219 0.219v-0.438m1 1 0.219 0.219-0.219 0.219v-0.438m1 1 0.188 0.188-0.188 0.188v-0.375m0.969 0.969 0.219 0.219-0.219 0.219v-0.438m1 1 0.219 0.219-0.219 0.219v-0.438m1 1 0.219 0.219-0.219 0.219v-0.438m1 1 0.219 0.219-0.219 0.219v-0.438m1 1 0.219 0.219-0.219 0.219v-0.438m1 1 0.219 0.219-0.219 0.219v-0.438m1 1 0.188 0.188-0.188 0.188v-0.375m0.969 0.969 0.219 0.219-0.219 0.219v-0.438m1 1 0.219 0.219-0.219 0.219v-0.438m1 1 0.219 0.219-0.219 0.219v-0.438m1 1 0.219 0.219-0.219 0.219v-0.438m1 1 0.219 0.219-0.219 0.219v-0.438m1 1 0.188 0.188-0.188 0.188v-0.375m0.969 0.969 0.219 0.219-0.219 0.219v-0.438m1 1 0.219 0.219-0.219 0.219v-0.438m1 1 0.219 0.219-0.219 0.219v-0.438m1 1 0.219 0.219-0.219 0.219v-0.438m1 1 0.219 0.219-0.219 0.219v-0.438m1 1 0.188 0.188-0.188 0.188v-0.375m0.969 0.969 0.219 0.219-0.219 0.219v-0.438m1 1 0.219 0.219-0.219 0.219v-0.438m1 1 0.219 0.219-0.219 0.219v-0.438m1 1 0.219 0.219-0.219 0.219v-0.438m1 1 0.219 0.219-0.219 0.219v-0.438m1 1 0.188 0.188-0.188 0.188v-0.375m1 1 0.188 0.188-0.188 0.188v-0.375m0.969 0.969 0.219 0.219-0.219 0.219v-0.438m1 1 0.219 0.219-0.219 0.219v-0.438m1 1 0.219 0.219-0.219 0.219v-0.438m1 1 0.219 0.219-0.219 0.219v-0.438m1 1 0.219 0.219-0.219 0.219v-0.438m1 1 0.188 0.188-0.188 0.188v-0.375m0.969 0.969 0.219 0.219-0.219 0.219v-0.438m1 1 0.219 0.219-0.219 0.219v-0.438m1 1 0.219 0.219-0.219 0.219v-0.438m1 1 0.219 0.219-0.219 0.219v-0.438m1 1 0.219 0.219-0.219 0.219v-0.438m1 1 0.188 0.188-0.188 0.188v-0.375m0.969 0.969 0.219 0.219-0.219 0.219v-0.438m1 1 0.219 0.219-0.219 0.219v-0.438m1 1 0.219 0.219h-0.219v-0.219"/>
 <g id="g8" fill-rule="evenodd">
  <path id="path10" fill-opacity=".067" d="m256 1c-140.83 0-255 114.17-255 255s114.17 255 255 255 255-114.17 255-255-114.17-255-255-255m8.827 44.931c120.9 0 218.9 98 218.9 218.9s-98 218.9-218.9 218.9-218.93-98-218.93-218.9 98.03-218.9 218.93-218.9"/>
  <g id="g12" fill-opacity=".129">
   <path id="path14" d="m256 4.433c-138.94 0-251.57 112.63-251.57 251.57s112.63 251.57 251.57 251.57 251.57-112.63 251.57-251.57-112.63-251.57-251.57-251.57m5.885 38.556c120.9 0 218.9 98 218.9 218.9s-98 218.9-218.9 218.9-218.93-98-218.93-218.9 98.03-218.9 218.93-218.9"/>
   <path id="path16" d="m256 8.356c-136.77 0-247.64 110.87-247.64 247.64s110.87 247.64 247.64 247.64 247.64-110.87 247.64-247.64-110.87-247.64-247.64-247.64m2.942 31.691c120.9 0 218.9 98 218.9 218.9s-98 218.9-218.9 218.9-218.93-98-218.93-218.9 98.03-218.9 218.93-218.9"/>
  </g>
  <path id="path18" d="m253.04 7.859c-135.42 0-245.19 109.78-245.19 245.19 0 135.42 109.78 245.19 245.19 245.19 135.42 0 245.19-109.78 245.19-245.19 0-135.42-109.78-245.19-245.19-245.19zm0 26.297c120.9 0 218.9 98 218.9 218.9s-98 218.9-218.9 218.9-218.93-98-218.93-218.9 98.03-218.9 218.93-218.9z" stroke-opacity=".31" stroke="#000" stroke-width="4.904" fill="#fff"/>
 </g>
 <text id="text20" style="word-spacing:0;letter-spacing:0" font-size="129.23px" line-height="125%" y="231.36" x="729.64001" font-family="Gentium Book Basic">
  <tspan id="tspan22" y="231.36" x="729.64001"/>
 </text>
 <text id="text24" style="text-anchor:middle" font-size="46.954px" transform="scale(4.0128 .2492)" y="579.25" x="378.91" font-family="Arial"/>
 <text id="text26" style="word-spacing:0;letter-spacing:0" font-size="129.23px" line-height="125%" y="151.36" x="1310.91" font-family="Gentium Book Basic">
  <tspan id="tspan28" y="151.36" x="1310.91"/>
 </text>
 <text id="text30" style="text-anchor:middle" font-size="46.954px" transform="scale(4.0128 .2492)" y="258.22" x="523.76001" font-family="Arial"/>
 <text id="text32" style="word-spacing:0;letter-spacing:0" font-size="129.23px" line-height="125%" y="-29.900999" x="239.33" font-family="Gentium Book Basic">
  <tspan id="tspan34" y="-29.900999" x="239.33"/>
 </text>
 <text id="text36" style="text-anchor:middle" font-size="46.954px" transform="scale(4.0128 .2492)" y="-469.14001" x="256.72" font-family="Arial"/>
 <text id="text38" style="word-spacing:0;letter-spacing:0" font-size="129.23px" line-height="125%" y="-246.37" x="1337.38" font-family="Gentium Book Basic">
  <tspan id="tspan40" y="-246.37" x="1337.38"/>
 </text>
 <text id="text42" style="text-anchor:middle" font-size="46.954px" transform="scale(4.0128 .2492)" y="-1337.8101" x="530.35999" font-family="Arial"/>
 <text id="text44" style="word-spacing:0;letter-spacing:0" font-size="129.23px" line-height="125%" y="-326.38" x="1918.65" font-family="Gentium Book Basic">
  <tspan id="tspan46" y="-326.38" x="1918.65"/>
 </text>
 <text id="text48" style="text-anchor:middle" font-size="46.954px" transform="scale(4.0128 .2492)" y="-1658.85" x="675.21002" font-family="Arial"/>
 <text id="text50" style="word-spacing:0;letter-spacing:0" font-size="129.23px" line-height="125%" y="-798.78003" x="1529.53" font-family="Gentium Book Basic">
  <tspan id="tspan52" y="-798.78003" x="1529.53"/>
 </text>
 <text id="text54" style="text-anchor:middle" font-size="46.954px" transform="scale(4.0128 .2492)" y="-3554.51" x="578.23999" font-family="Arial"/>
 <text id="text56" style="word-spacing:0;letter-spacing:0" font-size="129.23px" line-height="125%" y="-878.78003" x="2110.79" font-family="Gentium Book Basic">
  <tspan id="tspan58" y="-878.78003" x="2110.79"/>
 </text>
 <text id="text60" style="text-anchor:middle" font-size="46.954px" transform="scale(4.0128 .2492)" y="-3875.54" x="723.09003" font-family="Arial"/>
 <text id="text62" style="word-spacing:0;letter-spacing:0" font-size="208.33px" line-height="125%" y="535.94" x="277.98999" font-family="Gentium Book Basic">
  <tspan id="tspan64" y="535.94" x="277.98999"/>
 </text>
 <path id="path66" fill="#fff" d="m138.68 138.68 67.65 67.65-67.65 66.799v100.19h98.94l67.53-68.17 68.17 67.51v-233.98h-234.64m68.44 68.44h97.77v97.72l-97.77 0.049v-97.77"/>
</svg>
