<?xml version="1.0" encoding="UTF-8" standalone="no"?>
<!-- Created with Inkscape (http://www.inkscape.org/) -->
<svg id="svg2" xmlns:rdf="http://www.w3.org/1999/02/22-rdf-syntax-ns#" xmlns="http://www.w3.org/2000/svg" height="100%" viewBox="0 0 512 512" width="100%" version="1.1" xmlns:cc="http://creativecommons.org/ns#" xmlns:dc="http://purl.org/dc/elements/1.1/">
 <metadata id="metadata80">
  <rdf:RDF>
   <cc:Work rdf:about="">
    <dc:format>image/svg+xml</dc:format>
    <dc:type rdf:resource="http://purl.org/dc/dcmitype/StillImage"/>
   </cc:Work>
  </rdf:RDF>
 </metadata>
 <path id="path4" d="m479.56 256a223.57 223.57 0 0 1 -447.13 0 223.57 223.57 0 1 1 447.13 0" fill-rule="evenodd" fill="#ecc651"/>
 <path id="path6" fill-opacity=".235" d="m209.69 131.33c9.08 10.263 15.16 28.448 15.16 49.32 0 32.33-14.543 58.2-32.33 58.2-5.997 0-10.203-2.029-14.359-6.729v0.798c38.37 38.38 75.02 75.01 112.17 112.17-38.784 4.967-87.24 0.425-155.53-14.949l147.48 147.48c100.17-22.523 181.39-91.48 201.18-192.38l-153.91-153.91c9.08 10.263 15.16 28.448 15.16 49.32 0 29.676-12.262 53.9-28.03 57.681z"/>
 <g id="g8" transform="translate(0,-540.36)" fill-rule="evenodd">
  <path id="path10" fill-opacity=".067" d="m256 541.36c-140.83 0-255 114.17-255 255s114.17 255 255 255 255-114.17 255-255-114.17-255-255-255m8.827 44.931c120.9 0 218.9 98 218.9 218.9s-98 218.9-218.9 218.9-218.93-98-218.93-218.9 98.03-218.9 218.93-218.9"/>
  <g id="g12" fill-opacity=".129">
   <path id="path14" d="m256 544.79c-138.94 0-251.57 112.63-251.57 251.57s112.63 251.54 251.57 251.54 251.57-112.6 251.57-251.54-112.63-251.57-251.57-251.57m5.885 38.556c120.9 0 218.9 98 218.9 218.9s-98 218.9-218.9 218.9-218.93-98-218.93-218.9 98.03-218.9 218.93-218.9"/>
   <path id="path16" d="m256 548.72c-136.77 0-247.64 110.87-247.64 247.64s110.87 247.64 247.64 247.64 247.64-110.87 247.64-247.64-110.87-247.64-247.64-247.64m2.942 31.691c120.9 0 218.9 98 218.9 218.9s-98 218.9-218.9 218.9-218.93-98-218.93-218.9 98.03-218.9 218.93-218.9"/>
  </g>
  <path id="path18" d="m253.04 548.22c-135.42 0-245.19 109.78-245.19 245.19 0 135.42 109.78 245.19 245.19 245.19 135.42 0 245.19-109.78 245.19-245.19 0-135.42-109.78-245.19-245.19-245.19zm0 26.297c120.9 0 218.9 98 218.9 218.9s-98 218.9-218.9 218.9-218.93-98-218.93-218.9 98.03-218.9 218.93-218.9z" stroke-opacity=".31" stroke="#000" stroke-width="4.904" fill="#fff"/>
 </g>
 <text id="text20" style="word-spacing:0;letter-spacing:0" font-size="129.23px" line-height="125%" y="231.36" x="729.64001" font-family="Gentium Book Basic">
  <tspan id="tspan22" y="231.36" x="729.64001"/>
 </text>
 <text id="text24" style="text-anchor:middle" font-size="46.954px" transform="scale(4.0128 .2492)" y="579.26001" x="378.91" font-family="Arial"/>
 <text id="text26" style="word-spacing:0;letter-spacing:0" font-size="129.23px" line-height="125%" y="151.36" x="1310.91" font-family="Gentium Book Basic">
  <tspan id="tspan28" y="151.36" x="1310.91"/>
 </text>
 <text id="text30" style="text-anchor:middle" font-size="46.954px" transform="scale(4.0128 .2492)" y="258.22" x="523.76001" font-family="Arial"/>
 <text id="text32" style="word-spacing:0;letter-spacing:0" font-size="129.23px" line-height="125%" y="-29.9" x="239.33" font-family="Gentium Book Basic">
  <tspan id="tspan34" y="-29.9" x="239.33"/>
 </text>
 <text id="text36" style="text-anchor:middle" font-size="46.954px" transform="scale(4.0128 .2492)" y="-469.13" x="256.72" font-family="Arial"/>
 <text id="text38" style="word-spacing:0;letter-spacing:0" font-size="129.23px" line-height="125%" y="-246.37" x="1337.38" font-family="Gentium Book Basic">
  <tspan id="tspan40" y="-246.37" x="1337.38"/>
 </text>
 <text id="text42" style="text-anchor:middle" font-size="46.954px" transform="scale(4.0128 .2492)" y="-1337.8" x="530.35999" font-family="Arial"/>
 <text id="text44" style="word-spacing:0;letter-spacing:0" font-size="129.23px" line-height="125%" y="-326.37" x="1918.65" font-family="Gentium Book Basic">
  <tspan id="tspan46" y="-326.37" x="1918.65"/>
 </text>
 <text id="text48" style="text-anchor:middle" font-size="46.954px" transform="scale(4.0128 .2492)" y="-1658.83" x="675.21002" font-family="Arial"/>
 <text id="text50" style="word-spacing:0;letter-spacing:0" font-size="129.23px" line-height="125%" y="-798.77002" x="1529.53" font-family="Gentium Book Basic">
  <tspan id="tspan52" y="-798.77002" x="1529.53"/>
 </text>
 <text id="text54" style="text-anchor:middle" font-size="46.954px" transform="scale(4.0128 .2492)" y="-3554.48" x="578.23999" font-family="Arial"/>
 <text id="text56" style="word-spacing:0;letter-spacing:0" font-size="129.23px" line-height="125%" y="-878.78003" x="2110.79" font-family="Gentium Book Basic">
  <tspan id="tspan58" y="-878.78003" x="2110.79"/>
 </text>
 <text id="text60" style="text-anchor:middle" font-size="46.954px" transform="scale(4.0128 .2492)" y="-3875.52" x="723.09003" font-family="Arial"/>
 <text id="text62" style="word-spacing:0;letter-spacing:0" font-size="208.33px" line-height="125%" y="535.94" x="277.98999" font-family="Gentium Book Basic">
  <tspan id="tspan64" y="535.94" x="277.98999"/>
 </text>
 <g id="g66" transform="matrix(.82629 0 0 .82629 -820.17 -786.59)" fill="#fff">
  <path id="path68" d="m1507.3 1280.8c-47.22 81.78-102.43 140.71-200.71 140.71-95.48 0-165.36-67.93-208.99-143.48 93.6 54.04 202.8 50.54 204.84 50.54 14.898 0 128.04-3.423 204.85-47.771"/>
  <g id="g70" transform="matrix(15.652 0 0 15.652 929.21 942.43)">
   <path id="path72" d="m21.398 14.696c0 2.5-1.125 4.5-2.5 4.5s-2.5-2-2.5-4.5 1.125-4.5 2.5-4.5 2.5 2 2.5 4.5"/>
   <path id="path74" d="m30.689 14.696c0 2.5-1.125 4.5-2.5 4.5s-2.5-2-2.5-4.5 1.125-4.5 2.5-4.5 2.5 2 2.5 4.5"/>
  </g>
 </g>
</svg>
