<?xml version="1.0" encoding="UTF-8" standalone="no"?>
<svg xmlns="http://www.w3.org/2000/svg" viewBox="0 0 512 512">
 <defs>
  <linearGradient id="0" y2="325.15" gradientUnits="userSpaceOnUse" x2="550.18" y1="179.42" x1="-13.425">
   <stop stop-color="#7daf16" offset="0"/>
   <stop stop-color="#b3e945" offset=".5"/>
   <stop stop-color="#78a41d" offset="1"/>
  </linearGradient>
 </defs>
 <path fill-rule="evenodd" d="m471.95 253.05c0 120.9-98.01 218.91-218.91 218.91s-218.91-98.01-218.91-218.91 98.01-218.91 218.91-218.91 218.91 98.01 218.91 218.91" fill="url(#0)"/>
 <path opacity=".25" d="m174.69 153.88c-0.35 0.004-0.712 0.071-1.063 0.188-1.855 0.627-2.844 2.638-2.219 4.5l5.125 15.16 2.281 6.75 2.313 6.844c-32.81 5.766-59.42 26.2-67.31 55.656l20.15 20.15-22.367-5.992-1.469-0.406-4.459 16.65-20.363-20.363c-2.56-2.56-5.806-4.502-9.553-5.506-2.135-0.572-4.277-0.802-6.375-0.719-9.09 0.36-17.3 6.551-19.781 15.813l-10.219 38.16c3.539 15.926 8.803 31.19 15.594 45.604 0.097 0.206 0.191 0.414 0.289 0.619 0.481 1.012 0.975 2.01 1.471 3.02 0.219 0.442 0.437 0.884 0.658 1.324 0.461 0.917 0.929 1.829 1.402 2.738 0.288 0.552 0.579 1.101 0.871 1.65 0.442 0.832 0.885 1.665 1.338 2.49 0.357 0.652 0.724 1.298 1.088 1.945 0.414 0.736 0.822 1.476 1.244 2.207 0.003 0.006 0.006 0.012 0.01 0.018 0.73 1.263 1.473 2.518 2.227 3.766l12.01 12.01-1.143 4.264c0.003 0.004 0.005 0.008 0.008 0.012 0.816 1.112 1.644 2.216 2.48 3.313 0.025 0.033 0.051 0.066 0.076 0.1 3.292 4.309 6.743 8.492 10.34 12.541 0.161 0.181 0.321 0.362 0.482 0.543 0.794 0.888 1.594 1.77 2.402 2.645 0.204 0.221 0.409 0.44 0.613 0.66 0.827 0.888 1.658 1.772 2.5 2.646 0.969 1.01 1.949 2 2.938 2.992l0.639 0.639c39.561 39.23 94.01 63.46 154.12 63.46 99.21 0 182.98-66 209.86-156.48l-90.26-90.26c-2.556-2.556-5.797-4.495-9.541-5.498-2.136-0.572-4.308-0.802-6.406-0.719-6.839 0.27-13.157 3.84-16.926 9.533l-41.07-41.07c-1.328-1.328-3.451-1.432-4.875-0.178l-12.875 11.313-5.406 4.781-5.5 4.813c-11.13-8.141-24.25-14.55-38.875-18.469-7.681-2.058-15.345-3.305-22.881-3.816l-30.982-30.982c-0.439-0.439-0.984-0.757-1.574-0.92-0.331-0.091-0.682-0.129-1.031-0.125"/>
 <path d="m174.69 153.88c-0.35 0.004-0.712 0.071-1.063 0.188-1.855 0.627-2.844 2.638-2.219 4.5l5.125 15.16 2.281 6.75 2.313 6.844c-32.81 5.766-59.42 26.2-67.31 55.656l192.38 51.563c7.89-29.447-4.938-60.48-30.469-81.87l5.438-4.75 5.344-4.719 12.03-10.563c1.473-1.3 1.596-3.524 0.313-5-1.312-1.484-3.55-1.649-5.03-0.344l-12.875 11.313-5.406 4.781-5.5 4.813c-11.13-8.141-24.25-14.55-38.875-18.469-14.61-3.915-29.17-4.923-42.875-3.438l-2.344-6.906-2.281-6.844-5.5-16.219c-0.391-1.164-1.334-2.01-2.438-2.313-0.331-0.091-0.682-0.129-1.031-0.125m3.781 55.38c1.051-0.041 2.118 0.057 3.188 0.344 5.692 1.525 9.06 7.401 7.531 13.09-1.525 5.692-7.339 9.06-13.03 7.531-5.707-1.529-9.119-7.37-7.594-13.06 1.239-4.625 5.351-7.727 9.906-7.906m178.22 9.75c-9.09 0.359-17.268 6.551-19.75 15.813l-23.625 88.19c-3.049 11.378 3.702 23.07 15.09 26.13 11.378 3.049 23.08-3.716 26.13-15.09l23.625-88.19c3.052-11.392-3.685-23.08-15.06-26.12-2.136-0.572-4.308-0.802-6.406-0.719m-95.78 12.344c1.049-0.042 2.151 0.058 3.219 0.344 5.706 1.529 9.06 7.401 7.531 13.09-1.525 5.692-7.356 9.06-13.06 7.531-5.692-1.525-9.09-7.37-7.563-13.06 1.239-4.625 5.329-7.725 9.875-7.906m-191.53 15.438c-9.09 0.36-17.3 6.551-19.781 15.813l-10.219 38.16c5.207 23.429 14.14 45.44 26.19 65.38 0.693-1.34 1.25-2.766 1.656-4.281l23.625-88.19c3.052-11.392-3.709-23.11-15.09-26.16-2.135-0.572-4.277-0.802-6.375-0.719m40.75 9.938l-4.594 17.16-3.75 13.969-25.344 94.56c39.837 54.3 104.09 89.56 176.59 89.56h0.281c4.115-2.931 7.281-7.249 8.688-12.5l32.19-120.06 3.719-13.969 4.594-17.16-1.469-0.406-189.44-50.75-1.469-0.406" fill="#fff"/>
 <g fill-rule="evenodd">
  <path d="m256 1c-140.83 0-255 114.17-255 255s114.17 255 255 255 255-114.17 255-255-114.17-255-255-255m8.827 44.931c120.9 0 218.9 98 218.9 218.9s-98 218.9-218.9 218.9-218.93-98-218.93-218.9 98.03-218.9 218.93-218.9" fill-opacity=".067"/>
  <g fill-opacity=".129">
   <path d="m256 4.43c-138.94 0-251.57 112.63-251.57 251.57s112.63 251.57 251.57 251.57 251.57-112.63 251.57-251.57-112.63-251.57-251.57-251.57m5.885 38.556c120.9 0 218.9 98 218.9 218.9s-98 218.9-218.9 218.9-218.93-98-218.93-218.9 98.03-218.9 218.93-218.9"/>
   <path d="m256 8.36c-136.77 0-247.64 110.87-247.64 247.64s110.87 247.64 247.64 247.64 247.64-110.87 247.64-247.64-110.87-247.64-247.64-247.64m2.942 31.691c120.9 0 218.9 98 218.9 218.9s-98 218.9-218.9 218.9-218.93-98-218.93-218.9 98.03-218.9 218.93-218.9"/>
  </g>
  <path stroke="#000" stroke-width="4.904" d="m253.04 7.86c-135.42 0-245.19 109.78-245.19 245.19 0 135.42 109.78 245.19 245.19 245.19 135.42 0 245.19-109.78 245.19-245.19 0-135.42-109.78-245.19-245.19-245.19zm0 26.297c120.9 0 218.9 98 218.9 218.9s-98 218.9-218.9 218.9-218.93-98-218.93-218.9 98.03-218.9 218.93-218.9z" stroke-opacity=".31" fill="#fff"/>
 </g>
 <text style="word-spacing:0;letter-spacing:0" font-size="129.23" y="231.36" x="729.64" font-family="Gentium Book Basic" line-height="125%">
  <tspan y="231.36" x="729.64"/>
 </text>
 <text style="text-anchor:middle" transform="scale(4.0128.2492)" font-size="46.954" y="579.26" x="378.91" font-family="Arial"/>
 <text style="word-spacing:0;letter-spacing:0" font-size="129.23" y="151.36" x="1310.91" font-family="Gentium Book Basic" line-height="125%">
  <tspan y="151.36" x="1310.91"/>
 </text>
 <text style="text-anchor:middle" transform="scale(4.0128.2492)" font-size="46.954" y="258.22" x="523.76" font-family="Arial"/>
 <text style="word-spacing:0;letter-spacing:0" font-size="129.23" y="-29.9" x="239.33" font-family="Gentium Book Basic" line-height="125%">
  <tspan y="-29.9" x="239.33"/>
 </text>
 <text style="text-anchor:middle" transform="scale(4.0128.2492)" font-size="46.954" y="-469.13" x="256.72" font-family="Arial"/>
 <text style="word-spacing:0;letter-spacing:0" font-size="129.23" y="-246.37" x="1337.38" font-family="Gentium Book Basic" line-height="125%">
  <tspan y="-246.37" x="1337.38"/>
 </text>
 <text style="text-anchor:middle" transform="scale(4.0128.2492)" font-size="46.954" y="-1337.8" x="530.36" font-family="Arial"/>
 <text style="word-spacing:0;letter-spacing:0" font-size="129.23" y="-326.37" x="1918.65" font-family="Gentium Book Basic" line-height="125%">
  <tspan y="-326.37" x="1918.65"/>
 </text>
 <text style="text-anchor:middle" transform="scale(4.0128.2492)" font-size="46.954" y="-1658.83" x="675.21" font-family="Arial"/>
 <text style="word-spacing:0;letter-spacing:0" font-size="129.23" y="-798.77" x="1529.53" font-family="Gentium Book Basic" line-height="125%">
  <tspan y="-798.77" x="1529.53"/>
 </text>
 <text style="text-anchor:middle" transform="scale(4.0128.2492)" font-size="46.954" y="-3554.48" x="578.24" font-family="Arial"/>
 <text style="word-spacing:0;letter-spacing:0" font-size="129.23" y="-878.78" x="2110.79" font-family="Gentium Book Basic" line-height="125%">
  <tspan y="-878.78" x="2110.79"/>
 </text>
 <text style="text-anchor:middle" transform="scale(4.0128.2492)" font-size="46.954" y="-3875.52" x="723.09" font-family="Arial"/>
 <text style="word-spacing:0;letter-spacing:0" font-size="208.33" y="535.94" x="277.99" font-family="Gentium Book Basic" line-height="125%">
  <tspan y="535.94" x="277.99"/>
 </text>
</svg>
