<?xml version="1.0" encoding="UTF-8" standalone="no"?>
<!-- Created with Inkscape (http://www.inkscape.org/) -->
<svg id="svg2" xmlns:rdf="http://www.w3.org/1999/02/22-rdf-syntax-ns#" xmlns="http://www.w3.org/2000/svg" height="100%" viewBox="0 0 512 512" width="100%" version="1.1" xmlns:cc="http://creativecommons.org/ns#" xmlns:dc="http://purl.org/dc/elements/1.1/">
 <metadata id="metadata70">
  <rdf:RDF>
   <cc:Work rdf:about="">
    <dc:format>image/svg+xml</dc:format>
    <dc:type rdf:resource="http://purl.org/dc/dcmitype/StillImage"/>
    <dc:title/>
   </cc:Work>
  </rdf:RDF>
 </metadata>
 <defs id="defs68">
  <style id="style2464" type="text/css"/>
  <style id="style2464-7" type="text/css"/>
 </defs>
 <text id="text20" style="word-spacing:0;letter-spacing:0" font-size="129.23px" line-height="125%" y="231.35997" x="729.64001" font-family="Gentium Book Basic">
  <tspan id="tspan22" y="231.35997" x="729.64001"/>
 </text>
 <text id="text24" style="text-anchor:middle" font-size="46.954px" transform="scale(4.0128 .24920)" y="579.25812" x="378.90805" font-family="Arial"/>
 <text id="text26" style="word-spacing:0;letter-spacing:0" font-size="129.23px" line-height="125%" y="151.35997" x="1310.91" font-family="Gentium Book Basic">
  <tspan id="tspan28" y="151.35997" x="1310.91"/>
 </text>
 <text id="text30" style="text-anchor:middle" font-size="46.954px" transform="scale(4.0128 .24920)" y="258.21997" x="523.75732" font-family="Arial"/>
 <text id="text32" style="word-spacing:0;letter-spacing:0" font-size="129.23px" line-height="125%" y="-29.900009" x="239.33" font-family="Gentium Book Basic">
  <tspan id="tspan34" y="-29.900009" x="239.33"/>
 </text>
 <text id="text36" style="text-anchor:middle" font-size="46.954px" transform="scale(4.0128 .24920)" y="-469.1264" x="256.71869" font-family="Arial"/>
 <text id="text38" style="word-spacing:0;letter-spacing:0" font-size="129.23px" line-height="125%" y="-246.37001" x="1337.38" font-family="Gentium Book Basic">
  <tspan id="tspan40" y="-246.37001" x="1337.38"/>
 </text>
 <text id="text42" style="text-anchor:middle" font-size="46.954px" transform="scale(4.0128 .24920)" y="-1337.802" x="530.3573" font-family="Arial"/>
 <text id="text44" style="word-spacing:0;letter-spacing:0" font-size="129.23px" line-height="125%" y="-326.37" x="1918.65" font-family="Gentium Book Basic">
  <tspan id="tspan46" y="-326.37" x="1918.65"/>
 </text>
 <text id="text48" style="text-anchor:middle" font-size="46.954px" transform="scale(4.0128 .24920)" y="-1658.8303" x="675.20654" font-family="Arial"/>
 <text id="text50" style="word-spacing:0;letter-spacing:0" font-size="129.23px" line-height="125%" y="-798.77002" x="1529.53" font-family="Gentium Book Basic">
  <tspan id="tspan52" y="-798.77002" x="1529.53"/>
 </text>
 <text id="text54" style="text-anchor:middle" font-size="46.954px" transform="scale(4.0128 .24920)" y="-3554.4807" x="578.237" font-family="Arial"/>
 <text id="text56" style="word-spacing:0;letter-spacing:0" font-size="129.23px" line-height="125%" y="-878.78003" x="2110.79" font-family="Gentium Book Basic">
  <tspan id="tspan58" y="-878.78003" x="2110.79"/>
 </text>
 <text id="text60" style="text-anchor:middle" font-size="46.954px" transform="scale(4.0128 .24920)" y="-3875.519" x="723.0863" font-family="Arial"/>
 <text id="text62" style="word-spacing:0;letter-spacing:0" font-size="208.33px" line-height="125%" y="535.94006" x="277.98999" font-family="Gentium Book Basic">
  <tspan id="tspan64" y="535.94006" x="277.98999"/>
 </text>
 <text id="text20-3" font-size="129.23px" style="word-spacing:0;letter-spacing:0" line-height="125%" y="231.35997" x="729.64001" font-family="Gentium Book Basic">
  <tspan id="tspan22-6" y="231.35997" x="729.64001"/>
 </text>
 <text id="text24-5" style="text-anchor:middle" font-size="46.954px" transform="scale(4.0128 .24920)" y="579.25812" x="378.90805" font-family="Arial"/>
 <text id="text26-3" font-size="129.23px" style="word-spacing:0;letter-spacing:0" line-height="125%" y="151.35997" x="1310.91" font-family="Gentium Book Basic">
  <tspan id="tspan28-9" y="151.35997" x="1310.91"/>
 </text>
 <text id="text30-9" style="text-anchor:middle" font-size="46.954px" transform="scale(4.0128 .24920)" y="258.21997" x="523.75732" font-family="Arial"/>
 <text id="text32-8" font-size="129.23px" style="word-spacing:0;letter-spacing:0" line-height="125%" y="-29.900009" x="239.33" font-family="Gentium Book Basic">
  <tspan id="tspan34-1" y="-29.900009" x="239.33"/>
 </text>
 <text id="text36-3" style="text-anchor:middle" font-size="46.954px" transform="scale(4.0128 .24920)" y="-469.1264" x="256.71869" font-family="Arial"/>
 <text id="text38-5" font-size="129.23px" style="word-spacing:0;letter-spacing:0" line-height="125%" y="-246.37001" x="1337.38" font-family="Gentium Book Basic">
  <tspan id="tspan40-7" y="-246.37001" x="1337.38"/>
 </text>
 <text id="text42-3" style="text-anchor:middle" font-size="46.954px" transform="scale(4.0128 .24920)" y="-1337.802" x="530.3573" font-family="Arial"/>
 <text id="text44-6" font-size="129.23px" style="word-spacing:0;letter-spacing:0" line-height="125%" y="-326.37" x="1918.65" font-family="Gentium Book Basic">
  <tspan id="tspan46-4" y="-326.37" x="1918.65"/>
 </text>
 <text id="text48-2" style="text-anchor:middle" font-size="46.954px" transform="scale(4.0128 .24920)" y="-1658.8303" x="675.20654" font-family="Arial"/>
 <text id="text50-4" font-size="129.23px" style="word-spacing:0;letter-spacing:0" line-height="125%" y="-798.77002" x="1529.53" font-family="Gentium Book Basic">
  <tspan id="tspan52-0" y="-798.77002" x="1529.53"/>
 </text>
 <text id="text54-6" style="text-anchor:middle" font-size="46.954px" transform="scale(4.0128 .24920)" y="-3554.4807" x="578.237" font-family="Arial"/>
 <text id="text56-5" font-size="129.23px" style="word-spacing:0;letter-spacing:0" line-height="125%" y="-878.78003" x="2110.79" font-family="Gentium Book Basic">
  <tspan id="tspan58-3" y="-878.78003" x="2110.79"/>
 </text>
 <text id="text60-8" style="text-anchor:middle" font-size="46.954px" transform="scale(4.0128 .24920)" y="-3875.519" x="723.0863" font-family="Arial"/>
 <text id="text62-4" font-size="208.33px" style="word-spacing:0;letter-spacing:0" line-height="125%" y="535.94006" x="277.98999" font-family="Gentium Book Basic">
  <tspan id="tspan64-1" y="535.94006" x="277.98999"/>
 </text>
 <text id="text20-8" style="word-spacing:0;letter-spacing:0" font-size="129.23px" line-height="125%" y="231.35997" x="729.64001" font-family="Gentium Book Basic">
  <tspan id="tspan22-7" y="231.35997" x="729.64001"/>
 </text>
 <text id="text24-2" style="text-anchor:middle" font-size="46.954px" transform="scale(4.0128 .24920)" y="579.25812" x="378.90805" font-family="Arial"/>
 <text id="text26-0" style="word-spacing:0;letter-spacing:0" font-size="129.23px" line-height="125%" y="151.35997" x="1310.91" font-family="Gentium Book Basic">
  <tspan id="tspan28-7" y="151.35997" x="1310.91"/>
 </text>
 <text id="text30-5" style="text-anchor:middle" font-size="46.954px" transform="scale(4.0128 .24920)" y="258.21997" x="523.75732" font-family="Arial"/>
 <text id="text32-84" style="word-spacing:0;letter-spacing:0" font-size="129.23px" line-height="125%" y="-29.900009" x="239.33" font-family="Gentium Book Basic">
  <tspan id="tspan34-9" y="-29.900009" x="239.33"/>
 </text>
 <text id="text36-0" style="text-anchor:middle" font-size="46.954px" transform="scale(4.0128 .24920)" y="-469.1264" x="256.71869" font-family="Arial"/>
 <text id="text38-4" style="word-spacing:0;letter-spacing:0" font-size="129.23px" line-height="125%" y="-246.37001" x="1337.38" font-family="Gentium Book Basic">
  <tspan id="tspan40-9" y="-246.37001" x="1337.38"/>
 </text>
 <text id="text42-1" style="text-anchor:middle" font-size="46.954px" transform="scale(4.0128 .24920)" y="-1337.802" x="530.3573" font-family="Arial"/>
 <text id="text44-7" style="word-spacing:0;letter-spacing:0" font-size="129.23px" line-height="125%" y="-326.37" x="1918.65" font-family="Gentium Book Basic">
  <tspan id="tspan46-40" y="-326.37" x="1918.65"/>
 </text>
 <text id="text48-0" style="text-anchor:middle" font-size="46.954px" transform="scale(4.0128 .24920)" y="-1658.8303" x="675.20654" font-family="Arial"/>
 <text id="text50-3" style="word-spacing:0;letter-spacing:0" font-size="129.23px" line-height="125%" y="-798.77002" x="1529.53" font-family="Gentium Book Basic">
  <tspan id="tspan52-4" y="-798.77002" x="1529.53"/>
 </text>
 <text id="text54-4" style="text-anchor:middle" font-size="46.954px" transform="scale(4.0128 .24920)" y="-3554.4807" x="578.237" font-family="Arial"/>
 <text id="text56-9" style="word-spacing:0;letter-spacing:0" font-size="129.23px" line-height="125%" y="-878.78003" x="2110.79" font-family="Gentium Book Basic">
  <tspan id="tspan58-5" y="-878.78003" x="2110.79"/>
 </text>
 <text id="text60-2" style="text-anchor:middle" font-size="46.954px" transform="scale(4.0128 .24920)" y="-3875.519" x="723.0863" font-family="Arial"/>
 <text id="text62-48" style="word-spacing:0;letter-spacing:0" font-size="208.33px" line-height="125%" y="535.94006" x="277.98999" font-family="Gentium Book Basic">
  <tspan id="tspan64-10" y="535.94006" x="277.98999"/>
 </text>
 <text id="text20-2" font-size="129.23px" style="word-spacing:0;letter-spacing:0" line-height="125%" y="231.35997" x="729.64001" font-family="Gentium Book Basic">
  <tspan id="tspan22-0" y="231.35997" x="729.64001"/>
 </text>
 <text id="text24-1" style="text-anchor:middle" font-size="46.954px" transform="scale(4.0128 .24920)" y="579.25812" x="378.90805" font-family="Arial"/>
 <text id="text26-6" font-size="129.23px" style="word-spacing:0;letter-spacing:0" line-height="125%" y="151.35997" x="1310.91" font-family="Gentium Book Basic">
  <tspan id="tspan28-1" y="151.35997" x="1310.91"/>
 </text>
 <text id="text30-1" style="text-anchor:middle" font-size="46.954px" transform="scale(4.0128 .24920)" y="258.21997" x="523.75732" font-family="Arial"/>
 <text id="text32-0" font-size="129.23px" style="word-spacing:0;letter-spacing:0" line-height="125%" y="-29.900009" x="239.33" font-family="Gentium Book Basic">
  <tspan id="tspan34-0" y="-29.900009" x="239.33"/>
 </text>
 <text id="text36-4" style="text-anchor:middle" font-size="46.954px" transform="scale(4.0128 .24920)" y="-469.1264" x="256.71869" font-family="Arial"/>
 <text id="text38-0" font-size="129.23px" style="word-spacing:0;letter-spacing:0" line-height="125%" y="-246.37001" x="1337.38" font-family="Gentium Book Basic">
  <tspan id="tspan40-74" y="-246.37001" x="1337.38"/>
 </text>
 <text id="text42-2" style="text-anchor:middle" font-size="46.954px" transform="scale(4.0128 .24920)" y="-1337.802" x="530.3573" font-family="Arial"/>
 <text id="text44-2" font-size="129.23px" style="word-spacing:0;letter-spacing:0" line-height="125%" y="-326.37" x="1918.65" font-family="Gentium Book Basic">
  <tspan id="tspan46-8" y="-326.37" x="1918.65"/>
 </text>
 <text id="text48-7" style="text-anchor:middle" font-size="46.954px" transform="scale(4.0128 .24920)" y="-1658.8303" x="675.20654" font-family="Arial"/>
 <text id="text50-33" font-size="129.23px" style="word-spacing:0;letter-spacing:0" line-height="125%" y="-798.77002" x="1529.53" font-family="Gentium Book Basic">
  <tspan id="tspan52-9" y="-798.77002" x="1529.53"/>
 </text>
 <text id="text54-7" style="text-anchor:middle" font-size="46.954px" transform="scale(4.0128 .24920)" y="-3554.4807" x="578.237" font-family="Arial"/>
 <text id="text56-2" font-size="129.23px" style="word-spacing:0;letter-spacing:0" line-height="125%" y="-878.78003" x="2110.79" font-family="Gentium Book Basic">
  <tspan id="tspan58-2" y="-878.78003" x="2110.79"/>
 </text>
 <text id="text60-9" style="text-anchor:middle" font-size="46.954px" transform="scale(4.0128 .24920)" y="-3875.519" x="723.0863" font-family="Arial"/>
 <text id="text62-5" font-size="208.33px" style="word-spacing:0;letter-spacing:0" line-height="125%" y="535.94006" x="277.98999" font-family="Gentium Book Basic">
  <tspan id="tspan64-4" y="535.94006" x="277.98999"/>
 </text>
 <text id="text20-6" style="word-spacing:0;letter-spacing:0" font-size="129.23px" line-height="125%" y="231.35997" x="729.64001" font-family="Gentium Book Basic">
  <tspan id="tspan22-3" y="231.35997" x="729.64001"/>
 </text>
 <text id="text24-9" style="text-anchor:middle" font-size="46.954px" transform="scale(4.0128 .24920)" y="579.25812" x="378.90805" font-family="Arial"/>
 <text id="text26-8" style="word-spacing:0;letter-spacing:0" font-size="129.23px" line-height="125%" y="151.35997" x="1310.91" font-family="Gentium Book Basic">
  <tspan id="tspan28-3" y="151.35997" x="1310.91"/>
 </text>
 <text id="text30-2" style="text-anchor:middle" font-size="46.954px" transform="scale(4.0128 .24920)" y="258.21997" x="523.75732" font-family="Arial"/>
 <text id="text32-7" style="word-spacing:0;letter-spacing:0" font-size="129.23px" line-height="125%" y="-29.900009" x="239.33" font-family="Gentium Book Basic">
  <tspan id="tspan34-5" y="-29.900009" x="239.33"/>
 </text>
 <text id="text36-39" style="text-anchor:middle" font-size="46.954px" transform="scale(4.0128 .24920)" y="-469.1264" x="256.71869" font-family="Arial"/>
 <text id="text38-7" style="word-spacing:0;letter-spacing:0" font-size="129.23px" line-height="125%" y="-246.37001" x="1337.38" font-family="Gentium Book Basic">
  <tspan id="tspan40-99" y="-246.37001" x="1337.38"/>
 </text>
 <text id="text42-4" style="text-anchor:middle" font-size="46.954px" transform="scale(4.0128 .24920)" y="-1337.802" x="530.3573" font-family="Arial"/>
 <text id="text44-3" style="word-spacing:0;letter-spacing:0" font-size="129.23px" line-height="125%" y="-326.37" x="1918.65" font-family="Gentium Book Basic">
  <tspan id="tspan46-46" y="-326.37" x="1918.65"/>
 </text>
 <text id="text48-21" style="text-anchor:middle" font-size="46.954px" transform="scale(4.0128 .24920)" y="-1658.8303" x="675.20654" font-family="Arial"/>
 <text id="text50-1" style="word-spacing:0;letter-spacing:0" font-size="129.23px" line-height="125%" y="-798.77002" x="1529.53" font-family="Gentium Book Basic">
  <tspan id="tspan52-7" y="-798.77002" x="1529.53"/>
 </text>
 <text id="text54-2" style="text-anchor:middle" font-size="46.954px" transform="scale(4.0128 .24920)" y="-3554.4807" x="578.237" font-family="Arial"/>
 <text id="text56-8" style="word-spacing:0;letter-spacing:0" font-size="129.23px" line-height="125%" y="-878.78003" x="2110.79" font-family="Gentium Book Basic">
  <tspan id="tspan58-9" y="-878.78003" x="2110.79"/>
 </text>
 <text id="text60-7" style="text-anchor:middle" font-size="46.954px" transform="scale(4.0128 .24920)" y="-3875.519" x="723.0863" font-family="Arial"/>
 <text id="text62-9" style="word-spacing:0;letter-spacing:0" font-size="208.33px" line-height="125%" y="535.94006" x="277.98999" font-family="Gentium Book Basic">
  <tspan id="tspan64-7" y="535.94006" x="277.98999"/>
 </text>
 <text id="text20-32" style="word-spacing:0;letter-spacing:0" font-size="129.23px" line-height="125%" y="231.35997" x="729.64001" font-family="Gentium Book Basic">
  <tspan id="tspan22-1" y="231.35997" x="729.64001"/>
 </text>
 <text id="text24-8" style="text-anchor:middle" font-size="46.954px" transform="scale(4.0128 .24920)" y="579.25812" x="378.90805" font-family="Arial"/>
 <text id="text26-81" style="word-spacing:0;letter-spacing:0" font-size="129.23px" line-height="125%" y="151.35997" x="1310.91" font-family="Gentium Book Basic">
  <tspan id="tspan28-6" y="151.35997" x="1310.91"/>
 </text>
 <text id="text30-7" style="text-anchor:middle" font-size="46.954px" transform="scale(4.0128 .24920)" y="258.21997" x="523.75732" font-family="Arial"/>
 <text id="text32-2" style="word-spacing:0;letter-spacing:0" font-size="129.23px" line-height="125%" y="-29.900009" x="239.33" font-family="Gentium Book Basic">
  <tspan id="tspan34-2" y="-29.900009" x="239.33"/>
 </text>
 <text id="text36-36" style="text-anchor:middle" font-size="46.954px" transform="scale(4.0128 .24920)" y="-469.1264" x="256.71869" font-family="Arial"/>
 <text id="text38-9" style="word-spacing:0;letter-spacing:0" font-size="129.23px" line-height="125%" y="-246.37001" x="1337.38" font-family="Gentium Book Basic">
  <tspan id="tspan40-5" y="-246.37001" x="1337.38"/>
 </text>
 <text id="text42-9" style="text-anchor:middle" font-size="46.954px" transform="scale(4.0128 .24920)" y="-1337.802" x="530.3573" font-family="Arial"/>
 <text id="text44-0" style="word-spacing:0;letter-spacing:0" font-size="129.23px" line-height="125%" y="-326.37" x="1918.65" font-family="Gentium Book Basic">
  <tspan id="tspan46-2" y="-326.37" x="1918.65"/>
 </text>
 <text id="text48-214" style="text-anchor:middle" font-size="46.954px" transform="scale(4.0128 .24920)" y="-1658.8303" x="675.20654" font-family="Arial"/>
 <text id="text50-12" style="word-spacing:0;letter-spacing:0" font-size="129.23px" line-height="125%" y="-798.77002" x="1529.53" font-family="Gentium Book Basic">
  <tspan id="tspan52-1" y="-798.77002" x="1529.53"/>
 </text>
 <text id="text54-28" style="text-anchor:middle" font-size="46.954px" transform="scale(4.0128 .24920)" y="-3554.4807" x="578.237" font-family="Arial"/>
 <text id="text56-85" style="word-spacing:0;letter-spacing:0" font-size="129.23px" line-height="125%" y="-878.78003" x="2110.79" font-family="Gentium Book Basic">
  <tspan id="tspan58-0" y="-878.78003" x="2110.79"/>
 </text>
 <text id="text60-85" style="text-anchor:middle" font-size="46.954px" transform="scale(4.0128 .24920)" y="-3875.519" x="723.0863" font-family="Arial"/>
 <text id="text62-41" style="word-spacing:0;letter-spacing:0" font-size="208.33px" line-height="125%" y="535.94006" x="277.98999" font-family="Gentium Book Basic">
  <tspan id="tspan64-9" y="535.94006" x="277.98999"/>
 </text>
 <text id="text20-7" font-size="129.23px" style="word-spacing:0;letter-spacing:0" line-height="125%" y="231.35997" x="729.64001" font-family="Gentium Book Basic">
  <tspan id="tspan22-8" y="231.35997" x="729.64001"/>
 </text>
 <text id="text24-91" style="text-anchor:middle" font-size="46.954px" transform="scale(4.0128 .24920)" y="579.25812" x="378.90805" font-family="Arial"/>
 <text id="text26-02" font-size="129.23px" style="word-spacing:0;letter-spacing:0" line-height="125%" y="151.35997" x="1310.91" font-family="Gentium Book Basic">
  <tspan id="tspan28-8" y="151.35997" x="1310.91"/>
 </text>
 <text id="text30-97" style="text-anchor:middle" font-size="46.954px" transform="scale(4.0128 .24920)" y="258.21997" x="523.75732" font-family="Arial"/>
 <text id="text32-9" font-size="129.23px" style="word-spacing:0;letter-spacing:0" line-height="125%" y="-29.900009" x="239.33" font-family="Gentium Book Basic">
  <tspan id="tspan34-21" y="-29.900009" x="239.33"/>
 </text>
 <text id="text36-35" style="text-anchor:middle" font-size="46.954px" transform="scale(4.0128 .24920)" y="-469.1264" x="256.71869" font-family="Arial"/>
 <text id="text38-54" font-size="129.23px" style="word-spacing:0;letter-spacing:0" line-height="125%" y="-246.37001" x="1337.38" font-family="Gentium Book Basic">
  <tspan id="tspan40-98" y="-246.37001" x="1337.38"/>
 </text>
 <text id="text42-97" style="text-anchor:middle" font-size="46.954px" transform="scale(4.0128 .24920)" y="-1337.802" x="530.3573" font-family="Arial"/>
 <text id="text44-8" font-size="129.23px" style="word-spacing:0;letter-spacing:0" line-height="125%" y="-326.37" x="1918.65" font-family="Gentium Book Basic">
  <tspan id="tspan46-47" y="-326.37" x="1918.65"/>
 </text>
 <text id="text48-6" style="text-anchor:middle" font-size="46.954px" transform="scale(4.0128 .24920)" y="-1658.8303" x="675.20654" font-family="Arial"/>
 <text id="text50-14" font-size="129.23px" style="word-spacing:0;letter-spacing:0" line-height="125%" y="-798.77002" x="1529.53" font-family="Gentium Book Basic">
  <tspan id="tspan52-8" y="-798.77002" x="1529.53"/>
 </text>
 <text id="text54-0" style="text-anchor:middle" font-size="46.954px" transform="scale(4.0128 .24920)" y="-3554.4807" x="578.237" font-family="Arial"/>
 <text id="text56-20" font-size="129.23px" style="word-spacing:0;letter-spacing:0" line-height="125%" y="-878.78003" x="2110.79" font-family="Gentium Book Basic">
  <tspan id="tspan58-01" y="-878.78003" x="2110.79"/>
 </text>
 <text id="text60-89" style="text-anchor:middle" font-size="46.954px" transform="scale(4.0128 .24920)" y="-3875.519" x="723.0863" font-family="Arial"/>
 <text id="text62-2" font-size="208.33px" style="word-spacing:0;letter-spacing:0" line-height="125%" y="535.94006" x="277.98999" font-family="Gentium Book Basic">
  <tspan id="tspan64-8" y="535.94006" x="277.98999"/>
 </text>
 <text id="text23" style="word-spacing:0;letter-spacing:0" font-size="129.23px" line-height="125%" y="231.36" x="729.64001" font-family="Gentium Book Basic">
  <tspan id="tspan25" y="231.36" x="729.64001"/>
 </text>
 <text id="text27" style="text-anchor:middle" font-size="46.954px" transform="scale(4.0128 .24920)" y="579.24701" x="378.90805" font-family="Arial"/>
 <text id="text29" style="word-spacing:0;letter-spacing:0" font-size="129.23px" line-height="125%" y="151.36" x="1310.91" font-family="Gentium Book Basic">
  <tspan id="tspan31" y="151.36" x="1310.91"/>
 </text>
 <text id="text33" style="text-anchor:middle" font-size="46.954px" transform="scale(4.0128 .24920)" y="258.21869" x="523.75732" font-family="Arial"/>
 <text id="text35" style="word-spacing:0;letter-spacing:0" font-size="129.23px" line-height="125%" y="-29.900999" x="239.33" font-family="Gentium Book Basic">
  <tspan id="tspan37" y="-29.900999" x="239.33"/>
 </text>
 <text id="text39" style="text-anchor:middle" font-size="46.954px" transform="scale(4.0128 .24920)" y="-469.1376" x="256.71869" font-family="Arial"/>
 <text id="text41" style="word-spacing:0;letter-spacing:0" font-size="129.23px" line-height="125%" y="-246.37" x="1337.38" font-family="Gentium Book Basic">
  <tspan id="tspan43" y="-246.37" x="1337.38"/>
 </text>
 <text id="text45" style="text-anchor:middle" font-size="46.954px" transform="scale(4.0128 .24920)" y="-1337.8032" x="530.3573" font-family="Arial"/>
 <text id="text47" style="word-spacing:0;letter-spacing:0" font-size="129.23px" line-height="125%" y="-326.38" x="1918.65" font-family="Gentium Book Basic">
  <tspan id="tspan49" y="-326.38" x="1918.65"/>
 </text>
 <text id="text51" style="text-anchor:middle" font-size="46.954px" transform="scale(4.0128 .24920)" y="-1658.8414" x="675.20654" font-family="Arial"/>
 <text id="text53" style="word-spacing:0;letter-spacing:0" font-size="129.23px" line-height="125%" y="-798.78003" x="1529.53" font-family="Gentium Book Basic">
  <tspan id="tspan55" y="-798.78003" x="1529.53"/>
 </text>
 <text id="text57" style="text-anchor:middle" font-size="46.954px" transform="scale(4.0128 .24920)" y="-3554.4917" x="578.237" font-family="Arial"/>
 <text id="text59" style="word-spacing:0;letter-spacing:0" font-size="129.23px" line-height="125%" y="-878.78003" x="2110.79" font-family="Gentium Book Basic">
  <tspan id="tspan61" y="-878.78003" x="2110.79"/>
 </text>
 <text id="text63" style="text-anchor:middle" font-size="46.954px" transform="scale(4.0128 .24920)" y="-3875.5203" x="723.0863" font-family="Arial"/>
 <text id="text65" style="word-spacing:0;letter-spacing:0" font-size="208.33px" line-height="125%" y="535.94" x="277.98999" font-family="Gentium Book Basic">
  <tspan id="tspan67" y="535.94" x="277.98999"/>
 </text>
 <text id="text20-4" font-size="129.23px" style="word-spacing:0;letter-spacing:0" line-height="125%" y="231.35997" x="729.64001" font-family="Gentium Book Basic">
  <tspan id="tspan22-17" y="231.35997" x="729.64001"/>
 </text>
 <text id="text24-99" style="text-anchor:middle" font-size="46.954px" transform="scale(4.0128 .24920)" y="579.25812" x="378.90805" font-family="Arial"/>
 <text id="text26-2" font-size="129.23px" style="word-spacing:0;letter-spacing:0" line-height="125%" y="151.35997" x="1310.91" font-family="Gentium Book Basic">
  <tspan id="tspan28-87" y="151.35997" x="1310.91"/>
 </text>
 <text id="text30-18" style="text-anchor:middle" font-size="46.954px" transform="scale(4.0128 .24920)" y="258.21997" x="523.75732" font-family="Arial"/>
 <text id="text32-6" font-size="129.23px" style="word-spacing:0;letter-spacing:0" line-height="125%" y="-29.900009" x="239.33" font-family="Gentium Book Basic">
  <tspan id="tspan34-7" y="-29.900009" x="239.33"/>
 </text>
 <text id="text36-7" style="text-anchor:middle" font-size="46.954px" transform="scale(4.0128 .24920)" y="-469.1264" x="256.71869" font-family="Arial"/>
 <text id="text38-48" font-size="129.23px" style="word-spacing:0;letter-spacing:0" line-height="125%" y="-246.37001" x="1337.38" font-family="Gentium Book Basic">
  <tspan id="tspan40-1" y="-246.37001" x="1337.38"/>
 </text>
 <text id="text42-28" style="text-anchor:middle" font-size="46.954px" transform="scale(4.0128 .24920)" y="-1337.802" x="530.3573" font-family="Arial"/>
 <text id="text44-34" font-size="129.23px" style="word-spacing:0;letter-spacing:0" line-height="125%" y="-326.37" x="1918.65" font-family="Gentium Book Basic">
  <tspan id="tspan46-0" y="-326.37" x="1918.65"/>
 </text>
 <text id="text48-62" style="text-anchor:middle" font-size="46.954px" transform="scale(4.0128 .24920)" y="-1658.8303" x="675.20654" font-family="Arial"/>
 <text id="text50-19" font-size="129.23px" style="word-spacing:0;letter-spacing:0" line-height="125%" y="-798.77002" x="1529.53" font-family="Gentium Book Basic">
  <tspan id="tspan52-14" y="-798.77002" x="1529.53"/>
 </text>
 <text id="text54-1" style="text-anchor:middle" font-size="46.954px" transform="scale(4.0128 .24920)" y="-3554.4807" x="578.237" font-family="Arial"/>
 <text id="text56-1" font-size="129.23px" style="word-spacing:0;letter-spacing:0" line-height="125%" y="-878.78003" x="2110.79" font-family="Gentium Book Basic">
  <tspan id="tspan58-4" y="-878.78003" x="2110.79"/>
 </text>
 <text id="text60-5" style="text-anchor:middle" font-size="46.954px" transform="scale(4.0128 .24920)" y="-3875.519" x="723.0863" font-family="Arial"/>
 <text id="text62-56" font-size="208.33px" style="word-spacing:0;letter-spacing:0" line-height="125%" y="535.94006" x="277.98999" font-family="Gentium Book Basic">
  <tspan id="tspan64-3" y="535.94006" x="277.98999"/>
 </text>
 <path id="path8-6" fill-rule="evenodd" fill="#3683d3" d="m471.95 253.05c0 120.9-98.006 218.91-218.91 218.91s-218.91-98.006-218.91-218.91 98.006-218.91 218.91-218.91 218.91 98.006 218.91 218.91"/>
 <path id="path21402" opacity=".25" d="m398.88 137.28c-0.65921 0.001-1.2847 0.0453-1.8438 0.0937-39.734 9.0395-62.86 48.448-88.438 77.344-8.9479 6.8057-13.88 31.113-27.406 20.219-36.41-16.338-81.68-33.894-120.28-17.344-34.433 16.373-12.824 57.426 7.4375 77.688 13.339 11.779 26.838 23.372 40.125 35.219-3.8965 3.8961 0.29238 4.0164-30.815-19.349-12.302-9.2398-25.244-16.008-53.778-15.089-25.551 0.44887-41.208 32.586-32.938 52.906 44.721 40.591 90.579 81.305 136.44 121.5 8.4185 0.98312 16.974 1.5 25.656 1.5 120.9 0 218.91-98.009 218.91-218.91 0-22.222-3.313-43.666-9.4688-63.875-5.066-4.4887-12.66-11.23-58.031-51.062-1.3322-0.60139-3.5849-0.84676-5.5625-0.84375z"/>
 <path id="path10-4" fill-rule="evenodd" fill-opacity=".067" d="m256 1c-140.83 0-255 114.17-255 255s114.17 255 255 255 255-114.17 255-255-114.17-255-255-255m8.827 44.931c120.9 0 218.9 98 218.9 218.9s-98 218.9-218.9 218.9-218.93-98-218.93-218.9 98.03-218.9 218.93-218.9"/>
 <path id="path14-8" fill-rule="evenodd" fill-opacity=".129" d="m256 4.43c-138.94 0-251.57 112.63-251.57 251.57s112.63 251.57 251.57 251.57 251.57-112.63 251.57-251.57-112.63-251.57-251.57-251.57m5.885 38.556c120.9 0 218.9 98 218.9 218.9s-98 218.9-218.9 218.9-218.93-98-218.93-218.9 98.03-218.9 218.93-218.9"/>
 <path id="path16-6" fill-rule="evenodd" fill-opacity=".129" d="m256 8.36c-136.77 0-247.64 110.87-247.64 247.64s110.87 247.64 247.64 247.64 247.64-110.87 247.64-247.64-110.87-247.64-247.64-247.64m2.942 31.691c120.9 0 218.9 98 218.9 218.9s-98 218.9-218.9 218.9-218.93-98-218.93-218.9 98.03-218.9 218.93-218.9"/>
 <path id="path18-2" d="m253.04 7.86c-135.42 0-245.19 109.78-245.19 245.19 0 135.42 109.78 245.19 245.19 245.19 135.42 0 245.19-109.78 245.19-245.19 0-135.42-109.78-245.19-245.19-245.19zm0 26.297c120.9 0 218.9 98 218.9 218.9s-98 218.9-218.9 218.9-218.93-98-218.93-218.9 98.03-218.9 218.93-218.9z" stroke-opacity=".31" fill-rule="evenodd" stroke="#000" stroke-width="4.904" fill="#fff"/>
 <text id="text20-5" style="word-spacing:0;letter-spacing:0" font-size="129.23px" line-height="125%" y="231.35997" x="729.64001" font-family="Gentium Book Basic">
  <tspan id="tspan22-4" y="231.35997" x="729.64001"/>
 </text>
 <text id="text24-7" style="text-anchor:middle" font-size="46.954px" transform="scale(4.0128 .24920)" y="579.25812" x="378.90805" font-family="Arial"/>
 <text id="text26-5" style="word-spacing:0;letter-spacing:0" font-size="129.23px" line-height="125%" y="151.35997" x="1310.91" font-family="Gentium Book Basic">
  <tspan id="tspan28-5" y="151.35997" x="1310.91"/>
 </text>
 <text id="text30-13" style="text-anchor:middle" font-size="46.954px" transform="scale(4.0128 .24920)" y="258.21997" x="523.75732" font-family="Arial"/>
 <text id="text32-1" style="word-spacing:0;letter-spacing:0" font-size="129.23px" line-height="125%" y="-29.900009" x="239.33" font-family="Gentium Book Basic">
  <tspan id="tspan34-6" y="-29.900009" x="239.33"/>
 </text>
 <text id="text36-6" style="text-anchor:middle" font-size="46.954px" transform="scale(4.0128 .24920)" y="-469.1264" x="256.71869" font-family="Arial"/>
 <text id="text38-78" style="word-spacing:0;letter-spacing:0" font-size="129.23px" line-height="125%" y="-246.37001" x="1337.38" font-family="Gentium Book Basic">
  <tspan id="tspan40-78" y="-246.37001" x="1337.38"/>
 </text>
 <text id="text42-12" style="text-anchor:middle" font-size="46.954px" transform="scale(4.0128 .24920)" y="-1337.802" x="530.3573" font-family="Arial"/>
 <text id="text44-24" style="word-spacing:0;letter-spacing:0" font-size="129.23px" line-height="125%" y="-326.37" x="1918.65" font-family="Gentium Book Basic">
  <tspan id="tspan46-6" y="-326.37" x="1918.65"/>
 </text>
 <text id="text48-9" style="text-anchor:middle" font-size="46.954px" transform="scale(4.0128 .24920)" y="-1658.8303" x="675.20654" font-family="Arial"/>
 <text id="text50-142" style="word-spacing:0;letter-spacing:0" font-size="129.23px" line-height="125%" y="-798.77002" x="1529.53" font-family="Gentium Book Basic">
  <tspan id="tspan52-71" y="-798.77002" x="1529.53"/>
 </text>
 <text id="text54-16" style="text-anchor:middle" font-size="46.954px" transform="scale(4.0128 .24920)" y="-3554.4807" x="578.237" font-family="Arial"/>
 <text id="text56-89" style="word-spacing:0;letter-spacing:0" font-size="129.23px" line-height="125%" y="-878.78003" x="2110.79" font-family="Gentium Book Basic">
  <tspan id="tspan58-20" y="-878.78003" x="2110.79"/>
 </text>
 <text id="text60-6" style="text-anchor:middle" font-size="46.954px" transform="scale(4.0128 .24920)" y="-3875.519" x="723.0863" font-family="Arial"/>
 <text id="text62-8" style="word-spacing:0;letter-spacing:0" font-size="208.33px" line-height="125%" y="535.94006" x="277.98999" font-family="Gentium Book Basic">
  <tspan id="tspan64-91" y="535.94006" x="277.98999"/>
 </text>
 <path id="path3391" fill="#fff" d="m397.03 136.75c-4.7696 0.0137-14.875 3.6127-22.623 8.0559-7.7022 4.4168-23.662 17.751-35.466 29.632s-27.94 30.522-35.856 41.424l-14.393 19.822-16.887-7.6556c-9.288-4.2114-25.759-9.9267-36.6-12.7-10.842-2.7729-27.504-5.0364-37.026-5.0285-9.5221 0.008-21.856 1.2796-27.411 2.8221-5.5549 1.5424-14.279 6.6341-19.385 11.314-7.6795 7.0377-9.5033 10.784-10.55 21.674-0.96224 10.015 0.0553 15.758 4.2537 23.988 3.0359 5.9508 9.3756 13.7 14.085 17.225 4.7094 3.5254 12.237 8.273 16.733 10.544 4.4958 2.2716 16.318 6.0609 26.271 8.4253 9.9535 2.3644 19.754 4.8146 21.777 5.4442 2.7932 0.86946 2.1615 2.7994-2.6271 8.02-3.4675 3.7803-13.344 11.468-21.946 17.087s-22.106 12.096-30.007 14.393c-11.925 3.4667-16.7 3.6545-28.124 1.0981-7.5687-1.6938-16.823-5.9159-20.566-9.3848-3.7925-3.5148-6.809-9.1871-6.809-12.812 0-3.5781 1.86-8.3662 4.1306-10.637 2.7094-2.7094 8.8045-4.1068 17.733-4.069 7.6939 0.0326 18.436 2.2497 24.727 5.1055 10.095 4.5827 11.507 4.6713 15.239 0.939 2.2621-2.2621 3.7422-6.0414 3.289-8.3945-0.46573-2.4182-7.6643-7.048-16.553-10.652-11.397-4.6212-20.79-6.3899-34.117-6.4191-12.195-0.0267-21.189 1.4425-26.697 4.3563-4.5684 2.4168-10.886 7.6658-14.044 11.668-4.5305 5.7414-5.4779 9.6675-4.4795 18.606 0.77633 6.9501 3.6682 13.906 7.4812 17.995 3.4184 3.6654 12.125 9.7273 19.35 13.469 10.715 5.5498 17.735 7.0033 38.094 7.8866 20.586 0.89313 27.949 0.0862 42.034-4.6129 9.392-3.1333 24.761-10.238 34.153-15.783 9.392-5.5452 23.944-16.103 32.336-23.465 14.5-12.719 16.002-13.385 30.212-13.423 8.2243-0.0221 16.549-1.0538 18.498-2.2885 1.9483-1.2347 3.1169-4.4669 2.6015-7.1836-0.68209-3.5952-3.6105-5.1585-10.765-5.752-5.4064-0.44845-9.8313-1.3004-9.8313-1.8934s3.7765-6.4373 8.3894-12.982c4.613-6.5444 9.0463-11.866 9.8518-11.827 0.80556 0.0389 5.4281 3.36 10.272 7.3786 8.7084 7.2238 8.8115 7.571 9.2617 30.797 0.35806 18.47 1.6808 25.811 6.1882 34.338 3.153 5.965 11.321 15.766 18.149 21.777 6.8282 6.0105 14.239 10.573 16.466 10.144 2.2267-0.42883 5.5369-3.7226 7.3581-7.3221s3.3296-11.321 3.3506-17.159c0.021-5.8374-1.7664-17.538-3.9715-26.005-2.2052-8.4661-7.0511-20.834-10.77-27.482l-6.7629-12.084 20.129-51.229c11.072-28.176 23.221-59.585 27-69.794 3.7793-10.209 6.1064-20.553 5.1721-22.987-1.1182-2.9143-4.6429-4.4183-10.319-4.4025zm-36.39 48.053c0.0783-0.0454 0.12085-0.0326 0.12315 0.0411 0.0353 1.1787-1.3252 4.7253-3.0223 7.8814-1.6972 3.1561-8.1131 20.489-14.254 38.514-6.1413 18.025-12.138 33.058-13.331 33.404-1.1924 0.34621-4.8305-1.5909-8.0815-4.2999-3.2511-2.709-5.9071-5.919-5.906-7.1323 0-1.2133 10.019-17.57 22.264-36.354 11.48-17.61 21.03-31.374 22.208-32.054zm-154.82 45.436c9.392 0.0633 23.579 2.2664 31.526 4.8951 7.9471 2.6287 20.065 7.59 26.928 11.027 6.8634 3.4369 12.479 6.9154 12.479 7.7326 0 0.81729-7.2411 10.849-16.091 22.29-13.025 16.837-17.405 20.77-22.988 20.648-3.793-0.0834-14.581-2.158-23.973-4.6129s-22.797-7.8229-29.791-11.925c-8.627-5.059-13.968-10.444-16.599-16.743-3.0836-7.38-3.2532-10.793-0.83125-16.64 1.7197-4.1516 7.2302-9.4123 12.653-12.074 6.362-3.122 15.381-4.6737 26.687-4.5975zm143.85 83.576c0.16078-0.003 0.32748 0.0437 0.49772 0.1488 1.3614 0.84142 3.2827 6.9126 4.2691 13.49 1.0392 6.9298 0.70264 13.049-0.80048 14.552-1.707 1.707-3.1669-0.26671-4.2691-5.7777-0.92113-4.6057-1.678-11.847-1.678-16.086 0-3.7095 0.85541-6.3003 1.9807-6.3267z"/>
</svg>
