<?xml version="1.0" encoding="UTF-8" standalone="no"?>
<!-- Created with Inkscape (http://www.inkscape.org/) -->
<svg id="svg2" xmlns:rdf="http://www.w3.org/1999/02/22-rdf-syntax-ns#" xmlns="http://www.w3.org/2000/svg" height="100%" viewBox="0 0 512 512" width="100%" version="1.1" xmlns:cc="http://creativecommons.org/ns#" xmlns:xlink="http://www.w3.org/1999/xlink" xmlns:dc="http://purl.org/dc/elements/1.1/">
 <metadata id="metadata70">
  <rdf:RDF>
   <cc:Work rdf:about="">
    <dc:format>image/svg+xml</dc:format>
    <dc:type rdf:resource="http://purl.org/dc/dcmitype/StillImage"/>
    <dc:title/>
   </cc:Work>
  </rdf:RDF>
 </metadata>
 <defs id="defs68">
  <style id="style2464" type="text/css"/>
  <style id="style2464-7" type="text/css"/>
  <linearGradient id="linearGradient5808" y2="573.44" gradientUnits="userSpaceOnUse" y1="794.92" x2="244.84" x1="244.84">
   <stop id="stop5788" stop-color="#fff" offset="0"/>
   <stop id="stop5790" offset="1"/>
  </linearGradient>
  <linearGradient id="linearGradient5806" y2="1010.5" gradientUnits="userSpaceOnUse" y1="794.04" x2="249.12" x1="249.12">
   <stop id="stop5796" offset="0"/>
   <stop id="stop5798" stop-color="#fff" offset="1"/>
  </linearGradient>
 </defs>
 <text id="text20" style="word-spacing:0;letter-spacing:0" font-size="129.23px" line-height="125%" y="231.35997" x="729.64001" font-family="Gentium Book Basic">
  <tspan id="tspan22" y="231.35997" x="729.64001"/>
 </text>
 <text id="text24" style="text-anchor:middle" font-size="46.954px" transform="scale(4.0128 .24920)" y="579.25812" x="378.90805" font-family="Arial"/>
 <text id="text26" style="word-spacing:0;letter-spacing:0" font-size="129.23px" line-height="125%" y="151.35997" x="1310.91" font-family="Gentium Book Basic">
  <tspan id="tspan28" y="151.35997" x="1310.91"/>
 </text>
 <text id="text30" style="text-anchor:middle" font-size="46.954px" transform="scale(4.0128 .24920)" y="258.21997" x="523.75732" font-family="Arial"/>
 <text id="text32" style="word-spacing:0;letter-spacing:0" font-size="129.23px" line-height="125%" y="-29.900009" x="239.33" font-family="Gentium Book Basic">
  <tspan id="tspan34" y="-29.900009" x="239.33"/>
 </text>
 <text id="text36" style="text-anchor:middle" font-size="46.954px" transform="scale(4.0128 .24920)" y="-469.1264" x="256.71869" font-family="Arial"/>
 <text id="text38" style="word-spacing:0;letter-spacing:0" font-size="129.23px" line-height="125%" y="-246.37001" x="1337.38" font-family="Gentium Book Basic">
  <tspan id="tspan40" y="-246.37001" x="1337.38"/>
 </text>
 <text id="text42" style="text-anchor:middle" font-size="46.954px" transform="scale(4.0128 .24920)" y="-1337.802" x="530.3573" font-family="Arial"/>
 <text id="text44" style="word-spacing:0;letter-spacing:0" font-size="129.23px" line-height="125%" y="-326.37" x="1918.65" font-family="Gentium Book Basic">
  <tspan id="tspan46" y="-326.37" x="1918.65"/>
 </text>
 <text id="text48" style="text-anchor:middle" font-size="46.954px" transform="scale(4.0128 .24920)" y="-1658.8303" x="675.20654" font-family="Arial"/>
 <text id="text50" style="word-spacing:0;letter-spacing:0" font-size="129.23px" line-height="125%" y="-798.77002" x="1529.53" font-family="Gentium Book Basic">
  <tspan id="tspan52" y="-798.77002" x="1529.53"/>
 </text>
 <text id="text54" style="text-anchor:middle" font-size="46.954px" transform="scale(4.0128 .24920)" y="-3554.4807" x="578.237" font-family="Arial"/>
 <text id="text56" style="word-spacing:0;letter-spacing:0" font-size="129.23px" line-height="125%" y="-878.78003" x="2110.79" font-family="Gentium Book Basic">
  <tspan id="tspan58" y="-878.78003" x="2110.79"/>
 </text>
 <text id="text60" style="text-anchor:middle" font-size="46.954px" transform="scale(4.0128 .24920)" y="-3875.519" x="723.0863" font-family="Arial"/>
 <text id="text62" style="word-spacing:0;letter-spacing:0" font-size="208.33px" line-height="125%" y="535.94006" x="277.98999" font-family="Gentium Book Basic">
  <tspan id="tspan64" y="535.94006" x="277.98999"/>
 </text>
 <text id="text20-3" style="word-spacing:0;letter-spacing:0" font-size="129.23px" line-height="125%" y="231.35997" x="729.64001" font-family="Gentium Book Basic">
  <tspan id="tspan22-6" y="231.35997" x="729.64001"/>
 </text>
 <text id="text24-5" style="text-anchor:middle" font-size="46.954px" transform="scale(4.0128 .24920)" y="579.25812" x="378.90805" font-family="Arial"/>
 <text id="text26-3" style="word-spacing:0;letter-spacing:0" font-size="129.23px" line-height="125%" y="151.35997" x="1310.91" font-family="Gentium Book Basic">
  <tspan id="tspan28-9" y="151.35997" x="1310.91"/>
 </text>
 <text id="text30-9" style="text-anchor:middle" font-size="46.954px" transform="scale(4.0128 .24920)" y="258.21997" x="523.75732" font-family="Arial"/>
 <text id="text32-8" style="word-spacing:0;letter-spacing:0" font-size="129.23px" line-height="125%" y="-29.900009" x="239.33" font-family="Gentium Book Basic">
  <tspan id="tspan34-1" y="-29.900009" x="239.33"/>
 </text>
 <text id="text36-3" style="text-anchor:middle" font-size="46.954px" transform="scale(4.0128 .24920)" y="-469.1264" x="256.71869" font-family="Arial"/>
 <text id="text38-5" style="word-spacing:0;letter-spacing:0" font-size="129.23px" line-height="125%" y="-246.37001" x="1337.38" font-family="Gentium Book Basic">
  <tspan id="tspan40-7" y="-246.37001" x="1337.38"/>
 </text>
 <text id="text42-3" style="text-anchor:middle" font-size="46.954px" transform="scale(4.0128 .24920)" y="-1337.802" x="530.3573" font-family="Arial"/>
 <text id="text44-6" style="word-spacing:0;letter-spacing:0" font-size="129.23px" line-height="125%" y="-326.37" x="1918.65" font-family="Gentium Book Basic">
  <tspan id="tspan46-4" y="-326.37" x="1918.65"/>
 </text>
 <text id="text48-2" style="text-anchor:middle" font-size="46.954px" transform="scale(4.0128 .24920)" y="-1658.8303" x="675.20654" font-family="Arial"/>
 <text id="text50-4" style="word-spacing:0;letter-spacing:0" font-size="129.23px" line-height="125%" y="-798.77002" x="1529.53" font-family="Gentium Book Basic">
  <tspan id="tspan52-0" y="-798.77002" x="1529.53"/>
 </text>
 <text id="text54-6" style="text-anchor:middle" font-size="46.954px" transform="scale(4.0128 .24920)" y="-3554.4807" x="578.237" font-family="Arial"/>
 <text id="text56-5" style="word-spacing:0;letter-spacing:0" font-size="129.23px" line-height="125%" y="-878.78003" x="2110.79" font-family="Gentium Book Basic">
  <tspan id="tspan58-3" y="-878.78003" x="2110.79"/>
 </text>
 <text id="text60-8" style="text-anchor:middle" font-size="46.954px" transform="scale(4.0128 .24920)" y="-3875.519" x="723.0863" font-family="Arial"/>
 <text id="text62-4" style="word-spacing:0;letter-spacing:0" font-size="208.33px" line-height="125%" y="535.94006" x="277.98999" font-family="Gentium Book Basic">
  <tspan id="tspan64-1" y="535.94006" x="277.98999"/>
 </text>
 <text id="text20-8" font-size="129.23px" style="word-spacing:0;letter-spacing:0" line-height="125%" y="231.35997" x="729.64001" font-family="Gentium Book Basic">
  <tspan id="tspan22-7" y="231.35997" x="729.64001"/>
 </text>
 <text id="text24-2" style="text-anchor:middle" font-size="46.954px" transform="scale(4.0128 .24920)" y="579.25812" x="378.90805" font-family="Arial"/>
 <text id="text26-0" font-size="129.23px" style="word-spacing:0;letter-spacing:0" line-height="125%" y="151.35997" x="1310.91" font-family="Gentium Book Basic">
  <tspan id="tspan28-7" y="151.35997" x="1310.91"/>
 </text>
 <text id="text30-5" style="text-anchor:middle" font-size="46.954px" transform="scale(4.0128 .24920)" y="258.21997" x="523.75732" font-family="Arial"/>
 <text id="text32-84" font-size="129.23px" style="word-spacing:0;letter-spacing:0" line-height="125%" y="-29.900009" x="239.33" font-family="Gentium Book Basic">
  <tspan id="tspan34-9" y="-29.900009" x="239.33"/>
 </text>
 <text id="text36-0" style="text-anchor:middle" font-size="46.954px" transform="scale(4.0128 .24920)" y="-469.1264" x="256.71869" font-family="Arial"/>
 <text id="text38-4" font-size="129.23px" style="word-spacing:0;letter-spacing:0" line-height="125%" y="-246.37001" x="1337.38" font-family="Gentium Book Basic">
  <tspan id="tspan40-9" y="-246.37001" x="1337.38"/>
 </text>
 <text id="text42-1" style="text-anchor:middle" font-size="46.954px" transform="scale(4.0128 .24920)" y="-1337.802" x="530.3573" font-family="Arial"/>
 <text id="text44-7" font-size="129.23px" style="word-spacing:0;letter-spacing:0" line-height="125%" y="-326.37" x="1918.65" font-family="Gentium Book Basic">
  <tspan id="tspan46-40" y="-326.37" x="1918.65"/>
 </text>
 <text id="text48-0" style="text-anchor:middle" font-size="46.954px" transform="scale(4.0128 .24920)" y="-1658.8303" x="675.20654" font-family="Arial"/>
 <text id="text50-3" font-size="129.23px" style="word-spacing:0;letter-spacing:0" line-height="125%" y="-798.77002" x="1529.53" font-family="Gentium Book Basic">
  <tspan id="tspan52-4" y="-798.77002" x="1529.53"/>
 </text>
 <text id="text54-4" style="text-anchor:middle" font-size="46.954px" transform="scale(4.0128 .24920)" y="-3554.4807" x="578.237" font-family="Arial"/>
 <text id="text56-9" font-size="129.23px" style="word-spacing:0;letter-spacing:0" line-height="125%" y="-878.78003" x="2110.79" font-family="Gentium Book Basic">
  <tspan id="tspan58-5" y="-878.78003" x="2110.79"/>
 </text>
 <text id="text60-2" style="text-anchor:middle" font-size="46.954px" transform="scale(4.0128 .24920)" y="-3875.519" x="723.0863" font-family="Arial"/>
 <text id="text62-48" font-size="208.33px" style="word-spacing:0;letter-spacing:0" line-height="125%" y="535.94006" x="277.98999" font-family="Gentium Book Basic">
  <tspan id="tspan64-10" y="535.94006" x="277.98999"/>
 </text>
 <text id="text20-2" style="word-spacing:0;letter-spacing:0" font-size="129.23px" line-height="125%" y="231.35997" x="729.64001" font-family="Gentium Book Basic">
  <tspan id="tspan22-0" y="231.35997" x="729.64001"/>
 </text>
 <text id="text24-1" style="text-anchor:middle" font-size="46.954px" transform="scale(4.0128 .24920)" y="579.25812" x="378.90805" font-family="Arial"/>
 <text id="text26-6" style="word-spacing:0;letter-spacing:0" font-size="129.23px" line-height="125%" y="151.35997" x="1310.91" font-family="Gentium Book Basic">
  <tspan id="tspan28-1" y="151.35997" x="1310.91"/>
 </text>
 <text id="text30-1" style="text-anchor:middle" font-size="46.954px" transform="scale(4.0128 .24920)" y="258.21997" x="523.75732" font-family="Arial"/>
 <text id="text32-0" style="word-spacing:0;letter-spacing:0" font-size="129.23px" line-height="125%" y="-29.900009" x="239.33" font-family="Gentium Book Basic">
  <tspan id="tspan34-0" y="-29.900009" x="239.33"/>
 </text>
 <text id="text36-4" style="text-anchor:middle" font-size="46.954px" transform="scale(4.0128 .24920)" y="-469.1264" x="256.71869" font-family="Arial"/>
 <text id="text38-0" style="word-spacing:0;letter-spacing:0" font-size="129.23px" line-height="125%" y="-246.37001" x="1337.38" font-family="Gentium Book Basic">
  <tspan id="tspan40-74" y="-246.37001" x="1337.38"/>
 </text>
 <text id="text42-2" style="text-anchor:middle" font-size="46.954px" transform="scale(4.0128 .24920)" y="-1337.802" x="530.3573" font-family="Arial"/>
 <text id="text44-2" style="word-spacing:0;letter-spacing:0" font-size="129.23px" line-height="125%" y="-326.37" x="1918.65" font-family="Gentium Book Basic">
  <tspan id="tspan46-8" y="-326.37" x="1918.65"/>
 </text>
 <text id="text48-7" style="text-anchor:middle" font-size="46.954px" transform="scale(4.0128 .24920)" y="-1658.8303" x="675.20654" font-family="Arial"/>
 <text id="text50-33" style="word-spacing:0;letter-spacing:0" font-size="129.23px" line-height="125%" y="-798.77002" x="1529.53" font-family="Gentium Book Basic">
  <tspan id="tspan52-9" y="-798.77002" x="1529.53"/>
 </text>
 <text id="text54-7" style="text-anchor:middle" font-size="46.954px" transform="scale(4.0128 .24920)" y="-3554.4807" x="578.237" font-family="Arial"/>
 <text id="text56-2" style="word-spacing:0;letter-spacing:0" font-size="129.23px" line-height="125%" y="-878.78003" x="2110.79" font-family="Gentium Book Basic">
  <tspan id="tspan58-2" y="-878.78003" x="2110.79"/>
 </text>
 <text id="text60-9" style="text-anchor:middle" font-size="46.954px" transform="scale(4.0128 .24920)" y="-3875.519" x="723.0863" font-family="Arial"/>
 <text id="text62-5" style="word-spacing:0;letter-spacing:0" font-size="208.33px" line-height="125%" y="535.94006" x="277.98999" font-family="Gentium Book Basic">
  <tspan id="tspan64-4" y="535.94006" x="277.98999"/>
 </text>
 <text id="text20-6" font-size="129.23px" style="word-spacing:0;letter-spacing:0" line-height="125%" y="231.35997" x="729.64001" font-family="Gentium Book Basic">
  <tspan id="tspan22-3" y="231.35997" x="729.64001"/>
 </text>
 <text id="text24-9" style="text-anchor:middle" font-size="46.954px" transform="scale(4.0128 .24920)" y="579.25812" x="378.90805" font-family="Arial"/>
 <text id="text26-8" font-size="129.23px" style="word-spacing:0;letter-spacing:0" line-height="125%" y="151.35997" x="1310.91" font-family="Gentium Book Basic">
  <tspan id="tspan28-3" y="151.35997" x="1310.91"/>
 </text>
 <text id="text30-2" style="text-anchor:middle" font-size="46.954px" transform="scale(4.0128 .24920)" y="258.21997" x="523.75732" font-family="Arial"/>
 <text id="text32-7" font-size="129.23px" style="word-spacing:0;letter-spacing:0" line-height="125%" y="-29.900009" x="239.33" font-family="Gentium Book Basic">
  <tspan id="tspan34-5" y="-29.900009" x="239.33"/>
 </text>
 <text id="text36-39" style="text-anchor:middle" font-size="46.954px" transform="scale(4.0128 .24920)" y="-469.1264" x="256.71869" font-family="Arial"/>
 <text id="text38-7" font-size="129.23px" style="word-spacing:0;letter-spacing:0" line-height="125%" y="-246.37001" x="1337.38" font-family="Gentium Book Basic">
  <tspan id="tspan40-99" y="-246.37001" x="1337.38"/>
 </text>
 <text id="text42-4" style="text-anchor:middle" font-size="46.954px" transform="scale(4.0128 .24920)" y="-1337.802" x="530.3573" font-family="Arial"/>
 <text id="text44-3" font-size="129.23px" style="word-spacing:0;letter-spacing:0" line-height="125%" y="-326.37" x="1918.65" font-family="Gentium Book Basic">
  <tspan id="tspan46-46" y="-326.37" x="1918.65"/>
 </text>
 <text id="text48-21" style="text-anchor:middle" font-size="46.954px" transform="scale(4.0128 .24920)" y="-1658.8303" x="675.20654" font-family="Arial"/>
 <text id="text50-1" font-size="129.23px" style="word-spacing:0;letter-spacing:0" line-height="125%" y="-798.77002" x="1529.53" font-family="Gentium Book Basic">
  <tspan id="tspan52-7" y="-798.77002" x="1529.53"/>
 </text>
 <text id="text54-2" style="text-anchor:middle" font-size="46.954px" transform="scale(4.0128 .24920)" y="-3554.4807" x="578.237" font-family="Arial"/>
 <text id="text56-8" font-size="129.23px" style="word-spacing:0;letter-spacing:0" line-height="125%" y="-878.78003" x="2110.79" font-family="Gentium Book Basic">
  <tspan id="tspan58-9" y="-878.78003" x="2110.79"/>
 </text>
 <text id="text60-7" style="text-anchor:middle" font-size="46.954px" transform="scale(4.0128 .24920)" y="-3875.519" x="723.0863" font-family="Arial"/>
 <text id="text62-9" font-size="208.33px" style="word-spacing:0;letter-spacing:0" line-height="125%" y="535.94006" x="277.98999" font-family="Gentium Book Basic">
  <tspan id="tspan64-7" y="535.94006" x="277.98999"/>
 </text>
 <text id="text20-32" font-size="129.23px" style="word-spacing:0;letter-spacing:0" line-height="125%" y="231.35997" x="729.64001" font-family="Gentium Book Basic">
  <tspan id="tspan22-1" y="231.35997" x="729.64001"/>
 </text>
 <text id="text24-8" style="text-anchor:middle" font-size="46.954px" transform="scale(4.0128 .24920)" y="579.25812" x="378.90805" font-family="Arial"/>
 <text id="text26-81" font-size="129.23px" style="word-spacing:0;letter-spacing:0" line-height="125%" y="151.35997" x="1310.91" font-family="Gentium Book Basic">
  <tspan id="tspan28-6" y="151.35997" x="1310.91"/>
 </text>
 <text id="text30-7" style="text-anchor:middle" font-size="46.954px" transform="scale(4.0128 .24920)" y="258.21997" x="523.75732" font-family="Arial"/>
 <text id="text32-2" font-size="129.23px" style="word-spacing:0;letter-spacing:0" line-height="125%" y="-29.900009" x="239.33" font-family="Gentium Book Basic">
  <tspan id="tspan34-2" y="-29.900009" x="239.33"/>
 </text>
 <text id="text36-36" style="text-anchor:middle" font-size="46.954px" transform="scale(4.0128 .24920)" y="-469.1264" x="256.71869" font-family="Arial"/>
 <text id="text38-9" font-size="129.23px" style="word-spacing:0;letter-spacing:0" line-height="125%" y="-246.37001" x="1337.38" font-family="Gentium Book Basic">
  <tspan id="tspan40-5" y="-246.37001" x="1337.38"/>
 </text>
 <text id="text42-9" style="text-anchor:middle" font-size="46.954px" transform="scale(4.0128 .24920)" y="-1337.802" x="530.3573" font-family="Arial"/>
 <text id="text44-0" font-size="129.23px" style="word-spacing:0;letter-spacing:0" line-height="125%" y="-326.37" x="1918.65" font-family="Gentium Book Basic">
  <tspan id="tspan46-2" y="-326.37" x="1918.65"/>
 </text>
 <text id="text48-214" style="text-anchor:middle" font-size="46.954px" transform="scale(4.0128 .24920)" y="-1658.8303" x="675.20654" font-family="Arial"/>
 <text id="text50-12" font-size="129.23px" style="word-spacing:0;letter-spacing:0" line-height="125%" y="-798.77002" x="1529.53" font-family="Gentium Book Basic">
  <tspan id="tspan52-1" y="-798.77002" x="1529.53"/>
 </text>
 <text id="text54-28" style="text-anchor:middle" font-size="46.954px" transform="scale(4.0128 .24920)" y="-3554.4807" x="578.237" font-family="Arial"/>
 <text id="text56-85" font-size="129.23px" style="word-spacing:0;letter-spacing:0" line-height="125%" y="-878.78003" x="2110.79" font-family="Gentium Book Basic">
  <tspan id="tspan58-0" y="-878.78003" x="2110.79"/>
 </text>
 <text id="text60-85" style="text-anchor:middle" font-size="46.954px" transform="scale(4.0128 .24920)" y="-3875.519" x="723.0863" font-family="Arial"/>
 <text id="text62-41" font-size="208.33px" style="word-spacing:0;letter-spacing:0" line-height="125%" y="535.94006" x="277.98999" font-family="Gentium Book Basic">
  <tspan id="tspan64-9" y="535.94006" x="277.98999"/>
 </text>
 <text id="text20-7" style="word-spacing:0;letter-spacing:0" font-size="129.23px" line-height="125%" y="231.35997" x="729.64001" font-family="Gentium Book Basic">
  <tspan id="tspan22-8" y="231.35997" x="729.64001"/>
 </text>
 <text id="text24-91" style="text-anchor:middle" font-size="46.954px" transform="scale(4.0128 .24920)" y="579.25812" x="378.90805" font-family="Arial"/>
 <text id="text26-02" style="word-spacing:0;letter-spacing:0" font-size="129.23px" line-height="125%" y="151.35997" x="1310.91" font-family="Gentium Book Basic">
  <tspan id="tspan28-8" y="151.35997" x="1310.91"/>
 </text>
 <text id="text30-97" style="text-anchor:middle" font-size="46.954px" transform="scale(4.0128 .24920)" y="258.21997" x="523.75732" font-family="Arial"/>
 <text id="text32-9" style="word-spacing:0;letter-spacing:0" font-size="129.23px" line-height="125%" y="-29.900009" x="239.33" font-family="Gentium Book Basic">
  <tspan id="tspan34-21" y="-29.900009" x="239.33"/>
 </text>
 <text id="text36-35" style="text-anchor:middle" font-size="46.954px" transform="scale(4.0128 .24920)" y="-469.1264" x="256.71869" font-family="Arial"/>
 <text id="text38-54" style="word-spacing:0;letter-spacing:0" font-size="129.23px" line-height="125%" y="-246.37001" x="1337.38" font-family="Gentium Book Basic">
  <tspan id="tspan40-98" y="-246.37001" x="1337.38"/>
 </text>
 <text id="text42-97" style="text-anchor:middle" font-size="46.954px" transform="scale(4.0128 .24920)" y="-1337.802" x="530.3573" font-family="Arial"/>
 <text id="text44-8" style="word-spacing:0;letter-spacing:0" font-size="129.23px" line-height="125%" y="-326.37" x="1918.65" font-family="Gentium Book Basic">
  <tspan id="tspan46-47" y="-326.37" x="1918.65"/>
 </text>
 <text id="text48-6" style="text-anchor:middle" font-size="46.954px" transform="scale(4.0128 .24920)" y="-1658.8303" x="675.20654" font-family="Arial"/>
 <text id="text50-14" style="word-spacing:0;letter-spacing:0" font-size="129.23px" line-height="125%" y="-798.77002" x="1529.53" font-family="Gentium Book Basic">
  <tspan id="tspan52-8" y="-798.77002" x="1529.53"/>
 </text>
 <text id="text54-0" style="text-anchor:middle" font-size="46.954px" transform="scale(4.0128 .24920)" y="-3554.4807" x="578.237" font-family="Arial"/>
 <text id="text56-20" style="word-spacing:0;letter-spacing:0" font-size="129.23px" line-height="125%" y="-878.78003" x="2110.79" font-family="Gentium Book Basic">
  <tspan id="tspan58-01" y="-878.78003" x="2110.79"/>
 </text>
 <text id="text60-89" style="text-anchor:middle" font-size="46.954px" transform="scale(4.0128 .24920)" y="-3875.519" x="723.0863" font-family="Arial"/>
 <text id="text62-2" style="word-spacing:0;letter-spacing:0" font-size="208.33px" line-height="125%" y="535.94006" x="277.98999" font-family="Gentium Book Basic">
  <tspan id="tspan64-8" y="535.94006" x="277.98999"/>
 </text>
 <text id="text23" font-size="129.23px" style="word-spacing:0;letter-spacing:0" line-height="125%" y="231.36" x="729.64001" font-family="Gentium Book Basic">
  <tspan id="tspan25" y="231.36" x="729.64001"/>
 </text>
 <text id="text27" style="text-anchor:middle" font-size="46.954px" transform="scale(4.0128 .24920)" y="579.24701" x="378.90805" font-family="Arial"/>
 <text id="text29" font-size="129.23px" style="word-spacing:0;letter-spacing:0" line-height="125%" y="151.36" x="1310.91" font-family="Gentium Book Basic">
  <tspan id="tspan31" y="151.36" x="1310.91"/>
 </text>
 <text id="text33" style="text-anchor:middle" font-size="46.954px" transform="scale(4.0128 .24920)" y="258.21869" x="523.75732" font-family="Arial"/>
 <text id="text35" font-size="129.23px" style="word-spacing:0;letter-spacing:0" line-height="125%" y="-29.900999" x="239.33" font-family="Gentium Book Basic">
  <tspan id="tspan37" y="-29.900999" x="239.33"/>
 </text>
 <text id="text39" style="text-anchor:middle" font-size="46.954px" transform="scale(4.0128 .24920)" y="-469.1376" x="256.71869" font-family="Arial"/>
 <text id="text41" font-size="129.23px" style="word-spacing:0;letter-spacing:0" line-height="125%" y="-246.37" x="1337.38" font-family="Gentium Book Basic">
  <tspan id="tspan43" y="-246.37" x="1337.38"/>
 </text>
 <text id="text45" style="text-anchor:middle" font-size="46.954px" transform="scale(4.0128 .24920)" y="-1337.8032" x="530.3573" font-family="Arial"/>
 <text id="text47" font-size="129.23px" style="word-spacing:0;letter-spacing:0" line-height="125%" y="-326.38" x="1918.65" font-family="Gentium Book Basic">
  <tspan id="tspan49" y="-326.38" x="1918.65"/>
 </text>
 <text id="text51" style="text-anchor:middle" font-size="46.954px" transform="scale(4.0128 .24920)" y="-1658.8414" x="675.20654" font-family="Arial"/>
 <text id="text53" font-size="129.23px" style="word-spacing:0;letter-spacing:0" line-height="125%" y="-798.78003" x="1529.53" font-family="Gentium Book Basic">
  <tspan id="tspan55" y="-798.78003" x="1529.53"/>
 </text>
 <text id="text57" style="text-anchor:middle" font-size="46.954px" transform="scale(4.0128 .24920)" y="-3554.4917" x="578.237" font-family="Arial"/>
 <text id="text59" font-size="129.23px" style="word-spacing:0;letter-spacing:0" line-height="125%" y="-878.78003" x="2110.79" font-family="Gentium Book Basic">
  <tspan id="tspan61" y="-878.78003" x="2110.79"/>
 </text>
 <text id="text63" style="text-anchor:middle" font-size="46.954px" transform="scale(4.0128 .24920)" y="-3875.5203" x="723.0863" font-family="Arial"/>
 <text id="text65" font-size="208.33px" style="word-spacing:0;letter-spacing:0" line-height="125%" y="535.94" x="277.98999" font-family="Gentium Book Basic">
  <tspan id="tspan67" y="535.94" x="277.98999"/>
 </text>
 <text id="text20-4" style="word-spacing:0;letter-spacing:0" font-size="129.23px" line-height="125%" y="231.35997" x="729.64001" font-family="Gentium Book Basic">
  <tspan id="tspan22-17" y="231.35997" x="729.64001"/>
 </text>
 <text id="text24-99" style="text-anchor:middle" font-size="46.954px" transform="scale(4.0128 .24920)" y="579.25812" x="378.90805" font-family="Arial"/>
 <text id="text26-2" style="word-spacing:0;letter-spacing:0" font-size="129.23px" line-height="125%" y="151.35997" x="1310.91" font-family="Gentium Book Basic">
  <tspan id="tspan28-87" y="151.35997" x="1310.91"/>
 </text>
 <text id="text30-18" style="text-anchor:middle" font-size="46.954px" transform="scale(4.0128 .24920)" y="258.21997" x="523.75732" font-family="Arial"/>
 <text id="text32-6" style="word-spacing:0;letter-spacing:0" font-size="129.23px" line-height="125%" y="-29.900009" x="239.33" font-family="Gentium Book Basic">
  <tspan id="tspan34-7" y="-29.900009" x="239.33"/>
 </text>
 <text id="text36-7" style="text-anchor:middle" font-size="46.954px" transform="scale(4.0128 .24920)" y="-469.1264" x="256.71869" font-family="Arial"/>
 <text id="text38-48" style="word-spacing:0;letter-spacing:0" font-size="129.23px" line-height="125%" y="-246.37001" x="1337.38" font-family="Gentium Book Basic">
  <tspan id="tspan40-1" y="-246.37001" x="1337.38"/>
 </text>
 <text id="text42-28" style="text-anchor:middle" font-size="46.954px" transform="scale(4.0128 .24920)" y="-1337.802" x="530.3573" font-family="Arial"/>
 <text id="text44-34" style="word-spacing:0;letter-spacing:0" font-size="129.23px" line-height="125%" y="-326.37" x="1918.65" font-family="Gentium Book Basic">
  <tspan id="tspan46-0" y="-326.37" x="1918.65"/>
 </text>
 <text id="text48-62" style="text-anchor:middle" font-size="46.954px" transform="scale(4.0128 .24920)" y="-1658.8303" x="675.20654" font-family="Arial"/>
 <text id="text50-19" style="word-spacing:0;letter-spacing:0" font-size="129.23px" line-height="125%" y="-798.77002" x="1529.53" font-family="Gentium Book Basic">
  <tspan id="tspan52-14" y="-798.77002" x="1529.53"/>
 </text>
 <text id="text54-1" style="text-anchor:middle" font-size="46.954px" transform="scale(4.0128 .24920)" y="-3554.4807" x="578.237" font-family="Arial"/>
 <text id="text56-1" style="word-spacing:0;letter-spacing:0" font-size="129.23px" line-height="125%" y="-878.78003" x="2110.79" font-family="Gentium Book Basic">
  <tspan id="tspan58-4" y="-878.78003" x="2110.79"/>
 </text>
 <text id="text60-5" style="text-anchor:middle" font-size="46.954px" transform="scale(4.0128 .24920)" y="-3875.519" x="723.0863" font-family="Arial"/>
 <text id="text62-56" style="word-spacing:0;letter-spacing:0" font-size="208.33px" line-height="125%" y="535.94006" x="277.98999" font-family="Gentium Book Basic">
  <tspan id="tspan64-3" y="535.94006" x="277.98999"/>
 </text>
 <text id="text20-5" font-size="129.23px" style="word-spacing:0;letter-spacing:0" line-height="125%" y="231.35997" x="729.64001" font-family="Gentium Book Basic">
  <tspan id="tspan22-4" y="231.35997" x="729.64001"/>
 </text>
 <text id="text24-7" style="text-anchor:middle" font-size="46.954px" transform="scale(4.0128 .24920)" y="579.25812" x="378.90805" font-family="Arial"/>
 <text id="text26-5" font-size="129.23px" style="word-spacing:0;letter-spacing:0" line-height="125%" y="151.35997" x="1310.91" font-family="Gentium Book Basic">
  <tspan id="tspan28-5" y="151.35997" x="1310.91"/>
 </text>
 <text id="text30-13" style="text-anchor:middle" font-size="46.954px" transform="scale(4.0128 .24920)" y="258.21997" x="523.75732" font-family="Arial"/>
 <text id="text32-1" font-size="129.23px" style="word-spacing:0;letter-spacing:0" line-height="125%" y="-29.900009" x="239.33" font-family="Gentium Book Basic">
  <tspan id="tspan34-6" y="-29.900009" x="239.33"/>
 </text>
 <text id="text36-6" style="text-anchor:middle" font-size="46.954px" transform="scale(4.0128 .24920)" y="-469.1264" x="256.71869" font-family="Arial"/>
 <text id="text38-78" font-size="129.23px" style="word-spacing:0;letter-spacing:0" line-height="125%" y="-246.37001" x="1337.38" font-family="Gentium Book Basic">
  <tspan id="tspan40-78" y="-246.37001" x="1337.38"/>
 </text>
 <text id="text42-12" style="text-anchor:middle" font-size="46.954px" transform="scale(4.0128 .24920)" y="-1337.802" x="530.3573" font-family="Arial"/>
 <text id="text44-24" font-size="129.23px" style="word-spacing:0;letter-spacing:0" line-height="125%" y="-326.37" x="1918.65" font-family="Gentium Book Basic">
  <tspan id="tspan46-6" y="-326.37" x="1918.65"/>
 </text>
 <text id="text48-9" style="text-anchor:middle" font-size="46.954px" transform="scale(4.0128 .24920)" y="-1658.8303" x="675.20654" font-family="Arial"/>
 <text id="text50-142" font-size="129.23px" style="word-spacing:0;letter-spacing:0" line-height="125%" y="-798.77002" x="1529.53" font-family="Gentium Book Basic">
  <tspan id="tspan52-71" y="-798.77002" x="1529.53"/>
 </text>
 <text id="text54-16" style="text-anchor:middle" font-size="46.954px" transform="scale(4.0128 .24920)" y="-3554.4807" x="578.237" font-family="Arial"/>
 <text id="text56-89" font-size="129.23px" style="word-spacing:0;letter-spacing:0" line-height="125%" y="-878.78003" x="2110.79" font-family="Gentium Book Basic">
  <tspan id="tspan58-20" y="-878.78003" x="2110.79"/>
 </text>
 <text id="text60-6" style="text-anchor:middle" font-size="46.954px" transform="scale(4.0128 .24920)" y="-3875.519" x="723.0863" font-family="Arial"/>
 <text id="text62-8" font-size="208.33px" style="word-spacing:0;letter-spacing:0" line-height="125%" y="535.94006" x="277.98999" font-family="Gentium Book Basic">
  <tspan id="tspan64-91" y="535.94006" x="277.98999"/>
 </text>
 <path id="path2991" fill-rule="evenodd" fill="#ea6124" d="m471.95 253.05c0 120.9-98.006 218.91-218.91 218.91s-218.91-98.006-218.91-218.91 98.006-218.91 218.91-218.91 218.91 98.006 218.91 218.91"/>
 <path id="path4121" style="block-progression:tb;color:#000000;text-transform:none;text-indent:0" fill="#189d4d" d="m210.19 38.344c-100.39 19.918-176.06 108.49-176.06 214.72 0 120.9 98.009 218.91 218.91 218.91 37.139 0 72.109-9.2747 102.75-25.594l-145.6-408.04z"/>
 <g id="g5802" opacity=".1" transform="matrix(-.73441 -.67870 .67870 -.73441 -99.638 1007.5)">
  <path id="path5750" style="block-progression:tb;color:#000000;text-transform:none;text-indent:0" fill="url(#linearGradient5806)" d="m34.125 792.89c-0.000422 0.1773 0 0.35385 0 0.53125 0 120.9 98.009 218.91 218.91 218.91s218.91-98.009 218.91-218.91c0-0.17741 0.00042-0.35394 0-0.53125h-437.81z"/>
  <path id="path5744" fill-rule="evenodd" fill="url(#linearGradient5808)" d="m253.03 574.52c-120.9 0-218.91 98.009-218.91 218.91 0 0.1574-0.000332 0.31142 0 0.46875h437.81c0.00033-0.15732 0-0.31135 0-0.46875 0-120.9-98.009-218.91-218.91-218.91z"/>
 </g>
 <path id="path23873" opacity=".25" d="m176.72 139.06l-82.189 233.88c58.519 52.28 25.229 22.23 103.03 91.94 75.5 19.69 159.1-1.72 215.88-62.85 0.12-0.13 0.25-0.27 0.37-0.41 0.11-0.11 0.21-0.22 0.31-0.34 45.46-49.39 63.9-114.06 56.07-175.84-26.95-23.99-53.96-47.93-81.07-71.72-40.83-21.32-88.41-12.16-132.71-14.19 7.16 14.95 17.99 33.72 9.9 28.69-14.12-13.9-24.94-24.79-29.12-28.94-19.87-0.48-40.38-0.05-60.47-0.22z"/>
 <path id="path2993" d="m256 0.99999c-140.83 0-255 114.17-255 255s114.17 255 255 255 255-114.17 255-255-114.17-255-255-255m8.827 44.931c120.9 0 218.9 98 218.9 218.9s-98 218.9-218.9 218.9-218.93-98-218.93-218.9 98.03-218.9 218.93-218.9" fill-opacity=".067" fill-rule="evenodd"/>
 <path id="path2997" d="m256 4.43c-138.94 0-251.57 112.63-251.57 251.57s112.63 251.57 251.57 251.57 251.57-112.63 251.57-251.57-112.63-251.57-251.57-251.57m5.885 38.556c120.9 0 218.9 98 218.9 218.9s-98 218.9-218.9 218.9-218.93-98-218.93-218.9 98.03-218.9 218.93-218.9" fill-rule="evenodd" fill-opacity=".129"/>
 <path id="path2999" d="m256 8.36c-136.77 0-247.64 110.87-247.64 247.64s110.87 247.64 247.64 247.64 247.64-110.87 247.64-247.64-110.87-247.64-247.64-247.64m2.942 31.691c120.9 0 218.9 98 218.9 218.9s-98 218.9-218.9 218.9-218.93-98-218.93-218.9 98.03-218.9 218.93-218.9" fill-rule="evenodd" fill-opacity=".129"/>
 <path id="path3001" d="m253.04 7.86c-135.42 0-245.19 109.78-245.19 245.19 0 135.42 109.78 245.19 245.19 245.19 135.42 0 245.19-109.78 245.19-245.19 0-135.42-109.78-245.19-245.19-245.19zm0 26.297c120.9 0 218.9 98 218.9 218.9s-98 218.9-218.9 218.9-218.93-98-218.93-218.9 98.03-218.9 218.93-218.9z" stroke-opacity=".31" fill-rule="evenodd" stroke="#000" stroke-width="4.904" fill="#fff"/>
 <text id="text3003" letter-spacing="0" style="word-spacing:0;letter-spacing:0" line-height="125%" word-spacing="0" font-size="129.23px" y="231.35999" x="729.64001" font-family="Gentium Book Basic">
  <tspan id="tspan3005" y="231.35999" x="729.64001"/>
 </text>
 <text id="text3007" font-size="46.954px" style="text-anchor:middle" transform="scale(4.0128 .24920)" y="579.25806" x="378.90805" font-family="Arial"/>
 <text id="text3009" letter-spacing="0" style="word-spacing:0;letter-spacing:0" line-height="125%" word-spacing="0" font-size="129.23px" y="151.35999" x="1310.91" font-family="Gentium Book Basic">
  <tspan id="tspan3011" y="151.35999" x="1310.91"/>
 </text>
 <text id="text3013" font-size="46.954px" style="text-anchor:middle" transform="scale(4.0128 .24920)" y="258.21997" x="523.75732" font-family="Arial"/>
 <text id="text3015" letter-spacing="0" style="word-spacing:0;letter-spacing:0" line-height="125%" word-spacing="0" font-size="129.23px" y="-29.900032" x="239.33" font-family="Gentium Book Basic">
  <tspan id="tspan3017" y="-29.900032" x="239.33"/>
 </text>
 <text id="text3019" font-size="46.954px" style="text-anchor:middle" transform="scale(4.0128 .24920)" y="-469.12646" x="256.71869" font-family="Arial"/>
 <text id="text3021" letter-spacing="0" style="word-spacing:0;letter-spacing:0" line-height="125%" word-spacing="0" font-size="129.23px" y="-246.37003" x="1337.38" font-family="Gentium Book Basic">
  <tspan id="tspan3023" y="-246.37003" x="1337.38"/>
 </text>
 <text id="text3025" font-size="46.954px" style="text-anchor:middle" transform="scale(4.0128 .24920)" y="-1337.802" x="530.3573" font-family="Arial"/>
 <text id="text3027" letter-spacing="0" style="word-spacing:0;letter-spacing:0" line-height="125%" word-spacing="0" font-size="129.23px" y="-326.37" x="1918.65" font-family="Gentium Book Basic">
  <tspan id="tspan3029" y="-326.37" x="1918.65"/>
 </text>
 <text id="text3031" font-size="46.954px" style="text-anchor:middle" transform="scale(4.0128 .24920)" y="-1658.8303" x="675.20654" font-family="Arial"/>
 <text id="text3033" letter-spacing="0" style="word-spacing:0;letter-spacing:0" line-height="125%" word-spacing="0" font-size="129.23px" y="-798.77002" x="1529.53" font-family="Gentium Book Basic">
  <tspan id="tspan3035" y="-798.77002" x="1529.53"/>
 </text>
 <text id="text3037" font-size="46.954px" style="text-anchor:middle" transform="scale(4.0128 .24920)" y="-3554.4807" x="578.237" font-family="Arial"/>
 <text id="text3039" letter-spacing="0" style="word-spacing:0;letter-spacing:0" line-height="125%" word-spacing="0" font-size="129.23px" y="-878.78003" x="2110.79" font-family="Gentium Book Basic">
  <tspan id="tspan3041" y="-878.78003" x="2110.79"/>
 </text>
 <text id="text3043" font-size="46.954px" style="text-anchor:middle" transform="scale(4.0128 .24920)" y="-3875.519" x="723.0863" font-family="Arial"/>
 <text id="text3045" letter-spacing="0" style="word-spacing:0;letter-spacing:0" line-height="125%" word-spacing="0" font-size="208.33px" y="535.94006" x="277.98999" font-family="Gentium Book Basic">
  <tspan id="tspan3047" y="535.94006" x="277.98999"/>
 </text>
 <path id="path4130" fill="#fff" d="m176.73 139.06-82.219 233.88h53.219l16.875-55.438h84.938l16.875 55.438h53.219l-82.531-233.88h-60.375zm79.656 0.46875c15.446 43.817 30.916 87.625 46.375 131.44h22c27.615 0.0001 41.437 9.6697 41.438 29-0.00015 10.727-3.24 18.702-9.7188 23.906-6.479 5.2044-16.53 7.8125-30.125 7.8125h-2.1875c4.7794 13.542 9.564 27.083 14.344 40.625 23.238-0.92629 41.882-6.8044 55.875-17.688 15.4-11.896 23.094-28.477 23.094-49.719-0.0002-14.976-3.2901-26.972-9.875-36-6.479-9.0278-17.081-15.176-31.844-18.469v-1.5938c10.833-1.8055 19.458-7.1719 25.938-16.094 6.5849-8.9216 9.9061-20.336 9.9062-34.25-0.00018-20.498-7.4932-35.434-22.469-44.781-14.87-9.4525-38.844-14.187-71.875-14.188h-60.875zm-49.219 35.688c0.84957 3.8238 2.2131 9.0401 4.125 15.625 2.0179 6.5852 10.824 34.981 26.438 85.219h-60.688c16.569-53.636 26.62-87.249 30.125-100.84zm87 4.7812h25.969c14.126 0.00019 24.427 1.9766 30.906 5.9062 6.5849 3.8238 9.8748 10.203 9.875 19.125-0.00015 9.5591-3.0086 16.389-9.0625 20.531-5.9479 4.1424-15.618 6.2189-29 6.2188h-28.688v-51.781z"/>
</svg>
