<?xml version="1.0" encoding="UTF-8" standalone="no"?>
<!-- Created with Inkscape (http://www.inkscape.org/) -->
<svg id="svg2" xmlns:rdf="http://www.w3.org/1999/02/22-rdf-syntax-ns#" xmlns="http://www.w3.org/2000/svg" height="100%" viewBox="0 0 512 512" width="100%" version="1.1" xmlns:cc="http://creativecommons.org/ns#" xmlns:dc="http://purl.org/dc/elements/1.1/">
 <metadata id="metadata76">
  <rdf:RDF>
   <cc:Work rdf:about="">
    <dc:format>image/svg+xml</dc:format>
    <dc:type rdf:resource="http://purl.org/dc/dcmitype/StillImage"/>
   </cc:Work>
  </rdf:RDF>
 </metadata>
 <g id="g4" fill-rule="evenodd">
  <path id="path6" fill="#5d5c5d" d="m471.95 253.05c0 120.9-98.01 218.9-218.9 218.9-120.9 0-218.9-98.01-218.9-218.9 0-120.9 98.01-218.9 218.9-218.9 120.9 0 218.9 98.01 218.9 218.9"/>
  <path id="path8" fill-opacity=".235" d="m233.78 116.91c-67.66 0-122.53 58.08-122.53 129.75 0 37.28 14.833 70.891 38.594 94.56 0.082 0.084 0.167 0.166 0.25 0.25 0.381 0.377 0.771 0.753 1.156 1.125 0.278 0.287 0.563 0.56 0.844 0.844 0.185 0.18 0.376 0.353 0.563 0.531 0.15 0.154 0.287 0.316 0.438 0.469 0.047 0.046 0.109 0.079 0.156 0.125 0.322 0.333 0.643 0.671 0.969 1 0.053 0.052 0.104 0.104 0.156 0.156 0.23 0.237 0.455 0.484 0.688 0.719 0.048 0.046 0.108 0.079 0.156 0.125 0.052 0.052 0.104 0.105 0.156 0.156 0.23 0.237 0.455 0.484 0.688 0.719 0.047 0.046 0.109 0.079 0.156 0.125 0.052 0.052 0.104 0.105 0.156 0.156 0.23 0.237 0.455 0.484 0.688 0.719 0.047 0.046 0.109 0.079 0.156 0.125 0.278 0.287 0.563 0.56 0.844 0.844 0.026 0.026 0.036 0.068 0.063 0.094 0.053 0.051 0.134 0.074 0.188 0.125 0.253 0.26 0.495 0.523 0.75 0.781 0.048 0.046 0.108 0.079 0.156 0.125 0.279 0.288 0.562 0.59 0.844 0.875 0.042 0.041 0.082 0.084 0.125 0.125 0.053 0.052 0.104 0.104 0.156 0.156 0.23 0.237 0.455 0.484 0.688 0.719 0.048 0.046 0.108 0.079 0.156 0.125 0.053 0.052 0.104 0.104 0.156 0.156 0.23 0.237 0.455 0.484 0.688 0.719 0.048 0.046 0.108 0.079 0.156 0.125 0.052 0.052 0.104 0.105 0.156 0.156 0.23 0.237 0.455 0.484 0.688 0.719 0.047 0.046 0.109 0.079 0.156 0.125 0.13 0.131 0.276 0.244 0.406 0.375 0.15 0.154 0.287 0.316 0.438 0.469 0.026 0.026 0.067 0.036 0.094 0.063 0.026 0.026 0.037 0.068 0.063 0.094 0.027 0.026 0.067 0.037 0.094 0.063 0.253 0.26 0.495 0.523 0.75 0.781 0.048 0.046 0.108 0.079 0.156 0.125 0.279 0.288 0.562 0.59 0.844 0.875 0.047 0.046 0.109 0.079 0.156 0.125 0.322 0.333 0.643 0.671 0.969 1 0.053 0.052 0.104 0.104 0.156 0.156 0.23 0.237 0.455 0.484 0.688 0.719 0.048 0.046 0.108 0.079 0.156 0.125 0.052 0.052 0.104 0.105 0.156 0.156 0.23 0.237 0.455 0.484 0.688 0.719 0.047 0.046 0.109 0.079 0.156 0.125 0.278 0.287 0.563 0.56 0.844 0.844 0.026 0.026 0.036 0.068 0.063 0.094 0.053 0.051 0.134 0.074 0.188 0.125 0.253 0.26 0.495 0.523 0.75 0.781 0.048 0.046 0.108 0.079 0.156 0.125 0.283 0.292 0.558 0.585 0.844 0.875 0.047 0.046 0.109 0.079 0.156 0.125 0.322 0.333 0.643 0.671 0.969 1 0.053 0.052 0.104 0.104 0.156 0.156 0.23 0.237 0.455 0.484 0.688 0.719 0.048 0.046 0.108 0.079 0.156 0.125 0.052 0.052 0.104 0.105 0.156 0.156 0.23 0.237 0.455 0.484 0.688 0.719 0.047 0.046 0.109 0.079 0.156 0.125 0.278 0.287 0.563 0.56 0.844 0.844 0.053 0.051 0.103 0.105 0.156 0.156 0.278 0.287 0.563 0.56 0.844 0.844 0.185 0.18 0.376 0.353 0.563 0.531 0.15 0.154 0.287 0.316 0.438 0.469 0.047 0.046 0.109 0.079 0.156 0.125 0.322 0.333 0.643 0.671 0.969 1 0.053 0.052 0.104 0.104 0.156 0.156 0.23 0.237 0.455 0.484 0.688 0.719 0.048 0.046 0.108 0.079 0.156 0.125 0.052 0.052 0.104 0.105 0.156 0.156 0.23 0.237 0.455 0.484 0.688 0.719 0.047 0.046 0.109 0.079 0.156 0.125 0.052 0.052 0.104 0.105 0.156 0.156 0.23 0.237 0.455 0.484 0.688 0.719 0.047 0.046 0.109 0.079 0.156 0.125 0.278 0.287 0.563 0.56 0.844 0.844 0.026 0.026 0.036 0.068 0.063 0.094 0.053 0.051 0.134 0.074 0.188 0.125 0.253 0.26 0.495 0.523 0.75 0.781 0.048 0.046 0.108 0.079 0.156 0.125 0.279 0.288 0.562 0.59 0.844 0.875 0.042 0.041 0.082 0.084 0.125 0.125 0.053 0.052 0.104 0.104 0.156 0.156 0.23 0.237 0.455 0.484 0.688 0.719 0.048 0.046 0.108 0.079 0.156 0.125 0.053 0.052 0.104 0.104 0.156 0.156 0.23 0.237 0.455 0.484 0.688 0.719 0.048 0.046 0.108 0.079 0.156 0.125 0.052 0.052 0.104 0.105 0.156 0.156 0.23 0.237 0.455 0.484 0.688 0.719 0.047 0.046 0.109 0.079 0.156 0.125 0.13 0.131 0.276 0.244 0.406 0.375 0.15 0.154 0.287 0.316 0.438 0.469 0.026 0.026 0.067 0.036 0.094 0.063 0.026 0.026 0.037 0.068 0.063 0.094 0.027 0.026 0.067 0.037 0.094 0.063 0.253 0.26 0.495 0.523 0.75 0.781 0.048 0.046 0.108 0.079 0.156 0.125 0.283 0.292 0.558 0.585 0.844 0.875 0.047 0.046 0.109 0.079 0.156 0.125 0.322 0.333 0.643 0.671 0.969 1 0.053 0.052 0.104 0.104 0.156 0.156 0.23 0.237 0.455 0.484 0.688 0.719 0.048 0.046 0.108 0.079 0.156 0.125 0.052 0.052 0.104 0.105 0.156 0.156 0.23 0.237 0.455 0.484 0.688 0.719 0.047 0.046 0.109 0.079 0.156 0.125 0.278 0.287 0.563 0.56 0.844 0.844 0.053 0.051 0.103 0.105 0.156 0.156 0.278 0.287 0.563 0.56 0.844 0.844 0.185 0.18 0.376 0.353 0.563 0.531 0.15 0.154 0.287 0.316 0.438 0.469 0.047 0.046 0.109 0.079 0.156 0.125 0.322 0.333 0.643 0.671 0.969 1 0.053 0.052 0.104 0.104 0.156 0.156 0.23 0.237 0.455 0.484 0.688 0.719 0.048 0.046 0.108 0.079 0.156 0.125 0.052 0.052 0.104 0.105 0.156 0.156 0.23 0.237 0.455 0.484 0.688 0.719 0.047 0.046 0.109 0.079 0.156 0.125 0.052 0.052 0.104 0.105 0.156 0.156 0.23 0.237 0.455 0.484 0.688 0.719 0.047 0.046 0.109 0.079 0.156 0.125 0.13 0.131 0.276 0.244 0.406 0.375 0.15 0.154 0.287 0.316 0.438 0.469 0.026 0.026 0.067 0.036 0.094 0.063 0.053 0.051 0.103 0.105 0.156 0.156 0.253 0.26 0.495 0.523 0.75 0.781 0.048 0.046 0.108 0.079 0.156 0.125 0.279 0.288 0.562 0.59 0.844 0.875 0.042 0.041 0.082 0.084 0.125 0.125 0.053 0.052 0.104 0.104 0.156 0.156 0.23 0.237 0.455 0.484 0.688 0.719 0.048 0.046 0.108 0.079 0.156 0.125 0.053 0.052 0.104 0.104 0.156 0.156 0.23 0.237 0.455 0.484 0.688 0.719 0.048 0.046 0.108 0.079 0.156 0.125 0.052 0.052 0.104 0.105 0.156 0.156 0.23 0.237 0.455 0.484 0.688 0.719 0.047 0.046 0.109 0.079 0.156 0.125 0.278 0.287 0.563 0.56 0.844 0.844 0.026 0.026 0.036 0.068 0.063 0.094 0.053 0.051 0.134 0.074 0.188 0.125 0.253 0.26 0.495 0.523 0.75 0.781 0.048 0.046 0.108 0.079 0.156 0.125 0.279 0.288 0.562 0.59 0.844 0.875 0.047 0.046 0.109 0.079 0.156 0.125 0.322 0.333 0.643 0.671 0.969 1 0.053 0.052 0.104 0.104 0.156 0.156 0.23 0.237 0.455 0.484 0.688 0.719 0.048 0.046 0.108 0.079 0.156 0.125 0.052 0.052 0.104 0.105 0.156 0.156 0.23 0.237 0.455 0.484 0.688 0.719 0.047 0.046 0.109 0.079 0.156 0.125 0.13 0.131 0.276 0.244 0.406 0.375 0.15 0.154 0.287 0.316 0.438 0.469 0.026 0.026 0.067 0.036 0.094 0.063 0.026 0.026 0.037 0.068 0.063 0.094 0.027 0.026 0.067 0.037 0.094 0.063 0.253 0.26 0.495 0.523 0.75 0.781 0.048 0.046 0.108 0.079 0.156 0.125 0.283 0.292 0.558 0.585 0.844 0.875 0.047 0.046 0.109 0.079 0.156 0.125 0.322 0.333 0.643 0.671 0.969 1 0.053 0.052 0.104 0.104 0.156 0.156 0.23 0.237 0.455 0.484 0.688 0.719 0.048 0.046 0.108 0.079 0.156 0.125 0.052 0.052 0.104 0.105 0.156 0.156 0.23 0.237 0.455 0.484 0.688 0.719 0.047 0.046 0.109 0.079 0.156 0.125 0.278 0.287 0.563 0.56 0.844 0.844 0.053 0.051 0.103 0.105 0.156 0.156 0.278 0.287 0.563 0.56 0.844 0.844 0.185 0.18 0.376 0.353 0.563 0.531 0.15 0.154 0.287 0.316 0.438 0.469 0.047 0.046 0.109 0.079 0.156 0.125 0.322 0.333 0.643 0.671 0.969 1 0.053 0.052 0.104 0.104 0.156 0.156 0.23 0.237 0.455 0.484 0.688 0.719 0.048 0.046 0.108 0.079 0.156 0.125 0.052 0.052 0.104 0.105 0.156 0.156 0.23 0.237 0.455 0.484 0.688 0.719 0.047 0.046 0.109 0.079 0.156 0.125 0.052 0.052 0.104 0.105 0.156 0.156 0.23 0.237 0.455 0.484 0.688 0.719 0.047 0.046 0.109 0.079 0.156 0.125 0.13 0.131 0.276 0.244 0.406 0.375 0.15 0.154 0.287 0.316 0.438 0.469 0.026 0.026 0.067 0.036 0.094 0.063 0.053 0.051 0.103 0.105 0.156 0.156 0.253 0.26 0.495 0.523 0.75 0.781 0.048 0.046 0.108 0.079 0.156 0.125 0.279 0.288 0.562 0.59 0.844 0.875 0.042 0.041 0.082 0.084 0.125 0.125 0.053 0.052 0.104 0.104 0.156 0.156 0.23 0.237 0.455 0.484 0.688 0.719 0.048 0.046 0.108 0.079 0.156 0.125 0.053 0.052 0.104 0.104 0.156 0.156 0.23 0.237 0.455 0.484 0.688 0.719 0.048 0.046 0.108 0.079 0.156 0.125 0.052 0.052 0.104 0.105 0.156 0.156 0.23 0.237 0.455 0.484 0.688 0.719 0.047 0.046 0.109 0.079 0.156 0.125 0.278 0.287 0.563 0.56 0.844 0.844 0.026 0.026 0.036 0.068 0.063 0.094 0.053 0.051 0.134 0.074 0.188 0.125 0.253 0.26 0.495 0.523 0.75 0.781 0.048 0.046 0.108 0.079 0.156 0.125 0.283 0.292 0.558 0.585 0.844 0.875 0.047 0.046 0.109 0.079 0.156 0.125 0.322 0.333 0.643 0.671 0.969 1 0.053 0.052 0.104 0.104 0.156 0.156 0.23 0.237 0.455 0.484 0.688 0.719 0.048 0.046 0.108 0.079 0.156 0.125 0.052 0.052 0.104 0.105 0.156 0.156 0.23 0.237 0.455 0.484 0.688 0.719 0.047 0.046 0.109 0.079 0.156 0.125 0.13 0.131 0.276 0.244 0.406 0.375 0.15 0.154 0.287 0.316 0.438 0.469 0.026 0.026 0.067 0.036 0.094 0.063 0.026 0.026 0.037 0.068 0.063 0.094 0.027 0.026 0.067 0.037 0.094 0.063 0.253 0.26 0.495 0.523 0.75 0.781 0.048 0.046 0.108 0.079 0.156 0.125 0.283 0.292 0.558 0.585 0.844 0.875 0.047 0.046 0.109 0.079 0.156 0.125 0.322 0.333 0.643 0.671 0.969 1 0.053 0.052 0.104 0.104 0.156 0.156 0.23 0.237 0.455 0.484 0.688 0.719 0.048 0.046 0.108 0.079 0.156 0.125 0.052 0.052 0.104 0.105 0.156 0.156 0.23 0.237 0.455 0.484 0.688 0.719 0.047 0.046 0.109 0.079 0.156 0.125 0.278 0.287 0.563 0.56 0.844 0.844 0.053 0.051 0.103 0.105 0.156 0.156 0.278 0.287 0.563 0.56 0.844 0.844 0.185 0.18 0.376 0.353 0.563 0.531 0.15 0.154 0.287 0.316 0.438 0.469 0.047 0.046 0.109 0.079 0.156 0.125 0.279 0.288 0.562 0.59 0.844 0.875 0.042 0.041 0.082 0.084 0.125 0.125 0.053 0.052 0.104 0.104 0.156 0.156 0.23 0.237 0.455 0.484 0.688 0.719 0.048 0.046 0.108 0.079 0.156 0.125 0.053 0.052 0.104 0.104 0.156 0.156 0.23 0.237 0.455 0.484 0.688 0.719 0.048 0.046 0.108 0.079 0.156 0.125 0.052 0.052 0.104 0.105 0.156 0.156 0.23 0.237 0.455 0.484 0.688 0.719 0.047 0.046 0.109 0.079 0.156 0.125 0.13 0.131 0.276 0.244 0.406 0.375 0.15 0.154 0.287 0.316 0.438 0.469 0.026 0.026 0.067 0.036 0.094 0.063 0.053 0.051 0.103 0.105 0.156 0.156 0.253 0.26 0.495 0.523 0.75 0.781 0.048 0.046 0.108 0.079 0.156 0.125 0.279 0.288 0.562 0.59 0.844 0.875 0.042 0.041 0.082 0.084 0.125 0.125 0.053 0.052 0.104 0.104 0.156 0.156 0.23 0.237 0.455 0.484 0.688 0.719 0.048 0.046 0.108 0.079 0.156 0.125 0.053 0.052 0.104 0.104 0.156 0.156 0.23 0.237 0.455 0.484 0.688 0.719 0.048 0.046 0.108 0.079 0.156 0.125 0.052 0.052 0.104 0.105 0.156 0.156 0.23 0.237 0.455 0.484 0.688 0.719 0.047 0.046 0.109 0.079 0.156 0.125 0.278 0.287 0.563 0.56 0.844 0.844 0.026 0.026 0.036 0.068 0.063 0.094 0.053 0.051 0.134 0.074 0.188 0.125 0.253 0.26 0.495 0.523 0.75 0.781 0.048 0.046 0.108 0.079 0.156 0.125 0.283 0.292 0.558 0.585 0.844 0.875 0.047 0.046 0.109 0.079 0.156 0.125 0.322 0.333 0.643 0.671 0.969 1 0.053 0.052 0.104 0.104 0.156 0.156 0.23 0.237 0.455 0.484 0.688 0.719 0.048 0.046 0.108 0.079 0.156 0.125 0.052 0.052 0.104 0.105 0.156 0.156 0.23 0.237 0.455 0.484 0.688 0.719 0.047 0.046 0.109 0.079 0.156 0.125 0.278 0.287 0.563 0.56 0.844 0.844 0.053 0.051 0.103 0.105 0.156 0.156 0.278 0.287 0.563 0.56 0.844 0.844 0.185 0.18 0.376 0.353 0.563 0.531 0.15 0.154 0.287 0.316 0.438 0.469 0.047 0.046 0.109 0.079 0.156 0.125 0.322 0.333 0.643 0.671 0.969 1 0.053 0.052 0.104 0.104 0.156 0.156 0.23 0.237 0.455 0.484 0.688 0.719 0.048 0.046 0.108 0.079 0.156 0.125 0.052 0.052 0.104 0.105 0.156 0.156 0.23 0.237 0.455 0.484 0.688 0.719 0.047 0.046 0.109 0.079 0.156 0.125 0.052 0.052 0.104 0.105 0.156 0.156 0.23 0.237 0.455 0.484 0.688 0.719 0.047 0.046 0.109 0.079 0.156 0.125 0.278 0.287 0.563 0.56 0.844 0.844 0.026 0.026 0.036 0.068 0.063 0.094 0.053 0.051 0.134 0.074 0.188 0.125 0.253 0.26 0.495 0.523 0.75 0.781 0.048 0.046 0.108 0.079 0.156 0.125 0.279 0.288 0.562 0.59 0.844 0.875 0.042 0.041 0.082 0.084 0.125 0.125 0.053 0.052 0.104 0.104 0.156 0.156 0.23 0.237 0.455 0.484 0.688 0.719 0.048 0.046 0.108 0.079 0.156 0.125 0.053 0.052 0.104 0.104 0.156 0.156 0.23 0.237 0.455 0.484 0.688 0.719 0.048 0.046 0.108 0.079 0.156 0.125 0.052 0.052 0.104 0.105 0.156 0.156 0.23 0.237 0.455 0.484 0.688 0.719 0.047 0.046 0.109 0.079 0.156 0.125 0.13 0.131 0.276 0.244 0.406 0.375 0.15 0.154 0.287 0.316 0.438 0.469 0.026 0.026 0.067 0.036 0.094 0.063 0.026 0.026 0.037 0.068 0.063 0.094 0.027 0.026 0.067 0.037 0.094 0.063 0.253 0.26 0.495 0.523 0.75 0.781 0.048 0.046 0.108 0.079 0.156 0.125 0.279 0.288 0.562 0.59 0.844 0.875 0.047 0.046 0.109 0.079 0.156 0.125 0.148 0.153 0.289 0.315 0.438 0.469 98.16-11.621 176.41-88.18 190.59-185.53-0.133-0.13-0.271-0.246-0.406-0.375-0.159-0.138-0.307-0.303-0.469-0.438-0.006-0.005-0.026 0.005-0.031 0-0.299-0.299-0.624-0.591-0.938-0.875-0.297-0.297-0.626-0.561-0.938-0.844-0.295-0.295-0.628-0.595-0.938-0.875-0.298-0.298-0.625-0.592-0.938-0.875-0.428-0.428-0.886-0.823-1.344-1.219-0.348-0.333-0.696-0.656-1.063-0.969-0.307-0.29-0.616-0.569-0.938-0.844-0.146-0.138-0.289-0.272-0.438-0.406-0.452-0.452-0.92-0.865-1.406-1.281-0.155-0.147-0.31-0.295-0.469-0.438-0.298-0.298-0.624-0.562-0.938-0.844-0.442-0.442-0.9-0.875-1.375-1.281-0.304-0.289-0.619-0.571-0.938-0.844-0.166-0.158-0.33-0.316-0.5-0.469-0.301-0.301-0.621-0.591-0.938-0.875-0.298-0.298-0.623-0.562-0.938-0.844-0.301-0.301-0.62-0.591-0.938-0.875-0.294-0.294-0.628-0.566-0.938-0.844-0.301-0.301-0.62-0.591-0.938-0.875-0.3-0.3-0.621-0.562-0.938-0.844-0.403-0.403-0.849-0.785-1.281-1.156-0.404-0.389-0.817-0.768-1.25-1.125-0.109-0.101-0.202-0.214-0.313-0.313-0.187-0.187-0.4-0.351-0.594-0.531-0.097-0.08-0.183-0.172-0.281-0.25-0.224-0.201-0.424-0.433-0.656-0.625-0.115-0.106-0.227-0.209-0.344-0.313-0.183-0.183-0.373-0.355-0.563-0.531-0.018-0.015-0.045-0.017-0.063-0.031-0.108-0.1-0.202-0.215-0.313-0.313-0.476-0.476-0.981-0.915-1.5-1.344-0.13-0.121-0.242-0.257-0.375-0.375-0.299-0.299-0.62-0.563-0.938-0.844-0.298-0.298-0.621-0.596-0.938-0.875-0.297-0.297-0.622-0.565-0.938-0.844-0.207-0.207-0.441-0.396-0.656-0.594-0.063-0.051-0.124-0.106-0.188-0.156-0.038-0.034-0.056-0.091-0.094-0.125-0.303-0.303-0.615-0.592-0.938-0.875-0.299-0.299-0.62-0.564-0.938-0.844-0.239-0.239-0.499-0.461-0.75-0.688-0.53-0.544-1.097-1.052-1.688-1.531-0.135-0.125-0.267-0.253-0.406-0.375-0.131-0.131-0.272-0.248-0.406-0.375-0.018-0.015-0.045-0.017-0.063-0.031-0.156-0.147-0.307-0.296-0.469-0.438-0.089-0.089-0.19-0.163-0.281-0.25-0.045-0.038-0.079-0.087-0.125-0.125-0.178-0.168-0.347-0.339-0.531-0.5-0.121-0.121-0.251-0.226-0.375-0.344-0.011-0.009-0.02-0.022-0.031-0.031-0.173-0.163-0.352-0.312-0.531-0.469-0.093-0.093-0.186-0.19-0.281-0.281-0.029-0.024-0.065-0.039-0.094-0.063-0.187-0.177-0.369-0.362-0.563-0.531-0.302-0.302-0.615-0.595-0.938-0.875-0.11-0.11-0.231-0.206-0.344-0.313-0.006-0.005-0.025 0.005-0.031 0-0.187-0.178-0.368-0.362-0.563-0.531-0.026-0.026-0.067-0.036-0.094-0.063-0.089-0.077-0.159-0.175-0.25-0.25-0.199-0.188-0.387-0.383-0.594-0.563-0.299-0.299-0.618-0.567-0.938-0.844-0.249-0.249-0.518-0.485-0.781-0.719-0.349-0.358-0.716-0.674-1.094-1-0.052-0.052-0.104-0.105-0.156-0.156-0.326-0.378-0.642-0.745-1-1.094-0.141-0.159-0.291-0.315-0.438-0.469-0.269-0.326-0.552-0.631-0.844-0.938-0.09-0.109-0.189-0.206-0.281-0.313-0.021-0.021-0.041-0.042-0.063-0.063-0.161-0.184-0.332-0.354-0.5-0.531-0.098-0.118-0.212-0.228-0.313-0.344l-0.031-0.031c-0.163-0.187-0.329-0.382-0.5-0.563-0.408-0.495-0.855-0.957-1.313-1.406-0.244-0.275-0.49-0.553-0.75-0.813-0.166-0.19-0.326-0.379-0.5-0.563-0.109-0.132-0.232-0.246-0.344-0.375l-0.031-0.031c-0.151-0.173-0.311-0.333-0.469-0.5-0.019-0.023-0.044-0.04-0.063-0.063-0.107-0.113-0.202-0.234-0.313-0.344-0.156-0.178-0.306-0.359-0.469-0.531-0.117-0.142-0.254-0.267-0.375-0.406-0.124-0.124-0.248-0.255-0.375-0.375-0.04-0.044-0.053-0.113-0.094-0.156-0.46-0.558-0.95-1.091-1.469-1.594-0.079-0.087-0.17-0.165-0.25-0.25-0.132-0.16-0.269-0.313-0.406-0.469l-0.094-0.094c-0.113-0.127-0.227-0.251-0.344-0.375-0.132-0.16-0.269-0.313-0.406-0.469-0.058-0.058-0.129-0.099-0.188-0.156-0.084-0.094-0.164-0.189-0.25-0.281-0.14-0.169-0.292-0.335-0.438-0.5-0.016-0.016-0.047-0.015-0.063-0.031-0.117-0.131-0.224-0.278-0.344-0.406-0.263-0.319-0.562-0.604-0.844-0.906-0.148-0.18-0.314-0.357-0.469-0.531-0.057-0.057-0.129-0.099-0.188-0.156-0.073-0.081-0.144-0.17-0.219-0.25-0.151-0.183-0.311-0.353-0.469-0.531-0.021-0.021-0.041-0.042-0.063-0.063-0.104-0.116-0.206-0.23-0.313-0.344-0.151-0.183-0.312-0.353-0.469-0.531-0.057-0.057-0.13-0.1-0.188-0.156-0.065-0.072-0.122-0.148-0.188-0.219-0.16-0.194-0.333-0.374-0.5-0.563l-0.031-0.031c-0.103-0.116-0.207-0.23-0.313-0.344-0.16-0.194-0.333-0.375-0.5-0.563-0.093-0.093-0.187-0.19-0.281-0.281-0.025-0.027-0.037-0.067-0.063-0.094-0.266-0.322-0.56-0.601-0.844-0.906-0.169-0.204-0.355-0.396-0.531-0.594-0.047-0.047-0.109-0.078-0.156-0.125-0.064-0.071-0.122-0.149-0.188-0.219-0.17-0.206-0.354-0.394-0.531-0.594-0.104-0.104-0.207-0.211-0.313-0.313-0.357-0.433-0.736-0.846-1.125-1.25-0.371-0.432-0.754-0.879-1.156-1.281-0.282-0.316-0.544-0.638-0.844-0.938-0.284-0.318-0.574-0.636-0.875-0.938-0.317-0.353-0.631-0.73-0.969-1.063-0.247-0.272-0.491-0.553-0.75-0.813-0.282-0.314-0.545-0.639-0.844-0.938-0.284-0.317-0.574-0.637-0.875-0.938-0.153-0.17-0.311-0.334-0.469-0.5-0.272-0.319-0.555-0.634-0.844-0.938-0.406-0.475-0.84-0.933-1.281-1.375-0.282-0.313-0.546-0.639-0.844-0.938-0.143-0.159-0.291-0.314-0.438-0.469-0.416-0.486-0.829-0.954-1.281-1.406-0.134-0.149-0.269-0.292-0.406-0.438-0.274-0.321-0.553-0.631-0.844-0.938-0.313-0.367-0.635-0.715-0.969-1.063-0.406-0.468-0.811-0.938-1.25-1.375-0.273-0.301-0.557-0.619-0.844-0.906-0.28-0.309-0.58-0.642-0.875-0.938-0.282-0.311-0.547-0.64-0.844-0.938-0.284-0.314-0.576-0.638-0.875-0.938-0.005-0.006 0.005-0.025 0-0.031-0.281-0.31-0.548-0.61-0.844-0.906-0.144-0.159-0.289-0.313-0.438-0.469-0.414-0.479-0.834-0.927-1.281-1.375-0.005-0.006 0.005-0.025 0-0.031-0.278-0.305-0.552-0.614-0.844-0.906-0.005-0.006 0.005-0.025 0-0.031-0.135-0.148-0.268-0.292-0.406-0.438-0.411-0.475-0.838-0.929-1.281-1.375-0.014-0.017-0.017-0.045-0.031-0.063-0.08-0.088-0.169-0.163-0.25-0.25-0.325-0.382-0.654-0.761-1-1.125-0.408-0.471-0.843-0.901-1.281-1.344-0.015-0.018-0.017-0.045-0.031-0.063-0.015-0.016-0.047-0.015-0.063-0.031-0.11-0.11-0.201-0.236-0.313-0.344-0.317-0.368-0.633-0.743-0.969-1.094-0.371-0.424-0.76-0.849-1.156-1.25-0.024-0.029-0.039-0.065-0.063-0.094-0.104-0.114-0.207-0.231-0.313-0.344-0.332-0.386-0.679-0.757-1.031-1.125-0.314-0.358-0.638-0.721-0.969-1.063-0.244-0.276-0.496-0.546-0.75-0.813-0.359-0.41-0.743-0.799-1.125-1.188-0.024-0.029-0.039-0.065-0.063-0.094l-0.031-0.031c-0.028-0.034-0.065-0.06-0.094-0.094-0.062-0.062-0.125-0.126-0.188-0.188-0.337-0.393-0.674-0.781-1.031-1.156-0.285-0.325-0.577-0.656-0.875-0.969-0.272-0.311-0.559-0.607-0.844-0.906-0.269-0.307-0.532-0.61-0.813-0.906-0.371-0.425-0.763-0.815-1.156-1.219-0.033-0.04-0.06-0.085-0.094-0.125-0.01-0.011-0.021-0.021-0.031-0.031-0.075-0.082-0.143-0.169-0.219-0.25-0.303-0.355-0.619-0.691-0.938-1.031-0.328-0.38-0.686-0.731-1.031-1.094-0.256-0.292-0.515-0.593-0.781-0.875-0.316-0.363-0.636-0.714-0.969-1.063-0.291-0.33-0.602-0.651-0.906-0.969-0.374-0.423-0.73-0.848-1.125-1.25-0.059-0.065-0.128-0.123-0.188-0.188-0.074-0.074-0.144-0.146-0.219-0.219-0.43-0.494-0.853-1-1.313-1.469-0.163-0.18-0.333-0.355-0.5-0.531-0.401-0.456-0.793-0.911-1.219-1.344-0.06-0.066-0.127-0.122-0.188-0.188-0.062-0.062-0.125-0.126-0.188-0.188-0.281-0.324-0.55-0.656-0.844-0.969-0.359-0.412-0.746-0.794-1.125-1.188-0.052-0.063-0.104-0.125-0.156-0.188-0.052-0.053-0.104-0.103-0.156-0.156-0.394-0.464-0.801-0.902-1.219-1.344-0.302-0.344-0.621-0.668-0.938-1-0.262-0.296-0.509-0.588-0.781-0.875-0.271-0.308-0.562-0.608-0.844-0.906-0.414-0.472-0.811-0.958-1.25-1.406-0.279-0.307-0.553-0.609-0.844-0.906-0.088-0.097-0.192-0.186-0.281-0.281l-0.031-0.031c-0.457-0.527-0.919-1.064-1.406-1.563-0.143-0.158-0.291-0.314-0.438-0.469-0.277-0.316-0.555-0.631-0.844-0.938-0.321-0.365-0.665-0.711-1-1.063-0.275-0.31-0.558-0.606-0.844-0.906-0.062-0.075-0.125-0.145-0.188-0.219-0.036-0.038-0.057-0.088-0.094-0.125-0.088-0.097-0.192-0.185-0.281-0.281-0.469-0.542-0.937-1.081-1.438-1.594-0.134-0.148-0.27-0.292-0.406-0.438-0.306-0.35-0.618-0.694-0.938-1.031-0.25-0.283-0.523-0.537-0.781-0.813-0.247-0.282-0.494-0.569-0.75-0.844-0.457-0.526-0.92-1.032-1.406-1.531-0.28-0.308-0.554-0.639-0.844-0.938-0.281-0.31-0.552-0.638-0.844-0.938-0.284-0.313-0.58-0.635-0.875-0.938-0.284-0.313-0.549-0.634-0.844-0.938-0.119-0.131-0.254-0.246-0.375-0.375-0.334-0.382-0.682-0.757-1.031-1.125-6.979-7.875-17.15-12.844-28.5-12.844-13.894 0-26.04 7.447-32.688 18.563v-0.625c-0.325-0.018-0.644-0.016-0.969-0.031v-0.938c-0.333-0.019-0.668-0.046-1-0.063v-0.938c-0.333-0.019-0.668-0.046-1-0.063v-0.938c-0.333-0.019-0.668-0.046-1-0.063v-0.938c-0.332-0.019-0.668-0.015-1-0.031v-0.969c-0.335-0.019-0.665-0.015-1-0.031v-0.969c-0.335-0.019-0.665-0.015-1-0.031v-0.969c-0.325-0.018-0.644-0.016-0.969-0.031v-0.938c-0.333-0.019-0.668-0.046-1-0.063v-0.938c-0.333-0.019-0.668-0.046-1-0.063v-0.938c-0.333-0.019-0.668-0.046-1-0.063v-0.938c-0.332-0.019-0.668-0.015-1-0.031v-0.969c-0.335-0.019-0.665-0.015-1-0.031v-0.969c-0.325-0.018-0.644-0.016-0.969-0.031v-0.938c-0.333-0.019-0.668-0.046-1-0.063v-0.938c-0.333-0.019-0.668-0.046-1-0.063v-0.938c-0.333-0.019-0.668-0.046-1-0.063v-0.938c-0.332-0.019-0.668-0.015-1-0.031v-0.969c-0.335-0.019-0.665-0.015-1-0.031v-0.969c-0.325-0.018-0.644-0.016-0.969-0.031v-0.938c-0.333-0.019-0.668-0.046-1-0.063v-0.938c-0.333-0.019-0.668-0.046-1-0.063v-0.938c-0.333-0.019-0.668-0.046-1-0.063v-0.938c-0.332-0.019-0.668-0.015-1-0.031v-0.969c-0.335-0.019-0.665-0.015-1-0.031v-0.969c-0.325-0.018-0.644-0.016-0.969-0.031v-0.938h-0.031c-0.325-0.018-0.644-0.016-0.969-0.031v-0.969c-0.333-0.019-0.668-0.046-1-0.063v-0.938c-0.333-0.019-0.668-0.046-1-0.063v-0.938c-2.201-0.125-4.394-0.188-6.625-0.188"/>
  <path id="path10" fill-opacity=".067" d="m256 1c-140.83 0-255 114.17-255 255s114.17 255 255 255 255-114.17 255-255-114.17-255-255-255m8.827 44.931c120.9 0 218.9 98 218.9 218.9s-98 218.9-218.9 218.9-218.93-98-218.93-218.9 98.03-218.9 218.93-218.9"/>
  <g id="g12" fill-opacity=".129">
   <path id="path14" d="m256 4.433c-138.94 0-251.57 112.63-251.57 251.57s112.63 251.57 251.57 251.57 251.57-112.63 251.57-251.57-112.63-251.57-251.57-251.57m5.885 38.556c120.9 0 218.9 98 218.9 218.9s-98 218.9-218.9 218.9-218.93-98-218.93-218.9 98.03-218.9 218.93-218.9"/>
   <path id="path16" d="m256 8.356c-136.77 0-247.64 110.87-247.64 247.64s110.87 247.64 247.64 247.64 247.64-110.87 247.64-247.64-110.87-247.64-247.64-247.64m2.942 31.691c120.9 0 218.9 98 218.9 218.9s-98 218.9-218.9 218.9-218.93-98-218.93-218.9 98.03-218.9 218.93-218.9"/>
  </g>
  <path id="path18" d="m253.04 7.859c-135.42 0-245.19 109.78-245.19 245.19 0 135.42 109.78 245.19 245.19 245.19 135.42 0 245.19-109.78 245.19-245.19 0-135.42-109.78-245.19-245.19-245.19zm0 26.297c120.9 0 218.9 98 218.9 218.9s-98 218.9-218.9 218.9-218.93-98-218.93-218.9 98.03-218.9 218.93-218.9z" stroke-opacity=".31" stroke="#000" stroke-width="4.904" fill="#fff"/>
 </g>
 <text id="text20" style="word-spacing:0;letter-spacing:0" font-size="129.23px" line-height="125%" y="231.36" x="729.64001" font-family="Gentium Book Basic">
  <tspan id="tspan22" y="231.36" x="729.64001"/>
 </text>
 <text id="text24" style="text-anchor:middle" font-size="46.954px" transform="scale(4.0128 .2492)" y="579.25" x="378.91" font-family="Arial"/>
 <text id="text26" style="word-spacing:0;letter-spacing:0" font-size="129.23px" line-height="125%" y="151.36" x="1310.91" font-family="Gentium Book Basic">
  <tspan id="tspan28" y="151.36" x="1310.91"/>
 </text>
 <text id="text30" style="text-anchor:middle" font-size="46.954px" transform="scale(4.0128 .2492)" y="258.22" x="523.76001" font-family="Arial"/>
 <text id="text32" style="word-spacing:0;letter-spacing:0" font-size="129.23px" line-height="125%" y="-29.900999" x="239.33" font-family="Gentium Book Basic">
  <tspan id="tspan34" y="-29.900999" x="239.33"/>
 </text>
 <text id="text36" style="text-anchor:middle" font-size="46.954px" transform="scale(4.0128 .2492)" y="-469.14001" x="256.72" font-family="Arial"/>
 <text id="text38" style="word-spacing:0;letter-spacing:0" font-size="129.23px" line-height="125%" y="-246.37" x="1337.38" font-family="Gentium Book Basic">
  <tspan id="tspan40" y="-246.37" x="1337.38"/>
 </text>
 <text id="text42" style="text-anchor:middle" font-size="46.954px" transform="scale(4.0128 .2492)" y="-1337.8101" x="530.35999" font-family="Arial"/>
 <text id="text44" style="word-spacing:0;letter-spacing:0" font-size="129.23px" line-height="125%" y="-326.38" x="1918.65" font-family="Gentium Book Basic">
  <tspan id="tspan46" y="-326.38" x="1918.65"/>
 </text>
 <text id="text48" style="text-anchor:middle" font-size="46.954px" transform="scale(4.0128 .2492)" y="-1658.85" x="675.21002" font-family="Arial"/>
 <text id="text50" style="word-spacing:0;letter-spacing:0" font-size="129.23px" line-height="125%" y="-798.78003" x="1529.53" font-family="Gentium Book Basic">
  <tspan id="tspan52" y="-798.78003" x="1529.53"/>
 </text>
 <text id="text54" style="text-anchor:middle" font-size="46.954px" transform="scale(4.0128 .2492)" y="-3554.51" x="578.23999" font-family="Arial"/>
 <text id="text56" style="word-spacing:0;letter-spacing:0" font-size="129.23px" line-height="125%" y="-878.78003" x="2110.79" font-family="Gentium Book Basic">
  <tspan id="tspan58" y="-878.78003" x="2110.79"/>
 </text>
 <text id="text60" style="text-anchor:middle" font-size="46.954px" transform="scale(4.0128 .2492)" y="-3875.54" x="723.09003" font-family="Arial"/>
 <text id="text62" style="word-spacing:0;letter-spacing:0" font-size="208.33px" line-height="125%" y="535.94" x="277.98999" font-family="Gentium Book Basic">
  <tspan id="tspan64" y="535.94" x="277.98999"/>
 </text>
 <g id="g66" fill="#fff" transform="matrix(.78634 0 0 .78634 1185.5 -377.85)" fill-rule="evenodd">
  <path id="path68" d="m-1210.3 88.81c-86.05 0-155.81 73.886-155.81 165.03 0 90.97 69.49 164.75 155.31 165.03 0.167 0.001 0.333 0 0.5 0h171.53v-0.75h0.094v-201.47h-71.5l-54.656 75.66h-37.03v-203.25c-2.8-0.159-5.6-0.25-8.437-0.25" transform="translate(0,540.36)"/>
  <path id="path70" d="m-1088.2 145.37c0 24.798-20.1 44.901-44.901 44.901-24.798 0-44.901-20.1-44.901-44.901 0-24.798 20.1-44.901 44.901-44.901 24.798 0 44.901 20.1 44.901 44.901" transform="matrix(1.0787 0 0 1.0787 98.77 534.93)"/>
 </g>
</svg>
