<?xml version="1.0" encoding="UTF-8" standalone="no"?>
<!-- Created with Inkscape (http://www.inkscape.org/) -->
<svg id="svg2" xmlns:rdf="http://www.w3.org/1999/02/22-rdf-syntax-ns#" xmlns="http://www.w3.org/2000/svg" height="100%" viewBox="0 0 512 512" width="100%" version="1.1" xmlns:cc="http://creativecommons.org/ns#" xmlns:dc="http://purl.org/dc/elements/1.1/">
 <metadata id="metadata36">
  <rdf:RDF>
   <cc:Work rdf:about="">
    <dc:format>image/svg+xml</dc:format>
    <dc:type rdf:resource="http://purl.org/dc/dcmitype/StillImage"/>
   </cc:Work>
  </rdf:RDF>
 </metadata>
 <path id="path4" d="m471.95 253.05c0 120.9-98.01 218.9-218.9 218.9-120.9 0-218.9-98.01-218.9-218.9 0-120.9 98.01-218.9 218.9-218.9 120.9 0 218.9 98.01 218.9 218.9" fill-rule="evenodd" fill="#0078ad"/>
 <g id="g6" style="color:#000000">
  <path id="path8" opacity=".2" fill="#fff" d="m253.03 34.16c-5.509 0-10.968 0.194-16.375 0.594l-201.91 201.91c-0.401 5.416-0.625 10.888-0.625 16.406 0 4.084 0.154 8.127 0.375 12.156l230.72-230.72c-4.03-0.221-8.102-0.344-12.188-0.344m37.594 3.219-253.25 253.25c1.357 7.843 3.114 15.529 5.281 23.06l271.03-271.03c-7.526-2.166-15.227-3.925-23.06-5.281m-87.37 2.469c-15.15 3.523-29.679 8.639-43.44 15.13l-104.87 104.88c-6.48 13.747-11.572 28.27-15.09 43.41l163.41-163.41m131.44 10.06-284.81 284.81c2.667 6.629 5.659 13.12 8.938 19.406l295.28-295.28c-6.301-3.285-12.765-6.266-19.406-8.938m37.28 19.344-302.72 302.72c3.687 5.686 7.629 11.194 11.813 16.5l307.41-307.41c-5.306-4.184-10.814-8.126-16.5-11.813m31.688 24.938-309.47 309.47c4.6 4.851 9.414 9.461 14.438 13.875l308.91-308.91c-4.407-5.02-9.03-9.844-13.875-14.438m26.469 30.16-305.78 305.78c5.499 4 11.192 7.763 17.06 11.25l299.97-299.97c-3.491-5.877-7.241-11.557-11.25-17.06m21.03 35.563-291.28 291.28c6.526 3.074 13.235 5.821 20.09 8.25l279.47-279.47c-2.428-6.856-5.209-13.54-8.281-20.06m14.75 41.844-264.16 264.16c7.844 1.883 15.852 3.331 24 4.344l244.5-244.5c-1.014-8.154-2.458-16.15-4.344-24m6.03 50.594-219.62 219.63c0.241 0.001 0.477 0 0.719 0 10.04 0 19.941-0.722 29.625-2.031l187.28-187.28c1.31-9.684 2-19.551 2-29.594 0-0.24 0.001-0.479 0-0.719m-10.16 66.79-142.69 142.7c19.315-6.107 37.477-14.843 54.06-25.75l62.906-62.906c10.906-16.584 19.612-34.719 25.719-54.03"/>
  <path id="path10" fill-opacity=".235" d="m384.5 126.94-24.844 24.875c17.67 18.606 30.518 41.839 36.563 67.69-0.105-0.106-0.207-0.207-0.313-0.313h-0.031c-0.093-0.096-0.188-0.186-0.281-0.281-0.552-0.583-1.117-1.147-1.688-1.719l-0.031 0.031c-0.087-0.09-0.162-0.192-0.25-0.281-0.56-0.59-1.141-1.171-1.719-1.75l-0.031 0.031c-0.322-0.332-0.61-0.672-0.938-1l-0.031 0.031c-0.077-0.079-0.141-0.171-0.219-0.25-0.571-0.602-1.161-1.191-1.75-1.781l-0.031 0.031c-0.066-0.069-0.121-0.15-0.188-0.219-0.578-0.61-1.185-1.215-1.781-1.813l-0.031 0.031c-0.056-0.058-0.1-0.13-0.156-0.188-0.585-0.617-1.208-1.238-1.813-1.844l-0.031 0.031c-0.046-0.048-0.078-0.108-0.125-0.156-0.593-0.625-1.201-1.231-1.813-1.844l-0.031 0.031c-0.046-0.048-0.079-0.109-0.125-0.156-0.6-0.633-1.224-1.255-1.844-1.875l-0.031 0.031c-0.036-0.037-0.058-0.088-0.094-0.125-0.607-0.64-1.248-1.278-1.875-1.906l-0.031 0.031c-0.026-0.027-0.037-0.067-0.063-0.094-0.615-0.648-1.241-1.271-1.875-1.906l-0.031 0.031c-0.026-0.027-0.037-0.067-0.063-0.094-0.622-0.656-1.264-1.294-1.906-1.938l-0.031 0.031c-0.015-0.016-0.016-0.047-0.031-0.063-0.629-0.664-1.288-1.318-1.938-1.969l-0.031 0.031c-0.322-0.331-0.611-0.673-0.938-1l-0.031 0.031c-0.329-0.338-0.635-0.697-0.969-1.031l-0.031 0.031c-0.33-0.34-0.633-0.695-0.969-1.031l-0.031 0.031c-0.327-0.336-0.636-0.698-0.969-1.031l-0.031 0.031c-0.329-0.338-0.635-0.696-0.969-1.031l-0.031 0.031c-0.326-0.335-0.638-0.7-0.969-1.031l-0.031 0.031c-0.328-0.337-0.636-0.698-0.969-1.031l-0.031 0.031c-0.319-0.328-0.613-0.675-0.938-1l-0.031 0.031c-0.331-0.341-0.632-0.694-0.969-1.031l-0.031 0.031c-0.328-0.337-0.635-0.697-0.969-1.031l-0.031 0.031c-0.33-0.339-0.634-0.695-0.969-1.031l-0.031 0.031c-0.327-0.336-0.637-0.699-0.969-1.031l-0.031 0.031c-0.28-0.294-0.56-0.583-0.844-0.875-0.36-0.379-0.728-0.749-1.094-1.125h-0.031c-0.268-0.275-0.541-0.54-0.813-0.813-0.01-0.011-0.021-0.021-0.031-0.031-0.368-0.388-0.75-0.772-1.125-1.156h-0.031c-0.267-0.274-0.542-0.541-0.813-0.813-0.699-0.737-1.435-1.465-2.156-2.188l-0.031 0.031c-0.321-0.329-0.612-0.674-0.938-1l-0.031 0.031c-0.329-0.337-0.636-0.697-0.969-1.031l-0.031 0.031c-0.33-0.339-0.634-0.696-0.969-1.031l-0.031 0.031c-0.327-0.336-0.637-0.699-0.969-1.031l-0.031 0.031c-0.329-0.337-0.635-0.697-0.969-1.031l-0.031 0.031c-0.326-0.334-0.638-0.7-0.969-1.031l-0.031 0.031c-0.322-0.33-0.611-0.673-0.938-1l-0.031 0.031c-0.329-0.338-0.635-0.697-0.969-1.031l-0.031 0.031c-0.647-0.678-1.303-1.364-1.969-2.031l-23.12 23.19c0.36 0.361 0.71 0.729 1.063 1.094 0.105 0.177 0.089 0.41-0.063 0.563 0.409 0.41 0.819 0.803 1.219 1.219-0.038 0.157-0.096 0.283-0.219 0.406 0.419 0.419 0.841 0.856 1.25 1.281-0.065 0.134-0.139 0.263-0.25 0.375 0.424 0.425 0.836 0.85 1.25 1.281-0.075 0.125-0.142 0.267-0.25 0.375 0.431 0.432 0.86 0.843 1.281 1.281-0.084 0.128-0.2 0.231-0.313 0.344 0.436 0.437 0.856 0.901 1.281 1.344-0.08 0.109-0.183 0.214-0.281 0.313 0.432 0.433 0.86 0.873 1.281 1.313-0.087 0.114-0.177 0.239-0.281 0.344 0.429 0.43 0.863 0.845 1.281 1.281-0.092 0.119-0.172 0.234-0.281 0.344 0.432 0.433 0.86 0.873 1.281 1.313-0.092 0.115-0.175 0.237-0.281 0.344 0.434 0.435 0.858 0.871 1.281 1.313-0.092 0.112-0.177 0.239-0.281 0.344 0.436 0.437 0.856 0.869 1.281 1.313-0.091 0.108-0.179 0.21-0.281 0.313 0.439 0.44 0.854 0.897 1.281 1.344-0.089 0.104-0.183 0.214-0.281 0.313 0.436 0.436 0.857 0.869 1.281 1.313-0.096 0.112-0.207 0.238-0.313 0.344 0.433 0.434 0.859 0.872 1.281 1.313-0.095 0.108-0.178 0.209-0.281 0.313 0.431 0.432 0.861 0.874 1.281 1.313-0.097 0.111-0.176 0.238-0.281 0.344 0.438 0.439 0.854 0.898 1.281 1.344-0.093 0.105-0.181 0.212-0.281 0.313 0.435 0.436 0.858 0.87 1.281 1.313-0.094 0.105-0.18 0.212-0.281 0.313 0.438 0.439 0.886 0.867 1.313 1.313-0.104 0.117-0.201 0.232-0.313 0.344 0.435 0.435 0.858 0.87 1.281 1.313-0.095 0.105-0.18 0.211-0.281 0.313 0.438 0.438 0.855 0.898 1.281 1.344-0.096 0.105-0.18 0.211-0.281 0.313 0.434 0.435 0.858 0.87 1.281 1.313-0.102 0.112-0.205 0.236-0.313 0.344 0.432 0.433 0.861 0.873 1.281 1.313-0.095 0.103-0.181 0.212-0.281 0.313 0.259 0.259 0.527 0.519 0.781 0.781 0.09 0.277 0.163 0.566 0.25 0.844-0.01 0.011-0.021 0.021-0.031 0.031l0.063 0.063c2.921 9.347 4.3 19.05 4.188 28.75-0.002-0.002-0.443-0.416-0.5-0.469-0.156-0.193-0.315-0.361-0.5-0.531l-0.5-0.469c-0.154-0.19-0.318-0.364-0.5-0.531-0.002-0.002-0.533-0.508-0.625-0.594-0.12-0.136-0.24-0.282-0.375-0.406l-0.563-0.531c-0.137-0.162-0.279-0.323-0.438-0.469-0.002-0.002-0.414-0.387-0.469-0.438-0.157-0.193-0.346-0.392-0.531-0.563-0.002-0.002-0.413-0.385-0.469-0.438-0.158-0.195-0.345-0.391-0.531-0.563-0.002-0.002-0.411-0.384-0.469-0.438-0.159-0.196-0.312-0.358-0.5-0.531-0.002-0.002-0.523-0.499-0.625-0.594-0.123-0.141-0.236-0.278-0.375-0.406-0.002-0.002-0.409-0.382-0.469-0.438-0.161-0.198-0.341-0.387-0.531-0.563-0.002-0.002-0.407-0.381-0.469-0.438-0.162-0.199-0.34-0.386-0.531-0.563-0.002-0.002-0.429-0.403-0.5-0.469-0.154-0.186-0.32-0.366-0.5-0.531-0.002-0.002-0.491-0.468-0.594-0.563-0.126-0.144-0.264-0.306-0.406-0.438-0.002-0.002-0.379-0.352-0.438-0.406-0.165-0.203-0.336-0.383-0.531-0.563-0.002-0.002-0.423-0.398-0.5-0.469-0.157-0.189-0.317-0.363-0.5-0.531-0.002-0.002-0.377-0.35-0.438-0.406-0.171-0.213-0.358-0.406-0.563-0.594-0.002-0.002-0.481-0.458-0.594-0.563-0.129-0.148-0.26-0.303-0.406-0.438l-0.469-0.438c-0.159-0.193-0.345-0.391-0.531-0.563-0.002-0.002-0.371-0.345-0.438-0.406-0.167-0.205-0.366-0.412-0.563-0.594l-0.438-0.406c-0.168-0.206-0.333-0.38-0.531-0.563-0.002-0.002-0.468-0.446-0.594-0.563-0.132-0.151-0.257-0.3-0.406-0.438l-0.594-0.563c-0.133-0.152-0.256-0.299-0.406-0.438-0.002-0.002-0.363-0.337-0.438-0.406-0.171-0.209-0.361-0.408-0.563-0.594l-0.469-0.438c-0.163-0.196-0.341-0.388-0.531-0.563-0.002-0.002-0.433-0.411-0.563-0.531-0.136-0.155-0.285-0.328-0.438-0.469l-0.563-0.531c-0.136-0.155-0.284-0.327-0.438-0.469-0.002-0.002-0.35-0.326-0.438-0.406-0.166-0.199-0.338-0.385-0.531-0.563l-0.469-0.438c-0.167-0.201-0.337-0.384-0.531-0.563-0.002-0.002-0.344-0.32-0.438-0.406-0.174-0.213-0.358-0.405-0.563-0.594l-0.563-0.531c-0.139-0.159-0.28-0.324-0.438-0.469-0.002-0.002-0.334-0.31-0.438-0.406-0.169-0.204-0.365-0.412-0.563-0.594-0.002-0.002-0.329-0.306-0.438-0.406-0.17-0.205-0.364-0.411-0.563-0.594-0.002-0.002-0.322-0.3-0.438-0.406-0.169-0.203-0.334-0.381-0.531-0.563-0.002-0.002-0.375-0.358-0.563-0.531-0.142-0.162-0.277-0.321-0.438-0.469-0.002-0.002-0.311-0.289-0.438-0.406-0.173-0.208-0.361-0.408-0.563-0.594-0.002-0.001-0.304-0.283-0.438-0.406-0.172-0.206-0.362-0.409-0.563-0.594-0.002-0.002-0.294-0.274-0.438-0.406-0.173-0.208-0.361-0.408-0.563-0.594-0.002-0.002-0.321-0.305-0.531-0.5-0.145-0.166-0.305-0.349-0.469-0.5-0.002-0.002-0.306-0.292-0.531-0.5-0.146-0.167-0.273-0.317-0.438-0.469-0.002-0.002-0.269-0.25-0.438-0.406-0.176-0.211-0.358-0.406-0.563-0.594-0.002-0.001-0.245-0.225-0.406-0.375-0.184-0.224-0.377-0.426-0.594-0.625-0.002-0.002-0.274-0.262-0.531-0.5-0.148-0.169-0.301-0.346-0.469-0.5-0.002-0.002-0.264-0.253-0.531-0.5-0.149-0.17-0.301-0.345-0.469-0.5-0.002-0.001-0.207-0.19-0.406-0.375-0.179-0.215-0.385-0.433-0.594-0.625-0.002-0.002-0.186-0.169-0.375-0.344-0.188-0.229-0.373-0.422-0.594-0.625-0.002-0.002-0.563-0.531-0.563-0.531-0.143-0.161-0.278-0.322-0.438-0.469-0.001-0.001-0.375-0.344-0.375-0.344l-0.156-0.156c-0.152-0.174-0.297-0.342-0.469-0.5l-0.188-0.188-0.313-0.313c-0.153-0.175-0.327-0.341-0.5-0.5l-36.406-33.719c-1.306-1.2-3.042-1.82-4.813-1.719-3.465 0.197-6.179 3.06-6.188 6.531v61.875c-0.085 0.073-4.122 3.602-5.5 4.781h-0.031l-0.813-0.813-0.906-0.906c-0.007-0.007-0.729-0.728-0.875-0.875l-0.906-0.906c-0.007-0.007-0.731-0.73-0.875-0.875-0.007-0.007-0.733-0.732-0.875-0.875l-0.906-0.906-0.875-0.875c-0.007-0.007-0.759-0.758-0.906-0.906l-0.875-0.875c-0.007-0.007-0.739-0.738-0.875-0.875l-0.906-0.906-0.875-0.875c-0.007-0.007-0.743-0.742-0.875-0.875l-0.906-0.906-0.875-0.875-0.906-0.906c-0.014-0.014-1.29-1.288-1.75-1.75-0.014-0.014-1.316-1.314-1.781-1.781l-0.906-0.906-0.875-0.875c-0.007-0.007-0.753-0.752-0.875-0.875-0.007-0.007-0.777-0.776-0.906-0.906-0.007-0.007-0.755-0.754-0.875-0.875-0.326-0.327-1.438-1.469-1.438-1.469-0.049-0.049-0.194-0.163-0.25-0.219l-0.094-0.094c-0.014-0.014-1.342-1.341-1.781-1.781l-0.875-0.875-1.781-1.781-0.875-0.875-0.906-0.906-0.875-0.875-1.781-1.781-0.875-0.875-0.188-0.188-0.094-0.094-0.031-0.031c-0.006-0.006 0.006-0.025 0-0.031l-1.469-1.438-0.875-0.875-0.906-0.906-0.875-0.875-1.781-1.781-0.875-0.875-1.781-1.781-1.781-1.781-0.875-0.875-1.781-1.781-1.781-1.781-0.875-0.875-0.063-0.063-0.125-0.125-0.094-0.125-0.031-0.031-0.125-0.125-0.219-0.219-0.625-0.625h-0.031l-0.469-0.469-1.125-1.125-0.156-0.156-0.125-0.156-0.031-0.031-0.031-0.031-0.188-0.188-0.156-0.156-0.5-0.5-0.031-0.031h-0.031l-0.281-0.281-1.781-1.781-2.656-2.656-1.781-1.781-2.594-2.594-0.063-0.063c-0.034-0.035-2.744-2.739-4.438-4.438v-0.031l-0.031-0.031-0.219-0.219-0.219-0.219-1.438-1.438-0.469-0.438-0.281-0.281-1.781-1.781-2.656-2.656-0.813-0.813-3.625-3.625-0.75-0.75-0.125-0.125-0.156-0.156-0.281-0.281-0.063-0.063-0.031-0.063-1.656-1.656-1.375-1.344-0.063-0.063-0.219-0.219-0.688-0.688-0.156-0.156-0.063-0.094-0.031-0.031-0.031-0.031-0.031-0.031-1.094-1.094-0.906-0.906h-0.031l-3.594-3.594-0.063-0.063-0.125-0.125-3.03-3.03-1.719-1.75-1.031-1.031-0.031-0.031-2.531-2.531-4.406-4.406-7.938-7.938c-4.322-4.334-8.969-8.969-8.969-8.969-70.884 71.03-71.07 186.57-0.281 257.5 0.331 0.336 0.666 0.666 1 1 0.329 0.335 0.668 0.667 1 1 0.33 0.336 0.666 0.666 1 1 0.322 0.327 0.644 0.643 0.969 0.969 0.33 0.336 0.667 0.666 1 1 0.332 0.338 0.665 0.664 1 1 0.33 0.336 0.667 0.666 1 1 0.33 0.336 0.667 0.666 1 1 0.33 0.336 0.667 0.666 1 1 0.321 0.327 0.645 0.644 0.969 0.969 0.331 0.337 0.665 0.665 1 1 0.331 0.337 0.666 0.665 1 1 0.329 0.335 0.667 0.667 1 1 0.331 0.337 0.666 0.665 1 1 0.329 0.335 0.668 0.667 1 1 0.322 0.328 0.643 0.643 0.969 0.969 0.005 0.005 0.026-0.005 0.031 0 0.649 0.672 1.306 1.336 1.969 2 0.33 0.337 0.666 0.666 1 1l0.031-0.031c0.33 0.337 0.635 0.697 0.969 1.031l0.031-0.031c0.646 0.67 1.277 1.338 1.938 2l0.031-0.031c0.656 0.681 1.298 1.36 1.969 2.031l0.031-0.031c0.041 0.043 0.084 0.082 0.125 0.125 0.291 0.296 0.55 0.612 0.844 0.906l0.031-0.031c0.652 0.676 1.303 1.364 1.969 2.031l0.031-0.031c0.051 0.054 0.105 0.103 0.156 0.156 0.278 0.283 0.531 0.593 0.813 0.875l0.031-0.031c0.644 0.669 1.279 1.34 1.938 2l0.031-0.031c0.071 0.075 0.148 0.144 0.219 0.219 0.072 0.074 0.147 0.145 0.219 0.219 0.02 0.021 0.042 0.041 0.063 0.063 0.493 0.508 0.967 1.029 1.469 1.531 0.329 0.335 0.668 0.667 1 1l0.031-0.031c0.081 0.086 0.169 0.164 0.25 0.25 0.062 0.064 0.126 0.124 0.188 0.188 0.015 0.016 0.016 0.046 0.031 0.063 0.49 0.505 0.97 1 1.469 1.5 0.33 0.337 0.666 0.665 1 1l0.031-0.031c0.652 0.679 1.301 1.362 1.969 2.031l0.031-0.031c0.112 0.119 0.232 0.225 0.344 0.344 0.542 0.56 1.072 1.134 1.625 1.688 0.321 0.328 0.644 0.643 0.969 0.969l0.031-0.031c0.123 0.128 0.252 0.248 0.375 0.375 0.01 0.011 0.021 0.021 0.031 0.031 0.524 0.542 1.028 1.09 1.563 1.625 0.329 0.336 0.667 0.666 1 1l0.031-0.031c0.649 0.677 1.303 1.364 1.969 2.031 0.327 0.334 0.669 0.669 1 1 0.322 0.329 0.643 0.642 0.969 0.969 0.33 0.338 0.665 0.665 1 1l0.031-0.031c0.652 0.681 1.3 1.361 1.969 2.031 0.328 0.335 0.668 0.667 1 1l0.031-0.031c0.102 0.107 0.21 0.206 0.313 0.313 0.082 0.086 0.168 0.164 0.25 0.25 0.464 0.479 0.902 0.964 1.375 1.438 0.329 0.337 0.666 0.666 1 1 0.331 0.339 0.664 0.663 1 1 0.329 0.337 0.666 0.666 1 1 0.327 0.335 0.669 0.668 1 1 0.329 0.337 0.667 0.666 1 1 0.321 0.328 0.644 0.643 0.969 0.969 0.329 0.337 0.667 0.666 1 1 0.331 0.339 0.665 0.664 1 1 0.328 0.336 0.667 0.667 1 1 0.33 0.339 0.665 0.664 1 1 0.328 0.336 0.667 0.667 1 1 0.32 0.328 0.644 0.644 0.969 0.969 0.332 0.341 0.663 0.662 1 1 0.33 0.338 0.666 0.665 1 1 0.327 0.336 0.668 0.667 1 1 0.329 0.338 0.666 0.665 1 1 0.644 0.677 1.337 1.335 2 2 0.321 0.329 0.643 0.642 0.969 0.969 0.329 0.337 0.666 0.666 1 1 0.331 0.34 0.664 0.663 1 1 0.328 0.337 0.667 0.666 1 1 0.326 0.335 0.669 0.669 1 1 0.328 0.337 0.667 0.666 1 1 0.64 0.675 1.308 1.307 1.969 1.969l0.031-0.031c0.33 0.339 0.633 0.695 0.969 1.031l0.031-0.031c0.644 0.68 1.303 1.365 1.969 2.031l0.031-0.031c0.02 0.022 0.042 0.041 0.063 0.063 0.118 0.121 0.229 0.25 0.344 0.375 13.843 2.744 28.13 4.219 42.781 4.219 120.9 0 218.91-98.01 218.91-218.91 0-14.662-1.439-28.99-4.188-42.844-0.214-0.233-0.431-0.462-0.656-0.688l-0.031 0.031c-0.332-0.338-0.633-0.695-0.969-1.031l-0.031 0.031c-0.329-0.335-0.636-0.698-0.969-1.031l-0.031 0.031c-0.329-0.335-0.636-0.698-0.969-1.031l-0.031 0.031c-0.329-0.335-0.636-0.698-0.969-1.031l-0.031 0.031c-0.322-0.328-0.612-0.674-0.938-1l-0.031 0.031c-0.332-0.338-0.633-0.695-0.969-1.031l-0.031 0.031c-0.332-0.338-0.633-0.695-0.969-1.031l-0.031 0.031c-0.329-0.335-0.636-0.698-0.969-1.031l-0.031 0.031c-0.329-0.335-0.636-0.698-0.969-1.031l-0.031 0.031c-0.329-0.335-0.636-0.698-0.969-1.031l-0.031 0.031c-0.322-0.328-0.612-0.674-0.938-1l-0.031 0.031c-0.332-0.338-0.633-0.695-0.969-1.031l-0.031 0.031c-0.655-0.677-1.301-1.362-1.969-2.031l-0.031 0.031c-0.329-0.335-0.636-0.698-0.969-1.031l-0.031 0.031c-0.329-0.335-0.636-0.698-0.969-1.031l-0.031 0.031c-0.329-0.335-0.636-0.698-0.969-1.031l-0.031 0.031c-0.322-0.328-0.612-0.674-0.938-1l-0.031 0.031c-0.655-0.677-1.301-1.362-1.969-2.031l-0.031 0.031c-0.329-0.335-0.636-0.698-0.969-1.031l-0.031 0.031c-0.329-0.335-0.636-0.698-0.969-1.031l-0.031 0.031c-0.329-0.335-0.636-0.698-0.969-1.031l-0.031 0.031c-0.322-0.328-0.612-0.674-0.938-1l-0.031 0.031c-0.332-0.338-0.633-0.695-0.969-1.031l-0.031 0.031c-0.332-0.338-0.633-0.695-0.969-1.031l-0.031 0.031c-0.329-0.335-0.636-0.698-0.969-1.031l-0.031 0.031c-0.329-0.335-0.636-0.698-0.969-1.031l-0.031 0.031c-0.329-0.335-0.636-0.698-0.969-1.031l-0.031 0.031c-0.322-0.328-0.612-0.674-0.938-1l-0.031 0.031c-0.332-0.338-0.633-0.695-0.969-1.031l-0.031 0.031c-0.655-0.677-1.301-1.362-1.969-2.031l-0.031 0.031c-0.329-0.335-0.636-0.698-0.969-1.031l-0.031 0.031c-0.329-0.335-0.636-0.698-0.969-1.031l-0.031 0.031c-0.322-0.328-0.612-0.674-0.938-1l-0.031 0.031c-0.332-0.338-0.633-0.695-0.969-1.031l-0.031 0.031c-0.655-0.677-1.301-1.362-1.969-2.031l-0.031 0.031c-0.329-0.335-0.636-0.698-0.969-1.031l-0.031 0.031c-0.329-0.335-0.636-0.698-0.969-1.031l-0.031 0.031c-0.329-0.335-0.636-0.698-0.969-1.031l-0.031 0.031c-0.322-0.328-0.612-0.674-0.938-1l-0.031 0.031c-0.332-0.338-0.633-0.695-0.969-1.031l-0.031 0.031c-0.332-0.338-0.633-0.695-0.969-1.031l-0.031 0.031c-0.329-0.335-0.636-0.698-0.969-1.031l-0.031 0.031c-0.329-0.335-0.636-0.698-0.969-1.031l-0.031 0.031c-0.329-0.335-0.636-0.698-0.969-1.031l-0.031 0.031c-0.322-0.328-0.612-0.674-0.938-1l-0.031 0.031c-0.332-0.338-0.633-0.695-0.969-1.031l-0.031 0.031c-0.332-0.338-0.633-0.695-0.969-1.031l-0.031 0.031c-0.329-0.335-0.636-0.698-0.969-1.031l-0.031 0.031c-0.329-0.335-0.636-0.698-0.969-1.031l-0.031 0.031c-0.329-0.335-0.636-0.698-0.969-1.031l-0.031 0.031c-0.322-0.328-0.612-0.674-0.938-1l-0.031 0.031c-0.332-0.338-0.633-0.695-0.969-1.031l-0.031 0.031c-0.655-0.677-1.301-1.362-1.969-2.031l-0.031 0.031c-0.329-0.335-0.636-0.698-0.969-1.031l-0.031 0.031c-0.329-0.335-0.636-0.698-0.969-1.031l-0.031 0.031c-0.329-0.335-0.636-0.698-0.969-1.031l-0.031 0.031c-0.322-0.328-0.612-0.674-0.938-1l-0.031 0.031c-0.655-0.677-1.301-1.362-1.969-2.031l-0.031 0.031c-0.329-0.335-0.636-0.698-0.969-1.031l-0.031 0.031c-0.329-0.335-0.636-0.698-0.969-1.031l-0.031 0.031c-0.329-0.335-0.636-0.698-0.969-1.031l-0.031 0.031c-0.322-0.328-0.612-0.674-0.938-1l-0.031 0.031c-0.332-0.338-0.633-0.695-0.969-1.031l-0.031 0.031c-0.332-0.338-0.633-0.695-0.969-1.031l-0.031 0.031c-0.329-0.335-0.636-0.698-0.969-1.031l-0.031 0.031c-0.329-0.335-0.636-0.698-0.969-1.031l-0.031 0.031c-0.329-0.335-0.636-0.698-0.969-1.031l-0.031 0.031c-0.322-0.328-0.612-0.674-0.938-1l-0.031 0.031c-0.332-0.338-0.633-0.695-0.969-1.031l-0.031 0.031c-0.655-0.677-1.301-1.362-1.969-2.031l-0.031 0.031c-0.329-0.335-0.636-0.698-0.969-1.031l-0.031 0.031c-0.329-0.335-0.636-0.698-0.969-1.031l-0.031 0.031c-0.322-0.328-0.612-0.674-0.938-1l-0.031 0.031c-0.332-0.338-0.633-0.695-0.969-1.031l-0.031 0.031c-0.655-0.677-1.301-1.362-1.969-2.031"/>
 </g>
 <g id="g12" fill-rule="evenodd">
  <path id="path14" fill-opacity=".067" d="m256 1c-140.83 0-255 114.17-255 255s114.17 255 255 255 255-114.17 255-255-114.17-255-255-255m8.827 44.931c120.9 0 218.9 98 218.9 218.9s-98 218.9-218.9 218.9-218.93-98-218.93-218.9 98.03-218.9 218.93-218.9"/>
  <g id="g16" fill-opacity=".129">
   <path id="path18" d="m256 4.433c-138.94 0-251.57 112.63-251.57 251.57s112.63 251.57 251.57 251.57 251.57-112.63 251.57-251.57-112.63-251.57-251.57-251.57m5.885 38.556c120.9 0 218.9 98 218.9 218.9s-98 218.9-218.9 218.9-218.93-98-218.93-218.9 98.03-218.9 218.93-218.9"/>
   <path id="path20" d="m256 8.356c-136.77 0-247.64 110.87-247.64 247.64s110.87 247.64 247.64 247.64 247.64-110.87 247.64-247.64-110.87-247.64-247.64-247.64m2.942 31.691c120.9 0 218.9 98 218.9 218.9s-98 218.9-218.9 218.9-218.93-98-218.93-218.9 98.03-218.9 218.93-218.9"/>
  </g>
  <path id="path22" d="m253.04 7.859c-135.42 0-245.19 109.78-245.19 245.19 0 135.42 109.78 245.19 245.19 245.19 135.42 0 245.19-109.78 245.19-245.19 0-135.42-109.78-245.19-245.19-245.19zm0 26.297c120.9 0 218.9 98 218.9 218.9s-98 218.9-218.9 218.9-218.93-98-218.93-218.9 98.03-218.9 218.93-218.9z" stroke-opacity=".31" stroke="#000" stroke-width="4.904" fill="#fff"/>
 </g>
 <path id="path24" stroke-linejoin="round" d="m215.06 285.44 31.783-27.21 50.1-42.899-36.39-33.718v148.79l32.648-32.11-74.929-66.37" stroke="#fff" stroke-linecap="round" stroke-width="13.11" fill="none"/>
 <g id="g26" style="color:#000000" fill="#fff">
  <path id="path28" d="m167.84 167.66c-48.639 48.737-48.786 128.01-0.212 176.68l23.13-23.17c-36.08-36.15-35.914-94.13 0.212-130.33l-23.13-23.17m153.2 22.962c36.08 36.15 36.34 94.56 0.212 130.76l23.13 23.17c48.639-48.737 48.36-128.44-0.212-177.11l-23.13 23.17"/>
  <path id="path30" d="m384.5 126.94-24.844 24.875c25.04 26.366 40.44 62.02 40.44 101.25 0 40.652-16.492 77.45-43.16 104.06l27.844 27.938c70.885-71.03 70.51-187.19-0.281-258.12m-257 0.313c-70.885 71.03-71.07 186.57-0.281 257.5l24.781-24.875c-28.323-26.802-46-64.741-46-106.81 0-40.653 16.491-77.48 43.16-104.09l-21.656-21.719"/>
 </g>
</svg>
