<?xml version="1.0" encoding="UTF-8" standalone="no"?>
<!-- Created with Inkscape (http://www.inkscape.org/) -->
<svg id="svg2" xmlns:rdf="http://www.w3.org/1999/02/22-rdf-syntax-ns#" xmlns="http://www.w3.org/2000/svg" height="512" width="512" version="1.1" xmlns:cc="http://creativecommons.org/ns#" xmlns:dc="http://purl.org/dc/elements/1.1/">
 <metadata id="metadata66">
  <rdf:RDF>
   <cc:Work rdf:about="">
    <dc:format>image/svg+xml</dc:format>
    <dc:type rdf:resource="http://purl.org/dc/dcmitype/StillImage"/>
    <dc:title/>
   </cc:Work>
  </rdf:RDF>
 </metadata>
 <path id="path6" fill-rule="evenodd" fill="#174775" d="m471.95 253.05c0 120.9-98.006 218.9-218.9 218.9-120.9 0-218.9-98.006-218.9-218.9 0-120.9 98.006-218.9 218.9-218.9 120.9 0 218.9 98.006 218.9 218.9z"/>
 <path id="path4182" style="color:#000000" fill-opacity=".23529" d="m155.59 141.28c-2.9038 5.6801-17.472 11.348-11.531 17.031 25.855 25.762 51.412 51.677 77.125 77.375-3.5884 10.176-4.6178 17.447-12.031 7.125-8.0162-8.1521-16.278-16.252-24.406-24.375-15.032 27.157-11.708 62.779 7.5938 86.969l-51.03 51.04c38.563 38.554 77.013 77.014 115.47 115.47 117.94-1.981 213.18-97.234 215.12-215.19-33.63-33.64-67.25-67.22-100.65-100.47-4.7671-5.1259-9.8687-9.905-14.781-14.969-17.902 17.648-35.844 36.363-53.719 53.312-4.4264-3.9759-6.7217-8.4098-13.594-11.938-26.531-13.047-59.852-7.9455-82.656 9.5312-16.961-16.975-33.916-33.938-50.906-50.906z"/>
 <path id="path8" d="m256 1c-140.83 0-255 114.17-255 255s114.17 255 255 255 255-114.17 255-255-114.17-255-255-255zm8.8269 44.931c120.9 0 218.9 97.999 218.9 218.9s-97.999 218.9-218.9 218.9-218.93-97.999-218.93-218.9 98.029-218.9 218.93-218.9z" fill-rule="evenodd" fill-opacity=".066667"/>
 <path id="path10" d="m256 4.4327c-138.94 0-251.57 112.63-251.57 251.57 0.0027 138.94 112.63 251.57 251.57 251.57s251.57-112.63 251.57-251.57-112.63-251.57-251.57-251.57zm5.8846 38.556c120.9 0 218.9 97.999 218.9 218.9s-97.999 218.9-218.9 218.9-218.93-97.999-218.93-218.9 98.029-218.9 218.93-218.9z" fill-rule="evenodd" fill-opacity=".12941"/>
 <path id="path12" d="m256 8.3558c-136.77 0-247.64 110.87-247.64 247.64-0.0042 136.77 110.87 247.64 247.64 247.64s247.64-110.87 247.64-247.64-110.87-247.64-247.64-247.64zm2.9423 31.691c120.9 0 218.9 97.999 218.9 218.9s-97.999 218.9-218.9 218.9-218.93-97.999-218.93-218.9 98.029-218.9 218.93-218.9z" fill-rule="evenodd" fill-opacity=".12941"/>
 <path id="path14" d="m253.04 7.8591c-135.42 0-245.19 109.78-245.19 245.19 0 135.42 109.78 245.19 245.19 245.19 135.42 0 245.19-109.78 245.19-245.19 0-135.42-109.78-245.19-245.19-245.19zm0 26.297c120.9 0 218.9 97.999 218.9 218.9s-97.999 218.9-218.9 218.9-218.93-97.999-218.93-218.9 98.029-218.9 218.93-218.9z" stroke-opacity=".3098" fill-rule="evenodd" stroke="#000" stroke-width="4.9038" fill="#fff"/>
 <text id="text16" style="word-spacing:0;letter-spacing:0" font-size="129.23px" line-height="125%" y="231.35828" x="729.6424" font-family="Gentium Book Basic">
  <tspan id="tspan18" y="231.35828" x="729.6424"/>
 </text>
 <text id="text20" style="text-anchor:middle" font-size="46.954px" transform="scale(4.0128 .24920)" y="579.25208" x="378.90738" font-family="Arial"/>
 <text id="text22" style="word-spacing:0;letter-spacing:0" font-size="129.23px" line-height="125%" y="151.35626" x="1310.9095" font-family="Gentium Book Basic">
  <tspan id="tspan24" y="151.35626" x="1310.9095"/>
 </text>
 <text id="text26" style="text-anchor:middle" font-size="46.954px" transform="scale(4.0128 .24920)" y="258.21695" x="523.75934" font-family="Arial"/>
 <text id="text28" style="word-spacing:0;letter-spacing:0" font-size="129.23px" line-height="125%" y="-29.900511" x="239.33031" font-family="Gentium Book Basic">
  <tspan id="tspan30" y="-29.900511" x="239.33031"/>
 </text>
 <text id="text32" style="text-anchor:middle" font-size="46.954px" transform="scale(4.0128 .24920)" y="-469.13681" x="256.72147" font-family="Arial"/>
 <text id="text34" style="word-spacing:0;letter-spacing:0" font-size="129.23px" line-height="125%" y="-246.37442" x="1337.3806" font-family="Gentium Book Basic">
  <tspan id="tspan36" y="-246.37442" x="1337.3806"/>
 </text>
 <text id="text38" style="text-anchor:middle" font-size="46.954px" transform="scale(4.0128 .24920)" y="-1337.811" x="530.35596" font-family="Arial"/>
 <text id="text40" style="word-spacing:0;letter-spacing:0" font-size="129.23px" line-height="125%" y="-326.37643" x="1918.6478" font-family="Gentium Book Basic">
  <tspan id="tspan42" y="-326.37643" x="1918.6478"/>
 </text>
 <text id="text44" style="text-anchor:middle" font-size="46.954px" transform="scale(4.0128 .24920)" y="-1658.8459" x="675.20789" font-family="Arial"/>
 <text id="text46" style="word-spacing:0;letter-spacing:0" font-size="129.23px" line-height="125%" y="-798.776" x="1529.527" font-family="Gentium Book Basic">
  <tspan id="tspan48" y="-798.776" x="1529.527"/>
 </text>
 <text id="text50" style="text-anchor:middle" font-size="46.954px" transform="scale(4.0128 .24920)" y="-3554.5081" x="578.23883" font-family="Arial"/>
 <text id="text52" style="word-spacing:0;letter-spacing:0" font-size="129.23px" line-height="125%" y="-878.77802" x="2110.7942" font-family="Gentium Book Basic">
  <tspan id="tspan54" y="-878.77802" x="2110.7942"/>
 </text>
 <text id="text56" style="text-anchor:middle" font-size="46.954px" transform="scale(4.0128 .24920)" y="-3875.543" x="723.09082" font-family="Arial"/>
 <text id="text58" style="word-spacing:0;letter-spacing:0" font-size="208.33px" line-height="125%" y="535.93591" x="277.98608" font-family="Gentium Book Basic">
  <tspan id="tspan60" y="535.93591" x="277.98608"/>
 </text>
 <path id="path3103" style="color:#000000" fill="#fff" d="m155.6 141.28-14.288 14.288 51.037 51.096v0.17631l14.288 14.288c10.96-15.474 28.986-25.636 49.391-25.636 7.8807 0 15.321 1.669 22.226 4.4099l15.17-15.111c-11.207-5.9484-23.829-9.4666-37.396-9.4666-18.621 0-35.738 6.4549-49.391 17.052l-51.037-51.096zm200.86 0-51.096 51.096c-0.0773-0.0606-0.0991-0.17611-0.17631-0.23519l-14.288 14.288c15.533 10.953 25.636 29.116 25.636 49.567 0 7.9507-1.6226 15.565-4.4099 22.52l15.111 15.111c6.0022-11.247 9.4666-23.998 9.4666-37.631 0-18.621-6.4549-35.679-17.052-49.332l51.037-51.096-14.229-14.288zm-100.43 74.381c-22.278 0-40.336 18.058-40.336 40.336s18.058 40.336 40.336 40.336 40.336-18.058 40.336-40.336-18.058-40.336-40.336-40.336zm-71.264 2.7636c-6.0026 11.246-9.4666 23.939-9.4666 37.572 0 18.621 6.4549 35.738 17.052 49.391l-51.037 51.037 14.288 14.288 15.111-15.111-0.2352-0.2352 50.214-50.214c-15.27-10.97-25.23-28.9-25.23-49.14 0-7.9507 1.6814-15.506 4.4687-22.461l-15.17-15.111zm120.6 72.44c-10.96 15.474-28.927 25.636-49.332 25.636-8.1175 0-15.858-1.6869-22.932-4.5863l-15.111 15.111c11.345 6.1389 24.243 9.643 38.043 9.643 18.621 0 35.679-6.3961 49.332-16.993l51.096 51.037 14.229-14.288-29.987-30.223-21.05-20.815c0.0337-0.047-0.0337-0.19008 0-0.2352l-14.31-14.27z"/>
</svg>
