<?xml version="1.0" encoding="UTF-8" standalone="no"?>
<!-- Created with Inkscape (http://www.inkscape.org/) -->
<svg id="svg2" xmlns:rdf="http://www.w3.org/1999/02/22-rdf-syntax-ns#" xmlns="http://www.w3.org/2000/svg" height="100%" viewBox="0 0 512 512" width="100%" version="1.1" xmlns:cc="http://creativecommons.org/ns#" xmlns:dc="http://purl.org/dc/elements/1.1/">
 <metadata id="metadata72">
  <rdf:RDF>
   <cc:Work rdf:about="">
    <dc:format>image/svg+xml</dc:format>
    <dc:type rdf:resource="http://purl.org/dc/dcmitype/StillImage"/>
   </cc:Work>
  </rdf:RDF>
 </metadata>
 <g id="g4" fill-rule="evenodd">
  <path id="path6" fill="#1488bb" d="m471.95 253.05c0 120.9-98.01 218.9-218.9 218.9-120.9 0-218.9-98.01-218.9-218.9 0-120.9 98.01-218.9 218.9-218.9 120.9 0 218.9 98.01 218.9 218.9"/>
  <path id="path8" fill-opacity=".235" d="m255.97 78.69c-13.518 33.14-21.669 54.813-36.719 86.969 2.431 2.576 5.03 5.296 7.844 8.094 0.202 0.203 0.389 0.39 0.594 0.594 0.797 0.805 1.632 1.614 2.469 2.438 0.036 0.037 0.058 0.088 0.094 0.125 0.311 0.312 0.621 0.622 0.938 0.938 0.347 0.349 0.709 0.679 1.063 1.031 0.036 0.037 0.058 0.088 0.094 0.125 0.311 0.312 0.621 0.622 0.938 0.938 0.347 0.349 0.709 0.679 1.063 1.031 0.228 0.23 0.425 0.456 0.656 0.688 0.797 0.805 1.632 1.614 2.469 2.438 0.036 0.037 0.058 0.088 0.094 0.125 0.311 0.312 0.621 0.622 0.938 0.938 0.347 0.349 0.709 0.679 1.063 1.031 0.036 0.037 0.058 0.088 0.094 0.125 0.311 0.312 0.621 0.622 0.938 0.938 0.347 0.349 0.709 0.679 1.063 1.031 1.01 1.026 2.052 2.069 3.125 3.125 0.036 0.037 0.058 0.088 0.094 0.125 0.311 0.312 0.621 0.622 0.938 0.938 0.367 0.369 0.75 0.721 1.125 1.094 0.041 0.042 0.084 0.083 0.125 0.125 0.32 0.321 0.643 0.645 0.969 0.969l0.125 0.125 0.031 0.031c0.213 0.214 0.409 0.441 0.625 0.656l0.094 0.094c0.046 0.047 0.11 0.078 0.156 0.125-14.908-6.828-25.779-13.683-34.22-20.781-19.261 40.19-49.42 97.47-110.66 207.5 0.794-0.459 1.555-0.891 2.344-1.344-0.464 0.834-0.845 1.535-1.313 2.375 0.813-0.469 1.6-0.912 2.406-1.375-0.471 0.847-0.869 1.553-1.344 2.406 0.803-0.464 1.578-0.886 2.375-1.344-0.471 0.847-0.869 1.553-1.344 2.406 0.792-0.457 1.557-0.892 2.344-1.344-0.464 0.834-0.845 1.535-1.313 2.375 0.814-0.47 1.599-0.911 2.406-1.375-0.476 0.855-0.864 1.576-1.344 2.438 0.792-0.457 1.557-0.892 2.344-1.344-0.464 0.834-0.845 1.535-1.313 2.375 0.813-0.469 1.6-0.912 2.406-1.375-0.476 0.855-0.864 1.576-1.344 2.438 0.794-0.459 1.555-0.891 2.344-1.344-0.464 0.834-0.845 1.535-1.313 2.375 0.813-0.469 1.6-0.912 2.406-1.375-0.471 0.847-0.869 1.553-1.344 2.406 0.803-0.464 1.578-0.886 2.375-1.344-0.471 0.846-0.869 1.554-1.344 2.406 0.792-0.457 1.557-0.892 2.344-1.344-0.464 0.834-0.845 1.535-1.313 2.375 0.814-0.47 1.599-0.911 2.406-1.375-0.476 0.855-0.864 1.576-1.344 2.438 0.792-0.457 1.557-0.892 2.344-1.344-0.464 0.834-0.845 1.535-1.313 2.375 0.813-0.469 1.6-0.912 2.406-1.375-0.476 0.855-0.864 1.576-1.344 2.438 0.792-0.457 1.557-0.892 2.344-1.344-0.464 0.834-0.845 1.535-1.313 2.375 0.813-0.469 1.6-0.912 2.406-1.375-0.471 0.847-0.869 1.553-1.344 2.406 0.803-0.464 1.578-0.886 2.375-1.344-0.471 0.846-0.869 1.554-1.344 2.406 0.792-0.457 1.557-0.892 2.344-1.344-0.464 0.834-0.845 1.535-1.313 2.375 0.814-0.47 1.599-0.911 2.406-1.375-0.476 0.855-0.864 1.576-1.344 2.438 0.792-0.457 1.557-0.892 2.344-1.344-0.464 0.834-0.845 1.535-1.313 2.375 0.813-0.469 1.6-0.912 2.406-1.375-0.476 0.855-0.864 1.576-1.344 2.438 0.792-0.457 1.557-0.892 2.344-1.344-0.464 0.834-0.845 1.535-1.313 2.375 0.813-0.469 1.6-0.912 2.406-1.375-0.471 0.847-0.869 1.553-1.344 2.406 0.803-0.464 1.578-0.886 2.375-1.344-0.471 0.846-0.869 1.554-1.344 2.406 0.792-0.457 1.557-0.892 2.344-1.344-0.464 0.834-0.845 1.535-1.313 2.375 0.814-0.47 1.599-0.911 2.406-1.375-0.476 0.855-0.864 1.576-1.344 2.438 0.792-0.457 1.557-0.892 2.344-1.344-0.464 0.834-0.845 1.535-1.313 2.375 0.814-0.47 1.599-0.911 2.406-1.375-0.476 0.855-0.864 1.576-1.344 2.438 0.792-0.457 1.557-0.892 2.344-1.344-0.464 0.834-0.845 1.535-1.313 2.375 0.813-0.469 1.6-0.912 2.406-1.375-0.476 0.855-0.864 1.576-1.344 2.438 0.794-0.459 1.555-0.891 2.344-1.344-0.464 0.834-0.845 1.535-1.313 2.375 0.813-0.469 1.6-0.912 2.406-1.375-0.471 0.847-0.869 1.553-1.344 2.406 0.803-0.464 1.578-0.886 2.375-1.344-0.471 0.847-0.869 1.553-1.344 2.406 0.792-0.457 1.557-0.892 2.344-1.344-0.464 0.834-0.845 1.535-1.313 2.375 0.814-0.47 1.599-0.911 2.406-1.375-0.476 0.855-0.864 1.576-1.344 2.438 0.792-0.457 1.557-0.892 2.344-1.344-0.464 0.834-0.845 1.535-1.313 2.375 0.813-0.469 1.6-0.912 2.406-1.375-0.476 0.855-0.864 1.576-1.344 2.438 0.794-0.459 1.555-0.891 2.344-1.344-0.464 0.834-0.845 1.535-1.313 2.375 0.813-0.469 1.6-0.912 2.406-1.375-0.471 0.847-0.869 1.553-1.344 2.406 0.803-0.464 1.578-0.886 2.375-1.344-0.471 0.847-0.869 1.553-1.344 2.406 0.792-0.457 1.557-0.892 2.344-1.344-0.464 0.834-0.845 1.535-1.313 2.375 0.814-0.47 1.599-0.911 2.406-1.375-0.476 0.855-0.864 1.576-1.344 2.438 0.792-0.457 1.557-0.892 2.344-1.344-0.464 0.834-0.845 1.535-1.313 2.375 0.813-0.469 1.6-0.912 2.406-1.375-0.476 0.855-0.864 1.576-1.344 2.438 0.792-0.457 1.557-0.892 2.344-1.344-0.464 0.834-0.845 1.535-1.313 2.375 0.813-0.469 1.6-0.912 2.406-1.375-0.471 0.847-0.869 1.553-1.344 2.406 0.803-0.464 1.578-0.886 2.375-1.344-0.471 0.846-0.869 1.554-1.344 2.406 0.792-0.457 1.557-0.892 2.344-1.344-0.464 0.834-0.845 1.535-1.313 2.375 0.814-0.47 1.599-0.911 2.406-1.375-0.476 0.855-0.864 1.576-1.344 2.438 0.792-0.457 1.557-0.892 2.344-1.344-0.464 0.834-0.845 1.535-1.313 2.375 0.813-0.469 1.6-0.912 2.406-1.375-0.476 0.855-0.864 1.576-1.344 2.438 0.792-0.457 1.557-0.892 2.344-1.344-0.464 0.834-0.845 1.535-1.313 2.375 0.813-0.469 1.6-0.912 2.406-1.375-0.471 0.847-0.869 1.553-1.344 2.406 0.803-0.464 1.578-0.886 2.375-1.344-0.471 0.846-0.869 1.554-1.344 2.406 0.792-0.457 1.557-0.892 2.344-1.344-0.464 0.834-0.845 1.535-1.313 2.375 0.814-0.47 1.599-0.911 2.406-1.375-0.476 0.855-0.864 1.576-1.344 2.438 0.792-0.457 1.557-0.892 2.344-1.344-0.464 0.834-0.845 1.535-1.313 2.375 0.813-0.469 1.6-0.912 2.406-1.375-0.476 0.855-0.864 1.576-1.344 2.438 0.792-0.457 1.557-0.892 2.344-1.344-0.464 0.834-0.845 1.535-1.313 2.375 0.813-0.469 1.6-0.912 2.406-1.375-0.476 0.855-0.864 1.576-1.344 2.438 0.794-0.459 1.555-0.891 2.344-1.344-0.464 0.834-0.845 1.535-1.313 2.375 0.792-0.457 1.557-0.892 2.344-1.344-0.464 0.834-0.845 1.535-1.313 2.375h0.031c0.803-0.464 1.578-0.886 2.375-1.344-0.471 0.847-0.869 1.553-1.344 2.406 0.792-0.457 1.557-0.892 2.344-1.344-0.464 0.834-0.845 1.535-1.313 2.375 0.814-0.47 1.599-0.911 2.406-1.375-0.476 0.855-0.864 1.576-1.344 2.438 0.792-0.457 1.557-0.892 2.344-1.344-0.464 0.834-0.845 1.535-1.313 2.375 0.813-0.469 1.6-0.912 2.406-1.375-0.476 0.855-0.864 1.576-1.344 2.438 0.794-0.459 1.555-0.891 2.344-1.344-0.464 0.834-0.845 1.535-1.313 2.375 0.813-0.469 1.6-0.912 2.406-1.375-0.471 0.847-0.869 1.553-1.344 2.406 0.803-0.464 1.578-0.886 2.375-1.344-0.471 0.847-0.869 1.553-1.344 2.406 0.792-0.457 1.557-0.892 2.344-1.344-0.464 0.834-0.845 1.535-1.313 2.375 0.814-0.47 1.599-0.911 2.406-1.375-0.476 0.855-0.864 1.576-1.344 2.438 0.792-0.457 1.557-0.892 2.344-1.344-0.464 0.834-0.845 1.535-1.313 2.375 0.813-0.469 1.6-0.912 2.406-1.375-0.476 0.855-0.864 1.576-1.344 2.438 0.794-0.459 1.555-0.891 2.344-1.344-0.397 0.714-0.743 1.342-1.125 2.031 0.094 0.032 0.188 0.062 0.281 0.094 0.65-0.372 1.286-0.751 1.938-1.125-0.287 0.516-0.546 0.992-0.813 1.469 0.232 0.077 0.456 0.174 0.688 0.25 0.384-0.215 0.768-0.433 1.156-0.656-0.172 0.309-0.34 0.589-0.5 0.875 0.386 0.125 0.769 0.252 1.156 0.375 0.113-0.065 0.23-0.122 0.344-0.188-0.05 0.09-0.108 0.162-0.156 0.25 20.893 6.624 43.13 10.219 66.22 10.219 106.97 0 196.03-76.74 215.13-178.16-0.754-1.775-1.402-3.282-2.188-5.125-0.105 0.257-0.177 0.463-0.281 0.719-0.265-0.622-0.481-1.119-0.75-1.75-0.11 0.271-0.203 0.481-0.313 0.75-0.272-0.64-0.474-1.164-0.75-1.813-0.105 0.257-0.177 0.463-0.281 0.719-0.264-0.622-0.482-1.12-0.75-1.75-0.11 0.271-0.203 0.481-0.313 0.75-0.272-0.64-0.474-1.164-0.75-1.813-0.105 0.257-0.177 0.463-0.281 0.719-0.264-0.622-0.482-1.12-0.75-1.75-0.11 0.271-0.203 0.481-0.313 0.75-0.269-0.632-0.477-1.141-0.75-1.781-0.101 0.248-0.181 0.441-0.281 0.688-0.264-0.622-0.482-1.12-0.75-1.75-0.105 0.257-0.177 0.463-0.281 0.719-0.265-0.622-0.481-1.119-0.75-1.75-0.11 0.271-0.203 0.481-0.313 0.75-0.272-0.64-0.474-1.164-0.75-1.813-0.105 0.257-0.177 0.463-0.281 0.719-0.265-0.622-0.481-1.119-0.75-1.75-0.11 0.271-0.203 0.481-0.313 0.75-0.272-0.64-0.474-1.164-0.75-1.813-0.105 0.257-0.177 0.463-0.281 0.719-0.264-0.622-0.482-1.12-0.75-1.75-0.11 0.271-0.203 0.481-0.313 0.75-0.272-0.64-0.474-1.164-0.75-1.813-0.105 0.257-0.177 0.463-0.281 0.719-0.264-0.622-0.482-1.12-0.75-1.75-0.105 0.257-0.177 0.463-0.281 0.719-0.265-0.622-0.481-1.119-0.75-1.75-0.11 0.271-0.203 0.481-0.313 0.75-0.272-0.64-0.474-1.164-0.75-1.813-0.105 0.257-0.177 0.463-0.281 0.719-0.265-0.622-0.481-1.119-0.75-1.75-0.11 0.271-0.203 0.481-0.313 0.75-0.272-0.64-0.474-1.164-0.75-1.813-0.105 0.257-0.177 0.463-0.281 0.719-0.264-0.622-0.482-1.12-0.75-1.75-0.11 0.271-0.203 0.481-0.313 0.75-0.272-0.64-0.474-1.164-0.75-1.813-0.105 0.257-0.177 0.463-0.281 0.719-0.264-0.622-0.482-1.12-0.75-1.75-0.105 0.257-0.177 0.463-0.281 0.719-0.265-0.622-0.481-1.119-0.75-1.75-0.11 0.271-0.203 0.481-0.313 0.75-0.272-0.64-0.474-1.164-0.75-1.813-0.105 0.257-0.177 0.463-0.281 0.719-0.265-0.622-0.481-1.119-0.75-1.75-0.11 0.271-0.203 0.481-0.313 0.75-0.272-0.64-0.474-1.164-0.75-1.813-0.105 0.257-0.177 0.463-0.281 0.719-0.264-0.622-0.482-1.12-0.75-1.75-0.11 0.271-0.203 0.481-0.313 0.75-0.272-0.64-0.474-1.164-0.75-1.813-0.105 0.257-0.177 0.463-0.281 0.719-0.264-0.622-0.482-1.12-0.75-1.75-0.109 0.267-0.173 0.485-0.281 0.75-0.265-0.622-0.481-1.12-0.75-1.75-0.105 0.257-0.177 0.463-0.281 0.719-0.274-0.644-0.503-1.16-0.781-1.813-0.105 0.257-0.177 0.463-0.281 0.719-0.265-0.622-0.481-1.119-0.75-1.75-0.11 0.271-0.203 0.481-0.313 0.75-0.272-0.64-0.474-1.164-0.75-1.813-0.105 0.257-0.177 0.463-0.281 0.719-0.264-0.622-0.482-1.12-0.75-1.75-0.11 0.271-0.203 0.481-0.313 0.75-0.272-0.64-0.474-1.164-0.75-1.813-0.105 0.257-0.177 0.463-0.281 0.719-0.264-0.622-0.482-1.12-0.75-1.75-0.11 0.271-0.203 0.481-0.313 0.75-0.269-0.632-0.477-1.141-0.75-1.781-0.101 0.248-0.181 0.441-0.281 0.688-0.264-0.622-0.482-1.12-0.75-1.75-0.105 0.257-0.177 0.463-0.281 0.719-0.265-0.622-0.481-1.119-0.75-1.75-0.11 0.271-0.203 0.481-0.313 0.75-0.272-0.64-0.474-1.164-0.75-1.813-0.105 0.257-0.177 0.463-0.281 0.719-0.265-0.622-0.481-1.119-0.75-1.75-0.11 0.271-0.203 0.481-0.313 0.75-0.272-0.64-0.474-1.164-0.75-1.813-0.105 0.257-0.177 0.463-0.281 0.719-0.264-0.622-0.482-1.12-0.75-1.75-0.11 0.271-0.203 0.481-0.313 0.75-0.272-0.64-0.474-1.164-0.75-1.813-0.105 0.257-0.177 0.463-0.281 0.719-0.264-0.622-0.482-1.12-0.75-1.75-0.105 0.257-0.177 0.463-0.281 0.719-0.265-0.622-0.481-1.119-0.75-1.75-0.11 0.271-0.203 0.481-0.313 0.75-0.272-0.64-0.474-1.164-0.75-1.813-0.105 0.257-0.177 0.463-0.281 0.719-0.265-0.622-0.481-1.119-0.75-1.75-0.11 0.271-0.203 0.481-0.313 0.75-0.272-0.64-0.474-1.164-0.75-1.813-0.105 0.257-0.177 0.463-0.281 0.719-0.264-0.622-0.482-1.12-0.75-1.75-0.11 0.271-0.203 0.481-0.313 0.75-0.272-0.64-0.474-1.164-0.75-1.813-0.105 0.257-0.177 0.463-0.281 0.719-0.264-0.622-0.482-1.12-0.75-1.75-0.105 0.257-0.177 0.463-0.281 0.719-0.265-0.622-0.481-1.119-0.75-1.75-0.11 0.271-0.203 0.481-0.313 0.75-0.272-0.64-0.474-1.164-0.75-1.813-0.105 0.257-0.177 0.463-0.281 0.719-0.265-0.622-0.481-1.119-0.75-1.75-0.11 0.271-0.203 0.481-0.313 0.75-0.272-0.64-0.474-1.164-0.75-1.813-0.105 0.257-0.177 0.463-0.281 0.719-0.264-0.622-0.482-1.12-0.75-1.75-0.11 0.271-0.203 0.481-0.313 0.75-0.272-0.64-0.474-1.164-0.75-1.813-0.105 0.257-0.177 0.463-0.281 0.719-0.264-0.622-0.482-1.12-0.75-1.75-0.105 0.257-0.177 0.463-0.281 0.719-0.265-0.622-0.481-1.119-0.75-1.75-0.11 0.271-0.203 0.481-0.313 0.75-0.272-0.64-0.474-1.164-0.75-1.813-0.105 0.257-0.177 0.463-0.281 0.719-0.265-0.622-0.481-1.119-0.75-1.75-0.11 0.271-0.203 0.481-0.313 0.75-0.272-0.64-0.474-1.164-0.75-1.813-0.105 0.257-0.177 0.463-0.281 0.719-0.264-0.622-0.482-1.12-0.75-1.75-0.11 0.271-0.203 0.481-0.313 0.75-0.272-0.64-0.474-1.164-0.75-1.813-0.105 0.257-0.177 0.463-0.281 0.719-0.264-0.622-0.482-1.12-0.75-1.75-0.11 0.271-0.203 0.481-0.313 0.75-0.269-0.632-0.477-1.141-0.75-1.781-0.101 0.248-0.181 0.441-0.281 0.688-0.264-0.622-0.482-1.12-0.75-1.75-0.105 0.257-0.177 0.463-0.281 0.719-0.265-0.622-0.481-1.119-0.75-1.75-0.11 0.271-0.203 0.481-0.313 0.75-0.272-0.64-0.474-1.164-0.75-1.813-0.105 0.257-0.177 0.463-0.281 0.719-0.264-0.622-0.482-1.12-0.75-1.75-0.11 0.271-0.203 0.481-0.313 0.75-0.272-0.64-0.474-1.164-0.75-1.813-0.105 0.257-0.177 0.463-0.281 0.719-0.264-0.622-0.482-1.12-0.75-1.75-0.11 0.271-0.203 0.481-0.313 0.75-0.269-0.632-0.477-1.141-0.75-1.781-0.101 0.248-0.181 0.441-0.281 0.688-0.264-0.622-0.482-1.12-0.75-1.75-0.105 0.257-0.177 0.463-0.281 0.719-0.265-0.622-0.481-1.119-0.75-1.75-0.11 0.271-0.203 0.481-0.313 0.75-0.272-0.64-0.474-1.164-0.75-1.813-0.105 0.257-0.177 0.463-0.281 0.719-0.265-0.622-0.481-1.119-0.75-1.75-0.11 0.271-0.203 0.481-0.313 0.75-0.272-0.64-0.474-1.164-0.75-1.813-0.105 0.257-0.177 0.463-0.281 0.719-0.264-0.622-0.482-1.12-0.75-1.75-0.11 0.271-0.203 0.481-0.313 0.75-0.272-0.64-0.474-1.164-0.75-1.813-0.105 0.257-0.177 0.463-0.281 0.719-0.264-0.622-0.482-1.12-0.75-1.75-0.105 0.257-0.177 0.463-0.281 0.719-0.265-0.622-0.481-1.119-0.75-1.75-0.11 0.271-0.203 0.481-0.313 0.75-0.272-0.64-0.474-1.164-0.75-1.813-0.105 0.257-0.177 0.463-0.281 0.719-0.265-0.622-0.481-1.119-0.75-1.75-0.11 0.271-0.203 0.481-0.313 0.75-0.272-0.64-0.474-1.164-0.75-1.813-0.105 0.257-0.177 0.463-0.281 0.719-0.264-0.622-0.482-1.12-0.75-1.75-0.11 0.271-0.203 0.481-0.313 0.75-0.272-0.64-0.474-1.164-0.75-1.813-0.105 0.257-0.177 0.463-0.281 0.719-0.264-0.622-0.482-1.12-0.75-1.75-0.105 0.257-0.177 0.463-0.281 0.719-0.265-0.622-0.481-1.119-0.75-1.75-0.11 0.271-0.203 0.481-0.313 0.75-0.272-0.64-0.474-1.164-0.75-1.813-0.105 0.257-0.177 0.463-0.281 0.719-0.265-0.622-0.481-1.119-0.75-1.75-0.11 0.271-0.203 0.481-0.313 0.75-0.272-0.64-0.474-1.164-0.75-1.813-0.105 0.257-0.177 0.463-0.281 0.719-0.264-0.622-0.482-1.12-0.75-1.75-0.11 0.271-0.203 0.481-0.313 0.75-0.272-0.64-0.474-1.164-0.75-1.813-0.105 0.257-0.177 0.463-0.281 0.719-0.264-0.622-0.482-1.12-0.75-1.75-0.109 0.267-0.173 0.485-0.281 0.75-0.265-0.622-0.481-1.12-0.75-1.75-0.105 0.257-0.177 0.463-0.281 0.719-0.274-0.644-0.503-1.16-0.781-1.813-0.105 0.257-0.177 0.463-0.281 0.719-0.265-0.622-0.481-1.119-0.75-1.75-0.11 0.271-0.203 0.481-0.313 0.75-0.272-0.64-0.474-1.164-0.75-1.813-0.105 0.257-0.177 0.463-0.281 0.719-0.264-0.622-0.482-1.12-0.75-1.75-0.11 0.271-0.203 0.481-0.313 0.75-0.272-0.64-0.474-1.164-0.75-1.813-0.105 0.257-0.177 0.463-0.281 0.719-0.264-0.622-0.482-1.12-0.75-1.75-0.11 0.271-0.203 0.481-0.313 0.75-0.269-0.632-0.477-1.141-0.75-1.781-0.101 0.248-0.181 0.441-0.281 0.688-0.264-0.622-0.482-1.12-0.75-1.75-0.105 0.257-0.177 0.463-0.281 0.719-0.265-0.622-0.481-1.119-0.75-1.75-0.11 0.271-0.203 0.481-0.313 0.75-0.272-0.64-0.474-1.164-0.75-1.813-0.105 0.257-0.177 0.463-0.281 0.719-0.265-0.622-0.481-1.119-0.75-1.75-0.11 0.271-0.203 0.481-0.313 0.75-0.272-0.64-0.474-1.164-0.75-1.813-0.105 0.257-0.177 0.463-0.281 0.719-0.264-0.622-0.482-1.12-0.75-1.75-0.11 0.271-0.203 0.481-0.313 0.75-0.272-0.64-0.474-1.164-0.75-1.813-0.105 0.257-0.177 0.463-0.281 0.719-0.264-0.622-0.482-1.12-0.75-1.75-0.105 0.257-0.177 0.463-0.281 0.719-0.265-0.622-0.481-1.119-0.75-1.75-0.11 0.271-0.203 0.481-0.313 0.75-0.272-0.64-0.474-1.164-0.75-1.813-0.105 0.257-0.177 0.463-0.281 0.719-0.265-0.622-0.481-1.119-0.75-1.75-0.11 0.271-0.203 0.481-0.313 0.75-0.272-0.64-0.474-1.164-0.75-1.813-0.105 0.257-0.177 0.463-0.281 0.719-0.264-0.622-0.482-1.12-0.75-1.75-0.11 0.271-0.203 0.481-0.313 0.75-0.272-0.64-0.474-1.164-0.75-1.813-0.105 0.257-0.177 0.463-0.281 0.719-0.264-0.622-0.482-1.12-0.75-1.75-0.105 0.257-0.177 0.463-0.281 0.719-0.265-0.622-0.481-1.119-0.75-1.75-0.11 0.271-0.203 0.481-0.313 0.75-0.272-0.64-0.474-1.164-0.75-1.813-0.105 0.257-0.177 0.463-0.281 0.719-0.265-0.622-0.481-1.119-0.75-1.75-0.11 0.271-0.203 0.481-0.313 0.75-0.272-0.64-0.474-1.164-0.75-1.813-0.105 0.257-0.177 0.463-0.281 0.719-0.264-0.622-0.482-1.12-0.75-1.75-0.11 0.271-0.203 0.481-0.313 0.75-0.272-0.64-0.474-1.164-0.75-1.813-0.105 0.257-0.177 0.463-0.281 0.719-0.264-0.622-0.482-1.12-0.75-1.75-0.105 0.257-0.177 0.463-0.281 0.719-0.265-0.622-0.481-1.119-0.75-1.75-0.11 0.271-0.203 0.481-0.313 0.75-0.272-0.64-0.474-1.164-0.75-1.813-0.105 0.257-0.177 0.463-0.281 0.719-0.265-0.622-0.481-1.119-0.75-1.75-0.11 0.271-0.203 0.481-0.313 0.75-0.272-0.64-0.474-1.164-0.75-1.813-0.105 0.257-0.177 0.463-0.281 0.719-0.264-0.622-0.482-1.12-0.75-1.75-0.11 0.271-0.203 0.481-0.313 0.75-0.272-0.64-0.474-1.164-0.75-1.813-0.105 0.257-0.177 0.463-0.281 0.719-0.264-0.622-0.482-1.12-0.75-1.75-0.11 0.271-0.203 0.481-0.313 0.75-0.269-0.632-0.477-1.141-0.75-1.781-0.101 0.248-0.181 0.441-0.281 0.688-0.264-0.622-0.482-1.12-0.75-1.75-0.105 0.257-0.177 0.463-0.281 0.719-0.265-0.622-0.481-1.119-0.75-1.75-0.11 0.271-0.203 0.481-0.313 0.75-0.272-0.64-0.474-1.164-0.75-1.813-0.105 0.257-0.177 0.463-0.281 0.719-0.264-0.622-0.482-1.12-0.75-1.75-0.11 0.271-0.203 0.481-0.313 0.75-0.272-0.64-0.474-1.164-0.75-1.813-0.105 0.257-0.177 0.463-0.281 0.719-0.264-0.622-0.482-1.12-0.75-1.75-0.11 0.271-0.203 0.481-0.313 0.75-0.269-0.632-0.477-1.141-0.75-1.781-0.101 0.248-0.181 0.441-0.281 0.688-0.264-0.622-0.482-1.12-0.75-1.75-0.105 0.257-0.177 0.463-0.281 0.719-0.265-0.622-0.481-1.119-0.75-1.75-0.11 0.271-0.203 0.481-0.313 0.75-0.272-0.64-0.474-1.164-0.75-1.813-0.105 0.257-0.177 0.463-0.281 0.719-0.265-0.622-0.481-1.119-0.75-1.75-0.11 0.271-0.203 0.481-0.313 0.75-0.272-0.64-0.474-1.164-0.75-1.813-0.105 0.257-0.177 0.463-0.281 0.719-0.264-0.622-0.482-1.12-0.75-1.75-0.11 0.271-0.203 0.481-0.313 0.75-0.272-0.64-0.474-1.164-0.75-1.813-0.105 0.257-0.177 0.463-0.281 0.719-0.264-0.622-0.482-1.12-0.75-1.75-0.105 0.257-0.177 0.463-0.281 0.719-0.265-0.622-0.481-1.119-0.75-1.75-0.11 0.271-0.203 0.481-0.313 0.75-0.272-0.64-0.474-1.164-0.75-1.813-0.105 0.257-0.177 0.463-0.281 0.719-0.265-0.622-0.481-1.119-0.75-1.75-0.11 0.271-0.203 0.481-0.313 0.75-0.272-0.64-0.474-1.164-0.75-1.813-0.105 0.257-0.177 0.463-0.281 0.719-0.264-0.622-0.482-1.12-0.75-1.75-0.11 0.271-0.203 0.481-0.313 0.75-0.272-0.64-0.474-1.164-0.75-1.813-0.105 0.257-0.177 0.463-0.281 0.719-0.264-0.622-0.482-1.12-0.75-1.75-0.105 0.257-0.177 0.463-0.281 0.719-0.265-0.622-0.481-1.119-0.75-1.75-0.11 0.271-0.203 0.481-0.313 0.75-0.272-0.64-0.474-1.164-0.75-1.813-0.105 0.257-0.177 0.463-0.281 0.719-0.265-0.622-0.481-1.119-0.75-1.75-0.11 0.271-0.203 0.481-0.313 0.75-0.272-0.64-0.474-1.164-0.75-1.813-0.105 0.257-0.177 0.463-0.281 0.719-0.264-0.622-0.482-1.12-0.75-1.75-0.11 0.271-0.203 0.481-0.313 0.75-0.272-0.64-0.474-1.164-0.75-1.813-0.105 0.257-0.177 0.463-0.281 0.719-0.264-0.622-0.482-1.12-0.75-1.75-0.109 0.267-0.173 0.485-0.281 0.75-0.265-0.622-0.481-1.12-0.75-1.75-0.105 0.257-0.177 0.463-0.281 0.719-0.274-0.644-0.503-1.16-0.781-1.813-0.105 0.257-0.177 0.463-0.281 0.719-0.265-0.622-0.481-1.119-0.75-1.75-0.11 0.271-0.203 0.481-0.313 0.75-0.272-0.64-0.474-1.164-0.75-1.813-0.105 0.257-0.177 0.463-0.281 0.719-0.264-0.622-0.482-1.12-0.75-1.75-0.11 0.271-0.203 0.481-0.313 0.75-0.272-0.64-0.474-1.164-0.75-1.813-0.105 0.257-0.177 0.463-0.281 0.719-0.264-0.622-0.482-1.12-0.75-1.75-0.11 0.271-0.203 0.481-0.313 0.75-0.269-0.632-0.477-1.141-0.75-1.781-0.101 0.248-0.181 0.441-0.281 0.688-0.264-0.622-0.482-1.12-0.75-1.75-0.105 0.257-0.177 0.463-0.281 0.719-0.265-0.622-0.481-1.119-0.75-1.75-0.11 0.271-0.203 0.481-0.313 0.75-0.272-0.64-0.474-1.164-0.75-1.813-0.105 0.257-0.177 0.463-0.281 0.719-0.265-0.622-0.481-1.119-0.75-1.75-0.11 0.271-0.203 0.481-0.313 0.75-0.272-0.64-0.474-1.164-0.75-1.813-0.105 0.257-0.177 0.463-0.281 0.719-0.264-0.622-0.482-1.12-0.75-1.75-0.11 0.271-0.203 0.481-0.313 0.75-0.272-0.64-0.474-1.164-0.75-1.813-0.105 0.257-0.177 0.463-0.281 0.719-0.264-0.622-0.482-1.12-0.75-1.75-0.105 0.257-0.177 0.463-0.281 0.719-0.265-0.622-0.481-1.119-0.75-1.75-0.11 0.271-0.203 0.481-0.313 0.75-0.272-0.64-0.474-1.164-0.75-1.813-0.105 0.257-0.177 0.463-0.281 0.719-0.265-0.622-0.481-1.119-0.75-1.75-0.11 0.271-0.203 0.481-0.313 0.75-0.272-0.64-0.474-1.164-0.75-1.813-0.105 0.257-0.177 0.463-0.281 0.719-0.264-0.622-0.482-1.12-0.75-1.75-0.11 0.271-0.203 0.481-0.313 0.75-0.272-0.64-0.474-1.164-0.75-1.813-0.105 0.257-0.177 0.463-0.281 0.719-0.264-0.622-0.482-1.12-0.75-1.75-0.105 0.257-0.177 0.463-0.281 0.719-0.265-0.622-0.481-1.119-0.75-1.75-0.11 0.271-0.203 0.481-0.313 0.75-0.272-0.64-0.474-1.164-0.75-1.813-0.105 0.257-0.177 0.463-0.281 0.719-0.265-0.622-0.481-1.119-0.75-1.75-0.11 0.271-0.203 0.481-0.313 0.75-0.272-0.64-0.474-1.164-0.75-1.813-0.105 0.257-0.177 0.463-0.281 0.719-0.264-0.622-0.482-1.12-0.75-1.75-0.11 0.271-0.203 0.481-0.313 0.75-0.272-0.64-0.474-1.164-0.75-1.813-0.105 0.257-0.177 0.463-0.281 0.719-0.264-0.622-0.482-1.12-0.75-1.75-0.105 0.257-0.177 0.463-0.281 0.719-0.265-0.622-0.481-1.119-0.75-1.75-0.11 0.271-0.203 0.481-0.313 0.75-0.272-0.64-0.474-1.164-0.75-1.813-0.105 0.257-0.177 0.463-0.281 0.719-0.265-0.622-0.481-1.119-0.75-1.75-0.11 0.271-0.203 0.481-0.313 0.75-0.272-0.64-0.474-1.164-0.75-1.813-0.105 0.257-0.177 0.463-0.281 0.719-0.264-0.622-0.482-1.12-0.75-1.75-0.11 0.271-0.203 0.481-0.313 0.75-0.272-0.64-0.474-1.164-0.75-1.813-0.105 0.257-0.177 0.463-0.281 0.719-0.264-0.622-0.482-1.12-0.75-1.75-0.11 0.271-0.203 0.481-0.313 0.75-0.269-0.632-0.477-1.141-0.75-1.781-0.101 0.248-0.181 0.441-0.281 0.688-0.264-0.622-0.482-1.12-0.75-1.75"/>
  <path id="path10" fill-opacity=".067" d="m256 1c-140.83 0-255 114.17-255 255s114.17 255 255 255 255-114.17 255-255-114.17-255-255-255m8.827 44.931c120.9 0 218.9 98 218.9 218.9s-98 218.9-218.9 218.9-218.93-98-218.93-218.9 98.03-218.9 218.93-218.9"/>
  <g id="g12" fill-opacity=".129">
   <path id="path14" d="m256 4.433c-138.94 0-251.57 112.63-251.57 251.57s112.63 251.57 251.57 251.57 251.57-112.63 251.57-251.57-112.63-251.57-251.57-251.57m5.885 38.556c120.9 0 218.9 98 218.9 218.9s-98 218.9-218.9 218.9-218.93-98-218.93-218.9 98.03-218.9 218.93-218.9"/>
   <path id="path16" d="m256 8.356c-136.77 0-247.64 110.87-247.64 247.64s110.87 247.64 247.64 247.64 247.64-110.87 247.64-247.64-110.87-247.64-247.64-247.64m2.942 31.691c120.9 0 218.9 98 218.9 218.9s-98 218.9-218.9 218.9-218.93-98-218.93-218.9 98.03-218.9 218.93-218.9"/>
  </g>
  <path id="path18" d="m253.04 7.859c-135.42 0-245.19 109.78-245.19 245.19 0 135.42 109.78 245.19 245.19 245.19 135.42 0 245.19-109.78 245.19-245.19 0-135.42-109.78-245.19-245.19-245.19zm0 26.297c120.9 0 218.9 98 218.9 218.9s-98 218.9-218.9 218.9-218.93-98-218.93-218.9 98.03-218.9 218.93-218.9z" stroke-opacity=".31" stroke="#000" stroke-width="4.904" fill="#fff"/>
 </g>
 <text id="text20" style="word-spacing:0;letter-spacing:0" font-size="129.23px" line-height="125%" y="231.36" x="729.64001" font-family="Gentium Book Basic">
  <tspan id="tspan22" y="231.36" x="729.64001"/>
 </text>
 <text id="text24" style="text-anchor:middle" font-size="46.954px" transform="scale(4.0128 .2492)" y="579.25" x="378.91" font-family="Arial"/>
 <text id="text26" style="word-spacing:0;letter-spacing:0" font-size="129.23px" line-height="125%" y="151.36" x="1310.91" font-family="Gentium Book Basic">
  <tspan id="tspan28" y="151.36" x="1310.91"/>
 </text>
 <text id="text30" style="text-anchor:middle" font-size="46.954px" transform="scale(4.0128 .2492)" y="258.22" x="523.76001" font-family="Arial"/>
 <text id="text32" style="word-spacing:0;letter-spacing:0" font-size="129.23px" line-height="125%" y="-29.900999" x="239.33" font-family="Gentium Book Basic">
  <tspan id="tspan34" y="-29.900999" x="239.33"/>
 </text>
 <text id="text36" style="text-anchor:middle" font-size="46.954px" transform="scale(4.0128 .2492)" y="-469.14001" x="256.72" font-family="Arial"/>
 <text id="text38" style="word-spacing:0;letter-spacing:0" font-size="129.23px" line-height="125%" y="-246.37" x="1337.38" font-family="Gentium Book Basic">
  <tspan id="tspan40" y="-246.37" x="1337.38"/>
 </text>
 <text id="text42" style="text-anchor:middle" font-size="46.954px" transform="scale(4.0128 .2492)" y="-1337.8101" x="530.35999" font-family="Arial"/>
 <text id="text44" style="word-spacing:0;letter-spacing:0" font-size="129.23px" line-height="125%" y="-326.38" x="1918.65" font-family="Gentium Book Basic">
  <tspan id="tspan46" y="-326.38" x="1918.65"/>
 </text>
 <text id="text48" style="text-anchor:middle" font-size="46.954px" transform="scale(4.0128 .2492)" y="-1658.85" x="675.21002" font-family="Arial"/>
 <text id="text50" style="word-spacing:0;letter-spacing:0" font-size="129.23px" line-height="125%" y="-798.78003" x="1529.53" font-family="Gentium Book Basic">
  <tspan id="tspan52" y="-798.78003" x="1529.53"/>
 </text>
 <text id="text54" style="text-anchor:middle" font-size="46.954px" transform="scale(4.0128 .2492)" y="-3554.51" x="578.23999" font-family="Arial"/>
 <text id="text56" style="word-spacing:0;letter-spacing:0" font-size="129.23px" line-height="125%" y="-878.78003" x="2110.79" font-family="Gentium Book Basic">
  <tspan id="tspan58" y="-878.78003" x="2110.79"/>
 </text>
 <text id="text60" style="text-anchor:middle" font-size="46.954px" transform="scale(4.0128 .2492)" y="-3875.54" x="723.09003" font-family="Arial"/>
 <text id="text62" style="word-spacing:0;letter-spacing:0" font-size="208.33px" line-height="125%" y="535.94" x="277.98999" font-family="Gentium Book Basic">
  <tspan id="tspan64" y="535.94" x="277.98999"/>
 </text>
 <path id="path66" d="m255.97 78.69c-13.518 33.14-21.671 54.82-36.721 86.976 9.227 9.781 20.554 21.17 38.948 34.04-19.775-8.137-33.26-16.307-43.35-24.785-19.261 40.19-49.44 97.44-110.68 207.47 48.13-27.787 85.44-44.918 120.21-51.45-1.493-6.422-2.342-13.368-2.284-20.616l0.059-1.542c0.764-30.836 16.805-54.55 35.807-52.939 19 1.61 33.772 27.928 33.01 58.764-0.144 5.802-0.798 11.384-1.942 16.561 34.394 6.728 71.31 23.815 118.78 51.23-9.362-17.236-17.719-32.773-25.699-47.571-12.57-9.742-25.681-22.423-52.43-36.15 18.382 4.776 31.544 10.287 41.803 16.447-81.14-151.06-87.71-171.13-115.53-236.43" fill-rule="evenodd" fill="#fff"/>
</svg>
