<?xml version="1.0" encoding="UTF-8" standalone="no"?>
<!-- Created with Inkscape (http://www.inkscape.org/) -->
<svg id="svg2" xmlns:rdf="http://www.w3.org/1999/02/22-rdf-syntax-ns#" xmlns="http://www.w3.org/2000/svg" height="100%" viewBox="0 0 512 512" width="100%" version="1.1" xmlns:cc="http://creativecommons.org/ns#" xmlns:dc="http://purl.org/dc/elements/1.1/">
 <metadata id="metadata84">
  <rdf:RDF>
   <cc:Work rdf:about="">
    <dc:format>image/svg+xml</dc:format>
    <dc:type rdf:resource="http://purl.org/dc/dcmitype/StillImage"/>
   </cc:Work>
  </rdf:RDF>
 </metadata>
 <path id="path4" d="m471.95 253.05c0 120.9-98.01 218.9-218.9 218.9-120.9 0-218.9-98.01-218.9-218.9 0-120.9 98.01-218.9 218.9-218.9 120.9 0 218.9 98.01 218.9 218.9" fill-rule="evenodd" fill="#8a34a6"/>
 <path id="path6" fill-opacity=".235" d="m265.28 110.13c-12.07 0.042-24.12 1.638-35.906 4.813h-0.031c-53.695 14.452-92.01 58.44-102.78 110.84h-17.25v4.375h1v1h1v1h1v1h0.969v0.969h1v1h1v1h1v1h1v1h1v1h0.969v0.969h1v1h1v1h1v1h1v1h0.719c-0.01 0.125-0.022 0.25-0.031 0.375h-14.625v4.375h1v1h1v1h1v1h0.969v0.969h1v1h1v1h1v1h1v1h1v1h0.969v0.969h1v1h1v1h1v1h1v1h0.406c0.006 0.125 0.025 0.25 0.031 0.375h-14.375v4.375h1v1h1v1h1v1h0.969v0.969h1v1h1v1h1v1h1v1h1v1h0.969v0.969h1v1h1v1h1v1h1v1h1v0.375h-14.938v4.375h1v1h1v1h1v1h0.969v0.969h1v1h1v1h1v1h1v1h1v1h0.969v0.969h1v1h1v1h1v1h1v1h1v1h0.969v0.969h1v1h1v1h1v1h1v1h1v1h0.969v0.969h1v1h0.844c0.054 0.145 0.102 0.293 0.156 0.438v0.563h0.219c7.591 20.07 19.234 38.05 33.906 52.875 0.175 0.18 0.356 0.352 0.531 0.531 0.439 0.456 0.899 0.894 1.344 1.344 0.148 0.153 0.288 0.316 0.438 0.469 0.069 0.067 0.15 0.121 0.219 0.188 0.113 0.115 0.23 0.229 0.344 0.344 0.016 0.015 0.016 0.047 0.031 0.063 0.144 0.149 0.293 0.29 0.438 0.438 0.058 0.056 0.129 0.1 0.188 0.156 0.145 0.148 0.292 0.29 0.438 0.438 0.189 0.184 0.372 0.379 0.563 0.563 0.145 0.147 0.292 0.291 0.438 0.438 0.189 0.184 0.372 0.379 0.563 0.563 0.145 0.147 0.292 0.291 0.438 0.438 0.18 0.176 0.35 0.357 0.531 0.531 0.155 0.158 0.313 0.311 0.469 0.469 0.175 0.18 0.356 0.352 0.531 0.531 0.148 0.154 0.288 0.315 0.438 0.469 0.185 0.18 0.377 0.352 0.563 0.531 0.113 0.115 0.23 0.229 0.344 0.344 0.159 0.164 0.309 0.336 0.469 0.5 0.058 0.056 0.129 0.1 0.188 0.156 0.145 0.147 0.292 0.291 0.438 0.438 0.19 0.185 0.371 0.378 0.563 0.563l0.219 0.219c0.072 0.074 0.146 0.145 0.219 0.219 0.189 0.184 0.372 0.379 0.563 0.563 0.145 0.147 0.292 0.291 0.438 0.438 0.185 0.18 0.377 0.352 0.563 0.531 0.15 0.153 0.287 0.317 0.438 0.469 0.175 0.18 0.356 0.352 0.531 0.531 0.148 0.154 0.288 0.315 0.438 0.469 0.185 0.18 0.377 0.352 0.563 0.531 0.113 0.115 0.23 0.229 0.344 0.344 0.159 0.164 0.309 0.337 0.469 0.5 0.058 0.056 0.129 0.1 0.188 0.156 0.144 0.147 0.293 0.291 0.438 0.438 0.19 0.185 0.371 0.378 0.563 0.563 0.145 0.147 0.292 0.291 0.438 0.438 0.189 0.184 0.372 0.379 0.563 0.563 0.145 0.147 0.292 0.291 0.438 0.438 0.189 0.184 0.372 0.379 0.563 0.563 0.145 0.147 0.292 0.291 0.438 0.438 0.175 0.18 0.356 0.352 0.531 0.531 0.148 0.154 0.288 0.315 0.438 0.469 0.185 0.18 0.377 0.352 0.563 0.531 0.113 0.115 0.23 0.229 0.344 0.344 0.159 0.164 0.309 0.337 0.469 0.5 0.058 0.056 0.129 0.1 0.188 0.156 0.144 0.147 0.293 0.291 0.438 0.438 0.19 0.185 0.371 0.378 0.563 0.563 0.145 0.147 0.292 0.291 0.438 0.438 0.189 0.184 0.372 0.379 0.563 0.563 0.145 0.147 0.292 0.291 0.438 0.438 0.189 0.184 0.372 0.379 0.563 0.563 0.145 0.147 0.292 0.291 0.438 0.438 0.175 0.18 0.356 0.352 0.531 0.531 0.148 0.154 0.288 0.315 0.438 0.469 0.185 0.18 0.377 0.352 0.563 0.531 0.113 0.115 0.23 0.229 0.344 0.344 0.148 0.153 0.288 0.316 0.438 0.469 0.069 0.067 0.15 0.121 0.219 0.188 0.113 0.115 0.23 0.229 0.344 0.344 0.016 0.015 0.016 0.047 0.031 0.063 0.143 0.148 0.293 0.29 0.438 0.438 0.058 0.056 0.129 0.1 0.188 0.156 0.145 0.147 0.292 0.291 0.438 0.438 0.189 0.184 0.372 0.379 0.563 0.563l0.219 0.219c0.072 0.074 0.146 0.145 0.219 0.219 0.189 0.184 0.372 0.379 0.563 0.563 0.145 0.147 0.292 0.291 0.438 0.438 0.185 0.18 0.377 0.352 0.563 0.531 0.15 0.153 0.287 0.317 0.438 0.469 0.175 0.18 0.356 0.352 0.531 0.531 0.148 0.154 0.288 0.315 0.438 0.469 0.185 0.18 0.377 0.352 0.563 0.531 0.113 0.115 0.23 0.229 0.344 0.344 0.159 0.164 0.309 0.336 0.469 0.5 0.058 0.056 0.129 0.1 0.188 0.156 0.145 0.147 0.292 0.291 0.438 0.438 0.19 0.185 0.371 0.378 0.563 0.563l0.219 0.219c0.072 0.074 0.146 0.145 0.219 0.219 0.189 0.184 0.372 0.379 0.563 0.563 0.145 0.147 0.292 0.291 0.438 0.438 0.185 0.18 0.377 0.352 0.563 0.531 0.15 0.153 0.287 0.317 0.438 0.469 0.175 0.18 0.356 0.352 0.531 0.531 0.148 0.154 0.288 0.315 0.438 0.469 0.185 0.18 0.377 0.352 0.563 0.531 0.113 0.115 0.23 0.229 0.344 0.344 0.159 0.164 0.309 0.337 0.469 0.5 0.058 0.056 0.129 0.1 0.188 0.156 0.144 0.147 0.293 0.291 0.438 0.438 0.19 0.185 0.371 0.378 0.563 0.563 0.145 0.147 0.292 0.291 0.438 0.438 0.189 0.184 0.372 0.379 0.563 0.563 0.145 0.147 0.292 0.291 0.438 0.438 0.189 0.184 0.372 0.379 0.563 0.563 0.145 0.147 0.292 0.291 0.438 0.438 0.175 0.18 0.356 0.352 0.531 0.531 0.148 0.154 0.288 0.315 0.438 0.469 0.185 0.18 0.377 0.352 0.563 0.531 0.113 0.115 0.23 0.229 0.344 0.344 0.148 0.153 0.288 0.316 0.438 0.469 0.069 0.067 0.15 0.121 0.219 0.188 0.113 0.115 0.23 0.229 0.344 0.344 0.016 0.015 0.016 0.047 0.031 0.063 0.144 0.149 0.293 0.29 0.438 0.438 0.058 0.056 0.129 0.1 0.188 0.156 0.145 0.148 0.292 0.29 0.438 0.438 0.189 0.184 0.372 0.379 0.563 0.563 0.145 0.147 0.292 0.291 0.438 0.438 0.189 0.184 0.372 0.379 0.563 0.563 0.145 0.147 0.292 0.291 0.438 0.438 0.18 0.176 0.35 0.357 0.531 0.531 0.155 0.158 0.313 0.311 0.469 0.469 0.175 0.18 0.356 0.352 0.531 0.531 0.148 0.154 0.288 0.315 0.438 0.469 0.185 0.18 0.377 0.352 0.563 0.531 0.113 0.115 0.23 0.229 0.344 0.344 0.159 0.164 0.309 0.336 0.469 0.5 0.058 0.056 0.129 0.1 0.188 0.156 0.145 0.147 0.292 0.291 0.438 0.438 0.19 0.185 0.371 0.378 0.563 0.563l0.219 0.219c0.072 0.074 0.146 0.145 0.219 0.219 0.189 0.184 0.372 0.379 0.563 0.563 0.145 0.147 0.292 0.291 0.438 0.438 0.185 0.18 0.377 0.352 0.563 0.531 0.15 0.153 0.287 0.317 0.438 0.469 0.175 0.18 0.356 0.352 0.531 0.531 0.148 0.154 0.288 0.315 0.438 0.469 0.185 0.18 0.377 0.352 0.563 0.531 0.113 0.115 0.23 0.229 0.344 0.344 0.159 0.164 0.309 0.337 0.469 0.5 0.058 0.056 0.129 0.1 0.188 0.156 0.144 0.147 0.293 0.291 0.438 0.438 0.19 0.185 0.371 0.378 0.563 0.563 0.145 0.147 0.292 0.291 0.438 0.438 0.189 0.184 0.372 0.379 0.563 0.563 0.145 0.147 0.292 0.291 0.438 0.438 0.189 0.184 0.372 0.379 0.563 0.563 0.145 0.147 0.292 0.291 0.438 0.438 0.175 0.18 0.356 0.352 0.531 0.531 0.148 0.154 0.288 0.315 0.438 0.469 0.185 0.18 0.377 0.352 0.563 0.531 0.113 0.115 0.23 0.229 0.344 0.344 0.159 0.164 0.309 0.337 0.469 0.5 0.058 0.056 0.129 0.1 0.188 0.156 0.144 0.147 0.293 0.291 0.438 0.438 0.19 0.185 0.371 0.378 0.563 0.563 0.145 0.147 0.292 0.291 0.438 0.438 0.189 0.184 0.372 0.379 0.563 0.563 0.145 0.147 0.292 0.291 0.438 0.438 0.189 0.184 0.372 0.379 0.563 0.563 0.145 0.147 0.292 0.291 0.438 0.438 0.175 0.18 0.356 0.352 0.531 0.531 0.148 0.154 0.288 0.315 0.438 0.469 0.185 0.18 0.377 0.352 0.563 0.531 0.113 0.115 0.23 0.229 0.344 0.344 0.148 0.153 0.288 0.316 0.438 0.469 0.069 0.067 0.15 0.121 0.219 0.188 0.113 0.115 0.23 0.229 0.344 0.344 0.016 0.015 0.016 0.047 0.031 0.063 0.143 0.148 0.293 0.29 0.438 0.438 0.058 0.056 0.129 0.1 0.188 0.156 0.145 0.147 0.292 0.291 0.438 0.438 0.189 0.184 0.372 0.379 0.563 0.563l0.219 0.219c0.072 0.074 0.146 0.145 0.219 0.219 0.189 0.184 0.372 0.379 0.563 0.563 0.145 0.147 0.292 0.291 0.438 0.438 0.185 0.18 0.377 0.352 0.563 0.531 0.15 0.153 0.287 0.317 0.438 0.469 0.175 0.18 0.356 0.352 0.531 0.531 0.148 0.154 0.288 0.315 0.438 0.469 0.185 0.18 0.377 0.352 0.563 0.531 0.113 0.115 0.23 0.229 0.344 0.344 0.159 0.164 0.309 0.336 0.469 0.5 0.058 0.056 0.129 0.1 0.188 0.156 0.145 0.147 0.292 0.291 0.438 0.438 0.19 0.185 0.371 0.378 0.563 0.563l0.219 0.219c0.072 0.074 0.146 0.145 0.219 0.219 0.189 0.184 0.372 0.379 0.563 0.563 0.145 0.147 0.292 0.291 0.438 0.438 0.185 0.18 0.377 0.352 0.563 0.531 0.15 0.153 0.287 0.317 0.438 0.469 0.175 0.18 0.356 0.352 0.531 0.531 0.148 0.154 0.288 0.315 0.438 0.469 0.185 0.18 0.377 0.352 0.563 0.531 0.113 0.115 0.23 0.229 0.344 0.344 0.159 0.164 0.309 0.337 0.469 0.5 0.058 0.056 0.129 0.1 0.188 0.156 0.144 0.147 0.293 0.291 0.438 0.438 0.19 0.185 0.371 0.378 0.563 0.563 0.145 0.147 0.292 0.291 0.438 0.438 0.189 0.184 0.372 0.379 0.563 0.563 0.145 0.147 0.292 0.291 0.438 0.438 0.189 0.184 0.372 0.379 0.563 0.563 0.145 0.147 0.292 0.291 0.438 0.438 0.175 0.18 0.356 0.352 0.531 0.531 0.148 0.154 0.288 0.315 0.438 0.469 0.185 0.18 0.377 0.352 0.563 0.531 0.113 0.115 0.23 0.229 0.344 0.344 0.159 0.164 0.309 0.337 0.469 0.5 0.058 0.056 0.129 0.1 0.188 0.156 0.144 0.147 0.293 0.291 0.438 0.438 0.19 0.185 0.371 0.378 0.563 0.563 0.145 0.147 0.292 0.291 0.438 0.438 0.189 0.184 0.372 0.379 0.563 0.563 0.145 0.147 0.292 0.291 0.438 0.438 0.189 0.184 0.372 0.379 0.563 0.563 0.145 0.147 0.292 0.291 0.438 0.438 0.18 0.175 0.351 0.357 0.531 0.531 0.155 0.158 0.313 0.311 0.469 0.469 0.175 0.18 0.356 0.352 0.531 0.531 0.148 0.154 0.288 0.315 0.438 0.469 0.185 0.18 0.377 0.352 0.563 0.531 0.113 0.115 0.23 0.229 0.344 0.344 0.159 0.164 0.309 0.336 0.469 0.5 0.058 0.056 0.129 0.1 0.188 0.156 0.145 0.147 0.292 0.291 0.438 0.438 0.19 0.185 0.371 0.378 0.563 0.563l0.219 0.219c0.072 0.074 0.146 0.145 0.219 0.219 0.189 0.184 0.372 0.379 0.563 0.563 0.145 0.147 0.292 0.291 0.438 0.438 0.185 0.18 0.377 0.352 0.563 0.531 0.15 0.153 0.287 0.317 0.438 0.469 0.175 0.18 0.356 0.352 0.531 0.531 0.148 0.154 0.288 0.315 0.438 0.469 0.185 0.18 0.377 0.352 0.563 0.531 0.113 0.115 0.23 0.229 0.344 0.344 0.159 0.164 0.309 0.337 0.469 0.5 0.058 0.056 0.129 0.1 0.188 0.156 0.144 0.147 0.293 0.291 0.438 0.438 0.19 0.185 0.371 0.378 0.563 0.563 0.145 0.147 0.292 0.291 0.438 0.438 0.189 0.184 0.372 0.379 0.563 0.563 0.145 0.147 0.292 0.291 0.438 0.438 0.189 0.184 0.372 0.379 0.563 0.563 0.145 0.147 0.292 0.291 0.438 0.438 0.175 0.18 0.356 0.352 0.531 0.531 0.148 0.154 0.288 0.315 0.438 0.469 0.143 0.139 0.293 0.27 0.438 0.406 104.43-10.485 187.19-94.36 195.97-199.28-0.26-0.108-0.522-0.205-0.781-0.313 0.271 0.064 0.542 0.124 0.813 0.188 0.011-0.136 0.02-0.271 0.031-0.406-0.606-0.256-1.206-0.53-1.813-0.781 0.615 0.145 1.23 0.289 1.844 0.438 0.006-0.073-0.006-0.146 0-0.219-0.915-0.399-1.826-0.804-2.75-1.188 0.938 0.221 1.878 0.446 2.813 0.688 0.001-0.01-0.001-0.021 0-0.031-1.224-0.55-2.452-1.08-3.688-1.594 0.959 0.227 1.919 0.44 2.875 0.688-1.31-0.591-2.615-1.169-3.938-1.719 0.981 0.232 1.96 0.466 2.938 0.719-1.328-0.599-2.659-1.162-4-1.719 1.01 0.238 2.024 0.458 3.03 0.719-1.36-0.613-2.752-1.181-4.125-1.75 1.043 0.245 2.086 0.481 3.125 0.75-1.36-0.613-2.752-1.181-4.125-1.75 1.043 0.245 2.086 0.481 3.125 0.75-1.33-0.6-2.657-1.161-4-1.719 1 0.236 2 0.492 3 0.75-1.287-0.581-2.575-1.147-3.875-1.688 0.959 0.227 1.919 0.44 2.875 0.688-1.31-0.591-2.615-1.169-3.938-1.719 0.981 0.232 1.96 0.466 2.938 0.719-1.319-0.595-2.637-1.166-3.969-1.719 0.994 0.235 2.01 0.462 3 0.719-1.328-0.599-2.691-1.162-4.03-1.719 1.01 0.238 2.024 0.458 3.03 0.719-1.36-0.613-2.752-1.181-4.125-1.75 1.043 0.245 2.086 0.481 3.125 0.75-1.33-0.6-2.657-1.161-4-1.719 1 0.236 2 0.492 3 0.75-1.287-0.581-2.575-1.147-3.875-1.688 0.959 0.227 1.919 0.44 2.875 0.688-1.31-0.591-2.615-1.169-3.938-1.719 0.981 0.232 1.96 0.466 2.938 0.719-1.328-0.599-2.659-1.162-4-1.719 0.982 0.232 1.99 0.435 2.969 0.688-1.315-0.593-2.641-1.136-3.969-1.688 1.01 0.238 2.024 0.458 3.03 0.719-1.36-0.613-2.752-1.181-4.125-1.75 1.043 0.245 2.086 0.481 3.125 0.75-1.355-0.611-2.725-1.183-4.094-1.75 1.033 0.243 2.064 0.483 3.094 0.75-1.33-0.6-2.657-1.161-4-1.719 1 0.236 2 0.492 3 0.75-1.287-0.581-2.575-1.147-3.875-1.688 0.959 0.227 1.919 0.44 2.875 0.688-1.31-0.591-2.615-1.169-3.938-1.719 0.981 0.232 1.96 0.466 2.938 0.719-1.328-0.599-2.659-1.162-4-1.719 1.01 0.238 2.024 0.458 3.03 0.719-1.36-0.613-2.752-1.181-4.125-1.75 1.043 0.245 2.086 0.481 3.125 0.75-1.36-0.613-2.752-1.181-4.125-1.75 1.043 0.245 2.086 0.481 3.125 0.75-1.33-0.6-2.657-1.161-4-1.719 1 0.236 2 0.492 3 0.75-1.287-0.581-2.575-1.147-3.875-1.688 0.959 0.227 1.919 0.44 2.875 0.688-1.31-0.591-2.615-1.169-3.938-1.719 0.981 0.232 1.96 0.466 2.938 0.719-1.328-0.599-2.659-1.162-4-1.719 1.01 0.238 2.024 0.458 3.03 0.719-1.328-0.599-2.691-1.162-4.03-1.719 1.01 0.238 2.024 0.458 3.03 0.719-1.36-0.613-2.752-1.181-4.125-1.75 1.043 0.245 2.086 0.481 3.125 0.75-1.33-0.6-2.657-1.161-4-1.719 1 0.236 2 0.492 3 0.75-1.287-0.581-2.575-1.147-3.875-1.688 0.959 0.227 1.919 0.44 2.875 0.688-1.31-0.591-2.615-1.169-3.938-1.719 0.981 0.232 1.96 0.466 2.938 0.719-1.319-0.595-2.637-1.166-3.969-1.719 0.994 0.235 2.01 0.462 3 0.719-1.328-0.599-2.691-1.162-4.03-1.719 1.01 0.238 2.024 0.458 3.03 0.719-1.36-0.613-2.752-1.181-4.125-1.75 1.043 0.245 2.086 0.481 3.125 0.75-1.334-0.601-2.685-1.16-4.03-1.719 1.012 0.238 2.023 0.489 3.03 0.75v-0.031c-1.287-0.581-2.575-1.115-3.875-1.656 0.959 0.227 1.919 0.44 2.875 0.688-1.31-0.591-2.615-1.169-3.938-1.719 0.981 0.232 1.96 0.466 2.938 0.719-1.31-0.591-2.615-1.169-3.938-1.719 0.981 0.232 1.96 0.466 2.938 0.719-1.328-0.599-2.659-1.162-4-1.719 1.01 0.238 2.024 0.458 3.03 0.719-1.36-0.613-2.752-1.181-4.125-1.75 1.043 0.245 2.086 0.481 3.125 0.75-1.355-0.611-2.725-1.183-4.094-1.75 1.033 0.243 2.064 0.483 3.094 0.75-1.33-0.6-2.657-1.161-4-1.719 1 0.236 2 0.492 3 0.75-1.287-0.581-2.575-1.147-3.875-1.688 0.959 0.227 1.919 0.44 2.875 0.688-1.31-0.591-2.615-1.169-3.938-1.719 0.981 0.232 1.96 0.466 2.938 0.719-1.328-0.599-2.659-1.162-4-1.719 1.01 0.238 2.024 0.458 3.03 0.719-1.36-0.613-2.752-1.181-4.125-1.75 1.043 0.245 2.086 0.481 3.125 0.75-1.36-0.613-2.752-1.181-4.125-1.75 1.043 0.245 2.086 0.481 3.125 0.75-1.33-0.6-2.657-1.161-4-1.719 1 0.236 2 0.492 3 0.75-1.287-0.581-2.575-1.147-3.875-1.688 0.959 0.227 1.919 0.44 2.875 0.688-1.31-0.591-2.615-1.169-3.938-1.719 0.981 0.232 1.96 0.466 2.938 0.719-1.319-0.595-2.637-1.166-3.969-1.719 0.994 0.235 2.01 0.462 3 0.719-1.328-0.599-2.691-1.162-4.03-1.719 1.01 0.238 2.024 0.458 3.03 0.719-1.36-0.613-2.752-1.181-4.125-1.75 1.043 0.245 2.086 0.481 3.125 0.75-1.33-0.6-2.657-1.161-4-1.719 1 0.236 2 0.492 3 0.75-1.287-0.581-2.575-1.147-3.875-1.688 0.959 0.227 1.919 0.44 2.875 0.688-1.31-0.591-2.615-1.169-3.938-1.719 0.981 0.232 1.96 0.466 2.938 0.719-1.328-0.599-2.659-1.162-4-1.719 0.982 0.232 1.99 0.435 2.969 0.688-1.315-0.593-2.641-1.136-3.969-1.688 1.01 0.238 2.024 0.458 3.03 0.719-1.36-0.613-2.752-1.181-4.125-1.75 1.043 0.245 2.086 0.481 3.125 0.75-1.355-0.611-2.725-1.183-4.094-1.75 1.033 0.243 2.064 0.483 3.094 0.75-1.287-0.581-2.575-1.115-3.875-1.656 0.959 0.227 1.919 0.44 2.875 0.688-1.287-0.581-2.575-1.147-3.875-1.688 0.959 0.227 1.919 0.44 2.875 0.688-1.31-0.591-2.615-1.169-3.938-1.719 0.981 0.232 1.96 0.466 2.938 0.719-1.328-0.599-2.659-1.162-4-1.719 1.01 0.238 2.024 0.458 3.03 0.719-1.36-0.613-2.752-1.181-4.125-1.75 1.043 0.245 2.086 0.481 3.125 0.75-1.36-0.613-2.752-1.181-4.125-1.75 1.043 0.245 2.086 0.481 3.125 0.75-1.33-0.6-2.657-1.161-4-1.719 1 0.236 2 0.492 3 0.75-1.287-0.581-2.575-1.147-3.875-1.688 0.959 0.227 1.919 0.44 2.875 0.688-1.31-0.591-2.615-1.169-3.938-1.719 0.981 0.232 1.96 0.466 2.938 0.719-1.328-0.599-2.659-1.162-4-1.719 1.01 0.238 2.024 0.458 3.03 0.719-1.328-0.599-2.691-1.162-4.03-1.719 1.01 0.238 2.024 0.458 3.03 0.719-1.36-0.613-2.752-1.181-4.125-1.75 1.043 0.245 2.086 0.481 3.125 0.75-1.33-0.6-2.657-1.161-4-1.719 1 0.236 2 0.492 3 0.75-1.287-0.581-2.575-1.147-3.875-1.688 0.959 0.227 1.919 0.44 2.875 0.688-1.31-0.591-2.615-1.169-3.938-1.719 0.981 0.232 1.96 0.466 2.938 0.719-1.319-0.595-2.637-1.166-3.969-1.719 0.994 0.235 2.01 0.462 3 0.719-1.328-0.599-2.691-1.162-4.03-1.719 1.01 0.238 2.024 0.458 3.03 0.719-1.36-0.613-2.752-1.181-4.125-1.75 1.043 0.245 2.086 0.481 3.125 0.75-1.333-0.601-2.685-1.16-4.03-1.719 1.012 0.238 2.023 0.489 3.03 0.75-1.287-0.581-2.575-1.147-3.875-1.688 0.959 0.227 1.919 0.44 2.875 0.688-1.31-0.591-2.615-1.169-3.938-1.719 0.981 0.232 1.96 0.466 2.938 0.719-1.31-0.591-2.615-1.169-3.938-1.719 0.981 0.232 1.96 0.466 2.938 0.719-1.328-0.599-2.659-1.162-4-1.719 1.01 0.238 2.024 0.458 3.03 0.719-1.36-0.613-2.752-1.181-4.125-1.75 1.043 0.245 2.086 0.481 3.125 0.75-1.355-0.611-2.725-1.183-4.094-1.75 1.033 0.243 2.064 0.483 3.094 0.75-1.33-0.6-2.657-1.161-4-1.719 1 0.236 2 0.492 3 0.75-1.287-0.581-2.575-1.147-3.875-1.688 0.959 0.227 1.919 0.44 2.875 0.688-1.31-0.591-2.615-1.169-3.938-1.719 0.981 0.232 1.96 0.466 2.938 0.719-1.328-0.599-2.659-1.162-4-1.719 1.01 0.238 2.024 0.458 3.03 0.719-1.36-0.613-2.752-1.181-4.125-1.75 1.043 0.245 2.086 0.481 3.125 0.75-1.36-0.613-2.752-1.181-4.125-1.75 1.043 0.245 2.086 0.481 3.125 0.75-1.33-0.6-2.657-1.161-4-1.719 1 0.236 2 0.492 3 0.75-1.287-0.581-2.575-1.147-3.875-1.688 0.959 0.227 1.919 0.44 2.875 0.688-1.31-0.591-2.615-1.169-3.938-1.719 0.981 0.232 1.96 0.466 2.938 0.719-1.319-0.595-2.637-1.166-3.969-1.719 0.994 0.235 2.01 0.462 3 0.719-1.328-0.599-2.691-1.162-4.03-1.719 1.01 0.238 2.024 0.458 3.03 0.719-1.36-0.613-2.752-1.181-4.125-1.75 1.043 0.245 2.086 0.481 3.125 0.75-1.33-0.6-2.657-1.161-4-1.719 1 0.236 2 0.492 3 0.75-1.287-0.581-2.575-1.147-3.875-1.688 0.959 0.227 1.919 0.44 2.875 0.688-1.31-0.591-2.615-1.169-3.938-1.719 0.981 0.232 1.96 0.466 2.938 0.719-1.328-0.599-2.659-1.162-4-1.719 0.982 0.232 1.99 0.435 2.969 0.688-1.315-0.593-2.641-1.136-3.969-1.688 1.01 0.238 2.024 0.458 3.03 0.719-1.36-0.613-2.752-1.181-4.125-1.75 1.043 0.245 2.086 0.481 3.125 0.75-1.355-0.611-2.725-1.183-4.094-1.75 1.033 0.243 2.064 0.483 3.094 0.75-1.287-0.581-2.575-1.115-3.875-1.656 0.959 0.227 1.919 0.44 2.875 0.688-1.287-0.581-2.575-1.147-3.875-1.688 0.959 0.227 1.919 0.44 2.875 0.688-1.31-0.591-2.615-1.169-3.938-1.719 0.981 0.232 1.96 0.466 2.938 0.719-1.328-0.599-2.659-1.162-4-1.719 1.01 0.238 2.024 0.458 3.03 0.719-1.36-0.613-2.752-1.181-4.125-1.75 1.043 0.245 2.086 0.481 3.125 0.75-1.36-0.613-2.752-1.181-4.125-1.75 1.043 0.245 2.086 0.481 3.125 0.75-1.33-0.6-2.657-1.161-4-1.719 1 0.236 2 0.492 3 0.75-1.287-0.581-2.575-1.147-3.875-1.688 0.959 0.227 1.919 0.44 2.875 0.688-1.31-0.591-2.615-1.169-3.938-1.719 0.981 0.232 1.96 0.466 2.938 0.719-1.328-0.599-2.659-1.162-4-1.719 1.01 0.238 2.024 0.458 3.03 0.719-1.328-0.599-2.691-1.162-4.03-1.719 1.01 0.238 2.024 0.458 3.03 0.719-1.36-0.613-2.752-1.181-4.125-1.75 1.043 0.245 2.086 0.481 3.125 0.75-1.33-0.6-2.657-1.161-4-1.719 1 0.236 2 0.492 3 0.75-1.287-0.581-2.575-1.147-3.875-1.688 0.959 0.227 1.919 0.44 2.875 0.688-1.31-0.591-2.615-1.169-3.938-1.719 0.981 0.232 1.96 0.466 2.938 0.719-1.319-0.595-2.637-1.166-3.969-1.719 0.994 0.235 2.01 0.462 3 0.719-1.328-0.599-2.691-1.162-4.03-1.719 1.01 0.238 2.024 0.458 3.03 0.719-1.36-0.613-2.752-1.181-4.125-1.75 1.043 0.245 2.086 0.481 3.125 0.75-1.333-0.601-2.685-1.16-4.03-1.719 1.012 0.238 2.023 0.489 3.03 0.75-1.287-0.581-2.575-1.147-3.875-1.688 0.959 0.227 1.919 0.44 2.875 0.688-1.31-0.591-2.615-1.169-3.938-1.719 0.981 0.232 1.96 0.466 2.938 0.719-1.31-0.591-2.615-1.169-3.938-1.719 0.981 0.232 1.96 0.466 2.938 0.719-1.328-0.599-2.659-1.162-4-1.719 1.01 0.238 2.024 0.458 3.03 0.719-1.36-0.613-2.752-1.181-4.125-1.75 1.043 0.245 2.086 0.481 3.125 0.75-1.355-0.611-2.725-1.183-4.094-1.75 1.033 0.243 2.064 0.483 3.094 0.75-1.33-0.6-2.657-1.161-4-1.719 1 0.236 2 0.492 3 0.75-1.287-0.581-2.575-1.147-3.875-1.688 0.959 0.227 1.919 0.44 2.875 0.688-1.31-0.591-2.615-1.169-3.938-1.719 0.981 0.232 1.96 0.466 2.938 0.719-1.328-0.599-2.659-1.162-4-1.719 1.01 0.238 2.024 0.458 3.03 0.719-1.36-0.613-2.752-1.181-4.125-1.75 1.043 0.245 2.086 0.481 3.125 0.75-1.36-0.613-2.752-1.181-4.125-1.75 1.043 0.245 2.086 0.481 3.125 0.75-1.33-0.6-2.657-1.161-4-1.719 1 0.236 2 0.492 3 0.75-1.287-0.581-2.575-1.147-3.875-1.688 0.959 0.227 1.919 0.44 2.875 0.688-1.31-0.591-2.615-1.169-3.938-1.719 0.981 0.232 1.96 0.466 2.938 0.719-1.328-0.599-2.659-1.162-4-1.719 1.01 0.238 2.024 0.458 3.03 0.719-1.328-0.599-2.691-1.162-4.03-1.719 1.01 0.238 2.024 0.458 3.03 0.719-1.36-0.613-2.752-1.181-4.125-1.75 1.043 0.245 2.086 0.481 3.125 0.75-1.33-0.6-2.657-1.161-4-1.719 1 0.236 2 0.492 3 0.75-1.287-0.581-2.575-1.147-3.875-1.688 0.959 0.227 1.919 0.44 2.875 0.688-1.31-0.591-2.615-1.169-3.938-1.719 0.981 0.232 1.96 0.466 2.938 0.719-1.328-0.599-2.659-1.162-4-1.719 0.982 0.232 1.99 0.435 2.969 0.688-1.315-0.593-2.641-1.136-3.969-1.688 1.01 0.238 2.024 0.458 3.03 0.719-18.755-8.457-38.86-12.695-58.969-12.625"/>
 <g id="g8" fill-rule="evenodd">
  <path id="path10" fill-opacity=".067" d="m256 1c-140.83 0-255 114.17-255 255s114.17 255 255 255 255-114.17 255-255-114.17-255-255-255m8.827 44.931c120.9 0 218.9 98 218.9 218.9s-98 218.9-218.9 218.9-218.93-98-218.93-218.9 98.03-218.9 218.93-218.9"/>
  <g id="g12" fill-opacity=".129">
   <path id="path14" d="m256 4.433c-138.94 0-251.57 112.63-251.57 251.57s112.63 251.57 251.57 251.57 251.57-112.63 251.57-251.57-112.63-251.57-251.57-251.57m5.885 38.556c120.9 0 218.9 98 218.9 218.9s-98 218.9-218.9 218.9-218.93-98-218.93-218.9 98.03-218.9 218.93-218.9"/>
   <path id="path16" d="m256 8.356c-136.77 0-247.64 110.87-247.64 247.64s110.87 247.64 247.64 247.64 247.64-110.87 247.64-247.64-110.87-247.64-247.64-247.64m2.942 31.691c120.9 0 218.9 98 218.9 218.9s-98 218.9-218.9 218.9-218.93-98-218.93-218.9 98.03-218.9 218.93-218.9"/>
  </g>
  <path id="path18" d="m253.04 7.859c-135.42 0-245.19 109.78-245.19 245.19 0 135.42 109.78 245.19 245.19 245.19 135.42 0 245.19-109.78 245.19-245.19 0-135.42-109.78-245.19-245.19-245.19zm0 26.297c120.9 0 218.9 98 218.9 218.9s-98 218.9-218.9 218.9-218.93-98-218.93-218.9 98.03-218.9 218.93-218.9z" stroke-opacity=".31" stroke="#000" stroke-width="4.904" fill="#fff"/>
 </g>
 <text id="text20" style="word-spacing:0;letter-spacing:0" font-size="129.23px" line-height="125%" y="231.36" x="729.64001" font-family="Gentium Book Basic">
  <tspan id="tspan22" y="231.36" x="729.64001"/>
 </text>
 <text id="text24" style="text-anchor:middle" font-size="46.954px" transform="scale(4.0128 .2492)" y="579.25" x="378.91" font-family="Arial"/>
 <text id="text26" style="word-spacing:0;letter-spacing:0" font-size="129.23px" line-height="125%" y="151.36" x="1310.91" font-family="Gentium Book Basic">
  <tspan id="tspan28" y="151.36" x="1310.91"/>
 </text>
 <text id="text30" style="text-anchor:middle" font-size="46.954px" transform="scale(4.0128 .2492)" y="258.22" x="523.76001" font-family="Arial"/>
 <text id="text32" style="word-spacing:0;letter-spacing:0" font-size="129.23px" line-height="125%" y="-29.900999" x="239.33" font-family="Gentium Book Basic">
  <tspan id="tspan34" y="-29.900999" x="239.33"/>
 </text>
 <text id="text36" style="text-anchor:middle" font-size="46.954px" transform="scale(4.0128 .2492)" y="-469.14001" x="256.72" font-family="Arial"/>
 <text id="text38" style="word-spacing:0;letter-spacing:0" font-size="129.23px" line-height="125%" y="-246.37" x="1337.38" font-family="Gentium Book Basic">
  <tspan id="tspan40" y="-246.37" x="1337.38"/>
 </text>
 <text id="text42" style="text-anchor:middle" font-size="46.954px" transform="scale(4.0128 .2492)" y="-1337.8101" x="530.35999" font-family="Arial"/>
 <text id="text44" style="word-spacing:0;letter-spacing:0" font-size="129.23px" line-height="125%" y="-326.38" x="1918.65" font-family="Gentium Book Basic">
  <tspan id="tspan46" y="-326.38" x="1918.65"/>
 </text>
 <text id="text48" style="text-anchor:middle" font-size="46.954px" transform="scale(4.0128 .2492)" y="-1658.85" x="675.21002" font-family="Arial"/>
 <text id="text50" style="word-spacing:0;letter-spacing:0" font-size="129.23px" line-height="125%" y="-798.78003" x="1529.53" font-family="Gentium Book Basic">
  <tspan id="tspan52" y="-798.78003" x="1529.53"/>
 </text>
 <text id="text54" style="text-anchor:middle" font-size="46.954px" transform="scale(4.0128 .2492)" y="-3554.51" x="578.23999" font-family="Arial"/>
 <text id="text56" style="word-spacing:0;letter-spacing:0" font-size="129.23px" line-height="125%" y="-878.78003" x="2110.79" font-family="Gentium Book Basic">
  <tspan id="tspan58" y="-878.78003" x="2110.79"/>
 </text>
 <text id="text60" style="text-anchor:middle" font-size="46.954px" transform="scale(4.0128 .2492)" y="-3875.54" x="723.09003" font-family="Arial"/>
 <text id="text62" style="word-spacing:0;letter-spacing:0" font-size="208.33px" line-height="125%" y="535.94" x="277.98999" font-family="Gentium Book Basic">
  <tspan id="tspan64" y="535.94" x="277.98999"/>
 </text>
 <g id="g66" transform="matrix(10.917 0 0 10.938 -22.871 -11008)">
  <path id="path68" fill="#fff" d="m13.789 1033.1a13.564 13.187 75 0 0 9.8212 10.097 13.564 13.187 75 0 1 1.6642 -25.509 13.564 13.187 75 0 1 6.5206 -0.01 13.564 13.187 75 0 0 -8.6909 -0.7152 13.564 13.187 75 0 0 -9.3151 16.134z"/>
  <g id="g70" stroke="#fff" stroke-width=".4" fill="none" transform="translate(1.503,-1.759)">
   <path id="path72" d="m10.607 1029h26.87"/>
   <path id="path74" d="m10.607 1030.7h26.87"/>
   <path id="path76" d="m10.607 1034.2h26.87"/>
   <path id="path78" d="m10.607 1032.4h26.87"/>
  </g>
 </g>
</svg>
