<?xml version="1.0" encoding="UTF-8" standalone="no"?>
<!-- Created with Inkscape (http://www.inkscape.org/) -->
<svg id="svg2" xmlns:rdf="http://www.w3.org/1999/02/22-rdf-syntax-ns#" xmlns="http://www.w3.org/2000/svg" height="100%" viewBox="0 0 512 512" width="100%" version="1.1" xmlns:cc="http://creativecommons.org/ns#" xmlns:dc="http://purl.org/dc/elements/1.1/">
 <metadata id="metadata156">
  <rdf:RDF>
   <cc:Work rdf:about="">
    <dc:format>image/svg+xml</dc:format>
    <dc:type rdf:resource="http://purl.org/dc/dcmitype/StillImage"/>
   </cc:Work>
  </rdf:RDF>
 </metadata>
 <path id="path4" d="m471.95 253.05c0 120.9-98.01 218.9-218.9 218.9-120.9 0-218.9-98.01-218.9-218.9 0-120.9 98.01-218.9 218.9-218.9 120.9 0 218.9 98.01 218.9 218.9" fill-rule="evenodd" fill="#ef6a47"/>
 <path id="path6" style="color:#000000" fill-opacity=".235" d="m199.06 95.94c-15.493 4.978-6.941 25.03-9.156 37.38v221.88c40.497 40.497 76.16 76.52 110.44 111.63 66.53-14.657 121.7-59.55 150.34-119.56-84.3-85.87-167.37-170.7-247.34-250.69l-4.25-0.625h-0.031"/>
 <g id="g8" fill-rule="evenodd">
  <path id="path10" fill-opacity=".067" d="m256 1c-140.83 0-255 114.17-255 255s114.17 255 255 255 255-114.17 255-255-114.17-255-255-255m8.827 44.931c120.9 0 218.9 98 218.9 218.9s-98 218.9-218.9 218.9-218.93-98-218.93-218.9 98.03-218.9 218.93-218.9"/>
  <g id="g12" fill-opacity=".129">
   <path id="path14" d="m256 4.433c-138.94 0-251.57 112.63-251.57 251.57s112.63 251.57 251.57 251.57 251.57-112.63 251.57-251.57-112.63-251.57-251.57-251.57m5.885 38.556c120.9 0 218.9 98 218.9 218.9s-98 218.9-218.9 218.9-218.93-98-218.93-218.9 98.03-218.9 218.93-218.9"/>
   <path id="path16" d="m256 8.356c-136.77 0-247.64 110.87-247.64 247.64s110.87 247.64 247.64 247.64 247.64-110.87 247.64-247.64-110.87-247.64-247.64-247.64m2.942 31.691c120.9 0 218.9 98 218.9 218.9s-98 218.9-218.9 218.9-218.93-98-218.93-218.9 98.03-218.9 218.93-218.9"/>
  </g>
  <path id="path18" d="m253.04 7.859c-135.42 0-245.19 109.78-245.19 245.19 0 135.42 109.78 245.19 245.19 245.19 135.42 0 245.19-109.78 245.19-245.19 0-135.42-109.78-245.19-245.19-245.19zm0 26.297c120.9 0 218.9 98 218.9 218.9s-98 218.9-218.9 218.9-218.93-98-218.93-218.9 98.03-218.9 218.93-218.9z" stroke-opacity=".31" stroke="#000" stroke-width="4.904" fill="#fff"/>
 </g>
 <text id="text20" style="word-spacing:0;letter-spacing:0" font-size="129.23px" line-height="125%" y="231.36" x="729.64001" font-family="Gentium Book Basic">
  <tspan id="tspan22" y="231.36" x="729.64001"/>
 </text>
 <text id="text24" style="text-anchor:middle" font-size="46.954px" transform="scale(4.0128 .2492)" y="579.25" x="378.91" font-family="Arial"/>
 <text id="text26" style="word-spacing:0;letter-spacing:0" font-size="129.23px" line-height="125%" y="151.36" x="1310.91" font-family="Gentium Book Basic">
  <tspan id="tspan28" y="151.36" x="1310.91"/>
 </text>
 <text id="text30" style="text-anchor:middle" font-size="46.954px" transform="scale(4.0128 .2492)" y="258.22" x="523.76001" font-family="Arial"/>
 <text id="text32" style="word-spacing:0;letter-spacing:0" font-size="129.23px" line-height="125%" y="-29.900999" x="239.33" font-family="Gentium Book Basic">
  <tspan id="tspan34" y="-29.900999" x="239.33"/>
 </text>
 <text id="text36" style="text-anchor:middle" font-size="46.954px" transform="scale(4.0128 .2492)" y="-469.14001" x="256.72" font-family="Arial"/>
 <text id="text38" style="word-spacing:0;letter-spacing:0" font-size="129.23px" line-height="125%" y="-246.37" x="1337.38" font-family="Gentium Book Basic">
  <tspan id="tspan40" y="-246.37" x="1337.38"/>
 </text>
 <text id="text42" style="text-anchor:middle" font-size="46.954px" transform="scale(4.0128 .2492)" y="-1337.8101" x="530.35999" font-family="Arial"/>
 <text id="text44" style="word-spacing:0;letter-spacing:0" font-size="129.23px" line-height="125%" y="-326.38" x="1918.65" font-family="Gentium Book Basic">
  <tspan id="tspan46" y="-326.38" x="1918.65"/>
 </text>
 <text id="text48" style="text-anchor:middle" font-size="46.954px" transform="scale(4.0128 .2492)" y="-1658.85" x="675.21002" font-family="Arial"/>
 <text id="text50" style="word-spacing:0;letter-spacing:0" font-size="129.23px" line-height="125%" y="-798.78003" x="1529.53" font-family="Gentium Book Basic">
  <tspan id="tspan52" y="-798.78003" x="1529.53"/>
 </text>
 <text id="text54" style="text-anchor:middle" font-size="46.954px" transform="scale(4.0128 .2492)" y="-3554.51" x="578.23999" font-family="Arial"/>
 <text id="text56" style="word-spacing:0;letter-spacing:0" font-size="129.23px" line-height="125%" y="-878.78003" x="2110.79" font-family="Gentium Book Basic">
  <tspan id="tspan58" y="-878.78003" x="2110.79"/>
 </text>
 <text id="text60" style="text-anchor:middle" font-size="46.954px" transform="scale(4.0128 .2492)" y="-3875.54" x="723.09003" font-family="Arial"/>
 <g id="g62" style="word-spacing:0;letter-spacing:0" font-family="Gentium Book Basic" line-height="125%">
  <text id="text64" y="535.94" x="277.98999" font-size="208.33px">
   <tspan id="tspan66" y="535.94" x="277.98999"/>
  </text>
  <text id="text68" y="1287.5699" x="-27707.35" font-size="4848.4px">
   <tspan id="tspan70" y="1287.5699" x="-27707.35"/>
  </text>
 </g>
 <text id="text72" style="text-anchor:middle" font-size="1761.7px" transform="scale(4.0128 .2492)" y="-7933.25" x="489.60001" font-family="Arial"/>
 <text id="text74" style="word-spacing:0;letter-spacing:0" font-size="4848.4px" line-height="125%" y="2199.6201" x="-27842.09" font-family="Gentium Book Basic">
  <tspan id="tspan76" y="2199.6201" x="-27842.09"/>
 </text>
 <text id="text78" style="text-anchor:middle" font-size="1761.7px" transform="scale(4.0128 .2492)" y="-4273.3999" x="456.06" font-family="Arial"/>
 <g id="g80" fill="#555753">
  <text id="text82" style="word-spacing:0;letter-spacing:0" transform="scale(1.0508 .95163)" font-size="2976.1px" y="-4851.6001" x="-13350.26" font-family="Gentium Book Basic" line-height="125%">
   <tspan id="tspan84" y="-4851.6001" x="-13350.26"/>
  </text>
  <text id="text86" style="text-anchor:middle" font-size="1081.5px" transform="scale(4.2168 .23715)" y="-27509.9" x="1212.01" font-family="Arial"/>
  <text id="text88" style="word-spacing:0;letter-spacing:0" transform="scale(1.0508 .95163)" font-size="1593.2px" y="-5676.6201" x="-3947.4099" font-family="Gentium Book Basic" line-height="125%">
   <tspan id="tspan90" y="-5676.6201" x="-3947.4099"/>
  </text>
  <text id="text92" style="text-anchor:middle" font-size="578.89px" transform="scale(4.2168 .23715)" y="-27083.77" x="1446.12" font-family="Arial"/>
  <text id="text94" style="word-spacing:0;letter-spacing:0" font-size="4654.5px" line-height="125%" y="-1826.09" x="-40041.891" font-family="Gentium Book Basic">
   <tspan id="tspan96" y="-1826.09" x="-40041.891"/>
  </text>
  <text id="text98" style="text-anchor:middle" font-size="1691.2px" transform="scale(4.0128 .2492)" y="-19903.279" x="-2879.8101" font-family="Arial"/>
 </g>
 <g id="g100">
  <text id="text102" style="word-spacing:0;letter-spacing:0" font-family="Gentium Book Basic" font-size="4848.4px" line-height="125%" stroke="#cd1d31" y="-14052.65" x="-25858.789" stroke-width="23.273">
   <tspan id="tspan104" y="-14052.65" x="-25858.789"/>
  </text>
  <text id="text106" style="text-anchor:middle" font-size="1761.7px" transform="scale(4.0128 .2492)" y="-69490.938" x="950.39001" font-family="Arial"/>
  <text id="text108" style="word-spacing:0;letter-spacing:0" font-family="Gentium Book Basic" font-size="4848.4px" line-height="125%" stroke="#cd1d31" y="-13140.6" x="-25993.77" stroke-width="23.273">
   <tspan id="tspan110" y="-13140.6" x="-25993.77"/>
  </text>
  <text id="text112" style="text-anchor:middle" font-size="1761.7px" transform="scale(4.0128 .2492)" y="-65830.852" x="916.71997" font-family="Arial"/>
 </g>
 <g id="g114" fill="#555753">
  <g id="g116" stroke="#cd1d31" stroke-width="23.273">
   <text id="text118" style="word-spacing:0;letter-spacing:0" transform="scale(1.0508 .95163)" font-size="2976.1px" y="-20971.4" x="-11591.08" font-family="Gentium Book Basic" line-height="125%">
    <tspan id="tspan120" y="-20971.4" x="-11591.08"/>
   </text>
   <text id="text122" style="text-anchor:middle" font-size="1081.5px" transform="scale(4.2168 .23715)" y="-92196.844" x="1650.45" font-family="Arial"/>
   <text id="text124" style="word-spacing:0;letter-spacing:0" transform="scale(1.0508 .95163)" font-size="1593.2px" y="-21796.41" x="-2188.47" font-family="Gentium Book Basic" line-height="125%">
    <tspan id="tspan126" y="-21796.41" x="-2188.47"/>
   </text>
   <text id="text128" style="text-anchor:middle" font-size="578.89px" transform="scale(4.2168 .23715)" y="-91770.703" x="1884.34" font-family="Arial"/>
   <text id="text130" style="word-spacing:0;letter-spacing:0" font-size="4654.5px" line-height="125%" y="-17166.311" x="-38193.34" font-family="Gentium Book Basic">
    <tspan id="tspan132" y="-17166.311" x="-38193.34"/>
   </text>
  </g>
  <text id="text134" style="text-anchor:middle" font-size="1691.2px" transform="scale(4.0128 .2492)" y="-81460.969" x="-2419.25" font-family="Arial"/>
 </g>
 <g id="g136">
  <text id="text138" style="word-spacing:0;letter-spacing:0" font-family="Gentium Book Basic" font-size="4654.5px" line-height="125%" stroke="#cd1d31" y="-20742.17" x="-8882.96" stroke-width="23.273">
   <tspan id="tspan140" y="-20742.17" x="-8882.96"/>
  </text>
  <text id="text142" style="text-anchor:middle" font-size="1691.2px" transform="scale(4.0128 .2492)" y="-95810.156" x="4884.8599" font-family="Arial"/>
  <text id="text144" style="word-spacing:0;letter-spacing:0" font-family="Gentium Book Basic" font-size="4654.5px" line-height="125%" stroke="#cd1d31" y="-23623.801" x="12053.65" stroke-width="23.273">
   <tspan id="tspan146" y="-23623.801" x="12053.65"/>
  </text>
  <text id="text148" style="text-anchor:middle" font-size="1691.2px" transform="scale(4.0128 .2492)" y="-107373.4" x="10102.35" font-family="Arial"/>
 </g>
 <path id="path150" style="color:#000000" fill="#fff" d="m199.03 95.979a9.9895 9.9895 0 0 0 -9.1301 9.9494v249.43a9.9895 9.9895 0 0 0 10.066 9.9494h58.29l40.97 41.44a9.9895 9.9895 0 0 0 10.652 2.341l19.808-7.374a9.9895 9.9895 0 0 0 6.4378 -8.3107l5.393-53.6 38.636-47.991a9.9895 9.9895 0 0 0 -0.58523 -13.227l-172.47-179.57a9.9895 9.9895 0 0 0 -8.0686 -3.0419"/>
</svg>
