<?xml version="1.0" encoding="UTF-8" standalone="no"?>
<!-- Created with Inkscape (http://www.inkscape.org/) -->
<svg id="svg2" xmlns:rdf="http://www.w3.org/1999/02/22-rdf-syntax-ns#" xmlns="http://www.w3.org/2000/svg" height="100%" viewBox="0 0 512 512" width="100%" version="1.1" xmlns:cc="http://creativecommons.org/ns#" xmlns:dc="http://purl.org/dc/elements/1.1/">
 <metadata id="metadata70">
  <rdf:RDF>
   <cc:Work rdf:about="">
    <dc:format>image/svg+xml</dc:format>
    <dc:type rdf:resource="http://purl.org/dc/dcmitype/StillImage"/>
    <dc:title/>
   </cc:Work>
  </rdf:RDF>
 </metadata>
 <defs id="defs68">
  <style id="style5970" type="text/css"/>
 </defs>
 <text id="text20" style="word-spacing:0;letter-spacing:0" font-size="129.23px" line-height="125%" y="231.35997" x="729.64001" font-family="Gentium Book Basic">
  <tspan id="tspan22" y="231.35997" x="729.64001"/>
 </text>
 <text id="text24" style="text-anchor:middle" font-size="46.954px" transform="scale(4.0128 .24920)" y="579.25812" x="378.90805" font-family="Arial"/>
 <text id="text26" style="word-spacing:0;letter-spacing:0" font-size="129.23px" line-height="125%" y="151.35997" x="1310.91" font-family="Gentium Book Basic">
  <tspan id="tspan28" y="151.35997" x="1310.91"/>
 </text>
 <text id="text30" style="text-anchor:middle" font-size="46.954px" transform="scale(4.0128 .24920)" y="258.21997" x="523.75732" font-family="Arial"/>
 <text id="text32" style="word-spacing:0;letter-spacing:0" font-size="129.23px" line-height="125%" y="-29.900009" x="239.33" font-family="Gentium Book Basic">
  <tspan id="tspan34" y="-29.900009" x="239.33"/>
 </text>
 <text id="text36" style="text-anchor:middle" font-size="46.954px" transform="scale(4.0128 .24920)" y="-469.1264" x="256.71869" font-family="Arial"/>
 <text id="text38" style="word-spacing:0;letter-spacing:0" font-size="129.23px" line-height="125%" y="-246.37001" x="1337.38" font-family="Gentium Book Basic">
  <tspan id="tspan40" y="-246.37001" x="1337.38"/>
 </text>
 <text id="text42" style="text-anchor:middle" font-size="46.954px" transform="scale(4.0128 .24920)" y="-1337.802" x="530.3573" font-family="Arial"/>
 <text id="text44" style="word-spacing:0;letter-spacing:0" font-size="129.23px" line-height="125%" y="-326.37" x="1918.65" font-family="Gentium Book Basic">
  <tspan id="tspan46" y="-326.37" x="1918.65"/>
 </text>
 <text id="text48" style="text-anchor:middle" font-size="46.954px" transform="scale(4.0128 .24920)" y="-1658.8303" x="675.20654" font-family="Arial"/>
 <text id="text50" style="word-spacing:0;letter-spacing:0" font-size="129.23px" line-height="125%" y="-798.77002" x="1529.53" font-family="Gentium Book Basic">
  <tspan id="tspan52" y="-798.77002" x="1529.53"/>
 </text>
 <text id="text54" style="text-anchor:middle" font-size="46.954px" transform="scale(4.0128 .24920)" y="-3554.4807" x="578.237" font-family="Arial"/>
 <text id="text56" style="word-spacing:0;letter-spacing:0" font-size="129.23px" line-height="125%" y="-878.78003" x="2110.79" font-family="Gentium Book Basic">
  <tspan id="tspan58" y="-878.78003" x="2110.79"/>
 </text>
 <text id="text60" style="text-anchor:middle" font-size="46.954px" transform="scale(4.0128 .24920)" y="-3875.519" x="723.0863" font-family="Arial"/>
 <text id="text62" style="word-spacing:0;letter-spacing:0" font-size="208.33px" line-height="125%" y="535.94006" x="277.98999" font-family="Gentium Book Basic">
  <tspan id="tspan64" y="535.94006" x="277.98999"/>
 </text>
 <text id="text20-9" font-size="129.23px" style="word-spacing:0;letter-spacing:0" letter-spacing="0" line-height="125%" word-spacing="0" y="231.35997" x="729.64001" font-family="&apos;Gentium Book Basic&apos;">
  <tspan id="tspan22-8" y="231.35997" x="729.64001"/>
 </text>
 <text id="text24-3" font-size="46.954px" style="text-anchor:middle" transform="scale(4.0128 .24920)" y="579.25812" x="378.90805" font-family="Arial"/>
 <text id="text26-28" font-size="129.23px" style="word-spacing:0;letter-spacing:0" letter-spacing="0" line-height="125%" word-spacing="0" y="151.35997" x="1310.91" font-family="&apos;Gentium Book Basic&apos;">
  <tspan id="tspan28-5" y="151.35997" x="1310.91"/>
 </text>
 <text id="text30-3" font-size="46.954px" style="text-anchor:middle" transform="scale(4.0128 .24920)" y="258.21997" x="523.75732" font-family="Arial"/>
 <text id="text32-0" font-size="129.23px" style="word-spacing:0;letter-spacing:0" letter-spacing="0" line-height="125%" word-spacing="0" y="-29.900009" x="239.33" font-family="&apos;Gentium Book Basic&apos;">
  <tspan id="tspan34-0" y="-29.900009" x="239.33"/>
 </text>
 <text id="text36-89" font-size="46.954px" style="text-anchor:middle" transform="scale(4.0128 .24920)" y="-469.1264" x="256.71869" font-family="Arial"/>
 <text id="text38-77" font-size="129.23px" style="word-spacing:0;letter-spacing:0" letter-spacing="0" line-height="125%" word-spacing="0" y="-246.37001" x="1337.38" font-family="&apos;Gentium Book Basic&apos;">
  <tspan id="tspan40-9" y="-246.37001" x="1337.38"/>
 </text>
 <text id="text42-3" font-size="46.954px" style="text-anchor:middle" transform="scale(4.0128 .24920)" y="-1337.802" x="530.3573" font-family="Arial"/>
 <text id="text44-6" font-size="129.23px" style="word-spacing:0;letter-spacing:0" letter-spacing="0" line-height="125%" word-spacing="0" y="-326.37" x="1918.65" font-family="&apos;Gentium Book Basic&apos;">
  <tspan id="tspan46-5" y="-326.37" x="1918.65"/>
 </text>
 <text id="text48-9" font-size="46.954px" style="text-anchor:middle" transform="scale(4.0128 .24920)" y="-1658.8303" x="675.20654" font-family="Arial"/>
 <text id="text50-0" font-size="129.23px" style="word-spacing:0;letter-spacing:0" letter-spacing="0" line-height="125%" word-spacing="0" y="-798.77002" x="1529.53" font-family="&apos;Gentium Book Basic&apos;">
  <tspan id="tspan52-56" y="-798.77002" x="1529.53"/>
 </text>
 <text id="text54-9" font-size="46.954px" style="text-anchor:middle" transform="scale(4.0128 .24920)" y="-3554.4807" x="578.237" font-family="Arial"/>
 <text id="text56-7" font-size="129.23px" style="word-spacing:0;letter-spacing:0" letter-spacing="0" line-height="125%" word-spacing="0" y="-878.78003" x="2110.79" font-family="&apos;Gentium Book Basic&apos;">
  <tspan id="tspan58-7" y="-878.78003" x="2110.79"/>
 </text>
 <text id="text60-3" font-size="46.954px" style="text-anchor:middle" transform="scale(4.0128 .24920)" y="-3875.519" x="723.0863" font-family="Arial"/>
 <text id="text62-9" font-size="208.33px" style="word-spacing:0;letter-spacing:0" letter-spacing="0" line-height="125%" word-spacing="0" y="535.94006" x="277.98999" font-family="&apos;Gentium Book Basic&apos;">
  <tspan id="tspan64-1" y="535.94006" x="277.98999"/>
 </text>
 <text id="text20-7" style="word-spacing:0;letter-spacing:0" font-size="129.23px" line-height="125%" y="272.59131" x="1722.3666" font-family="&apos;Gentium Book Basic&apos;">
  <tspan id="tspan22-5" y="272.59131" x="1722.3666"/>
 </text>
 <text id="text24-7" style="text-anchor:middle" font-size="46.954px" transform="scale(4.0128 .24920)" y="744.70081" x="626.29681" font-family="Arial"/>
 <text id="text26-2" style="word-spacing:0;letter-spacing:0" font-size="129.23px" line-height="125%" y="192.59129" x="2303.6367" font-family="&apos;Gentium Book Basic&apos;">
  <tspan id="tspan28-2" y="192.59129" x="2303.6367"/>
 </text>
 <text id="text30-0" style="text-anchor:middle" font-size="46.954px" transform="scale(4.0128 .24920)" y="423.67249" x="771.14606" font-family="Arial"/>
 <text id="text32-4" style="word-spacing:0;letter-spacing:0" font-size="129.23px" line-height="125%" y="11.330297" x="1232.0566" font-family="&apos;Gentium Book Basic&apos;">
  <tspan id="tspan34-2" y="11.330297" x="1232.0566"/>
 </text>
 <text id="text36-8" style="text-anchor:middle" font-size="46.954px" transform="scale(4.0128 .24920)" y="-303.68381" x="504.10742" font-family="Arial"/>
 <text id="text38-7" style="word-spacing:0;letter-spacing:0" font-size="129.23px" line-height="125%" y="-205.1387" x="2330.1067" font-family="&apos;Gentium Book Basic&apos;">
  <tspan id="tspan40-4" y="-205.1387" x="2330.1067"/>
 </text>
 <text id="text42-4" style="text-anchor:middle" font-size="46.954px" transform="scale(4.0128 .24920)" y="-1172.3494" x="777.74603" font-family="Arial"/>
 <text id="text44-3" style="word-spacing:0;letter-spacing:0" font-size="129.23px" line-height="125%" y="-285.14871" x="2911.3767" font-family="&apos;Gentium Book Basic&apos;">
  <tspan id="tspan46-8" y="-285.14871" x="2911.3767"/>
 </text>
 <text id="text48-7" style="text-anchor:middle" font-size="46.954px" transform="scale(4.0128 .24920)" y="-1493.3877" x="922.59528" font-family="Arial"/>
 <text id="text50-1" style="word-spacing:0;letter-spacing:0" font-size="129.23px" line-height="125%" y="-757.54871" x="2522.2566" font-family="&apos;Gentium Book Basic&apos;">
  <tspan id="tspan52-5" y="-757.54871" x="2522.2566"/>
 </text>
 <text id="text54-3" style="text-anchor:middle" font-size="46.954px" transform="scale(4.0128 .24920)" y="-3389.0381" x="825.62579" font-family="Arial"/>
 <text id="text56-4" style="word-spacing:0;letter-spacing:0" font-size="129.23px" line-height="125%" y="-837.54871" x="3103.5166" font-family="&apos;Gentium Book Basic&apos;">
  <tspan id="tspan58-5" y="-837.54871" x="3103.5166"/>
 </text>
 <text id="text60-5" style="text-anchor:middle" font-size="46.954px" transform="scale(4.0128 .24920)" y="-3710.0664" x="970.47504" font-family="Arial"/>
 <text id="text62-3" style="word-spacing:0;letter-spacing:0" font-size="208.33px" line-height="125%" y="577.17133" x="1270.7166" font-family="&apos;Gentium Book Basic&apos;">
  <tspan id="tspan64-7" y="577.17133" x="1270.7166"/>
 </text>
 <text id="text20-7-1" font-size="129.23px" style="word-spacing:0;letter-spacing:0" line-height="125%" y="231.36" x="729.64001" font-family="&apos;Gentium Book Basic&apos;">
  <tspan id="tspan22-1" y="231.36" x="729.64001"/>
 </text>
 <text id="text24-1" style="text-anchor:middle" font-size="46.954px" transform="scale(4.0128 .24920)" y="579.24701" x="378.90805" font-family="Arial"/>
 <text id="text26-3" font-size="129.23px" style="word-spacing:0;letter-spacing:0" line-height="125%" y="151.36" x="1310.91" font-family="&apos;Gentium Book Basic&apos;">
  <tspan id="tspan28-5-0" y="151.36" x="1310.91"/>
 </text>
 <text id="text30-9" style="text-anchor:middle" font-size="46.954px" transform="scale(4.0128 .24920)" y="258.21869" x="523.75732" font-family="Arial"/>
 <text id="text32-7" font-size="129.23px" style="word-spacing:0;letter-spacing:0" line-height="125%" y="-29.900999" x="239.33" font-family="&apos;Gentium Book Basic&apos;">
  <tspan id="tspan34-8" y="-29.900999" x="239.33"/>
 </text>
 <text id="text36-2" style="text-anchor:middle" font-size="46.954px" transform="scale(4.0128 .24920)" y="-469.1376" x="256.71869" font-family="Arial"/>
 <text id="text38-9" font-size="129.23px" style="word-spacing:0;letter-spacing:0" line-height="125%" y="-246.37" x="1337.38" font-family="&apos;Gentium Book Basic&apos;">
  <tspan id="tspan40-8" y="-246.37" x="1337.38"/>
 </text>
 <text id="text42-6" style="text-anchor:middle" font-size="46.954px" transform="scale(4.0128 .24920)" y="-1337.8032" x="530.3573" font-family="Arial"/>
 <text id="text44-1" font-size="129.23px" style="word-spacing:0;letter-spacing:0" line-height="125%" y="-326.38" x="1918.65" font-family="&apos;Gentium Book Basic&apos;">
  <tspan id="tspan46-7" y="-326.38" x="1918.65"/>
 </text>
 <text id="text48-1" style="text-anchor:middle" font-size="46.954px" transform="scale(4.0128 .24920)" y="-1658.8414" x="675.20654" font-family="Arial"/>
 <text id="text50-5" font-size="129.23px" style="word-spacing:0;letter-spacing:0" line-height="125%" y="-798.78003" x="1529.53" font-family="&apos;Gentium Book Basic&apos;">
  <tspan id="tspan52-9" y="-798.78003" x="1529.53"/>
 </text>
 <text id="text54-2" style="text-anchor:middle" font-size="46.954px" transform="scale(4.0128 .24920)" y="-3554.4917" x="578.237" font-family="Arial"/>
 <text id="text56-1" font-size="129.23px" style="word-spacing:0;letter-spacing:0" line-height="125%" y="-878.78003" x="2110.79" font-family="&apos;Gentium Book Basic&apos;">
  <tspan id="tspan58-2" y="-878.78003" x="2110.79"/>
 </text>
 <text id="text60-9" style="text-anchor:middle" font-size="46.954px" transform="scale(4.0128 .24920)" y="-3875.5203" x="723.0863" font-family="Arial"/>
 <text id="text62-5" font-size="208.33px" style="word-spacing:0;letter-spacing:0" line-height="125%" y="535.94" x="277.98999" font-family="&apos;Gentium Book Basic&apos;">
  <tspan id="tspan64-9" y="535.94" x="277.98999"/>
 </text>
 <text id="text3006" font-size="129.23px" style="word-spacing:0;letter-spacing:0" line-height="125%" y="270.86887" x="-1745.9596" font-family="&apos;Gentium Book Basic&apos;">
  <tspan id="tspan3008" y="270.86887" x="-1745.9596"/>
 </text>
 <text id="text3010" style="text-anchor:middle" font-size="46.954px" transform="scale(4.0128 .24920)" y="737.789" x="-238.01451" font-family="Arial"/>
 <text id="text3012" font-size="129.23px" style="word-spacing:0;letter-spacing:0" line-height="125%" y="190.86885" x="-1164.6896" font-family="&apos;Gentium Book Basic&apos;">
  <tspan id="tspan3014" y="190.86885" x="-1164.6896"/>
 </text>
 <text id="text3016" style="text-anchor:middle" font-size="46.954px" transform="scale(4.0128 .24920)" y="416.76062" x="-93.165253" font-family="Arial"/>
 <text id="text3018" font-size="129.23px" style="word-spacing:0;letter-spacing:0" line-height="125%" y="9.607852" x="-2236.2695" font-family="&apos;Gentium Book Basic&apos;">
  <tspan id="tspan3020" y="9.607852" x="-2236.2695"/>
 </text>
 <text id="text3022" style="text-anchor:middle" font-size="46.954px" transform="scale(4.0128 .24920)" y="-310.59567" x="-360.20389" font-family="Arial"/>
 <text id="text3024" font-size="129.23px" style="word-spacing:0;letter-spacing:0" line-height="125%" y="-206.86115" x="-1138.2196" font-family="&apos;Gentium Book Basic&apos;">
  <tspan id="tspan3026" y="-206.86115" x="-1138.2196"/>
 </text>
 <text id="text3028" style="text-anchor:middle" font-size="46.954px" transform="scale(4.0128 .24920)" y="-1179.2612" x="-86.565308" font-family="Arial"/>
 <text id="text3030" font-size="129.23px" style="word-spacing:0;letter-spacing:0" line-height="125%" y="-286.87115" x="-556.94958" font-family="&apos;Gentium Book Basic&apos;">
  <tspan id="tspan3032" y="-286.87115" x="-556.94958"/>
 </text>
 <text id="text3034" style="text-anchor:middle" font-size="46.954px" transform="scale(4.0128 .24920)" y="-1500.2996" x="58.283993" font-family="Arial"/>
 <text id="text3036" font-size="129.23px" style="word-spacing:0;letter-spacing:0" line-height="125%" y="-759.27118" x="-946.06958" font-family="&apos;Gentium Book Basic&apos;">
  <tspan id="tspan3038" y="-759.27118" x="-946.06958"/>
 </text>
 <text id="text3040" style="text-anchor:middle" font-size="46.954px" transform="scale(4.0128 .24920)" y="-3395.95" x="-38.685551" font-family="Arial"/>
 <text id="text3042" font-size="129.23px" style="word-spacing:0;letter-spacing:0" line-height="125%" y="-839.27118" x="-364.80954" font-family="&apos;Gentium Book Basic&apos;">
  <tspan id="tspan3044" y="-839.27118" x="-364.80954"/>
 </text>
 <text id="text3046" style="text-anchor:middle" font-size="46.954px" transform="scale(4.0128 .24920)" y="-3716.9783" x="106.16375" font-family="Arial"/>
 <text id="text3048" font-size="208.33px" style="word-spacing:0;letter-spacing:0" line-height="125%" y="575.44885" x="-2197.6096" font-family="&apos;Gentium Book Basic&apos;">
  <tspan id="tspan3050" y="575.44885" x="-2197.6096"/>
 </text>
 <text id="text3113" font-size="129.23px" style="word-spacing:0;letter-spacing:0" line-height="125%" y="525.09741" x="-1144.6073" font-family="&apos;Gentium Book Basic&apos;">
  <tspan id="tspan3115" y="525.09741" x="-1144.6073"/>
 </text>
 <text id="text3117" style="text-anchor:middle" font-size="46.954px" transform="scale(4.0128 .24920)" y="1757.9624" x="-88.156754" font-family="Arial"/>
 <text id="text3119" font-size="129.23px" style="word-spacing:0;letter-spacing:0" line-height="125%" y="445.09738" x="-563.33722" font-family="&apos;Gentium Book Basic&apos;">
  <tspan id="tspan3121" y="445.09738" x="-563.33722"/>
 </text>
 <text id="text3123" style="text-anchor:middle" font-size="46.954px" transform="scale(4.0128 .24920)" y="1436.9341" x="56.692501" font-family="Arial"/>
 <text id="text3125" font-size="129.23px" style="word-spacing:0;letter-spacing:0" line-height="125%" y="263.8364" x="-1634.9172" font-family="&apos;Gentium Book Basic&apos;">
  <tspan id="tspan3127" y="263.8364" x="-1634.9172"/>
 </text>
 <text id="text3129" style="text-anchor:middle" font-size="46.954px" transform="scale(4.0128 .24920)" y="709.57782" x="-210.34613" font-family="Arial"/>
 <text id="text3131" font-size="129.23px" style="word-spacing:0;letter-spacing:0" line-height="125%" y="47.367382" x="-536.86725" font-family="&apos;Gentium Book Basic&apos;">
  <tspan id="tspan3133" y="47.367382" x="-536.86725"/>
 </text>
 <text id="text3135" style="text-anchor:middle" font-size="46.954px" transform="scale(4.0128 .24920)" y="-159.08783" x="63.292446" font-family="Arial"/>
 <text id="text3137" font-size="129.23px" style="word-spacing:0;letter-spacing:0" line-height="125%" y="-32.642632" x="44.402721" font-family="&apos;Gentium Book Basic&apos;">
  <tspan id="tspan3139" y="-32.642632" x="44.402721"/>
 </text>
 <text id="text3141" style="text-anchor:middle" font-size="46.954px" transform="scale(4.0128 .24920)" y="-480.12613" x="208.14175" font-family="Arial"/>
 <text id="text3143" font-size="129.23px" style="word-spacing:0;letter-spacing:0" line-height="125%" y="-505.04263" x="-344.71725" font-family="&apos;Gentium Book Basic&apos;">
  <tspan id="tspan3145" y="-505.04263" x="-344.71725"/>
 </text>
 <text id="text3147" style="text-anchor:middle" font-size="46.954px" transform="scale(4.0128 .24920)" y="-2375.7764" x="111.1722" font-family="Arial"/>
 <text id="text3149" font-size="129.23px" style="word-spacing:0;letter-spacing:0" line-height="125%" y="-585.0426" x="236.5428" font-family="&apos;Gentium Book Basic&apos;">
  <tspan id="tspan3151" y="-585.0426" x="236.5428"/>
 </text>
 <text id="text3153" style="text-anchor:middle" font-size="46.954px" transform="scale(4.0128 .24920)" y="-2696.8047" x="256.02151" font-family="Arial"/>
 <text id="text3155" font-size="208.33px" style="word-spacing:0;letter-spacing:0" line-height="125%" y="829.67743" x="-1596.2573" font-family="&apos;Gentium Book Basic&apos;">
  <tspan id="tspan3157" y="829.67743" x="-1596.2573"/>
 </text>
 <g id="g9" fill-rule="evenodd">
  <path id="path11" fill="#b93d48" d="m471.95 253.05c0 120.9-98.01 218.9-218.9 218.9-120.9 0-218.9-98.01-218.9-218.9 0-120.9 98.01-218.9 218.9-218.9 120.9 0 218.9 98.01 218.9 218.9"/>
  <path id="path13" fill-opacity=".067" d="m256 1c-140.83 0-255 114.17-255 255s114.17 255 255 255 255-114.17 255-255-114.17-255-255-255m8.827 44.931c120.9 0 218.9 98 218.9 218.9s-98 218.9-218.9 218.9-218.93-98-218.93-218.9 98.03-218.9 218.93-218.9"/>
  <g id="g15" fill-opacity=".129">
   <path id="path17" d="m256 4.433c-138.94 0-251.57 112.63-251.57 251.57s112.63 251.57 251.57 251.57 251.57-112.63 251.57-251.57-112.63-251.57-251.57-251.57m5.885 38.556c120.9 0 218.9 98 218.9 218.9s-98 218.9-218.9 218.9-218.93-98-218.93-218.9 98.03-218.9 218.93-218.9"/>
   <path id="path19" d="m256 8.356c-136.77 0-247.64 110.87-247.64 247.64s110.87 247.64 247.64 247.64 247.64-110.87 247.64-247.64-110.87-247.64-247.64-247.64m2.942 31.691c120.9 0 218.9 98 218.9 218.9s-98 218.9-218.9 218.9-218.93-98-218.93-218.9 98.03-218.9 218.93-218.9"/>
  </g>
  <path id="path21" d="m253.04 7.859c-135.42 0-245.19 109.78-245.19 245.19 0 135.42 109.78 245.19 245.19 245.19 135.42 0 245.19-109.78 245.19-245.19 0-135.42-109.78-245.19-245.19-245.19zm0 26.297c120.9 0 218.9 98 218.9 218.9s-98 218.9-218.9 218.9-218.93-98-218.93-218.9 98.03-218.9 218.93-218.9z" stroke-opacity=".31" stroke="#000" stroke-width="4.904" fill="#fff"/>
 </g>
 <text id="text23" font-size="129.23px" style="word-spacing:0;letter-spacing:0" line-height="125%" y="231.36" x="729.64001" font-family="&apos;Gentium Book Basic&apos;">
  <tspan id="tspan25" y="231.36" x="729.64001"/>
 </text>
 <text id="text27" style="text-anchor:middle" font-size="46.954px" transform="scale(4.0128 .24920)" y="579.24701" x="378.90805" font-family="Arial"/>
 <text id="text29" font-size="129.23px" style="word-spacing:0;letter-spacing:0" line-height="125%" y="151.36" x="1310.91" font-family="&apos;Gentium Book Basic&apos;">
  <tspan id="tspan31" y="151.36" x="1310.91"/>
 </text>
 <text id="text33" style="text-anchor:middle" font-size="46.954px" transform="scale(4.0128 .24920)" y="258.21869" x="523.75732" font-family="Arial"/>
 <text id="text35" font-size="129.23px" style="word-spacing:0;letter-spacing:0" line-height="125%" y="-29.900999" x="239.33" font-family="&apos;Gentium Book Basic&apos;">
  <tspan id="tspan37" y="-29.900999" x="239.33"/>
 </text>
 <text id="text39" style="text-anchor:middle" font-size="46.954px" transform="scale(4.0128 .24920)" y="-469.1376" x="256.71869" font-family="Arial"/>
 <text id="text41" font-size="129.23px" style="word-spacing:0;letter-spacing:0" line-height="125%" y="-246.37" x="1337.38" font-family="&apos;Gentium Book Basic&apos;">
  <tspan id="tspan43" y="-246.37" x="1337.38"/>
 </text>
 <text id="text45" style="text-anchor:middle" font-size="46.954px" transform="scale(4.0128 .24920)" y="-1337.8032" x="530.3573" font-family="Arial"/>
 <text id="text47" font-size="129.23px" style="word-spacing:0;letter-spacing:0" line-height="125%" y="-326.38" x="1918.65" font-family="&apos;Gentium Book Basic&apos;">
  <tspan id="tspan49" y="-326.38" x="1918.65"/>
 </text>
 <text id="text51" style="text-anchor:middle" font-size="46.954px" transform="scale(4.0128 .24920)" y="-1658.8414" x="675.20654" font-family="Arial"/>
 <text id="text53" font-size="129.23px" style="word-spacing:0;letter-spacing:0" line-height="125%" y="-798.78003" x="1529.53" font-family="&apos;Gentium Book Basic&apos;">
  <tspan id="tspan55" y="-798.78003" x="1529.53"/>
 </text>
 <text id="text57" style="text-anchor:middle" font-size="46.954px" transform="scale(4.0128 .24920)" y="-3554.4917" x="578.237" font-family="Arial"/>
 <text id="text59" font-size="129.23px" style="word-spacing:0;letter-spacing:0" line-height="125%" y="-878.78003" x="2110.79" font-family="&apos;Gentium Book Basic&apos;">
  <tspan id="tspan61" y="-878.78003" x="2110.79"/>
 </text>
 <text id="text63" style="text-anchor:middle" font-size="46.954px" transform="scale(4.0128 .24920)" y="-3875.5203" x="723.0863" font-family="Arial"/>
 <text id="text65" font-size="208.33px" style="word-spacing:0;letter-spacing:0" line-height="125%" y="535.94" x="277.98999" font-family="&apos;Gentium Book Basic&apos;">
  <tspan id="tspan67" y="535.94" x="277.98999"/>
 </text>
 <path id="path71" opacity=".25" d="m193.37 124.09l0.01 0.01v31.49l14.97 14.97h-14.98l0.01 0.01v31.49l14.97 14.97h-14.98l0.01 0.01v14.93l-14.94-14.94h-55.16v31.5l14.94 14.94h-14.94v31.5l14.97 14.97h-14.97v31.5l14.97 14.97h-14.97v31.5l77.82 77.82c16.65 4.05 34.05 6.22 51.95 6.22 106.18 0 194.7-75.6 214.67-175.92l-79-79h-47.25l-92.94-92.94h-55.16zm146.26 137.57h7.06l1.81 1.81h-7.06l-1.81-1.81z"/>
 <path id="path207" fill="#fff" d="m193.38 124.09v31.5h55.16v-31.5h-55.16m0 46.47v31.5h55.16v-31.5h-55.16m-70.09 46.47v31.5h55.16v-31.5h-55.16m70.09 0v31.5h55.16v-31.5h-55.16m140.19 0v31.5h55.16v-31.5h-55.16m-210.28 46.44v31.5h55.16v-31.5h-55.16m70.09 0v31.5h55.16v-31.5h-55.16m70.09 0v31.5h55.16v-31.5h-55.16m70.09 0v31.5h55.16v-31.5h-55.16m-210.28 46.47v31.5h55.16v-31.5h-55.16m70.09 0v31.5h55.16v-31.5h-55.16m70.09 0v31.5h55.16v-31.5h-55.16m70.09 0v31.5h55.16v-31.5h-55.16m-210.28 46.47v31.5h55.16v-31.5h-55.16m70.09 0v31.5h55.16v-31.5h-55.16m70.09 0v31.5h55.16v-31.5h-55.16m70.09 0v31.5h55.16v-31.5h-55.16"/>
</svg>
