<?xml version="1.0" encoding="UTF-8" standalone="no"?>
<!-- Created with Inkscape (http://www.inkscape.org/) -->
<svg id="svg2" xmlns:rdf="http://www.w3.org/1999/02/22-rdf-syntax-ns#" xmlns="http://www.w3.org/2000/svg" height="100%" viewBox="0 0 512 512" width="100%" version="1.1" xmlns:cc="http://creativecommons.org/ns#" xmlns:dc="http://purl.org/dc/elements/1.1/">
 <metadata id="metadata98">
  <rdf:RDF>
   <cc:Work rdf:about="">
    <dc:format>image/svg+xml</dc:format>
    <dc:type rdf:resource="http://purl.org/dc/dcmitype/StillImage"/>
   </cc:Work>
  </rdf:RDF>
 </metadata>
 <g id="g30" fill-rule="evenodd">
  <path id="path32" fill="#abcc59" d="m471.95 253.05c0 120.9-98.01 218.91-218.91 218.91s-218.91-98.01-218.91-218.91 98.01-218.91 218.91-218.91 218.91 98.01 218.91 218.91"/>
  <path id="path34" fill-opacity=".067" d="m256 1c-140.83 0-255 114.17-255 255s114.17 255 255 255 255-114.17 255-255-114.17-255-255-255m8.827 44.931c120.9 0 218.9 98 218.9 218.9s-98 218.9-218.9 218.9-218.93-98-218.93-218.9 98.03-218.9 218.93-218.9"/>
  <g id="g36" fill-opacity=".129">
   <path id="path38" d="m256 4.43c-138.94 0-251.57 112.63-251.57 251.57s112.63 251.57 251.57 251.57 251.57-112.63 251.57-251.57-112.63-251.57-251.57-251.57m5.885 38.556c120.9 0 218.9 98 218.9 218.9s-98 218.9-218.9 218.9-218.93-98-218.93-218.9 98.03-218.9 218.93-218.9"/>
   <path id="path40" d="m256 8.36c-136.77 0-247.64 110.87-247.64 247.64s110.87 247.64 247.64 247.64 247.64-110.87 247.64-247.64-110.87-247.64-247.64-247.64m2.942 31.691c120.9 0 218.9 98 218.9 218.9s-98 218.9-218.9 218.9-218.93-98-218.93-218.9 98.03-218.9 218.93-218.9"/>
  </g>
  <path id="path42" d="m253.04 7.86c-135.42 0-245.19 109.78-245.19 245.19 0 135.42 109.78 245.19 245.19 245.19 135.42 0 245.19-109.78 245.19-245.19 0-135.42-109.78-245.19-245.19-245.19zm0 26.297c120.9 0 218.9 98 218.9 218.9s-98 218.9-218.9 218.9-218.93-98-218.93-218.9 98.03-218.9 218.93-218.9z" stroke-opacity=".31" stroke="#000" stroke-width="4.904" fill="#fff"/>
 </g>
 <text id="text44" style="word-spacing:0;letter-spacing:0" font-size="129.23px" line-height="125%" y="231.36" x="729.64001" font-family="Gentium Book Basic">
  <tspan id="tspan46" y="231.36" x="729.64001"/>
 </text>
 <text id="text48" style="text-anchor:middle" font-size="46.954px" transform="scale(4.0128 .2492)" y="579.26001" x="378.91" font-family="Arial"/>
 <text id="text50" style="word-spacing:0;letter-spacing:0" font-size="129.23px" line-height="125%" y="151.36" x="1310.91" font-family="Gentium Book Basic">
  <tspan id="tspan52" y="151.36" x="1310.91"/>
 </text>
 <text id="text54" style="text-anchor:middle" font-size="46.954px" transform="scale(4.0128 .2492)" y="258.22" x="523.76001" font-family="Arial"/>
 <text id="text56" style="word-spacing:0;letter-spacing:0" font-size="129.23px" line-height="125%" y="-29.9" x="239.33" font-family="Gentium Book Basic">
  <tspan id="tspan58" y="-29.9" x="239.33"/>
 </text>
 <text id="text60" style="text-anchor:middle" font-size="46.954px" transform="scale(4.0128 .2492)" y="-469.13" x="256.72" font-family="Arial"/>
 <text id="text62" style="word-spacing:0;letter-spacing:0" font-size="129.23px" line-height="125%" y="-246.37" x="1337.38" font-family="Gentium Book Basic">
  <tspan id="tspan64" y="-246.37" x="1337.38"/>
 </text>
 <text id="text66" style="text-anchor:middle" font-size="46.954px" transform="scale(4.0128 .2492)" y="-1337.8" x="530.35999" font-family="Arial"/>
 <text id="text68" style="word-spacing:0;letter-spacing:0" font-size="129.23px" line-height="125%" y="-326.37" x="1918.65" font-family="Gentium Book Basic">
  <tspan id="tspan70" y="-326.37" x="1918.65"/>
 </text>
 <text id="text72" style="text-anchor:middle" font-size="46.954px" transform="scale(4.0128 .2492)" y="-1658.83" x="675.21002" font-family="Arial"/>
 <text id="text74" style="word-spacing:0;letter-spacing:0" font-size="129.23px" line-height="125%" y="-798.77002" x="1529.53" font-family="Gentium Book Basic">
  <tspan id="tspan76" y="-798.77002" x="1529.53"/>
 </text>
 <text id="text78" style="text-anchor:middle" font-size="46.954px" transform="scale(4.0128 .2492)" y="-3554.48" x="578.23999" font-family="Arial"/>
 <text id="text80" style="word-spacing:0;letter-spacing:0" font-size="129.23px" line-height="125%" y="-878.78003" x="2110.79" font-family="Gentium Book Basic">
  <tspan id="tspan82" y="-878.78003" x="2110.79"/>
 </text>
 <text id="text84" style="text-anchor:middle" font-size="46.954px" transform="scale(4.0128 .2492)" y="-3875.52" x="723.09003" font-family="Arial"/>
 <text id="text86" style="word-spacing:0;letter-spacing:0" font-size="208.33px" line-height="125%" y="535.94" x="277.98999" font-family="Gentium Book Basic">
  <tspan id="tspan88" y="535.94" x="277.98999"/>
 </text>
 <g id="g90" fill-rule="evenodd">
  <path id="path92" opacity=".25" d="m176.09 121.72c-2.29-0.028-4.118 0.305-5.375 1.031-22.622 13.06-23.07 243.72-1.344 265.44l83.78 83.78c100.01-0.056 184.37-67.19 210.47-158.84l-71.53-71.53c-38.3-38.3-181.65-119.45-216-119.87"/>
  <path id="path94" fill="#fff" d="m170.73 122.74c-23.08 13.326-23.08 253.2 0 266.52 23.08 13.326 230.81-106.61 230.81-133.26 0-26.652-207.73-146.59-230.81-133.26"/>
 </g>
</svg>
