<?xml version="1.0" encoding="UTF-8" standalone="no"?>
<!-- Created with Inkscape (http://www.inkscape.org/) -->
<svg id="svg2" xmlns:rdf="http://www.w3.org/1999/02/22-rdf-syntax-ns#" xmlns="http://www.w3.org/2000/svg" height="100%" viewBox="0 0 512 512" width="100%" version="1.1" xmlns:cc="http://creativecommons.org/ns#" xmlns:dc="http://purl.org/dc/elements/1.1/">
 <metadata id="metadata72">
  <rdf:RDF>
   <cc:Work rdf:about="">
    <dc:format>image/svg+xml</dc:format>
    <dc:type rdf:resource="http://purl.org/dc/dcmitype/StillImage"/>
   </cc:Work>
  </rdf:RDF>
 </metadata>
 <path id="path4" d="m471.95 253.05c0 120.9-98.01 218.9-218.9 218.9-120.9 0-218.9-98.01-218.9-218.9 0-120.9 98.01-218.9 218.9-218.9 120.9 0 218.9 98.01 218.9 218.9" fill-rule="evenodd" fill="#ce2034"/>
 <path id="path6" fill-opacity=".235" d="m127.72 131.97v60.474c0.008 0.002 0.274 0.062 0.5 0.125v0.344l0.5 0.156v0.344l0.5 0.156v0.344c0.008 0.002 0.271 0.092 0.5 0.156v0.344c0.008 0.002 0.271 0.092 0.5 0.156v0.344c0.008 0.002 0.271 0.092 0.5 0.156v0.344c0.008 0.002 0.271 0.092 0.5 0.156v0.344c0.008 0.002 0.271 0.092 0.5 0.156v0.344c0.008 0.002 0.271 0.092 0.5 0.156v0.344c0.008 0.002 0.271 0.092 0.5 0.156v0.344c0.007 0.002 0.271 0.092 0.5 0.156v0.344c0.007 0.002 0.271 0.092 0.5 0.156v0.344c0.007 0.002 0.271 0.092 0.5 0.156v0.344c0.007 0.002 0.271 0.092 0.5 0.156v0.344c0.007 0.002 0.268 0.06 0.5 0.125v0.375c0.007 0.002 0.268 0.06 0.5 0.125v0.375c0.007 0.002 0.268 0.06 0.5 0.125v0.375c0.007 0.002 0.268 0.06 0.5 0.125v0.375c0.007 0.002 0.268 0.06 0.5 0.125v0.375c0.007 0.002 0.268 0.06 0.5 0.125v0.375c0.007 0.002 0.268 0.06 0.5 0.125v0.375c0.007 0.002 0.268 0.06 0.5 0.125v0.375c0.007 0.002 0.256 0.065 0.469 0.125v0.375c0.007 0.002 0.274 0.062 0.5 0.125v0.375c0.007 0.002 0.274 0.062 0.5 0.125v0.375c0.007 0.002 0.274 0.062 0.5 0.125v0.344c0.007 0.002 0.271 0.092 0.5 0.156v0.344c0.007 0.002 0.271 0.092 0.5 0.156v0.344c0.007 0.002 0.271 0.092 0.5 0.156v0.344c0.007 0.002 0.271 0.092 0.5 0.156v0.344c0.007 0.002 0.271 0.092 0.5 0.156v0.344c0.007 0.002 0.271 0.092 0.5 0.156v0.344c0.007 0.002 0.271 0.092 0.5 0.156v0.344c0.007 0.002 0.271 0.092 0.5 0.156v0.344c0.007 0.002 0.271 0.092 0.5 0.156v0.344c0.007 0.002 0.271 0.092 0.5 0.156v0.344c0.007 0.002 0.271 0.092 0.5 0.156v0.344c0.007 0.002 0.271 0.092 0.5 0.156v0.344c0.007 0.002 0.271 0.092 0.5 0.156v0.344c0.007 0.002 0.264 0.09 0.5 0.156v0.344c0.007 0.002 0.268 0.06 0.5 0.125v0.375c0.007 0.002 0.268 0.06 0.5 0.125v0.375c0.007 0.002 0.268 0.06 0.5 0.125v0.375c0.007 0.002 0.268 0.06 0.5 0.125v0.375c0.007 0.002 0.268 0.06 0.5 0.125v0.375c0.007 0.002 0.268 0.06 0.5 0.125v0.375c0.007 0.002 0.268 0.06 0.5 0.125v0.375c0.006 0.002 0.256 0.065 0.469 0.125v0.375c0.007 0.002 0.274 0.062 0.5 0.125v0.375c0.007 0.002 0.274 0.062 0.5 0.125v0.375c0.007 0.002 0.274 0.062 0.5 0.125v0.344c0.007 0.002 0.271 0.092 0.5 0.156v0.344c0.007 0.002 0.271 0.092 0.5 0.156v0.344c0.007 0.002 0.271 0.092 0.5 0.156v0.344c0.007 0.002 0.271 0.092 0.5 0.156v0.344c0.007 0.002 0.271 0.092 0.5 0.156v0.344c0.007 0.002 0.271 0.092 0.5 0.156v0.344c0.007 0.002 0.271 0.092 0.5 0.156v0.344c0.007 0.002 0.271 0.092 0.5 0.156v0.344c0.007 0.002 0.271 0.092 0.5 0.156v0.344c0.007 0.002 0.271 0.092 0.5 0.156v0.344c0.007 0.002 0.271 0.092 0.5 0.156v0.344c0.006 0.002 0.271 0.092 0.5 0.156v0.344h0.031v67.094c0.015 0.007 0.255 0.114 0.5 0.219v0.281c0.015 0.007 0.255 0.114 0.5 0.219v0.281c0.014 0.006 0.247 0.092 0.469 0.188v0.313h0.031c0.014 0.006 0.247 0.092 0.469 0.188v0.313c0.015 0.006 0.261 0.116 0.5 0.219v0.281c0.015 0.006 0.261 0.116 0.5 0.219v0.281c0.015 0.006 0.261 0.116 0.5 0.219v0.281l0.5 0.219v0.281c0.015 0.006 0.261 0.116 0.5 0.219v0.281c0.015 0.006 0.261 0.116 0.5 0.219v0.281c0.015 0.006 0.261 0.116 0.5 0.219v0.281c0.015 0.006 0.261 0.116 0.5 0.219v0.281c0.015 0.006 0.255 0.114 0.5 0.219v0.281c0.015 0.006 0.255 0.114 0.5 0.219v0.25l0.5 0.219v0.281l0.5 0.219v0.281c0.015 0.006 0.257 0.115 0.5 0.219v0.281c0.015 0.006 0.257 0.115 0.5 0.219v0.281c0.015 0.006 0.257 0.115 0.5 0.219v0.281c0.015 0.006 0.257 0.115 0.5 0.219v0.281c0.014 0.006 0.257 0.115 0.5 0.219v0.281c0.014 0.006 0.257 0.115 0.5 0.219v0.281l0.5 0.219v0.281c0.014 0.006 0.257 0.115 0.5 0.219v0.281c0.014 0.006 0.257 0.115 0.5 0.219v0.281c0.014 0.006 0.254 0.114 0.5 0.219v0.281c0.014 0.006 0.254 0.114 0.5 0.219v0.281c0.013 0.006 0.246 0.092 0.469 0.188v0.313h0.031c0.013 0.006 0.246 0.092 0.469 0.188v0.313c0.014 0.006 0.261 0.116 0.5 0.219v0.281l0.5 0.219v0.281c0.014 0.006 0.261 0.116 0.5 0.219v0.281c0.014 0.006 0.261 0.116 0.5 0.219v0.281c0.014 0.006 0.261 0.116 0.5 0.219v0.281c0.014 0.006 0.261 0.116 0.5 0.219v0.281c0.014 0.006 0.261 0.116 0.5 0.219v0.281c0.014 0.006 0.261 0.116 0.5 0.219v0.281c0.014 0.006 0.254 0.113 0.5 0.219v0.281l0.5 0.219v0.25c0.014 0.006 0.257 0.115 0.5 0.219v0.281c0.014 0.006 0.257 0.115 0.5 0.219v0.281c0.014 0.006 0.257 0.115 0.5 0.219v0.281c0.014 0.006 0.257 0.115 0.5 0.219v0.281c0.014 0.006 0.257 0.115 0.5 0.219v0.281c0.014 0.006 0.257 0.115 0.5 0.219v0.281l0.5 0.219v0.281c0.013 0.006 0.257 0.115 0.5 0.219v0.281c0.013 0.006 0.257 0.115 0.5 0.219v0.281c0.013 0.006 0.257 0.115 0.5 0.219v0.281c0.013 0.006 0.257 0.115 0.5 0.219v0.281c0.013 0.006 0.254 0.113 0.5 0.219v0.281c0.013 0.006 0.254 0.113 0.5 0.219v0.281c0.012 0.005 0.246 0.092 0.469 0.188v0.313h0.031l0.469 0.188v0.313c0.013 0.006 0.261 0.116 0.5 0.219v0.281c0.013 0.006 0.261 0.116 0.5 0.219v0.281c0.013 0.006 0.261 0.116 0.5 0.219v0.281c0.013 0.006 0.261 0.116 0.5 0.219v0.281c0.013 0.006 0.261 0.116 0.5 0.219v0.281c0.013 0.006 0.261 0.116 0.5 0.219v0.281c0.013 0.005 0.261 0.116 0.5 0.219v0.281l0.5 0.219v0.281c0.013 0.006 0.254 0.113 0.5 0.219v0.281c0.013 0.006 0.254 0.113 0.5 0.219v0.281c0.013 0.006 0.254 0.113 0.5 0.219v0.25c0.013 0.005 0.257 0.115 0.5 0.219v0.281c0.013 0.005 0.257 0.115 0.5 0.219v0.281c0.013 0.005 0.257 0.115 0.5 0.219v0.281c0.013 0.005 0.257 0.115 0.5 0.219v0.281l0.5 0.219v0.281c0.013 0.005 0.257 0.115 0.5 0.219v0.281c0.013 0.005 0.257 0.115 0.5 0.219v0.281c0.012 0.005 0.257 0.115 0.5 0.219v0.281c0.012 0.005 0.257 0.115 0.5 0.219v0.281c0.012 0.005 0.257 0.115 0.5 0.219v0.281c0.012 0.005 0.254 0.113 0.5 0.219v0.281l0.5 0.219v0.281c0.011 0.005 0.246 0.092 0.469 0.188v0.313h0.031c0.011 0.005 0.246 0.092 0.469 0.188v0.313c0.012 0.005 0.261 0.116 0.5 0.219v0.281c0.012 0.005 0.261 0.116 0.5 0.219v0.281c0.012 0.005 0.261 0.116 0.5 0.219v0.281c0.012 0.005 0.261 0.116 0.5 0.219v0.281c0.012 0.005 0.261 0.116 0.5 0.219v0.281l0.5 0.219v0.281c0.012 0.005 0.261 0.116 0.5 0.219v0.281c0.012 0.005 0.261 0.116 0.5 0.219v0.281c0.012 0.005 0.254 0.113 0.5 0.219v0.281c0.012 0.005 0.254 0.113 0.5 0.219v0.281c0.012 0.005 0.254 0.113 0.5 0.219v0.25c0.012 0.005 0.257 0.115 0.5 0.219v0.281c0.012 0.005 0.257 0.115 0.5 0.219v0.281l0.5 0.219v0.281c0.012 0.005 0.257 0.115 0.5 0.219v0.281c0.012 0.005 0.257 0.115 0.5 0.219v0.281c0.012 0.005 0.257 0.115 0.5 0.219v0.281c0.012 0.005 0.257 0.115 0.5 0.219v0.281c0.012 0.005 0.257 0.115 0.5 0.219v0.281c0.011 0.005 0.257 0.115 0.5 0.219v0.281l0.5 0.219v0.281l0.5 0.219v0.281c0.012 0.005 0.254 0.113 0.5 0.219v0.281c0.011 0.005 0.246 0.092 0.469 0.188v0.313h0.031c0.011 0.005 0.246 0.092 0.469 0.188v0.313c0.011 0.005 0.261 0.116 0.5 0.219v0.281c0.011 0.005 0.261 0.116 0.5 0.219v0.281c0.011 0.005 0.261 0.116 0.5 0.219v0.281l0.5 0.219v0.281c0.011 0.005 0.261 0.116 0.5 0.219v0.281c0.011 0.005 0.261 0.116 0.5 0.219v0.281c0.011 0.005 0.261 0.116 0.5 0.219v0.281c0.011 0.005 0.261 0.116 0.5 0.219v0.281c0.011 0.005 0.254 0.113 0.5 0.219v0.281c0.011 0.005 0.254 0.113 0.5 0.219v0.281c0.011 0.005 0.254 0.113 0.5 0.219v0.25l0.5 0.219v0.281c0.011 0.005 0.257 0.115 0.5 0.219v0.281c0.011 0.005 0.257 0.115 0.5 0.219v0.281c0.011 0.005 0.257 0.115 0.5 0.219v0.281c0.011 0.005 0.257 0.115 0.5 0.219v0.281c0.011 0.005 0.257 0.115 0.5 0.219v0.281c0.011 0.005 0.257 0.115 0.5 0.219v0.281c0.011 0.005 0.257 0.114 0.5 0.219v0.281l0.5 0.219v0.281c0.011 0.005 0.257 0.114 0.5 0.219v0.281c0.01 0.004 0.257 0.114 0.5 0.219v0.281c0.011 0.005 0.254 0.113 0.5 0.219v0.281c0.01 0.004 0.246 0.092 0.469 0.188v0.313h0.031c0.01 0.004 0.246 0.092 0.469 0.188v0.313c0.01 0.004 0.261 0.116 0.5 0.219v0.281l0.5 0.219v0.281l0.5 0.219v0.281c0.01 0.004 0.261 0.116 0.5 0.219v0.281c0.01 0.004 0.261 0.116 0.5 0.219v0.281c0.01 0.004 0.261 0.116 0.5 0.219v0.281c0.01 0.004 0.261 0.116 0.5 0.219v0.281c0.01 0.004 0.261 0.116 0.5 0.219v0.281c0.01 0.004 0.261 0.116 0.5 0.219v0.281l0.5 0.219v0.281c0.01 0.004 0.254 0.113 0.5 0.219v0.25c0.01 0.004 0.257 0.114 0.5 0.219v0.281c0.01 0.004 0.257 0.114 0.5 0.219v0.281c0.01 0.004 0.257 0.114 0.5 0.219v0.281c0.01 0.004 0.257 0.114 0.5 0.219v0.281c0.01 0.004 0.257 0.114 0.5 0.219v0.281c0.01 0.004 0.257 0.114 0.5 0.219v0.281c0.01 0.004 0.257 0.114 0.5 0.219v0.281c0.01 0.004 0.257 0.114 0.5 0.219v0.281c0.01 0.004 0.257 0.114 0.5 0.219v0.281c0.01 0.004 0.257 0.114 0.5 0.219v0.281c0.01 0.004 0.257 0.114 0.5 0.219v0.281c0.01 0.004 0.254 0.113 0.5 0.219v0.281c0.009 0.004 0.246 0.092 0.469 0.188v0.313h0.031c0.009 0.004 0.246 0.092 0.469 0.188v0.313c0.009 0.004 0.26 0.116 0.5 0.219v0.281c0.009 0.004 0.26 0.116 0.5 0.219v0.281c0.009 0.004 0.26 0.116 0.5 0.219v0.281c0.009 0.004 0.26 0.116 0.5 0.219v0.281c0.009 0.004 0.26 0.116 0.5 0.219v0.281c0.009 0.004 0.26 0.116 0.5 0.219v0.281c0.009 0.004 0.26 0.116 0.5 0.219v0.281c0.009 0.004 0.26 0.116 0.5 0.219v0.281c0.009 0.004 0.26 0.116 0.5 0.219v0.281c0.009 0.004 0.254 0.113 0.5 0.219v0.281c0.009 0.004 0.254 0.113 0.5 0.219v0.25c0.009 0.004 0.256 0.114 0.5 0.219v0.281c0.009 0.004 0.256 0.114 0.5 0.219v0.281c0.009 0.004 0.256 0.114 0.5 0.219v0.281c0.009 0.004 0.256 0.114 0.5 0.219v0.281l0.5 0.219v0.281c0.009 0.004 0.256 0.114 0.5 0.219v0.281c0.009 0.004 0.256 0.114 0.5 0.219v0.281c0.009 0.004 0.256 0.114 0.5 0.219v0.281c0.009 0.004 0.256 0.114 0.5 0.219v0.281c0.009 0.004 0.256 0.114 0.5 0.219v0.281c0.009 0.004 0.256 0.114 0.5 0.219v0.281c0.009 0.004 0.253 0.113 0.5 0.219v0.281c0.008 0.004 0.246 0.092 0.469 0.188v0.313h0.031c0.008 0.004 0.246 0.092 0.469 0.188v0.313c0.008 0.004 0.26 0.116 0.5 0.219v0.281c0.008 0.004 0.26 0.116 0.5 0.219v0.281c0.008 0.004 0.26 0.116 0.5 0.219v0.281c0.008 0.003 0.26 0.116 0.5 0.219v0.281c0.008 0.003 0.26 0.116 0.5 0.219v0.281c0.008 0.003 0.26 0.116 0.5 0.219v0.281c0.008 0.003 0.26 0.116 0.5 0.219v0.281c0.008 0.003 0.26 0.116 0.5 0.219v0.281c0.008 0.003 0.26 0.116 0.5 0.219v0.281c0.008 0.003 0.253 0.113 0.5 0.219v0.281c0.008 0.003 0.253 0.113 0.5 0.219v0.25c0.008 0.003 0.256 0.114 0.5 0.219v0.281c0.008 0.003 0.256 0.114 0.5 0.219v0.281c0.008 0.003 0.256 0.114 0.5 0.219v0.281c0.008 0.003 0.256 0.114 0.5 0.219v0.281c0.008 0.003 0.256 0.114 0.5 0.219v0.281c0.008 0.003 0.256 0.114 0.5 0.219v0.281c0.008 0.003 0.256 0.114 0.5 0.219v0.281c0.008 0.003 0.256 0.114 0.5 0.219v0.281c0.008 0.003 0.256 0.114 0.5 0.219v0.281c0.008 0.003 0.256 0.114 0.5 0.219v0.281c0.008 0.003 0.256 0.114 0.5 0.219v0.281c0.008 0.003 0.253 0.113 0.5 0.219v0.281c0.008 0.003 0.253 0.113 0.5 0.219v0.281c0.007 0.003 0.246 0.092 0.469 0.188v0.313c0.007 0.003 0.26 0.116 0.5 0.219v0.281c0.007 0.003 0.26 0.116 0.5 0.219v0.281c0.007 0.003 0.26 0.116 0.5 0.219v0.281c0.007 0.003 0.26 0.116 0.5 0.219v0.281c0.007 0.003 0.26 0.116 0.5 0.219v0.281c0.007 0.003 0.26 0.116 0.5 0.219v0.281c0.007 0.003 0.26 0.116 0.5 0.219v0.281c0.007 0.003 0.26 0.116 0.5 0.219v0.281c0.007 0.003 0.26 0.116 0.5 0.219v0.281c0.007 0.003 0.253 0.113 0.5 0.219v0.281c0.007 0.003 0.253 0.113 0.5 0.219v0.25c0.007 0.003 0.256 0.114 0.5 0.219v0.281c0.007 0.003 0.256 0.114 0.5 0.219v0.281c0.007 0.003 0.256 0.114 0.5 0.219v0.281c0.007 0.003 0.256 0.114 0.5 0.219v0.281c0.007 0.003 0.256 0.114 0.5 0.219v0.281c0.007 0.003 0.256 0.114 0.5 0.219v0.281c0.007 0.003 0.256 0.114 0.5 0.219v0.281c0.007 0.003 0.256 0.114 0.5 0.219v0.281c0.007 0.003 0.256 0.114 0.5 0.219v0.281c0.007 0.003 0.256 0.114 0.5 0.219v0.281c0.007 0.003 0.256 0.114 0.5 0.219v0.281c0.007 0.003 0.253 0.113 0.5 0.219v0.281c0.007 0.003 0.253 0.113 0.5 0.219v0.281c0.006 0.003 0.246 0.092 0.469 0.188v0.313c0.006 0.003 0.26 0.116 0.5 0.219v0.281c0.006 0.003 0.26 0.116 0.5 0.219v0.281c0.006 0.003 0.26 0.116 0.5 0.219v0.281c0.006 0.003 0.26 0.116 0.5 0.219v0.281c0.006 0.003 0.26 0.116 0.5 0.219v0.281c0.006 0.002 0.26 0.116 0.5 0.219v0.281c0.006 0.002 0.26 0.116 0.5 0.219v0.281c0.006 0.002 0.26 0.116 0.5 0.219v0.281c0.006 0.002 0.26 0.116 0.5 0.219v0.281c0.006 0.003 0.253 0.113 0.5 0.219v0.281c0.006 0.003 0.253 0.113 0.5 0.219v0.25c0.006 0.003 0.256 0.114 0.5 0.219v0.281c0.006 0.003 0.256 0.114 0.5 0.219v0.281c0.006 0.003 0.256 0.114 0.5 0.219v0.281c0.006 0.003 0.256 0.114 0.5 0.219v0.281c0.006 0.003 0.256 0.114 0.5 0.219v0.281c0.006 0.003 0.256 0.114 0.5 0.219v0.281l0.5 0.219v0.281l0.5 0.219v0.281c0.006 0.003 0.256 0.114 0.5 0.219v0.281c0.006 0.003 0.256 0.114 0.5 0.219v0.281c0.006 0.003 0.256 0.114 0.5 0.219v0.281c0.006 0.003 0.253 0.113 0.5 0.219v0.281c0.006 0.003 0.253 0.113 0.5 0.219v0.281c0.005 0.002 0.246 0.092 0.469 0.188v0.313c0.006 0.002 0.26 0.116 0.5 0.219v0.281c0.005 0.002 0.26 0.116 0.5 0.219v0.281c0.005 0.002 0.26 0.116 0.5 0.219v0.281c0.005 0.002 0.26 0.116 0.5 0.219v0.281c0.005 0.002 0.26 0.116 0.5 0.219v0.281c0.005 0.002 0.26 0.116 0.5 0.219v0.281c0.005 0.002 0.26 0.116 0.5 0.219v0.281c0.005 0.002 0.26 0.116 0.5 0.219v0.281c0.005 0.002 0.26 0.116 0.5 0.219v0.281c0.005 0.002 0.253 0.113 0.5 0.219v0.281c0.005 0.002 0.253 0.113 0.5 0.219v0.25c0.005 0.002 0.256 0.114 0.5 0.219v0.281c0.005 0.002 0.256 0.114 0.5 0.219v0.281c0.005 0.002 0.256 0.114 0.5 0.219v0.281c0.005 0.002 0.256 0.114 0.5 0.219v0.281c0.005 0.002 0.256 0.114 0.5 0.219v0.281c0.005 0.002 0.256 0.114 0.5 0.219v0.281c0.005 0.002 0.256 0.114 0.5 0.219v0.281c0.005 0.002 0.256 0.114 0.5 0.219v0.281c0.005 0.002 0.256 0.114 0.5 0.219v0.281c0.005 0.002 0.256 0.114 0.5 0.219v0.281c0.005 0.002 0.256 0.114 0.5 0.219v0.281c0.005 0.002 0.253 0.113 0.5 0.219v0.281c0.005 0.002 0.253 0.113 0.5 0.219v0.281c0.004 0.002 0.245 0.092 0.469 0.188v0.313c0.005 0.002 0.26 0.116 0.5 0.219v0.281c0.005 0.002 0.26 0.116 0.5 0.219v0.281c0.005 0.002 0.26 0.116 0.5 0.219v0.281c0.004 0.002 0.26 0.116 0.5 0.219v0.281c0.004 0.002 0.26 0.116 0.5 0.219v0.281c0.004 0.002 0.26 0.116 0.5 0.219v0.281c0.004 0.002 0.26 0.116 0.5 0.219v0.281c0.004 0.002 0.26 0.116 0.5 0.219v0.281c0.004 0.002 0.26 0.116 0.5 0.219v0.281c0.004 0.002 0.253 0.113 0.5 0.219v0.281c0.004 0.002 0.253 0.113 0.5 0.219v0.25c0.004 0.002 0.256 0.114 0.5 0.219v0.281c0.004 0.002 0.256 0.114 0.5 0.219v0.281c0.004 0.002 0.256 0.114 0.5 0.219v0.281c0.004 0.002 0.256 0.114 0.5 0.219v0.281c0.004 0.002 0.256 0.114 0.5 0.219v0.281c0.004 0.002 0.256 0.114 0.5 0.219v0.281c0.004 0.002 0.256 0.114 0.5 0.219v0.281c0.004 0.002 0.256 0.114 0.5 0.219v0.281c0.004 0.002 0.256 0.114 0.5 0.219v0.281c0.004 0.002 0.256 0.114 0.5 0.219v0.281c0.004 0.002 0.256 0.114 0.5 0.219v0.281c0.004 0.002 0.253 0.113 0.5 0.219v0.281c0.004 0.002 0.253 0.113 0.5 0.219v0.281c0.004 0.002 0.245 0.092 0.469 0.188v0.313c0.004 0.002 0.26 0.116 0.5 0.219v0.281c0.004 0.002 0.26 0.116 0.5 0.219v0.281c0.004 0.002 0.26 0.116 0.5 0.219v0.281c0.004 0.002 0.26 0.116 0.5 0.219v0.281c0.003 0.002 0.26 0.116 0.5 0.219v0.281c0.003 0.002 0.26 0.116 0.5 0.219v0.281c0.003 0.002 0.26 0.116 0.5 0.219v0.281c0.003 0.002 0.26 0.116 0.5 0.219v0.281c0.003 0.001 0.26 0.116 0.5 0.219v0.281c0.003 0.001 0.253 0.113 0.5 0.219v0.281c0.003 0.001 0.253 0.113 0.5 0.219v0.25c0.003 0.001 0.256 0.114 0.5 0.219v0.281c0.003 0.001 0.256 0.114 0.5 0.219v0.281c0.003 0.001 0.256 0.114 0.5 0.219v0.281c0.003 0.001 0.256 0.114 0.5 0.219v0.281l0.5 0.219v0.281l0.5 0.219v0.281l0.5 0.219v0.281l0.5 0.219v0.281l0.5 0.219v0.281l0.5 0.219v0.281l0.5 0.219v0.281l0.5 0.219v0.281l0.5 0.219v0.281l0.469 0.188v0.313l0.5 0.219v0.281c0.002 0.001 0.259 0.116 0.5 0.219v0.281c0.002 0.001 0.259 0.116 0.5 0.219v0.281c0.002 0.001 0.259 0.116 0.5 0.219v0.281c0.002 0.001 0.259 0.116 0.5 0.219v0.281c0.002 0.001 0.259 0.116 0.5 0.219v0.281c0.002 0.001 0.259 0.116 0.5 0.219v0.281c0.002 0.001 0.259 0.116 0.5 0.219v0.281c63.62-22.921 113.53-74.46 134.25-139.09-0.108-0.099-0.208-0.208-0.313-0.313-0.054-0.051-0.102-0.106-0.156-0.156-0.227-0.224-0.458-0.44-0.688-0.656-0.087-0.091-0.162-0.192-0.25-0.281-0.07-0.067-0.148-0.121-0.219-0.188-0.063-0.066-0.124-0.123-0.188-0.188-0.022-0.02-0.041-0.042-0.063-0.063-0.07-0.067-0.149-0.121-0.219-0.188-0.01-0.01-0.022-0.021-0.031-0.031-0.016-0.015-0.015-0.048-0.031-0.063-0.06-0.064-0.127-0.124-0.188-0.188-0.071-0.068-0.147-0.12-0.219-0.188-0.077-0.08-0.141-0.171-0.219-0.25-0.08-0.076-0.17-0.144-0.25-0.219-0.078-0.081-0.141-0.17-0.219-0.25-0.08-0.077-0.169-0.143-0.25-0.219-0.077-0.08-0.141-0.171-0.219-0.25-0.081-0.077-0.169-0.142-0.25-0.219-0.052-0.054-0.104-0.103-0.156-0.156-0.022-0.02-0.041-0.042-0.063-0.063-0.081-0.077-0.169-0.143-0.25-0.219-0.076-0.079-0.142-0.172-0.219-0.25-0.081-0.078-0.168-0.142-0.25-0.219-0.015-0.016-0.016-0.047-0.031-0.063-0.06-0.056-0.127-0.101-0.188-0.156-0.086-0.082-0.163-0.169-0.25-0.25-0.072-0.075-0.146-0.144-0.219-0.219-0.087-0.083-0.163-0.168-0.25-0.25-0.067-0.07-0.12-0.15-0.188-0.219-0.091-0.087-0.19-0.165-0.281-0.25-0.005-0.005 0.005-0.026 0-0.031-0.059-0.055-0.128-0.101-0.188-0.156-0.091-0.087-0.189-0.164-0.281-0.25-0.066-0.069-0.121-0.151-0.188-0.219-0.091-0.087-0.19-0.164-0.281-0.25-0.03-0.032-0.063-0.062-0.094-0.094-0.032-0.03-0.061-0.064-0.094-0.094-0.096-0.091-0.185-0.191-0.281-0.281-0.061-0.064-0.126-0.124-0.188-0.188-0.054-0.052-0.102-0.105-0.156-0.156-0.041-0.042-0.084-0.084-0.125-0.125-0.061-0.063-0.126-0.125-0.188-0.188-0.06-0.057-0.128-0.1-0.188-0.156-0.061-0.062-0.126-0.126-0.188-0.188-0.033-0.03-0.061-0.064-0.094-0.094-0.257-0.254-0.52-0.506-0.781-0.75-0.016-0.016-0.015-0.046-0.031-0.063-0.033-0.031-0.061-0.063-0.094-0.094-0.112-0.107-0.231-0.208-0.344-0.313-0.047-0.049-0.078-0.108-0.125-0.156-0.113-0.108-0.23-0.207-0.344-0.313-0.046-0.048-0.078-0.108-0.125-0.156-0.114-0.109-0.229-0.206-0.344-0.313-0.01-0.011-0.021-0.02-0.031-0.031-0.033-0.03-0.061-0.064-0.094-0.094-0.113-0.108-0.23-0.206-0.344-0.313-0.046-0.048-0.079-0.109-0.125-0.156-0.113-0.108-0.23-0.207-0.344-0.313-0.01-0.011-0.021-0.02-0.031-0.031-0.032-0.03-0.061-0.064-0.094-0.094-0.119-0.114-0.224-0.232-0.344-0.344-0.156-0.162-0.311-0.311-0.469-0.469-0.031-0.032-0.063-0.062-0.094-0.094-0.121-0.116-0.253-0.23-0.375-0.344-0.036-0.037-0.058-0.088-0.094-0.125-0.124-0.119-0.25-0.228-0.375-0.344-0.036-0.037-0.058-0.088-0.094-0.125-0.123-0.118-0.251-0.228-0.375-0.344-0.031-0.032-0.063-0.062-0.094-0.094-0.085-0.081-0.164-0.17-0.25-0.25l-0.125-0.125c-0.031-0.032-0.063-0.062-0.094-0.094-0.086-0.082-0.163-0.169-0.25-0.25-0.041-0.042-0.084-0.084-0.125-0.125-0.15-0.156-0.317-0.286-0.469-0.438-0.154-0.16-0.313-0.313-0.469-0.469-0.166-0.16-0.332-0.314-0.5-0.469-0.009-0.01-0.022-0.021-0.031-0.031-0.005-0.005 0.005-0.027 0-0.031-0.144-0.138-0.292-0.272-0.438-0.406-0.016-0.016-0.016-0.046-0.031-0.063-0.143-0.137-0.293-0.273-0.438-0.406-0.01-0.011-0.021-0.021-0.031-0.031-0.161-0.154-0.306-0.32-0.469-0.469-0.146-0.14-0.29-0.27-0.438-0.406-0.015-0.016-0.016-0.047-0.031-0.063-0.145-0.139-0.291-0.271-0.438-0.406-0.01-0.011-0.021-0.02-0.031-0.031-0.152-0.145-0.284-0.296-0.438-0.438-0.01-0.011-0.021-0.02-0.031-0.031-0.151-0.144-0.285-0.297-0.438-0.438-0.15-0.156-0.317-0.286-0.469-0.438-0.005-0.005 0.005-0.026 0-0.031-0.157-0.15-0.31-0.292-0.469-0.438-0.005-0.005 0.005-0.026 0-0.031-0.156-0.149-0.311-0.293-0.469-0.438-0.155-0.161-0.312-0.313-0.469-0.469-0.149-0.155-0.318-0.287-0.469-0.438-0.153-0.159-0.314-0.315-0.469-0.469-0.149-0.155-0.286-0.318-0.438-0.469-0.006-0.005-0.026 0.005-0.031 0-0.092-0.096-0.189-0.187-0.281-0.281-0.054-0.05-0.102-0.106-0.156-0.156-0.011-0.01-0.021-0.021-0.031-0.031-0.145-0.151-0.291-0.291-0.438-0.438-0.011-0.01-0.021-0.021-0.031-0.031-0.308-0.321-0.652-0.605-0.969-0.906-0.139-0.145-0.265-0.297-0.406-0.438-0.016-0.016-0.046-0.016-0.063-0.031-0.083-0.087-0.166-0.165-0.25-0.25-0.054-0.05-0.102-0.106-0.156-0.156-0.022-0.021-0.041-0.042-0.063-0.063-0.132-0.137-0.242-0.273-0.375-0.406-0.027-0.026-0.067-0.037-0.094-0.063-0.073-0.076-0.145-0.144-0.219-0.219-0.054-0.05-0.102-0.107-0.156-0.156-0.021-0.02-0.042-0.043-0.063-0.063-0.006-0.005-0.026 0.005-0.031 0-0.01-0.011-0.021-0.021-0.031-0.031-0.032-0.029-0.061-0.065-0.094-0.094-0.087-0.089-0.162-0.193-0.25-0.281-0.027-0.026-0.067-0.037-0.094-0.063-0.129-0.134-0.245-0.276-0.375-0.406-0.027-0.026-0.066-0.037-0.094-0.063-0.123-0.128-0.251-0.251-0.375-0.375-0.032-0.031-0.061-0.063-0.094-0.094-0.124-0.129-0.249-0.249-0.375-0.375-0.033-0.031-0.061-0.063-0.094-0.094-0.118-0.123-0.255-0.224-0.375-0.344-0.032-0.031-0.061-0.063-0.094-0.094-0.122-0.127-0.251-0.251-0.375-0.375-0.033-0.031-0.061-0.063-0.094-0.094-0.119-0.124-0.224-0.255-0.344-0.375-0.038-0.037-0.087-0.058-0.125-0.094-0.113-0.117-0.23-0.229-0.344-0.344-0.043-0.041-0.082-0.084-0.125-0.125-0.114-0.119-0.228-0.228-0.344-0.344-0.049-0.047-0.107-0.079-0.156-0.125-0.143-0.141-0.293-0.27-0.438-0.406-0.177-0.176-0.351-0.363-0.531-0.531-0.254-0.25-0.49-0.514-0.75-0.75-0.011-0.01-0.02-0.021-0.031-0.031-0.23-0.23-0.453-0.47-0.688-0.688-0.121-0.118-0.253-0.229-0.375-0.344-0.253-0.25-0.491-0.515-0.75-0.75-0.06-0.057-0.128-0.1-0.188-0.156-0.096-0.1-0.185-0.215-0.281-0.313-0.038-0.036-0.087-0.058-0.125-0.094-0.274-0.273-0.531-0.558-0.813-0.813-0.059-0.057-0.128-0.1-0.188-0.156-0.151-0.15-0.284-0.325-0.438-0.469-0.091-0.095-0.189-0.188-0.281-0.281-0.038-0.036-0.087-0.058-0.125-0.094-0.188-0.187-0.371-0.384-0.563-0.563-0.179-0.177-0.349-0.362-0.531-0.531-0.121-0.119-0.252-0.229-0.375-0.344-0.253-0.25-0.491-0.516-0.75-0.75-0.06-0.057-0.127-0.1-0.188-0.156-0.086-0.091-0.163-0.193-0.25-0.281l-0.031-0.031c-0.25-0.252-0.494-0.514-0.75-0.75-0.051-0.052-0.105-0.105-0.156-0.156-0.043-0.041-0.082-0.084-0.125-0.125-0.214-0.214-0.437-0.424-0.656-0.625-0.112-0.109-0.231-0.207-0.344-0.313-0.157-0.155-0.309-0.32-0.469-0.469-0.254-0.252-0.489-0.515-0.75-0.75-0.06-0.057-0.127-0.1-0.188-0.156-0.158-0.156-0.308-0.319-0.469-0.469-0.147-0.145-0.288-0.298-0.438-0.438-0.095-0.101-0.185-0.214-0.281-0.313-0.043-0.041-0.082-0.084-0.125-0.125-0.213-0.213-0.438-0.425-0.656-0.625-0.112-0.109-0.231-0.207-0.344-0.313-0.252-0.25-0.491-0.518-0.75-0.75-0.032-0.031-0.061-0.063-0.094-0.094-0.132-0.133-0.272-0.278-0.406-0.406-0.235-0.239-0.477-0.466-0.719-0.688-0.127-0.124-0.246-0.255-0.375-0.375-0.242-0.24-0.47-0.496-0.719-0.719-0.07-0.067-0.148-0.122-0.219-0.188-0.147-0.146-0.288-0.298-0.438-0.438-0.178-0.177-0.349-0.364-0.531-0.531l-0.031-0.031c-0.066-0.06-0.121-0.128-0.188-0.188-0.254-0.26-0.519-0.511-0.781-0.75-0.117-0.114-0.225-0.234-0.344-0.344-0.157-0.156-0.309-0.321-0.469-0.469-0.172-0.172-0.355-0.338-0.531-0.5-0.142-0.14-0.262-0.305-0.406-0.438-0.202-0.201-0.417-0.375-0.625-0.563-0.015-0.017-0.016-0.045-0.031-0.063-0.022-0.02-0.04-0.043-0.063-0.063-0.043-0.042-0.081-0.084-0.125-0.125-0.07-0.076-0.148-0.145-0.219-0.219-0.041-0.04-0.084-0.086-0.125-0.125-0.253-0.26-0.519-0.513-0.781-0.75-0.128-0.125-0.245-0.255-0.375-0.375-0.169-0.168-0.327-0.343-0.5-0.5-0.06-0.064-0.127-0.125-0.188-0.188-0.021-0.02-0.041-0.042-0.063-0.063-0.016-0.016-0.047-0.015-0.063-0.031-0.066-0.067-0.121-0.153-0.188-0.219-0.01-0.011-0.021-0.021-0.031-0.031-0.04-0.042-0.085-0.083-0.125-0.125-0.01-0.01-0.021-0.022-0.031-0.031-0.005-0.005-0.026 0.005-0.031 0-0.032-0.031-0.061-0.064-0.094-0.094-0.035-0.038-0.058-0.087-0.094-0.125-0.021-0.021-0.042-0.041-0.063-0.063-0.03-0.032-0.063-0.062-0.094-0.094-0.02-0.022-0.043-0.04-0.063-0.063-0.022-0.021-0.041-0.042-0.063-0.063-0.239-0.253-0.478-0.504-0.719-0.75-0.019-0.022-0.043-0.041-0.063-0.063-0.005-0.005 0.005-0.026 0-0.031-0.114-0.118-0.23-0.227-0.344-0.344-0.006-0.006 0.006-0.025 0-0.031-0.021-0.021-0.042-0.041-0.063-0.063-0.082-0.085-0.168-0.165-0.25-0.25-0.065-0.071-0.122-0.148-0.188-0.219-0.139-0.145-0.266-0.295-0.406-0.438-0.29-0.308-0.582-0.607-0.875-0.906-0.14-0.146-0.265-0.293-0.406-0.438-0.149-0.155-0.288-0.316-0.438-0.469-0.052-0.054-0.104-0.103-0.156-0.156-0.229-0.241-0.456-0.483-0.688-0.719-0.149-0.155-0.288-0.316-0.438-0.469-0.229-0.238-0.457-0.455-0.688-0.688-0.056-0.058-0.1-0.129-0.156-0.188-0.229-0.243-0.457-0.481-0.688-0.719-0.03-0.034-0.064-0.06-0.094-0.094-0.025-0.027-0.037-0.067-0.063-0.094-0.057-0.059-0.099-0.129-0.156-0.188-0.083-0.084-0.166-0.166-0.25-0.25-0.148-0.154-0.288-0.317-0.438-0.469-0.145-0.151-0.292-0.289-0.438-0.438-0.139-0.145-0.267-0.295-0.406-0.438-0.15-0.156-0.287-0.315-0.438-0.469-0.14-0.145-0.266-0.294-0.406-0.438-0.144-0.15-0.292-0.29-0.438-0.438-0.284-0.302-0.556-0.613-0.844-0.906-0.144-0.15-0.292-0.289-0.438-0.438-0.285-0.302-0.556-0.613-0.844-0.906-0.138-0.144-0.267-0.295-0.406-0.438-0.149-0.155-0.288-0.316-0.438-0.469-0.057-0.059-0.131-0.098-0.188-0.156-0.06-0.064-0.128-0.124-0.188-0.188-0.025-0.026-0.037-0.067-0.063-0.094-0.283-0.301-0.557-0.614-0.844-0.906-0.062-0.065-0.125-0.123-0.188-0.188-0.095-0.102-0.186-0.212-0.281-0.313-0.129-0.133-0.246-0.274-0.375-0.406-0.042-0.043-0.083-0.082-0.125-0.125-0.239-0.252-0.477-0.503-0.719-0.75-0.149-0.155-0.287-0.316-0.438-0.469-0.14-0.146-0.265-0.293-0.406-0.438-0.015-0.016-0.047-0.015-0.063-0.031-0.125-0.132-0.249-0.275-0.375-0.406-0.283-0.301-0.557-0.614-0.844-0.906-0.181-0.189-0.349-0.377-0.531-0.563-0.108-0.111-0.204-0.233-0.313-0.344-0.145-0.151-0.292-0.289-0.438-0.438-0.026-0.027-0.068-0.036-0.094-0.063-0.036-0.038-0.058-0.087-0.094-0.125-0.021-0.021-0.042-0.041-0.063-0.063-0.057-0.058-0.099-0.129-0.156-0.188-0.026-0.027-0.068-0.036-0.094-0.063-0.055-0.059-0.101-0.129-0.156-0.188-0.067-0.069-0.12-0.15-0.188-0.219-0.14-0.146-0.266-0.294-0.406-0.438-0.144-0.15-0.292-0.289-0.438-0.438-0.149-0.155-0.288-0.316-0.438-0.469-0.139-0.145-0.267-0.295-0.406-0.438-0.015-0.016-0.047-0.015-0.063-0.031-0.02-0.021-0.043-0.041-0.063-0.063-0.106-0.112-0.206-0.233-0.313-0.344-0.284-0.301-0.557-0.613-0.844-0.906-0.097-0.101-0.183-0.212-0.281-0.313-0.04-0.043-0.085-0.082-0.125-0.125-0.149-0.155-0.288-0.316-0.438-0.469-0.144-0.15-0.292-0.289-0.438-0.438-0.041-0.043-0.084-0.082-0.125-0.125-0.101-0.107-0.211-0.207-0.313-0.313-0.071-0.076-0.117-0.174-0.188-0.25-0.072-0.074-0.147-0.145-0.219-0.219-0.042-0.043-0.083-0.082-0.125-0.125-0.101-0.107-0.211-0.207-0.313-0.313-0.136-0.143-0.27-0.296-0.406-0.438-0.284-0.301-0.557-0.613-0.844-0.906-0.148-0.154-0.289-0.316-0.438-0.469-0.14-0.146-0.265-0.293-0.406-0.438-0.051-0.054-0.105-0.103-0.156-0.156-0.09-0.095-0.191-0.187-0.281-0.281-0.284-0.301-0.557-0.613-0.844-0.906-0.14-0.146-0.266-0.294-0.406-0.438-0.149-0.155-0.288-0.316-0.438-0.469-0.145-0.151-0.292-0.289-0.438-0.438-0.139-0.145-0.266-0.294-0.406-0.438-0.021-0.021-0.042-0.041-0.063-0.063-0.125-0.134-0.249-0.273-0.375-0.406-0.14-0.146-0.266-0.294-0.406-0.438-0.143-0.149-0.293-0.29-0.438-0.438-0.149-0.155-0.288-0.316-0.438-0.469-0.139-0.145-0.267-0.294-0.406-0.438-0.145-0.151-0.292-0.289-0.438-0.438-0.285-0.301-0.556-0.612-0.844-0.906-0.205-0.214-0.418-0.415-0.625-0.625-0.083-0.085-0.136-0.197-0.219-0.281-0.145-0.15-0.292-0.289-0.438-0.438-0.031-0.032-0.063-0.062-0.094-0.094-0.109-0.111-0.203-0.234-0.313-0.344-0.148-0.155-0.288-0.316-0.438-0.469-0.01-0.011-0.021-0.02-0.031-0.031-0.183-0.193-0.379-0.372-0.563-0.563-0.066-0.07-0.122-0.149-0.188-0.219-0.02-0.021-0.042-0.041-0.063-0.063-0.285-0.301-0.556-0.612-0.844-0.906-0.148-0.154-0.288-0.316-0.438-0.469-0.14-0.146-0.265-0.293-0.406-0.438-0.144-0.15-0.293-0.289-0.438-0.438-0.285-0.301-0.556-0.612-0.844-0.906-0.144-0.15-0.293-0.289-0.438-0.438-0.285-0.301-0.556-0.612-0.844-0.906-0.139-0.145-0.266-0.294-0.406-0.438-0.051-0.053-0.105-0.103-0.156-0.156-0.096-0.103-0.185-0.211-0.281-0.313-0.14-0.146-0.266-0.293-0.406-0.438-0.144-0.149-0.293-0.29-0.438-0.438-0.144-0.15-0.293-0.289-0.438-0.438-0.005-0.006 0.005-0.026 0-0.031-0.139-0.145-0.266-0.294-0.406-0.438-0.145-0.151-0.292-0.289-0.438-0.438-0.284-0.3-0.557-0.612-0.844-0.906-0.139-0.144-0.267-0.295-0.406-0.438-0.041-0.043-0.084-0.083-0.125-0.125-0.25-0.263-0.498-0.523-0.75-0.781-0.14-0.146-0.266-0.294-0.406-0.438-0.149-0.155-0.288-0.316-0.438-0.469-0.021-0.022-0.042-0.041-0.063-0.063-8.923-9.403-19.07-15.611-30.19-20.625-10.76-4.853-22.453-8.639-34.938-13.344-0.033 0.049-2.125 3.156-2.125 3.156 3.219 3.47 5.571 6.894 7.406 10.5 0.008 0.01-0.005 0.022 0 0.031 3.185 6.484 5.283 11.465 6.406 17.844 0.027 0.155 0.036 0.258 0.063 0.406l-0.063-0.063c-0.141-0.14-0.295-0.268-0.438-0.406-0.006-0.006 0.006-0.025 0-0.031-0.021-0.02-0.041-0.042-0.063-0.063-0.141-0.14-0.295-0.268-0.438-0.406-0.006-0.006 0.006-0.025 0-0.031-0.021-0.02-0.041-0.042-0.063-0.063-0.143-0.141-0.293-0.267-0.438-0.406-0.01-0.01-0.022-0.021-0.031-0.031-0.016-0.015-0.015-0.047-0.031-0.063-0.143-0.141-0.293-0.267-0.438-0.406l-0.031-0.031c-0.016-0.015-0.015-0.047-0.031-0.063-0.148-0.146-0.288-0.293-0.438-0.438l-0.063-0.063c-0.326-0.331-0.633-0.677-0.969-1-0.167-0.165-0.33-0.337-0.5-0.5-0.167-0.165-0.33-0.337-0.5-0.5-0.167-0.165-0.33-0.337-0.5-0.5-0.167-0.165-0.33-0.337-0.5-0.5-0.167-0.165-0.33-0.337-0.5-0.5-0.167-0.165-0.33-0.337-0.5-0.5-0.167-0.165-0.33-0.337-0.5-0.5-0.167-0.165-0.33-0.337-0.5-0.5-0.162-0.16-0.336-0.311-0.5-0.469-0.14-0.138-0.296-0.27-0.438-0.406-0.01-0.01-0.022-0.021-0.031-0.031-0.016-0.015-0.015-0.048-0.031-0.063-0.14-0.138-0.296-0.27-0.438-0.406-0.01-0.01-0.022-0.021-0.031-0.031-0.016-0.015-0.016-0.047-0.031-0.063-0.141-0.14-0.295-0.268-0.438-0.406-0.006-0.006 0.006-0.025 0-0.031-0.021-0.02-0.041-0.042-0.063-0.063-0.141-0.14-0.295-0.268-0.438-0.406-0.006-0.006 0.006-0.025 0-0.031-0.021-0.02-0.041-0.042-0.063-0.063-0.141-0.14-0.295-0.268-0.438-0.406-0.006-0.006 0.006-0.025 0-0.031-0.021-0.02-0.041-0.042-0.063-0.063-0.141-0.14-0.295-0.268-0.438-0.406-0.006-0.006 0.006-0.025 0-0.031-0.021-0.02-0.041-0.042-0.063-0.063-0.141-0.14-0.295-0.268-0.438-0.406-0.006-0.006 0.006-0.025 0-0.031-0.021-0.02-0.041-0.042-0.063-0.063-0.141-0.14-0.295-0.268-0.438-0.406-0.006-0.006 0.006-0.025 0-0.031-0.021-0.02-0.041-0.042-0.063-0.063-0.141-0.14-0.295-0.268-0.438-0.406-0.006-0.006 0.006-0.025 0-0.031-0.021-0.02-0.041-0.042-0.063-0.063-0.141-0.14-0.295-0.268-0.438-0.406-0.006-0.006 0.006-0.025 0-0.031-0.021-0.02-0.041-0.042-0.063-0.063-0.141-0.14-0.295-0.268-0.438-0.406-0.006-0.006 0.006-0.025 0-0.031-0.021-0.02-0.041-0.042-0.063-0.063-0.143-0.141-0.293-0.267-0.438-0.406-0.01-0.01-0.022-0.021-0.031-0.031-0.016-0.015-0.015-0.047-0.031-0.063-0.143-0.141-0.293-0.267-0.438-0.406l-0.031-0.031c-0.016-0.015-0.015-0.047-0.031-0.063-0.148-0.146-0.288-0.293-0.438-0.438l-0.063-0.063c-0.326-0.331-0.633-0.677-0.969-1-0.167-0.165-0.33-0.337-0.5-0.5-0.167-0.165-0.33-0.337-0.5-0.5-0.167-0.165-0.33-0.337-0.5-0.5-0.167-0.165-0.33-0.337-0.5-0.5-0.167-0.165-0.33-0.337-0.5-0.5-0.167-0.165-0.33-0.337-0.5-0.5-0.167-0.165-0.33-0.337-0.5-0.5-0.167-0.165-0.33-0.337-0.5-0.5-0.162-0.16-0.336-0.311-0.5-0.469-0.14-0.138-0.296-0.27-0.438-0.406-0.01-0.01-0.022-0.021-0.031-0.031-0.016-0.015-0.015-0.048-0.031-0.063-0.14-0.138-0.296-0.27-0.438-0.406-0.01-0.01-0.022-0.021-0.031-0.031-0.016-0.015-0.016-0.047-0.031-0.063-0.141-0.14-0.295-0.268-0.438-0.406-0.006-0.006 0.006-0.025 0-0.031-0.021-0.02-0.041-0.042-0.063-0.063-0.141-0.14-0.295-0.268-0.438-0.406-0.006-0.006 0.006-0.025 0-0.031-0.021-0.02-0.041-0.042-0.063-0.063-0.141-0.14-0.295-0.268-0.438-0.406-0.006-0.006 0.006-0.025 0-0.031-0.021-0.02-0.041-0.042-0.063-0.063-0.141-0.14-0.295-0.268-0.438-0.406-0.006-0.006 0.006-0.025 0-0.031-0.021-0.02-0.041-0.042-0.063-0.063-0.141-0.14-0.295-0.268-0.438-0.406-0.006-0.006 0.006-0.025 0-0.031-0.021-0.02-0.041-0.042-0.063-0.063-0.141-0.14-0.295-0.268-0.438-0.406-0.006-0.006 0.006-0.025 0-0.031-0.021-0.02-0.041-0.042-0.063-0.063-0.141-0.14-0.295-0.268-0.438-0.406-0.006-0.006 0.006-0.025 0-0.031-0.021-0.02-0.041-0.042-0.063-0.063-0.141-0.14-0.295-0.268-0.438-0.406-0.006-0.006 0.006-0.025 0-0.031-0.021-0.02-0.041-0.042-0.063-0.063-0.141-0.14-0.295-0.268-0.438-0.406-0.006-0.006 0.006-0.025 0-0.031-0.021-0.02-0.041-0.042-0.063-0.063-0.143-0.141-0.293-0.267-0.438-0.406-0.01-0.01-0.022-0.021-0.031-0.031-0.016-0.015-0.015-0.047-0.031-0.063-0.143-0.141-0.293-0.267-0.438-0.406l-0.031-0.031c-0.016-0.015-0.015-0.047-0.031-0.063-0.148-0.146-0.288-0.293-0.438-0.438l-0.063-0.063c-0.326-0.331-0.633-0.677-0.969-1-0.167-0.165-0.33-0.337-0.5-0.5-0.167-0.165-0.33-0.337-0.5-0.5-0.167-0.165-0.33-0.337-0.5-0.5-0.167-0.165-0.33-0.337-0.5-0.5-4.751-4.699-10.474-8.502-17.219-11.09l-0.063-0.031-0.063-0.031-126.22-37.969-2.531-0.781"/>
 <g id="g8" fill-rule="evenodd">
  <path id="path10" fill-opacity=".067" d="m256 1c-140.83 0-255 114.17-255 255s114.17 255 255 255 255-114.17 255-255-114.17-255-255-255m8.827 44.931c120.9 0 218.9 98 218.9 218.9s-98 218.9-218.9 218.9-218.93-98-218.93-218.9 98.03-218.9 218.93-218.9"/>
  <g id="g12" fill-opacity=".129">
   <path id="path14" d="m256 4.433c-138.94 0-251.57 112.63-251.57 251.57s112.63 251.57 251.57 251.57 251.57-112.63 251.57-251.57-112.63-251.57-251.57-251.57m5.885 38.556c120.9 0 218.9 98 218.9 218.9s-98 218.9-218.9 218.9-218.93-98-218.93-218.9 98.03-218.9 218.93-218.9"/>
   <path id="path16" d="m256 8.356c-136.77 0-247.64 110.87-247.64 247.64s110.87 247.64 247.64 247.64 247.64-110.87 247.64-247.64-110.87-247.64-247.64-247.64m2.942 31.691c120.9 0 218.9 98 218.9 218.9s-98 218.9-218.9 218.9-218.93-98-218.93-218.9 98.03-218.9 218.93-218.9"/>
  </g>
  <path id="path18" d="m253.04 7.859c-135.42 0-245.19 109.78-245.19 245.19 0 135.42 109.78 245.19 245.19 245.19 135.42 0 245.19-109.78 245.19-245.19 0-135.42-109.78-245.19-245.19-245.19zm0 26.297c120.9 0 218.9 98 218.9 218.9s-98 218.9-218.9 218.9-218.93-98-218.93-218.9 98.03-218.9 218.93-218.9z" stroke-opacity=".31" stroke="#000" stroke-width="4.904" fill="#fff"/>
 </g>
 <text id="text20" style="word-spacing:0;letter-spacing:0" font-size="129.23px" line-height="125%" y="231.36" x="729.64001" font-family="Gentium Book Basic">
  <tspan id="tspan22" y="231.36" x="729.64001"/>
 </text>
 <text id="text24" style="text-anchor:middle" font-size="46.954px" transform="scale(4.0128 .2492)" y="579.25" x="378.91" font-family="Arial"/>
 <text id="text26" style="word-spacing:0;letter-spacing:0" font-size="129.23px" line-height="125%" y="151.36" x="1310.91" font-family="Gentium Book Basic">
  <tspan id="tspan28" y="151.36" x="1310.91"/>
 </text>
 <text id="text30" style="text-anchor:middle" font-size="46.954px" transform="scale(4.0128 .2492)" y="258.22" x="523.76001" font-family="Arial"/>
 <text id="text32" style="word-spacing:0;letter-spacing:0" font-size="129.23px" line-height="125%" y="-29.900999" x="239.33" font-family="Gentium Book Basic">
  <tspan id="tspan34" y="-29.900999" x="239.33"/>
 </text>
 <text id="text36" style="text-anchor:middle" font-size="46.954px" transform="scale(4.0128 .2492)" y="-469.14001" x="256.72" font-family="Arial"/>
 <text id="text38" style="word-spacing:0;letter-spacing:0" font-size="129.23px" line-height="125%" y="-246.37" x="1337.38" font-family="Gentium Book Basic">
  <tspan id="tspan40" y="-246.37" x="1337.38"/>
 </text>
 <text id="text42" style="text-anchor:middle" font-size="46.954px" transform="scale(4.0128 .2492)" y="-1337.8101" x="530.35999" font-family="Arial"/>
 <text id="text44" style="word-spacing:0;letter-spacing:0" font-size="129.23px" line-height="125%" y="-326.38" x="1918.65" font-family="Gentium Book Basic">
  <tspan id="tspan46" y="-326.38" x="1918.65"/>
 </text>
 <text id="text48" style="text-anchor:middle" font-size="46.954px" transform="scale(4.0128 .2492)" y="-1658.85" x="675.21002" font-family="Arial"/>
 <text id="text50" style="word-spacing:0;letter-spacing:0" font-size="129.23px" line-height="125%" y="-798.78003" x="1529.53" font-family="Gentium Book Basic">
  <tspan id="tspan52" y="-798.78003" x="1529.53"/>
 </text>
 <text id="text54" style="text-anchor:middle" font-size="46.954px" transform="scale(4.0128 .2492)" y="-3554.51" x="578.23999" font-family="Arial"/>
 <text id="text56" style="word-spacing:0;letter-spacing:0" font-size="129.23px" line-height="125%" y="-878.78003" x="2110.79" font-family="Gentium Book Basic">
  <tspan id="tspan58" y="-878.78003" x="2110.79"/>
 </text>
 <text id="text60" style="text-anchor:middle" font-size="46.954px" transform="scale(4.0128 .2492)" y="-3875.54" x="723.09003" font-family="Arial"/>
 <text id="text62" style="word-spacing:0;letter-spacing:0" font-size="208.33px" line-height="125%" y="535.94" x="277.98999" font-family="Gentium Book Basic">
  <tspan id="tspan64" y="535.94" x="277.98999"/>
 </text>
 <path id="path66" fill="#fff" d="m127.73 131.98v60.436l1.395 0.392 30.05 8.76v89.367l1.199 0.514s11.793 4.913 23.638 9.861c5.923 2.474 11.865 4.945 16.346 6.827 2.241 0.941 4.105 1.737 5.432 2.3 0.664 0.281 1.18 0.504 1.542 0.661 0.181 0.078 0.327 0.156 0.416 0.196h0.024l2.888 1.884 0.024-3.597 0.44-98.25c5.789 1.228 11.441 2.788 16.199 5.702 5.363 3.284 9.689 8.113 12.211 16.224v48.472l1.126 0.514 48.915 22.268 2.765 1.272v-76.908c-0.779-24.06-11.768-48.901-35.751-58.12l-0.074-0.024-0.049-0.024-126.22-37.977-2.52-0.759m164.81 48.45-2.129 3.157c3.22 3.471 5.555 6.891 7.39 10.498 0.008 0.01 0.02 0.015 0.024 0.024 3.185 6.485 5.263 11.484 6.387 17.863 0.884 5.02 1.238 6.451 1.737 16.542v0.147c0 0.138-0.083 2.695 0.074 5.506 0.08 1.443 0.22 2.905 0.489 4.184 0.135 0.64 0.284 1.225 0.563 1.811s0.71 1.338 1.762 1.688l0.196 0.073 0.196 0.024c5.128 0.605 7.804 3.206 9.788 6.925 1.955 3.665 2.948 8.401 3.915 12.675l0.612 74.51 0.024 1.223 1.101 0.514 51.24 24.715 3.01 1.444-0.196-3.328c-1.528-27.419-0.372-53.29-0.587-77.25-0.168-18.671-1.098-36.38-9.445-54.49l-0.049-0.098-0.049-0.098c-11.196-18.09-25.17-27.695-41.13-34.894-10.761-4.853-22.434-8.656-34.919-13.361"/>
</svg>
