<?xml version="1.0" encoding="UTF-8" standalone="no"?>
<svg
   xmlns:dc="http://purl.org/dc/elements/1.1/"
   xmlns:cc="http://creativecommons.org/ns#"
   xmlns:rdf="http://www.w3.org/1999/02/22-rdf-syntax-ns#"
   xmlns:svg="http://www.w3.org/2000/svg"
   xmlns="http://www.w3.org/2000/svg"
   xmlns:sodipodi="http://sodipodi.sourceforge.net/DTD/sodipodi-0.dtd"
   xmlns:inkscape="http://www.inkscape.org/namespaces/inkscape"
   id="svg2"
   version="1.1"
   viewBox="0 0 512 512"
   inkscape:version="0.91+devel r13804 custom"
   sodipodi:docname="gda-control-center.svg">
  <defs
     id="defs3094" />
  <sodipodi:namedview
     pagecolor="#ffffff"
     bordercolor="#666666"
     borderopacity="1"
     objecttolerance="10"
     gridtolerance="10"
     guidetolerance="10"
     inkscape:pageopacity="0"
     inkscape:pageshadow="2"
     inkscape:window-width="1366"
     inkscape:window-height="709"
     id="namedview3092"
     showgrid="false"
     inkscape:zoom="0.4609375"
     inkscape:cx="-8.6779661"
     inkscape:cy="237.55932"
     inkscape:window-x="-2"
     inkscape:window-y="-3"
     inkscape:window-maximized="1"
     inkscape:current-layer="svg2" />
  <metadata
     id="metadata6184">
    <rdf:RDF>
      <cc:Work
         rdf:about="">
        <dc:format>image/svg+xml</dc:format>
        <dc:type
           rdf:resource="http://purl.org/dc/dcmitype/StillImage" />
      </cc:Work>
    </rdf:RDF>
  </metadata>
  <g
     style="fill-rule:evenodd"
     id="g5502">
    <path
       style="fill:#68af4c"
       inkscape:connector-curvature="0"
       id="path5504"
       d="m 471.95,253.05 c 0,120.9 -98.01,218.91 -218.91,218.91 -120.9,0 -218.91,-98.01 -218.91,-218.91 0,-120.9 98.01,-218.91 218.91,-218.91 120.9,0 218.91,98.01 218.91,218.91" />
    <path
       style="fill-opacity:0.06700003"
       inkscape:connector-curvature="0"
       id="path5506"
       d="M 256,1 C 115.17,1 1,115.17 1,256 1,396.83 115.17,511 256,511 396.83,511 511,396.83 511,256 511,115.17 396.83,1 256,1 m 8.827,44.931 c 120.9,0 218.9,98 218.9,218.9 0,120.9 -98,218.9 -218.9,218.9 -120.9,0 -218.93,-98 -218.93,-218.9 0,-120.9 98.03,-218.9 218.93,-218.9" />
    <g
       style="fill-opacity:0.12900002"
       id="g5508">
      <path
         inkscape:connector-curvature="0"
         id="path5510"
         d="M 256,4.43 C 117.06,4.43 4.43,117.06 4.43,256 4.43,394.94 117.06,507.57 256,507.57 394.94,507.57 507.57,394.94 507.57,256 507.57,117.06 394.94,4.43 256,4.43 m 5.885,38.556 c 120.9,0 218.9,98 218.9,218.9 0,120.9 -98,218.9 -218.9,218.9 -120.9,0 -218.93,-98 -218.93,-218.9 0,-120.9 98.03,-218.9 218.93,-218.9" />
      <path
         inkscape:connector-curvature="0"
         id="path5512"
         d="M 256,8.36 C 119.23,8.36 8.36,119.23 8.36,256 8.36,392.77 119.23,503.64 256,503.64 392.77,503.64 503.64,392.77 503.64,256 503.64,119.23 392.77,8.36 256,8.36 m 2.942,31.691 c 120.9,0 218.9,98 218.9,218.9 0,120.9 -98,218.9 -218.9,218.9 -120.9,0 -218.93,-98 -218.93,-218.9 0,-120.9 98.03,-218.9 218.93,-218.9" />
    </g>
    <path
       style="fill:#ffffff;stroke:#000000;stroke-width:4.90399981;stroke-opacity:0.31000001"
       inkscape:connector-curvature="0"
       id="path5514"
       d="M 253.04,7.86 C 117.62,7.86 7.85,117.64 7.85,253.05 c 0,135.42 109.78,245.19 245.19,245.19 135.42,0 245.19,-109.78 245.19,-245.19 C 498.23,117.63 388.45,7.86 253.04,7.86 m 0,26.297 c 120.9,0 218.9,98 218.9,218.9 0,120.9 -98,218.9 -218.9,218.9 -120.9,0 -218.93,-98 -218.93,-218.9 0,-120.9 98.03,-218.9 218.93,-218.9 z" />
  </g>
  <path
     inkscape:connector-curvature="0"
     style="opacity:0.25"
     id="path6176"
     d="m 255.99,111.61 c -62.2,0 -112.62,16.663 -112.62,37.22 0,4.083 1.99,8.01 5.666,11.689 l 24.889,24.889 c -3.865,-1.366 -7.418,-2.83 -10.631,-4.377 l -19.662,-19.662 c -2.01,3.61 -3.195,7.388 -3.195,11.254 l 0,35.17 c 0,6.83 3.275,13.338 9.191,19.254 l 29.549,29.549 c -7.996,-3.047 -14.983,-6.564 -20.738,-10.447 L 143.96,231.67 c 0.003,0.005 0.007,0.01 0.01,0.016 l -0.016,-0.016 c -2.209,3.758 -3.518,7.756 -3.518,11.811 l 0,35.14 c 0,6.83 3.27,13.332 9.178,19.24 l 32.389,32.389 c -9.212,-3.283 -17.19,-7.171 -23.625,-11.516 l -14.412,-14.412 c 0.003,0.005 0.007,0.01 0.01,0.016 l -0.016,-0.016 c -2.209,3.758 -3.518,7.669 -3.518,11.75 l 0,35.2 c 0,6.819 3.264,13.311 9.162,19.21 l 101.46,101.46 c 0.662,0.006 1.321,0.025 1.984,0.025 120.9,0 218.91,-98.01 218.91,-218.91 0,-2.354 -0.049,-4.696 -0.123,-7.03 l -108.88,-108.88 c -14.83,-14.83 -57.11,-25.531 -106.96,-25.531" />
  <path
     inkscape:connector-curvature="0"
     style="fill:#ffffff"
     id="path6178"
     d="m 255.99,111.61 c -62.2,0 -112.62,16.662 -112.62,37.22 0,20.555 50.41,37.22 112.62,37.22 62.2,0 112.62,-16.662 112.62,-37.22 0,-20.555 -50.42,-37.22 -112.62,-37.22 m -112.36,49.76 c -2.01,3.61 -3.194,7.387 -3.194,11.253 l 0,35.17 c 0,27.16 51.783,49.23 115.55,49.23 63.82,0 115.58,-22.09 115.58,-49.23 l 0,-35.17 c 0,-3.866 -1.185,-7.643 -3.165,-11.253 -2.209,19.895 -51.638,35.811 -112.41,35.811 -60.776,0 -110.12,-15.916 -112.36,-35.811 m 0.322,70.3 c -2.209,3.758 -3.517,7.755 -3.517,11.81 l 0,35.14 c 0,27.18 51.783,49.17 115.55,49.17 63.82,0 115.58,-22 115.58,-49.17 l 0,-35.14 c 0,-4.054 -1.334,-8.05 -3.517,-11.81 -12.406,21.498 -57.779,37.422 -112.06,37.422 -54.24,0 -99.64,-15.938 -112.03,-37.422 m 0,72.65 c -2.209,3.758 -3.517,7.67 -3.517,11.751 l 0,35.2 c 0,27.16 51.783,49.12 115.55,49.12 63.82,0 115.58,-21.973 115.58,-49.12 l 0,-35.2 c 0,-4.081 -1.334,-7.993 -3.517,-11.751 -12.406,21.458 -57.779,37.36 -112.06,37.36 -54.24,0 -99.64,-15.906 -112.03,-37.36" />
</svg>
