<?xml version="1.0" encoding="UTF-8" standalone="no"?>
<!-- Created with Inkscape (http://www.inkscape.org/) -->
<svg id="svg2" xmlns:rdf="http://www.w3.org/1999/02/22-rdf-syntax-ns#" xmlns="http://www.w3.org/2000/svg" height="100%" viewBox="0 0 512 512" width="100%" version="1.1" xmlns:cc="http://creativecommons.org/ns#" xmlns:dc="http://purl.org/dc/elements/1.1/">
 <metadata id="metadata72">
  <rdf:RDF>
   <cc:Work rdf:about="">
    <dc:format>image/svg+xml</dc:format>
    <dc:type rdf:resource="http://purl.org/dc/dcmitype/StillImage"/>
   </cc:Work>
  </rdf:RDF>
 </metadata>
 <g id="g4" fill-rule="evenodd">
  <path id="path6" fill="#99c1c3" d="m471.95 253.05c0 120.9-98.01 218.9-218.9 218.9-120.9 0-218.9-98.01-218.9-218.9 0-120.9 98.01-218.9 218.9-218.9 120.9 0 218.9 98.01 218.9 218.9"/>
  <path id="path8" fill-opacity=".235" d="m273.09 113.44c-57.21 0.654-111.07 34.33-135.06 86.88-24.676 54.04-12.365 118.25 27.594 158.91 0.16 0.164 0.308 0.336 0.469 0.5 0.125 0.126 0.249 0.249 0.375 0.375 0.041 0.042 0.084 0.083 0.125 0.125 0.115 0.115 0.228 0.229 0.344 0.344 0.052 0.053 0.104 0.103 0.156 0.156 0.106 0.104 0.207 0.209 0.313 0.313 0.062 0.063 0.125 0.124 0.188 0.188 0.143 0.14 0.293 0.267 0.438 0.406 0.026 0.027 0.036 0.067 0.063 0.094 0.142 0.139 0.294 0.268 0.438 0.406 0.026 0.027 0.036 0.067 0.063 0.094 0.142 0.139 0.294 0.268 0.438 0.406 0.026 0.027 0.036 0.067 0.063 0.094 0.142 0.139 0.294 0.268 0.438 0.406 0.026 0.027 0.036 0.067 0.063 0.094 0.142 0.139 0.294 0.268 0.438 0.406 0.01 0.011 0.021 0.021 0.031 0.031 0.016 0.016 0.015 0.046 0.031 0.063 0.142 0.139 0.294 0.268 0.438 0.406 0.01 0.011 0.021 0.021 0.031 0.031 0.016 0.016 0.015 0.046 0.031 0.063 0.142 0.139 0.294 0.268 0.438 0.406 0.01 0.011 0.021 0.021 0.031 0.031 0.016 0.016 0.015 0.046 0.031 0.063 0.142 0.139 0.294 0.268 0.438 0.406 0.01 0.011 0.021 0.021 0.031 0.031 0.016 0.016 0.015 0.046 0.031 0.063 0.142 0.139 0.294 0.268 0.438 0.406 0.026 0.026 0.037 0.067 0.063 0.094 0.142 0.139 0.294 0.268 0.438 0.406 0.021 0.021 0.042 0.041 0.063 0.063 0.148 0.144 0.289 0.294 0.438 0.438l0.063 0.063c0.148 0.144 0.289 0.294 0.438 0.438l0.063 0.063c0.148 0.144 0.289 0.294 0.438 0.438l0.063 0.063c0.148 0.144 0.289 0.294 0.438 0.438l0.063 0.063c0.147 0.143 0.29 0.295 0.438 0.438l0.063 0.063c0.147 0.143 0.29 0.295 0.438 0.438l0.063 0.063c0.147 0.143 0.29 0.295 0.438 0.438l0.063 0.063c0.142 0.139 0.294 0.268 0.438 0.406 0.01 0.011 0.021 0.021 0.031 0.031 0.016 0.016 0.015 0.046 0.031 0.063 0.142 0.139 0.294 0.268 0.438 0.406 0.01 0.011 0.021 0.021 0.031 0.031 0.016 0.016 0.015 0.046 0.031 0.063 0.142 0.139 0.294 0.268 0.438 0.406 0.01 0.011 0.021 0.021 0.031 0.031 0.016 0.016 0.015 0.046 0.031 0.063 0.142 0.139 0.294 0.268 0.438 0.406 0.01 0.011 0.021 0.021 0.031 0.031 0.005 0.005-0.005 0.026 0 0.031l0.031 0.031c0.138 0.134 0.268 0.272 0.406 0.406 0.031 0.031 0.063 0.062 0.094 0.094 0.138 0.135 0.268 0.272 0.406 0.406 0.026 0.027 0.036 0.067 0.063 0.094 0.143 0.14 0.294 0.267 0.438 0.406 0.026 0.027 0.036 0.067 0.063 0.094 0.143 0.14 0.294 0.267 0.438 0.406 0.026 0.027 0.036 0.067 0.063 0.094 0.143 0.14 0.294 0.267 0.438 0.406 0.026 0.027 0.036 0.067 0.063 0.094 0.143 0.14 0.294 0.267 0.438 0.406 0.026 0.027 0.036 0.067 0.063 0.094 0.142 0.139 0.294 0.268 0.438 0.406 0.026 0.027 0.036 0.067 0.063 0.094 0.142 0.139 0.294 0.268 0.438 0.406 0.026 0.027 0.036 0.067 0.063 0.094 0.142 0.139 0.294 0.268 0.438 0.406 0.01 0.011 0.021 0.021 0.031 0.031 0.016 0.016 0.015 0.046 0.031 0.063 0.142 0.139 0.294 0.268 0.438 0.406 0.01 0.011 0.021 0.021 0.031 0.031 0.016 0.016 0.015 0.046 0.031 0.063 0.142 0.139 0.294 0.268 0.438 0.406 0.01 0.011 0.021 0.021 0.031 0.031 0.016 0.016 0.015 0.046 0.031 0.063 0.142 0.139 0.294 0.268 0.438 0.406 0.01 0.011 0.021 0.021 0.031 0.031 0.016 0.016 0.015 0.046 0.031 0.063 0.142 0.139 0.294 0.268 0.438 0.406 0.026 0.026 0.037 0.067 0.063 0.094 0.142 0.139 0.294 0.268 0.438 0.406 0.021 0.021 0.042 0.041 0.063 0.063 0.148 0.144 0.289 0.294 0.438 0.438l0.063 0.063c0.148 0.144 0.289 0.294 0.438 0.438l0.063 0.063c0.148 0.144 0.289 0.294 0.438 0.438l0.063 0.063c0.148 0.144 0.289 0.294 0.438 0.438l0.063 0.063c0.147 0.143 0.29 0.295 0.438 0.438l0.063 0.063c0.147 0.143 0.29 0.295 0.438 0.438l0.063 0.063c0.147 0.143 0.29 0.295 0.438 0.438l0.063 0.063c0.142 0.139 0.294 0.268 0.438 0.406 0.01 0.011 0.021 0.021 0.031 0.031 0.016 0.016 0.015 0.046 0.031 0.063 0.142 0.139 0.294 0.268 0.438 0.406 0.01 0.011 0.021 0.021 0.031 0.031 0.016 0.016 0.015 0.046 0.031 0.063 0.142 0.139 0.294 0.268 0.438 0.406 0.01 0.011 0.021 0.021 0.031 0.031 0.016 0.016 0.015 0.046 0.031 0.063 0.142 0.139 0.294 0.268 0.438 0.406 0.01 0.011 0.021 0.021 0.031 0.031 0.005 0.005-0.005 0.026 0 0.031l0.031 0.031c0.138 0.134 0.268 0.272 0.406 0.406 0.031 0.031 0.063 0.062 0.094 0.094 0.138 0.135 0.268 0.272 0.406 0.406 0.026 0.027 0.036 0.067 0.063 0.094 0.143 0.14 0.294 0.267 0.438 0.406 0.026 0.027 0.036 0.067 0.063 0.094 0.143 0.14 0.294 0.267 0.438 0.406 0.026 0.027 0.036 0.067 0.063 0.094 0.143 0.14 0.294 0.267 0.438 0.406 0.026 0.027 0.036 0.067 0.063 0.094 0.143 0.14 0.294 0.267 0.438 0.406 0.026 0.027 0.036 0.067 0.063 0.094 0.142 0.139 0.294 0.268 0.438 0.406 0.026 0.027 0.036 0.067 0.063 0.094 0.142 0.139 0.294 0.268 0.438 0.406 0.026 0.027 0.036 0.067 0.063 0.094 0.142 0.139 0.294 0.268 0.438 0.406 0.01 0.011 0.021 0.021 0.031 0.031 0.016 0.016 0.015 0.046 0.031 0.063 0.142 0.139 0.294 0.268 0.438 0.406 0.01 0.011 0.021 0.021 0.031 0.031 0.016 0.016 0.015 0.046 0.031 0.063 0.142 0.139 0.294 0.268 0.438 0.406 0.01 0.011 0.021 0.021 0.031 0.031 0.016 0.016 0.015 0.046 0.031 0.063 0.142 0.139 0.294 0.268 0.438 0.406 0.01 0.011 0.021 0.021 0.031 0.031 0.016 0.016 0.015 0.046 0.031 0.063 0.142 0.139 0.294 0.268 0.438 0.406 0.026 0.026 0.037 0.067 0.063 0.094 0.142 0.139 0.294 0.268 0.438 0.406 0.021 0.021 0.042 0.041 0.063 0.063 0.148 0.144 0.289 0.294 0.438 0.438l0.063 0.063c0.148 0.144 0.289 0.294 0.438 0.438l0.063 0.063c0.148 0.144 0.289 0.294 0.438 0.438l0.063 0.063c0.148 0.144 0.289 0.294 0.438 0.438l0.063 0.063c0.147 0.143 0.29 0.295 0.438 0.438l0.063 0.063c0.147 0.143 0.29 0.295 0.438 0.438l0.063 0.063c0.147 0.143 0.29 0.295 0.438 0.438l0.063 0.063c0.142 0.139 0.294 0.268 0.438 0.406 0.01 0.011 0.021 0.021 0.031 0.031 0.016 0.016 0.015 0.046 0.031 0.063 0.142 0.139 0.294 0.268 0.438 0.406 0.01 0.011 0.021 0.021 0.031 0.031 0.016 0.016 0.015 0.046 0.031 0.063 0.142 0.139 0.294 0.268 0.438 0.406 0.01 0.011 0.021 0.021 0.031 0.031 0.016 0.016 0.015 0.046 0.031 0.063 0.142 0.139 0.294 0.268 0.438 0.406 0.01 0.011 0.021 0.021 0.031 0.031 0.005 0.005-0.005 0.026 0 0.031l0.031 0.031c0.138 0.134 0.268 0.272 0.406 0.406 0.031 0.031 0.063 0.062 0.094 0.094 0.138 0.135 0.268 0.272 0.406 0.406 0.026 0.027 0.036 0.067 0.063 0.094 0.143 0.14 0.294 0.267 0.438 0.406 0.026 0.027 0.036 0.067 0.063 0.094 0.143 0.14 0.294 0.267 0.438 0.406 0.026 0.027 0.036 0.067 0.063 0.094 0.143 0.14 0.294 0.267 0.438 0.406 0.026 0.027 0.036 0.067 0.063 0.094 0.143 0.14 0.294 0.267 0.438 0.406 0.026 0.027 0.036 0.067 0.063 0.094 0.142 0.139 0.294 0.268 0.438 0.406 0.026 0.027 0.036 0.067 0.063 0.094 0.142 0.139 0.294 0.268 0.438 0.406 0.026 0.027 0.036 0.067 0.063 0.094 0.142 0.139 0.294 0.268 0.438 0.406 0.01 0.011 0.021 0.021 0.031 0.031 0.016 0.016 0.015 0.046 0.031 0.063 0.142 0.139 0.294 0.268 0.438 0.406 0.01 0.011 0.021 0.021 0.031 0.031 0.016 0.016 0.015 0.046 0.031 0.063 0.142 0.139 0.294 0.268 0.438 0.406 0.01 0.011 0.021 0.021 0.031 0.031 0.016 0.016 0.015 0.046 0.031 0.063 0.142 0.139 0.294 0.268 0.438 0.406 0.01 0.011 0.021 0.021 0.031 0.031 0.016 0.016 0.015 0.046 0.031 0.063 0.142 0.139 0.294 0.268 0.438 0.406 0.026 0.026 0.037 0.067 0.063 0.094 0.142 0.139 0.294 0.268 0.438 0.406 0.021 0.021 0.042 0.041 0.063 0.063 0.148 0.144 0.289 0.294 0.438 0.438l0.063 0.063c0.148 0.144 0.289 0.294 0.438 0.438l0.063 0.063c0.148 0.144 0.289 0.294 0.438 0.438l0.063 0.063c0.148 0.144 0.289 0.294 0.438 0.438l0.063 0.063c0.147 0.143 0.29 0.295 0.438 0.438l0.063 0.063c0.147 0.143 0.29 0.295 0.438 0.438l0.063 0.063c0.147 0.143 0.29 0.295 0.438 0.438l0.063 0.063c0.142 0.139 0.294 0.268 0.438 0.406 0.01 0.011 0.021 0.021 0.031 0.031 0.016 0.016 0.015 0.046 0.031 0.063 0.142 0.139 0.294 0.268 0.438 0.406 0.01 0.011 0.021 0.021 0.031 0.031 0.016 0.016 0.015 0.046 0.031 0.063 0.142 0.139 0.294 0.268 0.438 0.406 0.01 0.011 0.021 0.021 0.031 0.031 0.016 0.016 0.015 0.046 0.031 0.063 0.142 0.139 0.294 0.268 0.438 0.406 0.01 0.011 0.021 0.021 0.031 0.031 0.005 0.005-0.005 0.026 0 0.031l0.031 0.031c0.138 0.134 0.268 0.272 0.406 0.406 0.031 0.031 0.063 0.062 0.094 0.094 0.138 0.135 0.268 0.272 0.406 0.406 0.026 0.027 0.036 0.067 0.063 0.094 0.143 0.14 0.294 0.267 0.438 0.406 0.026 0.027 0.036 0.067 0.063 0.094 0.143 0.14 0.294 0.267 0.438 0.406 0.026 0.027 0.036 0.067 0.063 0.094 0.143 0.14 0.294 0.267 0.438 0.406 0.026 0.027 0.036 0.067 0.063 0.094 0.143 0.14 0.294 0.267 0.438 0.406 0.026 0.027 0.036 0.067 0.063 0.094 0.142 0.139 0.294 0.268 0.438 0.406 0.026 0.027 0.036 0.067 0.063 0.094 0.142 0.139 0.294 0.268 0.438 0.406 0.026 0.027 0.036 0.067 0.063 0.094 0.142 0.139 0.294 0.268 0.438 0.406 0.01 0.011 0.021 0.021 0.031 0.031 0.016 0.016 0.015 0.046 0.031 0.063 0.142 0.139 0.294 0.268 0.438 0.406 0.01 0.011 0.021 0.021 0.031 0.031 0.016 0.016 0.015 0.046 0.031 0.063 0.142 0.139 0.294 0.268 0.438 0.406 0.01 0.011 0.021 0.021 0.031 0.031 0.016 0.016 0.015 0.046 0.031 0.063 0.142 0.139 0.294 0.268 0.438 0.406 0.01 0.011 0.021 0.021 0.031 0.031 0.016 0.016 0.015 0.046 0.031 0.063 0.142 0.139 0.294 0.268 0.438 0.406 0.026 0.026 0.037 0.067 0.063 0.094 0.142 0.139 0.294 0.268 0.438 0.406 0.021 0.021 0.042 0.041 0.063 0.063 0.148 0.144 0.289 0.294 0.438 0.438l0.063 0.063c0.148 0.144 0.289 0.294 0.438 0.438l0.063 0.063c0.148 0.144 0.289 0.294 0.438 0.438l0.063 0.063c0.148 0.144 0.289 0.294 0.438 0.438l0.063 0.063c0.147 0.143 0.29 0.295 0.438 0.438l0.063 0.063c0.147 0.143 0.29 0.295 0.438 0.438l0.063 0.063c0.147 0.143 0.29 0.295 0.438 0.438l0.063 0.063c0.142 0.139 0.294 0.268 0.438 0.406 0.01 0.011 0.021 0.021 0.031 0.031 0.016 0.016 0.015 0.046 0.031 0.063 0.142 0.139 0.294 0.268 0.438 0.406 0.01 0.011 0.021 0.021 0.031 0.031 0.016 0.016 0.015 0.046 0.031 0.063 0.142 0.139 0.294 0.268 0.438 0.406 0.01 0.011 0.021 0.021 0.031 0.031 0.016 0.016 0.015 0.046 0.031 0.063 0.142 0.139 0.294 0.268 0.438 0.406 0.01 0.011 0.021 0.021 0.031 0.031 0.005 0.005-0.005 0.026 0 0.031l0.031 0.031c0.138 0.134 0.268 0.272 0.406 0.406 0.031 0.031 0.063 0.062 0.094 0.094 0.138 0.135 0.268 0.272 0.406 0.406 0.026 0.027 0.036 0.067 0.063 0.094 0.143 0.14 0.294 0.267 0.438 0.406 0.026 0.027 0.036 0.067 0.063 0.094 0.143 0.14 0.294 0.267 0.438 0.406 0.026 0.027 0.036 0.067 0.063 0.094 0.143 0.14 0.294 0.267 0.438 0.406 0.026 0.027 0.036 0.067 0.063 0.094 0.143 0.14 0.294 0.267 0.438 0.406 0.026 0.027 0.036 0.067 0.063 0.094 0.142 0.139 0.294 0.268 0.438 0.406 0.026 0.027 0.036 0.067 0.063 0.094 0.142 0.139 0.294 0.268 0.438 0.406 0.026 0.027 0.036 0.067 0.063 0.094 0.142 0.139 0.294 0.268 0.438 0.406 0.026 0.027 0.036 0.067 0.063 0.094 0.142 0.139 0.294 0.268 0.438 0.406 0.01 0.011 0.021 0.021 0.031 0.031 0.016 0.016 0.015 0.046 0.031 0.063 0.142 0.139 0.294 0.268 0.438 0.406 0.01 0.011 0.021 0.021 0.031 0.031 0.016 0.016 0.015 0.046 0.031 0.063 0.142 0.139 0.294 0.268 0.438 0.406 0.01 0.011 0.021 0.021 0.031 0.031 0.016 0.016 0.015 0.046 0.031 0.063 0.142 0.139 0.294 0.268 0.438 0.406 0.026 0.026 0.037 0.067 0.063 0.094 0.142 0.139 0.294 0.268 0.438 0.406 0.021 0.021 0.042 0.041 0.063 0.063 0.148 0.144 0.289 0.294 0.438 0.438l0.063 0.063c0.148 0.144 0.289 0.294 0.438 0.438l0.063 0.063c0.148 0.144 0.289 0.294 0.438 0.438l0.063 0.063c0.148 0.144 0.289 0.294 0.438 0.438l0.063 0.063c0.147 0.143 0.29 0.295 0.438 0.438l0.063 0.063c0.147 0.143 0.29 0.295 0.438 0.438l0.063 0.063c0.147 0.143 0.29 0.295 0.438 0.438l0.063 0.063c0.142 0.139 0.294 0.268 0.438 0.406 0.01 0.011 0.021 0.021 0.031 0.031 0.016 0.016 0.015 0.046 0.031 0.063 0.142 0.139 0.294 0.268 0.438 0.406 0.01 0.011 0.021 0.021 0.031 0.031 0.016 0.016 0.015 0.046 0.031 0.063 0.142 0.139 0.294 0.268 0.438 0.406 0.01 0.011 0.021 0.021 0.031 0.031 0.016 0.016 0.015 0.046 0.031 0.063 0.142 0.139 0.294 0.268 0.438 0.406 0.01 0.011 0.021 0.021 0.031 0.031 0.005 0.005-0.005 0.026 0 0.031l0.031 0.031c0.058 0.057 0.129 0.1 0.188 0.156 0.108 0.112 0.204 0.232 0.313 0.344 0.138 0.134 0.268 0.272 0.406 0.406 0.026 0.027 0.036 0.067 0.063 0.094 0.143 0.14 0.294 0.267 0.438 0.406 0.026 0.027 0.036 0.067 0.063 0.094 0.143 0.14 0.294 0.267 0.438 0.406 0.026 0.027 0.036 0.067 0.063 0.094 0.143 0.14 0.294 0.267 0.438 0.406 0.026 0.027 0.036 0.067 0.063 0.094 0.143 0.14 0.294 0.267 0.438 0.406 0.026 0.027 0.036 0.067 0.063 0.094 0.142 0.139 0.294 0.268 0.438 0.406 0.026 0.027 0.036 0.067 0.063 0.094 0.142 0.139 0.294 0.268 0.438 0.406 0.026 0.027 0.036 0.067 0.063 0.094 0.142 0.139 0.294 0.268 0.438 0.406 0.026 0.027 0.036 0.067 0.063 0.094 0.142 0.139 0.294 0.268 0.438 0.406 0.01 0.011 0.021 0.021 0.031 0.031 0.016 0.016 0.015 0.046 0.031 0.063 0.142 0.139 0.294 0.268 0.438 0.406 0.01 0.011 0.021 0.021 0.031 0.031 0.016 0.016 0.015 0.046 0.031 0.063 0.142 0.139 0.294 0.268 0.438 0.406 0.01 0.011 0.021 0.021 0.031 0.031 0.016 0.016 0.015 0.046 0.031 0.063 0.142 0.139 0.294 0.268 0.438 0.406 0.026 0.026 0.037 0.067 0.063 0.094 0.142 0.139 0.294 0.268 0.438 0.406 0.021 0.021 0.042 0.041 0.063 0.063 0.148 0.144 0.289 0.294 0.438 0.438l0.063 0.063c0.148 0.144 0.289 0.294 0.438 0.438l0.063 0.063c0.148 0.144 0.289 0.294 0.438 0.438l0.063 0.063c0.148 0.144 0.289 0.294 0.438 0.438l0.063 0.063c0.147 0.143 0.29 0.295 0.438 0.438l0.063 0.063c0.147 0.143 0.29 0.295 0.438 0.438l0.063 0.063c0.147 0.143 0.29 0.295 0.438 0.438l0.063 0.063c0.147 0.143 0.29 0.295 0.438 0.438l0.063 0.063c0.142 0.139 0.294 0.268 0.438 0.406 0.01 0.011 0.021 0.021 0.031 0.031 0.016 0.016 0.015 0.046 0.031 0.063 0.142 0.139 0.294 0.268 0.438 0.406 0.01 0.011 0.021 0.021 0.031 0.031 0.016 0.016 0.015 0.046 0.031 0.063 0.142 0.139 0.294 0.268 0.438 0.406 0.01 0.011 0.021 0.021 0.031 0.031 0.005 0.005-0.005 0.026 0 0.031l0.031 0.031c0.058 0.057 0.129 0.1 0.188 0.156 0.108 0.112 0.204 0.232 0.313 0.344 0.138 0.134 0.268 0.272 0.406 0.406 0.026 0.027 0.036 0.067 0.063 0.094 0.143 0.14 0.294 0.267 0.438 0.406 0.026 0.027 0.036 0.067 0.063 0.094 0.143 0.14 0.294 0.267 0.438 0.406 0.026 0.027 0.036 0.067 0.063 0.094 0.143 0.14 0.294 0.267 0.438 0.406 0.026 0.027 0.036 0.067 0.063 0.094 0.143 0.14 0.294 0.267 0.438 0.406 0.026 0.027 0.036 0.067 0.063 0.094 0.142 0.139 0.294 0.268 0.438 0.406 0.026 0.027 0.036 0.067 0.063 0.094 0.142 0.139 0.294 0.268 0.438 0.406 0.026 0.027 0.036 0.067 0.063 0.094 0.142 0.139 0.294 0.268 0.438 0.406 0.026 0.027 0.036 0.067 0.063 0.094 0.142 0.139 0.294 0.268 0.438 0.406 0.01 0.011 0.021 0.021 0.031 0.031 0.016 0.016 0.015 0.046 0.031 0.063 0.142 0.139 0.294 0.268 0.438 0.406 0.01 0.011 0.021 0.021 0.031 0.031 0.016 0.016 0.015 0.046 0.031 0.063 0.142 0.139 0.294 0.268 0.438 0.406 0.01 0.011 0.021 0.021 0.031 0.031 0.016 0.016 0.015 0.046 0.031 0.063 0.142 0.139 0.294 0.268 0.438 0.406 0.026 0.026 0.037 0.067 0.063 0.094 0.142 0.139 0.294 0.268 0.438 0.406 0.021 0.021 0.042 0.041 0.063 0.063 0.148 0.144 0.289 0.294 0.438 0.438l0.063 0.063c0.148 0.144 0.289 0.294 0.438 0.438l0.063 0.063c0.148 0.144 0.289 0.294 0.438 0.438l0.063 0.063c0.148 0.144 0.289 0.294 0.438 0.438l0.063 0.063c0.147 0.143 0.29 0.295 0.438 0.438l0.063 0.063c0.147 0.143 0.29 0.295 0.438 0.438l0.063 0.063c0.147 0.143 0.29 0.295 0.438 0.438l0.063 0.063c0.147 0.143 0.29 0.295 0.438 0.438l0.063 0.063c0.142 0.139 0.294 0.268 0.438 0.406 0.01 0.011 0.021 0.021 0.031 0.031 0.016 0.016 0.015 0.046 0.031 0.063 0.142 0.139 0.294 0.268 0.438 0.406 0.01 0.011 0.021 0.021 0.031 0.031 0.016 0.016 0.015 0.046 0.031 0.063 0.142 0.139 0.294 0.268 0.438 0.406 0.01 0.011 0.021 0.021 0.031 0.031 0.005 0.005-0.005 0.026 0 0.031l0.031 0.031c0.058 0.057 0.129 0.1 0.188 0.156 0.108 0.112 0.204 0.232 0.313 0.344 0.138 0.134 0.268 0.272 0.406 0.406 0.026 0.027 0.036 0.067 0.063 0.094 0.143 0.14 0.294 0.267 0.438 0.406 0.026 0.027 0.036 0.067 0.063 0.094 0.143 0.14 0.294 0.267 0.438 0.406 0.026 0.027 0.036 0.067 0.063 0.094 0.143 0.14 0.294 0.267 0.438 0.406 0.026 0.027 0.036 0.067 0.063 0.094 0.143 0.14 0.294 0.267 0.438 0.406 0.026 0.027 0.036 0.067 0.063 0.094 0.142 0.139 0.294 0.268 0.438 0.406 0.026 0.027 0.036 0.067 0.063 0.094 0.142 0.139 0.294 0.268 0.438 0.406 0.026 0.027 0.036 0.067 0.063 0.094 0.142 0.139 0.294 0.268 0.438 0.406 0.026 0.027 0.036 0.067 0.063 0.094 0.142 0.139 0.294 0.268 0.438 0.406 0.01 0.011 0.021 0.021 0.031 0.031 0.016 0.016 0.015 0.046 0.031 0.063 0.142 0.139 0.294 0.268 0.438 0.406 0.01 0.011 0.021 0.021 0.031 0.031 0.016 0.016 0.015 0.046 0.031 0.063 0.142 0.139 0.294 0.268 0.438 0.406 0.01 0.011 0.021 0.021 0.031 0.031 0.016 0.016 0.015 0.046 0.031 0.063 0.142 0.139 0.294 0.268 0.438 0.406 0.026 0.026 0.037 0.067 0.063 0.094 0.142 0.139 0.294 0.268 0.438 0.406 0.021 0.021 0.042 0.041 0.063 0.063 0.148 0.144 0.289 0.294 0.438 0.438l0.063 0.063c0.148 0.144 0.289 0.294 0.438 0.438l0.063 0.063c0.148 0.144 0.289 0.294 0.438 0.438l0.063 0.063c0.148 0.144 0.289 0.294 0.438 0.438l0.063 0.063c0.147 0.143 0.29 0.295 0.438 0.438l0.063 0.063c0.147 0.143 0.29 0.295 0.438 0.438l0.063 0.063c0.147 0.143 0.29 0.295 0.438 0.438l0.063 0.063c0.147 0.143 0.29 0.295 0.438 0.438l0.063 0.063c0.142 0.139 0.294 0.268 0.438 0.406 0.01 0.011 0.021 0.021 0.031 0.031 0.016 0.016 0.015 0.046 0.031 0.063 0.069 0.067 0.148 0.123 0.219 0.188 93.42-10.192 169.17-79.14 189.5-169.12-0.146 0-0.292 0.003-0.438 0l0.063-0.5c-0.187-0.005-0.375 0.004-0.563 0l0.063-0.5c-0.187-0.005-0.375 0.004-0.563 0l0.063-0.5c-0.187-0.005-0.375 0.004-0.563 0l0.063-0.5c-0.187-0.005-0.375 0.004-0.563 0l0.063-0.5c-0.187-0.005-0.375 0.004-0.563 0l0.063-0.5c-0.187-0.005-0.375 0.004-0.563 0l0.063-0.5c-0.187-0.005-0.375 0.004-0.563 0l0.063-0.5c-0.187-0.005-0.375 0.004-0.563 0l0.063-0.5c-0.187-0.005-0.375 0.004-0.563 0l0.063-0.5c-0.187-0.005-0.375 0.004-0.563 0l0.063-0.5c-0.187-0.005-0.375 0.004-0.563 0l0.063-0.5c-0.187-0.005-0.375 0.004-0.563 0l0.063-0.5c-0.189-0.005-0.373 0.004-0.563 0l0.063-0.469c-0.189-0.005-0.373 0.004-0.563 0l0.063-0.5c-0.189-0.005-0.373 0.004-0.563 0l0.063-0.5c-0.189-0.005-0.373 0.004-0.563 0l0.063-0.5c-0.179-0.005-0.353 0.004-0.531 0l0.063-0.5c-0.187-0.005-0.375 0.004-0.563 0l0.063-0.5c-0.187-0.005-0.375 0.004-0.563 0l0.063-0.5c-0.187-0.005-0.375 0.004-0.563 0l0.063-0.5c-0.187-0.005-0.375 0.004-0.563 0l0.063-0.5c-0.187-0.005-0.375 0.004-0.563 0l0.063-0.5c-0.187-0.005-0.375 0.004-0.563 0l0.063-0.5c-0.187-0.005-0.375 0.004-0.563 0l0.063-0.5c-0.187-0.005-0.375 0.004-0.563 0l0.063-0.5c-0.187-0.005-0.375 0.004-0.563 0l0.063-0.5c-0.187-0.005-0.375 0.004-0.563 0l0.063-0.5c-0.187-0.005-0.375 0.004-0.563 0l0.063-0.5c-0.187-0.005-0.375 0.004-0.563 0l0.063-0.5c-0.187-0.005-0.375 0.004-0.563 0l0.063-0.5c-0.187-0.005-0.375 0.004-0.563 0l0.063-0.5c-0.187-0.005-0.375 0.004-0.563 0l0.063-0.5c-0.187-0.005-0.375 0.004-0.563 0l0.063-0.5c-0.187-0.005-0.375 0.004-0.563 0l0.063-0.5c-0.187-0.005-0.375 0.004-0.563 0l0.063-0.5c-0.187-0.005-0.375 0.004-0.563 0l0.063-0.5c-0.187-0.005-0.375 0.004-0.563 0l0.063-0.5c-0.189-0.005-0.373 0.004-0.563 0l0.063-0.469c-0.189-0.005-0.373 0.004-0.563 0l0.063-0.5c-0.189-0.005-0.373 0.004-0.563 0l0.063-0.5c-0.189-0.005-0.373 0.004-0.563 0l0.063-0.5c-0.179-0.005-0.353 0.004-0.531 0l0.063-0.5c-0.187-0.005-0.375 0.004-0.563 0l0.063-0.5c-0.187-0.005-0.375 0.004-0.563 0l0.063-0.5c-0.187-0.005-0.375 0.004-0.563 0l0.063-0.5c-0.187-0.005-0.375 0.004-0.563 0l0.063-0.5c-0.187-0.005-0.375 0.004-0.563 0l0.063-0.5c-0.187-0.005-0.375 0.004-0.563 0l0.063-0.5c-0.187-0.005-0.375 0.004-0.563 0l0.063-0.5c-0.187-0.005-0.375 0.004-0.563 0l0.063-0.5c-0.187-0.005-0.375 0.004-0.563 0l0.063-0.5c-0.187-0.005-0.375 0.004-0.563 0l0.063-0.5c-0.187-0.005-0.375 0.004-0.563 0l0.063-0.5c-0.187-0.005-0.375 0.004-0.563 0l0.063-0.5c-0.187-0.005-0.375 0.004-0.563 0l0.063-0.5c-0.187-0.005-0.375 0.004-0.563 0l0.063-0.5c-0.187-0.005-0.375 0.004-0.563 0l0.063-0.5c-0.187-0.005-0.375 0.004-0.563 0l0.063-0.5c-0.187-0.005-0.375 0.004-0.563 0l0.063-0.5c-0.187-0.005-0.375 0.004-0.563 0l0.063-0.5c-0.187-0.005-0.375 0.004-0.563 0l0.063-0.5c-0.187-0.005-0.375 0.004-0.563 0l0.063-0.5c-0.189-0.005-0.373 0.004-0.563 0l0.063-0.469c-0.189-0.005-0.373 0.004-0.563 0l0.063-0.5c-0.189-0.005-0.373 0.004-0.563 0l0.063-0.5c-0.189-0.005-0.373 0.004-0.563 0l0.063-0.5c-0.179-0.005-0.353 0.004-0.531 0l0.063-0.5c-0.187-0.005-0.375 0.004-0.563 0l0.063-0.5c-0.187-0.005-0.375 0.004-0.563 0l0.063-0.5c-0.187-0.005-0.375 0.004-0.563 0l0.063-0.5c-0.187-0.005-0.375 0.004-0.563 0l0.063-0.5c-0.187-0.005-0.375 0.004-0.563 0l0.063-0.5c-0.187-0.005-0.375 0.004-0.563 0l0.063-0.5c-0.187-0.005-0.375 0.004-0.563 0l0.063-0.5c-0.187-0.005-0.375 0.004-0.563 0l0.063-0.5c-0.187-0.005-0.375 0.004-0.563 0l0.063-0.5c-0.187-0.005-0.375 0.004-0.563 0l0.063-0.5c-0.187-0.005-0.375 0.004-0.563 0l0.063-0.5c-0.187-0.005-0.375 0.004-0.563 0l0.063-0.5c-0.187-0.005-0.375 0.004-0.563 0l0.063-0.5c-0.187-0.005-0.375 0.004-0.563 0l0.063-0.5c-0.187-0.005-0.375 0.004-0.563 0l0.063-0.5c-0.187-0.005-0.375 0.004-0.563 0l0.063-0.5c-0.187-0.005-0.375 0.004-0.563 0l0.063-0.5c-0.187-0.005-0.375 0.004-0.563 0l0.063-0.5c-0.187-0.005-0.375 0.004-0.563 0l0.063-0.5c-0.187-0.005-0.375 0.004-0.563 0l0.063-0.5c-0.189-0.005-0.373 0.004-0.563 0l0.063-0.469c-0.189-0.005-0.373 0.004-0.563 0l0.063-0.5c-0.189-0.005-0.373 0.004-0.563 0l0.063-0.5c-0.189-0.005-0.373 0.004-0.563 0l0.063-0.5c-0.179-0.005-0.353 0.004-0.531 0l0.063-0.5c-0.187-0.005-0.375 0.004-0.563 0l0.063-0.5c-0.187-0.005-0.375 0.004-0.563 0l0.063-0.5c-0.187-0.005-0.375 0.004-0.563 0l0.063-0.5c-0.187-0.005-0.375 0.004-0.563 0l0.063-0.5c-0.187-0.005-0.375 0.004-0.563 0l0.063-0.5c-0.187-0.005-0.375 0.004-0.563 0l0.063-0.5c-0.187-0.005-0.375 0.004-0.563 0l0.063-0.5c-0.187-0.005-0.375 0.004-0.563 0l0.063-0.5c-0.187-0.005-0.375 0.004-0.563 0l0.063-0.5c-0.187-0.005-0.375 0.004-0.563 0l0.063-0.5c-0.187-0.005-0.375 0.004-0.563 0l0.063-0.5c-0.187-0.005-0.375 0.004-0.563 0l0.063-0.5c-0.187-0.005-0.375 0.004-0.563 0l0.063-0.5c-0.187-0.005-0.375 0.004-0.563 0l0.063-0.5c-0.187-0.005-0.375 0.004-0.563 0l0.063-0.5c-0.187-0.005-0.375 0.004-0.563 0l0.063-0.5c-0.187-0.005-0.375 0.004-0.563 0l0.063-0.5c-0.187-0.005-0.375 0.004-0.563 0l0.063-0.5c-0.187-0.005-0.375 0.004-0.563 0l0.063-0.5c-0.187-0.005-0.375 0.004-0.563 0l0.063-0.5c-0.189-0.005-0.373 0.004-0.563 0l0.063-0.469c-0.189-0.005-0.373 0.004-0.563 0l0.063-0.5c-0.189-0.005-0.373 0.004-0.563 0l0.063-0.5c-0.189-0.005-0.373 0.004-0.563 0l0.063-0.5c-0.179-0.005-0.353 0.004-0.531 0l0.063-0.5c-0.187-0.005-0.375 0.004-0.563 0l0.063-0.5c-0.187-0.005-0.375 0.004-0.563 0l0.063-0.5c-0.187-0.005-0.375 0.004-0.563 0l0.063-0.5c-0.187-0.005-0.375 0.004-0.563 0l0.063-0.5c-0.187-0.005-0.375 0.004-0.563 0l0.063-0.5c-0.187-0.005-0.375 0.004-0.563 0l0.063-0.5c-0.187-0.005-0.375 0.004-0.563 0l0.063-0.5c-0.187-0.005-0.375 0.004-0.563 0l0.063-0.5c-0.187-0.005-0.375 0.004-0.563 0l0.063-0.5c-0.187-0.005-0.375 0.004-0.563 0l0.063-0.5c-0.187-0.005-0.375 0.004-0.563 0l0.063-0.5c-0.187-0.005-0.375 0.004-0.563 0l0.063-0.5c-0.187-0.005-0.375 0.004-0.563 0l0.063-0.5c-0.187-0.005-0.375 0.004-0.563 0l0.063-0.5c-0.187-0.005-0.375 0.004-0.563 0l0.063-0.5c-0.187-0.005-0.375 0.004-0.563 0l0.063-0.5c-0.187-0.005-0.375 0.004-0.563 0l0.063-0.5c-0.187-0.005-0.375 0.004-0.563 0l0.063-0.5c-0.187-0.005-0.375 0.004-0.563 0l0.063-0.5c-0.187-0.005-0.375 0.004-0.563 0l0.063-0.5c-0.189-0.005-0.373 0.004-0.563 0l0.063-0.469c-0.189-0.005-0.373 0.004-0.563 0l0.063-0.5c-0.189-0.005-0.373 0.004-0.563 0l0.063-0.5c-0.189-0.005-0.373 0.004-0.563 0l0.063-0.5c-0.179-0.005-0.353 0.004-0.531 0l0.063-0.5c-0.187-0.005-0.375 0.004-0.563 0l0.063-0.5c-0.187-0.005-0.375 0.004-0.563 0l0.063-0.5c-0.187-0.005-0.375 0.004-0.563 0l0.063-0.5c-0.187-0.005-0.375 0.004-0.563 0l0.063-0.5c-0.187-0.005-0.375 0.004-0.563 0l0.063-0.5c-0.187-0.005-0.375 0.004-0.563 0l0.063-0.5c-0.187-0.005-0.375 0.004-0.563 0l0.063-0.5c-0.187-0.005-0.375 0.004-0.563 0l0.063-0.5c-0.187-0.005-0.375 0.004-0.563 0l0.063-0.5c-0.187-0.005-0.375 0.004-0.563 0l0.063-0.5c-0.187-0.005-0.375 0.004-0.563 0l0.063-0.5c-0.187-0.005-0.375 0.004-0.563 0l0.063-0.5c-0.187-0.005-0.375 0.004-0.563 0l0.063-0.5c-0.187-0.005-0.375 0.004-0.563 0l0.063-0.5c-0.187-0.005-0.375 0.004-0.563 0l0.063-0.5c-0.187-0.005-0.375 0.004-0.563 0l0.063-0.5c-0.187-0.005-0.375 0.004-0.563 0l0.063-0.5c-0.187-0.005-0.375 0.004-0.563 0l0.063-0.5c-0.187-0.005-0.375 0.004-0.563 0l0.063-0.5c-0.187-0.005-0.375 0.004-0.563 0l0.063-0.5c-0.187-0.005-0.375 0.004-0.563 0l0.063-0.469c-0.189-0.005-0.373 0.004-0.563 0l0.063-0.5c-0.189-0.005-0.373 0.004-0.563 0l0.063-0.5c-0.189-0.005-0.373 0.004-0.563 0l0.063-0.5c-0.179-0.005-0.353 0.004-0.531 0l0.063-0.5c-0.187-0.005-0.375 0.004-0.563 0l0.063-0.5c-0.187-0.005-0.375 0.004-0.563 0l0.063-0.5c-0.187-0.005-0.375 0.004-0.563 0l0.063-0.5c-0.187-0.005-0.375 0.004-0.563 0l0.063-0.5c-0.187-0.005-0.375 0.004-0.563 0l0.063-0.5c-0.187-0.005-0.375 0.004-0.563 0l0.063-0.5c-0.187-0.005-0.375 0.004-0.563 0l0.063-0.5c-0.187-0.005-0.375 0.004-0.563 0l0.063-0.5c-0.187-0.005-0.375 0.004-0.563 0l0.063-0.5c-0.187-0.005-0.375 0.004-0.563 0l0.063-0.5c-0.187-0.005-0.375 0.004-0.563 0l0.063-0.5c-0.187-0.005-0.375 0.004-0.563 0l0.063-0.5c-0.187-0.005-0.375 0.004-0.563 0l0.063-0.5c-0.187-0.005-0.375 0.004-0.563 0l0.063-0.5c-0.187-0.005-0.375 0.004-0.563 0l0.063-0.5c-0.187-0.005-0.375 0.004-0.563 0l0.063-0.5c-0.187-0.005-0.375 0.004-0.563 0l0.063-0.5c-0.187-0.005-0.375 0.004-0.563 0l0.063-0.5c-0.187-0.005-0.375 0.004-0.563 0l0.063-0.5c-0.187-0.005-0.375 0.004-0.563 0l0.063-0.5c-0.187-0.005-0.375 0.004-0.563 0l0.063-0.469c-0.189-0.005-0.373 0.004-0.563 0l0.063-0.5c-0.189-0.005-0.373 0.004-0.563 0l0.063-0.5c-0.189-0.005-0.373 0.004-0.563 0l0.063-0.5c-0.179-0.005-0.353 0.004-0.531 0l0.063-0.5c-0.187-0.005-0.375 0.004-0.563 0l0.063-0.5c-0.187-0.005-0.375 0.004-0.563 0l0.063-0.5c-0.187-0.005-0.375 0.004-0.563 0l0.063-0.5c-0.187-0.005-0.375 0.004-0.563 0l0.063-0.5c-0.187-0.005-0.375 0.004-0.563 0l0.063-0.5c-0.187-0.005-0.375 0.004-0.563 0l0.063-0.5c-0.187-0.005-0.375 0.004-0.563 0l0.063-0.5c-0.187-0.005-0.375 0.004-0.563 0l0.063-0.5c-0.187-0.005-0.375 0.004-0.563 0l0.063-0.5c-0.187-0.005-0.375 0.004-0.563 0l0.063-0.5c-0.187-0.005-0.375 0.004-0.563 0l0.063-0.5c-0.187-0.005-0.375 0.004-0.563 0l0.063-0.5c-0.187-0.005-0.375 0.004-0.563 0l0.063-0.5c-0.187-0.005-0.375 0.004-0.563 0l0.063-0.5c-0.187-0.005-0.375 0.004-0.563 0l0.063-0.5c-0.187-0.005-0.375 0.004-0.563 0l0.063-0.5c-0.187-0.005-0.375 0.004-0.563 0l0.063-0.5c-0.187-0.005-0.375 0.004-0.563 0l0.063-0.5c-0.187-0.005-0.375 0.004-0.563 0l0.063-0.5c-0.187-0.005-0.375 0.004-0.563 0l0.063-0.5c-0.187-0.005-0.375 0.004-0.563 0l0.063-0.469c-0.189-0.005-0.373 0.004-0.563 0l0.063-0.5c-0.189-0.005-0.373 0.004-0.563 0l0.063-0.5c-0.189-0.005-0.373 0.004-0.563 0l0.063-0.5c-0.179-0.005-0.353 0.004-0.531 0l0.063-0.5c-0.187-0.005-0.375 0.004-0.563 0l0.063-0.5c-0.187-0.005-0.375 0.004-0.563 0l0.063-0.5c-0.187-0.005-0.375 0.004-0.563 0l0.063-0.5c-0.187-0.005-0.375 0.004-0.563 0l0.063-0.5c-0.187-0.005-0.375 0.004-0.563 0l0.063-0.5c-0.187-0.005-0.375 0.004-0.563 0l0.063-0.5c-0.187-0.005-0.375 0.004-0.563 0l0.063-0.5c-0.187-0.005-0.375 0.004-0.563 0l0.063-0.5c-0.187-0.005-0.375 0.004-0.563 0l0.063-0.5c-0.187-0.005-0.375 0.004-0.563 0l0.063-0.5c-0.187-0.005-0.375 0.004-0.563 0l0.063-0.5c-0.187-0.005-0.375 0.004-0.563 0l0.063-0.5c-0.187-0.005-0.375 0.004-0.563 0l0.063-0.5c-0.187-0.005-0.375 0.004-0.563 0l0.063-0.5c-0.187-0.005-0.375 0.004-0.563 0l0.063-0.5c-0.187-0.005-0.375 0.004-0.563 0l0.063-0.5c-0.187-0.005-0.375 0.004-0.563 0l0.063-0.5c-0.187-0.005-0.375 0.004-0.563 0l0.063-0.5c-0.187-0.005-0.375 0.004-0.563 0l0.063-0.5c-0.187-0.005-0.375 0.004-0.563 0l0.063-0.5c-0.187-0.005-0.375 0.004-0.563 0l0.063-0.469c-0.189-0.005-0.373 0.004-0.563 0l0.063-0.5c-0.189-0.005-0.373 0.004-0.563 0l0.063-0.5c-0.189-0.005-0.373 0.004-0.563 0l0.063-0.5c-0.189-0.005-0.373 0.004-0.563 0l0.063-0.5c-0.179-0.005-0.353 0.004-0.531 0l0.063-0.5c-0.187-0.005-0.375 0.004-0.563 0l0.063-0.5c-0.187-0.005-0.375 0.004-0.563 0l0.063-0.5c-0.187-0.005-0.375 0.004-0.563 0l0.063-0.5c-0.187-0.005-0.375 0.004-0.563 0l0.063-0.5c-0.187-0.005-0.375 0.004-0.563 0l0.063-0.5c-0.187-0.005-0.375 0.004-0.563 0l0.063-0.5c-0.187-0.005-0.375 0.004-0.563 0l0.063-0.5c-0.187-0.005-0.375 0.004-0.563 0l0.063-0.5c-0.187-0.005-0.375 0.004-0.563 0l0.063-0.5c-0.187-0.005-0.375 0.004-0.563 0l0.063-0.5c-0.187-0.005-0.375 0.004-0.563 0l0.063-0.5c-0.187-0.005-0.375 0.004-0.563 0l0.063-0.5c-0.187-0.005-0.375 0.004-0.563 0l0.063-0.5c-0.187-0.005-0.375 0.004-0.563 0l0.063-0.5c-0.187-0.005-0.375 0.004-0.563 0l0.063-0.5c-0.187-0.005-0.375 0.004-0.563 0l0.063-0.5c-0.187-0.005-0.375 0.004-0.563 0l0.063-0.5c-0.187-0.005-0.375 0.004-0.563 0l0.063-0.5c-0.187-0.005-0.375 0.004-0.563 0l0.063-0.5c-0.187-0.005-0.375 0.004-0.563 0l0.063-0.469c-0.189-0.005-0.373 0.004-0.563 0l0.063-0.5c-0.189-0.005-0.373 0.004-0.563 0l0.063-0.5c-0.189-0.005-0.373 0.004-0.563 0l0.063-0.5c-0.189-0.005-0.373 0.004-0.563 0l0.063-0.5c-0.179-0.005-0.353 0.004-0.531 0l0.063-0.5c-0.187-0.005-0.375 0.004-0.563 0l0.063-0.5c-0.187-0.005-0.375 0.004-0.563 0l0.063-0.5c-0.187-0.005-0.375 0.004-0.563 0l0.063-0.5c-0.187-0.005-0.375 0.004-0.563 0l0.063-0.5c-0.187-0.005-0.375 0.004-0.563 0l0.063-0.5c-0.187-0.005-0.375 0.004-0.563 0l0.063-0.5c-0.187-0.005-0.375 0.004-0.563 0l0.063-0.5c-0.187-0.005-0.375 0.004-0.563 0l0.063-0.5c-0.187-0.005-0.375 0.004-0.563 0l0.063-0.5c-0.187-0.005-0.375 0.004-0.563 0l0.063-0.5c-0.187-0.005-0.375 0.004-0.563 0l0.063-0.5c-0.187-0.005-0.375 0.004-0.563 0l0.063-0.5c-0.187-0.005-0.375 0.004-0.563 0l0.063-0.5c-0.187-0.005-0.375 0.004-0.563 0l0.063-0.5c-0.187-0.005-0.375 0.004-0.563 0l0.063-0.5c-0.187-0.005-0.375 0.004-0.563 0l0.063-0.5c-0.187-0.005-0.375 0.004-0.563 0l0.063-0.5c-0.187-0.005-0.375 0.004-0.563 0l0.063-0.5c-0.187-0.005-0.375 0.004-0.563 0l0.063-0.5c-0.187-0.005-0.375 0.004-0.563 0l0.063-0.469c-0.189-0.005-0.373 0.004-0.563 0l0.063-0.5c-0.189-0.005-0.373 0.004-0.563 0l0.063-0.5c-0.189-0.005-0.373 0.004-0.563 0l0.063-0.5c-0.189-0.005-0.373 0.004-0.563 0l0.063-0.5c-0.179-0.005-0.353 0.004-0.531 0l0.063-0.5c-0.187-0.005-0.375 0.004-0.563 0l0.063-0.5c-0.187-0.005-0.375 0.004-0.563 0l0.063-0.5c-0.187-0.005-0.375 0.004-0.563 0l0.063-0.5c-0.187-0.005-0.375 0.004-0.563 0l0.063-0.5c-0.187-0.005-0.375 0.004-0.563 0l0.063-0.5c-0.187-0.005-0.375 0.004-0.563 0l0.063-0.5c-0.187-0.005-0.375 0.004-0.563 0l0.063-0.5c-0.187-0.005-0.375 0.004-0.563 0l0.063-0.5c-0.187-0.005-0.375 0.004-0.563 0l0.063-0.5c-0.187-0.005-0.375 0.004-0.563 0l0.063-0.5c-0.187-0.005-0.375 0.004-0.563 0l0.063-0.5c-0.187-0.005-0.375 0.004-0.563 0l0.063-0.5c-0.187-0.005-0.375 0.004-0.563 0l0.063-0.5c-0.187-0.005-0.375 0.004-0.563 0l0.063-0.5c-0.187-0.005-0.375 0.004-0.563 0l0.063-0.5c-0.187-0.005-0.375 0.004-0.563 0l0.063-0.5c-0.187-0.005-0.375 0.004-0.563 0l0.063-0.5c-0.187-0.005-0.375 0.004-0.563 0l0.063-0.5c-0.187-0.005-0.375 0.004-0.563 0l0.063-0.5c-0.187-0.005-0.375 0.004-0.563 0l0.063-0.469c-0.189-0.005-0.373 0.004-0.563 0l0.063-0.5c-0.189-0.005-0.373 0.004-0.563 0l0.063-0.5c-0.189-0.005-0.373 0.004-0.563 0l0.063-0.5c-0.189-0.005-0.373 0.004-0.563 0l0.063-0.5c-0.179-0.005-0.353 0.004-0.531 0l0.063-0.5c-0.187-0.005-0.375 0.004-0.563 0l0.063-0.5c-0.187-0.005-0.375 0.004-0.563 0l0.063-0.5c-0.187-0.005-0.375 0.004-0.563 0l0.063-0.5c-0.187-0.005-0.375 0.004-0.563 0l0.063-0.5c-0.187-0.005-0.375 0.004-0.563 0l0.063-0.5c-0.187-0.005-0.375 0.004-0.563 0l0.063-0.5c-0.187-0.005-0.375 0.004-0.563 0l0.063-0.5c-0.187-0.005-0.375 0.004-0.563 0l0.063-0.5c-0.187-0.005-0.375 0.004-0.563 0l0.063-0.5c-0.187-0.005-0.375 0.004-0.563 0l0.063-0.5c-0.187-0.005-0.375 0.004-0.563 0l0.063-0.5c-0.187-0.005-0.375 0.004-0.563 0l0.063-0.5c-0.187-0.005-0.375 0.004-0.563 0l0.063-0.5c-0.187-0.005-0.375 0.004-0.563 0l0.063-0.5c-0.187-0.005-0.375 0.004-0.563 0l0.063-0.5c-0.187-0.005-0.375 0.004-0.563 0l0.063-0.5c-0.187-0.005-0.375 0.004-0.563 0l0.063-0.5c-0.187-0.005-0.375 0.004-0.563 0l0.063-0.5c-0.187-0.005-0.375 0.004-0.563 0l0.063-0.5c-0.187-0.005-0.375 0.004-0.563 0l0.063-0.469c-0.189-0.005-0.373 0.004-0.563 0l0.063-0.5c-0.189-0.005-0.373 0.004-0.563 0l0.063-0.5c-0.189-0.005-0.373 0.004-0.563 0l0.063-0.5c-0.189-0.005-0.373 0.004-0.563 0l0.063-0.5c-0.179-0.005-0.353 0.004-0.531 0l0.063-0.5c-0.187-0.005-0.375 0.004-0.563 0l0.063-0.5c-0.187-0.005-0.375 0.004-0.563 0l0.063-0.5c-0.187-0.005-0.375 0.004-0.563 0l0.063-0.5c-0.187-0.005-0.375 0.004-0.563 0l0.063-0.5c-0.187-0.005-0.375 0.004-0.563 0l0.063-0.5c-0.187-0.005-0.375 0.004-0.563 0l0.063-0.5c-0.187-0.005-0.375 0.004-0.563 0l0.063-0.5c-0.187-0.005-0.375 0.004-0.563 0l0.063-0.5c-0.187-0.005-0.375 0.004-0.563 0l0.063-0.5c-0.187-0.005-0.375 0.004-0.563 0l0.063-0.5c-0.187-0.005-0.375 0.004-0.563 0l0.063-0.5c-0.187-0.005-0.375 0.004-0.563 0l0.063-0.5c-0.187-0.005-0.375 0.004-0.563 0l0.063-0.5c-0.187-0.005-0.375 0.004-0.563 0l0.063-0.5c-0.187-0.005-0.375 0.004-0.563 0l0.063-0.5c-0.187-0.005-0.375 0.004-0.563 0l0.063-0.5c-0.187-0.005-0.375 0.004-0.563 0l0.063-0.5c-0.187-0.005-0.375 0.004-0.563 0l0.063-0.5c-0.187-0.005-0.375 0.004-0.563 0l0.063-0.5c-0.187-0.005-0.375 0.004-0.563 0l0.063-0.469c-0.189-0.005-0.373 0.004-0.563 0l0.063-0.5c-0.189-0.005-0.373 0.004-0.563 0l0.063-0.5c-0.189-0.005-0.373 0.004-0.563 0l0.063-0.5c-0.189-0.005-0.373 0.004-0.563 0l0.063-0.5c-0.179-0.005-0.353 0.004-0.531 0l0.063-0.5c-0.187-0.005-0.375 0.004-0.563 0l0.063-0.5c-0.187-0.005-0.375 0.004-0.563 0l0.063-0.5c-0.187-0.005-0.375 0.004-0.563 0l0.063-0.5c-0.187-0.005-0.375 0.004-0.563 0l0.063-0.5c-0.187-0.005-0.375 0.004-0.563 0l0.063-0.5c-0.187-0.005-0.375 0.004-0.563 0l0.063-0.5c-0.187-0.005-0.375 0.004-0.563 0l0.063-0.5c-0.187-0.005-0.375 0.004-0.563 0l0.063-0.5c-1.852-0.048-3.717-0.052-5.563-0.031"/>
  <path id="path10" fill-opacity=".067" d="m256 1c-140.83 0-255 114.17-255 255s114.17 255 255 255 255-114.17 255-255-114.17-255-255-255m8.827 44.931c120.9 0 218.9 98 218.9 218.9s-98 218.9-218.9 218.9-218.93-98-218.93-218.9 98.03-218.9 218.93-218.9"/>
  <g id="g12" fill-opacity=".129">
   <path id="path14" d="m256 4.433c-138.94 0-251.57 112.63-251.57 251.57s112.63 251.57 251.57 251.57 251.57-112.63 251.57-251.57-112.63-251.57-251.57-251.57m5.885 38.556c120.9 0 218.9 98 218.9 218.9s-98 218.9-218.9 218.9-218.93-98-218.93-218.9 98.03-218.9 218.93-218.9"/>
   <path id="path16" d="m256 8.356c-136.77 0-247.64 110.87-247.64 247.64s110.87 247.64 247.64 247.64 247.64-110.87 247.64-247.64-110.87-247.64-247.64-247.64m2.942 31.691c120.9 0 218.9 98 218.9 218.9s-98 218.9-218.9 218.9-218.93-98-218.93-218.9 98.03-218.9 218.93-218.9"/>
  </g>
  <path id="path18" d="m253.04 7.859c-135.42 0-245.19 109.78-245.19 245.19 0 135.42 109.78 245.19 245.19 245.19 135.42 0 245.19-109.78 245.19-245.19 0-135.42-109.78-245.19-245.19-245.19zm0 26.297c120.9 0 218.9 98 218.9 218.9s-98 218.9-218.9 218.9-218.93-98-218.93-218.9 98.03-218.9 218.93-218.9z" stroke-opacity=".31" stroke="#000" stroke-width="4.904" fill="#fff"/>
 </g>
 <text id="text20" style="word-spacing:0;letter-spacing:0" font-size="129.23px" line-height="125%" y="231.36" x="729.64001" font-family="Gentium Book Basic">
  <tspan id="tspan22" y="231.36" x="729.64001"/>
 </text>
 <text id="text24" style="text-anchor:middle" font-size="46.954px" transform="scale(4.0128 .2492)" y="579.25" x="378.91" font-family="Arial"/>
 <text id="text26" style="word-spacing:0;letter-spacing:0" font-size="129.23px" line-height="125%" y="151.36" x="1310.91" font-family="Gentium Book Basic">
  <tspan id="tspan28" y="151.36" x="1310.91"/>
 </text>
 <text id="text30" style="text-anchor:middle" font-size="46.954px" transform="scale(4.0128 .2492)" y="258.22" x="523.76001" font-family="Arial"/>
 <text id="text32" style="word-spacing:0;letter-spacing:0" font-size="129.23px" line-height="125%" y="-29.900999" x="239.33" font-family="Gentium Book Basic">
  <tspan id="tspan34" y="-29.900999" x="239.33"/>
 </text>
 <text id="text36" style="text-anchor:middle" font-size="46.954px" transform="scale(4.0128 .2492)" y="-469.14001" x="256.72" font-family="Arial"/>
 <text id="text38" style="word-spacing:0;letter-spacing:0" font-size="129.23px" line-height="125%" y="-246.37" x="1337.38" font-family="Gentium Book Basic">
  <tspan id="tspan40" y="-246.37" x="1337.38"/>
 </text>
 <text id="text42" style="text-anchor:middle" font-size="46.954px" transform="scale(4.0128 .2492)" y="-1337.8101" x="530.35999" font-family="Arial"/>
 <text id="text44" style="word-spacing:0;letter-spacing:0" font-size="129.23px" line-height="125%" y="-326.38" x="1918.65" font-family="Gentium Book Basic">
  <tspan id="tspan46" y="-326.38" x="1918.65"/>
 </text>
 <text id="text48" style="text-anchor:middle" font-size="46.954px" transform="scale(4.0128 .2492)" y="-1658.85" x="675.21002" font-family="Arial"/>
 <text id="text50" style="word-spacing:0;letter-spacing:0" font-size="129.23px" line-height="125%" y="-798.78003" x="1529.53" font-family="Gentium Book Basic">
  <tspan id="tspan52" y="-798.78003" x="1529.53"/>
 </text>
 <text id="text54" style="text-anchor:middle" font-size="46.954px" transform="scale(4.0128 .2492)" y="-3554.51" x="578.23999" font-family="Arial"/>
 <text id="text56" style="word-spacing:0;letter-spacing:0" font-size="129.23px" line-height="125%" y="-878.78003" x="2110.79" font-family="Gentium Book Basic">
  <tspan id="tspan58" y="-878.78003" x="2110.79"/>
 </text>
 <text id="text60" style="text-anchor:middle" font-size="46.954px" transform="scale(4.0128 .2492)" y="-3875.54" x="723.09003" font-family="Arial"/>
 <text id="text62" style="word-spacing:0;letter-spacing:0" font-size="208.33px" line-height="125%" y="535.94" x="277.98999" font-family="Gentium Book Basic">
  <tspan id="tspan64" y="535.94" x="277.98999"/>
 </text>
 <path id="path66" d="m259.8 263.66c-2.153-9.39 9.128-14.83 16.809-13.826 15.01 1.966 22.13 18.8 18.677 32.29-5.257 20.513-28.55 29.746-47.647 23.601-25.946-8.35-37.32-38.458-28.434-63.19 11.325-31.499 48.24-45.08 78.48-33.377 36.939 14.3 52.694 58.22 38.19 94.08-17.197 42.531-67.971 60.52-109.32 43.15-47.96-20.15-68.12-78-47.946-124.98 23.01-53.58 87.73-75.994 140.16-52.925 58.992 25.955 83.56 97.8 57.692 155.88-28.785 64.65-107.48 91.49-170.98 62.709-70.03-31.753-99.04-117.61-67.46-186.78 24.764-54.24 81.38-88.37 140.63-86.83" fill-rule="evenodd" fill="#fff"/>
</svg>
