<?xml version="1.0" encoding="UTF-8" standalone="no"?>
<svg
   xmlns:dc="http://purl.org/dc/elements/1.1/"
   xmlns:cc="http://creativecommons.org/ns#"
   xmlns:rdf="http://www.w3.org/1999/02/22-rdf-syntax-ns#"
   xmlns:svg="http://www.w3.org/2000/svg"
   xmlns="http://www.w3.org/2000/svg"
   xmlns:sodipodi="http://sodipodi.sourceforge.net/DTD/sodipodi-0.dtd"
   xmlns:inkscape="http://www.inkscape.org/namespaces/inkscape"
   id="svg2"
   version="1.1"
   viewBox="0 0 512 512"
   inkscape:version="0.91+devel r13804 custom"
   sodipodi:docname="gnotski.svg">
  <defs
     id="defs2664" />
  <sodipodi:namedview
     pagecolor="#ffffff"
     bordercolor="#666666"
     borderopacity="1"
     objecttolerance="10"
     gridtolerance="10"
     guidetolerance="10"
     inkscape:pageopacity="0"
     inkscape:pageshadow="2"
     inkscape:window-width="1366"
     inkscape:window-height="709"
     id="namedview2662"
     showgrid="false"
     inkscape:zoom="0.4609375"
     inkscape:cx="-8.6779661"
     inkscape:cy="237.55932"
     inkscape:window-x="-2"
     inkscape:window-y="-3"
     inkscape:window-maximized="1"
     inkscape:current-layer="svg2" />
  <metadata
     id="metadata5324">
    <rdf:RDF>
      <cc:Work
         rdf:about="">
        <dc:format>image/svg+xml</dc:format>
        <dc:type
           rdf:resource="http://purl.org/dc/dcmitype/StillImage" />
      </cc:Work>
    </rdf:RDF>
  </metadata>
  <path
     inkscape:connector-curvature="0"
     style="fill:#f1df4c;fill-rule:evenodd"
     id="path5250"
     d="m 471.95,253.05 c 0,120.9 -98.01,218.91 -218.91,218.91 -120.9,0 -218.91,-98.01 -218.91,-218.91 0,-120.9 98.01,-218.91 218.91,-218.91 120.9,0 218.91,98.01 218.91,218.91" />
  <g
     style="fill:#0078ad"
     id="g5252">
    <path
       inkscape:connector-curvature="0"
       id="path5254"
       d="m 255.5,255.5 0,216.44 C 374.45,470.625 470.6,374.45 471.91,255.5 l -216.41,0" />
    <path
       inkscape:connector-curvature="0"
       id="path5256"
       d="m 253.03,34.16 c -120.9,0 -218.91,98.01 -218.91,218.91 0,1.154 0.013,2.287 0.031,3.438 l 222.34,0 0,-222.31 c -1.154,-0.018 -2.31,-0.031 -3.469,-0.031" />
  </g>
  <g
     style="fill-rule:evenodd"
     id="g5258">
    <path
       style="fill-opacity:0.06700003"
       inkscape:connector-curvature="0"
       id="path5260"
       d="M 256,1 C 115.17,1 1,115.17 1,256 1,396.83 115.17,511 256,511 396.83,511 511,396.83 511,256 511,115.17 396.83,1 256,1 m 8.827,44.931 c 120.9,0 218.9,98 218.9,218.9 0,120.9 -98,218.9 -218.9,218.9 -120.9,0 -218.93,-98 -218.93,-218.9 0,-120.9 98.03,-218.9 218.93,-218.9" />
    <g
       style="fill-opacity:0.12900002"
       id="g5262">
      <path
         inkscape:connector-curvature="0"
         id="path5264"
         d="M 256,4.43 C 117.06,4.43 4.43,117.06 4.43,256 4.43,394.94 117.06,507.57 256,507.57 394.94,507.57 507.57,394.94 507.57,256 507.57,117.06 394.94,4.43 256,4.43 m 5.885,38.556 c 120.9,0 218.9,98 218.9,218.9 0,120.9 -98,218.9 -218.9,218.9 -120.9,0 -218.93,-98 -218.93,-218.9 0,-120.9 98.03,-218.9 218.93,-218.9" />
      <path
         inkscape:connector-curvature="0"
         id="path5266"
         d="M 256,8.36 C 119.23,8.36 8.36,119.23 8.36,256 8.36,392.77 119.23,503.64 256,503.64 392.77,503.64 503.64,392.77 503.64,256 503.64,119.23 392.77,8.36 256,8.36 m 2.942,31.691 c 120.9,0 218.9,98 218.9,218.9 0,120.9 -98,218.9 -218.9,218.9 -120.9,0 -218.93,-98 -218.93,-218.9 0,-120.9 98.03,-218.9 218.93,-218.9" />
    </g>
    <path
       style="fill:#ffffff;stroke:#000000;stroke-width:4.90399981;stroke-opacity:0.31000001"
       inkscape:connector-curvature="0"
       id="path5268"
       d="M 253.04,7.86 C 117.62,7.86 7.85,117.64 7.85,253.05 c 0,135.42 109.78,245.19 245.19,245.19 135.42,0 245.19,-109.78 245.19,-245.19 C 498.23,117.63 388.45,7.86 253.04,7.86 m 0,26.297 c 120.9,0 218.9,98 218.9,218.9 0,120.9 -98,218.9 -218.9,218.9 -120.9,0 -218.93,-98 -218.93,-218.9 0,-120.9 98.03,-218.9 218.93,-218.9 z" />
  </g>
  <path
     inkscape:connector-curvature="0"
     style="opacity:0.25"
     id="path5316"
     d="m 256.12,131.35 0,73.06 -36.408,-36.408 c -3.746,-3.746 -8.925,-6.06 -14.656,-6.06 l -21.436,0 c -11.463,0 -20.715,9.252 -20.715,20.715 l 0,21.918 c 0,5.732 2.313,10.911 6.06,14.656 l 36.646,36.646 -73.05,0 0,124.77 89.06,89.06 c 10.263,1.475 20.751,2.254 31.422,2.254 120.9,0 218.91,-98.01 218.91,-218.91 0,-10.682 -0.779,-21.18 -2.258,-31.453 l -90.25,-90.25 -123.32,0" />
  <path
     inkscape:connector-curvature="0"
     style="fill:#ffffff"
     id="path5318"
     d="m 256.12,131.35 0,124.53 123.32,0 0,-124.53 -123.32,0 m 0,124.53 -123.56,0 0,124.77 123.56,0 0,-124.77 m -72.5,-93.94 c -11.463,0 -20.714,9.251 -20.714,20.714 l 0,21.919 c 0,11.463 9.251,20.714 20.714,20.714 l 21.437,0 c 11.463,0 20.714,-9.251 20.714,-20.714 l 0,-21.919 c 0,-11.463 -9.251,-20.714 -20.714,-20.714 l -21.437,0 m 123.56,124.53 c -11.463,0 -20.714,9.251 -20.714,20.714 l 0,22.16 c 0,11.463 9.251,20.714 20.714,20.714 l 21.437,0 c 11.463,0 20.714,-9.251 20.714,-20.714 l 0,-22.16 c 0,-11.463 -9.251,-20.714 -20.714,-20.714 l -21.437,0" />
</svg>
