<?xml version="1.0" encoding="UTF-8" standalone="no"?>
<svg xmlns="http://www.w3.org/2000/svg" viewBox="0 0 512 512">
 <text style="word-spacing:0;letter-spacing:0" font-size="129.23" y="231.36" x="729.64" font-family="Gentium Book Basic" line-height="125%">
  <tspan y="231.36" x="729.64"/>
 </text>
 <text style="text-anchor:middle" transform="scale(4.0128.2492)" font-size="46.954" y="579.26" x="378.91" font-family="Arial"/>
 <text style="word-spacing:0;letter-spacing:0" font-size="129.23" y="151.36" x="1310.91" font-family="Gentium Book Basic" line-height="125%">
  <tspan y="151.36" x="1310.91"/>
 </text>
 <text style="text-anchor:middle" transform="scale(4.0128.2492)" font-size="46.954" y="258.22" x="523.76" font-family="Arial"/>
 <text style="word-spacing:0;letter-spacing:0" font-size="129.23" y="-29.9" x="239.33" font-family="Gentium Book Basic" line-height="125%">
  <tspan y="-29.9" x="239.33"/>
 </text>
 <text style="text-anchor:middle" transform="scale(4.0128.2492)" font-size="46.954" y="-469.13" x="256.72" font-family="Arial"/>
 <text style="word-spacing:0;letter-spacing:0" font-size="129.23" y="-246.37" x="1337.38" font-family="Gentium Book Basic" line-height="125%">
  <tspan y="-246.37" x="1337.38"/>
 </text>
 <text style="text-anchor:middle" transform="scale(4.0128.2492)" font-size="46.954" y="-1337.8" x="530.36" font-family="Arial"/>
 <text style="word-spacing:0;letter-spacing:0" font-size="129.23" y="-326.37" x="1918.65" font-family="Gentium Book Basic" line-height="125%">
  <tspan y="-326.37" x="1918.65"/>
 </text>
 <text style="text-anchor:middle" transform="scale(4.0128.2492)" font-size="46.954" y="-1658.83" x="675.21" font-family="Arial"/>
 <text style="word-spacing:0;letter-spacing:0" font-size="129.23" y="-798.77" x="1529.53" font-family="Gentium Book Basic" line-height="125%">
  <tspan y="-798.77" x="1529.53"/>
 </text>
 <text style="text-anchor:middle" transform="scale(4.0128.2492)" font-size="46.954" y="-3554.48" x="578.24" font-family="Arial"/>
 <text style="word-spacing:0;letter-spacing:0" font-size="129.23" y="-878.78" x="2110.79" font-family="Gentium Book Basic" line-height="125%">
  <tspan y="-878.78" x="2110.79"/>
 </text>
 <text style="text-anchor:middle" transform="scale(4.0128.2492)" font-size="46.954" y="-3875.52" x="723.09" font-family="Arial"/>
 <text style="word-spacing:0;letter-spacing:0" font-size="208.33" y="535.94" x="277.99" font-family="Gentium Book Basic" line-height="125%">
  <tspan y="535.94" x="277.99"/>
 </text>
 <g fill-rule="evenodd">
  <path d="m471.95 253.05c0 120.9-98.01 218.91-218.91 218.91s-218.91-98.01-218.91-218.91 98.01-218.91 218.91-218.91 218.91 98.01 218.91 218.91" fill="#3981f0"/>
  <path d="m256 1c-140.83 0-255 114.17-255 255s114.17 255 255 255 255-114.17 255-255-114.17-255-255-255m8.827 44.931c120.9 0 218.9 98 218.9 218.9s-98 218.9-218.9 218.9-218.93-98-218.93-218.9 98.03-218.9 218.93-218.9" fill-opacity=".067"/>
  <g fill-opacity=".129">
   <path d="m256 4.43c-138.94 0-251.57 112.63-251.57 251.57s112.63 251.57 251.57 251.57 251.57-112.63 251.57-251.57-112.63-251.57-251.57-251.57m5.885 38.556c120.9 0 218.9 98 218.9 218.9s-98 218.9-218.9 218.9-218.93-98-218.93-218.9 98.03-218.9 218.93-218.9"/>
   <path d="m256 8.36c-136.77 0-247.64 110.87-247.64 247.64s110.87 247.64 247.64 247.64 247.64-110.87 247.64-247.64-110.87-247.64-247.64-247.64m2.942 31.691c120.9 0 218.9 98 218.9 218.9s-98 218.9-218.9 218.9-218.93-98-218.93-218.9 98.03-218.9 218.93-218.9"/>
  </g>
  <path stroke="#000" stroke-width="4.904" d="m253.04 7.86c-135.42 0-245.19 109.78-245.19 245.19 0 135.42 109.78 245.19 245.19 245.19 135.42 0 245.19-109.78 245.19-245.19 0-135.42-109.78-245.19-245.19-245.19m0 26.297c120.9 0 218.9 98 218.9 218.9s-98 218.9-218.9 218.9-218.93-98-218.93-218.9 98.03-218.9 218.93-218.9z" stroke-opacity=".31" fill="#fff"/>
 </g>
 <text style="word-spacing:0;letter-spacing:0" font-size="129.23" y="231.36" x="729.64" font-family="&apos;Gentium Book Basic&apos;" line-height="125%">
  <tspan y="231.36" x="729.64"/>
 </text>
 <text style="text-anchor:middle" transform="scale(4.0128.2492)" font-size="46.954" y="579.26" x="378.91" font-family="Arial"/>
 <text style="word-spacing:0;letter-spacing:0" font-size="129.23" y="151.36" x="1310.91" font-family="&apos;Gentium Book Basic&apos;" line-height="125%">
  <tspan y="151.36" x="1310.91"/>
 </text>
 <text style="text-anchor:middle" transform="scale(4.0128.2492)" font-size="46.954" y="258.22" x="523.76" font-family="Arial"/>
 <text style="word-spacing:0;letter-spacing:0" font-size="129.23" y="-29.9" x="239.33" font-family="&apos;Gentium Book Basic&apos;" line-height="125%">
  <tspan y="-29.9" x="239.33"/>
 </text>
 <text style="text-anchor:middle" transform="scale(4.0128.2492)" font-size="46.954" y="-469.13" x="256.72" font-family="Arial"/>
 <text style="word-spacing:0;letter-spacing:0" font-size="129.23" y="-246.37" x="1337.38" font-family="&apos;Gentium Book Basic&apos;" line-height="125%">
  <tspan y="-246.37" x="1337.38"/>
 </text>
 <text style="text-anchor:middle" transform="scale(4.0128.2492)" font-size="46.954" y="-1337.8" x="530.36" font-family="Arial"/>
 <text style="word-spacing:0;letter-spacing:0" font-size="129.23" y="-326.37" x="1918.65" font-family="&apos;Gentium Book Basic&apos;" line-height="125%">
  <tspan y="-326.37" x="1918.65"/>
 </text>
 <text style="text-anchor:middle" transform="scale(4.0128.2492)" font-size="46.954" y="-1658.83" x="675.21" font-family="Arial"/>
 <text style="word-spacing:0;letter-spacing:0" font-size="129.23" y="-798.77" x="1529.53" font-family="&apos;Gentium Book Basic&apos;" line-height="125%">
  <tspan y="-798.77" x="1529.53"/>
 </text>
 <text style="text-anchor:middle" transform="scale(4.0128.2492)" font-size="46.954" y="-3554.48" x="578.24" font-family="Arial"/>
 <text style="word-spacing:0;letter-spacing:0" font-size="129.23" y="-878.78" x="2110.79" font-family="&apos;Gentium Book Basic&apos;" line-height="125%">
  <tspan y="-878.78" x="2110.79"/>
 </text>
 <text style="text-anchor:middle" transform="scale(4.0128.2492)" font-size="46.954" y="-3875.52" x="723.09" font-family="Arial"/>
 <text style="word-spacing:0;letter-spacing:0" font-size="208.33" y="535.94" x="277.99" font-family="&apos;Gentium Book Basic&apos;" line-height="125%">
  <tspan y="535.94" x="277.99"/>
 </text>
 <path opacity=".25" d="m121.16 143.32v27.564l38.38 38.38h-38.38v27.564l38.38 38.38h-38.38v27.564l38.38 38.38h-38.38v27.535l101.12 101.12c10.05 1.414 20.322 2.162 30.766 2.162 120.9 0 218.91-98.01 218.91-218.91 0-10.455-0.749-20.733-2.166-30.797l-78.936-78.936h-269.69"/>
 <path d="m121.16 143.32v27.564h269.69v-27.564h-269.69m0 65.941v27.564h269.69v-27.564h-269.69m0 65.941v27.564h269.69v-27.564h-269.69m0 65.941v27.535h183.25v-27.535h-183.25" fill="#fff"/>
</svg>
