<?xml version="1.0" encoding="UTF-8" standalone="no"?>
<!-- Created with Inkscape (http://www.inkscape.org/) -->
<svg id="svg2" xmlns:rdf="http://www.w3.org/1999/02/22-rdf-syntax-ns#" xmlns="http://www.w3.org/2000/svg" height="100%" viewBox="0 0 512 512" width="100%" version="1.1" xmlns:cc="http://creativecommons.org/ns#" xmlns:dc="http://purl.org/dc/elements/1.1/">
 <metadata id="metadata72">
  <rdf:RDF>
   <cc:Work rdf:about="">
    <dc:format>image/svg+xml</dc:format>
    <dc:type rdf:resource="http://purl.org/dc/dcmitype/StillImage"/>
   </cc:Work>
  </rdf:RDF>
 </metadata>
 <path id="path4" d="m471.95 253.05c0 120.9-98.01 218.9-218.9 218.9-120.9 0-218.9-98.01-218.9-218.9 0-120.9 98.01-218.9 218.9-218.9 120.9 0 218.9 98.01 218.9 218.9" fill-rule="evenodd" fill="#d07a27"/>
 <path id="path6" fill-opacity=".235" d="m179.88 115.63c-1.731 0.128-1.541 1.389-0.719 4.5 7.307 42.37 5.903 89.56-18.594 126.06-17.04 22.591-43.26 34.598-58.688 27.969-0.073-0.152-0.147-0.282-0.219-0.438 0.006 0.116 0.025 0.228 0.031 0.344-0.158-0.07-0.313-0.145-0.469-0.219-0.192-0.373-0.38-0.73-0.563-1.125 0.016 0.304 0.045 0.602 0.063 0.906-0.041-0.021-0.084-0.041-0.125-0.063-0.324-0.587-0.638-1.198-0.938-1.844 0.019 0.367 0.041 0.727 0.063 1.094-0.372-0.657-0.723-1.361-1.063-2.094 0.019 0.365 0.041 0.73 0.063 1.094-0.372-0.657-0.723-1.361-1.063-2.094 0.019 0.365 0.072 0.729 0.094 1.094-0.374-0.661-0.752-1.356-1.094-2.094 0.019 0.365 0.072 0.729 0.094 1.094-0.374-0.66-0.721-1.325-1.063-2.063 0.02 0.377 0.04 0.748 0.063 1.125-0.379-0.667-0.717-1.379-1.063-2.125 0.019 0.367 0.041 0.727 0.063 1.094-0.372-0.657-0.723-1.361-1.063-2.094 0.019 0.367 0.041 0.727 0.063 1.094-0.372-0.657-0.723-1.361-1.063-2.094 0.788 14.938 3.561 29.357 8.094 42.969 0.009 0.022 0.022 0.041 0.031 0.063 8.249 19.18 19.975 36.494 34.34 51.22 0.077 0.08 0.142 0.17 0.219 0.25 0.491 0.501 0.971 1 1.469 1.5 0.165 0.167 0.334 0.333 0.5 0.5 0.115 0.114 0.228 0.23 0.344 0.344 0.217 0.22 0.438 0.437 0.656 0.656 0.048 0.046 0.109 0.079 0.156 0.125 0.283 0.289 0.558 0.588 0.844 0.875 0.047 0.046 0.109 0.079 0.156 0.125 0.654 0.666 1.304 1.345 1.969 2 0.28 0.285 0.562 0.56 0.844 0.844 0.186 0.18 0.376 0.352 0.563 0.531 0.061 0.063 0.126 0.124 0.188 0.188 0.041 0.042 0.084 0.083 0.125 0.125 0.047 0.047 0.078 0.109 0.125 0.156 0.047 0.046 0.109 0.079 0.156 0.125 0.061 0.063 0.126 0.124 0.188 0.188 0.222 0.225 0.433 0.463 0.656 0.688 0.047 0.046 0.109 0.079 0.156 0.125 0.061 0.063 0.126 0.124 0.188 0.188 0.222 0.225 0.433 0.463 0.656 0.688 0.047 0.046 0.109 0.079 0.156 0.125 0.283 0.289 0.558 0.588 0.844 0.875 0.047 0.046 0.109 0.079 0.156 0.125 0.647 0.659 1.28 1.321 1.938 1.969 0.037 0.036 0.088 0.058 0.125 0.094 0.072 0.074 0.147 0.145 0.219 0.219 0.132 0.138 0.274 0.269 0.406 0.406 0.047 0.047 0.078 0.109 0.125 0.156 0.048 0.046 0.108 0.079 0.156 0.125 0.061 0.063 0.126 0.124 0.188 0.188 0.222 0.225 0.433 0.463 0.656 0.688 0.047 0.046 0.109 0.079 0.156 0.125 0.061 0.063 0.126 0.124 0.188 0.188 0.222 0.225 0.433 0.463 0.656 0.688 0.047 0.046 0.109 0.079 0.156 0.125 0.283 0.289 0.558 0.588 0.844 0.875 0.047 0.046 0.109 0.079 0.156 0.125 0.647 0.659 1.28 1.321 1.938 1.969 0.037 0.036 0.088 0.058 0.125 0.094 0.072 0.074 0.147 0.145 0.219 0.219 0.132 0.138 0.274 0.269 0.406 0.406 0.047 0.047 0.078 0.109 0.125 0.156 0.048 0.046 0.108 0.079 0.156 0.125 0.061 0.063 0.126 0.124 0.188 0.188 0.222 0.225 0.433 0.463 0.656 0.688 0.047 0.046 0.109 0.079 0.156 0.125 0.061 0.063 0.126 0.124 0.188 0.188 0.222 0.225 0.433 0.463 0.656 0.688 0.047 0.046 0.109 0.079 0.156 0.125 0.283 0.289 0.558 0.588 0.844 0.875 0.047 0.046 0.109 0.079 0.156 0.125 0.647 0.659 1.28 1.321 1.938 1.969 0.032 0.031 0.062 0.063 0.094 0.094 0.143 0.14 0.294 0.266 0.438 0.406 0.051 0.053 0.105 0.104 0.156 0.156 0.02 0.021 0.042 0.041 0.063 0.063 0.047 0.047 0.078 0.109 0.125 0.156 0.048 0.047 0.108 0.079 0.156 0.125 0.061 0.063 0.126 0.124 0.188 0.188 0.222 0.225 0.433 0.463 0.656 0.688 0.047 0.046 0.109 0.079 0.156 0.125 0.061 0.063 0.126 0.124 0.188 0.188 0.222 0.225 0.433 0.463 0.656 0.688 0.047 0.046 0.109 0.079 0.156 0.125 0.061 0.063 0.126 0.124 0.188 0.188 0.222 0.225 0.433 0.463 0.656 0.688 0.047 0.046 0.109 0.079 0.156 0.125 0.283 0.289 0.558 0.588 0.844 0.875 0.047 0.046 0.109 0.079 0.156 0.125 0.275 0.28 0.535 0.566 0.813 0.844 0.058 0.056 0.129 0.1 0.188 0.156 0.208 0.208 0.416 0.418 0.625 0.625 0.02 0.021 0.042 0.041 0.063 0.063 0.01 0.011 0.021 0.021 0.031 0.031 0.078 0.079 0.14 0.171 0.219 0.25 0.144 0.139 0.293 0.268 0.438 0.406 0.061 0.063 0.126 0.124 0.188 0.188 0.041 0.042 0.084 0.083 0.125 0.125 0.047 0.047 0.078 0.109 0.125 0.156 0.047 0.046 0.109 0.079 0.156 0.125 0.061 0.063 0.126 0.124 0.188 0.188 0.222 0.225 0.433 0.463 0.656 0.688 0.047 0.046 0.109 0.079 0.156 0.125 0.061 0.063 0.126 0.124 0.188 0.188 0.222 0.225 0.433 0.463 0.656 0.688 0.047 0.046 0.109 0.079 0.156 0.125 0.283 0.289 0.558 0.588 0.844 0.875 0.047 0.046 0.109 0.079 0.156 0.125 0.647 0.659 1.28 1.321 1.938 1.969 0.037 0.036 0.088 0.058 0.125 0.094 0.072 0.074 0.147 0.145 0.219 0.219 0.132 0.138 0.274 0.269 0.406 0.406 0.047 0.047 0.078 0.109 0.125 0.156 0.048 0.046 0.108 0.079 0.156 0.125 0.061 0.063 0.126 0.124 0.188 0.188 0.222 0.225 0.433 0.463 0.656 0.688 0.047 0.046 0.109 0.079 0.156 0.125 0.061 0.063 0.126 0.124 0.188 0.188 0.222 0.225 0.433 0.463 0.656 0.688 0.047 0.046 0.109 0.079 0.156 0.125 0.283 0.289 0.558 0.588 0.844 0.875 0.047 0.046 0.109 0.079 0.156 0.125 0.647 0.659 1.28 1.321 1.938 1.969 0.037 0.036 0.088 0.058 0.125 0.094 0.072 0.074 0.147 0.145 0.219 0.219 0.133 0.139 0.273 0.268 0.406 0.406 0.047 0.047 0.078 0.109 0.125 0.156 0.048 0.046 0.108 0.079 0.156 0.125 0.061 0.063 0.126 0.124 0.188 0.188 0.222 0.225 0.433 0.463 0.656 0.688 0.047 0.046 0.109 0.079 0.156 0.125 0.061 0.063 0.126 0.124 0.188 0.188 0.222 0.225 0.433 0.463 0.656 0.688 0.047 0.046 0.109 0.079 0.156 0.125 0.283 0.289 0.558 0.588 0.844 0.875 0.047 0.046 0.109 0.079 0.156 0.125 0.654 0.666 1.304 1.345 1.969 2 0.28 0.285 0.562 0.56 0.844 0.844 0.186 0.18 0.376 0.352 0.563 0.531 0.061 0.063 0.126 0.124 0.188 0.188 0.041 0.042 0.084 0.083 0.125 0.125 0.047 0.047 0.078 0.109 0.125 0.156 0.047 0.046 0.109 0.079 0.156 0.125 0.061 0.063 0.126 0.124 0.188 0.188 0.222 0.225 0.433 0.463 0.656 0.688 0.047 0.046 0.109 0.079 0.156 0.125 0.061 0.063 0.126 0.124 0.188 0.188 0.222 0.225 0.433 0.463 0.656 0.688 0.047 0.046 0.109 0.079 0.156 0.125 0.283 0.289 0.558 0.588 0.844 0.875 0.047 0.046 0.109 0.079 0.156 0.125 0.275 0.28 0.535 0.566 0.813 0.844 0.058 0.056 0.129 0.1 0.188 0.156 0.208 0.208 0.416 0.418 0.625 0.625 0.02 0.021 0.042 0.041 0.063 0.063 0.01 0.011 0.021 0.021 0.031 0.031 0.078 0.079 0.14 0.171 0.219 0.25 0.144 0.139 0.293 0.268 0.438 0.406 0.061 0.063 0.126 0.124 0.188 0.188 0.041 0.042 0.084 0.083 0.125 0.125 0.047 0.047 0.078 0.109 0.125 0.156 0.047 0.046 0.109 0.079 0.156 0.125 0.061 0.063 0.126 0.124 0.188 0.188 0.222 0.225 0.433 0.463 0.656 0.688 0.047 0.046 0.109 0.079 0.156 0.125 0.061 0.063 0.126 0.124 0.188 0.188 0.222 0.225 0.433 0.463 0.656 0.688 0.047 0.046 0.109 0.079 0.156 0.125 0.283 0.289 0.558 0.588 0.844 0.875 0.047 0.046 0.109 0.079 0.156 0.125 0.647 0.659 1.28 1.321 1.938 1.969 0.037 0.036 0.088 0.058 0.125 0.094 0.072 0.074 0.147 0.145 0.219 0.219 0.132 0.138 0.274 0.269 0.406 0.406 0.047 0.047 0.078 0.109 0.125 0.156 0.048 0.046 0.108 0.079 0.156 0.125 0.061 0.063 0.126 0.124 0.188 0.188 0.222 0.225 0.433 0.463 0.656 0.688 0.047 0.046 0.109 0.079 0.156 0.125 0.061 0.063 0.126 0.124 0.188 0.188 0.222 0.225 0.433 0.463 0.656 0.688 0.047 0.046 0.109 0.079 0.156 0.125 0.283 0.289 0.558 0.588 0.844 0.875 0.047 0.046 0.109 0.079 0.156 0.125 0.647 0.659 1.28 1.321 1.938 1.969 0.032 0.031 0.062 0.063 0.094 0.094 0.143 0.14 0.294 0.266 0.438 0.406 0.051 0.053 0.105 0.104 0.156 0.156 0.02 0.021 0.042 0.041 0.063 0.063 0.047 0.047 0.078 0.109 0.125 0.156 0.048 0.047 0.108 0.079 0.156 0.125 0.061 0.063 0.126 0.124 0.188 0.188 0.222 0.225 0.433 0.463 0.656 0.688 0.047 0.046 0.109 0.079 0.156 0.125 0.061 0.063 0.126 0.124 0.188 0.188 0.222 0.225 0.433 0.463 0.656 0.688 0.047 0.046 0.109 0.079 0.156 0.125 0.061 0.063 0.126 0.124 0.188 0.188 0.222 0.225 0.433 0.463 0.656 0.688 0.047 0.046 0.109 0.079 0.156 0.125 0.283 0.289 0.558 0.588 0.844 0.875 0.047 0.046 0.109 0.079 0.156 0.125 0.275 0.28 0.535 0.566 0.813 0.844 0.058 0.056 0.129 0.1 0.188 0.156 0.208 0.208 0.416 0.418 0.625 0.625 0.02 0.021 0.042 0.041 0.063 0.063 0.01 0.011 0.021 0.021 0.031 0.031 0.078 0.079 0.14 0.171 0.219 0.25 0.144 0.139 0.293 0.268 0.438 0.406 0.061 0.063 0.126 0.124 0.188 0.188 0.041 0.042 0.084 0.083 0.125 0.125 0.047 0.047 0.078 0.109 0.125 0.156 0.047 0.046 0.109 0.079 0.156 0.125 0.061 0.063 0.126 0.124 0.188 0.188 0.222 0.225 0.433 0.463 0.656 0.688 0.047 0.046 0.109 0.079 0.156 0.125 0.061 0.063 0.126 0.124 0.188 0.188 0.222 0.225 0.433 0.463 0.656 0.688 0.047 0.046 0.109 0.079 0.156 0.125 0.283 0.289 0.558 0.588 0.844 0.875 0.047 0.046 0.109 0.079 0.156 0.125 0.647 0.659 1.28 1.321 1.938 1.969 0.037 0.036 0.088 0.058 0.125 0.094 0.072 0.074 0.147 0.145 0.219 0.219 0.132 0.138 0.274 0.269 0.406 0.406 0.047 0.047 0.078 0.109 0.125 0.156 0.048 0.046 0.108 0.079 0.156 0.125 0.061 0.063 0.126 0.124 0.188 0.188 0.222 0.225 0.433 0.463 0.656 0.688 0.047 0.046 0.109 0.079 0.156 0.125 0.061 0.063 0.126 0.124 0.188 0.188 0.222 0.225 0.433 0.463 0.656 0.688 0.047 0.046 0.109 0.079 0.156 0.125 0.283 0.289 0.558 0.588 0.844 0.875 0.047 0.046 0.109 0.079 0.156 0.125 0.647 0.659 1.28 1.321 1.938 1.969 0.037 0.036 0.088 0.058 0.125 0.094 0.072 0.074 0.147 0.145 0.219 0.219 0.133 0.139 0.273 0.268 0.406 0.406 0.047 0.047 0.078 0.109 0.125 0.156 0.048 0.046 0.108 0.079 0.156 0.125 0.061 0.063 0.126 0.124 0.188 0.188 0.222 0.225 0.433 0.463 0.656 0.688 0.047 0.046 0.109 0.079 0.156 0.125 0.061 0.063 0.126 0.124 0.188 0.188 0.222 0.225 0.433 0.463 0.656 0.688 0.047 0.046 0.109 0.079 0.156 0.125 0.283 0.289 0.558 0.588 0.844 0.875 0.047 0.046 0.109 0.079 0.156 0.125 0.654 0.666 1.304 1.345 1.969 2 0.28 0.285 0.562 0.56 0.844 0.844 0.186 0.18 0.376 0.352 0.563 0.531 0.061 0.063 0.126 0.124 0.188 0.188 0.041 0.042 0.084 0.083 0.125 0.125 0.047 0.047 0.078 0.109 0.125 0.156 0.047 0.046 0.109 0.079 0.156 0.125 0.061 0.063 0.126 0.124 0.188 0.188 0.222 0.225 0.433 0.463 0.656 0.688 0.047 0.046 0.109 0.079 0.156 0.125 0.061 0.063 0.126 0.124 0.188 0.188 0.222 0.225 0.433 0.463 0.656 0.688 0.047 0.046 0.109 0.079 0.156 0.125 0.283 0.289 0.558 0.588 0.844 0.875 0.047 0.046 0.109 0.079 0.156 0.125 0.275 0.28 0.535 0.566 0.813 0.844 0.058 0.056 0.129 0.1 0.188 0.156 0.208 0.208 0.416 0.418 0.625 0.625 0.02 0.021 0.042 0.041 0.063 0.063 0.01 0.011 0.021 0.021 0.031 0.031 0.078 0.079 0.14 0.171 0.219 0.25 0.144 0.139 0.293 0.268 0.438 0.406 0.061 0.063 0.126 0.124 0.188 0.188 0.041 0.042 0.084 0.083 0.125 0.125 0.047 0.047 0.078 0.109 0.125 0.156 0.047 0.046 0.109 0.079 0.156 0.125 0.061 0.063 0.126 0.124 0.188 0.188 0.222 0.225 0.433 0.463 0.656 0.688 0.047 0.046 0.109 0.079 0.156 0.125 0.061 0.063 0.126 0.124 0.188 0.188 0.222 0.225 0.433 0.463 0.656 0.688 0.047 0.046 0.109 0.079 0.156 0.125 0.283 0.289 0.558 0.588 0.844 0.875 0.047 0.046 0.109 0.079 0.156 0.125 0.647 0.659 1.28 1.321 1.938 1.969 0.037 0.036 0.088 0.058 0.125 0.094 0.072 0.074 0.147 0.145 0.219 0.219 0.132 0.138 0.274 0.269 0.406 0.406 0.047 0.047 0.078 0.109 0.125 0.156 0.048 0.046 0.108 0.079 0.156 0.125 0.061 0.063 0.126 0.124 0.188 0.188 0.222 0.225 0.433 0.463 0.656 0.688 0.047 0.046 0.109 0.079 0.156 0.125 0.061 0.063 0.126 0.124 0.188 0.188 0.222 0.225 0.433 0.463 0.656 0.688 0.047 0.046 0.109 0.079 0.156 0.125 0.283 0.289 0.558 0.588 0.844 0.875 0.047 0.046 0.109 0.079 0.156 0.125 0.647 0.659 1.28 1.321 1.938 1.969l0.063 0.063c1.691 0.039 3.362 0.094 5.063 0.094 98.64 0 182.04-65.25 209.41-154.94 0.055-0.509 0.107-1.018 0.156-1.531-0.396 0.512-0.856 1.109-1.281 1.656 0.098-0.88 0.197-1.772 0.281-2.656-0.391 0.506-0.862 1.084-1.281 1.625 0.097-0.871 0.198-1.75 0.281-2.625-0.39 0.504-0.864 1.087-1.281 1.625 0.097-0.871 0.198-1.75 0.281-2.625-0.386 0.499-0.837 1.092-1.25 1.625 0.097-0.866 0.198-1.724 0.281-2.594-0.396 0.512-0.856 1.109-1.281 1.656 0.099-0.886 0.196-1.766 0.281-2.656-0.396 0.512-0.856 1.109-1.281 1.656 0.099-0.886 0.196-1.766 0.281-2.656-0.396 0.512-0.856 1.109-1.281 1.656 0.099-0.886 0.196-1.766 0.281-2.656-0.396 0.512-0.856 1.109-1.281 1.656 0.098-0.88 0.197-1.772 0.281-2.656-0.39 0.504-0.864 1.087-1.281 1.625 0.097-0.871 0.198-1.75 0.281-2.625-0.386 0.499-0.837 1.092-1.25 1.625 0.097-0.866 0.198-1.724 0.281-2.594-0.396 0.512-0.856 1.109-1.281 1.656 0.099-0.886 0.196-1.766 0.281-2.656-0.396 0.512-0.856 1.109-1.281 1.656 0.099-0.886 0.196-1.766 0.281-2.656-0.396 0.512-0.856 1.109-1.281 1.656 0.099-0.886 0.196-1.766 0.281-2.656-0.396 0.512-0.856 1.109-1.281 1.656 0.098-0.88 0.197-1.772 0.281-2.656-0.391 0.506-0.862 1.084-1.281 1.625 0.097-0.871 0.198-1.75 0.281-2.625-0.386 0.499-0.837 1.092-1.25 1.625 0.097-0.866 0.198-1.724 0.281-2.594-0.396 0.512-0.856 1.109-1.281 1.656 0.099-0.886 0.196-1.766 0.281-2.656-0.396 0.512-0.856 1.109-1.281 1.656 0.099-0.886 0.196-1.766 0.281-2.656-0.396 0.512-0.856 1.109-1.281 1.656 0.099-0.886 0.196-1.766 0.281-2.656-0.396 0.512-0.856 1.109-1.281 1.656 0.098-0.88 0.197-1.772 0.281-2.656-0.391 0.506-0.862 1.084-1.281 1.625 0.097-0.871 0.198-1.75 0.281-2.625-0.39 0.504-0.864 1.087-1.281 1.625 0.097-0.867 0.198-1.723 0.281-2.594-0.383 0.496-0.84 1.065-1.25 1.594 0.097-0.866 0.198-1.724 0.281-2.594-0.396 0.512-0.856 1.109-1.281 1.656 0.099-0.886 0.196-1.766 0.281-2.656-0.396 0.512-0.856 1.109-1.281 1.656 0.099-0.886 0.196-1.766 0.281-2.656-0.396 0.512-0.856 1.109-1.281 1.656 0.099-0.886 0.196-1.766 0.281-2.656-0.391 0.506-0.862 1.084-1.281 1.625 0.097-0.871 0.198-1.75 0.281-2.625-0.39 0.504-0.864 1.087-1.281 1.625 0.097-0.871 0.198-1.75 0.281-2.625-0.386 0.499-0.837 1.092-1.25 1.625 0.097-0.866 0.198-1.724 0.281-2.594-0.396 0.512-0.856 1.109-1.281 1.656 0.099-0.886 0.196-1.766 0.281-2.656-0.396 0.512-0.856 1.109-1.281 1.656 0.099-0.886 0.196-1.766 0.281-2.656-0.396 0.512-0.856 1.109-1.281 1.656 0.099-0.886 0.196-1.766 0.281-2.656-0.396 0.512-0.856 1.109-1.281 1.656 0.098-0.88 0.197-1.772 0.281-2.656-0.391 0.506-0.862 1.084-1.281 1.625 0.097-0.871 0.198-1.75 0.281-2.625-0.386 0.499-0.837 1.092-1.25 1.625 0.097-0.866 0.198-1.724 0.281-2.594-0.396 0.512-0.856 1.109-1.281 1.656 0.099-0.886 0.196-1.766 0.281-2.656-0.396 0.512-0.856 1.109-1.281 1.656 0.099-0.886 0.196-1.766 0.281-2.656-0.396 0.512-0.856 1.109-1.281 1.656 0.099-0.886 0.196-1.766 0.281-2.656-0.396 0.512-0.856 1.109-1.281 1.656 0.098-0.88 0.197-1.772 0.281-2.656-0.391 0.506-0.862 1.084-1.281 1.625 0.097-0.871 0.198-1.75 0.281-2.625-0.386 0.499-0.837 1.092-1.25 1.625 0.097-0.866 0.198-1.724 0.281-2.594-0.39 0.505-0.863 1.086-1.281 1.625 0.098-0.876 0.197-1.745 0.281-2.625-0.396 0.512-0.856 1.109-1.281 1.656 0.099-0.886 0.196-1.766 0.281-2.656-0.396 0.512-0.856 1.109-1.281 1.656 0.099-0.886 0.196-1.766 0.281-2.656-4.02 5.208-9.666 12.629-14.406 14.188-3.866 1.499-8.152 1.585-12.688 0.625-0.005-0.005-0.026 0.005-0.031 0-0.063-0.062-0.124-0.126-0.188-0.188l-0.063-0.063c-0.058-0.057-0.098-0.131-0.156-0.188-0.257-0.254-0.523-0.497-0.781-0.75-0.072-0.074-0.147-0.145-0.219-0.219l-0.063-0.063c-0.242-0.238-0.476-0.482-0.719-0.719-0.072-0.074-0.147-0.145-0.219-0.219-0.261-0.258-0.519-0.524-0.781-0.781-0.067-0.069-0.12-0.15-0.188-0.219-0.267-0.264-0.545-0.518-0.813-0.781-0.01-0.011-0.021-0.021-0.031-0.031-0.042-0.041-0.083-0.084-0.125-0.125-0.016-0.016-0.016-0.047-0.031-0.063-0.163-0.161-0.337-0.308-0.5-0.469-0.037-0.037-0.057-0.088-0.094-0.125-0.053-0.052-0.104-0.105-0.156-0.156l-0.031-0.031c-0.072-0.073-0.147-0.145-0.219-0.219-0.005-0.005-0.026 0.005-0.031 0-0.01-0.011-0.021-0.021-0.031-0.031-0.242-0.238-0.476-0.482-0.719-0.719l-0.063-0.063c-0.058-0.057-0.098-0.131-0.156-0.188-0.257-0.254-0.523-0.497-0.781-0.75-0.072-0.074-0.147-0.145-0.219-0.219l-0.063-0.063c-0.242-0.238-0.476-0.482-0.719-0.719-0.072-0.074-0.147-0.145-0.219-0.219-0.261-0.258-0.519-0.524-0.781-0.781-0.072-0.074-0.147-0.145-0.219-0.219-0.262-0.259-0.518-0.523-0.781-0.781-0.067-0.069-0.12-0.15-0.188-0.219-0.079-0.078-0.171-0.141-0.25-0.219-0.062-0.063-0.125-0.125-0.188-0.188-0.047-0.047-0.078-0.11-0.125-0.156l-0.031-0.031-0.188-0.188c-0.042-0.043-0.083-0.082-0.125-0.125-0.032-0.031-0.062-0.063-0.094-0.094-0.068-0.068-0.15-0.12-0.219-0.188-0.186-0.189-0.376-0.374-0.563-0.563l-0.063-0.063c-0.058-0.057-0.098-0.131-0.156-0.188-0.257-0.254-0.523-0.497-0.781-0.75l-0.063-0.063c-0.058-0.057-0.098-0.131-0.156-0.188-0.257-0.254-0.523-0.497-0.781-0.75-0.072-0.074-0.147-0.145-0.219-0.219l-0.063-0.063c-0.242-0.238-0.476-0.482-0.719-0.719-0.072-0.074-0.147-0.145-0.219-0.219-0.261-0.258-0.519-0.524-0.781-0.781-0.067-0.069-0.12-0.15-0.188-0.219-0.268-0.265-0.544-0.517-0.813-0.781l-0.031-0.031c-0.058-0.057-0.098-0.131-0.156-0.188-0.257-0.254-0.523-0.497-0.781-0.75l-0.063-0.063c-0.058-0.057-0.098-0.131-0.156-0.188-0.257-0.254-0.523-0.497-0.781-0.75l-0.063-0.063c-0.058-0.057-0.098-0.131-0.156-0.188-0.257-0.254-0.523-0.497-0.781-0.75-0.072-0.074-0.147-0.145-0.219-0.219l-0.063-0.063c-0.242-0.238-0.476-0.482-0.719-0.719-0.072-0.074-0.147-0.145-0.219-0.219-0.261-0.258-0.519-0.524-0.781-0.781-0.067-0.069-0.12-0.15-0.188-0.219-0.267-0.264-0.545-0.518-0.813-0.781-0.067-0.069-0.12-0.15-0.188-0.219-0.257-0.254-0.523-0.497-0.781-0.75-0.02-0.021-0.042-0.042-0.063-0.063-0.058-0.057-0.098-0.131-0.156-0.188-0.257-0.254-0.523-0.497-0.781-0.75l-0.063-0.063c-0.058-0.057-0.098-0.131-0.156-0.188-0.257-0.254-0.523-0.497-0.781-0.75-0.072-0.074-0.147-0.145-0.219-0.219l-0.063-0.063c-0.242-0.238-0.476-0.482-0.719-0.719-0.072-0.074-0.147-0.145-0.219-0.219-0.261-0.258-0.519-0.524-0.781-0.781-0.072-0.074-0.147-0.145-0.219-0.219-0.262-0.259-0.518-0.523-0.781-0.781-0.067-0.069-0.12-0.15-0.188-0.219-0.079-0.078-0.171-0.141-0.25-0.219-0.067-0.068-0.12-0.151-0.188-0.219-0.042-0.041-0.083-0.084-0.125-0.125l-0.031-0.031-0.188-0.188c-0.03-0.031-0.063-0.063-0.094-0.094-0.005-0.005-0.026 0.005-0.031 0-0.006-0.006 0.006-0.025 0-0.031-0.032-0.031-0.062-0.063-0.094-0.094-0.068-0.068-0.15-0.12-0.219-0.188-0.186-0.189-0.376-0.374-0.563-0.563l-0.063-0.063c-0.058-0.057-0.098-0.131-0.156-0.188-0.257-0.254-0.523-0.497-0.781-0.75l-0.063-0.063c-0.058-0.057-0.098-0.131-0.156-0.188-0.257-0.254-0.523-0.497-0.781-0.75-0.072-0.074-0.147-0.145-0.219-0.219l-0.063-0.063c-0.242-0.238-0.476-0.482-0.719-0.719-0.072-0.074-0.147-0.145-0.219-0.219-0.262-0.259-0.518-0.523-0.781-0.781-0.067-0.069-0.12-0.15-0.188-0.219-0.268-0.265-0.544-0.517-0.813-0.781l-0.031-0.031c-0.058-0.057-0.098-0.131-0.156-0.188-0.257-0.254-0.523-0.497-0.781-0.75l-0.063-0.063c-0.058-0.057-0.098-0.131-0.156-0.188-0.257-0.254-0.523-0.497-0.781-0.75l-0.063-0.063c-0.058-0.057-0.098-0.131-0.156-0.188-0.257-0.254-0.523-0.497-0.781-0.75-0.072-0.074-0.147-0.145-0.219-0.219l-0.063-0.063c-0.242-0.238-0.476-0.482-0.719-0.719-0.072-0.074-0.147-0.145-0.219-0.219-0.261-0.258-0.519-0.524-0.781-0.781-0.067-0.069-0.12-0.15-0.188-0.219-0.267-0.264-0.545-0.518-0.813-0.781-0.067-0.069-0.12-0.15-0.188-0.219-0.257-0.254-0.523-0.497-0.781-0.75l-0.063-0.063c-0.058-0.057-0.098-0.131-0.156-0.188-0.257-0.254-0.523-0.497-0.781-0.75l-0.063-0.063c-0.058-0.057-0.098-0.131-0.156-0.188-0.257-0.254-0.523-0.497-0.781-0.75-0.072-0.074-0.147-0.145-0.219-0.219l-0.063-0.063c-0.242-0.238-0.476-0.482-0.719-0.719-0.072-0.074-0.147-0.145-0.219-0.219-0.261-0.258-0.519-0.524-0.781-0.781-0.067-0.069-0.12-0.15-0.188-0.219-0.267-0.264-0.545-0.518-0.813-0.781-0.067-0.069-0.12-0.15-0.188-0.219-0.257-0.254-0.523-0.497-0.781-0.75-0.02-0.021-0.042-0.042-0.063-0.063-0.058-0.057-0.098-0.131-0.156-0.188-0.257-0.254-0.523-0.497-0.781-0.75l-0.063-0.063c-0.058-0.057-0.098-0.131-0.156-0.188-0.257-0.254-0.523-0.497-0.781-0.75-0.072-0.074-0.147-0.145-0.219-0.219l-0.063-0.063c-0.242-0.238-0.476-0.482-0.719-0.719-0.072-0.074-0.147-0.145-0.219-0.219-0.261-0.258-0.519-0.524-0.781-0.781-0.072-0.074-0.147-0.145-0.219-0.219-0.262-0.259-0.518-0.523-0.781-0.781-0.067-0.069-0.12-0.15-0.188-0.219-0.079-0.078-0.171-0.141-0.25-0.219-0.067-0.068-0.12-0.151-0.188-0.219-0.042-0.041-0.083-0.084-0.125-0.125l-0.031-0.031-0.188-0.188c-0.03-0.031-0.063-0.063-0.094-0.094-0.005-0.005-0.026 0.005-0.031 0-0.006-0.006 0.006-0.025 0-0.031-0.032-0.031-0.062-0.063-0.094-0.094-0.068-0.068-0.15-0.12-0.219-0.188-0.186-0.189-0.376-0.374-0.563-0.563l-0.063-0.063c-0.058-0.057-0.098-0.131-0.156-0.188-0.257-0.254-0.523-0.497-0.781-0.75l-0.063-0.063c-0.058-0.057-0.098-0.131-0.156-0.188-0.257-0.254-0.523-0.497-0.781-0.75-0.072-0.074-0.147-0.145-0.219-0.219l-0.063-0.063c-0.242-0.238-0.476-0.482-0.719-0.719-0.072-0.074-0.147-0.145-0.219-0.219-0.262-0.259-0.518-0.523-0.781-0.781-0.067-0.069-0.12-0.15-0.188-0.219-0.268-0.265-0.544-0.517-0.813-0.781l-0.031-0.031c-0.058-0.057-0.098-0.131-0.156-0.188-0.257-0.254-0.523-0.497-0.781-0.75l-0.063-0.063c-0.058-0.057-0.098-0.131-0.156-0.188-0.257-0.254-0.523-0.497-0.781-0.75l-0.063-0.063c-0.058-0.057-0.098-0.131-0.156-0.188-0.257-0.254-0.523-0.497-0.781-0.75-0.072-0.074-0.147-0.145-0.219-0.219l-0.063-0.063c-0.242-0.238-0.476-0.482-0.719-0.719-0.072-0.074-0.147-0.145-0.219-0.219-0.261-0.258-0.519-0.524-0.781-0.781-0.067-0.069-0.12-0.15-0.188-0.219-0.267-0.264-0.545-0.518-0.813-0.781-0.067-0.069-0.12-0.15-0.188-0.219-0.257-0.254-0.523-0.497-0.781-0.75-0.02-0.021-0.042-0.042-0.063-0.063-0.058-0.057-0.098-0.131-0.156-0.188-0.257-0.254-0.523-0.497-0.781-0.75l-0.063-0.063c-0.058-0.057-0.098-0.131-0.156-0.188-0.257-0.254-0.523-0.497-0.781-0.75-0.072-0.074-0.147-0.145-0.219-0.219l-0.063-0.063c-0.242-0.238-0.476-0.482-0.719-0.719-0.072-0.074-0.147-0.145-0.219-0.219-0.261-0.258-0.519-0.524-0.781-0.781-0.072-0.074-0.147-0.145-0.219-0.219-0.262-0.259-0.518-0.523-0.781-0.781-0.067-0.069-0.12-0.15-0.188-0.219-0.079-0.078-0.171-0.141-0.25-0.219-0.062-0.063-0.125-0.125-0.188-0.188-0.047-0.047-0.078-0.11-0.125-0.156l-0.031-0.031-0.188-0.188c-0.042-0.043-0.083-0.082-0.125-0.125-0.032-0.031-0.062-0.063-0.094-0.094-0.068-0.068-0.15-0.12-0.219-0.188-0.186-0.189-0.376-0.374-0.563-0.563l-0.063-0.063c-0.058-0.057-0.098-0.131-0.156-0.188-0.257-0.254-0.523-0.497-0.781-0.75l-0.063-0.063c-0.058-0.057-0.098-0.131-0.156-0.188-0.257-0.254-0.523-0.497-0.781-0.75-0.072-0.074-0.147-0.145-0.219-0.219l-0.063-0.063c-0.242-0.238-0.476-0.482-0.719-0.719-0.072-0.074-0.147-0.145-0.219-0.219-0.262-0.259-0.518-0.523-0.781-0.781-0.067-0.069-0.12-0.15-0.188-0.219-0.268-0.265-0.544-0.517-0.813-0.781l-0.031-0.031c-0.058-0.057-0.098-0.131-0.156-0.188-0.257-0.254-0.523-0.497-0.781-0.75l-0.063-0.063c-0.058-0.057-0.098-0.131-0.156-0.188-0.257-0.254-0.523-0.497-0.781-0.75l-0.063-0.063c-0.058-0.057-0.098-0.131-0.156-0.188-0.257-0.254-0.523-0.497-0.781-0.75-0.072-0.074-0.147-0.145-0.219-0.219l-0.063-0.063c-0.242-0.238-0.476-0.482-0.719-0.719-0.072-0.074-0.147-0.145-0.219-0.219-0.261-0.258-0.519-0.524-0.781-0.781-0.067-0.069-0.12-0.15-0.188-0.219-0.267-0.264-0.545-0.518-0.813-0.781-0.067-0.069-0.12-0.15-0.188-0.219-0.257-0.254-0.523-0.497-0.781-0.75l-0.063-0.063c-0.058-0.057-0.098-0.131-0.156-0.188-0.257-0.254-0.523-0.497-0.781-0.75l-0.063-0.063c-0.058-0.057-0.098-0.131-0.156-0.188-0.257-0.254-0.523-0.497-0.781-0.75-0.072-0.074-0.147-0.145-0.219-0.219l-0.063-0.063c-0.242-0.238-0.476-0.482-0.719-0.719-0.072-0.074-0.147-0.145-0.219-0.219-0.261-0.258-0.519-0.524-0.781-0.781-0.067-0.069-0.12-0.15-0.188-0.219-0.267-0.264-0.545-0.518-0.813-0.781-0.067-0.069-0.12-0.15-0.188-0.219-0.257-0.254-0.523-0.497-0.781-0.75-0.02-0.021-0.042-0.042-0.063-0.063-0.058-0.057-0.098-0.131-0.156-0.188-0.257-0.254-0.523-0.497-0.781-0.75l-0.063-0.063c-0.058-0.057-0.098-0.131-0.156-0.188-0.257-0.254-0.523-0.497-0.781-0.75-0.072-0.074-0.147-0.145-0.219-0.219l-0.063-0.063c-0.242-0.238-0.476-0.482-0.719-0.719-0.072-0.074-0.147-0.145-0.219-0.219-0.261-0.258-0.519-0.524-0.781-0.781-0.072-0.074-0.147-0.145-0.219-0.219-0.262-0.259-0.518-0.523-0.781-0.781-0.067-0.069-0.12-0.15-0.188-0.219-0.079-0.078-0.171-0.141-0.25-0.219-0.062-0.063-0.125-0.125-0.188-0.188-0.047-0.047-0.078-0.11-0.125-0.156l-0.031-0.031-0.188-0.188c-0.042-0.043-0.083-0.082-0.125-0.125-0.032-0.031-0.062-0.063-0.094-0.094-0.068-0.068-0.15-0.12-0.219-0.188-0.186-0.189-0.376-0.374-0.563-0.563l-0.063-0.063c-0.058-0.057-0.098-0.131-0.156-0.188-0.257-0.254-0.523-0.497-0.781-0.75l-0.063-0.063c-0.058-0.057-0.098-0.131-0.156-0.188-0.257-0.254-0.523-0.497-0.781-0.75-0.072-0.074-0.147-0.145-0.219-0.219l-0.063-0.063c-0.242-0.238-0.476-0.482-0.719-0.719-0.072-0.074-0.147-0.145-0.219-0.219-0.262-0.259-0.518-0.523-0.781-0.781-0.067-0.069-0.12-0.15-0.188-0.219-0.268-0.265-0.544-0.517-0.813-0.781l-0.031-0.031c-0.058-0.057-0.098-0.131-0.156-0.188-0.257-0.254-0.523-0.497-0.781-0.75l-0.063-0.063c-0.058-0.057-0.098-0.131-0.156-0.188-0.257-0.254-0.523-0.497-0.781-0.75l-0.063-0.063c-0.058-0.057-0.098-0.131-0.156-0.188-0.257-0.254-0.523-0.497-0.781-0.75-0.072-0.074-0.147-0.145-0.219-0.219l-0.063-0.063c-0.316-0.31-0.62-0.629-0.938-0.938-0.326-0.33-0.641-0.672-0.969-1-0.073-0.072-0.146-0.146-0.219-0.219-0.26-0.26-0.521-0.522-0.781-0.781-0.336-0.332-0.663-0.669-1-1-26.731-26.425-57.17-48.35-94.5-58.22-2.682-0.567-4.43-0.889-5.469-0.813"/>
 <g id="g8" fill-rule="evenodd">
  <path id="path10" fill-opacity=".067" d="m256 1c-140.83 0-255 114.17-255 255s114.17 255 255 255 255-114.17 255-255-114.17-255-255-255m8.827 44.931c120.9 0 218.9 98 218.9 218.9s-98 218.9-218.9 218.9-218.93-98-218.93-218.9 98.03-218.9 218.93-218.9"/>
  <g id="g12" fill-opacity=".129">
   <path id="path14" d="m256 4.433c-138.94 0-251.57 112.63-251.57 251.57s112.63 251.57 251.57 251.57 251.57-112.63 251.57-251.57-112.63-251.57-251.57-251.57m5.885 38.556c120.9 0 218.9 98 218.9 218.9s-98 218.9-218.9 218.9-218.93-98-218.93-218.9 98.03-218.9 218.93-218.9"/>
   <path id="path16" d="m256 8.356c-136.77 0-247.64 110.87-247.64 247.64s110.87 247.64 247.64 247.64 247.64-110.87 247.64-247.64-110.87-247.64-247.64-247.64m2.942 31.691c120.9 0 218.9 98 218.9 218.9s-98 218.9-218.9 218.9-218.93-98-218.93-218.9 98.03-218.9 218.93-218.9"/>
  </g>
  <path id="path18" d="m253.04 7.859c-135.42 0-245.19 109.78-245.19 245.19 0 135.42 109.78 245.19 245.19 245.19 135.42 0 245.19-109.78 245.19-245.19 0-135.42-109.78-245.19-245.19-245.19zm0 26.297c120.9 0 218.9 98 218.9 218.9s-98 218.9-218.9 218.9-218.93-98-218.93-218.9 98.03-218.9 218.93-218.9z" stroke-opacity=".31" stroke="#000" stroke-width="4.904" fill="#fff"/>
 </g>
 <text id="text20" style="word-spacing:0;letter-spacing:0" font-size="129.23px" line-height="125%" y="231.36" x="729.64001" font-family="Gentium Book Basic">
  <tspan id="tspan22" y="231.36" x="729.64001"/>
 </text>
 <text id="text24" style="text-anchor:middle" font-size="46.954px" transform="scale(4.0128 .2492)" y="579.25" x="378.91" font-family="Arial"/>
 <text id="text26" style="word-spacing:0;letter-spacing:0" font-size="129.23px" line-height="125%" y="151.36" x="1310.91" font-family="Gentium Book Basic">
  <tspan id="tspan28" y="151.36" x="1310.91"/>
 </text>
 <text id="text30" style="text-anchor:middle" font-size="46.954px" transform="scale(4.0128 .2492)" y="258.22" x="523.76001" font-family="Arial"/>
 <text id="text32" style="word-spacing:0;letter-spacing:0" font-size="129.23px" line-height="125%" y="-29.900999" x="239.33" font-family="Gentium Book Basic">
  <tspan id="tspan34" y="-29.900999" x="239.33"/>
 </text>
 <text id="text36" style="text-anchor:middle" font-size="46.954px" transform="scale(4.0128 .2492)" y="-469.14001" x="256.72" font-family="Arial"/>
 <text id="text38" style="word-spacing:0;letter-spacing:0" font-size="129.23px" line-height="125%" y="-246.37" x="1337.38" font-family="Gentium Book Basic">
  <tspan id="tspan40" y="-246.37" x="1337.38"/>
 </text>
 <text id="text42" style="text-anchor:middle" font-size="46.954px" transform="scale(4.0128 .2492)" y="-1337.8101" x="530.35999" font-family="Arial"/>
 <text id="text44" style="word-spacing:0;letter-spacing:0" font-size="129.23px" line-height="125%" y="-326.38" x="1918.65" font-family="Gentium Book Basic">
  <tspan id="tspan46" y="-326.38" x="1918.65"/>
 </text>
 <text id="text48" style="text-anchor:middle" font-size="46.954px" transform="scale(4.0128 .2492)" y="-1658.85" x="675.21002" font-family="Arial"/>
 <text id="text50" style="word-spacing:0;letter-spacing:0" font-size="129.23px" line-height="125%" y="-798.78003" x="1529.53" font-family="Gentium Book Basic">
  <tspan id="tspan52" y="-798.78003" x="1529.53"/>
 </text>
 <text id="text54" style="text-anchor:middle" font-size="46.954px" transform="scale(4.0128 .2492)" y="-3554.51" x="578.23999" font-family="Arial"/>
 <text id="text56" style="word-spacing:0;letter-spacing:0" font-size="129.23px" line-height="125%" y="-878.78003" x="2110.79" font-family="Gentium Book Basic">
  <tspan id="tspan58" y="-878.78003" x="2110.79"/>
 </text>
 <text id="text60" style="text-anchor:middle" font-size="46.954px" transform="scale(4.0128 .2492)" y="-3875.54" x="723.09003" font-family="Arial"/>
 <text id="text62" style="word-spacing:0;letter-spacing:0" font-size="208.33px" line-height="125%" y="535.94" x="277.98999" font-family="Gentium Book Basic">
  <tspan id="tspan64" y="535.94" x="277.98999"/>
 </text>
 <path id="path66" fill="#fff" d="m179.88 115.63c-1.731 0.128-1.541 1.389-0.719 4.5 7.307 42.37 5.903 89.56-18.594 126.06-18.716 24.81-48.5 36.854-62.906 25.469-1.943-1.535-3.586-3.922-4.969-6.906 0.788 14.938 3.561 29.357 8.094 42.969 0.009 0.021 0.022 0.041 0.031 0.063 25.847 60.08 85.57 102.16 155.13 102.16 69.96 0 129.99-42.579 155.59-103.22 0.009-0.021 0.022-0.041 0.031-0.063 3.634-11.167 6.098-22.859 7.25-34.938-4.02 5.208-9.666 12.629-14.406 14.188-21.09 8.174-54.57-24.273-73.875-53.12-39-48.875-82.32-99.73-145.19-116.34-2.682-0.567-4.43-0.889-5.469-0.813"/>
</svg>
