<?xml version="1.0" encoding="UTF-8" standalone="no"?>
<svg
   xmlns:dc="http://purl.org/dc/elements/1.1/"
   xmlns:cc="http://creativecommons.org/ns#"
   xmlns:rdf="http://www.w3.org/1999/02/22-rdf-syntax-ns#"
   xmlns:svg="http://www.w3.org/2000/svg"
   xmlns="http://www.w3.org/2000/svg"
   xmlns:sodipodi="http://sodipodi.sourceforge.net/DTD/sodipodi-0.dtd"
   xmlns:inkscape="http://www.inkscape.org/namespaces/inkscape"
   id="svg2"
   version="1.1"
   viewBox="0 0 512 512"
   inkscape:version="0.91+devel r13804 custom"
   sodipodi:docname="hotot.svg">
  <defs
     id="defs3023" />
  <sodipodi:namedview
     pagecolor="#ffffff"
     bordercolor="#666666"
     borderopacity="1"
     objecttolerance="10"
     gridtolerance="10"
     guidetolerance="10"
     inkscape:pageopacity="0"
     inkscape:pageshadow="2"
     inkscape:window-width="1366"
     inkscape:window-height="709"
     id="namedview3021"
     showgrid="false"
     inkscape:zoom="0.4609375"
     inkscape:cx="-8.6779661"
     inkscape:cy="237.55932"
     inkscape:window-x="-2"
     inkscape:window-y="-3"
     inkscape:window-maximized="1"
     inkscape:current-layer="svg2" />
  <metadata
     id="metadata6042">
    <rdf:RDF>
      <cc:Work
         rdf:about="">
        <dc:format>image/svg+xml</dc:format>
        <dc:type
           rdf:resource="http://purl.org/dc/dcmitype/StillImage" />
      </cc:Work>
    </rdf:RDF>
  </metadata>
  <g
     style="fill-rule:evenodd"
     id="g5974">
    <path
       style="fill:#0078ad"
       inkscape:connector-curvature="0"
       id="path5976"
       d="m 471.95,253.05 c 0,120.9 -98.01,218.91 -218.91,218.91 -120.9,0 -218.91,-98.01 -218.91,-218.91 0,-120.9 98.01,-218.91 218.91,-218.91 120.9,0 218.91,98.01 218.91,218.91" />
    <path
       style="fill-opacity:0.06700003"
       inkscape:connector-curvature="0"
       id="path5978"
       d="M 256,1 C 115.17,1 1,115.17 1,256 1,396.83 115.17,511 256,511 396.83,511 511,396.83 511,256 511,115.17 396.83,1 256,1 m 8.827,44.931 c 120.9,0 218.9,98 218.9,218.9 0,120.9 -98,218.9 -218.9,218.9 -120.9,0 -218.93,-98 -218.93,-218.9 0,-120.9 98.03,-218.9 218.93,-218.9" />
    <g
       style="fill-opacity:0.12900002"
       id="g5980">
      <path
         inkscape:connector-curvature="0"
         id="path5982"
         d="M 256,4.43 C 117.06,4.43 4.43,117.06 4.43,256 4.43,394.94 117.06,507.57 256,507.57 394.94,507.57 507.57,394.94 507.57,256 507.57,117.06 394.94,4.43 256,4.43 m 5.885,38.556 c 120.9,0 218.9,98 218.9,218.9 0,120.9 -98,218.9 -218.9,218.9 -120.9,0 -218.93,-98 -218.93,-218.9 0,-120.9 98.03,-218.9 218.93,-218.9" />
      <path
         inkscape:connector-curvature="0"
         id="path5984"
         d="M 256,8.36 C 119.23,8.36 8.36,119.23 8.36,256 8.36,392.77 119.23,503.64 256,503.64 392.77,503.64 503.64,392.77 503.64,256 503.64,119.23 392.77,8.36 256,8.36 m 2.942,31.691 c 120.9,0 218.9,98 218.9,218.9 0,120.9 -98,218.9 -218.9,218.9 -120.9,0 -218.93,-98 -218.93,-218.9 0,-120.9 98.03,-218.9 218.93,-218.9" />
    </g>
    <path
       style="fill:#ffffff;stroke:#000000;stroke-width:4.90399981;stroke-opacity:0.31000001"
       inkscape:connector-curvature="0"
       id="path5986"
       d="M 253.04,7.86 C 117.62,7.86 7.85,117.64 7.85,253.05 c 0,135.42 109.78,245.19 245.19,245.19 135.42,0 245.19,-109.78 245.19,-245.19 C 498.23,117.63 388.45,7.86 253.04,7.86 m 0,26.297 c 120.9,0 218.9,98 218.9,218.9 0,120.9 -98,218.9 -218.9,218.9 -120.9,0 -218.93,-98 -218.93,-218.9 0,-120.9 98.03,-218.9 218.93,-218.9 z" />
  </g>
  <path
     inkscape:connector-curvature="0"
     style="opacity:0.25"
     id="path6034"
     d="m 193.19001,101.32 c -4.04,0 -7.28701,3.251 -7.28701,7.287 l 0,54.55 -72.855,0 c -6.402,0 -11.547,5.164 -11.547,11.566 l 0,167.31 c 0,3.206 1.291,6.101 3.383,8.193 l 119.92001,119.92 c 9.246,1.191 18.672,1.809 28.24,1.809 120.89999,0 218.90999,-98.01 218.90999,-218.91 0,-7.723 -0.405,-15.351 -1.186,-22.867 l -63.64,-63.64 c -2.091,-2.091 -4.982,-3.383 -8.184,-3.383 l -65.54999,0 -59.71101,-59.711 c -1.317,-1.317 -3.14,-2.131 -5.158,-2.131 l -17.02999,0 c -4.04,0 -7.287,3.251 -7.287,7.287 l 0,23.648 -28.805,-28.805 c -1.317,-1.317 -3.138,-2.131 -5.156,-2.131 l -17.05,0" />
  <path
     inkscape:connector-curvature="0"
     style="fill:#ffffff"
     id="path6036"
     d="m 193.19001,101.32 c -4.04,0 -7.288,3.251 -7.288,7.288 l 0,54.55 -72.85601,0 c -6.402,0 -11.546,5.164 -11.546,11.566 l 0,167.31 c 0,6.402 5.143,11.566 11.546,11.566 l 57.3,0 -1.085,56.32 -0.02,0.757 0.573,-0.512 63.03001,-56.56 166.09999,0 c 6.402,0 11.566,-5.164 11.566,-11.566 l 0,-167.31 c 0,-6.402 -5.164,-11.566 -11.566,-11.566 l -123.13,0 0,-54.55 c 0,-4.04 -3.251,-7.288 -7.288,-7.288 l -17.02999,0 c -4.04,0 -7.288,3.251 -7.288,7.288 l 0,54.55 -26.673,0 0,-54.55 c 0,-4.04 -3.251,-7.288 -7.288,-7.288 l -17.05,0 m 18.854,126.16 c 25.53,0 46.22,20.693 46.22,46.22 0,25.53 -20.693,46.22 -46.22,46.22 -25.53,0 -46.24001,-20.693 -46.24001,-46.22 0,-25.53 20.71401,-46.22 46.24001,-46.22 m 103.5,6.53 c 21.922,0 39.693,17.771 39.693,39.693 0,21.922 -17.77,39.693 -39.693,39.693 -21.922,0 -39.69301,-17.771 -39.69301,-39.693 0,-21.922 17.77001,-39.693 39.69301,-39.693" />
</svg>
