<?xml version="1.0" encoding="UTF-8" standalone="no"?>
<svg xmlns="http://www.w3.org/2000/svg" viewBox="0 0 512 512">
 <defs>
  <linearGradient id="0" y2="578.48" gradientUnits="userSpaceOnUse" y1="170.61" x2="-189.75" x1="248.91">
   <stop stop-color="#1cd951" offset="0"/>
   <stop stop-color="#f38725" offset=".5"/>
   <stop stop-color="#c50e0e" offset="1"/>
  </linearGradient>
 </defs>
 <text style="word-spacing:0;letter-spacing:0" font-size="129.23" y="231.36" x="729.64" font-family="Gentium Book Basic" line-height="125%">
  <tspan y="231.36" x="729.64"/>
 </text>
 <text style="text-anchor:middle" transform="scale(4.0128.2492)" font-size="46.954" y="579.25" x="378.91" font-family="Arial"/>
 <text style="word-spacing:0;letter-spacing:0" font-size="129.23" y="151.36" x="1310.91" font-family="Gentium Book Basic" line-height="125%">
  <tspan y="151.36" x="1310.91"/>
 </text>
 <text style="text-anchor:middle" transform="scale(4.0128.2492)" font-size="46.954" y="258.22" x="523.76" font-family="Arial"/>
 <text style="word-spacing:0;letter-spacing:0" font-size="129.23" y="-29.901" x="239.33" font-family="Gentium Book Basic" line-height="125%">
  <tspan y="-29.901" x="239.33"/>
 </text>
 <text style="text-anchor:middle" transform="scale(4.0128.2492)" font-size="46.954" y="-469.14" x="256.72" font-family="Arial"/>
 <text style="word-spacing:0;letter-spacing:0" font-size="129.23" y="-246.37" x="1337.38" font-family="Gentium Book Basic" line-height="125%">
  <tspan y="-246.37" x="1337.38"/>
 </text>
 <text style="text-anchor:middle" transform="scale(4.0128.2492)" font-size="46.954" y="-1337.8" x="530.36" font-family="Arial"/>
 <text style="word-spacing:0;letter-spacing:0" font-size="129.23" y="-326.38" x="1918.65" font-family="Gentium Book Basic" line-height="125%">
  <tspan y="-326.38" x="1918.65"/>
 </text>
 <text style="text-anchor:middle" transform="scale(4.0128.2492)" font-size="46.954" y="-1658.84" x="675.21" font-family="Arial"/>
 <text style="word-spacing:0;letter-spacing:0" font-size="129.23" y="-798.78" x="1529.53" font-family="Gentium Book Basic" line-height="125%">
  <tspan y="-798.78" x="1529.53"/>
 </text>
 <text style="text-anchor:middle" transform="scale(4.0128.2492)" font-size="46.954" y="-3554.49" x="578.24" font-family="Arial"/>
 <text style="word-spacing:0;letter-spacing:0" font-size="129.23" y="-878.78" x="2110.79" font-family="Gentium Book Basic" line-height="125%">
  <tspan y="-878.78" x="2110.79"/>
 </text>
 <text style="text-anchor:middle" transform="scale(4.0128.2492)" font-size="46.954" y="-3875.52" x="723.09" font-family="Arial"/>
 <g style="word-spacing:0;letter-spacing:0" font-family="Gentium Book Basic" line-height="125%">
  <text y="535.94" x="277.99" font-size="208.33">
   <tspan y="535.94" x="277.99"/>
  </text>
  <text y="270.87" x="-1745.96" font-size="129.23">
   <tspan y="270.87" x="-1745.96"/>
  </text>
 </g>
 <text style="text-anchor:middle" transform="scale(4.0128.2492)" font-size="46.954" y="737.79" x="-238.01" font-family="Arial"/>
 <text style="word-spacing:0;letter-spacing:0" font-size="129.23" y="190.87" x="-1164.69" font-family="Gentium Book Basic" line-height="125%">
  <tspan y="190.87" x="-1164.69"/>
 </text>
 <text style="text-anchor:middle" transform="scale(4.0128.2492)" font-size="46.954" y="416.76" x="-93.17" font-family="Arial"/>
 <text style="word-spacing:0;letter-spacing:0" font-size="129.23" y="9.608" x="-2236.27" font-family="Gentium Book Basic" line-height="125%">
  <tspan y="9.608" x="-2236.27"/>
 </text>
 <text style="text-anchor:middle" transform="scale(4.0128.2492)" font-size="46.954" y="-310.6" x="-360.2" font-family="Arial"/>
 <text style="word-spacing:0;letter-spacing:0" font-size="129.23" y="-206.86" x="-1138.22" font-family="Gentium Book Basic" line-height="125%">
  <tspan y="-206.86" x="-1138.22"/>
 </text>
 <text style="text-anchor:middle" transform="scale(4.0128.2492)" font-size="46.954" y="-1179.26" x="-86.57" font-family="Arial"/>
 <text style="word-spacing:0;letter-spacing:0" font-size="129.23" y="-286.87" x="-556.95" font-family="Gentium Book Basic" line-height="125%">
  <tspan y="-286.87" x="-556.95"/>
 </text>
 <text style="text-anchor:middle" transform="scale(4.0128.2492)" font-size="46.954" y="-1500.3" x="58.28" font-family="Arial"/>
 <text style="word-spacing:0;letter-spacing:0" font-size="129.23" y="-759.27" x="-946.07" font-family="Gentium Book Basic" line-height="125%">
  <tspan y="-759.27" x="-946.07"/>
 </text>
 <text style="text-anchor:middle" transform="scale(4.0128.2492)" font-size="46.954" y="-3395.95" x="-38.686" font-family="Arial"/>
 <text style="word-spacing:0;letter-spacing:0" font-size="129.23" y="-839.27" x="-364.81" font-family="Gentium Book Basic" line-height="125%">
  <tspan y="-839.27" x="-364.81"/>
 </text>
 <text style="text-anchor:middle" transform="scale(4.0128.2492)" font-size="46.954" y="-3716.98" x="106.16" font-family="Arial"/>
 <g style="word-spacing:0;letter-spacing:0" font-family="Gentium Book Basic" line-height="125%">
  <text y="575.45" x="-2197.61" font-size="208.33">
   <tspan y="575.45" x="-2197.61"/>
  </text>
  <text y="525.1" x="-1144.61" font-size="129.23">
   <tspan y="525.1" x="-1144.61"/>
  </text>
 </g>
 <text style="text-anchor:middle" transform="scale(4.0128.2492)" font-size="46.954" y="1757.96" x="-88.16" font-family="Arial"/>
 <text style="word-spacing:0;letter-spacing:0" font-size="129.23" y="445.1" x="-563.34" font-family="Gentium Book Basic" line-height="125%">
  <tspan y="445.1" x="-563.34"/>
 </text>
 <text style="text-anchor:middle" transform="scale(4.0128.2492)" font-size="46.954" y="1436.93" x="56.693" font-family="Arial"/>
 <text style="word-spacing:0;letter-spacing:0" font-size="129.23" y="263.84" x="-1634.92" font-family="Gentium Book Basic" line-height="125%">
  <tspan y="263.84" x="-1634.92"/>
 </text>
 <text style="text-anchor:middle" transform="scale(4.0128.2492)" font-size="46.954" y="709.58" x="-210.35" font-family="Arial"/>
 <text style="word-spacing:0;letter-spacing:0" font-size="129.23" y="47.37" x="-536.87" font-family="Gentium Book Basic" line-height="125%">
  <tspan y="47.37" x="-536.87"/>
 </text>
 <text style="text-anchor:middle" transform="scale(4.0128.2492)" font-size="46.954" y="-159.09" x="63.29" font-family="Arial"/>
 <text style="word-spacing:0;letter-spacing:0" font-size="129.23" y="-32.643" x="44.4" font-family="Gentium Book Basic" line-height="125%">
  <tspan y="-32.643" x="44.4"/>
 </text>
 <text style="text-anchor:middle" transform="scale(4.0128.2492)" font-size="46.954" y="-480.13" x="208.14" font-family="Arial"/>
 <text style="word-spacing:0;letter-spacing:0" font-size="129.23" y="-505.04" x="-344.72" font-family="Gentium Book Basic" line-height="125%">
  <tspan y="-505.04" x="-344.72"/>
 </text>
 <text style="text-anchor:middle" transform="scale(4.0128.2492)" font-size="46.954" y="-2375.78" x="111.17" font-family="Arial"/>
 <text style="word-spacing:0;letter-spacing:0" font-size="129.23" y="-585.04" x="236.54" font-family="Gentium Book Basic" line-height="125%">
  <tspan y="-585.04" x="236.54"/>
 </text>
 <text style="text-anchor:middle" transform="scale(4.0128.2492)" font-size="46.954" y="-2696.8" x="256.02" font-family="Arial"/>
 <g style="word-spacing:0;letter-spacing:0" font-family="Gentium Book Basic" line-height="125%">
  <text y="829.68" x="-1596.26" font-size="208.33">
   <tspan y="829.68" x="-1596.26"/>
  </text>
  <text y="246.55" x="1403.27" font-size="129.23">
   <tspan y="246.55" x="1403.27"/>
  </text>
 </g>
 <text style="text-anchor:middle" transform="scale(4.0128.2492)" font-size="46.954" y="640.19" x="546.78" font-family="Arial"/>
 <text style="word-spacing:0;letter-spacing:0" font-size="129.23" y="166.55" x="1984.54" font-family="Gentium Book Basic" line-height="125%">
  <tspan y="166.55" x="1984.54"/>
 </text>
 <text style="text-anchor:middle" transform="scale(4.0128.2492)" font-size="46.954" y="319.16" x="691.63" font-family="Arial"/>
 <text style="word-spacing:0;letter-spacing:0" font-size="129.23" y="-14.715" x="912.96" font-family="Gentium Book Basic" line-height="125%">
  <tspan y="-14.715" x="912.96"/>
 </text>
 <text style="text-anchor:middle" transform="scale(4.0128.2492)" font-size="46.954" y="-408.2" x="424.59" font-family="Arial"/>
 <text style="word-spacing:0;letter-spacing:0" font-size="129.23" y="-231.18" x="2011.01" font-family="Gentium Book Basic" line-height="125%">
  <tspan y="-231.18" x="2011.01"/>
 </text>
 <text style="text-anchor:middle" transform="scale(4.0128.2492)" font-size="46.954" y="-1276.86" x="698.23" font-family="Arial"/>
 <text style="word-spacing:0;letter-spacing:0" font-size="129.23" y="-311.19" x="2592.28" font-family="Gentium Book Basic" line-height="125%">
  <tspan y="-311.19" x="2592.28"/>
 </text>
 <text style="text-anchor:middle" transform="scale(4.0128.2492)" font-size="46.954" y="-1597.9" x="843.08" font-family="Arial"/>
 <text style="word-spacing:0;letter-spacing:0" font-size="129.23" y="-783.59" x="2203.16" font-family="Gentium Book Basic" line-height="125%">
  <tspan y="-783.59" x="2203.16"/>
 </text>
 <text style="text-anchor:middle" transform="scale(4.0128.2492)" font-size="46.954" y="-3493.55" x="746.11" font-family="Arial"/>
 <text style="word-spacing:0;letter-spacing:0" font-size="129.23" y="-863.59" x="2784.42" font-family="Gentium Book Basic" line-height="125%">
  <tspan y="-863.59" x="2784.42"/>
 </text>
 <text style="text-anchor:middle" transform="scale(4.0128.2492)" font-size="46.954" y="-3814.58" x="890.96" font-family="Arial"/>
 <g style="word-spacing:0;letter-spacing:0" font-family="Gentium Book Basic" line-height="125%">
  <text y="551.13" x="951.62" font-size="208.33">
   <tspan y="551.13" x="951.62"/>
  </text>
  <text y="246.55" x="1403.27" font-size="129.23">
   <tspan y="246.55" x="1403.27"/>
  </text>
 </g>
 <text style="text-anchor:middle" transform="scale(4.0128.2492)" font-size="46.954" y="640.19" x="546.78" font-family="Arial"/>
 <text style="word-spacing:0;letter-spacing:0" font-size="129.23" y="166.55" x="1984.54" font-family="Gentium Book Basic" line-height="125%">
  <tspan y="166.55" x="1984.54"/>
 </text>
 <text style="text-anchor:middle" transform="scale(4.0128.2492)" font-size="46.954" y="319.16" x="691.63" font-family="Arial"/>
 <text style="word-spacing:0;letter-spacing:0" font-size="129.23" y="-14.715" x="912.96" font-family="Gentium Book Basic" line-height="125%">
  <tspan y="-14.715" x="912.96"/>
 </text>
 <text style="text-anchor:middle" transform="scale(4.0128.2492)" font-size="46.954" y="-408.2" x="424.59" font-family="Arial"/>
 <text style="word-spacing:0;letter-spacing:0" font-size="129.23" y="-231.18" x="2011.01" font-family="Gentium Book Basic" line-height="125%">
  <tspan y="-231.18" x="2011.01"/>
 </text>
 <text style="text-anchor:middle" transform="scale(4.0128.2492)" font-size="46.954" y="-1276.85" x="698.23" font-family="Arial"/>
 <text style="word-spacing:0;letter-spacing:0" font-size="129.23" y="-311.19" x="2592.28" font-family="Gentium Book Basic" line-height="125%">
  <tspan y="-311.19" x="2592.28"/>
 </text>
 <text style="text-anchor:middle" transform="scale(4.0128.2492)" font-size="46.954" y="-1597.89" x="843.08" font-family="Arial"/>
 <text style="word-spacing:0;letter-spacing:0" font-size="129.23" y="-783.59" x="2203.16" font-family="Gentium Book Basic" line-height="125%">
  <tspan y="-783.59" x="2203.16"/>
 </text>
 <text style="text-anchor:middle" transform="scale(4.0128.2492)" font-size="46.954" y="-3493.53" x="746.11" font-family="Arial"/>
 <text style="word-spacing:0;letter-spacing:0" font-size="129.23" y="-863.59" x="2784.42" font-family="Gentium Book Basic" line-height="125%">
  <tspan y="-863.59" x="2784.42"/>
 </text>
 <text style="text-anchor:middle" transform="scale(4.0128.2492)" font-size="46.954" y="-3814.56" x="890.96" font-family="Arial"/>
 <text style="word-spacing:0;letter-spacing:0" font-size="208.33" y="551.13" x="951.62" font-family="Gentium Book Basic" line-height="125%">
  <tspan y="551.13" x="951.62"/>
 </text>
 <g fill-rule="evenodd">
  <path d="m471.95 253.05c0 120.9-98.01 218.91-218.91 218.91s-218.91-98.01-218.91-218.91 98.01-218.91 218.91-218.91 218.91 98.01 218.91 218.91" fill="url(#0)"/>
  <path d="m256 1c-140.83 0-255 114.17-255 255s114.17 255 255 255 255-114.17 255-255-114.17-255-255-255m8.827 44.931c120.9 0 218.9 98 218.9 218.9s-98 218.9-218.9 218.9-218.93-98-218.93-218.9 98.03-218.9 218.93-218.9" fill-opacity=".067"/>
  <g fill-opacity=".129">
   <path d="m256 4.43c-138.94 0-251.57 112.63-251.57 251.57s112.63 251.57 251.57 251.57 251.57-112.63 251.57-251.57-112.63-251.57-251.57-251.57m5.885 38.556c120.9 0 218.9 98 218.9 218.9s-98 218.9-218.9 218.9-218.93-98-218.93-218.9 98.03-218.9 218.93-218.9"/>
   <path d="m256 8.36c-136.77 0-247.64 110.87-247.64 247.64s110.87 247.64 247.64 247.64 247.64-110.87 247.64-247.64-110.87-247.64-247.64-247.64m2.942 31.691c120.9 0 218.9 98 218.9 218.9s-98 218.9-218.9 218.9-218.93-98-218.93-218.9 98.03-218.9 218.93-218.9"/>
  </g>
  <path stroke="#000" stroke-width="4.904" d="m253.04 7.86c-135.42 0-245.19 109.78-245.19 245.19 0 135.42 109.78 245.19 245.19 245.19 135.42 0 245.19-109.78 245.19-245.19 0-135.42-109.78-245.19-245.19-245.19m0 26.297c120.9 0 218.9 98 218.9 218.9s-98 218.9-218.9 218.9-218.93-98-218.93-218.9 98.03-218.9 218.93-218.9z" stroke-opacity=".31" fill="#fff"/>
 </g>
 <text style="word-spacing:0;letter-spacing:0" font-size="129.23" y="231.36" x="729.64" font-family="&apos;Gentium Book Basic&apos;" line-height="125%">
  <tspan y="231.36" x="729.64"/>
 </text>
 <text style="text-anchor:middle" transform="scale(4.0128.2492)" font-size="46.954" y="579.26" x="378.91" font-family="Arial"/>
 <text style="word-spacing:0;letter-spacing:0" font-size="129.23" y="151.36" x="1310.91" font-family="&apos;Gentium Book Basic&apos;" line-height="125%">
  <tspan y="151.36" x="1310.91"/>
 </text>
 <text style="text-anchor:middle" transform="scale(4.0128.2492)" font-size="46.954" y="258.22" x="523.76" font-family="Arial"/>
 <text style="word-spacing:0;letter-spacing:0" font-size="129.23" y="-29.9" x="239.33" font-family="&apos;Gentium Book Basic&apos;" line-height="125%">
  <tspan y="-29.9" x="239.33"/>
 </text>
 <text style="text-anchor:middle" transform="scale(4.0128.2492)" font-size="46.954" y="-469.13" x="256.72" font-family="Arial"/>
 <text style="word-spacing:0;letter-spacing:0" font-size="129.23" y="-246.37" x="1337.38" font-family="&apos;Gentium Book Basic&apos;" line-height="125%">
  <tspan y="-246.37" x="1337.38"/>
 </text>
 <text style="text-anchor:middle" transform="scale(4.0128.2492)" font-size="46.954" y="-1337.8" x="530.36" font-family="Arial"/>
 <text style="word-spacing:0;letter-spacing:0" font-size="129.23" y="-326.37" x="1918.65" font-family="&apos;Gentium Book Basic&apos;" line-height="125%">
  <tspan y="-326.37" x="1918.65"/>
 </text>
 <text style="text-anchor:middle" transform="scale(4.0128.2492)" font-size="46.954" y="-1658.83" x="675.21" font-family="Arial"/>
 <text style="word-spacing:0;letter-spacing:0" font-size="129.23" y="-798.77" x="1529.53" font-family="&apos;Gentium Book Basic&apos;" line-height="125%">
  <tspan y="-798.77" x="1529.53"/>
 </text>
 <text style="text-anchor:middle" transform="scale(4.0128.2492)" font-size="46.954" y="-3554.48" x="578.24" font-family="Arial"/>
 <text style="word-spacing:0;letter-spacing:0" font-size="129.23" y="-878.78" x="2110.79" font-family="&apos;Gentium Book Basic&apos;" line-height="125%">
  <tspan y="-878.78" x="2110.79"/>
 </text>
 <text style="text-anchor:middle" transform="scale(4.0128.2492)" font-size="46.954" y="-3875.52" x="723.09" font-family="Arial"/>
 <text style="word-spacing:0;letter-spacing:0" font-size="208.33" y="535.94" x="277.99" font-family="&apos;Gentium Book Basic&apos;" line-height="125%">
  <tspan y="535.94" x="277.99"/>
 </text>
 <path opacity=".25" d="m240.88 101.16l-0.313 0.813-17.836 43.602-11.758-11.758c-45.937 16.708-80.55 56.913-89.37 106.09h-35.719v54.28l111.76 111.76-5.818 21.12 44.25 44.25c5.603 0.43 11.267 0.65 16.98 0.65 120.9 0 218.91-98.01 218.91-218.91 0-20.18-2.745-39.721-7.857-58.28l-93.62-93.62h-129.6"/>
 <path d="m240.88 101.16l-0.313 0.813-65.44 159.97-0.656 1.625 1.688 0.156 58.41 8.188-42.75 155.16 2.156 1.125 169.84-205.94 1.781-2.094h-96.09l99.22-116.91 1.75-2.094h-129.6m-29.906 32.656c-45.937 16.708-80.55 56.913-89.37 106.09h-35.719v54.28h36.656c8.276 38.33 32.34 70.775 65.03 90.22 1.726-6.304 3.393-12.635 5.125-18.938-24.901-16.305-43.39-41.604-50.875-71.28h70.59c0.884-3.181 1.771-6.351 2.656-9.531-20.89-2.984-41.527-6.02-62.56-7.719 5.03-12.358 10.113-24.68 15.16-37.03h-26.969c7.278-34.868 29.626-64.2 59.938-80.84 3.444-8.423 6.903-16.825 10.344-25.25m133.69 21.469c-4.074 4.802-8.113 9.635-12.188 14.438 22.07 17.18 37.992 41.842 43.938 70.19h-7.06c-8.817 10.642-17.631 21.283-26.469 31.906-6.04 7.491-12.08 14.939-18.19 22.375h50.625c-13.178 52.21-60.48 90.88-116.78 90.88-3.035 0-6.02-0.186-9-0.406-4.716 5.75-9.362 11.533-14.03 17.313 7.494 1.249 15.182 1.938 23.03 1.938 66.742 0 122.52-47.02 136.06-109.72h31.531v-54.28h-30.594c-6.137-34.14-24.711-63.991-50.875-84.62" fill="#fff"/>
</svg>
