<?xml version="1.0" encoding="UTF-8" standalone="no"?>
<!-- Created with Inkscape (http://www.inkscape.org/) -->
<svg id="svg2" xmlns:rdf="http://www.w3.org/1999/02/22-rdf-syntax-ns#" xmlns="http://www.w3.org/2000/svg" height="100%" viewBox="0 0 512 512" width="100%" version="1.1" xmlns:cc="http://creativecommons.org/ns#" xmlns:dc="http://purl.org/dc/elements/1.1/">
 <metadata id="metadata93">
  <rdf:RDF>
   <cc:Work rdf:about="">
    <dc:format>image/svg+xml</dc:format>
    <dc:type rdf:resource="http://purl.org/dc/dcmitype/StillImage"/>
   </cc:Work>
  </rdf:RDF>
 </metadata>
 <defs id="defs4">
  <radialGradient id="0" gradientUnits="userSpaceOnUse" cy="256" cx="256" r="226.38">
   <stop id="stop21" stop-color="#d45500" stop-opacity=".344" offset="0"/>
   <stop id="stop23" stop-color="#e65c00" offset="1"/>
  </radialGradient>
 </defs>
 <path id="path25" d="m471.95 253.05c0 120.9-98.01 218.91-218.91 218.91s-218.91-98.01-218.91-218.91 98.01-218.91 218.91-218.91 218.91 98.01 218.91 218.91" fill-rule="evenodd" fill="#f68f1b"/>
 <path id="path27" opacity=".5" fill="url(#0)" d="m210.72 38.25c-27.554 5.396-53.23 15.942-76.03 30.625l114.06 179.88-179.12-115.22c-14.844 22.734-25.561 48.4-31.12 75.938l207.91 46.531-206.97 45.03c6.06 27.09 17.11 52.29 32.19 74.56l177.13-112.34-112.53 174.94c22.426 14.182 47.58 24.382 74.53 29.656l45.25-202.25 43.781 201.34c26.492-5.763 51.2-16.318 73.16-30.719l-109.69-172.97 172.22 110.81c14.561-21.906 25.27-46.572 31.19-73.06l-201.06-45 202.5-44.03c-5.118-26.945-15.17-52.16-29.19-74.62l-175.66 111.41 113.44-176.34c-22.21-15.23-47.36-26.499-74.44-32.719l-46.25 206.72-45.28-208.16"/>
 <path id="path29" opacity=".25" d="m228.78 99.56-61.719 13.813v194.5c0 11.05-1.915 19.483-5.781 25.281-3.866 5.799-10.648 8.687-20.313 8.688-5.246 0-9.53-0.26-12.844-0.813-3.59-0.552-7.452-1.526-11.594-2.906l-8.281 50.13 70.938 70.938c23.08 8.27 47.923 12.781 73.844 12.781 92.72 0 171.96-57.66 203.88-139.06l-228.12-233.34"/>
 <g id="g31" fill-rule="evenodd">
  <path id="path33" fill-opacity=".067" d="m256 1c-140.83 0-255 114.17-255 255s114.17 255 255 255 255-114.17 255-255-114.17-255-255-255m8.827 44.931c120.9 0 218.9 98 218.9 218.9s-98 218.9-218.9 218.9-218.93-98-218.93-218.9 98.03-218.9 218.93-218.9"/>
  <g id="g35" fill-opacity=".129">
   <path id="path37" d="m256 4.43c-138.94 0-251.57 112.63-251.57 251.57s112.63 251.57 251.57 251.57 251.57-112.63 251.57-251.57-112.63-251.57-251.57-251.57m5.885 38.556c120.9 0 218.9 98 218.9 218.9s-98 218.9-218.9 218.9-218.93-98-218.93-218.9 98.03-218.9 218.93-218.9"/>
   <path id="path39" d="m256 8.36c-136.77 0-247.64 110.87-247.64 247.64s110.87 247.64 247.64 247.64 247.64-110.87 247.64-247.64-110.87-247.64-247.64-247.64m2.942 31.691c120.9 0 218.9 98 218.9 218.9s-98 218.9-218.9 218.9-218.93-98-218.93-218.9 98.03-218.9 218.93-218.9"/>
  </g>
  <path id="path41" d="m253.04 7.86c-135.42 0-245.19 109.78-245.19 245.19 0 135.42 109.78 245.19 245.19 245.19 135.42 0 245.19-109.78 245.19-245.19 0-135.42-109.78-245.19-245.19-245.19zm0 26.297c120.9 0 218.9 98 218.9 218.9s-98 218.9-218.9 218.9-218.93-98-218.93-218.9 98.03-218.9 218.93-218.9z" stroke-opacity=".31" stroke="#000" stroke-width="4.904" fill="#fff"/>
 </g>
 <text id="text43" style="word-spacing:0;letter-spacing:0" font-size="129.23px" line-height="125%" y="231.36" x="729.64001" font-family="Gentium Book Basic">
  <tspan id="tspan45" y="231.36" x="729.64001"/>
 </text>
 <text id="text47" style="text-anchor:middle" font-size="46.954px" transform="scale(4.0128 .2492)" y="579.26001" x="378.91" font-family="Arial"/>
 <text id="text49" style="word-spacing:0;letter-spacing:0" font-size="129.23px" line-height="125%" y="151.36" x="1310.91" font-family="Gentium Book Basic">
  <tspan id="tspan51" y="151.36" x="1310.91"/>
 </text>
 <text id="text53" style="text-anchor:middle" font-size="46.954px" transform="scale(4.0128 .2492)" y="258.22" x="523.76001" font-family="Arial"/>
 <text id="text55" style="word-spacing:0;letter-spacing:0" font-size="129.23px" line-height="125%" y="-29.9" x="239.33" font-family="Gentium Book Basic">
  <tspan id="tspan57" y="-29.9" x="239.33"/>
 </text>
 <text id="text59" style="text-anchor:middle" font-size="46.954px" transform="scale(4.0128 .2492)" y="-469.13" x="256.72" font-family="Arial"/>
 <text id="text61" style="word-spacing:0;letter-spacing:0" font-size="129.23px" line-height="125%" y="-246.37" x="1337.38" font-family="Gentium Book Basic">
  <tspan id="tspan63" y="-246.37" x="1337.38"/>
 </text>
 <text id="text65" style="text-anchor:middle" font-size="46.954px" transform="scale(4.0128 .2492)" y="-1337.8" x="530.35999" font-family="Arial"/>
 <text id="text67" style="word-spacing:0;letter-spacing:0" font-size="129.23px" line-height="125%" y="-326.37" x="1918.65" font-family="Gentium Book Basic">
  <tspan id="tspan69" y="-326.37" x="1918.65"/>
 </text>
 <text id="text71" style="text-anchor:middle" font-size="46.954px" transform="scale(4.0128 .2492)" y="-1658.83" x="675.21002" font-family="Arial"/>
 <text id="text73" style="word-spacing:0;letter-spacing:0" font-size="129.23px" line-height="125%" y="-798.77002" x="1529.53" font-family="Gentium Book Basic">
  <tspan id="tspan75" y="-798.77002" x="1529.53"/>
 </text>
 <text id="text77" style="text-anchor:middle" font-size="46.954px" transform="scale(4.0128 .2492)" y="-3554.48" x="578.23999" font-family="Arial"/>
 <text id="text79" style="word-spacing:0;letter-spacing:0" font-size="129.23px" line-height="125%" y="-878.78003" x="2110.79" font-family="Gentium Book Basic">
  <tspan id="tspan81" y="-878.78003" x="2110.79"/>
 </text>
 <text id="text83" style="text-anchor:middle" font-size="46.954px" transform="scale(4.0128 .2492)" y="-3875.52" x="723.09003" font-family="Arial"/>
 <text id="text85" style="word-spacing:0;letter-spacing:0" font-size="208.33px" line-height="125%" y="535.94" x="277.98999" font-family="Gentium Book Basic">
  <tspan id="tspan87" y="535.94" x="277.98999"/>
 </text>
 <path id="path89" fill="#fff" d="m146.77 394.04c-3.866 0-9.526-0.414-16.982-1.243-7.732-0.828-14.911-2.347-21.538-4.556l8.284-50.12c4.142 1.381 8.01 2.347 11.597 2.899 3.314 0.552 7.594 0.828 12.84 0.828 9.665 0 16.43-2.899 20.296-8.698s5.799-14.221 5.799-25.27v-194.52l61.715-13.821v210c0 28.718-7.04 49.98-21.12 63.786s-34.378 20.71-60.887 20.71"/>
</svg>
