<?xml version="1.0" encoding="UTF-8" standalone="no"?>
<!-- Created with Inkscape (http://www.inkscape.org/) -->
<svg id="svg2" xmlns:rdf="http://www.w3.org/1999/02/22-rdf-syntax-ns#" xmlns="http://www.w3.org/2000/svg" height="100%" viewBox="0 0 512 512" width="100%" version="1.1" xmlns:cc="http://creativecommons.org/ns#" xmlns:dc="http://purl.org/dc/elements/1.1/">
 <metadata id="metadata70">
  <rdf:RDF>
   <cc:Work rdf:about="">
    <dc:format>image/svg+xml</dc:format>
    <dc:type rdf:resource="http://purl.org/dc/dcmitype/StillImage"/>
    <dc:title/>
   </cc:Work>
  </rdf:RDF>
 </metadata>
 <text id="text20" style="word-spacing:0;letter-spacing:0" font-size="129.23px" line-height="125%" y="231.35997" x="729.64001" font-family="Gentium Book Basic">
  <tspan id="tspan22" y="231.35997" x="729.64001"/>
 </text>
 <text id="text24" style="text-anchor:middle" font-size="46.954px" transform="scale(4.0128 .24920)" y="579.25812" x="378.90805" font-family="Arial"/>
 <text id="text26" style="word-spacing:0;letter-spacing:0" font-size="129.23px" line-height="125%" y="151.35997" x="1310.91" font-family="Gentium Book Basic">
  <tspan id="tspan28" y="151.35997" x="1310.91"/>
 </text>
 <text id="text30" style="text-anchor:middle" font-size="46.954px" transform="scale(4.0128 .24920)" y="258.21997" x="523.75732" font-family="Arial"/>
 <text id="text32" style="word-spacing:0;letter-spacing:0" font-size="129.23px" line-height="125%" y="-29.900009" x="239.33" font-family="Gentium Book Basic">
  <tspan id="tspan34" y="-29.900009" x="239.33"/>
 </text>
 <text id="text36" style="text-anchor:middle" font-size="46.954px" transform="scale(4.0128 .24920)" y="-469.1264" x="256.71869" font-family="Arial"/>
 <text id="text38" style="word-spacing:0;letter-spacing:0" font-size="129.23px" line-height="125%" y="-246.37001" x="1337.38" font-family="Gentium Book Basic">
  <tspan id="tspan40" y="-246.37001" x="1337.38"/>
 </text>
 <text id="text42" style="text-anchor:middle" font-size="46.954px" transform="scale(4.0128 .24920)" y="-1337.802" x="530.3573" font-family="Arial"/>
 <text id="text44" style="word-spacing:0;letter-spacing:0" font-size="129.23px" line-height="125%" y="-326.37" x="1918.65" font-family="Gentium Book Basic">
  <tspan id="tspan46" y="-326.37" x="1918.65"/>
 </text>
 <text id="text48" style="text-anchor:middle" font-size="46.954px" transform="scale(4.0128 .24920)" y="-1658.8303" x="675.20654" font-family="Arial"/>
 <text id="text50" style="word-spacing:0;letter-spacing:0" font-size="129.23px" line-height="125%" y="-798.77002" x="1529.53" font-family="Gentium Book Basic">
  <tspan id="tspan52" y="-798.77002" x="1529.53"/>
 </text>
 <text id="text54" style="text-anchor:middle" font-size="46.954px" transform="scale(4.0128 .24920)" y="-3554.4807" x="578.237" font-family="Arial"/>
 <text id="text56" style="word-spacing:0;letter-spacing:0" font-size="129.23px" line-height="125%" y="-878.78003" x="2110.79" font-family="Gentium Book Basic">
  <tspan id="tspan58" y="-878.78003" x="2110.79"/>
 </text>
 <text id="text60" style="text-anchor:middle" font-size="46.954px" transform="scale(4.0128 .24920)" y="-3875.519" x="723.0863" font-family="Arial"/>
 <text id="text62" style="word-spacing:0;letter-spacing:0" font-size="208.33px" line-height="125%" y="535.94006" x="277.98999" font-family="Gentium Book Basic">
  <tspan id="tspan64" y="535.94006" x="277.98999"/>
 </text>
 <text id="text20-4" style="word-spacing:0;letter-spacing:0" font-size="129.23px" line-height="125%" y="129.39391" x="1317.5723" font-family="Gentium Book Basic">
  <tspan id="tspan22-7" y="129.39391" x="1317.5723"/>
 </text>
 <text id="text24-2" style="text-anchor:middle" font-size="46.954px" transform="scale(4.0128 .24920)" y="170.07538" x="525.42151" font-family="Arial"/>
 <text id="text26-4" style="word-spacing:0;letter-spacing:0" font-size="129.23px" line-height="125%" y="49.393902" x="1898.8423" font-family="Gentium Book Basic">
  <tspan id="tspan28-1" y="49.393902" x="1898.8423"/>
 </text>
 <text id="text30-0" style="text-anchor:middle" font-size="46.954px" transform="scale(4.0128 .24920)" y="-150.95299" x="670.27081" font-family="Arial"/>
 <text id="text32-4" style="word-spacing:0;letter-spacing:0" font-size="129.23px" line-height="125%" y="-131.8671" x="827.26221" font-family="Gentium Book Basic">
  <tspan id="tspan34-4" y="-131.8671" x="827.26221"/>
 </text>
 <text id="text36-7" style="text-anchor:middle" font-size="46.954px" transform="scale(4.0128 .24920)" y="-878.30927" x="403.23215" font-family="Arial"/>
 <text id="text38-9" style="word-spacing:0;letter-spacing:0" font-size="129.23px" line-height="125%" y="-348.33609" x="1925.3123" font-family="Gentium Book Basic">
  <tspan id="tspan40-6" y="-348.33609" x="1925.3123"/>
 </text>
 <text id="text42-2" style="text-anchor:middle" font-size="46.954px" transform="scale(4.0128 .24920)" y="-1746.9749" x="676.87073" font-family="Arial"/>
 <text id="text44-8" style="word-spacing:0;letter-spacing:0" font-size="129.23px" line-height="125%" y="-428.3461" x="2506.5823" font-family="Gentium Book Basic">
  <tspan id="tspan46-6" y="-428.3461" x="2506.5823"/>
 </text>
 <text id="text48-8" style="text-anchor:middle" font-size="46.954px" transform="scale(4.0128 .24920)" y="-2068.0132" x="821.72003" font-family="Arial"/>
 <text id="text50-5" style="word-spacing:0;letter-spacing:0" font-size="129.23px" line-height="125%" y="-900.74615" x="2117.4622" font-family="Gentium Book Basic">
  <tspan id="tspan52-1" y="-900.74615" x="2117.4622"/>
 </text>
 <text id="text54-2" style="text-anchor:middle" font-size="46.954px" transform="scale(4.0128 .24920)" y="-3963.6636" x="724.75049" font-family="Arial"/>
 <text id="text56-5" style="word-spacing:0;letter-spacing:0" font-size="129.23px" line-height="125%" y="-980.74615" x="2698.7222" font-family="Gentium Book Basic">
  <tspan id="tspan58-8" y="-980.74615" x="2698.7222"/>
 </text>
 <text id="text60-2" style="text-anchor:middle" font-size="46.954px" transform="scale(4.0128 .24920)" y="-4284.6919" x="869.59979" font-family="Arial"/>
 <text id="text62-8" style="word-spacing:0;letter-spacing:0" font-size="208.33px" line-height="125%" y="433.97391" x="865.92218" font-family="Gentium Book Basic">
  <tspan id="tspan64-8" y="433.97391" x="865.92218"/>
 </text>
 <text id="text27" style="word-spacing:0;letter-spacing:0" font-size="129.23px" line-height="125%" y="231.36" x="729.64001" font-family="Gentium Book Basic">
  <tspan id="tspan29" y="231.36" x="729.64001"/>
 </text>
 <text id="text31" style="text-anchor:middle" font-size="46.954px" transform="scale(4.0128 .24920)" y="579.24701" x="378.90805" font-family="Arial"/>
 <text id="text33" style="word-spacing:0;letter-spacing:0" font-size="129.23px" line-height="125%" y="151.36" x="1310.91" font-family="Gentium Book Basic">
  <tspan id="tspan35" y="151.36" x="1310.91"/>
 </text>
 <text id="text37" style="text-anchor:middle" font-size="46.954px" transform="scale(4.0128 .24920)" y="258.21869" x="523.75732" font-family="Arial"/>
 <text id="text39" style="word-spacing:0;letter-spacing:0" font-size="129.23px" line-height="125%" y="-29.900999" x="239.33" font-family="Gentium Book Basic">
  <tspan id="tspan41" y="-29.900999" x="239.33"/>
 </text>
 <text id="text43" style="text-anchor:middle" font-size="46.954px" transform="scale(4.0128 .24920)" y="-469.1376" x="256.71869" font-family="Arial"/>
 <text id="text45" style="word-spacing:0;letter-spacing:0" font-size="129.23px" line-height="125%" y="-246.37" x="1337.38" font-family="Gentium Book Basic">
  <tspan id="tspan47" y="-246.37" x="1337.38"/>
 </text>
 <text id="text49" style="text-anchor:middle" font-size="46.954px" transform="scale(4.0128 .24920)" y="-1337.8032" x="530.3573" font-family="Arial"/>
 <text id="text51" style="word-spacing:0;letter-spacing:0" font-size="129.23px" line-height="125%" y="-326.38" x="1918.65" font-family="Gentium Book Basic">
  <tspan id="tspan53" y="-326.38" x="1918.65"/>
 </text>
 <text id="text55" style="text-anchor:middle" font-size="46.954px" transform="scale(4.0128 .24920)" y="-1658.8414" x="675.20654" font-family="Arial"/>
 <text id="text57" style="word-spacing:0;letter-spacing:0" font-size="129.23px" line-height="125%" y="-798.78003" x="1529.53" font-family="Gentium Book Basic">
  <tspan id="tspan59" y="-798.78003" x="1529.53"/>
 </text>
 <text id="text61" style="text-anchor:middle" font-size="46.954px" transform="scale(4.0128 .24920)" y="-3554.4917" x="578.237" font-family="Arial"/>
 <text id="text63" style="word-spacing:0;letter-spacing:0" font-size="129.23px" line-height="125%" y="-878.78003" x="2110.79" font-family="Gentium Book Basic">
  <tspan id="tspan65" y="-878.78003" x="2110.79"/>
 </text>
 <text id="text67" style="text-anchor:middle" font-size="46.954px" transform="scale(4.0128 .24920)" y="-3875.5203" x="723.0863" font-family="Arial"/>
 <text id="text69" style="word-spacing:0;letter-spacing:0" font-size="208.33px" line-height="125%" y="535.94" x="277.98999" font-family="Gentium Book Basic">
  <tspan id="tspan71" y="535.94" x="277.98999"/>
 </text>
 <text id="text3031" style="word-spacing:0;letter-spacing:0" font-size="129.23px" line-height="125%" y="88.173561" x="-877.95319" font-family="Gentium Book Basic">
  <tspan id="tspan3033" y="88.173561" x="-877.95319"/>
 </text>
 <text id="text3035" style="text-anchor:middle" font-size="46.954px" transform="scale(4.0128 .24920)" y="4.6655416" x="-21.706223" font-family="Arial"/>
 <text id="text3037" style="word-spacing:0;letter-spacing:0" font-size="129.23px" line-height="125%" y="8.1735563" x="-296.6832" font-family="Gentium Book Basic">
  <tspan id="tspan3039" y="8.1735563" x="-296.6832"/>
 </text>
 <text id="text3041" style="text-anchor:middle" font-size="46.954px" transform="scale(4.0128 .24920)" y="-316.36282" x="123.14305" font-family="Arial"/>
 <text id="text3043" style="word-spacing:0;letter-spacing:0" font-size="129.23px" line-height="125%" y="-173.08743" x="-1368.2632" font-family="Gentium Book Basic">
  <tspan id="tspan3045" y="-173.08743" x="-1368.2632"/>
 </text>
 <text id="text3047" style="text-anchor:middle" font-size="46.954px" transform="scale(4.0128 .24920)" y="-1043.7191" x="-143.8956" font-family="Arial"/>
 <text id="text3049" style="word-spacing:0;letter-spacing:0" font-size="129.23px" line-height="125%" y="-389.55643" x="-270.21323" font-family="Gentium Book Basic">
  <tspan id="tspan3051" y="-389.55643" x="-270.21323"/>
 </text>
 <text id="text3053" style="text-anchor:middle" font-size="46.954px" transform="scale(4.0128 .24920)" y="-1912.3846" x="129.743" font-family="Arial"/>
 <text id="text3055" style="word-spacing:0;letter-spacing:0" font-size="129.23px" line-height="125%" y="-469.56644" x="311.05676" font-family="Gentium Book Basic">
  <tspan id="tspan3057" y="-469.56644" x="311.05676"/>
 </text>
 <text id="text3059" style="text-anchor:middle" font-size="46.954px" transform="scale(4.0128 .24920)" y="-2233.4231" x="274.59229" font-family="Arial"/>
 <text id="text3061" style="word-spacing:0;letter-spacing:0" font-size="129.23px" line-height="125%" y="-941.96649" x="-78.063171" font-family="Gentium Book Basic">
  <tspan id="tspan3063" y="-941.96649" x="-78.063171"/>
 </text>
 <text id="text3065" style="text-anchor:middle" font-size="46.954px" transform="scale(4.0128 .24920)" y="-4129.0732" x="177.62276" font-family="Arial"/>
 <text id="text3067" style="word-spacing:0;letter-spacing:0" font-size="129.23px" line-height="125%" y="-1021.9665" x="503.19678" font-family="Gentium Book Basic">
  <tspan id="tspan3069" y="-1021.9665" x="503.19678"/>
 </text>
 <text id="text3071" style="text-anchor:middle" font-size="46.954px" transform="scale(4.0128 .24920)" y="-4450.1016" x="322.47208" font-family="Arial"/>
 <text id="text3073" style="word-spacing:0;letter-spacing:0" font-size="208.33px" line-height="125%" y="392.75357" x="-1329.6033" font-family="Gentium Book Basic">
  <tspan id="tspan3075" y="392.75357" x="-1329.6033"/>
 </text>
 <text id="text4889" style="word-spacing:0;letter-spacing:0" font-size="208.33px" line-height="125%" y="-104.32049" x="-1758.5083" font-family="Gentium Book Basic">
  <tspan id="tspan4891" y="-104.32049" x="-1758.5083"/>
 </text>
 <text id="text4893" style="text-anchor:middle" font-size="75.698px" transform="scale(4.0128 .24920)" y="-981.51056" x="-120.49495" font-family="Arial"/>
 <text id="text4895" style="word-spacing:0;letter-spacing:0" font-size="208.33px" line-height="125%" y="-872.27222" x="-2406.2747" font-family="Gentium Book Basic">
  <tspan id="tspan4897" y="-872.27222" x="-2406.2747"/>
 </text>
 <text id="text4899" style="text-anchor:middle" font-size="75.698px" transform="scale(4.0128 .24920)" y="-4063.1748" x="-281.91852" font-family="Arial"/>
 <text id="text4901" style="word-spacing:0;letter-spacing:0" font-size="208.33px" line-height="125%" y="-1027.9041" x="-1699.9336" font-family="Gentium Book Basic">
  <tspan id="tspan4903" y="-1027.9041" x="-1699.9336"/>
 </text>
 <text id="text4905" style="text-anchor:middle" font-size="75.698px" transform="scale(4.0128 .24920)" y="-4687.6997" x="-105.89812" font-family="Arial"/>
 <text id="text3052" style="word-spacing:0;letter-spacing:0" font-size="129.23px" line-height="125%" y="183.6312" x="-802.021" font-family="Gentium Book Basic">
  <tspan id="tspan3054" y="183.6312" x="-802.021"/>
 </text>
 <text id="text3056" style="text-anchor:middle" font-size="46.954px" transform="scale(4.0128 .24920)" y="387.71991" x="-2.7838142" font-family="Arial"/>
 <text id="text3058" style="word-spacing:0;letter-spacing:0" font-size="129.23px" line-height="125%" y="103.63119" x="-220.75092" font-family="Gentium Book Basic">
  <tspan id="tspan3060" y="103.63119" x="-220.75092"/>
 </text>
 <text id="text3062" style="text-anchor:middle" font-size="46.954px" transform="scale(4.0128 .24920)" y="66.691528" x="142.06544" font-family="Arial"/>
 <text id="text3064" style="word-spacing:0;letter-spacing:0" font-size="129.23px" line-height="125%" y="-77.629807" x="-1292.3311" font-family="Gentium Book Basic">
  <tspan id="tspan3066" y="-77.629807" x="-1292.3311"/>
 </text>
 <text id="text3068" style="text-anchor:middle" font-size="46.954px" transform="scale(4.0128 .24920)" y="-660.66479" x="-124.97318" font-family="Arial"/>
 <text id="text3070" style="word-spacing:0;letter-spacing:0" font-size="129.23px" line-height="125%" y="-294.09882" x="-194.28094" font-family="Gentium Book Basic">
  <tspan id="tspan3072" y="-294.09882" x="-194.28094"/>
 </text>
 <text id="text3074" style="text-anchor:middle" font-size="46.954px" transform="scale(4.0128 .24920)" y="-1529.3303" x="148.66539" font-family="Arial"/>
 <text id="text3076" style="word-spacing:0;letter-spacing:0" font-size="129.23px" line-height="125%" y="-374.1088" x="386.98901" font-family="Gentium Book Basic">
  <tspan id="tspan3078" y="-374.1088" x="386.98901"/>
 </text>
 <text id="text3080" style="text-anchor:middle" font-size="46.954px" transform="scale(4.0128 .24920)" y="-1850.3687" x="293.51471" font-family="Arial"/>
 <text id="text3082" style="word-spacing:0;letter-spacing:0" font-size="129.23px" line-height="125%" y="-846.50885" x="-2.1309204" font-family="Gentium Book Basic">
  <tspan id="tspan3084" y="-846.50885" x="-2.1309204"/>
 </text>
 <text id="text3086" style="text-anchor:middle" font-size="46.954px" transform="scale(4.0128 .24920)" y="-3746.019" x="196.54515" font-family="Arial"/>
 <text id="text3088" style="word-spacing:0;letter-spacing:0" font-size="129.23px" line-height="125%" y="-926.50885" x="579.12903" font-family="Gentium Book Basic">
  <tspan id="tspan3090" y="-926.50885" x="579.12903"/>
 </text>
 <text id="text3092" style="text-anchor:middle" font-size="46.954px" transform="scale(4.0128 .24920)" y="-4067.0474" x="341.39444" font-family="Arial"/>
 <text id="text3094" style="word-spacing:0;letter-spacing:0" font-size="208.33px" line-height="125%" y="488.21121" x="-1253.671" font-family="Gentium Book Basic">
  <tspan id="tspan3096" y="488.21121" x="-1253.671"/>
 </text>
 <text id="text27-2" style="word-spacing:0;letter-spacing:0" font-size="129.23px" line-height="125%" y="686.33008" x="-596.62634" font-family="Gentium Book Basic">
  <tspan id="tspan29-5" y="686.33008" x="-596.62634"/>
 </text>
 <text id="text31-1" style="text-anchor:middle" font-size="46.954px" transform="scale(4.0128 .24920)" y="2404.9604" x="48.400787" font-family="Arial"/>
 <text id="text33-8" style="word-spacing:0;letter-spacing:0" font-size="129.23px" line-height="125%" y="606.33008" x="-15.356323" font-family="Gentium Book Basic">
  <tspan id="tspan35-5" y="606.33008" x="-15.356323"/>
 </text>
 <text id="text37-3" style="text-anchor:middle" font-size="46.954px" transform="scale(4.0128 .24920)" y="2083.9321" x="193.25005" font-family="Arial"/>
 <text id="text39-2" style="word-spacing:0;letter-spacing:0" font-size="129.23px" line-height="125%" y="425.06909" x="-1086.9364" font-family="Gentium Book Basic">
  <tspan id="tspan41-4" y="425.06909" x="-1086.9364"/>
 </text>
 <text id="text43-3" style="text-anchor:middle" font-size="46.954px" transform="scale(4.0128 .24920)" y="1356.5757" x="-73.788582" font-family="Arial"/>
 <text id="text45-2" style="word-spacing:0;letter-spacing:0" font-size="129.23px" line-height="125%" y="208.6001" x="11.113647" font-family="Gentium Book Basic">
  <tspan id="tspan47-2" y="208.6001" x="11.113647"/>
 </text>
 <text id="text49-5" style="text-anchor:middle" font-size="46.954px" transform="scale(4.0128 .24920)" y="487.9101" x="199.84999" font-family="Arial"/>
 <text id="text51-8" style="word-spacing:0;letter-spacing:0" font-size="129.23px" line-height="125%" y="128.59007" x="592.38367" font-family="Gentium Book Basic">
  <tspan id="tspan53-0" y="128.59007" x="592.38367"/>
 </text>
 <text id="text55-5" style="text-anchor:middle" font-size="46.954px" transform="scale(4.0128 .24920)" y="166.8718" x="344.69931" font-family="Arial"/>
 <text id="text57-7" style="word-spacing:0;letter-spacing:0" font-size="129.23px" line-height="125%" y="-343.80994" x="203.26367" font-family="Gentium Book Basic">
  <tspan id="tspan59-7" y="-343.80994" x="203.26367"/>
 </text>
 <text id="text61-8" style="text-anchor:middle" font-size="46.954px" transform="scale(4.0128 .24920)" y="-1728.7786" x="247.72975" font-family="Arial"/>
 <text id="text63-2" style="word-spacing:0;letter-spacing:0" font-size="129.23px" line-height="125%" y="-423.80994" x="784.52368" font-family="Gentium Book Basic">
  <tspan id="tspan65-4" y="-423.80994" x="784.52368"/>
 </text>
 <text id="text67-2" style="text-anchor:middle" font-size="46.954px" transform="scale(4.0128 .24920)" y="-2049.8069" x="392.57907" font-family="Arial"/>
 <text id="text69-5" style="word-spacing:0;letter-spacing:0" font-size="208.33px" line-height="125%" y="990.9101" x="-1048.2764" font-family="Gentium Book Basic">
  <tspan id="tspan71-9" y="990.9101" x="-1048.2764"/>
 </text>
 <text id="text20-63" style="word-spacing:0;letter-spacing:0" font-size="129.23px" line-height="125%" y="608.22833" x="-1540.3552" font-family="Gentium Book Basic">
  <tspan id="tspan22-8" y="608.22833" x="-1540.3552"/>
 </text>
 <text id="text24-5" style="text-anchor:middle" font-size="46.954px" transform="scale(4.0128 .24920)" y="2091.5522" x="-186.77763" font-family="Arial"/>
 <text id="text26-1" style="word-spacing:0;letter-spacing:0" font-size="129.23px" line-height="125%" y="528.22833" x="-959.08514" font-family="Gentium Book Basic">
  <tspan id="tspan28-4" y="528.22833" x="-959.08514"/>
 </text>
 <text id="text30-2" style="text-anchor:middle" font-size="46.954px" transform="scale(4.0128 .24920)" y="1770.5238" x="-41.92836" font-family="Arial"/>
 <text id="text32-0" style="word-spacing:0;letter-spacing:0" font-size="129.23px" line-height="125%" y="346.96738" x="-2030.6652" font-family="Gentium Book Basic">
  <tspan id="tspan34-8" y="346.96738" x="-2030.6652"/>
 </text>
 <text id="text36-8" style="text-anchor:middle" font-size="46.954px" transform="scale(4.0128 .24920)" y="1043.1675" x="-308.96701" font-family="Arial"/>
 <text id="text38-1" style="word-spacing:0;letter-spacing:0" font-size="129.23px" line-height="125%" y="130.4984" x="-932.61517" font-family="Gentium Book Basic">
  <tspan id="tspan40-8" y="130.4984" x="-932.61517"/>
 </text>
 <text id="text42-25" style="text-anchor:middle" font-size="46.954px" transform="scale(4.0128 .24920)" y="174.50195" x="-35.328445" font-family="Arial"/>
 <text id="text44-5" style="word-spacing:0;letter-spacing:0" font-size="129.23px" line-height="125%" y="50.488392" x="-351.34515" font-family="Gentium Book Basic">
  <tspan id="tspan46-3" y="50.488392" x="-351.34515"/>
 </text>
 <text id="text48-1" style="text-anchor:middle" font-size="46.954px" transform="scale(4.0128 .24920)" y="-146.53627" x="109.52086" font-family="Arial"/>
 <text id="text50-0" style="word-spacing:0;letter-spacing:0" font-size="129.23px" line-height="125%" y="-421.91162" x="-740.46515" font-family="Gentium Book Basic">
  <tspan id="tspan52-2" y="-421.91162" x="-740.46515"/>
 </text>
 <text id="text54-80" style="text-anchor:middle" font-size="46.954px" transform="scale(4.0128 .24920)" y="-2042.1866" x="12.551314" font-family="Arial"/>
 <text id="text56-71" style="word-spacing:0;letter-spacing:0" font-size="129.23px" line-height="125%" y="-501.91162" x="-159.20508" font-family="Gentium Book Basic">
  <tspan id="tspan58-2" y="-501.91162" x="-159.20508"/>
 </text>
 <text id="text60-4" style="text-anchor:middle" font-size="46.954px" transform="scale(4.0128 .24920)" y="-2363.2151" x="157.40062" font-family="Arial"/>
 <text id="text62-1" style="word-spacing:0;letter-spacing:0" font-size="208.33px" line-height="125%" y="912.80835" x="-1992.0052" font-family="Gentium Book Basic">
  <tspan id="tspan64-6" y="912.80835" x="-1992.0052"/>
 </text>
 <text id="text20-2" style="word-spacing:0;letter-spacing:0" font-size="129.23px" line-height="125%" y="683.07355" x="-1292.9022" font-family="Gentium Book Basic">
  <tspan id="tspan22-5" y="683.07355" x="-1292.9022"/>
 </text>
 <text id="text24-8" style="text-anchor:middle" font-size="46.954px" transform="scale(4.0128 .24920)" y="2391.8926" x="-125.11204" font-family="Arial"/>
 <text id="text26-6" style="word-spacing:0;letter-spacing:0" font-size="129.23px" line-height="125%" y="603.07355" x="-711.6322" font-family="Gentium Book Basic">
  <tspan id="tspan28-2" y="603.07355" x="-711.6322"/>
 </text>
 <text id="text30-6" style="text-anchor:middle" font-size="46.954px" transform="scale(4.0128 .24920)" y="2070.8643" x="19.737228" font-family="Arial"/>
 <text id="text32-8" style="word-spacing:0;letter-spacing:0" font-size="129.23px" line-height="125%" y="421.81256" x="-1783.2122" font-family="Gentium Book Basic">
  <tspan id="tspan34-6" y="421.81256" x="-1783.2122"/>
 </text>
 <text id="text36-2" style="text-anchor:middle" font-size="46.954px" transform="scale(4.0128 .24920)" y="1343.5078" x="-247.30142" font-family="Arial"/>
 <text id="text38-8" style="word-spacing:0;letter-spacing:0" font-size="129.23px" line-height="125%" y="205.34357" x="-685.16223" font-family="Gentium Book Basic">
  <tspan id="tspan40-3" y="205.34357" x="-685.16223"/>
 </text>
 <text id="text42-2-4" style="text-anchor:middle" font-size="46.954px" transform="scale(4.0128 .24920)" y="474.84229" x="26.337173" font-family="Arial"/>
 <text id="text44-1" style="word-spacing:0;letter-spacing:0" font-size="129.23px" line-height="125%" y="125.33356" x="-103.89221" font-family="Gentium Book Basic">
  <tspan id="tspan46-6-0" y="125.33356" x="-103.89221"/>
 </text>
 <text id="text48-7" style="text-anchor:middle" font-size="46.954px" transform="scale(4.0128 .24920)" y="153.80396" x="171.18645" font-family="Arial"/>
 <text id="text50-2" style="word-spacing:0;letter-spacing:0" font-size="129.23px" line-height="125%" y="-347.06647" x="-493.01221" font-family="Gentium Book Basic">
  <tspan id="tspan52-4" y="-347.06647" x="-493.01221"/>
 </text>
 <text id="text54-8" style="text-anchor:middle" font-size="46.954px" transform="scale(4.0128 .24920)" y="-1741.8463" x="74.216934" font-family="Arial"/>
 <text id="text56-7" style="word-spacing:0;letter-spacing:0" font-size="129.23px" line-height="125%" y="-427.06647" x="88.247803" font-family="Gentium Book Basic">
  <tspan id="tspan58-0" y="-427.06647" x="88.247803"/>
 </text>
 <text id="text60-9" style="text-anchor:middle" font-size="46.954px" transform="scale(4.0128 .24920)" y="-2062.8748" x="219.06621" font-family="Arial"/>
 <text id="text62-5" style="word-spacing:0;letter-spacing:0" font-size="208.33px" line-height="125%" y="987.6535" x="-1744.5522" font-family="Gentium Book Basic">
  <tspan id="tspan64-2" y="987.6535" x="-1744.5522"/>
 </text>
 <text id="text3031-3" style="word-spacing:0;letter-spacing:0" font-size="129.23px" line-height="125%" y="0.81718713" x="-2158.9431" font-family="Gentium Book Basic">
  <tspan id="tspan3033-9" y="0.81718713" x="-2158.9431"/>
 </text>
 <text id="text3035-2" style="text-anchor:middle" font-size="46.954px" transform="scale(4.0128 .24920)" y="-345.87991" x="-340.93054" font-family="Arial"/>
 <text id="text3037-9" style="word-spacing:0;letter-spacing:0" font-size="129.23px" line-height="125%" y="-79.182816" x="-1577.6731" font-family="Gentium Book Basic">
  <tspan id="tspan3039-5" y="-79.182816" x="-1577.6731"/>
 </text>
 <text id="text3041-6" style="text-anchor:middle" font-size="46.954px" transform="scale(4.0128 .24920)" y="-666.90826" x="-196.08127" font-family="Arial"/>
 <text id="text3043-2" style="word-spacing:0;letter-spacing:0" font-size="129.23px" line-height="125%" y="-260.44382" x="-2649.2532" font-family="Gentium Book Basic">
  <tspan id="tspan3045-0" y="-260.44382" x="-2649.2532"/>
 </text>
 <text id="text3047-2" style="text-anchor:middle" font-size="46.954px" transform="scale(4.0128 .24920)" y="-1394.2645" x="-463.11993" font-family="Arial"/>
 <text id="text3049-4" style="word-spacing:0;letter-spacing:0" font-size="129.23px" line-height="125%" y="-476.91281" x="-1551.2031" font-family="Gentium Book Basic">
  <tspan id="tspan3051-5" y="-476.91281" x="-1551.2031"/>
 </text>
 <text id="text3053-0" style="text-anchor:middle" font-size="46.954px" transform="scale(4.0128 .24920)" y="-2262.9302" x="-189.48132" font-family="Arial"/>
 <text id="text3055-7" style="word-spacing:0;letter-spacing:0" font-size="129.23px" line-height="125%" y="-556.92285" x="-969.93311" font-family="Gentium Book Basic">
  <tspan id="tspan3057-4" y="-556.92285" x="-969.93311"/>
 </text>
 <text id="text3059-9" style="text-anchor:middle" font-size="46.954px" transform="scale(4.0128 .24920)" y="-2583.9685" x="-44.63205" font-family="Arial"/>
 <text id="text3061-0" style="word-spacing:0;letter-spacing:0" font-size="129.23px" line-height="125%" y="-1029.3229" x="-1359.0531" font-family="Gentium Book Basic">
  <tspan id="tspan3063-9" y="-1029.3229" x="-1359.0531"/>
 </text>
 <text id="text3065-8" style="text-anchor:middle" font-size="46.954px" transform="scale(4.0128 .24920)" y="-4479.6187" x="-141.60156" font-family="Arial"/>
 <text id="text3067-7" style="word-spacing:0;letter-spacing:0" font-size="129.23px" line-height="125%" y="-1109.3228" x="-777.79315" font-family="Gentium Book Basic">
  <tspan id="tspan3069-7" y="-1109.3228" x="-777.79315"/>
 </text>
 <text id="text3071-9" style="text-anchor:middle" font-size="46.954px" transform="scale(4.0128 .24920)" y="-4800.647" x="3.247741" font-family="Arial"/>
 <text id="text3073-9" style="word-spacing:0;letter-spacing:0" font-size="208.33px" line-height="125%" y="305.39719" x="-2610.5933" font-family="Gentium Book Basic">
  <tspan id="tspan3075-2" y="305.39719" x="-2610.5933"/>
 </text>
 <text id="text4889-0" style="word-spacing:0;letter-spacing:0" font-size="208.33px" line-height="125%" y="-191.67686" x="-3039.498" font-family="Gentium Book Basic">
  <tspan id="tspan4891-9" y="-191.67686" x="-3039.498"/>
 </text>
 <text id="text4893-1" style="text-anchor:middle" font-size="75.698px" transform="scale(4.0128 .24920)" y="-1332.0574" x="-439.71802" font-family="Arial"/>
 <text id="text4895-6" style="word-spacing:0;letter-spacing:0" font-size="208.33px" line-height="125%" y="-959.6286" x="-3687.2646" font-family="Gentium Book Basic">
  <tspan id="tspan4897-1" y="-959.6286" x="-3687.2646"/>
 </text>
 <text id="text4899-3" style="text-anchor:middle" font-size="75.698px" transform="scale(4.0128 .24920)" y="-4413.7217" x="-601.1416" font-family="Arial"/>
 <text id="text4901-5" style="word-spacing:0;letter-spacing:0" font-size="208.33px" line-height="125%" y="-1115.2604" x="-2980.9233" font-family="Gentium Book Basic">
  <tspan id="tspan4903-8" y="-1115.2604" x="-2980.9233"/>
 </text>
 <text id="text4905-1" style="text-anchor:middle" font-size="75.698px" transform="scale(4.0128 .24920)" y="-5038.2466" x="-425.12119" font-family="Arial"/>
 <text id="text20-6" style="word-spacing:0;letter-spacing:0" font-size="129.23px" line-height="125%" y="170.03752" x="-2508.2314" font-family="Gentium Book Basic">
  <tspan id="tspan22-4" y="170.03752" x="-2508.2314"/>
 </text>
 <text id="text24-4" style="text-anchor:middle" font-size="46.954px" transform="scale(4.0128 .24920)" y="333.1709" x="-427.9736" font-family="Arial"/>
 <text id="text26-63" style="word-spacing:0;letter-spacing:0" font-size="129.23px" line-height="125%" y="90.037529" x="-1926.9613" font-family="Gentium Book Basic">
  <tspan id="tspan28-0" y="90.037529" x="-1926.9613"/>
 </text>
 <text id="text30-5" style="text-anchor:middle" font-size="46.954px" transform="scale(4.0128 .24920)" y="12.142592" x="-283.12433" font-family="Arial"/>
 <text id="text32-3" style="word-spacing:0;letter-spacing:0" font-size="129.23px" line-height="125%" y="-91.223473" x="-2998.5413" font-family="Gentium Book Basic">
  <tspan id="tspan34-0" y="-91.223473" x="-2998.5413"/>
 </text>
 <text id="text36-5" style="text-anchor:middle" font-size="46.954px" transform="scale(4.0128 .24920)" y="-715.21375" x="-550.16296" font-family="Arial"/>
 <text id="text38-0" style="word-spacing:0;letter-spacing:0" font-size="129.23px" line-height="125%" y="-307.69247" x="-1900.4913" font-family="Gentium Book Basic">
  <tspan id="tspan40-9" y="-307.69247" x="-1900.4913"/>
 </text>
 <text id="text42-7" style="text-anchor:middle" font-size="46.954px" transform="scale(4.0128 .24920)" y="-1583.8793" x="-276.52441" font-family="Arial"/>
 <text id="text44-11" style="word-spacing:0;letter-spacing:0" font-size="129.23px" line-height="125%" y="-387.70248" x="-1319.2213" font-family="Gentium Book Basic">
  <tspan id="tspan46-4" y="-387.70248" x="-1319.2213"/>
 </text>
 <text id="text48-77" style="text-anchor:middle" font-size="46.954px" transform="scale(4.0128 .24920)" y="-1904.9175" x="-131.67511" font-family="Arial"/>
 <text id="text50-28" style="word-spacing:0;letter-spacing:0" font-size="129.23px" line-height="125%" y="-860.10254" x="-1708.3413" font-family="Gentium Book Basic">
  <tspan id="tspan52-0" y="-860.10254" x="-1708.3413"/>
 </text>
 <text id="text54-4" style="text-anchor:middle" font-size="46.954px" transform="scale(4.0128 .24920)" y="-3800.5679" x="-228.64462" font-family="Arial"/>
 <text id="text56-2" style="word-spacing:0;letter-spacing:0" font-size="129.23px" line-height="125%" y="-940.10254" x="-1127.0813" font-family="Gentium Book Basic">
  <tspan id="tspan58-6" y="-940.10254" x="-1127.0813"/>
 </text>
 <text id="text60-5" style="text-anchor:middle" font-size="46.954px" transform="scale(4.0128 .24920)" y="-4121.5962" x="-83.795349" font-family="Arial"/>
 <text id="text62-7" style="word-spacing:0;letter-spacing:0" font-size="208.33px" line-height="125%" y="474.61752" x="-2959.8813" font-family="Gentium Book Basic">
  <tspan id="tspan64-3" y="474.61752" x="-2959.8813"/>
 </text>
 <path id="path4" d="m471.93 253.06c0 120.9-98.008 218.9-218.9 218.9-120.9 0-218.9-98.008-218.9-218.9 0-120.9 98.008-218.9 218.9-218.9 120.9 0 218.9 98.008 218.9 218.9" fill-rule="evenodd" fill="#68af4c"/>
 <path id="path6" fill-opacity=".235" d="m372.3 117.16c-2.666 0-5.332 1.02-7.3749 3.063l-111.97 111.97c-2.644 0.007-5.265 0.51599-7.7189 1.5l-100.97-89.219c-3.962-3.5-9.9689-3.118-13.469 0.84399-3.5 3.962-3.118 9.9689 0.84399 13.469l0.125 0.094c0.271 0.30999 0.55799 0.62599 0.87499 0.90599l0.125 0.094c0.271 0.31 0.558 0.62599 0.87499 0.90599 0 0 0.094 0.062 0.094 0.063 0.278 0.32 0.58 0.649 0.906 0.93799l0.15599 0.125c0.258 0.291 0.513 0.579 0.813 0.844 0 0 0.187 0.156 0.188 0.156 0.25799 0.29099 0.51299 0.57899 0.81299 0.84399 0 0 0.187 0.156 0.188 0.156 0.258 0.291 0.51299 0.57899 0.81299 0.84399l0.125 0.094c0.271 0.31 0.558 0.626 0.87499 0.90599l0.125 0.094c0.271 0.31 0.558 0.626 0.875 0.906 0 0 0.094 0.062 0.094 0.063 0.27799 0.32 0.57999 0.649 0.90599 0.938 0 0 0.094 0.062 0.094 0.063 0.278 0.31999 0.54799 0.61799 0.87499 0.90599 0 0 0.187 0.156 0.188 0.156 0.258 0.291 0.513 0.57899 0.81299 0.84399 0 0 0.187 0.156 0.188 0.156 0.258 0.291 0.513 0.579 0.81299 0.84399l0.188 0.188c0.253 0.284 0.52 0.554 0.813 0.813 0 0 0.125 0.093 0.125 0.094 0.27099 0.30999 0.55799 0.62599 0.87499 0.90599l0.094 0.063c0.278 0.31999 0.57999 0.64899 0.90599 0.93799 0 0 0.094 0.062 0.094 0.063 0.278 0.32 0.548 0.61799 0.87499 0.90599 0 0 0.187 0.156 0.188 0.156 0.258 0.291 0.513 0.579 0.813 0.84399 0 0 0.18699 0.156 0.18799 0.156 0.258 0.291 0.513 0.579 0.813 0.844l0.188 0.188c0.25299 0.28399 0.51999 0.55399 0.81299 0.81299 0 0 0.125 0.093 0.125 0.094 0.271 0.31 0.55799 0.62599 0.87499 0.90599 0 0 0.125 0.093 0.125 0.094 0.271 0.31 0.558 0.626 0.87499 0.90599l0.094 0.063c0.278 0.32 0.548 0.618 0.875 0.906l0.031 0.031 0.15599 0.12499c0.258 0.291 0.513 0.579 0.813 0.844l0.188 0.156c0.25799 0.29099 0.51299 0.57899 0.81299 0.84399 0 0 0.187 0.156 0.188 0.156 0.258 0.291 0.51299 0.57899 0.81299 0.84399l0.125 0.094c0.271 0.31 0.558 0.626 0.87499 0.90599l0.125 0.094c0.271 0.31 0.558 0.626 0.875 0.906l0.094 0.063c0.27799 0.31999 0.57999 0.64899 0.90599 0.93799l0.156 0.125c0.258 0.29099 0.51299 0.57899 0.81299 0.84399 0 0 0.187 0.156 0.188 0.156 0.258 0.291 0.513 0.57899 0.81299 0.84399l0.188 0.156c0.258 0.291 0.513 0.579 0.813 0.84399 0 0 0.12499 0.093 0.12499 0.094 0.271 0.31 0.558 0.626 0.875 0.906l0.125 0.094c0.27099 0.30999 0.55799 0.62599 0.87499 0.90599 0 0 0.094 0.062 0.094 0.063 0.278 0.32 0.57999 0.64899 0.90599 0.93799l0.094 0.063c0.278 0.32 0.548 0.618 0.87499 0.90599 0 0 0.187 0.156 0.188 0.156 0.258 0.291 0.513 0.579 0.813 0.844l0.18799 0.15599c0.258 0.291 0.513 0.579 0.813 0.844l0.188 0.188c0.25299 0.28399 0.51999 0.55399 0.81299 0.81299 0 0 0.125 0.093 0.125 0.094 0.271 0.31 0.55799 0.62599 0.87499 0.90599l0.094 0.063c0.278 0.32 0.58 0.649 0.90599 0.93799 0 0 0.094 0.062 0.094 0.063 0.278 0.32 0.548 0.618 0.875 0.906l0.188 0.15599c0.25799 0.291 0.51299 0.579 0.81299 0.844l0.188 0.156c0.258 0.29099 0.51299 0.57899 0.81299 0.84399l0.188 0.156c0.258 0.291 0.513 0.57899 0.81299 0.84399l0.125 0.094c0.271 0.31 0.558 0.626 0.875 0.90599 0 0 0.12499 0.093 0.12499 0.094 0.271 0.31 0.558 0.626 0.875 0.906l0.094 0.063c0.27799 0.31999 0.57999 0.64899 0.90599 0.93799 0 0 0.156 0.124 0.156 0.125 0.258 0.291 0.51299 0.57899 0.81299 0.84399l0.188 0.156c0.258 0.291 0.513 0.579 0.81299 0.84399l0.188 0.156c0.258 0.291 0.513 0.579 0.813 0.844 0 0 0.125 0.093 0.125 0.094 0.27099 0.31 0.55799 0.626 0.87499 0.906 0 0 0.125 0.093 0.125 0.094 0.27099 0.30999 0.55799 0.62599 0.87499 0.90599l0.094 0.063c0.278 0.32 0.57999 0.64899 0.90599 0.93799l0.156 0.125c0.258 0.291 0.513 0.579 0.81299 0.84399 0 0 0.187 0.155 0.188 0.156 0.258 0.291 0.513 0.579 0.813 0.844l0.188 0.15599c0.25799 0.291 0.51299 0.579 0.81299 0.844l0.188 0.188c0.253 0.28399 0.51999 0.55399 0.81299 0.81299l0.125 0.094c0.271 0.31 0.558 0.62599 0.87499 0.90599l0.094 0.063c0.278 0.32 0.58 0.649 0.906 0.93799l0.094 0.063c0.278 0.32 0.548 0.618 0.875 0.906l0.188 0.156c0.25799 0.29099 0.51299 0.57899 0.81299 0.84399 0 0 0.187 0.155 0.188 0.156 0.258 0.291 0.51299 0.57899 0.81299 0.84399l0.188 0.188c0.253 0.284 0.52 0.55399 0.81299 0.81299 0 0 0.125 0.093 0.125 0.094 0.271 0.31 0.558 0.626 0.875 0.90599l0.12499 0.094c0.271 0.31 0.558 0.626 0.875 0.906l0.094 0.063c0.278 0.31999 0.54799 0.61799 0.87499 0.90599l0.031 0.031s0.156 0.124 0.156 0.125c0.258 0.291 0.51299 0.57899 0.81299 0.84399 0 0 0.187 0.155 0.188 0.156 0.258 0.291 0.513 0.579 0.81299 0.84399l0.188 0.156c0.258 0.291 0.513 0.579 0.813 0.844l0.125 0.094c0.27099 0.31 0.55799 0.626 0.87499 0.906 0 0 0.125 0.093 0.125 0.094 0.271 0.30999 0.55799 0.62599 0.87499 0.90599l0.094 0.063c0.278 0.32 0.58 0.64899 0.90599 0.93799 0 0 0.156 0.124 0.156 0.125 0.258 0.291 0.513 0.579 0.813 0.84399l0.18799 0.156c0.258 0.291 0.513 0.579 0.813 0.844l0.188 0.156c0.25799 0.29099 0.51299 0.57899 0.81299 0.84399l0.125 0.094c0.271 0.31 0.55799 0.62599 0.87499 0.90599l0.125 0.094c0.271 0.31 0.558 0.62599 0.87499 0.90599 0 0 0.093 0.062 0.094 0.063 0.278 0.32 0.58 0.649 0.906 0.93799l0.094 0.063c0.278 0.32 0.548 0.618 0.875 0.906 0 0 0.187 0.155 0.188 0.156 0.25799 0.29099 0.51299 0.57899 0.81299 0.84399l0.188 0.156c0.258 0.291 0.51299 0.57899 0.81299 0.84399l0.188 0.188c0.253 0.284 0.52 0.554 0.81299 0.81299l0.125 0.094c0.271 0.31 0.558 0.626 0.875 0.906 0 0 0.093 0.062 0.094 0.063 0.27799 0.32 0.57999 0.649 0.90599 0.938l0.094 0.063c0.278 0.31999 0.54799 0.61799 0.87499 0.90599l0.188 0.156c0.258 0.291 0.513 0.57899 0.81299 0.84399 0 0 0.187 0.155 0.188 0.156 0.258 0.291 0.513 0.579 0.813 0.84399l0.18799 0.156c0.258 0.291 0.513 0.579 0.813 0.844 0 0 0.125 0.093 0.125 0.094 0.27099 0.30999 0.55799 0.62599 0.87499 0.90599l0.125 0.094c0.271 0.31 0.55799 0.62599 0.87499 0.90599l0.094 0.063c0.278 0.32 0.58 0.64899 0.90599 0.93799l0.156 0.125c0.258 0.291 0.513 0.579 0.813 0.84399l0.18799 0.156c0.258 0.291 0.513 0.579 0.813 0.844 0 0 0.187 0.155 0.188 0.156 0.25799 0.29099 0.51299 0.57899 0.81299 0.84399l0.125 0.094c0.271 0.31 0.55799 0.62599 0.87499 0.90599 0 0 0.125 0.093 0.125 0.094 0.271 0.31 0.558 0.626 0.87499 0.90599l0.094 0.063c0.278 0.32 0.58 0.649 0.906 0.938l0.156 0.12499c0.25799 0.291 0.51299 0.579 0.81299 0.844 0 0 0.186 0.155 0.188 0.156 0.258 0.29099 0.51299 0.57899 0.81299 0.84399 0 0 0.155 0.156 0.156 0.156 0.262 0.297 0.539 0.57399 0.84399 0.84399l0.125 0.094c0.271 0.31 0.558 0.626 0.87499 0.90599l0.125 0.094c0.271 0.31 0.558 0.626 0.875 0.906l0.063 0.063c0.146 0.16899 0.30899 0.33899 0.46899 0.49999 1.118 2.759 2.841 5.274 5.03 7.3439 0.341 0.368 0.694 0.718 1.063 1.063 0.368 0.39399 0.725 0.78999 1.125 1.156l-73.189 134.75c-1.258 2.319-0.55199 5.259 1.563 6.781 0.291 0.366 0.609 0.71799 0.99999 0.99999 0.264 0.332 0.529 0.643 0.875 0.90599 0.28199 0.373 0.61799 0.709 0.99999 1 0.281 0.37299 0.61799 0.70899 0.99999 0.99999 0.295 0.38999 0.657 0.73199 1.063 1.031 0.297 0.38 0.628 0.74099 1.031 1.031 0.291 0.366 0.609 0.718 1 0.99999 0.26399 0.332 0.52899 0.643 0.87499 0.906 0.282 0.37299 0.61799 0.70899 0.99999 0.99999 0.281 0.37299 0.618 0.70899 0.99999 0.99999 0.281 0.373 0.618 0.70899 1 0.99999 0.29499 0.39 0.65699 0.732 1.063 1.031 0.297 0.38 0.62799 0.741 1.031 1.031 0.264 0.33199 0.529 0.64299 0.87499 0.90599 0.282 0.373 0.618 0.70899 0.99999 0.99999 0.281 0.373 0.618 0.709 1 0.99999 0.28099 0.373 0.61799 0.709 0.99999 0.99999 0.295 0.39 0.65699 0.732 1.063 1.031 0.297 0.37999 0.628 0.74099 1.031 1.031 0.291 0.366 0.609 0.71799 0.99999 0.99999 0.264 0.332 0.529 0.643 0.875 0.90599 0.282 0.373 0.61799 0.709 0.99999 1 0.281 0.37299 0.61799 0.70899 0.99999 0.99999 0.295 0.38999 0.657 0.73199 1.063 1.031 0.297 0.38 0.628 0.74099 1.031 1.031 0.29099 0.366 0.60899 0.718 0.99999 0.99999 0.264 0.332 0.52899 0.643 0.87499 0.906 0.282 0.37299 0.618 0.70899 0.99999 0.99999 0.281 0.373 0.618 0.70899 0.99999 0.99999 0.295 0.39 0.657 0.73199 1.063 1.031 0.29699 0.38 0.62799 0.741 1.031 1.031 0.291 0.366 0.60899 0.718 0.99999 1 0.264 0.33199 0.529 0.64299 0.87499 0.90599 0.282 0.373 0.618 0.70899 1 0.99999 0.28099 0.373 0.61799 0.709 0.99999 0.99999 0.281 0.373 0.61799 0.709 0.99999 1 0.295 0.38999 0.65699 0.73199 1.063 1.031 0.297 0.37999 0.628 0.74099 1.031 1.031 0.291 0.366 0.609 0.71799 1 0.99999 0.26399 0.332 0.52899 0.643 0.87499 0.90599 0.282 0.373 0.61799 0.709 0.99999 1 0.281 0.37299 0.618 0.70899 0.99999 0.99999 0.295 0.39 0.657 0.73199 1.063 1.031 0.297 0.38 0.628 0.74099 1.031 1.031 0.29099 0.366 0.60899 0.718 0.99999 0.99999 0.264 0.332 0.52899 0.643 0.87499 0.906 0.282 0.37299 0.618 0.70899 0.99999 0.99999 0.281 0.373 0.618 0.70899 1 0.99999 0.29499 0.39 0.65699 0.732 1.063 1.031 0.29699 0.38 0.62799 0.741 1.031 1.031 0.291 0.36599 0.60899 0.71799 0.99999 0.99999 0.264 0.33199 0.529 0.64299 0.87499 0.90599 0.282 0.373 0.618 0.70899 1 0.99999 0.28099 0.373 0.61799 0.709 0.99999 0.99999 0.295 0.391 0.65699 0.731 1.063 1.031 0.284 0.36299 0.61799 0.71799 0.99999 0.99999 0.297 0.38 0.628 0.74099 1.031 1.031 0.264 0.332 0.529 0.64299 0.875 0.90599 0.25899 0.344 0.56099 0.663 0.90599 0.938 8.2879 0.95199 16.707 1.469 25.25 1.469 120.9 0 218.91-98.009 218.91-218.91 0-15.523-1.615-30.672-4.688-45.28-0.202-0.202-0.411-0.38-0.625-0.56299-0.127-0.141-0.239-0.302-0.37499-0.438-0.202-0.202-0.411-0.38-0.625-0.563-0.127-0.141-0.239-0.30199-0.375-0.43799-0.20199-0.202-0.41099-0.38-0.62499-0.563-0.127-0.141-0.239-0.302-0.375-0.438-0.165-0.16499-0.327-0.31699-0.49999-0.46899-0.152-0.173-0.304-0.335-0.469-0.5-0.136-0.136-0.297-0.248-0.438-0.37499-0.182-0.214-0.35999-0.423-0.56299-0.625-0.136-0.136-0.297-0.248-0.438-0.375-0.182-0.214-0.36-0.42299-0.563-0.62499-0.20199-0.202-0.41099-0.38-0.62499-0.563-0.127-0.141-0.239-0.302-0.375-0.43799-0.202-0.202-0.41099-0.38-0.62499-0.563-0.127-0.141-0.239-0.302-0.375-0.438-0.202-0.20199-0.411-0.37999-0.62499-0.56299-0.127-0.141-0.239-0.302-0.375-0.438-0.165-0.165-0.327-0.317-0.5-0.46899-0.152-0.173-0.304-0.335-0.46899-0.5-0.136-0.136-0.297-0.248-0.438-0.375-0.182-0.214-0.36-0.42299-0.563-0.62499-0.13599-0.136-0.29699-0.248-0.43799-0.375-0.182-0.214-0.36-0.423-0.563-0.62499-0.136-0.136-0.297-0.248-0.43799-0.375-0.182-0.214-0.36-0.423-0.563-0.625-0.202-0.202-0.411-0.37999-0.625-0.56299-0.12699-0.141-0.23899-0.302-0.37499-0.438-0.202-0.202-0.411-0.38-0.625-0.56299-0.127-0.141-0.239-0.302-0.37499-0.438-0.165-0.165-0.327-0.317-0.5-0.469-0.152-0.173-0.304-0.33499-0.469-0.49999-0.136-0.136-0.29699-0.248-0.43799-0.375-0.182-0.214-0.36-0.423-0.563-0.625-0.136-0.13599-0.297-0.24799-0.438-0.37499-0.18199-0.214-0.35999-0.423-0.56299-0.625-0.136-0.136-0.297-0.248-0.438-0.37499-0.182-0.214-0.35999-0.423-0.56299-0.625-0.202-0.202-0.411-0.38-0.625-0.563-0.127-0.14099-0.239-0.30199-0.375-0.43799-0.20199-0.202-0.41099-0.38-0.62499-0.563-0.127-0.141-0.239-0.30199-0.375-0.43799-0.202-0.202-0.41099-0.38-0.62499-0.563-0.127-0.141-0.239-0.302-0.375-0.438-0.131-0.13099-0.271-0.22199-0.406-0.34399-0.18199-0.214-0.35999-0.423-0.56299-0.625-0.136-0.136-0.297-0.248-0.438-0.375-0.182-0.21399-0.36-0.42299-0.56299-0.62499-0.136-0.136-0.297-0.248-0.438-0.375-0.182-0.214-0.36-0.42299-0.563-0.62499-0.20199-0.202-0.41099-0.38-0.62499-0.563-0.127-0.141-0.239-0.302-0.375-0.43799-0.202-0.202-0.41099-0.38-0.62499-0.563-0.127-0.141-0.239-0.302-0.375-0.438-0.202-0.202-0.411-0.37999-0.625-0.56299-0.12699-0.141-0.23899-0.302-0.37499-0.438-0.165-0.165-0.327-0.317-0.5-0.469-0.152-0.17299-0.304-0.33499-0.46899-0.49999-0.136-0.136-0.297-0.248-0.438-0.375-0.182-0.214-0.36-0.42299-0.563-0.62499-0.136-0.136-0.29699-0.248-0.43799-0.375-0.182-0.214-0.36-0.423-0.563-0.625-0.17-0.16999-0.353-0.31299-0.53099-0.46899-0.156-0.179-0.298-0.361-0.469-0.531-0.202-0.202-0.411-0.37999-0.625-0.56299-0.12699-0.141-0.23899-0.302-0.37499-0.438-0.202-0.202-0.411-0.38-0.625-0.563-0.127-0.14099-0.239-0.30199-0.37499-0.43799-0.165-0.165-0.327-0.317-0.5-0.469-0.152-0.173-0.304-0.335-0.469-0.49999-0.136-0.136-0.29699-0.248-0.43799-0.375-0.182-0.214-0.36-0.423-0.563-0.625-0.136-0.13599-0.297-0.24799-0.438-0.37499-0.18199-0.214-0.35999-0.423-0.56299-0.625-0.136-0.136-0.297-0.248-0.438-0.375-0.182-0.21399-0.36-0.42299-0.56299-0.62499-0.202-0.202-0.411-0.38-0.625-0.563-0.127-0.14099-0.239-0.30199-0.375-0.43799-0.20199-0.202-0.41099-0.38-0.62499-0.563-0.127-0.141-0.239-0.302-0.375-0.43799-0.202-0.202-0.41099-0.38-0.62499-0.563-0.122-0.135-0.213-0.276-0.344-0.406-0.136-0.136-0.297-0.24799-0.438-0.37499-0.182-0.214-0.35999-0.423-0.56299-0.625-0.136-0.136-0.297-0.248-0.438-0.375-0.182-0.21399-0.36-0.42299-0.56299-0.62499-0.136-0.136-0.297-0.248-0.438-0.375-0.182-0.214-0.36-0.42299-0.563-0.62499-0.20199-0.202-0.41099-0.38-0.62499-0.563-0.127-0.141-0.239-0.302-0.375-0.438-0.202-0.20199-0.411-0.37999-0.62499-0.56299-0.127-0.141-0.239-0.302-0.375-0.438-0.202-0.202-0.411-0.37999-0.625-0.56299-0.12699-0.141-0.23899-0.302-0.37499-0.438-0.165-0.165-0.327-0.317-0.5-0.469-0.152-0.17299-0.304-0.33499-0.46899-0.49999-0.136-0.136-0.297-0.248-0.438-0.375-0.182-0.214-0.36-0.423-0.563-0.62499-0.136-0.136-0.29699-0.248-0.43799-0.375-0.182-0.214-0.36-0.423-0.563-0.625-0.202-0.20199-0.411-0.37999-0.62499-0.56299-0.127-0.141-0.239-0.302-0.375-0.438-0.202-0.202-0.411-0.37999-0.625-0.56299-0.127-0.141-0.23899-0.302-0.37499-0.438-0.202-0.202-0.411-0.38-0.625-0.563-0.127-0.14099-0.239-0.30199-0.375-0.43799-0.16499-0.165-0.32699-0.317-0.49999-0.469-0.152-0.173-0.304-0.335-0.469-0.49999-0.136-0.136-0.297-0.248-0.43799-0.375-0.182-0.214-0.36-0.423-0.563-0.625-0.136-0.136-0.297-0.24799-0.438-0.37499-0.18199-0.214-0.35999-0.423-0.56299-0.625-0.136-0.136-0.297-0.248-0.438-0.375-0.182-0.21399-0.36-0.42299-0.56299-0.62499-0.202-0.202-0.411-0.38-0.625-0.563-0.127-0.141-0.239-0.30199-0.375-0.43799-0.20199-0.202-0.41099-0.38-0.62499-0.563-0.127-0.141-0.239-0.302-0.375-0.43799-0.165-0.165-0.327-0.317-0.49999-0.469-0.152-0.173-0.304-0.335-0.469-0.5-0.136-0.136-0.297-0.248-0.438-0.37499-0.182-0.214-0.35999-0.423-0.56299-0.625-0.136-0.136-0.297-0.248-0.438-0.375-0.182-0.21399-0.36-0.42299-0.56299-0.62499-0.136-0.136-0.297-0.248-0.438-0.375-0.182-0.214-0.36-0.423-0.563-0.62499-0.202-0.202-0.41099-0.38-0.62499-0.563-0.127-0.141-0.239-0.302-0.375-0.438-0.202-0.20199-0.411-0.37999-0.62499-0.56299-0.127-0.141-0.239-0.302-0.375-0.438-0.202-0.202-0.411-0.37999-0.625-0.56299-0.127-0.141-0.23899-0.302-0.37499-0.438-0.131-0.131-0.271-0.222-0.406-0.344-0.182-0.214-0.36-0.42299-0.563-0.62499-0.13599-0.136-0.29699-0.248-0.43799-0.375-0.182-0.214-0.36-0.423-0.563-0.62499-0.136-0.136-0.297-0.248-0.43799-0.375-0.182-0.214-0.36-0.423-0.563-0.625-0.202-0.20199-0.411-0.37999-0.62499-0.56299-0.127-0.141-0.239-0.302-0.375-0.438-0.202-0.202-0.411-0.38-0.625-0.56299-0.127-0.141-0.23899-0.302-0.37499-0.438-0.202-0.202-0.411-0.38-0.625-0.563-0.127-0.141-0.239-0.30199-0.375-0.43799-0.16499-0.165-0.32699-0.317-0.49999-0.469-0.152-0.173-0.304-0.335-0.469-0.5-0.136-0.13599-0.297-0.24799-0.43799-0.37499-0.182-0.214-0.36-0.423-0.563-0.625-0.136-0.136-0.297-0.248-0.438-0.37499-0.182-0.214-0.35999-0.423-0.56299-0.625-0.17-0.17-0.353-0.313-0.531-0.469-0.156-0.17899-0.298-0.36099-0.46899-0.53099-0.202-0.202-0.411-0.38-0.625-0.563-0.127-0.141-0.239-0.30199-0.375-0.43799-0.202-0.202-0.41099-0.38-0.62499-0.563-0.127-0.141-0.239-0.302-0.375-0.438-0.165-0.16499-0.327-0.31699-0.49999-0.46899-0.152-0.173-0.304-0.335-0.469-0.5-0.136-0.136-0.297-0.248-0.438-0.37499-0.182-0.214-0.35999-0.423-0.56299-0.625-0.136-0.136-0.297-0.248-0.438-0.375-0.182-0.214-0.36-0.42299-0.563-0.62499-0.13599-0.136-0.29699-0.248-0.43799-0.375-0.182-0.214-0.36-0.423-0.563-0.62499-0.202-0.202-0.41099-0.38-0.62499-0.563-0.127-0.141-0.239-0.302-0.375-0.438-0.202-0.20199-0.411-0.37999-0.62499-0.56299-0.127-0.141-0.239-0.302-0.375-0.438-0.165-0.165-0.327-0.317-0.5-0.46899-0.152-0.173-0.304-0.335-0.46899-0.5-0.136-0.136-0.297-0.248-0.438-0.375-0.182-0.214-0.36-0.42299-0.563-0.62499-0.136-0.136-0.29699-0.248-0.43799-0.375-0.182-0.214-0.36-0.423-0.563-0.62499-0.136-0.136-0.297-0.248-0.43799-0.375-0.182-0.214-0.36-0.423-0.563-0.625-2.043-2.043-4.709-3.063-7.3749-3.063"/>
 <g id="g8" transform="matrix(3.5433 0 0 3.5433 -.0039308 -.00038744)" fill-rule="evenodd">
  <path id="path10" fill-opacity=".067" d="m72.25 0.282c-39.746 0-71.967 32.22-71.967 71.967 0 39.746 32.22 71.967 71.967 71.967 39.746 0 71.967-32.22 71.967-71.967 0-39.746-32.22-71.967-71.967-71.967m2.491 12.681c34.12 0 61.777 27.657 61.777 61.777s-27.657 61.777-61.777 61.777-61.786-27.657-61.786-61.777 27.666-61.777 61.786-61.777"/>
  <g id="g12" fill-opacity=".129">
   <path id="path14" d="m72.25 1.251c-39.21 0-70.998 31.787-70.998 70.998 0 39.21 31.787 70.998 70.998 70.998 39.21 0 70.998-31.787 70.998-70.998 0-39.21-31.787-70.998-70.998-70.998m1.661 10.881c34.12 0 61.777 27.657 61.777 61.777s-27.657 61.777-61.777 61.777-61.786-27.657-61.786-61.777 27.666-61.777 61.786-61.777"/>
   <path id="path16" d="m72.25 2.358c-38.6 0-69.891 31.29-69.891 69.891 0 38.6 31.29 69.891 69.891 69.891 38.6 0 69.891-31.29 69.891-69.891 0-38.6-31.29-69.891-69.891-69.891m0.83 8.944c34.12 0 61.777 27.657 61.777 61.777s-27.657 61.777-61.777 61.777-61.786-27.657-61.786-61.777 27.666-61.777 61.786-61.777"/>
  </g>
  <path id="path18" d="m71.41 2.218c-38.22 0-69.2 30.981-69.2 69.2 0 38.22 30.981 69.2 69.2 69.2 38.22 0 69.2-30.981 69.2-69.2 0-38.22-30.981-69.2-69.2-69.2zm0 7.422c34.12 0 61.777 27.657 61.777 61.777s-27.657 61.777-61.777 61.777-61.786-27.65-61.786-61.773c0-34.12 27.666-61.777 61.786-61.777z" stroke-opacity=".31" stroke="#000" stroke-width="1.384" fill="#fff"/>
 </g>
 <text id="text20-1" style="word-spacing:0;letter-spacing:0" font-size="129.22px" line-height="125%" y="231.34213" x="729.63385" font-family="Gentium Book Basic">
  <tspan id="tspan22-1" y="231.34213" x="729.63385"/>
 </text>
 <text id="text24-6" style="text-anchor:middle" font-size="46.952px" transform="scale(4.0128 .24920)" y="579.25531" x="378.91833" font-family="Arial"/>
 <text id="text26-2" style="word-spacing:0;letter-spacing:0" font-size="129.22px" line-height="125%" y="151.35551" x="1310.9133" font-family="Gentium Book Basic">
  <tspan id="tspan28-21" y="151.35551" x="1310.9133"/>
 </text>
 <text id="text30-9" style="text-anchor:middle" font-size="46.952px" transform="scale(4.0128 .24920)" y="258.21561" x="523.76801" font-family="Arial"/>
 <text id="text32-7" style="word-spacing:0;letter-spacing:0" font-size="129.22px" line-height="125%" y="-29.902355" x="239.31102" font-family="Gentium Book Basic">
  <tspan id="tspan34-41" y="-29.902355" x="239.31102"/>
 </text>
 <text id="text36-9" style="text-anchor:middle" font-size="46.952px" transform="scale(4.0128 .24920)" y="-469.13297" x="256.7103" font-family="Arial"/>
 <text id="text38-81" style="word-spacing:0;letter-spacing:0" font-size="129.22px" line-height="125%" y="-246.36652" x="1337.3818" font-family="Gentium Book Basic">
  <tspan id="tspan40-98" y="-246.36652" x="1337.3818"/>
 </text>
 <text id="text42-4" style="text-anchor:middle" font-size="46.952px" transform="scale(4.0128 .24920)" y="-1337.8057" x="530.35846" font-family="Arial"/>
 <text id="text44-4" style="word-spacing:0;letter-spacing:0" font-size="129.22px" line-height="125%" y="-326.37439" x="1918.6614" font-family="Gentium Book Basic">
  <tspan id="tspan46-2" y="-326.37439" x="1918.6614"/>
 </text>
 <text id="text48-6" style="text-anchor:middle" font-size="46.952px" transform="scale(4.0128 .24920)" y="-1658.8276" x="675.20813" font-family="Arial"/>
 <text id="text50-09" style="word-spacing:0;letter-spacing:0" font-size="129.22px" line-height="125%" y="-798.76807" x="1529.5354" font-family="Gentium Book Basic">
  <tspan id="tspan52-8" y="-798.76807" x="1529.5354"/>
 </text>
 <text id="text54-3" style="text-anchor:middle" font-size="46.952px" transform="scale(4.0128 .24920)" y="-3554.4871" x="578.22833" font-family="Arial"/>
 <text id="text56-78" style="word-spacing:0;letter-spacing:0" font-size="129.22px" line-height="125%" y="-878.77594" x="2110.7795" font-family="Gentium Book Basic">
  <tspan id="tspan58-3" y="-878.77594" x="2110.7795"/>
 </text>
 <text id="text60-44" style="text-anchor:middle" font-size="46.952px" transform="scale(4.0128 .24920)" y="-3875.5093" x="723.078" font-family="Arial"/>
 <text id="text62-4" style="word-spacing:0;letter-spacing:0" font-size="208.33px" line-height="125%" y="535.9248" x="277.96851" font-family="Gentium Book Basic">
  <tspan id="tspan64-7" y="535.9248" x="277.96851"/>
 </text>
 <g id="g66" transform="matrix(3.5433 0 0 3.5433 -.0039308 -.00038744)" fill="#f9f9f9">
  <path id="path68" fill-opacity=".133" d="m100.87 71.417a29.458 29.457 0 0 1 -58.915 0 29.458 29.457 0 1 1 58.915 0"/>
  <rect id="rect70" rx="2.693" transform="matrix(-.7494 -.66211 .66211 -.7494 0 0)" height="5.386" width="44.31" y="-8.981" x="-99.13"/>
  <rect id="rect72" rx="2.943" transform="rotate(-45)" height="5.887" width="54.02" y="96.82" x="-2.235"/>
 </g>
 <rect id="rect74" rx="4.9925" transform="matrix(.47720 -.87879 .85224 .52315 0 0)" height="9.985" width="164.69" y="341.22" x="-262.91" fill="#d23638"/>
 <path id="path76" fill="#dedede" d="m273.91 253.05a20.875 20.875 0 0 1 -41.751 0 20.875 20.875 0 1 1 41.751 0"/>
</svg>
