<?xml version="1.0" encoding="UTF-8" standalone="no"?>
<svg
   xmlns:dc="http://purl.org/dc/elements/1.1/"
   xmlns:cc="http://creativecommons.org/ns#"
   xmlns:rdf="http://www.w3.org/1999/02/22-rdf-syntax-ns#"
   xmlns:svg="http://www.w3.org/2000/svg"
   xmlns="http://www.w3.org/2000/svg"
   xmlns:sodipodi="http://sodipodi.sourceforge.net/DTD/sodipodi-0.dtd"
   xmlns:inkscape="http://www.inkscape.org/namespaces/inkscape"
   id="svg2"
   version="1.1"
   viewBox="0 0 512 512"
   inkscape:version="0.91+devel r13804 custom"
   sodipodi:docname="kruler.svg">
  <defs
     id="defs2144" />
  <sodipodi:namedview
     pagecolor="#ffffff"
     bordercolor="#666666"
     borderopacity="1"
     objecttolerance="10"
     gridtolerance="10"
     guidetolerance="10"
     inkscape:pageopacity="0"
     inkscape:pageshadow="2"
     inkscape:window-width="1366"
     inkscape:window-height="709"
     id="namedview2142"
     showgrid="false"
     inkscape:zoom="0.4609375"
     inkscape:cx="-8.6779661"
     inkscape:cy="237.55932"
     inkscape:window-x="-2"
     inkscape:window-y="-3"
     inkscape:window-maximized="1"
     inkscape:current-layer="svg2" />
  <metadata
     id="metadata4284">
    <rdf:RDF>
      <cc:Work
         rdf:about="">
        <dc:format>image/svg+xml</dc:format>
        <dc:type
           rdf:resource="http://purl.org/dc/dcmitype/StillImage" />
      </cc:Work>
    </rdf:RDF>
  </metadata>
  <g
     style="fill-rule:evenodd"
     id="g4216">
    <path
       style="fill:#b59a6e"
       inkscape:connector-curvature="0"
       id="path4218"
       d="m 471.95,253.05 c 0,120.9 -98.01,218.91 -218.91,218.91 -120.9,0 -218.91,-98.01 -218.91,-218.91 0,-120.9 98.01,-218.91 218.91,-218.91 120.9,0 218.91,98.01 218.91,218.91" />
    <path
       style="fill-opacity:0.06700003"
       inkscape:connector-curvature="0"
       id="path4220"
       d="M 256,1 C 115.17,1 1,115.17 1,256 1,396.83 115.17,511 256,511 396.83,511 511,396.83 511,256 511,115.17 396.83,1 256,1 m 8.827,44.931 c 120.9,0 218.9,98 218.9,218.9 0,120.9 -98,218.9 -218.9,218.9 -120.9,0 -218.93,-98 -218.93,-218.9 0,-120.9 98.03,-218.9 218.93,-218.9" />
    <g
       style="fill-opacity:0.12900002"
       id="g4222">
      <path
         inkscape:connector-curvature="0"
         id="path4224"
         d="M 256,4.43 C 117.06,4.43 4.43,117.06 4.43,256 4.43,394.94 117.06,507.57 256,507.57 394.94,507.57 507.57,394.94 507.57,256 507.57,117.06 394.94,4.43 256,4.43 m 5.885,38.556 c 120.9,0 218.9,98 218.9,218.9 0,120.9 -98,218.9 -218.9,218.9 -120.9,0 -218.93,-98 -218.93,-218.9 0,-120.9 98.03,-218.9 218.93,-218.9" />
      <path
         inkscape:connector-curvature="0"
         id="path4226"
         d="M 256,8.36 C 119.23,8.36 8.36,119.23 8.36,256 8.36,392.77 119.23,503.64 256,503.64 392.77,503.64 503.64,392.77 503.64,256 503.64,119.23 392.77,8.36 256,8.36 m 2.942,31.691 c 120.9,0 218.9,98 218.9,218.9 0,120.9 -98,218.9 -218.9,218.9 -120.9,0 -218.93,-98 -218.93,-218.9 0,-120.9 98.03,-218.9 218.93,-218.9" />
    </g>
    <path
       style="fill:#ffffff;stroke:#000000;stroke-width:4.90399981;stroke-opacity:0.31000001"
       inkscape:connector-curvature="0"
       id="path4228"
       d="M 253.04,7.86 C 117.62,7.86 7.85,117.64 7.85,253.05 c 0,135.42 109.78,245.19 245.19,245.19 135.42,0 245.19,-109.78 245.19,-245.19 C 498.23,117.63 388.45,7.86 253.04,7.86 m 0,26.297 c 120.9,0 218.9,98 218.9,218.9 0,120.9 -98,218.9 -218.9,218.9 -120.9,0 -218.93,-98 -218.93,-218.9 0,-120.9 98.03,-218.9 218.93,-218.9 z" />
  </g>
  <path
     inkscape:connector-curvature="0"
     style="opacity:0.25"
     id="path4276"
     d="m 329.15,100.19 c -2.098,-0.045 -4.431,0.577 -6.301,1.793 -3.608,2.346 -220.4,219.41 -221.66,221.95 -1.559,3.12 -1.264,6.869 0.791,10.03 1.029,1.583 17.253,18.07 34.529,35.35 l 102.18,102.18 c 4.747,0.307 9.531,0.48 14.355,0.48 120.9,0 218.91,-98.01 218.91,-218.91 0,-4.637 -0.161,-9.237 -0.445,-13.803 L 365.179,132.93 c -16.56,-16.56 -31.518,-31.29 -32.646,-31.92 -0.939,-0.522 -2.114,-0.789 -3.373,-0.816" />
  <path
     inkscape:connector-curvature="0"
     style="fill:#ffffff"
     id="path4278"
     d="m 178.73,410.55 c -2.957,-1.762 -74.55,-73.21 -76.75,-76.59 -2.055,-3.162 -2.351,-6.912 -0.791,-10.03 1.267,-2.535 218.06,-219.6 221.66,-221.95 2.992,-1.946 7.169,-2.367 9.673,-0.975 2.582,1.435 77.62,76.76 78.47,78.78 1.024,2.42 1.079,5.931 0.121,7.728 -1.132,2.122 -219.95,221.41 -222.46,222.94 -2.932,1.787 -7.03,1.828 -9.928,0.099 m 107.66,-124.47 102.44,-102.44 -30.21,-30.21 -30.21,-30.21 -11.482,11.482 -11.482,11.482 9.886,10 c 10.629,10.753 11.778,12.591 10.876,17.401 -0.568,3.03 -4.221,6.756 -7.161,7.308 -5.09,0.955 -6.079,0.343 -17.17,-10.626 l -10.313,-10.201 -5.955,5.955 -5.955,5.955 18.493,18.561 c 19.852,19.925 20.297,20.513 19.2,25.385 -1.481,6.568 -8.999,9.886 -14.273,6.3 -1.081,-0.735 -9.9,-9.23 -19.598,-18.877 l -17.632,-17.541 -5.813,5.788 -5.813,5.788 9.997,10.153 c 10.287,10.448 10.822,11.244 10.822,16.1 0,3.536 -3.22,7.521 -6.872,8.505 -4.814,1.296 -6.529,0.247 -17.679,-10.816 l -10.135,-10.06 -5.951,5.951 -5.951,5.951 9.983,10.142 c 10.611,10.781 11.574,12.276 10.807,16.777 -1.195,7.01 -8.943,10.142 -14.852,6.01 -1.428,-0.998 -6.457,-5.701 -11.175,-10.449 l -8.579,-8.634 -5.995,5.972 -5.995,5.972 18.378,18.411 c 10.11,10.126 18.667,19.19 19.02,20.14 1.555,4.181 0.328,8.426 -3.191,11.04 -2.506,1.861 -4.4,2.329 -7.515,1.857 -2.232,-0.338 -4.163,-2.071 -21.326,-19.14 l -18.872,-18.768 -5.958,5.958 -5.958,5.958 9.894,9.979 c 10.698,10.79 11.859,12.632 10.963,17.404 -0.584,3.112 -4.214,6.742 -7.326,7.326 -4.738,0.889 -6.603,-0.286 -17.405,-10.964 l -9.993,-9.878 -5.958,5.958 -5.958,5.958 9.933,9.97 c 5.463,5.483 10.223,10.747 10.576,11.697 2.666,7.157 -3.058,14.08 -10.664,12.892 -2.21,-0.344 -3.657,-1.536 -12.654,-10.418 -5.588,-5.516 -10.423,-10.03 -10.745,-10.03 -0.322,0 -3.753,3.176 -7.624,7.06 l -7.04,7.06 30.05,30.05 c 16.527,16.53 30.19,30.05 30.36,30.05 0.17,0 46.41,-46.1 102.75,-102.44" />
</svg>
