<?xml version="1.0" encoding="UTF-8" standalone="no"?>
<!-- Created with Inkscape (http://www.inkscape.org/) -->

<svg
   xmlns:dc="http://purl.org/dc/elements/1.1/"
   xmlns:cc="http://creativecommons.org/ns#"
   xmlns:rdf="http://www.w3.org/1999/02/22-rdf-syntax-ns#"
   xmlns:svg="http://www.w3.org/2000/svg"
   xmlns="http://www.w3.org/2000/svg"
   xmlns:sodipodi="http://sodipodi.sourceforge.net/DTD/sodipodi-0.dtd"
   xmlns:inkscape="http://www.inkscape.org/namespaces/inkscape"
   width="512"
   height="512"
   viewBox="0 0 135.46666 135.46666"
   id="svg6747"
   version="1.1"
   inkscape:version="0.91+devel r13804 custom"
   sodipodi:docname="kturtle.svg">
  <defs
     id="defs6749" />
  <sodipodi:namedview
     id="base"
     pagecolor="#ffffff"
     bordercolor="#666666"
     borderopacity="1.0"
     inkscape:pageopacity="0.0"
     inkscape:pageshadow="2"
     inkscape:zoom="0.49497475"
     inkscape:cx="220.10874"
     inkscape:cy="282.81421"
     inkscape:document-units="mm"
     inkscape:current-layer="layer1"
     showgrid="false"
     units="px"
     inkscape:window-width="1366"
     inkscape:window-height="709"
     inkscape:window-x="-2"
     inkscape:window-y="-3"
     inkscape:window-maximized="1" />
  <metadata
     id="metadata6752">
    <rdf:RDF>
      <cc:Work
         rdf:about="">
        <dc:format>image/svg+xml</dc:format>
        <dc:type
           rdf:resource="http://purl.org/dc/dcmitype/StillImage" />
        <dc:title></dc:title>
      </cc:Work>
    </rdf:RDF>
  </metadata>
  <g
     inkscape:label="Layer 1"
     inkscape:groupmode="layer"
     id="layer1"
     transform="translate(0,-161.53334)">
    <path
       d="m 124.8701,228.48615 c 0,31.98813 -25.931809,57.91994 -57.919935,57.91994 -31.988126,0 -57.9199392,-25.93181 -57.9199392,-57.91994 0,-31.98812 25.9318132,-57.91993 57.9199392,-57.91993 31.988126,0 57.919935,25.93181 57.919935,57.91993"
       id="path6734"
       inkscape:connector-curvature="0"
       style="fill:#359b35;fill-opacity:1;fill-rule:evenodd" />
    <path
       d="m 67.733331,161.79792 c -37.261271,0 -67.46875126,30.20748 -67.46875126,67.46876 0,37.26127 30.20748026,67.46875 67.46875126,67.46875 37.261269,0 67.468749,-30.20748 67.468749,-67.46875 0,-37.26128 -30.20748,-67.46876 -67.468749,-67.46876 m 2.335478,11.888 c 31.988121,0 57.917291,25.92916 57.917291,57.91729 0,31.98813 -25.92917,57.91729 -57.917291,57.91729 -31.988126,0 -57.925231,-25.92916 -57.925231,-57.91729 0,-31.98813 25.937105,-57.91729 57.925231,-57.91729"
       id="path6736"
       inkscape:connector-curvature="0"
       style="fill-opacity:0.06700003;fill-rule:evenodd" />
    <g
       id="g6738"
       style="fill-opacity:0.12900002;fill-rule:evenodd"
       transform="matrix(0.26458334,0,0,0.26458334,-3.6e-6,161.53334)">
      <path
         d="M 256,4.43 C 117.06,4.43 4.43,117.06 4.43,256 4.43,394.94 117.06,507.57 256,507.57 394.94,507.57 507.57,394.94 507.57,256 507.57,117.06 394.94,4.43 256,4.43 m 5.885,38.556 c 120.9,0 218.9,98 218.9,218.9 0,120.9 -98,218.9 -218.9,218.9 -120.9,0 -218.93,-98 -218.93,-218.9 0,-120.9 98.03,-218.9 218.93,-218.9"
         id="path6740"
         inkscape:connector-curvature="0" />
      <path
         d="M 256,8.36 C 119.23,8.36 8.36,119.23 8.36,256 8.36,392.77 119.23,503.64 256,503.64 392.77,503.64 503.64,392.77 503.64,256 503.64,119.23 392.77,8.36 256,8.36 m 2.942,31.691 c 120.9,0 218.9,98 218.9,218.9 0,120.9 -98,218.9 -218.9,218.9 -120.9,0 -218.93,-98 -218.93,-218.9 0,-120.9 98.03,-218.9 218.93,-218.9"
         id="path6742"
         inkscape:connector-curvature="0" />
    </g>
    <path
       d="m 66.950165,163.61297 c -35.829876,0 -64.8731894,29.04595 -64.8731894,64.87318 0,35.82988 29.0459594,64.87319 64.8731894,64.87319 35.829875,0 64.873185,-29.04596 64.873185,-64.87319 0,-35.82987 -29.04596,-64.87318 -64.873185,-64.87318 m 0,6.95774 c 31.988126,0 57.917295,25.92917 57.917295,57.9173 0,31.98812 -25.929169,57.91729 -57.917295,57.91729 -31.988126,0 -57.9252309,-25.92917 -57.9252309,-57.91729 0,-31.98813 25.9371049,-57.9173 57.9252309,-57.9173 z"
       id="path6744"
       inkscape:connector-curvature="0"
       style="fill:#ffffff;fill-rule:evenodd;stroke:#000000;stroke-width:1.2975167;stroke-opacity:0.31000001" />
    <path
       inkscape:connector-curvature="0"
       style="opacity:0.25;fill-opacity:0.92900002"
       id="path6792"
       d="m 61.084353,186.23748 0,6.64898 -6.357938,0 0,14.95425 5.1816,5.1816 -3.801269,0 -6.727825,-6.72782 -14.984148,0 0,8.0764 6.908271,6.90828 3.312583,3.31258 -3.447521,0 0,21.60323 4.621478,4.62148 -4.487598,0 0,6.90827 -6.908272,0 0,8.07587 19.008197,19.0082 c 4.345781,1.0414 8.88074,1.59808 13.546667,1.59808 31.45896,0 57.057402,-25.07985 57.896132,-56.33508 l -23.77546,-23.77546 -6.625171,0 -20.055417,-20.05542 -13.305897,0" />
    <path
       inkscape:connector-curvature="0"
       style="fill:#ffffff"
       id="path6794"
       d="m 61.084353,186.23748 0,6.64898 -6.357938,0 0,14.95425 6.357938,0 0,5.1816 -6.357938,0 0,4.7625 -5.347229,0 0,-11.49085 -14.984413,0 0,8.07614 6.908271,0 0,6.90827 6.451336,0 0,3.31259 -6.58548,0 0,21.60322 6.58548,0 0,4.62175 -6.451336,0 0,6.90827 -6.908271,0 0,8.07614 14.984413,0 0,-12.87039 5.347229,0 0,6.60135 26.214918,0 0,-6.60135 5.142177,0 0,12.87039 14.98442,0 0,-8.07614 -6.908278,0 0,-6.90827 -6.246284,0 0,-4.62175 6.577542,0 0,-21.60322 -6.577542,0 0,-3.31259 6.246284,0 0,-6.90827 6.908278,0 0,-8.07614 -14.98442,0 0,11.49085 -5.142177,0 0,-4.7625 -6.553994,0 0,-5.1816 6.553994,0 0,-14.95425 -6.553994,0 0,-6.64898 -13.305897,0" />
  </g>
</svg>
