<?xml version="1.0" encoding="UTF-8" standalone="no"?>
<svg xmlns="http://www.w3.org/2000/svg" viewBox="0 0 512 512">
 <g fill-rule="evenodd">
  <path d="m471.95 253.05c0 120.9-98.01 218.91-218.91 218.91s-218.91-98.01-218.91-218.91 98.01-218.91 218.91-218.91 218.91 98.01 218.91 218.91" fill="#ef6a47"/>
  <path d="m256 1c-140.83 0-255 114.17-255 255s114.17 255 255 255 255-114.17 255-255-114.17-255-255-255m8.827 44.931c120.9 0 218.9 98 218.9 218.9s-98 218.9-218.9 218.9-218.93-98-218.93-218.9 98.03-218.9 218.93-218.9" fill-opacity=".067"/>
  <g fill-opacity=".129">
   <path d="m256 4.43c-138.94 0-251.57 112.63-251.57 251.57s112.63 251.57 251.57 251.57 251.57-112.63 251.57-251.57-112.63-251.57-251.57-251.57m5.885 38.556c120.9 0 218.9 98 218.9 218.9s-98 218.9-218.9 218.9-218.93-98-218.93-218.9 98.03-218.9 218.93-218.9"/>
   <path d="m256 8.36c-136.77 0-247.64 110.87-247.64 247.64s110.87 247.64 247.64 247.64 247.64-110.87 247.64-247.64-110.87-247.64-247.64-247.64m2.942 31.691c120.9 0 218.9 98 218.9 218.9s-98 218.9-218.9 218.9-218.93-98-218.93-218.9 98.03-218.9 218.93-218.9"/>
  </g>
  <path stroke="#000" stroke-width="4.904" d="m253.04 7.86c-135.42 0-245.19 109.78-245.19 245.19 0 135.42 109.78 245.19 245.19 245.19 135.42 0 245.19-109.78 245.19-245.19 0-135.42-109.78-245.19-245.19-245.19zm0 26.297c120.9 0 218.9 98 218.9 218.9s-98 218.9-218.9 218.9-218.93-98-218.93-218.9 98.03-218.9 218.93-218.9z" stroke-opacity=".31" fill="#fff"/>
 </g>
 <text style="word-spacing:0;letter-spacing:0" font-size="129.23" y="231.36" x="729.64" font-family="Gentium Book Basic" line-height="125%">
  <tspan y="231.36" x="729.64"/>
 </text>
 <text style="text-anchor:middle" transform="scale(4.0128.2492)" font-size="46.954" y="579.26" x="378.91" font-family="Arial"/>
 <text style="word-spacing:0;letter-spacing:0" font-size="129.23" y="151.36" x="1310.91" font-family="Gentium Book Basic" line-height="125%">
  <tspan y="151.36" x="1310.91"/>
 </text>
 <text style="text-anchor:middle" transform="scale(4.0128.2492)" font-size="46.954" y="258.22" x="523.76" font-family="Arial"/>
 <text style="word-spacing:0;letter-spacing:0" font-size="129.23" y="-29.9" x="239.33" font-family="Gentium Book Basic" line-height="125%">
  <tspan y="-29.9" x="239.33"/>
 </text>
 <text style="text-anchor:middle" transform="scale(4.0128.2492)" font-size="46.954" y="-469.13" x="256.72" font-family="Arial"/>
 <text style="word-spacing:0;letter-spacing:0" font-size="129.23" y="-246.37" x="1337.38" font-family="Gentium Book Basic" line-height="125%">
  <tspan y="-246.37" x="1337.38"/>
 </text>
 <text style="text-anchor:middle" transform="scale(4.0128.2492)" font-size="46.954" y="-1337.8" x="530.36" font-family="Arial"/>
 <text style="word-spacing:0;letter-spacing:0" font-size="129.23" y="-326.37" x="1918.65" font-family="Gentium Book Basic" line-height="125%">
  <tspan y="-326.37" x="1918.65"/>
 </text>
 <text style="text-anchor:middle" transform="scale(4.0128.2492)" font-size="46.954" y="-1658.83" x="675.21" font-family="Arial"/>
 <text style="word-spacing:0;letter-spacing:0" font-size="129.23" y="-798.77" x="1529.53" font-family="Gentium Book Basic" line-height="125%">
  <tspan y="-798.77" x="1529.53"/>
 </text>
 <text style="text-anchor:middle" transform="scale(4.0128.2492)" font-size="46.954" y="-3554.48" x="578.24" font-family="Arial"/>
 <text style="word-spacing:0;letter-spacing:0" font-size="129.23" y="-878.78" x="2110.79" font-family="Gentium Book Basic" line-height="125%">
  <tspan y="-878.78" x="2110.79"/>
 </text>
 <text style="text-anchor:middle" transform="scale(4.0128.2492)" font-size="46.954" y="-3875.52" x="723.09" font-family="Arial"/>
 <text style="word-spacing:0;letter-spacing:0" font-size="208.33" y="535.94" x="277.99" font-family="Gentium Book Basic" line-height="125%">
  <tspan y="535.94" x="277.99"/>
 </text>
 <path opacity=".25" d="m244.19 105l-115.41 65.25 60.34 60.34-0.004 8.371-16.773-16.773-55.719-31.531-0.063 130.56 17.385 17.385-5.447 3.084 130.2 130.2c116.4-2.954 210.22-96.77 213.18-213.17l-88.37-88.37-115.34-65.34h-0.063v23.906l-23.906-23.906"/>
 <path d="m244.19 105l-115.41 65.25 55.75 31.531 59.656-33.625v-63.16m23.906 0v63.13l59.59 33.75 55.813-31.531-115.34-65.34h-0.063m-12.03 75.25l-66.938 37.875-0.031 75.72 66.875 37.906 66.938-37.844v-75.75l-66.844-37.906m-139.44 10.406l-0.063 130.56 55.781-31.5v-67.53l-55.719-31.531m278.81 0.094l-55.781 31.531v67.5l55.719 31.531 0.063-130.56m-211.16 119.34l-55.781 31.594 115.38 65.34v-63.12l-59.59-33.813m143.31 0.063v0.031l-59.59 33.625v63.19l115.34-65.25-55.75-31.594" fill="#fff"/>
</svg>
