<?xml version="1.0" encoding="UTF-8" standalone="no"?>
<!-- Created with Inkscape (http://www.inkscape.org/) -->
<svg id="svg2" xmlns:rdf="http://www.w3.org/1999/02/22-rdf-syntax-ns#" xmlns="http://www.w3.org/2000/svg" height="100%" viewBox="0 0 512 512" width="100%" version="1.1" xmlns:cc="http://creativecommons.org/ns#" xmlns:dc="http://purl.org/dc/elements/1.1/">
 <metadata id="metadata72">
  <rdf:RDF>
   <cc:Work rdf:about="">
    <dc:format>image/svg+xml</dc:format>
    <dc:type rdf:resource="http://purl.org/dc/dcmitype/StillImage"/>
   </cc:Work>
  </rdf:RDF>
 </metadata>
 <path id="path4" d="m471.95 253.05c0 120.9-98.01 218.9-218.9 218.9-120.9 0-218.9-98.01-218.9-218.9 0-120.9 98.01-218.9 218.9-218.9 120.9 0 218.9 98.01 218.9 218.9" fill-rule="evenodd" fill="#3c3c3c"/>
 <path id="path6" style="color:#000000" fill-opacity=".235" d="m219.22 150c-19.893 0.705-32.789 1.737-42.906 5.625-10.118 3.888-16.68 11.144-22.06 21.406l-0.031 0.031c-0.064 0.123-16.406 31.688-16.406 31.688-0.911 1.759-0.867 3.862 0.094 5.594 0.386 0.697 0.892 1.302 1.5 1.781 0.282 0.36 0.616 0.655 0.969 0.938 0.3 0.392 0.649 0.729 1.031 1.031 0.301 0.385 0.65 0.735 1.031 1.031 0.295 0.371 0.63 0.713 1 1 0.299 0.375 0.625 0.71 1 1 0.284 0.357 0.583 0.69 0.938 0.969 0.292 0.372 0.633 0.711 1 1 0.291 0.371 0.634 0.68 1 0.969 0.301 0.385 0.65 0.735 1.031 1.031 0.295 0.371 0.63 0.713 1 1 0.295 0.371 0.63 0.713 1 1 0.285 0.359 0.582 0.688 0.938 0.969 0.292 0.372 0.633 0.711 1 1 0.291 0.371 0.634 0.68 1 0.969 0.301 0.385 0.65 0.735 1.031 1.031 0.295 0.371 0.63 0.713 1 1 0.295 0.371 0.63 0.713 1 1 0.294 0.37 0.6 0.713 0.969 1 0.287 0.363 0.61 0.686 0.969 0.969 0.282 0.36 0.616 0.655 0.969 0.938 0.3 0.392 0.649 0.729 1.031 1.031 0.301 0.385 0.65 0.735 1.031 1.031 0.295 0.371 0.63 0.713 1 1 0.294 0.37 0.6 0.713 0.969 1 0.287 0.363 0.61 0.686 0.969 0.969 0.292 0.372 0.633 0.711 1 1 0.29 0.369 0.636 0.681 1 0.969 0.301 0.385 0.65 0.735 1.031 1.031 0.295 0.371 0.63 0.713 1 1 0.286 0.359 0.613 0.688 0.969 0.969 0.291 0.371 0.603 0.712 0.969 1 0.292 0.372 0.633 0.711 1 1 0.291 0.371 0.634 0.68 1 0.969 0.301 0.385 0.65 0.735 1.031 1.031 0.295 0.371 0.63 0.713 1 1 0.295 0.371 0.63 0.713 1 1 0.285 0.359 0.582 0.688 0.938 0.969 0.292 0.372 0.633 0.711 1 1 0.291 0.371 0.634 0.68 1 0.969 0.291 0.371 0.634 0.711 1 1 0.301 0.385 0.65 0.735 1.031 1.031 0.295 0.371 0.63 0.713 1 1 0.294 0.37 0.6 0.713 0.969 1 0.287 0.363 0.61 0.686 0.969 0.969 0.282 0.36 0.616 0.655 0.969 0.938 0.3 0.392 0.649 0.729 1.031 1.031 0.301 0.385 0.65 0.735 1.031 1.031 0.295 0.371 0.63 0.713 1 1 0.299 0.375 0.625 0.71 1 1 0.284 0.357 0.583 0.69 0.938 0.969 0.292 0.372 0.633 0.711 1 1 0.291 0.371 0.634 0.68 1 0.969 0.301 0.385 0.65 0.735 1.031 1.031 0.295 0.371 0.63 0.713 1 1-5.191 17.564-13 36.667-25.813 59.13-0.133 0.239-0.277 0.495-0.375 0.75-2.78 6.997-3.067 13.635-1.063 19.13 1.128 3.088 2.974 5.709 5.25 7.781 0.325 0.341 0.654 0.685 1 1 0.323 0.339 0.656 0.686 1 1 0.323 0.339 0.656 0.686 1 1 0.323 0.339 0.624 0.655 0.969 0.969 0.331 0.348 0.647 0.679 1 1 0.325 0.341 0.654 0.685 1 1 0.325 0.341 0.654 0.685 1 1 0.323 0.339 0.656 0.686 1 1 0.323 0.339 0.656 0.686 1 1 0.323 0.339 0.656 0.686 1 1 0.323 0.339 0.624 0.655 0.969 0.969 0.325 0.341 0.654 0.685 1 1 0.325 0.341 0.654 0.685 1 1 0.325 0.341 0.654 0.685 1 1 0.323 0.339 0.656 0.686 1 1 0.323 0.339 0.656 0.686 1 1 0.344 0.36 0.664 0.7 1.031 1.031 0.309 0.322 0.609 0.639 0.938 0.938 0.325 0.341 0.654 0.685 1 1 0.325 0.341 0.654 0.685 1 1 0.323 0.339 0.656 0.686 1 1 0.323 0.339 0.656 0.686 1 1 0.323 0.339 0.624 0.655 0.969 0.969 0.331 0.348 0.647 0.679 1 1 0.325 0.341 0.654 0.685 1 1 0.325 0.341 0.654 0.685 1 1 0.323 0.339 0.656 0.686 1 1 0.323 0.339 0.656 0.686 1 1 0.194 0.204 0.392 0.399 0.594 0.594 0.442 0.491 0.891 0.934 1.375 1.375 0.325 0.341 0.654 0.685 1 1 0.325 0.341 0.654 0.685 1 1 0.323 0.339 0.656 0.686 1 1 0.323 0.339 0.656 0.686 1 1 0.323 0.339 0.656 0.686 1 1 0.323 0.339 0.624 0.655 0.969 0.969 0.325 0.341 0.654 0.685 1 1 0.325 0.341 0.654 0.685 1 1 0.325 0.341 0.654 0.685 1 1 0.323 0.339 0.656 0.686 1 1 0.323 0.339 0.656 0.686 1 1 0.323 0.339 0.624 0.655 0.969 0.969 0.331 0.348 0.647 0.679 1 1 0.325 0.341 0.654 0.685 1 1 0.325 0.341 0.654 0.685 1 1 0.323 0.339 0.656 0.686 1 1 0.323 0.339 0.656 0.686 1 1 0.323 0.339 0.624 0.655 0.969 0.969 0.331 0.348 0.647 0.679 1 1 0.325 0.341 0.654 0.685 1 1 0.325 0.341 0.654 0.685 1 1 0.323 0.339 0.656 0.686 1 1 0.323 0.339 0.656 0.686 1 1 0.323 0.339 0.656 0.686 1 1 0.323 0.339 0.624 0.655 0.969 0.969 0.325 0.341 0.654 0.685 1 1 0.325 0.341 0.654 0.685 1 1 0.323 0.339 0.656 0.686 1 1 0.323 0.339 0.656 0.686 1 1 0.323 0.339 0.656 0.686 1 1 0.344 0.36 0.664 0.7 1.031 1.031 0.309 0.322 0.609 0.639 0.938 0.938 0.325 0.341 0.654 0.685 1 1 0.325 0.341 0.654 0.685 1 1 0.323 0.339 0.656 0.686 1 1 0.323 0.339 0.656 0.686 1 1 0.323 0.339 0.624 0.655 0.969 0.969 0.331 0.348 0.647 0.679 1 1 0.325 0.341 0.654 0.685 1 1 0.325 0.341 0.654 0.685 1 1 0.323 0.339 0.656 0.686 1 1 0.323 0.339 0.656 0.686 1 1 0.194 0.204 0.392 0.399 0.594 0.594 0.442 0.491 0.891 0.934 1.375 1.375 0.325 0.341 0.654 0.685 1 1 0.325 0.341 0.654 0.685 1 1 0.323 0.339 0.656 0.686 1 1 0.323 0.339 0.656 0.686 1 1 0.323 0.339 0.656 0.686 1 1 0.323 0.339 0.624 0.655 0.969 0.969 0.325 0.341 0.654 0.685 1 1 0.325 0.341 0.654 0.685 1 1 0.325 0.341 0.654 0.685 1 1 0.323 0.339 0.656 0.686 1 1 0.323 0.339 0.656 0.686 1 1 0.344 0.36 0.664 0.7 1.031 1.031 0.309 0.322 0.609 0.639 0.938 0.938 0.325 0.341 0.654 0.685 1 1 0.325 0.341 0.654 0.685 1 1 0.323 0.339 0.656 0.686 1 1 0.323 0.339 0.656 0.686 1 1 0.323 0.339 0.624 0.655 0.969 0.969 0.331 0.348 0.647 0.679 1 1 0.325 0.341 0.654 0.685 1 1 0.325 0.341 0.654 0.685 1 1 0.323 0.339 0.656 0.686 1 1 0.323 0.339 0.656 0.686 1 1 0.323 0.339 0.656 0.686 1 1 0.323 0.339 0.624 0.655 0.969 0.969 0.325 0.341 0.654 0.685 1 1 0.325 0.341 0.654 0.685 1 1 0.323 0.339 0.656 0.686 1 1 0.323 0.339 0.656 0.686 1 1 0.323 0.339 0.656 0.686 1 1 0.323 0.339 0.624 0.655 0.969 0.969 0.325 0.341 0.654 0.685 1 1 0.325 0.341 0.654 0.685 1 1 0.325 0.341 0.654 0.685 1 1 0.323 0.339 0.656 0.686 1 1 0.323 0.339 0.656 0.686 1 1 0.323 0.339 0.624 0.655 0.969 0.969 0.331 0.348 0.647 0.679 1 1 0.325 0.341 0.654 0.685 1 1 0.203 0.213 0.416 0.417 0.625 0.625 106.11-15.15 187.69-106.36 187.69-216.66 0-0.825-0.022-1.646-0.031-2.469-0.093-0.115-0.174-0.237-0.281-0.344-0.197-0.197-0.405-0.397-0.625-0.563-0.123-0.15-0.236-0.299-0.375-0.438-0.166-0.166-0.349-0.325-0.531-0.469-0.143-0.182-0.303-0.366-0.469-0.531-0.166-0.166-0.349-0.325-0.531-0.469-0.143-0.182-0.303-0.366-0.469-0.531-0.149-0.149-0.306-0.275-0.469-0.406-0.158-0.207-0.345-0.407-0.531-0.594-0.149-0.149-0.306-0.275-0.469-0.406-0.158-0.207-0.345-0.376-0.531-0.563v-0.031c-0.197-0.197-0.374-0.366-0.594-0.531-0.123-0.15-0.236-0.299-0.375-0.438-0.197-0.197-0.405-0.397-0.625-0.563-0.123-0.15-0.236-0.299-0.375-0.438-0.166-0.166-0.349-0.325-0.531-0.469-0.143-0.182-0.303-0.366-0.469-0.531-0.166-0.166-0.349-0.325-0.531-0.469-0.143-0.182-0.303-0.366-0.469-0.531-0.149-0.149-0.306-0.275-0.469-0.406-0.158-0.207-0.345-0.407-0.531-0.594-0.149-0.149-0.306-0.275-0.469-0.406-0.158-0.207-0.345-0.407-0.531-0.594-0.197-0.197-0.374-0.366-0.594-0.531-0.123-0.15-0.236-0.299-0.375-0.438-0.197-0.197-0.405-0.397-0.625-0.563-0.123-0.15-0.236-0.299-0.375-0.438-0.166-0.166-0.349-0.325-0.531-0.469-0.143-0.182-0.303-0.366-0.469-0.531-0.166-0.166-0.349-0.325-0.531-0.469-0.143-0.182-0.303-0.366-0.469-0.531-0.149-0.149-0.306-0.275-0.469-0.406-0.158-0.207-0.345-0.407-0.531-0.594-0.149-0.149-0.306-0.275-0.469-0.406-0.158-0.207-0.345-0.407-0.531-0.594-0.17-0.17-0.313-0.322-0.5-0.469-0.147-0.187-0.299-0.33-0.469-0.5-0.197-0.197-0.405-0.397-0.625-0.563-0.123-0.15-0.236-0.299-0.375-0.438-0.197-0.197-0.405-0.397-0.625-0.563-0.123-0.15-0.236-0.299-0.375-0.438-0.166-0.166-0.349-0.325-0.531-0.469-0.143-0.182-0.303-0.366-0.469-0.531-0.166-0.166-0.349-0.325-0.531-0.469-0.143-0.182-0.303-0.366-0.469-0.531-0.149-0.149-0.306-0.275-0.469-0.406-0.158-0.207-0.345-0.407-0.531-0.594-0.15-0.15-0.305-0.275-0.469-0.406-0.158-0.207-0.314-0.376-0.5-0.563-0.197-0.197-0.405-0.397-0.625-0.563-0.123-0.15-0.236-0.299-0.375-0.438-0.197-0.197-0.405-0.397-0.625-0.563-0.123-0.15-0.236-0.299-0.375-0.438-0.166-0.166-0.349-0.325-0.531-0.469-0.143-0.182-0.303-0.366-0.469-0.531-0.166-0.166-0.349-0.325-0.531-0.469-0.143-0.182-0.303-0.366-0.469-0.531-0.149-0.149-0.306-0.275-0.469-0.406-0.158-0.207-0.345-0.407-0.531-0.594-0.149-0.149-0.306-0.275-0.469-0.406-0.158-0.207-0.345-0.407-0.531-0.594-0.197-0.197-0.374-0.366-0.594-0.531-0.123-0.15-0.236-0.299-0.375-0.438-0.197-0.197-0.405-0.397-0.625-0.563-0.123-0.15-0.236-0.299-0.375-0.438-0.166-0.166-0.349-0.325-0.531-0.469-0.143-0.182-0.303-0.366-0.469-0.531-0.166-0.166-0.349-0.325-0.531-0.469-0.143-0.182-0.303-0.366-0.469-0.531-0.149-0.149-0.306-0.275-0.469-0.406-0.158-0.207-0.345-0.407-0.531-0.594-0.149-0.149-0.306-0.275-0.469-0.406-0.158-0.207-0.345-0.407-0.531-0.594-0.17-0.17-0.313-0.322-0.5-0.469-0.147-0.187-0.299-0.33-0.469-0.5-0.197-0.197-0.405-0.397-0.625-0.563-0.123-0.15-0.236-0.299-0.375-0.438-0.197-0.197-0.405-0.397-0.625-0.563-0.123-0.15-0.236-0.299-0.375-0.438-0.166-0.166-0.349-0.325-0.531-0.469-0.143-0.182-0.303-0.366-0.469-0.531-0.166-0.166-0.349-0.325-0.531-0.469-0.143-0.182-0.303-0.366-0.469-0.531-0.149-0.149-0.306-0.275-0.469-0.406-0.158-0.207-0.345-0.407-0.531-0.594-0.15-0.15-0.305-0.275-0.469-0.406-0.158-0.207-0.314-0.376-0.5-0.563-0.197-0.197-0.405-0.397-0.625-0.563-0.123-0.15-0.236-0.299-0.375-0.438-0.197-0.197-0.405-0.397-0.625-0.563-0.123-0.15-0.236-0.299-0.375-0.438-0.166-0.166-0.349-0.325-0.531-0.469-0.143-0.182-0.303-0.366-0.469-0.531-0.166-0.166-0.349-0.325-0.531-0.469-0.143-0.182-0.303-0.366-0.469-0.531-0.149-0.149-0.306-0.275-0.469-0.406-0.158-0.207-0.345-0.407-0.531-0.594-0.149-0.149-0.306-0.275-0.469-0.406-0.158-0.207-0.314-0.376-0.5-0.563h-0.031c-0.197-0.197-0.374-0.397-0.594-0.563-0.123-0.15-0.236-0.299-0.375-0.438-0.197-0.197-0.405-0.397-0.625-0.563-0.123-0.15-0.236-0.299-0.375-0.438-0.166-0.166-0.349-0.325-0.531-0.469-0.143-0.182-0.303-0.366-0.469-0.531-0.166-0.166-0.349-0.325-0.531-0.469-0.143-0.182-0.303-0.366-0.469-0.531-0.149-0.149-0.306-0.275-0.469-0.406-0.158-0.207-0.345-0.407-0.531-0.594-0.149-0.149-0.306-0.275-0.469-0.406-0.158-0.207-0.345-0.407-0.531-0.594-0.197-0.197-0.374-0.366-0.594-0.531-0.123-0.15-0.236-0.299-0.375-0.438-0.197-0.197-0.405-0.397-0.625-0.563-0.123-0.15-0.236-0.299-0.375-0.438-0.166-0.166-0.349-0.325-0.531-0.469-0.143-0.182-0.303-0.366-0.469-0.531-0.166-0.166-0.349-0.325-0.531-0.469-0.143-0.182-0.303-0.366-0.469-0.531-0.149-0.149-0.306-0.275-0.469-0.406-0.158-0.207-0.345-0.407-0.531-0.594-0.149-0.149-0.306-0.275-0.469-0.406-0.158-0.207-0.345-0.407-0.531-0.594-0.17-0.17-0.313-0.322-0.5-0.469-0.147-0.187-0.299-0.33-0.469-0.5-0.197-0.197-0.405-0.397-0.625-0.563-0.123-0.15-0.236-0.299-0.375-0.438-0.197-0.197-0.405-0.397-0.625-0.563-0.123-0.15-0.236-0.299-0.375-0.438-0.166-0.166-0.349-0.325-0.531-0.469-0.143-0.182-0.303-0.366-0.469-0.531-0.166-0.166-0.349-0.325-0.531-0.469-0.143-0.182-0.303-0.366-0.469-0.531-0.149-0.149-0.306-0.275-0.469-0.406-0.158-0.207-0.345-0.407-0.531-0.594-0.15-0.15-0.305-0.275-0.469-0.406-0.158-0.207-0.314-0.376-0.5-0.563-0.197-0.197-0.405-0.397-0.625-0.563-0.123-0.15-0.236-0.299-0.375-0.438-0.197-0.197-0.405-0.397-0.625-0.563-0.123-0.15-0.236-0.299-0.375-0.438-0.166-0.166-0.349-0.325-0.531-0.469-0.143-0.182-0.303-0.366-0.469-0.531-0.166-0.166-0.349-0.325-0.531-0.469-0.143-0.182-0.303-0.366-0.469-0.531-0.149-0.149-0.306-0.275-0.469-0.406-0.158-0.207-0.345-0.407-0.531-0.594-0.149-0.149-0.306-0.275-0.469-0.406-0.158-0.207-0.345-0.407-0.531-0.594-0.197-0.197-0.374-0.366-0.594-0.531-0.123-0.15-0.236-0.299-0.375-0.438-0.197-0.197-0.405-0.397-0.625-0.563-0.123-0.15-0.236-0.299-0.375-0.438-0.166-0.166-0.349-0.325-0.531-0.469-0.143-0.182-0.303-0.366-0.469-0.531-0.166-0.166-0.349-0.325-0.531-0.469-0.143-0.182-0.303-0.366-0.469-0.531-0.149-0.149-0.306-0.275-0.469-0.406-0.158-0.207-0.345-0.407-0.531-0.594-0.149-0.149-0.306-0.275-0.469-0.406-0.158-0.207-0.345-0.407-0.531-0.594-0.17-0.17-0.313-0.322-0.5-0.469-0.147-0.187-0.299-0.33-0.469-0.5-0.197-0.197-0.405-0.397-0.625-0.563-0.123-0.15-0.236-0.299-0.375-0.438-0.197-0.197-0.405-0.397-0.625-0.563-0.123-0.15-0.236-0.299-0.375-0.438-0.166-0.166-0.349-0.325-0.531-0.469-0.143-0.182-0.303-0.366-0.469-0.531-0.149-0.149-0.306-0.275-0.469-0.406-0.158-0.207-0.345-0.407-0.531-0.594-0.149-0.149-0.306-0.275-0.469-0.406-0.158-0.207-0.345-0.407-0.531-0.594-0.15-0.15-0.305-0.275-0.469-0.406-0.158-0.207-0.314-0.376-0.5-0.563-0.197-0.197-0.405-0.397-0.625-0.563-0.123-0.15-0.236-0.299-0.375-0.438-0.197-0.197-0.405-0.397-0.625-0.563-0.123-0.15-0.236-0.299-0.375-0.438-0.166-0.166-0.349-0.325-0.531-0.469-0.143-0.182-0.303-0.366-0.469-0.531-0.166-0.166-0.349-0.325-0.531-0.469-0.143-0.182-0.303-0.366-0.469-0.531-0.149-0.149-0.306-0.275-0.469-0.406-0.158-0.207-0.345-0.407-0.531-0.594-0.15-0.15-0.305-0.275-0.469-0.406-0.158-0.207-0.314-0.376-0.5-0.563-0.197-0.197-0.405-0.397-0.625-0.563-0.123-0.15-0.236-0.299-0.375-0.438-0.197-0.197-0.405-0.397-0.625-0.563-0.123-0.15-0.236-0.299-0.375-0.438-0.166-0.166-0.349-0.325-0.531-0.469-0.143-0.182-0.303-0.366-0.469-0.531-0.166-0.166-0.349-0.325-0.531-0.469-0.143-0.182-0.303-0.366-0.469-0.531-0.149-0.149-0.306-0.275-0.469-0.406-0.158-0.207-0.345-0.407-0.531-0.594-0.149-0.149-0.306-0.275-0.469-0.406-0.158-0.207-0.345-0.407-0.531-0.594-1.11-1.11-2.587-1.719-4.156-1.719h-149.5c-0.074-0.001-0.144-0.001-0.219 0"/>
 <g id="g8" fill-rule="evenodd">
  <path id="path10" fill-opacity=".067" d="m256 1c-140.83 0-255 114.17-255 255s114.17 255 255 255 255-114.17 255-255-114.17-255-255-255m8.827 44.931c120.9 0 218.9 98 218.9 218.9s-98 218.9-218.9 218.9-218.93-98-218.93-218.9 98.03-218.9 218.93-218.9"/>
  <g id="g12" fill-opacity=".129">
   <path id="path14" d="m256 4.433c-138.94 0-251.57 112.63-251.57 251.57s112.63 251.57 251.57 251.57 251.57-112.63 251.57-251.57-112.63-251.57-251.57-251.57m5.885 38.556c120.9 0 218.9 98 218.9 218.9s-98 218.9-218.9 218.9-218.93-98-218.93-218.9 98.03-218.9 218.93-218.9"/>
   <path id="path16" d="m256 8.356c-136.77 0-247.64 110.87-247.64 247.64s110.87 247.64 247.64 247.64 247.64-110.87 247.64-247.64-110.87-247.64-247.64-247.64m2.942 31.691c120.9 0 218.9 98 218.9 218.9s-98 218.9-218.9 218.9-218.93-98-218.93-218.9 98.03-218.9 218.93-218.9"/>
  </g>
  <path id="path18" d="m253.04 7.859c-135.42 0-245.19 109.78-245.19 245.19 0 135.42 109.78 245.19 245.19 245.19 135.42 0 245.19-109.78 245.19-245.19 0-135.42-109.78-245.19-245.19-245.19zm0 26.297c120.9 0 218.9 98 218.9 218.9s-98 218.9-218.9 218.9-218.93-98-218.93-218.9 98.03-218.9 218.93-218.9z" stroke-opacity=".31" stroke="#000" stroke-width="4.904" fill="#fff"/>
 </g>
 <text id="text20" style="word-spacing:0;letter-spacing:0" font-size="129.23px" line-height="125%" y="231.36" x="729.64001" font-family="Gentium Book Basic">
  <tspan id="tspan22" y="231.36" x="729.64001"/>
 </text>
 <text id="text24" style="text-anchor:middle" font-size="46.954px" transform="scale(4.0128 .2492)" y="579.25" x="378.91" font-family="Arial"/>
 <text id="text26" style="word-spacing:0;letter-spacing:0" font-size="129.23px" line-height="125%" y="151.36" x="1310.91" font-family="Gentium Book Basic">
  <tspan id="tspan28" y="151.36" x="1310.91"/>
 </text>
 <text id="text30" style="text-anchor:middle" font-size="46.954px" transform="scale(4.0128 .2492)" y="258.22" x="523.76001" font-family="Arial"/>
 <text id="text32" style="word-spacing:0;letter-spacing:0" font-size="129.23px" line-height="125%" y="-29.900999" x="239.33" font-family="Gentium Book Basic">
  <tspan id="tspan34" y="-29.900999" x="239.33"/>
 </text>
 <text id="text36" style="text-anchor:middle" font-size="46.954px" transform="scale(4.0128 .2492)" y="-469.14001" x="256.72" font-family="Arial"/>
 <text id="text38" style="word-spacing:0;letter-spacing:0" font-size="129.23px" line-height="125%" y="-246.37" x="1337.38" font-family="Gentium Book Basic">
  <tspan id="tspan40" y="-246.37" x="1337.38"/>
 </text>
 <text id="text42" style="text-anchor:middle" font-size="46.954px" transform="scale(4.0128 .2492)" y="-1337.8101" x="530.35999" font-family="Arial"/>
 <text id="text44" style="word-spacing:0;letter-spacing:0" font-size="129.23px" line-height="125%" y="-326.38" x="1918.65" font-family="Gentium Book Basic">
  <tspan id="tspan46" y="-326.38" x="1918.65"/>
 </text>
 <text id="text48" style="text-anchor:middle" font-size="46.954px" transform="scale(4.0128 .2492)" y="-1658.85" x="675.21002" font-family="Arial"/>
 <text id="text50" style="word-spacing:0;letter-spacing:0" font-size="129.23px" line-height="125%" y="-798.78003" x="1529.53" font-family="Gentium Book Basic">
  <tspan id="tspan52" y="-798.78003" x="1529.53"/>
 </text>
 <text id="text54" style="text-anchor:middle" font-size="46.954px" transform="scale(4.0128 .2492)" y="-3554.51" x="578.23999" font-family="Arial"/>
 <text id="text56" style="word-spacing:0;letter-spacing:0" font-size="129.23px" line-height="125%" y="-878.78003" x="2110.79" font-family="Gentium Book Basic">
  <tspan id="tspan58" y="-878.78003" x="2110.79"/>
 </text>
 <text id="text60" style="text-anchor:middle" font-size="46.954px" transform="scale(4.0128 .2492)" y="-3875.54" x="723.09003" font-family="Arial"/>
 <text id="text62" style="word-spacing:0;letter-spacing:0" font-size="208.33px" line-height="125%" y="535.94" x="277.98999" font-family="Gentium Book Basic">
  <tspan id="tspan64" y="535.94" x="277.98999"/>
 </text>
 <path id="path66" style="color:#000000" fill="#fff" d="m219.21 150c-19.893 0.705-32.79 1.732-42.908 5.62s-16.678 11.154-22.06 21.417a5.9151 5.9151 0 0 0 -0.0248 0.0247l-16.391 31.692a5.9151 5.9151 0 0 0 4.7785 8.6162l5.596 0.421a5.9151 5.9151 0 0 0 5.6451 -3.0454c5.754-10.554 11.347-17.972 17.529-22.63 6.143-4.629 12.935-6.879 22.531-6.908h0.173l14.212 0.371c-8.09 46.814-6.49 83.05-40.927 143.43a5.9151 5.9151 0 0 0 -0.34663 0.74278c-2.78 6.997-3.069 13.624-1.065 19.11 2 5.49 6.259 9.542 11.216 11.563 9.913 4.04 22.768 0.281 29.736-11.191a5.9151 5.9151 0 0 0 0.27235 -0.51994c14.475-30.347 22.09-87.961 26.789-163.06h48.23l-7.873 123.28a5.9151 5.9151 0 0 0 0 0.24759c-0.391 18.275 4.066 32.05 12.206 41.03 8.14 8.971 19.81 12.508 31.395 11.04 23.17-2.931 46.877-24.13 56.08-58.13a5.9151 5.9151 0 0 0 -5.7194 -7.4772h-5.571a5.9151 5.9151 0 0 0 -5.2489 3.1692c-8.16 15.494-16.07 24.436-22.308 28.399-6.241 3.962-10.116 3.649-14.162 1.164-4.046-2.486-8.227-8.318-10.944-16.688-2.715-8.363-4-19.06-3.219-30.503 0.001-0.008-0.001-0.016 0-0.025l6.908-95.15 55.26-0.792a5.9151 5.9151 0 0 0 5.8432 -5.9174v-23.373a5.9151 5.9151 0 0 0 -5.93 -5.91h-149.5a5.9151 5.9151 0 0 0 -0.22283 0"/>
</svg>
