<?xml version="1.0" encoding="UTF-8" standalone="no"?>
<svg xmlns="http://www.w3.org/2000/svg" viewBox="0 0 512 512">
 <text style="word-spacing:0;letter-spacing:0" font-size="129.23" y="231.36" x="729.64" font-family="Gentium Book Basic" line-height="125%">
  <tspan y="231.36" x="729.64"/>
 </text>
 <text style="text-anchor:middle" transform="scale(4.0128.2492)" font-size="46.954" y="579.26" x="378.91" font-family="Arial"/>
 <text style="word-spacing:0;letter-spacing:0" font-size="129.23" y="151.36" x="1310.91" font-family="Gentium Book Basic" line-height="125%">
  <tspan y="151.36" x="1310.91"/>
 </text>
 <text style="text-anchor:middle" transform="scale(4.0128.2492)" font-size="46.954" y="258.22" x="523.76" font-family="Arial"/>
 <text style="word-spacing:0;letter-spacing:0" font-size="129.23" y="-29.9" x="239.33" font-family="Gentium Book Basic" line-height="125%">
  <tspan y="-29.9" x="239.33"/>
 </text>
 <text style="text-anchor:middle" transform="scale(4.0128.2492)" font-size="46.954" y="-469.13" x="256.72" font-family="Arial"/>
 <text style="word-spacing:0;letter-spacing:0" font-size="129.23" y="-246.37" x="1337.38" font-family="Gentium Book Basic" line-height="125%">
  <tspan y="-246.37" x="1337.38"/>
 </text>
 <text style="text-anchor:middle" transform="scale(4.0128.2492)" font-size="46.954" y="-1337.8" x="530.36" font-family="Arial"/>
 <text style="word-spacing:0;letter-spacing:0" font-size="129.23" y="-326.37" x="1918.65" font-family="Gentium Book Basic" line-height="125%">
  <tspan y="-326.37" x="1918.65"/>
 </text>
 <text style="text-anchor:middle" transform="scale(4.0128.2492)" font-size="46.954" y="-1658.83" x="675.21" font-family="Arial"/>
 <text style="word-spacing:0;letter-spacing:0" font-size="129.23" y="-798.77" x="1529.53" font-family="Gentium Book Basic" line-height="125%">
  <tspan y="-798.77" x="1529.53"/>
 </text>
 <text style="text-anchor:middle" transform="scale(4.0128.2492)" font-size="46.954" y="-3554.48" x="578.24" font-family="Arial"/>
 <text style="word-spacing:0;letter-spacing:0" font-size="129.23" y="-878.78" x="2110.79" font-family="Gentium Book Basic" line-height="125%">
  <tspan y="-878.78" x="2110.79"/>
 </text>
 <text style="text-anchor:middle" transform="scale(4.0128.2492)" font-size="46.954" y="-3875.52" x="723.09" font-family="Arial"/>
 <g style="word-spacing:0;letter-spacing:0" line-height="125%">
  <text y="535.94" x="277.99" font-size="208.33" font-family="Gentium Book Basic">
   <tspan y="535.94" x="277.99"/>
  </text>
  <text y="231.36" x="729.64" font-size="129.23" font-family="&apos;Gentium Book Basic&apos;">
   <tspan y="231.36" x="729.64"/>
  </text>
 </g>
 <text style="text-anchor:middle" transform="scale(4.0128.2492)" font-size="46.954" y="579.26" x="378.91" font-family="Arial"/>
 <text style="word-spacing:0;letter-spacing:0" font-size="129.23" y="151.36" x="1310.91" font-family="&apos;Gentium Book Basic&apos;" line-height="125%">
  <tspan y="151.36" x="1310.91"/>
 </text>
 <text style="text-anchor:middle" transform="scale(4.0128.2492)" font-size="46.954" y="258.22" x="523.76" font-family="Arial"/>
 <text style="word-spacing:0;letter-spacing:0" font-size="129.23" y="-29.9" x="239.33" font-family="&apos;Gentium Book Basic&apos;" line-height="125%">
  <tspan y="-29.9" x="239.33"/>
 </text>
 <text style="text-anchor:middle" transform="scale(4.0128.2492)" font-size="46.954" y="-469.13" x="256.72" font-family="Arial"/>
 <text style="word-spacing:0;letter-spacing:0" font-size="129.23" y="-246.37" x="1337.38" font-family="&apos;Gentium Book Basic&apos;" line-height="125%">
  <tspan y="-246.37" x="1337.38"/>
 </text>
 <text style="text-anchor:middle" transform="scale(4.0128.2492)" font-size="46.954" y="-1337.79" x="530.36" font-family="Arial"/>
 <text style="word-spacing:0;letter-spacing:0" font-size="129.23" y="-326.37" x="1918.65" font-family="&apos;Gentium Book Basic&apos;" line-height="125%">
  <tspan y="-326.37" x="1918.65"/>
 </text>
 <text style="text-anchor:middle" transform="scale(4.0128.2492)" font-size="46.954" y="-1658.82" x="675.21" font-family="Arial"/>
 <text style="word-spacing:0;letter-spacing:0" font-size="129.23" y="-798.77" x="1529.53" font-family="&apos;Gentium Book Basic&apos;" line-height="125%">
  <tspan y="-798.77" x="1529.53"/>
 </text>
 <text style="text-anchor:middle" transform="scale(4.0128.2492)" font-size="46.954" y="-3554.46" x="578.24" font-family="Arial"/>
 <text style="word-spacing:0;letter-spacing:0" font-size="129.23" y="-878.78" x="2110.79" font-family="&apos;Gentium Book Basic&apos;" line-height="125%">
  <tspan y="-878.78" x="2110.79"/>
 </text>
 <text style="text-anchor:middle" transform="scale(4.0128.2492)" font-size="46.954" y="-3875.5" x="723.09" font-family="Arial"/>
 <g style="word-spacing:0;letter-spacing:0" font-family="&apos;Gentium Book Basic&apos;" line-height="125%">
  <text y="535.94" x="277.99" font-size="208.33">
   <tspan y="535.94" x="277.99"/>
  </text>
  <text y="231.36" x="729.64" font-size="129.23">
   <tspan y="231.36" x="729.64"/>
  </text>
 </g>
 <text style="text-anchor:middle" transform="scale(4.0128.2492)" font-size="46.954" y="579.26" x="378.91" font-family="Arial"/>
 <text style="word-spacing:0;letter-spacing:0" font-size="129.23" y="151.36" x="1310.91" font-family="&apos;Gentium Book Basic&apos;" line-height="125%">
  <tspan y="151.36" x="1310.91"/>
 </text>
 <text style="text-anchor:middle" transform="scale(4.0128.2492)" font-size="46.954" y="258.22" x="523.76" font-family="Arial"/>
 <text style="word-spacing:0;letter-spacing:0" font-size="129.23" y="-29.9" x="239.33" font-family="&apos;Gentium Book Basic&apos;" line-height="125%">
  <tspan y="-29.9" x="239.33"/>
 </text>
 <text style="text-anchor:middle" transform="scale(4.0128.2492)" font-size="46.954" y="-469.13" x="256.72" font-family="Arial"/>
 <text style="word-spacing:0;letter-spacing:0" font-size="129.23" y="-246.37" x="1337.38" font-family="&apos;Gentium Book Basic&apos;" line-height="125%">
  <tspan y="-246.37" x="1337.38"/>
 </text>
 <text style="text-anchor:middle" transform="scale(4.0128.2492)" font-size="46.954" y="-1337.8" x="530.36" font-family="Arial"/>
 <text style="word-spacing:0;letter-spacing:0" font-size="129.23" y="-326.37" x="1918.65" font-family="&apos;Gentium Book Basic&apos;" line-height="125%">
  <tspan y="-326.37" x="1918.65"/>
 </text>
 <text style="text-anchor:middle" transform="scale(4.0128.2492)" font-size="46.954" y="-1658.83" x="675.21" font-family="Arial"/>
 <text style="word-spacing:0;letter-spacing:0" font-size="129.23" y="-798.77" x="1529.53" font-family="&apos;Gentium Book Basic&apos;" line-height="125%">
  <tspan y="-798.77" x="1529.53"/>
 </text>
 <text style="text-anchor:middle" transform="scale(4.0128.2492)" font-size="46.954" y="-3554.48" x="578.24" font-family="Arial"/>
 <text style="word-spacing:0;letter-spacing:0" font-size="129.23" y="-878.78" x="2110.79" font-family="&apos;Gentium Book Basic&apos;" line-height="125%">
  <tspan y="-878.78" x="2110.79"/>
 </text>
 <text style="text-anchor:middle" transform="scale(4.0128.2492)" font-size="46.954" y="-3875.52" x="723.09" font-family="Arial"/>
 <g style="word-spacing:0;letter-spacing:0" font-family="&apos;Gentium Book Basic&apos;" line-height="125%">
  <text y="535.94" x="277.99" font-size="208.33">
   <tspan y="535.94" x="277.99"/>
  </text>
  <text y="231.36" x="729.64" font-size="129.23">
   <tspan y="231.36" x="729.64"/>
  </text>
 </g>
 <text style="text-anchor:middle" transform="scale(4.0128.2492)" font-size="46.954" y="579.25" x="378.91" font-family="Arial"/>
 <text style="word-spacing:0;letter-spacing:0" font-size="129.23" y="151.36" x="1310.91" font-family="&apos;Gentium Book Basic&apos;" line-height="125%">
  <tspan y="151.36" x="1310.91"/>
 </text>
 <text style="text-anchor:middle" transform="scale(4.0128.2492)" font-size="46.954" y="258.22" x="523.76" font-family="Arial"/>
 <text style="word-spacing:0;letter-spacing:0" font-size="129.23" y="-29.901" x="239.33" font-family="&apos;Gentium Book Basic&apos;" line-height="125%">
  <tspan y="-29.901" x="239.33"/>
 </text>
 <text style="text-anchor:middle" transform="scale(4.0128.2492)" font-size="46.954" y="-469.14" x="256.72" font-family="Arial"/>
 <text style="word-spacing:0;letter-spacing:0" font-size="129.23" y="-246.37" x="1337.38" font-family="&apos;Gentium Book Basic&apos;" line-height="125%">
  <tspan y="-246.37" x="1337.38"/>
 </text>
 <text style="text-anchor:middle" transform="scale(4.0128.2492)" font-size="46.954" y="-1337.8" x="530.36" font-family="Arial"/>
 <text style="word-spacing:0;letter-spacing:0" font-size="129.23" y="-326.38" x="1918.65" font-family="&apos;Gentium Book Basic&apos;" line-height="125%">
  <tspan y="-326.38" x="1918.65"/>
 </text>
 <text style="text-anchor:middle" transform="scale(4.0128.2492)" font-size="46.954" y="-1658.84" x="675.21" font-family="Arial"/>
 <text style="word-spacing:0;letter-spacing:0" font-size="129.23" y="-798.78" x="1529.53" font-family="&apos;Gentium Book Basic&apos;" line-height="125%">
  <tspan y="-798.78" x="1529.53"/>
 </text>
 <text style="text-anchor:middle" transform="scale(4.0128.2492)" font-size="46.954" y="-3554.49" x="578.24" font-family="Arial"/>
 <text style="word-spacing:0;letter-spacing:0" font-size="129.23" y="-878.78" x="2110.79" font-family="&apos;Gentium Book Basic&apos;" line-height="125%">
  <tspan y="-878.78" x="2110.79"/>
 </text>
 <text style="text-anchor:middle" transform="scale(4.0128.2492)" font-size="46.954" y="-3875.52" x="723.09" font-family="Arial"/>
 <g style="word-spacing:0;letter-spacing:0" font-family="&apos;Gentium Book Basic&apos;" line-height="125%">
  <text y="535.94" x="277.99" font-size="208.33">
   <tspan y="535.94" x="277.99"/>
  </text>
  <text y="-7.284" x="-715.24" font-size="129.23">
   <tspan y="-7.284" x="-715.24"/>
  </text>
 </g>
 <text style="text-anchor:middle" transform="scale(4.0128.2492)" font-size="46.954" y="-378.39" x="18.842" font-family="Arial"/>
 <text style="word-spacing:0;letter-spacing:0" font-size="129.23" y="-87.28" x="-133.97" font-family="&apos;Gentium Book Basic&apos;" line-height="125%">
  <tspan y="-87.28" x="-133.97"/>
 </text>
 <text style="text-anchor:middle" transform="scale(4.0128.2492)" font-size="46.954" y="-699.42" x="163.69" font-family="Arial"/>
 <text style="word-spacing:0;letter-spacing:0" font-size="129.23" y="-268.55" x="-1205.55" font-family="&apos;Gentium Book Basic&apos;" line-height="125%">
  <tspan y="-268.55" x="-1205.55"/>
 </text>
 <text style="text-anchor:middle" transform="scale(4.0128.2492)" font-size="46.954" y="-1426.77" x="-103.35" font-family="Arial"/>
 <text style="word-spacing:0;letter-spacing:0" font-size="129.23" y="-485.01" x="-107.5" font-family="&apos;Gentium Book Basic&apos;" line-height="125%">
  <tspan y="-485.01" x="-107.5"/>
 </text>
 <text style="text-anchor:middle" transform="scale(4.0128.2492)" font-size="46.954" y="-2295.44" x="170.29" font-family="Arial"/>
 <text style="word-spacing:0;letter-spacing:0" font-size="129.23" y="-565.02" x="473.77" font-family="&apos;Gentium Book Basic&apos;" line-height="125%">
  <tspan y="-565.02" x="473.77"/>
 </text>
 <text style="text-anchor:middle" transform="scale(4.0128.2492)" font-size="46.954" y="-2616.48" x="315.14" font-family="Arial"/>
 <text style="word-spacing:0;letter-spacing:0" font-size="129.23" y="-1037.42" x="84.65" font-family="&apos;Gentium Book Basic&apos;" line-height="125%">
  <tspan y="-1037.42" x="84.65"/>
 </text>
 <text style="text-anchor:middle" transform="scale(4.0128.2492)" font-size="46.954" y="-4512.13" x="218.17" font-family="Arial"/>
 <text style="word-spacing:0;letter-spacing:0" font-size="129.23" y="-1117.42" x="665.91" font-family="&apos;Gentium Book Basic&apos;" line-height="125%">
  <tspan y="-1117.42" x="665.91"/>
 </text>
 <text style="text-anchor:middle" transform="scale(4.0128.2492)" font-size="46.954" y="-4833.16" x="363.02" font-family="Arial"/>
 <g style="word-spacing:0;letter-spacing:0" font-family="&apos;Gentium Book Basic&apos;" line-height="125%" font-size="208.33">
  <text y="297.3" x="-1166.89">
   <tspan y="297.3" x="-1166.89"/>
  </text>
  <text y="-199.78" x="-1595.8">
   <tspan y="-199.78" x="-1595.8"/>
  </text>
 </g>
 <text style="text-anchor:middle" transform="scale(4.0128.2492)" font-size="75.7" y="-1364.57" x="-79.947" font-family="Arial"/>
 <text style="word-spacing:0;letter-spacing:0" font-size="208.33" y="-967.73" x="-2243.56" font-family="&apos;Gentium Book Basic&apos;" line-height="125%">
  <tspan y="-967.73" x="-2243.56"/>
 </text>
 <text style="text-anchor:middle" transform="scale(4.0128.2492)" font-size="75.7" y="-4446.23" x="-241.37" font-family="Arial"/>
 <text style="word-spacing:0;letter-spacing:0" font-size="208.33" y="-1123.36" x="-1537.22" font-family="&apos;Gentium Book Basic&apos;" line-height="125%">
  <tspan y="-1123.36" x="-1537.22"/>
 </text>
 <text style="text-anchor:middle" transform="scale(4.0128.2492)" font-size="75.7" y="-5070.76" x="-65.35" font-family="Arial"/>
 <text style="word-spacing:0;letter-spacing:0" font-size="129.23" y="88.17" x="-639.31" font-family="&apos;Gentium Book Basic&apos;" line-height="125%">
  <tspan y="88.17" x="-639.31"/>
 </text>
 <text style="text-anchor:middle" transform="scale(4.0128.2492)" font-size="46.954" y="4.666" x="37.764" font-family="Arial"/>
 <text style="word-spacing:0;letter-spacing:0" font-size="129.23" y="8.174" x="-58.04" font-family="&apos;Gentium Book Basic&apos;" line-height="125%">
  <tspan y="8.174" x="-58.04"/>
 </text>
 <text style="text-anchor:middle" transform="scale(4.0128.2492)" font-size="46.954" y="-316.36" x="182.61" font-family="Arial"/>
 <text style="word-spacing:0;letter-spacing:0" font-size="129.23" y="-173.09" x="-1129.62" font-family="&apos;Gentium Book Basic&apos;" line-height="125%">
  <tspan y="-173.09" x="-1129.62"/>
 </text>
 <text style="text-anchor:middle" transform="scale(4.0128.2492)" font-size="46.954" y="-1043.72" x="-84.43" font-family="Arial"/>
 <text style="word-spacing:0;letter-spacing:0" font-size="129.23" y="-389.56" x="-31.569" font-family="&apos;Gentium Book Basic&apos;" line-height="125%">
  <tspan y="-389.56" x="-31.569"/>
 </text>
 <text style="text-anchor:middle" transform="scale(4.0128.2492)" font-size="46.954" y="-1912.38" x="189.21" font-family="Arial"/>
 <text style="word-spacing:0;letter-spacing:0" font-size="129.23" y="-469.57" x="549.7" font-family="&apos;Gentium Book Basic&apos;" line-height="125%">
  <tspan y="-469.57" x="549.7"/>
 </text>
 <text style="text-anchor:middle" transform="scale(4.0128.2492)" font-size="46.954" y="-2233.42" x="334.06" font-family="Arial"/>
 <text style="word-spacing:0;letter-spacing:0" font-size="129.23" y="-941.97" x="160.58" font-family="&apos;Gentium Book Basic&apos;" line-height="125%">
  <tspan y="-941.97" x="160.58"/>
 </text>
 <text style="text-anchor:middle" transform="scale(4.0128.2492)" font-size="46.954" y="-4129.07" x="237.09" font-family="Arial"/>
 <text style="word-spacing:0;letter-spacing:0" font-size="129.23" y="-1021.97" x="741.84" font-family="&apos;Gentium Book Basic&apos;" line-height="125%">
  <tspan y="-1021.97" x="741.84"/>
 </text>
 <text style="text-anchor:middle" transform="scale(4.0128.2492)" font-size="46.954" y="-4450.1" x="381.94" font-family="Arial"/>
 <g style="word-spacing:0;letter-spacing:0" font-family="&apos;Gentium Book Basic&apos;" line-height="125%">
  <text y="392.75" x="-1090.96" font-size="208.33">
   <tspan y="392.75" x="-1090.96"/>
  </text>
  <text y="61.54" x="-643.54" font-size="129.23">
   <tspan y="61.54" x="-643.54"/>
  </text>
 </g>
 <text style="text-anchor:middle" transform="scale(4.0128.2492)" font-size="46.954" y="-102.19" x="36.711" font-family="Arial"/>
 <text style="word-spacing:0;letter-spacing:0" font-size="129.23" y="-18.456" x="-62.27" font-family="&apos;Gentium Book Basic&apos;" line-height="125%">
  <tspan y="-18.456" x="-62.27"/>
 </text>
 <text style="text-anchor:middle" transform="scale(4.0128.2492)" font-size="46.954" y="-423.22" x="181.56" font-family="Arial"/>
 <text style="word-spacing:0;letter-spacing:0" font-size="129.23" y="-199.72" x="-1133.85" font-family="&apos;Gentium Book Basic&apos;" line-height="125%">
  <tspan y="-199.72" x="-1133.85"/>
 </text>
 <text style="text-anchor:middle" transform="scale(4.0128.2492)" font-size="46.954" y="-1150.58" x="-85.48" font-family="Arial"/>
 <text style="word-spacing:0;letter-spacing:0" font-size="129.23" y="-416.19" x="-35.796" font-family="&apos;Gentium Book Basic&apos;" line-height="125%">
  <tspan y="-416.19" x="-35.796"/>
 </text>
 <text style="text-anchor:middle" transform="scale(4.0128.2492)" font-size="46.954" y="-2019.24" x="188.16" font-family="Arial"/>
 <text style="word-spacing:0;letter-spacing:0" font-size="129.23" y="-496.2" x="545.47" font-family="&apos;Gentium Book Basic&apos;" line-height="125%">
  <tspan y="-496.2" x="545.47"/>
 </text>
 <text style="text-anchor:middle" transform="scale(4.0128.2492)" font-size="46.954" y="-2340.28" x="333.01" font-family="Arial"/>
 <text style="word-spacing:0;letter-spacing:0" font-size="129.23" y="-968.6" x="156.35" font-family="&apos;Gentium Book Basic&apos;" line-height="125%">
  <tspan y="-968.6" x="156.35"/>
 </text>
 <text style="text-anchor:middle" transform="scale(4.0128.2492)" font-size="46.954" y="-4235.93" x="236.04" font-family="Arial"/>
 <text style="word-spacing:0;letter-spacing:0" font-size="129.23" y="-1048.6" x="737.61" font-family="&apos;Gentium Book Basic&apos;" line-height="125%">
  <tspan y="-1048.6" x="737.61"/>
 </text>
 <text style="text-anchor:middle" transform="scale(4.0128.2492)" font-size="46.954" y="-4556.96" x="380.89" font-family="Arial"/>
 <g style="word-spacing:0;letter-spacing:0" font-family="&apos;Gentium Book Basic&apos;" line-height="125%">
  <text y="366.12" x="-1095.19" font-size="208.33">
   <tspan y="366.12" x="-1095.19"/>
  </text>
  <text y="-235.08" x="-695.72" font-size="129.23">
   <tspan y="-235.08" x="-695.72"/>
  </text>
 </g>
 <text style="text-anchor:middle" transform="scale(4.0128.2492)" font-size="46.954" y="-1292.5" x="23.708" font-family="Arial"/>
 <text style="word-spacing:0;letter-spacing:0" font-size="129.23" y="-315.08" x="-114.45" font-family="&apos;Gentium Book Basic&apos;" line-height="125%">
  <tspan y="-315.08" x="-114.45"/>
 </text>
 <text style="text-anchor:middle" transform="scale(4.0128.2492)" font-size="46.954" y="-1613.52" x="168.56" font-family="Arial"/>
 <text style="word-spacing:0;letter-spacing:0" font-size="129.23" y="-496.34" x="-1186.03" font-family="&apos;Gentium Book Basic&apos;" line-height="125%">
  <tspan y="-496.34" x="-1186.03"/>
 </text>
 <text style="text-anchor:middle" transform="scale(4.0128.2492)" font-size="46.954" y="-2340.88" x="-98.48" font-family="Arial"/>
 <text style="word-spacing:0;letter-spacing:0" font-size="129.23" y="-712.81" x="-87.976" font-family="&apos;Gentium Book Basic&apos;" line-height="125%">
  <tspan y="-712.81" x="-87.976"/>
 </text>
 <text style="text-anchor:middle" transform="scale(4.0128.2492)" font-size="46.954" y="-3209.55" x="175.16" font-family="Arial"/>
 <text style="word-spacing:0;letter-spacing:0" font-size="129.23" y="-792.82" x="493.29" font-family="&apos;Gentium Book Basic&apos;" line-height="125%">
  <tspan y="-792.82" x="493.29"/>
 </text>
 <text style="text-anchor:middle" transform="scale(4.0128.2492)" font-size="46.954" y="-3530.58" x="320.01" font-family="Arial"/>
 <text style="word-spacing:0;letter-spacing:0" font-size="129.23" y="-1265.22" x="104.17" font-family="&apos;Gentium Book Basic&apos;" line-height="125%">
  <tspan y="-1265.22" x="104.17"/>
 </text>
 <text style="text-anchor:middle" transform="scale(4.0128.2492)" font-size="46.954" y="-5426.23" x="223.04" font-family="Arial"/>
 <text style="word-spacing:0;letter-spacing:0" font-size="129.23" y="-1345.22" x="685.43" font-family="&apos;Gentium Book Basic&apos;" line-height="125%">
  <tspan y="-1345.22" x="685.43"/>
 </text>
 <text style="text-anchor:middle" transform="scale(4.0128.2492)" font-size="46.954" y="-5747.26" x="367.89" font-family="Arial"/>
 <g style="word-spacing:0;letter-spacing:0" font-family="&apos;Gentium Book Basic&apos;" line-height="125%">
  <text y="69.5" x="-1147.37" font-size="208.33">
   <tspan y="69.5" x="-1147.37"/>
  </text>
  <text y="231.36" x="729.64" font-size="129.23">
   <tspan y="231.36" x="729.64"/>
  </text>
 </g>
 <text style="text-anchor:middle" transform="scale(4.0128.2492)" font-size="46.954" y="579.25" x="378.91" font-family="Arial"/>
 <text style="word-spacing:0;letter-spacing:0" font-size="129.23" y="151.36" x="1310.91" font-family="&apos;Gentium Book Basic&apos;" line-height="125%">
  <tspan y="151.36" x="1310.91"/>
 </text>
 <text style="text-anchor:middle" transform="scale(4.0128.2492)" font-size="46.954" y="258.22" x="523.76" font-family="Arial"/>
 <text style="word-spacing:0;letter-spacing:0" font-size="129.23" y="-29.901" x="239.33" font-family="&apos;Gentium Book Basic&apos;" line-height="125%">
  <tspan y="-29.901" x="239.33"/>
 </text>
 <text style="text-anchor:middle" transform="scale(4.0128.2492)" font-size="46.954" y="-469.14" x="256.72" font-family="Arial"/>
 <text style="word-spacing:0;letter-spacing:0" font-size="129.23" y="-246.37" x="1337.38" font-family="&apos;Gentium Book Basic&apos;" line-height="125%">
  <tspan y="-246.37" x="1337.38"/>
 </text>
 <text style="text-anchor:middle" transform="scale(4.0128.2492)" font-size="46.954" y="-1337.8" x="530.36" font-family="Arial"/>
 <text style="word-spacing:0;letter-spacing:0" font-size="129.23" y="-326.38" x="1918.65" font-family="&apos;Gentium Book Basic&apos;" line-height="125%">
  <tspan y="-326.38" x="1918.65"/>
 </text>
 <text style="text-anchor:middle" transform="scale(4.0128.2492)" font-size="46.954" y="-1658.84" x="675.21" font-family="Arial"/>
 <text style="word-spacing:0;letter-spacing:0" font-size="129.23" y="-798.78" x="1529.53" font-family="&apos;Gentium Book Basic&apos;" line-height="125%">
  <tspan y="-798.78" x="1529.53"/>
 </text>
 <text style="text-anchor:middle" transform="scale(4.0128.2492)" font-size="46.954" y="-3554.49" x="578.24" font-family="Arial"/>
 <text style="word-spacing:0;letter-spacing:0" font-size="129.23" y="-878.78" x="2110.79" font-family="&apos;Gentium Book Basic&apos;" line-height="125%">
  <tspan y="-878.78" x="2110.79"/>
 </text>
 <text style="text-anchor:middle" transform="scale(4.0128.2492)" font-size="46.954" y="-3875.52" x="723.09" font-family="Arial"/>
 <g style="word-spacing:0;letter-spacing:0" font-family="&apos;Gentium Book Basic&apos;" line-height="125%">
  <text y="535.94" x="277.99" font-size="208.33">
   <tspan y="535.94" x="277.99"/>
  </text>
  <text y="88.17" x="-877.95" font-size="129.23">
   <tspan y="88.17" x="-877.95"/>
  </text>
 </g>
 <text style="text-anchor:middle" transform="scale(4.0128.2492)" font-size="46.954" y="4.666" x="-21.706" font-family="Arial"/>
 <text style="word-spacing:0;letter-spacing:0" font-size="129.23" y="8.174" x="-296.68" font-family="&apos;Gentium Book Basic&apos;" line-height="125%">
  <tspan y="8.174" x="-296.68"/>
 </text>
 <text style="text-anchor:middle" transform="scale(4.0128.2492)" font-size="46.954" y="-316.36" x="123.14" font-family="Arial"/>
 <text style="word-spacing:0;letter-spacing:0" font-size="129.23" y="-173.09" x="-1368.26" font-family="&apos;Gentium Book Basic&apos;" line-height="125%">
  <tspan y="-173.09" x="-1368.26"/>
 </text>
 <text style="text-anchor:middle" transform="scale(4.0128.2492)" font-size="46.954" y="-1043.72" x="-143.9" font-family="Arial"/>
 <text style="word-spacing:0;letter-spacing:0" font-size="129.23" y="-389.56" x="-270.21" font-family="&apos;Gentium Book Basic&apos;" line-height="125%">
  <tspan y="-389.56" x="-270.21"/>
 </text>
 <text style="text-anchor:middle" transform="scale(4.0128.2492)" font-size="46.954" y="-1912.38" x="129.74" font-family="Arial"/>
 <text style="word-spacing:0;letter-spacing:0" font-size="129.23" y="-469.57" x="311.06" font-family="&apos;Gentium Book Basic&apos;" line-height="125%">
  <tspan y="-469.57" x="311.06"/>
 </text>
 <text style="text-anchor:middle" transform="scale(4.0128.2492)" font-size="46.954" y="-2233.42" x="274.59" font-family="Arial"/>
 <text style="word-spacing:0;letter-spacing:0" font-size="129.23" y="-941.97" x="-78.06" font-family="&apos;Gentium Book Basic&apos;" line-height="125%">
  <tspan y="-941.97" x="-78.06"/>
 </text>
 <text style="text-anchor:middle" transform="scale(4.0128.2492)" font-size="46.954" y="-4129.07" x="177.62" font-family="Arial"/>
 <text style="word-spacing:0;letter-spacing:0" font-size="129.23" y="-1021.97" x="503.2" font-family="&apos;Gentium Book Basic&apos;" line-height="125%">
  <tspan y="-1021.97" x="503.2"/>
 </text>
 <text style="text-anchor:middle" transform="scale(4.0128.2492)" font-size="46.954" y="-4450.1" x="322.47" font-family="Arial"/>
 <g style="word-spacing:0;letter-spacing:0" font-family="&apos;Gentium Book Basic&apos;" line-height="125%" font-size="208.33">
  <text y="392.75" x="-1329.6">
   <tspan y="392.75" x="-1329.6"/>
  </text>
  <text y="-104.32" x="-1758.51">
   <tspan y="-104.32" x="-1758.51"/>
  </text>
 </g>
 <text style="text-anchor:middle" transform="scale(4.0128.2492)" font-size="75.7" y="-981.51" x="-120.49" font-family="Arial"/>
 <text style="word-spacing:0;letter-spacing:0" font-size="208.33" y="-872.27" x="-2406.27" font-family="&apos;Gentium Book Basic&apos;" line-height="125%">
  <tspan y="-872.27" x="-2406.27"/>
 </text>
 <text style="text-anchor:middle" transform="scale(4.0128.2492)" font-size="75.7" y="-4063.17" x="-281.92" font-family="Arial"/>
 <text style="word-spacing:0;letter-spacing:0" font-size="208.33" y="-1027.9" x="-1699.93" font-family="&apos;Gentium Book Basic&apos;" line-height="125%">
  <tspan y="-1027.9" x="-1699.93"/>
 </text>
 <text style="text-anchor:middle" transform="scale(4.0128.2492)" font-size="75.7" y="-4687.7" x="-105.9" font-family="Arial"/>
 <text style="word-spacing:0;letter-spacing:0" font-size="129.23" y="183.63" x="-802.02" font-family="&apos;Gentium Book Basic&apos;" line-height="125%">
  <tspan y="183.63" x="-802.02"/>
 </text>
 <text style="text-anchor:middle" transform="scale(4.0128.2492)" font-size="46.954" y="387.72" x="-2.784" font-family="Arial"/>
 <text style="word-spacing:0;letter-spacing:0" font-size="129.23" y="103.63" x="-220.75" font-family="&apos;Gentium Book Basic&apos;" line-height="125%">
  <tspan y="103.63" x="-220.75"/>
 </text>
 <text style="text-anchor:middle" transform="scale(4.0128.2492)" font-size="46.954" y="66.69" x="142.07" font-family="Arial"/>
 <text style="word-spacing:0;letter-spacing:0" font-size="129.23" y="-77.63" x="-1292.33" font-family="&apos;Gentium Book Basic&apos;" line-height="125%">
  <tspan y="-77.63" x="-1292.33"/>
 </text>
 <text style="text-anchor:middle" transform="scale(4.0128.2492)" font-size="46.954" y="-660.66" x="-124.97" font-family="Arial"/>
 <text style="word-spacing:0;letter-spacing:0" font-size="129.23" y="-294.1" x="-194.28" font-family="&apos;Gentium Book Basic&apos;" line-height="125%">
  <tspan y="-294.1" x="-194.28"/>
 </text>
 <text style="text-anchor:middle" transform="scale(4.0128.2492)" font-size="46.954" y="-1529.33" x="148.67" font-family="Arial"/>
 <text style="word-spacing:0;letter-spacing:0" font-size="129.23" y="-374.11" x="386.99" font-family="&apos;Gentium Book Basic&apos;" line-height="125%">
  <tspan y="-374.11" x="386.99"/>
 </text>
 <text style="text-anchor:middle" transform="scale(4.0128.2492)" font-size="46.954" y="-1850.37" x="293.51" font-family="Arial"/>
 <text style="word-spacing:0;letter-spacing:0" font-size="129.23" y="-846.51" x="-2.131" font-family="&apos;Gentium Book Basic&apos;" line-height="125%">
  <tspan y="-846.51" x="-2.131"/>
 </text>
 <text style="text-anchor:middle" transform="scale(4.0128.2492)" font-size="46.954" y="-3746.02" x="196.55" font-family="Arial"/>
 <text style="word-spacing:0;letter-spacing:0" font-size="129.23" y="-926.51" x="579.13" font-family="&apos;Gentium Book Basic&apos;" line-height="125%">
  <tspan y="-926.51" x="579.13"/>
 </text>
 <text style="text-anchor:middle" transform="scale(4.0128.2492)" font-size="46.954" y="-4067.05" x="341.39" font-family="Arial"/>
 <g style="word-spacing:0;letter-spacing:0" font-family="&apos;Gentium Book Basic&apos;" line-height="125%">
  <text y="488.21" x="-1253.67" font-size="208.33">
   <tspan y="488.21" x="-1253.67"/>
  </text>
  <text y="686.33" x="-596.63" font-size="129.23">
   <tspan y="686.33" x="-596.63"/>
  </text>
 </g>
 <text style="text-anchor:middle" transform="scale(4.0128.2492)" font-size="46.954" y="2404.96" x="48.4" font-family="Arial"/>
 <text style="word-spacing:0;letter-spacing:0" font-size="129.23" y="606.33" x="-15.356" font-family="&apos;Gentium Book Basic&apos;" line-height="125%">
  <tspan y="606.33" x="-15.356"/>
 </text>
 <text style="text-anchor:middle" transform="scale(4.0128.2492)" font-size="46.954" y="2083.93" x="193.25" font-family="Arial"/>
 <text style="word-spacing:0;letter-spacing:0" font-size="129.23" y="425.07" x="-1086.94" font-family="&apos;Gentium Book Basic&apos;" line-height="125%">
  <tspan y="425.07" x="-1086.94"/>
 </text>
 <text style="text-anchor:middle" transform="scale(4.0128.2492)" font-size="46.954" y="1356.58" x="-73.79" font-family="Arial"/>
 <text style="word-spacing:0;letter-spacing:0" font-size="129.23" y="208.6" x="11.11" font-family="&apos;Gentium Book Basic&apos;" line-height="125%">
  <tspan y="208.6" x="11.11"/>
 </text>
 <text style="text-anchor:middle" transform="scale(4.0128.2492)" font-size="46.954" y="487.91" x="199.85" font-family="Arial"/>
 <text style="word-spacing:0;letter-spacing:0" font-size="129.23" y="128.59" x="592.38" font-family="&apos;Gentium Book Basic&apos;" line-height="125%">
  <tspan y="128.59" x="592.38"/>
 </text>
 <text style="text-anchor:middle" transform="scale(4.0128.2492)" font-size="46.954" y="166.87" x="344.7" font-family="Arial"/>
 <text style="word-spacing:0;letter-spacing:0" font-size="129.23" y="-343.81" x="203.26" font-family="&apos;Gentium Book Basic&apos;" line-height="125%">
  <tspan y="-343.81" x="203.26"/>
 </text>
 <text style="text-anchor:middle" transform="scale(4.0128.2492)" font-size="46.954" y="-1728.78" x="247.73" font-family="Arial"/>
 <text style="word-spacing:0;letter-spacing:0" font-size="129.23" y="-423.81" x="784.52" font-family="&apos;Gentium Book Basic&apos;" line-height="125%">
  <tspan y="-423.81" x="784.52"/>
 </text>
 <text style="text-anchor:middle" transform="scale(4.0128.2492)" font-size="46.954" y="-2049.81" x="392.58" font-family="Arial"/>
 <g style="word-spacing:0;letter-spacing:0" font-family="&apos;Gentium Book Basic&apos;" line-height="125%">
  <text y="990.91" x="-1048.28" font-size="208.33">
   <tspan y="990.91" x="-1048.28"/>
  </text>
  <text y="608.23" x="-1540.36" font-size="129.23">
   <tspan y="608.23" x="-1540.36"/>
  </text>
 </g>
 <text style="text-anchor:middle" transform="scale(4.0128.2492)" font-size="46.954" y="2091.55" x="-186.78" font-family="Arial"/>
 <text style="word-spacing:0;letter-spacing:0" font-size="129.23" y="528.23" x="-959.09" font-family="&apos;Gentium Book Basic&apos;" line-height="125%">
  <tspan y="528.23" x="-959.09"/>
 </text>
 <text style="text-anchor:middle" transform="scale(4.0128.2492)" font-size="46.954" y="1770.52" x="-41.928" font-family="Arial"/>
 <text style="word-spacing:0;letter-spacing:0" font-size="129.23" y="346.97" x="-2030.67" font-family="&apos;Gentium Book Basic&apos;" line-height="125%">
  <tspan y="346.97" x="-2030.67"/>
 </text>
 <text style="text-anchor:middle" transform="scale(4.0128.2492)" font-size="46.954" y="1043.17" x="-308.97" font-family="Arial"/>
 <text style="word-spacing:0;letter-spacing:0" font-size="129.23" y="130.5" x="-932.62" font-family="&apos;Gentium Book Basic&apos;" line-height="125%">
  <tspan y="130.5" x="-932.62"/>
 </text>
 <text style="text-anchor:middle" transform="scale(4.0128.2492)" font-size="46.954" y="174.5" x="-35.33" font-family="Arial"/>
 <text style="word-spacing:0;letter-spacing:0" font-size="129.23" y="50.49" x="-351.35" font-family="&apos;Gentium Book Basic&apos;" line-height="125%">
  <tspan y="50.49" x="-351.35"/>
 </text>
 <text style="text-anchor:middle" transform="scale(4.0128.2492)" font-size="46.954" y="-146.54" x="109.52" font-family="Arial"/>
 <text style="word-spacing:0;letter-spacing:0" font-size="129.23" y="-421.91" x="-740.47" font-family="&apos;Gentium Book Basic&apos;" line-height="125%">
  <tspan y="-421.91" x="-740.47"/>
 </text>
 <text style="text-anchor:middle" transform="scale(4.0128.2492)" font-size="46.954" y="-2042.19" x="12.551" font-family="Arial"/>
 <text style="word-spacing:0;letter-spacing:0" font-size="129.23" y="-501.91" x="-159.21" font-family="&apos;Gentium Book Basic&apos;" line-height="125%">
  <tspan y="-501.91" x="-159.21"/>
 </text>
 <text style="text-anchor:middle" transform="scale(4.0128.2492)" font-size="46.954" y="-2363.22" x="157.4" font-family="Arial"/>
 <g style="word-spacing:0;letter-spacing:0" font-family="&apos;Gentium Book Basic&apos;" line-height="125%">
  <text y="912.81" x="-1992.01" font-size="208.33">
   <tspan y="912.81" x="-1992.01"/>
  </text>
  <text y="683.07" x="-1292.9" font-size="129.23">
   <tspan y="683.07" x="-1292.9"/>
  </text>
 </g>
 <text style="text-anchor:middle" transform="scale(4.0128.2492)" font-size="46.954" y="2391.89" x="-125.11" font-family="Arial"/>
 <text style="word-spacing:0;letter-spacing:0" font-size="129.23" y="603.07" x="-711.63" font-family="&apos;Gentium Book Basic&apos;" line-height="125%">
  <tspan y="603.07" x="-711.63"/>
 </text>
 <text style="text-anchor:middle" transform="scale(4.0128.2492)" font-size="46.954" y="2070.86" x="19.737" font-family="Arial"/>
 <text style="word-spacing:0;letter-spacing:0" font-size="129.23" y="421.81" x="-1783.21" font-family="&apos;Gentium Book Basic&apos;" line-height="125%">
  <tspan y="421.81" x="-1783.21"/>
 </text>
 <text style="text-anchor:middle" transform="scale(4.0128.2492)" font-size="46.954" y="1343.51" x="-247.3" font-family="Arial"/>
 <text style="word-spacing:0;letter-spacing:0" font-size="129.23" y="205.34" x="-685.16" font-family="&apos;Gentium Book Basic&apos;" line-height="125%">
  <tspan y="205.34" x="-685.16"/>
 </text>
 <text style="text-anchor:middle" transform="scale(4.0128.2492)" font-size="46.954" y="474.84" x="26.337" font-family="Arial"/>
 <text style="word-spacing:0;letter-spacing:0" font-size="129.23" y="125.33" x="-103.89" font-family="&apos;Gentium Book Basic&apos;" line-height="125%">
  <tspan y="125.33" x="-103.89"/>
 </text>
 <text style="text-anchor:middle" transform="scale(4.0128.2492)" font-size="46.954" y="153.8" x="171.19" font-family="Arial"/>
 <text style="word-spacing:0;letter-spacing:0" font-size="129.23" y="-347.07" x="-493.01" font-family="&apos;Gentium Book Basic&apos;" line-height="125%">
  <tspan y="-347.07" x="-493.01"/>
 </text>
 <text style="text-anchor:middle" transform="scale(4.0128.2492)" font-size="46.954" y="-1741.85" x="74.22" font-family="Arial"/>
 <text style="word-spacing:0;letter-spacing:0" font-size="129.23" y="-427.07" x="88.25" font-family="&apos;Gentium Book Basic&apos;" line-height="125%">
  <tspan y="-427.07" x="88.25"/>
 </text>
 <text style="text-anchor:middle" transform="scale(4.0128.2492)" font-size="46.954" y="-2062.87" x="219.07" font-family="Arial"/>
 <g style="word-spacing:0;letter-spacing:0" font-family="&apos;Gentium Book Basic&apos;" line-height="125%">
  <text y="987.65" x="-1744.55" font-size="208.33">
   <tspan y="987.65" x="-1744.55"/>
  </text>
  <text y=".817" x="-2158.94" font-size="129.23">
   <tspan y=".817" x="-2158.94"/>
  </text>
 </g>
 <text style="text-anchor:middle" transform="scale(4.0128.2492)" font-size="46.954" y="-345.88" x="-340.93" font-family="Arial"/>
 <text style="word-spacing:0;letter-spacing:0" font-size="129.23" y="-79.18" x="-1577.67" font-family="&apos;Gentium Book Basic&apos;" line-height="125%">
  <tspan y="-79.18" x="-1577.67"/>
 </text>
 <text style="text-anchor:middle" transform="scale(4.0128.2492)" font-size="46.954" y="-666.91" x="-196.08" font-family="Arial"/>
 <text style="word-spacing:0;letter-spacing:0" font-size="129.23" y="-260.44" x="-2649.25" font-family="&apos;Gentium Book Basic&apos;" line-height="125%">
  <tspan y="-260.44" x="-2649.25"/>
 </text>
 <text style="text-anchor:middle" transform="scale(4.0128.2492)" font-size="46.954" y="-1394.26" x="-463.12" font-family="Arial"/>
 <text style="word-spacing:0;letter-spacing:0" font-size="129.23" y="-476.91" x="-1551.2" font-family="&apos;Gentium Book Basic&apos;" line-height="125%">
  <tspan y="-476.91" x="-1551.2"/>
 </text>
 <text style="text-anchor:middle" transform="scale(4.0128.2492)" font-size="46.954" y="-2262.93" x="-189.48" font-family="Arial"/>
 <text style="word-spacing:0;letter-spacing:0" font-size="129.23" y="-556.92" x="-969.93" font-family="&apos;Gentium Book Basic&apos;" line-height="125%">
  <tspan y="-556.92" x="-969.93"/>
 </text>
 <text style="text-anchor:middle" transform="scale(4.0128.2492)" font-size="46.954" y="-2583.97" x="-44.632" font-family="Arial"/>
 <text style="word-spacing:0;letter-spacing:0" font-size="129.23" y="-1029.32" x="-1359.05" font-family="&apos;Gentium Book Basic&apos;" line-height="125%">
  <tspan y="-1029.32" x="-1359.05"/>
 </text>
 <text style="text-anchor:middle" transform="scale(4.0128.2492)" font-size="46.954" y="-4479.62" x="-141.6" font-family="Arial"/>
 <text style="word-spacing:0;letter-spacing:0" font-size="129.23" y="-1109.32" x="-777.79" font-family="&apos;Gentium Book Basic&apos;" line-height="125%">
  <tspan y="-1109.32" x="-777.79"/>
 </text>
 <text style="text-anchor:middle" transform="scale(4.0128.2492)" font-size="46.954" y="-4800.65" x="3.248" font-family="Arial"/>
 <g style="word-spacing:0;letter-spacing:0" font-family="&apos;Gentium Book Basic&apos;" line-height="125%" font-size="208.33">
  <text y="305.4" x="-2610.59">
   <tspan y="305.4" x="-2610.59"/>
  </text>
  <text y="-191.68" x="-3039.5">
   <tspan y="-191.68" x="-3039.5"/>
  </text>
 </g>
 <text style="text-anchor:middle" transform="scale(4.0128.2492)" font-size="75.7" y="-1332.06" x="-439.72" font-family="Arial"/>
 <text style="word-spacing:0;letter-spacing:0" font-size="208.33" y="-959.63" x="-3687.26" font-family="&apos;Gentium Book Basic&apos;" line-height="125%">
  <tspan y="-959.63" x="-3687.26"/>
 </text>
 <text style="text-anchor:middle" transform="scale(4.0128.2492)" font-size="75.7" y="-4413.72" x="-601.14" font-family="Arial"/>
 <text style="word-spacing:0;letter-spacing:0" font-size="208.33" y="-1115.26" x="-2980.92" font-family="&apos;Gentium Book Basic&apos;" line-height="125%">
  <tspan y="-1115.26" x="-2980.92"/>
 </text>
 <text style="text-anchor:middle" transform="scale(4.0128.2492)" font-size="75.7" y="-5038.25" x="-425.12" font-family="Arial"/>
 <text style="word-spacing:0;letter-spacing:0" font-size="129.23" y="170.04" x="-2508.23" font-family="&apos;Gentium Book Basic&apos;" line-height="125%">
  <tspan y="170.04" x="-2508.23"/>
 </text>
 <text style="text-anchor:middle" transform="scale(4.0128.2492)" font-size="46.954" y="333.17" x="-427.97" font-family="Arial"/>
 <text style="word-spacing:0;letter-spacing:0" font-size="129.23" y="90.04" x="-1926.96" font-family="&apos;Gentium Book Basic&apos;" line-height="125%">
  <tspan y="90.04" x="-1926.96"/>
 </text>
 <text style="text-anchor:middle" transform="scale(4.0128.2492)" font-size="46.954" y="12.143" x="-283.12" font-family="Arial"/>
 <text style="word-spacing:0;letter-spacing:0" font-size="129.23" y="-91.22" x="-2998.54" font-family="&apos;Gentium Book Basic&apos;" line-height="125%">
  <tspan y="-91.22" x="-2998.54"/>
 </text>
 <text style="text-anchor:middle" transform="scale(4.0128.2492)" font-size="46.954" y="-715.21" x="-550.16" font-family="Arial"/>
 <text style="word-spacing:0;letter-spacing:0" font-size="129.23" y="-307.69" x="-1900.49" font-family="&apos;Gentium Book Basic&apos;" line-height="125%">
  <tspan y="-307.69" x="-1900.49"/>
 </text>
 <text style="text-anchor:middle" transform="scale(4.0128.2492)" font-size="46.954" y="-1583.88" x="-276.52" font-family="Arial"/>
 <text style="word-spacing:0;letter-spacing:0" font-size="129.23" y="-387.7" x="-1319.22" font-family="&apos;Gentium Book Basic&apos;" line-height="125%">
  <tspan y="-387.7" x="-1319.22"/>
 </text>
 <text style="text-anchor:middle" transform="scale(4.0128.2492)" font-size="46.954" y="-1904.92" x="-131.68" font-family="Arial"/>
 <text style="word-spacing:0;letter-spacing:0" font-size="129.23" y="-860.1" x="-1708.34" font-family="&apos;Gentium Book Basic&apos;" line-height="125%">
  <tspan y="-860.1" x="-1708.34"/>
 </text>
 <text style="text-anchor:middle" transform="scale(4.0128.2492)" font-size="46.954" y="-3800.57" x="-228.64" font-family="Arial"/>
 <text style="word-spacing:0;letter-spacing:0" font-size="129.23" y="-940.1" x="-1127.08" font-family="&apos;Gentium Book Basic&apos;" line-height="125%">
  <tspan y="-940.1" x="-1127.08"/>
 </text>
 <text style="text-anchor:middle" transform="scale(4.0128.2492)" font-size="46.954" y="-4121.6" x="-83.8" font-family="Arial"/>
 <text style="word-spacing:0;letter-spacing:0" font-size="208.33" y="474.62" x="-2959.88" font-family="&apos;Gentium Book Basic&apos;" line-height="125%">
  <tspan y="474.62" x="-2959.88"/>
 </text>
 <g fill-rule="evenodd">
  <path d="m471.95 253.05c0 120.9-98.01 218.9-218.9 218.9-120.9 0-218.9-98.01-218.9-218.9 0-120.9 98.01-218.9 218.9-218.9 120.9 0 218.9 98.01 218.9 218.9" fill="#d8b232"/>
  <path d="m256 1c-140.83 0-255 114.17-255 255s114.17 255 255 255 255-114.17 255-255-114.17-255-255-255m8.827 44.931c120.9 0 218.9 98 218.9 218.9s-98 218.9-218.9 218.9-218.93-98-218.93-218.9 98.03-218.9 218.93-218.9" fill-opacity=".067"/>
  <g fill-opacity=".129">
   <path d="m256 4.433c-138.94 0-251.57 112.63-251.57 251.57s112.63 251.57 251.57 251.57 251.57-112.63 251.57-251.57-112.63-251.57-251.57-251.57m5.885 38.556c120.9 0 218.9 98 218.9 218.9s-98 218.9-218.9 218.9-218.93-98-218.93-218.9 98.03-218.9 218.93-218.9"/>
   <path d="m256 8.356c-136.77 0-247.64 110.87-247.64 247.64s110.87 247.64 247.64 247.64 247.64-110.87 247.64-247.64-110.87-247.64-247.64-247.64m2.942 31.691c120.9 0 218.9 98 218.9 218.9s-98 218.9-218.9 218.9-218.93-98-218.93-218.9 98.03-218.9 218.93-218.9"/>
  </g>
  <path stroke="#000" stroke-width="4.904" d="m253.04 7.859c-135.42 0-245.19 109.78-245.19 245.19 0 135.42 109.78 245.19 245.19 245.19 135.42 0 245.19-109.78 245.19-245.19 0-135.42-109.78-245.19-245.19-245.19zm0 26.297c120.9 0 218.9 98 218.9 218.9s-98 218.9-218.9 218.9-218.93-98-218.93-218.9 98.03-218.9 218.93-218.9z" stroke-opacity=".31" fill="#fff"/>
 </g>
 <text style="word-spacing:0;letter-spacing:0" font-size="129.23" y="231.36" x="729.64" font-family="&apos;Gentium Book Basic&apos;" line-height="125%">
  <tspan y="231.36" x="729.64"/>
 </text>
 <text style="text-anchor:middle" transform="scale(4.0128.2492)" font-size="46.954" y="579.25" x="378.91" font-family="Arial"/>
 <text style="word-spacing:0;letter-spacing:0" font-size="129.23" y="151.36" x="1310.91" font-family="&apos;Gentium Book Basic&apos;" line-height="125%">
  <tspan y="151.36" x="1310.91"/>
 </text>
 <text style="text-anchor:middle" transform="scale(4.0128.2492)" font-size="46.954" y="258.22" x="523.76" font-family="Arial"/>
 <text style="word-spacing:0;letter-spacing:0" font-size="129.23" y="-29.901" x="239.33" font-family="&apos;Gentium Book Basic&apos;" line-height="125%">
  <tspan y="-29.901" x="239.33"/>
 </text>
 <text style="text-anchor:middle" transform="scale(4.0128.2492)" font-size="46.954" y="-469.14" x="256.72" font-family="Arial"/>
 <text style="word-spacing:0;letter-spacing:0" font-size="129.23" y="-246.37" x="1337.38" font-family="&apos;Gentium Book Basic&apos;" line-height="125%">
  <tspan y="-246.37" x="1337.38"/>
 </text>
 <text style="text-anchor:middle" transform="scale(4.0128.2492)" font-size="46.954" y="-1337.8" x="530.36" font-family="Arial"/>
 <text style="word-spacing:0;letter-spacing:0" font-size="129.23" y="-326.38" x="1918.65" font-family="&apos;Gentium Book Basic&apos;" line-height="125%">
  <tspan y="-326.38" x="1918.65"/>
 </text>
 <text style="text-anchor:middle" transform="scale(4.0128.2492)" font-size="46.954" y="-1658.84" x="675.21" font-family="Arial"/>
 <text style="word-spacing:0;letter-spacing:0" font-size="129.23" y="-798.78" x="1529.53" font-family="&apos;Gentium Book Basic&apos;" line-height="125%">
  <tspan y="-798.78" x="1529.53"/>
 </text>
 <text style="text-anchor:middle" transform="scale(4.0128.2492)" font-size="46.954" y="-3554.49" x="578.24" font-family="Arial"/>
 <text style="word-spacing:0;letter-spacing:0" font-size="129.23" y="-878.78" x="2110.79" font-family="&apos;Gentium Book Basic&apos;" line-height="125%">
  <tspan y="-878.78" x="2110.79"/>
 </text>
 <text style="text-anchor:middle" transform="scale(4.0128.2492)" font-size="46.954" y="-3875.52" x="723.09" font-family="Arial"/>
 <text style="word-spacing:0;letter-spacing:0" font-size="208.33" y="535.94" x="277.99" font-family="&apos;Gentium Book Basic&apos;" line-height="125%">
  <tspan y="535.94" x="277.99"/>
 </text>
 <path opacity=".25" d="m255.34 108.13c-13.647 5.357-11.593 24.559-12.795 36.928-0.406 6.295 1.192 17.11 6.074 21.992l8.143 8.143c-24.02 3.553-46.971 13.896-64.11 31.422-5.354 5.03-10.1 10.747-14.13 16.951l-18.209-18.209c-8.175-8.175-19.512-13.288-29.832-18.205-2.733-1.113-5.619-2.054-8.607-2.045l0.002 0.002c-14.987 1.457-10.792 12.454-2.906 20.34l46.947 46.947c-5.297 20.925-3.337 43.43 8.389 62.3 3.414 5.615 7.492 10.733 12.09 15.33l132.01 132c86.4-26.989 149.78-106.09 153.38-200.51l-73.842-73.842c-1.827-1.827-4.552-2.878-7.252-2.58l0.004 0.004c-13.443 2.845-24.941 11.437-35.629 19.992l-94.24-94.24c-1.39-1.39-3.167-2.368-5.467-2.719l-0.008-0.008m-74.22 232.41c-14.492 3.636-25.06 15.927-35.16 26.29-7.858 5.04-7.302 14.386-2.863 18.824l84.87 84.87c8.237 0.94 16.609 1.439 25.1 1.439 18.999 0 37.43-2.423 55.01-6.973l-122.67-122.67c-1.106-1.106-2.61-1.807-4.271-1.771l6.154 6.154v0.004l-6.158-6.158"/>
 <path d="m255.34 108.13c-13.647 5.357-11.593 24.56-12.795 36.928-0.632 9.796 3.592 30.535 17.487 22.835 10.273-9.279 7.166-25.25 6.861-37.635-1.452-7.661-1.708-20.629-11.553-22.12m23.07 65.67c-31.451-0.608-63.51 10.05-85.76 32.803-28.629 26.881-39.791 73.58-18.347 108.08 15.86 26.09 46.07 41.42 75.924 43.877 26.399-0.133 52.12-12.451 71.4-30.02 18.579-16.651 25.519-43.7 18.14-67.39-7.152-29.813-36.689-52.06-67.42-49.747-26.572 0.804-54.34 17.03-60.838 44.17-5.568 20.33 8.597 43.12 27.697 50.36 13.31 6.681 32.77-12.01 13.1-18.543-14.951-4.358-24.511-23.06-11.95-35.38 13.778-17.426 41.981-24.798 59.736-8.994 15.605 13.812 25.573 40.03 11.894 58.49-12.577 16.625-30.568 32.68-52.813 31.686-16.274 0.549-35 1.101-46.744-12.359-12.344-11.11-25.351-24.845-23.716-42.869-2.49-41.01 32.894-77.18 72.65-81.42 15.411-2.798 30.351 2.331 45.3 4.978 24.879 4.295 15.548-24.05-2.683-24.592-8.288-2.424-16.977-3.097-25.58-3.127m-156.52 11.299c-21.766 2.117-3.076 24.357 8.626 27.961 9.677 6.426 33.898 17.918 35.13-1.201-7.947-12.201-22.335-18.609-35.15-24.715-2.733-1.113-5.618-2.054-8.606-2.045m268.82 0c-14.907 3.154-27.434 13.378-39.1 22.78-14.765 7.361-2.438 28.25 10.64 17.319 13.67-8.08 30.15-15.183 37.533-30.13 1.919-5.678-3.626-10.574-9.08-9.972m-209.56 155.44c-14.492 3.636-25.06 15.928-35.16 26.29-13.58 8.707-2.03 30.28 11.257 17.16 11.95-9.853 25.13-20.819 29.96-36.03 0.756-3.674-2.227-7.495-6.05-7.413m137.21 10.977c-14.574 7.302 2.421 26.03 7.658 35.35 4.538 12.624 29.383 28.412 27.657 4.863-4.317-14.594-15.354-26.508-26.506-36.461-2.526-1.918-5.48-3.929-8.81-3.756" fill="#fff"/>
</svg>
