<?xml version="1.0" encoding="UTF-8" standalone="no"?>
<!-- Created with Inkscape (http://www.inkscape.org/) -->
<svg id="svg2" xmlns:rdf="http://www.w3.org/1999/02/22-rdf-syntax-ns#" xmlns="http://www.w3.org/2000/svg" height="100%" viewBox="0 0 512 512" width="100%" version="1.1" xmlns:cc="http://creativecommons.org/ns#" xmlns:dc="http://purl.org/dc/elements/1.1/">
 <metadata id="metadata82">
  <rdf:RDF>
   <cc:Work rdf:about="">
    <dc:format>image/svg+xml</dc:format>
    <dc:type rdf:resource="http://purl.org/dc/dcmitype/StillImage"/>
   </cc:Work>
  </rdf:RDF>
 </metadata>
 <path id="path4" d="m471.95 253.05c0 120.9-98.01 218.9-218.9 218.9-120.9 0-218.9-98.01-218.9-218.9 0-120.9 98.01-218.9 218.9-218.9 120.9 0 218.9 98.01 218.9 218.9" fill-rule="evenodd" fill="#9bd182"/>
 <path id="path6" fill="#d9c194" d="m437.56 135.22-189.03 108.31 169.75 153.09c33.422-38.433 53.656-88.63 53.656-143.56 0-43.38-12.608-83.83-34.375-117.84"/>
 <path id="path8" fill="#75b8f3" d="m80.75 118.06c-29.18 37.19-46.594 84.06-46.594 135 0 35.08 8.267 68.2 22.938 97.59l168.41-93.31 3.063-21.469-147.81-117.81"/>
 <path id="path10" style="color:#000000" fill="#fae597" d="m99.81 96.75c-8.594 8.428-16.508 17.571-23.625 27.313l137.53 117.59-165.47 88.81c4.503 11.907 10.02 23.313 16.438 34.13l175.38-100.19 165.59 145.53c8.945-8.703 17.17-18.13 24.531-28.25l-159.12-133.84 176-96.25c-5.165-9.857-11.07-19.255-17.625-28.16l-185.25 101.16-144.37-127.84"/>
 <path id="path12" opacity=".25" d="m255.19 90.63c-62 0.201-118.05 53.1-121.37 115.19-2.579 42.701 23.639 80.13 44.656 115.09 25.441 38.15 54.25 76.83 84.66 109.72 12.138 12.1 24.296 24.22 36.438 36.34 98.54-21.332 172.38-108.97 172.38-213.91v-0.25c-43.932-44.02-87.82-88.1-132.12-131.75-22.4-19.545-51.938-30.519-81.66-30.406-0.987-0.024-1.985-0.034-2.969-0.031"/>
 <text id="text14" style="word-spacing:0;letter-spacing:0" font-size="200px" line-height="125%" y="289.39001" x="-1188.17" font-family="Gentium Book Basic">
  <tspan id="tspan16" y="289.39001" x="-1188.17"/>
 </text>
 <g id="g18" transform="translate(0,-540.36)" fill-rule="evenodd">
  <path id="path20" fill-opacity=".067" d="m256 541.36c-140.83 0-255 114.17-255 255s114.17 255 255 255 255-114.17 255-255-114.17-255-255-255m8.827 44.931c120.9 0 218.9 98 218.9 218.9s-98 218.9-218.9 218.9-218.93-98-218.93-218.9 98.03-218.9 218.93-218.9"/>
  <g id="g22" fill-opacity=".129">
   <path id="path24" d="m256 544.79c-138.94 0-251.57 112.63-251.57 251.57s112.63 251.54 251.57 251.54 251.57-112.6 251.57-251.54-112.63-251.57-251.57-251.57m5.885 38.556c120.9 0 218.9 98 218.9 218.9s-98 218.9-218.9 218.9-218.93-98-218.93-218.9 98.03-218.9 218.93-218.9"/>
   <path id="path26" d="m256 548.72c-136.77 0-247.64 110.87-247.64 247.64s110.87 247.64 247.64 247.64 247.64-110.87 247.64-247.64-110.87-247.64-247.64-247.64m2.942 31.691c120.9 0 218.9 98 218.9 218.9s-98 218.9-218.9 218.9-218.93-98-218.93-218.9 98.03-218.9 218.93-218.9"/>
  </g>
  <path id="path28" d="m253.04 548.22c-135.42 0-245.19 109.78-245.19 245.19 0 135.42 109.78 245.19 245.19 245.19 135.42 0 245.19-109.78 245.19-245.19 0-135.42-109.78-245.19-245.19-245.19zm0 26.297c120.9 0 218.9 98 218.9 218.9s-98 218.9-218.9 218.9-218.93-98-218.93-218.9 98.03-218.9 218.93-218.9z" stroke-opacity=".31" stroke="#000" stroke-width="4.904" fill="#fff"/>
 </g>
 <text id="text30" style="word-spacing:0;letter-spacing:0" font-size="129.23px" line-height="125%" y="231.36" x="729.64001" font-family="Gentium Book Basic">
  <tspan id="tspan32" y="231.36" x="729.64001"/>
 </text>
 <text id="text34" style="text-anchor:middle" font-size="46.954px" transform="scale(4.0128 .2492)" y="579.26001" x="378.91" font-family="Arial"/>
 <text id="text36" style="word-spacing:0;letter-spacing:0" font-size="129.23px" line-height="125%" y="151.36" x="1310.91" font-family="Gentium Book Basic">
  <tspan id="tspan38" y="151.36" x="1310.91"/>
 </text>
 <text id="text40" style="text-anchor:middle" font-size="46.954px" transform="scale(4.0128 .2492)" y="258.22" x="523.76001" font-family="Arial"/>
 <text id="text42" style="word-spacing:0;letter-spacing:0" font-size="129.23px" line-height="125%" y="-29.9" x="239.33" font-family="Gentium Book Basic">
  <tspan id="tspan44" y="-29.9" x="239.33"/>
 </text>
 <text id="text46" style="text-anchor:middle" font-size="46.954px" transform="scale(4.0128 .2492)" y="-469.13" x="256.72" font-family="Arial"/>
 <text id="text48" style="word-spacing:0;letter-spacing:0" font-size="129.23px" line-height="125%" y="-246.37" x="1337.38" font-family="Gentium Book Basic">
  <tspan id="tspan50" y="-246.37" x="1337.38"/>
 </text>
 <text id="text52" style="text-anchor:middle" font-size="46.954px" transform="scale(4.0128 .2492)" y="-1337.8" x="530.35999" font-family="Arial"/>
 <text id="text54" style="word-spacing:0;letter-spacing:0" font-size="129.23px" line-height="125%" y="-326.37" x="1918.65" font-family="Gentium Book Basic">
  <tspan id="tspan56" y="-326.37" x="1918.65"/>
 </text>
 <text id="text58" style="text-anchor:middle" font-size="46.954px" transform="scale(4.0128 .2492)" y="-1658.83" x="675.21002" font-family="Arial"/>
 <text id="text60" style="word-spacing:0;letter-spacing:0" font-size="129.23px" line-height="125%" y="-798.77002" x="1529.53" font-family="Gentium Book Basic">
  <tspan id="tspan62" y="-798.77002" x="1529.53"/>
 </text>
 <text id="text64" style="text-anchor:middle" font-size="46.954px" transform="scale(4.0128 .2492)" y="-3554.48" x="578.23999" font-family="Arial"/>
 <text id="text66" style="word-spacing:0;letter-spacing:0" font-size="129.23px" line-height="125%" y="-878.78003" x="2110.79" font-family="Gentium Book Basic">
  <tspan id="tspan68" y="-878.78003" x="2110.79"/>
 </text>
 <text id="text70" style="text-anchor:middle" font-size="46.954px" transform="scale(4.0128 .2492)" y="-3875.52" x="723.09003" font-family="Arial"/>
 <text id="text72" style="word-spacing:0;letter-spacing:0" font-size="208.33px" line-height="125%" y="535.94" x="277.98999" font-family="Gentium Book Basic">
  <tspan id="tspan74" y="535.94" x="277.98999"/>
 </text>
 <path id="path76" fill="#fff" d="m258.16 90.66c-68.895 0-124.72 55.855-124.72 124.75s124.72 210.25 124.72 210.25 124.75-141.36 124.75-210.25c0-68.895-55.855-124.75-124.75-124.75m0 38.656c47.564 0 86.16 38.555 86.16 86.13 0 47.57-38.593 86.13-86.16 86.13-47.564 0-86.12-38.555-86.12-86.12 0-47.57 38.561-86.12 86.13-86.12m-2.156 27.531c-31.13 0-56.37 25.24-56.37 56.38 0 31.13 25.24 56.38 56.38 56.38 31.13 0 56.38-25.24 56.38-56.37s-25.24-56.37-56.37-56.37"/>
</svg>
