<?xml version="1.0" encoding="UTF-8" standalone="no"?>
<!-- Created with Inkscape (http://www.inkscape.org/) -->
<svg id="svg2" xmlns:rdf="http://www.w3.org/1999/02/22-rdf-syntax-ns#" xmlns="http://www.w3.org/2000/svg" height="100%" viewBox="0 0 512 512" width="100%" version="1.1" xmlns:cc="http://creativecommons.org/ns#" xmlns:dc="http://purl.org/dc/elements/1.1/">
 <metadata id="metadata72">
  <rdf:RDF>
   <cc:Work rdf:about="">
    <dc:format>image/svg+xml</dc:format>
    <dc:type rdf:resource="http://purl.org/dc/dcmitype/StillImage"/>
   </cc:Work>
  </rdf:RDF>
 </metadata>
 <g id="g4" fill-rule="evenodd">
  <path id="path6" fill="#b22222" d="m471.95 253.05c0 120.9-98.01 218.9-218.9 218.9-120.9 0-218.9-98.01-218.9-218.9 0-120.9 98.01-218.9 218.9-218.9 120.9 0 218.9 98.01 218.9 218.9"/>
  <path id="path8" fill-opacity=".235" d="m259.63 122.69-29.56 46.31c-0.207-0.084-53.06-21.688-53.06-21.688 0.023 0.223 6 57.41 6 57.41-0.209 0.036-53.625 9.406-53.625 9.406l2 2 5.969 5.969 23.16 23.19 0.094 0.094 0.031 0.031 0.469 0.469 0.031 0.031 0.125 0.156 0.438 0.438 5 5 1.875 1.875-45.875 42.16c0.007 0.001 1.674 0.265 1.781 0.281l-0.781 0.719c0.007 0.001 1.674 0.265 1.781 0.281l-0.781 0.719c0.007 0.001 1.674 0.265 1.781 0.281l-0.781 0.719 1.781 0.281-0.781 0.719c0.007 0.001 1.674 0.265 1.781 0.281l-0.781 0.719c0.007 0.001 1.618 0.266 1.719 0.281l-0.75 0.688c0.007 0.001 1.674 0.265 1.781 0.281l-0.781 0.719c0.007 0.001 1.674 0.265 1.781 0.281l-0.781 0.719 1.781 0.281-0.781 0.719c0.007 0.001 1.674 0.265 1.781 0.281l-0.781 0.719c0.007 0.001 1.674 0.265 1.781 0.281l-0.781 0.719c0.006 0.001 1.619 0.266 1.719 0.281l-0.75 0.688c0.007 0.001 1.674 0.265 1.781 0.281l-0.781 0.719c0.006 0.001 1.674 0.265 1.781 0.281l-0.781 0.719 1.781 0.281-0.781 0.719c0.006 0.001 1.674 0.265 1.781 0.281l-0.781 0.719c0.006 0.001 1.674 0.265 1.781 0.281l-0.781 0.719c0.006 0.001 1.647 0.265 1.75 0.281l-0.781 0.719c0.006 0.001 1.647 0.265 1.75 0.281l-0.75 0.688 1.781 0.281-0.781 0.719c0.006 0.001 1.674 0.265 1.781 0.281l-0.781 0.719c0.006 0.001 1.674 0.265 1.781 0.281l-0.781 0.719c0.006 0.001 1.675 0.265 1.781 0.281l-0.781 0.719c0.006 0.001 1.675 0.265 1.781 0.281l-0.781 0.719c0.006 0.001 1.619 0.266 1.719 0.281l-0.75 0.688 1.781 0.281-0.781 0.719c0.006 0.001 1.675 0.265 1.781 0.281l-0.781 0.719c0.006 0.001 1.675 0.265 1.781 0.281l-0.781 0.719c0.006 0.001 1.675 0.265 1.781 0.281l-0.781 0.719c0.006 0.001 1.675 0.265 1.781 0.281l-0.781 0.719 1.719 0.281-0.75 0.688c0.006 0.001 1.675 0.265 1.781 0.281l-0.781 0.719c0.006 0.001 1.675 0.265 1.781 0.281l-0.781 0.719c0.006 0.001 1.675 0.265 1.781 0.281l-0.781 0.719c0.006 0.001 1.675 0.265 1.781 0.281l-0.781 0.719c0.006 0.001 1.675 0.265 1.781 0.281l-0.781 0.719 1.719 0.281c-0.024 0.022-0.75 0.688-0.75 0.688 0.006 0.001 1.675 0.265 1.781 0.281l-0.781 0.719c0.006 0.001 1.675 0.265 1.781 0.281l-0.781 0.719c0.006 0.001 1.675 0.265 1.781 0.281l-0.781 0.719c0.006 0.001 1.675 0.265 1.781 0.281l-0.781 0.719 1.781 0.281-0.781 0.719 1.75 0.281-0.781 0.719c0.005 0.001 1.647 0.265 1.75 0.281l-0.75 0.688c0.005 0.001 1.675 0.265 1.781 0.281l-0.781 0.719c0.005 0.001 1.675 0.265 1.781 0.281l-0.781 0.719c0.005 0.001 1.675 0.265 1.781 0.281l-0.781 0.719 1.781 0.281-0.781 0.719c0.005 0.001 1.675 0.265 1.781 0.281l-0.781 0.719c0.005 0.001 1.62 0.266 1.719 0.281l-0.75 0.688c0.005 0.001 1.675 0.265 1.781 0.281l-0.781 0.719c0.005 0.001 1.675 0.265 1.781 0.281l-0.781 0.719 1.781 0.281-0.781 0.719c0.004 0.001 1.282 0.209 1.344 0.219-0.036 0.222-0.059 0.346-0.094 0.563l-0.25 0.219c0.001 0 0.217 0.031 0.219 0.031-0.946 5.876-2.656 15.375-2.656 15.375l1.25-0.656c-0.014 0.089-0.25 1.656-0.25 1.656l1.25-0.625c-0.013 0.082-0.25 1.594-0.25 1.594l1.219-0.625c-0.014 0.085-0.25 1.625-0.25 1.625l1.25-0.656c-0.014 0.089-0.25 1.656-0.25 1.656l1.25-0.656c-0.014 0.089-0.25 1.656-0.25 1.656l1.25-0.656-0.25 1.656 1.25-0.625-0.25 1.625 1.25-0.656c-0.014 0.089-0.25 1.656-0.25 1.656l1.219-0.625c-0.013 0.082-0.25 1.594-0.25 1.594l1.25-0.656c-0.014 0.089-0.25 1.656-0.25 1.656l1.25-0.656c-0.014 0.089-0.25 1.656-0.25 1.656l1.25-0.656c-0.014 0.089-0.25 1.656-0.25 1.656l1.25-0.625-0.25 1.625 1.25-0.656-0.25 1.656c0.004-0.002 1.161-0.596 1.219-0.625-0.013 0.082-0.25 1.594-0.25 1.594l1.25-0.625c-0.014 0.085-0.25 1.625-0.25 1.625 0.005-0.002 1.189-0.625 1.25-0.656-0.014 0.089-0.25 1.656-0.25 1.656l1.25-0.625c-0.014 0.085-0.25 1.625-0.25 1.625 0.004-0.002 1.189-0.625 1.25-0.656-0.014 0.089-0.25 1.656-0.25 1.656 0.004-0.002 1.189-0.625 1.25-0.656-0.014 0.089-0.25 1.656-0.25 1.656l1.25-0.625-0.25 1.594c0.004-0.002 1.161-0.596 1.219-0.625-0.014 0.085-0.25 1.625-0.25 1.625 0.004-0.002 1.189-0.625 1.25-0.656-0.014 0.089-0.25 1.656-0.25 1.656l1.25-0.656c-0.014 0.089-0.25 1.656-0.25 1.656l1.25-0.625c-0.014 0.086-0.25 1.625-0.25 1.625 0.004-0.002 1.189-0.625 1.25-0.656-0.014 0.089-0.25 1.656-0.25 1.656l1.25-0.656c-0.014 0.089-0.25 1.656-0.25 1.656 0.004-0.002 1.161-0.596 1.219-0.625l-0.25 1.594c0.004-0.002 1.189-0.625 1.25-0.656-0.014 0.089-0.25 1.656-0.25 1.656l1.25-0.656c-0.014 0.089-0.25 1.656-0.25 1.656 0.004-0.002 1.189-0.625 1.25-0.656-0.014 0.089-0.25 1.656-0.25 1.656l1.25-0.625c-0.014 0.086-0.25 1.625-0.25 1.625l1.25-0.656c-0.014 0.089-0.25 1.656-0.25 1.656 0.004-0.002 1.161-0.596 1.219-0.625-0.013 0.082-0.25 1.594-0.25 1.594l1.25-0.625-0.25 1.625 1.25-0.656c-0.014 0.089-0.25 1.656-0.25 1.656 0.004-0.002 1.189-0.625 1.25-0.656-0.014 0.089-0.25 1.656-0.25 1.656l1.25-0.625c-0.014 0.086-0.25 1.625-0.25 1.625l1.25-0.656c-0.014 0.089-0.25 1.656-0.25 1.656 0.004-0.002 1.161-0.596 1.219-0.625-0.013 0.082-0.25 1.594-0.25 1.594h0.031c0.004-0.002 1.161-0.596 1.219-0.625-0.014 0.086-0.25 1.625-0.25 1.625l1.25-0.656-0.25 1.656c0.004-0.002 1.189-0.626 1.25-0.656l-0.25 1.656c0.004-0.002 1.189-0.626 1.25-0.656-0.014 0.089-0.25 1.656-0.25 1.656 0.004-0.002 1.189-0.626 1.25-0.656-0.014 0.089-0.25 1.656-0.25 1.656 0.004-0.002 1.191-0.595 1.25-0.625-0.013 0.082-0.25 1.594-0.25 1.594 0.004-0.002 1.162-0.596 1.219-0.625-0.014 0.086-0.25 1.625-0.25 1.625 0.004-0.002 1.19-0.626 1.25-0.656-0.014 0.089-0.25 1.656-0.25 1.656 0.004-0.002 1.19-0.626 1.25-0.656l-0.25 1.656c0.004-0.002 1.19-0.626 1.25-0.656l-0.25 1.656c0.004-0.002 1.191-0.595 1.25-0.625-0.014 0.086-0.25 1.625-0.25 1.625 0.004-0.002 1.19-0.626 1.25-0.656-0.014 0.089-0.25 1.656-0.25 1.656 0.004-0.002 1.162-0.596 1.219-0.625-0.013 0.082-0.25 1.594-0.25 1.594 0.004-0.002 1.19-0.626 1.25-0.656-0.014 0.089-0.25 1.656-0.25 1.656 0.004-0.002 1.19-0.626 1.25-0.656-0.014 0.089-0.25 1.656-0.25 1.656 0.004-0.002 1.19-0.626 1.25-0.656-0.014 0.089-0.25 1.656-0.25 1.656 0.004-0.002 1.19-0.626 1.25-0.656l-0.25 1.656 1.25-0.656c-0.014 0.089-0.25 1.656-0.25 1.656 0.003-0.002 1.162-0.596 1.219-0.625-0.013 0.082-0.25 1.594-0.25 1.594 0.003-0.002 1.19-0.626 1.25-0.656-0.014 0.089-0.25 1.656-0.25 1.656l1.25-0.656c-0.014 0.089-0.25 1.656-0.25 1.656 0.003-0.002 1.19-0.626 1.25-0.656-0.014 0.089-0.25 1.656-0.25 1.656 0.003-0.002 1.19-0.626 1.25-0.656-0.014 0.089-0.25 1.656-0.25 1.656l1.25-0.656-0.25 1.656c0.003-0.002 1.191-0.595 1.25-0.625-0.013 0.083-0.25 1.594-0.25 1.594 0.003-0.002 1.162-0.596 1.219-0.625-0.014 0.086-0.25 1.625-0.25 1.625l1.25-0.656c-0.014 0.089-0.25 1.656-0.25 1.656 0.003-0.002 1.19-0.626 1.25-0.656-0.014 0.089-0.25 1.656-0.25 1.656 0.003-0.002 1.19-0.626 1.25-0.656-0.014 0.089-0.25 1.656-0.25 1.656l1.25-0.656c-0.014 0.089-0.25 1.656-0.25 1.656 0.003-0.002 1.19-0.626 1.25-0.656l-0.25 1.656c0.003-0.002 1.162-0.596 1.219-0.625-0.013 0.083-0.25 1.594-0.25 1.594l1.25-0.656c-0.014 0.089-0.25 1.656-0.25 1.656 0.003-0.002 1.19-0.626 1.25-0.656-0.014 0.089-0.25 1.656-0.25 1.656 0.003-0.002 1.19-0.626 1.25-0.656-0.014 0.089-0.25 1.656-0.25 1.656l1.25-0.656c-0.014 0.089-0.25 1.656-0.25 1.656 0.003-0.002 1.19-0.626 1.25-0.656-0.014 0.089-0.25 1.656-0.25 1.656 0.003-0.001 1.162-0.596 1.219-0.625l-0.25 1.594 1.25-0.656-0.25 1.656c0.003-0.002 1.19-0.626 1.25-0.656-0.014 0.089-0.25 1.656-0.25 1.656 0.003-0.001 1.19-0.626 1.25-0.656-0.014 0.089-0.25 1.656-0.25 1.656l1.25-0.656c-0.014 0.089-0.25 1.656-0.25 1.656 0.003-0.001 1.19-0.626 1.25-0.656-0.014 0.089-0.25 1.656-0.25 1.656 0.003-0.001 1.162-0.596 1.219-0.625-0.013 0.083-0.25 1.594-0.25 1.594l1.25-0.656-0.25 1.656c0.003-0.001 1.19-0.626 1.25-0.656l-0.25 1.656c0.003-0.001 1.19-0.626 1.25-0.656-0.014 0.089-0.25 1.656-0.25 1.656l1.25-0.656c-0.014 0.089-0.25 1.656-0.25 1.656 0.003-0.001 1.19-0.626 1.25-0.656-0.014 0.089-0.25 1.656-0.25 1.656 0.003-0.001 1.192-0.595 1.25-0.625-0.013 0.083-0.25 1.594-0.25 1.594 0.003-0.001 1.163-0.596 1.219-0.625-0.014 0.086-0.25 1.625-0.25 1.625 0.003-0.001 1.19-0.626 1.25-0.656-0.014 0.089-0.25 1.656-0.25 1.656 0.003-0.001 1.19-0.626 1.25-0.656l-0.25 1.656c0.003-0.001 1.191-0.626 1.25-0.656-0.014 0.089-0.25 1.656-0.25 1.656 0.003-0.001 1.192-0.595 1.25-0.625-0.014 0.086-0.25 1.625-0.25 1.625 0.003-0.001 1.191-0.626 1.25-0.656-0.014 0.089-0.25 1.656-0.25 1.656 0.002-0.001 1.163-0.597 1.219-0.625-0.013 0.083-0.25 1.594-0.25 1.594 0.003-0.001 1.191-0.626 1.25-0.656-0.014 0.089-0.25 1.656-0.25 1.656 0.003-0.001 1.191-0.626 1.25-0.656-0.014 0.089-0.25 1.656-0.25 1.656 0.002-0.001 1.191-0.626 1.25-0.656l-0.25 1.656 1.25-0.656c-0.014 0.089-0.25 1.656-0.25 1.656 0.002-0.001 1.191-0.626 1.25-0.656-0.014 0.089-0.25 1.656-0.25 1.656 0.002-0.001 1.163-0.597 1.219-0.625-0.013 0.083-0.25 1.594-0.25 1.594l1.25-0.656c-0.014 0.089-0.25 1.656-0.25 1.656 0.002-0.001 1.191-0.626 1.25-0.656-0.014 0.089-0.25 1.656-0.25 1.656 0.002-0.001 1.191-0.626 1.25-0.656-0.014 0.089-0.25 1.656-0.25 1.656 0.002-0.001 1.191-0.626 1.25-0.656l-0.125 0.719c98.8-12.402 177.09-90.63 189.59-189.41l-0.125 0.063 0.125-1.438-1.125 0.438 0.125-1.438-1.125 0.438 0.125-1.406-1.125 0.438 0.125-1.438-1.094 0.406 0.125-1.406-1.125 0.438 0.125-1.438-1.125 0.438 0.125-1.438-1.125 0.438 0.125-1.438-1.125 0.438 0.125-1.406-1.125 0.438 0.125-1.438-1.094 0.406 0.125-1.406-1.125 0.438 0.125-1.438-1.125 0.438 0.125-1.438-1.125 0.438 0.125-1.438-1.125 0.438 0.125-1.438-1.125 0.438 0.125-1.406-1.094 0.406 0.125-1.406-1.125 0.438 0.125-1.438-1.125 0.438 0.125-1.438-1.125 0.438 0.125-1.438-1.125 0.438 0.125-1.438-1.125 0.438 0.125-1.406-1.125 0.438 0.125-1.438-1.094 0.406 0.125-1.406-1.125 0.438 0.125-1.438-1.125 0.438 0.125-1.438-1.125 0.438 0.125-1.438-1.125 0.438 0.125-1.406-1.125 0.438 0.125-1.438-1.094 0.406 0.125-1.406-1.125 0.438 0.125-1.438-1.125 0.438 0.125-1.438-1.125 0.438 0.125-1.438-1.125 0.438 0.125-1.438-1.125 0.438 0.125-1.406-1.094 0.406 0.125-1.406-1.125 0.438 0.125-1.438-1.125 0.438 0.125-1.438-1.125 0.438 0.125-1.438-1.125 0.438 0.125-1.438-1.125 0.438 0.125-1.406-1.094 0.406 0.125-1.406-1.125 0.438 0.125-1.438-1.125 0.438 0.125-1.438-1.125 0.438 0.125-1.438-1.125 0.438 0.125-1.438-1.125 0.438 0.125-1.406-1.125 0.438 0.125-1.438-1.094 0.406 0.125-1.406-1.125 0.438 0.125-1.438-1.125 0.438 0.125-1.438-1.125 0.438 0.125-1.438-1.125 0.438 0.125-1.406-1.125 0.438 0.125-1.438-1.094 0.406 0.125-1.406-1.125 0.438 0.125-1.438-1.125 0.438 0.125-1.438-1.125 0.438 0.125-1.438-1.125 0.438 0.125-1.438-1.125 0.438 0.125-1.406-1.094 0.406 0.125-1.406-1.125 0.438 0.125-1.438-1.125 0.438 0.125-1.438-1.125 0.438 0.125-1.438-1.125 0.438 0.125-1.438-1.125 0.438 0.125-1.406-1.125 0.438 0.125-1.438-1.094 0.406 0.125-1.406-1.125 0.438 0.125-1.438-1.125 0.438 0.125-1.438-1.125 0.438 0.125-1.438-1.125 0.438 0.125-1.406-1.125 0.438 0.125-1.438-1.094 0.406 0.125-1.406-1.125 0.438 0.125-1.438-1.125 0.438 0.125-1.438-1.125 0.438 0.125-1.438-1.125 0.438 0.125-1.406-1.125 0.438 0.125-1.438-1.094 0.406 0.125-1.406-1.125 0.438 0.125-1.438-1.125 0.438 0.125-1.438-1.125 0.438 0.125-1.438-1.125 0.438 0.125-1.438-1.125 0.438 0.125-1.406-1.094 0.406 0.125-1.406-1.125 0.438 0.125-1.438-1.125 0.438 0.125-1.438-1.125 0.438 0.125-1.438-1.125 0.438 0.125-1.438-1.125 0.438 0.125-1.406-1.125 0.438 0.125-1.438-1.094 0.406 0.125-1.406-1.125 0.438 0.125-1.438-1.125 0.438 0.125-1.438-1.125 0.438 0.125-1.438-1.125 0.438 0.125-1.406-1.125 0.438 0.125-1.438-1.094 0.406 0.125-1.406-1.125 0.438 0.125-1.438-1.125 0.438 0.125-1.438-1.125 0.438 0.125-1.438-1.125 0.438 0.125-1.438-1.125 0.438 0.125-1.406-1.094 0.406 0.125-1.406-1.125 0.438 0.125-1.438-1.125 0.438 0.125-1.438-1.125 0.438 0.125-1.438-1.125 0.438 0.125-1.438-1.125 0.438 0.125-1.406-1.125 0.438 0.125-1.438-1.094 0.406 0.125-1.406-1.125 0.438 0.125-1.438-1.125 0.438 0.125-1.438-1.125 0.438 0.125-1.438-1.125 0.438 0.125-1.406-1.125 0.438 0.125-1.438-1.094 0.406 0.125-1.406-1.125 0.438 0.125-1.438-1.125 0.438 0.125-1.438-1.125 0.438 0.125-1.438-1.125 0.438 0.125-1.406-1.125 0.438 0.125-1.438-1.094 0.406 0.125-1.406-1.125 0.438 0.125-1.438-1.125 0.438 0.125-1.438-1.125 0.438 0.125-1.438-1.125 0.438 0.125-1.438-1.125 0.438 0.125-1.406-1.094 0.406 0.125-1.406-1.125 0.438 0.125-1.438-1.125 0.438 0.125-1.438-39.03 15.09-0.375-0.688-0.219 0.344-0.781-1.344-0.219 0.375-0.781-1.375-0.219 0.344-0.781-1.344-0.219 0.344-0.75-1.344-0.25 0.375-0.75-1.344-0.219 0.375-0.781-1.375-0.219 0.375-0.781-1.375-0.219 0.375-0.781-1.375-0.219 0.375-0.781-1.375-0.219 0.344-0.75-1.344-0.25 0.375-0.75-1.344-0.219 0.375-0.781-1.375-0.219 0.375-0.781-1.375-0.219 0.375-0.781-1.375-0.219 0.375-0.781-1.375-0.219 0.344-0.75-1.344-0.219 0.375-0.781-1.375-0.25 0.375-0.75-1.344-0.219 0.375-0.781-1.375-0.219 0.375-0.781-1.375-0.219 0.375-0.781-1.375-0.219 0.375-0.781-1.375-0.219 0.344-0.75-1.344-0.25 0.375-0.75-1.344-0.219 0.375-0.781-1.375-0.219 0.375-0.781-1.375-0.219 0.375-0.781-1.375-0.219 0.375-0.781-1.375-0.219 0.344-0.75-1.344-0.25 0.375-0.75-1.344-0.219 0.375-0.781-1.375-0.219 0.375-0.781-1.375-0.219 0.375-0.781-1.375-0.219 0.375-0.781-1.375-0.219 0.344-0.75-1.344-0.25 0.375-0.75-1.344-0.219 0.375-0.781-1.375-0.219 0.375-0.781-1.375-0.219 0.375-0.781-1.375-0.219 0.375-0.781-1.375-0.219 0.375-0.781-1.375"/>
  <path id="path10" fill-opacity=".067" d="m256 1c-140.83 0-255 114.17-255 255s114.17 255 255 255 255-114.17 255-255-114.17-255-255-255m8.827 44.931c120.9 0 218.9 98 218.9 218.9s-98 218.9-218.9 218.9-218.93-98-218.93-218.9 98.03-218.9 218.93-218.9"/>
  <g id="g12" fill-opacity=".129">
   <path id="path14" d="m256 4.433c-138.94 0-251.57 112.63-251.57 251.57s112.63 251.57 251.57 251.57 251.57-112.63 251.57-251.57-112.63-251.57-251.57-251.57m5.885 38.556c120.9 0 218.9 98 218.9 218.9s-98 218.9-218.9 218.9-218.93-98-218.93-218.9 98.03-218.9 218.93-218.9"/>
   <path id="path16" d="m256 8.356c-136.77 0-247.64 110.87-247.64 247.64s110.87 247.64 247.64 247.64 247.64-110.87 247.64-247.64-110.87-247.64-247.64-247.64m2.942 31.691c120.9 0 218.9 98 218.9 218.9s-98 218.9-218.9 218.9-218.93-98-218.93-218.9 98.03-218.9 218.93-218.9"/>
  </g>
  <path id="path18" d="m253.04 7.859c-135.42 0-245.19 109.78-245.19 245.19 0 135.42 109.78 245.19 245.19 245.19 135.42 0 245.19-109.78 245.19-245.19 0-135.42-109.78-245.19-245.19-245.19zm0 26.297c120.9 0 218.9 98 218.9 218.9s-98 218.9-218.9 218.9-218.93-98-218.93-218.9 98.03-218.9 218.93-218.9z" stroke-opacity=".31" stroke="#000" stroke-width="4.904" fill="#fff"/>
 </g>
 <text id="text20" style="word-spacing:0;letter-spacing:0" font-size="129.23px" line-height="125%" y="231.36" x="729.64001" font-family="Gentium Book Basic">
  <tspan id="tspan22" y="231.36" x="729.64001"/>
 </text>
 <text id="text24" style="text-anchor:middle" font-size="46.954px" transform="scale(4.0128 .2492)" y="579.25" x="378.91" font-family="Arial"/>
 <text id="text26" style="word-spacing:0;letter-spacing:0" font-size="129.23px" line-height="125%" y="151.36" x="1310.91" font-family="Gentium Book Basic">
  <tspan id="tspan28" y="151.36" x="1310.91"/>
 </text>
 <text id="text30" style="text-anchor:middle" font-size="46.954px" transform="scale(4.0128 .2492)" y="258.22" x="523.76001" font-family="Arial"/>
 <text id="text32" style="word-spacing:0;letter-spacing:0" font-size="129.23px" line-height="125%" y="-29.900999" x="239.33" font-family="Gentium Book Basic">
  <tspan id="tspan34" y="-29.900999" x="239.33"/>
 </text>
 <text id="text36" style="text-anchor:middle" font-size="46.954px" transform="scale(4.0128 .2492)" y="-469.14001" x="256.72" font-family="Arial"/>
 <text id="text38" style="word-spacing:0;letter-spacing:0" font-size="129.23px" line-height="125%" y="-246.37" x="1337.38" font-family="Gentium Book Basic">
  <tspan id="tspan40" y="-246.37" x="1337.38"/>
 </text>
 <text id="text42" style="text-anchor:middle" font-size="46.954px" transform="scale(4.0128 .2492)" y="-1337.8101" x="530.35999" font-family="Arial"/>
 <text id="text44" style="word-spacing:0;letter-spacing:0" font-size="129.23px" line-height="125%" y="-326.38" x="1918.65" font-family="Gentium Book Basic">
  <tspan id="tspan46" y="-326.38" x="1918.65"/>
 </text>
 <text id="text48" style="text-anchor:middle" font-size="46.954px" transform="scale(4.0128 .2492)" y="-1658.85" x="675.21002" font-family="Arial"/>
 <text id="text50" style="word-spacing:0;letter-spacing:0" font-size="129.23px" line-height="125%" y="-798.78003" x="1529.53" font-family="Gentium Book Basic">
  <tspan id="tspan52" y="-798.78003" x="1529.53"/>
 </text>
 <text id="text54" style="text-anchor:middle" font-size="46.954px" transform="scale(4.0128 .2492)" y="-3554.51" x="578.23999" font-family="Arial"/>
 <text id="text56" style="word-spacing:0;letter-spacing:0" font-size="129.23px" line-height="125%" y="-878.78003" x="2110.79" font-family="Gentium Book Basic">
  <tspan id="tspan58" y="-878.78003" x="2110.79"/>
 </text>
 <text id="text60" style="text-anchor:middle" font-size="46.954px" transform="scale(4.0128 .2492)" y="-3875.54" x="723.09003" font-family="Arial"/>
 <text id="text62" style="word-spacing:0;letter-spacing:0" font-size="208.33px" line-height="125%" y="535.94" x="277.98999" font-family="Gentium Book Basic">
  <tspan id="tspan64" y="535.94" x="277.98999"/>
 </text>
 <path id="path66" d="m259.64 122.7-29.567 46.3-53.08-21.675 6 57.41-53.632 9.393 39.18 39.24-45.851 42.18 60.913 9.393-9.615 59.746 54.24-27.511 28.4 52.13 28.344-51.576 50.631 26.399-1.223-56.24 54.911-6.447-38.571-44.518 37.35-42.795-53.08-9.948 4.835-55.08-53.688 20.508-26.51-46.907" fill-rule="evenodd" fill="#fff"/>
</svg>
