<?xml version="1.0" encoding="UTF-8" standalone="no"?>
<!-- Created with Inkscape (http://www.inkscape.org/) -->
<svg id="svg2" xmlns:rdf="http://www.w3.org/1999/02/22-rdf-syntax-ns#" xmlns="http://www.w3.org/2000/svg" height="100%" viewBox="0 0 512 512" width="100%" version="1.1" xmlns:cc="http://creativecommons.org/ns#" xmlns:dc="http://purl.org/dc/elements/1.1/">
 <metadata id="metadata72">
  <rdf:RDF>
   <cc:Work rdf:about="">
    <dc:format>image/svg+xml</dc:format>
    <dc:type rdf:resource="http://purl.org/dc/dcmitype/StillImage"/>
   </cc:Work>
  </rdf:RDF>
 </metadata>
 <path id="path4" d="m471.95 253.05c0 120.9-98.01 218.9-218.9 218.9-120.9 0-218.9-98.01-218.9-218.9 0-120.9 98.01-218.9 218.9-218.9 120.9 0 218.9 98.01 218.9 218.9" fill-rule="evenodd" fill="#0078ad"/>
 <path id="path6" style="color:#000000" fill-opacity=".235" d="m227.22 109.78c-5.799 0-10.5 4.701-10.5 10.5 0 3.173 1.4 6.01 3.625 7.938 0.301 0.342 0.626 0.638 0.969 0.938 0.308 0.352 0.648 0.692 1 1 0.308 0.352 0.648 0.692 1 1 0.308 0.352 0.648 0.692 1 1 0.3 0.343 0.596 0.668 0.938 0.969 0.332 0.384 0.679 0.73 1.063 1.063 0.301 0.342 0.626 0.638 0.969 0.938 0.308 0.352 0.648 0.692 1 1 0.241 0.275 0.482 0.564 0.75 0.813l-4.5 0.344-0.344-0.594-0.313 0.188-0.688-1.188-0.313 0.188-0.656-1.156-0.313 0.188-0.688-1.188-0.313 0.188-0.688-1.188-0.313 0.188-0.688-1.188-0.313 0.188-0.688-1.188-0.313 0.188-0.688-1.188-0.313 0.188-0.656-1.156-0.313 0.188-0.688-1.188-0.313 0.188-0.688-1.188-0.313 0.188-0.688-1.188-74.16 41.906 4.281 7.531 0.313-0.188 0.688 1.188 0.313-0.188 0.688 1.188 0.313-0.188 0.688 1.188 0.313-0.188 0.656 1.156 0.313-0.188 0.688 1.188 0.313-0.188 0.688 1.188 0.313-0.188 0.656 1.094-6.25-1.875-0.344 1.031c-0.077-0.067-0.14-0.154-0.219-0.219-0.24-0.259-0.454-0.516-0.719-0.75-0.332-0.384-0.679-0.73-1.063-1.063-0.301-0.342-0.626-0.638-0.969-0.938-0.308-0.352-0.648-0.692-1-1-0.308-0.352-0.648-0.692-1-1-0.308-0.352-0.648-0.692-1-1-0.3-0.343-0.596-0.668-0.938-0.969-1.925-2.225-4.764-3.625-7.938-3.625-5.799 0-10.5 4.701-10.5 10.5 0 3.173 1.4 6.01 3.625 7.938 0.301 0.342 0.626 0.638 0.969 0.938 0.308 0.352 0.648 0.692 1 1 0.308 0.352 0.648 0.692 1 1 0.308 0.352 0.648 0.692 1 1 0.3 0.343 0.596 0.668 0.938 0.969 0.332 0.384 0.679 0.73 1.063 1.063 0.301 0.342 0.626 0.638 0.969 0.938 0.308 0.352 0.648 0.692 1 1 0.255 0.292 0.527 0.582 0.813 0.844l-2.813 0.375 15.281 112.41 0.844-0.125 0.156 1.125 0.844-0.125 0.156 1.125 0.844-0.125 0.156 1.125 0.813-0.125 0.156 1.094 0.844-0.125 0.094 0.688c-0.343-0.034-0.679-0.063-1.031-0.063-5.799 0-10.5 4.701-10.5 10.5 0 3.173 1.4 6.01 3.625 7.938 0.301 0.342 0.626 0.638 0.969 0.938 0.308 0.352 0.648 0.692 1 1 0.308 0.352 0.648 0.692 1 1 0.308 0.352 0.648 0.692 1 1 0.3 0.343 0.596 0.668 0.938 0.969 0.332 0.384 0.679 0.73 1.063 1.063 0.301 0.342 0.626 0.638 0.969 0.938 0.308 0.352 0.648 0.692 1 1 0.308 0.352 0.648 0.692 1 1 0.308 0.352 0.648 0.692 1 1 0.308 0.352 0.648 0.692 1 1 0.3 0.343 0.596 0.668 0.938 0.969 0.332 0.384 0.679 0.73 1.063 1.063 0.296 0.334 0.633 0.644 0.969 0.938 0.308 0.352 0.648 0.692 1 1 0.308 0.352 0.648 0.692 1 1 0.308 0.352 0.648 0.692 1 1 0.3 0.343 0.596 0.668 0.938 0.969 0.332 0.384 0.679 0.73 1.063 1.063 0.301 0.342 0.626 0.638 0.969 0.938 0.308 0.352 0.648 0.692 1 1 0.308 0.352 0.648 0.692 1 1 0.308 0.352 0.648 0.692 1 1 0.3 0.343 0.596 0.668 0.938 0.969 0.332 0.384 0.679 0.73 1.063 1.063 0.301 0.342 0.626 0.638 0.969 0.938 0.308 0.352 0.648 0.692 1 1 0.308 0.352 0.648 0.692 1 1 0.308 0.352 0.648 0.692 1 1 0.3 0.343 0.596 0.668 0.938 0.969 0.332 0.384 0.679 0.73 1.063 1.063 0.301 0.342 0.626 0.638 0.969 0.938 0.308 0.352 0.648 0.692 1 1 0.308 0.352 0.648 0.692 1 1 0.308 0.352 0.648 0.692 1 1 0.308 0.352 0.648 0.692 1 1 0.3 0.343 0.596 0.668 0.938 0.969 0.332 0.384 0.679 0.73 1.063 1.063 0.301 0.342 0.626 0.638 0.969 0.938 0.308 0.352 0.648 0.692 1 1 0.308 0.352 0.648 0.692 1 1 0.308 0.352 0.648 0.692 1 1 0.3 0.343 0.596 0.668 0.938 0.969 0.332 0.384 0.679 0.73 1.063 1.063 0.301 0.342 0.626 0.638 0.969 0.938 0.308 0.352 0.648 0.692 1 1 0.308 0.352 0.648 0.692 1 1 0.308 0.352 0.648 0.692 1 1 0.3 0.343 0.596 0.668 0.938 0.969 0.332 0.384 0.679 0.73 1.063 1.063 0.301 0.342 0.626 0.638 0.969 0.938 0.308 0.352 0.648 0.692 1 1 0.308 0.352 0.648 0.692 1 1 0.308 0.352 0.648 0.692 1 1 0.294 0.335 0.604 0.673 0.938 0.969 0.322 0.373 0.66 0.707 1.031 1.031 0.324 0.371 0.659 0.709 1.031 1.031 0.296 0.334 0.633 0.644 0.969 0.938 0.308 0.352 0.648 0.692 1 1 0.308 0.352 0.648 0.692 1 1 0.308 0.352 0.648 0.692 1 1 0.3 0.343 0.596 0.668 0.938 0.969 0.332 0.384 0.679 0.73 1.063 1.063 0.301 0.342 0.626 0.638 0.969 0.938 0.308 0.352 0.648 0.692 1 1 0.308 0.352 0.648 0.692 1 1 0.308 0.352 0.648 0.692 1 1 0.3 0.343 0.596 0.668 0.938 0.969 0.332 0.384 0.679 0.73 1.063 1.063 0.301 0.342 0.626 0.638 0.969 0.938 0.308 0.352 0.648 0.692 1 1 0.308 0.352 0.648 0.692 1 1 0.308 0.352 0.648 0.692 1 1 0.3 0.343 0.596 0.668 0.938 0.969 0.332 0.384 0.679 0.73 1.063 1.063 0.301 0.342 0.626 0.638 0.969 0.938 0.308 0.352 0.648 0.692 1 1 0.308 0.352 0.648 0.692 1 1 0.308 0.352 0.648 0.692 1 1 0.308 0.352 0.648 0.692 1 1 0.3 0.343 0.596 0.668 0.938 0.969 0.332 0.384 0.679 0.73 1.063 1.063 0.301 0.342 0.626 0.638 0.969 0.938 0.308 0.352 0.648 0.692 1 1 0.308 0.352 0.648 0.692 1 1 0.308 0.352 0.648 0.692 1 1 0.3 0.343 0.596 0.668 0.938 0.969 0.332 0.384 0.679 0.73 1.063 1.063 0.301 0.342 0.626 0.638 0.969 0.938 0.308 0.352 0.648 0.692 1 1 0.308 0.352 0.648 0.692 1 1 0.308 0.352 0.648 0.692 1 1 0.3 0.343 0.596 0.668 0.938 0.969 0.332 0.384 0.679 0.73 1.063 1.063 0.301 0.342 0.626 0.638 0.969 0.938 0.308 0.352 0.648 0.692 1 1 0.308 0.352 0.648 0.692 1 1 0.308 0.352 0.648 0.692 1 1 0.294 0.335 0.604 0.673 0.938 0.969 0.322 0.373 0.66 0.707 1.031 1.031 0.324 0.371 0.659 0.709 1.031 1.031 0.296 0.334 0.633 0.644 0.969 0.938 0.308 0.352 0.648 0.692 1 1 0.308 0.352 0.648 0.692 1 1 0.308 0.352 0.648 0.692 1 1 0.3 0.343 0.596 0.668 0.938 0.969 0.332 0.384 0.679 0.73 1.063 1.063 0.301 0.342 0.626 0.638 0.969 0.938 0.308 0.352 0.648 0.692 1 1 0.308 0.352 0.648 0.692 1 1 0.308 0.352 0.648 0.692 1 1 0.3 0.343 0.596 0.668 0.938 0.969 0.332 0.384 0.679 0.73 1.063 1.063 0.301 0.342 0.626 0.638 0.969 0.938 0.308 0.352 0.648 0.692 1 1 0.308 0.352 0.648 0.692 1 1 0.308 0.352 0.648 0.692 1 1 0.3 0.343 0.596 0.668 0.938 0.969 0.332 0.384 0.679 0.73 1.063 1.063 0.301 0.342 0.626 0.638 0.969 0.938 0.308 0.352 0.648 0.692 1 1 0.308 0.352 0.648 0.692 1 1 0.308 0.352 0.648 0.692 1 1 0.308 0.352 0.648 0.692 1 1 0.3 0.343 0.596 0.668 0.938 0.969 0.332 0.384 0.679 0.73 1.063 1.063 0.301 0.342 0.626 0.638 0.969 0.938 0.308 0.352 0.648 0.692 1 1 0.308 0.352 0.648 0.692 1 1 0.308 0.352 0.648 0.692 1 1 0.3 0.343 0.596 0.668 0.938 0.969 0.332 0.384 0.679 0.73 1.063 1.063 0.301 0.342 0.626 0.638 0.969 0.938 0.308 0.352 0.648 0.692 1 1 0.308 0.352 0.648 0.692 1 1 0.308 0.352 0.648 0.692 1 1 0.3 0.343 0.596 0.668 0.938 0.969 0.249 0.288 0.506 0.557 0.781 0.813 109.51-12.04 194.69-104.81 194.69-217.53 0-10.52-0.753-20.876-2.188-31-0.044-0.039-0.081-0.086-0.125-0.125-0.308-0.352-0.648-0.692-1-1-0.308-0.352-0.648-0.692-1-1-0.308-0.352-0.648-0.692-1-1-0.3-0.343-0.596-0.668-0.938-0.969-0.332-0.384-0.679-0.73-1.063-1.063-0.301-0.342-0.626-0.638-0.969-0.938-0.308-0.352-0.648-0.692-1-1-0.308-0.352-0.648-0.692-1-1-0.308-0.352-0.648-0.692-1-1-0.3-0.343-0.596-0.668-0.938-0.969-0.332-0.384-0.679-0.73-1.063-1.063-0.301-0.342-0.626-0.638-0.969-0.938-0.308-0.352-0.648-0.692-1-1-0.308-0.352-0.648-0.692-1-1-0.308-0.352-0.648-0.692-1-1-0.3-0.343-0.596-0.668-0.938-0.969-0.332-0.384-0.679-0.73-1.063-1.063-0.301-0.342-0.626-0.638-0.969-0.938-0.308-0.352-0.648-0.692-1-1-0.308-0.352-0.648-0.692-1-1-0.308-0.352-0.648-0.692-1-1-0.294-0.335-0.604-0.673-0.938-0.969-0.322-0.373-0.66-0.707-1.031-1.031-0.324-0.371-0.659-0.709-1.031-1.031-0.296-0.334-0.633-0.644-0.969-0.938-0.308-0.352-0.648-0.692-1-1-0.308-0.352-0.648-0.692-1-1-0.308-0.352-0.648-0.692-1-1-0.3-0.343-0.596-0.668-0.938-0.969-0.332-0.384-0.679-0.73-1.063-1.063-0.301-0.342-0.626-0.638-0.969-0.938-0.308-0.352-0.648-0.692-1-1-0.308-0.352-0.648-0.692-1-1-0.308-0.352-0.648-0.692-1-1-0.3-0.343-0.596-0.668-0.938-0.969-0.332-0.384-0.679-0.73-1.063-1.063-0.301-0.342-0.626-0.638-0.969-0.938-0.308-0.352-0.648-0.692-1-1-0.308-0.352-0.648-0.692-1-1-0.308-0.352-0.648-0.692-1-1-0.3-0.343-0.596-0.668-0.938-0.969-0.332-0.384-0.679-0.73-1.063-1.063-0.301-0.342-0.626-0.638-0.969-0.938-0.308-0.352-0.648-0.692-1-1-0.308-0.352-0.648-0.692-1-1-0.308-0.352-0.648-0.692-1-1-0.308-0.352-0.648-0.692-1-1-0.3-0.343-0.596-0.668-0.938-0.969-0.332-0.384-0.679-0.73-1.063-1.063-0.301-0.342-0.626-0.638-0.969-0.938-0.308-0.352-0.648-0.692-1-1-0.308-0.352-0.648-0.692-1-1-0.308-0.352-0.648-0.692-1-1-0.3-0.343-0.596-0.668-0.938-0.969-0.332-0.384-0.679-0.73-1.063-1.063-0.301-0.342-0.626-0.638-0.969-0.938-0.308-0.352-0.648-0.692-1-1-0.308-0.352-0.648-0.692-1-1-0.308-0.352-0.648-0.692-1-1-0.3-0.343-0.596-0.668-0.938-0.969-0.332-0.384-0.679-0.73-1.063-1.063-0.301-0.342-0.626-0.638-0.969-0.938-0.308-0.352-0.648-0.692-1-1-0.308-0.352-0.648-0.692-1-1-0.308-0.352-0.648-0.692-1-1-0.294-0.335-0.604-0.673-0.938-0.969-0.332-0.384-0.679-0.73-1.063-1.063-0.301-0.342-0.626-0.638-0.969-0.938-0.308-0.352-0.648-0.692-1-1-0.308-0.352-0.648-0.692-1-1-0.308-0.352-0.648-0.692-1-1-0.308-0.352-0.648-0.692-1-1-0.3-0.343-0.596-0.668-0.938-0.969-0.332-0.384-0.679-0.73-1.063-1.063-0.301-0.342-0.626-0.638-0.969-0.938-0.308-0.352-0.648-0.692-1-1-0.308-0.352-0.648-0.692-1-1-0.308-0.352-0.648-0.692-1-1-0.3-0.343-0.596-0.668-0.938-0.969-1.925-2.225-4.764-3.625-7.938-3.625-5.202 0-9.51 3.784-10.344 8.75l-0.219-0.031 0.156-0.781-1.125-0.219 0.156-0.75-1.156-0.219 0.156-0.781-1.156-0.219 0.156-0.781-1.156-0.219 0.156-0.781-126.31-24.344-0.219 1.125c-0.054-0.049-0.101-0.108-0.156-0.156-0.296-0.336-0.602-0.641-0.938-0.938-0.332-0.384-0.679-0.73-1.063-1.063-0.301-0.342-0.626-0.638-0.969-0.938-0.308-0.352-0.648-0.692-1-1-0.308-0.352-0.648-0.692-1-1-0.308-0.352-0.648-0.692-1-1-0.3-0.343-0.596-0.668-0.938-0.969-1.925-2.225-4.764-3.625-7.938-3.625m-76.53 72.19 0.156 0.281-0.438-0.125 0.281-0.156"/>
 <g id="g8" fill-rule="evenodd">
  <path id="path10" fill-opacity=".067" d="m256 1c-140.83 0-255 114.17-255 255s114.17 255 255 255 255-114.17 255-255-114.17-255-255-255m8.827 44.931c120.9 0 218.9 98 218.9 218.9s-98 218.9-218.9 218.9-218.93-98-218.93-218.9 98.03-218.9 218.93-218.9"/>
  <g id="g12" fill-opacity=".129">
   <path id="path14" d="m256 4.433c-138.94 0-251.57 112.63-251.57 251.57s112.63 251.57 251.57 251.57 251.57-112.63 251.57-251.57-112.63-251.57-251.57-251.57m5.885 38.556c120.9 0 218.9 98 218.9 218.9s-98 218.9-218.9 218.9-218.93-98-218.93-218.9 98.03-218.9 218.93-218.9"/>
   <path id="path16" d="m256 8.356c-136.77 0-247.64 110.87-247.64 247.64s110.87 247.64 247.64 247.64 247.64-110.87 247.64-247.64-110.87-247.64-247.64-247.64m2.942 31.691c120.9 0 218.9 98 218.9 218.9s-98 218.9-218.9 218.9-218.93-98-218.93-218.9 98.03-218.9 218.93-218.9"/>
  </g>
  <path id="path18" d="m253.04 7.859c-135.42 0-245.19 109.78-245.19 245.19 0 135.42 109.78 245.19 245.19 245.19 135.42 0 245.19-109.78 245.19-245.19 0-135.42-109.78-245.19-245.19-245.19zm0 26.297c120.9 0 218.9 98 218.9 218.9s-98 218.9-218.9 218.9-218.93-98-218.93-218.9 98.03-218.9 218.93-218.9z" stroke-opacity=".31" stroke="#000" stroke-width="4.904" fill="#fff"/>
 </g>
 <text id="text20" style="word-spacing:0;letter-spacing:0" font-size="129.23px" line-height="125%" y="231.36" x="729.64001" font-family="Gentium Book Basic">
  <tspan id="tspan22" y="231.36" x="729.64001"/>
 </text>
 <text id="text24" style="text-anchor:middle" font-size="46.954px" transform="scale(4.0128 .2492)" y="579.25" x="378.91" font-family="Arial"/>
 <text id="text26" style="word-spacing:0;letter-spacing:0" font-size="129.23px" line-height="125%" y="151.36" x="1310.91" font-family="Gentium Book Basic">
  <tspan id="tspan28" y="151.36" x="1310.91"/>
 </text>
 <text id="text30" style="text-anchor:middle" font-size="46.954px" transform="scale(4.0128 .2492)" y="258.22" x="523.76001" font-family="Arial"/>
 <text id="text32" style="word-spacing:0;letter-spacing:0" font-size="129.23px" line-height="125%" y="-29.900999" x="239.33" font-family="Gentium Book Basic">
  <tspan id="tspan34" y="-29.900999" x="239.33"/>
 </text>
 <text id="text36" style="text-anchor:middle" font-size="46.954px" transform="scale(4.0128 .2492)" y="-469.14001" x="256.72" font-family="Arial"/>
 <text id="text38" style="word-spacing:0;letter-spacing:0" font-size="129.23px" line-height="125%" y="-246.37" x="1337.38" font-family="Gentium Book Basic">
  <tspan id="tspan40" y="-246.37" x="1337.38"/>
 </text>
 <text id="text42" style="text-anchor:middle" font-size="46.954px" transform="scale(4.0128 .2492)" y="-1337.8101" x="530.35999" font-family="Arial"/>
 <text id="text44" style="word-spacing:0;letter-spacing:0" font-size="129.23px" line-height="125%" y="-326.38" x="1918.65" font-family="Gentium Book Basic">
  <tspan id="tspan46" y="-326.38" x="1918.65"/>
 </text>
 <text id="text48" style="text-anchor:middle" font-size="46.954px" transform="scale(4.0128 .2492)" y="-1658.85" x="675.21002" font-family="Arial"/>
 <text id="text50" style="word-spacing:0;letter-spacing:0" font-size="129.23px" line-height="125%" y="-798.78003" x="1529.53" font-family="Gentium Book Basic">
  <tspan id="tspan52" y="-798.78003" x="1529.53"/>
 </text>
 <text id="text54" style="text-anchor:middle" font-size="46.954px" transform="scale(4.0128 .2492)" y="-3554.51" x="578.23999" font-family="Arial"/>
 <text id="text56" style="word-spacing:0;letter-spacing:0" font-size="129.23px" line-height="125%" y="-878.78003" x="2110.79" font-family="Gentium Book Basic">
  <tspan id="tspan58" y="-878.78003" x="2110.79"/>
 </text>
 <text id="text60" style="text-anchor:middle" font-size="46.954px" transform="scale(4.0128 .2492)" y="-3875.54" x="723.09003" font-family="Arial"/>
 <text id="text62" style="word-spacing:0;letter-spacing:0" font-size="208.33px" line-height="125%" y="535.94" x="277.98999" font-family="Gentium Book Basic">
  <tspan id="tspan64" y="535.94" x="277.98999"/>
 </text>
 <path id="path66" style="color:#000000" fill="#fff" d="m227.22 109.78c-5.799 0-10.5 4.701-10.5 10.5s4.701 10.5 10.5 10.5 10.5-4.701 10.5-10.5-4.701-10.5-10.5-10.5m15.219 9.563-1.656 8.5 126.34 24.344 1.625-8.5-126.31-24.344m-29.19 6.406-74.16 41.906 4.281 7.531 74.16-41.938-4.281-7.5m19.625 10.844-8.625 0.719 5.719 68.906-85.91-26.03-2.531 8.313 89.19 27 1.594 19.06 8.625-0.719-1.281-15.625 13.656 4.125 2.5-8.281-16.938-5.125-6-72.34m150.25 3.125c-5.799 0-10.5 4.701-10.5 10.5s4.701 10.5 10.5 10.5 10.5-4.701 10.5-10.5-4.701-10.5-10.5-10.5m-13.781 18.281-86.94 57.47 4.75 7.219 86.969-57.47-4.781-7.219m8.75 7.906v131.63h8.688v-131.62h-8.688m-249.22 4.75c-5.799 0-10.5 4.701-10.5 10.5s4.701 10.5 10.5 10.5 10.5-4.701 10.5-10.5-4.701-10.5-10.5-10.5m7.656 26.406-8.594 1.156 15.281 112.41 8.594-1.188-15.281-112.37m133 17.188c-5.799 0-10.5 4.701-10.5 10.5s4.701 10.5 10.5 10.5 10.5-4.701 10.5-10.5-4.701-10.5-10.5-10.5m-28.813 25.75c-5.799 0-10.5 4.701-10.5 10.5s4.701 10.5 10.5 10.5 10.5-4.701 10.5-10.5-4.701-10.5-10.5-10.5m36.781 0.844-8.625 0.563 1.063 16.688-13.563-6.06-3.563 7.906 17.75 7.938 6.531 103.16 8.656-0.563-6.281-98.59 86.34 38.594 3.531-7.906-90.5-40.469-1.344-21.25m-50.813 15.938-72 54.906 5.25 6.875 72-54.906-5.25-6.875m153.44 47.44c-5.799 0-10.5 4.701-10.5 10.5s4.701 10.5 10.5 10.5 10.5-4.701 10.5-10.5-4.701-10.5-10.5-10.5m-233.03 10.875c-5.799 0-10.5 4.701-10.5 10.5s4.701 10.5 10.5 10.5 10.5-4.701 10.5-10.5-4.701-10.5-10.5-10.5m218.09 7.656-70.47 58.75 5.531 6.656 70.47-58.719-5.531-6.688m-200.78 3.844-4.063 7.656 105.75 55.59 4.03-7.656-105.72-55.59m118.66 54.625c-5.799 0-10.5 4.701-10.5 10.5s4.701 10.5 10.5 10.5 10.5-4.701 10.5-10.5-4.701-10.5-10.5-10.5"/>
</svg>
