<?xml version="1.0" encoding="UTF-8" standalone="no"?>
<!-- Created with Inkscape (http://www.inkscape.org/) -->
<svg id="svg2" xmlns:rdf="http://www.w3.org/1999/02/22-rdf-syntax-ns#" xmlns="http://www.w3.org/2000/svg" height="100%" viewBox="0 0 512 512" width="100%" version="1.1" xmlns:cc="http://creativecommons.org/ns#" xmlns:dc="http://purl.org/dc/elements/1.1/">
 <metadata id="metadata72">
  <rdf:RDF>
   <cc:Work rdf:about="">
    <dc:format>image/svg+xml</dc:format>
    <dc:type rdf:resource="http://purl.org/dc/dcmitype/StillImage"/>
   </cc:Work>
  </rdf:RDF>
 </metadata>
 <path id="path4" d="m471.95 253.05c0 120.9-98.01 218.9-218.9 218.9-120.9 0-218.9-98.01-218.9-218.9 0-120.9 98.01-218.9 218.9-218.9 120.9 0 218.9 98.01 218.9 218.9" fill-rule="evenodd" fill="#ee3424"/>
 <path id="path6" style="color:#000000" fill-opacity=".235" d="m72.56 207.22v100.41l164.47 163.75c5.285 0.382 10.618 0.594 16 0.594 120.9 0 218.91-98.01 218.91-218.91 0-2.865-0.078-5.724-0.188-8.563l-36.969-37.28h-13.123l-0.156 0.844-1.281 8.125-8.844-8.969h-12.907c2.568 12.93 5.068 25.874 7.594 38.813l-38.938-38.813-9.813 0.031h-1v38.781s-38.595-38.814-38.594-38.813h-11.844v29.844l-29.16-29.844h-1l-22.656 0.031h-1v28.344l-27.563-28.344h-33.344v11.06l10.688 10.438v12.813l-33.563-34.34h-1l-22.688 0.031h-1v31.344s-30.691-30.347-30.688-31.344h-12.156c0.004 3.563 0.02 7.125 0.031 10.688l-10.471-10.69h-0.844l-15.906-0.031h-1"/>
 <g id="g8" fill-rule="evenodd">
  <path id="path10" fill-opacity=".067" d="m256 1c-140.83 0-255 114.17-255 255s114.17 255 255 255 255-114.17 255-255-114.17-255-255-255m8.827 44.931c120.9 0 218.9 98 218.9 218.9s-98 218.9-218.9 218.9-218.93-98-218.93-218.9 98.03-218.9 218.93-218.9"/>
  <g id="g12" fill-opacity=".129">
   <path id="path14" d="m256 4.433c-138.94 0-251.57 112.63-251.57 251.57s112.63 251.57 251.57 251.57 251.57-112.63 251.57-251.57-112.63-251.57-251.57-251.57m5.885 38.556c120.9 0 218.9 98 218.9 218.9s-98 218.9-218.9 218.9-218.93-98-218.93-218.9 98.03-218.9 218.93-218.9"/>
   <path id="path16" d="m256 8.356c-136.77 0-247.64 110.87-247.64 247.64s110.87 247.64 247.64 247.64 247.64-110.87 247.64-247.64-110.87-247.64-247.64-247.64m2.942 31.691c120.9 0 218.9 98 218.9 218.9s-98 218.9-218.9 218.9-218.93-98-218.93-218.9 98.03-218.9 218.93-218.9"/>
  </g>
  <path id="path18" d="m253.04 7.859c-135.42 0-245.19 109.78-245.19 245.19 0 135.42 109.78 245.19 245.19 245.19 135.42 0 245.19-109.78 245.19-245.19 0-135.42-109.78-245.19-245.19-245.19zm0 26.297c120.9 0 218.9 98 218.9 218.9s-98 218.9-218.9 218.9-218.93-98-218.93-218.9 98.03-218.9 218.93-218.9z" stroke-opacity=".31" stroke="#000" stroke-width="4.904" fill="#fff"/>
 </g>
 <text id="text20" style="word-spacing:0;letter-spacing:0" font-size="129.23px" line-height="125%" y="231.36" x="729.64001" font-family="Gentium Book Basic">
  <tspan id="tspan22" y="231.36" x="729.64001"/>
 </text>
 <text id="text24" style="text-anchor:middle" font-size="46.954px" transform="scale(4.0128 .2492)" y="579.25" x="378.91" font-family="Arial"/>
 <text id="text26" style="word-spacing:0;letter-spacing:0" font-size="129.23px" line-height="125%" y="151.36" x="1310.91" font-family="Gentium Book Basic">
  <tspan id="tspan28" y="151.36" x="1310.91"/>
 </text>
 <text id="text30" style="text-anchor:middle" font-size="46.954px" transform="scale(4.0128 .2492)" y="258.22" x="523.76001" font-family="Arial"/>
 <text id="text32" style="word-spacing:0;letter-spacing:0" font-size="129.23px" line-height="125%" y="-29.900999" x="239.33" font-family="Gentium Book Basic">
  <tspan id="tspan34" y="-29.900999" x="239.33"/>
 </text>
 <text id="text36" style="text-anchor:middle" font-size="46.954px" transform="scale(4.0128 .2492)" y="-469.14001" x="256.72" font-family="Arial"/>
 <text id="text38" style="word-spacing:0;letter-spacing:0" font-size="129.23px" line-height="125%" y="-246.37" x="1337.38" font-family="Gentium Book Basic">
  <tspan id="tspan40" y="-246.37" x="1337.38"/>
 </text>
 <text id="text42" style="text-anchor:middle" font-size="46.954px" transform="scale(4.0128 .2492)" y="-1337.8101" x="530.35999" font-family="Arial"/>
 <text id="text44" style="word-spacing:0;letter-spacing:0" font-size="129.23px" line-height="125%" y="-326.38" x="1918.65" font-family="Gentium Book Basic">
  <tspan id="tspan46" y="-326.38" x="1918.65"/>
 </text>
 <text id="text48" style="text-anchor:middle" font-size="46.954px" transform="scale(4.0128 .2492)" y="-1658.85" x="675.21002" font-family="Arial"/>
 <text id="text50" style="word-spacing:0;letter-spacing:0" font-size="129.23px" line-height="125%" y="-798.78003" x="1529.53" font-family="Gentium Book Basic">
  <tspan id="tspan52" y="-798.78003" x="1529.53"/>
 </text>
 <text id="text54" style="text-anchor:middle" font-size="46.954px" transform="scale(4.0128 .2492)" y="-3554.51" x="578.23999" font-family="Arial"/>
 <text id="text56" style="word-spacing:0;letter-spacing:0" font-size="129.23px" line-height="125%" y="-878.78003" x="2110.79" font-family="Gentium Book Basic">
  <tspan id="tspan58" y="-878.78003" x="2110.79"/>
 </text>
 <text id="text60" style="text-anchor:middle" font-size="46.954px" transform="scale(4.0128 .2492)" y="-3875.54" x="723.09003" font-family="Arial"/>
 <text id="text62" style="word-spacing:0;letter-spacing:0" font-size="208.33px" line-height="125%" y="535.94" x="277.98999" font-family="Gentium Book Basic">
  <tspan id="tspan64" y="535.94" x="277.98999"/>
 </text>
 <path id="path66" style="color:#000000" fill="#fff" d="m72.57 207.22v100.41l1.156-0.156s3.133-0.457 9.844-1.219l0.875-0.094v-0.906l-0.594-65.56 9.969 64.56 0.156 0.969 0.969-0.125s3.86-0.474 17.06-1.781l0.906-0.094v-95.966h-12.156v1l0.313 69.25-10.594-69.41-0.156-0.844h-0.844l-15.906-0.031h-1m94.72 0-22.688 0.031h-1v93.473l1.063-0.063s5.813-0.388 22.625-1.469l0.938-0.063v-11.001l-1.063 0.063-11.656 0.813v-29.406h12.719v-11.156h-12.75v-30.12h12.813v-11.09h-1m108.44 0-22.656 0.031h-1v89.19h11.906v-36.844h12.719v-11.156h-12.75v-30.12h12.781v-11.09h-1m30.16 0v89.909l0.969 0.031s6.687 0.187 22.781 0.906l1.031 0.031v-10.875l-0.906-0.094s-2.972-0.201-12.03-0.531v-79.37h-11.844m61.25 0-9.813 0.031h-1v92.248l0.938 0.063s3.628 0.205 9.813 0.656l1.063 0.063v-93.063h-1m31.344 0 0.25 1.188 8.406 43.16-8.156 50.656-0.156 1.063 1.063 0.094 10.531 1.031 0.969 0.094 0.125-0.969 4.75-36.531 4.625 37.688 0.094 0.781 0.781 0.094 11.563 1.313 1.313 0.156-0.188-1.313-8.25-52.906 8.344-44.41 0.25-1.188h-13.123l-0.156 0.844-4.875 30.938-5.094-30.938-0.156-0.844h-12.907m-207.31 0.031v11.06h10.688v79.254l1.094-0.094s2.243-0.207 9.719-0.375l0.969-0.031v-0.969l0.063-77.78h10.813v-11.06h-33.344"/>
</svg>
