<?xml version="1.0" encoding="UTF-8" standalone="no"?>
<!-- Created with Inkscape (http://www.inkscape.org/) -->
<svg id="svg2" xmlns:rdf="http://www.w3.org/1999/02/22-rdf-syntax-ns#" xmlns="http://www.w3.org/2000/svg" height="100%" viewBox="0 0 512 512" width="100%" version="1.1" xmlns:cc="http://creativecommons.org/ns#" xmlns:dc="http://purl.org/dc/elements/1.1/">
 <metadata id="metadata74">
  <rdf:RDF>
   <cc:Work rdf:about="">
    <dc:format>image/svg+xml</dc:format>
    <dc:type rdf:resource="http://purl.org/dc/dcmitype/StillImage"/>
   </cc:Work>
  </rdf:RDF>
 </metadata>
 <g id="g4" transform="translate(0,-540.36)">
  <path id="path6" d="m471.95 793.41c0 120.9-98.01 218.9-218.9 218.9-120.9 0-218.9-98.01-218.9-218.9 0-120.9 98.01-218.9 218.9-218.9 120.9 0 218.9 98.01 218.9 218.9" fill-rule="evenodd" fill="#55405f"/>
  <path id="path8" d="m246.59 114.72c-25.57 0.198-45.19 7.996-60.06 20.938-14.871 12.942-25 30.946-32.03 51.47-14.06 41.05-15.738 92.31-17.438 134.5v0.031c-0.16 8.51-1.106 20.04 2 30.406 1.576 5.258 4.285 10.214 8.625 14.219 0.296 0.301 0.594 0.584 0.906 0.875 0.322 0.331 0.626 0.681 0.969 1 0.287 0.295 0.572 0.589 0.875 0.875 0.322 0.335 0.657 0.676 1 1 0.36 0.375 0.708 0.765 1.094 1.125 0.362 0.373 0.737 0.736 1.125 1.094 0.296 0.301 0.594 0.584 0.906 0.875 0.327 0.336 0.652 0.676 1 1 0.062 0.063 0.125 0.125 0.188 0.188 0.045 0.05 0.079 0.106 0.125 0.156 0.178 0.177 0.347 0.358 0.531 0.531 0.322 0.335 0.657 0.676 1 1 0.36 0.375 0.708 0.765 1.094 1.125 0.327 0.336 0.652 0.676 1 1 0.388 0.399 0.802 0.774 1.219 1.156 0.049 0.055 0.106 0.102 0.156 0.156 0.219 0.217 0.428 0.444 0.656 0.656 0.322 0.331 0.626 0.681 0.969 1 0.287 0.295 0.572 0.589 0.875 0.875 0.36 0.375 0.708 0.765 1.094 1.125 0.327 0.336 0.652 0.676 1 1 0.362 0.373 0.737 0.736 1.125 1.094 0.296 0.301 0.594 0.584 0.906 0.875 0.322 0.331 0.626 0.681 0.969 1 0.287 0.295 0.572 0.589 0.875 0.875 0.322 0.335 0.657 0.676 1 1 0.36 0.375 0.708 0.765 1.094 1.125 0.362 0.373 0.737 0.736 1.125 1.094 0.296 0.301 0.594 0.584 0.906 0.875 0.322 0.331 0.626 0.681 0.969 1 0.287 0.295 0.572 0.589 0.875 0.875 0.322 0.335 0.657 0.676 1 1 0.36 0.375 0.708 0.765 1.094 1.125 0.362 0.373 0.737 0.736 1.125 1.094 0.296 0.301 0.594 0.584 0.906 0.875 0.327 0.336 0.652 0.676 1 1 0.322 0.331 0.626 0.681 0.969 1 0.287 0.295 0.572 0.589 0.875 0.875 0.36 0.375 0.708 0.765 1.094 1.125 0.327 0.336 0.652 0.676 1 1 0.388 0.399 0.802 0.774 1.219 1.156 0.049 0.055 0.106 0.102 0.156 0.156 0.219 0.217 0.428 0.444 0.656 0.656 0.322 0.331 0.626 0.681 0.969 1 0.287 0.295 0.572 0.589 0.875 0.875 0.36 0.375 0.708 0.765 1.094 1.125 0.327 0.336 0.652 0.676 1 1 0.362 0.373 0.737 0.736 1.125 1.094 0.296 0.301 0.594 0.584 0.906 0.875 0.322 0.331 0.626 0.681 0.969 1 0.287 0.295 0.572 0.589 0.875 0.875 0.322 0.335 0.657 0.676 1 1 0.36 0.375 0.708 0.765 1.094 1.125 0.362 0.373 0.737 0.736 1.125 1.094 0.296 0.301 0.594 0.584 0.906 0.875 0.322 0.331 0.626 0.681 0.969 1 0.287 0.295 0.572 0.589 0.875 0.875 0.322 0.335 0.657 0.676 1 1 0.36 0.375 0.708 0.765 1.094 1.125 0.327 0.336 0.652 0.676 1 1 0.388 0.399 0.802 0.774 1.219 1.156 0.049 0.055 0.106 0.102 0.156 0.156 0.219 0.217 0.428 0.444 0.656 0.656 0.322 0.331 0.626 0.681 0.969 1 0.287 0.295 0.572 0.589 0.875 0.875 0.36 0.375 0.708 0.765 1.094 1.125 0.327 0.336 0.652 0.676 1 1 0.362 0.373 0.737 0.736 1.125 1.094 0.296 0.301 0.594 0.584 0.906 0.875 0.322 0.331 0.626 0.681 0.969 1 0.287 0.295 0.572 0.589 0.875 0.875 0.36 0.375 0.708 0.765 1.094 1.125 0.327 0.336 0.652 0.676 1 1 0.362 0.373 0.737 0.736 1.125 1.094 0.296 0.301 0.594 0.584 0.906 0.875 0.322 0.331 0.626 0.681 0.969 1 0.287 0.295 0.572 0.589 0.875 0.875 0.322 0.335 0.657 0.676 1 1 0.36 0.375 0.708 0.765 1.094 1.125 0.362 0.373 0.737 0.736 1.125 1.094 0.296 0.301 0.594 0.584 0.906 0.875 0.327 0.336 0.652 0.676 1 1 0.322 0.331 0.626 0.681 0.969 1 0.287 0.295 0.572 0.589 0.875 0.875 0.36 0.375 0.708 0.765 1.094 1.125 0.327 0.336 0.652 0.676 1 1 0.388 0.399 0.802 0.774 1.219 1.156 0.049 0.055 0.106 0.102 0.156 0.156 0.219 0.217 0.428 0.444 0.656 0.656 0.322 0.331 0.626 0.681 0.969 1 0.287 0.295 0.572 0.589 0.875 0.875 0.36 0.375 0.708 0.765 1.094 1.125 0.327 0.336 0.652 0.676 1 1 0.362 0.373 0.737 0.736 1.125 1.094 0.296 0.301 0.594 0.584 0.906 0.875 0.322 0.331 0.626 0.681 0.969 1 0.287 0.295 0.572 0.589 0.875 0.875 0.322 0.335 0.657 0.676 1 1 0.36 0.375 0.708 0.765 1.094 1.125 0.362 0.373 0.737 0.736 1.125 1.094 0.296 0.301 0.594 0.584 0.906 0.875 0.322 0.331 0.626 0.681 0.969 1 0.287 0.295 0.572 0.589 0.875 0.875 0.322 0.335 0.657 0.676 1 1 0.36 0.375 0.708 0.765 1.094 1.125 0.362 0.373 0.737 0.736 1.125 1.094 0.296 0.301 0.594 0.584 0.906 0.875 0.327 0.336 0.652 0.676 1 1 0.322 0.331 0.626 0.681 0.969 1 0.287 0.295 0.572 0.589 0.875 0.875 0.36 0.375 0.708 0.765 1.094 1.125 0.327 0.336 0.652 0.676 1 1 0.102 0.105 0.208 0.209 0.313 0.313 105.12-0.147 192.88-74.41 213.84-173.31-0.432-0.445-0.873-0.879-1.313-1.313-0.332-0.335-0.665-0.669-1-1-0.327-0.33-0.671-0.643-1-0.969-0.104-0.105-0.208-0.208-0.313-0.313-0.147-0.144-0.29-0.294-0.438-0.438-0.084-0.083-0.166-0.167-0.25-0.25-0.334-0.337-0.663-0.667-1-1-0.083-0.084-0.166-0.166-0.25-0.25-0.572-0.588-1.138-1.176-1.719-1.75-0.332-0.335-0.665-0.669-1-1-0.327-0.33-0.671-0.643-1-0.969-0.114-0.115-0.229-0.229-0.344-0.344-0.084-0.082-0.166-0.168-0.25-0.25-0.135-0.135-0.27-0.272-0.406-0.406-0.334-0.337-0.663-0.667-1-1-0.083-0.084-0.166-0.166-0.25-0.25-0.572-0.588-1.138-1.176-1.719-1.75-0.332-0.335-0.665-0.669-1-1-0.327-0.33-0.671-0.643-1-0.969-0.104-0.105-0.209-0.208-0.313-0.313-0.094-0.093-0.187-0.189-0.281-0.281-0.135-0.135-0.27-0.272-0.406-0.406-0.334-0.337-0.663-0.667-1-1-0.334-0.337-0.663-0.667-1-1-0.125-0.127-0.249-0.249-0.375-0.375-0.532-0.544-1.055-1.093-1.594-1.625-0.332-0.335-0.665-0.669-1-1-0.329-0.332-0.669-0.641-1-0.969-0.334-0.337-0.663-0.667-1-1-0.334-0.337-0.663-0.667-1-1-0.125-0.127-0.249-0.249-0.375-0.375-0.532-0.544-1.055-1.093-1.594-1.625-0.332-0.335-0.665-0.669-1-1-0.327-0.33-0.671-0.643-1-0.969-0.104-0.105-0.208-0.208-0.313-0.313-0.147-0.144-0.29-0.294-0.438-0.438-0.084-0.083-0.166-0.167-0.25-0.25-0.334-0.337-0.663-0.667-1-1-0.083-0.084-0.166-0.166-0.25-0.25-0.572-0.588-1.138-1.176-1.719-1.75-0.332-0.335-0.665-0.669-1-1-0.327-0.33-0.671-0.643-1-0.969-0.114-0.115-0.229-0.229-0.344-0.344-0.084-0.082-0.166-0.168-0.25-0.25-0.135-0.135-0.27-0.272-0.406-0.406-0.334-0.337-0.663-0.667-1-1-0.334-0.337-0.663-0.667-1-1-0.125-0.127-0.249-0.249-0.375-0.375-0.532-0.544-1.055-1.093-1.594-1.625-0.327-0.33-0.671-0.643-1-0.969-0.104-0.105-0.209-0.208-0.313-0.313-0.094-0.093-0.187-0.189-0.281-0.281-0.135-0.135-0.27-0.272-0.406-0.406-0.334-0.337-0.663-0.667-1-1-0.334-0.337-0.663-0.667-1-1-0.125-0.127-0.249-0.249-0.375-0.375-0.532-0.544-1.055-1.093-1.594-1.625-0.332-0.335-0.665-0.669-1-1-0.329-0.332-0.669-0.641-1-0.969-0.334-0.337-0.663-0.667-1-1-0.334-0.337-0.663-0.667-1-1-0.125-0.127-0.249-0.249-0.375-0.375-0.532-0.544-1.055-1.093-1.594-1.625-0.332-0.335-0.665-0.669-1-1-0.327-0.33-0.671-0.643-1-0.969-0.104-0.105-0.208-0.208-0.313-0.313-0.147-0.144-0.29-0.294-0.438-0.438-0.084-0.083-0.166-0.167-0.25-0.25-0.334-0.337-0.663-0.667-1-1-0.083-0.084-0.166-0.166-0.25-0.25-0.572-0.588-1.138-1.177-1.719-1.75-0.332-0.335-0.665-0.669-1-1-0.327-0.33-0.671-0.643-1-0.969-0.114-0.115-0.229-0.229-0.344-0.344-0.084-0.082-0.166-0.168-0.25-0.25-0.135-0.135-0.27-0.272-0.406-0.406-0.334-0.337-0.663-0.667-1-1-0.334-0.337-0.663-0.667-1-1-0.125-0.127-0.249-0.249-0.375-0.375-0.532-0.544-1.055-1.093-1.594-1.625-0.327-0.33-0.671-0.643-1-0.969-0.104-0.105-0.209-0.208-0.313-0.313-0.094-0.093-0.187-0.189-0.281-0.281-0.135-0.135-0.27-0.272-0.406-0.406-0.334-0.337-0.663-0.667-1-1-0.334-0.337-0.663-0.667-1-1-0.125-0.127-0.249-0.249-0.375-0.375-0.532-0.544-1.055-1.093-1.594-1.625-0.332-0.335-0.665-0.669-1-1-0.329-0.332-0.669-0.641-1-0.969-0.334-0.337-0.663-0.667-1-1-0.334-0.337-0.663-0.667-1-1-0.083-0.084-0.166-0.166-0.25-0.25-0.572-0.588-1.138-1.177-1.719-1.75-0.332-0.335-0.665-0.669-1-1-0.327-0.33-0.671-0.643-1-0.969-0.104-0.105-0.209-0.208-0.313-0.313-0.094-0.093-0.187-0.189-0.281-0.281-0.135-0.135-0.27-0.272-0.406-0.406-0.334-0.337-0.663-0.667-1-1-0.083-0.084-0.166-0.166-0.25-0.25-0.572-0.588-1.138-1.177-1.719-1.75-0.332-0.335-0.665-0.669-1-1-0.327-0.33-0.671-0.643-1-0.969-0.114-0.115-0.229-0.229-0.344-0.344-0.084-0.082-0.166-0.168-0.25-0.25-0.135-0.135-0.27-0.272-0.406-0.406-0.334-0.337-0.663-0.667-1-1-0.334-0.337-0.663-0.667-1-1-0.125-0.127-0.249-0.249-0.375-0.375-0.532-0.544-1.055-1.093-1.594-1.625-0.332-0.335-0.665-0.669-1-1-0.329-0.332-0.669-0.641-1-0.969-0.334-0.337-0.663-0.667-1-1-0.334-0.337-0.663-0.667-1-1-0.125-0.127-0.249-0.249-0.375-0.375-0.532-0.544-1.055-1.093-1.594-1.625-0.332-0.335-0.665-0.669-1-1-0.327-0.33-0.671-0.643-1-0.969-0.115-0.116-0.229-0.228-0.344-0.344-0.136-0.134-0.27-0.273-0.406-0.406-0.084-0.083-0.166-0.167-0.25-0.25-0.334-0.337-0.663-0.667-1-1-0.083-0.084-0.166-0.166-0.25-0.25-0.572-0.588-1.138-1.177-1.719-1.75-0.332-0.335-0.665-0.669-1-1-0.327-0.33-0.671-0.643-1-0.969-0.104-0.105-0.209-0.208-0.313-0.313-0.094-0.093-0.187-0.189-0.281-0.281-0.135-0.135-0.27-0.272-0.406-0.406-0.334-0.337-0.663-0.667-1-1-0.334-0.337-0.663-0.667-1-1-0.125-0.127-0.249-0.249-0.375-0.375-0.532-0.544-1.055-1.093-1.594-1.625-0.327-0.33-0.671-0.643-1-0.969-0.114-0.115-0.229-0.229-0.344-0.344-0.084-0.082-0.166-0.168-0.25-0.25-0.135-0.135-0.27-0.272-0.406-0.406-0.334-0.337-0.663-0.667-1-1-0.334-0.337-0.663-0.667-1-1-0.125-0.127-0.249-0.249-0.375-0.375-0.532-0.544-1.055-1.093-1.594-1.625-0.332-0.335-0.665-0.669-1-1-0.329-0.332-0.669-0.641-1-0.969-0.334-0.337-0.663-0.667-1-1-0.334-0.337-0.663-0.667-1-1-0.083-0.084-0.166-0.166-0.25-0.25-0.572-0.588-1.138-1.177-1.719-1.75-0.332-0.335-0.665-0.669-1-1-0.327-0.33-0.671-0.643-1-0.969-0.114-0.115-0.229-0.229-0.344-0.344-0.084-0.082-0.166-0.168-0.25-0.25-0.135-0.135-0.27-0.272-0.406-0.406-0.334-0.337-0.663-0.667-1-1-0.334-0.337-0.663-0.667-1-1-0.125-0.127-0.249-0.249-0.375-0.375-0.532-0.544-1.055-1.093-1.594-1.625-0.327-0.33-0.671-0.643-1-0.969-0.104-0.105-0.209-0.208-0.313-0.313-0.094-0.093-0.187-0.189-0.281-0.281-0.135-0.135-0.27-0.272-0.406-0.406-0.334-0.337-0.663-0.667-1-1-0.334-0.337-0.663-0.667-1-1-0.125-0.127-0.249-0.249-0.375-0.375-0.532-0.544-1.055-1.093-1.594-1.625-0.327-0.33-0.671-0.643-1-0.969-0.114-0.115-0.229-0.229-0.344-0.344-0.084-0.082-0.166-0.168-0.25-0.25-0.135-0.135-0.27-0.272-0.406-0.406-0.334-0.337-0.663-0.667-1-1-0.334-0.337-0.663-0.667-1-1-0.083-0.084-0.166-0.166-0.25-0.25-0.572-0.588-1.138-1.177-1.719-1.75-0.332-0.335-0.665-0.669-1-1-0.329-0.332-0.669-0.641-1-0.969-0.332-0.335-0.665-0.669-1-1-0.334-0.337-0.663-0.667-1-1-0.083-0.084-0.166-0.166-0.25-0.25-0.572-0.588-1.138-1.177-1.719-1.75-0.332-0.335-0.665-0.669-1-1-0.327-0.33-0.671-0.643-1-0.969-0.114-0.115-0.229-0.229-0.344-0.344-0.084-0.082-0.166-0.168-0.25-0.25-0.135-0.135-0.27-0.272-0.406-0.406-0.334-0.337-0.663-0.667-1-1-0.334-0.337-0.663-0.667-1-1-0.125-0.127-0.249-0.249-0.375-0.375-0.532-0.544-1.055-1.093-1.594-1.625-0.327-0.33-0.671-0.643-1-0.969-0.104-0.105-0.209-0.208-0.313-0.313-0.094-0.093-0.187-0.189-0.281-0.281-0.135-0.135-0.27-0.272-0.406-0.406-18.3-18.492-40.659-29.8-67-30.406h-0.031" fill-opacity=".235" transform="translate(0,540.36)"/>
  <g id="g10" fill-rule="evenodd">
   <path id="path12" fill-opacity=".067" d="m256 541.36c-140.83 0-255 114.17-255 255s114.17 255 255 255 255-114.17 255-255-114.17-255-255-255m8.827 44.931c120.9 0 218.9 98 218.9 218.9s-98 218.9-218.9 218.9-218.93-98-218.93-218.9 98.03-218.9 218.93-218.9"/>
   <g id="g14" fill-opacity=".129">
    <path id="path16" d="m256 544.79c-138.94 0-251.57 112.63-251.57 251.57s112.63 251.54 251.57 251.54 251.57-112.6 251.57-251.54-112.63-251.57-251.57-251.57m5.885 38.556c120.9 0 218.9 98 218.9 218.9s-98 218.9-218.9 218.9-218.93-98-218.93-218.9 98.03-218.9 218.93-218.9"/>
    <path id="path18" d="m256 548.72c-136.77 0-247.64 110.87-247.64 247.64s110.87 247.64 247.64 247.64 247.64-110.87 247.64-247.64-110.87-247.64-247.64-247.64m2.942 31.691c120.9 0 218.9 98 218.9 218.9s-98 218.9-218.9 218.9-218.93-98-218.93-218.9 98.03-218.9 218.93-218.9"/>
   </g>
   <path id="path20" d="m253.04 548.22c-135.42 0-245.19 109.78-245.19 245.19 0 135.42 109.78 245.19 245.19 245.19 135.42 0 245.19-109.78 245.19-245.19 0-135.42-109.78-245.19-245.19-245.19zm0 26.297c120.9 0 218.9 98 218.9 218.9s-98 218.9-218.9 218.9-218.93-98-218.93-218.9 98.03-218.9 218.93-218.9z" stroke-opacity=".31" stroke="#000" stroke-width="4.904" fill="#fff"/>
  </g>
  <text id="text22" style="word-spacing:0;letter-spacing:0" font-size="129.23px" line-height="125%" y="771.71997" x="729.64001" font-family="Gentium Book Basic">
   <tspan id="tspan24" y="771.71997" x="729.64001"/>
  </text>
  <text id="text26" style="text-anchor:middle" font-size="46.954px" transform="scale(4.0128 .2492)" y="2747.6399" x="378.91" font-family="Arial"/>
  <text id="text28" style="word-spacing:0;letter-spacing:0" font-size="129.23px" line-height="125%" y="691.71997" x="1310.91" font-family="Gentium Book Basic">
   <tspan id="tspan30" y="691.71997" x="1310.91"/>
  </text>
  <text id="text32" style="text-anchor:middle" font-size="46.954px" transform="scale(4.0128 .2492)" y="2426.6001" x="523.76001" font-family="Arial"/>
  <text id="text34" style="word-spacing:0;letter-spacing:0" font-size="129.23px" line-height="125%" y="510.45999" x="239.33" font-family="Gentium Book Basic">
   <tspan id="tspan36" y="510.45999" x="239.33"/>
  </text>
  <text id="text38" style="text-anchor:middle" font-size="46.954px" transform="scale(4.0128 .2492)" y="1699.25" x="256.72" font-family="Arial"/>
  <text id="text40" style="word-spacing:0;letter-spacing:0" font-size="129.23px" line-height="125%" y="293.98999" x="1337.38" font-family="Gentium Book Basic">
   <tspan id="tspan42" y="293.98999" x="1337.38"/>
  </text>
  <text id="text44" style="text-anchor:middle" font-size="46.954px" transform="scale(4.0128 .2492)" y="830.57001" x="530.35999" font-family="Arial"/>
  <text id="text46" style="word-spacing:0;letter-spacing:0" font-size="129.23px" line-height="125%" y="213.99001" x="1918.65" font-family="Gentium Book Basic">
   <tspan id="tspan48" y="213.99001" x="1918.65"/>
  </text>
  <text id="text50" style="text-anchor:middle" font-size="46.954px" transform="scale(4.0128 .2492)" y="509.54001" x="675.21002" font-family="Arial"/>
  <text id="text52" style="word-spacing:0;letter-spacing:0" font-size="129.23px" line-height="125%" y="-258.41" x="1529.53" font-family="Gentium Book Basic">
   <tspan id="tspan54" y="-258.41" x="1529.53"/>
  </text>
  <text id="text56" style="text-anchor:middle" font-size="46.954px" transform="scale(4.0128 .2492)" y="-1386.12" x="578.23999" font-family="Arial"/>
  <text id="text58" style="word-spacing:0;letter-spacing:0" font-size="129.23px" line-height="125%" y="-338.42001" x="2110.79" font-family="Gentium Book Basic">
   <tspan id="tspan60" y="-338.42001" x="2110.79"/>
  </text>
  <text id="text62" style="text-anchor:middle" font-size="46.954px" transform="scale(4.0128 .2492)" y="-1707.16" x="723.09003" font-family="Arial"/>
  <text id="text64" style="word-spacing:0;letter-spacing:0" font-size="208.33px" line-height="125%" y="1076.3" x="277.98999" font-family="Gentium Book Basic">
   <tspan id="tspan66" y="1076.3" x="277.98999"/>
  </text>
  <path id="path68" stroke="#fff" stroke-width="3.177" fill="#fff" d="m246.6 656.68c-101.02 0.782-104.56 120.98-107.96 205.38-0.323 17.18-3.505 45.44 27.07 51.47 13.01 4.325 28.806-42.949 42.11-42.949 21.646 0 16.744 37.21 33.757 39.27 12.489 0 20.638 1.388 25.402-1.337 16.335-14.196 8.526-40.05 31.752-41.11 28.69 5.154 9.559 38.06 47.628 41.11 8.487-0.753 26.17-6.735 27.24-47.795-5.471-103.09-48.05-202.23-127.01-204.05zm-10.03 38.27c14.372 0 26.07 15.748 26.07 35.26 0 19.514-11.698 35.26-26.07 35.26s-25.903-15.748-25.903-35.26c0-19.514 11.531-35.26 25.903-35.26zm64.34 0c14.372 0 25.903 15.748 25.903 35.26 0 19.514-11.531 35.26-25.903 35.26s-26.07-15.748-26.07-35.26c0-19.514 11.698-35.26 26.07-35.26z"/>
 </g>
</svg>
