<?xml version="1.0" encoding="UTF-8" standalone="no"?>
<!-- Created with Inkscape (http://www.inkscape.org/) -->
<svg id="svg2" xmlns:rdf="http://www.w3.org/1999/02/22-rdf-syntax-ns#" xmlns="http://www.w3.org/2000/svg" height="100%" viewBox="0 0 512 512" width="100%" version="1.1" xmlns:cc="http://creativecommons.org/ns#" xmlns:dc="http://purl.org/dc/elements/1.1/">
 <metadata id="metadata72">
  <rdf:RDF>
   <cc:Work rdf:about="">
    <dc:format>image/svg+xml</dc:format>
    <dc:type rdf:resource="http://purl.org/dc/dcmitype/StillImage"/>
   </cc:Work>
  </rdf:RDF>
 </metadata>
 <g id="g4" fill-rule="evenodd">
  <path id="path6" fill="#3689e6" d="m471.95 253.05c0 120.9-98.01 218.91-218.91 218.91s-218.91-98.01-218.91-218.91 98.01-218.91 218.91-218.91 218.91 98.01 218.91 218.91"/>
  <path id="path8" fill-opacity=".067" d="m256 1c-140.83 0-255 114.17-255 255s114.17 255 255 255 255-114.17 255-255-114.17-255-255-255m8.827 44.931c120.9 0 218.9 98 218.9 218.9s-98 218.9-218.9 218.9-218.93-98-218.93-218.9 98.03-218.9 218.93-218.9"/>
  <g id="g10" fill-opacity=".129">
   <path id="path12" d="m256 4.43c-138.94 0-251.57 112.63-251.57 251.57s112.63 251.57 251.57 251.57 251.57-112.63 251.57-251.57-112.63-251.57-251.57-251.57m5.885 38.556c120.9 0 218.9 98 218.9 218.9s-98 218.9-218.9 218.9-218.93-98-218.93-218.9 98.03-218.9 218.93-218.9"/>
   <path id="path14" d="m256 8.36c-136.77 0-247.64 110.87-247.64 247.64s110.87 247.64 247.64 247.64 247.64-110.87 247.64-247.64-110.87-247.64-247.64-247.64m2.942 31.691c120.9 0 218.9 98 218.9 218.9s-98 218.9-218.9 218.9-218.93-98-218.93-218.9 98.03-218.9 218.93-218.9"/>
  </g>
  <path id="path16" d="m253.04 7.86c-135.42 0-245.19 109.78-245.19 245.19 0 135.42 109.78 245.19 245.19 245.19 135.42 0 245.19-109.78 245.19-245.19 0-135.42-109.78-245.19-245.19-245.19zm0 26.297c120.9 0 218.9 98 218.9 218.9s-98 218.9-218.9 218.9-218.93-98-218.93-218.9 98.03-218.9 218.93-218.9z" stroke-opacity=".31" stroke="#000" stroke-width="4.904" fill="#fff"/>
 </g>
 <text id="text18" style="word-spacing:0;letter-spacing:0" font-size="129.23px" line-height="125%" y="231.36" x="729.64001" font-family="Gentium Book Basic">
  <tspan id="tspan20" y="231.36" x="729.64001"/>
 </text>
 <text id="text22" style="text-anchor:middle" font-size="46.954px" transform="scale(4.0128 .2492)" y="579.26001" x="378.91" font-family="Arial"/>
 <text id="text24" style="word-spacing:0;letter-spacing:0" font-size="129.23px" line-height="125%" y="151.36" x="1310.91" font-family="Gentium Book Basic">
  <tspan id="tspan26" y="151.36" x="1310.91"/>
 </text>
 <text id="text28" style="text-anchor:middle" font-size="46.954px" transform="scale(4.0128 .2492)" y="258.22" x="523.76001" font-family="Arial"/>
 <text id="text30" style="word-spacing:0;letter-spacing:0" font-size="129.23px" line-height="125%" y="-29.9" x="239.33" font-family="Gentium Book Basic">
  <tspan id="tspan32" y="-29.9" x="239.33"/>
 </text>
 <text id="text34" style="text-anchor:middle" font-size="46.954px" transform="scale(4.0128 .2492)" y="-469.13" x="256.72" font-family="Arial"/>
 <text id="text36" style="word-spacing:0;letter-spacing:0" font-size="129.23px" line-height="125%" y="-246.37" x="1337.38" font-family="Gentium Book Basic">
  <tspan id="tspan38" y="-246.37" x="1337.38"/>
 </text>
 <text id="text40" style="text-anchor:middle" font-size="46.954px" transform="scale(4.0128 .2492)" y="-1337.8" x="530.35999" font-family="Arial"/>
 <text id="text42" style="word-spacing:0;letter-spacing:0" font-size="129.23px" line-height="125%" y="-326.37" x="1918.65" font-family="Gentium Book Basic">
  <tspan id="tspan44" y="-326.37" x="1918.65"/>
 </text>
 <text id="text46" style="text-anchor:middle" font-size="46.954px" transform="scale(4.0128 .2492)" y="-1658.83" x="675.21002" font-family="Arial"/>
 <text id="text48" style="word-spacing:0;letter-spacing:0" font-size="129.23px" line-height="125%" y="-798.77002" x="1529.53" font-family="Gentium Book Basic">
  <tspan id="tspan50" y="-798.77002" x="1529.53"/>
 </text>
 <text id="text52" style="text-anchor:middle" font-size="46.954px" transform="scale(4.0128 .2492)" y="-3554.48" x="578.23999" font-family="Arial"/>
 <text id="text54" style="word-spacing:0;letter-spacing:0" font-size="129.23px" line-height="125%" y="-878.78003" x="2110.79" font-family="Gentium Book Basic">
  <tspan id="tspan56" y="-878.78003" x="2110.79"/>
 </text>
 <text id="text58" style="text-anchor:middle" font-size="46.954px" transform="scale(4.0128 .2492)" y="-3875.52" x="723.09003" font-family="Arial"/>
 <text id="text60" style="word-spacing:0;letter-spacing:0" font-size="208.33px" line-height="125%" y="535.94" x="277.98999" font-family="Gentium Book Basic">
  <tspan id="tspan62" y="535.94" x="277.98999"/>
 </text>
 <path id="path64" opacity=".25" d="m272.44 113.72c-5.48 0-9.875 4.426-9.875 9.906v91.03c0 2.74 1.091 5.216 2.875 7l61 61h-6.75l-112.53-112.53c0-5.48-4.395-9.875-9.875-9.875h-91.03c-5.48 0-9.875 4.395-9.875 9.875v76.66c0 2.74 1.091 5.216 2.875 7l106.41 106.41v21.688c0 2.732 1.092 5.186 2.875 6.969l80.19 80.19c103.92-17.04 183.22-107.23 183.22-215.97 0-26.472-4.704-51.856-13.313-75.34l-61.09-61.09c-1.792-1.792-4.26-2.906-7-2.906h-118.09"/>
 <path id="path66" fill="#fff" d="m272.44 113.72c-5.48 0-9.875 4.426-9.875 9.906v91.03c0 5.48 4.395 9.875 9.875 9.875h118.09c5.48 0 9.906-4.395 9.906-9.875v-91.03c0-5.48-4.426-9.906-9.906-9.906h-118.09m-166.19 46.531c-5.48 0-9.875 4.395-9.875 9.875v76.66c0 5.48 4.395 9.875 9.875 9.875h91.03c5.48 0 9.875-4.395 9.875-9.875v-76.66c0-5.48-4.395-9.875-9.875-9.875h-91.03m109.31 122.41c-5.48 0-9.906 4.395-9.906 9.875v89.34c0 5.48 4.426 9.875 9.906 9.875h129.94c5.48 0 9.906-4.395 9.906-9.875v-89.34c0-5.48-4.426-9.875-9.906-9.875h-129.94"/>
</svg>
