<?xml version="1.0" encoding="UTF-8" standalone="no"?>
<!-- Created with Inkscape (http://www.inkscape.org/) -->
<svg id="svg2" xmlns:rdf="http://www.w3.org/1999/02/22-rdf-syntax-ns#" xmlns="http://www.w3.org/2000/svg" height="100%" viewBox="0 0 512 512" width="100%" version="1.1" xmlns:cc="http://creativecommons.org/ns#" xmlns:dc="http://purl.org/dc/elements/1.1/">
 <metadata id="metadata80">
  <rdf:RDF>
   <cc:Work rdf:about="">
    <dc:format>image/svg+xml</dc:format>
    <dc:type rdf:resource="http://purl.org/dc/dcmitype/StillImage"/>
   </cc:Work>
  </rdf:RDF>
 </metadata>
 <g id="g4" style="word-spacing:0;letter-spacing:0" font-family="Gentium Book Basic" line-height="125%">
  <text id="text6" y="559.52002" x="-272.57001" font-size="208.33px">
   <tspan id="tspan8" y="559.52002" x="-272.57001"/>
  </text>
  <text id="text10" font-size="84.77px" transform="scale(1.0508 .95163)" y="391.85999" x="939.34998" fill="#654641">
   <tspan id="tspan12" y="391.85999" x="939.34998"/>
  </text>
 </g>
 <g id="g14" fill="#654641">
  <text id="text16" style="text-anchor:middle" font-size="30.8px" transform="scale(4.2168 .23715)" y="1343.4301" x="363.35999" font-family="Arial"/>
  <text id="text18" style="word-spacing:0;letter-spacing:0" transform="scale(1.0508 .95163)" font-size="45.38px" y="368.35999" x="1207.16" font-family="Gentium Book Basic" line-height="125%">
   <tspan id="tspan20" y="368.35999" x="1207.16"/>
  </text>
  <text id="text22" style="text-anchor:middle" font-size="16.488px" transform="scale(4.2168 .23715)" y="1355.5699" x="370.03" font-family="Arial"/>
  <text id="text24" style="word-spacing:0;letter-spacing:0" font-size="132.57px" line-height="125%" y="452.39999" x="246.17999" font-family="Gentium Book Basic">
   <tspan id="tspan26" y="452.39999" x="246.17999"/>
  </text>
  <text id="text28" style="text-anchor:middle" font-size="48.17px" transform="scale(4.0128 .2492)" y="1457.2" x="263.53" font-family="Arial"/>
 </g>
 <g id="g30" style="word-spacing:0;letter-spacing:0" font-family="Gentium Book Basic" font-size="208.33px" line-height="125%">
  <text id="text32" y="432.51999" x="508.42999">
   <tspan id="tspan34" y="432.51999" x="508.42999"/>
  </text>
  <text id="text36" y="274.67999" x="215.35001">
   <tspan id="tspan38" y="274.67999" x="215.35001"/>
  </text>
 </g>
 <path id="path40" fill-rule="evenodd" fill="#fff" transform="matrix(1.5323 0 0 1.5323 42.896 -396.33)" d="m280 423.79a142.86 142.86 0 1 1 -285.71 0 142.86 142.86 0 1 1 285.71 0"/>
 <g id="g42" transform="matrix(.89602 0 0 .89602 -777.92 26.619)">
  <path id="path44" fill="#924565" d="m903.97 255.69v4.594c2.22 131.79 106.39 238.78 237.06 245.41h12.938v-250h-250"/>
  <path id="path46" fill="#e4a146" d="m1154 255.69v250h12.813c132.09-6.696 237.13-115.93 237.13-249.69v-0.313h-249.94"/>
  <path id="path48" fill="#366378" d="m1154 6v249.69h249.94c-0.2-137.91-112-249.65-249.9-249.69"/>
  <path id="path50" fill="#9a3034" d="m1153.9 6c-136.6 0-247.63 109.63-249.93 245.72v3.969h250v-249.69h-0.062"/>
  <g id="g52" stroke="#707175" stroke-width=".698" fill="#62c0dc">
   <path id="path54" d="m904.15 256h499.51"/>
   <path id="path56" d="m1153.9 6.243v499.51"/>
  </g>
 </g>
 <g id="g58" fill-rule="evenodd">
  <path id="path60" fill-opacity=".235" d="m255.56 125.31c-15.585 0.07-34.37 69.53-46.938 78.75-12.567 9.217-84.47 6.25-89.22 21.09-1.735 5.422 5.219 14.12 14.969 23.688 0.095 0.096 0.186 0.185 0.281 0.281 0.165 0.161 0.334 0.307 0.5 0.469 0.172 0.175 0.325 0.356 0.5 0.531 0.164 0.16 0.335 0.308 0.5 0.469 0.172 0.175 0.325 0.356 0.5 0.531 0.016 0.016 0.047 0.016 0.063 0.031 0.031 0.032 0.063 0.062 0.094 0.094 0.087 0.088 0.162 0.193 0.25 0.281 0.15 0.146 0.317 0.291 0.469 0.438 0.048 0.048 0.077 0.108 0.125 0.156 0.155 0.151 0.312 0.286 0.469 0.438 0.031 0.032 0.063 0.062 0.094 0.094 0.152 0.154 0.284 0.314 0.438 0.469 0.021 0.021 0.041 0.042 0.063 0.063 0.57 0.583 1.155 1.159 1.75 1.75l0.156 0.156c0.161 0.16 0.337 0.308 0.5 0.469 0.172 0.175 0.325 0.356 0.5 0.531 0.165 0.161 0.334 0.307 0.5 0.469 0.284 0.288 0.554 0.585 0.844 0.875 0.043 0.042 0.082 0.083 0.125 0.125 0.177 0.18 0.351 0.35 0.531 0.531 0.287 0.281 0.583 0.562 0.875 0.844 0.031 0.032 0.063 0.062 0.094 0.094 0.016 0.016 0.015 0.046 0.031 0.063 0.021 0.021 0.041 0.042 0.063 0.063 0.56 0.573 1.135 1.138 1.719 1.719 0.064 0.064 0.124 0.123 0.188 0.188 0.161 0.16 0.337 0.308 0.5 0.469 0.172 0.175 0.325 0.356 0.5 0.531 0.165 0.161 0.334 0.307 0.5 0.469 0.172 0.175 0.325 0.356 0.5 0.531 0.164 0.16 0.335 0.308 0.5 0.469 0.172 0.175 0.325 0.356 0.5 0.531 0.016 0.016 0.047 0.016 0.063 0.031 0.031 0.032 0.063 0.062 0.094 0.094 0.087 0.088 0.162 0.193 0.25 0.281 0.15 0.146 0.317 0.291 0.469 0.438 0.031 0.032 0.063 0.062 0.094 0.094 0.016 0.016 0.015 0.046 0.031 0.063 0.021 0.021 0.041 0.042 0.063 0.063 0.56 0.573 1.135 1.138 1.719 1.719 0.064 0.064 0.124 0.123 0.188 0.188 0.161 0.16 0.337 0.308 0.5 0.469 0.172 0.175 0.325 0.356 0.5 0.531 0.165 0.161 0.334 0.307 0.5 0.469 0.172 0.175 0.325 0.356 0.5 0.531 0.164 0.16 0.335 0.308 0.5 0.469 0.172 0.175 0.325 0.356 0.5 0.531 0.016 0.016 0.047 0.016 0.063 0.031 0.031 0.032 0.063 0.062 0.094 0.094 0.087 0.088 0.162 0.193 0.25 0.281 0.15 0.146 0.317 0.291 0.469 0.438 0.031 0.032 0.063 0.062 0.094 0.094 0.005 0.005-0.005 0.026 0 0.031l0.031 0.031c0.021 0.021 0.041 0.042 0.063 0.063 0.426 0.436 0.841 0.873 1.281 1.313 0.474 0.482 0.979 0.951 1.469 1.438l0.156 0.156c0.161 0.16 0.337 0.308 0.5 0.469 0.172 0.175 0.325 0.356 0.5 0.531 0.165 0.161 0.334 0.307 0.5 0.469 0.172 0.175 0.325 0.356 0.5 0.531 0.016 0.016 0.047 0.016 0.063 0.031 0.031 0.032 0.063 0.062 0.094 0.094 0.087 0.088 0.162 0.193 0.25 0.281 0.15 0.146 0.317 0.291 0.469 0.438 0.048 0.048 0.077 0.108 0.125 0.156 0.155 0.151 0.312 0.286 0.469 0.438 0.031 0.032 0.063 0.062 0.094 0.094 0.021 0.022 0.042 0.041 0.063 0.063 0.131 0.133 0.243 0.273 0.375 0.406 0.021 0.021 0.041 0.042 0.063 0.063 0.56 0.573 1.135 1.138 1.719 1.719 0.064 0.064 0.124 0.123 0.188 0.188 0.161 0.16 0.337 0.308 0.5 0.469 0.172 0.175 0.325 0.356 0.5 0.531 0.165 0.161 0.334 0.307 0.5 0.469 0.284 0.288 0.554 0.585 0.844 0.875 0.043 0.042 0.082 0.083 0.125 0.125 0.177 0.18 0.351 0.35 0.531 0.531 0.287 0.281 0.583 0.562 0.875 0.844 0.031 0.032 0.063 0.062 0.094 0.094 0.016 0.016 0.015 0.046 0.031 0.063 0.021 0.021 0.041 0.042 0.063 0.063 0.56 0.573 1.135 1.138 1.719 1.719 0.064 0.064 0.124 0.123 0.188 0.188 0.161 0.16 0.337 0.308 0.5 0.469 0.172 0.175 0.325 0.356 0.5 0.531 0.165 0.161 0.334 0.307 0.5 0.469 0.172 0.175 0.325 0.356 0.5 0.531 0.164 0.16 0.335 0.308 0.5 0.469 0.172 0.175 0.325 0.356 0.5 0.531 0.016 0.016 0.047 0.016 0.063 0.031 0.031 0.032 0.063 0.062 0.094 0.094 0.087 0.088 0.162 0.193 0.25 0.281 0.15 0.146 0.317 0.291 0.469 0.438 0.031 0.032 0.063 0.062 0.094 0.094 0.016 0.016 0.015 0.046 0.031 0.063 0.021 0.021 0.041 0.042 0.063 0.063 0.56 0.573 1.135 1.138 1.719 1.719 0.064 0.064 0.124 0.123 0.188 0.188 0.161 0.16 0.337 0.308 0.5 0.469 0.172 0.175 0.325 0.356 0.5 0.531 0.165 0.161 0.334 0.307 0.5 0.469 0.172 0.175 0.325 0.356 0.5 0.531 0.142 0.139 0.294 0.267 0.438 0.406 0.005 0.005-0.005 0.026 0 0.031 4.553 15.14-19.889 81.32-7.781 90.97 0.326 0.422 0.692 0.758 1.094 1.063 0.306 0.381 0.629 0.719 1 1 0.281 0.351 0.57 0.671 0.906 0.938 0.296 0.38 0.642 0.716 1 1 0.296 0.38 0.642 0.716 1 1 0.291 0.373 0.617 0.689 0.969 0.969 0.326 0.422 0.692 0.758 1.094 1.063 0.306 0.381 0.629 0.719 1 1 0.281 0.351 0.57 0.671 0.906 0.938 0.296 0.38 0.642 0.716 1 1 0.296 0.38 0.642 0.716 1 1 0.286 0.367 0.625 0.66 0.969 0.938 0.33 0.43 0.686 0.784 1.094 1.094 0.306 0.381 0.629 0.719 1 1 0.306 0.381 0.629 0.719 1 1 0.281 0.351 0.57 0.671 0.906 0.938 0.296 0.38 0.642 0.716 1 1 0.286 0.367 0.625 0.66 0.969 0.938 0.302 0.394 0.632 0.738 1 1.031 0.326 0.422 0.692 0.758 1.094 1.063 0.306 0.381 0.629 0.719 1 1 0.281 0.351 0.57 0.671 0.906 0.938 0.296 0.38 0.642 0.716 1 1 0.296 0.38 0.642 0.716 1 1 0.291 0.373 0.617 0.689 0.969 0.969 0.326 0.422 0.692 0.758 1.094 1.063 0.306 0.381 0.629 0.719 1 1 0.281 0.351 0.57 0.671 0.906 0.938 0.296 0.38 0.642 0.716 1 1 0.296 0.38 0.642 0.716 1 1 0.286 0.367 0.625 0.66 0.969 0.938 0.33 0.43 0.686 0.784 1.094 1.094 0.306 0.381 0.629 0.719 1 1 0.281 0.351 0.57 0.671 0.906 0.938 0.296 0.38 0.642 0.716 1 1 0.296 0.38 0.642 0.716 1 1 0.286 0.367 0.625 0.66 0.969 0.938 0.33 0.43 0.686 0.784 1.094 1.094 0.306 0.381 0.629 0.719 1 1 0.306 0.381 0.629 0.719 1 1 0.281 0.351 0.57 0.671 0.906 0.938 0.296 0.38 0.642 0.716 1 1 0.296 0.38 0.642 0.716 1 1 0.291 0.373 0.617 0.689 0.969 0.969 0.326 0.422 0.692 0.758 1.094 1.063 0.306 0.381 0.629 0.719 1 1 0.281 0.351 0.57 0.671 0.906 0.938 0.296 0.38 0.642 0.716 1 1 0.296 0.38 0.642 0.716 1 1 0.291 0.373 0.617 0.689 0.969 0.969 0.326 0.422 0.692 0.758 1.094 1.063 0.306 0.381 0.629 0.719 1 1 0.281 0.351 0.57 0.671 0.906 0.938 0.296 0.38 0.642 0.716 1 1 0.296 0.38 0.642 0.716 1 1 0.286 0.367 0.625 0.66 0.969 0.938 0.33 0.43 0.686 0.784 1.094 1.094 0.306 0.381 0.629 0.719 1 1 0.306 0.381 0.629 0.719 1 1 0.281 0.351 0.57 0.671 0.906 0.938 0.296 0.38 0.642 0.716 1 1 0.286 0.367 0.625 0.66 0.969 0.938 0.302 0.394 0.632 0.738 1 1.031 0.326 0.422 0.692 0.758 1.094 1.063 0.306 0.381 0.629 0.719 1 1 0.281 0.351 0.57 0.671 0.906 0.938 0.296 0.38 0.642 0.716 1 1 0.296 0.38 0.642 0.716 1 1 0.291 0.373 0.617 0.689 0.969 0.969 0.326 0.422 0.692 0.758 1.094 1.063 0.306 0.381 0.629 0.719 1 1 0.281 0.351 0.57 0.671 0.906 0.938 0.296 0.38 0.642 0.716 1 1 0.296 0.38 0.642 0.716 1 1 0.286 0.367 0.625 0.66 0.969 0.938 0.33 0.43 0.686 0.784 1.094 1.094 0.306 0.381 0.629 0.719 1 1 0.281 0.351 0.57 0.671 0.906 0.938 0.296 0.38 0.642 0.716 1 1 0.296 0.38 0.642 0.716 1 1 0.286 0.367 0.625 0.66 0.969 0.938 0.33 0.43 0.686 0.784 1.094 1.094 0.306 0.381 0.629 0.719 1 1 0.306 0.381 0.629 0.719 1 1 0.281 0.351 0.57 0.671 0.906 0.938 0.296 0.38 0.642 0.716 1 1 0.296 0.379 0.642 0.717 1 1 0.291 0.373 0.617 0.689 0.969 0.969 0.326 0.422 0.692 0.758 1.094 1.063 0.306 0.381 0.629 0.719 1 1 0.281 0.351 0.57 0.671 0.906 0.938 0.296 0.38 0.642 0.716 1 1 0.296 0.38 0.642 0.716 1 1 0.291 0.373 0.617 0.689 0.969 0.969 0.263 0.341 0.561 0.617 0.875 0.875h1.031c101.69-5.155 185.48-78.13 207.06-174.59-0.18-0.19-0.354-0.38-0.563-0.563-0.027-0.033-0.066-0.061-0.094-0.094-0.034-0.029-0.059-0.065-0.094-0.094-0.242-0.272-0.488-0.555-0.781-0.813-0.285-0.344-0.634-0.679-1-1-0.288-0.348-0.629-0.676-1-1-0.028-0.033-0.065-0.061-0.094-0.094-0.034-0.029-0.059-0.065-0.094-0.094-0.246-0.277-0.513-0.55-0.813-0.813-0.028-0.033-0.065-0.061-0.094-0.094-0.034-0.029-0.059-0.065-0.094-0.094-0.246-0.277-0.513-0.55-0.813-0.813-0.019-0.023-0.043-0.04-0.063-0.063-0.046-0.039-0.078-0.086-0.125-0.125-0.245-0.276-0.514-0.52-0.813-0.781-0.027-0.033-0.066-0.061-0.094-0.094-0.034-0.029-0.059-0.065-0.094-0.094-0.242-0.272-0.488-0.555-0.781-0.813-0.283-0.342-0.636-0.68-1-1-0.285-0.344-0.634-0.679-1-1-0.288-0.348-0.629-0.676-1-1-0.028-0.033-0.065-0.061-0.094-0.094-0.034-0.029-0.059-0.065-0.094-0.094-0.246-0.277-0.513-0.55-0.813-0.813-0.028-0.033-0.065-0.061-0.094-0.094-0.034-0.029-0.059-0.065-0.094-0.094-0.245-0.276-0.514-0.52-0.813-0.781-0.023-0.028-0.039-0.066-0.063-0.094-0.041-0.035-0.083-0.059-0.125-0.094-0.242-0.272-0.488-0.555-0.781-0.813-0.283-0.342-0.636-0.68-1-1-0.285-0.344-0.634-0.679-1-1-0.288-0.348-0.629-0.676-1-1-0.028-0.033-0.065-0.061-0.094-0.094-0.034-0.029-0.059-0.065-0.094-0.094-0.246-0.277-0.513-0.55-0.813-0.813-0.028-0.033-0.065-0.061-0.094-0.094-0.034-0.029-0.059-0.065-0.094-0.094-0.245-0.276-0.514-0.52-0.813-0.781-0.023-0.028-0.039-0.066-0.063-0.094-0.041-0.035-0.083-0.059-0.125-0.094-0.246-0.278-0.512-0.55-0.813-0.813-0.027-0.033-0.066-0.061-0.094-0.094-0.034-0.029-0.059-0.065-0.094-0.094-0.242-0.272-0.488-0.555-0.781-0.813-0.285-0.344-0.634-0.679-1-1-0.288-0.348-0.629-0.676-1-1-0.028-0.033-0.065-0.061-0.094-0.094-0.034-0.029-0.059-0.065-0.094-0.094-0.246-0.277-0.513-0.55-0.813-0.813-0.028-0.033-0.065-0.061-0.094-0.094-0.034-0.029-0.059-0.065-0.094-0.094-0.301-0.34-0.618-0.683-1-1-0.242-0.272-0.518-0.524-0.813-0.781-0.027-0.033-0.066-0.061-0.094-0.094-0.034-0.029-0.059-0.065-0.094-0.094-0.242-0.272-0.488-0.555-0.781-0.813-0.285-0.344-0.634-0.679-1-1-0.288-0.348-0.629-0.676-1-1-0.028-0.033-0.065-0.061-0.094-0.094-0.034-0.029-0.059-0.065-0.094-0.094-0.246-0.277-0.513-0.55-0.813-0.813-0.028-0.033-0.065-0.061-0.094-0.094-0.034-0.029-0.059-0.065-0.094-0.094-0.246-0.277-0.513-0.55-0.813-0.813-0.028-0.033-0.065-0.061-0.094-0.094-0.034-0.029-0.059-0.065-0.094-0.094-0.245-0.276-0.514-0.52-0.813-0.781-0.023-0.028-0.039-0.066-0.063-0.094-0.041-0.035-0.083-0.059-0.125-0.094-0.242-0.272-0.488-0.555-0.781-0.813-0.283-0.342-0.636-0.68-1-1-0.285-0.344-0.634-0.679-1-1-0.288-0.348-0.629-0.676-1-1-0.028-0.033-0.065-0.061-0.094-0.094-0.034-0.029-0.059-0.065-0.094-0.094-0.246-0.277-0.513-0.55-0.813-0.813-0.028-0.033-0.065-0.061-0.094-0.094-0.034-0.029-0.059-0.065-0.094-0.094-0.245-0.276-0.514-0.52-0.813-0.781-0.023-0.028-0.039-0.066-0.063-0.094-0.041-0.035-0.083-0.059-0.125-0.094-0.242-0.272-0.488-0.555-0.781-0.813-0.283-0.342-0.636-0.68-1-1-0.285-0.344-0.634-0.679-1-1-0.288-0.348-0.629-0.676-1-1-0.028-0.033-0.065-0.061-0.094-0.094-0.034-0.029-0.059-0.065-0.094-0.094-0.246-0.277-0.513-0.55-0.813-0.813-0.028-0.033-0.065-0.061-0.094-0.094-0.034-0.029-0.059-0.065-0.094-0.094-0.245-0.276-0.514-0.52-0.813-0.781-0.023-0.028-0.039-0.066-0.063-0.094-0.041-0.035-0.083-0.059-0.125-0.094-0.246-0.278-0.512-0.55-0.813-0.813-0.027-0.033-0.066-0.061-0.094-0.094-0.034-0.029-0.059-0.065-0.094-0.094-0.242-0.272-0.488-0.555-0.781-0.813-0.285-0.344-0.634-0.679-1-1-0.288-0.348-0.629-0.676-1-1-0.028-0.033-0.065-0.061-0.094-0.094-0.034-0.029-0.059-0.065-0.094-0.094-0.246-0.277-0.513-0.55-0.813-0.813-0.028-0.033-0.065-0.061-0.094-0.094-0.034-0.029-0.059-0.065-0.094-0.094-0.301-0.34-0.618-0.683-1-1-0.242-0.272-0.518-0.524-0.813-0.781-0.027-0.033-0.066-0.061-0.094-0.094-0.034-0.029-0.059-0.065-0.094-0.094-0.242-0.273-0.488-0.555-0.781-0.813-0.285-0.344-0.634-0.679-1-1-0.285-0.344-0.634-0.679-1-1-0.288-0.348-0.629-0.676-1-1-0.028-0.033-0.065-0.061-0.094-0.094-0.034-0.029-0.059-0.065-0.094-0.094-0.246-0.277-0.513-0.55-0.813-0.813-0.028-0.033-0.065-0.061-0.094-0.094-0.034-0.029-0.059-0.065-0.094-0.094-0.245-0.276-0.514-0.52-0.813-0.781-0.023-0.028-0.039-0.066-0.063-0.094-0.041-0.035-0.083-0.059-0.125-0.094-0.242-0.273-0.488-0.555-0.781-0.813-0.283-0.342-0.636-0.68-1-1-0.285-0.344-0.634-0.679-1-1-0.288-0.348-0.629-0.676-1-1-0.028-0.033-0.065-0.061-0.094-0.094-0.034-0.029-0.059-0.065-0.094-0.094-0.246-0.277-0.513-0.55-0.813-0.813-0.028-0.033-0.065-0.061-0.094-0.094-0.034-0.029-0.059-0.065-0.094-0.094-0.245-0.276-0.514-0.52-0.813-0.781-0.023-0.028-0.039-0.066-0.063-0.094-0.041-0.035-0.083-0.059-0.125-0.094-0.246-0.278-0.512-0.55-0.813-0.813-0.027-0.033-0.066-0.061-0.094-0.094-0.034-0.029-0.059-0.065-0.094-0.094-0.242-0.273-0.488-0.555-0.781-0.813-0.285-0.344-0.634-0.679-1-1-0.288-0.348-0.629-0.676-1-1-0.028-0.033-0.065-0.061-0.094-0.094-0.034-0.029-0.059-0.065-0.094-0.094-0.246-0.277-0.513-0.55-0.813-0.813-0.028-0.033-0.065-0.061-0.094-0.094-0.034-0.029-0.059-0.065-0.094-0.094-0.245-0.276-0.514-0.52-0.813-0.781-0.023-0.028-0.039-0.066-0.063-0.094-0.041-0.035-0.083-0.059-0.125-0.094-0.246-0.278-0.512-0.55-0.813-0.813-0.027-0.033-0.066-0.061-0.094-0.094-0.034-0.029-0.059-0.065-0.094-0.094-0.242-0.273-0.488-0.555-0.781-0.813-0.285-0.344-0.634-0.679-1-1-0.288-0.348-0.629-0.676-1-1-0.028-0.033-0.065-0.061-0.094-0.094-0.034-0.029-0.059-0.065-0.094-0.094-0.246-0.277-0.513-0.55-0.813-0.813-0.028-0.033-0.065-0.061-0.094-0.094-0.034-0.029-0.059-0.065-0.094-0.094-0.246-0.277-0.513-0.55-0.813-0.813-0.019-0.023-0.043-0.04-0.063-0.063-0.046-0.039-0.078-0.086-0.125-0.125-0.245-0.276-0.514-0.52-0.813-0.781-0.027-0.033-0.066-0.061-0.094-0.094-0.034-0.029-0.059-0.065-0.094-0.094-0.242-0.273-0.488-0.555-0.781-0.813-0.283-0.342-0.636-0.68-1-1-0.285-0.344-0.634-0.679-1-1-0.288-0.348-0.629-0.676-1-1-0.028-0.033-0.065-0.061-0.094-0.094-0.034-0.029-0.059-0.065-0.094-0.094-0.246-0.277-0.513-0.55-0.813-0.813-0.028-0.033-0.065-0.061-0.094-0.094-0.034-0.029-0.059-0.065-0.094-0.094-0.245-0.276-0.514-0.52-0.813-0.781-0.023-0.028-0.039-0.066-0.063-0.094-0.041-0.035-0.083-0.059-0.125-0.094-0.242-0.273-0.488-0.555-0.781-0.813-0.283-0.342-0.636-0.68-1-1-5.523-6.668-26.737-8.996-47.22-11-0.399-0.425-0.791-0.823-1.188-1.188-0.339-0.354-0.663-0.69-1-1-0.329-0.343-0.642-0.667-0.969-0.969-0.118-0.124-0.257-0.226-0.375-0.344-0.187-0.209-0.376-0.397-0.563-0.594-0.079-0.074-0.14-0.147-0.219-0.219-0.068-0.07-0.151-0.119-0.219-0.188-0.091-0.102-0.19-0.183-0.281-0.281-0.094-0.091-0.187-0.194-0.281-0.281-0.144-0.152-0.294-0.294-0.438-0.438-0.091-0.102-0.19-0.183-0.281-0.281-0.094-0.091-0.187-0.194-0.281-0.281-0.333-0.351-0.669-0.692-1-1-0.364-0.384-0.701-0.761-1.063-1.094-0.307-0.32-0.601-0.622-0.906-0.906-0.355-0.374-0.71-0.737-1.063-1.063-0.12-0.125-0.256-0.224-0.375-0.344-0.091-0.102-0.19-0.183-0.281-0.281-0.094-0.091-0.187-0.194-0.281-0.281-0.144-0.152-0.294-0.294-0.438-0.438-0.091-0.102-0.19-0.183-0.281-0.281-0.094-0.091-0.187-0.194-0.281-0.281-0.333-0.351-0.669-0.692-1-1-0.364-0.384-0.701-0.761-1.063-1.094-0.307-0.32-0.601-0.622-0.906-0.906-0.355-0.374-0.71-0.737-1.063-1.063-0.118-0.124-0.257-0.226-0.375-0.344-0.187-0.209-0.376-0.397-0.563-0.594-0.079-0.074-0.14-0.147-0.219-0.219-0.068-0.07-0.151-0.119-0.219-0.188-0.091-0.102-0.19-0.183-0.281-0.281-0.094-0.091-0.187-0.194-0.281-0.281-0.333-0.351-0.669-0.692-1-1-0.364-0.384-0.701-0.761-1.063-1.094-0.335-0.35-0.667-0.662-1-0.969-0.334-0.349-0.637-0.694-0.969-1-0.118-0.124-0.257-0.226-0.375-0.344-0.187-0.209-0.376-0.397-0.563-0.594-0.079-0.074-0.14-0.147-0.219-0.219-0.068-0.07-0.151-0.119-0.219-0.188-0.091-0.102-0.19-0.183-0.281-0.281-0.094-0.091-0.187-0.194-0.281-0.281-0.333-0.351-0.669-0.692-1-1-0.364-0.384-0.701-0.761-1.063-1.094-0.339-0.354-0.663-0.69-1-1-0.307-0.32-0.601-0.622-0.906-0.906-0.413-0.435-0.809-0.85-1.219-1.219-0.068-0.07-0.151-0.119-0.219-0.188-0.091-0.102-0.19-0.183-0.281-0.281-0.094-0.091-0.187-0.194-0.281-0.281-0.144-0.152-0.294-0.294-0.438-0.438-0.091-0.102-0.19-0.183-0.281-0.281-0.094-0.091-0.187-0.194-0.281-0.281-0.333-0.351-0.669-0.692-1-1-0.364-0.384-0.701-0.761-1.063-1.094-0.307-0.32-0.601-0.622-0.906-0.906-0.355-0.374-0.71-0.737-1.063-1.063-0.12-0.125-0.256-0.224-0.375-0.344-0.091-0.102-0.19-0.183-0.281-0.281-0.094-0.091-0.187-0.194-0.281-0.281-0.144-0.152-0.294-0.294-0.438-0.438-0.091-0.102-0.19-0.183-0.281-0.281-0.094-0.091-0.187-0.194-0.281-0.281-0.333-0.351-0.669-0.692-1-1-0.364-0.384-0.701-0.761-1.063-1.094-0.307-0.32-0.601-0.622-0.906-0.906-0.355-0.374-0.71-0.737-1.063-1.063-0.118-0.124-0.257-0.226-0.375-0.344-0.187-0.209-0.376-0.397-0.563-0.594-0.079-0.074-0.14-0.147-0.219-0.219-0.068-0.07-0.151-0.119-0.219-0.188-0.091-0.102-0.19-0.183-0.281-0.281-0.094-0.091-0.187-0.194-0.281-0.281-0.333-0.351-0.669-0.692-1-1-0.364-0.384-0.701-0.761-1.063-1.094-0.339-0.354-0.663-0.69-1-1-0.329-0.343-0.642-0.667-0.969-0.969-0.118-0.124-0.257-0.226-0.375-0.344-0.187-0.209-0.376-0.397-0.563-0.594-0.079-0.074-0.14-0.147-0.219-0.219-0.068-0.07-0.151-0.119-0.219-0.188-0.091-0.102-0.19-0.183-0.281-0.281-0.094-0.091-0.187-0.194-0.281-0.281-0.144-0.152-0.294-0.294-0.438-0.438-0.091-0.102-0.19-0.183-0.281-0.281-0.094-0.091-0.187-0.194-0.281-0.281-0.333-0.351-0.669-0.692-1-1-0.364-0.384-0.701-0.761-1.063-1.094-0.307-0.32-0.601-0.622-0.906-0.906-0.355-0.374-0.709-0.737-1.063-1.063-0.12-0.125-0.256-0.224-0.375-0.344-0.091-0.102-0.19-0.183-0.281-0.281-0.094-0.091-0.187-0.194-0.281-0.281-0.144-0.152-0.294-0.294-0.438-0.438-0.091-0.102-0.19-0.183-0.281-0.281-0.094-0.091-0.187-0.194-0.281-0.281-0.333-0.351-0.669-0.692-1-1-0.364-0.384-0.701-0.761-1.063-1.094-0.307-0.32-0.601-0.622-0.906-0.906-0.355-0.374-0.709-0.737-1.063-1.063-0.118-0.124-0.257-0.226-0.375-0.344-0.187-0.209-0.376-0.397-0.563-0.594-0.079-0.074-0.14-0.147-0.219-0.219-0.068-0.07-0.151-0.119-0.219-0.188-0.091-0.102-0.19-0.183-0.281-0.281-0.094-0.091-0.187-0.194-0.281-0.281-0.333-0.351-0.669-0.692-1-1-0.364-0.384-0.701-0.761-1.063-1.094-0.335-0.35-0.667-0.662-1-0.969-0.334-0.349-0.637-0.694-0.969-1-0.118-0.124-0.257-0.226-0.375-0.344-0.187-0.209-0.376-0.397-0.563-0.594-0.079-0.074-0.14-0.147-0.219-0.219-0.068-0.07-0.151-0.119-0.219-0.188-0.091-0.102-0.19-0.183-0.281-0.281-0.094-0.091-0.187-0.194-0.281-0.281-0.333-0.351-0.669-0.692-1-1-0.364-0.384-0.701-0.761-1.063-1.094-0.339-0.354-0.663-0.69-1-1-0.307-0.32-0.601-0.622-0.906-0.906-0.413-0.435-0.809-0.85-1.219-1.219-0.068-0.07-0.151-0.119-0.219-0.188-0.091-0.102-0.19-0.183-0.281-0.281-0.094-0.091-0.187-0.194-0.281-0.281-0.144-0.152-0.294-0.294-0.438-0.438-0.091-0.102-0.19-0.183-0.281-0.281-0.094-0.091-0.187-0.194-0.281-0.281-0.333-0.351-0.669-0.692-1-1-0.364-0.384-0.701-0.761-1.063-1.094-0.307-0.32-0.601-0.622-0.906-0.906-0.355-0.374-0.709-0.737-1.063-1.063-0.12-0.125-0.256-0.224-0.375-0.344-0.091-0.102-0.19-0.183-0.281-0.281-0.094-0.091-0.187-0.194-0.281-0.281-0.144-0.152-0.294-0.294-0.438-0.438-0.091-0.102-0.19-0.183-0.281-0.281-0.094-0.091-0.187-0.194-0.281-0.281-0.333-0.351-0.669-0.692-1-1-2.39-2.516-4.707-3.979-6.969-3.969"/>
  <path id="path62" fill-opacity=".067" d="m256 1c-140.83 0-255 114.17-255 255s114.17 255 255 255 255-114.17 255-255-114.17-255-255-255m8.827 44.931c120.9 0 218.9 98 218.9 218.9s-98 218.9-218.9 218.9-218.93-98-218.93-218.9 98.03-218.9 218.93-218.9"/>
  <g id="g64" fill-opacity=".129">
   <path id="path66" d="m256 4.433c-138.94 0-251.57 112.63-251.57 251.57s112.63 251.57 251.57 251.57 251.57-112.63 251.57-251.57-112.63-251.57-251.57-251.57m5.885 38.556c120.9 0 218.9 98 218.9 218.9s-98 218.9-218.9 218.9-218.93-98-218.93-218.9 98.03-218.9 218.93-218.9"/>
   <path id="path68" d="m256 8.356c-136.77 0-247.64 110.87-247.64 247.64s110.87 247.64 247.64 247.64 247.64-110.87 247.64-247.64-110.87-247.64-247.64-247.64m2.942 31.691c120.9 0 218.9 98 218.9 218.9s-98 218.9-218.9 218.9-218.93-98-218.93-218.9 98.03-218.9 218.93-218.9"/>
  </g>
  <g id="g70" fill="#fff">
   <path id="path72" stroke="#000" stroke-width="4.904" stroke-opacity=".31" d="m253.04 7.859c-135.42 0-245.19 109.78-245.19 245.19 0 135.42 109.78 245.19 245.19 245.19 135.42 0 245.19-109.78 245.19-245.19 0-135.42-109.78-245.19-245.19-245.19zm0 26.297c120.9 0 218.9 98 218.9 218.9s-98 218.9-218.9 218.9-218.93-98-218.93-218.9 98.03-218.9 218.93-218.9z"/>
   <path id="path74" d="m341.12 384.72c-12.567 9.217-68.988-35.453-84.57-35.38-15.585 0.07-71.6 45.24-84.25 36.14-12.649-9.104 12.4-76.57 7.518-91.37s-65.16-54.12-60.41-68.961c4.75-14.844 76.65-11.867 89.22-21.08 12.567-9.217 31.33-78.69 46.919-78.76 15.585-0.07 34.973 69.23 47.622 78.34 12.649 9.104 84.52 5.484 89.4 20.285 4.882 14.8-55.04 54.655-59.786 69.5-4.75 14.844 20.902 82.08 8.335 91.3"/>
  </g>
 </g>
</svg>
