<?xml version="1.0" encoding="UTF-8" standalone="no"?>
<!-- Created with Inkscape (http://www.inkscape.org/) -->

<svg
   xmlns:dc="http://purl.org/dc/elements/1.1/"
   xmlns:cc="http://creativecommons.org/ns#"
   xmlns:rdf="http://www.w3.org/1999/02/22-rdf-syntax-ns#"
   xmlns:svg="http://www.w3.org/2000/svg"
   xmlns="http://www.w3.org/2000/svg"
   xmlns:sodipodi="http://sodipodi.sourceforge.net/DTD/sodipodi-0.dtd"
   xmlns:inkscape="http://www.inkscape.org/namespaces/inkscape"
   width="512"
   height="512"
   viewBox="0 0 135.46666 135.46667"
   id="svg6957"
   version="1.1"
   inkscape:version="0.91+devel r13804 custom"
   sodipodi:docname="preferences-desktop-wallpaper.svg">
  <defs
     id="defs6959" />
  <sodipodi:namedview
     id="base"
     pagecolor="#ffffff"
     bordercolor="#666666"
     borderopacity="1.0"
     inkscape:pageopacity="0.0"
     inkscape:pageshadow="2"
     inkscape:zoom="0.35"
     inkscape:cx="51.428571"
     inkscape:cy="535.71429"
     inkscape:document-units="mm"
     inkscape:current-layer="layer1"
     showgrid="false"
     units="px"
     inkscape:window-width="1366"
     inkscape:window-height="709"
     inkscape:window-x="-2"
     inkscape:window-y="-3"
     inkscape:window-maximized="1" />
  <metadata
     id="metadata6962">
    <rdf:RDF>
      <cc:Work
         rdf:about="">
        <dc:format>image/svg+xml</dc:format>
        <dc:type
           rdf:resource="http://purl.org/dc/dcmitype/StillImage" />
        <dc:title></dc:title>
      </cc:Work>
    </rdf:RDF>
  </metadata>
  <g
     inkscape:label="Layer 1"
     inkscape:groupmode="layer"
     id="layer1"
     transform="translate(0,-161.53332)">
    <g
       id="g6997"
       transform="translate(-44.14762,20.713081)">
      <g
         id="g7"
         style="fill-rule:evenodd"
         transform="matrix(0.26458334,0,0,0.26458334,44.147613,140.82024)">
        <path
           d="m 471.95,253.05 c 0,120.9 -98.01,218.91 -218.91,218.91 -120.9,0 -218.91,-98.01 -218.91,-218.91 0,-120.9 98.01,-218.91 218.91,-218.91 120.9,0 218.91,98.01 218.91,218.91"
           id="path9"
           inkscape:connector-curvature="0"
           style="fill:#68af4c" />
        <path
           d="M 256,1 C 115.17,1 1,115.17 1,256 1,396.83 115.17,511 256,511 396.83,511 511,396.83 511,256 511,115.17 396.83,1 256,1 m 8.827,44.931 c 120.9,0 218.9,98 218.9,218.9 0,120.9 -98,218.9 -218.9,218.9 -120.9,0 -218.93,-98 -218.93,-218.9 0,-120.9 98.03,-218.9 218.93,-218.9"
           id="path11"
           inkscape:connector-curvature="0"
           style="fill-opacity:0.06700003" />
        <g
           id="g13"
           style="fill-opacity:0.12900002">
          <path
             d="M 256,4.43 C 117.06,4.43 4.43,117.06 4.43,256 4.43,394.94 117.06,507.57 256,507.57 394.94,507.57 507.57,394.94 507.57,256 507.57,117.06 394.94,4.43 256,4.43 m 5.885,38.556 c 120.9,0 218.9,98 218.9,218.9 0,120.9 -98,218.9 -218.9,218.9 -120.9,0 -218.93,-98 -218.93,-218.9 0,-120.9 98.03,-218.9 218.93,-218.9"
             id="path15"
             inkscape:connector-curvature="0" />
          <path
             d="M 256,8.36 C 119.23,8.36 8.36,119.23 8.36,256 8.36,392.77 119.23,503.64 256,503.64 392.77,503.64 503.64,392.77 503.64,256 503.64,119.23 392.77,8.36 256,8.36 m 2.942,31.691 c 120.9,0 218.9,98 218.9,218.9 0,120.9 -98,218.9 -218.9,218.9 -120.9,0 -218.93,-98 -218.93,-218.9 0,-120.9 98.03,-218.9 218.93,-218.9"
             id="path17"
             inkscape:connector-curvature="0" />
        </g>
        <path
           d="M 253.04,7.86 C 117.62,7.86 7.85,117.64 7.85,253.05 c 0,135.42 109.78,245.19 245.19,245.19 135.42,0 245.19,-109.78 245.19,-245.19 C 498.23,117.63 388.45,7.86 253.04,7.86 Z m 0,26.297 c 120.9,0 218.9,98 218.9,218.9 0,120.9 -98,218.9 -218.9,218.9 -120.9,0 -218.93,-98 -218.93,-218.9 0,-120.9 98.03,-218.9 218.93,-218.9 z"
           id="path19"
           inkscape:connector-curvature="0"
           style="fill:#ffffff;stroke:#000000;stroke-width:4.90399981;stroke-opacity:0.31000001" />
      </g>
      <path
         d="m 83.268907,172.83483 c -7.818703,0 -14.239347,7.68614 -14.239347,17.04446 l 0,37.35123 17.047105,17.04711 -0.0026,0 -17.044459,-17.04447 c 0,5.23187 2.006865,9.94093 5.142707,13.07571 l 24.087667,24.08767 c 4.13226,0.93345 8.43068,1.42875 12.84526,1.42875 32.05691,0 58.04429,-25.98208 58.04429,-58.04165 0,-4.41669 -0.49556,-8.71749 -1.42981,-12.85187 l -18.1266,-18.1266 c 0.007,0.007 0.0127,0.0135 0.0191,0.0201 l -0.0201,-0.0201 c -2.47333,-2.47333 -5.64833,-3.9677 -9.09558,-3.96822 l 0,-5.3e-4 -57.224088,0"
         id="path7189"
         style="opacity:0.25"
         inkscape:connector-curvature="0" />
      <g
         transform="matrix(0.26458334,0,0,0.26458334,-199.80617,89.731846)"
         id="g7191">
        <rect
           x="1016.1"
           y="314.07999"
           width="323.92001"
           height="270.01001"
           rx="55.580002"
           id="rect7193"
           style="fill:#ffffff" />
        <g
           transform="translate(922.03,193.08)"
           id="g7195">
          <rect
             x="119.04"
             y="146.31"
             width="273.91"
             height="219.37"
             rx="33.23"
             id="rect7197"
             style="fill:#4e8439" />
          <path
             d="m 306.13,158.91 0,144.38 c 0,14.925 -11.981,26.938 -26.906,26.938 l -144.44,0 0,0.5 c 0,12.388 9.956,22.375 22.344,22.375 l 197.75,0 c 12.388,0 22.344,-9.987 22.344,-22.375 l 0,-149.44 c 0,-12.388 -9.956,-22.375 -22.344,-22.375 l -48.75,0"
             id="path7199"
             inkscape:connector-curvature="0"
             style="fill:#ffffff" />
        </g>
        <path
           d="m 1189.9,507.39 c 12.388,0 22.344,-9.987 22.344,-22.375 l 0,-133.03 -155.44,155.41 133.09,0"
           id="path7201"
           inkscape:connector-curvature="0"
           style="fill:#ffffff" />
      </g>
    </g>
  </g>
</svg>
