<?xml version="1.0" encoding="UTF-8" standalone="no"?>
<!-- Created with Inkscape (http://www.inkscape.org/) -->
<svg id="svg2" xmlns:rdf="http://www.w3.org/1999/02/22-rdf-syntax-ns#" xmlns="http://www.w3.org/2000/svg" height="100%" viewBox="0 0 512 512" width="100%" version="1.1" xmlns:cc="http://creativecommons.org/ns#" xmlns:dc="http://purl.org/dc/elements/1.1/">
 <metadata id="metadata130">
  <rdf:RDF>
   <cc:Work rdf:about="">
    <dc:format>image/svg+xml</dc:format>
    <dc:type rdf:resource="http://purl.org/dc/dcmitype/StillImage"/>
   </cc:Work>
  </rdf:RDF>
 </metadata>
 <text id="text4" style="word-spacing:0;letter-spacing:0" font-size="129.23px" line-height="125%" y="231.36" x="729.64001" font-family="Gentium Book Basic">
  <tspan id="tspan6" y="231.36" x="729.64001"/>
 </text>
 <text id="text8" style="text-anchor:middle" font-size="46.954px" transform="scale(4.0128 .2492)" y="579.26001" x="378.91" font-family="Arial"/>
 <text id="text10" style="word-spacing:0;letter-spacing:0" font-size="129.23px" line-height="125%" y="151.36" x="1310.91" font-family="Gentium Book Basic">
  <tspan id="tspan12" y="151.36" x="1310.91"/>
 </text>
 <text id="text14" style="text-anchor:middle" font-size="46.954px" transform="scale(4.0128 .2492)" y="258.22" x="523.76001" font-family="Arial"/>
 <text id="text16" style="word-spacing:0;letter-spacing:0" font-size="129.23px" line-height="125%" y="-29.9" x="239.33" font-family="Gentium Book Basic">
  <tspan id="tspan18" y="-29.9" x="239.33"/>
 </text>
 <text id="text20" style="text-anchor:middle" font-size="46.954px" transform="scale(4.0128 .2492)" y="-469.13" x="256.72" font-family="Arial"/>
 <text id="text22" style="word-spacing:0;letter-spacing:0" font-size="129.23px" line-height="125%" y="-246.37" x="1337.38" font-family="Gentium Book Basic">
  <tspan id="tspan24" y="-246.37" x="1337.38"/>
 </text>
 <text id="text26" style="text-anchor:middle" font-size="46.954px" transform="scale(4.0128 .2492)" y="-1337.8" x="530.35999" font-family="Arial"/>
 <text id="text28" style="word-spacing:0;letter-spacing:0" font-size="129.23px" line-height="125%" y="-326.37" x="1918.65" font-family="Gentium Book Basic">
  <tspan id="tspan30" y="-326.37" x="1918.65"/>
 </text>
 <text id="text32" style="text-anchor:middle" font-size="46.954px" transform="scale(4.0128 .2492)" y="-1658.83" x="675.21002" font-family="Arial"/>
 <text id="text34" style="word-spacing:0;letter-spacing:0" font-size="129.23px" line-height="125%" y="-798.77002" x="1529.53" font-family="Gentium Book Basic">
  <tspan id="tspan36" y="-798.77002" x="1529.53"/>
 </text>
 <text id="text38" style="text-anchor:middle" font-size="46.954px" transform="scale(4.0128 .2492)" y="-3554.48" x="578.23999" font-family="Arial"/>
 <text id="text40" style="word-spacing:0;letter-spacing:0" font-size="129.23px" line-height="125%" y="-878.78003" x="2110.79" font-family="Gentium Book Basic">
  <tspan id="tspan42" y="-878.78003" x="2110.79"/>
 </text>
 <text id="text44" style="text-anchor:middle" font-size="46.954px" transform="scale(4.0128 .2492)" y="-3875.52" x="723.09003" font-family="Arial"/>
 <text id="text46" style="word-spacing:0;letter-spacing:0" font-size="208.33px" line-height="125%" y="535.94" x="277.98999" font-family="Gentium Book Basic">
  <tspan id="tspan48" y="535.94" x="277.98999"/>
 </text>
 <path id="path50" d="m471.95 253.05c0 120.9-98.01 218.9-218.9 218.9-120.9 0-218.9-98.01-218.9-218.9 0-120.9 98.01-218.9 218.9-218.9 120.9 0 218.9 98.01 218.9 218.9" fill-rule="evenodd" fill="#924565"/>
 <path id="path52" fill-opacity=".235" d="m136.71 136.71c-8.983 0-16.273 7.29-16.273 16.273v206.06c0 4.777 2.075 9.05 5.355 12.03 0.356 0.391 0.721 0.757 1.112 1.113 0.35 0.385 0.693 0.762 1.078 1.112 0.328 0.361 0.686 0.713 1.043 1.043 0.391 0.435 0.816 0.86 1.252 1.252 0.366 0.397 0.744 0.788 1.147 1.147 0.32 0.345 0.659 0.657 1.01 0.973 0.356 0.391 0.721 0.757 1.112 1.113 0.316 0.349 0.628 0.689 0.973 1.01 0.359 0.404 0.75 0.782 1.147 1.147 0.391 0.435 0.816 0.86 1.252 1.252 0.366 0.397 0.744 0.788 1.147 1.147 0.32 0.345 0.659 0.657 1.01 0.973 0.356 0.391 0.721 0.757 1.112 1.113 0.316 0.349 0.628 0.689 0.973 1.01 0.359 0.404 0.75 0.782 1.147 1.147 0.391 0.435 0.816 0.86 1.252 1.252 0.324 0.353 0.689 0.686 1.043 1.01 0.391 0.431 0.783 0.866 1.217 1.252 0.32 0.345 0.659 0.657 1.01 0.973 0.316 0.349 0.628 0.689 0.973 1.01 0.387 0.434 0.821 0.826 1.252 1.217 0.322 0.355 0.656 0.718 1.01 1.043 0.391 0.435 0.816 0.86 1.252 1.252 0.366 0.397 0.744 0.788 1.147 1.147 0.32 0.345 0.659 0.657 1.01 0.973 0.356 0.391 0.721 0.757 1.112 1.112 0.316 0.349 0.628 0.689 0.973 1.01 0.359 0.404 0.75 0.782 1.147 1.147 0.391 0.435 0.816 0.86 1.252 1.252 0.366 0.397 0.744 0.788 1.147 1.147 0.32 0.345 0.659 0.657 1.01 0.973 0.356 0.391 0.721 0.757 1.113 1.113 0.316 0.349 0.628 0.689 0.973 1.01 0.359 0.403 0.75 0.782 1.147 1.147 0.391 0.435 0.816 0.86 1.252 1.252 0.33 0.358 0.682 0.716 1.043 1.043 0.351 0.385 0.727 0.728 1.113 1.078 0.356 0.391 0.721 0.757 1.113 1.112 0.316 0.349 0.628 0.689 0.973 1.01 0.359 0.404 0.75 0.782 1.147 1.147 0.391 0.435 0.816 0.86 1.252 1.252 0.324 0.353 0.689 0.685 1.043 1.01 0.391 0.431 0.783 0.866 1.217 1.252 0.32 0.345 0.659 0.657 1.01 0.973 0.356 0.391 0.721 0.757 1.112 1.112 0.356 0.391 0.721 0.757 1.113 1.113 0.322 0.355 0.656 0.718 1.01 1.043 0.391 0.435 0.816 0.86 1.252 1.252 0.366 0.397 0.744 0.788 1.147 1.147 0.32 0.345 0.659 0.657 1.01 0.973 0.356 0.391 0.721 0.757 1.113 1.113 0.316 0.349 0.628 0.689 0.973 1.01 0.359 0.404 0.75 0.782 1.147 1.147 0.391 0.435 0.816 0.86 1.252 1.252 0.366 0.397 0.744 0.788 1.147 1.147 0.32 0.345 0.659 0.657 1.01 0.973 0.356 0.391 0.721 0.757 1.112 1.112 0.316 0.349 0.628 0.689 0.973 1.01 0.359 0.404 0.75 0.782 1.147 1.147 0.391 0.435 0.816 0.86 1.252 1.252 0.33 0.358 0.682 0.716 1.043 1.043 0.386 0.424 0.789 0.836 1.217 1.217 0.32 0.345 0.659 0.657 1.01 0.973 0.316 0.349 0.628 0.689 0.973 1.01 0.381 0.428 0.793 0.831 1.217 1.217 0.328 0.361 0.685 0.713 1.043 1.043 0.391 0.435 0.816 0.86 1.252 1.252 0.366 0.397 0.744 0.788 1.147 1.147 0.32 0.345 0.659 0.657 1.01 0.973 0.356 0.391 0.721 0.757 1.113 1.113 0.316 0.349 0.628 0.689 0.973 1.01 0.359 0.404 0.75 0.782 1.147 1.147 0.391 0.435 0.816 0.86 1.252 1.252 0.366 0.397 0.744 0.788 1.147 1.147 0.32 0.345 0.659 0.657 1.01 0.973 0.356 0.391 0.721 0.757 1.112 1.112 0.316 0.349 0.628 0.689 0.973 1.01 0.359 0.404 0.75 0.782 1.147 1.147 0.391 0.435 0.816 0.86 1.252 1.252 0.324 0.353 0.689 0.685 1.043 1.01 0.356 0.391 0.721 0.757 1.113 1.113 0.356 0.391 0.721 0.757 1.112 1.112 0.316 0.349 0.628 0.689 0.973 1.01 0.359 0.403 0.75 0.782 1.147 1.147 0.391 0.435 0.816 0.86 1.252 1.252 0.33 0.358 0.682 0.716 1.043 1.043 0.386 0.424 0.789 0.836 1.217 1.217 0.32 0.345 0.659 0.657 1.01 0.973 0.356 0.391 0.721 0.757 1.113 1.112 0.35 0.385 0.693 0.762 1.078 1.113 0.328 0.361 0.685 0.713 1.043 1.043 0.391 0.435 0.816 0.86 1.252 1.252 0.366 0.397 0.744 0.788 1.147 1.147 0.32 0.345 0.659 0.657 1.01 0.973 0.356 0.391 0.721 0.757 1.112 1.113 0.316 0.349 0.628 0.689 0.973 1.01 0.359 0.403 0.75 0.782 1.147 1.147 0.391 0.435 0.816 0.86 1.252 1.252 0.366 0.397 0.744 0.788 1.147 1.147 0.32 0.345 0.659 0.657 1.01 0.973 0.356 0.391 0.721 0.757 1.113 1.113 0.316 0.349 0.628 0.689 0.973 1.01 0.359 0.403 0.75 0.782 1.147 1.147 0.391 0.435 0.816 0.86 1.252 1.252 0.324 0.353 0.689 0.686 1.043 1.01 0.391 0.431 0.783 0.865 1.217 1.252 0.32 0.345 0.659 0.657 1.01 0.973 0.316 0.349 0.628 0.689 0.973 1.01 0.387 0.434 0.821 0.826 1.252 1.217 0.322 0.355 0.656 0.718 1.01 1.043 0.391 0.435 0.816 0.86 1.252 1.252 0.366 0.397 0.744 0.788 1.147 1.147 0.32 0.345 0.659 0.657 1.01 0.973 0.034 0.037 0.071 0.068 0.105 0.105 0.571 0.004 1.131 0.035 1.704 0.035 134.52 0 243.58-109.05 243.58-243.58 0-0.592-0.03-1.182-0.035-1.773-0.098-0.098-0.175-0.218-0.278-0.313-0.359-0.403-0.75-0.782-1.147-1.147-0.369-0.411-0.773-0.81-1.183-1.183-0.408-0.449-0.831-0.885-1.286-1.286-0.336-0.358-0.677-0.717-1.043-1.043-0.32-0.345-0.659-0.657-1.01-0.973-0.316-0.349-0.628-0.689-0.973-1.01-0.359-0.403-0.75-0.782-1.147-1.147-0.369-0.411-0.773-0.81-1.183-1.183-0.372-0.409-0.771-0.813-1.183-1.183-0.366-0.397-0.744-0.788-1.147-1.147-0.32-0.345-0.659-0.657-1.01-0.973-0.316-0.349-0.628-0.689-0.973-1.01-0.349-0.391-0.728-0.757-1.113-1.112-0.359-0.403-0.75-0.782-1.147-1.147-0.391-0.435-0.816-0.86-1.252-1.252-0.366-0.397-0.744-0.788-1.147-1.147-0.32-0.345-0.659-0.657-1.01-0.973-0.356-0.391-0.721-0.757-1.113-1.113-0.316-0.349-0.628-0.689-0.973-1.01-0.359-0.403-0.75-0.782-1.147-1.147-0.391-0.435-0.816-0.86-1.252-1.252-0.366-0.397-0.744-0.788-1.147-1.147-0.356-0.384-0.721-0.765-1.113-1.112-0.32-0.345-0.659-0.657-1.01-0.973-0.316-0.349-0.628-0.689-0.973-1.01-0.359-0.403-0.75-0.782-1.147-1.147-0.369-0.411-0.773-0.81-1.183-1.183-0.372-0.409-0.771-0.813-1.183-1.183-0.366-0.397-0.744-0.788-1.147-1.147-0.32-0.345-0.659-0.657-1.01-0.973-0.316-0.349-0.628-0.689-0.973-1.01-0.349-0.391-0.728-0.757-1.113-1.112-0.359-0.403-0.75-0.782-1.147-1.147-0.391-0.435-0.816-0.86-1.252-1.252-0.366-0.397-0.744-0.788-1.147-1.147-0.32-0.345-0.659-0.657-1.01-0.973-0.356-0.391-0.721-0.757-1.112-1.113-0.316-0.349-0.628-0.689-0.973-1.01-0.359-0.403-0.75-0.782-1.147-1.147-0.391-0.435-0.816-0.86-1.252-1.252-0.366-0.397-0.744-0.788-1.147-1.147-0.32-0.345-0.659-0.657-1.01-0.973-0.356-0.391-0.721-0.757-1.113-1.113-0.316-0.349-0.628-0.689-0.973-1.01-0.359-0.403-0.75-0.782-1.147-1.147-0.391-0.435-0.816-0.86-1.252-1.252-0.366-0.397-0.744-0.788-1.147-1.147-0.356-0.384-0.721-0.765-1.112-1.113-0.32-0.345-0.659-0.657-1.01-0.973-0.316-0.349-0.628-0.689-0.973-1.01-0.359-0.403-0.75-0.782-1.147-1.147-0.369-0.411-0.773-0.81-1.183-1.183-0.372-0.409-0.771-0.813-1.183-1.183-0.366-0.397-0.744-0.788-1.147-1.147-0.32-0.345-0.659-0.657-1.01-0.973-0.316-0.349-0.628-0.689-0.973-1.01-0.349-0.391-0.728-0.757-1.113-1.113-0.359-0.403-0.75-0.782-1.147-1.147-0.391-0.435-0.816-0.86-1.252-1.252-0.366-0.397-0.744-0.788-1.147-1.147-0.32-0.345-0.659-0.657-1.01-0.973-0.356-0.391-0.721-0.757-1.113-1.113-0.316-0.349-0.628-0.689-0.973-1.01-0.359-0.403-0.75-0.782-1.147-1.147-0.391-0.435-0.816-0.86-1.252-1.252-0.366-0.397-0.744-0.788-1.147-1.147-0.32-0.345-0.659-0.657-1.01-0.973-0.356-0.391-0.721-0.757-1.112-1.112-0.316-0.349-0.628-0.689-0.973-1.01-0.359-0.403-0.75-0.782-1.147-1.147-0.369-0.411-0.773-0.81-1.183-1.183-0.372-0.409-0.771-0.813-1.183-1.183-0.366-0.397-0.744-0.788-1.147-1.147-0.32-0.345-0.659-0.657-1.01-0.973-0.316-0.349-0.628-0.689-0.973-1.01-0.359-0.403-0.75-0.782-1.147-1.147-0.369-0.411-0.773-0.81-1.183-1.183-0.372-0.409-0.771-0.813-1.183-1.183-0.366-0.397-0.744-0.788-1.147-1.147-0.32-0.345-0.659-0.657-1.01-0.973-0.356-0.391-0.721-0.757-1.113-1.113-0.316-0.349-0.628-0.689-0.973-1.01-0.359-0.403-0.75-0.782-1.147-1.147-0.391-0.435-0.816-0.86-1.252-1.252-0.366-0.397-0.744-0.788-1.147-1.147-0.32-0.345-0.659-0.657-1.01-0.973-0.356-0.391-0.721-0.757-1.112-1.113-0.316-0.349-0.628-0.689-0.973-1.01-0.359-0.403-0.75-0.782-1.147-1.147-0.391-0.435-0.816-0.86-1.252-1.252-0.366-0.397-0.744-0.788-1.147-1.147-0.356-0.384-0.721-0.765-1.113-1.112-0.32-0.345-0.659-0.657-1.01-0.973-0.316-0.349-0.628-0.689-0.973-1.01-0.359-0.403-0.75-0.782-1.147-1.147-0.369-0.411-0.773-0.81-1.183-1.183-0.372-0.409-0.771-0.813-1.183-1.183-0.366-0.397-0.744-0.788-1.147-1.147-2.97-3.205-7.211-5.216-11.927-5.216h-238.61"/>
 <g id="g54" fill-rule="evenodd">
  <path id="path56" fill-opacity=".067" d="m256 1c-140.83 0-255 114.17-255 255s114.17 255 255 255 255-114.17 255-255-114.17-255-255-255m8.827 44.931c120.9 0 218.9 98 218.9 218.9s-98 218.9-218.9 218.9-218.93-98-218.93-218.9 98.03-218.9 218.93-218.9"/>
  <g id="g58" fill-opacity=".129">
   <path id="path60" d="m256 4.433c-138.94 0-251.57 112.63-251.57 251.57s112.63 251.57 251.57 251.57 251.57-112.63 251.57-251.57-112.63-251.57-251.57-251.57m5.885 38.556c120.9 0 218.9 98 218.9 218.9s-98 218.9-218.9 218.9-218.93-98-218.93-218.9 98.03-218.9 218.93-218.9"/>
   <path id="path62" d="m256 8.356c-136.77 0-247.64 110.87-247.64 247.64s110.87 247.64 247.64 247.64 247.64-110.87 247.64-247.64-110.87-247.64-247.64-247.64m2.942 31.691c120.9 0 218.9 98 218.9 218.9s-98 218.9-218.9 218.9-218.93-98-218.93-218.9 98.03-218.9 218.93-218.9"/>
  </g>
  <path id="path64" d="m253.04 7.859c-135.42 0-245.19 109.78-245.19 245.19 0 135.42 109.78 245.19 245.19 245.19 135.42 0 245.19-109.78 245.19-245.19 0-135.42-109.78-245.19-245.19-245.19zm0 26.297c120.9 0 218.9 98 218.9 218.9s-98 218.9-218.9 218.9-218.93-98-218.93-218.9 98.03-218.9 218.93-218.9z" stroke-opacity=".31" stroke="#000" stroke-width="4.904" fill="#fff"/>
 </g>
 <text id="text66" style="word-spacing:0;letter-spacing:0" font-size="129.23px" line-height="125%" y="231.36" x="729.64001" font-family="Gentium Book Basic">
  <tspan id="tspan68" y="231.36" x="729.64001"/>
 </text>
 <text id="text70" style="text-anchor:middle" font-size="46.954px" transform="scale(4.0128 .2492)" y="579.25" x="378.91" font-family="Arial"/>
 <text id="text72" style="word-spacing:0;letter-spacing:0" font-size="129.23px" line-height="125%" y="151.36" x="1310.91" font-family="Gentium Book Basic">
  <tspan id="tspan74" y="151.36" x="1310.91"/>
 </text>
 <text id="text76" style="text-anchor:middle" font-size="46.954px" transform="scale(4.0128 .2492)" y="258.22" x="523.76001" font-family="Arial"/>
 <text id="text78" style="word-spacing:0;letter-spacing:0" font-size="129.23px" line-height="125%" y="-29.900999" x="239.33" font-family="Gentium Book Basic">
  <tspan id="tspan80" y="-29.900999" x="239.33"/>
 </text>
 <text id="text82" style="text-anchor:middle" font-size="46.954px" transform="scale(4.0128 .2492)" y="-469.14001" x="256.72" font-family="Arial"/>
 <text id="text84" style="word-spacing:0;letter-spacing:0" font-size="129.23px" line-height="125%" y="-246.37" x="1337.38" font-family="Gentium Book Basic">
  <tspan id="tspan86" y="-246.37" x="1337.38"/>
 </text>
 <text id="text88" style="text-anchor:middle" font-size="46.954px" transform="scale(4.0128 .2492)" y="-1337.8" x="530.35999" font-family="Arial"/>
 <text id="text90" style="word-spacing:0;letter-spacing:0" font-size="129.23px" line-height="125%" y="-326.38" x="1918.65" font-family="Gentium Book Basic">
  <tspan id="tspan92" y="-326.38" x="1918.65"/>
 </text>
 <text id="text94" style="text-anchor:middle" font-size="46.954px" transform="scale(4.0128 .2492)" y="-1658.84" x="675.21002" font-family="Arial"/>
 <text id="text96" style="word-spacing:0;letter-spacing:0" font-size="129.23px" line-height="125%" y="-798.78003" x="1529.53" font-family="Gentium Book Basic">
  <tspan id="tspan98" y="-798.78003" x="1529.53"/>
 </text>
 <text id="text100" style="text-anchor:middle" font-size="46.954px" transform="scale(4.0128 .2492)" y="-3554.49" x="578.23999" font-family="Arial"/>
 <text id="text102" style="word-spacing:0;letter-spacing:0" font-size="129.23px" line-height="125%" y="-878.78003" x="2110.79" font-family="Gentium Book Basic">
  <tspan id="tspan104" y="-878.78003" x="2110.79"/>
 </text>
 <text id="text106" style="text-anchor:middle" font-size="46.954px" transform="scale(4.0128 .2492)" y="-3875.52" x="723.09003" font-family="Arial"/>
 <text id="text108" style="word-spacing:0;letter-spacing:0" font-size="208.33px" line-height="125%" y="535.94" x="277.98999" font-family="Gentium Book Basic">
  <tspan id="tspan110" y="535.94" x="277.98999"/>
 </text>
 <g id="g112" fill="#fff">
  <path id="path114" d="m136.72 136.72c-8.982 0-16.281 7.268-16.281 16.25v24.875h271.13v-24.87c0-8.985-7.265-16.25-16.25-16.25h-238.59m168.06 10.813c5.978 0 10.875 4.894 10.875 10.875s-4.897 10.813-10.875 10.813-10.813-4.832-10.813-10.813 4.834-10.875 10.813-10.875m29.844 0c5.978 0 10.844 4.894 10.844 10.875s-4.866 10.813-10.844 10.813-10.813-4.832-10.813-10.813 4.834-10.875 10.813-10.875m29.813 0c5.978 0 10.844 4.894 10.844 10.875s-4.866 10.813-10.844 10.813-10.844-4.832-10.844-10.813 4.866-10.875 10.844-10.875"/>
  <path id="path116" d="m120.44 192.24v166.76c0 8.982 7.305 16.287 16.287 16.287h238.58c8.985 0 16.254-7.308 16.254-16.287v-166.76h-271.13"/>
 </g>
 <g id="g118" stroke="#70354d" stroke-width="9.8" fill="#70354d">
  <path id="path120" d="m208.79 311.33-52.38-24.1v-7.868l52.38-27.29v13.205l-35.38 17.442 35.38 15.461v13.15"/>
  <path id="path122" d="m271.59 225.39-30.81 112.47h-14.42l30.81-112.47h14.42"/>
  <path id="path124" d="m303.21 298.18 35.38-15.461-35.38-17.442v-13.205l52.38 27.29v7.868l-52.38 24.1v-13.15"/>
 </g>
</svg>
