<?xml version="1.0" encoding="UTF-8" standalone="no"?>
<!-- Created with Inkscape (http://www.inkscape.org/) -->

<svg
   xmlns:dc="http://purl.org/dc/elements/1.1/"
   xmlns:cc="http://creativecommons.org/ns#"
   xmlns:rdf="http://www.w3.org/1999/02/22-rdf-syntax-ns#"
   xmlns:svg="http://www.w3.org/2000/svg"
   xmlns="http://www.w3.org/2000/svg"
   xmlns:sodipodi="http://sodipodi.sourceforge.net/DTD/sodipodi-0.dtd"
   xmlns:inkscape="http://www.inkscape.org/namespaces/inkscape"
   width="512"
   height="512"
   viewBox="0 0 135.46666 135.46667"
   id="svg8506"
   version="1.1"
   inkscape:version="0.91+devel r13804 custom"
   sodipodi:docname="preferences-desktop-display-color.svg">
  <defs
     id="defs8508" />
  <sodipodi:namedview
     id="base"
     pagecolor="#ffffff"
     bordercolor="#666666"
     borderopacity="1.0"
     inkscape:pageopacity="0.0"
     inkscape:pageshadow="2"
     inkscape:zoom="0.35"
     inkscape:cx="51.428571"
     inkscape:cy="535.71429"
     inkscape:document-units="mm"
     inkscape:current-layer="layer1"
     showgrid="false"
     units="px"
     inkscape:window-width="1366"
     inkscape:window-height="709"
     inkscape:window-x="-2"
     inkscape:window-y="-3"
     inkscape:window-maximized="1" />
  <metadata
     id="metadata8511">
    <rdf:RDF>
      <cc:Work
         rdf:about="">
        <dc:format>image/svg+xml</dc:format>
        <dc:type
           rdf:resource="http://purl.org/dc/dcmitype/StillImage" />
        <dc:title></dc:title>
      </cc:Work>
    </rdf:RDF>
  </metadata>
  <g
     inkscape:label="Layer 1"
     inkscape:groupmode="layer"
     id="layer1"
     transform="translate(0,-161.53332)">
    <g
       id="g8552"
       transform="translate(-46.415477,60.022601)">
      <g
         id="g4976"
         style="color:#000000"
         transform="matrix(0.26458334,0,0,0.26458334,46.41547,101.51072)">
        <path
           id="path4978"
           style="fill:#924565;fill-rule:evenodd"
           d="m 253.06,33.656 c -121.16,0 -219.41,98.24 -219.41,219.41 0,121.16 98.24,219.38 219.41,219.38 121.16,0 219.38,-98.2 219.38,-219.37 0,-121.16 -98.2,-219.41 -219.37,-219.41"
           inkscape:connector-curvature="0" />
        <path
           id="path4980"
           style="opacity:0.25"
           d="m 147.86,120.99 c -29.551,0 -53.818,29.05 -53.818,64.42 l -0.002,0 0,141.17 64.43,64.43 -0.01,0 -64.42,-64.42 c 0,19.774 7.585,37.572 19.437,49.42 l 91.04,91.04 c 15.618,3.528 31.864,5.4 48.549,5.4 121.16,0 219.38,-98.2 219.38,-219.37 0,-16.693 -1.873,-32.948 -5.404,-48.574 l -68.51,-68.51 c 0.025,0.025 0.048,0.051 0.072,0.076 l -0.076,-0.076 C 389.18,126.648 377.18,121 364.151,120.998 l -0.002,-0.002 -216.28,0"
           inkscape:connector-curvature="0" />
        <path
           id="path4982"
           style="fill:#ffffff"
           d="m 147.86,120.99 c -29.551,0 -53.819,29.05 -53.819,64.42 l 0,141.17 c 0,35.37 24.268,64.42 53.819,64.42 l 216.28,0 c 29.551,0 53.819,-29.05 53.819,-64.42 l 0,-141.17 c 0,-35.37 -24.268,-64.42 -53.819,-64.42 l -216.28,0"
           inkscape:connector-curvature="0" />
      </g>
      <g
         id="g5014"
         style="fill-rule:evenodd"
         transform="matrix(0.26458334,0,0,0.26458334,46.41547,101.51072)">
        <path
           id="path5016"
           style="fill-opacity:0.06700003"
           d="M 256,1 C 115.17,1 1,115.17 1,256 1,396.83 115.17,511 256,511 396.83,511 511,396.83 511,256 511,115.17 396.83,1 256,1 m 8.827,44.931 c 120.9,0 218.9,98 218.9,218.9 0,120.9 -98,218.9 -218.9,218.9 -120.9,0 -218.93,-98 -218.93,-218.9 0,-120.9 98.03,-218.9 218.93,-218.9"
           inkscape:connector-curvature="0" />
        <g
           id="g5018"
           style="fill-opacity:0.12900002">
          <path
             id="path5020"
             d="m 256,4.433 c -138.94,0 -251.57,112.63 -251.57,251.57 0,138.94 112.63,251.57 251.57,251.57 138.94,0 251.57,-112.63 251.57,-251.57 C 507.57,117.063 394.94,4.433 256,4.433 m 5.885,38.556 c 120.9,0 218.9,98 218.9,218.9 0,120.9 -98,218.9 -218.9,218.9 -120.9,0 -218.93,-98 -218.93,-218.9 0,-120.9 98.03,-218.9 218.93,-218.9"
             inkscape:connector-curvature="0" />
          <path
             id="path5022"
             d="m 256,8.356 c -136.77,0 -247.64,110.87 -247.64,247.64 0,136.77 110.87,247.64 247.64,247.64 136.77,0 247.64,-110.87 247.64,-247.64 C 503.64,119.226 392.77,8.356 256,8.356 m 2.942,31.691 c 120.9,0 218.9,98 218.9,218.9 0,120.9 -98,218.9 -218.9,218.9 -120.9,0 -218.93,-98 -218.93,-218.9 0,-120.9 98.03,-218.9 218.93,-218.9"
             inkscape:connector-curvature="0" />
        </g>
        <path
           id="path5024"
           style="fill:#ffffff;stroke:#000000;stroke-width:4.90399981;stroke-opacity:0.31000001"
           d="m 253.04,7.859 c -135.42,0 -245.19,109.78 -245.19,245.19 0,135.42 109.78,245.19 245.19,245.19 135.42,0 245.19,-109.78 245.19,-245.19 0,-135.42 -109.78,-245.19 -245.19,-245.19 z m 0,26.297 c 120.9,0 218.9,98 218.9,218.9 0,120.9 -98,218.9 -218.9,218.9 -120.9,0 -218.93,-98 -218.93,-218.9 0,-120.9 98.03,-218.9 218.93,-218.9 z"
           inkscape:connector-curvature="0" />
      </g>
      <g
         id="g5137"
         style="color:#000000"
         transform="matrix(0.26458334,0,0,0.26458334,46.41547,101.51072)">
        <path
           id="path5139"
           style="fill:#4ba077"
           d="m 146.92,142.52 218.47,0 c 17.792,0 32.01,17.619 32.01,39.811 l 0,147.56 c 0,22.19 -14.244,39.99 -32.01,39.99 l -218.47,0 c -17.761,0 -32.01,-17.798 -32.01,-39.99 l 0,-147.56 c 0,-22.19 14.216,-39.811 32.01,-39.811"
           inkscape:connector-curvature="0" />
        <path
           id="path5141"
           style="fill:#f38725"
           d="m 256.5,142.53 0,112.97 -140.87,0 0,-73.16 c 0,-22.19 14.208,-39.813 32,-39.813 l 108.88,0"
           inkscape:connector-curvature="0" />
        <path
           id="path5143"
           style="fill:#88687d"
           d="m 256.5,142.53 0,112.97 140.88,0 0,-73.16 c 0,-22.19 -14.208,-39.813 -32,-39.813 l -108.87,0"
           inkscape:connector-curvature="0" />
        <path
           id="path5145"
           style="fill:#68af4c"
           d="m 256.5,368.47 0,-112.97 140.88,0 0,73.16 c 0,22.19 -14.208,39.813 -32,39.813 l -108.87,0"
           inkscape:connector-curvature="0" />
        <path
           id="path5147"
           style="fill:#d23638"
           d="m 256.5,368.47 0,-112.97 -140.87,0 0,73.16 c 0,22.19 14.208,39.813 32,39.813 l 108.88,0"
           inkscape:connector-curvature="0" />
      </g>
      <path
         id="path5149"
         style="fill:#ffffff;fill-opacity:0.07900002"
         d="m 85.288055,139.22178 c -4.707202,0 -8.471958,4.66223 -8.471958,10.53386 l 0,39.04192 c 0,5.8711 3.772958,10.58174 8.471958,10.58174 l 13.65647,0 C 116.79861,186.03636 111.83502,164.83001 125.4743,139.22099 l -40.184922,0"
         inkscape:connector-curvature="0" />
    </g>
  </g>
</svg>
