<?xml version="1.0" encoding="UTF-8" standalone="no"?>
<!-- Created with Inkscape (http://www.inkscape.org/) -->
<svg id="svg2" xmlns:rdf="http://www.w3.org/1999/02/22-rdf-syntax-ns#" xmlns="http://www.w3.org/2000/svg" height="100%" viewBox="0 0 512 512" width="100%" version="1.1" xmlns:cc="http://creativecommons.org/ns#" xmlns:dc="http://purl.org/dc/elements/1.1/">
 <metadata id="metadata78">
  <rdf:RDF>
   <cc:Work rdf:about="">
    <dc:format>image/svg+xml</dc:format>
    <dc:type rdf:resource="http://purl.org/dc/dcmitype/StillImage"/>
   </cc:Work>
  </rdf:RDF>
 </metadata>
 <path id="path4" d="m471.95 253.05c0 120.9-98.01 218.9-218.9 218.9-120.9 0-218.9-98.01-218.9-218.9 0-120.9 98.01-218.9 218.9-218.9 120.9 0 218.9 98.01 218.9 218.9" fill-rule="evenodd" fill="#313032"/>
 <g id="g6" transform="translate(-897.65)" fill="#fff">
  <path id="path8" d="m1320.6 78.53v4h4.156c-1.37-1.351-2.755-2.681-4.156-4m0 29.03v28.594h40.781v-7.531c-4.477-7.285-9.335-14.312-14.531-21.06h-26.25m0 53.625v28.656h40.781v-28.656h-40.781m0 53.688v28.594h40.781v-28.594h-40.781m0 53.625v28.625h40.781v-28.625h-40.781m0 53.656v28.625h40.781v-28.625h-40.781m0 53.656v28.625h26.25c5.196-6.751 10.05-13.778 14.531-21.06v-7.563h-40.781m0 53.656v4c1.402-1.319 2.786-2.649 4.156-4h-4.156"/>
  <path id="path10" d="m986.74 78.53c-1.402 1.319-2.786 2.649-4.156 4h4.156v-4m-26.25 29.03c-5.196 6.751-10.05 13.778-14.531 21.06v7.531h40.781v-28.594h-26.25m-14.531 53.625v28.656h40.781v-28.656h-40.781m0 53.688v28.594h40.78v-28.59h-40.781m0 53.625v28.625h40.781v-28.625h-40.781m0 53.656v28.625h40.781v-28.625h-40.781m0 53.656v7.563c4.477 7.285 9.335 14.312 14.531 21.06h26.25v-28.625h-40.781m36.625 53.656c1.37 1.351 2.755 2.681 4.156 4v-4h-4.156"/>
 </g>
 <g id="g12" fill-rule="evenodd">
  <path id="path14" fill-opacity=".235" d="m256 144.06c-61.819 0-111.94 50.12-111.94 111.94 0 31.16 12.732 59.36 33.28 79.66 0.479 0.485 0.981 0.961 1.469 1.438l0.031 0.031c0.31 0.302 0.624 0.608 0.938 0.906 0.01 0.011 0.021 0.021 0.031 0.031 0.016 0.016 0.015 0.046 0.031 0.063 0.302 0.294 0.601 0.584 0.906 0.875 0.522 0.536 1.03 1.099 1.563 1.625 0.33 0.334 0.666 0.67 1 1 0.479 0.485 0.981 0.961 1.469 1.438l0.031 0.031c0.31 0.302 0.624 0.608 0.938 0.906 0.01 0.011 0.021 0.021 0.031 0.031 0.01 0.011 0.021 0.021 0.031 0.031 0.006 0.006-0.006 0.025 0 0.031 0.031 0.032 0.063 0.062 0.094 0.094 0.168 0.167 0.331 0.334 0.5 0.5 0.106 0.102 0.206 0.211 0.313 0.313l0.094 0.094c0.048 0.046 0.108 0.079 0.156 0.125 0.255 0.247 0.493 0.505 0.75 0.75 0.522 0.536 1.03 1.099 1.563 1.625 0.33 0.334 0.666 0.67 1 1 0.479 0.485 0.981 0.961 1.469 1.438l0.031 0.031c0.31 0.302 0.624 0.608 0.938 0.906 0.01 0.011 0.021 0.021 0.031 0.031 0.016 0.016 0.015 0.046 0.031 0.063 0.302 0.294 0.601 0.584 0.906 0.875 0.522 0.536 1.03 1.099 1.563 1.625 0.33 0.334 0.666 0.67 1 1 0.479 0.485 0.981 0.961 1.469 1.438l0.031 0.031c0.31 0.302 0.624 0.608 0.938 0.906 0.01 0.011 0.021 0.021 0.031 0.031 0.016 0.016 0.015 0.046 0.031 0.063 0.302 0.294 0.601 0.584 0.906 0.875 0.522 0.536 1.03 1.099 1.563 1.625 0.33 0.334 0.666 0.67 1 1 0.479 0.485 0.981 0.961 1.469 1.438l0.031 0.031c0.31 0.302 0.624 0.608 0.938 0.906 0.01 0.011 0.021 0.021 0.031 0.031 0.016 0.016 0.015 0.046 0.031 0.063 0.302 0.294 0.601 0.584 0.906 0.875 0.522 0.536 1.03 1.099 1.563 1.625 0.33 0.334 0.666 0.67 1 1 0.33 0.334 0.666 0.67 1 1 0.492 0.499 0.998 0.979 1.5 1.469 0.031 0.032 0.063 0.062 0.094 0.094 0.276 0.268 0.534 0.547 0.813 0.813l0.094 0.094c0.048 0.046 0.108 0.079 0.156 0.125 0.255 0.247 0.493 0.505 0.75 0.75 0.522 0.536 1.03 1.099 1.563 1.625 0.33 0.334 0.666 0.67 1 1 0.479 0.485 0.981 0.961 1.469 1.438l0.031 0.031c0.31 0.302 0.624 0.608 0.938 0.906 0.01 0.011 0.021 0.021 0.031 0.031 0.016 0.016 0.015 0.046 0.031 0.063 0.302 0.294 0.601 0.584 0.906 0.875 0.522 0.536 1.03 1.099 1.563 1.625 0.33 0.334 0.666 0.67 1 1 0.479 0.485 0.981 0.961 1.469 1.438l0.031 0.031c0.31 0.302 0.624 0.608 0.938 0.906 0.01 0.011 0.021 0.021 0.031 0.031 0.016 0.016 0.015 0.046 0.031 0.063 0.302 0.294 0.601 0.584 0.906 0.875 0.522 0.536 1.03 1.099 1.563 1.625 0.33 0.334 0.666 0.67 1 1 0.479 0.485 0.981 0.961 1.469 1.438l0.031 0.031c0.31 0.302 0.624 0.608 0.938 0.906 0.01 0.011 0.021 0.021 0.031 0.031 0.01 0.011 0.021 0.021 0.031 0.031 0.006 0.006-0.006 0.025 0 0.031 0.031 0.032 0.063 0.062 0.094 0.094 0.168 0.167 0.331 0.334 0.5 0.5 0.106 0.102 0.206 0.211 0.313 0.313l0.094 0.094c0.489 0.502 0.97 1.01 1.469 1.5 0.33 0.334 0.666 0.67 1 1 0.33 0.334 0.666 0.67 1 1 0.479 0.485 0.981 0.961 1.469 1.438l0.031 0.031c0.31 0.302 0.624 0.608 0.938 0.906 0.01 0.011 0.021 0.021 0.031 0.031 0.016 0.016 0.015 0.046 0.031 0.063 0.302 0.294 0.601 0.584 0.906 0.875 0.522 0.536 1.03 1.099 1.563 1.625 0.33 0.334 0.666 0.67 1 1 0.479 0.485 0.981 0.961 1.469 1.438l0.031 0.031c0.31 0.302 0.624 0.608 0.938 0.906 0.01 0.011 0.021 0.021 0.031 0.031 0.016 0.016 0.015 0.046 0.031 0.063 0.302 0.294 0.601 0.584 0.906 0.875 0.522 0.536 1.03 1.099 1.563 1.625 0.33 0.334 0.666 0.67 1 1 0.479 0.485 0.981 0.961 1.469 1.438l0.031 0.031c0.31 0.302 0.624 0.608 0.938 0.906 0.01 0.011 0.021 0.021 0.031 0.031 0.016 0.016 0.015 0.046 0.031 0.063 0.302 0.294 0.601 0.584 0.906 0.875 0.522 0.536 1.03 1.099 1.563 1.625 0.33 0.334 0.666 0.67 1 1 0.479 0.485 0.981 0.961 1.469 1.438l0.031 0.031c0.31 0.302 0.624 0.608 0.938 0.906 0.01 0.011 0.021 0.021 0.031 0.031 0.01 0.011 0.021 0.021 0.031 0.031 0.006 0.006-0.006 0.025 0 0.031 0.031 0.032 0.063 0.062 0.094 0.094 0.168 0.167 0.331 0.334 0.5 0.5 0.106 0.102 0.206 0.211 0.313 0.313l0.094 0.094c0.048 0.046 0.108 0.079 0.156 0.125 0.255 0.247 0.493 0.505 0.75 0.75 0.522 0.536 1.03 1.099 1.563 1.625 0.33 0.334 0.666 0.67 1 1 0.479 0.485 0.981 0.961 1.469 1.438l0.031 0.031c0.31 0.302 0.624 0.608 0.938 0.906 0.01 0.011 0.021 0.021 0.031 0.031 0.016 0.016 0.015 0.046 0.031 0.063 0.302 0.294 0.601 0.584 0.906 0.875 0.522 0.536 1.03 1.099 1.563 1.625 0.33 0.334 0.666 0.67 1 1 0.479 0.485 0.981 0.961 1.469 1.438l0.031 0.031c0.31 0.302 0.624 0.608 0.938 0.906 0.01 0.011 0.021 0.021 0.031 0.031 0.016 0.016 0.015 0.046 0.031 0.063 0.302 0.294 0.601 0.584 0.906 0.875 0.522 0.536 1.03 1.099 1.563 1.625 0.33 0.334 0.666 0.67 1 1 0.479 0.485 0.981 0.961 1.469 1.438l0.031 0.031c0.31 0.302 0.624 0.608 0.938 0.906 0.01 0.011 0.021 0.021 0.031 0.031 0.01 0.011 0.021 0.021 0.031 0.031 0.006 0.006-0.006 0.025 0 0.031 0.031 0.032 0.063 0.062 0.094 0.094 0.168 0.167 0.331 0.334 0.5 0.5 0.106 0.102 0.206 0.211 0.313 0.313l0.094 0.094c0.489 0.502 0.97 1.01 1.469 1.5 0.33 0.334 0.666 0.67 1 1 0.33 0.334 0.666 0.67 1 1 0.479 0.485 0.981 0.961 1.469 1.438l0.031 0.031 0.031 0.031c0.02 0.021 0.042 0.041 0.063 0.063 0.279 0.271 0.562 0.544 0.844 0.813 0.026 0.026 0.036 0.068 0.063 0.094 0.302 0.294 0.601 0.584 0.906 0.875 0.522 0.536 1.03 1.099 1.563 1.625 0.33 0.334 0.666 0.67 1 1 0.479 0.485 0.981 0.961 1.469 1.438l0.031 0.031c0.31 0.302 0.624 0.608 0.938 0.906 0.01 0.011 0.021 0.021 0.031 0.031 0.016 0.016 0.015 0.046 0.031 0.063 0.302 0.294 0.601 0.584 0.906 0.875 0.522 0.536 1.03 1.099 1.563 1.625 0.33 0.334 0.666 0.67 1 1 0.479 0.485 0.981 0.961 1.469 1.438l0.031 0.031c0.31 0.302 0.624 0.608 0.938 0.906 0.01 0.011 0.021 0.021 0.031 0.031 0.016 0.016 0.015 0.046 0.031 0.063 0.302 0.294 0.601 0.584 0.906 0.875 0.522 0.536 1.03 1.099 1.563 1.625 0.33 0.334 0.666 0.67 1 1 0.479 0.485 0.981 0.961 1.469 1.438l0.031 0.031c0.31 0.302 0.624 0.608 0.938 0.906 0.01 0.011 0.021 0.021 0.031 0.031 0.01 0.011 0.021 0.021 0.031 0.031 0.006 0.006-0.006 0.025 0 0.031 0.031 0.032 0.063 0.062 0.094 0.094 0.168 0.167 0.331 0.334 0.5 0.5 0.106 0.102 0.206 0.211 0.313 0.313l0.094 0.094c0.048 0.046 0.108 0.079 0.156 0.125 0.255 0.247 0.493 0.505 0.75 0.75 0.522 0.536 1.03 1.099 1.563 1.625 0.33 0.334 0.666 0.67 1 1 0.479 0.485 0.981 0.961 1.469 1.438l0.031 0.031c0.31 0.302 0.624 0.608 0.938 0.906 0.01 0.011 0.021 0.021 0.031 0.031 0.016 0.016 0.015 0.046 0.031 0.063 0.302 0.294 0.601 0.584 0.906 0.875 0.281 0.289 0.564 0.58 0.844 0.875 77.57-19.652 138.63-80.71 158.28-158.28-0.254-0.247-0.498-0.504-0.75-0.75-0.036-0.037-0.089-0.057-0.125-0.094-0.102-0.107-0.21-0.206-0.313-0.313-0.09-0.087-0.16-0.195-0.25-0.281-0.106-0.104-0.207-0.209-0.313-0.313-0.026-0.026-0.068-0.036-0.094-0.063-0.192-0.202-0.4-0.393-0.594-0.594-0.011-0.01-0.021-0.021-0.031-0.031-0.064-0.061-0.123-0.126-0.188-0.188-0.037-0.036-0.057-0.089-0.094-0.125-0.487-0.499-0.973-1.01-1.469-1.5-0.33-0.334-0.666-0.67-1-1-0.49-0.496-1-0.982-1.5-1.469-0.036-0.037-0.089-0.057-0.125-0.094-0.245-0.257-0.503-0.495-0.75-0.75-0.021-0.02-0.041-0.042-0.063-0.063-0.057-0.059-0.099-0.129-0.156-0.188-0.263-0.276-0.546-0.539-0.813-0.813-0.032-0.031-0.062-0.063-0.094-0.094-0.026-0.026-0.068-0.036-0.094-0.063-0.192-0.202-0.4-0.393-0.594-0.594-0.011-0.01-0.021-0.021-0.031-0.031-0.064-0.061-0.123-0.126-0.188-0.188-0.037-0.036-0.057-0.089-0.094-0.125-0.487-0.499-0.973-1.01-1.469-1.5-0.33-0.334-0.666-0.67-1-1-0.49-0.496-1-0.982-1.5-1.469-0.036-0.037-0.089-0.057-0.125-0.094-0.102-0.107-0.21-0.206-0.313-0.313-0.09-0.087-0.16-0.195-0.25-0.281-0.106-0.104-0.207-0.209-0.313-0.313-0.026-0.026-0.068-0.036-0.094-0.063-0.192-0.202-0.4-0.393-0.594-0.594-0.011-0.01-0.021-0.021-0.031-0.031-0.064-0.061-0.123-0.126-0.188-0.188-0.037-0.036-0.057-0.089-0.094-0.125-0.487-0.499-0.973-1.01-1.469-1.5-0.33-0.334-0.666-0.67-1-1-0.49-0.496-1-0.982-1.5-1.469-0.036-0.037-0.089-0.057-0.125-0.094-0.102-0.107-0.21-0.206-0.313-0.313-0.09-0.087-0.16-0.195-0.25-0.281-0.106-0.104-0.207-0.209-0.313-0.313-0.026-0.026-0.068-0.036-0.094-0.063-0.192-0.202-0.4-0.393-0.594-0.594-0.011-0.01-0.021-0.021-0.031-0.031-0.064-0.061-0.123-0.126-0.188-0.188-0.037-0.036-0.057-0.089-0.094-0.125-0.487-0.499-0.973-1.01-1.469-1.5-0.33-0.334-0.666-0.67-1-1-0.49-0.496-1-0.982-1.5-1.469-0.036-0.037-0.089-0.057-0.125-0.094-0.245-0.257-0.503-0.495-0.75-0.75-0.021-0.02-0.041-0.042-0.063-0.063-0.057-0.059-0.099-0.129-0.156-0.188-0.265-0.278-0.544-0.537-0.813-0.813-0.032-0.031-0.062-0.063-0.094-0.094-0.489-0.502-0.97-1.01-1.469-1.5-0.33-0.334-0.666-0.67-1-1-0.33-0.334-0.666-0.67-1-1-0.49-0.496-1-0.982-1.5-1.469-0.031-0.032-0.063-0.062-0.094-0.094-0.319-0.335-0.677-0.638-1-0.969-0.192-0.202-0.4-0.393-0.594-0.594-0.011-0.01-0.021-0.021-0.031-0.031-0.064-0.061-0.123-0.126-0.188-0.188-0.037-0.036-0.057-0.089-0.094-0.125-0.487-0.499-0.973-1.01-1.469-1.5-0.33-0.334-0.666-0.67-1-1-0.49-0.496-1-0.982-1.5-1.469-0.036-0.037-0.089-0.057-0.125-0.094-0.102-0.107-0.21-0.206-0.313-0.313-0.09-0.087-0.16-0.195-0.25-0.281-0.106-0.104-0.207-0.209-0.313-0.313-0.026-0.026-0.068-0.036-0.094-0.063-0.192-0.202-0.4-0.393-0.594-0.594-0.011-0.01-0.021-0.021-0.031-0.031-0.064-0.061-0.123-0.126-0.188-0.188-0.037-0.036-0.057-0.089-0.094-0.125-0.487-0.499-0.973-1.01-1.469-1.5-0.33-0.334-0.666-0.67-1-1-0.49-0.496-1-0.982-1.5-1.469-0.036-0.037-0.089-0.057-0.125-0.094-0.102-0.107-0.21-0.206-0.313-0.313-0.09-0.087-0.16-0.195-0.25-0.281-0.106-0.104-0.207-0.209-0.313-0.313-0.026-0.026-0.068-0.036-0.094-0.063-0.192-0.202-0.4-0.393-0.594-0.594-0.011-0.01-0.021-0.021-0.031-0.031-0.064-0.061-0.123-0.126-0.188-0.188-0.037-0.036-0.057-0.089-0.094-0.125-0.487-0.499-0.973-1.01-1.469-1.5-0.33-0.334-0.666-0.67-1-1-0.49-0.496-1-0.982-1.5-1.469-0.036-0.037-0.089-0.057-0.125-0.094-0.245-0.257-0.503-0.495-0.75-0.75-0.021-0.02-0.041-0.042-0.063-0.063-0.057-0.059-0.099-0.129-0.156-0.188-0.263-0.276-0.546-0.539-0.813-0.813-0.032-0.031-0.062-0.063-0.094-0.094-0.026-0.026-0.068-0.036-0.094-0.063-0.192-0.202-0.4-0.393-0.594-0.594-0.011-0.01-0.021-0.021-0.031-0.031-0.064-0.061-0.123-0.126-0.188-0.188-0.037-0.036-0.057-0.089-0.094-0.125-0.487-0.499-0.973-1.01-1.469-1.5-0.33-0.334-0.666-0.67-1-1-0.49-0.496-1-0.982-1.5-1.469-0.036-0.037-0.089-0.057-0.125-0.094-0.102-0.107-0.21-0.206-0.313-0.313-0.09-0.087-0.16-0.195-0.25-0.281-0.106-0.104-0.207-0.209-0.313-0.313-0.026-0.026-0.068-0.036-0.094-0.063-0.192-0.202-0.4-0.393-0.594-0.594-0.011-0.01-0.021-0.021-0.031-0.031-0.064-0.061-0.123-0.126-0.188-0.188-0.037-0.036-0.057-0.089-0.094-0.125-0.487-0.499-0.973-1.01-1.469-1.5-0.33-0.334-0.666-0.67-1-1-0.49-0.496-1-0.982-1.5-1.469-0.036-0.037-0.089-0.057-0.125-0.094-0.102-0.107-0.21-0.206-0.313-0.313-0.09-0.087-0.16-0.195-0.25-0.281-0.106-0.104-0.207-0.209-0.313-0.313-0.026-0.026-0.068-0.036-0.094-0.063-0.192-0.202-0.4-0.393-0.594-0.594-0.011-0.01-0.021-0.021-0.031-0.031-0.064-0.061-0.123-0.126-0.188-0.188-0.037-0.036-0.057-0.089-0.094-0.125-0.487-0.499-0.973-1.01-1.469-1.5-0.33-0.334-0.666-0.67-1-1-0.49-0.496-1-0.982-1.5-1.469-0.036-0.037-0.089-0.057-0.125-0.094-0.245-0.257-0.503-0.495-0.75-0.75-0.021-0.02-0.041-0.042-0.063-0.063-0.057-0.059-0.099-0.129-0.156-0.188-0.265-0.278-0.544-0.537-0.813-0.813-0.032-0.031-0.062-0.063-0.094-0.094-0.489-0.502-0.97-1.01-1.469-1.5-0.33-0.334-0.666-0.67-1-1-0.33-0.334-0.666-0.67-1-1-0.492-0.499-0.998-0.979-1.5-1.469-0.031-0.032-0.063-0.062-0.094-0.094-0.263-0.276-0.546-0.539-0.813-0.813-0.032-0.031-0.062-0.063-0.094-0.094-0.026-0.026-0.068-0.036-0.094-0.063-0.192-0.202-0.4-0.393-0.594-0.594-0.011-0.01-0.021-0.021-0.031-0.031-0.064-0.061-0.123-0.126-0.188-0.188-0.037-0.036-0.057-0.089-0.094-0.125-0.487-0.499-0.973-1.01-1.469-1.5-0.33-0.334-0.666-0.67-1-1-0.49-0.496-1-0.982-1.5-1.469-0.036-0.037-0.089-0.057-0.125-0.094-0.102-0.107-0.21-0.206-0.313-0.313-0.09-0.087-0.16-0.195-0.25-0.281-0.106-0.104-0.207-0.209-0.313-0.313-0.026-0.026-0.068-0.036-0.094-0.063-0.192-0.202-0.4-0.393-0.594-0.594-0.011-0.01-0.021-0.021-0.031-0.031-0.064-0.061-0.123-0.126-0.188-0.188-0.037-0.036-0.057-0.089-0.094-0.125-0.487-0.499-0.973-1.01-1.469-1.5-0.33-0.334-0.666-0.67-1-1-0.49-0.496-1-0.982-1.5-1.469-0.036-0.037-0.089-0.057-0.125-0.094-0.102-0.107-0.21-0.206-0.313-0.313-0.09-0.087-0.16-0.195-0.25-0.281-0.106-0.104-0.207-0.209-0.313-0.313-0.026-0.026-0.068-0.036-0.094-0.063-0.192-0.202-0.4-0.393-0.594-0.594-0.011-0.01-0.021-0.021-0.031-0.031-0.064-0.061-0.123-0.126-0.188-0.188-0.037-0.036-0.057-0.089-0.094-0.125-0.487-0.499-0.973-1.01-1.469-1.5-0.33-0.334-0.666-0.67-1-1-0.49-0.496-1-0.982-1.5-1.469-0.036-0.037-0.089-0.057-0.125-0.094-0.245-0.257-0.503-0.495-0.75-0.75-0.021-0.02-0.041-0.042-0.063-0.063-0.057-0.059-0.099-0.129-0.156-0.188-0.263-0.276-0.546-0.539-0.813-0.813-0.032-0.031-0.062-0.063-0.094-0.094-0.026-0.026-0.068-0.036-0.094-0.063-0.192-0.202-0.4-0.393-0.594-0.594-0.011-0.01-0.021-0.021-0.031-0.031-0.064-0.061-0.123-0.126-0.188-0.188-0.037-0.036-0.057-0.089-0.094-0.125-0.487-0.499-0.973-1.01-1.469-1.5-0.33-0.334-0.666-0.67-1-1-0.49-0.496-1-0.982-1.5-1.469-0.036-0.037-0.089-0.057-0.125-0.094-0.102-0.107-0.21-0.206-0.313-0.313-0.09-0.087-0.16-0.195-0.25-0.281-0.106-0.104-0.207-0.209-0.313-0.313-0.026-0.026-0.068-0.036-0.094-0.063-0.192-0.202-0.4-0.393-0.594-0.594-0.011-0.01-0.021-0.021-0.031-0.031-0.064-0.061-0.123-0.126-0.188-0.188-0.037-0.036-0.057-0.089-0.094-0.125-0.487-0.499-0.973-1.01-1.469-1.5-0.33-0.334-0.666-0.67-1-1-0.49-0.496-1-0.982-1.5-1.469-0.036-0.037-0.089-0.057-0.125-0.094-0.102-0.107-0.21-0.206-0.313-0.313-0.09-0.087-0.16-0.195-0.25-0.281-0.106-0.104-0.207-0.209-0.313-0.313-0.026-0.026-0.068-0.036-0.094-0.063-0.192-0.202-0.4-0.393-0.594-0.594-0.011-0.01-0.021-0.021-0.031-0.031-0.064-0.061-0.123-0.126-0.188-0.188-0.037-0.036-0.057-0.089-0.094-0.125-0.487-0.499-0.973-1.01-1.469-1.5-0.33-0.334-0.666-0.67-1-1-0.49-0.496-1-0.982-1.5-1.469-0.036-0.037-0.089-0.057-0.125-0.094-0.245-0.257-0.503-0.495-0.75-0.75-0.021-0.02-0.041-0.042-0.063-0.063-0.057-0.059-0.099-0.129-0.156-0.188-0.265-0.278-0.544-0.537-0.813-0.813-0.032-0.031-0.062-0.063-0.094-0.094-0.489-0.502-0.97-1.01-1.469-1.5-0.33-0.334-0.666-0.67-1-1-0.33-0.334-0.666-0.67-1-1-0.492-0.499-0.998-0.979-1.5-1.469-0.031-0.032-0.063-0.062-0.094-0.094-0.263-0.276-0.546-0.539-0.813-0.813-0.032-0.031-0.062-0.063-0.094-0.094-0.026-0.026-0.068-0.036-0.094-0.063-0.192-0.202-0.4-0.393-0.594-0.594-0.011-0.01-0.021-0.021-0.031-0.031-0.064-0.061-0.123-0.126-0.188-0.188-0.037-0.036-0.057-0.089-0.094-0.125-0.487-0.499-0.973-1.01-1.469-1.5-0.33-0.334-0.666-0.67-1-1-0.49-0.496-1-0.982-1.5-1.469-0.036-0.037-0.089-0.057-0.125-0.094-0.102-0.107-0.21-0.206-0.313-0.313-0.09-0.087-0.16-0.195-0.25-0.281-0.106-0.104-0.207-0.209-0.313-0.313-0.026-0.026-0.068-0.036-0.094-0.063-0.192-0.202-0.4-0.393-0.594-0.594-0.011-0.01-0.021-0.021-0.031-0.031-0.064-0.061-0.123-0.126-0.188-0.188-0.037-0.036-0.057-0.089-0.094-0.125-0.487-0.499-0.973-1.01-1.469-1.5-20.294-20.549-48.49-33.28-79.66-33.28"/>
  <path id="path16" fill-opacity=".067" d="m256 1c-140.83 0-255 114.17-255 255s114.17 255 255 255 255-114.17 255-255-114.17-255-255-255m8.827 44.931c120.9 0 218.9 98 218.9 218.9s-98 218.9-218.9 218.9-218.93-98-218.93-218.9 98.03-218.9 218.93-218.9"/>
  <g id="g18" fill-opacity=".129">
   <path id="path20" d="m256 4.433c-138.94 0-251.57 112.63-251.57 251.57s112.63 251.57 251.57 251.57 251.57-112.63 251.57-251.57-112.63-251.57-251.57-251.57m5.885 38.556c120.9 0 218.9 98 218.9 218.9s-98 218.9-218.9 218.9-218.93-98-218.93-218.9 98.03-218.9 218.93-218.9"/>
   <path id="path22" d="m256 8.356c-136.77 0-247.64 110.87-247.64 247.64s110.87 247.64 247.64 247.64 247.64-110.87 247.64-247.64-110.87-247.64-247.64-247.64m2.942 31.691c120.9 0 218.9 98 218.9 218.9s-98 218.9-218.9 218.9-218.93-98-218.93-218.9 98.03-218.9 218.93-218.9"/>
  </g>
  <path id="path24" d="m253.04 7.859c-135.42 0-245.19 109.78-245.19 245.19 0 135.42 109.78 245.19 245.19 245.19 135.42 0 245.19-109.78 245.19-245.19 0-135.42-109.78-245.19-245.19-245.19zm0 26.297c120.9 0 218.9 98 218.9 218.9s-98 218.9-218.9 218.9-218.93-98-218.93-218.9 98.03-218.9 218.93-218.9z" stroke-opacity=".31" stroke="#000" stroke-width="4.904" fill="#fff"/>
 </g>
 <text id="text26" style="word-spacing:0;letter-spacing:0" font-size="129.23px" line-height="125%" y="231.36" x="729.64001" font-family="Gentium Book Basic">
  <tspan id="tspan28" y="231.36" x="729.64001"/>
 </text>
 <text id="text30" style="text-anchor:middle" font-size="46.954px" transform="scale(4.0128 .2492)" y="579.25" x="378.91" font-family="Arial"/>
 <text id="text32" style="word-spacing:0;letter-spacing:0" font-size="129.23px" line-height="125%" y="151.36" x="1310.91" font-family="Gentium Book Basic">
  <tspan id="tspan34" y="151.36" x="1310.91"/>
 </text>
 <text id="text36" style="text-anchor:middle" font-size="46.954px" transform="scale(4.0128 .2492)" y="258.22" x="523.76001" font-family="Arial"/>
 <text id="text38" style="word-spacing:0;letter-spacing:0" font-size="129.23px" line-height="125%" y="-29.900999" x="239.33" font-family="Gentium Book Basic">
  <tspan id="tspan40" y="-29.900999" x="239.33"/>
 </text>
 <text id="text42" style="text-anchor:middle" font-size="46.954px" transform="scale(4.0128 .2492)" y="-469.14001" x="256.72" font-family="Arial"/>
 <text id="text44" style="word-spacing:0;letter-spacing:0" font-size="129.23px" line-height="125%" y="-246.37" x="1337.38" font-family="Gentium Book Basic">
  <tspan id="tspan46" y="-246.37" x="1337.38"/>
 </text>
 <text id="text48" style="text-anchor:middle" font-size="46.954px" transform="scale(4.0128 .2492)" y="-1337.8101" x="530.35999" font-family="Arial"/>
 <text id="text50" style="word-spacing:0;letter-spacing:0" font-size="129.23px" line-height="125%" y="-326.38" x="1918.65" font-family="Gentium Book Basic">
  <tspan id="tspan52" y="-326.38" x="1918.65"/>
 </text>
 <text id="text54" style="text-anchor:middle" font-size="46.954px" transform="scale(4.0128 .2492)" y="-1658.85" x="675.21002" font-family="Arial"/>
 <text id="text56" style="word-spacing:0;letter-spacing:0" font-size="129.23px" line-height="125%" y="-798.78003" x="1529.53" font-family="Gentium Book Basic">
  <tspan id="tspan58" y="-798.78003" x="1529.53"/>
 </text>
 <text id="text60" style="text-anchor:middle" font-size="46.954px" transform="scale(4.0128 .2492)" y="-3554.51" x="578.23999" font-family="Arial"/>
 <text id="text62" style="word-spacing:0;letter-spacing:0" font-size="129.23px" line-height="125%" y="-878.78003" x="2110.79" font-family="Gentium Book Basic">
  <tspan id="tspan64" y="-878.78003" x="2110.79"/>
 </text>
 <text id="text66" style="text-anchor:middle" font-size="46.954px" transform="scale(4.0128 .2492)" y="-3875.54" x="723.09003" font-family="Arial"/>
 <text id="text68" style="word-spacing:0;letter-spacing:0" font-size="208.33px" line-height="125%" y="535.94" x="277.98999" font-family="Gentium Book Basic">
  <tspan id="tspan70" y="535.94" x="277.98999"/>
 </text>
 <path id="path72" d="m256 144.07c-61.819 0-111.93 50.11-111.93 111.93 0 61.819 50.11 111.93 111.93 111.93 61.819 0 111.93-50.11 111.93-111.93 0-61.819-50.11-111.93-111.93-111.93m-34.441 41.975 45.42 33.15 45.42 33.15-45.42 33.15-45.42 33.365v-132.81" fill-rule="evenodd" fill="#fff"/>
</svg>
