<?xml version="1.0" encoding="UTF-8" standalone="no"?>
<!-- Created with Inkscape (http://www.inkscape.org/) -->
<svg id="svg2" xmlns:rdf="http://www.w3.org/1999/02/22-rdf-syntax-ns#" xmlns="http://www.w3.org/2000/svg" height="100%" viewBox="0 0 512 512" width="100%" version="1.1" xmlns:cc="http://creativecommons.org/ns#" xmlns:dc="http://purl.org/dc/elements/1.1/">
 <metadata id="metadata108">
  <rdf:RDF>
   <cc:Work rdf:about="">
    <dc:format>image/svg+xml</dc:format>
    <dc:type rdf:resource="http://purl.org/dc/dcmitype/StillImage"/>
   </cc:Work>
  </rdf:RDF>
 </metadata>
 <path id="path4" fill-rule="evenodd" fill="#fff" transform="matrix(1.5323 0 0 1.5323 42.896 -396.33)" d="m280 423.79a142.86 142.86 0 1 1 -285.71 0 142.86 142.86 0 1 1 285.71 0"/>
 <g id="g6" transform="matrix(.89602 0 0 .89602 -777.92 26.619)">
  <path id="path8" fill="#924565" d="m903.97 255.69v4.594c2.22 131.79 106.39 238.78 237.06 245.41h12.938v-250h-250"/>
  <path id="path10" fill="#e4a146" d="m1154 255.69v250h12.813c132.09-6.696 237.13-115.93 237.13-249.69v-0.313h-249.94"/>
  <path id="path12" fill="#366378" d="m1154 6v249.69h249.94c-0.2-137.91-112-249.65-249.9-249.69"/>
  <path id="path14" fill="#9a3034" d="m1153.9 6c-136.6 0-247.63 109.63-249.93 245.72v3.969h250v-249.69h-0.062"/>
  <g id="g16" stroke="#707175" stroke-width=".698" fill="#62c0dc">
   <path id="path18" d="m904.15 256h499.51"/>
   <path id="path20" d="m1153.9 6.243v499.51"/>
  </g>
 </g>
 <path id="path22" d="m164.41 143.28c-0.208 0.018-0.377 0.082-0.5 0.156-7.898 4.734-11.34 220.45-3.531 225.13 0.101 0.061 0.245 0.101 0.406 0.125 0.197 0.437 0.38 0.747 0.594 0.875 0.102 0.061 0.244 0.101 0.406 0.125 0.194 0.423 0.384 0.749 0.594 0.875 0.095 0.057 0.227 0.1 0.375 0.125 0.195 0.425 0.414 0.749 0.625 0.875 0.095 0.057 0.228 0.069 0.375 0.094 0.198 0.44 0.41 0.746 0.625 0.875 0.099 0.059 0.22 0.101 0.375 0.125 0.197 0.437 0.38 0.747 0.594 0.875 0.101 0.061 0.245 0.101 0.406 0.125 0.197 0.437 0.38 0.747 0.594 0.875 0.101 0.061 0.245 0.101 0.406 0.125 0.197 0.437 0.38 0.747 0.594 0.875 0.102 0.061 0.244 0.101 0.406 0.125 0.195 0.425 0.383 0.749 0.594 0.875 0.095 0.057 0.227 0.1 0.375 0.125 0.195 0.425 0.414 0.749 0.625 0.875 0.095 0.057 0.227 0.1 0.375 0.125 0.195 0.425 0.414 0.718 0.625 0.844 0.095 0.057 0.228 0.1 0.375 0.125 0.197 0.437 0.38 0.747 0.594 0.875 0.101 0.061 0.245 0.101 0.406 0.125 0.197 0.437 0.38 0.747 0.594 0.875 0.101 0.061 0.245 0.101 0.406 0.125 0.197 0.437 0.38 0.747 0.594 0.875 0.102 0.061 0.244 0.101 0.406 0.125 0.195 0.425 0.383 0.749 0.594 0.875 0.095 0.057 0.227 0.1 0.375 0.125 0.195 0.425 0.414 0.749 0.625 0.875 0.095 0.057 0.227 0.1 0.375 0.125 0.195 0.425 0.414 0.749 0.625 0.875 0.095 0.057 0.228 0.069 0.375 0.094 0.197 0.437 0.411 0.747 0.625 0.875 0.101 0.061 0.214 0.101 0.375 0.125 0.197 0.437 0.38 0.747 0.594 0.875 0.101 0.061 0.245 0.101 0.406 0.125 0.197 0.437 0.38 0.747 0.594 0.875 0.101 0.061 0.245 0.101 0.406 0.125 0.197 0.437 0.38 0.747 0.594 0.875 0.102 0.061 0.244 0.101 0.406 0.125 0.194 0.423 0.384 0.749 0.594 0.875 0.095 0.057 0.227 0.1 0.375 0.125 0.195 0.425 0.414 0.749 0.625 0.875 0.088 0.053 0.21 0.069 0.344 0.094 0.2 0.448 0.439 0.745 0.656 0.875 0.101 0.061 0.214 0.101 0.375 0.125 0.197 0.437 0.38 0.747 0.594 0.875 0.101 0.061 0.245 0.101 0.406 0.125 0.197 0.437 0.38 0.747 0.594 0.875 0.101 0.061 0.245 0.101 0.406 0.125 0.197 0.437 0.38 0.747 0.594 0.875 0.102 0.061 0.244 0.101 0.406 0.125 0.194 0.423 0.384 0.749 0.594 0.875 0.095 0.057 0.227 0.1 0.375 0.125 0.195 0.425 0.414 0.749 0.625 0.875 0.095 0.057 0.228 0.069 0.375 0.094 0.198 0.44 0.41 0.746 0.625 0.875 0.095 0.057 0.228 0.1 0.375 0.125 0.197 0.437 0.38 0.747 0.594 0.875 0.101 0.061 0.245 0.101 0.406 0.125 0.197 0.437 0.38 0.747 0.594 0.875 0.101 0.061 0.245 0.101 0.406 0.125 0.197 0.437 0.38 0.747 0.594 0.875 0.102 0.061 0.244 0.101 0.406 0.125 0.195 0.425 0.383 0.749 0.594 0.875 0.095 0.057 0.227 0.1 0.375 0.125 0.195 0.425 0.414 0.749 0.625 0.875 0.095 0.057 0.227 0.1 0.375 0.125 0.195 0.425 0.414 0.749 0.625 0.875 0.095 0.057 0.228 0.069 0.375 0.094 0.197 0.437 0.411 0.747 0.625 0.875 0.101 0.061 0.214 0.101 0.375 0.125 0.197 0.437 0.38 0.747 0.594 0.875 0.101 0.061 0.245 0.101 0.406 0.125 0.197 0.437 0.38 0.747 0.594 0.875 0.102 0.061 0.244 0.101 0.406 0.125 0.195 0.425 0.383 0.749 0.594 0.875 0.095 0.057 0.227 0.1 0.375 0.125 0.195 0.425 0.414 0.749 0.625 0.875 0.095 0.057 0.227 0.1 0.375 0.125 0.195 0.425 0.414 0.749 0.625 0.875 0.095 0.057 0.228 0.069 0.375 0.094 0.197 0.437 0.411 0.747 0.625 0.875 0.101 0.061 0.214 0.101 0.375 0.125 0.197 0.437 0.38 0.747 0.594 0.875 0.101 0.061 0.245 0.101 0.406 0.125 0.197 0.437 0.38 0.747 0.594 0.875 0.101 0.061 0.245 0.101 0.406 0.125 0.197 0.437 0.38 0.747 0.594 0.875 0.102 0.061 0.244 0.101 0.406 0.125 0.194 0.423 0.384 0.749 0.594 0.875 0.095 0.057 0.227 0.1 0.375 0.125 0.195 0.425 0.414 0.749 0.625 0.875 0.088 0.053 0.21 0.069 0.344 0.094 0.2 0.448 0.439 0.745 0.656 0.875 0.099 0.059 0.22 0.101 0.375 0.125 0.197 0.437 0.38 0.747 0.594 0.875 0.101 0.061 0.245 0.101 0.406 0.125 0.197 0.437 0.38 0.747 0.594 0.875 0.101 0.061 0.245 0.101 0.406 0.125 0.197 0.437 0.38 0.747 0.594 0.875 0.102 0.061 0.244 0.101 0.406 0.125 0.195 0.425 0.383 0.749 0.594 0.875 0.095 0.057 0.227 0.1 0.375 0.125 0.195 0.425 0.414 0.749 0.625 0.875 0.095 0.057 0.227 0.1 0.375 0.125 0.195 0.425 0.414 0.718 0.625 0.844 0.095 0.057 0.228 0.1 0.375 0.125 0.197 0.437 0.38 0.747 0.594 0.875 0.101 0.061 0.245 0.101 0.406 0.125 0.197 0.437 0.38 0.747 0.594 0.875 0.101 0.061 0.245 0.101 0.406 0.125 0.197 0.437 0.38 0.747 0.594 0.875 0.102 0.061 0.244 0.101 0.406 0.125 0.195 0.425 0.383 0.749 0.594 0.875 0.095 0.057 0.227 0.1 0.375 0.125 0.195 0.425 0.414 0.749 0.625 0.875 0.095 0.057 0.227 0.1 0.375 0.125 0.195 0.425 0.414 0.749 0.625 0.875 0.095 0.057 0.228 0.069 0.375 0.094 0.197 0.437 0.411 0.747 0.625 0.875 0.101 0.061 0.214 0.101 0.375 0.125 0.197 0.437 0.38 0.747 0.594 0.875 0.101 0.061 0.245 0.101 0.406 0.125 0.197 0.437 0.38 0.747 0.594 0.875 0.101 0.061 0.245 0.101 0.406 0.125 0.197 0.437 0.38 0.747 0.594 0.875 0.102 0.061 0.244 0.101 0.406 0.125 0.194 0.423 0.384 0.749 0.594 0.875 0.095 0.057 0.227 0.1 0.375 0.125 0.195 0.425 0.414 0.749 0.625 0.875 0.095 0.057 0.228 0.069 0.375 0.094 0.198 0.44 0.41 0.746 0.625 0.875 0.101 0.061 0.214 0.101 0.375 0.125 0.197 0.437 0.38 0.747 0.594 0.875 0.101 0.061 0.245 0.101 0.406 0.125 0.197 0.437 0.38 0.747 0.594 0.875 0.101 0.061 0.245 0.101 0.406 0.125 0.197 0.437 0.38 0.747 0.594 0.875 0.102 0.061 0.244 0.101 0.406 0.125 0.194 0.423 0.384 0.749 0.594 0.875 0.095 0.057 0.227 0.1 0.375 0.125 0.195 0.425 0.414 0.749 0.625 0.875 0.088 0.053 0.21 0.069 0.344 0.094 0.2 0.448 0.439 0.745 0.656 0.875 0.095 0.057 0.228 0.1 0.375 0.125 0.197 0.437 0.38 0.747 0.594 0.875 0.101 0.061 0.245 0.101 0.406 0.125 0.197 0.437 0.38 0.747 0.594 0.875 0.101 0.061 0.245 0.101 0.406 0.125 0.197 0.437 0.38 0.747 0.594 0.875 0.102 0.061 0.244 0.101 0.406 0.125 0.195 0.425 0.383 0.749 0.594 0.875 0.095 0.057 0.227 0.1 0.375 0.125 0.195 0.425 0.414 0.749 0.625 0.875 0.095 0.057 0.227 0.1 0.375 0.125 0.195 0.425 0.414 0.749 0.625 0.875 0.095 0.057 0.228 0.069 0.375 0.094 0.197 0.437 0.411 0.747 0.625 0.875 0.101 0.061 0.214 0.101 0.375 0.125 0.197 0.437 0.38 0.747 0.594 0.875 0.101 0.061 0.245 0.101 0.406 0.125 0.197 0.437 0.38 0.747 0.594 0.875 0.102 0.061 0.244 0.101 0.406 0.125 0.195 0.425 0.383 0.749 0.594 0.875 0.095 0.057 0.227 0.1 0.375 0.125 0.195 0.425 0.414 0.749 0.625 0.875 0.095 0.057 0.227 0.1 0.375 0.125 0.195 0.425 0.414 0.749 0.625 0.875 0.095 0.057 0.228 0.069 0.375 0.094 0.197 0.437 0.411 0.747 0.625 0.875 0.101 0.061 0.214 0.101 0.375 0.125 0.197 0.437 0.38 0.747 0.594 0.875 0.101 0.061 0.245 0.101 0.406 0.125 0.197 0.437 0.38 0.747 0.594 0.875 0.101 0.061 0.245 0.101 0.406 0.125 0.197 0.437 0.38 0.747 0.594 0.875 0.102 0.061 0.244 0.101 0.406 0.125 0.194 0.423 0.384 0.749 0.594 0.875 0.095 0.057 0.227 0.1 0.375 0.125 0.195 0.425 0.414 0.749 0.625 0.875 0.095 0.057 0.228 0.069 0.375 0.094 0.198 0.44 0.41 0.746 0.625 0.875 0.099 0.059 0.22 0.101 0.375 0.125 0.197 0.437 0.38 0.747 0.594 0.875 0.101 0.061 0.245 0.101 0.406 0.125 0.197 0.437 0.38 0.747 0.594 0.875 0.101 0.061 0.245 0.101 0.406 0.125 0.197 0.437 0.38 0.747 0.594 0.875 0.102 0.061 0.244 0.101 0.406 0.125 0.195 0.425 0.383 0.749 0.594 0.875 0.095 0.057 0.227 0.1 0.375 0.125 0.195 0.425 0.414 0.749 0.625 0.875 0.095 0.057 0.227 0.1 0.375 0.125 0.195 0.425 0.414 0.718 0.625 0.844 0.095 0.057 0.228 0.1 0.375 0.125 0.197 0.437 0.38 0.747 0.594 0.875 0.101 0.061 0.245 0.101 0.406 0.125 0.197 0.437 0.38 0.747 0.594 0.875 0.101 0.061 0.245 0.101 0.406 0.125 0.197 0.437 0.38 0.747 0.594 0.875 0.102 0.061 0.244 0.101 0.406 0.125 0.195 0.425 0.383 0.749 0.594 0.875 0.095 0.057 0.227 0.1 0.375 0.125 0.195 0.425 0.414 0.749 0.625 0.875 0.095 0.057 0.227 0.1 0.375 0.125 0.087 0.19 0.188 0.359 0.281 0.5 81.2-3.83 150.8-51.878 185.28-120.62-0.15-0.147-0.274-0.279-0.438-0.438-0.283-0.313-0.62-0.634-1-1-0.283-0.313-0.62-0.634-1-1-0.276-0.306-0.6-0.613-0.969-0.969-0.277-0.306-0.631-0.643-1-1-0.277-0.306-0.631-0.643-1-1-0.277-0.306-0.631-0.643-1-1-0.28-0.31-0.626-0.639-1-1-0.283-0.313-0.62-0.634-1-1-0.276-0.306-0.6-0.613-0.969-0.969-0.276-0.306-0.632-0.644-1-1-0.277-0.306-0.631-0.643-1-1-0.277-0.306-0.631-0.643-1-1-0.28-0.31-0.626-0.639-1-1-0.283-0.313-0.62-0.634-1-1-0.276-0.306-0.6-0.613-0.969-0.969-0.276-0.306-0.632-0.644-1-1-0.277-0.306-0.631-0.643-1-1-0.277-0.306-0.631-0.643-1-1-0.28-0.31-0.626-0.639-1-1-0.283-0.313-0.62-0.634-1-1-0.387-0.428-0.872-0.912-1.438-1.438-0.171-0.176-0.335-0.341-0.531-0.531-0.277-0.306-0.631-0.643-1-1-0.277-0.306-0.631-0.643-1-1-0.28-0.31-0.626-0.639-1-1-0.283-0.313-0.62-0.634-1-1-0.283-0.313-0.62-0.634-1-1-0.276-0.306-0.6-0.613-0.969-0.969-0.276-0.306-0.632-0.644-1-1-0.277-0.306-0.631-0.643-1-1-0.277-0.306-0.631-0.643-1-1-0.28-0.31-0.626-0.639-1-1-0.283-0.313-0.62-0.634-1-1-0.276-0.306-0.6-0.613-0.969-0.969-0.276-0.306-0.632-0.644-1-1-0.277-0.306-0.631-0.643-1-1-0.277-0.306-0.631-0.643-1-1-0.28-0.31-0.626-0.639-1-1-0.283-0.313-0.62-0.634-1-1-0.276-0.306-0.6-0.613-0.969-0.969-0.276-0.306-0.632-0.644-1-1-0.277-0.306-0.631-0.643-1-1-0.277-0.306-0.631-0.643-1-1-0.28-0.31-0.626-0.639-1-1-0.283-0.313-0.62-0.634-1-1-0.363-0.402-0.823-0.856-1.344-1.344-0.196-0.204-0.393-0.401-0.625-0.625-0.277-0.306-0.631-0.643-1-1-0.277-0.306-0.631-0.643-1-1-0.277-0.306-0.631-0.643-1-1-0.28-0.31-0.626-0.639-1-1-0.283-0.313-0.62-0.634-1-1-0.276-0.306-0.6-0.613-0.969-0.969-0.276-0.306-0.632-0.644-1-1-0.277-0.306-0.631-0.643-1-1-0.277-0.306-0.631-0.643-1-1-0.28-0.31-0.626-0.639-1-1-0.283-0.313-0.62-0.634-1-1-0.276-0.306-0.6-0.613-0.969-0.969-0.276-0.306-0.632-0.644-1-1-0.277-0.306-0.631-0.643-1-1-0.277-0.306-0.631-0.643-1-1-0.28-0.31-0.626-0.639-1-1-0.283-0.313-0.62-0.634-1-1-0.387-0.428-0.872-0.912-1.438-1.438-0.171-0.176-0.335-0.341-0.531-0.531-0.277-0.306-0.631-0.643-1-1-0.277-0.306-0.631-0.643-1-1-0.28-0.31-0.626-0.639-1-1-0.283-0.313-0.62-0.634-1-1-0.283-0.313-0.62-0.634-1-1-0.276-0.306-0.6-0.613-0.969-0.969-0.276-0.306-0.632-0.644-1-1-0.277-0.306-0.631-0.643-1-1-0.277-0.306-0.631-0.643-1-1-0.28-0.31-0.626-0.639-1-1-0.283-0.313-0.62-0.634-1-1-0.276-0.306-0.6-0.613-0.969-0.969-0.276-0.306-0.632-0.644-1-1-0.277-0.306-0.631-0.643-1-1-0.277-0.306-0.631-0.643-1-1-0.28-0.31-0.626-0.639-1-1-0.283-0.313-0.62-0.634-1-1-0.276-0.306-0.6-0.613-0.969-0.969-0.276-0.306-0.632-0.644-1-1-0.277-0.306-0.631-0.643-1-1-0.277-0.306-0.631-0.643-1-1-0.28-0.31-0.626-0.639-1-1-0.283-0.313-0.62-0.634-1-1-0.363-0.402-0.823-0.856-1.344-1.344-0.196-0.204-0.393-0.401-0.625-0.625-0.277-0.306-0.631-0.643-1-1-0.277-0.306-0.631-0.643-1-1-0.277-0.306-0.631-0.643-1-1-15.467-17.11-177.95-114.9-190.44-113.81" fill-rule="evenodd" fill-opacity=".235"/>
 <g id="g24" style="word-spacing:0;letter-spacing:0" font-family="Gentium Book Basic" line-height="125%">
  <text id="text26" y="255.98" x="817.47998" font-size="208.33px">
   <tspan id="tspan28" y="255.98" x="817.47998"/>
  </text>
  <text id="text30" font-size="84.77px" transform="scale(1.0508 .95163)" y="370.01999" x="284.79999" fill="#654641">
   <tspan id="tspan32" y="370.01999" x="284.79999"/>
  </text>
 </g>
 <g id="g34" fill="#654641">
  <text id="text36" style="text-anchor:middle" font-size="30.8px" transform="scale(4.2168 .23715)" y="1255.8" x="200.25" font-family="Arial"/>
  <text id="text38" style="word-spacing:0;letter-spacing:0" transform="scale(1.0508 .95163)" font-size="45.38px" y="346.51999" x="552.60999" font-family="Gentium Book Basic" line-height="125%">
   <tspan id="tspan40" y="346.51999" x="552.60999"/>
  </text>
  <text id="text42" style="text-anchor:middle" font-size="16.488px" transform="scale(4.2168 .23715)" y="1267.9301" x="206.92" font-family="Arial"/>
  <text id="text44" style="word-spacing:0;letter-spacing:0" font-size="132.57px" line-height="125%" y="431.60999" x="-441.64001" font-family="Gentium Book Basic">
   <tspan id="tspan46" y="431.60999" x="-441.64001"/>
  </text>
  <text id="text48" style="text-anchor:middle" font-size="48.17px" transform="scale(4.0128 .2492)" y="1373.8101" x="92.129997" font-family="Arial"/>
 </g>
 <g id="g50" style="word-spacing:0;letter-spacing:0" font-family="Gentium Book Basic" line-height="125%">
  <text id="text52" y="559.52002" x="-272.57001" font-size="208.33px">
   <tspan id="tspan54" y="559.52002" x="-272.57001"/>
  </text>
  <text id="text56" font-size="84.77px" transform="scale(1.0508 .95163)" y="391.85999" x="939.34998" fill="#654641">
   <tspan id="tspan58" y="391.85999" x="939.34998"/>
  </text>
 </g>
 <g id="g60" fill="#654641">
  <text id="text62" style="text-anchor:middle" font-size="30.8px" transform="scale(4.2168 .23715)" y="1343.4301" x="363.35999" font-family="Arial"/>
  <text id="text64" style="word-spacing:0;letter-spacing:0" transform="scale(1.0508 .95163)" font-size="45.38px" y="368.35999" x="1207.16" font-family="Gentium Book Basic" line-height="125%">
   <tspan id="tspan66" y="368.35999" x="1207.16"/>
  </text>
  <text id="text68" style="text-anchor:middle" font-size="16.488px" transform="scale(4.2168 .23715)" y="1355.5699" x="370.03" font-family="Arial"/>
  <text id="text70" style="word-spacing:0;letter-spacing:0" font-size="132.57px" line-height="125%" y="452.39999" x="246.17999" font-family="Gentium Book Basic">
   <tspan id="tspan72" y="452.39999" x="246.17999"/>
  </text>
  <text id="text74" style="text-anchor:middle" font-size="48.17px" transform="scale(4.0128 .2492)" y="1457.2" x="263.53" font-family="Arial"/>
 </g>
 <g id="g76">
  <g id="g78" style="word-spacing:0;letter-spacing:0" font-family="Gentium Book Basic" font-size="208.33px" line-height="125%">
   <text id="text80" y="432.51999" x="508.42999">
    <tspan id="tspan82" y="432.51999" x="508.42999"/>
   </text>
   <text id="text84" y="274.67999" x="215.35001">
    <tspan id="tspan86" y="274.67999" x="215.35001"/>
   </text>
  </g>
  <g id="g88" fill-rule="evenodd">
   <path id="path90" fill-opacity=".067" d="m256 1c-140.83 0-255 114.17-255 255s114.17 255 255 255 255-114.17 255-255-114.17-255-255-255m8.827 44.931c120.9 0 218.9 98 218.9 218.9s-98 218.9-218.9 218.9-218.93-98-218.93-218.9 98.03-218.9 218.93-218.9"/>
   <g id="g92" fill-opacity=".129">
    <path id="path94" d="m256 4.433c-138.94 0-251.57 112.63-251.57 251.57s112.63 251.57 251.57 251.57 251.57-112.63 251.57-251.57-112.63-251.57-251.57-251.57m5.885 38.556c120.9 0 218.9 98 218.9 218.9s-98 218.9-218.9 218.9-218.93-98-218.93-218.9 98.03-218.9 218.93-218.9"/>
    <path id="path96" d="m256 8.356c-136.77 0-247.64 110.87-247.64 247.64s110.87 247.64 247.64 247.64 247.64-110.87 247.64-247.64-110.87-247.64-247.64-247.64m2.942 31.691c120.9 0 218.9 98 218.9 218.9s-98 218.9-218.9 218.9-218.93-98-218.93-218.9 98.03-218.9 218.93-218.9"/>
   </g>
  </g>
 </g>
 <g id="g98" fill-rule="evenodd" fill="#fff">
  <path id="path100" stroke="#000" stroke-width="4.904" stroke-opacity=".31" d="m253.04 7.859c-135.42 0-245.19 109.78-245.19 245.19 0 135.42 109.78 245.19 245.19 245.19 135.42 0 245.19-109.78 245.19-245.19 0-135.42-109.78-245.19-245.19-245.19zm0 26.297c120.9 0 218.9 98 218.9 218.9s-98 218.9-218.9 218.9-218.93-98-218.93-218.9 98.03-218.9 218.93-218.9z"/>
  <path id="path102" d="m160.38 368.57c-7.809-4.67-4.378-220.4 3.52-225.13 7.898-4.734 192.1 106.44 192.12 115.61 0.023 9.167-187.84 114.2-195.64 109.53"/>
 </g>
</svg>
