<?xml version="1.0" encoding="UTF-8" standalone="no"?>
<!-- Created with Inkscape (http://www.inkscape.org/) -->
<svg id="svg2" xmlns:rdf="http://www.w3.org/1999/02/22-rdf-syntax-ns#" xmlns="http://www.w3.org/2000/svg" height="100%" viewBox="0 0 512 512" width="100%" version="1.1" xmlns:cc="http://creativecommons.org/ns#" xmlns:dc="http://purl.org/dc/elements/1.1/">
 <metadata id="metadata72">
  <rdf:RDF>
   <cc:Work rdf:about="">
    <dc:format>image/svg+xml</dc:format>
    <dc:type rdf:resource="http://purl.org/dc/dcmitype/StillImage"/>
   </cc:Work>
  </rdf:RDF>
 </metadata>
 <g id="g4" fill-rule="evenodd">
  <path id="path6" fill="#426f83" d="m471.95 253.05c0 120.9-98.01 218.9-218.9 218.9-120.9 0-218.9-98.01-218.9-218.9 0-120.9 98.01-218.9 218.9-218.9 120.9 0 218.9 98.01 218.9 218.9"/>
  <path id="path8" fill-opacity=".235" d="m270.53 105.03c-5.784 0.057-11.654 0.84-17.5 2.406-36.59 9.805-58.645 46.816-50.22 83.44l9 48.19-43.28 16.188c-0.197 0.053-0.396 0.103-0.594 0.156-37.413 10.02-59.62 48.46-49.594 85.88 3.446 12.861 10.254 23.925 19.219 32.5 0.332 0.331 0.661 0.676 1 1 0.332 0.331 0.661 0.676 1 1 0.429 0.428 0.841 0.866 1.281 1.281 0.091 0.097 0.189 0.184 0.281 0.281 0.181 0.176 0.349 0.358 0.531 0.531 0.293 0.291 0.577 0.59 0.875 0.875 0.332 0.331 0.661 0.676 1 1 0.332 0.331 0.661 0.676 1 1 0.332 0.331 0.661 0.676 1 1 0.429 0.428 0.841 0.866 1.281 1.281 0.091 0.097 0.189 0.184 0.281 0.281 0.181 0.176 0.349 0.358 0.531 0.531 0.293 0.291 0.577 0.59 0.875 0.875 0.332 0.331 0.661 0.676 1 1 0.332 0.331 0.661 0.676 1 1 0.332 0.331 0.661 0.676 1 1 0.429 0.428 0.841 0.866 1.281 1.281 0.091 0.097 0.189 0.184 0.281 0.281 0.181 0.176 0.349 0.358 0.531 0.531 0.293 0.291 0.577 0.59 0.875 0.875 0.332 0.331 0.661 0.676 1 1 0.332 0.331 0.661 0.676 1 1 0.332 0.331 0.661 0.676 1 1 0.332 0.331 0.661 0.676 1 1 0.326 0.325 0.636 0.651 0.969 0.969 0.378 0.377 0.738 0.757 1.125 1.125 0.293 0.291 0.577 0.59 0.875 0.875 0.332 0.331 0.661 0.676 1 1 0.332 0.331 0.661 0.676 1 1 0.332 0.331 0.661 0.676 1 1 0.429 0.428 0.841 0.866 1.281 1.281 0.091 0.097 0.189 0.184 0.281 0.281 0.181 0.176 0.349 0.358 0.531 0.531 0.293 0.291 0.577 0.59 0.875 0.875 0.332 0.331 0.661 0.676 1 1 0.332 0.331 0.661 0.676 1 1 0.332 0.331 0.661 0.676 1 1 0.429 0.428 0.841 0.866 1.281 1.281 0.091 0.097 0.189 0.184 0.281 0.281 0.181 0.176 0.349 0.358 0.531 0.531 0.293 0.291 0.577 0.59 0.875 0.875 0.332 0.331 0.661 0.676 1 1 0.332 0.331 0.661 0.676 1 1 0.332 0.331 0.661 0.676 1 1 0.429 0.428 0.841 0.866 1.281 1.281 0.233 0.229 0.452 0.462 0.688 0.688 0.378 0.377 0.738 0.757 1.125 1.125 0.293 0.291 0.577 0.59 0.875 0.875 0.332 0.331 0.661 0.676 1 1 0.332 0.331 0.661 0.676 1 1 0.332 0.331 0.661 0.676 1 1 0.429 0.428 0.841 0.866 1.281 1.281 0.091 0.097 0.189 0.184 0.281 0.281 0.181 0.176 0.349 0.358 0.531 0.531 0.293 0.291 0.577 0.59 0.875 0.875 0.332 0.331 0.661 0.676 1 1 0.332 0.331 0.661 0.676 1 1 0.332 0.331 0.661 0.676 1 1 0.429 0.428 0.841 0.866 1.281 1.281 0.091 0.097 0.189 0.184 0.281 0.281 0.181 0.176 0.349 0.358 0.531 0.531 0.293 0.291 0.577 0.59 0.875 0.875 0.332 0.331 0.661 0.676 1 1 0.332 0.331 0.661 0.676 1 1 0.332 0.331 0.661 0.676 1 1 0.429 0.428 0.841 0.866 1.281 1.281 0.091 0.097 0.189 0.184 0.281 0.281 0.181 0.176 0.349 0.358 0.531 0.531 0.293 0.291 0.577 0.59 0.875 0.875 0.332 0.331 0.661 0.676 1 1 0.332 0.331 0.661 0.676 1 1 0.332 0.331 0.661 0.676 1 1 0.332 0.331 0.661 0.676 1 1 0.326 0.325 0.636 0.651 0.969 0.969 0.378 0.377 0.738 0.757 1.125 1.125 0.293 0.291 0.577 0.59 0.875 0.875 0.332 0.331 0.661 0.676 1 1 0.332 0.331 0.661 0.676 1 1 0.332 0.331 0.661 0.676 1 1 0.429 0.428 0.841 0.866 1.281 1.281 0.091 0.097 0.189 0.184 0.281 0.281 0.181 0.176 0.349 0.358 0.531 0.531 0.293 0.291 0.577 0.59 0.875 0.875 0.332 0.331 0.661 0.676 1 1 0.332 0.331 0.661 0.676 1 1 0.332 0.331 0.661 0.676 1 1 0.429 0.428 0.841 0.866 1.281 1.281 0.091 0.097 0.189 0.184 0.281 0.281 0.181 0.176 0.349 0.358 0.531 0.531 0.293 0.291 0.577 0.59 0.875 0.875 0.332 0.331 0.661 0.676 1 1 0.332 0.331 0.661 0.676 1 1 0.332 0.331 0.661 0.676 1 1 0.429 0.428 0.841 0.866 1.281 1.281 0.233 0.229 0.452 0.462 0.688 0.688 0.378 0.377 0.738 0.757 1.125 1.125 0.293 0.291 0.577 0.59 0.875 0.875 0.332 0.331 0.661 0.676 1 1 0.332 0.331 0.661 0.676 1 1 0.332 0.331 0.661 0.676 1 1 0.429 0.428 0.841 0.866 1.281 1.281 0.091 0.097 0.189 0.184 0.281 0.281 0.181 0.176 0.349 0.358 0.531 0.531 0.293 0.291 0.577 0.59 0.875 0.875 0.332 0.331 0.661 0.676 1 1 0.332 0.331 0.661 0.676 1 1 0.332 0.331 0.661 0.676 1 1 0.429 0.428 0.841 0.866 1.281 1.281 0.091 0.097 0.189 0.184 0.281 0.281 0.117 0.114 0.23 0.229 0.344 0.344 5.947 0.485 11.959 0.75 18.03 0.75 113.28 0 206.45-86.05 217.75-196.34-0.239-0.25-0.473-0.505-0.719-0.75-0.01-0.011-0.021-0.021-0.031-0.031-0.095-0.091-0.186-0.191-0.281-0.281-0.227-0.233-0.458-0.458-0.688-0.688-0.01-0.011-0.021-0.021-0.031-0.031-0.011-0.01-0.021-0.021-0.031-0.031-0.303-0.314-0.629-0.598-0.938-0.906-0.325-0.339-0.668-0.668-1-1-0.325-0.339-0.668-0.668-1-1-0.328-0.341-0.666-0.666-1-1-0.323-0.336-0.64-0.671-0.969-1-0.01-0.011-0.021-0.021-0.031-0.031-0.095-0.091-0.186-0.191-0.281-0.281-0.227-0.233-0.458-0.458-0.688-0.688-0.01-0.011-0.021-0.021-0.031-0.031-0.011-0.01-0.021-0.021-0.031-0.031-0.303-0.314-0.629-0.598-0.938-0.906-0.325-0.339-0.668-0.668-1-1-0.325-0.339-0.668-0.668-1-1-0.325-0.339-0.668-0.668-1-1-0.328-0.341-0.666-0.666-1-1-0.325-0.339-0.637-0.668-0.969-1-0.01-0.011-0.021-0.021-0.031-0.031-0.011-0.01-0.021-0.021-0.031-0.031-0.308-0.319-0.624-0.624-0.938-0.938-0.323-0.336-0.671-0.64-1-0.969-0.325-0.339-0.668-0.668-1-1-0.325-0.339-0.668-0.668-1-1-0.328-0.341-0.666-0.666-1-1-0.323-0.336-0.64-0.671-0.969-1-0.01-0.011-0.021-0.021-0.031-0.031-0.095-0.091-0.186-0.191-0.281-0.281-0.227-0.233-0.458-0.458-0.688-0.688-0.01-0.011-0.021-0.021-0.031-0.031-0.011-0.01-0.021-0.021-0.031-0.031-0.303-0.314-0.629-0.598-0.938-0.906-0.325-0.339-0.668-0.668-1-1-0.325-0.339-0.668-0.668-1-1-0.328-0.341-0.666-0.666-1-1-0.323-0.336-0.64-0.671-0.969-1-0.01-0.011-0.021-0.021-0.031-0.031-0.095-0.091-0.186-0.191-0.281-0.281-0.227-0.233-0.458-0.458-0.688-0.688-0.01-0.011-0.021-0.021-0.031-0.031-0.011-0.01-0.021-0.021-0.031-0.031-0.303-0.314-0.629-0.598-0.938-0.906-0.325-0.339-0.668-0.668-1-1-0.325-0.339-0.668-0.668-1-1-0.328-0.341-0.666-0.666-1-1-0.323-0.336-0.64-0.671-0.969-1-0.01-0.011-0.021-0.021-0.031-0.031-0.095-0.091-0.186-0.191-0.281-0.281-0.227-0.233-0.458-0.458-0.688-0.688-0.01-0.011-0.021-0.021-0.031-0.031-0.011-0.01-0.021-0.021-0.031-0.031-0.303-0.314-0.629-0.598-0.938-0.906-0.325-0.339-0.668-0.668-1-1-0.325-0.339-0.668-0.668-1-1-0.325-0.339-0.668-0.668-1-1-0.328-0.341-0.666-0.666-1-1-0.325-0.339-0.637-0.668-0.969-1-0.01-0.011-0.021-0.021-0.031-0.031-0.011-0.01-0.021-0.021-0.031-0.031-0.308-0.319-0.624-0.624-0.938-0.938-0.323-0.336-0.671-0.64-1-0.969-0.325-0.339-0.668-0.668-1-1-0.325-0.339-0.668-0.668-1-1-0.328-0.341-0.666-0.666-1-1-0.323-0.336-0.64-0.671-0.969-1-0.01-0.011-0.021-0.021-0.031-0.031-0.095-0.091-0.186-0.191-0.281-0.281-0.227-0.233-0.458-0.458-0.688-0.688-0.01-0.011-0.021-0.021-0.031-0.031-0.011-0.01-0.021-0.021-0.031-0.031-0.303-0.314-0.629-0.598-0.938-0.906-0.325-0.339-0.668-0.668-1-1-0.325-0.339-0.668-0.668-1-1-0.328-0.341-0.666-0.666-1-1-0.323-0.336-0.64-0.671-0.969-1-0.01-0.011-0.021-0.021-0.031-0.031-0.095-0.091-0.186-0.191-0.281-0.281-0.227-0.233-0.458-0.458-0.688-0.688-0.01-0.011-0.021-0.021-0.031-0.031-0.011-0.01-0.021-0.021-0.031-0.031-0.303-0.314-0.629-0.598-0.938-0.906-0.325-0.339-0.668-0.668-1-1-0.325-0.339-0.668-0.668-1-1-0.325-0.339-0.668-0.668-1-1-0.328-0.341-0.666-0.666-1-1-0.325-0.339-0.637-0.668-0.969-1-0.01-0.011-0.021-0.021-0.031-0.031-0.006-0.005-0.026 0.005-0.031 0-0.308-0.32-0.624-0.624-0.938-0.938-0.325-0.339-0.668-0.668-1-1-0.325-0.339-0.668-0.668-1-1-0.325-0.339-0.668-0.668-1-1-0.328-0.341-0.666-0.666-1-1-0.323-0.336-0.64-0.671-0.969-1-0.01-0.011-0.021-0.021-0.031-0.031-0.096-0.092-0.185-0.19-0.281-0.281-0.227-0.233-0.458-0.458-0.688-0.688-0.01-0.011-0.021-0.021-0.031-0.031-0.011-0.01-0.021-0.021-0.031-0.031-0.303-0.314-0.629-0.598-0.938-0.906-0.325-0.339-0.668-0.668-1-1-0.325-0.339-0.668-0.668-1-1-0.328-0.341-0.666-0.666-1-1-0.323-0.336-0.64-0.671-0.969-1-0.01-0.011-0.021-0.021-0.031-0.031-0.095-0.091-0.186-0.191-0.281-0.281-0.227-0.233-0.458-0.458-0.688-0.688-0.01-0.011-0.021-0.021-0.031-0.031-0.011-0.01-0.021-0.021-0.031-0.031-0.303-0.314-0.629-0.598-0.938-0.906-0.325-0.339-0.668-0.668-1-1-0.325-0.339-0.668-0.668-1-1-0.328-0.341-0.666-0.666-1-1-0.323-0.336-0.64-0.671-0.969-1-0.01-0.011-0.021-0.021-0.031-0.031-0.095-0.091-0.186-0.191-0.281-0.281-0.227-0.233-0.458-0.458-0.688-0.688-0.01-0.011-0.021-0.021-0.031-0.031-0.011-0.01-0.021-0.021-0.031-0.031-0.303-0.314-0.629-0.598-0.938-0.906-0.325-0.339-0.668-0.668-1-1-0.325-0.339-0.668-0.668-1-1-0.325-0.339-0.668-0.668-1-1-0.328-0.341-0.666-0.666-1-1-0.325-0.339-0.637-0.668-0.969-1-0.01-0.011-0.021-0.021-0.031-0.031-0.011-0.01-0.021-0.021-0.031-0.031-0.308-0.319-0.624-0.624-0.938-0.938-0.323-0.336-0.671-0.64-1-0.969-0.325-0.339-0.668-0.668-1-1-0.325-0.339-0.668-0.668-1-1-0.328-0.341-0.666-0.666-1-1-0.323-0.336-0.64-0.671-0.969-1-0.01-0.011-0.021-0.021-0.031-0.031-0.095-0.091-0.186-0.191-0.281-0.281-0.227-0.233-0.458-0.458-0.688-0.688-0.01-0.011-0.021-0.021-0.031-0.031-0.011-0.01-0.021-0.021-0.031-0.031-0.303-0.314-0.629-0.598-0.938-0.906-0.325-0.339-0.668-0.668-1-1-0.325-0.339-0.668-0.668-1-1-0.328-0.341-0.666-0.666-1-1-0.323-0.336-0.64-0.671-0.969-1-0.01-0.011-0.021-0.021-0.031-0.031-0.095-0.091-0.186-0.191-0.281-0.281-0.227-0.233-0.458-0.458-0.688-0.688-0.01-0.011-0.021-0.021-0.031-0.031-0.011-0.01-0.021-0.021-0.031-0.031-0.303-0.314-0.629-0.598-0.938-0.906-0.325-0.339-0.668-0.668-1-1-0.325-0.339-0.668-0.668-1-1-0.328-0.341-0.666-0.666-1-1-0.323-0.336-0.64-0.671-0.969-1-0.01-0.011-0.021-0.021-0.031-0.031-0.095-0.091-0.186-0.191-0.281-0.281-0.227-0.233-0.458-0.458-0.688-0.688-0.01-0.011-0.021-0.021-0.031-0.031-0.011-0.01-0.021-0.021-0.031-0.031-0.303-0.314-0.629-0.598-0.938-0.906-0.325-0.339-0.668-0.668-1-1-0.325-0.339-0.668-0.668-1-1-0.325-0.339-0.668-0.668-1-1-0.328-0.341-0.666-0.666-1-1-0.325-0.339-0.637-0.668-0.969-1-0.01-0.011-0.021-0.021-0.031-0.031-0.006-0.005-0.026 0.005-0.031 0-0.313-0.325-0.619-0.65-0.938-0.969-0.323-0.336-0.671-0.64-1-0.969-0.325-0.339-0.668-0.668-1-1-0.325-0.339-0.668-0.668-1-1-0.328-0.341-0.666-0.666-1-1-0.323-0.336-0.64-0.671-0.969-1-0.01-0.011-0.021-0.021-0.031-0.031-0.095-0.091-0.186-0.191-0.281-0.281-0.227-0.233-0.458-0.458-0.688-0.688-0.01-0.011-0.021-0.021-0.031-0.031-0.011-0.01-0.021-0.021-0.031-0.031-0.303-0.314-0.629-0.598-0.938-0.906-0.325-0.339-0.668-0.668-1-1-0.325-0.339-0.668-0.668-1-1-0.328-0.341-0.666-0.666-1-1-0.323-0.336-0.64-0.671-0.969-1-0.01-0.011-0.021-0.021-0.031-0.031-0.095-0.091-0.186-0.191-0.281-0.281-0.227-0.233-0.458-0.458-0.688-0.688-0.01-0.011-0.021-0.021-0.031-0.031-0.011-0.01-0.021-0.021-0.031-0.031-0.303-0.314-0.629-0.598-0.938-0.906-0.325-0.339-0.668-0.668-1-1-0.325-0.339-0.668-0.668-1-1-0.325-0.339-0.668-0.668-1-1-0.328-0.341-0.666-0.666-1-1-0.325-0.339-0.637-0.668-0.969-1-0.01-0.011-0.021-0.021-0.031-0.031-0.011-0.01-0.021-0.021-0.031-0.031-0.308-0.319-0.624-0.624-0.938-0.938-0.323-0.336-0.671-0.64-1-0.969-0.325-0.339-0.668-0.668-1-1-0.325-0.339-0.668-0.668-1-1-0.328-0.341-0.666-0.666-1-1-0.323-0.336-0.64-0.671-0.969-1-0.01-0.011-0.021-0.021-0.031-0.031-0.095-0.091-0.186-0.191-0.281-0.281-0.227-0.233-0.458-0.458-0.688-0.688-0.01-0.011-0.021-0.021-0.031-0.031-0.011-0.01-0.021-0.021-0.031-0.031-0.303-0.314-0.629-0.598-0.938-0.906-0.325-0.339-0.668-0.668-1-1-0.325-0.339-0.668-0.668-1-1-0.328-0.341-0.666-0.666-1-1-0.323-0.336-0.64-0.671-0.969-1-0.01-0.011-0.021-0.021-0.031-0.031-0.095-0.091-0.186-0.191-0.281-0.281-0.227-0.233-0.458-0.458-0.688-0.688-0.01-0.011-0.021-0.021-0.031-0.031-0.011-0.01-0.021-0.021-0.031-0.031-0.303-0.314-0.629-0.598-0.938-0.906-0.325-0.339-0.668-0.668-1-1-0.325-0.339-0.668-0.668-1-1-0.328-0.341-0.666-0.666-1-1-0.323-0.336-0.64-0.671-0.969-1-0.01-0.011-0.021-0.021-0.031-0.031-0.095-0.091-0.186-0.191-0.281-0.281-0.227-0.233-0.458-0.458-0.688-0.688-0.01-0.011-0.021-0.021-0.031-0.031-0.011-0.01-0.021-0.021-0.031-0.031-0.303-0.314-0.629-0.598-0.938-0.906-0.325-0.339-0.668-0.668-1-1-0.325-0.339-0.668-0.668-1-1-0.325-0.339-0.668-0.668-1-1-13.213-13.756-31.728-21.786-51.25-21.594"/>
  <path id="path10" fill-opacity=".067" d="m256 1c-140.83 0-255 114.17-255 255s114.17 255 255 255 255-114.17 255-255-114.17-255-255-255m8.827 44.931c120.9 0 218.9 98 218.9 218.9s-98 218.9-218.9 218.9-218.93-98-218.93-218.9 98.03-218.9 218.93-218.9"/>
  <g id="g12" fill-opacity=".129">
   <path id="path14" d="m256 4.433c-138.94 0-251.57 112.63-251.57 251.57s112.63 251.57 251.57 251.57 251.57-112.63 251.57-251.57-112.63-251.57-251.57-251.57m5.885 38.556c120.9 0 218.9 98 218.9 218.9s-98 218.9-218.9 218.9-218.93-98-218.93-218.9 98.03-218.9 218.93-218.9"/>
   <path id="path16" d="m256 8.356c-136.77 0-247.64 110.87-247.64 247.64s110.87 247.64 247.64 247.64 247.64-110.87 247.64-247.64-110.87-247.64-247.64-247.64m2.942 31.691c120.9 0 218.9 98 218.9 218.9s-98 218.9-218.9 218.9-218.93-98-218.93-218.9 98.03-218.9 218.93-218.9"/>
  </g>
  <path id="path18" d="m253.04 7.859c-135.42 0-245.19 109.78-245.19 245.19 0 135.42 109.78 245.19 245.19 245.19 135.42 0 245.19-109.78 245.19-245.19 0-135.42-109.78-245.19-245.19-245.19zm0 26.297c120.9 0 218.9 98 218.9 218.9s-98 218.9-218.9 218.9-218.93-98-218.93-218.9 98.03-218.9 218.93-218.9z" stroke-opacity=".31" stroke="#000" stroke-width="4.904" fill="#fff"/>
 </g>
 <text id="text20" style="word-spacing:0;letter-spacing:0" font-size="129.23px" line-height="125%" y="231.36" x="729.64001" font-family="Gentium Book Basic">
  <tspan id="tspan22" y="231.36" x="729.64001"/>
 </text>
 <text id="text24" style="text-anchor:middle" font-size="46.954px" transform="scale(4.0128 .2492)" y="579.25" x="378.91" font-family="Arial"/>
 <text id="text26" style="word-spacing:0;letter-spacing:0" font-size="129.23px" line-height="125%" y="151.36" x="1310.91" font-family="Gentium Book Basic">
  <tspan id="tspan28" y="151.36" x="1310.91"/>
 </text>
 <text id="text30" style="text-anchor:middle" font-size="46.954px" transform="scale(4.0128 .2492)" y="258.22" x="523.76001" font-family="Arial"/>
 <text id="text32" style="word-spacing:0;letter-spacing:0" font-size="129.23px" line-height="125%" y="-29.900999" x="239.33" font-family="Gentium Book Basic">
  <tspan id="tspan34" y="-29.900999" x="239.33"/>
 </text>
 <text id="text36" style="text-anchor:middle" font-size="46.954px" transform="scale(4.0128 .2492)" y="-469.14001" x="256.72" font-family="Arial"/>
 <text id="text38" style="word-spacing:0;letter-spacing:0" font-size="129.23px" line-height="125%" y="-246.37" x="1337.38" font-family="Gentium Book Basic">
  <tspan id="tspan40" y="-246.37" x="1337.38"/>
 </text>
 <text id="text42" style="text-anchor:middle" font-size="46.954px" transform="scale(4.0128 .2492)" y="-1337.8101" x="530.35999" font-family="Arial"/>
 <text id="text44" style="word-spacing:0;letter-spacing:0" font-size="129.23px" line-height="125%" y="-326.38" x="1918.65" font-family="Gentium Book Basic">
  <tspan id="tspan46" y="-326.38" x="1918.65"/>
 </text>
 <text id="text48" style="text-anchor:middle" font-size="46.954px" transform="scale(4.0128 .2492)" y="-1658.85" x="675.21002" font-family="Arial"/>
 <text id="text50" style="word-spacing:0;letter-spacing:0" font-size="129.23px" line-height="125%" y="-798.78003" x="1529.53" font-family="Gentium Book Basic">
  <tspan id="tspan52" y="-798.78003" x="1529.53"/>
 </text>
 <text id="text54" style="text-anchor:middle" font-size="46.954px" transform="scale(4.0128 .2492)" y="-3554.51" x="578.23999" font-family="Arial"/>
 <text id="text56" style="word-spacing:0;letter-spacing:0" font-size="129.23px" line-height="125%" y="-878.78003" x="2110.79" font-family="Gentium Book Basic">
  <tspan id="tspan58" y="-878.78003" x="2110.79"/>
 </text>
 <text id="text60" style="text-anchor:middle" font-size="46.954px" transform="scale(4.0128 .2492)" y="-3875.54" x="723.09003" font-family="Arial"/>
 <text id="text62" style="word-spacing:0;letter-spacing:0" font-size="208.33px" line-height="125%" y="535.94" x="277.98999" font-family="Gentium Book Basic">
  <tspan id="tspan64" y="535.94" x="277.98999"/>
 </text>
 <path id="path66" d="m118.34 341.29c10.02 37.413 48.48 59.61 85.89 49.589 36.59-9.804 58.63-46.795 50.2-83.42l-9.735-49.28 44.24-15.15c0.129-0.034 0.258-0.069 0.387-0.104 3.318-0.889 6.522-2.01 9.589-3.327l0.404-0.133-0.052-0.011c31.29-13.628 48.75-48.45 39.648-82.42-10.02-37.413-48.48-59.64-85.9-49.612-36.59 9.804-58.62 46.818-50.2 83.44l8.978 48.19-43.27 16.188c-0.197 0.053-0.395 0.106-0.593 0.159-37.413 10.02-59.61 48.48-49.589 85.89m27.306-7.316c-5.337-19.916 4.64-40.32 22.705-48.737 49.619-17.432 0-0.265 49.754-17.533l0.145 0.45c9.272 49.659-0.137-0.225 9.436 50.53 2.18 20.16-10.575 39.477-30.772 44.889-22.324 5.982-45.29-7.276-51.27-29.6m93.72-102.72-2.979-15.13-0.029-0.017c-3.405-18.342 1.3 6.534-6.681-35.782-2.18-20.16 10.581-39.454 30.778-44.866 22.324-5.982 45.28 7.253 51.26 29.577 5.337 19.916-4.64 40.32-22.705 48.737-42.815 15.04-15.13 5.496-37.753 13.365-0.744 0.259-1.846 0.639-2.481 0.86-3.282 1.141-4.077 1.403-9.412 3.255" fill-rule="evenodd" fill="#fff"/>
</svg>
