<?xml version="1.0" encoding="UTF-8" standalone="no"?>
<!-- Created with Inkscape (http://www.inkscape.org/) -->
<svg id="svg2" xmlns:rdf="http://www.w3.org/1999/02/22-rdf-syntax-ns#" xmlns="http://www.w3.org/2000/svg" height="100%" viewBox="0 0 512 512" width="100%" version="1.1" xmlns:cc="http://creativecommons.org/ns#" xmlns:dc="http://purl.org/dc/elements/1.1/">
 <metadata id="metadata76">
  <rdf:RDF>
   <cc:Work rdf:about="">
    <dc:format>image/svg+xml</dc:format>
    <dc:type rdf:resource="http://purl.org/dc/dcmitype/StillImage"/>
   </cc:Work>
  </rdf:RDF>
 </metadata>
 <g id="g4" transform="translate(-231.54,-163.82)">
  <path id="path6" d="m703.49 416.87c0 120.9-98.01 218.9-218.9 218.9-120.9 0-218.9-98.01-218.9-218.9 0-120.9 98.01-218.9 218.9-218.9 120.9 0 218.9 98.01 218.9 218.9" fill-rule="evenodd" fill="#0078ad"/>
  <g id="g8" style="color:#000000" transform="translate(231.54,163.82)">
   <path id="path10" fill-opacity=".235" d="m274.41 86.75-41.28 12.03 0.5 1.719-0.375-0.188-75.78 143.84h-123.12c-0.118 2.951-0.219 5.926-0.219 8.906 0 15.442 1.615 30.492 4.656 45.03h0.563v1h1v1h1v1h1v1h0.969v0.969h1v1h1v1h1v1h1v1h1v1h0.969v0.969h1v1h1v1h1v1h1v1h1v1h1v1h0.969v0.969h1v1h1v1h1v1h1v1h1v1h0.969v0.969h1v1h1v1h1v1h1v1h1v1h0.964v0.969h1v1h1v1h1v1h1v1h1v1h1v1h0.969v0.969h1v1h1v1h1v1h1v1h1v1h0.969v0.969h1v1h1v1h1v1h1v1h1v1h0.969v0.969h1v1h1v1h1v1h1v1h1v1h0.969v0.969h1v1h1v1h1v1h1v1h1v1h1v1h0.969v0.969h1v1h1v1h1v1h1v1h1v1h0.969v0.969h1v1h1v1h1v1h1v1h1v1h0.969v0.969h1v1h1v1h1v1h1v1h1v1h1v1h0.969v0.969h1v1h1v1h1v1h1v1h1v1h0.969v0.969h1v1h1v1h1v1h1v1h1v1h0.969v0.969h1v1h1v1h1v1h1v1h1v1h0.969v0.969h1v1h1v1h1v1h1v1h1v1h1v1h0.969v0.969h1v1h1v1h1v1h1v1h1v1h0.969v0.969h1v1h1v1h1v1h1v1h1v1h0.969v0.969h1v1h1v1h1v1h1v1h1v1h1v1h0.969v0.969h1v1h1v1h1v1h1v1h1v1h0.969v0.969h1v1h1v1h1v1h1v1h1v1h0.969v0.969h1v1h1v1h1v1h1v1h1v1h0.969v0.969h1v1h1v1h1v1h1v1h1v1h1v1h0.969v0.969h1v1h1v1h1v1h1v1h1v1h0.969v0.969h1v1h1v1h1v1h1v1h1v1h0.969v0.969h1v1h1v1h1v1h1v1h1v1h1v1h0.969v0.969h1v0.938c0.094 0.02 0.188 0.043 0.281 0.063h0.719v0.156c14.385 2.974 29.26 4.563 44.531 4.563 112.9 0 205.82-85.48 217.63-195.25h-6.938c-0.002-0.007-0.25-0.906-0.25-0.906l-0.656 0.188c-0.003-0.012-0.344-1.188-0.344-1.188l-0.656 0.188c-0.003-0.012-0.344-1.188-0.344-1.188l-0.656 0.188c-0.003-0.012-0.344-1.188-0.344-1.188l-0.656 0.188-0.344-1.188-0.625 0.188c-0.003-0.011-0.344-1.156-0.344-1.156l-0.656 0.188c-0.003-0.012-0.344-1.188-0.344-1.188l-0.656 0.188c-0.003-0.012-0.344-1.188-0.344-1.188l-0.656 0.188c-0.003-0.012-0.344-1.188-0.344-1.188l-0.656 0.188c-0.003-0.012-0.344-1.188-0.344-1.188l-0.656 0.188c-0.003-0.012-0.344-1.188-0.344-1.188l-0.625 0.188c-0.003-0.011-0.344-1.156-0.344-1.156l-0.656 0.188c-0.003-0.012-0.344-1.188-0.344-1.188l-0.656 0.188c-0.003-0.012-0.344-1.188-0.344-1.188l-0.656 0.188c-0.003-0.012-0.344-1.188-0.344-1.188l-0.656 0.188c-0.003-0.012-0.344-1.188-0.344-1.188l-0.656 0.188-0.344-1.188-0.656 0.188-0.344-1.188-0.625 0.188-0.344-1.156-0.656 0.188c-0.003-0.012-0.344-1.188-0.344-1.188l-0.656 0.188c-0.003-0.012-0.344-1.188-0.344-1.188l-0.656 0.188c-0.003-0.012-0.344-1.188-0.344-1.188l-0.656 0.188c-0.003-0.012-0.344-1.188-0.344-1.188l-0.656 0.188c-0.003-0.012-0.344-1.188-0.344-1.188l-0.625 0.188c-0.003-0.011-0.344-1.156-0.344-1.156l-0.656 0.188-0.344-1.188-0.656 0.188-0.344-1.188-0.656 0.188c-0.003-0.012-0.344-1.188-0.344-1.188l-0.656 0.188c-0.003-0.012-0.344-1.188-0.344-1.188l-0.656 0.188c-0.003-0.012-0.344-1.188-0.344-1.188l-0.625 0.188-0.344-1.156-0.656 0.188-0.344-1.188-0.656 0.188-0.344-1.188-0.656 0.188c-0.003-0.012-0.344-1.188-0.344-1.188l-0.656 0.188c-0.003-0.012-0.344-1.188-0.344-1.188l-0.656 0.188c-0.003-0.012-0.344-1.188-0.344-1.188l-0.656 0.188c-0.003-0.012-0.344-1.188-0.344-1.188l-0.625 0.188c-0.003-0.011-0.344-1.156-0.344-1.156l-0.656 0.188-0.344-1.188-0.656 0.188c-0.003-0.012-0.344-1.188-0.344-1.188l-0.656 0.188c-0.003-0.012-0.344-1.188-0.344-1.188l-0.656 0.188c-0.003-0.012-0.344-1.188-0.344-1.188l-0.656 0.188c-0.003-0.012-0.344-1.188-0.344-1.188l-0.625 0.188c-0.003-0.011-0.344-1.156-0.344-1.156l-0.656 0.188c-0.003-0.012-0.344-1.188-0.344-1.188l-0.656 0.188-0.344-1.188-0.656 0.188-0.344-1.188-0.656 0.188c-0.003-0.012-0.344-1.188-0.344-1.188l-0.656 0.188c-0.003-0.012-0.344-1.188-0.344-1.188l-0.625 0.188c-0.003-0.011-0.344-1.156-0.344-1.156l-0.656 0.188c-0.003-0.012-0.344-1.188-0.344-1.188l-0.656 0.188c-0.003-0.012-0.344-1.188-0.344-1.188l-0.656 0.188-0.344-1.188-0.656 0.188-0.344-1.188-0.656 0.188c-0.003-0.012-0.344-1.188-0.344-1.188l-0.625 0.188c-0.003-0.011-0.344-1.156-0.344-1.156l-0.656 0.188c-0.003-0.012-0.344-1.188-0.344-1.188l-0.656 0.188c-0.003-0.012-0.344-1.188-0.344-1.188l-0.656 0.188c-0.003-0.012-0.344-1.188-0.344-1.188l-0.656 0.188-0.344-1.188-0.656 0.188-0.344-1.188-0.656 0.188c-0.003-0.012-0.344-1.188-0.344-1.188l-0.625 0.188c-0.003-0.011-0.344-1.156-0.344-1.156l-0.656 0.188c-0.003-0.012-0.344-1.188-0.344-1.188l-0.656 0.188c-0.003-0.012-0.344-1.188-0.344-1.188l-0.656 0.188c-0.003-0.012-0.344-1.188-0.344-1.188l-0.656 0.188-0.344-1.188-0.656 0.188-0.344-1.188-0.625 0.188c-0.003-0.011-0.344-1.156-0.344-1.156l-0.656 0.188c-0.003-0.012-0.344-1.188-0.344-1.188l-0.656 0.188c-0.003-0.012-0.344-1.188-0.344-1.188l-0.656 0.188c-0.003-0.012-0.344-1.188-0.344-1.188l-0.656 0.188c-0.003-0.012-0.344-1.188-0.344-1.188l-0.656 0.188c-0.003-0.012-0.344-1.188-0.344-1.188l-0.625 0.188-0.344-1.156-0.656 0.188c-0.003-0.012-0.344-1.188-0.344-1.188l-0.656 0.188c-0.003-0.012-0.344-1.188-0.344-1.188l-0.656 0.188c-0.003-0.012-0.344-1.188-0.344-1.188l-0.656 0.188c-0.003-0.012-0.344-1.188-0.344-1.188l-0.656 0.188c-0.003-0.012-0.344-1.188-0.344-1.188l-0.656 0.188-0.344-1.188-0.625 0.188-0.344-1.156-0.656 0.188c-0.003-0.012-0.344-1.188-0.344-1.188l-0.656 0.188c-0.003-0.012-0.344-1.188-0.344-1.188l-0.656 0.188c-0.003-0.012-0.344-1.188-0.344-1.188l-0.656 0.188c-0.003-0.012-0.344-1.188-0.344-1.188l-0.656 0.188c-0.003-0.012-0.344-1.188-0.344-1.188l-0.625 0.188-0.344-1.156-0.656 0.188-0.344-1.188-0.656 0.188c-0.003-0.012-0.344-1.188-0.344-1.188l-0.656 0.188c-0.003-0.012-0.344-1.188-0.344-1.188l-0.656 0.188c-0.003-0.012-0.344-1.188-0.344-1.188l-0.656 0.188c-0.003-0.012-0.344-1.188-0.344-1.188l-0.625 0.188c-0.003-0.011-0.344-1.156-0.344-1.156l-0.656 0.188c-0.003-0.012-0.344-1.188-0.344-1.188l-0.656 0.188-0.344-1.188-0.656 0.188c-0.003-0.012-0.344-1.188-0.344-1.188l-0.656 0.188c-0.003-0.012-0.344-1.188-0.344-1.188l-0.656 0.188c-0.003-0.012-0.344-1.188-0.344-1.188l-0.625 0.188c-0.003-0.011-0.344-1.156-0.344-1.156l-0.656 0.188c-0.003-0.012-0.344-1.188-0.344-1.188l-0.656 0.188c-0.003-0.012-0.344-1.188-0.344-1.188l-0.656 0.188-0.344-1.188-0.656 0.188c-0.003-0.012-0.344-1.188-0.344-1.188l-0.656 0.188c-0.003-0.012-0.344-1.188-0.344-1.188l-0.656 0.188c-0.003-0.012-0.344-1.188-0.344-1.188l-0.625 0.188c-0.003-0.011-0.344-1.156-0.344-1.156l-0.656 0.188c-0.003-0.012-0.344-1.188-0.344-1.188l-0.656 0.188c-0.003-0.012-0.344-1.188-0.344-1.188l-0.656 0.188-0.344-1.188-0.656 0.188c-0.003-0.012-0.344-1.188-0.344-1.188l-0.656 0.188c-0.003-0.012-0.344-1.188-0.344-1.188l-0.625 0.188c-0.003-0.011-0.344-1.156-0.344-1.156l-0.656 0.188c-0.003-0.012-0.344-1.188-0.344-1.188l-0.656 0.188c-0.003-0.012-0.344-1.188-0.344-1.188l-0.656 0.188c-0.003-0.012-0.344-1.188-0.344-1.188l-0.656 0.188-0.344-1.188-0.656 0.188c-0.003-0.012-0.344-1.188-0.344-1.188l-0.625 0.188c-0.003-0.011-0.344-1.156-0.344-1.156l-0.656 0.188c-0.003-0.012-0.344-1.188-0.344-1.188l-0.656 0.188c-0.003-0.012-0.344-1.188-0.344-1.188l-0.656 0.188c-0.003-0.012-0.344-1.188-0.344-1.188l-0.656 0.188c-0.003-0.012-0.344-1.188-0.344-1.188l-0.656 0.188-0.344-1.188-0.656 0.188c-0.003-0.012-0.344-1.188-0.344-1.188l-0.625 0.188c-0.003-0.011-0.344-1.156-0.344-1.156l-0.656 0.188c-0.003-0.012-0.344-1.188-0.344-1.188l-0.656 0.188c-0.003-0.012-0.344-1.188-0.344-1.188l-0.656 0.188c-0.003-0.012-0.344-1.188-0.344-1.188l-0.656 0.188c-0.003-0.012-0.344-1.188-0.344-1.188l-0.656 0.188-0.344-1.188-0.625 0.188-0.344-1.156-0.656 0.188c-0.003-0.012-0.344-1.188-0.344-1.188l-0.656 0.188c-0.003-0.012-0.344-1.188-0.344-1.188l-0.656 0.188c-0.003-0.012-0.344-1.188-0.344-1.188l-0.656 0.188-0.344-1.188-0.656 0.188-0.344-1.188-0.625 0.188-0.344-1.156-0.656 0.188-0.344-1.188-0.656 0.188-0.344-1.188-0.656 0.188-0.344-1.188-0.656 0.188-0.344-1.188-0.656 0.188-0.344-1.188-0.625 0.188-0.344-1.156-0.656 0.188-0.344-1.188-0.656 0.188-0.344-1.188-0.656 0.188-0.344-1.188-0.656 0.188-0.344-1.188-0.656 0.188-0.344-1.188-0.656 0.188-0.344-1.188-0.625 0.188c-0.003-0.011-0.344-1.156-0.344-1.156l-0.656 0.188-0.344-1.188-0.656 0.188-0.344-1.188-0.656 0.188-0.344-1.188-0.656 0.188-0.344-1.188-0.656 0.188-0.344-1.188-0.625 0.188-0.344-1.156-0.656 0.188-0.344-1.188-0.656 0.188-0.344-1.188-0.656 0.188-0.344-1.188-0.656 0.188-0.344-1.188-0.656 0.188-0.344-1.188-0.625 0.188-0.344-1.156-0.656 0.188-0.344-1.188-0.656 0.188-0.344-1.188-0.656 0.188-0.344-1.188-0.656 0.188-0.344-1.188-0.656 0.188-0.344-1.188-0.656 0.188-0.344-1.188-0.625 0.188-0.344-1.156-0.656 0.188-0.344-1.188-0.656 0.188-0.344-1.188-0.656 0.188-0.344-1.188-0.656 0.188-0.344-1.188-0.656 0.188-0.344-1.188-0.625 0.188-0.344-1.156-0.656 0.188-0.344-1.188-0.656 0.188-0.344-1.188-0.656 0.188-0.344-1.188-0.656 0.188-0.344-1.188-0.656 0.188-0.344-1.188-0.625 0.188-0.344-1.156-0.656 0.188-0.344-1.188-0.656 0.188-0.344-1.188-0.656 0.188-0.344-1.188-0.656 0.188-0.344-1.188-0.656 0.188-0.344-1.188-0.625 0.188-0.344-1.156-0.656 0.188-0.344-1.188-0.656 0.188-0.344-1.188-0.656 0.188-0.344-1.188"/>
   <path id="path12" fill="#fff" d="m274.41 86.75-41.28 12.03 0.5 1.719-0.375-0.188-75.78 143.84h-130.06v43h154.94v-0.063l0.844 0.438 67.59-128.22 64.875 222.25 1-0.281-0.938 1.719 37.75 20.594 45.19-82.87h75.81v-44h-99.47v0.5h-1v0.375l-0.625-0.344-28.25 51.813-70.72-242.31"/>
  </g>
  <g id="g14" fill-rule="evenodd">
   <path id="path16" fill-opacity=".067" d="m487.54 164.82c-140.83 0-255 114.17-255 255s114.17 255 255 255 255-114.17 255-255-114.17-255-255-255m8.827 44.931c120.9 0 218.9 98 218.9 218.9s-98 218.9-218.9 218.9-218.93-98-218.93-218.9 98.03-218.9 218.93-218.9"/>
   <g id="g18" fill-opacity=".129">
    <path id="path20" d="m487.54 168.25c-138.94 0-251.57 112.63-251.57 251.57s112.63 251.57 251.57 251.57 251.57-112.63 251.57-251.57-112.63-251.57-251.57-251.57m5.885 38.556c120.9 0 218.9 98 218.9 218.9s-98 218.9-218.9 218.9-218.93-98-218.93-218.9 98.03-218.9 218.93-218.9"/>
    <path id="path22" d="m487.54 172.18c-136.77 0-247.64 110.87-247.64 247.64s110.87 247.64 247.64 247.64 247.64-110.87 247.64-247.64-110.87-247.64-247.64-247.64m2.942 31.691c120.9 0 218.9 98 218.9 218.9s-98 218.9-218.9 218.9-218.93-98-218.93-218.9 98.03-218.9 218.93-218.9"/>
   </g>
   <path id="path24" d="m484.58 171.68c-135.42 0-245.19 109.78-245.19 245.19 0 135.42 109.78 245.19 245.19 245.19 135.42 0 245.19-109.78 245.19-245.19 0-135.42-109.78-245.19-245.19-245.19zm0 26.297c120.9 0 218.9 98 218.9 218.9s-98 218.9-218.9 218.9-218.93-98-218.93-218.9 98.03-218.9 218.93-218.9z" stroke-opacity=".31" stroke="#000" stroke-width="4.904" fill="#fff"/>
  </g>
  <text id="text26" style="word-spacing:0;letter-spacing:0" font-size="129.23px" line-height="125%" y="395.17999" x="961.17999" font-family="Gentium Book Basic">
   <tspan id="tspan28" y="395.17999" x="961.17999"/>
  </text>
  <text id="text30" style="text-anchor:middle" font-size="46.954px" transform="scale(4.0128 .2492)" y="1236.63" x="436.60999" font-family="Arial"/>
  <text id="text32" style="word-spacing:0;letter-spacing:0" font-size="129.23px" line-height="125%" y="315.17999" x="1542.45" font-family="Gentium Book Basic">
   <tspan id="tspan34" y="315.17999" x="1542.45"/>
  </text>
  <text id="text36" style="text-anchor:middle" font-size="46.954px" transform="scale(4.0128 .2492)" y="915.59998" x="581.46002" font-family="Arial"/>
  <text id="text38" style="word-spacing:0;letter-spacing:0" font-size="129.23px" line-height="125%" y="133.92" x="470.87" font-family="Gentium Book Basic">
   <tspan id="tspan40" y="133.92" x="470.87"/>
  </text>
  <text id="text42" style="text-anchor:middle" font-size="46.954px" transform="scale(4.0128 .2492)" y="188.25" x="314.42001" font-family="Arial"/>
  <text id="text44" style="word-spacing:0;letter-spacing:0" font-size="129.23px" line-height="125%" y="-82.550003" x="1568.92" font-family="Gentium Book Basic">
   <tspan id="tspan46" y="-82.550003" x="1568.92"/>
  </text>
  <text id="text48" style="text-anchor:middle" font-size="46.954px" transform="scale(4.0128 .2492)" y="-680.42999" x="588.06" font-family="Arial"/>
  <text id="text50" style="word-spacing:0;letter-spacing:0" font-size="129.23px" line-height="125%" y="-162.56" x="2150.1899" font-family="Gentium Book Basic">
   <tspan id="tspan52" y="-162.56" x="2150.1899"/>
  </text>
  <text id="text54" style="text-anchor:middle" font-size="46.954px" transform="scale(4.0128 .2492)" y="-1001.46" x="732.90997" font-family="Arial"/>
  <text id="text56" style="word-spacing:0;letter-spacing:0" font-size="129.23px" line-height="125%" y="-634.96002" x="1761.0699" font-family="Gentium Book Basic">
   <tspan id="tspan58" y="-634.96002" x="1761.0699"/>
  </text>
  <text id="text60" style="text-anchor:middle" font-size="46.954px" transform="scale(4.0128 .2492)" y="-2897.1299" x="635.94" font-family="Arial"/>
  <text id="text62" style="word-spacing:0;letter-spacing:0" font-size="129.23px" line-height="125%" y="-714.96002" x="2342.3301" font-family="Gentium Book Basic">
   <tspan id="tspan64" y="-714.96002" x="2342.3301"/>
  </text>
  <text id="text66" style="text-anchor:middle" font-size="46.954px" transform="scale(4.0128 .2492)" y="-3218.1599" x="780.78998" font-family="Arial"/>
  <text id="text68" style="word-spacing:0;letter-spacing:0" font-size="208.33px" line-height="125%" y="699.76001" x="509.53" font-family="Gentium Book Basic">
   <tspan id="tspan70" y="699.76001" x="509.53"/>
  </text>
 </g>
</svg>
