<?xml version="1.0" encoding="UTF-8" standalone="no"?>
<svg id="svg2" xmlns:rdf="http://www.w3.org/1999/02/22-rdf-syntax-ns#" xmlns="http://www.w3.org/2000/svg" height="100%" viewBox="0 0 512 512" width="100%" version="1.1" xmlns:cc="http://creativecommons.org/ns#" xmlns:dc="http://purl.org/dc/elements/1.1/">
 <metadata id="metadata70">
  <rdf:RDF>
   <cc:Work rdf:about="">
    <dc:format>image/svg+xml</dc:format>
    <dc:type rdf:resource="http://purl.org/dc/dcmitype/StillImage"/>
    <dc:title/>
   </cc:Work>
  </rdf:RDF>
 </metadata>
 <text id="text20" font-size="129.23px" style="word-spacing:0;letter-spacing:0" letter-spacing="0" line-height="125%" word-spacing="0" y="231.35997" x="729.64001" font-family="Gentium Book Basic">
  <tspan id="tspan22" y="231.35997" x="729.64001"/>
 </text>
 <text id="text24" font-size="46.954px" style="text-anchor:middle" transform="scale(4.0128 .24920)" y="579.25812" x="378.90805" font-family="Arial"/>
 <text id="text26" font-size="129.23px" style="word-spacing:0;letter-spacing:0" letter-spacing="0" line-height="125%" word-spacing="0" y="151.35997" x="1310.91" font-family="Gentium Book Basic">
  <tspan id="tspan28" y="151.35997" x="1310.91"/>
 </text>
 <text id="text30" font-size="46.954px" style="text-anchor:middle" transform="scale(4.0128 .24920)" y="258.21997" x="523.75732" font-family="Arial"/>
 <text id="text32" font-size="129.23px" style="word-spacing:0;letter-spacing:0" letter-spacing="0" line-height="125%" word-spacing="0" y="-29.900009" x="239.33" font-family="Gentium Book Basic">
  <tspan id="tspan34" y="-29.900009" x="239.33"/>
 </text>
 <text id="text36" font-size="46.954px" style="text-anchor:middle" transform="scale(4.0128 .24920)" y="-469.1264" x="256.71869" font-family="Arial"/>
 <text id="text38" font-size="129.23px" style="word-spacing:0;letter-spacing:0" letter-spacing="0" line-height="125%" word-spacing="0" y="-246.37001" x="1337.38" font-family="Gentium Book Basic">
  <tspan id="tspan40" y="-246.37001" x="1337.38"/>
 </text>
 <text id="text42" font-size="46.954px" style="text-anchor:middle" transform="scale(4.0128 .24920)" y="-1337.802" x="530.3573" font-family="Arial"/>
 <text id="text44" font-size="129.23px" style="word-spacing:0;letter-spacing:0" letter-spacing="0" line-height="125%" word-spacing="0" y="-326.37" x="1918.65" font-family="Gentium Book Basic">
  <tspan id="tspan46" y="-326.37" x="1918.65"/>
 </text>
 <text id="text48" font-size="46.954px" style="text-anchor:middle" transform="scale(4.0128 .24920)" y="-1658.8303" x="675.20654" font-family="Arial"/>
 <text id="text50" font-size="129.23px" style="word-spacing:0;letter-spacing:0" letter-spacing="0" line-height="125%" word-spacing="0" y="-798.77002" x="1529.53" font-family="Gentium Book Basic">
  <tspan id="tspan52" y="-798.77002" x="1529.53"/>
 </text>
 <text id="text54" font-size="46.954px" style="text-anchor:middle" transform="scale(4.0128 .24920)" y="-3554.4807" x="578.237" font-family="Arial"/>
 <text id="text56" font-size="129.23px" style="word-spacing:0;letter-spacing:0" letter-spacing="0" line-height="125%" word-spacing="0" y="-878.78003" x="2110.79" font-family="Gentium Book Basic">
  <tspan id="tspan58" y="-878.78003" x="2110.79"/>
 </text>
 <text id="text60" font-size="46.954px" style="text-anchor:middle" transform="scale(4.0128 .24920)" y="-3875.519" x="723.0863" font-family="Arial"/>
 <text id="text62" font-size="208.33px" style="word-spacing:0;letter-spacing:0" letter-spacing="0" line-height="125%" word-spacing="0" y="535.94006" x="277.98999" font-family="Gentium Book Basic">
  <tspan id="tspan64" y="535.94006" x="277.98999"/>
 </text>
 <path id="path4" d="m471.95 253.05c0 120.9-98.01 218.91-218.91 218.91s-218.91-98.01-218.91-218.91 98.01-218.91 218.91-218.91 218.91 98.01 218.91 218.91" fill-rule="evenodd" fill="#68af4c"/>
 <path id="path6" fill-opacity=".235" d="m244.41 119.63c-24.302 9.273-38.998 35.24-59.22 51.31l-35.563 34.938c-16.29 0.585-32.905-1.539-48.906 1.813-13.942 17.433-3.763 44.685-6.875 66.09-0.684 12.84-1.068 26.871 10.531 34.719 54.27 54.37 108.63 108.65 162.94 162.97 222.31-51.713 210.54-147.41 197.05-160.72-15.905-15.905 43.632 43.839-83.21-83-19.391-18.473-36.603-39.455-58.19-55.41-8.661-5.116-12.579-0.669-19.563-1.969-2.692-0.501-1.912 2.183-2.625 1.375-0.53-0.601-4.54-4.696-14.219-14.375-12.711-12.158-24.399-25.49-37.781-36.875z"/>
 <path id="path10-1" fill-rule="evenodd" fill-opacity=".067" d="m256 1c-140.83 0-255 114.17-255 255s114.17 255 255 255 255-114.17 255-255-114.17-255-255-255m8.827 44.931c120.9 0 218.9 98 218.9 218.9s-98 218.9-218.9 218.9-218.93-98-218.93-218.9 98.03-218.9 218.93-218.9"/>
 <path id="path14-7" d="m256 4.43c-138.94 0-251.57 112.63-251.57 251.57s112.63 251.57 251.57 251.57 251.57-112.63 251.57-251.57-112.63-251.57-251.57-251.57m5.885 38.556c120.9 0 218.9 98 218.9 218.9s-98 218.9-218.9 218.9-218.93-98-218.93-218.9 98.03-218.9 218.93-218.9" fill-rule="evenodd" fill-opacity=".129"/>
 <path id="path16-7" d="m256 8.36c-136.77 0-247.64 110.87-247.64 247.64s110.87 247.64 247.64 247.64 247.64-110.87 247.64-247.64-110.87-247.64-247.64-247.64m2.942 31.691c120.9 0 218.9 98 218.9 218.9s-98 218.9-218.9 218.9-218.93-98-218.93-218.9 98.03-218.9 218.93-218.9" fill-rule="evenodd" fill-opacity=".129"/>
 <path id="path18-4" d="m253.04 7.86c-135.42 0-245.19 109.78-245.19 245.19 0 135.42 109.78 245.19 245.19 245.19 135.42 0 245.19-109.78 245.19-245.19 0-135.42-109.78-245.19-245.19-245.19zm0 26.297c120.9 0 218.9 98 218.9 218.9s-98 218.9-218.9 218.9-218.93-98-218.93-218.9 98.03-218.9 218.93-218.9z" stroke-opacity=".31" fill-rule="evenodd" stroke="#000" stroke-width="4.904" fill="#fff"/>
 <text id="text20-0" font-size="129.23px" style="word-spacing:0;letter-spacing:0" line-height="125%" y="231.36" x="729.64001" font-family="Gentium Book Basic">
  <tspan id="tspan22-4" y="231.36" x="729.64001"/>
 </text>
 <text id="text24-0" style="text-anchor:middle" font-size="46.954px" transform="scale(4.0128 .24920)" y="579.25702" x="378.90805" font-family="Arial"/>
 <text id="text26-8" font-size="129.23px" style="word-spacing:0;letter-spacing:0" line-height="125%" y="151.36" x="1310.91" font-family="Gentium Book Basic">
  <tspan id="tspan28-1" y="151.36" x="1310.91"/>
 </text>
 <text id="text30-4" style="text-anchor:middle" font-size="46.954px" transform="scale(4.0128 .24920)" y="258.21869" x="523.75732" font-family="Arial"/>
 <text id="text32-7" font-size="129.23px" style="word-spacing:0;letter-spacing:0" line-height="125%" y="-29.9" x="239.33" font-family="Gentium Book Basic">
  <tspan id="tspan34-0" y="-29.9" x="239.33"/>
 </text>
 <text id="text36-7" style="text-anchor:middle" font-size="46.954px" transform="scale(4.0128 .24920)" y="-469.12759" x="256.71869" font-family="Arial"/>
 <text id="text38-8" font-size="129.23px" style="word-spacing:0;letter-spacing:0" line-height="125%" y="-246.37" x="1337.38" font-family="Gentium Book Basic">
  <tspan id="tspan40-8" y="-246.37" x="1337.38"/>
 </text>
 <text id="text42-1" style="text-anchor:middle" font-size="46.954px" transform="scale(4.0128 .24920)" y="-1337.7932" x="530.3573" font-family="Arial"/>
 <text id="text44-4" font-size="129.23px" style="word-spacing:0;letter-spacing:0" line-height="125%" y="-326.37" x="1918.65" font-family="Gentium Book Basic">
  <tspan id="tspan46-7" y="-326.37" x="1918.65"/>
 </text>
 <text id="text48-6" style="text-anchor:middle" font-size="46.954px" transform="scale(4.0128 .24920)" y="-1658.8214" x="675.20654" font-family="Arial"/>
 <text id="text50-6" font-size="129.23px" style="word-spacing:0;letter-spacing:0" line-height="125%" y="-798.77002" x="1529.53" font-family="Gentium Book Basic">
  <tspan id="tspan52-5" y="-798.77002" x="1529.53"/>
 </text>
 <text id="text54-5" style="text-anchor:middle" font-size="46.954px" transform="scale(4.0128 .24920)" y="-3554.4617" x="578.237" font-family="Arial"/>
 <text id="text56-6" font-size="129.23px" style="word-spacing:0;letter-spacing:0" line-height="125%" y="-878.78003" x="2110.79" font-family="Gentium Book Basic">
  <tspan id="tspan58-1" y="-878.78003" x="2110.79"/>
 </text>
 <text id="text60-3" style="text-anchor:middle" font-size="46.954px" transform="scale(4.0128 .24920)" y="-3875.5002" x="723.0863" font-family="Arial"/>
 <text id="text62-7" font-size="208.33px" style="word-spacing:0;letter-spacing:0" line-height="125%" y="535.94" x="277.98999" font-family="Gentium Book Basic">
  <tspan id="tspan64-1" y="535.94" x="277.98999"/>
 </text>
 <path id="path68" fill="#fff" d="m237.75 390.92c-3.154-1.537-5.375-3.653-54.601-52.04l-33.39-32.82h-21.296c-24.928 0-26.832-0.252-30.64-4.048-1.542-1.537-2.912-3.659-3.326-5.149-0.981-3.533-0.981-78.27 0-81.81 0.414-1.49 1.784-3.612 3.326-5.149 3.806-3.795 5.718-4.048 30.573-4.048h21.23l36.621-35.99c48.53-47.694 48.642-47.799 52.47-49.15 8.153-2.88 14.157 0.042 16.476 8.02 0.857 2.949 0.949 17.696 0.798 127.91-0.185 134.62 0.036 126.36-3.503 131.13-3.473 4.675-9.133 5.885-14.743 3.153"/>
 <path id="path70" fill="#fff" d="m306.88 344.46c-6.502-1.924-10.04-8.253-8.278-14.802 1-3.727 3.498-6.308 9.847-10.188 3.23-1.974 8.06-5.833 11.825-9.445 10.729-10.298 17.695-22.332 21.338-36.863 1.487-5.931 1.687-7.973 1.687-17.194s-0.2-11.255-1.68-17.12c-2.763-10.949-7.153-20.22-13.519-28.539-4.01-5.241-13.01-13.6-18.203-16.895-8.42-5.349-9.138-5.944-10.521-8.713-2.469-4.944-1.407-11.15 2.528-14.761 1.948-1.788 5.899-3.39 8.36-3.39 2.848 0 11.287 4.411 17.862 9.336 19.75 14.793 33.07 35.946 38.456 61.06 2.07 9.655 2.07 28.396 0 38.05-5.352 24.964-18.83 46.45-38.14 60.789-10.526 7.819-16.432 10.196-21.563 8.678"/>
 <path id="path72" fill="#fff" d="m276.76 304.37c-0.698-0.139-1.905-0.388-2.684-0.554-3.543-0.755-8.367-7.135-8.401-11.11-0.025-2.964 1.949-7.486 4.089-9.365 1.152-1.011 4.053-2.596 6.447-3.521 10.834-4.188 17.355-13.15 17.355-23.851 0-10.702-6.521-19.664-17.355-23.851-5.908-2.284-8.398-4.587-9.663-8.936-1.173-4.04-0.665-7.147 1.738-10.654 3.202-4.673 8.96-6.05 15.858-3.791 13.392 4.385 24.46 14.505 30.06 27.485 10.464 24.25 0.147 52.48-23.494 64.29-5.178 2.585-11.533 4.345-13.952 3.864"/>
</svg>
