<?xml version="1.0" encoding="UTF-8" standalone="no"?>
<!-- Created with Inkscape (http://www.inkscape.org/) -->
<svg id="svg2" xmlns:rdf="http://www.w3.org/1999/02/22-rdf-syntax-ns#" xmlns="http://www.w3.org/2000/svg" height="100%" viewBox="0 0 512 512" width="100%" version="1.1" xmlns:cc="http://creativecommons.org/ns#" xmlns:dc="http://purl.org/dc/elements/1.1/">
 <metadata id="metadata138">
  <rdf:RDF>
   <cc:Work rdf:about="">
    <dc:format>image/svg+xml</dc:format>
    <dc:type rdf:resource="http://purl.org/dc/dcmitype/StillImage"/>
   </cc:Work>
  </rdf:RDF>
 </metadata>
 <g id="g4" transform="translate(0,-540.36)">
  <text id="text6" style="word-spacing:0;letter-spacing:0" font-size="208.33px" line-height="125%" y="1089.88" x="-1160.48" font-family="Gentium Book Basic">
   <tspan id="tspan8" y="1089.88" x="-1160.48"/>
  </text>
  <text id="text10" style="text-anchor:middle" font-size="75.7px" transform="scale(4.0128 .2492)" y="3810.6299" x="28.534" font-family="Arial"/>
  <g id="g12" fill-rule="evenodd">
   <path id="path14" fill="#68af4c" d="m471.95 793.41c0 120.9-98.01 218.9-218.9 218.9-120.9 0-218.9-98.01-218.9-218.9 0-120.9 98.01-218.9 218.9-218.9 120.9 0 218.9 98.01 218.9 218.9"/>
   <path id="path16" d="m179.63 124.69c-25.27 0-45.844 20.293-45.844 45.563 0 12.834 5.31 24.45 13.844 32.781 0.43 0.446 0.865 0.884 1.313 1.313 0.257 0.262 0.518 0.526 0.781 0.781 0.327 0.337 0.663 0.673 1 1 0.255 0.263 0.52 0.524 0.781 0.781 0.429 0.448 0.866 0.882 1.313 1.313 0.249 0.255 0.496 0.501 0.75 0.75 0.442 0.459 0.883 0.903 1.344 1.344 0.257 0.262 0.518 0.526 0.781 0.781 0.327 0.337 0.663 0.673 1 1 0.327 0.337 0.663 0.673 1 1 0.277 0.286 0.56 0.565 0.844 0.844 0.329 0.342 0.661 0.668 1 1 0.339 0.353 0.681 0.69 1.031 1.031 0.43 0.446 0.865 0.884 1.313 1.313 0.257 0.262 0.518 0.526 0.781 0.781 0.327 0.337 0.663 0.673 1 1 0.255 0.263 0.52 0.524 0.781 0.781 0.395 0.412 0.778 0.822 1.188 1.219 0.294 0.303 0.604 0.58 0.906 0.875 0.43 0.446 0.865 0.884 1.313 1.313 0.257 0.262 0.518 0.526 0.781 0.781 0.327 0.337 0.663 0.673 1 1 0.255 0.263 0.52 0.524 0.781 0.781 0.429 0.448 0.866 0.882 1.313 1.313 0.249 0.255 0.496 0.501 0.75 0.75 0.442 0.459 0.883 0.903 1.344 1.344 0.257 0.262 0.518 0.526 0.781 0.781 0.327 0.337 0.663 0.673 1 1 0.255 0.263 0.52 0.524 0.781 0.781 0.429 0.448 0.866 0.882 1.313 1.313 0.249 0.255 0.496 0.501 0.75 0.75 0.442 0.459 0.883 0.903 1.344 1.344 0.257 0.262 0.518 0.526 0.781 0.781 0.327 0.337 0.663 0.673 1 1 0.327 0.337 0.663 0.673 1 1 0.255 0.263 0.52 0.524 0.781 0.781 0.395 0.412 0.778 0.822 1.188 1.219 0.294 0.303 0.604 0.58 0.906 0.875 0.415 0.43 0.85 0.836 1.281 1.25 0.241 0.246 0.472 0.509 0.719 0.75-7.219 5.453-10.717 4.467-19.313-2.969l0.875-0.406c-0.321 0.005-0.651 0.092-0.969 0.313-0.451-0.391-0.894-0.761-1.375-1.188l0.25-0.125c-0.102 0.001-0.21 0.007-0.313 0.031-0.791-0.702-1.62-1.422-2.5-2.219-6.583-5.957-13.582-8.676-20.375-8.75-0.453-0.005-0.893 0.013-1.344 0.031-0.481 0.019-0.959 0.048-1.438 0.094-22.967 2.188-42.61 33.983-35.719 70.72l5.156 28.344h0.813l0.188 1h0.812l0.188 1h0.813l0.188 1h0.781l0.188 0.969h0.813l0.188 1h0.813l0.188 1h0.813c0.013 0.07 0.188 1 0.188 1h0.813c0.013 0.071 0.188 1 0.188 1h0.813c0.013 0.071 0.188 1 0.188 1h0.781c0.012 0.068 0.188 0.969 0.188 0.969h0.813c0.013 0.072 0.188 1 0.188 1h0.813c0.013 0.072 0.188 1 0.188 1h0.813c0.013 0.073 0.188 1 0.188 1h0.813c0.013 0.073 0.188 1 0.188 1h0.813c0.013 0.073 0.188 1 0.188 1h0.781c0.013 0.07 0.188 0.969 0.188 0.969h0.813c0.014 0.074 0.188 1 0.188 1h0.813c0.014 0.075 0.188 1 0.188 1h0.813c0.014 0.075 0.188 1 0.188 1h0.813c0.014 0.075 0.188 1 0.188 1h0.813c0.014 0.076 0.188 1 0.188 1h0.781c0.013 0.072 0.188 0.969 0.188 0.969h0.813c0.014 0.077 0.188 1 0.188 1h0.813c0.014 0.077 0.188 1 0.188 1h0.813c0.014 0.078 0.188 1 0.188 1h0.813c0.014 0.078 0.188 1 0.188 1h0.813c0.014 0.078 0.188 1 0.188 1h0.813c0.014 0.079 0.188 1 0.188 1h0.781c0.014 0.075 0.188 0.969 0.188 0.969h0.813c0.015 0.08 0.188 1 0.188 1h0.813c0.015 0.08 0.188 1 0.188 1h0.813c0.015 0.08 0.188 1 0.188 1h0.813c0.015 0.081 0.188 1 0.188 1h0.813c0.015 0.081 0.188 1 0.188 1h0.781c0.014 0.077 0.188 0.969 0.188 0.969h0.813c0.015 0.083 0.188 1 0.188 1h0.813c0.015 0.083 0.188 1 0.188 1h0.813c0.015 0.083 0.188 1 0.188 1h0.813c0.015 0.084 0.188 1 0.188 1h0.813c0.015 0.084 0.188 1 0.188 1h0.781c0.015 0.08 0.188 0.969 0.188 0.969h0.813c0.016 0.086 0.188 1 0.188 1h0.813c0.016 0.086 0.188 1 0.188 1h0.813c0.016 0.087 0.188 1 0.188 1h0.813c0.016 0.087 0.188 1 0.188 1h0.813c0.016 0.087 0.188 1 0.188 1h0.813c0.016 0.088 0.187 1 0.188 1h0.781c0.015 0.084 0.188 0.969 0.188 0.969h0.813c0.016 0.089 0.187 1 0.188 1h0.813c0.016 0.09 0.187 1 0.188 1h0.813c0.016 0.09 0.187 1 0.188 1h0.813c0.016 0.091 0.187 1 0.188 1h0.813c0.017 0.091 0.187 1 0.188 1h0.781c0.016 0.087 0.187 0.969 0.188 0.969h0.813c0.017 0.093 0.187 1 0.188 1h0.813c0.017 0.093 0.187 1 0.188 1h0.813c0.017 0.094 0.187 1 0.188 1h0.813c0.017 0.094 0.187 1 0.188 1h0.813c0.017 0.095 0.187 1 0.188 1h0.781c0.016 0.09 0.187 0.969 0.188 0.969h0.813c0.018 0.097 0.187 1 0.188 1h0.813c0.018 0.097 0.187 1 0.188 1h0.813c0.018 0.098 0.187 1 0.188 1h0.813c0.018 0.098 0.187 1 0.188 1h0.813c0.018 0.099 0.187 1 0.188 1h0.781c0.017 0.094 0.187 0.969 0.188 0.969h0.813c0.018 0.101 0.187 1 0.188 1h0.813c0.018 0.101 0.187 1 0.188 1h0.813c0.019 0.102 0.187 1 0.188 1h0.813c0.019 0.103 0.187 1 0.188 1h0.813c0.019 0.103 0.187 1 0.188 1h0.813c0.019 0.104 0.187 1 0.188 1h0.781c0.018 0.099 0.187 0.969 0.188 0.969h0.813c0.019 0.106 0.187 1 0.188 1h0.813c0.019 0.106 0.187 1 0.188 1h0.813c0.02 0.107 0.187 1 0.188 1h0.813c0.02 0.108 0.187 1 0.188 1h0.813c0.02 0.109 0.187 1 0.188 1h0.781c0.019 0.104 0.187 0.969 0.188 0.969h0.813c0.02 0.111 0.187 1 0.188 1h0.813c0.02 0.112 0.187 1 0.188 1h0.813c0.02 0.112 0.187 1 0.188 1h0.813c0.021 0.113 0.187 1 0.188 1h0.813c0.021 0.114 0.187 1 0.188 1h0.781c0.02 0.109 0.187 0.969 0.188 0.969h0.813c0.021 0.116 0.187 1 0.188 1h0.813c0.021 0.117 0.187 1 0.188 1h0.813c0.021 0.118 0.187 1 0.188 1h0.813c0.022 0.119 0.187 1 0.188 1h0.813c0.022 0.12 0.187 1 0.188 1h0.813c0.022 0.121 0.187 1 0.188 1h0.781c0.021 0.115 0.187 0.969 0.188 0.969h0.813c0.022 0.123 0.187 1 0.188 1h0.813c0.023 0.124 0.187 1 0.188 1h0.813c0.023 0.125 0.187 1 0.188 1h0.813c0.023 0.126 0.187 1 0.188 1h0.813c0.023 0.127 0.187 1 0.188 1h0.781c0.022 0.122 0.187 0.969 0.188 0.969h0.813c0.024 0.13 0.187 1 0.188 1h0.813c0.024 0.131 0.187 1 0.188 1h0.813c0.024 0.132 0.187 1 0.188 1h0.813c0.024 0.133 0.187 1 0.188 1h0.813c0.024 0.134 0.187 1 0.188 1h0.781c0.023 0.128 0.187 0.969 0.188 0.969h0.813c0.025 0.137 0.187 1 0.188 1h0.813c0.025 0.138 0.187 1 0.188 1h0.813c0.025 0.14 0.187 1 0.188 1h0.813c0.026 0.141 0.187 1 0.188 1h0.813c0.026 0.143 0.187 1 0.188 1h0.781c0.025 0.136 0.187 0.969 0.188 0.969h0.813c0.026 0.146 0.187 1 0.188 1h0.813c0.027 0.147 0.187 1 0.188 1h0.813c0.027 0.149 0.187 1 0.188 1h0.813c0.027 0.15 0.187 1 0.188 1h0.813c0.028 0.152 0.187 1 0.188 1h0.813c0.028 0.153 0.187 1 0.188 1h0.781c0.027 0.146 0.187 0.969 0.188 0.969h0.813c0.029 0.157 0.187 1 0.188 1h0.813c0.029 0.158 0.187 1 0.188 1h0.813c0.029 0.16 0.187 1 0.188 1h0.813c0.029 0.162 0.187 1 0.188 1h0.813c0.03 0.163 0.187 1 0.188 1h0.781c0.028 0.156 0.187 0.969 0.188 0.969h0.813c0.031 0.168 0.187 1 0.188 1h0.813c0.031 0.17 0.187 1 0.188 1h0.813c0.031 0.172 0.187 1 0.188 1h0.813c0.032 0.173 0.187 1 0.188 1h0.813c0.032 0.175 0.187 1 0.188 1h0.781c0.031 0.169 0.187 0.969 0.188 0.969h0.813c0.033 0.181 0.187 1 0.188 1h0.813c0.033 0.182 0.187 1 0.188 1h0.813c0.034 0.185 0.187 1 0.188 1h0.813c0.034 0.187 0.187 1 0.188 1h0.813c0.034 0.189 0.187 1 0.188 1h0.813c0.035 0.192 0.187 1 0.188 1h0.781c0.034 0.184 0.187 0.969 0.188 0.969h0.813c0.036 0.197 0.187 1 0.188 1h0.813c0.036 0.2 0.187 1 0.188 1h0.813c0.037 0.203 0.187 1 0.188 1h0.813c0.037 0.205 0.187 1 0.188 1h0.813c0.038 0.208 0.187 1 0.188 1h0.781c0.037 0.201 0.187 0.969 0.188 0.969h0.813c0.039 0.216 0.187 1 0.188 1h0.813c0.04 0.219 0.187 1 0.188 1h0.813c0.04 0.221 0.187 1 0.188 1h0.813c0.039 0.212 0.172 0.854 0.188 0.938 119.69-1.407 216.28-98.85 216.28-218.87 0-2.435-0.046-4.866-0.125-7.281-0.105-0.103-0.205-0.212-0.313-0.313-0.147-0.155-0.319-0.284-0.469-0.438-0.493-0.539-1.013-1.048-1.531-1.563-0.482-0.508-0.964-1.014-1.469-1.5-0.376-0.385-0.767-0.753-1.156-1.125-0.445-0.452-0.88-0.911-1.344-1.344-0.147-0.155-0.319-0.284-0.469-0.438-0.618-0.675-1.28-1.301-1.938-1.938-0.198-0.204-0.392-0.424-0.594-0.625-0.528-0.557-1.07-1.096-1.625-1.625-0.249-0.252-0.496-0.504-0.75-0.75-0.522-0.538-1.046-1.082-1.594-1.594-0.452-0.477-0.935-0.918-1.406-1.375-0.198-0.204-0.392-0.424-0.594-0.625-0.482-0.508-0.964-1.014-1.469-1.5-0.376-0.385-0.767-0.753-1.156-1.125-0.445-0.452-0.88-0.911-1.344-1.344-0.147-0.155-0.319-0.284-0.469-0.438-0.493-0.539-1.013-1.048-1.531-1.563-0.482-0.508-0.964-1.014-1.469-1.5-0.376-0.385-0.767-0.753-1.156-1.125-0.445-0.452-0.88-0.911-1.344-1.344-0.147-0.155-0.319-0.284-0.469-0.438-0.618-0.675-1.28-1.301-1.938-1.938-0.198-0.204-0.392-0.424-0.594-0.625-0.528-0.557-1.07-1.096-1.625-1.625-0.445-0.452-0.88-0.911-1.344-1.344-0.147-0.155-0.319-0.284-0.469-0.438-0.618-0.675-1.28-1.301-1.938-1.938-0.198-0.204-0.392-0.424-0.594-0.625-0.482-0.508-0.964-1.014-1.469-1.5-0.376-0.385-0.767-0.753-1.156-1.125-0.445-0.452-0.88-0.911-1.344-1.344-0.147-0.155-0.319-0.284-0.469-0.438-0.493-0.539-1.013-1.048-1.531-1.563-0.482-0.508-0.964-1.014-1.469-1.5-0.376-0.385-0.767-0.753-1.156-1.125-0.445-0.452-0.88-0.911-1.344-1.344-0.147-0.155-0.319-0.284-0.469-0.438-0.493-0.539-1.013-1.048-1.531-1.563-0.482-0.508-0.964-1.014-1.469-1.5-0.376-0.385-0.767-0.753-1.156-1.125-0.445-0.452-0.88-0.911-1.344-1.344-0.147-0.155-0.319-0.284-0.469-0.438-0.618-0.675-1.28-1.301-1.938-1.938-0.292-0.301-0.575-0.614-0.875-0.906-0.44-0.456-0.885-0.906-1.344-1.344-0.249-0.252-0.496-0.504-0.75-0.75-0.522-0.538-1.046-1.082-1.594-1.594-0.114-0.113-0.229-0.232-0.344-0.344-0.344-0.355-0.707-0.687-1.063-1.031-0.276-0.284-0.561-0.567-0.844-0.844-0.409-0.425-0.794-0.872-1.219-1.281-0.376-0.385-0.767-0.753-1.156-1.125-0.445-0.452-0.88-0.911-1.344-1.344-0.15-0.149-0.316-0.29-0.469-0.438-0.174-0.19-0.354-0.375-0.531-0.563-0.084-0.083-0.166-0.168-0.25-0.25-0.322-0.335-0.668-0.644-1-0.969-0.409-0.425-0.794-0.872-1.219-1.281-0.376-0.385-0.767-0.753-1.156-1.125-0.445-0.452-0.88-0.911-1.344-1.344-0.15-0.149-0.316-0.29-0.469-0.438-0.174-0.19-0.354-0.375-0.531-0.563-0.084-0.083-0.166-0.168-0.25-0.25-0.322-0.335-0.668-0.644-1-0.969-0.409-0.425-0.794-0.872-1.219-1.281-0.376-0.385-0.767-0.753-1.156-1.125-0.445-0.452-0.88-0.911-1.344-1.344-0.15-0.149-0.316-0.29-0.469-0.438-0.174-0.19-0.354-0.375-0.531-0.563-0.114-0.113-0.229-0.232-0.344-0.344-0.344-0.355-0.707-0.687-1.063-1.031-0.292-0.301-0.575-0.614-0.875-0.906-0.44-0.456-0.885-0.906-1.344-1.344-0.249-0.252-0.496-0.504-0.75-0.75-0.522-0.538-1.046-1.082-1.594-1.594-0.452-0.477-0.935-0.918-1.406-1.375-0.198-0.204-0.392-0.424-0.594-0.625-0.482-0.508-0.964-1.014-1.469-1.5-0.376-0.385-0.767-0.753-1.156-1.125-0.445-0.452-0.88-0.911-1.344-1.344-0.147-0.155-0.319-0.284-0.469-0.438-0.493-0.539-1.013-1.048-1.531-1.563-0.482-0.508-0.964-1.014-1.469-1.5-0.376-0.385-0.767-0.753-1.156-1.125-0.445-0.452-0.88-0.911-1.344-1.344-0.147-0.155-0.319-0.284-0.469-0.438-0.618-0.675-1.28-1.301-1.938-1.938-0.198-0.204-0.392-0.424-0.594-0.625-0.528-0.557-1.07-1.096-1.625-1.625-0.249-0.252-0.496-0.504-0.75-0.75-0.522-0.538-1.046-1.082-1.594-1.594-0.452-0.477-0.935-0.918-1.406-1.375-0.198-0.204-0.392-0.424-0.594-0.625-0.482-0.508-0.964-1.014-1.469-1.5-0.376-0.385-0.767-0.753-1.156-1.125-0.445-0.452-0.88-0.911-1.344-1.344-8.361-8.827-20.23-14.313-33.375-14.313-25.27 0-45.844 20.293-45.844 45.563 0 0.221 0.028 0.436 0.031 0.656 0.33 0.21 0.644 0.44 0.969 0.656 0.008 0.114 0.03 0.228 0.031 0.344 0.33 0.21 0.644 0.44 0.969 0.656 0.008 0.114 0.03 0.228 0.031 0.344 0.33 0.21 0.644 0.44 0.969 0.656 0.008 0.114 0.03 0.228 0.031 0.344 0.319 0.203 0.623 0.416 0.938 0.625 0.008 0.114 0.03 0.228 0.031 0.344 0.327 0.208 0.646 0.442 0.969 0.656 0.008 0.114 0.03 0.228 0.031 0.344 0.33 0.21 0.644 0.44 0.969 0.656 0.008 0.114 0.03 0.228 0.031 0.344 0.33 0.21 0.644 0.44 0.969 0.656 0.008 0.114 0.03 0.228 0.031 0.344 0.33 0.21 0.644 0.44 0.969 0.656 0.008 0.114 0.03 0.228 0.031 0.344 0.33 0.21 0.644 0.44 0.969 0.656 0.008 0.114 0.03 0.228 0.031 0.344 0.319 0.203 0.623 0.416 0.938 0.625 0.008 0.114 0.03 0.228 0.031 0.344 0.327 0.208 0.646 0.442 0.969 0.656 0.008 0.114 0.03 0.228 0.031 0.344 0.33 0.21 0.644 0.44 0.969 0.656 0.008 0.114 0.03 0.228 0.031 0.344 0.33 0.21 0.644 0.44 0.969 0.656 0.008 0.114 0.03 0.228 0.031 0.344 0.33 0.21 0.644 0.44 0.969 0.656 0.008 0.114 0.03 0.228 0.031 0.344 0.33 0.21 0.644 0.44 0.969 0.656 0.008 0.114 0.03 0.228 0.031 0.344 0.319 0.203 0.623 0.416 0.938 0.625 0.008 0.114 0.03 0.228 0.031 0.344 0.283 0.18 0.564 0.377 0.844 0.563 0.049 0.075 0.107 0.144 0.156 0.219 0.005 0.072-0.001 0.145 0 0.219 0.082 0.052 0.168 0.103 0.25 0.156 4.375 6.82 7.287 14.657 8.313 23.06-0.128-0.14-0.276-0.268-0.406-0.406-0.15-0.18-0.316-0.354-0.469-0.531-0.124-0.136-0.249-0.272-0.375-0.406-0.268-0.303-0.535-0.611-0.813-0.906-0.189-0.227-0.4-0.433-0.594-0.656-0.075-0.081-0.143-0.169-0.219-0.25-0.27-0.305-0.534-0.609-0.813-0.906-0.269-0.304-0.535-0.61-0.813-0.906-0.277-0.314-0.557-0.632-0.844-0.938-0.268-0.303-0.536-0.611-0.813-0.906-0.269-0.305-0.534-0.609-0.813-0.906-0.27-0.306-0.534-0.609-0.813-0.906-0.174-0.21-0.353-0.419-0.531-0.625-0.071-0.077-0.148-0.142-0.219-0.219-0.296-0.337-0.6-0.672-0.906-1-0.351-0.398-0.697-0.803-1.063-1.188-0.096-0.113-0.184-0.232-0.281-0.344-0.02-0.022-0.042-0.041-0.063-0.063-0.422-0.486-0.838-0.971-1.281-1.438-0.1-0.118-0.211-0.227-0.313-0.344-0.06-0.065-0.128-0.123-0.188-0.188-0.296-0.338-0.6-0.671-0.906-1-0.186-0.224-0.372-0.436-0.563-0.656-0.08-0.088-0.169-0.163-0.25-0.25-0.183-0.221-0.375-0.439-0.563-0.656-0.079-0.086-0.17-0.164-0.25-0.25-0.194-0.233-0.395-0.458-0.594-0.688-0.07-0.077-0.148-0.143-0.219-0.219-0.616-0.741-1.276-1.457-1.938-2.156-0.106-0.125-0.205-0.251-0.313-0.375-0.069-0.075-0.149-0.144-0.219-0.219-0.478-0.544-0.934-1.105-1.438-1.625-0.06-0.065-0.127-0.123-0.188-0.188-0.344-0.393-0.674-0.807-1.031-1.188-8.407-9.441-20.691-15.375-34.34-15.375-3.03 0-5.979 0.318-8.844 0.875-0.281-0.282-0.555-0.569-0.844-0.844-0.445-0.452-0.88-0.911-1.344-1.344-0.147-0.155-0.319-0.284-0.469-0.438-0.618-0.675-1.28-1.301-1.938-1.938-0.198-0.204-0.392-0.424-0.594-0.625-0.528-0.557-1.07-1.096-1.625-1.625-0.249-0.252-0.496-0.504-0.75-0.75-0.522-0.538-1.046-1.082-1.594-1.594-0.452-0.477-0.935-0.918-1.406-1.375-0.198-0.204-0.392-0.424-0.594-0.625-0.482-0.508-0.964-1.014-1.469-1.5-0.376-0.385-0.767-0.753-1.156-1.125-0.445-0.452-0.88-0.911-1.344-1.344-0.147-0.155-0.319-0.284-0.469-0.438-0.493-0.539-1.013-1.048-1.531-1.563-0.482-0.508-0.964-1.014-1.469-1.5-0.376-0.385-0.767-0.753-1.156-1.125-0.445-0.452-0.88-0.911-1.344-1.344-0.147-0.155-0.319-0.284-0.469-0.438-0.618-0.675-1.28-1.301-1.938-1.938-0.198-0.204-0.392-0.424-0.594-0.625-0.528-0.557-1.07-1.096-1.625-1.625-0.249-0.252-0.496-0.504-0.75-0.75-0.522-0.538-1.046-1.082-1.594-1.594-0.452-0.477-0.935-0.918-1.406-1.375-0.198-0.204-0.392-0.424-0.594-0.625-0.482-0.508-0.964-1.014-1.469-1.5-0.376-0.385-0.767-0.753-1.156-1.125-0.445-0.452-0.88-0.911-1.344-1.344-8.361-8.827-20.23-14.313-33.375-14.313m132.09 86.81c0.175 0.085 0.355 0.167 0.531 0.25 0.019 0.146 0.045 0.291 0.063 0.438-0.198-0.22-0.391-0.441-0.594-0.656-0.005-0.006 0.005-0.026 0-0.031m0.781 0.875c0.246 0.121 0.501 0.227 0.75 0.344 0.025 0.199 0.07 0.394 0.094 0.594 0.299 0.149 0.604 0.264 0.906 0.406 0.025 0.199 0.07 0.394 0.094 0.594 0.299 0.149 0.604 0.264 0.906 0.406 0.024 0.188 0.041 0.374 0.063 0.563 0.298 0.148 0.605 0.296 0.906 0.438 0.024 0.189 0.072 0.373 0.094 0.563 0.298 0.148 0.605 0.296 0.906 0.438 0.024 0.189 0.072 0.373 0.094 0.563 0.298 0.148 0.605 0.296 0.906 0.438 0.024 0.189 0.072 0.373 0.094 0.563 0.296 0.147 0.607 0.265 0.906 0.406 0.025 0.199 0.07 0.394 0.094 0.594 0.299 0.149 0.604 0.264 0.906 0.406 0.025 0.199 0.07 0.394 0.094 0.594 0.299 0.149 0.604 0.264 0.906 0.406 0.024 0.188 0.041 0.374 0.063 0.563 0.298 0.148 0.605 0.296 0.906 0.438 0.024 0.189 0.072 0.373 0.094 0.563 0.298 0.148 0.605 0.296 0.906 0.438 0.024 0.189 0.072 0.373 0.094 0.563 0.298 0.148 0.605 0.296 0.906 0.438 0.024 0.189 0.072 0.373 0.094 0.563 0.296 0.147 0.607 0.265 0.906 0.406 0.025 0.199 0.07 0.394 0.094 0.594 0.299 0.149 0.604 0.264 0.906 0.406 0.025 0.199 0.07 0.394 0.094 0.594 0.299 0.149 0.604 0.264 0.906 0.406 0.024 0.188 0.041 0.374 0.063 0.563 0.298 0.148 0.605 0.296 0.906 0.438 0.024 0.189 0.072 0.373 0.094 0.563 0.298 0.148 0.605 0.296 0.906 0.438 0.024 0.189 0.072 0.373 0.094 0.563 0.298 0.148 0.605 0.296 0.906 0.438 0.024 0.189 0.072 0.373 0.094 0.563 0.298 0.148 0.605 0.296 0.906 0.438 0.024 0.189 0.072 0.373 0.094 0.563 0.299 0.149 0.604 0.264 0.906 0.406 0.025 0.199 0.07 0.394 0.094 0.594 0.29 0.144 0.581 0.268 0.875 0.406 0.024 0.191 0.071 0.371 0.094 0.563 0.298 0.148 0.605 0.296 0.906 0.438 0.024 0.189 0.072 0.373 0.094 0.563 0.298 0.148 0.605 0.296 0.906 0.438 0.024 0.189 0.072 0.373 0.094 0.563 0.298 0.148 0.605 0.296 0.906 0.438 0.024 0.189 0.072 0.373 0.094 0.563 0.298 0.148 0.605 0.296 0.906 0.438 0.024 0.189 0.072 0.373 0.094 0.563 0.296 0.147 0.607 0.265 0.906 0.406 0.025 0.199 0.07 0.394 0.094 0.594 0.299 0.149 0.604 0.264 0.906 0.406 0.025 0.199 0.07 0.394 0.094 0.594 0.299 0.149 0.604 0.264 0.906 0.406 0.024 0.188 0.041 0.374 0.063 0.563 0.298 0.148 0.605 0.296 0.906 0.438 0.024 0.189 0.072 0.373 0.094 0.563 0.083 0.041 0.167 0.084 0.25 0.125-0.598 0.495-1.169 0.985-1.719 1.406-0.313-0.352-0.641-0.693-0.969-1.031-0.019-0.022-0.044-0.04-0.063-0.063-0.056-0.058-0.099-0.13-0.156-0.188-0.035-0.038-0.059-0.087-0.094-0.125-0.162-0.189-0.334-0.377-0.5-0.563-0.071-0.085-0.147-0.166-0.219-0.25-0.203-0.222-0.416-0.44-0.625-0.656-0.071-0.086-0.147-0.165-0.219-0.25-0.199-0.218-0.389-0.444-0.594-0.656-0.273-0.305-0.528-0.612-0.813-0.906-0.27-0.301-0.532-0.615-0.813-0.906-0.281-0.314-0.551-0.634-0.844-0.938-0.268-0.299-0.534-0.617-0.813-0.906-0.272-0.305-0.529-0.612-0.813-0.906-0.272-0.304-0.53-0.612-0.813-0.906-0.094-0.114-0.185-0.231-0.281-0.344-0.175-0.192-0.352-0.375-0.531-0.563-0.094-0.113-0.186-0.232-0.281-0.344-0.03-0.033-0.064-0.061-0.094-0.094-0.413-0.48-0.843-0.949-1.281-1.406-0.095-0.114-0.185-0.231-0.281-0.344-0.04-0.043-0.085-0.082-0.125-0.125-0.395-0.459-0.801-0.906-1.219-1.344-0.103-0.124-0.208-0.252-0.313-0.375-0.02-0.022-0.043-0.041-0.063-0.063-0.412-0.48-0.844-0.949-1.281-1.406-0.106-0.127-0.205-0.249-0.313-0.375-0.164-0.179-0.332-0.355-0.5-0.531-0.104-0.125-0.207-0.252-0.313-0.375-0.163-0.178-0.333-0.356-0.5-0.531-0.114-0.137-0.228-0.271-0.344-0.406-0.156-0.171-0.309-0.332-0.469-0.5-0.113-0.136-0.229-0.272-0.344-0.406-0.02-0.022-0.043-0.041-0.063-0.063-0.402-0.467-0.826-0.929-1.25-1.375-0.115-0.138-0.227-0.27-0.344-0.406-0.02-0.022-0.042-0.041-0.063-0.063-0.397-0.462-0.8-0.902-1.219-1.344-0.122-0.147-0.25-0.292-0.375-0.438-0.01-0.011-0.021-0.02-0.031-0.031-0.528-0.615-1.059-1.233-1.625-1.813-0.145-0.158-0.29-0.313-0.438-0.469-0.269-0.303-0.534-0.612-0.813-0.906-0.132-0.159-0.272-0.312-0.406-0.469-0.135-0.147-0.269-0.292-0.406-0.438-0.27-0.305-0.533-0.61-0.813-0.906-0.135-0.163-0.268-0.34-0.406-0.5-0.084-0.092-0.165-0.19-0.25-0.281-0.319-0.364-0.668-0.71-1-1.063-0.005-0.006 0.005-0.025 0-0.031-0.133-0.16-0.27-0.311-0.406-0.469-0.128-0.14-0.276-0.268-0.406-0.406-0.008-0.01-0.023-0.021-0.031-0.031-0.005-0.005 0.005-0.026 0-0.031m-141.37 28.09c-0.438 0.006-0.889 0.179-1.313 0.563l1.313-0.563m2.094 1c-0.472 0.007-0.95 0.181-1.406 0.594l1.406-0.594m2.125 1c-0.505 0.007-1.042 0.182-1.531 0.625v0.031l1.531-0.656m2.094 0.969c-0.539 0.008-1.072 0.247-1.594 0.719l1.594-0.719m2.125 1c-0.573 0.008-1.165 0.248-1.719 0.75l1.719-0.75m2.094 1c-0.606 0.009-1.226 0.25-1.813 0.781l1.813-0.781" fill-opacity=".235" transform="translate(0,540.36)"/>
   <path id="path18" fill-opacity=".067" d="m256 541.36c-140.83 0-255 114.17-255 255s114.17 255 255 255 255-114.17 255-255-114.17-255-255-255m8.827 44.931c120.9 0 218.9 98 218.9 218.9s-98 218.9-218.9 218.9-218.93-98-218.93-218.9 98.03-218.9 218.93-218.9"/>
   <g id="g20" fill-opacity=".129">
    <path id="path22" d="m256 544.79c-138.94 0-251.57 112.63-251.57 251.57s112.63 251.54 251.57 251.54 251.57-112.6 251.57-251.54-112.63-251.57-251.57-251.57m5.885 38.556c120.9 0 218.9 98 218.9 218.9s-98 218.9-218.9 218.9-218.93-98-218.93-218.9 98.03-218.9 218.93-218.9"/>
    <path id="path24" d="m256 548.72c-136.77 0-247.64 110.87-247.64 247.64s110.87 247.64 247.64 247.64 247.64-110.87 247.64-247.64-110.87-247.64-247.64-247.64m2.942 31.691c120.9 0 218.9 98 218.9 218.9s-98 218.9-218.9 218.9-218.93-98-218.93-218.9 98.03-218.9 218.93-218.9"/>
   </g>
   <path id="path26" d="m253.04 548.22c-135.42 0-245.19 109.78-245.19 245.19 0 135.42 109.78 245.19 245.19 245.19 135.42 0 245.19-109.78 245.19-245.19 0-135.42-109.78-245.19-245.19-245.19zm0 26.297c120.9 0 218.9 98 218.9 218.9s-98 218.9-218.9 218.9-218.93-98-218.93-218.9 98.03-218.9 218.93-218.9z" stroke-opacity=".31" stroke="#000" stroke-width="4.904" fill="#fff"/>
  </g>
  <text id="text28" style="word-spacing:0;letter-spacing:0" font-size="129.23px" line-height="125%" y="771.71997" x="729.64001" font-family="Gentium Book Basic">
   <tspan id="tspan30" y="771.71997" x="729.64001"/>
  </text>
  <text id="text32" style="text-anchor:middle" font-size="46.954px" transform="scale(4.0128 .2492)" y="2747.6399" x="378.91" font-family="Arial"/>
  <text id="text34" style="word-spacing:0;letter-spacing:0" font-size="129.23px" line-height="125%" y="691.71997" x="1310.91" font-family="Gentium Book Basic">
   <tspan id="tspan36" y="691.71997" x="1310.91"/>
  </text>
  <text id="text38" style="text-anchor:middle" font-size="46.954px" transform="scale(4.0128 .2492)" y="2426.6001" x="523.76001" font-family="Arial"/>
  <text id="text40" style="word-spacing:0;letter-spacing:0" font-size="129.23px" line-height="125%" y="510.45999" x="239.33" font-family="Gentium Book Basic">
   <tspan id="tspan42" y="510.45999" x="239.33"/>
  </text>
  <text id="text44" style="text-anchor:middle" font-size="46.954px" transform="scale(4.0128 .2492)" y="1699.25" x="256.72" font-family="Arial"/>
  <text id="text46" style="word-spacing:0;letter-spacing:0" font-size="129.23px" line-height="125%" y="293.98999" x="1337.38" font-family="Gentium Book Basic">
   <tspan id="tspan48" y="293.98999" x="1337.38"/>
  </text>
  <text id="text50" style="text-anchor:middle" font-size="46.954px" transform="scale(4.0128 .2492)" y="830.57001" x="530.35999" font-family="Arial"/>
  <text id="text52" style="word-spacing:0;letter-spacing:0" font-size="129.23px" line-height="125%" y="213.99001" x="1918.65" font-family="Gentium Book Basic">
   <tspan id="tspan54" y="213.99001" x="1918.65"/>
  </text>
  <text id="text56" style="text-anchor:middle" font-size="46.954px" transform="scale(4.0128 .2492)" y="509.54001" x="675.21002" font-family="Arial"/>
  <text id="text58" style="word-spacing:0;letter-spacing:0" font-size="129.23px" line-height="125%" y="-258.41" x="1529.53" font-family="Gentium Book Basic">
   <tspan id="tspan60" y="-258.41" x="1529.53"/>
  </text>
  <text id="text62" style="text-anchor:middle" font-size="46.954px" transform="scale(4.0128 .2492)" y="-1386.12" x="578.23999" font-family="Arial"/>
  <text id="text64" style="word-spacing:0;letter-spacing:0" font-size="129.23px" line-height="125%" y="-338.42001" x="2110.79" font-family="Gentium Book Basic">
   <tspan id="tspan66" y="-338.42001" x="2110.79"/>
  </text>
  <text id="text68" style="text-anchor:middle" font-size="46.954px" transform="scale(4.0128 .2492)" y="-1707.16" x="723.09003" font-family="Arial"/>
  <g id="g70" style="word-spacing:0;letter-spacing:0" font-family="Gentium Book Basic" font-size="208.33px" line-height="125%">
   <text id="text72" y="1076.3" x="277.98999">
    <tspan id="tspan74" y="1076.3" x="277.98999"/>
   </text>
   <text id="text76" y="1063.02" x="-1782.2">
    <tspan id="tspan78" y="1063.02" x="-1782.2"/>
   </text>
  </g>
  <text id="text80" style="text-anchor:middle" font-size="75.7px" transform="scale(4.0128 .2492)" y="3702.8501" x="-126.4" font-family="Arial"/>
  <text id="text82" style="word-spacing:0;letter-spacing:0" font-size="129.23px" line-height="125%" y="744.85999" x="107.93" font-family="Gentium Book Basic">
   <tspan id="tspan84" y="744.85999" x="107.93"/>
  </text>
  <text id="text86" style="text-anchor:middle" font-size="46.954px" transform="scale(4.0128 .2492)" y="2639.8601" x="223.98" font-family="Arial"/>
  <text id="text88" style="word-spacing:0;letter-spacing:0" font-size="129.23px" line-height="125%" y="664.85999" x="689.20001" font-family="Gentium Book Basic">
   <tspan id="tspan90" y="664.85999" x="689.20001"/>
  </text>
  <text id="text92" style="text-anchor:middle" font-size="46.954px" transform="scale(4.0128 .2492)" y="2318.8301" x="368.82999" font-family="Arial"/>
  <text id="text94" style="word-spacing:0;letter-spacing:0" font-size="129.23px" line-height="125%" y="483.60001" x="-382.38" font-family="Gentium Book Basic">
   <tspan id="tspan96" y="483.60001" x="-382.38"/>
  </text>
  <text id="text98" style="text-anchor:middle" font-size="46.954px" transform="scale(4.0128 .2492)" y="1591.47" x="101.79" font-family="Arial"/>
  <text id="text100" style="word-spacing:0;letter-spacing:0" font-size="129.23px" line-height="125%" y="267.13" x="715.66998" font-family="Gentium Book Basic">
   <tspan id="tspan102" y="267.13" x="715.66998"/>
  </text>
  <text id="text104" style="text-anchor:middle" font-size="46.954px" transform="scale(4.0128 .2492)" y="722.79999" x="375.42001" font-family="Arial"/>
  <text id="text106" style="word-spacing:0;letter-spacing:0" font-size="129.23px" line-height="125%" y="187.13" x="1296.9301" font-family="Gentium Book Basic">
   <tspan id="tspan108" y="187.13" x="1296.9301"/>
  </text>
  <text id="text110" style="text-anchor:middle" font-size="46.954px" transform="scale(4.0128 .2492)" y="401.76999" x="520.28003" font-family="Arial"/>
  <text id="text112" style="word-spacing:0;letter-spacing:0" font-size="129.23px" line-height="125%" y="-285.26999" x="907.81" font-family="Gentium Book Basic">
   <tspan id="tspan114" y="-285.26999" x="907.81"/>
  </text>
  <text id="text116" style="text-anchor:middle" font-size="46.954px" transform="scale(4.0128 .2492)" y="-1493.9" x="423.31" font-family="Arial"/>
  <text id="text118" style="word-spacing:0;letter-spacing:0" font-size="129.23px" line-height="125%" y="-365.26999" x="1489.08" font-family="Gentium Book Basic">
   <tspan id="tspan120" y="-365.26999" x="1489.08"/>
  </text>
  <text id="text122" style="text-anchor:middle" font-size="46.954px" transform="scale(4.0128 .2492)" y="-1814.9301" x="568.15997" font-family="Arial"/>
  <text id="text124" style="word-spacing:0;letter-spacing:0" font-size="208.33px" line-height="125%" y="1049.4399" x="-343.73001" font-family="Gentium Book Basic">
   <tspan id="tspan126" y="1049.4399" x="-343.73001"/>
  </text>
  <g id="g128" fill-rule="evenodd" fill="#fff">
   <path id="path130" d="m179.63 124.69c-25.27 0-45.844 20.293-45.844 45.563s20.574 45.844 45.844 45.844c7.507 0 14.586-1.816 20.844-5.03 2.02-16.656 11.494-31.04 24.938-39.813 0.007-0.335 0.031-0.663 0.031-1 0-25.27-20.543-45.563-45.813-45.563m152.03 0c-25.27 0-45.844 20.293-45.844 45.563 0 0.221 0.028 0.436 0.031 0.656 13.795 8.78 23.517 23.43 25.5 40.41 6.13 3.047 13.02 4.781 20.313 4.781 25.27 0 45.813-20.574 45.813-45.844s-20.543-45.563-45.813-45.563m-187.94 102.84c-0.453-0.005-0.893 0.013-1.344 0.031-0.481 0.02-0.959 0.048-1.438 0.094-22.967 2.188-42.61 33.983-35.719 70.72l5.156 28.344h59.844c0.599-12.587 3.865-24.2 9.125-33.938 8.08-14.961 21.14-26.09 36.906-27.594 4.132-0.394 8.34 0.139 12.5 1.219-13.202-7.413-23.14-20.02-26.969-35-2.25 1.283-4.474 2.9-6.656 4.875-14.824 13.416-16.207 13.416-31.03 0-6.583-5.957-13.582-8.676-20.375-8.75m223.72 0c-6.771 0.1-13.728 2.819-20.281 8.75-14.824 13.416-16.207 13.416-31.03 0-2.029-1.837-4.099-3.357-6.188-4.594-3.88 14.898-13.81 27.417-26.969 34.781 4.176-1.089 8.385-1.672 12.531-1.281 10.52 0.992 19.967 6.413 27.375 14.188 10.938 11.478 18.06 28.29 18.969 47.34h59.03l5.406-28.344c7.179-38.27-14.66-71.2-38.844-70.844m-77.22 0.531c-11.262 2.247-21.469 11.553-27.781 24.906 13.287-2.441 23.971-12.162 27.781-24.906m-68.62 0.125c3.8 12.565 14.276 22.17 27.344 24.719-6.272-13.1-16.292-22.295-27.344-24.719m-2.531 56.844c-0.303 0.009-0.607 0.034-0.906 0.063-7.201 0.686-15.458 6.525-21.22 17.188-3.624 6.709-6.094 15.12-6.688 24.438h58.59l4.438-23.09c-3.678-0.556-6.886-2.228-9.563-4.063-0.359-0.246-0.709-0.523-1.063-0.781h-2.281c-1.196 0-2.156-0.961-2.156-2.156v-1.406c-1.438-1.247-2.924-2.579-4.563-4.063-5.068-4.587-9.459-6.115-13.688-6.125-0.302-0.001-0.603-0.009-0.906 0m72.75 0c-4.24 0.012-8.621 1.54-13.688 6.125-0.843 0.763-1.625 1.489-2.406 2.188v3.281c0 1.196-0.961 2.156-2.156 2.156h-4.469c-0.355 0.258-0.703 0.535-1.063 0.781-2.736 1.875-6.03 3.576-9.813 4.094l4.188 23.06h59.31c-0.986-14.241-6.418-26.327-13.313-33.563-4.778-5.01-9.97-7.609-14.781-8.06-0.601-0.057-1.207-0.064-1.813-0.063" transform="translate(0,540.36)"/>
   <path id="path132" d="m255.88 712.52c-25.27 0-45.825 20.309-45.825 45.579s20.555 45.825 45.825 45.825 45.825-20.556 45.825-45.825c0-25.27-20.555-45.579-45.825-45.579m-38.68 102.98c-22.967 2.188-42.616 33.973-35.724 70.71l5.174 28.333h138.46l5.42-28.333c9.189-48.982-29.17-89.2-59.13-62.09-14.824 13.416-16.218 13.416-31.04 0-7.489-6.778-15.503-9.352-23.16-8.623"/>
  </g>
 </g>
</svg>
