<?xml version="1.0" encoding="UTF-8" standalone="no"?>
<!-- Created with Inkscape (http://www.inkscape.org/) -->
<svg id="svg2" xmlns:rdf="http://www.w3.org/1999/02/22-rdf-syntax-ns#" xmlns="http://www.w3.org/2000/svg" height="100%" viewBox="0 0 512 512" width="100%" version="1.1" xmlns:cc="http://creativecommons.org/ns#" xmlns:dc="http://purl.org/dc/elements/1.1/">
 <metadata id="metadata70">
  <rdf:RDF>
   <cc:Work rdf:about="">
    <dc:format>image/svg+xml</dc:format>
    <dc:type rdf:resource="http://purl.org/dc/dcmitype/StillImage"/>
    <dc:title/>
   </cc:Work>
  </rdf:RDF>
 </metadata>
 <path id="path8" d="m471.95 253.05c0 120.9-98.006 218.91-218.91 218.91s-218.91-98.006-218.91-218.91 98.006-218.91 218.91-218.91 218.91 98.006 218.91 218.91" fill-rule="evenodd" fill="#5c805a"/>
 <path id="path10" d="m256 1c-140.83 0-255 114.17-255 255s114.17 255 255 255 255-114.17 255-255-114.17-255-255-255m8.827 44.931c120.9 0 218.9 98 218.9 218.9s-98 218.9-218.9 218.9-218.93-98-218.93-218.9 98.03-218.9 218.93-218.9" fill-rule="evenodd" fill-opacity=".067"/>
 <path id="path14" d="m256 4.43c-138.94 0-251.57 112.63-251.57 251.57s112.63 251.57 251.57 251.57 251.57-112.63 251.57-251.57-112.63-251.57-251.57-251.57m5.885 38.556c120.9 0 218.9 98 218.9 218.9s-98 218.9-218.9 218.9-218.93-98-218.93-218.9 98.03-218.9 218.93-218.9" fill-rule="evenodd" fill-opacity=".129"/>
 <path id="path16" d="m256 8.36c-136.77 0-247.64 110.87-247.64 247.64s110.87 247.64 247.64 247.64 247.64-110.87 247.64-247.64-110.87-247.64-247.64-247.64m2.942 31.691c120.9 0 218.9 98 218.9 218.9s-98 218.9-218.9 218.9-218.93-98-218.93-218.9 98.03-218.9 218.93-218.9" fill-rule="evenodd" fill-opacity=".129"/>
 <path id="path18" d="m253.04 7.86c-135.42 0-245.19 109.78-245.19 245.19 0 135.42 109.78 245.19 245.19 245.19 135.42 0 245.19-109.78 245.19-245.19 0-135.42-109.78-245.19-245.19-245.19zm0 26.297c120.9 0 218.9 98 218.9 218.9s-98 218.9-218.9 218.9-218.93-98-218.93-218.9 98.03-218.9 218.93-218.9z" stroke-opacity=".31" fill-rule="evenodd" stroke="#000" stroke-width="4.904" fill="#fff"/>
 <text id="text20" style="word-spacing:0;letter-spacing:0" font-size="129.23px" line-height="125%" y="231.35997" x="729.64001" font-family="Gentium Book Basic">
  <tspan id="tspan22" y="231.35997" x="729.64001"/>
 </text>
 <text id="text24" style="text-anchor:middle" font-size="46.954px" transform="scale(4.0128 .24920)" y="579.25812" x="378.90805" font-family="Arial"/>
 <text id="text26" style="word-spacing:0;letter-spacing:0" font-size="129.23px" line-height="125%" y="151.35997" x="1310.91" font-family="Gentium Book Basic">
  <tspan id="tspan28" y="151.35997" x="1310.91"/>
 </text>
 <text id="text30" style="text-anchor:middle" font-size="46.954px" transform="scale(4.0128 .24920)" y="258.21997" x="523.75732" font-family="Arial"/>
 <text id="text32" style="word-spacing:0;letter-spacing:0" font-size="129.23px" line-height="125%" y="-29.900009" x="239.33" font-family="Gentium Book Basic">
  <tspan id="tspan34" y="-29.900009" x="239.33"/>
 </text>
 <text id="text36" style="text-anchor:middle" font-size="46.954px" transform="scale(4.0128 .24920)" y="-469.1264" x="256.71869" font-family="Arial"/>
 <text id="text38" style="word-spacing:0;letter-spacing:0" font-size="129.23px" line-height="125%" y="-246.37001" x="1337.38" font-family="Gentium Book Basic">
  <tspan id="tspan40" y="-246.37001" x="1337.38"/>
 </text>
 <text id="text42" style="text-anchor:middle" font-size="46.954px" transform="scale(4.0128 .24920)" y="-1337.802" x="530.3573" font-family="Arial"/>
 <text id="text44" style="word-spacing:0;letter-spacing:0" font-size="129.23px" line-height="125%" y="-326.37" x="1918.65" font-family="Gentium Book Basic">
  <tspan id="tspan46" y="-326.37" x="1918.65"/>
 </text>
 <text id="text48" style="text-anchor:middle" font-size="46.954px" transform="scale(4.0128 .24920)" y="-1658.8303" x="675.20654" font-family="Arial"/>
 <text id="text50" style="word-spacing:0;letter-spacing:0" font-size="129.23px" line-height="125%" y="-798.77002" x="1529.53" font-family="Gentium Book Basic">
  <tspan id="tspan52" y="-798.77002" x="1529.53"/>
 </text>
 <text id="text54" style="text-anchor:middle" font-size="46.954px" transform="scale(4.0128 .24920)" y="-3554.4807" x="578.237" font-family="Arial"/>
 <text id="text56" style="word-spacing:0;letter-spacing:0" font-size="129.23px" line-height="125%" y="-878.78003" x="2110.79" font-family="Gentium Book Basic">
  <tspan id="tspan58" y="-878.78003" x="2110.79"/>
 </text>
 <text id="text60" style="text-anchor:middle" font-size="46.954px" transform="scale(4.0128 .24920)" y="-3875.519" x="723.0863" font-family="Arial"/>
 <text id="text62" style="word-spacing:0;letter-spacing:0" font-size="208.33px" line-height="125%" y="535.94006" x="277.98999" font-family="Gentium Book Basic">
  <tspan id="tspan64" y="535.94006" x="277.98999"/>
 </text>
 <path id="path3587" opacity=".25" style="color:#000000" fill-rule="evenodd" d="m127.06 129.53c-11 0-19.844 9.314-19.844 20.875v21.344c0 5.9728 2.3574 11.357 6.1562 15.156l37.562 37.562h-23.875c-11 0-19.844 9.2828-19.844 20.844v21.375c0 5.9648 2.3664 11.335 6.1562 15.125l37.594 37.594h-23.906c-11 0-19.844 9.2828-19.844 20.844v21.344c0 5.9728 2.3574 11.357 6.1562 15.156l89.406 89.406c16.136 3.7904 32.957 5.8125 50.25 5.8125 120.9 0 218.91-98.009 218.91-218.91 0-17.315-2.0125-34.157-5.8125-50.312l-67.5-67.5c-3.5542-3.5542-8.3705-5.7188-13.688-5.7188h-257.88z"/>
 <path id="rect3476" style="color:#000000" fill-rule="evenodd" fill="#fff" d="m127.06 129.53c-11 0-19.844 9.314-19.844 20.875v21.344c0 11.561 8.8438 20.875 19.844 20.875h257.88c11 0 19.844-9.314 19.844-20.875v-21.344c0-11.561-8.8437-20.875-19.844-20.875h-257.88zm94.406 9.0625c3.9847 0 7.1875 3.3746 7.1875 7.5625v29.844c0 4.1879-3.2028 7.5625-7.1875 7.5625s-7.1875-3.3746-7.1875-7.5625v-29.844c0-4.1879 3.2028-7.5625 7.1875-7.5625zm30.312 0c3.9847 0 7.1875 3.3746 7.1875 7.5625v29.844c0 4.1879-3.2028 7.5625-7.1875 7.5625s-7.1875-3.3746-7.1875-7.5625v-29.844c0-4.1879 3.2028-7.5625 7.1875-7.5625zm30.281 0c3.9847 0 7.1875 3.3746 7.1875 7.5625v29.844c0 4.1879-3.2028 7.5625-7.1875 7.5625s-7.1875-3.3746-7.1875-7.5625v-29.844c0-4.1879 3.2028-7.5625 7.1875-7.5625zm30.281 0c3.9847 0 7.2188 3.3746 7.2188 7.5625v29.844c0 4.1879-3.234 7.5625-7.2188 7.5625-3.9847 0-7.1562-3.3746-7.1562-7.5625v-29.844c0-4.1879 3.1715-7.5625 7.1562-7.5625zm-166.5 8.6562c7.2638 0 13.156 6.2096 13.156 13.844 0 7.6342-5.8925 13.812-13.156 13.812-7.2638 0-13.156-6.1783-13.156-13.812 0-7.6342 5.8925-13.844 13.156-13.844zm-18.781 77.219c-11 0-19.844 9.2828-19.844 20.844v21.375c0 11.561 8.8438 20.844 19.844 20.844h257.88c11 0 19.844-9.2828 19.844-20.844v-21.375c0-11.561-8.8437-20.844-19.844-20.844h-257.88zm94.406 9.0625c3.9847 0 7.1875 3.3746 7.1875 7.5625v29.812c0 4.1879-3.2028 7.5625-7.1875 7.5625s-7.1875-3.3746-7.1875-7.5625v-29.812c0-4.1879 3.2028-7.5625 7.1875-7.5625zm30.312 0c3.9847 0 7.1875 3.3746 7.1875 7.5625v29.812c0 4.1879-3.2028 7.5625-7.1875 7.5625s-7.1875-3.3746-7.1875-7.5625v-29.812c0-4.1879 3.2028-7.5625 7.1875-7.5625zm30.281 0c3.9847 0 7.1875 3.3746 7.1875 7.5625v29.812c0 4.1879-3.2028 7.5625-7.1875 7.5625s-7.1875-3.3746-7.1875-7.5625v-29.812c0-4.1879 3.2028-7.5625 7.1875-7.5625zm30.281 0c3.9847 0 7.2188 3.3746 7.2188 7.5625v29.812c0 4.1879-3.234 7.5625-7.2188 7.5625-3.9847 0-7.1562-3.3746-7.1562-7.5625v-29.812c0-4.1879 3.1715-7.5625 7.1562-7.5625zm-166.5 8.6562c7.27 0 13.16 6.18 13.16 13.81 0 7.6342-5.8925 13.812-13.156 13.812-7.2638 0-13.156-6.1783-13.156-13.812 0-7.6342 5.8925-13.812 13.156-13.812zm-18.781 77.219c-11 0-19.844 9.2828-19.844 20.844v21.344c0 11.561 8.8438 20.875 19.844 20.875h257.88c11 0 19.844-9.314 19.844-20.875v-21.344c0-11.561-8.8437-20.844-19.844-20.844h-257.88zm94.406 9.0625c3.9847 0 7.1875 3.3746 7.1875 7.5625v29.812c0 4.1879-3.2028 7.5625-7.1875 7.5625s-7.1875-3.3746-7.1875-7.5625v-29.812c0-4.1879 3.2028-7.5625 7.1875-7.5625zm30.312 0c3.9847 0 7.1875 3.3746 7.1875 7.5625v29.812c0 4.1879-3.2028 7.5625-7.1875 7.5625s-7.1875-3.3746-7.1875-7.5625v-29.812c0-4.1879 3.2028-7.5625 7.1875-7.5625zm30.281 0c3.9847 0 7.1875 3.3746 7.1875 7.5625v29.812c0 4.1879-3.2028 7.5625-7.1875 7.5625s-7.1875-3.3746-7.1875-7.5625v-29.812c0-4.1879 3.2028-7.5625 7.1875-7.5625zm30.281 0c3.9847 0 7.2188 3.3746 7.2188 7.5625v29.812c0 4.1879-3.234 7.5625-7.2188 7.5625-3.9847 0-7.1562-3.3746-7.1562-7.5625v-29.812c0-4.1879 3.1715-7.5625 7.1562-7.5625zm-166.5 8.6562c7.2638 0 13.156 6.1783 13.156 13.812 0 7.6342-5.8925 13.812-13.156 13.812-7.2638 0-13.156-6.1783-13.156-13.812 0-7.6342 5.8925-13.812 13.156-13.812z"/>
</svg>
