<?xml version="1.0" encoding="UTF-8" standalone="no"?>
<!-- Created with Inkscape (http://www.inkscape.org/) -->
<svg id="svg2" xmlns:rdf="http://www.w3.org/1999/02/22-rdf-syntax-ns#" xmlns="http://www.w3.org/2000/svg" height="100%" viewBox="0 0 512 512" width="100%" version="1.1" xmlns:cc="http://creativecommons.org/ns#" xmlns:dc="http://purl.org/dc/elements/1.1/">
 <metadata id="metadata74">
  <rdf:RDF>
   <cc:Work rdf:about="">
    <dc:format>image/svg+xml</dc:format>
    <dc:type rdf:resource="http://purl.org/dc/dcmitype/StillImage"/>
   </cc:Work>
  </rdf:RDF>
 </metadata>
 <path id="path4" d="m471.95 253.05c0 120.9-98.01 218.9-218.9 218.9-120.9 0-218.9-98.01-218.9-218.9 0-120.9 98.01-218.9 218.9-218.9 120.9 0 218.9 98.01 218.9 218.9" fill-rule="evenodd" fill="#62c0dc"/>
 <path id="path6" fill="#282629" d="m37.813 293.16c18.837 101.74 108.02 178.81 215.22 178.81s196.41-77.07 215.25-178.81h-430.47"/>
 <path id="path8" fill-opacity=".235" d="m248.91 162.34c-27.689 0.808-47.828 32.7-44.28 54.969-18.575-16.847-33.865-37.969-55.53-50.844-6.05-2.653-12.647-4.01-19.25-4-37.36-1.843-62.37 46.04-39.5 75.66 37.18 39.559 76.67 77.07 114.75 115.81 19.476 19.476 10.506 11.336-3.03 9.188-12.271-2.955-4.505 14.293-6.75 21.438 0.617 7.131-2.309 17.758 3.344 19.906 3.059 3.231 6.619 5.992 9.156 9.75 4.503 2.737 6.924 7.555 11.438 10.281 2.743 4.507 7.533 6.967 10.313 11.438 3.968 2.698 6.481 6.853 10.281 9.719 4.382 4.764 8.954 9.338 13.719 13.719 3.884 4.22 7.943 8.265 12.13 12.188 115.01-6.552 206.25-101.85 206.25-218.5 0-3.316-0.073-6.626-0.219-9.906-22.01-23.935-43.647-48.22-66.69-71.09-27.792-22.932-74.71-2.255-76.72 33.625 3.453 20.349-0.461 16.17-10.344 4.25-19.489-18.365-34.565-47.735-64.938-47.47-1.396-0.115-2.763-0.165-4.125-0.125"/>
 <g id="g10" fill-rule="evenodd">
  <path id="path12" fill-opacity=".067" d="m256 1c-140.83 0-255 114.17-255 255s114.17 255 255 255 255-114.17 255-255-114.17-255-255-255m8.827 44.931c120.9 0 218.9 98 218.9 218.9s-98 218.9-218.9 218.9-218.93-98-218.93-218.9 98.03-218.9 218.93-218.9"/>
  <g id="g14" fill-opacity=".129">
   <path id="path16" d="m256 4.433c-138.94 0-251.57 112.63-251.57 251.57s112.63 251.57 251.57 251.57 251.57-112.63 251.57-251.57-112.63-251.57-251.57-251.57m5.885 38.556c120.9 0 218.9 98 218.9 218.9s-98 218.9-218.9 218.9-218.93-98-218.93-218.9 98.03-218.9 218.93-218.9"/>
   <path id="path18" d="m256 8.356c-136.77 0-247.64 110.87-247.64 247.64s110.87 247.64 247.64 247.64 247.64-110.87 247.64-247.64-110.87-247.64-247.64-247.64m2.942 31.691c120.9 0 218.9 98 218.9 218.9s-98 218.9-218.9 218.9-218.93-98-218.93-218.9 98.03-218.9 218.93-218.9"/>
  </g>
  <path id="path20" d="m253.04 7.859c-135.42 0-245.19 109.78-245.19 245.19 0 135.42 109.78 245.19 245.19 245.19 135.42 0 245.19-109.78 245.19-245.19 0-135.42-109.78-245.19-245.19-245.19zm0 26.297c120.9 0 218.9 98 218.9 218.9s-98 218.9-218.9 218.9-218.93-98-218.93-218.9 98.03-218.9 218.93-218.9z" stroke-opacity=".31" stroke="#000" stroke-width="4.904" fill="#fff"/>
 </g>
 <text id="text22" style="word-spacing:0;letter-spacing:0" font-size="129.23px" line-height="125%" y="231.36" x="729.64001" font-family="Gentium Book Basic">
  <tspan id="tspan24" y="231.36" x="729.64001"/>
 </text>
 <text id="text26" style="text-anchor:middle" font-size="46.954px" transform="scale(4.0128 .2492)" y="579.25" x="378.91" font-family="Arial"/>
 <text id="text28" style="word-spacing:0;letter-spacing:0" font-size="129.23px" line-height="125%" y="151.36" x="1310.91" font-family="Gentium Book Basic">
  <tspan id="tspan30" y="151.36" x="1310.91"/>
 </text>
 <text id="text32" style="text-anchor:middle" font-size="46.954px" transform="scale(4.0128 .2492)" y="258.22" x="523.76001" font-family="Arial"/>
 <text id="text34" style="word-spacing:0;letter-spacing:0" font-size="129.23px" line-height="125%" y="-29.900999" x="239.33" font-family="Gentium Book Basic">
  <tspan id="tspan36" y="-29.900999" x="239.33"/>
 </text>
 <text id="text38" style="text-anchor:middle" font-size="46.954px" transform="scale(4.0128 .2492)" y="-469.14001" x="256.72" font-family="Arial"/>
 <text id="text40" style="word-spacing:0;letter-spacing:0" font-size="129.23px" line-height="125%" y="-246.37" x="1337.38" font-family="Gentium Book Basic">
  <tspan id="tspan42" y="-246.37" x="1337.38"/>
 </text>
 <text id="text44" style="text-anchor:middle" font-size="46.954px" transform="scale(4.0128 .2492)" y="-1337.8101" x="530.35999" font-family="Arial"/>
 <text id="text46" style="word-spacing:0;letter-spacing:0" font-size="129.23px" line-height="125%" y="-326.38" x="1918.65" font-family="Gentium Book Basic">
  <tspan id="tspan48" y="-326.38" x="1918.65"/>
 </text>
 <text id="text50" style="text-anchor:middle" font-size="46.954px" transform="scale(4.0128 .2492)" y="-1658.85" x="675.21002" font-family="Arial"/>
 <text id="text52" style="word-spacing:0;letter-spacing:0" font-size="129.23px" line-height="125%" y="-798.78003" x="1529.53" font-family="Gentium Book Basic">
  <tspan id="tspan54" y="-798.78003" x="1529.53"/>
 </text>
 <text id="text56" style="text-anchor:middle" font-size="46.954px" transform="scale(4.0128 .2492)" y="-3554.51" x="578.23999" font-family="Arial"/>
 <text id="text58" style="word-spacing:0;letter-spacing:0" font-size="129.23px" line-height="125%" y="-878.78003" x="2110.79" font-family="Gentium Book Basic">
  <tspan id="tspan60" y="-878.78003" x="2110.79"/>
 </text>
 <text id="text62" style="text-anchor:middle" font-size="46.954px" transform="scale(4.0128 .2492)" y="-3875.54" x="723.09003" font-family="Arial"/>
 <text id="text64" style="word-spacing:0;letter-spacing:0" font-size="208.33px" line-height="125%" y="535.94" x="277.98999" font-family="Gentium Book Basic">
  <tspan id="tspan66" y="535.94" x="277.98999"/>
 </text>
 <path id="path68" fill="#fff" d="m129.84 162.47c-26.594 0-48.12 21.562-48.12 48.16 0 26.594 21.531 48.16 48.13 48.16 26.594 0 48.16-21.562 48.16-48.16 0-26.594-21.562-48.16-48.16-48.16m123.19 0c-26.594 0-48.16 21.562-48.16 48.16 0 26.594 21.562 48.16 48.16 48.16 26.594 0 48.16-21.562 48.16-48.16 0-26.594-21.562-48.16-48.16-48.16m123.19 0c-26.594 0-48.16 21.562-48.16 48.16 0 26.594 21.562 48.16 48.16 48.16 26.594 0 48.16-21.562 48.16-48.16 0-26.594-21.562-48.16-48.16-48.16m-142.53 162.41v38.28l-38.25-0.031-0.219 38.5 38.469 0.031v38.28l38.813 0.313-0.063-38.563 38.438 0.063-0.219-38.594h-38.31l-0.094-38.25-38.563-0.031"/>
</svg>
