<?xml version="1.0" encoding="UTF-8" standalone="no"?>
<svg xmlns="http://www.w3.org/2000/svg" xmlns:xlink="http://www.w3.org/1999/xlink" viewBox="0 0 512 512">
 <defs>
  <filter id="2">
   <feGaussianBlur stdDeviation="3.70017"/>
  </filter>
 </defs>
 <text style="word-spacing:0;letter-spacing:0" font-size="129.23" y="231.36" x="729.64" font-family="&apos;Gentium Book Basic&apos;" line-height="125%">
  <tspan y="231.36" x="729.64"/>
 </text>
 <text style="text-anchor:middle" transform="scale(4.0128.2492)" font-size="46.954" y="579.25" x="378.91" font-family="Arial"/>
 <text style="word-spacing:0;letter-spacing:0" font-size="129.23" y="151.36" x="1310.91" font-family="&apos;Gentium Book Basic&apos;" line-height="125%">
  <tspan y="151.36" x="1310.91"/>
 </text>
 <text style="text-anchor:middle" transform="scale(4.0128.2492)" font-size="46.954" y="258.22" x="523.76" font-family="Arial"/>
 <text style="word-spacing:0;letter-spacing:0" font-size="129.23" y="-29.901" x="239.33" font-family="&apos;Gentium Book Basic&apos;" line-height="125%">
  <tspan y="-29.901" x="239.33"/>
 </text>
 <text style="text-anchor:middle" transform="scale(4.0128.2492)" font-size="46.954" y="-469.14" x="256.72" font-family="Arial"/>
 <text style="word-spacing:0;letter-spacing:0" font-size="129.23" y="-246.37" x="1337.38" font-family="&apos;Gentium Book Basic&apos;" line-height="125%">
  <tspan y="-246.37" x="1337.38"/>
 </text>
 <text style="text-anchor:middle" transform="scale(4.0128.2492)" font-size="46.954" y="-1337.8" x="530.36" font-family="Arial"/>
 <text style="word-spacing:0;letter-spacing:0" font-size="129.23" y="-326.38" x="1918.65" font-family="&apos;Gentium Book Basic&apos;" line-height="125%">
  <tspan y="-326.38" x="1918.65"/>
 </text>
 <text style="text-anchor:middle" transform="scale(4.0128.2492)" font-size="46.954" y="-1658.84" x="675.21" font-family="Arial"/>
 <text style="word-spacing:0;letter-spacing:0" font-size="129.23" y="-798.78" x="1529.53" font-family="&apos;Gentium Book Basic&apos;" line-height="125%">
  <tspan y="-798.78" x="1529.53"/>
 </text>
 <text style="text-anchor:middle" transform="scale(4.0128.2492)" font-size="46.954" y="-3554.49" x="578.24" font-family="Arial"/>
 <text style="word-spacing:0;letter-spacing:0" font-size="129.23" y="-878.78" x="2110.79" font-family="&apos;Gentium Book Basic&apos;" line-height="125%">
  <tspan y="-878.78" x="2110.79"/>
 </text>
 <text style="text-anchor:middle" transform="scale(4.0128.2492)" font-size="46.954" y="-3875.52" x="723.09" font-family="Arial"/>
 <g style="word-spacing:0;letter-spacing:0" font-family="&apos;Gentium Book Basic&apos;" line-height="125%">
  <text y="535.94" x="277.99" font-size="208.33">
   <tspan y="535.94" x="277.99"/>
  </text>
  <text y="231.36" x="729.64" font-size="129.23">
   <tspan y="231.36" x="729.64"/>
  </text>
 </g>
 <text style="text-anchor:middle" transform="scale(4.0128.2492)" font-size="46.954" y="579.25" x="378.91" font-family="Arial"/>
 <text style="word-spacing:0;letter-spacing:0" font-size="129.23" y="151.36" x="1310.91" font-family="&apos;Gentium Book Basic&apos;" line-height="125%">
  <tspan y="151.36" x="1310.91"/>
 </text>
 <text style="text-anchor:middle" transform="scale(4.0128.2492)" font-size="46.954" y="258.22" x="523.76" font-family="Arial"/>
 <text style="word-spacing:0;letter-spacing:0" font-size="129.23" y="-29.901" x="239.33" font-family="&apos;Gentium Book Basic&apos;" line-height="125%">
  <tspan y="-29.901" x="239.33"/>
 </text>
 <text style="text-anchor:middle" transform="scale(4.0128.2492)" font-size="46.954" y="-469.14" x="256.72" font-family="Arial"/>
 <text style="word-spacing:0;letter-spacing:0" font-size="129.23" y="-246.37" x="1337.38" font-family="&apos;Gentium Book Basic&apos;" line-height="125%">
  <tspan y="-246.37" x="1337.38"/>
 </text>
 <text style="text-anchor:middle" transform="scale(4.0128.2492)" font-size="46.954" y="-1337.8" x="530.36" font-family="Arial"/>
 <text style="word-spacing:0;letter-spacing:0" font-size="129.23" y="-326.38" x="1918.65" font-family="&apos;Gentium Book Basic&apos;" line-height="125%">
  <tspan y="-326.38" x="1918.65"/>
 </text>
 <text style="text-anchor:middle" transform="scale(4.0128.2492)" font-size="46.954" y="-1658.84" x="675.21" font-family="Arial"/>
 <text style="word-spacing:0;letter-spacing:0" font-size="129.23" y="-798.78" x="1529.53" font-family="&apos;Gentium Book Basic&apos;" line-height="125%">
  <tspan y="-798.78" x="1529.53"/>
 </text>
 <text style="text-anchor:middle" transform="scale(4.0128.2492)" font-size="46.954" y="-3554.49" x="578.24" font-family="Arial"/>
 <text style="word-spacing:0;letter-spacing:0" font-size="129.23" y="-878.78" x="2110.79" font-family="&apos;Gentium Book Basic&apos;" line-height="125%">
  <tspan y="-878.78" x="2110.79"/>
 </text>
 <text style="text-anchor:middle" transform="scale(4.0128.2492)" font-size="46.954" y="-3875.52" x="723.09" font-family="Arial"/>
 <g style="word-spacing:0;letter-spacing:0" font-family="&apos;Gentium Book Basic&apos;" line-height="125%">
  <text y="535.94" x="277.99" font-size="208.33">
   <tspan y="535.94" x="277.99"/>
  </text>
  <text y="285.6" x="102.66" font-size="129.23">
   <tspan y="285.6" x="102.66"/>
  </text>
 </g>
 <text style="text-anchor:middle" transform="scale(4.0128.2492)" font-size="46.954" y="796.89" x="222.66" font-family="Arial"/>
 <text style="word-spacing:0;letter-spacing:0" font-size="129.23" y="205.6" x="683.93" font-family="&apos;Gentium Book Basic&apos;" line-height="125%">
  <tspan y="205.6" x="683.93"/>
 </text>
 <text style="text-anchor:middle" transform="scale(4.0128.2492)" font-size="46.954" y="475.86" x="367.51" font-family="Arial"/>
 <text style="word-spacing:0;letter-spacing:0" font-size="129.23" y="24.336" x="-387.65" font-family="&apos;Gentium Book Basic&apos;" line-height="125%">
  <tspan y="24.336" x="-387.65"/>
 </text>
 <text style="text-anchor:middle" transform="scale(4.0128.2492)" font-size="46.954" y="-251.49" x="100.47" font-family="Arial"/>
 <text style="word-spacing:0;letter-spacing:0" font-size="129.23" y="-192.13" x="710.4" font-family="&apos;Gentium Book Basic&apos;" line-height="125%">
  <tspan y="-192.13" x="710.4"/>
 </text>
 <text style="text-anchor:middle" transform="scale(4.0128.2492)" font-size="46.954" y="-1120.16" x="374.11" font-family="Arial"/>
 <text style="word-spacing:0;letter-spacing:0" font-size="129.23" y="-272.14" x="1291.67" font-family="&apos;Gentium Book Basic&apos;" line-height="125%">
  <tspan y="-272.14" x="1291.67"/>
 </text>
 <text style="text-anchor:middle" transform="scale(4.0128.2492)" font-size="46.954" y="-1441.2" x="518.96" font-family="Arial"/>
 <text style="word-spacing:0;letter-spacing:0" font-size="129.23" y="-744.54" x="902.55" font-family="&apos;Gentium Book Basic&apos;" line-height="125%">
  <tspan y="-744.54" x="902.55"/>
 </text>
 <text style="text-anchor:middle" transform="scale(4.0128.2492)" font-size="46.954" y="-3336.85" x="421.99" font-family="Arial"/>
 <text style="word-spacing:0;letter-spacing:0" font-size="129.23" y="-824.54" x="1483.81" font-family="&apos;Gentium Book Basic&apos;" line-height="125%">
  <tspan y="-824.54" x="1483.81"/>
 </text>
 <text style="text-anchor:middle" transform="scale(4.0128.2492)" font-size="46.954" y="-3657.88" x="566.84" font-family="Arial"/>
 <g style="word-spacing:0;letter-spacing:0" font-family="&apos;Gentium Book Basic&apos;" line-height="125%" font-size="0">
  <text y="590.18" x="-348.99">
   <tspan y="590.18" x="-348.99"/>
  </text>
  <text y="467.51" x="-2398.4">
   <tspan y="467.51" x="-2398.4"/>
  </text>
 </g>
 <text style="text-anchor:middle" transform="scale(4.0128.2492)" font-size="75.7" y="1313.13" x="-279.95" font-family="Arial"/>
 <text style="word-spacing:0;letter-spacing:0" font-size="208.33" y="913.42" x="-1840.22" font-family="&apos;Gentium Book Basic&apos;" line-height="125%">
  <tspan y="913.42" x="-1840.22"/>
 </text>
 <text style="text-anchor:middle" transform="scale(4.0128.2492)" font-size="75.7" y="3102.48" x="-140.86" font-family="Arial"/>
 <g style="word-spacing:0;letter-spacing:0" line-height="125%">
  <text y="675.9" x="248.47" font-size="40" font-family="Sans">
   <tspan y="675.9" x="248.47" font-weight="bold" font-style="italic"/>
  </text>
  <text y="231.36" x="729.64" font-size="129.23" font-family="&apos;Gentium Book Basic&apos;">
   <tspan y="231.36" x="729.64"/>
  </text>
 </g>
 <text style="text-anchor:middle" transform="scale(4.0128.2492)" font-size="46.954" y="579.25" x="378.91" font-family="Arial"/>
 <text style="word-spacing:0;letter-spacing:0" font-size="129.23" y="151.36" x="1310.91" font-family="&apos;Gentium Book Basic&apos;" line-height="125%">
  <tspan y="151.36" x="1310.91"/>
 </text>
 <text style="text-anchor:middle" transform="scale(4.0128.2492)" font-size="46.954" y="258.22" x="523.76" font-family="Arial"/>
 <text style="word-spacing:0;letter-spacing:0" font-size="129.23" y="-29.901" x="239.33" font-family="&apos;Gentium Book Basic&apos;" line-height="125%">
  <tspan y="-29.901" x="239.33"/>
 </text>
 <text style="text-anchor:middle" transform="scale(4.0128.2492)" font-size="46.954" y="-469.14" x="256.72" font-family="Arial"/>
 <text style="word-spacing:0;letter-spacing:0" font-size="129.23" y="-246.37" x="1337.38" font-family="&apos;Gentium Book Basic&apos;" line-height="125%">
  <tspan y="-246.37" x="1337.38"/>
 </text>
 <text style="text-anchor:middle" transform="scale(4.0128.2492)" font-size="46.954" y="-1337.8" x="530.36" font-family="Arial"/>
 <text style="word-spacing:0;letter-spacing:0" font-size="129.23" y="-326.38" x="1918.65" font-family="&apos;Gentium Book Basic&apos;" line-height="125%">
  <tspan y="-326.38" x="1918.65"/>
 </text>
 <text style="text-anchor:middle" transform="scale(4.0128.2492)" font-size="46.954" y="-1658.84" x="675.21" font-family="Arial"/>
 <text style="word-spacing:0;letter-spacing:0" font-size="129.23" y="-798.78" x="1529.53" font-family="&apos;Gentium Book Basic&apos;" line-height="125%">
  <tspan y="-798.78" x="1529.53"/>
 </text>
 <text style="text-anchor:middle" transform="scale(4.0128.2492)" font-size="46.954" y="-3554.49" x="578.24" font-family="Arial"/>
 <text style="word-spacing:0;letter-spacing:0" font-size="129.23" y="-878.78" x="2110.79" font-family="&apos;Gentium Book Basic&apos;" line-height="125%">
  <tspan y="-878.78" x="2110.79"/>
 </text>
 <text style="text-anchor:middle" transform="scale(4.0128.2492)" font-size="46.954" y="-3875.52" x="723.09" font-family="Arial"/>
 <g style="word-spacing:0;letter-spacing:0" font-family="&apos;Gentium Book Basic&apos;" line-height="125%">
  <text y="535.94" x="277.99" font-size="208.33">
   <tspan y="535.94" x="277.99"/>
  </text>
  <text y="231.36" x="729.64" font-size="129.23">
   <tspan y="231.36" x="729.64"/>
  </text>
 </g>
 <text style="text-anchor:middle" transform="scale(4.0128.2492)" font-size="46.954" y="579.26" x="378.91" font-family="Arial"/>
 <text style="word-spacing:0;letter-spacing:0" font-size="129.23" y="151.36" x="1310.91" font-family="&apos;Gentium Book Basic&apos;" line-height="125%">
  <tspan y="151.36" x="1310.91"/>
 </text>
 <text style="text-anchor:middle" transform="scale(4.0128.2492)" font-size="46.954" y="258.22" x="523.76" font-family="Arial"/>
 <text style="word-spacing:0;letter-spacing:0" font-size="129.23" y="-29.9" x="239.33" font-family="&apos;Gentium Book Basic&apos;" line-height="125%">
  <tspan y="-29.9" x="239.33"/>
 </text>
 <text style="text-anchor:middle" transform="scale(4.0128.2492)" font-size="46.954" y="-469.13" x="256.72" font-family="Arial"/>
 <text style="word-spacing:0;letter-spacing:0" font-size="129.23" y="-246.37" x="1337.38" font-family="&apos;Gentium Book Basic&apos;" line-height="125%">
  <tspan y="-246.37" x="1337.38"/>
 </text>
 <text style="text-anchor:middle" transform="scale(4.0128.2492)" font-size="46.954" y="-1337.8" x="530.36" font-family="Arial"/>
 <text style="word-spacing:0;letter-spacing:0" font-size="129.23" y="-326.37" x="1918.65" font-family="&apos;Gentium Book Basic&apos;" line-height="125%">
  <tspan y="-326.37" x="1918.65"/>
 </text>
 <text style="text-anchor:middle" transform="scale(4.0128.2492)" font-size="46.954" y="-1658.83" x="675.21" font-family="Arial"/>
 <text style="word-spacing:0;letter-spacing:0" font-size="129.23" y="-798.77" x="1529.53" font-family="&apos;Gentium Book Basic&apos;" line-height="125%">
  <tspan y="-798.77" x="1529.53"/>
 </text>
 <text style="text-anchor:middle" transform="scale(4.0128.2492)" font-size="46.954" y="-3554.48" x="578.24" font-family="Arial"/>
 <text style="word-spacing:0;letter-spacing:0" font-size="129.23" y="-878.78" x="2110.79" font-family="&apos;Gentium Book Basic&apos;" line-height="125%">
  <tspan y="-878.78" x="2110.79"/>
 </text>
 <text style="text-anchor:middle" transform="scale(4.0128.2492)" font-size="46.954" y="-3875.52" x="723.09" font-family="Arial"/>
 <g style="word-spacing:0;letter-spacing:0" font-family="&apos;Gentium Book Basic&apos;" line-height="125%">
  <text y="535.94" x="277.99" font-size="208.33">
   <tspan y="535.94" x="277.99"/>
  </text>
  <text y="231.36" x="729.64" font-size="129.23">
   <tspan y="231.36" x="729.64"/>
  </text>
 </g>
 <text style="text-anchor:middle" transform="scale(4.0128.2492)" font-size="46.954" y="579.26" x="378.91" font-family="Arial"/>
 <text style="word-spacing:0;letter-spacing:0" font-size="129.23" y="151.36" x="1310.91" font-family="&apos;Gentium Book Basic&apos;" line-height="125%">
  <tspan y="151.36" x="1310.91"/>
 </text>
 <text style="text-anchor:middle" transform="scale(4.0128.2492)" font-size="46.954" y="258.22" x="523.76" font-family="Arial"/>
 <text style="word-spacing:0;letter-spacing:0" font-size="129.23" y="-29.9" x="239.33" font-family="&apos;Gentium Book Basic&apos;" line-height="125%">
  <tspan y="-29.9" x="239.33"/>
 </text>
 <text style="text-anchor:middle" transform="scale(4.0128.2492)" font-size="46.954" y="-469.13" x="256.72" font-family="Arial"/>
 <text style="word-spacing:0;letter-spacing:0" font-size="129.23" y="-246.37" x="1337.38" font-family="&apos;Gentium Book Basic&apos;" line-height="125%">
  <tspan y="-246.37" x="1337.38"/>
 </text>
 <text style="text-anchor:middle" transform="scale(4.0128.2492)" font-size="46.954" y="-1337.8" x="530.36" font-family="Arial"/>
 <text style="word-spacing:0;letter-spacing:0" font-size="129.23" y="-326.37" x="1918.65" font-family="&apos;Gentium Book Basic&apos;" line-height="125%">
  <tspan y="-326.37" x="1918.65"/>
 </text>
 <text style="text-anchor:middle" transform="scale(4.0128.2492)" font-size="46.954" y="-1658.83" x="675.21" font-family="Arial"/>
 <text style="word-spacing:0;letter-spacing:0" font-size="129.23" y="-798.77" x="1529.53" font-family="&apos;Gentium Book Basic&apos;" line-height="125%">
  <tspan y="-798.77" x="1529.53"/>
 </text>
 <text style="text-anchor:middle" transform="scale(4.0128.2492)" font-size="46.954" y="-3554.48" x="578.24" font-family="Arial"/>
 <text style="word-spacing:0;letter-spacing:0" font-size="129.23" y="-878.78" x="2110.79" font-family="&apos;Gentium Book Basic&apos;" line-height="125%">
  <tspan y="-878.78" x="2110.79"/>
 </text>
 <text style="text-anchor:middle" transform="scale(4.0128.2492)" font-size="46.954" y="-3875.52" x="723.09" font-family="Arial"/>
 <g style="word-spacing:0;letter-spacing:0" font-family="&apos;Gentium Book Basic&apos;" line-height="125%">
  <text y="535.94" x="277.99" font-size="208.33">
   <tspan y="535.94" x="277.99"/>
  </text>
  <text y="739.52" x="753.79" font-size="129.23">
   <tspan y="739.52" x="753.79"/>
  </text>
 </g>
 <text style="text-anchor:middle" transform="scale(4.0128.2492)" font-size="46.954" y="2618.42" x="384.93" font-family="Arial"/>
 <text style="word-spacing:0;letter-spacing:0" font-size="129.23" y="659.52" x="1335.06" font-family="&apos;Gentium Book Basic&apos;" line-height="125%">
  <tspan y="659.52" x="1335.06"/>
 </text>
 <text style="text-anchor:middle" transform="scale(4.0128.2492)" font-size="46.954" y="2297.39" x="529.78" font-family="Arial"/>
 <text style="word-spacing:0;letter-spacing:0" font-size="129.23" y="478.26" x="263.48" font-family="&apos;Gentium Book Basic&apos;" line-height="125%">
  <tspan y="478.26" x="263.48"/>
 </text>
 <text style="text-anchor:middle" transform="scale(4.0128.2492)" font-size="46.954" y="1570.04" x="262.74" font-family="Arial"/>
 <text style="word-spacing:0;letter-spacing:0" font-size="129.23" y="261.79" x="1361.53" font-family="&apos;Gentium Book Basic&apos;" line-height="125%">
  <tspan y="261.79" x="1361.53"/>
 </text>
 <text style="text-anchor:middle" transform="scale(4.0128.2492)" font-size="46.954" y="701.37" x="536.38" font-family="Arial"/>
 <text style="word-spacing:0;letter-spacing:0" font-size="129.23" y="181.78" x="1942.8" font-family="&apos;Gentium Book Basic&apos;" line-height="125%">
  <tspan y="181.78" x="1942.8"/>
 </text>
 <text style="text-anchor:middle" transform="scale(4.0128.2492)" font-size="46.954" y="380.33" x="681.23" font-family="Arial"/>
 <text style="word-spacing:0;letter-spacing:0" font-size="129.23" y="-290.62" x="1553.68" font-family="&apos;Gentium Book Basic&apos;" line-height="125%">
  <tspan y="-290.62" x="1553.68"/>
 </text>
 <text style="text-anchor:middle" transform="scale(4.0128.2492)" font-size="46.954" y="-1515.32" x="584.26" font-family="Arial"/>
 <text style="word-spacing:0;letter-spacing:0" font-size="129.23" y="-370.62" x="2134.94" font-family="&apos;Gentium Book Basic&apos;" line-height="125%">
  <tspan y="-370.62" x="2134.94"/>
 </text>
 <text style="text-anchor:middle" transform="scale(4.0128.2492)" font-size="46.954" y="-1836.35" x="729.11" font-family="Arial"/>
 <g style="word-spacing:0;letter-spacing:0" font-family="&apos;Gentium Book Basic&apos;" line-height="125%">
  <text y="1044.1" x="302.14" font-size="208.33">
   <tspan y="1044.1" x="302.14"/>
  </text>
  <text y="909.78" x="1056.16" font-size="129.23">
   <tspan y="909.78" x="1056.16"/>
  </text>
 </g>
 <text style="text-anchor:middle" transform="scale(4.0128.2492)" font-size="46.954" y="3301.61" x="460.28" font-family="Arial"/>
 <text style="word-spacing:0;letter-spacing:0" font-size="129.23" y="829.78" x="1637.43" font-family="&apos;Gentium Book Basic&apos;" line-height="125%">
  <tspan y="829.78" x="1637.43"/>
 </text>
 <text style="text-anchor:middle" transform="scale(4.0128.2492)" font-size="46.954" y="2980.58" x="605.13" font-family="Arial"/>
 <text style="word-spacing:0;letter-spacing:0" font-size="129.23" y="648.52" x="565.85" font-family="&apos;Gentium Book Basic&apos;" line-height="125%">
  <tspan y="648.52" x="565.85"/>
 </text>
 <text style="text-anchor:middle" transform="scale(4.0128.2492)" font-size="46.954" y="2253.22" x="338.09" font-family="Arial"/>
 <text style="word-spacing:0;letter-spacing:0" font-size="129.23" y="432.05" x="1663.9" font-family="&apos;Gentium Book Basic&apos;" line-height="125%">
  <tspan y="432.05" x="1663.9"/>
 </text>
 <text style="text-anchor:middle" transform="scale(4.0128.2492)" font-size="46.954" y="1384.56" x="611.73" font-family="Arial"/>
 <text style="word-spacing:0;letter-spacing:0" font-size="129.23" y="352.04" x="2245.17" font-family="&apos;Gentium Book Basic&apos;" line-height="125%">
  <tspan y="352.04" x="2245.17"/>
 </text>
 <text style="text-anchor:middle" transform="scale(4.0128.2492)" font-size="46.954" y="1063.52" x="756.57" font-family="Arial"/>
 <text style="word-spacing:0;letter-spacing:0" font-size="129.23" y="-120.36" x="1856.05" font-family="&apos;Gentium Book Basic&apos;" line-height="125%">
  <tspan y="-120.36" x="1856.05"/>
 </text>
 <text style="text-anchor:middle" transform="scale(4.0128.2492)" font-size="46.954" y="-832.13" x="659.61" font-family="Arial"/>
 <text style="word-spacing:0;letter-spacing:0" font-size="129.23" y="-200.36" x="2437.31" font-family="&apos;Gentium Book Basic&apos;" line-height="125%">
  <tspan y="-200.36" x="2437.31"/>
 </text>
 <text style="text-anchor:middle" transform="scale(4.0128.2492)" font-size="46.954" y="-1153.16" x="804.45" font-family="Arial"/>
 <g style="word-spacing:0;letter-spacing:0" font-family="&apos;Gentium Book Basic&apos;" line-height="125%">
  <text y="1214.36" x="604.51" font-size="208.33">
   <tspan y="1214.36" x="604.51"/>
  </text>
  <text y="879.4" x="1043.14" font-size="129.23">
   <tspan y="879.4" x="1043.14"/>
  </text>
 </g>
 <text style="text-anchor:middle" transform="scale(4.0128.2492)" font-size="46.954" y="3179.73" x="457.03" font-family="Arial"/>
 <text style="word-spacing:0;letter-spacing:0" font-size="129.23" y="799.4" x="1624.41" font-family="&apos;Gentium Book Basic&apos;" line-height="125%">
  <tspan y="799.4" x="1624.41"/>
 </text>
 <text style="text-anchor:middle" transform="scale(4.0128.2492)" font-size="46.954" y="2858.7" x="601.88" font-family="Arial"/>
 <text style="word-spacing:0;letter-spacing:0" font-size="129.23" y="618.14" x="552.83" font-family="&apos;Gentium Book Basic&apos;" line-height="125%">
  <tspan y="618.14" x="552.83"/>
 </text>
 <text style="text-anchor:middle" transform="scale(4.0128.2492)" font-size="46.954" y="2131.34" x="334.84" font-family="Arial"/>
 <text style="word-spacing:0;letter-spacing:0" font-size="129.23" y="401.67" x="1650.88" font-family="&apos;Gentium Book Basic&apos;" line-height="125%">
  <tspan y="401.67" x="1650.88"/>
 </text>
 <text style="text-anchor:middle" transform="scale(4.0128.2492)" font-size="46.954" y="1262.68" x="608.48" font-family="Arial"/>
 <text style="word-spacing:0;letter-spacing:0" font-size="129.23" y="321.66" x="2232.15" font-family="&apos;Gentium Book Basic&apos;" line-height="125%">
  <tspan y="321.66" x="2232.15"/>
 </text>
 <text style="text-anchor:middle" transform="scale(4.0128.2492)" font-size="46.954" y="941.64" x="753.33" font-family="Arial"/>
 <text style="word-spacing:0;letter-spacing:0" font-size="129.23" y="-150.74" x="1843.03" font-family="&apos;Gentium Book Basic&apos;" line-height="125%">
  <tspan y="-150.74" x="1843.03"/>
 </text>
 <text style="text-anchor:middle" transform="scale(4.0128.2492)" font-size="46.954" y="-954.01" x="656.36" font-family="Arial"/>
 <text style="word-spacing:0;letter-spacing:0" font-size="129.23" y="-230.74" x="2424.29" font-family="&apos;Gentium Book Basic&apos;" line-height="125%">
  <tspan y="-230.74" x="2424.29"/>
 </text>
 <text style="text-anchor:middle" transform="scale(4.0128.2492)" font-size="46.954" y="-1275.04" x="801.21" font-family="Arial"/>
 <g style="word-spacing:0;letter-spacing:0" font-family="&apos;Gentium Book Basic&apos;" line-height="125%">
  <text y="1183.98" x="591.49" font-size="208.33">
   <tspan y="1183.98" x="591.49"/>
  </text>
  <text y="945.09" x="1003.85" font-size="129.23">
   <tspan y="945.09" x="1003.85"/>
  </text>
 </g>
 <text style="text-anchor:middle" transform="scale(4.0128.2492)" font-size="46.954" y="3443.31" x="447.24" font-family="Arial"/>
 <text style="word-spacing:0;letter-spacing:0" font-size="129.23" y="865.09" x="1585.12" font-family="&apos;Gentium Book Basic&apos;" line-height="125%">
  <tspan y="865.09" x="1585.12"/>
 </text>
 <text style="text-anchor:middle" transform="scale(4.0128.2492)" font-size="46.954" y="3122.29" x="592.09" font-family="Arial"/>
 <text style="word-spacing:0;letter-spacing:0" font-size="129.23" y="683.83" x="513.54" font-family="&apos;Gentium Book Basic&apos;" line-height="125%">
  <tspan y="683.83" x="513.54"/>
 </text>
 <text style="text-anchor:middle" transform="scale(4.0128.2492)" font-size="46.954" y="2394.93" x="325.05" font-family="Arial"/>
 <text style="word-spacing:0;letter-spacing:0" font-size="129.23" y="467.36" x="1611.59" font-family="&apos;Gentium Book Basic&apos;" line-height="125%">
  <tspan y="467.36" x="1611.59"/>
 </text>
 <text style="text-anchor:middle" transform="scale(4.0128.2492)" font-size="46.954" y="1526.26" x="598.69" font-family="Arial"/>
 <text style="word-spacing:0;letter-spacing:0" font-size="129.23" y="387.35" x="2192.86" font-family="&apos;Gentium Book Basic&apos;" line-height="125%">
  <tspan y="387.35" x="2192.86"/>
 </text>
 <text style="text-anchor:middle" transform="scale(4.0128.2492)" font-size="46.954" y="1205.23" x="743.54" font-family="Arial"/>
 <text style="word-spacing:0;letter-spacing:0" font-size="129.23" y="-85.05" x="1803.74" font-family="&apos;Gentium Book Basic&apos;" line-height="125%">
  <tspan y="-85.05" x="1803.74"/>
 </text>
 <text style="text-anchor:middle" transform="scale(4.0128.2492)" font-size="46.954" y="-690.42" x="646.57" font-family="Arial"/>
 <text style="word-spacing:0;letter-spacing:0" font-size="129.23" y="-165.05" x="2385" font-family="&apos;Gentium Book Basic&apos;" line-height="125%">
  <tspan y="-165.05" x="2385"/>
 </text>
 <text style="text-anchor:middle" transform="scale(4.0128.2492)" font-size="46.954" y="-1011.45" x="791.42" font-family="Arial"/>
 <g style="word-spacing:0;letter-spacing:0" font-family="&apos;Gentium Book Basic&apos;" line-height="125%">
  <text y="1249.67" x="552.2" font-size="208.33">
   <tspan y="1249.67" x="552.2"/>
  </text>
  <text y="849.38" x="422.65" font-size="129.23">
   <tspan y="849.38" x="422.65"/>
  </text>
 </g>
 <text style="text-anchor:middle" transform="scale(4.0128.2492)" font-size="46.954" y="3059.27" x="302.4" font-family="Arial"/>
 <text style="word-spacing:0;letter-spacing:0" font-size="129.23" y="769.38" x="1003.92" font-family="&apos;Gentium Book Basic&apos;" line-height="125%">
  <tspan y="769.38" x="1003.92"/>
 </text>
 <text style="text-anchor:middle" transform="scale(4.0128.2492)" font-size="46.954" y="2738.24" x="447.25" font-family="Arial"/>
 <text style="word-spacing:0;letter-spacing:0" font-size="129.23" y="588.12" x="-67.66" font-family="&apos;Gentium Book Basic&apos;" line-height="125%">
  <tspan y="588.12" x="-67.66"/>
 </text>
 <text style="text-anchor:middle" transform="scale(4.0128.2492)" font-size="46.954" y="2010.88" x="180.21" font-family="Arial"/>
 <text style="word-spacing:0;letter-spacing:0" font-size="129.23" y="371.65" x="1030.39" font-family="&apos;Gentium Book Basic&apos;" line-height="125%">
  <tspan y="371.65" x="1030.39"/>
 </text>
 <text style="text-anchor:middle" transform="scale(4.0128.2492)" font-size="46.954" y="1142.23" x="453.85" font-family="Arial"/>
 <text style="word-spacing:0;letter-spacing:0" font-size="129.23" y="291.64" x="1611.66" font-family="&apos;Gentium Book Basic&apos;" line-height="125%">
  <tspan y="291.64" x="1611.66"/>
 </text>
 <text style="text-anchor:middle" transform="scale(4.0128.2492)" font-size="46.954" y="821.19" x="598.7" font-family="Arial"/>
 <text style="word-spacing:0;letter-spacing:0" font-size="129.23" y="-180.76" x="1222.54" font-family="&apos;Gentium Book Basic&apos;" line-height="125%">
  <tspan y="-180.76" x="1222.54"/>
 </text>
 <text style="text-anchor:middle" transform="scale(4.0128.2492)" font-size="46.954" y="-1074.45" x="501.73" font-family="Arial"/>
 <text style="word-spacing:0;letter-spacing:0" font-size="129.23" y="-260.76" x="1803.8" font-family="&apos;Gentium Book Basic&apos;" line-height="125%">
  <tspan y="-260.76" x="1803.8"/>
 </text>
 <text style="text-anchor:middle" transform="scale(4.0128.2492)" font-size="46.954" y="-1395.48" x="646.58" font-family="Arial"/>
 <g style="word-spacing:0;letter-spacing:0" font-family="&apos;Gentium Book Basic&apos;" line-height="125%">
  <text y="1153.96" x="-29" font-size="208.33">
   <tspan y="1153.96" x="-29"/>
  </text>
  <text y="816.4" x="388.61" font-size="200" stroke="#555753" fill="#555753">
   <tspan y="816.4" x="388.61"/>
  </text>
 </g>
 <g fill="#555753">
  <text style="text-anchor:middle" transform="scale(4.0128.2492)" font-size="72.67" y="2735.69" x="401.86" font-family="Arial"/>
  <text style="word-spacing:0;letter-spacing:0" font-size="200" stroke="#555753" y="869.54" x="1133.98" font-family="&apos;Gentium Book Basic&apos;" line-height="125%">
   <tspan y="869.54" x="1133.98"/>
  </text>
  <text style="text-anchor:middle" transform="scale(4.0128.2492)" font-size="72.67" y="2948.94" x="587.61" font-family="Arial"/>
  <text style="word-spacing:0;letter-spacing:0" font-size="200" stroke="#555753" y="745.72" x="2033.6" font-family="&apos;Gentium Book Basic&apos;" line-height="125%">
   <tspan y="745.72" x="2033.6"/>
  </text>
  <text style="text-anchor:middle" transform="scale(4.0128.2492)" font-size="72.67" y="2452.08" x="811.79" font-family="Arial"/>
  <text style="word-spacing:0;letter-spacing:0" font-size="200" stroke="#555753" y="693.08" x="1161.45" font-family="&apos;Gentium Book Basic&apos;" line-height="125%">
   <tspan y="693.08" x="1161.45"/>
  </text>
  <text style="text-anchor:middle" transform="scale(4.0128.2492)" font-size="72.67" y="2240.86" x="594.45" font-family="Arial"/>
  <text style="word-spacing:0;letter-spacing:0" font-size="200" stroke="#555753" y="569.27" x="2061.06" font-family="&apos;Gentium Book Basic&apos;" line-height="125%">
   <tspan y="569.27" x="2061.06"/>
  </text>
  <text style="text-anchor:middle" transform="scale(4.0128.2492)" font-size="72.67" y="1744" x="818.63" font-family="Arial"/>
  <text style="word-spacing:0;letter-spacing:0" font-size="200" stroke="#555753" y="1144.97" x="-1848.54" font-family="&apos;Gentium Book Basic&apos;" line-height="125%">
   <tspan y="1144.97" x="-1848.54"/>
  </text>
  <text style="text-anchor:middle" transform="scale(4.0128.2492)" font-size="72.67" y="4054.19" x="-155.64" font-family="Arial"/>
 </g>
 <text style="word-spacing:0;letter-spacing:0" font-size="208.33" y="1179.08" x="7.02" font-family="&apos;Gentium Book Basic&apos;" line-height="125%">
  <tspan y="1179.08" x="7.02"/>
 </text>
 <text style="text-anchor:middle" transform="scale(4.0128.2492)" font-size="75.7" y="4168.58" x="319.47" font-family="Arial"/>
 <g fill="#654641">
  <text style="word-spacing:0;letter-spacing:0" transform="scale(1.05082.95163)" font-size="84.77" y="956.99" x="1598.92" font-family="&apos;Gentium Book Basic&apos;" line-height="125%">
   <tspan y="956.99" x="1598.92"/>
  </text>
  <text style="text-anchor:middle" transform="scale(4.21677.23715)" font-size="30.8" y="3611.2" x="527.74" font-family="Arial"/>
  <text style="word-spacing:0;letter-spacing:0" transform="scale(1.05082.95163)" font-size="45.38" y="933.49" x="1866.73" font-family="&apos;Gentium Book Basic&apos;" line-height="125%">
   <tspan y="933.49" x="1866.73"/>
  </text>
  <text style="text-anchor:middle" transform="scale(4.21677.23715)" font-size="16.488" y="3623.34" x="534.4" font-family="Arial"/>
  <text style="word-spacing:0;letter-spacing:0" font-size="132.57" y="990.2" x="939.28" font-family="&apos;Gentium Book Basic&apos;" line-height="125%">
   <tspan y="990.2" x="939.28"/>
  </text>
  <text style="text-anchor:middle" transform="scale(4.0128.2492)" font-size="48.17" y="3615.28" x="436.26" font-family="Arial"/>
  <text style="word-spacing:0;letter-spacing:0" transform="scale(1.05082.95163)" font-size="84.77" y="921.47" x="1037.55" font-family="&apos;Gentium Book Basic&apos;" line-height="125%">
   <tspan y="921.47" x="1037.55"/>
  </text>
  <text style="text-anchor:middle" transform="scale(4.21677.23715)" font-size="30.8" y="3468.65" x="387.83" font-family="Arial"/>
  <text style="word-spacing:0;letter-spacing:0" transform="scale(1.05082.95163)" font-size="45.38" y="897.97" x="1305.35" font-family="&apos;Gentium Book Basic&apos;" line-height="125%">
   <tspan y="897.97" x="1305.35"/>
  </text>
  <text style="text-anchor:middle" transform="scale(4.21677.23715)" font-size="16.488" y="3480.78" x="394.5" font-family="Arial"/>
  <text style="word-spacing:0;letter-spacing:0" font-size="132.57" y="956.39" x="349.37" font-family="&apos;Gentium Book Basic&apos;" line-height="125%">
   <tspan y="956.39" x="349.37"/>
  </text>
  <text style="text-anchor:middle" transform="scale(4.0128.2492)" font-size="48.17" y="3479.62" x="289.25" font-family="Arial"/>
 </g>
 <g style="word-spacing:0;letter-spacing:0" font-family="&apos;Gentium Book Basic&apos;" transform="translate(964.35 700.11)" font-size="208.33" line-height="125%">
  <text y="236.4" x="-352.73">
   <tspan y="236.4" x="-352.73"/>
  </text>
  <text y="78.57" x="-645.81">
   <tspan y="78.57" x="-645.81"/>
  </text>
 </g>
 <g fill="#654641">
  <text style="word-spacing:0;letter-spacing:0" transform="scale(1.05082.95163)" font-size="84.77" y="916.84" x="1007.24" font-family="&apos;Gentium Book Basic&apos;" line-height="125%">
   <tspan y="916.84" x="1007.24"/>
  </text>
  <text style="text-anchor:middle" transform="scale(4.21677.23715)" font-size="30.8" y="3450.08" x="380.28" font-family="Arial"/>
  <text style="word-spacing:0;letter-spacing:0" transform="scale(1.05082.95163)" font-size="45.38" y="893.34" x="1275.04" font-family="&apos;Gentium Book Basic&apos;" line-height="125%">
   <tspan y="893.34" x="1275.04"/>
  </text>
  <text style="text-anchor:middle" transform="scale(4.21677.23715)" font-size="16.488" y="3462.22" x="386.95" font-family="Arial"/>
  <text style="word-spacing:0;letter-spacing:0" font-size="132.57" y="951.99" x="317.52" font-family="&apos;Gentium Book Basic&apos;" line-height="125%">
   <tspan y="951.99" x="317.52"/>
  </text>
  <text style="text-anchor:middle" transform="scale(4.0128.2492)" font-size="48.17" y="3461.96" x="281.31" font-family="Arial"/>
 </g>
 <text style="word-spacing:0;letter-spacing:0" font-size="129.23" y="731.85" x="903.37" font-family="&apos;Gentium Book Basic&apos;" line-height="125%">
  <tspan y="731.85" x="903.37"/>
 </text>
 <text style="text-anchor:middle" transform="scale(4.0128.2492)" font-size="46.954" y="2587.64" x="422.2" font-family="Arial"/>
 <text style="word-spacing:0;letter-spacing:0" font-size="129.23" y="651.85" x="1484.64" font-family="&apos;Gentium Book Basic&apos;" line-height="125%">
  <tspan y="651.85" x="1484.64"/>
 </text>
 <text style="text-anchor:middle" transform="scale(4.0128.2492)" font-size="46.954" y="2266.61" x="567.05" font-family="Arial"/>
 <text style="word-spacing:0;letter-spacing:0" font-size="129.23" y="470.59" x="413.06" font-family="&apos;Gentium Book Basic&apos;" line-height="125%">
  <tspan y="470.59" x="413.06"/>
 </text>
 <text style="text-anchor:middle" transform="scale(4.0128.2492)" font-size="46.954" y="1539.26" x="300.01" font-family="Arial"/>
 <text style="word-spacing:0;letter-spacing:0" font-size="129.23" y="254.12" x="1511.11" font-family="&apos;Gentium Book Basic&apos;" line-height="125%">
  <tspan y="254.12" x="1511.11"/>
 </text>
 <text style="text-anchor:middle" transform="scale(4.0128.2492)" font-size="46.954" y="670.59" x="573.65" font-family="Arial"/>
 <text style="word-spacing:0;letter-spacing:0" font-size="129.23" y="174.11" x="2092.38" font-family="&apos;Gentium Book Basic&apos;" line-height="125%">
  <tspan y="174.11" x="2092.38"/>
 </text>
 <text style="text-anchor:middle" transform="scale(4.0128.2492)" font-size="46.954" y="349.55" x="718.5" font-family="Arial"/>
 <text style="word-spacing:0;letter-spacing:0" font-size="129.23" y="-298.29" x="1703.26" font-family="&apos;Gentium Book Basic&apos;" line-height="125%">
  <tspan y="-298.29" x="1703.26"/>
 </text>
 <text style="text-anchor:middle" transform="scale(4.0128.2492)" font-size="46.954" y="-1546.1" x="621.53" font-family="Arial"/>
 <text style="word-spacing:0;letter-spacing:0" font-size="129.23" y="-378.29" x="2284.52" font-family="&apos;Gentium Book Basic&apos;" line-height="125%">
  <tspan y="-378.29" x="2284.52"/>
 </text>
 <text style="text-anchor:middle" transform="scale(4.0128.2492)" font-size="46.954" y="-1867.13" x="766.38" font-family="Arial"/>
 <g style="word-spacing:0;letter-spacing:0" font-family="&apos;Gentium Book Basic&apos;" line-height="125%">
  <text y="1036.43" x="451.72" font-size="208.33">
   <tspan y="1036.43" x="451.72"/>
  </text>
  <text y="231.36" x="729.64" font-size="129.23">
   <tspan y="231.36" x="729.64"/>
  </text>
 </g>
 <text style="text-anchor:middle" transform="scale(4.0128.2492)" font-size="46.954" y="579.26" x="378.91" font-family="Arial"/>
 <text style="word-spacing:0;letter-spacing:0" font-size="129.23" y="151.36" x="1310.91" font-family="&apos;Gentium Book Basic&apos;" line-height="125%">
  <tspan y="151.36" x="1310.91"/>
 </text>
 <text style="text-anchor:middle" transform="scale(4.0128.2492)" font-size="46.954" y="258.22" x="523.76" font-family="Arial"/>
 <text style="word-spacing:0;letter-spacing:0" font-size="129.23" y="-29.9" x="239.33" font-family="&apos;Gentium Book Basic&apos;" line-height="125%">
  <tspan y="-29.9" x="239.33"/>
 </text>
 <text style="text-anchor:middle" transform="scale(4.0128.2492)" font-size="46.954" y="-469.13" x="256.72" font-family="Arial"/>
 <text style="word-spacing:0;letter-spacing:0" font-size="129.23" y="-246.37" x="1337.38" font-family="&apos;Gentium Book Basic&apos;" line-height="125%">
  <tspan y="-246.37" x="1337.38"/>
 </text>
 <text style="text-anchor:middle" transform="scale(4.0128.2492)" font-size="46.954" y="-1337.8" x="530.36" font-family="Arial"/>
 <text style="word-spacing:0;letter-spacing:0" font-size="129.23" y="-326.37" x="1918.65" font-family="&apos;Gentium Book Basic&apos;" line-height="125%">
  <tspan y="-326.37" x="1918.65"/>
 </text>
 <text style="text-anchor:middle" transform="scale(4.0128.2492)" font-size="46.954" y="-1658.83" x="675.21" font-family="Arial"/>
 <text style="word-spacing:0;letter-spacing:0" font-size="129.23" y="-798.77" x="1529.53" font-family="&apos;Gentium Book Basic&apos;" line-height="125%">
  <tspan y="-798.77" x="1529.53"/>
 </text>
 <text style="text-anchor:middle" transform="scale(4.0128.2492)" font-size="46.954" y="-3554.48" x="578.24" font-family="Arial"/>
 <text style="word-spacing:0;letter-spacing:0" font-size="129.23" y="-878.78" x="2110.79" font-family="&apos;Gentium Book Basic&apos;" line-height="125%">
  <tspan y="-878.78" x="2110.79"/>
 </text>
 <text style="text-anchor:middle" transform="scale(4.0128.2492)" font-size="46.954" y="-3875.52" x="723.09" font-family="Arial"/>
 <g style="word-spacing:0;letter-spacing:0" font-family="&apos;Gentium Book Basic&apos;" line-height="125%">
  <text y="535.94" x="277.99" font-size="208.33">
   <tspan y="535.94" x="277.99"/>
  </text>
  <text y="302.45" x="1497" font-size="129.23">
   <tspan y="302.45" x="1497"/>
  </text>
 </g>
 <text style="text-anchor:middle" transform="scale(4.0128.2492)" font-size="46.954" y="864.54" x="570.13" font-family="Arial"/>
 <text style="word-spacing:0;letter-spacing:0" font-size="129.23" y="222.45" x="2078.27" font-family="&apos;Gentium Book Basic&apos;" line-height="125%">
  <tspan y="222.45" x="2078.27"/>
 </text>
 <text style="text-anchor:middle" transform="scale(4.0128.2492)" font-size="46.954" y="543.5" x="714.98" font-family="Arial"/>
 <text style="word-spacing:0;letter-spacing:0" font-size="129.23" y="41.19" x="1006.69" font-family="&apos;Gentium Book Basic&apos;" line-height="125%">
  <tspan y="41.19" x="1006.69"/>
 </text>
 <text style="text-anchor:middle" transform="scale(4.0128.2492)" font-size="46.954" y="-183.84" x="447.94" font-family="Arial"/>
 <text style="word-spacing:0;letter-spacing:0" font-size="129.23" y="-175.28" x="2104.74" font-family="&apos;Gentium Book Basic&apos;" line-height="125%">
  <tspan y="-175.28" x="2104.74"/>
 </text>
 <text style="text-anchor:middle" transform="scale(4.0128.2492)" font-size="46.954" y="-1052.52" x="721.58" font-family="Arial"/>
 <text style="word-spacing:0;letter-spacing:0" font-size="129.23" y="-255.28" x="2686.01" font-family="&apos;Gentium Book Basic&apos;" line-height="125%">
  <tspan y="-255.28" x="2686.01"/>
 </text>
 <text style="text-anchor:middle" transform="scale(4.0128.2492)" font-size="46.954" y="-1373.55" x="866.43" font-family="Arial"/>
 <text style="word-spacing:0;letter-spacing:0" font-size="129.23" y="-727.68" x="2296.89" font-family="&apos;Gentium Book Basic&apos;" line-height="125%">
  <tspan y="-727.68" x="2296.89"/>
 </text>
 <text style="text-anchor:middle" transform="scale(4.0128.2492)" font-size="46.954" y="-3269.2" x="769.46" font-family="Arial"/>
 <text style="word-spacing:0;letter-spacing:0" font-size="129.23" y="-807.69" x="2878.15" font-family="&apos;Gentium Book Basic&apos;" line-height="125%">
  <tspan y="-807.69" x="2878.15"/>
 </text>
 <text style="text-anchor:middle" transform="scale(4.0128.2492)" font-size="46.954" y="-3590.23" x="914.31" font-family="Arial"/>
 <text style="word-spacing:0;letter-spacing:0" font-size="208.33" y="607.03" x="1045.35" font-family="&apos;Gentium Book Basic&apos;" line-height="125%">
  <tspan y="607.03" x="1045.35"/>
 </text>
 <g fill-rule="evenodd">
  <path d="m471.95 253.05c0 120.9-98.01 218.91-218.91 218.91s-218.91-98.01-218.91-218.91 98.01-218.91 218.91-218.91 218.91 98.01 218.91 218.91" fill="#635de4"/>
  <path d="m256 1c-140.83 0-255 114.17-255 255s114.17 255 255 255 255-114.17 255-255-114.17-255-255-255m8.827 44.931c120.9 0 218.9 98 218.9 218.9s-98 218.9-218.9 218.9-218.93-98-218.93-218.9 98.03-218.9 218.93-218.9" fill-opacity=".067"/>
  <g fill-opacity=".129">
   <path d="m256 4.43c-138.94 0-251.57 112.63-251.57 251.57s112.63 251.57 251.57 251.57 251.57-112.63 251.57-251.57-112.63-251.57-251.57-251.57m5.885 38.556c120.9 0 218.9 98 218.9 218.9s-98 218.9-218.9 218.9-218.93-98-218.93-218.9 98.03-218.9 218.93-218.9"/>
   <path d="m256 8.36c-136.77 0-247.64 110.87-247.64 247.64s110.87 247.64 247.64 247.64 247.64-110.87 247.64-247.64-110.87-247.64-247.64-247.64m2.942 31.691c120.9 0 218.9 98 218.9 218.9s-98 218.9-218.9 218.9-218.93-98-218.93-218.9 98.03-218.9 218.93-218.9"/>
  </g>
  <path stroke="#000" stroke-width="4.904" d="m253.04 7.86c-135.42 0-245.19 109.78-245.19 245.19 0 135.42 109.78 245.19 245.19 245.19 135.42 0 245.19-109.78 245.19-245.19 0-135.42-109.78-245.19-245.19-245.19zm0 26.297c120.9 0 218.9 98 218.9 218.9s-98 218.9-218.9 218.9-218.93-98-218.93-218.9 98.03-218.9 218.93-218.9z" stroke-opacity=".31" fill="#fff"/>
 </g>
 <text opacity=".77" style="word-spacing:0;letter-spacing:0" stroke-width="16" font-size="297.84" filter="url(#2)" stroke="#d23638" y="357.41" x="118.99" font-family="&apos;TeX Gyre Bonum&apos;" line-height="125%" fill="#fff">
  <tspan y="357.41" x="118.99">M</tspan>
 </text>
 <path opacity=".25" d="m128.52 154.59v9.232l26.652 26.65v0.002c0.093 2.17 0.154 4.454 0.154 7v117.05c0 24.13-4.169 31.27-19.359 32.764l-9.234 0.893v9.232l114.21 114.21c4 0.218 8.04 0.338 12.1 0.338 120.9 0 218.91-98.01 218.91-218.91 0-4.069-0.121-8.111-0.34-12.12l-86.34-86.34h-67.908l-34.477 84.957-84.957-84.957h-69.4"/>
 <path d="m385.26 357.41v-9.233l-7.446-0.894c-15.488-2.085-19.36-8.34-19.36-32.763v-117.05c0-24.423 3.872-30.678 19.36-32.763l7.446-0.894v-9.233h-67.908l-62.25 153.39-57.19-153.39h-69.4v9.233l7.446 0.894c15.488 2.085 19.36 8.34 19.36 32.763v117.05c0 24.13-4.17 31.27-19.36 32.763l-9.233 0.894v9.233h75.35v-9.233l-10.424-0.894c-15.19-1.489-19.36-8.637-19.36-32.763v-142.37l68.21 185.26h13.403l74.76-181.68v138.79c0 24.423-3.872 30.678-19.36 32.763l-7.446 0.894v9.233h83.4" fill="#fff"/>
</svg>
