<?xml version="1.0" encoding="UTF-8" standalone="no"?>
<!-- Created with Inkscape (http://www.inkscape.org/) -->
<svg id="svg2" xmlns:rdf="http://www.w3.org/1999/02/22-rdf-syntax-ns#" xmlns="http://www.w3.org/2000/svg" height="100%" viewBox="0 0 512 512" width="100%" version="1.1" xmlns:cc="http://creativecommons.org/ns#" xmlns:dc="http://purl.org/dc/elements/1.1/">
 <metadata id="metadata74">
  <rdf:RDF>
   <cc:Work rdf:about="">
    <dc:format>image/svg+xml</dc:format>
    <dc:type rdf:resource="http://purl.org/dc/dcmitype/StillImage"/>
   </cc:Work>
  </rdf:RDF>
 </metadata>
 <g id="g4" transform="translate(0,-540.36)">
  <path id="path6" d="m471.95 793.41c0 120.9-98.01 218.9-218.9 218.9-120.9 0-218.9-98.01-218.9-218.9 0-120.9 98.01-218.9 218.9-218.9 120.9 0 218.9 98.01 218.9 218.9" fill-rule="evenodd" fill="#4d4d4d"/>
  <path id="path8" d="m125.78 125.19 99.72 134.38-99.72 127.25h1.781c-0.012 0.016-0.781 1-0.781 1h1.781c-0.012 0.016-0.781 1-0.781 1h1.781c-0.012 0.016-0.781 1-0.781 1h1.719c-0.011 0.014-0.75 0.969-0.75 0.969h1.781c-0.012 0.016-0.781 1-0.781 1h1.781c-0.012 0.016-0.781 1-0.781 1h1.781c-0.012 0.016-0.781 1-0.781 1h1.781c-0.012 0.016-0.781 1-0.781 1h1.781c-0.012 0.016-0.781 1-0.781 1h1.719c-0.011 0.014-0.75 0.969-0.75 0.969h1.781c-0.012 0.016-0.781 1-0.781 1h1.781l-0.781 1h1.781c-0.012 0.016-0.781 1-0.781 1h1.781c-0.012 0.016-0.781 1-0.781 1h1.781l-0.781 1h1.719c-0.011 0.014-0.75 0.969-0.75 0.969h1.781c-0.012 0.016-0.781 1-0.781 1h1.781l-0.781 1h1.781c-0.012 0.016-0.781 1-0.781 1h1.781c-0.012 0.016-0.781 1-0.781 1h1.781l-0.781 1h1.719c-0.011 0.014-0.75 0.969-0.75 0.969h1.781c-0.012 0.016-0.781 1-0.781 1h1.781l-0.781 1h1.781c-0.012 0.016-0.781 1-0.781 1h1.781c-0.012 0.016-0.781 1-0.781 1h1.781l-0.781 1h1.781c-0.012 0.016-0.781 1-0.781 1h1.719c-0.011 0.014-0.75 0.969-0.75 0.969h1.781l-0.781 1h1.781c-0.012 0.016-0.781 1-0.781 1h1.781c-0.012 0.016-0.781 1-0.781 1h1.781l-0.781 1h1.781c-0.012 0.016-0.781 1-0.781 1h1.719c-0.011 0.014-0.75 0.969-0.75 0.969h1.781l-0.781 1h1.781l-0.781 1h1.781c-0.012 0.016-0.781 1-0.781 1h1.781l-0.781 1h1.781l-0.781 1h1.719c-0.011 0.014-0.75 0.969-0.75 0.969h1.781l-0.781 1h1.781l-0.781 1h1.781c-0.012 0.016-0.781 1-0.781 1h1.781l-0.781 1h1.781l-0.781 1h1.781c-0.012 0.016-0.781 1-0.781 1h1.719l-0.75 0.969h1.781l-0.781 1h1.781c-0.012 0.016-0.781 1-0.781 1h1.781l-0.781 1h1.781l-0.781 1h1.781c-0.012 0.016-0.781 1-0.781 1h1.719l-0.75 0.969h1.781l-0.781 1h1.781c-0.012 0.016-0.781 1-0.781 1h1.781l-0.781 1h1.781l-0.781 1h1.781c-0.012 0.016-0.781 1-0.781 1h1.719c-0.011 0.014-0.75 0.969-0.75 0.969h1.781l-0.781 1h1.781c-0.012 0.016-0.781 1-0.781 1h1.781c-0.012 0.016-0.781 1-0.781 1h1.781l-0.781 1h1.781c-0.012 0.016-0.781 1-0.781 1h1.719c-0.011 0.014-0.75 0.969-0.75 0.969h1.781l-0.781 1h1.781c-0.012 0.016-0.781 1-0.781 1h1.781l-0.781 1h1.781l-0.781 1h1.781c-0.012 0.016-0.781 1-0.781 1h1.781c-0.012 0.016-0.781 1-0.781 1h1.719l-0.75 0.969h1.781c-0.012 0.016-0.781 1-0.781 1h1.781c-0.012 0.016-0.781 1-0.781 1h1.781l-0.781 1h1.781c-0.012 0.016-0.781 1-0.781 1h1.781c-0.012 0.016-0.781 1-0.781 1h1.719l-0.75 0.969h1.781c-0.012 0.016-0.781 1-0.781 1h1.781c-0.007 0.009-0.247 0.31-0.469 0.594 14.945 3.223 30.435 4.969 46.34 4.969 120.9 0 218.91-98.01 218.91-218.91 0-15.523-1.615-30.672-4.688-45.28h-0.219l0.156-0.219c-0.055-0.26-0.1-0.521-0.156-0.781h-1l0.781-1h-1.781l0.781-1h-1.781l0.781-1h-1.75l0.781-0.969h-1.781l0.781-1h-1.781l0.781-1h-1.781l0.781-1h-1.781l0.781-1h-1.781l0.781-1h-1.75l0.781-0.969h-1.781l0.781-1h-1.781l0.781-1h-1.781l0.781-1h-1.781l0.781-1h-1.781l0.781-1h-1.781l0.781-1h-1.75l0.781-0.969h-1.781l0.781-1h-1.781l0.781-1h-1.781l0.781-1h-1.781l0.781-1h-1.781l0.781-1h-1.75l0.781-0.969h-1.781l0.781-1h-1.781l0.781-1h-1.781l0.781-1h-1.781l0.781-1h-1.781l0.781-1h-1.75l0.781-0.969h-1.781l0.781-1h-1.781l0.781-1h-1.781l0.781-1h-1.781l0.781-1h-1.781l0.781-1h-1.75l0.781-0.969h-1.781l0.781-1h-1.781l0.781-1h-1.781l0.781-1h-1.781l0.781-1h-1.781l0.781-1h-1.781l0.781-1h-1.75l0.781-0.969h-1.781l0.781-1h-1.781l0.781-1h-1.781l0.781-1h-1.781l0.781-1h-1.781l0.781-1h-1.75l0.781-0.969h-1.781l0.781-1h-1.781l0.781-1h-1.781l0.781-1h-1.781l0.781-1h-1.781l0.781-1h-1.75l0.781-0.969h-1.781l0.781-1h-1.781l0.781-1h-1.781l0.781-1h-1.781l0.781-1h-1.781l0.781-1h-1.781l0.781-1h-1.75l0.781-0.969h-1.781l0.781-1h-1.781l0.781-1h-1.781l0.781-1h-1.781l0.781-1h-1.781l0.781-1h-1.75l0.781-0.969h-1.781l0.781-1h-1.781l0.781-1h-1.781l0.781-1h-1.781l0.781-1h-1.781l0.781-1h-1.75l0.781-0.969h-1.781l0.781-1h-1.781l0.781-1h-1.781l0.781-1h-1.781l0.781-1h-1.781l0.781-1h-1.75l0.781-0.969h-1.781l0.781-1h-1.781l0.781-1h-1.781l0.781-1h-23.438l-76.37 96.31-0.594-0.781h-0.281c-0.013-0.018-0.719-1-0.719-1h-0.281c-0.013-0.018-0.719-1-0.719-1h-0.25c-0.014-0.018-0.75-1-0.75-1h-0.281l-0.719-1h-0.25c-0.013-0.017-0.719-0.969-0.719-0.969h-0.281c-0.013-0.018-0.719-1-0.719-1h-0.25c-0.014-0.018-0.75-1-0.75-1h-0.281l-0.719-1h-0.25c-0.014-0.018-0.75-1-0.75-1h-0.281c-0.013-0.018-0.719-1-0.719-1h-0.25c-0.014-0.018-0.75-1-0.75-1h-0.25l-0.719-0.969h-0.281c-0.013-0.018-0.719-1-0.719-1h-0.25c-0.014-0.018-0.75-1-0.75-1h-0.281c-0.013-0.018-0.719-1-0.719-1h-0.281l-0.719-1h-0.281c-0.013-0.018-0.719-1-0.719-1h-0.25c-0.013-0.017-0.719-0.969-0.719-0.969h-0.281l-0.719-1h-0.25l-0.75-1h-0.281c-0.013-0.018-0.719-1-0.719-1h-0.25c-0.014-0.018-0.75-1-0.75-1h-0.281c-0.013-0.018-0.719-1-0.719-1h-0.25c-0.013-0.017-0.719-0.969-0.719-0.969h-0.281l-0.719-1h-0.25l-0.75-1h-0.281c-0.013-0.018-0.719-1-0.719-1h-0.25l-0.75-1h-0.281l-0.719-1h-0.281l-0.719-1h-0.25l-0.719-0.969h-0.281l-0.719-1h-0.25l-0.75-1h-0.281l-0.719-1h-0.281l-0.719-1h-0.281l-0.719-1h-0.25l-0.71-0.96h-0.281l-0.719-1h-0.25l-0.75-1h-0.281l-0.719-1h-0.25l-0.75-1h-0.281l-0.719-1h-0.25l-0.719-0.969h-0.281l-0.719-1h-0.281l-0.719-1h-0.281l-0.719-1h-0.281l-0.719-1h-0.281l-0.719-1h-0.25l-0.719-0.969h-0.25l-0.75-1h-0.281l-0.719-1h-0.281l-0.719-1h-0.25l-0.75-1h-0.281l-0.719-1h-0.281l-0.719-1h-0.25l-0.719-0.969h-0.281l-0.719-1h-0.25l-0.75-1h-0.281l-0.719-1h-0.25l-0.75-1h-0.281l-0.719-1h-0.25l-0.719-0.969h-0.281l-0.719-1h-0.281l-0.719-1h-0.281l-0.719-1h-0.281l-0.719-1h-0.281l-0.719-1h-0.25l-0.719-0.969h-0.25l-0.75-1h-0.281l-0.719-1h-0.281l-0.719-1h-0.25l-0.75-1h-0.281l-0.719-1h-0.281l-0.719-1h-0.25l-0.719-0.969h-0.281l-0.719-1h-0.25l-0.75-1h-0.281l-0.719-1h-0.281l-0.719-1h-0.281l-0.719-1h-0.25l-0.719-0.969h-0.25l-0.75-1h-0.281l-0.719-1h-0.281c-0.013-0.018-0.719-1-0.719-1h-0.281l-0.719-1h-0.281l-0.719-1h-0.25l-0.719-0.969h-0.281l-0.719-1h-0.281l-0.719-1h-0.25l-0.75-1h-0.281l-0.719-1h-0.281c-0.013-0.018-0.719-1-0.719-1h-0.25l-0.719-0.969h-0.281l-0.719-1h-0.281l-0.719-1h-0.281l-0.719-1h-64.5" fill-opacity=".235" transform="translate(0,540.36)"/>
  <g id="g10" fill-rule="evenodd">
   <path id="path12" fill-opacity=".067" d="m256 541.36c-140.83 0-255 114.17-255 255s114.17 255 255 255 255-114.17 255-255-114.17-255-255-255m8.827 44.931c120.9 0 218.9 98 218.9 218.9s-98 218.9-218.9 218.9-218.93-98-218.93-218.9 98.03-218.9 218.93-218.9"/>
   <g id="g14" fill-opacity=".129">
    <path id="path16" d="m256 544.79c-138.94 0-251.57 112.63-251.57 251.57s112.63 251.54 251.57 251.54 251.57-112.6 251.57-251.54-112.63-251.57-251.57-251.57m5.885 38.556c120.9 0 218.9 98 218.9 218.9s-98 218.9-218.9 218.9-218.93-98-218.93-218.9 98.03-218.9 218.93-218.9"/>
    <path id="path18" d="m256 548.72c-136.77 0-247.64 110.87-247.64 247.64s110.87 247.64 247.64 247.64 247.64-110.87 247.64-247.64-110.87-247.64-247.64-247.64m2.942 31.691c120.9 0 218.9 98 218.9 218.9s-98 218.9-218.9 218.9-218.93-98-218.93-218.9 98.03-218.9 218.93-218.9"/>
   </g>
   <path id="path20" d="m253.04 548.22c-135.42 0-245.19 109.78-245.19 245.19 0 135.42 109.78 245.19 245.19 245.19 135.42 0 245.19-109.78 245.19-245.19 0-135.42-109.78-245.19-245.19-245.19zm0 26.297c120.9 0 218.9 98 218.9 218.9s-98 218.9-218.9 218.9-218.93-98-218.93-218.9 98.03-218.9 218.93-218.9z" stroke-opacity=".31" stroke="#000" stroke-width="4.904" fill="#fff"/>
  </g>
  <text id="text22" style="word-spacing:0;letter-spacing:0" font-size="129.23px" line-height="125%" y="771.71997" x="729.64001" font-family="Gentium Book Basic">
   <tspan id="tspan24" y="771.71997" x="729.64001"/>
  </text>
  <text id="text26" style="text-anchor:middle" font-size="46.954px" transform="scale(4.0128 .2492)" y="2747.6399" x="378.91" font-family="Arial"/>
  <text id="text28" style="word-spacing:0;letter-spacing:0" font-size="129.23px" line-height="125%" y="691.71997" x="1310.91" font-family="Gentium Book Basic">
   <tspan id="tspan30" y="691.71997" x="1310.91"/>
  </text>
  <text id="text32" style="text-anchor:middle" font-size="46.954px" transform="scale(4.0128 .2492)" y="2426.6001" x="523.76001" font-family="Arial"/>
  <text id="text34" style="word-spacing:0;letter-spacing:0" font-size="129.23px" line-height="125%" y="510.45999" x="239.33" font-family="Gentium Book Basic">
   <tspan id="tspan36" y="510.45999" x="239.33"/>
  </text>
  <text id="text38" style="text-anchor:middle" font-size="46.954px" transform="scale(4.0128 .2492)" y="1699.25" x="256.72" font-family="Arial"/>
  <text id="text40" style="word-spacing:0;letter-spacing:0" font-size="129.23px" line-height="125%" y="293.98999" x="1337.38" font-family="Gentium Book Basic">
   <tspan id="tspan42" y="293.98999" x="1337.38"/>
  </text>
  <text id="text44" style="text-anchor:middle" font-size="46.954px" transform="scale(4.0128 .2492)" y="830.57001" x="530.35999" font-family="Arial"/>
  <text id="text46" style="word-spacing:0;letter-spacing:0" font-size="129.23px" line-height="125%" y="213.99001" x="1918.65" font-family="Gentium Book Basic">
   <tspan id="tspan48" y="213.99001" x="1918.65"/>
  </text>
  <text id="text50" style="text-anchor:middle" font-size="46.954px" transform="scale(4.0128 .2492)" y="509.54001" x="675.21002" font-family="Arial"/>
  <text id="text52" style="word-spacing:0;letter-spacing:0" font-size="129.23px" line-height="125%" y="-258.41" x="1529.53" font-family="Gentium Book Basic">
   <tspan id="tspan54" y="-258.41" x="1529.53"/>
  </text>
  <text id="text56" style="text-anchor:middle" font-size="46.954px" transform="scale(4.0128 .2492)" y="-1386.12" x="578.23999" font-family="Arial"/>
  <text id="text58" style="word-spacing:0;letter-spacing:0" font-size="129.23px" line-height="125%" y="-338.42001" x="2110.79" font-family="Gentium Book Basic">
   <tspan id="tspan60" y="-338.42001" x="2110.79"/>
  </text>
  <text id="text62" style="text-anchor:middle" font-size="46.954px" transform="scale(4.0128 .2492)" y="-1707.16" x="723.09003" font-family="Arial"/>
  <text id="text64" style="word-spacing:0;letter-spacing:0" font-size="208.33px" line-height="125%" y="1076.3" x="277.98999" font-family="Gentium Book Basic">
   <tspan id="tspan66" y="1076.3" x="277.98999"/>
  </text>
  <path id="path68" d="m296.79 612.63l104.06-132.79-104.06-140.25h67.3l83.35 113.49-126.86 159.55h-23.786m120.5-112.56 126.83-160.47h24.455l-104.09 131.67 104.09 141.36h-67.3l-83.98-112.56" fill="#fff" transform="matrix(.95814 0 0 .95814 -158.57 340.18)"/>
 </g>
</svg>
