<?xml version="1.0" encoding="UTF-8" standalone="no"?>
<svg
   xmlns:dc="http://purl.org/dc/elements/1.1/"
   xmlns:cc="http://creativecommons.org/ns#"
   xmlns:rdf="http://www.w3.org/1999/02/22-rdf-syntax-ns#"
   xmlns:svg="http://www.w3.org/2000/svg"
   xmlns="http://www.w3.org/2000/svg"
   id="svg2"
   viewBox="0 0 512 512"
   height="100%"
   width="100%"
   version="1.1">
  <metadata
     id="metadata10">
    <rdf:RDF>
      <cc:Work
         rdf:about="">
        <dc:format>image/svg+xml</dc:format>
        <dc:type
           rdf:resource="http://purl.org/dc/dcmitype/StillImage" />
        <dc:title />
      </cc:Work>
    </rdf:RDF>
  </metadata>
  <defs
     id="defs8" />
  <path
     style="fill:#d23638;fill-opacity:1;stroke:none"
     d="M 25.99955,0 C 11.60219,0 -4.6e-4,11.60265 -4.6e-4,26 l 0,460 c 0,14.39735 11.60265,26 26.00001,26 l 459.99999,0 c 14.39735,0 26,-11.60265 26,-26 l 0,-460 c 0,-14.39735 -11.60265,-26 -26,-26 L 25.99955,0 Z"
     id="rect2986" />
  <path
     id="path3013"
     d="m 255.99851,102.42701 c -38.07361,0 -72.97385,14.13889 -99.82031,37.11328 -12.70759,-6.14903 -40.45707,-17.45577 -74.22656,-16.63672 0,0 25.44478,50.88557 34.55468,69.10742 -2.39982,5.20302 -4.58219,10.50027 -6.39844,15.9961 -18.21979,4.55598 -69.10741,17.27929 -69.10741,17.27929 0,0 5.05072,6.88471 13.17578,15.00977 l 53.12695,53.12695 c 6.83479,27.44547 21.02835,51.96194 40.38086,71.31446 l 147.26172,147.26171 191.05468,0 c 14.39735,0 26,-11.60265 26,-26 l 0,-191.14843 L 364.57468,147.42506 C 336.77811,119.62848 298.38443,102.42701 255.99851,102.42701 Z"
     style="opacity:0.25;fill:#000000;fill-rule:evenodd" />
  <path
     d="m 255.99851,102.42783 c -38.07361,0 -72.9734,14.13888 -99.81986,37.11327 -12.70759,-6.14903 -40.45705,-17.45603 -74.22654,-16.63698 0,0 25.44383,50.88563 34.55373,69.10748 -2.39982,5.20302 -4.58259,10.50024 -6.39884,15.99607 -18.21979,4.55598 -69.10745,17.2779 -69.10745,17.2779 0,0 30.04486,40.95258 61.42884,40.95258 0,0 0.50372,-0.0819 0.64091,0 5.20712,80.06228 71.55439,143.33402 152.92921,143.33402 40.23591,0 76.90895,-15.60293 104.30621,-40.95258 l 110.69482,0 -68.4727,-68.47271 C 406.78589,286.07967 409.5707,271.4596 409.5707,256 c 0,-84.77184 -68.80036,-153.57217 -153.57219,-153.57217 z m -71.66496,61.42887 c 11.31315,-0.002 20.47629,9.16928 20.47629,20.47629 0,11.3111 -9.16519,20.47629 -20.47629,20.47629 -11.30701,0 -20.47629,-9.16928 -20.47629,-20.47629 0,-11.30701 9.17337,-20.47629 20.47629,-20.47629 z m 63.98636,61.42887 c 20.3739,-0.086 40.76829,7.49432 56.30979,23.03582 20.72199,20.72201 27.52015,50.3512 20.47629,76.78609 -26.41442,7.04384 -56.04361,0.26619 -76.78608,-20.47629 -20.72611,-20.74248 -27.52424,-50.37167 -20.47424,-76.78609 6.60769,-1.76096 13.68635,-2.53906 20.47424,-2.55953 z"
     style="fill:#ffffff;fill-rule:evenodd"
     id="path2396" />
</svg>
