<?xml version="1.0" encoding="UTF-8" standalone="no"?>
<svg
   xmlns:dc="http://purl.org/dc/elements/1.1/"
   xmlns:cc="http://creativecommons.org/ns#"
   xmlns:rdf="http://www.w3.org/1999/02/22-rdf-syntax-ns#"
   xmlns:svg="http://www.w3.org/2000/svg"
   xmlns="http://www.w3.org/2000/svg"
   id="svg2"
   viewBox="0 0 512 512"
   height="100%"
   width="100%"
   version="1.1">
  <metadata
     id="metadata106">
    <rdf:RDF>
      <cc:Work
         rdf:about="">
        <dc:format>image/svg+xml</dc:format>
        <dc:type
           rdf:resource="http://purl.org/dc/dcmitype/StillImage" />
        <dc:title />
      </cc:Work>
    </rdf:RDF>
  </metadata>
  <defs
     id="defs104" />
  <path
     style="fill:#924565;fill-opacity:1;stroke:none"
     d="m 25.99959,-4.3e-4 c -14.39735,0 -26,11.60265 -26,26 l 0,460 c 0,14.39735 11.60265,26 26,26 l 460,0 c 14.39735,0 26,-11.60265 26,-26 l 0,-460 c 0,-14.39735 -11.60265,-26 -26,-26 l -460,0 z"
     id="rect2986" />
  <path
     id="path3014"
     d="m 256.00041,41.00043 c -118.74101,0 -214.99999,96.25904 -214.99999,215 0,59.37049 24.06332,113.11997 62.9707,152.02735 l 103.97265,103.97265 278.05664,0 c 14.39735,0 26,-11.60265 26,-26 l 0,-278.05664 L 408.02776,103.97114 C 369.12041,65.0638 315.37099,41.00043 256.00041,41.00043 Z"
     style="color:#000000;visibility:visible;opacity:0.25;fill:#000000;fill-opacity:1;fill-rule:nonzero;stroke:none;stroke-width:1.5;marker:none" />
  <path
     id="path2997"
     d="m 255.99959,40.99957 c -118.74102,0 -215,96.25903 -215,215 0,118.74097 96.25898,215 215,215 118.74122,0 215,-96.25903 215,-215 0,-118.74097 -96.25878,-215 -215,-215 z m 9.96875,85.78125 c 1.08424,-0.005 2.17789,-0.003 3.25,0.0312 l 0,0.0312 c 64.32295,2.283 102.36659,43.06451 106.5625,102.53125 4.72958,67.03507 -16.26518,84.46712 -7.25,97.9375 18.82611,28.12925 -7.89492,35.50555 -25.59375,49.25 -11.00829,8.54879 -32.24029,4.63497 -42.78125,-7.53125 -32.03029,-17.36947 -19.69279,16.01099 -85.84375,16.15625 -34.38808,-1.31992 -65.90698,-24.59432 -74.8125,-55.96875 -13.65773,-48.11549 6.37771,-83.64718 62.15625,-100.40625 16.1335,-4.84768 48.11119,-1.91008 62.1875,-11.5625 13.29416,-9.11528 8.51209,-22.22983 -7.8125,-23.9375 -23.41235,-2.45037 -59.95929,7.51941 -81.5625,3.5 -17.34152,-3.22652 -22.59737,-34.30083 -11.28125,-47.65625 18.5186,-21.8562 66.00783,-20.89763 92.84375,-22.0625 3.38948,-0.14209 6.68477,-0.29607 9.9375,-0.3125 z m -5.375,143.75 c -14.89857,0 -27.1875,10.42564 -27.1875,23.40625 0,12.9809 12.28893,23.6875 27.1875,23.6875 14.89858,0 26.65625,-10.7066 26.65625,-23.6875 0,-12.98061 -11.75767,-23.40625 -26.65625,-23.40625 z"
     style="color:#000000;display:inline;overflow:visible;visibility:visible;fill:#ffffff;fill-opacity:1;fill-rule:nonzero;stroke:none;stroke-width:1.5;marker:none;enable-background:accumulate" />
</svg>
