<?xml version="1.0" encoding="UTF-8" standalone="no"?>
<svg
   xmlns:dc="http://purl.org/dc/elements/1.1/"
   xmlns:cc="http://creativecommons.org/ns#"
   xmlns:rdf="http://www.w3.org/1999/02/22-rdf-syntax-ns#"
   xmlns:svg="http://www.w3.org/2000/svg"
   xmlns="http://www.w3.org/2000/svg"
   id="svg2"
   viewBox="0 0 512 512"
   height="100%"
   width="100%"
   version="1.1">
  <metadata
     id="metadata106">
    <rdf:RDF>
      <cc:Work
         rdf:about="">
        <dc:format>image/svg+xml</dc:format>
        <dc:type
           rdf:resource="http://purl.org/dc/dcmitype/StillImage" />
        <dc:title />
      </cc:Work>
    </rdf:RDF>
  </metadata>
  <defs
     id="defs104" />
  <rect
     width="512"
     height="512"
     rx="25.988001"
     x="-7.4218747e-07"
     y="-0.00045564942"
     id="rect4"
     style="fill:#cd1c30;fill-opacity:1" />
  <path
     id="path7681"
     d="m 231.53051,70.84422 c -2.37009,0.009 -4.95115,0.45978 -7.71875,1.4375 -5.1903,1.83884 -5.3531,1.98917 -71.25,66.74999 l -32.5625,32.03125 0,14.1875 -10.3125,-10.3125 -54.21875,0 c -8.02399,0 -14.46874,6.4447 -14.46874,14.46875 l 0,133.15625 c 0,4.01203 1.61238,7.628 4.22656,10.24219 l 179.19531,179.19531 261.5918,0 c 14.39735,0 25.98632,-11.59093 25.98632,-25.98828 l 0,-230.35547 -66.84375,-66.84375 c -18.55596,-18.55595 -42.89811,-27.84375 -67.21875,-27.84375 -14.0203,0 -28.03409,3.09232 -40.94726,9.26172 l -95.44141,-95.4414 c -2.6217,-2.62169 -6.01509,-3.96007 -10.01758,-3.94531 z"
     style="color:#000000;opacity:0.25;fill:#000000" />
  <path
     id="path7514"
     d="m 231.53124,70.84329 c -2.37009,0.009 -4.95115,0.45978 -7.71875,1.4375 -5.1903,1.83884 -5.3531,1.98918 -71.25,66.75 l -32.5625,32.03125 0,169.59375 28.375,27.875 c 66.71271,65.57469 69.85581,68.56951 74.125,70.65625 l 0.0312,0 c 7.6069,3.69297 15.25855,2.05962 19.96875,-4.28125 4.8059,-6.48031 4.53085,4.75901 4.78125,-178.03125 0.2057,-149.64985 0.0695,-169.6827 -1.09375,-173.6875 -2.3614,-8.12464 -7.54505,-12.36996 -14.65625,-12.34375 z m 146.40625,90.125 c -24.32064,0 -48.63155,9.2878 -67.1875,27.84375 -37.11191,37.11191 -37.11191,97.26309 0,134.375 37.1119,37.11191 97.29434,37.11191 134.40625,0 37.11191,-37.11191 37.11191,-97.26309 0,-134.375 -18.55596,-18.55595 -42.89811,-27.84375 -67.21875,-27.84375 z M 55.46874,174.93704 c -8.024,0 -14.46875,6.4447 -14.46875,14.46875 l 0,133.15625 c 0,8.02405 6.44465,14.46875 14.46875,14.46875 l 54.21875,0 0,-162.09375 -54.21875,0 z m 323.65625,8.28125 c 14.78502,0.23179 29.50628,4.93175 41.96875,14.125 L 319.31249,299.12454 c -21.01314,-28.48564 -18.60595,-68.80029 7.1875,-94.59375 14.50882,-14.50882 33.61568,-21.61051 52.625,-21.3125 z m 57.46875,29.65625 c 21.01315,28.48564 18.60595,68.80029 -7.1875,94.59375 -25.79346,25.79345 -66.10811,28.20064 -94.59375,7.1875 L 436.59374,212.87454 Z"
     style="color:#000000;fill:#ffffff" />
</svg>
