<?xml version="1.0" encoding="UTF-8" standalone="no"?>
<svg
   xmlns:dc="http://purl.org/dc/elements/1.1/"
   xmlns:cc="http://creativecommons.org/ns#"
   xmlns:rdf="http://www.w3.org/1999/02/22-rdf-syntax-ns#"
   xmlns:svg="http://www.w3.org/2000/svg"
   xmlns="http://www.w3.org/2000/svg"
   id="svg2"
   viewBox="0 0 512 512"
   height="100%"
   width="100%"
   version="1.1">
  <metadata
     id="metadata106">
    <rdf:RDF>
      <cc:Work
         rdf:about="">
        <dc:format>image/svg+xml</dc:format>
        <dc:type
           rdf:resource="http://purl.org/dc/dcmitype/StillImage" />
        <dc:title />
      </cc:Work>
    </rdf:RDF>
  </metadata>
  <defs
     id="defs104" />
  <rect
     width="512"
     height="512"
     rx="25.988001"
     x="-4.1699218e-06"
     y="-4.628906e-06"
     id="rect4"
     style="fill:#ef6a47" />
  <path
     id="path6343"
     d="m 231.5306,70.84358 c -2.37009,0.009 -4.95115,0.45978 -7.71875,1.4375 -5.1903,1.83884 -5.3531,1.98918 -71.25,66.75 l -32.5625,32.03125 0,14.1875 -10.3125,-10.3125 -54.21875,0 c -8.024,0 -14.46875,6.4447 -14.46875,14.46875 l 0,133.15625 c 0,4.01203 1.61238,7.62995 4.22656,10.24414 l 179.19336,179.19336 261.5918,0 c 14.39735,0 25.98828,-11.59093 25.98828,-25.98828 l 0,-227.32422 -24.9375,-24.9375 -86.55273,0 L 241.54818,74.7889 c -2.6217,-2.6217 -6.01509,-3.96007 -10.01758,-3.94532 z"
     style="color:#000000;opacity:0.25;fill:#000000" />
  <path
     id="path6260"
     d="m 231.53123,70.84375 c -2.37009,0.009 -4.95115,0.45978 -7.71875,1.4375 -5.1903,1.83884 -5.3531,1.98917 -71.25,66.75 l -32.5625,32.03125 0,169.59375 28.375,27.875 c 66.71271,65.57469 69.85581,68.56951 74.125,70.65625 l 0.0312,0 c 7.6069,3.69297 15.25855,2.05962 19.96875,-4.28125 4.8059,-6.48031 4.53085,4.75901 4.78125,-178.03125 0.2057,-149.64985 0.0695,-169.68271 -1.09375,-173.6875 -2.3614,-8.12464 -7.54505,-12.36997 -14.65625,-12.34375 z M 55.46873,174.9375 c -8.024,0 -14.46875,6.4447 -14.46875,14.46875 l 0,133.15625 c 0,8.02405 6.44465,14.46875 14.46875,14.46875 l 54.21875,0 0,-162.09375 -54.21875,0 z m 224.9375,58.8125 0,44.5 88.9375,0 0,-44.5 -88.9375,0 z m 117.6875,0 0,44.5 88.96875,0 0,-44.5 -88.96875,0 z"
     style="color:#000000;fill:#ffffff" />
</svg>
