<?xml version="1.0" encoding="UTF-8" standalone="no"?>
<svg
   xmlns:dc="http://purl.org/dc/elements/1.1/"
   xmlns:cc="http://creativecommons.org/ns#"
   xmlns:rdf="http://www.w3.org/1999/02/22-rdf-syntax-ns#"
   xmlns:svg="http://www.w3.org/2000/svg"
   xmlns="http://www.w3.org/2000/svg"
   id="svg2"
   viewBox="0 0 512 512"
   height="100%"
   width="100%"
   version="1.1">
  <metadata
     id="metadata106">
    <rdf:RDF>
      <cc:Work
         rdf:about="">
        <dc:format>image/svg+xml</dc:format>
        <dc:type
           rdf:resource="http://purl.org/dc/dcmitype/StillImage" />
        <dc:title />
      </cc:Work>
    </rdf:RDF>
  </metadata>
  <defs
     id="defs104" />
  <rect
     style="fill:#cd1c30;fill-opacity:1"
     id="rect4"
     y="-0.00048479493"
     x="-0.0003679248"
     rx="25.988001"
     height="512"
     width="512" />
  <path
     id="path7229"
     d="m 231.53161,70.84423 c -2.37009,0.009 -4.95115,0.45978 -7.71875,1.4375 -5.1903,1.83884 -5.3531,1.98917 -71.25,66.75 l -32.5625,32.03125 0,14.1875 -10.3125,-10.3125 -54.21875,0 c -8.024,0 -14.46875,6.4447 -14.46875,14.46875 l 0,133.15625 c 0,4.01203 1.61043,7.628 4.22461,10.24219 l 179.19531,179.19531 261.59179,0 c 14.39736,0 25.98829,-11.59093 25.98829,-25.98828 l 0,-238.19922 -86.84375,-86.84375 -47.17188,47.17188 -47.17187,-47.17188 -1.55274,1.5332 -87.71289,-87.71289 c -2.6217,-2.62169 -6.01313,-3.96007 -10.01562,-3.94531 z"
     style="color:#000000;opacity:0.25;fill:#000000" />
  <path
     id="path6700"
     d="m 231.53088,70.84327 c -2.37009,0.009 -4.95115,0.45978 -7.71875,1.4375 -5.1903,1.83884 -5.3531,1.98917 -71.25,66.75 l -32.5625,32.03125 0,169.59375 28.375,27.875 c 66.71271,65.57469 69.85581,68.56951 74.125,70.65625 l 0.0312,0 c 7.6069,3.69297 15.25855,2.05962 19.96875,-4.28125 4.8059,-6.48031 4.53085,4.75901 4.78125,-178.03125 0.2057,-149.64985 0.0695,-169.68271 -1.09375,-173.6875 -2.3614,-8.12464 -7.54505,-12.36997 -14.65625,-12.34375 z m 99.28125,90.125 -47.75,47.1875 47.40625,47.46875 -47.21875,47.1875 47.5,48.21875 47.40625,-47.625 47.375,47.46875 47.3125,-47.8125 -47.25,-47.28125 47.0625,-47.25 -47.5,-47.5625 -47.1875,47.1875 -47.15625,-47.1875 z M 55.46838,174.93702 c -8.024,0 -14.46875,6.4447 -14.46875,14.46875 l 0,133.15625 c 0,8.02405 6.44465,14.46875 14.46875,14.46875 l 54.21875,0 0,-162.09375 -54.21875,0 z"
     style="color:#000000;fill:#ffffff" />
</svg>
