<?xml version="1.0" encoding="UTF-8" standalone="no"?>
<svg
   xmlns:dc="http://purl.org/dc/elements/1.1/"
   xmlns:cc="http://creativecommons.org/ns#"
   xmlns:rdf="http://www.w3.org/1999/02/22-rdf-syntax-ns#"
   xmlns:svg="http://www.w3.org/2000/svg"
   xmlns="http://www.w3.org/2000/svg"
   id="svg2"
   viewBox="0 0 512 512"
   height="100%"
   width="100%"
   version="1.1">
  <metadata
     id="metadata106">
    <rdf:RDF>
      <cc:Work
         rdf:about="">
        <dc:format>image/svg+xml</dc:format>
        <dc:type
           rdf:resource="http://purl.org/dc/dcmitype/StillImage" />
        <dc:title />
      </cc:Work>
    </rdf:RDF>
  </metadata>
  <defs
     id="defs104" />
  <rect
     style="fill:#ef6a47"
     id="rect4"
     y="-3.4863281e-06"
     x="-1.8847657e-06"
     rx="25.988001"
     height="512"
     width="512" />
  <path
     id="path4757"
     d="m 229.71874,70.9375 c -1.23702,0.11758 -2.5386,0.35892 -3.875,0.71875 1.33639,-0.35983 2.63799,-0.60117 3.875,-0.71875 z m -7.75,2.09375 c -0.94483,0.45987 -2.03905,1.13912 -3.71875,2.5 1.6797,-1.36088 2.77392,-2.04013 3.71875,-2.5 z m -3.71875,2.5 c -1.1198,0.90725 -2.48932,2.11857 -4.28125,3.75 1.79193,-1.63143 3.16145,-2.84275 4.28125,-3.75 z m 23.3125,-0.71875 c 2.02377,2.03416 3.59705,4.83824 4.625,8.375 1.1633,4.00479 1.29945,24.03765 1.09375,173.6875 -0.2504,182.79026 0.0247,171.55094 -4.78125,178.03125 -4.7102,6.34087 -12.36185,7.97422 -19.96875,4.28125 l -0.0312,0 c -4.26919,-2.08674 -7.41229,-5.08156 -74.125,-70.65625 l -28.37505,-27.875 0,-155.40625 -10.3125,-10.3125 0,162.09375 -54.21875,0 c -4.01205,0 -7.63581,-1.60457 -10.25,-4.21875 L 224.40624,512 l 261.59375,0 c 14.39735,0 26,-11.60265 26,-26 l 0,-284.15625 -105.78125,-105.75 c 40.01721,41.43029 64.78125,97.70334 64.78125,159.84375 0,66.30482 -28.1995,125.97358 -73,168.03125 L 368.15624,392.0625 c 36.29509,-34.03016 58.96875,-82.41354 58.96875,-136.09375 0,-11.50396 -1.03951,-22.75905 -3.03125,-33.6875 l -74.875,-74.875 c -0.2865,-0.2865 -0.58245,-0.56338 -0.875,-0.84375 28.31071,27.86182 45.90625,66.57903 45.90625,109.4375 0,44.25199 -18.77171,84.07968 -48.6875,112.09375 L 315.71874,335.875 c 21.2954,-20.01213 34.625,-48.37689 34.625,-79.90625 0,-31.52496 -13.3401,-59.86486 -34.625,-79.90625 L 328.74999,162 241.56249,74.8125 Z m -38.875,15.125 c -9.95519,9.60984 -25.41366,24.80844 -50.125,49.09375 24.71134,-24.28531 40.16981,-39.48391 50.125,-49.09375 z m 165.46875,29.90625 8.03125,8.03125 c -2.5975,-2.74851 -5.27206,-5.44434 -8.03125,-8.03125 z m -22.59375,23.96875 0,0.0625 c 0.60929,0.57059 1.21254,1.16967 1.8125,1.75 l -1.8125,-1.8125 z m 56.53125,18.75 c 0.54298,0.93716 1.09796,1.89636 1.625,2.84375 -0.53077,-0.95431 -1.07805,-1.89982 -1.625,-2.84375 z m -346.625,12.375 c -1.5045,0 -2.95111,0.23518 -4.3125,0.65625 1.36139,-0.42107 2.808,-0.65625 4.3125,-0.65625 z m -4.3125,0.65625 c -0.90759,0.28071 -1.77352,0.64965 -2.59375,1.09375 0.82023,-0.4441 1.68616,-0.81304 2.59375,-1.09375 z m -3.78125,1.8125 c -0.7758,0.52297 -1.49833,1.12124 -2.15625,1.78125 0.65355,-0.65355 1.38683,-1.26258 2.15625,-1.78125 z m 244.34375,21.65625 c 15.5915,14.05315 25.6875,34.26154 25.6875,56.90625 10e-5,22.67457 -10.10245,42.86263 -25.71875,56.90625 l -29.15625,-32.5625 c 6.68101,-6.02448 11,-14.67102 11,-24.375 0,-9.70399 -4.31899,-18.28838 -11,-24.3125 l 29.1875,-32.5625 z"
     style="color:#000000;opacity:0.25;fill:#000000" />
  <path
     id="path5079"
     d="m 231.53119,70.8547 c -2.37009,0.009 -4.9511,0.45978 -7.7187,1.4375 -5.1903,1.83884 -5.3531,1.98917 -71.25,66.75 l -32.5625,32.03125 0,169.59375 28.375,27.875 c 66.71271,65.57469 69.85581,68.56951 74.125,70.65625 l 0.0312,0 c 7.6069,3.69297 15.2586,2.05962 19.9688,-4.28125 4.8059,-6.48031 4.5308,4.75901 4.7812,-178.03125 0.2057,-149.64985 0.0696,-169.6827 -1.0937,-173.6875 -2.3614,-8.12464 -7.5451,-12.36996 -14.6563,-12.34375 z"
     style="color:#000000;fill:#ffffff" />
  <path
     id="path5077"
     d="m 397.99999,88.01095 -29.8438,31.84375 c 36.31589,34.04842 58.9688,82.43747 58.9688,136.125 0,53.68021 -22.67371,102.06359 -58.9688,136.09375 l 29.8438,31.90625 c 44.8005,-42.05767 73,-101.72643 73,-168.03125 0,-66.2831 -28.193,-125.89998 -73,-167.9375 z"
     style="color:#000000;opacity:0.4;fill:#ffffff" />
  <path
     id="path5075"
     d="m 345.56249,143.82345 -29.8437,32.25 c 21.2849,20.04139 34.625,48.38129 34.625,79.90625 0,31.52936 -13.3296,59.89412 -34.625,79.90625 l 29.8437,32.21875 c 29.91579,-28.01407 48.6875,-67.84176 48.6875,-112.09375 0,-44.241 -18.7579,-84.09631 -48.6875,-112.125 l 0,-0.0625 z"
     style="color:#000000;fill:#ffffff" />
  <path
     id="path5073"
     d="m 55.46879,174.94845 c -8.024,0 -14.4688,6.4447 -14.4688,14.46875 l 0,133.15625 c 0,8.02405 6.4447,14.46875 14.4688,14.46875 l 54.2187,0 0,-162.09375 -54.2187,0 z"
     style="color:#000000;fill:#ffffff" />
  <path
     id="path3069"
     d="m 291.71879,199.07345 -29.1876,32.5625 c 6.68101,6.02412 11,14.60851 11,24.3125 0,9.70398 -4.31899,18.35052 -11,24.375 l 29.1563,32.5625 c 15.6163,-14.04362 25.7188,-34.23168 25.7187,-56.90625 0,-22.64471 -10.0959,-42.8531 -25.6874,-56.90625 z"
     style="color:#000000;fill:#ffffff" />
</svg>
