<?xml version="1.0" encoding="UTF-8" standalone="no"?>
<svg
   xmlns:dc="http://purl.org/dc/elements/1.1/"
   xmlns:cc="http://creativecommons.org/ns#"
   xmlns:rdf="http://www.w3.org/1999/02/22-rdf-syntax-ns#"
   xmlns:svg="http://www.w3.org/2000/svg"
   xmlns="http://www.w3.org/2000/svg"
   id="svg2"
   viewBox="0 0 512 512"
   height="100%"
   width="100%"
   version="1.1">
  <metadata
     id="metadata106">
    <rdf:RDF>
      <cc:Work
         rdf:about="">
        <dc:format>image/svg+xml</dc:format>
        <dc:type
           rdf:resource="http://purl.org/dc/dcmitype/StillImage" />
        <dc:title />
      </cc:Work>
    </rdf:RDF>
  </metadata>
  <defs
     id="defs104" />
  <rect
     style="fill:#cd1d31"
     id="rect4"
     y="-0.0094991187"
     x="-0.0050039846"
     rx="25.988001"
     height="512"
     width="512" />
  <path
     style="fill-opacity:0.23500001"
     id="path70"
     d="m 405.90499,38.9285 c -18.739,0.252 -31.47299,14.985 -43.78099,28.19 L 232.81399,196.42849 c 7.872,5.733 11.41901,12.158 19.281,17.875 3.877,6.075 12.20201,11.385 15.96901,17.438 7.883,5.634 11.44899,12.146 19.313,17.844 3.885,6.05 12.12,11.354 16,17.406 9.22199,5.245 13.277,15.358 20.938,27.563 8.402,6.599 15.04,15.704 23.46899,22.281 7.02,8.905 15.87401,15.238 22.938,24.13 8.40201,6.603 15.08001,15.674 23.46901,22.313 7.10299,8.836 15.89199,15.262 22.96899,24.13 8.42201,6.585 15.03001,15.714 23.46901,22.281 7.02,8.907 15.882,15.234 22.938,24.13 8.399,6.608 15.09,15.674 23.469,22.313 7.101,8.836 15.927,15.298 23,24.16 0.668,0.521 1.322,1.042 1.969,1.594 l 0,-382.71999 c -16.313,-16.321 -32.63,-32.641 -48.938,-48.969 -13.463,-10.58 -32.492,-9.973 -48.71901,-10.438 -2.93999,-0.602 -5.76,-0.848 -8.438,-0.813 M 167.88,209.38649 c -76.7,-0.028 -141.3,76.987 -126.97,152.75 7.39,58.15 59.19,91.55 95.75,131.56 6.117,6.095 12.232,12.212 18.344,18.313 l 331,0 c 3.056,0 6,-0.508 8.719,-1.469 5.436,-5.114 10.708,-10.399 15.813,-15.844 0.079,-0.225 0.146,-0.46 0.219,-0.688 -84.47,-84.62 -168.84001,-169.33 -253.87001,-253.34 -23.573,-20.09 -54.36999,-31.35 -85.33999,-31.22 -1.224,-0.039 -2.439,-0.063 -3.656,-0.063" />
  <path
     style="fill:#ffffff"
     id="path118"
     d="m 38.894,340.85049 c 0,73 59.18,132.2 132.2,132.2 72.99999,0 132.24999,-59.23 132.24999,-132.25 0,-73.02 -59.24,-132.2 -132.24999,-132.2 -73.02,0 -132.2,59.24 -132.2,132.25 m 45.89,42.29 c 0,-24.318 19.714,-44.01 44.02,-44.01 24.336,0 44.02,19.698 44.02,44.02 0,24.318 -19.683,44.02 -44.01,44.02 -24.301,0 -44.01,-19.698 -44.01,-44.01 m 147.62,-187.52 c 10.93199,4.604 21.14,10.573 30.679,17.444 L 395.45299,80.7345 c 5.788,-5.77 15.206,-5.788 20.99401,0 5.76999,5.77 5.76999,15.172 0,20.94199 l -130.93001,130.94 c 15.383,16.259 27.29001,35.797 34.68501,57.45 l 23.52899,0 c 7.447,0 13.54001,-6.077 13.54001,-13.54 l 0,-37.22 37.26999,0 c 7.447,0 13.54001,-6.077 13.54001,-13.54 l 0,-37.22 37.22,0 c 7.447,0 13.54,-6.077 13.54,-13.54 l 0,-37.93 9.433,-9.433 c 5.788,-5.788 8.857,-63.73899 -5.629,-78.24999 -14.52,-14.504 -72.52,-11.456 -78.29,-5.679 l -151.92,151.92999" />
</svg>
