<?xml version="1.0" encoding="UTF-8" standalone="no"?>
<svg
   xmlns:dc="http://purl.org/dc/elements/1.1/"
   xmlns:cc="http://creativecommons.org/ns#"
   xmlns:rdf="http://www.w3.org/1999/02/22-rdf-syntax-ns#"
   xmlns:svg="http://www.w3.org/2000/svg"
   xmlns="http://www.w3.org/2000/svg"
   xmlns:sodipodi="http://sodipodi.sourceforge.net/DTD/sodipodi-0.dtd"
   xmlns:inkscape="http://www.inkscape.org/namespaces/inkscape"
   id="svg2"
   viewBox="0 0 512 512"
   height="100%"
   width="100%"
   version="1.1"
   inkscape:version="0.91+devel r13804 custom"
   sodipodi:docname="dialog-warning.svg">
  <sodipodi:namedview
     pagecolor="#ffffff"
     bordercolor="#666666"
     borderopacity="1"
     objecttolerance="10"
     gridtolerance="10"
     guidetolerance="10"
     inkscape:pageopacity="0"
     inkscape:pageshadow="2"
     inkscape:window-width="1366"
     inkscape:window-height="709"
     id="namedview8"
     showgrid="false"
     inkscape:zoom="0.4609375"
     inkscape:cx="-8.6779661"
     inkscape:cy="237.55932"
     inkscape:window-x="0"
     inkscape:window-y="0"
     inkscape:window-maximized="0"
     inkscape:current-layer="svg2" />
  <metadata
     id="metadata106">
    <rdf:RDF>
      <cc:Work
         rdf:about="">
        <dc:format>image/svg+xml</dc:format>
        <dc:type
           rdf:resource="http://purl.org/dc/dcmitype/StillImage" />
        <dc:title />
      </cc:Work>
    </rdf:RDF>
  </metadata>
  <defs
     id="defs104" />
  <rect
     style="fill:#e4a146"
     id="rect4"
     y="-0.0015011914"
     x="-0.005494365"
     rx="25.988001"
     height="512"
     width="512" />
  <path
     inkscape:connector-curvature="0"
     style="fill:#000000;fill-opacity:0.23500001"
     id="path206"
     d="m 253.6845,40.02851 c -36,0.692 -64.14,36.883 -57.938,72.19 7.666,63.796 27.475,125.66 32.656,189.91 0.677,18.388 2.764,34.869 15.03,40.38 4.491,6.358 10.78,10.798 15.719,16.625 -40.44,-3.784 -73.27,43.14 -54.12,79.59 15.06,25.03 40.36,41.676 60.688,62.34 3.876,3.656 7.754,7.304 11.656,10.938 l 208.63,0 c 14.397,0 26,-11.603 26,-26 l 0,-216.94 c -71.955,-72.02 -143.9,-144.07 -216.09,-215.84 -10.655,-9.1 -24.856,-13.217 -38.719,-13.12 -1.178,-0.053 -2.338,-0.085 -3.5,-0.063" />
  <path
     inkscape:connector-curvature="0"
     style="fill:#ffffff"
     id="path250"
     d="m 255.9945,358.93851 c -31.16,0 -56.826,25.05 -56.826,54.994 0,32.38 25.05,58.04 56.21,58.04 31.16,0 56.826,-25.66 56.826,-56.826 0,-31.16 -25.05,-56.21 -56.21,-56.21 m 25.05,-26.881 c 4.277,-58.658 7.943,-83.71 21.383,-143.58 12.22,-51.32 14.663,-64.15 14.663,-81.26 0,-40.934 -23.828,-67.2 -60.49,-67.2 -34.825,0 -61.706,26.881 -61.706,61.1 0,20.17 2.443,34.825 14.663,91.03 10.386,47.05 15.885,83.09 21.383,139.92 l 50.1,0" />
</svg>
