<?xml version="1.0" encoding="UTF-8" standalone="no"?>
<svg
   xmlns:dc="http://purl.org/dc/elements/1.1/"
   xmlns:cc="http://creativecommons.org/ns#"
   xmlns:rdf="http://www.w3.org/1999/02/22-rdf-syntax-ns#"
   xmlns:svg="http://www.w3.org/2000/svg"
   xmlns="http://www.w3.org/2000/svg"
   id="svg2"
   viewBox="0 0 512 512"
   height="100%"
   width="100%"
   version="1.1">
  <metadata
     id="metadata106">
    <rdf:RDF>
      <cc:Work
         rdf:about="">
        <dc:format>image/svg+xml</dc:format>
        <dc:type
           rdf:resource="http://purl.org/dc/dcmitype/StillImage" />
        <dc:title />
      </cc:Work>
    </rdf:RDF>
  </metadata>
  <defs
     id="defs104" />
  <rect
     style="fill:#0078ad"
     id="rect4"
     y="-3.779297e-06"
     x="3.9062513e-08"
     rx="25.988001"
     height="512"
     width="512" />
  <path
     style="fill-opacity:0.23500001"
     id="path6"
     d="m 252.56001,39.56299 c -74.8,-0.311 -144.13,66.985 -138.19,143.22 1.317,37.415 20.993,71.64 48.34,96.28 26.743,22.02 14.278,58.6 34.16,79.84 21.05,24.1 0.164,0.417 21.09,24.13 -0.232,0.021 -0.571,0.085 -1.063,0.281 -12.752,0.802 -43.08,2.361 -27.438,21.313 8.702,8.702 12.09,12.904 15,15.813 2.696,2.696 -3.52,2.89 -16.03,3.438 -4.611,6.293 -4.02,12.259 0.313,16.594 6.722,6.722 13.575,13.484 20.688,20.594 0.754,4.082 2.604,7.621 5.063,10.844 13.4,13.241 26.603,26.591 39.938,40.09 l 231.56,0 c 14.397,0 26,-11.603 26,-26 l 0,-252.97 c -52.08,-51.56 -109.92,-108.06 -158.03,-155.97 -26.39,-24.19 -62.07,-37.595 -97.81,-37.438 -1.19,-0.038 -2.374,-0.057 -3.563,-0.063 l -0.031,0" />
  <path
     style="fill:#ffffff"
     id="path72"
     d="m 255.93001,39.56999 c -78.42,0 -141.91,60.912 -141.91,136.13 0,38.73 16.847,73.68 43.894,98.48 l 0.038,0.115 c 5.919,5.128 11.998,13.811 16.873,24.774 5.079,11.412 7.783,23.01 8.05,32.363 l 0.038,0.078 c 1.284,20.39 18.11,36.41 38.841,36.41 l 68.75,0 c 21.567,0 38.957,-17.35 38.957,-38.919 l 0,-3.082 c 0.959,-8.208 3.504,-17.585 7.63,-26.858 4.88,-10.967 10.919,-19.648 16.834,-24.774 27.13,-24.815 44.04,-59.825 44.04,-98.6 0,-75.22 -63.61,-136.13 -142.03,-136.13 m -5.08637,36.02848 a 10.825547,10.825547 0 0 1 1.88812,21.54003 c -19.874,2.476 -37.17,8.53599 -50.17,19.92199 -12.995,11.386 -22.467,28.329 -25.663,55.6 a 10.836559,10.836559 0 1 1 -21.50147,-2.5432 c 3.667,-31.3 15.632,-54.22 32.914,-69.36 17.28,-15.14999 39.1,-22.26499 61.73,-25.08999 a 10.825547,10.825547 0 0 1 0.80919,-0.077 m 70.51572,295.27933 a 9.704554,9.704554 0 0 0 -0.6936,0.077 l -127.47,15.02 a 9.704554,9.704554 0 1 0 2.27345,19.26657 l 127.47,-15.02 a 9.704554,9.704554 0 0 0 -1.57986,-19.34364 m 0,36.06702 a 9.841408,9.841408 0 0 0 -0.6936,0.077 l -127.52,15.02 a 9.841408,9.841408 0 1 0 2.31197,19.53631 l 127.52,-15.02 a 9.841408,9.841408 0 0 0 -1.61839,-19.61337 m -24.08321,37.33862 a 9.851774,9.851774 0 0 0 -0.42385,0.0385 9.841408,9.841408 0 0 0 -0.6936,0.0771 l -78.3,8.439 a 9.844613,9.844613 0 0 0 2.11932,19.57482 l 78.3,-8.439 a 9.857954,9.857954 0 1 0 -1.00187,-19.69043" />
</svg>
