<?xml version="1.0" encoding="UTF-8" standalone="no"?>
<svg
   xmlns:dc="http://purl.org/dc/elements/1.1/"
   xmlns:cc="http://creativecommons.org/ns#"
   xmlns:rdf="http://www.w3.org/1999/02/22-rdf-syntax-ns#"
   xmlns:svg="http://www.w3.org/2000/svg"
   xmlns="http://www.w3.org/2000/svg"
   id="svg2"
   viewBox="0 0 512 512"
   height="100%"
   width="100%"
   version="1.1">
  <metadata
     id="metadata106">
    <rdf:RDF>
      <cc:Work
         rdf:about="">
        <dc:format>image/svg+xml</dc:format>
        <dc:type
           rdf:resource="http://purl.org/dc/dcmitype/StillImage" />
        <dc:title />
      </cc:Work>
    </rdf:RDF>
  </metadata>
  <defs
     id="defs104" />
  <path
     id="rect2986"
     d="M 26,0 C 11.60265,0 0,11.60265 0,26 l 0,460 c 0,14.39735 11.60265,26 26,26 l 460,0 c 14.39735,0 26,-11.60265 26,-26 L 512,26 C 512,11.60265 500.39735,0 486,0 L 26,0 Z"
     style="fill:#9b729b;fill-opacity:1;stroke:none" />
  <path
     id="path11661"
     d="m 88.218005,40.99947 c -14.42116,0 -26.591045,8.77451 -34.249995,20.21876 -7.65895,11.44424 -11.78125,26.02684 -11.78125,41.93749 l 0,305.6875 c 0,15.91066 4.1223,30.49326 11.78125,41.9375 1.89339,2.82916 4.06401,5.49564 6.47461,7.90625 l 53.3125,53.3125 372.24414,0 c 14.39735,0 26,-11.60265 26,-26 l 0,-372.24414 -60.44141,-60.4414 C 444.21728,45.97337 434.63658,40.99947 423.78051,40.99947 l -335.562505,0 z"
     style="opacity:0.25;fill:#000000" />
  <path
     id="path258"
     d="M 88.218745,41 C 73.797585,41 61.6277,49.77451 53.96875,61.21875 46.3098,72.66299 42.1875,87.2456 42.1875,103.15625 l 0,305.6875 c 0,15.91066 4.1223,30.49326 11.78125,41.9375 C 61.6277,462.22549 73.797585,471 88.218745,471 l 335.562505,0 c 14.42116,0 26.59105,-8.77451 34.25,-20.21875 7.65895,-11.44424 11.78125,-26.02684 11.78125,-41.9375 l 0,-305.6875 c 0,-15.91065 -4.1223,-30.49326 -11.78125,-41.9375 C 450.3723,49.77451 438.20241,41 423.78125,41 L 88.218745,41 Z m 0,26.875 335.562505,0 c 3.64485,0 7.77664,2.11066 11.90625,8.28125 4.12961,6.1706 7.25,15.91587 7.25,27 l 0,305.6875 c 0,11.08413 -3.12039,20.82941 -7.25,27 -4.12961,6.17059 -8.2614,8.28125 -11.90625,8.28125 l -335.562505,0 c -3.64485,0 -7.77664,-2.11066 -11.90625,-8.28125 -4.12961,-6.17059 -7.25,-15.91587 -7.25,-27 l 0,-305.6875 c 0,-11.08413 3.12039,-20.8294 7.25,-27 4.12961,-6.17059 8.2614,-8.28125 11.90625,-8.28125 z M 234.9375,103.53125 c -6,0 -10.84375,4.9605 -10.84375,11.0625 l 0,21.5 c -10.73001,2.859 -20.994,7.169 -30.375,12.625 L 178.4375,133.4375 c -2.158,-2.158 -4.73825,-3.2885 -7.53125,-3.3125 -2.793,-0.024 -5.66025,0.97175 -7.78125,3.09375 L 133.21875,163.125 c -4.243,4.243 -4.09625,10.9965 0.21875,15.3125 l 15.28125,15.28125 c -5.456,9.381 -9.766,19.645 -12.625,30.375 l -21.5,0 c -6.104,0 -11.0625,4.84275 -11.0625,10.84375 l 0,42.125 c 0,6 4.9605,10.84375 11.0625,10.84375 l 21.5,0 c 2.859,10.73 7.169,20.994 12.625,30.375 L 133.4375,333.5625 c -4.31601,4.316 -4.46275,11.0695 -0.21875,15.3125 l 29.90625,29.90625 c 4.243,4.243 10.9965,4.09725 15.3125,-0.21875 l 15.28125,-15.28125 c 9.381,5.456 19.64499,9.766 30.375,12.625 l 0,21.5 c 0,6.104 4.84274,11.0625 10.84375,11.0625 l 42.125,0 c 6,0 10.84375,-4.9605 10.84375,-11.0625 l 0,-21.5 c 10.73,-2.859 20.994,-7.169 30.375,-12.625 l 15.28125,15.28125 c 4.316,4.316 11.0695,4.46175 15.3125,0.21875 L 378.78125,348.875 c 4.243,-4.243 4.09625,-10.9965 -0.21875,-15.3125 l -15.28125,-15.28125 c 5.456,-9.381 9.766,-19.645 12.625,-30.375 l 21.5,0 c 6.104,0 11.0625,-4.84275 11.0625,-10.84375 l 0,-42.125 c 0,-6 -4.9605,-10.84375 -11.0625,-10.84375 l -21.5,0 c -2.859,-10.73 -7.169,-20.994 -12.625,-30.375 L 378.5625,178.4375 c 4.316,-4.316 4.46275,-11.0695 0.21875,-15.3125 L 348.875,133.21875 c -4.243,-4.243 -10.9965,-4.09725 -15.3125,0.21875 l -15.28125,15.28125 c -9.381,-5.456 -19.645,-9.766 -30.375,-12.625 l 0,-21.5 c 0,-6.104 -4.84275,-11.0625 -10.84375,-11.0625 l -42.125,0 z M 256,209.90625 c 25.447,0 46.09375,20.64675 46.09375,46.09375 0,25.447 -20.64675,46.09375 -46.09375,46.09375 -25.44701,0 -46.09375,-20.64675 -46.09375,-46.09375 0,-25.447 20.64674,-46.09375 46.09375,-46.09375 z"
     style="fill:#ffffff" />
</svg>
