<?xml version="1.0" encoding="UTF-8" standalone="no"?>
<svg
   xmlns:dc="http://purl.org/dc/elements/1.1/"
   xmlns:cc="http://creativecommons.org/ns#"
   xmlns:rdf="http://www.w3.org/1999/02/22-rdf-syntax-ns#"
   xmlns:svg="http://www.w3.org/2000/svg"
   xmlns="http://www.w3.org/2000/svg"
   id="svg2"
   viewBox="0 0 512 512"
   height="100%"
   width="100%"
   version="1.1">
  <metadata
     id="metadata106">
    <rdf:RDF>
      <cc:Work
         rdf:about="">
        <dc:format>image/svg+xml</dc:format>
        <dc:type
           rdf:resource="http://purl.org/dc/dcmitype/StillImage" />
        <dc:title />
      </cc:Work>
    </rdf:RDF>
  </metadata>
  <defs
     id="defs104" />
  <path
     style="fill:#f38725;fill-opacity:1;stroke:none"
     d="m 25.99953,0 c -14.39735,0 -26,11.60265 -26,26 l 0,460 c 0,14.39735 11.60265,26 26,26 l 460,0 c 14.39735,0 26,-11.60265 26,-26 l 0,-460 c 0,-14.39735 -11.60265,-26 -26,-26 l -460,0 z"
     id="rect2986" />
  <path
     id="path14417"
     d="m 291.34423,117.2181 0,129.5 -110.40625,-110.40625 -68.5,0 -79.03125,253.78125 121.90625,121.90625 330.6875,0 c 14.39735,0 26,-11.60265 26,-26 l 0,-213.48242 -59.93164,-59.93164 c -6.67836,-6.67836 -14.52262,-11.8211 -23.39649,-15.25782 l -80.10937,-80.10937 -57.21875,0 z"
     style="font-style:normal;font-variant:normal;font-weight:bold;font-stretch:normal;font-size:medium;line-height:125%;font-family:'Source Code Pro';-inkscape-font-specification:'Source Code Pro Bold';letter-spacing:0px;word-spacing:0px;opacity:0.25;fill:#000000;fill-opacity:1;stroke:none" />
  <path
     id="path14169"
     d="m 291.34328,117.21875 0,272.875 44.78125,0 4.65625,-21 1.5625,0 c 15.96038,16.73893 34.65573,25.6875 52.5625,25.6875 43.2098,0 83.6875,-38.15229 83.6875,-104.71875 0,-59.17018 -29.57334,-97.71875 -77.84375,-97.71875 -18.68532,0 -38.56817,8.17351 -53.75,22.1875 l 1.5625,-30.34375 0,-66.96875 -57.21875,0 z m -178.90625,19.09375 -79.03125,253.78125 58.40626,0 15.56249,-60.3125 76.6875,0 15.1875,60.3125 60.71875,0 -79.03125,-253.78125 -68.5,0 z m 32.3125,43.59375 1.5625,0 c 6.61772,26.47087 13.60103,56.44696 20.21875,81.75 L 172.37453,285 l -53.3125,0 5.8125,-23.34375 c 6.61772,-25.30304 13.64656,-54.88985 19.875,-81.75 z m 239.625,59.15625 c 24.13521,0 35.4375,17.51055 35.4375,52.15625 0,39.7063 -16.72902,56.84375 -37.75,56.84375 -10.12122,0 -22.60023,-3.50109 -33.5,-12.84375 l 0,-78.25 c 12.0676,-12.45688 23.35562,-17.90625 35.8125,-17.90625 z"
     style="font-style:normal;font-variant:normal;font-weight:bold;font-stretch:normal;font-size:389.27789307px;line-height:125%;font-family:'Source Code Pro';-inkscape-font-specification:'Source Code Pro Bold';letter-spacing:0px;word-spacing:0px;fill:#ffffff;fill-opacity:1;stroke:none" />
</svg>
