<?xml version="1.0" encoding="UTF-8" standalone="no"?>
<svg
   xmlns:dc="http://purl.org/dc/elements/1.1/"
   xmlns:cc="http://creativecommons.org/ns#"
   xmlns:rdf="http://www.w3.org/1999/02/22-rdf-syntax-ns#"
   xmlns:svg="http://www.w3.org/2000/svg"
   xmlns="http://www.w3.org/2000/svg"
   id="svg2"
   viewBox="0 0 512 512"
   height="100%"
   width="100%"
   version="1.1">
  <metadata
     id="metadata106">
    <rdf:RDF>
      <cc:Work
         rdf:about="">
        <dc:format>image/svg+xml</dc:format>
        <dc:type
           rdf:resource="http://purl.org/dc/dcmitype/StillImage" />
        <dc:title />
      </cc:Work>
    </rdf:RDF>
  </metadata>
  <defs
     id="defs104" />
  <path
     id="rect2986"
     d="m 25.99982,-8e-5 c -14.39735,0 -26,11.60265 -26,26 l 0,460 c 0,14.39735 11.60265,26 26,26 l 460,0 c 14.39735,0 26,-11.60265 26,-26 l 0,-460 c 0,-14.39735 -11.60265,-26 -26,-26 l -460,0 z"
     style="fill:#0078ad;fill-opacity:1;stroke:none" />
  <path
     id="path18583"
     d="m 252.71892,41.00008 c -33.72323,0 -55,24.23749 -55,52.625 0,14.62373 5.41976,28.04281 15.125,37.74805 l 44.8457,44.8457 -81.81445,11.6875 -0.75,0.125 0,0.75 0,21.40625 0,0.75 35.09375,35.09375 0,172.34375 c 0,6.2179 -0.30928,10.99337 -1.25,14.625 -0.94072,3.63163 -2.45604,6.08874 -5,7.9375 -5.08791,3.69753 -14.62874,4.8275 -31.5625,5.71875 l -0.84375,0.0625 0,0.8125 0,22.59375 0,0.875 41,41 273.4375,0 c 14.39735,0 26,-11.60265 26,-26 l 0,-210.71484 L 293.38494,56.67 c -9.6097,-9.6097 -23.50869,-15.66992 -40.66602,-15.66992 z"
     style="color:#000000;font-style:normal;font-variant:normal;font-weight:bold;font-stretch:normal;font-size:medium;line-height:125%;font-family:Serif;-inkscape-font-specification:Sans;text-indent:0;text-align:start;text-decoration:none;text-decoration-line:none;letter-spacing:0;word-spacing:0;text-transform:none;direction:ltr;block-progression:tb;writing-mode:lr-tb;baseline-shift:baseline;text-anchor:start;visibility:visible;opacity:0.25;fill:#000000;fill-opacity:1;fill-rule:nonzero;stroke:none;stroke-width:1.73899722;marker:none" />
  <path
     id="path18263"
     d="m 252.71857,40.99992 c -33.72323,0 -55,24.23749 -55,52.625 0,28.97332 21.27679,53.21875 55,53.21875 33.13594,0 55.59375,-24.22129 55.59375,-53.21875 0,-28.38749 -21.28297,-52.625 -55.59375,-52.625 z m 44.3125,129.625 -0.40625,0.0312 -120.75,17.25 -0.75,0.125 0,0.75 0,21.40625 0,0.75 0.75,0.125 20.8125,3 0.0312,0 c 4.61756,0.5772 7.7793,2.00431 10.03125,6.21875 2.25195,4.21444 3.46875,11.38066 3.46875,23.21875 l 0,174.875 c 0,6.2179 -0.30928,10.99337 -1.25,14.625 -0.94072,3.63163 -2.45604,6.08874 -5,7.9375 -5.08791,3.69753 -14.62874,4.8275 -31.5625,5.71875 l -0.84375,0.0625 0,0.8125 0,22.59375 0,0.875 0.875,0 167.125,0 0.875,0 0,-0.875 0,-22.59375 0,-0.8125 -0.84375,-0.0625 c -16.93376,-0.89125 -26.47459,-2.02122 -31.5625,-5.71875 -2.54396,-1.84876 -4.05928,-4.30587 -5,-7.9375 -0.94072,-3.63163 -1.25,-8.4071 -1.25,-14.625 l 0,-243.28125 0,-0.40625 -0.3125,-0.25 -4.15625,-3.5625 -0.28125,-0.25 z"
     style="color:#000000;font-style:normal;font-variant:normal;font-weight:bold;font-stretch:normal;font-size:594.8069458px;line-height:125%;font-family:Serif;-inkscape-font-specification:Sans;text-indent:0;text-align:start;text-decoration:none;text-decoration-line:none;letter-spacing:0;word-spacing:0;text-transform:none;direction:ltr;block-progression:tb;writing-mode:lr-tb;baseline-shift:baseline;text-anchor:start;display:inline;overflow:visible;visibility:visible;fill:#ffffff;fill-opacity:1;fill-rule:nonzero;stroke:none;stroke-width:1.73899722;marker:none;enable-background:accumulate" />
</svg>
