<?xml version="1.0" encoding="UTF-8" standalone="no"?>
<svg
   xmlns:dc="http://purl.org/dc/elements/1.1/"
   xmlns:cc="http://creativecommons.org/ns#"
   xmlns:rdf="http://www.w3.org/1999/02/22-rdf-syntax-ns#"
   xmlns:svg="http://www.w3.org/2000/svg"
   xmlns="http://www.w3.org/2000/svg"
   id="svg2"
   viewBox="0 0 512 512"
   height="100%"
   width="100%"
   version="1.1">
  <metadata
     id="metadata106">
    <rdf:RDF>
      <cc:Work
         rdf:about="">
        <dc:format>image/svg+xml</dc:format>
        <dc:type
           rdf:resource="http://purl.org/dc/dcmitype/StillImage" />
        <dc:title />
      </cc:Work>
    </rdf:RDF>
  </metadata>
  <defs
     id="defs104">
    <filter
       id="filter3174"
       color-interpolation-filters="sRGB">
      <feGaussianBlur
         id="feGaussianBlur3176"
         stdDeviation="1.71" />
    </filter>
    <linearGradient
       id="ButtonShadow"
       y2="7.0165"
       gradientUnits="userSpaceOnUse"
       x2="45.448"
       gradientTransform="scale(1.0059,0.99417)"
       y1="92.54"
       x1="45.448">
      <stop
         id="stop3750-1"
         offset="0" />
      <stop
         id="stop3752-6"
         style="stop-opacity:.58824"
         offset="1" />
    </linearGradient>
  </defs>
  <g
     id="layer2"
     style="display:none"
     transform="matrix(6.7274189,0,0,6.7274189,-1328.8681,-712.41656)">
    <rect
       id="rect3745"
       style="opacity:0.9;fill:url(#ButtonShadow);filter:url(#filter3174)"
       rx="6"
       ry="6"
       height="85"
       width="86"
       y="7"
       x="5" />
  </g>
  <path
     id="rect2986"
     d="M 26,0 C 11.60265,0 0,11.60265 0,26 l 0,460 c 0,14.39735 11.60265,26 26,26 l 460,0 c 14.39735,0 26,-11.60265 26,-26 L 512,26 C 512,11.60265 500.39735,0 486,0 L 26,0 Z"
     style="fill:#f26831;fill-opacity:1;stroke:none" />
  <path
     id="path28839"
     d="m 167.8823,80.58115 -9.72461,80.01953 -46.86328,-13.97851 10.04297,45.00976 -80.33789,-8.5039 57.93554,57.93554 -40.60937,28.77735 40.14453,40.14453 -21.55469,38.70117 163.3125,163.3125 245.77149,0 c 14.39735,0 26,-11.60265 26,-26 l 0,-120.65039 -157.56836,-157.56836 -13.35938,-0.28516 -94.66211,-94.6621 -23.50195,22.77343 -55.02539,-55.02539 z"
     style="color:#000000;visibility:visible;opacity:0.25;fill:#000000;fill-opacity:1;fill-rule:evenodd;stroke:none;stroke-width:1px;marker:none" />
  <path
     id="rect28387"
     d="m 167.8829,80.58026 -9.7253,80.01999 -46.863,-13.97749 10.042,45.00842 c 16.8809,-23.77627 44.741,-39.26363 76.0846,-39.26363 20.0389,0 38.6282,6.26083 53.8292,17.05344 l -4.8402,-56.58847 -40.8015,39.53503 -37.7258,-71.78729 z m 83.3675,88.84073 c 23.7763,16.8808 39.2636,44.74093 39.2636,76.08459 0,1.88167 -0.1629,3.61889 -0.2714,5.47338 6.2655,-4.77268 12.9614,-8.89267 20.3555,-11.85146 l 43.8323,-31.34758 -72.1038,-1.53797 12.4847,-43.19903 -43.5609,6.37807 z M 121.3366,191.63118 41,183.12707 l 63.2833,54.14581 -45.9584,32.5689 54.1909,14.92742 -35.5995,63.91647 66.6306,-27.09552 c -23.7267,-16.86034 -39.2636,-44.7604 -39.2636,-76.08457 -2e-4,-20.03883 6.2607,-38.67341 17.0533,-53.8744 z m 22.2103,129.95897 0.588,54.77909 c 0,-17.37256 6.631,-33.10904 17.37,-45.05365 -6.3277,-2.63959 -12.4382,-5.80317 -17.958,-9.72544 z m 0.588,54.77909 0,4.25205 0.3167,-0.31664 c -0.078,-1.34637 -0.3167,-2.57083 -0.3167,-3.93541 z m 53.2863,-208.48622 c -42.8199,0 -77.6225,34.80268 -77.6225,77.62256 0,35.01681 23.1999,64.90775 55.0957,74.5466 8.0659,-5.40974 17.2066,-9.40228 27.0956,-11.26341 5.8143,-22.16171 25.0258,-39.26363 48.989,-39.26363 6.5741,0 12.6319,1.39068 18.2294,3.664 0.4091,-0.61747 0.7983,-1.20241 1.2214,-1.80938 2.8819,-8.11271 4.5687,-16.7794 4.5687,-25.87418 1e-4,-42.81987 -34.7574,-77.57733 -77.5773,-77.57733 l 0,-0.0452 z m 145.1579,80.38186 c -30.816,0 -57.3214,18.70838 -68.1686,45.6417 -6.4018,-5.46339 -14.3552,-9.13738 -23.4315,-9.13738 -20.2472,0 -36.5496,16.57373 -36.5496,36.82095 -30.3698,0 -55.0506,24.40827 -55.0506,54.77909 0,30.36985 24.6799,55.05049 55.0506,55.05049 l 201.4749,0 c 30.3698,0 55.0957,-24.67967 55.0957,-55.05049 0,-30.37082 -24.7249,-54.77909 -55.0957,-54.77909 0,-40.49347 -32.8308,-73.32527 -73.3252,-73.32527 z"
     style="color:#000000;display:inline;overflow:visible;visibility:visible;fill:#ffffff;fill-opacity:1;fill-rule:evenodd;stroke:none;stroke-width:1px;marker:none;enable-background:accumulate" />
</svg>
