<?xml version="1.0" encoding="UTF-8" standalone="no"?>
<svg
   xmlns:dc="http://purl.org/dc/elements/1.1/"
   xmlns:cc="http://creativecommons.org/ns#"
   xmlns:rdf="http://www.w3.org/1999/02/22-rdf-syntax-ns#"
   xmlns:svg="http://www.w3.org/2000/svg"
   xmlns="http://www.w3.org/2000/svg"
   id="svg2"
   viewBox="0 0 512 512"
   height="100%"
   width="100%"
   version="1.1">
  <metadata
     id="metadata106">
    <rdf:RDF>
      <cc:Work
         rdf:about="">
        <dc:format>image/svg+xml</dc:format>
        <dc:type
           rdf:resource="http://purl.org/dc/dcmitype/StillImage" />
        <dc:title />
      </cc:Work>
    </rdf:RDF>
  </metadata>
  <defs
     id="defs104" />
  <path
     style="fill:#62c0dc;fill-opacity:1;stroke:none"
     d="m 25.99983,-4.3e-4 c -14.39735,0 -26,11.60265 -26,26 l 0,460 c 0,14.39735 11.60265,26 26,26 l 460,0 c 14.39735,0 26,-11.60265 26,-26 l 0,-460 c 0,-14.39735 -11.60265,-26 -26,-26 l -460,0 z"
     id="rect2986" />
  <path
     id="path27585"
     d="m 232.94352,91.54926 19.02539,49.26172 22.49414,57.74804 -56.76562,-56.76562 -32.26953,106.11719 -59.56446,-59.56446 -13.2207,0 -71.64258,0 0,30.79688 89.81641,89.81641 20.80859,59.14648 18.38086,52.34375 91.55078,91.55078 224.44336,0 c 14.39735,0 26,-11.60265 26,-26 l 0,-218.20898 -173.35547,-173.35547 -17.45898,42.91601 -12.28516,30.1543 -75.95703,-75.95703 z"
     style="opacity:0.25;fill:#000000" />
  <path
     style="fill:#ffffff"
     id="path10-4"
     d="m 232.9434,91.5487 19.02541,49.26194 33.1399,85.07924 36.07792,-88.53751 17.4578,-42.91617 16.56994,43.12624 57.12379,149.33955 58.66167,0 0,30.79738 -71.64255,0 -13.02051,0 -4.03101,-10.59775 -44.55117,-116.81799 -36.07792,88.51769 -17.45779,42.53864 -16.56996,-42.71799 -30.47534,-78.70772 -51.0416,167.63168 -16.12601,52.90451 -18.38033,-52.34464 -52.40905,-148.963 -58.21676,0 0,-30.79738 71.64255,0 13.22167,0 4.03101,10.97924 37.6495,107.39447 50.15375,-164.92651 z" />
</svg>
