<?xml version="1.0" encoding="UTF-8" standalone="no"?>
<svg
   xmlns:dc="http://purl.org/dc/elements/1.1/"
   xmlns:cc="http://creativecommons.org/ns#"
   xmlns:rdf="http://www.w3.org/1999/02/22-rdf-syntax-ns#"
   xmlns:svg="http://www.w3.org/2000/svg"
   xmlns="http://www.w3.org/2000/svg"
   id="svg2"
   viewBox="0 0 512 512"
   height="100%"
   width="100%"
   version="1.1">
  <metadata
     id="metadata106">
    <rdf:RDF>
      <cc:Work
         rdf:about="">
        <dc:format>image/svg+xml</dc:format>
        <dc:type
           rdf:resource="http://purl.org/dc/dcmitype/StillImage" />
        <dc:title />
      </cc:Work>
    </rdf:RDF>
  </metadata>
  <defs
     id="defs104" />
  <path
     style="fill:#cd1d31;fill-opacity:1;stroke:none"
     d="M 26,0 C 11.60265,0 0,11.60265 0,26 l 0,460 c 0,14.39735 11.60265,26 26,26 l 460,0 c 14.39735,0 26,-11.60265 26,-26 L 512,26 C 512,11.60265 500.39735,0 486,0 L 26,0 Z"
     id="rect2986" />
  <path
     id="path42283"
     d="M 81.65625 41 C 59.13468 41 41 59.13469 41 81.65625 L 41 430.34375 C 41 452.86532 59.13468 471 81.65625 471 L 122.65625 512 L 486 512 C 500.39735 512 512 500.39735 512 486 L 512 105.76562 L 459.11719 52.882812 C 451.76833 45.533946 441.60453 41 430.34375 41 L 81.65625 41 z "
     style="color:#000000;visibility:visible;fill:#000000;fill-opacity:1;fill-rule:evenodd;stroke:none;stroke-width:1px;marker:none;opacity:0.25" />
  <path
     id="rect17068"
     d="M 81.65625,41 C 59.13468,41 41,59.13469 41,81.65625 l 0,348.6875 C 41,452.86532 59.13468,471 81.65625,471 l 348.6875,0 C 452.86532,471 471,452.86532 471,430.34375 l 0,-348.6875 C 471,59.13469 452.86532,41 430.34375,41 l -348.6875,0 z m 23,63.5625 c 167.01991,0 302.78125,135.5943 302.78125,302.78125 l -61,0 c 0,-133.55623 -108.3563,-242 -241.78125,-242 l 0,-60.78125 z m -0.0937,120.34375 c 100.66541,0 182.53125,81.71068 182.53125,182.53125 l -55.1875,0 c 0,-70.38345 -57.07128,-127.5625 -127.34375,-127.5625 l 0,-54.96875 z m 35.0937,116.21875 c 9.0593,0 16.75764,3.22846 23.0625,9.65625 6.42182,6.31203 9.625,14.11066 9.625,23.40625 0,9.06765 -3.20437,16.82101 -9.625,23.25 -6.30725,6.31322 -14.00321,9.46875 -23.0625,9.46875 -9.28842,0 -17.14068,-3.15553 -23.5625,-9.46875 -6.42182,-6.31442 -9.625,-14.06778 -9.625,-23.25 0,-9.29559 3.20557,-17.09422 9.625,-23.40625 6.42182,-6.42898 14.27407,-9.65625 23.5625,-9.65625 z"
     style="color:#000000;display:inline;overflow:visible;visibility:visible;fill:#ffffff;fill-opacity:1;fill-rule:evenodd;stroke:none;stroke-width:1px;marker:none;enable-background:accumulate" />
</svg>
