<?xml version="1.0" encoding="UTF-8" standalone="no"?>
<svg
   xmlns:dc="http://purl.org/dc/elements/1.1/"
   xmlns:cc="http://creativecommons.org/ns#"
   xmlns:rdf="http://www.w3.org/1999/02/22-rdf-syntax-ns#"
   xmlns:svg="http://www.w3.org/2000/svg"
   xmlns="http://www.w3.org/2000/svg"
   id="svg2"
   viewBox="0 0 512 512"
   height="100%"
   width="100%"
   version="1.1">
  <metadata
     id="metadata106">
    <rdf:RDF>
      <cc:Work
         rdf:about="">
        <dc:format>image/svg+xml</dc:format>
        <dc:type
           rdf:resource="http://purl.org/dc/dcmitype/StillImage" />
        <dc:title />
      </cc:Work>
    </rdf:RDF>
  </metadata>
  <defs
     id="defs104" />
  <path
     id="rect2986"
     d="m 25.99971,-4e-5 c -14.39735,0 -26,11.60265 -26,26 l 0,459.99998 c 0,14.3974 11.60265,26 26,26 l 460,0 c 14.39735,0 26,-11.6026 26,-26 l 0,-459.99998 c 0,-14.39735 -11.60265,-26 -26,-26 l -460,0 z"
     style="fill:#ef6a47;fill-opacity:1;stroke:none" />
  <path
     id="path20876"
     d="m 239.18197,41.00002 -164.30273,92.89648 85.90234,85.90235 -0.004,11.91992 -23.8789,-23.87891 -79.32618,-44.89257 -0.0898,185.88281 24.75,24.75 -7.7539,4.39062 134.02929,134.02932 277.49219,0 c 14.39735,0 26,-11.6027 26,-26 l 0,-277.49025 -74.48047,-74.48047 -164.21289,-93.0293 -0.0898,0 0,34.03516 -34.03516,-34.03516 z"
     style="opacity:0.25;fill:#000000;fill-opacity:1;fill-rule:nonzero;stroke:none" />
  <path
     id="path3072"
     d="m 239.18234,40.99996 -164.30319,92.89602 79.37092,44.89084 84.93227,-47.8717 0,-89.91516 z m 34.0351,0 0,89.87067 84.8434,48.04966 79.4599,-44.89084 -164.2143,-93.02949 -0.089,0 z m -17.1288,107.13295 -95.29846,53.9224 -0.0444,107.80031 95.20948,53.9669 95.29851,-53.87791 0,-107.8448 -95.1651,-53.9669 z m -198.51627,14.81532 -0.089,185.88101 79.41543,-44.84635 0,-96.14382 -79.32645,-44.89084 z m 396.94368,0.1334 -79.41551,44.89084 0,96.09933 79.3265,44.89091 0.088,-185.88101 z m -300.62189,169.90902 -79.41543,44.97982 164.25871,93.02947 0,-89.87065 -84.84329,-48.13864 z m 204.03309,0.089 0,0.0444 -84.84321,47.87177 0,89.95962 164.2141,-92.89599 -79.3709,-44.97982 z"
     style="fill:#ffffff;fill-opacity:1;fill-rule:nonzero;stroke:none" />
</svg>
