<?xml version="1.0" encoding="UTF-8" standalone="no"?>
<svg
   xmlns:dc="http://purl.org/dc/elements/1.1/"
   xmlns:cc="http://creativecommons.org/ns#"
   xmlns:rdf="http://www.w3.org/1999/02/22-rdf-syntax-ns#"
   xmlns:svg="http://www.w3.org/2000/svg"
   xmlns="http://www.w3.org/2000/svg"
   id="svg2"
   viewBox="0 0 512 512"
   height="100%"
   width="100%"
   version="1.1">
  <metadata
     id="metadata106">
    <rdf:RDF>
      <cc:Work
         rdf:about="">
        <dc:format>image/svg+xml</dc:format>
        <dc:type
           rdf:resource="http://purl.org/dc/dcmitype/StillImage" />
        <dc:title />
      </cc:Work>
    </rdf:RDF>
  </metadata>
  <defs
     id="defs104" />
  <path
     style="fill:#f38725;fill-opacity:1;stroke:none"
     d="m 25.99961,0 c -14.39735,0 -26,11.60265 -26,26 l 0,460 c 0,14.39735 11.60265,26 26,26 l 460,0 c 14.39735,0 26,-11.60265 26,-26 l 0,-460 c 0,-14.39735 -11.60265,-26 -26,-26 l -460,0 z"
     id="rect2986" />
  <path
     id="path43672"
     d="m 81.65663,40.99967 c -22.52157,0 -40.65625,18.13468 -40.65625,40.65625 l 0,348.6875 c 0,22.52157 18.13468,40.65625 40.65625,40.65625 l 41,41 363.34375,0 c 14.39735,0 26,-11.60265 26,-26 l 0,-380.23438 -52.88281,-52.88281 C 451.76871,45.53361 441.60491,40.99967 430.34413,40.99967 l -348.6875,0 z"
     style="color:#000000;visibility:visible;opacity:0.25;fill:#000000;fill-opacity:1;fill-rule:evenodd;stroke:none;stroke-width:1px;marker:none" />
  <path
     id="rect17068"
     d="M 81.65586,41 C 59.13429,41 40.99961,59.13468 40.99961,81.65625 l 0,348.6875 C 40.99961,452.86532 59.13429,471 81.65586,471 l 348.6875,0 c 22.52157,0 40.65625,-18.13468 40.65625,-40.65625 l 0,-348.6875 C 470.99961,59.13468 452.86493,41 430.34336,41 l -348.6875,0 z m 23,63.5625 c 167.01991,0 302.78125,135.5943 302.78125,302.78125 l -61,0 c 0,-133.55623 -108.3563,-242 -241.78125,-242 l 0,-60.78125 z m -0.0937,120.34375 c 100.66541,0 182.53125,81.71068 182.53125,182.53125 l -55.1875,0 c 0,-70.38345 -57.07128,-127.5625 -127.34375,-127.5625 l 0,-54.96875 z m 35.0937,116.21875 c 9.0593,0 16.75764,3.22846 23.0625,9.65625 6.42182,6.31203 9.625,14.11066 9.625,23.40625 0,9.06765 -3.20437,16.82101 -9.625,23.25 -6.30725,6.31322 -14.00321,9.46875 -23.0625,9.46875 -9.28842,0 -17.14068,-3.15553 -23.5625,-9.46875 -6.42182,-6.31442 -9.625,-14.06778 -9.625,-23.25 0,-9.29559 3.20557,-17.09422 9.625,-23.40625 6.42182,-6.42898 14.27407,-9.65625 23.5625,-9.65625 z"
     style="color:#000000;display:inline;overflow:visible;visibility:visible;fill:#ffffff;fill-opacity:1;fill-rule:evenodd;stroke:none;stroke-width:1px;marker:none;enable-background:accumulate" />
</svg>
