<?xml version="1.0" encoding="UTF-8" standalone="no"?>
<svg
   xmlns:dc="http://purl.org/dc/elements/1.1/"
   xmlns:cc="http://creativecommons.org/ns#"
   xmlns:rdf="http://www.w3.org/1999/02/22-rdf-syntax-ns#"
   xmlns:svg="http://www.w3.org/2000/svg"
   xmlns="http://www.w3.org/2000/svg"
   id="svg2"
   viewBox="0 0 512 512"
   height="100%"
   width="100%"
   version="1.1">
  <metadata
     id="metadata106">
    <rdf:RDF>
      <cc:Work
         rdf:about="">
        <dc:format>image/svg+xml</dc:format>
        <dc:type
           rdf:resource="http://purl.org/dc/dcmitype/StillImage" />
        <dc:title />
      </cc:Work>
    </rdf:RDF>
  </metadata>
  <defs
     id="defs104" />
  <path
     style="fill:#669966;fill-opacity:1;stroke:none"
     d="m 25.99951,0 c -14.39735,0 -26,11.60265 -26,26 l 0,459.99999 c 0,14.3974 11.60265,26 26,26 l 460,0 c 14.39735,0 26,-11.6026 26,-26 l 0,-459.99999 c 0,-14.39735 -11.60265,-26 -26,-26 l -460,0 z"
     id="rect2986" />
  <path
     id="path25480"
     d="m 95.387176,40.99934 c -0.20197,0.007 -0.40197,0.0197 -0.61328,0.0391 -7.675476,0.28779 -13.919566,5.89689 -15.162106,13.28125 -0.01,0.0387 -0.0285,0.0743 -0.0371,0.11328 L 55.20165,95.84898 c -4.58831,7.94718 -3.15117,17.72579 2.63867,23.51563 l 21.54101,21.54098 0,36.7754 0,1.1895 0,1.1894 c 0,4.4471 1.79028,8.4661 4.69336,11.3692 l 51.84375,51.8437 c -16.0825,23.356 -25.33203,51.6802 -25.33203,82.334 0,40.232 16.23313,76.5808 42.52344,102.8711 l 83.52148,83.5215 249.36915,0 c 14.39735,0 26,-11.6026 26,-26 l 0,-356.2305 -84.08789,-84.08787 c -2.89554,-2.89554 -6.90168,-4.68165 -11.33985,-4.68164 l -3.60742,0 c -0.20829,0.007 -0.39714,0.019 -0.61523,0.0391 -7.62262,0.2858 -13.85771,5.81751 -15.16016,13.12695 -0.0262,0.0885 -0.0564,0.17794 -0.0762,0.26758 L 372.7407,95.84894 c -4.58831,7.94718 -3.15117,17.72579 2.63867,23.51563 l 21.54102,21.54102 0,19.5019 -13.05274,0 L 269.12547,45.66535 c -2.88553,-2.88554 -6.87411,-4.66602 -11.30274,-4.66601 l -3.64648,0 c -0.20197,0.007 -0.40197,0.0197 -0.61328,0.0391 -7.62108,0.28575 -13.81887,5.81969 -15.12305,13.12695 -0.0273,0.0914 -0.0949,0.17505 -0.11524,0.26758 L 213.9907,95.84894 c -4.5906,7.95113 -3.17937,17.73469 2.60938,23.52344 l 21.57031,21.57031 0,19.4648 -13.0918,0 L 110.3364,45.66535 c -2.88553,-2.88554 -6.8741,-4.66602 -11.302734,-4.66601 l -3.64649,0 z"
     style="opacity:0.25;fill:#000000;fill-opacity:1;stroke:none" />
  <path
     id="path2993"
     d="m 95.387646,41 c -0.20197,0.007 -0.40281,0.019 -0.61412,0.0384 -7.675476,0.28779 -13.918576,5.89601 -15.161116,13.28037 -0.01,0.0387 -0.0297,0.0762 -0.0383,0.11515 L 55.20109,95.84873 c -5.3984,9.35029 -2.4564,21.23524 6.10283,26.1769 5.74342,3.31599 12.56301,2.81485 18.0782,-0.69088 l 0,56.34564 0,1.1898 0,1.1899 c 0,8.875 7.13057,16.0439 16.005526,16.0439 l 3.64635,0 139.136844,0 0,108.5459 c -5.52068,-3.5242 -12.36203,-4.0516 -18.11658,-0.7292 -8.55922,4.9416 -11.50121,16.8266 -6.10283,26.1769 l 24.37294,41.4148 c 0.0232,0.1051 0.0831,0.2034 0.11508,0.307 1.34277,7.4991 7.84,13.1653 15.73686,13.1653 l 3.64634,0 c 8.00412,0 14.59606,-5.8214 15.81363,-13.4723 l 24.37293,-41.4148 c 5.3984,-9.3503 2.45638,-21.2353 -6.10283,-26.1769 -5.73659,-3.312 -12.5664,-2.8035 -18.07819,0.6909 l 0,-108.5076 141.55494,0 1.18986,0 c 8.87496,0 16.04392,-7.1689 16.04392,-16.0439 l 0,-1.1899 0,-1.1898 0,-56.30726 c 5.51099,3.49172 12.3432,3.96361 18.07819,0.6525 8.55919,-4.94166 11.50124,-16.82661 6.10283,-26.1769 L 432.42506,54.43392 c -0.0167,-0.0756 -0.0526,-0.15619 -0.0768,-0.23029 -1.32229,-7.52426 -7.86052,-13.20361 -15.77521,-13.20361 l -3.60796,0 c -0.20829,0.007 -0.39601,0.0183 -0.61412,0.0384 -7.62262,0.2858 -13.85867,5.8174 -15.16112,13.12684 -0.0262,0.0885 -0.057,0.17904 -0.0768,0.26868 l -24.37294,41.41481 c -5.3984,9.35029 -2.4564,21.23524 6.10283,26.1769 5.73498,3.31111 12.5672,2.83922 18.07819,-0.6525 l 0,39.03504 -123.09292,0 0,-39.07342 c 5.51519,3.50573 12.37313,4.00687 18.11658,0.69088 8.5592,-4.94166 11.46284,-16.82661 6.06444,-26.1769 L 273.67472,54.43394 c -0.02,-0.0909 -0.0844,-0.17996 -0.11509,-0.26868 -1.3392,-7.50343 -7.83687,-13.16522 -15.73685,-13.16522 l -3.64635,0 c -0.20197,0.007 -0.40281,0.019 -0.61412,0.0384 -7.62108,0.28575 -13.81855,5.81958 -15.12273,13.12684 -0.0273,0.0914 -0.0947,0.17615 -0.11509,0.26868 l -24.33455,41.41481 c -5.3984,9.35029 -2.49479,21.23524 6.06444,26.1769 5.75073,3.32019 12.59779,2.82696 18.11658,-0.69088 l 0,39.0735 -123.13131,0 0,-39.0735 c 5.51879,3.51784 12.36585,4.01107 18.11658,0.69088 8.55919,-4.94166 11.50124,-16.82661 6.10283,-26.1769 L 114.886,54.4339 c -0.02,-0.0909 -0.0844,-0.17996 -0.11509,-0.26868 C 113.43171,46.66179 106.93404,41 99.034056,41 l -3.64635,0 z m 53.965904,185.57979 c -24.27299,25.8948 -38.7664,60.6382 -38.7664,99.027 0,80.4639 64.92928,145.3932 145.3932,145.3932 80.46396,0 145.43158,-64.9293 145.43158,-145.3932 0,-38.3033 -14.62174,-73.0829 -38.7664,-99.027 l -29.09399,29.0556 c 16.859,18.3707 26.33045,42.9474 26.33045,69.9714 0,57.4742 -46.42738,103.8633 -103.90164,103.8633 -57.47423,0 -103.86325,-46.3891 -103.86325,-103.8633 0,-26.8614 10.19262,-50.9604 27.02133,-69.2805 l -29.78488,-29.7465 z"
     style="fill:#ffffff;fill-opacity:1;stroke:none" />
</svg>
