<?xml version="1.0" encoding="UTF-8" standalone="no"?>
<svg
   xmlns:dc="http://purl.org/dc/elements/1.1/"
   xmlns:cc="http://creativecommons.org/ns#"
   xmlns:rdf="http://www.w3.org/1999/02/22-rdf-syntax-ns#"
   xmlns:svg="http://www.w3.org/2000/svg"
   xmlns="http://www.w3.org/2000/svg"
   id="svg2"
   viewBox="0 0 512 512"
   height="100%"
   width="100%"
   version="1.1">
  <metadata
     id="metadata106">
    <rdf:RDF>
      <cc:Work
         rdf:about="">
        <dc:format>image/svg+xml</dc:format>
        <dc:type
           rdf:resource="http://purl.org/dc/dcmitype/StillImage" />
        <dc:title />
      </cc:Work>
    </rdf:RDF>
  </metadata>
  <defs
     id="defs104" />
  <path
     id="rect2986"
     d="m 25.99965,-8e-5 c -14.39735,0 -26,11.60265 -26,26 l 0,460 c 0,14.39735 11.60265,26 26,26 l 460,0 c 14.39735,0 26,-11.60265 26,-26 l 0,-460 c 0,-14.39735 -11.60265,-26 -26,-26 l -460,0 z"
     style="fill:#803f43;fill-opacity:1;stroke:none" />
  <path
     id="path16581"
     d="m 41.00035,119.18367 97.71875,97.71876 58.62109,58.62109 -39.07226,0 0,39.09766 39.09765,39.09765 -39.09765,0 0,39.09766 119.18359,119.18359 208.54883,0 c 14.39735,0 26,-11.60265 26,-26 l 0,-325.81641 -41,-41 -195.46484,0 0,39.07227 39.09765,39.09766 -0.0254,0 -78.16992,-78.16993 -195.4375,0 z"
     style="color:#ffffff;opacity:0.25;fill:#000000" />
  <path
     id="rect3009"
     d="m 40.99965,119.18292 97.71913,97.71912 97.71914,-97.71912 -195.43827,0 z m 234.53614,0 0,39.07231 195.46386,0 0,-39.07231 -195.46386,0 z m -78.19575,78.17018 0,39.09788 273.65961,0 0,-39.09788 -273.65961,0 z m -39.07232,78.1702 0,39.09787 312.73193,0 0,-39.09787 -312.73193,0 z m 0,78.19575 0,39.09787 312.73193,0 0,-39.09787 -312.73193,0 z"
     style="color:#ffffff;fill:#ffffff" />
</svg>
