<?xml version="1.0" encoding="UTF-8" standalone="no"?>
<svg
   xmlns:dc="http://purl.org/dc/elements/1.1/"
   xmlns:cc="http://creativecommons.org/ns#"
   xmlns:rdf="http://www.w3.org/1999/02/22-rdf-syntax-ns#"
   xmlns:svg="http://www.w3.org/2000/svg"
   xmlns="http://www.w3.org/2000/svg"
   xmlns:xlink="http://www.w3.org/1999/xlink"
   id="svg2"
   viewBox="0 0 512 512"
   height="100%"
   width="100%"
   version="1.1">
  <metadata
     id="metadata106">
    <rdf:RDF>
      <cc:Work
         rdf:about="">
        <dc:format>image/svg+xml</dc:format>
        <dc:type
           rdf:resource="http://purl.org/dc/dcmitype/StillImage" />
        <dc:title />
      </cc:Work>
    </rdf:RDF>
  </metadata>
  <defs
     id="defs104">
    <filter
       id="filter3174"
       color-interpolation-filters="sRGB">
      <feGaussianBlur
         id="feGaussianBlur3176"
         stdDeviation="1.71" />
    </filter>
    <linearGradient
       id="ButtonShadow"
       y2="7.0165"
       gradientUnits="userSpaceOnUse"
       x2="45.448"
       gradientTransform="scale(1.0059,0.99417)"
       y1="92.54"
       x1="45.448">
      <stop
         id="stop3750-1"
         offset="0" />
      <stop
         id="stop3752-6"
         style="stop-opacity:.58824"
         offset="1" />
    </linearGradient>
    <filter
       id="filter3174-2"
       color-interpolation-filters="sRGB">
      <feGaussianBlur
         id="feGaussianBlur3176-6"
         stdDeviation="1.71" />
    </filter>
    <linearGradient
       y2="7.0165"
       x2="45.448"
       y1="92.54"
       x1="45.448"
       gradientTransform="scale(1.0059,0.99417)"
       gradientUnits="userSpaceOnUse"
       id="linearGradient62873"
       xlink:href="#ButtonShadow" />
  </defs>
  <g
     id="layer2"
     style="display:none"
     transform="matrix(6.7274189,0,0,6.7274189,-1328.8681,-712.41656)">
    <rect
       id="rect3745"
       style="opacity:0.9;fill:url(#ButtonShadow);filter:url(#filter3174)"
       rx="6"
       ry="6"
       height="85"
       width="86"
       y="7"
       x="5" />
  </g>
  <g
     id="layer2-1"
     style="display:none"
     transform="matrix(6.7274189,0,0,6.7274189,-1522.6492,-780.80988)">
    <rect
       id="rect3745-0"
       style="opacity:0.9;fill:url(#linearGradient62873);filter:url(#filter3174-2)"
       rx="6"
       ry="6"
       height="85"
       width="86"
       y="7"
       x="5" />
  </g>
  <rect
     style="fill:#68af4c;fill-opacity:1"
     id="rect4"
     y="-5.9960938e-05"
     x="-1.5820312e-06"
     rx="25.988001"
     height="512"
     width="512" />
  <path
     id="path5493"
     d="m 468.74933,49.3438 c 0.0298,0.0516 0.0664,0.1056 0.0937,0.15625 1.69345,3.14477 2.25651,8.35727 1.34376,12.28125 -0.83351,3.49402 -4.08786,6.98409 -41.65626,44.6875 l -40.78124,40.875 1.75,2.5 c 0.96706,1.3442 3.30137,5.51048 5.15624,9.21875 13.35535,26.76644 13.44539,57.40015 0.25,83.84375 -5.53525,11.12626 -10.61637,17.54353 -27.25,34.5 l -16.53124,16.8125 8.78124,8.96875 c 4.83675,4.94533 9.33273,10.32183 10.03126,11.9375 2.57979,6.15452 0.92982,15.12074 -3.53126,19.15625 -3.22579,2.91628 -8.8929,4.36676 -13.875,3.75 52.21839,53.36439 104.18768,106.65424 156.59376,159.90625 1.83767,-3.56819 2.875,-7.63264 2.875,-11.9375 l 0,-393.4375 C 497.58517,78.15757 483.16217,63.7506 468.74929,49.3438 Z m -197.25,231.875 c 57.85548,58.04451 65.10834,65.66762 66,69.0625 2.92905,10.96485 -4.03179,20.66454 -14.96876,20.9375 -6.01951,0.135 -9.62901,-2.02592 -19.4375,-11.59375 l -8.84374,-8.5625 -16.8125,16.53125 c -16.93007,16.63511 -23.34394,21.68686 -34.46876,27.25 -26.44359,13.19539 -57.11587,13.07409 -83.875,-0.28125 -3.70826,-1.85486 -7.87602,-4.15648 -9.21874,-5.125 l -2.46876,-1.75 -40.90624,40.75 c -34.9622,34.82718 -41.39415,40.85882 -44.34375,41.71875 -3.57472,1.02135 -3.83433,1.02889 -6.65625,0.4375 l 0.0312,-0.0625 c -0.91424,-0.18783 -2.54115,-0.53428 -3.5625,-0.75 -1.1269,-0.23333 -3.0519,-1.5057 -4.84375,-3.03125 0.22631,0.31412 0.47206,0.62491 0.71875,0.9375 14.73183,14.60136 29.62838,29.43362 44.56249,44.3125 l 393.59376,0 c 4.69437,0 9.0819,-1.24625 12.875,-3.40625 C 423.05345,432.74129 347.49083,356.92388 271.49933,281.2188 Z"
     style="opacity:0.25;fill:#000000" />
  <path
     id="path5499"
     d="m 55.52684,470.53322 c -0.91424,-0.18783 -2.52551,-0.53709 -3.54686,-0.75281 -2.20411,-0.45637 -7.44441,-4.89104 -8.81942,-7.41066 -1.69344,-3.14477 -2.25695,-8.35717 -1.34419,-12.28116 0.83352,-3.49402 4.08541,-6.98657 41.6538,-44.68997 l 40.76746,-40.90099 -1.74627,-2.47268 c -0.96706,-1.34419 -3.27831,-5.50884 -5.13317,-9.2171 -13.35534,-26.76644 -13.46393,-57.42164 -0.26854,-83.86524 5.53525,-11.12627 10.61559,-17.52145 27.24923,-34.47793 l 16.52651,-16.82295 -8.78714,-8.97497 c -9.53994,-9.75566 -11.25981,-12.65682 -11.25981,-19.165 0,-13.35534 14.29599,-20.50479 25.42225,-12.71112 1.96199,1.3706 41.06245,40.06748 86.88823,85.99304 78.14216,78.33293 83.38831,83.73317 84.37885,87.50455 2.92905,10.96485 -4.03111,20.6618 -14.96807,20.93476 -6.01952,0.135 -9.64708,-2.01482 -19.45556,-11.58265 l -8.81942,-8.57289 -16.82295,16.52651 c -16.93006,16.63511 -23.35313,21.68609 -34.47794,27.24923 -26.44359,13.19539 -57.10613,13.08679 -83.86526,-0.26855 -3.70827,-1.85486 -7.87438,-4.16464 -9.2171,-5.13316 l -2.47267,-1.74627 -40.90099,40.73957 c -34.9622,34.82718 -41.41168,40.87458 -44.36128,41.73451 -3.57472,1.02135 -3.81538,1.02135 -6.6373,0.42996"
     style="opacity:0.4;fill:#ffffff" />
  <path
     id="path3294"
     d="m 350.57109,337.70624 c -0.91423,-0.24213 -3.19759,-1.48213 -5.05246,-2.76763 -1.85487,-1.28989 -40.8467,-39.92954 -86.66808,-85.86098 -78.14216,-78.33292 -83.38835,-83.73317 -84.37888,-87.50454 -2.92906,-10.96484 4.03113,-20.66181 14.96809,-20.93475 6.01952,-0.13501 9.64708,2.01482 19.45557,11.58264 l 8.81942,8.57289 16.82294,-16.52651 c 16.93007,-16.63511 23.35314,-21.6861 34.47794,-27.24923 26.4436,-13.19539 57.10613,-13.08679 83.86524,0.26854 3.70826,1.85487 7.87438,4.16465 9.2171,5.13317 l 2.47266,1.74628 40.90101,-40.73957 c 35.39509,-35.26303 41.38232,-40.87459 44.4493,-41.73452 1.93559,-0.56497 4.40238,-0.83352 5.45455,-0.6178 1.04776,0.21571 2.94958,0.6178 4.21894,0.88634 2.55338,0.53709 7.76579,4.78392 9.24499,7.52513 1.69344,3.14476 2.25695,8.35717 1.34419,12.28116 -0.83351,3.49401 -4.0854,6.98656 -41.6538,44.68997 l -40.76747,40.901 1.74628,2.47266 c 0.96706,1.3442 3.2783,5.50884 5.13317,9.21711 13.35534,26.76644 13.46393,57.42164 0.26855,83.86524 -5.53526,11.12626 -10.6156,17.52145 -27.24923,34.47792 l -16.52652,16.82295 8.78714,8.97497 c 4.83674,4.94533 9.32569,10.31624 10.02421,11.93191 2.57979,6.15452 0.91422,15.12949 -3.54685,19.165 -3.65544,3.30471 -10.45417,4.75603 -15.828,3.41331"
     style="fill:#ffffff" />
</svg>
