<?xml version="1.0" encoding="UTF-8" standalone="no"?>
<svg
   xmlns:dc="http://purl.org/dc/elements/1.1/"
   xmlns:cc="http://creativecommons.org/ns#"
   xmlns:rdf="http://www.w3.org/1999/02/22-rdf-syntax-ns#"
   xmlns:svg="http://www.w3.org/2000/svg"
   xmlns="http://www.w3.org/2000/svg"
   xmlns:xlink="http://www.w3.org/1999/xlink"
   id="svg2"
   viewBox="0 0 512 512"
   height="100%"
   width="100%"
   version="1.1">
  <metadata
     id="metadata106">
    <rdf:RDF>
      <cc:Work
         rdf:about="">
        <dc:format>image/svg+xml</dc:format>
        <dc:type
           rdf:resource="http://purl.org/dc/dcmitype/StillImage" />
        <dc:title />
      </cc:Work>
    </rdf:RDF>
  </metadata>
  <defs
     id="defs104">
    <filter
       id="filter3174"
       color-interpolation-filters="sRGB">
      <feGaussianBlur
         id="feGaussianBlur3176"
         stdDeviation="1.71" />
    </filter>
    <linearGradient
       id="ButtonShadow"
       y2="7.0165"
       gradientUnits="userSpaceOnUse"
       x2="45.448"
       gradientTransform="scale(1.0059,0.99417)"
       y1="92.54"
       x1="45.448">
      <stop
         id="stop3750-1"
         offset="0" />
      <stop
         id="stop3752-6"
         style="stop-opacity:.58824"
         offset="1" />
    </linearGradient>
    <filter
       id="filter3174-2"
       color-interpolation-filters="sRGB">
      <feGaussianBlur
         id="feGaussianBlur3176-6"
         stdDeviation="1.71" />
    </filter>
    <linearGradient
       y2="7.0165"
       x2="45.448"
       y1="92.54"
       x1="45.448"
       gradientTransform="scale(1.0059,0.99417)"
       gradientUnits="userSpaceOnUse"
       id="linearGradient62873"
       xlink:href="#ButtonShadow" />
  </defs>
  <g
     id="layer2"
     style="display:none"
     transform="matrix(6.7274189,0,0,6.7274189,-1328.8681,-712.41656)">
    <rect
       id="rect3745"
       style="opacity:0.9;fill:url(#ButtonShadow);filter:url(#filter3174)"
       rx="6"
       ry="6"
       height="85"
       width="86"
       y="7"
       x="5" />
  </g>
  <g
     id="layer2-1"
     style="display:none"
     transform="matrix(6.7274189,0,0,6.7274189,-1522.6492,-780.80988)">
    <rect
       id="rect3745-0"
       style="opacity:0.9;fill:url(#linearGradient62873);filter:url(#filter3174-2)"
       rx="6"
       ry="6"
       height="85"
       width="86"
       y="7"
       x="5" />
  </g>
  <path
     d="m 25.99998,0 c -14.39735,0 -26,11.60265 -26,26 l 0,460 c 0,14.39735 11.60265,26 26,26 l 460,0 c 14.39735,0 26,-11.60265 26,-26 l 0,-460 c 0,-14.39735 -11.60265,-26 -26,-26 l -460,0 z"
     id="rect2986"
     style="fill:#cd1d31;fill-opacity:1;stroke:none" />
  <path
     id="path3280"
     d="m 256.00003,77.837 c -76.2987,0 -152.5993,33.10187 -215,83.95117 182.57505,222.34303 71.328,86.68689 160.625,195.84375 l 18.98633,18.98633 c -2.72333,5.37616 -4.26758,11.45021 -4.26758,17.88867 0,10.95029 4.43874,20.86452 11.61523,28.04101 l 89.45117,89.45118 168.58985,0 c 14.39735,0 26,-11.60265 26,-26 l 0,-283.21094 -41,-41 C 408.59638,110.93887 332.29879,77.837 256.00003,77.837 Z"
     style="color:#000000;visibility:visible;opacity:0.25;fill:#000000;fill-opacity:1;fill-rule:evenodd;stroke:none;stroke-width:1px;marker:none" />
  <path
     id="path3595"
     d="m 430.09373,307.4375 c -20.7232,0 -41.6875,13.84886 -41.6875,34.84375 l 0,38.1875 -15.375,0 0,85.3125 115.5,0 0,-85.3125 -15.84375,0 0,-39.25 c 0,-15.77736 -16.31645,-33.78125 -42.59375,-33.78125 z m -0.3125,19.125 c 11.158,-0.0583 23.3125,7.72348 23.3125,19.59375 l 0,34.3125 -45.75,0 0.0312,-0.0312 0,-34.125 c 0,-12.87404 12.80755,-19.69979 22.40625,-19.75 z"
     style="fill:#ffffff;fill-rule:evenodd" />
  <path
     style="color:#000000;display:inline;overflow:visible;visibility:visible;fill:#ffffff;fill-opacity:1;fill-rule:evenodd;stroke:none;stroke-width:1px;marker:none;enable-background:accumulate"
     d="m 255.99998,77.83672 c -76.2987,0 -152.5993,33.10226 -215,83.95156 182.57505,222.34303 71.328,86.68689 160.625,195.84375 11.81604,-17.40062 31.75703,-28.8125 54.375,-28.8125 22.79417,0 42.87612,11.58918 54.65625,29.21875 92.06344,-111.36697 -22.9375,27.2428 160.34375,-196.25 -62.40365,-50.8493 -138.70124,-83.95156 -215,-83.95156 z m 0,277.01406 c -21.9006,0 -39.65625,17.75567 -39.65625,39.65625 0,21.90058 17.75565,39.65625 39.65625,39.65625 21.9006,0 39.65625,-17.75567 39.65625,-39.65625 0,-21.90058 -17.75565,-39.65625 -39.65625,-39.65625 z"
     id="path3189" />
</svg>
