<?xml version="1.0" encoding="UTF-8" standalone="no"?>
<svg
   xmlns:dc="http://purl.org/dc/elements/1.1/"
   xmlns:cc="http://creativecommons.org/ns#"
   xmlns:rdf="http://www.w3.org/1999/02/22-rdf-syntax-ns#"
   xmlns:svg="http://www.w3.org/2000/svg"
   xmlns="http://www.w3.org/2000/svg"
   xmlns:xlink="http://www.w3.org/1999/xlink"
   id="svg2"
   viewBox="0 0 512 512"
   height="100%"
   width="100%"
   version="1.1">
  <metadata
     id="metadata106">
    <rdf:RDF>
      <cc:Work
         rdf:about="">
        <dc:format>image/svg+xml</dc:format>
        <dc:type
           rdf:resource="http://purl.org/dc/dcmitype/StillImage" />
        <dc:title />
      </cc:Work>
    </rdf:RDF>
  </metadata>
  <defs
     id="defs104">
    <filter
       id="filter3174"
       color-interpolation-filters="sRGB">
      <feGaussianBlur
         id="feGaussianBlur3176"
         stdDeviation="1.71" />
    </filter>
    <linearGradient
       id="ButtonShadow"
       y2="7.0165"
       gradientUnits="userSpaceOnUse"
       x2="45.448"
       gradientTransform="scale(1.0059,0.99417)"
       y1="92.54"
       x1="45.448">
      <stop
         id="stop3750-1"
         offset="0" />
      <stop
         id="stop3752-6"
         style="stop-opacity:.58824"
         offset="1" />
    </linearGradient>
    <filter
       id="filter3174-2"
       color-interpolation-filters="sRGB">
      <feGaussianBlur
         id="feGaussianBlur3176-6"
         stdDeviation="1.71" />
    </filter>
    <linearGradient
       y2="7.0165"
       x2="45.448"
       y1="92.54"
       x1="45.448"
       gradientTransform="scale(1.0059,0.99417)"
       gradientUnits="userSpaceOnUse"
       id="linearGradient62873"
       xlink:href="#ButtonShadow" />
    <filter
       color-interpolation-filters="sRGB"
       id="filter3174-6">
      <feGaussianBlur
         stdDeviation="1.71"
         id="feGaussianBlur3176-5" />
    </filter>
    <linearGradient
       y2="7.0165"
       x2="45.448"
       y1="92.54"
       x1="45.448"
       gradientTransform="scale(1.0059,0.99417)"
       gradientUnits="userSpaceOnUse"
       id="linearGradient83486"
       xlink:href="#ButtonShadow" />
  </defs>
  <g
     id="layer2"
     style="display:none"
     transform="matrix(6.7274189,0,0,6.7274189,-1328.8681,-712.41656)">
    <rect
       id="rect3745"
       style="opacity:0.9;fill:url(#ButtonShadow);filter:url(#filter3174)"
       rx="6"
       ry="6"
       height="85"
       width="86"
       y="7"
       x="5" />
  </g>
  <g
     id="layer2-1"
     style="display:none"
     transform="matrix(6.7274189,0,0,6.7274189,-1522.6492,-780.80988)">
    <rect
       id="rect3745-0"
       style="opacity:0.9;fill:url(#linearGradient62873);filter:url(#filter3174-2)"
       rx="6"
       ry="6"
       height="85"
       width="86"
       y="7"
       x="5" />
  </g>
  <g
     transform="matrix(6.7274189,0,0,6.7274189,-1470.2509,-672.7018)"
     style="display:none"
     id="layer2-4">
    <rect
       x="5"
       y="7"
       width="86"
       height="85"
       ry="6"
       rx="6"
       style="opacity:0.9;fill:url(#linearGradient83486);filter:url(#filter3174-6)"
       id="rect3745-4" />
  </g>
  <path
     style="fill:#cd1d31"
     id="path9"
     d="m 25.99954,0 c -14.397,0 -26,11.603 -26,26 l 0,460 c 0,14.397 11.603,26 26,26 l 460,0 c 14.397,0 26,-11.603 26,-26 l 0,-460 c 0,-14.397 -11.603,-26 -26,-26 l -460,0" />
  <path
     id="path13"
     d="m 336.75216,43.27886 175.24805,175.25 0,-20.67969 L 373.24044,59.08941 c -9.782,-9.782 -22.23078,-15.5023 -35.30078,-15.7793 -0.401,-0.008 -0.7855,-0.0342 -1.1875,-0.0312 z m 175.24805,175.25 -175.25,-175.24805 c -12.44718,0.08 -25.05851,5.46589 -34.5293,15.81055 l -0.002,-0.002 c -8.752,9.565 -14.90325,23.03016 -17.78125,40.16016 -9.27945,-2.00974 -19.06818,-3.09375 -29.1875,-3.09375 l 104.06055,104.06054 -0.002,0.002 -104.0585,-104.05859 c -2.57296,0 -5.1209,0.0762 -7.64649,0.21289 l -38.90429,-38.9043 -0.0391,-0.0391 c -9.576,-9.576 -21.9448,-14.40243 -34.0918,-14.14843 l 52.94336,52.94336 c 7.5e-4,0.004 0.001,0.008 0.002,0.0117 L 174.5588,43.28075 c -25.67399,0.544 -48.96859,22.12875 -54.30859,54.21875 l 41.14453,41.14453 c -8.70459,11.98178 -13.67773,25.7951 -13.67773,40.50586 l 80.28515,80.28516 -0.01,-0.002 -80.27344,-80.27343 c 0,19.07 8.33275,36.63258 22.34375,50.64258 0.0208,0.0207 0.0417,0.0418 0.0625,0.0625 l 44.26562,44.26757 c -2.01463,-0.46791 -4.00848,-0.96086 -5.98046,-1.47851 l -90.32984,-90.33004 c 0.0489,0.0489 0.0958,0.10118 0.14453,0.15039 l -0.14453,-0.14453 c -6.069,-6.069 -13.85449,-9.46492 -21.52149,-9.41992 -3.70359,0.022 -7.36973,0.84188 -10.80859,2.56054 -13.756,6.876 -18.37975,25.36446 -10.34375,41.43946 l 0.008,0.008 24.46289,48.92578 c -1.86521,4.44277 -3.35439,9.05728 -4.49805,13.83984 l 146.42969,146.42969 0,0.008 -146.42969,-146.42968 -21.9375,0 -0.002,0 c -17.97,0 -32.4375,12.39929 -32.4375,27.77929 l -0.002,0 c 0,6.909 2.91963,13.21155 7.76563,18.06055 l 50.35351,50.35352 -18.34375,16.83398 0.002,0.002 c -13.24996,12.13904 -15.57316,31.02921 -5.18544,42.37891 l 0.17188,0.17188 c 0.18692,0.1998 0.37435,0.39974 0.5664,0.59179 l 0.13868,0.13867 c -0.0455,-0.0448 -0.0935,-0.0857 -0.13868,-0.13086 l 76.12891,76.12891 333.54102,0 c 14.397,0 26,-11.603 26,-26 l 0,-267.46875 0,-0.002 z"
     style="color:#000000;opacity:0.25" />
  <path
     style="color:#000000;fill:#ffffff"
     id="path155"
     d="m 174.55954,43.28 c -25.674,0.544 -48.97,22.13 -54.31,54.22 a 11.626092,11.626092 0 1 0 22.9375,3.8125 c 3.861,-23.18 19.12,-34.51 31.844,-34.781 6.364,-0.135 12.437,2.068 18.09,8.25 5.363,5.86 10.268,15.723 12.406,30.781 -34.36,13.852 -57.813,41.611 -57.813,73.59 0,45.828 48.14,82.969 107.53,82.969 59.4,0 107.56,-37.14 107.56,-82.969 0,-31.392 -22.615,-58.716 -55.938,-72.813 2.08,-15.487 7.05,-25.572 12.5,-31.531 5.656,-6.182 11.7,-8.416 18.06,-8.281 12.727,0.27 28.02,11.599 31.875,34.781 a 11.628791,11.628791 0 0 0 22.9375,-3.8125 c -5.343,-32.09 -28.639,-53.644 -54.31,-54.19 -0.401,-0.008 -0.786,-0.034 -1.188,-0.031 -12.448,0.08 -25.06,5.467 -34.531,15.813 -8.752,9.565 -14.903,23.03 -17.781,40.16 -9.28,-2.01 -19.07,-3.094 -29.19,-3.094 -9.422,0 -18.541,0.931 -27.25,2.688 -2.907,-16.943 -9.07,-30.26 -17.75,-39.75 -9.773,-10.68 -22.851,-16.08 -35.688,-15.813 m -78,129.63 c -3.705,0.022 -7.373,0.843 -10.813,2.563 -13.756,6.876 -18.38,25.365 -10.344,41.44 l 24.469,48.938 c -1.866,4.444 -3.356,9.06 -4.5,13.844 l -21.938,0 c -17.97,0 -32.438,12.401 -32.438,27.781 0,15.379 14.468,27.75 32.438,27.75 l 22.313,0 c 2.405,11.33 6.083,22.722 10.844,33.813 l -25.813,23.688 c -13.251,12.139 -15.576,31.03 -5.188,42.38 10.387,11.34 29.437,10.702 42.688,-1.438 l 17.781,-16.313 c 27.557,33.16 65.5,55.46 105.75,50.75 l 0,-188.81 c -42.31,-6.649 -78.71,-15.599 -100.5,-55.41 -0.098,0.044 -0.184,0.08 -0.281,0.125 l -15.969,-31.938 c -6.03,-12.06 -17.386,-19.222 -28.5,-19.16 m 318.88,0 c -11.11,-0.066 -22.474,7.101 -28.5,19.16 l -15.969,31.938 c -0.097,-0.045 -0.184,-0.081 -0.281,-0.125 -21.791,39.808 -58.19,48.758 -100.5,55.41 l 0,188.81 c 40.25,4.714 78.19,-17.587 105.75,-50.75 l 17.781,16.313 c 13.251,12.139 32.3,12.778 42.688,1.438 10.388,-11.34 8.06,-30.24 -5.188,-42.37 l -25.813,-23.688 c 4.761,-11.09 8.439,-22.482 10.844,-33.813 l 22.313,0 c 17.97,0 32.438,-12.371 32.438,-27.75 0,-15.38 -14.468,-27.781 -32.438,-27.781 l -21.938,0 c -1.144,-4.78 -2.634,-9.4 -4.5,-13.844 l 24.469,-48.938 c 8.04,-16.07 3.412,-34.561 -10.344,-41.44 -3.439,-1.719 -7.108,-2.541 -10.813,-2.563" />
</svg>
