<?xml version="1.0" encoding="UTF-8" standalone="no"?>
<svg
   xmlns:dc="http://purl.org/dc/elements/1.1/"
   xmlns:cc="http://creativecommons.org/ns#"
   xmlns:rdf="http://www.w3.org/1999/02/22-rdf-syntax-ns#"
   xmlns:svg="http://www.w3.org/2000/svg"
   xmlns="http://www.w3.org/2000/svg"
   xmlns:xlink="http://www.w3.org/1999/xlink"
   id="svg2"
   viewBox="0 0 512 512"
   height="100%"
   width="100%"
   version="1.1">
  <metadata
     id="metadata106">
    <rdf:RDF>
      <cc:Work
         rdf:about="">
        <dc:format>image/svg+xml</dc:format>
        <dc:type
           rdf:resource="http://purl.org/dc/dcmitype/StillImage" />
        <dc:title />
      </cc:Work>
    </rdf:RDF>
  </metadata>
  <defs
     id="defs104">
    <filter
       id="filter3174"
       color-interpolation-filters="sRGB">
      <feGaussianBlur
         id="feGaussianBlur3176"
         stdDeviation="1.71" />
    </filter>
    <linearGradient
       id="ButtonShadow"
       y2="7.0165"
       gradientUnits="userSpaceOnUse"
       x2="45.448"
       gradientTransform="scale(1.0059,0.99417)"
       y1="92.54"
       x1="45.448">
      <stop
         id="stop3750-1"
         offset="0" />
      <stop
         id="stop3752-6"
         style="stop-opacity:.58824"
         offset="1" />
    </linearGradient>
    <filter
       id="filter3174-2"
       color-interpolation-filters="sRGB">
      <feGaussianBlur
         id="feGaussianBlur3176-6"
         stdDeviation="1.71" />
    </filter>
    <linearGradient
       y2="7.0165"
       x2="45.448"
       y1="92.54"
       x1="45.448"
       gradientTransform="scale(1.0059,0.99417)"
       gradientUnits="userSpaceOnUse"
       id="linearGradient62873"
       xlink:href="#ButtonShadow" />
    <filter
       color-interpolation-filters="sRGB"
       id="filter3174-6">
      <feGaussianBlur
         stdDeviation="1.71"
         id="feGaussianBlur3176-5" />
    </filter>
    <linearGradient
       y2="7.0165"
       x2="45.448"
       y1="92.54"
       x1="45.448"
       gradientTransform="scale(1.0059,0.99417)"
       gradientUnits="userSpaceOnUse"
       id="linearGradient83486"
       xlink:href="#ButtonShadow" />
    <filter
       id="filter3174-1"
       color-interpolation-filters="sRGB">
      <feGaussianBlur
         id="feGaussianBlur3176-4"
         stdDeviation="1.71" />
    </filter>
    <linearGradient
       y2="7.0165"
       x2="45.448"
       y1="92.54"
       x1="45.448"
       gradientTransform="scale(1.0059,0.99417)"
       gradientUnits="userSpaceOnUse"
       id="linearGradient90210"
       xlink:href="#ButtonShadow" />
    <filter
       color-interpolation-filters="sRGB"
       id="filter3174-7">
      <feGaussianBlur
         stdDeviation="1.71"
         id="feGaussianBlur3176-60" />
    </filter>
    <linearGradient
       y2="7.0165"
       x2="45.448"
       y1="92.54"
       x1="45.448"
       gradientTransform="scale(1.0059,0.99417)"
       gradientUnits="userSpaceOnUse"
       id="linearGradient96921"
       xlink:href="#ButtonShadow" />
  </defs>
  <g
     id="layer2"
     style="display:none"
     transform="matrix(6.7274189,0,0,6.7274189,-1328.8681,-712.41656)">
    <rect
       id="rect3745"
       style="opacity:0.9;fill:url(#ButtonShadow);filter:url(#filter3174)"
       rx="6"
       ry="6"
       height="85"
       width="86"
       y="7"
       x="5" />
  </g>
  <g
     id="layer2-1"
     style="display:none"
     transform="matrix(6.7274189,0,0,6.7274189,-1522.6492,-780.80988)">
    <rect
       id="rect3745-0"
       style="opacity:0.9;fill:url(#linearGradient62873);filter:url(#filter3174-2)"
       rx="6"
       ry="6"
       height="85"
       width="86"
       y="7"
       x="5" />
  </g>
  <g
     transform="matrix(6.7274189,0,0,6.7274189,-1470.2509,-672.7018)"
     style="display:none"
     id="layer2-4">
    <rect
       x="5"
       y="7"
       width="86"
       height="85"
       ry="6"
       rx="6"
       style="opacity:0.9;fill:url(#linearGradient83486);filter:url(#filter3174-6)"
       id="rect3745-4" />
  </g>
  <g
     id="layer2-9"
     style="display:none"
     transform="matrix(6.7274189,0,0,6.7274189,-1342.1668,-799.80803)">
    <rect
       id="rect3745-1"
       style="opacity:0.9;fill:url(#linearGradient90210);filter:url(#filter3174-1)"
       rx="6"
       ry="6"
       height="85"
       width="86"
       y="7"
       x="5" />
  </g>
  <g
     transform="matrix(6.7274189,0,0,6.7274189,-1429.5583,-733.31302)"
     style="display:none"
     id="layer2-5">
    <rect
       x="5"
       y="7"
       width="86"
       height="85"
       ry="6"
       rx="6"
       style="opacity:0.9;fill:url(#linearGradient96921);filter:url(#filter3174-7)"
       id="rect3745-14" />
  </g>
  <path
     style="fill:#68af4c;fill-opacity:1;stroke:none"
     id="rect2986"
     d="m 25.99987,-5e-5 c -14.39735,0 -26,11.60265 -26,26 l 0,460 c 0,14.39735 11.60265,26 26,26 l 460,0 c 14.39735,0 26,-11.60265 26,-26 l 0,-460 c 0,-14.39735 -11.60265,-26 -26,-26 l -460,0 z" />
  <path
     id="path3064"
     d="m 220.1642,76.83207 c -98.89929,0.002 -179.16407,80.26818 -179.16407,179.16797 0,49.45054 20.06658,94.24236 52.4961,126.67188 l 129.32812,129.32812 263.17579,0 c 14.39734,0 26,-11.60265 26,-26 l 0,-191.50781 L 346.83607,129.32817 C 314.4074,96.8995 269.61709,76.83313 220.1681,76.83207 l -0.002,0 -0.002,0 z"
     style="opacity:0.25;fill:#000000;fill-rule:evenodd" />
  <path
     style="fill:#ffffff;fill-rule:evenodd"
     id="path3047"
     d="m 220.16852,76.8313 c -98.90109,0 -179.16865,80.26756 -179.16865,179.16866 0,98.90109 80.26756,179.16864 179.16865,179.16864 46.93745,0 89.73009,-18.20879 121.68659,-47.77831 l 129.14476,0 -79.88533,-79.88055 c 4.96894,-16.42619 8.21787,-33.4687 8.21787,-51.50979 0,-98.9011 -80.26757,-179.16865 -179.16865,-179.16865 z" />
</svg>
