<?xml version="1.0" encoding="UTF-8" standalone="no"?>
<svg
   xmlns:dc="http://purl.org/dc/elements/1.1/"
   xmlns:cc="http://creativecommons.org/ns#"
   xmlns:rdf="http://www.w3.org/1999/02/22-rdf-syntax-ns#"
   xmlns:svg="http://www.w3.org/2000/svg"
   xmlns="http://www.w3.org/2000/svg"
   xmlns:xlink="http://www.w3.org/1999/xlink"
   id="svg2"
   viewBox="0 0 512 512"
   height="100%"
   width="100%"
   version="1.1">
  <metadata
     id="metadata106">
    <rdf:RDF>
      <cc:Work
         rdf:about="">
        <dc:format>image/svg+xml</dc:format>
        <dc:type
           rdf:resource="http://purl.org/dc/dcmitype/StillImage" />
        <dc:title />
      </cc:Work>
    </rdf:RDF>
  </metadata>
  <defs
     id="defs104">
    <filter
       id="filter3174"
       color-interpolation-filters="sRGB">
      <feGaussianBlur
         id="feGaussianBlur3176"
         stdDeviation="1.71" />
    </filter>
    <linearGradient
       id="ButtonShadow"
       y2="7.0165"
       gradientUnits="userSpaceOnUse"
       x2="45.448"
       gradientTransform="scale(1.0059,0.99417)"
       y1="92.54"
       x1="45.448">
      <stop
         id="stop3750-1"
         offset="0" />
      <stop
         id="stop3752-6"
         style="stop-opacity:.58824"
         offset="1" />
    </linearGradient>
    <filter
       id="filter3174-2"
       color-interpolation-filters="sRGB">
      <feGaussianBlur
         id="feGaussianBlur3176-6"
         stdDeviation="1.71" />
    </filter>
    <linearGradient
       y2="7.0165"
       x2="45.448"
       y1="92.54"
       x1="45.448"
       gradientTransform="scale(1.0059,0.99417)"
       gradientUnits="userSpaceOnUse"
       id="linearGradient62873"
       xlink:href="#ButtonShadow" />
    <filter
       color-interpolation-filters="sRGB"
       id="filter3174-6">
      <feGaussianBlur
         stdDeviation="1.71"
         id="feGaussianBlur3176-5" />
    </filter>
    <linearGradient
       y2="7.0165"
       x2="45.448"
       y1="92.54"
       x1="45.448"
       gradientTransform="scale(1.0059,0.99417)"
       gradientUnits="userSpaceOnUse"
       id="linearGradient83486"
       xlink:href="#ButtonShadow" />
    <filter
       id="filter3174-1"
       color-interpolation-filters="sRGB">
      <feGaussianBlur
         id="feGaussianBlur3176-4"
         stdDeviation="1.71" />
    </filter>
    <linearGradient
       y2="7.0165"
       x2="45.448"
       y1="92.54"
       x1="45.448"
       gradientTransform="scale(1.0059,0.99417)"
       gradientUnits="userSpaceOnUse"
       id="linearGradient90210"
       xlink:href="#ButtonShadow" />
    <filter
       color-interpolation-filters="sRGB"
       id="filter3174-7">
      <feGaussianBlur
         stdDeviation="1.71"
         id="feGaussianBlur3176-60" />
    </filter>
    <linearGradient
       y2="7.0165"
       x2="45.448"
       y1="92.54"
       x1="45.448"
       gradientTransform="scale(1.0059,0.99417)"
       gradientUnits="userSpaceOnUse"
       id="linearGradient96921"
       xlink:href="#ButtonShadow" />
    <linearGradient
       id="ButtonShadow-4"
       gradientTransform="scale(1.0058652,0.994169)"
       x1="45.447727"
       y1="92.539597"
       x2="45.447727"
       y2="7.0165396"
       gradientUnits="userSpaceOnUse">
      <stop
         style="stop-color:#000000;stop-opacity:1;"
         offset="0"
         id="stop3750" />
      <stop
         style="stop-color:#000000;stop-opacity:0.58823532;"
         offset="1"
         id="stop3752" />
    </linearGradient>
    <filter
       id="filter3174-0">
      <feGaussianBlur
         stdDeviation="1.71"
         id="feGaussianBlur3176-41" />
    </filter>
    <linearGradient
       y2="7.0165396"
       x2="45.447727"
       y1="92.539597"
       x1="45.447727"
       gradientTransform="scale(1.0058652,0.994169)"
       gradientUnits="userSpaceOnUse"
       id="linearGradient6345"
       xlink:href="#ButtonShadow-4" />
    <filter
       id="filter3174-9">
      <feGaussianBlur
         stdDeviation="1.71"
         id="feGaussianBlur3176-1" />
    </filter>
    <linearGradient
       y2="7.0165396"
       x2="45.447727"
       y1="92.539597"
       x1="45.447727"
       gradientTransform="scale(1.0058652,0.994169)"
       gradientUnits="userSpaceOnUse"
       id="linearGradient6345-7"
       xlink:href="#ButtonShadow-4" />
  </defs>
  <g
     id="layer2"
     style="display:none"
     transform="matrix(6.7274189,0,0,6.7274189,-1328.8681,-712.41656)">
    <rect
       id="rect3745"
       style="opacity:0.9;fill:url(#ButtonShadow);filter:url(#filter3174)"
       rx="6"
       ry="6"
       height="85"
       width="86"
       y="7"
       x="5" />
  </g>
  <g
     id="layer2-1"
     style="display:none"
     transform="matrix(6.7274189,0,0,6.7274189,-1522.6492,-780.80988)">
    <rect
       id="rect3745-0"
       style="opacity:0.9;fill:url(#linearGradient62873);filter:url(#filter3174-2)"
       rx="6"
       ry="6"
       height="85"
       width="86"
       y="7"
       x="5" />
  </g>
  <g
     transform="matrix(6.7274189,0,0,6.7274189,-1470.2509,-672.7018)"
     style="display:none"
     id="layer2-4">
    <rect
       x="5"
       y="7"
       width="86"
       height="85"
       ry="6"
       rx="6"
       style="opacity:0.9;fill:url(#linearGradient83486);filter:url(#filter3174-6)"
       id="rect3745-4" />
  </g>
  <g
     id="layer2-9"
     style="display:none"
     transform="matrix(6.7274189,0,0,6.7274189,-1342.1668,-799.80803)">
    <rect
       id="rect3745-1"
       style="opacity:0.9;fill:url(#linearGradient90210);filter:url(#filter3174-1)"
       rx="6"
       ry="6"
       height="85"
       width="86"
       y="7"
       x="5" />
  </g>
  <g
     transform="matrix(6.7274189,0,0,6.7274189,-1429.5583,-733.31302)"
     style="display:none"
     id="layer2-5">
    <rect
       x="5"
       y="7"
       width="86"
       height="85"
       ry="6"
       rx="6"
       style="opacity:0.9;fill:url(#linearGradient96921);filter:url(#filter3174-7)"
       id="rect3745-14" />
  </g>
  <g
     transform="matrix(4.4306853,0,0,4.4306853,-1091.8904,5.309015)"
     style="display:none"
     id="layer2-0">
    <rect
       ry="6"
       rx="6"
       y="7"
       x="5"
       height="85"
       width="86"
       id="rect3745-11"
       style="opacity:0.9;fill:url(#linearGradient6345);fill-opacity:1;fill-rule:nonzero;stroke:none;filter:url(#filter3174-0)" />
  </g>
  <g
     transform="matrix(4.4306853,0,0,4.4306853,-1169.7828,28.106788)"
     style="display:none"
     id="layer2-8">
    <rect
       ry="6"
       rx="6"
       y="7"
       x="5"
       height="85"
       width="86"
       id="rect3745-09"
       style="opacity:0.9;fill:url(#linearGradient6345-7);fill-opacity:1;fill-rule:nonzero;stroke:none;filter:url(#filter3174-9)" />
  </g>
  <path
     id="rect2986"
     d="m 25.99986,0 c -14.39735,0 -26,11.60265 -26,26 l 0,460 c 0,14.39735 11.60265,26 26,26 l 460,0 c 14.39734,0 26,-11.60265 26,-26 l 0,-460 c 0,-14.39735 -11.60266,-26 -26,-26 l -460,0 z"
     style="fill:#6cb943;fill-opacity:1;stroke:none" />
  <path
     id="path6738"
     d="M 470.047,72.87057 329.48841,74.78268 C 193.22333,76.63716 188.3585,77.14674 170.17395,91.42331 139.51281,115.49526 136.2748,125.94015 135.90052,218.91744 l -31.80469,-31.80469 -31.54884,0 -31.54687,0 0,83.19336 c 0,76.73372 1.06527,84.3298 13.71875,97.79883 0.54996,0.58541 1.09334,1.14803 1.63476,1.68945 l 142.20509,142.20508 287.44141,0 c 14.39734,0 26,-11.60265 26,-26 l 0,-371.17578 L 470.047,72.87057 Z"
     style="opacity:0.25;fill:#000000;fill-opacity:1;fill-rule:nonzero;stroke:none;stroke-width:0.30000001;marker-start:none" />
  <path
     style="fill:#ffffff;fill-opacity:1;fill-rule:nonzero;stroke:none;stroke-width:0.30000001;marker-start:none"
     d="m 189.27317,433.54467 c -14.58884,-5.95169 -47.32127,-37.34722 -47.32127,-45.38849 0,-2.99701 -16.54073,-5.44913 -36.75719,-5.44913 -30.26385,0 -39.18066,-2.57971 -50.47601,-14.60303 -12.65348,-13.46903 -13.71884,-21.06358 -13.71884,-97.7973 l 0,-83.19425 31.54751,0 31.54751,0 0,66.24977 0,66.24978 15.77377,0 15.77374,0 0.22337,-93.06516 C 136.10678,126.24211 138.66704,116.15794 170.1733,91.42248 188.35785,77.14591 193.22317,76.63774 329.48824,74.78326 l 140.55781,-1.91293 0,53.96631 0,53.96632 -56.78552,0 -56.78553,0 0,-37.85702 0,-37.85702 -56.78553,0 -56.78553,0 0,78.8688 0,78.86877 -28.46374,0 -28.46374,0 54.42481,70.98191 c 29.93362,39.04005 56.656,70.9819 59.38302,70.9819 5.57987,0 106.89434,-129.86672 107.06015,-137.23167 0.0587,-2.60268 -11.25054,-4.73214 -25.13145,-4.73214 -25.238,0 -25.238,0 -25.238,-25.238 l 0,-25.23802 57.26239,0 57.26247,0 -2.05431,87.84412 c -1.95525,83.61189 -2.81423,88.65658 -17.82801,104.70632 -29.72408,31.77504 -42.17726,34.62245 -149.53737,34.1917 -54.82837,-0.22021 -105.36654,-2.71656 -112.30699,-5.54794 z"
     id="path3119" />
</svg>
