<?xml version="1.0" encoding="UTF-8" standalone="no"?>
<svg
   xmlns:dc="http://purl.org/dc/elements/1.1/"
   xmlns:cc="http://creativecommons.org/ns#"
   xmlns:rdf="http://www.w3.org/1999/02/22-rdf-syntax-ns#"
   xmlns:svg="http://www.w3.org/2000/svg"
   xmlns="http://www.w3.org/2000/svg"
   xmlns:xlink="http://www.w3.org/1999/xlink"
   xmlns:sodipodi="http://sodipodi.sourceforge.net/DTD/sodipodi-0.dtd"
   xmlns:inkscape="http://www.inkscape.org/namespaces/inkscape"
   id="svg2"
   viewBox="0 0 512 512"
   height="100%"
   width="100%"
   version="1.1"
   inkscape:version="0.91+devel r13804 custom"
   sodipodi:docname="window-suppressed.svg">
  <sodipodi:namedview
     pagecolor="#ffffff"
     bordercolor="#666666"
     borderopacity="1"
     objecttolerance="10"
     gridtolerance="10"
     guidetolerance="10"
     inkscape:pageopacity="0"
     inkscape:pageshadow="2"
     inkscape:window-width="1366"
     inkscape:window-height="709"
     id="namedview59"
     showgrid="false"
     inkscape:zoom="0.4609375"
     inkscape:cx="-8.6779661"
     inkscape:cy="237.55932"
     inkscape:window-x="0"
     inkscape:window-y="0"
     inkscape:window-maximized="0"
     inkscape:current-layer="svg2" />
  <metadata
     id="metadata106">
    <rdf:RDF>
      <cc:Work
         rdf:about="">
        <dc:format>image/svg+xml</dc:format>
        <dc:type
           rdf:resource="http://purl.org/dc/dcmitype/StillImage" />
        <dc:title />
      </cc:Work>
    </rdf:RDF>
  </metadata>
  <defs
     id="defs104">
    <filter
       id="filter3174"
       color-interpolation-filters="sRGB">
      <feGaussianBlur
         id="feGaussianBlur3176"
         stdDeviation="1.71" />
    </filter>
    <linearGradient
       id="ButtonShadow"
       y2="7.0165"
       gradientUnits="userSpaceOnUse"
       x2="45.448"
       gradientTransform="scale(1.0059,0.99417)"
       y1="92.54"
       x1="45.448">
      <stop
         id="stop3750-1"
         offset="0" />
      <stop
         id="stop3752-6"
         style="stop-opacity:.58824"
         offset="1" />
    </linearGradient>
    <filter
       id="filter3174-2"
       color-interpolation-filters="sRGB">
      <feGaussianBlur
         id="feGaussianBlur3176-6"
         stdDeviation="1.71" />
    </filter>
    <linearGradient
       y2="7.0165"
       x2="45.448"
       y1="92.54"
       x1="45.448"
       gradientTransform="scale(1.0059,0.99417)"
       gradientUnits="userSpaceOnUse"
       id="linearGradient62873"
       xlink:href="#ButtonShadow" />
    <filter
       color-interpolation-filters="sRGB"
       id="filter3174-6">
      <feGaussianBlur
         stdDeviation="1.71"
         id="feGaussianBlur3176-5" />
    </filter>
    <linearGradient
       y2="7.0165"
       x2="45.448"
       y1="92.54"
       x1="45.448"
       gradientTransform="scale(1.0059,0.99417)"
       gradientUnits="userSpaceOnUse"
       id="linearGradient83486"
       xlink:href="#ButtonShadow" />
    <filter
       id="filter3174-1"
       color-interpolation-filters="sRGB">
      <feGaussianBlur
         id="feGaussianBlur3176-4"
         stdDeviation="1.71" />
    </filter>
    <linearGradient
       y2="7.0165"
       x2="45.448"
       y1="92.54"
       x1="45.448"
       gradientTransform="scale(1.0059,0.99417)"
       gradientUnits="userSpaceOnUse"
       id="linearGradient90210"
       xlink:href="#ButtonShadow" />
    <filter
       color-interpolation-filters="sRGB"
       id="filter3174-7">
      <feGaussianBlur
         stdDeviation="1.71"
         id="feGaussianBlur3176-60" />
    </filter>
    <linearGradient
       y2="7.0165"
       x2="45.448"
       y1="92.54"
       x1="45.448"
       gradientTransform="scale(1.0059,0.99417)"
       gradientUnits="userSpaceOnUse"
       id="linearGradient96921"
       xlink:href="#ButtonShadow" />
    <linearGradient
       id="ButtonShadow-4"
       gradientTransform="scale(1.0058652,0.994169)"
       x1="45.447727"
       y1="92.539597"
       x2="45.447727"
       y2="7.0165396"
       gradientUnits="userSpaceOnUse">
      <stop
         style="stop-color:#000000;stop-opacity:1;"
         offset="0"
         id="stop3750" />
      <stop
         style="stop-color:#000000;stop-opacity:0.58823532;"
         offset="1"
         id="stop3752" />
    </linearGradient>
    <filter
       id="filter3174-0">
      <feGaussianBlur
         stdDeviation="1.71"
         id="feGaussianBlur3176-41" />
    </filter>
    <linearGradient
       y2="7.0165396"
       x2="45.447727"
       y1="92.539597"
       x1="45.447727"
       gradientTransform="scale(1.0058652,0.994169)"
       gradientUnits="userSpaceOnUse"
       id="linearGradient6345"
       xlink:href="#ButtonShadow-4" />
    <filter
       id="filter3174-9">
      <feGaussianBlur
         stdDeviation="1.71"
         id="feGaussianBlur3176-1" />
    </filter>
    <linearGradient
       y2="7.0165396"
       x2="45.447727"
       y1="92.539597"
       x1="45.447727"
       gradientTransform="scale(1.0058652,0.994169)"
       gradientUnits="userSpaceOnUse"
       id="linearGradient6345-7"
       xlink:href="#ButtonShadow-4" />
    <filter
       id="filter3174-94">
      <feGaussianBlur
         stdDeviation="1.71"
         id="feGaussianBlur3176-8" />
    </filter>
    <linearGradient
       y2="7.0165396"
       x2="45.447727"
       y1="92.539597"
       x1="45.447727"
       gradientTransform="scale(1.0058652,0.994169)"
       gradientUnits="userSpaceOnUse"
       id="linearGradient6345-6"
       xlink:href="#ButtonShadow-4" />
    <filter
       color-interpolation-filters="sRGB"
       id="filter3174-4">
      <feGaussianBlur
         stdDeviation="1.71"
         id="feGaussianBlur3176-2" />
    </filter>
    <linearGradient
       y2="7.0165"
       x2="45.448"
       y1="92.54"
       x1="45.448"
       gradientTransform="scale(1.0059,0.99417)"
       gradientUnits="userSpaceOnUse"
       id="linearGradient107043"
       xlink:href="#ButtonShadow" />
  </defs>
  <g
     id="layer2"
     style="display:none"
     transform="matrix(6.7274189,0,0,6.7274189,-1328.8681,-712.41656)">
    <rect
       id="rect3745"
       style="opacity:0.9;fill:url(#ButtonShadow);filter:url(#filter3174)"
       rx="6"
       ry="6"
       height="85"
       width="86"
       y="7"
       x="5" />
  </g>
  <g
     id="layer2-1"
     style="display:none"
     transform="matrix(6.7274189,0,0,6.7274189,-1522.6492,-780.80988)">
    <rect
       id="rect3745-0"
       style="opacity:0.9;fill:url(#linearGradient62873);filter:url(#filter3174-2)"
       rx="6"
       ry="6"
       height="85"
       width="86"
       y="7"
       x="5" />
  </g>
  <g
     transform="matrix(6.7274189,0,0,6.7274189,-1470.2509,-672.7018)"
     style="display:none"
     id="layer2-4">
    <rect
       x="5"
       y="7"
       width="86"
       height="85"
       ry="6"
       rx="6"
       style="opacity:0.9;fill:url(#linearGradient83486);filter:url(#filter3174-6)"
       id="rect3745-4" />
  </g>
  <g
     id="layer2-9"
     style="display:none"
     transform="matrix(6.7274189,0,0,6.7274189,-1342.1668,-799.80803)">
    <rect
       id="rect3745-1"
       style="opacity:0.9;fill:url(#linearGradient90210);filter:url(#filter3174-1)"
       rx="6"
       ry="6"
       height="85"
       width="86"
       y="7"
       x="5" />
  </g>
  <g
     transform="matrix(6.7274189,0,0,6.7274189,-1429.5583,-733.31302)"
     style="display:none"
     id="layer2-5">
    <rect
       x="5"
       y="7"
       width="86"
       height="85"
       ry="6"
       rx="6"
       style="opacity:0.9;fill:url(#linearGradient96921);filter:url(#filter3174-7)"
       id="rect3745-14" />
  </g>
  <g
     transform="matrix(4.4306853,0,0,4.4306853,-1091.8904,5.309015)"
     style="display:none"
     id="layer2-0">
    <rect
       ry="6"
       rx="6"
       y="7"
       x="5"
       height="85"
       width="86"
       id="rect3745-11"
       style="opacity:0.9;fill:url(#linearGradient6345);fill-opacity:1;fill-rule:nonzero;stroke:none;filter:url(#filter3174-0)" />
  </g>
  <g
     transform="matrix(4.4306853,0,0,4.4306853,-1169.7828,28.106788)"
     style="display:none"
     id="layer2-8">
    <rect
       ry="6"
       rx="6"
       y="7"
       x="5"
       height="85"
       width="86"
       id="rect3745-09"
       style="opacity:0.9;fill:url(#linearGradient6345-7);fill-opacity:1;fill-rule:nonzero;stroke:none;filter:url(#filter3174-9)" />
  </g>
  <g
     transform="matrix(4.4306853,0,0,4.4306853,-1205.8793,73.702332)"
     style="display:none"
     id="layer2-96">
    <rect
       ry="6"
       rx="6"
       y="7"
       x="5"
       height="85"
       width="86"
       id="rect3745-5"
       style="opacity:0.9;fill:url(#linearGradient6345-6);fill-opacity:1;fill-rule:nonzero;stroke:none;filter:url(#filter3174-94)" />
  </g>
  <g
     transform="matrix(6.7274189,0,0,6.7274189,-1387.7624,-714.31638)"
     style="display:none"
     id="layer2-55">
    <rect
       x="5"
       y="7"
       width="86"
       height="85"
       ry="6"
       rx="6"
       style="opacity:0.9;fill:url(#linearGradient107043);filter:url(#filter3174-4)"
       id="rect3745-6" />
  </g>
  <rect
     style="fill:#cd1c30"
     id="rect4"
     y="-3.828125e-06"
     x="-0.0050103124"
     rx="25.988001"
     height="512"
     width="512" />
  <path
     inkscape:connector-curvature="0"
     style="fill-opacity:0.23500001"
     id="path148"
     d="m 383.685,50.34001 c -12.43199,0.167 -25.05,1.337 -37.21999,0.375 -93.99001,-0.094 -188.02,0.204 -282,-0.125 -27.692,4.079 -23.836,35.31 -23.625,56.03 0.423,85.41 -0.856,170.9 0.625,256.25 11.33,23.05 34.556,38.03 51.38,57.31 30.653,30.575 61.28,61.18 91.88,91.81 l 301.28001,0 c 14.39699,0 25.99999,-11.603 25.99999,-26 l 0,-338.25 c -30.704,-30.645 -61.45999,-61.23 -92.31,-91.72 -11.33501,-5.02 -23.56801,-5.854 -36,-5.688" />
  <path
     inkscape:connector-curvature="0"
     style="fill:#ffffff"
     d="m 64.1875,50.32225 -0.002,0.002 c -0.502,0.017 -0.96887,0.0536 -1.42187,0.14258 -12.735,2.572 -22.21094,14.06931 -22.21094,27.57031 l 0,278.75978 c 0,15.38499 12.82025,27.57031 28.28125,27.57031 l 134.47851,0 27.57227,-27.57031 -162.05078,0 0,-236.32032 333.92968,0 0.87305,58.05078 c 4.46201,4.462 9.03939,8.89686 13.52539,13.38086 l 13.87891,13.87696 0,-127.75001 c 0,-15.436 -12.9213,-27.57031 -28.2793,-27.57031 l -333.93164,0 c -1.452,0 -3.13558,-0.19258 -4.64258,-0.14258 z m 213.70703,152.31251 -65.04883,64.30859 64.58594,64.70508 -64.33008,64.33008 64.71094,65.70898 64.62109,-64.89844 64.5293,64.66016 64.48047,-65.16992 -64.37109,-64.40039 64.13085,-64.40039 -64.75781,-64.82422 -64.28125,64.27929 -64.26953,-64.29882 z"
     id="path360" />
</svg>
