<?xml version="1.0" encoding="UTF-8" standalone="no"?>
<svg
   xmlns:dc="http://purl.org/dc/elements/1.1/"
   xmlns:cc="http://creativecommons.org/ns#"
   xmlns:rdf="http://www.w3.org/1999/02/22-rdf-syntax-ns#"
   xmlns:svg="http://www.w3.org/2000/svg"
   xmlns="http://www.w3.org/2000/svg"
   xmlns:xlink="http://www.w3.org/1999/xlink"
   id="svg2"
   viewBox="0 0 512 512"
   height="100%"
   width="100%"
   version="1.1">
  <metadata
     id="metadata106">
    <rdf:RDF>
      <cc:Work
         rdf:about="">
        <dc:format>image/svg+xml</dc:format>
        <dc:type
           rdf:resource="http://purl.org/dc/dcmitype/StillImage" />
        <dc:title />
      </cc:Work>
    </rdf:RDF>
  </metadata>
  <defs
     id="defs104">
    <filter
       id="filter3174"
       color-interpolation-filters="sRGB">
      <feGaussianBlur
         id="feGaussianBlur3176"
         stdDeviation="1.71" />
    </filter>
    <linearGradient
       id="ButtonShadow"
       y2="7.0165"
       gradientUnits="userSpaceOnUse"
       x2="45.448"
       gradientTransform="scale(1.0059,0.99417)"
       y1="92.54"
       x1="45.448">
      <stop
         id="stop3750-1"
         offset="0" />
      <stop
         id="stop3752-6"
         style="stop-opacity:.58824"
         offset="1" />
    </linearGradient>
    <filter
       id="filter3174-2"
       color-interpolation-filters="sRGB">
      <feGaussianBlur
         id="feGaussianBlur3176-6"
         stdDeviation="1.71" />
    </filter>
    <linearGradient
       y2="7.0165"
       x2="45.448"
       y1="92.54"
       x1="45.448"
       gradientTransform="scale(1.0059,0.99417)"
       gradientUnits="userSpaceOnUse"
       id="linearGradient62873"
       xlink:href="#ButtonShadow" />
    <filter
       color-interpolation-filters="sRGB"
       id="filter3174-6">
      <feGaussianBlur
         stdDeviation="1.71"
         id="feGaussianBlur3176-5" />
    </filter>
    <linearGradient
       y2="7.0165"
       x2="45.448"
       y1="92.54"
       x1="45.448"
       gradientTransform="scale(1.0059,0.99417)"
       gradientUnits="userSpaceOnUse"
       id="linearGradient83486"
       xlink:href="#ButtonShadow" />
    <filter
       id="filter3174-1"
       color-interpolation-filters="sRGB">
      <feGaussianBlur
         id="feGaussianBlur3176-4"
         stdDeviation="1.71" />
    </filter>
    <linearGradient
       y2="7.0165"
       x2="45.448"
       y1="92.54"
       x1="45.448"
       gradientTransform="scale(1.0059,0.99417)"
       gradientUnits="userSpaceOnUse"
       id="linearGradient90210"
       xlink:href="#ButtonShadow" />
    <filter
       color-interpolation-filters="sRGB"
       id="filter3174-7">
      <feGaussianBlur
         stdDeviation="1.71"
         id="feGaussianBlur3176-60" />
    </filter>
    <linearGradient
       y2="7.0165"
       x2="45.448"
       y1="92.54"
       x1="45.448"
       gradientTransform="scale(1.0059,0.99417)"
       gradientUnits="userSpaceOnUse"
       id="linearGradient96921"
       xlink:href="#ButtonShadow" />
    <linearGradient
       id="ButtonShadow-4"
       gradientTransform="scale(1.0058652,0.994169)"
       x1="45.447727"
       y1="92.539597"
       x2="45.447727"
       y2="7.0165396"
       gradientUnits="userSpaceOnUse">
      <stop
         style="stop-color:#000000;stop-opacity:1;"
         offset="0"
         id="stop3750" />
      <stop
         style="stop-color:#000000;stop-opacity:0.58823532;"
         offset="1"
         id="stop3752" />
    </linearGradient>
    <filter
       id="filter3174-0">
      <feGaussianBlur
         stdDeviation="1.71"
         id="feGaussianBlur3176-41" />
    </filter>
    <linearGradient
       y2="7.0165396"
       x2="45.447727"
       y1="92.539597"
       x1="45.447727"
       gradientTransform="scale(1.0058652,0.994169)"
       gradientUnits="userSpaceOnUse"
       id="linearGradient6345"
       xlink:href="#ButtonShadow-4" />
    <filter
       id="filter3174-9">
      <feGaussianBlur
         stdDeviation="1.71"
         id="feGaussianBlur3176-1" />
    </filter>
    <linearGradient
       y2="7.0165396"
       x2="45.447727"
       y1="92.539597"
       x1="45.447727"
       gradientTransform="scale(1.0058652,0.994169)"
       gradientUnits="userSpaceOnUse"
       id="linearGradient6345-7"
       xlink:href="#ButtonShadow-4" />
    <filter
       id="filter3174-94">
      <feGaussianBlur
         stdDeviation="1.71"
         id="feGaussianBlur3176-8" />
    </filter>
    <linearGradient
       y2="7.0165396"
       x2="45.447727"
       y1="92.539597"
       x1="45.447727"
       gradientTransform="scale(1.0058652,0.994169)"
       gradientUnits="userSpaceOnUse"
       id="linearGradient6345-6"
       xlink:href="#ButtonShadow-4" />
    <filter
       color-interpolation-filters="sRGB"
       id="filter3174-4">
      <feGaussianBlur
         stdDeviation="1.71"
         id="feGaussianBlur3176-2" />
    </filter>
    <linearGradient
       y2="7.0165"
       x2="45.448"
       y1="92.54"
       x1="45.448"
       gradientTransform="scale(1.0059,0.99417)"
       gradientUnits="userSpaceOnUse"
       id="linearGradient107043"
       xlink:href="#ButtonShadow" />
  </defs>
  <g
     id="layer2"
     style="display:none"
     transform="matrix(6.7274189,0,0,6.7274189,-1328.8681,-712.41656)">
    <rect
       id="rect3745"
       style="opacity:0.9;fill:url(#ButtonShadow);filter:url(#filter3174)"
       rx="6"
       ry="6"
       height="85"
       width="86"
       y="7"
       x="5" />
  </g>
  <g
     id="layer2-1"
     style="display:none"
     transform="matrix(6.7274189,0,0,6.7274189,-1522.6492,-780.80988)">
    <rect
       id="rect3745-0"
       style="opacity:0.9;fill:url(#linearGradient62873);filter:url(#filter3174-2)"
       rx="6"
       ry="6"
       height="85"
       width="86"
       y="7"
       x="5" />
  </g>
  <g
     transform="matrix(6.7274189,0,0,6.7274189,-1470.2509,-672.7018)"
     style="display:none"
     id="layer2-4">
    <rect
       x="5"
       y="7"
       width="86"
       height="85"
       ry="6"
       rx="6"
       style="opacity:0.9;fill:url(#linearGradient83486);filter:url(#filter3174-6)"
       id="rect3745-4" />
  </g>
  <g
     id="layer2-9"
     style="display:none"
     transform="matrix(6.7274189,0,0,6.7274189,-1342.1668,-799.80803)">
    <rect
       id="rect3745-1"
       style="opacity:0.9;fill:url(#linearGradient90210);filter:url(#filter3174-1)"
       rx="6"
       ry="6"
       height="85"
       width="86"
       y="7"
       x="5" />
  </g>
  <g
     transform="matrix(6.7274189,0,0,6.7274189,-1429.5583,-733.31302)"
     style="display:none"
     id="layer2-5">
    <rect
       x="5"
       y="7"
       width="86"
       height="85"
       ry="6"
       rx="6"
       style="opacity:0.9;fill:url(#linearGradient96921);filter:url(#filter3174-7)"
       id="rect3745-14" />
  </g>
  <g
     transform="matrix(4.4306853,0,0,4.4306853,-1091.8904,5.309015)"
     style="display:none"
     id="layer2-0">
    <rect
       ry="6"
       rx="6"
       y="7"
       x="5"
       height="85"
       width="86"
       id="rect3745-11"
       style="opacity:0.9;fill:url(#linearGradient6345);fill-opacity:1;fill-rule:nonzero;stroke:none;filter:url(#filter3174-0)" />
  </g>
  <g
     transform="matrix(4.4306853,0,0,4.4306853,-1169.7828,28.106788)"
     style="display:none"
     id="layer2-8">
    <rect
       ry="6"
       rx="6"
       y="7"
       x="5"
       height="85"
       width="86"
       id="rect3745-09"
       style="opacity:0.9;fill:url(#linearGradient6345-7);fill-opacity:1;fill-rule:nonzero;stroke:none;filter:url(#filter3174-9)" />
  </g>
  <g
     transform="matrix(4.4306853,0,0,4.4306853,-1205.8793,73.702332)"
     style="display:none"
     id="layer2-96">
    <rect
       ry="6"
       rx="6"
       y="7"
       x="5"
       height="85"
       width="86"
       id="rect3745-5"
       style="opacity:0.9;fill:url(#linearGradient6345-6);fill-opacity:1;fill-rule:nonzero;stroke:none;filter:url(#filter3174-94)" />
  </g>
  <g
     transform="matrix(6.7274189,0,0,6.7274189,-1387.7624,-714.31638)"
     style="display:none"
     id="layer2-55">
    <rect
       x="5"
       y="7"
       width="86"
       height="85"
       ry="6"
       rx="6"
       style="opacity:0.9;fill:url(#linearGradient107043);filter:url(#filter3174-4)"
       id="rect3745-6" />
  </g>
  <path
     style="fill:#cd1d31;fill-opacity:1;stroke:none"
     id="rect2986"
     d="m 26,-1.2e-4 c -14.39736,0 -26,11.60265 -26,26 l 0,460 c 0,14.39735 11.60264,26 26,26 l 460,0 c 14.39735,0 26,-11.60265 26,-26 l 0,-460 c 0,-14.39735 -11.60265,-26 -26,-26 l -460,0 z" />
  <path
     id="path3141"
     d="m 256.05783,41.00011 c -36.22891,0 -65.40235,28.37442 -65.40235,63.71289 l 0,176.08008 -24.81836,-24.81836 0,24.2832 -24.2832,-24.2832 0,39.81836 c 0,29.85641 12.53415,57.21581 32.67187,77.35352 l 57.25,57.25 0,16.70703 -24.51953,0 0,23.89648 41,41 238.04297,0 c 14.39735,0 26,-11.60265 26,-26 l 0,-216.74219 L 302.95431,60.213 C 291.09066,48.34935 274.4924,41.00011 256.0715,41.00011 l 65.38867,65.38867 0,0.0137 -65.40234,-65.40234 z"
     style="opacity:0.25;fill:#000000" />
  <path
     style="fill:#ffffff"
     id="path59"
     d="m 256.058,40.99988 c -36.22891,0 -65.40172,28.37487 -65.40172,63.71334 l 0,191.13062 c 0,35.29144 29.16027,63.71334 65.40172,63.71334 36.22891,0 65.40173,-28.37487 65.40173,-63.71334 l 0,-191.13062 c 0.0141,-35.29144 -29.16028,-63.71334 -65.38762,-63.71334 m -114.51847,214.97492 0,39.81731 c 0,52.65968 38.99428,97.55625 89.92169,108.74943 l 0,42.56231 -24.51996,0 0,23.89603 98.08926,0 0,-23.89603 -24.51997,0 0,-42.56231 c 50.92898,-11.19631 89.92169,-56.09288 89.92169,-108.74943 l 0,-39.81731 -24.26443,0 0,39.81731 c 0,48.2749 -40.62623,87.85236 -90.17252,87.85236 -49.55255,0 -90.17251,-39.58373 -90.17251,-87.85236 l 0,-39.81731 z" />
</svg>
