<?xml version="1.0" encoding="UTF-8" standalone="no"?>
<!-- Created with Inkscape (http://www.inkscape.org/) -->

<svg
   xmlns:dc="http://purl.org/dc/elements/1.1/"
   xmlns:cc="http://creativecommons.org/ns#"
   xmlns:rdf="http://www.w3.org/1999/02/22-rdf-syntax-ns#"
   xmlns:svg="http://www.w3.org/2000/svg"
   xmlns="http://www.w3.org/2000/svg"
   xmlns:sodipodi="http://sodipodi.sourceforge.net/DTD/sodipodi-0.dtd"
   xmlns:inkscape="http://www.inkscape.org/namespaces/inkscape"
   inkscape:export-ydpi="90.000000"
   inkscape:export-xdpi="90.000000"
   width="34"
   height="20"
   id="svg11300"
   sodipodi:version="0.32"
   inkscape:version="0.91 r13725"
   sodipodi:docname="alt-off.svg"
   inkscape:output_extension="org.inkscape.output.svg.inkscape"
   version="1.0"
   style="display:inline;enable-background:new">
  <sodipodi:namedview
     stroke="#ef2929"
     fill="#f57900"
     id="base"
     pagecolor="#8c8c8c"
     bordercolor="#ff5e00"
     borderopacity="1"
     inkscape:pageopacity="1"
     inkscape:pageshadow="2"
     inkscape:zoom="16"
     inkscape:cx="11.926696"
     inkscape:cy="4.478454"
     inkscape:current-layer="layer1"
     showgrid="true"
     inkscape:grid-bbox="true"
     inkscape:document-units="px"
     inkscape:showpageshadow="false"
     inkscape:window-width="1600"
     inkscape:window-height="851"
     inkscape:window-x="0"
     inkscape:window-y="24"
     width="400px"
     height="300px"
     inkscape:snap-nodes="false"
     inkscape:snap-bbox="true"
     gridtolerance="10000"
     inkscape:object-nodes="false"
     inkscape:snap-grids="true"
     showguides="false"
     inkscape:guide-bbox="true"
     inkscape:window-maximized="1"
     inkscape:bbox-nodes="true"
     inkscape:bbox-paths="false"
     inkscape:snap-bbox-edge-midpoints="false"
     inkscape:snap-bbox-midpoints="false"
     objecttolerance="10000"
     guidetolerance="10000"
     borderlayer="true"
     showborder="true"
     guidecolor="#ff0b00"
     guideopacity="1"
     guidehicolor="#001aff"
     guidehiopacity="0.49803922"
     inkscape:snap-intersection-paths="false"
     inkscape:snap-midpoints="false"
     inkscape:snap-smooth-nodes="false"
     inkscape:object-paths="false">
    <inkscape:grid
       type="xygrid"
       id="grid3123"
       empspacing="4"
       visible="true"
       enabled="true"
       snapvisiblegridlinesonly="true" />
  </sodipodi:namedview>
  <defs
     id="defs3" />
  <metadata
     id="metadata4">
    <rdf:RDF>
      <cc:Work
         rdf:about="">
        <dc:format>image/svg+xml</dc:format>
        <dc:type
           rdf:resource="http://purl.org/dc/dcmitype/StillImage" />
        <dc:creator>
          <cc:Agent>
            <dc:title />
          </cc:Agent>
        </dc:creator>
        <dc:source />
        <cc:license
           rdf:resource="" />
        <dc:title />
        <dc:subject>
          <rdf:Bag />
        </dc:subject>
        <dc:date />
        <dc:rights>
          <cc:Agent>
            <dc:title />
          </cc:Agent>
        </dc:rights>
        <dc:publisher>
          <cc:Agent>
            <dc:title />
          </cc:Agent>
        </dc:publisher>
        <dc:identifier />
        <dc:relation />
        <dc:language />
        <dc:coverage />
        <dc:description />
        <dc:contributor>
          <cc:Agent>
            <dc:title />
          </cc:Agent>
        </dc:contributor>
      </cc:Work>
      <cc:Work
         rdf:about="">
        <dc:format>image/svg+xml</dc:format>
        <dc:type
           rdf:resource="http://purl.org/dc/dcmitype/StillImage" />
      </cc:Work>
    </rdf:RDF>
  </metadata>
  <g
     style="display:inline"
     inkscape:groupmode="layer"
     inkscape:label="Base"
     id="layer1"
     transform="translate(0,-280)">
    <path
       style="opacity:0.2;fill:#000000;fill-opacity:1;stroke:none"
       d="m 11,282 c -4.432,0 -8,3.568 -8,8 0,4.432 3.568,8 8,8 l 12,0 c 4.432,0 8,-3.568 8,-8 0,-4.432 -3.568,-8 -8,-8 l -12,0 z m 0,1 12,0 c 3.878,0 7,3.122 7,7 0,3.878 -3.122,7 -7,7 l -12,0 c -3.878,0 -7,-3.122 -7,-7 0,-3.878 3.122,-7 7,-7 z"
       id="rect4250"
       inkscape:connector-curvature="0" />
    <rect
       rx="7"
       style="opacity:0.7;fill:#e6e6e6;fill-opacity:1;stroke:none"
       id="rect4712"
       width="26"
       height="14"
       x="4"
       y="283"
       ry="7" />
    <path
       inkscape:connector-curvature="0"
       id="path4257"
       d="m 20,290 c 0,4.97056 -4.029438,9 -9,9 -4.9705627,0 -9,-4.02944 -9,-9 0,-4.97056 4.0294373,-9 9,-9 4.970562,0 9,4.02944 9,9 z"
       style="opacity:0.02000002;fill:#000000;fill-opacity:1;stroke:none" />
    <path
       inkscape:connector-curvature="0"
       id="path4255"
       d="m 19,290 c 0,4.41827 -3.581722,8 -8,8 -4.4182779,0 -8,-3.58173 -8,-8 0,-4.41827 3.5817221,-8 8,-8 4.418278,0 8,3.58173 8,8 z"
       style="opacity:0.11;fill:#000000;fill-opacity:1;stroke:none" />
    <path
       style="opacity:0.1;fill:#000000;fill-opacity:1;stroke:none"
       d="m 18,292 c 0,3.86599 -3.134007,7 -7,7 -3.8659932,0 -7,-3.13401 -7,-7 0,-3.86599 3.1340068,-7 7,-7 3.865993,0 7,3.13401 7,7 z"
       id="path4261"
       inkscape:connector-curvature="0" />
    <path
       inkscape:connector-curvature="0"
       id="path4259"
       d="m 18,291 c 0,3.86599 -3.134007,7 -7,7 -3.8659932,0 -7,-3.13401 -7,-7 0,-3.86599 3.1340068,-7 7,-7 3.865993,0 7,3.13401 7,7 z"
       style="opacity:0.1;fill:#000000;fill-opacity:1;stroke:none" />
    <path
       style="opacity:0.06;fill:#000000;fill-opacity:1;stroke:none"
       d="m 11,283 c -3.878,0 -7,3.122 -7,7 0,0.16908 0.013717,0.33399 0.025391,0.5 C 4.2814602,286.85843 7.2910825,284 11,284 l 12,0 c 3.708918,0 6.71854,2.85843 6.974609,6.5 C 29.986283,290.33399 30,290.16908 30,290 c 0,-3.878 -3.122,-7 -7,-7 l -12,0 z"
       id="rect4263"
       inkscape:connector-curvature="0" />
    <path
       inkscape:connector-curvature="0"
       id="path4443"
       d="m 18,293 c 0,3.86599 -3.134007,7 -7,7 -3.8659932,0 -7,-3.13401 -7,-7 0,-3.86599 3.1340068,-7 7,-7 3.865993,0 7,3.13401 7,7 z"
       style="opacity:0.02;fill:#000000;fill-opacity:1;stroke:none" />
    <path
       style="opacity:0.03999999;fill:#000000;fill-opacity:1;stroke:none"
       d="M 4.0253906,289.5 C 4.0137169,289.66601 4,289.83092 4,290 c 0,3.878 3.122,7 7,7 l 12,0 c 3.878,0 7,-3.122 7,-7 0,-0.16908 -0.01372,-0.33399 -0.02539,-0.5 C 29.71854,293.14157 26.708918,296 23,296 l -12,0 c -3.7089175,0 -6.7185398,-2.85843 -6.9746094,-6.5 z"
       id="rect4273"
       inkscape:connector-curvature="0" />
    <path
       style="fill:#fafafa;fill-opacity:1;stroke:none"
       d="m 18,290 c 0,3.86599 -3.134007,7 -7,7 -3.8659932,0 -7,-3.13401 -7,-7 0,-3.86599 3.1340068,-7 7,-7 3.865993,0 7,3.13401 7,7 z"
       id="path4442-4-2"
       inkscape:connector-curvature="0" />
  </g>
</svg>
