<?xml version="1.0" encoding="UTF-8" standalone="no"?>
<!-- Created with Inkscape (http://www.inkscape.org/) -->

<svg
   xmlns:dc="http://purl.org/dc/elements/1.1/"
   xmlns:cc="http://creativecommons.org/ns#"
   xmlns:rdf="http://www.w3.org/1999/02/22-rdf-syntax-ns#"
   xmlns:svg="http://www.w3.org/2000/svg"
   xmlns="http://www.w3.org/2000/svg"
   xmlns:sodipodi="http://sodipodi.sourceforge.net/DTD/sodipodi-0.dtd"
   xmlns:inkscape="http://www.inkscape.org/namespaces/inkscape"
   inkscape:export-ydpi="90.000000"
   inkscape:export-xdpi="90.000000"
   width="17"
   height="17"
   id="svg11300"
   sodipodi:version="0.32"
   inkscape:version="0.91 r13725"
   sodipodi:docname="radiobutton-focused-checked.svg"
   inkscape:output_extension="org.inkscape.output.svg.inkscape"
   version="1.0"
   style="display:inline;enable-background:new">
  <sodipodi:namedview
     stroke="#ef2929"
     fill="#f57900"
     id="base"
     pagecolor="#8c8c8c"
     bordercolor="#ff5e00"
     borderopacity="1"
     inkscape:pageopacity="1"
     inkscape:pageshadow="2"
     inkscape:zoom="21.21875"
     inkscape:cx="4.7885734"
     inkscape:cy="2.3446244"
     inkscape:current-layer="layer1"
     showgrid="true"
     inkscape:grid-bbox="true"
     inkscape:document-units="px"
     inkscape:showpageshadow="false"
     inkscape:window-width="1600"
     inkscape:window-height="851"
     inkscape:window-x="0"
     inkscape:window-y="24"
     width="400px"
     height="300px"
     inkscape:snap-nodes="true"
     inkscape:snap-bbox="true"
     gridtolerance="10000"
     inkscape:object-nodes="false"
     inkscape:snap-grids="true"
     showguides="true"
     inkscape:guide-bbox="true"
     inkscape:window-maximized="1"
     inkscape:bbox-nodes="true"
     inkscape:bbox-paths="false"
     inkscape:snap-bbox-edge-midpoints="false"
     inkscape:snap-bbox-midpoints="false"
     objecttolerance="10000"
     guidetolerance="10000"
     borderlayer="true"
     showborder="true"
     guidecolor="#ff0b00"
     guideopacity="1"
     guidehicolor="#001aff"
     guidehiopacity="0.49803922"
     inkscape:snap-intersection-paths="false"
     inkscape:snap-midpoints="false"
     inkscape:snap-smooth-nodes="false"
     inkscape:object-paths="false">
    <inkscape:grid
       type="xygrid"
       id="grid3123"
       empspacing="4"
       visible="true"
       enabled="true"
       snapvisiblegridlinesonly="true" />
  </sodipodi:namedview>
  <defs
     id="defs3" />
  <metadata
     id="metadata4">
    <rdf:RDF>
      <cc:Work
         rdf:about="">
        <dc:format>image/svg+xml</dc:format>
        <dc:type
           rdf:resource="http://purl.org/dc/dcmitype/StillImage" />
        <dc:creator>
          <cc:Agent>
            <dc:title />
          </cc:Agent>
        </dc:creator>
        <dc:source />
        <cc:license
           rdf:resource="" />
        <dc:title />
        <dc:subject>
          <rdf:Bag />
        </dc:subject>
        <dc:date />
        <dc:rights>
          <cc:Agent>
            <dc:title />
          </cc:Agent>
        </dc:rights>
        <dc:publisher>
          <cc:Agent>
            <dc:title />
          </cc:Agent>
        </dc:publisher>
        <dc:identifier />
        <dc:relation />
        <dc:language />
        <dc:coverage />
        <dc:description />
        <dc:contributor>
          <cc:Agent>
            <dc:title />
          </cc:Agent>
        </dc:contributor>
      </cc:Work>
      <cc:Work
         rdf:about="">
        <dc:format>image/svg+xml</dc:format>
        <dc:type
           rdf:resource="http://purl.org/dc/dcmitype/StillImage" />
      </cc:Work>
    </rdf:RDF>
  </metadata>
  <g
     style="display:inline"
     inkscape:groupmode="layer"
     inkscape:label="Base"
     id="layer1"
     transform="translate(0,-283)">
    <path
       style="display:inline;opacity:0.03999999;fill:#336699;fill-opacity:1;stroke:none;enable-background:new"
       d="m 14,291.5 c 0,-3.03757 -2.46243,-5.5 -5.5,-5.5 -3.03757,0 -5.5,2.46243 -5.5,5.5 0,3.03757 2.46243,5.5 5.5,5.5 3.03757,0 5.5,-2.46243 5.5,-5.5 z m -1,0 c 0,2.48528 -2.01472,4.5 -4.5,4.5 -2.48528,0 -4.5,-2.01472 -4.5,-4.5 0,-2.48528 2.01472,-4.5 4.5,-4.5 2.48528,0 4.5,2.01472 4.5,4.5 z"
       id="path3731-0"
       inkscape:connector-curvature="0" />
    <circle
       style="opacity:1;fill:#83a7c7;fill-opacity:1;stroke:none"
       id="path3681"
       cx="8.5"
       cy="291.5"
       r="6.5" />
    <path
       style="opacity:0.7;fill:#275379;fill-opacity:1;stroke:none"
       d="m 8.5,284 c -4.142134,0 -7.5,3.35787 -7.5,7.5 0,4.14213 3.357866,7.5 7.5,7.5 4.142134,0 7.5,-3.35787 7.5,-7.5 0,-4.14213 -3.357866,-7.5 -7.5,-7.5 z m 0,1 c 3.589851,0 6.5,2.91015 6.5,6.5 0,3.58985 -2.910149,6.5 -6.5,6.5 C 4.9101492,298 2,295.08985 2,291.5 2,287.91015 4.9101492,285 8.5,285 Z"
       id="path3694"
       inkscape:connector-curvature="0" />
    <path
       style="opacity:0.04;fill:#00344c;fill-opacity:1;stroke:none"
       d="M 8.5 0 A 8.5 8.5 0 0 0 0 8.5 A 8.5 8.5 0 0 0 8.5 17 A 8.5 8.5 0 0 0 17 8.5 A 8.5 8.5 0 0 0 8.5 0 z M 8.5 1 A 7.5 7.5 0 0 1 16 8.5 A 7.5 7.5 0 0 1 8.5 16 A 7.5 7.5 0 0 1 1 8.5 A 7.5 7.5 0 0 1 8.5 1 z "
       id="circle5997"
       transform="translate(0,283)" />
    <ellipse
       id="path3025"
       style="display:inline;opacity:0.7;fill:#275379;fill-opacity:1;stroke:none;enable-background:new"
       cx="8.5"
       cy="291.5"
       rx="4.5"
       ry="4.4999986" />
    <ellipse
       style="display:inline;opacity:1;fill:#ffffff;fill-opacity:1;stroke:none;enable-background:new"
       id="path4697"
       cx="8.5"
       cy="291.5"
       rx="3.5000041"
       ry="3.5000029" />
  </g>
</svg>
