<?xml version="1.0" encoding="UTF-8" standalone="no"?>
<!-- Created with Inkscape (http://www.inkscape.org/) -->

<svg
   xmlns:dc="http://purl.org/dc/elements/1.1/"
   xmlns:cc="http://creativecommons.org/ns#"
   xmlns:rdf="http://www.w3.org/1999/02/22-rdf-syntax-ns#"
   xmlns:svg="http://www.w3.org/2000/svg"
   xmlns="http://www.w3.org/2000/svg"
   xmlns:inkscape="http://www.inkscape.org/namespaces/inkscape"
   version="1.1"
   width="100%"
   height="100%"
   viewBox="0 0 512 512"
   id="svg2">
  <metadata
     id="metadata178">
    <rdf:RDF>
      <cc:Work
         rdf:about="">
        <dc:format>image/svg+xml</dc:format>
        <dc:type
           rdf:resource="http://purl.org/dc/dcmitype/StillImage" />
      </cc:Work>
    </rdf:RDF>
  </metadata>
  <defs
     id="defs176" />
  <text
     x="729.64001"
     y="231.36"
     id="text4"
     style="font-size:129.22999573px;line-height:125%;letter-spacing:0;word-spacing:0;font-family:Gentium Book Basic">
    <tspan
       x="729.64001"
       y="231.36"
       id="tspan6" />
  </text>
  <text
     x="378.91"
     y="579.25"
     transform="scale(4.0128,0.2492)"
     id="text8"
     style="font-size:46.95399857px;text-anchor:middle;font-family:Arial" />
  <text
     x="1310.91"
     y="151.36"
     id="text10"
     style="font-size:129.22999573px;line-height:125%;letter-spacing:0;word-spacing:0;font-family:Gentium Book Basic">
    <tspan
       x="1310.91"
       y="151.36"
       id="tspan12" />
  </text>
  <text
     x="523.76001"
     y="258.22"
     transform="scale(4.0128,0.2492)"
     id="text14"
     style="font-size:46.95399857px;text-anchor:middle;font-family:Arial" />
  <text
     x="239.33"
     y="-29.900999"
     id="text16"
     style="font-size:129.22999573px;line-height:125%;letter-spacing:0;word-spacing:0;font-family:Gentium Book Basic">
    <tspan
       x="239.33"
       y="-29.900999"
       id="tspan18" />
  </text>
  <text
     x="256.72"
     y="-469.14001"
     transform="scale(4.0128,0.2492)"
     id="text20"
     style="font-size:46.95399857px;text-anchor:middle;font-family:Arial" />
  <text
     x="1337.38"
     y="-246.37"
     id="text22"
     style="font-size:129.22999573px;line-height:125%;letter-spacing:0;word-spacing:0;font-family:Gentium Book Basic">
    <tspan
       x="1337.38"
       y="-246.37"
       id="tspan24" />
  </text>
  <text
     x="530.35999"
     y="-1337.8101"
     transform="scale(4.0128,0.2492)"
     id="text26"
     style="font-size:46.95399857px;text-anchor:middle;font-family:Arial" />
  <text
     x="1918.65"
     y="-326.38"
     id="text28"
     style="font-size:129.22999573px;line-height:125%;letter-spacing:0;word-spacing:0;font-family:Gentium Book Basic">
    <tspan
       x="1918.65"
       y="-326.38"
       id="tspan30" />
  </text>
  <text
     x="675.21002"
     y="-1658.85"
     transform="scale(4.0128,0.2492)"
     id="text32"
     style="font-size:46.95399857px;text-anchor:middle;font-family:Arial" />
  <text
     x="1529.53"
     y="-798.78003"
     id="text34"
     style="font-size:129.22999573px;line-height:125%;letter-spacing:0;word-spacing:0;font-family:Gentium Book Basic">
    <tspan
       x="1529.53"
       y="-798.78003"
       id="tspan36" />
  </text>
  <text
     x="578.23999"
     y="-3554.51"
     transform="scale(4.0128,0.2492)"
     id="text38"
     style="font-size:46.95399857px;text-anchor:middle;font-family:Arial" />
  <text
     x="2110.79"
     y="-878.78003"
     id="text40"
     style="font-size:129.22999573px;line-height:125%;letter-spacing:0;word-spacing:0;font-family:Gentium Book Basic">
    <tspan
       x="2110.79"
       y="-878.78003"
       id="tspan42" />
  </text>
  <text
     x="723.09003"
     y="-3875.54"
     transform="scale(4.0128,0.2492)"
     id="text44"
     style="font-size:46.95399857px;text-anchor:middle;font-family:Arial" />
  <g
     id="g46"
     style="line-height:125%;letter-spacing:0;word-spacing:0;font-family:Gentium Book Basic">
    <text
       x="277.98999"
       y="535.94"
       id="text48"
       style="font-size:208.33000183px">
      <tspan
         x="277.98999"
         y="535.94"
         id="tspan50" />
    </text>
    <text
       x="729.64001"
       y="231.36"
       id="text52"
       style="font-size:129.22999573px">
      <tspan
         x="729.64001"
         y="231.36"
         id="tspan54" />
    </text>
  </g>
  <text
     x="378.91"
     y="579.26001"
     transform="scale(4.0128,0.2492)"
     id="text56"
     style="font-size:46.95399857px;text-anchor:middle;font-family:Arial" />
  <text
     x="1310.91"
     y="151.36"
     id="text58"
     style="font-size:129.22999573px;line-height:125%;letter-spacing:0;word-spacing:0;font-family:Gentium Book Basic">
    <tspan
       x="1310.91"
       y="151.36"
       id="tspan60" />
  </text>
  <text
     x="523.76001"
     y="258.22"
     transform="scale(4.0128,0.2492)"
     id="text62"
     style="font-size:46.95399857px;text-anchor:middle;font-family:Arial" />
  <text
     x="239.33"
     y="-29.9"
     id="text64"
     style="font-size:129.22999573px;line-height:125%;letter-spacing:0;word-spacing:0;font-family:Gentium Book Basic">
    <tspan
       x="239.33"
       y="-29.9"
       id="tspan66" />
  </text>
  <text
     x="256.72"
     y="-469.13"
     transform="scale(4.0128,0.2492)"
     id="text68"
     style="font-size:46.95399857px;text-anchor:middle;font-family:Arial" />
  <text
     x="1337.38"
     y="-246.37"
     id="text70"
     style="font-size:129.22999573px;line-height:125%;letter-spacing:0;word-spacing:0;font-family:Gentium Book Basic">
    <tspan
       x="1337.38"
       y="-246.37"
       id="tspan72" />
  </text>
  <text
     x="530.35999"
     y="-1337.8"
     transform="scale(4.0128,0.2492)"
     id="text74"
     style="font-size:46.95399857px;text-anchor:middle;font-family:Arial" />
  <text
     x="1918.65"
     y="-326.37"
     id="text76"
     style="font-size:129.22999573px;line-height:125%;letter-spacing:0;word-spacing:0;font-family:Gentium Book Basic">
    <tspan
       x="1918.65"
       y="-326.37"
       id="tspan78" />
  </text>
  <text
     x="675.21002"
     y="-1658.83"
     transform="scale(4.0128,0.2492)"
     id="text80"
     style="font-size:46.95399857px;text-anchor:middle;font-family:Arial" />
  <text
     x="1529.53"
     y="-798.77002"
     id="text82"
     style="font-size:129.22999573px;line-height:125%;letter-spacing:0;word-spacing:0;font-family:Gentium Book Basic">
    <tspan
       x="1529.53"
       y="-798.77002"
       id="tspan84" />
  </text>
  <text
     x="578.23999"
     y="-3554.48"
     transform="scale(4.0128,0.2492)"
     id="text86"
     style="font-size:46.95399857px;text-anchor:middle;font-family:Arial" />
  <text
     x="2110.79"
     y="-878.78003"
     id="text88"
     style="font-size:129.22999573px;line-height:125%;letter-spacing:0;word-spacing:0;font-family:Gentium Book Basic">
    <tspan
       x="2110.79"
       y="-878.78003"
       id="tspan90" />
  </text>
  <text
     x="723.09003"
     y="-3875.52"
     transform="scale(4.0128,0.2492)"
     id="text92"
     style="font-size:46.95399857px;text-anchor:middle;font-family:Arial" />
  <text
     x="277.98999"
     y="535.94"
     id="text94"
     style="font-size:208.33000183px;line-height:125%;letter-spacing:0;word-spacing:0;font-family:Gentium Book Basic">
    <tspan
       x="277.98999"
       y="535.94"
       id="tspan96" />
  </text>
  <path
     d="m 471.95,253.05 c 0,120.9 -98.01,218.9 -218.9,218.9 -120.9,0 -218.9,-98.01 -218.9,-218.9 0,-120.9 98.01,-218.9 218.9,-218.9 120.9,0 218.9,98.01 218.9,218.9"
     inkscape:connector-curvature="0"
     id="path98"
     style="fill:#ffda71;fill-rule:evenodd" />
  <path
     d="m 136.71,136.71 c -8.983,0 -16.273,7.29 -16.273,16.273 v 206.06 c 0,4.777 2.075,9.05 5.355,12.03 0.356,0.391 0.721,0.757 1.112,1.113 0.35,0.385 0.693,0.762 1.078,1.112 0.328,0.361 0.686,0.713 1.043,1.043 0.391,0.435 0.816,0.86 1.252,1.252 0.366,0.397 0.744,0.788 1.147,1.147 0.32,0.345 0.659,0.657 1.01,0.973 0.356,0.391 0.721,0.757 1.112,1.113 0.316,0.349 0.628,0.689 0.973,1.01 0.359,0.404 0.75,0.782 1.147,1.147 0.391,0.435 0.816,0.86 1.252,1.252 0.366,0.397 0.744,0.788 1.147,1.147 0.32,0.345 0.659,0.657 1.01,0.973 0.356,0.391 0.721,0.757 1.112,1.113 0.316,0.349 0.628,0.689 0.973,1.01 0.359,0.404 0.75,0.782 1.147,1.147 0.391,0.435 0.816,0.86 1.252,1.252 0.324,0.353 0.689,0.686 1.043,1.01 0.391,0.431 0.783,0.866 1.217,1.252 0.32,0.345 0.659,0.657 1.01,0.973 0.316,0.349 0.628,0.689 0.973,1.01 0.387,0.434 0.821,0.826 1.252,1.217 0.322,0.355 0.656,0.718 1.01,1.043 0.391,0.435 0.816,0.86 1.252,1.252 0.366,0.397 0.744,0.788 1.147,1.147 0.32,0.345 0.659,0.657 1.01,0.973 0.356,0.391 0.721,0.757 1.112,1.112 0.316,0.349 0.628,0.689 0.973,1.01 0.359,0.404 0.75,0.782 1.147,1.147 0.391,0.435 0.816,0.86 1.252,1.252 0.366,0.397 0.744,0.788 1.147,1.147 0.32,0.345 0.659,0.657 1.01,0.973 0.356,0.391 0.721,0.757 1.113,1.113 0.316,0.349 0.628,0.689 0.973,1.01 0.359,0.403 0.75,0.782 1.147,1.147 0.391,0.435 0.816,0.86 1.252,1.252 0.33,0.358 0.682,0.716 1.043,1.043 0.351,0.385 0.727,0.728 1.113,1.078 0.356,0.391 0.721,0.757 1.113,1.112 0.316,0.349 0.628,0.689 0.973,1.01 0.359,0.404 0.75,0.782 1.147,1.147 0.391,0.435 0.816,0.86 1.252,1.252 0.324,0.353 0.689,0.685 1.043,1.01 0.391,0.431 0.783,0.866 1.217,1.252 0.32,0.345 0.659,0.657 1.01,0.973 0.356,0.391 0.721,0.757 1.112,1.112 0.356,0.391 0.721,0.757 1.113,1.113 0.322,0.355 0.656,0.718 1.01,1.043 0.391,0.435 0.816,0.86 1.252,1.252 0.366,0.397 0.744,0.788 1.147,1.147 0.32,0.345 0.659,0.657 1.01,0.973 0.356,0.391 0.721,0.757 1.113,1.113 0.316,0.349 0.628,0.689 0.973,1.01 0.359,0.404 0.75,0.782 1.147,1.147 0.391,0.435 0.816,0.86 1.252,1.252 0.366,0.397 0.744,0.788 1.147,1.147 0.32,0.345 0.659,0.657 1.01,0.973 0.356,0.391 0.721,0.757 1.112,1.112 0.316,0.349 0.628,0.689 0.973,1.01 0.359,0.404 0.75,0.782 1.147,1.147 0.391,0.435 0.816,0.86 1.252,1.252 0.33,0.358 0.682,0.716 1.043,1.043 0.386,0.424 0.789,0.836 1.217,1.217 0.32,0.345 0.659,0.657 1.01,0.973 0.316,0.349 0.628,0.689 0.973,1.01 0.381,0.428 0.793,0.831 1.217,1.217 0.328,0.361 0.685,0.713 1.043,1.043 0.391,0.435 0.816,0.86 1.252,1.252 0.366,0.397 0.744,0.788 1.147,1.147 0.32,0.345 0.659,0.657 1.01,0.973 0.356,0.391 0.721,0.757 1.113,1.113 0.316,0.349 0.628,0.689 0.973,1.01 0.359,0.404 0.75,0.782 1.147,1.147 0.391,0.435 0.816,0.86 1.252,1.252 0.366,0.397 0.744,0.788 1.147,1.147 0.32,0.345 0.659,0.657 1.01,0.973 0.356,0.391 0.721,0.757 1.112,1.112 0.316,0.349 0.628,0.689 0.973,1.01 0.359,0.404 0.75,0.782 1.147,1.147 0.391,0.435 0.816,0.86 1.252,1.252 0.324,0.353 0.689,0.685 1.043,1.01 0.356,0.391 0.721,0.757 1.113,1.113 0.356,0.391 0.721,0.757 1.112,1.112 0.316,0.349 0.628,0.689 0.973,1.01 0.359,0.403 0.75,0.782 1.147,1.147 0.391,0.435 0.816,0.86 1.252,1.252 0.33,0.358 0.682,0.716 1.043,1.043 0.386,0.424 0.789,0.836 1.217,1.217 0.32,0.345 0.659,0.657 1.01,0.973 0.356,0.391 0.721,0.757 1.113,1.112 0.35,0.385 0.693,0.762 1.078,1.113 0.328,0.361 0.685,0.713 1.043,1.043 0.391,0.435 0.816,0.86 1.252,1.252 0.366,0.397 0.744,0.788 1.147,1.147 0.32,0.345 0.659,0.657 1.01,0.973 0.356,0.391 0.721,0.757 1.112,1.113 0.316,0.349 0.628,0.689 0.973,1.01 0.359,0.403 0.75,0.782 1.147,1.147 0.391,0.435 0.816,0.86 1.252,1.252 0.366,0.397 0.744,0.788 1.147,1.147 0.32,0.345 0.659,0.657 1.01,0.973 0.356,0.391 0.721,0.757 1.113,1.113 0.316,0.349 0.628,0.689 0.973,1.01 0.359,0.403 0.75,0.782 1.147,1.147 0.391,0.435 0.816,0.86 1.252,1.252 0.324,0.353 0.689,0.686 1.043,1.01 0.391,0.431 0.783,0.865 1.217,1.252 0.32,0.345 0.659,0.657 1.01,0.973 0.316,0.349 0.628,0.689 0.973,1.01 0.387,0.434 0.821,0.826 1.252,1.217 0.322,0.355 0.656,0.718 1.01,1.043 0.391,0.435 0.816,0.86 1.252,1.252 0.366,0.397 0.744,0.788 1.147,1.147 0.32,0.345 0.659,0.657 1.01,0.973 0.034,0.037 0.071,0.068 0.105,0.105 0.571,0.004 1.131,0.035 1.704,0.035 134.52,0 243.58,-109.05 243.58,-243.58 0,-0.592 -0.03,-1.182 -0.035,-1.773 -0.098,-0.098 -0.175,-0.218 -0.278,-0.313 -0.359,-0.403 -0.75,-0.782 -1.147,-1.147 -0.369,-0.411 -0.773,-0.81 -1.183,-1.183 -0.408,-0.449 -0.831,-0.885 -1.286,-1.286 -0.336,-0.358 -0.677,-0.717 -1.043,-1.043 -0.32,-0.345 -0.659,-0.657 -1.01,-0.973 -0.316,-0.349 -0.628,-0.689 -0.973,-1.01 -0.359,-0.403 -0.75,-0.782 -1.147,-1.147 -0.369,-0.411 -0.773,-0.81 -1.183,-1.183 -0.372,-0.409 -0.771,-0.813 -1.183,-1.183 -0.366,-0.397 -0.744,-0.788 -1.147,-1.147 -0.32,-0.345 -0.659,-0.657 -1.01,-0.973 -0.316,-0.349 -0.628,-0.689 -0.973,-1.01 -0.349,-0.391 -0.728,-0.757 -1.113,-1.112 -0.359,-0.403 -0.75,-0.782 -1.147,-1.147 -0.391,-0.435 -0.816,-0.86 -1.252,-1.252 -0.366,-0.397 -0.744,-0.788 -1.147,-1.147 -0.32,-0.345 -0.659,-0.657 -1.01,-0.973 -0.356,-0.391 -0.721,-0.757 -1.113,-1.113 -0.316,-0.349 -0.628,-0.689 -0.973,-1.01 -0.359,-0.403 -0.75,-0.782 -1.147,-1.147 -0.391,-0.435 -0.816,-0.86 -1.252,-1.252 -0.366,-0.397 -0.744,-0.788 -1.147,-1.147 -0.356,-0.384 -0.721,-0.765 -1.113,-1.112 -0.32,-0.345 -0.659,-0.657 -1.01,-0.973 -0.316,-0.349 -0.628,-0.689 -0.973,-1.01 -0.359,-0.403 -0.75,-0.782 -1.147,-1.147 -0.369,-0.411 -0.773,-0.81 -1.183,-1.183 -0.372,-0.409 -0.771,-0.813 -1.183,-1.183 -0.366,-0.397 -0.744,-0.788 -1.147,-1.147 -0.32,-0.345 -0.659,-0.657 -1.01,-0.973 -0.316,-0.349 -0.628,-0.689 -0.973,-1.01 -0.349,-0.391 -0.728,-0.757 -1.113,-1.112 -0.359,-0.403 -0.75,-0.782 -1.147,-1.147 -0.391,-0.435 -0.816,-0.86 -1.252,-1.252 -0.366,-0.397 -0.744,-0.788 -1.147,-1.147 -0.32,-0.345 -0.659,-0.657 -1.01,-0.973 -0.356,-0.391 -0.721,-0.757 -1.112,-1.113 -0.316,-0.349 -0.628,-0.689 -0.973,-1.01 -0.359,-0.403 -0.75,-0.782 -1.147,-1.147 -0.391,-0.435 -0.816,-0.86 -1.252,-1.252 -0.366,-0.397 -0.744,-0.788 -1.147,-1.147 -0.32,-0.345 -0.659,-0.657 -1.01,-0.973 -0.356,-0.391 -0.721,-0.757 -1.113,-1.113 -0.316,-0.349 -0.628,-0.689 -0.973,-1.01 -0.359,-0.403 -0.75,-0.782 -1.147,-1.147 -0.391,-0.435 -0.816,-0.86 -1.252,-1.252 -0.366,-0.397 -0.744,-0.788 -1.147,-1.147 -0.356,-0.384 -0.721,-0.765 -1.112,-1.113 -0.32,-0.345 -0.659,-0.657 -1.01,-0.973 -0.316,-0.349 -0.628,-0.689 -0.973,-1.01 -0.359,-0.403 -0.75,-0.782 -1.147,-1.147 -0.369,-0.411 -0.773,-0.81 -1.183,-1.183 -0.372,-0.409 -0.771,-0.813 -1.183,-1.183 -0.366,-0.397 -0.744,-0.788 -1.147,-1.147 -0.32,-0.345 -0.659,-0.657 -1.01,-0.973 -0.316,-0.349 -0.628,-0.689 -0.973,-1.01 -0.349,-0.391 -0.728,-0.757 -1.113,-1.113 -0.359,-0.403 -0.75,-0.782 -1.147,-1.147 -0.391,-0.435 -0.816,-0.86 -1.252,-1.252 -0.366,-0.397 -0.744,-0.788 -1.147,-1.147 -0.32,-0.345 -0.659,-0.657 -1.01,-0.973 -0.356,-0.391 -0.721,-0.757 -1.113,-1.113 -0.316,-0.349 -0.628,-0.689 -0.973,-1.01 -0.359,-0.403 -0.75,-0.782 -1.147,-1.147 -0.391,-0.435 -0.816,-0.86 -1.252,-1.252 -0.366,-0.397 -0.744,-0.788 -1.147,-1.147 -0.32,-0.345 -0.659,-0.657 -1.01,-0.973 -0.356,-0.391 -0.721,-0.757 -1.112,-1.112 -0.316,-0.349 -0.628,-0.689 -0.973,-1.01 -0.359,-0.403 -0.75,-0.782 -1.147,-1.147 -0.369,-0.411 -0.773,-0.81 -1.183,-1.183 -0.372,-0.409 -0.771,-0.813 -1.183,-1.183 -0.366,-0.397 -0.744,-0.788 -1.147,-1.147 -0.32,-0.345 -0.659,-0.657 -1.01,-0.973 -0.316,-0.349 -0.628,-0.689 -0.973,-1.01 -0.359,-0.403 -0.75,-0.782 -1.147,-1.147 -0.369,-0.411 -0.773,-0.81 -1.183,-1.183 -0.372,-0.409 -0.771,-0.813 -1.183,-1.183 -0.366,-0.397 -0.744,-0.788 -1.147,-1.147 -0.32,-0.345 -0.659,-0.657 -1.01,-0.973 -0.356,-0.391 -0.721,-0.757 -1.113,-1.113 -0.316,-0.349 -0.628,-0.689 -0.973,-1.01 -0.359,-0.403 -0.75,-0.782 -1.147,-1.147 -0.391,-0.435 -0.816,-0.86 -1.252,-1.252 -0.366,-0.397 -0.744,-0.788 -1.147,-1.147 -0.32,-0.345 -0.659,-0.657 -1.01,-0.973 -0.356,-0.391 -0.721,-0.757 -1.112,-1.113 -0.316,-0.349 -0.628,-0.689 -0.973,-1.01 -0.359,-0.403 -0.75,-0.782 -1.147,-1.147 -0.391,-0.435 -0.816,-0.86 -1.252,-1.252 -0.366,-0.397 -0.744,-0.788 -1.147,-1.147 -0.356,-0.384 -0.721,-0.765 -1.113,-1.112 -0.32,-0.345 -0.659,-0.657 -1.01,-0.973 -0.316,-0.349 -0.628,-0.689 -0.973,-1.01 -0.359,-0.403 -0.75,-0.782 -1.147,-1.147 -0.369,-0.411 -0.773,-0.81 -1.183,-1.183 -0.372,-0.409 -0.771,-0.813 -1.183,-1.183 -0.366,-0.397 -0.744,-0.788 -1.147,-1.147 -2.97,-3.205 -7.211,-5.216 -11.927,-5.216 h -238.61"
     inkscape:connector-curvature="0"
     id="path100"
     style="fill-opacity:0.23500001" />
  <g
     id="g102"
     style="fill-rule:evenodd">
    <path
       d="M 256,1 C 115.17,1 1,115.17 1,256 1,396.83 115.17,511 256,511 396.83,511 511,396.83 511,256 511,115.17 396.83,1 256,1 m 8.827,44.931 c 120.9,0 218.9,98 218.9,218.9 0,120.9 -98,218.9 -218.9,218.9 -120.9,0 -218.93,-98 -218.93,-218.9 0,-120.9 98.03,-218.9 218.93,-218.9"
       inkscape:connector-curvature="0"
       id="path104"
       style="fill-opacity:0.06700003" />
    <g
       id="g106"
       style="fill-opacity:0.12900002">
      <path
         d="m 256,4.433 c -138.94,0 -251.57,112.63 -251.57,251.57 0,138.94 112.63,251.57 251.57,251.57 138.94,0 251.57,-112.63 251.57,-251.57 C 507.57,117.063 394.94,4.433 256,4.433 m 5.885,38.556 c 120.9,0 218.9,98 218.9,218.9 0,120.9 -98,218.9 -218.9,218.9 -120.9,0 -218.93,-98 -218.93,-218.9 0,-120.9 98.03,-218.9 218.93,-218.9"
         inkscape:connector-curvature="0"
         id="path108" />
      <path
         d="m 256,8.356 c -136.77,0 -247.64,110.87 -247.64,247.64 0,136.77 110.87,247.64 247.64,247.64 136.77,0 247.64,-110.87 247.64,-247.64 C 503.64,119.226 392.77,8.356 256,8.356 m 2.942,31.691 c 120.9,0 218.9,98 218.9,218.9 0,120.9 -98,218.9 -218.9,218.9 -120.9,0 -218.93,-98 -218.93,-218.9 0,-120.9 98.03,-218.9 218.93,-218.9"
         inkscape:connector-curvature="0"
         id="path110" />
    </g>
    <path
       d="m 253.04,7.859 c -135.42,0 -245.19,109.78 -245.19,245.19 0,135.42 109.78,245.19 245.19,245.19 135.42,0 245.19,-109.78 245.19,-245.19 0,-135.42 -109.78,-245.19 -245.19,-245.19 z m 0,26.297 c 120.9,0 218.9,98 218.9,218.9 0,120.9 -98,218.9 -218.9,218.9 -120.9,0 -218.93,-98 -218.93,-218.9 0,-120.9 98.03,-218.9 218.93,-218.9 z"
       inkscape:connector-curvature="0"
       id="path112"
       style="fill:#ffffff;stroke:#000000;stroke-width:4.90399981;stroke-opacity:0.31000001" />
  </g>
  <text
     x="729.64001"
     y="231.36"
     id="text114"
     style="font-size:129.22999573px;line-height:125%;letter-spacing:0;word-spacing:0;font-family:Gentium Book Basic">
    <tspan
       x="729.64001"
       y="231.36"
       id="tspan116" />
  </text>
  <text
     x="378.91"
     y="579.25"
     transform="scale(4.0128,0.2492)"
     id="text118"
     style="font-size:46.95399857px;text-anchor:middle;font-family:Arial" />
  <text
     x="1310.91"
     y="151.36"
     id="text120"
     style="font-size:129.22999573px;line-height:125%;letter-spacing:0;word-spacing:0;font-family:Gentium Book Basic">
    <tspan
       x="1310.91"
       y="151.36"
       id="tspan122" />
  </text>
  <text
     x="523.76001"
     y="258.22"
     transform="scale(4.0128,0.2492)"
     id="text124"
     style="font-size:46.95399857px;text-anchor:middle;font-family:Arial" />
  <text
     x="239.33"
     y="-29.900999"
     id="text126"
     style="font-size:129.22999573px;line-height:125%;letter-spacing:0;word-spacing:0;font-family:Gentium Book Basic">
    <tspan
       x="239.33"
       y="-29.900999"
       id="tspan128" />
  </text>
  <text
     x="256.72"
     y="-469.14001"
     transform="scale(4.0128,0.2492)"
     id="text130"
     style="font-size:46.95399857px;text-anchor:middle;font-family:Arial" />
  <text
     x="1337.38"
     y="-246.37"
     id="text132"
     style="font-size:129.22999573px;line-height:125%;letter-spacing:0;word-spacing:0;font-family:Gentium Book Basic">
    <tspan
       x="1337.38"
       y="-246.37"
       id="tspan134" />
  </text>
  <text
     x="530.35999"
     y="-1337.8"
     transform="scale(4.0128,0.2492)"
     id="text136"
     style="font-size:46.95399857px;text-anchor:middle;font-family:Arial" />
  <text
     x="1918.65"
     y="-326.38"
     id="text138"
     style="font-size:129.22999573px;line-height:125%;letter-spacing:0;word-spacing:0;font-family:Gentium Book Basic">
    <tspan
       x="1918.65"
       y="-326.38"
       id="tspan140" />
  </text>
  <text
     x="675.21002"
     y="-1658.84"
     transform="scale(4.0128,0.2492)"
     id="text142"
     style="font-size:46.95399857px;text-anchor:middle;font-family:Arial" />
  <text
     x="1529.53"
     y="-798.78003"
     id="text144"
     style="font-size:129.22999573px;line-height:125%;letter-spacing:0;word-spacing:0;font-family:Gentium Book Basic">
    <tspan
       x="1529.53"
       y="-798.78003"
       id="tspan146" />
  </text>
  <text
     x="578.23999"
     y="-3554.49"
     transform="scale(4.0128,0.2492)"
     id="text148"
     style="font-size:46.95399857px;text-anchor:middle;font-family:Arial" />
  <text
     x="2110.79"
     y="-878.78003"
     id="text150"
     style="font-size:129.22999573px;line-height:125%;letter-spacing:0;word-spacing:0;font-family:Gentium Book Basic">
    <tspan
       x="2110.79"
       y="-878.78003"
       id="tspan152" />
  </text>
  <text
     x="723.09003"
     y="-3875.52"
     transform="scale(4.0128,0.2492)"
     id="text154"
     style="font-size:46.95399857px;text-anchor:middle;font-family:Arial" />
  <text
     x="277.98999"
     y="535.94"
     id="text156"
     style="font-size:208.33000183px;line-height:125%;letter-spacing:0;word-spacing:0;font-family:Gentium Book Basic">
    <tspan
       x="277.98999"
       y="535.94"
       id="tspan158" />
  </text>
  <g
     id="g160"
     style="fill:#ffffff">
    <path
       d="m 136.72,136.72 c -8.982,0 -16.281,7.268 -16.281,16.25 v 24.875 h 271.13 V 152.97 c 0,-8.985 -7.265,-16.25 -16.25,-16.25 h -238.59 m 168.06,10.813 c 5.978,0 10.875,4.894 10.875,10.875 0,5.981 -4.897,10.813 -10.875,10.813 -5.978,0 -10.813,-4.832 -10.813,-10.813 0,-5.981 4.834,-10.875 10.813,-10.875 m 29.844,0 c 5.978,0 10.844,4.894 10.844,10.875 0,5.981 -4.866,10.813 -10.844,10.813 -5.978,0 -10.813,-4.832 -10.813,-10.813 0,-5.981 4.834,-10.875 10.813,-10.875 m 29.813,0 c 5.978,0 10.844,4.894 10.844,10.875 0,5.981 -4.866,10.813 -10.844,10.813 -5.978,0 -10.844,-4.832 -10.844,-10.813 0,-5.981 4.866,-10.875 10.844,-10.875"
       inkscape:connector-curvature="0"
       id="path162" />
    <path
       d="M 120.44,192.24 V 359 c 0,8.982 7.305,16.287 16.287,16.287 h 238.58 c 8.985,0 16.254,-7.308 16.254,-16.287 V 192.24 h -271.13"
       inkscape:connector-curvature="0"
       id="path164" />
  </g>
  <g
     id="g166"
     style="fill:#c3a756;stroke:#c3a756;stroke-width:9.80000019">
    <path
       d="m 208.79,311.33 -52.38,-24.1 v -7.868 l 52.38,-27.29 v 13.205 l -35.38,17.442 35.38,15.461 v 13.15"
       inkscape:connector-curvature="0"
       id="path168" />
    <path
       d="M 271.59,225.39 240.778,337.86 H 226.362 L 257.174,225.39 H 271.59"
       inkscape:connector-curvature="0"
       id="path170" />
    <path
       d="m 303.21,298.18 35.38,-15.461 -35.38,-17.442 v -13.205 l 52.38,27.29 v 7.868 l -52.38,24.1 v -13.15"
       inkscape:connector-curvature="0"
       id="path172" />
  </g>
</svg>
