<?xml version="1.0" encoding="UTF-8" standalone="no"?>
<!-- Created with Inkscape (http://www.inkscape.org/) -->

<svg
   xmlns:dc="http://purl.org/dc/elements/1.1/"
   xmlns:cc="http://creativecommons.org/ns#"
   xmlns:rdf="http://www.w3.org/1999/02/22-rdf-syntax-ns#"
   xmlns:svg="http://www.w3.org/2000/svg"
   xmlns="http://www.w3.org/2000/svg"
   xmlns:inkscape="http://www.inkscape.org/namespaces/inkscape"
   version="1.1"
   width="100%"
   height="100%"
   viewBox="0 0 512 512"
   id="svg2">
  <metadata
     id="metadata76">
    <rdf:RDF>
      <cc:Work
         rdf:about="">
        <dc:format>image/svg+xml</dc:format>
        <dc:type
           rdf:resource="http://purl.org/dc/dcmitype/StillImage" />
      </cc:Work>
    </rdf:RDF>
  </metadata>
  <defs
     id="defs74" />
  <path
     d="m 471.95,253.05 c 0,120.9 -98.01,218.9 -218.9,218.9 -120.9,0 -218.9,-98.01 -218.9,-218.9 0,-120.9 98.01,-218.9 218.9,-218.9 120.9,0 218.9,98.01 218.9,218.9"
     inkscape:connector-curvature="0"
     id="path4"
     style="fill:#ef6a47;fill-rule:evenodd" />
  <path
     d="m 145.5,139.19 v 28.563 h -0.375 v -1 h -1 v -1 h -1 v -1 h -1 v -1 h -1 v -1 h -0.969 v -0.969 h -1 v -1 h -1 v -0.188 -0.813 h -1 v -1 h -6.875 v 30.31 h -0.125 v -1 h -1 v -1 h -1 v -1 h -1 v -1 h -1 v -1 h -0.969 v -0.969 h -1 v -1 h -1 v -0.188 -0.813 h -1 v -1 h -7.594 v 170.19 c 0.33,0.025 0.669,0.038 1,0.063 v 0.094 0.844 c 0.33,0.025 0.669,0.038 1,0.063 v 0.938 c 0.331,0.025 0.669,0.038 1,0.063 v 0.938 c 0.32,0.024 0.648,0.039 0.969,0.063 v 0.906 c 0.33,0.025 0.669,0.038 1,0.063 v 0.938 c 0.329,0.025 0.67,0.038 1,0.063 v 0.938 c 0.33,0.025 0.669,0.038 1,0.063 v 0.938 c 0.33,0.025 0.669,0.038 1,0.063 v 0.938 c 0.331,0.025 0.668,0.038 1,0.063 v 0.938 c 0.32,0.024 0.648,0.039 0.969,0.063 v 0.906 c 0.33,0.025 0.669,0.038 1,0.063 v 0.938 c 0.329,0.025 0.67,0.038 1,0.063 v 0.938 c 0.33,0.025 0.669,0.038 1,0.063 v 0.938 c 0.33,0.025 0.669,0.038 1,0.063 v 0.938 c 0.331,0.025 0.668,0.038 1,0.063 v 0.938 c 0.32,0.024 0.648,0.039 0.969,0.063 v 0.906 c 0.33,0.025 0.669,0.038 1,0.063 v 0.938 c 0.33,0.025 0.67,0.038 1,0.063 v 0.938 c 0.33,0.025 0.669,0.038 1,0.063 v 0.938 c 0.33,0.025 0.669,0.038 1,0.063 v 0.938 c 0.33,0.025 0.669,0.038 1,0.063 v 0.938 c 0.32,0.024 0.648,0.039 0.969,0.063 v 0.906 c 0.329,0.025 0.67,0.038 1,0.063 v 0.938 c 0.33,0.025 0.669,0.038 1,0.063 v 0.938 c 0.329,0.025 0.67,0.038 1,0.063 v 0.938 c 0.33,0.025 0.669,0.038 1,0.063 v 0.938 c 0.33,0.025 0.669,0.038 1,0.063 v 0.938 c 0.331,0.025 0.668,0.038 1,0.063 v 0.938 c 0.32,0.024 0.648,0.039 0.969,0.063 v 0.906 c 0.33,0.025 0.669,0.038 1,0.063 v 0.938 c 0.329,0.025 0.67,0.038 1,0.063 v 0.938 c 0.33,0.025 0.669,0.038 1,0.063 v 0.938 c 0.33,0.025 0.669,0.038 1,0.063 v 0.938 c 0.331,0.025 0.668,0.038 1,0.063 v 0.938 c 0.32,0.024 0.648,0.039 0.969,0.063 v 0.906 c 0.33,0.025 0.669,0.038 1,0.063 v 0.938 c 0.329,0.025 0.67,0.038 1,0.063 v 0.938 c 0.33,0.025 0.669,0.038 1,0.063 v 0.938 c 0.33,0.025 0.669,0.038 1,0.063 v 0.938 c 0.331,0.025 0.668,0.038 1,0.063 v 0.938 c 0.32,0.024 0.647,0.039 0.969,0.063 v 0.906 c 0.33,0.025 0.669,0.038 1,0.063 v 0.938 c 0.329,0.025 0.669,0.038 1,0.063 v 0.938 c 0.329,0.025 0.67,0.038 1,0.063 v 0.938 c 0.33,0.025 0.669,0.038 1,0.063 v 0.938 c 0.33,0.025 0.669,0.038 1,0.063 v 0.938 c 0.331,0.025 0.668,0.038 1,0.063 v 0.938 c 0.32,0.024 0.648,0.039 0.969,0.063 v 0.906 c 0.33,0.025 0.669,0.038 1,0.063 v 0.938 c 0.329,0.025 0.67,0.038 1,0.063 v 0.938 c 0.33,0.025 0.669,0.038 1,0.063 v 0.938 c 0.33,0.025 0.669,0.038 1,0.063 v 0.938 c 0.331,0.025 0.668,0.038 1,0.063 v 0.938 c 0.32,0.024 0.648,0.039 0.969,0.063 v 0.906 c 0.33,0.025 0.669,0.038 1,0.063 v 0.938 c 0.329,0.025 0.67,0.038 1,0.063 v 0.938 c 0.33,0.025 0.668,0.038 1,0.063 v 0.938 c 0.33,0.025 0.669,0.038 1,0.063 v 0.938 c 0.331,0.025 0.668,0.038 1,0.063 v 0.938 c 0.32,0.024 0.647,0.039 0.969,0.063 v 0.906 c 0.33,0.025 0.669,0.038 1,0.063 v 0.938 c 0.329,0.025 0.669,0.038 1,0.063 v 0.938 c 0.331,0.025 0.668,0.038 1,0.063 v 0.938 c 0.33,0.025 0.669,0.038 1,0.063 v 0.938 c 0.329,0.025 0.669,0.038 1,0.063 v 0.938 c 0.32,0.025 0.647,0.039 0.969,0.063 v 0.906 c 0.328,0.025 0.671,0.038 1,0.063 v 0.938 c 0.329,0.025 0.669,0.038 1,0.063 v 0.938 c 0.329,0.025 0.67,0.038 1,0.063 v 0.938 c 0.33,0.025 0.669,0.038 1,0.063 v 0.938 c 0.33,0.025 0.669,0.038 1,0.063 v 0.938 c 0.331,0.025 0.668,0.038 1,0.063 v 0.938 c 0.32,0.024 0.647,0.039 0.969,0.063 v 0.906 c 0.33,0.025 0.669,0.038 1,0.063 v 0.938 c 0.329,0.025 0.67,0.038 1,0.063 v 0.938 c 0.33,0.025 0.668,0.038 1,0.063 v 0.938 c 0.33,0.025 0.669,0.038 1,0.063 v 0.938 c 0.331,0.025 0.668,0.038 1,0.063 v 0.938 c 0.32,0.024 0.647,0.039 0.969,0.063 v 0.906 c 0.33,0.025 0.669,0.038 1,0.063 v 0.938 c 0.329,0.025 0.67,0.038 1,0.063 v 0.938 c 0.331,0.025 0.668,0.038 1,0.063 v 0.938 c 0.33,0.025 0.669,0.038 1,0.063 v 0.938 c 0.331,0.025 0.667,0.038 1,0.063 v 0.938 c 0.32,0.025 0.647,0.039 0.969,0.063 v 0.906 c 0.33,0.025 0.669,0.038 1,0.063 v 0.938 c 0.329,0.025 0.669,0.038 1,0.063 v 0.938 c 0.329,0.025 0.67,0.038 1,0.063 v 0.938 c 0.33,0.025 0.668,0.038 1,0.063 v 0.938 c 0.329,0.025 0.669,0.038 1,0.063 v 0.938 c 0.331,0.025 0.668,0.038 1,0.063 v 0.938 c 0.32,0.024 0.647,0.039 0.969,0.063 v 0.906 c 0.329,0.025 0.669,0.038 1,0.063 v 0.938 c 0.329,0.025 0.67,0.038 1,0.063 v 0.938 c 0.33,0.025 0.668,0.038 1,0.063 v 0.938 c 0.33,0.025 0.669,0.038 1,0.063 v 0.938 c 0.331,0.025 0.667,0.038 1,0.063 v 0.938 c 0.32,0.024 0.647,0.039 0.969,0.063 v 0.906 c 0.329,0.025 0.669,0.038 1,0.063 v 0.938 c 0.329,0.025 0.67,0.038 1,0.063 v 0.938 c 0.331,0.025 0.668,0.038 1,0.063 v 0.938 c 0.33,0.025 0.669,0.038 1,0.063 v 0.938 c 0.331,0.025 0.667,0.038 1,0.063 v 0.938 c 0.32,0.025 0.647,0.039 0.969,0.063 v 0.906 c 0.33,0.025 0.669,0.038 1,0.063 v 0.938 c 0.329,0.025 0.669,0.039 1,0.063 v 0.938 c 0.331,0.025 0.668,0.038 1,0.063 v 0.938 c 0.33,0.025 0.668,0.039 1,0.063 v 0.938 c 0.332,0.025 0.666,0.038 1,0.063 v 0.938 c 0.321,0.025 0.646,0.039 0.969,0.063 v 0.906 c 0.327,0.025 0.671,0.039 1,0.063 v 0.938 c 0.329,0.025 0.669,0.039 1,0.063 v 0.938 c 0.328,0.025 0.67,0.039 1,0.063 v 0.938 c 0.33,0.025 0.668,0.039 1,0.063 v 0.938 c 0.329,0.025 0.669,0.039 1,0.063 v 0.938 c 0.331,0.025 0.667,0.039 1,0.063 v 0.938 c 0.32,0.024 0.647,0.039 0.969,0.063 v 0.906 c 0.329,0.025 0.669,0.039 1,0.063 v 0.938 c 0.328,0.025 0.67,0.039 1,0.063 v 0.938 c 0.328,0.025 0.671,0.039 1,0.063 v 0.938 c 0.328,0.025 0.67,0.039 1,0.063 v 0.938 c 0.329,0.025 0.669,0.039 1,0.063 v 0.5 c 5.621,0.433 11.3,0.688 17.03,0.688 120.9,0 218.91,-98.01 218.91,-218.91 0,-2.812 -0.051,-5.62 -0.156,-8.406 -0.271,0.017 -0.542,0.042 -0.813,0.063 v -1.063 c -0.334,0.025 -0.667,0.069 -1,0.094 v -1.094 c -0.323,0.025 -0.646,0.038 -0.969,0.063 v -1.031 c -0.333,0.025 -0.667,0.038 -1,0.063 v -1.063 c -0.333,0.025 -0.667,0.038 -1,0.063 v -1.063 c -0.334,0.025 -0.666,0.038 -1,0.063 v -1.063 c -0.334,0.025 -0.666,0.038 -1,0.063 v -1.063 c -0.334,0.025 -0.666,0.038 -1,0.063 v -1.063 c -0.324,0.025 -0.645,0.038 -0.969,0.063 v -1.031 c -0.333,0.025 -0.667,0.038 -1,0.063 v -1.063 c -0.333,0.025 -0.667,0.038 -1,0.063 v -1.063 c -0.333,0.025 -0.667,0.038 -1,0.063 v -1.063 c -0.333,0.025 -0.667,0.038 -1,0.063 v -1.063 c -0.334,0.025 -0.666,0.038 -1,0.063 v -1.063 c -0.323,0.025 -0.646,0.038 -0.969,0.063 v -1.031 c -0.333,0.025 -0.668,0.038 -1,0.063 v -1.063 c -0.333,0.025 -0.667,0.038 -1,0.063 v -1.063 c -0.333,0.025 -0.667,0.038 -1,0.063 v -1.063 c -0.333,0.025 -0.667,0.038 -1,0.063 v -1.063 c -0.333,0.025 -0.667,0.038 -1,0.063 v -1.063 c -0.333,0.025 -0.667,0.038 -1,0.063 v -1.063 c -0.323,0.025 -0.646,0.038 -0.969,0.063 v -1.031 c -0.332,0.025 -0.668,0.038 -1,0.063 v -1.063 c -0.332,0.025 -0.668,0.038 -1,0.063 v -1.063 c -0.333,0.025 -0.667,0.038 -1,0.063 v -1.063 c -0.333,0.025 -0.667,0.038 -1,0.063 v -1.063 c -0.333,0.025 -0.667,0.038 -1,0.063 v -1.063 c -0.323,0.025 -0.646,0.038 -0.969,0.063 v -1.031 c -0.332,0.025 -0.668,0.038 -1,0.063 v -1.063 c -0.332,0.025 -0.668,0.038 -1,0.063 v -1.063 c -0.332,0.025 -0.668,0.038 -1,0.063 v -1.063 c -0.334,0.025 -0.666,0.037 -1,0.063 v -1.063 c -0.334,0.025 -0.666,0.037 -1,0.063 v -1.063 c -0.324,0.025 -0.645,0.038 -0.969,0.063 v -1.031 c -0.333,0.025 -0.667,0.038 -1,0.063 v -1.063 c -0.333,0.025 -0.667,0.038 -1,0.063 v -1.063 c -0.333,0.025 -0.667,0.037 -1,0.063 v -1.063 c -0.333,0.025 -0.667,0.037 -1,0.063 v -1.063 c -0.334,0.025 -0.666,0.037 -1,0.063 v -1.063 c -0.334,0.025 -0.666,0.037 -1,0.063 v -1.063 c -0.323,0.025 -0.645,0.038 -0.969,0.063 v -1.031 c -0.333,0.025 -0.667,0.038 -1,0.063 v -1.063 c -0.333,0.025 -0.667,0.038 -1,0.063 v -1.063 c -0.333,0.025 -0.667,0.037 -1,0.063 v -1.063 c -0.333,0.025 -0.667,0.037 -1,0.063 v -1.063 c -0.333,0.025 -0.667,0.037 -1,0.063 v -1.063 c -0.323,0.025 -0.646,0.038 -0.969,0.063 v -1.031 c -0.333,0.025 -0.667,0.038 -1,0.063 v -1.063 c -0.333,0.025 -0.667,0.038 -1,0.063 v -1.063 c -0.333,0.025 -0.667,0.037 -1,0.063 v -1.063 c -0.333,0.025 -0.667,0.037 -1,0.063 v -1.063 c -0.333,0.025 -0.667,0.037 -1,0.063 v -1.063 c -0.323,0.025 -0.646,0.038 -0.969,0.063 v -1.031 c -0.332,0.025 -0.668,0.038 -1,0.063 v -1.063 c -0.332,0.025 -0.668,0.038 -1,0.063 v -1.063 c -0.333,0.025 -0.667,0.037 -1,0.063 v -1.063 c -0.333,0.025 -0.667,0.037 -1,0.063 v -1.063 c -0.333,0.025 -0.667,0.037 -1,0.063 v -1.063 c -0.323,0.025 -0.646,0.038 -0.969,0.063 v -1.031 c -0.333,0.025 -0.667,0.037 -1,0.063 v -1.063 c -0.333,0.025 -0.667,0.037 -1,0.063 v -1.063 c -0.333,0.025 -0.667,0.037 -1,0.063 v -1.063 c -0.333,0.025 -0.667,0.037 -1,0.063 v -1.063 c -0.334,0.025 -0.666,0.037 -1,0.063 v -1.063 c -0.334,0.025 -0.666,0.037 -1,0.063 v -1.063 c -0.323,0.025 -0.645,0.038 -0.969,0.063 v -1.031 c -0.333,0.025 -0.667,0.037 -1,0.063 v -1.063 c -0.333,0.025 -0.667,0.037 -1,0.063 v -1.063 c -0.333,0.025 -0.667,0.037 -1,0.063 v -1.063 c -0.333,0.025 -0.667,0.037 -1,0.063 v -1.063 c -0.333,0.025 -0.667,0.037 -1,0.063 v -1.063 c -0.323,0.025 -0.646,0.038 -0.969,0.063 v -1.031 c -0.333,0.025 -0.667,0.037 -1,0.063 v -1.063 c -0.333,0.025 -0.667,0.037 -1,0.063 v -1.063 c -0.333,0.025 -0.667,0.037 -1,0.063 v -1.063 c -0.333,0.025 -0.667,0.037 -1,0.063 v -1.063 c -0.333,0.025 -0.667,0.037 -1,0.063 v -1.063 c -0.323,0.025 -0.646,0.038 -0.969,0.063 v -1.031 c -0.333,0.025 -0.668,0.037 -1,0.063 v -1.063 c -0.333,0.025 -0.667,0.037 -1,0.063 v -1.063 c -0.333,0.025 -0.667,0.037 -1,0.063 v -1.063 c -0.333,0.025 -0.667,0.037 -1,0.063 v -1.063 c -0.333,0.025 -0.667,0.037 -1,0.063 v -1.063 c -0.333,0.025 -0.667,0.037 -1,0.063 v -1.063 c -0.323,0.025 -0.646,0.038 -0.969,0.063 v -1.031 c -0.332,0.025 -0.668,0.037 -1,0.063 v -1.063 c -0.332,0.025 -0.668,0.037 -1,0.063 v -1.063 c -0.333,0.025 -0.667,0.037 -1,0.063 v -1.063 c -0.334,0.025 -0.666,0.037 -1,0.063 v -1.063 c -0.334,0.025 -0.666,0.037 -1,0.063 v -1.063 c -0.323,0.025 -0.645,0.038 -0.969,0.063 v -1.031 c -0.333,0.025 -0.667,0.037 -1,0.063 v -1.063 c -0.333,0.025 -0.667,0.037 -1,0.063 v -1.063 c -0.333,0.025 -0.667,0.037 -1,0.063 v -1.063 c -0.333,0.025 -0.667,0.037 -1,0.063 v -1.063 c -0.333,0.025 -0.667,0.037 -1,0.063 v -1.063 c -0.323,0.025 -0.646,0.038 -0.969,0.063 v -1.031 c -0.333,0.025 -0.667,0.037 -1,0.063 v -1.063 c -0.333,0.025 -0.667,0.037 -1,0.063 v -1.063 c -0.333,0.025 -0.667,0.037 -1,0.063 v -1.063 c -0.333,0.025 -0.667,0.037 -1,0.063 v -1.063 c -0.333,0.025 -0.667,0.037 -1,0.063 v -1.063 c -0.323,0.025 -0.646,0.038 -0.969,0.063 v -1.031 c -0.333,0.025 -0.667,0.037 -1,0.063 v -1.063 c -0.333,0.025 -0.667,0.037 -1,0.063 v -0.188 -0.875 c -0.333,0.025 -0.667,0.037 -1,0.063 v -1.063 c -35.573,2.71 -70.984,3.571 -109.09,38 v 2.844 c -0.27,-0.243 -0.543,-0.479 -0.813,-0.719 v -0.125 c -0.334,-0.302 -0.666,-0.578 -1,-0.875 v -0.125 c -0.334,-0.302 -0.666,-0.578 -1,-0.875 v -0.125 c -38.11,-34.429 -73.52,-35.29 -109.09,-38"
     inkscape:connector-curvature="0"
     id="path6"
     style="fill-opacity:0.23500001" />
  <g
     id="g8"
     style="fill-rule:evenodd">
    <path
       d="M 256,1 C 115.17,1 1,115.17 1,256 1,396.83 115.17,511 256,511 396.83,511 511,396.83 511,256 511,115.17 396.83,1 256,1 m 8.827,44.931 c 120.9,0 218.9,98 218.9,218.9 0,120.9 -98,218.9 -218.9,218.9 -120.9,0 -218.93,-98 -218.93,-218.9 0,-120.9 98.03,-218.9 218.93,-218.9"
       inkscape:connector-curvature="0"
       id="path10"
       style="fill-opacity:0.06700003" />
    <g
       id="g12"
       style="fill-opacity:0.12900002">
      <path
         d="m 256,4.433 c -138.94,0 -251.57,112.63 -251.57,251.57 0,138.94 112.63,251.57 251.57,251.57 138.94,0 251.57,-112.63 251.57,-251.57 C 507.57,117.063 394.94,4.433 256,4.433 m 5.885,38.556 c 120.9,0 218.9,98 218.9,218.9 0,120.9 -98,218.9 -218.9,218.9 -120.9,0 -218.93,-98 -218.93,-218.9 0,-120.9 98.03,-218.9 218.93,-218.9"
         inkscape:connector-curvature="0"
         id="path14" />
      <path
         d="m 256,8.356 c -136.77,0 -247.64,110.87 -247.64,247.64 0,136.77 110.87,247.64 247.64,247.64 136.77,0 247.64,-110.87 247.64,-247.64 C 503.64,119.226 392.77,8.356 256,8.356 m 2.942,31.691 c 120.9,0 218.9,98 218.9,218.9 0,120.9 -98,218.9 -218.9,218.9 -120.9,0 -218.93,-98 -218.93,-218.9 0,-120.9 98.03,-218.9 218.93,-218.9"
         inkscape:connector-curvature="0"
         id="path16" />
    </g>
    <path
       d="m 253.04,7.859 c -135.42,0 -245.19,109.78 -245.19,245.19 0,135.42 109.78,245.19 245.19,245.19 135.42,0 245.19,-109.78 245.19,-245.19 0,-135.42 -109.78,-245.19 -245.19,-245.19 z m 0,26.297 c 120.9,0 218.9,98 218.9,218.9 0,120.9 -98,218.9 -218.9,218.9 -120.9,0 -218.93,-98 -218.93,-218.9 0,-120.9 98.03,-218.9 218.93,-218.9 z"
       inkscape:connector-curvature="0"
       id="path18"
       style="fill:#ffffff;stroke:#000000;stroke-width:4.90399981;stroke-opacity:0.31000001" />
  </g>
  <text
     x="729.64001"
     y="231.36"
     id="text20"
     style="font-size:129.22999573px;line-height:125%;letter-spacing:0;word-spacing:0;font-family:Gentium Book Basic">
    <tspan
       x="729.64001"
       y="231.36"
       id="tspan22" />
  </text>
  <text
     x="378.91"
     y="579.25"
     transform="scale(4.0128,0.2492)"
     id="text24"
     style="font-size:46.95399857px;text-anchor:middle;font-family:Arial" />
  <text
     x="1310.91"
     y="151.36"
     id="text26"
     style="font-size:129.22999573px;line-height:125%;letter-spacing:0;word-spacing:0;font-family:Gentium Book Basic">
    <tspan
       x="1310.91"
       y="151.36"
       id="tspan28" />
  </text>
  <text
     x="523.76001"
     y="258.22"
     transform="scale(4.0128,0.2492)"
     id="text30"
     style="font-size:46.95399857px;text-anchor:middle;font-family:Arial" />
  <text
     x="239.33"
     y="-29.900999"
     id="text32"
     style="font-size:129.22999573px;line-height:125%;letter-spacing:0;word-spacing:0;font-family:Gentium Book Basic">
    <tspan
       x="239.33"
       y="-29.900999"
       id="tspan34" />
  </text>
  <text
     x="256.72"
     y="-469.14001"
     transform="scale(4.0128,0.2492)"
     id="text36"
     style="font-size:46.95399857px;text-anchor:middle;font-family:Arial" />
  <text
     x="1337.38"
     y="-246.37"
     id="text38"
     style="font-size:129.22999573px;line-height:125%;letter-spacing:0;word-spacing:0;font-family:Gentium Book Basic">
    <tspan
       x="1337.38"
       y="-246.37"
       id="tspan40" />
  </text>
  <text
     x="530.35999"
     y="-1337.8101"
     transform="scale(4.0128,0.2492)"
     id="text42"
     style="font-size:46.95399857px;text-anchor:middle;font-family:Arial" />
  <text
     x="1918.65"
     y="-326.38"
     id="text44"
     style="font-size:129.22999573px;line-height:125%;letter-spacing:0;word-spacing:0;font-family:Gentium Book Basic">
    <tspan
       x="1918.65"
       y="-326.38"
       id="tspan46" />
  </text>
  <text
     x="675.21002"
     y="-1658.85"
     transform="scale(4.0128,0.2492)"
     id="text48"
     style="font-size:46.95399857px;text-anchor:middle;font-family:Arial" />
  <text
     x="1529.53"
     y="-798.78003"
     id="text50"
     style="font-size:129.22999573px;line-height:125%;letter-spacing:0;word-spacing:0;font-family:Gentium Book Basic">
    <tspan
       x="1529.53"
       y="-798.78003"
       id="tspan52" />
  </text>
  <text
     x="578.23999"
     y="-3554.51"
     transform="scale(4.0128,0.2492)"
     id="text54"
     style="font-size:46.95399857px;text-anchor:middle;font-family:Arial" />
  <text
     x="2110.79"
     y="-878.78003"
     id="text56"
     style="font-size:129.22999573px;line-height:125%;letter-spacing:0;word-spacing:0;font-family:Gentium Book Basic">
    <tspan
       x="2110.79"
       y="-878.78003"
       id="tspan58" />
  </text>
  <text
     x="723.09003"
     y="-3875.54"
     transform="scale(4.0128,0.2492)"
     id="text60"
     style="font-size:46.95399857px;text-anchor:middle;font-family:Arial" />
  <text
     x="277.98999"
     y="535.94"
     id="text62"
     style="font-size:208.33000183px;line-height:125%;letter-spacing:0;word-spacing:0;font-family:Gentium Book Basic">
    <tspan
       x="277.98999"
       y="535.94"
       id="tspan64" />
  </text>
  <g
     transform="matrix(0.97883,0,0,0.97883,-662.8,58.03)"
     id="g66"
     style="fill:#ffffff">
    <path
       d="m 1051.56,82.906 c -36.34,2.769 -72.53,3.671 -111.47,38.844 l 0.75,181.34 c 31.707,-28.788 69.69,-38.783 110.72,-39.594 z m -241.31,20.03 v 177.13 c 60.5,0.89 100.76,12.895 127.75,32.19 0.551,0.176 0.923,0.031 1.344,0 26.995,-19.292 67.25,-31.3 127.75,-32.19 v -177.12 h -7.03 v 169.59 c -33.04,2.945 -58.965,-2.711 -121.41,35.875 -62.43,-38.571 -88.37,-32.93 -121.41,-35.875 v -169.59 z m -16.03,21.813 v 173.84 c 44.703,3.426 97.01,0.922 125.13,17.25 8.126,4.692 11.06,5.968 18.875,5.688 0.01,0 0.021,0 0.031,0 8.519,0.41 11.311,-0.815 19.75,-5.688 28.12,-16.328 80.42,-13.824 125.13,-17.25 v -173.84 h -7.781 v 165.81 c -40.454,1.766 -80.88,3.619 -118.72,17.781 -7.284,6.859 -10.02,7 -17.594,7.156 -8.394,-0.173 -10.71,0.003 -18.313,-7.156 -37.844,-14.162 -78.3,-16.01 -118.75,-17.781 v -165.81 z"
       inkscape:connector-curvature="0"
       id="path68" />
    <path
       d="M 936.5,303.09 C 904.793,274.302 866.82,264.324 825.78,263.513 v -180.6 c 36.34,2.769 72.53,3.653 111.47,38.826 z"
       inkscape:connector-curvature="0"
       id="path70" />
  </g>
</svg>
