/* XPM */
static char * bottom_left_active_xpm[] = {
"4 20 3 1",
" 	c None",
".	c #222222",
"+	c #282828",
"....",
"....",
"....",
"....",
"....",
"....",
"....",
"....",
"....",
"....",
"....",
"....",
"....",
"....",
"....",
"....",
"....",
"....",
"+...",
" +.."};
