<?xml version="1.0" encoding="UTF-8" standalone="no"?>
<svg
   xmlns:dc="http://purl.org/dc/elements/1.1/"
   xmlns:cc="http://creativecommons.org/ns#"
   xmlns:rdf="http://www.w3.org/1999/02/22-rdf-syntax-ns#"
   xmlns:svg="http://www.w3.org/2000/svg"
   xmlns="http://www.w3.org/2000/svg"
   xmlns:sodipodi="http://sodipodi.sourceforge.net/DTD/sodipodi-0.dtd"
   xmlns:inkscape="http://www.inkscape.org/namespaces/inkscape"
   height="512"
   width="512"
   version="1.1"
   viewBox="0 0 512 512"
   id="svg2"
   inkscape:version="0.91 r"
   sodipodi:docname="uninterruptible-power-supply.svg">
  <defs
     id="defs143" />
  <sodipodi:namedview
     pagecolor="#ffffff"
     bordercolor="#666666"
     borderopacity="1"
     objecttolerance="10"
     gridtolerance="10"
     guidetolerance="10"
     inkscape:pageopacity="0"
     inkscape:pageshadow="2"
     inkscape:window-width="640"
     inkscape:window-height="480"
     id="namedview141"
     showgrid="false"
     inkscape:zoom="0.4609375"
     inkscape:cx="256"
     inkscape:cy="256"
     inkscape:window-x="0"
     inkscape:window-y="0"
     inkscape:window-maximized="0"
     inkscape:current-layer="svg2" />
  <metadata
     id="metadata280">
    <rdf:RDF>
      <cc:Work
         rdf:about="">
        <dc:format>image/svg+xml</dc:format>
        <dc:type
           rdf:resource="http://purl.org/dc/dcmitype/StillImage" />
      </cc:Work>
    </rdf:RDF>
  </metadata>
  <text
     id="text4"
     font-size="129.23"
     line-height="125%"
     y="369.84"
     x="1296.56"
     font-family="Gentium Book Basic"
     word-spacing="0"
     letter-spacing="0">
    <tspan
       id="tspan6"
       y="369.84"
       x="1296.56" />
  </text>
  <text
     id="text8"
     transform="scale(4.0128 .2492)"
     font-size="46.954"
     y="1134.95"
     x="520.18"
     font-family="Arial"
     text-anchor="middle" />
  <text
     id="text10"
     font-size="129.23"
     line-height="125%"
     y="289.84"
     x="1877.82"
     font-family="Gentium Book Basic"
     word-spacing="0"
     letter-spacing="0">
    <tspan
       id="tspan12"
       y="289.84"
       x="1877.82" />
  </text>
  <text
     id="text14"
     transform="scale(4.0128 .2492)"
     font-size="46.954"
     y="813.91"
     x="665.03"
     font-family="Arial"
     text-anchor="middle" />
  <text
     id="text16"
     font-size="129.23"
     line-height="125%"
     y="108.58"
     x="806.25"
     font-family="Gentium Book Basic"
     word-spacing="0"
     letter-spacing="0">
    <tspan
       id="tspan18"
       y="108.58"
       x="806.25" />
  </text>
  <text
     id="text20"
     transform="scale(4.0128 .2492)"
     font-size="46.954"
     y="86.56"
     x="398"
     font-family="Arial"
     text-anchor="middle" />
  <text
     id="text22"
     font-size="129.23"
     line-height="125%"
     y="-107.89"
     x="1904.3"
     font-family="Gentium Book Basic"
     word-spacing="0"
     letter-spacing="0">
    <tspan
       id="tspan24"
       y="-107.89"
       x="1904.3" />
  </text>
  <text
     id="text26"
     transform="scale(4.0128 .2492)"
     font-size="46.954"
     y="-782.11"
     x="671.63"
     font-family="Arial"
     text-anchor="middle" />
  <text
     id="text28"
     font-size="129.23"
     line-height="125%"
     y="-187.9"
     x="2485.56"
     font-family="Gentium Book Basic"
     word-spacing="0"
     letter-spacing="0">
    <tspan
       id="tspan30"
       y="-187.9"
       x="2485.56" />
  </text>
  <text
     id="text32"
     transform="scale(4.0128 .2492)"
     font-size="46.954"
     y="-1103.15"
     x="816.48"
     font-family="Arial"
     text-anchor="middle" />
  <text
     id="text34"
     font-size="129.23"
     line-height="125%"
     y="-660.3"
     x="2096.44"
     font-family="Gentium Book Basic"
     word-spacing="0"
     letter-spacing="0">
    <tspan
       id="tspan36"
       y="-660.3"
       x="2096.44" />
  </text>
  <text
     id="text38"
     transform="scale(4.0128 .2492)"
     font-size="46.954"
     y="-2998.81"
     x="719.51"
     font-family="Arial"
     text-anchor="middle" />
  <text
     id="text40"
     font-size="129.23"
     line-height="125%"
     y="-740.3"
     x="2677.71"
     font-family="Gentium Book Basic"
     word-spacing="0"
     letter-spacing="0">
    <tspan
       id="tspan42"
       y="-740.3"
       x="2677.71" />
  </text>
  <text
     id="text44"
     transform="scale(4.0128 .2492)"
     font-size="46.954"
     y="-3319.85"
     x="864.37"
     font-family="Arial"
     text-anchor="middle" />
  <text
     id="text46"
     font-size="208.33"
     line-height="125%"
     y="674.42"
     x="844.9"
     font-family="Gentium Book Basic"
     word-spacing="0"
     letter-spacing="0">
    <tspan
       id="tspan48"
       y="674.42"
       x="844.9" />
  </text>
  <text
     id="text66"
     font-size="129.23"
     line-height="125%"
     y="231.36"
     x="729.64"
     font-family="Gentium Book Basic"
     word-spacing="0"
     letter-spacing="0">
    <tspan
       id="tspan68"
       y="231.36"
       x="729.64" />
  </text>
  <text
     id="text70"
     transform="scale(4.0128 .2492)"
     font-size="46.954"
     y="579.25"
     x="378.91"
     font-family="Arial"
     text-anchor="middle" />
  <text
     id="text72"
     font-size="129.23"
     line-height="125%"
     y="151.36"
     x="1310.91"
     font-family="Gentium Book Basic"
     word-spacing="0"
     letter-spacing="0">
    <tspan
       id="tspan74"
       y="151.36"
       x="1310.91" />
  </text>
  <text
     id="text76"
     transform="scale(4.0128 .2492)"
     font-size="46.954"
     y="258.22"
     x="523.76"
     font-family="Arial"
     text-anchor="middle" />
  <text
     id="text78"
     font-size="129.23"
     line-height="125%"
     y="-29.901"
     x="239.33"
     font-family="Gentium Book Basic"
     word-spacing="0"
     letter-spacing="0">
    <tspan
       id="tspan80"
       y="-29.901"
       x="239.33" />
  </text>
  <text
     id="text82"
     transform="scale(4.0128 .2492)"
     font-size="46.954"
     y="-469.14"
     x="256.72"
     font-family="Arial"
     text-anchor="middle" />
  <text
     id="text84"
     font-size="129.23"
     line-height="125%"
     y="-246.37"
     x="1337.38"
     font-family="Gentium Book Basic"
     word-spacing="0"
     letter-spacing="0">
    <tspan
       id="tspan86"
       y="-246.37"
       x="1337.38" />
  </text>
  <text
     id="text88"
     transform="scale(4.0128 .2492)"
     font-size="46.954"
     y="-1337.8"
     x="530.36"
     font-family="Arial"
     text-anchor="middle" />
  <text
     id="text90"
     font-size="129.23"
     line-height="125%"
     y="-326.38"
     x="1918.65"
     font-family="Gentium Book Basic"
     word-spacing="0"
     letter-spacing="0">
    <tspan
       id="tspan92"
       y="-326.38"
       x="1918.65" />
  </text>
  <text
     id="text94"
     transform="scale(4.0128 .2492)"
     font-size="46.954"
     y="-1658.84"
     x="675.21"
     font-family="Arial"
     text-anchor="middle" />
  <text
     id="text96"
     font-size="129.23"
     line-height="125%"
     y="-798.78"
     x="1529.53"
     font-family="Gentium Book Basic"
     word-spacing="0"
     letter-spacing="0">
    <tspan
       id="tspan98"
       y="-798.78"
       x="1529.53" />
  </text>
  <text
     id="text100"
     transform="scale(4.0128 .2492)"
     font-size="46.954"
     y="-3554.49"
     x="578.24"
     font-family="Arial"
     text-anchor="middle" />
  <text
     id="text102"
     font-size="129.23"
     line-height="125%"
     y="-878.78"
     x="2110.79"
     font-family="Gentium Book Basic"
     word-spacing="0"
     letter-spacing="0">
    <tspan
       id="tspan104"
       y="-878.78"
       x="2110.79" />
  </text>
  <text
     id="text106"
     transform="scale(4.0128 .2492)"
     font-size="46.954"
     y="-3875.52"
     x="723.09"
     font-family="Arial"
     text-anchor="middle" />
  <g
     id="g108"
     font-family="Gentium Book Basic"
     line-height="125%"
     word-spacing="0"
     letter-spacing="0">
    <text
       id="text110"
       y="535.94"
       x="277.99"
       font-size="208.33">
      <tspan
         id="tspan112"
         y="535.94"
         x="277.99" />
    </text>
    <text
       id="text114"
       y="1125.07"
       x="-27646.87"
       font-size="4848.2">
      <tspan
         id="tspan116"
         y="1125.07"
         x="-27646.87" />
    </text>
  </g>
  <text
     id="text118"
     transform="scale(4.0128 .2492)"
     font-size="1761.7"
     y="-8584.7"
     x="504.33"
     font-family="Arial"
     text-anchor="middle" />
  <text
     id="text120"
     font-size="4848.2"
     line-height="125%"
     y="2037.09"
     x="-27781.61"
     font-family="Gentium Book Basic"
     word-spacing="0"
     letter-spacing="0">
    <tspan
       id="tspan122"
       y="2037.09"
       x="-27781.61" />
  </text>
  <text
     id="text124"
     transform="scale(4.0128 .2492)"
     font-size="1761.7"
     y="-4925.02"
     x="470.79"
     font-family="Arial"
     text-anchor="middle" />
  <g
     id="g126"
     fill="#555753"
     transform="matrix(23.272 0 0 23.272 -520.02 -260.06)">
    <text
       id="text128"
       transform="scale(1.0508 .95163)"
       line-height="125%"
       font-size="127.88"
       y="-204.06"
       x="-549.96"
       font-family="Gentium Book Basic"
       word-spacing="0"
       letter-spacing="0">
      <tspan
         id="tspan130"
         y="-204.06"
         x="-549.96" />
    </text>
    <text
       id="text132"
       transform="scale(4.2168 .23715)"
       font-size="46.47"
       y="-1164.37"
       x="57.981"
       font-family="Arial"
       text-anchor="middle" />
    <text
       id="text134"
       transform="scale(1.0508 .95163)"
       line-height="125%"
       font-size="68.46"
       y="-239.51"
       x="-145.93"
       font-family="Gentium Book Basic"
       word-spacing="0"
       letter-spacing="0">
      <tspan
         id="tspan136"
         y="-239.51"
         x="-145.93" />
    </text>
    <text
       id="text138"
       transform="scale(4.2168 .23715)"
       font-size="24.874"
       y="-1146.06"
       x="68.04"
       font-family="Arial"
       text-anchor="middle" />
    <text
       id="text140"
       font-size="200"
       line-height="125%"
       y="-74.27"
       x="-1695.66"
       font-family="Gentium Book Basic"
       word-spacing="0"
       letter-spacing="0">
      <tspan
         id="tspan142"
         y="-74.27"
         x="-1695.66" />
    </text>
    <text
       id="text144"
       transform="scale(4.0128 .2492)"
       font-size="72.67"
       y="-838.39"
       x="-117.54"
       font-family="Arial"
       text-anchor="middle" />
  </g>
  <g
     id="g146"
     transform="matrix(23.272 0 0 23.272 -520.02 -260.06)">
    <g
       id="g148">
      <text
         id="text150"
         font-size="208.33"
         line-height="125%"
         stroke="#cd1d31"
         y="-599.63"
         x="-1086.23"
         font-family="Gentium Book Basic"
         word-spacing="0"
         letter-spacing="0">
        <tspan
           id="tspan152"
           y="-599.63"
           x="-1086.23" />
      </text>
      <text
         id="text154"
         transform="scale(4.0128 .2492)"
         font-size="75.7"
         y="-2969.12"
         x="47.04"
         font-family="Arial"
         text-anchor="middle" />
      <text
         id="text156"
         font-size="208.33"
         line-height="125%"
         stroke="#cd1d31"
         y="-560.44"
         x="-1092.03"
         font-family="Gentium Book Basic"
         word-spacing="0"
         letter-spacing="0">
        <tspan
           id="tspan158"
           y="-560.44"
           x="-1092.03" />
      </text>
      <text
         id="text160"
         transform="scale(4.0128 .2492)"
         font-size="75.7"
         y="-2811.85"
         x="45.593"
         font-family="Arial"
         text-anchor="middle" />
    </g>
    <g
       id="g162"
       fill="#555753">
      <g
         id="g164"
         stroke="#cd1d31">
        <text
           id="text166"
           transform="scale(1.0508 .95163)"
           line-height="125%"
           font-size="127.88"
           y="-896.71"
           x="-474.37"
           font-family="Gentium Book Basic"
           word-spacing="0"
           letter-spacing="0">
          <tspan
             id="tspan168"
             y="-896.71"
             x="-474.37" />
        </text>
        <text
           id="text170"
           transform="scale(4.2168 .23715)"
           font-size="46.47"
           y="-3943.87"
           x="76.82"
           font-family="Arial"
           text-anchor="middle" />
        <text
           id="text172"
           transform="scale(1.0508 .95163)"
           line-height="125%"
           font-size="68.46"
           y="-932.16"
           x="-70.35"
           font-family="Gentium Book Basic"
           word-spacing="0"
           letter-spacing="0">
          <tspan
             id="tspan174"
             y="-932.16"
             x="-70.35" />
        </text>
        <text
           id="text176"
           transform="scale(4.2168 .23715)"
           font-size="24.874"
           y="-3925.56"
           x="86.87"
           font-family="Arial"
           text-anchor="middle" />
        <text
           id="text178"
           font-size="200"
           line-height="125%"
           y="-733.42"
           x="-1616.23"
           font-family="Gentium Book Basic"
           word-spacing="0"
           letter-spacing="0">
          <tspan
             id="tspan180"
             y="-733.42"
             x="-1616.23" />
        </text>
      </g>
      <text
         id="text182"
         transform="scale(4.0128 .2492)"
         font-size="72.67"
         y="-3483.46"
         x="-97.75"
         font-family="Arial"
         text-anchor="middle" />
    </g>
    <g
       id="g184">
      <text
         id="text186"
         font-size="200"
         line-height="125%"
         stroke="#cd1d31"
         y="-887.07"
         x="-356.8"
         font-family="Gentium Book Basic"
         word-spacing="0"
         letter-spacing="0">
        <tspan
           id="tspan188"
           y="-887.07"
           x="-356.8" />
      </text>
      <text
         id="text190"
         transform="scale(4.0128 .2492)"
         font-size="72.67"
         y="-4100.03"
         x="216.1"
         font-family="Arial"
         text-anchor="middle" />
      <text
         id="text192"
         font-size="200"
         line-height="125%"
         stroke="#cd1d31"
         y="-1010.89"
         x="542.82"
         font-family="Gentium Book Basic"
         word-spacing="0"
         letter-spacing="0">
        <tspan
           id="tspan194"
           y="-1010.89"
           x="542.82" />
      </text>
      <text
         id="text196"
         transform="scale(4.0128 .2492)"
         font-size="72.67"
         y="-4596.89"
         x="440.29"
         font-family="Arial"
         text-anchor="middle" />
    </g>
  </g>
  <text
     id="text198"
     font-size="129.23"
     line-height="125%"
     y="33.97"
     x="188.67"
     font-family="Gentium Book Basic"
     word-spacing="0"
     letter-spacing="0">
    <tspan
       id="tspan200"
       y="33.97"
       x="188.67" />
  </text>
  <text
     id="text202"
     transform="scale(4.0128 .2492)"
     font-size="46.954"
     y="-212.84"
     x="244.1"
     font-family="Arial"
     text-anchor="middle" />
  <text
     id="text204"
     font-size="129.23"
     line-height="125%"
     y="-46.03"
     x="769.94"
     font-family="Gentium Book Basic"
     word-spacing="0"
     letter-spacing="0">
    <tspan
       id="tspan206"
       y="-46.03"
       x="769.94" />
  </text>
  <text
     id="text208"
     transform="scale(4.0128 .2492)"
     font-size="46.954"
     y="-533.87"
     x="388.95"
     font-family="Arial"
     text-anchor="middle" />
  <text
     id="text210"
     font-size="129.23"
     line-height="125%"
     y="-227.29"
     x="-301.64"
     font-family="Gentium Book Basic"
     word-spacing="0"
     letter-spacing="0">
    <tspan
       id="tspan212"
       y="-227.29"
       x="-301.64" />
  </text>
  <text
     id="text214"
     transform="scale(4.0128 .2492)"
     font-size="46.954"
     y="-1261.23"
     x="121.91"
     font-family="Arial"
     text-anchor="middle" />
  <text
     id="text216"
     font-size="129.23"
     line-height="125%"
     y="-443.76"
     x="796.41"
     font-family="Gentium Book Basic"
     word-spacing="0"
     letter-spacing="0">
    <tspan
       id="tspan218"
       y="-443.76"
       x="796.41" />
  </text>
  <text
     id="text220"
     transform="scale(4.0128 .2492)"
     font-size="46.954"
     y="-2129.89"
     x="395.55"
     font-family="Arial"
     text-anchor="middle" />
  <text
     id="text222"
     font-size="129.23"
     line-height="125%"
     y="-523.77"
     x="1377.68"
     font-family="Gentium Book Basic"
     word-spacing="0"
     letter-spacing="0">
    <tspan
       id="tspan224"
       y="-523.77"
       x="1377.68" />
  </text>
  <text
     id="text226"
     transform="scale(4.0128 .2492)"
     font-size="46.954"
     y="-2450.93"
     x="540.4"
     font-family="Arial"
     text-anchor="middle" />
  <text
     id="text228"
     font-size="129.23"
     line-height="125%"
     y="-996.17"
     x="988.56"
     font-family="Gentium Book Basic"
     word-spacing="0"
     letter-spacing="0">
    <tspan
       id="tspan230"
       y="-996.17"
       x="988.56" />
  </text>
  <text
     id="text232"
     transform="scale(4.0128 .2492)"
     font-size="46.954"
     y="-4346.58"
     x="443.43"
     font-family="Arial"
     text-anchor="middle" />
  <text
     id="text234"
     font-size="129.23"
     line-height="125%"
     y="-1076.17"
     x="1569.82"
     font-family="Gentium Book Basic"
     word-spacing="0"
     letter-spacing="0">
    <tspan
       id="tspan236"
       y="-1076.17"
       x="1569.82" />
  </text>
  <text
     id="text238"
     transform="scale(4.0128 .2492)"
     font-size="46.954"
     y="-4667.61"
     x="588.27"
     font-family="Arial"
     text-anchor="middle" />
  <g
     id="g240"
     transform="translate(-540.97,-197.39)"
     font-size="208.33"
     font-family="Gentium Book Basic"
     line-height="125%"
     word-spacing="0"
     letter-spacing="0">
    <text
       id="text242"
       y="535.94"
       x="277.99">
      <tspan
         id="tspan244"
         y="535.94"
         x="277.99" />
    </text>
    <text
       id="text246"
       y="11.553"
       x="-860.84">
      <tspan
         id="tspan248"
         y="11.553"
         x="-860.84" />
    </text>
    <text
       id="text250"
       y="289.67"
       x="-3219.67">
      <tspan
         id="tspan252"
         y="289.67"
         x="-3219.67" />
    </text>
    <text
       id="text254"
       y="62.38"
       x="-2931.46">
      <tspan
         id="tspan256"
         y="62.38"
         x="-2931.46" />
    </text>
    <text
       id="text258"
       y="-194.52"
       x="1263.14">
      <tspan
         id="tspan260"
         y="-194.52"
         x="1263.14" />
    </text>
    <text
       id="text262"
       y="-49.48"
       x="-864.79">
      <tspan
         id="tspan264"
         y="-49.48"
         x="-864.79" />
    </text>
    <text
       id="text266"
       y="228.64"
       x="-3223.62">
      <tspan
         id="tspan268"
         y="228.64"
         x="-3223.62" />
    </text>
    <text
       id="text270"
       y="1.35"
       x="-2935.41">
      <tspan
         id="tspan272"
         y="1.35"
         x="-2935.41" />
    </text>
  </g>
  <path
     id="path274"
     d="m 127.8073,70.527599 -1.20193,1.707453 c -0.98655,1.408262 -1.20192,4.400173 -1.20192,16.932669 l 0,15.222639 -19.263,0 c -21.202594,0 -22.733369,0.28242 -24.963117,4.59361 -1.032983,1.99633 -1.17871,20.92533 -1.17871,163.94899 0,177.16756 -0.314666,164.74855 4.449178,167.34068 1.829967,0.993 14.461763,1.15162 96.244099,1.17871 l 94.18072,0.0245 2.59213,-2.62179 2.62179,-2.62179 0,-100.19033 80.99825,0 2.93388,3.0306 c 6.24948,6.43905 15.81457,5.91805 21.21162,-1.15421 l 2.21298,-2.90938 0.23987,-21.78807 c 0.17281,-16.65798 0.42815,-21.81258 1.15421,-21.81258 1.49853,0 11.7613,-5.10946 15.75267,-7.83958 18.41444,-12.60085 31.69233,-38.42027 33.04385,-64.30803 l 0.45652,-8.6572 -127.98931,0 0,3.94365 c 0,11.39634 4.57685,29.91911 10.07707,40.81121 8.23162,16.31236 20.84021,28.66818 35.14206,34.46243 l 5.19715,2.11626 0.21666,11.65814 0.21665,11.65813 -80.85381,0 0,-205.46175 -2.2362,-2.50056 -2.2607,-2.52507 -20.44171,-0.21666 -20.46622,-0.23987 0,-15.680449 c 0,-13.232758 -0.18184,-15.88679 -1.20192,-16.906877 -1.07554,-1.07554 -6.97941,-1.201923 -53.44172,-1.201923 l -52.23464,0 m 215.45628,56.202789 c -5.47443,0.0155 -9.78433,2.33163 -12.16883,6.54094 -1.69713,2.99578 -1.71906,3.58126 -1.73195,27.10774 l -0.0245,24.04878 -10.65352,0 c -9.82301,0 -10.86502,0.1367 -13.27532,1.75517 -1.68166,1.1297 -3.02415,2.91582 -3.75149,5.00242 -0.9943,2.85521 -0.9943,3.63801 0,6.49967 0.72734,2.0866 2.06983,3.86885 3.75149,5.00242 l 2.6218,1.75517 133.08845,0 2.98159,-2.98159 c 2.70949,-2.70949 2.9816,-3.36848 2.9816,-7.02197 0,-3.65348 -0.27211,-4.31248 -2.9816,-7.02196 l -2.98159,-2.98159 -22.50897,0 0,-24.50272 c 0,-24.22159 -0.0271,-24.5672 -1.75517,-27.13354 -0.96205,-1.42761 -2.95322,-3.40201 -4.42467,-4.40146 -2.28005,-1.54883 -3.41749,-1.77323 -7.69515,-1.53981 -5.94255,0.32499 -9.21689,2.24652 -11.54336,6.80531 -1.41858,2.78171 -1.5153,4.60909 -1.5153,26.88722 l 0,23.88113 -35.39998,0 0,-24.50272 c 0,-24.22159 -0.0271,-24.5672 -1.75517,-27.13354 -2.85908,-4.24284 -6.29204,-6.07539 -11.25448,-6.05991"
     inkscape:connector-curvature="0"
     style="fill:#BFBFBF" />
</svg>
