<?xml version="1.0" encoding="UTF-8" standalone="no"?>
<svg
   xmlns:dc="http://purl.org/dc/elements/1.1/"
   xmlns:cc="http://creativecommons.org/ns#"
   xmlns:rdf="http://www.w3.org/1999/02/22-rdf-syntax-ns#"
   xmlns:svg="http://www.w3.org/2000/svg"
   xmlns="http://www.w3.org/2000/svg"
   xmlns:sodipodi="http://sodipodi.sourceforge.net/DTD/sodipodi-0.dtd"
   xmlns:inkscape="http://www.inkscape.org/namespaces/inkscape"
   viewBox="0 0 512 512"
   id="svg2"
   version="1.1"
   inkscape:version="0.91 r13725"
   sodipodi:docname="4kvideodownloader.svg">
  <metadata
     id="metadata60">
    <rdf:RDF>
      <cc:Work
         rdf:about="">
        <dc:format>image/svg+xml</dc:format>
        <dc:type
           rdf:resource="http://purl.org/dc/dcmitype/StillImage" />
      </cc:Work>
    </rdf:RDF>
  </metadata>
  <defs
     id="defs58" />
  <sodipodi:namedview
     pagecolor="#ffffff"
     bordercolor="#666666"
     borderopacity="1"
     objecttolerance="10"
     gridtolerance="10"
     guidetolerance="10"
     inkscape:pageopacity="0"
     inkscape:pageshadow="2"
     inkscape:window-width="640"
     inkscape:window-height="480"
     id="namedview56"
     showgrid="false"
     inkscape:zoom="0.4609375"
     inkscape:cx="-8.6779661"
     inkscape:cy="237.55932"
     inkscape:current-layer="svg2" />
  <g
     id="g4209"
     transform="translate(407.86441,-349.28814)">
    <path
       id="path4"
       d="m -381.86441,349.28814 c -14.397,0 -26,11.603 -26,26 l 0,460 c 0,14.397 11.603,26 26,26 l 460.000003,0 c 14.397,0 25.999997,-11.603 25.999997,-26 l 0,-460 c 0,-14.397 -11.602997,-26 -25.999997,-26 l -460.000003,0"
       style="fill:#68ba37"
       inkscape:connector-curvature="0" />
    <path
       id="path52"
       d="m -118.77441,461.95814 c -43.572,0 -82.44,25.666 -99.88,65.61 -29.92,3.829 -55.3,22.927 -67.11,50.91 -44.96,1.863 -81.11,39.65 -81.11,85.08 0,23.596 9.54,44.977 24.965,60.4 l 137.33,137.33 282.710003,0 c 14.397,0 25.999997,-11.603 25.999997,-26 l 0,-195.62 -145.619997,-145.62 c -19.827,-19.827 -47.18,-32.09 -77.290003,-32.09"
       style="opacity:0.25"
       inkscape:connector-curvature="0" />
    <path
       id="path54"
       d="m -118.77441,461.95814 c -43.572,0 -82.44,25.665 -99.88,65.61 -29.92,3.829 -55.3,22.928 -67.11,50.911 -44.96,1.863 -81.1,39.651 -81.1,85.08 0,46.904 37.693,85.06 84.38,85.06 l 261.230003,0 c 46.695,0 84.38,-38.16 84.38,-85.06 0,-42.829 -30.93,-78.42 -72.7699998,-84.18 0.189,-2.581 0.3,-5.211 0.3,-7.779 0,-60.54 -49.1900002,-109.64 -109.4400032,-109.64 m -33.09,102.38 c 34.03,0 61.430003,27.397 61.430003,61.43 0,34.03 -27.397003,61.43 -61.430003,61.43 -34.03,0 -61.43,-27.397 -61.43,-61.43 0,-34.03 27.397,-61.43 61.43,-61.43 m 0,12.278 c -27.23,0 -49.15,21.926 -49.15,49.15 0,27.23 21.926,49.15 49.15,49.15 27.23,0 49.15,-21.926 49.15,-49.15 0,-27.23 -21.926,-49.15 -49.15,-49.15 m -14.337,12.298 28.675,0 0,36.853 20.476,0 -17.417,18.437 -17.397,18.417 -17.397,-18.417 -17.417,-18.437 20.476,0 0,-36.853"
       style="fill:#ffffff"
       inkscape:connector-curvature="0" />
  </g>
</svg>
