<?xml version="1.0" encoding="UTF-8" standalone="no"?>
<svg
   xmlns:dc="http://purl.org/dc/elements/1.1/"
   xmlns:cc="http://creativecommons.org/ns#"
   xmlns:rdf="http://www.w3.org/1999/02/22-rdf-syntax-ns#"
   xmlns:svg="http://www.w3.org/2000/svg"
   xmlns="http://www.w3.org/2000/svg"
   xmlns:sodipodi="http://sodipodi.sourceforge.net/DTD/sodipodi-0.dtd"
   xmlns:inkscape="http://www.inkscape.org/namespaces/inkscape"
   sodipodi:docname="accessories-camera.svg"
   height="100%"
   width="100%"
   inkscape:version="0.91 r13725"
   version="1.1"
   id="svg2"
   viewBox="0 0 512 512">
  <metadata
     id="metadata10">
    <rdf:RDF>
      <cc:Work
         rdf:about="">
        <dc:format>image/svg+xml</dc:format>
        <dc:type
           rdf:resource="http://purl.org/dc/dcmitype/StillImage" />
        <dc:title />
      </cc:Work>
    </rdf:RDF>
  </metadata>
  <defs
     id="defs8">
    <style
       type="text/css"
       id="style2464" />
    <style
       type="text/css"
       id="style2464-7" />
    <style
       type="text/css"
       id="style2464-7-7" />
    <style
       type="text/css"
       id="style2464-4" />
  </defs>
  <sodipodi:namedview
     pagecolor="#ffffff"
     bordercolor="#666666"
     borderopacity="1"
     objecttolerance="10"
     gridtolerance="10"
     guidetolerance="10"
     inkscape:pageopacity="0"
     inkscape:pageshadow="2"
     inkscape:window-width="1366"
     inkscape:window-height="709"
     id="namedview6"
     showgrid="false"
     showguides="true"
     inkscape:guide-bbox="true"
     inkscape:zoom="0.65186406"
     inkscape:cx="-28.461718"
     inkscape:cy="192.58506"
     inkscape:window-x="-2"
     inkscape:window-y="-3"
     inkscape:window-maximized="1"
     inkscape:current-layer="svg2">
    <sodipodi:guide
       orientation="0,1"
       position="260.08346,471.00503"
       id="guide2989" />
    <sodipodi:guide
       orientation="0,1"
       position="267.59322,40.983051"
       id="guide2991" />
    <sodipodi:guide
       orientation="1,0"
       position="40.940284,84.756935"
       id="guide2993" />
    <sodipodi:guide
       orientation="1,0"
       position="471.05085,254.98305"
       id="guide2995" />
  </sodipodi:namedview>
  <path
     inkscape:connector-curvature="0"
     style="fill:#808080;fill-opacity:1;stroke:none"
     d="M 26,0 C 11.60265,0 0,11.60265 0,26 l 0,460 c 0,14.39735 11.60265,26 26,26 l 460,0 c 14.39735,0 26,-11.60265 26,-26 L 512,26 C 512,11.60265 500.39735,0 486,0 L 26,0 Z"
     id="rect2986" />
  <path
     inkscape:connector-curvature="0"
     style="fill:#9d9d9d"
     d="m 0,96.41992 0,327.26367 512,0 0,-327.26367 -512,0 z"
     id="rect46569" />
  <path
     inkscape:connector-curvature="0"
     style="opacity:0.25"
     d="M 254.82031,65.08399 C 145.36674,65.12509 51.425,171.38385 66.20898,280.35742 70.22726,346.77561 117.5409,396.61239 163.70312,439.23633 187.9195,463.40105 212.20853,487.6842 236.52344,512 L 486,512 c 14.39735,0 26,-11.60265 26,-26 l 0,-249.51758 C 470.11679,194.72998 428.1757,153.03661 386.13477,111.46484 351.34168,81.69117 305.83686,64.97398 260.04492,65.17969 c -1.74171,-0.0549 -3.49662,-0.0957 -5.22461,-0.0957 z"
     id="path41054" />
  <path
     inkscape:connector-curvature="0"
     style="fill:#484043;fill-opacity:1"
     d="m 260.04569,103.83748 c 86.26823,0 156.21922,69.9455 156.21922,156.21921 0,86.26823 -69.94551,156.21922 -156.21922,156.21922 -86.26822,0 -156.21921,-69.94551 -156.21921,-156.21922 0,-86.26822 69.9455,-156.21921 156.21921,-156.21921 z"
     id="path3059" />
  <path
     inkscape:connector-curvature="0"
     style="fill:#ffffff"
     d="m 260.04492,65.17968 c -107.63094,0 -194.86523,87.23979 -194.86523,194.86524 0,107.63094 87.23978,194.86719 194.86523,194.86719 107.63094,0 194.86719,-87.24174 194.86719,-194.86719 0,-107.63094 -87.24173,-194.86524 -194.86719,-194.86524 z m 0,38.65821 c 86.26823,0 156.2207,69.94504 156.2207,156.21875 0,86.26823 -69.94699,156.21875 -156.2207,156.21875 -86.26822,0 -156.21875,-69.94504 -156.21875,-156.21875 0,-86.26822 69.94504,-156.21875 156.21875,-156.21875 z"
     id="path4149" />
  <path
     style="fill:#0078ad"
     inkscape:connector-curvature="0"
     id="path3839"
     d="m 260.04569,172.97384 c -48.09045,0 -87.06914,38.98006 -87.06914,87.06914 0,48.09045 38.98006,87.06913 87.06914,87.06913 48.09045,0 87.06914,-38.98006 87.06914,-87.06913 0,-48.09045 -38.98006,-87.06914 -87.06914,-87.06914 z" />
  <path
     style="opacity:0.25;fill:#ffffff"
     inkscape:connector-curvature="0"
     id="path3847"
     d="m 190.13036,169.31213 c -20.53574,0 -37.18075,16.645 -37.18075,37.18075 0,20.53574 16.64501,37.18075 37.18075,37.18075 20.53574,0 37.18075,-16.64501 37.18075,-37.18075 0,-20.53575 -16.64501,-37.18075 -37.18075,-37.18075 z" />
</svg>
