<?xml version="1.0" encoding="UTF-8" standalone="no"?>
<svg
   xmlns:dc="http://purl.org/dc/elements/1.1/"
   xmlns:cc="http://creativecommons.org/ns#"
   xmlns:rdf="http://www.w3.org/1999/02/22-rdf-syntax-ns#"
   xmlns:svg="http://www.w3.org/2000/svg"
   xmlns="http://www.w3.org/2000/svg"
   xmlns:sodipodi="http://sodipodi.sourceforge.net/DTD/sodipodi-0.dtd"
   xmlns:inkscape="http://www.inkscape.org/namespaces/inkscape"
   viewBox="0 0 512 512"
   id="svg2"
   version="1.1"
   inkscape:version="0.91 r13725"
   sodipodi:docname="agave.svg">
  <metadata
     id="metadata370">
    <rdf:RDF>
      <cc:Work
         rdf:about="">
        <dc:format>image/svg+xml</dc:format>
        <dc:type
           rdf:resource="http://purl.org/dc/dcmitype/StillImage" />
      </cc:Work>
    </rdf:RDF>
  </metadata>
  <defs
     id="defs368" />
  <sodipodi:namedview
     pagecolor="#ffffff"
     bordercolor="#666666"
     borderopacity="1"
     objecttolerance="10"
     gridtolerance="10"
     guidetolerance="10"
     inkscape:pageopacity="0"
     inkscape:pageshadow="2"
     inkscape:window-width="640"
     inkscape:window-height="480"
     id="namedview366"
     showgrid="false"
     inkscape:zoom="0.5546875"
     inkscape:cx="122.59155"
     inkscape:cy="213.6338"
     inkscape:current-layer="svg2" />
  <g
     id="g4519"
     transform="translate(423.66197,-358.76056)">
    <path
       id="path194"
       d="m -397.66197,358.76056 c -14.397,0 -26,11.603 -26,26 l 0,460 c 0,14.397 11.603,26 26,26 l 459.999998,0 c 14.397,0 26,-11.603 26,-26 l 0,-460 c 0,-14.397 -11.603,-26 -26,-26 l -459.999998,0"
       style="fill:#73b547"
       inkscape:connector-curvature="0" />
    <path
       id="path362"
       d="m -167.37197,417.80056 c -7.567,50.12 -26.12,177.25 -29.15,239.53 -0.139,2.86 -0.213,5.715 -0.25,8.564 l -120.91,-120.91 c 2.851,16.284 6.956,38.563 12.154,63.57 7.9,37.998 18.271,81.31 29.611,114.73 5.771,12.429 11.357,25.897 18.857,38.529 l -29.3,-29.3 c -15.332,-7.204 -32.408,-14.04 -49.07,-20.09 -25.881,-9.389 -47.29,-15.902 -63.07,-20.465 8.741,9.872 20.241,22.479 34.836,37.07 l 141.73,141.73 284.269998,0 c 14.397,0 26,-11.603 26,-26 l 0,-253.2 -40.949,-40.949 c -16.16,3.929 -40.2599998,10.83 -60.22,21.721 l -154.529998,-154.54"
       style="opacity:0.25"
       inkscape:connector-curvature="0" />
    <path
       id="path364"
       d="m -167.37197,417.80056 c -7.567,50.12 -26.12,177.25 -29.15,239.53 -0.689,14.159 -0.079,28.24 1.42,41.766 1.743,13.13 1.328,14.277 7.393,41.724 5.074,21.235 11.273,39.11 15.996,51.33 1.188,-3.553 2.535,-7.586 4.051,-12.03 7.21,-21.376 3.363,-10.01 8.854,-25.352 11.01,-30.936 24.15,-65.53 34.415,-82.82 2.858,-4.813 6.101,-9.847 9.606,-14.994 -0.366,-86.19 -36.23,-194.18 -52.583,-239.15 m -150.31,127.18 c 2.851,16.284 6.955,38.564 12.154,63.57 7.9,37.998 18.271,81.31 29.612,114.73 14.665,31.583 28.08,69.898 74.969,84.07 6.492,1.892 14.369,3.102 22.22,3.842 l 0,-0.71 c -5.416,-15.586 -0.617,-0.92 -6.265,-17.17 -7.814,-21.06 -18.02,-53.697 -22.428,-90.13 -5.376,-10.04 -10.146,-18.743 -13.699,-24.725 -9.101,-15.325 -37.491,-54.45 -63.23,-89.13 -17.481,-23.549 -24.618,-32.86 -33.33,-44.36 z m 365.069998,5.638 c -19.762,4.805 -51.4099998,14.05 -72.839,29.612 -27.13,19.698 -56.57,52.27 -76.559998,80.73 -8.599,13.788 -0.248,0.648 -13.824,21.927 -8.74,16.586 -20.933,48.17 -30.907,76.18 -2.628,7.381 -4.907,13.968 -7.02,20.09 -4.307,22.382 10.717,11.166 24.475,-2.965 10.233,-11.652 20.678,-22.68 28.818,-28.19 13.265998,-8.983 29.496998,-17.561 46.735998,-25.519 7.695,-23.336 15.209,-50.31 40.68,-93.22 8.5510002,-14.408 26.496,-37.32 42.517,-57.09 9.558,-11.795 12.342,-14.932 17.917,-21.551 m -445.889998,141.33 c 10.537,11.9 25.09,27.777 44.23,46.32 32.884,31.847 74.12,64.47 100.91,69.08 9.542,1.643 18.522,2.751 26.939,3.508 -25.648,-13.337 -41.25,-34.08 -51.08,-56.01 -3.02,-6.75 -5.99,-14.27 -8.854,-22.345 -15.332,-7.204 -32.408,-14.04 -49.07,-20.09 -25.881,-9.389 -47.29,-15.902 -63.07,-20.465 m 461.679998,0.501 c -12.12,3.774 -28.28,8.964 -46.44,15.453 -19.1699998,6.852 -40.26,15.04 -60.02,23.932 -10.49,4.408 -3.041,0.98 -16.623,7.852 -12.413,6.133 -23.867,12.484 -33.371,18.92 -6.958998,4.712 -22.324998,21.12 -34.831998,35.793 -5.467,6.412 -8.544,10.202 -11.193,13.532 0.111,0.223 0.275,0.549 0.376,0.752 18.791,3.192 15.407,3.493 30.865,2.589 7.664,-0.932 16.375998,-2.179 26.520998,-3.926 26.784,-4.612 68.02,-37.23 100.91,-69.08 18.725,-18.13 33.25,-33.914 43.812,-45.817 z"
       style="fill:#ffffff"
       inkscape:connector-curvature="0" />
  </g>
</svg>
