<?xml version="1.0" encoding="UTF-8" standalone="no"?>
<!-- Created with Inkscape (http://www.inkscape.org/) -->

<svg
   xmlns:dc="http://purl.org/dc/elements/1.1/"
   xmlns:cc="http://creativecommons.org/ns#"
   xmlns:rdf="http://www.w3.org/1999/02/22-rdf-syntax-ns#"
   xmlns:svg="http://www.w3.org/2000/svg"
   xmlns="http://www.w3.org/2000/svg"
   xmlns:sodipodi="http://sodipodi.sourceforge.net/DTD/sodipodi-0.dtd"
   xmlns:inkscape="http://www.inkscape.org/namespaces/inkscape"
   id="svg2"
   height="100%"
   width="100%"
   version="1.1"
   viewBox="0 0 512 512"
   inkscape:version="0.91 r13725"
   sodipodi:docname="alchemy.svg">
  <defs
     id="defs32" />
  <sodipodi:namedview
     pagecolor="#ffffff"
     bordercolor="#666666"
     borderopacity="1"
     objecttolerance="10"
     gridtolerance="10"
     guidetolerance="10"
     inkscape:pageopacity="0"
     inkscape:pageshadow="2"
     inkscape:window-width="640"
     inkscape:window-height="480"
     id="namedview30"
     showgrid="false"
     inkscape:zoom="0.5546875"
     inkscape:cx="36.056338"
     inkscape:cy="240.67606"
     inkscape:current-layer="svg2" />
  <metadata
     id="metadata60">
    <rdf:RDF>
      <cc:Work
         rdf:about="">
        <dc:format>image/svg+xml</dc:format>
        <dc:type
           rdf:resource="http://purl.org/dc/dcmitype/StillImage" />
      </cc:Work>
    </rdf:RDF>
  </metadata>
  <g
     id="g3381"
     transform="translate(337.12677,-344.33802)">
    <rect
       x="-337.13327"
       y="344.33401"
       width="512"
       height="512"
       rx="25.988001"
       id="rect4"
       style="fill:#ef6a47" />
    <path
       d="m -10.473261,385.71403 c -5.84,0.073 -11.792,0.74 -17.469,0.219 -19.13,1.714 -13.486,23.26 -14.344,36.438 l 0,52.5 c -28.865,-28.55 -57.35,-57.5 -86.249999,-86.03 -9.815,-5.411 -22.481,-1.914 -33.34,-2.906 l -0.031,0 c -28.717,6.773 -5.738,31.723 7.25,41.813 6.426,7.148 1.596,18.967 3.094,28.16 -0.455,30.892 0.917,62.07 -0.656,92.78 l -87.09,228.31 c -5.198,23.411 19.18,36.33 32.16,51.594 9.226,9.256 18.48,18.506 27.719,27.75 l 328.31,0 c 14.397,0 26,-11.603 26,-26 l 0,-272.78 c -56.19,-56.2 -112.350001,-112.43 -168.6200006,-168.56 -5.157,-2.844 -10.878,-3.354 -16.7190004,-3.281"
       id="path6"
       style="fill-opacity:0.23500001"
       inkscape:connector-curvature="0" />
    <path
       d="m 78.016739,782.11403 c 0,17.996 -14.635,32.636 -32.629,32.636 l -253.039999,0 c -18.01,0 -32.64,-14.645 -32.64,-32.636 0,-1.745 0.323,-3.479 0.944,-5.111 l 87.65,-229.69 c 0.03,-0.364 0.082,-0.728 0.128,-1.087 l 0,-131.62 -10.355,0 c -7.927,0 -14.342,-6.424 -14.342,-14.347 0,-7.923 6.413,-14.347 14.342,-14.347 l 24.698,0 c 7.927,0 14.353,6.424 14.353,14.347 l 0,147.06 c 0,0.825 -0.072,1.642 -0.21,2.458 0,1.75 -0.42,4.105 -1.052,5.731 l -52.791,138.35 190.349999,0 -54.54,-138.18 c -0.589,-1.488 -0.923,-3.061 -0.99,-4.654 l -0.117,-0.867 c -0.061,-0.565 -0.093,-1.129 -0.093,-1.694 l 0,-148.19 c 0,-7.923 6.413,-14.347 14.342,-14.347 l 25.3430004,0 c 7.927,0 14.3419996,6.424 14.3419996,14.347 0,7.923 -6.4129996,14.347 -14.3419996,14.347 l -11.0100004,0 0,132.56 90.65,229.67 c 0.663,1.683 1.01,3.463 1.01,5.27 m -186.939999,-120.21 c 0,-5.932 4.819,-10.768 10.752999,-10.768 5.937,0 10.768,4.823 10.768,10.768 0,5.926 -4.828,10.768 -10.768,10.768 -5.936999,0 -10.752999,-4.834 -10.752999,-10.768 m 7.163,0 c 0,1.975 1.611,3.582 3.586999,3.582 1.975,0 3.587,-1.607 3.587,-3.582 0,-1.981 -1.611,-3.587 -3.587,-3.587 -1.974999,0 -3.586999,1.607 -3.586999,3.587 m 48.419999,-10.768 c 0,-5.932 4.828,-10.768 10.768,-10.768 5.937,0 10.753,4.823 10.753,10.768 0,5.926 -4.819,10.768 -10.753,10.768 -5.937,0 -10.768,-4.828 -10.768,-10.768 m 7.173,0 c 0,1.975 1.611,3.582 3.587,3.582 1.975,0 3.587,-1.607 3.587,-3.582 0,-1.98 -1.611,-3.587 -3.587,-3.587 -1.975,0 -3.587,1.611 -3.587,3.587 m -37.07,-35.863 c 0,-8.241 6.706,-14.947 14.953,-14.947 8.235,0 14.942,6.706 14.942,14.947 0,8.235 -6.706,14.947 -14.942,14.947 -8.252,0 -14.953,-6.706 -14.953,-14.947 m 7.173,0 c 0,4.284 3.489,7.774 7.78,7.774 4.28,0 7.78,-3.489 7.78,-7.774 0,-4.29 -3.5,-7.78 -7.78,-7.78 -4.29,0 -7.78,3.489 -7.78,7.78"
       id="path54"
       style="fill:#ffffff"
       inkscape:connector-curvature="0" />
  </g>
</svg>
