<?xml version="1.0" encoding="UTF-8" standalone="no"?>
<!-- Created with Inkscape (http://www.inkscape.org/) -->

<svg
   xmlns:dc="http://purl.org/dc/elements/1.1/"
   xmlns:cc="http://creativecommons.org/ns#"
   xmlns:rdf="http://www.w3.org/1999/02/22-rdf-syntax-ns#"
   xmlns:svg="http://www.w3.org/2000/svg"
   xmlns="http://www.w3.org/2000/svg"
   xmlns:sodipodi="http://sodipodi.sourceforge.net/DTD/sodipodi-0.dtd"
   xmlns:inkscape="http://www.inkscape.org/namespaces/inkscape"
   id="svg2"
   height="100%"
   width="100%"
   version="1.1"
   viewBox="0 0 512 512"
   inkscape:version="0.91+devel r13804 custom"
   sodipodi:docname="amazon.svg">
  <defs
     id="defs36" />
  <sodipodi:namedview
     pagecolor="#ffffff"
     bordercolor="#666666"
     borderopacity="1"
     objecttolerance="10"
     gridtolerance="10"
     guidetolerance="10"
     inkscape:pageopacity="0"
     inkscape:pageshadow="2"
     inkscape:window-width="1366"
     inkscape:window-height="709"
     id="namedview34"
     showgrid="false"
     inkscape:zoom="0.4609375"
     inkscape:cx="-8.6779661"
     inkscape:cy="237.55932"
     inkscape:window-x="0"
     inkscape:window-y="0"
     inkscape:window-maximized="0"
     inkscape:current-layer="svg2" />
  <metadata
     id="metadata68">
    <rdf:RDF>
      <cc:Work
         rdf:about="">
        <dc:format>image/svg+xml</dc:format>
        <dc:type
           rdf:resource="http://purl.org/dc/dcmitype/StillImage" />
      </cc:Work>
    </rdf:RDF>
  </metadata>
  <rect
     style="fill:#343030"
     id="rect4"
     rx="25.988001"
     height="512"
     width="512"
     y="-0.0030004394"
     x="-0.0029961523" />
  <path
     inkscape:connector-curvature="0"
     style="fill-opacity:0.23500001;fill-rule:evenodd"
     id="path6"
     d="m 247.307,76.62701 c -47.41,0.886 -101.19,30.899 -102.28,82.25 14.173,15.358 29.49,29.665 44.09,44.625 -59.658,21.917 -72.02,111.7 -21.844,149.84 16.14,16.12 32.29,32.24 48.38,48.41 -60.01,-5.972 -118.29,-25.672 -170.72,-55.03 -9.329,7.07 9.801,15.93 14,23.281 47.35,47.18 94.74,94.58 142.13,142 l 284.94,0 c 14.397,0 26,-11.603 26,-26 l 0,-204.5 c -61.1,-61.07 -122.23999,-122.07 -183.5,-182.97 -20.1,-15.945 -46.693,-21.363 -71.813,-21.688 -3.086,-0.202 -6.215,-0.278 -9.375,-0.219" />
  <path
     d="m 256.66657,76.840294 c -47.68395,0 -100.94793,17.7439 -112.16795,76.715506 -1.1283,6.27792 3.40182,9.60289 7.49385,10.52059 l 48.6616,5.23571 c 4.51476,-0.21214 7.84895,-4.65772 8.69441,-9.17555 4.1612,-20.31563 21.23488,-30.1199 40.3515,-30.1199 10.29924,0 22.0127,3.7769 28.15074,13.01855 6.9835,10.29924 6.0043,24.44302 6.0043,36.364 l 0,6.4378 c -29.06384,3.31574 -67.06803,5.44476 -94.29184,17.43799 -31.39116,13.54427 -53.46536,41.29688 -53.46536,81.99425 0,52.12953 32.89916,78.1574 75.083,78.1574 35.69378,0 55.16088,-8.38543 82.67215,-36.46085 9.17094,13.19072 12.12697,19.60853 28.77485,33.4341 3.73847,1.9753 8.50225,1.76163 11.81799,-1.20055 l 0.19215,0.0968 c 10.0164,-8.88809 28.15382,-24.7028 38.38235,-33.24195 4.09203,-3.38645 3.43718,-8.84043 0.19215,-13.35519 -9.17093,-12.69727 -18.92754,-23.01035 -18.92754,-46.5003 l 0,-78.10974 c 0,-33.08362 2.35806,-63.48636 -22.0496,-86.26767 C 312.97728,83.344187 281.0773,76.841831 256.66657,76.841831 m 27.18999,149.246749 0,10.80652 c 0,19.53934 0.50881,35.87209 -9.3677,53.22555 -7.97191,14.10842 -20.57542,22.81819 -34.68384,22.81819 -19.25804,0 -30.45654,-14.70793 -30.45654,-36.364 0,-42.748 38.24707,-50.4878 74.50808,-50.4878"
     id="path56"
     inkscape:connector-curvature="0"
     style="fill:#ffffff;fill-rule:evenodd" />
  <path
     style="fill:#ffa319;fill-rule:evenodd"
     inkscape:connector-curvature="0"
     id="path60"
     d="m 439.39353,338.25653 c -15.04765,0.20752 -32.82383,3.57245 -46.28509,13.0416 -4.1612,2.89147 -3.4341,6.92662 1.18518,6.36247 15.16602,-1.79852 48.9383,-5.87057 54.93492,1.81851 6.03197,7.71674 -6.69143,39.53063 -12.37446,53.70977 -1.72782,4.30262 1.96915,6.01199 5.84904,2.76696 25.28848,-21.12728 31.78623,-65.38788 26.63814,-71.77187 -2.57481,-3.17432 -14.9093,-6.13497 -29.95695,-5.92898" />
  <path
     style="fill:#ffa319;fill-rule:evenodd"
     inkscape:connector-curvature="0"
     id="path62"
     d="m 44.917268,346.71113 c -3.68928,-0.20599 -5.598482,3.99364 -2.015269,7.23252 56.115486,50.68302 130.277701,81.178 212.671621,81.178 58.76715,0 127.00346,-18.52326 174.0879,-53.23478 7.79514,-5.78448 1.13445,-14.37282 -6.83747,-10.98636 -52.77207,22.397 -110.15575,33.15894 -162.31294,33.15894 -77.35191,0 -152.22892,-21.16264 -212.779229,-56.3968 -0.991494,-0.5826 -1.955318,-0.9008 -2.80539,-0.94845" />
</svg>
