<?xml version="1.0" encoding="UTF-8" standalone="no"?>
<svg
   xmlns:dc="http://purl.org/dc/elements/1.1/"
   xmlns:cc="http://creativecommons.org/ns#"
   xmlns:rdf="http://www.w3.org/1999/02/22-rdf-syntax-ns#"
   xmlns:svg="http://www.w3.org/2000/svg"
   xmlns="http://www.w3.org/2000/svg"
   xmlns:xlink="http://www.w3.org/1999/xlink"
   xmlns:sodipodi="http://sodipodi.sourceforge.net/DTD/sodipodi-0.dtd"
   xmlns:inkscape="http://www.inkscape.org/namespaces/inkscape"
   sodipodi:docname="android-sdk.svg"
   height="100%"
   width="100%"
   inkscape:version="0.91+devel r13804 custom"
   version="1.1"
   id="svg2"
   viewBox="0 0 512 512">
  <sodipodi:namedview
     pagecolor="#ffffff"
     bordercolor="#666666"
     borderopacity="1"
     objecttolerance="10"
     gridtolerance="10"
     guidetolerance="10"
     inkscape:pageopacity="0"
     inkscape:pageshadow="2"
     inkscape:window-width="1366"
     inkscape:window-height="709"
     id="namedview6"
     showgrid="false"
     showguides="true"
     inkscape:guide-bbox="true"
     inkscape:zoom="0.32593203"
     inkscape:cx="220.25602"
     inkscape:cy="215.38763"
     inkscape:window-x="-2"
     inkscape:window-y="-3"
     inkscape:window-maximized="1"
     inkscape:current-layer="svg2">
    <sodipodi:guide
       id="guide2989"
       position="260.08346,471.00503"
       orientation="0,1" />
    <sodipodi:guide
       id="guide2991"
       position="267.59322,40.983051"
       orientation="0,1" />
    <sodipodi:guide
       id="guide2993"
       position="40.940284,84.756935"
       orientation="1,0" />
    <sodipodi:guide
       id="guide2995"
       position="471.05085,254.98305"
       orientation="1,0" />
  </sodipodi:namedview>
  <metadata
     id="metadata10">
    <rdf:RDF>
      <cc:Work
         rdf:about="">
        <dc:format>image/svg+xml</dc:format>
        <dc:type
           rdf:resource="http://purl.org/dc/dcmitype/StillImage" />
        <dc:title></dc:title>
      </cc:Work>
    </rdf:RDF>
  </metadata>
  <defs
     id="defs8">
    <style
       id="style2464"
       type="text/css" />
    <style
       id="style2464-7"
       type="text/css" />
    <style
       id="style2464-7-7"
       type="text/css" />
    <style
       id="style2464-4"
       type="text/css" />
    <linearGradient
       gradientTransform="translate(-584.28931,-38.539938)"
       id="0"
       y2="325.15"
       gradientUnits="userSpaceOnUse"
       x2="550.18"
       y1="179.42"
       x1="-13.425">
      <stop
         stop-color="#7daf16"
         offset="0"
         id="stop9547" />
      <stop
         stop-color="#b3e945"
         offset=".5"
         id="stop9549" />
      <stop
         stop-color="#78a41d"
         offset="1"
         id="stop9551" />
    </linearGradient>
    <linearGradient
       gradientUnits="userSpaceOnUse"
       y2="387.92935"
       x2="585.63501"
       y1="142.4794"
       x1="-55.226238"
       id="linearGradient10497"
       xlink:href="#0"
       inkscape:collect="always"
       gradientTransform="translate(9e-5)" />
  </defs>
  <path
     id="rect2986"
     d="m 26.00009,0 c -14.39735,0 -26,11.60265 -26,26 l 0,460 c 0,14.39735 11.60265,26 26,26 l 460,0 c 14.39735,0 26,-11.60265 26,-26 l 0,-460 c 0,-14.39735 -11.60265,-26 -26,-26 l -460,0 z"
     style="fill:url(#linearGradient10497);fill-opacity:1;stroke:none"
     inkscape:connector-curvature="0" />
  <path
     inkscape:connector-curvature="0"
     style="opacity:0.25;fill:#000000"
     d="m 147.79306,82.72656 c -0.47578,0.005 -0.96624,0.0968 -1.44336,0.25586 -2.52161,0.85231 -3.86718,3.58607 -3.01758,6.11719 l 6.9668,20.60742 3.10156,9.17578 3.14453,9.30274 c -44.60034,7.83803 -80.77274,35.61518 -91.49805,75.65625 l 27.42188,27.42187 -30.41406,-8.14844 -1.99024,-0.54882 -6.0625,22.63867 -27.6875,-27.6875 c -3.47896,-3.47896 -7.88908,-6.1185 -12.97851,-7.48242 -2.90222,-0.77755 -5.8141,-1.09134 -8.66602,-0.97852 l -0.008,-0.004 c -1.57856,0.0626 -3.13634,0.25894 -4.66211,0.57236 l 0,160.60156 13.75977,13.75977 -13.75977,46.875 0,55.13867 c 0,0.45883 0.0119,0.91431 0.0352,1.36719 3e-5,6.4e-4 -4e-5,0.001 0,0.002 0.0224,0.43489 0.0563,0.86605 0.0996,1.29492 0.0333,0.32974 0.0776,0.65651 0.12304,0.98242 0.016,0.11491 0.0274,0.23129 0.0449,0.34571 0.0431,0.28191 0.0983,0.55908 0.15039,0.83789 0.0281,0.15071 0.0513,0.30335 0.082,0.45312 0.0438,0.2135 0.0975,0.42325 0.14648,0.63477 0.0521,0.22502 0.10034,0.45112 0.1582,0.67383 0.0419,0.16132 0.0899,0.32039 0.13477,0.48047 0.0703,0.25065 0.13924,0.50251 0.2168,0.75 0.0694,0.22159 0.14751,0.43923 0.22265,0.6582 0.0622,0.18127 0.12142,0.36355 0.1875,0.54297 0.0726,0.19724 0.15129,0.391 0.22852,0.58594 0.0855,0.21581 0.1687,0.43358 0.25976,0.64648 0.0597,0.13953 0.12547,0.27581 0.1875,0.41406 0.11504,0.25638 0.23051,0.51183 0.35352,0.76367 0.0661,0.13541 0.13667,0.26828 0.20508,0.40235 0.11937,0.23393 0.23906,0.46753 0.36523,0.69726 0.0977,0.17798 0.20097,0.35196 0.30274,0.52735 0.10803,0.1862 0.21563,0.37342 0.32812,0.55664 0.10695,0.17417 0.21917,0.34422 0.33008,0.51562 0.12014,0.18571 0.23856,0.37231 0.36328,0.55469 0.1136,0.1661 0.23228,0.32891 0.34961,0.49219 0.12904,0.17958 0.25715,0.35906 0.39062,0.53515 0.11955,0.15772 0.24415,0.31194 0.36719,0.4668 0.13677,0.17213 0.27305,0.34515 0.41406,0.51367 0.12674,0.15146 0.25662,0.29879 0.38672,0.44727 0.15143,0.17282 0.30309,0.34496 0.45899,0.51367 0.1318,0.14261 0.2674,0.28227 0.40234,0.42187 0.14935,0.15454 0.3,0.3082 0.45313,0.45899 C 12.43664,509.15382 18.87395,512 25.99987,512 l 460,0 c 14.39735,0 26,-11.60265 26,-26 l 0,-211.1582 -95.1072,-95.10742 c -3.47348,-3.47347 -7.87953,-6.10669 -12.96875,-7.4668 -2.89898,-0.77631 -5.84759,-1.08981 -8.69531,-0.97852 l -0.0195,-0.0195 c -9.29387,0.36706 -17.88218,5.22249 -23.00586,12.96289 l -55.84179,-55.8418 c -1.80475,-1.80476 -4.68938,-1.94719 -6.62305,-0.24218 l -17.50195,15.3789 -7.34961,6.49805 -7.47656,6.54297 C 262.2807,145.5019 244.44707,136.79022 224.56654,131.46292 214.12738,128.66557 203.70792,126.971 193.46497,126.27542 L 151.34384,84.15429 c -0.5956,-0.5956 -1.33431,-1.02782 -2.13672,-1.24804 -0.44995,-0.1237 -0.92793,-0.17536 -1.40234,-0.16993 l -0.0117,-0.01 z"
     id="path10555" />
  <path
     inkscape:connector-curvature="0"
     style="fill:#ffffff"
     d="m 147.79306,82.72656 c -0.47578,0.005 -0.96624,0.0968 -1.44336,0.25586 -2.52161,0.85231 -3.86718,3.58607 -3.01758,6.11719 l 6.9668,20.60742 3.10156,9.17578 3.14453,9.30274 c -44.60034,7.83803 -80.77274,35.61518 -91.49805,75.65625 l 261.51172,70.09179 c 10.72529,-40.02884 -6.71235,-82.21251 -41.41797,-111.28906 l 7.39258,-6.45703 7.26368,-6.41602 16.35351,-14.35742 c 2.00234,-1.76716 2.16788,-4.79046 0.42383,-6.79687 -1.78347,-2.01727 -4.8241,-2.24269 -6.83594,-0.46875 l -17.50195,15.3789 -7.34961,6.49805 -7.47656,6.54297 c -15.12959,-11.06649 -32.96322,-19.77817 -52.84375,-25.10547 -19.86013,-5.32186 -39.65328,-6.69247 -58.28321,-4.67383 l -3.18554,-9.38672 -3.10157,-9.30468 -7.47656,-22.04688 c -0.53151,-1.58229 -1.81177,-2.73265 -3.3125,-3.14453 -0.44995,-0.1237 -0.92793,-0.17536 -1.40234,-0.16993 l -0.0117,-0.01 z m 6.22656,75.28516 c 1.07884,0.0323 2.16693,0.18202 3.25781,0.47461 7.73743,2.07301 12.31674,10.05961 10.23828,17.79297 -2.07301,7.73742 -9.97681,12.31674 -17.71289,10.23828 -7.75782,-2.07844 -12.39527,-10.01919 -10.32226,-17.75391 1.68423,-6.287 7.27298,-10.50472 13.46484,-10.74805 l 0,0.002 c 0.35717,-0.0139 0.71461,-0.0166 1.07422,-0.006 z m 241.18945,13.25781 c -12.3565,0.48801 -23.47178,8.90577 -26.8457,21.49609 l -32.11523,119.88086 c -4.14466,15.46671 5.03143,31.35991 20.51172,35.51954 15.46672,4.14466 31.37351,-5.05044 35.51953,-20.51172 l 32.11523,-119.88086 c 4.14874,-15.48573 -5.00807,-31.37342 -20.4707,-35.50586 -2.90358,-0.77754 -5.85707,-1.09134 -8.70899,-0.97852 l -0.006,-0.0195 z M 266.09775,188.0625 c 1.09094,0.0324 2.20608,0.18299 3.29492,0.47461 7.75646,2.07845 12.31477,10.05962 10.23633,17.79297 -2.07301,7.73743 -9.99821,12.31674 -17.75196,10.23828 -7.73743,-2.07301 -12.35698,-10.0192 -10.28125,-17.75391 1.68388,-6.28568 7.24188,-10.49842 13.41992,-10.74609 0.3565,-0.0143 0.71839,-0.0166 1.08204,-0.006 z M 4.6622,209.05273 C 3.08364,209.11523 1.52586,209.31158 9e-5,209.625 l 0,160.60156 c 0.70241,-1.50707 1.28881,-3.08736 1.73437,-4.75 L 33.8497,245.5957 c 4.14875,-15.48574 -5.04289,-31.41452 -20.51367,-35.56054 -2.90222,-0.77755 -5.8141,-1.09134 -8.66602,-0.97852 l -0.008,-0.004 z m 55.40234,13.51368 -6.24609,23.32617 -5.09766,18.99023 L 9e-5,430.86133 9e-5,486 c 0,14.39735 11.60265,26 26,26 l 232.46289,0 c 3.74413,-3.69237 6.59022,-8.38985 8.04688,-13.82617 l 43.75781,-163.20313 5.05469,-18.98828 6.24609,-23.32812 -1.99805,-0.55078 -257.51562,-68.98829 -1.99024,-0.54882 z"
     id="path9557" />
</svg>
