<?xml version="1.0" encoding="UTF-8" standalone="no"?>
<!-- Created with Inkscape (http://www.inkscape.org/) -->

<svg
   xmlns:dc="http://purl.org/dc/elements/1.1/"
   xmlns:cc="http://creativecommons.org/ns#"
   xmlns:rdf="http://www.w3.org/1999/02/22-rdf-syntax-ns#"
   xmlns:svg="http://www.w3.org/2000/svg"
   xmlns="http://www.w3.org/2000/svg"
   xmlns:sodipodi="http://sodipodi.sourceforge.net/DTD/sodipodi-0.dtd"
   xmlns:inkscape="http://www.inkscape.org/namespaces/inkscape"
   id="svg2"
   height="100%"
   width="100%"
   version="1.1"
   viewBox="0 0 512 512"
   inkscape:version="0.91 r13725"
   sodipodi:docname="anjuta.svg">
  <defs
     id="defs32" />
  <sodipodi:namedview
     pagecolor="#ffffff"
     bordercolor="#666666"
     borderopacity="1"
     objecttolerance="10"
     gridtolerance="10"
     guidetolerance="10"
     inkscape:pageopacity="0"
     inkscape:pageshadow="2"
     inkscape:window-width="640"
     inkscape:window-height="480"
     id="namedview30"
     showgrid="false"
     inkscape:zoom="0.5546875"
     inkscape:cx="36.056338"
     inkscape:cy="240.67606"
     inkscape:current-layer="svg2" />
  <metadata
     id="metadata60">
    <rdf:RDF>
      <cc:Work
         rdf:about="">
        <dc:format>image/svg+xml</dc:format>
        <dc:type
           rdf:resource="http://purl.org/dc/dcmitype/StillImage" />
      </cc:Work>
    </rdf:RDF>
  </metadata>
  <g
     id="g3381"
     transform="translate(396.61972,-308.28168)">
    <rect
       x="-396.62122"
       y="308.28168"
       width="512"
       height="512"
       rx="25.988001"
       id="rect4"
       style="fill:#924565" />
    <path
       d="m -128.99122,349.28169 c -28.769,0.376 -77.25,6.944 -47.28,19.719 3.374,6.755 15.48,14.285 18.844,21.06 29.615,20.674 -12.365,-2.728 -34.16,0.219 -4.921,-3.958 -8.701,-7.814 -11.5,-11.5 -12.963,-16.854 -21.12,-1.182 -7.469,5.719 10.457,8.607 3.326,11.01 11.438,20.5 21.22,13.495 -8.649,11.889 -13.344,1.969 -4.897,-4.467 -9.629,-8.744 -14.03,-14.344 -8.188,-4.707 -12.596,-21.691 -27.469,-5.281 -85,55.16 -110.79,164.95 -99.47,260.31 9.877,23.58 15.12,22.624 22,31.938 4.697,5.929 12.699,4.244 15.313,25.19 38.24,38.53 76.54,77.03 114.91,115.5 l 290.590002,0 c 14.396998,0 25.999998,-11.603 25.999998,-26 l 0,-275.72 c -39.089998,-40.37 -77.991998,-80.934 -118.4099983,-119.94 -36.5719997,-27.07 -60.0499997,-42.36 -110.4700017,-49.12 l -10.03,-0.22 c -1.714,-0.03 -3.551,-0.025 -5.469,0"
       style="color:#000000;fill-opacity:0.23500001"
       id="path6"
       inkscape:connector-curvature="0" />
    <path
       d="m -130.22122,349.35169 c -20.18,0.462 -40.03,3.415 -59.25,8.67 4.719,2.097 9.372,4.331 14.203,6.306 11.405,-4.25 28.724,-8.677 52.35,-8.276 24.050002,0.409 62.220002,11.238 84.410002,18.13 a 223.39,216.93 0 0 0 -63.710002,-24.039 c -0.414,-0.04 -0.807,0.041 -1.216,0 -8.938,-0.713 -17.883,-0.993 -26.785,-0.789 m -15.429,15.368 c -9.3,0.438 -16.712,1.079 -23.14,1.97 3.293,1.306 6.433,2.678 9.74,3.94 0.423,0 0.794,-0.002 1.216,0 30.415,0.137 66.050002,6.965 107.540002,21.674 -26.14,-6.497 -52.550002,-10.35 -77.923002,-10.246 33.170002,12.09 63.520002,23.323 79.540002,37.437 l -1.624,16.16 c 0,0 70.77,30.522 116.87,70.54 a 223.39,216.93 0 0 0 -101.05,-129.66 c -47.538,-11.06 -84.900002,-13.06 -111.200002,-11.823 m -73.05,3.547 c 0.371,4.526 0.917,8.551 2.03,12.224 3.646,-1.358 7.481,-2.855 11.363,-3.94 -4.45,-2.48 -9.01,-5.03 -13.392,-8.276 m -21.503,10.64 c -74.77,42.1 -126.9,130.01 -113.22,268.37 0.012,0.134 -0.012,0.262 0,0.394 a 223.39,216.93 0 0 0 10.551,20.492 c -5.3,-63.01 -3.168,-107.77 19.07,-173.4 0,0 -18.374,85.05 7.707,210.04 0.029,0.133 -0.029,0.259 0,0.391 a 223.39,216.93 0 0 0 15.015,14.975 c -28.325,-115.31 -29.996,-277 65.745,-331.03 -1.755,-3.048 -3.454,-6.483 -4.87,-10.246 m 60.47,9.459 c -9.248,2.417 -17.923,5.897 -26.379,9.853 12.426,12.526 30.659,14.435 39.36,13.796 0,0 -30.598,10.332 -53.978,-6.306 -66.883,41.647 -97.76,143.85 -34.901,347.19 a 223.39,216.93 0 0 0 0.40478,0 223.39,216.93 0 0 0 106.32,26.403 223.39,216.93 0 0 0 221.980002,-240.39 c -8.238,12.401 -18.669,32.06 -23.943,59.51 0,0 -107.25,-69.03 -191.950002,-16.16 0,0 -116.43,-56.71 -43.828,-136.36 0,0 22.396,11.724 34.495,16.94 -59.823,42.43 13.392,93.4 13.392,93.4 0,0 59.550002,-57.27 172.480002,6.7 0,0 8.178,-26.05 18.261,-31.92 -56.4600003,-52.872 -133.92,-79.21 -133.92,-79.21 l 1.624,-23.25 c -47.523002,-22.879 -76.820002,-31.69 -99.430002,-40.2 m 51.54,39.801 c 0,0 22.647,7.093 34.090002,7.093 0,0 0.789,16.326 -15.414002,20.493 -12.395,-3.704 -18.667,-27.592 -18.667,-27.592"
       style="color:#000000;fill:#ffffff"
       id="path54"
       inkscape:connector-curvature="0" />
  </g>
</svg>
