<?xml version="1.0" encoding="UTF-8" standalone="no"?>
<!-- Created with Inkscape (http://www.inkscape.org/) -->

<svg
   xmlns:dc="http://purl.org/dc/elements/1.1/"
   xmlns:cc="http://creativecommons.org/ns#"
   xmlns:rdf="http://www.w3.org/1999/02/22-rdf-syntax-ns#"
   xmlns:svg="http://www.w3.org/2000/svg"
   xmlns="http://www.w3.org/2000/svg"
   xmlns:sodipodi="http://sodipodi.sourceforge.net/DTD/sodipodi-0.dtd"
   xmlns:inkscape="http://www.inkscape.org/namespaces/inkscape"
   id="svg2"
   height="100%"
   width="100%"
   version="1.1"
   viewBox="0 0 512 512"
   inkscape:version="0.91 r13725"
   sodipodi:docname="aptana.svg">
  <defs
     id="defs32" />
  <sodipodi:namedview
     pagecolor="#ffffff"
     bordercolor="#666666"
     borderopacity="1"
     objecttolerance="10"
     gridtolerance="10"
     guidetolerance="10"
     inkscape:pageopacity="0"
     inkscape:pageshadow="2"
     inkscape:window-width="640"
     inkscape:window-height="480"
     id="namedview30"
     showgrid="false"
     inkscape:zoom="0.5546875"
     inkscape:cx="36.056338"
     inkscape:cy="240.67606"
     inkscape:current-layer="svg2" />
  <metadata
     id="metadata60">
    <rdf:RDF>
      <cc:Work
         rdf:about="">
        <dc:format>image/svg+xml</dc:format>
        <dc:type
           rdf:resource="http://purl.org/dc/dcmitype/StillImage" />
      </cc:Work>
    </rdf:RDF>
  </metadata>
  <g
     id="g3381"
     transform="translate(355.15494,-362.36621)">
    <rect
       x="-355.15994"
       y="362.36621"
       width="512"
       height="512"
       rx="25.988001"
       id="rect4"
       style="fill:#f38725" />
    <path
       d="m -95.27993,403.2412 c -7.266,0.069 -14.574,0.424 -21.781,0.125 -18.684,11.132 0.635,87.8 -59,80.16 -26.981,-10.856 -37.554,-17.724 -68.25,-12.06 -31.16,19.841 -3.28,42.32 7.531,63.813 11.909,48.672 -55.37,39.555 -76.28,58.59 -1.562,16.455 -2.07,33.525 0.344,49.906 20.07,24.18 44.19,44.978 65.906,67.781 1.832,30.595 -30.91,40.03 -8.06,55.09 35.913,35.932 71.817,71.817 107.72,107.72 l 278,0 c 14.397,0 26,-11.603 26,-26 l 0,-278 c -38.87,-38.86 -77.71,-77.73 -116.59,-116.59 -23.95,-21.12 0.65,63.81 -61.41,1.75 -17.69,-16.699 -33.5,-35.622 -52.53,-50.719 -7.09,-1.427 -14.33,-1.631 -21.59,-1.563"
       style="color:#000000;fill-opacity:0.23500001"
       id="path6"
       inkscape:connector-curvature="0" />
    <path
       d="m -117.07993,403.3662 c -8.958,0 -17.917,5.735 -17.917,17.917 0,27.434 -6.2,41.926 -16.517,48.991 -5.05,1.787 -9.757,4.164 -14.557,6.439 -0.151,0.072 -0.409,-0.073 -0.56,0 -12.347,2.552 -26.811,-3.294 -46.47,-22.956 -8.614,-8.614 -19.14,-6.335 -25.476,0 l -12.597,12.597 -12.597,12.597 c -6.335,6.335 -8.614,16.861 0,25.476 19.66,19.66 25.509,34.13 22.956,46.47 -0.037,0.184 0.042,0.376 0,0.56 -2.276,4.8 -4.651,9.505 -6.439,14.557 -7.07,10.317 -21.556,16.517 -48.991,16.517 -12.182,0 -17.917,8.958 -17.917,17.917 l 0,35.834 c 0,8.958 5.735,17.917 17.917,17.917 27.434,0 41.926,6.2 48.991,16.517 1.787,5.05 4.164,9.757 6.439,14.557 0.072,0.151 -0.073,0.409 0,0.56 2.552,12.347 -3.294,26.811 -22.956,46.47 -8.614,8.614 -6.335,19.14 0,25.476 l 12.597,12.597 12.597,12.597 c 6.335,6.335 16.861,8.614 25.476,0 19.66,-19.66 34.13,-25.509 46.47,-22.956 0.184,0.037 0.376,-0.042 0.56,0 4.8,2.276 9.505,4.651 14.557,6.439 10.317,7.07 16.517,21.556 16.517,48.991 0,12.182 8.959,17.917 17.917,17.917 l 35.834,0 c 8.958,0 17.917,-5.735 17.917,-17.917 0,-27.434 6.2,-41.926 16.517,-48.991 5.05,-1.787 9.757,-4.164 14.557,-6.439 0.151,-0.072 0.409,0.073 0.56,0 12.347,-2.552 26.8110004,3.294 46.47,22.956 8.614,8.614 19.14,6.335 25.475,0 l 12.597,-12.597 12.597,-12.597 c 6.335,-6.335 8.614,-16.861 0,-25.476 -19.66,-19.66 -25.509,-34.13 -22.956,-46.47 0.037,-0.184 -0.042,-0.376 0,-0.56 2.276,-4.8 4.651,-9.505 6.439,-14.557 7.07,-10.317 21.556,-16.517 48.991,-16.517 12.182,0 17.917,-8.958 17.917,-17.917 l 0,-35.834 c 0,-8.958 -5.735,-17.917 -17.917,-17.917 -27.434,0 -41.926,-6.2 -48.991,-16.517 -1.787,-5.05 -4.164,-9.757 -6.439,-14.557 -0.042,-0.184 0.037,-0.376 0,-0.56 -2.552,-12.347 3.294,-26.811 22.956,-46.47 8.614,-8.614 6.335,-19.14 0,-25.476 l -12.59,-12.59 -12.6,-12.599 c -6.335,-6.335 -16.861,-8.614 -25.475,0 -19.6599996,19.66 -34.13,25.509 -46.47,22.956 -0.151,-0.073 -0.409,0.072 -0.56,0 -4.8,-2.276 -9.505,-4.651 -14.557,-6.439 -10.32,-7.07 -16.52,-21.558 -16.52,-48.993 0,-12.182 -8.96,-17.917 -17.92,-17.917 l -35.83,0 m 17.917,125.41 c 49.48,0 89.5800004,40.11 89.5800004,89.58 0,49.48 -40.1100004,89.58 -89.5800004,89.58 -49.48,0 -89.58,-40.11 -89.58,-89.58 0,-49.48 40.11,-89.58 89.58,-89.58"
       style="color:#000000;fill:#ffffff"
       id="path54"
       inkscape:connector-curvature="0" />
  </g>
</svg>
