<?xml version="1.0" encoding="UTF-8" standalone="no"?>
<svg
   xmlns:dc="http://purl.org/dc/elements/1.1/"
   xmlns:cc="http://creativecommons.org/ns#"
   xmlns:rdf="http://www.w3.org/1999/02/22-rdf-syntax-ns#"
   xmlns:svg="http://www.w3.org/2000/svg"
   xmlns="http://www.w3.org/2000/svg"
   xmlns:sodipodi="http://sodipodi.sourceforge.net/DTD/sodipodi-0.dtd"
   xmlns:inkscape="http://www.inkscape.org/namespaces/inkscape"
   viewBox="0 0 512 512"
   id="svg2"
   version="1.1"
   inkscape:version="0.91 r13725"
   sodipodi:docname="ardis-builder.svg">
  <metadata
     id="metadata582">
    <rdf:RDF>
      <cc:Work
         rdf:about="">
        <dc:format>image/svg+xml</dc:format>
        <dc:type
           rdf:resource="http://purl.org/dc/dcmitype/StillImage" />
      </cc:Work>
    </rdf:RDF>
  </metadata>
  <sodipodi:namedview
     pagecolor="#ffffff"
     bordercolor="#666666"
     borderopacity="1"
     objecttolerance="10"
     gridtolerance="10"
     guidetolerance="10"
     inkscape:pageopacity="0"
     inkscape:pageshadow="2"
     inkscape:window-width="640"
     inkscape:window-height="480"
     id="namedview580"
     showgrid="false"
     inkscape:zoom="0.5546875"
     inkscape:cx="70.309859"
     inkscape:cy="265.01409"
     inkscape:current-layer="svg2" />
  <defs
     id="defs4">
    <linearGradient
       id="0"
       y2="-13.594"
       gradientUnits="userSpaceOnUse"
       x2="514.29"
       y1="259.78"
       x1="261.65"
       gradientTransform="translate(0,-0.005)">
      <stop
         offset="0"
         id="stop7" />
      <stop
         stop-color="#fff"
         offset="1"
         id="stop9" />
    </linearGradient>
    <linearGradient
       id="1"
       y2="543.43"
       gradientUnits="userSpaceOnUse"
       x2="9.56"
       y1="263.67"
       x1="268.09"
       gradientTransform="translate(0,-0.005)">
      <stop
         stop-color="#fff"
         offset="0"
         id="stop12" />
      <stop
         offset="1"
         id="stop14" />
    </linearGradient>
    <linearGradient
       id="1-7"
       y2="543.42999"
       gradientUnits="userSpaceOnUse"
       x2="9.5600004"
       y1="263.67001"
       x1="268.09"
       gradientTransform="translate(0,-0.005)">
      <stop
         stop-color="#fff"
         offset="0"
         id="stop12-6" />
      <stop
         offset="1"
         id="stop14-7" />
    </linearGradient>
    <linearGradient
       id="0-3"
       y2="-13.594"
       gradientUnits="userSpaceOnUse"
       x2="514.28998"
       y1="259.78"
       x1="261.64999"
       gradientTransform="translate(0,-0.005)">
      <stop
         offset="0"
         id="stop7-6" />
      <stop
         stop-color="#fff"
         offset="1"
         id="stop9-5" />
    </linearGradient>
  </defs>
  <path
     id="path520"
     d="m 26,0.005 c -14.397,0 -26,11.603 -26,26 l 0,460 c 0,14.397 11.603,26 26,26 l 460,0 c 14.397,0 26,-11.603 26,-26 l 0,-460 c 0,-14.397 -11.603,-26 -26,-26 l -460,0"
     inkscape:connector-curvature="0"
     style="fill:#ea6124" />
  <path
     id="path568"
     d="m 26,0.005 c -14.397,0 -26,11.603 -26,26 l 0,460 c 0,14.397 11.603,26 26,26 l 365.44,0 -182.69,-512 -182.75,0"
     inkscape:connector-curvature="0"
     style="fill:#189d4d" />
  <path
     style="opacity:0.1;fill:url(#0-3)"
     inkscape:connector-curvature="0"
     d="m 26,-0.005 c -12.729,0 -23.259,9.07 -25.531,21.13 l 510.59,471.84 c 0.613,-2.219 0.938,-4.551 0.938,-6.969 l 0,-460 c 0,-14.397 -11.603,-26 -26,-26 l -460,0"
     id="path572" />
  <path
     style="opacity:0.1;fill:url(#1-7);fill-rule:evenodd"
     inkscape:connector-curvature="0"
     d="M 0.906,19.155 C 0.315,21.337 0,23.626 0,25.999 l 0,460 c 0,14.397 11.603,26 26,26 l 460,0 c 12.674,0 23.17,-8.995 25.5,-20.969 L 0.91,19.16"
     id="path574" />
  <path
     id="path576"
     d="M 150.47,100.315 41,411.695 l 100.31,100.31 344.69,0 c 11.986,0 22.02,-8.05 25.04,-19.05 l 0.018,0.016 c 0.613,-2.219 0.938,-4.551 0.938,-6.969 l 0,-289.86 -67.24,-67.24 c -3.369,-3.369 -7.201,-6.393 -11.494,-9.07 -19.797,-12.585 -51.715,-18.89 -95.69,-18.891 l -81.05,0 c 4.548,12.903 9.105,25.803 13.656,38.705 l -39.33,-39.33 -80.38,0"
     inkscape:connector-curvature="0"
     style="opacity:0.25" />
  <path
     id="path578"
     d="M 150.47,100.315 41,411.695 l 70.855,0 22.467,-73.809 113.09,0 22.467,73.809 70.855,0 -109.88,-311.38 -80.38,0 m 106.05,0.624 c 20.564,58.34 41.16,116.66 61.744,175 l 29.29,0 c 36.766,0 55.17,12.874 55.17,38.611 0,14.282 -4.314,24.9 -12.94,31.829 -8.626,6.929 -22.01,10.402 -40.11,10.402 l -2.912,0 c 6.363,18.03 12.733,36.06 19.1,54.09 30.939,-1.233 55.762,-9.06 74.39,-23.549 20.504,-15.838 30.747,-37.914 30.747,-66.2 0,-19.939 -4.38,-35.91 -13.148,-47.93 -8.626,-12.02 -22.741,-20.21 -42.4,-24.589 l 0,-2.122 c 14.423,-2.404 25.907,-9.549 34.533,-21.427 8.767,-11.878 13.189,-27.08 13.189,-45.6 0,-27.29 -9.976,-47.18 -29.915,-59.62 -19.797,-12.585 -51.716,-18.889 -95.69,-18.889 l -81.05,0 m -65.53,47.51 c 1.131,5.091 2.947,12.04 5.492,20.803 2.687,8.768 14.412,46.574 35.2,113.46 l -80.8,0 c 22.06,-71.41 35.442,-116.16 40.11,-134.26 m 115.83,6.366 34.575,0 c 18.807,0 32.522,2.632 41.15,7.864 8.767,5.091 13.147,13.585 13.148,25.463 0,12.727 -4.01,21.821 -12.07,27.335 -7.919,5.515 -20.793,8.28 -38.611,8.28 l -38.19,0 0,-68.941"
     inkscape:connector-curvature="0"
     style="fill:#ffffff" />
</svg>
