<?xml version="1.0" encoding="UTF-8" standalone="no"?>
<svg
   xmlns:dc="http://purl.org/dc/elements/1.1/"
   xmlns:cc="http://creativecommons.org/ns#"
   xmlns:rdf="http://www.w3.org/1999/02/22-rdf-syntax-ns#"
   xmlns:svg="http://www.w3.org/2000/svg"
   xmlns="http://www.w3.org/2000/svg"
   xmlns:sodipodi="http://sodipodi.sourceforge.net/DTD/sodipodi-0.dtd"
   xmlns:inkscape="http://www.inkscape.org/namespaces/inkscape"
   viewBox="0 0 512 512"
   id="svg2"
   version="1.1"
   inkscape:version="0.91 r13725"
   sodipodi:docname="ask.svg">
  <metadata
     id="metadata490">
    <rdf:RDF>
      <cc:Work
         rdf:about="">
        <dc:format>image/svg+xml</dc:format>
        <dc:type
           rdf:resource="http://purl.org/dc/dcmitype/StillImage" />
      </cc:Work>
    </rdf:RDF>
  </metadata>
  <defs
     id="defs488" />
  <sodipodi:namedview
     pagecolor="#ffffff"
     bordercolor="#666666"
     borderopacity="1"
     objecttolerance="10"
     gridtolerance="10"
     guidetolerance="10"
     inkscape:pageopacity="0"
     inkscape:pageshadow="2"
     inkscape:window-width="640"
     inkscape:window-height="480"
     id="namedview486"
     showgrid="false"
     inkscape:zoom="0.5546875"
     inkscape:cx="36.056338"
     inkscape:cy="240.67606"
     inkscape:current-layer="svg2" />
  <g
     id="g3839"
     transform="translate(369.57746,-360.56338)">
    <path
       id="path434"
       d="m -343.57946,360.56188 c -14.397,0 -26,11.603 -26,26 l 0,460 c 0,14.397 11.603,26 26,26 l 460,0 c 14.397,0 26,-11.603 26,-26 l 0,-460 c 0,-14.397 -11.603,-26 -26,-26 l -460,0"
       style="fill:#d23638"
       inkscape:connector-curvature="0" />
    <path
       id="path482"
       d="m 12.110535,448.13188 -33.801,156.04 -20.16,-20.16 -12.984,-3.518 c -5.683,-1.744 -10.964,-3.507 -22.9,-3.246 -1.705,0.037 -3.55,0.146 -5.547,0.271 -10.07,0.361 -19.816995,2.799 -28.378995,6.693 l -77.56,-77.56 -27.455,4.463 -111.9,273.88 87.57,87.57 357.43,0 c 14.397,0 26,-11.603 26,-26 l 0,-308.11 -88.290005,-88.29 -42.02,-2.029"
       style="opacity:0.25"
       inkscape:connector-curvature="0" />
    <path
       id="path484"
       d="m 12.110535,448.13188 -59.51,274.73 -2.434,11.586 11.451,-1.533 25.517,-4.057 5.4550002,-0.406 1.578,-5.59 8.881,-39.853 10.0499998,35.39 2.029,7.03 6.853,-0.992 26.554,-4.01 9.467,-0.992 -24.976,-81.46 68.390005,-73.981 -23.353005,4.01 -23.533,4.01 -2.434,0 -1.984,2.029 -28.988,31.513 33,-155.4 -42.02,-2.029 m -201.339995,58.52 -27.455,4.463 -111.9,273.88 14.472,-2.975 23.488,-4.01 4.463,-0.992 1.533,-4.01 17.943,-45.939 34.984,-5 0,35.976 -0.496,9.467 9.467,-1.488 27.501,-4.508 6.988,-0.992 -0.496,-6.988 -0.496,-246.83 0,-0.045 m 111.489995,70.6 c -1.705,0.037 -3.549,0.145 -5.545,0.271 -27.988995,1 -53.469995,17.972 -57.930995,37.96 -3.499,15.988 0.991,26.966 18.484,46.48 18.482,19.457 22.962995,27.962 20.468,39.447 -1.491,7.47 -14.01,16.972 -28.492,18.98 -7.499,0.975 -12.494,0.975 -16.996,0 l -4.959,-1.488 -3.02,4.01 -11.992,14.472 -8.476,10.01 12.984,2.975 c 8,1.993 19.95,1.999 32.956,-0.496 28.964,-4.488 63.479995,-25.472 69.469995,-51.44 5.506,-24 -4.525,-38.983 -25.517,-59.96 -16.474995,-16.489 -15.474995,-20.491 -14.471995,-23.488 0.501,-3.464 6.991995,-8.455 15.958995,-8.971 l 0.045,0 c 7.967,10e-4 11.963,0.486 14.967,1.488 l 4.463,0.992 3.516,-3.516 11,-11.496 8.971,-9.467 -12.984,-3.516 c -5.683,-1.744 -10.965,-3.507 -22.902,-3.246 m -149.449995,27.365 -5.5,80.924 -22.992,3.02 28.492,-83.944"
       style="fill:#ffffff"
       inkscape:connector-curvature="0" />
  </g>
</svg>
