<?xml version="1.0" encoding="UTF-8" standalone="no"?>
<svg
   xmlns:dc="http://purl.org/dc/elements/1.1/"
   xmlns:cc="http://creativecommons.org/ns#"
   xmlns:rdf="http://www.w3.org/1999/02/22-rdf-syntax-ns#"
   xmlns:svg="http://www.w3.org/2000/svg"
   xmlns="http://www.w3.org/2000/svg"
   xmlns:sodipodi="http://sodipodi.sourceforge.net/DTD/sodipodi-0.dtd"
   xmlns:inkscape="http://www.inkscape.org/namespaces/inkscape"
   viewBox="0 0 512 512"
   id="svg2"
   version="1.1"
   inkscape:version="0.91 r13725"
   sodipodi:docname="atraci.svg">
  <metadata
     id="metadata394">
    <rdf:RDF>
      <cc:Work
         rdf:about="">
        <dc:format>image/svg+xml</dc:format>
        <dc:type
           rdf:resource="http://purl.org/dc/dcmitype/StillImage" />
      </cc:Work>
    </rdf:RDF>
  </metadata>
  <defs
     id="defs392" />
  <sodipodi:namedview
     pagecolor="#ffffff"
     bordercolor="#666666"
     borderopacity="1"
     objecttolerance="10"
     gridtolerance="10"
     guidetolerance="10"
     inkscape:pageopacity="0"
     inkscape:pageshadow="2"
     inkscape:window-width="640"
     inkscape:window-height="480"
     id="namedview390"
     showgrid="false"
     inkscape:zoom="0.5546875"
     inkscape:cx="36.056338"
     inkscape:cy="240.67606"
     inkscape:current-layer="svg2" />
  <g
     id="g3743"
     transform="translate(374.98592,-347.94366)">
    <path
       id="path338"
       d="m -348.98992,347.94116 c -14.397,0 -26,11.603 -26,26 l 0,460 c 0,14.397 11.603,26 26,26 l 460,0 c 14.397,0 26,-11.603 26,-26 l 0,-460 c 0,-14.397 -11.603,-26 -26,-26 l -460,0"
       style="fill:#cd1d31"
       inkscape:connector-curvature="0" />
    <path
       id="path386"
       d="m -171.80992,424.77116 c -48.542,0 -87.73,15.968 -117.52,47.961 -29.787,31.836 -44.66,76.61 -44.66,134.29 0,54.53 14.808,97.55 44.44,129.07 1.076,1.139 2.161,2.256 3.258,3.354 l 120.5,120.5 276.81,0 c 14.397,0 26,-11.603 26,-26 l 0,-362.29 -40.999995,-41 -69.957,0 0,126.2 -92.46,-92.46 c -0.699,-0.699 -1.408,-1.384 -2.123,-2.057 -26.478,-25.06 -60.888005,-37.566 -103.280005,-37.566"
       style="opacity:0.25"
       inkscape:connector-curvature="0" />
    <path
       id="path388"
       d="m -171.80992,424.77116 c -48.542,0 -87.73,15.968 -117.52,47.961 -29.787,31.836 -44.66,76.61 -44.66,134.29 0,54.53 14.807,97.55 44.44,129.07 29.629,31.363 67.44,47.02 113.46,47.02 37.19,0 67.883,-9.112 92.000005,-27.394 24.271,-18.44 41.574,-46.587 51.977,-84.41 l -67.815,-21.504 c -5.832005,25.374 -15.470005,43.949 -28.866005,55.769 -13.397,11.82 -29.409,17.757 -48.01,17.757 -25.22,0 -45.675,-9.287 -61.43,-27.884 -15.76,-18.597 -23.646,-49.833 -23.646,-93.65 0,-41.29 7.951,-71.15 23.869,-89.59 16.08,-18.439 36.95,-27.661 62.64,-27.661 18.597,0 34.37,5.214 47.29,15.615 13.08,10.402 21.69,24.596 25.788,42.563 l 69.240005,-16.552 c -7.881,-27.738 -19.709,-49.03 -35.469,-63.844 -26.478,-25.06 -60.889005,-37.566 -103.280005,-37.566 m 197.870005,5.889 0,346.57 69.956,0 0,-346.57 -69.956,0 z"
       style="fill:#ffffff"
       inkscape:connector-curvature="0" />
  </g>
</svg>
