<?xml version="1.0" encoding="UTF-8" standalone="no"?>
<!-- Created with Inkscape (http://www.inkscape.org/) -->

<svg
   xmlns:dc="http://purl.org/dc/elements/1.1/"
   xmlns:cc="http://creativecommons.org/ns#"
   xmlns:rdf="http://www.w3.org/1999/02/22-rdf-syntax-ns#"
   xmlns:svg="http://www.w3.org/2000/svg"
   xmlns="http://www.w3.org/2000/svg"
   xmlns:sodipodi="http://sodipodi.sourceforge.net/DTD/sodipodi-0.dtd"
   xmlns:inkscape="http://www.inkscape.org/namespaces/inkscape"
   id="svg2"
   height="100%"
   width="100%"
   version="1.1"
   viewBox="0 0 512 512"
   inkscape:version="0.91 r13725"
   sodipodi:docname="autokey.svg">
  <defs
     id="defs32" />
  <sodipodi:namedview
     pagecolor="#ffffff"
     bordercolor="#666666"
     borderopacity="1"
     objecttolerance="10"
     gridtolerance="10"
     guidetolerance="10"
     inkscape:pageopacity="0"
     inkscape:pageshadow="2"
     inkscape:window-width="640"
     inkscape:window-height="480"
     id="namedview30"
     showgrid="false"
     inkscape:zoom="0.5546875"
     inkscape:cx="36.056338"
     inkscape:cy="240.67606"
     inkscape:current-layer="svg2" />
  <metadata
     id="metadata60">
    <rdf:RDF>
      <cc:Work
         rdf:about="">
        <dc:format>image/svg+xml</dc:format>
        <dc:type
           rdf:resource="http://purl.org/dc/dcmitype/StillImage" />
      </cc:Work>
    </rdf:RDF>
  </metadata>
  <g
     id="g3381"
     transform="translate(335.32394,-369.57746)">
    <rect
       x="-335.32895"
       y="369.57745"
       width="512"
       height="512"
       rx="25.988001"
       id="rect4"
       style="fill:#0078ad" />
    <path
       d="m 11.421056,410.48346 c -18.2499997,0.077 -36.56,0.376 -54.72,0.094 l -224.369996,430 c 14.396,13.881 28.396,27.527 42.13,41 l 376.22,0 c 14.397,0 26,-11.603 26,-26 l 0,-333.66 c -36.946,-36.668 -73.45,-74.13 -110.780004,-110.16 -18.01,-1.211 -36.21,-1.359 -54.47,-1.281"
       id="path6"
       style="fill-opacity:0.23500001"
       inkscape:connector-curvature="0" />
    <path
       d="m 14.981056,738.64746 -138.539996,0 -50.38,101.93 -93.73,0 224.369996,-430 109.26,0 43.060004,430 -86.994004,0 -7.02,-101.93 m -4.393,-76.16 -7.6159997,-102.52 -1.464,-38.958 -0.87799996,-45.688 -1.464,0 c -10.55300034,28.706 -20.89700034,53.51 -31.05000034,74.4 l -55.07,112.77 97.55,0"
       id="path54"
       style="fill:#ffffff"
       inkscape:connector-curvature="0" />
  </g>
</svg>
