<?xml version="1.0" encoding="UTF-8" standalone="no"?>
<!-- Created with Inkscape (http://www.inkscape.org/) -->

<svg
   xmlns:dc="http://purl.org/dc/elements/1.1/"
   xmlns:cc="http://creativecommons.org/ns#"
   xmlns:rdf="http://www.w3.org/1999/02/22-rdf-syntax-ns#"
   xmlns:svg="http://www.w3.org/2000/svg"
   xmlns="http://www.w3.org/2000/svg"
   xmlns:sodipodi="http://sodipodi.sourceforge.net/DTD/sodipodi-0.dtd"
   xmlns:inkscape="http://www.inkscape.org/namespaces/inkscape"
   id="svg2"
   height="100%"
   width="100%"
   version="1.1"
   viewBox="0 0 512 512"
   inkscape:version="0.91 r13725"
   sodipodi:docname="baloo.svg">
  <defs
     id="defs9" />
  <sodipodi:namedview
     pagecolor="#ffffff"
     bordercolor="#666666"
     borderopacity="1"
     objecttolerance="10"
     gridtolerance="10"
     guidetolerance="10"
     inkscape:pageopacity="0"
     inkscape:pageshadow="2"
     inkscape:window-width="640"
     inkscape:window-height="480"
     id="namedview7"
     showgrid="false"
     inkscape:zoom="0.5546875"
     inkscape:cx="36.056338"
     inkscape:cy="240.67606"
     inkscape:current-layer="svg2" />
  <metadata
     id="metadata14">
    <rdf:RDF>
      <cc:Work
         rdf:about="">
        <dc:format>image/svg+xml</dc:format>
        <dc:type
           rdf:resource="http://purl.org/dc/dcmitype/StillImage" />
      </cc:Work>
    </rdf:RDF>
  </metadata>
  <g
     id="g3358"
     transform="translate(353.3521,-331.71831)">
    <rect
       x="-353.3566"
       y="331.7153"
       width="512"
       height="512"
       rx="25.988001"
       id="rect4"
       style="fill:#d02438" />
    <path
       d="m -142.94661,398.96531 c -38.913,8.524 -37.26,61.49 -21.594,89.69 12.1,21.831 33.05,36.559 49.844,54.56 -14.09,11.242 -20.997,-9.413 -30.938,-16.656 -21.287,-20.782 -39.61,-44.971 -63.37,-62.906 -40.16,-23.02 -59.767,34.765 -44.16,64.47 12.526,36.24 46.754,57.22 71.72,84.34 8.265,17.89 -5.01,36.3 -15.938,14.438 -21.923,-21.447 -39.22,-48.84 -66.969,-63.09 -44.42,-20.399 -62.3,44.591 -35.406,72.22 16.699,22.12 38.547,39.702 57.844,59.53 -23.398,28.05 2.31,62 25.906,79.78 24.26,22.01 47.554,45.03 70.53,68.38 l 278.13,0 c 14.397,0 26,-11.603 26,-26 l 0,-238.81 c -9.93,-10.412 -19.908,-20.785 -29.969,-31.06 -19.738,-18.693 -35.772003,-42.17 -58.969003,-56.47 -13.787,-5.757 -22.341,-20.5 -33.813,-30.22 -18.221,-16.983 -33.6489997,-37.525 -54.47,-51.19 -30.682,-15.368 -47.21,30.929 -53.906,41.781 -17.289,-16.417 -32.755997,-35.04 -51.999997,-49.19 -5.674,-3.03 -12.174,-3.574 -18.469,-3.594"
       id="path6"
       style="fill-opacity:0.23500001"
       inkscape:connector-curvature="0" />
    <path
       d="m -17.896613,383.10531 c -0.226,-0.08 -0.149,0.339 0.188,1.223 0.372,0.978 0.918,1.529 1.223,1.223 0.305,-0.305 0.02,-1.114 -0.659,-1.786 -0.367,-0.365 -0.618,-0.611 -0.752,-0.659 m -125.049997,15.848 c -3.638,0.013 -5.335,0.633 -9.783,2.822 -3.784,1.863 -7.852,4.864 -9.969,7.336 -4.066,4.743 -8.632,13.949 -10.205,20.552 -8.493,35.641 11.746,80.4 40.915,90.48 13.575,4.692 28.29,-0.601 36.249997,-13.03 9.866,-15.366 11.382,-39.11 3.95,-62.08 -4.322,-13.359 -9.865997,-22.528 -19.189997,-31.837 -10.273,-10.253 -16.553,-13.473 -27.512,-14.11 -1.819,-0.105 -3.255,-0.146 -4.468,-0.141 m 112.679997,8.888 c -8.434,0.092 -16.405,3.819 -23.372,11.05 -19.578,20.326 -23.707,60.95 -9.217,90.91 6.724,13.901 18.757,24.764 29.91,26.994 18.995,3.791 37.2200003,-12.221 44.627,-39.22 3.086,-11.253 3.091,-35 0,-46.558 -5.1999997,-19.434 -17.6899997,-36.38 -30.24,-41.05 -3.966,-1.477 -7.877,-2.158 -11.71,-2.116 m -197.649997,50.743 c -16.454,0.369 -27.03,12.685 -29.487,34.515 -4.06,36.12 21.786,79.68 50.602,85.3 6.382,1.247 6.934,1.247 12.651,-0.234 10.273,-2.665 16.856,-9.607 21.256,-22.338 3.273,-9.471 3.294,-28.687 0,-40.82 -8.324,-30.678 -30.457,-54.824 -51.636,-56.34 -1.149,-0.082 -2.288,-0.118 -3.386,-0.093 m 287.719997,30.991 c -7.504,0.036 -14.973,3.265 -21.486,10.158 -10.397,10.994 -15.61,28.09 -14.578,48.02 0.703,13.59 2.414,20.46 7.854,31.791 5.166,10.759 14.437,20.447 22.62,23.656 6.839,2.681 17.353,2.496 23.326,-0.377 10.137,-4.872 19.683,-19.01 22.808003,-33.766 2.337,-11.03 1.931,-27.2 -0.941003,-38.516 -6.511,-25.67 -23.09,-41.04 -39.596,-40.961 m -142.08,49.85 c -17.04,0.069 -19.813997,0.32 -28.780997,2.681 -15.486,4.076 -39.42,17.2 -50.743,27.794 -10.789,10.09 -13.313,16.223 -15.755,38.892 -1.901,17.641 -2.909,22.19 -6.96,30.755 -4.253,8.998 -11.766,16.789 -30.755,31.837 -18.931,15 -22.549,18.328 -28.03,26.01 -10.127,14.191 -10.641,28.785 -1.693,45.805 12.996,24.714 45.692,45.24 77.36,48.58 24.442,2.573 42.693,-3.315 92.069997,-29.862 32.693,-17.575 48.852,-22.767 70.4900003,-22.715 6.977,0.016 18.1099997,0.502 24.7799997,1.129 17.638,1.66 38.435,1.475 47.36,-0.423 18.67,-3.974 32.353,-14.984 41.479003,-33.389 9.66,-19.483 11.669,-35.852 5.785,-47.593 -6.633,-13.242 -16.586003,-21.978 -29.300003,-25.819 -3.614,-1.091 -12.816,-3.271 -20.457,-4.845 -7.642,-1.572 -16.487,-3.83 -19.657,-5.03 -14.621,-5.546 -29.19,-18.983 -46.1299997,-42.42 -13.1600003,-18.19 -21.1700003,-25.69 -34.3770003,-32.12 -15.868,-7.726 -24.14,-9.356 -46.699,-9.265 m -200.519997,20.96 c -3.143,0.148 -6.257,0.741 -9.265,1.74 -14.08,4.676 -22.297,21.837 -19.847,41.38 3.442,27.448 24.505,54.904 48.44,63.06 4.595,1.567 8.92,2.193 14.578,2.211 7.03,0.023 8.786,-0.351 14.203,-3.057 11.04,-5.518 16.977,-17.03 16.977,-33.06 0,-37.26 -34.695,-73.71 -65.09,-72.28"
       id="path8"
       style="fill:#ffffff"
       inkscape:connector-curvature="0" />
  </g>
</svg>
