<?xml version="1.0" encoding="UTF-8" standalone="no"?>
<svg
   xmlns:dc="http://purl.org/dc/elements/1.1/"
   xmlns:cc="http://creativecommons.org/ns#"
   xmlns:rdf="http://www.w3.org/1999/02/22-rdf-syntax-ns#"
   xmlns:svg="http://www.w3.org/2000/svg"
   xmlns="http://www.w3.org/2000/svg"
   xmlns:sodipodi="http://sodipodi.sourceforge.net/DTD/sodipodi-0.dtd"
   xmlns:inkscape="http://www.inkscape.org/namespaces/inkscape"
   viewBox="0 0 512 512"
   id="svg2"
   version="1.1"
   inkscape:version="0.91 r13725"
   sodipodi:docname="banjo.svg">
  <metadata
     id="metadata1642">
    <rdf:RDF>
      <cc:Work
         rdf:about="">
        <dc:format>image/svg+xml</dc:format>
        <dc:type
           rdf:resource="http://purl.org/dc/dcmitype/StillImage" />
      </cc:Work>
    </rdf:RDF>
  </metadata>
  <defs
     id="defs1640" />
  <sodipodi:namedview
     pagecolor="#ffffff"
     bordercolor="#666666"
     borderopacity="1"
     objecttolerance="10"
     gridtolerance="10"
     guidetolerance="10"
     inkscape:pageopacity="0"
     inkscape:pageshadow="2"
     inkscape:window-width="640"
     inkscape:window-height="480"
     id="namedview1638"
     showgrid="false"
     inkscape:zoom="0.5546875"
     inkscape:cx="36.056338"
     inkscape:cy="240.67606"
     inkscape:current-layer="svg2" />
  <path
     inkscape:connector-curvature="0"
     style="fill:#00bdc8"
     d="m 26,-0.002 c -14.397,0 -26,11.603 -26,26 l 0,460 c 0,14.397 11.603,26 26,26 l 460,0 c 14.397,0 26,-11.603 26,-26 l 0,-460 c 0,-14.397 -11.603,-26 -26,-26 l -460,0"
     id="path1586" />
  <path
     inkscape:connector-curvature="0"
     style="opacity:0.25"
     d="m 151.41,40.998 53.22,53.22 0,0.018 -53.21,-53.21 0,105.47 c 0.013,62.38 0.45,109.4 1.043,115.08 2.607,25 11.05,43.39 28.805,62.729 24.593,26.788 47.53,63.25 60.63,96.46 4.975,12.602 11.224,35.26 12.33,44.676 0.34,2.889 0.826,4.666 1.461,5.301 l 41.26,41.26 189.05,0 c 14.397,0 26,-11.603 26,-26 l 0,-138.29 -306.71,-306.71 -53.877,0"
     id="path1634" />
  <path
     inkscape:connector-curvature="0"
     style="fill:#ffffff"
     d="m 151.41,41.018 0,105.47 c 0.013,62.38 0.451,109.4 1.044,115.08 2.607,25 11.04,43.39 28.803,62.729 24.593,26.788 47.53,63.25 60.64,96.46 4.975,12.602 11.225,35.26 12.331,44.675 0.434,3.689 1.106,5.564 2.023,5.564 0.759,0 1.391,-0.942 1.391,-2.087 0,-4.643 4.504,-23.49 8.568,-35.854 12.01,-36.522 36.20001,-76.911 65.76901,-109.77 17.203,-19.12 25.03,-35.861 27.917,-59.698 1.848,-15.238 -0.027,-33.437 -4.933,-47.556 -8.11,-23.348 -26.15,-44.3 -49.32,-57.26 C 281.344,145.182 245.003,143.33 217.655,154.25 c -4.44,1.773 -9.08,3.851 -10.307,4.648 -1.512,0.982 -2.425,1.113 -2.878,0.38 -0.367,-0.593 -0.317,-27.46 0.095,-59.698 l 0.726,-58.59 -53.876,0 m 103.29,171.14 c 21.512,0 38.952,17.44 38.952,38.952 0,21.512 -17.44,38.952 -38.952,38.952 -21.512,0 -38.952,-17.44 -38.952,-38.952 0,-21.512 17.44,-38.952 38.952,-38.952"
     id="path1636" />
</svg>
