<?xml version="1.0" encoding="UTF-8" standalone="no"?>
<!-- Created with Inkscape (http://www.inkscape.org/) -->

<svg
   xmlns:dc="http://purl.org/dc/elements/1.1/"
   xmlns:cc="http://creativecommons.org/ns#"
   xmlns:rdf="http://www.w3.org/1999/02/22-rdf-syntax-ns#"
   xmlns:svg="http://www.w3.org/2000/svg"
   xmlns="http://www.w3.org/2000/svg"
   xmlns:sodipodi="http://sodipodi.sourceforge.net/DTD/sodipodi-0.dtd"
   xmlns:inkscape="http://www.inkscape.org/namespaces/inkscape"
   id="svg2"
   height="100%"
   width="100%"
   version="1.1"
   viewBox="0 0 512 512"
   inkscape:version="0.91 r13725"
   sodipodi:docname="basket.svg">
  <defs
     id="defs32" />
  <sodipodi:namedview
     pagecolor="#ffffff"
     bordercolor="#666666"
     borderopacity="1"
     objecttolerance="10"
     gridtolerance="10"
     guidetolerance="10"
     inkscape:pageopacity="0"
     inkscape:pageshadow="2"
     inkscape:window-width="640"
     inkscape:window-height="480"
     id="namedview30"
     showgrid="false"
     inkscape:zoom="0.78444659"
     inkscape:cx="227.51731"
     inkscape:cy="258.66215"
     inkscape:current-layer="svg2" />
  <metadata
     id="metadata60">
    <rdf:RDF>
      <cc:Work
         rdf:about="">
        <dc:format>image/svg+xml</dc:format>
        <dc:type
           rdf:resource="http://purl.org/dc/dcmitype/StillImage" />
      </cc:Work>
    </rdf:RDF>
  </metadata>
  <rect
     style="fill:#8db173"
     id="rect4"
     rx="25.988001"
     height="512"
     width="512"
     y="-0.0075087012"
     x="-0.005007158" />
  <path
     inkscape:connector-curvature="0"
     style="fill-opacity:0.23500001"
     id="path6"
     d="m 239.055,56.21251 c -20.21,0.418 -38.14,7.887 -51.813,18.281 -27.933,0.269 -61.824,-1.055 -77.12,27.719 -12.413,32.25 -16.584,71.885 -18.438,104.41 2.615,3.507 18.455,13.1 5.875,11.594 -15.09,1.387 -31.661,-2.743 -45.844,2.031 -22.788,24.05 3.633,62.694 3.625,92.47 9.304,43.922 15.49,88.79 26.625,132.16 22.02,22.456 44.14,44.809 66.31,67.13 l 337.73,0 c 14.397,0 26,-11.603 26,-26 l 0,-275.93 c -40.56,-40.59 -81.13,-81.14 -121.84,-121.56 -18.44,-18.145 -45.63,-11.651 -68.34,-14.693 -14.9,-22.504 -42.19,-14.825 -65.28,-16.188 -5.98,-1.077 -11.81,-1.523 -17.47,-1.406" />
  <path
     style="color:#000000;font-style:normal;font-variant:normal;font-weight:normal;font-stretch:normal;font-size:medium;line-height:normal;font-family:sans-serif;text-indent:0;text-align:start;text-decoration:none;text-decoration-line:none;text-decoration-style:solid;text-decoration-color:#000000;letter-spacing:normal;word-spacing:normal;text-transform:none;direction:ltr;block-progression:tb;writing-mode:lr-tb;baseline-shift:baseline;text-anchor:start;white-space:normal;clip-rule:nonzero;display:inline;overflow:visible;visibility:visible;opacity:1;isolation:auto;mix-blend-mode:normal;color-interpolation:sRGB;color-interpolation-filters:linearRGB;solid-color:#000000;solid-opacity:1;fill:#ffffff;fill-opacity:1;fill-rule:nonzero;stroke:none;stroke-width:1.36600006;stroke-linecap:butt;stroke-linejoin:miter;stroke-miterlimit:4;stroke-dasharray:none;stroke-dashoffset:0;stroke-opacity:1;color-rendering:auto;image-rendering:auto;shape-rendering:auto;text-rendering:auto;enable-background:accumulate"
     d="M 255.4082 56.943359 L 255.41406 56.957031 C 244.57046 56.963931 233.71092 57.053741 225.22656 57.251953 C 220.82958 57.354676 217.04785 57.483421 214.18359 57.638672 C 212.75147 57.716292 211.55029 57.800646 210.60938 57.892578 C 209.66845 57.984508 209.01338 58.07139 208.55273 58.208984 C 205.96859 58.981003 203.13331 60.945163 200.72461 63.289062 C 198.31591 65.632964 196.34257 68.337436 195.64453 70.775391 L 194.80078 73.603516 L 173.56055 74.183594 C 167.57106 74.351317 161.43047 74.628216 156.36133 74.941406 C 151.29218 75.254596 147.33348 75.592609 145.54688 75.921875 C 126.36644 79.4557 108.66311 96.289988 103.46875 115.83984 C 103.00515 117.58536 101.91368 123.79117 100.48828 132.34766 C 99.062885 140.90414 97.328454 151.7223 95.662109 162.38086 C 93.995764 173.03942 92.398088 183.53892 91.248047 191.45703 C 90.673026 195.41609 90.210633 198.72795 89.90625 201.09766 C 89.754058 202.28251 89.641614 203.23051 89.574219 203.91211 C 89.540519 204.25291 89.518284 204.52576 89.507812 204.73828 C 89.502612 204.84454 89.499853 204.93479 89.501953 205.02148 C 89.504053 205.10818 89.477377 205.15289 89.560547 205.36914 C 89.712873 205.76601 89.979575 205.88703 90.220703 206.00195 C 90.461831 206.11687 90.733608 206.20124 91.052734 206.28125 C 91.690987 206.44127 92.517421 206.57108 93.490234 206.68164 C 95.43586 206.90276 97.954639 207.03996 100.48633 207.08789 C 103.01802 207.13579 105.55582 207.09389 107.54102 206.94727 C 108.53361 206.87397 109.38561 206.77649 110.05078 206.64258 C 110.38337 206.57558 110.66795 206.50211 110.91992 206.40234 C 111.17189 206.30254 111.41923 206.20847 111.62305 205.87891 L 111.625 205.87891 C 111.73237 205.70489 111.7142 205.68073 111.73438 205.61133 C 111.75458 205.54193 111.77322 205.46717 111.79492 205.375 C 111.83842 205.19067 111.89094 204.94603 111.95312 204.63672 C 112.07761 204.0181 112.24131 203.14362 112.44141 202.03711 C 112.84159 199.82409 113.38635 196.68329 114.03516 192.8457 C 115.33277 185.17054 117.05016 174.70443 118.87891 163.29688 C 121.42852 147.39127 123.22456 136.73409 124.59961 129.58594 C 125.97466 122.43779 126.94742 118.78375 127.76758 116.99414 C 130.64927 110.69618 138.13628 103.29812 144.77344 100.1875 C 147.44715 98.934507 148.73668 98.345791 152.27148 97.986328 C 155.80629 97.626865 161.55776 97.533711 172.8457 97.386719 L 195.2793 97.097656 L 196.7207 100.11133 C 198.85281 104.5948 203.89068 108.81505 208.84766 110.30078 C 209.28871 110.43284 209.90755 110.50785 210.82227 110.5918 C 211.73698 110.6757 212.91684 110.7532 214.32812 110.82422 C 217.15073 110.96626 220.90036 111.08334 225.27344 111.17773 C 234.01959 111.36653 245.25321 111.46094 256.48828 111.46094 C 267.72335 111.46094 278.95893 111.36654 287.70508 111.17773 C 292.07815 111.08333 295.82778 110.96626 298.65039 110.82422 C 300.06169 110.75322 301.24154 110.67574 302.15625 110.5918 C 303.07096 110.5078 303.6898 110.43284 304.13086 110.30078 C 309.08765 108.81511 314.12951 104.59673 316.25781 100.11133 L 316.25781 100.10938 L 317.69922 97.097656 L 339.63867 97.386719 L 361.91211 97.681641 L 367.45508 100.38086 C 374.41605 103.79959 381.34504 110.69633 384.22266 116.99414 C 385.86339 120.578 388.0121 131.48865 393.11133 163.29688 C 394.94015 174.70687 396.66884 185.17441 397.97852 192.84961 C 398.63335 196.68721 399.18279 199.82629 399.58789 202.03906 C 399.79044 203.14545 399.95782 204.02013 400.08398 204.63867 C 400.14708 204.94794 400.19994 205.19254 400.24414 205.37695 C 400.26624 205.46915 400.28604 205.54562 400.30664 205.61523 C 400.32684 205.68383 400.31164 205.71073 400.41602 205.87891 C 400.61984 206.20848 400.86717 206.30258 401.11914 206.40234 C 401.37112 206.50214 401.65569 206.57563 401.98828 206.64258 C 402.65346 206.77647 403.50545 206.87406 404.49805 206.94727 C 406.48324 207.09367 409.02301 207.13589 411.55469 207.08789 C 414.08637 207.03989 416.60518 206.90271 418.55078 206.68164 C 419.52358 206.57111 420.35006 206.44119 420.98828 206.28125 C 421.30739 206.20125 421.57726 206.1168 421.81836 206.00195 C 422.05946 205.88711 422.32802 205.76606 422.48047 205.36914 C 422.60561 205.0433 422.55819 204.93766 422.55469 204.69727 C 422.55069 204.45687 422.53506 204.156 422.50586 203.78906 C 422.44736 203.05518 422.33954 202.05666 422.18945 200.81836 C 421.88927 198.34175 421.41858 194.91497 420.82422 190.83789 C 419.6355 182.68372 417.95641 171.92856 416.18359 161.01172 C 414.41078 150.09488 412.54446 139.01772 410.98047 130.21875 C 410.19847 125.81927 409.49189 121.98882 408.91016 119.03125 C 408.32843 116.07368 407.88322 114.02112 407.57617 113.04102 L 407.57617 113.03906 C 403.19802 99.088465 392.40303 86.864816 378.47852 79.980469 C 373.65106 77.595822 370.55456 76.275603 365.58008 75.503906 C 360.6056 74.73221 353.77661 74.492208 341.29492 74.181641 L 318.18555 73.599609 L 317.38477 70.773438 L 317.38281 70.773438 C 316.68417 68.332296 314.70026 65.62878 312.2793 63.285156 C 309.85833 60.941532 307.00949 58.975892 304.42578 58.205078 L 304.42578 58.207031 C 303.50504 57.932006 301.66225 57.791971 298.80273 57.636719 C 295.94322 57.481466 292.16802 57.352723 287.77734 57.25 C 278.99599 57.044555 267.75579 56.943359 256.51367 56.943359 L 255.4082 56.943359 z M 55.173828 217.53125 L 54.976562 217.57227 L 54.882812 217.62695 L 50.882812 219.94922 C 45.127423 223.24676 41.512451 228.67039 41.011719 235.00781 C 40.922839 236.13423 41.17733 238.38244 41.794922 242.48633 C 42.412514 246.59022 43.408964 252.46796 44.857422 260.52539 C 47.754338 276.64025 52.459223 301.46811 59.544922 338.18164 C 64.747904 365.14005 69.545195 390.02607 73.082031 408.40625 C 74.85045 417.59634 76.302813 425.16119 77.333984 430.54297 C 78.365156 435.92475 78.981668 439.16636 79.052734 439.57812 C 79.744019 443.56514 83.115333 448.66345 86.644531 451.13086 C 88.046696 452.11252 89.056922 452.97894 92.169922 453.54688 C 95.282922 454.1148 100.55333 454.46813 110.92969 454.69336 C 131.6824 455.14382 172.83485 455.06398 257.4082 454.95898 L 419.06836 454.76172 L 423.27734 452.34961 C 428.77007 449.20354 432.128 444.12793 433.38867 437.10742 C 433.92942 434.09248 442.72948 388.41541 452.89844 335.80664 C 459.82514 299.96059 464.4182 275.74032 467.24414 260.01367 C 468.65711 252.15035 469.62758 246.41134 470.22852 242.39844 C 470.82945 238.38553 471.07671 236.17599 470.98828 235.05469 C 470.48778 228.72013 466.92295 223.24314 461.16406 219.94336 L 456.95508 217.53125 L 55.173828 217.53125 z M 133.62305 268.41406 C 134.80692 268.34 135.96167 268.67777 137.69531 269.29102 C 139.93851 270.08476 142.51063 271.86387 143.74609 273.5293 C 144.24426 274.20247 144.7033 274.92509 145 276.34766 C 145.2967 277.77023 145.48828 279.92555 145.62891 283.76758 C 145.91016 291.45163 145.97652 305.87741 146.10352 334.29297 C 146.24302 365.47286 146.32382 381.06453 145.73633 389.34961 C 145.44258 393.49215 144.99378 395.82391 144.22656 397.41211 C 143.45934 399.00031 142.35312 399.74571 141.10156 400.56641 C 134.9815 404.57592 127.18581 402.54382 123.9668 396.10156 C 123.14503 394.45587 122.71653 392.32558 122.48633 384.17188 C 122.2561 376.01816 122.2168 361.74091 122.2168 335.63672 C 122.2168 303.60764 122.14548 288.20592 123 280.24609 C 123.42726 276.26618 124.08274 274.0916 125.20898 272.64844 C 126.33522 271.20528 127.81772 270.64732 129.60938 269.77344 C 131.09313 269.04875 132.07921 268.74438 133.09766 268.5957 L 133.14062 268.44336 L 133.62305 268.41406 z M 196.16211 268.41406 C 197.34466 268.34008 198.45858 268.67909 200.1875 269.29102 C 202.4307 270.08476 205.00282 271.86387 206.23828 273.5293 C 206.7356 274.20132 207.19822 274.92291 207.5 276.3457 C 207.80178 277.7685 207.99762 279.92327 208.14453 283.76562 C 208.43835 291.45035 208.51853 305.8772 208.64453 334.29297 C 208.78403 365.47304 208.85196 381.06394 208.25195 389.34961 C 207.95195 393.49244 207.49473 395.82618 206.72266 397.41406 C 205.95058 399.00194 204.84462 399.746 203.59375 400.56641 C 197.47519 404.57494 189.72549 402.54115 186.50781 396.10156 C 185.68605 394.45587 185.25754 392.32558 185.02734 384.17188 C 184.79711 376.01816 184.75781 361.74091 184.75781 335.63672 C 184.75781 303.60764 184.6865 288.20592 185.54102 280.24609 C 185.96827 276.26618 186.62376 274.0916 187.75 272.64844 C 188.87624 271.20528 190.35874 270.64732 192.15039 269.77344 C 193.61076 269.06018 194.58044 268.77033 195.58398 268.61523 L 195.60742 268.44922 L 196.16211 268.41406 z M 254.84375 268.41406 C 256.02765 268.34 257.18519 268.67772 258.91797 269.29102 C 261.16116 270.08476 263.73329 271.86387 264.96875 273.5293 C 265.46607 274.20132 265.92869 274.92291 266.23047 276.3457 C 266.53225 277.7685 266.72809 279.92327 266.875 283.76562 C 267.16882 291.45035 267.249 305.8772 267.375 334.29297 C 267.5145 365.47304 267.58243 381.06394 266.98242 389.34961 C 266.68242 393.49244 266.22715 395.82618 265.45508 397.41406 C 264.683 399.00194 263.57509 399.746 262.32422 400.56641 C 256.20415 404.57592 248.40847 402.54382 245.18945 396.10156 C 244.36638 394.45325 243.95033 392.32311 243.73242 384.16992 C 243.51453 376.01673 243.48633 361.74069 243.48633 335.63672 C 243.48633 303.60764 243.41502 288.20592 244.26953 280.24609 C 244.69679 276.26618 245.35423 274.0916 246.48047 272.64844 C 247.60671 271.20528 249.08921 270.64732 250.88086 269.77344 C 252.35709 269.05243 253.31038 268.74776 254.31836 268.59766 L 254.36328 268.44336 L 254.84375 268.41406 z M 316.44531 268.41406 C 317.62786 268.34008 318.73983 268.67909 320.46875 269.29102 C 322.7087 270.08361 325.32778 271.85543 326.56836 273.5293 C 327.06653 274.20247 327.52556 274.92509 327.82227 276.34766 C 328.11897 277.77023 328.30859 279.92555 328.44922 283.76758 C 328.73047 291.45163 328.79878 305.87741 328.92578 334.29297 C 329.06528 365.47304 329.13321 381.06394 328.5332 389.34961 C 328.2332 393.49244 327.77794 395.82618 327.00586 397.41406 C 326.23378 399.00194 325.12587 399.746 323.875 400.56641 C 317.75644 404.57494 310.00674 402.54115 306.78906 396.10156 C 305.9673 394.45587 305.53879 392.32558 305.30859 384.17188 C 305.07836 376.01816 305.03906 361.74091 305.03906 335.63672 C 305.03906 303.60764 304.96775 288.20592 305.82227 280.24609 C 306.24952 276.26618 306.90501 274.0916 308.03125 272.64844 C 309.15749 271.20528 310.63999 270.64732 312.43164 269.77344 C 313.89137 269.06049 314.8621 268.7705 315.86523 268.61523 L 315.88867 268.44922 L 316.44531 268.41406 z M 377.99414 268.41406 C 379.17804 268.34 380.33558 268.67772 382.06836 269.29102 C 384.31156 270.08476 386.88368 271.86387 388.11914 273.5293 C 388.61646 274.20132 389.07908 274.92291 389.38086 276.3457 C 389.68264 277.7685 389.87848 279.92327 390.02539 283.76562 C 390.31921 291.45035 390.39939 305.8772 390.52539 334.29297 C 390.66489 365.47304 390.73282 381.06394 390.13281 389.34961 C 389.83281 393.49244 389.37559 395.82618 388.60352 397.41406 C 387.83144 399.00194 386.72548 399.746 385.47461 400.56641 C 379.35454 404.57592 371.55886 402.54382 368.33984 396.10156 C 367.51677 394.45325 367.10072 392.32311 366.88281 384.16992 C 366.66492 376.01673 366.63672 361.74069 366.63672 335.63672 C 366.63672 303.60764 366.56541 288.20592 367.41992 280.24609 C 367.84718 276.26618 368.50462 274.0916 369.63086 272.64844 C 370.75674 271.20574 372.23841 270.64684 374.0293 269.77344 C 375.50562 269.05238 376.46071 268.74774 377.46875 268.59766 L 377.51367 268.44336 L 377.99414 268.41406 z "
     id="path3363" />
</svg>
