<?xml version="1.0" encoding="UTF-8" standalone="no"?>
<!-- Created with Inkscape (http://www.inkscape.org/) -->

<svg
   xmlns:dc="http://purl.org/dc/elements/1.1/"
   xmlns:cc="http://creativecommons.org/ns#"
   xmlns:rdf="http://www.w3.org/1999/02/22-rdf-syntax-ns#"
   xmlns:svg="http://www.w3.org/2000/svg"
   xmlns="http://www.w3.org/2000/svg"
   xmlns:sodipodi="http://sodipodi.sourceforge.net/DTD/sodipodi-0.dtd"
   xmlns:inkscape="http://www.inkscape.org/namespaces/inkscape"
   id="svg2"
   height="100%"
   width="100%"
   version="1.1"
   viewBox="0 0 512 512"
   inkscape:version="0.91 r13725"
   sodipodi:docname="bespin-logo.svg">
  <defs
     id="defs34" />
  <sodipodi:namedview
     pagecolor="#ffffff"
     bordercolor="#666666"
     borderopacity="1"
     objecttolerance="10"
     gridtolerance="10"
     guidetolerance="10"
     inkscape:pageopacity="0"
     inkscape:pageshadow="2"
     inkscape:window-width="640"
     inkscape:window-height="480"
     id="namedview32"
     showgrid="false"
     inkscape:zoom="0.5546875"
     inkscape:cx="36.056338"
     inkscape:cy="240.67606"
     inkscape:current-layer="svg2" />
  <metadata
     id="metadata64">
    <rdf:RDF>
      <cc:Work
         rdf:about="">
        <dc:format>image/svg+xml</dc:format>
        <dc:type
           rdf:resource="http://purl.org/dc/dcmitype/StillImage" />
      </cc:Work>
    </rdf:RDF>
  </metadata>
  <g
     id="g3389"
     transform="translate(328.11267,-364.16901)">
    <rect
       x="-328.11566"
       y="364.164"
       width="512"
       height="512"
       rx="25.988001"
       id="rect4"
       style="fill:#5d5c5d" />
    <path
       d="m -78.085676,404.75801 c -1.268,-0.01 -2.703,0.111 -4.344,0.406 -98.950004,-1.722 -185.800004,80.891 -199.810004,176.94 -13.879,75.834 15.401,156.19 73,206.91 29.1,29.01 58.15,58.09 87.19,87.16 l 279.94,0 c 14.397,0 26,-11.603 26,-26 l 0,-290.25 c -38.31,-41.547 -75.981,-83.77 -115.719996,-123.84 -29.11,-27.951 -78.32,-3.748 -93.31,15.688 -5.127,-3.857 -9.517,-8.422 -13.438,-13.438 -5.856,-3.658 -9.07,-9.848 -14.938,-13.5 -3.594,-5.807 -9.837,-9.08 -13.438,-14.875 -3.194,-2.539 -5.63,-5.142 -11.125,-5.188"
       id="path6"
       style="fill-opacity:0.23500001;fill-rule:evenodd"
       inkscape:connector-curvature="0" />
    <g
       transform="matrix(1.3028,0,0,1.3028,1494.2843,-414.51599)"
       id="g54"
       style="fill:#ffffff;fill-rule:evenodd">
      <path
         d="m -1210.3,88.81 c -86.05,0 -155.81,73.886 -155.81,165.03 0,90.97 69.49,164.75 155.31,165.03 0.167,10e-4 0.333,0 0.5,0 l 171.53,0 0,-0.75 0.094,0 0,-201.47 -71.5,0 -54.656,75.66 -37.03,0 0,-203.25 c -2.8,-0.159 -5.6,-0.25 -8.437,-0.25"
         transform="translate(0,540.36)"
         id="path56"
         inkscape:connector-curvature="0" />
      <path
         d="m -1088.2,145.37 c 0,24.798 -20.1,44.901 -44.901,44.901 -24.798,0 -44.901,-20.1 -44.901,-44.901 0,-24.798 20.1,-44.901 44.901,-44.901 24.798,0 44.901,20.1 44.901,44.901"
         transform="matrix(1.0787,0,0,1.0787,98.77,534.93)"
         id="path58"
         inkscape:connector-curvature="0" />
    </g>
  </g>
</svg>
