<?xml version="1.0" encoding="UTF-8" standalone="no"?>
<!-- Created with Inkscape (http://www.inkscape.org/) -->

<svg
   xmlns:dc="http://purl.org/dc/elements/1.1/"
   xmlns:cc="http://creativecommons.org/ns#"
   xmlns:rdf="http://www.w3.org/1999/02/22-rdf-syntax-ns#"
   xmlns:svg="http://www.w3.org/2000/svg"
   xmlns="http://www.w3.org/2000/svg"
   xmlns:sodipodi="http://sodipodi.sourceforge.net/DTD/sodipodi-0.dtd"
   xmlns:inkscape="http://www.inkscape.org/namespaces/inkscape"
   id="svg2"
   height="100%"
   width="100%"
   version="1.1"
   viewBox="0 0 512 512"
   inkscape:version="0.91 r13725"
   sodipodi:docname="bleachbit.svg">
  <defs
     id="defs38" />
  <sodipodi:namedview
     pagecolor="#ffffff"
     bordercolor="#666666"
     borderopacity="1"
     objecttolerance="10"
     gridtolerance="10"
     guidetolerance="10"
     inkscape:pageopacity="0"
     inkscape:pageshadow="2"
     inkscape:window-width="640"
     inkscape:window-height="480"
     id="namedview36"
     showgrid="false"
     inkscape:zoom="0.5546875"
     inkscape:cx="36.056338"
     inkscape:cy="240.67606"
     inkscape:current-layer="svg2" />
  <metadata
     id="metadata72">
    <rdf:RDF>
      <cc:Work
         rdf:about="">
        <dc:format>image/svg+xml</dc:format>
        <dc:type
           rdf:resource="http://purl.org/dc/dcmitype/StillImage" />
      </cc:Work>
    </rdf:RDF>
  </metadata>
  <rect
     style="fill:#cd1c30"
     id="rect4"
     rx="25.988001"
     height="512"
     width="512"
     y="-0.0025060938"
     x="3.4228515e-06" />
  <path
     inkscape:connector-curvature="0"
     style="fill-opacity:0.23500001"
     id="path6"
     d="m 324.47,49.6855 c -7.936,0.063 -31.705,0.421 -35.975,0.125 l -85.59,0 c -34.37,2.033 -41.461,42.803 -58.719,65.906 -20.917,24.598 -5.988,55.848 16.281,72.75 46.47,46.522 92.99,92.99 139.47,139.5 -7.774,23.715 7.874,43.593 -29.938,5.781 -43.18,-42.39 -84.9,-86.47 -129,-127.78 -26.545,-8.354 -83.54,-10.336 -94.69,5 5.03,9.416 27.28,16.591 16.938,28.06 -11.145,20.991 -33.19,45.18 -15.5,69.19 19.614,33.904 39.119997,67.889 58.813,101.75 37.731,37.731 70.35,69.19 102.81,101.66 0.113,0.145 0.204,0.24 0.313,0.375 l 276.31,0 c 14.397,0 26,-11.603 26,-26 l 0,-289.09 c -33.655,-33.657 -67.31,-67.32 -100.94,-101 -11.621,5.786 1.332,30.894 -30.28,-0.719 -15.07,-13.792 -28.696,-34.808 -50.862,-35.09 -3.398,-6.623 0.012,0.223 -5.444,-10.413" />
  <g
     style="fill:#ffffff"
     id="g54"
     transform="matrix(1.4767,0,0,1.4767,-27.523,-27.5235)">
    <path
       inkscape:connector-curvature="0"
       id="path56"
       d="m 336.08,227.3 c -6.629,8.105 -16.66,12.918 -27.28,12.824 0,0 -67.906,0 -67.906,0.016 l 0.031,-20.11 c 0.008,-3.109 -1.566,-3.676 -3.469,-1.211 -8.793,11.371 -31.2,41.699 -31.2,55.641 0,13.934 22.402,44.27 31.2,55.637 1.902,2.465 3.477,1.902 3.469,-1.211 l -0.031,-20.03 34.609,0 c 8.348,0.059 16.473,-4.227 20.938,-11.957 l 40.02,-69.35 c 1.555,-2.699 1.59,-2.664 -0.383,-0.254" />
    <path
       inkscape:connector-curvature="0"
       id="path58"
       d="m 294.77,84.28 -17.355,10.06 c 0.012,0 -8.684,-15.184 -12.156,-21.2 -4.914,-8.449 -13.949,-13.77 -23.719,-13.742 -9.785,0.012 -18.836,5.371 -23.637,13.883 -0.02,0.016 -7.98,13.723 -15.984,27.672 l 16.15,27.973 -17.563,9.84 c -2.711,1.52 -2.43,3.145 0.656,3.555 14.246,1.926 51.719,6.148 63.797,-0.824 12.06,-6.969 27.13,-41.512 32.59,-54.813 1.18,-2.879 -0.09,-3.969 -2.781,-2.406" />
    <path
       inkscape:connector-curvature="0"
       id="path60"
       d="m 278.22,152.52 -10.695,6.176 c -13.48,7.781 -18.1,25.02 -10.309,38.492 l 20.594,35.668 c 16.09,0 31.945,0.008 31.961,0.008 9.801,0.074 18.918,-5.164 23.828,-13.621 4.879,-8.461 4.836,-18.996 -0.129,-27.426 0,-0.012 -7.621,-13.199 -16.746,-28.996 -7.789,-13.477 -25.03,-18.09 -38.504,-10.301" />
    <path
       inkscape:connector-curvature="0"
       id="path62"
       d="m 49.602,224.97 40.04,69.35 c 1.555,2.699 1.508,2.699 0.402,-0.211 -3.691,-9.781 -2.855,-20.887 2.531,-30.05 l 33.961,-58.809 17.398,10.09 c 2.695,1.563 3.969,0.48 2.785,-2.398 -5.449,-13.301 -20.52,-47.867 -32.586,-54.832 -12.08,-6.965 -49.555,-2.734 -63.797,-0.809 -3.09,0.418 -3.387,2.066 -0.688,3.613 l 17.402,9.988 -17.324,29.98 c -4.234,7.188 -4.578,16.363 -0.125,24.09" />
    <path
       inkscape:connector-curvature="0"
       id="path64"
       d="m 114.38,240.87 c -8.02,13.93 -15.965,27.672 -15.977,27.695 -4.953,8.418 -5.01,18.926 -0.105,27.402 4.891,8.48 14.02,13.711 23.793,13.637 l 33.492,0 c 15.566,0 28.19,-12.617 28.19,-28.18 l 0,-12.375 c 0,-15.563 -12.613,-28.18 -28.18,-28.18" />
    <path
       inkscape:connector-curvature="0"
       id="path66"
       d="m 156.04,52.36 c -8.926,0 -16.453,5.03 -20.789,12.13 -3.992,6.473 -13.781,23.445 -22.17,38.08 -7.738,13.504 -3.043,30.781 10.434,38.566 l 10.922,6.301 c 13.48,7.781 30.703,3.156 38.48,-10.328 13.887,-24.06 33.754,-58.49 38.926,-67.39 5.332,-9.184 14.09,-15.27 24.273,-16.91 3.078,-0.496 3.102,-0.445 -0.016,-0.445" />
  </g>
</svg>
