<?xml version="1.0" encoding="UTF-8" standalone="no"?>
<!-- Created with Inkscape (http://www.inkscape.org/) -->

<svg
   xmlns:dc="http://purl.org/dc/elements/1.1/"
   xmlns:cc="http://creativecommons.org/ns#"
   xmlns:rdf="http://www.w3.org/1999/02/22-rdf-syntax-ns#"
   xmlns:svg="http://www.w3.org/2000/svg"
   xmlns="http://www.w3.org/2000/svg"
   xmlns:sodipodi="http://sodipodi.sourceforge.net/DTD/sodipodi-0.dtd"
   xmlns:inkscape="http://www.inkscape.org/namespaces/inkscape"
   id="svg2"
   height="100%"
   width="100%"
   version="1.1"
   viewBox="0 0 512 512"
   inkscape:version="0.91 r13725"
   sodipodi:docname="boinc.svg">
  <defs
     id="defs32" />
  <sodipodi:namedview
     pagecolor="#ffffff"
     bordercolor="#666666"
     borderopacity="1"
     objecttolerance="10"
     gridtolerance="10"
     guidetolerance="10"
     inkscape:pageopacity="0"
     inkscape:pageshadow="2"
     inkscape:window-width="640"
     inkscape:window-height="480"
     id="namedview30"
     showgrid="false"
     inkscape:zoom="0.5546875"
     inkscape:cx="36.056338"
     inkscape:cy="240.67606"
     inkscape:current-layer="svg2" />
  <metadata
     id="metadata60">
    <rdf:RDF>
      <cc:Work
         rdf:about="">
        <dc:format>image/svg+xml</dc:format>
        <dc:type
           rdf:resource="http://purl.org/dc/dcmitype/StillImage" />
      </cc:Work>
    </rdf:RDF>
  </metadata>
  <rect
     style="fill:#174775"
     id="rect4"
     rx="25.988001"
     height="512"
     width="512"
     y="-0.0040060058"
     x="-0.00049554685" />
  <path
     inkscape:connector-curvature="0"
     id="path6"
     style="color:#000000;fill-opacity:0.23500001"
     d="m 67.84349,40.996 -26.781,26.781 c 50.16,49.953 99.69,100.17 149.72,150.16 -7.273,14.784 -7.256,34.566 -20.438,15.375 -15.914,-15.941 -31.877,-31.831 -47.844,-47.719 -28.15,50.855 -22.08,117.66 14.219,162.97 l -95.66,95.66 67.781,67.781 377.16,0 c 14.397,0 26,-11.603 26,-26 l 0,-377.28 c -22.575,-22.571 -45.15,-45.14 -67.72,-67.72 -33.38,32.918 -66.978,67.876 -100.22,99.47 -7.109,-5.669 -11.256,-11.754 -18.406,-17.438 -48.18,-28.843 -117.5,-22.529 -162.09,13.719 -31.87,-31.95 -63.813,-63.829 -95.715,-95.751" />
  <path
     inkscape:connector-curvature="0"
     id="path54"
     style="color:#000000;fill:#ffffff"
     d="m 67.83349,40.996 -26.779,26.779 95.65,95.76 0,0.33 26.779,26.779 c 20.541,-29 54.33,-48.05 92.57,-48.05 14.77,0 28.715,3.128 41.656,8.265 l 28.432,-28.321 c -21,-11.148 -44.66,-17.742 -70.09,-17.742 -34.9,0 -66.979,12.1 -92.57,31.958 l -95.65,-95.76 m 376.44,0 -95.76,95.76 c -0.145,-0.114 -0.186,-0.33 -0.33,-0.441 l -26.779,26.779 c 29.11,20.527 48.05,54.57 48.05,92.9 0,14.901 -3.041,29.17 -8.265,42.21 l 28.321,28.321 c 11.249,-21.08 17.742,-44.976 17.742,-70.53 0,-34.9 -12.1,-66.868 -31.958,-92.46 l 95.65,-95.76 -26.668,-26.779 m -188.22,139.4 c -41.754,0 -75.6,33.843 -75.6,75.6 0,41.754 33.843,75.6 75.6,75.6 41.754,0 75.6,-33.843 75.6,-75.6 0,-41.754 -33.843,-75.6 -75.6,-75.6 m -133.56,5.179 c -11.25,21.08 -17.742,44.866 -17.742,70.42 0,34.9 12.1,66.979 31.958,92.57 l -95.65,95.65 26.779,26.779 28.321,-28.321 -0.441,-0.441 94.11,-94.11 c -28.605,-20.588 -47.28,-54.19 -47.28,-92.13 0,-14.901 3.151,-29.06 8.375,-42.1 l -28.432,-28.321 m 226.02,135.77 c -20.541,29 -54.22,48.05 -92.46,48.05 -15.214,0 -29.721,-3.162 -42.978,-8.596 l -28.321,28.321 c 21.262,11.505 45.44,18.07 71.3,18.07 34.9,0 66.869,-11.987 92.46,-31.848 l 95.76,95.65 26.668,-26.779 -56.2,-56.643 -39.452,-39.01 c 0.063,-0.088 -0.063,-0.356 0,-0.441 l -26.779,-26.779" />
</svg>
