<?xml version="1.0" encoding="UTF-8" standalone="no"?>
<svg
   xmlns:dc="http://purl.org/dc/elements/1.1/"
   xmlns:cc="http://creativecommons.org/ns#"
   xmlns:rdf="http://www.w3.org/1999/02/22-rdf-syntax-ns#"
   xmlns:svg="http://www.w3.org/2000/svg"
   xmlns="http://www.w3.org/2000/svg"
   xmlns:sodipodi="http://sodipodi.sourceforge.net/DTD/sodipodi-0.dtd"
   xmlns:inkscape="http://www.inkscape.org/namespaces/inkscape"
   viewBox="0 0 512 512"
   id="svg2"
   version="1.1"
   inkscape:version="0.91 r13725"
   sodipodi:docname="boot-repair.svg">
  <metadata
     id="metadata1208">
    <rdf:RDF>
      <cc:Work
         rdf:about="">
        <dc:format>image/svg+xml</dc:format>
        <dc:type
           rdf:resource="http://purl.org/dc/dcmitype/StillImage" />
      </cc:Work>
    </rdf:RDF>
  </metadata>
  <defs
     id="defs1206" />
  <sodipodi:namedview
     pagecolor="#ffffff"
     bordercolor="#666666"
     borderopacity="1"
     objecttolerance="10"
     gridtolerance="10"
     guidetolerance="10"
     inkscape:pageopacity="0"
     inkscape:pageshadow="2"
     inkscape:window-width="640"
     inkscape:window-height="480"
     id="namedview1204"
     showgrid="false"
     inkscape:zoom="0.5546875"
     inkscape:cx="36.056338"
     inkscape:cy="240.67606"
     inkscape:current-layer="svg2" />
  <path
     inkscape:connector-curvature="0"
     style="fill:#924565"
     d="M 26,0 C 11.603,0 0,11.603 0,26 l 0,460 c 0,14.397 11.603,26 26,26 l 460,0 c 14.397,0 26,-11.603 26,-26 L 512,26 C 512,11.603 500.397,0 486,0 L 26,0"
     id="path290" />
  <path
     inkscape:connector-curvature="0"
     style="opacity:0.25"
     d="m 383.59,41 c -30.691,-0.051 -62.726,12.335 -84.13,33.764 -25.963,25.959 -24.95,53.783 -9.6,80.91 2.189,3.871 6.385,11.659 -4.258,22.307 -5.679,5.679 -12.205,12.04 -19.05,18.643 L 226.72,156.792 c -2.138,-2.138 -5.116,-3.481 -8.641,-3.482 l -35.791,0.033 c -6.732,0 -11.307,4.927 -12.168,10.883 l -4.832,33.629 c -17.408,6.844 -22.13,9.03 -22.14,9.02 l -26.529,-20.988 c -4.717,-3.738 -11.496,-3.847 -16.256,0.912 l -25.314,25.314 c -4.761,4.761 -4.515,11.431 -0.912,16.256 l 20.379,27.342 c -3.817,7.12 -6.79,14.564 -9.06,22.17 l -33.36,3.818 c -5.979,0.693 -10.845,5.468 -10.848,12.201 l -0.035,35.791 c 0,3.499 1.322,6.404 3.428,8.51 l 41.492,41.492 -12.373,15.598 c -3.738,4.717 -3.848,11.564 0.912,16.324 l 25.316,25.316 0.002,0.002 75.06,75.06 310.94,0 c 14.397,0 26,-11.603 26,-26 l 0,-338.75 -103.21,-103.21 c -8.12,-2.039 -16.608,-3.03 -25.2,-3.043"
     id="path1200" />
  <path
     inkscape:connector-curvature="0"
     style="fill:#ffffff"
     d="m 408.8,44.04 c -37.12,-9.321 -81.935,3.292 -109.33,30.721 -25.963,25.959 -24.949,53.782 -9.598,80.91 2.189,3.871 6.385,11.659 -4.258,22.306 -15.351,15.35 -35.685,34.694 -57.15,54.785 -29.18,26.586 -54.18,43.497 -55.06,44.38 -17.597,17.584 -18.13,45.545 -1.217,62.46 16.905,16.916 44.856,16.384 62.46,-1.217 29.635,-41.544 61.57,-74.07 97.81,-110.52 11.226,-11.236 21.1,-7.329 25.584,-4.901 26.521,14.347 53.634,14.704 78.984,-10.646 27.419,-27.432 40.05,-72.21 30.721,-109.33 l -65.904,65.904 c 0,0 -19.643,0.009 -39.31,-19.636 -19.646,-19.663 -19.636,-39.31 -19.636,-39.31 L 408.8,44.042 m -53.872,240.7 c -1.885,-1.671 -4.313,-2.705 -6.928,-3.01 l -33.966,-3.954 c -1.037,-3.47 -2.231,-6.892 -3.582,-10.274 -19.784,20.526 -38.37,42.22 -56,64.59 -12.69,25.31 -44.982,38.95 -71.65,28.727 -34.577,-11.284 -46.05,-59.683 -23.22,-86.76 28.826,-23.436 57.755,-47.03 84.73,-72.7 -3.343,-1.338 -6.745,-2.521 -10.173,-3.549 l -3.887,-33.628 c -0.693,-5.979 -5.434,-10.88 -12.167,-10.883 l -35.791,0.034 c -6.732,0 -11.306,4.927 -12.167,10.883 l -4.833,33.628 c -17.536,6.895 -22.2,9.06 -22.14,9.02 l -26.531,-20.988 c -4.717,-3.738 -11.497,-3.847 -16.256,0.913 l -25.314,25.314 c -4.761,4.761 -4.515,11.432 -0.913,16.256 l 20.38,27.342 c -3.817,7.12 -6.789,14.563 -9.06,22.17 l -33.36,3.819 c -5.979,0.693 -10.846,5.467 -10.849,12.201 l -0.034,35.791 c 0,6.732 4.891,11.27 10.849,12.133 l 33.493,4.833 c 2.3,7.611 5.34,15.05 9.193,22.17 l -20.988,26.463 c -3.738,4.717 -3.847,11.564 0.913,16.324 l 25.314,25.314 c 4.761,4.761 11.466,4.481 16.29,0.879 l 27.308,-20.413 c 6.954,3.709 14.212,6.685 21.63,8.922 l 4.901,33.831 c 0.862,5.957 5.4,10.846 12.133,10.849 l 35.825,0 c 6.732,0 11.474,-4.904 12.167,-10.883 l 3.887,-33.831 c 7.53,-2.261 14.884,-5.244 21.934,-9.02 l 27.342,20.38 c 4.821,3.602 11.497,3.847 16.256,-0.913 l 25.314,-25.314 c 4.761,-4.761 4.652,-11.537 0.913,-16.256 l -21.06,-26.598 c 3.766,-7 6.787,-14.291 9.06,-21.765 l 34.1,-4.968 c 5.957,-0.862 10.88,-5.434 10.883,-12.167 l -0.034,-35.791 c 0,-3.366 -1.177,-6.241 -3.143,-8.348 -0.246,-0.263 -0.508,-0.539 -0.777,-0.777 m -133.57,5.678 c 3.472,3.472 5.644,8.253 5.644,13.553 0,10.599 -8.598,19.2 -19.2,19.2 -10.599,0 -19.2,-8.598 -19.2,-19.2 0,-10.599 8.598,-19.2 19.2,-19.2 5.299,0 10.08,2.172 13.553,5.644"
     id="path1202" />
</svg>
