<?xml version="1.0" encoding="UTF-8" standalone="no"?>
<svg
   xmlns:dc="http://purl.org/dc/elements/1.1/"
   xmlns:cc="http://creativecommons.org/ns#"
   xmlns:rdf="http://www.w3.org/1999/02/22-rdf-syntax-ns#"
   xmlns:svg="http://www.w3.org/2000/svg"
   xmlns="http://www.w3.org/2000/svg"
   xmlns:sodipodi="http://sodipodi.sourceforge.net/DTD/sodipodi-0.dtd"
   xmlns:inkscape="http://www.inkscape.org/namespaces/inkscape"
   viewBox="0 0 512 512"
   id="svg2"
   version="1.1"
   inkscape:version="0.91 r13725"
   sodipodi:docname="box.svg">
  <metadata
     id="metadata1436">
    <rdf:RDF>
      <cc:Work
         rdf:about="">
        <dc:format>image/svg+xml</dc:format>
        <dc:type
           rdf:resource="http://purl.org/dc/dcmitype/StillImage" />
      </cc:Work>
    </rdf:RDF>
  </metadata>
  <defs
     id="defs1434" />
  <sodipodi:namedview
     pagecolor="#ffffff"
     bordercolor="#666666"
     borderopacity="1"
     objecttolerance="10"
     gridtolerance="10"
     guidetolerance="10"
     inkscape:pageopacity="0"
     inkscape:pageshadow="2"
     inkscape:window-width="640"
     inkscape:window-height="480"
     id="namedview1432"
     showgrid="false"
     inkscape:zoom="0.5546875"
     inkscape:cx="36.056338"
     inkscape:cy="240.67606"
     inkscape:current-layer="svg2" />
  <g
     id="g4785"
     transform="translate(344.33803,-328.11268)">
    <path
       id="path1380"
       d="m -318.34503,328.11168 c -14.397,0 -26,11.603 -26,26 l 0,460 c 0,14.397 11.603,26 26,26 l 460,0 c 14.397,0 26,-11.603 26,-26 l 0,-460 c 0,-14.397 -11.603,-26 -26,-26 l -460,0"
       style="fill:#5a8bc0"
       inkscape:connector-curvature="0" />
    <path
       id="path1428"
       d="m -29.975028,463.71168 c -46.988,0 -87.050002,29.74 -102.320002,71.43 -11.224,-10.718 -26.371,-17.375 -43.11,-17.375 -31.7,0 -57.817,23.598 -61.904,54.18 -36.58,0.769 -66.03,30.669 -66.03,67.44 0,18.589 7.517,35.38 19.678,47.537 l 153.19,153.19 272.14,0 c 14.397,0 26,-11.603 26,-26 l 0,-197.84 -120.669998,-120.67 c -19.701,-19.701 -46.91000017,-31.892 -76.965,-31.893 l -0.002,0 0,-0.002"
       style="opacity:0.25"
       inkscape:connector-curvature="0" />
    <path
       id="path1430"
       d="m -29.975028,463.71168 c -46.988,0 -87.050002,29.741 -102.320002,71.43 -11.224,-10.718 -26.37,-17.375 -43.11,-17.375 -31.7,0 -57.818,23.597 -61.906,54.18 -36.58,0.769 -66.03,30.67 -66.03,67.44 0,31.34 21.361,57.55 50.32,65.12 l 318.800002,0 c 35.069998,-9.331 60.875998,-41.11 60.875998,-79.15 0,-34.05 -20.69,-63.33 -50.199998,-75.8 -10.597,-49.04 -54.22,-85.84 -106.43,-85.84 m -150.590002,72.842 c 4.963,0 9.01,3.917 9.01,8.881 l 0,35.65 c 6.849,-4.818 15.168,-7.722 24.2,-7.722 16.17,0 30.23,9.06 37.32,22.394 7.097,-13.312 21.050002,-22.394 37.200002,-22.394 23.283,0 42.08,18.804 42.08,42.08 0,23.283 -18.804,42.22 -42.08,42.22 -16.15,0 -30.100002,-9.168 -37.200002,-22.523 -7.087,13.383 -21.15,22.523 -37.32,22.523 -23.283,0 -42.08,-18.932 -42.08,-42.22 0,-0.486 0.112,-0.934 0.128,-1.415 -0.061,-0.427 -0.128,-0.843 -0.128,-1.287 l 0,-67.31 c 0,-4.963 3.917,-8.881 8.881,-8.881 m 149.560002,33.976 c 2.94,-0.086 5.862,1.269 7.722,3.861 l 18.0199998,25.1 17.8900002,-25.1 c 2.961,-4.126 8.736,-5.156 12.87,-2.188 4.126,2.961 5.156,8.736 2.188,12.87 l -21.7510002,30.12 21.7510002,30.25 c 2.953,4.114 1.909,9.802 -2.188,12.741 -4.105,2.946 -9.894,2.088 -12.87,-2.059 l -17.8900002,-25.1 -18.0199998,25.1 c -2.976,4.147 -8.765,5.01 -12.87,2.059 -4.096,-2.94 -5.14,-8.628 -2.188,-12.741 l 21.751,-30.25 -21.751,-30.12 c -2.967,-4.135 -1.938,-9.91 2.188,-12.87 1.592,-1.143 3.436,-1.622 5.148,-1.673 m -116.350002,18.919 c -14.358,0 -25.997,11.641 -25.997,25.997 0,14.358 11.641,25.997 25.997,25.997 14.358,0 25.997,-11.641 25.997,-25.997 0,-14.358 -11.641,-25.997 -25.997,-25.997 m 74.520002,0 c -14.358,0 -25.997,11.641 -25.997,25.997 0,14.358 11.641,25.997 25.997,25.997 14.358,0 25.997,-11.641 25.997,-25.997 0,-14.358 -11.641,-25.997 -25.997,-25.997"
       style="fill:#ffffff"
       inkscape:connector-curvature="0" />
  </g>
</svg>
