<?xml version="1.0" encoding="UTF-8" standalone="no"?>
<!-- Created with Inkscape (http://www.inkscape.org/) -->

<svg
   xmlns:dc="http://purl.org/dc/elements/1.1/"
   xmlns:cc="http://creativecommons.org/ns#"
   xmlns:rdf="http://www.w3.org/1999/02/22-rdf-syntax-ns#"
   xmlns:svg="http://www.w3.org/2000/svg"
   xmlns="http://www.w3.org/2000/svg"
   xmlns:sodipodi="http://sodipodi.sourceforge.net/DTD/sodipodi-0.dtd"
   xmlns:inkscape="http://www.inkscape.org/namespaces/inkscape"
   id="svg2"
   height="100%"
   width="100%"
   version="1.1"
   viewBox="0 0 512 512"
   inkscape:version="0.91 r13725"
   sodipodi:docname="browser-tor.svg">
  <defs
     id="defs36" />
  <sodipodi:namedview
     pagecolor="#ffffff"
     bordercolor="#666666"
     borderopacity="1"
     objecttolerance="10"
     gridtolerance="10"
     guidetolerance="10"
     inkscape:pageopacity="0"
     inkscape:pageshadow="2"
     inkscape:window-width="640"
     inkscape:window-height="480"
     id="namedview34"
     showgrid="false"
     inkscape:zoom="0.5546875"
     inkscape:cx="36.056338"
     inkscape:cy="240.67606"
     inkscape:current-layer="svg2" />
  <metadata
     id="metadata68">
    <rdf:RDF>
      <cc:Work
         rdf:about="">
        <dc:format>image/svg+xml</dc:format>
        <dc:type
           rdf:resource="http://purl.org/dc/dcmitype/StillImage" />
      </cc:Work>
    </rdf:RDF>
  </metadata>
  <g
     id="g3397"
     transform="translate(219.94366,-15.323944)">
    <rect
       x="-219.94716"
       y="15.333943"
       width="512"
       height="512"
       rx="25.988001"
       id="rect4"
       style="fill:#924565" />
    <path
       d="m -193.94716,15.333944 c -14.397,0 -26,11.603 -26,26 l 0,173.529996 c 5.213,-0.462 10.211,-0.248 14.531,0.656 l -1.813,3.594 16,14.438 c 0.073,-27.546 10.752,-30.446 25.75,-50.5 l 10.469,-19.344 c 11.639,-12.996 29.727,-21.844 45.34,-27.688 l 19.562998,-12.344 c -6.334,-11.131 -22.996998,-7.941 -33.687998,-7.219 19.225,-11.11 45.359998,-5.108 58.529998,-25.219996 -14.365,-10.613 -14.363,-38.29 -37.249998,-27 l 3.529998,-10.821 -19.499998,-9.06 -14.216,30.16 -19.531,23.906 -1.75,-12.594 c -7.501,-3.539 -28.15,-9.754 -28.563,-19.844 -0.438,-10.966 32.924,-27.533 41,-34.19 l -3.563,9 13.75,-1.313 c 2,-1.282 15.638,-20.315 25.16,-24.16 l -87.75,0 m 93.25,0 c 1.658998,1.051 2.886998,3.385 3.468998,7.438 19.24,7.404 21.44,15.875 40.844,3.625 l -12.41,-5.438 c -0.232,-2.108 -0.662,-3.983 -1.25,-5.625 l -30.655998,0 m 72.589998,0 c -1.934,4.866 -7.258,9.03 -7.06,14.656 0.344,9.902 9.827,21.999 14.281,30.594 l 26.688,-29.563 c 11.999,-6.495 29.944,-8.286 42.531,-15.688 l -76.44,0 m 194.190002,0 -13.375,18.688 -16.875,14.281 c -2.721,6.562 1.597,16.49 2.938,23.09 l 17.75,-9 c 2.552,8.945 9.486,11.258 16,16.219 10.522,-20.265 1.44,-39.656 26.594,-50.47 l -15.969,19.875 5.344,-3.656 1.781,10.813 1.75,-14.406 c 4.687,16.251 -0.221,38.584 -17.75,44.719 l -17.75,-1.469 0,-10.813 c -10.09,2.139 -9.722,7.249 -7.06,16.219 -6.849,-1.976 -10.922,-1.669 -15.969,3.563 -5.42,-5.656 -9.821,-9.944 -10.625,-17.969 -3.445,-3.484 -5.02,-5.861 -5.375,-10.813 l -12.375,-1.813 5.281,28.844 c -4.734,-9.02 -9.625,-11.235 -19.500002,-9.06 l 5.344,21.624996 7.094002,-1.75 -5.344002,-1.844 7.125002,-12.624996 3.5,19.843996 16,-3.625 c -4.48,4.34 -8.05,5.396 -14.219,5.406 l 1.813,5.406 -8.875,0 12.406,21.625 c -29.070002,0.244 -29.403002,15.336 -28.375002,39.625 5.675,0.415 8.441,1.27 12.406,5.406 23.480002,-12.56 28.878002,-35.881 56.750002,-43.22 4.523,14.28 18.511,13.421 14.219,30.656 13.696,-2.838 17.531,-14.564 8.875,-25.25 11.668,7.06 14.997,21.528 23.03,32.406 5.657,-7.541 3.497,-16.17 12.469,-21.625 l 0,5.406 c 15.03,13.544 25.414,16.6 44.38,23.438 -6.517,9.393 -14.385,18.583 -26.625,17.813 -14.987,-0.942 -34.12,-15.841 -44.37,2 l -28.563,-23 c -15.837,-6.781 -31.392,-0.369 -47.719,-2.219 l -7.125,3.594 3.531,1.813 c -32.510002,14.849 -50.558002,53.964 -53.938002,86.47 l -6.188,21.625 c 3.457,21.11 21.1,42.947 35.906,57.31 10.418,10.113 17.902002,-9.65 27.813002,0.344 13.12,-5.04 32.912,-13.818 44.938,0.25 7.902,9.244 -0.366,16.893 2.375,26.781 4.743,17.11 16.09,37.15 16.06,55.844 l -4.438,45 c 2.52,17.786 9.662,33.762 14.469,50.625 l 60.31,0 c 0.926,-1.216 1.808,-2.461 2.625,-3.75 l 5.156,-16.03 9,-11.156 -3.406,-17.688 c 5.078,-12.374 25.626,-13.73 28.719,-27.25 4.212,-18.406 -6.781,-40.19 -0.219,-59.37 1.194,-3.489 2.627,-6.886 4.25,-10.188 l 0,-340.569996 c 0,-14.397 -11.603,-26 -26,-26 l -31.5,0 0,1.469 c -0.323,-0.239 -0.645,-0.481 -0.969,-0.719 -2.231,-0.222 -4.523,-0.471 -6.844,-0.75 l -60.66,0 m -386.03,246.809996 0,0.563 c 0.108,-0.114 0.201,-0.233 0.313,-0.344 -0.107,-0.074 -0.206,-0.148 -0.313,-0.219 m 0,23.22 0,35.31 11.03,10.313 23.03,3.438 c -8.227,18.845 -24.875,49.21 -21.844,70.25 1.764,12.236 14.09,29.667 21.16,39.625 9.878,13.91 28.528,22.15 33.5,39.656 l 0.813,28.844 3.625,14.531 79.719998,0 6.156,-21.656 25.281,-16.531 c 10.338,-15.678 2.819,-28.734 6.688,-44.844 l 17.03,-48.625 c -19.229,-7.29 -46.809,-16.25 -60.37,-32.438 l -3.5,1.844 -3.594,-16.219 -21.280998,-10.813 -3.531,3.594 -5.344,-25.22 -28.375,-2.313 -21.344,-11.781 c -9.184,-1.326 -21.325,13.911 -24.781,21.281 l -12.469,-1.781 3.594,-3.625 -10.656,-7.219 1.781,7.219 c -7.653,-8.03 -8.99,-18.17 -7.125,-28.844 l -9.188,-4"
       id="path6"
       style="fill:#ffffff;fill-opacity:0.43700005"
       inkscape:connector-curvature="0" />
    <path
       d="m 32.932838,65.281944 c -0.86,0.53 -5.888,19.475 -11.404,43.169996 -5.692,24.455 -11.11,45.44 -12.08,46.603 -0.208,0.252 -0.655,0.558 -1.198,0.885 -43.979,9.879 -78.66,44.21 -89.04,87.999 -0.017,0.07 -0.037,0.138 -0.052,0.208 -1.853,4.539 -3.329,5.299 -7.55,6.405 -3.366,0.881 -23.019998,5.48 -43.638998,10.206 -20.62,4.725 -38.06,9.101 -38.74,9.738 -0.683,0.637 17.687,5.539 40.823,10.882 23.14,5.345 43.605998,10.621 45.459998,11.764 1.025,0.632 2.269,2.416 3.489,4.739 10.214,44.532 45.535,79.47 90.29,89.09 5.587,3.684 6.345,9.211 10.727,27.701 3.366,14.178 8.15,34.781 10.674,45.77 3.406,14.823 4.975,19.12 5.988,16.662 0.75,-1.823 5.495,-21.328 10.571,-43.32 5.075,-21.994 9.852,-41.4 10.571,-43.11 0.602,-1.436 3.812,-3.349 9.113,-5.624 38.590002,-11.05 69.110002,-41.18 80.660002,-79.56 0.455,-1.513 0.855,-3.044 1.25,-4.582 -0.397,1.545 -0.793,3.064 -1.25,4.582 1.623,-5.02 3.866,-9.451 5.155,-9.946 1.335,-0.513 22.04,-5.475 45.978,-11.04 23.941,-5.564 43.789,-10.356 44.1,-10.674 0.781,-0.773 -5.742,-2.466 -48.894,-12.445 -20.16,-4.662 -38.07,-9.03 -39.781,-9.738 -1.188,-0.487 -2.711,-2.743 -4.479,-6.457 -0.012,-0.023 -0.042,-0.03 -0.052,-0.052 -10.391,-45.953 -47.48,-81.75 -94.140002,-90.18 -0.415,-0.477 -0.718,-0.986 -0.938,-1.51 -0.825,-1.976 -5.777,-22.338 -10.987,-45.26 -5.21,-22.910996 -9.962,-42.209996 -10.571,-42.905996 -0.018,-0.022 -0.025,-0.017 -0.052,0 m 1.353,87.739996 c 2.039,0 4.079,0.05 6.092,0.157 -2.02,-0.102 -4.051,-0.157 -6.092,-0.157 -1.64,0 -3.271,0.038 -4.895,0.105 1.626,-0.068 3.252,-0.105 4.895,-0.105 m -7.133,0.26 c -1.661,0.098 -3.304,0.198 -4.947,0.365 -1.465,0.148 -2.926,0.318 -4.374,0.522 1.453,-0.205 2.904,-0.368 4.374,-0.522 1.641,-0.17 3.286,-0.263 4.947,-0.365 m 7.133,31.399 c 47.853,0 86.640002,38.792 86.640002,86.64 0,47.853 -38.792002,86.64 -86.640002,86.64 -47.853,0 -86.64,-38.792 -86.64,-86.64 0,-47.853 38.792,-86.64 86.64,-86.64 m -117.74,75.03 c -0.148,1.523 -0.275,3.043 -0.365,4.582 0.093,-1.543 0.212,-3.056 0.365,-4.582 m 235.460002,0.157 c 0.15,1.508 0.273,3.01 0.365,4.531 -0.088,-1.523 -0.22,-3.02 -0.365,-4.531 m -235.870002,5.883 c -0.085,1.846 -0.157,3.704 -0.157,5.572 0,1.745 0.082,3.481 0.157,5.207 -0.077,-1.72 -0.157,-3.467 -0.157,-5.207 0,-1.865 0.068,-3.727 0.157,-5.572 m 236.340002,0.573 c 0.072,1.653 0.105,3.329 0.105,4.999 0,-1.683 -0.035,-3.332 -0.105,-4.999 m -236.290002,11.82 c 0.098,1.733 0.245,3.442 0.417,5.155 -0.177,-1.72 -0.317,-3.414 -0.417,-5.155 m 236.190002,0.157 c -0.1,1.708 -0.245,3.416 -0.417,5.104 -0.143,1.406 -0.33,2.826 -0.522,4.217 0.193,-1.398 0.377,-2.804 0.522,-4.217 0.172,-1.695 0.317,-3.387 0.417,-5.104 m -1.458,12.757 c -0.177,1.051 -0.37,2.083 -0.573,3.124 0.203,-1.035 0.397,-2.079 0.573,-3.124 m -128.720002,97.94 c 1.886,0.192 3.766,0.367 5.675,0.468 -1.908,-0.103 -3.792,-0.277 -5.675,-0.468 m 5.988,0.468 c 2.02,0.102 4.051,0.157 6.092,0.157 1.938,0 3.866,-0.063 5.78,-0.157 -1.918,0.093 -3.841,0.157 -5.78,0.157 -2.038,0 -4.079,-0.053 -6.092,-0.157"
       id="path54"
       style="fill:#ffffff"
       inkscape:connector-curvature="0" />
    <path
       d="M 233.49284,56.333944 C 131.11284,162.22394 5.032838,234.89394 -66.127162,364.30394 c -19.884,30.783 -68.479998,93.2 -97.339998,122.06 21.788,21.788 24.13,24.11 41,40.969 l 388.53,0 c 14.397,0 26,-11.603 26,-26 l 0,-385.78 c -19.08,-19.457996 -38.26,-38.919996 -58.56,-59.220996"
       id="path56"
       style="fill-opacity:0.23500001"
       inkscape:connector-curvature="0" />
    <g
       transform="matrix(1.6662,0,0,1.6662,-390.50716,-155.22606)"
       id="g58"
       style="fill:#ffffff">
      <path
         d="m 237.27,238.95 c 37.435,-30.23 -0.097,-0.034 37.36,-30.13 99.78,-81.57 0.438,0.088 99.87,-81.85 -88.84,125.7 -61.965,88.4 -89.23,126.48 -7.272,10.175 -13.783,18.5 -14.468,18.5 -33.637,-32.76 -0.104,-0.121 -33.523,-33"
         id="path60"
         inkscape:connector-curvature="0" />
      <path
         d="m 271.95,271.25 c -37.03,30.721 0.097,0.033 -36.956,30.626 -98.69,82.88 -0.439,-0.082 -98.78,83.16 87.17,-126.86 60.792,-89.22 87.55,-127.65 7.137,-10.27 13.537,-18.68 14.223,-18.689 34.07,32.31 0.106,0.12 33.956,32.554"
         id="path62"
         inkscape:connector-curvature="0" />
    </g>
  </g>
</svg>
