<?xml version="1.0" encoding="UTF-8" standalone="no"?>
<!-- Created with Inkscape (http://www.inkscape.org/) -->

<svg
   xmlns:dc="http://purl.org/dc/elements/1.1/"
   xmlns:cc="http://creativecommons.org/ns#"
   xmlns:rdf="http://www.w3.org/1999/02/22-rdf-syntax-ns#"
   xmlns:svg="http://www.w3.org/2000/svg"
   xmlns="http://www.w3.org/2000/svg"
   xmlns:sodipodi="http://sodipodi.sourceforge.net/DTD/sodipodi-0.dtd"
   xmlns:inkscape="http://www.inkscape.org/namespaces/inkscape"
   id="svg2"
   height="100%"
   width="100%"
   version="1.1"
   viewBox="0 0 512 512"
   inkscape:version="0.91 r13725"
   sodipodi:docname="caffeine.svg">
  <defs
     id="defs36" />
  <sodipodi:namedview
     pagecolor="#ffffff"
     bordercolor="#666666"
     borderopacity="1"
     objecttolerance="10"
     gridtolerance="10"
     guidetolerance="10"
     inkscape:pageopacity="0"
     inkscape:pageshadow="2"
     inkscape:window-width="640"
     inkscape:window-height="480"
     id="namedview34"
     showgrid="false"
     inkscape:zoom="0.5546875"
     inkscape:cx="36.056338"
     inkscape:cy="240.67606"
     inkscape:current-layer="svg2" />
  <metadata
     id="metadata68">
    <rdf:RDF>
      <cc:Work
         rdf:about="">
        <dc:format>image/svg+xml</dc:format>
        <dc:type
           rdf:resource="http://purl.org/dc/dcmitype/StillImage" />
      </cc:Work>
    </rdf:RDF>
  </metadata>
  <rect
     style="fill:#ef6a47"
     id="rect4"
     rx="25.988001"
     height="512"
     width="512"
     y="-0.001007998"
     x="-0.0020004883" />
  <path
     inkscape:connector-curvature="0"
     style="fill-opacity:0.23500001"
     id="path6"
     d="m 197.218,40.999 c -31.596,3.932 -7.803,39.11 6.344,44.13 23.781,9.957 -4.639,39.669 -6.05,44.976 6.573,6.573 10.711,11.351 17.465,18.1 8.646,12.775 -23.16,0.642 -37.795,3.826 -52.617,8.234 -116.88,35.868 -125.28,95.19 -2.174,83.89 37.603,173.71 115.19,212.53 18.437,18.437 35.32,35.739 51.19,52.25 l 267.72,0 c 14.397,0 26,-11.603 26,-26 l 0,-139.31 c -2.411,-2.396 -4.754,-4.887 -7.06,-7.438 -4.941,-4.239 -9.676,-9.562 -14.344,-14.06 -5.112,-5.098 -10.1,-10 -14.938,-14.969 -5.941,-5.874 -11.483,-11.298 -17.219,-17.25 -5.503,-5.288 -10.955,-10.84 -16.5,-16.438 -5.475,-5.321 -10.883,-10.906 -16.5,-16.406 -5.402,-5.411 -10.837,-10.962 -16.5,-16.438 -4.919,-5.101 -10.3,-10.339 -15.281,-15.344 -13.08,-22.15 -30.996,-44.3 -55.37,-54.969 -37.618,-37.618 -70.878,-70.44 -101.81,-101.37 -6.734,3.297 -5.738,4.848 -7.906,1.938 -10.44,-10.46 -20.23,-21.803 -31.34,-32.95" />
  <path
     style="fill:#ffffff"
     d="m 399.00283,283.23948 c -2.07733,0 -4.00014,0.44637 -6.02597,0.63522 2.06016,-12.61848 3.41644,-14.09493 3.67396,-27.40013 0,0.0858 -0.0515,0.17168 -0.0515,0.29185 0.15451,-1.18459 0.39487,-2.36918 0.41203,-3.57094 -3.15891,-66.35432 -82.92144,-104.38144 -172.71008,-105.17117 -89.89164,0.78973 -169.619836,38.81685 -172.881756,105.17117 0.08584,1.20176 0.360528,2.38635 0.4292,3.57094 2.66104,118.85407 78.749616,214.23948 172.366716,214.23948 51.28082,0 97.23956,-28.7564 128.81151,-74.13143 11.24504,12.79016 27.55464,20.9793 45.9759,20.9793 33.99264,0 61.58162,-38.98853 61.58162,-73.01551 0,-33.97547 -27.57181,-61.59878 -61.56445,-61.59878 m -63.1439,15.8289 c -27.58898,15.70872 -67.77927,26.16403 -112.3989,26.11252 -44.67114,0.0687 -84.87859,-10.4038 -112.5019,-26.11252 -28.001012,-15.91474 -41.203204,-35.43476 -40.962852,-52.70576 -0.25752,-17.42552 13.013344,-36.92837 40.962852,-52.82594 27.62331,-15.74306 67.83076,-26.16403 112.5019,-26.09536 44.61963,-0.0858 84.80992,10.3523 112.3989,26.09536 28.001,15.91474 41.27187,35.40042 41.01435,52.82594 0.25752,17.33968 -13.01335,36.79102 -41.01435,52.70576 m 63.1439,85.39363 c -13.04768,-0.0172 -23.5545,-9.04754 -26.74774,-21.06514 4.44651,-9.66558 8.37798,-31.26293 11.72574,-41.76974 4.42934,-2.83272 9.35656,-4.92722 15.022,-4.99589 15.51987,0.0687 28.13835,12.68715 28.17269,28.20702 -0.0515,15.55421 -12.65282,39.60658 -28.17269,39.62375"
     id="path56"
     inkscape:connector-curvature="0" />
  <path
     style="fill:#ffffff"
     d="m 321.8155,198.5154 c -24.1382,-13.7344 -59.31544,-22.85061 -98.37264,-22.81627 -39.09153,-0.0343 -74.3031,9.08187 -98.47564,22.81627 -24.44724,13.94042 -36.069972,31.02258 -35.863956,46.26776 -0.188848,15.12501 11.365216,32.20717 35.863956,46.14758 0,0 34.18148,-71.55622 89.06758,-17.66587 54.86893,53.89035 27.02243,-56.98059 71.02402,-14.07776 44.00158,42.88567 72.67214,-14.40395 72.67214,-14.40395 0.22318,-15.26235 -11.38238,-32.32734 -35.91546,-46.26776"
     id="path58"
     inkscape:connector-curvature="0" />
  <path
     style="fill:#ffffff"
     d="m 181.75896,71.609544 c 2.1975,1.785472 4.49802,3.09024 6.60968,4.46368 4.10315,2.712544 8.65267,5.356416 11.72574,8.618336 1.59663,1.613792 2.91856,3.4336 4.08599,5.098896 1.15025,1.699632 2.12883,3.313424 2.74688,4.995888 1.21893,3.296256 1.01291,6.437996 0.36053,10.043276 -1.25327,7.34791 -5.75128,15.55421 -10.18063,24.56741 l 0.73823,0.87557 c 5.01305,-1.7683 9.21921,-4.7727 12.99617,-8.46382 3.70829,-3.74263 6.90154,-8.36082 8.51533,-14.18077 1.6653,-5.68261 0.61805,-12.772994 -2.71254,-17.940562 -3.19325,-5.356416 -8.20631,-8.49816 -13.08202,-10.335136 -2.45502,-1.012912 -4.96155,-1.7168 -7.05605,-2.592368 -2.16317,-0.927072 -4.17182,-2.146 -5.88862,-3.69112 -3.51944,-3.0044 -5.0989,-7.914448 -4.68687,-10.747168 0.13735,-1.424944 0.39487,-2.609536 0.87557,-4.188992 0.53221,-1.493616 1.42495,-3.193248 2.5752,-4.910048 2.24901,-3.485104 5.28775,-7.056048 8.34365,-11.193536 L 197.21016,40.999 c -2.71254,0.154512 -5.25341,0.875568 -7.65693,1.905648 -2.45502,0.995744 -4.73837,2.40352 -6.85003,4.20616 -2.11166,1.836976 -4.06882,4.12032 -5.42509,7.03888 -1.37344,2.884224 -1.90565,6.626848 -0.8584,9.923104 1.03008,3.296256 3.14175,5.785616 5.33925,7.536752"
     id="path60"
     inkscape:connector-curvature="0" />
  <path
     style="fill:#ffffff"
     d="m 227.13398,92.84636 c 1.69964,1.150256 3.3306,1.871312 4.75554,2.729712 2.78122,1.665296 5.76845,3.60528 7.39941,6.008798 1.75113,2.43786 2.79838,4.77271 3.33059,6.47234 0.41203,1.83697 0.0687,3.17608 -0.15451,5.16757 -0.24035,1.92281 -0.90991,4.37784 -1.73397,7.10755 -0.8584,2.76405 -1.95715,5.66544 -2.90139,9.15054 l 0.75539,0.8584 c 3.72546,-0.66955 6.8157,-2.42069 9.59691,-4.7212 2.74688,-2.33485 5.13323,-5.47659 6.33499,-9.59691 1.25327,-4.08598 0.39487,-9.37373 -2.16316,-13.04768 -2.38636,-3.845632 -6.12898,-5.83712 -9.59692,-6.764192 -1.73396,-0.51504 -3.50227,-0.8584 -4.85854,-1.339104 -1.40778,-0.497872 -2.69538,-1.253264 -3.72546,-2.300512 -2.23184,-2.008656 -2.50652,-5.631104 -1.7683,-6.747024 0.29186,-0.60088 0.41203,-0.94424 0.54938,-1.7168 0.22318,-0.755392 0.61804,-1.733968 1.15025,-2.83272 1.13309,-2.266176 2.76405,-4.80704 4.34351,-8.1548 l -0.51504,-1.03008 c -1.97432,-0.274688 -3.77696,0.01717 -5.5281,0.532208 -1.78547,0.480704 -3.4336,1.339104 -4.96155,2.540864 -1.54512,1.20176 -2.98723,2.781216 -4.00015,4.927216 -1.06441,2.06016 -1.44211,4.944384 -0.56654,7.433744 0.87557,2.523696 2.59237,4.223328 4.25766,5.32208"
     id="path62"
     inkscape:connector-curvature="0" />
</svg>
