<?xml version="1.0" encoding="UTF-8" standalone="no"?>
<svg
   xmlns:dc="http://purl.org/dc/elements/1.1/"
   xmlns:cc="http://creativecommons.org/ns#"
   xmlns:rdf="http://www.w3.org/1999/02/22-rdf-syntax-ns#"
   xmlns:svg="http://www.w3.org/2000/svg"
   xmlns="http://www.w3.org/2000/svg"
   xmlns:sodipodi="http://sodipodi.sourceforge.net/DTD/sodipodi-0.dtd"
   xmlns:inkscape="http://www.inkscape.org/namespaces/inkscape"
   viewBox="0 0 512 512"
   id="svg2"
   version="1.1"
   inkscape:version="0.91 r13725"
   sodipodi:docname="cairo-dock.svg">
  <metadata
     id="metadata4084">
    <rdf:RDF>
      <cc:Work
         rdf:about="">
        <dc:format>image/svg+xml</dc:format>
        <dc:type
           rdf:resource="http://purl.org/dc/dcmitype/StillImage" />
      </cc:Work>
    </rdf:RDF>
  </metadata>
  <defs
     id="defs4082" />
  <sodipodi:namedview
     pagecolor="#ffffff"
     bordercolor="#666666"
     borderopacity="1"
     objecttolerance="10"
     gridtolerance="10"
     guidetolerance="10"
     inkscape:pageopacity="0"
     inkscape:pageshadow="2"
     inkscape:window-width="1366"
     inkscape:window-height="709"
     id="namedview4080"
     showgrid="false"
     inkscape:zoom="0.4609375"
     inkscape:cx="-273.35593"
     inkscape:cy="219.11864"
     inkscape:window-x="-2"
     inkscape:window-y="-3"
     inkscape:window-maximized="1"
     inkscape:current-layer="svg2" />
  <path
     inkscape:connector-curvature="0"
     style="fill:#fdaa24"
     d="m 25.999,0 c -14.397,0 -26,11.603 -26,26 l 0,460 c 0,14.397 11.603,26 26,26 l 460,0 c 14.397,0 26,-11.603 26,-26 l 0,-460 c 0,-14.397 -11.603,-26 -26,-26 l -460,0"
     id="path2770" />
  <path
     inkscape:connector-curvature="0"
     style="opacity:0.25"
     d="m 152.059,129.59 c -23.442,0 -43.878,5.119 -61.37,15.438 -17.385,10.207 -30.784,24.958 -40.09,44.25 -9.309,19.18 -13.938,41.552 -13.938,67.13 0,34.914 7.07,62.83 21.09,83.81 l 171.78,171.78 256.47,0 c 14.397,0 26,-11.603 26,-26 l 0,-246.91 -72.55,-72.55 c -0.558,-0.558 -1.124,-1.111 -1.697,-1.658 -22.21,-21.2 -53.38,-31.781 -93.53,-31.781 l -77.25,0 0,56.688 -42.875,-42.875 c -24.11,-11.552 -48.14,-17.312 -72.03,-17.313"
     id="path2772" />
  <g
     style="fill:#ffffff"
     id="g4066"
     transform="translate(-0.001,0)">
    <path
       style="opacity:0.2;fill-rule:evenodd"
       inkscape:connector-curvature="0"
       d="m 277.84,290.07 c -7.07,-0.041 -14.709,1.359 -21.257,3.881 l -0.09,0.09 -0.045,0 c -47.775,17.579 -73.65,69.964 -206.66,74.918 l 455.47,0 0,-1.85 c -24.09,-1.634 -55.45,-1.183 -87.55,-5.687 l 0,-0.045 c -32.22,-4.725 -53.983,-18.486 -72.17,-32.54 -18.18,-14.05 -33.04,-28.03 -52.53,-35.699 l -0.226,-0.09 -0.271,-0.135 c -4.01,-1.903 -9.169,-2.811 -14.668,-2.843"
       id="path4068" />
    <path
       inkscape:connector-curvature="0"
       d="m 152.06,129.59 c -23.442,0 -43.882,5.116 -61.38,15.435 -17.385,10.207 -30.767,24.982 -40.08,44.27 -9.309,19.18 -13.946,41.538 -13.946,67.11 0,34.914 7.06,62.827 21.08,83.81 21.19,-1.057 42.21,-3.569 62.55,-8.755 -19.97,-11.592 -29.967,-36.491 -29.967,-74.69 0,-26.358 5.389,-46.911 16.16,-61.6 10.767,-14.805 25.954,-22.2 45.583,-22.2 8.973,0 18.13,1.622 27.44,4.874 9.309,3.253 18.558,7.089 27.756,11.463 l 16.834,-42.38 c -24.11,-11.552 -48.14,-17.33 -72.03,-17.33"
       id="path4070" />
    <path
       inkscape:connector-curvature="0"
       d="m 266.97,133.11 0,129.08 c 1.843,-0.262 3.709,-0.481 5.596,-0.632 17.343,-0.915 32.498,4.43 46.576,12.547 l 0,-98.25 27.756,0 c 46.659,0 69.999,26.378 69.999,79.21 0,32.578 -9.163,55.32 -27.485,68.24 17.74,8.38 37.2,11.362 57,12.637 16.432,-20.659 24.642,-48.04 24.642,-82.18 0,-38.02 -11.1,-67.66 -33.31,-88.86 -22.21,-21.2 -53.36,-31.772 -93.51,-31.772 l -77.26,0"
       id="path4072" />
    <path
       inkscape:connector-curvature="0"
       d="m 278.07,272.92 c -1.038,-0.013 -2.076,0.005 -3.114,0.045 -8.438,0.329 -16.825,2.315 -24.326,5.19 -0.043,0.017 -0.093,-0.017 -0.135,0 l 0,0.09 c -60.973,22.526 -76.43,79.85 -243.75,73.835 l 0,16.879 c 171.13,5.843 197.18,-55.59 249.71,-74.918 l 0.045,0 0.09,-0.09 c 11.64,-4.484 26.748,-5.387 35.925,-1.038 l 0.271,0.135 0.226,0.09 c 19.49,7.667 34.35,21.645 52.53,35.699 18.18,14.05 39.95,27.815 72.17,32.54 l 0,0.045 c 32.11,4.503 63.47,4.053 87.55,5.687 l 0,-17.01 c -25.18,-1.72 -55.18,-1.27 -85.12,-5.461 -0.025,-0.005 -0.02,0.005 -0.045,0 -28.655,-4.219 -46.919,-15.871 -64.22,-29.25 -17.18,-13.282 -33.22,-28.591 -56.1,-37.73 -0.049,-0.024 -0.086,-0.067 -0.135,-0.09 -0.126,-0.05 -0.234,-0.086 -0.361,-0.135 l 0,0.045 c -6.696,-3.076 -13.943,-4.466 -21.21,-4.558"
       id="path4074" />
    <path
       inkscape:connector-curvature="0"
       d="m 276.13,302.08 c -3.053,0.043 -6.126,0.401 -9.162,0.993 l 0,76 69.68,0 c 23.982,0 44.813,-3.296 62.55,-9.839 -2.562,-0.663 -5.132,-1.382 -7.672,-2.166 -20.967,-5.751 -38.44,-18 -55.47,-31.05 l -16.924,0 0,-13.04 c -5.65,-4.294 -11.361,-8.471 -17.24,-12.321 -7.521,-6.175 -16.579,-8.706 -25.77,-8.575"
       id="path4076" />
    <path
       inkscape:connector-curvature="0"
       d="m 214.84,331.91 c -9.123,6.076 -18.4,11.893 -28.342,16.563 -26.04,13.947 -54.32,22.333 -83.36,27.08 12.902,4.583 27.578,6.86 44.05,6.86 24.9,0 47.46,-4.18 67.65,-12.592 l 0,-37.91"
       id="path4078" />
  </g>
</svg>
