<?xml version="1.0" encoding="UTF-8" standalone="no"?>
<svg
   xmlns:dc="http://purl.org/dc/elements/1.1/"
   xmlns:cc="http://creativecommons.org/ns#"
   xmlns:rdf="http://www.w3.org/1999/02/22-rdf-syntax-ns#"
   xmlns:svg="http://www.w3.org/2000/svg"
   xmlns="http://www.w3.org/2000/svg"
   xmlns:sodipodi="http://sodipodi.sourceforge.net/DTD/sodipodi-0.dtd"
   xmlns:inkscape="http://www.inkscape.org/namespaces/inkscape"
   id="svg2"
   height="100%"
   viewBox="0 0 512 512"
   width="100%"
   version="1.1"
   inkscape:version="0.91 r13725"
   sodipodi:docname="calendar.svg">
  <sodipodi:namedview
     pagecolor="#ffffff"
     bordercolor="#666666"
     borderopacity="1"
     objecttolerance="10"
     gridtolerance="10"
     guidetolerance="10"
     inkscape:pageopacity="0"
     inkscape:pageshadow="2"
     inkscape:window-width="640"
     inkscape:window-height="480"
     id="namedview17"
     showgrid="false"
     inkscape:zoom="0.5546875"
     inkscape:cx="36.056338"
     inkscape:cy="240.67606"
     inkscape:current-layer="svg2" />
  <metadata
     id="metadata10">
    <rdf:RDF>
      <cc:Work
         rdf:about="">
        <dc:format>image/svg+xml</dc:format>
        <dc:type
           rdf:resource="http://purl.org/dc/dcmitype/StillImage" />
        <dc:title />
      </cc:Work>
    </rdf:RDF>
  </metadata>
  <defs
     id="defs8">
    <linearGradient
       id="ButtonShadow"
       x1="45.448"
       gradientUnits="userSpaceOnUse"
       y1="92.54"
       gradientTransform="scale(1.0059 .99417)"
       x2="45.448"
       y2="7.0165">
      <stop
         id="stop3750-1"
         offset="0" />
      <stop
         id="stop3752-6"
         stop-opacity=".58824"
         offset="1" />
    </linearGradient>
    <filter
       id="filter3174"
       color-interpolation-filters="sRGB">
      <feGaussianBlur
         id="feGaussianBlur3176"
         stdDeviation="1.71" />
    </filter>
  </defs>
  <g
     id="layer2"
     display="none"
     transform="matrix(6.7274 0 0 6.7274 -2789.7 -809.34)">
    <rect
       id="rect3745"
       opacity=".9"
       rx="6"
       ry="6"
       height="85"
       filter="url(#filter3174)"
       width="86"
       y="7"
       x="5"
       fill="url(#ButtonShadow)" />
  </g>
  <path
     inkscape:connector-curvature="0"
     style="fill:#1a83b1"
     id="rect2986"
     d="m 25.99905,-0.002 c -14.397,0 -26,11.603 -26,26 l 0,460 c 0,14.397 11.603,26 26,26 l 460,0 c 14.397,0 26,-11.603 26,-26 l 0,-460 c 0,-14.397 -11.6,-26 -26,-26 l -460,0 z" />
  <path
     inkscape:connector-curvature="0"
     style="fill:#484043"
     id="rect9259"
     d="m -9.5e-4,164.908 0,26.071 512,0 0,-26.071 -512,0 z" />
  <path
     inkscape:connector-curvature="0"
     style="fill:#d23638"
     id="rect6990"
     d="m 25.99905,-0.002 c -14.397,0 -26,11.603 -26,26 l 0,138.91 512,0 0,-138.91 c 0,-14.397 -11.6,-26 -26,-26 l -460,0 z" />
  <path
     inkscape:connector-curvature="0"
     style="opacity:0.25"
     id="path5675"
     d="m 41.86805,40.998 0,80.338 21.516,21.516 -4.7031,0 0,328.15 41,41 386.32,-0.01 c 14.397,0 26,-11.603 26,-26 l 0,-403.13 -41.87,-41.87 -428.26,0 z" />
  <path
     inkscape:connector-curvature="0"
     style="fill:#ffffff"
     id="path6191"
     d="m 41.86805,40.998 0,80.338 428.26,0 0,-80.338 -428.26,0 z m 108.24,19.471 c 11.408,0 20.698,9.1871 20.698,20.595 0,11.4079 -9.2893,20.698 -20.698,20.698 -11.408,0 -20.698,-9.2893 -20.698,-20.698 0,-11.408 9.2893,-20.595 20.698,-20.595 z m 211.73,0 c 11.408,0 20.647,9.1871 20.647,20.595 0,11.4079 -9.2382,20.698 -20.647,20.698 -11.408,0 -20.647,-9.2893 -20.647,-20.698 0,-11.408 9.2382,-20.595 20.647,-20.595 z m -303.16,82.382 0,328.15 70.014,0 c 47.964,-26.759 95.902,-53.558 143.86,-80.338 l 0,-35.007 c 8.7001,4.3501 17.269,7.6077 25.808,9.8633 4.8917,1.2344 9.768,2.0688 14.565,2.6064 16.285,-9.0847 32.62,-18.119 48.908,-27.188 -0.7727,-6.6769 -4.1403,-11.847 -10.017,-15.485 -6.6863,-4.2695 -16.613,-6.3881 -29.743,-6.3882 l -18.602,0 0,-29.999 19.573,0 c 11.681,1.1e-4 20.395,-1.792 26.115,-5.4172 5.7194,-3.7055 8.5345,-9.2706 8.5346,-16.763 -10e-5,-6.9278 -2.6696,-12.261 -8.228,-16.047 -5.5585,-3.786 -13.461,-5.7236 -23.611,-5.7238 -7.4919,1.8e-4 -15.089,0.81262 -22.742,2.5042 -7.653,1.6918 -15.323,4.2098 -22.895,7.5125 l 0,-34.138 c 9.1835,-2.5776 18.319,-4.4347 27.341,-5.7238 9.0223,-1.2887 17.977,-1.9418 26.677,-1.942 23.442,1.7e-4 40.885,3.8676 52.485,11.601 11.681,7.6531 17.58,19.234 17.58,34.7 -1.4e-4,10.553 -2.7718,19.195 -8.3302,25.961 -5.5585,6.6864 -13.86,11.366 -24.735,14.105 12.164,3.1418 21.467,8.693 27.75,16.507 3.2439,3.9421 5.6252,8.4511 7.2058,13.492 12.942,23.184 25.89,46.375 38.84,69.554 l 8.2791,-2.2486 0,-254.15 -394.64,0 z m 106.45,70.474 c 21.589,1.7e-4 38.314,4.7017 50.237,14.207 12.003,9.5059 18.04,22.814 18.04,39.811 -1.7e-4,9.8281 -2.5908,19.058 -7.6658,27.597 -5.0752,8.4586 -15.72,19.727 -31.992,33.985 l -38.533,33.883 79.418,0 0,34.189 -131.09,0 0,-34.189 65.824,-58.107 c 5.8806,-5.3167 10.212,-10.563 13.032,-15.638 2.8194,-5.075 4.2416,-10.262 4.2417,-15.74 -1.2e-4,-8.4584 -2.8662,-15.337 -8.5857,-20.493 -5.6391,-5.1555 -13.163,-7.7167 -22.589,-7.7169 -7.2502,1.8e-4 -15.195,1.5601 -23.815,4.7017 -8.6196,3.0614 -17.82,7.6762 -27.648,13.798 l 0,-39.607 c 10.472,-3.4638 20.841,-6.1488 31.072,-7.9213 10.231,-1.8526 20.222,-2.7595 30.05,-2.7597 z m 231.67,118.98 -248.53,138.7 28.772,0 258.54,-69.248 -38.789,-69.452 z" />
</svg>
