<?xml version="1.0" encoding="UTF-8" standalone="no"?>
<svg id="svg2" xmlns:rdf="http://www.w3.org/1999/02/22-rdf-syntax-ns#" xmlns="http://www.w3.org/2000/svg" height="100%" viewBox="0 0 512 512" width="100%" version="1.1" xmlns:cc="http://creativecommons.org/ns#" xmlns:xlink="http://www.w3.org/1999/xlink" xmlns:dc="http://purl.org/dc/elements/1.1/">
 <metadata id="metadata10">
  <rdf:RDF>
   <cc:Work rdf:about="">
    <dc:format>image/svg+xml</dc:format>
    <dc:type rdf:resource="http://purl.org/dc/dcmitype/StillImage"/>
    <dc:title/>
   </cc:Work>
  </rdf:RDF>
 </metadata>
 <defs id="defs8">
  <linearGradient id="ButtonShadow" y2="7.0165" gradientUnits="userSpaceOnUse" x2="45.448" gradientTransform="scale(1.0059 .99417)" y1="92.54" x1="45.448">
   <stop id="stop3750-1" offset="0"/>
   <stop id="stop3752-6" stop-opacity=".58824" offset="1"/>
  </linearGradient>
  <filter id="filter3174" color-interpolation-filters="sRGB">
   <feGaussianBlur id="feGaussianBlur3176" stdDeviation="1.71"/>
  </filter>
  <filter id="filter3174-6" color-interpolation-filters="sRGB">
   <feGaussianBlur id="feGaussianBlur3176-6" stdDeviation="1.71"/>
  </filter>
  <linearGradient id="linearGradient9335" y2="7.0165" xlink:href="#ButtonShadow" gradientUnits="userSpaceOnUse" y1="92.54" gradientTransform="scale(1.0059 .99417)" x2="45.448" x1="45.448"/>
  <filter id="filter3174-2" color-interpolation-filters="sRGB">
   <feGaussianBlur id="feGaussianBlur3176-64" stdDeviation="1.71"/>
  </filter>
  <filter id="filter3174-9" color-interpolation-filters="sRGB">
   <feGaussianBlur id="feGaussianBlur3176-1" stdDeviation="1.71"/>
  </filter>
  <radialGradient id="radialGradient21305" xlink:href="#linearGradient4216-1" gradientUnits="userSpaceOnUse" cy="64" cx="64" gradientTransform="matrix(4.1658 0 0 3.8875 118.08 -116.51)" r="64"/>
  <linearGradient id="linearGradient4216-1">
   <stop id="stop4218-0" stop-color="#fff" offset="0"/>
   <stop id="stop4220-2" stop-color="#e8e8e8" offset=".6875"/>
   <stop id="stop4222-6" stop-color="#686868" offset=".875"/>
   <stop id="stop4224-6" offset="1"/>
  </linearGradient>
  <filter id="filter3174-3" color-interpolation-filters="sRGB">
   <feGaussianBlur id="feGaussianBlur3176-17" stdDeviation="1.71"/>
  </filter>
  <radialGradient id="radialGradient21305-6" xlink:href="#linearGradient4216-1" gradientUnits="userSpaceOnUse" cy="64" cx="64" gradientTransform="matrix(4.1658 0 0 3.8875 29.334 -198.73)" r="64"/>
  <filter id="filter3174-7" color-interpolation-filters="sRGB">
   <feGaussianBlur id="feGaussianBlur3176-68" stdDeviation="1.71"/>
  </filter>
  <radialGradient id="radialGradient21305-3" xlink:href="#linearGradient4216-1" gradientUnits="userSpaceOnUse" cy="64" cx="64" gradientTransform="matrix(4.1658 0 0 3.8875 50.075 -134.32)" r="64"/>
  <filter id="filter3174-70" color-interpolation-filters="sRGB">
   <feGaussianBlur id="feGaussianBlur3176-8" stdDeviation="1.71"/>
  </filter>
  <radialGradient id="radialGradient21305-7" cx="64" xlink:href="#linearGradient4216-1" gradientUnits="userSpaceOnUse" cy="64" r="64" gradientTransform="matrix(4.1658 0 0 3.8875 24.263 -91.238)"/>
  <radialGradient id="radialGradient21305-67" xlink:href="#linearGradient4216-1" gradientUnits="userSpaceOnUse" cy="64" cx="64" gradientTransform="matrix(4.1658 0 0 3.8875 -3.2516 -83.826)" r="64"/>
  <linearGradient id="linearGradient83955" y2="-1.7224" gradientUnits="userSpaceOnUse" y1="518.14" x2="249.86" x1="249.86">
   <stop id="stop3528" stop-color="#006e29" offset="0"/>
   <stop id="stop3530" stop-color="#77b753" offset="1"/>
  </linearGradient>
 </defs>
 <g id="layer2" display="none" transform="matrix(6.7274 0 0 6.7274 -2789.7 -809.34)">
  <rect id="rect3745" opacity=".9" rx="6" ry="6" height="85" filter="url(#filter3174)" width="86" y="7" x="5" fill="url(#ButtonShadow)"/>
 </g>
 <g id="layer2-7" display="none" transform="matrix(6.7274 0 0 6.7274 -2775.1 -809.34)">
  <rect id="rect3745-8" opacity=".9" rx="6" ry="6" height="85" filter="url(#filter3174-6)" width="86" y="7" x="5" fill="url(#linearGradient9335)"/>
 </g>
 <path id="path4230" d="m428.79 165.47c-2.1202 7.3447-36.402 181.33-29.267 189.98 6.1765 7.4828 15.826 4.2405 17.946-3.1042-2.1202 7.3447-6.3607 22.034-8.4809 29.379-17.946 3.1042-33.92-0.81668-37.444-17.946-4.0713-19.793 27.134-182.59 29.267-189.98-4.7411-8.958-29.531-15.826-33.772-1.1362l-7.9128-2.1202c18.514-34.603 53.838-9.3127 69.663-5.0722z" display="none"/>
 <path id="path4232" d="m406.6 183.26c-26.427 32.483-124.22 164.54-147.96 158.17l-15.826-4.2405 12.153-12.569 7.9128 2.1202c15.826 4.2405 123.65-133.04 140.05-160.3 12.573-20.906 3.6724 16.81 3.6724 16.81z" display="none"/>
 <path id="path4234" d="m343.72 253.45 47.477 12.721-4.2405 14.689-55.39-14.842z" display="none"/>
 <g id="layer2-4" display="none" transform="matrix(6.7274 0 0 6.7274 -2768.6 -809.34)">
  <rect id="rect3745-6" opacity=".9" rx="6" ry="6" height="85" filter="url(#filter3174-2)" width="86" y="7" x="5" fill="url(#linearGradient9335)"/>
 </g>
 <path id="path4230-6" d="m435.3 165.47c-2.1202 7.3447-36.402 181.33-29.267 189.98 6.1765 7.4828 15.826 4.2405 17.946-3.1042-2.1202 7.3447-6.3607 22.034-8.4809 29.379-17.946 3.1042-33.92-0.81668-37.444-17.946-4.0713-19.793 27.134-182.59 29.267-189.98-4.7411-8.958-29.531-15.826-33.772-1.1362l-7.9128-2.1202c18.514-34.603 53.838-9.3127 69.663-5.0722z" display="none"/>
 <path id="path4232-1" d="m413.11 183.26c-26.427 32.483-124.22 164.54-147.96 158.17l-15.826-4.2405 12.153-12.569 7.9128 2.1202c15.826 4.2405 123.65-133.04 140.05-160.3 12.573-20.906 3.6724 16.81 3.6724 16.81z" display="none"/>
 <path id="path4234-5" d="m350.22 253.45 47.477 12.721-4.2405 14.689-55.39-14.842z" display="none"/>
 <path id="path4230-5" d="m435.3 165.47c-2.1202 7.3447-36.402 181.33-29.267 189.98 6.1765 7.4828 15.826 4.2405 17.946-3.1042-2.1202 7.3447-6.3607 22.034-8.4809 29.379-17.946 3.1042-33.92-0.81668-37.444-17.946-4.0713-19.793 27.134-182.59 29.267-189.98-4.7411-8.958-29.531-15.826-33.772-1.1362l-7.9128-2.1202c18.514-34.603 53.838-9.3127 69.663-5.0722z" display="none"/>
 <path id="path4232-3" d="m413.11 183.26c-26.427 32.483-124.22 164.54-147.96 158.17l-15.826-4.2405 12.153-12.569 7.9128 2.1202c15.826 4.2405 123.65-133.04 140.05-160.3 12.573-20.906 3.6724 16.81 3.6724 16.81z" display="none"/>
 <path id="path4234-4" d="m350.22 253.45 47.477 12.721-4.2405 14.689-55.39-14.842z" display="none"/>
 <style id="style1470" type="text/css"/>
 <g id="layer2-5" display="none" transform="matrix(6.7274 0 0 6.7274 -2766.4 -809.34)">
  <rect id="rect3745-1" opacity=".9" rx="6" ry="6" height="85" filter="url(#filter3174-9)" width="86" y="7" x="5" fill="url(#linearGradient9335)"/>
 </g>
 <path id="path4230-9" d="m437.47 165.47c-2.1202 7.3447-36.402 181.33-29.267 189.98 6.1765 7.4828 15.826 4.2405 17.946-3.1042-2.1202 7.3447-6.3607 22.034-8.4809 29.379-17.946 3.1042-33.92-0.81668-37.444-17.946-4.0713-19.793 27.134-182.59 29.267-189.98-4.7411-8.958-29.531-15.826-33.772-1.1362l-7.9128-2.1202c18.514-34.603 53.838-9.3127 69.663-5.0722z" display="none"/>
 <path id="path4232-2" d="m415.28 183.26c-26.43 32.48-124.22 164.54-147.96 158.18l-15.826-4.2405 12.153-12.569 7.9128 2.1202c15.826 4.2405 123.65-133.04 140.05-160.3 12.573-20.906 3.6724 16.81 3.6724 16.81z" display="none"/>
 <path id="path4234-3" d="m352.39 253.45 47.477 12.721-4.2405 14.689-55.39-14.842z" display="none"/>
 <path id="path4230-5-1" d="m437.47 165.47c-2.1202 7.3447-36.402 181.33-29.267 189.98 6.1765 7.4828 15.826 4.2405 17.946-3.1042-2.1202 7.3447-6.3607 22.034-8.4809 29.379-17.946 3.1042-33.92-0.81668-37.444-17.946-4.0713-19.793 27.134-182.59 29.267-189.98-4.7411-8.958-29.531-15.826-33.772-1.1362l-7.9128-2.1202c18.514-34.603 53.838-9.3127 69.663-5.0722z" display="none"/>
 <path id="path4232-3-5" d="m415.28 183.26c-26.43 32.48-124.22 164.54-147.96 158.18l-15.826-4.2405 12.153-12.569 7.9128 2.1202c15.826 4.2405 123.65-133.04 140.05-160.3 12.573-20.906 3.6724 16.81 3.6724 16.81z" display="none"/>
 <path id="path4234-4-5" d="m352.39 253.45 47.477 12.721-4.2405 14.689-55.39-14.842z" display="none"/>
 <path id="path4230-0" d="m437.47 165.47c-2.1202 7.3447-36.402 181.33-29.267 189.98 6.1765 7.4828 15.826 4.2405 17.946-3.1042-2.1202 7.3447-6.3607 22.034-8.4809 29.379-17.946 3.1042-33.92-0.81668-37.444-17.946-4.0713-19.793 27.134-182.59 29.267-189.98-4.7411-8.958-29.531-15.826-33.772-1.1362l-7.9128-2.1202c18.514-34.603 53.838-9.3127 69.663-5.0722z" display="none"/>
 <path id="path4232-7" d="m415.28 183.26c-26.43 32.48-124.22 164.54-147.96 158.18l-15.826-4.2405 12.153-12.569 7.9128 2.1202c15.826 4.2405 123.65-133.04 140.05-160.3 12.573-20.906 3.6724 16.81 3.6724 16.81z" display="none"/>
 <path id="path4234-0" d="m352.39 253.45 47.477 12.721-4.2405 14.689-55.39-14.842z" display="none"/>
 <ellipse id="path3281-0-0" rx="266.61" transform="matrix(.96593 .25882 -.27735 .96077 0 0)" ry="248.8" cy="132.29" cx="384.69" display="none" fill="url(#radialGradient21305)"/>
 <style id="style1470-0" type="text/css"/>
 <g id="layer2-73" display="none" transform="matrix(6.7274 0 0 6.7274 -2829.3 -911.3)">
  <rect id="rect3745-4" opacity=".9" rx="6" ry="6" height="85" filter="url(#filter3174-3)" width="86" y="7" x="5" fill="url(#linearGradient9335)"/>
 </g>
 <path id="path4230-7" d="m374.55 63.502c-2.1202 7.3447-36.402 181.33-29.267 189.98 6.1765 7.4828 15.826 4.2405 17.946-3.1042-2.1202 7.3447-6.3607 22.034-8.4809 29.379-17.946 3.1042-33.92-0.81668-37.444-17.946-4.0713-19.793 27.134-182.59 29.267-189.98-4.7411-8.958-29.531-15.826-33.772-1.1362l-7.9128-2.1202c18.514-34.603 53.838-9.3127 69.663-5.0722z" display="none"/>
 <path id="path4232-6" d="m352.36 81.296c-26.427 32.483-124.22 164.54-147.96 158.17l-15.826-4.2405 12.153-12.569 7.9128 2.1202c15.826 4.2405 123.65-133.04 140.05-160.3 12.573-20.906 3.6724 16.81 3.6724 16.81z" display="none"/>
 <path id="path4234-30" d="m289.48 151.49 47.477 12.721-4.2405 14.689-55.39-14.842z" display="none"/>
 <path id="path4230-5-9" d="m374.55 63.502c-2.1202 7.3447-36.402 181.33-29.267 189.98 6.1765 7.4828 15.826 4.2405 17.946-3.1042-2.1202 7.3447-6.3607 22.034-8.4809 29.379-17.946 3.1042-33.92-0.81668-37.444-17.946-4.0713-19.793 27.134-182.59 29.267-189.98-4.7411-8.958-29.531-15.826-33.772-1.1362l-7.9128-2.1202c18.514-34.603 53.838-9.3127 69.663-5.0722z" display="none"/>
 <path id="path4232-3-4" d="m352.36 81.296c-26.427 32.483-124.22 164.54-147.96 158.17l-15.826-4.2405 12.153-12.569 7.9128 2.1202c15.826 4.2405 123.65-133.04 140.05-160.3 12.573-20.906 3.6724 16.81 3.6724 16.81z" display="none"/>
 <path id="path4234-4-2" d="m289.48 151.49 47.477 12.721-4.2405 14.689-55.39-14.842z" display="none"/>
 <path id="path4230-0-5" d="m374.55 63.502c-2.1202 7.3447-36.402 181.33-29.267 189.98 6.1765 7.4828 15.826 4.2405 17.946-3.1042-2.1202 7.3447-6.3607 22.034-8.4809 29.379-17.946 3.1042-33.92-0.81668-37.444-17.946-4.0713-19.793 27.134-182.59 29.267-189.98-4.7411-8.958-29.531-15.826-33.772-1.1362l-7.9128-2.1202c18.514-34.603 53.838-9.3127 69.663-5.0722z" display="none"/>
 <path id="path4232-7-7" d="m352.36 81.296c-26.427 32.483-124.22 164.54-147.96 158.17l-15.826-4.2405 12.153-12.569 7.9128 2.1202c15.826 4.2405 123.65-133.04 140.05-160.3 12.573-20.906 3.6724 16.81 3.6724 16.81z" display="none"/>
 <path id="path4234-0-4" d="m289.48 151.49 47.477 12.721-4.2405 14.689-55.39-14.842z" display="none"/>
 <ellipse id="path3281-0-0-4" rx="266.61" transform="matrix(.96593 .25882 -.27735 .96077 0 0)" ry="248.8" cy="50.066" cx="295.95" display="none" fill="url(#radialGradient21305-6)"/>
 <style id="style1470-05" type="text/css"/>
 <g id="layer2-0" display="none" transform="matrix(6.7274 0 0 6.7274 -2827.2 -844.05)">
  <rect id="rect3745-7" opacity=".9" rx="6" ry="6" height="85" filter="url(#filter3174-7)" width="86" y="7" x="5" fill="url(#linearGradient9335)"/>
 </g>
 <path id="path4230-8" d="m376.72 130.76c-2.1202 7.3447-36.402 181.33-29.267 189.98 6.1765 7.4828 15.826 4.2405 17.946-3.1042-2.1202 7.3447-6.3607 22.034-8.4809 29.379-17.946 3.1042-33.92-0.81668-37.444-17.946-4.0713-19.793 27.134-182.59 29.267-189.98-4.7411-8.958-29.531-15.826-33.772-1.1362l-7.9128-2.1202c18.514-34.603 53.838-9.3127 69.663-5.0722z" display="none"/>
 <path id="path4232-4" d="m354.53 148.55c-26.427 32.483-124.22 164.54-147.96 158.17l-15.826-4.2405 12.153-12.569 7.9128 2.1202c15.826 4.2405 123.65-133.04 140.05-160.3 12.573-20.906 3.6724 16.81 3.6724 16.81z" display="none"/>
 <path id="path4234-07" d="m291.65 218.74 47.477 12.721-4.2405 14.689-55.39-14.842z" display="none"/>
 <path id="path4230-5-0" d="m376.72 130.76c-2.1202 7.3447-36.402 181.33-29.267 189.98 6.1765 7.4828 15.826 4.2405 17.946-3.1042-2.1202 7.3447-6.3607 22.034-8.4809 29.379-17.946 3.1042-33.92-0.81668-37.444-17.946-4.0713-19.793 27.134-182.59 29.267-189.98-4.7411-8.958-29.531-15.826-33.772-1.1362l-7.9128-2.1202c18.514-34.603 53.838-9.3127 69.663-5.0722z" display="none"/>
 <path id="path4232-3-55" d="m354.53 148.55c-26.427 32.483-124.22 164.54-147.96 158.17l-15.826-4.2405 12.153-12.569 7.9128 2.1202c15.826 4.2405 123.65-133.04 140.05-160.3 12.573-20.906 3.6724 16.81 3.6724 16.81z" display="none"/>
 <path id="path4234-4-6" d="m291.65 218.74 47.477 12.721-4.2405 14.689-55.39-14.842z" display="none"/>
 <path id="path4230-0-8" d="m376.72 130.76c-2.1202 7.3447-36.402 181.33-29.267 189.98 6.1765 7.4828 15.826 4.2405 17.946-3.1042-2.1202 7.3447-6.3607 22.034-8.4809 29.379-17.946 3.1042-33.92-0.81668-37.444-17.946-4.0713-19.793 27.134-182.59 29.267-189.98-4.7411-8.958-29.531-15.826-33.772-1.1362l-7.9128-2.1202c18.514-34.603 53.838-9.3127 69.663-5.0722z" display="none"/>
 <path id="path4232-7-5" d="m354.53 148.55c-26.427 32.483-124.22 164.54-147.96 158.17l-15.826-4.2405 12.153-12.569 7.9128 2.1202c15.826 4.2405 123.65-133.04 140.05-160.3 12.573-20.906 3.6724 16.81 3.6724 16.81z" display="none"/>
 <path id="path4234-0-9" d="m291.65 218.74 47.477 12.721-4.2405 14.689-55.39-14.842z" display="none"/>
 <ellipse id="path3281-0-0-0" rx="266.61" transform="matrix(.96593 .25882 -.27735 .96077 0 0)" ry="248.8" cy="114.48" cx="316.69" display="none" fill="url(#radialGradient21305-3)"/>
 <style id="style1470-059" type="text/css"/>
 <g id="layer2-70" display="none" transform="matrix(6.7274 0 0 6.7274 -2864 -809.34)">
  <rect id="rect3745-17" opacity=".9" rx="6" ry="6" height="85" filter="url(#filter3174-70)" width="86" y="7" x="5" fill="url(#linearGradient9335)"/>
 </g>
 <path id="path4230-09" d="m339.84 165.47c-2.1202 7.3447-36.402 181.33-29.267 189.98 6.1765 7.4828 15.826 4.2405 17.946-3.1042-2.1202 7.3447-6.3607 22.034-8.4809 29.379-17.946 3.1042-33.92-0.81668-37.444-17.946-4.0713-19.793 27.134-182.59 29.267-189.98-4.7411-8.958-29.531-15.826-33.772-1.1362l-7.9128-2.1202c18.514-34.603 53.838-9.3127 69.663-5.0722z" display="none"/>
 <path id="path4232-77" d="m317.65 183.26c-26.427 32.483-124.22 164.54-147.96 158.17l-15.826-4.2405 12.153-12.569 7.9128 2.1202c15.826 4.2405 123.65-133.04 140.05-160.3 12.573-20.906 3.6724 16.81 3.6724 16.81z" display="none"/>
 <path id="path4234-1" d="m254.77 253.45 47.477 12.721-4.2405 14.689-55.39-14.842z" display="none"/>
 <path id="path4230-5-5" d="m339.84 165.47c-2.1202 7.3447-36.402 181.33-29.267 189.98 6.1765 7.4828 15.826 4.2405 17.946-3.1042-2.1202 7.3447-6.3607 22.034-8.4809 29.379-17.946 3.1042-33.92-0.81668-37.444-17.946-4.0713-19.793 27.134-182.59 29.267-189.98-4.7411-8.958-29.531-15.826-33.772-1.1362l-7.9128-2.1202c18.514-34.603 53.838-9.3127 69.663-5.0722z" display="none"/>
 <path id="path4232-3-7" d="m317.65 183.26c-26.427 32.483-124.22 164.54-147.96 158.17l-15.826-4.2405 12.153-12.569 7.9128 2.1202c15.826 4.2405 123.65-133.04 140.05-160.3 12.573-20.906 3.6724 16.81 3.6724 16.81z" display="none"/>
 <path id="path4234-4-8" d="m254.77 253.45 47.477 12.721-4.2405 14.689-55.39-14.842z" display="none"/>
 <path id="path4230-0-7" d="m339.84 165.47c-2.1202 7.3447-36.402 181.33-29.267 189.98 6.1765 7.4828 15.826 4.2405 17.946-3.1042-2.1202 7.3447-6.3607 22.034-8.4809 29.379-17.946 3.1042-33.92-0.81668-37.444-17.946-4.0713-19.793 27.134-182.59 29.267-189.98-4.7411-8.958-29.531-15.826-33.772-1.1362l-7.9128-2.1202c18.514-34.603 53.838-9.3127 69.663-5.0722z" display="none"/>
 <path id="path4232-7-56" d="m317.65 183.26c-26.427 32.483-124.22 164.54-147.96 158.17l-15.826-4.2405 12.153-12.569 7.9128 2.1202c15.826 4.2405 123.65-133.04 140.05-160.3 12.573-20.906 3.6724 16.81 3.6724 16.81z" display="none"/>
 <path id="path4234-0-6" d="m254.77 253.45 47.477 12.721-4.2405 14.689-55.39-14.842z" display="none"/>
 <ellipse id="path3281-0-0-8" rx="266.61" transform="matrix(.96593 .25882 -.27735 .96077 0 0)" ry="248.8" cy="157.56" cx="290.88" display="none" fill="url(#radialGradient21305-7)"/>
 <path id="path4230-51" d="m339.84 165.47c-2.1202 7.3447-36.402 181.33-29.267 189.98 6.1765 7.4828 15.826 4.2405 17.946-3.1042-2.1202 7.3447-6.3607 22.034-8.4809 29.379-17.946 3.1042-33.92-0.81668-37.444-17.946-4.0713-19.793 27.134-182.59 29.267-189.98-4.7411-8.958-29.531-15.826-33.772-1.1362l-7.9128-2.1202c18.514-34.603 53.838-9.3127 69.663-5.0722z" display="none"/>
 <path id="path4232-33" d="m317.65 183.26c-26.427 32.483-124.22 164.54-147.96 158.17l-15.826-4.2405 12.153-12.569 7.9128 2.1202c15.826 4.2405 123.65-133.04 140.05-160.3 12.573-20.906 3.6724 16.81 3.6724 16.81z" display="none"/>
 <path id="path4234-6" d="m254.77 253.45 47.477 12.721-4.2405 14.689-55.39-14.842z" display="none"/>
 <style id="style1470-5" type="text/css"/>
 <path id="path4230-4" d="m311.21 165.47c-2.1202 7.3447-36.402 181.33-29.267 189.98 6.1765 7.4828 15.826 4.2405 17.946-3.1042-2.1202 7.3447-6.3607 22.034-8.4809 29.379-17.946 3.1042-33.92-0.81668-37.444-17.946-4.0713-19.793 27.134-182.59 29.267-189.98-4.7411-8.958-29.531-15.826-33.772-1.1362l-7.9128-2.1202c18.514-34.603 53.838-9.3127 69.663-5.0722z" display="none"/>
 <path id="path4232-24" d="m289.02 183.26c-26.427 32.483-124.22 164.54-147.96 158.17l-15.826-4.2405 12.153-12.569 7.9128 2.1202c15.826 4.2405 123.65-133.04 140.05-160.3 12.573-20.906 3.6724 16.81 3.6724 16.81z" display="none"/>
 <path id="path4234-36" d="m226.13 253.45 47.477 12.721-4.2405 14.689-55.39-14.842z" display="none"/>
 <path id="path4230-5-92" d="m311.21 165.47c-2.1202 7.3447-36.402 181.33-29.267 189.98 6.1765 7.4828 15.826 4.2405 17.946-3.1042-2.1202 7.3447-6.3607 22.034-8.4809 29.379-17.946 3.1042-33.92-0.81668-37.444-17.946-4.0713-19.793 27.134-182.59 29.267-189.98-4.7411-8.958-29.531-15.826-33.772-1.1362l-7.9128-2.1202c18.514-34.603 53.838-9.3127 69.663-5.0722z" display="none"/>
 <path id="path4232-3-41" d="m289.02 183.26c-26.427 32.483-124.22 164.54-147.96 158.17l-15.826-4.2405 12.153-12.569 7.9128 2.1202c15.826 4.2405 123.65-133.04 140.05-160.3 12.573-20.906 3.6724 16.81 3.6724 16.81z" display="none"/>
 <path id="path4234-4-0" d="m226.13 253.45 47.477 12.721-4.2405 14.689-55.39-14.842z" display="none"/>
 <path id="path4230-0-0" d="m311.21 165.47c-2.1202 7.3447-36.402 181.33-29.267 189.98 6.1765 7.4828 15.826 4.2405 17.946-3.1042-2.1202 7.3447-6.3607 22.034-8.4809 29.379-17.946 3.1042-33.92-0.81668-37.444-17.946-4.0713-19.793 27.134-182.59 29.267-189.98-4.7411-8.958-29.531-15.826-33.772-1.1362l-7.9128-2.1202c18.514-34.603 53.838-9.3127 69.663-5.0722z" display="none"/>
 <path id="path4232-7-53" d="m289.02 183.26c-26.427 32.483-124.22 164.54-147.96 158.17l-15.826-4.2405 12.153-12.569 7.9128 2.1202c15.826 4.2405 123.65-133.04 140.05-160.3 12.573-20.906 3.6724 16.81 3.6724 16.81z" display="none"/>
 <path id="path4234-0-65" d="m226.13 253.45 47.477 12.721-4.2405 14.689-55.39-14.842z" display="none"/>
 <ellipse id="path3281-0-0-2" rx="266.61" transform="matrix(.96593 .25882 -.27735 .96077 0 0)" ry="248.8" cy="164.97" cx="263.36" display="none" fill="url(#radialGradient21305-67)"/>
 <path id="path4230-51-3" d="m311.21 165.47c-2.1202 7.3447-36.402 181.33-29.267 189.98 6.1765 7.4828 15.826 4.2405 17.946-3.1042-2.1202 7.3447-6.3607 22.034-8.4809 29.379-17.946 3.1042-33.92-0.81668-37.444-17.946-4.0713-19.793 27.134-182.59 29.267-189.98-4.7411-8.958-29.531-15.826-33.772-1.1362l-7.9128-2.1202c18.514-34.603 53.838-9.3127 69.663-5.0722z" display="none"/>
 <path id="path4232-33-2" d="m289.02 183.26c-26.427 32.483-124.22 164.54-147.96 158.17l-15.826-4.2405 12.153-12.569 7.9128 2.1202c15.826 4.2405 123.65-133.04 140.05-160.3 12.573-20.906 3.6724 16.81 3.6724 16.81z" display="none"/>
 <path id="path4234-6-1" d="m226.13 253.45 47.477 12.721-4.2405 14.689-55.39-14.842z" display="none"/>
 <path id="rect2986" d="m26 0c-14.397 0-26 11.603-26 26v460c0 14.397 11.603 26 26 26h460c14.397 0 26-11.603 26-26v-460c0-14.397-11.603-26-26-26h-460z" fill="url(#linearGradient83955)"/>
 <path id="path85747" opacity=".25" d="m394.97 45.619c11.612 12.874 19.072 26.797 24.668 45.395 8.8577 29.438 8.464 66.329-0.31055 107.26-2.339 10.335-5.148 20.679-8.582 31.404l-159.14-159.16-34.77 15.619c-4.9944 16.827-15.248 46.194-27.834 80.49l-89.941-89.937c-24.591 0.385-41.205 0.696-58.059 1.006l23.842 388.68 45.618 45.62h375.54c14.397 0 26-11.603 26-26v-380.49l-46.291-46.291-70.738-13.596z"/>
 <path id="text3399" d="m465.71 59.215-70.74-13.596c11.612 12.874 19.072 26.796 24.668 45.394 8.8577 29.438 8.4634 66.33-0.3111 107.26-11.39 50.323-33.637 100.73-87.432 195.51-7.2228-30.787-12.095-51.603-14.309-58.962l-24.34-94.33c-8.3-32.12-18.17-71.71-29.34-117.89-3.88-17.4-7.76-34.677-12.31-52.076l-34.77 15.614c-15.54 52.352-81.71 225.49-112.11 294.02-8.839-54.24-26.67-201.44-34.527-281.82 12.854-4.758 19.584-9.532 28.865-21.646-24.591 0.385-41.204 0.695-58.058 1.005l23.842 388.68 38.707-13.157c57.161-142.38 72.621-181.24 114.94-296.06 22.799 80.294 65.703 247.47 77.909 308.39l39.229-14.21c12.624-34.917 17.235-46.443 44.799-99.535 79.461-151.72 102.28-228.17 85.278-292.59z" fill="#fff"/>
</svg>
