<?xml version="1.0" encoding="UTF-8" standalone="no"?>
<!-- Created with Inkscape (http://www.inkscape.org/) -->

<svg
   xmlns:dc="http://purl.org/dc/elements/1.1/"
   xmlns:cc="http://creativecommons.org/ns#"
   xmlns:rdf="http://www.w3.org/1999/02/22-rdf-syntax-ns#"
   xmlns:svg="http://www.w3.org/2000/svg"
   xmlns="http://www.w3.org/2000/svg"
   xmlns:sodipodi="http://sodipodi.sourceforge.net/DTD/sodipodi-0.dtd"
   xmlns:inkscape="http://www.inkscape.org/namespaces/inkscape"
   id="svg2"
   height="100%"
   width="100%"
   version="1.1"
   viewBox="0 0 512 512"
   inkscape:version="0.91 r13725"
   sodipodi:docname="calligrakarbon.svg">
  <defs
     id="defs594" />
  <sodipodi:namedview
     pagecolor="#ffffff"
     bordercolor="#666666"
     borderopacity="1"
     objecttolerance="10"
     gridtolerance="10"
     guidetolerance="10"
     inkscape:pageopacity="0"
     inkscape:pageshadow="2"
     inkscape:window-width="640"
     inkscape:window-height="480"
     id="namedview592"
     showgrid="false"
     inkscape:zoom="0.5546875"
     inkscape:cx="36.056338"
     inkscape:cy="240.67606"
     inkscape:current-layer="svg2" />
  <metadata
     id="metadata555">
    <rdf:RDF>
      <cc:Work
         rdf:about="">
        <dc:format>image/svg+xml</dc:format>
        <dc:type
           rdf:resource="http://purl.org/dc/dcmitype/StillImage" />
        <dc:title />
      </cc:Work>
    </rdf:RDF>
  </metadata>
  <style
     id="style1470"
     type="text/css" />
  <g
     id="g3943"
     transform="translate(412.84507,-394.8169)">
    <path
       d="m -386.84507,394.8169 c -14.397,0 -26,11.603 -26,26 l 0,460 c 0,14.397 11.603,26 26,26 l 460,0 c 14.397,0 26,-11.603 26,-26 l 0,-460 c 0,-14.397 -11.6,-26 -26,-26 l -460,0 z"
       id="rect2986"
       style="fill:#b3346a"
       inkscape:connector-curvature="0" />
    <path
       d="m -20.59507,435.8169 c -5.69,0.01 -11.44,1.349 -16.86,4.287 -27.7,14.531 -40.26,46.939 -39.69,76.893 -0.15,8.67 1.46,19.98 4.12,22.63 l 32.05,32.05 c -1.85,4.48 -3.81,8.89 -5.63,13.2 -4.55,8.33 -9.41,17.2 -15.12,25.35 l -44.26,-44.26 c -0.85,-0.84 -1.83,-1.72 -2.98,-2.62 -18.91,-18.28 -48.06,-2.88 -57.41,17.89 -19.28,38.28 -20.52,81.59 -28.99,122.94 l -6.52,-6.53 c -13.19,-13.18 -35.42,-14.94 -53.16,-11.77 -43.48,9.35 -75.852,50.85 -81.341,93.94 -3.385,23.55 5.719,47.93 22.285,64.5 l 62.506,62.5 324.75,0 c 14.4,0 26,-11.6 26,-26 l 0,-342.01 -90.3800004,-90.381 c -7.81000002,-7.8 -18.49,-12.628 -29.3699996,-12.609 z"
       style="color:#000000;text-indent:0;text-decoration:none;text-decoration-line:none;text-transform:none;block-progression:tb;opacity:0.25"
       id="path5610"
       inkscape:connector-curvature="0" />
    <path
       d="m -125.57507,797.5669 c 52.019,-55.495 92.798,-121.09 123.7199996,-190.4 17.5970004,-43.394 32.0290004,-91.351 21.9050004,-138.35 -5.2789,-24.721 -34.428,-41.228 -57.499,-28.709 -27.701,14.531 -40.263,46.939 -39.695,76.893 -0.25356,14.739 4.5739,37.085 10.99,11.648 6.5977,-14.967 30.698,-13.453 32.805,3.7245 2.5988,18.27 -6.3067,36.055 -13.252,52.509 -11.442,20.922 -24.729,45.355 -48.917,52.961 -18.506,3.842 -34.446,-12.114 -30.224,-31.051 -0.27495,-19.805 39.809,-25.216 16.779,-43.443 -18.912,-18.281 -48.058,-2.8796 -57.409,17.889 -25.18,49.979 -19.579,108.53 -39.502,160.11 -5.3562,22.563 -39.453,45.564 -53.544,17.456 -5.3815,-14.105 4.232,-29.201 15.721,-38.162 11.963,-12.48 29.397,-15.791 45.747,-18.303 -12.261,-17.423 -37.442,-19.966 -57.094,-16.454 -43.484,9.3458 -75.853,50.849 -81.341,93.944 -5.5677,38.729 22.659,79.727 62.3,84.469 50.42,8.3924 99.129,-18.997 134.34,-52.905 4.7842,-4.5444 9.3915,-9.2697 14.168,-13.822 z m -41.8,-13.86 c -1.7525,1.7525 -3.5045,3.5045 -5.2768,5.2288 -20.53,15.018 -43.862,35.372 -71.376,28.902 -8.5449,-0.44749 -30.22,-18.281 -10.275,-10.397 33.621,8.0044 64.315,-17.912 79.352,-45.813 16.039,-27.332 23.363,-58.594 30.21,-89.237 13.324,11.796 33.821,11.26 48.47,13.896 -6.288,14.07 -16.334,28.376 -24.947,42.131 -13.319,20.041 -29.26,38.304 -46.156,55.289 z"
       style="color:#000000;text-indent:0;text-decoration:none;text-decoration-line:none;text-transform:none;block-progression:tb;fill:#ffffff"
       id="path30234"
       inkscape:connector-curvature="0" />
  </g>
</svg>
