<?xml version="1.0" encoding="UTF-8" standalone="no"?>
<svg id="svg2" xmlns:rdf="http://www.w3.org/1999/02/22-rdf-syntax-ns#" xmlns="http://www.w3.org/2000/svg" height="100%" viewBox="0 0 512 512" width="100%" version="1.1" xmlns:cc="http://creativecommons.org/ns#" xmlns:xlink="http://www.w3.org/1999/xlink" xmlns:dc="http://purl.org/dc/elements/1.1/">
 <metadata id="metadata10">
  <rdf:RDF>
   <cc:Work rdf:about="">
    <dc:format>image/svg+xml</dc:format>
    <dc:type rdf:resource="http://purl.org/dc/dcmitype/StillImage"/>
    <dc:title/>
   </cc:Work>
  </rdf:RDF>
 </metadata>
 <defs id="defs8">
  <linearGradient id="ButtonShadow" y2="7.0165" gradientUnits="userSpaceOnUse" x2="45.448" gradientTransform="scale(1.0059 .99417)" y1="92.54" x1="45.448">
   <stop id="stop3750-1" offset="0"/>
   <stop id="stop3752-6" stop-opacity=".58824" offset="1"/>
  </linearGradient>
  <filter id="filter3174" color-interpolation-filters="sRGB">
   <feGaussianBlur id="feGaussianBlur3176" stdDeviation="1.71"/>
  </filter>
  <filter id="filter3174-6" color-interpolation-filters="sRGB">
   <feGaussianBlur id="feGaussianBlur3176-6" stdDeviation="1.71"/>
  </filter>
  <linearGradient id="linearGradient9335" y2="7.0165" xlink:href="#ButtonShadow" gradientUnits="userSpaceOnUse" y1="92.54" gradientTransform="scale(1.0059 .99417)" x2="45.448" x1="45.448"/>
  <linearGradient id="linearGradient10674" y2="-6.5085" gradientUnits="userSpaceOnUse" y1="514.17" x2="227.8" x1="227.8">
   <stop id="stop4377" stop-color="#b86d52" offset="0"/>
   <stop id="stop4379" stop-color="#f0b280" offset="1"/>
  </linearGradient>
 </defs>
 <g id="layer2" display="none" transform="matrix(6.7274 0 0 6.7274 -2789.7 -809.34)">
  <rect id="rect3745" opacity=".9" rx="6" ry="6" height="85" filter="url(#filter3174)" width="86" y="7" x="5" fill="url(#ButtonShadow)"/>
 </g>
 <g id="layer2-7" display="none" transform="matrix(6.7274 0 0 6.7274 -2775.1 -809.34)">
  <rect id="rect3745-8" opacity=".9" rx="6" ry="6" height="85" filter="url(#filter3174-6)" width="86" y="7" x="5" fill="url(#linearGradient9335)"/>
 </g>
 <path id="path4230" d="m428.79 165.47c-2.1202 7.3447-36.402 181.33-29.267 189.98 6.1765 7.4828 15.826 4.2405 17.946-3.1042-2.1202 7.3447-6.3607 22.034-8.4809 29.379-17.946 3.1042-33.92-0.81668-37.444-17.946-4.0713-19.793 27.134-182.59 29.267-189.98-4.7411-8.958-29.531-15.826-33.772-1.1362l-7.9128-2.1202c18.514-34.603 53.838-9.3127 69.663-5.0722z" display="none"/>
 <path id="path4232" d="m406.6 183.26c-26.427 32.483-124.22 164.54-147.96 158.17l-15.826-4.2405 12.153-12.569 7.9128 2.1202c15.826 4.2405 123.65-133.04 140.05-160.3 12.573-20.906 3.6724 16.81 3.6724 16.81z" display="none"/>
 <path id="path4234" d="m343.72 253.45 47.477 12.721-4.2405 14.689-55.39-14.842z" display="none"/>
 <path id="rect2986" fill="url(#linearGradient10674)" d="m26 0c-14.397 0-26 11.603-26 26v460c0 14.397 11.603 26 26 26h460c14.397 0 26-11.603 26-26v-460c0-14.397-11.6-26-26-26h-460z"/>
 <path id="path11577" opacity=".25" d="m280.65 41.002c-28.226-0.16058-55.524 8.8103-64.129 48.797l50.676 50.676c-43.35 110.85-121.48 286.9-145.42 286.47l-15.79-0.28-15.791 29.18 56.151 56.15h339.65c14.397 0 26-11.603 26-26v-268.98l-169.15-169.15c-13.817-0.24798-36.766-6.2387-59.461-6.8223-0.91186-0.0235-1.8239-0.0378-2.7344-0.043z"/>
 <path id="path4230-3" d="m283.39 41.045c-29.179-0.75036-57.981 7.4767-66.863 48.753l15.791 0.28342c0-27.245 42.342-28.18 59.461-16.658-25.55 79.097-140.1 354.07-170 353.53l-15.791-0.28343-15.791 29.182 31.581 0.56685c25.6 0.4595 69.484-84.824 109.55-174.83l84.381 1.5146c8.8683 75.674 19.132 147.02 27.14 162.55 15.685 30.416 47.372 30.316 78.953 16.15v-58.931c0 14.733-16.139 25.294-31.581 14.166-17.84-12.86-47.37-354.44-47.37-369.17-13.82-0.25-36.77-6.241-59.46-6.825zm15.791 79.702c3.0401 33.948 7.4019 81.865 13.077 132.83l-68.1-1.22c21.739-50.294 41.183-97.922 55.02-131.61z" fill="#fff"/>
</svg>
