<?xml version="1.0" encoding="UTF-8" standalone="no"?>
<!-- Created with Inkscape (http://www.inkscape.org/) -->

<svg
   xmlns:dc="http://purl.org/dc/elements/1.1/"
   xmlns:cc="http://creativecommons.org/ns#"
   xmlns:rdf="http://www.w3.org/1999/02/22-rdf-syntax-ns#"
   xmlns:svg="http://www.w3.org/2000/svg"
   xmlns="http://www.w3.org/2000/svg"
   xmlns:sodipodi="http://sodipodi.sourceforge.net/DTD/sodipodi-0.dtd"
   xmlns:inkscape="http://www.inkscape.org/namespaces/inkscape"
   id="svg2"
   height="100%"
   width="100%"
   version="1.1"
   viewBox="0 0 512 512"
   inkscape:version="0.91 r13725"
   sodipodi:docname="canopy.svg">
  <defs
     id="defs32" />
  <sodipodi:namedview
     pagecolor="#ffffff"
     bordercolor="#666666"
     borderopacity="1"
     objecttolerance="10"
     gridtolerance="10"
     guidetolerance="10"
     inkscape:pageopacity="0"
     inkscape:pageshadow="2"
     inkscape:window-width="640"
     inkscape:window-height="480"
     id="namedview30"
     showgrid="false"
     inkscape:zoom="0.5546875"
     inkscape:cx="36.056338"
     inkscape:cy="240.67606"
     inkscape:current-layer="svg2" />
  <metadata
     id="metadata60">
    <rdf:RDF>
      <cc:Work
         rdf:about="">
        <dc:format>image/svg+xml</dc:format>
        <dc:type
           rdf:resource="http://purl.org/dc/dcmitype/StillImage" />
      </cc:Work>
    </rdf:RDF>
  </metadata>
  <g
     id="g3381"
     transform="translate(355.15493,-360.56339)">
    <rect
       x="-355.16043"
       y="360.56339"
       width="512"
       height="512"
       rx="25.988001"
       id="rect4"
       style="fill:#5c805a" />
    <path
       d="m -104.03043,403.31338 c -103.85,0.077 -198.6,86.18 -208.5,189.78 -5.348,16.06 -0.442,31.429 12.531,41.22 18.839,15.771 25.453,40.652 38.28,60.906 24.784,44.42 46.709,90.9 74.38,133.34 14.681,14.665 29.354,29.334 44.03,44 l 274.16,0 c 14.397,0 26,-11.603 26,-26 l 0,-276.37 c -37.811,-37.842 -75.67,-75.64 -113.75,-113.22 -38.7169996,-34.2 -90.42,-54.24 -142.19,-53.594 -1.653,-0.042 -3.289,-0.064 -4.938,-0.063"
       id="path6"
       style="fill-opacity:0.23500001"
       inkscape:connector-curvature="0" />
    <path
       d="m -184.74043,829.07338 c -1.565,-0.37 -4.08,-1.938 -5.588,-3.487 -1.659,-1.703 -22.457,-39.458 -52.618,-95.52 l -49.874,-92.7 -4.544,-2.562 c -5.74,-3.24 -12.247,-9.3 -14.964,-13.94 -2.02,-3.445 -2.08,-3.967 -1.543,-13.06 2.337,-39.579 14.475,-76.52 35.567,-108.25 34.681,-52.15 87.958,-85.55 151.04,-94.67 13.868,-2 42.45,-2 56.32,0 48.929,7.07 92.83,29.17 125.68,63.25 36.75,38.13 56.795,83.44 60.53,136.87 0.882,12.61 0.85,13.246 -0.797,15.91 -2.322,3.756 -9.563,10.489 -15.201,14.13 l -4.624,2.989 -49.594,92.37 c -34.99,65.15 -50.4899996,93.26 -52.6499996,95.38 -5.2790004,5.229 -12.2930004,5.161 -17.6230004,-0.169 -3.904,-3.904 -4.918,-8.07 -3.159,-12.962 0.672,-1.869 20.7750004,-39.751 44.672,-84.18 23.897,-44.43 43.662,-81.34 43.926,-82.01 0.371,-0.968 -0.632,-1.346 -4.679,-1.769 -2.833,-0.296 -7.765,-1.446 -10.956,-2.557 l -5.804,-2.02 -1.67,2.7 c -3.962,6.412 -15.03,15.09 -23.13,18.16 l -3.392,1.279 -23.984,79.84 c -16.544,55.07 -24.602,80.67 -25.977,82.53 -4.867,6.577 -14.921,6.61 -20.17,0.068 -4.47,-5.575 -4.781,-4.213 19.246,-84.3 12.07,-40.22 22.1,-73.58 22.286,-74.13 0.219,-0.635 -1.404,-1.339 -4.442,-1.928 -9.57,-1.854 -21.793,-6.85 -26.457,-10.814 -1.366,-1.162 -1.798,-0.977 -5.04,2.159 -16.3,15.749 -46.975,21.476 -70.71,13.202 -7.766,-2.707 -12.574,-5.626 -18.396,-11.166 l -4.858,-4.624 -3.128,1.888 c -7.812,4.717 -20.15,9.314 -25.1,9.354 -4.233,0.035 -4.574,-1.345 18.65,76.05 25.14,83.79 24.17,79.2 18.1,85.27 -4.32,4.32 -8.876,5.09 -14.257,2.409 -2.341,-1.167 -4.506,-3.057 -5.511,-4.814 -0.91,-1.591 -12.271,-38.27 -25.25,-81.51 l -23.589,-78.61 -6.972,-3.544 c -7.988,-4.061 -14.671,-9.454 -18.964,-15.302 l -2.977,-4.055 -5.739,1.925 c -3.156,1.058 -8.06,2.226 -10.902,2.593 l -5.161,0.669 44.642,82.8 c 42.809,79.4 44.655,83 44.96,87.84 0.399,6.314 -1.561,9.875 -6.725,12.219 -3.854,1.75 -4.631,1.82 -8.921,0.808 m 6.883,-198.05 c 8.092,-1.534 16.725,-4.707 21.18,-7.781 l 3.362,-2.323 -0.42,-9.194 c -0.231,-5.057 -0.376,-20.731 -0.323,-34.839 0.078,-20.673 0.444,-28.406 1.887,-39.928 3.41,-27.25 9.318,-51.5 17.833,-73.2 4.04,-10.296 11.813,-26.474 15.623,-32.508 1.149,-1.819 1.917,-3.476 1.71,-3.683 -0.676,-0.676 -15.08,7.286 -24.703,13.661 -40.7,26.946 -69.45,69.45 -83.79,123.9 -2.836,10.767 -6.334,29.11 -6.959,36.5 l -0.51,6.03 3.99,4.999 c 6.705,8.403 13.816,13.77 22.733,17.15 9.167,3.478 15.09,3.731 28.394,1.211 m 186.3600004,-1.042 c 11.0199996,-3.535 22.6579996,-13.889 25.6039996,-22.763 1.188,-3.584 1.135,-4.693 -0.768,-16.1 -12.535,-75.11 -50.36,-131.51 -107.79,-160.72 -5.633,-2.865 -10.465,-4.987 -10.736,-4.717 -0.27,0.27 1.06,3.857 2.956,7.969 15.453,33.526 26.18,75.72 30.653,120.53 1.562,15.658 3.061,45.27 2.799,55.26 -0.18,6.821 0.017,8.07 1.605,10.215 3.525,4.767 15.522,10.08 26.677,11.809 8.192,1.271 22.7180004,0.521 29.0100004,-1.5"
       id="path54"
       style="fill:#ffffff"
       inkscape:connector-curvature="0" />
  </g>
</svg>
