<?xml version="1.0" encoding="UTF-8" standalone="no"?>
<!-- Created with Inkscape (http://www.inkscape.org/) -->

<svg
   xmlns:dc="http://purl.org/dc/elements/1.1/"
   xmlns:cc="http://creativecommons.org/ns#"
   xmlns:rdf="http://www.w3.org/1999/02/22-rdf-syntax-ns#"
   xmlns:svg="http://www.w3.org/2000/svg"
   xmlns="http://www.w3.org/2000/svg"
   xmlns:sodipodi="http://sodipodi.sourceforge.net/DTD/sodipodi-0.dtd"
   xmlns:inkscape="http://www.inkscape.org/namespaces/inkscape"
   id="svg2"
   height="100%"
   width="100%"
   version="1.1"
   viewBox="0 0 512 512"
   inkscape:version="0.91 r13725"
   sodipodi:docname="charmap.svg">
  <defs
     id="defs32" />
  <sodipodi:namedview
     pagecolor="#ffffff"
     bordercolor="#666666"
     borderopacity="1"
     objecttolerance="10"
     gridtolerance="10"
     guidetolerance="10"
     inkscape:pageopacity="0"
     inkscape:pageshadow="2"
     inkscape:window-width="640"
     inkscape:window-height="480"
     id="namedview30"
     showgrid="false"
     inkscape:zoom="0.5546875"
     inkscape:cx="36.056338"
     inkscape:cy="240.67606"
     inkscape:current-layer="svg2" />
  <metadata
     id="metadata60">
    <rdf:RDF>
      <cc:Work
         rdf:about="">
        <dc:format>image/svg+xml</dc:format>
        <dc:type
           rdf:resource="http://purl.org/dc/dcmitype/StillImage" />
      </cc:Work>
    </rdf:RDF>
  </metadata>
  <rect
     style="fill:#b79c71"
     id="rect4"
     rx="25.988001"
     height="512"
     width="512"
     y="-0.0059992089"
     x="-4.0917967e-06" />
  <path
     inkscape:connector-curvature="0"
     style="fill-opacity:0.23500001"
     id="path6"
     d="m 341.69,40.557 c -1.687,0.005 -3.5,0.151 -5.469,0.438 l -45.41,0 c -0.661,23.05 1.312,48.729 -0.969,70.16 -3.579,-5.879 -9.852,-9.06 -13.438,-14.938 -5.857,-3.591 -9.07,-9.827 -14.906,-13.438 -3.608,-5.84 -9.851,-9.04 -13.438,-14.906 -5.876,-3.582 -9.05,-9.862 -14.938,-13.438 -4.82,-4.887 -7.788,-11.63 -15.688,-13.438 -18.771,10e-4 -37.545,-0.002 -56.31,0 l 0,71.72 c 5.873,3.586 9.06,9.859 14.938,13.438 3.563,5.875 9.837,9.04 13.406,14.906 4.964,4.555 20.832,13.956 -0.063,14.375 -23.6,6.465 -52.704,14.282 -26.969,46 5.23,12.961 6.266,11.373 -2.844,20.25 14.834,17.03 36.657,32.838 49.22,49.25 31.543,31.543 21.14,17.536 -2.375,17.09 -40.01,7.549 -88.26,27.899 -92.47,73.13 -6.04,33.831 5.535,70.55 33.25,91.38 19.73,19.782 39.531,39.644 59.28,59.47 l 279.5,0 c 14.397,0 26,-11.603 26,-26 l 0,-284.06 c -5.617,-3.623 -8.822,-9.656 -14.531,-13.188 -3.611,-5.837 -9.847,-9.05 -13.438,-14.906 -5.876,-3.582 -9.05,-9.862 -14.938,-13.438 -3.575,-5.883 -9.855,-9.06 -13.438,-14.938 -5.862,-3.586 -9.07,-9.829 -14.906,-13.438 -3.611,-5.837 -9.847,-9.05 -13.438,-14.906 -5.874,-3.584 -9.06,-9.86 -14.938,-13.438 -3.575,-5.883 -9.855,-9.06 -13.438,-14.938 -5.868,-3.569 -9.03,-9.844 -14.906,-13.406 -3.58,-5.878 -9.852,-9.06 -13.438,-14.938 -5.02,-3.943 -9.707,-8.21 -13.438,-13.438 -3.369,-3.922 -8.158,-6.426 -15.469,-6.406" />
  <path
     inkscape:connector-curvature="0"
     style="fill:#ffffff"
     id="path54"
     d="m 161.12,112.704 0,-71.71 60.08,0 0,71.71 -60.08,0 m 129.7,0 0,-71.71 60.38,0 0,71.71 -60.38,0 m -72.71,358.28 c -31.424,0 -56.899,-7.913 -76.4,-23.722 -19.307,-15.999 -28.959,-38.961 -28.959,-68.888 0,-32.19 11.501,-55.995 34.505,-71.43 23,-15.623 57.713,-25.503 104.12,-29.644 6.366,-0.752 13.247,-1.505 20.639,-2.259 7.394,-0.752 15.712,-1.505 24.954,-2.259 9.242,-0.752 16.533,-1.413 21.874,-1.976 l 0,-16.374 c 0,-18.822 -4.719,-32.467 -14.174,-40.932 -9.454,-8.658 -23.817,-12.988 -43.13,-12.988 -27.522,0 -61.51,7.06 -101.97,21.17 -0.204,-0.565 -3.595,-9.129 -10.167,-25.692 -6.572,-16.563 -9.961,-25.03 -10.167,-25.406 39.844,-15.623 82.975,-23.433 129.39,-23.433 45.595,0 78.77,9.129 99.51,27.386 20.743,18.07 31.12,47.43 31.12,88.09 l 0,202.43 -59.767,0 c -0.206,-0.752 -2.465,-7.06 -6.777,-18.909 -4.313,-11.858 -6.47,-18.16 -6.47,-18.909 -16.842,15.06 -33.381,26.16 -49.6,33.32 -16.02,6.964 -35.532,10.445 -58.54,10.445 m 21.873,-52.51 c 18.69,0 34.923,-4.046 48.677,-12.14 13.966,-8.281 23.927,-18.258 29.883,-29.921 l 0,-59.857 c -0.617,0 -6.06,0.376 -16.327,1.129 -10.06,0.752 -15.506,1.13 -16.329,1.13 -32.656,2.635 -56.58,8.282 -71.783,16.939 -15.198,8.658 -22.798,22.587 -22.798,41.785 0,13.175 4.21,23.339 12.632,30.492 8.421,6.964 20.436,10.447 36.04,10.445" />
</svg>
