<?xml version="1.0" encoding="UTF-8" standalone="no"?>
<svg
   xmlns:dc="http://purl.org/dc/elements/1.1/"
   xmlns:cc="http://creativecommons.org/ns#"
   xmlns:rdf="http://www.w3.org/1999/02/22-rdf-syntax-ns#"
   xmlns:svg="http://www.w3.org/2000/svg"
   xmlns="http://www.w3.org/2000/svg"
   xmlns:sodipodi="http://sodipodi.sourceforge.net/DTD/sodipodi-0.dtd"
   xmlns:inkscape="http://www.inkscape.org/namespaces/inkscape"
   viewBox="0 0 512 512"
   id="svg2"
   version="1.1"
   inkscape:version="0.91+devel r13804 custom"
   sodipodi:docname="choqk.svg">
  <metadata
     id="metadata5798">
    <rdf:RDF>
      <cc:Work
         rdf:about="">
        <dc:format>image/svg+xml</dc:format>
        <dc:type
           rdf:resource="http://purl.org/dc/dcmitype/StillImage" />
      </cc:Work>
    </rdf:RDF>
  </metadata>
  <defs
     id="defs5796" />
  <sodipodi:namedview
     pagecolor="#ffffff"
     bordercolor="#666666"
     borderopacity="1"
     objecttolerance="10"
     gridtolerance="10"
     guidetolerance="10"
     inkscape:pageopacity="0"
     inkscape:pageshadow="2"
     inkscape:window-width="1366"
     inkscape:window-height="709"
     id="namedview5794"
     showgrid="false"
     inkscape:zoom="0.4609375"
     inkscape:cx="-8.6779661"
     inkscape:cy="237.55932"
     inkscape:window-x="0"
     inkscape:window-y="0"
     inkscape:window-maximized="1"
     inkscape:current-layer="svg2" />
  <g
     id="g9147"
     transform="translate(295.05085,-301.55932)">
    <path
       id="path4448"
       d="m -269.05135,301.55932 c -14.397,0 -26,11.603 -26,26 l 0,460 c 0,14.397 11.603,26 26,26 l 460,0 c 14.397,0 26,-11.603 26,-26 l 0,-460 c 0,-14.397 -11.603,-26 -26,-26 l -460,0"
       style="fill:#6788cc"
       inkscape:connector-curvature="0" />
    <path
       id="path5790"
       d="m -133.38135,387.34932 c -0.724,-0.009 -1.446,0.078 -2.17,0.229 -3.861,0.806 -6.988,3.378 -10.27,7 -2.624,2.898 -4.374,6.462 -5.324,11.205 -0.951,4.744 -1.213,10.761 -1.213,19.609 0,5.793 -0.212,10.255 -0.561,13.447 -0.274,2.504 -0.683,3.446 -0.934,4.107 -0.462,-0.309 -1.084,-0.762 -1.834,-1.408 l -3.285,-3.285 c -6.585,-6.585 -15.445,-7.58 -22.15,-3.709 -6.987,4.03 -11.655,12.639 -11.578,23.344 0.037,6.03 2.527,14.11 5.604,21.662 1.539,3.776 3.219,7.329 4.949,10.271 1.213,2.063 2.298,3.825 3.699,5.227 l 3.441,3.441 c 0.244,0.766 0.275,1.699 0.051,2.816 -0.46,2.288 -2.152,4.822 -4.67,6.164 -8.946,4.765 -14.661,11.139 -15.594,18.861 -0.933,7.723 2.847,15.751 10.09,23.996 1.01,1.15 2.049,2.26 3.117,3.328 l 45.51,45.51 c -1.01,1.461 -2.027,2.926 -3.059,4.385 -4.901,6.926 -9.962,13.666 -14.01,18.582 -1.21,1.471 -2.294,2.763 -3.262,3.863 l -44.37,-44.37 c -2.458,-2.458 -4.751,-4.647 -6.807,-6.465 -1.789,-1.581 -3.354,-2.851 -4.762,-3.828 -1.408,-0.977 -2.204,-1.961 -4.762,-1.961 -2.597,0 -4.6,1.151 -6.631,2.615 -2.031,1.466 -4.073,3.413 -6.164,5.695 -4.188,4.564 -8.571,10.532 -12.424,16.715 -3.853,6.178 -7.199,12.561 -9.246,18.02 -1.024,2.728 -1.715,5.233 -1.959,7.563 -0.242,2.335 -0.152,4.897 1.867,6.916 l 0.002,0.002 186.660003,186.66 256.379997,0 c 14.397,0 26,-11.603 26,-26 l 0,-255.92 -43.488,-43.488 c -0.102,-0.102 -0.208,-0.202 -0.314,-0.299 -1.616,-1.468 -3.613,-2.502 -5.975,-3.361 -3.238,-1.179 -7.238,-2.034 -11.828,-2.531 l -45.01,-45.01 c -10.02,-10.02 -21.652997,-18.322 -34.199997,-24.26 -23.271,-11.01 -45.838,-9.388 -72.7400005,4.949 -16.3689995,8.722 -37.0599995,27.868 -53.6719995,48.541 l -75.040003,-75.04 c -2.092,-2.092 -4.692,-3.48 -7.34,-3.758 l 13.947,13.947 c 0.004,0.008 0.008,0.015 0.012,0.023 l -13.965,-13.965 c -0.242,-0.025 -0.483,-0.04 -0.725,-0.043"
       style="opacity:0.25"
       inkscape:connector-curvature="0" />
    <path
       id="path5792"
       d="m -132.65135,387.37932 c 2.907,0.304 5.754,1.945 7.937,4.389 5.82,6.516 10.436,18.881 16.807,39.684 5.94,19.396 12.919003,38.03 19.050003,51.636 3.065,6.804 5.885,12.352 8.217,16.06 1.167,1.854 2.263,3.255 2.988,4.02 0.048,-0.034 0.046,-0.052 0.094,-0.094 0.818,-0.686 1.991,-1.785 3.268,-3.268 2.555,-2.967 5.629,-7.213 8.497,-11.859 17.19,-27.854 47.13,-58.55 69.1899995,-70.31 26.9010005,-14.338 49.4700005,-15.958 72.7400005,-4.95 22.984,10.873 42.910997,29.696 55.459997,52.47 4.487,8.141 7.138,12.377 9.151,14.193 2.01,1.816 3.414,2.01 7.937,2.148 7.457,0.22 13.767,1.269 18.488,2.988 2.361,0.86 4.36,1.893 5.976,3.361 1.616,1.47 2.802,3.608 2.802,5.976 0,2.117 -0.776,3.03 -1.587,4.295 -0.811,1.265 -1.821,2.587 -3.082,4.02 -2.52,2.856 -5.903,6.107 -9.618,9.151 l -11.578,9.524 1.214,27.359 c 1.704,37.593 -4.334,67.32 -20.262,99.64 -21.08,42.759 -52.359997,66.67 -100.289997,76.66 -12.69,2.644 -30.81000046,3.839 -45.666,3.082 -59.45,-3.036 -107.230003,-26.481 -139.880003,-68.905 l -12.139,-15.78 -21.943,-1.868 c -13.831,-1.207 -28.06,-3.327 -39.497,-5.79 -5.721,-1.232 -10.777,-2.606 -14.754,-3.922 -3.977,-1.316 -6.765,-2.189 -8.964,-4.389 -2.02,-2.02 -2.11,-4.58 -1.868,-6.915 0.244,-2.329 0.937,-4.835 1.96,-7.563 2.047,-5.456 5.392,-11.84 9.245,-18.02 3.853,-6.182 8.238,-12.15 12.425,-16.714 2.091,-2.283 4.133,-4.23 6.163,-5.696 2.031,-1.464 4.03,-2.615 6.63,-2.615 2.558,0 3.354,0.984 4.762,1.96 1.408,0.977 2.973,2.247 4.762,3.828 3.579,3.164 7.877,7.454 12.508,12.325 9.271,9.739 19.585,21.729 26.14,31 2.208,3.12 4.678,5.948 6.816,7.937 1.069,0.995 2.098,1.792 2.802,2.241 0.127,0.081 -0.015,0.04 0.094,0.094 0.293,-0.248 0.591,-0.408 1.028,-0.84 1.305,-1.294 3.02,-3.331 5.04,-5.79 4.046,-4.916 9.106,-11.655 14.01,-18.582 4.901,-6.929 9.67,-14.05 13.165,-19.795 1.748,-2.872 3.157,-5.463 4.108,-7.377 0.577,-1.163 0.669,-1.179 0.84,-1.681 -0.303,-0.112 -0.35,-0.165 -0.84,-0.28 -2.157,-0.504 -5.875,-0.913 -10.832,-0.934 -20.581,-0.087 -38.847,-8.159 -52.01,-23.16 -7.239,-8.245 -11.02,-16.274 -10.09,-23.997 0.933,-7.723 6.648,-14.1 15.594,-18.861 2.518,-1.342 4.208,-3.875 4.669,-6.163 0.46,-2.288 -0.129,-3.825 -1.495,-4.669 -2.499,-1.544 -3.966,-3.874 -5.696,-6.816 -1.73,-2.942 -3.411,-6.495 -4.95,-10.271 -3.076,-7.552 -5.565,-15.632 -5.602,-21.663 -0.077,-10.705 4.591,-19.313 11.578,-23.344 6.987,-4.03 16.316,-2.783 22.971,4.575 1.978,2.185 3.403,3.232 4.295,3.828 0.251,-0.661 0.66,-1.603 0.934,-4.108 0.349,-3.192 0.561,-7.654 0.561,-13.446 0,-8.848 0.263,-14.865 1.214,-19.609 0.951,-4.743 2.699,-8.307 5.323,-11.205 3.281,-3.626 6.41,-6.198 10.271,-7 0.966,-0.201 1.926,-0.288 2.894,-0.187 m 193.100003,81.978 c -13.445,0 -24.372,10.925 -24.372,24.37 0,13.445 10.925,24.37 24.372,24.37 13.445,0 24.278,-10.925 24.278,-24.37 0,-13.445 -10.832,-24.37 -24.278,-24.37"
       style="fill:#ffffff"
       inkscape:connector-curvature="0" />
  </g>
</svg>
