<?xml version="1.0" encoding="UTF-8" standalone="no"?>
<svg
   xmlns:dc="http://purl.org/dc/elements/1.1/"
   xmlns:cc="http://creativecommons.org/ns#"
   xmlns:rdf="http://www.w3.org/1999/02/22-rdf-syntax-ns#"
   xmlns:svg="http://www.w3.org/2000/svg"
   xmlns="http://www.w3.org/2000/svg"
   xmlns:xlink="http://www.w3.org/1999/xlink"
   xmlns:sodipodi="http://sodipodi.sourceforge.net/DTD/sodipodi-0.dtd"
   xmlns:inkscape="http://www.inkscape.org/namespaces/inkscape"
   id="svg2"
   height="100%"
   viewBox="0 0 512 512"
   width="100%"
   version="1.1"
   inkscape:version="0.91 r13725"
   sodipodi:docname="chromium-beta.svg">
  <sodipodi:namedview
     pagecolor="#ffffff"
     bordercolor="#666666"
     borderopacity="1"
     objecttolerance="10"
     gridtolerance="10"
     guidetolerance="10"
     inkscape:pageopacity="0"
     inkscape:pageshadow="2"
     inkscape:window-width="640"
     inkscape:window-height="480"
     id="namedview126"
     showgrid="false"
     inkscape:zoom="0.5546875"
     inkscape:cx="335.1767"
     inkscape:cy="107.8437"
     inkscape:current-layer="svg2" />
  <metadata
     id="metadata10">
    <rdf:RDF>
      <cc:Work
         rdf:about="">
        <dc:format>image/svg+xml</dc:format>
        <dc:type
           rdf:resource="http://purl.org/dc/dcmitype/StillImage" />
        <dc:title />
      </cc:Work>
    </rdf:RDF>
  </metadata>
  <defs
     id="defs8">
    <linearGradient
       id="ButtonShadow"
       y2="7.0165"
       gradientUnits="userSpaceOnUse"
       x2="45.448"
       gradientTransform="scale(1.0059 .99417)"
       y1="92.54"
       x1="45.448">
      <stop
         id="stop3750-1"
         offset="0" />
      <stop
         id="stop3752-6"
         stop-opacity=".58824"
         offset="1" />
    </linearGradient>
    <filter
       id="filter3174"
       color-interpolation-filters="sRGB">
      <feGaussianBlur
         id="feGaussianBlur3176"
         stdDeviation="1.71" />
    </filter>
    <filter
       id="filter3174-6"
       color-interpolation-filters="sRGB">
      <feGaussianBlur
         id="feGaussianBlur3176-6"
         stdDeviation="1.71" />
    </filter>
    <linearGradient
       id="linearGradient9335"
       y2="7.0165"
       xlink:href="#ButtonShadow"
       gradientUnits="userSpaceOnUse"
       y1="92.54"
       gradientTransform="scale(1.0059 .99417)"
       x2="45.448"
       x1="45.448" />
    <filter
       id="filter3174-2"
       color-interpolation-filters="sRGB">
      <feGaussianBlur
         id="feGaussianBlur3176-64"
         stdDeviation="1.71" />
    </filter>
    <filter
       id="filter3174-9"
       color-interpolation-filters="sRGB">
      <feGaussianBlur
         id="feGaussianBlur3176-1"
         stdDeviation="1.71" />
    </filter>
    <radialGradient
       id="radialGradient21305"
       xlink:href="#linearGradient4216-1"
       gradientUnits="userSpaceOnUse"
       cy="64"
       cx="64"
       gradientTransform="matrix(4.1658 0 0 3.8875 118.08 -116.51)"
       r="64" />
    <linearGradient
       id="linearGradient4216-1">
      <stop
         id="stop4218-0"
         stop-color="#fff"
         offset="0" />
      <stop
         id="stop4220-2"
         stop-color="#e8e8e8"
         offset=".6875" />
      <stop
         id="stop4222-6"
         stop-color="#686868"
         offset=".875" />
      <stop
         id="stop4224-6"
         offset="1" />
    </linearGradient>
    <filter
       id="filter3174-3"
       color-interpolation-filters="sRGB">
      <feGaussianBlur
         id="feGaussianBlur3176-17"
         stdDeviation="1.71" />
    </filter>
    <radialGradient
       id="radialGradient21305-6"
       xlink:href="#linearGradient4216-1"
       gradientUnits="userSpaceOnUse"
       cy="64"
       cx="64"
       gradientTransform="matrix(4.1658 0 0 3.8875 29.334 -198.73)"
       r="64" />
    <filter
       id="filter3174-7"
       color-interpolation-filters="sRGB">
      <feGaussianBlur
         id="feGaussianBlur3176-68"
         stdDeviation="1.71" />
    </filter>
    <radialGradient
       id="radialGradient21305-3"
       xlink:href="#linearGradient4216-1"
       gradientUnits="userSpaceOnUse"
       cy="64"
       cx="64"
       gradientTransform="matrix(4.1658 0 0 3.8875 50.075 -134.32)"
       r="64" />
    <filter
       id="filter3174-70"
       color-interpolation-filters="sRGB">
      <feGaussianBlur
         id="feGaussianBlur3176-8"
         stdDeviation="1.71" />
    </filter>
    <radialGradient
       id="radialGradient21305-7"
       cx="64"
       xlink:href="#linearGradient4216-1"
       gradientUnits="userSpaceOnUse"
       cy="64"
       r="64"
       gradientTransform="matrix(4.1658 0 0 3.8875 24.263 -91.238)" />
    <radialGradient
       id="radialGradient21305-67"
       xlink:href="#linearGradient4216-1"
       gradientUnits="userSpaceOnUse"
       cy="64"
       cx="64"
       gradientTransform="matrix(4.1658 0 0 3.8875 -3.2516 -83.826)"
       r="64" />
  </defs>
  <g
     id="layer2"
     display="none"
     transform="matrix(6.7274 0 0 6.7274 -2789.7 -809.34)">
    <rect
       id="rect3745"
       opacity=".9"
       rx="6"
       ry="6"
       height="85"
       filter="url(#filter3174)"
       width="86"
       y="7"
       x="5"
       fill="url(#ButtonShadow)" />
  </g>
  <g
     id="layer2-7"
     display="none"
     transform="matrix(6.7274 0 0 6.7274 -2775.1 -809.34)">
    <rect
       id="rect3745-8"
       opacity=".9"
       rx="6"
       ry="6"
       height="85"
       filter="url(#filter3174-6)"
       width="86"
       y="7"
       x="5"
       fill="url(#linearGradient9335)" />
  </g>
  <path
     id="path4230"
     d="m428.79 165.47c-2.1202 7.3447-36.402 181.33-29.267 189.98 6.1765 7.4828 15.826 4.2405 17.946-3.1042-2.1202 7.3447-6.3607 22.034-8.4809 29.379-17.946 3.1042-33.92-0.81668-37.444-17.946-4.0713-19.793 27.134-182.59 29.267-189.98-4.7411-8.958-29.531-15.826-33.772-1.1362l-7.9128-2.1202c18.514-34.603 53.838-9.3127 69.663-5.0722z"
     display="none" />
  <path
     id="path4232"
     d="m406.6 183.26c-26.427 32.483-124.22 164.54-147.96 158.17l-15.826-4.2405 12.153-12.569 7.9128 2.1202c15.826 4.2405 123.65-133.04 140.05-160.3 12.573-20.906 3.6724 16.81 3.6724 16.81z"
     display="none" />
  <path
     id="path4234"
     d="m343.72 253.45 47.477 12.721-4.2405 14.689-55.39-14.842z"
     display="none" />
  <g
     id="layer2-4"
     display="none"
     transform="matrix(6.7274 0 0 6.7274 -2768.6 -809.34)">
    <rect
       id="rect3745-6"
       opacity=".9"
       rx="6"
       ry="6"
       height="85"
       filter="url(#filter3174-2)"
       width="86"
       y="7"
       x="5"
       fill="url(#linearGradient9335)" />
  </g>
  <path
     id="path4230-6"
     d="m435.3 165.47c-2.1202 7.3447-36.402 181.33-29.267 189.98 6.1765 7.4828 15.826 4.2405 17.946-3.1042-2.1202 7.3447-6.3607 22.034-8.4809 29.379-17.946 3.1042-33.92-0.81668-37.444-17.946-4.0713-19.793 27.134-182.59 29.267-189.98-4.7411-8.958-29.531-15.826-33.772-1.1362l-7.9128-2.1202c18.514-34.603 53.838-9.3127 69.663-5.0722z"
     display="none" />
  <path
     id="path4232-1"
     d="m413.11 183.26c-26.427 32.483-124.22 164.54-147.96 158.17l-15.826-4.2405 12.153-12.569 7.9128 2.1202c15.826 4.2405 123.65-133.04 140.05-160.3 12.573-20.906 3.6724 16.81 3.6724 16.81z"
     display="none" />
  <path
     id="path4234-5"
     d="m350.22 253.45 47.477 12.721-4.2405 14.689-55.39-14.842z"
     display="none" />
  <path
     id="path4230-5"
     d="m435.3 165.47c-2.1202 7.3447-36.402 181.33-29.267 189.98 6.1765 7.4828 15.826 4.2405 17.946-3.1042-2.1202 7.3447-6.3607 22.034-8.4809 29.379-17.946 3.1042-33.92-0.81668-37.444-17.946-4.0713-19.793 27.134-182.59 29.267-189.98-4.7411-8.958-29.531-15.826-33.772-1.1362l-7.9128-2.1202c18.514-34.603 53.838-9.3127 69.663-5.0722z"
     display="none" />
  <path
     id="path4232-3"
     d="m413.11 183.26c-26.427 32.483-124.22 164.54-147.96 158.17l-15.826-4.2405 12.153-12.569 7.9128 2.1202c15.826 4.2405 123.65-133.04 140.05-160.3 12.573-20.906 3.6724 16.81 3.6724 16.81z"
     display="none" />
  <path
     id="path4234-4"
     d="m350.22 253.45 47.477 12.721-4.2405 14.689-55.39-14.842z"
     display="none" />
  <style
     id="style1470"
     type="text/css" />
  <g
     id="layer2-5"
     display="none"
     transform="matrix(6.7274 0 0 6.7274 -2766.4 -809.34)">
    <rect
       id="rect3745-1"
       opacity=".9"
       rx="6"
       ry="6"
       height="85"
       filter="url(#filter3174-9)"
       width="86"
       y="7"
       x="5"
       fill="url(#linearGradient9335)" />
  </g>
  <path
     id="path4230-9"
     d="m437.47 165.47c-2.1202 7.3447-36.402 181.33-29.267 189.98 6.1765 7.4828 15.826 4.2405 17.946-3.1042-2.1202 7.3447-6.3607 22.034-8.4809 29.379-17.946 3.1042-33.92-0.81668-37.444-17.946-4.0713-19.793 27.134-182.59 29.267-189.98-4.7411-8.958-29.531-15.826-33.772-1.1362l-7.9128-2.1202c18.514-34.603 53.838-9.3127 69.663-5.0722z"
     display="none" />
  <path
     id="path4232-2"
     d="m415.28 183.26c-26.43 32.48-124.22 164.54-147.96 158.18l-15.826-4.2405 12.153-12.569 7.9128 2.1202c15.826 4.2405 123.65-133.04 140.05-160.3 12.573-20.906 3.6724 16.81 3.6724 16.81z"
     display="none" />
  <path
     id="path4234-3"
     d="m352.39 253.45 47.477 12.721-4.2405 14.689-55.39-14.842z"
     display="none" />
  <path
     id="path4230-5-1"
     d="m437.47 165.47c-2.1202 7.3447-36.402 181.33-29.267 189.98 6.1765 7.4828 15.826 4.2405 17.946-3.1042-2.1202 7.3447-6.3607 22.034-8.4809 29.379-17.946 3.1042-33.92-0.81668-37.444-17.946-4.0713-19.793 27.134-182.59 29.267-189.98-4.7411-8.958-29.531-15.826-33.772-1.1362l-7.9128-2.1202c18.514-34.603 53.838-9.3127 69.663-5.0722z"
     display="none" />
  <path
     id="path4232-3-5"
     d="m415.28 183.26c-26.43 32.48-124.22 164.54-147.96 158.18l-15.826-4.2405 12.153-12.569 7.9128 2.1202c15.826 4.2405 123.65-133.04 140.05-160.3 12.573-20.906 3.6724 16.81 3.6724 16.81z"
     display="none" />
  <path
     id="path4234-4-5"
     d="m352.39 253.45 47.477 12.721-4.2405 14.689-55.39-14.842z"
     display="none" />
  <path
     id="path4230-0"
     d="m437.47 165.47c-2.1202 7.3447-36.402 181.33-29.267 189.98 6.1765 7.4828 15.826 4.2405 17.946-3.1042-2.1202 7.3447-6.3607 22.034-8.4809 29.379-17.946 3.1042-33.92-0.81668-37.444-17.946-4.0713-19.793 27.134-182.59 29.267-189.98-4.7411-8.958-29.531-15.826-33.772-1.1362l-7.9128-2.1202c18.514-34.603 53.838-9.3127 69.663-5.0722z"
     display="none" />
  <path
     id="path4232-7"
     d="m415.28 183.26c-26.43 32.48-124.22 164.54-147.96 158.18l-15.826-4.2405 12.153-12.569 7.9128 2.1202c15.826 4.2405 123.65-133.04 140.05-160.3 12.573-20.906 3.6724 16.81 3.6724 16.81z"
     display="none" />
  <path
     id="path4234-0"
     d="m352.39 253.45 47.477 12.721-4.2405 14.689-55.39-14.842z"
     display="none" />
  <ellipse
     id="path3281-0-0"
     rx="266.61"
     transform="matrix(.96593 .25882 -.27735 .96077 0 0)"
     ry="248.8"
     cy="132.29"
     cx="384.69"
     display="none"
     fill="url(#radialGradient21305)" />
  <style
     id="style1470-0"
     type="text/css" />
  <g
     id="layer2-73"
     display="none"
     transform="matrix(6.7274 0 0 6.7274 -2829.3 -911.3)">
    <rect
       id="rect3745-4"
       opacity=".9"
       rx="6"
       ry="6"
       height="85"
       filter="url(#filter3174-3)"
       width="86"
       y="7"
       x="5"
       fill="url(#linearGradient9335)" />
  </g>
  <path
     id="path4230-7"
     d="m374.55 63.502c-2.1202 7.3447-36.402 181.33-29.267 189.98 6.1765 7.4828 15.826 4.2405 17.946-3.1042-2.1202 7.3447-6.3607 22.034-8.4809 29.379-17.946 3.1042-33.92-0.81668-37.444-17.946-4.0713-19.793 27.134-182.59 29.267-189.98-4.7411-8.958-29.531-15.826-33.772-1.1362l-7.9128-2.1202c18.514-34.603 53.838-9.3127 69.663-5.0722z"
     display="none" />
  <path
     id="path4232-6"
     d="m352.36 81.296c-26.427 32.483-124.22 164.54-147.96 158.17l-15.826-4.2405 12.153-12.569 7.9128 2.1202c15.826 4.2405 123.65-133.04 140.05-160.3 12.573-20.906 3.6724 16.81 3.6724 16.81z"
     display="none" />
  <path
     id="path4234-30"
     d="m289.48 151.49 47.477 12.721-4.2405 14.689-55.39-14.842z"
     display="none" />
  <path
     id="path4230-5-9"
     d="m374.55 63.502c-2.1202 7.3447-36.402 181.33-29.267 189.98 6.1765 7.4828 15.826 4.2405 17.946-3.1042-2.1202 7.3447-6.3607 22.034-8.4809 29.379-17.946 3.1042-33.92-0.81668-37.444-17.946-4.0713-19.793 27.134-182.59 29.267-189.98-4.7411-8.958-29.531-15.826-33.772-1.1362l-7.9128-2.1202c18.514-34.603 53.838-9.3127 69.663-5.0722z"
     display="none" />
  <path
     id="path4232-3-4"
     d="m352.36 81.296c-26.427 32.483-124.22 164.54-147.96 158.17l-15.826-4.2405 12.153-12.569 7.9128 2.1202c15.826 4.2405 123.65-133.04 140.05-160.3 12.573-20.906 3.6724 16.81 3.6724 16.81z"
     display="none" />
  <path
     id="path4234-4-2"
     d="m289.48 151.49 47.477 12.721-4.2405 14.689-55.39-14.842z"
     display="none" />
  <path
     id="path4230-0-5"
     d="m374.55 63.502c-2.1202 7.3447-36.402 181.33-29.267 189.98 6.1765 7.4828 15.826 4.2405 17.946-3.1042-2.1202 7.3447-6.3607 22.034-8.4809 29.379-17.946 3.1042-33.92-0.81668-37.444-17.946-4.0713-19.793 27.134-182.59 29.267-189.98-4.7411-8.958-29.531-15.826-33.772-1.1362l-7.9128-2.1202c18.514-34.603 53.838-9.3127 69.663-5.0722z"
     display="none" />
  <path
     id="path4232-7-7"
     d="m352.36 81.296c-26.427 32.483-124.22 164.54-147.96 158.17l-15.826-4.2405 12.153-12.569 7.9128 2.1202c15.826 4.2405 123.65-133.04 140.05-160.3 12.573-20.906 3.6724 16.81 3.6724 16.81z"
     display="none" />
  <path
     id="path4234-0-4"
     d="m289.48 151.49 47.477 12.721-4.2405 14.689-55.39-14.842z"
     display="none" />
  <ellipse
     id="path3281-0-0-4"
     rx="266.61"
     transform="matrix(.96593 .25882 -.27735 .96077 0 0)"
     ry="248.8"
     cy="50.066"
     cx="295.95"
     display="none"
     fill="url(#radialGradient21305-6)" />
  <style
     id="style1470-05"
     type="text/css" />
  <g
     id="layer2-0"
     display="none"
     transform="matrix(6.7274 0 0 6.7274 -2827.2 -844.05)">
    <rect
       id="rect3745-7"
       opacity=".9"
       rx="6"
       ry="6"
       height="85"
       filter="url(#filter3174-7)"
       width="86"
       y="7"
       x="5"
       fill="url(#linearGradient9335)" />
  </g>
  <path
     id="path4230-8"
     d="m376.72 130.76c-2.1202 7.3447-36.402 181.33-29.267 189.98 6.1765 7.4828 15.826 4.2405 17.946-3.1042-2.1202 7.3447-6.3607 22.034-8.4809 29.379-17.946 3.1042-33.92-0.81668-37.444-17.946-4.0713-19.793 27.134-182.59 29.267-189.98-4.7411-8.958-29.531-15.826-33.772-1.1362l-7.9128-2.1202c18.514-34.603 53.838-9.3127 69.663-5.0722z"
     display="none" />
  <path
     id="path4232-4"
     d="m354.53 148.55c-26.427 32.483-124.22 164.54-147.96 158.17l-15.826-4.2405 12.153-12.569 7.9128 2.1202c15.826 4.2405 123.65-133.04 140.05-160.3 12.573-20.906 3.6724 16.81 3.6724 16.81z"
     display="none" />
  <path
     id="path4234-07"
     d="m291.65 218.74 47.477 12.721-4.2405 14.689-55.39-14.842z"
     display="none" />
  <path
     id="path4230-5-0"
     d="m376.72 130.76c-2.1202 7.3447-36.402 181.33-29.267 189.98 6.1765 7.4828 15.826 4.2405 17.946-3.1042-2.1202 7.3447-6.3607 22.034-8.4809 29.379-17.946 3.1042-33.92-0.81668-37.444-17.946-4.0713-19.793 27.134-182.59 29.267-189.98-4.7411-8.958-29.531-15.826-33.772-1.1362l-7.9128-2.1202c18.514-34.603 53.838-9.3127 69.663-5.0722z"
     display="none" />
  <path
     id="path4232-3-55"
     d="m354.53 148.55c-26.427 32.483-124.22 164.54-147.96 158.17l-15.826-4.2405 12.153-12.569 7.9128 2.1202c15.826 4.2405 123.65-133.04 140.05-160.3 12.573-20.906 3.6724 16.81 3.6724 16.81z"
     display="none" />
  <path
     id="path4234-4-6"
     d="m291.65 218.74 47.477 12.721-4.2405 14.689-55.39-14.842z"
     display="none" />
  <path
     id="path4230-0-8"
     d="m376.72 130.76c-2.1202 7.3447-36.402 181.33-29.267 189.98 6.1765 7.4828 15.826 4.2405 17.946-3.1042-2.1202 7.3447-6.3607 22.034-8.4809 29.379-17.946 3.1042-33.92-0.81668-37.444-17.946-4.0713-19.793 27.134-182.59 29.267-189.98-4.7411-8.958-29.531-15.826-33.772-1.1362l-7.9128-2.1202c18.514-34.603 53.838-9.3127 69.663-5.0722z"
     display="none" />
  <path
     id="path4232-7-5"
     d="m354.53 148.55c-26.427 32.483-124.22 164.54-147.96 158.17l-15.826-4.2405 12.153-12.569 7.9128 2.1202c15.826 4.2405 123.65-133.04 140.05-160.3 12.573-20.906 3.6724 16.81 3.6724 16.81z"
     display="none" />
  <path
     id="path4234-0-9"
     d="m291.65 218.74 47.477 12.721-4.2405 14.689-55.39-14.842z"
     display="none" />
  <ellipse
     id="path3281-0-0-0"
     rx="266.61"
     transform="matrix(.96593 .25882 -.27735 .96077 0 0)"
     ry="248.8"
     cy="114.48"
     cx="316.69"
     display="none"
     fill="url(#radialGradient21305-3)" />
  <style
     id="style1470-059"
     type="text/css" />
  <g
     id="layer2-70"
     display="none"
     transform="matrix(6.7274 0 0 6.7274 -2864 -809.34)">
    <rect
       id="rect3745-17"
       opacity=".9"
       rx="6"
       ry="6"
       height="85"
       filter="url(#filter3174-70)"
       width="86"
       y="7"
       x="5"
       fill="url(#linearGradient9335)" />
  </g>
  <path
     id="path4230-09"
     d="m339.84 165.47c-2.1202 7.3447-36.402 181.33-29.267 189.98 6.1765 7.4828 15.826 4.2405 17.946-3.1042-2.1202 7.3447-6.3607 22.034-8.4809 29.379-17.946 3.1042-33.92-0.81668-37.444-17.946-4.0713-19.793 27.134-182.59 29.267-189.98-4.7411-8.958-29.531-15.826-33.772-1.1362l-7.9128-2.1202c18.514-34.603 53.838-9.3127 69.663-5.0722z"
     display="none" />
  <path
     id="path4232-77"
     d="m317.65 183.26c-26.427 32.483-124.22 164.54-147.96 158.17l-15.826-4.2405 12.153-12.569 7.9128 2.1202c15.826 4.2405 123.65-133.04 140.05-160.3 12.573-20.906 3.6724 16.81 3.6724 16.81z"
     display="none" />
  <path
     id="path4234-1"
     d="m254.77 253.45 47.477 12.721-4.2405 14.689-55.39-14.842z"
     display="none" />
  <path
     id="path4230-5-5"
     d="m339.84 165.47c-2.1202 7.3447-36.402 181.33-29.267 189.98 6.1765 7.4828 15.826 4.2405 17.946-3.1042-2.1202 7.3447-6.3607 22.034-8.4809 29.379-17.946 3.1042-33.92-0.81668-37.444-17.946-4.0713-19.793 27.134-182.59 29.267-189.98-4.7411-8.958-29.531-15.826-33.772-1.1362l-7.9128-2.1202c18.514-34.603 53.838-9.3127 69.663-5.0722z"
     display="none" />
  <path
     id="path4232-3-7"
     d="m317.65 183.26c-26.427 32.483-124.22 164.54-147.96 158.17l-15.826-4.2405 12.153-12.569 7.9128 2.1202c15.826 4.2405 123.65-133.04 140.05-160.3 12.573-20.906 3.6724 16.81 3.6724 16.81z"
     display="none" />
  <path
     id="path4234-4-8"
     d="m254.77 253.45 47.477 12.721-4.2405 14.689-55.39-14.842z"
     display="none" />
  <path
     id="path4230-0-7"
     d="m339.84 165.47c-2.1202 7.3447-36.402 181.33-29.267 189.98 6.1765 7.4828 15.826 4.2405 17.946-3.1042-2.1202 7.3447-6.3607 22.034-8.4809 29.379-17.946 3.1042-33.92-0.81668-37.444-17.946-4.0713-19.793 27.134-182.59 29.267-189.98-4.7411-8.958-29.531-15.826-33.772-1.1362l-7.9128-2.1202c18.514-34.603 53.838-9.3127 69.663-5.0722z"
     display="none" />
  <path
     id="path4232-7-56"
     d="m317.65 183.26c-26.427 32.483-124.22 164.54-147.96 158.17l-15.826-4.2405 12.153-12.569 7.9128 2.1202c15.826 4.2405 123.65-133.04 140.05-160.3 12.573-20.906 3.6724 16.81 3.6724 16.81z"
     display="none" />
  <path
     id="path4234-0-6"
     d="m254.77 253.45 47.477 12.721-4.2405 14.689-55.39-14.842z"
     display="none" />
  <ellipse
     id="path3281-0-0-8"
     rx="266.61"
     transform="matrix(.96593 .25882 -.27735 .96077 0 0)"
     ry="248.8"
     cy="157.56"
     cx="290.88"
     display="none"
     fill="url(#radialGradient21305-7)" />
  <path
     id="path4230-51"
     d="m339.84 165.47c-2.1202 7.3447-36.402 181.33-29.267 189.98 6.1765 7.4828 15.826 4.2405 17.946-3.1042-2.1202 7.3447-6.3607 22.034-8.4809 29.379-17.946 3.1042-33.92-0.81668-37.444-17.946-4.0713-19.793 27.134-182.59 29.267-189.98-4.7411-8.958-29.531-15.826-33.772-1.1362l-7.9128-2.1202c18.514-34.603 53.838-9.3127 69.663-5.0722z"
     display="none" />
  <path
     id="path4232-33"
     d="m317.65 183.26c-26.427 32.483-124.22 164.54-147.96 158.17l-15.826-4.2405 12.153-12.569 7.9128 2.1202c15.826 4.2405 123.65-133.04 140.05-160.3 12.573-20.906 3.6724 16.81 3.6724 16.81z"
     display="none" />
  <path
     id="path4234-6"
     d="m254.77 253.45 47.477 12.721-4.2405 14.689-55.39-14.842z"
     display="none" />
  <style
     id="style1470-5"
     type="text/css" />
  <path
     id="path4230-4"
     d="m311.21 165.47c-2.1202 7.3447-36.402 181.33-29.267 189.98 6.1765 7.4828 15.826 4.2405 17.946-3.1042-2.1202 7.3447-6.3607 22.034-8.4809 29.379-17.946 3.1042-33.92-0.81668-37.444-17.946-4.0713-19.793 27.134-182.59 29.267-189.98-4.7411-8.958-29.531-15.826-33.772-1.1362l-7.9128-2.1202c18.514-34.603 53.838-9.3127 69.663-5.0722z"
     display="none" />
  <path
     id="path4232-24"
     d="m289.02 183.26c-26.427 32.483-124.22 164.54-147.96 158.17l-15.826-4.2405 12.153-12.569 7.9128 2.1202c15.826 4.2405 123.65-133.04 140.05-160.3 12.573-20.906 3.6724 16.81 3.6724 16.81z"
     display="none" />
  <path
     id="path4234-36"
     d="m226.13 253.45 47.477 12.721-4.2405 14.689-55.39-14.842z"
     display="none" />
  <path
     id="path4230-5-92"
     d="m311.21 165.47c-2.1202 7.3447-36.402 181.33-29.267 189.98 6.1765 7.4828 15.826 4.2405 17.946-3.1042-2.1202 7.3447-6.3607 22.034-8.4809 29.379-17.946 3.1042-33.92-0.81668-37.444-17.946-4.0713-19.793 27.134-182.59 29.267-189.98-4.7411-8.958-29.531-15.826-33.772-1.1362l-7.9128-2.1202c18.514-34.603 53.838-9.3127 69.663-5.0722z"
     display="none" />
  <path
     id="path4232-3-41"
     d="m289.02 183.26c-26.427 32.483-124.22 164.54-147.96 158.17l-15.826-4.2405 12.153-12.569 7.9128 2.1202c15.826 4.2405 123.65-133.04 140.05-160.3 12.573-20.906 3.6724 16.81 3.6724 16.81z"
     display="none" />
  <path
     id="path4234-4-0"
     d="m226.13 253.45 47.477 12.721-4.2405 14.689-55.39-14.842z"
     display="none" />
  <path
     id="path4230-0-0"
     d="m311.21 165.47c-2.1202 7.3447-36.402 181.33-29.267 189.98 6.1765 7.4828 15.826 4.2405 17.946-3.1042-2.1202 7.3447-6.3607 22.034-8.4809 29.379-17.946 3.1042-33.92-0.81668-37.444-17.946-4.0713-19.793 27.134-182.59 29.267-189.98-4.7411-8.958-29.531-15.826-33.772-1.1362l-7.9128-2.1202c18.514-34.603 53.838-9.3127 69.663-5.0722z"
     display="none" />
  <path
     id="path4232-7-53"
     d="m289.02 183.26c-26.427 32.483-124.22 164.54-147.96 158.17l-15.826-4.2405 12.153-12.569 7.9128 2.1202c15.826 4.2405 123.65-133.04 140.05-160.3 12.573-20.906 3.6724 16.81 3.6724 16.81z"
     display="none" />
  <path
     id="path4234-0-65"
     d="m226.13 253.45 47.477 12.721-4.2405 14.689-55.39-14.842z"
     display="none" />
  <ellipse
     id="path3281-0-0-2"
     rx="266.61"
     transform="matrix(.96593 .25882 -.27735 .96077 0 0)"
     ry="248.8"
     cy="164.97"
     cx="263.36"
     display="none"
     fill="url(#radialGradient21305-67)" />
  <path
     id="path4230-51-3"
     d="m311.21 165.47c-2.1202 7.3447-36.402 181.33-29.267 189.98 6.1765 7.4828 15.826 4.2405 17.946-3.1042-2.1202 7.3447-6.3607 22.034-8.4809 29.379-17.946 3.1042-33.92-0.81668-37.444-17.946-4.0713-19.793 27.134-182.59 29.267-189.98-4.7411-8.958-29.531-15.826-33.772-1.1362l-7.9128-2.1202c18.514-34.603 53.838-9.3127 69.663-5.0722z"
     display="none" />
  <path
     id="path4232-33-2"
     d="m289.02 183.26c-26.427 32.483-124.22 164.54-147.96 158.17l-15.826-4.2405 12.153-12.569 7.9128 2.1202c15.826 4.2405 123.65-133.04 140.05-160.3 12.573-20.906 3.6724 16.81 3.6724 16.81z"
     display="none" />
  <path
     id="path4234-6-1"
     d="m226.13 253.45 47.477 12.721-4.2405 14.689-55.39-14.842z"
     display="none" />
  <path
     inkscape:connector-curvature="0"
     style="fill:#77a8da"
     id="rect2986"
     d="m 25.999,-0.0015 c -14.397,0 -26,11.603 -26,26 l 0,460 c 0,14.397 11.603,26 26,26 l 460,0 c 14.397,0 26,-11.603 26,-26 l 0,-460 c 0,-14.397 -11.603,-26 -26,-26 l -460,0 z" />
  <path
     inkscape:connector-curvature="0"
     style="fill:#3f709f"
     id="path8695"
     d="m 25.999,-0.0015 c -14.397,0 -26,11.603 -26,26 l 0,62.533 c 32.673,55.632 65.319,111.28 97.859,166.99 l 82.751,-135.87 331.39,0 0,-93.65 c 0,-14.397 -11.6,-26 -26,-26 l -460,0 z" />
  <path
     inkscape:connector-curvature="0"
     style="fill:#c4dbef"
     id="path8697"
     d="m 346.339,119.5185 0,72.643 34.63,208.24 -70.77,111.6 175.8,0 c 14.397,0 26,-11.603 26,-26 l 0,-366.47 -165.66,0 -0.004,-0.01 z" />
  <path
     inkscape:connector-curvature="0"
     style="fill:#5287c4"
     id="path17014"
     d="m 442.609,267.8985 c 0,96.479 -78.217,174.7 -174.7,174.7 -96.479,0 -174.7,-78.217 -174.7,-174.7 0,-96.479 78.217,-174.7 174.7,-174.7 96.479,0 174.7,78.217 174.7,174.7" />
  <path
     inkscape:connector-curvature="0"
     style="opacity:0.25"
     id="path8701"
     d="m 267.909,139.8785 c -70.689,0 -128.01,57.319 -128.01,128.02 0,35.345 14.319,67.364 37.482,90.531 l 153.56,153.57 155.06,0 c 14.397,0 26,-11.603 26,-26 l 0,-155.01 -153.57,-153.61 c -23.164,-23.164 -55.189,-37.482 -90.533,-37.482 l 0.0137,-0.0137 z" />
  <path
     inkscape:connector-curvature="0"
     style="fill:#ffffff"
     id="path8703"
     d="m 395.909,267.8985 c 0,70.689 -57.309,128 -128,128 -70.689,0 -128,-57.309 -128,-128 0,-70.689 57.309,-128 128,-128 70.689,0 128,57.309 128,128" />
  <path
     inkscape:connector-curvature="0"
     style="fill:#cd1d31"
     id="path8705"
     d="m 511.999,186.1585 -329.5,325.84 183.15,0 146.35,-146.33 0,-179.51 z" />
  <path
     inkscape:connector-curvature="0"
     style="font-size:medium;line-height:125%;font-family:Sans;letter-spacing:0;word-spacing:0;fill:#ffffff"
     d="m 431.73047,306.74805 -6.89649,6.89648 26.50586,63.05274 6.29102,-6.29297 -7.94336,-18.24219 20.40234,-20.40234 18.21094,7.97656 6.19531,-6.19727 -62.76562,-26.79101 z m 1.04883,8.10547 3.49609,1.77929 c 2.4365,1.25004 4.68315,2.30907 6.73828,3.17774 l 20.5293,9.02539 -16.74805,16.74804 -8.99414,-20.43359 c -1.71615,-3.79247 -3.18913,-6.8329 -4.41797,-9.12109 l -0.60351,-1.17578 z m -23.04102,13.88671 -36.80078,36.80274 4.95703,4.95703 15.38086,-15.38086 39.82227,39.82031 6.03711,-6.03906 -39.82032,-39.82031 15.38282,-15.38086 -4.95899,-4.95899 z m -42.42578,42.42774 -33.97461,33.97265 44.7793,44.7793 35.27539,-35.27734 -4.95703,-4.95703 -29.20703,29.20703 -15.60352,-15.60547 25.99609,-25.99609 -4.89453,-4.89454 -25.99609,25.9961 -14.36328,-14.36328 27.90234,-27.9043 -4.95703,-4.95703 z m -44.18555,51.84765 c -5.0893,-0.0197 -10.75262,3.09052 -16.99218,9.33008 l -16.27149,16.27149 44.77734,44.77734 18.17969,-18.17773 c 5.16962,-5.16962 8.10356,-10.30801 8.80274,-15.41407 0.67798,-5.12724 -0.97389,-9.68286 -4.95703,-13.66601 -2.98736,-2.98735 -6.41966,-4.49052 -10.29688,-4.51172 -3.8984,-0.0424 -7.83912,1.50496 -11.82226,4.64062 2.09751,-3.32635 2.98577,-6.63203 2.66796,-9.91601 -0.3178,-3.28398 -1.80085,-6.25007 -4.44922,-8.89844 -2.94366,-2.94366 -6.15652,-4.4221 -9.63867,-4.43555 z m -1.39843,8.39063 c 1.96641,0.10726 3.85453,1.06547 5.66601,2.87695 2.52125,2.52125 3.5923,5.20196 3.21094,8.04102 -0.38137,2.79667 -2.19394,5.81503 -5.43555,9.05664 l -10.20117,10.20117 -14.17383,-14.17383 10.20117,-10.20117 c 3.13568,-3.13567 6.0495,-5.01057 8.74024,-5.625 0.67268,-0.1536 1.33671,-0.21153 1.99219,-0.17578 z m 20.7871,17.10742 c 2.71765,-0.12108 5.23101,0.9732 7.53907,3.28125 2.73312,2.73312 3.94085,5.63493 3.62304,8.70703 -0.3178,3.07211 -2.33134,6.46221 -6.03906,10.16993 l -11.78906,11.79101 -16.14453,-16.14453 11.3125,-11.31445 c 4.17118,-4.17118 8.00393,-6.33456 11.49804,-6.49024 z"
     id="path3454" />
</svg>
