<?xml version="1.0" encoding="UTF-8" standalone="no"?>
<!-- Created with Inkscape (http://www.inkscape.org/) -->

<svg
   xmlns:dc="http://purl.org/dc/elements/1.1/"
   xmlns:cc="http://creativecommons.org/ns#"
   xmlns:rdf="http://www.w3.org/1999/02/22-rdf-syntax-ns#"
   xmlns:svg="http://www.w3.org/2000/svg"
   xmlns="http://www.w3.org/2000/svg"
   xmlns:sodipodi="http://sodipodi.sourceforge.net/DTD/sodipodi-0.dtd"
   xmlns:inkscape="http://www.inkscape.org/namespaces/inkscape"
   id="svg2"
   height="100%"
   width="100%"
   version="1.1"
   viewBox="0 0 512 512"
   inkscape:version="0.91 r13725"
   sodipodi:docname="cmplayer.svg">
  <defs
     id="defs38" />
  <sodipodi:namedview
     pagecolor="#ffffff"
     bordercolor="#666666"
     borderopacity="1"
     objecttolerance="10"
     gridtolerance="10"
     guidetolerance="10"
     inkscape:pageopacity="0"
     inkscape:pageshadow="2"
     inkscape:window-width="640"
     inkscape:window-height="480"
     id="namedview36"
     showgrid="false"
     inkscape:zoom="0.5546875"
     inkscape:cx="36.056338"
     inkscape:cy="240.67606"
     inkscape:current-layer="svg2" />
  <metadata
     id="metadata72">
    <rdf:RDF>
      <cc:Work
         rdf:about="">
        <dc:format>image/svg+xml</dc:format>
        <dc:type
           rdf:resource="http://purl.org/dc/dcmitype/StillImage" />
      </cc:Work>
    </rdf:RDF>
  </metadata>
  <rect
     style="fill:#5c805a"
     id="rect4"
     rx="25.988001"
     height="512"
     width="512"
     y="1.3378906e-06"
     x="0" />
  <path
     inkscape:connector-curvature="0"
     style="fill-opacity:0.23500001"
     id="path6"
     d="m 376.78,93.84001 c -40.31,7.718 -57.54,50.56 -79.16,80.59 -19.465,21.426 -22.742,67.25 -46.844,76.03 -32.19,-15.241 -58.21,-41.59 -91.94,-54.969 -32.57,-18.319 -90.18,-42.947 -109.59,5.406 -12.452,30.648 -9.608,65.907 -1.688,97.16 13.02,14.903 1.96,1.646 43.906,49.34 -12.594,-5.319 -43.749,-28.676 -24.781,3.406 20.16,54.937 66.5,81.5 103.94,123.75 12.594,12.428 25.14,24.917 37.656,37.438 l 277.72,0 c 14.397,0 26,-11.603 26,-26 l 0,-278.04 c -33.92,-33.94 -67.91,-67.79 -102.26,-101.25 -9.39,-7.358 -20.87,-12.68 -32.97,-12.874 m -115.44,157.94 c 0.786,2.278 -2.233,0.02 0,0 m 1.5,1.5 c 0.786,2.278 -2.233,0.02 0,0 m 1.406,1.563 c 0.775,2.054 -2,0.037 0,0 m 1.563,1.406 c 0.825,2.303 -2.253,-0.01 0,0" />
  <g
     style="fill:#ffffff"
     transform="matrix(2.7547914,-0.73816699,0.73816699,2.7547914,-3027.7021,-1052.9478)"
     id="g56">
    <path
       d="m 993.99,200.87 c 23.265,-13.184 26.537,-13.409 38.39,-19.19 18.63,-5.558 23.474,0.302 35.86,14.647 -1.52,-13.244 -3.111,-27.37 -13.13,-36.11 -7.969,-5.898 -12.709,-4.083 -21.971,1.515 -15.229,10.829 -27.929,24.558 -39.14,39.14"
       transform="translate(0,540.36)"
       id="path58"
       inkscape:connector-curvature="0" />
    <path
       d="m 992.73,741.24 c -23.265,-13.184 -26.537,-13.409 -38.39,-19.19 -18.63,-5.558 -23.474,0.302 -35.86,14.647 1.52,-13.244 3.111,-27.37 13.13,-36.11 7.969,-5.898 12.709,-4.083 21.971,1.515 15.229,10.829 27.929,24.558 39.14,39.14"
       id="path60"
       inkscape:connector-curvature="0" />
    <path
       d="m 993.99,741.38 c 23.265,13.184 26.537,13.409 38.39,19.19 18.63,5.558 23.474,-0.302 35.86,-14.647 -1.52,13.244 -3.111,27.37 -13.13,36.11 -7.969,5.898 -12.709,4.083 -21.971,-1.515 -15.229,-10.829 -27.929,-24.558 -39.14,-39.14"
       id="path62"
       inkscape:connector-curvature="0" />
    <path
       d="m 992.73,741.38 c -23.265,13.184 -26.537,13.409 -38.39,19.19 -18.63,5.558 -23.474,-0.302 -35.86,-14.647 1.52,13.244 3.111,27.37 13.13,36.11 7.969,5.898 12.709,4.083 21.971,-1.515 15.229,-10.829 27.929,-24.558 39.14,-39.14"
       id="path64"
       inkscape:connector-curvature="0" />
  </g>
  <path
     d="m 261.59776,254.49563 c 0.82984,3.09691 -1.00803,6.28026 -4.10494,7.1101 -3.09691,0.82984 -6.28026,-1.00804 -7.1101,-4.10494 -0.82984,-3.09691 1.00804,-6.28026 4.10495,-7.1101 3.0969,-0.82984 6.28025,1.00804 7.11009,4.10494"
     id="path66"
     inkscape:connector-curvature="0"
     style="fill:#ffffff;fill-rule:evenodd" />
</svg>
