<?xml version="1.0" encoding="UTF-8" standalone="no"?>
<svg
   xmlns:dc="http://purl.org/dc/elements/1.1/"
   xmlns:cc="http://creativecommons.org/ns#"
   xmlns:rdf="http://www.w3.org/1999/02/22-rdf-syntax-ns#"
   xmlns:svg="http://www.w3.org/2000/svg"
   xmlns="http://www.w3.org/2000/svg"
   xmlns:sodipodi="http://sodipodi.sourceforge.net/DTD/sodipodi-0.dtd"
   xmlns:inkscape="http://www.inkscape.org/namespaces/inkscape"
   viewBox="0 0 512 512"
   id="svg2"
   version="1.1"
   inkscape:version="0.91+devel r13804 custom"
   sodipodi:docname="cnn.svg">
  <metadata
     id="metadata7812">
    <rdf:RDF>
      <cc:Work
         rdf:about="">
        <dc:format>image/svg+xml</dc:format>
        <dc:type
           rdf:resource="http://purl.org/dc/dcmitype/StillImage" />
      </cc:Work>
    </rdf:RDF>
  </metadata>
  <defs
     id="defs7810" />
  <sodipodi:namedview
     pagecolor="#ffffff"
     bordercolor="#666666"
     borderopacity="1"
     objecttolerance="10"
     gridtolerance="10"
     guidetolerance="10"
     inkscape:pageopacity="0"
     inkscape:pageshadow="2"
     inkscape:window-width="1366"
     inkscape:window-height="709"
     id="namedview7808"
     showgrid="false"
     inkscape:zoom="0.4609375"
     inkscape:cx="-8.6779661"
     inkscape:cy="237.55932"
     inkscape:window-x="-2"
     inkscape:window-y="-3"
     inkscape:window-maximized="1"
     inkscape:current-layer="svg2" />
  <g
     id="g11161"
     transform="translate(314.57627,-279.86441)">
    <path
       id="path7756"
       d="m -288.58127,279.86091 c -14.397,0 -26,11.603 -26,26 l 0,460 c 0,14.397 11.603,26 26,26 l 460,0 c 14.397,0 26,-11.603 26,-26 l 0,-460 c 0,-14.397 -11.603,-26 -26,-26 l -460,0"
       style="fill:#d23638"
       inkscape:connector-curvature="0" />
    <path
       id="path7804"
       d="m -138.87127,433.71091 -28.771,1.129 c -39.5,1.554 -56.09,7.648 -77.59,28.508 -38.453,37.3 -37.13,105.06 0.021,142.21 l 186.309999,186.31 230.330001,0 c 14.397,0 26,-11.603 26,-26 l 0,-290.59 -41,-41 -23.884,0 0,6.496 -6.514,-6.514 -23.884,0 0,46.684 c 0,7.01 -0.068,13.6 -0.182,19.58 l -55.938001,-55.938 c -8.22,-8.22 -15.471,-10.321 -25.74,-10.313 -12.7920002,0.01 -22.0900002,5.289 -28.9960002,16.469 -4.6169998,7.469 -5.2039998,11.487 -6.2869998,43.04 l -0.137,3.951 -51.25,-51.25 c -2.516,-2.516 -5.05,-4.349 -8.416,-6.635 -6.183,-4.192 -10.975,-5.574 -19.318,-5.568 -13.009999,0.009 -21.875999,4.686 -28.909999,15.271 l -15.838,-15.838"
       style="opacity:0.25"
       inkscape:connector-curvature="0" />
    <path
       id="path7806"
       d="m -2.7712712,636.18091 c -12.9959998,-3.901 -20.7039998,-12.978 -44.2099998,-52.03 -12.926,-21.487 -24.17,-39.08 -24.986,-39.1 -0.814,-0.017 -1.791,15.531 -2.172,34.558 -0.624,31.16 -1.146,35.2 -5.263,40.711 -9.543,12.786 -16.14,14.737 -52.539999,15.544 -54.18,1.207 -79.59,-4.174 -103.56,-21.936 -46.39,-34.37 -51.3,-110.27 -9.736,-150.59 21.504,-20.859 38.09,-26.954 77.59,-28.508 l 28.77,-1.128 0,23.936 -27.684,0.925 c -22.549,0.753 -29.664,1.816 -38.37,5.726 -17.244,7.753 -28.47,18.413 -36.434,34.596 -6.664,13.548 -7.164,16.09 -7.151,36.31 0.01,17.656 0.895,23.656 4.691,31.898 6.619,14.366 20.854,28.92 35.16,35.94 12.01,5.899 13.12,6.03 57.5,6.718 40.444,0.628 45.69,0.304 49.4,-3.051 3.910999,-3.539 4.146999,-7.563 4.146999,-70.6 0,-69.13 0.664,-74.22 8.57,-65.732 2.085,2.235 22.13,33.643 44.551,69.801 22.418,36.16 42.7049998,67.11 45.08999981,68.774 2.38399999,1.67 5.93299999,2.485 7.88499999,1.811 8.6510002,-2.986 8.9790002,-5.708 8.9790002,-74.73 0,-67.38 0.739,-73.79 7.685,-66.737 1.61,1.634 21.17,32.28 43.46,68.11 22.296,35.826 42.040001,66.849 43.886001,68.939 4.549,5.16 14.942,4.932 17.797,-0.4 1.438,-2.687 2.248,-34.37 2.248,-87.94 l 0,-83.74 23.884,0 0,89.23 c 0,78.863 -0.422,90.13 -3.626,96.88 -9.21,19.408 -37.622,23.12 -55.570001,7.246 -3.864,-3.417 -17.287,-23.369 -29.83,-44.34 -12.539,-20.967 -23.532,-38.16 -24.427,-38.21 -0.896,-0.046 -1.629,15.321 -1.629,34.15 0,40.29 -1.929,46.29 -17.448,54.24 -9.955,5.105 -16.4140002,5.753 -26.6610002,2.678 m -190.2099988,-35.979 c -31.441,-8.454 -49.16,-32.897 -48.772,-67.3 0.313,-28.04 16.62,-52.4 41.24,-61.61 9.41,-3.521 16.998,-4.437 36.748,-4.437 l 24.889,0 0,23.884 -21.782,0 c -14.761,0 -24.385,1.086 -29.856,3.367 -28.634,11.942 -36.903,48.43 -15.955,70.4 10.333,10.84 25.2,15.263 51.16,15.219 10.83,-0.017 20.826,-0.756 22.21,-1.639 1.787,-1.136 2.739,-18.752 3.256,-60.22 0.718,-57.44 0.836,-58.782 5.933,-66.977 7.17,-11.534 16.236,-16.586 29.778999,-16.595 8.343,-0.006 13.13,1.376 19.318,5.568 11.417,7.753 13.258,10.307 37.3,51.895 l 21.306,36.849 1.195,-34.811 c 1.083,-31.558 1.67,-35.574 6.2869998,-43.04 6.91,-11.18 16.204,-16.458 28.9960002,-16.468 20.64,-0.015 29.09,8.481 57.711,58.07 11.201,19.408 21.22,35.28 22.256001,35.28 1.041,0 1.892,-21.01 1.892,-46.684 l 0,-46.684 23.884,0 -0.032,81.967 c -0.022,45.08 -0.886,83.31 -1.929,84.96 -1.042,1.646 -2.883,2.381 -4.091,1.635 -1.208,-0.747 -20.519001,-30.921 -42.915001,-67.04 -22.396,-36.13 -42.692,-67.887 -45.11,-70.57 -4.76,-5.299 -14.209,-6.469 -18.398,-2.28 -1.911,1.911 -2.615,20.279 -2.639,68.939 -0.022,36.483 -0.886,67.68 -1.9280002,69.33 -1.042,1.646 -2.906,2.368 -4.141,1.604 -1.235,-0.762 -21.6179998,-32.65 -45.2999998,-70.866 -41.41,-66.836 -46.44,-73.41 -54.995,-71.893 -8.142999,1.44 -8.684999,5.893 -8.684999,71.4 0,39.817 -0.845,65.36 -2.248,67.981 -2.09,3.905 -4.801,4.19 -38.546,4.057 -24.542,-0.096 -40.1,-1.168 -48.06,-3.307"
       style="fill:#ffffff"
       inkscape:connector-curvature="0" />
  </g>
</svg>
