<?xml version="1.0" encoding="UTF-8" standalone="no"?>
<!-- Created with Inkscape (http://www.inkscape.org/) -->

<svg
   xmlns:dc="http://purl.org/dc/elements/1.1/"
   xmlns:cc="http://creativecommons.org/ns#"
   xmlns:rdf="http://www.w3.org/1999/02/22-rdf-syntax-ns#"
   xmlns:svg="http://www.w3.org/2000/svg"
   xmlns="http://www.w3.org/2000/svg"
   xmlns:sodipodi="http://sodipodi.sourceforge.net/DTD/sodipodi-0.dtd"
   xmlns:inkscape="http://www.inkscape.org/namespaces/inkscape"
   id="svg2"
   height="100%"
   width="100%"
   version="1.1"
   viewBox="0 0 512 512"
   inkscape:version="0.91 r13725"
   sodipodi:docname="computer.svg">
  <defs
     id="defs39" />
  <sodipodi:namedview
     pagecolor="#ffffff"
     bordercolor="#666666"
     borderopacity="1"
     objecttolerance="10"
     gridtolerance="10"
     guidetolerance="10"
     inkscape:pageopacity="0"
     inkscape:pageshadow="2"
     inkscape:window-width="640"
     inkscape:window-height="480"
     id="namedview37"
     showgrid="false"
     inkscape:zoom="0.5546875"
     inkscape:cx="36.056338"
     inkscape:cy="240.67606"
     inkscape:current-layer="svg2" />
  <metadata
     id="metadata74">
    <rdf:RDF>
      <cc:Work
         rdf:about="">
        <dc:format>image/svg+xml</dc:format>
        <dc:type
           rdf:resource="http://purl.org/dc/dcmitype/StillImage" />
      </cc:Work>
    </rdf:RDF>
  </metadata>
  <rect
     style="fill:#0078ad"
     id="rect4"
     rx="25.988001"
     height="512"
     width="512"
     y="3.6328124e-06"
     x="-0.002497412" />
  <path
     inkscape:connector-curvature="0"
     style="opacity:0.23000004;fill-rule:evenodd"
     id="path6"
     d="m 387.65749,59.00001 c -16.222,-0.136 -32.818,1.363 -48.5,0.344 l -226.72,0 c -43.524,-1.281 -77.2,41.681 -71.44,83.53 0.857,53.01 -1.799,106.24 1.531,159.09 8.626,34.705 41.09,54.33 63.53,79.84 15.878,15.914 31.777,31.806 47.688,47.688 -27.52,-0.911 -11.632,26.771 2.406,35.06 16.184,15.779 32.32,31.594 48.44,47.44 l 281.41,0 c 14.397,0 26,-11.603 26,-26 l 0,-343.62 c -22.1,-22.05 -44.23,-44.06 -66.41,-66.03 -16.857,-14.299 -37.08,-17.17 -57.938,-17.344" />
  <g
     id="g54"
     transform="matrix(1.446,0,0,1.446,670.79749,-25.16999)">
    <path
       style="fill:#0078ad;fill-rule:evenodd"
       inkscape:connector-curvature="0"
       id="path56"
       d="m -383.33,77.38 c -17.762,0 -32.02,14.1 -32.02,31.672 l 0,104.05 c 0,17.569 14.257,31.672 32.02,31.672 l 154.93,0 c 0.914,-0.709 2.056,-1.178 3.308,-1.178 1.252,0 2.261,0.469 3.175,1.178 l 31.49,0 c 17.762,0 32.02,-14.1 32.02,-31.672 l 0,-104.05 c 0,-17.569 -14.257,-31.672 -32.02,-31.672 l -192.91,0" />
    <g
       style="fill:#ffffff"
       id="g58"
       transform="translate(-542.87,-61.55)">
      <path
         style="fill-opacity:0.07900002"
         inkscape:connector-curvature="0"
         id="path60"
         d="m 159.53,138.94 c -17.762,0 -32,14.09 -32,31.656 l 0,104.06 c 0,17.569 14.251,32.34 32,31.656 l 43.44,-1.667 c 63.747,-36.02 43.63,-94.69 93.87,-165.71 z" />
      <path
         inkscape:connector-curvature="0"
         id="path62"
         style="color:#000000"
         d="m 156.72,120 c -27.13,0 -49.41,22.28 -49.41,49.41 l 0,108.28 c 0,27.13 22.28,49.41 49.41,49.41 l 198.56,0 c 27.13,0 49.41,-22.28 49.41,-49.41 l 0,-108.28 C 404.69,142.28 382.41,120 355.28,120 l -198.56,0 m 3.938,24.19 190.69,0 c 15.53,0 27.938,12.309 27.938,27.813 l 0,103.09 c 0,15.504 -12.433,27.938 -27.938,27.938 l -190.69,0 c -15.503,0 -27.938,-12.434 -27.938,-27.938 l 0,-103.09 c 0,-15.504 12.409,-27.813 27.938,-27.813 M 318.158,306 c 5.155,0 9.313,4.157 9.313,9.313 0,5.155 -4.157,9.344 -9.313,9.344 -5.155,0 -9.344,-4.189 -9.344,-9.344 0,-5.155 4.189,-9.313 9.344,-9.313" />
      <g
         style="fill-rule:evenodd"
         id="g64">
        <rect
           id="rect66"
           rx="11.08"
           height="46.169998"
           width="50.169998"
           y="340.16"
           x="229.14" />
        <rect
           id="rect68"
           rx="8"
           height="16"
           width="160.02"
           y="376"
           x="173.8" />
      </g>
    </g>
  </g>
</svg>
