<?xml version="1.0" encoding="UTF-8" standalone="no"?>
<svg
   xmlns:dc="http://purl.org/dc/elements/1.1/"
   xmlns:cc="http://creativecommons.org/ns#"
   xmlns:rdf="http://www.w3.org/1999/02/22-rdf-syntax-ns#"
   xmlns:svg="http://www.w3.org/2000/svg"
   xmlns="http://www.w3.org/2000/svg"
   xmlns:sodipodi="http://sodipodi.sourceforge.net/DTD/sodipodi-0.dtd"
   xmlns:inkscape="http://www.inkscape.org/namespaces/inkscape"
   viewBox="0 0 512 512"
   id="svg2"
   version="1.1"
   inkscape:version="0.91 r13725"
   sodipodi:docname="copyq.svg">
  <metadata
     id="metadata2408">
    <rdf:RDF>
      <cc:Work
         rdf:about="">
        <dc:format>image/svg+xml</dc:format>
        <dc:type
           rdf:resource="http://purl.org/dc/dcmitype/StillImage" />
      </cc:Work>
    </rdf:RDF>
  </metadata>
  <defs
     id="defs2406" />
  <sodipodi:namedview
     pagecolor="#ffffff"
     bordercolor="#666666"
     borderopacity="1"
     objecttolerance="10"
     gridtolerance="10"
     guidetolerance="10"
     inkscape:pageopacity="0"
     inkscape:pageshadow="2"
     inkscape:window-width="640"
     inkscape:window-height="480"
     id="namedview2404"
     showgrid="false"
     inkscape:zoom="0.5546875"
     inkscape:cx="36.056338"
     inkscape:cy="240.67606"
     inkscape:current-layer="svg2" />
  <path
     inkscape:connector-curvature="0"
     style="fill:#3099b8"
     d="M 26,0 C 11.603,0 0,11.603 0,26 l 0,460 c 0,14.397 11.603,26 26,26 l 460,0 c 14.397,0 26,-11.603 26,-26 L 512,26 C 512,11.603 500.397,0 486,0 L 26,0"
     id="path674" />
  <path
     inkscape:connector-curvature="0"
     style="opacity:0.25"
     d="m 356.22,41 c -37.735,0 -71.43,18.06 -92.38,45.912 7.159,9.856 12.864,20.832 16.871,32.59 l -43.16,-43.16 C 216.719,55.51 187.835,42.608 155.921,42.608 c -63.47,0 -114.92,51.03 -114.92,113.97 0,31.3 12.722,59.66 33.32,80.26 l 85.65,85.65 c -24.959,53.863 -1.573,122.62 14.561,148.5 l 41,41 270.46,0 c 14.397,0 26,-11.603 26,-26 l 0,-336.91 -74.44,-74.44 c -20.772,-20.772 -49.53,-33.65 -81.34,-33.65"
     id="path2400" />
  <path
     inkscape:connector-curvature="0"
     style="fill:#ffffff"
     d="m 356.22,41 c -37.735,0 -71.43,18.06 -92.38,45.911 14.847,20.441 23.516,45.671 23.516,72.79 0,14.448 -2.713,27.972 -7.279,40.872 26.906,20.751 50.606,47.42 74.47,73.35 61.18,-2.564 116.46,-57.39 116.46,-118.7 0,-62.947 -51.31,-114.22 -114.78,-114.22 m -200.3,1.61 c -63.47,0 -114.92,51.03 -114.92,113.97 0,62.947 51.45,113.97 114.92,113.97 23.465,0 45.29,-6.995 63.48,-18.966 l 132.77,219.41 c 17.778,-7.77 45.21,-116.46 12.04,-159.64 -33.59,-53.17 -67.36,-80.71 -101.1,-113.87 4.935,-12.708 7.769,-26.474 7.769,-40.907 0,-62.947 -51.48,-113.97 -114.95,-113.97 z m 203.66,67.817 c 24.591,0 44.23,19.641 44.23,44.23 0,24.591 -19.641,44.792 -44.23,44.792 -24.591,0 -44.792,-20.2 -44.792,-44.792 0,-24.591 20.2,-44.23 44.792,-44.23 m -201.35,2.45 c 24.744,0 44.722,19.832 44.722,44.37 0,24.54 -19.977,44.34 -44.722,44.34 -24.744,0 -45.07,-19.797 -45.07,-44.34 0,-24.54 20.327,-44.37 45.07,-44.37 m 47.661,161.25 c -88.05,49.21 -53.1,161.98 -31.354,196.87 l 73.14,-124.33 -41.782,-72.54"
     id="path2402" />
</svg>
