<?xml version="1.0" encoding="UTF-8" standalone="no"?>
<svg
   xmlns:dc="http://purl.org/dc/elements/1.1/"
   xmlns:cc="http://creativecommons.org/ns#"
   xmlns:rdf="http://www.w3.org/1999/02/22-rdf-syntax-ns#"
   xmlns:svg="http://www.w3.org/2000/svg"
   xmlns="http://www.w3.org/2000/svg"
   xmlns:sodipodi="http://sodipodi.sourceforge.net/DTD/sodipodi-0.dtd"
   xmlns:inkscape="http://www.inkscape.org/namespaces/inkscape"
   viewBox="0 0 512 512"
   id="svg2"
   version="1.1"
   inkscape:version="0.91+devel r13804 custom"
   sodipodi:docname="crayon-physics-deluxe.svg">
  <metadata
     id="metadata4844">
    <rdf:RDF>
      <cc:Work
         rdf:about="">
        <dc:format>image/svg+xml</dc:format>
        <dc:type
           rdf:resource="http://purl.org/dc/dcmitype/StillImage" />
      </cc:Work>
    </rdf:RDF>
  </metadata>
  <defs
     id="defs4842" />
  <sodipodi:namedview
     pagecolor="#ffffff"
     bordercolor="#666666"
     borderopacity="1"
     objecttolerance="10"
     gridtolerance="10"
     guidetolerance="10"
     inkscape:pageopacity="0"
     inkscape:pageshadow="2"
     inkscape:window-width="1366"
     inkscape:window-height="709"
     id="namedview4840"
     showgrid="false"
     inkscape:zoom="0.4609375"
     inkscape:cx="-8.6779661"
     inkscape:cy="237.55932"
     inkscape:window-x="-2"
     inkscape:window-y="-3"
     inkscape:window-maximized="1"
     inkscape:current-layer="svg2" />
  <g
     id="g8193"
     transform="translate(318.91525,-318.91525)">
    <path
       id="path3528"
       d="m -292.91525,318.91175 c -14.397,0 -26,11.603 -26,26 l 0,460 c 0,14.397 11.603,26 26,26 l 460,0 c 14.397,0 26,-11.603 26,-26 l 0,-460 c 0,-14.397 -11.603,-26 -26,-26 l -460,0"
       style="fill:#fdd835"
       inkscape:connector-curvature="0" />
    <path
       id="path4836"
       d="m -62.515254,359.91175 c -0.635,0 -1.269,0.19 -1.904,0.508 l 34.26,34.26 0.006,0.012 -34.27,-34.27 c -1.968,0.063 -3.873,0.763 -5.586,1.842 l 0.004,0.004 c -0.005,0.005 -0.189,0.189 -0.252,0.377 l 48.11,48.11 c 0.001,0.003 0.003,0.005 0.004,0.008 l -48.12,-48.12 c -5.078,2.095 -8.251,5.459 -10.727,8.443 l 0.002,0.002 c -3.617,4.378 -6.852,9.455 -10.09,15.166 l 201.310004,201.31 c -0.002,0.002 -0.002,0.004 -0.004,0.006 l -201.320004,-201.32 c -6.855,11.615 -13.710996,26.34 -20.501996,40.939 l 0.002,0.002 c -6.982,14.851 -13.964,29.767 -19.676,41.13 l 0.004,0.004 c -2.792,5.582 -5.455,10.342 -7.486,13.768 l -0.002,-0.002 c -0.444,0.825 -1.079,1.333 -1.523,2.031 l 210.399996,210.4 c 0,0.003 0.002,0.005 0.002,0.008 l -210.399996,-210.4 c -0.698,0.19 -1.398,0.57 -2.477,0.697 l 0.002,0.002 c -3.554,0.825 -8.693,2.159 -14.785,3.301 -12.185,2.095 -27.861,3.934 -43.16,6.283 l -0.004,-0.004 c -15.677,2.539 -30.847,5.268 -43.541,8.188 l 0,0.002 c -6.157,1.333 -11.679,2.729 -16.629,4.76 -2.666,1.333 -5.079,2.286 -7.744,4.254 l 0.004,0.006 237.829996,237.82 -0.012,-0.006 -237.819996,-237.82 c -2.601,1.967 -6.155,4.696 -8.06,10.912 l -0.002,-0.002 c -1.968,6.411 -0.762,10.917 0.254,14.217 l 201.549996,201.55 c -0.002,10e-4 -0.004,10e-4 -0.006,0.002 l -201.549996,-201.55 c 1.142,3.427 2.222,5.648 3.555,8.188 l 194.949996,194.95 c -10e-4,0.001 -0.003,0.001 -0.004,0.002 l -194.949996,-194.95 c 2.793,4.76 6.664,9.584 10.854,14.471 l 0.012,0.012 c 8.377,10.152 19.734,21.7 30.773,33.31 11.488,11.552 22.532,22.596 31.355,31.545 l 0.023,0.023 c 4.246,4.689 8.109,8.871 10.328,11.787 0.693,0.821 0.883,1.33 1.326,2.152 l 104.699996,104.7 -0.002,0.002 -104.699996,-104.7 0,2.285 c -0.127,3.935 -0.699,9.328 -1.461,15.609 l 93.799996,93.8 -0.002,0.002 -93.799996,-93.79 c -2.031,12.758 -4.824,29.07 -7.553,45.25 l 0.004,0.004 c -2.666,16.311 -5.079,32.621 -6.285,45.822 l 0.004,0.004 c -0.635,6.664 -1.142,12.376 -0.635,18.279 l 24.268,24.268 -0.006,0 -24.268,-24.268 c 0.127,2.729 0.636,5.903 1.588,9.01 l 0.006,0.006 c 0.747,2.775 1.853,6.177 5.24,9.564 l 0.059,0.059 c -0.02,-0.02 -0.043,-0.039 -0.063,-0.059 l 46.84,46.84 317.54,0 c 14.397,0 26,-11.603 26,-26 l 0,-243.58 -46.975,-46.975 c 0.051,0.051 0.101,0.108 0.152,0.16 l -0.158,-0.158 c -1.133,-1.133 -2.276,-1.999 -3.299,-2.754 l 5.688,5.688 c 0.003,0.004 0.005,0.008 0.008,0.012 l -5.695,-5.695 c -2.658,-1.962 -5.254,-3.102 -7.723,-4.242 l -0.018,-0.018 c -4.887,-2.031 -10.409,-3.427 -16.82,-4.76 -10.851,-2.547 -23.953004,-4.938 -37.520004,-7.195 l -130.46,-130.46 c 0.046,0.046 0.086,0.093 0.131,0.139 l -0.137,-0.137 c -2.532,-2.532 -6.162,-4.612 -12.566,-4.816 l -0.213,-0.213"
       style="opacity:0.25"
       inkscape:connector-curvature="0" />
    <path
       id="path4838"
       d="m -62.515254,359.91175 c -0.635,0 -1.269,0.19 -1.904,0.508 -1.968,0.063 -3.872,0.762 -5.585,1.841 0,0 -0.19,0.19 -0.254,0.381 -5.078,2.095 -8.251,5.458 -10.727,8.442 -3.618,4.379 -6.855,9.457 -10.09,15.17 -6.855,11.615 -13.709996,26.34 -20.500996,40.939 -6.982,14.852 -13.964,29.768 -19.676,41.13 -2.793,5.585 -5.458,10.346 -7.49,13.773 -0.444,0.825 -1.079,1.333 -1.523,2.031 -0.698,0.19 -1.396,0.571 -2.475,0.698 -3.554,0.825 -8.695,2.158 -14.789,3.3 -12.186,2.095 -27.864,3.935 -43.16,6.284 -15.677,2.539 -30.847,5.268 -43.541,8.188 -6.157,1.333 -11.679,2.729 -16.629,4.76 -2.666,1.333 -5.078,2.285 -7.743,4.253 -2.602,1.968 -6.157,4.697 -8.06,10.917 -1.968,6.411 -0.762,10.917 0.254,14.217 1.142,3.427 2.221,5.649 3.554,8.188 2.793,4.76 6.664,9.584 10.854,14.471 8.378,10.155 19.739,21.707 30.783,33.32 11.488,11.552 22.532,22.596 31.355,31.545 4.253,4.697 8.124,8.886 10.346,11.806 0.698,0.825 0.889,1.333 1.333,2.158 l 0,2.285 c -0.127,3.935 -0.698,9.33 -1.46,15.614 -2.031,12.758 -4.824,29.07 -7.553,45.25 -2.666,16.312 -5.078,32.624 -6.284,45.826 -0.635,6.664 -1.142,12.377 -0.635,18.28 0.127,2.729 0.635,5.903 1.587,9.01 0.889,3.3 2.285,7.49 7.426,11.488 4.951,3.872 9.521,3.999 12.821,3.872 3.11,0 5.649,-0.444 8.315,-1.142 5.332,-1.333 10.409,-3.618 16.439,-6.284 11.742,-5.395 26.02,-12.504 40.05,-20.311 13.9,-7.616 27.545996,-15.741 38.526996,-21.707 5.458,-2.92 10.346,-5.205 13.71,-6.728 0.889,-0.444 1.523,-0.444 2.285,-0.571 0.762,0.127 1.396,0.127 2.221,0.571 3.427,1.46 8.315,3.808 13.773,6.728 10.98,5.966 24.627,13.837 38.7169998,21.707 13.9,7.553 28.1200002,14.916 39.8600002,20.311 6.03,2.666 11.11,4.887 16.439,6.284 2.666,0.698 5.268,1.142 8.315,1.142 3.3,0.19 7.68,0 12.885,-3.872 4.887,-4.062 6.284,-8.188 7.363,-11.488 1.142,-3.3 1.46,-6.284 1.587,-9.01 0.508,-5.712 0,-11.552 -0.635,-18.28 -1.269,-13.392 -3.808,-29.514 -6.284,-45.826 -2.666,-16.312 -5.522,-32.624 -7.49,-45.25 -0.825,-6.347 -1.333,-11.679 -1.587,-15.614 l 0,-2.285 c 0.508,-0.825 0.698,-1.333 1.396,-2.158 2.221,-2.92 6.03,-7.109 10.346,-11.806 8.759,-8.949 19.93,-20.247 31.355004,-31.545 11.11,-11.615 22.342,-23.17 30.847,-33.32 4.126,-4.887 7.934,-9.711 10.79,-14.471 1.333,-2.539 2.602,-4.76 3.554,-8.188 1.206,-3.3 2.221,-7.68 0.444,-14.217 -1.968,-6.22 -5.458,-8.949 -8.124,-10.917 -2.666,-1.968 -5.268,-3.11 -7.743,-4.253 -4.887,-2.031 -10.409,-3.427 -16.82,-4.76 -12.44,-2.92 -27.800004,-5.649 -43.477004,-8.188 -15.55,-2.539 -31.23,-4.189 -43.16,-6.284 -6.093,-1.206 -11.11,-2.285 -14.852,-3.3 -0.889,-0.127 -1.777,-0.508 -2.539,-0.698 -0.508,-0.698 -1.142,-1.206 -1.46,-2.031 -2.031,-3.427 -4.6970002,-8.188 -7.4900002,-13.773 -5.58500004,-11.488 -12.504,-26.467 -19.5489998,-41.13 -6.982,-14.598 -13.773,-29.324 -20.501,-40.939 -3.3,-5.712 -6.664,-10.79 -10.155,-15.17 -3.427,-4.316 -6.03,-10.98 -18.407,-10.98"
       style="fill:#ffffff"
       inkscape:connector-curvature="0" />
  </g>
</svg>
