<?xml version="1.0" encoding="UTF-8" standalone="no"?>
<svg
   xmlns:dc="http://purl.org/dc/elements/1.1/"
   xmlns:cc="http://creativecommons.org/ns#"
   xmlns:rdf="http://www.w3.org/1999/02/22-rdf-syntax-ns#"
   xmlns:svg="http://www.w3.org/2000/svg"
   xmlns="http://www.w3.org/2000/svg"
   xmlns:sodipodi="http://sodipodi.sourceforge.net/DTD/sodipodi-0.dtd"
   xmlns:inkscape="http://www.inkscape.org/namespaces/inkscape"
   viewBox="0 0 512 512"
   id="svg2"
   version="1.1"
   inkscape:version="0.91+devel r13804 custom"
   sodipodi:docname="cxmenu-cxoffice-0-cxreset.svg">
  <metadata
     id="metadata8202">
    <rdf:RDF>
      <cc:Work
         rdf:about="">
        <dc:format>image/svg+xml</dc:format>
        <dc:type
           rdf:resource="http://purl.org/dc/dcmitype/StillImage" />
      </cc:Work>
    </rdf:RDF>
  </metadata>
  <defs
     id="defs8200" />
  <sodipodi:namedview
     pagecolor="#ffffff"
     bordercolor="#666666"
     borderopacity="1"
     objecttolerance="10"
     gridtolerance="10"
     guidetolerance="10"
     inkscape:pageopacity="0"
     inkscape:pageshadow="2"
     inkscape:window-width="1366"
     inkscape:window-height="709"
     id="namedview8198"
     showgrid="false"
     inkscape:zoom="0.4609375"
     inkscape:cx="-8.6779661"
     inkscape:cy="237.55932"
     inkscape:window-x="-2"
     inkscape:window-y="-3"
     inkscape:window-maximized="1"
     inkscape:current-layer="svg2" />
  <g
     id="g11551"
     transform="translate(303.72881,-286.37288)">
    <path
       id="path8146"
       d="m -277.72881,286.37238 c -14.397,0 -26,11.603 -26,26 l 0,460 c 0,14.397 11.603,26 26,26 l 460,0 c 14.397,0 26,-11.603 26,-26 l 0,-460 c 0,-14.397 -11.603,-26 -26,-26 l -460,0"
       style="fill:#ef6a47"
       inkscape:connector-curvature="0" />
    <path
       id="path8194"
       d="m -28.978814,327.37238 c 0.005,0.009 0.009,0.017 0.014,0.025 l -0.018,-0.018 c 0.007,0.009 0.014,0.018 0.021,0.027 12,22.577 22.0500004,43.984 30.1400004,64.32 l 12.6479996,12.648 c -7.1489996,-0.49 -14.12999956,-0.887 -20.9299996,-1.18 -0.809,-0.034 -1.598,-0.078 -2.402,-0.111 -6.7500004,-0.27 -13.3000004,-0.448 -19.6990004,-0.518 -2.375,-0.028 -4.724,-0.039 -7.05,-0.037 l -0.01,-0.01 c -3.04,0.002 -6.06,0.025 -9.02,0.076 -2.332,0.039 -4.631,0.078 -6.912,0.146 -0.318,0.01 -0.646,0.028 -0.963,0.037 -5.069,0.162 -10.01,0.393 -14.82,0.703 -0.835,0.053 -1.649,0.126 -2.477,0.184 -0.652,0.046 -1.313,0.1 -1.959,0.148 -3.715,0.278 -7.344,0.592 -10.902,0.961 -1.662,0.171 -3.29,0.363 -4.916,0.555 -0.601,0.071 -1.214,0.148 -1.811,0.223 -4.142,0.51 -8.205,1.098 -12.119996,1.738 -0.194,0.032 -0.398,0.041 -0.592,0.074 -1.627,0.27 -3.215,0.557 -4.805,0.85 -1.52,0.279 -3.03,0.551 -4.51,0.852 -0.429,0.086 -0.868,0.169 -1.295,0.258 -1.359,0.281 -2.699,0.587 -4.03,0.887 -0.746,0.168 -1.48,0.346 -2.217,0.52 -0.779,0.183 -1.561,0.364 -2.33,0.555 -1.011,0.25 -2,0.515 -2.992,0.775 -0.803,0.211 -1.612,0.409 -2.402,0.627 -0.28,0.077 -0.572,0.143 -0.852,0.223 -1.347,0.377 -2.679,0.786 -3.99,1.184 -1.691,0.513 -3.357,1.042 -4.99,1.59 -0.095,0.032 -0.202,0.041 -0.297,0.074 -1.552,0.523 -3.085,1.071 -4.582,1.625 -0.687,0.254 -1.357,0.517 -2.033,0.777 -0.979,0.377 -1.963,0.753 -2.92,1.145 -0.147,0.06 -0.297,0.125 -0.443,0.186 -1.038,0.429 -2.058,0.885 -3.068,1.33 -1.023,0.452 -2.037,0.9 -3.03,1.367 -0.655,0.309 -1.317,0.608 -1.959,0.924 -0.701,0.344 -1.384,0.72 -2.07,1.072 -0.265,0.136 -0.549,0.268 -0.813,0.406 -0.845,0.442 -1.693,0.912 -2.514,1.367 -1.183,0.659 -2.336,1.309 -3.475,1.996 -0.308,0.185 -0.621,0.368 -0.924,0.555 -1.098,0.677 -2.164,1.405 -3.217,2.107 -0.132,0.089 -0.274,0.168 -0.406,0.258 -1.195,0.807 -2.378,1.634 -3.512,2.477 -0.304,0.226 -0.586,0.475 -0.887,0.703 -0.763,0.58 -1.519,1.142 -2.254,1.738 -0.464,0.376 -0.915,0.763 -1.367,1.145 -0.739,0.623 -1.472,1.246 -2.182,1.887 -0.123,0.111 -0.246,0.221 -0.369,0.332 -1.779,1.626 -3.474,3.329 -5.064,5.063 -0.516,0.562 -1.02,1.128 -1.516,1.701 -0.097,0.112 -0.198,0.22 -0.295,0.332 -0.624,0.731 -1.218,1.47 -1.811,2.219 -0.763,0.963 -1.507,1.926 -2.217,2.92 -0.03,0.043 -0.08,0.069 -0.111,0.111 -0.776,1.089 -1.506,2.199 -2.219,3.326 -0.339,0.536 -0.636,1.083 -0.961,1.627 -0.285,0.478 -0.575,0.958 -0.85,1.441 -0.297,0.524 -0.568,1.059 -0.852,1.59 -0.422,0.79 -0.863,1.559 -1.258,2.365 -0.099,0.202 -0.161,0.424 -0.258,0.627 -0.471,0.986 -0.939,1.983 -1.367,2.994 -0.129,0.304 -0.246,0.618 -0.371,0.924 -0.313,0.769 -0.634,1.545 -0.924,2.328 -0.203,0.55 -0.398,1.107 -0.59,1.664 -0.065,0.188 -0.159,0.365 -0.223,0.555 -0.312,0.928 -0.608,1.861 -0.887,2.809 -1.195,4.045 -2.066,8.25 -2.662,12.641 -0.012,0.06 0.012,0.125 0,0.186 -0.153,1.145 -0.294,2.306 -0.406,3.475 -0.073,0.758 -0.166,1.522 -0.223,2.291 -0.052,0.71 -0.073,1.427 -0.111,2.145 -0.027,0.517 -0.053,1.031 -0.074,1.553 -0.221,5.961 0.046,12.208 0.813,18.74 0.021,0.183 0.052,0.37 0.074,0.555 0.175,1.446 0.368,2.886 0.592,4.361 0.062,0.403 0.119,0.813 0.184,1.219 0.198,1.234 0.398,2.48 0.629,3.732 0.079,0.431 0.177,0.862 0.26,1.295 0.278,1.448 0.565,2.925 0.887,4.398 0.059,0.27 0.123,0.54 0.184,0.813 0.355,1.588 0.741,3.189 1.146,4.807 0.015,0.061 0.021,0.122 0.037,0.184 0.749,2.976 1.592,5.98 2.514,9.05 0.522,1.745 1.085,3.511 1.662,5.287 0.271,0.834 0.531,1.671 0.814,2.512 0.034,0.101 0.077,0.196 0.111,0.297 0.59,1.743 1.205,3.474 1.848,5.248 0.406,1.12 0.831,2.269 1.258,3.4 0.255,0.679 0.513,1.35 0.775,2.033 0.316,0.82 0.633,1.65 0.961,2.477 1.319,3.334 2.72,6.728 4.215,10.164 0.237,0.543 0.462,1.082 0.703,1.627 1.878,4.26 3.877,8.595 6.02,13.01 8.453,17.394 18.995,35.975 31.602,55.777 l 10.27,10.27 c -5.213,0.945 -10.538,1.826 -16,2.627 l -0.037,-0.037 c -5.448,0.798 -11.01,1.526 -16.699,2.182 -8.539,0.982 -17.367,1.817 -26.463,2.477 -9.1,0.659 -18.469,1.14 -28.13,1.479 l 0.037,0.037 -0.037,0 132.309996,132.31 274.470004,0 c 14.397,0 26,-11.603 26,-26 l 0,-274.65 -79.22,-79.22 c -7.374,-1.226 -14.601,-2.389 -21.732,-3.475 -0.659,-0.101 -1.303,-0.196 -1.959,-0.295 -6.465004,-0.975 -12.807004,-1.879 -19.060004,-2.736 -1.268,-0.174 -2.511,-0.348 -3.771,-0.518 -2.179,-0.292 -4.315,-0.574 -6.469,-0.852 -1.554,-0.2 -3.078,-0.397 -4.619,-0.59 -1.825,-0.228 -3.626,-0.447 -5.434,-0.666 -4.96,-0.598 -9.824,-1.14 -14.646,-1.656 l -80.34,-80.34"
       style="opacity:0.25"
       inkscape:connector-curvature="0" />
    <path
       id="path8196"
       d="m -28.978814,327.37238 c 12.01,22.59 22.0600004,44.01 30.1600004,64.35 6.807,0.361 13.7559996,0.816 20.8819996,1.367 -15.0699996,-20.799 -32.09,-42.673 -51.05,-65.71 m -7.281,75.14 c -3.04,0.002 -6.06,0.024 -9.02,0.075 -2.332,0.039 -4.63,0.079 -6.912,0.148 -0.318,0.01 -0.644,0.027 -0.962,0.037 -5.069,0.162 -10.01,0.393 -14.821,0.703 -0.835,0.053 -1.649,0.127 -2.477,0.184 -0.652,0.046 -1.313,0.099 -1.959,0.148 -3.715,0.278 -7.345,0.593 -10.904,0.962 -1.662,0.171 -3.289,0.363 -4.915,0.555 -0.601,0.071 -1.215,0.148 -1.811,0.222 -4.142,0.51 -8.204,1.098 -12.119996,1.737 -0.194,0.032 -0.397,0.041 -0.591,0.075 -1.627,0.27 -3.216,0.558 -4.805,0.85 -1.52,0.279 -3.03,0.55 -4.51,0.85 -0.429,0.086 -0.867,0.17 -1.294,0.259 -1.359,0.281 -2.7,0.588 -4.03,0.887 -0.746,0.168 -1.481,0.344 -2.218,0.518 -0.779,0.183 -1.56,0.364 -2.329,0.555 -1.011,0.25 -2,0.516 -2.994,0.776 -0.803,0.211 -1.612,0.41 -2.402,0.628 -0.28,0.077 -0.571,0.143 -0.85,0.222 -1.347,0.377 -2.68,0.785 -3.992,1.183 -1.691,0.513 -3.357,1.042 -4.99,1.59 -0.095,0.032 -0.201,0.041 -0.296,0.075 -1.552,0.523 -3.086,1.073 -4.583,1.626 -0.687,0.254 -1.357,0.516 -2.033,0.776 -0.979,0.377 -1.963,0.755 -2.92,1.146 -0.147,0.06 -0.297,0.124 -0.444,0.185 -1.038,0.429 -2.058,0.886 -3.068,1.331 -1.023,0.452 -2.037,0.9 -3.03,1.367 -0.655,0.309 -1.316,0.608 -1.959,0.924 -0.701,0.344 -1.384,0.719 -2.07,1.072 -0.265,0.136 -0.55,0.268 -0.814,0.407 -0.845,0.442 -1.692,0.912 -2.513,1.367 -1.183,0.659 -2.336,1.309 -3.475,1.996 -0.308,0.185 -0.621,0.368 -0.924,0.555 -1.098,0.677 -2.163,1.404 -3.216,2.106 -0.132,0.089 -0.274,0.169 -0.407,0.259 -1.195,0.807 -2.377,1.635 -3.512,2.477 -0.304,0.226 -0.587,0.474 -0.887,0.703 -0.763,0.58 -1.52,1.141 -2.254,1.737 -0.464,0.376 -0.915,0.764 -1.367,1.146 -0.739,0.623 -1.471,1.244 -2.181,1.885 -0.123,0.111 -0.247,0.221 -0.37,0.332 -1.779,1.626 -3.472,3.329 -5.063,5.063 -0.516,0.562 -1.019,1.127 -1.515,1.701 -0.097,0.112 -0.199,0.22 -0.296,0.332 -0.624,0.731 -1.218,1.469 -1.811,2.218 -0.763,0.963 -1.508,1.927 -2.218,2.92 -0.03,0.043 -0.08,0.069 -0.111,0.111 -0.776,1.089 -1.504,2.2 -2.218,3.327 -0.339,0.536 -0.636,1.082 -0.962,1.626 -0.285,0.478 -0.576,0.958 -0.85,1.442 -0.297,0.524 -0.567,1.059 -0.85,1.59 -0.422,0.79 -0.862,1.559 -1.257,2.365 -0.099,0.202 -0.162,0.425 -0.259,0.628 -0.471,0.986 -0.939,1.982 -1.367,2.993 -0.129,0.304 -0.245,0.617 -0.37,0.924 -0.313,0.769 -0.634,1.546 -0.924,2.329 -0.203,0.55 -0.4,1.106 -0.591,1.663 -0.065,0.188 -0.159,0.365 -0.222,0.555 -0.312,0.928 -0.608,1.862 -0.887,2.809 -1.195,4.045 -2.065,8.251 -2.661,12.641 -0.012,0.06 0.012,0.124 0,0.185 -0.153,1.145 -0.294,2.306 -0.407,3.475 -0.073,0.758 -0.166,1.523 -0.222,2.292 -0.052,0.71 -0.073,1.426 -0.111,2.144 -0.027,0.517 -0.054,1.031 -0.075,1.553 -0.221,5.961 0.047,12.207 0.814,18.739 0.021,0.183 0.052,0.37 0.074,0.555 0.175,1.446 0.368,2.887 0.591,4.362 0.062,0.403 0.12,0.814 0.184,1.219 0.198,1.234 0.397,2.48 0.628,3.733 0.079,0.431 0.176,0.861 0.259,1.294 0.278,1.448 0.565,2.925 0.887,4.399 0.059,0.27 0.124,0.542 0.184,0.814 0.355,1.588 0.74,3.187 1.146,4.805 0.015,0.061 0.021,0.123 0.037,0.185 0.749,2.976 1.592,5.98 2.513,9.05 0.522,1.745 1.086,3.509 1.663,5.286 0.271,0.834 0.53,1.672 0.814,2.513 0.034,0.101 0.077,0.195 0.111,0.296 0.59,1.743 1.206,3.475 1.849,5.249 0.406,1.12 0.83,2.268 1.257,3.4 0.255,0.679 0.513,1.349 0.776,2.033 0.316,0.82 0.634,1.65 0.962,2.477 1.319,3.334 2.719,6.729 4.214,10.164 0.237,0.543 0.461,1.081 0.703,1.626 1.878,4.26 3.878,8.595 6.02,13.01 8.453,17.394 18.995,35.975 31.601,55.777 11.875,-1.936 23.08,-4.233 33.596,-6.875 -4.326,-17.462 -6.855,-33.897 -7.614,-49.31 -0.082,-1.652 -0.144,-3.287 -0.185,-4.915 -0.03,-1.183 -0.066,-2.377 -0.075,-3.548 l 0,-1.478 c 0,-1.574 0.032,-3.106 0.075,-4.658 l 0,-0.075 c 0.044,-1.595 0.099,-3.196 0.185,-4.766 0.116,-2.145 0.286,-4.257 0.48,-6.357 0.804,-8.698 2.294,-17.02 4.435,-24.944 0.6,-2.221 1.217,-4.419 1.922,-6.579 0.711,-2.181 1.474,-4.311 2.292,-6.432 0.047,-0.124 0.099,-0.246 0.148,-0.37 0.3,-0.77 0.61,-1.529 0.924,-2.292 0.197,-0.479 0.388,-0.965 0.591,-1.442 0.551,-1.29 1.145,-2.577 1.737,-3.844 0.969,-2.073 1.988,-4.125 3.068,-6.136 0.951,-1.771 1.957,-3.528 2.993,-5.249 0.2,-0.331 0.389,-0.668 0.591,-0.998 1.296,-2.106 2.676996,-4.179 4.102996,-6.209 1.436,-2.045 2.943,-4.056 4.51,-6.02 0.06,-0.076 0.124,-0.147 0.185,-0.222 0.642,-0.803 1.294,-1.612 1.959,-2.402 3.26,-3.878 6.783,-7.625 10.571,-11.199 0.025,-0.024 0.048,-0.05 0.074,-0.075 0.933,-0.879 1.881,-1.727 2.846,-2.588 0.97,-0.866 1.954,-1.703 2.957,-2.55 1.148,-0.97 2.321,-1.937 3.512,-2.883 0.685,-0.543 1.371,-1.09 2.07,-1.626 0.475,-0.364 0.959,-0.711 1.442,-1.072 0.66,-0.494 1.323,-0.991 1.996,-1.478 0.994,-0.719 2.01,-1.439 3.03,-2.144 0.222,-0.154 0.442,-0.328 0.666,-0.48 5.02,-3.43 10.381,-6.659 16.04,-9.721 1.943,-1.051 3.933,-2.097 5.949,-3.105 0.55,-0.274 1.107,-0.542 1.663,-0.814 0.771,-0.376 1.547,-0.739 2.329,-1.109 1.314,-0.622 2.61,-1.243 3.955,-1.849 0.035,-0.015 0.076,-0.021 0.111,-0.037 4.575,-2.056 9.341,-4.02 14.264,-5.877 0.481,-0.181 0.957,-0.375 1.442,-0.555 3.232,-1.195 6.56,-2.33 9.9420004,-3.437 1.873,-0.614 3.773,-1.224 5.69200004,-1.811 1.605,-0.491 3.24199996,-0.969 4.87899996,-1.442 7.3229996,-2.115 14.9509996,-4.059 22.9149996,-5.802 l 0,0.037 c 1.897,-0.415 3.832,-0.826 5.766,-1.219 8.174,-1.666 16.676,-3.182 25.503,-4.472 0.985,-0.144 2,-0.267 2.993,-0.407 11.741,-1.648 24.05,-3 36.925,-3.992 1.703,-0.131 3.415004,-0.25 5.138004,-0.37 2.337,-0.162 4.686,-0.303 7.06,-0.444 3.56,-0.212 7.187,-0.39 10.829,-0.555 2.654,-0.119 5.323,-0.238 8.02,-0.332 -7.374,-1.226 -14.601,-2.389 -21.733,-3.475 -0.659,-0.101 -1.302,-0.196 -1.959,-0.296 -6.465004,-0.975 -12.808004,-1.878 -19.070004,-2.736 -1.268,-0.174 -2.51,-0.349 -3.771,-0.518 -2.179,-0.292 -4.315,-0.572 -6.468,-0.85 -1.554,-0.2 -3.079,-0.399 -4.62,-0.591 -1.825,-0.228 -3.626,-0.447 -5.433,-0.666 -6.641,-0.801 -13.152,-1.521 -19.552,-2.181 -18.911,-1.951 -36.7709996,-3.269 -53.5499996,-3.992 -0.809,-0.034 -1.598,-0.078 -2.402,-0.111 -6.7500004,-0.27 -13.3000004,-0.448 -19.6990004,-0.518 -2.377,-0.028 -4.728,-0.039 -7.06,-0.037 m 88.63,35 c -11.995,1.959 -23.307,4.273 -33.93,6.948 4.907,19.754 7.53,38.18 7.872,55.29 0.031,1.52 0.043,3.048 0.037,4.546 l 0,0.332 c -0.012,1.301 -0.039,2.595 -0.074,3.881 -0.035,1.308 -0.085,2.589 -0.148,3.881 l 0,0.259 0,0.185 c -0.067,1.314 -0.162,2.62 -0.259,3.918 -0.079,1.062 -0.16,2.128 -0.259,3.179 -0.07,0.744 -0.142,1.48 -0.222,2.218 -0.046,0.431 -0.098,0.865 -0.148,1.294 -0.053,0.455 -0.128,0.914 -0.185,1.367 -0.131,1.053 -0.254,2.101 -0.407,3.141 -0.039,0.268 -0.07,0.545 -0.111,0.814 -0.07,0.46 -0.148,0.911 -0.222,1.367 -0.552,3.433 -1.218,6.786 -1.997,10.09 -0.219,0.927 -0.466,1.855 -0.702,2.772 -0.082,0.317 -0.138,0.646 -0.222,0.962 -0.119,0.453 -0.245,0.917 -0.37,1.367 -0.212,0.766 -0.441,1.532 -0.666,2.292 -0.182,0.619 -0.363,1.234 -0.555,1.849 -0.182,0.583 -0.365,1.158 -0.555,1.737 -0.052,0.158 -0.096,0.322 -0.148,0.48 -0.341,1.03 -0.707,2.051 -1.072,3.068 -0.421,1.173 -0.876,2.356 -1.331,3.512 -0.907,2.311 -1.884,4.564 -2.92,6.801 -0.518,1.118 -1.04,2.227 -1.59,3.327 -0.55,1.1 -1.119,2.208 -1.701,3.289 -0.4869996,0.906 -0.9689996,1.805 -1.4779996,2.698 -0.098,0.173 -0.196,0.345 -0.296,0.518 -0.316,0.548 -0.636,1.083 -0.962,1.626 -0.305,0.51 -0.611,1.01 -0.924,1.515 -0.117,0.189 -0.252,0.367 -0.37,0.555 -0.533,0.853 -1.07,1.709 -1.626,2.55 -0.545,0.827 -1.096,1.662 -1.663,2.477 -0.136,0.196 -0.269,0.396 -0.407,0.591 -0.674,0.957 -1.367,1.905 -2.06999996,2.846 -0.037,0.05 -0.073,0.098 -0.111,0.148 -0.047,0.063 -0.101,0.122 -0.148,0.185 -1.44000004,1.912 -2.94900004,3.775 -4.51000004,5.618 -0.805,0.952 -1.638,1.912 -2.477,2.846 -0.837,0.933 -1.681,1.857 -2.55,2.772 -1.7400004,1.83 -3.5280004,3.604 -5.3970004,5.359 -0.758,0.713 -1.513,1.443 -2.292,2.144 -0.182,0.163 -0.371,0.318 -0.555,0.48 -1.931,1.719 -3.928,3.381 -5.988,5.03 -0.102,0.082 -0.193,0.177 -0.296,0.259 -0.931,0.739 -1.889,1.456 -2.846,2.181 -1.062,0.804 -2.158,1.617 -3.252,2.402 -5.47,3.928 -11.322,7.623 -17.593,11.09 -1.254,0.693 -2.52,1.358 -3.807,2.033 -1.286,0.674 -2.6,1.377 -3.918,2.033 -1.317,0.656 -2.641,1.284 -3.992,1.922 -0.519,0.245 -1.028,0.497 -1.553,0.739 -0.843,0.39 -1.695,0.763 -2.55,1.146 -1.383,0.619 -2.8,1.248 -4.214,1.849 -0.938,0.399 -1.857,0.792 -2.809,1.183 -0.492,0.202 -0.982,0.391 -1.478,0.591 -4.338,1.747 -8.827,3.41 -13.453,4.99 -0.138,0.047 -0.268,0.101 -0.407,0.148 -1.409,0.479 -2.815,0.941 -4.251,1.405 -1.574,0.509 -3.161,0.989 -4.766,1.478 -1.606,0.49 -3.241,0.97 -4.879,1.442 l 0,0.037 c -16.337996,4.7 -34.249996,8.486 -53.777996,11.347 -0.012,-0.014 -0.027,-0.022 -0.037,-0.037 -5.448,0.798 -11.01,1.526 -16.7,2.181 -8.539,0.982 -17.367,1.817 -26.463,2.477 -9.1,0.659 -18.468,1.14 -28.13,1.478 0.063,0.011 0.122,0.026 0.184,0.037 -0.062,0.002 -0.123,-0.002 -0.184,0 7.39,1.229 14.626,2.35 21.769,3.437 3.431,0.523 6.827,1.025 10.201,1.515 0.246,0.036 0.493,0.076 0.739,0.111 13.912,2.01 27.38,3.756 40.32,5.211 0.415,0.046 0.843,0.102 1.257,0.148 2.833,0.315 5.64,0.598 8.427,0.887 18.783,1.943 36.508,3.301 53.189996,4.03 0.261,0.012 0.516,0.026 0.776,0.037 6.077,0.259 12.02,0.421 17.812,0.518 2.265,0.038 4.505,0.06 6.727,0.075 1.25,0.007 2.497,0.038 3.733,0.037 2.427,-0.001 4.831,-0.043 7.208,-0.075 1.759,-0.022 3.481,-0.034 5.211,-0.075 0.475,-0.011 0.931,-0.025 1.405,-0.037 1.3,-0.033 2.597,-0.069 3.88,-0.111 2.118,-0.07 4.209,-0.163 6.284,-0.259 2.711,-0.125 5.385,-0.274 8.02,-0.444 2.63,-0.169 5.244,-0.342 7.799,-0.555 2.226,-0.186 4.41,-0.373 6.579,-0.591 0.338,-0.034 0.661,-0.076 0.998,-0.111 2.3120004,-0.239 4.5910004,-0.499 6.8370004,-0.776 0.175,-0.021 0.343,-0.052 0.518,-0.075 1,-0.125 1.971,-0.274 2.957,-0.407 3.768,-0.506 7.474,-1.047 11.05,-1.663 0.138,-0.024 0.269,-0.05 0.407,-0.075 6.6339996,-1.154 12.9129996,-2.494 18.8869996,-4.03 2.034,-0.523 4.03,-1.06 5.988,-1.626 1.62,-0.47 3.2,-0.979 4.766,-1.478 0.33,-0.105 0.669,-0.189 0.998,-0.296 0.717,-0.233 1.401,-0.464 2.106,-0.703 0.39,-0.132 0.758,-0.272 1.146,-0.407 1.262,-0.438 2.507,-0.872 3.733,-1.331 0.298,-0.111 0.591,-0.22 0.887,-0.332 0.989,-0.376 1.955,-0.756 2.92,-1.146 0.25,-0.101 0.492,-0.194 0.739,-0.296 3.189,-1.309 6.241,-2.716 9.166,-4.176 0.16,-0.079 0.322,-0.142 0.48,-0.222 1.41,-0.712 2.791,-1.433 4.14,-2.181 0.25,-0.138 0.492,-0.267 0.739,-0.407 1.236,-0.698 2.439,-1.416 3.623,-2.144 1.424,-0.876 2.792,-1.778 4.14,-2.698 0.395,-0.27 0.794,-0.539 1.183,-0.814 0.274,-0.194 0.542,-0.396 0.814,-0.591 0.647,-0.466 1.294,-0.927 1.922,-1.405 0.64,-0.485 1.264,-0.982 1.885,-1.478 0.484,-0.388 0.969,-0.751 1.442,-1.146 0.128,-0.106 0.242,-0.226 0.37,-0.332 0.509,-0.429 1.021,-0.856 1.515,-1.294 0.086,-0.077 0.173,-0.145 0.259,-0.222 0.097,-0.086 0.199,-0.171 0.296,-0.259 1.056,-0.95 2.039,-1.933 3.03,-2.92 1.066,-1.061 2.114,-2.149 3.105,-3.252 0.058,-0.065 0.127,-0.121 0.185,-0.185 0.444,-0.497 0.866,-1.01 1.294,-1.515 0.084,-0.099 0.175,-0.196 0.259,-0.296 0.402,-0.48 0.795,-0.954 1.183,-1.442 0.458,-0.575 0.892,-1.152 1.331,-1.737 0.13,-0.173 0.278,-0.343 0.407,-0.518 0.313,-0.426 0.62,-0.862 0.924,-1.294 0.149,-0.212 0.297,-0.415 0.444,-0.628 0.267,-0.389 0.517,-0.79 0.776,-1.183 0.173,-0.26 0.349,-0.513 0.518,-0.776 0.226,-0.351 0.446,-0.717 0.666,-1.072 0.192,-0.31 0.404,-0.611 0.591,-0.924 0.19,-0.318 0.369,-0.64 0.555,-0.962 0.205,-0.354 0.393,-0.716 0.591,-1.072 0.157,-0.284 0.326,-0.564 0.480004,-0.85 0.218,-0.403 0.419,-0.813 0.628,-1.219 0.127,-0.245 0.246,-0.493 0.37,-0.739 0.226,-0.451 0.448,-0.911 0.666,-1.367 0.101,-0.211 0.198,-0.416 0.296,-0.628 0.315,-0.679 0.629,-1.344 0.924,-2.033 0.234,-0.546 0.48,-1.073 0.703,-1.626 0.053,-0.134 0.095,-0.272 0.148,-0.407 0.091,-0.231 0.17,-0.471 0.259,-0.703 0.179,-0.466 0.348,-0.933 0.518,-1.405 0.235,-0.654 0.484,-1.296 0.703,-1.959 0.015,-0.048 0.021,-0.099 0.037,-0.148 0.234,-0.712 0.451,-1.42 0.666,-2.144 0.432,-1.455 0.828,-2.937 1.183,-4.435 0.021,-0.089 0.053,-0.17 0.075,-0.259 0.15,-0.647 0.27,-1.303 0.407,-1.959 0.158,-0.759 0.305,-1.521 0.444,-2.292 0.036,-0.195 0.077,-0.395 0.111,-0.591 0.099,-0.575 0.207,-1.156 0.296,-1.737 0.038,-0.244 0.076,-0.494 0.111,-0.739 0.19,-1.314 0.344,-2.647 0.48,-3.992 0.122,-1.197 0.216,-2.436 0.296,-3.659 0.078,-1.219 0.149,-2.452 0.185,-3.696 0.002,-0.085 -0.002,-0.174 0,-0.259 0.041,-1.572 0.027,-3.193 0,-4.805 -0.028,-1.717 -0.079,-3.449 -0.185,-5.211 -0.195,-3.268 -0.538,-6.595 -0.998,-10.02 -0.034,-0.259 -0.038,-0.517 -0.075,-0.776 -0.012,-0.073 -0.026,-0.148 -0.037,-0.222 -0.248,-1.756 -0.532,-3.56 -0.85,-5.359 -0.037,-0.206 -0.073,-0.421 -0.111,-0.628 -0.304,-1.682 -0.634,-3.384 -0.998,-5.101 -0.07,-0.329 -0.15,-0.667 -0.222,-0.998 -0.347,-1.59 -0.747,-3.222 -1.146,-4.842 -0.384,-1.562 -0.788,-3.141 -1.219,-4.731 -0.114,-0.42 -0.215,-0.835 -0.332,-1.257 -0.06,-0.218 -0.123,-0.447 -0.185,-0.666 -0.429,-1.523 -0.895,-3.072 -1.367,-4.62 -0.086,-0.283 -0.171,-0.567 -0.259,-0.85 -0.034,-0.11 -0.077,-0.222 -0.111,-0.332 -0.465,-1.493 -0.975,-2.993 -1.478004,-4.51 -0.155,-0.465 -0.285,-0.938 -0.444,-1.405 -0.305,-0.901 -0.641,-1.826 -0.962,-2.736 -0.031,-0.086 -0.08,-0.171 -0.111,-0.259 -0.736,-2.084 -1.483,-4.194 -2.292,-6.32 -0.038,-0.098 -0.073,-0.198 -0.111,-0.296 -0.033,-0.086 -0.078,-0.172 -0.111,-0.259 -0.813,-2.124 -1.665,-4.265 -2.55,-6.432 -0.04,-0.097 -0.071,-0.199 -0.111,-0.296 -0.05,-0.121 -0.098,-0.248 -0.148,-0.37 -0.921,-2.241 -1.883,-4.514 -2.883,-6.801 -1.055,-2.414 -2.148,-4.855 -3.289,-7.319 -8.913,-19.231 -20.447,-39.965 -34.63,-62.24 m -169.649996,253.95 c 15.02,20.841 31.838996,42.826 50.819996,65.9 -12.04,-22.649 -22.22,-44.15 -30.382,-64.53 -6.666996,-0.357 -13.467996,-0.827 -20.438996,-1.367"
       style="fill:#ffffff"
       inkscape:connector-curvature="0" />
  </g>
</svg>
