<?xml version="1.0" encoding="UTF-8" standalone="no"?>
<!-- Created with Inkscape (http://www.inkscape.org/) -->

<svg
   xmlns:dc="http://purl.org/dc/elements/1.1/"
   xmlns:cc="http://creativecommons.org/ns#"
   xmlns:rdf="http://www.w3.org/1999/02/22-rdf-syntax-ns#"
   xmlns:svg="http://www.w3.org/2000/svg"
   xmlns="http://www.w3.org/2000/svg"
   xmlns:sodipodi="http://sodipodi.sourceforge.net/DTD/sodipodi-0.dtd"
   xmlns:inkscape="http://www.inkscape.org/namespaces/inkscape"
   id="svg2"
   height="100%"
   width="100%"
   version="1.1"
   viewBox="0 0 512 512"
   inkscape:version="0.91 r13725"
   sodipodi:docname="deadbeef.svg">
  <defs
     id="defs101" />
  <sodipodi:namedview
     pagecolor="#ffffff"
     bordercolor="#666666"
     borderopacity="1"
     objecttolerance="10"
     gridtolerance="10"
     guidetolerance="10"
     inkscape:pageopacity="0"
     inkscape:pageshadow="2"
     inkscape:window-width="640"
     inkscape:window-height="480"
     id="namedview99"
     showgrid="false"
     inkscape:zoom="0.5546875"
     inkscape:cx="36.056338"
     inkscape:cy="240.67606"
     inkscape:current-layer="svg2" />
  <metadata
     id="metadata241">
    <rdf:RDF>
      <cc:Work
         rdf:about="">
        <dc:format>image/svg+xml</dc:format>
        <dc:type
           rdf:resource="http://purl.org/dc/dcmitype/StillImage" />
        <dc:title />
      </cc:Work>
    </rdf:RDF>
  </metadata>
  <rect
     style="fill:#707175"
     id="rect9-7"
     rx="25.988001"
     height="512"
     width="512"
     y="-0.0010034472"
     x="-0.00049147458" />
  <path
     inkscape:connector-curvature="0"
     id="path59-6"
     style="color:#000000;opacity:0.25"
     d="m 105.8795,41.99901 202.65,202.65 -44.22,-30.15 -167.5,-167.5 0.001,42.84 0,0.004 0,0.308 109.8,109.81 -109.8,-109.8 10e-4,173.97 87.769,87.77 -85.23,58.1 38.32,38.32 -4.37,2.98 -36.489,-36.49 0,50.38 46.809,46.81 342.39,0 c 14.4,0 25.99,-11.59 25.99,-25.99 l 0,-135.48 -99.34,-99.34 -306.78,-209.19 z" />
  <path
     inkscape:connector-curvature="0"
     id="path77"
     style="color:#000000;fill:#ffffff"
     d="m 102.5895,40.99901 a 5.8069,5.8069 0 0 0 -5.7812,5.8125 5.8069,5.8069 0 0 0 0,0.1875 l 0,42.844 0,0.313 0,173.97 a 5.8069,5.8069 0 0 0 9.0625,4.8125 l 118.88,-81.41 100.47,68.5 -225.88,153.97 a 5.8069,5.8069 0 0 0 -2.5312,4.8125 l 0,50.38 a 5.8069,5.8069 0 0 0 9.071,4.81 l 306.78,-209.19 a 5.8069,5.8069 0 0 0 0,-9.625 l -306.78,-209.18 a 5.8069,5.8069 0 0 0 -3.2812,-1" />
</svg>
