<?xml version="1.0" encoding="UTF-8" standalone="no"?>
<!-- Created with Inkscape (http://www.inkscape.org/) -->

<svg
   xmlns:dc="http://purl.org/dc/elements/1.1/"
   xmlns:cc="http://creativecommons.org/ns#"
   xmlns:rdf="http://www.w3.org/1999/02/22-rdf-syntax-ns#"
   xmlns:svg="http://www.w3.org/2000/svg"
   xmlns="http://www.w3.org/2000/svg"
   xmlns:sodipodi="http://sodipodi.sourceforge.net/DTD/sodipodi-0.dtd"
   xmlns:inkscape="http://www.inkscape.org/namespaces/inkscape"
   id="svg2"
   height="100%"
   width="100%"
   version="1.1"
   viewBox="0 0 512 512"
   inkscape:version="0.91 r13725"
   sodipodi:docname="decibel.svg">
  <defs
     id="defs892" />
  <sodipodi:namedview
     pagecolor="#ffffff"
     bordercolor="#666666"
     borderopacity="1"
     objecttolerance="10"
     gridtolerance="10"
     guidetolerance="10"
     inkscape:pageopacity="0"
     inkscape:pageshadow="2"
     inkscape:window-width="640"
     inkscape:window-height="480"
     id="namedview890"
     showgrid="false"
     inkscape:zoom="0.5546875"
     inkscape:cx="36.056338"
     inkscape:cy="240.67606"
     inkscape:current-layer="svg2" />
  <metadata
     id="metadata241">
    <rdf:RDF>
      <cc:Work
         rdf:about="">
        <dc:format>image/svg+xml</dc:format>
        <dc:type
           rdf:resource="http://purl.org/dc/dcmitype/StillImage" />
        <dc:title />
      </cc:Work>
    </rdf:RDF>
  </metadata>
  <path
     inkscape:connector-curvature="0"
     style="fill:#924565"
     id="path9"
     d="m 26,-0.0025 c -14.397,0 -26,11.603 -26,26 l 0,460 c 0,14.397 11.603,26 26,26 l 460,0 c 14.397,0 26,-11.603 26,-26 l 0,-460 c 0,-14.397 -11.6,-26 -26,-26 l -460,0" />
  <path
     inkscape:connector-curvature="0"
     style="opacity:0.25"
     id="path1595"
     d="m 238.73,41.0035 c -0.78,-0.01 -1.57,-0.003 -2.35,0.019 l 150.9,150.9 c 0.01,0.01 0.01,0.02 0.01,0.02 L 236.37,41.0225 c -23.97,0.683 -47.96,16.031 -66.46,36.201 l 27.19,27.189 0,0.01 -27.19,-27.19 c -40.75,45.69 -58.82,118.23 -68.19,155.78 l 0.01,0.01 c -14.511,61.03 -18.059,118.2 -11.994,159.94 l 78.034,78.03 -0.01,0 -78.03,-78.03 c 3.942,24.71 14.08,42.99 26.72,55.62 l 63.42,63.42 306.13,0 c 14.4,0 26,-11.6 26,-26 l 0,-193.78 -238.73,-238.73 -0.03,-0.029 c -11.03,-8.551 -22.74,-12.313 -34.51,-12.455 z" />
  <path
     inkscape:connector-curvature="0"
     style="fill:#ffffff"
     id="path1669"
     d="m 236.37,41.0175 c -23.967,0.683 -47.959,16.03 -66.46,36.2 -40.755,45.685 -58.825,118.23 -68.19,155.78 -14.511,61.04 -18.06,118.22 -11.994,159.96 9.473,59.37 54.751,81.64 84.36,77.58 281.93,-88.76 342.35,-162.94 99.14,-417.08 -11.77,-9.121 -24.31,-12.792 -36.87,-12.434 m -3.778,36.35 c 0.715,0.003 1.421,0.098 2.091,0.257 5.357,1.273 9.806,8.188 11.994,12.214 5.301,9.743 9.262,23.897 11.481,40.934 4.967,38.12 1.172,86.71 -10.747,136.85 -11.92,50.14 -30.385,95.25 -51.974,127.06 -9.651,14.216 -19.6,25.12 -28.72,31.434 -3.765,2.607 -10.819,6.775 -16.18,5.502 -5.358,-1.274 -9.845,-8.192 -12.03,-12.214 -5.3,-9.743 -9.263,-23.933 -11.481,-40.97 -4.967,-38.12 -1.171,-86.72 10.747,-136.85 11.919,-50.14 30.384,-95.25 51.974,-127.06 9.65,-14.216 19.562,-25.08 28.683,-31.397 3.292,-2.283 9.155,-5.774 14.158,-5.759 m -24.575,108.94 c -1.928,-0.005 -4.196,1.321 -5.465,2.201 -3.517,2.433 -7.359,6.624 -11.08,12.1 -8.321,12.257 -15.433,29.643 -20.03,48.966 -4.594,19.322 -6.06,38.05 -4.145,52.744 0.854,6.566 2.397,12.02 4.438,15.772 0.843,1.55 2.556,4.24 4.622,4.732 2.067,0.491 4.82,-1.123 6.272,-2.127 3.516,-2.434 7.321,-6.625 11.04,-12.1 8.32,-12.258 15.433,-29.643 20.03,-48.966 4.594,-19.323 6.095,-38.05 4.181,-52.744 -0.856,-6.566 -2.397,-12.02 -4.438,-15.772 -0.845,-1.552 -2.591,-4.24 -4.658,-4.732 -0.258,-0.061 -0.495,-0.072 -0.77,-0.073" />
</svg>
