<?xml version="1.0" encoding="UTF-8" standalone="no"?>
<!-- Created with Inkscape (http://www.inkscape.org/) -->

<svg
   xmlns:dc="http://purl.org/dc/elements/1.1/"
   xmlns:cc="http://creativecommons.org/ns#"
   xmlns:rdf="http://www.w3.org/1999/02/22-rdf-syntax-ns#"
   xmlns:svg="http://www.w3.org/2000/svg"
   xmlns="http://www.w3.org/2000/svg"
   xmlns:xlink="http://www.w3.org/1999/xlink"
   xmlns:sodipodi="http://sodipodi.sourceforge.net/DTD/sodipodi-0.dtd"
   xmlns:inkscape="http://www.inkscape.org/namespaces/inkscape"
   id="svg2"
   height="100%"
   width="100%"
   version="1.1"
   viewBox="0 0 512 512"
   inkscape:version="0.91+devel r13804 custom"
   sodipodi:docname="designer.svg">
  <sodipodi:namedview
     pagecolor="#ffffff"
     bordercolor="#666666"
     borderopacity="1"
     objecttolerance="10"
     gridtolerance="10"
     guidetolerance="10"
     inkscape:pageopacity="0"
     inkscape:pageshadow="2"
     inkscape:window-width="1366"
     inkscape:window-height="709"
     id="namedview1823"
     showgrid="false"
     inkscape:zoom="0.4609375"
     inkscape:cx="-8.6779661"
     inkscape:cy="237.55932"
     inkscape:window-x="-2"
     inkscape:window-y="-3"
     inkscape:window-maximized="1"
     inkscape:current-layer="svg2" />
  <metadata
     id="metadata241">
    <rdf:RDF>
      <cc:Work
         rdf:about="">
        <dc:format>image/svg+xml</dc:format>
        <dc:type
           rdf:resource="http://purl.org/dc/dcmitype/StillImage" />
        <dc:title />
      </cc:Work>
    </rdf:RDF>
  </metadata>
  <defs
     id="defs4">
    <linearGradient
       id="ButtonShadow-5"
       x1="45.448"
       gradientUnits="userSpaceOnUse"
       y1="92.54"
       gradientTransform="scale(1.0059 .99417)"
       x2="45.448"
       y2="7.0165">
      <stop
         id="stop3750-0"
         offset="0" />
      <stop
         id="stop3752-8"
         stop-opacity=".58824"
         offset="1" />
    </linearGradient>
    <filter
       id="filter3174-8"
       color-interpolation-filters="sRGB">
      <feGaussianBlur
         id="feGaussianBlur3176-5"
         stdDeviation="1.71" />
    </filter>
    <linearGradient
       id="linearGradient3737">
      <stop
         id="stop3739"
         stop-color="#fff"
         offset="0" />
      <stop
         id="stop3741"
         stop-color="#fff"
         stop-opacity="0"
         offset="1" />
    </linearGradient>
    <filter
       id="filter3174"
       color-interpolation-filters="sRGB">
      <feGaussianBlur
         id="feGaussianBlur3176"
         stdDeviation="1.71" />
    </filter>
    <filter
       id="filter3794"
       height="1.384"
       width="1.384"
       color-interpolation-filters="sRGB"
       y="-.192"
       x="-.192">
      <feGaussianBlur
         id="feGaussianBlur3796"
         stdDeviation="5.28" />
    </filter>
    <linearGradient
       id="linearGradient3613"
       x1="48"
       xlink:href="#linearGradient3737"
       gradientUnits="userSpaceOnUse"
       y1="20.221"
       x2="48"
       y2="138.66" />
    <clipPath
       id="clipPath3613">
      <rect
         id="rect3615"
         rx="6"
         ry="6"
         height="84"
         width="84"
         y="6"
         x="6"
         fill="#fff" />
    </clipPath>
    <filter
       id="filter3174-3"
       color-interpolation-filters="sRGB">
      <feGaussianBlur
         id="feGaussianBlur3176-2"
         stdDeviation="1.71" />
    </filter>
    <filter
       id="filter3794-0"
       height="1.384"
       width="1.384"
       color-interpolation-filters="sRGB"
       y="-.192"
       x="-.192">
      <feGaussianBlur
         id="feGaussianBlur3796-3"
         stdDeviation="5.28" />
    </filter>
    <clipPath
       id="clipPath3613-1">
      <rect
         id="rect3615-9"
         rx="6"
         ry="6"
         height="84"
         width="84"
         y="6"
         x="6"
         fill="#fff" />
    </clipPath>
    <filter
       id="filter3174-8-3"
       color-interpolation-filters="sRGB">
      <feGaussianBlur
         id="feGaussianBlur3176-5-8"
         stdDeviation="1.71" />
    </filter>
    <filter
       id="filter3174-0"
       color-interpolation-filters="sRGB">
      <feGaussianBlur
         id="feGaussianBlur3176-6"
         stdDeviation="1.71" />
    </filter>
    <filter
       id="filter3794-9"
       height="1.384"
       width="1.384"
       color-interpolation-filters="sRGB"
       y="-.192"
       x="-.192">
      <feGaussianBlur
         id="feGaussianBlur3796-2"
         stdDeviation="5.28" />
    </filter>
    <clipPath
       id="clipPath3613-2">
      <rect
         id="rect3615-3"
         rx="6"
         ry="6"
         height="84"
         width="84"
         y="6"
         x="6"
         fill="#fff" />
    </clipPath>
    <filter
       id="filter3174-35"
       color-interpolation-filters="sRGB">
      <feGaussianBlur
         id="feGaussianBlur3176-3"
         stdDeviation="1.71" />
    </filter>
    <filter
       id="filter3794-91"
       height="1.384"
       width="1.384"
       color-interpolation-filters="sRGB"
       y="-.192"
       x="-.192">
      <feGaussianBlur
         id="feGaussianBlur3796-7"
         stdDeviation="5.28" />
    </filter>
    <clipPath
       id="clipPath3613-8">
      <rect
         id="rect3615-8"
         rx="6"
         ry="6"
         height="84"
         width="84"
         y="6"
         x="6"
         fill="#fff" />
    </clipPath>
    <filter
       id="filter3174-4"
       color-interpolation-filters="sRGB">
      <feGaussianBlur
         id="feGaussianBlur3176-37"
         stdDeviation="1.71" />
    </filter>
    <filter
       id="filter3794-4"
       height="1.384"
       width="1.384"
       color-interpolation-filters="sRGB"
       y="-.192"
       x="-.192">
      <feGaussianBlur
         id="feGaussianBlur3796-9"
         stdDeviation="5.28" />
    </filter>
    <clipPath
       id="clipPath3613-9">
      <rect
         id="rect3615-1"
         rx="6"
         ry="6"
         height="84"
         width="84"
         y="6"
         x="6"
         fill="#fff" />
    </clipPath>
    <linearGradient
       id="linearGradient11572"
       y2="7.0165"
       xlink:href="#ButtonShadow-5"
       gradientUnits="userSpaceOnUse"
       x2="45.448"
       gradientTransform="scale(1.0059 .99417)"
       y1="92.54"
       x1="45.448" />
  </defs>
  <g
     id="layer2"
     display="none"
     transform="matrix(13.4 0 0 13.4 -1705.8 -834.03)">
    <rect
       id="rect3745"
       opacity=".9"
       rx="6"
       ry="6"
       height="85"
       filter="url(#filter3174)"
       width="86"
       y="7"
       x="5"
       fill="url(#linearGradient11572)" />
  </g>
  <g
     id="layer5"
     display="none"
     transform="matrix(13.4 0 0 13.4 -1705.8 -834.03)">
    <rect
       id="rect3171"
       height="66"
       stroke="#fff"
       stroke-linecap="round"
       stroke-width=".5"
       fill="url(#linearGradient3613)"
       rx="12"
       ry="12"
       width="66"
       opacity=".1"
       clip-path="url(#clipPath3613)"
       filter="url(#filter3794)"
       y="15"
       x="15" />
  </g>
  <g
     id="layer2-5"
     display="none"
     transform="translate(-118.36 -21.072)">
    <rect
       id="rect3745-0"
       opacity=".9"
       rx="6"
       ry="6"
       height="85"
       filter="url(#filter3174-8)"
       width="86"
       y="7"
       x="5"
       fill="url(#linearGradient11572)" />
  </g>
  <g
     id="layer2-8"
     display="none"
     transform="matrix(13.4 0 0 13.4 -1708.9 -839.43)">
    <rect
       id="rect3745-3"
       opacity=".9"
       rx="6"
       ry="6"
       height="85"
       filter="url(#filter3174-3)"
       width="86"
       y="7"
       x="5"
       fill="url(#linearGradient11572)" />
  </g>
  <g
     id="layer5-5"
     display="none"
     transform="matrix(13.4 0 0 13.4 -1708.9 -839.43)">
    <rect
       id="rect3171-2"
       height="66"
       stroke="#fff"
       stroke-linecap="round"
       stroke-width=".5"
       fill="url(#linearGradient3613)"
       rx="12"
       ry="12"
       width="66"
       opacity=".1"
       clip-path="url(#clipPath3613-1)"
       filter="url(#filter3794-0)"
       y="15"
       x="15" />
  </g>
  <g
     id="layer2-3"
     display="none"
     transform="matrix(13.4 0 0 13.4 -1693.5 -882.16)">
    <rect
       id="rect3745-6"
       opacity=".9"
       rx="6"
       ry="6"
       height="85"
       filter="url(#filter3174-0)"
       width="86"
       y="7"
       x="5"
       fill="url(#linearGradient11572)" />
  </g>
  <g
     id="layer5-3"
     display="none"
     transform="matrix(13.4 0 0 13.4 -1693.5 -882.16)">
    <rect
       id="rect3171-7"
       height="66"
       stroke="#fff"
       stroke-linecap="round"
       stroke-width=".5"
       fill="url(#linearGradient3613)"
       rx="12"
       ry="12"
       width="66"
       opacity=".1"
       clip-path="url(#clipPath3613-2)"
       filter="url(#filter3794-9)"
       y="15"
       x="15" />
  </g>
  <g
     id="layer2-5-4"
     display="none"
     transform="translate(-106.08 -69.206)">
    <rect
       id="rect3745-0-9"
       opacity=".9"
       rx="6"
       ry="6"
       height="85"
       filter="url(#filter3174-8-3)"
       width="86"
       y="7"
       x="5"
       fill="url(#linearGradient11572)" />
  </g>
  <g
     id="layer2-33"
     display="none"
     transform="matrix(13.4 0 0 13.4 -1500.2 -968.07)">
    <rect
       id="rect3745-1"
       opacity=".9"
       rx="6"
       ry="6"
       height="85"
       filter="url(#filter3174-35)"
       width="86"
       y="7"
       x="5"
       fill="url(#linearGradient11572)" />
  </g>
  <g
     id="layer5-6"
     display="none"
     transform="matrix(13.4 0 0 13.4 -1500.2 -968.07)">
    <rect
       id="rect3171-4"
       height="66"
       stroke="#fff"
       stroke-linecap="round"
       stroke-width=".5"
       fill="url(#linearGradient3613)"
       rx="12"
       ry="12"
       width="66"
       opacity=".1"
       clip-path="url(#clipPath3613-8)"
       filter="url(#filter3794-91)"
       y="15"
       x="15" />
  </g>
  <g
     id="layer2-58"
     display="none"
     transform="matrix(13.4 0 0 13.4 -1659.8 -887.77)">
    <rect
       id="rect3745-7"
       opacity=".9"
       rx="6"
       ry="6"
       height="85"
       filter="url(#filter3174-4)"
       width="86"
       y="7"
       x="5"
       fill="url(#linearGradient11572)" />
  </g>
  <g
     id="layer5-0"
     display="none"
     transform="matrix(13.4 0 0 13.4 -1659.8 -887.77)">
    <rect
       id="rect3171-9"
       height="66"
       stroke="#fff"
       stroke-linecap="round"
       stroke-width=".5"
       fill="url(#linearGradient3613)"
       rx="12"
       ry="12"
       width="66"
       opacity=".1"
       clip-path="url(#clipPath3613-9)"
       filter="url(#filter3794-4)"
       y="15"
       x="15" />
  </g>
  <g
     id="g5172"
     transform="translate(418.71185,-334.10169)">
    <rect
       x="-418.71185"
       y="334.10168"
       width="512"
       height="512"
       rx="25.988001"
       id="rect9-1"
       style="fill:#8db173" />
    <path
       d="m -294.43186,427.75369 81.78,81.778 0,0.01 -81.78,-81.78 c -82.915,0 -83.28,89.28 -83.28,89.28 l 0,101.53 c 0,19.08 13.101,44.5 25.838,57.24 l 0.037,0.04 c 0.024,0.02 0.047,0.04 0.07,0.07 l 44.675,44.67 c 2.3,6.84 6.19,12.88 11.11,17.8 l 107.71,107.71 255.569996,0 c 14.4,0 25.99,-11.59 25.99,-25.99 l 0,-298.35 -44.68,-44.68 c -5.4,-5.4 -16.27,-10.42 -29.38,-12.95 -5.8,-1.12 -11.3600004,-1.6 -16.3800004,-1.56 l 37.9700004,37.96 -0.01,0 -37.9600004,-37.96 c -8.36,0.07 -15.1899996,1.64 -18.9699996,4.47 -1.65,1.23 -2.7,2.72 -3.06,4.4 l -0.03,0 -0.03,0.12 21.5099996,21.52 -21.5099996,-21.51 -3.25,16.72 11.92,11.92 -13.7,-2.64 -3.41,17.69 0.01,0 -0.01,0 14.03,14.03 -16.14,-3.12 -0.01,-0.01 0,0.01 -0.01,0 0.01,0 -5.47,28.27 -113.559996,-113.56 -19.28,0 19.28,19.28 0,0.01 -19.29,-19.29 -19.31,50.75 -9.25,0 -42.92,-42.92 c -12.2,-12.2 -29.71,-20.958 -54.83,-20.958 z"
       id="path59"
       style="opacity:0.25;fill-rule:evenodd"
       inkscape:connector-curvature="0" />
    <path
       d="m -294.43186,427.76169 c -82.914,0 -83.28,89.28 -83.28,89.28 l 0,101.53 c 0,19.1 13.12,44.553 25.875,57.28 22.549,22.504 38.13,19.281 38.13,19.281 0,0 0.216,6.28 6.594,25.375 6.377,19.1 25.15,31.938 44.28,31.938 19.13,0 25.844,-6.594 25.844,-6.594 l 0,-25.344 c 0,0 -6.495,0.208 -19.25,-6.156 -12.758,-6.365 -12.75,-19.219 -12.75,-19.219 0,0 19.02,-6.28 38.16,-25.375 19.13,-19.1 19.313,-51.19 19.313,-51.19 l 0,-95.44 c 0,0 0.002,-95.37 -82.906,-95.37 m 126.31,13.13 -19.313,50.75 -12.719,0 0,25.406 12.719,0 0,133.91 c 0,0 0.111,31.5 32,31.5 31.889,0 38.19,-12.688 38.19,-12.688 l 0,-24.5 c -0.598,1.79 -3.152,5.656 -12.719,5.656 -12.756,0 -18.875,-12.656 -18.875,-12.656 l 0,-121.22 31.594,0 0,-25.406 -31.594,0 0,-50.75 -19.281,0 m -122.34,18.813 c 31.895,0 32,31.531 32,31.531 l 0,127.34 c 0,0 -0.111,44.594 -32,44.594 -31.895,0 -32,-44.594 -32,-44.594 l 0,-120.81 c 0,0 0.111,-38.03 32,-38.03 l 0,-0.031 m 293.3099956,2.875 c -8.361,0.068 -15.1859996,1.642 -18.9689996,4.469 -1.652,1.234 -2.699,2.725 -3.063,4.406 l -0.031,0 -0.031,0.125 -3.25,16.719 71.44,13.813 3.219,-16.719 c 0.007,-0.037 0.024,-0.087 0.031,-0.125 1.372,-7.909 -13.278,-17.318 -32.969,-21.12 -5.796,-1.12 -11.3590004,-1.603 -16.3750004,-1.563 m -27.1299996,35 -3.406,17.688 71.41,13.781 3.438,-17.688 -71.44,-13.781 m -5.531,28.594 -20.844,107.84 -2.563,13.25 -0.656,3.375 17.969,61.19 a 7.906,8.8084 0.19094 0 0 7,5.8125 7.906,8.8084 0.19094 0 0 6.4062,-3.1562 l 40.16,-50.625 0.531,-2.781 2.469,-12.875 20.938,-108.22 -71.41,-13.813 m 15.02,114.4 a 2.2064,2.2064 0 0 1 0.375,0 2.2064,2.2064 0 0 1 1.5938,1.0312 l 9.5939996,15.75 4.688,0.875 a 2.2064,2.2064 0 0 1 1.2188,3.625 l -19.7189996,22.719 a 2.2064,2.2064 0 0 1 -2.0625,0.71875 l -7.844,-1.5 a 2.2064,2.2064 0 0 1 -1.6875,-1.5 l -9.688,-29.469 a 2.2064,2.2064 0 0 1 2.5,-2.875 l 6.313,1.219 13.5,-10.156 a 2.2064,2.2064 0 0 1 1.2188,-0.4375"
       id="path215"
       style="fill:#ffffff;fill-rule:evenodd"
       inkscape:connector-curvature="0" />
  </g>
</svg>
