<?xml version="1.0" encoding="UTF-8" standalone="no"?>
<!-- Created with Inkscape (http://www.inkscape.org/) -->

<svg
   xmlns:dc="http://purl.org/dc/elements/1.1/"
   xmlns:cc="http://creativecommons.org/ns#"
   xmlns:rdf="http://www.w3.org/1999/02/22-rdf-syntax-ns#"
   xmlns:svg="http://www.w3.org/2000/svg"
   xmlns="http://www.w3.org/2000/svg"
   xmlns:xlink="http://www.w3.org/1999/xlink"
   xmlns:sodipodi="http://sodipodi.sourceforge.net/DTD/sodipodi-0.dtd"
   xmlns:inkscape="http://www.inkscape.org/namespaces/inkscape"
   id="svg2"
   height="100%"
   width="100%"
   version="1.1"
   viewBox="0 0 512 512"
   inkscape:version="0.91+devel r13804 custom"
   sodipodi:docname="distributor-logo-magiea.svg">
  <sodipodi:namedview
     pagecolor="#ffffff"
     bordercolor="#666666"
     borderopacity="1"
     objecttolerance="10"
     gridtolerance="10"
     guidetolerance="10"
     inkscape:pageopacity="0"
     inkscape:pageshadow="2"
     inkscape:window-width="1366"
     inkscape:window-height="709"
     id="namedview2915"
     showgrid="false"
     inkscape:zoom="0.4609375"
     inkscape:cx="-8.6779661"
     inkscape:cy="237.55932"
     inkscape:window-x="-2"
     inkscape:window-y="-3"
     inkscape:window-maximized="1"
     inkscape:current-layer="svg2" />
  <metadata
     id="metadata241">
    <rdf:RDF>
      <cc:Work
         rdf:about="">
        <dc:format>image/svg+xml</dc:format>
        <dc:type
           rdf:resource="http://purl.org/dc/dcmitype/StillImage" />
        <dc:title />
      </cc:Work>
    </rdf:RDF>
  </metadata>
  <defs
     id="defs4">
    <linearGradient
       id="ButtonShadow-5"
       x1="45.448"
       gradientUnits="userSpaceOnUse"
       y1="92.54"
       gradientTransform="scale(1.0059 .99417)"
       x2="45.448"
       y2="7.0165">
      <stop
         id="stop3750-0"
         offset="0" />
      <stop
         id="stop3752-8"
         stop-opacity=".58824"
         offset="1" />
    </linearGradient>
    <filter
       id="filter3174-8"
       color-interpolation-filters="sRGB">
      <feGaussianBlur
         id="feGaussianBlur3176-5"
         stdDeviation="1.71" />
    </filter>
    <linearGradient
       id="linearGradient3737">
      <stop
         id="stop3739"
         stop-color="#fff"
         offset="0" />
      <stop
         id="stop3741"
         stop-color="#fff"
         stop-opacity="0"
         offset="1" />
    </linearGradient>
    <filter
       id="filter3174"
       color-interpolation-filters="sRGB">
      <feGaussianBlur
         id="feGaussianBlur3176"
         stdDeviation="1.71" />
    </filter>
    <filter
       id="filter3794"
       height="1.384"
       width="1.384"
       color-interpolation-filters="sRGB"
       y="-.192"
       x="-.192">
      <feGaussianBlur
         id="feGaussianBlur3796"
         stdDeviation="5.28" />
    </filter>
    <linearGradient
       id="linearGradient3613"
       x1="48"
       xlink:href="#linearGradient3737"
       gradientUnits="userSpaceOnUse"
       y1="20.221"
       x2="48"
       y2="138.66" />
    <clipPath
       id="clipPath3613">
      <rect
         id="rect3615"
         rx="6"
         ry="6"
         height="84"
         width="84"
         y="6"
         x="6"
         fill="#fff" />
    </clipPath>
    <filter
       id="filter3174-3"
       color-interpolation-filters="sRGB">
      <feGaussianBlur
         id="feGaussianBlur3176-2"
         stdDeviation="1.71" />
    </filter>
    <filter
       id="filter3794-0"
       height="1.384"
       width="1.384"
       color-interpolation-filters="sRGB"
       y="-.192"
       x="-.192">
      <feGaussianBlur
         id="feGaussianBlur3796-3"
         stdDeviation="5.28" />
    </filter>
    <clipPath
       id="clipPath3613-1">
      <rect
         id="rect3615-9"
         rx="6"
         ry="6"
         height="84"
         width="84"
         y="6"
         x="6"
         fill="#fff" />
    </clipPath>
    <filter
       id="filter3174-8-3"
       color-interpolation-filters="sRGB">
      <feGaussianBlur
         id="feGaussianBlur3176-5-8"
         stdDeviation="1.71" />
    </filter>
    <filter
       id="filter3174-0"
       color-interpolation-filters="sRGB">
      <feGaussianBlur
         id="feGaussianBlur3176-6"
         stdDeviation="1.71" />
    </filter>
    <filter
       id="filter3794-9"
       height="1.384"
       width="1.384"
       color-interpolation-filters="sRGB"
       y="-.192"
       x="-.192">
      <feGaussianBlur
         id="feGaussianBlur3796-2"
         stdDeviation="5.28" />
    </filter>
    <clipPath
       id="clipPath3613-2">
      <rect
         id="rect3615-3"
         rx="6"
         ry="6"
         height="84"
         width="84"
         y="6"
         x="6"
         fill="#fff" />
    </clipPath>
    <filter
       id="filter3174-35"
       color-interpolation-filters="sRGB">
      <feGaussianBlur
         id="feGaussianBlur3176-3"
         stdDeviation="1.71" />
    </filter>
    <filter
       id="filter3794-91"
       height="1.384"
       width="1.384"
       color-interpolation-filters="sRGB"
       y="-.192"
       x="-.192">
      <feGaussianBlur
         id="feGaussianBlur3796-7"
         stdDeviation="5.28" />
    </filter>
    <clipPath
       id="clipPath3613-8">
      <rect
         id="rect3615-8"
         rx="6"
         ry="6"
         height="84"
         width="84"
         y="6"
         x="6"
         fill="#fff" />
    </clipPath>
    <filter
       id="filter3174-4"
       color-interpolation-filters="sRGB">
      <feGaussianBlur
         id="feGaussianBlur3176-37"
         stdDeviation="1.71" />
    </filter>
    <filter
       id="filter3794-4"
       height="1.384"
       width="1.384"
       color-interpolation-filters="sRGB"
       y="-.192"
       x="-.192">
      <feGaussianBlur
         id="feGaussianBlur3796-9"
         stdDeviation="5.28" />
    </filter>
    <clipPath
       id="clipPath3613-9">
      <rect
         id="rect3615-1"
         rx="6"
         ry="6"
         height="84"
         width="84"
         y="6"
         x="6"
         fill="#fff" />
    </clipPath>
    <linearGradient
       id="linearGradient11572"
       y2="7.0165"
       xlink:href="#ButtonShadow-5"
       gradientUnits="userSpaceOnUse"
       x2="45.448"
       gradientTransform="scale(1.0059 .99417)"
       y1="92.54"
       x1="45.448" />
  </defs>
  <g
     id="layer2"
     display="none"
     transform="matrix(13.4 0 0 13.4 -1705.8 -834.03)">
    <rect
       id="rect3745"
       opacity=".9"
       rx="6"
       ry="6"
       height="85"
       filter="url(#filter3174)"
       width="86"
       y="7"
       x="5"
       fill="url(#linearGradient11572)" />
  </g>
  <g
     id="layer5"
     display="none"
     transform="matrix(13.4 0 0 13.4 -1705.8 -834.03)">
    <rect
       id="rect3171"
       height="66"
       stroke="#fff"
       stroke-linecap="round"
       stroke-width=".5"
       fill="url(#linearGradient3613)"
       rx="12"
       ry="12"
       width="66"
       opacity=".1"
       clip-path="url(#clipPath3613)"
       filter="url(#filter3794)"
       y="15"
       x="15" />
  </g>
  <g
     id="layer2-5"
     display="none"
     transform="translate(-118.36 -21.072)">
    <rect
       id="rect3745-0"
       opacity=".9"
       rx="6"
       ry="6"
       height="85"
       filter="url(#filter3174-8)"
       width="86"
       y="7"
       x="5"
       fill="url(#linearGradient11572)" />
  </g>
  <g
     id="layer2-8"
     display="none"
     transform="matrix(13.4 0 0 13.4 -1708.9 -839.43)">
    <rect
       id="rect3745-3"
       opacity=".9"
       rx="6"
       ry="6"
       height="85"
       filter="url(#filter3174-3)"
       width="86"
       y="7"
       x="5"
       fill="url(#linearGradient11572)" />
  </g>
  <g
     id="layer5-5"
     display="none"
     transform="matrix(13.4 0 0 13.4 -1708.9 -839.43)">
    <rect
       id="rect3171-2"
       height="66"
       stroke="#fff"
       stroke-linecap="round"
       stroke-width=".5"
       fill="url(#linearGradient3613)"
       rx="12"
       ry="12"
       width="66"
       opacity=".1"
       clip-path="url(#clipPath3613-1)"
       filter="url(#filter3794-0)"
       y="15"
       x="15" />
  </g>
  <g
     id="layer2-3"
     display="none"
     transform="matrix(13.4 0 0 13.4 -1693.5 -882.16)">
    <rect
       id="rect3745-6"
       opacity=".9"
       rx="6"
       ry="6"
       height="85"
       filter="url(#filter3174-0)"
       width="86"
       y="7"
       x="5"
       fill="url(#linearGradient11572)" />
  </g>
  <g
     id="layer5-3"
     display="none"
     transform="matrix(13.4 0 0 13.4 -1693.5 -882.16)">
    <rect
       id="rect3171-7"
       height="66"
       stroke="#fff"
       stroke-linecap="round"
       stroke-width=".5"
       fill="url(#linearGradient3613)"
       rx="12"
       ry="12"
       width="66"
       opacity=".1"
       clip-path="url(#clipPath3613-2)"
       filter="url(#filter3794-9)"
       y="15"
       x="15" />
  </g>
  <g
     id="layer2-5-4"
     display="none"
     transform="translate(-106.08 -69.206)">
    <rect
       id="rect3745-0-9"
       opacity=".9"
       rx="6"
       ry="6"
       height="85"
       filter="url(#filter3174-8-3)"
       width="86"
       y="7"
       x="5"
       fill="url(#linearGradient11572)" />
  </g>
  <g
     id="layer2-33"
     display="none"
     transform="matrix(13.4 0 0 13.4 -1500.2 -968.07)">
    <rect
       id="rect3745-1"
       opacity=".9"
       rx="6"
       ry="6"
       height="85"
       filter="url(#filter3174-35)"
       width="86"
       y="7"
       x="5"
       fill="url(#linearGradient11572)" />
  </g>
  <g
     id="layer5-6"
     display="none"
     transform="matrix(13.4 0 0 13.4 -1500.2 -968.07)">
    <rect
       id="rect3171-4"
       height="66"
       stroke="#fff"
       stroke-linecap="round"
       stroke-width=".5"
       fill="url(#linearGradient3613)"
       rx="12"
       ry="12"
       width="66"
       opacity=".1"
       clip-path="url(#clipPath3613-8)"
       filter="url(#filter3794-91)"
       y="15"
       x="15" />
  </g>
  <g
     id="layer2-58"
     display="none"
     transform="matrix(13.4 0 0 13.4 -1659.8 -887.77)">
    <rect
       id="rect3745-7"
       opacity=".9"
       rx="6"
       ry="6"
       height="85"
       filter="url(#filter3174-4)"
       width="86"
       y="7"
       x="5"
       fill="url(#linearGradient11572)" />
  </g>
  <g
     id="layer5-0"
     display="none"
     transform="matrix(13.4 0 0 13.4 -1659.8 -887.77)">
    <rect
       id="rect3171-9"
       height="66"
       stroke="#fff"
       stroke-linecap="round"
       stroke-width=".5"
       fill="url(#linearGradient3613)"
       rx="12"
       ry="12"
       width="66"
       opacity=".1"
       clip-path="url(#clipPath3613-9)"
       filter="url(#filter3794-4)"
       y="15"
       x="15" />
  </g>
  <g
     id="g6264"
     transform="translate(219.11864,-318.91525)">
    <rect
       x="-219.11864"
       y="318.91525"
       width="512"
       height="512"
       rx="25.988001"
       id="rect9"
       style="fill:#526c88" />
    <path
       d="m 21.661356,359.91525 c -4.64,0.004 -9,1.81 -12.2800001,5.092 l 0,-0.002 0,0.004 c -3.28,3.285 -5.1,7.66 -5.09,12.308 l 17.3400001,17.342 -0.01,0 -17.3300001,-17.334 c 0,4.775 1.95,9.103 5.08,12.24 l 0,0.002 c 0.01,10e-4 0.01,0.003 0.01,0.004 l 34.1500001,34.154 c -3.22,-1.9 -6.98,-2.99 -10.98,-2.99 l -0.01,-0.01 c -5.8,0 -11.27,2.27 -15.37,6.38 l 30.71,30.71 0,0.01 -30.72,-30.72 c -4.1,4.1 -6.35,9.55 -6.34,15.37 l 0,0.01 c 0.01,5.97 2.44,11.38 6.37,15.31 l 0.1,0.1 c -0.04,-0.04 -0.07,-0.06 -0.11,-0.1 l 72.1,72.1 c -3.6,2.26 -7.31,4.27 -11.12,6.03 l -57.61,-57.61 c -4.73,-4.72 -11.2500001,-7.65 -18.4500001,-7.65 l 26.0900001,26.08 0,0.01 -26.0900001,-26.09 c -14.3699999,0.02 -26.0399999,11.7 -26.0299999,26.09 0.01,7.17 2.93,13.67 7.64,18.39 l 0.16,0.16 c -0.05,-0.06 -0.11,-0.11 -0.16,-0.16 l 26.0199999,26.02 c -13.41,-3.85 -25.9799999,-10.57 -37.1599999,-19.97 -3.92,-3.29 -8.74,-4.91 -13.56,-4.91 l 70.77,70.77 -0.01,0 -70.76,-70.76 c -4.82,0 -9.65,1.62 -13.56,4.91 l -0.01,-0.01 c -34.36,28.88 -54.059996,71.73 -54.059996,117.53 0,42.74 17.149996,81.38 44.669996,108.9 l 0.51,0.51 c -0.17,-0.17 -0.34,-0.33 -0.51,-0.5 l 83.28,83.28 247.560004,0 c 14.4,0 25.99,-11.59 25.99,-25.99 l 0,-207.95 -205.270004,-205.27 c 0.01,0.017 0.03,0.032 0.04,0.046 l -0.04,-0.039 c -3.54,-3.54 -8.43,-5.733 -13.82,-5.735 l 0,-0.001 c -5.22,0 -9.95,2.066 -13.46,5.412 l -26.39,-26.387 c 0.03,0.027 0.06,0.058 0.08,0.086 l -0.08,-0.082 c -3.14,-3.143 -7.48,-5.09 -12.28,-5.09 z"
       id="path59"
       style="opacity:0.25"
       inkscape:connector-curvature="0" />
    <path
       d="m 21.661356,359.91525 c -4.641,0.004 -9,1.81 -12.2810001,5.094 -3.277,3.286 -5.101,7.663 -5.094,12.313 0.007,9.571 7.8040001,17.344 17.3750001,17.344 l 0.031,0 c 9.582,0 17.353,-7.812 17.344,-17.406 -0.022,-9.566 -7.789,-17.344 -17.375,-17.344 m 52.13,26.06 c -10.78,0 -19.535,8.763 -19.531,19.563 0.007,10.765 8.795,19.531 19.563,19.531 5.221,-0.007 10.152,-2.023 13.844,-5.719 3.688,-3.692 5.692,-8.608 5.688,-13.844 -0.022,-10.767 -8.782,-19.531 -19.563,-19.531 m -41.25,34.75 c -5.803,0.004 -11.275,2.268 -15.375,6.375 -4.098,4.102 -6.348,9.553 -6.344,15.375 0.011,11.957 9.753,21.688 21.719,21.688 l 0.031,0 c 5.805,-0.004 11.246,-2.273 15.344,-6.375 4.098,-4.105 6.348,-9.555 6.344,-15.375 -0.022,-11.96 -9.733,-21.688 -21.719,-21.688 m 47.75,36.938 c -13.174,0 -23.888,10.717 -23.875,23.906 0.009,13.154 10.746,23.844 23.906,23.844 l 0,0.031 0.031,0 c 13.171,-0.022 23.855004,-10.749 23.844004,-23.938 -0.022,-13.154 -10.724004,-23.844 -23.906004,-23.844 m -78.1900001,13 c -14.3679999,0.022 -26.0399999,11.7 -26.0299999,26.09 0.015,14.346 11.708,26.03 26.0599999,26.03 l 0.031,0 c 14.3680001,-0.022 26.0400001,-11.7 26.0300001,-26.09 -0.022,-14.346 -11.717,-26.03 -26.0900001,-26.03 m -43.0899999,45.625 c -4.82,0 -9.647,1.616 -13.563,4.906 -34.36,28.884 -54.059996,71.73 -54.059996,117.53 0,83.37 65.269996,151.19 145.499996,151.19 80.220004,0 145.500004,-67.837 145.500004,-151.19 0,-45.823 -19.692,-88.67 -54.03,-117.53 -7.833,-6.578 -19.26,-6.58 -27.09,0 -18.473004,15.539 -40.742004,23.781 -64.370004,23.781 -23.604,0 -45.8400001,-8.245 -64.31,-23.781 -3.918,-3.291 -8.743,-4.906 -13.563,-4.906 m 2.125,48.781 c 22.688,14.398 48.995,22.19 75.75,22.19 26.781,0 53.09,-7.791 75.780004,-22.19 17.552,19.96 27.375,46.07 27.375,73.75 0,59.935 -46.280004,108.69 -103.160004,108.69 -56.879,0 -103.16,-48.746 -103.16,-108.69 0,-27.65 9.828,-53.779 27.406,-73.75"
       id="path173"
       style="fill:#ffffff"
       inkscape:connector-curvature="0" />
  </g>
</svg>
