<?xml version="1.0" encoding="UTF-8" standalone="no"?>
<!-- Created with Inkscape (http://www.inkscape.org/) -->

<svg
   xmlns:dc="http://purl.org/dc/elements/1.1/"
   xmlns:cc="http://creativecommons.org/ns#"
   xmlns:rdf="http://www.w3.org/1999/02/22-rdf-syntax-ns#"
   xmlns:svg="http://www.w3.org/2000/svg"
   xmlns="http://www.w3.org/2000/svg"
   xmlns:xlink="http://www.w3.org/1999/xlink"
   xmlns:sodipodi="http://sodipodi.sourceforge.net/DTD/sodipodi-0.dtd"
   xmlns:inkscape="http://www.inkscape.org/namespaces/inkscape"
   id="svg2"
   height="100%"
   width="100%"
   version="1.1"
   viewBox="0 0 512 512"
   inkscape:version="0.91+devel r13804 custom"
   sodipodi:docname="distributor-logo-chakra.svg">
  <sodipodi:namedview
     pagecolor="#ffffff"
     bordercolor="#666666"
     borderopacity="1"
     objecttolerance="10"
     gridtolerance="10"
     guidetolerance="10"
     inkscape:pageopacity="0"
     inkscape:pageshadow="2"
     inkscape:window-width="1366"
     inkscape:window-height="709"
     id="namedview2731"
     showgrid="false"
     inkscape:zoom="0.4609375"
     inkscape:cx="-8.6779661"
     inkscape:cy="237.55932"
     inkscape:window-x="-2"
     inkscape:window-y="-3"
     inkscape:window-maximized="1"
     inkscape:current-layer="svg2" />
  <metadata
     id="metadata241">
    <rdf:RDF>
      <cc:Work
         rdf:about="">
        <dc:format>image/svg+xml</dc:format>
        <dc:type
           rdf:resource="http://purl.org/dc/dcmitype/StillImage" />
        <dc:title />
      </cc:Work>
    </rdf:RDF>
  </metadata>
  <defs
     id="defs4">
    <linearGradient
       id="ButtonShadow-5"
       x1="45.448"
       gradientUnits="userSpaceOnUse"
       y1="92.54"
       gradientTransform="scale(1.0059 .99417)"
       x2="45.448"
       y2="7.0165">
      <stop
         id="stop3750-0"
         offset="0" />
      <stop
         id="stop3752-8"
         stop-opacity=".58824"
         offset="1" />
    </linearGradient>
    <filter
       id="filter3174-8"
       color-interpolation-filters="sRGB">
      <feGaussianBlur
         id="feGaussianBlur3176-5"
         stdDeviation="1.71" />
    </filter>
    <linearGradient
       id="linearGradient3737">
      <stop
         id="stop3739"
         stop-color="#fff"
         offset="0" />
      <stop
         id="stop3741"
         stop-color="#fff"
         stop-opacity="0"
         offset="1" />
    </linearGradient>
    <filter
       id="filter3174"
       color-interpolation-filters="sRGB">
      <feGaussianBlur
         id="feGaussianBlur3176"
         stdDeviation="1.71" />
    </filter>
    <filter
       id="filter3794"
       height="1.384"
       width="1.384"
       color-interpolation-filters="sRGB"
       y="-.192"
       x="-.192">
      <feGaussianBlur
         id="feGaussianBlur3796"
         stdDeviation="5.28" />
    </filter>
    <linearGradient
       id="linearGradient3613"
       x1="48"
       xlink:href="#linearGradient3737"
       gradientUnits="userSpaceOnUse"
       y1="20.221"
       x2="48"
       y2="138.66" />
    <clipPath
       id="clipPath3613">
      <rect
         id="rect3615"
         rx="6"
         ry="6"
         height="84"
         width="84"
         y="6"
         x="6"
         fill="#fff" />
    </clipPath>
    <filter
       id="filter3174-3"
       color-interpolation-filters="sRGB">
      <feGaussianBlur
         id="feGaussianBlur3176-2"
         stdDeviation="1.71" />
    </filter>
    <filter
       id="filter3794-0"
       height="1.384"
       width="1.384"
       color-interpolation-filters="sRGB"
       y="-.192"
       x="-.192">
      <feGaussianBlur
         id="feGaussianBlur3796-3"
         stdDeviation="5.28" />
    </filter>
    <clipPath
       id="clipPath3613-1">
      <rect
         id="rect3615-9"
         rx="6"
         ry="6"
         height="84"
         width="84"
         y="6"
         x="6"
         fill="#fff" />
    </clipPath>
    <filter
       id="filter3174-8-3"
       color-interpolation-filters="sRGB">
      <feGaussianBlur
         id="feGaussianBlur3176-5-8"
         stdDeviation="1.71" />
    </filter>
    <filter
       id="filter3174-0"
       color-interpolation-filters="sRGB">
      <feGaussianBlur
         id="feGaussianBlur3176-6"
         stdDeviation="1.71" />
    </filter>
    <filter
       id="filter3794-9"
       height="1.384"
       width="1.384"
       color-interpolation-filters="sRGB"
       y="-.192"
       x="-.192">
      <feGaussianBlur
         id="feGaussianBlur3796-2"
         stdDeviation="5.28" />
    </filter>
    <clipPath
       id="clipPath3613-2">
      <rect
         id="rect3615-3"
         rx="6"
         ry="6"
         height="84"
         width="84"
         y="6"
         x="6"
         fill="#fff" />
    </clipPath>
    <filter
       id="filter3174-35"
       color-interpolation-filters="sRGB">
      <feGaussianBlur
         id="feGaussianBlur3176-3"
         stdDeviation="1.71" />
    </filter>
    <filter
       id="filter3794-91"
       height="1.384"
       width="1.384"
       color-interpolation-filters="sRGB"
       y="-.192"
       x="-.192">
      <feGaussianBlur
         id="feGaussianBlur3796-7"
         stdDeviation="5.28" />
    </filter>
    <clipPath
       id="clipPath3613-8">
      <rect
         id="rect3615-8"
         rx="6"
         ry="6"
         height="84"
         width="84"
         y="6"
         x="6"
         fill="#fff" />
    </clipPath>
    <filter
       id="filter3174-4"
       color-interpolation-filters="sRGB">
      <feGaussianBlur
         id="feGaussianBlur3176-37"
         stdDeviation="1.71" />
    </filter>
    <filter
       id="filter3794-4"
       height="1.384"
       width="1.384"
       color-interpolation-filters="sRGB"
       y="-.192"
       x="-.192">
      <feGaussianBlur
         id="feGaussianBlur3796-9"
         stdDeviation="5.28" />
    </filter>
    <clipPath
       id="clipPath3613-9">
      <rect
         id="rect3615-1"
         rx="6"
         ry="6"
         height="84"
         width="84"
         y="6"
         x="6"
         fill="#fff" />
    </clipPath>
    <linearGradient
       id="linearGradient11572"
       y2="7.0165"
       xlink:href="#ButtonShadow-5"
       gradientUnits="userSpaceOnUse"
       x2="45.448"
       gradientTransform="scale(1.0059 .99417)"
       y1="92.54"
       x1="45.448" />
  </defs>
  <g
     id="layer2"
     display="none"
     transform="matrix(13.4 0 0 13.4 -1705.8 -834.03)">
    <rect
       id="rect3745"
       opacity=".9"
       rx="6"
       ry="6"
       height="85"
       filter="url(#filter3174)"
       width="86"
       y="7"
       x="5"
       fill="url(#linearGradient11572)" />
  </g>
  <g
     id="layer5"
     display="none"
     transform="matrix(13.4 0 0 13.4 -1705.8 -834.03)">
    <rect
       id="rect3171"
       height="66"
       stroke="#fff"
       stroke-linecap="round"
       stroke-width=".5"
       fill="url(#linearGradient3613)"
       rx="12"
       ry="12"
       width="66"
       opacity=".1"
       clip-path="url(#clipPath3613)"
       filter="url(#filter3794)"
       y="15"
       x="15" />
  </g>
  <g
     id="layer2-5"
     display="none"
     transform="translate(-118.36 -21.072)">
    <rect
       id="rect3745-0"
       opacity=".9"
       rx="6"
       ry="6"
       height="85"
       filter="url(#filter3174-8)"
       width="86"
       y="7"
       x="5"
       fill="url(#linearGradient11572)" />
  </g>
  <g
     id="layer2-8"
     display="none"
     transform="matrix(13.4 0 0 13.4 -1708.9 -839.43)">
    <rect
       id="rect3745-3"
       opacity=".9"
       rx="6"
       ry="6"
       height="85"
       filter="url(#filter3174-3)"
       width="86"
       y="7"
       x="5"
       fill="url(#linearGradient11572)" />
  </g>
  <g
     id="layer5-5"
     display="none"
     transform="matrix(13.4 0 0 13.4 -1708.9 -839.43)">
    <rect
       id="rect3171-2"
       height="66"
       stroke="#fff"
       stroke-linecap="round"
       stroke-width=".5"
       fill="url(#linearGradient3613)"
       rx="12"
       ry="12"
       width="66"
       opacity=".1"
       clip-path="url(#clipPath3613-1)"
       filter="url(#filter3794-0)"
       y="15"
       x="15" />
  </g>
  <g
     id="layer2-3"
     display="none"
     transform="matrix(13.4 0 0 13.4 -1693.5 -882.16)">
    <rect
       id="rect3745-6"
       opacity=".9"
       rx="6"
       ry="6"
       height="85"
       filter="url(#filter3174-0)"
       width="86"
       y="7"
       x="5"
       fill="url(#linearGradient11572)" />
  </g>
  <g
     id="layer5-3"
     display="none"
     transform="matrix(13.4 0 0 13.4 -1693.5 -882.16)">
    <rect
       id="rect3171-7"
       height="66"
       stroke="#fff"
       stroke-linecap="round"
       stroke-width=".5"
       fill="url(#linearGradient3613)"
       rx="12"
       ry="12"
       width="66"
       opacity=".1"
       clip-path="url(#clipPath3613-2)"
       filter="url(#filter3794-9)"
       y="15"
       x="15" />
  </g>
  <g
     id="layer2-5-4"
     display="none"
     transform="translate(-106.08 -69.206)">
    <rect
       id="rect3745-0-9"
       opacity=".9"
       rx="6"
       ry="6"
       height="85"
       filter="url(#filter3174-8-3)"
       width="86"
       y="7"
       x="5"
       fill="url(#linearGradient11572)" />
  </g>
  <g
     id="layer2-33"
     display="none"
     transform="matrix(13.4 0 0 13.4 -1500.2 -968.07)">
    <rect
       id="rect3745-1"
       opacity=".9"
       rx="6"
       ry="6"
       height="85"
       filter="url(#filter3174-35)"
       width="86"
       y="7"
       x="5"
       fill="url(#linearGradient11572)" />
  </g>
  <g
     id="layer5-6"
     display="none"
     transform="matrix(13.4 0 0 13.4 -1500.2 -968.07)">
    <rect
       id="rect3171-4"
       height="66"
       stroke="#fff"
       stroke-linecap="round"
       stroke-width=".5"
       fill="url(#linearGradient3613)"
       rx="12"
       ry="12"
       width="66"
       opacity=".1"
       clip-path="url(#clipPath3613-8)"
       filter="url(#filter3794-91)"
       y="15"
       x="15" />
  </g>
  <g
     id="layer2-58"
     display="none"
     transform="matrix(13.4 0 0 13.4 -1659.8 -887.77)">
    <rect
       id="rect3745-7"
       opacity=".9"
       rx="6"
       ry="6"
       height="85"
       filter="url(#filter3174-4)"
       width="86"
       y="7"
       x="5"
       fill="url(#linearGradient11572)" />
  </g>
  <g
     id="layer5-0"
     display="none"
     transform="matrix(13.4 0 0 13.4 -1659.8 -887.77)">
    <rect
       id="rect3171-9"
       height="66"
       stroke="#fff"
       stroke-linecap="round"
       stroke-width=".5"
       fill="url(#linearGradient3613)"
       rx="12"
       ry="12"
       width="66"
       opacity=".1"
       clip-path="url(#clipPath3613-9)"
       filter="url(#filter3794-4)"
       y="15"
       x="15" />
  </g>
  <g
     id="g6080"
     transform="translate(377.49152,-318.91525)">
    <rect
       x="-377.49152"
       y="318.91525"
       width="512"
       height="512"
       rx="25.988001"
       id="rect9-3"
       style="fill:#2ea0d2" />
    <path
       d="m -111.44153,366.15125 114.7000046,114.69 c 0,0.01 -0.01,0.01 -0.01,0.02 l -114.7000046,-114.71 c -24.27,0.765 8.8,61.49 29.780005,119.29 l -33.260005,-33.26 c 0.06,0.07 0.12,0.13 0.19,0.2 l -0.19,-0.19 c -33.32,-33.321 -90.27,-53.21 -130.85,-53.27 -74.109,-0.095 -35.933,24.07 -71.823,82.15 l 18.07,18.07 -0.004,0 -18.07,-18.07 c -3.505,5.67 -3.462,9.72 -0.623,12.56 l 45.8,45.8 c -26.806,23.11 -47.959,54.1 -56.861,80.59 -9.823,29.23 -8.976,40.9 -1.213,48.66 l 162.22,162.23 276.8,0 c 14.4,0 25.99,-11.59 25.99,-25.99 l 0,-276.35 -154.889995,-154.89 c 0.05,0.057 0.11,0.123 0.17,0.181 l -0.18,-0.18 c -15.99,-15.986 -35.61,4.274 -85.700005,-6.935 -2.03,-0.454 -3.8,-0.65 -5.35,-0.6 z"
       id="path59-1"
       style="opacity:0.25;fill-rule:evenodd"
       inkscape:connector-curvature="0" />
    <path
       d="m -111.45153,366.15525 c -47.915,1.509 127.660005,236.7 -7.543,221.69 112.7400046,30.32 138.570005,-110.99 115.5500046,-180.13 -22.8079996,-68.48 -34.6739996,-25.755 -102.6500046,-40.963 -2.029,-0.454 -3.805,-0.65 -5.35,-0.6 m -134.34,32.774 c -74.11,-0.095 -35.934,24.07 -71.824,82.15 -34.29,55.46 270.850005,-43.875 212.54,80.23 64.540005,-94.74 -65.897,-162.27 -140.71,-162.37 m 52.16,106.18 c -59.3,-0.137 -118.98,65.28 -135.66,114.92 -22.992,68.42 12.465,40.625 58.25,91.72 43.727,48.804 40.729,-263.7 144.25,-171.49 -20.489,-24.999 -43.637,-35.1 -66.841,-35.15 m 256.900005,11.07 c -36.821,-2.784 -187.670005,186.1 -212.550005,67.03 5.135,113.5 151.5400046,93.67 212.120005,51.05 60.019995,-42.23 14.499,-39.974 8.389,-107.44 -0.639,-7.05 -3.44,-10.286 -7.961,-10.628 m -217.380005,37.623 c -109.58,39.815 -44.911,168.89 15.559,211.66 59.902005,42.38 43.634005,1.044 107.830005,-25.45 61.31,-25.302 -245.680005,-119.1 -123.390005,-186.22"
       id="path123"
       style="fill:#ffffff;fill-rule:evenodd"
       inkscape:connector-curvature="0" />
  </g>
</svg>
