<?xml version="1.0" encoding="UTF-8" standalone="no"?>
<!-- Created with Inkscape (http://www.inkscape.org/) -->

<svg
   xmlns:dc="http://purl.org/dc/elements/1.1/"
   xmlns:cc="http://creativecommons.org/ns#"
   xmlns:rdf="http://www.w3.org/1999/02/22-rdf-syntax-ns#"
   xmlns:svg="http://www.w3.org/2000/svg"
   xmlns="http://www.w3.org/2000/svg"
   xmlns:xlink="http://www.w3.org/1999/xlink"
   xmlns:sodipodi="http://sodipodi.sourceforge.net/DTD/sodipodi-0.dtd"
   xmlns:inkscape="http://www.inkscape.org/namespaces/inkscape"
   id="svg2"
   height="100%"
   width="100%"
   version="1.1"
   viewBox="0 0 512 512"
   inkscape:version="0.91+devel r13804 custom"
   sodipodi:docname="distributor-logo-gentoo.svg">
  <sodipodi:namedview
     pagecolor="#ffffff"
     bordercolor="#666666"
     borderopacity="1"
     objecttolerance="10"
     gridtolerance="10"
     guidetolerance="10"
     inkscape:pageopacity="0"
     inkscape:pageshadow="2"
     inkscape:window-width="1366"
     inkscape:window-height="709"
     id="namedview2823"
     showgrid="false"
     inkscape:zoom="0.4609375"
     inkscape:cx="-8.6779661"
     inkscape:cy="237.55932"
     inkscape:window-x="-2"
     inkscape:window-y="-3"
     inkscape:window-maximized="1"
     inkscape:current-layer="svg2" />
  <metadata
     id="metadata241">
    <rdf:RDF>
      <cc:Work
         rdf:about="">
        <dc:format>image/svg+xml</dc:format>
        <dc:type
           rdf:resource="http://purl.org/dc/dcmitype/StillImage" />
        <dc:title />
      </cc:Work>
    </rdf:RDF>
  </metadata>
  <defs
     id="defs4">
    <linearGradient
       id="ButtonShadow-5"
       x1="45.448"
       gradientUnits="userSpaceOnUse"
       y1="92.54"
       gradientTransform="scale(1.0059 .99417)"
       x2="45.448"
       y2="7.0165">
      <stop
         id="stop3750-0"
         offset="0" />
      <stop
         id="stop3752-8"
         stop-opacity=".58824"
         offset="1" />
    </linearGradient>
    <filter
       id="filter3174-8"
       color-interpolation-filters="sRGB">
      <feGaussianBlur
         id="feGaussianBlur3176-5"
         stdDeviation="1.71" />
    </filter>
    <linearGradient
       id="linearGradient3737">
      <stop
         id="stop3739"
         stop-color="#fff"
         offset="0" />
      <stop
         id="stop3741"
         stop-color="#fff"
         stop-opacity="0"
         offset="1" />
    </linearGradient>
    <filter
       id="filter3174"
       color-interpolation-filters="sRGB">
      <feGaussianBlur
         id="feGaussianBlur3176"
         stdDeviation="1.71" />
    </filter>
    <filter
       id="filter3794"
       height="1.384"
       width="1.384"
       color-interpolation-filters="sRGB"
       y="-.192"
       x="-.192">
      <feGaussianBlur
         id="feGaussianBlur3796"
         stdDeviation="5.28" />
    </filter>
    <linearGradient
       id="linearGradient3613"
       x1="48"
       xlink:href="#linearGradient3737"
       gradientUnits="userSpaceOnUse"
       y1="20.221"
       x2="48"
       y2="138.66" />
    <clipPath
       id="clipPath3613">
      <rect
         id="rect3615"
         rx="6"
         ry="6"
         height="84"
         width="84"
         y="6"
         x="6"
         fill="#fff" />
    </clipPath>
    <filter
       id="filter3174-3"
       color-interpolation-filters="sRGB">
      <feGaussianBlur
         id="feGaussianBlur3176-2"
         stdDeviation="1.71" />
    </filter>
    <filter
       id="filter3794-0"
       height="1.384"
       width="1.384"
       color-interpolation-filters="sRGB"
       y="-.192"
       x="-.192">
      <feGaussianBlur
         id="feGaussianBlur3796-3"
         stdDeviation="5.28" />
    </filter>
    <clipPath
       id="clipPath3613-1">
      <rect
         id="rect3615-9"
         rx="6"
         ry="6"
         height="84"
         width="84"
         y="6"
         x="6"
         fill="#fff" />
    </clipPath>
    <filter
       id="filter3174-8-3"
       color-interpolation-filters="sRGB">
      <feGaussianBlur
         id="feGaussianBlur3176-5-8"
         stdDeviation="1.71" />
    </filter>
    <filter
       id="filter3174-0"
       color-interpolation-filters="sRGB">
      <feGaussianBlur
         id="feGaussianBlur3176-6"
         stdDeviation="1.71" />
    </filter>
    <filter
       id="filter3794-9"
       height="1.384"
       width="1.384"
       color-interpolation-filters="sRGB"
       y="-.192"
       x="-.192">
      <feGaussianBlur
         id="feGaussianBlur3796-2"
         stdDeviation="5.28" />
    </filter>
    <clipPath
       id="clipPath3613-2">
      <rect
         id="rect3615-3"
         rx="6"
         ry="6"
         height="84"
         width="84"
         y="6"
         x="6"
         fill="#fff" />
    </clipPath>
    <filter
       id="filter3174-35"
       color-interpolation-filters="sRGB">
      <feGaussianBlur
         id="feGaussianBlur3176-3"
         stdDeviation="1.71" />
    </filter>
    <filter
       id="filter3794-91"
       height="1.384"
       width="1.384"
       color-interpolation-filters="sRGB"
       y="-.192"
       x="-.192">
      <feGaussianBlur
         id="feGaussianBlur3796-7"
         stdDeviation="5.28" />
    </filter>
    <clipPath
       id="clipPath3613-8">
      <rect
         id="rect3615-8"
         rx="6"
         ry="6"
         height="84"
         width="84"
         y="6"
         x="6"
         fill="#fff" />
    </clipPath>
    <filter
       id="filter3174-4"
       color-interpolation-filters="sRGB">
      <feGaussianBlur
         id="feGaussianBlur3176-37"
         stdDeviation="1.71" />
    </filter>
    <filter
       id="filter3794-4"
       height="1.384"
       width="1.384"
       color-interpolation-filters="sRGB"
       y="-.192"
       x="-.192">
      <feGaussianBlur
         id="feGaussianBlur3796-9"
         stdDeviation="5.28" />
    </filter>
    <clipPath
       id="clipPath3613-9">
      <rect
         id="rect3615-1"
         rx="6"
         ry="6"
         height="84"
         width="84"
         y="6"
         x="6"
         fill="#fff" />
    </clipPath>
    <linearGradient
       id="linearGradient11572"
       y2="7.0165"
       xlink:href="#ButtonShadow-5"
       gradientUnits="userSpaceOnUse"
       x2="45.448"
       gradientTransform="scale(1.0059 .99417)"
       y1="92.54"
       x1="45.448" />
  </defs>
  <g
     id="layer2"
     display="none"
     transform="matrix(13.4 0 0 13.4 -1705.8 -834.03)">
    <rect
       id="rect3745"
       opacity=".9"
       rx="6"
       ry="6"
       height="85"
       filter="url(#filter3174)"
       width="86"
       y="7"
       x="5"
       fill="url(#linearGradient11572)" />
  </g>
  <g
     id="layer5"
     display="none"
     transform="matrix(13.4 0 0 13.4 -1705.8 -834.03)">
    <rect
       id="rect3171"
       height="66"
       stroke="#fff"
       stroke-linecap="round"
       stroke-width=".5"
       fill="url(#linearGradient3613)"
       rx="12"
       ry="12"
       width="66"
       opacity=".1"
       clip-path="url(#clipPath3613)"
       filter="url(#filter3794)"
       y="15"
       x="15" />
  </g>
  <g
     id="layer2-5"
     display="none"
     transform="translate(-118.36 -21.072)">
    <rect
       id="rect3745-0"
       opacity=".9"
       rx="6"
       ry="6"
       height="85"
       filter="url(#filter3174-8)"
       width="86"
       y="7"
       x="5"
       fill="url(#linearGradient11572)" />
  </g>
  <g
     id="layer2-8"
     display="none"
     transform="matrix(13.4 0 0 13.4 -1708.9 -839.43)">
    <rect
       id="rect3745-3"
       opacity=".9"
       rx="6"
       ry="6"
       height="85"
       filter="url(#filter3174-3)"
       width="86"
       y="7"
       x="5"
       fill="url(#linearGradient11572)" />
  </g>
  <g
     id="layer5-5"
     display="none"
     transform="matrix(13.4 0 0 13.4 -1708.9 -839.43)">
    <rect
       id="rect3171-2"
       height="66"
       stroke="#fff"
       stroke-linecap="round"
       stroke-width=".5"
       fill="url(#linearGradient3613)"
       rx="12"
       ry="12"
       width="66"
       opacity=".1"
       clip-path="url(#clipPath3613-1)"
       filter="url(#filter3794-0)"
       y="15"
       x="15" />
  </g>
  <g
     id="layer2-3"
     display="none"
     transform="matrix(13.4 0 0 13.4 -1693.5 -882.16)">
    <rect
       id="rect3745-6"
       opacity=".9"
       rx="6"
       ry="6"
       height="85"
       filter="url(#filter3174-0)"
       width="86"
       y="7"
       x="5"
       fill="url(#linearGradient11572)" />
  </g>
  <g
     id="layer5-3"
     display="none"
     transform="matrix(13.4 0 0 13.4 -1693.5 -882.16)">
    <rect
       id="rect3171-7"
       height="66"
       stroke="#fff"
       stroke-linecap="round"
       stroke-width=".5"
       fill="url(#linearGradient3613)"
       rx="12"
       ry="12"
       width="66"
       opacity=".1"
       clip-path="url(#clipPath3613-2)"
       filter="url(#filter3794-9)"
       y="15"
       x="15" />
  </g>
  <g
     id="layer2-5-4"
     display="none"
     transform="translate(-106.08 -69.206)">
    <rect
       id="rect3745-0-9"
       opacity=".9"
       rx="6"
       ry="6"
       height="85"
       filter="url(#filter3174-8-3)"
       width="86"
       y="7"
       x="5"
       fill="url(#linearGradient11572)" />
  </g>
  <g
     id="layer2-33"
     display="none"
     transform="matrix(13.4 0 0 13.4 -1500.2 -968.07)">
    <rect
       id="rect3745-1"
       opacity=".9"
       rx="6"
       ry="6"
       height="85"
       filter="url(#filter3174-35)"
       width="86"
       y="7"
       x="5"
       fill="url(#linearGradient11572)" />
  </g>
  <g
     id="layer5-6"
     display="none"
     transform="matrix(13.4 0 0 13.4 -1500.2 -968.07)">
    <rect
       id="rect3171-4"
       height="66"
       stroke="#fff"
       stroke-linecap="round"
       stroke-width=".5"
       fill="url(#linearGradient3613)"
       rx="12"
       ry="12"
       width="66"
       opacity=".1"
       clip-path="url(#clipPath3613-8)"
       filter="url(#filter3794-91)"
       y="15"
       x="15" />
  </g>
  <g
     id="layer2-58"
     display="none"
     transform="matrix(13.4 0 0 13.4 -1659.8 -887.77)">
    <rect
       id="rect3745-7"
       opacity=".9"
       rx="6"
       ry="6"
       height="85"
       filter="url(#filter3174-4)"
       width="86"
       y="7"
       x="5"
       fill="url(#linearGradient11572)" />
  </g>
  <g
     id="layer5-0"
     display="none"
     transform="matrix(13.4 0 0 13.4 -1659.8 -887.77)">
    <rect
       id="rect3171-9"
       height="66"
       stroke="#fff"
       stroke-linecap="round"
       stroke-width=".5"
       fill="url(#linearGradient3613)"
       rx="12"
       ry="12"
       width="66"
       opacity=".1"
       clip-path="url(#clipPath3613-9)"
       filter="url(#filter3794-4)"
       y="15"
       x="15" />
  </g>
  <g
     id="g6172"
     transform="translate(253.83051,-256)">
    <rect
       x="-253.83051"
       y="255.9995"
       width="512"
       height="512"
       rx="25.988001"
       id="rect9"
       style="fill:#d66483" />
    <path
       d="m -37.720508,297.0135 c -1.5,0.02 -3.01,0.066 -4.52,0.136 l -0.02,-0.019 c -92.320002,4.358 -164.590002,88.099 -160.910002,133.65 l 57.51,57.51 -0.01,0 -57.504,-57.51 c 0.782,9.66 6.736,19.07 15.553,27.89 l 0.002,0 76.149,76.15 c -11.8,10.16 -22.4,19.52 -34.42,30.51 l 127.450002,127.45 -0.01,0 -127.450002,-127.45 c -46.12,42.15 -77.976,73.41 -61.821,117.28 4.4,11.95 10.031,20.95 16.702,27.62 l 57.769,57.77 365.43,0 c 14.4,0 25.99,-11.59 25.99,-25.99 l 0,-236.61 -88.32,-88.32 c -41.21,-41.21 -101.139998,-84.811 -143.019998,-105.39 l 187.579998,187.58 0,0.01 -187.579998,-187.58 c -19.6600005,-9.668 -41.87,-14.998 -64.55,-14.686 z"
       id="path59"
       style="opacity:0.25;fill-rule:evenodd"
       inkscape:connector-curvature="0" />
    <path
       d="m -42.260508,297.1295 c -92.320002,4.358 -164.590002,88.1 -160.910002,133.65 3.584,44.31 115.860002,83.23 114.550002,84.55 -22.974002,19.398 -38.120002,32.498 -57.270002,50 -46.12,42.15 -77.975,73.41 -61.82,117.28 18.636,50.592 59.37,48.5 107.27,39.09 123.480002,-24.35 326.72,-180.54 316.37,-238.18 -8.37,-46.64 -121.949998,-138.83 -189.099998,-171.83 -20.9800005,-10.308 -44.84,-15.686 -69.09,-14.545 m 19.09,80.01 c 11.55,-1.082 24.9999995,1.84 39.997,9.09 32.754,15.836 66.68,57.876 0,81.83 -18.1300005,6.509 -76.31,-15.663 -74.55,-46.37 1.609,-28.347 15.296,-42.744 34.547,-44.546"
       id="path95"
       style="fill:#ffffff;fill-rule:evenodd"
       inkscape:connector-curvature="0" />
  </g>
</svg>
