<?xml version="1.0" encoding="UTF-8" standalone="no"?>
<!-- Created with Inkscape (http://www.inkscape.org/) -->

<svg
   xmlns:dc="http://purl.org/dc/elements/1.1/"
   xmlns:cc="http://creativecommons.org/ns#"
   xmlns:rdf="http://www.w3.org/1999/02/22-rdf-syntax-ns#"
   xmlns:svg="http://www.w3.org/2000/svg"
   xmlns="http://www.w3.org/2000/svg"
   xmlns:xlink="http://www.w3.org/1999/xlink"
   xmlns:sodipodi="http://sodipodi.sourceforge.net/DTD/sodipodi-0.dtd"
   xmlns:inkscape="http://www.inkscape.org/namespaces/inkscape"
   id="svg2"
   height="100%"
   width="100%"
   version="1.1"
   viewBox="0 0 512 512"
   inkscape:version="0.91+devel r13804 custom"
   sodipodi:docname="dmmediaconverter.svg">
  <sodipodi:namedview
     pagecolor="#ffffff"
     bordercolor="#666666"
     borderopacity="1"
     objecttolerance="10"
     gridtolerance="10"
     guidetolerance="10"
     inkscape:pageopacity="0"
     inkscape:pageshadow="2"
     inkscape:window-width="1366"
     inkscape:window-height="709"
     id="namedview3969"
     showgrid="false"
     inkscape:zoom="0.4609375"
     inkscape:cx="-8.6779661"
     inkscape:cy="237.55932"
     inkscape:window-x="-2"
     inkscape:window-y="-3"
     inkscape:window-maximized="1"
     inkscape:current-layer="svg2" />
  <metadata
     id="metadata241">
    <rdf:RDF>
      <cc:Work
         rdf:about="">
        <dc:format>image/svg+xml</dc:format>
        <dc:type
           rdf:resource="http://purl.org/dc/dcmitype/StillImage" />
        <dc:title />
      </cc:Work>
    </rdf:RDF>
  </metadata>
  <defs
     id="defs4">
    <linearGradient
       id="ButtonShadow-5"
       x1="45.448"
       gradientUnits="userSpaceOnUse"
       y1="92.54"
       gradientTransform="scale(1.0059 .99417)"
       x2="45.448"
       y2="7.0165">
      <stop
         id="stop3750-0"
         offset="0" />
      <stop
         id="stop3752-8"
         stop-opacity=".58824"
         offset="1" />
    </linearGradient>
    <filter
       id="filter3174-8"
       color-interpolation-filters="sRGB">
      <feGaussianBlur
         id="feGaussianBlur3176-5"
         stdDeviation="1.71" />
    </filter>
    <linearGradient
       id="linearGradient3737">
      <stop
         id="stop3739"
         stop-color="#fff"
         offset="0" />
      <stop
         id="stop3741"
         stop-color="#fff"
         stop-opacity="0"
         offset="1" />
    </linearGradient>
    <filter
       id="filter3174"
       color-interpolation-filters="sRGB">
      <feGaussianBlur
         id="feGaussianBlur3176"
         stdDeviation="1.71" />
    </filter>
    <filter
       id="filter3794"
       height="1.384"
       width="1.384"
       color-interpolation-filters="sRGB"
       y="-.192"
       x="-.192">
      <feGaussianBlur
         id="feGaussianBlur3796"
         stdDeviation="5.28" />
    </filter>
    <linearGradient
       id="linearGradient3613"
       x1="48"
       xlink:href="#linearGradient3737"
       gradientUnits="userSpaceOnUse"
       y1="20.221"
       x2="48"
       y2="138.66" />
    <clipPath
       id="clipPath3613">
      <rect
         id="rect3615"
         rx="6"
         ry="6"
         height="84"
         width="84"
         y="6"
         x="6"
         fill="#fff" />
    </clipPath>
    <filter
       id="filter3174-3"
       color-interpolation-filters="sRGB">
      <feGaussianBlur
         id="feGaussianBlur3176-2"
         stdDeviation="1.71" />
    </filter>
    <filter
       id="filter3794-0"
       height="1.384"
       width="1.384"
       color-interpolation-filters="sRGB"
       y="-.192"
       x="-.192">
      <feGaussianBlur
         id="feGaussianBlur3796-3"
         stdDeviation="5.28" />
    </filter>
    <clipPath
       id="clipPath3613-1">
      <rect
         id="rect3615-9"
         rx="6"
         ry="6"
         height="84"
         width="84"
         y="6"
         x="6"
         fill="#fff" />
    </clipPath>
    <filter
       id="filter3174-8-3"
       color-interpolation-filters="sRGB">
      <feGaussianBlur
         id="feGaussianBlur3176-5-8"
         stdDeviation="1.71" />
    </filter>
    <filter
       id="filter3174-0"
       color-interpolation-filters="sRGB">
      <feGaussianBlur
         id="feGaussianBlur3176-6"
         stdDeviation="1.71" />
    </filter>
    <filter
       id="filter3794-9"
       height="1.384"
       width="1.384"
       color-interpolation-filters="sRGB"
       y="-.192"
       x="-.192">
      <feGaussianBlur
         id="feGaussianBlur3796-2"
         stdDeviation="5.28" />
    </filter>
    <clipPath
       id="clipPath3613-2">
      <rect
         id="rect3615-3"
         rx="6"
         ry="6"
         height="84"
         width="84"
         y="6"
         x="6"
         fill="#fff" />
    </clipPath>
    <filter
       id="filter3174-35"
       color-interpolation-filters="sRGB">
      <feGaussianBlur
         id="feGaussianBlur3176-3"
         stdDeviation="1.71" />
    </filter>
    <filter
       id="filter3794-91"
       height="1.384"
       width="1.384"
       color-interpolation-filters="sRGB"
       y="-.192"
       x="-.192">
      <feGaussianBlur
         id="feGaussianBlur3796-7"
         stdDeviation="5.28" />
    </filter>
    <clipPath
       id="clipPath3613-8">
      <rect
         id="rect3615-8"
         rx="6"
         ry="6"
         height="84"
         width="84"
         y="6"
         x="6"
         fill="#fff" />
    </clipPath>
    <filter
       id="filter3174-4"
       color-interpolation-filters="sRGB">
      <feGaussianBlur
         id="feGaussianBlur3176-37"
         stdDeviation="1.71" />
    </filter>
    <filter
       id="filter3794-4"
       height="1.384"
       width="1.384"
       color-interpolation-filters="sRGB"
       y="-.192"
       x="-.192">
      <feGaussianBlur
         id="feGaussianBlur3796-9"
         stdDeviation="5.28" />
    </filter>
    <clipPath
       id="clipPath3613-9">
      <rect
         id="rect3615-1"
         rx="6"
         ry="6"
         height="84"
         width="84"
         y="6"
         x="6"
         fill="#fff" />
    </clipPath>
    <linearGradient
       id="linearGradient11572"
       y2="7.0165"
       xlink:href="#ButtonShadow-5"
       gradientUnits="userSpaceOnUse"
       x2="45.448"
       gradientTransform="scale(1.0059 .99417)"
       y1="92.54"
       x1="45.448" />
  </defs>
  <g
     id="layer2"
     display="none"
     transform="matrix(13.4 0 0 13.4 -1705.8 -834.03)">
    <rect
       id="rect3745"
       opacity=".9"
       rx="6"
       ry="6"
       height="85"
       filter="url(#filter3174)"
       width="86"
       y="7"
       x="5"
       fill="url(#linearGradient11572)" />
  </g>
  <g
     id="layer5"
     display="none"
     transform="matrix(13.4 0 0 13.4 -1705.8 -834.03)">
    <rect
       id="rect3171"
       height="66"
       stroke="#fff"
       stroke-linecap="round"
       stroke-width=".5"
       fill="url(#linearGradient3613)"
       rx="12"
       ry="12"
       width="66"
       opacity=".1"
       clip-path="url(#clipPath3613)"
       filter="url(#filter3794)"
       y="15"
       x="15" />
  </g>
  <g
     id="layer2-5"
     display="none"
     transform="translate(-118.36 -21.072)">
    <rect
       id="rect3745-0"
       opacity=".9"
       rx="6"
       ry="6"
       height="85"
       filter="url(#filter3174-8)"
       width="86"
       y="7"
       x="5"
       fill="url(#linearGradient11572)" />
  </g>
  <g
     id="layer2-8"
     display="none"
     transform="matrix(13.4 0 0 13.4 -1708.9 -839.43)">
    <rect
       id="rect3745-3"
       opacity=".9"
       rx="6"
       ry="6"
       height="85"
       filter="url(#filter3174-3)"
       width="86"
       y="7"
       x="5"
       fill="url(#linearGradient11572)" />
  </g>
  <g
     id="layer5-5"
     display="none"
     transform="matrix(13.4 0 0 13.4 -1708.9 -839.43)">
    <rect
       id="rect3171-2"
       height="66"
       stroke="#fff"
       stroke-linecap="round"
       stroke-width=".5"
       fill="url(#linearGradient3613)"
       rx="12"
       ry="12"
       width="66"
       opacity=".1"
       clip-path="url(#clipPath3613-1)"
       filter="url(#filter3794-0)"
       y="15"
       x="15" />
  </g>
  <g
     id="layer2-3"
     display="none"
     transform="matrix(13.4 0 0 13.4 -1693.5 -882.16)">
    <rect
       id="rect3745-6"
       opacity=".9"
       rx="6"
       ry="6"
       height="85"
       filter="url(#filter3174-0)"
       width="86"
       y="7"
       x="5"
       fill="url(#linearGradient11572)" />
  </g>
  <g
     id="layer5-3"
     display="none"
     transform="matrix(13.4 0 0 13.4 -1693.5 -882.16)">
    <rect
       id="rect3171-7"
       height="66"
       stroke="#fff"
       stroke-linecap="round"
       stroke-width=".5"
       fill="url(#linearGradient3613)"
       rx="12"
       ry="12"
       width="66"
       opacity=".1"
       clip-path="url(#clipPath3613-2)"
       filter="url(#filter3794-9)"
       y="15"
       x="15" />
  </g>
  <g
     id="layer2-5-4"
     display="none"
     transform="translate(-106.08 -69.206)">
    <rect
       id="rect3745-0-9"
       opacity=".9"
       rx="6"
       ry="6"
       height="85"
       filter="url(#filter3174-8-3)"
       width="86"
       y="7"
       x="5"
       fill="url(#linearGradient11572)" />
  </g>
  <g
     id="layer2-33"
     display="none"
     transform="matrix(13.4 0 0 13.4 -1500.2 -968.07)">
    <rect
       id="rect3745-1"
       opacity=".9"
       rx="6"
       ry="6"
       height="85"
       filter="url(#filter3174-35)"
       width="86"
       y="7"
       x="5"
       fill="url(#linearGradient11572)" />
  </g>
  <g
     id="layer5-6"
     display="none"
     transform="matrix(13.4 0 0 13.4 -1500.2 -968.07)">
    <rect
       id="rect3171-4"
       height="66"
       stroke="#fff"
       stroke-linecap="round"
       stroke-width=".5"
       fill="url(#linearGradient3613)"
       rx="12"
       ry="12"
       width="66"
       opacity=".1"
       clip-path="url(#clipPath3613-8)"
       filter="url(#filter3794-91)"
       y="15"
       x="15" />
  </g>
  <g
     id="layer2-58"
     display="none"
     transform="matrix(13.4 0 0 13.4 -1659.8 -887.77)">
    <rect
       id="rect3745-7"
       opacity=".9"
       rx="6"
       ry="6"
       height="85"
       filter="url(#filter3174-4)"
       width="86"
       y="7"
       x="5"
       fill="url(#linearGradient11572)" />
  </g>
  <g
     id="layer5-0"
     display="none"
     transform="matrix(13.4 0 0 13.4 -1659.8 -887.77)">
    <rect
       id="rect3171-9"
       height="66"
       stroke="#fff"
       stroke-linecap="round"
       stroke-width=".5"
       fill="url(#linearGradient3613)"
       rx="12"
       ry="12"
       width="66"
       opacity=".1"
       clip-path="url(#clipPath3613-9)"
       filter="url(#filter3794-4)"
       y="15"
       x="15" />
  </g>
  <g
     id="g7318"
     transform="translate(301.55932,-312.40678)">
    <path
       d="m -275.55932,312.40678 c -14.397,0 -26,11.603 -26,26 l 0,460 c 0,14.397 11.603,26 26,26 l 460,0 c 14.397,0 26,-11.603 26,-26 l 0,-460 c 0,-14.397 -11.6,-26 -26,-26 l -460,0"
       id="path9"
       style="fill:#3cc637"
       inkscape:connector-curvature="0" />
    <path
       d="m -167.83932,353.40678 c -66.294,0 -80.883,2.621 -87.933,15.803 l 0.002,0.002 c -6.102,11.404 -4.174,28.691 4.291,38.535 0.932,1.083 1.791,2.041 2.641,2.89 l 36.931,36.93 -10.062,10.11 0.01,0.01 -37.297,37.47 -0.006,-0.01 -0.018,73.69 0.008,0.01 -0.017,73.68 8.707,8.71 c -0.041,-0.04 -0.081,-0.08 -0.122,-0.12 l 38.707,38.71 c -44.683,45.79 -47.292,51.25 -47.292,59.03 l 33.251,33.25 -0.003,0 -33.252,-33.25 c 0,11.14 2.208,18.42 7.714,23.93 l 0.071,0.07 c -0.022,-0.02 -0.048,-0.04 -0.071,-0.06 l 51.61,51.61 384.41,0 c 14.4,0 26,-11.6 26,-26 l 0,-381.5 -61.87,-61.871 0.05,0.055 -0.05,-0.053 -62.720002,-1.076 0,-0.002 c -34.5,-0.591 -67.99,-0.118 -74.41,1.054 l 0,0.002 c -7.33,1.337 -18.69,10.319 -58.16,48.854 l -39.25,-39.244 c -2.47,-2.474 -5.44,-4.539 -8.9,-6.18 -8.449998,-4.003 -23.449998,-5.039 -72.969998,-5.039 z"
       id="path1931"
       style="opacity:0.25"
       inkscape:connector-curvature="0" />
    <path
       d="m -243.73432,778.45678 c -11.335,-6.151 -15.56,-14.187 -15.56,-29.594 0,-11.873 5.407,-17.707 158.78,-171.29 l 158.779998,-159 -16.16,0 -16.16,0 -120.72,120.57 c -119.339998,119.18 -120.879998,120.57 -134.029998,120.57 -10.03,0 -15.418,-2.114 -21.894,-8.591 l -8.591,-8.591 0.017,-73.69 0.017,-73.69 37.3,-37.473 37.3,-37.473 -29.501,-1.691 c -27.24,-1.561 -30.1,-2.388 -37.31,-10.772 -8.467,-9.843 -10.392,-27.13 -4.29,-38.535 7.05,-13.182 21.638,-15.803 87.94,-15.803 49.52,0 64.52,1.037 72.969998,5.04 11.932,5.662 18.05,16.364 18.05,31.572 0,8.931 -7.715,17.996 -60.279998,70.829 l -60.28,60.59 0,16.11 0,16.11 98.569998,-98.26 c 83.32,-83.05 100.38,-98.59 110.25,-100.39 6.423,-1.172 39.905,-1.646 74.41,-1.055 l 62.727002,1.076 9.502,10.642 c 20.266,22.696 27.22,13.833 -150.170002,191.35 -87.82,87.88 -159.669998,160.87 -159.669998,162.19 0,1.32 6.94,2.4 15.421,2.4 l 15.421,0 122.349998,-122.2 c 114.280002,-114.13 123.100002,-122.2 133.750002,-122.2 6.267,0 14.452,2.141 18.19,4.758 13.08,9.162 14.638,19.766 13.581,92.45 l -1,68.886 -36.658,36.756 c -20.16,20.22 -36.659002,37.833 -36.659002,39.15 0,1.316 11.827002,2.393 26.280002,2.393 29.826,0 36.695,2.599 43.949,16.627 6.441,12.455 3.829,25.627 -7.122,35.915 -8.166,7.672 -8.893,7.741 -80.952002,7.741 -68.13,0 -73.17,-0.411 -79.946,-6.517 -10.484,-9.446 -13.798,-20.303 -9.849,-32.27 2.081,-6.307 25.551,-32.32 62.01,-68.74 l 58.661002,-58.59 0,-16.306 0,-16.306 -96.940002,96.77 c -53.32,53.22 -101.07,98.3 -106.11,100.18 -5.292998,1.968 -36.299998,3.356 -73.319998,3.281 -50.24,-0.101 -66.07,-1.175 -73.02,-4.949 z"
       id="path2053"
       style="fill:#ffffff"
       inkscape:connector-curvature="0" />
  </g>
</svg>
