<?xml version="1.0" encoding="UTF-8" standalone="no"?>
<!-- Created with Inkscape (http://www.inkscape.org/) -->

<svg
   xmlns:dc="http://purl.org/dc/elements/1.1/"
   xmlns:cc="http://creativecommons.org/ns#"
   xmlns:rdf="http://www.w3.org/1999/02/22-rdf-syntax-ns#"
   xmlns:svg="http://www.w3.org/2000/svg"
   xmlns="http://www.w3.org/2000/svg"
   xmlns:xlink="http://www.w3.org/1999/xlink"
   xmlns:sodipodi="http://sodipodi.sourceforge.net/DTD/sodipodi-0.dtd"
   xmlns:inkscape="http://www.inkscape.org/namespaces/inkscape"
   id="svg2"
   height="100%"
   width="100%"
   version="1.1"
   viewBox="0 0 512 512"
   inkscape:version="0.91+devel r13804 custom"
   sodipodi:docname="documentation.svg">
  <sodipodi:namedview
     pagecolor="#ffffff"
     bordercolor="#666666"
     borderopacity="1"
     objecttolerance="10"
     gridtolerance="10"
     guidetolerance="10"
     inkscape:pageopacity="0"
     inkscape:pageshadow="2"
     inkscape:window-width="1366"
     inkscape:window-height="709"
     id="namedview4933"
     showgrid="false"
     inkscape:zoom="0.4609375"
     inkscape:cx="-8.6779661"
     inkscape:cy="237.55932"
     inkscape:window-x="-2"
     inkscape:window-y="-3"
     inkscape:window-maximized="1"
     inkscape:current-layer="svg2" />
  <metadata
     id="metadata241">
    <rdf:RDF>
      <cc:Work
         rdf:about="">
        <dc:format>image/svg+xml</dc:format>
        <dc:type
           rdf:resource="http://purl.org/dc/dcmitype/StillImage" />
        <dc:title />
      </cc:Work>
    </rdf:RDF>
  </metadata>
  <defs
     id="defs4">
    <linearGradient
       id="ButtonShadow-5"
       x1="45.448"
       gradientUnits="userSpaceOnUse"
       y1="92.54"
       gradientTransform="scale(1.0059 .99417)"
       x2="45.448"
       y2="7.0165">
      <stop
         id="stop3750-0"
         offset="0" />
      <stop
         id="stop3752-8"
         stop-opacity=".58824"
         offset="1" />
    </linearGradient>
    <filter
       id="filter3174-8"
       color-interpolation-filters="sRGB">
      <feGaussianBlur
         id="feGaussianBlur3176-5"
         stdDeviation="1.71" />
    </filter>
    <linearGradient
       id="linearGradient3737">
      <stop
         id="stop3739"
         stop-color="#fff"
         offset="0" />
      <stop
         id="stop3741"
         stop-color="#fff"
         stop-opacity="0"
         offset="1" />
    </linearGradient>
    <filter
       id="filter3174"
       color-interpolation-filters="sRGB">
      <feGaussianBlur
         id="feGaussianBlur3176"
         stdDeviation="1.71" />
    </filter>
    <filter
       id="filter3794"
       height="1.384"
       width="1.384"
       color-interpolation-filters="sRGB"
       y="-.192"
       x="-.192">
      <feGaussianBlur
         id="feGaussianBlur3796"
         stdDeviation="5.28" />
    </filter>
    <linearGradient
       id="linearGradient3613"
       x1="48"
       xlink:href="#linearGradient3737"
       gradientUnits="userSpaceOnUse"
       y1="20.221"
       x2="48"
       y2="138.66" />
    <clipPath
       id="clipPath3613">
      <rect
         id="rect3615"
         rx="6"
         ry="6"
         height="84"
         width="84"
         y="6"
         x="6"
         fill="#fff" />
    </clipPath>
    <filter
       id="filter3174-3"
       color-interpolation-filters="sRGB">
      <feGaussianBlur
         id="feGaussianBlur3176-2"
         stdDeviation="1.71" />
    </filter>
    <filter
       id="filter3794-0"
       height="1.384"
       width="1.384"
       color-interpolation-filters="sRGB"
       y="-.192"
       x="-.192">
      <feGaussianBlur
         id="feGaussianBlur3796-3"
         stdDeviation="5.28" />
    </filter>
    <clipPath
       id="clipPath3613-1">
      <rect
         id="rect3615-9"
         rx="6"
         ry="6"
         height="84"
         width="84"
         y="6"
         x="6"
         fill="#fff" />
    </clipPath>
    <filter
       id="filter3174-8-3"
       color-interpolation-filters="sRGB">
      <feGaussianBlur
         id="feGaussianBlur3176-5-8"
         stdDeviation="1.71" />
    </filter>
    <filter
       id="filter3174-0"
       color-interpolation-filters="sRGB">
      <feGaussianBlur
         id="feGaussianBlur3176-6"
         stdDeviation="1.71" />
    </filter>
    <filter
       id="filter3794-9"
       height="1.384"
       width="1.384"
       color-interpolation-filters="sRGB"
       y="-.192"
       x="-.192">
      <feGaussianBlur
         id="feGaussianBlur3796-2"
         stdDeviation="5.28" />
    </filter>
    <clipPath
       id="clipPath3613-2">
      <rect
         id="rect3615-3"
         rx="6"
         ry="6"
         height="84"
         width="84"
         y="6"
         x="6"
         fill="#fff" />
    </clipPath>
    <filter
       id="filter3174-35"
       color-interpolation-filters="sRGB">
      <feGaussianBlur
         id="feGaussianBlur3176-3"
         stdDeviation="1.71" />
    </filter>
    <filter
       id="filter3794-91"
       height="1.384"
       width="1.384"
       color-interpolation-filters="sRGB"
       y="-.192"
       x="-.192">
      <feGaussianBlur
         id="feGaussianBlur3796-7"
         stdDeviation="5.28" />
    </filter>
    <clipPath
       id="clipPath3613-8">
      <rect
         id="rect3615-8"
         rx="6"
         ry="6"
         height="84"
         width="84"
         y="6"
         x="6"
         fill="#fff" />
    </clipPath>
    <filter
       id="filter3174-4"
       color-interpolation-filters="sRGB">
      <feGaussianBlur
         id="feGaussianBlur3176-37"
         stdDeviation="1.71" />
    </filter>
    <filter
       id="filter3794-4"
       height="1.384"
       width="1.384"
       color-interpolation-filters="sRGB"
       y="-.192"
       x="-.192">
      <feGaussianBlur
         id="feGaussianBlur3796-9"
         stdDeviation="5.28" />
    </filter>
    <clipPath
       id="clipPath3613-9">
      <rect
         id="rect3615-1"
         rx="6"
         ry="6"
         height="84"
         width="84"
         y="6"
         x="6"
         fill="#fff" />
    </clipPath>
    <linearGradient
       id="linearGradient11572"
       y2="7.0165"
       xlink:href="#ButtonShadow-5"
       gradientUnits="userSpaceOnUse"
       x2="45.448"
       gradientTransform="scale(1.0059 .99417)"
       y1="92.54"
       x1="45.448" />
  </defs>
  <g
     id="layer2"
     display="none"
     transform="matrix(13.4 0 0 13.4 -1705.8 -834.03)">
    <rect
       id="rect3745"
       opacity=".9"
       rx="6"
       ry="6"
       height="85"
       filter="url(#filter3174)"
       width="86"
       y="7"
       x="5"
       fill="url(#linearGradient11572)" />
  </g>
  <g
     id="layer5"
     display="none"
     transform="matrix(13.4 0 0 13.4 -1705.8 -834.03)">
    <rect
       id="rect3171"
       height="66"
       stroke="#fff"
       stroke-linecap="round"
       stroke-width=".5"
       fill="url(#linearGradient3613)"
       rx="12"
       ry="12"
       width="66"
       opacity=".1"
       clip-path="url(#clipPath3613)"
       filter="url(#filter3794)"
       y="15"
       x="15" />
  </g>
  <g
     id="layer2-5"
     display="none"
     transform="translate(-118.36 -21.072)">
    <rect
       id="rect3745-0"
       opacity=".9"
       rx="6"
       ry="6"
       height="85"
       filter="url(#filter3174-8)"
       width="86"
       y="7"
       x="5"
       fill="url(#linearGradient11572)" />
  </g>
  <g
     id="layer2-8"
     display="none"
     transform="matrix(13.4 0 0 13.4 -1708.9 -839.43)">
    <rect
       id="rect3745-3"
       opacity=".9"
       rx="6"
       ry="6"
       height="85"
       filter="url(#filter3174-3)"
       width="86"
       y="7"
       x="5"
       fill="url(#linearGradient11572)" />
  </g>
  <g
     id="layer5-5"
     display="none"
     transform="matrix(13.4 0 0 13.4 -1708.9 -839.43)">
    <rect
       id="rect3171-2"
       height="66"
       stroke="#fff"
       stroke-linecap="round"
       stroke-width=".5"
       fill="url(#linearGradient3613)"
       rx="12"
       ry="12"
       width="66"
       opacity=".1"
       clip-path="url(#clipPath3613-1)"
       filter="url(#filter3794-0)"
       y="15"
       x="15" />
  </g>
  <g
     id="layer2-3"
     display="none"
     transform="matrix(13.4 0 0 13.4 -1693.5 -882.16)">
    <rect
       id="rect3745-6"
       opacity=".9"
       rx="6"
       ry="6"
       height="85"
       filter="url(#filter3174-0)"
       width="86"
       y="7"
       x="5"
       fill="url(#linearGradient11572)" />
  </g>
  <g
     id="layer5-3"
     display="none"
     transform="matrix(13.4 0 0 13.4 -1693.5 -882.16)">
    <rect
       id="rect3171-7"
       height="66"
       stroke="#fff"
       stroke-linecap="round"
       stroke-width=".5"
       fill="url(#linearGradient3613)"
       rx="12"
       ry="12"
       width="66"
       opacity=".1"
       clip-path="url(#clipPath3613-2)"
       filter="url(#filter3794-9)"
       y="15"
       x="15" />
  </g>
  <g
     id="layer2-5-4"
     display="none"
     transform="translate(-106.08 -69.206)">
    <rect
       id="rect3745-0-9"
       opacity=".9"
       rx="6"
       ry="6"
       height="85"
       filter="url(#filter3174-8-3)"
       width="86"
       y="7"
       x="5"
       fill="url(#linearGradient11572)" />
  </g>
  <g
     id="layer2-33"
     display="none"
     transform="matrix(13.4 0 0 13.4 -1500.2 -968.07)">
    <rect
       id="rect3745-1"
       opacity=".9"
       rx="6"
       ry="6"
       height="85"
       filter="url(#filter3174-35)"
       width="86"
       y="7"
       x="5"
       fill="url(#linearGradient11572)" />
  </g>
  <g
     id="layer5-6"
     display="none"
     transform="matrix(13.4 0 0 13.4 -1500.2 -968.07)">
    <rect
       id="rect3171-4"
       height="66"
       stroke="#fff"
       stroke-linecap="round"
       stroke-width=".5"
       fill="url(#linearGradient3613)"
       rx="12"
       ry="12"
       width="66"
       opacity=".1"
       clip-path="url(#clipPath3613-8)"
       filter="url(#filter3794-91)"
       y="15"
       x="15" />
  </g>
  <g
     id="layer2-58"
     display="none"
     transform="matrix(13.4 0 0 13.4 -1659.8 -887.77)">
    <rect
       id="rect3745-7"
       opacity=".9"
       rx="6"
       ry="6"
       height="85"
       filter="url(#filter3174-4)"
       width="86"
       y="7"
       x="5"
       fill="url(#linearGradient11572)" />
  </g>
  <g
     id="layer5-0"
     display="none"
     transform="matrix(13.4 0 0 13.4 -1659.8 -887.77)">
    <rect
       id="rect3171-9"
       height="66"
       stroke="#fff"
       stroke-linecap="round"
       stroke-width=".5"
       fill="url(#linearGradient3613)"
       rx="12"
       ry="12"
       width="66"
       opacity=".1"
       clip-path="url(#clipPath3613-9)"
       filter="url(#filter3794-4)"
       y="15"
       x="15" />
  </g>
  <g
     id="g8282"
     transform="translate(331.9322,-310.23729)">
    <path
       d="m -305.9322,310.23729 c -14.397,0 -26,11.603 -26,26 l 0,460 c 0,14.397 11.603,26 26,26 l 460,0 c 14.397,0 26,-11.603 26,-26 l 0,-460 c 0,-14.397 -11.6,-26 -26,-26 l -460,0 z"
       id="rect2986"
       style="fill:#6788cc"
       inkscape:connector-curvature="0" />
    <path
       d="m -221.6222,351.33729 c -22.042,0 -40.705,14.048 -47.609,33.679 l 29.838,29.841 c 0.031,0.73 0.048,1.46 0.031,2.18 -0.099,0.96 -0.176,1.92 -0.25,2.88 l -17.351,-17.35 c -2.672,-2.672 -6.369,-4.32 -10.465,-4.32 l -8.719,0 c -8.192,0 -14.785,6.591 -14.785,14.78 l 0,55.68 c 0,4.1 1.648,7.8 4.32,10.47 l 17.754,17.75 c -1.074,0.09 -2.151,0.15 -3.23,0.15 l 0,13.23 32.674,32.67 c -0.074,0.76 -0.14,1.52 -0.198,2.28 l -17.351,-17.35 c -2.672,-2.67 -6.369,-4.32 -10.465,-4.32 l -8.719,0 c -8.192,0 -14.785,6.59 -14.785,14.78 l 0,55.68 c 0,3.99 1.56,7.6 4.105,10.25 l 17.971,17.97 c -1.075,0.09 -2.152,0.15 -3.232,0.15 l 0,13.23 32.674,32.68 c -0.074,0.75 -0.14,1.51 -0.198,2.27 l -17.351,-17.35 c -2.672,-2.67 -6.369,-4.32 -10.465,-4.32 l -8.719,0 c -8.192,0 -14.785,6.59 -14.785,14.79 l 0,55.68 c 0,3.98 1.56,7.59 4.105,10.24 l 17.938,17.94 c -0.098,0.01 -0.195,0.02 -0.293,0.03 2.531,7.15 6.62,13.54 11.861,18.78 l 55.849,55.85 355.54,0 c 14.4,0 26,-11.6 26,-26 l 0,-374.39 -55.75,-55.756 c -9.13,-9.124 -21.74,-14.754 -35.720003,-14.754 l -310.219997,0 z"
       id="path3419"
       style="opacity:0.25"
       inkscape:connector-curvature="0" />
    <path
       d="m -221.6222,351.33729 c -22.043,0 -40.707,14.047 -47.611,33.678 2.0435,0.11611 4.0678,0.37006 6.0641,0.75175 15.22,1.6798 24.137,16.97 23.805,31.273 -1.943,18.849 1.326,37.905 -1.1026,56.682 -2.5944,15.263 -17.105,23.351 -31.624,23.354 l 0,13.231 c 3.0138,0.0205 5.9922,0.24194 8.9208,0.80187 15.209,1.6698 24.139,16.969 23.805,31.273 -1.943,18.849 1.326,37.905 -1.1026,56.682 -2.5944,15.263 -17.105,23.351 -31.624,23.354 l 0,13.231 c 3.0138,0.0204 5.9922,0.24193 8.9208,0.80186 15.22,1.6798 24.137,16.97 23.805,31.273 -1.943,18.849 1.326,37.905 -1.1026,56.682 -2.421,14.243 -15.219,22.196 -28.717,23.204 6.9344,19.573 25.56,33.528 47.561,33.528 l 310.219997,0 c 27.950003,0.01 50.470003,-22.51 50.470003,-50.46 l 0,-328.86 c 0,-27.949 -22.518,-50.467 -50.467003,-50.467 l -310.219997,0 z m -54.526,46.909 c -8.192,0 -14.784,6.593 -14.784,14.781 l 0,55.679 c 0,8.192 6.5924,14.784 14.784,14.784 l 8.7203,0 c 8.192,0 14.784,-6.5924 14.784,-14.784 l 0,-55.679 c 0,-8.192 -6.5924,-14.784 -14.784,-14.784 l -8.7203,0 z m 87.704,32.977 243.869997,0 c 14.56,0 26.261,11.751 26.261,26.311 0,14.56 -11.701,26.261 -26.261,26.261 l -243.869997,0 c -14.56,0 -26.261,-11.701 -26.261,-26.261 0,-14.56 11.701,-26.311 26.261,-26.311 z m -87.706,92.36 c -8.192,0 -14.784,6.59 -14.784,14.79 l 0,55.679 c 0,8.192 6.5924,14.784 14.784,14.784 l 8.7203,0 c 8.192,0 14.784,-6.5924 14.784,-14.784 l 0,-55.679 c 0,-8.192 -6.5924,-14.784 -14.784,-14.784 l -8.7203,0 z m 87.704,16.338 243.869997,0 c 14.56,0 26.261,11.751 26.261,26.311 0,14.56 -11.701,26.261 -26.261,26.261 l -243.869997,0 c -14.56,0 -26.261,-11.701 -26.261,-26.261 0,-14.56 11.701,-26.311 26.261,-26.311 z m 0,108.7 243.869997,0 c 14.56,0 26.261,11.701 26.261,26.261 0,14.56 -11.701,26.311 -26.261,26.311 l -243.869997,0 c -14.56,0 -26.261,-11.751 -26.261,-26.311 0,-14.56 11.701,-26.261 26.261,-26.261 z m -87.704,0.3007 c -8.194,0 -14.786,6.59 -14.786,14.79 l 0,55.679 c 0,8.192 6.5924,14.784 14.784,14.784 l 8.7203,0 c 8.192,0 14.784,-6.5924 14.784,-14.784 l 0,-55.679 c 0,-8.192 -6.5924,-14.784 -14.784,-14.784 l -8.7203,0 z"
       id="path3096"
       style="fill:#ffffff"
       inkscape:connector-curvature="0" />
  </g>
</svg>
