<?xml version="1.0" encoding="UTF-8" standalone="no"?>
<svg
   xmlns:dc="http://purl.org/dc/elements/1.1/"
   xmlns:cc="http://creativecommons.org/ns#"
   xmlns:rdf="http://www.w3.org/1999/02/22-rdf-syntax-ns#"
   xmlns:svg="http://www.w3.org/2000/svg"
   xmlns="http://www.w3.org/2000/svg"
   xmlns:sodipodi="http://sodipodi.sourceforge.net/DTD/sodipodi-0.dtd"
   xmlns:inkscape="http://www.inkscape.org/namespaces/inkscape"
   viewBox="0 0 512 512"
   id="svg2"
   version="1.1"
   inkscape:version="0.91+devel r13804 custom"
   sodipodi:docname="eagle.svg">
  <metadata
     id="metadata22406">
    <rdf:RDF>
      <cc:Work
         rdf:about="">
        <dc:format>image/svg+xml</dc:format>
        <dc:type
           rdf:resource="http://purl.org/dc/dcmitype/StillImage" />
      </cc:Work>
    </rdf:RDF>
  </metadata>
  <defs
     id="defs22404" />
  <sodipodi:namedview
     pagecolor="#ffffff"
     bordercolor="#666666"
     borderopacity="1"
     objecttolerance="10"
     gridtolerance="10"
     guidetolerance="10"
     inkscape:pageopacity="0"
     inkscape:pageshadow="2"
     inkscape:window-width="1366"
     inkscape:window-height="709"
     id="namedview22402"
     showgrid="false"
     inkscape:zoom="0.4609375"
     inkscape:cx="-8.6779661"
     inkscape:cy="237.55932"
     inkscape:window-x="-2"
     inkscape:window-y="-3"
     inkscape:window-maximized="1"
     inkscape:current-layer="svg2" />
  <g
     id="g25755"
     transform="translate(305.8983,-314.57626)">
    <rect
       id="rect22350"
       height="512"
       rx="25.988001"
       width="512"
       style="fill:#c50e0e"
       x="-305.9003"
       y="314.57126" />
    <path
       id="path22398"
       d="m -10.370305,355.57127 c -0.502,-0.018 -1.071,0.039 -1.713,0.158 l 5.0499999,5.05 0,0.012 -5.0569999,-5.057 c -3.43,0.634 -13.04,16.733 -27.385,45.863 l 0.004,0.004 c -20.13,40.872 -24.14,46.869 -44.984,67.18 l 130.49,130.49 c -10e-4,0.001 -10e-4,0.003 -0.002,0.004 l -130.49,-130.49 c -8.56,8.343 -15.934005,15.377 -20.080005,19.2 l -7.68,-7.678 -0.014,-0.014 c -0.97,-0.97 -2.253,-0.386 -4.488,1.469 l 7.846,7.846 c 0.001,0.002 0.001,0.004 0.002,0.006 l -7.85,-7.85 c -2.492,2.068 -7.643,10.11 -11.447,17.859 l 0.004,0.004 -2.676,5.453 -8.107,-8.107 c 0.006,0.006 0.011,0.015 0.018,0.021 l -0.021,-0.021 c -2.919,-2.919 -8.164,5.329 -18.566,27.529 l 0.004,0.004 c -22.15,47.26 -23.356,61.46 -4.115,80.7 l 12.986,12.984 c 1.915,2.188 2.95,3.676 2.645,3.965 l -0.004,-0.002 c -0.666,0.633 -5.974,3.127 -11.787,5.541 l 0.004,0.004 c -24.19,10.05 -43.45,34.02 -48.42,60.25 l -0.002,0 c -2.466,13 -2.132,16.406 2.072,21.05 l 0.301,0.301 c 0.247,0.266 0.496,0.535 0.74,0.779 l 0.094,0.094 c -0.032,-0.031 -0.062,-0.056 -0.094,-0.088 l 41.781,41.781 c -3.051,1.981 -5.03,4.141 -6.172,6.652 l 19.412,19.412 -0.002,0.002 -19.408,-19.408 c -1.841,4.04 -4.489,7.344 -5.883,7.344 -1.391,0.008 -2.529,2.724 -2.529,6.04 l -0.004,-0.004 c 0,2.01 0.534,3.553 1.555,4.574 l 0.053,0.053 c -0.018,-0.017 -0.037,-0.032 -0.055,-0.049 l 50.1,50.1 304.36,0 c 14.397,0 25.988,-11.591 25.988,-25.988 l 0,-294.05 -147.439995,-147.44 c -3.479,-3.479 -16.406,4.04 -40.773,23.51 l -26.2600001,-26.26 c -0.502,-0.501 -1.155,-0.738 -1.9919999,-0.768"
       style="opacity:0.25"
       inkscape:connector-curvature="0" />
    <path
       id="path22400"
       d="m -162.64031,782.69127 c -1,-2.615 -4.397,-4.755 -7.541,-4.755 -3.703,0 -5.716,-2.127 -5.716,-6.04 0,-3.322 1.141,-6.04 2.535,-6.04 1.394,0 4.04,-3.305 5.881,-7.345 2.361,-5.182 8.217,-8.88 19.885,-12.558 17.739,-5.592 19.895,-8.706 19.971,-28.852 0.033,-8.851 -2.053,-12.849 -10.632,-20.382 -6.349,-5.574 -13.996,-9.367 -18.873,-9.36 -11.07,0.015 -27.325,10.355 -30.846,19.618 -3.397,8.936 -9.23,9.661 -16.16,2.01 -4.204,-4.645 -4.539,-8.05 -2.073,-21.05 4.975,-26.23 24.24,-50.2 48.43,-60.25 5.813,-2.414 11.12,-4.908 11.786,-5.541 0.67,-0.634 -4.997,-6.945 -12.593,-14.03 -22.349,-20.833 -22.18,-34 1.078,-83.63 14.03,-29.949 18.682,-34.509 20.895,-20.505 l 1.538,9.733 6.917,-14.1 c 3.804,-7.754 8.956,-15.791 11.448,-17.859 3.76,-3.12 4.822,-2.648 6.24,2.775 0.94,3.595 2.029,6.536 2.421,6.536 0.391,0 11.010005,-10.03 23.597005,-22.298 20.843,-20.309 24.857,-26.304 44.985,-67.18 14.345,-29.13 23.954,-45.23 27.384,-45.864 4.1889999,-0.777 5.2569999,1.099 5.1519999,9.05 -0.073,5.519 -2.091,15.47 -4.4839999,22.11 -8.799,24.425 -6.06,24.13 27.581,-2.925 30.2,-24.296 43.47,-30.932 43.47,-21.746 0,2.208 -7.57,12.38 -16.823,22.605 l -16.823,18.59 18.847,-10.653 c 38.447,-21.731 41.467,-13.846 8.696,22.704 l -24.599,27.436 17.616,-8 c 9.689,-4.4 23.927,-10.488 31.641,-13.529 l 14.03,-5.529 -1.602,6.661 c -2.177,9.05 -13.886,21.16 -33.504,34.655 l -16.373,11.261 20.18,2.031 c 11.1,1.117 22.286,3.777 24.857,5.911 4.158,3.451 3.936,4.479 -2.01,9.292 -3.676,2.977 -9.93,5.412 -13.898,5.412 -5.131,0 -7.214,1.694 -7.214,5.868 0,3.227 -2.759,7.8 -6.13,10.162 -6.073,4.253 -6.06,4.341 1.51,9.3 9.518,6.236 9.682,12.296 0.563,20.864 -5.66,5.319 -6.802,8.922 -5.706,18 0.754,6.243 2.413,11.995 3.686,12.782 3.559,2.2 -0.772,17.915 -7.512,27.25 -3.322,4.602 -10.51,13.1 -15.973,18.883 -5.464,5.784 -9.212,11.237 -8.33,12.12 3.88,3.88 -6.117,9.709 -16.6530001,9.709 -6.342,0 -12.498,1.566 -13.681,3.479 -2.952,4.777 17.2180001,1.484 50.8040001,-8.295 32.743,-9.533 42.72,-8.955 44.04,2.551 0.526,4.567 2.224,8.304 3.775,8.304 1.55,0 2.819,2.165 2.819,4.812 0,2.647 2.718,5.523 6.039995,6.391 4.694,1.228 6.04,4.119 6.04,12.982 0,7.49 -1.598,12.02 -4.658,13.19 -2.562,0.983 -20.225995,3.366 -39.249995,5.295 -19.03,1.929 -34.597,4.822 -34.597,6.428 0,1.75 -5.446,2.103 -13.588,0.882 -13.5090001,-2.026 -16.70700008,0.045 -10.1680001,6.584 5.2390001,5.239 0.683,12.885 -7.677,12.885 -4.106,0 -8.3619999,1.451 -9.4589999,3.225 -1.096,1.774 -6.904,2.802 -12.907,2.284 -9.492,-0.818 -11.518,0.231 -15.548,8.05 -6.418,12.449 -12.08,16.43 -23.507,16.542 -6.04,0.059 -9.814,1.621 -9.814,4.06 0,2.18 -3.952,7.751 -8.783,12.379 -7.227,6.924 -10.436,8.05 -18.120005,6.364 -7.359,-1.616 -9.335,-1.041 -9.335,2.719 0,2.623 -1.947,4.769 -4.326,4.769 -2.379,0 -5.188,2.718 -6.243,6.04 -2.286,7.202 -5.468,7.656 -10.569,1.51 -5.196,-6.261 -12.841,-5.664 -22.248,1.735 -6.945,5.463 -8.198,5.656 -9.789,1.51"
       style="fill:#ffffff"
       inkscape:connector-curvature="0" />
  </g>
</svg>
