<?xml version="1.0" encoding="UTF-8" standalone="no"?>
<svg
   xmlns:dc="http://purl.org/dc/elements/1.1/"
   xmlns:cc="http://creativecommons.org/ns#"
   xmlns:rdf="http://www.w3.org/1999/02/22-rdf-syntax-ns#"
   xmlns:svg="http://www.w3.org/2000/svg"
   xmlns="http://www.w3.org/2000/svg"
   xmlns:sodipodi="http://sodipodi.sourceforge.net/DTD/sodipodi-0.dtd"
   xmlns:inkscape="http://www.inkscape.org/namespaces/inkscape"
   viewBox="0 0 512 512"
   id="svg2"
   version="1.1"
   inkscape:version="0.91+devel r13804 custom"
   sodipodi:docname="easytag.svg">
  <metadata
     id="metadata4723">
    <rdf:RDF>
      <cc:Work
         rdf:about="">
        <dc:format>image/svg+xml</dc:format>
        <dc:type
           rdf:resource="http://purl.org/dc/dcmitype/StillImage" />
      </cc:Work>
    </rdf:RDF>
  </metadata>
  <sodipodi:namedview
     pagecolor="#ffffff"
     bordercolor="#666666"
     borderopacity="1"
     objecttolerance="10"
     gridtolerance="10"
     guidetolerance="10"
     inkscape:pageopacity="0"
     inkscape:pageshadow="2"
     inkscape:window-width="1366"
     inkscape:window-height="709"
     id="namedview4721"
     showgrid="false"
     inkscape:zoom="0.4609375"
     inkscape:cx="-8.6779661"
     inkscape:cy="237.55932"
     inkscape:window-x="-2"
     inkscape:window-y="-3"
     inkscape:window-maximized="1"
     inkscape:current-layer="svg2" />
  <defs
     id="defs4">
    <linearGradient
       id="0"
       y2="505.59"
       gradientUnits="userSpaceOnUse"
       x2="270.33"
       y1="-2.23"
       x1="134.26"
       gradientTransform="translate(-312.40778,303.72881)">
      <stop
         stop-color="#8cc63f"
         offset="0"
         id="stop7" />
      <stop
         stop-color="#7ac241"
         offset=".5"
         id="stop9" />
      <stop
         stop-color="#357b38"
         offset="1"
         id="stop11" />
    </linearGradient>
  </defs>
  <g
     id="g8083"
     transform="translate(312.40678,-303.72881)">
    <path
       id="path2315"
       d="m -286.40778,303.72881 c -14.397,0 -26,11.603 -26,26 l 0,460 c 0,14.397 11.603,26 26,26 l 460,0 c 14.397,0 26,-11.603 26,-26 l 0,-460 c 0,-14.397 -11.603,-26 -26,-26 l -460,0"
       style="fill:url(#0)"
       inkscape:connector-curvature="0" />
    <g
       transform="translate(-312.40778,303.72881)"
       id="g4715"
       style="fill-rule:evenodd">
      <path
         id="path4717"
         d="m 174.58,42.29 c -1.205,0.002 -2.4,0.027 -3.582,0.074 l -0.008,0 c -17.23,0.689 -31.94,6.077 -42.682,16.818 l -67.64,67.822 c -24.17,24.17 -21.686,68.782 2.033,115.87 l 5.711,5.711 c -7.464,14.576 -13.543,29.362 -17.918,44.37 -0.024,0.053 -0.165,0.133 -0.184,0.186 -0.018,0.079 0.024,0.292 0,0.369 -11.865,33.723 -11.616,65.45 -3.697,88.89 0.004,0.012 0.013,0.024 0.025,0.037 l 0.16,0.16 c 0.013,0.065 -0.022,0.102 0,0.172 3.01,10.203 7.754,18.299 13.594,24.14 l 105.09,105.09 320.52,0 c 14.397,0 26,-11.603 26,-26 l 0,-176.59 -50.29,-50.29 c 0.123,0.123 0.237,0.251 0.357,0.375 l -71.52,-71.52 0,0.023 -79.66,-79.66 -1.479,-1.479 c -1.744,-1.744 -3.728,-3.368 -5.729,-4.621 -43.603,-38.508 -91.67,-60.02 -129.1,-59.951"
         inkscape:connector-curvature="0"
         style="opacity:0.25" />
      <path
         id="path4719"
         d="m 171,42.37 c -17.233,0.688 -31.947,6.074 -42.69,16.817 L 60.67,127.01 c -24.17,24.17 -21.686,68.781 2.033,115.87 13.919,-26.56 32.31,-52.13 53.22,-77.06 -6.688,-14.305 -4.239,-31.797 7.577,-43.614 15.09,-15.09 39.43,-15.09 54.52,0 4.374,4.374 7.402,9.478 9.24,14.969 l 123.63,-28.83 -1.478,-1.478 c -1.744,-1.744 -3.728,-3.367 -5.729,-4.62 -45.01,-39.75 -94.78,-61.39 -132.69,-59.877 m -26.981,105.71 a 7.4014,7.4014 0 0 0 -4.8049,2.4025 c -41.03,45.28 -74.19,92.67 -88.71,142.48 -0.024,0.053 -0.166,0.132 -0.185,0.185 -0.018,0.079 0.024,0.293 0,0.37 -11.865,33.723 -11.615,65.45 -3.696,88.89 0.018,0.059 0.169,0.126 0.185,0.185 0.024,0.076 -0.024,0.11 0,0.185 6.199,21.03 19.784,33.11 35.11,34.928 15.432,1.828 30.948,-5.618 43.43,-17.926 l 0.185,-0.185 c 17.16,-17.432 19.321,-42.18 24.02,-67.27 a 7.3929,7.3929 0 1 0 -14.415,-2.7721 c -4.808,25.643 -7.775,47.01 -20.14,59.692 -0.047,0.047 0.047,0.139 0,0.185 -10.11,9.902 -22.11,14.593 -31.417,13.491 -9.348,-1.107 -17.673,-7.04 -22.731,-24.579 l 0,-0.185 -0.184,-0.185 c -6.748,-19.694 -7.364,-48.828 3.696,-80.02 l 0,-0.185 0.185,-0.185 c 13.456,-46.508 45.41,-92.61 85.75,-137.13 a 7.4014,7.4014 0 0 0 -6.2834,-12.382 m 157.82,26.981 -76.32,20.329 a 2.8702,2.8702 0 0 0 -1.6632,1.1088 2.8702,2.8702 0 0 0 -0.1844,0.1845 2.8702,2.8702 0 0 0 -0.1846,0.1845 2.8702,2.8702 0 0 0 0,1.6632 l 6.653,60.986 a 2.8702,2.8702 0 0 0 3.8809,2.4025 l 69.12,-17.926 a 2.8702,2.8702 0 0 0 2.2176,-2.7721 l 0,-63.39 a 2.8702,2.8702 0 0 0 -3.5119,-2.7715 m -163.18,11.09 c -24.28,29.11 -44.28,58.57 -57.1,87.967 6.71,9.731 14.15,19.371 22.546,28.83 0.374,0.424 0.731,0.872 1.109,1.294 0.933,1.261 1.812,2.736 2.957,3.881 l 9.24,9.24 10.164,10.164 c 1.634,-8.392 9.186,-13.816 17.741,-12.197 3.091,0.585 5.718,1.942 7.762,3.881 l -7.392,-131.4 c -2.377,-0.316 -4.735,-0.856 -7.02,-1.663 m 251.89,1.848 1.478,50.45 c 0.335,12.185 -4.801,22.917 -13.12,31.971 -8.321,9.05 -19.771,16.418 -32.71,22.546 l -0.185,0.185 -0.37,0.185 -95.91,21.622 1.663,45.46 149.51,-37.7 3.511,-0.924 0.185,3.511 1.848,33.819 55.26,-55.26 c 12.402,-12.402 12.401,-32.32 0,-44.723 l -71.15,-71.15 m -235.81,160.78 c -0.289,1.672 -0.617,3.315 -0.924,4.99 l 1.294,1.294 -0.37,-6.283 m 199.96,62.28 -116.98,26.612 22.731,22.731 c 12.401,12.401 32.506,12.401 44.908,0 l 49.34,-49.34"
         inkscape:connector-curvature="0"
         style="fill:#ffffff" />
    </g>
  </g>
</svg>
