<?xml version="1.0" encoding="UTF-8" standalone="no"?>
<svg
   xmlns:dc="http://purl.org/dc/elements/1.1/"
   xmlns:cc="http://creativecommons.org/ns#"
   xmlns:rdf="http://www.w3.org/1999/02/22-rdf-syntax-ns#"
   xmlns:svg="http://www.w3.org/2000/svg"
   xmlns="http://www.w3.org/2000/svg"
   xmlns:sodipodi="http://sodipodi.sourceforge.net/DTD/sodipodi-0.dtd"
   xmlns:inkscape="http://www.inkscape.org/namespaces/inkscape"
   viewBox="0 0 512 512"
   id="svg2"
   version="1.1"
   inkscape:version="0.91+devel r13804 custom"
   sodipodi:docname="elegance-colors.svg">
  <metadata
     id="metadata4866">
    <rdf:RDF>
      <cc:Work
         rdf:about="">
        <dc:format>image/svg+xml</dc:format>
        <dc:type
           rdf:resource="http://purl.org/dc/dcmitype/StillImage" />
      </cc:Work>
    </rdf:RDF>
  </metadata>
  <defs
     id="defs4864" />
  <sodipodi:namedview
     pagecolor="#ffffff"
     bordercolor="#666666"
     borderopacity="1"
     objecttolerance="10"
     gridtolerance="10"
     guidetolerance="10"
     inkscape:pageopacity="0"
     inkscape:pageshadow="2"
     inkscape:window-width="1366"
     inkscape:window-height="709"
     id="namedview4862"
     showgrid="false"
     inkscape:zoom="0.4609375"
     inkscape:cx="-8.6779661"
     inkscape:cy="237.55932"
     inkscape:window-x="-2"
     inkscape:window-y="-3"
     inkscape:window-maximized="1"
     inkscape:current-layer="svg2" />
  <g
     id="g8230"
     transform="translate(342.77966,-327.59322)">
    <path
       id="path2642"
       d="m -316.77966,327.59322 c -14.397,0 -26,11.603 -26,26 l 0,460 c 0,14.397 11.603,26 26,26 l 460,0 c 14.397,0 26,-11.603 26,-26 l 0,-460 c 0,-14.397 -11.603,-26 -26,-26 l -460,0"
       style="fill:#1691c4"
       inkscape:connector-curvature="0" />
    <g
       transform="translate(-342.77966,327.59322)"
       id="g4848"
       style="fill:#ffffff">
      <path
         id="path4850"
         d="m 51.14,363.59 c 0,0 25.01,44.638 68.22,57.951 43.28,13.314 63.756,12.07 92.19,-2.448 28.496,-14.471 67.891,-41.727 98.14,-57.753 26.941,-14.273 53.751,-14.273 80.69,-14.273 43.612,0 64.798,37.08 57.951,61.18 -6.847,24.16 -18.226,38.634 -53.49,38.634 -35.28,0 -22.741,-39.858 -87.67,-19.317 -64.931,20.475 -136.64,39.858 -182.26,15.695 -45.48,-24.16 -73.977,-79.72 -73.977,-79.72"
         inkscape:connector-curvature="0"
         style="opacity:0.25" />
      <path
         id="path4852"
         d="m 282.88,261.58 c 0,0 15.182,-17.895 26.875,-42.769 13.446,-28.496 15.761,-46.32 -17.696,-82.25 -33.524,-35.988 -28.03,-28.562 -33.408,-54.46 -5.226,-25.9 49.947,-34.37 62.66,-10.535 12.669,23.832 -15.629,18.804 1.869,47.42 17.514,28.612 27.653,61.51 13.446,85.47 -14.207,23.964 -53.751,57.04 -53.751,57.04"
         inkscape:connector-curvature="0"
         style="opacity:0.25" />
      <path
         id="path4854"
         d="m 444.22,311.64 c -11.246,5.937 -25.784,21.318 -16.869,29.852 8.848,8.6 34.632,4.267 40.26,-6.781 5.623,-11.11 4.069,-18.804 -3.225,-23.07 -7.244,-4.267 -20.09,0 -20.09,0"
         inkscape:connector-curvature="0"
         style="opacity:0.25" />
      <path
         id="path4856"
         d="m 336.5,219.08 c 16.919,-21.252 27.52,-46.573 29.455,-59.953 1.935,-13.38 12.784,-42.19 22.1,-49.947 9.361,-7.757 31.655,3.754 26.03,19.582 -5.623,15.761 -28.17,22.41 -29.918,32.23 -1.687,9.89 8.07,14.14 -3.159,25.718 -11.18,11.494 -44.505,32.366 -44.505,32.366"
         inkscape:connector-curvature="0"
         style="opacity:0.25" />
    </g>
    <path
       id="path4858"
       d="m -149.61966,449.35322 c -22.834,-0.063 -46.07,6.254 -65.775,19.668 -60.33,41.02 -117.26,126.75 -67.2,210.02 6.04,10.05 12.773,18.654 20.05,25.934 l 134.61,134.61 271.14,0 c 14.397,0 26,-11.603 26,-26 l 0,-100.07 -96.490001,-96.49 c -3.131,-3.131 -7.329,-5.887 -12.65,-8 -1.331,-0.529 -2.705,-0.991 -4.1,-1.416 l -127.9,-127.9 c -19.64,-19.64 -48.329999,-30.27 -77.689999,-30.348"
       style="opacity:0.25"
       inkscape:connector-curvature="0" />
    <path
       id="path4860"
       d="m -177.86966,650.10322 c 0,0 143.419999,-54.33 129.729999,-125.53 -13.628,-71.2 -106.989999,-96.59 -167.259999,-55.55 -60.33,41.02 -117.26,126.75 -67.2,210.02 50.11,83.35 148,67.64 209.449999,16.869 61.51,-50.658 110.41,-31.39 134.31,-39.792 23.898,-8.468 26.23,-36.24 -1.092,-47.1 -27.322,-10.849 -68.29,0 -104.72,37.477 -36.435,37.477 -68.289999,77.2 -122.949999,55.55 -54.66,-21.765 -121.77,-130.37 -70.55,-184.7 51.17,-54.33 96.39,-31.39 111.12,0.513 14.67,31.853 10.717,53.817 -9.824,82.69 -20.475,28.943 -40.966,49.48 -40.966,49.48"
       style="fill:#ffffff"
       inkscape:connector-curvature="0" />
  </g>
</svg>
