<?xml version="1.0" encoding="UTF-8" standalone="no"?>
<svg
   xmlns:dc="http://purl.org/dc/elements/1.1/"
   xmlns:cc="http://creativecommons.org/ns#"
   xmlns:rdf="http://www.w3.org/1999/02/22-rdf-syntax-ns#"
   xmlns:svg="http://www.w3.org/2000/svg"
   xmlns="http://www.w3.org/2000/svg"
   xmlns:sodipodi="http://sodipodi.sourceforge.net/DTD/sodipodi-0.dtd"
   xmlns:inkscape="http://www.inkscape.org/namespaces/inkscape"
   viewBox="0 0 512 512"
   id="svg2"
   version="1.1"
   inkscape:version="0.91+devel r13804 custom"
   sodipodi:docname="emacs.svg">
  <metadata
     id="metadata4858">
    <rdf:RDF>
      <cc:Work
         rdf:about="">
        <dc:format>image/svg+xml</dc:format>
        <dc:type
           rdf:resource="http://purl.org/dc/dcmitype/StillImage" />
      </cc:Work>
    </rdf:RDF>
  </metadata>
  <defs
     id="defs4856" />
  <sodipodi:namedview
     pagecolor="#ffffff"
     bordercolor="#666666"
     borderopacity="1"
     objecttolerance="10"
     gridtolerance="10"
     guidetolerance="10"
     inkscape:pageopacity="0"
     inkscape:pageshadow="2"
     inkscape:window-width="1366"
     inkscape:window-height="709"
     id="namedview4854"
     showgrid="false"
     inkscape:zoom="0.4609375"
     inkscape:cx="-8.6779661"
     inkscape:cy="237.55932"
     inkscape:window-x="-2"
     inkscape:window-y="-3"
     inkscape:window-maximized="1"
     inkscape:current-layer="svg2" />
  <g
     id="g8207"
     transform="translate(295.05085,-323.25424)">
    <rect
       id="rect4848"
       height="512"
       rx="25.988001"
       width="512"
       style="fill:#8238a7"
       x="-295.05185"
       y="323.25424" />
    <path
       id="path4850"
       d="m 85.098153,364.26424 c -35.948,-0.227 -107.04,4.81 -107.08,4.813 -0.005,-0.001 -0.009,-0.003 -0.014,-0.004 l 0.004,0.004 -0.004,0 44.648,44.648 c -24.0900005,-2.366 -47.07,-5.08 -47.09,-5.082 -55.22,-8.495 -93.670003,-16.542 -110.440003,5.361 l -0.002,-0.002 c -10.954,14.312 1.564,31.749 6.484,42.03 l 80.130003,80.13 -80.130003,-80.13 c 8.309,14.499 18.916,27.27 30.200003,38.551 l 0.502,0.502 c -0.17,-0.169 -0.342,-0.332 -0.512,-0.502 l 59.773,59.773 c -71.580003,-13.14 -128.990003,-0.534 -167.080003,19.492 l -0.006,-0.006 c -38.2,22.612 -42.12,57.14 -6.271,92.99 l 0.002,0 107.25,107.25 c -33.482,0.65 -64.731,0.873 -65.01,0.873 l 0.027,0.027 -0.027,-0.008 60.28,60.28 300.23,0 c 14.397,0 25.988,-11.591 25.988,-25.988 l 0,-348.82 -74.824,-74.824 c 0.032,0.032 0.062,0.066 0.094,0.098 l -0.1,-0.1 c -12.514,-12.514 -30.897,-20.626 -50.329997,-21.24 l 0,0.002 c -2.053,-0.065 -4.294,-0.104 -6.691,-0.119"
       style="opacity:0.25"
       inkscape:connector-curvature="0" />
    <path
       id="path4852"
       d="m -169.55185,774.97424 c 0,0 25.64,7.443 59.753,11.697 13.818003,1.723 66.400003,7.746 106.7000025,7.581 0,0 49.0900005,0.053 76.1900005,-3.793 28.355997,-4.03 44.419997,-9.168 53.359997,-19.427 0.233,-2.445 4.316,-10.42 -6.707,-18.1 -28.179997,-19.65 -64.609997,-25.04 -135.359997,-41.842 -78.24,-19.665 -101.630003,-38.51 -113.310003,-52.14 -11.08,-13.664 2.079,-42.03 65.120003,-55.964 31.922,-7.769 150.81,-9.196 150.81,-9.196 -34.11,-27.08 -98.15,-75.57 -111.24,-85.88 -11.479,-9.04 -29.98,-22.92 -31.967,-35.32 -2.683,-12.07 16.319,-17.885 26.379,-18.554 32.4149995,-2.235 76.68,1.564 116.03,9.39 19.777997,3.933 23.249997,3.354 23.249997,3.354 28.17,1.342 50.08,-13.413 48.958,-44.487 -0.224,-31.522 -31.735,-56.797 -66.619997,-57.9 -32.847,-1.04 -113.79,4.694 -113.79,4.694 94.34,19.449 109.77,24.412 114.69,35.768 2.906,6.707 -4.855,13.375 -30.851,12.07 -28.3,-1.419 -86.29,-8.271 -86.29,-8.271 -55.22,-8.495 -93.670003,-16.543 -110.440003,5.365 -10.954,14.312 1.564,31.75 6.484,42.03 21.908,38.23 59.792003,64.45 83.830003,82.94 9.05,6.955 36.6629995,22.355 36.6629995,22.355 -85.8499995,-23.474 -154.2500025,-10.283 -197.6100025,12.518 -49.854,29.508 -41.32,79.31 37.784,125.86 46.716,27.497 69.986003,40.712 146.480003,50.1 44.715,7.131 51.39,10.05 51.04,13.769 -0.479,5.241 -52.931,7.225 -67.34,8.22 -36.674,2.529 -131.520003,3.161 -132.000003,3.161"
       style="fill:#ffffff"
       inkscape:connector-curvature="0" />
  </g>
</svg>
