<?xml version="1.0" encoding="UTF-8" standalone="no"?>
<svg
   xmlns:dc="http://purl.org/dc/elements/1.1/"
   xmlns:cc="http://creativecommons.org/ns#"
   xmlns:rdf="http://www.w3.org/1999/02/22-rdf-syntax-ns#"
   xmlns:svg="http://www.w3.org/2000/svg"
   xmlns="http://www.w3.org/2000/svg"
   xmlns:sodipodi="http://sodipodi.sourceforge.net/DTD/sodipodi-0.dtd"
   xmlns:inkscape="http://www.inkscape.org/namespaces/inkscape"
   viewBox="0 0 512 512"
   id="svg2"
   version="1.1"
   inkscape:version="0.91+devel r13804 custom"
   sodipodi:docname="evolution-tasks.svg">
  <metadata
     id="metadata3052">
    <rdf:RDF>
      <cc:Work
         rdf:about="">
        <dc:format>image/svg+xml</dc:format>
        <dc:type
           rdf:resource="http://purl.org/dc/dcmitype/StillImage" />
      </cc:Work>
    </rdf:RDF>
  </metadata>
  <defs
     id="defs3050" />
  <sodipodi:namedview
     pagecolor="#ffffff"
     bordercolor="#666666"
     borderopacity="1"
     objecttolerance="10"
     gridtolerance="10"
     guidetolerance="10"
     inkscape:pageopacity="0"
     inkscape:pageshadow="2"
     inkscape:window-width="1366"
     inkscape:window-height="709"
     id="namedview3048"
     showgrid="false"
     inkscape:zoom="0.4609375"
     inkscape:cx="-8.6779661"
     inkscape:cy="237.55932"
     inkscape:window-x="-2"
     inkscape:window-y="-3"
     inkscape:window-maximized="1"
     inkscape:current-layer="svg2" />
  <g
     id="g6404"
     transform="translate(303.72881,-290.71186)">
    <path
       id="path232"
       d="m -277.72881,290.71186 c -14.397,0 -26,11.603 -26,26 l 0,460 c 0,14.397 11.603,26 26,26 l 460,0 c 14.397,0 26,-11.603 26,-26 l 0,-460 c 0,-14.397 -11.603,-26 -26,-26 l -460,0"
       style="fill:#d53d3d;fill-opacity:0.99199997"
       inkscape:connector-curvature="0" />
    <g
       transform="translate(-303.72881,290.71186)"
       id="g3042">
      <path
         id="path3044"
         d="m 454.11,56.885 c -0.444,-0.01 -0.893,0.021 -1.348,0.047 l -0.002,0 c -16.293,3.652 -27.818,17.222 -42.41,24.645 l 0.006,0.006 c -31.03,21.511 -59.685,45.884 -86.48,72.22 l -12.615,-12.615 c -28.756,-19.982 -63.51,-30.791 -98.63,-30.598 l -0.002,0 0,-0.002 c -1.266,0.007 -2.547,0.011 -3.814,0.047 l 0.004,0.004 c -66.859,0.816 -130.49,44.853 -155.08,107.05 l 22.244,22.246 -22.248,-22.246 c -24.544,58.48 -12.99,130.25 29.25,177.82 2.862,3.389 5.862,6.649 8.988,9.775 l 106.71,106.71 287.31,0 c 14.397,0 26,-11.603 26,-26 l 0,-377.43 -46.826,-46.826 c 0.03,0.03 0.056,0.064 0.086,0.094 l -0.09,-0.09 c -2.875,-2.875 -6.672,-4.759 -11.06,-4.863"
         inkscape:connector-curvature="0"
         style="opacity:0.25" />
      <path
         id="path3046"
         d="m 454.11,56.885 c -0.444,-0.01 -0.893,0.02 -1.348,0.046 -16.293,3.652 -27.818,17.223 -42.41,24.646 -74.976,51.968 -136.08,120.6 -190.56,193.45 -28.605,-13.1 -53.38,-34.844 -83.66,-43.804 -13.982,0.947 -23.11,20.886 -11.858,30.691 29.97,35.463 60.63,70.61 90.72,105.88 7.968,6.634 14.469,20.225 26.692,16.88 11.977,-2.117 16.12,-14.482 20.321,-24.13 50.879,-103.04 120.07,-197.74 205.81,-274.54 7.953,-10.994 0.034,-28.782 -13.718,-29.11 m -241.48,53.709 c -1.266,0.007 -2.546,0.01 -3.813,0.046 -66.859,0.816 -130.49,44.854 -155.08,107.05 -24.544,58.48 -12.99,130.25 29.25,177.82 40.687,48.18 109.24,70.11 170.57,54.778 63.46,-14.525 116.03,-68.66 128.39,-132.81 7.283,-33.765 3.281,-69.27 -9.905,-100.95 -6.982,9.114 -13.779,18.347 -20.414,27.715 14.409,50.878 -1.882,109.39 -41.572,144.53 -43.3,40.861 -112.83,49.43 -164.89,20.507 -50.917,-26.599 -81.967,-85.78 -74.63,-142.94 5.987,-59.04 52.44,-110.86 110.25,-123.46 10.672,-2.379 21.469,-3.694 32.411,-3.674 27.585,-0.355 54.611,8.141 77.56,22.925 6.716,-7.093 13.557,-14.07 20.507,-20.926 -28.757,-19.982 -63.51,-30.792 -98.63,-30.598"
         inkscape:connector-curvature="0"
         style="fill:#ffffff" />
    </g>
  </g>
</svg>
