<?xml version="1.0" encoding="UTF-8" standalone="no"?>
<svg
   xmlns:dc="http://purl.org/dc/elements/1.1/"
   xmlns:cc="http://creativecommons.org/ns#"
   xmlns:rdf="http://www.w3.org/1999/02/22-rdf-syntax-ns#"
   xmlns:svg="http://www.w3.org/2000/svg"
   xmlns="http://www.w3.org/2000/svg"
   xmlns:sodipodi="http://sodipodi.sourceforge.net/DTD/sodipodi-0.dtd"
   xmlns:inkscape="http://www.inkscape.org/namespaces/inkscape"
   viewBox="0 0 512 512"
   id="svg2"
   version="1.1"
   inkscape:version="0.91+devel r13804 custom"
   sodipodi:docname="evolution.svg">
  <metadata
     id="metadata3090">
    <rdf:RDF>
      <cc:Work
         rdf:about="">
        <dc:format>image/svg+xml</dc:format>
        <dc:type
           rdf:resource="http://purl.org/dc/dcmitype/StillImage" />
      </cc:Work>
    </rdf:RDF>
  </metadata>
  <defs
     id="defs3088" />
  <sodipodi:namedview
     pagecolor="#ffffff"
     bordercolor="#666666"
     borderopacity="1"
     objecttolerance="10"
     gridtolerance="10"
     guidetolerance="10"
     inkscape:pageopacity="0"
     inkscape:pageshadow="2"
     inkscape:window-width="1366"
     inkscape:window-height="709"
     id="namedview3086"
     showgrid="false"
     inkscape:zoom="0.4609375"
     inkscape:cx="-8.6779661"
     inkscape:cy="237.55932"
     inkscape:window-x="-2"
     inkscape:window-y="-3"
     inkscape:window-maximized="1"
     inkscape:current-layer="svg2" />
  <g
     id="g6439"
     transform="translate(303.72882,-284.2034)">
    <rect
       id="rect3038"
       height="512"
       rx="25.988001"
       width="512"
       style="fill:#f38725"
       x="-303.72882"
       y="284.2034" />
    <path
       id="path3082"
       d="m -31.278814,325.20339 c -45.26,0 -85.529996,10 -120.789996,30 l 37.25,37.25 c -0.001,10e-4 -0.003,-0.001 -0.004,0 l -37.25,-37.25 c -35.26,19.82 -62.54,47.45 -81.84,82.89 l -0.002,0 c -19.12,35.44 -28.684,74.83 -28.684,118.16 0,60.42 17.402,108.03 52.21,142.84 l 0.002,0.004 c 0.022,0.022 0.046,0.044 0.068,0.066 l 97.04,97.04 295.56,0 c 14.397,0 25.988,-11.591 25.988,-25.988 l 0,-296.9 -93.33,-93.33 c -12.278,-12.278 -26.545004,-22.645 -42.797004,-31.1 l 73.640004,73.64 c 10e-4,0.003 0.003,0.005 0.004,0.008 l -73.650004,-73.65 c -30.35,-15.789 -64.8239996,-23.684 -103.42,-23.684"
       style="opacity:0.25"
       inkscape:connector-curvature="0" />
    <path
       id="path3084"
       d="m 167.14119,517.04339 c 0,25.26 -4.04,48.42 -12.11,69.47 -8.07,21.05 -19.474,37.456 -34.21,49.21 -14.737,11.754 -31.842004,17.632 -51.320004,17.632 -12.983,0 -24.562,-3.07 -34.737,-9.211 -10,-6.316 -17.11,-14.561 -21.316,-24.737 l -4.2109996,0 c -8.59699996,10.526 -19.04,18.86 -31.3200004,25 -12.281,5.965 -25.965,8.947 -41.05,8.947 -31.05,0 -55.529996,-9.298 -73.419996,-27.895 -17.895,-18.772 -26.842,-44.3 -26.842,-76.58 0,-36.666 11.579,-66.4 34.737,-89.21 23.333,-22.807 54.209996,-34.21 92.629996,-34.21 14.21,0 30.6140004,1.404 49.21,4.211 18.596,2.632 33.772,6.05 45.526,10.263 l -6.05,128.68 c 0,24.562 6.666,36.842 20,36.842 11.228,0 20.18,-8.158 26.842,-24.474 6.666004,-16.491 10.000004,-37.982 10.000004,-64.47 0,-28.25 -5.878,-53.16 -17.632004,-74.74 -11.579,-21.754 -28.07,-38.33 -49.47,-49.737 -21.23,-11.579 -45.6139996,-17.368 -73.16,-17.368 -35.26,0 -66.05,7.369 -92.369996,22.11 -26.316,14.737 -46.4,35.79 -60.26,63.16 -13.86,27.369 -20.79,58.948 -20.789,94.74 0,48.597 12.895,85.88 38.684,111.84 25.965,25.789 63.51,38.684 112.629996,38.684 19.649,0 40.701,-2.193 63.16,-6.579 22.456,-4.386 43.772,-10.351 63.947,-17.895 l 0,50.789 c -37.19,15.789 -78.8599996,23.684 -125,23.684 -66.669996,0 -118.679996,-17.544 -156.049996,-52.632 -37.19,-35.09 -55.79,-83.86 -55.789,-146.32 0,-43.33 9.561,-82.72 28.684,-118.16 19.298,-35.438 46.579,-63.07 81.84,-82.89 35.26,-20 75.529996,-30 120.789996,-30 38.5960004,0 73.07,7.895 103.42,23.684 30.350004,15.79 53.772004,38.25 70.260004,67.37 16.491,29.12 24.736,62.72 24.737,100.79 m -269.47,32.895 c 0,37.02 15.089996,55.53 45.259996,55.53 15.614,0 27.544,-5.526 35.789,-16.579 8.421,-11.228 13.5080004,-29.474 15.2630004,-54.737 l 3.421,-58.16 c -8.0700004,-1.754 -18.1600004,-2.631 -30.2600004,-2.632 -21.93,0 -39.04,6.842 -51.32,20.526 -12.11,13.684 -18.159996,32.369 -18.159996,56.05"
       style="fill:#ffffff"
       inkscape:connector-curvature="0" />
  </g>
</svg>
