<?xml version="1.0" encoding="UTF-8" standalone="no"?>
<svg
   xmlns:dc="http://purl.org/dc/elements/1.1/"
   xmlns:cc="http://creativecommons.org/ns#"
   xmlns:rdf="http://www.w3.org/1999/02/22-rdf-syntax-ns#"
   xmlns:svg="http://www.w3.org/2000/svg"
   xmlns="http://www.w3.org/2000/svg"
   xmlns:sodipodi="http://sodipodi.sourceforge.net/DTD/sodipodi-0.dtd"
   xmlns:inkscape="http://www.inkscape.org/namespaces/inkscape"
   viewBox="0 0 512 512"
   id="svg2"
   version="1.1"
   inkscape:version="0.91+devel r13804 custom"
   sodipodi:docname="exfalso.svg">
  <metadata
     id="metadata3140">
    <rdf:RDF>
      <cc:Work
         rdf:about="">
        <dc:format>image/svg+xml</dc:format>
        <dc:type
           rdf:resource="http://purl.org/dc/dcmitype/StillImage" />
      </cc:Work>
    </rdf:RDF>
  </metadata>
  <defs
     id="defs3138" />
  <sodipodi:namedview
     pagecolor="#ffffff"
     bordercolor="#666666"
     borderopacity="1"
     objecttolerance="10"
     gridtolerance="10"
     guidetolerance="10"
     inkscape:pageopacity="0"
     inkscape:pageshadow="2"
     inkscape:window-width="1366"
     inkscape:window-height="709"
     id="namedview3136"
     showgrid="false"
     inkscape:zoom="0.4609375"
     inkscape:cx="-8.6779661"
     inkscape:cy="237.55932"
     inkscape:window-x="-2"
     inkscape:window-y="-3"
     inkscape:window-maximized="1"
     inkscape:current-layer="svg2" />
  <g
     id="g6492"
     transform="translate(269.01694,-290.71186)">
    <rect
       id="rect3082"
       height="512"
       rx="25.988001"
       width="512"
       style="fill:#9a3034"
       x="-269.01694"
       y="290.71036" />
    <g
       transform="translate(-269.01695,290.71036)"
       id="g3130"
       style="fill-rule:evenodd">
      <path
         id="path3132"
         d="m 41,36.813 0,8.157 1.189,1.189 c 25.358,26.87 32.381,48.45 36.75,71.811 l 126.89,126.89 c -0.005,-0.002 -0.01,-0.005 -0.016,-0.008 L 78.933,117.972 c 4.393,23.494 5.919,48.87 20.406,81.63 l 0.002,0.002 c 3.84,8.678 8.398,15.339 13.484,20.426 l 0,0.002 c 0.017,0.017 0.034,0.032 0.051,0.049 l 54.686,54.688 c -2.965,0.181 -5.936,0.348 -8.904,0.547 l -0.002,-0.002 c -11.471,0.769 -22.838,2.066 -33.19,7.219 -10.349,5.153 -19.473,14.194 -26.314,29.656 l 0.004,0.004 c -14.487,32.754 -16,58.21 -20.344,81.75 l 39.25,39.25 -0.004,0 -39.25,-39.25 c -4.344,23.543 -11.342,45.28 -37.06,72.38 l 45.68,45.68 398.58,0 c 8.205,0 15.496,-3.768 20.252,-9.672 l -36.02,-36.02 -3.938,3.936 c -15.389,-14.609 -29.03,-23.15 -42.25,-28.605 -5.5,-13.27 -14.09,-26.96 -28.758,-42.4 l -0.75,-0.75 0,-7.846 4.688,4.688 0.092,0.092 c 15.387,14.587 29.05,23.13 42.29,28.586 5.45,13.236 13.998,26.895 28.625,42.3 l 36.02,36.01 c 3.587,-4.454 5.734,-10.122 5.734,-16.313 l 0,-398.57 -45.689,-45.689 c -27.1,25.726 -48.792,32.675 -72.28,36.969 l 0,0.002 c -23.49,4.293 -48.859,5.76 -81.62,20.25 -15.443,6.83 -24.515,15.936 -29.688,26.28 l -0.002,0 c -5.173,10.344 -6.52,21.712 -7.314,33.19 l 0.004,0.004 c -0.203,2.937 -0.372,5.878 -0.555,8.813 l -54.605,-54.605 c -5.089,-5.089 -11.754,-9.649 -20.438,-13.49 l -0.002,0 c -32.749,-14.485 -58.2,-15.968 -81.74,-20.311 l -0.01,-0.01 C 95.596,74.698 74.774,68.126 49.384,45.203 l -8.389,-8.389"
         inkscape:connector-curvature="0"
         style="opacity:0.25" />
      <path
         id="path3134"
         d="m 41,36.813 0,8.157 0.75,0.719 c 25.723,27.09 32.795,48.787 37.19,72.28 4.393,23.494 5.919,48.871 20.406,81.63 6.838,15.459 15.953,24.516 26.28,29.688 10.328,5.172 21.678,6.518 33.13,7.313 22.09,1.533 44.34,1.157 62.938,19.406 -18.59,18.233 -40.9,17.828 -63.03,19.313 -11.471,0.769 -22.839,2.066 -33.19,7.219 -10.349,5.153 -19.472,14.194 -26.313,29.656 -14.487,32.754 -16,58.21 -20.344,81.75 -4.344,23.543 -11.341,45.28 -37.06,72.38 l 3.938,3.938 c 27.09,-25.721 48.831,-32.719 72.38,-37.06 23.544,-4.344 48.991,-5.856 81.75,-20.344 15.459,-6.838 24.516,-15.953 29.688,-26.28 5.172,-10.328 6.487,-21.678 7.281,-33.12 1.532,-22.08 1.177,-44.32 19.406,-62.906 18.1,18.591 17.689,40.895 19.219,63.03 0.793,11.474 2.14,22.843 7.313,33.19 5.173,10.345 14.244,19.45 29.688,26.28 32.763,14.491 58.13,15.957 81.63,20.25 23.491,4.293 45.18,11.242 72.28,36.969 l 3.938,-3.938 c -25.726,-27.1 -32.675,-48.791 -36.969,-72.28 -4.293,-23.491 -5.76,-48.86 -20.25,-81.62 -6.83,-15.441 -15.926,-24.527 -26.25,-29.719 -10.324,-5.192 -21.675,-6.557 -33.12,-7.375 -22.08,-1.577 -44.32,-1.231 -62.906,-19.313 18.586,-18.08 40.826,-17.736 62.906,-19.313 11.45,-0.818 22.801,-2.183 33.13,-7.375 10.324,-5.192 19.42,-14.277 26.25,-29.719 14.491,-32.763 15.957,-58.13 20.25,-81.62 4.293,-23.491 11.242,-45.18 36.969,-72.28 l -3.938,-3.938 c -27.1,25.726 -48.791,32.675 -72.28,36.969 -23.49,4.293 -48.86,5.76 -81.62,20.25 -15.443,6.83 -24.515,15.937 -29.688,26.28 -5.173,10.344 -6.519,21.713 -7.313,33.19 -1.529,22.13 -1.116,44.44 -19.19,63.03 -18.245,-18.591 -17.874,-40.819 -19.406,-62.906 -0.794,-11.447 -2.141,-22.797 -7.313,-33.12 -5.172,-10.328 -14.227,-19.443 -29.688,-26.28 C 167.088,84.707 141.632,83.225 118.092,78.881 94.578,74.542 72.862,67.555 45.812,41.912 l -0.063,-0.063 c -0.011,-0.011 -0.02,-0.021 -0.031,-0.031 L 41.03,36.849"
         inkscape:connector-curvature="0"
         style="fill:#ffffff" />
    </g>
  </g>
</svg>
