<?xml version="1.0" encoding="UTF-8" standalone="no"?>
<svg
   xmlns:dc="http://purl.org/dc/elements/1.1/"
   xmlns:cc="http://creativecommons.org/ns#"
   xmlns:rdf="http://www.w3.org/1999/02/22-rdf-syntax-ns#"
   xmlns:svg="http://www.w3.org/2000/svg"
   xmlns="http://www.w3.org/2000/svg"
   xmlns:sodipodi="http://sodipodi.sourceforge.net/DTD/sodipodi-0.dtd"
   xmlns:inkscape="http://www.inkscape.org/namespaces/inkscape"
   viewBox="0 0 512 512"
   id="svg2"
   version="1.1"
   inkscape:version="0.91+devel r13804 custom"
   sodipodi:docname="fadein.svg">
  <metadata
     id="metadata3407">
    <rdf:RDF>
      <cc:Work
         rdf:about="">
        <dc:format>image/svg+xml</dc:format>
        <dc:type
           rdf:resource="http://purl.org/dc/dcmitype/StillImage" />
      </cc:Work>
    </rdf:RDF>
  </metadata>
  <sodipodi:namedview
     pagecolor="#ffffff"
     bordercolor="#666666"
     borderopacity="1"
     objecttolerance="10"
     gridtolerance="10"
     guidetolerance="10"
     inkscape:pageopacity="0"
     inkscape:pageshadow="2"
     inkscape:window-width="1366"
     inkscape:window-height="709"
     id="namedview3405"
     showgrid="false"
     inkscape:zoom="0.4609375"
     inkscape:cx="-8.6779661"
     inkscape:cy="237.55932"
     inkscape:window-x="-2"
     inkscape:window-y="-3"
     inkscape:window-maximized="1"
     inkscape:current-layer="svg2" />
  <defs
     id="defs4">
    <linearGradient
       id="0"
       gradientUnits="userSpaceOnUse"
       x2="0"
       y2="513.77"
       y1="-1.722">
      <stop
         stop-color="#4b4b4b"
         offset="0"
         id="stop7" />
      <stop
         stop-color="#5e5e5e"
         offset=".686"
         id="stop9" />
      <stop
         stop-color="#2c2c2c"
         offset=".722"
         id="stop11" />
      <stop
         stop-color="#2c2c2c"
         offset="1"
         id="stop13" />
    </linearGradient>
    <linearGradient
       id="0-0"
       gradientUnits="userSpaceOnUse"
       x2="0"
       y2="513.77002"
       y1="-1.722"
       gradientTransform="translate(-301.55932,295.05085)">
      <stop
         stop-color="#4b4b4b"
         offset="0"
         id="stop7-7" />
      <stop
         stop-color="#5e5e5e"
         offset=".686"
         id="stop9-0" />
      <stop
         stop-color="#2c2c2c"
         offset=".722"
         id="stop11-9" />
      <stop
         stop-color="#2c2c2c"
         offset="1"
         id="stop13-3" />
    </linearGradient>
  </defs>
  <g
     id="g6774"
     transform="translate(301.55932,-295.05085)">
    <path
       id="path61"
       d="m -275.55932,295.05085 c -14.397,0 -26,11.603 -26,26 l 0,460 c 0,14.397 11.603,26 26,26 l 460,0 c 14.397,0 26,-11.603 26,-26 l 0,-460 c 0,-14.397 -11.603,-26 -26,-26 l -460,0"
       style="fill:url(#0-0)"
       inkscape:connector-curvature="0" />
    <path
       id="path63"
       d="m -244.15932,392.23085 0,13.246 0.004,0.004 -0.004,0 41.58,41.58 0,157.98 91.33,91.33 c -9.868,-0.584 -17.727,-1.122 -23.768,-1.877 l -21.645,-21.645 c -12.517,0.008 -25.03,0.037 -37.545,0.088 l 0.002,0.002 c -2.764,-0.322 -5.572,-0.511 -8.375,-0.57 l -0.002,0 c -0.308,20.66 -3.835,21.654 -41.58,24.21 l 0,13.291 97.18,97.18 331.42,0 c 14.397,0 26,-11.603 26,-26 l 0,-331.33 -57.49,-57.49 -128.910002,0 0.01,0.01 0,13.236 0.004,0.004 -0.004,0 41.58,41.58 0,20.13 -74.959,-74.959 -234.829998,0"
       style="opacity:0.25"
       inkscape:connector-curvature="0" />
    <path
       id="path3401"
       d="m -246.13932,624.40085 c -8.01,0 -14.421,6.469 -14.421,14.483 0,8.01 6.406,14.421 14.421,14.421 l 401.1,0 c 8.01,0 14.483,-6.406 14.483,-14.421 0,-8.01 -6.469,-14.483 -14.483,-14.483 l -401.1,0"
       style="fill:#d23638"
       inkscape:connector-curvature="0" />
    <path
       id="path3403"
       d="m -244.15932,392.23085 0,13.246 c 40.678,2.754 41.58,3.679 41.58,29.387 l 0,170.18 c 15.286,-0.142 30.547,-0.289 45.834,-0.351 l 0,-44.957 64.689998,0 c 39.29,0 41.15,11.02 45.31,40.4 l 13.86,0 0,-98.29 -13.86,0 c -4.16,29.38 -6.02,40.527 -45.31,40.527 l -64.689998,0 0,-117.59 c 0,-15.15 1.851,-16.492 17.11,-16.492 l 45.702998,0 c 53.621,0 64.28,10.546 70.75,57.37 l 13.86,0 0,-73.42 -234.829998,0 m 268.209998,0 0,13.246 c 40.678,2.754 41.58,3.679 41.58,29.387 l 0,169.92 c 15.243,-0.019 30.505,-0.006 45.747002,-0.088 l 0,-169.83 c 0,-25.707 1.364,-26.632 41.58,-29.387 l 0,-13.246 -128.910002,0 m -226.629998,280.14 c -0.308,20.66 -3.835,21.655 -41.58,24.21 l 0,13.29 136.36,0 0,-13.29 c -43.818,-2.535 -48.4,-3.555 -48.861,-23.729 -12.517,0.008 -25.03,0.037 -37.545,0.088 -2.765,-0.322 -5.573,-0.511 -8.377,-0.57 m 314,0.219 c -15.275002,0.173 -30.557002,0.316 -45.834002,0.395 -0.374,20.04 -4.183,21.07 -41.536,23.597 l 0,13.29 128.910002,0 0,-13.29 c -37.18,-2.546 -41.15,-3.553 -41.536,-23.992"
       style="fill:#ffffff"
       inkscape:connector-curvature="0" />
  </g>
</svg>
