<?xml version="1.0" encoding="UTF-8" standalone="no"?>
<svg
   xmlns:dc="http://purl.org/dc/elements/1.1/"
   xmlns:cc="http://creativecommons.org/ns#"
   xmlns:rdf="http://www.w3.org/1999/02/22-rdf-syntax-ns#"
   xmlns:svg="http://www.w3.org/2000/svg"
   xmlns="http://www.w3.org/2000/svg"
   xmlns:sodipodi="http://sodipodi.sourceforge.net/DTD/sodipodi-0.dtd"
   xmlns:inkscape="http://www.inkscape.org/namespaces/inkscape"
   viewBox="0 0 512 512"
   id="svg2"
   version="1.1"
   inkscape:version="0.91+devel r13804 custom"
   sodipodi:docname="feedly.svg">
  <metadata
     id="metadata5840">
    <rdf:RDF>
      <cc:Work
         rdf:about="">
        <dc:format>image/svg+xml</dc:format>
        <dc:type
           rdf:resource="http://purl.org/dc/dcmitype/StillImage" />
      </cc:Work>
    </rdf:RDF>
  </metadata>
  <defs
     id="defs5838" />
  <sodipodi:namedview
     pagecolor="#ffffff"
     bordercolor="#666666"
     borderopacity="1"
     objecttolerance="10"
     gridtolerance="10"
     guidetolerance="10"
     inkscape:pageopacity="0"
     inkscape:pageshadow="2"
     inkscape:window-width="1366"
     inkscape:window-height="709"
     id="namedview5836"
     showgrid="false"
     inkscape:zoom="0.4609375"
     inkscape:cx="-8.6779661"
     inkscape:cy="237.55932"
     inkscape:window-x="-2"
     inkscape:window-y="-3"
     inkscape:window-maximized="1"
     inkscape:current-layer="svg2" />
  <g
     id="g9189"
     transform="translate(418.71185,-344.94915)">
    <rect
       id="rect5784"
       height="512"
       rx="25.988001"
       width="512"
       style="fill:#89a80d"
       x="-418.71185"
       y="344.94815" />
    <path
       id="path5832"
       d="m -79.711864,385.94815 c -5.806,0 -11.609,2.236 -16.06,6.688 l -203.469996,203.44 0,0.002 48.5,48.5 -0.004,0 -48.5,-48.5 c -8.893,8.901 -8.893,23.22 0,32.13 l 85.29,85.29 c 0.123,0.129 0.242,0.261 0.369,0.389 l 16.398,16.4 69.1,69.1 c 0.062,0.064 0.12,0.13 0.184,0.193 l 57.369996,57.37 137.83,0 c 14.397,0 25.988,-11.591 25.988,-25.988 l 0,-281.39 -156.94,-156.94 c -4.446,-4.446 -10.253,-6.68 -16.06,-6.68"
       style="opacity:0.25"
       inkscape:connector-curvature="0" />
    <path
       id="path5834"
       d="m -79.711864,385.94815 c -5.806,0 -11.608,2.237 -16.06,6.688 l -203.469996,203.44 c -8.893,8.901 -8.893,23.22 0,32.13 l 16.406,16.375 52.875,0 193.059996,-193.06 c 8.893,-8.901 8.893,-23.22 0,-32.12 l -26.75,-26.75 c -4.446,-4.45 -10.256,-6.688 -16.06,-6.688 m 10.688,160.66 c -5.806,0 -11.608,2.206 -16.06,6.656 l -128.499996,128.5 c -8.893,8.901 -8.893,23.22 0,32.13 l 16.406,16.406 52.875,0 118.129996,-118.12 c 8.893,-8.901 8.893,-23.22 0,-32.12 l -26.781,-26.781 c -4.446,-4.45 -10.256,-6.656 -16.06,-6.656 m -17.12,187.41 c -5.439,0.261 -10.824,2.484 -14.999996,6.656 l -26.75,26.781 c -8.893,8.901 -8.893,23.22 0,32.13 l 16.406,16.375 52.843996,0 16.406,-16.375 c 8.893,-8.901 8.893,-23.22 0,-32.12 l -26.781,-26.781 c -4.724,-4.728 -10.961,-6.952 -17.12,-6.656"
       style="fill:#ffffff"
       inkscape:connector-curvature="0" />
  </g>
</svg>
