<?xml version="1.0" encoding="UTF-8" standalone="no"?>
<svg
   xmlns:dc="http://purl.org/dc/elements/1.1/"
   xmlns:cc="http://creativecommons.org/ns#"
   xmlns:rdf="http://www.w3.org/1999/02/22-rdf-syntax-ns#"
   xmlns:svg="http://www.w3.org/2000/svg"
   xmlns="http://www.w3.org/2000/svg"
   xmlns:sodipodi="http://sodipodi.sourceforge.net/DTD/sodipodi-0.dtd"
   xmlns:inkscape="http://www.inkscape.org/namespaces/inkscape"
   viewBox="0 0 512 512"
   id="svg2"
   version="1.1"
   inkscape:version="0.91+devel r13804 custom"
   sodipodi:docname="filebot.svg">
  <metadata
     id="metadata9484">
    <rdf:RDF>
      <cc:Work
         rdf:about="">
        <dc:format>image/svg+xml</dc:format>
        <dc:type
           rdf:resource="http://purl.org/dc/dcmitype/StillImage" />
      </cc:Work>
    </rdf:RDF>
  </metadata>
  <defs
     id="defs9482" />
  <sodipodi:namedview
     pagecolor="#ffffff"
     bordercolor="#666666"
     borderopacity="1"
     objecttolerance="10"
     gridtolerance="10"
     guidetolerance="10"
     inkscape:pageopacity="0"
     inkscape:pageshadow="2"
     inkscape:window-width="1366"
     inkscape:window-height="709"
     id="namedview9480"
     showgrid="false"
     inkscape:zoom="0.4609375"
     inkscape:cx="-8.6779661"
     inkscape:cy="237.55932"
     inkscape:window-x="-2"
     inkscape:window-y="-3"
     inkscape:window-maximized="1"
     inkscape:current-layer="svg2" />
  <g
     id="g12836"
     transform="translate(275.52542,-292.88135)">
    <rect
       id="rect9426"
       x="-275.52792"
       width="512"
       height="512"
       rx="25.988001"
       style="fill:#e57025"
       y="292.88135" />
    <path
       id="path9428"
       d="m 36.127076,292.88136 -146.059996,512 320.41,0 c 14.397,0 26,-11.603 26,-26 l 0,-460 c 0,-14.397 -11.603,-26 -26,-26 l -174.340004,0"
       style="fill:#69899f"
       inkscape:connector-curvature="0" />
    <path
       id="path9476"
       d="m -48.302924,358.21136 c -10.09,0 -19.522,1.495 -28.17,4.5 l 0,0.002 c -8.699,3.03 -16.478,7.721 -23.17,13.943 l 32.793,32.793 -0.002,0.002 -32.791,-32.791 c -6.705996,6.246 -12.303996,14.04 -16.833996,23.22 l 0.002,0.002 c -4.542,9.216 -7.937,19.741 -10.275,31.609 l -0.002,-0.002 -4.053,19.941 -20.332,0 58.429996,58.43 -0.002,0.006 -58.429996,-58.43 c -2.763,0 -5.876,0.932 -8.223,2.889 -1.572,1.319 -2.911,2.856 -4.053,4.557 l 0.006,0.006 c -1.193,1.765 -2.141,3.687 -2.889,5.721 l -0.002,-0.002 c -0.005,0.016 0.005,0.039 0,0.055 l 68.804996,68.805 0,0.004 -68.804996,-68.805 c -0.676,1.845 -1.248,3.773 -1.666,5.775 l -0.004,-0.004 c -0.407,1.935 -0.722,3.867 -0.889,5.777 l 18.611,18.611 -0.004,0 -18.609,-18.609 c -0.151,1.735 -0.223,3.236 -0.223,4.668 l 0.004,0.004 c 0,3.256 -0.044,6.453 2.945,9.943 l 0.887,0.887 c -0.028,-0.026 -0.058,-0.05 -0.086,-0.076 l -0.807,-0.807 c 0.166,0.195 0.339,0.385 0.521,0.566 l 22.281,22.281 -28.74,141.92 -0.002,0 0,0.055 38.918,38.918 -0.002,0.002 -38.916,-38.916 c -1.623,7.894 -3.403,14.567 -5.277,19.945 l -0.004,-0.004 c -1.818,5.208 -4.02,9.275 -6.389,12.277 l 0,0.002 c -2.303,2.909 -4.839,4.858 -7.945,6.168 l 0.004,0.004 c -3.134,1.321 -7.221,2.109 -12.332,2.109 l 36.29,36.29 c -10e-4,10e-4 -0.003,10e-4 -0.004,0.002 l -36.3,-36.3 c -1.988,0 -3.503,-0.091 -4.443,-0.223 l 0.004,0.004 c -0.022,-0.003 -0.035,0.003 -0.057,0 l 37.828,37.828 -0.002,0.002 -37.83,-37.83 c -1.361,-0.197 -2.493,-0.389 -3.322,-0.553 l -0.008,-0.008 c -0.983,-0.195 -1.921,-0.428 -2.721,-0.611 l 40.34,40.35 -40.34,-40.34 c -0.019,-0.003 -0.036,0.003 -0.055,0 -1.495,-0.343 -3.03,-0.5 -4.5,-0.5 l -0.002,0 c -3.079,0 -6.416,1.747 -8.223,3.889 l 0.002,0.002 c -1.392,1.651 -2.287,3.486 -3.055,5.389 l 35.703,35.703 -0.004,0 -35.703,-35.703 c -0.682,1.687 -1.284,3.457 -1.779,5.332 l -0.002,-0.002 c -0.455,1.733 -0.849,3.421 -1.166,5.05 l 0.006,0.006 c -0.283,1.495 -0.551,2.974 -0.777,4.389 l -0.002,0 c -0.23,1.467 -0.391,2.501 -0.391,4 0,1.883 0.108,3.657 0.779,5.668 l 0,0.049 8.432,8.432 c -0.002,-10e-4 -0.004,-10e-4 -0.006,-0.002 l -8.426,-8.426 c 0.564,1.653 1.436,3.171 2.5,4.5 l 0.01,0.01 0.436,0.545 0.074,0.074 -0.076,-0.068 71.77,71.77 369.52,0 c 14.397,0 25.986,-11.591 25.986,-25.988 l 0,-269.53 -144.720004,-144.72 c -1.234,-1.234 -2.67,-2.073 -3.945,-2.635 l -0.006,-0.006 -0.049,0 c -2.221,-0.971 -4.451,-1.494 -7,-1.832 l 0,0.002 -0.057,0 14.04,14.04 0,0.004 -14.04,-14.04 c -2.603,-0.342 -5.544,-0.443 -9.1,-0.443 l -0.01,-0.01 c -3.695,0 -6.864,0.116 -9.611,0.443 -2.703,0.326 -5.105,0.814 -7.387,1.668 l -0.002,-0.002 -0.057,0 0.002,0.002 c -2.25,0.855 -4.55,2.153 -6.385,4.555 l -0.002,-0.002 -0.055,0 40.25,40.25 0,0.004 -40.25,-40.25 c -0.011,0.014 0.011,0.043 0,0.057 l 40.24,40.24 0,0.004 -40.24,-40.24 c -1.268,1.678 -2.176,3.593 -2.668,5.551 l -0.002,-0.002 0,0.17 -0.057,0.168 0.006,0.006 -8.723,43.32 -48.602,-48.6 -0.006,-0.006 c -0.048,-0.047 -0.1,-0.074 -0.152,-0.102 l -0.324,-0.324 -0.023,-0.023 -0.057,0.055 1.412,1.412 c 0.022,0.024 0.043,0.048 0.064,0.072 l -1.48,-1.48 c -2.064,-1.863 -4.123,-2.841 -6.541,-3.771 l -0.008,-0.008 c -2.606,-0.994 -5.507,-1.815 -8.666,-2.5 l 20.4260003,20.426 0,0.004 -20.4300003,-20.43 c -3.183,-0.693 -6.514,-1.241 -10.113,-1.611 l 0.002,0.002 c -3.582,-0.369 -7.08,-0.554 -10.434,-0.555 l -0.006,-0.006"
       style="opacity:0.25"
       inkscape:connector-curvature="0" />
    <path
       id="path9478"
       d="m -48.302924,358.21136 c -10.09,0 -19.522,1.495 -28.17,4.5 -8.699,3.03 -16.478,7.722 -23.17,13.944 -6.705996,6.246 -12.303996,14.04 -16.833996,23.22 -4.543,9.217 -7.938,19.742 -10.277,31.611 l -4.055,19.946 -20.334,0 c -2.763,0 -5.876,0.932 -8.223,2.889 -1.572,1.319 -2.913,2.855 -4.055,4.556 -1.193,1.765 -2.141,3.689 -2.889,5.723 -0.005,0.016 0.005,0.04 0,0.056 -0.676,1.846 -1.249,3.774 -1.667,5.777 -0.407,1.935 -0.722,3.869 -0.889,5.779 -0.151,1.735 -0.223,3.237 -0.223,4.669 0,3.257 -0.045,6.454 2.945,9.945 2.234,2.631 5.958,3.999 8.945,3.999 l 17.667,0 -32.557,160.78 0,0.056 c -1.623,7.895 -3.403,14.567 -5.278,19.946 -1.818,5.208 -4.02,9.276 -6.389,12.278 -2.303,2.909 -4.839,4.857 -7.945,6.167 -3.134,1.322 -7.221,2.112 -12.333,2.112 -1.988,0 -3.505,-0.091 -4.445,-0.223 -0.022,-0.003 -0.034,0.003 -0.056,0 -1.365,-0.198 -2.503,-0.391 -3.333,-0.555 -0.983,-0.195 -1.922,-0.428 -2.722,-0.611 -0.019,-0.003 -0.037,0.003 -0.056,0 -1.495,-0.343 -3.03,-0.499 -4.5,-0.499 -3.079,0 -6.416,1.748 -8.223,3.89 -1.393,1.651 -2.288,3.486 -3.056,5.389 -0.682,1.688 -1.283,3.457 -1.778,5.333 -0.455,1.733 -0.85,3.421 -1.167,5.06 -0.283,1.495 -0.552,2.974 -0.778,4.389 -0.23,1.467 -0.39,2.5 -0.39,3.999 0,1.883 0.107,3.656 0.778,5.667 l 0,0.056 c 0.564,1.653 1.436,3.171 2.5,4.5 l 0.444,0.555 0.555,0.499 c 3.693,3.135 6.23,3.225 10.556,4.278 4.857,1.178 10.486,1.667 17.16,1.667 10.348,0 19.885,-1.478 28.501,-4.5 8.657,-3.036 16.436,-7.791 23.06,-14.11 6.621,-6.315 12.06,-14.14 16.444,-23.328 4.38,-9.191 7.745,-19.857 10.222,-31.945 l 34.666996,-170.84 36.28,0 c 2.718,0 5.33,-1.065 7.278,-2.444 1.753,-1.241 3.242,-2.77 4.445,-4.5 1.093,-1.572 2.033,-3.314 2.834,-5.166 0.775,-1.798 1.433,-3.659 1.945,-5.612 0.485,-1.83 0.85,-3.695 1.167,-5.556 0.337,-2.02 0.499,-4.01 0.499,-6 0,-3.316 -0.411,-6.858 -3.166,-10 l -0.056,0 c -2.277,-2.586 -6.06,-4.111 -9.276,-4.111 l -33.17,0 1.889,-9.778 0,-0.056 c 1.483,-7.572 3.243,-14.05 5.166,-19.389 1.883,-5.207 4.125,-9.271 6.556,-12.278 2.375,-2.937 4.987,-4.905 8.111,-6.215 3.107,-1.311 7.23,-2.112 12.507,-2.112 2.78,0 5.242,0.291 7.334,0.722 l 0,-0.056 c 2.435,0.51 4.534,1.093 6.167,1.611 1.86,0.594 3.441,1.112 4.778,1.611 1.983,0.748 3.9,1.333 6.278,1.333 3.311,0 6.363,-1.957 8,-3.89 l 0.056,0 c 1.393,-1.651 2.288,-3.437 3.056,-5.333 0.689,-1.702 1.2850003,-3.511 1.7780003,-5.389 0.487,-1.838 0.855,-3.621 1.112,-5.389 0.218,-1.51 0.405,-2.875 0.555,-4.111 l 0,-0.056 c 0.147,-1.277 0.278,-2.215 0.278,-3.444 0,-2.14 -0.363,-4.284 -1.056,-6.334 l 0.056,0 c -0.702,-2.095 -2.0200003,-4.142 -3.7780003,-5.777 l 0.056,-0.056 c -0.105,-0.104 -0.229,-0.124 -0.334,-0.223 -0.071,-0.062 -0.094,-0.162 -0.167,-0.223 l -0.056,0.056 c -2.068,-1.867 -4.132,-2.846 -6.556,-3.778 -2.606,-0.994 -5.507,-1.815 -8.666,-2.5 -3.183,-0.693 -6.513,-1.241 -10.112,-1.611 -3.585,-0.369 -7.087,-0.555 -10.444,-0.555 m 119.89,1.5 c -3.695,0 -6.864,0.117 -9.611,0.444 -2.704,0.326 -5.108,0.813 -7.39,1.667 l -0.056,0 c -2.251,0.855 -4.553,2.153 -6.389,4.556 l -0.056,0 c -0.011,0.014 0.011,0.042 0,0.056 -1.269,1.679 -2.175,3.597 -2.667,5.556 l 0,0.167 -0.056,0.167 -55.731,276.84 -0.111,0.499 0.056,0 c -0.496,2.184 -0.496,4.834 0.5550003,7.223 1.127,2.56 3.185,4.378 5.166,5.5 4.74299997,2.674 9.05,2.611 15.3899997,2.611 6.03,0 10.763,-0.388 15,-1.889 4.27,-1.513 8.405,-5.701 9.276,-10.5 l 0.056,0 0.111,-0.611 0.778,-3.723 c 4.972,4.517 10.239,8.473 16,11.5 10.229,5.374 22.312,7.945 35.835,7.945 13.090004,0 25.150004,-2.452 35.943004,-7.445 10.48,-4.845 19.847,-11.324 27.95,-19.333 8.02,-7.929 14.765,-17.04 20.283,-27.28 5.364,-9.977 9.877,-20.267 13.445,-30.834 3.553,-10.549 6.116,-21.07 7.722,-31.555 1.585,-10.335 2.388,-19.848 2.388,-28.612 0,-4.488 -0.303,-9.291 -0.889,-14.445 -0.606,-5.307 -1.674,-10.673 -3.166,-16 l 0,-0.056 c -1.561,-5.55 -3.766,-10.93 -6.612,-16.11 -3.02,-5.476 -6.963,-10.348 -11.778,-14.556 l -0.056,0 c -4.967,-4.336 -10.868,-7.745 -17.611,-10.222 -7.07,-2.6 -15.176,-3.778 -24.22,-3.778 -8.7,0 -17.351,1.615 -25.778,4.778 l -0.167,0.056 c -8.197004,3.092 -15.779004,6.98 -22.778004,11.667 -2.456,1.648 -4.693,3.451 -6.944,5.222 0.889,-3.594 1.727,-7.116 2.388,-10.5 0.003,-0.019 -0.003,-0.039 0,-0.056 l 16.778,-83.39 0.056,-0.278 0,-0.278 c 0.237,-1.943 0.215,-4.04 -0.499,-6.167 -1.198,-3.585 -4.061,-5.531 -6.389,-6.556 l -0.056,0 c -2.221,-0.971 -4.451,-1.495 -7,-1.833 l -0.056,0 c -2.606,-0.342 -5.551,-0.444 -9.112,-0.444 m 50.779004,132.22 c 5.335,0 8.704,1.124 10.945,2.778 l 0.056,0 c 2.954,2.178 4.995,4.638 6.501,7.722 1.665,3.412 2.838,7.161 3.444,11.278 0.003,0.022 -0.003,0.034 0,0.056 0.651,4.556 0.945,8.523 0.945,11.778 0,6.494 -0.58,13.547 -1.722,21.11 -1.139,7.543 -2.787,15.06 -5,22.557 -2.192,7.427 -4.916,14.482 -8.223,21.22 -3.253,6.617 -7.08,12.383 -11.389,17.389 -4.242,4.939 -8.861,8.79 -13.944,11.667 -4.721004,2.671 -9.919004,3.999 -16.060004,3.999 -8.32,0 -15.354,-1.929 -21.72,-5.777 -5.768,-3.486 -11.492,-9.177 -17.05,-16.722 l 6.215,-30.996 0,-0.056 c 2.254,-11.406 5.871,-21.829 10.778,-31.33 4.992,-9.681 10.641,-17.979 16.889,-24.998 6.23,-6.989 12.828,-12.332 19.834004,-16.17 6.947,-3.801 13.361,-5.5 19.5,-5.5"
       style="fill:#ffffff"
       inkscape:connector-curvature="0" />
  </g>
</svg>
