<?xml version="1.0" encoding="UTF-8" standalone="no"?>
<svg
   xmlns:dc="http://purl.org/dc/elements/1.1/"
   xmlns:cc="http://creativecommons.org/ns#"
   xmlns:rdf="http://www.w3.org/1999/02/22-rdf-syntax-ns#"
   xmlns:svg="http://www.w3.org/2000/svg"
   xmlns="http://www.w3.org/2000/svg"
   xmlns:sodipodi="http://sodipodi.sourceforge.net/DTD/sodipodi-0.dtd"
   xmlns:inkscape="http://www.inkscape.org/namespaces/inkscape"
   viewBox="0 0 512 512"
   id="svg2"
   version="1.1"
   inkscape:version="0.91+devel r13804 custom"
   sodipodi:docname="Finder_w.svg">
  <metadata
     id="metadata13455">
    <rdf:RDF>
      <cc:Work
         rdf:about="">
        <dc:format>image/svg+xml</dc:format>
        <dc:type
           rdf:resource="http://purl.org/dc/dcmitype/StillImage" />
      </cc:Work>
    </rdf:RDF>
  </metadata>
  <sodipodi:namedview
     pagecolor="#ffffff"
     bordercolor="#666666"
     borderopacity="1"
     objecttolerance="10"
     gridtolerance="10"
     guidetolerance="10"
     inkscape:pageopacity="0"
     inkscape:pageshadow="2"
     inkscape:window-width="1366"
     inkscape:window-height="709"
     id="namedview13453"
     showgrid="false"
     inkscape:zoom="0.4609375"
     inkscape:cx="-8.6779661"
     inkscape:cy="237.55932"
     inkscape:window-x="-2"
     inkscape:window-y="-3"
     inkscape:window-maximized="1"
     inkscape:current-layer="svg2" />
  <defs
     id="defs4">
    <linearGradient
       id="0"
       x2="512"
       gradientUnits="userSpaceOnUse">
      <stop
         stop-color="#7c9ede"
         offset="0"
         id="stop7" />
      <stop
         stop-color="#c7cee3"
         offset="1"
         id="stop9" />
    </linearGradient>
    <linearGradient
       id="0-2"
       x2="512"
       gradientUnits="userSpaceOnUse"
       gradientTransform="translate(-323.25424,295.05085)">
      <stop
         stop-color="#7c9ede"
         offset="0"
         id="stop7-4" />
      <stop
         stop-color="#c7cee3"
         offset="1"
         id="stop9-6" />
    </linearGradient>
  </defs>
  <g
     id="g16813"
     transform="translate(323.25424,-295.05085)">
    <path
       id="path9583"
       d="m -297.25424,295.05085 c -14.397,0 -26,11.603 -26,26 l 0,460 c 0,14.397 11.603,26 26,26 l 460,0 c 14.397,0 26,-11.603 26,-26 l 0,-460 c 0,-14.397 -11.603,-26 -26,-26 l -460,0"
       style="fill:url(#0-2)"
       inkscape:connector-curvature="0" />
    <path
       id="path13449"
       d="m -68.504237,336.05085 0.01,0.01 c -13.06,0.105 -26.409,0.965 -35.360003,2.547 -67.15,11.874 -123.91,53.945 -154.56,114.54 -16.483,32.589 -22.15,55.1 -23.14,91.87 -0.647,23.943 0.835,38.21 6.131,59.53 7.47,30.07 24.66,63.14 44.855,86.21 3.726,4.257 7.537,8.334 11.434,12.23 l 104.06,104.06 277.82,0 c 14.397,0 26,-11.603 26,-26 l 0,-277.83 -103.799997,-103.8 c -1.379,-1.379 -2.781,-2.745 -4.205,-4.1 -18.808,-17.883 -37.775,-30.421 -63.38,-41.791 -12.8180003,-5.693 -21.9380003,-8.801 -24.9080003,-8.633 l -0.002,0 c -0.684,0.039 -1.033,0.248 -1.033,0.648 0,0.87 -0.542,1.598 -1.166,1.598 -0.6239997,0 -1.1229997,0.516 -1.1229997,1.166 0,0.602 -0.849,2.025 -1.945,3.277 l -12.04,-12.04 c -0.146,-0.146 -6.653,-1.133 -14.42,-2.158 -6.441,-0.85 -14.823,-1.261 -23.658,-1.338 -1.841,-0.016 -3.702,-0.015 -5.568,0"
       style="opacity:0.25"
       inkscape:connector-curvature="0" />
    <path
       id="path13451"
       d="m -68.494237,336.06085 c -13.06,0.105 -26.411,0.965 -35.360003,2.547 -67.15,11.874 -123.91,53.944 -154.56,114.54 -16.483,32.589 -22.15,55.1 -23.14,91.87 -0.647,23.943 0.834,38.21 6.13,59.53 7.47,30.07 24.661,63.14 44.856,86.21 38.655,44.17 86.47,68.906 144.320003,74.73 15.236,1.534 54.61,-0.343 56.987,-2.72 0.247,-0.247 -0.906,-4.441 -2.547,-9.325 -7.253,-21.583 -12.74,-50.841 -14.808,-78.875 l -0.734,-9.93 -17.744,-0.043 c -41.150003,-0.028 -81.490003,-7.429 -124.940003,-22.924 -13.667,-4.874 -27.21,-11.169 -27.2,-12.649 0.006,-0.693 1.575,-3.933 3.454,-7.21 l 3.411,-5.958 4.231,1.856 c 45.18,19.986 96.15,31.04 143.330003,31.04 l 15.499,0 0.604,-5.958 c 0.338,-3.274 0.927,-9.536 1.295,-13.901 0.678,-8.05 3.481,-27.28 4.663,-31.99 l 0.648,-2.59 -73.134003,0 0.777,-9.93 c 6.03,-78.32 35.310003,-162.98 80.948003,-233.91 3.783,-5.88 6.794,-10.777 6.649,-10.923 -0.146,-0.146 -6.653,-1.134 -14.42,-2.159 -6.441,-0.85 -14.823,-1.261 -23.658,-1.338 -1.841,-0.016 -3.703,-0.015 -5.569,0 m 60.9589997,8.85 c -0.685,0.039 -1.036,0.247 -1.036,0.648 0,0.87 -0.542,1.597 -1.166,1.597 -0.6239997,0 -1.1229997,0.516 -1.1229997,1.166 0,0.65 -0.976,2.268 -2.202,3.583 -1.226,1.316 -2.01,2.774 -1.727,3.238 0.287,0.464 -0.317,1.162 -1.338,1.554 -1.021,0.392 -1.572,0.975 -1.209,1.338 0.363,0.364 -0.28,1.704 -1.468,2.979 -1.188,1.275 -1.924,2.752 -1.597,3.281 0.327,0.529 0.057,0.993 -0.604,0.993 -0.661,0 -1.166,0.748 -1.166,1.684 0,0.935 -0.548,1.727 -1.209,1.727 -0.66,0 -0.903,0.499 -0.518,1.122 0.385,0.624 0.186,1.122 -0.475,1.122 -0.66,0 -1.209,0.748 -1.209,1.684 0,0.935 -0.548,1.727 -1.209,1.727 -0.661,0 -0.904,0.499 -0.518,1.122 0.385,0.624 0.174,1.122 -0.475,1.122 -0.649,0 -1.508,1.29 -1.9,2.849 -0.391,1.559 -1.177,2.849 -1.77,2.849 -0.593,0 -0.774,0.499 -0.389,1.122 0.385,0.624 0.221,1.122 -0.389,1.122 -0.609,0 -1.993,2.288 -3.065,5.094 -1.072,2.806 -2.403,5.137 -2.979,5.137 -0.576,0 -0.731,0.499 -0.346,1.122 0.385,0.624 0.136,1.122 -0.561,1.122 -0.697,0 -0.99,0.499 -0.604,1.122 0.385,0.624 0.252,1.166 -0.302,1.166 -1.132,0 -6.657,11.279 -6.217,12.693 0.156,0.5 -0.309,0.907 -1.036,0.907 -0.728,0 -0.986,0.309 -0.604,0.691 0.382,0.382 -0.867,3.461 -2.763,6.821 -1.896,3.36 -3.099,6.087 -2.677,6.087 0.422,0 -0.335,1.789 -1.684,3.972 -1.349,2.183 -2.14,3.972 -1.727,3.972 0.413,0 -0.335,1.789 -1.684,3.972 -1.349,2.183 -2.147,3.972 -1.77,3.972 0.377,0 -0.122,1.237 -1.122,2.763 -1,1.526 -1.735,2.92 -1.641,3.108 0.094,0.189 -0.436,1.885 -1.166,3.756 -0.729,1.871 -1.4,3.909 -1.511,4.533 -0.112,0.624 -0.538,1.664 -0.907,2.288 -0.821,1.39 -3.184,8.63 -3.324,10.189 -0.056,0.624 -0.605,1.768 -1.252,2.547 -0.647,0.78 -0.81,1.425 -0.345,1.425 0.464,0 0.326,0.645 -0.302,1.425 -1.181,1.466 -3.144,8.689 -2.763,10.189 0.119,0.468 -0.352,0.863 -1.079,0.863 -0.727,0 -1.015,0.324 -0.604,0.734 0.41,0.41 0.177,1.451 -0.518,2.288 -0.695,0.837 -0.853,1.511 -0.388,1.511 0.465,0 0.271,0.63 -0.388,1.425 -0.66,0.795 -1.385,2.73 -1.641,4.274 -0.256,1.544 -0.808,3.554 -1.209,4.49 -0.401,0.935 -0.855,2.725 -1.036,3.972 -0.181,1.247 -0.722,2.933 -1.209,3.713 -0.487,0.78 -0.618,1.88 -0.259,2.461 0.359,0.581 0.115,1.395 -0.561,1.813 -0.676,0.418 -0.975,1.436 -0.648,2.288 0.327,0.852 0.078,1.893 -0.561,2.288 -0.639,0.395 -0.888,1.393 -0.561,2.245 0.327,0.852 0.125,1.858 -0.432,2.202 -0.557,0.344 -1.01,1.511 -1.036,2.59 -0.072,3.02 -0.708,6.408 -1.425,7.641 -0.684,1.176 -1.955,7.521 -2.849,14.16 -0.294,2.183 -0.809,5.511 -1.123,7.382 -0.865,5.169 -1.649,10.88 -2.115,15.283 -0.231,2.183 -0.753,5.365 -1.166,7.08 l -0.777,3.152 37.991,0 c 31.24,0 38.1,0.27 38.596,1.554 0.33,0.859 0.133,2.069 -0.475,2.677 -0.608,0.608 -1.262,2.321 -1.425,3.842 -0.162,1.522 -0.675,3.436 -1.166,4.231 -0.491,0.795 -0.585,1.747 -0.216,2.115 0.369,0.369 0.083,1.33 -0.604,2.159 -0.688,0.829 -0.959,2.271 -0.604,3.195 0.354,0.923 0.155,1.969 -0.432,2.331 -0.587,0.363 -1.079,1.779 -1.079,3.152 0,1.372 -0.266,4.293 -0.604,6.476 -0.886,5.712 -1.697,12.271 -2.245,18.13 -0.262,2.806 -0.822,8.359 -1.252,12.347 l -0.777,7.253 3.281,-0.777 c 1.81,-0.431 5.07,-0.98 7.253,-1.209 5.648,-0.591 13.3859997,-1.847 20.9819997,-3.411 1.871,-0.385 4.274,-0.677 5.353,-0.691 1.079,-0.013 2.246,-0.479 2.59,-1.036 0.344,-0.557 1.3490003,-0.759 2.2020003,-0.432 0.852,0.327 1.85,0.078 2.245,-0.561 0.395,-0.639 1.436,-0.888 2.288,-0.561 0.852,0.327 1.85,0.078 2.245,-0.561 0.395,-0.639 1.436,-0.932 2.288,-0.604 0.852,0.327 1.87,0.072 2.288,-0.604 0.418,-0.676 1.199,-0.974 1.727,-0.648 0.528,0.326 2.42,-0.003 4.188,-0.734 1.767,-0.732 3.59,-1.424 4.058,-1.554 0.468,-0.13 1.113,-0.362 1.425,-0.518 0.312,-0.156 1.06,-0.448 1.684,-0.604 0.624,-0.156 1.372,-0.405 1.684,-0.561 0.312,-0.156 1.103,-0.405 1.727,-0.561 0.624,-0.156 1.269,-0.394 1.425,-0.518 0.156,-0.124 1.442,-0.422 2.892,-0.691 1.45,-0.269 3.738,-1.111 5.094,-1.856 1.356,-0.746 3.486,-1.525 4.706,-1.727 1.22,-0.202 2.623,-1.01 3.108,-1.77 0.485,-0.764 0.896,-0.965 0.907,-0.475 0.013,0.49 1.144,0.26 2.547,-0.518 1.403,-0.778 2.943,-1.298 3.411,-1.166 0.468,0.132 0.863,-0.283 0.863,-0.907 0,-0.624 0.352,-1.033 0.82,-0.907 1.475,0.399 9.368,-2.91 9.368,-3.929 0,-0.535 0.499,-0.644 1.123,-0.259 0.624,0.385 1.166,0.136 1.166,-0.561 0,-0.697 0.499,-0.99 1.123,-0.604 0.624,0.385 1.122,0.079 1.122,-0.691 0,-0.831 0.855,-0.519 2.115,0.777 1.168,1.201 1.909,2.597 1.641,3.065 -0.269,0.468 0.08,0.82 0.777,0.82 0.697,0 0.947,0.542 0.561,1.166 -0.385,0.624 -0.136,1.122 0.561,1.122 0.697,0 0.99,0.499 0.604,1.122 -0.385,0.624 -0.136,1.122 0.561,1.122 0.697,0 0.947,0.542 0.561,1.166 -0.385,0.624 -0.254,1.122 0.302,1.122 2.643,0 0.584,3.538 -2.763,4.749 -2.079,0.752 -3.799,1.796 -3.799,2.331 0,0.535 -0.499,0.688 -1.123,0.302 -0.624,-0.385 -1.122,-0.136 -1.122,0.561 0,0.697 -0.499,0.947 -1.123,0.561 -0.624,-0.385 -1.166,-0.142 -1.166,0.518 0,0.66 -0.353,1.095 -0.82,0.993 -1.853,-0.405 -7.123,1.634 -7.123,2.763 0,0.66 -0.297,0.869 -0.691,0.475 -0.394,-0.394 -1.787,-0.123 -3.108,0.604 -1.321,0.727 -3.399,1.482 -4.619,1.684 -1.22,0.202 -2.623,1.01 -3.108,1.77 -0.485,0.764 -0.896,0.979 -0.907,0.475 -0.013,-0.505 -0.645,-0.53 -1.425,-0.043 -0.779,0.487 -2.05,1.01 -2.806,1.122 -2.735,0.415 -16.795,5.267 -18,6.217 -0.681,0.535 -1.489,0.712 -1.813,0.389 -0.324,-0.324 -2.084,0.035 -3.885,0.777 -1.801,0.742 -3.697,1.245 -4.231,1.122 -0.533,-0.123 -1.603,0.266 -2.374,0.907 -0.771,0.64 -1.647,0.943 -1.943,0.648 -0.296,-0.296 -2.305,-0.003 -4.447,0.648 -2.142,0.651 -5.1760003,1.408 -6.7350003,1.684 -1.559,0.276 -4.096,0.767 -5.656,1.079 -3.231,0.648 -7.841,1.377 -13.5989997,2.159 -2.183,0.296 -6.01,0.822 -8.505,1.166 -2.495,0.343 -5.596,0.659 -6.908,0.734 -2.247,0.128 -2.379,0.681 -2.072,9.368 0.327,9.275 0.925,16.727 2.072,25.13 0.341,2.495 0.65,5.465 0.691,6.648 0.041,1.183 0.872,5.01 1.813,8.505 0.941,3.494 1.95,8.131 2.245,10.275 0.295,2.143 1.07,4.519 1.727,5.31 0.657,0.792 0.877,1.983 0.475,2.634 -0.402,0.651 -0.233,1.209 0.389,1.209 0.622,0 1.149,0.895 1.166,1.986 0.039,2.397 0.854,7.506 1.252,7.9 0.158,0.156 0.405,0.801 0.561,1.425 0.156,0.624 0.392,1.269 0.518,1.425 0.126,0.156 0.388,1.234 0.604,2.374 0.216,1.14 0.79,2.929 1.252,3.972 1.068,2.411 1.25,3.172 1.425,5.267 0.183,2.194 1.53,2.132 9.8429997,-0.475 18.8860003,-5.922 45.5100003,-19.385 61.7360003,-31.21 47.634997,-34.724 77.867997,-84.51 87.469997,-144.06 1.887,-11.7 1.882,-48.34 0,-60.1 -8.121,-50.724 -29.488,-92.06 -65.019997,-125.85 -18.808,-17.883 -37.776,-30.42 -63.38,-41.79 -12.8210003,-5.694 -21.9420003,-8.803 -24.9100003,-8.634 m 25.8600003,80.77 c 0.852,0.039 1.709,0.534 3.238,1.511 6.253,3.998 6.31,4.28 6.174,30.09 -0.069,13.148 -0.212,24.473 -0.345,25.17 -0.133,0.697 -1.337,2.127 -2.634,3.195 -4.798,3.952 -10.262,3.545 -14.419,-1.079 -1.8760003,-2.087 -2.0550003,-4.578 -1.9430003,-26.81 0.112,-22.08 1.1,-31.711 3.0650003,-29.746 0.382,0.382 2.069,-0.126 3.756,-1.122 1.424,-0.841 2.257,-1.248 3.108,-1.209 m -182.620003,1.166 c 1.307,0.048 2.626,0.342 3.885,0.863 6.05,2.505 6.692,5.367 6.692,30.479 l 0,22.708 -3.108,3.324 c -1.715,1.821 -4.399,3.553 -5.958,3.885 -3.611,0.77 -9.68,-1.782 -11.268,-4.749 -0.763,-1.426 -1.209,-11.224 -1.209,-26.03 0,-22.06 0.167,-23.897 2.288,-26.594 1.775,-2.257 4.496,-3.607 7.382,-3.842 0.433,-0.035 0.859,-0.059 1.295,-0.043"
       style="fill:#ffffff"
       inkscape:connector-curvature="0" />
  </g>
</svg>
