<?xml version="1.0" encoding="UTF-8" standalone="no"?>
<svg
   xmlns:dc="http://purl.org/dc/elements/1.1/"
   xmlns:cc="http://creativecommons.org/ns#"
   xmlns:rdf="http://www.w3.org/1999/02/22-rdf-syntax-ns#"
   xmlns:svg="http://www.w3.org/2000/svg"
   xmlns="http://www.w3.org/2000/svg"
   xmlns:xlink="http://www.w3.org/1999/xlink"
   xmlns:sodipodi="http://sodipodi.sourceforge.net/DTD/sodipodi-0.dtd"
   xmlns:inkscape="http://www.inkscape.org/namespaces/inkscape"
   viewBox="0 0 512 512"
   id="svg2"
   version="1.1"
   inkscape:version="0.91 r13725"
   sodipodi:docname="firefox.svg">
  <metadata
     id="metadata117">
    <rdf:RDF>
      <cc:Work
         rdf:about="">
        <dc:format>image/svg+xml</dc:format>
        <dc:type
           rdf:resource="http://purl.org/dc/dcmitype/StillImage" />
      </cc:Work>
    </rdf:RDF>
  </metadata>
  <sodipodi:namedview
     pagecolor="#ffffff"
     bordercolor="#666666"
     borderopacity="1"
     objecttolerance="10"
     gridtolerance="10"
     guidetolerance="10"
     inkscape:pageopacity="0"
     inkscape:pageshadow="2"
     inkscape:window-width="640"
     inkscape:window-height="480"
     id="namedview115"
     showgrid="false"
     inkscape:zoom="0.5546875"
     inkscape:cx="36.056338"
     inkscape:cy="240.67606"
     inkscape:current-layer="svg2" />
  <defs
     id="defs4">
    <clipPath
       id="clipPath6">
      <rect
         rx="6"
         height="84"
         width="84"
         y="6"
         x="6"
         fill="#fff"
         id="rect8" />
    </clipPath>
    <clipPath
       id="clipPath10">
      <rect
         rx="6"
         height="84"
         width="84"
         y="6"
         x="6"
         fill="#fff"
         id="rect12" />
    </clipPath>
    <clipPath
       id="clipPath14">
      <rect
         rx="4"
         height="76"
         width="76"
         y="10"
         x="10"
         fill="#fff"
         id="rect16" />
    </clipPath>
    <clipPath
       id="clipPath18">
      <path
         d="m0 0v96h96v-96h-96m12 6h72c3.324 0 6 2.676 6 6v72c0 3.324-2.676 6-6 6h-72c-3.324 0-6-2.676-6-6v-72c0-3.324 2.676-6 6-6"
         id="path20" />
    </clipPath>
    <filter
       color-interpolation-filters="sRGB"
       id="filter22">
      <feGaussianBlur
         stdDeviation="1.14"
         id="feGaussianBlur24" />
    </filter>
    <filter
       width="1.384"
       y="-.192"
       x="-.192"
       height="1.384"
       color-interpolation-filters="sRGB"
       id="filter26">
      <feGaussianBlur
         stdDeviation="5.28"
         id="feGaussianBlur28" />
    </filter>
    <filter
       color-interpolation-filters="sRGB"
       id="filter30">
      <feGaussianBlur
         stdDeviation="1.71"
         id="feGaussianBlur32" />
    </filter>
    <linearGradient
       id="2">
      <stop
         stop-color="#fff"
         id="stop35" />
      <stop
         stop-color="#fff"
         stop-opacity="0"
         offset="1"
         id="stop37" />
    </linearGradient>
    <linearGradient
       gradientUnits="userSpaceOnUse"
       x2="0"
       y1="-138.52"
       y2="328.72"
       id="linearGradient39">
      <stop
         stop-color="#f0f0f0"
         id="stop41" />
      <stop
         stop-color="#dcdcdc"
         offset="1"
         id="stop43" />
    </linearGradient>
    <linearGradient
       gradientUnits="userSpaceOnUse"
       x2="0"
       y1="884.79"
       y2="417.56"
       id="linearGradient45">
      <stop
         stop-color="#2276c5"
         id="stop47" />
      <stop
         stop-color="#68baf4"
         offset="1"
         id="stop49" />
    </linearGradient>
    <linearGradient
       xlink:href="#2"
       gradientUnits="userSpaceOnUse"
       x2="0"
       y1="20.221"
       y2="138.66"
       id="linearGradient51" />
    <linearGradient
       xlink:href="#2"
       gradientUnits="userSpaceOnUse"
       x2="0"
       y1="-138.52"
       y2="183.44"
       id="linearGradient53" />
    <linearGradient
       id="3"
       y2="338.34"
       gradientUnits="userSpaceOnUse"
       y1="56.6"
       x2="280.47"
       x1="260.19"
       gradientTransform="translate(-423.66197,358.76056)">
      <stop
         stop-color="#45b3e6"
         id="stop56" />
      <stop
         stop-color="#205d9d"
         offset="1"
         id="stop58" />
    </linearGradient>
    <linearGradient
       id="4"
       x1="4.339"
       gradientUnits="userSpaceOnUse"
       x2="518.51"
       y1="-8.678"
       y2="505.49"
       gradientTransform="translate(-423.66197,358.76056)">
      <stop
         stop-color="#e38f28"
         id="stop61" />
      <stop
         stop-color="#c95619"
         offset="1"
         id="stop63" />
    </linearGradient>
    <linearGradient
       id="0"
       y2="7.02"
       gradientUnits="userSpaceOnUse"
       x2="0"
       gradientTransform="scale(1.0059.99417)"
       y1="92.54">
      <stop
         id="stop66" />
      <stop
         stop-opacity=".588"
         offset="1"
         id="stop68" />
    </linearGradient>
    <linearGradient
       id="1">
      <stop
         stop-color="#fff"
         id="stop71" />
      <stop
         stop-color="#e8e8e8"
         offset=".688"
         id="stop73" />
      <stop
         stop-color="#686868"
         offset=".875"
         id="stop75" />
      <stop
         offset="1"
         id="stop77" />
    </linearGradient>
    <linearGradient
       xlink:href="#0"
       gradientUnits="userSpaceOnUse"
       y1="92.54"
       gradientTransform="scale(1.0059.99417)"
       x2="0"
       y2="7.02"
       id="linearGradient79" />
    <radialGradient
       xlink:href="#1"
       gradientUnits="userSpaceOnUse"
       cy="64"
       cx="64"
       gradientTransform="matrix(4.1658 0 0 3.8875 731.63-137.44)"
       r="64"
       id="radialGradient81" />
    <radialGradient
       xlink:href="#1"
       gradientUnits="userSpaceOnUse"
       cy="64"
       cx="64"
       gradientTransform="matrix(4.1658 0 0 3.8875 752.37-73.03)"
       r="64"
       id="radialGradient83" />
    <radialGradient
       xlink:href="#1"
       gradientUnits="userSpaceOnUse"
       cy="64"
       cx="64"
       gradientTransform="matrix(4.1658 0 0 3.8875 726.56-29.943)"
       r="64"
       id="radialGradient85" />
    <radialGradient
       xlink:href="#1"
       gradientUnits="userSpaceOnUse"
       cy="64"
       cx="64"
       gradientTransform="matrix(4.1658 0 0 3.8875 699.05-22.531)"
       r="64"
       id="radialGradient87" />
    <radialGradient
       xlink:href="#1"
       gradientUnits="userSpaceOnUse"
       cy="64"
       cx="64"
       gradientTransform="matrix(4.1658 0 0 3.8875 820.38-55.22)"
       r="64"
       id="radialGradient89" />
    <radialGradient
       xlink:href="#1"
       gradientUnits="userSpaceOnUse"
       cy="64"
       cx="64"
       gradientTransform="matrix(4.1658 0 0 3.8875-3.252-83.83)"
       r="64"
       id="radialGradient91" />
    <radialGradient
       cx="48"
       xlink:href="#2"
       gradientUnits="userSpaceOnUse"
       cy="90.17"
       r="42"
       gradientTransform="matrix(6.4363 0 0 5.5387-696.45-170.79)"
       id="radialGradient93" />
    <radialGradient
       xlink:href="#1"
       gradientUnits="userSpaceOnUse"
       cy="64"
       cx="64"
       gradientTransform="matrix(4.1658 0 0 3.8875 24.26-91.24)"
       r="64"
       id="radialGradient95" />
    <radialGradient
       cx="64"
       xlink:href="#1"
       gradientUnits="userSpaceOnUse"
       cy="64"
       r="64"
       gradientTransform="matrix(4.1658 0 0 3.8875 96.99-110.83)"
       id="radialGradient97" />
    <radialGradient
       xlink:href="#1"
       gradientUnits="userSpaceOnUse"
       cy="64"
       cx="64"
       gradientTransform="matrix(4.1658 0 0 3.8875 50.08-134.32)"
       r="64"
       id="radialGradient99" />
    <radialGradient
       cx="64"
       xlink:href="#1"
       gradientUnits="userSpaceOnUse"
       cy="64"
       r="64"
       gradientTransform="matrix(4.1658 0 0 3.8875 29.334-198.73)"
       id="radialGradient101" />
    <radialGradient
       xlink:href="#1"
       gradientUnits="userSpaceOnUse"
       cy="64"
       cx="64"
       gradientTransform="matrix(4.1658 0 0 3.8875 118.08-116.51)"
       r="64"
       id="radialGradient103" />
    <radialGradient
       xlink:href="#1"
       gradientUnits="userSpaceOnUse"
       cy="64"
       cx="64"
       gradientTransform="matrix(4.1658 0 0 3.8875 1520.4-226.23)"
       r="64"
       id="radialGradient105" />
  </defs>
  <g
     id="g3481"
     transform="translate(423.66197,-358.76056)">
    <path
       id="path107"
       d="m -397.66197,358.76056 c -14.397,0 -26,11.603 -26,26 l 0,460 c 0,14.397 11.603,26 26,26 l 459.999998,0 c 14.397,0 26,-11.603 26,-26 l 0,-460 c 0,-14.397 -11.603,-26 -26,-26 l -459.999998,0"
       style="fill:url(#4)"
       inkscape:connector-curvature="0" />
    <path
       id="path109"
       d="m -171.10197,405.31356 c -51.53,0.061 -102.63,19.13 -141.78,55.715 l -3.285,3.107 -17.879,-17.879 c -0.033,-0.034 -0.066,-0.051 -0.098,-0.051 -0.375,0 -2.525,2.445 -4.766,5.426 -8.209,10.92 -13.551,25.651 -15.924,43.762 -0.649,4.955 -2.51,23.996 -2.955,28.893 -6.517,10.166 -11.829,22.498 -17.07,39.39 -2.991,9.64 -7.847,27.878 -7.809,29.424 0.001,0.039 0.008,0.064 0.022,0.078 l 4.053,4.053 c -0.967,8.162 -1.622,19.14 -1.867,31.822 l -0.441,21.615 10.242,10.242 c 4.9,20.385 13.537,41.792 24.389,59.848 7.52,12.515 17.322,24.754 28.752,36.18 l 113.81,113.82 266.039998,0 c 14.397,0 26,-11.603 26,-26 l 0,-283.39 -88.23999983,-88.24 c -1.09299997,-1.093 -2.14199997,-2.081 -3.11499997,-2.93 -3.77,-3.286 -4.277,-3.397 -4.277,-0.971 0,0.751 -0.326,0.857 -1.195,0.188 l -4.5980002,-4.598 c -5.347,-5.347 -19.593,-16.854 -20.984,-16.854 -0.335,0 -0.619,1.847 -0.619,4.102 0,0.147 -0.001,0.26 0,0.396 -7.52,-4.84 -32.56,-19.573 -39.83,-23.417 -30.309998,-16.02 -63.539998,-23.77 -96.569998,-23.732 l -0.006,-0.002 z"
       style="opacity:0.25"
       inkscape:connector-curvature="0" />
    <path
       id="path111"
       d="m 42.098028,616.72056 c -97.26,96.17 -89.91,181.65 -204.609998,181.65 -114.69,0 -210.74,-66.939 -210.74,-181.65 0,-114.69 92.98,-207.68 207.68,-207.68 114.689998,0 207.679998,92.98 207.679998,207.68"
       style="fill:url(#3);fill-rule:evenodd"
       inkscape:connector-curvature="0" />
    <path
       id="path113"
       d="m -171.10197,405.31356 c -51.53,0.061 -102.63,19.13 -141.78,55.715 l -11.425,10.8 c -4.421,-5.82 -7.956,-13.922 -8.601,-20.11 -0.316,-3.036 -0.859,-5.514 -1.234,-5.514 -0.375,0 -2.525,2.445 -4.766,5.426 -8.209,10.92 -13.551,25.651 -15.924,43.762 -0.649,4.955 -2.51,23.996 -2.955,28.893 -6.517,10.166 -11.829,22.498 -17.07,39.39 -2.991,9.64 -7.847,27.878 -7.809,29.424 0.014,0.575 1.466,-1.649 3.221,-4.94 3.436,-6.441 4.352,-7.156 2.912,-2.338 -2.093,7 -3.533,22.941 -3.926,43.23 l -0.441,21.615 1.676,-6.176 c 0.93,-3.401 2.083,-7.166 2.561,-8.381 1.098,-2.794 1.437,-1.861 2.779,7.939 3.415,24.933 13.712,53.57 27.615,76.71 22.518,37.475 65.51,72.49 111.34,90.65 14.473,5.738 40.851,12.312 29.912,7.455 -4.228,-1.877 -9.25,-5.219 -8.69,-5.779 0.196,-0.196 2.918,0.586 6.04,1.764 7.455,2.806 20.639,6.36 29.467,7.941 3.886,0.696 10.623,1.279 14.955,1.322 l 7.853,0.09 -3.441,-3.043 -3.486,-3.045 9.967,-0.043 c 29.32,-0.109 73.099998,-9.447 92.289998,-19.676 5.884,-3.135 15.779,-13.16 21.879,-22.14 3.272,-4.821 5.05,-6.393 10.545,-9.484 26.2300002,-14.747 52.19,-45.762 55.715,-66.52 1.047,-6.177 0.635,-14.653 -1.059,-21.4 -0.865,-3.443 -0.568,-4.376 6.748,-21.13 12.292,-28.15 12.7,-29.547 13.41,-47.775 0.559,-14.359 -0.363,-24.89 -3.441,-39.22 -2.263,-10.532 -2.926,-11.838 -3.748,-7.453 -0.522,2.788 -5.29,13.625 -6,13.629 -0.114,0 -0.102,-6.423 0.043,-14.291 0.534,-28.845 -5.04,-50.05 -18.615,-70.71 -4.982,-7.583 -12.9119998,-16.885 -18.4359998,-21.703 -3.77,-3.286 -4.277,-3.397 -4.277,-0.971 0,1.412 -1.105,0.614 -4.9410002,-3.529 -4.468,-4.826 -20.362,-17.734 -21.836,-17.734 -0.335,0 -0.619,1.847 -0.619,4.102 0,0.147 -10e-4,0.26 0,0.396 -7.52,-4.846 -32.56,-19.579 -39.83,-23.423 -30.309998,-16.02 -63.539998,-23.77 -96.569998,-23.732 l -0.006,-0.002 z m -1.185,9.311 c 22.08,-0.13 44.38,3.411 65.994,10.807 2.554,0.874 7.395998,2.648 11.997998,4.367 8.955,3.347 16.953,7.451 24.703,12.527 -10.284,-4.129 -22.826,-8.469 -25.06,-8.469 -0.791,0 1.76,2.01 5.647,4.5 16.387,10.485 35.16,28.13 46.938,44.07 10.203,13.813 10.383,14.244 3.881,9 -7.628,-6.146 -18.12,-11.466 -25.762,-13.06 -3.457,-0.721 -6.491,-1.095 -6.748,-0.838 -0.257,0.257 2.147,2.856 5.336,5.779 10.23,9.374 26.322,33.33 30.13,44.818 3.202,9.661 5.702,25.508 6.352,40.19 l 0.574,12.572 -2.603,-3.971 c -1.434,-2.202 -3.867,-5.422 -5.383,-7.148 -2.851,-3.243 -9.653,-8.388 -10.277,-7.764 -0.195,0.195 0.648,9.276 1.853,20.21 2.53,22.949 2.368,35.772 -0.574,49.943 -2.465,11.862 -2.582,12.07 -3.971,8.07 -1.194,-3.439 -3.642,-6.748 -4.984,-6.748 -0.411,0 -0.75,1.565 -0.75,3.484 0,8.06 -6.677,31.957 -11.955,42.877 -2.113,4.372 -5.725,10.299 -8.07,13.191 -7.978,9.835 -16.182,14.172 -15.484,8.205 0.244,-2.088 -0.008,-2.426 -1.941,-2.426 -1.412,0 -3.22,1.059 -4.852,2.867 -1.426,1.578 -4.296998,4.829 -6.396998,7.189 -3.137,3.526 -11.377,10.158 -11.377,9.176 0,-0.148 0.386,-1.557 0.838,-3.133 0.452,-1.575 0.587,-2.822 0.309,-2.822 -0.278,0 -3.142,0.769 -6.352,1.721 -11.167,3.309 -29.743,6.219 -39.695,6.219 -10.358,0 -17.04,-1.373 -23.91,-4.853 -7.114,-3.607 -6.678,-4.306 2.25,-3.748 7.554,0.471 7.775,0.414 5.957,-1.059 -2.66,-2.153 -12.29,-4.999 -23.865,-7.06 -12.39,-2.205 -15.13,-3.34 -20.865,-8.779 -3.903,-3.776 -8.181,-6.373 -12.268,-10.529 10.632,2.772 21.1,2.514 31.941,2.236 12.967,-0.325 16.402,-0.696 21.22,-2.338 7.04,-2.403 19.669,-9.814 29.869,-17.512 8.902,-6.721 10.733,-7.404 18.219,-6.705 5.31,0.495 5.637,0.426 7.1,-1.809 1.917,-2.926 1.347,-7.494 -1.5,-11.734 -5.761,-8.578 -23.867,-14.365 -37.36,-11.912 -2.966,0.539 -9.174,2.915 -14.12,5.383 -4.857,2.424 -10.986,4.867 -13.631,5.426 -5.569,1.175 -14.864,0.524 -22.1,-1.543 -6.925,-1.978 -19.06,-8.384 -24.793,-13.1 l -4.852,-4.02 -8.03,-5.117 c 1.663,-10.893 5.065,-20.592 9.572,-25.1 l 3.397,-3.397 -5.117,-2.383 c -4.373,-2.048 -6.259,-2.383 -13.06,-2.383 -7.05,0 -8.61,0.27 -13.719,2.691 -11.235,5.325 -19.659,15.463 -23.469,28.19 -2.535,8.468 -2.159,21.997 0.883,30.924 2.624,7.7 6.305,14.821 10.543,20.336 2.051,2.669 2.216,3.099 0.662,1.764 -5.501,-4.725 -13.205,-19.09 -15.527,-28.938 -1.69,-7.17 -1.7,-20.12 0,-26.777 4.588,-17.97 18.992,-31.79 36.48,-35.03 11.392,-2.106 23.945,2.241 34.23,11.865 3.139,2.936 6,5.072 6.352,4.721 0.351,-0.351 0.662,-5.675 0.662,-11.822 l 0,-11.205 -2.072,-3.09 6.219,-5.248 4.102,-3.133 c 2.264,-1.718 8.267,-5.373 13.367,-8.117 16.996,-9.143 18.924,-10.396 20.865,-13.852 2.874,-5.116 4.221,-12.314 3,-16.01 -1.412,-4.277 -4.636,-4.953 -26.512,-5.647 l -18.09,-0.574 -4.147,-2.865 c -1.649,-1.138 -7.871,-6.472 -11.293,-9.353 2.029,-7.114 4.808,-13.974 7.984,-19.322 3.545,-5.967 14.243,-19.375 18.793,-23.557 1.282,-1.177 2.338,-2.466 2.338,-2.867 0,-1.152 -10.467,-0.824 -16.854,0.529 -6.746,1.43 -15.682,5.28 -21.746,9.397 -9.468,6.429 -24.572,22.917 -27.66,30.17 -1.155,2.714 -0.102,-7.115 1.369,-12.832 1.077,-4.197 1.045,-4.308 -1.236,-5.293 -1.385,-0.597 -7.654,-0.973 -15.57,-0.973 -11.05,0.003 -14.396,0.328 -20.291,1.986 -1.328,0.374 -2.636,0.761 -3.926,1.191 -2.01,-1.803 -5.377,-4.777 -8.117,-7.236 2.333,-1.491 5.084,-4.41 5.207,-4.41 0.184,0 3.65,-3.071 7.719,-6.795 36.984,-33.846 84.52,-51.899 133.09,-52.19 l -0.01,-0.006 z m 153.789998,58.36 c 0.231,0.253 0.476,0.499 0.705,0.75 l -0.705,0 0,-0.75"
       style="fill:#ffffff"
       inkscape:connector-curvature="0" />
  </g>
</svg>
