<?xml version="1.0" encoding="UTF-8" standalone="no"?>
<svg
   xmlns:dc="http://purl.org/dc/elements/1.1/"
   xmlns:cc="http://creativecommons.org/ns#"
   xmlns:rdf="http://www.w3.org/1999/02/22-rdf-syntax-ns#"
   xmlns:svg="http://www.w3.org/2000/svg"
   xmlns="http://www.w3.org/2000/svg"
   xmlns:sodipodi="http://sodipodi.sourceforge.net/DTD/sodipodi-0.dtd"
   xmlns:inkscape="http://www.inkscape.org/namespaces/inkscape"
   viewBox="0 0 512 512"
   id="svg2"
   version="1.1"
   inkscape:version="0.91+devel r13804 custom"
   sodipodi:docname="flash.svg">
  <metadata
     id="metadata17768">
    <rdf:RDF>
      <cc:Work
         rdf:about="">
        <dc:format>image/svg+xml</dc:format>
        <dc:type
           rdf:resource="http://purl.org/dc/dcmitype/StillImage" />
      </cc:Work>
    </rdf:RDF>
  </metadata>
  <defs
     id="defs17766" />
  <sodipodi:namedview
     pagecolor="#ffffff"
     bordercolor="#666666"
     borderopacity="1"
     objecttolerance="10"
     gridtolerance="10"
     guidetolerance="10"
     inkscape:pageopacity="0"
     inkscape:pageshadow="2"
     inkscape:window-width="1366"
     inkscape:window-height="709"
     id="namedview17764"
     showgrid="false"
     inkscape:zoom="0.4609375"
     inkscape:cx="-8.6779661"
     inkscape:cy="237.55932"
     inkscape:window-x="-2"
     inkscape:window-y="-3"
     inkscape:window-maximized="1"
     inkscape:current-layer="svg2" />
  <g
     id="g21117"
     transform="translate(303.72882,-282.0339)">
    <rect
       id="rect17712"
       height="512"
       rx="25.988001"
       width="512"
       style="fill:#cd1d31"
       x="-303.72882"
       y="282.0329" />
    <path
       id="path17760"
       d="m 120.43119,323.0329 c -24.090004,-0.261 -154.950004,7.128 -206.220004,194.39 l -0.002,0 c -45.229996,165.17 -133.939996,148.72 -133.939996,148.72 l 73.27,73.27 c -0.002,10e-4 -0.005,10e-4 -0.008,0.002 l -73.26,-73.26 0,86.5 41.38,41.38 360.63,0 c 14.397,0 25.988,-11.591 25.988,-25.988 l 0,-360.88 -84,-84 0,0.01 c 0,0 -1.348,-0.11 -3.84,-0.137"
       style="opacity:0.25"
       inkscape:connector-curvature="0" />
    <path
       id="path17762"
       d="m 124.27119,323.1629 0,86.5 c -86.370004,1.517 -107.590004,85.75 -107.590004,85.75 l 65.14,0 0,86.5 -101,0 c -60.749,187.43 -200.539996,170.73 -200.539996,170.73 l 0,-86.5 c 0,0 88.71,16.45 133.939996,-148.72 56.58,-206.63 210.060004,-194.25 210.060004,-194.25"
       style="fill:#ffffff"
       inkscape:connector-curvature="0" />
  </g>
</svg>
