<?xml version="1.0" encoding="UTF-8" standalone="no"?>
<!-- Created with Inkscape (http://www.inkscape.org/) -->

<svg
   xmlns:dc="http://purl.org/dc/elements/1.1/"
   xmlns:cc="http://creativecommons.org/ns#"
   xmlns:rdf="http://www.w3.org/1999/02/22-rdf-syntax-ns#"
   xmlns:svg="http://www.w3.org/2000/svg"
   xmlns="http://www.w3.org/2000/svg"
   xmlns:sodipodi="http://sodipodi.sourceforge.net/DTD/sodipodi-0.dtd"
   xmlns:inkscape="http://www.inkscape.org/namespaces/inkscape"
   id="svg2"
   height="100%"
   width="100%"
   version="1.1"
   viewBox="0 0 512 512"
   inkscape:version="0.91+devel r13804 custom"
   sodipodi:docname="flowblade.svg">
  <sodipodi:namedview
     pagecolor="#ffffff"
     bordercolor="#666666"
     borderopacity="1"
     objecttolerance="10"
     gridtolerance="10"
     guidetolerance="10"
     inkscape:pageopacity="0"
     inkscape:pageshadow="2"
     inkscape:window-width="1366"
     inkscape:window-height="709"
     id="namedview2369"
     showgrid="false"
     inkscape:zoom="0.4609375"
     inkscape:cx="-8.6779661"
     inkscape:cy="237.55932"
     inkscape:window-x="-2"
     inkscape:window-y="-3"
     inkscape:window-maximized="1"
     inkscape:current-layer="svg2" />
  <metadata
     id="metadata4734">
    <rdf:RDF>
      <cc:Work
         rdf:about="">
        <dc:format>image/svg+xml</dc:format>
        <dc:type
           rdf:resource="http://purl.org/dc/dcmitype/StillImage" />
      </cc:Work>
    </rdf:RDF>
  </metadata>
  <defs
     id="defs4">
    <clipPath
       id="0">
      <path
         id="path7"
         d="m26 0c-14.397 0-26 11.603-26 26v460c0 14.397 11.603 26 26 26h460c14.397 0 26-11.603 26-26v-460c0-14.397-11.6-26-26-26h-460" />
    </clipPath>
    <radialGradient
       id="1"
       gradientUnits="userSpaceOnUse"
       cy="148.92"
       cx="165.45"
       gradientTransform="matrix(1.5223 1.5223 -.61454 .61454 -4.145 -228.4)"
       r="256">
      <stop
         id="stop10"
         stop-color="#494949"
         offset="0" />
      <stop
         id="stop12"
         stop-color="#19171c"
         offset="1" />
    </radialGradient>
    <clipPath
       id="0-2">
      <path
         inkscape:connector-curvature="0"
         id="path7-7"
         d="M 26,0 C 11.603,0 0,11.603 0,26 l 0,460 c 0,14.397 11.603,26 26,26 l 460,0 c 14.397,0 26,-11.603 26,-26 L 512,26 C 512,11.603 500.4,0 486,0 L 26,0" />
    </clipPath>
    <radialGradient
       id="1-5"
       gradientUnits="userSpaceOnUse"
       cy="148.92"
       cx="165.45"
       gradientTransform="matrix(1.5223,1.5223,-0.61454,0.61454,-427.20085,49.289915)"
       r="256">
      <stop
         id="stop10-6"
         stop-color="#494949"
         offset="0" />
      <stop
         id="stop12-0"
         stop-color="#19171c"
         offset="1" />
    </radialGradient>
  </defs>
  <g
     id="g5787"
     transform="translate(423.05085,-277.69492)">
    <path
       d="m -397.05585,277.68992 c -14.397,0 -26,11.603 -26,26 l 0,460 c 0,14.397 11.603,26 26,26 l 460.000003,0 c 14.397,0 26,-11.603 26,-26 l 0,-460 c 0,-14.397 -11.6,-26 -26,-26 l -460.000003,0"
       id="path14"
       style="fill:url(#1-5)"
       inkscape:connector-curvature="0" />
    <path
       d="m -397.05585,277.68992 c -14.397,0 -26,11.603 -26,26 l 0,460 c 0,14.397 11.603,26 26,26 l 86.38,0 0,-231.9 294.130003,0 0,231.91 79.5,0 c 14.397,0 26,-11.603 26,-26 l 0,-460 c 0,-14.397 -11.603,-26 -26,-26 l -79.5,0 0,238.81 -294.120003,0 0,-238.81 -86.37,0 m 0.438,9.344 26.594,0 c 2.962,0 5.695,0.914 7.969,2.469 0.764,0.523 1.477,1.121 2.125,1.781 2.575,2.621 4.156,6.234 4.156,10.25 l 0,17.625 c 0,4.02 -1.581,7.629 -4.156,10.25 -0.648,0.66 -1.361,1.258 -2.125,1.781 -2.273,1.561 -5.01,2.469 -7.969,2.469 l -26.594,0 c -2.962,0 -5.716,-0.908 -8,-2.469 -0.768,-0.523 -1.473,-1.121 -2.125,-1.781 -0.318,-0.322 -0.619,-0.649 -0.906,-1 -0.005,-0.006 0.005,-0.025 0,-0.031 -0.87,-1.066 -1.614,-2.239 -2.156,-3.531 -0.004,-0.009 0.004,-0.022 0,-0.031 -0.177,-0.425 -0.331,-0.868 -0.469,-1.313 -0.003,-0.009 0.003,-0.021 0,-0.031 -0.137,-0.445 -0.281,-0.881 -0.375,-1.344 -0.002,-0.01 0.002,-0.021 0,-0.031 -0.093,-0.463 -0.17,-0.928 -0.219,-1.406 -0.001,-0.01 10e-4,-0.021 0,-0.031 -0.048,-0.478 -0.062,-0.977 -0.063,-1.469 l 0,-17.656 0,-0.031 c 0,-0.492 0.016,-0.99 0.063,-1.469 10e-4,-0.01 -0.001,-0.021 0,-0.031 0.048,-0.478 0.126,-0.944 0.219,-1.406 0.002,-0.01 -0.002,-0.021 0,-0.031 0.093,-0.462 0.239,-0.899 0.375,-1.344 0.003,-0.009 -0.003,-0.022 0,-0.031 0.137,-0.445 0.292,-0.888 0.469,-1.313 0.004,-0.009 -0.004,-0.022 0,-0.031 0.54,-1.292 1.288,-2.466 2.156,-3.531 0.005,-0.006 -0.005,-0.025 0,-0.031 0.287,-0.351 0.588,-0.678 0.906,-1 0.652,-0.66 1.357,-1.258 2.125,-1.781 2.284,-1.555 5.04,-2.469 8,-2.469 m 432.590003,0 26.594,0 c 2.962,0 5.695,0.914 7.969,2.469 0.764,0.523 1.477,1.121 2.125,1.781 2.575,2.621 4.156,6.234 4.156,10.25 l 0,17.625 c 0,4.02 -1.581,7.629 -4.156,10.25 -0.648,0.66 -1.361,1.258 -2.125,1.781 -2.273,1.561 -5.01,2.469 -7.969,2.469 l -26.594,0 c -2.962,0 -5.716,-0.908 -8,-2.469 -0.768,-0.523 -1.473,-1.121 -2.125,-1.781 -0.318,-0.322 -0.619,-0.649 -0.906,-1 -0.005,-0.006 0.005,-0.025 0,-0.031 -0.87,-1.066 -1.614,-2.239 -2.156,-3.531 -0.004,-0.009 0.004,-0.022 0,-0.031 -0.177,-0.425 -0.331,-0.868 -0.469,-1.313 -0.003,-0.009 0.003,-0.021 0,-0.031 -0.137,-0.445 -0.281,-0.881 -0.375,-1.344 -0.002,-0.01 0.002,-0.021 0,-0.031 -0.093,-0.463 -0.17,-0.928 -0.219,-1.406 -10e-4,-0.01 0.001,-0.021 0,-0.031 -0.048,-0.478 -0.062,-0.977 -0.063,-1.469 l 0,-17.656 0,-0.031 c 0,-0.492 0.016,-0.99 0.063,-1.469 0.001,-0.01 -10e-4,-0.021 0,-0.031 0.048,-0.478 0.126,-0.944 0.219,-1.406 0.002,-0.01 -0.002,-0.021 0,-0.031 0.093,-0.462 0.239,-0.899 0.375,-1.344 0.003,-0.009 -0.003,-0.022 0,-0.031 0.137,-0.445 0.292,-0.888 0.469,-1.313 0.004,-0.009 -0.004,-0.022 0,-0.031 0.54,-1.292 1.288,-2.466 2.156,-3.531 0.005,-0.006 -0.005,-0.025 0,-0.031 0.287,-0.351 0.588,-0.678 0.906,-1 0.652,-0.66 1.357,-1.258 2.125,-1.781 2.284,-1.555 5.04,-2.469 8,-2.469 m -432.590003,87.56 26.594,0 c 2.962,0 5.695,0.908 7.969,2.469 0.764,0.523 1.477,1.121 2.125,1.781 2.575,2.621 4.156,6.234 4.156,10.25 l 0,17.625 c 0,4.02 -1.581,7.629 -4.156,10.25 -0.648,0.66 -1.361,1.258 -2.125,1.781 -2.273,1.561 -5.01,2.469 -7.969,2.469 l -26.596,0 c -2.962,0 -5.716,-0.914 -8,-2.469 -0.768,-0.523 -1.473,-1.121 -2.125,-1.781 -0.318,-0.322 -0.619,-0.649 -0.906,-1 -0.005,-0.006 0.005,-0.025 0,-0.031 -0.292,-0.358 -0.586,-0.708 -0.844,-1.094 -0.52,-0.777 -0.948,-1.592 -1.313,-2.469 -0.177,-0.425 -0.331,-0.868 -0.469,-1.313 -0.003,-0.01 0.003,-0.021 0,-0.031 -0.137,-0.445 -0.281,-0.881 -0.375,-1.344 -0.002,-0.01 0.002,-0.021 0,-0.031 -0.093,-0.463 -0.17,-0.928 -0.219,-1.406 -0.001,-0.01 10e-4,-0.021 0,-0.031 -0.048,-0.478 -0.062,-0.977 -0.063,-1.469 l 0,-17.656 0,-0.031 c 0,-0.492 0.016,-0.99 0.063,-1.469 10e-4,-0.01 -0.001,-0.021 0,-0.031 0.048,-0.478 0.126,-0.944 0.219,-1.406 0.002,-0.01 -0.002,-0.021 0,-0.031 0.093,-0.462 0.239,-0.899 0.375,-1.344 0.003,-0.009 -0.003,-0.022 0,-0.031 0.137,-0.445 0.292,-0.888 0.469,-1.313 0.004,-0.009 -0.004,-0.022 0,-0.031 0.181,-0.433 0.373,-0.84 0.594,-1.25 0.445,-0.829 0.973,-1.592 1.563,-2.313 0.287,-0.351 0.588,-0.678 0.906,-1 0.652,-0.66 1.357,-1.258 2.125,-1.781 2.284,-1.561 5.04,-2.469 8,-2.469 m 432.590003,0 26.594,0 c 2.962,0 5.695,0.908 7.969,2.469 0.764,0.523 1.477,1.121 2.125,1.781 2.575,2.621 4.156,6.234 4.156,10.25 l 0,17.625 c 0,4.02 -1.581,7.629 -4.156,10.25 -0.648,0.66 -1.361,1.258 -2.125,1.781 -2.273,1.561 -5.01,2.469 -7.969,2.469 l -26.594,0 c -2.962,0 -5.716,-0.914 -8,-2.469 -0.768,-0.523 -1.473,-1.121 -2.125,-1.781 -0.318,-0.322 -0.619,-0.649 -0.906,-1 -0.005,-0.006 0.005,-0.025 0,-0.031 -0.292,-0.358 -0.586,-0.708 -0.844,-1.094 -0.52,-0.777 -0.948,-1.592 -1.313,-2.469 -0.177,-0.425 -0.331,-0.868 -0.469,-1.313 -0.003,-0.01 0.003,-0.021 0,-0.031 -0.137,-0.445 -0.281,-0.881 -0.375,-1.344 -0.002,-0.01 0.002,-0.021 0,-0.031 -0.093,-0.463 -0.17,-0.928 -0.219,-1.406 -0.001,-0.01 10e-4,-0.021 0,-0.031 -0.048,-0.478 -0.062,-0.977 -0.063,-1.469 l 0,-17.656 0,-0.031 c 0,-0.492 0.016,-0.99 0.063,-1.469 10e-4,-0.01 -0.001,-0.021 0,-0.031 0.048,-0.478 0.126,-0.944 0.219,-1.406 0.002,-0.01 -0.002,-0.021 0,-0.031 0.093,-0.462 0.239,-0.899 0.375,-1.344 0.003,-0.009 -0.003,-0.022 0,-0.031 0.137,-0.445 0.292,-0.888 0.469,-1.313 0.004,-0.009 -0.004,-0.022 0,-0.031 0.181,-0.433 0.373,-0.84 0.594,-1.25 0.445,-0.829 0.973,-1.592 1.563,-2.313 0.287,-0.351 0.588,-0.678 0.906,-1 0.652,-0.66 1.357,-1.258 2.125,-1.781 2.284,-1.561 5.04,-2.469 8,-2.469 m -432.590003,87.56 26.594,0 c 2.962,0 5.695,0.908 7.969,2.469 0.764,0.523 1.477,1.121 2.125,1.781 2.575,2.621 4.156,6.234 4.156,10.25 l 0,17.625 c 0,4.02 -1.581,7.629 -4.156,10.25 -0.648,0.66 -1.361,1.258 -2.125,1.781 -2.273,1.561 -5.01,2.469 -7.969,2.469 l -26.596,0 c -2.962,0 -5.716,-0.914 -8,-2.469 -0.768,-0.523 -1.473,-1.121 -2.125,-1.781 -0.318,-0.322 -0.619,-0.649 -0.906,-1 -0.005,-0.006 0.005,-0.025 0,-0.031 -0.292,-0.358 -0.586,-0.708 -0.844,-1.094 -0.52,-0.777 -0.948,-1.592 -1.313,-2.469 -0.177,-0.425 -0.331,-0.868 -0.469,-1.313 -0.003,-0.01 0.003,-0.021 0,-0.031 -0.137,-0.445 -0.281,-0.881 -0.375,-1.344 -0.002,-0.01 0.002,-0.021 0,-0.031 -0.093,-0.463 -0.17,-0.928 -0.219,-1.406 -0.001,-0.01 10e-4,-0.021 0,-0.031 -0.048,-0.478 -0.062,-0.977 -0.063,-1.469 l 0,-17.656 0,-0.031 c 0,-0.492 0.016,-0.99 0.063,-1.469 10e-4,-0.01 -0.001,-0.021 0,-0.031 0.048,-0.478 0.126,-0.944 0.219,-1.406 0.002,-0.01 -0.002,-0.021 0,-0.031 0.093,-0.462 0.239,-0.899 0.375,-1.344 0.003,-0.009 -0.003,-0.022 0,-0.031 0.137,-0.445 0.292,-0.888 0.469,-1.313 0.004,-0.009 -0.004,-0.022 0,-0.031 0.181,-0.433 0.373,-0.84 0.594,-1.25 0.445,-0.829 0.973,-1.592 1.563,-2.313 0.287,-0.351 0.588,-0.678 0.906,-1 0.652,-0.66 1.357,-1.258 2.125,-1.781 2.284,-1.561 5.04,-2.469 8,-2.469 m 432.590003,0 26.594,0 c 2.962,0 5.695,0.908 7.969,2.469 0.764,0.523 1.477,1.121 2.125,1.781 2.575,2.621 4.156,6.234 4.156,10.25 l 0,17.625 c 0,4.02 -1.581,7.629 -4.156,10.25 -0.648,0.66 -1.361,1.258 -2.125,1.781 -2.273,1.561 -5.01,2.469 -7.969,2.469 l -26.594,0 c -2.962,0 -5.716,-0.914 -8,-2.469 -0.768,-0.523 -1.473,-1.121 -2.125,-1.781 -0.318,-0.322 -0.619,-0.649 -0.906,-1 -0.005,-0.006 0.005,-0.025 0,-0.031 -0.292,-0.358 -0.586,-0.708 -0.844,-1.094 -0.52,-0.777 -0.948,-1.592 -1.313,-2.469 -0.177,-0.425 -0.331,-0.868 -0.469,-1.313 -0.003,-0.01 0.003,-0.021 0,-0.031 -0.137,-0.445 -0.281,-0.881 -0.375,-1.344 -0.002,-0.01 0.002,-0.021 0,-0.031 -0.093,-0.463 -0.17,-0.928 -0.219,-1.406 -10e-4,-0.01 0.001,-0.021 0,-0.031 -0.048,-0.478 -0.062,-0.977 -0.063,-1.469 l 0,-17.656 0,-0.031 c 0,-0.492 0.016,-0.99 0.063,-1.469 0.001,-0.01 -10e-4,-0.021 0,-0.031 0.048,-0.478 0.126,-0.944 0.219,-1.406 0.002,-0.01 -0.002,-0.021 0,-0.031 0.093,-0.462 0.239,-0.899 0.375,-1.344 0.003,-0.009 -0.003,-0.022 0,-0.031 0.137,-0.445 0.292,-0.888 0.469,-1.313 0.004,-0.009 -0.004,-0.022 0,-0.031 0.181,-0.433 0.373,-0.84 0.594,-1.25 0.445,-0.829 0.973,-1.592 1.563,-2.313 0.287,-0.351 0.588,-0.678 0.906,-1 0.652,-0.66 1.357,-1.258 2.125,-1.781 2.284,-1.561 5.04,-2.469 8,-2.469 m -432.590003,87.56 26.594,0 c 3.957,0 7.517,1.627 10.09,4.25 2.575,2.621 4.156,6.234 4.156,10.25 l 0,17.625 c 0,4.02 -1.581,7.629 -4.156,10.25 -0.648,0.66 -1.361,1.258 -2.125,1.781 -2.273,1.561 -5.01,2.469 -7.969,2.469 l -26.596,0 c -2.962,0 -5.716,-0.908 -8,-2.469 -0.768,-0.523 -1.473,-1.121 -2.125,-1.781 -0.318,-0.322 -0.619,-0.649 -0.906,-1 -0.005,-0.006 0.005,-0.025 0,-0.031 -0.87,-1.066 -1.614,-2.239 -2.156,-3.531 -0.004,-0.009 0.004,-0.022 0,-0.031 -0.177,-0.425 -0.331,-0.868 -0.469,-1.313 -0.003,-0.01 0.003,-0.021 0,-0.031 -0.137,-0.445 -0.281,-0.881 -0.375,-1.344 -0.002,-0.01 0.002,-0.021 0,-0.031 -0.093,-0.463 -0.17,-0.928 -0.219,-1.406 -0.001,-0.01 10e-4,-0.021 0,-0.031 -0.048,-0.478 -0.062,-0.977 -0.063,-1.469 l 0,-17.656 0,-0.031 c 0,-0.492 0.016,-0.99 0.063,-1.469 10e-4,-0.01 -0.001,-0.021 0,-0.031 0.048,-0.478 0.126,-0.944 0.219,-1.406 0.002,-0.01 -0.002,-0.021 0,-0.031 0.093,-0.462 0.239,-0.899 0.375,-1.344 0.003,-0.009 -0.003,-0.022 0,-0.031 0.137,-0.445 0.292,-0.888 0.469,-1.313 0.004,-0.009 -0.004,-0.022 0,-0.031 0.54,-1.292 1.288,-2.466 2.156,-3.531 0.005,-0.006 -0.005,-0.025 0,-0.031 2.626,-3.212 6.589,-5.25 11.03,-5.25 m 432.590003,-10e-4 26.594,0 c 3.957,0 7.517,1.627 10.09,4.25 2.575,2.621 4.156,6.234 4.156,10.25 l 0,17.625 c 0,4.02 -1.581,7.629 -4.156,10.25 -0.648,0.66 -1.361,1.258 -2.125,1.781 -2.273,1.561 -5.01,2.469 -7.969,2.469 l -26.594,0 c -2.962,0 -5.716,-0.908 -8,-2.469 -0.768,-0.523 -1.473,-1.121 -2.125,-1.781 -0.318,-0.322 -0.619,-0.649 -0.906,-1 -0.005,-0.006 0.005,-0.025 0,-0.031 -0.87,-1.066 -1.614,-2.239 -2.156,-3.531 -0.004,-0.009 0.004,-0.022 0,-0.031 -0.177,-0.425 -0.331,-0.868 -0.469,-1.313 -0.003,-0.01 0.003,-0.021 0,-0.031 -0.137,-0.445 -0.281,-0.881 -0.375,-1.344 -0.002,-0.01 0.002,-0.021 0,-0.031 -0.093,-0.463 -0.17,-0.928 -0.219,-1.406 -0.001,-0.01 10e-4,-0.021 0,-0.031 -0.048,-0.478 -0.062,-0.977 -0.063,-1.469 l 0,-17.656 0,-0.031 c 0,-0.492 0.016,-0.99 0.063,-1.469 10e-4,-0.01 -0.001,-0.021 0,-0.031 0.048,-0.478 0.126,-0.944 0.219,-1.406 0.002,-0.01 -0.002,-0.021 0,-0.031 0.093,-0.462 0.239,-0.899 0.375,-1.344 0.003,-0.009 -0.003,-0.022 0,-0.031 0.137,-0.445 0.292,-0.888 0.469,-1.313 0.004,-0.009 -0.004,-0.022 0,-0.031 0.54,-1.292 1.288,-2.466 2.156,-3.531 0.005,-0.006 -0.005,-0.025 0,-0.031 2.626,-3.212 6.589,-5.25 11.03,-5.25 m -432.590003,87.56 26.594,0 c 2.962,0 5.695,0.914 7.969,2.469 0.764,0.523 1.477,1.121 2.125,1.781 2.575,2.621 4.156,6.234 4.156,10.25 l 0,17.625 c 0,4.02 -1.581,7.629 -4.156,10.25 -0.648,0.66 -1.361,1.258 -2.125,1.781 -2.273,1.561 -5.01,2.469 -7.969,2.469 l -26.596,0 c -2.962,0 -5.716,-0.908 -8,-2.469 -0.768,-0.523 -1.473,-1.121 -2.125,-1.781 -0.318,-0.322 -0.619,-0.649 -0.906,-1 -0.005,-0.006 0.005,-0.025 0,-0.031 -0.87,-1.066 -1.614,-2.239 -2.156,-3.531 -0.004,-0.009 0.004,-0.022 0,-0.031 -0.177,-0.425 -0.331,-0.868 -0.469,-1.313 -0.003,-0.01 0.003,-0.021 0,-0.031 -0.137,-0.445 -0.281,-0.881 -0.375,-1.344 -0.002,-0.01 0.002,-0.021 0,-0.031 -0.093,-0.463 -0.17,-0.928 -0.219,-1.406 -10e-4,-0.01 0.001,-0.021 0,-0.031 -0.048,-0.478 -0.062,-0.977 -0.063,-1.469 l 0,-17.656 0,-0.031 c 0,-0.492 0.016,-0.99 0.063,-1.469 0.001,-0.01 -10e-4,-0.021 0,-0.031 0.048,-0.478 0.126,-0.944 0.219,-1.406 0.002,-0.01 -0.002,-0.021 0,-0.031 0.093,-0.462 0.239,-0.899 0.375,-1.344 0.003,-0.009 -0.003,-0.022 0,-0.031 0.137,-0.445 0.292,-0.888 0.469,-1.313 0.004,-0.009 -0.004,-0.022 0,-0.031 0.54,-1.292 1.288,-2.466 2.156,-3.531 0.005,-0.006 -0.005,-0.025 0,-0.031 0.287,-0.351 0.588,-0.678 0.906,-1 0.652,-0.66 1.357,-1.258 2.125,-1.781 2.284,-1.555 5.04,-2.469 8,-2.469 m 432.590003,-10e-4 26.594,0 c 2.962,0 5.695,0.914 7.969,2.469 0.764,0.523 1.477,1.121 2.125,1.781 2.575,2.621 4.156,6.234 4.156,10.25 l 0,17.625 c 0,4.02 -1.581,7.629 -4.156,10.25 -0.648,0.66 -1.361,1.258 -2.125,1.781 -2.273,1.561 -5.01,2.469 -7.969,2.469 l -26.594,0 c -2.962,0 -5.716,-0.908 -8,-2.469 -0.768,-0.523 -1.473,-1.121 -2.125,-1.781 -0.318,-0.322 -0.619,-0.649 -0.906,-1 -0.005,-0.006 0.005,-0.025 0,-0.031 -0.87,-1.066 -1.614,-2.239 -2.156,-3.531 -0.004,-0.009 0.004,-0.022 0,-0.031 -0.177,-0.425 -0.331,-0.868 -0.469,-1.313 -0.003,-0.01 0.003,-0.021 0,-0.031 -0.137,-0.445 -0.281,-0.881 -0.375,-1.344 -0.002,-0.01 0.002,-0.021 0,-0.031 -0.093,-0.463 -0.17,-0.928 -0.219,-1.406 -0.001,-0.01 10e-4,-0.021 0,-0.031 -0.048,-0.478 -0.062,-0.977 -0.063,-1.469 l 0,-17.656 0,-0.031 c 0,-0.492 0.016,-0.99 0.063,-1.469 10e-4,-0.01 -0.001,-0.021 0,-0.031 0.048,-0.478 0.126,-0.944 0.219,-1.406 0.002,-0.01 -0.002,-0.021 0,-0.031 0.093,-0.462 0.239,-0.899 0.375,-1.344 0.003,-0.009 -0.003,-0.022 0,-0.031 0.137,-0.445 0.292,-0.888 0.469,-1.313 0.004,-0.009 -0.004,-0.022 0,-0.031 0.54,-1.292 1.288,-2.466 2.156,-3.531 0.005,-0.006 -0.005,-0.025 0,-0.031 0.287,-0.351 0.588,-0.678 0.906,-1 0.652,-0.66 1.357,-1.258 2.125,-1.781 2.284,-1.555 5.04,-2.469 8,-2.469 m -432.590003,87.56 26.594,0 c 7.898,0 14.25,6.468 14.25,14.5 l 0,17.656 c 0,8.03 -6.352,14.469 -14.25,14.469 l -26.596,0 c -7.898,0 -14.313,-6.437 -14.313,-14.469 l 0,-17.656 c 0,-8.03 6.414,-14.5 14.313,-14.5 m 432.590003,0 26.594,0 c 7.898,0 14.25,6.468 14.25,14.5 l 0,17.656 c 0,8.03 -6.352,14.469 -14.25,14.469 l -26.594,0 c -7.898,0 -14.313,-6.437 -14.313,-14.469 l 0,-17.656 c 0,-8.03 6.414,-14.5 14.313,-14.5"
       id="path4238"
       style="fill:#878787;fill-rule:evenodd"
       inkscape:connector-curvature="0" />
    <g
       transform="translate(-423.05585,277.68992)"
       clip-path="url(#0-2)"
       id="g4694"
       style="opacity:0.25">
      <path
         d="m 370.83,41.1 c -35.31,0.875 -70.62,1.375 -105.93,2.135 l 353.55,353.55 c 35.31,-0.759 70.62,-1.26 105.93,-2.135 z"
         id="path4696"
         inkscape:connector-curvature="0" />
      <path
         d="M 264.91,43.24 C 211.85,179.94 157.62,316.22 105.78,453.37 L 459.33,806.92 C 511.16,669.77 565.4,533.49 618.46,396.79 Z"
         id="path4698"
         inkscape:connector-curvature="0" />
      <path
         d="m 105.78,453.37 c -0.424,3.287 0.635,5.792 2.515,7.672 l 353.55,353.55 c -1.88,-1.88 -2.938,-4.385 -2.515,-7.672 z"
         id="path4700"
         inkscape:connector-curvature="0" />
      <path
         d="m 108.3,461.04 c 3.793,3.793 10.928,5.04 15.97,5 l 353.55,353.55 c -5.04,0.032 -12.177,-1.211 -15.97,-5 z"
         id="path4702"
         inkscape:connector-curvature="0" />
      <path
         d="m 124.27,466.04 c 53.926,3.219 108.08,2.856 161.99,4.957 l 353.55,353.55 c -53.912,-2.101 -108.06,-1.738 -161.99,-4.957 z"
         id="path4704"
         inkscape:connector-curvature="0" />
      <path
         d="m 286.25,471 c 7.08,-1.913 6.112,-10.919 1.774,-15.257 l 353.55,353.55 c 4.338,4.338 5.303,13.345 -1.774,15.257 z"
         id="path4706"
         inkscape:connector-curvature="0" />
      <path
         d="m 288.03,455.74 c -0.356,-0.356 -0.735,-0.68 -1.133,-0.967 l 353.55,353.55 c 0.399,0.287 0.777,0.611 1.133,0.967 z"
         id="path4708"
         inkscape:connector-curvature="0" />
      <path
         d="m 286.89,454.78 c -13.577,-17.573 -34.26,-30.751 -41.33,-52.52 l 353.55,353.55 c 7.07,21.764 27.752,34.942 41.33,52.52 z"
         id="path4710"
         inkscape:connector-curvature="0" />
      <path
         d="m 245.56,402.26 c -1.127,-16.406 14.607,-26.751 24.25,-37.7 l 353.55,353.55 c -9.644,10.949 -25.378,21.294 -24.25,37.7 z"
         id="path4712"
         inkscape:connector-curvature="0" />
      <path
         d="m 269.82,364.56 c 11.695,-11.967 27.471,-20.764 36.29,-35.27 l 353.55,353.55 c -8.821,14.502 -24.596,23.3 -36.29,35.27 z"
         id="path4714"
         inkscape:connector-curvature="0" />
      <path
         d="m 306.11,329.29 c 5.876,-15.664 -6.225,-30.38 -12.809,-43.592 l 353.55,353.55 c 6.583,13.212 18.685,27.928 12.809,43.592 z"
         id="path4716"
         inkscape:connector-curvature="0" />
      <path
         d="m 293.3,285.7 c -7.974,-13.833 -20.779,-28.937 -16.566,-45.983 l 353.55,353.55 c -4.213,17.05 8.592,32.15 16.566,45.983 z"
         id="path4718"
         inkscape:connector-curvature="0" />
      <path
         d="m 276.73,239.72 c 7.41,-17.453 26.03,-25.735 38.906,-38.642 l 353.55,353.55 c -12.876,12.907 -31.496,21.19 -38.906,38.642 z"
         id="path4720"
         inkscape:connector-curvature="0" />
      <path
         d="m 315.64,201.08 c 50.5,-29.459 12.94,-55.18 0.374,-94.65 l 353.55,353.55 c 12.566,39.473 50.13,65.19 -0.374,94.65 z"
         id="path4722"
         inkscape:connector-curvature="0" />
      <path
         d="m 316.01,106.43 c 0.825,-16.492 18,-24.924 30.16,-33.02 l 353.55,353.55 c -12.16,8.095 -29.339,16.527 -30.16,33.02 z"
         id="path4724"
         inkscape:connector-curvature="0" />
      <path
         d="m 346.18,73.41 c 19.648,-11.168 40.97,-19.822 60.14,-31.835 l 353.55,353.55 c -19.17,12.01 -40.489,20.667 -60.14,31.835 z"
         id="path4726"
         inkscape:connector-curvature="0" />
      <path
         d="m 406.31,41.571 c -11.822,-0.41 -23.651,-0.747 -35.48,-0.47 l 353.55,353.55 c 11.829,-0.277 23.658,0.059 35.48,0.47 z"
         id="path4728"
         inkscape:connector-curvature="0" />
    </g>
    <path
       d="m -52.225847,318.78992 c -35.31,0.875 -70.620003,1.375 -105.930003,2.135 -53.06,136.7 -107.29,272.98 -159.13,410.13 -1.279,9.92 10.944,12.724 18.485,12.676 53.926,3.219 108.08,2.856 161.99,4.957 7.657,-2.07 5.899,-12.445 0.64,-16.224 -13.577,-17.573 -34.26,-30.751 -41.33,-52.52 -1.127,-16.406 14.607,-26.751 24.25,-37.7 11.695,-11.967 27.471,-20.764 36.29,-35.27 5.876,-15.664 -6.225,-30.38 -12.809,-43.592 -7.974,-13.833 -20.779,-28.937 -16.566,-45.983 7.41,-17.453 26.03,-25.735 38.906,-38.642 50.500003,-29.459 12.940003,-55.18 0.374,-94.65 0.825,-16.492 18.000003,-24.924 30.160003,-33.02 19.648,-11.168 40.97,-19.822 60.14,-31.835 -11.822,-0.41 -23.651,-0.747 -35.48,-0.47"
       id="path4730"
       style="fill:#ffffff"
       inkscape:connector-curvature="0" />
  </g>
</svg>
