<?xml version="1.0" encoding="UTF-8" standalone="no"?>
<!-- Created with Inkscape (http://www.inkscape.org/) -->

<svg
   xmlns:dc="http://purl.org/dc/elements/1.1/"
   xmlns:cc="http://creativecommons.org/ns#"
   xmlns:rdf="http://www.w3.org/1999/02/22-rdf-syntax-ns#"
   xmlns:svg="http://www.w3.org/2000/svg"
   xmlns="http://www.w3.org/2000/svg"
   xmlns:sodipodi="http://sodipodi.sourceforge.net/DTD/sodipodi-0.dtd"
   xmlns:inkscape="http://www.inkscape.org/namespaces/inkscape"
   id="svg2"
   height="100%"
   width="100%"
   version="1.1"
   viewBox="0 0 512 512"
   inkscape:version="0.91+devel r13804 custom"
   sodipodi:docname="fluendo-dvd-player.svg">
  <sodipodi:namedview
     pagecolor="#ffffff"
     bordercolor="#666666"
     borderopacity="1"
     objecttolerance="10"
     gridtolerance="10"
     guidetolerance="10"
     inkscape:pageopacity="0"
     inkscape:pageshadow="2"
     inkscape:window-width="1366"
     inkscape:window-height="709"
     id="namedview2598"
     showgrid="false"
     inkscape:zoom="0.4609375"
     inkscape:cx="26.033898"
     inkscape:cy="210.44068"
     inkscape:window-x="-2"
     inkscape:window-y="0"
     inkscape:window-maximized="0"
     inkscape:current-layer="svg2" />
  <metadata
     id="metadata5192">
    <rdf:RDF>
      <cc:Work
         rdf:about="">
        <dc:format>image/svg+xml</dc:format>
        <dc:type
           rdf:resource="http://purl.org/dc/dcmitype/StillImage" />
        <dc:title></dc:title>
      </cc:Work>
    </rdf:RDF>
  </metadata>
  <defs
     id="defs4">
    <clipPath
       id="0-2-2">
      <path
         inkscape:connector-curvature="0"
         id="path7-1-6"
         d="m 778.55,-23.311 c -10.34,0 -18.673,8.333 -18.673,18.673 l 0,330.36 c 0,10.34 8.333,18.673 18.673,18.673 l 330.36,0 c 10.34,0 18.673,-8.333 18.673,-18.673 l 0,-330.36 c 0,-10.34 -8.333,-18.673 -18.673,-18.673 l -330.35,0" />
    </clipPath>
  </defs>
  <path
     inkscape:connector-curvature="0"
     style="fill:#ead3a8"
     id="path12"
     d="m 26.02353,0 c -14.397,0 -26,11.603 -26,26 l 0,460 c 0,14.397 11.603,26 26,26 l 460.00002,0 c 14.397,0 26,-11.603 26,-26 l 0,-460 c 0,-14.397 -11.6,-26 -26,-26 L 26.02353,0" />
  <g
     id="g4692"
     transform="matrix(1.3924,0,0,1.3924,-1058.0763,32.459)"
     clip-path="url(#0-2-2)">
    <path
       style="fill:#d23638"
       inkscape:connector-curvature="0"
       id="path4694"
       d="m 920.9,13 c 0.519,11.558 -1.558,24.915 -3.539,36.35 -2.403,13.164 -7.596,32.414 -5.664,45.38 3.164,21.412 17.922,30.19 29.769,45.38 -12.08,-0.99 -20.808,-3.345 -31.798,-8.587 -8.07,-3.865 -16.04,-8.345 -22.547,-14.528 -29.576,-28.21 -21.702,-68.826 -12.971,-104.07 2.355,-9.674 8.345,-34.15 7.79,-43.26 -0.942,-14.251 -8.309,-24.625 -15.422,-36.35 37.37,4.01 53.11,46.798 54.44,79.54" />
    <path
       style="fill:#66aabe"
       inkscape:connector-curvature="0"
       id="path4696"
       d="m 1031.3,17.577 c -10,15.664 -24.721,28.11 -39.866,38.585 -15.941,10.99 -33.876,21.509 -40.759,40.904 -4.203,12.403 -2.355,25.989 0,38.586 -11.98,-6.835 -17.693,-21.279 -21.13,-34.06 -1.884,-6.932 -4.106,-20.14 -3.732,-27.27 2.693,-58.5 62.884,-71 92.8,-100.1 12.318,-12.03 16.847,-23.876 18.26,-40.711 19.999,22.692 9.01,61.28 -5.567,84.07" />
    <g
       style="fill:#46b546"
       id="g4698">
      <path
         inkscape:connector-curvature="0"
         id="path4700"
         d="m 823.32,46.911 c 43.875,37.788 41.28,111.24 106.86,100.1 -13.961,21.702 -66.1,20.241 -86.42,8.02 -35.99,-21.7 -43.68,-78.129 -64.49,-103.32 -9.77,-11.75 -19.67,-15.24 -33.16,-20.518 23.16,-14.999 58.4,-0.374 77.09,15.712" />
      <path
         inkscape:connector-curvature="0"
         id="path4702"
         d="m 1132.8,73.951 c -30.808,33.36 -70.903,29.818 -111.81,29.914 -18.538,0.048 -29.2,1.981 -42.74,16.09 -6.836,7.174 -10.519,16.847 -18.586,22.499 0,-14.347 0.326,-22.27 4.625,-36.35 2.548,-8.345 5.712,-15.567 10.809,-22.692 29.528,-41.52 80.15,-27.17 123.08,-27.27 25.712,-0.048 31.605,-4.807 50.01,-22.837 4.625,13.961 -6.183,30.566 -15.374,40.518" />
    </g>
    <path
       style="fill:#d23638"
       inkscape:connector-curvature="0"
       id="path4704"
       d="m 982.37,135.41 c 8.816,-5.193 17.17,-8.816 27.27,-11.04 41.894,-9.203 66.05,18.49 93.08,45.34 10.761,10.712 26.18,25.808 40.904,30.385 9.903,3.116 17.17,2.548 27.22,1.413 -8.261,14.299 -27.644,18.441 -43.21,19.721 -35.615,2.826 -65.855,-21.18 -90.82,-43.21 -9.529,-8.345 -17.499,-17.27 -29.528,-22.12 -18.828,-7.548 -32.27,-0.145 -50.01,4.577 6.606,-12.27 12.971,-18.26 24.999,-25.24" />
    <g
       style="fill:#66aabe"
       id="g4706">
      <path
         inkscape:connector-curvature="0"
         id="path4708"
         d="m 752.99,158.91 c 32.366,-10.289 62.932,-2.778 93.12,10.519 12.403,5.471 24.673,12.644 38.586,13.49 18.635,1.039 31.557,-13.731 47.691,-19.999 -4.384,12.644 -8.587,21.18 -17.08,31.798 -5.664,7.125 -11.606,12.318 -19.25,17.27 -33.924,21.932 -72.27,5.05 -104.44,-11.04 -11.28,-5.567 -30.856,-15.76 -43.21,-16.702 -10.05,-0.797 -22.547,4.529 -31.798,8.212 4.251,-17.318 19.903,-28.356 36.35,-33.537" />
      <path
         inkscape:connector-curvature="0"
         id="path4710"
         d="m 977.83,162.92 c 11.04,0.145 19.11,1.558 29.528,5.616 6.703,2.645 14.77,6.703 20.422,11.183 40.566,32.22 19.903,88.74 30.711,130.86 4.154,16.461 14.48,23.357 23.828,36.35 -52.643,-1.184 -76.99,-56.13 -77.27,-102.18 -0.048,-13.635 -0.374,-30.385 -5.616,-43.21 -4.154,-10.1 -12.838,-19.48 -21.605,-25.808 -6.884,-4.903 -12.971,-5.761 -18.212,-12.789 l 18.212,0" />
    </g>
    <path
       style="fill:#d23638"
       inkscape:connector-curvature="0"
       id="path4712"
       d="m 948.3,208.34 c -0.145,9.625 -0.942,15.809 -4.01,24.999 -18.16,55.01 -85.02,48.26 -120.89,65.63 -17.837,8.78 -20.241,19.673 -31.798,32.03 -2.741,-46.33 18.26,-74.73 61.33,-92.09 34.479,-13.913 67.981,-9.299 83.03,-51 2.596,-7.27 2.874,-10.664 3.297,-18.212 10.289,11.135 9.203,24.274 9.06,38.586" />
    <path
       style="fill:#46b546"
       inkscape:connector-curvature="0"
       id="path4714"
       d="m 979.39,190.19 c 5.423,6.413 10.942,14.903 14.15,22.692 22.318,54.59 -29.951,91.19 -47.559,136.29 -6.316,15.941 -2.874,22.741 0,38.586 -38.02,-18.212 -29.914,-80.06 -15.1,-111.34 l 13.345,-22.692 c 7.222,-11.606 16.883,-24.915 18.912,-38.585 2.307,-16.412 -7.5,-31.653 -14.77,-45.43 13.78,2.826 22.08,9.818 30.953,20.47" />
  </g>
  <path
     inkscape:connector-curvature="0"
     style="opacity:0.25;fill-rule:evenodd"
     d="m 80.7851,41.00195 c -1.31992,-0.0299 -2.34295,0.14761 -3.04102,0.55079 l -0.002,-0.002 C 62.84513,50.16078 62.88666,238.805 62.88666,256 l 0.006,0.006 c 0,16.93712 -0.0394,199.70577 14.13086,213.875 l 0.0352,0.0352 c -0.0116,-0.0114 -0.0236,-0.0197 -0.0352,-0.0312 l 42.1152,42.115 366.88477,0 c 14.397,0 26,-11.603 26,-26 l 0,-169.88867 -68.39063,-68.39063 c -28.65,-28.65 -159.498,-104.16631 -172.75,-111.82031 l 0,0.002 C 256.69083,127.715 107.62353,41.60909 80.7852,41.00195 Z"
     id="path5172" />
  <path
     inkscape:connector-curvature="0"
     style="fill:#ffffff;fill-rule:evenodd"
     id="path5188"
     d="m 449.16355,256.01 c 0,17.19 -163.39,111.49 -178.28,120.09 -14.89,8.59 -178.25002,102.95 -193.14002,94.35 -14.892,-8.6 -14.855,-197.25 -14.855,-214.45 0,-17.195 -0.042,-205.84 14.855,-214.45 14.892,-8.601 178.25002,85.76 193.14002,94.35 14.892,8.601 178.28,102.89 178.28,120.09" />
</svg>
