<?xml version="1.0" encoding="UTF-8" standalone="no"?>
<svg
   xmlns:dc="http://purl.org/dc/elements/1.1/"
   xmlns:cc="http://creativecommons.org/ns#"
   xmlns:rdf="http://www.w3.org/1999/02/22-rdf-syntax-ns#"
   xmlns:svg="http://www.w3.org/2000/svg"
   xmlns="http://www.w3.org/2000/svg"
   xmlns:sodipodi="http://sodipodi.sourceforge.net/DTD/sodipodi-0.dtd"
   xmlns:inkscape="http://www.inkscape.org/namespaces/inkscape"
   viewBox="0 0 512 512"
   id="svg2"
   version="1.1"
   inkscape:version="0.91+devel r13804 custom"
   sodipodi:docname="fogger.svg">
  <metadata
     id="metadata23465">
    <rdf:RDF>
      <cc:Work
         rdf:about="">
        <dc:format>image/svg+xml</dc:format>
        <dc:type
           rdf:resource="http://purl.org/dc/dcmitype/StillImage" />
      </cc:Work>
    </rdf:RDF>
  </metadata>
  <sodipodi:namedview
     pagecolor="#ffffff"
     bordercolor="#666666"
     borderopacity="1"
     objecttolerance="10"
     gridtolerance="10"
     guidetolerance="10"
     inkscape:pageopacity="0"
     inkscape:pageshadow="2"
     inkscape:window-width="1366"
     inkscape:window-height="709"
     id="namedview23463"
     showgrid="false"
     inkscape:zoom="0.4609375"
     inkscape:cx="-8.6779661"
     inkscape:cy="237.55932"
     inkscape:window-x="-2"
     inkscape:window-y="-3"
     inkscape:window-maximized="1"
     inkscape:current-layer="svg2" />
  <defs
     id="defs4">
    <radialGradient
       id="0"
       cx="184.41"
       gradientUnits="userSpaceOnUse"
       cy="128"
       r="256"
       gradientTransform="matrix(1.66319.52797-.21526.67811-94.74-56.16)">
      <stop
         stop-color="#ff825a"
         offset="0"
         id="stop7" />
      <stop
         stop-color="#f54913"
         offset="1"
         id="stop9" />
    </radialGradient>
    <radialGradient
       id="0-2"
       cx="184.41"
       gradientUnits="userSpaceOnUse"
       cy="128"
       r="256"
       gradientTransform="matrix(1.66319,0.52797,-0.21526,0.67811,-446.19763,273.60071)">
      <stop
         stop-color="#ff825a"
         offset="0"
         id="stop7-2" />
      <stop
         stop-color="#f54913"
         offset="1"
         id="stop9-9" />
    </radialGradient>
  </defs>
  <g
     id="g26826"
     transform="translate(351.45763,-329.76271)">
    <path
       id="path17865"
       d="m -325.45763,329.76071 c -14.397,0 -26,11.603 -26,26 l 0,460 c 0,14.397 11.603,26 26,26 l 460,0 c 14.397,0 26,-11.603 26,-26 l 0,-460 c 0,-14.397 -11.603,-26 -26,-26 l -460,0"
       style="fill:url(#0-2)"
       inkscape:connector-curvature="0" />
    <g
       transform="translate(-351.45763,329.76071)"
       id="g23457"
       style="fill-rule:evenodd">
      <path
         id="path23459"
         d="m 291.84,88.78 0.002,0.004 c -40.36,0 -74.935,25.388 -93.31,61.969 l 0,0.002 c -10.35,-8.611 -23.583,-14.187 -38.09,-14.188 l -0.002,0 0,-0.002 c -32.964,0 -59.719,26.755 -59.719,59.719 0,7.403 1.264,14.366 3.729,20.91 C 66.959,233.939 41,271.868 41,315.724 c 0,29.776 11.989,56.651 31.42,76.08 l 120.2,120.2 293.38,0 c 14.397,0 26,-11.603 26,-26 l 0,-218.28 -148.31,-148.31 c 0.053,0.053 0.104,0.107 0.156,0.16 l -0.16,-0.16 c -19.04,-19.04 -44.24,-30.635 -71.852,-30.635"
         inkscape:connector-curvature="0"
         style="opacity:0.25" />
      <path
         id="path23461"
         d="m 291.84,88.78 c -40.36,0 -74.934,25.388 -93.31,61.969 -10.35,-8.611 -23.584,-14.188 -38.09,-14.188 -32.964,0 -59.72,26.756 -59.72,59.72 0,7.404 1.267,14.366 3.732,20.911 -37.491,16.745 -63.45,54.673 -63.45,98.53 0,59.55 47.95,107.5 107.5,107.5 l 215,0 c 59.55,0 107.5,-47.95 107.5,-107.5 0,-47.18 -30.334,-86.974 -72.42,-101.52 0.093,-2.031 0.742,-3.904 0.742,-5.981 0,-65.93 -48.14,-119.44 -107.48,-119.44 m -35.904,91.21 15.884,31.747 -31.747,0 15.863,-31.747 m -95.22,15.862 31.747,0 0,15.885 -15.863,0 0,15.864 15.863,0 0,31.726 -15.863,0 0,15.885 15.863,0 0,31.748 -15.863,0 0,15.862 15.863,0 0,31.728 -15.863,0 0,15.884 15.863,0 0,15.863 -31.747,0 0,-190.45 m 170.61,6.448 0,17.369 c -2.024,1.444 -3.478,3.774 -3.478,6.447 0,4.383 3.549,7.932 7.932,7.932 4.382,0 7.932,-3.55 7.932,-7.932 0,-3.046 -1.935,-5.626 -4.454,-6.956 l 0,-16.86 c 6.238,9.573 15.839,24.441 10.413,34.23 -5.23,9.432 -23.466,9.386 -28.757,0 -5.455,-9.674 3.991,-24.624 10.413,-34.23 m -91.26,25.302 31.747,0 0,158.7 -31.747,0 0,-158.7 m 79.36,31.726 31.726,0 0,126.97 -31.726,0 0,-126.97"
         inkscape:connector-curvature="0"
         style="fill:#ffffff" />
    </g>
  </g>
</svg>
