<?xml version="1.0" encoding="UTF-8" standalone="no"?>
<svg
   xmlns:dc="http://purl.org/dc/elements/1.1/"
   xmlns:cc="http://creativecommons.org/ns#"
   xmlns:rdf="http://www.w3.org/1999/02/22-rdf-syntax-ns#"
   xmlns:svg="http://www.w3.org/2000/svg"
   xmlns="http://www.w3.org/2000/svg"
   xmlns:sodipodi="http://sodipodi.sourceforge.net/DTD/sodipodi-0.dtd"
   xmlns:inkscape="http://www.inkscape.org/namespaces/inkscape"
   viewBox="0 0 512 512"
   id="svg2"
   version="1.1"
   inkscape:version="0.91+devel r13804 custom"
   sodipodi:docname="fontforge.svg">
  <metadata
     id="metadata23488">
    <rdf:RDF>
      <cc:Work
         rdf:about="">
        <dc:format>image/svg+xml</dc:format>
        <dc:type
           rdf:resource="http://purl.org/dc/dcmitype/StillImage" />
      </cc:Work>
    </rdf:RDF>
  </metadata>
  <defs
     id="defs23486" />
  <sodipodi:namedview
     pagecolor="#ffffff"
     bordercolor="#666666"
     borderopacity="1"
     objecttolerance="10"
     gridtolerance="10"
     guidetolerance="10"
     inkscape:pageopacity="0"
     inkscape:pageshadow="2"
     inkscape:window-width="1366"
     inkscape:window-height="709"
     id="namedview23484"
     showgrid="false"
     inkscape:zoom="0.4609375"
     inkscape:cx="-8.6779661"
     inkscape:cy="237.55932"
     inkscape:window-x="-2"
     inkscape:window-y="-3"
     inkscape:window-maximized="1"
     inkscape:current-layer="svg2" />
  <g
     id="g26840"
     transform="translate(290.71185,-292.88136)">
    <rect
       id="rect23430"
       height="512"
       rx="25.988001"
       width="512"
       style="fill:#8a704d"
       x="-290.71185"
       y="292.88086" />
    <g
       transform="translate(-290.71186,292.88086)"
       id="g23478">
      <path
         id="path23480"
         d="m 275.96,120.75 c -28.02,0 -49.952,13.884 -66.41,32.03 l -0.004,-0.004 c -15.554,17.15 -26.535,38.06 -34.775,55.959 l 36.932,36.932 -0.002,0.006 -36.936,-36.936 -38.629,1.709 -5.445,0.24 0.004,0.004 0,15.412 5.691,5.691 -0.004,0 -5.688,-5.688 0,5.445 24.316,24.316 -23.885,57.76 0.008,0.008 c -7.246,17.525 -13.47,32.36 -19.393,42.31 l 21.01,21.01 c -0.001,10e-4 -0.003,10e-4 -0.004,0.002 l -21.01,-21.01 c -2.962,4.979 -5.838,8.687 -8.426,10.932 l 0.002,0.002 c -2.586,2.241 -4.587,3.02 -6.754,3.02 l -0.002,0 c -2.411,0 -4.285,-0.205 -5.807,-0.525 L 77.024,355.65 c -0.424,-0.424 -0.877,-0.842 -1.369,-1.25 -3.281,-2.715 -8.06,-4.412 -13.988,-4.412 l 39.895,39.895 -0.004,0 -39.893,-39.893 c -5.932,0 -10.919,1.472 -14.625,4.252 l 36.973,36.973 -0.004,0 -36.975,-36.975 c -3.706,2.78 -6.04,7.02 -6.04,11.406 L 64.248,388.9 c -0.002,-10e-4 -0.004,-10e-4 -0.006,-0.002 l -23.25,-23.25 c 0,5.122 2.17,10.383 6.4,14.613 l 131.74,131.74 306.88,0 c 14.397,0 25.988,-11.591 25.988,-25.988 l 0,-306.87 -47.4,-47.4 c 0.03,0.03 0.057,0.06 0.086,0.09 l -0.086,-0.086 c -1.449,-1.449 -3.14,-2.777 -5.068,-3.938 l -0.012,-0.012 c -7.567,-4.539 -18.508,-7.03 -34.08,-7.03 l -0.01,-0.01 c -28.02,0 -49.911,13.886 -66.36,32.04 l -0.006,-0.006 c -3.664,4.04 -7.07,8.294 -10.246,12.662 l -33.715,-33.715 c 0.03,0.03 0.057,0.06 0.086,0.09 l -0.086,-0.086 c -1.447,-1.447 -3.137,-2.774 -5.063,-3.934 l -0.018,-0.018 c -7.568,-4.54 -18.472,-7.03 -34.05,-7.03 l -0.01,-0.01"
         inkscape:connector-curvature="0"
         style="opacity:0.25" />
      <path
         id="path23482"
         d="m 275.96,120.75 c -28.02,0 -49.955,13.888 -66.41,32.04 -15.554,17.15 -26.535,38.06 -34.775,55.958 l -38.63,1.709 -5.444,0.239 0,20.864 5.485,0.239 28.3,1.193 -33.35,80.64 c -7.247,17.528 -13.471,32.368 -19.394,42.32 -2.962,4.979 -5.837,8.685 -8.425,10.93 -2.588,2.243 -4.589,3.02 -6.757,3.02 -5.47,0 -8.288,-1.014 -10.1,-2.186 -1.807,-1.173 -2.944,-2.741 -4.412,-5.087 -1.466,-2.346 -3.117,-5.511 -6.397,-8.227 -3.281,-2.715 -8.06,-4.412 -13.989,-4.412 -5.932,0 -10.919,1.473 -14.625,4.253 -3.706,2.78 -6.04,7.02 -6.04,11.406 0,6.882 3.917,14.01 11.484,18.56 7.57,4.541 18.517,7.03 34.1,7.03 27.97,0 50.31,-13.574 67.836,-33.702 17.531,-20.13 30.764,-46.809 42.08,-74.47 l 20.15,-49.56 39.59,-1.709 5.444,-0.239 0,-20.905 -5.444,-0.198 -29.53,-1.232 c 9.583,-23.346 17.15,-41.1 23.29,-51.825 3.431,-5.99 6.551,-10.05 9.181,-12.36 2.63,-2.306 4.482,-2.942 6.796,-2.942 5.47,0 8.247,1.014 10.05,2.186 1.807,1.173 2.944,2.741 4.412,5.087 1.466,2.346 3.157,5.511 6.439,8.227 3.281,2.715 8.02,4.412 13.95,4.412 5.932,0 10.959,-1.473 14.665,-4.253 3.706,-2.78 6,-7.02 6,-11.406 0,-6.882 -3.917,-14.01 -11.484,-18.56 -7.57,-4.541 -18.478,-7.03 -34.06,-7.03 m 149.47,0 c -28.02,0 -49.917,13.888 -66.37,32.04 -15.554,17.15 -26.535,38.06 -34.775,55.958 l -38.63,1.709 -5.444,0.239 0,20.864 5.444,0.239 28.336,1.193 -33.35,80.64 c -7.247,17.528 -13.471,32.368 -19.394,42.32 -2.962,4.979 -5.837,8.685 -8.425,10.93 -2.588,2.243 -4.628,3.02 -6.796,3.02 -5.47,0 -8.247,-1.014 -10.05,-2.186 -1.807,-1.173 -2.944,-2.741 -4.412,-5.087 -1.466,-2.346 -3.157,-5.511 -6.439,-8.227 -3.281,-2.715 -8.02,-4.412 -13.95,-4.412 -5.932,0 -10.959,1.473 -14.665,4.253 -3.706,2.78 -6,7.02 -6,11.406 0,6.882 3.917,14.01 11.484,18.56 7.57,4.541 18.478,7.03 34.06,7.03 27.97,0 50.31,-13.574 67.836,-33.702 17.531,-20.13 30.764,-46.809 42.08,-74.47 l 20.15,-49.56 39.628,-1.709 5.444,-0.239 0,-20.905 -5.444,-0.198 -29.53,-1.232 c 9.583,-23.346 17.15,-41.1 23.29,-51.825 3.431,-5.99 6.511,-10.05 9.141,-12.36 2.63,-2.306 4.482,-2.942 6.796,-2.942 5.47,0 8.288,1.014 10.1,2.186 1.807,1.173 2.944,2.741 4.412,5.087 1.466,2.346 3.117,5.511 6.397,8.227 3.281,2.715 8.06,4.412 13.989,4.412 5.932,0 10.919,-1.473 14.625,-4.253 3.706,-2.78 6.04,-7.02 6.04,-11.406 0,-6.882 -3.917,-14.01 -11.484,-18.56 -7.57,-4.541 -18.517,-7.03 -34.1,-7.03"
         inkscape:connector-curvature="0"
         style="fill:#ffffff" />
    </g>
  </g>
</svg>
