<?xml version="1.0" encoding="UTF-8" standalone="no"?>
<svg
   xmlns:dc="http://purl.org/dc/elements/1.1/"
   xmlns:cc="http://creativecommons.org/ns#"
   xmlns:rdf="http://www.w3.org/1999/02/22-rdf-syntax-ns#"
   xmlns:svg="http://www.w3.org/2000/svg"
   xmlns="http://www.w3.org/2000/svg"
   xmlns:sodipodi="http://sodipodi.sourceforge.net/DTD/sodipodi-0.dtd"
   xmlns:inkscape="http://www.inkscape.org/namespaces/inkscape"
   viewBox="0 0 512 512"
   id="svg2"
   version="1.1"
   inkscape:version="0.91+devel r13804 custom"
   sodipodi:docname="fontmatrix.svg">
  <metadata
     id="metadata23552">
    <rdf:RDF>
      <cc:Work
         rdf:about="">
        <dc:format>image/svg+xml</dc:format>
        <dc:type
           rdf:resource="http://purl.org/dc/dcmitype/StillImage" />
      </cc:Work>
    </rdf:RDF>
  </metadata>
  <defs
     id="defs23550" />
  <sodipodi:namedview
     pagecolor="#ffffff"
     bordercolor="#666666"
     borderopacity="1"
     objecttolerance="10"
     gridtolerance="10"
     guidetolerance="10"
     inkscape:pageopacity="0"
     inkscape:pageshadow="2"
     inkscape:window-width="1366"
     inkscape:window-height="709"
     id="namedview23548"
     showgrid="false"
     inkscape:zoom="0.4609375"
     inkscape:cx="-8.6779661"
     inkscape:cy="237.55932"
     inkscape:window-x="-2"
     inkscape:window-y="-3"
     inkscape:window-maximized="1"
     inkscape:current-layer="svg2" />
  <g
     id="g26901"
     transform="translate(279.86441,-327.59322)">
    <rect
       id="rect23496"
       height="512"
       rx="25.988001"
       width="512"
       style="fill:#ce2034"
       x="-279.86441"
       y="327.59122" />
    <path
       id="path23544"
       d="m -238.86841,385.04122 0.014,0.014 0,4.48 142.700003,142.7 -142.700003,-142.7 0,96.46 3.516,3.516 -0.008,-0.002 -3.508,-3.508 0,2.514 53.83,53.83 0,114.82 182.4300032,182.43 208.7399968,0 c 14.397,0 25.988,-11.591 25.988,-25.988 l 0,-210.15 -79.93,-79.93 c -14.653,-14.653 -31.17,-24.55 -49.15,-32.664 l 77.29,77.29 c 0.002,0.007 0.005,0.014 0.008,0.021 l -77.31,-77.31 c -18.418997,-8.307 -38.399997,-14.816 -59.769997,-22.869 l -0.01,-0.01 -3.646,5.404 0.107,0.107 c 5.458,5.903 9.427,11.724 12.549,17.859 l 0.041,0.043 c 5.451,11.1 9.01,19.656 10.932,30.574 l 126.559997,126.56 0,0.004 -126.559997,-126.56 c 0.044,0.249 0.071,0.412 0.113,0.65 l -51.746,-51.744 -0.066,-0.066 c -8.2009998,-8.201 -18.0999998,-14.877 -29.809,-19.379 l -0.002,-0.002 -0.127,-0.041 50.855,50.855 c 0.001,0.003 0.003,0.005 0.004,0.008 l -50.861,-50.861 -0.084,-0.041 50.979,50.979 0.006,0.012 -50.99,-50.99 -216.060003,-65.01 -0.006,-0.006 -4.314,-1.299"
       style="opacity:0.25"
       inkscape:connector-curvature="0" />
    <path
       id="path23546"
       d="m -238.85441,385.05122 0,103.45 2.388,0.671 51.44,14.996 0,152.98 2.053,0.88 c 0,0 20.19,8.41 40.465,16.881 10.139,4.235 20.311,8.465 27.982,11.687 3.836,1.611 7.03,2.974 9.299,3.937 1.137,0.481 2.02,0.863 2.64,1.132 0.31,0.134 0.56,0.267 0.712,0.336 l 0.041,0 4.944003,3.225 0.041,-6.158 0.753,-168.19 c 9.91,2.102 19.585,4.773 27.73,9.761 9.181,5.622 16.586,13.888 20.904,27.773 l 0,82.977 1.928,0.88 83.74,38.12 4.733,2.177 0,-131.65 c -1.334,-41.19 -20.15,-83.71 -61.2,-99.49 l -0.127,-0.041 -0.084,-0.041 -216.070003,-65.01 -4.314,-1.299 m 282.130003,82.94 -3.645,5.404 c 5.512,5.942 9.509,11.796 12.651,17.971 0.014,0.017 0.034,0.026 0.041,0.041 5.452,11.1 9.01,19.659 10.934,30.579 1.513,8.594 2.119,11.04 2.974,28.318 l 0,0.252 c 0,0.236 -0.142,4.613 0.127,9.426 0.137,2.47 0.377,4.973 0.837,7.162 0.231,1.096 0.486,2.097 0.964,3.1 0.478,1 1.215,2.29 3.02,2.89 l 0.336,0.125 0.336,0.041 c 8.778,1.036 13.359,5.488 16.756,11.855 3.347,6.274 5.05,14.381 6.702,21.698 l 1.048,127.55 0.041,2.094 1.885,0.88 87.719997,42.31 5.153,2.472 -0.336,-5.697 c -2.616,-46.937 -0.637,-91.22 -1,-132.24 -0.288,-31.962 -1.88,-62.28 -16.17,-93.28 l -0.084,-0.168 -0.084,-0.168 c -19.17,-30.968 -43.09,-47.41 -70.41,-59.734 -18.420997,-8.308 -38.399997,-14.818 -59.775997,-22.872"
       style="fill:#ffffff"
       inkscape:connector-curvature="0" />
  </g>
</svg>
