<?xml version="1.0" encoding="UTF-8" standalone="no"?>
<svg
   xmlns:dc="http://purl.org/dc/elements/1.1/"
   xmlns:cc="http://creativecommons.org/ns#"
   xmlns:rdf="http://www.w3.org/1999/02/22-rdf-syntax-ns#"
   xmlns:svg="http://www.w3.org/2000/svg"
   xmlns="http://www.w3.org/2000/svg"
   xmlns:sodipodi="http://sodipodi.sourceforge.net/DTD/sodipodi-0.dtd"
   xmlns:inkscape="http://www.inkscape.org/namespaces/inkscape"
   viewBox="0 0 512 512"
   id="svg2"
   version="1.1"
   inkscape:version="0.91+devel r13804 custom"
   sodipodi:docname="frostwire.svg">
  <metadata
     id="metadata8678">
    <rdf:RDF>
      <cc:Work
         rdf:about="">
        <dc:format>image/svg+xml</dc:format>
        <dc:type
           rdf:resource="http://purl.org/dc/dcmitype/StillImage" />
      </cc:Work>
    </rdf:RDF>
  </metadata>
  <defs
     id="defs8676" />
  <sodipodi:namedview
     pagecolor="#ffffff"
     bordercolor="#666666"
     borderopacity="1"
     objecttolerance="10"
     gridtolerance="10"
     guidetolerance="10"
     inkscape:pageopacity="0"
     inkscape:pageshadow="2"
     inkscape:window-width="1366"
     inkscape:window-height="709"
     id="namedview8674"
     showgrid="false"
     inkscape:zoom="0.4609375"
     inkscape:cx="-8.6779661"
     inkscape:cy="237.55932"
     inkscape:window-x="-2"
     inkscape:window-y="-3"
     inkscape:window-maximized="1"
     inkscape:current-layer="svg2" />
  <g
     id="g12030"
     transform="translate(386.16949,-325.42372)">
    <rect
       id="rect8620"
       height="512"
       rx="25.988001"
       width="512"
       style="fill:#2a9eff"
       x="-386.16949"
       y="325.42322" />
    <g
       transform="translate(-386.16949,325.42323)"
       id="g8668"
       style="fill-rule:evenodd">
      <path
         id="path8670"
         d="m 165.56,122 c -4.095,0.02 -7.928,1.977 -10.189,5.313 l 0.006,0.006 c -2.241,3.312 -2.561,8.08 -0.186,12.461 l -0.002,0 -0.029,0.031 0.002,0.004 c 16.06,31.32 25.719,53.58 42.44,88.16 l 11.11,11.11 c -0.195,0.445 -0.396,0.905 -0.592,1.352 l -26.836,-26.836 c 1.745,3.1 3.105,6.132 4.395,9.109 l -9.799,-9.799 c -8.229,8.534 -14.352,15.12 -31.03,25.969 l 36.668,36.668 -0.004,0.008 -36.674,-36.674 C 119.555,226 95.73,212.772 49.59,200.976 l 45.13,45.13 c -3.391,-1.335 -6.842,-2.615 -10.301,-3.846 L 45.472,203.313 c -2.273,8.01 -3.494,13.145 -4.439,22.19 l 4.115,4.115 c -0.562,-0.179 -1.229,-0.382 -1.766,-0.555 l 43.05,43.05 c -11.342,4.069 -25.13,7.901 -42.555,11.354 l 27.5,27.5 c -1.673,0.506 -3.366,0.99 -5.066,1.465 l -25.15,-25.15 c 0.986,7.07 4.818,21.803 6.06,26.439 l 198.28,198.28 240.51,0 c 14.397,0 25.988,-11.591 25.988,-25.988 l 0,-241.14 -47.06,-47.06 c 0.13,0.484 0.376,1.442 0.555,2.125 l -4.555,-4.555 c -9.461,2.01 -18.4,4.494 -27.03,7.389 l -75.896,-75.896 c 0.018,0.018 0.033,0.037 0.051,0.055 l -0.047,-0.047 c -2.328,-2.328 -5.493,-3.734 -8.861,-3.752 l 0.002,0.002 c -0.268,-0.001 -0.542,0.013 -0.813,0.029 l 13.393,13.393 0,0.008 -13.4,-13.4 c -4.519,0.272 -8.997,3.368 -11.498,8.932 l -0.002,-0.002 -0.029,0 0,0.002 c -9.209,19.92 -21.804,48.751 -34.5,77.959 l -15.73,-15.73 c -2.194,-2.194 -5.124,-3.595 -8.264,-3.729 l 12.1,12.1 0,0.004 -12.11,-12.11 c -0.304,-0.013 -0.6,-0.013 -0.906,0 -4.589,0.193 -9.306,3.267 -11.869,8.969 l 19.381,19.381 c -10e-4,0.002 -10e-4,0.004 -0.002,0.006 l -19.385,-19.385 -0.029,0 0,0.002 c -0.039,0.083 -0.073,0.159 -0.111,0.242 l -13.992,-13.992 c 0.018,0.018 0.033,0.037 0.051,0.055 l -0.057,-0.057 c -2.328,-2.328 -5.493,-3.734 -8.861,-3.752 l 0,0.002 c -0.266,-0.001 -0.538,0.015 -0.807,0.031 l -0.002,-0.002 c -2.619,0.158 -5.228,1.268 -7.451,3.254 l -59.29,-59.29 c 0.034,0.034 0.066,0.071 0.1,0.105 l -0.102,-0.102 c -2.717,-2.717 -6.15,-4.071 -9.416,-4.057 l -0.004,-0.004"
         inkscape:connector-curvature="0"
         style="opacity:0.25" />
      <path
         id="path8672"
         d="m 165.56,122 c -4.095,0.02 -7.927,1.977 -10.188,5.313 -2.245,3.312 -2.565,8.08 -0.188,12.469 l -0.031,0.031 c 16.06,31.32 25.721,53.58 42.44,88.16 a 3.3966,3.3966 0 0 0 6.1562,-0.0625 c 3.02,-6.621 4.926,-11.07 9.406,-20.875 a 3.3966,3.3966 0 0 0 -0.0937,-3 c -17.12,-32.61 -19.616,-46.638 -35.719,-74.906 a 3.3966,3.3966 0 0 0 -0.0312,-0.0937 c -2.866,-4.704 -7.453,-7.05 -11.75,-7.03 m 183.59,1.125 c -0.268,-10e-4 -0.542,0.015 -0.813,0.031 -4.521,0.272 -8.999,3.371 -11.5,8.938 l -0.031,0 c -21.1,45.64 -59.941,137.93 -77.16,174.81 -0.011,0.023 -0.021,0.071 -0.031,0.094 -5.317,10.505 -3.466,19.392 2.063,23.5 5.545,4.12 14.05,2.74 18.281,-4.03 a 3.3966,3.3966 0 0 0 0.15625,-0.28125 c 22.45,-44.926 56.13,-130.28 80.47,-184.62 a 3.3966,3.3966 0 0 0 0.0312,-0.0624 c 2.02,-4.806 1.177,-9.751 -1.344,-13.156 -2.363,-3.192 -6.098,-5.197 -10.125,-5.219 m -106.62,58.938 c -0.268,-0.001 -0.542,0.015 -0.813,0.031 -4.519,0.272 -9.02,3.36 -11.531,8.938 l -0.031,0 c -21.1,45.641 -59.911,137.93 -77.12,174.81 -0.011,0.023 -0.021,0.071 -0.031,0.094 -2.639,5.212 -3.619,9.783 -3.125,13.719 0.498,3.961 2.648,7.228 5.656,8.906 6.02,3.357 14.259,0.636 18.781,-6.781 a 3.3966,3.3966 0 0 0 0.125,-0.25 c 22.444,-44.888 55.18,-126.67 79.53,-181.03 a 3.3966,3.3966 0 0 0 0.0312,-0.0625 c 2.02,-4.806 1.177,-9.751 -1.344,-13.156 -2.363,-3.192 -6.098,-5.197 -10.125,-5.219 m 34.875,8.531 c -4.591,0.191 -9.311,3.265 -11.875,8.969 l -0.031,0 c -21.09,45.604 -28.344,68.04 -45.531,104.88 -0.015,0.032 -0.016,0.061 -0.031,0.094 -2.636,5.203 -3.667,9.786 -3.313,13.719 0.357,3.957 2.256,7.288 5.156,9.06 2.901,1.775 6.596,1.849 9.813,0.375 3.189,-1.462 5.939,-4.35 7.875,-8.438 l 0.031,0 c 0.014,-0.031 0.017,-0.063 0.031,-0.094 22.285,-44.602 25.42,-55.742 49.781,-110.12 a 3.3966,3.3966 0 0 0 0.0312,-0.0625 c 3.843,-9.155 -2.883,-18.03 -11.03,-18.375 -0.304,-0.013 -0.6,-0.013 -0.906,0 m 184.28,4.6875 a 3.3966,3.3966 0 0 0 -0.75,0.0937 c -35.746,7.61 -64.17,21.71 -95.59,40.719 -7.862,-6.163 -13.405,-11.645 -20.22,-18.344 a 3.3966,3.3966 0 0 0 -5.3438,0.75 c -1.286,2.286 -3.292,6.294 -5.281,10.188 -1.989,3.893 -4.04,7.794 -4.781,8.906 a 3.3966,3.3966 0 0 0 0.5,4.3438 c 5.957,5.603 9.308,9.491 13.656,13.13 -4.542,3.58 -7.513,6.946 -21.563,18.906 a 3.3966,3.3966 0 0 0 -0.78125,4.2188 c 3.461,6.309 5.432,12.855 9.313,19.75 a 3.3966,3.3966 0 0 0 5.4062,0.6875 c 8.22,-8.524 14.348,-15.07 31,-25.906 25.15,12.864 47.52,26.439 93.69,38.25 a 3.3966,3.3966 0 0 0 4.0938,-2.25 c 2.671,-8.376 4.325,-13.932 5.281,-23.06 a 3.3966,3.3966 0 0 0 -2.3438,-3.5625 c -18.771,-6.05 -52.4,-15.03 -73.75,-27.563 15.348,-9.664 36.18,-18.938 74.03,-26.438 a 3.3966,3.3966 0 0 0 2.7188,-3.8125 c -0.984,-7.05 -4.781,-21.815 -6.03,-26.469 a 3.3966,3.3966 0 0 0 -3.25,-2.5312 m -413.09,5.5625 a 3.3966,3.3966 0 0 0 -3.125,2.4688 c -2.273,8.01 -3.493,13.146 -4.438,22.19 a 3.3966,3.3966 0 0 0 2.3438,3.5625 c 18.764,6.05 53.12,15.384 74.56,27.969 -15.351,9.663 -36.21,18.937 -74.06,26.438 a 3.3966,3.3966 0 0 0 -2.7188,3.8125 c 0.986,7.07 4.817,21.802 6.06,26.438 a 3.3966,3.3966 0 0 0 4,2.4375 c 35.745,-7.61 64.14,-21.68 95.56,-40.688 7.865,6.162 13.409,11.617 20.22,18.313 a 3.3966,3.3966 0 0 0 5.3438,-0.75 c 1.281,-2.278 3.285,-6.271 5.281,-10.156 1.997,-3.885 4.065,-7.783 4.813,-8.906 a 3.3966,3.3966 0 0 0 -0.5,-4.3438 c -5.946,-5.592 -9.284,-9.517 -13.625,-13.156 4.524,-3.562 7.51,-6.939 21.531,-18.875 a 3.3966,3.3966 0 0 0 0.78125,-4.2188 c -3.463,-6.313 -5.465,-12.89 -9.344,-19.781 a 3.3966,3.3966 0 0 0 -5.4062,-0.6875 c -8.229,8.534 -14.351,15.12 -31.03,25.969 -25.285,-12.882 -49.11,-26.11 -95.25,-37.906 a 3.3966,3.3966 0 0 0 -1,-0.125 m 262.09,76.5 a 3.3966,3.3966 0 0 0 -3.0938,2 c -3.03,6.637 -4.92,11.06 -9.406,20.875 a 3.3966,3.3966 0 0 0 0.0937,3 c 17.12,32.61 19.616,46.638 35.719,74.906 a 3.3966,3.3966 0 0 0 0.0312,0.0937 c 4.172,6.847 11.855,8.355 17.25,5.719 2.698,-1.318 4.932,-3.629 5.969,-6.625 1.03,-2.977 0.728,-6.532 -1.094,-9.875 l 0.031,0 c -16.06,-31.32 -25.689,-53.58 -42.41,-88.16 a 3.3966,3.3966 0 0 0 -3.0625,-1.9375 l -0.031,0"
         inkscape:connector-curvature="0"
         style="fill:#ffffff" />
    </g>
  </g>
</svg>
