<?xml version="1.0" encoding="UTF-8" standalone="no"?>
<svg
   xmlns:dc="http://purl.org/dc/elements/1.1/"
   xmlns:cc="http://creativecommons.org/ns#"
   xmlns:rdf="http://www.w3.org/1999/02/22-rdf-syntax-ns#"
   xmlns:svg="http://www.w3.org/2000/svg"
   xmlns="http://www.w3.org/2000/svg"
   xmlns:sodipodi="http://sodipodi.sourceforge.net/DTD/sodipodi-0.dtd"
   xmlns:inkscape="http://www.inkscape.org/namespaces/inkscape"
   viewBox="0 0 512 512"
   id="svg2"
   version="1.1"
   inkscape:version="0.91+devel r13804 custom"
   sodipodi:docname="gbrainy.svg">
  <metadata
     id="metadata15458">
    <rdf:RDF>
      <cc:Work
         rdf:about="">
        <dc:format>image/svg+xml</dc:format>
        <dc:type
           rdf:resource="http://purl.org/dc/dcmitype/StillImage" />
      </cc:Work>
    </rdf:RDF>
  </metadata>
  <defs
     id="defs15456" />
  <sodipodi:namedview
     pagecolor="#ffffff"
     bordercolor="#666666"
     borderopacity="1"
     objecttolerance="10"
     gridtolerance="10"
     guidetolerance="10"
     inkscape:pageopacity="0"
     inkscape:pageshadow="2"
     inkscape:window-width="1366"
     inkscape:window-height="709"
     id="namedview15454"
     showgrid="false"
     inkscape:zoom="0.4609375"
     inkscape:cx="-8.6779661"
     inkscape:cy="237.55932"
     inkscape:window-x="-2"
     inkscape:window-y="-3"
     inkscape:window-maximized="1"
     inkscape:current-layer="svg2" />
  <g
     id="g18807"
     transform="translate(275.52542,-275.52542)">
    <rect
       id="rect15396"
       height="512"
       rx="25.988001"
       width="512"
       style="fill:#81cbdf"
       x="-275.52542"
       y="275.52542" />
    <path
       id="path15450"
       d="m -47.505424,333.05542 c -1.602,-0.003 -3.194,0.03 -4.773,0.123 l 9.736,9.736 c -0.002,-0.001 -0.004,-0.001 -0.006,-0.002 l -9.732,-9.732 c -2.128,0.126 -4.323,0.436 -6.385,0.824 l 3.793,3.793 c -0.121,-0.051 -0.24,-0.103 -0.361,-0.154 l -3.637,-3.637 c -1.063,0.04 -1.723,0.389 -2.059,0.617 l 1.529,1.529 c -0.002,0 -0.004,-0.001 -0.006,-0.002 l -1.525,-1.525 c -0.336,0.228 -0.204,0.348 -0.205,0.412 l 0.004,0.004 c -0.007,0.054 -0.098,0.111 0.102,0.311 l 12.02,12.02 c -3.456,-1.686 -6.908,-3.264 -10.465,-4.514 l 41,41 c -0.025,0.112 -0.053,0.224 -0.078,0.336 l -41.539,-41.539 c -3.407,-2.239 -7.664,-2.533 -12.555,-3.707 l -0.006,-0.004 c -0.138,-0.033 -0.272,0.035 -0.412,0 l 52.5,52.5 -0.002,0.006 -52.51,-52.51 c -9.679,0.53 -19.452,3.09 -29.239996,5.354 l 69.059996,69.06 c -0.031,0.039 -0.063,0.078 -0.094,0.117 l -69.179996,-69.18 c -13.23,2.407 -25.92,7.669 -38.1,13.795 l 0,0.002 c -16.62,7.67 -31.954,17.964 -45.1,30.682 l 0.004,0.004 c -9.123,7.752 -16.579,17.451 -23.264,27.586 l -0.002,-0.002 c -7.242,9.861 -12.13,21.36 -16.885,32.947 l 97.46,97.46 -0.002,0.002 -97.46,-97.46 c -0.058,0.142 -0.149,0.27 -0.207,0.412 l 0.002,0.002 -2.057,7.41 95.51,95.51 c -0.001,10e-4 -0.003,0.002 -0.004,0.004 l -95.51,-95.51 c -2.758,11.787 -6.128,23.15 -6.385,34.803 l 67.45,67.45 -0.004,0 -67.46,-67.46 c 0.011,0.066 -0.011,0.141 0,0.207 l 67.22,67.22 -0.004,0 -67.22,-67.22 c -0.001,0.068 0.001,0.137 0,0.205 l 0.002,0.002 c 1.939,11.519 5.618,22.985 12.354,32.32 l 0.012,0.012 c 3.34,5.194 7.092,10.129 11.391,14.428 l 0.043,0.043 248.359996,248.36 172.850004,0 c 14.397,0 25.988,-11.591 25.988,-25.988 l 0,-267.44 -86.57,-86.57 c 0.123,0.123 0.242,0.249 0.365,0.373 l -0.363,-0.363 c -6.738,-6.738 -14.12,-12.963 -21.385,-19.17 l -0.172,-0.172 c 0.044,0.042 0.084,0.09 0.127,0.133 l -0.16,-0.16 c -5.995,-3.776 -11.308,-8.339 -17.09,-11.945 l 59.17,59.17 c 0.001,0.003 0.003,0.005 0.004,0.008 l -59.18,-59.18 c -0.051,-0.028 -0.147,0.024 -0.201,0 -9.812,-5.395 -18.988004,-11.391 -29.240004,-15.236 l 89.100004,89.1 c -0.031,0.041 -0.065,0.079 -0.096,0.119 l -89.430004,-89.43 c -7,-4.04 -14.6,-7.122 -22.23,-10.09 -0.064,-0.017 -0.143,0.017 -0.207,0 l 105.210004,105.21 -0.002,0.002 -105.210004,-105.21 c -7.185,-1.921 -13.775,-5.137 -20.59,-7 l -0.002,0 c -10.139,-2.428 -20.242,-4.603 -30.4609997,-6.795 l -0.006,-0.006 c -13.256,-2.528 -26.9000003,-2.525 -40.5680003,-3.5 l -0.209,0 113.68,113.68 -113.68,-113.68 c -4.883,0.009 -9.777,-0.322 -14.584,-0.33"
       style="opacity:0.25"
       inkscape:connector-curvature="0" />
    <path
       id="path15452"
       d="m -52.285424,333.17942 c -2.128,0.126 -4.322,0.436 -6.384,0.824 a 1.4655,1.4655 0 0 1 -0.20596,0 c -1.063,0.04 -1.723,0.39 -2.059,0.618 -0.336,0.228 -0.205,0.348 -0.206,0.412 -0.001,0.064 -0.138,0.124 0.206,0.412 0.344,0.288 1.043,0.664 2.059,0.824 a 1.4655,1.4655 0 0 1 0.20596,0 1.4655,1.4655 0 0 1 0.20595,0 c 10.612,4.618 21.888,8.539 32.12,14.62 0.08,0.047 0.127,0.159 0.206,0.206 6.568,2.969 11.989,7.927 16.06,13.592 4.7190003,7.106 5.0200003,16.805 2.0590003,24.505 a 1.4655,1.4655 0 0 1 -0.20595,0 c -5.0630003,10.16 -9.3750003,21.356 -17.2970003,30.27 -0.064,0.072 -0.142,0.134 -0.206,0.206 -4.903,7.03 -12.811,10.154 -18.739,14.827 -0.072,0.062 -0.134,0.144 -0.206,0.206 -4.538,3.869 -9.834,7.245 -13.386,11.326 -1.968,3.412 -4.127,6.211 -4.119,9.679 a 1.4655,1.4655 0 0 1 0,0.20593 1.4655,1.4655 0 0 1 0,0.20592 c -1.735,6.749 -0.622,13.868 1.648,20.592 1.587,6.804 5.341,13.01 10.501,17.709 0.062,0.018 0.144,-0.017 0.206,0 3.325,0.926 7.578,-0.158 11.532,-1.236 1.697,-2.779 3.707,-5.088 5.766,-7.414 2.974,-3.509 7.234,-5.934 11.532,-7.414 0.059,-0.029 0.147,0.028 0.206,0 l 0,-0.206 c 10.9440003,-5.228 22.8590003,-3.787 33.566,-6.178 3.02,-1.023 5.977,-2.147 8.03,-4.119 0.053,-0.065 0.155,-0.14 0.206,-0.206 1.455,-1.865 2.404,-4.448 3.501,-7 1.135,-2.644 2.494,-5.368 4.736,-7.619 a 1.4655,1.4655 0 0 1 0.82379,-0.41184 1.4655,1.4655 0 0 1 0.20582,0 c 4.01,-0.101 7.244,1.766 10.09,3.913 2.638,1.99 5.02,4.19 7.414,5.766 0.046,-0.203 0.178,-0.163 0.206,-0.412 0.093,-0.824 0.148,-1.724 0.206,-2.677 0.057,-0.953 -0.028,-1.876 0.206,-2.677 a 1.4655,1.4655 0 0 1 0.20595,-0.20593 c 1.809,-3.523 4,-7.869 7.825,-10.503 0.072,-0.062 0.133,-0.145 0.206,-0.206 5.192,-4.285 12.555,-5.02 18.533,-1.853 l 0,-0.206 c 3.194,1.304 5.706,3.699 8.237,5.558 2.53,1.861 5.03,3.273 7.825,3.501 2.518,0.477 4.823,-0.221 7,-1.442 2.179004,-1.221 4.176004,-2.923 6.178004,-4.736 1.831,-1.51 3.95,-4.051 6.384,-5.972 2.388,-1.885 5.596,-3.269 9.06,-2.059 0.061,0.019 0.145,-0.019 0.206,0 7.299,2.357 11.815,8.541 16.675,13.18 0.068,0.064 0.138,0.142 0.206,0.206 5.251,3.4 10.293,7.348 16.06,6.384 a 1.4655,1.4655 0 0 1 0.20582,0 1.4655,1.4655 0 0 1 0.20595,0 c 7.749,0.831 15.443,-3.891 19.15,-10.707 1.456,-2.67 1.073,-5.652 -0.824,-8.237 a 1.4655,1.4655 0 0 1 -0.20595,-0.41186 1.4655,1.4655 0 0 1 0,-0.20592 c -0.505,-3.49 -3.553,-6.364 -5.148,-10.503 -0.058,-0.151 -0.152,-0.257 -0.206,-0.412 -9.417,-15.493 -23.767,-27.453 -37.678,-39.33 -0.073,-0.062 -0.133,-0.144 -0.206,-0.206 -5.995,-3.776 -11.308,-8.338 -17.09,-11.944 -0.053,-0.029 -0.153,0.029 -0.206,0 -9.812,-5.395 -18.990004,-11.392 -29.240004,-15.237 a 1.4655,1.4655 0 0 1 -0.4119,-0.20592 c -7,-4.04 -14.6,-7.122 -22.23,-10.09 -0.064,-0.017 -0.142,0.017 -0.206,0 -7.186,-1.921 -13.777,-5.137 -20.592,-7 -10.143,-2.429 -20.251,-4.603 -30.4739997,-6.796 -13.256,-2.528 -26.9000003,-2.526 -40.5680003,-3.501 l -0.206,0 c -6.511,0.012 -13.04,-0.579 -19.358,-0.206 m -20.796,5.766 c -9.679,0.53 -19.454,3.09 -29.239996,5.354 a 2.4974,2.4974 0 0 1 -0.20595,0 c -13.23,2.407 -25.92,7.67 -38.1,13.796 -16.62,7.67 -31.954,17.964 -45.1,30.682 -9.126,7.753 -16.583,17.456 -23.269,27.594 -7.242,9.861 -12.13,21.361 -16.885,32.948 -0.058,0.142 -0.148,0.27 -0.206,0.412 l -2.059,7.414 c -2.758,11.787 -6.127,23.15 -6.384,34.802 0.011,0.066 -0.011,0.14 0,0.206 -10e-4,0.068 0.001,0.138 0,0.206 1.939,11.522 5.619,22.991 12.356,32.33 5.485,8.53 12.07,16.364 20.386,21.828 a 2.4974,2.4974 0 0 1 0.20594,0.20592 c 5.391,4.531 12.661,6.351 19.768,10.09 0.066,0.014 0.14,-0.014 0.206,0 0.14,0.075 0.272,0.13 0.412,0.206 12.382,2.633 25.18,4.382 37.07,1.236 a 2.4974,2.4974 0 0 1 0.82368,0 c -0.163,-0.012 0.694,-0.105 1.647,-0.412 0.954,-0.307 2.194,-0.711 3.295,-1.03 0.55,-0.16 1.036,-0.343 1.647,-0.412 0.333,-0.037 0.81,0.155 1.236,0.206 6.15,-8.338 11.988,-17.27 18.946,-25.329 a 2.4974,2.4974 0 0 1 0.20595,-0.20594 c 5.452,-5.106 11.23,-10.21 18.129996,-13.796 a 2.4974,2.4974 0 0 1 0.61773,-0.20592 c 3.943,-0.971 7.01,-3.447 9.267,-7 a 2.4974,2.4974 0 0 1 0.20595,-0.20593 c 1.296,-1.379 1.961,-3.418 2.677,-5.766 0.716,-2.348 1.493,-5.02 3.707,-7.414 a 2.4974,2.4974 0 0 1 0.20595,-0.20591 c 5.074,-4.228 12.334,-5.227 18.533,-3.295 a 2.4974,2.4974 0 0 1 -0.20595,-0.20592 c -5.02,-6.275 -9.06,-13.632 -10.503,-21.828 -1.76,-8.703 -0.27,-17.799 4.119,-25.535 a 2.4974,2.4974 0 0 1 0.61786,-0.61777 c 1.343,-1.268 2.565,-3.191 4.119,-5.148 1.383,-1.745 3.166,-3.412 5.558,-4.531 6.107,-5.03 13.348,-8.268 17.915,-13.386 a 2.4974,2.4974 0 0 1 0.20595,-0.20591 c 8.141,-7.02 13.841,-16.417 19.15,-26.15 0.025,-0.059 -0.024,-0.147 0,-0.206 2.114,-5.184 3.601,-10.991 4.53,-16.675 l 0,-0.206 c -0.264,-5.18 -1.232,-10.244 -4.53,-13.592 a 2.4974,2.4974 0 0 1 -0.20595,-0.41185 c -2.734,-4.03 -7.274,-6.864 -11.944,-9.885 -0.144,-0.062 -0.27,-0.144 -0.412,-0.206 -8.656,-3.812 -16.498,-8.574 -24.916,-11.532 a 2.4974,2.4974 0 0 1 -0.61785,-0.20592 c -3.407,-2.239 -7.664,-2.533 -12.555,-3.707 -0.138,-0.033 -0.272,0.035 -0.412,0 m 190.480004,108.32 c -3.794,1.99 -6.927,5.09 -10.297,8.443 l -0.206,0 c -3.02,3.419 -7.070004,5.792 -11.738004,6.178 a 2.5302,2.5302 0 0 1 -0.20595,0 c -3.736,-0.014 -7.126,-1.517 -9.885,-2.677 a 2.5302,2.5302 0 0 1 -0.82368,-0.41185 c -2.611,-2.581 -5.869,-4.564 -9.473,-6.178 a 2.5302,2.5302 0 0 1 -0.61785,-0.41184 c -1.974,-1.638 -4.523,-2.099 -7.414,-1.853 -2.431,0.286 -4.585,1.065 -5.558,2.265 a 2.5302,2.5302 0 0 1 -0.82368,0.61779 c -2.02,1.098 -3.247,2.277 -3.501,4.119 a 2.5302,2.5302 0 0 1 -0.20595,0.61779 c -1.018,2.139 -1.08,4.72 -1.03,7.414 4.719,3.907 9.608,7.584 14.827,10.914 0.055,0.024 0.151,-0.024 0.206,0 0.082,0.053 0.124,0.153 0.206,0.206 4.04,1.687 8.64,2.884 13.18,4.942 0.062,0.028 0.144,-0.028 0.206,0 6.941,2.215 11.03,7.762 15.237,11.738 0.066,0.062 0.14,0.145 0.206,0.206 2.899004,2.124 5.605004,4.676 7.414004,8.03 a 2.5302,2.5302 0 0 1 0,0.20591 c 2.764,5.863 5.264,11.873 7.619,17.915 a 2.5302,2.5302 0 0 1 0.20595,0 c 2.577,7.995 2.156,16.188 2.059,23.887 a 2.5302,2.5302 0 0 1 0,0.41185 c -0.751,5.788 -2.562,10.743 -3.913,15.857 2.467,-0.228 4.975,-0.499 7.414,-0.412 0.135,-0.007 0.277,0.007 0.412,0 10.731,-0.64 21.783,-1.345 32.742,-0.618 11.09,0.99 22.648,0.601 34.18,2.059 0.165,-0.004 0.25,-10e-4 0.412,0 1.542,0.01 2.989,0.083 3.913,0 0.51,-0.046 0.736,-0.149 0.824,-0.206 0.089,-0.057 0.105,0.141 0.206,-0.206 a 2.5302,2.5302 0 0 1 0,-0.20592 c 1.806,-5.897 2.388,-12.347 2.265,-18.739 -0.019,-0.138 0.018,-0.274 0,-0.412 -0.913,-7.136 -0.859,-14.268 -0.824,-21.21 l 0,-0.206 c -0.575,-8.885 -1.608,-17.884 -3.295,-26.564 -2.276,-11.272 -3.942,-22.358 -7.414,-32.948 -0.091,-0.152 -0.12,-0.26 -0.206,-0.412 -1.01,-1.795 -1.535,-3.671 -2.265,-4.942 -0.618,-1.077 -1.298,-1.363 -2.059,-1.647 -1.381,0.951 -2.522,2.797 -4.736,4.736 l -0.206,0 c -3.267,3.224 -6.873,7.697 -12.555,9.267 -0.156,0.043 -0.252,0.167 -0.412,0.206 -3.49,1.361 -6.927,1.077 -9.885,1.03 a 2.5302,2.5302 0 0 1 -0.4119,0 c -5,-0.698 -9.299,-3.502 -12.768,-6.384 -5.399,-5.01 -9.776,-10.564 -15.445,-13.592 a 2.5302,2.5302 0 0 1 -0.4119,-0.20592 c -1.062,-0.832 -2.793,-0.863 -5.148,-0.824 m -82.370004,17.297 c -3.253,4.346 -6.846,8.23 -11.12,11.532 -5.593,3.44 -11.612,6.496 -18.3269997,6.796 -6.45400003,0.994 -13.202,2.174 -19.3580003,4.119 -4.885,2.873 -10.442,4.372 -14.62,8.443 -7.341,5.882 -16.647,8.887 -25.741,10.503 -6.489,-1.69 -13.557,-2.402 -20.18,-1.03 -3.7,3.831 -5.709,8.798 -7.825,13.592 -1.817,3.191 -5.157,4.819 -7.619,7.414 -5.15,1.727 -8.88,5.975 -13.999996,7.825 -11,8.31 -17.744,20.63 -26.15,31.3 -4.221,3.556 -1.557,9.229 -1.03,13.796 0.749,9.448 7.578,17.86 14,23.475 10.965,9.369 25.298996,13.03 38.921996,16.675 8.277,1.192 16.509,2.87 24.916,2.265 9.894,0.108 19.68,0.183 29.447,-1.647 8.716,-0.727 17.1500003,-2.749 25.5350003,-5.148 14.5139997,-3.148 28.4819997,-8.338 42.4199997,-13.386 9.326,-3.343 19.16,-5.811 27.388,-11.532 7.496,-2.523 13.265,-8.262 18.327,-14 1.68,-3.804 5.217,-6.688 5.766,-10.914 2.404,-4.483 2.765,-9.817 4.324004,-14.62 1.348,-8.273 2.536,-16.62 0.618,-24.916 -0.653,-8.628 -5.076004,-16.245 -10.090004,-23.06 -5.619,-10.04 -17.485,-13.636 -27.18,-18.533 -3.706,-2.12 -8.324,-2.201 -11.326,-5.766 -5.086,-5 -10.767,-9.734 -17.09,-13.18 m 114.900004,102.35 c -1.448,0.003 -2.901,0.079 -4.325,0.206 a 2.9063,2.9063 0 0 1 -0.20596,0 c -12.06,0.098 -24.19,1.698 -36.449,2.883 -3.558,5.756 -7.841,10.868 -12.555004,15.445 -0.065,0.08 -0.14,0.127 -0.206,0.206 -3.919,4.647 -9.166,6.736 -13.18,9.267 -0.149,0.153 -0.259,0.27 -0.412,0.412 -2.877,2.675 -6.294,3.361 -8.855,4.325 l 0,0.206 c -5.97,3.106 -12.233,4.743 -17.709,7.208 a 2.9063,2.9063 0 0 1 -0.4119,0.20592 c -7.04,1.939 -14.09,3.565 -20.592,6.178 a 2.9063,2.9063 0 0 1 -0.20595,0 c -3.771,1.179 -6.999,2.664 -10.09,4.531 l 0,8.031 c 1.094,3.681 1.969,7.175 3.501,9.885 3.338,6.353 8.03,12.1 13.796,16.269 l 0,-0.206 c 7.425,4.946 15.03,9.564 23.269,11.532 a 2.9063,2.9063 0 0 1 0.20595,0 c 6.01,1.818 12.436,2.779 18.946,3.501 0.137,0.015 0.275,-0.015 0.412,0 7.968,0.08 16.208004,-0.839 24.711004,-0.618 9.278,-1.936 18.499,-3.407 26.15,-7.825 a 2.9063,2.9063 0 0 1 0.20595,-0.20592 c 6.522,-2.833 12.527,-7.101 17.709,-12.15 a 2.9063,2.9063 0 0 1 0.20595,-0.20592 c 3.061,-2.445 5.131,-6.555 9.06,-10.297 0.076,-0.171 0.129,-0.245 0.206,-0.412 1.804,-3.885 4.069,-6.913 4.531,-9.679 a 2.9063,2.9063 0 0 1 0.20583,-0.8237 c 1.724,-3.549 3.146,-7.45 3.089,-10.914 a 2.9063,2.9063 0 0 1 0,-0.41185 c 0.491,-3.165 0.854,-6.128 0.618,-9.06 a 2.9063,2.9063 0 0 1 0,-0.41185 c 0.503,-5.839 -1.3,-11.897 -3.089,-18.13 a 2.9063,2.9063 0 0 1 0.61773,-2.677 c 1.424,-1.785 2.241,-5.354 5.972,-8.03 a 2.9063,2.9063 0 0 1 0,-0.20594 c 1.345,-0.915 1.941,-2.757 2.677,-5.148 -0.035,-0.083 0.101,-0.148 -0.206,-0.412 -0.415,-0.358 -1.315,-0.63 -2.059,-1.03 -4.04,-0.377 -8.04,-0.877 -11.738,-0.618 a 2.9063,2.9063 0 0 1 -0.41177,0 c -4.599,-0.355 -9.04,-0.832 -13.386,-0.824 m -136.730004,57.865 -38.1,7.825 21.0000003,41.39 23.2689997,17.09 14.826,38.923 41.39,-14.827 c -3.508,-6.927 -6.75,-13.91 -10.707,-20.592 -3.553,-5.616 -5.818,-11.844 -8.443,-17.915 -0.574,-2.27 -2.236,-4.03 -3.913,-5.558 -3.114,-3.545 -7.06,-6.05 -11.326,-8.03 -4.271,-1.9 -8.629,-3.624 -13.18,-4.736 l -14.827,-33.566"
       style="fill:#ffffff"
       inkscape:connector-curvature="0" />
  </g>
</svg>
