<?xml version="1.0" encoding="UTF-8" standalone="no"?>
<svg
   xmlns:dc="http://purl.org/dc/elements/1.1/"
   xmlns:cc="http://creativecommons.org/ns#"
   xmlns:rdf="http://www.w3.org/1999/02/22-rdf-syntax-ns#"
   xmlns:svg="http://www.w3.org/2000/svg"
   xmlns="http://www.w3.org/2000/svg"
   xmlns:sodipodi="http://sodipodi.sourceforge.net/DTD/sodipodi-0.dtd"
   xmlns:inkscape="http://www.inkscape.org/namespaces/inkscape"
   viewBox="0 0 512 512"
   id="svg2"
   version="1.1"
   inkscape:version="0.91+devel r13804 custom"
   sodipodi:docname="gda-browser-5.0.svg">
  <metadata
     id="metadata17484">
    <rdf:RDF>
      <cc:Work
         rdf:about="">
        <dc:format>image/svg+xml</dc:format>
        <dc:type
           rdf:resource="http://purl.org/dc/dcmitype/StillImage" />
      </cc:Work>
    </rdf:RDF>
  </metadata>
  <defs
     id="defs17482" />
  <sodipodi:namedview
     pagecolor="#ffffff"
     bordercolor="#666666"
     borderopacity="1"
     objecttolerance="10"
     gridtolerance="10"
     guidetolerance="10"
     inkscape:pageopacity="0"
     inkscape:pageshadow="2"
     inkscape:window-width="1366"
     inkscape:window-height="709"
     id="namedview17480"
     showgrid="false"
     inkscape:zoom="0.4609375"
     inkscape:cx="-8.6779661"
     inkscape:cy="237.55932"
     inkscape:window-x="-2"
     inkscape:window-y="-3"
     inkscape:window-maximized="1"
     inkscape:current-layer="svg2" />
  <g
     id="g20833"
     transform="translate(401.35593,-219.11864)">
    <path
       id="path16722"
       d="m -375.35593,219.11864 c -14.397,0 -26,11.603 -26,26 l 0,460 c 0,14.397 11.603,26 26,26 l 459.999998,0 c 14.397,0 26.000002,-11.603 26.000002,-26 l 0,-460 c 0,-14.397 -11.603002,-26 -26.000002,-26 l -459.999998,0"
       style="fill:#55405f"
       inkscape:connector-curvature="0" />
    <path
       id="path17476"
       d="m -165.59593,260.11864 c -86.36,0 -156.38,23.13 -156.38,51.678 0,5.669 2.761,11.127 7.865,16.23 l 34.543,34.543 c -5.369,-1.897 -10.303,-3.93 -14.766,-6.078 l -27.29,-27.29 c -2.791,5.01 -4.426,10.253 -4.426,15.621 l 0,48.813 c 0,9.488 4.549,18.531 12.77,26.752 l 41.01,41.01 c -11.09,-4.229 -20.777,-9.109 -28.762,-14.496 l -20.12,-20.12 -0.043,0 c -3.067,5.218 -4.859,10.772 -4.859,16.402 l 0,48.814 c 0,9.476 4.535,18.496 12.729,26.689 l 44.969,44.969 c -12.759,-4.548 -23.825,-9.928 -32.748,-15.943 l -20.05,-20.05 c -3.067,5.218 -4.902,10.648 -4.902,16.314 l 0,48.9 c 0,9.462 4.527,18.468 12.709,26.65 l 111.59,111.59 286.399998,0 c 14.397,0 26.000002,-11.603 26.000002,-26 l 0,-281.78 -127.770002,-127.77 c -20.587,-20.587 -79.27,-35.443 -148.469998,-35.443"
       style="opacity:0.25"
       inkscape:connector-curvature="0" />
    <path
       id="path17478"
       d="m -165.59593,260.11864 c -86.36,0 -156.38,23.13 -156.38,51.678 0,28.541 70,51.678 156.38,51.678 86.359998,0 156.3399978,-23.13 156.3399978,-51.678 0,-28.541 -69.9719998,-51.678 -156.3399978,-51.678 m -156.03,69.08 c -2.791,5.01 -4.426,10.253 -4.426,15.621 l 0,48.814 c 0,37.712 71.874,68.38 160.41,68.38 88.609998,0 160.4999978,-30.7 160.4999978,-68.38 l 0,-48.814 c 0,-5.368 -1.633,-10.608 -4.382,-15.621 -3.0669998,27.624 -71.6899998,49.726 -156.0799978,49.726 -84.39,0 -152.92,-22.1 -156.03,-49.726 z m 0.434,97.59 c -3.067,5.218 -4.86,10.771 -4.86,16.402 l 0,48.814 c 0,34.686 60.758,63.24 139.33,67.65 6.315,-8.661 18.893,-12.759 29.419,-10.674 -1.495,-6.06 -10.523,-11.921 -11.976,-19.526 -4.203,-15.03 9.07,-26.744 19.265,-35.23 7.762,-12.1 25.2,-12.228 35.58,-3.688 4.01,1.081 4.878,7.875 8.721,7.463 -1.593,-8.37 0.583,-18.234 5.900998,-25.21 -20.059998,3.854 -42.309998,5.988 -65.779998,5.988 -75.31,0 -138.35,-22.15 -155.55,-51.982 l -0.043,0 m 311.149998,0 c -8.694,15.07 -29.04,28.17 -56.755,37.446 1.841,0.023 3.67,0.004 5.511,-0.043 17.584,-2.34 28.384,18.1 25.6,33.32 2.766,1.854 4.988,-4.78 7.68,-5.814 6.01,-5.61 14.882,-8.296 22.8669998,-6.856 l 0,-41.655 c 0,-5.629 -1.872,-11.181 -4.9029998,-16.402 m -72.68,51.24 c -4.495,0 -7.652,3.297 -8.114,7.29 l -2.603,22.433 c -5.228,1.556 -10.209998,3.621 -14.925998,6.161 l -17.703,-14.02 c -3.149,-2.495 -7.711,-2.57 -10.891,0.607 l -16.879,16.879 c -3.178,3.178 -3.01,7.673 -0.607,10.891 l 13.581,18.18 c -5.02,11.532 -6.175,14.757 -6.161,14.709 l -22.433,2.603 c -3.991,0.462 -7.246,3.621 -7.246,8.114 l 0,23.908 c 0,4.495 3.268,7.537 7.246,8.114 l 22.52,3.254 c 1.559,5.163 3.641,10.09 6.161,14.753 l -13.928,17.573 c -2.495,3.149 -2.57,7.668 0.607,10.848 l 16.922,16.922 c 3.178,3.178 7.628,3.01 10.848,0.607 l 18.09,-13.538 c 4.678,2.507 9.617998,4.577 14.795998,6.118 l 2.603,22.433 c 0.462,3.991 3.62,7.246 8.114,7.246 l 23.908,0 c 4.495,0 7.537,-3.268 8.114,-7.246 l 3.254,-22.563 c 5.03,-1.532 9.847,-3.542 14.406,-5.988 l 18.267,13.625 c 3.219,2.405 7.7109998,2.57 10.8909998,-0.607 l 16.8790002,-16.879 c 3.178,-3.178 3.103,-7.742 0.607,-10.891 l -14.1000002,-17.79 c 2.487,-4.622 4.531,-9.51 6.075,-14.623 l 22.5200002,-3.254 c 3.976,-0.576 7.246,-3.62 7.246,-8.114 l 0,-23.908 c 0,-4.495 -3.253,-7.652 -7.246,-8.114 l -22.4760002,-2.603 c -1.526,-5.082 -3.575,-9.936 -6.03,-14.536 l 13.7550002,-18.441 c 2.405,-3.219 2.57,-7.711 -0.607,-10.891 l -16.8790002,-16.922 c -3.178,-3.178 -7.6999998,-3.103 -10.8479998,-0.607 l -17.92,14.189 c -4.6,-2.483 -9.447,-4.527 -14.536,-6.075 l -3.254,-22.563 c -0.576,-3.976 -3.618,-7.29 -8.114,-7.29 l -23.908,0 m -238.429998,49.639 c -3.067,5.218 -4.903,10.648 -4.903,16.315 l 0,48.901 c 0,37.712 71.918,68.17 160.46,68.17 0.977,0 1.935,-0.036 2.907,-0.043 -0.414,-0.474 -0.852,-0.974 -1.258,-1.432 -12.1,-11.131 -4.591,-31.24 7.42,-39.05 -7.267,-4.235 -17.965,-0.142 -24.689,-6.769 -10.869,-8.192 -10.08,-22.322 -9.633,-35.06 -63.842,-4.302 -115.06,-24.64 -130.3,-51.03 m 250.489998,22.997 c 18.46,0 33.411,14.952 33.411,33.411 0,18.46 -14.952,33.454 -33.411,33.454 -18.46,0 -33.453998,-14.996 -33.453998,-33.454 0,-18.46 14.995998,-33.411 33.453998,-33.411 z"
       style="fill:#ffffff"
       inkscape:connector-curvature="0" />
  </g>
</svg>
