<?xml version="1.0" encoding="UTF-8" standalone="no"?>
<svg
   xmlns:dc="http://purl.org/dc/elements/1.1/"
   xmlns:cc="http://creativecommons.org/ns#"
   xmlns:rdf="http://www.w3.org/1999/02/22-rdf-syntax-ns#"
   xmlns:svg="http://www.w3.org/2000/svg"
   xmlns="http://www.w3.org/2000/svg"
   xmlns:sodipodi="http://sodipodi.sourceforge.net/DTD/sodipodi-0.dtd"
   xmlns:inkscape="http://www.inkscape.org/namespaces/inkscape"
   viewBox="0 0 512 512"
   id="svg2"
   version="1.1"
   inkscape:version="0.91+devel r13804 custom"
   sodipodi:docname="gda-control-center.svg">
  <metadata
     id="metadata18146">
    <rdf:RDF>
      <cc:Work
         rdf:about="">
        <dc:format>image/svg+xml</dc:format>
        <dc:type
           rdf:resource="http://purl.org/dc/dcmitype/StillImage" />
      </cc:Work>
    </rdf:RDF>
  </metadata>
  <defs
     id="defs18144" />
  <sodipodi:namedview
     pagecolor="#ffffff"
     bordercolor="#666666"
     borderopacity="1"
     objecttolerance="10"
     gridtolerance="10"
     guidetolerance="10"
     inkscape:pageopacity="0"
     inkscape:pageshadow="2"
     inkscape:window-width="1366"
     inkscape:window-height="709"
     id="namedview18142"
     showgrid="false"
     inkscape:zoom="0.4609375"
     inkscape:cx="-8.6779661"
     inkscape:cy="237.55932"
     inkscape:window-x="-2"
     inkscape:window-y="-3"
     inkscape:window-maximized="1"
     inkscape:current-layer="svg2" />
  <g
     id="g21495"
     transform="translate(271.18644,-310.23729)">
    <path
       id="path17476"
       d="m -245.18894,310.23729 c -14.397,0 -26,11.603 -26,26 l 0,460 c 0,14.397 11.603,26 26,26 l 460,0 c 14.397,0 26,-11.603 26,-26 l 0,-460 c 0,-14.397 -11.603,-26 -26,-26 l -460,0"
       style="fill:#68af4c"
       inkscape:connector-curvature="0" />
    <path
       id="path18138"
       d="m -15.208941,351.23729 c -92.619999,0 -167.689999,24.811 -167.689999,55.42 0,6.08 2.963,11.932 8.438,17.406 l 37.06,37.06 c -5.756,-2.034 -11.05,-4.212 -15.83,-6.516 l -29.28,-29.28 c -2.993,5.375 -4.756,10.999 -4.756,16.756 l 0,52.37 c 0,10.17 4.875,19.859 13.684,28.668 l 44,44 c -11.908,-4.538 -22.312,-9.775 -30.883,-15.559 l -21.557,-21.557 c 0.004,0.007 0.008,0.013 0.012,0.02 l -0.02,-0.02 c -3.289,5.596 -5.236,11.548 -5.236,17.586 l 0,52.32 c 0,10.17 4.867,19.85 13.664,28.646 l 48.23,48.23 c -13.718,-4.889 -25.597,-10.678 -35.18,-17.15 l -21.459,-21.459 c 0.005,0.009 0.011,0.017 0.016,0.025 l -0.025,-0.025 c -3.289,5.596 -5.236,11.419 -5.236,17.496 l 0,52.41 c 0,10.153 4.86,19.819 13.643,28.602 l 85.539999,85.54 302.890001,0 c 14.397,0 26,-11.603 26,-26 l 0,-310.22 -96.76,-96.76 c -22.08,-22.08 -85.040001,-38.02 -159.260001,-38.02"
       style="opacity:0.25"
       inkscape:connector-curvature="0" />
    <path
       id="path18140"
       d="m -15.208941,351.23729 c -92.619999,0 -167.689999,24.81 -167.689999,55.42 0,30.607 75.06,55.42 167.689999,55.42 92.62,0 167.690001,-24.81 167.690001,-55.42 0,-30.607 -75.080001,-55.42 -167.690001,-55.42 m -167.309999,74.09 c -2.993,5.375 -4.756,10.999 -4.756,16.756 l 0,52.37 c 0,40.442 77.11,73.3 172.059999,73.3 95.03,0 172.100001,-32.892 172.100001,-73.3 l 0,-52.37 c 0,-5.757 -1.764,-11.381 -4.713,-16.756 -3.289,29.624 -76.890001,53.32 -167.380001,53.32 -90.499999,0 -163.969999,-23.699 -167.309999,-53.32 m 0.479,104.68 c -3.289,5.596 -5.237,11.547 -5.237,17.585 l 0,52.32 c 0,40.471 77.11,73.21 172.059999,73.21 95.03,0 172.100001,-32.758 172.100001,-73.22 l 0,-52.32 c 0,-6.04 -1.986,-11.987 -5.237,-17.585 -18.473,32.01 -86.030001,55.722 -166.860001,55.722 -80.76,0 -148.369999,-23.732 -166.809999,-55.722 m 0,108.18 c -3.289,5.596 -5.237,11.421 -5.237,17.497 l 0,52.41 c 0,40.442 77.11,73.14 172.059999,73.14 95.03,0 172.100001,-32.718 172.100001,-73.14 l 0,-52.41 c 0,-6.077 -1.986,-11.902 -5.237,-17.497 -18.473,31.951 -86.030001,55.63 -166.860001,55.63 -80.76,0 -148.369999,-23.684 -166.809999,-55.63"
       style="fill:#ffffff"
       inkscape:connector-curvature="0" />
  </g>
</svg>
