<?xml version="1.0" encoding="UTF-8" standalone="no"?>
<svg
   xmlns:dc="http://purl.org/dc/elements/1.1/"
   xmlns:cc="http://creativecommons.org/ns#"
   xmlns:rdf="http://www.w3.org/1999/02/22-rdf-syntax-ns#"
   xmlns:svg="http://www.w3.org/2000/svg"
   xmlns="http://www.w3.org/2000/svg"
   xmlns:sodipodi="http://sodipodi.sourceforge.net/DTD/sodipodi-0.dtd"
   xmlns:inkscape="http://www.inkscape.org/namespaces/inkscape"
   viewBox="0 0 512 512"
   id="svg2"
   version="1.1"
   inkscape:version="0.91 r13725"
   sodipodi:docname="gimp.svg">
  <metadata
     id="metadata280">
    <rdf:RDF>
      <cc:Work
         rdf:about="">
        <dc:format>image/svg+xml</dc:format>
        <dc:type
           rdf:resource="http://purl.org/dc/dcmitype/StillImage" />
      </cc:Work>
    </rdf:RDF>
  </metadata>
  <defs
     id="defs278" />
  <sodipodi:namedview
     pagecolor="#ffffff"
     bordercolor="#666666"
     borderopacity="1"
     objecttolerance="10"
     gridtolerance="10"
     guidetolerance="10"
     inkscape:pageopacity="0"
     inkscape:pageshadow="2"
     inkscape:window-width="640"
     inkscape:window-height="480"
     id="namedview276"
     showgrid="false"
     inkscape:zoom="0.5546875"
     inkscape:cx="36.056338"
     inkscape:cy="240.67606"
     inkscape:current-layer="svg2" />
  <g
     id="g3629"
     transform="translate(394.81689,-365.97184)">
    <rect
       id="rect212"
       height="512"
       rx="25.988001"
       width="512"
       style="fill:#ef6a47"
       x="-394.81689"
       y="365.97134" />
    <path
       id="path272"
       d="m 76.183099,477.30133 c -20.18,20.07 -21.545,25.568 -45.25,49.13 -13.46,13.31 -27.5610004,24.331 -45.22,29.992 l -7.803,-7.803 c -3.149,-3.149 -6.709,-5.71 -10.371,-8.566 l 16.16,16.16 0.006,0.012 -16.16,-16.16 c -12.453,-9.769 -28.17,-16.942 -42.15,-20.699 l 116.92,116.92 c -10e-4,0.003 -0.003,0.005 -0.004,0.008 l -116.93,-116.93 c -12.93,-3.331 -26.239999,-4.657 -38.009999,-4.547 l -0.004,-0.004 c -15.08,0.637 -28.918,2.376 -42.29,7.16 -8,2.923 -15.89,6.53 -24.334,10.1 l 179.99999859,180 c -0.001,10e-4 -0.001,0.003 -0.002,0.004 l -180.00999859,-180.01 -20.84,-15.178 -0.021,-0.021 -14.363,-10.111 210.7099986,210.71 c -0.002,0.002 -0.004,0.005 -0.006,0.008 l -210.7099986,-210.71 -14.309,-10.04 -0.061,-0.061 0.006,0.021 -0.031,-0.021 0.033,0.033 2.445,10.129 216.9699986,216.97 -0.002,0.002 -216.9699986,-216.97 -0.004,-0.002 1.957,11.441 0.002,0.002 c 1.238,6.489 2.237,13.219 2.957,19.939 l 0.004,0.004 c 1.183,11.05 1.606,22.07 1.084,31.922 l 178.679999,178.68 c -10e-4,10e-4 -0.003,10e-4 -0.004,0.002 l -178.679999,-178.68 c -0.214,3.783 -0.412,7.368 -0.414,7.709 l 0.004,0.004 c -2.101,11.896 -5.711,24.431 -14.205,32.453 l -0.006,-0.006 c -3.343,2.946 -7.157,5.235 -11.131,7.01 l -38.42,-38.42 c -13.839,-13.839 -33.18,-18.03 -48.779,-8.861 l 0,0.002 c -20.301,11.934 -26.558,42 -13.963,67.16 l 0.004,0.004 c 2.916,5.822 6.586,10.868 10.756,15.04 l 225.74,225.74 202.019999,0 c 14.397001,0 25.988001,-11.591 25.988001,-25.988 l 0,-333.69 -40.996001,-40.996 0,0.004 -0.004,-0.004"
       style="opacity:0.25"
       inkscape:connector-curvature="0" />
    <path
       id="path274"
       d="m -228.8569,496.67133 2.455,10.161 1.958,11.44 c 1.238,6.49 2.237,13.222 2.957,19.943 1.183,11.05 1.607,22.07 1.085,31.927 -0.214,3.783 -0.411,7.367 -0.413,7.708 -2.101,11.897 -5.711,24.435 -14.207,32.457 -9.06,7.986 -21.578,11.176 -31.378,12.199 l -0.925,-0.273 c 0.17,-9.334 -1.895,-19.13 -6.473,-28.28 -12.594,-25.16 -39.25,-35.858 -59.55,-23.923 -20.301,11.934 -26.557,42 -13.962,67.16 11.448,22.866 34.522,33.765 53.869,26.604 l -0.218,0.412 c 13.366,17.09 31.41,32.665 46.4,44.647 16.689,13.289 34.21,25.2 51.29,33.516 23.802,11.267 49.646,19.881 72.924,24.27 22.441,-0.057 39.885999,-1.933 55.798999,-6.808 16.331,-5 31.05,-13.161 47.895,-25.754 16.0199996,-15.822 27.7879996,-30.643 37.599,-46.624 16.186,-28.568 25.27,-51.637 32.995,-78.64 6.828,-24.08 11.364,-42.676 14.949,-64.32 4.124,-22.1 4.486,-46.796 9.994,-67.2 -20.18,20.07 -21.545,25.567 -45.25,49.13 -13.87,13.716 -28.4100004,25.02 -46.831,30.513 -4.124,-7.836 -10.189,-11.912 -16.562,-16.883 -12.453,-9.769 -28.17,-16.942 -42.15,-20.699 -12.931,-3.331 -26.239999,-4.656 -38.009999,-4.546 -15.08,0.637 -28.919,2.376 -42.29,7.16 -8,2.923 -15.889,6.53 -24.333,10.1 l -20.869,-15.199 -14.365,-10.11 -14.394,-10.1"
       style="fill:#ffffff"
       inkscape:connector-curvature="0" />
  </g>
</svg>
