<?xml version="1.0" encoding="UTF-8" standalone="no"?>
<svg
   xmlns:dc="http://purl.org/dc/elements/1.1/"
   xmlns:cc="http://creativecommons.org/ns#"
   xmlns:rdf="http://www.w3.org/1999/02/22-rdf-syntax-ns#"
   xmlns:svg="http://www.w3.org/2000/svg"
   xmlns="http://www.w3.org/2000/svg"
   xmlns:xlink="http://www.w3.org/1999/xlink"
   xmlns:sodipodi="http://sodipodi.sourceforge.net/DTD/sodipodi-0.dtd"
   xmlns:inkscape="http://www.inkscape.org/namespaces/inkscape"
   id="svg2"
   height="100%"
   viewBox="0 0 512 512"
   width="100%"
   version="1.1"
   inkscape:version="0.91 r13725"
   sodipodi:docname="gmail.svg">
  <sodipodi:namedview
     pagecolor="#ffffff"
     bordercolor="#666666"
     borderopacity="1"
     objecttolerance="10"
     gridtolerance="10"
     guidetolerance="10"
     inkscape:pageopacity="0"
     inkscape:pageshadow="2"
     inkscape:window-width="640"
     inkscape:window-height="480"
     id="namedview29"
     showgrid="false"
     inkscape:zoom="0.5546875"
     inkscape:cx="36.056338"
     inkscape:cy="240.67606"
     inkscape:current-layer="svg2" />
  <metadata
     id="metadata10">
    <rdf:RDF>
      <cc:Work
         rdf:about="">
        <dc:format>image/svg+xml</dc:format>
        <dc:type
           rdf:resource="http://purl.org/dc/dcmitype/StillImage" />
        <dc:title />
      </cc:Work>
    </rdf:RDF>
  </metadata>
  <defs
     id="defs8">
    <linearGradient
       id="linearGradient4216-1">
      <stop
         id="stop4218-0"
         stop-color="#fff"
         offset="0" />
      <stop
         id="stop4220-2"
         stop-color="#e8e8e8"
         offset=".6875" />
      <stop
         id="stop4222-6"
         stop-color="#686868"
         offset=".875" />
      <stop
         id="stop4224-6"
         offset="1" />
    </linearGradient>
    <radialGradient
       id="radialGradient21305"
       cx="64"
       xlink:href="#linearGradient4216-1"
       gradientUnits="userSpaceOnUse"
       cy="64"
       r="64"
       gradientTransform="matrix(4.1658 0 0 3.8875 -39.924 -73.947)" />
    <radialGradient
       id="radialGradient21305-0"
       xlink:href="#linearGradient4216-1"
       gradientUnits="userSpaceOnUse"
       cy="64"
       cx="64"
       gradientTransform="matrix(4.1658 0 0 3.8875 1383.5 -189.35)"
       r="64" />
  </defs>
  <path
     id="path4230"
     d="m273.04 165.47c-2.1202 7.3447-36.402 181.33-29.267 189.98 6.1765 7.4828 15.826 4.2405 17.946-3.1042-2.1202 7.3447-6.3607 22.034-8.4809 29.379-17.946 3.1042-33.92-0.81668-37.444-17.946-4.0713-19.793 27.134-182.59 29.267-189.98-4.7411-8.958-29.531-15.826-33.772-1.1362l-7.9128-2.1202c18.514-34.603 53.838-9.3127 69.663-5.0722z"
     display="none" />
  <path
     id="path4232"
     d="m250.86 183.26c-26.427 32.483-124.22 164.54-147.96 158.17l-15.826-4.2405 12.153-12.569 7.9128 2.1202c15.826 4.2405 123.65-133.04 140.05-160.3 12.573-20.906 3.6724 16.81 3.6724 16.81z"
     display="none" />
  <path
     id="path4234"
     d="m187.97 253.45 47.477 12.721-4.2405 14.689-55.39-14.842z"
     display="none" />
  <ellipse
     id="path3281-0-0"
     rx="266.61"
     transform="matrix(.96593 .25882 -.27735 .96077 0 0)"
     ry="248.8"
     cy="174.85"
     cx="226.69"
     display="none"
     fill="url(#radialGradient21305)" />
  <path
     id="path4230-0"
     d="m273.04 165.47c-2.1202 7.3447-36.402 181.33-29.267 189.98 6.1765 7.4828 15.826 4.2405 17.946-3.1042-2.1202 7.3447-6.3607 22.034-8.4809 29.379-17.946 3.1042-33.92-0.81668-37.444-17.946-4.0713-19.793 27.134-182.59 29.267-189.98-4.7411-8.958-29.531-15.826-33.772-1.1362l-7.9128-2.1202c18.514-34.603 53.838-9.3127 69.663-5.0722z"
     display="none" />
  <path
     id="path4232-1"
     d="m250.86 183.26c-26.427 32.483-124.22 164.54-147.96 158.17l-15.826-4.2405 12.153-12.569 7.9128 2.1202c15.826 4.2405 123.65-133.04 140.05-160.3 12.573-20.906 3.6724 16.81 3.6724 16.81z"
     display="none" />
  <path
     id="path4234-6"
     d="m187.97 253.45 47.477 12.721-4.2405 14.689-55.39-14.842z"
     display="none" />
  <ellipse
     id="path3281-0-0-1"
     rx="266.61"
     transform="matrix(.96593 .25882 -.27735 .96077 0 0)"
     ry="248.8"
     cy="174.85"
     cx="226.69"
     display="none"
     fill="url(#radialGradient21305)" />
  <path
     id="path4230-8"
     d="m1680 423c-2.1203 7.3447-36.402 181.33-29.267 189.98 6.1765 7.4828 15.826 4.2405 17.946-3.1042-2.1203 7.3447-6.3607 22.034-8.481 29.379-17.946 3.1042-33.92-0.81668-37.444-17.946-4.0713-19.793 27.134-182.59 29.267-189.98-4.7412-8.958-29.531-15.826-33.772-1.1362l-7.9128-2.1202c18.514-34.603 53.838-9.3127 69.663-5.0722z"
     display="none" />
  <path
     id="path4232-9"
     d="m1657.8 440.8c-26.427 32.483-124.22 164.54-147.96 158.17l-15.826-4.2405 12.153-12.569 7.9128 2.1202c15.826 4.2405 123.65-133.04 140.05-160.3 12.573-20.906 3.6723 16.81 3.6723 16.81z"
     display="none" />
  <path
     id="path4234-5"
     d="m1594.9 510.99 47.477 12.721-4.2405 14.689-55.39-14.842z"
     display="none" />
  <ellipse
     id="path3281-0-0-6"
     rx="266.61"
     transform="matrix(.96593 .25882 -.27735 .96077 0 0)"
     ry="248.8"
     cy="59.452"
     cx="1650.1"
     display="none"
     fill="url(#radialGradient21305-0)" />
  <g
     id="g3384"
     transform="translate(338.92958,-329.91549)">
    <path
       d="m -312.92958,329.91549 c -14.397,0 -26,11.603 -26,26 l 0,460 c 0,14.397 11.603,26 26,26 l 460,0 c 14.397,0 26,-11.603 26,-26 l 0,-460 c 0,-14.397 -11.6,-26 -26,-26 l -460,0 z"
       id="rect2986"
       style="fill:#d23638"
       inkscape:connector-curvature="0" />
    <path
       d="m -250.58958,428.01849 c 1.5068,1.4889 2.8607,3.1455 4.0681,4.8817 l 327.480003,0 c 1.1895,-1.7509 2.5141,-3.3716 3.9672,-4.8817 l -335.520003,0 z m 3.9152,310.9 c -0.66392,1.0366 -1.3848,2.0568 -2.187,3.0511 -0.46865,0.62812 -0.96658,1.2562 -1.4743,1.8306 l 334.900003,0 c -1.5849,-1.4743 -3.0348,-3.1064 -4.2715,-4.8817 l -326.980003,0 z"
       id="path28973"
       style="opacity:0.6;fill:#ffffff"
       inkscape:connector-curvature="0" />
    <path
       d="m -274.23358,428.01849 c -13.132,0 -23.696,10.559 -23.696,23.696 l 0,268.35 c 0,13.132 10.559,23.748 23.696,23.748 13.132,0 23.696,-10.61 23.696,-23.748 l 0,-268.35 c 0,-13.132 -10.559,-23.696 -23.696,-23.696 m 382.55,0 c -13.131997,0 -23.695997,10.559 -23.695997,23.696 l 0,268.35 c 0,13.132 10.559,23.748 23.695997,23.748 13.132,0 23.748,-10.61 23.748,-23.748 l 0,-268.35 c 0,-13.132 -10.61,-23.696 -23.748,-23.696"
       id="path28987"
       style="fill:#ffffff"
       inkscape:connector-curvature="0" />
    <path
       d="m -274.23458,428.01949 c -13.132,0 -23.695,10.556 -23.695,23.696 l 0,23.49 353.550003,353.56 18.25,13.15 73.199997,0 c 14.397,0 26,-11.603 26,-26 l 0,-333.01 -47.924,-47.924 c -4.2966,-4.2966 -10.243,-6.9473 -16.824,-6.9473 -3.1436,0 -6.1426,0.60161 -8.882797,1.6953 l -0.47461,-0.47461 -3.5078,2.543 c -0.0309,0.0211 -0.0707,0.0313 -0.10156,0.0508 l -0.30469,0.20313 c -0.62974,0.42471 -1.2459,0.89334 -1.8301,1.375 l -145.24,104.8 c -17.109,12.348 -44.675,12.348 -61.785003,0 l -145.14,-104.7 0,0.10156 c -0.65741,-0.55652 -1.3172,-1.0929 -2.0332,-1.5762 -3.772,-2.5428 -8.3266,-4.0094 -13.24,-4.0156 l -0.0293,-0.0293 z"
       id="path34485"
       style="opacity:0.25"
       inkscape:connector-curvature="0" />
    <path
       d="m -274.23358,428.01849 c -13.132,0 -23.696,10.559 -23.696,23.696 l 0,23.494 22.222,16.019 25.172,18.206 136.74,98.66 c 17.109003,12.348 44.674003,12.348 61.785003,0 l 136.64,-98.595 14.341,-10.374 33.104997,-23.901 0,-23.494 c 0,-13.14 -10.61,-23.702 -23.75,-23.702 -3.3245,0 -6.4911,0.66391 -9.356697,1.8811 l 0,-0.66066 -3.5084,2.5434 c -0.0309,0.0211 -0.07,0.0309 -0.10089,0.0504 l -0.30592,0.20341 c -0.62975,0.42471 -1.2465,0.89173 -1.8306,1.3734 l -145.23,104.81 c -17.109,12.348 -44.674,12.348 -61.785003,0 l -145.12,-104.69 0,0.10252 c -0.65741,-0.55652 -1.3181,-1.0935 -2.0341,-1.5768 -3.7801,-2.5483 -8.3462,-4.0177 -13.272,-4.0177"
       id="path28991"
       style="fill:#ffffff"
       inkscape:connector-curvature="0" />
  </g>
</svg>
