<?xml version="1.0" encoding="UTF-8" standalone="no"?>
<svg
   xmlns:dc="http://purl.org/dc/elements/1.1/"
   xmlns:cc="http://creativecommons.org/ns#"
   xmlns:rdf="http://www.w3.org/1999/02/22-rdf-syntax-ns#"
   xmlns:svg="http://www.w3.org/2000/svg"
   xmlns="http://www.w3.org/2000/svg"
   xmlns:sodipodi="http://sodipodi.sourceforge.net/DTD/sodipodi-0.dtd"
   xmlns:inkscape="http://www.inkscape.org/namespaces/inkscape"
   viewBox="0 0 512 512"
   id="svg2"
   version="1.1"
   inkscape:version="0.91+devel r13804 custom"
   sodipodi:docname="gnome-nettool.svg">
  <metadata
     id="metadata10294">
    <rdf:RDF>
      <cc:Work
         rdf:about="">
        <dc:format>image/svg+xml</dc:format>
        <dc:type
           rdf:resource="http://purl.org/dc/dcmitype/StillImage" />
      </cc:Work>
    </rdf:RDF>
  </metadata>
  <defs
     id="defs10292" />
  <sodipodi:namedview
     pagecolor="#ffffff"
     bordercolor="#666666"
     borderopacity="1"
     objecttolerance="10"
     gridtolerance="10"
     guidetolerance="10"
     inkscape:pageopacity="0"
     inkscape:pageshadow="2"
     inkscape:window-width="1366"
     inkscape:window-height="709"
     id="namedview10290"
     showgrid="false"
     inkscape:zoom="0.4609375"
     inkscape:cx="-8.6779661"
     inkscape:cy="237.55932"
     inkscape:window-x="-2"
     inkscape:window-y="-3"
     inkscape:window-maximized="1"
     inkscape:current-layer="svg2" />
  <g
     id="g13646"
     transform="translate(314.57627,-303.72881)">
    <path
       id="path10188"
       d="m -288.57677,303.72581 c -14.397,0 -26,11.603 -26,26 l 0,460 c 0,14.397 11.603,26 26,26 l 460,0 c 14.397,0 26,-11.603 26,-26 l 0,-460 c 0,-14.397 -11.603,-26 -26,-26 l -460,0"
       style="fill:#e4a146"
       inkscape:connector-curvature="0" />
    <g
       transform="translate(-314.57677,303.72581)"
       id="g10284"
       style="fill-rule:evenodd">
      <path
         id="path10286"
         d="m 189.69,118.88 c -7.674,0 -13.875,6.201 -13.875,13.875 l 0,69.16 c 0,3.829 1.544,7.285 4.045,9.785 l 42.746,42.746 -146.76,0 0,54.715 19.813,19.813 -40.813,0 c -7.674,0 -13.844,6.17 -13.844,13.844 l 0,36.438 c 0,3.845 1.548,7.319 4.059,9.83 l 122.92,122.92 318.02,0 c 14.397,0 26,-11.603 26,-26 l 0,-183.18 -179.9,-179.9 c -2.5,-2.5 -5.956,-4.045 -9.785,-4.045 l -132.62,0"
         inkscape:connector-curvature="0"
         style="opacity:0.25" />
      <path
         id="path10288"
         d="m 189.69,118.88 c -7.674,0 -13.875,6.201 -13.875,13.875 l 0,69.16 c 0,7.674 6.201,13.844 13.875,13.844 l 132.63,0 c 7.674,0 13.844,-6.17 13.844,-13.844 l 0,-69.16 c 0,-7.674 -6.17,-13.875 -13.844,-13.875 l -132.62,0 m 50.688,114.25 0,21.313 -164.53,0 0,54.715 30.375,0 0,-25.75 134.16,0 0,27.563 30.375,0 0,-27.563 133.66,0 0,28.13 30.406,0 0,-57.089 -164.06,0 0,-21.313 -30.375,0 m -185.53,95.84 c -7.674,0 -13.844,6.17 -13.844,13.844 l 0,36.438 c 0,7.674 6.17,13.875 13.844,13.875 l 77.69,0 c 7.674,0 13.844,-6.201 13.844,-13.875 l 0,-36.438 c 0,-7.674 -6.17,-13.844 -13.844,-13.844 l -77.69,0 m 160.81,0 c -7.674,0 -13.844,6.17 -13.844,13.844 l 0,36.438 c 0,7.674 6.17,13.875 13.844,13.875 l 77.66,0 c 7.674,0 13.844,-6.201 13.844,-13.875 l 0,-36.438 c 0,-7.674 -6.17,-13.844 -13.844,-13.844 l -77.66,0 m 163.81,0 c -7.674,0 -13.844,6.17 -13.844,13.844 l 0,36.438 c 0,7.674 6.17,13.875 13.844,13.875 l 77.69,0 c 7.674,0 13.844,-6.201 13.844,-13.875 l 0,-36.438 c 0,-7.674 -6.17,-13.844 -13.844,-13.844 l -77.69,0"
         inkscape:connector-curvature="0"
         style="fill:#ffffff" />
    </g>
  </g>
</svg>
