<?xml version="1.0" encoding="UTF-8" standalone="no"?>
<svg
   xmlns:dc="http://purl.org/dc/elements/1.1/"
   xmlns:cc="http://creativecommons.org/ns#"
   xmlns:rdf="http://www.w3.org/1999/02/22-rdf-syntax-ns#"
   xmlns:svg="http://www.w3.org/2000/svg"
   xmlns="http://www.w3.org/2000/svg"
   xmlns:sodipodi="http://sodipodi.sourceforge.net/DTD/sodipodi-0.dtd"
   xmlns:inkscape="http://www.inkscape.org/namespaces/inkscape"
   viewBox="0 0 512 512"
   id="svg2"
   version="1.1"
   inkscape:version="0.91+devel r13804 custom"
   sodipodi:docname="gnome-music.svg">
  <metadata
     id="metadata10198">
    <rdf:RDF>
      <cc:Work
         rdf:about="">
        <dc:format>image/svg+xml</dc:format>
        <dc:type
           rdf:resource="http://purl.org/dc/dcmitype/StillImage" />
      </cc:Work>
    </rdf:RDF>
  </metadata>
  <defs
     id="defs10196" />
  <sodipodi:namedview
     pagecolor="#ffffff"
     bordercolor="#666666"
     borderopacity="1"
     objecttolerance="10"
     gridtolerance="10"
     guidetolerance="10"
     inkscape:pageopacity="0"
     inkscape:pageshadow="2"
     inkscape:window-width="1366"
     inkscape:window-height="709"
     id="namedview10194"
     showgrid="false"
     inkscape:zoom="0.4609375"
     inkscape:cx="290.71186"
     inkscape:cy="249.49152"
     inkscape:window-x="-2"
     inkscape:window-y="0"
     inkscape:window-maximized="0"
     inkscape:current-layer="svg2" />
  <rect
     y="-0.002507871"
     x="-2.6855469e-06"
     style="fill:#68af4c"
     width="512"
     rx="25.988001"
     height="512"
     id="rect10134" />
  <path
     id="path10190"
     d="m 101.08999,40.99751 c -26.373,0 -47.781,21.424 -47.781,47.781 l 0.002,0.002 c 0.001,13.16699 5.352,25.09999 13.994,33.73799 l 24.941,24.941 c -21.2,31.759 -33.779,69.76 -33.779,110.85 l 0.004,0.004 c 10e-4,43.976 14.09,84.61 38.03,117.66 -24.09,2.449 -43.16,22.524 -43.16,47.25 0,13.192 5.353,25.14 14,33.791 l 54.988,54.988 363.68,0 c 14.397,0 25.988,-11.591 25.988,-25.988 l 0,-354.98 -76.03,-76.02999 c -8.651,-8.651 -20.599,-14 -33.779,-14 l -0.002,0 c -24.299,0 -44.26,18.15 -47.28,41.625 l 78.31,78.30999 c 0.003,0.005 0.005,0.009 0.008,0.014 l -78.32,-78.31999 c -28.622,-15.767 -61.58,-24.656 -96.56,-24.656 l 34.949,34.949 c -0.002,0 -0.004,-0.002 -0.006,-0.002 l -34.953,-34.953 c -34.732,0 -67.39,9.06 -95.8,24.678 l -27.613,-27.613 c 0.067,0.067 0.13,0.139 0.197,0.207 l -0.201,-0.201 c -8.652,-8.652 -20.604,-13.999 -33.791,-14 l -0.002,0 -0.037,-0.039"
     inkscape:connector-curvature="0"
     style="opacity:0.25;fill-rule:evenodd" />
  <path
     id="path10192"
     d="m 101.08999,40.99751 c -26.373,0 -47.781,21.424 -47.781,47.781 0,26.00999 20.873,47.17999 46.75,47.74999 -25.893,33.802 -41.594,75.862 -41.594,121.78 0,43.978 14.09,84.61 38.03,117.66 -24.09,2.449 -43.16,22.524 -43.16,47.25 0,26.373 21.393,47.781 47.75,47.781 25.499,0 45.918,-20.07 47.28,-45.22 31.468,20.748 69.37,32.875 109.97,32.875 35.23,0 68.33,-9.177 97.09,-25.16 4.636,21.521 23.849,37.5 46.75,37.5 26.373,0 47.781,-21.424 47.781,-47.781 0,-20.765 -13.347,-38.1 -31.875,-44.688 25.27,-33.539 40.594,-75.01 40.594,-120.22 0,-46.807 -16.243,-89.7 -43.16,-123.81 19.858,-5.803 34.438,-24 34.438,-45.71899 0,-26.373 -21.424,-47.781 -47.781,-47.781 -24.299,0 -44.26,18.15 -47.28,41.625 -28.622,-15.767 -61.58,-24.656 -96.56,-24.656 -40.43,0 -78.05,12.268 -109.44,32.875 0.033,-0.674 0,-1.373 0,-2.063 0,-26.373 -21.424,-47.75 -47.781,-47.75 l -0.031,-0.031 m 0.031,28.781 c 10.325,0 19,8.724 19,19.03 0,10.325 -8.693,18.46899 -19,18.46899 -10.325,0 -18.5,-8.14399 -18.5,-18.46899 0,-10.325 8.175,-19.03 18.5,-19.03 m 301.09,0 c 10.325,0 19,8.724 19,19.03 0,10.325 -8.693,18.46899 -19,18.46899 -10.325,0 -18.5,-8.14399 -18.5,-18.46899 0,-10.325 8.175,-19.03 18.5,-19.03 m -143.87,19.531 c 93.44,0 169.56,75.59999 169.56,169.02999 0,93.44 -76.12,169.03 -169.56,169.03 -93.44,0 -169,-75.6 -169,-169.03 0,-93.44 75.57,-169.02999 169,-169.02999 m -0.094,27.81299 c -77.96,0 -140.78,63.31 -140.78,141.28 0,77.96 62.798,141.31 140.78,141.31 77.96,0 141.31,-63.35 141.31,-141.31 0,-77.96 -63.35,-141.28 -141.31,-141.28 m 0,62.688 c 43.567,0 79.16,35.03 79.16,78.59 0,43.567 -35.581,79.13 -79.16,79.13 -43.567,0 -78.59,-35.55 -78.59,-79.12 0,-43.567 35.03,-78.59 78.59,-78.59 m 0.344,26.75 c -28.663,0 -51.906,23.24 -51.906,51.906 0,28.663 23.24,51.906 51.906,51.906 28.663,0 51.906,-23.24 51.906,-51.906 0,-28.663 -23.24,-51.906 -51.906,-51.906 m -158.44,197.78 c 0.318,-0.017 0.646,0 0.969,0 10.325,0 19,8.693 19,19 0,10.325 -8.693,18.5 -19,18.5 -10.325,0 -18.5,-8.175 -18.5,-18.5 0,-10 7.665,-18.481 17.531,-19 m 301.09,0 c 0.318,-0.017 0.646,0 0.969,0 10.325,0 19,8.693 19,19 0,10.325 -8.693,18.5 -19,18.5 -10.325,0 -18.5,-8.175 -18.5,-18.5 0,-10 7.665,-18.481 17.531,-19"
     inkscape:connector-curvature="0"
     style="fill:#ffffff;fill-rule:evenodd" />
</svg>
