<?xml version="1.0" encoding="UTF-8" standalone="no"?>
<svg
   xmlns:dc="http://purl.org/dc/elements/1.1/"
   xmlns:cc="http://creativecommons.org/ns#"
   xmlns:rdf="http://www.w3.org/1999/02/22-rdf-syntax-ns#"
   xmlns:svg="http://www.w3.org/2000/svg"
   xmlns="http://www.w3.org/2000/svg"
   xmlns:sodipodi="http://sodipodi.sourceforge.net/DTD/sodipodi-0.dtd"
   xmlns:inkscape="http://www.inkscape.org/namespaces/inkscape"
   viewBox="0 0 512 512"
   id="svg2"
   version="1.1"
   inkscape:version="0.91+devel r13804 custom"
   sodipodi:docname="gnome-aisleriot.svg">
  <metadata
     id="metadata3306">
    <rdf:RDF>
      <cc:Work
         rdf:about="">
        <dc:format>image/svg+xml</dc:format>
        <dc:type
           rdf:resource="http://purl.org/dc/dcmitype/StillImage" />
      </cc:Work>
    </rdf:RDF>
  </metadata>
  <defs
     id="defs3304" />
  <sodipodi:namedview
     pagecolor="#ffffff"
     bordercolor="#666666"
     borderopacity="1"
     objecttolerance="10"
     gridtolerance="10"
     guidetolerance="10"
     inkscape:pageopacity="0"
     inkscape:pageshadow="2"
     inkscape:window-width="1366"
     inkscape:window-height="709"
     id="namedview3302"
     showgrid="false"
     inkscape:zoom="0.4609375"
     inkscape:cx="-8.6779661"
     inkscape:cy="237.55932"
     inkscape:window-x="-2"
     inkscape:window-y="-3"
     inkscape:window-maximized="1"
     inkscape:current-layer="svg2" />
  <g
     id="g6661"
     transform="translate(290.71186,-295.05085)">
    <path
       id="path188"
       d="m -264.71186,295.05085 c -14.397,0 -26,11.603 -26,26 l 0,460 c 0,14.397 11.603,26 26,26 l 460,0 c 14.397,0 26,-11.603 26,-26 l 0,-460 c 0,-14.397 -11.603,-26 -26,-26 l -460,0"
       style="fill:#66aabe"
       inkscape:connector-curvature="0" />
    <path
       id="path2636"
       d="m -254.80586,306.58185 -16.344,16.531 16.344,16.313 16.313,-16.313 -16.313,-16.531 m 64.47,0 -16.344,16.531 16.344,16.313 16.313,-16.313 -16.313,-16.531 m 64.47,0 -16.344,16.531 16.344,16.313 16.313,-16.313 -16.313,-16.531 m 64.499996,0 -16.313,16.531 16.313,16.313 16.344,-16.313 -16.344,-16.531 m 64.4699996,0 -16.3129996,16.531 16.3129996,16.313 16.3440004,-16.313 -16.3440004,-16.531 m 64.5300004,0 -16.344,16.531 16.344,16.313 16.313,-16.313 -16.313,-16.531 m 64.470004,0 -16.281,16.531 16.281,16.313 16.375,-16.313 -16.375,-16.531 m 64.53,0 -16.281,16.531 16.281,16.313 16.375,-16.313 -16.375,-16.531 m -451.44,51.844 -16.344,16.5 16.344,16.313 16.313,-16.313 -16.313,-16.5 m 64.47,0 -16.344,16.5 16.344,16.313 16.313,-16.313 -16.313,-16.5 m 64.47,0 -16.344,16.5 16.344,16.313 16.313,-16.313 -16.313,-16.5 m 64.499996,0 -16.313,16.5 16.313,16.313 16.344,-16.313 -16.344,-16.5 m 64.4699996,0 -16.3129996,16.5 16.3129996,16.313 16.3440004,-16.313 -16.3440004,-16.5 m 64.5300004,0 -16.344,16.5 16.344,16.313 16.313,-16.313 -16.313,-16.5 m 64.470004,0 -16.281,16.5 16.281,16.313 16.375,-16.313 -16.375,-16.5 m 64.53,0 -16.281,16.5 16.281,16.313 16.375,-16.313 -16.375,-16.5 m -451.44,51.813 -16.344,16.531 16.344,16.313 16.313,-16.313 -16.313,-16.531 m 64.47,0 -16.344,16.531 16.344,16.313 16.313,-16.313 -16.313,-16.531 m 64.47,0 -16.344,16.531 16.344,16.313 16.313,-16.313 -16.313,-16.531 m 64.499996,0 -16.313,16.531 16.313,16.313 16.344,-16.313 -16.344,-16.531 m 64.4699996,0 -16.3129996,16.531 16.3129996,16.313 16.3440004,-16.313 -16.3440004,-16.531 m 64.5300004,0 -16.344,16.531 16.344,16.313 16.313,-16.313 -16.313,-16.531 m 64.470004,0 -16.281,16.531 16.281,16.313 16.375,-16.313 -16.375,-16.531 m 64.53,0 -16.281,16.531 16.281,16.313 16.375,-16.313 -16.375,-16.531 m -451.44,51.844 -16.344,16.5 16.344,16.313 16.313,-16.313 -16.313,-16.5 m 64.47,0 -16.344,16.5 16.344,16.313 16.313,-16.313 -16.313,-16.5 m 64.47,0 -16.344,16.5 16.344,16.313 16.313,-16.313 -16.313,-16.5 m 64.499996,0 -16.313,16.5 16.313,16.313 16.344,-16.313 -16.344,-16.5 m 64.4699996,0 -16.3129996,16.5 16.3129996,16.313 16.3440004,-16.313 -16.3440004,-16.5 m 64.5300004,0 -16.344,16.5 16.344,16.313 16.313,-16.313 -16.313,-16.5 m 64.470004,0 -16.281,16.5 16.281,16.313 16.375,-16.313 -16.375,-16.5 m 64.53,0 -16.281,16.5 16.281,16.313 16.375,-16.313 -16.375,-16.5 m -451.44,51.813 -16.344,16.531 16.344,16.313 16.313,-16.313 -16.313,-16.531 m 64.47,0 -16.344,16.531 16.344,16.313 16.313,-16.313 -16.313,-16.531 m 64.47,0 -16.344,16.531 16.344,16.313 16.313,-16.313 -16.313,-16.531 m 64.499996,0 -16.313,16.531 16.313,16.313 16.344,-16.313 -16.344,-16.531 m 64.4699996,0 -16.3129996,16.531 16.3129996,16.313 16.3440004,-16.313 -16.3440004,-16.531 m 64.5300004,0 -16.344,16.531 16.344,16.313 16.313,-16.313 -16.313,-16.531 m 64.470004,0 -16.281,16.531 16.281,16.313 16.375,-16.313 -16.375,-16.531 m 64.53,0 -16.281,16.531 16.281,16.313 16.375,-16.313 -16.375,-16.531 m -451.53,51.938 -16.344,16.344 16.344,16.313 16.531,-16.313 -16.531,-16.344 m 64.47,0 -16.344,16.344 16.344,16.313 16.531,-16.313 -16.531,-16.344 m 64.5,0 -16.313,16.344 16.313,16.313 16.469,-16.313 -16.469,-16.344 m 64.469996,0 -16.313,16.344 16.313,16.313 16.531,-16.313 -16.531,-16.344 m 64.5299996,0 -16.2809996,16.344 16.2809996,16.313 16.4690004,-16.313 -16.4690004,-16.344 m 64.4700004,0 -16.344,16.344 16.344,16.313 16.531,-16.313 -16.531,-16.344 m 64.500004,0 -16.313,16.344 16.313,16.313 16.5,-16.313 -16.5,-16.344 m 64.53,0 -16.375,16.344 16.375,16.313 16.469,-16.313 -16.469,-16.344 m -451.47,51.813 -16.344,16.344 16.344,16.313 16.531,-16.313 -16.531,-16.344 m 64.47,0 -16.344,16.344 16.344,16.313 16.531,-16.313 -16.531,-16.344 m 64.5,0 -16.313,16.344 16.313,16.313 16.469,-16.313 -16.469,-16.344 m 64.469996,0 -16.313,16.344 16.313,16.313 16.531,-16.313 -16.531,-16.344 m 64.5299996,0 -16.2809996,16.344 16.2809996,16.313 16.4690004,-16.313 -16.4690004,-16.344 m 64.4700004,0 -16.344,16.344 16.344,16.313 16.531,-16.313 -16.531,-16.344 m 64.500004,0 -16.313,16.344 16.313,16.313 16.5,-16.313 -16.5,-16.344 m 64.53,0 -16.375,16.344 16.375,16.313 16.469,-16.313 -16.469,-16.344 m -451.47,51.844 -16.344,16.344 16.344,16.313 16.531,-16.313 -16.531,-16.344 m 64.47,0 -16.344,16.344 16.344,16.313 16.531,-16.313 -16.531,-16.344 m 64.5,0 -16.313,16.344 16.313,16.313 16.469,-16.313 -16.469,-16.344 m 64.469996,0 -16.313,16.344 16.313,16.313 16.531,-16.313 -16.531,-16.344 m 64.5299996,0 -16.2809996,16.344 16.2809996,16.313 16.4690004,-16.313 -16.4690004,-16.344 m 64.4700004,0 -16.344,16.344 16.344,16.313 16.531,-16.313 -16.531,-16.344 m 64.500004,0 -16.313,16.344 16.313,16.313 16.5,-16.313 -16.5,-16.344 m 64.53,0 -16.375,16.344 16.375,16.313 16.469,-16.313 -16.469,-16.344 m -451.47,51.813 -16.344,16.313 16.344,16.344 16.531,-16.344 -16.531,-16.313 m 64.56,0 -16.344,16.313 16.344,16.344 16.313,-16.344 -16.313,-16.313 m 64.47,0 -16.344,16.313 16.344,16.344 16.313,-16.344 -16.313,-16.313 m 64.499996,0 -16.313,16.313 16.313,16.344 16.344,-16.344 -16.344,-16.313 m 64.4699996,0 -16.3129996,16.313 16.3129996,16.344 16.3440004,-16.344 -16.3440004,-16.313 m 64.5300004,0 -16.344,16.313 16.344,16.344 16.313,-16.344 -16.313,-16.313 m 64.470004,0 -16.281,16.313 16.281,16.344 16.375,-16.344 -16.375,-16.313 m 64.53,0 -16.281,16.313 16.281,16.344 16.375,-16.344 -16.375,-16.313 m -451.44,51.844 -16.344,16.344 16.344,16.313 16.313,-16.313 -16.313,-16.344 m 64.47,0 -16.344,16.344 16.344,16.313 16.313,-16.313 -16.313,-16.344 m 64.47,0 -16.344,16.344 16.344,16.313 16.313,-16.313 -16.313,-16.344 m 64.499996,0 -16.313,16.344 16.313,16.313 16.344,-16.313 -16.344,-16.344 m 64.4699996,0 -16.3129996,16.344 16.3129996,16.313 16.3440004,-16.313 -16.3440004,-16.344 m 64.5300004,0 -16.344,16.344 16.344,16.313 16.313,-16.313 -16.313,-16.344 m 64.470004,0 -16.281,16.344 16.281,16.313 16.375,-16.313 -16.375,-16.344 m 64.53,0 -16.281,16.344 16.281,16.313 16.375,-16.313 -16.375,-16.344"
       style="fill:#0078ad;fill-rule:evenodd"
       inkscape:connector-curvature="0" />
    <g
       transform="translate(-290.71186,295.05085)"
       id="g3296"
       style="fill-rule:evenodd">
      <path
         id="path3298"
         d="m 282.83,66.28 c -0.341,-0.008 -0.681,-0.003 -1.02,0.016 l -0.004,-0.004 c -0.813,0.044 -1.629,0.18 -2.408,0.367 l 0.004,0.004 c -0.285,0.068 -0.572,0.127 -0.85,0.213 l 13.629,13.629 -0.004,0 -13.631,-13.631 c -4.191,1.301 -7.645,4.664 -8.869,9.234 l 4.365,4.365 -0.006,0 -4.361,-4.361 -1.158,4.359 9.73,9.73 -125.6,0.021 16.11,16.11 c -0.003,0.001 -0.005,0.001 -0.008,0.002 l -16.12,-16.12 c -1.376,0 -2.748,0.192 -3.994,0.578 l 0.002,0.002 c -5.399,1.674 -9.295,6.685 -9.295,12.648 l 0.006,0.006 0,10.662 7.994,7.994 -96.5,25.867 78.37,78.37 c -10e-4,0.001 -0.003,0.001 -0.004,0.002 l -78.37,-78.37 c -7.09,1.9 -11.288,9.09 -9.389,16.184 l 0.002,0.002 72.812,271.74 -0.002,0 c 0.625,2.333 1.83,4.349 3.418,5.938 l 70.15,70.15 298.16,0 c 14.397,0 26,-11.603 26,-26 l 0,-324.03 -44.867,-44.867 c 0.019,0.019 0.036,0.04 0.055,0.059 l -0.057,-0.057 c -1.59,-1.59 -3.612,-2.795 -5.951,-3.422 l 0,0.002 -175.25,-46.967 -0.002,0 0,-0.002 c -1.039,-0.278 -2.072,-0.42 -3.096,-0.443"
         inkscape:connector-curvature="0"
         style="opacity:0.25" />
      <path
         id="path3300"
         d="m 281.81,66.29 c -0.813,0.044 -1.629,0.179 -2.408,0.366 -0.286,0.068 -0.574,0.127 -0.853,0.213 -4.191,1.301 -7.645,4.665 -8.869,9.235 l -1.158,4.359 c 18.313,0.064 36.62,0.082 54.923,-0.061 12.236,-2.287 27.334,2.235 32.13,14.66 1.813,11.634 0.729,23.754 1.341,35.569 0.384,74.55 0.198,149.11 0.03,223.66 -1.013,13.05 2.722,26.65 -1.859,39.23 -1.204,3.656 -3.37,6.525 -6.126,8.717 l 32.552,8.778 c 7.09,1.9 14.315,-2.267 16.215,-9.357 l 72.815,-271.75 c 1.899,-7.09 -2.267,-14.315 -9.357,-16.215 L 285.936,66.726 c -1.385,-0.371 -2.76,-0.5 -4.115,-0.427 m 52.21,23.896 -181.38,0.03 c -1.376,0 -2.747,0.193 -3.993,0.579 -5.4,1.673 -9.296,6.685 -9.296,12.649 l 0,10.668 c 27.28,-7.186 54.55,-14.337 81.65,-22.13 10.355,-3.381 23.14,0.5 28.498,10.302 25.372,88.75 48.1,178.27 72.36,267.33 4.243,8.604 4.742,20.14 -0.244,28.406 l 12.405,-0.03 c 7.341,0 13.259,-5.887 13.259,-13.228 l 0.03,-281.32 c 0,-7.34 -5.948,-13.258 -13.289,-13.258 m -103.99,10.363 c -1.304,-0.049 -2.633,0.101 -3.962,0.457 l -175.22,46.968 c -7.09,1.9 -11.287,9.09 -9.388,16.184 l 72.815,271.75 c 1.9,7.09 9.155,11.257 16.245,9.357 l 175.22,-46.938 c 7.09,-1.9 11.287,-9.155 9.387,-16.245 l -72.815,-271.72 c -1.544,-5.761 -6.633,-9.602 -12.283,-9.814 m -30.845,107.41 c 33.384,-1.244 69.6,49.699 -5.791,121.52 -107.79,-26.1 -94.07,-95.01 -59.709,-104.79 10.519,-2.992 22.98,-0.438 34.472,10.576 5.335,-18.342 17.965,-26.823 31.03,-27.309"
         inkscape:connector-curvature="0"
         style="fill:#ffffff" />
    </g>
  </g>
</svg>
