<?xml version="1.0" encoding="UTF-8" standalone="no"?>
<svg
   xmlns:dc="http://purl.org/dc/elements/1.1/"
   xmlns:cc="http://creativecommons.org/ns#"
   xmlns:rdf="http://www.w3.org/1999/02/22-rdf-syntax-ns#"
   xmlns:svg="http://www.w3.org/2000/svg"
   xmlns="http://www.w3.org/2000/svg"
   xmlns:sodipodi="http://sodipodi.sourceforge.net/DTD/sodipodi-0.dtd"
   xmlns:inkscape="http://www.inkscape.org/namespaces/inkscape"
   viewBox="0 0 512 512"
   id="svg2"
   version="1.1"
   inkscape:version="0.91 r13725"
   sodipodi:docname="gnome-glines.svg">
  <metadata
     id="metadata36">
    <rdf:RDF>
      <cc:Work
         rdf:about="">
        <dc:format>image/svg+xml</dc:format>
        <dc:type
           rdf:resource="http://purl.org/dc/dcmitype/StillImage" />
      </cc:Work>
    </rdf:RDF>
  </metadata>
  <defs
     id="defs34" />
  <sodipodi:namedview
     pagecolor="#ffffff"
     bordercolor="#666666"
     borderopacity="1"
     objecttolerance="10"
     gridtolerance="10"
     guidetolerance="10"
     inkscape:pageopacity="0"
     inkscape:pageshadow="2"
     inkscape:window-width="640"
     inkscape:window-height="480"
     id="namedview32"
     showgrid="false"
     inkscape:zoom="0.5546875"
     inkscape:cx="301.63152"
     inkscape:cy="209.91829"
     inkscape:current-layer="svg2" />
  <path
     inkscape:connector-curvature="0"
     style="fill:#4a4a4a"
     d="m 26,-4.8e-4 c -14.397,0 -26,11.603 -26,26 l 0,460 c 0,14.397 11.603,26 26,26 l 460,0 c 14.397,0 26,-11.603 26,-26 l 0,-460 c 0,-14.397 -11.603,-26 -26,-26 l -460,0"
     id="path4" />
  <path
     inkscape:connector-curvature="0"
     style="opacity:0.25"
     d="m 90.12109,40.99835 c -0.35993,3.1e-4 -0.71878,0.0168 -1.07812,0.0293 -0.81568,0.0226 -1.62659,0.0608 -2.4375,0.11914 a 49.139,49.139 0 0 0 -0.61719,0.0957 c -1.426,0.119 -2.84928,0.23856 -4.23828,0.47656 a 49.139,49.139 0 0 0 -0.11523,0.0371 c -0.78279,0.13667 -1.5604,0.2886 -2.33204,0.45703 -0.7425,0.16208 -1.47958,0.33952 -2.20703,0.53907 -0.0192,0.005 -0.0394,0.008 -0.0586,0.0137 a 49.139,49.139 0 0 0 -0.23828,0.0957 c -1.454,0.406 -2.8872,0.8449 -4.2832,1.3789 a 49.139,49.139 0 0 0 -0.42969,0.19141 c -2.838,1.117 -5.5398,2.4898 -8.0918,4.0918 a 49.139,49.139 0 0 0 -1,0.66796 c -1.168,0.774 -2.33273,1.56074 -3.42773,2.42774 a 49.139,49.139 0 0 0 -0.0937,0.0937 c -1.09,0.869 -2.12963,1.80472 -3.14063,2.76172 a 49.139,49.139 0 0 0 -0.71484,0.66601 c -1.049,1.032 -2.04505,2.11528 -2.99805,3.23828 a 49.139,49.139 0 0 0 -0.1914,0.18946 c -0.969,1.153 -1.85089,2.37718 -2.71289,3.61718 a 49.139,49.139 0 0 0 -0.28516,0.38086 c -3.582,5.255 -6.15266,11.25199 -7.47266,17.70899 a 49.139,49.139 0 0 0 -0.14257,0.80859 c -0.25,1.335 -0.48114,2.67588 -0.61914,4.04688 a 49.139,49.139 0 0 0 0,0.14258 c -0.158,1.606 -0.23829,3.25434 -0.23829,4.90234 a 49.139,49.139 0 0 0 0.0488,2.04687 c 0.063,1.513 0.18291,2.99961 0.37891,4.47461 a 49.139,49.139 0 0 0 0.0957,0.66602 c 0.704,4.79899 2.1038,9.36927 4.0918,13.61327 a 49.139,49.139 0 0 0 0.1914,0.33205 c 0.643,1.34399 1.28793,2.67917 2.04493,3.95117 a 49.139,49.139 0 0 0 0.23828,0.38086 c 0.822,1.34999 1.72201,2.64033 2.66601,3.90234 a 49.139,49.139 0 0 0 0.47657,0.61914 c 0.802,1.039 1.64048,2.07787 2.52148,3.04688 a 49.139,49.139 0 0 0 0.14453,0.14257 c 0.71425,0.77963 1.45965,1.5296 2.2207,2.26368 l 137.12305,137.12304 c -0.16946,0.0263 -0.3408,0.0462 -0.50977,0.0742 a 49.139,49.139 0 0 0 -0.61914,0.14258 c -0.0275,0.005 -0.0546,0.0107 -0.082,0.0156 l -0.0156,-0.0156 c -3.052,0.547 -6.01975,1.3535 -8.84375,2.4375 l 0.0234,0.0234 a 49.139,49.139 0 0 0 -0.35742,0.1582 c -0.0242,0.01 -0.0481,0.0197 -0.0723,0.0293 l -0.0293,-0.0293 c -1.357,0.535 -2.705,1.13225 -4,1.78125 l 0.0293,0.0293 a 49.139,49.139 0 0 0 -0.5918,0.33984 c -0.0235,0.0123 -0.0468,0.0248 -0.0703,0.0371 l -0.0254,-0.0254 c -2.776,1.446 -5.40975,3.1003 -7.84375,5.0293 l 0.041,0.041 a 49.139,49.139 0 0 0 -0.0527,0.0527 c -0.0206,0.0164 -0.04,0.0343 -0.0606,0.0508 l -0.0527,-0.0527 c -2.37,1.889 -4.517,3.99325 -6.5,6.28125 l 0.0508,0.0508 a 49.139,49.139 0 0 0 -0.67188,0.76172 c -0.0146,0.0177 -0.0264,0.037 -0.041,0.0547 l -0.043,-0.043 c -0.815,0.983 -1.54325,2.0195 -2.28125,3.0625 l 0.0332,0.0332 a 49.139,49.139 0 0 0 -0.47656,0.60546 c -0.0151,0.0222 -0.0279,0.0461 -0.043,0.0684 l -0.0508,-0.0508 c -1.712,2.515 -3.21045,5.21325 -4.43945,8.03125 l 0.0723,0.0723 a 49.139,49.139 0 0 0 -0.1543,0.34765 l 0,0.0469 a 49.139,49.139 0 0 0 -0.0215,0.0508 l -0.084,-0.084 0,0.0625 0.0644,0.0645 a 49.139,49.139 0 0 0 -0.1034,0.23824 c -0.0102,0.0246 -0.0192,0.0496 -0.0293,0.0742 l -0.0684,-0.0684 c -1.175,2.838 -2.08875,5.799 -2.71875,8.875 l 0.082,0.082 a 49.139,49.139 0 0 0 -0.0723,0.4082 c -0.006,0.0328 -0.0113,0.0667 -0.0176,0.0996 l -0.082,-0.082 c -0.277,1.433 -0.50625,2.901 -0.65625,4.375 l 0.0899,0.0899 c -0.003,0.0338 -0.005,0.0677 -0.008,0.10156 l -0.10156,-0.10156 c -0.161,1.621 -0.25,3.24325 -0.25,4.90625 l 0.12305,0.12304 a 49.139,49.139 0 0 0 0.0449,2.38672 c 0.003,0.0558 0.0107,0.11025 0.0137,0.16602 l -0.14453,-0.14453 c 0.408,8.2 2.83625,15.87225 6.78125,22.53125 l 0.33008,0.33007 a 49.139,49.139 0 0 0 0.0644,0.10743 c 0.0828,0.13619 0.17372,0.26697 0.25781,0.40234 l -0.36914,-0.36914 c 1.642,2.702 3.5393,5.23645 5.6543,7.56445 l 0.15234,0.1543 c 0.52002,0.567 1.05271,1.12301 1.59571,1.66601 l 0.16406,0.16407 c -0.055,-0.054 -0.11297,-0.10616 -0.16797,-0.16016 l 165.80469,165.80664 154.15039,0 c 4.04916,0 7.8779,-0.91894 11.28906,-2.55859 0.26802,-0.12883 0.53019,-0.26665 0.79297,-0.4043 0.0932,-0.0491 0.18875,-0.0944 0.28125,-0.14453 8.10597,-4.39424 13.58985,-12.9712 13.58984,-22.86914 l 0,-135 -41.00976,-41.01953 a 49.139,49.139 0 0 0 -0.004,-0.11328 l 41.04493,41.04492 0,-18.96289 -54.7793,-54.7793 c -0.50033,-0.52029 -1.01065,-1.03139 -1.5332,-1.5293 L 347.3457,167.33819 c -0.91743,-0.9904 -1.87735,-1.94146 -2.87304,-2.85351 L 237.5332,57.54522 c -0.17518,-0.19692 -0.34315,-0.39937 -0.52148,-0.59375 a 49.139,49.139 0 0 0 -0.52344,-0.52343 c -0.949,-1 -1.92217,-1.9833 -2.95117,-2.9043 a 49.139,49.139 0 0 0 -0.33203,-0.28516 c -5.982,-5.253 -13.25635,-9.09121 -21.27735,-10.94921 a 49.139,49.139 0 0 0 -0.1914,-0.0469 c -1.508,-0.343 -3.06019,-0.6076 -4.61719,-0.8086 a 49.139,49.139 0 0 0 -0.28516,0 c -1.526,-0.187 -3.05118,-0.33686 -4.61718,-0.38086 a 49.139,49.139 0 0 0 -0.0937,0 c -0.445,-0.012 -0.88599,-0.0469 -1.33399,-0.0469 l -0.008,-0.002 c -1.168,0 -2.32761,0.0616 -3.47461,0.14258 a 49.139,49.139 0 0 0 -0.57226,0.0488 c -0.69615,0.0569 -1.3835,0.12069 -2.06641,0.19922 -0.68826,0.0769 -1.37144,0.16715 -2.05859,0.28125 l 0.01,0.01 a 49.139,49.139 0 0 0 -0.54883,0.1289 c -0.0301,0.005 -0.0598,0.0122 -0.0898,0.0176 l -0.002,-0.002 c -1.446,0.259 -2.88225,0.5535 -4.28125,0.9375 l 0.0176,0.0176 a 49.139,49.139 0 0 0 -0.26172,0.0742 c -0.0242,0.007 -0.048,0.0146 -0.0723,0.0215 l -0.0215,-0.0215 c -1.438,0.404 -2.83775,0.87825 -4.21876,1.40625 l 0.006,0.006 a 49.139,49.139 0 0 0 -0.35742,0.15821 c -0.0297,0.0117 -0.0583,0.0254 -0.0879,0.0371 l -0.006,-0.006 c -2.838,1.118 -5.54175,2.49075 -8.09375,4.09375 l 0.0195,0.0195 a 49.139,49.139 0 0 0 -0.92382,0.61523 c -0.0235,0.0155 -0.0469,0.0313 -0.0703,0.0469 l -0.0215,-0.0215 c -1.168,0.773 -2.31125,1.5685 -3.40625,2.4375 l 0.0176,0.0176 a 49.139,49.139 0 0 0 -0.043,0.043 c -0.026,0.0207 -0.0503,0.0437 -0.0762,0.0645 l -0.0273,-0.0273 c -1.09,0.869 -2.113,1.793 -3.125,2.75 l 0.0273,0.0293 a 49.139,49.139 0 0 0 -0.6543,0.61133 c -0.0187,0.0184 -0.036,0.0382 -0.0547,0.0566 l -0.0332,-0.0332 c -1.048,1.032 -2.047,2.128 -3,3.25 l 0.0254,0.0254 a 49.139,49.139 0 0 0 -0.12695,0.12695 c -0.0176,0.0209 -0.0332,0.0435 -0.0508,0.0645 l -0.0391,-0.0391 c -0.969,1.153 -1.85675,2.385 -2.71875,3.625 l 0.041,0.041 a 49.139,49.139 0 0 0 -0.23047,0.30664 c -0.0162,0.0237 -0.0308,0.0485 -0.0469,0.0723 l -0.0449,-0.0449 c -3.582,5.262 -6.14775,11.26375 -7.46875,17.71875 l 0.0684,0.0684 a 49.139,49.139 0 0 0 -0.0762,0.41797 c -0.006,0.0305 -0.01,0.0613 -0.0156,0.0918 l -0.0703,-0.0703 c -0.123,0.638 -0.23198,1.27883 -0.33398,1.92383 l -27.20113,-27.1992 c -0.12272,-0.12271 -0.25491,-0.23607 -0.37891,-0.35742 -0.56504,-0.56642 -1.13916,-1.12423 -1.73633,-1.6582 a 49.139,49.139 0 0 0 -0.38086,-0.33399 c -1.1,-0.963 -2.24373,-1.89772 -3.42773,-2.76172 a 49.139,49.139 0 0 0 -0.19141,-0.14257 c -5.183,-3.743 -11.13636,-6.5001 -17.56836,-7.9961 a 49.139,49.139 0 0 0 -0.38086,-0.0469 c -1.47098,-0.331 -2.95761,-0.61259 -4.47461,-0.80859 a 49.139,49.139 0 0 0 -0.18945,0 c -1.536,-0.2 -3.11417,-0.34172 -4.70117,-0.38672 a 49.139,49.139 0 0 0 -0.0957,0 c -0.42285,-0.0114 -0.84252,-0.0418 -1.26758,-0.0449 l 0.002,-0.008 -0.0293,0 z m 331.72071,0.006 c -1.158,0 -2.33857,0.0636 -3.47657,0.14258 a 49.139,49.139 0 0 0 -0.57031,0.0488 c -1.464,0.119 -2.90603,0.27843 -4.33203,0.52343 a 49.139,49.139 0 0 0 -0.23828,0.0469 c -1.44,0.254 -2.84238,0.57618 -4.23438,0.95118 a 49.139,49.139 0 0 0 -0.80859,0.23828 c -1.322,0.382 -2.6303,0.79615 -3.9043,1.28515 a 49.139,49.139 0 0 0 -0.42773,0.19141 c -2.967,1.168 -5.82066,2.63603 -8.47266,4.33203 a 49.139,49.139 0 0 0 -0.1914,0.0957 c -1.34,0.865 -2.61047,1.77277 -3.85547,2.75977 a 49.139,49.139 0 0 0 -0.0937,0.0957 c -1.049,0.836 -2.06892,1.74801 -3.04492,2.66601 A 49.139,49.139 0 0 0 387,55.57072 c -2.081,2.095 -3.98606,4.36664 -5.66406,6.80664 a 49.139,49.139 0 0 0 -0.0977,0.0957 c -2.659,3.88899 -4.77337,8.17581 -6.23437,12.75781 a 49.139,49.139 0 0 0 -0.28711,0.99804 c -0.003,0.009 -0.005,0.0183 -0.008,0.0273 l -0.006,-0.006 c -0.30482,1.03096 -0.5654,2.0747 -0.80273,3.12696 -0.38553,1.6798 -0.69657,3.38585 -0.89648,5.13476 a 49.139,49.139 0 0 0 -0.14258,2.14258 c -0.082,1.163 -0.19141,2.33653 -0.19141,3.51953 a 49.139,49.139 0 0 0 0.0957,2.57032 c 5.2e-4,0.01 8.8e-4,0.0195 0.002,0.0293 l -0.004,-0.004 c 0.156,3.03 0.59925,5.98076 1.28125,8.84374 l 0.0176,0.0176 a 49.139,49.139 0 0 0 0.13281,0.57813 c 0.003,0.0118 0.007,0.0232 0.01,0.0352 l -0.002,-0.002 c 0.77,3.054 1.81401,5.954 3.125,8.75 l 0.0352,0.0352 a 49.139,49.139 0 0 0 0.11719,0.27344 c 0.009,0.0191 0.0201,0.0375 0.0293,0.0566 l -0.0274,-0.0273 c 0.637,1.332 1.34375,2.64425 2.09375,3.90625 l 0.041,0.041 a 49.139,49.139 0 0 0 0.19726,0.35547 c 0.021,0.0345 0.0434,0.0671 0.0645,0.10157 l -0.084,-0.084 c 0.821,1.351 1.682,2.64525 2.625,3.90625 l 0.10352,0.10547 c 0.919,1.223 1.87039,2.41197 2.89844,3.54297 l 0.15039,0.15234 c 0.507,0.553 1.02664,1.095 1.55664,1.625 l 0.004,0.006 c 0.012,0.012 0.0251,0.0232 0.0371,0.0352 l 124.81055,124.81055 0,-12.84766 0.0195,0.0176 0,-122.54297 -0.0156,-0.0137 0,-3.58203 -53.88282,-53.88477 -0.0137,-0.0137 c -0.006,-0.006 -0.01,-0.0134 -0.0156,-0.0195 a 49.139,49.139 0 0 0 -0.47071,-0.41406 c -6.53,-6.93 -15.01937,-12.01042 -24.60937,-14.23242 a 49.139,49.139 0 0 0 -0.19141,-0.0469 c -1.508,-0.343 -3.05823,-0.6076 -4.61523,-0.8086 a 49.139,49.139 0 0 0 -0.28711,0 c -1.526,-0.187 -3.05119,-0.33686 -4.61719,-0.38086 a 49.139,49.139 0 0 0 -0.0937,0 c -0.445,-0.012 -0.88598,-0.0469 -1.33398,-0.0469 l -0.0117,-0.0137 z M 90.08008,372.7171 c -0.0651,0 -0.12845,0.002 -0.19336,0.002 -0.51906,-0.002 -1.03727,-0.0124 -1.54883,0 l 0.0449,0.0156 c -0.59332,0.0136 -1.18484,0.0365 -1.77734,0.0781 a 49.139,49.139 0 0 0 -0.48633,0.043 c -0.008,6.3e-4 -0.0156,8.5e-4 -0.0234,0.002 a 49.139,49.139 0 0 0 -0.0137,0.002 c -1.459,0.117 -2.91103,0.32926 -4.33203,0.57226 a 49.139,49.139 0 0 0 -0.18945,0.0469 c -1.562,0.273 -3.10919,0.582 -4.61719,1 a 49.139,49.139 0 0 0 -0.14453,0.0469 c -0.71186,0.1995 -1.41749,0.42425 -2.11719,0.66211 -0.11427,0.0389 -0.22595,0.0815 -0.33984,0.1211 -0.59317,0.20143 -1.18431,0.40797 -1.76368,0.6289 l 0.008,0.008 c -0.008,0.003 -0.0158,0.005 -0.0234,0.008 a 49.139,49.139 0 0 0 -0.44336,0.17773 l -0.006,-0.006 c -0.57551,0.22659 -1.13922,0.4678 -1.70117,0.71289 -0.78308,0.33643 -1.55783,0.68682 -2.32422,1.07617 a 49.139,49.139 0 0 0 -0.40234,0.22266 l -0.0137,-0.0137 c -2.858,1.47 -5.59575,3.2065 -8.09375,5.1875 l 0.0117,0.0117 c -0.008,0.006 -0.0158,0.0115 -0.0234,0.0176 a 49.139,49.139 0 0 0 -0.0723,0.0723 l -0.008,-0.008 c -1.6062,1.28021 -3.10177,2.66662 -4.52148,4.13476 -0.68897,0.70845 -1.36497,1.42926 -2.01368,2.17774 a 49.139,49.139 0 0 0 -0.68554,0.7793 l -0.002,-0.002 c -0.009,0.0108 -0.0165,0.0224 -0.0254,0.0332 -0.0157,0.019 -0.0293,0.0395 -0.0449,0.0586 -0.79701,0.96518 -1.51754,1.96063 -2.24024,2.98633 a 49.139,49.139 0 0 0 -0.50195,0.64062 l -0.002,-0.002 c -0.003,0.005 -0.007,0.009 -0.01,0.0137 a 49.139,49.139 0 0 0 -0.01,0.0137 c -3.582,5.255 -6.1507,11.25099 -7.4707,17.70899 a 49.139,49.139 0 0 0 -0.14453,0.90429 c -0.17702,0.95427 -0.33839,1.92838 -0.47266,2.90625 -0.0496,0.35668 -0.10813,0.7129 -0.14453,1.07032 l 0.002,0.002 c -7.3e-4,0.007 -10e-4,0.0144 -0.002,0.0215 a 49.139,49.139 0 0 0 0,0.0937 c -4.6e-4,0.005 -10e-4,0.009 -0.002,0.0137 l -0.0137,-0.0137 c -0.12878,1.29655 -0.17927,2.59816 -0.19922,3.91602 -0.006,0.3298 -0.0234,0.65522 -0.0234,0.98828 a 49.139,49.139 0 0 0 0.0469,2.04688 c 5e-5,0.001 -5e-5,0.003 0,0.004 l -0.0195,-0.0195 -0.006,-0.004 c 0.061,1.492 0.183,2.9815 0.375,4.4375 l 0.0352,0.0352 a 49.139,49.139 0 0 0 0.13672,0.82031 l -0.006,-0.006 -0.002,-0.004 c 1.471,9.816 5.81345,18.70375 12.18945,25.71875 l 0.0605,0.0625 a 49.139,49.139 0 0 0 0.61328,0.65429 c 0.16501,0.17444 0.3367,0.34162 0.50391,0.51368 l -0.51953,-0.51954 c 0.216,0.22801 0.43425,0.45379 0.65625,0.67579 l 0.23828,0.23828 c -0.08,-0.079 -0.16609,-0.15342 -0.24609,-0.23242 l 55.72656,55.72851 14.27929,0 -41.45312,-41.45508 a 49.139,49.139 0 0 0 0.0234,0.006 l 41.44336,41.44336 6.04101,0 -40.97461,-40.97461 0.006,0 40.98047,40.98047 80.8457,0 21.03321,0 0,-0.002 16.77929,0 -125.15005,-125.15053 c -0.571,-0.571 -1.15776,-1.12702 -1.75976,-1.66602 l 0.36133,0.36133 c -0.12461,-0.11412 -0.2432,-0.23508 -0.36915,-0.34766 a 49.139,49.139 0 0 0 -0.61914,-0.47656 l -0.002,-0.002 c -0.55568,-0.48107 -1.12208,-0.94983 -1.69922,-1.40625 -0.001,-8.9e-4 -0.003,-9e-4 -0.004,-0.002 -0.57717,-0.45637 -1.16396,-0.90124 -1.76172,-1.33204 -0.001,-8.4e-4 -0.003,-8.5e-4 -0.004,-0.002 -0.59662,-0.4299 -1.20208,-0.84844 -1.81836,-1.25195 -0.002,-0.002 -0.005,-0.002 -0.008,-0.004 -1.23725,-0.81044 -2.51461,-1.56543 -3.82617,-2.26367 -1.96029,-1.0436 -3.99907,-1.95977 -6.10938,-2.73242 a 49.139,49.139 0 0 0 -0.47461,-0.19141 c -0.006,-0.002 -0.0132,-0.004 -0.0195,-0.006 -0.16699,-0.0593 -0.33724,-0.12578 -0.50586,-0.18359 a 49.139,49.139 0 0 0 -0.0254,-0.006 49.139,49.139 0 0 0 -0.33203,-0.084 l -0.0312,-0.0312 c -2.741,-0.912 -5.569,-1.582 -8.5,-2 l 0.0332,0.0332 c -0.0151,-0.002 -0.0298,-0.006 -0.0449,-0.008 a 49.139,49.139 0 0 0 -1.20703,-0.18555 l -0.0332,-0.0332 c -1.266,-0.148 -2.5517,-0.23229 -3.8457,-0.28124 l 0.004,0.002 0.0254,0.0254 c -0.0117,-4.6e-4 -0.0234,-0.002 -0.0352,-0.002 a 49.139,49.139 0 0 0 -1.18946,-0.0488 c -0.008,-1.3e-4 -0.0156,1.1e-4 -0.0234,0 l -0.004,-0.004 c -0.236,-0.003 -0.44268,0 -0.67968,0 l -0.008,0 0,-0.002 z"
     id="path3749" />
  <path
     inkscape:connector-curvature="0"
     style="fill:#79c943"
     d="m 90.081,41.00352 c -1.174,0 -2.321,0.061 -3.475,0.144 a 49.139,49.139 0 0 0 -0.61867,0.0951 c -1.426,0.119 -2.848,0.238 -4.237,0.476 a 49.139,49.139 0 0 0 -0.14363,0.0475 c -1.543,0.268 -3.079,0.59 -4.57,1 a 49.139,49.139 0 0 0 -0.23804,0.0951 c -1.454,0.406 -2.888,0.846 -4.284,1.38 a 49.139,49.139 0 0 0 -0.42827,0.1904 c -2.838,1.117 -5.54,2.491 -8.092,4.093 A 49.139,49.139 0 0 0 62.99493,49.191 c -1.168,0.774 -2.333,1.561 -3.428,2.428 a 49.139,49.139 0 0 0 -0.0946,0.0951 c -1.09,0.869 -2.13,1.804 -3.141,2.761 a 49.139,49.139 0 0 0 -0.71413,0.66636 c -1.049,1.032 -2.046,2.114 -2.999,3.237 a 49.139,49.139 0 0 0 -0.1904,0.1904 c -0.969,1.153 -1.851,2.377 -2.713,3.617 a 49.139,49.139 0 0 0 -0.28534,0.3808 c -3.582,5.255 -6.152,11.252 -7.472,17.709 a 49.139,49.139 0 0 0 -0.14363,0.80917 c -0.25,1.335 -0.48,2.675 -0.618,4.046 a 49.139,49.139 0 0 0 0,0.14276 c -0.158,1.606 -0.238,3.255 -0.238,4.903 a 49.139,49.139 0 0 0 0.0473,2.0467 c 0.063,1.513 0.184,2.999 0.38,4.474 a 49.139,49.139 0 0 0 0.0946,0.66638 c 0.704,4.799 2.105,9.369 4.093,13.613 a 49.139,49.139 0 0 0 0.1904,0.33318 c 0.643,1.344 1.289,2.678 2.046,3.95 a 49.139,49.139 0 0 0 0.23804,0.38078 c 0.822,1.35 1.722,2.641 2.666,3.903 a 49.139,49.139 0 0 0 0.47608,0.61877 c 0.802,1.039 1.641,2.077 2.522,3.046 a 49.139,49.139 0 0 0 0.14363,0.14276 c 1.016,1.109 2.076,2.177 3.19,3.19 a 49.139,49.139 0 0 0 0.80906,0.71399 c 2.267,1.971 4.728,3.75 7.33,5.29 a 49.139,49.139 0 0 0 0.0946,0.0475 c 1.382,0.809 2.82,1.515 4.284,2.19 a 49.139,49.139 0 0 0 0.0473,0.0475 c 1.326,0.61 2.659,1.175 4.046,1.666 a 49.139,49.139 0 0 0 0.90453,0.28558 c 4.334,1.442 8.933,2.302 13.708,2.475 a 49.139,49.139 0 0 0 1.0948,0.0475 c 0.24,0.004 0.475,0 0.715,0 1.168,0 2.328,-0.016 3.475,-0.095 a 49.139,49.139 0 0 0 0.47608,-0.0475 c 1.501,-0.119 2.967,-0.321 4.426,-0.571 a 49.139,49.139 0 0 0 0.33333,-0.0951 c 3.139,-0.562 6.19,-1.394 9.09,-2.522 a 49.139,49.139 0 0 0 0.1904,-0.0951 c 1.457,-0.575 2.897,-1.198 4.284,-1.904 a 49.139,49.139 0 0 0 0.38079,-0.23799 c 2.796,-1.456 5.453,-3.148 7.901,-5.094 a 49.139,49.139 0 0 0 0.0473,-0.0475 c 2.542,-2.027 4.903,-4.276 6.998,-6.759 a 49.139,49.139 0 0 0 0.33315,-0.42839 c 0.928,-1.124 1.79,-2.268 2.619,-3.475 a 49.139,49.139 0 0 0 0.1904,-0.28559 c 0.851,-1.259 1.647,-2.564 2.38,-3.903 a 49.139,49.139 0 0 0 0.0946,-0.14276 c 2.293,-4.22 3.973,-8.811 4.95,-13.661 a 49.139,49.139 0 0 0 0.0473,-0.38078 c 0.587,-3.039 0.904,-6.167 0.904,-9.376 a 49.139,49.139 0 0 0 -0.0473,-2.5227 c -0.42,-8.301 -2.909,-16.09 -6.949,-22.806 a 49.139,49.139 0 0 0 -0.0946,-0.1904 c -1.683,-2.769 -3.628,-5.335 -5.807,-7.71 a 49.139,49.139 0 0 0 -0.52355,-0.52357 c -0.949,-1 -1.921,-1.983 -2.951,-2.904 a 49.139,49.139 0 0 0 -0.38062,-0.33319 c -1.1,-0.963 -2.244,-1.897 -3.428,-2.761 a 49.139,49.139 0 0 0 -0.1904,-0.14276 c -5.183,-3.743 -11.137,-6.5 -17.569,-7.996 a 49.139,49.139 0 0 0 -0.3808,-0.0475 c -1.471,-0.331 -2.957,-0.613 -4.474,-0.809 a 49.139,49.139 0 0 0 -0.19022,0 c -1.536,-0.2 -3.114,-0.342 -4.701,-0.387 a 49.139,49.139 0 0 0 -0.0963,0 c -0.445,-0.012 -0.885,-0.047 -1.333,-0.047 z"
     id="path8" />
  <path
     inkscape:connector-curvature="0"
     style="fill:#d23638"
     d="m 200.781,41.00352 c -1.168,0 -2.328,0.063 -3.475,0.144 a 49.139,49.139 0 0 0 -0.5712,0.0475 c -1.371,0.112 -2.708,0.254 -4.046,0.476 a 49.139,49.139 0 0 0 -0.61884,0.14276 c -1.447,0.259 -2.885,0.569 -4.284,0.951 a 49.139,49.139 0 0 0 -0.33333,0.0951 c -1.438,0.405 -2.855,0.851 -4.235,1.38 a 49.139,49.139 0 0 0 -0.42844,0.19038 c -2.838,1.117 -5.54,2.491 -8.092,4.093 a 49.139,49.139 0 0 0 -0.99964,0.66636 c -1.168,0.774 -2.333,1.561 -3.428,2.428 a 49.139,49.139 0 0 0 -0.0963,0.0951 c -1.089,0.869 -2.13,1.804 -3.141,2.761 a 49.139,49.139 0 0 0 -0.71413,0.66638 c -1.049,1.032 -2.046,2.114 -2.999,3.237 a 49.139,49.139 0 0 0 -0.19039,0.1904 c -0.969,1.153 -1.851,2.377 -2.713,3.617 a 49.139,49.139 0 0 0 -0.28569,0.38078 c -3.582,5.255 -6.152,11.252 -7.472,17.709 a 49.139,49.139 0 0 0 -0.0946,0.52357 c -0.277,1.429 -0.517,2.86 -0.666,4.332 a 49.139,49.139 0 0 0 0,0.14276 c -0.159,1.606 -0.238,3.254 -0.238,4.903 a 49.139,49.139 0 0 0 0.0473,2.5703 c 0.424,8.199 2.848,15.869 6.807,22.513 a 49.139,49.139 0 0 0 0.23805,0.38078 c 0.821,1.35 1.722,2.641 2.666,3.903 a 49.139,49.139 0 0 0 0.47609,0.61877 c 0.802,1.039 1.641,2.077 2.522,3.046 a 49.139,49.139 0 0 0 0.14363,0.14275 c 1.018,1.109 2.076,2.177 3.19,3.19 a 49.139,49.139 0 0 0 0.85688,0.76157 c 2.251,1.951 4.7,3.715 7.283,5.236 a 49.139,49.139 0 0 0 0.0963,0.0475 c 2.65,1.554 5.44,2.862 8.378,3.903 a 49.139,49.139 0 0 0 0.90435,0.28558 c 4.333,1.442 8.933,2.302 13.708,2.475 a 49.139,49.139 0 0 0 1.0948,0.0475 c 0.24,0.004 0.475,0 0.715,0 1.174,0 2.321,-0.014 3.475,-0.095 a 49.139,49.139 0 0 0 0.52373,-0.0475 c 1.459,-0.117 2.911,-0.328 4.332,-0.571 a 49.139,49.139 0 0 0 0.14363,-0.0475 c 3.223,-0.561 6.355,-1.414 9.329,-2.57 a 49.139,49.139 0 0 0 0.1904,-0.0951 c 1.457,-0.575 2.897,-1.198 4.284,-1.904 a 49.139,49.139 0 0 0 0.3808,-0.23799 c 2.797,-1.456 5.453,-3.148 7.901,-5.094 a 49.139,49.139 0 0 0 0.0473,-0.0475 c 2.542,-2.027 4.903,-4.276 6.998,-6.759 a 49.139,49.139 0 0 0 0.33316,-0.42839 c 0.928,-1.124 1.792,-2.268 2.619,-3.475 a 49.139,49.139 0 0 0 0.1904,-0.2856 c 0.851,-1.259 1.647,-2.564 2.38,-3.903 a 49.139,49.139 0 0 0 0.0946,-0.14275 c 2.293,-4.22 3.973,-8.811 4.95,-13.661 a 49.139,49.139 0 0 0 0.0946,-0.76156 c 0.541,-2.92 0.857,-5.919 0.857,-8.996 a 49.139,49.139 0 0 0 -0.0473,-2.0467 c -0.067,-1.643 -0.203,-3.305 -0.429,-4.903 a 49.139,49.139 0 0 0 -0.0946,-0.57118 c -0.983,-6.435 -3.2,-12.443 -6.425,-17.802 a 49.139,49.139 0 0 0 -0.0946,-0.19038 c -1.683,-2.769 -3.628,-5.335 -5.807,-7.71 a 49.139,49.139 0 0 0 -0.52338,-0.52359 c -0.949,-1 -1.922,-1.983 -2.951,-2.904 a 49.139,49.139 0 0 0 -0.33332,-0.28558 c -5.982,-5.253 -13.256,-9.09 -21.277,-10.948 a 49.139,49.139 0 0 0 -0.1904,-0.0475 c -1.508,-0.343 -3.06,-0.608 -4.617,-0.809 a 49.139,49.139 0 0 0 -0.28551,0 c -1.526,-0.187 -3.051,-0.336 -4.617,-0.38 a 49.139,49.139 0 0 0 -0.0946,0 c -0.445,-0.012 -0.885,-0.047 -1.333,-0.047 z"
     id="path10" />
  <path
     inkscape:connector-curvature="0"
     style="fill:#1086bc"
     d="m 421.841,41.00352 c -1.158,0 -2.337,0.065 -3.475,0.144 a 49.139,49.139 0 0 0 -0.5712,0.0475 c -1.464,0.119 -2.906,0.279 -4.332,0.524 a 49.139,49.139 0 0 0 -0.23804,0.0475 c -1.44,0.254 -2.843,0.576 -4.235,0.951 a 49.139,49.139 0 0 0 -0.80906,0.23799 c -1.322,0.382 -2.629,0.797 -3.903,1.286 a 49.139,49.139 0 0 0 -0.42844,0.19038 c -2.967,1.168 -5.821,2.636 -8.473,4.332 a 49.139,49.139 0 0 0 -0.19022,0.0951 c -1.34,0.865 -2.61,1.774 -3.855,2.761 a 49.139,49.139 0 0 0 -0.0946,0.0951 c -1.049,0.836 -2.07,1.748 -3.046,2.666 a 49.139,49.139 0 0 0 -1.19,1.19 c -2.081,2.095 -3.987,4.367 -5.665,6.807 a 49.139,49.139 0 0 0 -0.0963,0.0951 c -2.659,3.889 -4.775,8.175 -6.236,12.757 a 49.139,49.139 0 0 0 -0.28551,0.99957 c -0.793,2.682 -1.387,5.43 -1.713,8.282 a 49.139,49.139 0 0 0 -0.14363,2.1419 c -0.082,1.163 -0.191,2.338 -0.191,3.521 a 49.139,49.139 0 0 0 0.0963,2.5703 c 0.156,3.034 0.603,5.99 1.286,8.846 a 49.139,49.139 0 0 0 0.14363,0.61877 c 0.769,3.053 1.83,5.962 3.141,8.758 a 49.139,49.139 0 0 0 0.14363,0.33319 c 0.636,1.331 1.345,2.641 2.095,3.903 a 49.139,49.139 0 0 0 0.23804,0.42837 c 0.82,1.35 1.675,2.641 2.619,3.903 a 49.139,49.139 0 0 0 0.0473,0.0475 c 0.932,1.242 1.908,2.47 2.951,3.617 a 49.139,49.139 0 0 0 0.14363,0.14275 c 1.102,1.202 2.261,2.34 3.475,3.428 a 49.139,49.139 0 0 0 0.14363,0.14275 c 2.356,2.091 4.936,3.957 7.663,5.568 a 49.139,49.139 0 0 0 0.66648,0.33319 c 2.508,1.433 5.141,2.687 7.901,3.664 a 49.139,49.139 0 0 0 0.90435,0.28559 c 4.33,1.44 8.889,2.3 13.661,2.475 a 49.139,49.139 0 0 0 1.0948,0.0475 c 0.25,0.004 0.51,0 0.762,0 1.174,0 2.321,-0.014 3.475,-0.095 a 49.139,49.139 0 0 0 0.52355,-0.0475 c 1.459,-0.117 2.911,-0.328 4.332,-0.571 a 49.139,49.139 0 0 0 0.14363,-0.0475 c 3.228,-0.562 6.35,-1.41 9.329,-2.57 a 49.139,49.139 0 0 0 0.3808,-0.1904 c 1.389,-0.555 2.771,-1.135 4.094,-1.809 a 49.139,49.139 0 0 0 0.47591,-0.28558 c 2.757,-1.445 5.341,-3.125 7.758,-5.04 a 49.139,49.139 0 0 0 0.0473,-0.0475 c 2.54,-2.025 4.903,-4.277 6.998,-6.759 a 49.139,49.139 0 0 0 0.33316,-0.42839 c 0.928,-1.124 1.839,-2.268 2.666,-3.475 a 49.139,49.139 0 0 0 0.1904,-0.2856 c 0.855,-1.266 1.643,-2.557 2.38,-3.903 a 49.139,49.139 0 0 0 0.0473,-0.14275 c 3.782,-6.963 5.95,-14.938 5.95,-23.419 a 49.139,49.139 0 0 0 -0.0473,-2.0467 c -0.067,-1.643 -0.203,-3.305 -0.429,-4.903 a 49.139,49.139 0 0 0 -0.0946,-0.57118 c -0.221,-1.447 -0.513,-2.834 -0.857,-4.235 a 49.139,49.139 0 0 0 -0.14363,-0.52359 c -0.366,-1.424 -0.797,-2.818 -1.286,-4.188 a 49.139,49.139 0 0 0 -0.14363,-0.42839 c -0.515,-1.405 -1.077,-2.799 -1.713,-4.141 a 49.139,49.139 0 0 0 -0.14363,-0.28558 c -2.105,-4.368 -4.801,-8.366 -8.04,-11.9 a 49.139,49.139 0 0 0 -0.47,-0.414 c -6.53,-6.93 -15.02,-12.01 -24.61,-14.232 a 49.139,49.139 0 0 0 -0.1904,-0.0475 c -1.508,-0.343 -3.06,-0.608 -4.617,-0.809 a 49.139,49.139 0 0 0 -0.28568,0 c -1.526,-0.187 -3.051,-0.336 -4.617,-0.38 a 49.139,49.139 0 0 0 -0.0946,0 c -0.445,-0.012 -0.885,-0.047 -1.333,-0.047 z"
     id="path12" />
  <path
     inkscape:connector-curvature="0"
     style="fill:#79c943"
     d="m 200.781,151.57752 c -1.168,0 -2.328,0.063 -3.475,0.144 a 49.139,49.139 0 0 0 -0.5712,0.0475 c -1.371,0.112 -2.708,0.254 -4.046,0.476 a 49.139,49.139 0 0 0 -0.61884,0.14275 c -1.447,0.259 -2.885,0.569 -4.284,0.951 a 49.139,49.139 0 0 0 -0.33333,0.0951 c -1.438,0.405 -2.855,0.851 -4.235,1.38 a 49.139,49.139 0 0 0 -0.42844,0.19038 c -1.357,0.534 -2.703,1.112 -3.999,1.769 a 49.139,49.139 0 0 0 -0.66631,0.38078 c -1.245,0.648 -2.438,1.345 -3.617,2.095 a 49.139,49.139 0 0 0 -0.38079,0.23799 c -1.315,0.853 -2.631,1.743 -3.855,2.713 a 49.139,49.139 0 0 0 -0.0963,0.0951 c -1.209,0.963 -2.363,1.976 -3.475,3.046 a 49.139,49.139 0 0 0 -0.33315,0.33319 c -0.948,0.93 -1.843,1.899 -2.713,2.904 a 49.139,49.139 0 0 0 -0.71413,0.80917 c -4.046,4.876 -7.164,10.562 -9.09,16.754 a 49.139,49.139 0 0 0 0,0.0475 c -0.473,1.526 -0.865,3.03 -1.189,4.617 a 49.139,49.139 0 0 0 -0.0946,0.52359 c -0.277,1.433 -0.517,2.904 -0.666,4.379 a 49.139,49.139 0 0 0 0,0.0951 c -0.161,1.622 -0.238,3.286 -0.238,4.95 a 49.139,49.139 0 0 0 0.0473,2.4752 c 0.41,8.234 2.832,15.922 6.807,22.61 a 49.139,49.139 0 0 0 0.23804,0.38078 c 1.641,2.701 3.549,5.241 5.665,7.569 a 49.139,49.139 0 0 0 0.14363,0.14275 c 1.018,1.109 2.076,2.177 3.19,3.19 a 49.139,49.139 0 0 0 0.28569,0.23799 c 2.275,2.037 4.75,3.838 7.378,5.427 a 49.139,49.139 0 0 0 1.1899,0.71397 c 3.889,2.203 8.11,3.869 12.566,4.95 a 49.139,49.139 0 0 0 0.80906,0.1904 c 3.48,0.781 7.089,1.238 10.806,1.238 2.843,0 5.619,-0.25 8.329,-0.715 a 49.139,49.139 0 0 0 0.14363,-0.0475 c 3.223,-0.561 6.355,-1.413 9.329,-2.57 a 49.139,49.139 0 0 0 0.1904,-0.0951 c 1.457,-0.575 2.897,-1.198 4.284,-1.904 a 49.139,49.139 0 0 0 0.38079,-0.23799 c 1.34,-0.699 2.638,-1.422 3.903,-2.237 a 49.139,49.139 0 0 0 0.0946,-0.0951 c 1.335,-0.864 2.662,-1.774 3.903,-2.761 a 49.139,49.139 0 0 0 0.0473,-0.0475 c 2.542,-2.027 4.903,-4.276 6.998,-6.759 a 49.139,49.139 0 0 0 0.33316,-0.42839 c 1.967,-2.382 3.694,-4.934 5.188,-7.663 a 49.139,49.139 0 0 0 0.0946,-0.14275 c 0.75,-1.38 1.429,-2.829 2.046,-4.284 a 49.139,49.139 0 0 0 0,-0.0475 c 1.261,-2.983 2.249,-6.078 2.904,-9.329 a 49.139,49.139 0 0 0 0.0946,-0.76158 c 0.541,-2.92 0.857,-5.919 0.857,-8.996 a 49.139,49.139 0 0 0 -0.0473,-2.0467 c -0.067,-1.655 -0.201,-3.293 -0.429,-4.903 a 49.139,49.139 0 0 0 -0.0946,-0.57118 c -0.984,-6.448 -3.19,-12.482 -6.425,-17.849 a 49.139,49.139 0 0 0 -0.0946,-0.14275 c -4.134,-6.803 -9.888,-12.501 -16.707,-16.612 a 49.139,49.139 0 0 0 -1.1424,-0.66637 c -4.03,-2.282 -8.408,-4.02 -13.04,-5.094 a 49.139,49.139 0 0 0 -0.1904,-0.0475 c -1.508,-0.343 -3.06,-0.608 -4.617,-0.809 a 49.139,49.139 0 0 0 -0.28551,0 c -1.526,-0.187 -3.051,-0.336 -4.617,-0.38 a 49.139,49.139 0 0 0 -0.0946,0 c -0.445,-0.012 -0.885,-0.047 -1.333,-0.047"
     id="path14" />
  <path
     style="fill:#1086bc"
     id="path18"
     d="m 311.311,151.57752 c -1.168,0 -2.328,0.063 -3.475,0.144 a 49.139,49.139 0 0 0 -0.5712,0.0475 c -1.372,0.112 -2.708,0.254 -4.046,0.476 a 49.139,49.139 0 0 0 -0.61866,0.14275 c -1.447,0.259 -2.885,0.569 -4.284,0.951 a 49.139,49.139 0 0 0 -0.28551,0.0951 c -1.454,0.406 -2.888,0.846 -4.284,1.38 a 49.139,49.139 0 0 0 -0.47591,0.19038 c -1.263,0.499 -2.503,1.069 -3.713,1.666 a 49.139,49.139 0 0 0 -1.3328,0.66638 c -2.622,1.398 -5.113,3.02 -7.425,4.855 a 49.139,49.139 0 0 0 -0.0946,0.0951 c -1.209,0.963 -2.363,1.976 -3.475,3.046 a 49.139,49.139 0 0 0 -0.33333,0.33319 c -0.949,0.93 -1.843,1.899 -2.713,2.904 a 49.139,49.139 0 0 0 -0.71395,0.80917 c -4.046,4.876 -7.164,10.562 -9.09,16.754 a 49.139,49.139 0 0 0 0,0.0475 c -0.949,3.064 -1.618,6.232 -1.951,9.52 a 49.139,49.139 0 0 0 0,0.0951 c -0.161,1.622 -0.286,3.286 -0.286,4.95 a 49.139,49.139 0 0 0 0.0946,2.4752 c 0.152,3.067 0.596,6.06 1.286,8.949 a 49.139,49.139 0 0 0 0.14363,0.57118 c 0.727,2.895 1.688,5.663 2.904,8.329 a 49.139,49.139 0 0 0 0.3808,0.85676 c 0.631,1.317 1.352,2.606 2.095,3.855 a 49.139,49.139 0 0 0 0.23787,0.42839 c 1.641,2.701 3.549,5.241 5.665,7.569 a 49.139,49.139 0 0 0 0.14363,0.14276 c 1.016,1.109 2.076,2.177 3.19,3.19 a 49.139,49.139 0 0 0 0.28586,0.23799 c 2.379,2.13 4.948,3.978 7.711,5.617 a 49.139,49.139 0 0 0 0.66649,0.42839 c 3.936,2.251 8.234,3.948 12.757,5.04 a 49.139,49.139 0 0 0 0.80906,0.1904 c 3.48,0.781 7.089,1.238 10.806,1.238 2.843,0 5.619,-0.25 8.329,-0.715 a 49.139,49.139 0 0 0 0.14363,-0.0475 c 3.223,-0.561 6.355,-1.413 9.329,-2.57 a 49.139,49.139 0 0 0 0.1904,-0.0951 c 1.464,-0.576 2.892,-1.195 4.284,-1.904 a 49.139,49.139 0 0 0 0.52337,-0.2856 c 1.289,-0.678 2.542,-1.405 3.761,-2.19 a 49.139,49.139 0 0 0 0.14363,-0.0951 c 1.333,-0.865 2.617,-1.774 3.855,-2.761 a 49.139,49.139 0 0 0 0.66649,-0.57118 c 2.288,-1.888 4.418,-3.969 6.33,-6.236 a 49.139,49.139 0 0 0 0.33333,-0.42839 c 1.967,-2.382 3.741,-4.934 5.236,-7.663 a 49.139,49.139 0 0 0 0.0963,-0.14275 c 0.75,-1.38 1.429,-2.829 2.046,-4.284 a 49.139,49.139 0 0 0 0,-0.0475 c 1.263,-2.985 2.249,-6.078 2.904,-9.329 a 49.139,49.139 0 0 0 0.0946,-0.76157 c 0.541,-2.92 0.857,-5.919 0.857,-8.996 a 49.139,49.139 0 0 0 -0.0473,-2.0468 c -0.067,-1.655 -0.201,-3.293 -0.429,-4.903 a 49.139,49.139 0 0 0 -0.0946,-0.57118 c -0.729,-4.773 -2.142,-9.301 -4.141,-13.517 a 49.139,49.139 0 0 0 -0.14364,-0.2856 c -4.165,-8.644 -10.771,-15.87 -18.944,-20.8 a 49.139,49.139 0 0 0 -1.0949,-0.61877 c -4.044,-2.298 -8.432,-4.062 -13.09,-5.141 a 49.139,49.139 0 0 0 -0.1904,-0.0475 c -1.508,-0.343 -3.06,-0.608 -4.617,-0.809 a 49.139,49.139 0 0 0 -0.28568,0 c -1.526,-0.187 -3.051,-0.336 -4.617,-0.38 a 49.139,49.139 0 0 0 -0.0946,0 c -0.445,-0.012 -0.885,-0.047 -1.333,-0.047 z"
     inkscape:connector-curvature="0" />
  <path
     style="fill:#1086bc"
     id="path20"
     d="m 200.781,262.14752 c -2.759,0 -5.456,0.229 -8.092,0.666 a 49.139,49.139 0 0 0 -0.61884,0.14276 c -3.051,0.546 -6.02,1.345 -8.846,2.428 a 49.139,49.139 0 0 0 -0.42844,0.19038 c -1.357,0.534 -2.703,1.112 -3.999,1.769 a 49.139,49.139 0 0 0 -0.66631,0.38078 c -2.776,1.447 -5.419,3.116 -7.854,5.04 a 49.139,49.139 0 0 0 -0.0963,0.0951 c -2.37,1.888 -4.538,3.995 -6.521,6.283 a 49.139,49.139 0 0 0 -0.71413,0.80917 c -0.815,0.983 -1.547,2 -2.284,3.046 a 49.139,49.139 0 0 0 -0.52355,0.66637 c -1.711,2.515 -3.198,5.223 -4.426,8.04 a 49.139,49.139 0 0 0 -0.1904,0.42837 l 0,0.047 a 49.139,49.139 0 0 0 -0.14363,0.33319 c -1.175,2.838 -2.083,5.777 -2.713,8.846 a 49.139,49.139 0 0 0 -0.0946,0.52358 c -0.277,1.433 -0.517,2.904 -0.666,4.379 a 49.139,49.139 0 0 0 0,0.0951 c -0.161,1.622 -0.238,3.239 -0.238,4.903 a 49.139,49.139 0 0 0 0.0473,2.5227 c 0.408,8.199 2.813,15.852 6.759,22.513 a 49.139,49.139 0 0 0 0.28534,0.47598 c 1.641,2.701 3.549,5.241 5.665,7.569 a 49.139,49.139 0 0 0 0.14363,0.14275 c 1.016,1.109 2.076,2.177 3.19,3.19 a 49.139,49.139 0 0 0 0.28568,0.23799 c 1.205,1.079 2.452,2.09 3.761,3.046 a 49.139,49.139 0 0 0 0.33298,0.23799 c 1.058,0.76 2.165,1.466 3.284,2.142 a 49.139,49.139 0 0 0 1.1899,0.71397 c 3.889,2.204 8.108,3.869 12.566,4.95 a 49.139,49.139 0 0 0 0.80906,0.19039 c 1.424,0.321 2.864,0.568 4.332,0.762 a 49.139,49.139 0 0 0 0.14363,0.0475 c 2.072,0.266 4.186,0.429 6.33,0.429 1.174,0 2.321,-0.061 3.475,-0.144 a 49.139,49.139 0 0 0 0.61884,-0.0951 c 1.426,-0.119 2.848,-0.238 4.235,-0.476 a 49.139,49.139 0 0 0 0.14363,-0.0475 c 1.578,-0.275 3.142,-0.625 4.665,-1.047 a 49.139,49.139 0 0 0 0.1904,-0.0475 c 1.52,-0.427 3.02,-0.909 4.474,-1.475 a 49.139,49.139 0 0 0 0.1904,-0.0951 c 3.01,-1.186 5.88,-2.648 8.567,-4.379 a 49.139,49.139 0 0 0 0.90417,-0.61879 c 1.054,-0.713 2.1,-1.447 3.093,-2.237 a 49.139,49.139 0 0 0 0.0473,-0.0475 c 1.259,-1 2.463,-2.069 3.617,-3.19 a 49.139,49.139 0 0 0 0.52355,-0.52357 c 3.295,-3.295 6.122,-7.06 8.378,-11.186 a 49.139,49.139 0 0 0 0.0946,-0.14276 c 2.27,-4.178 3.92,-8.719 4.903,-13.517 a 49.139,49.139 0 0 0 0.1904,-0.99957 c 0.527,-2.883 0.809,-5.866 0.809,-8.902 a 49.139,49.139 0 0 0 -0.0473,-2.0468 c -0.067,-1.643 -0.203,-3.258 -0.429,-4.855 a 49.139,49.139 0 0 0 -0.0946,-0.57118 c -0.984,-6.448 -3.19,-12.482 -6.425,-17.849 a 49.139,49.139 0 0 0 -0.0946,-0.14275 c -4.239,-6.975 -10.184,-12.815 -17.23,-16.945 a 49.139,49.139 0 0 0 -0.1904,-0.0951 c -2.754,-1.598 -5.652,-2.953 -8.711,-3.999 a 49.139,49.139 0 0 0 -0.38079,-0.0951 c -1.433,-0.476 -2.89,-0.893 -4.379,-1.238 a 49.139,49.139 0 0 0 -0.1904,-0.0475 c -2.953,-0.673 -6.01,-1.075 -9.138,-1.189 a 49.139,49.139 0 0 0 -0.95199,-0.0475 c -0.287,-0.005 -0.569,0 -0.857,0"
     inkscape:connector-curvature="0" />
  <path
     inkscape:connector-curvature="0"
     style="fill:#d23638"
     d="m 421.841,262.14752 c -2.85,0 -5.661,0.249 -8.378,0.715 a 49.139,49.139 0 0 0 -0.23805,0.0475 c -3.097,0.546 -6.082,1.378 -8.949,2.475 a 49.139,49.139 0 0 0 -0.47591,0.19038 c -1.263,0.499 -2.503,1.068 -3.713,1.666 a 49.139,49.139 0 0 0 -1.3326,0.66636 c -2.622,1.398 -5.113,3.02 -7.425,4.855 a 49.139,49.139 0 0 0 -0.0946,0.0951 c -1.219,0.972 -2.401,1.965 -3.521,3.046 a 49.139,49.139 0 0 0 -0.28534,0.28558 c -1.012,0.993 -1.981,2.065 -2.904,3.141 a 49.139,49.139 0 0 0 -0.52356,0.61879 c -0.907,1.093 -1.752,2.209 -2.57,3.379 a 49.139,49.139 0 0 0 -0.1904,0.28559 c -2.713,3.974 -4.869,8.346 -6.33,13.04 a 49.139,49.139 0 0 0 -0.1904,0.66636 c -0.774,2.622 -1.337,5.355 -1.666,8.14 a 49.139,49.139 0 0 0 -0.1904,2.3323 c -0.081,1.154 -0.191,2.3 -0.191,3.475 a 49.139,49.139 0 0 0 0.0963,2.5227 c 0.152,3.065 0.596,6.01 1.286,8.902 a 49.139,49.139 0 0 0 0.14364,0.61879 c 0.765,3.036 1.794,5.976 3.093,8.758 a 49.139,49.139 0 0 0 0.1904,0.38079 c 0.608,1.27 1.289,2.507 1.999,3.713 a 49.139,49.139 0 0 0 0.33333,0.61877 c 1.641,2.701 3.501,5.241 5.617,7.569 a 49.139,49.139 0 0 0 0.14363,0.14276 c 3.179,3.468 6.849,6.458 10.9,8.902 a 49.139,49.139 0 0 0 1.3804,0.76158 c 3.834,2.149 7.993,3.792 12.384,4.855 a 49.139,49.139 0 0 0 0.80942,0.19038 c 3.48,0.781 7.089,1.238 10.804,1.238 1.174,0 2.321,-0.061 3.475,-0.144 a 49.139,49.139 0 0 0 0.61867,-0.0951 c 1.426,-0.119 2.848,-0.238 4.235,-0.476 a 49.139,49.139 0 0 0 0.14364,-0.0475 c 1.578,-0.275 3.142,-0.625 4.664,-1.048 a 49.139,49.139 0 0 0 0.1904,-0.0475 c 1.527,-0.429 3.01,-0.906 4.474,-1.475 a 49.139,49.139 0 0 0 0.33316,-0.14275 c 2.939,-1.17 5.749,-2.641 8.378,-4.332 a 49.139,49.139 0 0 0 0.0946,-0.0475 c 1.358,-0.878 2.641,-1.806 3.903,-2.808 a 49.139,49.139 0 0 0 0.0473,-0.0475 c 1.259,-1 2.51,-2.069 3.664,-3.19 a 49.139,49.139 0 0 0 0.52373,-0.52359 c 0.993,-0.993 1.902,-2.02 2.808,-3.093 a 49.139,49.139 0 0 0 0.33316,-0.38078 c 1.972,-2.389 3.738,-4.974 5.236,-7.711 a 49.139,49.139 0 0 0 0.0473,-0.14276 c 3.782,-6.963 5.95,-14.938 5.95,-23.419 a 49.139,49.139 0 0 0 -0.0473,-2.0467 c -0.067,-1.643 -0.203,-3.258 -0.429,-4.855 a 49.139,49.139 0 0 0 -0.0946,-0.57118 c -0.221,-1.447 -0.513,-2.881 -0.857,-4.284 a 49.139,49.139 0 0 0 -0.14363,-0.52357 c -0.781,-3.036 -1.825,-5.931 -3.141,-8.711 a 49.139,49.139 0 0 0 -0.14363,-0.28558 c -4.253,-8.828 -11.06,-16.202 -19.46,-21.14 a 49.139,49.139 0 0 0 -0.1904,-0.0951 c -2.766,-1.604 -5.684,-2.951 -8.758,-3.999 a 49.139,49.139 0 0 0 -0.14363,-0.0475 c -1.492,-0.503 -3.02,-0.925 -4.57,-1.286 a 49.139,49.139 0 0 0 -0.1904,-0.0475 c -2.953,-0.673 -6.01,-1.075 -9.138,-1.189 a 49.139,49.139 0 0 0 -0.952,-0.0475 c -0.287,-0.005 -0.569,0 -0.857,0"
     id="path22" />
  <path
     style="fill:#1086bc"
     id="path26"
     d="m 90.081,372.71752 c -1.174,0 -2.321,0.014 -3.475,0.095 a 49.139,49.139 0 0 0 -0.52373,0.0475 c -1.459,0.117 -2.911,0.328 -4.332,0.571 a 49.139,49.139 0 0 0 -0.1904,0.0475 c -1.562,0.273 -3.109,0.582 -4.617,1 a 49.139,49.139 0 0 0 -0.14363,0.0475 c -1.438,0.403 -2.855,0.9 -4.237,1.428 a 49.139,49.139 0 0 0 -0.47573,0.1904 c -1.37,0.539 -2.692,1.105 -3.999,1.769 a 49.139,49.139 0 0 0 -0.42844,0.23799 c -2.859,1.47 -5.593,3.209 -8.092,5.188 a 49.139,49.139 0 0 0 -0.0946,0.0951 c -2.37,1.888 -4.538,3.995 -6.521,6.283 a 49.139,49.139 0 0 0 -0.71395,0.80917 c -0.816,0.983 -1.547,2 -2.284,3.046 a 49.139,49.139 0 0 0 -0.52338,0.66636 c -3.582,5.255 -6.152,11.251 -7.472,17.709 a 49.139,49.139 0 0 0 -0.14363,0.90437 c -0.243,1.31 -0.482,2.654 -0.618,3.999 a 49.139,49.139 0 0 0 0,0.0951 c -0.161,1.622 -0.238,3.239 -0.238,4.903 a 49.139,49.139 0 0 0 0.0473,2.0467 c 0.061,1.492 0.189,2.973 0.38,4.426 a 49.139,49.139 0 0 0 0.14363,0.85676 c 1.471,9.816 5.81,18.688 12.186,25.703 a 49.139,49.139 0 0 0 0.66666,0.71397 c 0.857,0.906 1.743,1.78 2.666,2.619 a 49.139,49.139 0 0 0 0.61867,0.57118 c 3.489,3.065 7.45,5.63 11.709,7.616 a 49.139,49.139 0 0 0 0.66631,0.33319 c 2.764,1.237 5.658,2.239 8.663,2.951 a 49.139,49.139 0 0 0 0.42844,0.0951 c 1.447,0.329 2.936,0.562 4.426,0.762 a 49.139,49.139 0 0 0 0.1904,0.0475 c 2.079,0.268 4.178,0.429 6.33,0.429 1.168,0 2.328,-0.063 3.475,-0.144 a 49.139,49.139 0 0 0 0.5712,-0.0475 c 1.47,-0.119 2.902,-0.279 4.332,-0.524 a 49.139,49.139 0 0 0 0.33333,-0.0951 c 1.496,-0.268 2.981,-0.599 4.426,-1 a 49.139,49.139 0 0 0 0.14363,-0.0475 c 4.757,-1.333 9.224,-3.339 13.281,-5.95 a 49.139,49.139 0 0 0 0.90418,-0.61879 c 1.055,-0.713 2.098,-1.447 3.093,-2.237 a 49.139,49.139 0 0 0 0.0473,-0.0475 c 1.258,-1 2.465,-2.07 3.617,-3.19 a 49.139,49.139 0 0 0 0.52373,-0.52357 c 0.991,-0.993 1.951,-2.02 2.855,-3.093 a 49.139,49.139 0 0 0 0.0473,-0.0475 c 1.033,-1.23 1.993,-2.528 2.904,-3.855 a 49.139,49.139 0 0 0 0.1904,-0.2856 c 0.851,-1.261 1.647,-2.563 2.38,-3.903 a 49.139,49.139 0 0 0 0.0946,-0.14276 c 2.293,-4.22 3.973,-8.81 4.95,-13.661 a 49.139,49.139 0 0 0 0.0473,-0.38078 c 0.587,-3.039 0.904,-6.167 0.904,-9.376 a 49.139,49.139 0 0 0 -0.0473,-2.5226 c -0.422,-8.315 -2.897,-16.08 -6.949,-22.806 a 49.139,49.139 0 0 0 -0.0946,-0.14275 c -0.827,-1.361 -1.713,-2.68 -2.666,-3.95 a 49.139,49.139 0 0 0 -0.47591,-0.57118 c -1.848,-2.391 -3.89,-4.652 -6.139,-6.663 a 49.139,49.139 0 0 0 -0.61884,-0.47598 c -4.454,-3.855 -9.592,-6.931 -15.232,-8.996 a 49.139,49.139 0 0 0 -0.47591,-0.1904 c -0.173,-0.061 -0.349,-0.131 -0.524,-0.191 a 49.139,49.139 0 0 0 -0.3808,-0.0951 c -2.741,-0.913 -5.589,-1.58 -8.52,-1.999 a 49.139,49.139 0 0 0 -1.2375,-0.1904 c -1.266,-0.147 -2.563,-0.236 -3.855,-0.286 a 49.139,49.139 0 0 0 -1.1899,-0.0475 c -0.24,-0.004 -0.475,0 -0.715,0"
     inkscape:connector-curvature="0" />
  <path
     style="fill:#1086bc"
     id="path28"
     d="m 311.311,372.71752 c -1.168,0 -2.328,0.016 -3.475,0.095 a 49.139,49.139 0 0 0 -0.47609,0.0475 c -1.387,0.11 -2.741,0.301 -4.094,0.524 a 49.139,49.139 0 0 0 -0.71378,0.14275 c -1.48,0.266 -2.948,0.555 -4.379,0.951 a 49.139,49.139 0 0 0 -0.14363,0.0475 c -1.438,0.403 -2.855,0.9 -4.235,1.428 a 49.139,49.139 0 0 0 -0.52372,0.1904 c -1.312,0.518 -2.601,1.089 -3.855,1.713 a 49.139,49.139 0 0 0 -0.71412,0.33317 c -2.801,1.454 -5.449,3.197 -7.901,5.141 a 49.139,49.139 0 0 0 -0.0946,0.0951 c -2.37,1.888 -4.538,3.995 -6.521,6.283 a 49.139,49.139 0 0 0 -0.71413,0.80917 c -0.907,1.093 -1.752,2.209 -2.57,3.379 a 49.139,49.139 0 0 0 -0.1904,0.28558 c -4.493,6.579 -7.435,14.312 -8.282,22.657 a 49.139,49.139 0 0 0 0,0.0951 c -0.161,1.622 -0.286,3.239 -0.286,4.903 a 49.139,49.139 0 0 0 0.0946,2.5703 c 0.156,3.034 0.603,5.99 1.286,8.846 a 49.139,49.139 0 0 0 0.14363,0.61877 c 2,7.943 5.941,15.12 11.28,20.991 a 49.139,49.139 0 0 0 0.66614,0.71397 c 0.857,0.906 1.743,1.78 2.666,2.619 a 49.139,49.139 0 0 0 0.66649,0.61877 c 1.084,0.949 2.214,1.86 3.379,2.713 a 49.139,49.139 0 0 0 0.23804,0.19038 c 2.556,1.846 5.29,3.426 8.187,4.759 a 49.139,49.139 0 0 0 0.28534,0.14276 c 2.753,1.247 5.666,2.224 8.663,2.951 a 49.139,49.139 0 0 0 0.80907,0.1904 c 1.424,0.321 2.864,0.568 4.332,0.762 a 49.139,49.139 0 0 0 0.14363,0.0475 c 2.072,0.266 4.186,0.429 6.33,0.429 1.174,0 2.321,-0.061 3.475,-0.144 a 49.139,49.139 0 0 0 0.61867,-0.0951 c 1.426,-0.119 2.848,-0.238 4.237,-0.476 a 49.139,49.139 0 0 0 0.14363,-0.0475 c 1.578,-0.275 3.142,-0.625 4.664,-1.048 a 49.139,49.139 0 0 0 0.14363,-0.0475 c 4.757,-1.333 9.224,-3.339 13.281,-5.95 a 49.139,49.139 0 0 0 0.90453,-0.61879 c 1.065,-0.72 2.09,-1.438 3.093,-2.237 a 49.139,49.139 0 0 0 0.66649,-0.57118 c 1.023,-0.844 2.048,-1.743 2.999,-2.666 a 49.139,49.139 0 0 0 0.52355,-0.52358 c 0.991,-0.991 1.904,-2.02 2.808,-3.093 a 49.139,49.139 0 0 0 0.33333,-0.38078 c 0.93,-1.126 1.837,-2.316 2.666,-3.521 a 49.139,49.139 0 0 0 0.1904,-0.28559 c 0.851,-1.261 1.647,-2.563 2.38,-3.903 a 49.139,49.139 0 0 0 0.0963,-0.14275 c 2.293,-4.22 3.973,-8.811 4.95,-13.661 a 49.139,49.139 0 0 0 0.0946,-0.76158 c 0.541,-2.92 0.857,-5.919 0.857,-8.996 a 49.139,49.139 0 0 0 -0.0473,-2.0467 c -0.067,-1.643 -0.203,-3.258 -0.429,-4.855 a 49.139,49.139 0 0 0 -0.0946,-0.57118 c -0.729,-4.77 -2.144,-9.303 -4.141,-13.517 a 49.139,49.139 0 0 0 -0.14363,-0.2856 c -1.385,-2.876 -3.01,-5.609 -4.903,-8.14 a 49.139,49.139 0 0 0 -1.4756,-1.8087 c -1.503,-1.82 -3.109,-3.554 -4.855,-5.141 a 49.139,49.139 0 0 0 -1.8087,-1.5231 c -4.248,-3.503 -9.06,-6.306 -14.326,-8.234 a 49.139,49.139 0 0 0 -0.52356,-0.1904 c -0.159,-0.056 -0.315,-0.135 -0.476,-0.191 a 49.139,49.139 0 0 0 -0.3808,-0.0951 c -2.738,-0.911 -5.593,-1.58 -8.52,-1.999 a 49.139,49.139 0 0 0 -1.3328,-0.19038 c -1.245,-0.144 -2.487,-0.236 -3.761,-0.286 a 49.139,49.139 0 0 0 -1.19,-0.0475 c -0.24,-0.003 -0.475,0 -0.715,0 z"
     inkscape:connector-curvature="0" />
  <path
     inkscape:connector-curvature="0"
     style="fill:#79c943"
     d="m 421.841,372.71752 c -1.158,0 -2.337,0.016 -3.475,0.095 a 49.139,49.139 0 0 0 -0.42827,0.0475 c -1.447,0.112 -2.874,0.287 -4.284,0.524 a 49.139,49.139 0 0 0 -0.47591,0.0951 c -1.443,0.256 -2.839,0.573 -4.235,0.951 a 49.139,49.139 0 0 0 -0.66649,0.19038 c -1.338,0.384 -2.661,0.841 -3.95,1.333 a 49.139,49.139 0 0 0 -0.52356,0.19038 c -1.312,0.518 -2.603,1.089 -3.855,1.713 a 49.139,49.139 0 0 0 -0.71395,0.33319 c -2.801,1.454 -5.449,3.197 -7.901,5.141 a 49.139,49.139 0 0 0 -0.0946,0.0951 c -1.228,0.979 -2.394,2 -3.521,3.093 a 49.139,49.139 0 0 0 -0.28534,0.23799 c -1.012,0.993 -1.981,2.065 -2.904,3.141 a 49.139,49.139 0 0 0 -0.52355,0.61877 c -0.907,1.093 -1.752,2.209 -2.57,3.379 a 49.139,49.139 0 0 0 -0.1904,0.2856 c -2.713,3.974 -4.869,8.346 -6.33,13.04 a 49.139,49.139 0 0 0 -0.1904,0.66638 c -0.774,2.622 -1.337,5.355 -1.666,8.14 a 49.139,49.139 0 0 0 -0.1904,2.3322 c -0.081,1.154 -0.191,2.3 -0.191,3.475 a 49.139,49.139 0 0 0 0.0963,2.5703 c 0.156,3.034 0.603,5.99 1.286,8.846 a 49.139,49.139 0 0 0 0.14363,0.61879 c 2,7.943 5.892,15.12 11.233,20.991 a 49.139,49.139 0 0 0 0.90435,0.95196 c 0.788,0.823 1.583,1.613 2.428,2.38 a 49.139,49.139 0 0 0 0.33315,0.28558 c 2.424,2.165 5.08,4.104 7.901,5.759 a 49.139,49.139 0 0 0 0.0473,0.0475 c 1.368,0.8 2.789,1.522 4.235,2.19 a 49.139,49.139 0 0 0 0.28569,0.14276 c 2.753,1.247 5.666,2.224 8.663,2.951 a 49.139,49.139 0 0 0 0.80924,0.1904 c 3.48,0.781 7.089,1.238 10.804,1.238 1.174,0 2.321,-0.061 3.475,-0.144 a 49.139,49.139 0 0 0 0.61867,-0.0951 c 1.426,-0.119 2.848,-0.238 4.235,-0.476 a 49.139,49.139 0 0 0 0.14363,-0.0475 c 1.578,-0.275 3.142,-0.625 4.664,-1.048 a 49.139,49.139 0 0 0 0.14363,-0.0475 c 4.743,-1.329 9.185,-3.349 13.232,-5.95 a 49.139,49.139 0 0 0 0.0946,-0.0475 c 1.358,-0.878 2.641,-1.806 3.903,-2.808 a 49.139,49.139 0 0 0 0.0473,-0.0475 c 1.258,-1 2.514,-2.07 3.664,-3.19 a 49.139,49.139 0 0 0 0.52373,-0.52357 c 0.991,-0.991 1.904,-2.02 2.808,-3.093 a 49.139,49.139 0 0 0 0.33298,-0.38079 c 0.93,-1.126 1.837,-2.316 2.666,-3.521 a 49.139,49.139 0 0 0 0.1904,-0.2856 c 0.855,-1.266 1.643,-2.556 2.38,-3.903 a 49.139,49.139 0 0 0 0.0473,-0.14276 c 3.782,-6.963 5.95,-14.938 5.95,-23.419 a 49.139,49.139 0 0 0 -0.0473,-2.0468 c -0.067,-1.643 -0.203,-3.258 -0.429,-4.855 a 49.139,49.139 0 0 0 -0.0946,-0.57118 c -0.221,-1.447 -0.513,-2.881 -0.857,-4.284 a 49.139,49.139 0 0 0 -0.14363,-0.52359 c -0.366,-1.424 -0.797,-2.818 -1.286,-4.188 a 49.139,49.139 0 0 0 -0.14363,-0.42839 c -0.513,-1.403 -1.079,-2.753 -1.713,-4.094 a 49.139,49.139 0 0 0 -0.14363,-0.28559 c -1.385,-2.876 -3.01,-5.609 -4.903,-8.14 a 49.139,49.139 0 0 0 -1.4754,-1.8087 c -1.596,-1.932 -3.319,-3.759 -5.188,-5.426 a 49.139,49.139 0 0 0 -0.14363,-0.0951 c -4.826,-4.279 -10.469,-7.634 -16.707,-9.758 a 49.139,49.139 0 0 0 -0.14363,-0.0475 c -2.794,-0.942 -5.717,-1.618 -8.711,-2.046 a 49.139,49.139 0 0 0 -1.3328,-0.1904 c -1.245,-0.144 -2.487,-0.236 -3.761,-0.286 a 49.139,49.139 0 0 0 -1.19,-0.0475 c -0.238,-0.003 -0.475,0 -0.715,0"
     id="path30" />
</svg>
