<?xml version="1.0" encoding="UTF-8" standalone="no"?>
<!-- Created with Inkscape (http://www.inkscape.org/) -->

<svg
   xmlns:dc="http://purl.org/dc/elements/1.1/"
   xmlns:cc="http://creativecommons.org/ns#"
   xmlns:rdf="http://www.w3.org/1999/02/22-rdf-syntax-ns#"
   xmlns:svg="http://www.w3.org/2000/svg"
   xmlns="http://www.w3.org/2000/svg"
   xmlns:sodipodi="http://sodipodi.sourceforge.net/DTD/sodipodi-0.dtd"
   xmlns:inkscape="http://www.inkscape.org/namespaces/inkscape"
   id="svg2"
   height="100%"
   width="100%"
   version="1.1"
   viewBox="0 0 512 512"
   inkscape:version="0.91 r13725"
   sodipodi:docname="gnome-disks.svg">
  <defs
     id="defs32" />
  <sodipodi:namedview
     pagecolor="#ffffff"
     bordercolor="#666666"
     borderopacity="1"
     objecttolerance="10"
     gridtolerance="10"
     guidetolerance="10"
     inkscape:pageopacity="0"
     inkscape:pageshadow="2"
     inkscape:window-width="640"
     inkscape:window-height="480"
     id="namedview30"
     showgrid="false"
     inkscape:zoom="0.5546875"
     inkscape:cx="36.056338"
     inkscape:cy="240.67606"
     inkscape:current-layer="svg2" />
  <metadata
     id="metadata64">
    <rdf:RDF>
      <cc:Work
         rdf:about="">
        <dc:format>image/svg+xml</dc:format>
        <dc:type
           rdf:resource="http://purl.org/dc/dcmitype/StillImage" />
      </cc:Work>
    </rdf:RDF>
  </metadata>
  <path
     inkscape:connector-curvature="0"
     style="fill:#d23638"
     id="path10"
     d="m 26,-0.002 c -14.397,0 -26,11.603 -26,26 l 0,460 c 0,14.397 11.603,26 26,26 l 460,0 c 14.397,0 26,-11.603 26,-26 l 0,-460 c 0,-14.397 -11.6,-26 -26,-26 l -460,0" />
  <path
     inkscape:connector-curvature="0"
     style="opacity:0.25"
     id="path58"
     d="m 212,40.998 c -13.672,19.12 29.29,35.891 35.06,56.09 l -12.531,-12.531 -10.781,40.19 -40.19,10.781 -41.09,-41 c -7.92,26.493 2.905,50.39 19.281,70.75 l -0.531,-0.531 c 1.231,1.666 2.53,3.158 3.906,4.531 9.09,10.6 19.474,20.21 29.22,28.625 l 7.344,7.344 c -1.393,0.16 -2.743,0.357 -4,0.594 -31.932,-28.908 -49.613,-49.581 -76.72,-76.69 -44.751,35.66 -71.985,92.37 -71.53,149.63 -3.057,76.62 51.975,138.48 106.09,185.69 l 47.531,47.531 282.94,0 c 14.397,0 26,-11.603 26,-26 l 0,-209.59 c -15.614,-15.506 -31.379,-30.897 -47.12,-46.28 l -84.53,-84.5 c -0.911,-0.945 -1.85,-1.855 -2.781,-2.781 -18.251,-9.894 -52.69,-43.965 -56.59,-29.25 l -16.6,-16.591 c -0.205,1.875 -0.325,3.707 -0.344,5.5 l -40.34,-40.341 c -25.57,-11.995 -39.21,-18.636 -38.88,-8.344 l -12.81,-12.813 m 83.16,351.03 2.625,2.625 c 0.433,13.682 11.335,24.598 25,25.09 7.137,7.177 14.258,14.369 21.406,21.531 -23.377,14.721 -49.832,24.541 -77.19,28.16 3.635,-27.422 13.4,-53.989 28.16,-77.41" />
  <path
     inkscape:connector-curvature="0"
     style="fill:#ffffff"
     id="path60"
     d="m 212.01,40.998 c -6.23,0.043 -12.469,0.862 -18.529,2.503 l 41.05,41.05 -10.778,40.21 -40.21,10.778 -41.09,-41.01 c -6.527,24.23 -0.316,51.15 18.731,70.2 19.948,19.961 48.704,25.818 73.833,17.641 l 0.242,0.202 168.86,168.86 c 6.679,6.666 15.419,10.05 24.18,10.05 8.761,0 17.504,-3.385 24.22,-10.05 13.37,-13.32 13.37,-34.939 0,-48.36 l -168.9,-168.86 -1.373,-1.251 c 6.793,-24.379 0.591,-51.632 -18.569,-70.805 -14.285,-14.247 -32.981,-21.282 -51.671,-21.15 m 92.36,55.99 c 1.862,9.575 2.149,19.468 0.525,29.27 42.34,42.673 84.92,85.08 127.4,127.6 -9.477,-73.18 -60.11,-133.48 -127.93,-156.87 m -183.39,32.17 c -43.622,35.24 -71.53,89.16 -71.53,149.6 0,106.16 86.07,192.23 192.23,192.23 69.869,0 131.05,-37.29 164.7,-93.05 -0.972,-0.446 -1.957,-0.893 -2.906,-1.413 -61.34,-53.756 -116.17,-114.78 -174.75,-171.32 -18.494,3.331 -38.05,0.683 -55.1,-6.984 -28.448,-11.809 -47.11,-39.27 -52.64,-69.07 m 120.7,107.3 c 23.355,0 42.31,18.951 42.31,42.31 0,23.355 -18.951,42.31 -42.31,42.31 -23.355,0 -42.31,-18.951 -42.31,-42.31 0,-23.355 18.951,-42.31 42.31,-42.31 m 189.57,83.12 c 7.238,0 13.08,5.842 13.08,13.08 0.013,7.212 -5.829,13.04 -13.08,13.04 -7.187,0 -13.04,-5.827 -13.04,-13.04 0,-7.238 5.852,-13.08 13.04,-13.08" />
</svg>
