<?xml version="1.0" encoding="UTF-8" standalone="no"?>
<svg
   xmlns:dc="http://purl.org/dc/elements/1.1/"
   xmlns:cc="http://creativecommons.org/ns#"
   xmlns:rdf="http://www.w3.org/1999/02/22-rdf-syntax-ns#"
   xmlns:svg="http://www.w3.org/2000/svg"
   xmlns="http://www.w3.org/2000/svg"
   xmlns:sodipodi="http://sodipodi.sourceforge.net/DTD/sodipodi-0.dtd"
   xmlns:inkscape="http://www.inkscape.org/namespaces/inkscape"
   viewBox="0 0 512 512"
   id="svg2"
   version="1.1"
   inkscape:version="0.91+devel r13804 custom"
   sodipodi:docname="gnome-tetravex.svg">
  <metadata
     id="metadata10444">
    <rdf:RDF>
      <cc:Work
         rdf:about="">
        <dc:format>image/svg+xml</dc:format>
        <dc:type
           rdf:resource="http://purl.org/dc/dcmitype/StillImage" />
      </cc:Work>
    </rdf:RDF>
  </metadata>
  <defs
     id="defs10442" />
  <sodipodi:namedview
     pagecolor="#ffffff"
     bordercolor="#666666"
     borderopacity="1"
     objecttolerance="10"
     gridtolerance="10"
     guidetolerance="10"
     inkscape:pageopacity="0"
     inkscape:pageshadow="2"
     inkscape:window-width="1366"
     inkscape:window-height="709"
     id="namedview10440"
     showgrid="false"
     inkscape:zoom="0.4609375"
     inkscape:cx="-8.6779661"
     inkscape:cy="237.55932"
     inkscape:window-x="-2"
     inkscape:window-y="-3"
     inkscape:window-maximized="1"
     inkscape:current-layer="svg2" />
  <g
     id="g13805"
     transform="translate(299.38983,-297.22034)">
    <path
       id="path10380"
       d="m -273.38983,297.22034 c -14.397,0 -26,11.603 -26,26 l 0,460 c 0,14.397 11.603,26 26,26 l 460,0 c 14.397,0 26,-11.603 26,-26 l 0,-460 c 0,-14.397 -11.603,-26 -26,-26 l -460,0"
       style="fill:#68af4c"
       inkscape:connector-curvature="0" />
    <g
       transform="translate(-299.38983,297.22034)"
       id="g10382">
      <path
         id="path10384"
         d="M 258.81,255.06 8.59,505.31 c 4.604,4.147 10.698,6.688 17.406,6.688 l 460,0 c 8.161,0 15.427,-3.711 20.19,-9.563 l -247.37,-247.37"
         inkscape:connector-curvature="0"
         style="fill:#55405f" />
      <path
         id="path10386"
         d="M 26,0 C 13.615,0 3.299,8.592 0.656,20.16 L 247.186,266.69 505.316,8.6 C 500.563,3.323 493.693,0.006 486.003,0.006 l -460,0"
         inkscape:connector-curvature="0"
         style="fill:#0078ad" />
      <path
         id="path10388"
         d="M 9.563,5.813 C 3.711,10.574 0,17.843 0,26.003 l 0,460 c 0,7.689 3.317,14.559 8.594,19.313 L 258.814,255.066 9.564,5.816"
         inkscape:connector-curvature="0"
         style="fill:#cd1d31" />
    </g>
    <path
       id="path10436"
       d="m -228.82983,338.22034 185.439999,185.44 29.11,29.11 -0.447,0.449 186.330001,186.33 41,41 0,-372.67 -41,-41 -0.449,0.447 -29.11,-29.11 -370.87,0 m -29.563,29.11 0,371.77 29.12,29.12 41,41 371.77,0 -41,-41 -11.977,-11.977 -173.910001,-173.91 -29.12,-29.12 -185.879999,-185.89"
       style="opacity:0.25"
       inkscape:connector-curvature="0" />
    <path
       id="path10438"
       d="m -228.82983,338.22034 185.439999,185.44 185.440001,-185.44 -370.88,0 m 199.319999,15.677 c 1.082,0 2.295,-0.043 3.583,0 1.289,0.057 2.743,-0.1 4.03,0 1.34,0.057 2.794,0.292 4.03,0.447 1.237,0.155 2.156,0.241 3.135,0.447 l 0,19.26 c -1.959,-0.464 -4.054,-0.638 -6.271,-0.896 -2.165,-0.31 -4.502,-0.447 -6.719,-0.447 -6.959,0 -12.536,0.486 -17.02,2.24 -4.485,1.701 -8.121,4.074 -10.75,7.167 -2.629,3.093 -4.241,6.868 -5.375,11.198 -1.082,4.33 -1.982,9.08 -2.24,14.333 l 0.896,0 c 1.031,-1.856 2.14,-3.329 3.583,-4.927 1.495,-1.649 3.416,-2.897 5.375,-4.03 1.959,-1.185 4.296,-2.465 6.719,-3.135 2.474,-0.669 5.02,-0.896 8.06,-0.896 4.897,0 9.52,0.642 13.438,2.24 3.917,1.598 7.174,4.125 9.854,7.167 2.732,3.041 4.828,6.765 6.2710005,11.198 1.443,4.433 2.24,9.507 2.24,15.229 0,6.134 -0.934,11.728 -2.687,16.573 -1.7010005,4.845 -4.4190005,8.692 -7.6150005,12.09 -3.196,3.351 -7.11,6.258 -11.646,8.06 -4.536,1.753 -9.559,2.24 -15.229,2.24 -5.567,0 -10.832,-0.728 -15.677,-2.688 -4.846,-2.01 -8.933,-4.886 -12.542,-8.958 -3.557,-4.072 -6.449,-9.491 -8.51,-15.677 -2.01,-6.237 -3.135,-13.443 -3.135,-21.948 0,-5.412 0.33,-10.764 0.896,-16.12 0.619,-5.361 1.64,-10.78 3.135,-15.677 1.546,-4.948 3.694,-9.211 6.271,-13.437 2.629,-4.227 5.885,-8.105 9.854,-11.198 4.02,-3.144 8.766,-5.414 14.333,-7.167 5.618,-1.804 12.234,-2.687 19.708,-2.688 m 201.110001,12.99 -186.330001,186.33 186.330001,186.33 0,-372.67 m -430,0.447 0,371.77 185.889999,-185.88 -185.889999,-185.89 m 214.549999,45.687 c -2.371,0 -4.76,0.416 -6.719,1.343 -1.959,0.927 -3.535,2.089 -4.927,3.583 -1.392,1.495 -2.362,3.071 -3.135,4.927 -0.721,1.856 -1.343,3.916 -1.343,5.823 0,2.629 0.725,5.434 1.343,8.06 0.669,2.577 1.399,4.605 2.688,6.719 1.34,2.062 3.02,4.086 4.927,5.375 1.959,1.289 4.141,1.792 6.719,1.792 2.113,0 4.122,-0.572 5.823,-1.343 1.753,-0.824 3.242,-1.985 4.479,-3.583 1.289,-1.649 2.465,-3.797 3.135,-6.271 0.722,-2.474 0.896,-5.108 0.896,-8.51 0,-5.516 -1.263,-9.845 -3.583,-12.99 -2.268,-3.196 -5.611,-4.927 -10.302,-4.927 z m -149.599999,80.18 c 5.412,0 10.05,0.744 14.333,2.24 4.33,1.495 8.157,3.487 11.198,6.271 3.041,2.732 5.121,6.385 6.719,10.302 1.65,3.918 2.687,8.093 2.687,12.99 0,4.433 -0.692,8.917 -2.239,12.99 -1.547,4.02 -3.59,7.728 -6.271,11.646 -2.68,3.866 -5.85,7.78 -9.406,11.646 -3.505,3.815 -7.625,7.677 -11.646,11.646 l -13.437,13.885 0,0.896 46.14,0 0,20.16 -75.7,0 0,-16.573 26.427,-28.667 c 3.351,-3.608 6.226,-6.813 8.958,-9.854 2.732,-3.041 5.208,-6.072 7.167,-8.958 1.959,-2.887 3.397,-5.969 4.479,-8.958 1.082,-2.99 1.792,-6.4 1.792,-9.854 0,-3.814 -1.264,-6.397 -3.583,-8.51 -2.268,-2.113 -5.092,-3.135 -8.958,-3.135 -4.072,0 -8.331,0.677 -12.09,2.688 -3.763,2.01 -7.522,4.799 -11.646,8.51 l -12.99,-15.229 c 2.32,-2.113 4.641,-3.916 7.167,-5.823 2.526,-1.959 5.469,-3.88 8.51,-5.375 3.041,-1.495 6.194,-2.707 9.854,-3.583 3.66,-0.927 8.01,-1.343 12.542,-1.343 m 270.539999,-0.001 60.020001,0 0,20.16 -38.969001,0 -1.792,22.396 c 1.649,-0.361 3.21,-0.983 5.375001,-1.343 2.216,-0.361 5.057,-0.447 8.51,-0.447 4.845,0 9.71,0.744 13.885,2.24 4.175,1.495 7.657,3.832 10.75,6.719 3.093,2.887 5.414,6.42 7.167,10.75 1.753,4.279 2.687,9.214 2.687,14.781 0,6.134 -0.78,11.676 -2.687,16.573 -1.907,4.846 -4.799,9.139 -8.51,12.542 -3.711,3.351 -8.37,5.81 -13.885,7.615 -5.464,1.804 -11.699,2.688 -18.812,2.688 -2.835001,0 -5.727001,-0.191 -8.510001,-0.447 -2.784,-0.258 -5.485,-0.828 -8.06,-1.343 -2.526,-0.464 -4.847,-1.018 -7.167,-1.792 -2.268,-0.773 -4.415,-1.656 -6.271,-2.688 l 0,-20.604 c 1.804,1.031 3.9,2.207 6.271,3.135 2.371,0.876 4.641,1.57 7.167,2.24 2.577,0.619 5.485,0.932 8.06,1.343 2.577,0.361 4.847,0.896 7.167,0.896 6.907001,0 12.070001,-1.644 15.677001,-4.479 3.608,-2.887 5.375,-7.2 5.375,-13.438 0,-5.567 -1.818,-10.1 -5.375,-12.99 -3.505,-2.938 -8.754,-4.479 -16.120001,-4.479 -1.34,0 -2.933,0.288 -4.479,0.447 -1.495,0.155 -2.984,0.191 -4.479,0.447 -1.443,0.258 -2.691,0.588 -4.03,0.896 -1.34,0.258 -2.604,0.588 -3.583,0.896 l -9.406,-4.927 4.03,-57.781 m -120.49,89.14 -185.889999,185.89 371.77,0 -185.890001,-185.89 m -40.76,57.33 77.9370005,0 0,14.781 -41.2100005,98.09 -25.08,0 40.31,-93.17 -51.958,0 0,-19.708"
       style="fill:#ffffff"
       inkscape:connector-curvature="0" />
  </g>
</svg>
