<?xml version="1.0" encoding="UTF-8" standalone="no"?>
<svg
   xmlns:dc="http://purl.org/dc/elements/1.1/"
   xmlns:cc="http://creativecommons.org/ns#"
   xmlns:rdf="http://www.w3.org/1999/02/22-rdf-syntax-ns#"
   xmlns:svg="http://www.w3.org/2000/svg"
   xmlns="http://www.w3.org/2000/svg"
   xmlns:sodipodi="http://sodipodi.sourceforge.net/DTD/sodipodi-0.dtd"
   xmlns:inkscape="http://www.inkscape.org/namespaces/inkscape"
   viewBox="0 0 512 512"
   id="svg2"
   version="1.1"
   inkscape:version="0.91+devel r13804 custom"
   sodipodi:docname="gnome-documents.svg">
  <metadata
     id="metadata6182">
    <rdf:RDF>
      <cc:Work
         rdf:about="">
        <dc:format>image/svg+xml</dc:format>
        <dc:type
           rdf:resource="http://purl.org/dc/dcmitype/StillImage" />
      </cc:Work>
    </rdf:RDF>
  </metadata>
  <defs
     id="defs6180" />
  <sodipodi:namedview
     pagecolor="#ffffff"
     bordercolor="#666666"
     borderopacity="1"
     objecttolerance="10"
     gridtolerance="10"
     guidetolerance="10"
     inkscape:pageopacity="0"
     inkscape:pageshadow="2"
     inkscape:window-width="1366"
     inkscape:window-height="709"
     id="namedview6178"
     showgrid="false"
     inkscape:zoom="0.4609375"
     inkscape:cx="65.084746"
     inkscape:cy="227.79661"
     inkscape:window-x="-2"
     inkscape:window-y="0"
     inkscape:window-maximized="0"
     inkscape:current-layer="svg2" />
  <path
     inkscape:connector-curvature="0"
     style="fill:#ae4a32"
     d="m 26,-0.003 c -14.397,0 -26,11.603 -26,26 l 0,460 c 0,14.397 11.603,26 26,26 l 460,0 c 14.397,0 26,-11.603 26,-26 l 0,-460 c 0,-14.397 -11.603,-26 -26,-26 l -460,0"
     id="path3344" />
  <path
     inkscape:connector-curvature="0"
     style="opacity:0.25"
     d="m 56.2,96.087 0,30.26 63.996,63.996 c -46.01,15.289 -79.19,58.656 -79.19,109.84 0,31.961 12.947,60.9 33.893,81.85 l 129.97,129.97 281.13,0 c 14.397,0 26,-11.603 26,-26 l 0,-348.91 -41,-41 -414.8,0"
     id="path6174" />
  <path
     inkscape:connector-curvature="0"
     style="fill:#ffffff"
     d="m 56.19,96.087 0,30.26 414.81,0 0,-30.26 -414.81,0 m 117.31,71.856 0,115.73 115.73,0 c 0,-63.908 -51.766,-115.73 -115.73,-115.73 m 155.45,0.438 0,30.26 142.05,0 0,-30.26 -142.05,0 m -172.22,16.07 C 92.822,184.451 41,236.217 41,300.181 c 0,63.908 51.766,115.73 115.73,115.73 63.908,0 115.78,-51.766 115.78,-115.73 l -115.78,0 0,-115.73 m 172.22,56.22 0,30.26 142.05,0 0,-30.26 -142.05,0 m 0,72.29 0,30.21 142.05,0 0,-30.21 -142.05,0 m 0,72.25 0,30.26 142.05,0 0,-30.26 -142.05,0"
     id="path6176" />
</svg>
