<?xml version="1.0" encoding="UTF-8" standalone="no"?>
<svg
   xmlns:dc="http://purl.org/dc/elements/1.1/"
   xmlns:cc="http://creativecommons.org/ns#"
   xmlns:rdf="http://www.w3.org/1999/02/22-rdf-syntax-ns#"
   xmlns:svg="http://www.w3.org/2000/svg"
   xmlns="http://www.w3.org/2000/svg"
   xmlns:xlink="http://www.w3.org/1999/xlink"
   xmlns:sodipodi="http://sodipodi.sourceforge.net/DTD/sodipodi-0.dtd"
   xmlns:inkscape="http://www.inkscape.org/namespaces/inkscape"
   viewBox="0 0 512 512"
   id="svg2"
   version="1.1"
   inkscape:version="0.91 r13725"
   sodipodi:docname="google-plus-games.svg">
  <metadata
     id="metadata136">
    <rdf:RDF>
      <cc:Work
         rdf:about="">
        <dc:format>image/svg+xml</dc:format>
        <dc:type
           rdf:resource="http://purl.org/dc/dcmitype/StillImage" />
      </cc:Work>
    </rdf:RDF>
  </metadata>
  <sodipodi:namedview
     pagecolor="#ffffff"
     bordercolor="#666666"
     borderopacity="1"
     objecttolerance="10"
     gridtolerance="10"
     guidetolerance="10"
     inkscape:pageopacity="0"
     inkscape:pageshadow="2"
     inkscape:window-width="640"
     inkscape:window-height="480"
     id="namedview134"
     showgrid="false"
     inkscape:zoom="0.5546875"
     inkscape:cx="36.056338"
     inkscape:cy="240.67606"
     inkscape:current-layer="svg2" />
  <defs
     id="defs4">
    <clipPath
       id="clipPath6">
      <rect
         rx="6"
         height="84"
         width="84"
         y="6"
         x="6"
         fill="#fff"
         id="rect8" />
    </clipPath>
    <clipPath
       id="clipPath10">
      <rect
         rx="6"
         height="84"
         width="84"
         y="6"
         x="6"
         fill="#fff"
         id="rect12" />
    </clipPath>
    <clipPath
       id="clipPath14">
      <rect
         rx="6"
         height="84"
         width="84"
         y="6"
         x="6"
         fill="#fff"
         id="rect16" />
    </clipPath>
    <clipPath
       id="clipPath18">
      <rect
         rx="6"
         height="84"
         width="84"
         y="6"
         x="6"
         fill="#fff"
         id="rect20" />
    </clipPath>
    <clipPath
       id="clipPath22">
      <rect
         rx="6"
         height="84"
         width="84"
         y="6"
         x="6"
         fill="#fff"
         id="rect24" />
    </clipPath>
    <clipPath
       id="clipPath26">
      <rect
         rx="6"
         height="84"
         width="84"
         y="6"
         x="6"
         fill="#fff"
         id="rect28" />
    </clipPath>
    <clipPath
       id="clipPath30">
      <rect
         rx="6"
         height="84"
         width="84"
         y="6"
         x="6"
         fill="#fff"
         id="rect32" />
    </clipPath>
    <clipPath
       id="clipPath34">
      <rect
         rx="6"
         height="84"
         width="84"
         y="6"
         x="6"
         fill="#fff"
         id="rect36" />
    </clipPath>
    <clipPath
       id="clipPath38">
      <rect
         rx="6"
         height="84"
         width="84"
         y="6"
         x="6"
         fill="#fff"
         id="rect40" />
    </clipPath>
    <clipPath
       id="clipPath42">
      <rect
         rx="6"
         height="84"
         width="84"
         y="6"
         x="6"
         fill="#fff"
         id="rect44" />
    </clipPath>
    <clipPath
       id="clipPath46">
      <rect
         rx="6"
         height="84"
         width="84"
         y="6"
         x="6"
         fill="#fff"
         id="rect48" />
    </clipPath>
    <clipPath
       id="clipPath50">
      <rect
         rx="6"
         height="84"
         width="84"
         y="6"
         x="6"
         fill="#fff"
         id="rect52" />
    </clipPath>
    <clipPath
       id="clipPath54">
      <rect
         rx="6"
         height="84"
         width="84"
         y="6"
         x="6"
         fill="#fff"
         id="rect56" />
    </clipPath>
    <clipPath
       id="clipPath58">
      <rect
         rx="6"
         height="84"
         width="84"
         y="6"
         x="6"
         fill="#fff"
         id="rect60" />
    </clipPath>
    <clipPath
       id="clipPath62">
      <rect
         rx="6"
         height="84"
         width="84"
         y="6"
         x="6"
         fill="#fff"
         id="rect64" />
    </clipPath>
    <clipPath
       id="clipPath66">
      <rect
         rx="6"
         height="84"
         width="84"
         y="6"
         x="6"
         fill="#fff"
         id="rect68" />
    </clipPath>
    <clipPath
       id="clipPath70">
      <rect
         rx="6"
         height="84"
         width="84"
         y="6"
         x="6"
         fill="#fff"
         id="rect72" />
    </clipPath>
    <clipPath
       id="clipPath74">
      <rect
         rx="6"
         height="84"
         width="84"
         y="6"
         x="6"
         fill="#fff"
         id="rect76" />
    </clipPath>
    <clipPath
       id="clipPath78">
      <rect
         rx="6"
         height="84"
         width="84"
         y="6"
         x="6"
         fill="#fff"
         id="rect80" />
    </clipPath>
    <clipPath
       id="clipPath82">
      <rect
         rx="6"
         height="84"
         width="84"
         y="6"
         x="6"
         fill="#fff"
         id="rect84" />
    </clipPath>
    <filter
       width="1.384"
       y="-.192"
       x="-.192"
       height="1.384"
       color-interpolation-filters="sRGB"
       id="filter86">
      <feGaussianBlur
         stdDeviation="5.28"
         id="feGaussianBlur88" />
    </filter>
    <filter
       color-interpolation-filters="sRGB"
       id="filter90">
      <feGaussianBlur
         stdDeviation="1.71"
         id="feGaussianBlur92" />
    </filter>
    <linearGradient
       id="1">
      <stop
         stop-color="#fff"
         id="stop95" />
      <stop
         stop-color="#fff"
         stop-opacity="0"
         offset="1"
         id="stop97" />
    </linearGradient>
    <linearGradient
       y2="7"
       xlink:href="#0"
       gradientUnits="userSpaceOnUse"
       x2="0"
       y1="92.08"
       id="linearGradient99" />
    <linearGradient
       id="0"
       y2="7.02"
       gradientUnits="userSpaceOnUse"
       x2="0"
       gradientTransform="scale(1.0059.99417)"
       y1="92.54">
      <stop
         id="stop102" />
      <stop
         stop-opacity=".588"
         offset="1"
         id="stop104" />
    </linearGradient>
    <linearGradient
       y2="-86.71"
       gradientUnits="userSpaceOnUse"
       x2="0"
       y1="175.22"
       id="linearGradient106">
      <stop
         stop-color="#2276c5"
         id="stop108" />
      <stop
         stop-color="#69a9e6"
         offset="1"
         id="stop110" />
    </linearGradient>
    <linearGradient
       y2="138.66"
       xlink:href="#1"
       gradientUnits="userSpaceOnUse"
       x2="0"
       y1="20.221"
       id="linearGradient112" />
    <linearGradient
       y2="93.83"
       xlink:href="#1"
       gradientUnits="userSpaceOnUse"
       x2="0"
       y1="-86.67"
       id="linearGradient114" />
    <linearGradient
       xlink:href="#0"
       gradientUnits="userSpaceOnUse"
       y1="92.54"
       gradientTransform="scale(1.0059.99417)"
       x2="0"
       y2="7.02"
       id="linearGradient116" />
  </defs>
  <g
     id="g3504"
     transform="translate(382.19718,-295.66197)">
    <path
       d="m -356.20218,295.66147 c -14.397,0 -26,11.603 -26,26 l 0,460 c 0,14.397 11.603,26 26,26 l 460,0 c 14.397,0 26,-11.603 26,-26 l 0,-460 c 0,-14.397 -11.6,-26 -26,-26 l -460,0"
       id="path120"
       inkscape:connector-curvature="0"
       style="fill:#da4936" />
    <path
       style="color:#000000;fill:#f6ab38;fill-rule:evenodd"
       inkscape:connector-curvature="0"
       id="path124"
       d="m -126.20218,551.66147 0,256 230,0 c 14.397,0 26,-11.603 26,-26 l 0,-230 -256,0" />
    <path
       style="color:#000000;fill:#6e8dc4;fill-rule:evenodd"
       inkscape:connector-curvature="0"
       id="path126"
       d="m -356.20218,295.66147 c -14.397,0 -26,11.603 -26,26 l 0,230 256,0 0,-256 -230,0" />
    <path
       style="color:#000000;fill:#42b148;fill-rule:evenodd"
       inkscape:connector-curvature="0"
       id="path128"
       d="m -382.20218,551.66147 0,230 c 0,14.397 11.603,26 26,26 l 230,0 0,-256 -256,0" />
    <path
       d="m -254.55218,336.66147 c -7.23,0 -14.47,2.771 -20.01,8.311 l -58.34,58.35 c -11.08,11.08 -11.05,28.91 0.025,39.99 l 94.05,94.04 c -1.14,9.45 -1.08,19.02 0.13,28.46 0,0.01 -0.03,0.02 -0.03,0.03 l -94.17,94.17 c -11.08,11.08 -11.05,28.91 0.025,39.99 l 58.35,58.35 49.31,49.31 329.02,0 c 14.4,0 26,-11.6 26,-26 l 0,-329.05 -49.300003,-49.29 -58.34,-58.35 c -11.08,-11.08 -28.9400001,-11.08 -40.02,0 l -92.029997,92.02 c -10.7,-1.37 -21.56,-1.24 -32.23,0.4 l -92.42,-92.42 c -5.54,-5.54 -12.78,-8.311 -20.01,-8.311"
       id="path130"
       inkscape:connector-curvature="0"
       style="opacity:0.25" />
    <path
       d="m -332.91218,403.32147 c -11.08,11.08 -11.05,28.91 0.026,39.989 l 94.04,94.04 c -1.134,9.456 -1.078,19.02 0.131,28.467 0.001,0.007 -0.027,0.019 -0.026,0.026 l -94.17,94.17 c -11.08,11.08 -11.05,28.91 0.026,39.989 l 58.35,58.35 c 11.08,11.08 28.884,11.08 39.963,0 l 93.36,-93.36 c 10.06,1.459 20.286,1.577 30.378,0.367 l 92.989997,92.99 c 11.0799999,11.08 28.884,11.08 39.963,0 l 58.35,-58.35 c 11.08,-11.08 11.11,-28.91 0.026,-39.989 l -91.37,-91.37 c 1.7309999,-11.3 1.7709999,-22.812 0.131,-34.12 l 91.21,-91.21 c 11.08,-11.08 11.11,-28.91 0.026,-39.989 l -58.35,-58.35 c -11.08,-11.08 -28.9360001,-11.08 -40.02,0 l -92.029997,92.03 c -10.704,-1.372 -21.564,-1.242 -32.24,0.393 l -92.4,-92.42 c -11.08,-11.08 -28.936,-11.08 -40.02,0 l -58.34,58.35 z m 120.75,73.14 c -0.393,0.46 -0.794,0.923 -1.178,1.388 0.386,-0.466 0.784,-0.926 1.178,-1.388 m -5.761,7.333 c -0.395,0.547 -0.794,1.098 -1.179,1.65 0.387,-0.555 0.781,-1.1 1.179,-1.65 m -5.814,8.852 c -0.244,0.414 -0.495,0.841 -0.733,1.257 0.242,-0.421 0.486,-0.838 0.733,-1.257 m 30.614,-10.03 c 37.833,-37.833 99.179997,-37.833 137.019997,0 37.833,37.833 37.833,99.18 0,137.02 -37.834,37.834 -99.179997,37.834 -137.019997,0 -37.833,-37.833 -37.834,-99.18 0,-137.02 m 112.739997,-37.737 c 1.415,0.588 2.821,1.212 4.216,1.859 -1.398,-0.649 -2.798,-1.27 -4.216,-1.859 m 21.448,11.759 c 0.575,0.401 1.133,0.818 1.702,1.231 -0.566,-0.41 -1.13,-0.833 -1.702,-1.231 m -160.089997,160.3 c 0.37,0.53 0.772,1.046 1.152,1.571 -0.382,-0.528 -0.78,-1.038 -1.152,-1.571 m 151.629997,34.04 c 0.416,-0.239 0.843,-0.489 1.257,-0.733 -0.419,0.247 -0.836,0.492 -1.257,0.733 m 8.459,-5.369 c 0.552,-0.385 1.103,-0.783 1.65,-1.178 -0.55,0.398 -1.095,0.792 -1.65,1.178 m 7.595,-5.761 c 0.465,-0.385 0.928,-0.785 1.388,-1.178 -0.462,0.394 -0.922,0.793 -1.388,1.178"
       id="path132"
       inkscape:connector-curvature="0"
       style="fill:#ffffff" />
  </g>
</svg>
