<?xml version="1.0" encoding="UTF-8" standalone="no"?>
<svg
   xmlns:dc="http://purl.org/dc/elements/1.1/"
   xmlns:cc="http://creativecommons.org/ns#"
   xmlns:rdf="http://www.w3.org/1999/02/22-rdf-syntax-ns#"
   xmlns:svg="http://www.w3.org/2000/svg"
   xmlns="http://www.w3.org/2000/svg"
   xmlns:xlink="http://www.w3.org/1999/xlink"
   xmlns:sodipodi="http://sodipodi.sourceforge.net/DTD/sodipodi-0.dtd"
   xmlns:inkscape="http://www.inkscape.org/namespaces/inkscape"
   viewBox="0 0 512 512"
   id="svg2"
   version="1.1"
   inkscape:version="0.91 r13725"
   sodipodi:docname="google-news.svg">
  <metadata
     id="metadata128">
    <rdf:RDF>
      <cc:Work
         rdf:about="">
        <dc:format>image/svg+xml</dc:format>
        <dc:type
           rdf:resource="http://purl.org/dc/dcmitype/StillImage" />
      </cc:Work>
    </rdf:RDF>
  </metadata>
  <sodipodi:namedview
     pagecolor="#ffffff"
     bordercolor="#666666"
     borderopacity="1"
     objecttolerance="10"
     gridtolerance="10"
     guidetolerance="10"
     inkscape:pageopacity="0"
     inkscape:pageshadow="2"
     inkscape:window-width="640"
     inkscape:window-height="480"
     id="namedview126"
     showgrid="false"
     inkscape:zoom="0.5546875"
     inkscape:cx="36.056338"
     inkscape:cy="240.67606"
     inkscape:current-layer="svg2" />
  <defs
     id="defs4">
    <clipPath
       id="clipPath6">
      <rect
         rx="6"
         height="84"
         width="84"
         y="6"
         x="6"
         fill="#fff"
         id="rect8" />
    </clipPath>
    <clipPath
       id="clipPath10">
      <rect
         rx="6"
         height="84"
         width="84"
         y="6"
         x="6"
         fill="#fff"
         id="rect12" />
    </clipPath>
    <clipPath
       id="clipPath14">
      <rect
         rx="6"
         height="84"
         width="84"
         y="6"
         x="6"
         fill="#fff"
         id="rect16" />
    </clipPath>
    <clipPath
       id="clipPath18">
      <rect
         rx="6"
         height="84"
         width="84"
         y="6"
         x="6"
         fill="#fff"
         id="rect20" />
    </clipPath>
    <clipPath
       id="clipPath22">
      <rect
         rx="6"
         height="84"
         width="84"
         y="6"
         x="6"
         fill="#fff"
         id="rect24" />
    </clipPath>
    <clipPath
       id="clipPath26">
      <rect
         rx="6"
         height="84"
         width="84"
         y="6"
         x="6"
         fill="#fff"
         id="rect28" />
    </clipPath>
    <clipPath
       id="clipPath30">
      <rect
         rx="6"
         height="84"
         width="84"
         y="6"
         x="6"
         fill="#fff"
         id="rect32" />
    </clipPath>
    <clipPath
       id="clipPath34">
      <rect
         rx="6"
         height="84"
         width="84"
         y="6"
         x="6"
         fill="#fff"
         id="rect36" />
    </clipPath>
    <clipPath
       id="clipPath38">
      <rect
         rx="6"
         height="84"
         width="84"
         y="6"
         x="6"
         fill="#fff"
         id="rect40" />
    </clipPath>
    <clipPath
       id="clipPath42">
      <rect
         rx="6"
         height="84"
         width="84"
         y="6"
         x="6"
         fill="#fff"
         id="rect44" />
    </clipPath>
    <clipPath
       id="clipPath46">
      <rect
         rx="6"
         height="84"
         width="84"
         y="6"
         x="6"
         fill="#fff"
         id="rect48" />
    </clipPath>
    <clipPath
       id="clipPath50">
      <rect
         rx="6"
         height="84"
         width="84"
         y="6"
         x="6"
         fill="#fff"
         id="rect52" />
    </clipPath>
    <clipPath
       id="clipPath54">
      <rect
         rx="6"
         height="84"
         width="84"
         y="6"
         x="6"
         fill="#fff"
         id="rect56" />
    </clipPath>
    <clipPath
       id="clipPath58">
      <rect
         rx="6"
         height="84"
         width="84"
         y="6"
         x="6"
         fill="#fff"
         id="rect60" />
    </clipPath>
    <clipPath
       id="clipPath62">
      <rect
         rx="6"
         height="84"
         width="84"
         y="6"
         x="6"
         fill="#fff"
         id="rect64" />
    </clipPath>
    <clipPath
       id="clipPath66">
      <rect
         rx="6"
         height="84"
         width="84"
         y="6"
         x="6"
         fill="#fff"
         id="rect68" />
    </clipPath>
    <clipPath
       id="clipPath70">
      <rect
         rx="6"
         height="84"
         width="84"
         y="6"
         x="6"
         fill="#fff"
         id="rect72" />
    </clipPath>
    <clipPath
       id="clipPath74">
      <rect
         rx="6"
         height="84"
         width="84"
         y="6"
         x="6"
         fill="#fff"
         id="rect76" />
    </clipPath>
    <clipPath
       id="clipPath78">
      <rect
         rx="6"
         height="84"
         width="84"
         y="6"
         x="6"
         fill="#fff"
         id="rect80" />
    </clipPath>
    <clipPath
       id="clipPath82">
      <rect
         rx="6"
         height="84"
         width="84"
         y="6"
         x="6"
         fill="#fff"
         id="rect84" />
    </clipPath>
    <filter
       width="1.384"
       y="-.192"
       x="-.192"
       height="1.384"
       color-interpolation-filters="sRGB"
       id="filter86">
      <feGaussianBlur
         stdDeviation="5.28"
         id="feGaussianBlur88" />
    </filter>
    <filter
       color-interpolation-filters="sRGB"
       id="filter90">
      <feGaussianBlur
         stdDeviation="1.71"
         id="feGaussianBlur92" />
    </filter>
    <linearGradient
       id="1">
      <stop
         stop-color="#fff"
         id="stop95" />
      <stop
         stop-color="#fff"
         stop-opacity="0"
         offset="1"
         id="stop97" />
    </linearGradient>
    <linearGradient
       y2="7"
       xlink:href="#0"
       gradientUnits="userSpaceOnUse"
       x2="0"
       y1="92.08"
       id="linearGradient99" />
    <linearGradient
       id="0"
       y2="7.02"
       gradientUnits="userSpaceOnUse"
       x2="0"
       gradientTransform="scale(1.0059.99417)"
       y1="92.54">
      <stop
         id="stop102" />
      <stop
         stop-opacity=".588"
         offset="1"
         id="stop104" />
    </linearGradient>
    <linearGradient
       y2="-86.71"
       gradientUnits="userSpaceOnUse"
       x2="0"
       y1="175.22"
       id="linearGradient106">
      <stop
         stop-color="#2276c5"
         id="stop108" />
      <stop
         stop-color="#69a9e6"
         offset="1"
         id="stop110" />
    </linearGradient>
    <linearGradient
       y2="138.66"
       xlink:href="#1"
       gradientUnits="userSpaceOnUse"
       x2="0"
       y1="20.221"
       id="linearGradient112" />
    <linearGradient
       y2="93.83"
       xlink:href="#1"
       gradientUnits="userSpaceOnUse"
       x2="0"
       y1="-86.67"
       id="linearGradient114" />
    <linearGradient
       xlink:href="#0"
       gradientUnits="userSpaceOnUse"
       y1="92.54"
       gradientTransform="scale(1.0059.99417)"
       x2="0"
       y2="7.02"
       id="linearGradient116" />
  </defs>
  <g
     id="g3480"
     transform="translate(362.3662,-324.50704)">
    <path
       id="path118"
       d="m -336.3662,324.50704 c -14.397,0 -26,11.603 -26,26 l 0,460 c 0,14.397 11.603,26 26,26 l 460,0 c 14.397,0 26,-11.603 26,-26 l 0,-460 c 0,-14.397 -11.6,-26 -26,-26 l -460,0"
       style="fill:#d23638"
       inkscape:connector-curvature="0" />
    <g
       transform="translate(-362.3662,324.50704)"
       id="g120"
       style="color:#000000;fill-rule:evenodd">
      <path
         id="path122"
         d="m 41,98.03 0,256.21 34.695,34.7 -24.769,0 0,25.03 98.02,98.03 337.05,0 c 14.4,0 26,-11.6 26,-26 l 0,-346.62 -41,-41 -183.75,0 0,25.08 33.03,33.02 -19.07,0 -58.45,-58.45 -201.76,0 z"
         inkscape:connector-curvature="0"
         style="opacity:0.25" />
      <path
         id="path124"
         d="m 41,98.03 0,256.22 201.76,0 0,-256.22 -201.76,0 m 246.25,0.351 0,25.08 183.75,0 0,-25.08 -183.75,0 m -137.51,29.12 1.23,0 55.38,0.132 -16.425,9.618 -14.493,0 c 0.156,0.477 8.444,6.78 13.263,16.469 2.593,5.214 4.128,11.384 4.128,17.875 0,3 0.192,6.24 -0.834,9.355 -1.702,5.171 -2.911,8.644 -4.567,11.02 -5.53,7.939 -7.887,6.613 -17.04,17.216 -5.02,5.811 -6.482,9.304 -6.588,12.165 -0.072,2.049 0.264,4.775 2.284,6.895 2.138,2.244 5.463,4.266 10.233,8.169 7.678,6.279 15.538,12.717 20.11,20.2 4.707,7.695 5.967,16.475 4.831,25.868 -2.256,18.688 -28.12,43.44 -69.917,42.25 -41.615,-1.2 -51.25,-24.69 -51.25,-24.69 0,0 -9.969,-17.972 8.432,-37.506 18.396,-19.53 57.27,-18.533 57.27,-18.533 0,0 1.552,-0.07 -0.571,-2.547 -8.894,-10.377 -4.48,-25.08 -4.48,-25.08 0,0 -11.11,1.338 -21.564,-1.581 -3.478,-0.968 -11.902,-5.885 -11.902,-5.885 0,0 -24.05,-13.06 -14.713,-45.894 6.04,-21.233 27.378,-31.419 42.82,-34.21 6.533,-1.186 12.03,-1.318 14.361,-1.317 z m -11.902,9 c -5.072,-0.034 -8.608,1.493 -8.608,1.493 -5.591,3.506 -19.877,5.403 -14.01,40.888 5.756,34.834 37.07,30.04 37.07,30.04 0,0 27.33,-5.981 14.273,-45.15 -7.605,-22.826 -20.271,-27.21 -28.722,-27.27 m 149.41,19.983 0,25.08 183.75,0 0,-25.08 -183.75,0 m 0,58.15 0,25.03 183.75,0 0,-25.03 -183.75,0 m -132.11,37.24 c -5.409,0.365 -10.93,0.078 -15.06,0.439 -12.429,1.083 -19.02,3.177 -25.736,7.686 -3.156,2.119 -6.553,3.967 -9.618,8.125 -12.184,16.532 4.284,35.01 7.246,36.54 5.7,2.947 17.227,8.847 32.499,8.784 6.213,-0.026 16.07,-0.381 21.695,-3.338 19.05,-10.02 18.878,-19.15 16.25,-31.709 -2.346,-11.207 -27.27,-26.526 -27.27,-26.526 m 132.1,20.861 0,25.03 183.75,0 0,-25.03 -183.75,0 m 0,58.1 0,25.03 183.75,0 0,-25.03 -183.75,0 m -236.32,58.1 0,25.03 420.07,0 0,-25.03 -420.07,0"
         inkscape:connector-curvature="0"
         style="fill:#ffffff" />
    </g>
  </g>
</svg>
