<?xml version="1.0" encoding="UTF-8" standalone="no"?>
<!-- Created with Inkscape (http://www.inkscape.org/) -->

<svg
   xmlns:dc="http://purl.org/dc/elements/1.1/"
   xmlns:cc="http://creativecommons.org/ns#"
   xmlns:rdf="http://www.w3.org/1999/02/22-rdf-syntax-ns#"
   xmlns:svg="http://www.w3.org/2000/svg"
   xmlns="http://www.w3.org/2000/svg"
   xmlns:sodipodi="http://sodipodi.sourceforge.net/DTD/sodipodi-0.dtd"
   xmlns:inkscape="http://www.inkscape.org/namespaces/inkscape"
   id="svg2"
   height="100%"
   width="100%"
   version="1.1"
   viewBox="0 0 512 512"
   inkscape:version="0.91 r13725"
   sodipodi:docname="googleplus.svg">
  <defs
     id="defs78" />
  <sodipodi:namedview
     pagecolor="#ffffff"
     bordercolor="#666666"
     borderopacity="1"
     objecttolerance="10"
     gridtolerance="10"
     guidetolerance="10"
     inkscape:pageopacity="0"
     inkscape:pageshadow="2"
     inkscape:window-width="640"
     inkscape:window-height="480"
     id="namedview76"
     showgrid="false"
     inkscape:zoom="0.5546875"
     inkscape:cx="36.056338"
     inkscape:cy="240.67606"
     inkscape:current-layer="svg2" />
  <metadata
     id="metadata10">
    <rdf:RDF>
      <cc:Work
         rdf:about="">
        <dc:format>image/svg+xml</dc:format>
        <dc:type
           rdf:resource="http://purl.org/dc/dcmitype/StillImage" />
        <dc:title />
      </cc:Work>
    </rdf:RDF>
  </metadata>
  <path
     inkscape:connector-curvature="0"
     style="fill:#dd4b38"
     id="rect2986"
     d="M 26,0 C 11.603,0 0,11.603 0,26 l 0,460 c 0,14.397 11.603,26 26,26 l 460,0 c 14.397,0 26,-11.603 26,-26 L 512,26 C 512,11.603 500.4,0 486,0 L 26,0 Z" />
  <path
     inkscape:connector-curvature="0"
     style="opacity:0.25"
     id="path3133"
     d="m 183.38,61.795 c -4.59,-0.001 -15.38,0.254 -28.24,2.59 -30.4,5.498 -72.424,25.564 -84.308,67.365 -12.078,42.45 4.203,68.09 16.803,80.69 l 78.865,78.87 c -21.26,0.82 -74.954,5.94 -103.6,36.35 -36.222,38.45 -16.588,73.83 -16.588,73.83 0,0 3.146,7.67 12.397,16.92 L 152.3,512 486,512 c 14.4,0 26,-11.6 26,-26 l 0,-210.93 -113.98,-113.98 -4.18,0 -99,-99.004 -109.08,-0.285 -2.37,0 -0.01,-0.006 z" />
  <path
     inkscape:connector-curvature="0"
     style="fill:#ffffff"
     id="path66"
     d="m 183.38,61.795 c -4.5961,-0.001 -15.379,0.25376 -28.241,2.5893 -30.396,5.4985 -72.425,25.565 -84.309,67.362 -18.391,64.643 28.968,90.303 28.968,90.303 0,0 16.577,9.7398 23.421,11.652 20.585,5.7458 42.482,3.0748 42.482,3.0748 0,0 -8.7261,28.936 8.7792,49.366 4.1792,4.8757 1.1328,5.0169 1.1328,5.0169 0,0 -76.489,-1.9562 -112.71,36.497 -36.222,38.452 -16.589,73.835 -16.589,73.835 0,0 18.988,46.292 100.9,48.632 82.276,2.3472 133.16,-46.398 137.6,-83.183 2.2359,-18.489 -0.28354,-35.789 -9.5482,-50.932 -9.0083,-14.733 -24.497,-27.408 -39.609,-39.771 -9.3903,-7.6826 -15.939,-11.644 -20.149,-16.062 -3.9759,-4.1727 -4.6323,-9.5612 -4.4912,-13.594 0.20715,-5.6318 3.1499,-12.512 13.024,-23.951 18.018,-20.87 22.614,-18.281 33.5,-33.907 3.2613,-4.6828 5.6318,-11.508 8.9824,-21.686 2.0197,-6.1316 1.6999,-12.499 1.6999,-18.409 0,-12.777 -3.0671,-24.935 -8.1733,-35.202 -9.4861,-19.073 -25.783,-31.472 -26.101,-32.406 l 28.56,0 32.327,-18.935 -109.08,-0.28353 -2.3874,0 m -23.41,17.714 c 16.637,0.12429 41.624,8.7585 56.602,53.689 25.701,77.098 -28.119,88.853 -28.119,88.853 0,0 -61.69,9.499 -73.032,-59.069 -11.548,-69.849 16.587,-73.616 27.593,-80.516 0,0 6.9705,-3.0205 16.947,-2.9531 m 194.41,81.564 0,73.594 -73.188,0 0,43.655 73.188,0 0,72.579 43.655,0 0,-72.579 72.994,0 0,-43.655 -72.981,0 0,-73.594 -43.655,0 m -160.33,145.61 c 0,0 49.111,30.088 53.729,52.149 5.1735,24.715 5.4881,42.713 -32.003,62.429 -11.068,5.8208 -30.491,6.4993 -42.724,6.5549 -30.062,0.12429 -52.742,-11.435 -63.97,-17.236 -5.8325,-3.0166 -38.225,-39.396 -14.241,-71.932 6.0332,-8.1849 12.683,-11.811 18.894,-15.981 13.219,-8.875 26.191,-13.037 50.661,-15.172 8.137,-0.71078 19.01,-0.0906 29.656,-0.80917" />
</svg>
