<?xml version="1.0" encoding="UTF-8" standalone="no"?>
<!-- Created with Inkscape (http://www.inkscape.org/) -->

<svg
   xmlns:dc="http://purl.org/dc/elements/1.1/"
   xmlns:cc="http://creativecommons.org/ns#"
   xmlns:rdf="http://www.w3.org/1999/02/22-rdf-syntax-ns#"
   xmlns:svg="http://www.w3.org/2000/svg"
   xmlns="http://www.w3.org/2000/svg"
   xmlns:sodipodi="http://sodipodi.sourceforge.net/DTD/sodipodi-0.dtd"
   xmlns:inkscape="http://www.inkscape.org/namespaces/inkscape"
   id="svg2"
   height="100%"
   width="100%"
   version="1.1"
   viewBox="0 0 512 512"
   inkscape:version="0.91 r13725"
   sodipodi:docname="imageshack.svg">
  <defs
     id="defs219" />
  <sodipodi:namedview
     pagecolor="#ffffff"
     bordercolor="#666666"
     borderopacity="1"
     objecttolerance="10"
     gridtolerance="10"
     guidetolerance="10"
     inkscape:pageopacity="0"
     inkscape:pageshadow="2"
     inkscape:window-width="640"
     inkscape:window-height="480"
     id="namedview217"
     showgrid="false"
     inkscape:zoom="0.5546875"
     inkscape:cx="36.056338"
     inkscape:cy="240.67606"
     inkscape:current-layer="svg2" />
  <metadata
     id="metadata10">
    <rdf:RDF>
      <cc:Work
         rdf:about="">
        <dc:format>image/svg+xml</dc:format>
        <dc:type
           rdf:resource="http://purl.org/dc/dcmitype/StillImage" />
        <dc:title />
      </cc:Work>
    </rdf:RDF>
  </metadata>
  <g
     id="g3568"
     transform="translate(396.61972,-328.11268)">
    <path
       d="m -370.61972,328.11268 c -14.397,0 -26,11.603 -26,26 l 0,460 c 0,14.397 11.603,26 26,26 l 460.000002,0 c 14.396998,0 25.999998,-11.603 25.999998,-26 l 0,-460 c 0,-14.397 -11.6,-26 -25.999998,-26 l -460.000002,0 z"
       id="rect2986"
       style="fill:#f38725"
       inkscape:connector-curvature="0" />
    <path
       d="m -277.33972,412.07568 c -1.13,-0.009 -2.28,-0.003 -3.46,0.017 -2.7,0.047 -5.53,0.163 -8.49,0.358 -18.031,1.118 -40.169,2.613 -49.184,3.172 -26.485,1.734 -21.624,33.85 10.006,65.98 14.561,14.79 37.188,39.06 50.348,54.01 l 23.9,27.16 -12.07,35.78 c -10.63,31.46 -15.16,36.56 -37.564,42.44 -43.44,11.48 -46.575,15.24 -35.827,43.01 3.373,8.68 6.798,14.81 11.225,19.23 l 21.33,21.33 c -14.425,4.91 -21.444,12.4 -17.496,16.35 l 99.202,99.2 314.800002,0 c 14.399998,0 25.999998,-11.6 25.999998,-26 l 0,-202.85 -48.549998,-48.55 c -4.43,-4.43 -10.5,-8.12 -17.41,-10.52 l -41.0400003,-41.04 c -2.81,-2.82 -7.2,-4.2 -13.92,-5.07 -10.0199997,-1.29 -21.4299997,-4.76 -25.4599997,-7.73 -3.99,-2.91 -18.63,-7.63 -32.52,-10.36 -13.83,-2.8 -30.22,-7.66 -36.32,-10.86 -19.650002,-10.13 -101.470002,-40.11 -109.530002,-40.11 -4.26,0 -16.67,-5.96 -27.48,-13.359 -11.71,-7.948 -23.52,-11.451 -40.49,-11.588 z"
       id="path3843"
       style="opacity:0.25"
       inkscape:connector-curvature="0" />
    <path
       d="m -280.79972,412.09368 c -2.6943,0.0467 -5.5209,0.1621 -8.4876,0.35737 -18.029,1.1179 -40.168,2.6127 -49.183,3.1717 -26.485,1.7342 -21.624,33.848 10.006,65.98 14.561,14.79 37.188,39.06 50.345,54.008 l 23.899,27.16 -12.061,35.782 c -10.634,31.458 -15.168,36.562 -37.569,42.438 -43.44,11.48 -46.575,15.243 -35.826,43.019 7.2232,18.588 14.69,25.453 31.717,29.036 l 22.291,4.6905 -20.013,6.3433 c -20.494,6.4923 -27.182,18.27 -10.944,19.387 5.0448,0.34398 22.23,0.20156 38.239,-0.35737 16.009,-0.57328 37.289,1.9757 47.307,5.6733 l 0.0446,0.0446 c 10.018,3.8696 23.046,6.9965 29.036,7.3261 13.601,0.38695 116.460002,-98.288 116.460002,-111.95 0,-10.247 25.522,-14.246 31.627,-4.9585 1.8488,2.7947 -7.7327,12.723 -21.219,22.068 -14.676,10.133 -24.633,23.04 -24.748,31.94 0,8.1691 -3.477602,16.724 -7.504802,19.075 -3.9842,2.2931 -7.2814,7.0615 -7.2814,10.587 0,9.803 24.636002,7.6194 40.472002,-3.5737 19.936,-14.102 37.727,-12.792 47.128,3.6184 6.3777,11.193 10.064,12.376 18.4049997,5.9413 5.7184,-4.3712 10.453,-14.888 10.453,-23.229 0,-8.2551 10.0570003,-25.039 22.4250003,-37.077 23.232,-22.73 49.879,-70.381 50.166,-89.7 0.21498,-15.392 -20.401,-29.706 -42.572,-29.706 -15.622,0 -18.52,-3.129 -18.807,-20.37 -0.28663,-16.453 -3.8199003,-20.832 -18.5390003,-22.738 -10.0179997,-1.2898 -21.4349997,-4.7614 -25.4629997,-7.7282 -3.9843,-2.9094 -18.633,-7.6264 -32.521,-10.364 -13.83,-2.7947 -30.212,-7.6592 -36.318,-10.855 -19.649002,-10.133 -101.470002,-40.115 -109.530002,-40.115 -4.2565,0 -16.667,-5.9615 -27.473,-13.357 -12.51,-8.447 -25.11,-11.866 -43.97,-11.539 z m -21.085,7.7728 c 3.696,-0.0629 6.8836,0.25083 9.0683,1.0274 5.3171,1.9061 7.9284,9.2225 5.8073,16.618 -7.8968,28.047 29.231,36.332 45.297,19.879 5.4748,-5.5894 10.73,-13.535 18.226,-13.535 13.544,0 88.606,26.903 124.720002,44.761 10.634,5.2598 27.442,9.6043 37.345,9.6043 10.032,0 22.115,4.6597 27.16,10.364 5.6467,6.3203 14.82,8.6803 23.72,5.986 12.3679997,-3.6403 13.9149997,-1.9096 10.27399969,11.749 -4.87279999,18.474 18.53400031,53.725 27.20500031,40.74 2.7947,-4.2566 11.484,-7.7282 19.209,-7.7282 26.872,0 15.214,44.141 -21.174,80.587 -33.4790003,33.422 -58.122,22.413 -68.928,-31.002 -3.8696,-19.033 -1.7623,-23.409 16.439,-33.37 18.4739997,-10.19 19.9489997,-13.454 12.955,-27.786 -6.8363,-13.988 -8.8142,-14.73 -14.518,-5.2712 -3.9269,6.4923 -14.404,10.418 -25.999,9.515 -10.634,-0.77391 -25.285,0.97705 -32.565,3.8864 -7.5672,3.0097 -16.601002,2.0997 -21.130002,-2.0996 -5.1021,-4.7582 -12.346,-5.144 -20.415,-1.1168 -17.743,8.8427 -39.109,-14.124 -32.789,-35.335 4.4142,-15.005 4.1206,-15.146 -6.2987,-2.993 -10.133,11.695 -7.7668,16.744 28.679,62.763 37.678,47.539 50.756002,80.402 30.377,76.031 -5.1451,-1.1179 -25.508,12.544 -45.386,30.287 l 0.17869,-0.0446 c -31.802,28.492 -47.262,38.175 -47.262,29.662 0,-1.4618 13.388,-21.399 29.84,-44.359 l 29.83,-41.72 -27.96,-30.87 c -59.678,-65.783 -57.175,-61.114 -43.689,-80.319 6.607,-9.416 12.017,-20.253 12.017,-24.123 0,-9.8603 -19.959,-8.8565 -23.542,1.1615 -3.2963,9.2297 -114.67,-38.894 -114.67,-49.585 0,-3.411 -0.88563,-8.2881 -1.8315,-10.81 -2.0494,-5.1469 23.786,-12.28 39.802,-12.553 z m 38.328,0.58073 c 7.7476,-0.42394 16.127,3.4325 19.521,9.6937 7.5664,14.048 -6.048,28.258 -19.923,25.909 -19.549,-3.3536 -21.677,-17.472 -11.659,-29.84 2.9828,-3.7191 7.4127,-5.5082 12.061,-5.7626 z m 0.89343,10.81 c -3.7979,0 -6.8794,3.0671 -6.8794,6.8794 0,3.7549 3.0671,6.8347 6.8794,6.8347 3.7549,0 6.8347,-3.0798 6.8347,-6.8347 0,-3.7979 -3.0798,-6.8794 -6.8347,-6.8794 z m 25.597,134.91 c 3.411,0 0.98507,12.244 -5.4499,27.25 -6.435,15.005 -10.138,34.957 -8.1749,44.359 1.9061,9.3443 0.0322,19.047 -4.1098,21.398 -10.849,6.3347 -48.692,6.488 -48.692,0.26803 0,-2.8664 7.9636,-8.6215 17.824,-12.821 12.54,-5.3744 21.481,-18.362 30.109,-44.001 6.7789,-20.036 15.026,-36.452 18.494,-36.452 z m 45.029,35.737 c 8.6241,0.0237 16.643,5.1787 23.899,15.412 8.6851,12.268 6.7837,18.071 -17.064,52.668 -14.776,21.383 -28.99,38.909 -31.627,38.909 -2.6944,0 -8.9053,-4.5813 -13.893,-10.185 -9.9033,-11.136 -29.126,-13.9 -29.126,-4.1544 0,3.4253 -13.146,2.9425 -29.885,-1.0274 -24.522,-5.8187 -27.656,-8.2183 -17.467,-13.535 6.822,-3.583 21.474,-4.8031 32.61,-2.725 11.15,2.0781 22.579,1.6096 25.373,-1.0274 2.7947,-2.5797 8.9813,-4.7352 13.625,-4.7352 5.2168,0 7.6265,-8.4643 6.1647,-21.621 -1.5622,-15.063 2.4165,-26.019 13.223,-36.094 8.4983,-7.9273 16.558,-11.904 24.167,-11.883 z m 140.000002,62.093 c 1.4493,-0.0483 0.95081,1.5623 -1.2061,4.7798 -3.8553,5.876 -1.9808,7.1405 6.0306,4.2885 7.9972,-2.852 11.305,-0.57073 10.632,7.3261 l 0.0893,0 c -0.55894,6.435 -15.566,18.104 -34.04,26.445 l -33.146002,14.92 21.219002,-17.243 c 13.658,-11.136 18.214,-18.897 12.955,-21.978 -5.3744,-3.0814 -3.0256,-7.742 6.8347,-13.446 5.7614,-3.3536 9.1825,-5.0442 10.632,-5.0925 z m 31.315,30.6 c 1.405,-0.13623 3.1326,0.59212 5.0925,2.4123 l 0.0446,0 c 2.3504,2.1928 2.9807,9.5581 1.5188,16.394 -2.5224,11.867 -2.9531,11.853 -8.0408,-0.35737 -4.1168,-9.8245 -2.8301,-18.041 1.3848,-18.449 z m -225.020002,11.84 c 5.7681,0.14808 10.298,1.317 11.659,3.3504 2.1784,3.239 10.233,5.8966 17.958,5.8966 7.7822,0 14.161,4.5813 14.161,10.185 0,6.7216 -6.8562,10.068 -20.013,9.7384 -19.592,-0.45861 -56.189,-11.601 -41.857,-12.776 3.9699,-0.2723 2.8728,-3.0023 -2.5016,-6.2987 -7.1229,-4.1992 -4.5959,-6.7372 9.2916,-9.2023 3.9287,-0.7148 7.841,-0.98227 11.302,-0.89342 z"
       id="path3062"
       style="fill:#ffffff"
       inkscape:connector-curvature="0" />
  </g>
</svg>
