<?xml version="1.0" encoding="UTF-8" standalone="no"?>
<!-- Created with Inkscape (http://www.inkscape.org/) -->

<svg
   xmlns:dc="http://purl.org/dc/elements/1.1/"
   xmlns:cc="http://creativecommons.org/ns#"
   xmlns:rdf="http://www.w3.org/1999/02/22-rdf-syntax-ns#"
   xmlns:svg="http://www.w3.org/2000/svg"
   xmlns="http://www.w3.org/2000/svg"
   xmlns:sodipodi="http://sodipodi.sourceforge.net/DTD/sodipodi-0.dtd"
   xmlns:inkscape="http://www.inkscape.org/namespaces/inkscape"
   id="svg2"
   height="100%"
   width="100%"
   version="1.1"
   viewBox="0 0 512 512"
   inkscape:version="0.91+devel r13804 custom"
   sodipodi:docname="jabber.svg">
  <sodipodi:namedview
     pagecolor="#ffffff"
     bordercolor="#666666"
     borderopacity="1"
     objecttolerance="10"
     gridtolerance="10"
     guidetolerance="10"
     inkscape:pageopacity="0"
     inkscape:pageshadow="2"
     inkscape:window-width="1366"
     inkscape:window-height="709"
     id="namedview3018"
     showgrid="false"
     inkscape:zoom="0.4609375"
     inkscape:cx="-8.6779661"
     inkscape:cy="237.55932"
     inkscape:window-x="-2"
     inkscape:window-y="-3"
     inkscape:window-maximized="1"
     inkscape:current-layer="svg2" />
  <metadata
     id="metadata10">
    <rdf:RDF>
      <cc:Work
         rdf:about="">
        <dc:format>image/svg+xml</dc:format>
        <dc:type
           rdf:resource="http://purl.org/dc/dcmitype/StillImage" />
        <dc:title />
      </cc:Work>
    </rdf:RDF>
  </metadata>
  <defs
     id="defs8">
    <style
       id="style5970"
       type="text/css" />
    <style
       id="style5970-1"
       type="text/css" />
    <style
       id="style5970-4"
       type="text/css" />
    <style
       id="style5970-0"
       type="text/css" />
  </defs>
  <style
     id="style1470"
     type="text/css" />
  <style
     id="style1470-5"
     type="text/css" />
  <style
     id="style1470-9"
     type="text/css" />
  <style
     id="style1470-0"
     type="text/css" />
  <style
     id="style1470-9-7"
     type="text/css" />
  <g
     id="g6367"
     transform="translate(-4.3389815,-260.33898)">
    <path
       d="m 30.338983,260.33898 c -14.397,0 -25.9999999,11.603 -25.9999999,26 l 0,460 c 0,14.397 11.6029999,26 25.9999999,26 l 459.999997,0 c 14.397,0 26,-11.603 26,-26 l 0,-460 c 0,-14.397 -11.6,-26 -26,-26 l -459.999997,0 z"
       id="rect2986-5"
       style="fill:#d23638"
       inkscape:connector-curvature="0" />
    <path
       d="m 144.92898,301.33898 c -30.32,0.689 -63.840997,4.304 -86.632997,24.041 -10.929,9.464 -16.464,38.309 -6.002,48.769 l 71.314997,71.32 c -3.91,-1.25 -7.96,-1.92 -11.94,-1.92 -12.008997,-0.02 -23.312997,6.03 -27.763997,20.47 -6.03,19.55 -11.635,62.53 1.555,75.72 l 88.788997,88.79 c -9.96,1.26 -24.09,7.76 -31.01,4.75 -2.02,-0.34 -3.97,-0.84 -5.88,-1.45 l -50.158997,-50.16 c -2.231,-2.02 -5.061,-3.41 -7.882,-3.14 -0.404,0.04 -0.816,0.13 -1.217,0.24 -16.944,10.59 -6.078,33.4 5.359,44.84 l 74.908997,74.91 c -14.69,0.74 -29.55,-3.83 -43.27,-10.99 l -39.816997,-39.82 c -1.631,-1.55 -3.447,-2.81 -5.535,-3.64 -18.449,10.4 -8.662,31.27 4.51,44.44 l 83.831997,83.83 332.25,0 c 14.4,0 26,-11.6 26,-26 l 0,-162.31 -239.3,-239.3 c -13.39,-13.387 -29.13,-24.164 -47.6,-30.761 -26.93,-9.992 -55.97,-12.601 -84.51,-12.629 z"
       style="color:#000000;opacity:0.25"
       id="path17971"
       inkscape:connector-curvature="0" />
    <path
       d="m 144.92898,301.33898 c -30.321,0.6886 -63.840997,4.3033 -86.631997,24.041 -14.457,12.519 -19.475,58.958 9.4907,51.885 18.808,-4.5923 23.841,-31.614 45.217997,-35.845 27.479,-5.4393 55.69,-6.656 83.377,-4.2355 42.739,5.5932 84.34,31.734 100.55,73.259 13.192,33.784 20.83,74.308 0.31375,107.03 -17.491,27.894 -46.177,45.007 -70.004,66.474 -25.399,22.884 -23.757,60.973 -23.413,94.123 0.79715,76.931 31.712,66.006 15.844,-3.7257 -6.689,-29.395 4.7694,-63.03 32.041,-78.867 35.31,-20.506 67.482,-50.559 80.436,-90.79 8.0198,-24.907 3.7138,-51.059 -4.9022,-75.181 -17.25,-48.3 -47.38,-97.506 -97.81,-115.52 -26.93,-9.994 -55.97,-12.602 -84.51,-12.63 z m -33.26,142.2 c -12.010997,-0.0147 -23.315997,6.0406 -27.765997,20.472 -7.2777,23.598 -13.936,81.315 12.314,79.612 30.565997,-1.983 -6.8301,-51.91 10.902997,-74.593 23.199,-29.675 20.229,21.753 33.414,32.982 11.127,9.4766 48.396,-40.875 53.846,-8.9025 5.0851,29.831 -61.293,67.325 -30.708,80.75 22.084,9.6938 31.204,-36.375 44.316,-55.14 14.313,-20.485 13.966,-71.508 -21.884,-65.18 -16.066,2.8358 -27.252,17.318 -36.904,29.688 4.4655,-22.83 -17.513,-39.664 -37.532,-39.689 z m -32.351997,134.99 c -0.40311,0.039 -0.81419,0.12595 -1.2158,0.23531 -18.798,11.75 -3.3678,38.547 9.0986,48.16 27.957997,22.706 65.473997,33.165 97.220997,15.766 6.739,-29.142 -28.793,-4.0281 -41.179,-9.4123 -24.924,-4.2461 -40.878,-30.135 -56.041997,-51.611 -2.2314,-2.0164 -5.061,-3.411 -7.8828,-3.1374 z m -9.5692,65.533 c -24.999,14.094 1.8444,47.409 18.707,54.748 32.691997,14.23 68.493997,29.462 99.613997,7.7259 11.806,-11.465 1.7796,-25.626 -8.9417,-12.981 -28.338,12.786 -59.837,-0.62456 -84.121997,-18.785 -10.382,-7.7638 -13.465,-26.005 -25.256,-30.708 z"
       style="color:#000000;fill:#ffffff;enable-background:new"
       id="path26"
       inkscape:connector-curvature="0" />
  </g>
</svg>
