<?xml version="1.0" encoding="UTF-8" standalone="no"?>
<!-- Created with Inkscape (http://www.inkscape.org/) -->

<svg
   xmlns:dc="http://purl.org/dc/elements/1.1/"
   xmlns:cc="http://creativecommons.org/ns#"
   xmlns:rdf="http://www.w3.org/1999/02/22-rdf-syntax-ns#"
   xmlns:svg="http://www.w3.org/2000/svg"
   xmlns="http://www.w3.org/2000/svg"
   xmlns:sodipodi="http://sodipodi.sourceforge.net/DTD/sodipodi-0.dtd"
   xmlns:inkscape="http://www.inkscape.org/namespaces/inkscape"
   id="svg2"
   height="100%"
   width="100%"
   version="1.1"
   viewBox="0 0 512 512"
   inkscape:version="0.91 r13725"
   sodipodi:docname="java.svg">
  <defs
     id="defs32" />
  <sodipodi:namedview
     pagecolor="#ffffff"
     bordercolor="#666666"
     borderopacity="1"
     objecttolerance="10"
     gridtolerance="10"
     guidetolerance="10"
     inkscape:pageopacity="0"
     inkscape:pageshadow="2"
     inkscape:window-width="640"
     inkscape:window-height="480"
     id="namedview30"
     showgrid="false"
     inkscape:zoom="0.5546875"
     inkscape:cx="36.056338"
     inkscape:cy="240.67606"
     inkscape:current-layer="svg2" />
  <metadata
     id="metadata515">
    <rdf:RDF>
      <cc:Work
         rdf:about="">
        <dc:format>image/svg+xml</dc:format>
        <dc:type
           rdf:resource="http://purl.org/dc/dcmitype/StillImage" />
      </cc:Work>
    </rdf:RDF>
  </metadata>
  <g
     id="g3381"
     transform="translate(374.98592,-331.71831)">
    <path
       d="m -348.98592,331.71831 c -14.397,0 -26,11.603 -26,26 l 0,460 c 0,14.397 11.603,26 26,26 l 460,0 c 14.397,0 26,-11.603 26,-26 l 0,-460 c 0,-14.397 -11.6,-26 -26,-26 l -460,0"
       id="path9"
       style="fill:#f38725"
       inkscape:connector-curvature="0" />
    <path
       d="m -77.095915,372.71831 c -3.19,0.049 -5.71,3.368 -4.93,6.461 l 0,0.006 c 4.15,16.355 2.54,29.244 -2.47,40.631 l 0.01,0.002 -0.01,0 0.03,0.027 c -5.01,11.376 -13.67,21.293 -24.030005,30.663 -20.72,18.76 -48.17,34.78 -63.54,57.86 l 25.48,25.48 -0.01,0 -25.47,-25.47 c -10.93,16.41 -8.12,34.57 2.27,51.56 l 0,0.01 c 6.37,10.41 15.42,20.82 26.07,31.47 l 36.9,36.9 c -10.61,0.7 -21.21,1.2 -31.34,1.49 l -24.61,-24.61 c -0.86,-0.86 -2.01,-1.43 -3.26,-1.53 0,0 -1.27,-0.08 -3.33,-0.08 -8.94,0.01 -34.83,1.46 -65.34,16.21 -2.99,1.45 -5.33,2.88 -7.2,4.7 l 21.89,21.89 -0.01,0 -21.89,-21.89 0,0.04 c -1.9,1.83 -3.49,4.42 -3.33,7.48 l 0.01,0.01 c 0.14,2.48 1.37,4.49 2.86,5.98 l 0.02,0.02 30.92,30.92 c -0.62,2.17 -0.58,4.54 0.18,6.64 0.71,1.97 1.82,3.62 3.25,5.04 l 0.08,0.08 c -0.03,-0.03 -0.06,-0.05 -0.09,-0.08 l 20.92,20.92 c -2.76,1.31 -5.1,2.73 -7.02,4.35 -4.2,3.54 -6.39,9.11 -4.69,13.93 l 10.71,10.7 -0.01,0 -10.7,-10.7 c 0.77,2.19 2.05,4.04 3.68,5.67 l 35.23,35.23 c -4.91,-0.15 -9.71,-0.36 -14.42,-0.61 l -28.56,-28.56 c -0.19,-0.19 -0.41,-0.37 -0.63,-0.53 l -0.04,0 c -3.89,-2.74 -8.6,-3.36 -13.78,-3.37 -15.84,-0.03 -37.78,6.68 -50.97,15.31 -3.3,2.15 -6.12,4.41 -8.144,7.24 l 23.144,23.14 -0.01,0 -23.14,-23.14 c -2.048,2.86 -3.275,6.86 -1.879,10.65 l 7.599,7.6 -0.01,-0.01 -7.591,-7.59 c 0.601,1.63 1.545,3.02 2.752,4.23 l 78.639,78.63 307.92,0 c 14.4,0 26,-11.6 26,-26 l 0,-233.2 -210.309995,-210.31 -0.04,-0.002 c -0.99,-0.981 -2.36,-1.517 -3.76,-1.486 l 0,-0.002 z"
       style="color:#000000;opacity:0.25"
       id="path59"
       inkscape:connector-curvature="0" />
    <path
       d="m -77.095915,372.71831 c -3.188,0.049 -5.708,3.367 -4.933,6.46 4.153,16.358 2.538,29.25 -2.466,40.638 l 0.039,0 c -5.01,11.389 -13.675,21.313 -24.040005,30.694 -20.725,18.765 -48.17,34.783 -63.54,57.865 -10.932,16.413 -8.12,34.566 2.271,51.562 10.381,16.979 27.901,33.967 47.881,51.992 1.768,1.643 4.619,1.842 6.577,0.431 1.958,-1.412 2.684,-4.185 1.683,-6.382 -8.399,-18.981 -25.25,-35.3 -31.2,-52.31 -2.981,-8.522 -3.587,-16.921 0.352,-26.74 3.935,-9.811 12.738,-21.2 29.324,-34.3 43.250005,-34.14 54.802005,-63.4 54.500005,-84.6 -0.309,-21.22 -12.646,-33.826 -12.646,-33.826 l -0.039,0 c -0.993,-0.981 -2.363,-1.519 -3.758,-1.488 m 52.11,85.66 c -0.027,0.009 -0.051,0.03 -0.078,0.039 -0.207,0.029 -0.425,0.064 -0.626,0.117 -0.012,0.003 -0.027,-0.003 -0.039,0 -0.107,0.026 -36.501,9.02 -64.912,28.619 -14.224005,9.814 -26.753005,22.469 -31.050005,38.759 -4.298,16.302 0.412,35.468 18.283,56.06 4.460005,5.135 6.316005,9.675 6.656005,13.82 0.34,4.145 -0.817,7.914 -2.466,11.393 -3.282005,6.923 -8.887005,11.589 -8.887005,11.589 -2.055,1.619 -2.573,4.744 -1.135,6.93 1.438,2.185 4.512,2.929 6.812,1.683 l 0.039,0 c 0,0 0.199,-0.113 0.392,-0.235 0.096,-0.061 0.197,-0.148 0.274,-0.196 0.077,-0.048 0.193,-0.079 0.117,-0.039 l 0,-0.039 c 1.26,-0.659 13.226005,-6.913 23.373005,-17.97 5.348,-5.827 10.13,-13 11.902,-21.455 1.774,-8.47 0.15,-18.1 -6.46,-27.406 -5.574,-7.834 -10.6,-14.554 -13.507,-20.476 -2.915,-5.937 -3.874,-10.651 -2.075,-16.443 3.576,-11.517 21.11,-28.698 66.56,-55.05 2.097,-1.156 3.125,-3.778 2.427,-6.068 -0.697,-2.291 -3.02,-3.849 -5.403,-3.641 l 0.078,0.666 -0.157,-0.47 -0.039,-0.196 c -0.012,10e-4 -0.027,-0.002 -0.039,0 -0.011,0.004 -0.028,-0.004 -0.039,0 m 25.9959995,141.22 c -5.654,0.011 -11.6359995,1.054 -17.6569995,3.171 -6.262,2.224 -9.357,7.321 -9.357,7.321 -1.166,1.868 -0.983,4.38 0.431,6.068 1.414,1.688 3.868,2.308 5.912,1.488 0,0 2.203,-0.916 8.143,-2.153 4.8449995,-1.01 10.4949995,0.184 15.1499995,3.054 4.656,2.87 8.2640005,7.376 9.2000005,12.881 0.941,5.522 -0.437,12.504 -7.0500005,21.02 -6.60599999,8.511 -18.4749995,18.271 -37.7019995,28.27 -1.01,0.516 -1.782,1.409 -2.271,2.427 -0.001,0.001 -0.068,0.067 -0.117,0.117 -0.01,0.01 -0.03,-0.011 -0.039,0 -0.072,0.082 -0.112,0.143 -0.117,0.157 l -0.039,0.039 c -0.013,0.012 -0.029,0.029 -0.039,0.039 l -0.039,0.039 c -1.094,0.98 -1.726,2.407 -1.723,3.876 l 0,0.392 0.352,0.157 c 0,0 2.706,1.247 4.894,2.232 l 0.47,1.801 0.157,0.587 0.626,-0.157 c 23.9429995,-6.294 41.09,-14.863 52.5,-24.469 11.413,-9.607 17.06,-20.251 17.931,-30.655 1.733,-20.816 -16.626,-37.747 -39.6210005,-37.702 m -170.3400045,3.993 c -8.937,0.009 -34.831,1.459 -65.34,16.208 -2.987,1.445 -5.326,2.885 -7.204,4.698 l 0,0.039 c -1.896,1.831 -3.494,4.418 -3.328,7.478 0.165,3.054 1.997,5.394 3.915,6.93 1.905,1.527 4.137,2.613 6.734,3.602 10.402,3.965 27.57,6.332 48.664,7.556 42.19,2.454 99.080005,-0.206 138.790005,-10.649 0.575,-0.149 1.114,-0.41 1.605,-0.744 7.363,-5.03 18.323,-9.788 18.323,-9.788 2.335,-1.024 3.629,-3.822 2.897,-6.264 -0.732,-2.442 -3.359,-4.03 -5.873,-3.602 0,0 -31.475,5.588 -62.72,8.222 -38.370005,3.215 -79.998005,3.787 -99.800005,1.135 -4.487,-0.599 -7.381,-1.339 -9.474,-1.997 1.561,-0.913 3.358,-1.887 5.794,-2.897 12.189,-5.05 31.2,-9.631 31.2,-9.631 2.412,-0.593 4.12,-3.01 3.915,-5.481 -0.205,-2.476 -2.3,-4.549 -4.776,-4.737 0,0 -1.27,-0.081 -3.328,-0.078 m -15.308,47.686 c -0.38,0.048 -0.736,0.144 -1.096,0.274 -9.21,3.057 -15.713,6.107 -20.16,9.749 -2.226,1.822 -3.996,3.881 -5.05,6.342 -1.069,2.494 -1.179,5.424 -0.274,7.948 1.775,4.952 6.144,7.854 11.471,10.336 5.346,2.485 12.12,4.433 20.2,5.99 32.3,6.227 85.210005,5.626 135.770005,-9.161 2.115,-0.623 3.659,-2.612 3.719,-4.816 0.06,-2.204 -1.368,-4.313 -3.445,-5.05 -9.333,-3.291 -15.308,-9.318 -15.308,-9.318 -1.205,-1.227 -3.01,-1.774 -4.698,-1.449 -48.160005,9.273 -75.300005,9 -110.560005,5.364 -3.192,-0.33 -5.601,-0.851 -7.321,-1.37 -1.72,-0.519 -2.759,-1.048 -3.132,-1.331 -0.03,-0.022 -0.051,-0.019 -0.078,-0.039 0.075,-0.171 0.274,-0.528 0.587,-0.979 0.361,-0.52 0.827,-1.087 1.292,-1.566 0.954,-0.983 1.723,-1.566 1.723,-1.566 l 0.039,0 c 1.776,-1.307 2.535,-3.702 1.84,-5.794 -0.691,-2.08 -2.743,-3.56 -4.933,-3.563 -0.013,-10e-4 -0.026,10e-4 -0.039,0 -0.166,-0.008 -0.343,-0.009 -0.509,0 l 0.039,0.626 -0.078,-0.626 m 10.219,45.885 0.039,0.587 -0.157,-0.548 c -0.039,0.012 -0.079,0.026 -0.117,0.039 -0.27,0.038 -0.522,0.077 -0.783,0.157 -8.456,2.363 -14.481,4.997 -18.636,8.496 -4.21,3.545 -6.403,9.118 -4.698,13.938 1.673,4.728 5.682,7.896 10.61,10.649 4.941,2.761 11.167,5.05 18.518,6.93 29.405,7.486 76.620005,7.995 119.020005,-10.179 1.901,-0.817 3.165,-2.786 3.132,-4.855 -0.033,-2.069 -1.363,-3.982 -3.289,-4.737 -12.98,-5.05 -22.2,-10.845 -22.2,-10.845 -1.104,-0.687 -2.443,-0.95 -3.719,-0.705 -36.405005,6.89 -52.340005,7.406 -85.350005,3.641 -5.465,-0.629 -8.541,-1.535 -10.218,-2.232 0.357,-0.258 0.822,-0.626 0.822,-0.626 2.079,-1.163 3.122,-3.748 2.427,-6.03 -0.697,-2.291 -3.02,-3.889 -5.403,-3.68 m -42.87,30.498 c -15.835,-0.03 -37.776,6.677 -50.974,15.308 -3.296,2.155 -6.121,4.415 -8.143,7.243 -2.048,2.861 -3.275,6.865 -1.879,10.649 1.381,3.739 4.578,6.239 8.613,8.104 4.04,1.866 9.246,3.229 16.13,4.346 84.35,13.68 161.110005,10.671 211.770005,1.644 25.333,-4.512 43.9879995,-10.312 54.694,-17.15 2.672,-1.706 5.076,-3.561 6.812,-5.755 1.736,-2.195 2.803,-4.735 2.741,-7.674 -0.063,-2.978 -1.516,-5.711 -3.524,-7.752 -1.991,-2.025 -4.542,-3.577 -7.634,-4.972 -2.3010005,-1.032 -5.1610005,-0.142 -6.4990005,1.997 -1.318,2.107 -0.885,5.02 0.979,6.656 0.028,0.024 0.05,0.054 0.078,0.078 0.055,0.07 0.231,0.295 0.47,0.666 0.136,0.21 0.265,0.438 0.352,0.626 0.087,0.188 0.116,0.351 0.117,0.313 -0.01,0.206 -0.012,0.213 -0.157,0.47 -0.144,0.257 -0.486,0.703 -1.292,1.37 -1.576,1.305 -4.94399999,3.206 -10.766,4.972 -22.3859995,6.782 -71.8699995,11.613 -120.1900045,12.215 -24.17,0.3 -48.15,-0.412 -68.55,-2.31 -20.06,-1.866 -36.735,-5.02 -46.12,-8.966 0.547,-0.432 1.036,-0.906 1.84,-1.331 5.403,-2.855 14.595,-5.62 18.479,-6.46 l 0.117,0 c 8.684,-1.883 12.959,-1.527 12.959,-1.527 2.273,0.165 4.515,-1.261 5.285,-3.406 0.77,-2.145 -0.021,-4.671 -1.879,-5.99 l -0.039,0 c -3.887,-2.738 -8.602,-3.357 -13.781,-3.367 m 252.760005,24.939 c -1.891,0.091 -3.616,1.267 -4.424,2.975 -0.016,0.034 -0.063,0.044 -0.078,0.078 -0.098,0.145 -0.247,0.388 -0.666,0.822 -0.963,0.997 -2.981,2.693 -6.851,4.855 -7.739,4.323 -22.86800049,10.306 -51.09,15.621 -63.66,11.98 -143.100005,10.617 -189.450005,2.975 l -0.626,-0.117 -0.078,0.626 -0.157,0.979 c -2.361,1.173 -3.405,4.111 -2.466,6.538 -0.077,0.004 -0.179,0.036 -0.235,0.039 -0.042,0.002 -0.052,-0.001 -0.078,0 -0.013,10e-4 -0.025,-0.001 -0.039,0 -0.008,10e-4 -0.019,-0.003 -0.039,0 -0.01,10e-4 -0.078,0 -0.078,0 l -0.117,0.078 -0.157,0.078 -0.196,0.548 0.196,0.392 0.039,0 c -0.106,-0.088 -0.061,-0.026 0.078,0.078 -0.011,-0.009 0.091,0.094 0.235,0.196 0.203,0.145 0.415,0.274 0.666,0.431 0.547,0.339 1.272,0.741 2.271,1.214 2,0.946 5.04,2.145 9.592,3.406 9.1,2.52 24.24,5.36 49.33,6.969 38.12,2.441 86.240005,1.788 125.600005,-4.03 19.676,-2.91 37.1399995,-7.07 50.35,-13.08 13.212,-6 23.02,-14.414 23.921,-26.11 0.223,-2.994 -2.444,-5.72 -5.442,-5.559"
       style="color:#000000;fill:#ffffff"
       id="path511"
       inkscape:connector-curvature="0" />
  </g>
</svg>
