<?xml version="1.0" encoding="UTF-8" standalone="no"?>
<!-- Created with Inkscape (http://www.inkscape.org/) -->

<svg
   xmlns:dc="http://purl.org/dc/elements/1.1/"
   xmlns:cc="http://creativecommons.org/ns#"
   xmlns:rdf="http://www.w3.org/1999/02/22-rdf-syntax-ns#"
   xmlns:svg="http://www.w3.org/2000/svg"
   xmlns="http://www.w3.org/2000/svg"
   xmlns:sodipodi="http://sodipodi.sourceforge.net/DTD/sodipodi-0.dtd"
   xmlns:inkscape="http://www.inkscape.org/namespaces/inkscape"
   id="svg2"
   height="100%"
   width="100%"
   version="1.1"
   viewBox="0 0 512 512"
   inkscape:version="0.91 r13725"
   sodipodi:docname="jdownloader.svg">
  <defs
     id="defs34" />
  <sodipodi:namedview
     pagecolor="#ffffff"
     bordercolor="#666666"
     borderopacity="1"
     objecttolerance="10"
     gridtolerance="10"
     guidetolerance="10"
     inkscape:pageopacity="0"
     inkscape:pageshadow="2"
     inkscape:window-width="640"
     inkscape:window-height="480"
     id="namedview32"
     showgrid="false"
     inkscape:zoom="0.5546875"
     inkscape:cx="36.056338"
     inkscape:cy="240.67606"
     inkscape:current-layer="svg2" />
  <metadata
     id="metadata64">
    <rdf:RDF>
      <cc:Work
         rdf:about="">
        <dc:format>image/svg+xml</dc:format>
        <dc:type
           rdf:resource="http://purl.org/dc/dcmitype/StillImage" />
      </cc:Work>
    </rdf:RDF>
  </metadata>
  <path
     inkscape:connector-curvature="0"
     style="fill:#0078ad"
     id="path4"
     d="m 25.989,-0.01 c -14.397,0 -26,11.603 -26,26 l 0,460 c 0,14.397 11.603,26 26,26 l 460,0 c 14.397,0 26,-11.603 26,-26 l 0,-460 c 0,-14.397 -11.6,-26 -26,-26 l -460,0" />
  <path
     inkscape:connector-curvature="0"
     style="opacity:0.8;fill:#ffffff;fill-opacity:0.281"
     id="path6"
     d="m 25.989,-0.01 c -14.397,0 -26,11.603 -26,26 l 0,28.781 0.188,0 c -0.061,0.074 -0.126,0.145 -0.188,0.219 l 0,214.41 c 17.54,-14.643 51.37,-12.279 59.63,11.344 -9.126,-32.24 22.807,-57.59 40.719,-80.75 3.731,-11.32 25.938,-20.988 18.313,-5.938 12.993,-0.457 32.642,-23.326 9.563,-12.781 -0.326,-20.84 -20.233,-14.887 -26.688,-11.938 11.961,-18.49 73.43,-8.336 47.719,-38.563 -19.927,-7.866 -18.314,-53.818 -38.469,-28.25 1.696,-15.757 -41.03,-46.548 -40.09,-20.12 5.214,23.643 0.972,50.849 -10.125,66.34 C 58.253,114.094 -2.423,121.674 5.378,84.769 16.674,67.174 29.934,42.888 31.191,45.081 41.867,41.11 51.416,33.152 54.629,24.393 60.679,22.669 65.098,17.106 65.098,10.487 l 0,-10.5 -39.09,0 m 47.563,0 c 2.608,2.26 4.923,5.723 7.03,11.03 23.06,12.946 2.082,34.93 -7.969,42.469 16.81,-9.674 46.25,38.26 38.22,11.688 -9.894,-7.04 26.602,11.28 7.688,-11.594 -17.407,-27.321 1.38,-12.189 8.719,-5.813 24.959,-21.805 -28.28,-24.466 -15,-46.906 -0.346,-0.273 -0.679,-0.571 -1.031,-0.875 l -37.654,0 m 88.59,0 c 0.253,5.359 16.436,6.03 9.781,0 l -9.781,0 m 15.406,0 c 8.548,9.262 -15.13,15 0.531,23.719 -19.13,9.617 3.106,50.32 17.313,60.5 23.385,19.18 10.343,-40.64 36.438,-43.75 13.784,-15.332 37.687,-25.342 55.25,-40.469 l -109.53,0 m 280.34,0 0,3.781 c -15.852,14.338 -25.969,35.05 -37.625,53.22 -25.93,11.389 -24.999,60.16 3.969,44.531 7.753,13.193 -5.489,34 17.09,16.75 18.215,-23.485 3.25,-61.44 34.25,-76.25 2.257,11.515 -28.578,54.5 7.469,47.44 32.583,1.198 -23.691,3.13 -7.844,23.406 -16.467,-9.517 -7.885,26.01 -29.375,17.75 -18.618,9.867 -30.86,-4.579 -26.594,-20.406 -14.647,8.324 4.612,31.839 -20.813,33.25 -5.696,19.704 -52.573,16.685 -25.938,36.75 11.825,29.852 -43.992,1.949 -28.12,37.781 13.574,35.432 42.03,-11.755 53.56,-20.875 21.572,-16.303 53.17,25.871 36.906,30.06 20.474,-3.766 15.648,-23.686 -1.875,-31.531 -9.723,-24.569 30.777,12.06 28.531,24.375 14.29,26.07 8.427,-26.742 22.969,-3.375 -0.913,13.252 16.09,13.935 27.531,16.625 l 0,-25.75 c -16.575,-0.461 -30.958,-6.222 -11.375,-25.09 2.82,-1.649 7.308,-0.046 11.375,1.781 l 0,-158.2 c 0,-14.397 -11.603,-26 -26,-26 l -28.09,0 M 75.573,15.952 c -11.02,17.58 16.276,6.491 0,0 m -48.44,9 0.969,0 c -0.326,0.309 -0.644,0.627 -0.969,0.938 l 0,-0.938 m 289.59,11.813 c -12.897,14.465 -29.843,-3.839 -30.12,8.594 2.337,3.756 11.71,30.567 32.22,10.781 11.01,-4.521 6.593,-15.883 -2.094,-19.375 m -274.53,8.594 c -24.461,20.81 41.574,22.748 5.219,2.406 l -5.219,-2.406 m 322.41,57.906 c -16.971,11.272 8.778,34.751 0,45.844 -11.03,18.732 40.985,-1.305 13.188,-16.25 -1.905,-12.351 -15.221,-27.28 -13.156,-29.594 l -0.031,0 m -11.563,22.281 c -24.536,6.759 -5.628,41.68 3.063,8.813 0.489,-1.906 1.209,-8.876 -3.063,-8.813 m -196.5,25.281 c -22.827,15.16 -3.573,30.354 13.156,23.531 -3.434,-9.15 -13,-14.966 -13.156,-23.531 m 259.31,57.875 c -14.309,8.982 9.895,15.868 0,0 m 2.094,20.19 c -25.19,1.994 -56.38,1.74 -73.25,21.563 -18.234,24.373 -44.44,58.44 -24.563,89.56 19.887,46.11 69.12,2.388 97.47,29.625 8.426,11.357 -7.279,24.861 11.563,37.16 7.089,26.2 -8.04,51.08 9.375,76.13 3.547,9.281 6.563,20.367 10.969,29.09 l 36.5,0 c 1.264,0 2.504,-0.108 3.719,-0.281 7.791,-7.758 15.239,-15.883 22.25,-24.375 0.001,-0.01 -10e-4,-0.021 0,-0.031 0.021,-0.434 0.031,-0.873 0.031,-1.313 l 0,-231.69 c -23.926,3.781 -47.48,-6.364 -68.09,0.5 -19.801,-0.17 -18.761,-20.779 -25.969,-25.938 m -361.44,63.5 c -2.413,7.841 45.24,15.813 12.344,3.25 l -4.906,-1.688 -7.438,-1.563 m -25.313,5.781 c -8.814,8.54 -22.295,10.894 -31.19,6.25 l 0,18.906 c 5.05,1.769 10.358,3.222 15.938,4.375 19.488,6.458 35.455,28.699 52.594,23.813 9.691,24.889 -28.665,48.817 1.344,72.03 15.667,23.502 41.99,38.912 27.75,71.906 -1.685,5.451 -2.958,10.991 -3.969,16.563 l 80.969,0 c 11.11,-18.01 18.307,-36.35 41.25,-43.25 3.311,-25.464 46.13,-64.4 1.938,-74.31 -12.01,-5.767 -42.958,-7.81 -40.594,-10.656 4.788,-25.26 -39.887,-32.508 -58.938,-42.844 -25.003,-17.3 -62.623,28.75 -71.433,-10.91 -5.257,-12.48 -24.492,-12.62 -15.656,-31.88 m 62.31,5.375 c -14.459,14.302 29.792,4.273 0,0" />
  <path
     d="m 25.989,-0.01 c -0.536,0 -1.066,0.031 -1.594,0.063 -0.263,0.016 -0.52,0.008 -0.781,0.031 -0.387,0.035 -0.774,0.105 -1.156,0.156 -0.324,0.043 -0.648,0.101 -0.969,0.156 -0.433,0.075 -0.856,0.154 -1.281,0.25 -0.104,0.023 -0.209,0.038 -0.313,0.063 -0.555,0.133 -1.116,0.27 -1.656,0.438 -0.031,0.01 -0.062,0.021 -0.094,0.031 l 98.84,113.16 -117,79.906 0,117.78 199.97,199.97 286.03,0 c 14.397,0 26,-11.603 26,-26 l 0,-436.82 -49.19,-49.186 -178.37,0 -82.97,56.625 -56.63,-56.625 -118.84,0"
     id="path56"
     inkscape:connector-curvature="0"
     style="opacity:0.25;fill-rule:evenodd" />
  <path
     d="m 25.989,-0.01 c -2.734,0 -5.372,0.411 -7.844,1.188 l 98.84,113.16 -117,79.906 0,117.78 184.09,-124.59 82.03,89.44 -53.44,49.06 180.25,16.406 3.344,-184.94 -58.31,53 -72.16,-78.7 197,-131.72 -178.37,0 -85.84,58.59 -53.75,-58.59 -118.84,0"
     id="path58"
     inkscape:connector-curvature="0"
     style="fill:#ffffff;fill-rule:evenodd" />
</svg>
