<?xml version="1.0" encoding="UTF-8" standalone="no"?>
<svg
   xmlns:dc="http://purl.org/dc/elements/1.1/"
   xmlns:cc="http://creativecommons.org/ns#"
   xmlns:rdf="http://www.w3.org/1999/02/22-rdf-syntax-ns#"
   xmlns:svg="http://www.w3.org/2000/svg"
   xmlns="http://www.w3.org/2000/svg"
   xmlns:xlink="http://www.w3.org/1999/xlink"
   xmlns:sodipodi="http://sodipodi.sourceforge.net/DTD/sodipodi-0.dtd"
   xmlns:inkscape="http://www.inkscape.org/namespaces/inkscape"
   id="svg2"
   height="100%"
   viewBox="0 0 512 512"
   width="100%"
   version="1.1"
   inkscape:version="0.91+devel r13804 custom"
   sodipodi:docname="k9copy.svg">
  <sodipodi:namedview
     pagecolor="#ffffff"
     bordercolor="#666666"
     borderopacity="1"
     objecttolerance="10"
     gridtolerance="10"
     guidetolerance="10"
     inkscape:pageopacity="0"
     inkscape:pageshadow="2"
     inkscape:window-width="1366"
     inkscape:window-height="709"
     id="namedview1844"
     showgrid="false"
     inkscape:zoom="0.4609375"
     inkscape:cx="-8.6779661"
     inkscape:cy="237.55932"
     inkscape:window-x="-2"
     inkscape:window-y="-3"
     inkscape:window-maximized="1"
     inkscape:current-layer="svg2" />
  <metadata
     id="metadata10">
    <rdf:RDF>
      <cc:Work
         rdf:about="">
        <dc:format>image/svg+xml</dc:format>
        <dc:type
           rdf:resource="http://purl.org/dc/dcmitype/StillImage" />
        <dc:title />
      </cc:Work>
    </rdf:RDF>
  </metadata>
  <defs
     id="defs8">
    <linearGradient
       id="linearGradient4216-1">
      <stop
         id="stop4218-0"
         stop-color="#fff"
         offset="0" />
      <stop
         id="stop4220-2"
         stop-color="#e8e8e8"
         offset=".6875" />
      <stop
         id="stop4222-6"
         stop-color="#686868"
         offset=".875" />
      <stop
         id="stop4224-6"
         offset="1" />
    </linearGradient>
    <radialGradient
       id="radialGradient21305"
       xlink:href="#linearGradient4216-1"
       gradientUnits="userSpaceOnUse"
       cy="64"
       cx="64"
       gradientTransform="matrix(4.1658 0 0 3.8875 -39.924 -73.947)"
       r="64" />
    <radialGradient
       id="radialGradient21305-0"
       gradientUnits="userSpaceOnUse"
       xlink:href="#linearGradient4216-1"
       cx="64"
       cy="64"
       r="64"
       gradientTransform="matrix(4.1658 0 0 3.8875 1383.5 -189.35)" />
    <linearGradient
       id="ButtonShadow"
       x1="45.448"
       gradientUnits="userSpaceOnUse"
       y1="92.54"
       gradientTransform="scale(1.0059 .99417)"
       x2="45.448"
       y2="7.0165">
      <stop
         id="stop3750-1"
         offset="0" />
      <stop
         id="stop3752-6"
         stop-opacity=".58824"
         offset="1" />
    </linearGradient>
    <filter
       id="filter3174"
       color-interpolation-filters="sRGB">
      <feGaussianBlur
         id="feGaussianBlur3176"
         stdDeviation="1.71" />
    </filter>
    <filter
       id="filter3174-2"
       color-interpolation-filters="sRGB">
      <feGaussianBlur
         id="feGaussianBlur3176-21"
         stdDeviation="1.71" />
    </filter>
    <filter
       id="filter3174-5"
       color-interpolation-filters="sRGB">
      <feGaussianBlur
         id="feGaussianBlur3176-2"
         stdDeviation="1.71" />
    </filter>
    <linearGradient
       id="linearGradient6148"
       y2="7.0165"
       xlink:href="#ButtonShadow"
       gradientUnits="userSpaceOnUse"
       x2="45.448"
       gradientTransform="scale(1.0059 .99417)"
       y1="92.54"
       x1="45.448" />
    <filter
       id="filter3174-3"
       color-interpolation-filters="sRGB">
      <feGaussianBlur
         id="feGaussianBlur3176-9"
         stdDeviation="1.71" />
    </filter>
    <radialGradient
       id="radialGradient26869"
       cx="64"
       xlink:href="#linearGradient4216-1"
       gradientUnits="userSpaceOnUse"
       cy="64"
       r="64"
       gradientTransform="matrix(4.1658 0 0 3.8875 52.766 -98.917)" />
    <radialGradient
       id="radialGradient26875"
       cx="64"
       xlink:href="#linearGradient4216-1"
       gradientUnits="userSpaceOnUse"
       cy="64"
       r="64"
       gradientTransform="matrix(4.1658 0 0 3.8875 1476.2 -214.32)" />
    <filter
       id="filter3174-38"
       color-interpolation-filters="sRGB">
      <feGaussianBlur
         id="feGaussianBlur3176-7"
         stdDeviation="1.71" />
    </filter>
    <filter
       id="filter3174-5-6"
       color-interpolation-filters="sRGB">
      <feGaussianBlur
         id="feGaussianBlur3176-2-7"
         stdDeviation="1.71" />
    </filter>
    <filter
       id="filter3174-3-3"
       color-interpolation-filters="sRGB">
      <feGaussianBlur
         id="feGaussianBlur3176-9-1"
         stdDeviation="1.71" />
    </filter>
    <radialGradient
       id="radialGradient26869-2"
       xlink:href="#linearGradient4216-1"
       gradientUnits="userSpaceOnUse"
       cy="64"
       cx="64"
       gradientTransform="matrix(4.1658 0 0 3.8875 49.28 -97.978)"
       r="64" />
    <radialGradient
       id="radialGradient26875-4"
       xlink:href="#linearGradient4216-1"
       gradientUnits="userSpaceOnUse"
       cy="64"
       cx="64"
       gradientTransform="matrix(4.1658 0 0 3.8875 1472.7 -213.38)"
       r="64" />
    <filter
       id="filter3174-6"
       color-interpolation-filters="sRGB">
      <feGaussianBlur
         id="feGaussianBlur3176-8"
         stdDeviation="1.71" />
    </filter>
    <filter
       id="filter3174-5-3"
       color-interpolation-filters="sRGB">
      <feGaussianBlur
         id="feGaussianBlur3176-2-9"
         stdDeviation="1.71" />
    </filter>
    <filter
       id="filter3174-3-2"
       color-interpolation-filters="sRGB">
      <feGaussianBlur
         id="feGaussianBlur3176-9-9"
         stdDeviation="1.71" />
    </filter>
    <radialGradient
       id="radialGradient26869-3"
       cx="64"
       xlink:href="#linearGradient4216-1"
       gradientUnits="userSpaceOnUse"
       cy="64"
       r="64"
       gradientTransform="matrix(4.1658 0 0 3.8875 85.198 -107.65)" />
    <radialGradient
       id="radialGradient26875-7"
       cx="64"
       xlink:href="#linearGradient4216-1"
       gradientUnits="userSpaceOnUse"
       cy="64"
       r="64"
       gradientTransform="matrix(4.1658 0 0 3.8875 1508.6 -223.05)" />
    <radialGradient
       id="radialGradient21305-0-3"
       cx="64"
       xlink:href="#linearGradient4216-1"
       gradientUnits="userSpaceOnUse"
       cy="64"
       r="64"
       gradientTransform="matrix(4.1658 0 0 3.8875 1443.1 -258.29)" />
    <radialGradient
       id="radialGradient21305-6-1"
       xlink:href="#linearGradient4216-1"
       gradientUnits="userSpaceOnUse"
       cy="64"
       cx="64"
       gradientTransform="matrix(4.1658 0 0 3.8875 19.688 -142.89)"
       r="64" />
    <filter
       id="filter3174-5-0"
       color-interpolation-filters="sRGB">
      <feGaussianBlur
         id="feGaussianBlur3176-2-3"
         stdDeviation="1.71" />
    </filter>
    <filter
       id="filter3174-39"
       color-interpolation-filters="sRGB">
      <feGaussianBlur
         id="feGaussianBlur3176-1"
         stdDeviation="1.71" />
    </filter>
    <filter
       id="3-2"
       y="-0.30500001"
       width="1.2539999"
       x="-0.127"
       height="1.609">
      <feGaussianBlur
         id="feGaussianBlur114212-4"
         stdDeviation="20.1495" />
    </filter>
    <linearGradient
       id="linearGradient121086-0"
       y2="-7.8586998"
       gradientUnits="userSpaceOnUse"
       y1="513.71997"
       gradientTransform="translate(-610.56002,0.02838)"
       x2="116.21"
       x1="116.21">
      <stop
         id="stop114219-1"
         stop-color="#f27420"
         offset="0" />
      <stop
         id="stop114221-9"
         stop-color="#e63c36"
         offset="1" />
    </linearGradient>
  </defs>
  <path
     inkscape:connector-curvature="0"
     style="fill:url(#linearGradient121086-0)"
     id="rect2986"
     d="m 26.000005,-0.0015 c -14.397,0 -26,11.603 -26,26 l 0,460 c 0,14.397 11.603,26 26,26 l 459.999995,0 c 14.39699,0 25.99999,-11.603 25.99999,-26 l 0,-460 c 0,-14.397 -11.6,-26 -26,-26 l -459.999985,0 z" />
  <path
     id="path4230"
     d="m273.04 165.47c-2.1202 7.3447-36.402 181.33-29.267 189.98 6.1765 7.4828 15.826 4.2405 17.946-3.1042-2.1202 7.3447-6.3607 22.034-8.4809 29.379-17.946 3.1042-33.92-0.81668-37.444-17.946-4.0713-19.793 27.134-182.59 29.267-189.98-4.7411-8.958-29.531-15.826-33.772-1.1362l-7.9128-2.1202c18.514-34.603 53.838-9.3127 69.663-5.0722z"
     display="none" />
  <path
     id="path4232"
     d="m250.86 183.26c-26.427 32.483-124.22 164.54-147.96 158.17l-15.826-4.2405 12.153-12.569 7.9128 2.1202c15.826 4.2405 123.65-133.04 140.05-160.3 12.573-20.906 3.6724 16.81 3.6724 16.81z"
     display="none" />
  <path
     id="path4234"
     d="m187.97 253.45 47.477 12.721-4.2405 14.689-55.39-14.842z"
     display="none" />
  <ellipse
     id="path3281-0-0"
     rx="266.61"
     ry="248.8"
     transform="matrix(.96593 .25882 -.27735 .96077 0 0)"
     cy="174.85"
     cx="226.69"
     display="none"
     fill="url(#radialGradient21305)" />
  <path
     id="path4230-0"
     d="m273.04 165.47c-2.1202 7.3447-36.402 181.33-29.267 189.98 6.1765 7.4828 15.826 4.2405 17.946-3.1042-2.1202 7.3447-6.3607 22.034-8.4809 29.379-17.946 3.1042-33.92-0.81668-37.444-17.946-4.0713-19.793 27.134-182.59 29.267-189.98-4.7411-8.958-29.531-15.826-33.772-1.1362l-7.9128-2.1202c18.514-34.603 53.838-9.3127 69.663-5.0722z"
     display="none" />
  <path
     id="path4232-1"
     d="m250.86 183.26c-26.427 32.483-124.22 164.54-147.96 158.17l-15.826-4.2405 12.153-12.569 7.9128 2.1202c15.826 4.2405 123.65-133.04 140.05-160.3 12.573-20.906 3.6724 16.81 3.6724 16.81z"
     display="none" />
  <path
     id="path4234-6"
     d="m187.97 253.45 47.477 12.721-4.2405 14.689-55.39-14.842z"
     display="none" />
  <ellipse
     id="path3281-0-0-1"
     rx="266.61"
     transform="matrix(.96593 .25882 -.27735 .96077 0 0)"
     ry="248.8"
     cy="174.85"
     cx="226.69"
     display="none"
     fill="url(#radialGradient21305)" />
  <path
     id="path4230-8"
     d="m1680 423c-2.1203 7.3447-36.402 181.33-29.267 189.98 6.1765 7.4828 15.826 4.2405 17.946-3.1042-2.1203 7.3447-6.3607 22.034-8.481 29.379-17.946 3.1042-33.92-0.81668-37.444-17.946-4.0713-19.793 27.134-182.59 29.267-189.98-4.7412-8.958-29.531-15.826-33.772-1.1362l-7.9128-2.1202c18.514-34.603 53.838-9.3127 69.663-5.0722z"
     display="none" />
  <path
     id="path4232-9"
     d="m1657.8 440.8c-26.427 32.483-124.22 164.54-147.96 158.17l-15.826-4.2405 12.153-12.569 7.9128 2.1202c15.826 4.2405 123.65-133.04 140.05-160.3 12.573-20.906 3.6723 16.81 3.6723 16.81z"
     display="none" />
  <path
     id="path4234-5"
     d="m1594.9 510.99 47.477 12.721-4.2405 14.689-55.39-14.842z"
     display="none" />
  <ellipse
     id="path3281-0-0-6"
     rx="266.61"
     ry="248.8"
     transform="matrix(.96593 .25882 -.27735 .96077 0 0)"
     cy="59.452"
     cx="1650.1"
     display="none"
     fill="url(#radialGradient21305-0)" />
  <g
     id="layer2"
     display="none"
     transform="matrix(6.7274 0 0 6.7274 -2789.7 -809.34)">
    <rect
       id="rect3745"
       opacity=".9"
       rx="6"
       ry="6"
       height="85"
       filter="url(#filter3174)"
       width="86"
       y="7"
       x="5"
       fill="url(#ButtonShadow)" />
  </g>
  <g
     id="layer2-8"
     display="none"
     transform="matrix(6.7274 0 0 6.7274 -2077.1 -889.77)">
    <rect
       id="rect3745-5"
       opacity=".9"
       rx="6"
       ry="6"
       height="85"
       filter="url(#filter3174-2)"
       width="86"
       y="7"
       x="5"
       fill="url(#linearGradient6148)" />
  </g>
  <g
     id="layer2-3"
     display="none"
     transform="matrix(6.7274 0 0 6.7274 -2077.1 -889.77)">
    <rect
       id="rect3745-8"
       opacity=".9"
       rx="6"
       ry="6"
       height="85"
       filter="url(#filter3174-5)"
       width="86"
       y="7"
       x="5"
       fill="url(#linearGradient6148)" />
  </g>
  <path
     id="path3848"
     d="m-785.82-490.39c-31.718 0.73046-61.283 23.617-71.031 53.75-10.408 29.448-0.1539 63.832 23.031 84.219 0.2111 0.18773 0.44298 0.34587 0.65625 0.53125 0.0607 0.0539 0.12666 0.1025 0.1875 0.15625 0.53347 0.4555 1.0471 0.93438 1.5938 1.375 0.0982 0.0801 0.21385 0.13919 0.3125 0.21875 0.0114 0.009 0.0198 0.0222 0.0312 0.0312 0.0924 0.0753 0.18851 0.14387 0.28125 0.21875 0.0114 0.009 0.0198 0.0222 0.0312 0.0312 0.081 0.066 0.16873 0.1218 0.25 0.1875 0.0115 0.009 0.0197 0.0223 0.0312 0.0312 0.0114 0.009 0.0198 0.0222 0.0312 0.0312 0.0682 0.0557 0.11908 0.13204 0.1875 0.1875 0.0806 0.0661 0.16909 0.12176 0.25 0.1875 0.26263 0.21589 0.51553 0.44392 0.78125 0.65625 0.0113 0.009 0.0199 0.0221 0.0312 0.0312v77.719l366.09 366.06h61.812c0.19472-5.1667 0.39905-10.333 0.59375-15.5l15.5-0.5625v-71.125c-0.11718-3.5064-0.66635-7.1765 2.9688-9.0938 17.971-15.566 29.967-38.912 28.375-63.031 0.24347-20.205-8.8362-39.465-23.031-53.562-0.13063-0.13149-0.27474-0.2444-0.40625-0.375l-343.31-342.94c-1.6885-1.8492-3.3938-3.742-5.125-5.5-0.12897-0.13157-0.24515-0.27555-0.375-0.40625-14.005-14.287-33.185-23.492-53.375-23.375-2.1284-0.1527-4.2605-0.20495-6.375-0.15625z"
     fill-opacity=".39216"
     display="none" />
  <path
     id="path11978"
     d="m-725.7-466.45c1.4663 1.516 2.9049 3.0642 4.25 4.6875 1.5801 1.907 3.0707 3.8973 4.4688 5.9375 1.398 2.0402 2.7063 4.1239 3.9062 6.2812 1.1999 2.1574 2.2954 4.3665 3.2812 6.625 0.98586 2.2585 1.8379 4.594 2.5938 6.9375 0.75581 2.3435 1.3964 4.7125 1.9062 7.125s0.90844 4.847 1.1562 7.3125c0.24781 2.4655 0.34265 4.9664 0.3125 7.4688 0.19898 3.0149 0.21091 6.023 0 9s-0.62772 5.932-1.2188 8.8438c-0.59103 2.9118-1.3711 5.7746-2.3125 8.5938-0.94136 2.8192-2.0506 5.582-3.3125 8.2812s-2.666 5.3231-4.2188 7.875c-1.5527 2.5519-3.2488 5.029-5.0625 7.4062s-3.7676 4.6686-5.8125 6.8438-4.1912 4.2418-6.4375 6.1875c-0.90877 0.47931-1.5415 1.0487-2 1.7188-0.45846 0.67003-0.72299 1.4189-0.875 2.2188-0.30402 1.5996-0.15234 3.403-0.0937 5.1562v71.125h-16.094v16.062h-61.812l350 350h61.812c0.19472-5.1667 0.39905-10.333 0.59375-15.5l15.5-0.5625v-71.125c-0.11718-3.5064-0.66635-7.1765 2.9688-9.0938 17.971-15.566 29.967-38.912 28.375-63.031 0.2435-20.205-8.8362-39.465-23.031-53.562-0.13063-0.13149-0.27474-0.2444-0.40625-0.375l-343.31-342.94c-1.6885-1.8492-3.3939-3.742-5.125-5.5zm-87.375 211.69v-16.062h-16.094l16.094 16.062z"
     fill-opacity=".39216"
     display="none" />
  <path
     id="path11980"
     d="m-998.29-281.7 425.16 425.12v-125.12l-300-300z"
     fill-opacity=".39216"
     display="none" />
  <g
     id="layer2-4"
     display="none"
     transform="matrix(6.7274 0 0 6.7274 -2834.4 -809.34)">
    <rect
       id="rect3745-3"
       opacity=".9"
       rx="6"
       ry="6"
       height="85"
       filter="url(#filter3174-3)"
       width="86"
       y="7"
       x="5"
       fill="url(#linearGradient6148)" />
  </g>
  <path
     id="path4230-3"
     d="m369.5 165.47c-2.1202 7.3447-36.402 181.33-29.267 189.98 6.1765 7.4828 15.826 4.2405 17.946-3.1042-2.1202 7.3447-6.3607 22.034-8.4809 29.379-17.946 3.1042-33.92-0.81668-37.444-17.946-4.0713-19.793 27.134-182.59 29.267-189.98-4.7411-8.958-29.531-15.826-33.772-1.1362l-7.9128-2.1202c18.514-34.603 53.838-9.3127 69.663-5.0722z"
     display="none" />
  <path
     id="path4232-8"
     d="m347.31 183.26c-26.427 32.483-124.22 164.54-147.96 158.17l-15.826-4.2405 12.153-12.569 7.9128 2.1202c15.826 4.2405 123.65-133.04 140.05-160.3 12.573-20.906 3.6724 16.81 3.6724 16.81z"
     display="none" />
  <path
     id="path4234-62"
     d="m284.43 253.45 47.477 12.721-4.2405 14.689-55.39-14.842z"
     display="none" />
  <ellipse
     id="path3281-0-0-9"
     rx="266.61"
     ry="248.8"
     transform="matrix(.96593 .25882 -.27735 .96077 0 0)"
     cy="149.88"
     cx="319.38"
     display="none"
     fill="url(#radialGradient26869)" />
  <path
     id="path4230-0-4"
     d="m369.5 165.47c-2.1202 7.3447-36.402 181.33-29.267 189.98 6.1765 7.4828 15.826 4.2405 17.946-3.1042-2.1202 7.3447-6.3607 22.034-8.4809 29.379-17.946 3.1042-33.92-0.81668-37.444-17.946-4.0713-19.793 27.134-182.59 29.267-189.98-4.7411-8.958-29.531-15.826-33.772-1.1362l-7.9128-2.1202c18.514-34.603 53.838-9.3127 69.663-5.0722z"
     display="none" />
  <path
     id="path4232-1-3"
     d="m347.31 183.26c-26.427 32.483-124.22 164.54-147.96 158.17l-15.826-4.2405 12.153-12.569 7.9128 2.1202c15.826 4.2405 123.65-133.04 140.05-160.3 12.573-20.906 3.6724 16.81 3.6724 16.81z"
     display="none" />
  <path
     id="path4234-6-2"
     d="m284.43 253.45 47.477 12.721-4.2405 14.689-55.39-14.842z"
     display="none" />
  <ellipse
     id="path3281-0-0-1-8"
     rx="266.61"
     transform="matrix(.96593 .25882 -.27735 .96077 0 0)"
     ry="248.8"
     cy="149.88"
     cx="319.38"
     display="none"
     fill="url(#radialGradient26869)" />
  <path
     id="path4230-8-5"
     d="m1776.4 423c-2.1203 7.3447-36.402 181.33-29.267 189.98 6.1765 7.4828 15.826 4.2405 17.946-3.1042-2.1203 7.3447-6.3607 22.034-8.481 29.379-17.946 3.1042-33.92-0.81668-37.444-17.946-4.0713-19.793 27.134-182.59 29.267-189.98-4.7412-8.958-29.531-15.826-33.772-1.1362l-7.9128-2.1202c18.514-34.603 53.838-9.3127 69.663-5.0722z"
     display="none" />
  <path
     id="path4232-9-3"
     d="m1754.2 440.8c-26.427 32.483-124.22 164.54-147.96 158.17l-15.826-4.2405 12.153-12.569 7.9128 2.1202c15.826 4.2405 123.65-133.04 140.05-160.3 12.573-20.906 3.6723 16.81 3.6723 16.81z"
     display="none" />
  <path
     id="path4234-5-3"
     d="m1691.4 510.99 47.477 12.721-4.2405 14.689-55.39-14.842z"
     display="none" />
  <ellipse
     id="path3281-0-0-6-9"
     rx="266.61"
     ry="248.8"
     transform="matrix(.96593 .25882 -.27735 .96077 0 0)"
     cy="34.482"
     cx="1742.8"
     display="none"
     fill="url(#radialGradient26875)" />
  <g
     id="layer2-5"
     display="none"
     transform="matrix(6.7274 0 0 6.7274 -2080.7 -889.77)">
    <rect
       id="rect3745-6"
       opacity=".9"
       rx="6"
       ry="6"
       height="85"
       filter="url(#filter3174-38)"
       width="86"
       y="7"
       x="5"
       fill="url(#linearGradient6148)" />
  </g>
  <g
     id="layer2-3-5"
     display="none"
     transform="matrix(6.7274 0 0 6.7274 -2080.7 -889.77)">
    <rect
       id="rect3745-8-5"
       opacity=".9"
       rx="6"
       ry="6"
       height="85"
       filter="url(#filter3174-5-6)"
       width="86"
       y="7"
       x="5"
       fill="url(#linearGradient6148)" />
  </g>
  <path
     id="path3848-3"
     d="m-789.45-490.39c-31.718 0.73046-61.283 23.617-71.031 53.75-10.408 29.448-0.1539 63.832 23.031 84.219 0.2111 0.18773 0.44298 0.34587 0.65625 0.53125 0.0607 0.0539 0.12666 0.1025 0.1875 0.15625 0.53347 0.4555 1.0471 0.93438 1.5938 1.375 0.0982 0.0801 0.21385 0.13919 0.3125 0.21875 0.0114 0.009 0.0198 0.0222 0.0312 0.0312 0.0924 0.0753 0.18851 0.14387 0.28125 0.21875 0.0114 0.009 0.0198 0.0222 0.0312 0.0312 0.081 0.066 0.16873 0.1218 0.25 0.1875 0.0115 0.009 0.0197 0.0223 0.0312 0.0312 0.0114 0.009 0.0198 0.0222 0.0312 0.0312 0.0682 0.0557 0.11908 0.13204 0.1875 0.1875 0.0806 0.0661 0.16909 0.12176 0.25 0.1875 0.26263 0.21589 0.51553 0.44392 0.78125 0.65625 0.0113 0.009 0.0199 0.0221 0.0312 0.0312v77.719l366.09 366.06h61.812c0.19472-5.1667 0.39905-10.333 0.59375-15.5l15.5-0.5625v-71.125c-0.11718-3.5064-0.66635-7.1765 2.9688-9.0938 17.971-15.566 29.967-38.912 28.375-63.031 0.24347-20.205-8.8362-39.465-23.031-53.562-0.13063-0.13149-0.27474-0.2444-0.40625-0.375l-343.31-342.94c-1.6885-1.8492-3.3938-3.742-5.125-5.5-0.12897-0.13157-0.24515-0.27555-0.375-0.40625-14.005-14.287-33.185-23.492-53.375-23.375-2.1284-0.1527-4.2605-0.20495-6.375-0.15625z"
     fill-opacity=".39216"
     display="none" />
  <path
     id="path11978-0"
     d="m-729.32-466.45c1.4663 1.516 2.9049 3.0642 4.25 4.6875 1.5801 1.907 3.0707 3.8973 4.4688 5.9375 1.398 2.0402 2.7063 4.1239 3.9062 6.2812 1.1999 2.1574 2.2954 4.3665 3.2812 6.625 0.98586 2.2585 1.8379 4.594 2.5938 6.9375 0.75581 2.3435 1.3964 4.7125 1.9062 7.125s0.90844 4.847 1.1562 7.3125c0.24781 2.4655 0.34265 4.9664 0.3125 7.4688 0.19898 3.0149 0.21091 6.023 0 9s-0.62772 5.932-1.2188 8.8438c-0.59103 2.9118-1.3711 5.7746-2.3125 8.5938-0.94136 2.8192-2.0506 5.582-3.3125 8.2812s-2.666 5.3231-4.2188 7.875c-1.5527 2.5519-3.2488 5.029-5.0625 7.4062s-3.7676 4.6686-5.8125 6.8438-4.1912 4.2418-6.4375 6.1875c-0.90877 0.47931-1.5415 1.0487-2 1.7188-0.45846 0.67003-0.72299 1.4189-0.875 2.2188-0.30402 1.5996-0.15234 3.403-0.0937 5.1562v71.125h-16.094v16.062h-61.812l350 350h61.812c0.19472-5.1667 0.39905-10.333 0.59375-15.5l15.5-0.5625v-71.125c-0.11718-3.5064-0.66635-7.1765 2.9688-9.0938 17.971-15.566 29.967-38.912 28.375-63.031 0.2435-20.205-8.8362-39.465-23.031-53.562-0.13063-0.13149-0.27474-0.2444-0.40625-0.375l-343.31-342.94c-1.6885-1.8492-3.3939-3.742-5.125-5.5zm-87.375 211.69v-16.062h-16.094l16.094 16.062z"
     fill-opacity=".39216"
     display="none" />
  <path
     id="path11980-6"
     d="m-1001.9-281.7 425.16 425.12v-125.12l-300-300z"
     fill-opacity=".39216"
     display="none" />
  <g
     id="layer2-4-0"
     display="none"
     transform="matrix(6.7274 0 0 6.7274 -2838 -809.34)">
    <rect
       id="rect3745-3-5"
       opacity=".9"
       rx="6"
       ry="6"
       height="85"
       filter="url(#filter3174-3-3)"
       width="86"
       y="7"
       x="5"
       fill="url(#linearGradient6148)" />
  </g>
  <path
     id="path4230-5"
     d="m365.87 165.47c-2.1202 7.3447-36.402 181.33-29.267 189.98 6.1765 7.4828 15.826 4.2405 17.946-3.1042-2.1202 7.3447-6.3607 22.034-8.4809 29.379-17.946 3.1042-33.92-0.81668-37.444-17.946-4.0713-19.793 27.134-182.59 29.267-189.98-4.7411-8.958-29.531-15.826-33.772-1.1362l-7.9128-2.1202c18.514-34.603 53.838-9.3127 69.663-5.0722z"
     display="none" />
  <path
     id="path4232-6"
     d="m343.69 183.26c-26.427 32.483-124.22 164.54-147.96 158.17l-15.826-4.2405 12.153-12.569 7.9128 2.1202c15.826 4.2405 123.65-133.04 140.05-160.3 12.573-20.906 3.6724 16.81 3.6724 16.81z"
     display="none" />
  <path
     id="path4234-8"
     d="m280.8 253.45 47.477 12.721-4.2405 14.689-55.39-14.842z"
     display="none" />
  <ellipse
     id="path3281-0-0-7"
     rx="266.61"
     transform="matrix(.96593 .25882 -.27735 .96077 0 0)"
     ry="248.8"
     cy="150.82"
     cx="315.89"
     display="none"
     fill="url(#radialGradient26869-2)" />
  <path
     id="path4230-0-7"
     d="m365.87 165.47c-2.1202 7.3447-36.402 181.33-29.267 189.98 6.1765 7.4828 15.826 4.2405 17.946-3.1042-2.1202 7.3447-6.3607 22.034-8.4809 29.379-17.946 3.1042-33.92-0.81668-37.444-17.946-4.0713-19.793 27.134-182.59 29.267-189.98-4.7411-8.958-29.531-15.826-33.772-1.1362l-7.9128-2.1202c18.514-34.603 53.838-9.3127 69.663-5.0722z"
     display="none" />
  <path
     id="path4232-1-5"
     d="m343.69 183.26c-26.427 32.483-124.22 164.54-147.96 158.17l-15.826-4.2405 12.153-12.569 7.9128 2.1202c15.826 4.2405 123.65-133.04 140.05-160.3 12.573-20.906 3.6724 16.81 3.6724 16.81z"
     display="none" />
  <path
     id="path4234-6-1"
     d="m280.8 253.45 47.477 12.721-4.2405 14.689-55.39-14.842z"
     display="none" />
  <ellipse
     id="path3281-0-0-1-0"
     rx="266.61"
     transform="matrix(.96593 .25882 -.27735 .96077 0 0)"
     ry="248.8"
     cy="150.82"
     cx="315.89"
     display="none"
     fill="url(#radialGradient26869-2)" />
  <path
     id="path4230-8-7"
     d="m1772.8 423c-2.1203 7.3447-36.402 181.33-29.267 189.98 6.1765 7.4828 15.826 4.2405 17.946-3.1042-2.1203 7.3447-6.3607 22.034-8.481 29.379-17.946 3.1042-33.92-0.81668-37.444-17.946-4.0713-19.793 27.134-182.59 29.267-189.98-4.7412-8.958-29.531-15.826-33.772-1.1362l-7.9128-2.1202c18.514-34.603 53.838-9.3127 69.663-5.0722z"
     display="none" />
  <path
     id="path4232-9-4"
     d="m1750.6 440.8c-26.427 32.483-124.22 164.54-147.96 158.17l-15.826-4.2405 12.153-12.569 7.9128 2.1202c15.826 4.2405 123.65-133.04 140.05-160.3 12.573-20.906 3.6723 16.81 3.6723 16.81z"
     display="none" />
  <path
     id="path4234-5-0"
     d="m1687.7 510.99 47.477 12.721-4.2405 14.689-55.39-14.842z"
     display="none" />
  <ellipse
     id="path3281-0-0-6-1"
     rx="266.61"
     transform="matrix(.96593 .25882 -.27735 .96077 0 0)"
     ry="248.8"
     cy="35.421"
     cx="1739.3"
     display="none"
     fill="url(#radialGradient26875-4)" />
  <g
     id="layer2-0"
     display="none"
     transform="matrix(6.7274 0 0 6.7274 -2043.3 -889.77)">
    <rect
       id="rect3745-50"
       opacity=".9"
       rx="6"
       ry="6"
       height="85"
       filter="url(#filter3174-6)"
       width="86"
       y="7"
       x="5"
       fill="url(#linearGradient6148)" />
  </g>
  <g
     id="layer2-3-0"
     display="none"
     transform="matrix(6.7274 0 0 6.7274 -2043.3 -889.77)">
    <rect
       id="rect3745-8-1"
       opacity=".9"
       rx="6"
       ry="6"
       height="85"
       filter="url(#filter3174-5-3)"
       width="86"
       y="7"
       x="5"
       fill="url(#linearGradient6148)" />
  </g>
  <path
     id="path3848-0"
     d="m-752.07-490.39c-31.718 0.73046-61.283 23.617-71.031 53.75-10.408 29.448-0.1539 63.832 23.031 84.219 0.2111 0.18773 0.44298 0.34587 0.65625 0.53125 0.0607 0.0539 0.12666 0.1025 0.1875 0.15625 0.53347 0.4555 1.0471 0.93438 1.5938 1.375 0.0982 0.0801 0.21385 0.13919 0.3125 0.21875 0.0114 0.009 0.0198 0.0222 0.0312 0.0312 0.0924 0.0753 0.18851 0.14387 0.28125 0.21875 0.0114 0.009 0.0198 0.0222 0.0312 0.0312 0.081 0.066 0.16873 0.1218 0.25 0.1875 0.0115 0.009 0.0197 0.0223 0.0312 0.0312 0.0114 0.009 0.0198 0.0222 0.0312 0.0312 0.0682 0.0557 0.11908 0.13204 0.1875 0.1875 0.0806 0.0661 0.16909 0.12176 0.25 0.1875 0.26263 0.21589 0.51553 0.44392 0.78125 0.65625 0.0113 0.009 0.0199 0.0221 0.0312 0.0312v77.719l366.09 366.06h61.812c0.19472-5.1667 0.39905-10.333 0.59375-15.5l15.5-0.5625v-71.125c-0.11718-3.5064-0.66635-7.1765 2.9688-9.0938 17.971-15.566 29.967-38.912 28.375-63.031 0.24347-20.205-8.8362-39.465-23.031-53.562-0.13063-0.13149-0.27474-0.2444-0.40625-0.375l-343.3-342.95c-1.6885-1.8492-3.3938-3.742-5.125-5.5-0.12897-0.13157-0.24515-0.27555-0.375-0.40625-14.005-14.287-33.185-23.492-53.375-23.375-2.1284-0.1527-4.2605-0.20495-6.375-0.15625z"
     fill-opacity=".39216"
     display="none" />
  <path
     id="path11978-7"
     d="m-691.95-466.45c1.4663 1.516 2.9049 3.0642 4.25 4.6875 1.5801 1.907 3.0707 3.8973 4.4688 5.9375 1.398 2.0402 2.7063 4.1239 3.9062 6.2812 1.1999 2.1574 2.2954 4.3665 3.2812 6.625 0.98586 2.2585 1.8379 4.594 2.5938 6.9375 0.75581 2.3435 1.3964 4.7125 1.9062 7.125s0.90844 4.847 1.1562 7.3125c0.24781 2.4655 0.34265 4.9664 0.3125 7.4688 0.19898 3.0149 0.21091 6.023 0 9s-0.62772 5.932-1.2188 8.8438c-0.59103 2.9118-1.3711 5.7746-2.3125 8.5938-0.94136 2.8192-2.0506 5.582-3.3125 8.2812s-2.666 5.3231-4.2188 7.875c-1.5527 2.5519-3.2488 5.029-5.0625 7.4062s-3.7676 4.6686-5.8125 6.8438-4.1912 4.2418-6.4375 6.1875c-0.90877 0.47931-1.5415 1.0487-2 1.7188-0.45846 0.67003-0.72299 1.4189-0.875 2.2188-0.30402 1.5996-0.15234 3.403-0.0937 5.1562v71.125h-16.094v16.062h-61.812l350 350h61.812c0.19472-5.1667 0.39905-10.333 0.59375-15.5l15.5-0.5625v-71.125c-0.11718-3.5064-0.66635-7.1765 2.9688-9.0938 17.971-15.566 29.967-38.912 28.375-63.031 0.2435-20.205-8.8362-39.465-23.031-53.562-0.13063-0.13149-0.27474-0.2444-0.40625-0.375l-343.31-342.94c-1.6885-1.8492-3.3939-3.742-5.125-5.5zm-87.375 211.69v-16.062h-16.094l16.094 16.062z"
     fill-opacity=".39216"
     display="none" />
  <path
     id="path11980-69"
     d="m-964.54-281.7 425.16 425.12v-125.12l-300-300z"
     fill-opacity=".39216"
     display="none" />
  <g
     id="layer2-4-5"
     display="none"
     transform="matrix(6.7274 0 0 6.7274 -2800.6 -809.34)">
    <rect
       id="rect3745-3-6"
       opacity=".9"
       rx="6"
       ry="6"
       height="85"
       filter="url(#filter3174-3-2)"
       width="86"
       y="7"
       x="5"
       fill="url(#linearGradient6148)" />
  </g>
  <path
     id="path4230-6"
     d="m403.25 165.47c-2.1202 7.3447-36.402 181.33-29.267 189.98 6.1765 7.4828 15.826 4.2405 17.946-3.1042-2.1202 7.3447-6.3607 22.034-8.4809 29.379-17.946 3.1042-33.92-0.81668-37.444-17.946-4.0713-19.793 27.134-182.59 29.267-189.98-4.7411-8.958-29.531-15.826-33.772-1.1362l-7.9128-2.1202c18.514-34.603 53.838-9.3127 69.663-5.0722z"
     display="none" />
  <path
     id="path4232-3"
     d="m381.06 183.26c-26.427 32.483-124.22 164.54-147.96 158.17l-15.826-4.2405 12.153-12.569 7.9128 2.1202c15.826 4.2405 123.65-133.04 140.05-160.3 12.573-20.906 3.6724 16.81 3.6724 16.81z"
     display="none" />
  <path
     id="path4234-7"
     d="m318.18 253.45 47.477 12.721-4.2405 14.689-55.39-14.842z"
     display="none" />
  <ellipse
     id="path3281-0-0-60"
     rx="266.61"
     ry="248.8"
     transform="matrix(.96593 .25882 -.27735 .96077 0 0)"
     cy="141.15"
     cx="351.81"
     display="none"
     fill="url(#radialGradient26869-3)" />
  <path
     id="path4230-0-3"
     d="m403.25 165.47c-2.1202 7.3447-36.402 181.33-29.267 189.98 6.1765 7.4828 15.826 4.2405 17.946-3.1042-2.1202 7.3447-6.3607 22.034-8.4809 29.379-17.946 3.1042-33.92-0.81668-37.444-17.946-4.0713-19.793 27.134-182.59 29.267-189.98-4.7411-8.958-29.531-15.826-33.772-1.1362l-7.9128-2.1202c18.514-34.603 53.838-9.3127 69.663-5.0722z"
     display="none" />
  <path
     id="path4232-1-8"
     d="m381.06 183.26c-26.427 32.483-124.22 164.54-147.96 158.17l-15.826-4.2405 12.153-12.569 7.9128 2.1202c15.826 4.2405 123.65-133.04 140.05-160.3 12.573-20.906 3.6724 16.81 3.6724 16.81z"
     display="none" />
  <path
     id="path4234-6-3"
     d="m318.18 253.45 47.477 12.721-4.2405 14.689-55.39-14.842z"
     display="none" />
  <ellipse
     id="path3281-0-0-1-3"
     rx="266.61"
     transform="matrix(.96593 .25882 -.27735 .96077 0 0)"
     ry="248.8"
     cy="141.15"
     cx="351.81"
     display="none"
     fill="url(#radialGradient26869-3)" />
  <path
     id="path4230-8-1"
     d="m1810.2 423c-2.1203 7.3447-36.402 181.33-29.268 189.98 6.1765 7.4828 15.826 4.2405 17.946-3.1042-2.1203 7.3447-6.3608 22.034-8.4811 29.379-17.946 3.1042-33.92-0.81668-37.444-17.946-4.0713-19.793 27.134-182.59 29.268-189.98-4.7412-8.958-29.531-15.826-33.772-1.1362l-7.9128-2.1202c18.514-34.603 53.838-9.3127 69.663-5.0722z"
     display="none" />
  <path
     id="path4232-9-5"
     d="m1788 440.8c-26.427 32.483-124.22 164.54-147.96 158.17l-15.826-4.2405 12.153-12.569 7.9129 2.1202c15.826 4.2405 123.65-133.04 140.05-160.3 12.574-20.906 3.6724 16.81 3.6724 16.81z"
     display="none" />
  <path
     id="path4234-5-1"
     d="m1725.1 510.99 47.477 12.721-4.2405 14.689-55.39-14.842z"
     display="none" />
  <ellipse
     id="path3281-0-0-6-99"
     rx="266.61"
     ry="248.8"
     transform="matrix(.96593 .25882 -.27735 .96077 0 0)"
     cy="25.745"
     cx="1775.2"
     display="none"
     fill="url(#radialGradient26875-7)" />
  <path
     id="path4230-4"
     d="m349.75 114.66c-2.1202 7.3447-36.402 181.33-29.267 189.98 6.1765 7.4828 15.826 4.2405 17.946-3.1042-2.1202 7.3447-6.3607 22.034-8.4809 29.379-17.946 3.1042-33.92-0.81668-37.444-17.946-4.0713-19.793 27.134-182.59 29.267-189.98-4.7411-8.958-29.531-15.826-33.772-1.1362l-7.9128-2.1202c18.514-34.603 53.838-9.3127 69.663-5.0722z"
     display="none" />
  <path
     id="path4232-19"
     d="m327.56 132.45c-26.427 32.483-124.22 164.54-147.96 158.17l-15.826-4.2405 12.153-12.569 7.9128 2.1202c15.826 4.2405 123.65-133.04 140.05-160.3 12.573-20.906 3.6724 16.81 3.6724 16.81z"
     display="none" />
  <path
     id="path4234-56"
     d="m264.67 202.64 47.477 12.721-4.2405 14.689-55.39-14.842z"
     display="none" />
  <ellipse
     id="path3281-0-0-16"
     rx="266.61"
     transform="matrix(.96593 .25882 -.27735 .96077 0 0)"
     ry="248.8"
     cy="105.91"
     cx="286.3"
     display="none"
     fill="url(#radialGradient21305-6-1)" />
  <path
     id="path4230-0-5"
     d="m349.75 114.66c-2.1202 7.3447-36.402 181.33-29.267 189.98 6.1765 7.4828 15.826 4.2405 17.946-3.1042-2.1202 7.3447-6.3607 22.034-8.4809 29.379-17.946 3.1042-33.92-0.81668-37.444-17.946-4.0713-19.793 27.134-182.59 29.267-189.98-4.7411-8.958-29.531-15.826-33.772-1.1362l-7.9128-2.1202c18.514-34.603 53.838-9.3127 69.663-5.0722z"
     display="none" />
  <path
     id="path4232-1-1"
     d="m327.56 132.45c-26.427 32.483-124.22 164.54-147.96 158.17l-15.826-4.2405 12.153-12.569 7.9128 2.1202c15.826 4.2405 123.65-133.04 140.05-160.3 12.573-20.906 3.6724 16.81 3.6724 16.81z"
     display="none" />
  <path
     id="path4234-6-7"
     d="m264.67 202.64 47.477 12.721-4.2405 14.689-55.39-14.842z"
     display="none" />
  <ellipse
     id="path3281-0-0-1-5"
     rx="266.61"
     transform="matrix(.96593 .25882 -.27735 .96077 0 0)"
     ry="248.8"
     cy="105.91"
     cx="286.3"
     display="none"
     fill="url(#radialGradient21305-6-1)" />
  <path
     id="path4230-8-70"
     d="m1756.7 372.19c-2.1203 7.3447-36.402 181.33-29.268 189.98 6.1765 7.4828 15.826 4.2405 17.946-3.1042-2.1203 7.3447-6.3608 22.034-8.4811 29.379-17.946 3.1042-33.92-0.81668-37.444-17.946-4.0713-19.793 27.134-182.59 29.268-189.98-4.7412-8.958-29.531-15.826-33.772-1.1362l-7.9129-2.1202c18.514-34.603 53.838-9.3127 69.663-5.0722z"
     display="none" />
  <path
     id="path4232-9-2"
     d="m1734.5 389.98c-26.427 32.483-124.22 164.54-147.96 158.17l-15.826-4.2405 12.153-12.569 7.9128 2.1202c15.826 4.2405 123.65-133.04 140.05-160.3 12.574-20.906 3.6724 16.81 3.6724 16.81z"
     display="none" />
  <path
     id="path4234-5-2"
     d="m1671.6 460.17 47.477 12.721-4.2404 14.689-55.39-14.842z"
     display="none" />
  <ellipse
     id="path3281-0-0-6-6"
     rx="266.61"
     transform="matrix(.96593 .25882 -.27735 .96077 0 0)"
     ry="248.8"
     cy="-9.4945"
     cx="1709.7"
     display="none"
     fill="url(#radialGradient21305-0-3)" />
  <g
     id="layer2-2"
     display="none"
     transform="matrix(6.7274 0 0 6.7274 -2854.1 -860.15)">
    <rect
       id="rect3745-85"
       opacity=".9"
       rx="6"
       ry="6"
       height="85"
       filter="url(#filter3174-39)"
       width="86"
       y="7"
       x="5"
       fill="url(#linearGradient6148)" />
  </g>
  <g
     id="layer2-3-2"
     display="none"
     transform="matrix(6.7274 0 0 6.7274 -2854.1 -860.15)">
    <rect
       id="rect3745-8-4"
       opacity=".9"
       rx="6"
       ry="6"
       height="85"
       filter="url(#filter3174-5-0)"
       width="86"
       y="7"
       x="5"
       fill="url(#linearGradient6148)" />
  </g>
  <path
     inkscape:connector-curvature="0"
     id="path116701"
     style="color:#000000;opacity:0.222;fill:#ffffff;filter:url(#3-2)"
     d="m 26.00002,-0.06094983 c -3.141,0 -6.15,0.55316 -8.934,1.56640003 C 11.11702,10.35205 5.42402,19.53345 2e-5,29.02345 l 0,72.656 c 69.51499,51.53 160.84999,82.81 260.90999,82.81 95.41,0 182.89,-28.41 251.09,-75.72 l 0,-73.51 c -6.69,-12.131 -13.81,-23.781 -21.34,-34.89599983 -1.51,-0.27266 -3.07,-0.424 -4.66,-0.424 l -459.99999,0 z" />
  <path
     inkscape:connector-curvature="0"
     style="opacity:0.25"
     id="path122975"
     d="m 251.31999,41.3735 c -15.46,0.2 -30.53999,1.755 -43.00999,4.668 -84.09001,19.651 -145.810005,83.307 -163.850005,169.03 -4.199,19.93 -4.667,58.73 -0.901,78.3 5.937,30.86 19.052,62.23 36.365,87.1 5.603,8.04 14.01,17.65 23.156005,26.79 l 104.73,104.74 278.19,0 c 14.39999,0 25.99999,-11.6 25.99999,-26 l 0,-278.28 -103.5,-103.5 c -27.26,-27.259 -61.79,-47.285 -100.38,-56.982 -16.42,-4.127 -36.9,-6.091 -56.77,-5.836 l -0.03,-0.027 z" />
  <path
     inkscape:connector-curvature="0"
     style="fill:#ffffff"
     id="path117647"
     d="m 251.31999,41.3735 c -15.461,0.19969 -30.539,1.7555 -43.00899,4.6689 -84.09,19.651 -145.810005,83.306 -163.850005,169.03 -4.1963,19.928 -4.6632,58.729 -0.89787,78.294 5.9374,30.858 19.052,62.233 36.364,87.1 12.042,17.282 37.031005,41.805 54.454995,53.384 26.571,17.638 57.923,30.164 86.871,34.751 16.769,2.6563 52.278,2.7065 68.238,0.0905 47.566,-7.7935 84.273,-26.659 118.6,-61.011 19.829,-19.839 28.99,-32.299 39.821,-53.963 15.56,-31.121 21.736,-55.264 22.89601,-89.787 0.89069,-26.382 -1.28141,-45.182 -7.7217,-67.475 -21.2,-73.37 -80.54001,-130.51 -154.97001,-149.21 -16.42,-4.13 -36.90999,-6.095 -56.78999,-5.838 m 15.354,41.572 c 0.9309,0.0546 2.5212,0.90362 4.26519,2.4695 1.54001,1.3834 6.0236,5.0654 9.96711,8.1713 12.034,9.4772 29.183,28.16 38.16,41.526 14.51,21.621 23.569,43.399 29.63,71.515 3.478,16.131 3.557,65.839 0.13504,80.995 -1.2498,5.5309 -2.0543,10.318 -1.7957,10.595 0.25858,0.27726 3.6418,-2.5025 7.5421,-6.15 13.846,-12.958 19.793,-33.467 18.361,-63.339 -0.49275,-10.272 -1.2197,-20.938 -1.6162,-23.704 -0.66083,-4.6028 -0.40224,-4.373 2.8732,2.6045 6.0581,12.903 13.725,38.674 16.073,53.963 4.1173,26.818 0.56889,55.715 -9.60791,78.165 -12.757,28.134 -40.282,56.714 -68.73199,71.381 -4.5583,2.3503 -4.3083,1.8848 3.8156,-7.7662 10.223,-12.145 16.637,-23.714 19.664,-35.332 2.2353,-8.5808 2.9479,-19.589 1.3475,-21.19 -0.48413,-0.48413 -3.2927,2.1707 -6.2406,5.8814 -11.475,14.452 -25.902,25.007 -36.724,26.936 l -5.7464,1.0329 6.6442,-6.2851 c 8.6626,-8.2403 16.106,-19.869 20.155,-31.47 2.7985,-8.0147 3.2826,-12.289 3.3228,-30.168 0.0302,-13.885 -0.64072,-22.985 -1.9753,-27.295 l -2.0198,-6.4646 -1.8862,8.9787 c -9.9498,47.33 -62.219,95.925 -112.54,104.6 -48.787,8.4098 -72.059,-21.825 -62.449,-81.124 4.837,-29.824 14.801,-50.726 34.119,-71.426 32.201,-34.493 48.2,-59.159 51.99,-80.09 l 1.5716,-8.575 4.4448,6.7347 c 5.9302,8.9528 9.7544,23.215 8.6626,32.414 -1.0976,9.2631 -4.6833,16.011 -14.495,27.295 -8.9873,10.332 -10.308,13.163 -8.1254,17.239 2.2957,4.2882 6.4431,4.8973 15.534,2.2899 22.386,-6.423 35.234,-20.571 42.29,-46.459 5.8038,-21.277 3.8055,-62.075 -4.6689,-95.26 -1.5472,-6.0624 -2.8286,-11.391 -2.8286,-11.852 0,-0.59762 0.33904,-0.84184 0.89787,-0.8088" />
</svg>
