<?xml version="1.0" encoding="UTF-8" standalone="no"?>
<!-- Created with Inkscape (http://www.inkscape.org/) -->

<svg
   xmlns:dc="http://purl.org/dc/elements/1.1/"
   xmlns:cc="http://creativecommons.org/ns#"
   xmlns:rdf="http://www.w3.org/1999/02/22-rdf-syntax-ns#"
   xmlns:svg="http://www.w3.org/2000/svg"
   xmlns="http://www.w3.org/2000/svg"
   xmlns:sodipodi="http://sodipodi.sourceforge.net/DTD/sodipodi-0.dtd"
   xmlns:inkscape="http://www.inkscape.org/namespaces/inkscape"
   id="svg2"
   height="100%"
   width="100%"
   version="1.1"
   viewBox="0 0 512 512"
   inkscape:version="0.91 r13725"
   sodipodi:docname="kalarm.svg">
  <defs
     id="defs32" />
  <sodipodi:namedview
     pagecolor="#ffffff"
     bordercolor="#666666"
     borderopacity="1"
     objecttolerance="10"
     gridtolerance="10"
     guidetolerance="10"
     inkscape:pageopacity="0"
     inkscape:pageshadow="2"
     inkscape:window-width="640"
     inkscape:window-height="480"
     id="namedview30"
     showgrid="false"
     inkscape:zoom="0.5546875"
     inkscape:cx="36.056338"
     inkscape:cy="240.67606"
     inkscape:current-layer="svg2" />
  <metadata
     id="metadata515">
    <rdf:RDF>
      <cc:Work
         rdf:about="">
        <dc:format>image/svg+xml</dc:format>
        <dc:type
           rdf:resource="http://purl.org/dc/dcmitype/StillImage" />
        <dc:title />
      </cc:Work>
    </rdf:RDF>
  </metadata>
  <g
     id="g3381"
     transform="translate(317.29577,-333.52113)">
    <path
       d="m -291.29577,333.52113 c -14.397,0 -26,11.603 -26,26 l 0,460 c 0,14.397 11.603,26 26,26 l 460,0 c 14.397,0 26,-11.603 26,-26 l 0,-460 c 0,-14.397 -11.6,-26 -26,-26 l -460,0"
       id="path9"
       style="fill:#cd1d31"
       inkscape:connector-curvature="0" />
    <path
       d="m -72.895775,374.52113 c -6.68,10e-4 -12.03,5.35 -12.03,12.029 l 0,23.315 56.53,56.526 -0.01,0 -56.52,-56.52 0,13.74 c -5.53,0.73 -10.98,1.707 -16.339995,2.91 l -21.84,-21.84 c -11.76,-11.757 -27.74,-17.47 -45.06,-17.566 l 27.29,27.293 c 0,0.002 -0.01,0.005 -0.02,0.008 l -27.29,-27.291 c -1.15,-0.007 -2.3,-0.008 -3.46,0.035 -16.47,0.616 -33.96,6.191 -50.119,16.457 l -0.328,-0.328 -0.004,-0.004 c -0.364,-0.364 -0.741,-0.721 -1.137,-1.061 l -0.001,-0.004 c -10.399,-8.962 -27.26,-6.43 -37.666,5.643 l 0.005,0.008 c -9.994,11.596 -10.367,27.8 -1.168,37 l 0.237,0.24 c -19.815,33.71 -19.727,72.33 3.107,95.17 l 18.406,18.41 c -4.447,15.97 -6.832,32.81 -6.832,50.2 l 49.56,49.56 c 0.01,0.01 0.01,0.02 0.01,0.03 l -49.579,-49.58 c 0,51.62 20.931,98.36 54.769,132.19 l 104.429995,104.43 256.660005,0 c 14.4,0 26,-11.6 26,-26 l 0,-355.39 -58.11,-58.11 c -10.47,-10.466 -26.11,-12.284 -35.95,-3.799 -0.52,0.443 -1.000005,0.911 -1.460005,1.391 l 40.760005,40.758 c 0,0.01 -0.01,0.01 -0.01,0.01 l -40.760005,-40.76 c -16.17,-10.266 -33.66,-15.842 -50.12,-16.459 l 0,-0.002 c -1.17,-0.044 -2.31,-0.042 -3.46,-0.035 l -0.01,-0.01 c -17.31,0.096 -33.3,5.808 -45.05999965,17.566 -1.19,1.194 -2.20999995,2.505 -3.27999995,3.783 l 42.3499996,42.357 c -6.86,-4.34 -14.02,-8.26 -21.45,-11.69 l -61.1,-61.1 c -2.17,-2.173 -5.18,-3.509 -8.52,-3.51 l -21.42,0 z m -143.849995,375.27 c -3.197,0 -6.368,1.23 -8.82,3.68 l 92.05,92.05 17.68,0 -92.05,-92.05 c -2.45,-2.45 -5.66,-3.68 -8.85,-3.68 l -0.01,0 z m -8.82,3.68 -17.209,17.17 -0.001,0 c -4.903,4.9 -4.903,12.77 0,17.67 l 57.21,57.21 52.05,0 -61.85,-61.85 -30.2,-30.2 z"
       id="path59"
       style="opacity:0.25;fill-rule:evenodd"
       inkscape:connector-curvature="0" />
    <path
       d="m -72.895775,374.52113 c -6.68,0 -12.03,5.35 -12.03,12.03 l 0,23.314 0,13.745 c -91.539995,12.1 -162.219995,90.44 -162.219995,185.28 0,103.23 83.73,186.96 186.959995,186.96 103.23,0 186.900005,-83.73 186.900005,-186.96 0,-96.22 -72.670005,-175.47 -166.150005,-185.79 l 0,-36.559 c 0,-6.68 -5.35,-12.03 -12.03,-12.03 l -21.422,0 m -95.289995,12.603 c -1.154,-0.007 -2.298,-0.008 -3.464,0.035 -16.464,0.616 -33.957,6.192 -50.12,16.459 -0.465,-0.481 -0.949,-0.949 -1.464,-1.392 -10.399,-8.962 -27.26,-6.432 -37.666,5.641 -10.08,11.695 -10.372,28.08 -0.928,37.23 -19.818,33.713 -19.729,72.34 3.106,95.18 0.51,0.51 1.117,0.904 1.642,1.392 0.765,-2.982 1.377,-6.04 2.284,-8.962 1.786,-5.743 3.856,-11.33 6.177,-16.823 2.321,-5.485 4.887,-10.833 7.712,-16.03 2.824,-5.196 5.879,-10.224 9.176,-15.1 3.296,-4.877 6.83,-9.609 10.568,-14.14 3.739,-4.529 7.704,-8.883 11.858,-13.03 4.149,-4.148 8.502,-8.08 13.03,-11.825 4.53,-3.737 9.223,-7.273 14.1,-10.568 4.879,-3.296 9.939,-6.352 15.15,-9.175 5.198,-2.823 10.545,-5.392 16.03,-7.712 5.486,-2.32 11.144,-4.391 16.89,-6.176 4.676,-1.454 9.453,-2.596 14.28,-3.677 -1.07,-1.278 -2.09,-2.59 -3.284,-3.784 -11.76,-11.757 -27.75,-17.47 -45.06,-17.566 m 213.749995,0 c -17.311,0.096 -33.3,5.808 -45.05999965,17.566 -1.194,1.194 -2.21399995,2.506 -3.28399995,3.784 4.829,1.082 9.641,2.222 14.3169996,3.677 5.743,1.786 11.365,3.856 16.856,6.176 5.486,2.32 10.869,4.889 16.07,7.712 5.198,2.823 10.223,5.88 15.1,9.175 4.879,3.296 9.572,6.831 14.1,10.568 4.53,3.737 8.881,7.668 13.03,11.825 4.149,4.148 8.114,8.502 11.858,13.03 3.739005,4.529 7.271005,9.26 10.568005,14.14 3.296,4.877 6.352,9.906 9.176,15.1 2.824,5.196 5.391,10.545 7.712,16.03 2.321,5.485 4.389,11.07 6.176,16.823 0.909,2.922 1.556,5.979 2.321,8.962 0.527,-0.488 1.097,-0.882 1.607,-1.392 22.836,-22.836 22.925,-61.47 3.106,-95.18 9.445,-9.159 9.151,-25.541 -0.928,-37.23 -10.404,-12.07 -27.27,-14.602 -37.666,-5.641 -0.515,0.444 -1.000005,0.911 -1.464005,1.392 -16.17,-10.266 -33.662,-15.842 -50.12,-16.459 -1.166,-0.044 -2.31,-0.042 -3.464,-0.035 m -105.75,75.79 c 80.64,0 145.99,65.34 145.99,145.99 0,80.64 -65.34,146.02 -145.99,146.02 -80.639995,0 -146.049995,-65.38 -146.049995,-146.02 0,-80.64 65.41,-145.99 146.049995,-145.99 m -46.409995,21.03 c -2.521,-0.01 -5.082,0.575 -7.462,1.857 l -1.929,1.035 c -7.635,4.097 -10.481,13.535 -6.39,21.17 l 42.349995,79.15 -52.909995,64.976 c -5.132,6.296 -4.19,15.468 2.107,20.6 l 3.177,2.642 c 6.296,5.132 15.504,4.19 20.635,-2.107 l 60.089995,-73.76 c 0.753,-0.924 1.362,-1.9 1.857,-2.927 2.457,-4.478 2.672,-10.06 0.072,-14.924 l -47.875,-89.46 c -2.813,-5.251 -8.164995,-8.224 -13.709995,-8.247 m -110.18,265.84 c -3.198,0 -6.367,1.226 -8.819,3.677 l -17.209,17.17 c -4.903,4.903 -4.903,12.771 0,17.673 l 12.531,12.531 c 4.903,4.903 12.806,4.903 17.708,0 l 17.17,-17.17 c 4.903,-4.903 4.903,-12.771 0,-17.673 l -12.531,-12.531 c -2.45,-2.45 -5.656,-3.677 -8.854,-3.677 m 310.639995,0 c -3.199,0 -6.404,1.226 -8.854,3.677 l -12.531,12.531 c -4.903,4.903 -4.903,12.771 0,17.673 l 17.17,17.17 c 4.903,4.903 12.806005,4.903 17.708005,0 l 12.531,-12.531 c 4.903,-4.903 4.903,-12.771 0,-17.673 l -17.17,-17.17 c -2.45,-2.45 -5.656005,-3.677 -8.854005,-3.677"
       id="path261"
       style="fill:#ffffff;fill-rule:evenodd"
       inkscape:connector-curvature="0" />
  </g>
</svg>
