<?xml version="1.0" encoding="UTF-8" standalone="no"?>
<!-- Created with Inkscape (http://www.inkscape.org/) -->

<svg
   xmlns:dc="http://purl.org/dc/elements/1.1/"
   xmlns:cc="http://creativecommons.org/ns#"
   xmlns:rdf="http://www.w3.org/1999/02/22-rdf-syntax-ns#"
   xmlns:svg="http://www.w3.org/2000/svg"
   xmlns="http://www.w3.org/2000/svg"
   xmlns:sodipodi="http://sodipodi.sourceforge.net/DTD/sodipodi-0.dtd"
   xmlns:inkscape="http://www.inkscape.org/namespaces/inkscape"
   id="svg2"
   height="100%"
   width="100%"
   version="1.1"
   viewBox="0 0 512 512"
   inkscape:version="0.91 r13725"
   sodipodi:docname="kate.svg">
  <defs
     id="defs10" />
  <sodipodi:namedview
     pagecolor="#ffffff"
     bordercolor="#666666"
     borderopacity="1"
     objecttolerance="10"
     gridtolerance="10"
     guidetolerance="10"
     inkscape:pageopacity="0"
     inkscape:pageshadow="2"
     inkscape:window-width="640"
     inkscape:window-height="480"
     id="namedview8"
     showgrid="false"
     inkscape:zoom="0.5546875"
     inkscape:cx="36.056338"
     inkscape:cy="240.67606"
     inkscape:current-layer="svg2" />
  <metadata
     id="metadata555">
    <rdf:RDF>
      <cc:Work
         rdf:about="">
        <dc:format>image/svg+xml</dc:format>
        <dc:type
           rdf:resource="http://purl.org/dc/dcmitype/StillImage" />
        <dc:title />
      </cc:Work>
    </rdf:RDF>
  </metadata>
  <style
     id="style1470"
     type="text/css" />
  <path
     inkscape:connector-curvature="0"
     style="fill:#68af4c"
     id="path13"
     d="M 26,0 C 11.603,0 0,11.603 0,26 l 0,460 c 0,14.397 11.603,26 26,26 l 460,0 c 14.397,0 26,-11.603 26,-26 L 512,26 C 512,11.603 500.4,0 486,0 L 26,0" />
  <path
     inkscape:connector-curvature="0"
     style="opacity:0.25"
     id="path17"
     d="m 118.48,41 c -6.86,10e-4 -12.42,5.566 -12.42,12.422 l 0,0.002 0,24.799 c 0,0.166 0.02,0.327 0.03,0.492 L 93.211,65.84 l 0,0.004 c -20.4,0.223 -36.764,16.727 -36.764,37.176 l 84.523,84.53 -84.521,-84.52 0,297.84 c 0.003,10.29 4.15,19.58 10.869,26.3 l 0.088,0.09 c -0.028,-0.03 -0.058,-0.05 -0.086,-0.08 L 152.14,512 486,512 c 14.4,0 26,-11.6 26,-26 L 512,195.79 392.9,76.69 C 387.41,71.201 380.2,67.441 372.13,66.25 L 350.44,44.559 c -2.24,-2.201 -5.31,-3.558 -8.7,-3.559 -6.86,10e-4 -12.38,5.566 -12.38,12.422 l 0,24.801 c 0,0.163 0.02,0.321 0.02,0.482 l -12.86,-12.865 0,0.004 -168.07,0 -21.23,-21.225 C 124.99,42.384 121.9,41.001 118.48,41 Z" />
  <path
     inkscape:connector-curvature="0"
     style="fill:#ffffff"
     id="path221"
     d="m 118.48,41 c -6.857,0 -12.422,5.565 -12.422,12.422 l 0,24.802 c 0,6.857 5.565,12.422 12.422,12.422 6.857,0 12.38,-5.565 12.38,-12.422 l 0,-24.802 C 130.86,46.565 125.34,41 118.48,41 m 223.26,0 c -6.857,0 -12.38,5.565 -12.38,12.422 l 0,24.802 c 0,6.857 5.523,12.422 12.38,12.422 6.857,0 12.422,-5.565 12.422,-12.422 l 0,-24.802 C 354.162,46.565 348.602,41 341.742,41 M 93.222,65.844 c -20.4,0.223 -36.763,16.728 -36.763,37.18 l 0,297.84 c 0,20.594 16.588,37.18 37.18,37.18 l 48.22,0 c 6.336,-26.376 18.04,-51.596 24.676,-77.81 31.896,-37.34 68.18,-71.28 102.9,-105.97 23.336,-22.03 44.968,-46.1 68.28,-68.07 13.755,-12.798 25.503,-32.984 46.583,-33.825 0.687,-0.03 1.372,-0.042 2.056,-0.042 5.958,0 11.809,1.154 17.416,3.064 l 0,-52.37 c 0,-20.465 -16.347,-36.977 -36.763,-37.18 l 0,12.38 c 0,13.796 -11.468,25.26 -25.26,25.26 -13.796,0 -25.22,-11.52 -25.22,-25.26 l 0,-12.38 -172.82,0 0,12.38 c 0,13.744 -11.426,25.26 -25.22,25.26 -13.796,0 -25.26,-11.468 -25.26,-25.26 l 0,-12.38 m 292.21,107.94 c -3.629,0.188 -6.741,1.357 -9.02,3.567 l -0.126,0.126 -17.668,17.71 75.54,75.5 17.416,-17.458 0.294,-0.252 c 0.04,-0.04 0.044,-0.085 0.084,-0.126 8.207,-8.454 1.948,-28.06 -14.14,-44.15 l -17.12,-17.16 c -11.13,-11.11 -23.98,-17.53 -33.63,-17.74 -0.539,-0.012 -1.076,-0.027 -1.595,0 l -0.042,0 m -264.09,13.765 196.23,0 c -10.151,10.341 -20.422,20.565 -30.761,30.761 l -165.47,0 c -8.524,0 -15.402,-6.877 -15.402,-15.402 0,-8.524 6.877,-15.36 15.402,-15.36 m 227.54,17.416 -18.675,18.717 75.5,75.54 18.675,-18.759 -75.5,-75.5 m -30.26,30.26 -113.98,114.02 -14.06,14.02 -3.567,3.567 -28.453,89.14 a 11.605,12.929 0 0 0 3.777,12.842 11.605,12.929 0 0 0 10.408,1.4268 l 90.4,-28.537 2.938,-2.98 13.597,-13.597 114.44,-114.4 -75.5,-75.5 m -197.28,30.09 117.63,0 c -10.319,10.187 -20.622,20.407 -30.761,30.761 l -86.87,0 c -8.524,0 -15.402,-6.877 -15.402,-15.402 0,-8.524 6.877,-15.36 15.402,-15.36 m 282.43,66.1 c -35.06,35.01 -70.26,69.898 -105.21,105 -0.003,0.542 -0.041,1.096 -0.084,1.637 l 68.15,0 c 20.594,0 37.14,-16.588 37.14,-37.18 l 0,-69.45 m -282.43,11.667 42.89,0 c -2.246,2.53 -4.495,5.04 -6.715,7.596 -4.463,7.164 -6.902,15.12 -9.149,23.17 l -27.03,0 c -8.524,0 -15.402,-6.835 -15.402,-15.36 0,-8.524 6.877,-15.402 15.402,-15.402 m 85.611,36.763 a 3.2386,3.2386 0 0 1 0.33573,0 l 0,0.042 a 3.2386,3.2386 0 0 1 0.0419,0 3.2386,3.2386 0 0 1 2.2662,0.96523 l 6.631,6.631 24.76,-1.259 a 3.2386,3.2386 0 0 1 2.3082,0.79736 3.2386,3.2386 0 0 1 1.0911,2.6019 l -1.217,26.942 4.91,4.91 a 3.2386,3.2386 0 0 1 -1.4688,5.4137 l -42.638,11.415 a 3.2386,3.2386 0 0 1 -3.1475,-0.79736 l -8.267,-8.267 a 3.2386,3.2386 0 0 1 -0.83933,-3.1894 l 12.464,-43.813 a 3.2386,3.2386 0 0 1 2.7698,-2.3921 m 69.41,57.37 -0.839,0.839 0.839,0 0,-0.839" />
</svg>
