<?xml version="1.0" encoding="UTF-8" standalone="no"?>
<!-- Created with Inkscape (http://www.inkscape.org/) -->

<svg
   xmlns:dc="http://purl.org/dc/elements/1.1/"
   xmlns:cc="http://creativecommons.org/ns#"
   xmlns:rdf="http://www.w3.org/1999/02/22-rdf-syntax-ns#"
   xmlns:svg="http://www.w3.org/2000/svg"
   xmlns="http://www.w3.org/2000/svg"
   xmlns:xlink="http://www.w3.org/1999/xlink"
   xmlns:sodipodi="http://sodipodi.sourceforge.net/DTD/sodipodi-0.dtd"
   xmlns:inkscape="http://www.inkscape.org/namespaces/inkscape"
   id="svg2"
   height="100%"
   width="100%"
   version="1.1"
   viewBox="0 0 512 512"
   inkscape:version="0.91 r13725"
   sodipodi:docname="kdevelop.svg">
  <sodipodi:namedview
     pagecolor="#ffffff"
     bordercolor="#666666"
     borderopacity="1"
     objecttolerance="10"
     gridtolerance="10"
     guidetolerance="10"
     inkscape:pageopacity="0"
     inkscape:pageshadow="2"
     inkscape:window-width="640"
     inkscape:window-height="480"
     id="namedview789"
     showgrid="false"
     inkscape:zoom="0.5546875"
     inkscape:cx="36.056338"
     inkscape:cy="240.67606"
     inkscape:current-layer="svg2" />
  <metadata
     id="metadata555">
    <rdf:RDF>
      <cc:Work
         rdf:about="">
        <dc:format>image/svg+xml</dc:format>
        <dc:type
           rdf:resource="http://purl.org/dc/dcmitype/StillImage" />
        <dc:title />
      </cc:Work>
    </rdf:RDF>
  </metadata>
  <defs
     id="defs4">
    <filter
       id="filter3174-0"
       color-interpolation-filters="sRGB">
      <feGaussianBlur
         id="feGaussianBlur3176-6"
         stdDeviation="1.71" />
    </filter>
    <linearGradient
       id="ButtonShadow-8"
       x1="45.448"
       gradientUnits="userSpaceOnUse"
       y1="92.54"
       gradientTransform="scale(1.0059 .99417)"
       x2="45.448"
       y2="7.0165">
      <stop
         id="stop3750-5"
         offset="0" />
      <stop
         id="stop3752-1"
         stop-opacity=".58824"
         offset="1" />
    </linearGradient>
    <filter
       id="filter3174-8"
       color-interpolation-filters="sRGB">
      <feGaussianBlur
         id="feGaussianBlur3176-3"
         stdDeviation="1.71" />
    </filter>
    <clipPath
       id="clipPath3613-8">
      <rect
         id="rect3615-9"
         rx="6"
         ry="6"
         height="84"
         width="84"
         y="6"
         x="6"
         fill="#fff" />
    </clipPath>
    <filter
       id="filter3794-5"
       height="1.384"
       width="1.384"
       color-interpolation-filters="sRGB"
       y="-.192"
       x="-.192">
      <feGaussianBlur
         id="feGaussianBlur3796-3"
         stdDeviation="5.28" />
    </filter>
    <linearGradient
       id="linearGradient3604"
       x1="48"
       gradientUnits="userSpaceOnUse"
       y1="20.221"
       x2="48"
       y2="138.66">
      <stop
         id="stop3739-2-2"
         stop-color="#fff"
         offset="0" />
      <stop
         id="stop3741-9"
         stop-color="#fff"
         stop-opacity="0"
         offset="1" />
    </linearGradient>
    <linearGradient
       id="linearGradient3607"
       x1="45.448"
       xlink:href="#ButtonShadow-8"
       gradientUnits="userSpaceOnUse"
       y1="92.54"
       gradientTransform="scale(1.0059 .99417)"
       x2="45.448"
       y2="7.0165" />
    <filter
       id="filter3174"
       color-interpolation-filters="sRGB">
      <feGaussianBlur
         id="feGaussianBlur3176"
         stdDeviation="1.71" />
    </filter>
    <style
       id="style5970"
       type="text/css" />
  </defs>
  <style
     id="style1470"
     type="text/css" />
  <style
     id="style1470-4"
     type="text/css" />
  <rect
     id="rect3745"
     opacity=".9"
     transform="matrix(3.1226 0 0 3.1226 -341.46 -20.047)"
     rx="6"
     ry="6"
     height="85"
     filter="url(#filter3174)"
     width="86"
     display="none"
     y="7"
     x="5"
     fill="url(#linearGradient3607)" />
  <path
     id="rect3745-2"
     opacity=".9"
     d="m11 7c-3.324 0-6 2.676-6 6v73c0 3.324 2.676 6 6 6h74c3.324 0 6-2.676 6-6v-73c0-3.324-2.676-6-6-6h-74zm-1 4h6v4h-6v-4zm70 0h6v4h-6v-4zm-70 8h6v4h-6v-4zm70 0h6v4h-6v-4zm-70 8h6v4h-6v-4zm70 0h6v4h-6v-4zm-70 8h6v4h-6v-4zm70 0h6v4h-6v-4zm-70 8h6v4h-6v-4zm70 0h6v4h-6v-4zm-70 8h6v4h-6v-4zm70 0h6v4h-6v-4zm-70 8h6v4h-6v-4zm70 0h6v4h-6v-4zm-70 8h6v4h-6v-4zm70 0h6v4h-6v-4zm-70 8h6v4h-6v-4zm70 0h6v4h-6v-4zm-70 8h6v4h-6v-4zm70 0h6v4h-6v-4z"
     transform="matrix(4.2365 0 0 4.2365 498.8 -571.15)"
     display="none"
     filter="url(#filter3174-0)"
     fill="url(#linearGradient3607)" />
  <rect
     id="rect3745-9"
     opacity=".9"
     transform="matrix(5.0049 0 0 5.0049 -950.71 -548.22)"
     rx="6"
     ry="6"
     height="85"
     filter="url(#filter3174-8)"
     width="86"
     display="none"
     y="7"
     x="5"
     fill="url(#linearGradient3607)" />
  <rect
     id="rect3171-6"
     ry="12"
     stroke="#fff"
     stroke-linecap="round"
     stroke-width=".5"
     fill="url(#linearGradient3604)"
     rx="12"
     transform="matrix(5.0049 0 0 5.0049 -950.71 -548.22)"
     width="66"
     opacity=".1"
     clip-path="url(#clipPath3613-8)"
     height="66"
     filter="url(#filter3794-5)"
     y="15"
     x="15"
     display="none" />
  <path
     id="path23392"
     style="color:#000000"
     d="m-1379.7-492.31c-7.1453 0-13.74 3.812-17.312 10-3.572 6.1878-3.5724 13.812 0 20 0.9304 1.611 2.0465 3.049 3.3438 4.3125 0.083 0.0834 0.166 0.1682 0.25 0.25l251.06 250.81c3.4907 2.7892 7.9381 4.3575 12.406 4.375 7.25-0.0194 14.304-4.3213 17.656-10.75 3.3518-6.4287 2.8535-14.701-1.2813-20.656-0.2486-0.36263-0.5092-0.71705-0.7812-1.0625l-250.91-251.12c-0.083-0.0838-0.1654-0.16767-0.25-0.25-3.6237-3.6523-8.6363-5.9062-14.188-5.9062zm60 0c-7.1453 0-13.74 3.812-17.312 10-3.572 6.1878-3.5724 13.812 0 20 0.9304 1.611 2.0465 3.049 3.3438 4.3125 0.083 0.0834 0.166 0.1682 0.25 0.25l251.06 250.81c3.4907 2.7892 7.9381 4.3575 12.406 4.375 7.25-0.0194 14.304-4.3213 17.656-10.75 3.3518-6.4287 2.8535-14.701-1.2813-20.656-0.2486-0.36263-0.5092-0.71705-0.7812-1.0625l-250.91-251.12c-0.083-0.0838-0.1654-0.16767-0.25-0.25-3.6237-3.6523-8.6363-5.9062-14.188-5.9062zm60 0c-7.1453 0-13.74 3.812-17.312 10-3.572 6.1878-3.5724 13.812 0 20 0.9304 1.611 2.0465 3.049 3.3438 4.3125 0.083 0.0834 0.166 0.1682 0.25 0.25l251.06 250.81c3.4907 2.7892 7.9381 4.3575 12.406 4.375 7.25-0.0194 14.304-4.3213 17.656-10.75 3.3519-6.4287 2.8536-14.701-1.2812-20.656-0.24864-0.36263-0.50925-0.71705-0.78125-1.0625l-250.91-251.12c-0.083-0.0838-0.1654-0.16767-0.25-0.25-3.6237-3.6523-8.6363-5.9062-14.188-5.9062z"
     fill-opacity=".31373"
     display="none" />
  <path
     id="path3132"
     d="m-1424.7-350.28c-13.688 0-15.123 0.90811-18.531 11.469-3.1027 9.6149-5.5821 11.943-17.5 16.562-10.829 4.1976-13.953 4.1884-19.25 0-6.4233-5.0788-14.498-3.3778-22.438 4.6875-8.9495 9.0909-9.5667 12.082-4.5312 21.688 4.5103 8.604 4.3538 12.318-1.0625 24.219-4.1018 9.0128-6.071 10.857-14.438 13.594-9.5265 3.1167-11.25 6.0449-11.25 19.031 0.5279 4.7111 0.04 10.889 2.8125 14.125l27.5 27.468c1.8957 5.3663 1.0095 6.6522-2.3438 12.969-5.4123 10.195-5.1193 12.686 3.8125 21.781l303.87 303.78c0.8936 0.8261 1.7188 1.5093 2.5 2.125 5.4413 4.2885 8.6191 3.6237 16.344-0.6562 6.4082-3.5506 8.9741-4.3252 15.156-2.3125l27.089 27.06c1.9665 1.8769 3.99 2.125 13.656 2.125 13.922 0 16.403-1.3453 18.281-9.75 2.4974-11.174 3.8953-12.702 15.719-17.562 12.903-5.3046 13.891-5.387 19.719-1.4063 8.9954 6.1443 14.284 5.595 22.531-2.3125 9.685-9.2858 11.588-14.728 7.3438-21.188-6.2342-9.4882-6.4216-12.188-1.5938-23.781 4.6977-11.28 7.3387-13.539 17.594-15.188 7.6176-1.2244 9.0811-3.8602 9.5625-16.969 0.3354-9.1338 0.011-13.732-2.5-16.656l-28.03-28.061c-1.7172-5.771-1.1247-8.7527 1.5625-12.406 5.4952-7.4711 4.8924-14.379-1.9375-21.719-0.1046-0.1125-0.2092-0.2022-0.3125-0.3125-0.626-0.6688-1.2337-1.3152-1.8125-1.9063l-300.46-300.49c-0.098-0.0969-0.2163-0.18666-0.3125-0.28125-0.1113-0.10789-0.2029-0.20774-0.3125-0.3125-7.5624-7.3351-11.426-7.3972-20.688-2.5-6.901 3.6489-9.812 4.2975-14.812 2.5938l-26.343-26.341c-2.729-2.8393-6.7479-3.1605-14.595-3.1605z"
     fill-opacity=".31373"
     display="none" />
  <g
     id="g4138"
     transform="translate(326.30986,-320.90141)">
    <path
       d="m -300.31036,320.90141 c -14.397,0 -26,11.603 -26,26 l 0,460 c 0,14.397 11.603,26 26,26 l 460,0 c 14.397,0 26,-11.603 26,-26 l 0,-460 c 0,-14.397 -11.6,-26 -26,-26 l -460,0 z"
       id="rect2986"
       style="fill:#93b43e"
       inkscape:connector-curvature="0" />
    <path
       d="m -231.31236,361.90141 c -0.559,0 -1.122,0.211 -1.516,0.605 l -15.763,15.809 c -0.826,0.826 -0.826,2.161 0,2.988 l 21.914,21.957 -6.063,6.106 c -1.375,1.376 -1.615,3.49 -0.607,5.154 l 38.757,63.881 c -6.46,11.1 -11.63,22.92 -15.37,35.34 l -71.414,14.89 c -1.956,0.41 -3.334,2.12 -3.334,4.12 l 0,46.16 c 0,1.15 0.456,2.2 1.218,2.96 l 76.14,76.14 -28.812,43.94 c -1.092,1.68 -0.847,3.91 0.563,5.33 l 125.62,125.62 269.67,0 c 14.4,0 26,-11.6 26,-26 l 0,-182.01 -151.479999,-151.48 c -21.85,-21.85 -51.98,-35.42 -85.23,-35.42 -7.62,0 -15.09,0.73 -22.33,2.11 l -33.100001,-33.095 c -0.13,-0.126 -0.27,-0.236 -0.44,-0.326 -0.54,-0.288 -1.2,-0.375 -1.77,-0.172 -8.23,2.974 -16.07,6.589 -23.56,10.741 -0.11,-0.079 -0.2,-0.194 -0.31,-0.26 l -62.32,-40.797 c -1.67,-1.096 -3.86,-0.894 -5.28,0.52 l -7.75,7.751 -21.959,-21.957 c -0.397,-0.396 -0.908,-0.605 -1.471,-0.605 l -0.002,0 z"
       id="path10829"
       style="opacity:0.25"
       inkscape:connector-curvature="0" />
    <path
       d="m -231.31136,361.90141 c -0.55862,0 -1.1223,0.2114 -1.5158,0.6063 l -15.764,15.807 c -0.82572,0.82572 -0.82572,2.161 0,2.9882 l 21.914,21.957 -6.063,6.1064 c -1.3757,1.3757 -1.6144,3.4892 -0.60631,5.1536 l 38.76,63.879 c -6.4665,11.099 -11.636,22.921 -15.374,35.339 l -71.414,14.898 c -1.9559,0.40784 -3.3347,2.1167 -3.3347,4.1142 l 0,46.166 c 0,1.9444 1.3164,3.6085 3.2048,4.0709 l 69.379,16.977 c 3.5556,14.447 9.0034,28.094 16.11,40.752 l -40.146,61.237 c -1.0928,1.6744 -0.84721,3.9094 0.563,5.3268 l 32.611,32.611 c 1.3757,1.3786 3.4921,1.6577 5.1536,0.64962 l 62.623,-38.024 c 11.824,6.8873 24.574,12.334 38.024001,16.11 l 14.551,69.898 c 0.42,1.95 2.13,3.36 4.13,3.36 l 46.122,0 c 1.9444,0 3.6532,-1.3668 4.1142,-3.2481 l 16.933,-69.335 c 14.2579998,-3.7653 27.875,-9.4058 40.492,-16.717 l 60.501,39.67 c 1.6701,1.0986 3.9066,0.89625 5.3268,-0.51969 l 8.444999,-8.445 21.264,21.264 c 0.83292,0.82859 2.1625,0.82859 2.9882,0 l 15.807,-15.764 c 0.82285,-0.82286 0.82285,-2.1625 0,-2.9882 l -21.307,-21.307 5.4134,-5.4134 c 1.3757,-1.3786 1.6216,-3.4993 0.6063,-5.1536 l -38.110999,-62.839 c 4.2392,-7.5148 7.8777,-15.396 10.912999,-23.646 0.20393,-0.55288 0.22383,-1.211 -0.0432,-1.7323 -0.27285,-0.52704 -0.76812,-0.87998 -1.342499,-1.0394 l -19.748,-5.4567 c -20.119,52.981 -71.1370002,90.729 -130.88,90.729 -76.800001,0 -140.060001,-63.232 -140.060001,-140.88 0,-59.309 37.446,-110.46 89.646,-130.92 l -4.4607,-20.095 c -0.1293,-0.59308 -0.46473,-1.0943 -0.99607,-1.3858 -0.53709,-0.28864 -1.2041,-0.37714 -1.7756,-0.17323 -8.2257,2.9741 -16.066,6.5886 -23.559,10.74 -0.10339,-0.079 -0.19401,-0.19378 -0.30315,-0.25984 l -62.319,-40.796 c -1.6744,-1.0957 -3.8661,-0.89338 -5.2835,0.51969 l -7.76,7.753 -21.959,-21.957 c -0.396,-0.396 -0.909,-0.606 -1.472,-0.606 z m 180.290001,76.091 c -66.230001,0 -120.780001,54.599 -120.780001,121.13 0,66.969 54.55,121.52 120.780001,121.52 66.704,0 120.83,-54.557 120.83,-121.52 0,-66.532 -54.122,-121.13 -120.83,-121.13 z m -43.178,60.674 a 10.325,10.466 0 0 1 0.73623,0 10.325,10.466 0 0 1 4.937,1.3425 l 43.134,24.599 a 10.325,10.466 0 0 1 0.21654,0.12986 l 42.6149998,25.551 a 10.325,10.466 0 0 1 0,18.059 l -42.6149998,25.551 a 10.325,10.466 0 0 1 -0.21654,0.12985 l -43.134,24.599 a 10.325,10.466 0 0 1 -15.374001,-9.008 l -0.6063,-50.193 a 10.325,10.466 0 0 1 0,-0.21654 l 0.6063,-50.193 a 10.325,10.466 0 0 1 9.700901,-10.35 z"
       id="path3888"
       style="fill:#ffffff"
       inkscape:connector-curvature="0" />
  </g>
</svg>
