<?xml version="1.0" encoding="UTF-8" standalone="no"?>
<!-- Created with Inkscape (http://www.inkscape.org/) -->

<svg
   xmlns:dc="http://purl.org/dc/elements/1.1/"
   xmlns:cc="http://creativecommons.org/ns#"
   xmlns:rdf="http://www.w3.org/1999/02/22-rdf-syntax-ns#"
   xmlns:svg="http://www.w3.org/2000/svg"
   xmlns="http://www.w3.org/2000/svg"
   xmlns:sodipodi="http://sodipodi.sourceforge.net/DTD/sodipodi-0.dtd"
   xmlns:inkscape="http://www.inkscape.org/namespaces/inkscape"
   id="svg2"
   height="100%"
   width="100%"
   version="1.1"
   viewBox="0 0 512 512"
   inkscape:version="0.91 r13725"
   sodipodi:docname="keyboard.svg">
  <defs
     id="defs9" />
  <sodipodi:namedview
     pagecolor="#ffffff"
     bordercolor="#666666"
     borderopacity="1"
     objecttolerance="10"
     gridtolerance="10"
     guidetolerance="10"
     inkscape:pageopacity="0"
     inkscape:pageshadow="2"
     inkscape:window-width="640"
     inkscape:window-height="480"
     id="namedview7"
     showgrid="false"
     inkscape:zoom="0.5546875"
     inkscape:cx="36.056338"
     inkscape:cy="240.67606"
     inkscape:current-layer="svg2" />
  <metadata
     id="metadata14">
    <rdf:RDF>
      <cc:Work
         rdf:about="">
        <dc:format>image/svg+xml</dc:format>
        <dc:type
           rdf:resource="http://purl.org/dc/dcmitype/StillImage" />
      </cc:Work>
    </rdf:RDF>
  </metadata>
  <g
     id="g3358"
     transform="translate(324.50704,-310.08451)">
    <path
       d="m -298.51804,310.08451 c -14.397,0 -26,11.603 -26,26 l 0,460 c 0,14.397 11.603,26 26,26 l 460,0 c 14.397,0 26,-11.603 26,-26 l 0,-460 c 0,-14.397 -11.6,-26 -26,-26 l -460,0"
       id="path4"
       style="fill:#b93d48"
       inkscape:connector-curvature="0" />
    <path
       d="m -189.10804,407.46451 c -5.161,-0.069 -8.313,0.691 -5.469,3.938 l -3.406,-3.406 c -20.49,-0.336 -30.94,18.275 -24.781,32.625 l -3.844,-3.844 c 1.838,10.545 -3.347,24.01 2.094,33.06 l -2.094,-2.094 c 0.948,8.01 4.351,14.665 8.969,20.656 -0.18,-0.071 -0.351,-0.148 -0.531,-0.219 l 1.813,1.813 c 4.408,5.366 9.737,10.228 15.06,15.06 l 34.531,34.531 c -1.386,4.878 -1.134,10.122 0.938,14.906 l -3.875,-3.875 c 0.719,4.126 0.378,8.701 0,13.281 l -25.594,-25.563 c -3.107,-3.174 -4.575,-4.845 -5,-5.03 l -3.125,-3.125 c -15.633,-11.203 -18.656,-8.91 -14.531,-2.688 l -5.656,-5.656 c -6.776,2.206 -35.12,-4.535 -27.75,3.531 l -3.531,-3.531 c -20.521,-0.336 -30.968,18.298 -24.75,32.656 l -3.875,-3.875 c 1.83,10.5 -3.326,23.886 2,32.938 l -2,-2 c 0.945,7.982 4.342,14.648 8.938,20.625 -0.167,-0.066 -0.332,-0.122 -0.5,-0.188 l 1.688,1.688 c 4.522,5.538 10.02,10.52 15.5,15.5 l 16.469,16.469 -4,0 c -20.459,-0.35 -30.898,18.23 -24.762,32.58 l -3.813,-3.813 c 1.834,10.522 -3.351,23.948 2.031,33 l -2.031,-2.031 c 0.946,7.99 4.303,14.643 8.906,20.625 -0.169,-0.067 -0.331,-0.152 -0.5,-0.219 l 1.688,1.688 c 4.484,5.491 9.936,10.437 15.375,15.375 l 14.844,14.844 c 0.052,0.063 0.105,0.124 0.156,0.188 l 74.19,74.19 320.84,0 c 14.397,0 26,-11.603 26,-26 l 0,-273.41 -93.220002,-93.22 c -0.485,-0.467 -0.868,-0.878 -1.313,-1.313 l -3.688,-3.656 c -3.107,-3.174 -4.575,-4.814 -5,-5 l -3.125,-3.125 c -15.554,-11.147 -18.625,-8.933 -14.594,-2.781 l -5.594,-5.594 c -6.73,2.191 -34.723,-4.409 -27.875,3.406 l -3.406,-3.406 c -20.4900003,-0.336 -30.9400003,18.275 -24.7810003,32.625 l -3.844,-3.844 c 0.719,4.123 0.346,8.705 -0.031,13.281 l -20.5629997,-20.594 c -0.485,-0.467 -0.868,-0.878 -1.313,-1.313 l -4.531,-4.5 c -2.443,-2.524 -3.778,-3.991 -4.156,-4.156 l -3.125,-3.125 c -15.57,-11.168 -18.64,-8.954 -14.61,-2.8 l -5.594,-5.594 c -6.776,2.206 -35.12,-4.504 -27.75,3.563 l -3.563,-3.563 c -20.476998,-0.335 -30.914998,18.248 -24.780998,32.594 l -3.813,-3.813 c 0.719,4.123 0.346,8.705 -0.031,13.281 l -25.594,-25.563 c -3.03,-3.093 -4.502,-4.744 -4.969,-5 l -3.125,-3.125 c -15.554,-11.147 -18.657,-8.933 -14.625,-2.781 l -5.594,-5.594 c -3.934,1.281 -15.14,-0.433 -22.406,-0.531"
       id="path6"
       style="opacity:0.25"
       inkscape:connector-curvature="0" />
    <path
       d="m -197.98804,407.99451 c -15.852,0 -28.62,12.846 -28.62,28.784 l 0,30.961 c 0,15.938 12.768,28.784 28.62,28.784 l 31.29,0 c 15.852,0 28.62,-12.846 28.62,-28.784 l 0,-30.961 c 0,-15.938 -12.768,-28.784 -28.62,-28.784 l -31.29,0 m 113.819998,0 c -15.851998,0 -28.619998,12.846 -28.619998,28.784 l 0,30.961 c 0,15.938 12.768,28.784 28.619998,28.784 l 31.29,0 c 15.852,0 28.62,-12.846 28.62,-28.784 l 0,-30.961 c 0,-15.938 -12.768,-28.784 -28.62,-28.784 l -31.29,0 m 113.82,0 c -15.852,0 -28.6200003,12.846 -28.6200003,28.784 l 0,30.961 c 0,15.938 12.7680003,28.784 28.6200003,28.784 l 31.29,0 c 15.852,0 28.62,-12.846 28.62,-28.784 l 0,-30.961 c 0,-15.938 -12.768,-28.784 -28.62,-28.784 l -31.29,0 m -284.559998,113.82 c -15.852,0 -28.62,12.846 -28.62,28.784 l 0,30.961 c 0,15.938 12.768,28.784 28.62,28.784 l 31.29,0 c 15.852,0 28.62,-12.846 28.62,-28.784 l 0,-30.961 c 0,-15.938 -12.768,-28.784 -28.62,-28.784 l -31.29,0 m 113.82,0 c -15.852,0 -28.62,12.846 -28.62,28.784 l 0,30.961 c 0,15.938 12.768,28.784 28.62,28.784 l 31.29,0 c 15.851998,0 28.619998,-12.846 28.619998,-28.784 l 0,-30.961 c 0,-15.938 -12.768,-28.784 -28.619998,-28.784 l -31.29,0 m 113.819998,0 c -15.852,0 -28.62,12.846 -28.62,28.784 l 0,30.961 c 0,15.938 12.768,28.784 28.62,28.784 l 31.2899997,0 c 15.8520003,0 28.6200003,-12.846 28.6200003,-28.784 l 0,-30.961 c 0,-15.938 -12.768,-28.784 -28.6200003,-28.784 l -31.2899997,0 m 113.82,0 c -15.852,0 -28.62,12.846 -28.62,28.784 l 0,30.961 c 0,15.938 12.768,28.784 28.62,28.784 l 31.290002,0 c 15.852,0 28.62,-12.846 28.62,-28.784 l 0,-30.961 c 0,-15.938 -12.768,-28.784 -28.62,-28.784 l -31.290002,0 m -331.989998,113.82 c -15.852,0 -28.62,12.846 -28.62,28.784 l 0,30.961 c 0,15.938 12.768,28.784 28.62,28.784 l 353.79,0 c 15.852,0 28.62,-12.846 28.62,-28.784 l 0,-30.961 c 0,-15.938 -12.768,-28.784 -28.62,-28.784 l -353.79,0"
       id="path8"
       style="fill:#ffffff"
       inkscape:connector-curvature="0" />
  </g>
</svg>
