<?xml version="1.0" encoding="UTF-8" standalone="no"?>
<!-- Created with Inkscape (http://www.inkscape.org/) -->

<svg
   xmlns:dc="http://purl.org/dc/elements/1.1/"
   xmlns:cc="http://creativecommons.org/ns#"
   xmlns:rdf="http://www.w3.org/1999/02/22-rdf-syntax-ns#"
   xmlns:svg="http://www.w3.org/2000/svg"
   xmlns="http://www.w3.org/2000/svg"
   xmlns:sodipodi="http://sodipodi.sourceforge.net/DTD/sodipodi-0.dtd"
   xmlns:inkscape="http://www.inkscape.org/namespaces/inkscape"
   id="svg2"
   height="100%"
   width="100%"
   version="1.1"
   viewBox="0 0 512 512"
   inkscape:version="0.91 r13725"
   sodipodi:docname="kfind.svg">
  <defs
     id="defs32" />
  <sodipodi:namedview
     pagecolor="#ffffff"
     bordercolor="#666666"
     borderopacity="1"
     objecttolerance="10"
     gridtolerance="10"
     guidetolerance="10"
     inkscape:pageopacity="0"
     inkscape:pageshadow="2"
     inkscape:window-width="640"
     inkscape:window-height="480"
     id="namedview30"
     showgrid="false"
     inkscape:zoom="0.5546875"
     inkscape:cx="36.056338"
     inkscape:cy="240.67606"
     inkscape:current-layer="svg2" />
  <metadata
     id="metadata60">
    <rdf:RDF>
      <cc:Work
         rdf:about="">
        <dc:format>image/svg+xml</dc:format>
        <dc:type
           rdf:resource="http://purl.org/dc/dcmitype/StillImage" />
      </cc:Work>
    </rdf:RDF>
  </metadata>
  <g
     id="g3381"
     transform="translate(326.30986,-362.3662)">
    <path
       d="m -300.31486,362.3622 c -14.397,0 -26,11.603 -26,26 l 0,460 c 0,14.397 11.603,26 26,26 l 460,0 c 14.397,0 26,-11.603 26,-26 l 0,-460 c 0,-14.397 -11.6,-26 -26,-26 l -460,0"
       id="path4"
       style="fill:#127faf"
       inkscape:connector-curvature="0" />
    <path
       d="m -130.03486,471.3022 c -17.894,0.317 -15.775,9.143 -8.125,18.938 l -12.03,-12.03 c -18.711,7.837 -29.671,30.904 -22.719,47.969 l -4.906,-4.906 c -0.686,4.824 0.446,9.129 2.75,13.09 l -7.094,-7.125 c -17.558,4.941 -41.714,21.369 -37.719,36.625 l -5.969,-5.969 c -21.79,27.664 -64.68,63.58 -48.37,101.13 l -8.625,-8.625 c -7.02,18.995 -2.218,37.38 8.688,52.25 l -8.844,-8.813 c 5.141,16.951 14.312,31.21 25.344,44.22 -0.21,-0.164 -0.416,-0.335 -0.625,-0.5 l 1.469,1.438 c 10.148,11.809 21.802,22.604 33.375,33.406 l 101.97,101.97 281.16,0 c 14.397,0 26,-11.603 26,-26 l 0,-197.09 c -6.144,-6.138 -12.294,-12.268 -18.438,-18.406 L 37.477141,503.0642 c -6.256,-7.04 -9.07,-9.8 -9.844,-9.844 l -5.969,-5.969 C 6.7031408,473.7582 0.93114085,474.9522 4.5441408,481.3762 l -7.969,-7.969 c -22.1599998,-5.976 -20.1499998,1.86 -12.0299998,11.781 l -12.25,-12.25 c -18.438,1.504 -35.589,18.843 -37.563,35.625 l -2.469,-2.438 c -7.645,-8.167 -11.235,-11.92 -12.313,-12.313 l -6.03,-6.06 c -8.01,-12.771 -32.450001,-17.09 -32.563001,-10.313 l -6,-6 c -1.263,-0.075 -2.473,-0.111 -3.594,-0.125 -0.619,-0.008 -1.204,-0.01 -1.781,0 m -25.625,82.44 c 5.228,4.356 10.264,8.79 13.688,13.688 l -13.688,-13.688"
       id="path52"
       style="opacity:0.25"
       inkscape:connector-curvature="0" />
    <path
       d="m -124.67486,471.4222 c -6.38,-0.024 -19.233,3.384 -25.513,6.782 -15.395,8.329 -25.18,23.58 -27.636,43.07 -0.554,4.406 -0.868,4.849 -4.342,5.958 -12.238,3.911 -27.424,14.57 -43.673,30.645 -28.449,28.15 -49.07,61.61 -57.02,92.51 -3.221,12.526 -3.282,30.645 -0.127,43.42 7.631,30.898 30.605,55.909 60.788,66.21 5.445,1.858 12.855,3.799 16.481,4.31 29.53,4.163 58.772,-5.277 79.65,-25.702 8.41,-8.233 14.355,-16.177 18.984,-25.356 3.715,-7.367 7.905001,-21.327 8.589001,-28.65 0.326,-3.49 0.921,-6.338 1.325,-6.338 0.41,0 3.184,1.135 6.181,2.504 12.07,5.519 29.27,5.509 41.3,0 3.01,-1.38 5.802,-2.504 6.211,-2.504 0.41,0 1.037,2.848 1.363,6.338 0.684,7.319 4.841,21.287 8.557,28.65 7.454,14.779 21.621,30.08 35.5599998,38.41 17.6060002,10.527 39.4000002,15.321 59.2300002,12.994 39.513999,-4.637 71.699999,-32.762 81.109999,-70.86 3.155,-12.776 3.125,-30.894 -0.095,-43.42 -7.945,-30.901 -28.599,-64.36 -57.049999,-92.51 -16.249,-16.08 -31.403,-26.735 -43.641,-30.645 -3.474,-1.111 -3.787,-1.552 -4.342,-5.958 -3.143,-24.967 -17.585,-41.986 -40.6620002,-47.89 -9.3179998,-2.382 -14.7259998,-2.485 -24.2769998,-0.476 -20.628,4.34 -37.15,21.06 -41.35,41.803 l -1.299,6.307 -1.173,-6.275 c -4.656,-24.505 -27.631,-43.23 -53.110001,-43.32 m 54.040001,133.81 c 3.84,-0.083 7.738,0.704 11.473,2.472 20.324,9.624 21.02,38.02 1.173,47.73 -18.742,9.172 -39.26,-3.49 -39.17,-24.18 0.062,-14.62 12.813,-25.722 26.523,-26.02 m -120.880001,0.032 c 19.01,0 33.997,6.353 47.697,20.19 9.505,9.598 14.647,18.447 17.748,30.526 2.163,8.433 2.174,23.837 0,31.944 -6.395,23.859 -25.01,42.68 -48.14,48.681 -6.611,1.714 -20.64,2.716 -25.925,1.87 -27.748,-4.44 -49.982,-24.02 -56.826,-50.04 -2.272,-8.638 -2.334,-23.831 -0.127,-32.453 3.053,-11.925 8.324,-20.907 17.875,-30.526 6.992,-7.04 10.316,-9.542 17.271,-12.931 11.333,-5.521 18.623,-7.258 30.425,-7.258 m 242.390001,0 c 18.982,0 33.969,6.338 47.73,20.19 13.704999,13.796 19.563999,27.875 19.490999,46.75 -0.046,11.823 -2.115,20.12 -7.701,30.933 -8.117,15.706 -24.807999,28.966 -42.119999,33.442 -6.694,1.728 -20.719,2.75 -26.02,1.902 -34.3400002,-5.495 -58.33,-32.685 -58.48,-66.27 -0.078,-18.851 5.794,-33.01 19.3959998,-46.75 7.0100002,-7.078 10.2840002,-9.536 17.2710002,-12.931 11.345,-5.513 18.636,-7.258 30.425,-7.258"
       id="path54"
       style="fill:#ffffff"
       inkscape:connector-curvature="0" />
  </g>
</svg>
