<?xml version="1.0" encoding="UTF-8" standalone="no"?>
<!-- Created with Inkscape (http://www.inkscape.org/) -->

<svg
   xmlns:dc="http://purl.org/dc/elements/1.1/"
   xmlns:cc="http://creativecommons.org/ns#"
   xmlns:rdf="http://www.w3.org/1999/02/22-rdf-syntax-ns#"
   xmlns:svg="http://www.w3.org/2000/svg"
   xmlns="http://www.w3.org/2000/svg"
   xmlns:sodipodi="http://sodipodi.sourceforge.net/DTD/sodipodi-0.dtd"
   xmlns:inkscape="http://www.inkscape.org/namespaces/inkscape"
   id="svg2"
   height="100%"
   width="100%"
   version="1.1"
   viewBox="0 0 512 512"
   inkscape:version="0.91 r13725"
   sodipodi:docname="kleopatra.svg">
  <defs
     id="defs52" />
  <sodipodi:namedview
     pagecolor="#ffffff"
     bordercolor="#666666"
     borderopacity="1"
     objecttolerance="10"
     gridtolerance="10"
     guidetolerance="10"
     inkscape:pageopacity="0"
     inkscape:pageshadow="2"
     inkscape:window-width="640"
     inkscape:window-height="480"
     id="namedview50"
     showgrid="false"
     inkscape:zoom="0.5546875"
     inkscape:cx="36.056338"
     inkscape:cy="240.67606"
     inkscape:current-layer="svg2" />
  <metadata
     id="metadata112">
    <rdf:RDF>
      <cc:Work
         rdf:about="">
        <dc:format>image/svg+xml</dc:format>
        <dc:type
           rdf:resource="http://purl.org/dc/dcmitype/StillImage" />
      </cc:Work>
    </rdf:RDF>
  </metadata>
  <g
     id="g3404"
     transform="translate(364.16901,-324.50704)">
    <path
       d="m -338.17351,324.50704 c -14.397,0 -26,11.603 -26,26 l 0,460 c 0,14.397 11.603,26 26,26 l 460,0 c 14.397,0 26,-11.603 26,-26 l 0,-460 c 0,-14.397 -11.6,-26 -26,-26 l -460,0"
       id="path18"
       style="fill:#d23638"
       inkscape:connector-curvature="0" />
    <g
       transform="translate(-364.17351,324.50704)"
       style="color:#000000;fill-rule:evenodd"
       id="g104">
      <path
         d="m 246.78,41 c -3.929,9.821 -21.933,20.7 -16.906,29.844 l -2.906,-2.906 c -6.62,-2.844 -30.06,-18.359 -26.4,-13.438 l -2.813,-2.813 c -1.201,11.237 -13.466,25.09 -7.625,34.656 l -2.938,-2.906 c -7.718,0.015 -33.563,-9.634 -29.906,-3.563 l -2.875,-2.875 c 1.847,11.729 -4.04,26.633 2.719,36.34 l -2.938,-2.906 c -7.861,3.092 -34.1,-0.16 -30.25,6.969 l -2.938,-2.938 c 4.246,11.446 5.97,24.444 12.656,34.406 l -2.531,-2.531 c -7.02,6.06 -31.494,9.01 -27.406,17.03 l -2.906,-2.906 c 8.446,13.326 18.419,25.347 29.09,36.781 l -9.625,-9.625 c -5.02,8.182 -24.17,16.1 -22,24.406 -0.809,-0.554 -1.62,-1.112 -2.438,-1.656 l 24.75,24.75 c -4.641,8.439 -13.808,17.525 -12.03,25.06 -0.691,-0.245 -1.381,-0.457 -2.063,-0.719 l 27.969,27.969 c -1.525,5.566 -2.579,10.975 -1,15.594 -0.553,-0.06 -1.115,-0.129 -1.656,-0.219 l 57.44,57.41 -28.625,93.31 58.47,58.47 266.91,0 c 14.397,0 26,-11.603 26,-26 l 0,-254.59 -131.8,-131.81 c -0.986,0.227 -2.258,0.315 -3.719,0.344 L 342.71,66.161 c -3.965,2.596 -12.965,3.986 -19.969,5.844 l -26,-26 c -5.534,6.943 -24.685,12.768 -24.781,20.16 l -22.25,-22.22 c -0.297,-0.288 -0.479,-0.495 -0.594,-0.594 l -2.313,-2.344"
         id="path106"
         inkscape:connector-curvature="0"
         style="opacity:0.25" />
      <path
         d="m 246.78,41 -19.821,26.925 -29.22,-16.231 -10.541,31.737 -32.807,-6.416 -0.191,33.418 -33.19,4.048 10.121,31.852 -30.32,14.13 19.478,27.15 -24.443,22.762 26.887,19.821 -16.231,29.25 31.737,10.503 -6.416,32.845 33.456,0.191 4.048,33.19 30.25,-9.624 -38.956,126.99 47.549,-40.903 11.04,58.36 36.702,-119.65 9.319,10.01 11.419,-15.544 38.38,125.19 11.04,-58.36 47.51,40.903 -40.789,-133.06 24.825,4.85 0.191,-33.418 33.19,-4.048 -10.121,-31.852 30.32,-14.13 -19.478,-27.15 24.443,-22.762 -26.887,-19.821 16.231,-29.25 -31.737,-10.503 6.416,-32.807 -33.456,-0.229 -4.048,-33.19 -31.852,10.159 -14.09,-30.32 -27.15,19.478 -22.8,-24.481 m 9.242,54.92 c 27.61,0 54.877,11.332 74.4,30.859 19.52,19.527 30.792,46.787 30.782,74.4 -0.01,27.598 -11.302,54.848 -30.821,74.36 -19.518,19.511 -46.761,30.821 -74.36,30.821 -27.598,0 -54.879,-11.309 -74.4,-30.821 -19.518,-19.511 -30.811,-46.761 -30.821,-74.36 -0.01,-27.61 11.262,-54.87 30.782,-74.4 l 0.382,-0.382 c 19.493,-19.293 46.623,-30.477 74.05,-30.477 m 0,9.624 c -24.977,0 -49.979,10.33 -67.64,27.994 -17.658,17.665 -28,42.66 -27.994,67.64 0.009,24.966 10.376,49.949 28.03,67.6 17.657,17.651 42.633,27.995 67.6,27.995 24.966,0 49.942,-10.344 67.6,-27.995 17.657,-17.651 27.986,-42.633 27.995,-67.6 0.009,-24.977 -10.336,-49.973 -27.995,-67.64 -17.658,-17.665 -42.622,-27.994 -67.6,-27.994"
         id="path108"
         inkscape:connector-curvature="0"
         style="fill:#ffffff" />
    </g>
  </g>
</svg>
