<?xml version="1.0" encoding="UTF-8" standalone="no"?>
<!-- Created with Inkscape (http://www.inkscape.org/) -->

<svg
   xmlns:dc="http://purl.org/dc/elements/1.1/"
   xmlns:cc="http://creativecommons.org/ns#"
   xmlns:rdf="http://www.w3.org/1999/02/22-rdf-syntax-ns#"
   xmlns:svg="http://www.w3.org/2000/svg"
   xmlns="http://www.w3.org/2000/svg"
   xmlns:sodipodi="http://sodipodi.sourceforge.net/DTD/sodipodi-0.dtd"
   xmlns:inkscape="http://www.inkscape.org/namespaces/inkscape"
   id="svg2"
   height="100%"
   width="100%"
   version="1.1"
   viewBox="0 0 512 512"
   inkscape:version="0.91 r13725"
   sodipodi:docname="konqueror.svg">
  <defs
     id="defs81" />
  <sodipodi:namedview
     pagecolor="#ffffff"
     bordercolor="#666666"
     borderopacity="1"
     objecttolerance="10"
     gridtolerance="10"
     guidetolerance="10"
     inkscape:pageopacity="0"
     inkscape:pageshadow="2"
     inkscape:window-width="640"
     inkscape:window-height="480"
     id="namedview79"
     showgrid="false"
     inkscape:zoom="0.5546875"
     inkscape:cx="36.056338"
     inkscape:cy="240.67606"
     inkscape:current-layer="svg2" />
  <metadata
     id="metadata10">
    <rdf:RDF>
      <cc:Work
         rdf:about="">
        <dc:format>image/svg+xml</dc:format>
        <dc:type
           rdf:resource="http://purl.org/dc/dcmitype/StillImage" />
        <dc:title />
      </cc:Work>
    </rdf:RDF>
  </metadata>
  <g
     id="g3433"
     transform="translate(293.85915,-319.09859)">
    <rect
       x="-293.86017"
       y="319.10159"
       width="512"
       height="512"
       rx="25.988001"
       id="rect13"
       style="fill:#8db173" />
    <path
       d="m -267.85965,319.10159 c -14.397,0 -26,11.603 -26,26 l 0,56.5 0,117.03 c 5.213,-0.462 10.211,-0.248 14.531,0.656 l -1.813,3.594 16,14.438 c 0.073,-27.546 10.752,-30.446 25.75,-50.5 l 10.469,-19.344 c 11.639,-12.996 29.727,-21.844 45.34,-27.688 l 19.563,-12.344 c -6.334,-11.131 -22.997,-7.941 -33.688,-7.219 19.225,-11.11 45.36,-5.108 58.53,-25.22 -14.365,-10.613 -14.363,-38.29 -37.25,-27 l 3.531,-10.813 -19.5,-9.06 -14.219,30.16 -19.531,23.906 -1.75,-12.594 c -7.501,-3.539 -28.15,-9.754 -28.563,-19.844 -0.438,-10.966 32.924,-27.533 41,-34.19 l -3.563,9 13.75,-1.313 c 2,-1.282 15.638,-20.315 25.16,-24.16 l -50.41,0 -37.34,0 m 93.25,0 c 1.659,1.051 2.887,3.385 3.469,7.438 19.24,7.404 21.44,15.875 40.844,3.625 l -12.406,-5.438 c -0.232,-2.108 -0.662,-3.983 -1.25,-5.625 l -30.656,0 m 72.59,0 c -1.934,4.866 -7.258,9.03 -7.06,14.656 0.344,9.902 9.826995,21.999 14.280995,30.594 l 26.688,-29.563 c 11.999,-6.495 29.944,-8.286 42.531,-15.688 l -76.439995,0 m 194.189995,0 -13.375,18.688 -16.875,14.281 c -2.721,6.562 1.597,16.49 2.938,23.09 l 17.75,-9 c 2.552,8.945 9.486,11.258 16,16.219 10.522005,-20.265 1.440005,-39.656 26.594005,-50.47 l -15.969,19.875 5.344,-3.656 1.781,10.813 1.75,-14.406 c 4.687,16.251 -0.221,38.584 -17.75,44.719 l -17.750005,-1.469 0,-10.813 c -10.09,2.139 -9.722,7.249 -7.06,16.219 -6.849,-1.976 -10.922,-1.669 -15.969,3.563 -5.42,-5.656 -9.821,-9.944 -10.625,-17.969 -3.445,-3.484 -5.02,-5.861 -5.375,-10.813 l -12.375,-1.813 5.281,28.844 c -4.734,-9.02 -9.625,-11.235 -19.5,-9.06 l 5.344,21.625 7.094,-1.75 -5.344,-1.844 7.125,-12.625 3.5,19.844 16,-3.625 c -4.48,4.34 -8.05,5.396 -14.219,5.406 l 1.813,5.406 -8.875,0 12.406,21.625 c -29.07,0.244 -29.403,15.336 -28.375,39.625 5.675,0.415 8.441,1.27 12.406,5.406 23.48,-12.56 28.878,-35.881 56.75,-43.22 4.523,14.28 18.511005,13.421 14.219,30.656 13.696005,-2.838 17.531005,-14.564 8.875005,-25.25 11.668,7.06 14.997,21.528 23.03,32.406 5.657,-7.541 3.497,-16.17 12.469,-21.625 l 0,5.406 c 15.03,13.544 25.414,16.6 44.38,23.438 -6.517,9.393 -14.385,18.583 -26.625,17.813 -14.987,-0.942 -34.12,-15.841 -44.37,2 l -28.563005,-23 c -15.837,-6.781 -31.392,-0.369 -47.719,-2.219 l -7.125,3.594 3.531,1.813 c -32.5099999,14.849 -50.558,53.964 -53.938,86.47 l -6.188,21.625 c 3.457,21.11 21.1000001,42.947 35.906,57.31 10.418,10.113 17.902,-9.65 27.813,0.344 13.12,-5.04 32.912,-13.818 44.938,0.25 7.902,9.244 -0.366,16.893 2.375,26.781 4.743,17.11 16.090005,37.15 16.060005,55.844 l -4.438005,45 c 2.52,17.786 9.662005,33.762 14.469005,50.625 l 60.31,0 c 0.926,-1.216 1.808,-2.461 2.625,-3.75 l 5.156,-16.03 9,-11.156 -3.406,-17.688 c 5.078,-12.374 25.626,-13.73 28.719,-27.25 4.212,-18.406 -6.781,-40.19 -0.219,-59.37 1.194,-3.489 2.627,-6.886 4.25,-10.188 l 0,-273.28 0,-67.28 c 0,-14.397 -11.603,-26 -26,-26 l -31.5,0 0,1.469 c -0.323,-0.239 -0.645,-0.481 -0.969,-0.719 -2.231,-0.222 -4.523,-0.471 -6.844,-0.75 l -60.660005,0 m -386.029995,246.81 0,0.563 c 0.108,-0.114 0.201,-0.233 0.313,-0.344 -0.107,-0.074 -0.206,-0.148 -0.313,-0.219 m 0,23.22 0,35.31 11.03,10.313 23.03,3.438 c -8.227,18.845 -24.875,49.21 -21.844,70.25 1.764,12.236 14.09,29.667 21.16,39.625 9.878,13.91 28.528,22.15 33.5,39.656 l 0.813,28.844 3.625,14.531 79.72,0 6.156,-21.656 25.281,-16.531 c 10.338,-15.678 2.819,-28.734 6.688,-44.844 l 17.029995,-48.625 c -19.228995,-7.29 -46.808995,-16.25 -60.369995,-32.438 l -3.5,1.844 -3.594,-16.219 -21.281,-10.813 -3.531,3.594 -5.344,-25.22 -28.375,-2.313 -21.344,-11.781 c -9.184,-1.326 -21.325,13.911 -24.781,21.281 l -12.469,-1.781 3.594,-3.625 -10.656,-7.219 1.781,7.219 c -7.653,-8.03 -8.99,-18.17 -7.125,-28.844 l -9.188,-4"
       id="path15"
       style="fill:#ffffff;fill-opacity:0.43700005"
       inkscape:connector-curvature="0" />
    <path
       d="m 123.16035,360.09859 c -0.57,0 -1.11,0.204 -1.51,0.6 l 18.78,18.781 0,0.004 -18.78,-18.78 -21.930005,21.965 -7.77,-7.773 c -1.42,-1.413 -3.62,-1.624 -5.29,-0.529 l -0.01,-0.002 -62.3,40.812 0,-0.002 c -0.11,0.066 -0.19,0.185 -0.3,0.264 l 63.92,63.91 c 0,0.01 0,0.02 0.01,0.02 l -63.93,-63.92 c -7.48,-4.151 -15.3499999,-7.765 -23.56999993,-10.739 l 0,-0.002 c -0.57,-0.204 -1.23,-0.138 -1.76999997,0.151 l 101.1599999,101.16 c 0.01,0 0.01,0.01 0.01,0.01 l -101.1699999,-101.17 c -0.53,0.292 -0.88,0.793 -1.02,1.383 l 0,-0.002 -4.43,20.089 0.01,0.01 c 0,0 -0.01,0 -0.01,-0.01 l 79.9899999,79.99 c 2.01,5.12 3.73,10.39 5.14,15.78 l -50.32,-50.33 -0.09,-0.08 c -21.9099999,-21.91 -52.07,-35.52 -85.14,-35.52 -66.699995,0 -120.829995,54.6 -120.829995,121.14 l 121.529995,121.53 -121.529995,-121.53 c 0,33.62 13.64,64.12 35.68,86.16 l 0.5,0.5 c -0.16,-0.17 -0.33,-0.33 -0.5,-0.49 l 50.279995,50.28 c -4.84,-1.25 -9.569995,-2.76 -14.189995,-4.51 l -81.83,-81.82 -19.746,5.44 0.002,0 c -0.572,0.16 -1.039,0.52 -1.312,1.05 l 99.726,99.72 -0.01,0 -99.722,-99.72 c -0.267,0.52 -0.278,1.18 -0.074,1.73 l 0.004,0 c 3.036,8.26 6.687,16.15 10.926,23.66 l -38.11,62.82 c -1.016,1.65 -0.776,3.8 0.6,5.18 l 5.404,5.41 -21.285,21.28 18.775,18.78 -0.004,0 -18.771,-18.77 c -0.823,0.82 -0.823,2.18 0,3 l 0.719,0.72 93.378,93.37 349.7,0 c 14.4,0 25.99,-11.59 25.99,-25.98 l 0,-350.95 -93.48,-93.472 c -0.39,-0.393 -0.94,-0.598 -1.5,-0.598 l 17.89,17.889 0,0.007 -17.89,-17.896 z"
       id="path161"
       style="opacity:0.25"
       inkscape:connector-curvature="0" />
    <path
       d="m 123.16035,360.09859 c 0.559,0 1.109,0.205 1.502,0.6 l 15.77,15.812 c 0.826,0.826 0.826,2.14 0,2.967 l -21.928,21.965 6.083,6.083 c 1.376,1.376 1.608,3.517 0.6,5.182 l -38.789005,63.864 c 6.467,11.1 11.657,22.952 15.395005,35.37 l 71.42,14.87 c 1.956,0.408 3.342,2.133 3.342,4.13 l 0,46.14 c 0,1.945 -1.341,3.63 -3.23,4.093 l -69.35,16.972 c -3.556,14.447 -9.040005,28.12 -16.150005,40.777 l 40.180005,61.24 c 1.093,1.675 0.847,3.878 -0.563,5.295 l -32.630005,32.63 c -1.376,1.379 -3.483,1.646 -5.144,0.638 l -62.63,-37.998 c -11.825,6.888 -24.5859999,12.33 -38.04,16.11 l -14.531,69.877 c -0.405,1.963 -2.133,3.379 -4.13,3.379 l -46.11,0 c -1.945,0 -3.669,-1.349 -4.13,-3.23 l -16.935,-69.35 c -14.258995,-3.765 -27.851995,-9.398 -40.469995,-16.709 l -60.53,39.651 c -1.67,1.099 -3.875,0.89 -5.295,-0.526 l -8.449,-8.449 -21.29,21.29 c -0.833,0.829 -2.14,0.829 -2.966,0 l -15.812,-15.77 c -0.823,-0.823 -0.823,-2.179 0,-3 l 21.29,-21.29 -5.407,-5.407 c -1.376,-1.379 -1.616,-3.527 -0.6,-5.182 l 38.11,-62.819 c -4.239,-7.515 -7.89,-15.405 -10.926,-23.656 -0.204,-0.553 -0.192,-1.206 0.075,-1.728 0.273,-0.527 0.74,-0.892 1.314,-1.051 l 19.751,-5.444 c 20.12,52.984 71.15,90.75 130.889995,90.75 76.8,0 140.05,-63.26 140.05,-140.91 0,-59.31 -37.425,-110.47 -89.6299999,-130.93 l 4.43,-20.09 c 0.129,-0.593 0.483,-1.097 1.014,-1.389 0.53699997,-0.289 1.19299997,-0.355 1.76499997,-0.151 8.22600003,2.974 16.08999993,6.587 23.57999993,10.739 0.103,-0.079 0.191,-0.197 0.3,-0.263 l 62.3,-40.814 c 1.675,-1.096 3.878,-0.888 5.295,0.526 l 7.772,7.772 21.928005,-21.965 c 0.396,-0.396 0.939,-0.6 1.502,-0.6 m -180.300005,76.07 c 66.2300001,0 120.79,54.601 120.79,121.14 0,66.972 -54.5499999,121.54 -120.79,121.54 -66.709995,0 -120.829995,-54.57 -120.829995,-121.54 0,-66.54 54.13,-121.14 120.829995,-121.14"
       id="path295"
       style="fill:#ffffff"
       inkscape:connector-curvature="0" />
  </g>
</svg>
