<?xml version="1.0" encoding="UTF-8" standalone="no"?>
<!-- Created with Inkscape (http://www.inkscape.org/) -->

<svg
   xmlns:dc="http://purl.org/dc/elements/1.1/"
   xmlns:cc="http://creativecommons.org/ns#"
   xmlns:rdf="http://www.w3.org/1999/02/22-rdf-syntax-ns#"
   xmlns:svg="http://www.w3.org/2000/svg"
   xmlns="http://www.w3.org/2000/svg"
   xmlns:sodipodi="http://sodipodi.sourceforge.net/DTD/sodipodi-0.dtd"
   xmlns:inkscape="http://www.inkscape.org/namespaces/inkscape"
   id="svg2"
   height="100%"
   width="100%"
   version="1.1"
   viewBox="0 0 512 512"
   inkscape:version="0.91 r13725"
   sodipodi:docname="kontact-import-wizard.svg">
  <defs
     id="defs470" />
  <sodipodi:namedview
     pagecolor="#ffffff"
     bordercolor="#666666"
     borderopacity="1"
     objecttolerance="10"
     gridtolerance="10"
     guidetolerance="10"
     inkscape:pageopacity="0"
     inkscape:pageshadow="2"
     inkscape:window-width="640"
     inkscape:window-height="480"
     id="namedview468"
     showgrid="false"
     inkscape:zoom="0.5546875"
     inkscape:cx="36.056338"
     inkscape:cy="240.67606"
     inkscape:current-layer="svg2" />
  <metadata
     id="metadata10">
    <rdf:RDF>
      <cc:Work
         rdf:about="">
        <dc:format>image/svg+xml</dc:format>
        <dc:type
           rdf:resource="http://purl.org/dc/dcmitype/StillImage" />
        <dc:title />
      </cc:Work>
    </rdf:RDF>
  </metadata>
  <g
     id="g3819"
     transform="translate(369.57746,-346.14085)">
    <path
       d="m -343.57746,346.14085 c -14.397,0 -26,11.603 -26,26 l 0,460 c 0,14.397 11.603,26 26,26 l 460,0 c 14.397,0 26,-11.603 26,-26 l 0,-460 c 0,-14.397 -11.6,-26 -26,-26 l -460,0 z"
       id="rect2986"
       style="fill:#669966"
       inkscape:connector-curvature="0" />
    <path
       d="m -144.04746,387.14085 0,91.38 -30.44,0 85.209995,85.21 -14.629995,0 -76.38,-76.38 -17.04,0 -38.07,76.12 0,27.19 0,28 0.03,0.03 0,198.45 41,41 310.79,0 c 14.4,0 26,-11.6 26,-26 l 0,-219.44 -225.560005,-225.56 -60.909995,0 z"
       id="path5215"
       style="opacity:0.25"
       inkscape:connector-curvature="0" />
    <path
       d="m -144.04746,387.14085 0,91.376 -30.44,0 60.908,60.88 60.907995,-60.88 -30.468,0 0,-91.376 -60.907995,0 z m -53.284,100.21 -38.064,76.128 0,27.189 0,28.001 0.0279,0 0,198.48 243.5999952,0 0,-198.48 0,-17.462 0,-18.724 0,-18.752 0,-0.25227 -38.0920002,-76.128 -17.014,0 38.0640002,76.128 -43.8660002,0 c 0,0.0847 3.5e-4,0.16759 0,0.25227 l -121.819995,0 c -3.6e-4,-0.0847 0,-0.1675 0,-0.25227 l -43.866,0 38.064,-76.128 -17.042,0 z m 90.003,114.02 0,0.0279 c 14.702995,0 27.847995,3.0107 39.408995,9.0255 11.562,6.0148 20.513,14.548 26.796,25.647 6.2802,11.095 9.4179,23.93 9.4179,38.428 0,9.6244 -1.5501,18.44 -4.6248,26.46 -3.0748,8.0201 -7.4189,14.25 -13.034,18.724 -5.6148,4.478 -12.146,6.7271 -19.565,6.7271 -4.9464,0 -9.353,-1.1647 -13.23,-3.5037 -3.8095,-2.4064 -6.4963,-5.5452 -8.1005,-9.4179 l -1.6257,0 c -3.2748,4.0106 -7.2345,7.162 -11.912995,9.502 -4.679,2.2727 -9.8961,3.4196 -15.64,3.4196 -11.83,0 -21.156,-3.5388 -27.973,-10.623 -6.817,-7.1517 -10.231,-16.877 -10.231,-29.179 0,-13.969 4.4076,-25.283 13.23,-33.972 8.8886,-8.6886 20.654,-13.033 35.289,-13.034 5.4138,0 11.669995,0.5282 18.751995,1.5977 7.0843,1.0032 12.844,2.2929 17.322,3.8961 l -2.2984,49.052 c 0,9.358 2.5439,14.015 7.624,14.015 4.2769,0 7.6907,-3.1158 10.231,-9.3338 2.54,-6.2801 3.8111,-14.461 3.812,-24.554 0,-10.76 -2.2491,-20.229 -6.7271,-28.45 -4.4116,-8.2875 -10.68,-14.631 -18.836,-18.976 -8.0875,-4.4106 -17.368,-6.615 -27.860995,-6.615 -13.434,0 -25.18,2.7951 -35.205,8.4088 -10.025,5.6148 -17.671,13.65 -22.956,24.077 -5.2801,10.425 -7.9043,22.467 -7.9043,36.102 0,18.514 4.89,32.689 14.715,42.577 9.8917,9.8244 24.195,14.744 42.913,14.744 7.4854,0 15.521,-0.82407 24.076995,-2.4946 8.5549,-1.6705 16.668,-3.9654 24.358,-6.8392 l 0,19.368 c -14.17,6.0148 -30.075,9.0246 -47.649995,9.0255 -25.397,0 -45.191,-6.7015 -59.422,-20.069 -14.17,-13.38 -21.27,-31.94 -21.27,-55.73 0,-16.509 3.6741,-31.512 10.96,-45.015 7.3517,-13.503 17.738,-24.035 31.169,-31.589 13.434,-7.6191 28.748,-11.436 45.996,-11.436 z m -0.58862,56.451 c -8.3528,0 -14.887,2.6075 -19.565,7.8202 -4.6117,5.2127 -6.8953,12.336 -6.8953,21.358 0,14.102 5.7421,21.162 17.238,21.162 5.9485,0 10.481,-2.096 13.622,-6.3066 3.2085,-4.2769 5.161695,-11.235 5.830095,-20.854 l 1.3174,-22.171 c -3.0748,-0.66844 -6.936495,-0.98104 -11.547995,-0.98104 l 0,-0.0279 z"
       id="path4776"
       style="fill:#ffffff"
       inkscape:connector-curvature="0" />
  </g>
</svg>
