<?xml version="1.0" encoding="UTF-8" standalone="no"?>
<!-- Created with Inkscape (http://www.inkscape.org/) -->

<svg
   xmlns:dc="http://purl.org/dc/elements/1.1/"
   xmlns:cc="http://creativecommons.org/ns#"
   xmlns:rdf="http://www.w3.org/1999/02/22-rdf-syntax-ns#"
   xmlns:svg="http://www.w3.org/2000/svg"
   xmlns="http://www.w3.org/2000/svg"
   xmlns:sodipodi="http://sodipodi.sourceforge.net/DTD/sodipodi-0.dtd"
   xmlns:inkscape="http://www.inkscape.org/namespaces/inkscape"
   id="svg2"
   height="100%"
   width="100%"
   version="1.1"
   viewBox="0 0 512 512"
   inkscape:version="0.91 r13725"
   sodipodi:docname="kscd.svg">
  <defs
     id="defs212" />
  <sodipodi:namedview
     pagecolor="#ffffff"
     bordercolor="#666666"
     borderopacity="1"
     objecttolerance="10"
     gridtolerance="10"
     guidetolerance="10"
     inkscape:pageopacity="0"
     inkscape:pageshadow="2"
     inkscape:window-width="640"
     inkscape:window-height="480"
     id="namedview210"
     showgrid="false"
     inkscape:zoom="0.5546875"
     inkscape:cx="36.056338"
     inkscape:cy="240.67606"
     inkscape:current-layer="svg2" />
  <metadata
     id="metadata157">
    <rdf:RDF>
      <cc:Work
         rdf:about="">
        <dc:format>image/svg+xml</dc:format>
        <dc:type
           rdf:resource="http://purl.org/dc/dcmitype/StillImage" />
        <dc:title />
      </cc:Work>
    </rdf:RDF>
  </metadata>
  <g
     id="g3561"
     transform="translate(384,-324.50704)">
    <path
       d="m -358,324.50704 c -14.397,0 -26,11.603 -26,26 l 0,460 c 0,14.397 11.603,26 26,26 l 460,0 c 14.397,0 26,-11.603 26,-26 l 0,-460 c 0,-14.397 -11.6,-26 -26,-26 l -460,0 z"
       id="rect2986"
       style="fill:#e65177"
       inkscape:connector-curvature="0" />
    <path
       d="m -128,365.50704 c -86.11,0 -155.89,69.78 -155.89,155.89 0,43.07 17.45,82.06 45.68,110.29 l 101.39,101.39 c -4.13,4.35 -6.83,10.05 -7.37,16.37 l -8.92,-8.92 -48.3,0 c -6.24,0 -11.26,5.02 -11.26,11.26 0,3.14 1.27,5.97 3.31,8.02 l 76.7,76.7 234.66,0 c 14.4,0 26,-11.6 26,-26 l 0,-253.58 -145.76,-145.77 c -28.21,-28.205 -67.18,-45.65 -110.24,-45.65 z m -193.94,342.61 0,43.67 0,43.72 40.996,41 119.35,0 -84.71,-84.72 -37.821,-21.83 -37.815,-21.84 z"
       id="path4176"
       style="opacity:0.25;fill-rule:evenodd"
       inkscape:connector-curvature="0" />
    <path
       d="m -128,365.50704 c -86.109,0 -155.89,69.782 -155.89,155.89 0,86.109 69.782,155.94 155.89,155.94 86.109,0 155.89,-69.827 155.89,-155.94 0,-86.11 -69.78,-155.89 -155.89,-155.89 z m 53.75,18.567 c 18.422,7.1981 35.646,18.214 50.527,33.094 12.522,12.522 22.381,26.778 29.463,41.947 l -91.112,52.57 c -1.7803,-7.7417 -5.6815,-15.079 -11.712,-21.11 -6.2768,-6.2768 -14.019,-10.267 -22.108,-11.939 l 44.94,-94.563 z m -53.75,100.87 c 20.145,0 36.454,16.314 36.454,36.454 0,20.145 -16.314,36.499 -36.454,36.499 -20.145,0 -36.454,-16.36 -36.454,-36.499 0,-20.145 16.314,-36.454 36.454,-36.454 z m 0,8.0807 c -15.687,0 -28.418,12.689 -28.418,28.373 0,15.687 12.735,28.418 28.418,28.418 15.687,0 28.418,-12.735 28.418,-28.418 0,-15.687 -12.735,-28.373 -28.418,-28.373 z m 0,8.353 c 11.071,0 20.065,8.9491 20.065,20.02 0,11.0709 -8.9945,20.065 -20.065,20.065 -11.071,0 -20.065,-8.9945 -20.065,-20.065 0,-11.071 8.9945,-20.02 20.065,-20.02 z m -43.036,29.69 c 0.33407,1.4514 0.74329,2.8934 1.2257,4.3127 0.16082,0.47309 0.32195,0.93838 0.49937,1.4073 1.4203,3.7536 3.3673,7.34 5.8562,10.668 0.31021,0.415 0.62756,0.81902 0.95333,1.2257 0.98457,1.2242 2.0418,2.4049 3.1778,3.541 1.9619,1.9619 4.0529,3.6636 6.2648,5.1753 0.44197,0.3019 0.91163,0.62367 1.3619,0.90794 1.8073,1.1402 3.6614,2.1465 5.5838,2.9962 0.9576,0.42433 1.926,0.78322 2.9054,1.1349 1.4691,0.52809 2.9414,0.99464 4.4489,1.3619 0.50214,0.12246 0.99285,0.21299 1.4981,0.31778 l -44.898,94.562 c -1.1589,-0.45337 -2.2996,-0.87843 -3.4502,-1.3619 -1.1423,-0.47931 -2.2729,-0.98869 -3.4048,-1.4981 -2.2752,-1.025 -4.4882,-2.0768 -6.7188,-3.2232 -1.1028,-0.56542 -2.2226,-1.175 -3.314,-1.7705 -1.0987,-0.59966 -2.1823,-1.2315 -3.2686,-1.8613 -2.1787,-1.2637 -4.3206,-2.5655 -6.4464,-3.9495 -1.0593,-0.68993 -2.0897,-1.3682 -3.1324,-2.0883 -4.1914,-2.8832 -8.2745,-5.9841 -12.212,-9.3518 -0.97732,-0.83518 -1.9447,-1.7224 -2.9054,-2.5876 -0.9659,-0.86942 -1.9571,-1.7335 -2.9054,-2.633 -0.94827,-0.89949 -1.885,-1.8386 -2.8146,-2.7692 -4.7029,-4.7029 -9.0019,-9.6122 -12.938,-14.754 -0.65464,-0.85593 -1.2728,-1.7203 -1.9067,-2.5876 -5.7072,-7.8019 -10.541,-16.024 -14.527,-24.56 l 91.066,-52.615 z m -150.9,177.05 0,43.672 0,43.717 37.816,-21.881 37.816,-21.836 -37.816,-21.836 -37.816,-21.836 z m 204.83,16.479 c -15.013,0 -27.193,12.18 -27.193,27.193 0,15.013 12.18,27.193 27.193,27.193 15.013,0 27.193,-12.18 27.193,-27.193 0,-15.013 -12.18,-27.193 -27.193,-27.193 z m -84.302,15.934 c -6.248,0 -11.258,5.0105 -11.258,11.258 0,6.2479 5.0105,11.304 11.258,11.304 l 47.576,0 c -2.1891,-7.3138 -1.7436,-15.263 0.72635,-22.562 l -48.302,0 z m 120.39,0 c 2.1781,7.3019 2.3564,15.27 0.22699,22.562 l 135.46,0 c 6.2479,0 11.258,-5.0559 11.258,-11.304 0,-6.248 -5.0105,-11.258 -11.258,-11.258 l -135.69,0 z"
       id="path3444"
       style="fill:#ffffff;fill-rule:evenodd"
       inkscape:connector-curvature="0" />
  </g>
</svg>
