<?xml version="1.0" encoding="UTF-8" standalone="no"?>
<!-- Created with Inkscape (http://www.inkscape.org/) -->

<svg
   xmlns:dc="http://purl.org/dc/elements/1.1/"
   xmlns:cc="http://creativecommons.org/ns#"
   xmlns:rdf="http://www.w3.org/1999/02/22-rdf-syntax-ns#"
   xmlns:svg="http://www.w3.org/2000/svg"
   xmlns="http://www.w3.org/2000/svg"
   xmlns:sodipodi="http://sodipodi.sourceforge.net/DTD/sodipodi-0.dtd"
   xmlns:inkscape="http://www.inkscape.org/namespaces/inkscape"
   id="svg2"
   height="100%"
   width="100%"
   version="1.1"
   viewBox="0 0 512 512"
   inkscape:version="0.91 r13725"
   sodipodi:docname="kteatime.svg">
  <defs
     id="defs32" />
  <sodipodi:namedview
     pagecolor="#ffffff"
     bordercolor="#666666"
     borderopacity="1"
     objecttolerance="10"
     gridtolerance="10"
     guidetolerance="10"
     inkscape:pageopacity="0"
     inkscape:pageshadow="2"
     inkscape:window-width="640"
     inkscape:window-height="480"
     id="namedview30"
     showgrid="false"
     inkscape:zoom="0.5546875"
     inkscape:cx="36.056338"
     inkscape:cy="240.67606"
     inkscape:current-layer="svg2" />
  <metadata
     id="metadata157">
    <rdf:RDF>
      <cc:Work
         rdf:about="">
        <dc:format>image/svg+xml</dc:format>
        <dc:type
           rdf:resource="http://purl.org/dc/dcmitype/StillImage" />
        <dc:title />
      </cc:Work>
    </rdf:RDF>
  </metadata>
  <g
     id="g3381"
     transform="translate(362.3662,-319.09859)">
    <path
       d="m -336.3662,319.09859 c -14.397,0 -26,11.603 -26,26 l 0,460 c 0,14.397 11.603,26 26,26 l 460,0 c 14.397,0 26,-11.603 26,-26 l 0,-460 c 0,-14.397 -11.6,-26 -26,-26 l -460,0 z"
       id="rect2986"
       style="fill:#924565"
       inkscape:connector-curvature="0" />
    <path
       d="m -139.4762,360.09859 c -0.38,-0.004 -0.75,0.003 -1.13,0.02 -5.35,0.238 -10.66,2.58 -14.57,7.912 -5.44,7.399 -9.07,15.08 -10.95,23.088 l -24.82,-24.827 c -3.75,-3.748 -9.29,-6.129 -14.93,-6.191 -0.37,-0.004 -0.75,10e-4 -1.12,0.018 -5.35,0.238 -10.67,2.58 -14.58,7.912 -11.91,16.221 -15.18,33.788 -10.09,53.208 5.02,19.14 19.02,33.97 11.89,54.51 -2.46,7.1 -0.61,12.92 3.33,16.85 l 28.58,28.58 -126.62,0 c 10e-4,71.25 0.002,172.19 55.75,227.94 l 81.98,81.98 300.39,0 c 14.4,0 26,-11.6 26,-26 l 0,-231.02 -207.789997,-207.79 c -4,-3.995 -10.03,-6.439 -16.05,-6.17 -5.35,0.238 -10.71,2.58 -14.62,7.912 -5.43,7.393 -9.06,15.066 -10.92,23.066 l -24.810003,-24.805 c -3.74,-3.748 -9.28,-6.131 -14.92,-6.193 z"
       id="path3263"
       style="opacity:0.25"
       inkscape:connector-curvature="0" />
    <path
       d="m -207.0062,360.11859 c -5.3498,0.23855 -10.662,2.5801 -14.575,7.912 -11.906,16.221 -15.177,33.787 -10.087,53.21 5.0162,19.135 19.017,33.968 11.891,54.505 -7.8193,22.536 27.836,32.131 35.581,9.8091 5.9014,-17.011 4.3189,-33.527 -2.1284,-50.11 -7.1702,-18.42 -16.613,-30.798 -3.4239,-48.768 10.132,-13.806 -3.5866,-27.168 -17.258,-26.559 z m 66.396,0 c -5.3498,0.23855 -10.662,2.5801 -14.575,7.912 -11.906,16.221 -15.223,33.787 -10.133,53.21 5.0162,19.135 19.063,33.968 11.937,54.505 -7.8193,22.536 27.836,32.131 35.581,9.8091 5.9014,-17.011 4.2726,-33.527 -2.1747,-50.11 -7.1702,-18.42 -16.567,-30.798 -3.3776,-48.768 10.132,-13.806 -3.5866,-27.168 -17.258,-26.559 z m 66.396003,0 c -5.3498,0.23855 -10.708,2.5801 -14.621,7.912 -11.906003,16.221 -15.177003,33.787 -10.087,53.21 5.0162,19.135 19.063,33.968 11.937,54.505 -7.8193,22.536 27.835,32.131 35.581,9.8091 5.9014,-17.011 4.2726,-33.527 -2.1747,-50.11 -7.1702,-18.42 -16.567,-30.798 -3.3776,-48.768 10.132,-13.806 -3.5866,-27.168 -17.258,-26.559 z m -240.280003,161.06 c 0,103.27 10e-4,268.92 169.76,268.92 79.248003,0 121.510003,-36.093 144.04000282,-85.089 72.79300018,-3.0613 102.43999718,-35.581 102.43999718,-75.326 0,-34.73 -22.689997,-63.954 -76.945997,-72.828 0.22129,-12.422 0.23135,-24.431 0.23135,-35.674 l -339.520003,0 z m 58.16,26.42 c 9.2209,-9.2e-4 18.395,5.965 18.369,17.86 -0.1032,50.516 10.398,98.729 39.005,140.98 13.374,19.762 -18.624,38.217 -31.88,18.646 -31.994,-47.28 -44.114,-103.11 -43.996,-159.63 0.0258,-11.891 9.2868,-17.859 18.508,-17.86 z m 279.880003,42.614 c 28.363,7.0448 34.856,21.576 34.517,40.254 -0.38358,21.26 -8.2161,35.709 -46.686,40.902 7.1923,-26.091 10.561,-54.025 12.169,-81.156 z"
       id="path3050"
       style="fill:#ffffff"
       inkscape:connector-curvature="0" />
  </g>
</svg>
