<?xml version="1.0" encoding="UTF-8" standalone="no"?>
<!-- Created with Inkscape (http://www.inkscape.org/) -->

<svg
   xmlns:dc="http://purl.org/dc/elements/1.1/"
   xmlns:cc="http://creativecommons.org/ns#"
   xmlns:rdf="http://www.w3.org/1999/02/22-rdf-syntax-ns#"
   xmlns:svg="http://www.w3.org/2000/svg"
   xmlns="http://www.w3.org/2000/svg"
   xmlns:sodipodi="http://sodipodi.sourceforge.net/DTD/sodipodi-0.dtd"
   xmlns:inkscape="http://www.inkscape.org/namespaces/inkscape"
   id="svg2"
   height="100%"
   width="100%"
   version="1.1"
   viewBox="0 0 512 512"
   inkscape:version="0.91 r13725"
   sodipodi:docname="kthesaurus.svg">
  <sodipodi:namedview
     pagecolor="#ffffff"
     bordercolor="#666666"
     borderopacity="1"
     objecttolerance="10"
     gridtolerance="10"
     guidetolerance="10"
     inkscape:pageopacity="0"
     inkscape:pageshadow="2"
     inkscape:window-width="1366"
     inkscape:window-height="709"
     id="namedview55"
     showgrid="false"
     inkscape:zoom="0.4609375"
     inkscape:cx="15.186441"
     inkscape:cy="288.54237"
     inkscape:window-x="0"
     inkscape:window-y="0"
     inkscape:window-maximized="0"
     inkscape:current-layer="svg2" />
  <defs
     id="defs57" />
  <metadata
     id="metadata110">
    <rdf:RDF>
      <cc:Work
         rdf:about="">
        <dc:format>image/svg+xml</dc:format>
        <dc:type
           rdf:resource="http://purl.org/dc/dcmitype/StillImage" />
      </cc:Work>
    </rdf:RDF>
  </metadata>
  <rect
     x="4.628906e-06"
     y="-0.0045045996"
     width="512"
     height="512"
     rx="25.988001"
     id="rect46"
     style="fill:#0078ad" />
  <path
     style="fill:#336699;fill-rule:evenodd"
     inkscape:connector-curvature="0"
     id="path50"
     d="m 25.99999,-0.0045 c -14.397,0 -26,11.603 -26,26 l 0,460 c 0,14.397 11.603,26 26,26 l 21.781,0 0,-512 -21.781,0" />
  <path
     style="fill:#32465c;fill-rule:evenodd"
     inkscape:connector-curvature="0"
     id="path52"
     d="m 47.78099,-0.0045 0,512 40,0 0,-512 -40,0" />
  <path
     style="font-weight:bold;font-size:medium;line-height:125%;font-family:Sans;letter-spacing:0;word-spacing:0;fill:#000000;opacity:0.25"
     d="M 110.80078 139.32227 L 22.214844 382.1543 L 152.05664 511.99609 L 486.01172 511.99609 C 500.40907 511.99609 512 500.40516 512 486.00781 L 512 299.66992 L 423.7832 211.45312 C 423.16569 210.83561 422.53157 210.23076 421.88086 209.63867 C 409.12742 198.0342 390.97357 192.23047 367.41992 192.23047 C 344.09607 192.23047 325.65536 196.94183 312.09766 206.36328 C 298.65484 215.66985 290.38344 229.39919 287.28125 247.55273 L 315.33789 275.60938 C 313.30536 276.345 311.35403 277.15221 309.48047 278.02734 L 170.77539 139.32227 L 110.80078 139.32227 z "
     id="path3397" />
  <path
     inkscape:connector-curvature="0"
     style="font-weight:bold;font-size:medium;line-height:125%;font-family:Sans;letter-spacing:0;word-spacing:0;fill:#ffffff"
     d="m 110.80078,139.32226 -88.58593,242.83203 50.84179,0 21.54297,-62.04297 92.54883,0 21.54297,62.04297 50.32421,0 -88.24023,-242.83203 -59.97461,0 z m 29.98828,37.39843 3.61914,11.89063 7.41016,23.43945 23.95508,69.79883 -69.79883,0 c 18.15354,-52.85208 28.03404,-81.91987 29.64258,-87.20508 1.60854,-5.28521 2.98776,-9.99656 4.13672,-14.13281 l 1.03515,-3.79102 z m 226.63086,15.50977 c -23.32385,0 -41.76456,4.71136 -55.32226,14.13281 -13.44282,9.30657 -21.71422,23.03591 -24.81641,41.18945 l 50.49609,2.41407 c 1.03406,-9.42146 3.61961,-16.14271 7.75586,-20.16407 4.25115,-4.13624 10.85649,-6.20507 19.81836,-6.20507 9.65125,0 16.60237,2.98831 20.85352,8.96289 4.25114,5.85968 6.37695,14.87768 6.37695,27.05664 l 0,9.47851 -40.15625,0.68946 c -23.89833,0.22979 -42.16615,5.40088 -54.80469,15.51172 -12.52364,10.11083 -18.78515,24.81664 -18.78515,44.11914 0,17.80885 5.05518,31.65411 15.16601,41.53515 10.11084,9.76615 24.18597,14.65039 42.22461,14.65039 27.34521,0 47.79581,-12.23617 61.35352,-36.70898 l 1.03515,0 c 1.14896,11.60448 4.59505,20.39261 10.33985,26.36719 5.85968,5.97458 14.87963,8.96289 27.05859,8.96289 3.44688,0 6.43323,-0.11591 8.96094,-0.34571 2.64261,-0.22979 5.11224,-0.51664 7.41016,-0.86133 2.29792,-0.34468 4.59661,-0.80442 6.89453,-1.3789 2.29792,-0.57448 4.88346,-1.20516 7.75586,-1.89453 l 0,-26.19727 c -3.44688,0.68938 -7.00888,1.03516 -10.68555,1.03516 -5.515,0 -9.47977,-1.95488 -11.89258,-5.86133 -2.29792,-4.02135 -3.44531,-11.25932 -3.44531,-21.71484 l 0,-67.90235 c 0,-21.37062 -6.37743,-37.85841 -19.13086,-49.46289 -12.75344,-11.60447 -30.90729,-17.4082 -54.46094,-17.4082 z m 25.16211,103.58008 0,9.47851 c 0,8.15761 -1.78003,15.91229 -5.3418,23.26563 -3.56177,7.23844 -8.50299,12.92625 -14.82226,17.0625 -6.20437,4.13625 -13.09852,6.20508 -20.68164,6.20508 -6.77886,0 -12.23485,-2.12581 -16.3711,-6.37696 -4.02135,-4.36604 -6.0332,-10.97334 -6.0332,-19.82031 0,-6.89375 1.20633,-12.40868 3.61914,-16.54492 2.52771,-4.13626 6.1467,-7.18154 10.85742,-9.13477 4.71074,-2.06812 12.69725,-3.33143 23.95703,-3.79101 l 24.81641,-0.34375 z"
     id="path3339" />
</svg>
