<?xml version="1.0" encoding="UTF-8" standalone="no"?>
<!-- Created with Inkscape (http://www.inkscape.org/) -->

<svg
   xmlns:dc="http://purl.org/dc/elements/1.1/"
   xmlns:cc="http://creativecommons.org/ns#"
   xmlns:rdf="http://www.w3.org/1999/02/22-rdf-syntax-ns#"
   xmlns:svg="http://www.w3.org/2000/svg"
   xmlns="http://www.w3.org/2000/svg"
   xmlns:sodipodi="http://sodipodi.sourceforge.net/DTD/sodipodi-0.dtd"
   xmlns:inkscape="http://www.inkscape.org/namespaces/inkscape"
   id="svg2"
   height="100%"
   width="100%"
   version="1.1"
   viewBox="0 0 512 512"
   inkscape:version="0.91 r13725"
   sodipodi:docname="leafpad.svg">
  <defs
     id="defs33" />
  <sodipodi:namedview
     pagecolor="#ffffff"
     bordercolor="#666666"
     borderopacity="1"
     objecttolerance="10"
     gridtolerance="10"
     guidetolerance="10"
     inkscape:pageopacity="0"
     inkscape:pageshadow="2"
     inkscape:window-width="640"
     inkscape:window-height="480"
     id="namedview31"
     showgrid="false"
     inkscape:zoom="0.5546875"
     inkscape:cx="36.056338"
     inkscape:cy="240.67606"
     inkscape:current-layer="svg2" />
  <metadata
     id="metadata139">
    <rdf:RDF>
      <cc:Work
         rdf:about="">
        <dc:format>image/svg+xml</dc:format>
        <dc:type
           rdf:resource="http://purl.org/dc/dcmitype/StillImage" />
        <dc:title />
      </cc:Work>
    </rdf:RDF>
  </metadata>
  <g
     id="g3385"
     transform="translate(346.14085,-333.52113)">
    <path
       d="m -320.14085,333.52113 c -14.397,0 -26,11.603 -26,26 l 0,460 c 0,14.397 11.603,26 26,26 l 460,0 c 14.397,0 26,-11.603 26,-26 l 0,-460 c 0,-14.397 -11.6,-26 -26,-26 l -460,0"
       id="path9"
       style="fill:#68af4c"
       inkscape:connector-curvature="0" />
    <path
       d="m -320.14085,333.52113 c -14.397,0 -26,11.603 -26,26 l 0,122.41 512,0 0,-122.41 c 0,-14.397 -11.6,-26 -26,-26 l -460,0"
       id="path11"
       style="fill:#366378"
       inkscape:connector-curvature="0" />
    <path
       d="m 24.489155,374.59313 c -0.49,-0.006 -0.97,0 -1.44,0.018 -4.95,0.187 -9.09,1.734 -12.11,4.64 l -0.05,-0.054 -25.76,25.816 180.729995,180.73 0,-95.02 -72.109995,-72.11 c 0.06,0.059 0.12,0.119 0.18,0.178 l -13.11,-13.108 c -19.4,-19.404 -41.19,-30.909 -56.33,-31.088 z m -53.57,44.578 -27.09,27.09 222.029995,222.03 0,-54.19 -85.589995,-85.59 0,0.01 -109.35,-109.35 z m -43.79,43.78 -165.130005,165.13 -20.288,20.29 0.003,0 -5.193,5.2 24.268,24.27 -24.27,-24.27 -41.189,129.09 20.633,20.63 -0.122,0.04 42.188,42.19 381.83,0 c 14.4,0 26,-11.6 26,-26 l 0,-117.85 -238.719995,-238.72 18.21,18.22 -18.22,-18.22 z"
       id="path61"
       style="opacity:0.25;fill-rule:evenodd"
       inkscape:connector-curvature="0" />
    <path
       d="m 23.049155,374.61113 c -4.949,0.187 -9.09,1.735 -12.11,4.644 l -0.055,-0.055 -25.762,25.817 109.35,109.35 25.595995,-25.651 c 12.144,-12.144 0.393,-43.39 -26.314995,-70.1 l -12.94,-12.931 c -20.03,-20.03 -42.599,-31.643 -57.771,-31.07 m -52.13,44.558 -27.09,27.09 109.35,109.35 27.09,-27.09 -109.35,-109.35 m -43.784,43.784 -165.130005,165.13 -20.289,20.289 -5.197,5.197 -41.19,129.09 a 16.807,18.725 0.7854 0 0 5.4177,18.63 16.807,18.725 0.7854 0 0 15.092,2.0455 l 130.91,-41.35 4.257,-4.257 19.736,-19.736 165.680005,-165.68 -109.29,-109.35 m -161.770005,209.51 a 4.6904,4.6904 0 0 1 3.8145,1.3821 l 9.619,9.619 35.879,-1.824 a 4.6904,4.6904 0 0 1 3.317,1.161 4.6904,4.6904 0 0 1 1.6032,3.704 l -1.824,39.14 7.132,7.132 a 4.6904,4.6904 0 0 1 -2.1008,7.8502 l -61.751,16.474 a 4.6904,4.6904 0 0 1 -4.5332,-1.161 l -11.996,-11.996 a 4.6904,4.6904 0 0 1 -1.2162,-4.5885 l 18.02,-63.46 a 4.6904,4.6904 0 0 1 4.0357,-3.4275"
       id="path117"
       style="fill:#ffffff;fill-rule:evenodd"
       inkscape:connector-curvature="0" />
  </g>
</svg>
