<?xml version="1.0" encoding="UTF-8" standalone="no"?>
<svg
   xmlns:dc="http://purl.org/dc/elements/1.1/"
   xmlns:cc="http://creativecommons.org/ns#"
   xmlns:rdf="http://www.w3.org/1999/02/22-rdf-syntax-ns#"
   xmlns:svg="http://www.w3.org/2000/svg"
   xmlns="http://www.w3.org/2000/svg"
   xmlns:sodipodi="http://sodipodi.sourceforge.net/DTD/sodipodi-0.dtd"
   xmlns:inkscape="http://www.inkscape.org/namespaces/inkscape"
   id="svg2"
   height="100%"
   viewBox="0 0 512 512"
   width="100%"
   version="1.1"
   inkscape:version="0.91 r13725"
   sodipodi:docname="libreoffice-template.svg">
  <defs
     id="defs32" />
  <sodipodi:namedview
     pagecolor="#ffffff"
     bordercolor="#666666"
     borderopacity="1"
     objecttolerance="10"
     gridtolerance="10"
     guidetolerance="10"
     inkscape:pageopacity="0"
     inkscape:pageshadow="2"
     inkscape:window-width="640"
     inkscape:window-height="480"
     id="namedview30"
     showgrid="false"
     inkscape:zoom="0.5546875"
     inkscape:cx="36.056338"
     inkscape:cy="240.67606"
     inkscape:current-layer="svg2" />
  <metadata
     id="metadata10">
    <rdf:RDF>
      <cc:Work
         rdf:about="">
        <dc:format>image/svg+xml</dc:format>
        <dc:type
           rdf:resource="http://purl.org/dc/dcmitype/StillImage" />
        <dc:title />
      </cc:Work>
    </rdf:RDF>
  </metadata>
  <g
     id="g3381"
     transform="translate(338.92958,-320.90141)">
    <path
       d="m -312.92958,320.90141 c -14.397,0 -26,11.603 -26,26 l 0,460 c 0,14.397 11.603,26 26,26 l 460,0 c 14.397,0 26,-11.603 26,-26 l 0,-460 c 0,-14.397 -11.6,-26 -26,-26 l -460,0"
       id="path9"
       style="fill:#484848"
       inkscape:connector-curvature="0" />
    <path
       d="m -125.08958,361.89741 c -30.27,0 -54.8,16.988 -54.8,37.943 l 0,0.002 c 0.88,7.817 5.82,17.686 8.43,21.079 l 260.430003,260.43 -260.430003,-260.43 c 12.65,16.86 12.65,27.4 9.49,33.72 l -0.01,0 -102.23,0 c -18.683,0 -33.726,15.04 -33.726,33.72 l 0.006,0.01 0,85.37 79.04,79.04 c -6.57,7.9 -15.02,12.65 -24.235,12.65 l -0.004,0 c -6.431,-0.11 -16.208,-5.86 -21.08,-8.43 -16.857,-12.64 -27.395,-12.65 -33.719,-9.49 l -0.002,0 c -0.002,0 -0.004,0 -0.006,0.01 l 0.006,0 0,110.66 c 0,9.34 3.759,17.77 9.855,23.87 0.014,0.01 0.028,0.03 0.041,0.04 l 50.814,50.81 384.29,0 c 14.4,0 26,-11.6 26,-26 l 0,-198.79 -143.559997,-143.56 -0.04,-0.04 c -6.1,-6.1 -14.53,-9.86 -23.8700005,-9.86 l -9.22,0 -76.3699995,-76.369 c -9.89,-9.889 -26.390003,-16.368 -45.080003,-16.369 l -0.02,-0.016 z"
       style="color:#000000;opacity:0.25"
       id="path59"
       inkscape:connector-curvature="0" />
    <path
       d="m -125.08958,361.89841 c -30.27,0 -54.803,16.987 -54.803,37.942 0.881,7.817 5.823,17.689 8.432,21.08 12.647,16.863 12.647,27.402 9.485,33.725 l -102.23,0 c -18.684,0 -33.725,15.04 -33.725,33.725 l 0,85.37 c 6.323,3.162 16.863,3.162 33.725,-9.485 3.389,-2.609 13.261,-7.551 21.08,-8.432 20.955,0 37.942,24.529 37.942,54.803 0,30.27 -16.987,54.803 -37.942,54.803 -6.431,-0.109 -16.208,-5.86 -21.08,-8.432 -16.863,-12.647 -27.402,-12.647 -33.725,-9.485 l 0,110.67 c 0,18.684 15.04,33.725 33.725,33.725 l 135.96,0 c 3.162,-6.323 3.162,-16.863 -9.485,-33.725 -2.609,-3.389 -7.551,-13.261 -8.432,-21.08 0,-20.955 24.529,-37.942 54.803003,-37.942 30.27,0 54.803,16.987 54.803,37.942 -0.109,6.431 -5.86,16.208 -8.432,21.08 -12.647,16.863 -12.647,27.402 -9.485,33.725 l 60.0699995,0 c 18.6840005,0 33.7250005,-15.04 33.7250005,-33.725 l 0,-93.8 c 6.323,-3.162 16.863,-3.162 33.725,9.485 4.87,2.57 14.646,8.323 21.08,8.432 20.954997,0 37.941997,-24.529 37.941997,-54.803 0,-30.27 -16.987,-54.803 -37.941997,-54.803 -7.817,0.881 -17.689,5.823 -21.08,8.432 -16.863,12.647 -27.402,12.647 -33.725,9.485 l 0,-102.23 c 0,-18.684 -15.04,-33.725 -33.7250005,-33.725 l -93.7999995,0 c -3.162,-6.323 -3.162,-16.863 9.485,-33.725 2.57,-4.87 8.323,-14.646 8.432,-21.08 0,-20.955 -24.529,-37.942 -54.803003,-37.942"
       style="color:#000000;fill:#ffffff"
       id="path143"
       inkscape:connector-curvature="0" />
  </g>
</svg>
