<?xml version="1.0" encoding="UTF-8" standalone="no"?>
<svg
   xmlns:dc="http://purl.org/dc/elements/1.1/"
   xmlns:cc="http://creativecommons.org/ns#"
   xmlns:rdf="http://www.w3.org/1999/02/22-rdf-syntax-ns#"
   xmlns:svg="http://www.w3.org/2000/svg"
   xmlns="http://www.w3.org/2000/svg"
   xmlns:sodipodi="http://sodipodi.sourceforge.net/DTD/sodipodi-0.dtd"
   xmlns:inkscape="http://www.inkscape.org/namespaces/inkscape"
   id="svg2"
   height="100%"
   viewBox="0 0 512 512"
   width="100%"
   version="1.1"
   inkscape:version="0.91 r13725"
   sodipodi:docname="libreoffice-draw.svg">
  <defs
     id="defs730" />
  <sodipodi:namedview
     pagecolor="#ffffff"
     bordercolor="#666666"
     borderopacity="1"
     objecttolerance="10"
     gridtolerance="10"
     guidetolerance="10"
     inkscape:pageopacity="0"
     inkscape:pageshadow="2"
     inkscape:window-width="640"
     inkscape:window-height="480"
     id="namedview728"
     showgrid="false"
     inkscape:zoom="0.5546875"
     inkscape:cx="36.056338"
     inkscape:cy="240.67606"
     inkscape:current-layer="svg2" />
  <metadata
     id="metadata10">
    <rdf:RDF>
      <cc:Work
         rdf:about="">
        <dc:format>image/svg+xml</dc:format>
        <dc:type
           rdf:resource="http://purl.org/dc/dcmitype/StillImage" />
        <dc:title />
      </cc:Work>
    </rdf:RDF>
  </metadata>
  <g
     id="g4079"
     transform="translate(360.56338,-340.73239)">
    <path
       d="m -334.56338,340.73239 c -14.397,0 -26,11.603 -26,26 l 0,460 c 0,14.397 11.603,26 26,26 l 460,0 c 14.397,0 26,-11.603 26,-26 l 0,-460 c 0,-14.397 -11.6,-26 -26,-26 l -460,0 z"
       id="rect2986-8"
       style="fill:#d8b232"
       inkscape:connector-curvature="0" />
    <path
       d="m -105.51338,381.73239 c -19.84,7.789 -16.85,35.708 -18.6,53.691 -0.59,9.149 1.73,24.879 8.83,31.979 l 11.84,11.84 c -34.92,5.16 -68.29,20.2 -93.22,45.68 -7.78,7.31 -14.68,15.63 -20.54,24.65 l -26.48,-26.48 c -11.88,-11.88 -28.368,-19.32 -43.372,-26.47 -3.974,-1.61 -8.169,-2.98 -12.514,-2.97 -21.785,2.12 -15.689,18.11 -4.224,29.58 l 68.24,68.24 c -7.71,30.43 -4.83,63.17 12.22,90.6 4.96,8.17 10.89,15.61 17.58,22.29 l 148.37,148.37 182.82,0 c 14.4,0 26,-11.6 26,-26 l 0,-279.71 -49.62,-49.62 c -2.66,-2.66 -6.62,-4.19 -10.54,-3.76 l 0,0.01 c -19.54,4.14 -36.26,16.63 -51.8,29.07 l -137.03,-137.03 c -2.02,-2.019 -4.6,-3.44 -7.95,-3.95 l -0.01,-0.01 z m -107.91,337.92 c -21.07,5.28 -36.44,23.15 -51.128,38.21 -11.426,7.33 -10.616,20.92 -4.162,27.37 l 67.5,67.5 124.51,0 -130.51,-130.51 c -1.61,-1.61 -3.79,-2.63 -6.21,-2.57 l 8.95,8.95 -8.95,-8.95 z"
       style="color:#000000;opacity:0.25"
       id="path7753"
       inkscape:connector-curvature="0" />
    <path
       d="m -105.51338,381.73239 c -19.843,7.7894 -16.856,35.709 -18.604,53.692 -0.91911,14.243 5.2225,44.396 25.425,33.201 14.937,-13.491 10.419,-36.712 9.9756,-54.72 -2.1107,-11.139 -2.4832,-29.994 -16.798,-32.165 m 33.546,95.489 c -45.729,-0.88463 -92.337,14.611 -124.69,47.695 -41.626,39.083 -57.854,106.98 -26.675,157.15 23.06,37.93 66.99,60.216 110.39,63.796 38.383,-0.19367 75.777,-18.103 103.8099997,-43.654 27.0140003,-24.21 37.1040003,-63.538 26.3750003,-97.983 -10.3990003,-43.347 -53.344,-75.695 -98.031,-72.33 -38.635,1.1686 -79.01,24.767 -88.456,64.223 -8.0963,29.559 12.5,62.696 40.27,73.22 19.352,9.7146 47.646,-17.466 19.048,-26.961 -21.739,-6.3369 -35.638,-33.531 -17.374,-51.442 20.033,-25.336 61.039,-36.055 86.854,-13.078 22.689,20.082 37.1829997,58.206 17.294,85.04 -18.287,24.173 -44.445,47.516 -76.788,46.07 -23.662,0.79766 -50.896,1.6002 -67.965,-17.97 -17.947,-16.157 -36.859,-36.124 -34.483,-62.33 -3.6206,-59.627 47.826,-112.21 105.63,-118.38 22.407,-4.0687 44.129,3.3892 65.864,7.238 36.1729997,6.245 22.6069997,-34.97 -3.9013,-35.757 -12.05,-3.5238 -24.685,-4.5036 -37.193,-4.5463 m -227.58,16.42 c -31.647,3.0774 -4.4724,35.414 12.543,40.654 14.071,9.3437 49.287,26.052 51.076,-1.7463 -11.554,-17.74 -32.474,-27.056 -51.109,-35.935 -3.9735,-1.6183 -8.1686,-2.9871 -12.513,-2.974 m 390.85,0 c -21.675,4.5857 -39.888,19.451 -56.855,33.121 -21.468,10.703 -3.5451,41.081 15.471,25.182 19.876,-11.743 43.843,-22.075 54.572,-43.81 2.7902,-8.2556 -5.2717,-15.374 -13.196,-14.499 m -304.69,226.01 c -21.071,5.2865 -36.436,23.158 -51.125,38.218 -19.744,12.659 -2.951,44.025 16.367,24.944 17.374,-14.327 36.531,-30.27 43.561,-52.384 1.0996,-5.3423 -3.2382,-10.898 -8.7955,-10.778 m 199.5,15.96 c -21.19,10.617 3.5205,37.848 11.1339997,51.404 6.5979,18.354 42.7220003,41.311 40.2130003,7.0706 -6.2762,-21.22 -22.324,-38.542 -38.5380003,-53.013 -3.6731,-2.7885 -7.9683,-5.7132 -12.8099997,-5.4605"
       style="color:#000000;fill:#ffffff"
       id="path66"
       inkscape:connector-curvature="0" />
  </g>
</svg>
