<?xml version="1.0" encoding="UTF-8" standalone="no"?>
<!-- Created with Inkscape (http://www.inkscape.org/) -->

<svg
   xmlns:dc="http://purl.org/dc/elements/1.1/"
   xmlns:cc="http://creativecommons.org/ns#"
   xmlns:rdf="http://www.w3.org/1999/02/22-rdf-syntax-ns#"
   xmlns:svg="http://www.w3.org/2000/svg"
   xmlns="http://www.w3.org/2000/svg"
   xmlns:sodipodi="http://sodipodi.sourceforge.net/DTD/sodipodi-0.dtd"
   xmlns:inkscape="http://www.inkscape.org/namespaces/inkscape"
   id="svg2"
   height="100%"
   width="100%"
   version="1.1"
   viewBox="0 0 512 512"
   inkscape:version="0.91 r13725"
   sodipodi:docname="locale.svg">
  <defs
     id="defs38" />
  <sodipodi:namedview
     pagecolor="#ffffff"
     bordercolor="#666666"
     borderopacity="1"
     objecttolerance="10"
     gridtolerance="10"
     guidetolerance="10"
     inkscape:pageopacity="0"
     inkscape:pageshadow="2"
     inkscape:window-width="640"
     inkscape:window-height="480"
     id="namedview36"
     showgrid="false"
     inkscape:zoom="0.5546875"
     inkscape:cx="36.056338"
     inkscape:cy="240.67606"
     inkscape:current-layer="svg2" />
  <metadata
     id="metadata72">
    <rdf:RDF>
      <cc:Work
         rdf:about="">
        <dc:format>image/svg+xml</dc:format>
        <dc:type
           rdf:resource="http://purl.org/dc/dcmitype/StillImage" />
      </cc:Work>
    </rdf:RDF>
  </metadata>
  <g
     id="g3396"
     transform="translate(402.02817,-378.59155)">
    <path
       d="m -376.04717,378.58955 c -14.397,0 -26,11.603 -26,26 l 0,460 c 0,14.397 11.603,26 26,26 l 460.000001,0 c 14.397,0 25.999999,-11.603 25.999999,-26 l 0,-460 c 0,-14.397 -11.599999,-26 -25.999999,-26 l -460.000001,0"
       id="path4"
       style="fill:#9bd182"
       inkscape:connector-curvature="0" />
    <path
       d="m 109.95283,479.71955 -255.19,146.22 255.19,230.13 0,-376.34"
       id="path6"
       style="fill:#d9c194"
       inkscape:connector-curvature="0" />
    <path
       d="m -402.04717,436.58955 0,326.5 213.03,-118 4.938,-34.75 -217.97,-173.75"
       id="path8"
       style="fill:#75b8f3"
       inkscape:connector-curvature="0" />
    <path
       d="m -385.51617,380.33955 c -9.695,3.772 -16.531,13.195 -16.531,24.25 l 0,39.19 201.06,171.88 -201.06,107.91 0,68.16 243.72,-139.22 261.41,229.75 c 0.045,-0.049 0.08,-0.107 0.125,-0.156 0.279,-0.308 0.548,-0.617 0.813,-0.938 0.265,-0.321 0.532,-0.666 0.781,-1 0.249,-0.334 0.486,-0.654 0.719,-1 0.145,-0.215 0.299,-0.436 0.438,-0.656 0.084,-0.132 0.169,-0.272 0.25,-0.406 0.125,-0.207 0.255,-0.415 0.375,-0.625 0.089,-0.156 0.164,-0.311 0.25,-0.469 0.2,-0.368 0.38,-0.746 0.563,-1.125 0.084,-0.175 0.17,-0.354 0.25,-0.531 0.095,-0.21 0.192,-0.412 0.281,-0.625 0.066,-0.157 0.124,-0.31 0.188,-0.469 0.091,-0.229 0.197,-0.455 0.281,-0.688 0.053,-0.144 0.106,-0.292 0.156,-0.438 0.089,-0.259 0.169,-0.518 0.25,-0.781 0.038,-0.121 0.058,-0.253 0.094,-0.375 0.063,-0.215 0.13,-0.439 0.188,-0.656 0.019,-0.073 0.044,-0.146 0.063,-0.219 0.107,-0.416 0.195,-0.826 0.281,-1.25 0.086,-0.424 0.153,-0.85 0.219,-1.281 0.009,-0.062 0.022,-0.126 0.031,-0.188 0.053,-0.369 0.119,-0.751 0.156,-1.125 0.004,-0.041 -0.004,-0.083 0,-0.125 0.038,-0.395 0.074,-0.787 0.094,-1.188 10e-4,-0.021 -0.001,-0.042 0,-0.063 0.02,-0.421 0.031,-0.855 0.031,-1.281 l 0,-55.47 -218.09,-183.44 218.09,-119.28 0,-61.218 -261.62,142.88 -233.84,-207.72"
       style="color:#000000;fill:#fae597"
       id="path10"
       inkscape:connector-curvature="0" />
    <path
       d="m -146.07717,419.58955 c -88.43,0 -160.06,71.69 -160.06,160.13 0,88.43 160.06,269.88 160.06,269.88 l 0.063,-0.063 c 0.322,0.368 0.938,1.063 0.938,1.063 l 0.063,-0.063 c 0.322,0.368 0.938,1.063 0.938,1.063 l 0.063,-0.063 c 0.322,0.368 0.938,1.063 0.938,1.063 l 0.063,-0.063 c 0.307,0.351 0.906,1.031 0.906,1.031 0,0 0.06,-0.091 0.063,-0.094 0.338,0.386 0.938,1.094 0.938,1.094 0,0 0.06,-0.091 0.063,-0.094 0.338,0.386 0.938,1.094 0.938,1.094 l 0.063,-0.063 c 0.322,0.368 0.938,1.063 0.938,1.063 l 0.063,-0.063 c 0.322,0.368 0.938,1.063 0.938,1.063 l 0.063,-0.063 c 0.322,0.368 0.938,1.063 0.938,1.063 l 0.063,-0.063 c 0.313,0.357 0.906,1.031 0.906,1.031 l 0.063,-0.063 c 0.327,0.374 0.938,1.063 0.938,1.063 0,0 0.06,-0.091 0.063,-0.094 0.338,0.386 0.938,1.094 0.938,1.094 l 0.063,-0.063 c 0.322,0.368 0.938,1.063 0.938,1.063 l 0.063,-0.063 c 0.322,0.368 0.938,1.063 0.938,1.063 l 0.063,-0.063 c 0.322,0.368 0.938,1.063 0.938,1.063 l 0.063,-0.063 c 0.313,0.357 0.906,1.031 0.906,1.031 l 0.063,-0.063 c 0.327,0.374 0.938,1.063 0.938,1.063 0,0 0.06,-0.091 0.063,-0.094 0.338,0.386 0.938,1.094 0.938,1.094 l 0.063,-0.063 c 0.322,0.368 0.938,1.063 0.938,1.063 l 0.063,-0.063 c 0.322,0.368 0.938,1.063 0.938,1.063 l 0.063,-0.063 c 0.322,0.368 0.938,1.063 0.938,1.063 l 0.063,-0.063 c 0.313,0.357 0.906,1.031 0.906,1.031 l 0.063,-0.063 c 0.327,0.374 0.938,1.063 0.938,1.063 0,0 0.06,-0.091 0.063,-0.094 0.338,0.386 0.938,1.094 0.938,1.094 l 0.063,-0.063 c 0.322,0.368 0.938,1.063 0.938,1.063 l 0.063,-0.063 c 0.322,0.368 0.938,1.063 0.938,1.063 l 0.063,-0.063 c 0.322,0.368 0.938,1.063 0.938,1.063 l 0.063,-0.063 c 0.322,0.368 0.938,1.063 0.938,1.063 l 0.063,-0.063 c 0.307,0.351 0.906,1.031 0.906,1.031 0,0 0.06,-0.091 0.063,-0.094 0.338,0.386 0.938,1.094 0.938,1.094 0,0 0.06,-0.091 0.063,-0.094 0.338,0.386 0.938,1.094 0.938,1.094 l 0.063,-0.063 c 0.322,0.368 0.938,1.063 0.938,1.063 l 0.063,-0.063 c 0.322,0.368 0.938,1.063 0.938,1.063 l 0.063,-0.063 c 0.322,0.368 0.938,1.063 0.938,1.063 l 0.063,-0.063 c 0.313,0.357 0.906,1.031 0.906,1.031 l 0.063,-0.063 c 0.327,0.374 0.938,1.063 0.938,1.063 0,0 0.06,-0.091 0.063,-0.094 0.338,0.386 0.938,1.094 0.938,1.094 l 0.063,-0.063 c 0.322,0.368 0.938,1.063 0.938,1.063 l 0.063,-0.063 c 0.322,0.368 0.938,1.063 0.938,1.063 l 0.063,-0.063 c 0.322,0.368 0.938,1.063 0.938,1.063 l 0.063,-0.063 c 0.313,0.357 0.906,1.031 0.906,1.031 l 0.063,-0.063 c 0.087,0.099 0.14,0.156 0.25,0.281 l 188.940001,0 c 14.397,0 25.999999,-11.603 25.999999,-26 l 0,-255.25 -0.375,-0.375 c -0.026,-0.027 -0.036,-0.067 -0.063,-0.094 -0.031,-0.032 -0.063,-0.062 -0.094,-0.094 -0.327,-0.333 -0.639,-0.67 -0.969,-1 -0.165,-0.168 -0.334,-0.333 -0.5,-0.5 -0.167,-0.166 -0.332,-0.335 -0.5,-0.5 -0.328,-0.328 -0.669,-0.644 -1,-0.969 -0.113,-0.115 -0.23,-0.229 -0.344,-0.344 -0.131,-0.13 -0.275,-0.246 -0.406,-0.375 -0.011,-0.01 -0.021,-0.021 -0.031,-0.031 -0.144,-0.147 -0.293,-0.291 -0.438,-0.438 -0.026,-0.026 -0.068,-0.037 -0.094,-0.063 -0.026,-0.027 -0.037,-0.067 -0.063,-0.094 -0.179,-0.175 -0.351,-0.357 -0.531,-0.531 l -0.031,-0.031 c -0.113,-0.116 -0.23,-0.228 -0.344,-0.344 -0.02,-0.021 -0.042,-0.041 -0.063,-0.063 -0.165,-0.167 -0.334,-0.333 -0.5,-0.5 -0.026,-0.027 -0.036,-0.067 -0.063,-0.094 -0.031,-0.032 -0.063,-0.062 -0.094,-0.094 -0.327,-0.333 -0.639,-0.67 -0.969,-1 -0.165,-0.168 -0.334,-0.333 -0.5,-0.5 -0.167,-0.166 -0.332,-0.335 -0.5,-0.5 -0.657,-0.669 -1.331,-1.312 -1.999999,-1.969 -0.113,-0.115 -0.23,-0.229 -0.344,-0.344 -0.131,-0.13 -0.275,-0.246 -0.406,-0.375 l -0.031,-0.031 c -0.165,-0.168 -0.334,-0.332 -0.5,-0.5 -0.03,-0.032 -0.063,-0.062 -0.094,-0.094 -0.041,-0.042 -0.084,-0.083 -0.125,-0.125 -0.168,-0.176 -0.331,-0.357 -0.5,-0.531 -0.088,-0.089 -0.193,-0.161 -0.281,-0.25 -0.041,-0.043 -0.084,-0.082 -0.125,-0.125 -0.031,-0.031 -0.063,-0.062 -0.094,-0.094 -0.168,-0.176 -0.331,-0.357 -0.5,-0.531 -0.325,-0.331 -0.641,-0.672 -0.969,-1 -0.657,-0.669 -1.331,-1.312 -2,-1.969 -0.113,-0.115 -0.23,-0.229 -0.344,-0.344 -0.131,-0.13 -0.275,-0.246 -0.406,-0.375 l -0.031,-0.031 c -0.407,-0.416 -0.808,-0.839 -1.219,-1.25 -0.088,-0.089 -0.193,-0.161 -0.281,-0.25 -0.02,-0.021 -0.042,-0.041 -0.063,-0.063 -0.165,-0.167 -0.334,-0.333 -0.5,-0.5 -0.026,-0.027 -0.036,-0.067 -0.063,-0.094 -0.031,-0.032 -0.063,-0.062 -0.094,-0.094 -0.327,-0.333 -0.639,-0.67 -0.969,-1 -0.165,-0.168 -0.334,-0.333 -0.5,-0.5 -0.167,-0.166 -0.332,-0.335 -0.5,-0.5 -0.328,-0.328 -0.669,-0.644 -1,-0.969 -0.113,-0.115 -0.23,-0.229 -0.344,-0.344 -0.131,-0.13 -0.275,-0.246 -0.406,-0.375 -0.011,-0.01 -0.021,-0.021 -0.031,-0.031 -0.144,-0.147 -0.293,-0.291 -0.438,-0.438 -0.026,-0.026 -0.068,-0.037 -0.094,-0.063 -0.026,-0.027 -0.037,-0.067 -0.063,-0.094 -0.179,-0.175 -0.351,-0.357 -0.531,-0.531 l -0.031,-0.031 c -0.113,-0.116 -0.23,-0.228 -0.344,-0.344 -0.02,-0.021 -0.042,-0.041 -0.063,-0.063 -0.165,-0.167 -0.334,-0.333 -0.5,-0.5 -0.026,-0.027 -0.036,-0.067 -0.063,-0.094 -0.031,-0.032 -0.063,-0.062 -0.094,-0.094 -0.327,-0.333 -0.639,-0.67 -0.969,-1 -0.165,-0.168 -0.334,-0.333 -0.5,-0.5 -0.167,-0.166 -0.332,-0.335 -0.5,-0.5 -0.328,-0.328 -0.669,-0.644 -1,-0.969 -0.113,-0.115 -0.23,-0.229 -0.344,-0.344 -0.131,-0.13 -0.275,-0.246 -0.406,-0.375 -0.011,-0.01 -0.021,-0.021 -0.031,-0.031 -0.144,-0.147 -0.293,-0.291 -0.438,-0.438 -0.026,-0.026 -0.068,-0.037 -0.094,-0.063 -0.026,-0.027 -0.037,-0.067 -0.063,-0.094 -0.179,-0.175 -0.351,-0.357 -0.531,-0.531 l -0.031,-0.031 c -0.113,-0.116 -0.23,-0.228 -0.344,-0.344 -0.02,-0.021 -0.042,-0.041 -0.063,-0.063 -0.165,-0.167 -0.334,-0.333 -0.5,-0.5 -0.026,-0.027 -0.036,-0.067 -0.063,-0.094 -0.031,-0.032 -0.063,-0.062 -0.094,-0.094 -0.327,-0.333 -0.639,-0.67 -0.969,-1 -0.165,-0.168 -0.334,-0.333 -0.5,-0.5 -0.167,-0.166 -0.332,-0.335 -0.5,-0.5 -0.657,-0.669 -1.331,-1.312 -2,-1.969 -0.113,-0.115 -0.23,-0.229 -0.344,-0.344 -0.131,-0.13 -0.275,-0.246 -0.406,-0.375 l -0.031,-0.031 c -0.165,-0.168 -0.334,-0.332 -0.5,-0.5 -0.03,-0.032 -0.063,-0.062 -0.094,-0.094 -0.041,-0.042 -0.084,-0.083 -0.125,-0.125 -0.168,-0.176 -0.331,-0.357 -0.5,-0.531 -0.088,-0.089 -0.193,-0.161 -0.281,-0.25 -0.041,-0.043 -0.084,-0.082 -0.125,-0.125 -0.031,-0.031 -0.063,-0.062 -0.094,-0.094 -0.168,-0.176 -0.331,-0.357 -0.5,-0.531 -0.325,-0.331 -0.641,-0.672 -0.969,-1 -0.657,-0.669 -1.331,-1.312 -2,-1.969 -0.113,-0.115 -0.23,-0.229 -0.344,-0.344 -0.131,-0.13 -0.275,-0.246 -0.406,-0.375 l -0.031,-0.031 c -0.407,-0.416 -0.808,-0.839 -1.219,-1.25 -0.088,-0.089 -0.193,-0.161 -0.281,-0.25 -0.02,-0.021 -0.042,-0.041 -0.063,-0.063 -0.165,-0.167 -0.334,-0.333 -0.5,-0.5 -0.026,-0.027 -0.036,-0.067 -0.063,-0.094 -0.031,-0.032 -0.063,-0.062 -0.094,-0.094 -0.327,-0.333 -0.639,-0.67 -0.969,-1 -0.165,-0.168 -0.334,-0.333 -0.5,-0.5 -0.167,-0.166 -0.332,-0.335 -0.5,-0.5 -0.328,-0.328 -0.669,-0.644 -1,-0.969 -0.113,-0.115 -0.23,-0.229 -0.344,-0.344 -0.131,-0.13 -0.275,-0.246 -0.406,-0.375 -0.011,-0.01 -0.021,-0.021 -0.031,-0.031 -0.144,-0.147 -0.293,-0.291 -0.438,-0.438 -0.026,-0.026 -0.068,-0.037 -0.094,-0.063 -0.026,-0.027 -0.037,-0.067 -0.063,-0.094 -0.179,-0.175 -0.351,-0.357 -0.531,-0.531 l -0.031,-0.031 c -0.113,-0.116 -0.23,-0.228 -0.344,-0.344 -0.02,-0.021 -0.042,-0.041 -0.063,-0.063 -0.165,-0.167 -0.334,-0.333 -0.5,-0.5 -0.026,-0.027 -0.036,-0.067 -0.063,-0.094 -0.031,-0.032 -0.063,-0.062 -0.094,-0.094 -0.327,-0.333 -0.639,-0.67 -0.969,-1 -0.165,-0.168 -0.334,-0.333 -0.5,-0.5 -0.167,-0.166 -0.332,-0.335 -0.5,-0.5 -0.657,-0.669 -1.331,-1.312 -2,-1.969 -0.113,-0.115 -0.23,-0.229 -0.344,-0.344 -0.131,-0.13 -0.275,-0.246 -0.406,-0.375 l -0.031,-0.031 c -0.165,-0.168 -0.334,-0.332 -0.5,-0.5 -0.03,-0.032 -0.063,-0.062 -0.094,-0.094 -0.041,-0.042 -0.084,-0.083 -0.125,-0.125 -0.168,-0.176 -0.331,-0.357 -0.5,-0.531 -0.088,-0.089 -0.193,-0.161 -0.281,-0.25 -0.041,-0.043 -0.084,-0.082 -0.125,-0.125 -0.031,-0.031 -0.063,-0.062 -0.094,-0.094 -0.168,-0.176 -0.331,-0.357 -0.5,-0.531 -0.325,-0.331 -0.641,-0.672 -0.969,-1 -0.657,-0.669 -1.331,-1.312 -2,-1.969 -0.113,-0.115 -0.23,-0.229 -0.344,-0.344 -0.131,-0.13 -0.275,-0.246 -0.406,-0.375 l -0.031,-0.031 c -0.165,-0.168 -0.334,-0.332 -0.5,-0.5 -0.03,-0.032 -0.063,-0.062 -0.094,-0.094 -0.041,-0.042 -0.084,-0.083 -0.125,-0.125 -0.168,-0.176 -0.331,-0.357 -0.5,-0.531 -0.088,-0.089 -0.193,-0.161 -0.281,-0.25 -0.041,-0.043 -0.084,-0.082 -0.125,-0.125 -0.031,-0.031 -0.063,-0.062 -0.094,-0.094 -0.168,-0.176 -0.331,-0.357 -0.5,-0.531 -0.325,-0.331 -0.641,-0.672 -0.969,-1 -0.165,-0.168 -0.334,-0.333 -0.5,-0.5 -0.167,-0.166 -0.332,-0.335 -0.5,-0.5 -0.33,-0.33 -0.667,-0.642 -1,-0.969 -0.113,-0.115 -0.23,-0.229 -0.344,-0.344 -0.131,-0.13 -0.275,-0.246 -0.406,-0.375 l -0.031,-0.031 c -0.407,-0.416 -0.808,-0.839 -1.219,-1.25 -0.088,-0.089 -0.193,-0.161 -0.281,-0.25 -0.02,-0.021 -0.042,-0.041 -0.063,-0.063 -0.165,-0.167 -0.334,-0.333 -0.5,-0.5 -0.026,-0.027 -0.036,-0.067 -0.063,-0.094 -0.031,-0.032 -0.063,-0.062 -0.094,-0.094 -0.327,-0.333 -0.639,-0.67 -0.969,-1 -0.165,-0.168 -0.334,-0.333 -0.5,-0.5 -0.167,-0.166 -0.332,-0.335 -0.5,-0.5 -0.328,-0.328 -0.669,-0.644 -1,-0.969 -0.113,-0.115 -0.23,-0.229 -0.344,-0.344 -0.131,-0.13 -0.275,-0.246 -0.406,-0.375 -0.011,-0.01 -0.021,-0.021 -0.031,-0.031 -0.144,-0.147 -0.293,-0.291 -0.438,-0.438 -0.026,-0.026 -0.068,-0.037 -0.094,-0.063 -0.026,-0.027 -0.037,-0.067 -0.063,-0.094 -0.179,-0.175 -0.351,-0.357 -0.531,-0.531 l -0.031,-0.031 c -0.113,-0.116 -0.23,-0.228 -0.344,-0.344 -0.02,-0.021 -0.042,-0.041 -0.063,-0.063 -0.165,-0.167 -0.334,-0.333 -0.5,-0.5 -0.026,-0.027 -0.036,-0.067 -0.063,-0.094 -0.031,-0.032 -0.063,-0.062 -0.094,-0.094 -0.327,-0.333 -0.639,-0.67 -0.969,-1 -0.165,-0.168 -0.334,-0.333 -0.5,-0.5 -0.167,-0.166 -0.332,-0.335 -0.5,-0.5 -0.657,-0.669 -1.331,-1.312 -2,-1.969 -0.113,-0.115 -0.23,-0.229 -0.344,-0.344 -0.131,-0.13 -0.275,-0.246 -0.406,-0.375 l -0.031,-0.031 c -0.165,-0.168 -0.334,-0.332 -0.5,-0.5 -0.03,-0.032 -0.063,-0.062 -0.094,-0.094 -0.041,-0.042 -0.084,-0.083 -0.125,-0.125 -0.168,-0.176 -0.331,-0.357 -0.5,-0.531 -0.088,-0.089 -0.193,-0.161 -0.281,-0.25 -0.041,-0.043 -0.084,-0.082 -0.125,-0.125 -0.031,-0.031 -0.063,-0.062 -0.094,-0.094 -0.168,-0.176 -0.331,-0.357 -0.5,-0.531 -0.325,-0.331 -0.641,-0.672 -0.969,-1 -0.657,-0.669 -1.331,-1.312 -2,-1.969 -0.113,-0.115 -0.23,-0.229 -0.344,-0.344 -0.131,-0.13 -0.275,-0.246 -0.406,-0.375 l -0.031,-0.031 c -0.407,-0.416 -0.808,-0.839 -1.219,-1.25 -0.088,-0.089 -0.193,-0.161 -0.281,-0.25 -0.02,-0.021 -0.042,-0.041 -0.063,-0.063 -0.165,-0.167 -0.334,-0.333 -0.5,-0.5 -0.026,-0.027 -0.036,-0.067 -0.063,-0.094 -0.031,-0.032 -0.063,-0.062 -0.094,-0.094 -0.327,-0.333 -0.639,-0.67 -0.969,-1 -0.165,-0.168 -0.334,-0.333 -0.5,-0.5 -0.167,-0.166 -0.332,-0.335 -0.5,-0.5 -0.328,-0.328 -0.669,-0.644 -1,-0.969 -0.113,-0.115 -0.23,-0.229 -0.344,-0.344 -0.131,-0.13 -0.275,-0.246 -0.406,-0.375 -0.011,-0.01 -0.021,-0.021 -0.031,-0.031 -0.144,-0.147 -0.293,-0.291 -0.438,-0.438 -0.026,-0.026 -0.068,-0.037 -0.094,-0.063 -0.026,-0.027 -0.037,-0.067 -0.063,-0.094 -0.179,-0.175 -0.351,-0.357 -0.531,-0.531 l -0.031,-0.031 c -0.113,-0.116 -0.23,-0.228 -0.344,-0.344 -0.02,-0.021 -0.042,-0.041 -0.063,-0.063 -0.165,-0.167 -0.334,-0.333 -0.5,-0.5 -0.026,-0.027 -0.036,-0.067 -0.063,-0.094 -0.031,-0.032 -0.063,-0.062 -0.094,-0.094 -0.327,-0.333 -0.639,-0.67 -0.969,-1 -0.165,-0.168 -0.334,-0.333 -0.5,-0.5 -0.167,-0.166 -0.332,-0.335 -0.5,-0.5 -0.657,-0.669 -1.331,-1.312 -2,-1.969 -0.113,-0.115 -0.23,-0.229 -0.344,-0.344 -0.131,-0.13 -0.275,-0.246 -0.406,-0.375 l -0.031,-0.031 c -0.165,-0.168 -0.334,-0.332 -0.5,-0.5 -0.02,-0.021 -0.042,-0.041 -0.063,-0.063 -0.165,-0.167 -0.334,-0.333 -0.5,-0.5 -0.026,-0.027 -0.036,-0.067 -0.063,-0.094 -0.031,-0.032 -0.063,-0.062 -0.094,-0.094 -0.327,-0.333 -0.639,-0.67 -0.969,-1 -0.165,-0.168 -0.334,-0.333 -0.5,-0.5 -0.167,-0.166 -0.332,-0.335 -0.5,-0.5 -0.657,-0.669 -1.331,-1.312 -2,-1.969 -0.113,-0.115 -0.23,-0.229 -0.344,-0.344 -0.131,-0.13 -0.275,-0.246 -0.406,-0.375 l -0.031,-0.031 c -0.165,-0.168 -0.334,-0.332 -0.5,-0.5 -0.03,-0.032 -0.063,-0.062 -0.094,-0.094 -0.041,-0.042 -0.084,-0.083 -0.125,-0.125 -0.168,-0.176 -0.331,-0.357 -0.5,-0.531 -0.088,-0.089 -0.193,-0.161 -0.281,-0.25 -0.041,-0.043 -0.084,-0.082 -0.125,-0.125 -0.031,-0.031 -0.063,-0.062 -0.094,-0.094 -0.168,-0.176 -0.331,-0.357 -0.5,-0.531 -0.325,-0.331 -0.641,-0.672 -0.969,-1 -0.165,-0.168 -0.334,-0.333 -0.5,-0.5 -0.167,-0.166 -0.332,-0.335 -0.5,-0.5 -0.33000001,-0.33 -0.66700001,-0.642 -1.00000001,-0.969 -0.113,-0.115 -0.23,-0.229 -0.344,-0.344 -0.131,-0.13 -0.275,-0.246 -0.406,-0.375 l -0.031,-0.031 c -0.40699999,-0.416 -0.80799999,-0.839 -1.21899999,-1.25 -0.088,-0.089 -0.193,-0.161 -0.281,-0.25 -0.02,-0.021 -0.042,-0.041 -0.063,-0.063 -0.165,-0.167 -0.334,-0.333 -0.5,-0.5 -0.026,-0.027 -0.036,-0.067 -0.063,-0.094 -0.031,-0.032 -0.063,-0.062 -0.094,-0.094 -0.327,-0.333 -0.639,-0.67 -0.969,-1 -0.165,-0.168 -0.334,-0.333 -0.5,-0.5 -0.167,-0.166 -0.332,-0.335 -0.5,-0.5 -0.328,-0.328 -0.669,-0.644 -1,-0.969 -0.113,-0.115 -0.23,-0.229 -0.344,-0.344 -0.131,-0.13 -0.275,-0.246 -0.406,-0.375 -0.011,-0.01 -0.021,-0.021 -0.031,-0.031 -0.144,-0.147 -0.293,-0.291 -0.438,-0.438 -0.026,-0.026 -0.068,-0.037 -0.094,-0.063 -0.026,-0.027 -0.037,-0.067 -0.063,-0.094 -0.179,-0.175 -0.351,-0.357 -0.531,-0.531 l -0.031,-0.031 c -0.113,-0.116 -0.23,-0.228 -0.344,-0.344 -0.02,-0.021 -0.042,-0.041 -0.063,-0.063 -0.165,-0.167 -0.334,-0.333 -0.5,-0.5 -0.026,-0.027 -0.036,-0.067 -0.063,-0.094 -0.031,-0.032 -0.063,-0.062 -0.094,-0.094 -0.327,-0.333 -0.639,-0.67 -0.969,-1 -0.165,-0.168 -0.334,-0.333 -0.5,-0.5 -0.167,-0.166 -0.332,-0.335 -0.5,-0.5 -0.657,-0.669 -1.331,-1.312 -2,-1.969 -0.113,-0.115 -0.23,-0.229 -0.344,-0.344 -0.131,-0.13 -0.275,-0.246 -0.406,-0.375 l -0.031,-0.031 c -0.165,-0.168 -0.334,-0.332 -0.5,-0.5 -0.03,-0.032 -0.063,-0.062 -0.094,-0.094 -0.041,-0.042 -0.084,-0.083 -0.125,-0.125 -0.168,-0.176 -0.331,-0.357 -0.5,-0.531 -0.088,-0.089 -0.193,-0.161 -0.281,-0.25 -0.041,-0.043 -0.084,-0.082 -0.125,-0.125 -0.031,-0.031 -0.063,-0.062 -0.094,-0.094 -0.168,-0.176 -0.331,-0.357 -0.5,-0.531 -0.325,-0.331 -0.641,-0.672 -0.969,-1 -0.657,-0.669 -1.331,-1.312 -2,-1.969 -0.113,-0.115 -0.23,-0.229 -0.344,-0.344 -0.131,-0.13 -0.275,-0.246 -0.406,-0.375 l -0.031,-0.031 c -0.407,-0.416 -0.808,-0.839 -1.219,-1.25 -0.088,-0.089 -0.193,-0.161 -0.281,-0.25 -0.02,-0.021 -0.042,-0.041 -0.063,-0.063 -0.165,-0.167 -0.334,-0.333 -0.5,-0.5 -0.026,-0.027 -0.036,-0.067 -0.063,-0.094 -0.031,-0.032 -0.063,-0.062 -0.094,-0.094 -0.327,-0.333 -0.639,-0.67 -0.969,-1 -0.165,-0.168 -0.334,-0.333 -0.5,-0.5 -0.167,-0.166 -0.332,-0.335 -0.5,-0.5 -0.328,-0.328 -0.669,-0.644 -1,-0.969 -0.113,-0.115 -0.23,-0.229 -0.344,-0.344 -0.131,-0.13 -0.275,-0.246 -0.406,-0.375 -0.011,-0.01 -0.021,-0.021 -0.031,-0.031 -0.144,-0.147 -0.293,-0.291 -0.438,-0.438 -0.026,-0.026 -0.068,-0.037 -0.094,-0.063 -0.026,-0.027 -0.037,-0.067 -0.063,-0.094 -0.179,-0.175 -0.351,-0.357 -0.531,-0.531 l -0.031,-0.031 c -0.113,-0.116 -0.23,-0.228 -0.344,-0.344 -0.02,-0.021 -0.042,-0.041 -0.063,-0.063 -0.165,-0.167 -0.334,-0.333 -0.5,-0.5 -0.026,-0.027 -0.036,-0.067 -0.063,-0.094 -0.031,-0.032 -0.063,-0.062 -0.094,-0.094 -0.327,-0.333 -0.639,-0.67 -0.969,-1 -0.165,-0.168 -0.334,-0.333 -0.5,-0.5 -0.167,-0.166 -0.332,-0.335 -0.5,-0.5 -0.636,-0.647 -1.29,-1.27 -1.938,-1.906 -0.021,-0.021 -0.041,-0.042 -0.063,-0.063 -0.113,-0.115 -0.23,-0.229 -0.344,-0.344 -0.131,-0.13 -0.275,-0.246 -0.406,-0.375 -0.659,-0.663 -1.329,-1.318 -2,-1.969 -28.83,-27.974 -68.130001,-45.22 -111.470001,-45.22"
       id="path12"
       style="opacity:0.25"
       inkscape:connector-curvature="0" />
    <path
       d="m -146.06717,419.58955 c -88.43,0 -160.09,71.69 -160.09,160.13 0,88.43 160.09,269.87 160.09,269.87 0,0 160.130001,-181.45 160.130001,-269.87 0,-88.43 -71.69,-160.13 -160.130001,-160.13 m 0,49.618 c 61.050001,0 110.590001,49.49 110.590001,110.55 0,61.06 -49.54,110.55 -110.590001,110.55 -61.05,0 -110.54,-49.49 -110.54,-110.54 0,-61.06 49.5,-110.54 110.55,-110.54 m -2.767,35.34 c -39.958,0 -72.36,32.398 -72.36,72.37 0,39.958 32.398,72.37 72.37,72.37 39.958,0 72.370001,-32.398 72.370001,-72.36 0,-39.958 -32.398001,-72.36 -72.360001,-72.36"
       id="path66"
       style="fill:#ffffff"
       inkscape:connector-curvature="0" />
  </g>
</svg>
