<?xml version="1.0" encoding="UTF-8" standalone="no"?>
<!-- Created with Inkscape (http://www.inkscape.org/) -->

<svg
   xmlns:dc="http://purl.org/dc/elements/1.1/"
   xmlns:cc="http://creativecommons.org/ns#"
   xmlns:rdf="http://www.w3.org/1999/02/22-rdf-syntax-ns#"
   xmlns:svg="http://www.w3.org/2000/svg"
   xmlns="http://www.w3.org/2000/svg"
   xmlns:sodipodi="http://sodipodi.sourceforge.net/DTD/sodipodi-0.dtd"
   xmlns:inkscape="http://www.inkscape.org/namespaces/inkscape"
   id="svg2"
   height="100%"
   width="100%"
   version="1.1"
   viewBox="0 0 512 512"
   inkscape:version="0.91 r13725"
   sodipodi:docname="lock.svg">
  <defs
     id="defs47" />
  <sodipodi:namedview
     pagecolor="#ffffff"
     bordercolor="#666666"
     borderopacity="1"
     objecttolerance="10"
     gridtolerance="10"
     guidetolerance="10"
     inkscape:pageopacity="0"
     inkscape:pageshadow="2"
     inkscape:window-width="640"
     inkscape:window-height="480"
     id="namedview45"
     showgrid="false"
     inkscape:zoom="0.5546875"
     inkscape:cx="36.056338"
     inkscape:cy="240.67606"
     inkscape:current-layer="svg2" />
  <metadata
     id="metadata10">
    <rdf:RDF>
      <cc:Work
         rdf:about="">
        <dc:format>image/svg+xml</dc:format>
        <dc:type
           rdf:resource="http://purl.org/dc/dcmitype/StillImage" />
        <dc:title />
      </cc:Work>
    </rdf:RDF>
  </metadata>
  <g
     id="g3396"
     transform="translate(360.56338,-335.32394)">
    <path
       d="m -334.56338,335.32394 c -14.397,0 -26,11.603 -26,26 l 0,460 c 0,14.397 11.603,26 26,26 l 460,0 c 14.397,0 26,-11.603 26,-26 l 0,-460 c 0,-14.397 -11.6,-26 -26,-26 l -460,0"
       id="path9"
       style="fill:#cd1d31"
       inkscape:connector-curvature="0" />
    <path
       d="m -106.39338,376.32394 c -56.27,0 -113.25,37.59 -113.25,94.6 l 0,103.72 -41.731,0 0,231.68 41.001,41 345.81,0 c 14.4,0 26,-11.6 26,-26 l 0,-242.26 -168.29,-168.29 c -20.03,-20.028 -50.8,-34.443 -89.54,-34.446 l 0,-0.004 z"
       id="path91"
       style="opacity:0.25;fill-rule:evenodd"
       inkscape:connector-curvature="0" />
    <path
       d="m -106.39338,376.32394 c -56.27,0 -113.25,37.59 -113.25,94.6 l 0,103.72 -41.73,0 0,231.68 313.63,0 0,-231.68 -42.9900003,0 0,-106.59 c 0,-42.843 -44.3099997,-91.73 -115.6599997,-91.73 m -0.806,51.96 c 30.3,-0.158 63.3,20.99 63.3,53.22 l 0,93.13 -124.23,0 0.05,-0.05 0,-92.68 c 0,-34.959 34.816,-53.49 60.881,-53.624 m 1.412,197.16 c 17.337,0 31.398,14.06 31.398,31.398 0,10.337 -5.04,19.48 -12.75,25.2 l 12.448,69.852 -61.64,0 12.347,-69.5 c -7.978,-5.692 -13.211,-15.01 -13.211,-25.552 0,-17.337 14.06,-31.398 31.398,-31.398"
       id="path143"
       style="fill:#ffffff;fill-rule:evenodd"
       inkscape:connector-curvature="0" />
  </g>
</svg>
