<?xml version="1.0" encoding="UTF-8" standalone="no"?>
<!-- Created with Inkscape (http://www.inkscape.org/) -->

<svg
   xmlns:dc="http://purl.org/dc/elements/1.1/"
   xmlns:cc="http://creativecommons.org/ns#"
   xmlns:rdf="http://www.w3.org/1999/02/22-rdf-syntax-ns#"
   xmlns:svg="http://www.w3.org/2000/svg"
   xmlns="http://www.w3.org/2000/svg"
   xmlns:xlink="http://www.w3.org/1999/xlink"
   xmlns:sodipodi="http://sodipodi.sourceforge.net/DTD/sodipodi-0.dtd"
   xmlns:inkscape="http://www.inkscape.org/namespaces/inkscape"
   id="svg2"
   height="100%"
   width="100%"
   version="1.1"
   viewBox="0 0 512 512"
   inkscape:version="0.91+devel r13804 custom"
   sodipodi:docname="login.svg">
  <sodipodi:namedview
     pagecolor="#ffffff"
     bordercolor="#666666"
     borderopacity="1"
     objecttolerance="10"
     gridtolerance="10"
     guidetolerance="10"
     inkscape:pageopacity="0"
     inkscape:pageshadow="2"
     inkscape:window-width="1366"
     inkscape:window-height="709"
     id="namedview2687"
     showgrid="false"
     inkscape:zoom="0.4609375"
     inkscape:cx="-8.6779661"
     inkscape:cy="237.55932"
     inkscape:window-x="-2"
     inkscape:window-y="-3"
     inkscape:window-maximized="1"
     inkscape:current-layer="svg2" />
  <metadata
     id="metadata10">
    <rdf:RDF>
      <cc:Work
         rdf:about="">
        <dc:format>image/svg+xml</dc:format>
        <dc:type
           rdf:resource="http://purl.org/dc/dcmitype/StillImage" />
        <dc:title />
      </cc:Work>
    </rdf:RDF>
  </metadata>
  <defs
     id="defs8">
    <filter
       id="filter3174-0"
       color-interpolation-filters="sRGB">
      <feGaussianBlur
         id="feGaussianBlur3176-6"
         stdDeviation="1.71" />
    </filter>
    <linearGradient
       id="ButtonShadow-8"
       x1="45.448"
       gradientUnits="userSpaceOnUse"
       y1="92.54"
       gradientTransform="scale(1.0059 .99417)"
       x2="45.448"
       y2="7.0165">
      <stop
         id="stop3750-5"
         offset="0" />
      <stop
         id="stop3752-1"
         stop-opacity=".58824"
         offset="1" />
    </linearGradient>
    <filter
       id="filter3174-8"
       color-interpolation-filters="sRGB">
      <feGaussianBlur
         id="feGaussianBlur3176-3"
         stdDeviation="1.71" />
    </filter>
    <clipPath
       id="clipPath3613-8">
      <rect
         id="rect3615-9"
         rx="6"
         ry="6"
         height="84"
         width="84"
         y="6"
         x="6"
         fill="#fff" />
    </clipPath>
    <filter
       id="filter3794-5"
       height="1.384"
       width="1.384"
       color-interpolation-filters="sRGB"
       y="-.192"
       x="-.192">
      <feGaussianBlur
         id="feGaussianBlur3796-3"
         stdDeviation="5.28" />
    </filter>
    <linearGradient
       id="linearGradient3604"
       x1="48"
       gradientUnits="userSpaceOnUse"
       y1="20.221"
       x2="48"
       y2="138.66">
      <stop
         id="stop3739-2-2"
         stop-color="#fff"
         offset="0" />
      <stop
         id="stop3741-9"
         stop-color="#fff"
         stop-opacity="0"
         offset="1" />
    </linearGradient>
    <linearGradient
       id="linearGradient3607"
       x1="45.448"
       xlink:href="#ButtonShadow-8"
       gradientUnits="userSpaceOnUse"
       y1="92.54"
       gradientTransform="scale(1.0059 .99417)"
       x2="45.448"
       y2="7.0165" />
    <filter
       id="filter3174"
       color-interpolation-filters="sRGB">
      <feGaussianBlur
         id="feGaussianBlur3176"
         stdDeviation="1.71" />
    </filter>
    <style
       id="style5970"
       type="text/css" />
    <linearGradient
       id="ButtonShadow-82"
       x1="45.448"
       gradientUnits="userSpaceOnUse"
       y1="92.54"
       gradientTransform="scale(1.0059 .99417)"
       x2="45.448"
       y2="7.0165">
      <stop
         id="stop3750-1"
         offset="0" />
      <stop
         id="stop3752-6"
         stop-opacity=".58824"
         offset="1" />
    </linearGradient>
    <filter
       id="filter3174-6"
       color-interpolation-filters="sRGB">
      <feGaussianBlur
         id="feGaussianBlur3176-1"
         stdDeviation="1.71" />
    </filter>
  </defs>
  <style
     id="style1470"
     type="text/css" />
  <style
     id="style1470-1"
     type="text/css" />
  <rect
     id="rect3745"
     opacity=".9"
     transform="matrix(3.1226 0 0 3.1226 -341.46 -20.047)"
     rx="6"
     ry="6"
     height="85"
     filter="url(#filter3174)"
     width="86"
     display="none"
     y="7"
     x="5"
     fill="url(#linearGradient3607)" />
  <path
     id="rect3745-2"
     opacity=".9"
     d="m11 7c-3.324 0-6 2.676-6 6v73c0 3.324 2.676 6 6 6h74c3.324 0 6-2.676 6-6v-73c0-3.324-2.676-6-6-6h-74zm-1 4h6v4h-6v-4zm70 0h6v4h-6v-4zm-70 8h6v4h-6v-4zm70 0h6v4h-6v-4zm-70 8h6v4h-6v-4zm70 0h6v4h-6v-4zm-70 8h6v4h-6v-4zm70 0h6v4h-6v-4zm-70 8h6v4h-6v-4zm70 0h6v4h-6v-4zm-70 8h6v4h-6v-4zm70 0h6v4h-6v-4zm-70 8h6v4h-6v-4zm70 0h6v4h-6v-4zm-70 8h6v4h-6v-4zm70 0h6v4h-6v-4zm-70 8h6v4h-6v-4zm70 0h6v4h-6v-4zm-70 8h6v4h-6v-4zm70 0h6v4h-6v-4z"
     transform="matrix(4.2365 0 0 4.2365 498.8 -571.15)"
     display="none"
     filter="url(#filter3174-0)"
     fill="url(#linearGradient3607)" />
  <rect
     id="rect3745-9"
     opacity=".9"
     transform="matrix(5.0049 0 0 5.0049 -950.71 -548.22)"
     rx="6"
     ry="6"
     height="85"
     filter="url(#filter3174-8)"
     width="86"
     display="none"
     y="7"
     x="5"
     fill="url(#linearGradient3607)" />
  <rect
     id="rect3171-6"
     ry="12"
     stroke="#fff"
     stroke-linecap="round"
     stroke-width=".5"
     fill="url(#linearGradient3604)"
     rx="12"
     transform="matrix(5.0049 0 0 5.0049 -950.71 -548.22)"
     width="66"
     opacity=".1"
     clip-path="url(#clipPath3613-8)"
     height="66"
     filter="url(#filter3794-5)"
     y="15"
     x="15"
     display="none" />
  <path
     id="path23392"
     style="color:#000000"
     d="m-1379.7-492.31c-7.1453 0-13.74 3.812-17.312 10-3.572 6.1878-3.5724 13.812 0 20 0.9304 1.611 2.0465 3.049 3.3438 4.3125 0.083 0.0834 0.166 0.1682 0.25 0.25l251.06 250.81c3.4907 2.7892 7.9381 4.3575 12.406 4.375 7.25-0.0194 14.304-4.3213 17.656-10.75 3.3518-6.4287 2.8535-14.701-1.2813-20.656-0.2486-0.36263-0.5092-0.71705-0.7812-1.0625l-250.91-251.12c-0.083-0.0838-0.1654-0.16767-0.25-0.25-3.6237-3.6523-8.6363-5.9062-14.188-5.9062zm60 0c-7.1453 0-13.74 3.812-17.312 10-3.572 6.1878-3.5724 13.812 0 20 0.9304 1.611 2.0465 3.049 3.3438 4.3125 0.083 0.0834 0.166 0.1682 0.25 0.25l251.06 250.81c3.4907 2.7892 7.9381 4.3575 12.406 4.375 7.25-0.0194 14.304-4.3213 17.656-10.75 3.3518-6.4287 2.8535-14.701-1.2813-20.656-0.2486-0.36263-0.5092-0.71705-0.7812-1.0625l-250.91-251.12c-0.083-0.0838-0.1654-0.16767-0.25-0.25-3.6237-3.6523-8.6363-5.9062-14.188-5.9062zm60 0c-7.1453 0-13.74 3.812-17.312 10-3.572 6.1878-3.5724 13.812 0 20 0.9304 1.611 2.0465 3.049 3.3438 4.3125 0.083 0.0834 0.166 0.1682 0.25 0.25l251.06 250.81c3.4907 2.7892 7.9381 4.3575 12.406 4.375 7.25-0.0194 14.304-4.3213 17.656-10.75 3.3519-6.4287 2.8536-14.701-1.2812-20.656-0.24864-0.36263-0.50925-0.71705-0.78125-1.0625l-250.91-251.12c-0.083-0.0838-0.1654-0.16767-0.25-0.25-3.6237-3.6523-8.6363-5.9062-14.188-5.9062z"
     fill-opacity=".31373"
     display="none" />
  <path
     id="path3132"
     d="m-1424.7-350.28c-13.688 0-15.123 0.90811-18.531 11.469-3.1027 9.6149-5.5821 11.943-17.5 16.562-10.829 4.1976-13.953 4.1884-19.25 0-6.4233-5.0788-14.498-3.3778-22.438 4.6875-8.9495 9.0909-9.5667 12.082-4.5312 21.688 4.5103 8.604 4.3538 12.318-1.0625 24.219-4.1018 9.0128-6.071 10.857-14.438 13.594-9.5265 3.1167-11.25 6.0449-11.25 19.031 0.5279 4.7111 0.04 10.889 2.8125 14.125l27.5 27.468c1.8957 5.3663 1.0095 6.6522-2.3438 12.969-5.4123 10.195-5.1193 12.686 3.8125 21.781l303.87 303.78c0.8936 0.8261 1.7188 1.5093 2.5 2.125 5.4413 4.2885 8.6191 3.6237 16.344-0.6562 6.4082-3.5506 8.9741-4.3252 15.156-2.3125l27.089 27.06c1.9665 1.8769 3.99 2.125 13.656 2.125 13.922 0 16.403-1.3453 18.281-9.75 2.4974-11.174 3.8953-12.702 15.719-17.562 12.903-5.3046 13.891-5.387 19.719-1.4063 8.9954 6.1443 14.284 5.595 22.531-2.3125 9.685-9.2858 11.588-14.728 7.3438-21.188-6.2342-9.4882-6.4216-12.188-1.5938-23.781 4.6977-11.28 7.3387-13.539 17.594-15.188 7.6176-1.2244 9.0811-3.8602 9.5625-16.969 0.3354-9.1338 0.011-13.732-2.5-16.656l-28.03-28.061c-1.7172-5.771-1.1247-8.7527 1.5625-12.406 5.4952-7.4711 4.8924-14.379-1.9375-21.719-0.1046-0.1125-0.2092-0.2022-0.3125-0.3125-0.626-0.6688-1.2337-1.3152-1.8125-1.9063l-300.46-300.49c-0.098-0.0969-0.2163-0.18666-0.3125-0.28125-0.1113-0.10789-0.2029-0.20774-0.3125-0.3125-7.5624-7.3351-11.426-7.3972-20.688-2.5-6.901 3.6489-9.812 4.2975-14.812 2.5938l-26.343-26.341c-2.729-2.8393-6.7479-3.1605-14.595-3.1605z"
     fill-opacity=".31373"
     display="none" />
  <g
     id="layer2"
     display="none"
     transform="matrix(6.7274 0 0 6.7274 -2346.4 -923.08)">
    <rect
       id="rect3745-5"
       opacity=".9"
       rx="6"
       ry="6"
       height="85"
       filter="url(#filter3174-6)"
       width="86"
       y="7"
       x="5"
       fill="url(#ButtonShadow-82)" />
  </g>
  <g
     id="g6036"
     transform="translate(262.50847,-292.88136)">
    <path
       d="m -236.51097,292.87886 c -14.397,0 -26,11.603 -26,26 l 0,460 c 0,14.397 11.603,26 26,26 l 460,0 c 14.397,0 26,-11.603 26,-26 l 0,-460 c 0,-14.397 -11.6,-26 -26,-26 l -460,0 z"
       id="rect2986"
       style="fill:#ff5722"
       inkscape:connector-curvature="0" />
    <path
       d="m -201.43497,333.87886 c -10.369,0 -18.705,8.336 -18.705,18.705 l 0,392.58 c 0,5.05 1.967,9.61 5.178,12.96 l 46.756,46.76 391.7,0 c 14.4,0 26,-11.6 26,-26 l 0,-391.7 -47.84,-47.837 c -3.38,-3.38 -8.05,-5.463 -13.24,-5.463 l -389.84,0 z"
       style="color:#000000;opacity:0.25;fill-rule:evenodd"
       id="path36893"
       inkscape:connector-curvature="0" />
    <path
       d="m -201.43497,333.87886 c -10.37,0 -18.704,8.335 -18.704,18.704 l 0,392.59 c 0,10.38 8.334,18.71 18.704,18.71 l 389.85,0 c 10.37,0 18.704,-8.3348 18.704,-18.704 l 0,-392.59 c 0,-10.375 -8.34,-18.71 -18.71,-18.71 l -389.84,0 z m 194.7699954,36.311 c 36.8109996,0 66.7369996,31.052 66.7369996,69.68 0,38.628 -29.926,70.029 -66.7369996,70.029 -36.8110004,0 -66.7370004,-31.401 -66.7370004,-70.029 0,-38.629 29.926,-69.68 66.7370004,-69.68 z m -62.2500004,157.57 c 17.394,13.578 38.948,21.647 62.2480004,21.647 23.2999996,0 44.8539996,-8.0687 62.2479996,-21.647 26.951,6.6812 49.445005,41.017 48.482005,83.097 l -221.16,0 c -1.0182,-42.072 21.290995,-76.396 48.181995,-83.097 z m -41.847995,131.43 16.958995,0 -3.4915,33.319 33.369,-9.427 2.3443,16.011 -31.822,2.5438 20.6,27.433 -14.914,8.1302 -14.763995,-30.326 -13.367,30.326 -15.412,-8.1302 20.35,-27.433 -31.573,-2.5438 2.444,-16.011 32.92,9.427 -3.6411,-33.319 z m 95.516995,0 16.9590004,0 -3.4416,33.319 33.3189996,-9.427 2.3942,16.011 -31.8719996,2.5438 20.5999996,27.433 -14.9139996,8.1302 -14.714,-30.326 -13.4170004,30.326 -15.412,-8.1302 20.35,-27.433 -31.623,-2.5438 2.4939,-16.011 32.969,9.427 -3.691,-33.319 z m 95.517,0 16.959,0 -3.4915,33.319 33.369005,-9.427 2.3443,16.011 -31.822005,2.5438 20.600005,27.433 -14.914,8.1302 -14.714005,-30.326 -13.417,30.326 -15.412,-8.1302 20.35,-27.433 -31.573,-2.5438 2.3942,-16.011 32.97,9.427 -3.6411,-33.319 z"
       style="color:#000000;fill:#ffffff;fill-rule:evenodd"
       id="rect4860"
       inkscape:connector-curvature="0" />
  </g>
</svg>
