<?xml version="1.0" encoding="UTF-8" standalone="no"?>
<svg
   xmlns:dc="http://purl.org/dc/elements/1.1/"
   xmlns:cc="http://creativecommons.org/ns#"
   xmlns:rdf="http://www.w3.org/1999/02/22-rdf-syntax-ns#"
   xmlns:svg="http://www.w3.org/2000/svg"
   xmlns="http://www.w3.org/2000/svg"
   xmlns:xlink="http://www.w3.org/1999/xlink"
   xmlns:sodipodi="http://sodipodi.sourceforge.net/DTD/sodipodi-0.dtd"
   xmlns:inkscape="http://www.inkscape.org/namespaces/inkscape"
   id="svg2"
   height="100%"
   viewBox="0 0 512 512"
   width="100%"
   version="1.1"
   inkscape:version="0.91 r13725"
   sodipodi:docname="mail_generic.svg">
  <sodipodi:namedview
     pagecolor="#ffffff"
     bordercolor="#666666"
     borderopacity="1"
     objecttolerance="10"
     gridtolerance="10"
     guidetolerance="10"
     inkscape:pageopacity="0"
     inkscape:pageshadow="2"
     inkscape:window-width="640"
     inkscape:window-height="480"
     id="namedview145"
     showgrid="false"
     inkscape:zoom="0.5546875"
     inkscape:cx="36.056338"
     inkscape:cy="240.67606"
     inkscape:current-layer="svg2" />
  <metadata
     id="metadata10">
    <rdf:RDF>
      <cc:Work
         rdf:about="">
        <dc:format>image/svg+xml</dc:format>
        <dc:type
           rdf:resource="http://purl.org/dc/dcmitype/StillImage" />
        <dc:title />
      </cc:Work>
    </rdf:RDF>
  </metadata>
  <defs
     id="defs8">
    <linearGradient
       id="linearGradient4216-1">
      <stop
         id="stop4218-0"
         stop-color="#fff"
         offset="0" />
      <stop
         id="stop4220-2"
         stop-color="#e8e8e8"
         offset=".6875" />
      <stop
         id="stop4222-6"
         stop-color="#686868"
         offset=".875" />
      <stop
         id="stop4224-6"
         offset="1" />
    </linearGradient>
    <radialGradient
       id="radialGradient21305"
       xlink:href="#linearGradient4216-1"
       gradientUnits="userSpaceOnUse"
       cy="64"
       cx="64"
       gradientTransform="matrix(4.1658 0 0 3.8875 -39.924 -73.947)"
       r="64" />
    <radialGradient
       id="radialGradient21305-0"
       gradientUnits="userSpaceOnUse"
       xlink:href="#linearGradient4216-1"
       cx="64"
       cy="64"
       r="64"
       gradientTransform="matrix(4.1658 0 0 3.8875 1383.5 -189.35)" />
    <linearGradient
       id="ButtonShadow"
       x1="45.448"
       gradientUnits="userSpaceOnUse"
       y1="92.54"
       gradientTransform="scale(1.0059 .99417)"
       x2="45.448"
       y2="7.0165">
      <stop
         id="stop3750-1"
         offset="0" />
      <stop
         id="stop3752-6"
         stop-opacity=".58824"
         offset="1" />
    </linearGradient>
    <filter
       id="filter3174"
       color-interpolation-filters="sRGB">
      <feGaussianBlur
         id="feGaussianBlur3176"
         stdDeviation="1.71" />
    </filter>
    <filter
       id="filter3174-2"
       color-interpolation-filters="sRGB">
      <feGaussianBlur
         id="feGaussianBlur3176-21"
         stdDeviation="1.71" />
    </filter>
    <filter
       id="filter3174-5"
       color-interpolation-filters="sRGB">
      <feGaussianBlur
         id="feGaussianBlur3176-2"
         stdDeviation="1.71" />
    </filter>
    <linearGradient
       id="linearGradient6148"
       y2="7.0165"
       xlink:href="#ButtonShadow"
       gradientUnits="userSpaceOnUse"
       x2="45.448"
       gradientTransform="scale(1.0059 .99417)"
       y1="92.54"
       x1="45.448" />
    <filter
       id="filter3174-3"
       color-interpolation-filters="sRGB">
      <feGaussianBlur
         id="feGaussianBlur3176-9"
         stdDeviation="1.71" />
    </filter>
    <radialGradient
       id="radialGradient26869"
       cx="64"
       xlink:href="#linearGradient4216-1"
       gradientUnits="userSpaceOnUse"
       cy="64"
       r="64"
       gradientTransform="matrix(4.1658 0 0 3.8875 52.766 -98.917)" />
    <radialGradient
       id="radialGradient26875"
       cx="64"
       xlink:href="#linearGradient4216-1"
       gradientUnits="userSpaceOnUse"
       cy="64"
       r="64"
       gradientTransform="matrix(4.1658 0 0 3.8875 1476.2 -214.32)" />
    <filter
       id="filter3174-38"
       color-interpolation-filters="sRGB">
      <feGaussianBlur
         id="feGaussianBlur3176-7"
         stdDeviation="1.71" />
    </filter>
    <filter
       id="filter3174-5-6"
       color-interpolation-filters="sRGB">
      <feGaussianBlur
         id="feGaussianBlur3176-2-7"
         stdDeviation="1.71" />
    </filter>
    <filter
       id="filter3174-3-3"
       color-interpolation-filters="sRGB">
      <feGaussianBlur
         id="feGaussianBlur3176-9-1"
         stdDeviation="1.71" />
    </filter>
    <radialGradient
       id="radialGradient26869-2"
       xlink:href="#linearGradient4216-1"
       gradientUnits="userSpaceOnUse"
       cy="64"
       cx="64"
       gradientTransform="matrix(4.1658 0 0 3.8875 49.28 -97.978)"
       r="64" />
    <radialGradient
       id="radialGradient26875-4"
       xlink:href="#linearGradient4216-1"
       gradientUnits="userSpaceOnUse"
       cy="64"
       cx="64"
       gradientTransform="matrix(4.1658 0 0 3.8875 1472.7 -213.38)"
       r="64" />
    <filter
       id="filter3174-6"
       color-interpolation-filters="sRGB">
      <feGaussianBlur
         id="feGaussianBlur3176-8"
         stdDeviation="1.71" />
    </filter>
    <filter
       id="filter3174-5-3"
       color-interpolation-filters="sRGB">
      <feGaussianBlur
         id="feGaussianBlur3176-2-9"
         stdDeviation="1.71" />
    </filter>
    <filter
       id="filter3174-3-2"
       color-interpolation-filters="sRGB">
      <feGaussianBlur
         id="feGaussianBlur3176-9-9"
         stdDeviation="1.71" />
    </filter>
    <radialGradient
       id="radialGradient26869-3"
       cx="64"
       xlink:href="#linearGradient4216-1"
       gradientUnits="userSpaceOnUse"
       cy="64"
       r="64"
       gradientTransform="matrix(4.1658 0 0 3.8875 85.198 -107.65)" />
    <radialGradient
       id="radialGradient26875-7"
       cx="64"
       xlink:href="#linearGradient4216-1"
       gradientUnits="userSpaceOnUse"
       cy="64"
       r="64"
       gradientTransform="matrix(4.1658 0 0 3.8875 1508.6 -223.05)" />
    <radialGradient
       id="radialGradient21305-0-3"
       cx="64"
       xlink:href="#linearGradient4216-1"
       gradientUnits="userSpaceOnUse"
       cy="64"
       r="64"
       gradientTransform="matrix(4.1658 0 0 3.8875 1443.1 -258.29)" />
    <radialGradient
       id="radialGradient21305-6-1"
       xlink:href="#linearGradient4216-1"
       gradientUnits="userSpaceOnUse"
       cy="64"
       cx="64"
       gradientTransform="matrix(4.1658 0 0 3.8875 19.688 -142.89)"
       r="64" />
    <filter
       id="filter3174-5-0"
       color-interpolation-filters="sRGB">
      <feGaussianBlur
         id="feGaussianBlur3176-2-3"
         stdDeviation="1.71" />
    </filter>
    <filter
       id="filter3174-39"
       color-interpolation-filters="sRGB">
      <feGaussianBlur
         id="feGaussianBlur3176-1"
         stdDeviation="1.71" />
    </filter>
    <style
       id="style5970"
       type="text/css" />
  </defs>
  <path
     id="path4230"
     d="m273.04 165.47c-2.1202 7.3447-36.402 181.33-29.267 189.98 6.1765 7.4828 15.826 4.2405 17.946-3.1042-2.1202 7.3447-6.3607 22.034-8.4809 29.379-17.946 3.1042-33.92-0.81668-37.444-17.946-4.0713-19.793 27.134-182.59 29.267-189.98-4.7411-8.958-29.531-15.826-33.772-1.1362l-7.9128-2.1202c18.514-34.603 53.838-9.3127 69.663-5.0722z"
     display="none" />
  <path
     id="path4232"
     d="m250.86 183.26c-26.427 32.483-124.22 164.54-147.96 158.17l-15.826-4.2405 12.153-12.569 7.9128 2.1202c15.826 4.2405 123.65-133.04 140.05-160.3 12.573-20.906 3.6724 16.81 3.6724 16.81z"
     display="none" />
  <path
     id="path4234"
     d="m187.97 253.45 47.477 12.721-4.2405 14.689-55.39-14.842z"
     display="none" />
  <ellipse
     id="path3281-0-0"
     rx="266.61"
     ry="248.8"
     transform="matrix(.96593 .25882 -.27735 .96077 0 0)"
     cy="174.85"
     cx="226.69"
     display="none"
     fill="url(#radialGradient21305)" />
  <path
     id="path4230-0"
     d="m273.04 165.47c-2.1202 7.3447-36.402 181.33-29.267 189.98 6.1765 7.4828 15.826 4.2405 17.946-3.1042-2.1202 7.3447-6.3607 22.034-8.4809 29.379-17.946 3.1042-33.92-0.81668-37.444-17.946-4.0713-19.793 27.134-182.59 29.267-189.98-4.7411-8.958-29.531-15.826-33.772-1.1362l-7.9128-2.1202c18.514-34.603 53.838-9.3127 69.663-5.0722z"
     display="none" />
  <path
     id="path4232-1"
     d="m250.86 183.26c-26.427 32.483-124.22 164.54-147.96 158.17l-15.826-4.2405 12.153-12.569 7.9128 2.1202c15.826 4.2405 123.65-133.04 140.05-160.3 12.573-20.906 3.6724 16.81 3.6724 16.81z"
     display="none" />
  <path
     id="path4234-6"
     d="m187.97 253.45 47.477 12.721-4.2405 14.689-55.39-14.842z"
     display="none" />
  <ellipse
     id="path3281-0-0-1"
     rx="266.61"
     transform="matrix(.96593 .25882 -.27735 .96077 0 0)"
     ry="248.8"
     cy="174.85"
     cx="226.69"
     display="none"
     fill="url(#radialGradient21305)" />
  <path
     id="path4230-8"
     d="m1680 423c-2.1203 7.3447-36.402 181.33-29.267 189.98 6.1765 7.4828 15.826 4.2405 17.946-3.1042-2.1203 7.3447-6.3607 22.034-8.481 29.379-17.946 3.1042-33.92-0.81668-37.444-17.946-4.0713-19.793 27.134-182.59 29.267-189.98-4.7412-8.958-29.531-15.826-33.772-1.1362l-7.9128-2.1202c18.514-34.603 53.838-9.3127 69.663-5.0722z"
     display="none" />
  <path
     id="path4232-9"
     d="m1657.8 440.8c-26.427 32.483-124.22 164.54-147.96 158.17l-15.826-4.2405 12.153-12.569 7.9128 2.1202c15.826 4.2405 123.65-133.04 140.05-160.3 12.573-20.906 3.6723 16.81 3.6723 16.81z"
     display="none" />
  <path
     id="path4234-5"
     d="m1594.9 510.99 47.477 12.721-4.2405 14.689-55.39-14.842z"
     display="none" />
  <ellipse
     id="path3281-0-0-6"
     rx="266.61"
     ry="248.8"
     transform="matrix(.96593 .25882 -.27735 .96077 0 0)"
     cy="59.452"
     cx="1650.1"
     display="none"
     fill="url(#radialGradient21305-0)" />
  <g
     id="layer2"
     display="none"
     transform="matrix(6.7274 0 0 6.7274 -2789.7 -809.34)">
    <rect
       id="rect3745"
       opacity=".9"
       rx="6"
       ry="6"
       height="85"
       filter="url(#filter3174)"
       width="86"
       y="7"
       x="5"
       fill="url(#ButtonShadow)" />
  </g>
  <g
     id="layer2-8"
     display="none"
     transform="matrix(6.7274 0 0 6.7274 -2077.1 -889.77)">
    <rect
       id="rect3745-5"
       opacity=".9"
       rx="6"
       ry="6"
       height="85"
       filter="url(#filter3174-2)"
       width="86"
       y="7"
       x="5"
       fill="url(#linearGradient6148)" />
  </g>
  <g
     id="layer2-3"
     display="none"
     transform="matrix(6.7274 0 0 6.7274 -2077.1 -889.77)">
    <rect
       id="rect3745-8"
       opacity=".9"
       rx="6"
       ry="6"
       height="85"
       filter="url(#filter3174-5)"
       width="86"
       y="7"
       x="5"
       fill="url(#linearGradient6148)" />
  </g>
  <path
     id="path3848"
     d="m-785.82-490.39c-31.718 0.73046-61.283 23.617-71.031 53.75-10.408 29.448-0.1539 63.832 23.031 84.219 0.2111 0.18773 0.44298 0.34587 0.65625 0.53125 0.0607 0.0539 0.12666 0.1025 0.1875 0.15625 0.53347 0.4555 1.0471 0.93438 1.5938 1.375 0.0982 0.0801 0.21385 0.13919 0.3125 0.21875 0.0114 0.009 0.0198 0.0222 0.0312 0.0312 0.0924 0.0753 0.18851 0.14387 0.28125 0.21875 0.0114 0.009 0.0198 0.0222 0.0312 0.0312 0.081 0.066 0.16873 0.1218 0.25 0.1875 0.0115 0.009 0.0197 0.0223 0.0312 0.0312 0.0114 0.009 0.0198 0.0222 0.0312 0.0312 0.0682 0.0557 0.11908 0.13204 0.1875 0.1875 0.0806 0.0661 0.16909 0.12176 0.25 0.1875 0.26263 0.21589 0.51553 0.44392 0.78125 0.65625 0.0113 0.009 0.0199 0.0221 0.0312 0.0312v77.719l366.09 366.06h61.812c0.19472-5.1667 0.39905-10.333 0.59375-15.5l15.5-0.5625v-71.125c-0.11718-3.5064-0.66635-7.1765 2.9688-9.0938 17.971-15.566 29.967-38.912 28.375-63.031 0.24347-20.205-8.8362-39.465-23.031-53.562-0.13063-0.13149-0.27474-0.2444-0.40625-0.375l-343.31-342.94c-1.6885-1.8492-3.3938-3.742-5.125-5.5-0.12897-0.13157-0.24515-0.27555-0.375-0.40625-14.005-14.287-33.185-23.492-53.375-23.375-2.1284-0.1527-4.2605-0.20495-6.375-0.15625z"
     fill-opacity=".39216"
     display="none" />
  <path
     id="path11978"
     d="m-725.7-466.45c1.4663 1.516 2.9049 3.0642 4.25 4.6875 1.5801 1.907 3.0707 3.8973 4.4688 5.9375 1.398 2.0402 2.7063 4.1239 3.9062 6.2812 1.1999 2.1574 2.2954 4.3665 3.2812 6.625 0.98586 2.2585 1.8379 4.594 2.5938 6.9375 0.75581 2.3435 1.3964 4.7125 1.9062 7.125s0.90844 4.847 1.1562 7.3125c0.24781 2.4655 0.34265 4.9664 0.3125 7.4688 0.19898 3.0149 0.21091 6.023 0 9s-0.62772 5.932-1.2188 8.8438c-0.59103 2.9118-1.3711 5.7746-2.3125 8.5938-0.94136 2.8192-2.0506 5.582-3.3125 8.2812s-2.666 5.3231-4.2188 7.875c-1.5527 2.5519-3.2488 5.029-5.0625 7.4062s-3.7676 4.6686-5.8125 6.8438-4.1912 4.2418-6.4375 6.1875c-0.90877 0.47931-1.5415 1.0487-2 1.7188-0.45846 0.67003-0.72299 1.4189-0.875 2.2188-0.30402 1.5996-0.15234 3.403-0.0937 5.1562v71.125h-16.094v16.062h-61.812l350 350h61.812c0.19472-5.1667 0.39905-10.333 0.59375-15.5l15.5-0.5625v-71.125c-0.11718-3.5064-0.66635-7.1765 2.9688-9.0938 17.971-15.566 29.967-38.912 28.375-63.031 0.2435-20.205-8.8362-39.465-23.031-53.562-0.13063-0.13149-0.27474-0.2444-0.40625-0.375l-343.31-342.94c-1.6885-1.8492-3.3939-3.742-5.125-5.5zm-87.375 211.69v-16.062h-16.094l16.094 16.062z"
     fill-opacity=".39216"
     display="none" />
  <path
     id="path11980"
     d="m-998.29-281.7 425.16 425.12v-125.12l-300-300z"
     fill-opacity=".39216"
     display="none" />
  <g
     id="layer2-4"
     display="none"
     transform="matrix(6.7274 0 0 6.7274 -2834.4 -809.34)">
    <rect
       id="rect3745-3"
       opacity=".9"
       rx="6"
       ry="6"
       height="85"
       filter="url(#filter3174-3)"
       width="86"
       y="7"
       x="5"
       fill="url(#linearGradient6148)" />
  </g>
  <path
     id="path4230-3"
     d="m369.5 165.47c-2.1202 7.3447-36.402 181.33-29.267 189.98 6.1765 7.4828 15.826 4.2405 17.946-3.1042-2.1202 7.3447-6.3607 22.034-8.4809 29.379-17.946 3.1042-33.92-0.81668-37.444-17.946-4.0713-19.793 27.134-182.59 29.267-189.98-4.7411-8.958-29.531-15.826-33.772-1.1362l-7.9128-2.1202c18.514-34.603 53.838-9.3127 69.663-5.0722z"
     display="none" />
  <path
     id="path4232-8"
     d="m347.31 183.26c-26.427 32.483-124.22 164.54-147.96 158.17l-15.826-4.2405 12.153-12.569 7.9128 2.1202c15.826 4.2405 123.65-133.04 140.05-160.3 12.573-20.906 3.6724 16.81 3.6724 16.81z"
     display="none" />
  <path
     id="path4234-62"
     d="m284.43 253.45 47.477 12.721-4.2405 14.689-55.39-14.842z"
     display="none" />
  <ellipse
     id="path3281-0-0-9"
     rx="266.61"
     ry="248.8"
     transform="matrix(.96593 .25882 -.27735 .96077 0 0)"
     cy="149.88"
     cx="319.38"
     display="none"
     fill="url(#radialGradient26869)" />
  <path
     id="path4230-0-4"
     d="m369.5 165.47c-2.1202 7.3447-36.402 181.33-29.267 189.98 6.1765 7.4828 15.826 4.2405 17.946-3.1042-2.1202 7.3447-6.3607 22.034-8.4809 29.379-17.946 3.1042-33.92-0.81668-37.444-17.946-4.0713-19.793 27.134-182.59 29.267-189.98-4.7411-8.958-29.531-15.826-33.772-1.1362l-7.9128-2.1202c18.514-34.603 53.838-9.3127 69.663-5.0722z"
     display="none" />
  <path
     id="path4232-1-3"
     d="m347.31 183.26c-26.427 32.483-124.22 164.54-147.96 158.17l-15.826-4.2405 12.153-12.569 7.9128 2.1202c15.826 4.2405 123.65-133.04 140.05-160.3 12.573-20.906 3.6724 16.81 3.6724 16.81z"
     display="none" />
  <path
     id="path4234-6-2"
     d="m284.43 253.45 47.477 12.721-4.2405 14.689-55.39-14.842z"
     display="none" />
  <ellipse
     id="path3281-0-0-1-8"
     rx="266.61"
     transform="matrix(.96593 .25882 -.27735 .96077 0 0)"
     ry="248.8"
     cy="149.88"
     cx="319.38"
     display="none"
     fill="url(#radialGradient26869)" />
  <path
     id="path4230-8-5"
     d="m1776.4 423c-2.1203 7.3447-36.402 181.33-29.267 189.98 6.1765 7.4828 15.826 4.2405 17.946-3.1042-2.1203 7.3447-6.3607 22.034-8.481 29.379-17.946 3.1042-33.92-0.81668-37.444-17.946-4.0713-19.793 27.134-182.59 29.267-189.98-4.7412-8.958-29.531-15.826-33.772-1.1362l-7.9128-2.1202c18.514-34.603 53.838-9.3127 69.663-5.0722z"
     display="none" />
  <path
     id="path4232-9-3"
     d="m1754.2 440.8c-26.427 32.483-124.22 164.54-147.96 158.17l-15.826-4.2405 12.153-12.569 7.9128 2.1202c15.826 4.2405 123.65-133.04 140.05-160.3 12.573-20.906 3.6723 16.81 3.6723 16.81z"
     display="none" />
  <path
     id="path4234-5-3"
     d="m1691.4 510.99 47.477 12.721-4.2405 14.689-55.39-14.842z"
     display="none" />
  <ellipse
     id="path3281-0-0-6-9"
     rx="266.61"
     ry="248.8"
     transform="matrix(.96593 .25882 -.27735 .96077 0 0)"
     cy="34.482"
     cx="1742.8"
     display="none"
     fill="url(#radialGradient26875)" />
  <g
     id="layer2-5"
     display="none"
     transform="matrix(6.7274 0 0 6.7274 -2080.7 -889.77)">
    <rect
       id="rect3745-6"
       opacity=".9"
       rx="6"
       ry="6"
       height="85"
       filter="url(#filter3174-38)"
       width="86"
       y="7"
       x="5"
       fill="url(#linearGradient6148)" />
  </g>
  <g
     id="layer2-3-5"
     display="none"
     transform="matrix(6.7274 0 0 6.7274 -2080.7 -889.77)">
    <rect
       id="rect3745-8-5"
       opacity=".9"
       rx="6"
       ry="6"
       height="85"
       filter="url(#filter3174-5-6)"
       width="86"
       y="7"
       x="5"
       fill="url(#linearGradient6148)" />
  </g>
  <path
     id="path3848-3"
     d="m-789.45-490.39c-31.718 0.73046-61.283 23.617-71.031 53.75-10.408 29.448-0.1539 63.832 23.031 84.219 0.2111 0.18773 0.44298 0.34587 0.65625 0.53125 0.0607 0.0539 0.12666 0.1025 0.1875 0.15625 0.53347 0.4555 1.0471 0.93438 1.5938 1.375 0.0982 0.0801 0.21385 0.13919 0.3125 0.21875 0.0114 0.009 0.0198 0.0222 0.0312 0.0312 0.0924 0.0753 0.18851 0.14387 0.28125 0.21875 0.0114 0.009 0.0198 0.0222 0.0312 0.0312 0.081 0.066 0.16873 0.1218 0.25 0.1875 0.0115 0.009 0.0197 0.0223 0.0312 0.0312 0.0114 0.009 0.0198 0.0222 0.0312 0.0312 0.0682 0.0557 0.11908 0.13204 0.1875 0.1875 0.0806 0.0661 0.16909 0.12176 0.25 0.1875 0.26263 0.21589 0.51553 0.44392 0.78125 0.65625 0.0113 0.009 0.0199 0.0221 0.0312 0.0312v77.719l366.09 366.06h61.812c0.19472-5.1667 0.39905-10.333 0.59375-15.5l15.5-0.5625v-71.125c-0.11718-3.5064-0.66635-7.1765 2.9688-9.0938 17.971-15.566 29.967-38.912 28.375-63.031 0.24347-20.205-8.8362-39.465-23.031-53.562-0.13063-0.13149-0.27474-0.2444-0.40625-0.375l-343.31-342.94c-1.6885-1.8492-3.3938-3.742-5.125-5.5-0.12897-0.13157-0.24515-0.27555-0.375-0.40625-14.005-14.287-33.185-23.492-53.375-23.375-2.1284-0.1527-4.2605-0.20495-6.375-0.15625z"
     fill-opacity=".39216"
     display="none" />
  <path
     id="path11978-0"
     d="m-729.32-466.45c1.4663 1.516 2.9049 3.0642 4.25 4.6875 1.5801 1.907 3.0707 3.8973 4.4688 5.9375 1.398 2.0402 2.7063 4.1239 3.9062 6.2812 1.1999 2.1574 2.2954 4.3665 3.2812 6.625 0.98586 2.2585 1.8379 4.594 2.5938 6.9375 0.75581 2.3435 1.3964 4.7125 1.9062 7.125s0.90844 4.847 1.1562 7.3125c0.24781 2.4655 0.34265 4.9664 0.3125 7.4688 0.19898 3.0149 0.21091 6.023 0 9s-0.62772 5.932-1.2188 8.8438c-0.59103 2.9118-1.3711 5.7746-2.3125 8.5938-0.94136 2.8192-2.0506 5.582-3.3125 8.2812s-2.666 5.3231-4.2188 7.875c-1.5527 2.5519-3.2488 5.029-5.0625 7.4062s-3.7676 4.6686-5.8125 6.8438-4.1912 4.2418-6.4375 6.1875c-0.90877 0.47931-1.5415 1.0487-2 1.7188-0.45846 0.67003-0.72299 1.4189-0.875 2.2188-0.30402 1.5996-0.15234 3.403-0.0937 5.1562v71.125h-16.094v16.062h-61.812l350 350h61.812c0.19472-5.1667 0.39905-10.333 0.59375-15.5l15.5-0.5625v-71.125c-0.11718-3.5064-0.66635-7.1765 2.9688-9.0938 17.971-15.566 29.967-38.912 28.375-63.031 0.2435-20.205-8.8362-39.465-23.031-53.562-0.13063-0.13149-0.27474-0.2444-0.40625-0.375l-343.31-342.94c-1.6885-1.8492-3.3939-3.742-5.125-5.5zm-87.375 211.69v-16.062h-16.094l16.094 16.062z"
     fill-opacity=".39216"
     display="none" />
  <path
     id="path11980-6"
     d="m-1001.9-281.7 425.16 425.12v-125.12l-300-300z"
     fill-opacity=".39216"
     display="none" />
  <g
     id="layer2-4-0"
     display="none"
     transform="matrix(6.7274 0 0 6.7274 -2838 -809.34)">
    <rect
       id="rect3745-3-5"
       opacity=".9"
       rx="6"
       ry="6"
       height="85"
       filter="url(#filter3174-3-3)"
       width="86"
       y="7"
       x="5"
       fill="url(#linearGradient6148)" />
  </g>
  <path
     id="path4230-5"
     d="m365.87 165.47c-2.1202 7.3447-36.402 181.33-29.267 189.98 6.1765 7.4828 15.826 4.2405 17.946-3.1042-2.1202 7.3447-6.3607 22.034-8.4809 29.379-17.946 3.1042-33.92-0.81668-37.444-17.946-4.0713-19.793 27.134-182.59 29.267-189.98-4.7411-8.958-29.531-15.826-33.772-1.1362l-7.9128-2.1202c18.514-34.603 53.838-9.3127 69.663-5.0722z"
     display="none" />
  <path
     id="path4232-6"
     d="m343.69 183.26c-26.427 32.483-124.22 164.54-147.96 158.17l-15.826-4.2405 12.153-12.569 7.9128 2.1202c15.826 4.2405 123.65-133.04 140.05-160.3 12.573-20.906 3.6724 16.81 3.6724 16.81z"
     display="none" />
  <path
     id="path4234-8"
     d="m280.8 253.45 47.477 12.721-4.2405 14.689-55.39-14.842z"
     display="none" />
  <ellipse
     id="path3281-0-0-7"
     rx="266.61"
     transform="matrix(.96593 .25882 -.27735 .96077 0 0)"
     ry="248.8"
     cy="150.82"
     cx="315.89"
     display="none"
     fill="url(#radialGradient26869-2)" />
  <path
     id="path4230-0-7"
     d="m365.87 165.47c-2.1202 7.3447-36.402 181.33-29.267 189.98 6.1765 7.4828 15.826 4.2405 17.946-3.1042-2.1202 7.3447-6.3607 22.034-8.4809 29.379-17.946 3.1042-33.92-0.81668-37.444-17.946-4.0713-19.793 27.134-182.59 29.267-189.98-4.7411-8.958-29.531-15.826-33.772-1.1362l-7.9128-2.1202c18.514-34.603 53.838-9.3127 69.663-5.0722z"
     display="none" />
  <path
     id="path4232-1-5"
     d="m343.69 183.26c-26.427 32.483-124.22 164.54-147.96 158.17l-15.826-4.2405 12.153-12.569 7.9128 2.1202c15.826 4.2405 123.65-133.04 140.05-160.3 12.573-20.906 3.6724 16.81 3.6724 16.81z"
     display="none" />
  <path
     id="path4234-6-1"
     d="m280.8 253.45 47.477 12.721-4.2405 14.689-55.39-14.842z"
     display="none" />
  <ellipse
     id="path3281-0-0-1-0"
     rx="266.61"
     transform="matrix(.96593 .25882 -.27735 .96077 0 0)"
     ry="248.8"
     cy="150.82"
     cx="315.89"
     display="none"
     fill="url(#radialGradient26869-2)" />
  <path
     id="path4230-8-7"
     d="m1772.8 423c-2.1203 7.3447-36.402 181.33-29.267 189.98 6.1765 7.4828 15.826 4.2405 17.946-3.1042-2.1203 7.3447-6.3607 22.034-8.481 29.379-17.946 3.1042-33.92-0.81668-37.444-17.946-4.0713-19.793 27.134-182.59 29.267-189.98-4.7412-8.958-29.531-15.826-33.772-1.1362l-7.9128-2.1202c18.514-34.603 53.838-9.3127 69.663-5.0722z"
     display="none" />
  <path
     id="path4232-9-4"
     d="m1750.6 440.8c-26.427 32.483-124.22 164.54-147.96 158.17l-15.826-4.2405 12.153-12.569 7.9128 2.1202c15.826 4.2405 123.65-133.04 140.05-160.3 12.573-20.906 3.6723 16.81 3.6723 16.81z"
     display="none" />
  <path
     id="path4234-5-0"
     d="m1687.7 510.99 47.477 12.721-4.2405 14.689-55.39-14.842z"
     display="none" />
  <ellipse
     id="path3281-0-0-6-1"
     rx="266.61"
     transform="matrix(.96593 .25882 -.27735 .96077 0 0)"
     ry="248.8"
     cy="35.421"
     cx="1739.3"
     display="none"
     fill="url(#radialGradient26875-4)" />
  <g
     id="layer2-0"
     display="none"
     transform="matrix(6.7274 0 0 6.7274 -2043.3 -889.77)">
    <rect
       id="rect3745-50"
       opacity=".9"
       rx="6"
       ry="6"
       height="85"
       filter="url(#filter3174-6)"
       width="86"
       y="7"
       x="5"
       fill="url(#linearGradient6148)" />
  </g>
  <g
     id="layer2-3-0"
     display="none"
     transform="matrix(6.7274 0 0 6.7274 -2043.3 -889.77)">
    <rect
       id="rect3745-8-1"
       opacity=".9"
       rx="6"
       ry="6"
       height="85"
       filter="url(#filter3174-5-3)"
       width="86"
       y="7"
       x="5"
       fill="url(#linearGradient6148)" />
  </g>
  <path
     id="path3848-0"
     d="m-752.07-490.39c-31.718 0.73046-61.283 23.617-71.031 53.75-10.408 29.448-0.1539 63.832 23.031 84.219 0.2111 0.18773 0.44298 0.34587 0.65625 0.53125 0.0607 0.0539 0.12666 0.1025 0.1875 0.15625 0.53347 0.4555 1.0471 0.93438 1.5938 1.375 0.0982 0.0801 0.21385 0.13919 0.3125 0.21875 0.0114 0.009 0.0198 0.0222 0.0312 0.0312 0.0924 0.0753 0.18851 0.14387 0.28125 0.21875 0.0114 0.009 0.0198 0.0222 0.0312 0.0312 0.081 0.066 0.16873 0.1218 0.25 0.1875 0.0115 0.009 0.0197 0.0223 0.0312 0.0312 0.0114 0.009 0.0198 0.0222 0.0312 0.0312 0.0682 0.0557 0.11908 0.13204 0.1875 0.1875 0.0806 0.0661 0.16909 0.12176 0.25 0.1875 0.26263 0.21589 0.51553 0.44392 0.78125 0.65625 0.0113 0.009 0.0199 0.0221 0.0312 0.0312v77.719l366.09 366.06h61.812c0.19472-5.1667 0.39905-10.333 0.59375-15.5l15.5-0.5625v-71.125c-0.11718-3.5064-0.66635-7.1765 2.9688-9.0938 17.971-15.566 29.967-38.912 28.375-63.031 0.24347-20.205-8.8362-39.465-23.031-53.562-0.13063-0.13149-0.27474-0.2444-0.40625-0.375l-343.3-342.95c-1.6885-1.8492-3.3938-3.742-5.125-5.5-0.12897-0.13157-0.24515-0.27555-0.375-0.40625-14.005-14.287-33.185-23.492-53.375-23.375-2.1284-0.1527-4.2605-0.20495-6.375-0.15625z"
     fill-opacity=".39216"
     display="none" />
  <path
     id="path11978-7"
     d="m-691.95-466.45c1.4663 1.516 2.9049 3.0642 4.25 4.6875 1.5801 1.907 3.0707 3.8973 4.4688 5.9375 1.398 2.0402 2.7063 4.1239 3.9062 6.2812 1.1999 2.1574 2.2954 4.3665 3.2812 6.625 0.98586 2.2585 1.8379 4.594 2.5938 6.9375 0.75581 2.3435 1.3964 4.7125 1.9062 7.125s0.90844 4.847 1.1562 7.3125c0.24781 2.4655 0.34265 4.9664 0.3125 7.4688 0.19898 3.0149 0.21091 6.023 0 9s-0.62772 5.932-1.2188 8.8438c-0.59103 2.9118-1.3711 5.7746-2.3125 8.5938-0.94136 2.8192-2.0506 5.582-3.3125 8.2812s-2.666 5.3231-4.2188 7.875c-1.5527 2.5519-3.2488 5.029-5.0625 7.4062s-3.7676 4.6686-5.8125 6.8438-4.1912 4.2418-6.4375 6.1875c-0.90877 0.47931-1.5415 1.0487-2 1.7188-0.45846 0.67003-0.72299 1.4189-0.875 2.2188-0.30402 1.5996-0.15234 3.403-0.0937 5.1562v71.125h-16.094v16.062h-61.812l350 350h61.812c0.19472-5.1667 0.39905-10.333 0.59375-15.5l15.5-0.5625v-71.125c-0.11718-3.5064-0.66635-7.1765 2.9688-9.0938 17.971-15.566 29.967-38.912 28.375-63.031 0.2435-20.205-8.8362-39.465-23.031-53.562-0.13063-0.13149-0.27474-0.2444-0.40625-0.375l-343.31-342.94c-1.6885-1.8492-3.3939-3.742-5.125-5.5zm-87.375 211.69v-16.062h-16.094l16.094 16.062z"
     fill-opacity=".39216"
     display="none" />
  <path
     id="path11980-69"
     d="m-964.54-281.7 425.16 425.12v-125.12l-300-300z"
     fill-opacity=".39216"
     display="none" />
  <g
     id="layer2-4-5"
     display="none"
     transform="matrix(6.7274 0 0 6.7274 -2800.6 -809.34)">
    <rect
       id="rect3745-3-6"
       opacity=".9"
       rx="6"
       ry="6"
       height="85"
       filter="url(#filter3174-3-2)"
       width="86"
       y="7"
       x="5"
       fill="url(#linearGradient6148)" />
  </g>
  <path
     id="path4230-6"
     d="m403.25 165.47c-2.1202 7.3447-36.402 181.33-29.267 189.98 6.1765 7.4828 15.826 4.2405 17.946-3.1042-2.1202 7.3447-6.3607 22.034-8.4809 29.379-17.946 3.1042-33.92-0.81668-37.444-17.946-4.0713-19.793 27.134-182.59 29.267-189.98-4.7411-8.958-29.531-15.826-33.772-1.1362l-7.9128-2.1202c18.514-34.603 53.838-9.3127 69.663-5.0722z"
     display="none" />
  <path
     id="path4232-3"
     d="m381.06 183.26c-26.427 32.483-124.22 164.54-147.96 158.17l-15.826-4.2405 12.153-12.569 7.9128 2.1202c15.826 4.2405 123.65-133.04 140.05-160.3 12.573-20.906 3.6724 16.81 3.6724 16.81z"
     display="none" />
  <path
     id="path4234-7"
     d="m318.18 253.45 47.477 12.721-4.2405 14.689-55.39-14.842z"
     display="none" />
  <ellipse
     id="path3281-0-0-60"
     rx="266.61"
     ry="248.8"
     transform="matrix(.96593 .25882 -.27735 .96077 0 0)"
     cy="141.15"
     cx="351.81"
     display="none"
     fill="url(#radialGradient26869-3)" />
  <path
     id="path4230-0-3"
     d="m403.25 165.47c-2.1202 7.3447-36.402 181.33-29.267 189.98 6.1765 7.4828 15.826 4.2405 17.946-3.1042-2.1202 7.3447-6.3607 22.034-8.4809 29.379-17.946 3.1042-33.92-0.81668-37.444-17.946-4.0713-19.793 27.134-182.59 29.267-189.98-4.7411-8.958-29.531-15.826-33.772-1.1362l-7.9128-2.1202c18.514-34.603 53.838-9.3127 69.663-5.0722z"
     display="none" />
  <path
     id="path4232-1-8"
     d="m381.06 183.26c-26.427 32.483-124.22 164.54-147.96 158.17l-15.826-4.2405 12.153-12.569 7.9128 2.1202c15.826 4.2405 123.65-133.04 140.05-160.3 12.573-20.906 3.6724 16.81 3.6724 16.81z"
     display="none" />
  <path
     id="path4234-6-3"
     d="m318.18 253.45 47.477 12.721-4.2405 14.689-55.39-14.842z"
     display="none" />
  <ellipse
     id="path3281-0-0-1-3"
     rx="266.61"
     transform="matrix(.96593 .25882 -.27735 .96077 0 0)"
     ry="248.8"
     cy="141.15"
     cx="351.81"
     display="none"
     fill="url(#radialGradient26869-3)" />
  <path
     id="path4230-8-1"
     d="m1810.2 423c-2.1203 7.3447-36.402 181.33-29.268 189.98 6.1765 7.4828 15.826 4.2405 17.946-3.1042-2.1203 7.3447-6.3608 22.034-8.4811 29.379-17.946 3.1042-33.92-0.81668-37.444-17.946-4.0713-19.793 27.134-182.59 29.268-189.98-4.7412-8.958-29.531-15.826-33.772-1.1362l-7.9128-2.1202c18.514-34.603 53.838-9.3127 69.663-5.0722z"
     display="none" />
  <path
     id="path4232-9-5"
     d="m1788 440.8c-26.427 32.483-124.22 164.54-147.96 158.17l-15.826-4.2405 12.153-12.569 7.9129 2.1202c15.826 4.2405 123.65-133.04 140.05-160.3 12.574-20.906 3.6724 16.81 3.6724 16.81z"
     display="none" />
  <path
     id="path4234-5-1"
     d="m1725.1 510.99 47.477 12.721-4.2405 14.689-55.39-14.842z"
     display="none" />
  <ellipse
     id="path3281-0-0-6-99"
     rx="266.61"
     ry="248.8"
     transform="matrix(.96593 .25882 -.27735 .96077 0 0)"
     cy="25.745"
     cx="1775.2"
     display="none"
     fill="url(#radialGradient26875-7)" />
  <path
     id="path4230-4"
     d="m349.75 114.66c-2.1202 7.3447-36.402 181.33-29.267 189.98 6.1765 7.4828 15.826 4.2405 17.946-3.1042-2.1202 7.3447-6.3607 22.034-8.4809 29.379-17.946 3.1042-33.92-0.81668-37.444-17.946-4.0713-19.793 27.134-182.59 29.267-189.98-4.7411-8.958-29.531-15.826-33.772-1.1362l-7.9128-2.1202c18.514-34.603 53.838-9.3127 69.663-5.0722z"
     display="none" />
  <path
     id="path4232-19"
     d="m327.56 132.45c-26.427 32.483-124.22 164.54-147.96 158.17l-15.826-4.2405 12.153-12.569 7.9128 2.1202c15.826 4.2405 123.65-133.04 140.05-160.3 12.573-20.906 3.6724 16.81 3.6724 16.81z"
     display="none" />
  <path
     id="path4234-56"
     d="m264.67 202.64 47.477 12.721-4.2405 14.689-55.39-14.842z"
     display="none" />
  <ellipse
     id="path3281-0-0-16"
     rx="266.61"
     transform="matrix(.96593 .25882 -.27735 .96077 0 0)"
     ry="248.8"
     cy="105.91"
     cx="286.3"
     display="none"
     fill="url(#radialGradient21305-6-1)" />
  <path
     id="path4230-0-5"
     d="m349.75 114.66c-2.1202 7.3447-36.402 181.33-29.267 189.98 6.1765 7.4828 15.826 4.2405 17.946-3.1042-2.1202 7.3447-6.3607 22.034-8.4809 29.379-17.946 3.1042-33.92-0.81668-37.444-17.946-4.0713-19.793 27.134-182.59 29.267-189.98-4.7411-8.958-29.531-15.826-33.772-1.1362l-7.9128-2.1202c18.514-34.603 53.838-9.3127 69.663-5.0722z"
     display="none" />
  <path
     id="path4232-1-1"
     d="m327.56 132.45c-26.427 32.483-124.22 164.54-147.96 158.17l-15.826-4.2405 12.153-12.569 7.9128 2.1202c15.826 4.2405 123.65-133.04 140.05-160.3 12.573-20.906 3.6724 16.81 3.6724 16.81z"
     display="none" />
  <path
     id="path4234-6-7"
     d="m264.67 202.64 47.477 12.721-4.2405 14.689-55.39-14.842z"
     display="none" />
  <ellipse
     id="path3281-0-0-1-5"
     rx="266.61"
     transform="matrix(.96593 .25882 -.27735 .96077 0 0)"
     ry="248.8"
     cy="105.91"
     cx="286.3"
     display="none"
     fill="url(#radialGradient21305-6-1)" />
  <path
     id="path4230-8-70"
     d="m1756.7 372.19c-2.1203 7.3447-36.402 181.33-29.268 189.98 6.1765 7.4828 15.826 4.2405 17.946-3.1042-2.1203 7.3447-6.3608 22.034-8.4811 29.379-17.946 3.1042-33.92-0.81668-37.444-17.946-4.0713-19.793 27.134-182.59 29.268-189.98-4.7412-8.958-29.531-15.826-33.772-1.1362l-7.9129-2.1202c18.514-34.603 53.838-9.3127 69.663-5.0722z"
     display="none" />
  <path
     id="path4232-9-2"
     d="m1734.5 389.98c-26.427 32.483-124.22 164.54-147.96 158.17l-15.826-4.2405 12.153-12.569 7.9128 2.1202c15.826 4.2405 123.65-133.04 140.05-160.3 12.574-20.906 3.6724 16.81 3.6724 16.81z"
     display="none" />
  <path
     id="path4234-5-2"
     d="m1671.6 460.17 47.477 12.721-4.2404 14.689-55.39-14.842z"
     display="none" />
  <ellipse
     id="path3281-0-0-6-6"
     rx="266.61"
     transform="matrix(.96593 .25882 -.27735 .96077 0 0)"
     ry="248.8"
     cy="-9.4945"
     cx="1709.7"
     display="none"
     fill="url(#radialGradient21305-0-3)" />
  <g
     id="layer2-2"
     display="none"
     transform="matrix(6.7274 0 0 6.7274 -2854.1 -860.15)">
    <rect
       id="rect3745-85"
       opacity=".9"
       rx="6"
       ry="6"
       height="85"
       filter="url(#filter3174-39)"
       width="86"
       y="7"
       x="5"
       fill="url(#linearGradient6148)" />
  </g>
  <g
     id="layer2-3-2"
     display="none"
     transform="matrix(6.7274 0 0 6.7274 -2854.1 -860.15)">
    <rect
       id="rect3745-8-4"
       opacity=".9"
       rx="6"
       ry="6"
       height="85"
       filter="url(#filter3174-5-0)"
       width="86"
       y="7"
       x="5"
       fill="url(#linearGradient6148)" />
  </g>
  <g
     id="g3494"
     transform="translate(326.30986,-353.35211)">
    <path
       d="m -300.30986,353.35211 c -14.397,0 -26,11.603 -26,26 l 0,460 c 0,14.397 11.603,26 26,26 l 460,0 c 14.397,0 26,-11.603 26,-26 l 0,-460 c 0,-14.397 -11.6,-26 -26,-26 l -460,0 z"
       id="rect2986"
       style="fill:#23c674"
       inkscape:connector-curvature="0" />
    <path
       d="m -65.759859,394.35211 c -28.732,3.4e-4 -56.497001,5.4333 -83.312001,16.287 -26.66,10.855 -50.04,26.17 -70.15,45.963 -20.114,19.95 -35.601,43.1 -46.455,69.44 -10.854,26.33 -16.287,54.04 -16.287,83.09 -3e-5,30.168 5.325,58.403 16.02,84.74 10.373,25.391 25.357,47.871 44.893,67.406 l 104.08,104.07 276.66,0 c 14.397,0 26,-11.603 26,-26 l 0,-287.35 -98.290999,-98.291 c -16.08,-16.08 -34.65,-29.01 -55.7,-38.788 -29.2100002,-13.727 -61.7,-20.572 -97.46,-20.572 z"
       id="path140507"
       style="opacity:0.25"
       inkscape:connector-curvature="0" />
    <path
       d="m -65.759859,394.35211 c -28.732,3.4e-4 -56.498001,5.4341 -83.314001,16.288 -26.657,10.854 -50.037,26.17 -70.149,45.963 -20.112,19.953 -35.6,43.098 -46.454,69.435 -10.854,26.337 -16.288,54.04 -16.288,83.09 -3e-5,30.168 5.3256,58.404 16.02,84.742 10.694,26.178 26.29,49.26 46.722,69.212 20.431,19.952 43.704,35.097 69.882,45.472 26.177,10.535 54.051001,15.797 83.581001,15.797 24.262,-9e-5 48.113,-4.15 71.5769998,-12.45 23.6230002,-8.1407 45.4220002,-19.949 65.3750002,-35.432 l -25.614,-38.779 c -14.206,12.77 -31.385,22.887 -51.4960002,30.389 -20.1119998,7.5021 -40.2199998,11.245 -60.3319998,11.245 -23.464,-3e-5 -45.561001,-4.15 -66.312001,-12.45 -20.591,-8.1406 -38.881,-20.012 -54.843,-35.655 -16.122,-15.962 -28.463,-34.316 -37.083,-55.066 -8.4599,-20.91 -12.718,-43.242 -12.718,-67.026 -8e-5,-28.891 6.5458,-55.716 19.635,-80.458 13.248,-24.9 31.71,-45.18 55.334,-60.823 14.366,-9.4173 29.98,-16.542 46.9,-21.33 16.919001,-4.9479 34.631001,-7.4073 53.148001,-7.4076 26.497,3e-4 51.098,5.2624 73.764,15.797 22.825,10.535 41.821,25.553 56.985,45.026 9.4172,11.652 16.433,24.509 21.063,38.555 4.6286,13.887 6.961,28.796 6.9614,44.758 -4.1e-4,25.06 -5.6693,45.639 -17.002,61.76 -11.333,15.962 -26.885,25.482 -46.677,28.515 l 0,-165.91 -50.068,0 0,31.371 c -4.7889,-11.333 -12.51,-20.211 -23.205,-26.596 -10.535,-6.3846 -22.922,-9.594 -37.127,-9.5942 -27.295001,2.4e-4 -49.564001,9.9907 -66.803001,29.943 -17.239,19.953 -25.838,45.901 -25.837,77.825 -1.5e-4,31.924 8.5349,57.872 25.614,77.825 17.239,19.793 39.571,29.675 67.026001,29.675 14.206,2e-5 26.592,-3.1013 37.127,-9.3265 10.694,-6.3847 18.416,-15.263 23.205,-26.596 l 0,36.86 9.3264998,0 c 47.4070002,2e-5 84.1140002,-11.935 110.1299992,-35.878 26.018,-23.943 39.046,-57.549 39.046,-100.81 -4.6e-4,-20.112 -3.1018,-39.279 -9.3265,-57.476 -6.066,-18.356 -15.071,-35.363 -27.042,-51.006 -19.639999,-25.693 -44.069999,-45.33 -73.279999,-58.898 -29.2100002,-13.727 -61.7,-20.572 -97.46,-20.572 z m -3.3468,152.97 c 14.366,2e-4 25.767,5.6691 34.227,17.002 8.6192,11.174 12.941,26.426 12.941,45.74 -2.9e-4,19.474 -4.2584,34.961 -12.718,46.454 -8.4601,11.333 -19.753,17.002 -33.959,17.002 -14.366,7e-5 -25.812,-5.6688 -34.271001,-17.002 -8.3004,-11.333 -12.45,-26.821 -12.45,-46.454 -2e-4,-19.314 4.1498,-34.566 12.45,-45.74 8.459601,-11.333 19.734001,-17.002 33.781001,-17.002 z"
       id="path8801"
       style="fill:#ffffff"
       inkscape:connector-curvature="0" />
  </g>
</svg>
