<?xml version="1.0" encoding="UTF-8" standalone="no"?>
<!-- Created with Inkscape (http://www.inkscape.org/) -->

<svg
   xmlns:dc="http://purl.org/dc/elements/1.1/"
   xmlns:cc="http://creativecommons.org/ns#"
   xmlns:rdf="http://www.w3.org/1999/02/22-rdf-syntax-ns#"
   xmlns:svg="http://www.w3.org/2000/svg"
   xmlns="http://www.w3.org/2000/svg"
   xmlns:sodipodi="http://sodipodi.sourceforge.net/DTD/sodipodi-0.dtd"
   xmlns:inkscape="http://www.inkscape.org/namespaces/inkscape"
   id="svg2"
   height="100%"
   width="100%"
   version="1.1"
   viewBox="0 0 512 512"
   inkscape:version="0.91 r13725"
   sodipodi:docname="mail-notification.svg">
  <defs
     id="defs37" />
  <sodipodi:namedview
     pagecolor="#ffffff"
     bordercolor="#666666"
     borderopacity="1"
     objecttolerance="10"
     gridtolerance="10"
     guidetolerance="10"
     inkscape:pageopacity="0"
     inkscape:pageshadow="2"
     inkscape:window-width="640"
     inkscape:window-height="480"
     id="namedview35"
     showgrid="false"
     inkscape:zoom="0.5546875"
     inkscape:cx="36.056338"
     inkscape:cy="240.67606"
     inkscape:current-layer="svg2" />
  <metadata
     id="metadata70">
    <rdf:RDF>
      <cc:Work
         rdf:about="">
        <dc:format>image/svg+xml</dc:format>
        <dc:type
           rdf:resource="http://purl.org/dc/dcmitype/StillImage" />
      </cc:Work>
    </rdf:RDF>
  </metadata>
  <g
     id="g3386"
     transform="translate(385.80282,-311.88732)">
    <path
       d="m -359.80282,311.87882 c -14.397,0 -26,11.603 -26,26 l 0,460 c 0,14.397 11.603,26 26,26 l 460,0 c 14.397,0 26,-11.603 26,-26 l 0,-460 c 0,-14.397 -11.6,-26 -26,-26 l -460,0"
       id="path4"
       style="fill:#d23638"
       inkscape:connector-curvature="0" />
    <path
       d="m -344.80282,352.87882 0,35.25 26.875,26.875 0,0.063 c 0,14.993 -11.905,27.688 -26.875,27.688 l 0,6.719 26.844,26.844 c 0.009,0.292 0.031,0.582 0.031,0.875 0,14.993 -11.905,26.03 -26.875,26.03 l 0,6.719 26.844,26.844 c 0.009,0.291 0.031,0.582 0.031,0.875 0,15.02 -11.905,26.03 -26.875,26.03 l 0,8.375 26.844,26.844 c -0.419,14.65 -12.144,26.92 -26.844,26.92 l 0,5.906 26.875,26.875 c -0.017,14.98 -11.915,27.69 -26.875,27.69 l 0,6.719 26.844,26.844 c 0.008,0.281 0.031,0.561 0.031,0.844 0,15.02 -11.905,26.938 -26.875,26.938 l 0,35.25 41,41 404,0 c 14.397,0 26,-11.603 26,-26 l 0,-404 -40.999997,-41 -35.31,0 c 0,14.993 -11.801,26.875 -26.813,26.875 -0.304,0 -0.604,-0.022 -0.906,-0.031 l -26.8399999,-26.843 -6.6880001,0 c 0,14.993 -12.763,26.875 -27.75,26.875 l -26.85,-26.875 -5.906,0 c 0,14.993 -11.888,26.875 -26.875,26.875 -0.282,0 -0.563,-0.023 -0.844,-0.031 l -26.830003,-26.844 -6.75,0 c 0,14.993 -11.832,26.875 -26.844,26.875 -0.293,0 -0.584,-0.022 -0.875,-0.031 l -26.85,-26.844 -5.906,0 c 0,14.993 -11.874,26.875 -26.844,26.875 -0.293,0 -0.583,-0.022 -0.875,-0.031 l -26.84,-26.844 -6.719,0 c 0,14.972 -12.721,26.842 -27.688,26.875 l -26.868,-26.875 -35.31,0"
       id="path62"
       style="opacity:0.25"
       inkscape:connector-curvature="0" />
    <path
       d="m -344.80282,352.87882 0,35.26 c 14.97,0 26.869,11.902 26.869,26.92 0,14.993 -11.898,27.697 -26.869,27.697 l 0,6.73 c 14.97,0 26.869,12.679 26.869,27.697 0,14.993 -11.898,26.04 -26.869,26.04 l 0,6.73 c 14.97,0 26.869,12.704 26.869,27.697 0,15.02 -11.898,26.04 -26.869,26.04 l 0,8.387 c 14.97,0 26.869,11.05 26.869,26.04 0,14.993 -11.898,27.697 -26.869,27.697 l 0,5.902 c 14.97,0 26.869,11.898 26.869,26.869 0,14.993 -11.898,27.697 -26.869,27.697 l 0,6.73 c 14.97,0 26.869,12.727 26.869,27.697 0,15.02 -11.898,26.92 -26.869,26.92 l 0,35.26 31.942,0 c 0,-14.993 11.875,-27.749 26.869,-27.749 14.987,0 27.697,12.755 27.697,27.749 l 6.73,0 c 0,-14.993 12.778,-27.749 27.749,-27.749 14.987,0 26.817,12.755 26.817,27.749 l 5.902,0 c 0,-14.993 11.898,-27.749 26.869,-27.749 14.987,0 27.697,12.755 27.697,27.749 l 6.73,0 c 0,-14.993 11.857,-27.749 26.869,-27.749 14.970003,0 27.749003,12.755 27.749003,27.749 l 5.85,0 c 0,-14.993 11.882,-27.749 26.869,-27.749 14.946,0 27.697,12.755 27.697,27.749 l 6.7820001,0 c 0,-14.993 12.71,-27.749 27.6969999,-27.749 14.993,0 26.817,12.755 26.817,27.749 l 38.672,0 0,-31.13 c -14.946,0 -26.869,-11.799 -26.869,-26.817 0,-14.945 11.923,-26.869 26.869,-26.869 l 0,-6.73 c -14.946,0 -26.869,-12.679 -26.869,-27.697 0,-14.993 11.923,-27.749 26.869,-27.749 l 0,-5.85 c -14.946,0 -26.869,-11.927 -26.869,-26.92 0,-14.993 11.923,-26.869 26.869,-26.869 l 0,-7.558 c -14.946,0 -26.869,-11.05 -26.869,-26.04 0,-14.97 11.923,-27.697 26.869,-27.697 l 0,-6.73 c -14.946,0 -26.869,-11.898 -26.869,-26.869 0,-15.02 11.923,-26.869 26.869,-26.869 l 0,-7.558 c -14.946,0 -26.869,-11.923 -26.869,-26.869 0.019,-15.02 11.898,-27.697 26.869,-27.697 l 0,-39.5 -35.31,0 c 0,14.993 -11.805,26.869 -26.817,26.869 -14.9929999,0 -27.7489999,-11.875 -27.7489999,-26.869 l -6.6780001,0 c 0,14.993 -12.762,26.869 -27.749,26.869 -14.97,0 -26.869,-11.875 -26.869,-26.869 l -5.902,0 c 0,14.993 -11.882,26.869 -26.869,26.869 -14.970003,0 -27.697003,-11.875 -27.697003,-26.869 l -6.73,0 c 0,14.993 -11.857,26.869 -26.869,26.869 -14.97,0 -27.697,-11.875 -27.697,-26.869 l -5.902,0 c 0,14.993 -11.898,26.869 -26.869,26.869 -15.01,0 -27.697,-11.875 -27.697,-26.869 l -6.73,0 c 0,14.993 -12.755,26.869 -27.749,26.869 -14.987,0 -26.817,-11.875 -26.817,-26.869 l -35.31,0 m 262.630003,91.99 c 1.406,-0.056 2.866,0.083 4.297,0.466 7.631,2.045 12.14,9.867 10.1,17.498 -0.405,1.513 -1.049,2.9 -1.864,4.142 27.582,11.627 41.955,35.536 34.893,60.36 -5.875,26.8 -9.156,57.855 -2.847,93.81 0.174,0.588 0.438,1.181 0.569,1.76 3.639,16.05 11.389,29.657 21.02,44.26 -4.593,13.04 -11.965,12.965 -18.637,13.874 l -65.390003,-17.343 c -0.086,0.37 -0.16,0.717 -0.259,1.087 -5.03,18.791 -24.384,29.936 -43.18,24.901 -18.791,-5.03 -29.936,-24.332 -24.901,-43.12 0.082,-0.303 0.17,-0.58 0.259,-0.88 l -64.971,-17.239 c -4.094,-3.639 -13.637,-9.953 -9.422,-21.899 21.553,-10.247 31.21,-20.613 42.4,-30.958 26.09,-27.19 32.945,-54.777 43.694,-80.86 8.909,-26.838 29.786,-39.61 60.520003,-34.945 -0.061,-1.422 0.078,-2.901 0.466,-4.349 1.661,-6.2 7.16,-10.319 13.253,-10.561"
       id="path64"
       style="fill:#ffffff"
       inkscape:connector-curvature="0" />
  </g>
</svg>
