<?xml version="1.0" encoding="UTF-8" standalone="no"?>
<svg
   xmlns:dc="http://purl.org/dc/elements/1.1/"
   xmlns:cc="http://creativecommons.org/ns#"
   xmlns:rdf="http://www.w3.org/1999/02/22-rdf-syntax-ns#"
   xmlns:svg="http://www.w3.org/2000/svg"
   xmlns="http://www.w3.org/2000/svg"
   xmlns:sodipodi="http://sodipodi.sourceforge.net/DTD/sodipodi-0.dtd"
   xmlns:inkscape="http://www.inkscape.org/namespaces/inkscape"
   id="svg2"
   height="100%"
   viewBox="0 0 512 512"
   width="100%"
   version="1.1"
   inkscape:version="0.91 r13725"
   sodipodi:docname="mathematica.svg">
  <defs
     id="defs32" />
  <sodipodi:namedview
     pagecolor="#ffffff"
     bordercolor="#666666"
     borderopacity="1"
     objecttolerance="10"
     gridtolerance="10"
     guidetolerance="10"
     inkscape:pageopacity="0"
     inkscape:pageshadow="2"
     inkscape:window-width="640"
     inkscape:window-height="480"
     id="namedview30"
     showgrid="false"
     inkscape:zoom="0.5546875"
     inkscape:cx="36.056338"
     inkscape:cy="240.67606"
     inkscape:current-layer="svg2" />
  <metadata
     id="metadata10">
    <rdf:RDF>
      <cc:Work
         rdf:about="">
        <dc:format>image/svg+xml</dc:format>
        <dc:type
           rdf:resource="http://purl.org/dc/dcmitype/StillImage" />
        <dc:title />
      </cc:Work>
    </rdf:RDF>
  </metadata>
  <g
     id="g3381"
     transform="translate(438.08451,-346.14085)">
    <path
       d="m -412.08451,346.14085 c -14.397,0 -26,11.603 -26,26 l 0,460 c 0,14.397 11.603,26 26,26 l 460.000003,0 c 14.397,0 26,-11.603 26,-26 l 0,-460 c 0,-14.397 -11.6,-26 -26,-26 l -460.000003,0"
       id="path24289"
       style="fill:#b22222"
       inkscape:connector-curvature="0" />
    <path
       d="m -176.19451,387.14085 -0.01,0.023 -0.02,-0.013 0.01,0.017 -47.67,74.653 -85.61,-34.959 9.68,92.589 245.890003,245.89 0,0.01 -245.900003,-245.9 -86.5,15.15 2.472,2.47 60.718,60.82 0.01,0 -73.952,68.03 0.002,0 -0.01,0 86.73,86.73 -3.99,24.78 80.71,80.71 281.550003,0 c 14.4,0 26,-11.6 26,-26 l 0,-281.64 -120.78,-120.78 0,0.008 -0.01,-0.008 -62.760003,23.98 -66.56,-66.56 z"
       id="path24339"
       style="opacity:0.25;fill-rule:evenodd"
       inkscape:connector-curvature="0" />
    <path
       d="m -176.19451,387.14085 -47.688,74.68 -85.61,-34.959 9.677,92.59 -86.5,15.15 63.19,63.29 -73.952,68.03 98.24,15.15 -15.508,96.36 87.48,-44.37 45.805,84.08 45.715,-83.19 81.660003,42.578 -1.973,-90.71 88.56,-10.398 -62.21,-71.802 60.24,-69.02 -85.61,-16.04 7.798,-88.84 -86.590003,33.08 -42.757,-75.65"
       id="path24379"
       style="fill:#ffffff;fill-rule:evenodd"
       inkscape:connector-curvature="0" />
  </g>
</svg>
