<?xml version="1.0" encoding="UTF-8" standalone="no"?>
<svg
   xmlns:dc="http://purl.org/dc/elements/1.1/"
   xmlns:cc="http://creativecommons.org/ns#"
   xmlns:rdf="http://www.w3.org/1999/02/22-rdf-syntax-ns#"
   xmlns:svg="http://www.w3.org/2000/svg"
   xmlns="http://www.w3.org/2000/svg"
   xmlns:sodipodi="http://sodipodi.sourceforge.net/DTD/sodipodi-0.dtd"
   xmlns:inkscape="http://www.inkscape.org/namespaces/inkscape"
   id="svg2"
   height="100%"
   viewBox="0 0 512 512"
   width="100%"
   version="1.1"
   inkscape:version="0.91 r13725"
   sodipodi:docname="mediatomb.svg">
  <defs
     id="defs9" />
  <sodipodi:namedview
     pagecolor="#ffffff"
     bordercolor="#666666"
     borderopacity="1"
     objecttolerance="10"
     gridtolerance="10"
     guidetolerance="10"
     inkscape:pageopacity="0"
     inkscape:pageshadow="2"
     inkscape:window-width="640"
     inkscape:window-height="480"
     id="namedview7"
     showgrid="false"
     inkscape:zoom="0.5546875"
     inkscape:cx="36.056338"
     inkscape:cy="240.67606"
     inkscape:current-layer="svg2" />
  <metadata
     id="metadata10">
    <rdf:RDF>
      <cc:Work
         rdf:about="">
        <dc:format>image/svg+xml</dc:format>
        <dc:type
           rdf:resource="http://purl.org/dc/dcmitype/StillImage" />
        <dc:title />
      </cc:Work>
    </rdf:RDF>
  </metadata>
  <g
     id="g3358"
     transform="translate(360.56338,-362.3662)">
    <path
       d="m -334.56338,362.3662 c -14.397,0 -26,11.603 -26,26 l 0,460 c 0,14.397 11.603,26 26,26 l 460,0 c 14.397,0 26,-11.603 26,-26 l 0,-460 c 0,-14.397 -11.603,-26 -26,-26 l -460,0"
       id="path78705"
       style="fill:#484043"
       inkscape:connector-curvature="0" />
    <path
       d="m -232.85338,471.3062 -35.96,36.21 -35.965,36.21 0,77.6 c 0,69.13 -1.003,78.5 -9.209,85.93 -8.872,8.03 -8.473,9.15 10.865,30.67 2.86,3.18 5.739,6.21 8.485,8.96 l 127.48,127.48 292.59,0 c 14.4,0 26,-11.6 26,-26 l 0,-331.18 -40.99,-40.99 -66.98,0 -66.98,0 -29.59,29.9 -29.59,29.9 61.99,61.99 0,3.88 -69.78,-69.77 -30.19,-27.95 c -16.6,-15.37 -32.75,-27.95 -35.89,-27.95 -3.14,0 -13.11,7.18 -22.16,15.95 l -16.45,15.94 -18.84,-18.39 -18.84,-18.39 z"
       id="path78668"
       style="opacity:0.25"
       inkscape:connector-curvature="0" />
    <path
       d="m -217.49338,745.3862 -19.557,-20.03 -17.875,17.454 c -9.831,9.6 -20.18,17.454 -22.997,17.454 -2.817,0 -14.155,-10.05 -25.2,-22.339 -19.338,-21.521 -19.736,-22.644 -10.864,-30.673 8.206,-7.426 9.209,-16.791 9.209,-85.93 l 0,-77.6 35.964,-36.21 35.964,-36.21 18.838,18.394 18.838,18.394 16.451,-15.945 c 9.05,-8.77 19.02,-15.945 22.16,-15.945 3.139,0 19.291,12.576 35.893,27.946 l 30.19,27.946 0,80.12 c 0,75.61 0.615,80.78 10.928,91.76 l 10.928,11.633 -24.445,24.818 -24.445,24.818 -20.252,-19.876 -20.252,-19.876 -19.958,19.958 -19.958,19.958 z m -7.543,-114.53 c 0,-57.07 -0.995,-64.3 -9.967,-72.42 -9.925,-8.982 -9.967,-8.704 -9.967,65.67 0,41.08 1.476,76.17 3.279,77.973 1.804,1.803 6.289,0.781 9.967,-2.271 4.954,-4.111 6.688,-21.992 6.688,-68.953 m 79.74,2.588 c 0,-58.43 -0.489,-61.27 -12.459,-72.52 l -12.459,-11.704 0,72.13 c 0,73.953 3.843,90.4 18.32,78.38 4.814,-3.996 6.597,-21.91 6.597,-66.29 m 129.71,109.52 c -20.75,-21.14 -21.442,-22.76 -13.496,-31.539 7.139,-7.889 8.375,-21.512 8.375,-92.34 l 0,-83.08 -30.991,0 -30.991,0 29.589,-29.901 29.589,-29.901 66.978,0 66.978,0 -26.954,29.338 c -14.825,16.14 -30.879,29.591 -35.675,29.901 -7.927,0.512 -8.721,7.978 -8.721,82.02 0,75.55 0.734,82.12 10.124,90.62 10.08,9.125 10.03,9.261 -13.517,33.17 -13,13.201 -24.941,24 -26.5290003,24 -1.588,0 -12.729,-10.03 -24.7589997,-22.285"
       id="path88909"
       style="fill:#ffffff"
       inkscape:connector-curvature="0" />
  </g>
</svg>
