<?xml version="1.0" encoding="UTF-8" standalone="no"?>
<svg
   xmlns:dc="http://purl.org/dc/elements/1.1/"
   xmlns:cc="http://creativecommons.org/ns#"
   xmlns:rdf="http://www.w3.org/1999/02/22-rdf-syntax-ns#"
   xmlns:svg="http://www.w3.org/2000/svg"
   xmlns="http://www.w3.org/2000/svg"
   xmlns:sodipodi="http://sodipodi.sourceforge.net/DTD/sodipodi-0.dtd"
   xmlns:inkscape="http://www.inkscape.org/namespaces/inkscape"
   sodipodi:docname="minecraft.svg"
   height="100%"
   width="100%"
   inkscape:version="0.91+devel r13804 custom"
   version="1.1"
   id="svg2"
   viewBox="0 0 512 512">
  <sodipodi:namedview
     pagecolor="#ffffff"
     bordercolor="#666666"
     borderopacity="1"
     objecttolerance="10"
     gridtolerance="10"
     guidetolerance="10"
     inkscape:pageopacity="0"
     inkscape:pageshadow="2"
     inkscape:window-width="1366"
     inkscape:window-height="709"
     id="namedview6"
     showgrid="false"
     showguides="true"
     inkscape:guide-bbox="true"
     inkscape:zoom="0.32593203"
     inkscape:cx="166.00104"
     inkscape:cy="104.85515"
     inkscape:window-x="-2"
     inkscape:window-y="-3"
     inkscape:window-maximized="1"
     inkscape:current-layer="svg2">
    <sodipodi:guide
       id="guide2989"
       position="260.08346,471.00503"
       orientation="0,1" />
    <sodipodi:guide
       id="guide2991"
       position="267.59322,40.983051"
       orientation="0,1" />
    <sodipodi:guide
       id="guide2993"
       position="40.940284,84.756935"
       orientation="1,0" />
    <sodipodi:guide
       id="guide2995"
       position="471.05085,254.98305"
       orientation="1,0" />
  </sodipodi:namedview>
  <metadata
     id="metadata10">
    <rdf:RDF>
      <cc:Work
         rdf:about="">
        <dc:format>image/svg+xml</dc:format>
        <dc:type
           rdf:resource="http://purl.org/dc/dcmitype/StillImage" />
        <dc:title></dc:title>
      </cc:Work>
    </rdf:RDF>
  </metadata>
  <defs
     id="defs8" />
  <path
     inkscape:connector-curvature="0"
     d="m 365.7135,146.27294 0,73.13 0,73.16001 0,73.12999 0,73.16 0,73.16 67.906,0 52.38,0 c 14.397,0 26,-11.603 26,-26 l 0,-47.12 -0.063,0 c 0,-0.01 0,-0.021 0,-0.031 l -73.06,0 0,-73.16 73.13,0 0,-73.12 -73.12,0 0,-73.16 0,-73.12 -73.16,0"
     style="fill:#855d40"
     id="path142619" />
  <text
     sodipodi:linespacing="125%"
     y="221.58295"
     x="1341.9136"
     line-height="125%"
     style="font-size:129.22999573px;line-height:125%;font-family:'Gentium Book Basic';letter-spacing:0;word-spacing:0"
     id="text142621">
    <tspan
       y="221.58295"
       x="1341.9136"
       id="tspan142623" />
  </text>
  <text
     transform="scale(4.0128205,0.24920128)"
     y="540.02893"
     x="531.48566"
     style="font-size:46.95399857px;font-family:Arial;text-anchor:middle"
     id="text142625" />
  <text
     sodipodi:linespacing="125%"
     y="141.58295"
     x="1923.1835"
     line-height="125%"
     style="font-size:129.22999573px;line-height:125%;font-family:'Gentium Book Basic';letter-spacing:0;word-spacing:0"
     id="text142627">
    <tspan
       y="141.58295"
       x="1923.1835"
       id="tspan142629" />
  </text>
  <text
     transform="scale(4.0128205,0.24920128)"
     y="218.99057"
     x="676.33496"
     style="font-size:46.95399857px;font-family:Arial;text-anchor:middle"
     id="text142631" />
  <text
     sodipodi:linespacing="125%"
     y="-39.67606"
     x="851.60345"
     line-height="125%"
     style="font-size:129.22999573px;line-height:125%;font-family:'Gentium Book Basic';letter-spacing:0;word-spacing:0"
     id="text142633">
    <tspan
       y="-39.67606"
       x="851.60345"
       id="tspan142635" />
  </text>
  <text
     transform="scale(4.0128205,0.24920128)"
     y="-508.35568"
     x="409.29626"
     style="font-size:46.95399857px;font-family:Arial;text-anchor:middle"
     id="text142637" />
  <text
     sodipodi:linespacing="125%"
     y="-256.14706"
     x="1949.6536"
     line-height="125%"
     style="font-size:129.22999573px;line-height:125%;font-family:'Gentium Book Basic';letter-spacing:0;word-spacing:0"
     id="text142639">
    <tspan
       y="-256.14706"
       x="1949.6536"
       id="tspan142641" />
  </text>
  <text
     transform="scale(4.0128205,0.24920128)"
     y="-1377.0112"
     x="682.93488"
     style="font-size:46.95399857px;font-family:Arial;text-anchor:middle"
     id="text142643" />
  <text
     sodipodi:linespacing="125%"
     y="-336.14706"
     x="2530.9236"
     line-height="125%"
     style="font-size:129.22999573px;line-height:125%;font-family:'Gentium Book Basic';letter-spacing:0;word-spacing:0"
     id="text142645">
    <tspan
       y="-336.14706"
       x="2530.9236"
       id="tspan142647" />
  </text>
  <text
     transform="scale(4.0128205,0.24920128)"
     y="-1698.0397"
     x="827.78412"
     style="font-size:46.95399857px;font-family:Arial;text-anchor:middle"
     id="text142649" />
  <text
     sodipodi:linespacing="125%"
     y="-808.54706"
     x="2141.8037"
     line-height="125%"
     style="font-size:129.22999573px;line-height:125%;font-family:'Gentium Book Basic';letter-spacing:0;word-spacing:0"
     id="text142651">
    <tspan
       y="-808.54706"
       x="2141.8037"
       id="tspan142653" />
  </text>
  <text
     transform="scale(4.0128205,0.24920128)"
     y="-3593.6699"
     x="730.81464"
     style="font-size:46.95399857px;font-family:Arial;text-anchor:middle"
     id="text142655" />
  <text
     sodipodi:linespacing="125%"
     y="-888.55707"
     x="2723.0637"
     line-height="125%"
     style="font-size:129.22999573px;line-height:125%;font-family:'Gentium Book Basic';letter-spacing:0;word-spacing:0"
     id="text142657">
    <tspan
       y="-888.55707"
       x="2723.0637"
       id="tspan142659" />
  </text>
  <text
     transform="scale(4.0128205,0.24920128)"
     y="-3914.7083"
     x="875.66388"
     style="font-size:46.95399857px;font-family:Arial;text-anchor:middle"
     id="text142661" />
  <text
     sodipodi:linespacing="125%"
     y="526.1629"
     x="890.26349"
     line-height="125%"
     style="font-size:208.33000183px;line-height:125%;font-family:'Gentium Book Basic';letter-spacing:0;word-spacing:0"
     id="text142663">
    <tspan
       y="526.1629"
       x="890.26349"
       id="tspan142665" />
  </text>
  <path
     inkscape:connector-curvature="0"
     d="m 292.5535,-0.013055 73.14,0 0,73.14 -73.14,0 z"
     style="fill:#a3d27e"
     id="path142667" />
  <path
     inkscape:connector-curvature="0"
     d="m 219.4035,438.82294 0,73.15 73.16,0 73.13,0 0,-73.15 -73.13,0 -73.16,0"
     style="fill:#8c6142"
     id="path142669" />
  <path
     inkscape:connector-curvature="0"
     d="m 146.2835,438.82294 73.14,0 0,73.14 -73.14,0 z"
     style="fill:#593d29"
     id="path142671" />
  <path
     inkscape:connector-curvature="0"
     d="m 73.1335,438.82294 73.14,0 0,73.14 -73.14,0 z"
     style="fill:#8d6344"
     id="path142673" />
  <path
     inkscape:connector-curvature="0"
     d="m 0.0245,438.80294 0,48.531 c 0.664,13.178 11.07,23.712 24.19,24.594 l 48.938,0 0,-73.09 -72.37,0 c -0.251,-0.007 -0.499,-0.027 -0.75,-0.031"
     style="fill:#664831"
     id="path142675" />
  <path
     inkscape:connector-curvature="0"
     d="m 438.8435,365.67294 73.14,0 0,73.14 -73.14,0 z"
     style="fill:#936948"
     id="path142677" />
  <path
     inkscape:connector-curvature="0"
     d="m 219.4035,365.66294 0,73.15001 73.16,0 73.13,0 0,-73.15 -73.13,0 -73.16,0"
     style="fill:#c19367"
     id="path142679" />
  <path
     inkscape:connector-curvature="0"
     d="m 146.2835,292.55295 0,73.10999 0,73.15001 73.13,0 0,-73.15 73.16,0 0,-73.11 -73.16,0 -73.13,0"
     style="fill:#8c6343"
     id="path142681" />
  <path
     inkscape:connector-curvature="0"
     d="m -0.0065,365.66294 0,73.15001 73.13,0 73.16,0 0,-73.15 -73.16,0 -73.13,0"
     style="fill:#b17751"
     id="path142683" />
  <path
     inkscape:connector-curvature="0"
     d="m 292.5535,292.54294 73.14,0 0,73.14 -73.14,0 z"
     style="fill:#6d4b32"
     id="path142685" />
  <path
     inkscape:connector-curvature="0"
     d="m 146.2835,146.27294 0,73.11 -73.16,0 0,73.15 -73.13,0 0,73.11 73.13,0 73.16,0 0,-73.11 73.13,0 73.16,0 0,-73.15 -73.16,0 0,-73.11 -73.13,0"
     style="fill:#6a4c34"
     id="path142687" />
  <path
     inkscape:connector-curvature="0"
     d="m 438.8435,219.40294 73.14,0 0,73.14 -73.14,0 z"
     style="fill:#9d7451"
     id="path142689" />
  <path
     inkscape:connector-curvature="0"
     d="m 292.5535,219.40294 73.14,0 0,73.14 -73.14,0 z"
     style="fill:#b89165"
     id="path142691" />
  <path
     inkscape:connector-curvature="0"
     d="m -0.0025,219.40294 73.14,0 0,73.14 -73.14,0 z"
     style="fill:#866044"
     id="path142693" />
  <path
     inkscape:connector-curvature="0"
     d="m 438.8435,146.26294 73.14,0 0,73.14 -73.14,0 z"
     style="fill:#6d513c"
     id="path142695" />
  <path
     inkscape:connector-curvature="0"
     d="m 292.5535,146.26294 73.14,0 0,73.14 -73.14,0 z"
     style="fill:#87654a"
     id="path142697" />
  <path
     inkscape:connector-curvature="0"
     d="m 219.4235,146.26294 73.14,0 0,73.14 -73.14,0 z"
     style="fill:#a3cc70"
     id="path142699" />
  <path
     inkscape:connector-curvature="0"
     d="m 73.1335,146.26294 73.14,0 0,73.14 -73.14,0 z"
     style="fill:#7db54f"
     id="path142701" />
  <path
     inkscape:connector-curvature="0"
     d="m -0.0065,73.122945 0,73.149995 0,73.11 73.13,0 0,-73.10999 0,-73.150005 -73.13,0"
     style="fill:#6d533f"
     id="path142703" />
  <path
     inkscape:connector-curvature="0"
     d="m 438.8435,73.122945 73.14,0 0,73.139995 -73.14,0 z"
     style="fill:#73ac4b"
     id="path142705" />
  <path
     inkscape:connector-curvature="0"
     d="m 365.6935,73.122945 73.14,0 0,73.139995 -73.14,0 z"
     style="fill:#886b53"
     id="path142707" />
  <path
     inkscape:connector-curvature="0"
     d="m 219.4035,73.122945 0,73.149995 73.16,0 73.13,0 0,-73.149995 -73.13,0 -73.16,0"
     style="fill:#bddc9c"
     id="path142709" />
  <path
     inkscape:connector-curvature="0"
     d="m 146.2835,73.122945 73.14,0 0,73.139995 -73.14,0 z"
     style="fill:#aad688"
     id="path142711" />
  <path
     inkscape:connector-curvature="0"
     d="m 73.1335,73.122945 73.14,0 0,73.139995 -73.14,0 z"
     style="fill:#98c972"
     id="path142713" />
  <path
     inkscape:connector-curvature="0"
     d="m 438.8035,0.023945 0,73.13 0.781,0 9.219,0 63.13,0 0.063,0 0,-47.16 c 0,-13.947 -10.886,-25.27 -24.656,-25.969 l -47.75,0 0,0.031 c -0.251,-0.006 -0.499,-0.027 -0.75,-0.031 l -0.031,0"
     style="fill:#99c974"
     id="path142715" />
  <path
     inkscape:connector-curvature="0"
     d="m 365.6935,-0.013055 73.14,0 0,73.14 -73.14,0 z"
     style="fill:#93c46c"
     id="path142717" />
  <path
     inkscape:connector-curvature="0"
     d="m 146.2835,0.003945 0,73.11 73.13,0 73.16,0 0,-73.11 -73.16,0 -73.13,0"
     style="fill:#bcda98"
     id="path142719" />
  <path
     inkscape:connector-curvature="0"
     d="m 25.9935,-0.007055 c -14.397,0 -26,11.603 -26,26 l 0,47.13 0.031,0 16.13,0 56.969,0 16.188,0 56.969,0 0,-73.12 -71.906,0 -48.37,0"
     style="fill:#91c269"
     id="path142721" />
  <path
     inkscape:connector-curvature="0"
     d="m 40.994047,37.022367 0,140.380863 32.128906,32.1289 0,-32.1289 0.0098,0 0,32.13866 49.851557,49.85157 -13.56054,0 0,106.25 0,0.0195 0,34.10937 0,39.04102 0,0.01 0,36.14063 36.84961,36.84961 0,-36.84961 0.01,0 0,36.85937 0.14062,0.14063 72.98047,0 0,0.01 73.16016,0 73.12891,0 0,-37.00976 0.0195,0 0,37.04883 67.90625,0 52.38086,0 c 14.397,0 26,-11.603 26,-26 l 0,-47.11914 -0.0625,0 0,-0.0312 -73.06055,0 0,-0.0488 73.10742,0 0,-72.41992 -146.27148,-146.27149 0,39.27149 -0.0195,0 0,-39.29102 -39.45899,-39.45898 -1.24023,0 -107.52149,-107.521484 -36.09961,0 0,-0.0078 36.0918,0 -36.0918,-36.091797 -35.08984,0 -0.002,0 -105.287111,0 z m 289.619143,0 0,140.380863 35.08008,35.08007 0,-35.08007 0.0195,0 0,35.0996 80.04297,80.04102 66.22851,0 0,-73.14063 0,-73.14062 0,-68.249999 -40.99023,-40.990234 -140.38086,0 z M 181.37295,146.2626 l 38.03125,0 0,0.01 -38.03125,0 0,-0.01 z m 38.04102,0.01 0.01,0 0,34.37109 -0.01,0 0,-34.37109 z m -73.14063,31.13086 0.01,0 0,41.98047 -0.01,0 0,-41.98047 z m 299.52149,115.17968 66.21094,66.21094 0,-66.21094 -66.21094,0 z m -47.80078,100.18945 2.28906,0 0,77.82031 -2.28906,-2.28906 0,-75.53125 z m -215.46094,46.04102 36.88086,0 73.15039,0 36.90625,0 0,0.01 -36.90625,0 -73.14063,0 -36.89062,0 0,-0.01 z"
     id="path142725"
     style="opacity:0.25" />
  <path
     inkscape:connector-curvature="0"
     d="m 40.9935,37.022945 0,140.379995 140.38,0 0,-140.379995 -140.38,0 m 289.62,0 0,140.379995 140.38,0 0,-140.379995 -140.38,0 m -144.75,143.619995 0,78.75 -76.44,0 0,140.38 0,75.19 73.11,0 0,-75.19 67.26,0 76.44,0 3.238,0 0,75.19 70.814,0 0,-140.38 0,-75.19 -74.05,0 0,-78.75 -140.38,0"
     style="fill:#ffffff"
     id="path142773" />
</svg>
