<?xml version="1.0" encoding="UTF-8" standalone="no"?>
<svg
   xmlns:dc="http://purl.org/dc/elements/1.1/"
   xmlns:cc="http://creativecommons.org/ns#"
   xmlns:rdf="http://www.w3.org/1999/02/22-rdf-syntax-ns#"
   xmlns:svg="http://www.w3.org/2000/svg"
   xmlns="http://www.w3.org/2000/svg"
   xmlns:sodipodi="http://sodipodi.sourceforge.net/DTD/sodipodi-0.dtd"
   xmlns:inkscape="http://www.inkscape.org/namespaces/inkscape"
   sodipodi:docname="minitube.svg"
   height="100%"
   width="100%"
   inkscape:version="0.91+devel r13804 custom"
   version="1.1"
   id="svg2"
   viewBox="0 0 512 512">
  <sodipodi:namedview
     pagecolor="#ffffff"
     bordercolor="#666666"
     borderopacity="1"
     objecttolerance="10"
     gridtolerance="10"
     guidetolerance="10"
     inkscape:pageopacity="0"
     inkscape:pageshadow="2"
     inkscape:window-width="1366"
     inkscape:window-height="709"
     id="namedview6"
     showgrid="false"
     showguides="true"
     inkscape:guide-bbox="true"
     inkscape:zoom="0.32593203"
     inkscape:cx="166.00104"
     inkscape:cy="104.85515"
     inkscape:window-x="-2"
     inkscape:window-y="-3"
     inkscape:window-maximized="1"
     inkscape:current-layer="svg2">
    <sodipodi:guide
       id="guide2989"
       position="260.08346,471.00503"
       orientation="0,1" />
    <sodipodi:guide
       id="guide2991"
       position="267.59322,40.983051"
       orientation="0,1" />
    <sodipodi:guide
       id="guide2993"
       position="40.940284,84.756935"
       orientation="1,0" />
    <sodipodi:guide
       id="guide2995"
       position="471.05085,254.98305"
       orientation="1,0" />
  </sodipodi:namedview>
  <metadata
     id="metadata10">
    <rdf:RDF>
      <cc:Work
         rdf:about="">
        <dc:format>image/svg+xml</dc:format>
        <dc:type
           rdf:resource="http://purl.org/dc/dcmitype/StillImage" />
        <dc:title></dc:title>
      </cc:Work>
    </rdf:RDF>
  </metadata>
  <defs
     id="defs8" />
  <path
     inkscape:connector-curvature="0"
     d="M 26,0 C 11.603,0 0,11.603 0,26 l 0,460 c 0,14.397 11.603,26 26,26 l 460,0 c 14.397,0 26,-11.603 26,-26 L 512,26 C 512,11.603 500.397,0 486,0 L 26,0"
     style="fill:#d23638"
     id="path144335" />
  <text
     sodipodi:linespacing="125%"
     y="260.32001"
     x="-118.51"
     line-height="125%"
     style="font-size:129.22999573px;line-height:125%;font-family:'Gentium Book Basic';letter-spacing:0;word-spacing:0"
     id="text144337">
    <tspan
       y="260.32001"
       x="-118.51"
       id="tspan144339" />
  </text>
  <text
     transform="scale(4.0128205,0.24920128)"
     y="695.45648"
     x="167.54915"
     style="font-size:46.95399857px;font-family:Arial;text-anchor:middle"
     id="text144341" />
  <text
     sodipodi:linespacing="125%"
     y="180.32001"
     x="462.76001"
     line-height="125%"
     style="font-size:129.22999573px;line-height:125%;font-family:'Gentium Book Basic';letter-spacing:0;word-spacing:0"
     id="text144343">
    <tspan
       y="180.32001"
       x="462.76001"
       id="tspan144345" />
  </text>
  <text
     transform="scale(4.0128205,0.24920128)"
     y="374.42807"
     x="312.39841"
     style="font-size:46.95399857px;font-family:Arial;text-anchor:middle"
     id="text144347" />
  <text
     sodipodi:linespacing="125%"
     y="-0.94099998"
     x="-608.82001"
     line-height="125%"
     style="font-size:129.22999573px;line-height:125%;font-family:'Gentium Book Basic';letter-spacing:0;word-spacing:0"
     id="text144349">
    <tspan
       y="-0.94099998"
       x="-608.82001"
       id="tspan144351" />
  </text>
  <text
     transform="scale(4.0128205,0.24920128)"
     y="-352.91821"
     x="45.359768"
     style="font-size:46.95399857px;font-family:Arial;text-anchor:middle"
     id="text144353" />
  <text
     sodipodi:linespacing="125%"
     y="-217.41"
     x="489.23001"
     line-height="125%"
     style="font-size:129.22999573px;line-height:125%;font-family:'Gentium Book Basic';letter-spacing:0;word-spacing:0"
     id="text144355">
    <tspan
       y="-217.41"
       x="489.23001"
       id="tspan144357" />
  </text>
  <text
     transform="scale(4.0128205,0.24920128)"
     y="-1221.5938"
     x="318.99835"
     style="font-size:46.95399857px;font-family:Arial;text-anchor:middle"
     id="text144359" />
  <text
     sodipodi:linespacing="125%"
     y="-297.41"
     x="1070.5"
     line-height="125%"
     style="font-size:129.22999573px;line-height:125%;font-family:'Gentium Book Basic';letter-spacing:0;word-spacing:0"
     id="text144361">
    <tspan
       y="-297.41"
       x="1070.5"
       id="tspan144363" />
  </text>
  <text
     transform="scale(4.0128205,0.24920128)"
     y="-1542.6121"
     x="463.84763"
     style="font-size:46.95399857px;font-family:Arial;text-anchor:middle"
     id="text144365" />
  <text
     sodipodi:linespacing="125%"
     y="-769.81"
     x="681.38"
     line-height="125%"
     style="font-size:129.22999573px;line-height:125%;font-family:'Gentium Book Basic';letter-spacing:0;word-spacing:0"
     id="text144367">
    <tspan
       y="-769.81"
       x="681.38"
       id="tspan144369" />
  </text>
  <text
     transform="scale(4.0128205,0.24920128)"
     y="-3438.2524"
     x="366.87811"
     style="font-size:46.95399857px;font-family:Arial;text-anchor:middle"
     id="text144371" />
  <text
     sodipodi:linespacing="125%"
     y="-849.82001"
     x="1262.64"
     line-height="125%"
     style="font-size:129.22999573px;line-height:125%;font-family:'Gentium Book Basic';letter-spacing:0;word-spacing:0"
     id="text144373">
    <tspan
       y="-849.82001"
       x="1262.64"
       id="tspan144375" />
  </text>
  <text
     transform="scale(4.0128205,0.24920128)"
     y="-3759.2908"
     x="511.72739"
     style="font-size:46.95399857px;font-family:Arial;text-anchor:middle"
     id="text144377" />
  <text
     sodipodi:linespacing="125%"
     y="564.90002"
     x="-570.15997"
     line-height="125%"
     style="font-size:208.33000183px;line-height:125%;font-family:'Gentium Book Basic';letter-spacing:0;word-spacing:0"
     id="text144379">
    <tspan
       y="564.90002"
       x="-570.15997"
       id="tspan144381" />
  </text>
  <path
     d="M 425.45703 80.097656 L 425.45898 80.099609 L 86.550781 80.099609 L 200.58984 194.13867 L 200.58984 194.15039 L 86.539062 80.099609 C 78.110062 80.099609 71.316406 86.894266 71.316406 95.322266 L 71.320312 95.326172 L 71.320312 341.86914 L 86.550781 357.09961 L 86.541016 357.09961 L 86.539062 357.09766 L 86.537109 357.09766 L 71.320312 341.88086 C 71.320312 346.06586 72.995844 349.8487 75.714844 352.5957 L 127.28906 404.16992 L 102.78906 404.16992 C 73.413064 404.16992 54.024906 404.35469 41.003906 404.67969 L 49.724609 413.40039 L 49.720703 413.40039 L 41 404.67969 L 41 413.39648 L 41.003906 413.40039 L 41 413.40039 L 139.59961 512 L 486 512 C 500.397 512 512 500.397 512 486 L 512 160.32031 L 436.16016 84.480469 L 436.1582 84.478516 C 433.41137 81.767657 429.63504 80.097656 425.45703 80.097656 z "
     id="path144385"
     style="opacity:0.25" />
  <path
     inkscape:connector-curvature="0"
     d="m 86.54,80.1 c -8.429,0 -15.224,6.795 -15.224,15.223 l 0,246.55 c 0,8.429 6.795,15.224 15.224,15.224 l 338.91,0 c 8.429,0 15.224,-6.795 15.224,-15.224 l 0,-246.55 c 0,-8.429 -6.795,-15.223 -15.224,-15.223 l -338.91,0 m 114.05,64.64 120.04,73.864 -120.04,73.864 0,-147.73 m 61.53,240.98 c -11.169,0 -20.486,7.916 -22.623,18.455 l -136.71,0 c -29.376,0 -48.766,0.185 -61.787,0.51 l 0,8.717 198.5,0 c 2.137,10.539 11.453,18.498 22.623,18.498 11.169,0 20.486,-7.959 22.623,-18.498 l 186.25,0 0,-9.228 -186.25,0 c -2.137,-10.539 -11.453,-18.455 -22.623,-18.455"
     style="fill:#ffffff"
     id="path144437" />
</svg>
