<?xml version="1.0" encoding="UTF-8" standalone="no"?>
<svg
   xmlns:dc="http://purl.org/dc/elements/1.1/"
   xmlns:cc="http://creativecommons.org/ns#"
   xmlns:rdf="http://www.w3.org/1999/02/22-rdf-syntax-ns#"
   xmlns:svg="http://www.w3.org/2000/svg"
   xmlns="http://www.w3.org/2000/svg"
   xmlns:sodipodi="http://sodipodi.sourceforge.net/DTD/sodipodi-0.dtd"
   xmlns:inkscape="http://www.inkscape.org/namespaces/inkscape"
   sodipodi:docname="modem-manager.svg"
   height="100%"
   width="100%"
   inkscape:version="0.91+devel r13804 custom"
   version="1.1"
   id="svg2"
   viewBox="0 0 512 512">
  <sodipodi:namedview
     pagecolor="#ffffff"
     bordercolor="#666666"
     borderopacity="1"
     objecttolerance="10"
     gridtolerance="10"
     guidetolerance="10"
     inkscape:pageopacity="0"
     inkscape:pageshadow="2"
     inkscape:window-width="1366"
     inkscape:window-height="709"
     id="namedview6"
     showgrid="false"
     showguides="true"
     inkscape:guide-bbox="true"
     inkscape:zoom="0.32593203"
     inkscape:cx="166.00104"
     inkscape:cy="104.85515"
     inkscape:window-x="-2"
     inkscape:window-y="-3"
     inkscape:window-maximized="1"
     inkscape:current-layer="svg2">
    <sodipodi:guide
       id="guide2989"
       position="260.08346,471.00503"
       orientation="0,1" />
    <sodipodi:guide
       id="guide2991"
       position="267.59322,40.983051"
       orientation="0,1" />
    <sodipodi:guide
       id="guide2993"
       position="40.940284,84.756935"
       orientation="1,0" />
    <sodipodi:guide
       id="guide2995"
       position="471.05085,254.98305"
       orientation="1,0" />
  </sodipodi:namedview>
  <metadata
     id="metadata10">
    <rdf:RDF>
      <cc:Work
         rdf:about="">
        <dc:format>image/svg+xml</dc:format>
        <dc:type
           rdf:resource="http://purl.org/dc/dcmitype/StillImage" />
        <dc:title></dc:title>
      </cc:Work>
    </rdf:RDF>
  </metadata>
  <defs
     id="defs8" />
  <path
     inkscape:connector-curvature="0"
     d="M 26,0 C 11.603,0 0,11.603 0,26 l 0,460 c 0,14.397 11.603,26 26,26 l 460,0 c 14.397,0 26,-11.603 26,-26 L 512,26 C 512,11.603 500.397,0 486,0 L 26,0"
     style="fill:#3d6ca7"
     id="path176239" />
  <text
     sodipodi:linespacing="125%"
     y="94.639999"
     x="-462.14001"
     line-height="125%"
     style="font-size:129.22999573px;line-height:125%;font-family:'Gentium Book Basic';letter-spacing:0;word-spacing:0"
     id="text176241">
    <tspan
       y="94.639999"
       x="-462.14001"
       id="tspan176243" />
  </text>
  <text
     transform="scale(4.0128205,0.24920128)"
     y="30.625843"
     x="81.914581"
     style="font-size:46.95399857px;font-family:Arial;text-anchor:middle"
     id="text176245" />
  <text
     sodipodi:linespacing="125%"
     y="14.64"
     x="119.13"
     line-height="125%"
     style="font-size:129.22999573px;line-height:125%;font-family:'Gentium Book Basic';letter-spacing:0;word-spacing:0"
     id="text176247">
    <tspan
       y="14.64"
       x="119.13"
       id="tspan176249" />
  </text>
  <text
     transform="scale(4.0128205,0.24920128)"
     y="-290.40851"
     x="226.75883"
     style="font-size:46.95399857px;font-family:Arial;text-anchor:middle"
     id="text176251" />
  <text
     sodipodi:linespacing="125%"
     y="-166.62"
     x="-952.45001"
     line-height="125%"
     style="font-size:129.22999573px;line-height:125%;font-family:'Gentium Book Basic';letter-spacing:0;word-spacing:0"
     id="text176253">
    <tspan
       y="-166.62"
       x="-952.45001"
       id="tspan176255" />
  </text>
  <text
     transform="scale(4.0128205,0.24920128)"
     y="-1017.7548"
     x="-40.269794"
     style="font-size:46.95399857px;font-family:Arial;text-anchor:middle"
     id="text176257" />
  <text
     sodipodi:linespacing="125%"
     y="-383.09"
     x="145.60001"
     line-height="125%"
     style="font-size:129.22999573px;line-height:125%;font-family:'Gentium Book Basic';letter-spacing:0;word-spacing:0"
     id="text176259">
    <tspan
       y="-383.09"
       x="145.60001"
       id="tspan176261" />
  </text>
  <text
     transform="scale(4.0128205,0.24920128)"
     y="-1886.4204"
     x="233.35881"
     style="font-size:46.95399857px;font-family:Arial;text-anchor:middle"
     id="text176263" />
  <text
     sodipodi:linespacing="125%"
     y="-463.09"
     x="726.87"
     line-height="125%"
     style="font-size:129.22999573px;line-height:125%;font-family:'Gentium Book Basic';letter-spacing:0;word-spacing:0"
     id="text176265">
    <tspan
       y="-463.09"
       x="726.87"
       id="tspan176267" />
  </text>
  <text
     transform="scale(4.0128205,0.24920128)"
     y="-2207.4487"
     x="378.20807"
     style="font-size:46.95399857px;font-family:Arial;text-anchor:middle"
     id="text176269" />
  <text
     sodipodi:linespacing="125%"
     y="-935.48999"
     x="337.75"
     line-height="125%"
     style="font-size:129.22999573px;line-height:125%;font-family:'Gentium Book Basic';letter-spacing:0;word-spacing:0"
     id="text176271">
    <tspan
       y="-935.48999"
       x="337.75"
       id="tspan176273" />
  </text>
  <text
     transform="scale(4.0128205,0.24920128)"
     y="-4103.0889"
     x="281.23856"
     style="font-size:46.95399857px;font-family:Arial;text-anchor:middle"
     id="text176275" />
  <text
     sodipodi:linespacing="125%"
     y="-1015.5"
     x="919.01001"
     line-height="125%"
     style="font-size:129.22999573px;line-height:125%;font-family:'Gentium Book Basic';letter-spacing:0;word-spacing:0"
     id="text176277">
    <tspan
       y="-1015.5"
       x="919.01001"
       id="tspan176279" />
  </text>
  <text
     transform="scale(4.0128205,0.24920128)"
     y="-4424.1274"
     x="426.08783"
     style="font-size:46.95399857px;font-family:Arial;text-anchor:middle"
     id="text176281" />
  <text
     sodipodi:linespacing="125%"
     y="399.22"
     x="-913.78998"
     line-height="125%"
     style="font-size:208.33000183px;line-height:125%;font-family:'Gentium Book Basic';letter-spacing:0;word-spacing:0"
     id="text176283">
    <tspan
       y="399.22"
       x="-913.78998"
       id="tspan176285" />
  </text>
  <path
     d="M 55.039062 41 L 55.039062 240.11914 L 188.25 373.33008 L 165.44922 456.84961 L 165.45898 456.85938 L 165.44141 456.94141 L 165.43945 456.93945 L 165.1875 457.80859 L 219.37891 512 L 486 512 C 500.397 512 512 500.397 512 486 L 512 96.039062 L 456.96094 41 L 434.07617 41 L 456.96094 63.884766 L 456.96094 63.890625 L 434.07031 41 L 434.07031 94.089844 L 412.08008 72.099609 L 389.19922 72.099609 L 389.19922 72.101562 L 389.19922 116.74805 L 367.65039 95.199219 L 344.75 95.199219 L 344.75 95.201172 L 344.75 127.72461 L 303.47461 86.449219 C 303.50196 86.476573 303.52738 86.505802 303.55469 86.533203 L 303.4707 86.449219 C 291.3377 74.316219 274.57755 66.8125 256.06055 66.8125 L 256.06055 66.814453 C 224.24947 66.814453 197.62795 88.972168 190.74023 118.68945 L 167.25 95.199219 L 145.91992 95.199219 L 122.82031 72.099609 L 109.04492 72.099609 L 77.945312 41 L 55.044922 41 L 77.945312 63.900391 L 77.945312 63.90625 L 55.039062 41 z "
     id="path176289"
     style="opacity:0.25" />
  <path
     inkscape:connector-curvature="0"
     d="m 55.04,41 0,199.12 22.901,0 0,-199.12 -22.901,0 m 379.03,0 0,199.12 22.883,0 0,-199.12 -22.883,0 M 256.06,66.815 c -37.04,0 -67.07,30.03 -67.07,67.07 0,30.1 19.831,55.56 47.14,64.05 l -70.68,258.91 -0.018,0.091 -0.253,0.869 a 10.368,10.368 0 0 0 16.9628,10.48182 l 0.742,-0.688 a 10.368,10.368 0 0 0 0.54311,-0.5431 l 76.07,-80.47 71.816,80.27 a 10.368,10.368 0 0 0 0.97758,0.94137 l 0.724,0.634 a 10.368,10.368 0 0 0 16.69127,-10.84389 l -0.272,-0.887 0,-0.018 -76.76,-257.81 c 28.994,-7.399 50.44,-33.692 50.44,-64.991 0,-37.04 -30.01,-67.07 -67.05,-67.07 m -156.14,5.286 0,136.92 22.901,0 0,-136.92 -22.901,0 m 289.27,0 0,136.92 22.883,0 0,-136.92 -22.883,0 m -244.85,23.1 0,90.7 22.901,0 0,-90.7 -22.901,0 m 200.4,0 0,90.7 22.901,0 0,-90.7 -22.901,0"
     style="fill:#ffffff"
     id="path176369" />
</svg>
