<?xml version="1.0" encoding="UTF-8" standalone="no"?>
<svg
   xmlns:dc="http://purl.org/dc/elements/1.1/"
   xmlns:cc="http://creativecommons.org/ns#"
   xmlns:rdf="http://www.w3.org/1999/02/22-rdf-syntax-ns#"
   xmlns:svg="http://www.w3.org/2000/svg"
   xmlns="http://www.w3.org/2000/svg"
   xmlns:sodipodi="http://sodipodi.sourceforge.net/DTD/sodipodi-0.dtd"
   xmlns:inkscape="http://www.inkscape.org/namespaces/inkscape"
   sodipodi:docname="modelio.svg"
   height="100%"
   width="100%"
   inkscape:version="0.91+devel r13804 custom"
   version="1.1"
   id="svg2"
   viewBox="0 0 512 512">
  <sodipodi:namedview
     pagecolor="#ffffff"
     bordercolor="#666666"
     borderopacity="1"
     objecttolerance="10"
     gridtolerance="10"
     guidetolerance="10"
     inkscape:pageopacity="0"
     inkscape:pageshadow="2"
     inkscape:window-width="1366"
     inkscape:window-height="709"
     id="namedview6"
     showgrid="false"
     showguides="true"
     inkscape:guide-bbox="true"
     inkscape:zoom="0.32593203"
     inkscape:cx="166.00104"
     inkscape:cy="104.85515"
     inkscape:window-x="-2"
     inkscape:window-y="-3"
     inkscape:window-maximized="1"
     inkscape:current-layer="svg2">
    <sodipodi:guide
       id="guide2989"
       position="260.08346,471.00503"
       orientation="0,1" />
    <sodipodi:guide
       id="guide2991"
       position="267.59322,40.983051"
       orientation="0,1" />
    <sodipodi:guide
       id="guide2993"
       position="40.940284,84.756935"
       orientation="1,0" />
    <sodipodi:guide
       id="guide2995"
       position="471.05085,254.98305"
       orientation="1,0" />
  </sodipodi:namedview>
  <metadata
     id="metadata10">
    <rdf:RDF>
      <cc:Work
         rdf:about="">
        <dc:format>image/svg+xml</dc:format>
        <dc:type
           rdf:resource="http://purl.org/dc/dcmitype/StillImage" />
        <dc:title></dc:title>
      </cc:Work>
    </rdf:RDF>
  </metadata>
  <defs
     id="defs8" />
  <path
     inkscape:connector-curvature="0"
     d="M 26,0 C 11.603,0 0,11.603 0,26 l 0,460 c 0,14.397 11.603,26 26,26 l 460,0 c 14.397,0 26,-11.603 26,-26 L 512,26 C 512,11.603 500.397,0 486,0 L 26,0"
     style="fill:#cf1921"
     id="path145177" />
  <path
     d="M 116.1582 41 C 96.979766 41.001052 81.473715 56.410364 81.472656 75.591797 L 81.470703 75.589844 L 81.470703 436.33984 C 81.470703 445.92384 85.340469 454.5807 91.605469 460.8457 L 91.806641 461.04688 C 91.738717 460.98005 91.666981 460.91698 91.599609 460.84961 L 142.75 512 L 486 512 C 500.397 512 512 500.397 512 486 L 512 142.68555 L 420.42969 51.115234 C 420.45639 51.141945 420.4812 51.170467 420.50781 51.197266 L 420.42969 51.119141 C 414.17054 44.859994 405.50954 41.003006 395.91211 41.001953 L 395.91016 41 L 395.38086 41 L 395.37891 41 C 376.19981 41.001052 360.72461 56.411405 360.72461 75.59375 L 360.7207 75.589844 L 360.7207 270.64062 L 141.17969 51.099609 C 134.92869 44.848609 126.28045 41 116.68945 41 L 116.16016 41 L 116.1582 41 z "
     id="path145181"
     style="opacity:0.25" />
  <g
     transform="matrix(1.58846,0,0,1.58846,814.28,18.216)"
     id="g155415">
    <g
       style="fill:#ffffff"
       id="g155417">
      <path
         inkscape:connector-curvature="0"
         d="m -439.5,14.344 c -12.08,0 -21.822,9.707 -21.822,21.784 l 0,227.1 c 0,12.08 9.745,21.822 21.822,21.822 l 0.342,0 c 12.08,0 21.784,-9.745 21.784,-21.822 l 0,-227.1 c 0,-12.08 -9.707,-21.784 -21.784,-21.784 l -0.342,0"
         id="path155419" />
      <path
         inkscape:connector-curvature="0"
         d="m -263.72,14.344 c -12.08,0 -21.822,9.707 -21.822,21.784 l 0,227.1 c 0,12.08 9.745,21.822 21.822,21.822 l 0.342,0 c 12.08,0 21.784,-9.745 21.784,-21.822 l 0,-227.1 c 0,-12.08 -9.707,-21.784 -21.784,-21.784 l -0.342,0"
         id="path155421" />
    </g>
    <path
       inkscape:connector-curvature="0"
       d="m -351.46,109.26 c -12.173,0 -21.973,9.801 -21.973,21.973 l 0,131.84 c 0,12.173 9.801,21.973 21.973,21.973 12.173,0 21.973,-9.801 21.973,-21.973 l 0,-131.84 c 0,-12.173 -9.801,-21.973 -21.973,-21.973"
       style="fill:#b9b9b9"
       id="path155423" />
  </g>
</svg>
