<?xml version="1.0" encoding="UTF-8" standalone="no"?>
<svg
   xmlns:dc="http://purl.org/dc/elements/1.1/"
   xmlns:cc="http://creativecommons.org/ns#"
   xmlns:rdf="http://www.w3.org/1999/02/22-rdf-syntax-ns#"
   xmlns:svg="http://www.w3.org/2000/svg"
   xmlns="http://www.w3.org/2000/svg"
   xmlns:sodipodi="http://sodipodi.sourceforge.net/DTD/sodipodi-0.dtd"
   xmlns:inkscape="http://www.inkscape.org/namespaces/inkscape"
   viewBox="0 0 512 512"
   id="svg2"
   version="1.1"
   inkscape:version="0.91+devel r13804 custom"
   width="100%"
   height="100%"
   sodipodi:docname="ms-calendar.svg">
  <sodipodi:namedview
     inkscape:current-layer="svg2"
     inkscape:window-maximized="1"
     inkscape:window-y="-3"
     inkscape:window-x="-2"
     inkscape:cy="256.60914"
     inkscape:cx="422.36033"
     inkscape:zoom="0.4609375"
     inkscape:guide-bbox="true"
     showguides="true"
     showgrid="false"
     id="namedview6"
     inkscape:window-height="709"
     inkscape:window-width="1366"
     inkscape:pageshadow="2"
     inkscape:pageopacity="0"
     guidetolerance="10"
     gridtolerance="10"
     objecttolerance="10"
     borderopacity="1"
     bordercolor="#666666"
     pagecolor="#ffffff">
    <sodipodi:guide
       id="guide2989"
       position="260.08346,471.00503"
       orientation="0,1" />
    <sodipodi:guide
       id="guide2991"
       position="267.59322,40.983051"
       orientation="0,1" />
    <sodipodi:guide
       id="guide2993"
       position="40.940284,84.756935"
       orientation="1,0" />
    <sodipodi:guide
       id="guide2995"
       position="471.05085,254.98305"
       orientation="1,0" />
  </sodipodi:namedview>
  <metadata
     id="metadata10">
    <rdf:RDF>
      <cc:Work
         rdf:about="">
        <dc:format>image/svg+xml</dc:format>
        <dc:type
           rdf:resource="http://purl.org/dc/dcmitype/StillImage" />
        <dc:title></dc:title>
      </cc:Work>
    </rdf:RDF>
  </metadata>
  <defs
     id="defs8" />
  <path
     inkscape:connector-curvature="0"
     d="M 26,0 C 11.603,0 0,11.603 0,26 l 0,460 c 0,14.397 11.603,26 26,26 l 460,0 c 14.397,0 26,-11.603 26,-26 L 512,26 C 512,11.603 500.397,0 486,0 L 26,0"
     style="fill:#5133ab"
     id="path178208" />
  <text
     sodipodi:linespacing="125%"
     y="85.440002"
     x="-505.09"
     line-height="125%"
     style="font-size:129.22999573px;line-height:125%;font-family:'Gentium Book Basic';letter-spacing:0;word-spacing:0"
     id="text178210">
    <tspan
       y="85.440002"
       x="-505.09"
       id="tspan178212" />
  </text>
  <text
     transform="scale(4.0128205,0.24920128)"
     y="-6.3099675"
     x="71.209633"
     style="font-size:46.95399857px;font-family:Arial;text-anchor:middle"
     id="text178214" />
  <text
     sodipodi:linespacing="125%"
     y="5.4359999"
     x="76.18"
     line-height="125%"
     style="font-size:129.22999573px;line-height:125%;font-family:'Gentium Book Basic';letter-spacing:0;word-spacing:0"
     id="text178216">
    <tspan
       y="5.4359999"
       x="76.18"
       id="tspan178218" />
  </text>
  <text
     transform="scale(4.0128205,0.24920128)"
     y="-327.34833"
     x="216.0589"
     style="font-size:46.95399857px;font-family:Arial;text-anchor:middle"
     id="text178220" />
  <text
     sodipodi:linespacing="125%"
     y="-175.82001"
     x="-995.40002"
     line-height="125%"
     style="font-size:129.22999573px;line-height:125%;font-family:'Gentium Book Basic';letter-spacing:0;word-spacing:0"
     id="text178222">
    <tspan
       y="-175.82001"
       x="-995.40002"
       id="tspan178224" />
  </text>
  <text
     transform="scale(4.0128205,0.24920128)"
     y="-1054.6846"
     x="-50.977741"
     style="font-size:46.95399857px;font-family:Arial;text-anchor:middle"
     id="text178226" />
  <text
     sodipodi:linespacing="125%"
     y="-392.29001"
     x="102.65"
     line-height="125%"
     style="font-size:129.22999573px;line-height:125%;font-family:'Gentium Book Basic';letter-spacing:0;word-spacing:0"
     id="text178228">
    <tspan
       y="-392.29001"
       x="102.65"
       id="tspan178230" />
  </text>
  <text
     transform="scale(4.0128205,0.24920128)"
     y="-1923.3601"
     x="222.65886"
     style="font-size:46.95399857px;font-family:Arial;text-anchor:middle"
     id="text178232" />
  <text
     sodipodi:linespacing="125%"
     y="-472.29001"
     x="683.91998"
     line-height="125%"
     style="font-size:129.22999573px;line-height:125%;font-family:'Gentium Book Basic';letter-spacing:0;word-spacing:0"
     id="text178234">
    <tspan
       y="-472.29001"
       x="683.91998"
       id="tspan178236" />
  </text>
  <text
     transform="scale(4.0128205,0.24920128)"
     y="-2244.3884"
     x="367.50812"
     style="font-size:46.95399857px;font-family:Arial;text-anchor:middle"
     id="text178238" />
  <text
     sodipodi:linespacing="125%"
     y="-944.69"
     x="294.79999"
     line-height="125%"
     style="font-size:129.22999573px;line-height:125%;font-family:'Gentium Book Basic';letter-spacing:0;word-spacing:0"
     id="text178240">
    <tspan
       y="-944.69"
       x="294.79999"
       id="tspan178242" />
  </text>
  <text
     transform="scale(4.0128205,0.24920128)"
     y="-4140.0288"
     x="270.53864"
     style="font-size:46.95399857px;font-family:Arial;text-anchor:middle"
     id="text178244" />
  <text
     sodipodi:linespacing="125%"
     y="-1024.7"
     x="876.06"
     line-height="125%"
     style="font-size:129.22999573px;line-height:125%;font-family:'Gentium Book Basic';letter-spacing:0;word-spacing:0"
     id="text178246">
    <tspan
       y="-1024.7"
       x="876.06"
       id="tspan178248" />
  </text>
  <text
     transform="scale(4.0128205,0.24920128)"
     y="-4461.0669"
     x="415.38788"
     style="font-size:46.95399857px;font-family:Arial;text-anchor:middle"
     id="text178250" />
  <text
     sodipodi:linespacing="125%"
     y="390.01999"
     x="-956.73999"
     line-height="125%"
     style="font-size:208.33000183px;line-height:125%;font-family:'Gentium Book Basic';letter-spacing:0;word-spacing:0"
     id="text178252">
    <tspan
       y="390.01999"
       x="-956.73999"
       id="tspan178254" />
  </text>
  <path
     d="M 41 60.630859 L 41 451.35938 L 41.009766 451.36914 L 41 451.36914 L 101.63086 512 L 486 512 C 500.397 512 512 500.397 512 486 L 512 101.63086 L 471 60.630859 L 41 60.630859 z "
     id="path178258"
     style="opacity:0.25" />
  <path
     inkscape:connector-curvature="0"
     d="m 41,60.63 0,390.73 430,0 0,-390.73 -430,0 m 33.998,61.702 362,0 0,298.18 -362,0 0,-298.18 m 83.52,16.554 0,54.725 54.725,0 0,-54.725 -54.725,0 m 70.46,0 0,54.725 54.725,0 0,-54.725 -54.725,0 m 70.53,0 0,54.725 54.725,0 0,-54.725 -54.725,0 m 70.46,0 0,54.725 54.725,0 0,-54.725 -54.725,0 m -281.9,70.46 0,54.725 54.725,0 0,-54.725 -54.725,0 m 70.46,0 0,54.725 54.725,0 0,-54.725 -54.725,0 m 70.46,0 0,54.725 54.725,0 0,-54.725 -54.725,0 m 70.53,0 0,54.725 54.725,0 0,-54.725 -54.725,0 m 70.46,0 0,54.725 54.725,0 0,-54.725 -54.725,0 m -281.9,70.53 0,54.725 54.725,0 0,-54.725 -54.725,0 m 70.46,0 0,54.725 54.725,0 0,-54.725 -54.725,0 m 70.46,0 0,54.725 54.725,0 0,-54.725 -54.725,0 m 70.53,0 0,54.725 54.725,0 0,-54.725 -54.725,0 m 70.46,0 0,54.725 54.725,0 0,-54.725 -54.725,0 m -281.9,70.46 0,54.725 54.725,0 0,-54.725 -54.725,0 m 70.46,0 0,54.725 54.725,0 0,-54.725 -54.725,0 m 70.46,0 0,54.725 54.725,0 0,-54.725 -54.725,0 m 70.53,0 0,54.725 54.725,0 0,-54.725 -54.725,0"
     style="fill:#ffffff"
     id="path178418" />
</svg>
