<?xml version="1.0" encoding="UTF-8" standalone="no"?>
<svg
   xmlns:dc="http://purl.org/dc/elements/1.1/"
   xmlns:cc="http://creativecommons.org/ns#"
   xmlns:rdf="http://www.w3.org/1999/02/22-rdf-syntax-ns#"
   xmlns:svg="http://www.w3.org/2000/svg"
   xmlns="http://www.w3.org/2000/svg"
   xmlns:sodipodi="http://sodipodi.sourceforge.net/DTD/sodipodi-0.dtd"
   xmlns:inkscape="http://www.inkscape.org/namespaces/inkscape"
   viewBox="0 0 512 512"
   id="svg2"
   version="1.1"
   inkscape:version="0.91+devel r13804 custom"
   width="100%"
   height="100%"
   sodipodi:docname="ms-powerpoint.svg">
  <sodipodi:namedview
     inkscape:current-layer="svg2"
     inkscape:window-maximized="1"
     inkscape:window-y="-3"
     inkscape:window-x="-2"
     inkscape:cy="256.60914"
     inkscape:cx="422.36033"
     inkscape:zoom="0.4609375"
     inkscape:guide-bbox="true"
     showguides="true"
     showgrid="false"
     id="namedview6"
     inkscape:window-height="709"
     inkscape:window-width="1366"
     inkscape:pageshadow="2"
     inkscape:pageopacity="0"
     guidetolerance="10"
     gridtolerance="10"
     objecttolerance="10"
     borderopacity="1"
     bordercolor="#666666"
     pagecolor="#ffffff">
    <sodipodi:guide
       id="guide2989"
       position="260.08346,471.00503"
       orientation="0,1" />
    <sodipodi:guide
       id="guide2991"
       position="267.59322,40.983051"
       orientation="0,1" />
    <sodipodi:guide
       id="guide2993"
       position="40.940284,84.756935"
       orientation="1,0" />
    <sodipodi:guide
       id="guide2995"
       position="471.05085,254.98305"
       orientation="1,0" />
  </sodipodi:namedview>
  <metadata
     id="metadata10">
    <rdf:RDF>
      <cc:Work
         rdf:about="">
        <dc:format>image/svg+xml</dc:format>
        <dc:type
           rdf:resource="http://purl.org/dc/dcmitype/StillImage" />
        <dc:title></dc:title>
      </cc:Work>
    </rdf:RDF>
  </metadata>
  <defs
     id="defs8">
    <clipPath
       id="0-2">
      <path
         id="path180371"
         d="m26 0c-14.397 0-26 11.603-26 26v460c0 14.397 11.603 26 26 26h460c14.397 0 26-11.603 26-26v-460c0-14.397-11.603-26-26-26h-460" />
    </clipPath>
  </defs>
  <path
     inkscape:connector-curvature="0"
     d="M 26,0 C 11.603,0 0,11.603 0,26 l 0,460 c 0,14.397 11.603,26 26,26 l 460,0 c 14.397,0 26,-11.603 26,-26 L 512,26 C 512,11.603 500.397,0 486,0 L 26,0"
     style="fill:#ed6f1e"
     id="path180997" />
  <text
     sodipodi:linespacing="125%"
     y="97.709999"
     x="-299.53"
     line-height="125%"
     style="font-size:129.22999573px;line-height:125%;font-family:'Gentium Book Basic';letter-spacing:0;word-spacing:0"
     id="text180999">
    <tspan
       y="97.709999"
       x="-299.53"
       id="tspan181001" />
  </text>
  <text
     transform="scale(4.0128205,0.24920128)"
     y="42.936779"
     x="122.43938"
     style="font-size:46.95399857px;font-family:Arial;text-anchor:middle"
     id="text181003" />
  <text
     sodipodi:linespacing="125%"
     y="17.708"
     x="281.73999"
     line-height="125%"
     style="font-size:129.22999573px;line-height:125%;font-family:'Gentium Book Basic';letter-spacing:0;word-spacing:0"
     id="text181005">
    <tspan
       y="17.708"
       x="281.73999"
       id="tspan181007" />
  </text>
  <text
     transform="scale(4.0128205,0.24920128)"
     y="-278.09857"
     x="267.28864"
     style="font-size:46.95399857px;font-family:Arial;text-anchor:middle"
     id="text181009" />
  <text
     sodipodi:linespacing="125%"
     y="-163.55"
     x="-789.84003"
     line-height="125%"
     style="font-size:129.22999573px;line-height:125%;font-family:'Gentium Book Basic';letter-spacing:0;word-spacing:0"
     id="text181011">
    <tspan
       y="-163.55"
       x="-789.84003"
       id="tspan181013" />
  </text>
  <text
     transform="scale(4.0128205,0.24920128)"
     y="-1005.4449"
     x="0.24899872"
     style="font-size:46.95399857px;font-family:Arial;text-anchor:middle"
     id="text181015" />
  <text
     sodipodi:linespacing="125%"
     y="-380.01999"
     x="308.20999"
     line-height="125%"
     style="font-size:129.22999573px;line-height:125%;font-family:'Gentium Book Basic';letter-spacing:0;word-spacing:0"
     id="text181017">
    <tspan
       y="-380.01999"
       x="308.20999"
       id="tspan181019" />
  </text>
  <text
     transform="scale(4.0128205,0.24920128)"
     y="-1874.1104"
     x="273.88861"
     style="font-size:46.95399857px;font-family:Arial;text-anchor:middle"
     id="text181021" />
  <text
     sodipodi:linespacing="125%"
     y="-460.01999"
     x="889.47998"
     line-height="125%"
     style="font-size:129.22999573px;line-height:125%;font-family:'Gentium Book Basic';letter-spacing:0;word-spacing:0"
     id="text181023">
    <tspan
       y="-460.01999"
       x="889.47998"
       id="tspan181025" />
  </text>
  <text
     transform="scale(4.0128205,0.24920128)"
     y="-2195.1387"
     x="418.73785"
     style="font-size:46.95399857px;font-family:Arial;text-anchor:middle"
     id="text181027" />
  <text
     sodipodi:linespacing="125%"
     y="-932.41998"
     x="500.35999"
     line-height="125%"
     style="font-size:129.22999573px;line-height:125%;font-family:'Gentium Book Basic';letter-spacing:0;word-spacing:0"
     id="text181029">
    <tspan
       y="-932.41998"
       x="500.35999"
       id="tspan181031" />
  </text>
  <text
     transform="scale(4.0128205,0.24920128)"
     y="-4090.7791"
     x="321.76834"
     style="font-size:46.95399857px;font-family:Arial;text-anchor:middle"
     id="text181033" />
  <text
     sodipodi:linespacing="125%"
     y="-1012.43"
     x="1081.62"
     line-height="125%"
     style="font-size:129.22999573px;line-height:125%;font-family:'Gentium Book Basic';letter-spacing:0;word-spacing:0"
     id="text181035">
    <tspan
       y="-1012.43"
       x="1081.62"
       id="tspan181037" />
  </text>
  <text
     transform="scale(4.0128205,0.24920128)"
     y="-4411.8174"
     x="466.61761"
     style="font-size:46.95399857px;font-family:Arial;text-anchor:middle"
     id="text181039" />
  <text
     sodipodi:linespacing="125%"
     y="402.29001"
     x="-751.17999"
     line-height="125%"
     style="font-size:208.33000183px;line-height:125%;font-family:'Gentium Book Basic';letter-spacing:0;word-spacing:0"
     id="text181041">
    <tspan
       y="402.29001"
       x="-751.17999"
       id="tspan181043" />
  </text>
  <path
     style="fill-rule:evenodd;opacity:0.25"
     d="M 288.75977 47.568359 L 41.001953 91.291016 L 41 91.291016 L 41 421.24023 L 131.75977 512 L 486 512 C 500.397 512 512 500.397 512 486 L 512 137.07227 L 470.73242 95.804688 L 470.73047 95.800781 C 470.55786 95.628168 470.31527 95.521205 470.05078 95.519531 L 400.74023 95.519531 L 367.50977 95.519531 L 336.71094 95.519531 L 288.75977 47.568359 z "
     id="path181047" />
  <path
     inkscape:connector-curvature="0"
     d="M 288.76,47.569 41,91.291 l 0,329.95 247.76,43.19 z m 9.437,47.951 0,0.925 0,24.557 0,20.2 c 12.427,-10.698 28.28,-16.588 44.673,-16.6 l 0,68.57 68.54,0 c 0,27.728 -16.703,52.725 -42.32,63.34 -23.9,9.858 -51.31,5.432 -70.896,-11.446 l 0,31.985 0,13.349 0,17.261 142,0 0,13.481 -142,0 0,12.345 0,13.376 0,6.503 142,0 0,13.481 -142,0 0,23.1 0,24.557 0,0.952 0.925,0 68.38,0 33.23,0 69.31,0 c 0.52,0 0.952,-0.432 0.952,-0.952 l 0,-318.05 c 0,-0.52 -0.432,-0.925 -0.952,-0.925 l -69.31,0 -33.23,0 -68.38,0 z m 55.27,30 c 29.918,4.718 53.19,28.51 57.26,58.52 l -57.26,0 z m -238.08,49.901 44.47,0 c 17.304,0 30.681,4.215 40.16,12.641 9.555,8.426 14.348,20.315 14.348,35.662 0,15.348 -5.309,27.912 -15.916,37.692 -10.533,9.78 -24.786,14.671 -42.767,14.671 l -21.337,0 0,61.17 -18.961,0 z m 18.961,17.16 0,66.36 19.861,0 c 13.09,0 23.07,-2.984 29.918,-8.927 6.921,-6.02 10.38,-14.488 10.38,-25.397 0,-21.366 -12.644,-32.04 -37.923,-32.04 z"
     style="fill:#ffffff;fill-rule:evenodd"
     id="path181157" />
</svg>
