<?xml version="1.0" encoding="UTF-8" standalone="no"?>
<svg
   xmlns:dc="http://purl.org/dc/elements/1.1/"
   xmlns:cc="http://creativecommons.org/ns#"
   xmlns:rdf="http://www.w3.org/1999/02/22-rdf-syntax-ns#"
   xmlns:svg="http://www.w3.org/2000/svg"
   xmlns="http://www.w3.org/2000/svg"
   xmlns:xlink="http://www.w3.org/1999/xlink"
   xmlns:sodipodi="http://sodipodi.sourceforge.net/DTD/sodipodi-0.dtd"
   xmlns:inkscape="http://www.inkscape.org/namespaces/inkscape"
   viewBox="0 0 512 512"
   id="svg2"
   version="1.1"
   inkscape:version="0.91+devel r13804 custom"
   width="100%"
   height="100%"
   sodipodi:docname="musique.svg">
  <sodipodi:namedview
     inkscape:current-layer="svg2"
     inkscape:window-maximized="1"
     inkscape:window-y="-3"
     inkscape:window-x="-2"
     inkscape:cy="263.11761"
     inkscape:cx="324.73321"
     inkscape:zoom="0.4609375"
     inkscape:guide-bbox="true"
     showguides="true"
     showgrid="false"
     id="namedview6"
     inkscape:window-height="709"
     inkscape:window-width="1366"
     inkscape:pageshadow="2"
     inkscape:pageopacity="0"
     guidetolerance="10"
     gridtolerance="10"
     objecttolerance="10"
     borderopacity="1"
     bordercolor="#666666"
     pagecolor="#ffffff">
    <sodipodi:guide
       id="guide2989"
       position="260.08346,471.00503"
       orientation="0,1" />
    <sodipodi:guide
       id="guide2991"
       position="267.59322,40.983051"
       orientation="0,1" />
    <sodipodi:guide
       id="guide2993"
       position="40.940284,84.756935"
       orientation="1,0" />
    <sodipodi:guide
       id="guide2995"
       position="471.05085,254.98305"
       orientation="1,0" />
  </sodipodi:namedview>
  <metadata
     id="metadata10">
    <rdf:RDF>
      <cc:Work
         rdf:about="">
        <dc:format>image/svg+xml</dc:format>
        <dc:type
           rdf:resource="http://purl.org/dc/dcmitype/StillImage" />
        <dc:title></dc:title>
      </cc:Work>
    </rdf:RDF>
  </metadata>
  <defs
     id="defs8" />
  <path
     inkscape:connector-curvature="0"
     d="M 26,0 C 11.603,0 0,11.603 0,26 l 0,460 c 0,14.397 11.603,26 26,26 l 460,0 c 14.397,0 26,-11.603 26,-26 L 512,26 C 512,11.603 500.397,0 486,0 L 26,0"
     style="fill:#1284b7"
     id="path214253" />
  <text
     sodipodi:linespacing="125%"
     y="-328.76001"
     x="-367.03"
     line-height="125%"
     style="font-size:129.22999573px;line-height:125%;font-family:'Gentium Book Basic';letter-spacing:0;word-spacing:0"
     id="text214255">
    <tspan
       y="-328.76001"
       x="-367.03"
       id="tspan214257" />
  </text>
  <text
     transform="scale(4.0128205,0.24920128)"
     y="-1668.4115"
     x="105.61946"
     style="font-size:46.95399857px;font-family:Arial;text-anchor:middle"
     id="text214259" />
  <text
     sodipodi:linespacing="125%"
     y="-408.76001"
     x="214.24001"
     line-height="125%"
     style="font-size:129.22999573px;line-height:125%;font-family:'Gentium Book Basic';letter-spacing:0;word-spacing:0"
     id="text214261">
    <tspan
       y="-408.76001"
       x="214.24001"
       id="tspan214263" />
  </text>
  <text
     transform="scale(4.0128205,0.24920128)"
     y="-1989.4398"
     x="250.46872"
     style="font-size:46.95399857px;font-family:Arial;text-anchor:middle"
     id="text214265" />
  <text
     sodipodi:linespacing="125%"
     y="-590.02002"
     x="-857.34003"
     line-height="125%"
     style="font-size:129.22999573px;line-height:125%;font-family:'Gentium Book Basic';letter-spacing:0;word-spacing:0"
     id="text214267">
    <tspan
       y="-590.02002"
       x="-857.34003"
       id="tspan214269" />
  </text>
  <text
     transform="scale(4.0128205,0.24920128)"
     y="-2716.7861"
     x="-16.571917"
     style="font-size:46.95399857px;font-family:Arial;text-anchor:middle"
     id="text214271" />
  <text
     sodipodi:linespacing="125%"
     y="-806.48999"
     x="240.71001"
     line-height="125%"
     style="font-size:129.22999573px;line-height:125%;font-family:'Gentium Book Basic';letter-spacing:0;word-spacing:0"
     id="text214273">
    <tspan
       y="-806.48999"
       x="240.71001"
       id="tspan214275" />
  </text>
  <text
     transform="scale(4.0128205,0.24920128)"
     y="-3585.4517"
     x="257.0687"
     style="font-size:46.95399857px;font-family:Arial;text-anchor:middle"
     id="text214277" />
  <text
     sodipodi:linespacing="125%"
     y="-886.5"
     x="821.97998"
     line-height="125%"
     style="font-size:129.22999573px;line-height:125%;font-family:'Gentium Book Basic';letter-spacing:0;word-spacing:0"
     id="text214279">
    <tspan
       y="-886.5"
       x="821.97998"
       id="tspan214281" />
  </text>
  <text
     transform="scale(4.0128205,0.24920128)"
     y="-3906.49"
     x="401.91797"
     style="font-size:46.95399857px;font-family:Arial;text-anchor:middle"
     id="text214283" />
  <text
     sodipodi:linespacing="125%"
     y="-1358.9"
     x="432.85999"
     line-height="125%"
     style="font-size:129.22999573px;line-height:125%;font-family:'Gentium Book Basic';letter-spacing:0;word-spacing:0"
     id="text214285">
    <tspan
       y="-1358.9"
       x="432.85999"
       id="tspan214287" />
  </text>
  <text
     transform="scale(4.0128205,0.24920128)"
     y="-5802.1304"
     x="304.94846"
     style="font-size:46.95399857px;font-family:Arial;text-anchor:middle"
     id="text214289" />
  <text
     sodipodi:linespacing="125%"
     y="-1438.9"
     x="1014.12"
     line-height="125%"
     style="font-size:129.22999573px;line-height:125%;font-family:'Gentium Book Basic';letter-spacing:0;word-spacing:0"
     id="text214291">
    <tspan
       y="-1438.9"
       x="1014.12"
       id="tspan214293" />
  </text>
  <text
     transform="scale(4.0128205,0.24920128)"
     y="-6123.1587"
     x="449.7977"
     style="font-size:46.95399857px;font-family:Arial;text-anchor:middle"
     id="text214295" />
  <text
     sodipodi:linespacing="125%"
     y="-24.18"
     x="-818.67999"
     line-height="125%"
     style="font-size:208.33000183px;line-height:125%;font-family:'Gentium Book Basic';letter-spacing:0;word-spacing:0"
     id="text214297">
    <tspan
       y="-24.18"
       x="-818.67999"
       id="tspan214299" />
  </text>
  <use
     y="0"
     x="0"
     xlink:href="#0"
     height="1"
     width="1"
     id="use214301" />
  <path
     d="M 419.79688 41.001953 C 419.44286 41.007598 419.09019 41.022831 418.73828 41.046875 L 418.73047 41.039062 C 340.18047 52.569063 261.14094 60.969375 182.71094 73.109375 C 170.66094 79.326375 170.98759 94.91825 172.30859 106.53125 L 230.91602 165.13867 L 230.91016 165.14062 L 172.31055 106.53906 C 171.82857 187.64516 172.22455 268.75305 172.09961 349.86914 C 133.29761 346.57714 90.910625 366.65828 75.640625 403.73828 L 75.640625 403.74023 C 68.649625 421.25323 74.135594 442.04984 87.183594 455.08984 L 87.429688 455.33594 C 87.348016 455.25545 87.260778 455.1807 87.179688 455.09961 L 144.08008 512 L 486 512 C 500.397 512 512 500.397 512 486 L 512 124.23633 L 434.48047 46.716797 C 430.69297 42.929297 425.15596 40.916498 419.79688 41.001953 z "
     id="path214305"
     style="opacity:0.25" />
  <path
     inkscape:connector-curvature="0"
     id="0"
     d="m 418.73,41.04 c -78.55,11.53 -157.59,19.93 -236.02,32.07 -12.05,6.217 -11.722,21.809 -10.401,33.422 -0.482,81.11 -0.085,162.22 -0.21,243.34 -38.802,-3.292 -81.19,16.788 -96.46,53.868 -9.669,24.22 4.527,54.712 29.585,62.32 31.11,11.961 67.64,1.148 91.33,-21.1 16.701,-16.402 24.25,-40.33 22.541,-63.46 0.252,-60.06 -0.068,-120.12 0.15,-180.17 l 0,-34.441 172.84,-25.808 c -0.133,54.54 0.241,109.09 -0.21,163.63 -38.982,-3.195 -81.64,17.16 -96.55,54.644 -9.09,24.12 5.17,54.18 30.03,61.63 31.73,11.982 68.75,0.726 92.35,-22.362 15.953,-16.223 22.824,-39.528 21.342,-61.954 0.485,-54.19 -0.369,-108.39 0.24,-162.58 0.079,-40.83 0.63,-81.78 -1.469,-122.54 -3.217,-7.198 -11.471,-11.01 -19.09,-10.492"
     style="fill:#ffffff" />
</svg>
