<?xml version="1.0" encoding="UTF-8" standalone="no"?>
<svg
   xmlns:dc="http://purl.org/dc/elements/1.1/"
   xmlns:cc="http://creativecommons.org/ns#"
   xmlns:rdf="http://www.w3.org/1999/02/22-rdf-syntax-ns#"
   xmlns:svg="http://www.w3.org/2000/svg"
   xmlns="http://www.w3.org/2000/svg"
   xmlns:sodipodi="http://sodipodi.sourceforge.net/DTD/sodipodi-0.dtd"
   xmlns:inkscape="http://www.inkscape.org/namespaces/inkscape"
   viewBox="0 0 512 512"
   id="svg2"
   version="1.1"
   inkscape:version="0.91+devel r13804 custom"
   width="100%"
   height="100%"
   sodipodi:docname="netbeans-beta.svg">
  <sodipodi:namedview
     inkscape:current-layer="svg2"
     inkscape:window-maximized="1"
     inkscape:window-y="-3"
     inkscape:window-x="-2"
     inkscape:cy="263.11761"
     inkscape:cx="324.73321"
     inkscape:zoom="0.4609375"
     inkscape:guide-bbox="true"
     showguides="true"
     showgrid="false"
     id="namedview6"
     inkscape:window-height="709"
     inkscape:window-width="1366"
     inkscape:pageshadow="2"
     inkscape:pageopacity="0"
     guidetolerance="10"
     gridtolerance="10"
     objecttolerance="10"
     borderopacity="1"
     bordercolor="#666666"
     pagecolor="#ffffff">
    <sodipodi:guide
       id="guide2989"
       position="260.08346,471.00503"
       orientation="0,1" />
    <sodipodi:guide
       id="guide2991"
       position="267.59322,40.983051"
       orientation="0,1" />
    <sodipodi:guide
       id="guide2993"
       position="40.940284,84.756935"
       orientation="1,0" />
    <sodipodi:guide
       id="guide2995"
       position="471.05085,254.98305"
       orientation="1,0" />
  </sodipodi:namedview>
  <metadata
     id="metadata10">
    <rdf:RDF>
      <cc:Work
         rdf:about="">
        <dc:format>image/svg+xml</dc:format>
        <dc:type
           rdf:resource="http://purl.org/dc/dcmitype/StillImage" />
        <dc:title></dc:title>
      </cc:Work>
    </rdf:RDF>
  </metadata>
  <defs
     id="defs8" />
  <rect
     y="0"
     x="0"
     rx="25.988001"
     height="512"
     width="512"
     style="fill:#0078ad"
     id="rect216091" />
  <text
     sodipodi:linespacing="125%"
     y="185.14999"
     x="217.45"
     line-height="125%"
     style="font-size:129.22999573px;line-height:125%;font-family:'Gentium Book Basic';letter-spacing:0;word-spacing:0"
     id="text216093">
    <tspan
       y="185.14999"
       x="217.45"
       id="tspan216095" />
  </text>
  <text
     transform="scale(4.0128205,0.24920128)"
     y="393.80798"
     x="251.26872"
     style="font-size:46.95399857px;font-family:Arial;text-anchor:middle"
     id="text216097" />
  <text
     sodipodi:linespacing="125%"
     y="105.15"
     x="798.71997"
     line-height="125%"
     style="font-size:129.22999573px;line-height:125%;font-family:'Gentium Book Basic';letter-spacing:0;word-spacing:0"
     id="text216099">
    <tspan
       y="105.15"
       x="798.71997"
       id="tspan216101" />
  </text>
  <text
     transform="scale(4.0128205,0.24920128)"
     y="72.789627"
     x="396.11798"
     style="font-size:46.95399857px;font-family:Arial;text-anchor:middle"
     id="text216103" />
  <text
     sodipodi:linespacing="125%"
     y="-76.110001"
     x="-272.85999"
     line-height="125%"
     style="font-size:129.22999573px;line-height:125%;font-family:'Gentium Book Basic';letter-spacing:0;word-spacing:0"
     id="text216105">
    <tspan
       y="-76.110001"
       x="-272.85999"
       id="tspan216107" />
  </text>
  <text
     transform="scale(4.0128205,0.24920128)"
     y="-654.56665"
     x="129.07935"
     style="font-size:46.95399857px;font-family:Arial;text-anchor:middle"
     id="text216109" />
  <text
     sodipodi:linespacing="125%"
     y="-292.57999"
     x="825.19"
     line-height="125%"
     style="font-size:129.22999573px;line-height:125%;font-family:'Gentium Book Basic';letter-spacing:0;word-spacing:0"
     id="text216111">
    <tspan
       y="-292.57999"
       x="825.19"
       id="tspan216113" />
  </text>
  <text
     transform="scale(4.0128205,0.24920128)"
     y="-1523.2322"
     x="402.71793"
     style="font-size:46.95399857px;font-family:Arial;text-anchor:middle"
     id="text216115" />
  <text
     sodipodi:linespacing="125%"
     y="-372.59"
     x="1406.46"
     line-height="125%"
     style="font-size:129.22999573px;line-height:125%;font-family:'Gentium Book Basic';letter-spacing:0;word-spacing:0"
     id="text216117">
    <tspan
       y="-372.59"
       x="1406.46"
       id="tspan216119" />
  </text>
  <text
     transform="scale(4.0128205,0.24920128)"
     y="-1844.2606"
     x="547.5672"
     style="font-size:46.95399857px;font-family:Arial;text-anchor:middle"
     id="text216121" />
  <text
     sodipodi:linespacing="125%"
     y="-844.98999"
     x="1017.34"
     line-height="125%"
     style="font-size:129.22999573px;line-height:125%;font-family:'Gentium Book Basic';letter-spacing:0;word-spacing:0"
     id="text216123">
    <tspan
       y="-844.98999"
       x="1017.34"
       id="tspan216125" />
  </text>
  <text
     transform="scale(4.0128205,0.24920128)"
     y="-3739.9109"
     x="450.59769"
     style="font-size:46.95399857px;font-family:Arial;text-anchor:middle"
     id="text216127" />
  <text
     sodipodi:linespacing="125%"
     y="-924.98999"
     x="1598.6"
     line-height="125%"
     style="font-size:129.22999573px;line-height:125%;font-family:'Gentium Book Basic';letter-spacing:0;word-spacing:0"
     id="text216129">
    <tspan
       y="-924.98999"
       x="1598.6"
       id="tspan216131" />
  </text>
  <text
     transform="scale(4.0128205,0.24920128)"
     y="-4060.9292"
     x="595.44696"
     style="font-size:46.95399857px;font-family:Arial;text-anchor:middle"
     id="text216133" />
  <text
     sodipodi:linespacing="125%"
     y="489.73001"
     x="-234.2"
     line-height="125%"
     style="font-size:208.33000183px;line-height:125%;font-family:'Gentium Book Basic';letter-spacing:0;word-spacing:0"
     id="text216135">
    <tspan
       y="489.73001"
       x="-234.2"
       id="tspan216137" />
  </text>
  <path
     style="color:#000000;opacity:0.25"
     d="M 211.05078 27.550781 C 201.99078 27.550781 194.64648 34.894125 194.64648 43.953125 L 211.04688 60.353516 L 211.04102 60.353516 L 194.64062 43.953125 C 194.64062 48.483125 196.47536 52.583734 199.44336 55.552734 L 213.83398 69.943359 L 207.22266 70.494141 L 189.22266 52.494141 L 189.23242 52.511719 L 189.2207 52.5 L 73.375 117.9668 L 73.369141 117.96094 L 73.373047 117.96875 L 73.369141 117.9707 L 73.382812 117.98438 L 80.058594 129.72461 L 80.050781 129.73047 L 90.779297 140.45898 L 81.130859 137.53516 L 101.48242 157.88672 L 101.47656 157.88477 L 81.130859 137.53906 L 80.648438 139.125 L 68.691406 127.16797 C 68.719484 127.19461 68.743596 127.22511 68.771484 127.25195 L 68.689453 127.16992 C 65.748453 124.37992 61.776344 122.66992 57.402344 122.66992 L 57.400391 122.66992 C 48.340391 122.66992 40.996094 130.01327 40.996094 139.07227 L 41 139.07617 C 41.001598 143.60382 42.83798 147.70221 45.804688 150.66992 L 60.277344 165.14258 L 55.933594 165.72656 L 55.9375 165.73047 L 79.810547 341.33984 L 86.867188 348.39648 C 86.532442 348.37604 86.201164 348.34188 85.861328 348.3418 L 85.859375 348.33984 C 76.799375 348.33984 69.457031 355.68319 69.457031 364.74219 L 85.865234 381.15039 L 85.861328 381.15039 L 69.460938 364.75 C 69.460938 369.28 71.295672 373.38061 74.263672 376.34961 L 74.302734 376.38867 C 74.288994 376.37503 74.273458 376.3633 74.259766 376.34961 L 209.91016 512 L 486.01172 512 C 500.40907 512 512 500.40907 512 486.01172 L 512 124.93164 L 466.19922 79.130859 C 463.23208 76.163722 459.1329 74.327239 454.60547 74.326172 L 454.59961 74.320312 C 446.81834 74.320312 440.31679 79.743395 438.63281 87.011719 L 432.14062 80.519531 L 234.82031 42.490234 L 234.48828 44.193359 L 222.65039 32.355469 C 219.68239 29.387469 215.57978 27.550781 211.05078 27.550781 z "
     id="path216141" />
  <path
     inkscape:connector-curvature="0"
     d="m 211.05,27.551 c -9.06,0 -16.403,7.344 -16.403,16.403 0,9.06 7.344,16.403 16.403,16.403 9.06,0 16.403,-7.344 16.403,-16.403 0,-9.06 -7.344,-16.403 -16.403,-16.403 m 23.775,14.939 -2.587,13.279 197.37,38.03 2.539,-13.279 -197.32,-38.03 m -45.601,10.01 -115.85,65.47 6.688,11.765 115.85,-65.52 -6.688,-11.716 m 30.658,16.94 -13.474,1.123 8.934,107.64 -134.21,-40.664 -3.954,12.987 139.33,42.18 2.49,29.776 13.474,-1.123 -2,-24.409 21.333,6.444 3.905,-12.937 -26.461,-8.01 -9.373,-113.01 m 234.72,4.882 c -9.06,0 -16.403,7.344 -16.403,16.403 0,9.06 7.344,16.403 16.403,16.403 9.06,0 16.403,-7.344 16.403,-16.403 0,-9.06 -7.344,-16.403 -16.403,-16.403 m -21.529,28.559 -135.82,89.78 7.42,11.278 135.86,-89.78 -7.469,-11.278 m 13.669,12.351 0,205.63 13.572,0 0,-205.62 -13.572,0 m -389.33,7.42 c -9.06,0 -16.403,7.344 -16.403,16.403 0,9.06 7.344,16.403 16.403,16.403 9.06,0 16.403,-7.344 16.403,-16.403 0,-9.06 -7.344,-16.403 -16.403,-16.403 m 11.96,41.25 -13.426,1.806 23.872,175.61 13.426,-1.856 -23.872,-175.54 m 207.77,26.851 c -9.06,0 -16.403,7.344 -16.403,16.403 0,9.06 7.344,16.403 16.403,16.403 9.06,0 16.403,-7.344 16.403,-16.403 0,-9.06 -7.344,-16.403 -16.403,-16.403 m -45.01,40.23 c -9.06,0 -16.403,7.344 -16.403,16.403 0,9.06 7.344,16.403 16.403,16.403 9.06,0 16.403,-7.344 16.403,-16.403 0,-9.06 -7.344,-16.403 -16.403,-16.403 m 57.46,1.319 -13.474,0.88 1.661,26.07 -21.19,-9.467 -5.566,12.351 27.729,12.401 10.203,161.16 13.522,-0.88 -9.812,-154.02 134.88,60.29 5.516,-12.351 -141.38,-63.22 -2.1,-33.2 m -79.38,24.898 -112.48,85.77 8.202,10.74 112.48,-85.77 -8.202,-10.74 m 239.7,74.11 c -9.06,0 -16.403,7.344 -16.403,16.403 0,9.06 7.344,16.403 16.403,16.403 9.06,0 16.403,-7.344 16.403,-16.403 0,-9.06 -7.344,-16.403 -16.403,-16.403 m -364.04,16.989 c -9.06,0 -16.403,7.344 -16.403,16.403 0,9.06 7.344,16.403 16.403,16.403 9.06,0 16.403,-7.344 16.403,-16.403 0,-9.06 -7.344,-16.403 -16.403,-16.403 m 340.7,11.96 -110.09,91.78 8.641,10.398 110.09,-91.73 -8.641,-10.448 m -313.66,6.01 -6.347,11.96 165.2,86.84 6.296,-11.96 -165.16,-86.84 m 185.37,85.34 c -9.06,0 -16.403,7.344 -16.403,16.403 0,9.06 7.344,16.403 16.403,16.403 9.06,0 16.403,-7.344 16.403,-16.403 0,-9.06 -7.344,-16.403 -16.403,-16.403"
     style="color:#000000;fill:#ffffff"
     id="path216343" />
</svg>
