<?xml version="1.0" encoding="UTF-8" standalone="no"?>
<svg
   xmlns:dc="http://purl.org/dc/elements/1.1/"
   xmlns:cc="http://creativecommons.org/ns#"
   xmlns:rdf="http://www.w3.org/1999/02/22-rdf-syntax-ns#"
   xmlns:svg="http://www.w3.org/2000/svg"
   xmlns="http://www.w3.org/2000/svg"
   xmlns:xlink="http://www.w3.org/1999/xlink"
   xmlns:sodipodi="http://sodipodi.sourceforge.net/DTD/sodipodi-0.dtd"
   xmlns:inkscape="http://www.inkscape.org/namespaces/inkscape"
   viewBox="0 0 512 512"
   id="svg2"
   version="1.1"
   inkscape:version="0.91+devel r13804 custom"
   width="100%"
   height="100%"
   sodipodi:docname="omg-ubuntu.svg">
  <sodipodi:namedview
     inkscape:current-layer="svg2"
     inkscape:window-maximized="1"
     inkscape:window-y="-3"
     inkscape:window-x="-2"
     inkscape:cy="243.59219"
     inkscape:cx="344.25863"
     inkscape:zoom="0.4609375"
     inkscape:guide-bbox="true"
     showguides="true"
     showgrid="false"
     id="namedview6"
     inkscape:window-height="709"
     inkscape:window-width="1366"
     inkscape:pageshadow="2"
     inkscape:pageopacity="0"
     guidetolerance="10"
     gridtolerance="10"
     objecttolerance="10"
     borderopacity="1"
     bordercolor="#666666"
     pagecolor="#ffffff">
    <sodipodi:guide
       id="guide2989"
       position="260.08346,471.00503"
       orientation="0,1" />
    <sodipodi:guide
       id="guide2991"
       position="267.59322,40.983051"
       orientation="0,1" />
    <sodipodi:guide
       id="guide2993"
       position="40.940284,84.756935"
       orientation="1,0" />
    <sodipodi:guide
       id="guide2995"
       position="471.05085,254.98305"
       orientation="1,0" />
  </sodipodi:namedview>
  <metadata
     id="metadata10">
    <rdf:RDF>
      <cc:Work
         rdf:about="">
        <dc:format>image/svg+xml</dc:format>
        <dc:type
           rdf:resource="http://purl.org/dc/dcmitype/StillImage" />
        <dc:title></dc:title>
      </cc:Work>
    </rdf:RDF>
  </metadata>
  <defs
     id="defs8">
    <clipPath
       id="0-7">
      <path
         id="path233729"
         d="m26 0c-14.397 0-26 11.603-26 26v460c0 14.397 11.603 26 26 26h460c14.397 0 26-11.603 26-26v-460c0-14.397-11.603-26-26-26h-460" />
    </clipPath>
    <clipPath
       id="1">
      <path
         id="path236671"
         style="fill:#1890d0;stroke-width:15.333"
         d="m47 24c0 12.708-10.304 23-23 23-12.696 0-23-10.292-23-23 0-12.708 10.304-23 23-23 12.696 0 23 10.292 23 23" />
    </clipPath>
    <clipPath
       id="clipPath236673">
      <rect
         id="rect236675"
         style="fill:#fff"
         width="84"
         height="84"
         rx="6"
         x="6"
         y="6" />
    </clipPath>
    <clipPath
       id="3">
      <path
         id="path236678"
         d="m26 0c-14.397 0-26 11.603-26 26v460c0 14.397 11.603 26 26 26h460c14.397 0 26-11.603 26-26v-460c0-14.397-11.603-26-26-26h-460" />
    </clipPath>
    <clipPath
       id="2">
      <path
         id="path236681"
         style="fill:#1890d0;stroke-width:15.333"
         d="m47 24c0 12.708-10.304 23-23 23-12.696 0-23-10.292-23-23 0-12.708 10.304-23 23-23 12.696 0 23 10.292 23 23" />
    </clipPath>
    <filter
       id="filter236683"
       style="color-interpolation-filters:sRGB">
      <feGaussianBlur
         id="feGaussianBlur236685"
         stdDeviation="1.71" />
    </filter>
    <filter
       id="filter236687"
       style="color-interpolation-filters:sRGB"
       x="-.192"
       y="-.192"
       width="1.384"
       height="1.384">
      <feGaussianBlur
         id="feGaussianBlur236689"
         stdDeviation="5.28" />
    </filter>
    <linearGradient
       y1="92.54"
       x2="0"
       y2="7.02"
       id="0"
       gradientUnits="userSpaceOnUse"
       gradientTransform="scale(1.0059.99417)">
      <stop
         id="stop236692" />
      <stop
         id="stop236694"
         style="stop-opacity:.588"
         offset="1" />
    </linearGradient>
    <linearGradient
       id="linearGradient236696"
       y1="20.221"
       x2="0"
       y2="138.66"
       gradientUnits="userSpaceOnUse">
      <stop
         id="stop236698"
         style="stop-color:#fff" />
      <stop
         id="stop236700"
         style="stop-color:#fff;stop-opacity:0"
         offset="1" />
    </linearGradient>
    <linearGradient
       id="linearGradient236702"
       y1="92.54"
       x2="0"
       y2="7.02"
       gradientUnits="userSpaceOnUse"
       gradientTransform="scale(1.0059.99417)">
      <stop
         id="stop236704" />
      <stop
         id="stop236706"
         style="stop-opacity:.588"
         offset="1" />
    </linearGradient>
    <linearGradient
       id="linearGradient236708"
       y1="92.54"
       x2="0"
       y2="7.02"
       xlink:href="#0"
       gradientUnits="userSpaceOnUse"
       gradientTransform="scale(1.0059.99417)" />
    <linearGradient
       id="linearGradient236710"
       y1="92.54"
       x2="0"
       y2="7.02"
       xlink:href="#0"
       gradientUnits="userSpaceOnUse"
       gradientTransform="scale(1.0059.99417)" />
    <linearGradient
       id="linearGradient236712"
       y1="92.54"
       x2="0"
       y2="7.02"
       xlink:href="#0"
       gradientUnits="userSpaceOnUse"
       gradientTransform="scale(1.0059.99417)" />
    <clipPath
       id="0-3">
      <path
         id="path268585"
         d="m26 0c-14.397 0-26 11.603-26 26v460c0 14.397 11.603 26 26 26h460c14.397 0 26-11.603 26-26v-460c0-14.397-11.603-26-26-26h-460" />
    </clipPath>
    <clipPath
       id="0-37">
      <path
         id="path270505"
         d="m26 0c-14.397 0-26 11.603-26 26v460c0 14.397 11.603 26 26 26h460c14.397 0 26-11.603 26-26v-460c0-14.397-11.603-26-26-26h-460" />
    </clipPath>
  </defs>
  <path
     inkscape:connector-curvature="0"
     d="m 25.9999,-4.91e-4 c -14.397,0 -26,11.603 -26,26 l 0,460.000001 c 0,14.397 11.603,26 26,26 l 460,0 c 14.397,0 26,-11.603 26,-26 l 0,-460.000001 c 0,-14.397 -11.603,-26 -26,-26 l -460,0"
     style="fill:#f15a24"
     id="path270507" />
  <text
     sodipodi:linespacing="125%"
     y="51.685509"
     x="59.439903"
     line-height="125%"
     style="font-size:129.22999573px;line-height:125%;font-family:'Gentium Book Basic';letter-spacing:0;word-spacing:0"
     id="text270509">
    <tspan
       y="51.685509"
       x="59.439903"
       id="tspan270511" />
  </text>
  <text
     transform="scale(4.0128205,0.24920128)"
     y="-141.74124"
     x="211.88889"
     style="font-size:46.95399857px;font-family:Arial;text-anchor:middle"
     id="text270513" />
  <text
     sodipodi:linespacing="125%"
     y="-28.314493"
     x="640.7099"
     line-height="125%"
     style="font-size:129.22999573px;line-height:125%;font-family:'Gentium Book Basic';letter-spacing:0;word-spacing:0"
     id="text270515">
    <tspan
       y="-28.314493"
       x="640.7099"
       id="tspan270517" />
  </text>
  <text
     transform="scale(4.0128205,0.24920128)"
     y="-462.77963"
     x="356.73813"
     style="font-size:46.95399857px;font-family:Arial;text-anchor:middle"
     id="text270519" />
  <text
     sodipodi:linespacing="125%"
     y="-209.5705"
     x="-430.87009"
     line-height="125%"
     style="font-size:129.22999573px;line-height:125%;font-family:'Gentium Book Basic';letter-spacing:0;word-spacing:0"
     id="text270521">
    <tspan
       y="-209.5705"
       x="-430.87009"
       id="tspan270523" />
  </text>
  <text
     transform="scale(4.0128205,0.24920128)"
     y="-1190.1158"
     x="89.699516"
     style="font-size:46.95399857px;font-family:Arial;text-anchor:middle"
     id="text270525" />
  <text
     sodipodi:linespacing="125%"
     y="-426.0405"
     x="667.17987"
     line-height="125%"
     style="font-size:129.22999573px;line-height:125%;font-family:'Gentium Book Basic';letter-spacing:0;word-spacing:0"
     id="text270527">
    <tspan
       y="-426.0405"
       x="667.17987"
       id="tspan270529" />
  </text>
  <text
     transform="scale(4.0128205,0.24920128)"
     y="-2058.7915"
     x="363.3381"
     style="font-size:46.95399857px;font-family:Arial;text-anchor:middle"
     id="text270531" />
  <text
     sodipodi:linespacing="125%"
     y="-506.0405"
     x="1248.4498"
     line-height="125%"
     style="font-size:129.22999573px;line-height:125%;font-family:'Gentium Book Basic';letter-spacing:0;word-spacing:0"
     id="text270533">
    <tspan
       y="-506.0405"
       x="1248.4498"
       id="tspan270535" />
  </text>
  <text
     transform="scale(4.0128205,0.24920128)"
     y="-2379.8201"
     x="508.18738"
     style="font-size:46.95399857px;font-family:Arial;text-anchor:middle"
     id="text270537" />
  <text
     sodipodi:linespacing="125%"
     y="-978.44049"
     x="859.3299"
     line-height="125%"
     style="font-size:129.22999573px;line-height:125%;font-family:'Gentium Book Basic';letter-spacing:0;word-spacing:0"
     id="text270539">
    <tspan
       y="-978.44049"
       x="859.3299"
       id="tspan270541" />
  </text>
  <text
     transform="scale(4.0128205,0.24920128)"
     y="-4275.46"
     x="411.21786"
     style="font-size:46.95399857px;font-family:Arial;text-anchor:middle"
     id="text270543" />
  <text
     sodipodi:linespacing="125%"
     y="-1058.4504"
     x="1440.5898"
     line-height="125%"
     style="font-size:129.22999573px;line-height:125%;font-family:'Gentium Book Basic';letter-spacing:0;word-spacing:0"
     id="text270545">
    <tspan
       y="-1058.4504"
       x="1440.5898"
       id="tspan270547" />
  </text>
  <text
     transform="scale(4.0128205,0.24920128)"
     y="-4596.4985"
     x="556.06714"
     style="font-size:46.95399857px;font-family:Arial;text-anchor:middle"
     id="text270549" />
  <text
     sodipodi:linespacing="125%"
     y="356.2695"
     x="-392.21008"
     line-height="125%"
     style="font-size:208.33000183px;line-height:125%;font-family:'Gentium Book Basic';letter-spacing:0;word-spacing:0"
     id="text270551">
    <tspan
       y="356.2695"
       x="-392.21008"
       id="tspan270553" />
  </text>
  <path
     inkscape:connector-curvature="0"
     d="m 438.83016,133.92985 -32.06054,1.49218 32.6914,32.69141 0,0.008 -32.70117,-32.70117 1.23242,25.90234 -0.002,-0.002 0.0977,0.58789 -15.29883,-15.29883 c -3.84,-3.84 -8.4336,-6.65882 -13.8086,-8.42382 l 23.33008,23.33007 c 0.001,0.003 0.003,0.005 0.004,0.008 l -23.33407,-23.33391 c -4.50054,-1.49185 -10.69968,-2.2584 -18.53515,-2.31445 l -0.006,-0.006 c -2.615,-0.019 -5.44955,0.0446 -8.43555,0.18555 l 34.03711,34.03711 -0.006,0.002 -34.03515,-34.03516 c -12.38415,0.58796 -22.07866,2.93287 -29.22852,6.94336 l -0.002,-0.002 c -6.20736,3.51832 -11.32032,8.00686 -15.35352,13.46289 l -15.63281,-15.63281 0,0.0137 -0.004,-0.004 -43.82031,2.08984 -5.77148,29.68751 -28.04688,-28.04688 -43.9375,2.12695 0.006,0.006 1.54102,32.06641 -17.05664,-17.05664 c 0.059,0.059 0.11323,0.12237 0.17187,0.18164 l -0.17578,-0.17578 c -0.31,-0.31 -0.62436,-0.61597 -0.94336,-0.91797 l 1.56445,1.56445 c 0.023,0.0239 0.0454,0.0483 0.0684,0.0723 l -1.63867,-1.63867 c -9.575,-9.1 -22.59877,-13.58139 -39.00977,-13.40039 -1.09058,0.0132 -2.15373,0.0604 -3.27539,0.11328 l 59.01172,59.01172 c 7e-5,0.005 -6e-5,0.009 0,0.0137 L 111.4493,147.51969 c -17.54386,0.83295 -30.96971,6.60693 -40.30664,17.39258 l -0.002,-0.002 c -9.339,10.787 -13.64462,25.51806 -12.76562,44.03906 l 55.9121,55.91211 c -0.002,2e-5 -0.004,-2e-5 -0.006,0 L 58.36903,208.94933 c 0.629,13.262 3.72542,24.10927 9.10742,32.69727 l 0.008,0.008 c 2.25401,3.5965 4.74977,6.76539 7.49023,9.50586 l 0.002,0 55.80078,55.80273 -18.66602,0.85938 -0.002,0 0,0.002 0.35742,7.4082 -7.08203,-7.08398 0,0.0117 -20.71289,0.96875 -0.002,0 1.19531,25.26953 -24.14648,-24.14649 -0.002,-0.002 -20.71484,0.93164 -0.002,0 1.86523,40.08789 c 0.157,3.299 1.015,7.05949 2.5,11.27149 l 0.008,0.008 c 0.92055,2.61645 2.52027,5.12827 4.77344,7.53125 l 0.67773,0.67773 c -0.0263,-0.0259 -0.0538,-0.0482 -0.0801,-0.0742 l -0.60352,-0.60351 c 0.172,0.181 0.34453,0.3582 0.51953,0.5332 l 141.38672,141.38672 293.95313,0 c 14.397,0 26,-11.603 26,-26 l 0,-278.90039 -73.16993,-73.16992 z"
     id="path270557"
     style="opacity:0.25" />
  <path
     inkscape:connector-curvature="0"
     d="m 438.8299,133.92951 -32.06,1.493 1.232,25.903 8.547,51.626 19.82,-1.01 3.695,-52.22 -1.232,-25.787 m -78.39,1.941 c -2.615,-0.019 -5.45,0.045 -8.436,0.186 -12.385,0.588 -22.08,2.932 -29.23,6.943 -9.162,5.193 -15.951,12.494 -20.381,21.911 -4.432,9.365 -6.41,20.238 -5.822,32.623 0.558,11.765 3.321,22.07 8.174,30.947 4.903,8.87 11.43,15.386 19.708,19.596 8.327,4.208 18.975,6.02 31.802,5.413 10.419,-0.494 19.318,-2.114 26.763,-5 7.495,-2.942 15.988,-8.214 25.532,-15.752 l -2.24,-48.41 -51.626,2.5 1.082,23.59 22.396,-1.119 0.448,10.676 c -4.245,2.942 -7.972,5.16 -11.31,6.456 -3.337,1.296 -6.903,1.988 -10.638,2.165 -7.863,0.374 -14.15,-2 -18.812,-7.05 -4.623,-5.056 -7.219,-13.697 -7.802,-25.98 -0.548,-11.565 1.19,-20.12 5.263,-25.643 4.119,-5.575 9.848,-8.536 17.17,-8.884 4.915,-0.234 9.02,0.753 12.28,2.874 3.303,2.119 5.711,5.299 7.241,9.518 l 31.876,-7.577 c -2.313,-7.234 -5.51,-13.17 -9.668,-17.73 -4.11,-4.614 -9.175,-7.94 -15.23,-9.928 -4.504,-1.493 -10.708,-2.259 -18.552,-2.314 m -68.65,4.965 -43.821,2.09 -13.587,69.878 -20.23,-68.24 -43.937,2.128 5.45,113.39 27.29,-1.269 -4.106,-86.53 25.2,85.51 24.747,-1.119 16.983,-87.57 4.143,86.49 27.25,-1.269 -5.376,-113.51 m -177.04,6.569 c -1.094,0.013 -2.16,0.059 -3.285,0.112 -17.545,0.833 -30.973,6.607 -40.31,17.394 -9.339,10.787 -13.644,25.519 -12.765,44.04 0.629,13.262 3.725,24.11 9.107,32.698 5.382,8.588 12.15,14.741 20.305,18.439 8.205,3.697 18.308,5.245 30.495,4.666 11.991,-0.569 21.962,-3.398 29.753,-8.473 7.835,-5.13 13.643,-11.978 17.468,-20.64 3.876,-8.718 5.481,-19.734 4.852,-32.997 -0.866,-18.268 -6.4,-32.19 -16.611,-41.843 -9.575,-9.1 -22.599,-13.582 -39.01,-13.401 m -0.821,26.614 c 6.431,-0.01 11.668,2.257 15.715,6.718 4.36,4.707 6.809,12.348 7.316,23.03 0.602,12.695 -0.967,21.637 -4.666,26.725 -3.699,5.089 -9.137,7.796 -16.312,8.137 -6.979,0.331 -12.629,-1.906 -16.946,-6.718 -4.268,-4.815 -6.623,-12.951 -7.166,-24.414 -0.548,-11.565 1.047,-19.958 4.889,-25.16 3.842,-5.198 9.13,-7.967 15.864,-8.287 0.439,-0.02 0.878,-0.037 1.307,-0.037 m 327.95,45.65 -29.973,1.418 1.381,27.77 29.898,-1.418 -1.307,-27.77 m 26.614,71.29 -19.933,0.933 0.71,15.341 5.263,30.532 12.28,-0.597 2.389,-30.947 -0.71,-15.267 m -25.494,1.157 -20.717,1.082 1.941,40.947 c 0.176,3.726 -0.701,6.703 -2.651,8.846 -1.92,2.111 -4.638,3.19 -8.212,3.359 -3.604,0.171 -6.444,-0.701 -8.585,-2.651 -2.114,-1.982 -3.26,-4.807 -3.434,-8.473 l -1.941,-41.02 -20.79,1.045 1.941,40.01 c 0.157,3.299 0.978,7.06 2.463,11.272 0.92,2.62 2.558,5.1 4.815,7.503 2.287,2.402 4.654,4.236 7.316,5.487 2.661,1.221 5.984,2.038 9.854,2.314 3.901,0.275 7.482,0.267 10.75,0.112 5.652,-0.268 10.484,-1.223 14.445,-2.911 2.851,-1.207 5.523,-3.183 8.02,-5.935 2.531,-2.784 4.319,-5.947 5.376,-9.518 1.085,-3.603 1.533,-7.414 1.344,-11.384 l -1.941,-40.09 m -66.74,3.21 -63.11,3.02 0.859,16.572 21.13,-1.045 2.426,50.614 20.755,-1.01 -2.389,-50.573 21.16,-0.97 -0.821,-16.611 m -65.13,3.061 -19.559,0.933 1.792,37.18 -27.06,-35.94 -19.408,0.896 3.136,67.14 19.596,-0.859 -1.755,-36.916 26.913,35.721 19.522,-0.97 -3.173,-67.18 m -71.07,3.359 -20.717,1.01 1.941,41.02 c 0.176,3.726 -0.701,6.628 -2.651,8.772 -1.92,2.111 -4.675,3.264 -8.25,3.434 -3.604,0.171 -6.444,-0.701 -8.585,-2.651 -2.115,-1.982 -3.335,-4.77 -3.509,-8.436 l -1.904,-41.02 -20.717,0.933 1.941,40.09 c 0.157,3.299 0.941,7.06 2.426,11.272 0.92,2.62 2.484,5.134 4.74,7.54 2.287,2.402 4.766,4.236 7.428,5.487 2.66,1.221 5.984,1.927 9.854,2.203 3.901,0.273 7.445,0.341 10.713,0.186 5.652,-0.268 10.521,-1.223 14.483,-2.911 2.851,-1.207 5.448,-3.221 7.95,-5.972 2.531,-2.784 4.319,-5.91 5.376,-9.481 1.085,-3.603 1.57,-7.414 1.381,-11.384 l -1.904,-40.09 m -86.71,4.255 c -0.765,-0.013 -1.542,-0.001 -2.352,0.037 l -38.892,1.792 3.247,67.18 35.759,-1.68 c 1.527,-0.073 4.686,-0.511 9.332,-1.344 3.491,-0.625 6.07,-1.522 7.766,-2.613 2.734,-1.752 4.858,-4.048 6.346,-6.906 1.486,-2.856 2.106,-6.04 1.941,-9.518 -0.203,-4.277 -1.533,-7.714 -3.956,-10.414 -2.395,-2.734 -5.98,-4.555 -10.862,-5.487 3.124,-1.25 5.421,-2.88 6.98,-4.852 2.34,-2.959 3.436,-6.482 3.247,-10.451 -0.225,-4.735 -2.114,-8.567 -5.748,-11.604 -3.154,-2.663 -7.451,-4.046 -12.802,-4.143 m -47.967,2.165 -20.717,0.97 1.941,41.02 c 0.176,3.726 -0.701,6.703 -2.651,8.846 -1.92,2.111 -4.712,3.227 -8.287,3.396 -3.604,0.171 -6.444,-0.701 -8.585,-2.651 -2.114,-1.982 -3.26,-4.807 -3.434,-8.473 l -1.941,-41.02 -20.717,0.933 1.866,40.09 c 0.157,3.299 1.015,7.06 2.5,11.272 0.92,2.62 2.521,5.134 4.777,7.54 2.287,2.402 4.766,4.236 7.428,5.487 2.66,1.221 5.908,1.964 9.78,2.24 3.901,0.275 7.482,0.341 10.75,0.186 5.652,-0.268 10.447,-1.223 14.408,-2.911 2.851,-1.207 5.523,-3.183 8.02,-5.935 2.531,-2.784 4.395,-5.947 5.45,-9.518 1.085,-3.603 1.457,-7.414 1.269,-11.384 l -1.866,-40.09 m 37.519,11.869 c 3.146,-0.149 5.377,0.304 6.681,1.344 1.335,1.038 2.034,2.486 2.128,4.442 0.1,2.108 -0.451,3.811 -1.68,5 -1.2,1.159 -3.407,1.825 -6.644,1.978 l -9.07,0.411 -0.597,-12.765 9.183,-0.411 m 327.31,21.649 -18.626,0.896 0.859,16.461 18.552,-0.933 -0.784,-16.423 m -322.17,3.807 c 2.328,0.105 4.03,0.59 5.147,1.456 1.522,1.122 2.295,2.755 2.389,4.74 0.101,2.138 -0.535,3.798 -1.941,5.147 -1.407,1.322 -3.929,2.108 -7.503,2.277 l -10.564,0.522 -0.634,-13.661 10.564,-0.448 c 0.909,-0.044 1.762,-0.073 2.538,-0.037"
     style="fill:#ffffff"
     id="path270959" />
</svg>
