<?xml version="1.0" encoding="UTF-8" standalone="no"?>
<svg
   xmlns:dc="http://purl.org/dc/elements/1.1/"
   xmlns:cc="http://creativecommons.org/ns#"
   xmlns:rdf="http://www.w3.org/1999/02/22-rdf-syntax-ns#"
   xmlns:svg="http://www.w3.org/2000/svg"
   xmlns="http://www.w3.org/2000/svg"
   xmlns:sodipodi="http://sodipodi.sourceforge.net/DTD/sodipodi-0.dtd"
   xmlns:inkscape="http://www.inkscape.org/namespaces/inkscape"
   viewBox="0 0 512 512"
   id="svg2"
   version="1.1"
   inkscape:version="0.91+devel r13804 custom"
   width="100%"
   height="100%"
   sodipodi:docname="omgwords.svg">
  <sodipodi:namedview
     inkscape:current-layer="svg2"
     inkscape:window-maximized="1"
     inkscape:window-y="-3"
     inkscape:window-x="-2"
     inkscape:cy="111.2532"
     inkscape:cx="359.44507"
     inkscape:zoom="0.4609375"
     inkscape:guide-bbox="true"
     showguides="true"
     showgrid="false"
     id="namedview6"
     inkscape:window-height="709"
     inkscape:window-width="1366"
     inkscape:pageshadow="2"
     inkscape:pageopacity="0"
     guidetolerance="10"
     gridtolerance="10"
     objecttolerance="10"
     borderopacity="1"
     bordercolor="#666666"
     pagecolor="#ffffff">
    <sodipodi:guide
       id="guide2989"
       position="260.08346,471.00503"
       orientation="0,1" />
    <sodipodi:guide
       id="guide2991"
       position="267.59322,40.983051"
       orientation="0,1" />
    <sodipodi:guide
       id="guide2993"
       position="40.940284,84.756935"
       orientation="1,0" />
    <sodipodi:guide
       id="guide2995"
       position="471.05085,254.98305"
       orientation="1,0" />
  </sodipodi:namedview>
  <metadata
     id="metadata10">
    <rdf:RDF>
      <cc:Work
         rdf:about="">
        <dc:format>image/svg+xml</dc:format>
        <dc:type
           rdf:resource="http://purl.org/dc/dcmitype/StillImage" />
        <dc:title></dc:title>
      </cc:Work>
    </rdf:RDF>
  </metadata>
  <defs
     id="defs8" />
  <path
     inkscape:connector-curvature="0"
     d="m 25.99998,0 c -14.397,0 -26,11.603 -26,26 l 0,460 c 0,14.397 11.603,26 26,26 l 460.00001,0 c 14.397,0 26,-11.603 26,-26 l 0,-460 c 0,-14.397 -11.603,-26 -26,-26 L 25.99998,0"
     style="fill:#f37c4b"
     id="path306015" />
  <path
     inkscape:connector-curvature="0"
     d="m 462.48049,147.83919 -35.97852,1.89257 -0.002,-0.002 1.89453,26.51172 -13.94141,-13.94141 c 0.072,0.073 0.1448,0.14771 0.2168,0.22071 l 13.73242,13.73242 0.002,0.0117 -13.95508,-13.95508 c -4.57159,-4.57159 -10.16606,-7.7826 -16.82227,-9.72266 l -0.002,0 -0.006,-0.008 c -6.708,-2.052 -16.98283,-2.6143 -30.29883,-1.9043 l 0.004,0.004 c -13.80317,0.73944 -24.71235,3.37878 -32.65821,7.57617 l -0.006,-0.006 c -7.54941,4.02452 -13.4482,9.23493 -17.98438,15.61524 l -17.51367,-17.51367 0,0.0117 -0.002,-0.002 -48.75782,2.8418 -0.002,0 -6.77344,32.98437 -31.09765,-31.09765 -48.75586,2.84375 -0.004,-0.004 1.85352,32.43555 -15.75391,-15.75391 c -0.854,-0.854 -1.74392,-1.6787 -2.66992,-2.4707 C 135.75192,168.29948 119.912,164.28341 99.8648,165.3563 l -0.006,-0.006 c -19.559,1.038 -34.6227,6.81718 -44.9707,17.99218 l 25.02539,25.02539 c -6.2e-4,0.002 -10e-4,0.004 -0.002,0.006 L 54.88805,183.35044 c -10.348,11.16899 -14.82251,26.44745 -13.72851,45.43945 0.78293,13.59885 3.88841,24.85864 9.9414,33.61133 1.95156,2.82009 4.05883,5.3557 6.32422,7.62109 l 27.8125,27.8125 -2.05273,8.93164 -15.98633,-15.98633 -22.24805,0.94922 30.3418,30.3418 0.002,0.006 -30.34765,-30.34766 0,0.47461 30.51367,30.51367 0.002,0.008 -30.51562,-30.51563 21.30273,71.95508 147.83398,147.83398 271.91602,0 c 14.397,0 26,-11.603 26,-26 l 0,-288.64062 -49.51953,-49.51953 z"
     id="path316456"
     style="opacity:0.25" />
  <path
     inkscape:connector-curvature="0"
     d="m 462.47998,147.84 -35.978,1.892 1.894,26.511 9.468,52.54 22.249,-0.95 3.78701,-53.5 -1.42001,-26.503 m -95.15,2.838 c -13.806,0.739 -24.717,3.378 -32.664,7.576 -10.184,5.429 -17.368,13.01 -22.249,22.72 -4.885,9.66 -7.358,20.912 -6.627,33.611 0.694,12.06 4,22.671 9.468,31.719 5.522,9.04 12.993,15.655 22.249,19.881 9.311,4.231 20.732,5.979 35.03,5.207 11.615,-0.616 22.01,-2.636 30.3,-5.68 8.339,-3.1 17.809,-8.73 28.403,-16.57 l -2.84,-49.23 -57.754,2.84 1.42,24.14 25.09,-1.407 0.473,11.361 c -4.715,3.064 -9.07,5.262 -12.782,6.627 -3.713,1.372 -7.671,2.14 -11.835,2.367 -8.766,0.475 -15.588,-1.97 -20.829,-7.103 -5.187,-5.135 -8.27,-13.914 -8.994,-26.508 -0.682,-11.853 1.173,-20.801 5.681,-26.511 4.559,-5.765 11.246,-9.03 19.409,-9.465 5.479,-0.299 9.615,0.703 13.255,2.838 3.695,2.137 6.789,5.628 8.521,9.942 l 35.504,-8.05 c -2.624,-7.393 -6.225,-13.826 -10.888,-18.46 -4.611,-4.689 -10.279,-7.97 -17.04,-9.942 -6.708,-2.052 -16.984,-2.615 -30.3,-1.905 m -68.17,5.68 -48.759,2.842 -14.675,71.48 -23.2,-69.59 -48.759,2.842 6.627,115.98 30.3,-1.407 -5.207,-88.52 28.877,87.11 27.457,-1.407 18.462,-89.94 5.207,88.52 30.3,-1.407 -6.627,-116.5 m -199.3,8.994 c -19.559,1.038 -34.624,6.818 -44.972,17.993 -10.348,11.169 -14.822,26.448 -13.728,45.44 0.783,13.6 3.887,24.858 9.941,33.611 6.05,8.749 13.607,14.757 22.723,18.462 9.171,3.7 20.971,5.461 34.558,4.734 13.368,-0.721 24.01,-3.702 32.664,-8.994 8.705,-5.35 15.197,-12.845 19.409,-21.775 4.264,-8.987 5.99,-20.01 5.207,-33.611 -1.078,-18.735 -7.02,-33.29 -18.462,-43.08 -11.448,-9.841 -27.29,-13.858 -47.34,-12.784 m 1.42,26.985 c 7.834,-0.422 14.1,1.794 18.936,6.628 4.891,4.778 7.891,12.715 8.521,23.669 0.749,13.02 -1.114,22.19 -5.207,27.458 -4.094,5.26 -9.99,8.08 -17.989,8.519 -7.78,0.422 -14.09,-1.741 -18.936,-6.627 -4.788,-4.891 -7.845,-13.341 -8.521,-25.09 -0.682,-11.853 1.429,-20.659 5.681,-26.03 4.252,-5.378 10.01,-8.113 17.516,-8.522 m 364.98,43.08 -33.14,1.896 1.42,28.402 33.611,-1.407 -1.893,-28.891 m 1.42,33.609 -22.723,1.407 0.947,16.568 6.154,33.13 14.202,-0.475 2.367,-34.08 -0.946,-16.551 m -55.861,1.896 c -7.899,0.422 -14.495,1.6 -18.936,3.788 -4.408,2.142 -7.387,5.03 -9.468,8.519 -2.048,3.452 -3.059,7.124 -2.84,10.888 0.333,5.731 2.944,10.267 7.574,13.731 4.596,3.459 11.84,5.897 22.249,7.571 6.355,0.985 10.496,2.379 12.308,3.788 1.812,1.407 2.731,2.837 2.84,4.734 0.116,1.994 -0.628,4.048 -2.367,5.68 -1.707,1.6 -4.228,2.186 -7.574,2.367 -4.484,0.246 -7.828,-0.967 -10.415,-3.788 -1.59,-1.741 -2.628,-4.101 -3.314,-7.571 l -22.249,2.364 c 1.085,7.363 4.222,13.462 9.468,17.991 5.246,4.528 14.08,6.375 26.983,5.68 7.347,-0.387 13.278,-1.964 17.989,-4.263 4.709,-2.328 8.428,-5.355 10.888,-9.467 2.46,-4.11 3.587,-8.559 3.314,-13.255 -0.233,-3.999 -1.564,-7.766 -3.787,-10.889 -2.189,-3.122 -5.366,-5.654 -9.941,-7.573 -4.543,-1.961 -11.881,-3.632 -22.249,-5.209 -4.188,-0.598 -6.888,-1.442 -8.05,-2.365 -1.193,-0.862 -1.825,-1.671 -1.894,-2.84 -0.093,-1.6 0.104,-3.079 1.42,-4.259 1.314,-1.178 3.429,-1.759 6.154,-1.894 3.311,-0.176 6.098,0.51 8.05,1.894 1.984,1.389 3.482,3.834 4.261,7.1 l 21.776,-2.84 c -1.408,-7.543 -4.635,-12.907 -9.941,-16.1 -5.273,-3.229 -12.556,-4.316 -22.249,-3.788 z m -71.956,5.207 -35.03,1.894 4.261,72.903 35.03,-1.898 c 4.174,-0.229 8.666,-0.739 13.728,-2.364 3.704,-1.161 6.833,-3.549 9.941,-6.628 3.106,-3.109 5.522,-6.964 7.101,-11.359 1.611,-4.435 2.349,-10.158 1.894,-17.989 -0.291,-4.996 -1.339,-9.808 -2.84,-14.205 -1.502,-4.397 -3.672,-8.142 -6.627,-11.359 -2.955,-3.217 -6.541,-6.01 -10.888,-7.574 -4.312,-1.565 -9.704,-1.785 -16.568,-1.424 z m -71.956,3.786 -39.29,1.894 4.261,73.38 23.67,-0.95 -1.894,-29.825 2.367,-0.475 c 2.139,-0.176 3.925,0.369 5.681,1.407 1.292,0.791 2.979,2.872 4.734,5.686 l 13.728,21.772 26.51,-1.407 -12.782,-20.829 c -0.614,-1.038 -1.544,-2.386 -3.314,-4.261 -1.735,-1.88 -3.363,-3.243 -4.261,-3.788 -1.329,-0.827 -3.308,-1.618 -6.154,-2.367 3.439,-0.967 6.115,-2.04 8.05,-3.313 3.03,-2 5.478,-4.543 7.101,-7.573 1.621,-3.064 2.13,-6.349 1.894,-10.416 -0.271,-4.662 -1.727,-8.73 -4.261,-11.832 -2.535,-3.139 -5.569,-5.158 -9.468,-6.155 -3.898,-1.038 -9.325,-1.337 -16.568,-0.95 z m -82.37,3.313 c -12.314,0.668 -21.892,4.324 -28.403,11.361 -6.511,7.04 -9.216,16.443 -8.521,28.404 0.498,8.565 2.812,15.794 6.627,21.304 3.815,5.505 8.461,9.497 14.202,11.834 5.775,2.323 12.748,3.294 21.303,2.84 8.416,-0.457 15.383,-2.344 20.829,-5.682 5.479,-3.371 9.659,-8.104 12.308,-13.728 2.681,-5.659 3.811,-12.743 3.314,-21.304 -0.686,-11.793 -4.625,-20.822 -11.835,-26.983 -7.211,-6.19 -17.198,-8.726 -29.823,-8.05 m -34.558,2.84 -22.249,1.407 -5.681,41.18 -13.728,-40.24 -22.249,1.407 -9.468,41.19 -10.415,-40.24 -22.249,0.95 0,0.475 21.303,71.955 22.723,-0.95 10.415,-46.866 16.1,45.44 23.2,-1.407 12.309,-74.31 m 184.15,6.627 c 6.071,-0.317 10.467,1.055 13.255,3.786 2.788,2.728 4.282,7.859 4.734,15.624 0.341,5.863 0.074,10.09 -0.947,12.782 -1.022,2.663 -2.253,4.514 -4.261,5.682 -2.01,1.143 -5.517,2.095 -10.415,2.365 l -6.154,0.475 -1.894,-40.24 5.681,-0.475 z m -71.956,2.367 c 4.277,-0.229 7.369,0.246 8.994,1.407 1.626,1.178 2.702,2.844 2.84,5.209 0.093,1.6 -0.492,2.972 -1.42,4.261 -0.894,1.284 -2.252,2.462 -3.787,2.837 -3.03,0.827 -5.085,0.95 -6.154,0.95 l -9.468,0.475 -0.947,-14.674 9.942,-0.457 z m -76.69,5.209 c 4.933,-0.264 8.786,1.213 11.835,4.259 3.081,3.01 4.806,7.78 5.207,14.676 0.476,8.197 -0.265,14.197 -2.84,17.516 -2.576,3.317 -6.325,4.935 -11.361,5.209 -4.898,0.264 -9.257,-1.196 -12.308,-4.259 -3.02,-3.085 -4.777,-8.227 -5.207,-15.624 -0.434,-7.465 0.639,-13.183 3.314,-16.57 2.676,-3.387 6.636,-4.951 11.362,-5.207 m 283.56,24.14 -20.829,0.95 0.947,17.991 20.829,-0.95 -0.946,-17.991"
     style="fill:#ffffff"
     id="path316876" />
</svg>
