<?xml version="1.0" encoding="UTF-8" standalone="no"?>
<!-- Created with Inkscape (http://www.inkscape.org/) -->

<svg
   xmlns:dc="http://purl.org/dc/elements/1.1/"
   xmlns:cc="http://creativecommons.org/ns#"
   xmlns:rdf="http://www.w3.org/1999/02/22-rdf-syntax-ns#"
   xmlns:svg="http://www.w3.org/2000/svg"
   xmlns="http://www.w3.org/2000/svg"
   xmlns:sodipodi="http://sodipodi.sourceforge.net/DTD/sodipodi-0.dtd"
   xmlns:inkscape="http://www.inkscape.org/namespaces/inkscape"
   id="svg2"
   height="100%"
   width="100%"
   version="1.1"
   viewBox="0 0 512 512"
   inkscape:version="0.91 r13725"
   sodipodi:docname="ooo-draw.svg">
  <defs
     id="defs154" />
  <sodipodi:namedview
     pagecolor="#ffffff"
     bordercolor="#666666"
     borderopacity="1"
     objecttolerance="10"
     gridtolerance="10"
     guidetolerance="10"
     inkscape:pageopacity="0"
     inkscape:pageshadow="2"
     inkscape:window-width="640"
     inkscape:window-height="480"
     id="namedview152"
     showgrid="false"
     inkscape:zoom="0.5546875"
     inkscape:cx="36.056338"
     inkscape:cy="240.67606"
     inkscape:current-layer="svg2" />
  <metadata
     id="metadata319">
    <rdf:RDF>
      <cc:Work
         rdf:about="">
        <dc:format>image/svg+xml</dc:format>
        <dc:type
           rdf:resource="http://purl.org/dc/dcmitype/StillImage" />
      </cc:Work>
    </rdf:RDF>
  </metadata>
  <g
     id="g3509"
     transform="translate(333.52113,-344.33803)">
    <path
       d="m -307.52163,344.32653 c -14.397,0 -26,11.603 -26,26 l 0,460 c 0,14.397 11.603,26 26,26 l 460,0 c 14.397,0 26,-11.603 26,-26 l 0,-460 c 0,-14.397 -11.6,-26 -26,-26 l -460,0"
       id="path21"
       style="fill:#f0c81c"
       inkscape:connector-curvature="0" />
    <path
       d="m -307.52163,344.32653 c -14.397,0 -26,11.603 -26,26 l 0,460 c 0,14.397 11.603,26 26,26 l 173,0 c 15.38,-73.45 9.77,-145.6 -13.12,-231.06 -30.5,-113.84 -41.37,-191.27 -12.03,-280.94 l -147.84,0"
       id="path23"
       style="fill:#1f467c"
       inkscape:connector-curvature="0" />
    <g
       transform="translate(-333.52163,344.32653)"
       style="color:#000000"
       id="g311">
      <path
         d="m 255.06,41 c -19.843,7.789 -16.877,35.704 -18.625,53.688 -0.591,9.153 1.745,24.87 8.844,31.969 l 0.75,0.719 11.09,11.125 c -34.918,5.165 -68.3,20.2 -93.22,45.688 -7.788,7.312 -14.697,15.631 -20.563,24.656 l -26.469,-26.469 c -11.886,-11.886 -28.37,-19.319 -43.37,-26.469 -3.973,-1.618 -8.156,-3.01 -12.5,-3 l 0,0.031 c -21.79,2.119 -15.684,18.1 -4.219,29.563 l 68.22,68.22 c -7.715,30.436 -4.838,63.18 12.219,90.63 4.964,8.165 10.909,15.597 17.594,22.281 l 148.38,148.38 182.81,0 c 14.397,0 26,-11.603 26,-26 l 0,-279.72 -49.625,-49.625 c -2.657,-2.657 -6.605,-4.183 -10.531,-3.75 -19.55,4.136 -36.27,16.651 -51.813,29.09 L 262.992,44.987 c -2.024,-2.024 -4.586,-3.46 -7.938,-3.969 m -107.94,337.91 c -21.07,5.287 -36.436,23.16 -51.12,38.22 -11.425,7.325 -10.61,20.921 -4.156,27.375 l 67.5,67.5 124.5,0 -130.5,-130.5 c -1.608,-1.608 -3.772,-2.646 -6.188,-2.594 l -0.031,0"
         id="path313"
         inkscape:connector-curvature="0"
         style="opacity:0.25" />
      <path
         d="m 255.05,41 c -19.843,7.789 -16.856,35.709 -18.604,53.692 -0.919,14.243 5.222,44.4 25.425,33.2 14.937,-13.491 10.419,-36.712 9.976,-54.72 -2.111,-11.139 -2.483,-29.994 -16.798,-32.17 m 33.546,95.49 c -45.729,-0.885 -92.34,14.611 -124.69,47.695 -41.626,39.08 -57.855,106.98 -26.675,157.15 23.06,37.93 66.99,60.22 110.39,63.796 38.38,-0.194 75.78,-18.1 103.81,-43.654 27.01,-24.21 37.1,-63.54 26.375,-97.98 -10.399,-43.35 -53.34,-75.7 -98.03,-72.33 -38.635,1.169 -79.01,24.767 -88.46,64.22 -8.096,29.559 12.5,62.696 40.27,73.22 19.352,9.715 47.646,-17.466 19.05,-26.961 -21.738,-6.337 -35.638,-33.531 -17.374,-51.44 20.03,-25.336 61.04,-36.06 86.85,-13.08 22.689,20.08 37.18,58.21 17.294,85.04 -18.287,24.17 -44.45,47.52 -76.79,46.07 -23.662,0.798 -50.896,1.6 -67.965,-17.97 -17.947,-16.16 -36.86,-36.12 -34.483,-62.33 -3.621,-59.63 47.826,-112.21 105.63,-118.38 22.406,-4.069 44.13,3.389 65.864,7.238 36.17,6.245 22.607,-34.97 -3.901,-35.757 -12.05,-3.524 -24.685,-4.504 -37.19,-4.546 m -227.59,16.42 c -31.647,3.077 -4.472,35.414 12.543,40.654 14.07,9.344 49.29,26.05 51.08,-1.746 -11.555,-17.74 -32.474,-27.06 -51.11,-35.935 -3.973,-1.618 -8.169,-2.987 -12.513,-2.974 m 390.85,0 c -21.675,4.586 -39.888,19.451 -56.855,33.12 -21.468,10.703 -3.545,41.08 15.471,25.18 19.876,-11.743 43.843,-22.07 54.57,-43.81 2.79,-8.256 -5.272,-15.374 -13.196,-14.499 m -304.7,226 c -21.07,5.287 -36.436,23.16 -51.13,38.22 -19.744,12.659 -2.951,44.03 16.367,24.944 17.374,-14.327 36.531,-30.27 43.561,-52.38 1.1,-5.342 -3.238,-10.898 -8.796,-10.778 m 199.5,15.96 c -21.19,10.617 3.521,37.848 11.134,51.4 6.598,18.354 42.722,41.31 40.21,7.07 -6.276,-21.22 -22.325,-38.542 -38.539,-53.01 -3.673,-2.788 -7.968,-5.713 -12.81,-5.46"
         id="path315"
         inkscape:connector-curvature="0"
         style="fill:#ffffff" />
    </g>
  </g>
</svg>
