<?xml version="1.0" encoding="UTF-8" standalone="no"?>
<svg
   xmlns:dc="http://purl.org/dc/elements/1.1/"
   xmlns:cc="http://creativecommons.org/ns#"
   xmlns:rdf="http://www.w3.org/1999/02/22-rdf-syntax-ns#"
   xmlns:svg="http://www.w3.org/2000/svg"
   xmlns="http://www.w3.org/2000/svg"
   xmlns:sodipodi="http://sodipodi.sourceforge.net/DTD/sodipodi-0.dtd"
   xmlns:inkscape="http://www.inkscape.org/namespaces/inkscape"
   viewBox="0 0 512 512"
   id="svg2"
   version="1.1"
   inkscape:version="0.91+devel r13804 custom"
   width="100%"
   height="100%"
   sodipodi:docname="openttd.svg">
  <sodipodi:namedview
     inkscape:current-layer="svg2"
     inkscape:window-maximized="1"
     inkscape:window-y="-3"
     inkscape:window-x="-2"
     inkscape:cy="111.2532"
     inkscape:cx="359.44507"
     inkscape:zoom="0.4609375"
     inkscape:guide-bbox="true"
     showguides="true"
     showgrid="false"
     id="namedview6"
     inkscape:window-height="709"
     inkscape:window-width="1366"
     inkscape:pageshadow="2"
     inkscape:pageopacity="0"
     guidetolerance="10"
     gridtolerance="10"
     objecttolerance="10"
     borderopacity="1"
     bordercolor="#666666"
     pagecolor="#ffffff">
    <sodipodi:guide
       id="guide2989"
       position="260.08346,471.00503"
       orientation="0,1" />
    <sodipodi:guide
       id="guide2991"
       position="267.59322,40.983051"
       orientation="0,1" />
    <sodipodi:guide
       id="guide2993"
       position="40.940284,84.756935"
       orientation="1,0" />
    <sodipodi:guide
       id="guide2995"
       position="471.05085,254.98305"
       orientation="1,0" />
  </sodipodi:namedview>
  <metadata
     id="metadata10">
    <rdf:RDF>
      <cc:Work
         rdf:about="">
        <dc:format>image/svg+xml</dc:format>
        <dc:type
           rdf:resource="http://purl.org/dc/dcmitype/StillImage" />
        <dc:title></dc:title>
      </cc:Work>
    </rdf:RDF>
  </metadata>
  <defs
     id="defs8" />
  <path
     inkscape:connector-curvature="0"
     d="M 26,0 C 11.603,0 0,11.603 0,26 l 0,460 c 0,14.397 11.603,26 26,26 l 460,0 c 14.397,0 26,-11.603 26,-26 L 512,26 C 512,11.603 500.397,0 486,0 L 26,0"
     style="fill:#f8963a"
     id="path340614" />
  <text
     sodipodi:linespacing="125%"
     y="226.42"
     x="125.16"
     line-height="125%"
     style="font-size:129.22999573px;line-height:125%;font-family:'Gentium Book Basic';letter-spacing:0;word-spacing:0"
     id="text340616">
    <tspan
       y="226.42"
       x="125.16"
       id="tspan340618" />
  </text>
  <text
     transform="scale(4.0128205,0.24920128)"
     y="559.44714"
     x="228.26883"
     style="font-size:46.95399857px;font-family:Arial;text-anchor:middle"
     id="text340620" />
  <text
     sodipodi:linespacing="125%"
     y="146.42"
     x="706.42999"
     line-height="125%"
     style="font-size:129.22999573px;line-height:125%;font-family:'Gentium Book Basic';letter-spacing:0;word-spacing:0"
     id="text340622">
    <tspan
       y="146.42"
       x="706.42999"
       id="tspan340624" />
  </text>
  <text
     transform="scale(4.0128205,0.24920128)"
     y="238.40878"
     x="373.11807"
     style="font-size:46.95399857px;font-family:Arial;text-anchor:middle"
     id="text340626" />
  <text
     sodipodi:linespacing="125%"
     y="-34.835999"
     x="-365.14999"
     line-height="125%"
     style="font-size:129.22999573px;line-height:125%;font-family:'Gentium Book Basic';letter-spacing:0;word-spacing:0"
     id="text340628">
    <tspan
       y="-34.835999"
       x="-365.14999"
       id="tspan340630" />
  </text>
  <text
     transform="scale(4.0128205,0.24920128)"
     y="-488.92749"
     x="106.07946"
     style="font-size:46.95399857px;font-family:Arial;text-anchor:middle"
     id="text340632" />
  <text
     sodipodi:linespacing="125%"
     y="-251.31"
     x="732.90002"
     line-height="125%"
     style="font-size:129.22999573px;line-height:125%;font-family:'Gentium Book Basic';letter-spacing:0;word-spacing:0"
     id="text340634">
    <tspan
       y="-251.31"
       x="732.90002"
       id="tspan340636" />
  </text>
  <text
     transform="scale(4.0128205,0.24920128)"
     y="-1357.603"
     x="379.71805"
     style="font-size:46.95399857px;font-family:Arial;text-anchor:middle"
     id="text340638" />
  <text
     sodipodi:linespacing="125%"
     y="-331.31"
     x="1314.17"
     line-height="125%"
     style="font-size:129.22999573px;line-height:125%;font-family:'Gentium Book Basic';letter-spacing:0;word-spacing:0"
     id="text340640">
    <tspan
       y="-331.31"
       x="1314.17"
       id="tspan340642" />
  </text>
  <text
     transform="scale(4.0128205,0.24920128)"
     y="-1678.6315"
     x="524.56732"
     style="font-size:46.95399857px;font-family:Arial;text-anchor:middle"
     id="text340644" />
  <text
     sodipodi:linespacing="125%"
     y="-803.71002"
     x="925.04999"
     line-height="125%"
     style="font-size:129.22999573px;line-height:125%;font-family:'Gentium Book Basic';letter-spacing:0;word-spacing:0"
     id="text340646">
    <tspan
       y="-803.71002"
       x="925.04999"
       id="tspan340648" />
  </text>
  <text
     transform="scale(4.0128205,0.24920128)"
     y="-3574.2717"
     x="427.59781"
     style="font-size:46.95399857px;font-family:Arial;text-anchor:middle"
     id="text340650" />
  <text
     sodipodi:linespacing="125%"
     y="-883.71997"
     x="1506.3101"
     line-height="125%"
     style="font-size:129.22999573px;line-height:125%;font-family:'Gentium Book Basic';letter-spacing:0;word-spacing:0"
     id="text340652">
    <tspan
       y="-883.71997"
       x="1506.3101"
       id="tspan340654" />
  </text>
  <text
     transform="scale(4.0128205,0.24920128)"
     y="-3895.3101"
     x="572.44708"
     style="font-size:46.95399857px;font-family:Arial;text-anchor:middle"
     id="text340656" />
  <text
     sodipodi:linespacing="125%"
     y="531"
     x="-326.48999"
     line-height="125%"
     style="font-size:208.33000183px;line-height:125%;font-family:'Gentium Book Basic';letter-spacing:0;word-spacing:0"
     id="text340658">
    <tspan
       y="531"
       x="-326.48999"
       id="tspan340660" />
  </text>
  <path
     style="fill-rule:evenodd;opacity:0.25"
     d="M 255.99023 43.339844 L 45.689453 253.64062 L 255.99414 463.94531 L 255.99023 463.94922 L 304.04102 512 L 486 512 C 500.397 512 512 500.397 512 486 L 512 299.29102 L 466.34961 253.64062 L 255.99023 43.339844 z M 73 293.86914 L 41 325.86914 L 227.12891 512 L 291.20898 512 L 156.10938 376.90039 C 128.41837 349.20939 100.71 321.52914 73 293.86914 z "
     id="path340664" />
  <path
     inkscape:connector-curvature="0"
     d="m 255.99,43.34 -210.3,210.3 210.3,210.3 210.36,-210.3 -210.36,-210.3 m -12.589,72.08 28.689,0 0,36.854 c 4.261,1.289 7.839,2.602 10.762,3.939 2.923,1.338 6.892,3.522 11.847,6.594 l 5.595,-10.534 16.215,0 17.385,67.34 -27.319,7.879 c -7.135,-18.532 -18.629,-32.11 -34.484,-40.736 l 0,42.677 c 19.523,5.55 33.73,11.188 42.649,16.985 8.919,5.797 15.704,12.966 20.411,21.439 4.707,8.473 7.05,17.26 7.05,26.377 0,9.811 -2.765,19.251 -8.364,28.318 -5.599,9.07 -13.878,16.657 -24.779,22.752 -10.901,6.095 -23.19,9.628 -36.968,10.619 l 0,35.969 -28.69,0 0,-38.481 c -11.397,-2.676 -23.325,-8.51 -35.712,-17.528 l -7.108,17.528 -16.215,0 -14.587,-78.33 28.404,-6.823 c 5.153,11.297 10.145,20.14 14.901,26.634 4.757,6.491 10.1,12.143 16.04,16.9 4.36,3.568 9.12,6.266 14.273,8.05 l 0,-49.53 c -21.307,-7.135 -35.948,-13.368 -43.876,-18.67 -7.928,-5.302 -14.14,-12.04 -18.698,-20.268 -4.559,-8.225 -6.88,-16.555 -6.88,-24.978 0,-9.613 2.837,-18.885 8.535,-27.805 5.698,-8.919 13.586,-16.01 23.694,-21.267 10.11,-5.252 22.558,-8.169 37.22,-8.764 l 0,-33.14 m 0,66 c -8.126,1.09 -13.901,2.846 -17.271,5.224 -4.856,3.469 -7.279,7.619 -7.279,12.475 0,4.063 1.763,7.967 5.281,11.733 3.518,3.766 9.954,7.249 19.269,10.42 l 0,-39.851 m 28.689,97.49 0,44.647 c 7.73,-0.991 13.89,-3.196 18.498,-6.566 4.608,-3.369 6.88,-7.897 6.88,-13.645 0,-5.05 -1.699,-9.436 -5.167,-13.1 -4.757,-4.856 -11.49,-8.657 -20.21,-11.333 m -199.09,14.959 -32,32 142.82,142.79 32,-32 c -47.559,-47.644 -95.18,-95.23 -142.82,-142.79 m 366,0 c -47.647,47.544 -95.23,95.16 -142.79,142.79 l 32,32 142.79,-142.79 -32,-32"
     style="fill:#ffffff;fill-rule:evenodd"
     id="path340792" />
</svg>
