<?xml version="1.0" encoding="UTF-8" standalone="no"?>
<svg
   xmlns:dc="http://purl.org/dc/elements/1.1/"
   xmlns:cc="http://creativecommons.org/ns#"
   xmlns:rdf="http://www.w3.org/1999/02/22-rdf-syntax-ns#"
   xmlns:svg="http://www.w3.org/2000/svg"
   xmlns="http://www.w3.org/2000/svg"
   xmlns:sodipodi="http://sodipodi.sourceforge.net/DTD/sodipodi-0.dtd"
   xmlns:inkscape="http://www.inkscape.org/namespaces/inkscape"
   viewBox="0 0 512 512"
   id="svg2"
   version="1.1"
   inkscape:version="0.91+devel r13804 custom"
   width="100%"
   height="100%"
   sodipodi:docname="opera.svg">
  <sodipodi:namedview
     inkscape:current-layer="svg2"
     inkscape:window-maximized="1"
     inkscape:window-y="-3"
     inkscape:window-x="-2"
     inkscape:cy="111.2532"
     inkscape:cx="359.44507"
     inkscape:zoom="0.4609375"
     inkscape:guide-bbox="true"
     showguides="true"
     showgrid="false"
     id="namedview6"
     inkscape:window-height="709"
     inkscape:window-width="1366"
     inkscape:pageshadow="2"
     inkscape:pageopacity="0"
     guidetolerance="10"
     gridtolerance="10"
     objecttolerance="10"
     borderopacity="1"
     bordercolor="#666666"
     pagecolor="#ffffff">
    <sodipodi:guide
       id="guide2991"
       position="267.59322,40.983051"
       orientation="0,1" />
    <sodipodi:guide
       id="guide2993"
       position="40.940284,84.756935"
       orientation="1,0" />
    <sodipodi:guide
       id="guide2995"
       position="471.05085,254.98305"
       orientation="1,0" />
  </sodipodi:namedview>
  <metadata
     id="metadata10">
    <rdf:RDF>
      <cc:Work
         rdf:about="">
        <dc:format>image/svg+xml</dc:format>
        <dc:type
           rdf:resource="http://purl.org/dc/dcmitype/StillImage" />
        <dc:title></dc:title>
      </cc:Work>
    </rdf:RDF>
  </metadata>
  <defs
     id="defs8" />
  <path
     inkscape:connector-curvature="0"
     d="M 26,0 C 11.603,0 0,11.603 0,26 l 0,460 c 0,14.397 11.603,26 26,26 l 460,0 c 14.397,0 26,-11.603 26,-26 L 512,26 C 512,11.603 500.397,0 486,0 L 26,0"
     style="fill:#cd1d31"
     id="path341947" />
  <text
     sodipodi:linespacing="125%"
     y="108.35"
     x="120.09"
     line-height="125%"
     style="font-size:129.22999573px;line-height:125%;font-family:'Gentium Book Basic';letter-spacing:0;word-spacing:0"
     id="text341949">
    <tspan
       y="108.35"
       x="120.09"
       id="tspan341951" />
  </text>
  <text
     transform="scale(4.0128205,0.24920128)"
     y="85.639565"
     x="227.00883"
     style="font-size:46.95399857px;font-family:Arial;text-anchor:middle"
     id="text341953" />
  <text
     sodipodi:linespacing="125%"
     y="28.351"
     x="701.35999"
     line-height="125%"
     style="font-size:129.22999573px;line-height:125%;font-family:'Gentium Book Basic';letter-spacing:0;word-spacing:0"
     id="text341955">
    <tspan
       y="28.351"
       x="701.35999"
       id="tspan341957" />
  </text>
  <text
     transform="scale(4.0128205,0.24920128)"
     y="-235.38879"
     x="371.85809"
     style="font-size:46.95399857px;font-family:Arial;text-anchor:middle"
     id="text341959" />
  <text
     sodipodi:linespacing="125%"
     y="-152.91"
     x="-370.22"
     line-height="125%"
     style="font-size:129.22999573px;line-height:125%;font-family:'Gentium Book Basic';letter-spacing:0;word-spacing:0"
     id="text341961">
    <tspan
       y="-152.91"
       x="-370.22"
       id="tspan341963" />
  </text>
  <text
     transform="scale(4.0128205,0.24920128)"
     y="-962.73505"
     x="104.81947"
     style="font-size:46.95399857px;font-family:Arial;text-anchor:middle"
     id="text341965" />
  <text
     sodipodi:linespacing="125%"
     y="-369.38"
     x="727.83002"
     line-height="125%"
     style="font-size:129.22999573px;line-height:125%;font-family:'Gentium Book Basic';letter-spacing:0;word-spacing:0"
     id="text341967">
    <tspan
       y="-369.38"
       x="727.83002"
       id="tspan341969" />
  </text>
  <text
     transform="scale(4.0128205,0.24920128)"
     y="-1831.4106"
     x="378.45807"
     style="font-size:46.95399857px;font-family:Arial;text-anchor:middle"
     id="text341971" />
  <text
     sodipodi:linespacing="125%"
     y="-449.38"
     x="1309.1"
     line-height="125%"
     style="font-size:129.22999573px;line-height:125%;font-family:'Gentium Book Basic';letter-spacing:0;word-spacing:0"
     id="text341973">
    <tspan
       y="-449.38"
       x="1309.1"
       id="tspan341975" />
  </text>
  <text
     transform="scale(4.0128205,0.24920128)"
     y="-2152.429"
     x="523.30731"
     style="font-size:46.95399857px;font-family:Arial;text-anchor:middle"
     id="text341977" />
  <text
     sodipodi:linespacing="125%"
     y="-921.78003"
     x="919.97998"
     line-height="125%"
     style="font-size:129.22999573px;line-height:125%;font-family:'Gentium Book Basic';letter-spacing:0;word-spacing:0"
     id="text341979">
    <tspan
       y="-921.78003"
       x="919.97998"
       id="tspan341981" />
  </text>
  <text
     transform="scale(4.0128205,0.24920128)"
     y="-4048.0693"
     x="426.3378"
     style="font-size:46.95399857px;font-family:Arial;text-anchor:middle"
     id="text341983" />
  <text
     sodipodi:linespacing="125%"
     y="-1001.79"
     x="1501.24"
     line-height="125%"
     style="font-size:129.22999573px;line-height:125%;font-family:'Gentium Book Basic';letter-spacing:0;word-spacing:0"
     id="text341985">
    <tspan
       y="-1001.79"
       x="1501.24"
       id="tspan341987" />
  </text>
  <text
     transform="scale(4.0128205,0.24920128)"
     y="-4369.1074"
     x="571.17706"
     style="font-size:46.95399857px;font-family:Arial;text-anchor:middle"
     id="text341989" />
  <text
     sodipodi:linespacing="125%"
     y="412.92999"
     x="-331.56"
     line-height="125%"
     style="font-size:208.33000183px;line-height:125%;font-family:'Gentium Book Basic';letter-spacing:0;word-spacing:0"
     id="text341991">
    <tspan
       y="412.92999"
       x="-331.56"
       id="tspan341993" />
  </text>
  <path
     style="fill-rule:evenodd;opacity:0.25"
     d="M 256.28906 40.998047 L 256.29102 41 C 230.5087 41.001308 206.38793 46.16603 184.00977 56.511719 L 211.34375 83.845703 C 211.34237 83.846922 211.34122 83.848391 211.33984 83.849609 L 184.00977 56.519531 C 161.63053 66.909176 141.51301 82.281886 123.52148 102.42188 L 123.51953 102.41992 C 104.07153 123.85092 89.637703 147.11037 80.470703 172.10938 L 80.478516 172.11719 C 71.314378 197.07631 66.861328 225.13288 66.861328 256.25977 L 187.88086 377.2793 C 187.8811 377.28057 187.88062 377.28193 187.88086 377.2832 L 66.857422 256.25977 C 66.857422 287.39977 71.309563 315.54023 80.476562 340.49023 L 80.482422 340.49609 C 89.645528 365.51388 104.0788 388.71229 123.5293 410.14062 L 140.71289 427.32422 C 140.67884 427.29403 140.64537 427.26264 140.61133 427.23242 L 123.51953 410.14062 C 126.28053 413.23762 129.09584 416.22084 131.96484 419.08984 L 224.875 512 L 486 512 C 500.397 512 512 500.397 512 486 L 512 224.85156 L 380.41211 93.263672 C 380.49952 93.351116 380.58455 93.443596 380.67188 93.53125 L 380.41016 93.269531 C 364.70316 77.562531 347.43103 65.269672 328.58203 56.513672 L 328.58008 56.509766 C 306.23608 46.162766 282.06606 40.998047 256.28906 40.998047 z "
     id="path341997" />
  <path
     inkscape:connector-curvature="0"
     d="m 256.3,41 c -25.786,0 -49.909,5.164 -72.29,15.511 -22.38,10.39 -42.498,25.762 -60.49,45.903 -19.448,21.431 -33.883,44.691 -43.05,69.69 -9.166,24.961 -13.619,53.02 -13.619,84.15 0,31.14 4.452,59.28 13.619,84.23 9.163,25.02 23.598,48.22 43.05,69.65 17.8,19.973 37.849,35.21 60.19,45.49 22.359,10.263 46.618,15.363 72.59,15.363 25.969,0 50.16,-5.103 72.54,-15.363 22.38,-10.284 42.4,-25.523 60.23,-45.49 19.256,-21.283 33.542,-44.36 42.601,-69.28 9.08,-24.83 13.465,-53.11 13.465,-84.6 0,-31.507 -4.391,-59.753 -13.465,-84.6 -9.05,-24.893 -23.36,-47.979 -42.637,-69.24 C 371.089,82.274 350.944,66.899 328.574,56.511 306.23,46.164 282.061,41 256.284,41 m 0,28.351 c 29.18,0 47.75,11.149 58.22,32.73 11.231,23.12 17.589,73.7 17.589,154.19 0,80.53 -6.355,131.1 -17.589,154.19 -10.473,21.623 -29.05,32.767 -58.22,32.767 -29.352,0 -48.1,-11.261 -58.706,-33.03 -11.339,-23.295 -17.7,-73.79 -17.7,-153.93 0,-80.12 6.363,-130.56 17.7,-153.86 10.603,-21.79 29.356,-33.06 58.706,-33.06"
     style="fill:#ffffff;fill-rule:evenodd"
     id="path342053" />
</svg>
