<?xml version="1.0" encoding="UTF-8" standalone="no"?>
<svg
   xmlns:dc="http://purl.org/dc/elements/1.1/"
   xmlns:cc="http://creativecommons.org/ns#"
   xmlns:rdf="http://www.w3.org/1999/02/22-rdf-syntax-ns#"
   xmlns:svg="http://www.w3.org/2000/svg"
   xmlns="http://www.w3.org/2000/svg"
   xmlns:sodipodi="http://sodipodi.sourceforge.net/DTD/sodipodi-0.dtd"
   xmlns:inkscape="http://www.inkscape.org/namespaces/inkscape"
   viewBox="0 0 512 512"
   id="svg2"
   version="1.1"
   inkscape:version="0.91+devel r13804 custom"
   width="100%"
   height="100%"
   sodipodi:docname="opera-widget.svg">
  <sodipodi:namedview
     inkscape:current-layer="svg2"
     inkscape:window-maximized="1"
     inkscape:window-y="-3"
     inkscape:window-x="-2"
     inkscape:cy="111.2532"
     inkscape:cx="359.44507"
     inkscape:zoom="0.4609375"
     inkscape:guide-bbox="true"
     showguides="true"
     showgrid="false"
     id="namedview6"
     inkscape:window-height="709"
     inkscape:window-width="1366"
     inkscape:pageshadow="2"
     inkscape:pageopacity="0"
     guidetolerance="10"
     gridtolerance="10"
     objecttolerance="10"
     borderopacity="1"
     bordercolor="#666666"
     pagecolor="#ffffff">
    <sodipodi:guide
       id="guide2991"
       position="267.59322,40.983051"
       orientation="0,1" />
    <sodipodi:guide
       id="guide2993"
       position="40.940284,84.756935"
       orientation="1,0" />
    <sodipodi:guide
       id="guide2995"
       position="471.05085,254.98305"
       orientation="1,0" />
  </sodipodi:namedview>
  <metadata
     id="metadata10">
    <rdf:RDF>
      <cc:Work
         rdf:about="">
        <dc:format>image/svg+xml</dc:format>
        <dc:type
           rdf:resource="http://purl.org/dc/dcmitype/StillImage" />
        <dc:title></dc:title>
      </cc:Work>
    </rdf:RDF>
  </metadata>
  <defs
     id="defs8" />
  <path
     inkscape:connector-curvature="0"
     d="M 26,0 C 11.603,0 0,11.603 0,26 l 0,460 c 0,14.397 11.603,26 26,26 l 460,0 c 14.397,0 26,-11.603 26,-26 L 512,26 C 512,11.603 500.397,0 486,0 L 26,0"
     style="fill:#cd1d31"
     id="path341330" />
  <text
     sodipodi:linespacing="125%"
     y="71.580002"
     x="-159.92999"
     line-height="125%"
     style="font-size:129.22999573px;line-height:125%;font-family:'Gentium Book Basic';letter-spacing:0;word-spacing:0"
     id="text341332">
    <tspan
       y="71.580002"
       x="-159.92999"
       id="tspan341334" />
  </text>
  <text
     transform="scale(4.0128205,0.24920128)"
     y="-61.916683"
     x="157.22919"
     style="font-size:46.95399857px;font-family:Arial;text-anchor:middle"
     id="text341336" />
  <text
     sodipodi:linespacing="125%"
     y="-8.4189997"
     x="421.34"
     line-height="125%"
     style="font-size:129.22999573px;line-height:125%;font-family:'Gentium Book Basic';letter-spacing:0;word-spacing:0"
     id="text341338">
    <tspan
       y="-8.4189997"
       x="421.34"
       id="tspan341340" />
  </text>
  <text
     transform="scale(4.0128205,0.24920128)"
     y="-382.93805"
     x="302.07843"
     style="font-size:46.95399857px;font-family:Arial;text-anchor:middle"
     id="text341342" />
  <text
     sodipodi:linespacing="125%"
     y="-189.67999"
     x="-650.23999"
     line-height="125%"
     style="font-size:129.22999573px;line-height:125%;font-family:'Gentium Book Basic';letter-spacing:0;word-spacing:0"
     id="text341344">
    <tspan
       y="-189.67999"
       x="-650.23999"
       id="tspan341346" />
  </text>
  <text
     transform="scale(4.0128205,0.24920128)"
     y="-1110.2943"
     x="35.039822"
     style="font-size:46.95399857px;font-family:Arial;text-anchor:middle"
     id="text341348" />
  <text
     sodipodi:linespacing="125%"
     y="-406.14999"
     x="447.81"
     line-height="125%"
     style="font-size:129.22999573px;line-height:125%;font-family:'Gentium Book Basic';letter-spacing:0;word-spacing:0"
     id="text341350">
    <tspan
       y="-406.14999"
       x="447.81"
       id="tspan341352" />
  </text>
  <text
     transform="scale(4.0128205,0.24920128)"
     y="-1978.9598"
     x="308.67841"
     style="font-size:46.95399857px;font-family:Arial;text-anchor:middle"
     id="text341354" />
  <text
     sodipodi:linespacing="125%"
     y="-486.16"
     x="1029.08"
     line-height="125%"
     style="font-size:129.22999573px;line-height:125%;font-family:'Gentium Book Basic';letter-spacing:0;word-spacing:0"
     id="text341356">
    <tspan
       y="-486.16"
       x="1029.08"
       id="tspan341358" />
  </text>
  <text
     transform="scale(4.0128205,0.24920128)"
     y="-2299.9983"
     x="453.52768"
     style="font-size:46.95399857px;font-family:Arial;text-anchor:middle"
     id="text341360" />
  <text
     sodipodi:linespacing="125%"
     y="-958.56"
     x="639.96002"
     line-height="125%"
     style="font-size:129.22999573px;line-height:125%;font-family:'Gentium Book Basic';letter-spacing:0;word-spacing:0"
     id="text341362">
    <tspan
       y="-958.56"
       x="639.96002"
       id="tspan341364" />
  </text>
  <text
     transform="scale(4.0128205,0.24920128)"
     y="-4195.6387"
     x="356.55817"
     style="font-size:46.95399857px;font-family:Arial;text-anchor:middle"
     id="text341366" />
  <text
     sodipodi:linespacing="125%"
     y="-1038.5601"
     x="1221.22"
     line-height="125%"
     style="font-size:129.22999573px;line-height:125%;font-family:'Gentium Book Basic';letter-spacing:0;word-spacing:0"
     id="text341368">
    <tspan
       y="-1038.5601"
       x="1221.22"
       id="tspan341370" />
  </text>
  <text
     transform="scale(4.0128205,0.24920128)"
     y="-4516.6572"
     x="501.39743"
     style="font-size:46.95399857px;font-family:Arial;text-anchor:middle"
     id="text341372" />
  <text
     sodipodi:linespacing="125%"
     y="376.16"
     x="-611.58002"
     line-height="125%"
     style="font-size:208.33000183px;line-height:125%;font-family:'Gentium Book Basic';letter-spacing:0;word-spacing:0"
     id="text341374">
    <tspan
       y="376.16"
       x="-611.58002"
       id="tspan341376" />
  </text>
  <path
     style="fill-rule:evenodd;opacity:0.25"
     d="M 253.16992 41 L 243.14062 65.169922 L 469.7832 291.8125 C 469.7828 291.81512 469.78165 291.8177 469.78125 291.82031 L 243.13086 65.169922 C 224.86143 109.24372 213.34076 112.15758 170.72852 83.478516 L 170.7207 83.470703 L 147.16992 67.609375 L 247.78516 168.22461 C 247.78193 168.22495 247.77861 168.22427 247.77539 168.22461 L 147.16016 67.609375 L 130.01367 79.453125 L 130.00977 79.449219 C 102.23977 98.693219 101.73928 100.09183 112.23828 130.42383 L 185.99023 204.17578 L 185.98828 204.17773 L 112.24023 130.42969 C 128.96077 178.73833 126.29914 183.77064 79.042969 193.20312 L 79.039062 193.19922 C 64.258062 196.14922 49.680563 201.7608 46.601562 205.7168 L 46.603516 205.7207 C 43.524516 209.6767 40.998672 223.11512 41.013672 235.57812 L 82.494141 277.05859 C 82.488865 277.05539 82.483794 277.05203 82.478516 277.04883 L 41.009766 235.58008 C 41.019766 248.72508 41.033703 254.24759 44.970703 258.18359 L 100.25391 313.4668 C 96.976722 320.68558 91.669773 329.92428 85.689453 338.4707 L 67.630859 364.21484 L 109.7207 406.30469 C 109.71927 406.30513 109.71823 406.3062 109.7168 406.30664 L 67.630859 364.2207 L 83.826172 386.24023 L 105.23633 407.65039 C 105.2349 407.65078 105.23385 407.65196 105.23242 407.65234 L 83.820312 386.24023 C 90.011313 394.67723 96.070375 402.03131 99.734375 405.69531 L 206.03906 512 L 486 512 C 500.397 512 512 500.397 512 486 L 512 206.71875 L 416.06055 110.7793 C 410.61155 105.3303 406.91506 104.49145 402.03906 106.06445 L 402.04688 106.07227 C 397.78145 107.44981 386.00615 110.8841 374.03906 114.30664 L 306.84766 47.117188 L 306.83984 47.109375 C 306.64484 46.914375 306.45167 46.742703 306.26367 46.595703 L 306.25977 46.591797 C 302.30397 43.511955 288.74154 41.002211 276.12109 41.001953 L 276.11914 41.001953 L 276.11914 41 L 253.18945 41 L 411.43359 199.24414 C 411.43165 199.24853 411.42968 199.25343 411.42773 199.25781 L 253.16992 41 z "
     id="path341380" />
  <path
     inkscape:connector-curvature="0"
     d="m 253.17,41 -10.03,24.17 c -18.272,44.08 -29.793,46.989 -72.42,18.297 l -23.551,-15.861 -17.15,11.848 c -27.77,19.244 -28.27,20.642 -17.771,50.974 16.721,48.31 14.06,53.34 -33.2,62.773 -14.781,2.95 -29.359,8.561 -32.438,12.517 -3.079,3.956 -5.605,17.396 -5.59,29.859 0.017,22.624 0.045,22.669 20.06,30.909 27.566,11.336 42.614,24.14 42.614,36.16 0,5.572 -8.093,21.672 -18,35.83 l -18.06,25.745 16.196,22.02 c 8.895,12.12 17.519,22.01 19.16,21.928 1.638,-0.081 14.06,-4.072 27.613,-8.838 37.15,-13.07 48.5,-11.935 55.66,5.59 3.266,8.01 7.302,24.12 8.981,35.782 1.824,12.668 6.127,22.966 10.654,25.61 4.166,2.43 17.76,4.463 30.25,4.546 l 22.699,0.144 10.03,-24.12 c 18.272,-44.08 29.793,-46.989 72.42,-18.297 l 23.551,15.861 17.15,-11.896 c 27.77,-19.244 28.27,-20.642 17.771,-50.974 -16.721,-48.31 -14.11,-53.3 33.16,-62.725 14.781,-2.95 29.406,-8.609 32.486,-12.565 3.079,-3.956 5.59,-17.592 5.59,-30.336 l 0,-23.22 -19.874,-7.596 c -26.933,-10.286 -42.805,-23.527 -42.805,-35.734 0,-5.572 8.093,-21.72 18,-35.878 l 18.06,-25.745 -16.434,-22.357 c -13.423,-18.285 -18.18,-21.837 -25.893,-19.348 -5.189,1.676 -21.21,6.352 -35.591,10.415 -26,7.344 -26.16,7.342 -34.397,-2.819 -4.552,-5.62 -10.592,-21.741 -13.425,-35.83 -2.833,-14.09 -8.417,-28.16 -12.373,-31.24 -3.956,-3.08 -17.519,-5.59 -30.14,-5.59 l -22.93,0 m 3.869,126.74 c 61.34,0.5 107.81,69.61 77.16,128.89 -13.503,26.12 -51.743,49.28 -80.45,48.729 -4.927,-0.094 -17.04,-3.02 -26.896,-6.498 -37.07,-13.11 -65.05,-59.17 -58.19,-95.74 6.465,-34.461 32.859,-63.57 65.59,-72.37 6.729,-1.812 13.38,-2.783 19.874,-2.962 0.981,-0.027 1.94,-0.055 2.914,-0.048"
     style="fill:#ffffff;fill-rule:evenodd"
     id="path341498" />
</svg>
