<?xml version="1.0" encoding="UTF-8" standalone="no"?>
<svg
   xmlns:dc="http://purl.org/dc/elements/1.1/"
   xmlns:cc="http://creativecommons.org/ns#"
   xmlns:rdf="http://www.w3.org/1999/02/22-rdf-syntax-ns#"
   xmlns:svg="http://www.w3.org/2000/svg"
   xmlns="http://www.w3.org/2000/svg"
   xmlns:sodipodi="http://sodipodi.sourceforge.net/DTD/sodipodi-0.dtd"
   xmlns:inkscape="http://www.inkscape.org/namespaces/inkscape"
   viewBox="0 0 512 512"
   id="svg2"
   version="1.1"
   inkscape:version="0.91+devel r13804 custom"
   width="100%"
   height="100%"
   sodipodi:docname="paypal.svg">
  <sodipodi:namedview
     inkscape:current-layer="svg2"
     inkscape:window-maximized="1"
     inkscape:window-y="-3"
     inkscape:window-x="-2"
     inkscape:cy="111.2532"
     inkscape:cx="359.44507"
     inkscape:zoom="0.4609375"
     inkscape:guide-bbox="true"
     showguides="true"
     showgrid="false"
     id="namedview6"
     inkscape:window-height="709"
     inkscape:window-width="1366"
     inkscape:pageshadow="2"
     inkscape:pageopacity="0"
     guidetolerance="10"
     gridtolerance="10"
     objecttolerance="10"
     borderopacity="1"
     bordercolor="#666666"
     pagecolor="#ffffff">
    <sodipodi:guide
       id="guide2993"
       position="40.940284,84.756935"
       orientation="1,0" />
    <sodipodi:guide
       id="guide2995"
       position="471.05085,254.98305"
       orientation="1,0" />
  </sodipodi:namedview>
  <metadata
     id="metadata10">
    <rdf:RDF>
      <cc:Work
         rdf:about="">
        <dc:format>image/svg+xml</dc:format>
        <dc:type
           rdf:resource="http://purl.org/dc/dcmitype/StillImage" />
        <dc:title></dc:title>
      </cc:Work>
    </rdf:RDF>
  </metadata>
  <defs
     id="defs8">
    <clipPath
       id="0-3">
      <path
         id="path342588"
         d="m26 0c-14.397 0-26 11.603-26 26v460c0 14.397 11.603 26 26 26h460c14.397 0 26-11.603 26-26v-460c0-14.397-11.603-26-26-26h-460" />
    </clipPath>
  </defs>
  <path
     inkscape:connector-curvature="0"
     d="M 26,0 C 11.603,0 0,11.603 0,26 l 0,460 c 0,14.397 11.603,26 26,26 l 460,0 c 14.397,0 26,-11.603 26,-26 L 512,26 C 512,11.603 500.397,0 486,0 L 26,0"
     style="fill:#0e5f95"
     id="path345161" />
  <text
     sodipodi:linespacing="125%"
     y="229.64"
     x="-228.96001"
     line-height="125%"
     style="font-size:129.22999573px;line-height:125%;font-family:'Gentium Book Basic';letter-spacing:0;word-spacing:0"
     id="text345163">
    <tspan
       y="229.64"
       x="-228.96001"
       id="tspan345165" />
  </text>
  <text
     transform="scale(4.0128205,0.24920128)"
     y="572.34705"
     x="140.01929"
     style="font-size:46.95399857px;font-family:Arial;text-anchor:middle"
     id="text345167" />
  <text
     sodipodi:linespacing="125%"
     y="149.64"
     x="352.31"
     line-height="125%"
     style="font-size:129.22999573px;line-height:125%;font-family:'Gentium Book Basic';letter-spacing:0;word-spacing:0"
     id="text345169">
    <tspan
       y="149.64"
       x="352.31"
       id="tspan345171" />
  </text>
  <text
     transform="scale(4.0128205,0.24920128)"
     y="251.30872"
     x="284.86853"
     style="font-size:46.95399857px;font-family:Arial;text-anchor:middle"
     id="text345173" />
  <text
     sodipodi:linespacing="125%"
     y="-31.622"
     x="-719.27002"
     line-height="125%"
     style="font-size:129.22999573px;line-height:125%;font-family:'Gentium Book Basic';letter-spacing:0;word-spacing:0"
     id="text345175">
    <tspan
       y="-31.622"
       x="-719.27002"
       id="tspan345177" />
  </text>
  <text
     transform="scale(4.0128205,0.24920128)"
     y="-476.03757"
     x="17.833908"
     style="font-size:46.95399857px;font-family:Arial;text-anchor:middle"
     id="text345179" />
  <text
     sodipodi:linespacing="125%"
     y="-248.09"
     x="378.78"
     line-height="125%"
     style="font-size:129.22999573px;line-height:125%;font-family:'Gentium Book Basic';letter-spacing:0;word-spacing:0"
     id="text345181">
    <tspan
       y="-248.09"
       x="378.78"
       id="tspan345183" />
  </text>
  <text
     transform="scale(4.0128205,0.24920128)"
     y="-1344.7031"
     x="291.46851"
     style="font-size:46.95399857px;font-family:Arial;text-anchor:middle"
     id="text345185" />
  <text
     sodipodi:linespacing="125%"
     y="-328.09"
     x="960.04999"
     line-height="125%"
     style="font-size:129.22999573px;line-height:125%;font-family:'Gentium Book Basic';letter-spacing:0;word-spacing:0"
     id="text345187">
    <tspan
       y="-328.09"
       x="960.04999"
       id="tspan345189" />
  </text>
  <text
     transform="scale(4.0128205,0.24920128)"
     y="-1665.7314"
     x="436.31778"
     style="font-size:46.95399857px;font-family:Arial;text-anchor:middle"
     id="text345191" />
  <text
     sodipodi:linespacing="125%"
     y="-800.48999"
     x="570.92999"
     line-height="125%"
     style="font-size:129.22999573px;line-height:125%;font-family:'Gentium Book Basic';letter-spacing:0;word-spacing:0"
     id="text345193">
    <tspan
       y="-800.48999"
       x="570.92999"
       id="tspan345195" />
  </text>
  <text
     transform="scale(4.0128205,0.24920128)"
     y="-3561.3716"
     x="339.34827"
     style="font-size:46.95399857px;font-family:Arial;text-anchor:middle"
     id="text345197" />
  <text
     sodipodi:linespacing="125%"
     y="-880.5"
     x="1152.1899"
     line-height="125%"
     style="font-size:129.22999573px;line-height:125%;font-family:'Gentium Book Basic';letter-spacing:0;word-spacing:0"
     id="text345199">
    <tspan
       y="-880.5"
       x="1152.1899"
       id="tspan345201" />
  </text>
  <text
     transform="scale(4.0128205,0.24920128)"
     y="-3882.4102"
     x="484.19754"
     style="font-size:46.95399857px;font-family:Arial;text-anchor:middle"
     id="text345203" />
  <text
     sodipodi:linespacing="125%"
     y="534.21997"
     x="-680.60999"
     line-height="125%"
     style="font-size:208.33000183px;line-height:125%;font-family:'Gentium Book Basic';letter-spacing:0;word-spacing:0"
     id="text345205">
    <tspan
       y="534.21997"
       x="-680.60999"
       id="tspan345207" />
  </text>
  <path
     d="M 252.09961 45.285156 L 393.25586 186.44141 L 393.25391 186.44336 L 252.09961 45.289062 L 141.61914 45.289062 C 130.21114 45.289062 118.78384 54.232219 116.21484 65.199219 L 116.21875 65.203125 L 41.541016 385.00586 L 41.535156 385 C 40.077156 391.141 41.671891 396.64164 45.337891 400.30664 L 45.339844 400.31055 C 45.346018 400.31672 45.353189 400.32197 45.359375 400.32812 L 157.03125 512 L 486 512 C 500.397 512 512 500.397 512 486 L 512 205.52344 L 447.11914 140.64258 C 447.19021 140.71364 447.25737 140.78807 447.32812 140.85938 L 447.11914 140.65039 C 442.61029 136.14154 437.4987 132.11411 431.78906 128.60938 L 431.76953 128.58984 C 430.39453 127.75484 429.32069 127.48622 427.92969 126.69922 C 429.23642 129.16412 430.41122 131.74548 431.46094 134.4375 L 375.91016 78.886719 L 375.9082 78.884766 L 375.90625 78.882812 C 371.4032 74.380391 366.29257 70.359689 360.57422 66.845703 L 360.58008 66.851562 C 347.55008 58.894562 332.24955 53.390859 314.56055 50.130859 L 399.48633 135.05664 C 399.48659 135.06054 399.48802 135.06446 399.48828 135.06836 L 314.55078 50.130859 C 296.78078 46.916859 276.01761 45.285156 252.09961 45.285156 z "
     id="path345211"
     style="opacity:0.25" />
  <path
     inkscape:connector-curvature="0"
     d="m 141.62,45.29 c -11.408,0 -22.836,8.943 -25.405,19.91 l -74.68,319.81 c -2.615,11.02 4.59,19.97 15.952,19.97 l 53.11,0 c 11.408,0 22.764,-8.943 25.287,-19.91 l 18.2,-77.57 c 2.569,-10.921 13.938,-19.851 25.346,-19.851 l 15.12,0 c 64.718,0 115.12,-13.05 151.13,-39.29 36.06,-26.23 54.12,-60.738 54.12,-103.57 0,-18.824 -3.374,-34.565 -10.1,-47.27 C 382.987,84.974 373.281,74.656 360.57,66.856 347.54,58.899 332.239,53.396 314.55,50.136 296.78,46.922 276.018,45.291 252.1,45.291 l -110.48,0 m 84.07,62.922 17.37,0 c 20.248,0 35.63,3.393 45.906,10.162 10.322,6.72 15.42,17.11 15.42,31.14 0,21.249 -7.963,37.645 -23.928,49.16 -15.95,11.463 -38.12,17.311 -66.762,17.311 l -13.175,0 c -11.408,0 -18.653,-9.05 -16.13,-19.97 l 15.952,-67.944 c 2.584,-10.914 13.984,-19.851 25.346,-19.851 m 202.24,18.493 c 6.729,12.693 10.04,28.384 10.04,47.21 0,42.837 -18.05,77.33 -54.06,103.57 -36.06,26.23 -86.41,39.35 -151.13,39.35 l -15.184,0 c -11.362,0 -22.717,8.939 -25.287,19.851 l -18.2,77.51 c -2.523,10.921 -13.925,19.97 -25.287,19.97 l -33.2,0 -2.954,12.643 c -2.569,10.968 4.662,19.91 16.07,19.91 l 53.06,0 c 11.408,0 22.822,-8.99 25.346,-19.91 l 18.2,-77.51 c 2.569,-10.914 13.938,-19.91 25.346,-19.91 l 15.184,0 c 64.67,0 115.06,-13.06 151.07,-39.29 36.06,-26.23 54.06,-60.788 54.06,-103.57 0,-18.824 -3.33,-34.506 -10.04,-47.21 -6.729,-12.544 -16.478,-22.914 -29.19,-30.722 -1.375,-0.835 -2.449,-1.104 -3.84,-1.891"
     style="fill:#ffffff"
     id="path345311" />
</svg>
