<?xml version="1.0" encoding="UTF-8" standalone="no"?>
<svg
   xmlns:dc="http://purl.org/dc/elements/1.1/"
   xmlns:cc="http://creativecommons.org/ns#"
   xmlns:rdf="http://www.w3.org/1999/02/22-rdf-syntax-ns#"
   xmlns:svg="http://www.w3.org/2000/svg"
   xmlns="http://www.w3.org/2000/svg"
   xmlns:xlink="http://www.w3.org/1999/xlink"
   xmlns:sodipodi="http://sodipodi.sourceforge.net/DTD/sodipodi-0.dtd"
   xmlns:inkscape="http://www.inkscape.org/namespaces/inkscape"
   viewBox="0 0 512 512"
   id="svg2"
   version="1.1"
   inkscape:version="0.91+devel r13804 custom"
   width="100%"
   height="100%"
   sodipodi:docname="pgadmin.svg">
  <sodipodi:namedview
     inkscape:current-layer="svg2"
     inkscape:window-maximized="1"
     inkscape:window-y="-3"
     inkscape:window-x="-2"
     inkscape:cy="135.11761"
     inkscape:cx="244.46202"
     inkscape:zoom="0.4609375"
     inkscape:guide-bbox="true"
     showguides="true"
     showgrid="false"
     id="namedview6"
     inkscape:window-height="709"
     inkscape:window-width="1366"
     inkscape:pageshadow="2"
     inkscape:pageopacity="0"
     guidetolerance="10"
     gridtolerance="10"
     objecttolerance="10"
     borderopacity="1"
     bordercolor="#666666"
     pagecolor="#ffffff">
    <sodipodi:guide
       id="guide2993"
       position="40.940284,84.756935"
       orientation="1,0" />
    <sodipodi:guide
       id="guide2995"
       position="471.05085,254.98305"
       orientation="1,0" />
  </sodipodi:namedview>
  <metadata
     id="metadata10">
    <rdf:RDF>
      <cc:Work
         rdf:about="">
        <dc:format>image/svg+xml</dc:format>
        <dc:type
           rdf:resource="http://purl.org/dc/dcmitype/StillImage" />
        <dc:title></dc:title>
      </cc:Work>
    </rdf:RDF>
  </metadata>
  <defs
     id="defs8">
    <path
       style="fill:#fff"
       d="m350.45 319.42v-94.57h-3.967v53.54c0 5.293-.771 10.322-2.35 15.06-1.579 4.813-3.967 9.03-7.126 12.738-3.046 3.563-6.863 6.468-11.497 8.668-4.588 2.096-9.956 3.121-16.01 3.121-4.371 0-8.517-.62-12.485-1.73-3.817-1.25-7.239-3.01-10.285-5.547-2.905-2.538-5.218-5.688-6.9-9.551-1.73-3.93-1.871-8.781-1.871-14.318l-3.892.62c0 1.467 0 3.121 0 4.484.216 3.779.555 7.239 1.796 10.388 1.833 4.118 4.334 7.643 7.53 10.689 3.272 2.792 7.126 4.954 11.46 6.43 4.484 1.363 9.363 2.02 14.656 2.02 10.02 0 18.14-2.388 24.349-7.164 6.317-4.813 10.388-10.868 12.268-18.247h.367v23.39h3.93"
       id="5" />
    <path
       style="fill:#fff"
       d="m266.25 199.7h3.779c0-22.656 20.344-34.521 40.43-34.521 10.209 0 19.611 3.01 26.473 8.48 7.746 6.205 11.826 15.201 11.826 26.04h3.779c0-11.902-4.55-21.81-13.14-28.682-7.568-6.06-17.843-9.363-28.936-9.363-21.961 0-44.21 13.08-44.21 38.05"
       id="6" />
    <clipPath
       id="2">
      <path
         id="path346148"
         style="fill:#1890d0;stroke-width:15.333"
         d="m47 24c0 12.708-10.304 23-23 23-12.696 0-23-10.292-23-23 0-12.708 10.304-23 23-23 12.696 0 23 10.292 23 23" />
    </clipPath>
    <clipPath
       id="1">
      <path
         id="path346151"
         style="fill:#1890d0;stroke-width:15.333"
         d="m47 24c0 12.708-10.304 23-23 23-12.696 0-23-10.292-23-23 0-12.708 10.304-23 23-23 12.696 0 23 10.292 23 23" />
    </clipPath>
    <clipPath
       id="clipPath346153">
      <rect
         id="rect346155"
         style="fill:#fff"
         width="84"
         height="84"
         rx="6"
         x="6"
         y="6" />
    </clipPath>
    <clipPath
       id="3">
      <path
         id="path346161"
         style="fill:#1890d0;stroke-width:15.333"
         d="m47 24c0 12.708-10.304 23-23 23-12.696 0-23-10.292-23-23 0-12.708 10.304-23 23-23 12.696 0 23 10.292 23 23" />
    </clipPath>
    <filter
       id="filter346163"
       style="color-interpolation-filters:sRGB">
      <feGaussianBlur
         id="feGaussianBlur346165"
         stdDeviation="1.71" />
    </filter>
    <filter
       id="filter346167"
       style="color-interpolation-filters:sRGB"
       x="-.192"
       y="-.192"
       width="1.384"
       height="1.384">
      <feGaussianBlur
         id="feGaussianBlur346169"
         stdDeviation="5.28" />
    </filter>
    <linearGradient
       y1="92.54"
       x2="0"
       y2="7.02"
       id="0"
       gradientUnits="userSpaceOnUse"
       gradientTransform="scale(1.0059.99417)">
      <stop
         id="stop346172" />
      <stop
         id="stop346174"
         style="stop-opacity:.588"
         offset="1" />
    </linearGradient>
    <linearGradient
       id="linearGradient346176"
       y1="92.54"
       x2="0"
       y2="7.02"
       xlink:href="#0"
       gradientUnits="userSpaceOnUse"
       gradientTransform="scale(1.0059.99417)" />
    <linearGradient
       id="linearGradient346178"
       y1="20.221"
       x2="0"
       y2="138.66"
       gradientUnits="userSpaceOnUse">
      <stop
         id="stop346180"
         style="stop-color:#fff" />
      <stop
         id="stop346182"
         style="stop-color:#fff;stop-opacity:0"
         offset="1" />
    </linearGradient>
    <linearGradient
       id="linearGradient346184"
       y1="92.54"
       x2="0"
       y2="7.02"
       xlink:href="#0"
       gradientUnits="userSpaceOnUse"
       gradientTransform="scale(1.0059.99417)" />
    <linearGradient
       id="linearGradient346186"
       y1="92.54"
       x2="0"
       y2="7.02"
       xlink:href="#0"
       gradientUnits="userSpaceOnUse"
       gradientTransform="scale(1.0059.99417)" />
    <linearGradient
       id="linearGradient346188"
       y1="92.54"
       x2="0"
       y2="7.02"
       gradientUnits="userSpaceOnUse"
       gradientTransform="scale(1.0059.99417)">
      <stop
         id="stop346190" />
      <stop
         id="stop346192"
         style="stop-opacity:.588"
         offset="1" />
    </linearGradient>
    <clipPath
       id="0-3">
      <path
         id="path378153"
         d="m26 0c-14.397 0-26 11.603-26 26v460c0 14.397 11.603 26 26 26h460c14.397 0 26-11.603 26-26v-460c0-14.397-11.603-26-26-26h-460" />
    </clipPath>
  </defs>
  <path
     inkscape:connector-curvature="0"
     d="m 25.99976,0 c -14.397,0 -26,11.603 -26,26 l 0,460 c 0,14.397 11.603,26 26,26 l 460,0 c 14.397,0 26,-11.603 26,-26 l 0,-460 c 0,-14.397 -11.603,-26 -26,-26 l -460,0"
     style="fill:#33678e"
     id="path378155" />
  <text
     sodipodi:linespacing="125%"
     y="263.39001"
     x="-431.46021"
     line-height="125%"
     style="font-size:129.22999573px;line-height:125%;font-family:'Gentium Book Basic';letter-spacing:0;word-spacing:0"
     id="text378157">
    <tspan
       y="263.39001"
       x="-431.46021"
       id="tspan378159" />
  </text>
  <text
     transform="scale(4.0128205,0.24920128)"
     y="707.77637"
     x="89.559479"
     style="font-size:46.95399857px;font-family:Arial;text-anchor:middle"
     id="text378161" />
  <text
     sodipodi:linespacing="125%"
     y="183.39"
     x="149.80975"
     line-height="125%"
     style="font-size:129.22999573px;line-height:125%;font-family:'Gentium Book Basic';letter-spacing:0;word-spacing:0"
     id="text378163">
    <tspan
       y="183.39"
       x="149.80975"
       id="tspan378165" />
  </text>
  <text
     transform="scale(4.0128205,0.24920128)"
     y="386.73798"
     x="234.40874"
     style="font-size:46.95399857px;font-family:Arial;text-anchor:middle"
     id="text378167" />
  <text
     sodipodi:linespacing="125%"
     y="2.1270077"
     x="-921.77026"
     line-height="125%"
     style="font-size:129.22999573px;line-height:125%;font-family:'Gentium Book Basic';letter-spacing:0;word-spacing:0"
     id="text378169">
    <tspan
       y="2.1270077"
       x="-921.77026"
       id="tspan378171" />
  </text>
  <text
     transform="scale(4.0128205,0.24920128)"
     y="-340.60822"
     x="-32.627892"
     style="font-size:46.95399857px;font-family:Arial;text-anchor:middle"
     id="text378173" />
  <text
     sodipodi:linespacing="125%"
     y="-214.34"
     x="176.27975"
     line-height="125%"
     style="font-size:129.22999573px;line-height:125%;font-family:'Gentium Book Basic';letter-spacing:0;word-spacing:0"
     id="text378175">
    <tspan
       y="-214.34"
       x="176.27975"
       id="tspan378177" />
  </text>
  <text
     transform="scale(4.0128205,0.24920128)"
     y="-1209.2738"
     x="241.0087"
     style="font-size:46.95399857px;font-family:Arial;text-anchor:middle"
     id="text378179" />
  <text
     sodipodi:linespacing="125%"
     y="-294.33997"
     x="757.54974"
     line-height="125%"
     style="font-size:129.22999573px;line-height:125%;font-family:'Gentium Book Basic';letter-spacing:0;word-spacing:0"
     id="text378181">
    <tspan
       y="-294.33997"
       x="757.54974"
       id="tspan378183" />
  </text>
  <text
     transform="scale(4.0128205,0.24920128)"
     y="-1530.3021"
     x="385.85794"
     style="font-size:46.95399857px;font-family:Arial;text-anchor:middle"
     id="text378185" />
  <text
     sodipodi:linespacing="125%"
     y="-766.73993"
     x="368.42975"
     line-height="125%"
     style="font-size:129.22999573px;line-height:125%;font-family:'Gentium Book Basic';letter-spacing:0;word-spacing:0"
     id="text378187">
    <tspan
       y="-766.73993"
       x="368.42975"
       id="tspan378189" />
  </text>
  <text
     transform="scale(4.0128205,0.24920128)"
     y="-3425.9424"
     x="288.88849"
     style="font-size:46.95399857px;font-family:Arial;text-anchor:middle"
     id="text378191" />
  <text
     sodipodi:linespacing="125%"
     y="-846.74994"
     x="949.68976"
     line-height="125%"
     style="font-size:129.22999573px;line-height:125%;font-family:'Gentium Book Basic';letter-spacing:0;word-spacing:0"
     id="text378193">
    <tspan
       y="-846.74994"
       x="949.68976"
       id="tspan378195" />
  </text>
  <text
     transform="scale(4.0128205,0.24920128)"
     y="-3746.981"
     x="433.7377"
     style="font-size:46.95399857px;font-family:Arial;text-anchor:middle"
     id="text378197" />
  <text
     sodipodi:linespacing="125%"
     y="567.96997"
     x="-883.11023"
     line-height="125%"
     style="font-size:208.33000183px;line-height:125%;font-family:'Gentium Book Basic';letter-spacing:0;word-spacing:0"
     id="text378199">
    <tspan
       y="567.96997"
       x="-883.11023"
       id="tspan378201" />
  </text>
  <path
     inkscape:connector-curvature="0"
     d="m 360.60961,41.00311 104.92773,104.92773 c -3.8e-4,0.002 -0.002,0.004 -0.002,0.006 L 360.60961,41.01092 c -16.24704,0.14498 -30.50172,2.47501 -40.26563,4.67578 l -0.004,-0.004 c -1.233,0.278 -2.1611,0.55418 -3.2461,0.82618 l 17.21485,17.21484 C 316.32331,53.61253 294.23854,46.69425 267.35951,46.28622 l 99.5293,99.5293 c -10e-4,3e-4 -0.003,-3.1e-4 -0.004,0 L 267.35942,46.29013 c -1.63733,-0.026 -3.26041,-0.035 -4.8418,0 -23.73172,0.51933 -41.19766,7.73632 -54.45703,18.37109 l -0.002,-0.002 c -0.55118,0.44191 -1.08046,0.90145 -1.61719,1.35547 l -6.08203,-6.08204 -0.002,-0.002 -0.002,0 C 187.65098,55.68542 158.18917,47.08899 128.02334,47.11424 l -0.004,-0.004 c -2.662,0.002 -5.31756,0.0717 -7.97656,0.21875 l 52.20898,52.20898 -0.002,0.002 -52.21094,-52.21094 c -21.268995,1.175 -41.727667,7.20592 -56.388667,22.16992 -14.66,14.965 -24.011171,39.25992 -21.951172,78.66992 0.416,7.774 3.773579,28.36625 9.517579,53.03125 l 112.625,112.625 c -0.001,0.001 -0.003,0.002 -0.004,0.004 L 51.21862,201.20988 c 5.744,24.668 13.84425,53.73045 23.65625,79.43945 l -0.002,0 c 9.483,24.846 20.763218,46.60502 32.19922,58.04102 0.0205,0.0205 0.0401,0.0401 0.0605,0.0605 l 173.24845,173.2483 205.61914,0 c 14.397,0 26,-11.603 26,-26 l 0,-352.2793 -57.92968,-57.92968 c -28.16,-28.16 -63.93394,-35.05011 -93.46094,-34.78711 z"
     id="path378205"
     style="opacity:0.25" />
  <path
     inkscape:connector-curvature="0"
     d="m 360.60976,41.01 c -16.249,0.145 -30.506,2.475 -40.27,4.676 -1.233,0.278 -2.161,0.553 -3.246,0.825 28.998,10.445 50.32,28.726 65.08,46.926 11.08,13.665 18.52,27.28 22.996,37.629 2.238,5.177 3.729,9.543 4.566,12.818 0.419,1.638 0.687,2.947 0.77,4.236 0.042,0.644 0.107,1.261 -0.11,2.201 -0.023,0.1 -0.076,0.221 -0.11,0.33 0.589,17.376 -4.04,29.08 -4.676,46.27 -0.372,12.424 2.851,26.613 3.631,41.81 0.754,14.708 -0.978,30.563 -11.168,46.16 0.072,0.087 0.149,0.189 0.22,0.275 1.958,2.38 3.821,4.484 5.391,6.657 27.11,-40.37 46.515,-85.41 56.774,-123.67 5.374,-20.04 8.247,-38.22 8.472,-52.758 0.226,-14.536 -2.416,-25.295 -6.602,-30.422 -29.16,-35.87 -69.22,-44.25 -101.72,-43.956 m -98.09,5.281 c -23.734,0.519 -41.2,7.738 -54.46,18.374 -14.15,11.345 -23.509,26.752 -29.652,42.42 -8.137,20.747 -10.528,41.512 -11.223,53.31 1.456,-0.92 3.03,-1.865 4.786,-2.806 7.176,-3.85 16.645,-7.778 26.682,-10.01 5.02,-1.117 10.215,-1.816 15.294,-1.815 5.079,0.001 10.07,0.739 14.744,2.476 9.343,3.473 17.01,11.459 19.915,24.371 14.41,64.2 -4.218,86.93 -11.443,105.68 -3.773,9.793 -7.04,18.22 -8.03,25.09 2.305,-1.382 4.588,-2.179 6.767,-2.366 4.172,-0.358 7.554,1.039 9.847,1.925 a 4.297022,4.297022 0 0 1 0.055,0 c 6.06,2.448 10.586,7.845 12.983,14.08 1.374,3.576 2.023,7.594 1.485,11.498 -0.259,10.297 -0.38,20.483 -0.385,30.422 1.606,9.546 2.472,21.13 2.146,32.24 -0.26,8.832 -0.527,16.598 -0.44,23.491 0.334,4.295 0.738,8.266 1.155,11.773 0.894,7.51 2.092,13.209 3.081,15.624 2.637,6.383 6.576,15.07 14.14,21.18 7.562,6.109 18.723,10.08 37.629,6.272 16.07,-3.321 26.434,-8.1 33.448,-15.13 7.01,-7.03 11.08,-16.623 13.588,-30.697 3.719,-20.836 11.08,-79.73 12.158,-92.48 -10e-4,-0.018 0.001,-0.037 0,-0.055 -0.527,-8.677 0.756,-15.06 3.411,-19.75 2.661,-4.705 6.647,-7.473 10.233,-9.02 3.334,-1.44 6.204,-2.01 7.922,-2.531 -1.036,-2.05 -3.243,-4.97 -6.712,-9.187 -4.141,-5.03 -9.25,-11.732 -13.313,-21.18 -0.581,-1.357 -2.7,-5.1 -5.446,-9.847 -2.746,-4.748 -6.188,-10.717 -9.792,-17.384 -7.209,-13.335 -15.02,-29.488 -19.03,-45 -4.02,-15.513 -4.412,-31.07 5.226,-41.7 8.982,-9.911 25.716,-13.738 51.823,-10.563 -0.727,-2.635 -1.884,-6.084 -3.796,-10.508 -4.182,-9.673 -11.331,-22.633 -21.84,-35.594 -21.02,-25.921 -55.34,-51.791 -108.1,-52.593 -1.638,-0.026 -3.259,-0.035 -4.841,0 m -134.51,0.825 c -2.662,0.002 -5.318,0.073 -7.977,0.22 -21.269,1.175 -41.729,7.206 -56.39,22.17 -14.66,14.965 -24.01,39.26 -21.95,78.67 0.416,7.774 3.773,28.365 9.517,53.03 5.744,24.668 13.844,53.731 23.656,79.44 9.812,25.709 21.55,48.11 33.393,59.19 5.922,5.542 11.535,8.152 16.999,7.922 5.464,-0.23 11.533,-3.285 18.374,-11.223 17.598,-20.455 33.2,-36.681 38.509,-42.14 -17.81,-13.576 -28.644,-36.662 -24.976,-61.945 a 4.297022,4.297022 0 0 1 0,-0.0549 c 2.178,-14.917 2.448,-28.742 2.201,-39.665 -0.229,-10.1 -0.886,-17.223 -0.99,-21.4 a 4.297022,4.297022 0 0 1 -0.0549,-0.88022 c 0,0 0.001,-0.197 0,-0.22 a 4.297022,4.297022 0 0 1 0,-0.16497 c -0.044,-2.051 -0.525,-33.929 12.1,-66.13 6.194,-15.793 15.596,-31.691 29.927,-44.01 -12.703,-4.245 -42.17,-12.844 -72.34,-12.818 m 255.54,105.13 c -14.545,0.206 -23.19,3.889 -27.892,9.08 -6.688,7.379 -6.995,19.505 -3.301,33.778 3.694,14.273 11.205,30.02 18.264,43.08 3.53,6.529 6.986,12.408 9.737,17.16 2.751,4.756 4.736,8.168 5.831,10.728 1.906,4.433 4.077,8.152 6.272,11.388 7.551,-12.85 8.857,-25.427 8.197,-38.29 -0.729,-14.209 -4.051,-28.5 -3.631,-42.525 0.643,-17.465 4.615,-28.696 4.621,-43.13 -5.57,-0.742 -10.641,-1.187 -15.13,-1.265 -1.023,-0.018 -2,-0.014 -2.971,0 m -169.66,2.146 c -4.284,-0.001 -8.838,0.587 -13.368,1.595 -9.06,2.02 -17.962,5.69 -24.481,9.187 -3.26,1.749 -5.955,3.464 -7.647,4.786 -0.716,0.56 -1.132,1.01 -1.43,1.32 0.069,2.959 0.747,10.571 0.99,21.29 0.255,11.245 -0.04,25.54 -2.311,41.1 -5.221,35.992 22.914,66.02 55.729,64.59 1.58,-7.317 4.61,-14.884 7.757,-23.05 8.133,-21.11 25.1,-38.35 11.11,-100.67 -2.399,-10.673 -7.621,-15.678 -14.579,-18.264 -3.479,-1.293 -7.489,-1.87 -11.773,-1.87 m 164.33,5.281 c 1.416,0.04 2.726,0.222 3.906,0.495 1.179,0.274 2.216,0.642 3.136,1.265 0.868,0.589 1.628,1.547 1.87,2.751 l 0.11,0 c 0.009,0.041 -0.009,0.069 0,0.11 10e-4,0.018 -0.001,0.038 0,0.055 10e-4,0.003 -0.056,-0.003 -0.055,0 0.238,1.341 -0.113,2.463 -0.66,3.521 -0.573,1.109 -1.381,2.197 -2.421,3.246 -2.079,2.097 -5.065,3.977 -8.637,4.456 l -0.055,0 c -3.563,0.367 -6.707,-0.776 -9.02,-2.311 -1.157,-0.767 -2.112,-1.665 -2.861,-2.531 -0.748,-0.866 -1.328,-1.648 -1.595,-2.751 l 0,-0.055 0,-0.11 c -0.219,-1.313 0.327,-2.556 1.045,-3.411 0.718,-0.855 1.634,-1.464 2.696,-2.035 2.123,-1.142 4.894,-1.996 8.03,-2.421 1.572,-0.213 3.095,-0.315 4.511,-0.275 m -163.56,2.366 c 1.538,-0.033 3.161,0.048 4.841,0.275 3.348,0.453 6.304,1.326 8.747,2.641 1.222,0.657 2.38,1.37 3.356,2.531 0.976,1.161 1.83,3.05 1.485,5.116 l 0,0.11 0,0.055 c -0.357,1.783 -1.133,2.781 -2.036,3.851 -0.902,1.07 -2.02,2.085 -3.356,2.971 -2.679,1.772 -6.377,3.152 -10.563,2.586 -4.181,-0.56 -7.457,-2.741 -9.792,-5.116 -1.168,-1.188 -2.116,-2.445 -2.806,-3.796 -0.65,-1.273 -1.233,-2.664 -0.88,-4.731 l -0.055,0 c 0.009,-0.063 0.045,-0.103 0.055,-0.165 0.012,-0.065 -0.014,-0.099 0,-0.165 l 0.055,0 c 0.388,-1.872 1.588,-3.283 2.751,-4.071 1.239,-0.84 2.496,-1.281 3.851,-1.595 1.355,-0.314 2.808,-0.462 4.346,-0.495 m 188.64,145.18 c -0.541,0.243 -1.084,0.433 -1.595,0.605 -2.696,0.909 -5.403,1.411 -7.867,2.476 -2.464,1.064 -4.545,2.479 -6.161,5.336 -1.513,2.675 -2.663,6.89 -2.421,13.643 a 4.297022,4.297022 0 0 1 0.16496,1.65041 c 0.043,0.149 0.148,0.335 0.605,0.715 0.691,0.575 2.125,1.321 4.126,1.925 4,1.21 10.116,1.867 16.889,1.815 13.546,-0.102 29.924,-2.969 39.11,-7.097 11.938,-5.342 21.525,-12.939 24.26,-16.944 0.137,-0.2 0.067,-0.157 0.165,-0.33 -1.235,-0.111 -3.283,-0.165 -6.712,0.495 -0.024,0.006 -0.031,-0.006 -0.055,0 -28.367,5.654 -44.05,4.01 -53.2,0.33 -3.36,-1.35 -5.571,-2.987 -7.317,-4.621 m -166.69,2.366 c -1.861,0.16 -4.169,0.933 -7.537,4.566 a 4.297022,4.297022 0 0 1 -0.71518,0.66016 c -6.794,7.495 -9.514,12.245 -14.744,16.229 -5.409,4.12 -12.565,6.414 -27.837,9.462 -7.313,1.445 -11.448,3.315 -12.818,4.401 -0.541,0.429 -0.456,0.42 -0.44,0.385 0.35,0.576 2.114,2.235 4.566,3.521 2.485,1.303 5.538,2.373 8.09,2.971 a 4.297022,4.297022 0 0 1 0.055,0 c 6.826,1.64 17.979,3.603 29.872,1.65 11.893,-1.953 24.455,-7.613 34.879,-21.73 0.861,-1.164 1.425,-2.497 1.705,-3.906 0.032,-1.234 0.02,-2.452 0.055,-3.686 a 4.297022,4.297022 0 0 1 0,-0.33007 c -0.163,-1.219 -0.456,-2.44 -0.935,-3.686 -1.619,-4.213 -5.063,-7.904 -8.197,-9.187 -0.02,-0.007 -0.035,0.007 -0.055,0 -2.251,-0.869 -4.097,-1.479 -5.941,-1.32"
     style="fill:#ffffff"
     id="path378565" />
</svg>
