<?xml version="1.0" encoding="UTF-8" standalone="no"?>
<svg
   xmlns:dc="http://purl.org/dc/elements/1.1/"
   xmlns:cc="http://creativecommons.org/ns#"
   xmlns:rdf="http://www.w3.org/1999/02/22-rdf-syntax-ns#"
   xmlns:svg="http://www.w3.org/2000/svg"
   xmlns="http://www.w3.org/2000/svg"
   xmlns:xlink="http://www.w3.org/1999/xlink"
   xmlns:sodipodi="http://sodipodi.sourceforge.net/DTD/sodipodi-0.dtd"
   xmlns:inkscape="http://www.inkscape.org/namespaces/inkscape"
   viewBox="0 0 512 512"
   id="svg2"
   version="1.1"
   inkscape:version="0.91+devel r13804 custom"
   width="100%"
   height="100%"
   sodipodi:docname="phatch.svg">
  <sodipodi:namedview
     inkscape:current-layer="svg2"
     inkscape:window-maximized="1"
     inkscape:window-y="-3"
     inkscape:window-x="-2"
     inkscape:cy="135.11761"
     inkscape:cx="244.46202"
     inkscape:zoom="0.4609375"
     inkscape:guide-bbox="true"
     showguides="true"
     showgrid="false"
     id="namedview6"
     inkscape:window-height="709"
     inkscape:window-width="1366"
     inkscape:pageshadow="2"
     inkscape:pageopacity="0"
     guidetolerance="10"
     gridtolerance="10"
     objecttolerance="10"
     borderopacity="1"
     bordercolor="#666666"
     pagecolor="#ffffff">
    <sodipodi:guide
       id="guide2993"
       position="40.940284,84.756935"
       orientation="1,0" />
    <sodipodi:guide
       id="guide2995"
       position="471.05085,254.98305"
       orientation="1,0" />
  </sodipodi:namedview>
  <metadata
     id="metadata10">
    <rdf:RDF>
      <cc:Work
         rdf:about="">
        <dc:format>image/svg+xml</dc:format>
        <dc:type
           rdf:resource="http://purl.org/dc/dcmitype/StillImage" />
        <dc:title></dc:title>
      </cc:Work>
    </rdf:RDF>
  </metadata>
  <defs
     id="defs8">
    <path
       style="fill:#fff"
       d="m350.45 319.42v-94.57h-3.967v53.54c0 5.293-.771 10.322-2.35 15.06-1.579 4.813-3.967 9.03-7.126 12.738-3.046 3.563-6.863 6.468-11.497 8.668-4.588 2.096-9.956 3.121-16.01 3.121-4.371 0-8.517-.62-12.485-1.73-3.817-1.25-7.239-3.01-10.285-5.547-2.905-2.538-5.218-5.688-6.9-9.551-1.73-3.93-1.871-8.781-1.871-14.318l-3.892.62c0 1.467 0 3.121 0 4.484.216 3.779.555 7.239 1.796 10.388 1.833 4.118 4.334 7.643 7.53 10.689 3.272 2.792 7.126 4.954 11.46 6.43 4.484 1.363 9.363 2.02 14.656 2.02 10.02 0 18.14-2.388 24.349-7.164 6.317-4.813 10.388-10.868 12.268-18.247h.367v23.39h3.93"
       id="5" />
    <path
       style="fill:#fff"
       d="m266.25 199.7h3.779c0-22.656 20.344-34.521 40.43-34.521 10.209 0 19.611 3.01 26.473 8.48 7.746 6.205 11.826 15.201 11.826 26.04h3.779c0-11.902-4.55-21.81-13.14-28.682-7.568-6.06-17.843-9.363-28.936-9.363-21.961 0-44.21 13.08-44.21 38.05"
       id="6" />
    <clipPath
       id="2">
      <path
         id="path346148"
         style="fill:#1890d0;stroke-width:15.333"
         d="m47 24c0 12.708-10.304 23-23 23-12.696 0-23-10.292-23-23 0-12.708 10.304-23 23-23 12.696 0 23 10.292 23 23" />
    </clipPath>
    <clipPath
       id="1">
      <path
         id="path346151"
         style="fill:#1890d0;stroke-width:15.333"
         d="m47 24c0 12.708-10.304 23-23 23-12.696 0-23-10.292-23-23 0-12.708 10.304-23 23-23 12.696 0 23 10.292 23 23" />
    </clipPath>
    <clipPath
       id="clipPath346153">
      <rect
         id="rect346155"
         style="fill:#fff"
         width="84"
         height="84"
         rx="6"
         x="6"
         y="6" />
    </clipPath>
    <clipPath
       id="3">
      <path
         id="path346161"
         style="fill:#1890d0;stroke-width:15.333"
         d="m47 24c0 12.708-10.304 23-23 23-12.696 0-23-10.292-23-23 0-12.708 10.304-23 23-23 12.696 0 23 10.292 23 23" />
    </clipPath>
    <filter
       id="filter346163"
       style="color-interpolation-filters:sRGB">
      <feGaussianBlur
         id="feGaussianBlur346165"
         stdDeviation="1.71" />
    </filter>
    <filter
       id="filter346167"
       style="color-interpolation-filters:sRGB"
       x="-.192"
       y="-.192"
       width="1.384"
       height="1.384">
      <feGaussianBlur
         id="feGaussianBlur346169"
         stdDeviation="5.28" />
    </filter>
    <linearGradient
       y1="92.54"
       x2="0"
       y2="7.02"
       id="0"
       gradientUnits="userSpaceOnUse"
       gradientTransform="scale(1.0059.99417)">
      <stop
         id="stop346172" />
      <stop
         id="stop346174"
         style="stop-opacity:.588"
         offset="1" />
    </linearGradient>
    <linearGradient
       id="linearGradient346176"
       y1="92.54"
       x2="0"
       y2="7.02"
       xlink:href="#0"
       gradientUnits="userSpaceOnUse"
       gradientTransform="scale(1.0059.99417)" />
    <linearGradient
       id="linearGradient346178"
       y1="20.221"
       x2="0"
       y2="138.66"
       gradientUnits="userSpaceOnUse">
      <stop
         id="stop346180"
         style="stop-color:#fff" />
      <stop
         id="stop346182"
         style="stop-color:#fff;stop-opacity:0"
         offset="1" />
    </linearGradient>
    <linearGradient
       id="linearGradient346184"
       y1="92.54"
       x2="0"
       y2="7.02"
       xlink:href="#0"
       gradientUnits="userSpaceOnUse"
       gradientTransform="scale(1.0059.99417)" />
    <linearGradient
       id="linearGradient346186"
       y1="92.54"
       x2="0"
       y2="7.02"
       xlink:href="#0"
       gradientUnits="userSpaceOnUse"
       gradientTransform="scale(1.0059.99417)" />
    <linearGradient
       id="linearGradient346188"
       y1="92.54"
       x2="0"
       y2="7.02"
       gradientUnits="userSpaceOnUse"
       gradientTransform="scale(1.0059.99417)">
      <stop
         id="stop346190" />
      <stop
         id="stop346192"
         style="stop-opacity:.588"
         offset="1" />
    </linearGradient>
    <clipPath
       id="0-3">
      <path
         id="path378153"
         d="m26 0c-14.397 0-26 11.603-26 26v460c0 14.397 11.603 26 26 26h460c14.397 0 26-11.603 26-26v-460c0-14.397-11.603-26-26-26h-460" />
    </clipPath>
    <clipPath
       id="0-2">
      <path
         id="path380154"
         d="m26 0c-14.397 0-26 11.603-26 26v460c0 14.397 11.603 26 26 26h460c14.397 0 26-11.603 26-26v-460c0-14.397-11.603-26-26-26h-460" />
    </clipPath>
    <clipPath
       id="0-0">
      <path
         id="path380595"
         d="m26 0c-14.397 0-26 11.603-26 26v460c0 14.397 11.603 26 26 26h460c14.397 0 26-11.603 26-26v-460c0-14.397-11.603-26-26-26h-460" />
    </clipPath>
  </defs>
  <path
     inkscape:connector-curvature="0"
     d="m 25.99968,1e-6 c -14.397,0 -26,11.603 -26,26 L -3.2e-4,486 c 0,14.397 11.603,26 26,26 l 460,0 c 14.397,0 26,-11.603 26,-26 l 0,-459.999999 c 0,-14.397 -11.603,-26 -26,-26 l -460,0"
     style="fill:#8dbd27"
     id="path380597" />
  <text
     sodipodi:linespacing="125%"
     y="-533.70001"
     x="32.404682"
     line-height="125%"
     style="font-size:129.22999573px;line-height:125%;font-family:'Gentium Book Basic';letter-spacing:0;word-spacing:0"
     id="text380599">
    <tspan
       y="-533.70001"
       x="32.404682"
       id="tspan380601" />
  </text>
  <text
     transform="scale(4.0128205,0.24920128)"
     y="-2490.7974"
     x="205.15887"
     style="font-size:46.95399857px;font-family:Arial;text-anchor:middle"
     id="text380603" />
  <text
     sodipodi:linespacing="125%"
     y="-613.70001"
     x="613.67963"
     line-height="125%"
     style="font-size:129.22999573px;line-height:125%;font-family:'Gentium Book Basic';letter-spacing:0;word-spacing:0"
     id="text380605">
    <tspan
       y="-613.70001"
       x="613.67963"
       id="tspan380607" />
  </text>
  <text
     transform="scale(4.0128205,0.24920128)"
     y="-2811.8257"
     x="350.00815"
     style="font-size:46.95399857px;font-family:Arial;text-anchor:middle"
     id="text380609" />
  <text
     sodipodi:linespacing="125%"
     y="-794.96002"
     x="-457.9003"
     line-height="125%"
     style="font-size:129.22999573px;line-height:125%;font-family:'Gentium Book Basic';letter-spacing:0;word-spacing:0"
     id="text380611">
    <tspan
       y="-794.96002"
       x="-457.9003"
       id="tspan380613" />
  </text>
  <text
     transform="scale(4.0128205,0.24920128)"
     y="-3539.1719"
     x="82.966499"
     style="font-size:46.95399857px;font-family:Arial;text-anchor:middle"
     id="text380615" />
  <text
     sodipodi:linespacing="125%"
     y="-1011.4301"
     x="640.14966"
     line-height="125%"
     style="font-size:129.22999573px;line-height:125%;font-family:'Gentium Book Basic';letter-spacing:0;word-spacing:0"
     id="text380617">
    <tspan
       y="-1011.4301"
       x="640.14966"
       id="tspan380619" />
  </text>
  <text
     transform="scale(4.0128205,0.24920128)"
     y="-4407.8369"
     x="356.60809"
     style="font-size:46.95399857px;font-family:Arial;text-anchor:middle"
     id="text380621" />
  <text
     sodipodi:linespacing="125%"
     y="-1091.4399"
     x="1221.4198"
     line-height="125%"
     style="font-size:129.22999573px;line-height:125%;font-family:'Gentium Book Basic';letter-spacing:0;word-spacing:0"
     id="text380623">
    <tspan
       y="-1091.4399"
       x="1221.4198"
       id="tspan380625" />
  </text>
  <text
     transform="scale(4.0128205,0.24920128)"
     y="-4728.8755"
     x="501.44736"
     style="font-size:46.95399857px;font-family:Arial;text-anchor:middle"
     id="text380627" />
  <text
     sodipodi:linespacing="125%"
     y="-1563.84"
     x="832.29968"
     line-height="125%"
     style="font-size:129.22999573px;line-height:125%;font-family:'Gentium Book Basic';letter-spacing:0;word-spacing:0"
     id="text380629">
    <tspan
       y="-1563.84"
       x="832.29968"
       id="tspan380631" />
  </text>
  <text
     transform="scale(4.0128205,0.24920128)"
     y="-6624.5156"
     x="404.48785"
     style="font-size:46.95399857px;font-family:Arial;text-anchor:middle"
     id="text380633" />
  <text
     sodipodi:linespacing="125%"
     y="-1643.84"
     x="1413.5598"
     line-height="125%"
     style="font-size:129.22999573px;line-height:125%;font-family:'Gentium Book Basic';letter-spacing:0;word-spacing:0"
     id="text380635">
    <tspan
       y="-1643.84"
       x="1413.5598"
       id="tspan380637" />
  </text>
  <text
     transform="scale(4.0128205,0.24920128)"
     y="-6945.5444"
     x="549.32709"
     style="font-size:46.95399857px;font-family:Arial;text-anchor:middle"
     id="text380639" />
  <text
     sodipodi:linespacing="125%"
     y="-229.12"
     x="-419.2403"
     line-height="125%"
     style="font-size:208.33000183px;line-height:125%;font-family:'Gentium Book Basic';letter-spacing:0;word-spacing:0"
     id="text380641">
    <tspan
       y="-229.12"
       x="-419.2403"
       id="tspan380643" />
  </text>
  <path
     inkscape:connector-curvature="0"
     d="m 256.139,40.999147 c -12.454,0 -24.78321,1.167172 -36.65821,3.201172 l 0.01,0.0098 0,45.669922 c -19.566,4.347999 -37.71433,12.246549 -54.11133,22.685539 l 52.19922,52.19922 c -0.002,8e-4 -0.004,0.001 -0.006,0.002 l -84.7832,-84.783204 c -20.35,14.276 -38.03914,32.061094 -52.36914,52.371094 l 84.54882,84.54883 c -5.7e-4,0.001 -10e-4,0.003 -0.002,0.004 l -51.9668,-51.9668 c -10.447,16.401 -18.3475,34.54438 -22.6875,54.10938 l 73.65625,73.65625 c 7.7e-4,0.002 0.001,0.004 0.002,0.006 L 90.309,219.05024 l -45.9668,0 0.006,0.006 c -2.09133,12.03808 -3.19922,24.31546 -3.19922,36.94336 0,12.637 1.10917,25.20023 3.20117,37.24023 l 61.38086,61.38086 -25.3125,25.3125 50.63672,50.63672 c -0.007,-0.005 -0.0143,-0.0105 -0.0215,-0.0156 L 80.42045,379.94102 c 6.867,9.732 14.54973,18.80069 22.92773,27.17969 l 0.002,0 104.87891,104.87891 277.77148,0 c 14.397,0 26,-11.603 26,-26 l 0,-277.89844 -104.25,-104.25 C 399.11929,95.219674 389.76484,87.314011 379.80696,80.278444 l -0.008,-0.0078 -25.05664,25.283206 -61.0625,-61.064456 0,0.0039 c -12.19,-2.147 -24.72625,-3.492188 -37.53125,-3.492188 l 37.53125,37.53125 0,0.0078 -37.54101,-37.541016 z"
     id="path380647"
     style="opacity:0.25" />
  <path
     inkscape:connector-curvature="0"
     d="m 256.13968,41.000001 c -12.454,0 -24.784,1.166 -36.659,3.2 l 0,45.68 c -19.566,4.348 -37.713,12.246999 -54.11,22.685999 l -32.582,-32.581999 c -20.35,14.276 -38.04,32.059999 -52.37,52.369999 l 32.582,32.582 c -10.447,16.401 -18.346,34.545 -22.686,54.11 l -45.968,0 c -2.092,12.04 -3.2,24.32 -3.2,36.95 0,12.637 1.108,25.2 3.2,37.24 l 45.968,0 c 4.348,19.566 12.247,37.715 22.686,54.11 l -32.582,32.582 c 14.354,20.342 32.27,37.789 52.661,52.08 l 32.29,-32.29 c 16.401,10.446 34.545,18.346 54.11,22.686 l 0,45.39 c 11.874,2.034 24.2,3.2 36.659,3.2 12.805,0 25.341,-1.053 37.53,-3.2 l 0,-45.39 c 19.566,-4.348 37.713,-12.247 54.11,-22.686 l 31.712,32 c 20.342,-14.354 38.37,-31.978 52.661,-52.37 l -32,-32 c 10.447,-16.401 18.345,-34.545 22.686,-54.11 l 44.805,0 c 2.092,-12.04 3.2,-24.603 3.2,-37.24 0,-12.637 -1.108,-24.91 -3.2,-36.95 l -44.805,0 c -4.348,-19.566 -12.247,-37.715 -22.686,-54.11 l 32,-32 c -14.268,-20.361 -32.06,-38.319999 -52.37,-52.660999 l -32,32.289999 c -16.401,-10.447 -34.545,-18.344999 -54.11,-22.685999 l 0,-45.39 c -12.19,-2.147 -24.725,-3.491 -37.53,-3.491 M 255.85068,157.09 c 54.627,0 99.2,44.29 99.2,98.93 0,54.627 -44.584,98.93 -99.2,98.93 -54.627,0 -98.93,-44.29 -98.93,-98.93 0,-54.625 44.29,-98.93 98.93,-98.93"
     style="fill:#ffffff"
     id="path380735" />
</svg>
