<?xml version="1.0" encoding="UTF-8" standalone="no"?>
<svg
   xmlns:dc="http://purl.org/dc/elements/1.1/"
   xmlns:cc="http://creativecommons.org/ns#"
   xmlns:rdf="http://www.w3.org/1999/02/22-rdf-syntax-ns#"
   xmlns:svg="http://www.w3.org/2000/svg"
   xmlns="http://www.w3.org/2000/svg"
   xmlns:xlink="http://www.w3.org/1999/xlink"
   xmlns:sodipodi="http://sodipodi.sourceforge.net/DTD/sodipodi-0.dtd"
   xmlns:inkscape="http://www.inkscape.org/namespaces/inkscape"
   viewBox="0 0 512 512"
   id="svg2"
   version="1.1"
   inkscape:version="0.91+devel r13804 custom"
   width="100%"
   height="100%"
   sodipodi:docname="phpstorm.svg">
  <sodipodi:namedview
     inkscape:current-layer="svg2"
     inkscape:window-maximized="1"
     inkscape:window-y="-3"
     inkscape:window-x="-2"
     inkscape:cy="135.11761"
     inkscape:cx="244.46202"
     inkscape:zoom="0.4609375"
     inkscape:guide-bbox="true"
     showguides="true"
     showgrid="false"
     id="namedview6"
     inkscape:window-height="709"
     inkscape:window-width="1366"
     inkscape:pageshadow="2"
     inkscape:pageopacity="0"
     guidetolerance="10"
     gridtolerance="10"
     objecttolerance="10"
     borderopacity="1"
     bordercolor="#666666"
     pagecolor="#ffffff">
    <sodipodi:guide
       id="guide2993"
       position="40.940284,84.756935"
       orientation="1,0" />
    <sodipodi:guide
       id="guide2995"
       position="471.05085,254.98305"
       orientation="1,0" />
  </sodipodi:namedview>
  <metadata
     id="metadata10">
    <rdf:RDF>
      <cc:Work
         rdf:about="">
        <dc:format>image/svg+xml</dc:format>
        <dc:type
           rdf:resource="http://purl.org/dc/dcmitype/StillImage" />
        <dc:title></dc:title>
      </cc:Work>
    </rdf:RDF>
  </metadata>
  <defs
     id="defs8" />
  <path
     inkscape:connector-curvature="0"
     d="M 26,0 C 11.603,0 0,11.603 0,26 l 0,460 c 0,14.397 11.603,26 26,26 l 460,0 c 14.397,0 26,-11.603 26,-26 L 512,26 C 512,11.603 500.397,0 486,0 L 26,0"
     style="fill:#88687d"
     id="path383056" />
  <text
     sodipodi:linespacing="125%"
     y="136.64"
     x="-134.47"
     line-height="125%"
     style="font-size:129.22999573px;line-height:125%;font-family:'Gentium Book Basic';letter-spacing:0;word-spacing:0"
     id="text383058">
    <tspan
       y="136.64"
       x="-134.47"
       id="tspan383060" />
  </text>
  <text
     transform="scale(4.0128205,0.24920128)"
     y="199.12898"
     x="163.56917"
     style="font-size:46.95399857px;font-family:Arial;text-anchor:middle"
     id="text383062" />
  <text
     sodipodi:linespacing="125%"
     y="56.634998"
     x="446.79999"
     line-height="125%"
     style="font-size:129.22999573px;line-height:125%;font-family:'Gentium Book Basic';letter-spacing:0;word-spacing:0"
     id="text383064">
    <tspan
       y="56.634998"
       x="446.79999"
       id="tspan383066" />
  </text>
  <text
     transform="scale(4.0128205,0.24920128)"
     y="-121.89938"
     x="308.41843"
     style="font-size:46.95399857px;font-family:Arial;text-anchor:middle"
     id="text383068" />
  <text
     sodipodi:linespacing="125%"
     y="-124.63"
     x="-624.78003"
     line-height="125%"
     style="font-size:129.22999573px;line-height:125%;font-family:'Gentium Book Basic';letter-spacing:0;word-spacing:0"
     id="text383070">
    <tspan
       y="-124.63"
       x="-624.78003"
       id="tspan383072" />
  </text>
  <text
     transform="scale(4.0128205,0.24920128)"
     y="-849.24567"
     x="41.379787"
     style="font-size:46.95399857px;font-family:Arial;text-anchor:middle"
     id="text383074" />
  <text
     sodipodi:linespacing="125%"
     y="-341.09"
     x="473.26999"
     line-height="125%"
     style="font-size:129.22999573px;line-height:125%;font-family:'Gentium Book Basic';letter-spacing:0;word-spacing:0"
     id="text383076">
    <tspan
       y="-341.09"
       x="473.26999"
       id="tspan383078" />
  </text>
  <text
     transform="scale(4.0128205,0.24920128)"
     y="-1717.9113"
     x="315.01837"
     style="font-size:46.95399857px;font-family:Arial;text-anchor:middle"
     id="text383080" />
  <text
     sodipodi:linespacing="125%"
     y="-421.10001"
     x="1054.54"
     line-height="125%"
     style="font-size:129.22999573px;line-height:125%;font-family:'Gentium Book Basic';letter-spacing:0;word-spacing:0"
     id="text383082">
    <tspan
       y="-421.10001"
       x="1054.54"
       id="tspan383084" />
  </text>
  <text
     transform="scale(4.0128205,0.24920128)"
     y="-2038.9495"
     x="459.86765"
     style="font-size:46.95399857px;font-family:Arial;text-anchor:middle"
     id="text383086" />
  <text
     sodipodi:linespacing="125%"
     y="-893.5"
     x="665.41998"
     line-height="125%"
     style="font-size:129.22999573px;line-height:125%;font-family:'Gentium Book Basic';letter-spacing:0;word-spacing:0"
     id="text383088">
    <tspan
       y="-893.5"
       x="665.41998"
       id="tspan383090" />
  </text>
  <text
     transform="scale(4.0128205,0.24920128)"
     y="-3934.5898"
     x="362.89813"
     style="font-size:46.95399857px;font-family:Arial;text-anchor:middle"
     id="text383092" />
  <text
     sodipodi:linespacing="125%"
     y="-973.5"
     x="1246.6801"
     line-height="125%"
     style="font-size:129.22999573px;line-height:125%;font-family:'Gentium Book Basic';letter-spacing:0;word-spacing:0"
     id="text383094">
    <tspan
       y="-973.5"
       x="1246.6801"
       id="tspan383096" />
  </text>
  <text
     transform="scale(4.0128205,0.24920128)"
     y="-4255.6079"
     x="507.74741"
     style="font-size:46.95399857px;font-family:Arial;text-anchor:middle"
     id="text383098" />
  <text
     sodipodi:linespacing="125%"
     y="441.22"
     x="-586.12"
     line-height="125%"
     style="font-size:208.33000183px;line-height:125%;font-family:'Gentium Book Basic';letter-spacing:0;word-spacing:0"
     id="text383100">
    <tspan
       y="441.22"
       x="-586.12"
       id="tspan383102" />
  </text>
  <path
     inkscape:connector-curvature="0"
     id="0"
     d="m 461.47,73.951 -110.7,0 c -14.441,21.42 -24.388,34.61 -32.22,51.31 -19.754,32.596 -15.399,78.44 0.47,112.25 8.933,22.895 28.929,35.932 43.599,52.21 7.244,7.538 11.624,16.367 13.773,25.671 3.409,14.761 1.202,30.716 -4.092,44.613 -14.02,31.369 -37.704,51.959 -61.933,78.05 l 117.52,0 c 17.13,-21.431 29.43,-48.989 36.31,-72.06 5.302,-18.09 7.988,-36.24 6.284,-52.3 -2.218,-16.893 -8.15,-32.951 -16.862,-45.36 -17.286,-23.745 -43.527,-44.675 -53.75,-63.906 -5.805,-11.746 -6.146,-24.07 -2.559,-41.02 8.322,-37.73 41.21,-55.57 64.15,-89.44"
     style="fill:#ffffff" />
  <path
     d="M 350.76953 73.951172 C 337.42227 89.308651 319.27894 113.55333 325.54688 132.23633 L 318.56055 125.25 L 318.56055 125.25977 C 312.54792 135.87871 308.59784 147.38841 306.58594 159.20508 L 284.83008 137.44922 L 82.939453 137.44922 L 82.917969 137.42969 L 82.923828 137.43945 C 56.42513 133.87887 38.503924 162.6601 45.466797 183.82617 L 41 179.35938 L 41 331.69922 C 43.042974 343.23657 47.926806 353.01915 54.373047 361.82812 C 53.996342 361.68226 53.629118 361.52331 53.25 361.38086 L 56.496094 364.62695 C 64.694347 375.05127 74.985044 384.16992 85.189453 393.32031 L 203.86914 512 L 486 512 C 500.397 512 512 500.397 512 486 L 512 124.48047 L 461.4707 73.951172 L 350.76953 73.951172 z "
     id="path383109"
     style="opacity:0.25" />
  <path
     inkscape:connector-curvature="0"
     d="M 82.924,137.44 C 59.684,137.44 41,156.128 41,179.364 l 0,152.34 c 0,23.24 18.688,41.924 41.924,41.924 l 254.63,0 c 2.556,-4.341 4.921,-8.854 7.06,-13.639 5.294,-13.893 7.54,-29.855 4.131,-44.613 -2.148,-9.298 -6.539,-18.11 -13.784,-25.646 -14.67,-16.273 -34.673,-29.31 -43.607,-52.2 -13.985,-29.782 -19.03,-68.912 -6.531,-100.08 l -201.89,0 m 56.57,44.33 17.578,0 0,22.86 c 0,1.777 -0.115,5.957 -0.384,12.534 l -0.432,6.484 0.961,0 c 3.919,-7.875 10.1,-11.813 18.641,-11.815 7.569,0 13.323,2.546 17.241,7.636 3.919,5.09 5.907,12.387 5.907,21.899 l 0,52.5 -17.578,0 0,-47.02 c 0,-11.62 -3.458,-17.433 -10.373,-17.433 -4.918,0 -8.472,2.065 -10.662,6.244 -2.19,4.177 -3.313,10.951 -3.313,20.315 l 0,37.891 -17.578,0 0,-112.09 m -38.804,30.06 c 7.607,0 13.515,3.651 17.818,10.997 4.303,7.347 6.484,17.579 6.484,30.641 0,8.595 -1.037,16.04 -3.074,22.38 -1.998,6.338 -4.87,11.142 -8.597,14.455 -3.727,3.313 -8.08,4.995 -13.11,4.995 -7.569,0 -13.515,-3.459 -17.818,-10.326 l -0.913,0 c 0.615,6.722 0.913,10.613 0.913,11.67 l 0,32.657 -17.578,0 0,-115.98 14.312,0 2.45,10.47 0.816,0 c 4.111,-7.971 10.23,-11.958 18.297,-11.958 m 152.34,0 c 7.607,0 13.562,3.651 17.865,10.997 4.303,7.347 6.435,17.579 6.436,30.641 0,8.595 -0.99,16.04 -3.03,22.38 -1.998,6.338 -4.87,11.142 -8.597,14.455 -3.727,3.313 -8.08,4.995 -13.11,4.995 -7.569,0 -13.515,-3.459 -17.818,-10.326 l -0.913,0 c 0.615,6.722 0.913,10.613 0.913,11.67 l 0,32.657 -17.578,0 0,-115.98 14.263,0 2.497,10.47 0.816,0 c 4.111,-7.971 10.181,-11.958 18.25,-11.958 m -158,17.578 c -4.341,0 -7.512,1.681 -9.51,5.04 -1.998,3.313 -3.044,8.791 -3.121,16.473 l 0,2.402 c 0,8.643 1.037,14.792 3.074,18.534 2.075,3.745 5.34,5.619 9.797,5.619 7.876,0 11.813,-8.07 11.815,-24.301 0,-7.922 -0.97,-13.877 -2.929,-17.818 -1.921,-3.985 -4.976,-5.955 -9.126,-5.955 m 152.39,0 c -4.341,0 -7.512,1.681 -9.51,5.04 -1.998,3.313 -3.044,8.791 -3.121,16.473 l 0,2.402 c 0,8.643 0.99,14.792 3.03,18.534 2.075,3.745 5.34,5.619 9.797,5.619 7.876,0 11.813,-8.07 11.815,-24.301 0,-7.922 -0.97,-13.877 -2.929,-17.818 -1.921,-3.985 -4.927,-5.955 -9.08,-5.955"
     style="fill:#ffffff"
     id="path383315" />
  <use
     y="0"
     x="0"
     xlink:href="#0"
     height="1"
     width="1"
     id="use383317" />
</svg>
