<?xml version="1.0" encoding="UTF-8" standalone="no"?>
<svg
   xmlns:dc="http://purl.org/dc/elements/1.1/"
   xmlns:cc="http://creativecommons.org/ns#"
   xmlns:rdf="http://www.w3.org/1999/02/22-rdf-syntax-ns#"
   xmlns:svg="http://www.w3.org/2000/svg"
   xmlns="http://www.w3.org/2000/svg"
   xmlns:sodipodi="http://sodipodi.sourceforge.net/DTD/sodipodi-0.dtd"
   xmlns:inkscape="http://www.inkscape.org/namespaces/inkscape"
   viewBox="0 0 512 512"
   id="svg2"
   version="1.1"
   inkscape:version="0.91+devel r13804 custom"
   width="100%"
   height="100%"
   sodipodi:docname="pidgin.svg">
  <sodipodi:namedview
     inkscape:current-layer="svg2"
     inkscape:window-maximized="1"
     inkscape:window-y="-3"
     inkscape:window-x="-2"
     inkscape:cy="135.11761"
     inkscape:cx="244.46202"
     inkscape:zoom="0.4609375"
     inkscape:guide-bbox="true"
     showguides="true"
     showgrid="false"
     id="namedview6"
     inkscape:window-height="709"
     inkscape:window-width="1366"
     inkscape:pageshadow="2"
     inkscape:pageopacity="0"
     guidetolerance="10"
     gridtolerance="10"
     objecttolerance="10"
     borderopacity="1"
     bordercolor="#666666"
     pagecolor="#ffffff">
    <sodipodi:guide
       id="guide2993"
       position="40.940284,84.756935"
       orientation="1,0" />
    <sodipodi:guide
       id="guide2995"
       position="471.05085,254.98305"
       orientation="1,0" />
  </sodipodi:namedview>
  <metadata
     id="metadata10">
    <rdf:RDF>
      <cc:Work
         rdf:about="">
        <dc:format>image/svg+xml</dc:format>
        <dc:type
           rdf:resource="http://purl.org/dc/dcmitype/StillImage" />
        <dc:title></dc:title>
      </cc:Work>
    </rdf:RDF>
  </metadata>
  <defs
     id="defs8" />
  <path
     inkscape:connector-curvature="0"
     d="m 25.999838,-1e-6 c -14.397,0 -26,11.603 -26,26 l 0,460.000001 c 0,14.397 11.603,26 26,26 l 459.999992,0 c 14.397,0 26,-11.603 26,-26 l 0,-460.000001 c 0,-14.397 -11.603,-25.99999999999998 -26,-25.99999999999998 l -459.999992,0"
     style="fill:#b15c7f"
     id="path384102" />
  <text
     sodipodi:linespacing="125%"
     y="-388.64001"
     x="-2.360162"
     line-height="125%"
     style="font-size:129.22999573px;line-height:125%;font-family:'Gentium Book Basic';letter-spacing:0;word-spacing:0"
     id="text384104">
    <tspan
       y="-388.64001"
       x="-2.360162"
       id="tspan384106" />
  </text>
  <text
     transform="scale(4.0128205,0.24920128)"
     y="-1908.6902"
     x="196.48897"
     style="font-size:46.95399857px;font-family:Arial;text-anchor:middle"
     id="text384108" />
  <text
     sodipodi:linespacing="125%"
     y="-468.64001"
     x="578.90985"
     line-height="125%"
     style="font-size:129.22999573px;line-height:125%;font-family:'Gentium Book Basic';letter-spacing:0;word-spacing:0"
     id="text384110">
    <tspan
       y="-468.64001"
       x="578.90985"
       id="tspan384112" />
  </text>
  <text
     transform="scale(4.0128205,0.24920128)"
     y="-2229.7185"
     x="341.3382"
     style="font-size:46.95399857px;font-family:Arial;text-anchor:middle"
     id="text384114" />
  <text
     sodipodi:linespacing="125%"
     y="-649.90002"
     x="-492.6702"
     line-height="125%"
     style="font-size:129.22999573px;line-height:125%;font-family:'Gentium Book Basic';letter-spacing:0;word-spacing:0"
     id="text384116">
    <tspan
       y="-649.90002"
       x="-492.6702"
       id="tspan384118" />
  </text>
  <text
     transform="scale(4.0128205,0.24920128)"
     y="-2957.075"
     x="74.299583"
     style="font-size:46.95399857px;font-family:Arial;text-anchor:middle"
     id="text384120" />
  <text
     sodipodi:linespacing="125%"
     y="-866.37"
     x="605.37988"
     line-height="125%"
     style="font-size:129.22999573px;line-height:125%;font-family:'Gentium Book Basic';letter-spacing:0;word-spacing:0"
     id="text384122">
    <tspan
       y="-866.37"
       x="605.37988"
       id="tspan384124" />
  </text>
  <text
     transform="scale(4.0128205,0.24920128)"
     y="-3825.7302"
     x="347.93817"
     style="font-size:46.95399857px;font-family:Arial;text-anchor:middle"
     id="text384126" />
  <text
     sodipodi:linespacing="125%"
     y="-946.38"
     x="1186.6498"
     line-height="125%"
     style="font-size:129.22999573px;line-height:125%;font-family:'Gentium Book Basic';letter-spacing:0;word-spacing:0"
     id="text384128">
    <tspan
       y="-946.38"
       x="1186.6498"
       id="tspan384130" />
  </text>
  <text
     transform="scale(4.0128205,0.24920128)"
     y="-4146.769"
     x="492.78745"
     style="font-size:46.95399857px;font-family:Arial;text-anchor:middle"
     id="text384132" />
  <text
     sodipodi:linespacing="125%"
     y="-1418.78"
     x="797.52991"
     line-height="125%"
     style="font-size:129.22999573px;line-height:125%;font-family:'Gentium Book Basic';letter-spacing:0;word-spacing:0"
     id="text384134">
    <tspan
       y="-1418.78"
       x="797.52991"
       id="tspan384136" />
  </text>
  <text
     transform="scale(4.0128205,0.24920128)"
     y="-6042.4092"
     x="395.81793"
     style="font-size:46.95399857px;font-family:Arial;text-anchor:middle"
     id="text384138" />
  <text
     sodipodi:linespacing="125%"
     y="-1498.78"
     x="1378.7898"
     line-height="125%"
     style="font-size:129.22999573px;line-height:125%;font-family:'Gentium Book Basic';letter-spacing:0;word-spacing:0"
     id="text384140">
    <tspan
       y="-1498.78"
       x="1378.7898"
       id="tspan384142" />
  </text>
  <text
     transform="scale(4.0128205,0.24920128)"
     y="-6363.438"
     x="540.66718"
     style="font-size:46.95399857px;font-family:Arial;text-anchor:middle"
     id="text384144" />
  <text
     sodipodi:linespacing="125%"
     y="-84.059998"
     x="-454.01019"
     line-height="125%"
     style="font-size:208.33000183px;line-height:125%;font-family:'Gentium Book Basic';letter-spacing:0;word-spacing:0"
     id="text384146">
    <tspan
       y="-84.059998"
       x="-454.01019"
       id="tspan384148" />
  </text>
  <path
     inkscape:connector-curvature="0"
     style="opacity:0.25;fill-rule:evenodd"
     d="m 370.79899,129.93919 -32.33008,28.06054 0.11914,0.11915 c 15.78753,17.03955 36.65673,57.49105 37.00196,70.74023 -33.53014,0.007 -57.74827,15.1273 -69.25391,39.60742 L 191.50016,153.63059 c -14.803,-14.803 -36.1996,-23.64071 -61.09961,-23.63671 l 82.65625,82.65625 c -2.6e-4,0.005 2.7e-4,0.0104 0,0.0156 l -82.66601,-82.66602 c -47.870997,0.01 -89.400627,36.19961 -89.390627,81.09961 0.35,57.77 27.76838,106.13071 61.609377,139.97071 l 160.92969,160.92968 222.46093,0 c 14.397,0 26,-11.603 26,-26 l 0,-222.45117 -102.60937,-102.60935 c -12.32898,-12.32898 -25.51143,-22.72811 -38.54688,-30.95508 l -0.0449,-0.0449 z"
     id="path384152" />
  <path
     inkscape:connector-curvature="0"
     d="m 370.79984,129.94 -32.33,28.06 c 15.8,16.972 36.764,57.58 37.11,70.859 -47.871,0.01 -76.8,30.796 -76.78,75.7 0.045,44.871 34.959,77.46 82.8,77.45 47.871,-0.01 89.4,-36.2 89.39,-81.1 -0.478,-78.85 -51.38,-140.17 -100.21,-170.96 m -240.4,0.048 c -47.870997,0.01 -89.399997,36.2 -89.389997,81.1 0.478,78.85 51.38,140.17 100.209997,170.96 l 32.33,-28.01 c -15.8,-16.972 -36.764,-57.58 -37.11,-70.859 47.871,-0.01 76.8,-30.796 76.78,-75.7 -0.045,-44.871 -34.959,-77.51 -82.8,-77.5 m 119.4,101.1 c -13.767,0.003 -24.934,11.164 -24.931,24.931 0.003,13.767 11.164,24.934 24.931,24.931 13.767,-0.003 24.934,-11.164 24.931,-24.931 l 0,-0.048 c -0.013,-13.76 -11.17101,-24.886 -24.931,-24.883"
     style="fill:#ffffff;fill-rule:evenodd"
     id="path384198" />
</svg>
