<?xml version="1.0" encoding="UTF-8" standalone="no"?>
<svg
   xmlns:dc="http://purl.org/dc/elements/1.1/"
   xmlns:cc="http://creativecommons.org/ns#"
   xmlns:rdf="http://www.w3.org/1999/02/22-rdf-syntax-ns#"
   xmlns:svg="http://www.w3.org/2000/svg"
   xmlns="http://www.w3.org/2000/svg"
   xmlns:sodipodi="http://sodipodi.sourceforge.net/DTD/sodipodi-0.dtd"
   xmlns:inkscape="http://www.inkscape.org/namespaces/inkscape"
   viewBox="0 0 512 512"
   id="svg2"
   version="1.1"
   inkscape:version="0.91+devel r13804 custom"
   sodipodi:docname="playonlinux.svg">
  <metadata
     id="metadata749">
    <rdf:RDF>
      <cc:Work
         rdf:about="">
        <dc:format>image/svg+xml</dc:format>
        <dc:type
           rdf:resource="http://purl.org/dc/dcmitype/StillImage" />
        <dc:title></dc:title>
      </cc:Work>
    </rdf:RDF>
  </metadata>
  <sodipodi:namedview
     pagecolor="#ffffff"
     bordercolor="#666666"
     borderopacity="1"
     objecttolerance="10"
     gridtolerance="10"
     guidetolerance="10"
     inkscape:pageopacity="0"
     inkscape:pageshadow="2"
     inkscape:window-width="1366"
     inkscape:window-height="709"
     id="namedview747"
     showgrid="false"
     inkscape:zoom="0.4609375"
     inkscape:cx="-37.802454"
     inkscape:cy="206.9788"
     inkscape:window-x="-2"
     inkscape:window-y="-3"
     inkscape:window-maximized="1"
     inkscape:current-layer="svg2" />
  <defs
     id="defs4">
    <clipPath
       id="3-3">
      <path
         inkscape:connector-curvature="0"
         d="m -7.03,52.33 c 0.08,0.3 0.096,1.542 -1.032,2.158 -0.841,0.459 -3.324,0.836 -5.03,-1.063 -1.766,-1.97 -0.597,-4.263 0.719,-5.414 0.685,-0.599 1.48,-0.841 1.77,-0.667 0.307,0.184 0.316,0.555 0.071,0.73 -0.589,0.419 -1.114,1.609 -0.532,2.434 0.687,0.974 1.855,0.571 2.46,0.496 0.5,-0.062 1.283,0.242 1.571,1.327"
         id="path7-5" />
    </clipPath>
    <clipPath
       id="0-6">
      <path
         id="path4883"
         d="m26 0c-14.397 0-26 11.603-26 26v460c0 14.397 11.603 26 26 26h460c14.397 0 26-11.603 26-26v-460c0-14.397-11.603-26-26-26h-460" />
    </clipPath>
  </defs>
  <g
     id="g5363"
     transform="translate(110.64407,-52.068078)">
    <path
       id="path5083"
       style="fill:#68af4c"
       d="m -84.64407,52.067797 c -14.397,0 -26,11.603 -26,26 l 0,460.000003 c 0,14.397 11.603,26 26,26 l 460,0 c 14.397,0 26,-11.603 26,-26 l 0,-460.000003 c 0,-14.397 -11.603,-26 -26,-26 l -460,0"
       inkscape:connector-curvature="0" />
    <text
       id="text5085"
       style="font-size:129.22999573px;line-height:125%;font-family:'Gentium Book Basic';letter-spacing:0;word-spacing:0"
       line-height="125%"
       x="-375.22406"
       y="318.8078"
       sodipodi:linespacing="125%">
      <tspan
         id="tspan5087"
         x="-375.22406"
         y="318.8078" />
    </text>
    <text
       id="text5089"
       style="font-size:46.95399857px;font-family:Arial;text-anchor:middle"
       x="103.57668"
       y="930.16504"
       transform="scale(4.0128205,0.24920128)" />
    <text
       id="text5091"
       style="font-size:129.22999573px;line-height:125%;font-family:'Gentium Book Basic';letter-spacing:0;word-spacing:0"
       line-height="125%"
       x="206.04593"
       y="238.8078"
       sodipodi:linespacing="125%">
      <tspan
         id="tspan5093"
         x="206.04593"
         y="238.8078" />
    </text>
    <text
       id="text5095"
       style="font-size:46.95399857px;font-family:Arial;text-anchor:middle"
       x="248.42595"
       y="609.13672"
       transform="scale(4.0128205,0.24920128)" />
    <text
       id="text5097"
       style="font-size:129.22999573px;line-height:125%;font-family:'Gentium Book Basic';letter-spacing:0;word-spacing:0"
       line-height="125%"
       x="-865.53406"
       y="57.549797"
       sodipodi:linespacing="125%">
      <tspan
         id="tspan5099"
         x="-865.53406"
         y="57.549797" />
    </text>
    <text
       id="text5101"
       style="font-size:46.95399857px;font-family:Arial;text-anchor:middle"
       x="-18.614689"
       y="-118.20959"
       transform="scale(4.0128205,0.24920128)" />
    <text
       id="text5103"
       style="font-size:129.22999573px;line-height:125%;font-family:'Gentium Book Basic';letter-spacing:0;word-spacing:0"
       line-height="125%"
       x="232.51593"
       y="-158.92221"
       sodipodi:linespacing="125%">
      <tspan
         id="tspan5105"
         x="232.51593"
         y="-158.92221" />
    </text>
    <text
       id="text5107"
       style="font-size:46.95399857px;font-family:Arial;text-anchor:middle"
       x="255.02591"
       y="-986.87512"
       transform="scale(4.0128205,0.24920128)" />
    <text
       id="text5109"
       style="font-size:129.22999573px;line-height:125%;font-family:'Gentium Book Basic';letter-spacing:0;word-spacing:0"
       line-height="125%"
       x="813.78595"
       y="-238.93221"
       sodipodi:linespacing="125%">
      <tspan
         id="tspan5111"
         x="813.78595"
         y="-238.93221" />
    </text>
    <text
       id="text5113"
       style="font-size:46.95399857px;font-family:Arial;text-anchor:middle"
       x="399.87518"
       y="-1307.9135"
       transform="scale(4.0128205,0.24920128)" />
    <text
       id="text5115"
       style="font-size:129.22999573px;line-height:125%;font-family:'Gentium Book Basic';letter-spacing:0;word-spacing:0"
       line-height="125%"
       x="424.66592"
       y="-711.33221"
       sodipodi:linespacing="125%">
      <tspan
         id="tspan5117"
         x="424.66592"
         y="-711.33221" />
    </text>
    <text
       id="text5119"
       style="font-size:46.95399857px;font-family:Arial;text-anchor:middle"
       x="302.90567"
       y="-3203.5537"
       transform="scale(4.0128205,0.24920128)" />
    <text
       id="text5121"
       style="font-size:129.22999573px;line-height:125%;font-family:'Gentium Book Basic';letter-spacing:0;word-spacing:0"
       line-height="125%"
       x="1005.9259"
       y="-791.33221"
       sodipodi:linespacing="125%">
      <tspan
         id="tspan5123"
         x="1005.9259"
         y="-791.33221" />
    </text>
    <text
       id="text5125"
       style="font-size:46.95399857px;font-family:Arial;text-anchor:middle"
       x="447.75491"
       y="-3524.5823"
       transform="scale(4.0128205,0.24920128)" />
    <text
       id="text5127"
       style="font-size:208.33000183px;line-height:125%;font-family:'Gentium Book Basic';letter-spacing:0;word-spacing:0"
       line-height="125%"
       x="-826.87402"
       y="623.38782"
       sodipodi:linespacing="125%">
      <tspan
         id="tspan5129"
         x="-826.87402"
         y="623.38782" />
    </text>
    <path
       style="opacity:0.25"
       id="path5133"
       d="m 174.2832,93.068359 c -0.59088,-0.006 -1.17367,0.0024 -1.74804,0.02344 L 305.01367,225.57031 c -9.7e-4,0.001 -9.8e-4,0.003 -0.002,0.004 L 172.53516,93.097656 c -39.822,1.447 -40.16993,66.429684 -40.16993,66.429684 l 5.58204,63.89063 -73.730473,-73.73047 c -18.315,-18.315 -47.598938,-33.87534 -74.2109376,12.22266 l 146.9003906,146.90039 -0.008,0 L -9.9941406,161.91797 c -13.1930004,22.851 -13.4585624,39.66006 -7.6015624,52.03906 -13.64396,1.11661 -28.088334,9.71927 -41.277344,32.56641 l -0.0059,-0.006 c -15.961,27.646 -12.232016,45.03951 -1.291016,55.97851 l 0.08984,0.0899 c -0.03034,-0.0301 -0.06352,-0.0577 -0.09375,-0.0879 L 9.125,371.79688 c -8.45817437,5.24296 -64.234365,41.97514 -28.089844,78.11132 l 0.246094,0.2461 c -0.07973,-0.0788 -0.167237,-0.15747 -0.246094,-0.23633 l 114.150391,114.15039 280.169923,0 c 14.397,0 26,-11.603 26,-26 l 0,-280.26953 -91.61914,-91.6211 c -4.536,-4.536 -10.51952,-9.06071 -18.22852,-13.51171 l 28.21485,28.21484 c 7.4e-4,0.002 10e-4,0.004 0.002,0.006 l -28.21875,-28.21875 c -17.02634,-9.82982 -30.69843,-12.44814 -41.68359,-10.7207 L 225.75591,117.881 c -4.772,-4.772 -10.96538,-9.47806 -18.85938,-14.03906 l 29.74219,29.74218 c 8e-4,0.002 0.001,0.004 0.002,0.006 L 206.89648,103.8457 C 193.88117,96.336328 183.1464,93.158392 174.2832,93.068359 Z"
       inkscape:connector-curvature="0" />
    <path
       id="path5199"
       style="fill:#ffffff"
       d="m 172.53593,93.097797 c -39.822,1.447 -40.17,66.430003 -40.17,66.430003 l 12.978,148.56 135.16,-63.03 c 0,0 85.05,-49.639 10.999,-92.39 -22.85,-13.192 -39.661,-13.4 -52.04,-7.539 -1.114,-13.645 -9.717,-28.09 -32.567,-41.28 -13.883,-8.010003 -25.17,-11.090003 -34.36,-10.753003 m -27.19,214.990003 63.03,135.08 c 0,0 49.639,85.05 92.39,10.999 13.193,-22.851 13.4,-39.661 7.539,-52.04 13.645,-1.116 28.09,-9.717 41.28,-32.567 42.748,-74.04 -55.68,-74.47 -55.68,-74.47 l -148.56,12.978 m 0,0 -135.08,63.03 c 0,0 -85.05,49.577 -10.999,92.33 22.85,13.192 39.659,13.459 52.04,7.602 1.114,13.645 9.717,28.09 32.567,41.28 74.04,42.749 74.47,-55.742 74.47,-55.742 l -12.978,-148.5 m 0,0 -62.974,-135.16 c 0,0 -49.639,-85.050003 -92.39,-11 -13.193,22.851 -13.459,39.661 -7.602,52.04 -13.645,1.116 -28.09,9.717 -41.28,32.567 -42.748,74.04 55.742,74.53 55.742,74.53 l 148.5,-12.978"
       inkscape:connector-curvature="0" />
  </g>
</svg>
