<?xml version="1.0" encoding="UTF-8" standalone="no"?>
<svg
   xmlns:dc="http://purl.org/dc/elements/1.1/"
   xmlns:cc="http://creativecommons.org/ns#"
   xmlns:rdf="http://www.w3.org/1999/02/22-rdf-syntax-ns#"
   xmlns:svg="http://www.w3.org/2000/svg"
   xmlns="http://www.w3.org/2000/svg"
   xmlns:xlink="http://www.w3.org/1999/xlink"
   xmlns:sodipodi="http://sodipodi.sourceforge.net/DTD/sodipodi-0.dtd"
   xmlns:inkscape="http://www.inkscape.org/namespaces/inkscape"
   viewBox="0 0 512 512"
   id="svg2"
   version="1.1"
   inkscape:version="0.91+devel r13804 custom"
   sodipodi:docname="preferences-desktop-user-password.svg">
  <metadata
     id="metadata77">
    <rdf:RDF>
      <cc:Work
         rdf:about="">
        <dc:format>image/svg+xml</dc:format>
        <dc:type
           rdf:resource="http://purl.org/dc/dcmitype/StillImage" />
        <dc:title></dc:title>
      </cc:Work>
    </rdf:RDF>
  </metadata>
  <sodipodi:namedview
     pagecolor="#ffffff"
     bordercolor="#666666"
     borderopacity="1"
     objecttolerance="10"
     gridtolerance="10"
     guidetolerance="10"
     inkscape:pageopacity="0"
     inkscape:pageshadow="2"
     inkscape:window-width="1366"
     inkscape:window-height="709"
     id="namedview75"
     showgrid="false"
     inkscape:zoom="0.4609375"
     inkscape:cx="101.26319"
     inkscape:cy="157.28814"
     inkscape:window-x="-2"
     inkscape:window-y="-3"
     inkscape:window-maximized="1"
     inkscape:current-layer="svg2"
     showguides="true" />
  <defs
     id="defs4">
    <path
       style="fill:#fff"
       d="m350.45 319.42v-94.57h-3.967v53.54c0 5.293-.771 10.322-2.35 15.06-1.579 4.813-3.967 9.03-7.126 12.738-3.046 3.563-6.863 6.468-11.497 8.668-4.588 2.096-9.956 3.121-16.01 3.121-4.371 0-8.517-.62-12.485-1.73-3.817-1.25-7.239-3.01-10.285-5.547-2.905-2.538-5.218-5.688-6.9-9.551-1.73-3.93-1.871-8.781-1.871-14.318l-3.892.62c0 1.467 0 3.121 0 4.484.216 3.779.555 7.239 1.796 10.388 1.833 4.118 4.334 7.643 7.53 10.689 3.272 2.792 7.126 4.954 11.46 6.43 4.484 1.363 9.363 2.02 14.656 2.02 10.02 0 18.14-2.388 24.349-7.164 6.317-4.813 10.388-10.868 12.268-18.247h.367v23.39h3.93"
       id="6" />
    <path
       style="fill:#fff"
       d="m266.25 199.7h3.779c0-22.656 20.344-34.521 40.43-34.521 10.209 0 19.611 3.01 26.473 8.48 7.746 6.205 11.826 15.201 11.826 26.04h3.779c0-11.902-4.55-21.81-13.14-28.682-7.568-6.06-17.843-9.363-28.936-9.363-21.961 0-44.21 13.08-44.21 38.05"
       id="7" />
    <path
       style="fill:#fff"
       d="m306.11 197.69c0-2.313 2.059-4.221 4.55-4.221 2.501 0 4.512 1.908 4.512 4.221 0 2.35-2.02 4.221-4.512 4.221-2.538 0-4.55-1.871-4.55-4.221"
       id="8" />
    <clipPath
       id="2">
      <path
         id="path35420"
         style="fill:#1890d0;stroke-width:15.333"
         d="m47 24c0 12.708-10.304 23-23 23-12.696 0-23-10.292-23-23 0-12.708 10.304-23 23-23 12.696 0 23 10.292 23 23" />
    </clipPath>
    <clipPath
       id="1">
      <path
         id="path35423"
         style="fill:#1890d0;stroke-width:15.333"
         d="m47 24c0 12.708-10.304 23-23 23-12.696 0-23-10.292-23-23 0-12.708 10.304-23 23-23 12.696 0 23 10.292 23 23" />
    </clipPath>
    <clipPath
       id="3">
      <path
         id="path35426"
         style="fill:#1890d0;stroke-width:15.333"
         d="m47 24c0 12.708-10.304 23-23 23-12.696 0-23-10.292-23-23 0-12.708 10.304-23 23-23 12.696 0 23 10.292 23 23" />
    </clipPath>
    <clipPath
       id="4">
      <path
         id="path35429"
         style="fill:#1890d0;stroke-width:15.333"
         d="m47 24c0 12.708-10.304 23-23 23-12.696 0-23-10.292-23-23 0-12.708 10.304-23 23-23 12.696 0 23 10.292 23 23" />
    </clipPath>
    <clipPath
       id="clipPath35434">
      <rect
         id="rect35436"
         style="fill:#fff"
         width="84"
         height="84"
         rx="6"
         x="6"
         y="6" />
    </clipPath>
    <filter
       id="filter35438"
       style="color-interpolation-filters:sRGB">
      <feGaussianBlur
         id="feGaussianBlur35440"
         stdDeviation="1.71" />
    </filter>
    <filter
       id="filter35442"
       style="color-interpolation-filters:sRGB"
       x="-.192"
       y="-.192"
       width="1.384"
       height="1.384">
      <feGaussianBlur
         id="feGaussianBlur35444"
         stdDeviation="5.28" />
    </filter>
    <linearGradient
       id="linearGradient35446"
       y1="92.54"
       x2="0"
       y2="7.02"
       xlink:href="#0"
       gradientUnits="userSpaceOnUse"
       gradientTransform="scale(1.0059.99417)" />
    <linearGradient
       id="linearGradient35448"
       y1="177.65"
       x2="0"
       y2="-142.13"
       gradientUnits="userSpaceOnUse">
      <stop
         id="stop35450"
         style="stop-color:#e2f4c4" />
      <stop
         id="stop35452"
         style="stop-color:#fdfff5"
         offset="1" />
    </linearGradient>
    <linearGradient
       y1="92.54"
       x2="0"
       y2="7.02"
       id="0"
       gradientUnits="userSpaceOnUse"
       gradientTransform="scale(1.0059.99417)">
      <stop
         id="stop35455" />
      <stop
         id="stop35457"
         style="stop-opacity:.588"
         offset="1" />
    </linearGradient>
    <linearGradient
       id="linearGradient35459"
       y1="92.54"
       x2="0"
       y2="7.02"
       xlink:href="#0"
       gradientUnits="userSpaceOnUse"
       gradientTransform="scale(1.0059.99417)" />
    <linearGradient
       id="linearGradient35461"
       y1="92.54"
       x2="0"
       y2="7.02"
       xlink:href="#0"
       gradientUnits="userSpaceOnUse"
       gradientTransform="scale(1.0059.99417)" />
    <linearGradient
       id="linearGradient35463"
       y1="92.54"
       x2="0"
       y2="7.02"
       gradientUnits="userSpaceOnUse"
       gradientTransform="scale(1.0059.99417)">
      <stop
         id="stop35465" />
      <stop
         id="stop35467"
         style="stop-opacity:.588"
         offset="1" />
    </linearGradient>
    <linearGradient
       id="linearGradient35469"
       y1="20.221"
       x2="0"
       y2="138.66"
       gradientUnits="userSpaceOnUse">
      <stop
         id="stop35471"
         style="stop-color:#fff" />
      <stop
         id="stop35473"
         style="stop-color:#fff;stop-opacity:0"
         offset="1" />
    </linearGradient>
    <linearGradient
       id="linearGradient35475"
       y1="92.54"
       x2="0"
       y2="7.02"
       xlink:href="#0"
       gradientUnits="userSpaceOnUse"
       gradientTransform="scale(1.0059.99417)" />
  </defs>
  <g
     id="g58210"
     transform="translate(687.72881,-613.9661)">
    <path
       id="path35477"
       style="fill:#d23638"
       d="m -661.72881,613.9661 c -14.397,0 -26,11.603 -26,26 l 0,460 c 0,14.397 11.603,26 26,26 l 460,0 c 14.397,0 26,-11.603 26,-26 l 0,-460 c 0,-14.397 -11.603,-26 -26,-26 l -460,0"
       inkscape:connector-curvature="0" />
    <path
       style="opacity:0.25"
       id="path46527"
       d="m -431.72963,654.96597 c -79.78,0 -144.45899,64.68094 -144.45899,144.46094 0,39.88 16.15906,75.97537 42.28906,102.10938 l 91.92188,91.92187 3.69531,33.67574 -42.62109,-12.1699 22.78906,22.7891 -0.008,0 -22.78711,-22.7871 -3.20899,20.6875 0,0 24.88672,24.8867 -0.51172,0.6894 -46.26562,-46.2656 -6.04883,1.707 -32.60742,-32.60738 0,0.004 -0.004,-0.004 -21.9375,0 -0.002,0 4.72656,43.06838 -42.62109,-12.1699 22.78711,22.7871 -0.008,0 -22.78515,-22.7852 -3.16602,20.6875 24.86328,24.8633 -10.32421,13.9297 0.002,0 51.51758,51.5176 339.88672,0 c 14.397,0 26,-11.603 26,-26 l 0,-248.83988 -153.84961,-153.84961 c -26.14,-26.14 -62.26039,-42.31055 -102.15039,-42.31055 z"
       inkscape:connector-curvature="0" />
    <path
       id="path46715"
       style="fill:#ffffff"
       d="m -431.72881,654.9661 c -79.78,0 -144.46,64.68 -144.46,144.46 0,79.78 64.68,144.42 144.46,144.42 79.78,0 144.46,-64.64 144.46,-144.42 0,-79.78 -64.68,-144.46 -144.46,-144.46 m 0,21.892 c 67.7,0 122.57,54.875 122.57,122.57 0,67.7 -54.875,122.53 -122.57,122.53 -67.7,0 -122.57,-54.831 -122.57,-122.53 0,-67.7 54.875,-122.57 122.57,-122.57 m 0,37.855 c -22.826,0 -41.38,18.414 -41.555,41.2 -10e-4,0.108 0,0.204 0,0.312 l 0,16.631 15.606,0 0,-15.828 c 0,-0.068 -10e-4,-0.111 0,-0.178 0.109,-14.24 11.684,-25.727 25.95,-25.727 14.266,0 25.841,11.487 25.95,25.727 10e-4,0.067 0,0.111 0,0.178 l 0,15.828 15.606,0 0,-16.631 c 0,-0.108 10e-4,-0.204 0,-0.312 -0.175,-22.784 -18.73,-41.2 -41.555,-41.2 m -39.594,68.4 c -11.865,0 -21.446,9.537 -21.446,21.402 l 0,58.19 c 0,11.865 9.581,21.402 21.446,21.402 l 79.19,0 c 11.865,0 21.446,-9.537 21.446,-21.402 l 0,-58.19 c 0,-11.865 -9.581,-21.402 -21.446,-21.402 l -79.19,0 m 39.594,23.23 c 8.423,0 15.249,6.782 15.249,15.204 0,4.893 -2.303,9.248 -5.886,12.04 l 0,17.969 c 0,5.206 -4.157,9.363 -9.363,9.363 -5.206,0 -9.363,-4.157 -9.363,-9.363 l 0,-17.969 c -3.583,-2.791 -5.886,-7.145 -5.886,-12.04 0,-8.423 6.826,-15.204 15.249,-15.204 m -134.88,177.73 4.726,43.07 -42.625,-12.172 -3.166,20.688 40.842,3.299 -26.307,35.491 19.975,10.523 17.3,-39.24 19.04,39.24 19.306,-10.523 -26.619,-35.491 41.2,-3.299 -3.077,-20.688 -43.16,12.172 4.503,-43.07 -21.937,0 m 123.6,0 4.726,43.07 -42.625,-12.172 -3.21,20.688 40.887,3.299 -26.307,35.491 19.931,10.523 17.344,-39.24 19.04,39.24 19.306,-10.523 -26.619,-35.491 41.2,-3.299 -3.077,-20.688 -43.16,12.172 4.459,-43.07 -21.892,0 m 123.6,0 4.682,43.07 -42.625,-12.172 -3.166,20.688 40.887,3.299 -26.307,35.491 19.931,10.523 17.344,-39.24 19.04,39.24 19.306,-10.523 -26.663,-35.491 41.2,-3.299 -3.03,-20.688 -43.21,12.172 4.503,-43.07 -21.892,0"
       inkscape:connector-curvature="0" />
  </g>
</svg>
