<?xml version="1.0" encoding="UTF-8" standalone="no"?>
<svg
   xmlns:dc="http://purl.org/dc/elements/1.1/"
   xmlns:cc="http://creativecommons.org/ns#"
   xmlns:rdf="http://www.w3.org/1999/02/22-rdf-syntax-ns#"
   xmlns:svg="http://www.w3.org/2000/svg"
   xmlns="http://www.w3.org/2000/svg"
   xmlns:sodipodi="http://sodipodi.sourceforge.net/DTD/sodipodi-0.dtd"
   xmlns:inkscape="http://www.inkscape.org/namespaces/inkscape"
   viewBox="0 0 512 512"
   id="svg2"
   version="1.1"
   inkscape:version="0.91+devel r13804 custom"
   sodipodi:docname="preferences-desktop-user.svg">
  <metadata
     id="metadata11857">
    <rdf:RDF>
      <cc:Work
         rdf:about="">
        <dc:format>image/svg+xml</dc:format>
        <dc:type
           rdf:resource="http://purl.org/dc/dcmitype/StillImage" />
      </cc:Work>
    </rdf:RDF>
  </metadata>
  <sodipodi:namedview
     pagecolor="#ffffff"
     bordercolor="#666666"
     borderopacity="1"
     objecttolerance="10"
     gridtolerance="10"
     guidetolerance="10"
     inkscape:pageopacity="0"
     inkscape:pageshadow="2"
     inkscape:window-width="1366"
     inkscape:window-height="709"
     id="namedview11855"
     showgrid="false"
     inkscape:zoom="0.4609375"
     inkscape:cx="-8.6779661"
     inkscape:cy="237.55932"
     inkscape:window-x="-2"
     inkscape:window-y="-3"
     inkscape:window-maximized="1"
     inkscape:current-layer="svg2" />
  <defs
     id="defs4">
    <path
       d="m350.45 319.42v-94.57h-3.967v53.54c0 5.293-.771 10.322-2.35 15.06-1.579 4.813-3.967 9.03-7.126 12.738-3.046 3.563-6.863 6.468-11.497 8.668-4.588 2.096-9.956 3.121-16.01 3.121-4.371 0-8.517-.62-12.485-1.73-3.817-1.25-7.239-3.01-10.285-5.547-2.905-2.538-5.218-5.688-6.9-9.551-1.73-3.93-1.871-8.781-1.871-14.318l-3.892.62c0 1.467 0 3.121 0 4.484.216 3.779.555 7.239 1.796 10.388 1.833 4.118 4.334 7.643 7.53 10.689 3.272 2.792 7.126 4.954 11.46 6.43 4.484 1.363 9.363 2.02 14.656 2.02 10.02 0 18.14-2.388 24.349-7.164 6.317-4.813 10.388-10.868 12.268-18.247h.367v23.39h3.93"
       id="0"
       style="fill:#fff" />
    <path
       d="m266.25 199.7h3.779c0-22.656 20.344-34.521 40.43-34.521 10.209 0 19.611 3.01 26.473 8.48 7.746 6.205 11.826 15.201 11.826 26.04h3.779c0-11.902-4.55-21.81-13.14-28.682-7.568-6.06-17.843-9.363-28.936-9.363-21.961 0-44.21 13.08-44.21 38.05"
       id="1"
       style="fill:#fff" />
    <path
       d="m306.11 197.69c0-2.313 2.059-4.221 4.55-4.221 2.501 0 4.512 1.908 4.512 4.221 0 2.35-2.02 4.221-4.512 4.221-2.538 0-4.55-1.871-4.55-4.221"
       id="2"
       style="fill:#fff" />
    <clipPath
       id="3">
      <path
         d="m47 24c0 12.708-10.304 23-23 23-12.696 0-23-10.292-23-23 0-12.708 10.304-23 23-23 12.696 0 23 10.292 23 23"
         id="path10" />
    </clipPath>
  </defs>
  <g
     id="g15221"
     transform="translate(277.69492,-288.54237)">
    <path
       id="path15"
       style="fill:#0078ad"
       d="m -251.69492,288.54237 c -14.397,0 -26,11.603 -26,26 l 0,460 c 0,14.397 11.603,26 26,26 l 460,0 c 14.397,0 26,-11.603 26,-26 l 0,-460 c 0,-14.397 -11.603,-26 -26,-26 l -460,0"
       inkscape:connector-curvature="0" />
    <path
       id="path11829"
       d="m -21.974215,329.53847 119.13282,119.13281 c 5e-5,10e-4 -6e-5,0.003 0,0.004 L -21.974215,329.54237 c -65.768,0 -119.250005,55.45071 -119.250005,124.4707 0,35.603 14.23307,67.78085 37.03907,90.58985 l 103.81250475,103.8125 c -7.08925005,0.86077 -14.29529975,1.3125 -21.60156975,1.3125 l 109.81446,109.81445 -0.004,0 -109.81046,-109.81055 c -41.62016,0 -80.096895,-14.35961 -111.173825,-38.61133 l -0.0176,-0.0176 c -48.04998,11.97203 -87.87857,73.26948 -86.05857,148.43948 l 41,41 386.52929,0 c 14.397,0 26,-11.603 26,-26 l 0,-236.68945 L 60.564855,364.11268 c -21.439,-21.43899 -50.53907,-34.57421 -82.53907,-34.57421 z"
       style="color:#000000;opacity:0.25;fill-rule:evenodd"
       inkscape:connector-curvature="0" />
    <path
       id="path11853"
       style="color:#000000;fill:#ffffff;fill-rule:evenodd"
       d="m -21.974915,329.54237 c -65.768,0 -119.250005,55.45 -119.250005,124.47 0,69.01 53.480005,125.16 119.250005,125.16 65.768,0 119.25,-56.14 119.25,-125.16 0,-69.01 -53.48,-124.47 -119.25,-124.47 m -111.190005,281.56 c -48.05,11.972 -87.88,73.27 -86.06,148.44 l 395.06,0 c 1.721,-75.18 -38.474,-136.5 -86.619995,-148.44 -31.08,24.26 -69.56,38.625 -111.19,38.625 -41.628,0 -80.110005,-14.365 -111.190005,-38.625"
       inkscape:connector-curvature="0" />
  </g>
</svg>
