<?xml version="1.0" encoding="UTF-8" standalone="no"?>
<svg
   xmlns:dc="http://purl.org/dc/elements/1.1/"
   xmlns:cc="http://creativecommons.org/ns#"
   xmlns:rdf="http://www.w3.org/1999/02/22-rdf-syntax-ns#"
   xmlns:svg="http://www.w3.org/2000/svg"
   xmlns="http://www.w3.org/2000/svg"
   xmlns:sodipodi="http://sodipodi.sourceforge.net/DTD/sodipodi-0.dtd"
   xmlns:inkscape="http://www.inkscape.org/namespaces/inkscape"
   viewBox="0 0 512 512"
   id="svg2"
   version="1.1"
   inkscape:version="0.91 r13725"
   sodipodi:docname="preferences-plugin-script.svg">
  <metadata
     id="metadata77">
    <rdf:RDF>
      <cc:Work
         rdf:about="">
        <dc:format>image/svg+xml</dc:format>
        <dc:type
           rdf:resource="http://purl.org/dc/dcmitype/StillImage" />
        <dc:title />
      </cc:Work>
    </rdf:RDF>
  </metadata>
  <sodipodi:namedview
     pagecolor="#ffffff"
     bordercolor="#666666"
     borderopacity="1"
     objecttolerance="10"
     gridtolerance="10"
     guidetolerance="10"
     inkscape:pageopacity="0"
     inkscape:pageshadow="2"
     inkscape:window-width="1366"
     inkscape:window-height="709"
     id="namedview75"
     showgrid="false"
     inkscape:zoom="0.92187499"
     inkscape:cx="302.11088"
     inkscape:cy="181.83391"
     inkscape:window-x="-2"
     inkscape:window-y="-3"
     inkscape:window-maximized="1"
     inkscape:current-layer="svg2"
     showguides="true" />
  <defs
     id="defs4" />
  <path
     inkscape:connector-curvature="0"
     d="m 25.998,-0.003 c -14.397,0 -26,11.603 -26,26 l 0,460 c 0,14.397 11.603,26 26,26 l 460,0 c 14.397,0 26,-11.603 26,-26 l 0,-460 c 0,-14.397 -11.603,-26 -26,-26 l -460,0"
     style="fill:#924565"
     id="path124945" />
  <path
     style="opacity:0.25"
     d="M 66.841797 66.810547 C 52.596797 66.810547 40.998047 78.347797 40.998047 92.591797 L 40.998047 132.06055 L 63.810547 154.87305 L 40.998047 154.87305 L 40.998047 419.34375 C 40.998047 426.46575 43.910797 432.91375 48.591797 437.59375 L 123.00195 512.00391 L 486.00195 512.00391 C 500.39895 512.00391 512.00195 500.40091 512.00195 486.00391 L 512.00195 122.94336 L 463.43945 74.380859 C 458.77545 69.716859 452.3497 66.816406 445.2207 66.816406 L 66.849609 66.816406 L 66.841797 66.810547 z "
     id="path3369" />
  <path
     style="fill:#ffffff"
     d="M 66.841797 66.810547 C 52.596797 66.810547 40.998047 78.347797 40.998047 92.591797 L 40.998047 132.06055 L 470.99805 132.06055 L 470.99805 92.591797 C 470.99805 78.342797 459.4658 66.810547 445.2168 66.810547 L 66.847656 66.810547 L 66.841797 66.810547 z M 333.37695 83.970703 C 342.85795 83.970703 350.62695 91.735703 350.62695 101.2207 C 350.62695 110.7057 342.85795 118.38086 333.37695 118.38086 C 323.89595 118.38086 316.2168 110.7097 316.2168 101.2207 C 316.2168 91.735703 323.89095 83.970703 333.37695 83.970703 z M 380.7168 83.970703 C 390.1978 83.970703 397.9043 91.735703 397.9043 101.2207 C 397.9043 110.7057 390.1978 118.38086 380.7168 118.38086 C 371.2358 118.38086 363.55664 110.7097 363.55664 101.2207 C 363.55664 91.735703 371.2308 83.970703 380.7168 83.970703 z M 427.99609 83.970703 C 437.47709 83.970703 445.18555 91.735703 445.18555 101.2207 C 445.18555 110.7057 437.47709 118.38086 427.99609 118.38086 C 418.51509 118.38086 410.77734 110.7097 410.77734 101.2207 C 410.77734 91.735703 418.51509 83.970703 427.99609 83.970703 z M 40.996094 154.87695 L 40.996094 419.3457 C 40.996094 433.5907 52.596797 445.18945 66.841797 445.18945 L 445.2207 445.18945 C 459.4697 445.18945 471.00195 433.5857 471.00195 419.3457 L 471.00195 154.87695 L 41.001953 154.87695 L 40.996094 154.87695 z M 251.92773 199.67578 L 290.9043 199.67578 L 237.78125 393.58789 L 198.80469 393.58789 L 250.36133 205.39453 L 251.92773 199.67578 z M 188.90039 236.94922 L 188.90039 275.53516 L 143.45312 297.9375 L 188.90039 317.79883 L 188.90039 355.86523 L 90.287109 310.49609 L 90.287109 288.32617 L 177.53906 242.86719 L 188.90039 236.94922 z M 323.0957 236.95312 L 421.70898 288.33203 L 421.70898 310.5 L 323.0957 355.87109 L 323.0957 317.80273 L 368.54297 297.94336 L 323.0957 275.53906 L 323.0957 249.76367 L 323.0957 236.95312 z "
     id="path124949" />
</svg>
