<?xml version="1.0" encoding="UTF-8" standalone="no"?>
<!-- Created with Inkscape (http://www.inkscape.org/) -->

<svg
   xmlns:dc="http://purl.org/dc/elements/1.1/"
   xmlns:cc="http://creativecommons.org/ns#"
   xmlns:rdf="http://www.w3.org/1999/02/22-rdf-syntax-ns#"
   xmlns:svg="http://www.w3.org/2000/svg"
   xmlns="http://www.w3.org/2000/svg"
   xmlns:sodipodi="http://sodipodi.sourceforge.net/DTD/sodipodi-0.dtd"
   xmlns:inkscape="http://www.inkscape.org/namespaces/inkscape"
   id="svg2"
   height="100%"
   width="100%"
   version="1.2"
   viewBox="0 0 512 512"
   inkscape:version="0.91+devel r13804 custom"
   sodipodi:docname="preferences-system-hotcorners.svg">
  <defs
     id="defs90" />
  <sodipodi:namedview
     pagecolor="#ffffff"
     bordercolor="#666666"
     borderopacity="1"
     objecttolerance="10"
     gridtolerance="10"
     guidetolerance="10"
     inkscape:pageopacity="0"
     inkscape:pageshadow="2"
     inkscape:window-width="1366"
     inkscape:window-height="709"
     id="namedview88"
     showgrid="false"
     inkscape:zoom="0.65186406"
     inkscape:cx="159.61236"
     inkscape:cy="155.29689"
     inkscape:window-x="0"
     inkscape:window-y="0"
     inkscape:window-maximized="0"
     inkscape:current-layer="svg2" />
  <metadata
     id="metadata175">
    <rdf:RDF>
      <cc:Work
         rdf:about="">
        <dc:format>image/svg+xml</dc:format>
        <dc:type
           rdf:resource="http://purl.org/dc/dcmitype/StillImage" />
      </cc:Work>
    </rdf:RDF>
  </metadata>
  <path
     inkscape:connector-curvature="0"
     style="fill:#e75177"
     id="path4"
     d="m 25.9985,-0.005 c -14.397,0 -26,11.603 -26,26 l 0,460 c 0,14.397 11.603,26 26,26 l 460,0 c 14.397,0 26,-11.603 26,-26 l 0,-460 c 0,-14.397 -11.6,-26 -26,-26 l -460,0" />
  <path
     style="color:#000000;opacity:0.25"
     d="M 112.43945 76.775391 C 73.209453 76.775391 40.998047 115.35469 40.998047 162.30469 L 40.998047 349.68555 C 40.998047 375.93555 51.077547 399.57645 66.810547 415.31445 L 163.50195 512.00586 L 486.00195 512.00586 C 500.39895 512.00586 512.00195 500.40286 512.00195 486.00586 L 512.00195 163.53516 L 446.66211 98.195312 L 445.19141 96.695312 C 432.78141 84.285313 416.87227 76.789062 399.57227 76.789062 L 112.45117 76.789062 L 112.43945 76.775391 z "
     id="path3571" />
  <path
     style="color:#000000;fill:#ffffff"
     d="M 112.43945 76.775391 C 73.209456 76.775391 40.998047 115.33492 40.998047 162.29492 L 40.998047 349.69531 C 40.998047 396.64931 73.219456 435.21484 112.43945 435.21484 L 399.54883 435.21484 C 438.77883 435.21484 470.98828 396.65131 470.98828 349.69531 L 470.98828 162.29492 C 470.98828 115.34092 438.76883 76.775391 399.54883 76.775391 L 112.43945 76.775391 z M 216.44141 110.62891 C 277.6084 110.60852 338.79297 110.83055 399.94922 110.68555 L 399.95117 110.68555 C 420.44417 109.82455 434.91016 129.65152 437.66016 148.10352 C 439.34716 215.36352 437.94534 282.74469 438.40234 350.05469 C 439.95134 371.10469 429.19203 396.20414 407.08203 401.24414 C 309.87203 402.66214 212.51219 401.47233 115.24219 401.86133 C 93.873186 404.15633 77.332906 383.90525 74.753906 364.15625 C 73.120906 296.50625 74.398828 228.73686 74.048828 161.04688 C 72.557828 140.19788 84.102142 115.32059 106.36914 111.05859 C 143.04789 110.74134 179.74121 110.64114 216.44141 110.62891 z M 237.24023 129.35352 L 237.24805 129.35547 C 205.59805 188.38547 156.22836 237.52422 97.318359 269.32422 C 97.310359 277.37422 97.331375 285.41484 97.359375 293.46484 C 167.49938 257.91684 226.05977 199.66453 261.25977 129.39453 C 253.24977 129.38253 245.25023 129.35652 237.24023 129.35352 z M 383.14453 129.37891 C 382.5968 129.3678 382.04448 129.37491 381.48633 129.39844 C 352.72828 129.46643 323.96922 129.43244 295.20117 129.39844 C 323.52912 179.40674 365.08016 220.95587 415.08789 249.28516 C 415.15689 220.17516 415.0718 191.07586 414.3418 162.00586 C 412.02067 146.42836 400.1241 129.72308 383.14453 129.37891 z M 295.20117 129.39844 C 295.20046 129.39717 295.19994 129.3958 295.19922 129.39453 L 295.19531 129.39844 C 295.19727 129.39844 295.19922 129.39844 295.20117 129.39844 z M 189.57812 129.39453 C 168.25612 129.44353 146.92337 129.54156 125.60938 129.72656 C 106.20337 133.44156 96.138453 155.11416 97.439453 173.28516 C 97.562453 197.03416 97.477437 220.79469 97.398438 244.55469 C 145.19144 217.00469 185.05766 177.19453 212.59766 129.39453 C 204.92266 129.40153 197.24812 129.37653 189.57812 129.39453 z M 278.35938 143.08594 C 274.58837 150.29194 270.58614 157.37322 266.36914 164.32422 C 302.65914 221.08022 354.57875 267.81531 414.96875 297.69531 C 414.98475 289.69531 414.98177 281.67578 415.00977 273.67578 C 358.50977 243.91178 310.71133 198.11594 278.36133 143.08594 L 278.35938 143.08594 z M 253.71875 183.81445 L 253.71484 183.81641 C 253.71484 183.81641 253.7168 183.81836 253.7168 183.81836 C 253.71762 183.81718 253.71793 183.81564 253.71875 183.81445 z M 253.7168 183.81836 C 214.34699 240.77975 159.988 287.40507 97.529297 317.31445 C 97.645297 328.30645 97.803359 339.30692 98.068359 350.29492 C 100.31636 367.50792 114.74919 385.15439 133.36719 383.15039 C 218.13719 382.81139 302.98703 383.84733 387.70703 382.61133 C 406.97603 378.21933 416.35781 356.36162 415.00781 338.01562 C 414.97081 332.53062 414.93683 327.03287 414.92383 321.54688 C 350.25465 290.95526 293.69671 243.14732 253.7168 183.81836 z "
     id="path10" />
</svg>
