<?xml version="1.0" encoding="UTF-8" standalone="no"?>
<svg
   xmlns:dc="http://purl.org/dc/elements/1.1/"
   xmlns:cc="http://creativecommons.org/ns#"
   xmlns:rdf="http://www.w3.org/1999/02/22-rdf-syntax-ns#"
   xmlns:svg="http://www.w3.org/2000/svg"
   xmlns="http://www.w3.org/2000/svg"
   xmlns:sodipodi="http://sodipodi.sourceforge.net/DTD/sodipodi-0.dtd"
   xmlns:inkscape="http://www.inkscape.org/namespaces/inkscape"
   viewBox="0 0 512 512"
   id="svg2"
   version="1.1"
   inkscape:version="0.91+devel r13804 custom"
   sodipodi:docname="preferences-web-browser-shortcuts.svg">
  <metadata
     id="metadata77">
    <rdf:RDF>
      <cc:Work
         rdf:about="">
        <dc:format>image/svg+xml</dc:format>
        <dc:type
           rdf:resource="http://purl.org/dc/dcmitype/StillImage" />
        <dc:title></dc:title>
      </cc:Work>
    </rdf:RDF>
  </metadata>
  <sodipodi:namedview
     pagecolor="#ffffff"
     bordercolor="#666666"
     borderopacity="1"
     objecttolerance="10"
     gridtolerance="10"
     guidetolerance="10"
     inkscape:pageopacity="0"
     inkscape:pageshadow="2"
     inkscape:window-width="1366"
     inkscape:window-height="709"
     id="namedview75"
     showgrid="false"
     inkscape:zoom="0.32593203"
     inkscape:cx="-11.678728"
     inkscape:cy="95.710196"
     inkscape:window-x="-2"
     inkscape:window-y="-3"
     inkscape:window-maximized="1"
     inkscape:current-layer="svg2"
     showguides="true" />
  <defs
     id="defs4">
    <path
       style="fill:#fff"
       id="0"
       d="m350.45 319.42v-94.57h-3.967v53.54c0 5.293-.771 10.322-2.35 15.06-1.579 4.813-3.967 9.03-7.126 12.738-3.046 3.563-6.863 6.468-11.497 8.668-4.588 2.096-9.956 3.121-16.01 3.121-4.371 0-8.517-.62-12.485-1.73-3.817-1.25-7.239-3.01-10.285-5.547-2.905-2.538-5.218-5.688-6.9-9.551-1.73-3.93-1.871-8.781-1.871-14.318l-3.892.62c0 1.467 0 3.121 0 4.484.216 3.779.555 7.239 1.796 10.388 1.833 4.118 4.334 7.643 7.53 10.689 3.272 2.792 7.126 4.954 11.46 6.43 4.484 1.363 9.363 2.02 14.656 2.02 10.02 0 18.14-2.388 24.349-7.164 6.317-4.813 10.388-10.868 12.268-18.247h.367v23.39h3.93" />
    <path
       style="fill:#fff"
       id="1"
       d="m266.25 199.7h3.779c0-22.656 20.344-34.521 40.43-34.521 10.209 0 19.611 3.01 26.473 8.48 7.746 6.205 11.826 15.201 11.826 26.04h3.779c0-11.902-4.55-21.81-13.14-28.682-7.568-6.06-17.843-9.363-28.936-9.363-21.961 0-44.21 13.08-44.21 38.05" />
    <path
       style="fill:#fff"
       id="2"
       d="m306.11 197.69c0-2.313 2.059-4.221 4.55-4.221 2.501 0 4.512 1.908 4.512 4.221 0 2.35-2.02 4.221-4.512 4.221-2.538 0-4.55-1.871-4.55-4.221" />
    <clipPath
       id="3">
      <path
         id="path177367"
         d="m47 24c0 12.708-10.304 23-23 23-12.696 0-23-10.292-23-23 0-12.708 10.304-23 23-23 12.696 0 23 10.292 23 23" />
    </clipPath>
  </defs>
  <g
     id="g202838"
     transform="translate(-299.33051,271.71739)">
    <path
       id="path177372"
       style="fill:#0078ad"
       d="m 325.33051,-271.71739 c -14.397,0 -26,11.603 -26,26 l 0,460 c 0,14.397 11.603,26 26,26 l 460,0 c 14.397,0 26,-11.603 26,-26 l 0,-460 c 0,-14.397 -11.603,-26 -26,-26 l -460,0"
       inkscape:connector-curvature="0" />
    <path
       id="path189962"
       d="m 557.39056,-230.71798 c -1.47399,-0.006 -2.98203,0.007 -4.45703,0.0371 l 25.0293,25.02929 c -0.003,-4.3e-4 -0.006,-0.002 -0.01,-0.002 l -25.0232,-25.02338 c -65.22,0.428 -128.5086,37.61998 -160.0586,94.70898 -18.09,31.424 -26.52586,68.281174 -24.38086,104.451174 l 116.05079,116.05078 c -14.15121,35.275926 9.0672,70.898856 50.74804,114.742186 5.1e-4,0.002 10e-4,0.004 0.002,0.006 l 41,41 209.03906,0 c 14.397,0 26,-11.603 26,-26 l 0,-266.839846 L 689.25975,-174.628 c -2.457,-2.457 -4.99338,-4.83858 -7.60938,-7.14258 l 14.61328,14.61329 c 0.008,0.009 0.0155,0.0184 0.0234,0.0273 l -14.63672,-14.63682 c -33.41905,-30.86612 -78.56719,-48.75126 -124.25586,-48.94726 l -0.004,-0.004 z"
       style="color:#000000;opacity:0.25"
       inkscape:connector-curvature="0" />
    <path
       id="path190060"
       style="color:#000000;fill:#ffffff"
       d="m 557.39051,-230.71739 c -1.474,-0.006 -2.982,0.007 -4.457,0.037 -65.22,0.428 -128.51,37.621 -160.06,94.71 -18.09,31.424 -26.525,68.280004 -24.38,104.450004 l 373.71,0 c 3.108,-55.83 -18.554,-113.260004 -60.56,-150.250004 -33.42,-30.867 -78.57,-48.752 -124.26,-48.947 m -13.669,23.93 0,81.64 -70.63,0 c 4.394,-23.359 10.407,-46.38 18.201,-68.87 16.588,-7.103 34.527,-11.554 52.43,-12.77 m 23.406,0.075 1.123,0.075 0.599,0.037 c 17.47,1.294 34.459,5.446 50.595,12.246 7.889,22.589 13.891,45.731 18.35,69.21 l -70.67,0 0,-81.57 m -105.57,28.874 c -5.056,17.21 -9.253,34.963 -12.433,52.729 -5.862,-0.163 -11.749,0.013 -17.639,0.037 -5.89,0.024 -11.797,-0.121 -17.601,-0.861 11.927,-20.47 28.997,-38.26 47.674,-51.905 m 188.04,0.075 c 19.309,13.844 35.848,31.991 47.936,52.617 l -35.802,0 c -3.122,-17.734 -7.728,-35.23 -12.134,-52.617 m -247.09,76.06 43.03,0 c -2.184,15.460004 -3.315,31.170004 -4.082,46.812004 l -49.28,0 c 1.177,-15.973 4.648,-31.866 10.336,-46.812004 m 66.7,0 74.53,0 0,46.812004 -78.68,0 c 0.628,-15.648 2.01,-31.411 4.157,-46.812004 m 97.93,0 74.53,0 c 2.059,15.469004 3.517,31.150004 4.119,46.812004 l -78.64,0 0,-46.812004 m 98.16,0 43.18,0 c 5.564,15.050004 9.03,30.805004 10.186,46.812004 l -49.28,0 c -0.768,-15.639 -1.898,-31.353 -4.082,-46.812004 m -181.52,102.46000388 1.123,0.89900002 38.423,38.2000001 c -69.13,51.579 -47.14,97.229996 11.984,159.419996 -16.1,-63.891 -4.22,-93.02 36.36,-110.809996 58.58,57.793996 48.854,47.439996 58.61,57.672996 l 0,-145.37999612 -146.5,0"
       inkscape:connector-curvature="0" />
  </g>
</svg>
