<?xml version="1.0" encoding="UTF-8" standalone="no"?>
<svg
   xmlns:dc="http://purl.org/dc/elements/1.1/"
   xmlns:cc="http://creativecommons.org/ns#"
   xmlns:rdf="http://www.w3.org/1999/02/22-rdf-syntax-ns#"
   xmlns:svg="http://www.w3.org/2000/svg"
   xmlns="http://www.w3.org/2000/svg"
   xmlns:sodipodi="http://sodipodi.sourceforge.net/DTD/sodipodi-0.dtd"
   xmlns:inkscape="http://www.inkscape.org/namespaces/inkscape"
   viewBox="0 0 512 512"
   id="svg2"
   version="1.1"
   inkscape:version="0.91+devel r13804 custom"
   sodipodi:docname="preferences-online-accounts.svg">
  <metadata
     id="metadata77">
    <rdf:RDF>
      <cc:Work
         rdf:about="">
        <dc:format>image/svg+xml</dc:format>
        <dc:type
           rdf:resource="http://purl.org/dc/dcmitype/StillImage" />
        <dc:title></dc:title>
      </cc:Work>
    </rdf:RDF>
  </metadata>
  <sodipodi:namedview
     pagecolor="#ffffff"
     bordercolor="#666666"
     borderopacity="1"
     objecttolerance="10"
     gridtolerance="10"
     guidetolerance="10"
     inkscape:pageopacity="0"
     inkscape:pageshadow="2"
     inkscape:window-width="1366"
     inkscape:window-height="709"
     id="namedview75"
     showgrid="false"
     inkscape:zoom="0.4609375"
     inkscape:cx="101.26319"
     inkscape:cy="157.28814"
     inkscape:window-x="-2"
     inkscape:window-y="-3"
     inkscape:window-maximized="1"
     inkscape:current-layer="svg2"
     showguides="true" />
  <defs
     id="defs4" />
  <text
     sodipodi:linespacing="125%"
     y="231.3605"
     x="729.64001"
     line-height="125%"
     style="font-size:129.22999573px;line-height:125%;font-family:'Gentium Book Basic';letter-spacing:0;word-spacing:0"
     id="text123785">
    <tspan
       y="231.3605"
       x="729.64001"
       id="tspan123787" />
  </text>
  <text
     transform="scale(4.0128205,0.24920128)"
     y="579.24902"
     x="378.90805"
     style="font-size:46.95399857px;font-family:Arial;text-anchor:middle"
     id="text123789" />
  <text
     sodipodi:linespacing="125%"
     y="151.3605"
     x="1310.91"
     line-height="125%"
     style="font-size:129.22999573px;line-height:125%;font-family:'Gentium Book Basic';letter-spacing:0;word-spacing:0"
     id="text123791">
    <tspan
       y="151.3605"
       x="1310.91"
       id="tspan123793" />
  </text>
  <text
     transform="scale(4.0128205,0.24920128)"
     y="258.22067"
     x="523.75732"
     style="font-size:46.95399857px;font-family:Arial;text-anchor:middle"
     id="text123795" />
  <text
     sodipodi:linespacing="125%"
     y="-29.900499"
     x="239.33"
     line-height="125%"
     style="font-size:129.22999573px;line-height:125%;font-family:'Gentium Book Basic';letter-spacing:0;word-spacing:0"
     id="text123797">
    <tspan
       y="-29.900499"
       x="239.33"
       id="tspan123799" />
  </text>
  <text
     transform="scale(4.0128205,0.24920128)"
     y="-469.13562"
     x="256.71869"
     style="font-size:46.95399857px;font-family:Arial;text-anchor:middle"
     id="text123801" />
  <text
     sodipodi:linespacing="125%"
     y="-246.36949"
     x="1337.38"
     line-height="125%"
     style="font-size:129.22999573px;line-height:125%;font-family:'Gentium Book Basic';letter-spacing:0;word-spacing:0"
     id="text123803">
    <tspan
       y="-246.36949"
       x="1337.38"
       id="tspan123805" />
  </text>
  <text
     transform="scale(4.0128205,0.24920128)"
     y="-1337.8011"
     x="530.3573"
     style="font-size:46.95399857px;font-family:Arial;text-anchor:middle"
     id="text123807" />
  <text
     sodipodi:linespacing="125%"
     y="-326.37952"
     x="1918.65"
     line-height="125%"
     style="font-size:129.22999573px;line-height:125%;font-family:'Gentium Book Basic';letter-spacing:0;word-spacing:0"
     id="text123809">
    <tspan
       y="-326.37952"
       x="1918.65"
       id="tspan123811" />
  </text>
  <text
     transform="scale(4.0128205,0.24920128)"
     y="-1658.8395"
     x="675.20654"
     style="font-size:46.95399857px;font-family:Arial;text-anchor:middle"
     id="text123813" />
  <text
     sodipodi:linespacing="125%"
     y="-798.77954"
     x="1529.53"
     line-height="125%"
     style="font-size:129.22999573px;line-height:125%;font-family:'Gentium Book Basic';letter-spacing:0;word-spacing:0"
     id="text123815">
    <tspan
       y="-798.77954"
       x="1529.53"
       id="tspan123817" />
  </text>
  <text
     transform="scale(4.0128205,0.24920128)"
     y="-3554.4897"
     x="578.237"
     style="font-size:46.95399857px;font-family:Arial;text-anchor:middle"
     id="text123819" />
  <text
     sodipodi:linespacing="125%"
     y="-878.77954"
     x="2110.79"
     line-height="125%"
     style="font-size:129.22999573px;line-height:125%;font-family:'Gentium Book Basic';letter-spacing:0;word-spacing:0"
     id="text123821">
    <tspan
       y="-878.77954"
       x="2110.79"
       id="tspan123823" />
  </text>
  <text
     transform="scale(4.0128205,0.24920128)"
     y="-3875.5183"
     x="723.0863"
     style="font-size:46.95399857px;font-family:Arial;text-anchor:middle"
     id="text123825" />
  <g
     line-height="125%"
     style="line-height:125%;font-family:'Gentium Book Basic';letter-spacing:0;word-spacing:0"
     id="g123827"
     transform="translate(0,5e-4)">
    <text
       y="535.94"
       x="277.98999"
       style="font-size:208.33000183px"
       id="text123829">
      <tspan
         y="535.94"
         x="277.98999"
         id="tspan123831" />
    </text>
    <text
       y="80.410004"
       x="21.264999"
       style="font-size:129.22999573px"
       id="text123833">
      <tspan
         y="80.410004"
         x="21.264999"
         id="tspan123835" />
    </text>
  </g>
  <text
     transform="scale(4.0128205,0.24920128)"
     y="-26.483858"
     x="202.37897"
     style="font-size:46.95399857px;font-family:Arial;text-anchor:middle"
     id="text123837" />
  <text
     sodipodi:linespacing="125%"
     y="0.40649998"
     x="602.53003"
     line-height="125%"
     style="font-size:129.22999573px;line-height:125%;font-family:'Gentium Book Basic';letter-spacing:0;word-spacing:0"
     id="text123839">
    <tspan
       y="0.40649998"
       x="602.53003"
       id="tspan123841" />
  </text>
  <text
     transform="scale(4.0128205,0.24920128)"
     y="-347.5162"
     x="347.22824"
     style="font-size:46.95399857px;font-family:Arial;text-anchor:middle"
     id="text123843" />
  <text
     sodipodi:linespacing="125%"
     y="-180.8495"
     x="-469.04999"
     line-height="125%"
     style="font-size:129.22999573px;line-height:125%;font-family:'Gentium Book Basic';letter-spacing:0;word-spacing:0"
     id="text123845">
    <tspan
       y="-180.8495"
       x="-469.04999"
       id="tspan123847" />
  </text>
  <text
     transform="scale(4.0128205,0.24920128)"
     y="-1074.8624"
     x="80.18959"
     style="font-size:46.95399857px;font-family:Arial;text-anchor:middle"
     id="text123849" />
  <text
     sodipodi:linespacing="125%"
     y="-397.31952"
     x="629"
     line-height="125%"
     style="font-size:129.22999573px;line-height:125%;font-family:'Gentium Book Basic';letter-spacing:0;word-spacing:0"
     id="text123851">
    <tspan
       y="-397.31952"
       x="629"
       id="tspan123853" />
  </text>
  <text
     transform="scale(4.0128205,0.24920128)"
     y="-1943.5381"
     x="353.82819"
     style="font-size:46.95399857px;font-family:Arial;text-anchor:middle"
     id="text123855" />
  <text
     sodipodi:linespacing="125%"
     y="-477.3295"
     x="1210.27"
     line-height="125%"
     style="font-size:129.22999573px;line-height:125%;font-family:'Gentium Book Basic';letter-spacing:0;word-spacing:0"
     id="text123857">
    <tspan
       y="-477.3295"
       x="1210.27"
       id="tspan123859" />
  </text>
  <text
     transform="scale(4.0128205,0.24920128)"
     y="-2264.5664"
     x="498.67743"
     style="font-size:46.95399857px;font-family:Arial;text-anchor:middle"
     id="text123861" />
  <text
     sodipodi:linespacing="125%"
     y="-949.72949"
     x="821.15002"
     line-height="125%"
     style="font-size:129.22999573px;line-height:125%;font-family:'Gentium Book Basic';letter-spacing:0;word-spacing:0"
     id="text123863">
    <tspan
       y="-949.72949"
       x="821.15002"
       id="tspan123865" />
  </text>
  <text
     transform="scale(4.0128205,0.24920128)"
     y="-4160.2266"
     x="401.70795"
     style="font-size:46.95399857px;font-family:Arial;text-anchor:middle"
     id="text123867" />
  <text
     sodipodi:linespacing="125%"
     y="-1029.7295"
     x="1402.42"
     line-height="125%"
     style="font-size:129.22999573px;line-height:125%;font-family:'Gentium Book Basic';letter-spacing:0;word-spacing:0"
     id="text123869">
    <tspan
       y="-1029.7295"
       x="1402.42"
       id="tspan123871" />
  </text>
  <text
     transform="scale(4.0128205,0.24920128)"
     y="-4481.2549"
     x="546.55719"
     style="font-size:46.95399857px;font-family:Arial;text-anchor:middle"
     id="text123873" />
  <text
     sodipodi:linespacing="125%"
     y="384.99048"
     x="-430.39001"
     line-height="125%"
     style="font-size:208.33000183px;line-height:125%;font-family:'Gentium Book Basic';letter-spacing:0;word-spacing:0"
     id="text123875">
    <tspan
       y="384.99048"
       x="-430.39001"
       id="tspan123877" />
  </text>
  <path
     inkscape:connector-curvature="0"
     d="m 25.992,-0.0125 c -14.397,0 -26,11.603 -26,26 l 0,460 c 0,14.397 11.603,26 26,26 l 460,0 c 14.397,0 26,-11.603 26,-26 l 0,-460 c 0,-14.397 -11.603,-26 -26,-26 l -460,0"
     style="fill:#0279ad"
     id="path123879" />
  <path
     inkscape:connector-curvature="0"
     d="m 25.992,-0.0125 c -14.397,0 -26,11.603 -26,26 l 0,232.75 c 17.689,-13.975 51.23,-11.519 59.41,11.438 -9.229,-31.487 22.791,-56.2 40.75,-78.81 3.736,-11.04 25.951,-20.511 18.313,-5.844 13.02,-0.446 32.71,-22.719 9.594,-12.438 -0.327,-20.315 -20.231,-14.509 -26.688,-11.625 11.975,-18.03 73.51,-8.148 47.75,-37.625 -19.957,-7.672 -18.346,-52.44 -38.531,-27.5 1.698,-15.366 -41.09,-45.45 -40.16,-19.688 5.222,23.06 0.931,49.636 -10.188,64.75 -2.32,-33.787 -63.06,-26.372 -55.25,-62.37 11.314,-17.16 24.585,-40.853 25.844,-38.719 18.83,-6.822 34.21,-25.742 17.469,-39.656 -2.272,1.737 -4.522,3.488 -6.75,5.281 -3.383,8.306 -9.437,16.352 -12.03,11.688 l 0,-15.281 c 0,-0.79 -0.045,-1.576 -0.125,-2.344 l -3.406,0 m 50.656,0 c 1.324,1.88 2.574,4.179 3.75,7.06 23.08,12.618 2.041,34.04 -8.03,41.41 16.838,-9.377 46.32,37.28 38.28,11.375 -9.908,-6.863 26.63,11.02 7.688,-11.281 -17.431,-26.646 1.337,-11.906 8.688,-5.688 23.863,-20.3 -23.588,-23.58 -16.375,-42.875 l -34,0 m 89.88,0 c 2.161,0.576 4.54,0.588 5.875,0 l -5.875,0 m 12.813,0 c 0.685,7.01 -14.788,12.159 -1.344,19.438 -19.16,9.379 3.109,49.07 17.344,59 23.42,18.706 10.368,-39.623 36.5,-42.656 12.62,-13.669 33.686,-23.01 50.656,-35.781 l -103.16,0 m 278.91,0 c -15.882,13.98 -26.04,34.1 -37.719,51.813 -25.966,11.11 -25.01,58.792 4,43.563 7.765,12.866 -5.43,33.1 17.188,16.281 18.243,-22.903 3.204,-59.903 34.25,-74.34 2.261,11.23 -28.629,53.17 7.469,46.28 32.632,1.168 -23.684,3.068 -7.813,22.844 -16.49,-9.282 -7.944,25.341 -29.469,17.281 -18.647,9.622 -30.896,-4.471 -26.625,-19.906 -14.669,8.119 4.59,31.06 -20.875,32.438 -5.704,19.216 -52.612,16.276 -25.938,35.844 11.843,29.12 -44.11,1.837 -28.22,36.781 13.595,34.554 42.06,-11.427 53.625,-20.313 21.605,-15.903 53.29,25.25 37,29.344 20.504,-3.674 15.706,-23.17 -1.844,-30.813 -9.738,-23.959 30.812,11.8 28.563,23.813 14.313,25.426 8.435,-26.06 23,-3.281 -0.904,12.778 15.716,13.553 27.16,16.09 l 0,-25.09 c -16.414,-0.516 -30.401,-6.136 -10.969,-24.375 2.732,-1.556 7.01,-0.147 10.969,1.563 l 0,-149.81 c 0,-14.397 -11.603,-26 -26,-26 l -27.75,0 m -382.94,11.844 c -11.03,17.14 16.301,6.329 0,0 m 241.56,20.313 c -12.915,14.11 -29.94,-3.75 -30.22,8.375 2.341,3.664 11.709,29.827 32.25,10.531 11.02,-4.409 6.668,-15.498 -2.031,-18.906 m -275,8.375 c -24.497,20.3 41.602,22.21 5.188,2.375 l -5.188,-2.375 m 30.469,7.938 c -0.535,0.301 -1.024,0.673 -1.531,1.094 0.477,-0.314 0.981,-0.692 1.531,-1.094 m 292.41,48.5 c -16.997,10.994 8.791,33.898 0,44.719 -11.05,18.269 41.09,-1.269 13.25,-15.844 -1.907,-12.04 -15.256,-26.614 -13.188,-28.875 l -0.063,0 m -11.594,21.813 c -24.568,6.592 -5.579,40.618 3.125,8.563 0.489,-1.858 1.153,-8.624 -3.125,-8.563 m -196.75,24.594 c -22.861,14.79 -3.566,29.593 13.188,22.938 -3.44,-8.923 -13.03,-14.591 -13.188,-22.938 m 259.72,56.44 c -14.331,8.759 9.911,15.476 0,0 m 2.094,19.688 c -25.22,1.944 -56.46,1.7 -73.34,21.03 -18.262,23.769 -44.561,56.99 -24.656,87.34 19.917,44.969 69.29,2.312 97.69,28.875 8.439,11.07 -7.336,24.26 11.531,36.25 7.101,25.554 -8.06,49.819 9.375,74.25 9.02,22.973 14.656,57.36 48.22,36.38 12.954,-7.398 19.922,-17.07 24.969,-27.375 l 0,-231.91 c -23.828,3.531 -47.27,-6.188 -67.813,0.469 -19.83,-0.167 -18.745,-20.276 -25.969,-25.313 m -361.97,61.969 c -2.416,7.647 45.32,15.407 12.375,3.156 l -4.906,-1.656 -7.469,-1.5 m -25.406,5.594 c -8.704,8.213 -21.944,10.562 -30.844,6.281 l 0,18.438 c 4.936,1.663 10.122,3.03 15.563,4.125 19.517,6.298 35.586,27.957 52.75,23.19 9.706,24.272 -28.774,47.576 1.281,70.22 15.689,22.92 42.07,37.98 27.813,70.16 -3.373,10.629 -5.134,21.567 -6.313,32.531 l 61.19,0 c 1.608,-4.077 4.969,-6.842 14.656,-5.531 16.448,-20.453 21.18,-44.884 48.938,-53 3.316,-24.827 46.16,-62.829 1.906,-72.5 -12.03,-5.624 -42.997,-7.6 -40.625,-10.375 4.795,-24.64 -40.01,-31.702 -59.09,-41.781 -25.05,-16.869 -62.706,28.02 -71.53,-10.656 -5.265,-12.17 -24.53,-12.315 -15.688,-31.09 m 62.44,5.281 c -14.475,13.948 29.836,4.167 0,0"
     style="fill:#ffffff;fill-opacity:0.33000004"
     id="path123881" />
  <text
     sodipodi:linespacing="125%"
     y="158.52051"
     x="-13.877"
     line-height="125%"
     style="font-size:129.22999573px;line-height:125%;font-family:'Gentium Book Basic';letter-spacing:0;word-spacing:0"
     id="text123883">
    <tspan
       y="158.52051"
       x="-13.877"
       id="tspan123885" />
  </text>
  <text
     transform="scale(4.0128205,0.24920128)"
     y="286.95056"
     x="193.619"
     style="font-size:46.95399857px;font-family:Arial;text-anchor:middle"
     id="text123887" />
  <text
     sodipodi:linespacing="125%"
     y="78.5205"
     x="567.39001"
     line-height="125%"
     style="font-size:129.22999573px;line-height:125%;font-family:'Gentium Book Basic';letter-spacing:0;word-spacing:0"
     id="text123889">
    <tspan
       y="78.5205"
       x="567.39001"
       id="tspan123891" />
  </text>
  <text
     transform="scale(4.0128205,0.24920128)"
     y="-34.07782"
     x="338.46826"
     style="font-size:46.95399857px;font-family:Arial;text-anchor:middle"
     id="text123893" />
  <text
     sodipodi:linespacing="125%"
     y="-102.73949"
     x="-504.19"
     line-height="125%"
     style="font-size:129.22999573px;line-height:125%;font-family:'Gentium Book Basic';letter-spacing:0;word-spacing:0"
     id="text123895">
    <tspan
       y="-102.73949"
       x="-504.19"
       id="tspan123897" />
  </text>
  <text
     transform="scale(4.0128205,0.24920128)"
     y="-761.42407"
     x="71.439636"
     style="font-size:46.95399857px;font-family:Arial;text-anchor:middle"
     id="text123899" />
  <text
     sodipodi:linespacing="125%"
     y="-319.2095"
     x="593.85999"
     line-height="125%"
     style="font-size:129.22999573px;line-height:125%;font-family:'Gentium Book Basic';letter-spacing:0;word-spacing:0"
     id="text123901">
    <tspan
       y="-319.2095"
       x="593.85999"
       id="tspan123903" />
  </text>
  <text
     transform="scale(4.0128205,0.24920128)"
     y="-1630.0796"
     x="345.06824"
     style="font-size:46.95399857px;font-family:Arial;text-anchor:middle"
     id="text123905" />
  <text
     sodipodi:linespacing="125%"
     y="-399.21951"
     x="1175.13"
     line-height="125%"
     style="font-size:129.22999573px;line-height:125%;font-family:'Gentium Book Basic';letter-spacing:0;word-spacing:0"
     id="text123907">
    <tspan
       y="-399.21951"
       x="1175.13"
       id="tspan123909" />
  </text>
  <text
     transform="scale(4.0128205,0.24920128)"
     y="-1951.118"
     x="489.91751"
     style="font-size:46.95399857px;font-family:Arial;text-anchor:middle"
     id="text123911" />
  <text
     sodipodi:linespacing="125%"
     y="-871.61951"
     x="786.01001"
     line-height="125%"
     style="font-size:129.22999573px;line-height:125%;font-family:'Gentium Book Basic';letter-spacing:0;word-spacing:0"
     id="text123913">
    <tspan
       y="-871.61951"
       x="786.01001"
       id="tspan123915" />
  </text>
  <text
     transform="scale(4.0128205,0.24920128)"
     y="-3846.7483"
     x="392.948"
     style="font-size:46.95399857px;font-family:Arial;text-anchor:middle"
     id="text123917" />
  <text
     sodipodi:linespacing="125%"
     y="-951.61951"
     x="1367.27"
     line-height="125%"
     style="font-size:129.22999573px;line-height:125%;font-family:'Gentium Book Basic';letter-spacing:0;word-spacing:0"
     id="text123919">
    <tspan
       y="-951.61951"
       x="1367.27"
       id="tspan123921" />
  </text>
  <text
     transform="scale(4.0128205,0.24920128)"
     y="-4167.7764"
     x="537.79724"
     style="font-size:46.95399857px;font-family:Arial;text-anchor:middle"
     id="text123923" />
  <g
     line-height="125%"
     style="line-height:125%;font-family:'Gentium Book Basic';letter-spacing:0;word-spacing:0"
     id="g123925"
     transform="translate(0,5e-4)">
    <text
       y="463.10001"
       x="-465.53"
       style="font-size:208.33000183px"
       id="text123927">
      <tspan
         y="463.10001"
         x="-465.53"
         id="tspan123929" />
    </text>
    <text
       y="88.169998"
       x="22.386"
       style="font-size:129.22999573px"
       id="text123931">
      <tspan
         y="88.169998"
         x="22.386"
         id="tspan123933" />
    </text>
  </g>
  <text
     transform="scale(4.0128205,0.24920128)"
     y="4.6679826"
     x="202.65897"
     style="font-size:46.95399857px;font-family:Arial;text-anchor:middle"
     id="text123935" />
  <text
     sodipodi:linespacing="125%"
     y="8.1744995"
     x="603.65997"
     line-height="125%"
     style="font-size:129.22999573px;line-height:125%;font-family:'Gentium Book Basic';letter-spacing:0;word-spacing:0"
     id="text123937">
    <tspan
       y="8.1744995"
       x="603.65997"
       id="tspan123939" />
  </text>
  <text
     transform="scale(4.0128205,0.24920128)"
     y="-316.35635"
     x="347.50824"
     style="font-size:46.95399857px;font-family:Arial;text-anchor:middle"
     id="text123941" />
  <text
     sodipodi:linespacing="125%"
     y="-173.08949"
     x="-467.92001"
     line-height="125%"
     style="font-size:129.22999573px;line-height:125%;font-family:'Gentium Book Basic';letter-spacing:0;word-spacing:0"
     id="text123943">
    <tspan
       y="-173.08949"
       x="-467.92001"
       id="tspan123945" />
  </text>
  <text
     transform="scale(4.0128205,0.24920128)"
     y="-1043.7126"
     x="80.469589"
     style="font-size:46.95399857px;font-family:Arial;text-anchor:middle"
     id="text123947" />
  <text
     sodipodi:linespacing="125%"
     y="-389.55951"
     x="630.13"
     line-height="125%"
     style="font-size:129.22999573px;line-height:125%;font-family:'Gentium Book Basic';letter-spacing:0;word-spacing:0"
     id="text123949">
    <tspan
       y="-389.55951"
       x="630.13"
       id="tspan123951" />
  </text>
  <text
     transform="scale(4.0128205,0.24920128)"
     y="-1912.3682"
     x="354.10818"
     style="font-size:46.95399857px;font-family:Arial;text-anchor:middle"
     id="text123953" />
  <text
     sodipodi:linespacing="125%"
     y="-469.56952"
     x="1211.4"
     line-height="125%"
     style="font-size:129.22999573px;line-height:125%;font-family:'Gentium Book Basic';letter-spacing:0;word-spacing:0"
     id="text123955">
    <tspan
       y="-469.56952"
       x="1211.4"
       id="tspan123957" />
  </text>
  <text
     transform="scale(4.0128205,0.24920128)"
     y="-2233.4065"
     x="498.95743"
     style="font-size:46.95399857px;font-family:Arial;text-anchor:middle"
     id="text123959" />
  <text
     sodipodi:linespacing="125%"
     y="-941.96948"
     x="822.28003"
     line-height="125%"
     style="font-size:129.22999573px;line-height:125%;font-family:'Gentium Book Basic';letter-spacing:0;word-spacing:0"
     id="text123961">
    <tspan
       y="-941.96948"
       x="822.28003"
       id="tspan123963" />
  </text>
  <text
     transform="scale(4.0128205,0.24920128)"
     y="-4129.0469"
     x="401.98795"
     style="font-size:46.95399857px;font-family:Arial;text-anchor:middle"
     id="text123965" />
  <text
     sodipodi:linespacing="125%"
     y="-1021.9695"
     x="1403.54"
     line-height="125%"
     style="font-size:129.22999573px;line-height:125%;font-family:'Gentium Book Basic';letter-spacing:0;word-spacing:0"
     id="text123967">
    <tspan
       y="-1021.9695"
       x="1403.54"
       id="tspan123969" />
  </text>
  <text
     transform="scale(4.0128205,0.24920128)"
     y="-4450.0752"
     x="546.83722"
     style="font-size:46.95399857px;font-family:Arial;text-anchor:middle"
     id="text123971" />
  <g
     line-height="125%"
     style="line-height:125%;font-family:'Gentium Book Basic';letter-spacing:0;word-spacing:0"
     id="g123973"
     transform="translate(0,5e-4)">
    <text
       y="392.75"
       x="-429.26001"
       style="font-size:208.33000183px"
       id="text123975">
      <tspan
         y="392.75"
         x="-429.26001"
         id="tspan123977" />
    </text>
    <text
       y="88.169998"
       x="22.386"
       style="font-size:129.22999573px"
       id="text123979">
      <tspan
         y="88.169998"
         x="22.386"
         id="tspan123981" />
    </text>
  </g>
  <text
     transform="scale(4.0128205,0.24920128)"
     y="4.6679826"
     x="202.65897"
     style="font-size:46.95399857px;font-family:Arial;text-anchor:middle"
     id="text123983" />
  <text
     sodipodi:linespacing="125%"
     y="8.1744995"
     x="603.65997"
     line-height="125%"
     style="font-size:129.22999573px;line-height:125%;font-family:'Gentium Book Basic';letter-spacing:0;word-spacing:0"
     id="text123985">
    <tspan
       y="8.1744995"
       x="603.65997"
       id="tspan123987" />
  </text>
  <text
     transform="scale(4.0128205,0.24920128)"
     y="-316.35635"
     x="347.50824"
     style="font-size:46.95399857px;font-family:Arial;text-anchor:middle"
     id="text123989" />
  <text
     sodipodi:linespacing="125%"
     y="-173.08949"
     x="-467.92001"
     line-height="125%"
     style="font-size:129.22999573px;line-height:125%;font-family:'Gentium Book Basic';letter-spacing:0;word-spacing:0"
     id="text123991">
    <tspan
       y="-173.08949"
       x="-467.92001"
       id="tspan123993" />
  </text>
  <text
     transform="scale(4.0128205,0.24920128)"
     y="-1043.7126"
     x="80.469589"
     style="font-size:46.95399857px;font-family:Arial;text-anchor:middle"
     id="text123995" />
  <text
     sodipodi:linespacing="125%"
     y="-389.55951"
     x="630.13"
     line-height="125%"
     style="font-size:129.22999573px;line-height:125%;font-family:'Gentium Book Basic';letter-spacing:0;word-spacing:0"
     id="text123997">
    <tspan
       y="-389.55951"
       x="630.13"
       id="tspan123999" />
  </text>
  <text
     transform="scale(4.0128205,0.24920128)"
     y="-1912.3682"
     x="354.10818"
     style="font-size:46.95399857px;font-family:Arial;text-anchor:middle"
     id="text124001" />
  <text
     sodipodi:linespacing="125%"
     y="-469.56952"
     x="1211.4"
     line-height="125%"
     style="font-size:129.22999573px;line-height:125%;font-family:'Gentium Book Basic';letter-spacing:0;word-spacing:0"
     id="text124003">
    <tspan
       y="-469.56952"
       x="1211.4"
       id="tspan124005" />
  </text>
  <text
     transform="scale(4.0128205,0.24920128)"
     y="-2233.4065"
     x="498.95743"
     style="font-size:46.95399857px;font-family:Arial;text-anchor:middle"
     id="text124007" />
  <text
     sodipodi:linespacing="125%"
     y="-941.96948"
     x="822.28003"
     line-height="125%"
     style="font-size:129.22999573px;line-height:125%;font-family:'Gentium Book Basic';letter-spacing:0;word-spacing:0"
     id="text124009">
    <tspan
       y="-941.96948"
       x="822.28003"
       id="tspan124011" />
  </text>
  <text
     transform="scale(4.0128205,0.24920128)"
     y="-4129.0469"
     x="401.98795"
     style="font-size:46.95399857px;font-family:Arial;text-anchor:middle"
     id="text124013" />
  <text
     sodipodi:linespacing="125%"
     y="-1021.9695"
     x="1403.54"
     line-height="125%"
     style="font-size:129.22999573px;line-height:125%;font-family:'Gentium Book Basic';letter-spacing:0;word-spacing:0"
     id="text124015">
    <tspan
       y="-1021.9695"
       x="1403.54"
       id="tspan124017" />
  </text>
  <text
     transform="scale(4.0128205,0.24920128)"
     y="-4450.0752"
     x="546.83722"
     style="font-size:46.95399857px;font-family:Arial;text-anchor:middle"
     id="text124019" />
  <text
     sodipodi:linespacing="125%"
     y="392.75049"
     x="-429.26001"
     line-height="125%"
     style="font-size:208.33000183px;line-height:125%;font-family:'Gentium Book Basic';letter-spacing:0;word-spacing:0"
     id="text124021">
    <tspan
       y="392.75049"
       x="-429.26001"
       id="tspan124023" />
  </text>
  <path
     d="M 363.50977 75.046875 L 511.99219 223.5293 L 511.99219 197.39648 L 408.11523 93.519531 C 408.15657 93.560848 408.19511 93.605053 408.23633 93.646484 L 408.10938 93.519531 C 396.69637 82.106531 380.92977 75.046875 363.50977 75.046875 z M 148.53906 75.050781 C 113.70706 75.050781 85.470703 103.29109 85.470703 138.12109 L 148.55078 201.20117 L 148.54102 201.20117 L 148.53906 201.20117 L 148.53516 201.19531 L 85.460938 138.12109 C 85.460938 155.53209 92.5195 171.30075 103.9375 182.71875 L 103.93945 182.7207 L 126.69922 205.48047 L 121.75 205.48047 C 77.226 205.48047 41 241.70047 41 286.23047 L 41 351.69141 L 41.1875 352.67773 L 200.49805 511.98828 L 485.99219 511.98828 C 500.38919 511.98828 511.99219 500.38528 511.99219 485.98828 L 511.99219 223.53125 L 363.50977 75.050781 C 329.00977 75.055781 301.01047 102.80169 300.48047 137.17969 L 325.42578 162.125 C 330.87935 170.81957 334.66762 180.65279 336.32617 191.19727 L 303.79883 158.66992 C 303.86755 158.73864 303.93159 158.81183 304 158.88086 L 303.78906 158.66992 C 292.37292 147.25378 276.59327 140.19637 259.17383 140.19531 L 259.16992 140.19141 C 253.25922 140.19141 247.54629 141.02041 242.12109 142.53906 L 193.12305 93.542969 L 193.08984 93.509766 C 181.6877 82.107623 165.94141 75.055747 148.54297 75.054688 L 148.53906 75.050781 z "
     id="path124027"
     style="opacity:0.25" />
  <path
     inkscape:connector-curvature="0"
     d="m 148.54,75.0505 c -34.832,0 -63.07,28.24 -63.07,63.07 0,34.817 28.24,63.07 63.07,63.07 12.337,0 23.787,-3.596 33.511,-9.729 3.091,-20.16 13.935,-37.818 29.375,-49.82 0.065,-1.181 0.141,-2.334 0.141,-3.525 0,-34.832 -28.21,-63.07 -63.03,-63.07 m 214.98,0 c -34.5,0.005 -62.5,27.752 -63.03,62.13 19.883,12.467 33.836,33.558 36.38,58.04 8.103,3.789 17.11,5.969 26.649,5.969 34.832,0 63.07,-28.25 63.07,-63.07 0,-34.832 -28.24,-63.07 -63.07,-63.07 m -104.34,65.14 c -34.832,0 -63.07,28.2 -63.07,63.03 0,34.832 28.25,63.07 63.07,63.07 34.832,0 63.07,-28.25 63.07,-63.07 0,-34.832 -28.25,-63.03 -63.07,-63.03 m -137.43,65.28 c -44.524,0 -80.75,36.22 -80.75,80.75 l 0,65.47 0.188,0.987 4.512,1.41 c 34.09,10.647 64.48,15.563 90.9,17.11 l 0,-19.74 c 0.011,-43.35 28.984,-80.06 68.57,-91.84 -14.274,-13.689 -23.31,-32.699 -23.97,-53.815 -1.969,-0.144 -3.916,-0.329 -5.922,-0.329 l -53.53,0 m 215.45,0 c -0.575,21.251 -9.678,40.38 -24.02,54.14 39.577,11.769 68.53,48.49 68.53,91.84 l 0,20.16 c 52.43,-1.927 82.66,-16.808 84.65,-17.813 l 4.23,-2.115 0.423,0 0,-65.47 c 0,-44.504 -36.19,-80.72 -80.7,-80.75 l -53.11,0 m -104.76,65.09 c -44.524,0 -80.75,36.28 -80.75,80.79 l 0,65.42 0.141,1.034 4.512,1.41 c 42.488,13.271 79.41,17.719 109.79,17.719 59.35,0 93.75,-16.923 95.88,-18 l 4.23,-2.162 0.423,0 0,-65.42 c 0.005,-44.52 -36.22,-80.79 -80.75,-80.79 l -53.49,0"
     style="fill:#ffffff"
     id="path124137" />
</svg>
