<?xml version="1.0" encoding="UTF-8" standalone="no"?>
<svg
   xmlns:dc="http://purl.org/dc/elements/1.1/"
   xmlns:cc="http://creativecommons.org/ns#"
   xmlns:rdf="http://www.w3.org/1999/02/22-rdf-syntax-ns#"
   xmlns:svg="http://www.w3.org/2000/svg"
   xmlns="http://www.w3.org/2000/svg"
   xmlns:sodipodi="http://sodipodi.sourceforge.net/DTD/sodipodi-0.dtd"
   xmlns:inkscape="http://www.inkscape.org/namespaces/inkscape"
   viewBox="0 0 512 512"
   id="svg2"
   version="1.1"
   inkscape:version="0.91+devel r13804 custom"
   sodipodi:docname="preferences-kcalc-constants.svg">
  <metadata
     id="metadata77">
    <rdf:RDF>
      <cc:Work
         rdf:about="">
        <dc:format>image/svg+xml</dc:format>
        <dc:type
           rdf:resource="http://purl.org/dc/dcmitype/StillImage" />
        <dc:title></dc:title>
      </cc:Work>
    </rdf:RDF>
  </metadata>
  <sodipodi:namedview
     pagecolor="#ffffff"
     bordercolor="#666666"
     borderopacity="1"
     objecttolerance="10"
     gridtolerance="10"
     guidetolerance="10"
     inkscape:pageopacity="0"
     inkscape:pageshadow="2"
     inkscape:window-width="1366"
     inkscape:window-height="709"
     id="namedview75"
     showgrid="false"
     inkscape:zoom="0.4609375"
     inkscape:cx="101.26319"
     inkscape:cy="157.28814"
     inkscape:window-x="-2"
     inkscape:window-y="-3"
     inkscape:window-maximized="1"
     inkscape:current-layer="svg2"
     showguides="true" />
  <defs
     id="defs4" />
  <text
     sodipodi:linespacing="125%"
     y="-46.576611"
     x="-143.14796"
     line-height="125%"
     style="font-size:129.22999573px;line-height:125%;font-family:'Gentium Book Basic';letter-spacing:0;word-spacing:0"
     id="text122901">
    <tspan
       y="-46.576611"
       x="-143.14796"
       id="tspan122903" />
  </text>
  <text
     transform="scale(4.0128205,0.24920128)"
     y="-536.02783"
     x="161.40662"
     style="font-size:46.95399857px;font-family:Arial;text-anchor:middle"
     id="text122905" />
  <text
     sodipodi:linespacing="125%"
     y="-126.57661"
     x="438.12201"
     line-height="125%"
     style="font-size:129.22999573px;line-height:125%;font-family:'Gentium Book Basic';letter-spacing:0;word-spacing:0"
     id="text122907">
    <tspan
       y="-126.57661"
       x="438.12201"
       id="tspan122909" />
  </text>
  <text
     transform="scale(4.0128205,0.24920128)"
     y="-857.06622"
     x="306.25586"
     style="font-size:46.95399857px;font-family:Arial;text-anchor:middle"
     id="text122911" />
  <text
     sodipodi:linespacing="125%"
     y="-307.83661"
     x="-633.45801"
     line-height="125%"
     style="font-size:129.22999573px;line-height:125%;font-family:'Gentium Book Basic';letter-spacing:0;word-spacing:0"
     id="text122913">
    <tspan
       y="-307.83661"
       x="-633.45801"
       id="tspan122915" />
  </text>
  <text
     transform="scale(4.0128205,0.24920128)"
     y="-1584.4125"
     x="39.217228"
     style="font-size:46.95399857px;font-family:Arial;text-anchor:middle"
     id="text122917" />
  <text
     sodipodi:linespacing="125%"
     y="-524.30664"
     x="464.59201"
     line-height="125%"
     style="font-size:129.22999573px;line-height:125%;font-family:'Gentium Book Basic';letter-spacing:0;word-spacing:0"
     id="text122919">
    <tspan
       y="-524.30664"
       x="464.59201"
       id="tspan122921" />
  </text>
  <text
     transform="scale(4.0128205,0.24920128)"
     y="-2453.0779"
     x="312.8558"
     style="font-size:46.95399857px;font-family:Arial;text-anchor:middle"
     id="text122923" />
  <text
     sodipodi:linespacing="125%"
     y="-604.30664"
     x="1045.8621"
     line-height="125%"
     style="font-size:129.22999573px;line-height:125%;font-family:'Gentium Book Basic';letter-spacing:0;word-spacing:0"
     id="text122925">
    <tspan
       y="-604.30664"
       x="1045.8621"
       id="tspan122927" />
  </text>
  <text
     transform="scale(4.0128205,0.24920128)"
     y="-2774.1064"
     x="457.70508"
     style="font-size:46.95399857px;font-family:Arial;text-anchor:middle"
     id="text122929" />
  <text
     sodipodi:linespacing="125%"
     y="-1076.7067"
     x="656.742"
     line-height="125%"
     style="font-size:129.22999573px;line-height:125%;font-family:'Gentium Book Basic';letter-spacing:0;word-spacing:0"
     id="text122931">
    <tspan
       y="-1076.7067"
       x="656.742"
       id="tspan122933" />
  </text>
  <text
     transform="scale(4.0128205,0.24920128)"
     y="-4669.7466"
     x="360.73557"
     style="font-size:46.95399857px;font-family:Arial;text-anchor:middle"
     id="text122935" />
  <text
     sodipodi:linespacing="125%"
     y="-1156.7167"
     x="1238.0021"
     line-height="125%"
     style="font-size:129.22999573px;line-height:125%;font-family:'Gentium Book Basic';letter-spacing:0;word-spacing:0"
     id="text122937">
    <tspan
       y="-1156.7167"
       x="1238.0021"
       id="tspan122939" />
  </text>
  <text
     transform="scale(4.0128205,0.24920128)"
     y="-4990.7852"
     x="505.58484"
     style="font-size:46.95399857px;font-family:Arial;text-anchor:middle"
     id="text122941" />
  <text
     sodipodi:linespacing="125%"
     y="258.00339"
     x="-594.79797"
     line-height="125%"
     style="font-size:208.33000183px;line-height:125%;font-family:'Gentium Book Basic';letter-spacing:0;word-spacing:0"
     id="text122943">
    <tspan
       y="258.00339"
       x="-594.79797"
       id="tspan122945" />
  </text>
  <g
     id="g123154"
     transform="translate(8.677848,-156.20339)">
    <path
       id="path122899"
       style="fill:#b93d48"
       d="m 17.322034,156.20339 c -14.3970001,0 -26.0000001,11.603 -26.0000001,26 l 0,460 c 0,14.397 11.603,26 26.0000001,26 l 459.999996,0 c 14.397,0 26,-11.603 26,-26 l 0,-460 c 0,-14.397 -11.603,-26 -26,-26 l -459.999996,0"
       inkscape:connector-curvature="0" />
    <path
       style="opacity:0.25"
       id="path122949"
       d="m 167.10156,200.0957 c -44.654,0 -60.36985,5.78936 -84.339841,28.94336 -23.149049,23.14905 -36.388144,47.12806 -50.4375,96.75391 l 0,0.002 c -4.02e-4,0.001 -0.0016,0.002 -0.002,0.004 l 115.937501,115.9375 -1.81836,15.52734 c -3.308,23.15 -14.05993,41.34947 -42.16993,66.98047 -25.634985,23.15 -33.080071,36.39008 -33.080071,54.58008 0,12.505 5.040125,23.95728 13.328125,32.23828 l 0.002,0 57.140626,57.14062 335.66016,0 c 14.397,0 26,-11.603 26,-26 l 0,-395.3164 -46.79102,-46.79102 -289.42969,0 z"
       inkscape:connector-curvature="0" />
    <path
       id="path123005"
       style="fill:#ffffff"
       d="m 48.862034,325.78339 c 27.29,-43 41.35,-52.09 81.039996,-52.09 l 38.04,0 -21.5,183.57 c -3.308,23.15 -14.06,41.35 -42.17,66.981 -25.634996,23.15 -33.079996,36.39 -33.079996,54.58 0,24.808 19.846,45.48 45.479996,45.48 25.635,0 45.48,-19.02 56.23,-54.58 7.443,-21.5 19.02,-105.84 26.461,-189.36 l 9.923,-106.67 90.13,0 c -9.923,65.33 -17.366,154.63 -17.366,201.77 0,92.61 31.423,148.85 81.87,148.85 32.25,0 61.19,-22.327 81.04,-61.19 11.577,-23.15 14.885,-38.865 17.366,-80.22 l -19.846,0 c -4.135,39.692 -19.846,60.37 -47.13,60.37 -16.538,0 -33.904,-11.577 -43,-28.943 -7.443,-14.885 -9.923,-28.12 -9.923,-55.4 0,-62.846 4.135,-139.74 9.923,-185.23 l 104.19,0 0,-73.59 -289.43,0 c -44.654,0 -60.37,5.789 -84.339996,28.943 -23.15,23.15 -36.39,47.13 -50.44,96.76 l 16.538,0"
       inkscape:connector-curvature="0" />
  </g>
</svg>
