<?xml version="1.0" encoding="UTF-8" standalone="no"?>
<svg
   xmlns:dc="http://purl.org/dc/elements/1.1/"
   xmlns:cc="http://creativecommons.org/ns#"
   xmlns:rdf="http://www.w3.org/1999/02/22-rdf-syntax-ns#"
   xmlns:svg="http://www.w3.org/2000/svg"
   xmlns="http://www.w3.org/2000/svg"
   xmlns:sodipodi="http://sodipodi.sourceforge.net/DTD/sodipodi-0.dtd"
   xmlns:inkscape="http://www.inkscape.org/namespaces/inkscape"
   viewBox="0 0 512 512"
   id="svg2"
   version="1.1"
   inkscape:version="0.91+devel r13804 custom"
   sodipodi:docname="pychess.svg">
  <metadata
     id="metadata77">
    <rdf:RDF>
      <cc:Work
         rdf:about="">
        <dc:format>image/svg+xml</dc:format>
        <dc:type
           rdf:resource="http://purl.org/dc/dcmitype/StillImage" />
        <dc:title />
      </cc:Work>
    </rdf:RDF>
  </metadata>
  <sodipodi:namedview
     pagecolor="#ffffff"
     bordercolor="#666666"
     borderopacity="1"
     objecttolerance="10"
     gridtolerance="10"
     guidetolerance="10"
     inkscape:pageopacity="0"
     inkscape:pageshadow="2"
     inkscape:window-width="1366"
     inkscape:window-height="709"
     id="namedview75"
     showgrid="false"
     inkscape:zoom="0.32593203"
     inkscape:cx="-183.49369"
     inkscape:cy="256.78672"
     inkscape:window-x="-2"
     inkscape:window-y="0"
     inkscape:window-maximized="0"
     inkscape:current-layer="svg2"
     showguides="true" />
  <defs
     id="defs4">
    <path
       style="fill:#fff"
       id="0"
       d="m350.45 319.42v-94.57h-3.967v53.54c0 5.293-.771 10.322-2.35 15.06-1.579 4.813-3.967 9.03-7.126 12.738-3.046 3.563-6.863 6.468-11.497 8.668-4.588 2.096-9.956 3.121-16.01 3.121-4.371 0-8.517-.62-12.485-1.73-3.817-1.25-7.239-3.01-10.285-5.547-2.905-2.538-5.218-5.688-6.9-9.551-1.73-3.93-1.871-8.781-1.871-14.318l-3.892.62c0 1.467 0 3.121 0 4.484.216 3.779.555 7.239 1.796 10.388 1.833 4.118 4.334 7.643 7.53 10.689 3.272 2.792 7.126 4.954 11.46 6.43 4.484 1.363 9.363 2.02 14.656 2.02 10.02 0 18.14-2.388 24.349-7.164 6.317-4.813 10.388-10.868 12.268-18.247h.367v23.39h3.93" />
    <path
       style="fill:#fff"
       id="1"
       d="m266.25 199.7h3.779c0-22.656 20.344-34.521 40.43-34.521 10.209 0 19.611 3.01 26.473 8.48 7.746 6.205 11.826 15.201 11.826 26.04h3.779c0-11.902-4.55-21.81-13.14-28.682-7.568-6.06-17.843-9.363-28.936-9.363-21.961 0-44.21 13.08-44.21 38.05" />
    <path
       style="fill:#fff"
       id="2"
       d="m306.11 197.69c0-2.313 2.059-4.221 4.55-4.221 2.501 0 4.512 1.908 4.512 4.221 0 2.35-2.02 4.221-4.512 4.221-2.538 0-4.55-1.871-4.55-4.221" />
    <clipPath
       id="3">
      <path
         id="path177367"
         d="m47 24c0 12.708-10.304 23-23 23-12.696 0-23-10.292-23-23 0-12.708 10.304-23 23-23 12.696 0 23 10.292 23 23" />
    </clipPath>
    <clipPath
       id="0-5">
      <path
         id="path215574"
         d="m26 0c-14.397 0-26 11.603-26 26v460c0 14.397 11.603 26 26 26h460c14.397 0 26-11.603 26-26v-460c0-14.397-11.603-26-26-26h-460" />
    </clipPath>
    <clipPath
       id="0-6">
      <path
         id="path216298"
         d="m26 0c-14.397 0-26 11.603-26 26v460c0 14.397 11.603 26 26 26h460c14.397 0 26-11.603 26-26v-460c0-14.397-11.603-26-26-26h-460" />
    </clipPath>
    <clipPath
       id="0-2">
      <path
         id="path216855"
         d="m26 0c-14.397 0-26 11.603-26 26v460c0 14.397 11.603 26 26 26h460c14.397 0 26-11.603 26-26v-460c0-14.397-11.603-26-26-26h-460" />
    </clipPath>
  </defs>
  <path
     inkscape:connector-curvature="0"
     d="m 26,-3.3e-4 c -14.397,0 -26,11.603 -26,26 l 0,460 c 0,14.397 11.603,26 26,26 l 460,0 c 14.397,0 26,-11.603 26,-26 l 0,-460 c 0,-14.397 -11.603,-26 -26,-26 l -460,0"
     style="fill:#68af4c"
     id="path216857" />
  <path
     inkscape:connector-curvature="0"
     d="m 256.04014,57.52919 c -7.47809,-0.0125 -14.96011,3.63566 -19.5293,10.94141 l 0,0.002 c -2.426,3.879 -2.75,5.19397 -2.75,11.16797 l 27.13867,27.13862 c 7.5e-4,0.004 10e-4,0.0112 0.002,0.0156 L 233.75303,79.64638 c 0,5.791 0.36558,7.37942 2.51758,10.98242 l 0.0215,0.0215 c 1.03059,1.72006 2.26095,3.29221 3.64843,4.67969 l 0.0723,0.0723 c -0.0236,-0.0234 -0.0487,-0.0448 -0.0723,-0.0684 l 11.20507,11.20508 c -1.20046,7.19114 -4.43908,25.60244 -8.38477,47.87109 L 170.43076,82.07999 c 0.022,0.022 0.0425,0.0462 0.0644,0.0684 l -0.0684,-0.0684 c -10.142,-10.142 -27.47465,-8.71847 -35.59766,4.26953 l 30.57227,30.57226 -0.002,0.002 -30.57031,-30.57031 c -2.426,3.879 -2.75,5.19202 -2.75,11.16602 l 0.004,0.004 c 1.7e-4,5.81149 0.36018,7.36977 2.55664,11.04687 l 0.002,0.002 c 0.94142,1.57378 2.12346,3.06291 3.46875,4.4082 0.0104,0.0104 0.0208,0.0209 0.0312,0.0312 l 14.17773,14.17774 c -0.41517,8.33268 -1.75012,32.3856 -3.29101,59.77539 l -69.07422,-69.07227 -0.0332,-0.0332 c -1.45097,-1.45097 -3.19723,-2.74029 -5.32618,-3.97461 l -0.0156,-0.0156 c -3.584,-2.072 -5.2473,-2.43945 -11.0293,-2.43945 -5.786,0 -7.44929,0.36845 -11.02929,2.43945 l -0.002,0 c -5.474,3.167 -8.41389,6.69163 -10.33789,12.39062 l -0.002,-0.002 c -2.736,8.109 -0.55938,16.09101 4.89062,21.54101 l 21.38086,21.37891 7.01953,55.26172 -0.002,0 c 4.842,38.079 9.28205,73.10307 9.87305,77.83008 l 0.004,0.006 1.07422,8.59375 0.0215,0.0215 16.28906,19.5293 c 8.96,10.75 17.07553,21.00129 18.01953,22.77929 l 101.20312,101.20313 -0.004,0 -101.20312,-101.20313 c 2.84187,5.34987 17.22292,38.09253 17.23437,39.23828 l 0,0.002 c -0.006,0.5864 -3.89922,9.86293 -8.6582,20.6289 l -0.002,-0.002 c -4.761,10.776 -8.41991,19.97159 -8.1289,20.43359 l 0.008,0.008 c 0.045,0.072 0.11217,0.15318 0.20117,0.24218 l 78.25,78.25 286.3496,0 c 14.397,0 26,-11.603 26,-26 l 0,-320.97265 -47.16797,-47.16796 -0.002,0 c -1.4568,-1.4566 -3.2091,-2.75152 -5.34961,-3.99024 -3.584,-2.072 -5.2473,-2.43945 -11.02929,-2.43945 -5.7774,4.5e-4 -7.44174,0.36972 -11.01954,2.43945 l -0.002,0 c -5.47399,3.167 -8.41389,6.69163 -10.33788,12.39062 l -0.002,-0.002 c -0.8975,2.65706 -1.2204,5.39837 -1.04687,8.08398 l -52.26145,-52.262 c 0.022,0.022 0.0425,0.0462 0.0644,0.0684 l -0.0684,-0.0684 c -10.14199,-10.142 -27.47271,-8.71847 -35.5957,4.26953 l 30.58408,30.58398 -0.002,0.002 -30.58203,-30.58203 c -2.433,3.889 -2.75,5.18633 -2.75,11.23633 l 0,0.002 c 0,6.043 0.31828,7.35328 2.73828,11.23828 l 0.0293,0.0293 c 0.83286,1.32967 1.9972,2.7472 3.30079,4.05078 0.0137,0.0137 0.0273,0.0274 0.041,0.041 l 7.92577,7.92578 -5.3711,15.31054 -71.98826,-71.98832 c -4.43711,-4.43713 -10.25011,-6.66024 -16.0664,-6.66993 z"
     id="path216907"
     style="opacity:0.25" />
  <path
     inkscape:connector-curvature="0"
     d="m 191.47,453.97967 c -18.796,-1.296 -36.27,-4.889 -50.28,-10.339 -8.481,-3.297 -19.07,-8.666 -19.993,-10.138 -0.291,-0.462 3.369,-9.657 8.13,-20.433 4.763,-10.775 8.66,-20.06 8.66,-20.634 0,-1.121 -14.392,-33.888 -17.235,-39.24 -0.944,-1.778 -9.06,-12.03 -18.02,-22.78 l -16.309,-19.552 -1.076,-8.594 c -0.591,-4.727 -5.03,-39.751 -9.872,-77.83 l -8.796,-69.23 -5.171,-0.636 c -14.93,-1.835 -23.847,-14.902 -19.321,-28.312 1.924,-5.699 4.865,-9.224 10.339,-12.391 3.58,-2.071 5.244,-2.44 11.03,-2.44 5.782,0 7.446,0.368 11.03,2.44 5.474,3.168 8.415,6.691 10.339,12.391 3.285,9.732 -0.992,20.617 -10.06,25.614 -1.049,0.578 5.666,14.86 33.3,70.825 19.04,38.553 34.677,70.17 34.737,70.26 0.186,0.248 9.716,-167.77 9.668,-170.48 -0.036,-2.01 -0.602,-2.489 -3.946,-3.318 -5.42,-1.343 -10.939,-5.531 -13.965,-10.594 -2.197,-3.678 -2.557,-5.235 -2.557,-11.05 0,-5.974 0.324,-7.288 2.75,-11.167 9.123,-14.587 29.861,-14.587 38.984,0 2.432,3.889 2.75,5.186 2.75,11.237 0,6.05 -0.32,7.353 -2.74,11.238 -1.636,2.624 -4.584,5.596 -7.315,7.371 l -4.575,2.973 28.645,81.67 c 15.75601,44.922 28.85201,81.67 29.10001,81.67 0.315,0 30.09,-166.66 32.12,-179.85 0.061,-0.398 -1.421,-1.254 -3.295,-1.906 -5.01,-1.739 -9.386,-5.366 -12.234,-10.133 -2.152,-3.603 -2.516,-5.193 -2.516,-10.984 0,-5.974 0.32399,-7.288 2.75,-11.167 9.123,-14.587 29.861,-14.587 38.984,0 2.426,3.879 2.75,5.193 2.75,11.167 0,5.791 -0.365,7.381 -2.516,10.984 -2.848,4.767 -7.225,8.394 -12.234,10.133 -1.873,0.651 -3.355,1.516 -3.295,1.906 2.03899,13.179 31.81099,179.85 32.11999,179.85 0.252,0 13.349,-36.754 29.10001,-81.67 l 28.645,-81.67 -4.575,-2.973 c -2.731,-1.775 -5.681,-4.746 -7.317,-7.371 -2.42,-3.885 -2.74,-5.195 -2.74,-11.238 0,-6.05 0.317,-7.348 2.75,-11.237 9.123,-14.587 29.861,-14.587 38.98399,0 2.42601,3.879 2.75,5.193 2.75,11.167 0,5.816 -0.35999,7.374 -2.55699,11.05 -3.03,5.067 -8.54401,9.255 -13.96501,10.594 -3.343,0.828 -3.90999,1.305 -3.94599,3.318 -0.048,2.693 9.482,170.72 9.668,170.48 0.067,-0.09 15.7,-31.706 34.73699,-70.26 27.637,-55.955 34.35,-70.24 33.3,-70.825 -9.08,-4.997 -13.35,-15.882 -10.06,-25.614 1.924,-5.699 4.865,-9.224 10.339,-12.391 3.58,-2.071 5.244,-2.44 11.03,-2.44 5.782,0 7.446,0.368 11.03,2.44 5.474,3.168 8.415,6.691 10.339,12.391 4.532,13.41 -4.391,26.477 -19.321,28.312 l -5.171,0.636 -8.796,69.23 c -4.838,38.08 -9.281,73.1 -9.872,77.83 l -1.076,8.594 -16.309,19.552 c -8.96999,10.751 -17.07999,21 -18.01999,22.78 -2.845,5.355 -17.235,38.12 -17.235,39.24 0,0.573 3.897,9.859 8.66,20.634 4.763,10.775 8.421,19.971 8.13,20.433 -2.083,3.316 -23.914,12.318 -37.946,15.645 -20.331,4.821 -24.397,5.06 -90.51,5.285 -33.704,0.117 -65.60001,-0.089 -70.88501,-0.452 z"
     style="fill:#ffffff"
     id="path217091" />
</svg>
