<?xml version="1.0" encoding="UTF-8" standalone="no"?>
<svg
   xmlns:dc="http://purl.org/dc/elements/1.1/"
   xmlns:cc="http://creativecommons.org/ns#"
   xmlns:rdf="http://www.w3.org/1999/02/22-rdf-syntax-ns#"
   xmlns:svg="http://www.w3.org/2000/svg"
   xmlns="http://www.w3.org/2000/svg"
   xmlns:sodipodi="http://sodipodi.sourceforge.net/DTD/sodipodi-0.dtd"
   xmlns:inkscape="http://www.inkscape.org/namespaces/inkscape"
   viewBox="0 0 512 512"
   id="svg2"
   version="1.1"
   inkscape:version="0.91+devel r13804 custom"
   sodipodi:docname="q4wine.svg">
  <metadata
     id="metadata77">
    <rdf:RDF>
      <cc:Work
         rdf:about="">
        <dc:format>image/svg+xml</dc:format>
        <dc:type
           rdf:resource="http://purl.org/dc/dcmitype/StillImage" />
        <dc:title></dc:title>
      </cc:Work>
    </rdf:RDF>
  </metadata>
  <sodipodi:namedview
     pagecolor="#ffffff"
     bordercolor="#666666"
     borderopacity="1"
     objecttolerance="10"
     gridtolerance="10"
     guidetolerance="10"
     inkscape:pageopacity="0"
     inkscape:pageshadow="2"
     inkscape:window-width="1366"
     inkscape:window-height="709"
     id="namedview75"
     showgrid="false"
     inkscape:zoom="0.32593203"
     inkscape:cx="-11.678728"
     inkscape:cy="95.710196"
     inkscape:window-x="-2"
     inkscape:window-y="-3"
     inkscape:window-maximized="1"
     inkscape:current-layer="svg2"
     showguides="true" />
  <defs
     id="defs4">
    <path
       style="fill:#fff"
       id="0"
       d="m350.45 319.42v-94.57h-3.967v53.54c0 5.293-.771 10.322-2.35 15.06-1.579 4.813-3.967 9.03-7.126 12.738-3.046 3.563-6.863 6.468-11.497 8.668-4.588 2.096-9.956 3.121-16.01 3.121-4.371 0-8.517-.62-12.485-1.73-3.817-1.25-7.239-3.01-10.285-5.547-2.905-2.538-5.218-5.688-6.9-9.551-1.73-3.93-1.871-8.781-1.871-14.318l-3.892.62c0 1.467 0 3.121 0 4.484.216 3.779.555 7.239 1.796 10.388 1.833 4.118 4.334 7.643 7.53 10.689 3.272 2.792 7.126 4.954 11.46 6.43 4.484 1.363 9.363 2.02 14.656 2.02 10.02 0 18.14-2.388 24.349-7.164 6.317-4.813 10.388-10.868 12.268-18.247h.367v23.39h3.93" />
    <path
       style="fill:#fff"
       id="1"
       d="m266.25 199.7h3.779c0-22.656 20.344-34.521 40.43-34.521 10.209 0 19.611 3.01 26.473 8.48 7.746 6.205 11.826 15.201 11.826 26.04h3.779c0-11.902-4.55-21.81-13.14-28.682-7.568-6.06-17.843-9.363-28.936-9.363-21.961 0-44.21 13.08-44.21 38.05" />
    <path
       style="fill:#fff"
       id="2"
       d="m306.11 197.69c0-2.313 2.059-4.221 4.55-4.221 2.501 0 4.512 1.908 4.512 4.221 0 2.35-2.02 4.221-4.512 4.221-2.538 0-4.55-1.871-4.55-4.221" />
    <clipPath
       id="3">
      <path
         id="path177367"
         d="m47 24c0 12.708-10.304 23-23 23-12.696 0-23-10.292-23-23 0-12.708 10.304-23 23-23 12.696 0 23 10.292 23 23" />
    </clipPath>
    <clipPath
       id="0-5">
      <path
         id="path215574"
         d="m26 0c-14.397 0-26 11.603-26 26v460c0 14.397 11.603 26 26 26h460c14.397 0 26-11.603 26-26v-460c0-14.397-11.603-26-26-26h-460" />
    </clipPath>
    <clipPath
       id="0-6">
      <path
         id="path216298"
         d="m26 0c-14.397 0-26 11.603-26 26v460c0 14.397 11.603 26 26 26h460c14.397 0 26-11.603 26-26v-460c0-14.397-11.603-26-26-26h-460" />
    </clipPath>
    <clipPath
       id="0-2">
      <path
         id="path216855"
         d="m26 0c-14.397 0-26 11.603-26 26v460c0 14.397 11.603 26 26 26h460c14.397 0 26-11.603 26-26v-460c0-14.397-11.603-26-26-26h-460" />
    </clipPath>
    <clipPath
       id="0-3">
      <path
         id="path217709"
         d="m26 0c-14.397 0-26 11.603-26 26v460c0 14.397 11.603 26 26 26h460c14.397 0 26-11.603 26-26v-460c0-14.397-11.603-26-26-26h-460" />
    </clipPath>
    <clipPath
       id="0-9">
      <path
         id="path218385"
         d="m26 0c-14.397 0-26 11.603-26 26v460c0 14.397 11.603 26 26 26h460c14.397 0 26-11.603 26-26v-460c0-14.397-11.603-26-26-26h-460" />
    </clipPath>
    <path
       style="fill:#fff"
       id="0-62"
       d="m350.45 319.42v-94.57h-3.967v53.54c0 5.293-.771 10.322-2.35 15.06-1.579 4.813-3.967 9.03-7.126 12.738-3.046 3.563-6.863 6.468-11.497 8.668-4.588 2.096-9.956 3.121-16.01 3.121-4.371 0-8.517-.62-12.485-1.73-3.817-1.25-7.239-3.01-10.285-5.547-2.905-2.538-5.218-5.688-6.9-9.551-1.73-3.93-1.871-8.781-1.871-14.318l-3.892.62c0 1.467 0 3.121 0 4.484.216 3.779.555 7.239 1.796 10.388 1.833 4.118 4.334 7.643 7.53 10.689 3.272 2.792 7.126 4.954 11.46 6.43 4.484 1.363 9.363 2.02 14.656 2.02 10.02 0 18.14-2.388 24.349-7.164 6.317-4.813 10.388-10.868 12.268-18.247h.367v23.39h3.93" />
    <path
       style="fill:#fff"
       id="1-2"
       d="m266.25 199.7h3.779c0-22.656 20.344-34.521 40.43-34.521 10.209 0 19.611 3.01 26.473 8.48 7.746 6.205 11.826 15.201 11.826 26.04h3.779c0-11.902-4.55-21.81-13.14-28.682-7.568-6.06-17.843-9.363-28.936-9.363-21.961 0-44.21 13.08-44.21 38.05" />
    <path
       style="fill:#fff"
       id="2-6"
       d="m306.11 197.69c0-2.313 2.059-4.221 4.55-4.221 2.501 0 4.512 1.908 4.512 4.221 0 2.35-2.02 4.221-4.512 4.221-2.538 0-4.55-1.871-4.55-4.221" />
    <clipPath
       id="3-2">
      <path
         id="path218955"
         d="m47 24c0 12.708-10.304 23-23 23-12.696 0-23-10.292-23-23 0-12.708 10.304-23 23-23 12.696 0 23 10.292 23 23" />
    </clipPath>
  </defs>
  <g
     id="g244402"
     transform="translate(-336.148,452.73672)">
    <path
       id="path218960"
       style="fill:#98d53b"
       d="m 362.14775,-452.73679 c -14.397,0 -26,11.603 -26,26 l 0,460.000003 c 0,14.397 11.603,26 26,26 l 460,0 c 14.397,0 26,-11.603 26,-26 l 0,-460.000003 c 0,-14.397 -11.603,-26 -26,-26 l -460,0"
       inkscape:connector-curvature="0" />
    <path
       style="opacity:0.25"
       id="path231598"
       d="m 609.31812,-411.7368 c -12.13,-0.034 -21.45064,1.95566 -25.30664,6.22266 l 0.006,0.008 c -6.114,6.77101 -20.18991,57.26945 -37.75391,134.43945 l 99.72656,99.72657 c -8.7e-4,0.001 -10e-4,0.003 -0.002,0.004 l -99.73056,-99.73076 c -12.674,55.53 -3.8807,87.91999 4.7793,105.25001 11.07,22.15999 19.70117,35.48121 2.20117,79.699213 -12.674,32.03 -25.60619,38.16164 -37.61719,39.68164 l 60.9668,60.9668 c -0.002,-4.3e-4 -0.004,-0.002 -0.006,-0.002 l -60.96484,-60.96485 c -28.944,-6.961 -50.78568,-7.21081 -53.63868,0.61719 l 0.008,0.008 c -1.15235,3.17425 0.93622,7.31513 5.60937,11.98829 l 0.2207,0.2207 c -0.0716,-0.0707 -0.15805,-0.14438 -0.22851,-0.21484 l 93.08008,93.08007 261.48047,0 c 14.397,0 26,-11.603 26,-26 l 0,-274.029293 -134.53125,-134.53125 c -22.772,-22.772 -72.91807,-36.36946 -104.28907,-36.43946 l 10.47266,10.47266 c -0.003,-2.6e-4 -0.006,2.6e-4 -0.01,0 l -10.47265,-10.47266 z"
       inkscape:connector-curvature="0" />
    <path
       id="path231648"
       style="fill:#ffffff"
       d="m 609.31775,-411.73679 c -12.13,-0.034 -21.451,1.956 -25.307,6.223 -6.114,6.771 -20.19,57.27 -37.754,134.44 -12.674,55.53 -3.88,87.92 4.78,105.25 11.07,22.16 19.701,35.482 2.201,79.700003 -12.674,32.03 -25.606,38.16 -37.617,39.68 -28.944,-6.961 -50.787,-7.21 -53.64,0.618 -3.903,10.709 29.12,32.416 73.72,48.4799999 44.597,16.0700001 83.983,20.4390001 87.89,9.7310001 2.861,-7.8550001 -14.193,-21.6340001 -41.06,-34.763 -11.793,-12.151 -22.371,-20.613 -13.03,-58.25 18.268,-73.620003 46.14,-48.320003 78.987,-94.080003 27.861,-38.817 35.24,-68.6 51.37,-114.09 17.1,-48.2 24.597,-70.52 22.384,-74.925 -14.902,-29.679 -76.54,-47.952 -112.92,-48.04 m 2.511,10.111 c 13.554,0.125 30.785,3.077 44.769,8.08 29.964,10.723 57.01,25.707 55.43,34.694 -4.01,22.705 -12.765,41.25 -14.992,47.657 -29.31,-28.345 -66.945,56.25 -127.3,-13.753 0,0 11.54,-44.47 19.496,-69.834 1.519,-4.847 10.63,-6.948 22.59,-6.843"
       inkscape:connector-curvature="0" />
  </g>
</svg>
