<?xml version="1.0" encoding="UTF-8" standalone="no"?>
<svg
   xmlns:dc="http://purl.org/dc/elements/1.1/"
   xmlns:cc="http://creativecommons.org/ns#"
   xmlns:rdf="http://www.w3.org/1999/02/22-rdf-syntax-ns#"
   xmlns:svg="http://www.w3.org/2000/svg"
   xmlns="http://www.w3.org/2000/svg"
   xmlns:sodipodi="http://sodipodi.sourceforge.net/DTD/sodipodi-0.dtd"
   xmlns:inkscape="http://www.inkscape.org/namespaces/inkscape"
   viewBox="0 0 512 512"
   id="svg2"
   version="1.1"
   inkscape:version="0.91+devel r13804 custom"
   sodipodi:docname="qcomicbook.svg">
  <metadata
     id="metadata12711">
    <rdf:RDF>
      <cc:Work
         rdf:about="">
        <dc:format>image/svg+xml</dc:format>
        <dc:type
           rdf:resource="http://purl.org/dc/dcmitype/StillImage" />
      </cc:Work>
    </rdf:RDF>
  </metadata>
  <sodipodi:namedview
     pagecolor="#ffffff"
     bordercolor="#666666"
     borderopacity="1"
     objecttolerance="10"
     gridtolerance="10"
     guidetolerance="10"
     inkscape:pageopacity="0"
     inkscape:pageshadow="2"
     inkscape:window-width="1366"
     inkscape:window-height="709"
     id="namedview12709"
     showgrid="false"
     inkscape:zoom="0.4609375"
     inkscape:cx="-8.6779661"
     inkscape:cy="237.55932"
     inkscape:window-x="-2"
     inkscape:window-y="-3"
     inkscape:window-maximized="1"
     inkscape:current-layer="svg2" />
  <defs
     id="defs4">
    <path
       id="5"
       fill="#fff"
       d="m350.45 319.42v-94.57h-3.967v53.54c0 5.293-0.771 10.322-2.35 15.06-1.579 4.813-3.967 9.03-7.126 12.738-3.046 3.563-6.863 6.468-11.497 8.668-4.588 2.096-9.956 3.121-16.01 3.121-4.371 0-8.517-0.62-12.485-1.73-3.817-1.25-7.239-3.01-10.285-5.547-2.905-2.538-5.218-5.688-6.9-9.551-1.73-3.93-1.871-8.781-1.871-14.318l-3.892 0.62v4.484c0.216 3.779 0.555 7.239 1.796 10.388 1.833 4.118 4.334 7.643 7.53 10.689 3.272 2.792 7.126 4.954 11.46 6.43 4.484 1.363 9.363 2.02 14.656 2.02 10.02 0 18.14-2.388 24.349-7.164 6.317-4.813 10.388-10.868 12.268-18.247h0.367v23.39h3.93" />
    <path
       id="6"
       fill="#fff"
       d="m266.25 199.7h3.779c0-22.656 20.344-34.521 40.43-34.521 10.209 0 19.611 3.01 26.473 8.48 7.746 6.205 11.826 15.201 11.826 26.04h3.779c0-11.902-4.55-21.81-13.14-28.682-7.568-6.06-17.843-9.363-28.936-9.363-21.961 0-44.21 13.08-44.21 38.05" />
    <path
       id="7"
       fill="#fff"
       d="m306.11 197.69c0-2.313 2.059-4.221 4.55-4.221 2.501 0 4.512 1.908 4.512 4.221 0 2.35-2.02 4.221-4.512 4.221-2.538 0-4.55-1.871-4.55-4.221" />
    <clipPath
       id="2">
      <path
         stroke-width="15.333"
         d="m47 24c0 12.708-10.304 23-23 23s-23-10.292-23-23 10.304-23 23-23 23 10.292 23 23"
         fill="#1890d0"
         id="path10" />
    </clipPath>
    <clipPath
       id="1">
      <path
         stroke-width="15.333"
         d="m47 24c0 12.708-10.304 23-23 23s-23-10.292-23-23 10.304-23 23-23 23 10.292 23 23"
         fill="#1890d0"
         id="path13" />
    </clipPath>
    <clipPath
       id="4">
      <path
         stroke-width="15.333"
         d="m47 24c0 12.708-10.304 23-23 23s-23-10.292-23-23 10.304-23 23-23 23 10.292 23 23"
         fill="#1890d0"
         id="path16" />
    </clipPath>
    <clipPath
       id="3">
      <path
         stroke-width="15.333"
         d="m47 24c0 12.708-10.304 23-23 23s-23-10.292-23-23 10.304-23 23-23 23 10.292 23 23"
         fill="#1890d0"
         id="path19" />
    </clipPath>
  </defs>
  <g
     id="g16060"
     transform="translate(329.76271,-301.55932)">
    <path
       id="path21"
       d="m -303.76271,301.55932 c -14.397,0 -26,11.603 -26,26 l 0,460 c 0,14.397 11.603,26 26,26 l 460,0 c 14.397,0 26,-11.603 26,-26 l 0,-460 c 0,-14.397 -11.603,-26 -26,-26 l -460,0"
       style="fill:#8a704d"
       inkscape:connector-curvature="0" />
    <path
       id="path23"
       d="m -85.702712,342.43432 c -1.511,0.007 -3.02,0.048 -4.531,0.094 -101.029998,-0.242 -190.679998,92.25 -187.249998,193.31 -0.731,58.726 30.98,112.04 73.56,150.34 42.535,42.37 84.932,84.88 127.339998,127.38 l 232.810002,0 c 14.397,0 26,-11.603 26,-26 l 0,-256.37 c -46.555,-46.591 -93.160002,-93.14 -139.970002,-139.47 -34.7919999,-31.27 -81.12,-49.49 -127.97,-49.28"
       style="opacity:0.25;fill-rule:evenodd"
       inkscape:connector-curvature="0" />
    <path
       id="path12707"
       d="m -85.762712,342.55932 c -105.689998,0 -191.389998,85.7 -191.389998,191.39 0,105.69 85.7,191.35 191.389998,191.35 16.402,0 32.28,-2.075 47.48,-5.956 36.5920001,50.662 110.1,67.65 167.920002,40.07 -43.990002,-10.08 -84.850002,-34.857 -101.780002,-71.48 47.18,-34.854 77.780002,-90.83 77.780002,-153.99 0,-105.69 -85.700002,-191.39 -191.390002,-191.39 m -5.387,49.01 c 78.33,-0.957 142.57,61.775 143.52,140.11 0.58,47.45 -22.17,89.75 -57.6369999,115.93 l 29.2599999,49.27 -42.79,25.402 -31.23,-52.6 c -11.972,3.453 -24.602,5.359 -37.666,5.518 -78.329998,0.957 -142.649998,-61.732 -143.609998,-140.06 -0.957,-78.33 61.819,-142.61 140.149998,-143.57 m 0.482,41.3 c -55.509998,0.678 -99.919998,46.23 -99.239998,101.74 0.678,55.51 46.19,99.97 101.699998,99.29 5.478,-0.067 10.844,-0.538 16.07,-1.445 l -22.818,-38.454 42.79,-25.402 25.665,43.18 c 23.2400001,-18.684 37.97,-47.49 37.578,-79.62 -0.678,-55.51 -46.23,-99.97 -101.74,-99.29"
       style="fill:#ffffff;fill-rule:evenodd"
       inkscape:connector-curvature="0" />
  </g>
</svg>
