<?xml version="1.0" encoding="UTF-8" standalone="no"?>
<svg
   xmlns:dc="http://purl.org/dc/elements/1.1/"
   xmlns:cc="http://creativecommons.org/ns#"
   xmlns:rdf="http://www.w3.org/1999/02/22-rdf-syntax-ns#"
   xmlns:svg="http://www.w3.org/2000/svg"
   xmlns="http://www.w3.org/2000/svg"
   xmlns:sodipodi="http://sodipodi.sourceforge.net/DTD/sodipodi-0.dtd"
   xmlns:inkscape="http://www.inkscape.org/namespaces/inkscape"
   viewBox="0 0 512 512"
   id="svg2"
   version="1.1"
   inkscape:version="0.91+devel r13804 custom"
   sodipodi:docname="qdbusviewer.svg">
  <metadata
     id="metadata77">
    <rdf:RDF>
      <cc:Work
         rdf:about="">
        <dc:format>image/svg+xml</dc:format>
        <dc:type
           rdf:resource="http://purl.org/dc/dcmitype/StillImage" />
        <dc:title></dc:title>
      </cc:Work>
    </rdf:RDF>
  </metadata>
  <sodipodi:namedview
     pagecolor="#ffffff"
     bordercolor="#666666"
     borderopacity="1"
     objecttolerance="10"
     gridtolerance="10"
     guidetolerance="10"
     inkscape:pageopacity="0"
     inkscape:pageshadow="2"
     inkscape:window-width="1366"
     inkscape:window-height="709"
     id="namedview75"
     showgrid="false"
     inkscape:zoom="0.32593203"
     inkscape:cx="-11.678728"
     inkscape:cy="95.710196"
     inkscape:window-x="-2"
     inkscape:window-y="-3"
     inkscape:window-maximized="1"
     inkscape:current-layer="svg2"
     showguides="true" />
  <defs
     id="defs4">
    <path
       style="fill:#fff"
       id="0"
       d="m350.45 319.42v-94.57h-3.967v53.54c0 5.293-.771 10.322-2.35 15.06-1.579 4.813-3.967 9.03-7.126 12.738-3.046 3.563-6.863 6.468-11.497 8.668-4.588 2.096-9.956 3.121-16.01 3.121-4.371 0-8.517-.62-12.485-1.73-3.817-1.25-7.239-3.01-10.285-5.547-2.905-2.538-5.218-5.688-6.9-9.551-1.73-3.93-1.871-8.781-1.871-14.318l-3.892.62c0 1.467 0 3.121 0 4.484.216 3.779.555 7.239 1.796 10.388 1.833 4.118 4.334 7.643 7.53 10.689 3.272 2.792 7.126 4.954 11.46 6.43 4.484 1.363 9.363 2.02 14.656 2.02 10.02 0 18.14-2.388 24.349-7.164 6.317-4.813 10.388-10.868 12.268-18.247h.367v23.39h3.93" />
    <path
       style="fill:#fff"
       id="1"
       d="m266.25 199.7h3.779c0-22.656 20.344-34.521 40.43-34.521 10.209 0 19.611 3.01 26.473 8.48 7.746 6.205 11.826 15.201 11.826 26.04h3.779c0-11.902-4.55-21.81-13.14-28.682-7.568-6.06-17.843-9.363-28.936-9.363-21.961 0-44.21 13.08-44.21 38.05" />
    <path
       style="fill:#fff"
       id="2"
       d="m306.11 197.69c0-2.313 2.059-4.221 4.55-4.221 2.501 0 4.512 1.908 4.512 4.221 0 2.35-2.02 4.221-4.512 4.221-2.538 0-4.55-1.871-4.55-4.221" />
    <clipPath
       id="3">
      <path
         id="path177367"
         d="m47 24c0 12.708-10.304 23-23 23-12.696 0-23-10.292-23-23 0-12.708 10.304-23 23-23 12.696 0 23 10.292 23 23" />
    </clipPath>
    <clipPath
       id="0-5">
      <path
         id="path215574"
         d="m26 0c-14.397 0-26 11.603-26 26v460c0 14.397 11.603 26 26 26h460c14.397 0 26-11.603 26-26v-460c0-14.397-11.603-26-26-26h-460" />
    </clipPath>
    <clipPath
       id="0-6">
      <path
         id="path216298"
         d="m26 0c-14.397 0-26 11.603-26 26v460c0 14.397 11.603 26 26 26h460c14.397 0 26-11.603 26-26v-460c0-14.397-11.603-26-26-26h-460" />
    </clipPath>
    <clipPath
       id="0-2">
      <path
         id="path216855"
         d="m26 0c-14.397 0-26 11.603-26 26v460c0 14.397 11.603 26 26 26h460c14.397 0 26-11.603 26-26v-460c0-14.397-11.603-26-26-26h-460" />
    </clipPath>
    <clipPath
       id="0-3">
      <path
         id="path217709"
         d="m26 0c-14.397 0-26 11.603-26 26v460c0 14.397 11.603 26 26 26h460c14.397 0 26-11.603 26-26v-460c0-14.397-11.603-26-26-26h-460" />
    </clipPath>
    <clipPath
       id="0-9">
      <path
         id="path218385"
         d="m26 0c-14.397 0-26 11.603-26 26v460c0 14.397 11.603 26 26 26h460c14.397 0 26-11.603 26-26v-460c0-14.397-11.603-26-26-26h-460" />
    </clipPath>
    <path
       style="fill:#fff"
       id="0-62"
       d="m350.45 319.42v-94.57h-3.967v53.54c0 5.293-.771 10.322-2.35 15.06-1.579 4.813-3.967 9.03-7.126 12.738-3.046 3.563-6.863 6.468-11.497 8.668-4.588 2.096-9.956 3.121-16.01 3.121-4.371 0-8.517-.62-12.485-1.73-3.817-1.25-7.239-3.01-10.285-5.547-2.905-2.538-5.218-5.688-6.9-9.551-1.73-3.93-1.871-8.781-1.871-14.318l-3.892.62c0 1.467 0 3.121 0 4.484.216 3.779.555 7.239 1.796 10.388 1.833 4.118 4.334 7.643 7.53 10.689 3.272 2.792 7.126 4.954 11.46 6.43 4.484 1.363 9.363 2.02 14.656 2.02 10.02 0 18.14-2.388 24.349-7.164 6.317-4.813 10.388-10.868 12.268-18.247h.367v23.39h3.93" />
    <path
       style="fill:#fff"
       id="1-2"
       d="m266.25 199.7h3.779c0-22.656 20.344-34.521 40.43-34.521 10.209 0 19.611 3.01 26.473 8.48 7.746 6.205 11.826 15.201 11.826 26.04h3.779c0-11.902-4.55-21.81-13.14-28.682-7.568-6.06-17.843-9.363-28.936-9.363-21.961 0-44.21 13.08-44.21 38.05" />
    <path
       style="fill:#fff"
       id="2-6"
       d="m306.11 197.69c0-2.313 2.059-4.221 4.55-4.221 2.501 0 4.512 1.908 4.512 4.221 0 2.35-2.02 4.221-4.512 4.221-2.538 0-4.55-1.871-4.55-4.221" />
    <clipPath
       id="3-2">
      <path
         id="path218955"
         d="m47 24c0 12.708-10.304 23-23 23-12.696 0-23-10.292-23-23 0-12.708 10.304-23 23-23 12.696 0 23 10.292 23 23" />
    </clipPath>
    <clipPath
       id="0-91">
      <path
         id="path257138"
         d="m26 0c-14.397 0-26 11.603-26 26v460c0 14.397 11.603 26 26 26h460c14.397 0 26-11.603 26-26v-460c0-14.397-11.603-26-26-26h-460" />
    </clipPath>
    <clipPath
       id="0-68">
      <path
         id="path257646"
         d="m26 0c-14.397 0-26 11.603-26 26v460c0 14.397 11.603 26 26 26h460c14.397 0 26-11.603 26-26v-460c0-14.397-11.603-26-26-26h-460" />
    </clipPath>
  </defs>
  <text
     sodipodi:linespacing="125%"
     y="-15.52045"
     x="-177.37009"
     line-height="125%"
     style="font-size:129.22999573px;line-height:125%;font-family:'Gentium Book Basic';letter-spacing:0;word-spacing:0"
     id="text257650">
    <tspan
       y="-15.52045"
       x="-177.37009"
       id="tspan257652" />
  </text>
  <text
     transform="scale(4.0128205,0.24920128)"
     y="-411.42853"
     x="152.88272"
     style="font-size:46.95399857px;font-family:Arial;text-anchor:middle"
     id="text257654" />
  <text
     sodipodi:linespacing="125%"
     y="-95.520447"
     x="403.8999"
     line-height="125%"
     style="font-size:129.22999573px;line-height:125%;font-family:'Gentium Book Basic';letter-spacing:0;word-spacing:0"
     id="text257656">
    <tspan
       y="-95.520447"
       x="403.8999"
       id="tspan257658" />
  </text>
  <text
     transform="scale(4.0128205,0.24920128)"
     y="-732.46185"
     x="297.73196"
     style="font-size:46.95399857px;font-family:Arial;text-anchor:middle"
     id="text257660" />
  <text
     sodipodi:linespacing="125%"
     y="-276.78046"
     x="-667.68005"
     line-height="125%"
     style="font-size:129.22999573px;line-height:125%;font-family:'Gentium Book Basic';letter-spacing:0;word-spacing:0"
     id="text257662">
    <tspan
       y="-276.78046"
       x="-667.68005"
       id="tspan257664" />
  </text>
  <text
     transform="scale(4.0128205,0.24920128)"
     y="-1459.8081"
     x="30.690342"
     style="font-size:46.95399857px;font-family:Arial;text-anchor:middle"
     id="text257666" />
  <text
     sodipodi:linespacing="125%"
     y="-493.25046"
     x="430.3699"
     line-height="125%"
     style="font-size:129.22999573px;line-height:125%;font-family:'Gentium Book Basic';letter-spacing:0;word-spacing:0"
     id="text257668">
    <tspan
       y="-493.25046"
       x="430.3699"
       id="tspan257670" />
  </text>
  <text
     transform="scale(4.0128205,0.24920128)"
     y="-2328.4836"
     x="304.33194"
     style="font-size:46.95399857px;font-family:Arial;text-anchor:middle"
     id="text257672" />
  <text
     sodipodi:linespacing="125%"
     y="-573.25043"
     x="1011.64"
     line-height="125%"
     style="font-size:129.22999573px;line-height:125%;font-family:'Gentium Book Basic';letter-spacing:0;word-spacing:0"
     id="text257674">
    <tspan
       y="-573.25043"
       x="1011.64"
       id="tspan257676" />
  </text>
  <text
     transform="scale(4.0128205,0.24920128)"
     y="-2649.5022"
     x="449.18121"
     style="font-size:46.95399857px;font-family:Arial;text-anchor:middle"
     id="text257678" />
  <text
     sodipodi:linespacing="125%"
     y="-1045.6505"
     x="622.51996"
     line-height="125%"
     style="font-size:129.22999573px;line-height:125%;font-family:'Gentium Book Basic';letter-spacing:0;word-spacing:0"
     id="text257680">
    <tspan
       y="-1045.6505"
       x="622.51996"
       id="tspan257682" />
  </text>
  <text
     transform="scale(4.0128205,0.24920128)"
     y="-4545.1426"
     x="352.2117"
     style="font-size:46.95399857px;font-family:Arial;text-anchor:middle"
     id="text257684" />
  <text
     sodipodi:linespacing="125%"
     y="-1125.6605"
     x="1203.7799"
     line-height="125%"
     style="font-size:129.22999573px;line-height:125%;font-family:'Gentium Book Basic';letter-spacing:0;word-spacing:0"
     id="text257686">
    <tspan
       y="-1125.6605"
       x="1203.7799"
       id="tspan257688" />
  </text>
  <text
     transform="scale(4.0128205,0.24920128)"
     y="-4866.1807"
     x="497.05096"
     style="font-size:46.95399857px;font-family:Arial;text-anchor:middle"
     id="text257690" />
  <text
     sodipodi:linespacing="125%"
     y="289.05954"
     x="-629.02008"
     line-height="125%"
     style="font-size:208.33000183px;line-height:125%;font-family:'Gentium Book Basic';letter-spacing:0;word-spacing:0"
     id="text257692">
    <tspan
       y="289.05954"
       x="-629.02008"
       id="tspan257694" />
  </text>
  <g
     id="g258064"
     transform="translate(-4.99007,110.88045)">
    <path
       id="path257648"
       style="fill:#8db173"
       d="m 30.98991,-110.88045 c -14.397,0 -26,11.603 -26,26 l 0,460 c 0,14.397 11.603,26 26,26 l 460,0 c 14.397,0 26,-11.603 26,-26 l 0,-460 c 0,-14.397 -11.603,-26 -26,-26 l -460,0"
       inkscape:connector-curvature="0" />
    <path
       id="path257698"
       d="m 120.51953,-0.19140625 c -74.209998,0 -74.529296,79.93945325 -74.529296,79.93945325 l 0,0.002 0,90.839843 c 0,17.08 11.719141,39.845 23.119141,51.25 l 40.128905,40.12891 c 2.06596,6.09828 5.5404,11.48577 9.93945,15.88086 l 0.15625,0.15625 c -0.0537,-0.0531 -0.11062,-0.10281 -0.16406,-0.15625 l 123.26953,123.26953 248.55078,0 c 14.397,0 26,-11.603 26,-26 l 0,-203.87305 -119.66015,-119.656249 -62.24414,16.595703 -17.12696,-17.126953 -8.91406,18.746094 -58.21484,-58.214844 -17.25,0 L 216.29883,57 208.0293,57 169.59961,18.570312 C 158.67461,7.645313 143.00353,-0.19140625 120.51953,-0.19140625 Z"
       style="opacity:0.25;fill-rule:evenodd"
       inkscape:connector-curvature="0" />
    <path
       id="path257818"
       style="fill:#ffffff;fill-rule:evenodd"
       d="m 120.51991,-0.19045 c -74.21,0 -74.53,79.938 -74.53,79.938 l 0,90.84 c 0,17.09 11.743,39.89 23.16,51.28 20.18,20.14 34.13,17.25 34.13,17.25 0,0 0.198,5.598 5.906,22.688 5.708,17.09 22.5,28.625 39.625,28.625 17.12,0 23.13,-5.906 23.13,-5.906 l 0,-22.719 c 0,0 -5.834,0.227 -17.25,-5.469 -11.418,-5.697 -11.375,-17.219 -11.375,-17.219 0,0 16.996,-5.629 34.13,-22.719 17.12,-17.09 17.313,-45.813 17.313,-45.813 l 0,-85.41 c 0,0 -0.017,-85.37 -74.22,-85.37 m 113.06,11.781 -17.281,45.41 -11.406,0 0,22.75 11.406,0 0,119.81 c 0,0 0.085,28.22 28.625,28.22 28.54,0 34.19,-11.375 34.19,-11.375 l 0,-21.938 c -0.535,1.602 -2.844,5.094 -11.406,5.094 -11.417,0 -16.875,-11.344 -16.875,-11.344 l 0,-108.5 28.28,0 0,-22.719 -28.28,0 0,-45.41 -17.25,0 m -110.81,16.844 c 0.432,-0.016 0.867,0 1.313,0 28.546,0 28.625,28.19 28.625,28.19 l 0,113.97 c 0,0 -0.085,39.938 -28.625,39.938 -28.546,0 -28.656,-39.938 -28.656,-39.938 l 0,-108.12 c 0,0 0.118,-33 27.344,-34.03 m 195.19,22.625 -26.406,55.53 28.03,48.688 0,-22.781 77.75,-4.219 0,-76.69 -79.37,21.16 0,-21.688 m 90,59.656 1.688,25 -83.28,4.625 4.219,61.22 82.938,11.906 1.75,25.719 60.719,-60.44 -68.03,-68.03"
       inkscape:connector-curvature="0" />
  </g>
</svg>
