<?xml version="1.0" encoding="UTF-8" standalone="no"?>
<svg
   xmlns:dc="http://purl.org/dc/elements/1.1/"
   xmlns:cc="http://creativecommons.org/ns#"
   xmlns:rdf="http://www.w3.org/1999/02/22-rdf-syntax-ns#"
   xmlns:svg="http://www.w3.org/2000/svg"
   xmlns="http://www.w3.org/2000/svg"
   xmlns:sodipodi="http://sodipodi.sourceforge.net/DTD/sodipodi-0.dtd"
   xmlns:inkscape="http://www.inkscape.org/namespaces/inkscape"
   viewBox="0 0 512 512"
   id="svg2"
   version="1.1"
   inkscape:version="0.91+devel r13804 custom"
   sodipodi:docname="qr-reader.svg">
  <metadata
     id="metadata77">
    <rdf:RDF>
      <cc:Work
         rdf:about="">
        <dc:format>image/svg+xml</dc:format>
        <dc:type
           rdf:resource="http://purl.org/dc/dcmitype/StillImage" />
        <dc:title></dc:title>
      </cc:Work>
    </rdf:RDF>
  </metadata>
  <sodipodi:namedview
     pagecolor="#ffffff"
     bordercolor="#666666"
     borderopacity="1"
     objecttolerance="10"
     gridtolerance="10"
     guidetolerance="10"
     inkscape:pageopacity="0"
     inkscape:pageshadow="2"
     inkscape:window-width="1366"
     inkscape:window-height="709"
     id="namedview75"
     showgrid="false"
     inkscape:zoom="0.32593203"
     inkscape:cx="-11.678728"
     inkscape:cy="95.710196"
     inkscape:window-x="-2"
     inkscape:window-y="-3"
     inkscape:window-maximized="1"
     inkscape:current-layer="svg2"
     showguides="true" />
  <defs
     id="defs4">
    <path
       style="fill:#fff"
       id="0"
       d="m350.45 319.42v-94.57h-3.967v53.54c0 5.293-.771 10.322-2.35 15.06-1.579 4.813-3.967 9.03-7.126 12.738-3.046 3.563-6.863 6.468-11.497 8.668-4.588 2.096-9.956 3.121-16.01 3.121-4.371 0-8.517-.62-12.485-1.73-3.817-1.25-7.239-3.01-10.285-5.547-2.905-2.538-5.218-5.688-6.9-9.551-1.73-3.93-1.871-8.781-1.871-14.318l-3.892.62c0 1.467 0 3.121 0 4.484.216 3.779.555 7.239 1.796 10.388 1.833 4.118 4.334 7.643 7.53 10.689 3.272 2.792 7.126 4.954 11.46 6.43 4.484 1.363 9.363 2.02 14.656 2.02 10.02 0 18.14-2.388 24.349-7.164 6.317-4.813 10.388-10.868 12.268-18.247h.367v23.39h3.93" />
    <path
       style="fill:#fff"
       id="1"
       d="m266.25 199.7h3.779c0-22.656 20.344-34.521 40.43-34.521 10.209 0 19.611 3.01 26.473 8.48 7.746 6.205 11.826 15.201 11.826 26.04h3.779c0-11.902-4.55-21.81-13.14-28.682-7.568-6.06-17.843-9.363-28.936-9.363-21.961 0-44.21 13.08-44.21 38.05" />
    <path
       style="fill:#fff"
       id="2"
       d="m306.11 197.69c0-2.313 2.059-4.221 4.55-4.221 2.501 0 4.512 1.908 4.512 4.221 0 2.35-2.02 4.221-4.512 4.221-2.538 0-4.55-1.871-4.55-4.221" />
    <clipPath
       id="3">
      <path
         id="path177367"
         d="m47 24c0 12.708-10.304 23-23 23-12.696 0-23-10.292-23-23 0-12.708 10.304-23 23-23 12.696 0 23 10.292 23 23" />
    </clipPath>
    <clipPath
       id="0-5">
      <path
         id="path215574"
         d="m26 0c-14.397 0-26 11.603-26 26v460c0 14.397 11.603 26 26 26h460c14.397 0 26-11.603 26-26v-460c0-14.397-11.603-26-26-26h-460" />
    </clipPath>
    <clipPath
       id="0-6">
      <path
         id="path216298"
         d="m26 0c-14.397 0-26 11.603-26 26v460c0 14.397 11.603 26 26 26h460c14.397 0 26-11.603 26-26v-460c0-14.397-11.603-26-26-26h-460" />
    </clipPath>
    <clipPath
       id="0-2">
      <path
         id="path216855"
         d="m26 0c-14.397 0-26 11.603-26 26v460c0 14.397 11.603 26 26 26h460c14.397 0 26-11.603 26-26v-460c0-14.397-11.603-26-26-26h-460" />
    </clipPath>
    <clipPath
       id="0-3">
      <path
         id="path217709"
         d="m26 0c-14.397 0-26 11.603-26 26v460c0 14.397 11.603 26 26 26h460c14.397 0 26-11.603 26-26v-460c0-14.397-11.603-26-26-26h-460" />
    </clipPath>
    <clipPath
       id="0-9">
      <path
         id="path218385"
         d="m26 0c-14.397 0-26 11.603-26 26v460c0 14.397 11.603 26 26 26h460c14.397 0 26-11.603 26-26v-460c0-14.397-11.603-26-26-26h-460" />
    </clipPath>
    <path
       style="fill:#fff"
       id="0-62"
       d="m350.45 319.42v-94.57h-3.967v53.54c0 5.293-.771 10.322-2.35 15.06-1.579 4.813-3.967 9.03-7.126 12.738-3.046 3.563-6.863 6.468-11.497 8.668-4.588 2.096-9.956 3.121-16.01 3.121-4.371 0-8.517-.62-12.485-1.73-3.817-1.25-7.239-3.01-10.285-5.547-2.905-2.538-5.218-5.688-6.9-9.551-1.73-3.93-1.871-8.781-1.871-14.318l-3.892.62c0 1.467 0 3.121 0 4.484.216 3.779.555 7.239 1.796 10.388 1.833 4.118 4.334 7.643 7.53 10.689 3.272 2.792 7.126 4.954 11.46 6.43 4.484 1.363 9.363 2.02 14.656 2.02 10.02 0 18.14-2.388 24.349-7.164 6.317-4.813 10.388-10.868 12.268-18.247h.367v23.39h3.93" />
    <path
       style="fill:#fff"
       id="1-2"
       d="m266.25 199.7h3.779c0-22.656 20.344-34.521 40.43-34.521 10.209 0 19.611 3.01 26.473 8.48 7.746 6.205 11.826 15.201 11.826 26.04h3.779c0-11.902-4.55-21.81-13.14-28.682-7.568-6.06-17.843-9.363-28.936-9.363-21.961 0-44.21 13.08-44.21 38.05" />
    <path
       style="fill:#fff"
       id="2-6"
       d="m306.11 197.69c0-2.313 2.059-4.221 4.55-4.221 2.501 0 4.512 1.908 4.512 4.221 0 2.35-2.02 4.221-4.512 4.221-2.538 0-4.55-1.871-4.55-4.221" />
    <clipPath
       id="3-2">
      <path
         id="path218955"
         d="m47 24c0 12.708-10.304 23-23 23-12.696 0-23-10.292-23-23 0-12.708 10.304-23 23-23 12.696 0 23 10.292 23 23" />
    </clipPath>
    <clipPath
       id="0-91">
      <path
         id="path257138"
         d="m26 0c-14.397 0-26 11.603-26 26v460c0 14.397 11.603 26 26 26h460c14.397 0 26-11.603 26-26v-460c0-14.397-11.603-26-26-26h-460" />
    </clipPath>
    <clipPath
       id="0-68">
      <path
         id="path257646"
         d="m26 0c-14.397 0-26 11.603-26 26v460c0 14.397 11.603 26 26 26h460c14.397 0 26-11.603 26-26v-460c0-14.397-11.603-26-26-26h-460" />
    </clipPath>
    <clipPath
       id="0-1">
      <path
         id="path258305"
         d="m26 0c-14.397 0-26 11.603-26 26v460c0 14.397 11.603 26 26 26h460c14.397 0 26-11.603 26-26v-460c0-14.397-11.603-26-26-26h-460" />
    </clipPath>
    <clipPath
       id="0-0">
      <path
         id="path259585"
         d="m26 0c-14.397 0-26 11.603-26 26v460c0 14.397 11.603 26 26 26h460c14.397 0 26-11.603 26-26v-460c0-14.397-11.603-26-26-26h-460" />
    </clipPath>
    <clipPath
       id="0-67">
      <path
         id="path261091"
         d="m26 0c-14.397 0-26 11.603-26 26v460c0 14.397 11.603 26 26 26h460c14.397 0 26-11.603 26-26v-460c0-14.397-11.603-26-26-26h-460" />
    </clipPath>
    <linearGradient
       y1="513.8"
       x2="0"
       y2="1.346"
       id="1-8"
       gradientUnits="userSpaceOnUse"
       gradientTransform="translate(-390.02688,-211.46494)">
      <stop
         id="stop261094"
         style="stop-color:#1e1e56" />
      <stop
         id="stop261096"
         style="stop-color:#2c2c7c"
         offset=".5" />
      <stop
         id="stop261098"
         style="stop-color:#1e1e56"
         offset="1" />
    </linearGradient>
    <clipPath
       id="0-95">
      <path
         id="path261361"
         d="m26 0c-14.397 0-26 11.603-26 26v460c0 14.397 11.603 26 26 26h460c14.397 0 26-11.603 26-26v-460c0-14.397-11.603-26-26-26h-460" />
    </clipPath>
  </defs>
  <text
     sodipodi:linespacing="125%"
     y="-69.793045"
     x="-401.92694"
     line-height="125%"
     style="font-size:129.22999573px;line-height:125%;font-family:'Gentium Book Basic';letter-spacing:0;word-spacing:0"
     id="text261365">
    <tspan
       y="-69.793045"
       x="-401.92694"
       id="tspan261367" />
  </text>
  <text
     transform="scale(4.0128205,0.24920128)"
     y="-629.21234"
     x="96.918571"
     style="font-size:46.95399857px;font-family:Arial;text-anchor:middle"
     id="text261369" />
  <text
     sodipodi:linespacing="125%"
     y="-149.79305"
     x="179.34306"
     line-height="125%"
     style="font-size:129.22999573px;line-height:125%;font-family:'Gentium Book Basic';letter-spacing:0;word-spacing:0"
     id="text261371">
    <tspan
       y="-149.79305"
       x="179.34306"
       id="tspan261373" />
  </text>
  <text
     transform="scale(4.0128205,0.24920128)"
     y="-950.23969"
     x="241.76782"
     style="font-size:46.95399857px;font-family:Arial;text-anchor:middle"
     id="text261375" />
  <text
     sodipodi:linespacing="125%"
     y="-331.05304"
     x="-892.23694"
     line-height="125%"
     style="font-size:129.22999573px;line-height:125%;font-family:'Gentium Book Basic';letter-spacing:0;word-spacing:0"
     id="text261377">
    <tspan
       y="-331.05304"
       x="-892.23694"
       id="tspan261379" />
  </text>
  <text
     transform="scale(4.0128205,0.24920128)"
     y="-1677.5969"
     x="-25.268801"
     style="font-size:46.95399857px;font-family:Arial;text-anchor:middle"
     id="text261381" />
  <text
     sodipodi:linespacing="125%"
     y="-547.52301"
     x="205.81306"
     line-height="125%"
     style="font-size:129.22999573px;line-height:125%;font-family:'Gentium Book Basic';letter-spacing:0;word-spacing:0"
     id="text261383">
    <tspan
       y="-547.52301"
       x="205.81306"
       id="tspan261385" />
  </text>
  <text
     transform="scale(4.0128205,0.24920128)"
     y="-2546.2524"
     x="248.3678"
     style="font-size:46.95399857px;font-family:Arial;text-anchor:middle"
     id="text261387" />
  <text
     sodipodi:linespacing="125%"
     y="-627.53302"
     x="787.08307"
     line-height="125%"
     style="font-size:129.22999573px;line-height:125%;font-family:'Gentium Book Basic';letter-spacing:0;word-spacing:0"
     id="text261389">
    <tspan
       y="-627.53302"
       x="787.08307"
       id="tspan261391" />
  </text>
  <text
     transform="scale(4.0128205,0.24920128)"
     y="-2867.2908"
     x="393.21707"
     style="font-size:46.95399857px;font-family:Arial;text-anchor:middle"
     id="text261393" />
  <text
     sodipodi:linespacing="125%"
     y="-1099.9331"
     x="397.96307"
     line-height="125%"
     style="font-size:129.22999573px;line-height:125%;font-family:'Gentium Book Basic';letter-spacing:0;word-spacing:0"
     id="text261395">
    <tspan
       y="-1099.9331"
       x="397.96307"
       id="tspan261397" />
  </text>
  <text
     transform="scale(4.0128205,0.24920128)"
     y="-4762.9312"
     x="296.24756"
     style="font-size:46.95399857px;font-family:Arial;text-anchor:middle"
     id="text261399" />
  <text
     sodipodi:linespacing="125%"
     y="-1179.9331"
     x="979.22302"
     line-height="125%"
     style="font-size:129.22999573px;line-height:125%;font-family:'Gentium Book Basic';letter-spacing:0;word-spacing:0"
     id="text261401">
    <tspan
       y="-1179.9331"
       x="979.22302"
       id="tspan261403" />
  </text>
  <text
     transform="scale(4.0128205,0.24920128)"
     y="-5083.9595"
     x="441.09683"
     style="font-size:46.95399857px;font-family:Arial;text-anchor:middle"
     id="text261405" />
  <text
     sodipodi:linespacing="125%"
     y="234.78697"
     x="-853.57697"
     line-height="125%"
     style="font-size:208.33000183px;line-height:125%;font-family:'Gentium Book Basic';letter-spacing:0;word-spacing:0"
     id="text261407">
    <tspan
       y="234.78697"
       x="-853.57697"
       id="tspan261409" />
  </text>
  <g
     id="g265169"
     transform="translate(151.48663,256.47182)">
    <path
       id="path261363"
       style="fill:#a60a1c"
       d="m -125.48693,-256.47304 c -14.397,0 -26,11.603 -26,26 l 0,460 c 0,14.397 11.603,26 26,26 l 460,0 c 14.397,0 26,-11.603 26,-26 l 0,-460 c 0,-14.397 -11.603,-26 -26,-26 l -460,0"
       inkscape:connector-curvature="0" />
    <path
       id="path261413"
       d="m 150.45312,-178.04297 0,0.01 -14.6875,0 -0.002,0 0,0.65039 -1.68945,0 -0.002,0 -57.119145,0 -1.84375,0 18,18 -0.0059,0 -18,-18 0,1.84375 17.939453,17.93945 0,0.004 -17.939453,-17.93946 0,12.5 0,0.002 -26.710938,0 -1.84375,0 32.244141,32.24414 0,0.006 -32.25,-32.25 0,1.84375 0,8.67578 -24.869141,-24.86914 -1.845703,0 1.845703,1.8457 -1.851562,-1.8457 -14.2500004,0 -1.84375,0 0.00391,0.004 0,1.83985 17.9414064,17.9414 0,0.004 -17.9414064,-17.94141 0,8.78125 -10.6289063,-10.6289 -1.8105468,0 -99.9355515,0 -1.84375,0 0,1.84375 17.937505,17.9375 0,0.004 -17.937505,-17.9375 0,12.5 0,0.002 0,1.84375 0,1.80859 0,10.6543 17.937505,17.9375 0,0.004 -17.937505,-17.9375 0,1.84375 0,1.83985 17.937505,17.9375 0,0.006 -17.937505,-17.9375 0,10.625 0,1.83984 17.937505,17.9375 0,0.006 -17.937505,-17.9375 0,1.84375 0,10.65234 17.937505,17.9375 0,0.004 -17.937505,-17.9375 0,1.84375 0,1.80859 0,12.49805 0,0.0293 0,1.8125 28.658208,28.658201 -0.0078,0 -28.650388,-28.650391 0,10.65625 0,1.837891 16.156248,16.15625 -0.0059,0 -16.150388,-16.150391 0,1.84375 0,12.464844 0,1.845703 10.654295,10.654297 -8.806635,0 17.999994,18 -0.0039,0 -18.000004,-18 -1.84375,0 0,1.845703 0,12.464844 0,1.84375 16.156254,16.15625 -0.0059,0 -16.150394,-16.150391 0,1.84375 0,12.466797 0,1.84375 14.279301,14.279297 0,10.6874998 -12.435551,0 -0.002,0 -1.8418,0 0,1.84375 0,14.3085942 16.187504,16.1875 -0.0078,0 -16.179694,-16.179688 0,0.03125 0,1.810547 0,12.498047 0,1.84375 24.966804,24.966797 -23.123054,0 -1.84375,0 0,1.84375 16.156257,16.15625 -0.0059,0 -16.150397,-16.150391 0,14.3125 0,1.841797 10.654304,10.654297 -8.810554,0 -1.84375,0 0,1.814453 0,12.496094 0,1.84375 17.937507,17.937499 0,0.006 -17.937507,-17.9375 0,1.84375 0,10.65234 17.937507,17.9375 0,0.004 -17.937507,-17.9375 0,1.81445 0,1.83985 0,10.65234 17.937507,17.9375 0,0.004 -17.937507,-17.9375 0,1.8125 0,0.0293 0,1.81055 0,10.6543 17.937507,17.9375 0,0.004 -17.937507,-17.9375 0,1.84375 0,1.83985 17.937507,17.9375 0,0.006 -17.937507,-17.9375 0,10.65625 0,1.80664 30.507819,30.50781 -0.0078,0 -30.499999,-30.5 0,1.84375 0,10.65234 18.003905,18.00391 -0.0039,0 -18.000005,-18 0,1.84375 0,1.83984 0,12.46485 0,0.002 0,1.84375 0.006,0.006 -0.006,0 71.089849,71.08984 373.910151,0 c 14.397,0 26,-11.603 26,-26 l 0,-366.56054 -41,-41 -4.125,0 0.004,0.004 0,5.56641 -5.57031,-5.57031 -4.125,0 0.006,0.006 0,15.23437 -15.25,-15.25 0,0.01 -4.125,0 4.125,4.125 0,0.006 -4.13085,-4.13086 0,10.38867 -10.39844,-10.39844 0,0.01 -4.125,0 4.125,4.125 0,0.006 -4.13086,-4.13086 0,10.39062 -10.40039,-10.40039 0,0.01 -8.96875,0 0,5.52148 -5.53125,-5.53125 0,0.01 -9,0 0,5.52929 -5.53906,-5.53906 0,0.01 -9,0 0,10.36132 -10.3711,-10.37109 0,0.01 -9,0 0,5.51953 -5.5293,-5.5293 0,0.01 -4.125,0 4.125,4.125 0,0.006 -4.13085,-4.13086 0,10.35937 -10.36915,-10.36914 0,0.01 -13.84374,0 13.84374,13.84375 0,0.006 -13.8496,-13.84961 0,10.39062 -10.4004,-10.40039 0,0.01 -4.125,0 4.125,4.125 0,0.006 -4.13085,-4.13086 0,5.10937 -5.11915,-5.11914 z"
       style="color:#000000;opacity:0.25"
       inkscape:connector-curvature="0" />
    <path
       id="path262889"
       style="color:#000000;fill:#ffffff"
       d="m 135.76307,-178.03304 0,0.656 -1.688,0 -57.12,0 -1.844,0 0,1.844 0,12.5 -26.719,0 -1.844,0 0,1.844 0,14.313 0,1.844 1.844,0 12.469,0 0,12.469 0,1.844 0,12.5 0,1.813 0,12.5 0,1.844 1.813,0 14.281,0 1.844,0 0,-1.844 0,-14.313 0,-1.844 0,-12.5 0,-1.844 0,-10.625 10.594,0 0,12.469 0,1.844 1.844,0 28.563,0 1.813,0 0,-1.844 0,-14.313 0,-1.844 -1.813,0 -26.75,0 0,-10.656 41.03,0 1.688,0 0,39.31 -1.719,0 -42.813,0 -1.844,0 0,1.844 0,14.313 0,1.844 1.844,0 42.813,0 1.719,0 0,24.969 -1.719,0 -26.688,0 0,-12.469 0,-1.844 -1.844,0 -14.281,0 -1.844,0 0,1.844 0,12.469 -10.594,0 0,-12.469 0,-1.844 -1.844,0 -14.281,0 -1.813,0 0,1.844 0,12.469 -10.625,0 0,-12.469 0,-1.844 0,-12.469 0,-1.844 0,-12.5 0,-1.844 0,-12.5 0,-1.844 -1.844,0 -12.438,0 0,-12.469 0,-1.844 -1.844,0 -12.438,0 0,-12.469 0,-1.844 0,-12.5 0,-1.844 -1.844,0 -14.25,0 -1.844,0 0,1.844 0,14.344 0,1.813 0,12.5 0,1.844 0,12.469 0,1.844 0,12.5 0,1.813 1.844,0 12.438,0 0,10.688 -12.438,0 -1.844,0 0,1.844 0,14.313 0,1.844 0,12.469 0,1.844 1.844,0 14.25,0 1.844,0 0,-1.844 0,-12.469 10.594,0 0,10.625 0,1.844 0,1.844 0,12.5 0,1.813 0,12.5 0,1.844 1.844,0 14.281,0 1.844,0 0,-1.844 0,-12.5 10.625,0 0,12.5 0,1.844 1.813,0 13.09,0 0,12.469 0,1.188 1.188,0 26.719,0 0,11.313 -12.438,0 -1.844,0 0,1.813 0,12.5 -10.594,0 0,-12.5 0,-1.813 -1.844,0 -14.281,0 -1.813,0 0,1.813 0,12.5 -12.469,0 -1.844,0 0,1.844 0,12.5 -12.438,0 -1.844,0 0,1.844 0,14.313 0,1.844 0,10.656 -12.438,0 -1.813,0 0,1.844 0,14.313 0,1.844 1.813,0 12.438,0 0,12.469 0,1.844 0,12.5 0,1.813 1.844,0 14.281,0 1.844,0 0,-1.813 0,-14.344 0,-1.844 0,-10.625 10.625,0 0,12.469 0,1.844 1.813,0 12.438,0 0,12.5 0,1.813 1.844,0 26.719,0 0,10.656 -12.438,0 -1.844,0 0,1.844 0,12.5 -10.594,0 0,-12.5 0,-1.844 -1.844,0 -14.281,0 -1.813,0 0,1.844 0,12.5 -10.625,0 0,-12.5 0,-1.844 -1.844,0 -14.281,0 -1.844,0 0,1.844 0,12.5 -10.594,0 0,-12.5 0,-1.844 -1.844,0 -14.25,0 -1.844,0 0,1.844 0,14.313 0,1.844 0,12.5 0,1.813 1.844,0 28.531,0 1.844,0 0,-1.813 0,-12.5 10.594,0 0,12.5 0,1.813 1.844,0 12.469,0 0,10.656 -12.469,0 -1.844,0 0,1.844 0,14.313 0,1.844 0,10.656 -10.594,0 0,-12.5 0,-1.813 0,-12.5 0,-1.844 -1.844,0 -14.281,0 -1.813,0 0,1.844 0,12.5 -12.438,0 -1.844,0 0,1.813 0,14.344 0,1.844 0,12.469 0,1.844 1.844,0 42.813,0 1.844,0 0,-1.844 0,-12.469 10.625,0 0,12.469 0,1.844 1.813,0 28.563,0 1.844,0 0,-1.844 0,-14.313 0,-1.844 0,-10.656 10.594,0 0,12.5 0,1.844 1.844,0 14.281,0 1.813,0 0,-1.844 0,-14.344 0,-1.813 -1.813,0 -12.469,0 0,-10.656 12.469,0 1.813,0 0,-1.844 0,-14.344 0,-1.813 -1.813,0 -12.438,0 0,-12.5 0,-1.813 0,-10.656 26.688,0 1.719,0 0,48.625 14.688,0 0,-325.16 -14.688,0 m 19.813,0 0,325.16 4.125,0 0,-325.16 -4.125,0 m 14.531,0 0,325.16 13.844,0 0,-325.16 -13.844,0 m 24.22,0 0,325.16 4.125,0 0,-325.16 -4.125,0 m 9.656,0 0,325.16 9,0 0,-325.16 -9,0 m 19.375,0 0,325.16 9,0 0,-325.16 -9,0 m 14.531,0 0,325.16 9,0 0,-325.16 -9,0 m 14.531,0 0,325.16 8.969,0 0,-325.16 -8.969,0 m 19.375,0 0,325.16 4.125,0 0,-325.16 -4.125,0 m 14.531,0 0,325.16 4.125,0 0,-325.16 -4.125,0 m 19.375,0 0,351.5 4.125,0 0,-351.5 -4.125,0 m 9.688,0 0,351.5 4.125,0 0,-351.5 -4.125,0 m -425.87,0.656 0,1.844 0,12.5 0,1.844 0,1.813 0,10.656 0,1.844 0,1.844 0,10.625 0,1.844 0,1.844 0,10.656 0,1.844 0,1.813 0,12.5 0,0.031 0,1.813 0,10.656 0,1.844 0,1.844 0,12.469 0,1.844 1.844,0 99.94,0 1.813,0 0,-1.844 0,-12.469 0.031,0 0,-1.844 0,-14.313 0,-0.031 0,-1.813 0,-12.5 0,-1.844 0,-12.5 0,-1.844 0,-12.469 0,-1.844 0,-12.469 0,-1.844 -0.031,0 0,-12.5 0,-1.844 -1.813,0 -99.94,0 -1.844,0 m 17.938,18 67.72,0 0,12.5 0,1.844 0,12.469 0,1.844 0,12.5 0,1.813 0,12.5 0,1.844 0,10.656 -67.72,0 0,-12.469 0,-1.844 0,-12.5 0,-1.844 0,-12.5 0,-1.844 0,-12.469 0,-1.844 0,-10.656 m 10.625,10.656 0,1.844 0,14.313 0,1.844 0,12.5 0,1.813 0,12.5 0,1.844 1.813,0 42.844,0 1.844,0 0,-1.844 0,-14.313 0,-1.844 0,-12.5 0,-1.844 0,-12.469 0,-1.844 -1.844,0 -42.844,0 -1.813,0 m 146.44,75.31 10.594,0 0,10.656 -10.594,0 0,-10.656 m 28.563,0 10.594,0 0,12.5 0,1.813 0,11.313 -10.594,0 0,-13.12 0,-1.844 0,-10.656 m -203.56,10.656 0,1.844 0,12.469 0,1.844 0,1.844 0,12.469 0,1.844 1.844,0 14.281,0 1.813,0 0,-1.844 0,-12.469 10.625,0 0,12.469 0,1.844 1.813,0 14.281,0 1.844,0 0,-1.844 0,-14.313 0,-1.844 -1.844,0 -12.438,0 0,-12.469 0,-1.844 -1.844,0 -28.531,0 -1.844,0 m 57.13,0 0,1.844 0,14.313 0,1.844 1.813,0 42.844,0 1.844,0 0,-1.844 0,-14.313 0,-1.844 -1.844,0 -42.844,0 -1.813,0 m 0,28.625 0,1.844 0,14.344 0,1.813 1.813,0 41,0 0,10.656 -67.72,0 0,-12.5 0,-1.813 -1.844,0 -14.25,0 -1.844,0 0,1.813 0,12.5 -12.438,0 -1.844,0 0,1.844 0,14.313 0,0.031 0,1.813 0,12.5 0,1.844 1.844,0 14.281,0 1.813,0 0,-1.844 0,-12.5 10.625,0 0,10.656 0,1.844 0,1.844 0,10.656 0,1.844 0,1.813 0,10.656 -26.719,0 -1.844,0 0,1.844 0,14.313 0,1.844 1.844,0 57.09,0 1.844,0 0,-1.844 0,-14.313 0,-1.844 0,-10.656 10.594,0 0,12.5 0,1.844 1.844,0 12.438,0 0,12.469 0,1.844 1.844,0 14.281,0 1.844,0 0,-1.844 0,-14.313 0,-1.844 -1.844,0 -12.438,0 0,-10.656 12.438,0 1.844,0 0,-1.813 0,-14.344 0,-1.844 -1.844,0 -12.438,0 0,-10.656 12.438,0 1.813,0 0,-1.844 0,-12.469 12.469,0 1.813,0 0,-1.844 0,-12.5 0.031,0 0,-1.813 0,-14.344 0,-1.844 -1.844,0 -57.12,0 -1.813,0 m 71.38,0 0,1.844 0,14.344 0,1.813 0,12.5 0,1.844 1.813,0 14.281,0 1.844,0 0,-1.844 0,-12.5 12.438,0 1.844,0 0,-1.813 0,-14.344 0,-1.844 -1.844,0 -28.563,0 -1.813,0 m 103.59,18 12.438,0 1.719,0 0,25 -1.719,0 -26.688,0 0,-10.656 12.438,0 1.813,0 0,-1.844 0,-12.5 m -57.09,14.344 10.594,0 0,10.656 -10.594,0 0,-10.656 m -128.5,14.313 10.625,0 0,12.5 0,1.844 0,10.656 -10.625,0 0,-12.5 0,-1.844 0,-10.656 m 114.22,0 10.625,0 0,10.656 -10.625,0 0,-10.656 m 28.563,0 24.875,0 0,10.656 -24.875,0 0,-10.656 m -114.22,14.344 10.594,0 0,10.656 -10.594,0 0,-10.656 m 157.03,0 12.438,0 1.719,0 0,39.28 -1.688,0 -41,0 0,-12.469 0,-1.844 0,-10.656 26.688,0 1.844,0 0,-1.813 0,-12.5 m -57.09,14.313 10.594,0 0,10.656 -10.594,0 0,-10.656 m -60.781,24.969 0,1.844 0,14.344 0,1.813 1.844,0 14.25,0 1.844,0 0,-1.813 0,-14.344 0,-1.844 -1.844,0 -14.25,0 -1.844,0 m -114.22,14.344 0,1.813 0,12.5 0,1.844 0,1.844 0,10.656 0,1.813 0,1.844 0,10.656 0,1.813 0,0.031 0,1.813 0,10.656 0,1.844 0,1.844 0,10.656 0,1.813 0,1.844 0,10.656 0,1.844 0,1.844 0,12.469 0,1.844 1.844,0 99.94,0 1.813,0 0,-1.844 0,-12.469 0.031,0 0,-1.844 0,-14.344 0,-1.813 0,-12.5 0,-1.844 0,-12.5 0,-14.313 0,-1.813 0,-12.5 0,-1.844 -0.031,0 0,-12.5 0,-1.813 -1.813,0 -99.94,0 -1.844,0 m 17.938,18 67.72,0 0,12.469 0,1.844 0,12.5 0,1.813 0,12.5 0,1.844 0,12.469 0,1.844 0,10.656 -67.72,0 0,-12.5 0,-1.813 0,-12.5 0,-1.844 0,-12.5 0,-1.813 0,-12.5 0,-1.813 0,-10.656 m 10.625,10.656 0,1.813 0,14.344 0,1.813 0,12.5 0,1.844 0,12.469 0,1.844 1.813,0 42.844,0 1.844,0 0,-1.844 0,-14.313 0,-1.844 0,-12.5 0,-14.313 0,-1.813 -1.844,0 -42.844,0 -1.813,0 m 146.44,3.656 10.594,0 0,10.656 -10.594,0 0,-10.656 m 14.281,14.313 24.875,0 0,10.656 -24.875,0 0,-10.656 m -14.281,28.656 10.594,0 0,10.656 -10.594,0 0,-10.656"
       inkscape:connector-curvature="0" />
  </g>
</svg>
