<?xml version="1.0" encoding="UTF-8" standalone="no"?>
<svg
   xmlns:dc="http://purl.org/dc/elements/1.1/"
   xmlns:cc="http://creativecommons.org/ns#"
   xmlns:rdf="http://www.w3.org/1999/02/22-rdf-syntax-ns#"
   xmlns:svg="http://www.w3.org/2000/svg"
   xmlns="http://www.w3.org/2000/svg"
   xmlns:sodipodi="http://sodipodi.sourceforge.net/DTD/sodipodi-0.dtd"
   xmlns:inkscape="http://www.inkscape.org/namespaces/inkscape"
   viewBox="0 0 512 512"
   id="svg2"
   version="1.1"
   inkscape:version="0.91+devel r13804 custom"
   sodipodi:docname="qt.svg">
  <metadata
     id="metadata77">
    <rdf:RDF>
      <cc:Work
         rdf:about="">
        <dc:format>image/svg+xml</dc:format>
        <dc:type
           rdf:resource="http://purl.org/dc/dcmitype/StillImage" />
        <dc:title></dc:title>
      </cc:Work>
    </rdf:RDF>
  </metadata>
  <sodipodi:namedview
     pagecolor="#ffffff"
     bordercolor="#666666"
     borderopacity="1"
     objecttolerance="10"
     gridtolerance="10"
     guidetolerance="10"
     inkscape:pageopacity="0"
     inkscape:pageshadow="2"
     inkscape:window-width="1366"
     inkscape:window-height="709"
     id="namedview75"
     showgrid="false"
     inkscape:zoom="0.32593203"
     inkscape:cx="-11.678728"
     inkscape:cy="95.710196"
     inkscape:window-x="-2"
     inkscape:window-y="-3"
     inkscape:window-maximized="1"
     inkscape:current-layer="svg2"
     showguides="true" />
  <defs
     id="defs4">
    <path
       style="fill:#fff"
       id="0"
       d="m350.45 319.42v-94.57h-3.967v53.54c0 5.293-.771 10.322-2.35 15.06-1.579 4.813-3.967 9.03-7.126 12.738-3.046 3.563-6.863 6.468-11.497 8.668-4.588 2.096-9.956 3.121-16.01 3.121-4.371 0-8.517-.62-12.485-1.73-3.817-1.25-7.239-3.01-10.285-5.547-2.905-2.538-5.218-5.688-6.9-9.551-1.73-3.93-1.871-8.781-1.871-14.318l-3.892.62c0 1.467 0 3.121 0 4.484.216 3.779.555 7.239 1.796 10.388 1.833 4.118 4.334 7.643 7.53 10.689 3.272 2.792 7.126 4.954 11.46 6.43 4.484 1.363 9.363 2.02 14.656 2.02 10.02 0 18.14-2.388 24.349-7.164 6.317-4.813 10.388-10.868 12.268-18.247h.367v23.39h3.93" />
    <path
       style="fill:#fff"
       id="1"
       d="m266.25 199.7h3.779c0-22.656 20.344-34.521 40.43-34.521 10.209 0 19.611 3.01 26.473 8.48 7.746 6.205 11.826 15.201 11.826 26.04h3.779c0-11.902-4.55-21.81-13.14-28.682-7.568-6.06-17.843-9.363-28.936-9.363-21.961 0-44.21 13.08-44.21 38.05" />
    <path
       style="fill:#fff"
       id="2"
       d="m306.11 197.69c0-2.313 2.059-4.221 4.55-4.221 2.501 0 4.512 1.908 4.512 4.221 0 2.35-2.02 4.221-4.512 4.221-2.538 0-4.55-1.871-4.55-4.221" />
    <clipPath
       id="3">
      <path
         id="path177367"
         d="m47 24c0 12.708-10.304 23-23 23-12.696 0-23-10.292-23-23 0-12.708 10.304-23 23-23 12.696 0 23 10.292 23 23" />
    </clipPath>
    <clipPath
       id="0-5">
      <path
         id="path215574"
         d="m26 0c-14.397 0-26 11.603-26 26v460c0 14.397 11.603 26 26 26h460c14.397 0 26-11.603 26-26v-460c0-14.397-11.603-26-26-26h-460" />
    </clipPath>
    <clipPath
       id="0-6">
      <path
         id="path216298"
         d="m26 0c-14.397 0-26 11.603-26 26v460c0 14.397 11.603 26 26 26h460c14.397 0 26-11.603 26-26v-460c0-14.397-11.603-26-26-26h-460" />
    </clipPath>
    <clipPath
       id="0-2">
      <path
         id="path216855"
         d="m26 0c-14.397 0-26 11.603-26 26v460c0 14.397 11.603 26 26 26h460c14.397 0 26-11.603 26-26v-460c0-14.397-11.603-26-26-26h-460" />
    </clipPath>
    <clipPath
       id="0-3">
      <path
         id="path217709"
         d="m26 0c-14.397 0-26 11.603-26 26v460c0 14.397 11.603 26 26 26h460c14.397 0 26-11.603 26-26v-460c0-14.397-11.603-26-26-26h-460" />
    </clipPath>
    <clipPath
       id="0-9">
      <path
         id="path218385"
         d="m26 0c-14.397 0-26 11.603-26 26v460c0 14.397 11.603 26 26 26h460c14.397 0 26-11.603 26-26v-460c0-14.397-11.603-26-26-26h-460" />
    </clipPath>
    <path
       style="fill:#fff"
       id="0-62"
       d="m350.45 319.42v-94.57h-3.967v53.54c0 5.293-.771 10.322-2.35 15.06-1.579 4.813-3.967 9.03-7.126 12.738-3.046 3.563-6.863 6.468-11.497 8.668-4.588 2.096-9.956 3.121-16.01 3.121-4.371 0-8.517-.62-12.485-1.73-3.817-1.25-7.239-3.01-10.285-5.547-2.905-2.538-5.218-5.688-6.9-9.551-1.73-3.93-1.871-8.781-1.871-14.318l-3.892.62c0 1.467 0 3.121 0 4.484.216 3.779.555 7.239 1.796 10.388 1.833 4.118 4.334 7.643 7.53 10.689 3.272 2.792 7.126 4.954 11.46 6.43 4.484 1.363 9.363 2.02 14.656 2.02 10.02 0 18.14-2.388 24.349-7.164 6.317-4.813 10.388-10.868 12.268-18.247h.367v23.39h3.93" />
    <path
       style="fill:#fff"
       id="1-2"
       d="m266.25 199.7h3.779c0-22.656 20.344-34.521 40.43-34.521 10.209 0 19.611 3.01 26.473 8.48 7.746 6.205 11.826 15.201 11.826 26.04h3.779c0-11.902-4.55-21.81-13.14-28.682-7.568-6.06-17.843-9.363-28.936-9.363-21.961 0-44.21 13.08-44.21 38.05" />
    <path
       style="fill:#fff"
       id="2-6"
       d="m306.11 197.69c0-2.313 2.059-4.221 4.55-4.221 2.501 0 4.512 1.908 4.512 4.221 0 2.35-2.02 4.221-4.512 4.221-2.538 0-4.55-1.871-4.55-4.221" />
    <clipPath
       id="3-2">
      <path
         id="path218955"
         d="m47 24c0 12.708-10.304 23-23 23-12.696 0-23-10.292-23-23 0-12.708 10.304-23 23-23 12.696 0 23 10.292 23 23" />
    </clipPath>
    <clipPath
       id="0-91">
      <path
         id="path257138"
         d="m26 0c-14.397 0-26 11.603-26 26v460c0 14.397 11.603 26 26 26h460c14.397 0 26-11.603 26-26v-460c0-14.397-11.603-26-26-26h-460" />
    </clipPath>
    <clipPath
       id="0-68">
      <path
         id="path257646"
         d="m26 0c-14.397 0-26 11.603-26 26v460c0 14.397 11.603 26 26 26h460c14.397 0 26-11.603 26-26v-460c0-14.397-11.603-26-26-26h-460" />
    </clipPath>
    <clipPath
       id="0-1">
      <path
         id="path258305"
         d="m26 0c-14.397 0-26 11.603-26 26v460c0 14.397 11.603 26 26 26h460c14.397 0 26-11.603 26-26v-460c0-14.397-11.603-26-26-26h-460" />
    </clipPath>
    <clipPath
       id="0-0">
      <path
         id="path259585"
         d="m26 0c-14.397 0-26 11.603-26 26v460c0 14.397 11.603 26 26 26h460c14.397 0 26-11.603 26-26v-460c0-14.397-11.603-26-26-26h-460" />
    </clipPath>
    <clipPath
       id="0-67">
      <path
         id="path261091"
         d="m26 0c-14.397 0-26 11.603-26 26v460c0 14.397 11.603 26 26 26h460c14.397 0 26-11.603 26-26v-460c0-14.397-11.603-26-26-26h-460" />
    </clipPath>
    <linearGradient
       y1="513.8"
       x2="0"
       y2="1.346"
       id="1-8"
       gradientUnits="userSpaceOnUse"
       gradientTransform="translate(-390.02688,-211.46494)">
      <stop
         id="stop261094"
         style="stop-color:#1e1e56" />
      <stop
         id="stop261096"
         style="stop-color:#2c2c7c"
         offset=".5" />
      <stop
         id="stop261098"
         style="stop-color:#1e1e56"
         offset="1" />
    </linearGradient>
    <clipPath
       id="0-95">
      <path
         id="path261361"
         d="m26 0c-14.397 0-26 11.603-26 26v460c0 14.397 11.603 26 26 26h460c14.397 0 26-11.603 26-26v-460c0-14.397-11.603-26-26-26h-460" />
    </clipPath>
    <clipPath
       id="0-20">
      <path
         id="path266888"
         d="m26 0c-14.397 0-26 11.603-26 26v460c0 14.397 11.603 26 26 26h460c14.397 0 26-11.603 26-26v-460c0-14.397-11.603-26-26-26h-460" />
    </clipPath>
  </defs>
  <text
     sodipodi:linespacing="125%"
     y="-61.54895"
     x="-535.37103"
     line-height="125%"
     style="font-size:129.22999573px;line-height:125%;font-family:'Gentium Book Basic';letter-spacing:0;word-spacing:0"
     id="text266892">
    <tspan
       y="-61.54895"
       x="-535.37103"
       id="tspan266894" />
  </text>
  <text
     transform="scale(4.0128205,0.24920128)"
     y="-596.13129"
     x="63.66341"
     style="font-size:46.95399857px;font-family:Arial;text-anchor:middle"
     id="text266896" />
  <text
     sodipodi:linespacing="125%"
     y="-141.54895"
     x="45.898945"
     line-height="125%"
     style="font-size:129.22999573px;line-height:125%;font-family:'Gentium Book Basic';letter-spacing:0;word-spacing:0"
     id="text266898">
    <tspan
       y="-141.54895"
       x="45.898945"
       id="tspan266900" />
  </text>
  <text
     transform="scale(4.0128205,0.24920128)"
     y="-917.16962"
     x="208.51266"
     style="font-size:46.95399857px;font-family:Arial;text-anchor:middle"
     id="text266902" />
  <text
     sodipodi:linespacing="125%"
     y="-322.80893"
     x="-1025.681"
     line-height="125%"
     style="font-size:129.22999573px;line-height:125%;font-family:'Gentium Book Basic';letter-spacing:0;word-spacing:0"
     id="text266904">
    <tspan
       y="-322.80893"
       x="-1025.681"
       id="tspan266906" />
  </text>
  <text
     transform="scale(4.0128205,0.24920128)"
     y="-1644.5159"
     x="-58.523964"
     style="font-size:46.95399857px;font-family:Arial;text-anchor:middle"
     id="text266908" />
  <text
     sodipodi:linespacing="125%"
     y="-539.27893"
     x="72.368942"
     line-height="125%"
     style="font-size:129.22999573px;line-height:125%;font-family:'Gentium Book Basic';letter-spacing:0;word-spacing:0"
     id="text266910">
    <tspan
       y="-539.27893"
       x="72.368942"
       id="tspan266912" />
  </text>
  <text
     transform="scale(4.0128205,0.24920128)"
     y="-2513.1814"
     x="215.11264"
     style="font-size:46.95399857px;font-family:Arial;text-anchor:middle"
     id="text266914" />
  <text
     sodipodi:linespacing="125%"
     y="-619.27893"
     x="653.63898"
     line-height="125%"
     style="font-size:129.22999573px;line-height:125%;font-family:'Gentium Book Basic';letter-spacing:0;word-spacing:0"
     id="text266916">
    <tspan
       y="-619.27893"
       x="653.63898"
       id="tspan266918" />
  </text>
  <text
     transform="scale(4.0128205,0.24920128)"
     y="-2834.2097"
     x="359.96188"
     style="font-size:46.95399857px;font-family:Arial;text-anchor:middle"
     id="text266920" />
  <text
     sodipodi:linespacing="125%"
     y="-1091.679"
     x="264.51895"
     line-height="125%"
     style="font-size:129.22999573px;line-height:125%;font-family:'Gentium Book Basic';letter-spacing:0;word-spacing:0"
     id="text266922">
    <tspan
       y="-1091.679"
       x="264.51895"
       id="tspan266924" />
  </text>
  <text
     transform="scale(4.0128205,0.24920128)"
     y="-4729.8501"
     x="262.99237"
     style="font-size:46.95399857px;font-family:Arial;text-anchor:middle"
     id="text266926" />
  <text
     sodipodi:linespacing="125%"
     y="-1171.689"
     x="845.77893"
     line-height="125%"
     style="font-size:129.22999573px;line-height:125%;font-family:'Gentium Book Basic';letter-spacing:0;word-spacing:0"
     id="text266928">
    <tspan
       y="-1171.689"
       x="845.77893"
       id="tspan266930" />
  </text>
  <text
     transform="scale(4.0128205,0.24920128)"
     y="-5050.8882"
     x="407.84164"
     style="font-size:46.95399857px;font-family:Arial;text-anchor:middle"
     id="text266932" />
  <text
     sodipodi:linespacing="125%"
     y="243.03105"
     x="-987.02106"
     line-height="125%"
     style="font-size:208.33000183px;line-height:125%;font-family:'Gentium Book Basic';letter-spacing:0;word-spacing:0"
     id="text266934">
    <tspan
       y="243.03105"
       x="-987.02106"
       id="tspan266936" />
  </text>
  <g
     id="g267226"
     transform="translate(121.01106,108.90858)">
    <path
       id="path266890"
       style="fill:#8db173"
       d="m -95.01106,-108.90895 c -14.397,0 -26,11.603 -26,26 l 0,460 c 0,14.397 11.603,26 26,26 l 460,0 c 14.397,0 26,-11.603 26,-26 l 0,-460 c 0,-14.397 -11.603,-26 -26,-26 l -460,0"
       inkscape:connector-curvature="0" />
    <path
       id="path266940"
       d="m 72.808594,-67.908203 c -109.81,0 -110.279297,118.238281 -110.279297,118.238281 l 73.138672,73.138672 0,0.0117 -73.138672,-73.138673 0,134.439453 c 0,25.26 17.325219,58.94231 34.1992186,75.82031 l 0.050781,0.0488 59.2890624,59.28906 0,0.002 c 3.050416,9.04165 8.196863,17.02008 14.714844,23.53906 l 59.611327,59.61133 234.59375,0 c 14.397,0 26,-11.603 26,-26 l 0,-302.220706 -125.36914,-125.369141 -25.51758,0 -0.0117,-0.01172 -25.58007,67.191407 -12.25391,0 -56.83789,-56.837891 c -16.16,-16.16 -39.34938,-27.751953 -72.609376,-27.751953 z"
       style="opacity:0.25;fill-rule:evenodd"
       inkscape:connector-curvature="0" />
    <path
       id="path267028"
       style="fill:#ffffff;fill-rule:evenodd"
       d="m 72.80894,-67.90895 c -109.81,0 -110.28,118.24 -110.28,118.24 l 0,134.44 c 0,25.288 17.36,59.01 34.25,75.867 29.862,29.802 50.51,25.525 50.51,25.525 0,0 0.28,8.31 8.726,33.596 8.446,25.288 33.29,42.32 58.63,42.32 25.339,0 34.25,-8.726 34.25,-8.726 l 0,-33.596 c 0,0 -8.634,0.301 -25.525,-8.126 -16.896,-8.43 -16.853,-25.47 -16.853,-25.47 0,0 25.17,-8.31 50.51,-33.596 25.339,-25.288 25.579,-67.798 25.579,-67.798 l 0,-126.37 c 0,0 0.01,-126.32 -109.79,-126.32 m 167.28,17.399 -25.579,67.19 -16.853,0 0,33.651 16.853,0 0,177.32 c 0,0 0.147,41.719 42.38,41.719 42.23,0 50.56,-16.798 50.56,-16.798 l 0,-32.452 c -0.792,2.371 -4.183,7.527 -16.853,7.527 -16.893,0 -24.979,-16.798 -24.979,-16.798 l 0,-160.51 41.832,0 0,-33.651 -41.832,0 0,-67.19 -25.525,0 m -162.04,24.924 c 42.24,0 42.38,41.719 42.38,41.719 l 0,168.64 c 0,0 -0.147,59.07 -42.38,59.07 -42.24,0 -42.38,-59.07 -42.38,-59.07 l 0,-159.96 c 0,0 0.147,-50.4 42.38,-50.4"
       inkscape:connector-curvature="0" />
  </g>
</svg>
