<?xml version="1.0" encoding="UTF-8" standalone="no"?>
<svg
   xmlns:dc="http://purl.org/dc/elements/1.1/"
   xmlns:cc="http://creativecommons.org/ns#"
   xmlns:rdf="http://www.w3.org/1999/02/22-rdf-syntax-ns#"
   xmlns:svg="http://www.w3.org/2000/svg"
   xmlns="http://www.w3.org/2000/svg"
   xmlns:sodipodi="http://sodipodi.sourceforge.net/DTD/sodipodi-0.dtd"
   xmlns:inkscape="http://www.inkscape.org/namespaces/inkscape"
   viewBox="0 0 512 512"
   id="svg2"
   version="1.1"
   inkscape:version="0.91+devel r13804 custom"
   sodipodi:docname="qtconfig.svg">
  <metadata
     id="metadata77">
    <rdf:RDF>
      <cc:Work
         rdf:about="">
        <dc:format>image/svg+xml</dc:format>
        <dc:type
           rdf:resource="http://purl.org/dc/dcmitype/StillImage" />
        <dc:title></dc:title>
      </cc:Work>
    </rdf:RDF>
  </metadata>
  <sodipodi:namedview
     pagecolor="#ffffff"
     bordercolor="#666666"
     borderopacity="1"
     objecttolerance="10"
     gridtolerance="10"
     guidetolerance="10"
     inkscape:pageopacity="0"
     inkscape:pageshadow="2"
     inkscape:window-width="1366"
     inkscape:window-height="709"
     id="namedview75"
     showgrid="false"
     inkscape:zoom="0.32593203"
     inkscape:cx="-11.678728"
     inkscape:cy="95.710196"
     inkscape:window-x="-2"
     inkscape:window-y="-3"
     inkscape:window-maximized="1"
     inkscape:current-layer="svg2"
     showguides="true" />
  <defs
     id="defs4">
    <path
       style="fill:#fff"
       id="0"
       d="m350.45 319.42v-94.57h-3.967v53.54c0 5.293-.771 10.322-2.35 15.06-1.579 4.813-3.967 9.03-7.126 12.738-3.046 3.563-6.863 6.468-11.497 8.668-4.588 2.096-9.956 3.121-16.01 3.121-4.371 0-8.517-.62-12.485-1.73-3.817-1.25-7.239-3.01-10.285-5.547-2.905-2.538-5.218-5.688-6.9-9.551-1.73-3.93-1.871-8.781-1.871-14.318l-3.892.62c0 1.467 0 3.121 0 4.484.216 3.779.555 7.239 1.796 10.388 1.833 4.118 4.334 7.643 7.53 10.689 3.272 2.792 7.126 4.954 11.46 6.43 4.484 1.363 9.363 2.02 14.656 2.02 10.02 0 18.14-2.388 24.349-7.164 6.317-4.813 10.388-10.868 12.268-18.247h.367v23.39h3.93" />
    <path
       style="fill:#fff"
       id="1"
       d="m266.25 199.7h3.779c0-22.656 20.344-34.521 40.43-34.521 10.209 0 19.611 3.01 26.473 8.48 7.746 6.205 11.826 15.201 11.826 26.04h3.779c0-11.902-4.55-21.81-13.14-28.682-7.568-6.06-17.843-9.363-28.936-9.363-21.961 0-44.21 13.08-44.21 38.05" />
    <path
       style="fill:#fff"
       id="2"
       d="m306.11 197.69c0-2.313 2.059-4.221 4.55-4.221 2.501 0 4.512 1.908 4.512 4.221 0 2.35-2.02 4.221-4.512 4.221-2.538 0-4.55-1.871-4.55-4.221" />
    <clipPath
       id="3">
      <path
         id="path177367"
         d="m47 24c0 12.708-10.304 23-23 23-12.696 0-23-10.292-23-23 0-12.708 10.304-23 23-23 12.696 0 23 10.292 23 23" />
    </clipPath>
    <clipPath
       id="0-5">
      <path
         id="path215574"
         d="m26 0c-14.397 0-26 11.603-26 26v460c0 14.397 11.603 26 26 26h460c14.397 0 26-11.603 26-26v-460c0-14.397-11.603-26-26-26h-460" />
    </clipPath>
    <clipPath
       id="0-6">
      <path
         id="path216298"
         d="m26 0c-14.397 0-26 11.603-26 26v460c0 14.397 11.603 26 26 26h460c14.397 0 26-11.603 26-26v-460c0-14.397-11.603-26-26-26h-460" />
    </clipPath>
    <clipPath
       id="0-2">
      <path
         id="path216855"
         d="m26 0c-14.397 0-26 11.603-26 26v460c0 14.397 11.603 26 26 26h460c14.397 0 26-11.603 26-26v-460c0-14.397-11.603-26-26-26h-460" />
    </clipPath>
    <clipPath
       id="0-3">
      <path
         id="path217709"
         d="m26 0c-14.397 0-26 11.603-26 26v460c0 14.397 11.603 26 26 26h460c14.397 0 26-11.603 26-26v-460c0-14.397-11.603-26-26-26h-460" />
    </clipPath>
    <clipPath
       id="0-9">
      <path
         id="path218385"
         d="m26 0c-14.397 0-26 11.603-26 26v460c0 14.397 11.603 26 26 26h460c14.397 0 26-11.603 26-26v-460c0-14.397-11.603-26-26-26h-460" />
    </clipPath>
    <path
       style="fill:#fff"
       id="0-62"
       d="m350.45 319.42v-94.57h-3.967v53.54c0 5.293-.771 10.322-2.35 15.06-1.579 4.813-3.967 9.03-7.126 12.738-3.046 3.563-6.863 6.468-11.497 8.668-4.588 2.096-9.956 3.121-16.01 3.121-4.371 0-8.517-.62-12.485-1.73-3.817-1.25-7.239-3.01-10.285-5.547-2.905-2.538-5.218-5.688-6.9-9.551-1.73-3.93-1.871-8.781-1.871-14.318l-3.892.62c0 1.467 0 3.121 0 4.484.216 3.779.555 7.239 1.796 10.388 1.833 4.118 4.334 7.643 7.53 10.689 3.272 2.792 7.126 4.954 11.46 6.43 4.484 1.363 9.363 2.02 14.656 2.02 10.02 0 18.14-2.388 24.349-7.164 6.317-4.813 10.388-10.868 12.268-18.247h.367v23.39h3.93" />
    <path
       style="fill:#fff"
       id="1-2"
       d="m266.25 199.7h3.779c0-22.656 20.344-34.521 40.43-34.521 10.209 0 19.611 3.01 26.473 8.48 7.746 6.205 11.826 15.201 11.826 26.04h3.779c0-11.902-4.55-21.81-13.14-28.682-7.568-6.06-17.843-9.363-28.936-9.363-21.961 0-44.21 13.08-44.21 38.05" />
    <path
       style="fill:#fff"
       id="2-6"
       d="m306.11 197.69c0-2.313 2.059-4.221 4.55-4.221 2.501 0 4.512 1.908 4.512 4.221 0 2.35-2.02 4.221-4.512 4.221-2.538 0-4.55-1.871-4.55-4.221" />
    <clipPath
       id="3-2">
      <path
         id="path218955"
         d="m47 24c0 12.708-10.304 23-23 23-12.696 0-23-10.292-23-23 0-12.708 10.304-23 23-23 12.696 0 23 10.292 23 23" />
    </clipPath>
    <clipPath
       id="0-91">
      <path
         id="path257138"
         d="m26 0c-14.397 0-26 11.603-26 26v460c0 14.397 11.603 26 26 26h460c14.397 0 26-11.603 26-26v-460c0-14.397-11.603-26-26-26h-460" />
    </clipPath>
    <clipPath
       id="0-68">
      <path
         id="path257646"
         d="m26 0c-14.397 0-26 11.603-26 26v460c0 14.397 11.603 26 26 26h460c14.397 0 26-11.603 26-26v-460c0-14.397-11.603-26-26-26h-460" />
    </clipPath>
    <clipPath
       id="0-1">
      <path
         id="path258305"
         d="m26 0c-14.397 0-26 11.603-26 26v460c0 14.397 11.603 26 26 26h460c14.397 0 26-11.603 26-26v-460c0-14.397-11.603-26-26-26h-460" />
    </clipPath>
    <clipPath
       id="0-0">
      <path
         id="path259585"
         d="m26 0c-14.397 0-26 11.603-26 26v460c0 14.397 11.603 26 26 26h460c14.397 0 26-11.603 26-26v-460c0-14.397-11.603-26-26-26h-460" />
    </clipPath>
    <clipPath
       id="0-67">
      <path
         id="path261091"
         d="m26 0c-14.397 0-26 11.603-26 26v460c0 14.397 11.603 26 26 26h460c14.397 0 26-11.603 26-26v-460c0-14.397-11.603-26-26-26h-460" />
    </clipPath>
    <linearGradient
       y1="513.8"
       x2="0"
       y2="1.346"
       id="1-8"
       gradientUnits="userSpaceOnUse"
       gradientTransform="translate(-390.02688,-211.46494)">
      <stop
         id="stop261094"
         style="stop-color:#1e1e56" />
      <stop
         id="stop261096"
         style="stop-color:#2c2c7c"
         offset=".5" />
      <stop
         id="stop261098"
         style="stop-color:#1e1e56"
         offset="1" />
    </linearGradient>
    <clipPath
       id="0-95">
      <path
         id="path261361"
         d="m26 0c-14.397 0-26 11.603-26 26v460c0 14.397 11.603 26 26 26h460c14.397 0 26-11.603 26-26v-460c0-14.397-11.603-26-26-26h-460" />
    </clipPath>
    <clipPath
       id="0-20">
      <path
         id="path266888"
         d="m26 0c-14.397 0-26 11.603-26 26v460c0 14.397 11.603 26 26 26h460c14.397 0 26-11.603 26-26v-460c0-14.397-11.603-26-26-26h-460" />
    </clipPath>
    <clipPath
       id="0-23">
      <path
         id="path267406"
         d="m26 0c-14.397 0-26 11.603-26 26v460c0 14.397 11.603 26 26 26h460c14.397 0 26-11.603 26-26v-460c0-14.397-11.603-26-26-26h-460" />
    </clipPath>
  </defs>
  <text
     sodipodi:linespacing="125%"
     y="138.16241"
     x="-673.74219"
     line-height="125%"
     style="font-size:129.22999573px;line-height:125%;font-family:'Gentium Book Basic';letter-spacing:0;word-spacing:0"
     id="text267410">
    <tspan
       y="138.16241"
       x="-673.74219"
       id="tspan267412" />
  </text>
  <text
     transform="scale(4.0128205,0.24920128)"
     y="205.25685"
     x="29.182644"
     style="font-size:46.95399857px;font-family:Arial;text-anchor:middle"
     id="text267414" />
  <text
     sodipodi:linespacing="125%"
     y="58.162415"
     x="-92.472191"
     line-height="125%"
     style="font-size:129.22999573px;line-height:125%;font-family:'Gentium Book Basic';letter-spacing:0;word-spacing:0"
     id="text267416">
    <tspan
       y="58.162415"
       x="-92.472191"
       id="tspan267418" />
  </text>
  <text
     transform="scale(4.0128205,0.24920128)"
     y="-115.7715"
     x="174.02789"
     style="font-size:46.95399857px;font-family:Arial;text-anchor:middle"
     id="text267420" />
  <text
     sodipodi:linespacing="125%"
     y="-123.09859"
     x="-1164.0521"
     line-height="125%"
     style="font-size:129.22999573px;line-height:125%;font-family:'Gentium Book Basic';letter-spacing:0;word-spacing:0"
     id="text267422">
    <tspan
       y="-123.09859"
       x="-1164.0521"
       id="tspan267424" />
  </text>
  <text
     transform="scale(4.0128205,0.24920128)"
     y="-843.1178"
     x="-93.000732"
     style="font-size:46.95399857px;font-family:Arial;text-anchor:middle"
     id="text267426" />
  <text
     sodipodi:linespacing="125%"
     y="-339.56757"
     x="-66.00219"
     line-height="125%"
     style="font-size:129.22999573px;line-height:125%;font-family:'Gentium Book Basic';letter-spacing:0;word-spacing:0"
     id="text267428">
    <tspan
       y="-339.56757"
       x="-66.00219"
       id="tspan267430" />
  </text>
  <text
     transform="scale(4.0128205,0.24920128)"
     y="-1711.7833"
     x="180.62787"
     style="font-size:46.95399857px;font-family:Arial;text-anchor:middle"
     id="text267432" />
  <text
     sodipodi:linespacing="125%"
     y="-419.57758"
     x="515.26782"
     line-height="125%"
     style="font-size:129.22999573px;line-height:125%;font-family:'Gentium Book Basic';letter-spacing:0;word-spacing:0"
     id="text267434">
    <tspan
       y="-419.57758"
       x="515.26782"
       id="tspan267436" />
  </text>
  <text
     transform="scale(4.0128205,0.24920128)"
     y="-2032.8218"
     x="325.47711"
     style="font-size:46.95399857px;font-family:Arial;text-anchor:middle"
     id="text267438" />
  <text
     sodipodi:linespacing="125%"
     y="-891.9776"
     x="126.14781"
     line-height="125%"
     style="font-size:129.22999573px;line-height:125%;font-family:'Gentium Book Basic';letter-spacing:0;word-spacing:0"
     id="text267440">
    <tspan
       y="-891.9776"
       x="126.14781"
       id="tspan267442" />
  </text>
  <text
     transform="scale(4.0128205,0.24920128)"
     y="-3928.4619"
     x="228.50761"
     style="font-size:46.95399857px;font-family:Arial;text-anchor:middle"
     id="text267444" />
  <text
     sodipodi:linespacing="125%"
     y="-971.9776"
     x="707.40778"
     line-height="125%"
     style="font-size:129.22999573px;line-height:125%;font-family:'Gentium Book Basic';letter-spacing:0;word-spacing:0"
     id="text267446">
    <tspan
       y="-971.9776"
       x="707.40778"
       id="tspan267448" />
  </text>
  <text
     transform="scale(4.0128205,0.24920128)"
     y="-4249.4805"
     x="373.35687"
     style="font-size:46.95399857px;font-family:Arial;text-anchor:middle"
     id="text267450" />
  <g
     line-height="125%"
     style="line-height:125%;font-family:'Gentium Book Basic';letter-spacing:0;word-spacing:0"
     id="g267452"
     transform="translate(-143.38219,-49.197585)">
    <text
       y="491.94"
       x="-982.01001"
       style="font-size:208.33000183px"
       id="text267454">
      <tspan
         y="491.94"
         x="-982.01001"
         id="tspan267456" />
    </text>
    <text
       y="-431.39999"
       x="-66.279999"
       style="font-size:129.22999573px"
       id="text267458">
      <tspan
         y="-431.39999"
         x="-66.279999"
         id="tspan267460" />
    </text>
  </g>
  <text
     transform="scale(4.0128205,0.24920128)"
     y="-2277.6904"
     x="144.82805"
     style="font-size:46.95399857px;font-family:Arial;text-anchor:middle"
     id="text267462" />
  <text
     sodipodi:linespacing="125%"
     y="-560.5976"
     x="371.60779"
     line-height="125%"
     style="font-size:129.22999573px;line-height:125%;font-family:'Gentium Book Basic';letter-spacing:0;word-spacing:0"
     id="text267464">
    <tspan
       y="-560.5976"
       x="371.60779"
       id="tspan267466" />
  </text>
  <text
     transform="scale(4.0128205,0.24920128)"
     y="-2598.7288"
     x="289.67731"
     style="font-size:46.95399857px;font-family:Arial;text-anchor:middle"
     id="text267468" />
  <text
     sodipodi:linespacing="125%"
     y="-741.85754"
     x="-699.97223"
     line-height="125%"
     style="font-size:129.22999573px;line-height:125%;font-family:'Gentium Book Basic';letter-spacing:0;word-spacing:0"
     id="text267470">
    <tspan
       y="-741.85754"
       x="-699.97223"
       id="tspan267472" />
  </text>
  <text
     transform="scale(4.0128205,0.24920128)"
     y="-3326.075"
     x="22.638676"
     style="font-size:46.95399857px;font-family:Arial;text-anchor:middle"
     id="text267474" />
  <text
     sodipodi:linespacing="125%"
     y="-958.32758"
     x="398.07782"
     line-height="125%"
     style="font-size:129.22999573px;line-height:125%;font-family:'Gentium Book Basic';letter-spacing:0;word-spacing:0"
     id="text267476">
    <tspan
       y="-958.32758"
       x="398.07782"
       id="tspan267478" />
  </text>
  <text
     transform="scale(4.0128205,0.24920128)"
     y="-4194.7305"
     x="296.26727"
     style="font-size:46.95399857px;font-family:Arial;text-anchor:middle"
     id="text267480" />
  <text
     sodipodi:linespacing="125%"
     y="-1038.3376"
     x="979.33777"
     line-height="125%"
     style="font-size:129.22999573px;line-height:125%;font-family:'Gentium Book Basic';letter-spacing:0;word-spacing:0"
     id="text267482">
    <tspan
       y="-1038.3376"
       x="979.33777"
       id="tspan267484" />
  </text>
  <text
     transform="scale(4.0128205,0.24920128)"
     y="-4515.769"
     x="441.12653"
     style="font-size:46.95399857px;font-family:Arial;text-anchor:middle"
     id="text267486" />
  <text
     sodipodi:linespacing="125%"
     y="-1510.7377"
     x="590.21777"
     line-height="125%"
     style="font-size:129.22999573px;line-height:125%;font-family:'Gentium Book Basic';letter-spacing:0;word-spacing:0"
     id="text267488">
    <tspan
       y="-1510.7377"
       x="590.21777"
       id="tspan267490" />
  </text>
  <text
     transform="scale(4.0128205,0.24920128)"
     y="-6411.4092"
     x="344.15704"
     style="font-size:46.95399857px;font-family:Arial;text-anchor:middle"
     id="text267492" />
  <text
     sodipodi:linespacing="125%"
     y="-1590.7377"
     x="1171.4878"
     line-height="125%"
     style="font-size:129.22999573px;line-height:125%;font-family:'Gentium Book Basic';letter-spacing:0;word-spacing:0"
     id="text267494">
    <tspan
       y="-1590.7377"
       x="1171.4878"
       id="tspan267496" />
  </text>
  <text
     transform="scale(4.0128205,0.24920128)"
     y="-6732.4478"
     x="489.00629"
     style="font-size:46.95399857px;font-family:Arial;text-anchor:middle"
     id="text267498" />
  <g
     line-height="125%"
     style="line-height:125%;font-family:'Gentium Book Basic';letter-spacing:0;word-spacing:0"
     id="g267500"
     transform="translate(-143.38219,-49.197585)">
    <text
       y="-126.82"
       x="-517.94"
       style="font-size:208.33000183px"
       id="text267502">
      <tspan
         y="-126.82"
         x="-517.94"
         id="tspan267504" />
    </text>
    <text
       transform="scale(0.95972,1.04197)"
       y="319.48999"
       x="-619.53998"
       style="font-size:109.26999664px;fill:#ffffff"
       id="text267506">
      <tspan
         y="319.48999"
         x="-619.53998"
         id="tspan267508" />
    </text>
    <text
       y="-284.81"
       x="-2220.3701"
       style="font-size:180.55999756px"
       id="text267510">
      <tspan
         y="-284.81"
         x="-2220.3701"
         id="tspan267512" />
    </text>
  </g>
  <g
     id="g268419"
     transform="translate(143.38219,49.197262)">
    <path
       id="path267408"
       style="fill:#8db173"
       d="m -117.38219,-49.197585 c -14.397,0 -26,11.603 -26,26 l 0,459.999995 c 0,14.397 11.603,26 26,26 l 460,0 c 14.397,0 26,-11.603 26,-26 l 0,-459.999995 c 0,-14.397 -11.603,-26 -26,-26 l -460,0"
       inkscape:connector-curvature="0" />
    <path
       id="path267514"
       style="fill:#ffffff;fill-opacity:0.969"
       d="m 204.63781,297.12241 c -1.777,-0.788 -2.955,-1.835 -3.529,-3.135 -0.754,-1.707 -2.912,-2.35 -6.998,-2.083 -4.583,0.3 -5.189,0.611 -7.213,3.702 -2.475,3.78 -3.345,4.01 -8.163,2.153 -4.826,-1.86 -5.354,-2.61399 -5.172,-7.391 0.147,-3.891 0.271,-3.634 -3.544,-7.345 -3.499,-3.402 -4.426,-3.742 -8.07,-2.961 -3.466,0.744 -4.37,0.097 -6.446,-4.606 -2.077,-4.706 -1.967,-6.072 0.714,-8.854 2.354,-2.445 2.713,-3.454 2.64,-7.431 -0.096,-5.253 -0.636,-6.63 -3.517,-8.964 -3.217,-2.606 -3.487,-3.801 -1.954,-8.65 1.36,-4.301 3.786,-6.31099 6.742,-5.586 2.438,0.598 3.481,0.054 6.424,-3.348 3.239,-3.744 3.687,-5.02 3.185,-9.04 -0.552,-4.416 -0.211,-4.994 4.357,-7.371 4.93,-2.565 5.506,-2.388 9.748,2.989 0.674,0.854 2.229,0.991 7.696,0.677 2.64,-0.151 3.487,-0.71 5.46,-3.602 2.637,-3.864 3.968,-4.159 9.05,-1.989 3.453,1.47301 4.767,3.871 4.128,7.532 -0.424,2.428 0.24,3.728 3.549,6.96301 3.507,3.42799 4.123,3.66199 7.913,3.01999 4.206,-0.718 5.04,-0.074 7.348,5.69601 1.936,4.834 1.861,6.02999 -0.485,7.802 -3.159,2.378 -3.674,3.661 -3.438,8.564 0.243,5.04 0.732,5.981 4.331,8.337 2.45,1.604 2.693,3.91 0.946,8.957 -1.488,4.297 -3.171,5.415 -7.156,4.751 -2.582,-0.43 -2.901,-0.233 -6.359,3.93 -3.168,3.814 -3.383,4.616 -2.429,9.1 0.717,3.372 0.099,4.282 -4.546,6.699 -3.572,1.858 -4.062,1.998 -5.214,1.488 m -2.622,-32.18 c 5.82,-7.813 2.934,-19.02 -5.793,-22.501 -8.987,-3.581 -18.233,4.269 -17.358,14.738 1.056,12.658 15.818,17.604 23.15,7.76"
       inkscape:connector-curvature="0" />
    <path
       id="path267518"
       d="m -22.322266,68.267578 71.617188,71.617192 c 1.47e-4,0.001 -1.47e-4,0.003 0,0.004 l -71.617188,-71.617186 0,0.03125 c -72.36,0 -72.689453,76.160156 -72.689453,76.160156 l 0.0098,0.01 0,86.61914 c 0.0045,16.08889 11.143106,37.4536 22.128906,48.4414 l 0.429688,0.42969 39.644531,39.64453 c 1.995406,5.08952 5.046033,9.62611 8.832031,13.41211 l 0.158203,0.1582 c -0.05371,-0.0531 -0.110639,-0.10282 -0.164062,-0.15625 l 129.781242,129.78125 236.8086,0 c 14.397,0 26,-11.603 26,-26 l 0,-240.7207 -61.51953,-61.51953 c -2.49238,-2.49237 -4.36302,-2.24008 -8.34766,-0.44727 l -0.002,-0.002 c -1.63117,0.73444 -2.84051,1.22216 -3.92383,1.43555 l -17.8457,-17.84571 -0.002,-0.002 -0.002,-0.002 c -1.33552,-1.33348 -3.22829,-2.167 -5.71289,-2.54297 l -0.0137,-0.0137 c -1.965,-0.295 -3.563,-0.4565 -4.875,-0.4375 l 43.04101,43.04101 c -3e-5,0.005 3e-5,0.009 0,0.0137 l -43.04687,-43.04688 c -3.936,0.058 -5.39925,1.76775 -7.28125,6.59375 -1.87891,4.80826 -2.91293,5.93046 -6.5918,7.12109 l 0.004,0.004 c -7.622,2.467 -9.84355,2.832 -11.06055,1.875 l 29.42969,29.42969 c -0.003,-0.001 -0.007,-0.003 -0.01,-0.004 L 241.42745,130.3029 c -7.676,-6.02 -8.56475,-6.03974 -14.71875,-0.59375 l 30.19922,30.19922 c -10e-4,6e-4 -0.003,0.001 -0.004,0.002 L 226.70665,129.7131 c -5.704,5.05 -5.9785,5.966 -3.8125,12 l 0.006,0.006 c 1.97055,5.48821 1.73749,7.48138 -1.6582,13.96289 l 0.004,0.004 c -3.0844,5.8883 -4.40021,7.03781 -8.02734,7.09179 l 66.16797,66.16797 c -10e-4,4.4e-4 -0.003,0.002 -0.004,0.002 L 213.2068,162.77196 c -4.401,0.071 -7.181,3.8 -7.75,10.375 -0.31548,3.64171 -0.28875,5.87435 0.45117,7.50586 L 104.74805,79.492188 l -16.812503,0 16.812503,16.8125 0,0.0078 -16.820316,-16.820312 -0.0293,0 0,0.002 -16.84375,43.277334 -8.908204,0 -36.128906,-36.128897 c -10.669,-10.669 -26.07984325,-18.375 -48.339844,-18.375 z"
       style="opacity:0.25;fill-rule:evenodd"
       inkscape:connector-curvature="0" />
    <path
       id="path267828"
       style="fill:#ffffff;fill-rule:evenodd"
       d="m -22.32219,68.272415 0,0.031 c -72.36,0 -72.69,76.159995 -72.69,76.159995 l 0,86.63 c 0,16.295 11.433,38.02 22.563,48.875 19.679,19.2 33.31,16.438 33.31,16.438 0,0 0.184,5.365 5.75,21.656 5.566,16.295 21.927,27.28 38.625,27.28 16.698,0 22.563,-5.625 22.563,-5.625 l 0,-21.656 c 0,0 -5.681,0.18 -16.813,-5.25 -11.134,-5.431 -11.09,-16.406 -11.09,-16.406 0,0 16.578,-5.334 33.28,-21.625 16.698,-16.295 16.844,-43.688 16.844,-43.688 l 0,-81.41 c 0,0 0.017,-81.409995 -72.34,-81.409995 m 110.22,11.219 -16.844,43.279995 -11.09,0 0,21.688 11.09,0 0,114.25 c 0,0 0.108,26.875 27.938,26.875 27.83,0 33.31,-10.813 33.31,-10.813 l 0,-20.938 c -0.522,1.527 -2.745,4.875 -11.09,4.875 -11.133,0 -16.469,-10.844 -16.469,-10.844 l 0,-103.41 27.563,0 0,-21.688 -27.563,0 0,-43.279995 -16.813,0 -0.031,0 m -106.75,16.06 c 27.836,0 27.906,26.874995 27.906,26.874995 l 0,108.66 c 0,0 -0.077,38.06 -27.906,38.06 -27.836,0 -27.938,-38.06 -27.938,-38.06 l 0,-103.06 c 0,0 0.108,-32.468995 27.938,-32.468995 m 285.22,19.159995 c -3.936,0.058 -5.399,1.768 -7.281,6.594 -1.88,4.81201 -2.914,5.934 -6.594,7.125 -7.622,2.467 -9.843,2.832 -11.06,1.875 -7.676,-6.02 -8.565,-6.04 -14.719,-0.594 -5.704,5.05 -5.979,5.966 -3.813,12 1.973,5.493 1.741,7.485 -1.656,13.969 -3.086,5.892 -4.402,7.04 -8.03,7.094 -4.401,0.071 -7.181,3.8 -7.75,10.375 -0.642,7.412 0.109,9.01 5.469,11.5 4.801,2.229 5.996,3.963 7.781,11.344 1.352,5.589 1.15,7.146 -1.406,11.469 -2.911,4.92201 -2.629,6.875 1.781,12.75 4.407,5.871 5.872,6.45801 10.531,4.125 4.896,-2.451 6.336,-2.32 12.344,1.188 6.554,3.826 6.301,3.515 7.313,9.06 1.246,6.81 2.229,7.692 9.625,8.531 7.384,0.83801 8.537,0.19 10.844,-6.06 1.887,-5.113 2.623,-5.78699 9,-7.906 5.684,-1.89 8.962,-1.788 10.563,0.344 1.219,1.624 3.181,2.67 5.938,3.125 1.787,0.295 2.448,-0.086 6.906,-4.03 5.8,-5.13299 6.384,-6.63 4.313,-11.125 -2.754,-5.976 -2.713,-7.192 0.563,-13.75 3.575,-7.157 3.97,-7.55799 7.75,-7.906 5.836,-0.536 7.874,-2.725 8.625,-9.344 0.881,-7.77099 -0.195,-10.955 -4.156,-12.31299 -5.82,-1.993 -6.793,-3.132 -8.719,-10.156 -1.874,-6.83501 -1.557,-8.84801 2.156,-13.375 2.758,-3.363 2.47,-5.08001 -1.781,-11.188 -5.074,-7.291 -6.444,-7.883 -12.156,-5.313 -5.146,2.317 -6.097,2.197 -12.12,-1.344 -5.689,-3.342 -7.02,-4.916 -7.188,-8.5 -0.248,-5.406 -2.849,-8.323 -8.188,-9.125 -1.965,-0.295 -3.563,-0.457 -4.875,-0.438 m -2.719,43.688 c 0.835,-0.015 1.699,0.048 2.563,0.156 13.412,1.678 21.01,16.442 15.25,29.625 -7.264,16.614 -29.659,15.07 -35.12,-2.406 -4.24,-13.554 4.785,-27.15 17.313,-27.375 m -62,54.53 c -1.863,-0.104 -3.01,0.92899 -4.656,3.34399 -1.973,2.892 -2.828,3.44201 -5.469,3.594 -5.467,0.31401 -7.01,0.198 -7.688,-0.656 -4.242,-5.377 -4.82,-5.565 -9.75,-3 -4.568,2.377 -4.895,2.959 -4.344,7.375 0.502,4.02 0.051,5.287 -3.188,9.03 -2.943,3.402 -4,3.942 -6.438,3.344 -2.956,-0.725 -5.359,1.292 -6.719,5.594 -1.533,4.848 -1.28,6.05 1.938,8.656 2.881,2.334 3.436,3.716 3.531,8.969 0.072,3.978 -0.302,4.993 -2.656,7.438 -2.681,2.782 -2.796,4.138 -0.719,8.844 2.076,4.703 3,5.338 6.469,4.594 3.644,-0.781 4.563,-0.433 8.06,2.969 3.815,3.711 3.679,3.453 3.531,7.344 -0.181,4.777 0.362,5.546 5.188,7.406 4.818,1.857 5.682,1.624 8.156,-2.156 2.024,-3.091 2.636,-3.419 7.219,-3.719 4.086,-0.267 6.246,0.386 7,2.094 0.574,1.3 1.754,2.337 3.531,3.125 1.151,0.51 1.616,0.389 5.188,-1.469 4.645,-2.417 5.28,-3.347 4.563,-6.719 -0.954,-4.483 -0.731,-5.279 2.438,-9.09 3.458,-4.163 3.762,-4.368 6.344,-3.938 3.985,0.664 5.668,-0.453 7.156,-4.75 1.747,-5.05 1.512,-7.334 -0.938,-8.938 -3.598,-2.356 -4.101,-3.305 -4.344,-8.344 -0.236,-4.903 0.279,-6.185 3.438,-8.563 2.346,-1.769 2.436,-2.97899 0.5,-7.81299 -2.309,-5.77 -3.137,-6.40601 -7.344,-5.688 -3.79,0.647 -4.43,0.397 -7.938,-3.03 -3.309,-3.235 -3.955,-4.541 -3.531,-6.969 0.639,-3.661 -0.672,-6.06 -4.125,-7.531 -1.907,-0.814 -3.288,-1.281 -4.406,-1.344 m -9.625,28.625 c 1.377,0.035 2.783,0.315 4.188,0.875 8.727,3.48 11.632,14.687 5.813,22.5 -7.334,9.844 -22.1,4.908 -23.16,-7.75 -0.739,-8.834 5.719,-15.814 13.156,-15.625"
       inkscape:connector-curvature="0" />
  </g>
</svg>
