<?xml version="1.0" encoding="UTF-8" standalone="no"?>
<svg
   xmlns:dc="http://purl.org/dc/elements/1.1/"
   xmlns:cc="http://creativecommons.org/ns#"
   xmlns:rdf="http://www.w3.org/1999/02/22-rdf-syntax-ns#"
   xmlns:svg="http://www.w3.org/2000/svg"
   xmlns="http://www.w3.org/2000/svg"
   xmlns:sodipodi="http://sodipodi.sourceforge.net/DTD/sodipodi-0.dtd"
   xmlns:inkscape="http://www.inkscape.org/namespaces/inkscape"
   viewBox="0 0 512 512"
   id="svg2"
   version="1.1"
   inkscape:version="0.91+devel r13804 custom"
   sodipodi:docname="quassel.svg">
  <metadata
     id="metadata77">
    <rdf:RDF>
      <cc:Work
         rdf:about="">
        <dc:format>image/svg+xml</dc:format>
        <dc:type
           rdf:resource="http://purl.org/dc/dcmitype/StillImage" />
        <dc:title></dc:title>
      </cc:Work>
    </rdf:RDF>
  </metadata>
  <sodipodi:namedview
     pagecolor="#ffffff"
     bordercolor="#666666"
     borderopacity="1"
     objecttolerance="10"
     gridtolerance="10"
     guidetolerance="10"
     inkscape:pageopacity="0"
     inkscape:pageshadow="2"
     inkscape:window-width="1366"
     inkscape:window-height="709"
     id="namedview75"
     showgrid="false"
     inkscape:zoom="0.32593203"
     inkscape:cx="-11.678728"
     inkscape:cy="95.710196"
     inkscape:window-x="-2"
     inkscape:window-y="-3"
     inkscape:window-maximized="1"
     inkscape:current-layer="svg2"
     showguides="true" />
  <defs
     id="defs4">
    <path
       style="fill:#fff"
       id="0"
       d="m350.45 319.42v-94.57h-3.967v53.54c0 5.293-.771 10.322-2.35 15.06-1.579 4.813-3.967 9.03-7.126 12.738-3.046 3.563-6.863 6.468-11.497 8.668-4.588 2.096-9.956 3.121-16.01 3.121-4.371 0-8.517-.62-12.485-1.73-3.817-1.25-7.239-3.01-10.285-5.547-2.905-2.538-5.218-5.688-6.9-9.551-1.73-3.93-1.871-8.781-1.871-14.318l-3.892.62c0 1.467 0 3.121 0 4.484.216 3.779.555 7.239 1.796 10.388 1.833 4.118 4.334 7.643 7.53 10.689 3.272 2.792 7.126 4.954 11.46 6.43 4.484 1.363 9.363 2.02 14.656 2.02 10.02 0 18.14-2.388 24.349-7.164 6.317-4.813 10.388-10.868 12.268-18.247h.367v23.39h3.93" />
    <path
       style="fill:#fff"
       id="1"
       d="m266.25 199.7h3.779c0-22.656 20.344-34.521 40.43-34.521 10.209 0 19.611 3.01 26.473 8.48 7.746 6.205 11.826 15.201 11.826 26.04h3.779c0-11.902-4.55-21.81-13.14-28.682-7.568-6.06-17.843-9.363-28.936-9.363-21.961 0-44.21 13.08-44.21 38.05" />
    <path
       style="fill:#fff"
       id="2"
       d="m306.11 197.69c0-2.313 2.059-4.221 4.55-4.221 2.501 0 4.512 1.908 4.512 4.221 0 2.35-2.02 4.221-4.512 4.221-2.538 0-4.55-1.871-4.55-4.221" />
    <clipPath
       id="3">
      <path
         id="path177367"
         d="m47 24c0 12.708-10.304 23-23 23-12.696 0-23-10.292-23-23 0-12.708 10.304-23 23-23 12.696 0 23 10.292 23 23" />
    </clipPath>
    <clipPath
       id="0-5">
      <path
         id="path215574"
         d="m26 0c-14.397 0-26 11.603-26 26v460c0 14.397 11.603 26 26 26h460c14.397 0 26-11.603 26-26v-460c0-14.397-11.603-26-26-26h-460" />
    </clipPath>
    <clipPath
       id="0-6">
      <path
         id="path216298"
         d="m26 0c-14.397 0-26 11.603-26 26v460c0 14.397 11.603 26 26 26h460c14.397 0 26-11.603 26-26v-460c0-14.397-11.603-26-26-26h-460" />
    </clipPath>
    <clipPath
       id="0-2">
      <path
         id="path216855"
         d="m26 0c-14.397 0-26 11.603-26 26v460c0 14.397 11.603 26 26 26h460c14.397 0 26-11.603 26-26v-460c0-14.397-11.603-26-26-26h-460" />
    </clipPath>
    <clipPath
       id="0-3">
      <path
         id="path217709"
         d="m26 0c-14.397 0-26 11.603-26 26v460c0 14.397 11.603 26 26 26h460c14.397 0 26-11.603 26-26v-460c0-14.397-11.603-26-26-26h-460" />
    </clipPath>
    <clipPath
       id="0-9">
      <path
         id="path218385"
         d="m26 0c-14.397 0-26 11.603-26 26v460c0 14.397 11.603 26 26 26h460c14.397 0 26-11.603 26-26v-460c0-14.397-11.603-26-26-26h-460" />
    </clipPath>
    <path
       style="fill:#fff"
       id="0-62"
       d="m350.45 319.42v-94.57h-3.967v53.54c0 5.293-.771 10.322-2.35 15.06-1.579 4.813-3.967 9.03-7.126 12.738-3.046 3.563-6.863 6.468-11.497 8.668-4.588 2.096-9.956 3.121-16.01 3.121-4.371 0-8.517-.62-12.485-1.73-3.817-1.25-7.239-3.01-10.285-5.547-2.905-2.538-5.218-5.688-6.9-9.551-1.73-3.93-1.871-8.781-1.871-14.318l-3.892.62c0 1.467 0 3.121 0 4.484.216 3.779.555 7.239 1.796 10.388 1.833 4.118 4.334 7.643 7.53 10.689 3.272 2.792 7.126 4.954 11.46 6.43 4.484 1.363 9.363 2.02 14.656 2.02 10.02 0 18.14-2.388 24.349-7.164 6.317-4.813 10.388-10.868 12.268-18.247h.367v23.39h3.93" />
    <path
       style="fill:#fff"
       id="1-2"
       d="m266.25 199.7h3.779c0-22.656 20.344-34.521 40.43-34.521 10.209 0 19.611 3.01 26.473 8.48 7.746 6.205 11.826 15.201 11.826 26.04h3.779c0-11.902-4.55-21.81-13.14-28.682-7.568-6.06-17.843-9.363-28.936-9.363-21.961 0-44.21 13.08-44.21 38.05" />
    <path
       style="fill:#fff"
       id="2-6"
       d="m306.11 197.69c0-2.313 2.059-4.221 4.55-4.221 2.501 0 4.512 1.908 4.512 4.221 0 2.35-2.02 4.221-4.512 4.221-2.538 0-4.55-1.871-4.55-4.221" />
    <clipPath
       id="3-2">
      <path
         id="path218955"
         d="m47 24c0 12.708-10.304 23-23 23-12.696 0-23-10.292-23-23 0-12.708 10.304-23 23-23 12.696 0 23 10.292 23 23" />
    </clipPath>
    <clipPath
       id="0-91">
      <path
         id="path257138"
         d="m26 0c-14.397 0-26 11.603-26 26v460c0 14.397 11.603 26 26 26h460c14.397 0 26-11.603 26-26v-460c0-14.397-11.603-26-26-26h-460" />
    </clipPath>
    <clipPath
       id="0-68">
      <path
         id="path257646"
         d="m26 0c-14.397 0-26 11.603-26 26v460c0 14.397 11.603 26 26 26h460c14.397 0 26-11.603 26-26v-460c0-14.397-11.603-26-26-26h-460" />
    </clipPath>
    <clipPath
       id="0-1">
      <path
         id="path258305"
         d="m26 0c-14.397 0-26 11.603-26 26v460c0 14.397 11.603 26 26 26h460c14.397 0 26-11.603 26-26v-460c0-14.397-11.603-26-26-26h-460" />
    </clipPath>
    <clipPath
       id="0-0">
      <path
         id="path259585"
         d="m26 0c-14.397 0-26 11.603-26 26v460c0 14.397 11.603 26 26 26h460c14.397 0 26-11.603 26-26v-460c0-14.397-11.603-26-26-26h-460" />
    </clipPath>
    <clipPath
       id="0-67">
      <path
         id="path261091"
         d="m26 0c-14.397 0-26 11.603-26 26v460c0 14.397 11.603 26 26 26h460c14.397 0 26-11.603 26-26v-460c0-14.397-11.603-26-26-26h-460" />
    </clipPath>
    <linearGradient
       y1="513.8"
       x2="0"
       y2="1.346"
       id="1-8"
       gradientUnits="userSpaceOnUse"
       gradientTransform="translate(-390.02688,-211.46494)">
      <stop
         id="stop261094"
         style="stop-color:#1e1e56" />
      <stop
         id="stop261096"
         style="stop-color:#2c2c7c"
         offset=".5" />
      <stop
         id="stop261098"
         style="stop-color:#1e1e56"
         offset="1" />
    </linearGradient>
    <clipPath
       id="0-95">
      <path
         id="path261361"
         d="m26 0c-14.397 0-26 11.603-26 26v460c0 14.397 11.603 26 26 26h460c14.397 0 26-11.603 26-26v-460c0-14.397-11.603-26-26-26h-460" />
    </clipPath>
    <clipPath
       id="0-20">
      <path
         id="path266888"
         d="m26 0c-14.397 0-26 11.603-26 26v460c0 14.397 11.603 26 26 26h460c14.397 0 26-11.603 26-26v-460c0-14.397-11.603-26-26-26h-460" />
    </clipPath>
    <clipPath
       id="0-23">
      <path
         id="path267406"
         d="m26 0c-14.397 0-26 11.603-26 26v460c0 14.397 11.603 26 26 26h460c14.397 0 26-11.603 26-26v-460c0-14.397-11.603-26-26-26h-460" />
    </clipPath>
    <clipPath
       id="0-64">
      <path
         id="path268882"
         d="m26 0c-14.397 0-26 11.603-26 26v460c0 14.397 11.603 26 26 26h460c14.397 0 26-11.603 26-26v-460c0-14.397-11.603-26-26-26h-460" />
    </clipPath>
    <clipPath
       id="0-19">
      <path
         id="path269887"
         d="m26 0c-14.397 0-26 11.603-26 26v460c0 14.397 11.603 26 26 26h460c14.397 0 26-11.603 26-26v-460c0-14.397-11.603-26-26-26h-460" />
    </clipPath>
    <clipPath
       id="0-15">
      <path
         id="path270328"
         d="m26 0c-14.397 0-26 11.603-26 26v460c0 14.397 11.603 26 26 26h460c14.397 0 26-11.603 26-26v-460c0-14.397-11.603-26-26-26h-460" />
    </clipPath>
  </defs>
  <g
     id="g270531"
     transform="translate(390.79813,108.90745)">
    <path
       id="path270330"
       style="fill:#4a789c"
       d="m -364.79813,-108.90745 c -14.397,0 -26,11.603 -26,26 l 0,460 c 0,14.397 11.603,26 26,26 l 460,0 c 14.397,0 26,-11.603 26,-26 l 0,-460 c 0,-14.397 -11.603,-26 -26,-26 l -460,0"
       inkscape:connector-curvature="0" />
    <text
       id="text270332"
       style="font-size:129.22999573px;line-height:125%;font-family:'Gentium Book Basic';letter-spacing:0;word-spacing:0"
       line-height="125%"
       x="-853.36816"
       y="36.212543"
       sodipodi:linespacing="125%">
      <tspan
         id="tspan270334"
         x="-853.36816"
         y="36.212543" />
    </text>
    <text
       id="text270336"
       style="font-size:46.95399857px;font-family:Arial;text-anchor:middle"
       x="-15.577814"
       y="-203.84726"
       transform="scale(4.0128205,0.24920128)" />
    <text
       id="text270338"
       style="font-size:129.22999573px;line-height:125%;font-family:'Gentium Book Basic';letter-spacing:0;word-spacing:0"
       line-height="125%"
       x="-272.09814"
       y="-43.787449"
       sodipodi:linespacing="125%">
      <tspan
         id="tspan270340"
         x="-272.09814"
         y="-43.787449" />
    </text>
    <text
       id="text270342"
       style="font-size:46.95399857px;font-family:Arial;text-anchor:middle"
       x="129.27145"
       y="-524.87561"
       transform="scale(4.0128205,0.24920128)" />
    <text
       id="text270344"
       style="font-size:129.22999573px;line-height:125%;font-family:'Gentium Book Basic';letter-spacing:0;word-spacing:0"
       line-height="125%"
       x="-1343.6781"
       y="-225.04745"
       sodipodi:linespacing="125%">
      <tspan
         id="tspan270346"
         x="-1343.6781"
         y="-225.04745" />
    </text>
    <text
       id="text270348"
       style="font-size:46.95399857px;font-family:Arial;text-anchor:middle"
       x="-137.76718"
       y="-1252.2219"
       transform="scale(4.0128205,0.24920128)" />
    <text
       id="text270350"
       style="font-size:129.22999573px;line-height:125%;font-family:'Gentium Book Basic';letter-spacing:0;word-spacing:0"
       line-height="125%"
       x="-245.62813"
       y="-441.51743"
       sodipodi:linespacing="125%">
      <tspan
         id="tspan270352"
         x="-245.62813"
         y="-441.51743" />
    </text>
    <text
       id="text270354"
       style="font-size:46.95399857px;font-family:Arial;text-anchor:middle"
       x="135.87141"
       y="-2120.8875"
       transform="scale(4.0128205,0.24920128)" />
    <text
       id="text270356"
       style="font-size:129.22999573px;line-height:125%;font-family:'Gentium Book Basic';letter-spacing:0;word-spacing:0"
       line-height="125%"
       x="335.64188"
       y="-521.52747"
       sodipodi:linespacing="125%">
      <tspan
         id="tspan270358"
         x="335.64188"
         y="-521.52747" />
    </text>
    <text
       id="text270360"
       style="font-size:46.95399857px;font-family:Arial;text-anchor:middle"
       x="280.72064"
       y="-2441.9258"
       transform="scale(4.0128205,0.24920128)" />
    <text
       id="text270362"
       style="font-size:129.22999573px;line-height:125%;font-family:'Gentium Book Basic';letter-spacing:0;word-spacing:0"
       line-height="125%"
       x="-53.478123"
       y="-993.92749"
       sodipodi:linespacing="125%">
      <tspan
         id="tspan270364"
         x="-53.478123"
         y="-993.92749" />
    </text>
    <text
       id="text270366"
       style="font-size:46.95399857px;font-family:Arial;text-anchor:middle"
       x="183.75119"
       y="-4337.5659"
       transform="scale(4.0128205,0.24920128)" />
    <text
       id="text270368"
       style="font-size:129.22999573px;line-height:125%;font-family:'Gentium Book Basic';letter-spacing:0;word-spacing:0"
       line-height="125%"
       x="527.78186"
       y="-1073.9275"
       sodipodi:linespacing="125%">
      <tspan
         id="tspan270370"
         x="527.78186"
         y="-1073.9275" />
    </text>
    <text
       id="text270372"
       style="font-size:46.95399857px;font-family:Arial;text-anchor:middle"
       x="328.6004"
       y="-4658.5845"
       transform="scale(4.0128205,0.24920128)" />
    <text
       id="text270374"
       style="font-size:208.33000183px;line-height:125%;font-family:'Gentium Book Basic';letter-spacing:0;word-spacing:0"
       line-height="125%"
       x="-1305.0181"
       y="340.79257"
       sodipodi:linespacing="125%">
      <tspan
         id="tspan270376"
         x="-1305.0181"
         y="340.79257" />
    </text>
    <path
       id="path270380"
       d="m -134.81836,-67.908203 c -118.75,0 -214.98047,96.281485 -214.98047,215.021483 0,59.38 24.05999,113.11953 62.95899,152.01953 l 0.002,0 103.95898,103.95899 278.080082,0 c 14.396998,0 25.999998,-11.603 25.999998,-26 l 0,-278.041019 L 17.222656,-4.9277344 C -21.690344,-43.840734 -75.448358,-67.908203 -134.81836,-67.908203 Z"
       style="opacity:0.25;fill-rule:evenodd"
       inkscape:connector-curvature="0" />
    <path
       id="path270414"
       style="fill:#ffffff;fill-rule:evenodd"
       d="m -134.81813,-67.90745 c -118.75,0 -214.98,96.28 -214.98,215.02 0,118.75 96.24,214.98 214.98,214.98 118.75,0 215.02,-96.24 215.02,-214.98 0,-118.75 -96.28,-215.02 -215.02,-215.02 m 0,58.841 c 86.26,0 156.18,69.918 156.18,156.18 0,86.26 -69.918,156.18 -156.18,156.18 -3.822,0 -7.601,-0.153 -11.354,-0.423 22.874,-12.11 38.443,-36.13 38.443,-63.815 0,-39.858 -32.3,-72.2 -72.16,-72.2 -39.858,0 -72.2,32.34 -72.2,72.2 0,4.261 0.409,8.412 1.117,12.469 -24.881,-27.664 -40.03,-64.27 -40.03,-104.41 0,-86.26 69.918,-156.18 156.18,-156.18"
       inkscape:connector-curvature="0" />
  </g>
</svg>
