<?xml version="1.0" encoding="UTF-8" standalone="no"?>
<svg
   xmlns:dc="http://purl.org/dc/elements/1.1/"
   xmlns:cc="http://creativecommons.org/ns#"
   xmlns:rdf="http://www.w3.org/1999/02/22-rdf-syntax-ns#"
   xmlns:svg="http://www.w3.org/2000/svg"
   xmlns="http://www.w3.org/2000/svg"
   xmlns:xlink="http://www.w3.org/1999/xlink"
   xmlns:sodipodi="http://sodipodi.sourceforge.net/DTD/sodipodi-0.dtd"
   xmlns:inkscape="http://www.inkscape.org/namespaces/inkscape"
   id="svg2"
   height="100%"
   viewBox="0 0 512 512"
   width="100%"
   version="1.1"
   inkscape:version="0.91+devel r13804 custom"
   sodipodi:docname="qupzilla.svg">
  <sodipodi:namedview
     pagecolor="#ffffff"
     bordercolor="#666666"
     borderopacity="1"
     objecttolerance="10"
     gridtolerance="10"
     guidetolerance="10"
     inkscape:pageopacity="0"
     inkscape:pageshadow="2"
     inkscape:window-width="1366"
     inkscape:window-height="709"
     id="namedview767"
     showgrid="false"
     inkscape:zoom="0.4609375"
     inkscape:cx="-8.6779661"
     inkscape:cy="237.55932"
     inkscape:window-x="-2"
     inkscape:window-y="-3"
     inkscape:window-maximized="1"
     inkscape:current-layer="svg2" />
  <metadata
     id="metadata10">
    <rdf:RDF>
      <cc:Work
         rdf:about="">
        <dc:format>image/svg+xml</dc:format>
        <dc:type
           rdf:resource="http://purl.org/dc/dcmitype/StillImage" />
        <dc:title />
      </cc:Work>
    </rdf:RDF>
  </metadata>
  <defs
     id="defs8">
    <linearGradient
       id="linearGradient4216-1">
      <stop
         id="stop4218-0"
         stop-color="#fff"
         offset="0" />
      <stop
         id="stop4220-2"
         stop-color="#e8e8e8"
         offset=".6875" />
      <stop
         id="stop4222-6"
         stop-color="#686868"
         offset=".875" />
      <stop
         id="stop4224-6"
         offset="1" />
    </linearGradient>
    <radialGradient
       id="radialGradient21305"
       cx="64"
       xlink:href="#linearGradient4216-1"
       gradientUnits="userSpaceOnUse"
       cy="64"
       r="64"
       gradientTransform="matrix(4.1658 0 0 3.8875 -39.924 -73.947)" />
    <radialGradient
       id="radialGradient21305-0"
       xlink:href="#linearGradient4216-1"
       gradientUnits="userSpaceOnUse"
       cy="64"
       cx="64"
       gradientTransform="matrix(4.1658 0 0 3.8875 1383.5 -189.35)"
       r="64" />
    <linearGradient
       id="ButtonShadow"
       y2="7.0165"
       gradientUnits="userSpaceOnUse"
       x2="45.448"
       gradientTransform="scale(1.0059 .99417)"
       y1="92.54"
       x1="45.448">
      <stop
         id="stop3750-1"
         offset="0" />
      <stop
         id="stop3752-6"
         stop-opacity=".58824"
         offset="1" />
    </linearGradient>
    <filter
       id="filter3174"
       color-interpolation-filters="sRGB">
      <feGaussianBlur
         id="feGaussianBlur3176"
         stdDeviation="1.71" />
    </filter>
    <filter
       id="filter3174-2"
       color-interpolation-filters="sRGB">
      <feGaussianBlur
         id="feGaussianBlur3176-21"
         stdDeviation="1.71" />
    </filter>
    <filter
       id="filter3174-5"
       color-interpolation-filters="sRGB">
      <feGaussianBlur
         id="feGaussianBlur3176-2"
         stdDeviation="1.71" />
    </filter>
    <linearGradient
       id="linearGradient6148"
       y2="7.0165"
       xlink:href="#ButtonShadow"
       gradientUnits="userSpaceOnUse"
       y1="92.54"
       gradientTransform="scale(1.0059 .99417)"
       x2="45.448"
       x1="45.448" />
    <filter
       id="filter3174-3"
       color-interpolation-filters="sRGB">
      <feGaussianBlur
         id="feGaussianBlur3176-9"
         stdDeviation="1.71" />
    </filter>
    <radialGradient
       id="radialGradient26869"
       xlink:href="#linearGradient4216-1"
       gradientUnits="userSpaceOnUse"
       cy="64"
       cx="64"
       gradientTransform="matrix(4.1658 0 0 3.8875 52.766 -98.917)"
       r="64" />
    <radialGradient
       id="radialGradient26875"
       xlink:href="#linearGradient4216-1"
       gradientUnits="userSpaceOnUse"
       cy="64"
       cx="64"
       gradientTransform="matrix(4.1658 0 0 3.8875 1476.2 -214.32)"
       r="64" />
    <filter
       id="filter3174-38"
       color-interpolation-filters="sRGB">
      <feGaussianBlur
         id="feGaussianBlur3176-7"
         stdDeviation="1.71" />
    </filter>
    <filter
       id="filter3174-5-6"
       color-interpolation-filters="sRGB">
      <feGaussianBlur
         id="feGaussianBlur3176-2-7"
         stdDeviation="1.71" />
    </filter>
    <filter
       id="filter3174-3-3"
       color-interpolation-filters="sRGB">
      <feGaussianBlur
         id="feGaussianBlur3176-9-1"
         stdDeviation="1.71" />
    </filter>
    <radialGradient
       id="radialGradient26869-2"
       cx="64"
       xlink:href="#linearGradient4216-1"
       gradientUnits="userSpaceOnUse"
       cy="64"
       r="64"
       gradientTransform="matrix(4.1658 0 0 3.8875 49.28 -97.978)" />
    <radialGradient
       id="radialGradient26875-4"
       cx="64"
       xlink:href="#linearGradient4216-1"
       gradientUnits="userSpaceOnUse"
       cy="64"
       r="64"
       gradientTransform="matrix(4.1658 0 0 3.8875 1472.7 -213.38)" />
    <filter
       id="filter3174-6"
       color-interpolation-filters="sRGB">
      <feGaussianBlur
         id="feGaussianBlur3176-8"
         stdDeviation="1.71" />
    </filter>
    <filter
       id="filter3174-5-3"
       color-interpolation-filters="sRGB">
      <feGaussianBlur
         id="feGaussianBlur3176-2-9"
         stdDeviation="1.71" />
    </filter>
    <filter
       id="filter3174-3-2"
       color-interpolation-filters="sRGB">
      <feGaussianBlur
         id="feGaussianBlur3176-9-9"
         stdDeviation="1.71" />
    </filter>
    <radialGradient
       id="radialGradient26869-3"
       xlink:href="#linearGradient4216-1"
       gradientUnits="userSpaceOnUse"
       cy="64"
       cx="64"
       gradientTransform="matrix(4.1658 0 0 3.8875 85.198 -107.65)"
       r="64" />
    <radialGradient
       id="radialGradient26875-7"
       xlink:href="#linearGradient4216-1"
       gradientUnits="userSpaceOnUse"
       cy="64"
       cx="64"
       gradientTransform="matrix(4.1658 0 0 3.8875 1508.6 -223.05)"
       r="64" />
    <radialGradient
       id="radialGradient21305-0-3"
       xlink:href="#linearGradient4216-1"
       gradientUnits="userSpaceOnUse"
       cy="64"
       cx="64"
       gradientTransform="matrix(4.1658 0 0 3.8875 1443.1 -258.29)"
       r="64" />
    <radialGradient
       id="radialGradient21305-6-1"
       gradientUnits="userSpaceOnUse"
       xlink:href="#linearGradient4216-1"
       cx="64"
       cy="64"
       r="64"
       gradientTransform="matrix(4.1658 0 0 3.8875 19.688 -142.89)" />
    <filter
       id="filter3174-5-0"
       color-interpolation-filters="sRGB">
      <feGaussianBlur
         id="feGaussianBlur3176-2-3"
         stdDeviation="1.71" />
    </filter>
    <filter
       id="filter3174-39"
       color-interpolation-filters="sRGB">
      <feGaussianBlur
         id="feGaussianBlur3176-1"
         stdDeviation="1.71" />
    </filter>
    <style
       id="style5970"
       type="text/css" />
    <radialGradient
       id="radialGradient21305-72"
       xlink:href="#linearGradient4216-1"
       gradientUnits="userSpaceOnUse"
       cy="64"
       cx="64"
       gradientTransform="matrix(4.1658 0 0 3.8875 73.404 -104.48)"
       r="64" />
    <radialGradient
       id="radialGradient21305-2"
       xlink:href="#linearGradient4216-1"
       gradientUnits="userSpaceOnUse"
       cy="64"
       cx="64"
       gradientTransform="matrix(4.1658 0 0 3.8875 -14.144 -76.376)"
       r="64" />
    <filter
       id="filter3174-7"
       color-interpolation-filters="sRGB">
      <feGaussianBlur
         id="feGaussianBlur3176-5"
         stdDeviation="1.71" />
    </filter>
    <linearGradient
       id="ButtonShadow-5"
       y2="7.0165"
       gradientUnits="userSpaceOnUse"
       x2="45.448"
       gradientTransform="scale(1.0059 .99417)"
       y1="92.54"
       x1="45.448">
      <stop
         id="stop3750"
         offset="0" />
      <stop
         id="stop3752"
         stop-opacity=".58824"
         offset="1" />
    </linearGradient>
    <linearGradient
       id="linearGradient3158"
       y2="7.0165"
       xlink:href="#ButtonShadow-5"
       gradientUnits="userSpaceOnUse"
       x2="45.448"
       gradientTransform="scale(1.0059 .99417)"
       y1="92.54"
       x1="45.448" />
    <style
       id="style5970-4"
       type="text/css" />
    <filter
       id="filter3174-61"
       color-interpolation-filters="sRGB">
      <feGaussianBlur
         id="feGaussianBlur3176-3"
         stdDeviation="1.71" />
    </filter>
    <radialGradient
       id="radialGradient151398-0"
       cx="256"
       gradientUnits="userSpaceOnUse"
       cy="256"
       r="256"
       gradientTransform="matrix(1.6356,0,0,1.6356,-162.71,-162.71)">
      <stop
         id="stop5482-9"
         stop-color="#5cb9fe"
         offset="0" />
      <stop
         id="stop5484-1"
         stop-color="#09758f"
         offset="1" />
    </radialGradient>
  </defs>
  <path
     id="path4230"
     d="m273.04 165.47c-2.1202 7.3447-36.402 181.33-29.267 189.98 6.1765 7.4828 15.826 4.2405 17.946-3.1042-2.1202 7.3447-6.3607 22.034-8.4809 29.379-17.946 3.1042-33.92-0.81668-37.444-17.946-4.0713-19.793 27.134-182.59 29.267-189.98-4.7411-8.958-29.531-15.826-33.772-1.1362l-7.9128-2.1202c18.514-34.603 53.838-9.3127 69.663-5.0722z"
     display="none" />
  <path
     id="path4232"
     d="m250.86 183.26c-26.427 32.483-124.22 164.54-147.96 158.17l-15.826-4.2405 12.153-12.569 7.9128 2.1202c15.826 4.2405 123.65-133.04 140.05-160.3 12.573-20.906 3.6724 16.81 3.6724 16.81z"
     display="none" />
  <path
     id="path4234"
     d="m187.97 253.45 47.477 12.721-4.2405 14.689-55.39-14.842z"
     display="none" />
  <ellipse
     id="path3281-0-0"
     rx="266.61"
     transform="matrix(.96593 .25882 -.27735 .96077 0 0)"
     ry="248.8"
     cy="174.85"
     cx="226.69"
     display="none"
     fill="url(#radialGradient21305)" />
  <path
     id="path4230-0"
     d="m273.04 165.47c-2.1202 7.3447-36.402 181.33-29.267 189.98 6.1765 7.4828 15.826 4.2405 17.946-3.1042-2.1202 7.3447-6.3607 22.034-8.4809 29.379-17.946 3.1042-33.92-0.81668-37.444-17.946-4.0713-19.793 27.134-182.59 29.267-189.98-4.7411-8.958-29.531-15.826-33.772-1.1362l-7.9128-2.1202c18.514-34.603 53.838-9.3127 69.663-5.0722z"
     display="none" />
  <path
     id="path4232-1"
     d="m250.86 183.26c-26.427 32.483-124.22 164.54-147.96 158.17l-15.826-4.2405 12.153-12.569 7.9128 2.1202c15.826 4.2405 123.65-133.04 140.05-160.3 12.573-20.906 3.6724 16.81 3.6724 16.81z"
     display="none" />
  <path
     id="path4234-6"
     d="m187.97 253.45 47.477 12.721-4.2405 14.689-55.39-14.842z"
     display="none" />
  <ellipse
     id="path3281-0-0-1"
     rx="266.61"
     transform="matrix(.96593 .25882 -.27735 .96077 0 0)"
     ry="248.8"
     cy="174.85"
     cx="226.69"
     display="none"
     fill="url(#radialGradient21305)" />
  <path
     id="path4230-8"
     d="m1680 423c-2.1203 7.3447-36.402 181.33-29.267 189.98 6.1765 7.4828 15.826 4.2405 17.946-3.1042-2.1203 7.3447-6.3607 22.034-8.481 29.379-17.946 3.1042-33.92-0.81668-37.444-17.946-4.0713-19.793 27.134-182.59 29.267-189.98-4.7412-8.958-29.531-15.826-33.772-1.1362l-7.9128-2.1202c18.514-34.603 53.838-9.3127 69.663-5.0722z"
     display="none" />
  <path
     id="path4232-9"
     d="m1657.8 440.8c-26.427 32.483-124.22 164.54-147.96 158.17l-15.826-4.2405 12.153-12.569 7.9128 2.1202c15.826 4.2405 123.65-133.04 140.05-160.3 12.573-20.906 3.6723 16.81 3.6723 16.81z"
     display="none" />
  <path
     id="path4234-5"
     d="m1594.9 510.99 47.477 12.721-4.2405 14.689-55.39-14.842z"
     display="none" />
  <ellipse
     id="path3281-0-0-6"
     rx="266.61"
     transform="matrix(.96593 .25882 -.27735 .96077 0 0)"
     ry="248.8"
     cy="59.452"
     cx="1650.1"
     display="none"
     fill="url(#radialGradient21305-0)" />
  <g
     id="layer2"
     display="none"
     transform="matrix(6.7274 0 0 6.7274 -2789.7 -809.34)">
    <rect
       id="rect3745"
       opacity=".9"
       rx="6"
       ry="6"
       height="85"
       filter="url(#filter3174)"
       width="86"
       y="7"
       x="5"
       fill="url(#ButtonShadow)" />
  </g>
  <g
     id="layer2-8"
     display="none"
     transform="matrix(6.7274 0 0 6.7274 -2077.1 -889.77)">
    <rect
       id="rect3745-5"
       opacity=".9"
       rx="6"
       ry="6"
       height="85"
       filter="url(#filter3174-2)"
       width="86"
       y="7"
       x="5"
       fill="url(#linearGradient6148)" />
  </g>
  <g
     id="layer2-3"
     display="none"
     transform="matrix(6.7274 0 0 6.7274 -2077.1 -889.77)">
    <rect
       id="rect3745-8"
       opacity=".9"
       rx="6"
       ry="6"
       height="85"
       filter="url(#filter3174-5)"
       width="86"
       y="7"
       x="5"
       fill="url(#linearGradient6148)" />
  </g>
  <path
     id="path3848"
     d="m-785.82-490.39c-31.718 0.73046-61.283 23.617-71.031 53.75-10.408 29.448-0.1539 63.832 23.031 84.219 0.2111 0.18773 0.44298 0.34587 0.65625 0.53125 0.0607 0.0539 0.12666 0.1025 0.1875 0.15625 0.53347 0.4555 1.0471 0.93438 1.5938 1.375 0.0982 0.0801 0.21385 0.13919 0.3125 0.21875 0.0114 0.009 0.0198 0.0222 0.0312 0.0312 0.0924 0.0753 0.18851 0.14387 0.28125 0.21875 0.0114 0.009 0.0198 0.0222 0.0312 0.0312 0.081 0.066 0.16873 0.1218 0.25 0.1875 0.0115 0.009 0.0197 0.0223 0.0312 0.0312 0.0114 0.009 0.0198 0.0222 0.0312 0.0312 0.0682 0.0557 0.11908 0.13204 0.1875 0.1875 0.0806 0.0661 0.16909 0.12176 0.25 0.1875 0.26263 0.21589 0.51553 0.44392 0.78125 0.65625 0.0113 0.009 0.0199 0.0221 0.0312 0.0312v77.719l366.09 366.06h61.812c0.19472-5.1667 0.39905-10.333 0.59375-15.5l15.5-0.5625v-71.125c-0.11718-3.5064-0.66635-7.1765 2.9688-9.0938 17.971-15.566 29.967-38.912 28.375-63.031 0.24347-20.205-8.8362-39.465-23.031-53.562-0.13063-0.13149-0.27474-0.2444-0.40625-0.375l-343.31-342.94c-1.6885-1.8492-3.3938-3.742-5.125-5.5-0.12897-0.13157-0.24515-0.27555-0.375-0.40625-14.005-14.287-33.185-23.492-53.375-23.375-2.1284-0.1527-4.2605-0.20495-6.375-0.15625z"
     fill-opacity=".39216"
     display="none" />
  <path
     id="path11978"
     d="m-725.7-466.45c1.4663 1.516 2.9049 3.0642 4.25 4.6875 1.5801 1.907 3.0707 3.8973 4.4688 5.9375 1.398 2.0402 2.7063 4.1239 3.9062 6.2812 1.1999 2.1574 2.2954 4.3665 3.2812 6.625 0.98586 2.2585 1.8379 4.594 2.5938 6.9375 0.75581 2.3435 1.3964 4.7125 1.9062 7.125s0.90844 4.847 1.1562 7.3125c0.24781 2.4655 0.34265 4.9664 0.3125 7.4688 0.19898 3.0149 0.21091 6.023 0 9s-0.62772 5.932-1.2188 8.8438c-0.59103 2.9118-1.3711 5.7746-2.3125 8.5938-0.94136 2.8192-2.0506 5.582-3.3125 8.2812s-2.666 5.3231-4.2188 7.875c-1.5527 2.5519-3.2488 5.029-5.0625 7.4062s-3.7676 4.6686-5.8125 6.8438-4.1912 4.2418-6.4375 6.1875c-0.90877 0.47931-1.5415 1.0487-2 1.7188-0.45846 0.67003-0.72299 1.4189-0.875 2.2188-0.30402 1.5996-0.15234 3.403-0.0937 5.1562v71.125h-16.094v16.062h-61.812l350 350h61.812c0.19472-5.1667 0.39905-10.333 0.59375-15.5l15.5-0.5625v-71.125c-0.11718-3.5064-0.66635-7.1765 2.9688-9.0938 17.971-15.566 29.967-38.912 28.375-63.031 0.2435-20.205-8.8362-39.465-23.031-53.562-0.13063-0.13149-0.27474-0.2444-0.40625-0.375l-343.31-342.94c-1.6885-1.8492-3.3939-3.742-5.125-5.5zm-87.375 211.69v-16.062h-16.094l16.094 16.062z"
     fill-opacity=".39216"
     display="none" />
  <path
     id="path11980"
     d="m-998.29-281.7 425.16 425.12v-125.12l-300-300z"
     fill-opacity=".39216"
     display="none" />
  <g
     id="layer2-4"
     display="none"
     transform="matrix(6.7274 0 0 6.7274 -2834.4 -809.34)">
    <rect
       id="rect3745-3"
       opacity=".9"
       rx="6"
       ry="6"
       height="85"
       filter="url(#filter3174-3)"
       width="86"
       y="7"
       x="5"
       fill="url(#linearGradient6148)" />
  </g>
  <path
     id="path4230-3"
     d="m369.5 165.47c-2.1202 7.3447-36.402 181.33-29.267 189.98 6.1765 7.4828 15.826 4.2405 17.946-3.1042-2.1202 7.3447-6.3607 22.034-8.4809 29.379-17.946 3.1042-33.92-0.81668-37.444-17.946-4.0713-19.793 27.134-182.59 29.267-189.98-4.7411-8.958-29.531-15.826-33.772-1.1362l-7.9128-2.1202c18.514-34.603 53.838-9.3127 69.663-5.0722z"
     display="none" />
  <path
     id="path4232-8"
     d="m347.31 183.26c-26.427 32.483-124.22 164.54-147.96 158.17l-15.826-4.2405 12.153-12.569 7.9128 2.1202c15.826 4.2405 123.65-133.04 140.05-160.3 12.573-20.906 3.6724 16.81 3.6724 16.81z"
     display="none" />
  <path
     id="path4234-62"
     d="m284.43 253.45 47.477 12.721-4.2405 14.689-55.39-14.842z"
     display="none" />
  <ellipse
     id="path3281-0-0-9"
     rx="266.61"
     transform="matrix(.96593 .25882 -.27735 .96077 0 0)"
     ry="248.8"
     cy="149.88"
     cx="319.38"
     display="none"
     fill="url(#radialGradient26869)" />
  <path
     id="path4230-0-4"
     d="m369.5 165.47c-2.1202 7.3447-36.402 181.33-29.267 189.98 6.1765 7.4828 15.826 4.2405 17.946-3.1042-2.1202 7.3447-6.3607 22.034-8.4809 29.379-17.946 3.1042-33.92-0.81668-37.444-17.946-4.0713-19.793 27.134-182.59 29.267-189.98-4.7411-8.958-29.531-15.826-33.772-1.1362l-7.9128-2.1202c18.514-34.603 53.838-9.3127 69.663-5.0722z"
     display="none" />
  <path
     id="path4232-1-3"
     d="m347.31 183.26c-26.427 32.483-124.22 164.54-147.96 158.17l-15.826-4.2405 12.153-12.569 7.9128 2.1202c15.826 4.2405 123.65-133.04 140.05-160.3 12.573-20.906 3.6724 16.81 3.6724 16.81z"
     display="none" />
  <path
     id="path4234-6-2"
     d="m284.43 253.45 47.477 12.721-4.2405 14.689-55.39-14.842z"
     display="none" />
  <ellipse
     id="path3281-0-0-1-8"
     rx="266.61"
     transform="matrix(.96593 .25882 -.27735 .96077 0 0)"
     ry="248.8"
     cy="149.88"
     cx="319.38"
     display="none"
     fill="url(#radialGradient26869)" />
  <path
     id="path4230-8-5"
     d="m1776.4 423c-2.1203 7.3447-36.402 181.33-29.267 189.98 6.1765 7.4828 15.826 4.2405 17.946-3.1042-2.1203 7.3447-6.3607 22.034-8.481 29.379-17.946 3.1042-33.92-0.81668-37.444-17.946-4.0713-19.793 27.134-182.59 29.267-189.98-4.7412-8.958-29.531-15.826-33.772-1.1362l-7.9128-2.1202c18.514-34.603 53.838-9.3127 69.663-5.0722z"
     display="none" />
  <path
     id="path4232-9-3"
     d="m1754.2 440.8c-26.427 32.483-124.22 164.54-147.96 158.17l-15.826-4.2405 12.153-12.569 7.9128 2.1202c15.826 4.2405 123.65-133.04 140.05-160.3 12.573-20.906 3.6723 16.81 3.6723 16.81z"
     display="none" />
  <path
     id="path4234-5-3"
     d="m1691.4 510.99 47.477 12.721-4.2405 14.689-55.39-14.842z"
     display="none" />
  <ellipse
     id="path3281-0-0-6-9"
     rx="266.61"
     transform="matrix(.96593 .25882 -.27735 .96077 0 0)"
     ry="248.8"
     cy="34.482"
     cx="1742.8"
     display="none"
     fill="url(#radialGradient26875)" />
  <g
     id="layer2-5"
     display="none"
     transform="matrix(6.7274 0 0 6.7274 -2080.7 -889.77)">
    <rect
       id="rect3745-6"
       opacity=".9"
       rx="6"
       ry="6"
       height="85"
       filter="url(#filter3174-38)"
       width="86"
       y="7"
       x="5"
       fill="url(#linearGradient6148)" />
  </g>
  <g
     id="layer2-3-5"
     display="none"
     transform="matrix(6.7274 0 0 6.7274 -2080.7 -889.77)">
    <rect
       id="rect3745-8-5"
       opacity=".9"
       rx="6"
       ry="6"
       height="85"
       filter="url(#filter3174-5-6)"
       width="86"
       y="7"
       x="5"
       fill="url(#linearGradient6148)" />
  </g>
  <path
     id="path3848-3"
     d="m-789.45-490.39c-31.718 0.73046-61.283 23.617-71.031 53.75-10.408 29.448-0.1539 63.832 23.031 84.219 0.2111 0.18773 0.44298 0.34587 0.65625 0.53125 0.0607 0.0539 0.12666 0.1025 0.1875 0.15625 0.53347 0.4555 1.0471 0.93438 1.5938 1.375 0.0982 0.0801 0.21385 0.13919 0.3125 0.21875 0.0114 0.009 0.0198 0.0222 0.0312 0.0312 0.0924 0.0753 0.18851 0.14387 0.28125 0.21875 0.0114 0.009 0.0198 0.0222 0.0312 0.0312 0.081 0.066 0.16873 0.1218 0.25 0.1875 0.0115 0.009 0.0197 0.0223 0.0312 0.0312 0.0114 0.009 0.0198 0.0222 0.0312 0.0312 0.0682 0.0557 0.11908 0.13204 0.1875 0.1875 0.0806 0.0661 0.16909 0.12176 0.25 0.1875 0.26263 0.21589 0.51553 0.44392 0.78125 0.65625 0.0113 0.009 0.0199 0.0221 0.0312 0.0312v77.719l366.09 366.06h61.812c0.19472-5.1667 0.39905-10.333 0.59375-15.5l15.5-0.5625v-71.125c-0.11718-3.5064-0.66635-7.1765 2.9688-9.0938 17.971-15.566 29.967-38.912 28.375-63.031 0.24347-20.205-8.8362-39.465-23.031-53.562-0.13063-0.13149-0.27474-0.2444-0.40625-0.375l-343.31-342.94c-1.6885-1.8492-3.3938-3.742-5.125-5.5-0.12897-0.13157-0.24515-0.27555-0.375-0.40625-14.005-14.287-33.185-23.492-53.375-23.375-2.1284-0.1527-4.2605-0.20495-6.375-0.15625z"
     fill-opacity=".39216"
     display="none" />
  <path
     id="path11978-0"
     d="m-729.32-466.45c1.4663 1.516 2.9049 3.0642 4.25 4.6875 1.5801 1.907 3.0707 3.8973 4.4688 5.9375 1.398 2.0402 2.7063 4.1239 3.9062 6.2812 1.1999 2.1574 2.2954 4.3665 3.2812 6.625 0.98586 2.2585 1.8379 4.594 2.5938 6.9375 0.75581 2.3435 1.3964 4.7125 1.9062 7.125s0.90844 4.847 1.1562 7.3125c0.24781 2.4655 0.34265 4.9664 0.3125 7.4688 0.19898 3.0149 0.21091 6.023 0 9s-0.62772 5.932-1.2188 8.8438c-0.59103 2.9118-1.3711 5.7746-2.3125 8.5938-0.94136 2.8192-2.0506 5.582-3.3125 8.2812s-2.666 5.3231-4.2188 7.875c-1.5527 2.5519-3.2488 5.029-5.0625 7.4062s-3.7676 4.6686-5.8125 6.8438-4.1912 4.2418-6.4375 6.1875c-0.90877 0.47931-1.5415 1.0487-2 1.7188-0.45846 0.67003-0.72299 1.4189-0.875 2.2188-0.30402 1.5996-0.15234 3.403-0.0937 5.1562v71.125h-16.094v16.062h-61.812l350 350h61.812c0.19472-5.1667 0.39905-10.333 0.59375-15.5l15.5-0.5625v-71.125c-0.11718-3.5064-0.66635-7.1765 2.9688-9.0938 17.971-15.566 29.967-38.912 28.375-63.031 0.2435-20.205-8.8362-39.465-23.031-53.562-0.13063-0.13149-0.27474-0.2444-0.40625-0.375l-343.31-342.94c-1.6885-1.8492-3.3939-3.742-5.125-5.5zm-87.375 211.69v-16.062h-16.094l16.094 16.062z"
     fill-opacity=".39216"
     display="none" />
  <path
     id="path11980-6"
     d="m-1001.9-281.7 425.16 425.12v-125.12l-300-300z"
     fill-opacity=".39216"
     display="none" />
  <g
     id="layer2-4-0"
     display="none"
     transform="matrix(6.7274 0 0 6.7274 -2838 -809.34)">
    <rect
       id="rect3745-3-5"
       opacity=".9"
       rx="6"
       ry="6"
       height="85"
       filter="url(#filter3174-3-3)"
       width="86"
       y="7"
       x="5"
       fill="url(#linearGradient6148)" />
  </g>
  <path
     id="path4230-5"
     d="m365.87 165.47c-2.1202 7.3447-36.402 181.33-29.267 189.98 6.1765 7.4828 15.826 4.2405 17.946-3.1042-2.1202 7.3447-6.3607 22.034-8.4809 29.379-17.946 3.1042-33.92-0.81668-37.444-17.946-4.0713-19.793 27.134-182.59 29.267-189.98-4.7411-8.958-29.531-15.826-33.772-1.1362l-7.9128-2.1202c18.514-34.603 53.838-9.3127 69.663-5.0722z"
     display="none" />
  <path
     id="path4232-6"
     d="m343.69 183.26c-26.427 32.483-124.22 164.54-147.96 158.17l-15.826-4.2405 12.153-12.569 7.9128 2.1202c15.826 4.2405 123.65-133.04 140.05-160.3 12.573-20.906 3.6724 16.81 3.6724 16.81z"
     display="none" />
  <path
     id="path4234-8"
     d="m280.8 253.45 47.477 12.721-4.2405 14.689-55.39-14.842z"
     display="none" />
  <ellipse
     id="path3281-0-0-7"
     rx="266.61"
     ry="248.8"
     transform="matrix(.96593 .25882 -.27735 .96077 0 0)"
     cy="150.82"
     cx="315.89"
     display="none"
     fill="url(#radialGradient26869-2)" />
  <path
     id="path4230-0-7"
     d="m365.87 165.47c-2.1202 7.3447-36.402 181.33-29.267 189.98 6.1765 7.4828 15.826 4.2405 17.946-3.1042-2.1202 7.3447-6.3607 22.034-8.4809 29.379-17.946 3.1042-33.92-0.81668-37.444-17.946-4.0713-19.793 27.134-182.59 29.267-189.98-4.7411-8.958-29.531-15.826-33.772-1.1362l-7.9128-2.1202c18.514-34.603 53.838-9.3127 69.663-5.0722z"
     display="none" />
  <path
     id="path4232-1-5"
     d="m343.69 183.26c-26.427 32.483-124.22 164.54-147.96 158.17l-15.826-4.2405 12.153-12.569 7.9128 2.1202c15.826 4.2405 123.65-133.04 140.05-160.3 12.573-20.906 3.6724 16.81 3.6724 16.81z"
     display="none" />
  <path
     id="path4234-6-1"
     d="m280.8 253.45 47.477 12.721-4.2405 14.689-55.39-14.842z"
     display="none" />
  <ellipse
     id="path3281-0-0-1-0"
     rx="266.61"
     transform="matrix(.96593 .25882 -.27735 .96077 0 0)"
     ry="248.8"
     cy="150.82"
     cx="315.89"
     display="none"
     fill="url(#radialGradient26869-2)" />
  <path
     id="path4230-8-7"
     d="m1772.8 423c-2.1203 7.3447-36.402 181.33-29.267 189.98 6.1765 7.4828 15.826 4.2405 17.946-3.1042-2.1203 7.3447-6.3607 22.034-8.481 29.379-17.946 3.1042-33.92-0.81668-37.444-17.946-4.0713-19.793 27.134-182.59 29.267-189.98-4.7412-8.958-29.531-15.826-33.772-1.1362l-7.9128-2.1202c18.514-34.603 53.838-9.3127 69.663-5.0722z"
     display="none" />
  <path
     id="path4232-9-4"
     d="m1750.6 440.8c-26.427 32.483-124.22 164.54-147.96 158.17l-15.826-4.2405 12.153-12.569 7.9128 2.1202c15.826 4.2405 123.65-133.04 140.05-160.3 12.573-20.906 3.6723 16.81 3.6723 16.81z"
     display="none" />
  <path
     id="path4234-5-0"
     d="m1687.7 510.99 47.477 12.721-4.2405 14.689-55.39-14.842z"
     display="none" />
  <ellipse
     id="path3281-0-0-6-1"
     rx="266.61"
     ry="248.8"
     transform="matrix(.96593 .25882 -.27735 .96077 0 0)"
     cy="35.421"
     cx="1739.3"
     display="none"
     fill="url(#radialGradient26875-4)" />
  <g
     id="layer2-0"
     display="none"
     transform="matrix(6.7274 0 0 6.7274 -2043.3 -889.77)">
    <rect
       id="rect3745-50"
       opacity=".9"
       rx="6"
       ry="6"
       height="85"
       filter="url(#filter3174-6)"
       width="86"
       y="7"
       x="5"
       fill="url(#linearGradient6148)" />
  </g>
  <g
     id="layer2-3-0"
     display="none"
     transform="matrix(6.7274 0 0 6.7274 -2043.3 -889.77)">
    <rect
       id="rect3745-8-1"
       opacity=".9"
       rx="6"
       ry="6"
       height="85"
       filter="url(#filter3174-5-3)"
       width="86"
       y="7"
       x="5"
       fill="url(#linearGradient6148)" />
  </g>
  <path
     id="path3848-0"
     d="m-752.07-490.39c-31.718 0.73046-61.283 23.617-71.031 53.75-10.408 29.448-0.1539 63.832 23.031 84.219 0.2111 0.18773 0.44298 0.34587 0.65625 0.53125 0.0607 0.0539 0.12666 0.1025 0.1875 0.15625 0.53347 0.4555 1.0471 0.93438 1.5938 1.375 0.0982 0.0801 0.21385 0.13919 0.3125 0.21875 0.0114 0.009 0.0198 0.0222 0.0312 0.0312 0.0924 0.0753 0.18851 0.14387 0.28125 0.21875 0.0114 0.009 0.0198 0.0222 0.0312 0.0312 0.081 0.066 0.16873 0.1218 0.25 0.1875 0.0115 0.009 0.0197 0.0223 0.0312 0.0312 0.0114 0.009 0.0198 0.0222 0.0312 0.0312 0.0682 0.0557 0.11908 0.13204 0.1875 0.1875 0.0806 0.0661 0.16909 0.12176 0.25 0.1875 0.26263 0.21589 0.51553 0.44392 0.78125 0.65625 0.0113 0.009 0.0199 0.0221 0.0312 0.0312v77.719l366.09 366.06h61.812c0.19472-5.1667 0.39905-10.333 0.59375-15.5l15.5-0.5625v-71.125c-0.11718-3.5064-0.66635-7.1765 2.9688-9.0938 17.971-15.566 29.967-38.912 28.375-63.031 0.24347-20.205-8.8362-39.465-23.031-53.562-0.13063-0.13149-0.27474-0.2444-0.40625-0.375l-343.3-342.95c-1.6885-1.8492-3.3938-3.742-5.125-5.5-0.12897-0.13157-0.24515-0.27555-0.375-0.40625-14.005-14.287-33.185-23.492-53.375-23.375-2.1284-0.1527-4.2605-0.20495-6.375-0.15625z"
     fill-opacity=".39216"
     display="none" />
  <path
     id="path11978-7"
     d="m-691.95-466.45c1.4663 1.516 2.9049 3.0642 4.25 4.6875 1.5801 1.907 3.0707 3.8973 4.4688 5.9375 1.398 2.0402 2.7063 4.1239 3.9062 6.2812 1.1999 2.1574 2.2954 4.3665 3.2812 6.625 0.98586 2.2585 1.8379 4.594 2.5938 6.9375 0.75581 2.3435 1.3964 4.7125 1.9062 7.125s0.90844 4.847 1.1562 7.3125c0.24781 2.4655 0.34265 4.9664 0.3125 7.4688 0.19898 3.0149 0.21091 6.023 0 9s-0.62772 5.932-1.2188 8.8438c-0.59103 2.9118-1.3711 5.7746-2.3125 8.5938-0.94136 2.8192-2.0506 5.582-3.3125 8.2812s-2.666 5.3231-4.2188 7.875c-1.5527 2.5519-3.2488 5.029-5.0625 7.4062s-3.7676 4.6686-5.8125 6.8438-4.1912 4.2418-6.4375 6.1875c-0.90877 0.47931-1.5415 1.0487-2 1.7188-0.45846 0.67003-0.72299 1.4189-0.875 2.2188-0.30402 1.5996-0.15234 3.403-0.0937 5.1562v71.125h-16.094v16.062h-61.812l350 350h61.812c0.19472-5.1667 0.39905-10.333 0.59375-15.5l15.5-0.5625v-71.125c-0.11718-3.5064-0.66635-7.1765 2.9688-9.0938 17.971-15.566 29.967-38.912 28.375-63.031 0.2435-20.205-8.8362-39.465-23.031-53.562-0.13063-0.13149-0.27474-0.2444-0.40625-0.375l-343.31-342.94c-1.6885-1.8492-3.3939-3.742-5.125-5.5zm-87.375 211.69v-16.062h-16.094l16.094 16.062z"
     fill-opacity=".39216"
     display="none" />
  <path
     id="path11980-69"
     d="m-964.54-281.7 425.16 425.12v-125.12l-300-300z"
     fill-opacity=".39216"
     display="none" />
  <g
     id="layer2-4-5"
     display="none"
     transform="matrix(6.7274 0 0 6.7274 -2800.6 -809.34)">
    <rect
       id="rect3745-3-6"
       opacity=".9"
       rx="6"
       ry="6"
       height="85"
       filter="url(#filter3174-3-2)"
       width="86"
       y="7"
       x="5"
       fill="url(#linearGradient6148)" />
  </g>
  <path
     id="path4230-6"
     d="m403.25 165.47c-2.1202 7.3447-36.402 181.33-29.267 189.98 6.1765 7.4828 15.826 4.2405 17.946-3.1042-2.1202 7.3447-6.3607 22.034-8.4809 29.379-17.946 3.1042-33.92-0.81668-37.444-17.946-4.0713-19.793 27.134-182.59 29.267-189.98-4.7411-8.958-29.531-15.826-33.772-1.1362l-7.9128-2.1202c18.514-34.603 53.838-9.3127 69.663-5.0722z"
     display="none" />
  <path
     id="path4232-3"
     d="m381.06 183.26c-26.427 32.483-124.22 164.54-147.96 158.17l-15.826-4.2405 12.153-12.569 7.9128 2.1202c15.826 4.2405 123.65-133.04 140.05-160.3 12.573-20.906 3.6724 16.81 3.6724 16.81z"
     display="none" />
  <path
     id="path4234-7"
     d="m318.18 253.45 47.477 12.721-4.2405 14.689-55.39-14.842z"
     display="none" />
  <ellipse
     id="path3281-0-0-60"
     rx="266.61"
     transform="matrix(.96593 .25882 -.27735 .96077 0 0)"
     ry="248.8"
     cy="141.15"
     cx="351.81"
     display="none"
     fill="url(#radialGradient26869-3)" />
  <path
     id="path4230-0-3"
     d="m403.25 165.47c-2.1202 7.3447-36.402 181.33-29.267 189.98 6.1765 7.4828 15.826 4.2405 17.946-3.1042-2.1202 7.3447-6.3607 22.034-8.4809 29.379-17.946 3.1042-33.92-0.81668-37.444-17.946-4.0713-19.793 27.134-182.59 29.267-189.98-4.7411-8.958-29.531-15.826-33.772-1.1362l-7.9128-2.1202c18.514-34.603 53.838-9.3127 69.663-5.0722z"
     display="none" />
  <path
     id="path4232-1-8"
     d="m381.06 183.26c-26.427 32.483-124.22 164.54-147.96 158.17l-15.826-4.2405 12.153-12.569 7.9128 2.1202c15.826 4.2405 123.65-133.04 140.05-160.3 12.573-20.906 3.6724 16.81 3.6724 16.81z"
     display="none" />
  <path
     id="path4234-6-3"
     d="m318.18 253.45 47.477 12.721-4.2405 14.689-55.39-14.842z"
     display="none" />
  <ellipse
     id="path3281-0-0-1-3"
     rx="266.61"
     transform="matrix(.96593 .25882 -.27735 .96077 0 0)"
     ry="248.8"
     cy="141.15"
     cx="351.81"
     display="none"
     fill="url(#radialGradient26869-3)" />
  <path
     id="path4230-8-1"
     d="m1810.2 423c-2.1203 7.3447-36.402 181.33-29.268 189.98 6.1765 7.4828 15.826 4.2405 17.946-3.1042-2.1203 7.3447-6.3608 22.034-8.4811 29.379-17.946 3.1042-33.92-0.81668-37.444-17.946-4.0713-19.793 27.134-182.59 29.268-189.98-4.7412-8.958-29.531-15.826-33.772-1.1362l-7.9128-2.1202c18.514-34.603 53.838-9.3127 69.663-5.0722z"
     display="none" />
  <path
     id="path4232-9-5"
     d="m1788 440.8c-26.427 32.483-124.22 164.54-147.96 158.17l-15.826-4.2405 12.153-12.569 7.9129 2.1202c15.826 4.2405 123.65-133.04 140.05-160.3 12.574-20.906 3.6724 16.81 3.6724 16.81z"
     display="none" />
  <path
     id="path4234-5-1"
     d="m1725.1 510.99 47.477 12.721-4.2405 14.689-55.39-14.842z"
     display="none" />
  <ellipse
     id="path3281-0-0-6-99"
     rx="266.61"
     transform="matrix(.96593 .25882 -.27735 .96077 0 0)"
     ry="248.8"
     cy="25.745"
     cx="1775.2"
     display="none"
     fill="url(#radialGradient26875-7)" />
  <path
     id="path4230-4"
     d="m349.75 114.66c-2.1202 7.3447-36.402 181.33-29.267 189.98 6.1765 7.4828 15.826 4.2405 17.946-3.1042-2.1202 7.3447-6.3607 22.034-8.4809 29.379-17.946 3.1042-33.92-0.81668-37.444-17.946-4.0713-19.793 27.134-182.59 29.267-189.98-4.7411-8.958-29.531-15.826-33.772-1.1362l-7.9128-2.1202c18.514-34.603 53.838-9.3127 69.663-5.0722z"
     display="none" />
  <path
     id="path4232-19"
     d="m327.56 132.45c-26.427 32.483-124.22 164.54-147.96 158.17l-15.826-4.2405 12.153-12.569 7.9128 2.1202c15.826 4.2405 123.65-133.04 140.05-160.3 12.573-20.906 3.6724 16.81 3.6724 16.81z"
     display="none" />
  <path
     id="path4234-56"
     d="m264.67 202.64 47.477 12.721-4.2405 14.689-55.39-14.842z"
     display="none" />
  <ellipse
     id="path3281-0-0-16"
     rx="266.61"
     ry="248.8"
     transform="matrix(.96593 .25882 -.27735 .96077 0 0)"
     cy="105.91"
     cx="286.3"
     display="none"
     fill="url(#radialGradient21305-6-1)" />
  <path
     id="path4230-0-5"
     d="m349.75 114.66c-2.1202 7.3447-36.402 181.33-29.267 189.98 6.1765 7.4828 15.826 4.2405 17.946-3.1042-2.1202 7.3447-6.3607 22.034-8.4809 29.379-17.946 3.1042-33.92-0.81668-37.444-17.946-4.0713-19.793 27.134-182.59 29.267-189.98-4.7411-8.958-29.531-15.826-33.772-1.1362l-7.9128-2.1202c18.514-34.603 53.838-9.3127 69.663-5.0722z"
     display="none" />
  <path
     id="path4232-1-1"
     d="m327.56 132.45c-26.427 32.483-124.22 164.54-147.96 158.17l-15.826-4.2405 12.153-12.569 7.9128 2.1202c15.826 4.2405 123.65-133.04 140.05-160.3 12.573-20.906 3.6724 16.81 3.6724 16.81z"
     display="none" />
  <path
     id="path4234-6-7"
     d="m264.67 202.64 47.477 12.721-4.2405 14.689-55.39-14.842z"
     display="none" />
  <ellipse
     id="path3281-0-0-1-5"
     rx="266.61"
     transform="matrix(.96593 .25882 -.27735 .96077 0 0)"
     ry="248.8"
     cy="105.91"
     cx="286.3"
     display="none"
     fill="url(#radialGradient21305-6-1)" />
  <path
     id="path4230-8-70"
     d="m1756.7 372.19c-2.1203 7.3447-36.402 181.33-29.268 189.98 6.1765 7.4828 15.826 4.2405 17.946-3.1042-2.1203 7.3447-6.3608 22.034-8.4811 29.379-17.946 3.1042-33.92-0.81668-37.444-17.946-4.0713-19.793 27.134-182.59 29.268-189.98-4.7412-8.958-29.531-15.826-33.772-1.1362l-7.9129-2.1202c18.514-34.603 53.838-9.3127 69.663-5.0722z"
     display="none" />
  <path
     id="path4232-9-2"
     d="m1734.5 389.98c-26.427 32.483-124.22 164.54-147.96 158.17l-15.826-4.2405 12.153-12.569 7.9128 2.1202c15.826 4.2405 123.65-133.04 140.05-160.3 12.574-20.906 3.6724 16.81 3.6724 16.81z"
     display="none" />
  <path
     id="path4234-5-2"
     d="m1671.6 460.17 47.477 12.721-4.2404 14.689-55.39-14.842z"
     display="none" />
  <ellipse
     id="path3281-0-0-6-6"
     rx="266.61"
     ry="248.8"
     transform="matrix(.96593 .25882 -.27735 .96077 0 0)"
     cy="-9.4945"
     cx="1709.7"
     display="none"
     fill="url(#radialGradient21305-0-3)" />
  <g
     id="layer2-2"
     display="none"
     transform="matrix(6.7274 0 0 6.7274 -2854.1 -860.15)">
    <rect
       id="rect3745-85"
       opacity=".9"
       rx="6"
       ry="6"
       height="85"
       filter="url(#filter3174-39)"
       width="86"
       y="7"
       x="5"
       fill="url(#linearGradient6148)" />
  </g>
  <g
     id="layer2-3-2"
     display="none"
     transform="matrix(6.7274 0 0 6.7274 -2854.1 -860.15)">
    <rect
       id="rect3745-8-4"
       opacity=".9"
       rx="6"
       ry="6"
       height="85"
       filter="url(#filter3174-5-0)"
       width="86"
       y="7"
       x="5"
       fill="url(#linearGradient6148)" />
  </g>
  <path
     id="path4230-61"
     d="m390.98 165.47c-2.1202 7.3447-36.402 181.33-29.267 189.98 6.1765 7.4828 15.826 4.2405 17.946-3.1042-2.1202 7.3447-6.3607 22.034-8.4809 29.379-17.946 3.1042-33.92-0.81668-37.444-17.946-4.0713-19.793 27.134-182.59 29.267-189.98-4.7411-8.958-29.531-15.826-33.772-1.1362l-7.9128-2.1202c18.514-34.603 53.838-9.3127 69.663-5.0722z"
     display="none" />
  <path
     id="path4232-2"
     d="m368.79 183.26c-26.427 32.483-124.22 164.54-147.96 158.17l-15.826-4.2405 12.153-12.569 7.9128 2.1202c15.826 4.2405 123.65-133.04 140.05-160.3 12.573-20.906 3.6724 16.81 3.6724 16.81z"
     display="none" />
  <path
     id="path4234-1"
     d="m305.9 253.45 47.477 12.721-4.2405 14.689-55.39-14.842z"
     display="none" />
  <ellipse
     id="path3281-0-0-8"
     rx="266.61"
     ry="248.8"
     transform="matrix(.96593 .25882 -.27735 .96077 0 0)"
     cy="144.32"
     cx="340.02"
     display="none"
     fill="url(#radialGradient21305-72)" />
  <path
     id="path4230-57"
     d="m298.62 169.81c-2.1202 7.3447-36.402 181.33-29.267 189.98 6.1765 7.4828 15.826 4.2405 17.946-3.1042-2.1202 7.3447-6.3607 22.034-8.4809 29.379-17.946 3.1042-33.92-0.81668-37.444-17.946-4.0713-19.793 27.134-182.59 29.267-189.98-4.7411-8.958-29.531-15.826-33.772-1.1362l-7.9128-2.1202c18.514-34.603 53.838-9.3127 69.663-5.0722z"
     display="none" />
  <path
     id="path4232-33"
     d="m276.43 187.6c-26.427 32.483-124.22 164.54-147.96 158.17l-15.826-4.2405 12.153-12.569 7.9128 2.1202c15.826 4.2405 123.65-133.04 140.05-160.3 12.573-20.906 3.6724 16.81 3.6724 16.81z"
     display="none" />
  <path
     id="path4234-629"
     d="m213.55 257.79 47.477 12.721-4.2405 14.689-55.39-14.842z"
     display="none" />
  <ellipse
     id="path3281-0-0-5"
     rx="266.61"
     transform="matrix(.96593 .25882 -.27735 .96077 0 0)"
     ry="248.8"
     cy="172.42"
     cx="252.47"
     display="none"
     fill="url(#radialGradient21305-2)" />
  <rect
     id="rect3745-55"
     opacity=".9"
     transform="matrix(2.1031 0 0 2.1031 -2154.3 147.54)"
     rx="6"
     ry="6"
     height="85"
     filter="url(#filter3174-7)"
     width="86"
     display="none"
     y="7"
     x="5"
     fill="url(#linearGradient3158)" />
  <rect
     id="rect3745-65"
     opacity=".9"
     rx="6"
     ry="6"
     transform="matrix(4.5768 0 0 4.5768 -328.85 -56.078)"
     filter="url(#filter3174-61)"
     width="86"
     display="none"
     y="7"
     x="5"
     height="85"
     fill="url(#linearGradient3158)" />
  <path
     inkscape:connector-curvature="0"
     style="fill:url(#radialGradient151398-0)"
     id="rect2986"
     d="M 26,0 C 11.603,0 0,11.603 0,26 l 0,460 c 0,14.397 11.603,26 26,26 l 460,0 c 14.397,0 26,-11.603 26,-26 L 512,26 C 512,11.603 500.4,0 486,0 L 26,0 Z" />
  <path
     inkscape:connector-curvature="0"
     id="path152207"
     style="color:#000000;opacity:0.25"
     d="M 256,41 C 137.27,41 41,137.27 41,256 c 0,59.37 24.066,113.12 62.97,152.03 L 207.95,512 486,512 c 14.4,0 26,-11.6 26,-26 L 512,207.95 408.03,103.97 C 369.12,65.066 315.37,41 256,41 Z" />
  <path
     inkscape:connector-curvature="0"
     id="path3378"
     style="color:#000000;fill:#ffffff"
     d="M 256,41 C 137.27,41 41,137.27 41,256 41,374.73 137.27,471 256,471 374.73,471 471,374.73 471,256 471,137.27 374.73,41 256,41 Z m 0,30.909 c 32.611,0 63.245,8.4958 89.811,23.371 -0.86418,0.57024 -5.1243,1.7589 -9.7348,2.7273 -10.012,2.1028 -37.306,10.728 -46.477,14.659 -6.1132,2.6204 -6.2981,2.6034 -9.8485,-0.1894 -9.3597,-7.3624 -26.485,-9.6262 -37.614,-4.9621 l -5.6061,2.3485 -16.136,-10.038 c -8.9,-5.523 -18.96,-11.566 -22.35,-13.413 -2.36,-1.281 -4.16,-2.612 -4.85,-3.523 19.59,-7.112 40.75,-10.985 62.8,-10.985 z m -95.682,26.818 16.061,7.9167 c 9.7353,4.7824 23.324,12.326 30.227,16.78 l 12.576,8.106 -1.4394,5.1515 c -0.78416,2.84 -0.99981,7.6028 -0.49241,10.606 0.90991,5.3857 0.75179,5.597 -10.417,14.962 -6.2278,5.2222 -16.521,14.76 -22.879,21.174 l -11.553,11.667 -7.9924,-0.79546 c -4.9861,-0.48253 -10.521,0.001 -14.659,1.2879 l -6.6288,2.0834 -6.8561,-8.1061 c -3.7758,-4.4647 -12.047,-15.82 -18.371,-25.227 -7.0068,-10.423 -9.6946,-14.739 -10.227,-17.348 14.218,-19.315 32.106,-35.732 52.652,-48.258 z m 218.26,19.962 c 37.741,33.712 61.515,82.725 61.515,137.31 0,8.9008 -0.63501,17.649 -1.8561,26.212 l -14.242,3.3333 c -8.5005,1.9873 -19.064,4.0307 -23.447,4.5455 -4.3834,0.51473 -9.0283,1.2603 -10.341,1.6288 -1.5687,0.44037 -3.4529,-1.0561 -5.4924,-4.3561 -6.0752,-9.8298 -16.051,-16.602 -27.727,-18.788 -4.9868,-0.93376 -5.3848,-1.4795 -9.9621,-13.636 -10.292,-27.336 -31.056,-63.776 -48.561,-85.265 -4.3773,-5.3736 -6.3951,-9.0605 -5.7955,-10.568 0.50673,-1.2739 1.622,-6.0849 2.5,-10.72 1.4589,-7.701 2.0643,-8.6474 6.7803,-10.644 16.299,-6.9002 43.346,-14.132 64.545,-17.273 l 12.083,-1.7803 z m -287.65,55.758 7.5379,10.795 c 4.6576,6.6658 12.294,16.7 16.97,22.273 7.2611,8.6542 8.3326,10.646 7.3485,13.75 -2.4355,7.6813 -1.3222,22.168 2.2727,29.47 l 3.447,6.9697 -7.3485,15.492 c -8.2506,17.415 -19.237,49.624 -21.97,64.394 -0.88721,4.7948 -2.0396,9.08 -2.7652,10.265 -15.594,-27.034 -24.508,-58.406 -24.508,-91.856 0,-29.284 6.849,-56.972 19.015,-81.553 z m 142.46,2.0076 6.4394,3.1818 c 6.6502,3.2902 21.291,4.4114 28.864,2.197 3.2784,-0.95865 4.4583,0.0773 12.424,10.871 16.494,22.349 29.651,46.112 39.242,70.947 l 4.8864,12.652 -5.2273,7.2727 c -2.8713,3.9966 -5.33,7.2152 -5.4545,7.1591 -0.12448,-0.0561 -5.7635,-1.2923 -12.538,-2.7273 -35.989,-7.6236 -74.407,-23.006 -97.689,-39.129 l -5.6818,-3.9394 0.34091,-10.114 c 0.22175,-6.837 -0.4568,-12.166 -2.1212,-16.326 l -2.5,-6.1742 10,-10.114 c 5.4924,-5.5627 14.273,-13.611 19.508,-17.917 l 9.5076,-7.8409 z m -52.159,90.985 12.235,7.4621 c 17.662,10.799 41.624,22.12 60.758,28.674 14.178,4.8567 23.226,7.2667 47.689,12.727 3.0738,0.68611 2.1829,1.5426 -7.2727,6.9318 -38.679,22.045 -73.254,51.985 -97.008,84.015 -4.8198,6.4991 -10.212,13.631 -11.97,15.833 l -1.8182,2.3106 c -23.617,-10.073 -44.682,-24.933 -62.008,-43.371 -1.7377,-4.3656 -0.88234,-9.8941 1.2879,-22.538 4.7453,-27.646 11.238,-48.686 22.841,-73.977 l 6.0985,-13.295 8.3333,0 c 4.5865,0.003 11.143,-1.0725 14.583,-2.3864 l 6.25,-2.3864 z m 250,45.114 c -11.719,36.337 -34.424,67.713 -64.205,90.265 -0.46006,-3.365 -0.56796,-14.967 -0.22728,-29.015 0.62692,-25.851 1.0939,-30.269 3.144,-31.515 4.9034,-2.9798 16.104,-15.262 16.932,-18.561 0.79376,-3.1625 2.3071,-3.6713 19.962,-6.5909 10.508,-1.7376 20.562,-3.5619 22.386,-4.053 l 2.0076,-0.5303 z m -105.76,25.833 6.4394,3.3712 c 4.0566,2.1361 6.7905,4.6986 7.3485,6.8939 2.2958,9.033 -2.2542,65.274 -5.7197,74.356 -23.567,10.962 -49.834,17.083 -77.538,17.083 -14.962,0 -29.52,-1.7828 -43.447,-5.1515 1.4607,-4.5018 13.907,-20.376 27.652,-34.924 19.407,-20.542 48.463,-42.494 73.447,-55.492 l 11.818,-6.1364 z" />
</svg>
