<?xml version="1.0" encoding="UTF-8" standalone="no"?>
<svg
   xmlns:dc="http://purl.org/dc/elements/1.1/"
   xmlns:cc="http://creativecommons.org/ns#"
   xmlns:rdf="http://www.w3.org/1999/02/22-rdf-syntax-ns#"
   xmlns:svg="http://www.w3.org/2000/svg"
   xmlns="http://www.w3.org/2000/svg"
   xmlns:sodipodi="http://sodipodi.sourceforge.net/DTD/sodipodi-0.dtd"
   xmlns:inkscape="http://www.inkscape.org/namespaces/inkscape"
   id="svg2"
   version="1.1"
   viewBox="0 0 512 512"
   inkscape:version="0.91 r13725"
   sodipodi:docname="radiotray.svg">
  <sodipodi:namedview
     pagecolor="#ffffff"
     bordercolor="#666666"
     borderopacity="1"
     objecttolerance="10"
     gridtolerance="10"
     guidetolerance="10"
     inkscape:pageopacity="0"
     inkscape:pageshadow="2"
     inkscape:window-width="1366"
     inkscape:window-height="709"
     id="namedview20"
     showgrid="false"
     inkscape:zoom="0.65186406"
     inkscape:cx="176.56915"
     inkscape:cy="349.44895"
     inkscape:window-x="0"
     inkscape:window-y="0"
     inkscape:window-maximized="0"
     inkscape:current-layer="svg2" />
  <metadata
     id="metadata77">
    <rdf:RDF>
      <cc:Work
         rdf:about="">
        <dc:format>image/svg+xml</dc:format>
        <dc:type
           rdf:resource="http://purl.org/dc/dcmitype/StillImage" />
        <dc:title />
      </cc:Work>
    </rdf:RDF>
  </metadata>
  <defs
     id="defs4">
    <path
       id="0"
       fill="#fff"
       d="m140.7 41.27c-63.61 62.66-63.802 164.59-0.278 227.17l30.25-29.797c-47.18-46.48-46.968-121.04 0.278-167.58l-30.25-29.797m200.36 29.525c47.18 46.48 47.527 121.58 0.278 168.12l30.25 29.796c63.61-62.66 63.25-165.14-0.278-227.71l-30.25 29.797" />
    <path
       id="1"
       fill="#fff"
       d="m192.78 92.58c-34.877 34.36-34.982 90.24-0.152 124.56l16.584-16.337c-25.87-25.485-25.752-66.36 0.152-91.88l-16.584-16.337m109.85 16.188c25.87 25.485 26.06 66.66 0.152 92.19l16.584 16.337c34.877-34.36 34.677-90.54-0.152-124.86l-16.584 16.337" />
    <path
       id="3"
       d="m262.65 154.58l0.137 304.36"
       stroke="#fff"
       stroke-linecap="round"
       stroke-width="24.12"
       fill="none" />
  </defs>
  <path
     inkscape:connector-curvature="0"
     style="fill:#4076b0"
     id="path272961"
     d="M 26,0 C 11.603,0 0,11.603 0,26 l 0,460 c 0,14.397 11.603,26 26,26 l 460,0 c 14.397,0 26,-11.603 26,-26 L 512,26 C 512,11.603 500.4,0 486,0 L 26,0" />
  <path
     inkscape:connector-curvature="0"
     id="path273027"
     style="color:#000000;opacity:0.25"
     d="m 371.3,41 -30.25,29.797 0.9668,0.9668 c 21.632,21.787 33.145,49.673 34.457,77.916 l -56.79,-56.789 c 0.0767,0.0767 0.1502,0.15549 0.22656,0.23242 l -0.7,-0.693 -16.58,16.34 0.36,0.36 c 24.465,24.465 25.515,63.08 2.8184,88.617 l -43.168,-43.168 0.004,7.6133 -53.283,-53.283 -0.006,0.006 -16.58,-16.334 16.459,16.459 -0.002,0.002 -16.463,-16.463 c -0.0546,0.0538 -0.10768,0.10821 -0.16211,0.16211 l -21.66,-21.676 c -9.9e-4,9.7e-4 -9.6e-4,0.003 -0.002,0.004 l -0.004,-0.004 -29.338,-28.898 -0.90234,-0.90234 c -63.32,62.38 -63.798,163.66 -1.1444,226.31 l 0.57422,0.57422 c -0.19319,-0.19111 -0.38613,-0.38222 -0.57813,-0.57422 l 123.21,123.21 0.0312,68.152 53.05,53.06001 170.15,0 c 14.397,0 26,-11.603 26,-26.00001 l 0,-304.31 -139.82,-139.82 c 0.10053,0.10053 0.19667,0.20395 0.29688,0.30469 l -0.30078,-0.30079 c -0.29,-0.293 -0.58,-0.583 -0.88,-0.874 z" />
  <path
     inkscape:connector-curvature="0"
     style="color:#000000;fill:#ffffff"
     d="m 371.44531,40.85547 -30.28125,29.83399 c 47.23782,46.53478 47.58232,121.72632 0.27539,168.32812 l 30.28516,29.83203 c 63.6885,-62.73928 63.32558,-165.34526 -0.2793,-227.99414 z m -230.88672,0.26953 0.004,0.004 c 0,0 0.002,-0.002 0.002,-0.002 l -0.006,-0.002 z m 0.004,0.004 C 76.87598,103.86845 76.68576,205.92065 140.2832,268.58018 l 30.28321,-29.83399 C 123.32662,192.21155 123.53956,117.56153 170.84375,70.95909 L 140.5625,41.12901 Z m 178.74805,51.22657 -16.60352,16.35546 c 25.90142,25.51608 26.09219,66.7395 0.15235,92.30078 l 16.60351,16.35742 c 34.92019,-34.40038 34.72039,-90.64945 -0.15234,-125.01366 z M 192.7168,92.49815 c -34.92019,34.40037 -35.02703,90.35688 -0.1543,124.71093 l 16.60547,-16.35742 c -25.90142,-25.51608 -25.78411,-66.44385 0.15234,-91.99609 l -16.59961,-16.35156 -0.004,-0.006 z m 70.00195,49.84961 c -6.72002,0 -12.13086,5.41084 -12.13086,12.13086 l 0,304.56445 c 0,6.72002 5.41084,12.12891 12.13086,12.12891 6.72002,0 12.12891,-5.40889 12.12891,-12.12891 l 0,-304.56445 c 0,-6.72002 -5.40889,-12.13086 -12.12891,-12.13086 z"
     id="path68" />
</svg>
