<?xml version="1.0" encoding="UTF-8" standalone="no"?>
<svg
   xmlns:dc="http://purl.org/dc/elements/1.1/"
   xmlns:cc="http://creativecommons.org/ns#"
   xmlns:rdf="http://www.w3.org/1999/02/22-rdf-syntax-ns#"
   xmlns:svg="http://www.w3.org/2000/svg"
   xmlns="http://www.w3.org/2000/svg"
   xmlns:sodipodi="http://sodipodi.sourceforge.net/DTD/sodipodi-0.dtd"
   xmlns:inkscape="http://www.inkscape.org/namespaces/inkscape"
   viewBox="0 0 512 512"
   id="svg2"
   version="1.1"
   inkscape:version="0.91+devel r13804 custom"
   sodipodi:docname="reddit.svg">
  <metadata
     id="metadata77">
    <rdf:RDF>
      <cc:Work
         rdf:about="">
        <dc:format>image/svg+xml</dc:format>
        <dc:type
           rdf:resource="http://purl.org/dc/dcmitype/StillImage" />
        <dc:title></dc:title>
      </cc:Work>
    </rdf:RDF>
  </metadata>
  <sodipodi:namedview
     pagecolor="#ffffff"
     bordercolor="#666666"
     borderopacity="1"
     objecttolerance="10"
     gridtolerance="10"
     guidetolerance="10"
     inkscape:pageopacity="0"
     inkscape:pageshadow="2"
     inkscape:window-width="1366"
     inkscape:window-height="709"
     id="namedview75"
     showgrid="false"
     inkscape:zoom="0.32593203"
     inkscape:cx="-11.678728"
     inkscape:cy="95.710196"
     inkscape:window-x="-2"
     inkscape:window-y="-3"
     inkscape:window-maximized="1"
     inkscape:current-layer="svg2"
     showguides="true" />
  <defs
     id="defs4">
    <filter
       id="filter271728"
       style="color-interpolation-filters:sRGB">
      <feGaussianBlur
         id="feGaussianBlur271730"
         stdDeviation="1.71" />
    </filter>
    <linearGradient
       id="linearGradient271732"
       y1="92.54"
       x2="0"
       y2="7.02"
       gradientUnits="userSpaceOnUse"
       gradientTransform="scale(1.0059.99417)">
      <stop
         id="stop271734" />
      <stop
         id="stop271736"
         style="stop-opacity:.588"
         offset="1" />
    </linearGradient>
    <path
       style="fill:#fff;color:#000"
       d="m140.7 41.27c-63.61 62.66-63.802 164.59-.278 227.17l30.25-29.797c-47.18-46.48-46.968-121.04.278-167.58l-30.25-29.797m200.36 29.525c47.18 46.48 47.527 121.58.278 168.12l30.25 29.796c63.61-62.66 63.25-165.14-.278-227.71l-30.25 29.797"
       id="0" />
    <path
       style="fill:#fff;color:#000"
       d="m192.78 92.58c-34.877 34.36-34.982 90.24-.152 124.56l16.584-16.337c-25.87-25.485-25.752-66.36.152-91.88l-16.584-16.337m109.85 16.188c25.87 25.485 26.06 66.66.152 92.19l16.584 16.337c34.877-34.36 34.677-90.54-.152-124.86l-16.584 16.337"
       id="1" />
    <path
       style="fill:none;stroke:#fff;stroke-linecap:round;stroke-width:24.12"
       d="m262.65 154.58l.137 304.36"
       id="3" />
    <clipPath
       id="0-9">
      <path
         id="path273429"
         d="m26 0c-14.397 0-26 11.603-26 26v460c0 14.397 11.603 26 26 26h460c14.397 0 26-11.603 26-26v-460c0-14.397-11.603-26-26-26h-460" />
    </clipPath>
    <clipPath
       id="0-96">
      <path
         id="path274110"
         d="m26 0c-14.397 0-26 11.603-26 26v460c0 14.397 11.603 26 26 26h460c14.397 0 26-11.603 26-26v-460c0-14.397-11.603-26-26-26h-460" />
    </clipPath>
    <clipPath
       id="0-3">
      <path
         id="path275162"
         d="m26 0c-14.397 0-26 11.603-26 26v460c0 14.397 11.603 26 26 26h460c14.397 0 26-11.603 26-26v-460c0-14.397-11.603-26-26-26h-460" />
    </clipPath>
  </defs>
  <text
     sodipodi:linespacing="125%"
     y="-21.301189"
     x="-345.96381"
     line-height="125%"
     style="font-size:129.22999573px;line-height:125%;font-family:'Gentium Book Basic';letter-spacing:0;word-spacing:0"
     id="text275166">
    <tspan
       y="-21.301189"
       x="-345.96381"
       id="tspan275168" />
  </text>
  <text
     transform="scale(4.0128205,0.24920128)"
     y="-434.61929"
     x="110.86614"
     style="font-size:46.95399857px;font-family:Arial;text-anchor:middle"
     id="text275170" />
  <text
     sodipodi:linespacing="125%"
     y="-101.30119"
     x="235.3062"
     line-height="125%"
     style="font-size:129.22999573px;line-height:125%;font-family:'Gentium Book Basic';letter-spacing:0;word-spacing:0"
     id="text275172">
    <tspan
       y="-101.30119"
       x="235.3062"
       id="tspan275174" />
  </text>
  <text
     transform="scale(4.0128205,0.24920128)"
     y="-755.65765"
     x="255.71539"
     style="font-size:46.95399857px;font-family:Arial;text-anchor:middle"
     id="text275176" />
  <text
     sodipodi:linespacing="125%"
     y="-282.56119"
     x="-836.2738"
     line-height="125%"
     style="font-size:129.22999573px;line-height:125%;font-family:'Gentium Book Basic';letter-spacing:0;word-spacing:0"
     id="text275178">
    <tspan
       y="-282.56119"
       x="-836.2738"
       id="tspan275180" />
  </text>
  <text
     transform="scale(4.0128205,0.24920128)"
     y="-1482.9939"
     x="-11.323228"
     style="font-size:46.95399857px;font-family:Arial;text-anchor:middle"
     id="text275182" />
  <text
     sodipodi:linespacing="125%"
     y="-499.03119"
     x="261.77618"
     line-height="125%"
     style="font-size:129.22999573px;line-height:125%;font-family:'Gentium Book Basic';letter-spacing:0;word-spacing:0"
     id="text275184">
    <tspan
       y="-499.03119"
       x="261.77618"
       id="tspan275186" />
  </text>
  <text
     transform="scale(4.0128205,0.24920128)"
     y="-2351.6694"
     x="262.31537"
     style="font-size:46.95399857px;font-family:Arial;text-anchor:middle"
     id="text275188" />
  <text
     sodipodi:linespacing="125%"
     y="-579.03119"
     x="843.0462"
     line-height="125%"
     style="font-size:129.22999573px;line-height:125%;font-family:'Gentium Book Basic';letter-spacing:0;word-spacing:0"
     id="text275190">
    <tspan
       y="-579.03119"
       x="843.0462"
       id="tspan275192" />
  </text>
  <text
     transform="scale(4.0128205,0.24920128)"
     y="-2672.6978"
     x="407.16464"
     style="font-size:46.95399857px;font-family:Arial;text-anchor:middle"
     id="text275194" />
  <text
     sodipodi:linespacing="125%"
     y="-1051.4312"
     x="453.92618"
     line-height="125%"
     style="font-size:129.22999573px;line-height:125%;font-family:'Gentium Book Basic';letter-spacing:0;word-spacing:0"
     id="text275196">
    <tspan
       y="-1051.4312"
       x="453.92618"
       id="tspan275198" />
  </text>
  <text
     transform="scale(4.0128205,0.24920128)"
     y="-4568.3379"
     x="310.19513"
     style="font-size:46.95399857px;font-family:Arial;text-anchor:middle"
     id="text275200" />
  <text
     sodipodi:linespacing="125%"
     y="-1131.4412"
     x="1035.1862"
     line-height="125%"
     style="font-size:129.22999573px;line-height:125%;font-family:'Gentium Book Basic';letter-spacing:0;word-spacing:0"
     id="text275202">
    <tspan
       y="-1131.4412"
       x="1035.1862"
       id="tspan275204" />
  </text>
  <text
     transform="scale(4.0128205,0.24920128)"
     y="-4889.3667"
     x="455.0444"
     style="font-size:46.95399857px;font-family:Arial;text-anchor:middle"
     id="text275206" />
  <text
     sodipodi:linespacing="125%"
     y="283.27881"
     x="-797.61377"
     line-height="125%"
     style="font-size:208.33000183px;line-height:125%;font-family:'Gentium Book Basic';letter-spacing:0;word-spacing:0"
     id="text275208">
    <tspan
       y="283.27881"
       x="-797.61377"
       id="tspan275210" />
  </text>
  <g
     id="g275645"
     transform="translate(153.82381,177.30094)">
    <path
       id="path275164"
       style="fill:#e4a146"
       d="m -127.82381,-177.30119 c -14.397,0 -26,11.603 -26,26 l 0,460 c 0,14.397 11.603,26 26,26 l 460,0 c 14.397,0 26,-11.603 26,-26 l 0,-460 c 0,-14.397 -11.603,-26 -26,-26 l -460,0"
       inkscape:connector-curvature="0" />
    <path
       style="opacity:0.25"
       id="path275214"
       d="m 251.7168,-102.73047 c -16.913,0 -31.42469,10.369439 -37.42969,25.148439 l -83.38477,-19.853516 -0.006,-0.0059 L 96.279297,0.99804688 172.98242,77.701172 c -10e-4,-2.32e-4 -0.003,2.32e-4 -0.004,0 L 96.275391,0.99804688 C 47.015391,1.9040469 2.3060152,15.259125 -31.083984,36.578125 c -8.998,-7.791 -20.210235,-12.232422 -32.240235,-12.232422 l 74.527344,74.527344 c -3.6e-4,0.0012 3.6e-4,0.0027 0,0.0039 L -63.324219,24.349609 c -27.321,0 -49.500001,22.22 -49.500001,49.5 0,13.304 5.33994,25.726653 14.460939,34.847661 l 0,0.002 c 0.01203,0.012 0.02507,0.0231 0.03711,0.0352 l 8.070313,8.07226 c -0.720347,4.49212 -1.148438,9.00703 -1.148438,13.60156 0,26.65 12.061031,51.47133 32.707031,72.11133 l 132.179688,132.17969 258.693357,0 c 14.397,0 26,-11.603 26,-26 l 0,-321.666017 -77.9043,-77.904297 c 0.0407,0.04069 0.0786,0.08414 0.11914,0.125 l -0.125,-0.125 c -7.31499,-7.31499 -17.40641,-11.849786 -28.54296,-11.853516 l -0.006,-0.006 z"
       inkscape:connector-curvature="0" />
    <path
       id="path275360"
       style="fill:#ffffff"
       d="m 251.71619,-102.73119 c -16.913,0 -31.425,10.371 -37.43,25.15 l -83.39,-19.856 -34.617,98.44 c -49.26,0.906 -93.97,14.261 -127.36,35.58 -8.998,-7.791 -20.21,-12.234 -32.24,-12.234 -27.321,0 -49.5,22.22 -49.5,49.5 0,16.952 8.669,32.476 22.784,41.556 -0.865,4.953 -1.364,9.929 -1.364,15 0,48.603 40.13,91.11 99.23,113.32 10.501,3.928 11.07,3.989 20.02,6.539 22.771,6.363 47.647,9.868 73.845,9.868 25.55,0 49.954,-3.426 72.28,-9.467 21.798,-6.672 2.751,-0.266 21.54,-6.939 59.21,-22.19 99.4,-64.68 99.4,-113.32 0,-4.953 -0.458,-9.628 -1.244,-14.44 14.476,-8.998 23.507,-24.924 23.507,-42.12 0,-27.28 -22.24,-49.5 -49.5,-49.5 -12.161,0 -23.612,4.543 -32.652,12.515 -32.22,-20.679 -74.924,-33.949 -122.22,-35.74 l 28.24,-80.06 70.2,16.802 c 0.04,22.249 18.16,40.31 40.473,40.31 22.309,0 40.43,-18.09 40.43,-40.43 0,-22.288 -18.12,-40.473 -40.43,-40.473 m 0,15.57 c 13.732,0 24.87,11.198 24.87,24.909 0,13.711 -11.158,24.87 -24.87,24.87 -13.711,0 -24.909,-11.158 -24.909,-24.87 0,-13.711 11.179,-24.909 24.909,-24.909 m -315.05,127.08 c 6.926,0 13.556,2.051 19.17,5.857 -19.59,15.181 -34.01,33.412 -41.43,53.51 -7.288,-6.342 -11.668,-15.532 -11.668,-25.432 0,-18.725 15.171,-33.936 33.936,-33.936 m 330.89,0 c 18.725,0 34.06,15.211 34.06,33.936 0,10.188 -4.724,19.47 -12.394,25.839 -7.309,-20.09 -21.485,-38.37 -40.996,-53.63 5.638,-3.987 12.247,-6.137 19.331,-6.137 m -227.2,37.26 c 16.815,0 30.446,13.632 30.446,30.446 0,16.815 -13.632,30.446 -30.446,30.446 -16.815,0 -30.446,-13.632 -30.446,-30.446 0,-16.815 13.632,-30.446 30.446,-30.446 m 127.08,0 c 16.815,0 30.446,13.632 30.446,30.446 0,16.815 -13.632,30.446 -30.446,30.446 -16.815,0 -30.446,-13.632 -30.446,-30.446 0,-16.815 13.632,-30.446 30.446,-30.446 m -130.44,99.48 c 2.171,0.031 4.366,1.064 5.897,2.848 0.463,0.463 17.03,18.05 58.52,18.05 42.22,0 60.727,-18.29 60.894,-18.492 l 0,-0.121 c 3,-2.939 7.911,-2.979 10.991,0 3.081,2.979 3.221,7.89 0.281,10.991 -0.906,0.927 -22.815,23.06 -72.16,23.06 -49.589,0 -69.53,-22.399 -70.36,-23.349 -2.798,-3.262 -2.299,-8.192 0.963,-10.991 1.208,-1.05 2.58,-1.791 4.051,-1.965 0.308,-0.036 0.612,-0.045 0.923,-0.04"
       inkscape:connector-curvature="0" />
  </g>
</svg>
