<?xml version="1.0" encoding="UTF-8" standalone="no"?>
<svg
   xmlns:dc="http://purl.org/dc/elements/1.1/"
   xmlns:cc="http://creativecommons.org/ns#"
   xmlns:rdf="http://www.w3.org/1999/02/22-rdf-syntax-ns#"
   xmlns:svg="http://www.w3.org/2000/svg"
   xmlns="http://www.w3.org/2000/svg"
   xmlns:xlink="http://www.w3.org/1999/xlink"
   xmlns:sodipodi="http://sodipodi.sourceforge.net/DTD/sodipodi-0.dtd"
   xmlns:inkscape="http://www.inkscape.org/namespaces/inkscape"
   viewBox="0 0 512 512"
   id="svg2"
   version="1.1"
   inkscape:version="0.91+devel r13804 custom"
   sodipodi:docname="redshiftgui.svg">
  <metadata
     id="metadata472">
    <rdf:RDF>
      <cc:Work
         rdf:about="">
        <dc:format>image/svg+xml</dc:format>
        <dc:type
           rdf:resource="http://purl.org/dc/dcmitype/StillImage" />
        <dc:title></dc:title>
      </cc:Work>
    </rdf:RDF>
  </metadata>
  <sodipodi:namedview
     pagecolor="#ffffff"
     bordercolor="#666666"
     borderopacity="1"
     objecttolerance="10"
     gridtolerance="10"
     guidetolerance="10"
     inkscape:pageopacity="0"
     inkscape:pageshadow="2"
     inkscape:window-width="1366"
     inkscape:window-height="709"
     id="namedview470"
     showgrid="false"
     inkscape:zoom="0.4609375"
     inkscape:cx="-8.6779661"
     inkscape:cy="237.55932"
     inkscape:window-x="-2"
     inkscape:window-y="-3"
     inkscape:window-maximized="1"
     inkscape:current-layer="svg2" />
  <defs
     id="defs4">
    <filter
       style="color-interpolation-filters:sRGB"
       id="filter9">
      <feGaussianBlur
         stdDeviation="1.71"
         id="feGaussianBlur11" />
    </filter>
    <linearGradient
       gradientTransform="scale(1.0059.99417)"
       gradientUnits="userSpaceOnUse"
       xlink:href="#0"
       y2="7.02"
       x2="0"
       y1="92.54"
       id="linearGradient13" />
    <linearGradient
       gradientTransform="scale(1.0059.99417)"
       gradientUnits="userSpaceOnUse"
       xlink:href="#0"
       y2="7.02"
       x2="0"
       y1="92.54"
       id="linearGradient15" />
    <linearGradient
       gradientTransform="scale(1.0059.99417)"
       gradientUnits="userSpaceOnUse"
       id="0"
       y2="7.02"
       x2="0"
       y1="92.54">
      <stop
         id="stop18" />
      <stop
         offset="1"
         style="stop-opacity:.588"
         id="stop20" />
    </linearGradient>
    <clipPath
       id="0-2">
      <path
         id="path3886"
         d="m26 0c-14.397 0-26 11.603-26 26v460c0 14.397 11.603 26 26 26h460c14.397 0 26-11.603 26-26v-460c0-14.397-11.603-26-26-26h-460" />
    </clipPath>
  </defs>
  <text
     sodipodi:linespacing="125%"
     y="-98.480225"
     x="-555.46875"
     line-height="125%"
     style="font-size:129.22999573px;line-height:125%;font-family:'Gentium Book Basic';letter-spacing:0;word-spacing:0"
     id="text3890">
    <tspan
       y="-98.480225"
       x="-555.46875"
       id="tspan3892" />
  </text>
  <text
     transform="scale(4.0128205,0.24920128)"
     y="-744.32788"
     x="58.656528"
     style="font-size:46.95399857px;font-family:Arial;text-anchor:middle"
     id="text3894" />
  <text
     sodipodi:linespacing="125%"
     y="-178.47623"
     x="25.801254"
     line-height="125%"
     style="font-size:129.22999573px;line-height:125%;font-family:'Gentium Book Basic';letter-spacing:0;word-spacing:0"
     id="text3896">
    <tspan
       y="-178.47623"
       x="25.801254"
       id="tspan3898" />
  </text>
  <text
     transform="scale(4.0128205,0.24920128)"
     y="-1065.3522"
     x="203.50578"
     style="font-size:46.95399857px;font-family:Arial;text-anchor:middle"
     id="text3900" />
  <text
     sodipodi:linespacing="125%"
     y="-359.7402"
     x="-1045.7788"
     line-height="125%"
     style="font-size:129.22999573px;line-height:125%;font-family:'Gentium Book Basic';letter-spacing:0;word-spacing:0"
     id="text3902">
    <tspan
       y="-359.7402"
       x="-1045.7788"
       id="tspan3904" />
  </text>
  <text
     transform="scale(4.0128205,0.24920128)"
     y="-1792.7085"
     x="-63.532845"
     style="font-size:46.95399857px;font-family:Arial;text-anchor:middle"
     id="text3906" />
  <text
     sodipodi:linespacing="125%"
     y="-576.21021"
     x="52.271255"
     line-height="125%"
     style="font-size:129.22999573px;line-height:125%;font-family:'Gentium Book Basic';letter-spacing:0;word-spacing:0"
     id="text3908">
    <tspan
       y="-576.21021"
       x="52.271255"
       id="tspan3910" />
  </text>
  <text
     transform="scale(4.0128205,0.24920128)"
     y="-2661.364"
     x="210.10576"
     style="font-size:46.95399857px;font-family:Arial;text-anchor:middle"
     id="text3912" />
  <text
     sodipodi:linespacing="125%"
     y="-656.22021"
     x="633.54126"
     line-height="125%"
     style="font-size:129.22999573px;line-height:125%;font-family:'Gentium Book Basic';letter-spacing:0;word-spacing:0"
     id="text3914">
    <tspan
       y="-656.22021"
       x="633.54126"
       id="tspan3916" />
  </text>
  <text
     transform="scale(4.0128205,0.24920128)"
     y="-2982.4023"
     x="354.95502"
     style="font-size:46.95399857px;font-family:Arial;text-anchor:middle"
     id="text3918" />
  <text
     sodipodi:linespacing="125%"
     y="-1128.6202"
     x="244.42125"
     line-height="125%"
     style="font-size:129.22999573px;line-height:125%;font-family:'Gentium Book Basic';letter-spacing:0;word-spacing:0"
     id="text3920">
    <tspan
       y="-1128.6202"
       x="244.42125"
       id="tspan3922" />
  </text>
  <text
     transform="scale(4.0128205,0.24920128)"
     y="-4878.0425"
     x="257.9855"
     style="font-size:46.95399857px;font-family:Arial;text-anchor:middle"
     id="text3924" />
  <text
     sodipodi:linespacing="125%"
     y="-1208.6202"
     x="825.68127"
     line-height="125%"
     style="font-size:129.22999573px;line-height:125%;font-family:'Gentium Book Basic';letter-spacing:0;word-spacing:0"
     id="text3926">
    <tspan
       y="-1208.6202"
       x="825.68127"
       id="tspan3928" />
  </text>
  <text
     transform="scale(4.0128205,0.24920128)"
     y="-5199.0713"
     x="402.83478"
     style="font-size:46.95399857px;font-family:Arial;text-anchor:middle"
     id="text3930" />
  <text
     sodipodi:linespacing="125%"
     y="206.09978"
     x="-1007.1187"
     line-height="125%"
     style="font-size:208.33000183px;line-height:125%;font-family:'Gentium Book Basic';letter-spacing:0;word-spacing:0"
     id="text3932">
    <tspan
       y="206.09978"
       x="-1007.1187"
       id="tspan3934" />
  </text>
  <g
     id="g4554"
     transform="translate(174.32844,186.65012)">
    <path
       id="path3888"
       style="fill:#b22222"
       d="m -148.32875,-186.65022 c -14.397,0 -26,11.603 -26,26 l 0,460 c 0,14.397 11.603,26 26,26 l 460,0 c 14.397,0 26,-11.603 26,-26 l 0,-460 c 0,-14.397 -11.603,-26 -26,-26 l -460,0"
       inkscape:connector-curvature="0" />
    <path
       id="path3938"
       d="m 81.671875,-145.65039 c -66.81,0 -120.941406,54.170468 -120.941406,120.980468 l 0.01172,0.01172 c 0.0034,35.948282 15.66855,68.230833 39.20898388,93.078125 C 23.465172,93.245922 24.459156,125.12039 24.285156,151.65039 l 46.771485,46.77149 -0.0039,0 -46.771484,-46.77149 c -0.363,1.403 -0.153688,2.94327 0.570312,4.19727 l 0,0.002 11.617188,20.13086 24.296875,24.29687 -0.0059,0.002 -24.289063,-24.28907 -12.226562,16.30079 -0.002,-0.002 c -1.495001,2.02 -1.38786,5.06275 0.24414,6.96875 l 0.02734,0.0273 9.068359,10.69336 7.966797,7.96679 -0.0059,0.008 -7.972657,-7.97265 -8.068359,10.43359 34.523438,34.52539 -0.0059,0 -34.517578,-34.51953 c -1.512,1.958 -1.492984,4.94867 0.04102,6.88867 l 0.07227,0.0723 8.251954,10.47656 8.064453,8.06446 -0.0039,0.004 -8.066406,-8.0664 0,0.12304 -7.214844,9.61719 0.002,0.002 c -1.626081,2.18205 -1.19115,5.5276 0.699218,7.41797 l 0.03711,0.0371 c -0.01351,-0.0132 -0.0296,-0.0237 -0.04297,-0.0371 l 70.330078,70.33008 214,0 c 14.39699,0 26,-11.603 26,-26 l 0,-239.080079 -170.5,-170.500001 c -21.87972,-21.87972 -52.10648,-35.41247 -85.494141,-35.41406 l -0.0059,-0.006 z"
       style="color:#000000;opacity:0.25"
       inkscape:connector-curvature="0" />
    <path
       id="path4158"
       style="color:#000000;fill:#ffffff"
       d="m 81.67125,-145.65022 c -66.81,0 -120.94,54.17 -120.94,120.98 0,35.953 15.667,68.24 39.21,93.09 23.514,24.826 24.508,56.7 24.334,83.23 -0.363,1.403 -0.153,2.944 0.571,4.198 l 11.617,20.13 -12.228,16.304 c -1.495,2.02 -1.387,5.063 0.245,6.969 l 9.09,10.719 -8.07,10.435 c -1.512,1.958 -1.493,4.949 0.041,6.889 l 8.315,10.557 0,0.122 -7.214,9.619 c -1.934,2.593 -0.957,6.829 1.916,8.315 17.525,9.875 36.547,19.2 53.19,27.798 1.654,0.875 3.754,0.843 5.38,-0.082 l 47.4,-27.06 c 2.862,-1.629 3.62,-6.03 1.468,-8.512 l -7.867,-9.13 12.07,-11.698 c 2.252,-2.169 2.11,-6.305 -0.286,-8.315 l -10.883,-9.212 9.457,-10.231 c 1.777,-1.92 1.923,-5.141 0.327,-7.214 l -10.435,-13.492 9.983,-24.579 c 0.293,-0.721 0.433,-1.504 0.407,-2.282 -0.167,-25.775 -1.497,-58.47 17.283,-81.23 28.322,-22.13 46.548,-56.6 46.548,-95.34 0,-66.81 -54.13,-120.98 -120.94,-120.98 m 0,27.15 c 51.822,0 93.83,42.01 93.83,93.83 0,30.722 -14.791,58.03 -38.474,75.69 -21.72,21.822 -28.31,67.7 -27.11,95.46 -5.652,-0.014 -11.326,-0.033 -16.996,-0.041 l -0.041,-108.55 c 8.7,-19.67 12.952,-21.911 19.16,-30.08 2.794,-6.155 0.474,-11.575 -7.098,-13.08 -4.202,-0.573 -8.755,-1.199 -13.492,-1.671 -3.01,-0.3 -6.661,-0.424 -10.516,-0.407 -11.566,0.051 -24.929,1.452 -27.88,3.709 -1.586,1.133 -3.129,2.275 -3.994,4.85 -0.761,2.353 -0.064,4.983 1.468,7.744 9.16,10.254 15.251,16.357 18.381,29.31 l 0,108.25 c -5.237,0.047 -10.49,0.102 -15.733,0.204 1.268,-27.769 -5.193,-73.865 -24.618,-94.16 -0.011,-0.007 0.011,-0.034 0,-0.041 l -13.737,-10.964 c -13.669,-10.982 -26.978,-37.06 -26.978,-66.23 0,-51.822 42.01,-93.83 93.83,-93.83 m -29.707,68.68 c -2.067,0.093 -4.03,1.414 -4.891,3.302 -5.316,11.736 -13.13,20.641 -29.511,25.593 l 3.261,10.842 c 16.371,-4.953 26.608,-14.586 33.22,-25.841 9.287,6.661 16.785,10.762 25.311,10.964 8.694,0.206 17.16,-3.49 28.576,-9.823 6.172,12.474 16.499,20.256 27.961,25.19 l 4.484,-10.394 c -11.48,-4.94 -19.951,-11.674 -24.374,-24.618 -1.069,-3.142 -5.266,-4.737 -8.151,-3.098 -14.196,8.177 -22.13,11.558 -28.21,11.411 -6.074,-0.144 -12.412,-3.638 -23.967,-12.391 -1.052,-0.797 -2.391,-1.209 -3.709,-1.141 m 84.22,101.37 c 0.583,-0.349 -0.553,0.356 -1.712,1.059 l 0,0.041 1.712,-1.1 m -54.74,106.06 c 14.448,-0.03 28.958,0.052 43.45,0.041 l -1.345,3.302 -75.17,13.451 c -0.102,-0.267 -0.225,-0.526 -0.366,-0.775 l -8.805,-15.244 c 14.03,-0.482 28.11,-0.745 42.23,-0.775 m 37.09,15.733 -1.712,4.198 c -0.718,1.8 -0.413,3.97 0.775,5.503 l 4.769,6.155 -79.56,14.347 -6.889,-8.151 6.277,-8.355 z m 8.437,21.847 0.122,0.163 -0.082,0.082 -0.041,-0.245 m -4.85,5.543 -5.259,5.712 c -2.046,2.21 -1.808,6.124 0.489,8.07 l 4.728,3.994 -78.09,14.1 -6.93,-8.764 6.93,-9.05 z m 4.484,21.602 1.386,1.182 -1.019,0.978 z m -5.462,7.826 -4.566,4.443 c -2.02,1.967 -2.168,5.531 -0.327,7.662 l 3.464,3.994 -66.852,9.742 -13.288,-6.93 3.628,-4.81 z m -14.51,29.47 -22.377,12.796 -14.267,-7.459 z"
       inkscape:connector-curvature="0" />
  </g>
</svg>
