<?xml version="1.0" encoding="UTF-8" standalone="no"?>
<svg
   xmlns:dc="http://purl.org/dc/elements/1.1/"
   xmlns:cc="http://creativecommons.org/ns#"
   xmlns:rdf="http://www.w3.org/1999/02/22-rdf-syntax-ns#"
   xmlns:svg="http://www.w3.org/2000/svg"
   xmlns="http://www.w3.org/2000/svg"
   xmlns:sodipodi="http://sodipodi.sourceforge.net/DTD/sodipodi-0.dtd"
   xmlns:inkscape="http://www.inkscape.org/namespaces/inkscape"
   viewBox="0 0 512 512"
   id="svg2"
   version="1.1"
   inkscape:version="0.91 r13725"
   sodipodi:docname="roccat-tools.svg">
  <metadata
     id="metadata494">
    <rdf:RDF>
      <cc:Work
         rdf:about="">
        <dc:format>image/svg+xml</dc:format>
        <dc:type
           rdf:resource="http://purl.org/dc/dcmitype/StillImage" />
      </cc:Work>
    </rdf:RDF>
  </metadata>
  <defs
     id="defs492" />
  <sodipodi:namedview
     pagecolor="#ffffff"
     bordercolor="#666666"
     borderopacity="1"
     objecttolerance="10"
     gridtolerance="10"
     guidetolerance="10"
     inkscape:pageopacity="0"
     inkscape:pageshadow="2"
     inkscape:window-width="640"
     inkscape:window-height="480"
     id="namedview490"
     showgrid="false"
     inkscape:zoom="0.5546875"
     inkscape:cx="36.056338"
     inkscape:cy="240.67606"
     inkscape:current-layer="svg2" />
  <path
     style="fill:#53a3bb"
     inkscape:connector-curvature="0"
     id="path6"
     d="m 25.994,0 c -14.397,0 -26,11.603 -26,26 l 0,460 c 0,14.397 11.603,26 26,26 l 460,0 c 14.397,0 26,-11.603 26,-26 l 0,-460 c 0,-14.397 -11.603,-26 -26,-26 l -460,0" />
  <path
     style="opacity:0.25"
     inkscape:connector-curvature="0"
     id="path486"
     d="m 230.5,40.99 21.05,21.05 c -0.002,-10e-4 -0.004,-10e-4 -0.006,-0.002 l -21.04,-21.05 c -28.324,0 -55.35,5.493 -80.12,15.445 -0.007,0.002 -0.014,0.002 -0.022,0.004 l 0.002,0.002 -0.002,0.002 78.05,78.05 c -6.81,1.171 -13.13,2.26 -22.631,5.125 -18.744,5.84 -29.28,10.282 -44.848,19.406 l -5.945,-5.945 c -0.003,0.004 -0.005,0.009 -0.008,0.014 -10.01,2.925 -19.361,11.98 -25.756,18.814 l -6.03,-6.03 c 0,0.002 0,0.004 0,0.006 -7.988,10.747 -13.793,18.863 -19.16,31.09 -4.234,11.29 -5.941,21.867 -12.791,28.836 l 0.002,0.004 c -7.865,8.367 -16.947,16.997 -23.381,28.676 l 8.303,8.303 -0.006,0 -8.299,-8.299 c -0.68,2.955 -1.981,5.833 -0.361,7.453 l 5.451,5.451 c -1.985,1.282 -2.839,3.839 -3.293,8.856 l 0.006,0.006 c 1.078,9.745 2.732,19.15 9.691,26.1 l 0.193,0.193 c -0.017,-0.014 -0.039,-0.029 -0.055,-0.043 l 137.52,137.52 c -8.522,1.187 -17.222,1.807 -26.06,1.807 -44.33,0 -85.15,-15.38 -117.58,-41.17 l 0.084,0.084 c 3.314,3.817 6.76,7.512 10.328,11.08 l 100.17,100.17 302.05,0 c 14.397,0 26,-11.603 26,-26 l 0,-252.54 -129.51,-129.52 c 0.044,0.044 0.085,0.089 0.129,0.133 l -0.133,-0.133 C 343.592,65.048 289.862,40.99 230.502,40.99 Z" />
  <path
     style="fill:#ffffff"
     inkscape:connector-curvature="0"
     id="path488"
     d="m 230.5,41 c -28.332,0 -55.37,5.495 -80.14,15.453 13.07,-2.878 26.662,-4.408 40.581,-4.408 79.975,0 148.44,50.05 177,121.07 4.01,1.589 8.01,3.217 12.04,4.649 3.055,1.085 6.119,2.14 9.191,3.144 -3.073,-1 -6.136,-2.059 -9.191,-3.144 -6.11,-2.171 -12.194,-4.504 -18.248,-7.04 -26.435,-11.32 -45.512,-17.397 -75.73,-23.19 -2.97,12.405 -5.115,22.675 -13.438,32.25 3.832,-12.02 5.464,-19.237 5.617,-31.766 -0.825,-10.315 -0.074,-16.285 -5.05,-24.618 -12.333,3.035 -22.545,6.749 -33.809,9.08 -12.321,2.554 -19.34,2.867 -33.54,7.149 -21.348,6.651 -32.04,11.48 -51.654,23.489 l -4.166,2.419 c -1.506,-0.349 1.964,-7.485 5.03,-12.443 -18.08,5.275 -34.1,30.628 -34.21,26.606 0.97,-4.582 2.28,-9.118 2.419,-13.814 -7.988,10.747 -13.793,18.863 -19.16,31.09 -4.234,11.29 -5.942,21.868 -12.792,28.837 -7.865,8.367 -16.947,16.997 -23.381,28.676 -0.824,3.583 -2.56,7.05 1.102,8.304 l 12.793,0 c 3.611,0 7.262,-0.459 7.01,1.693 -0.135,1.172 -0.444,1.747 -5.133,1.747 -10.498,-0.244 -13.05,-0.202 -13.975,10.02 1.085,9.814 2.753,19.282 9.836,26.26 1.841,1.631 7.735,3.374 10.213,3.118 6.536,11.81 11.05,17.641 23.489,22.629 -3.462,-9.785 -10.539,-20.979 5.751,-33.809 4.937,10.203 8.231,14.703 20.667,18.947 l -2.929,-6.907 c -6.614,-14.881 -14.722,-23.731 -1.048,-36.09 20.943,-15.558 33.727,-8.89 44.559,3.789 12.642,12.354 20.15,22.511 7.794,31.444 -7.541,6.381 -14.75,9.277 -24.19,13.814 -8.652,-5.191 -13.191,-10.173 -20.05,-19.35 -0.344,6.03 -0.067,9.332 1.908,15.372 l 2.311,8.681 c -9.693,-2.024 -19.659,-6.65 -30.29,-15.16 4.515,22.986 5.472,37.628 22.978,53.75 9.971,4.409 23.305,-3.06 35.663,-14.163 77.23,-43.984 77.99,-6.364 104.06,54.23 l 4.569,13.841 c -27.767,16.01 -59.829,25.18 -94.01,25.18 -44.33,0 -85.15,-15.38 -117.58,-41.17 10.13,11.678 21.489,22.22 33.836,31.471 34.91,24.484 77.42,38.861 123.3,38.861 24.01,0 47.08,-3.999 68.64,-11.261 l 0.027,0.081 c 52.57,-17.702 96,-55.21 121.56,-103.6 -26.13,-14.365 -54.1,-25.11 -90.08,-36.2 40.23,2.02 69.65,8.122 98.5,18.383 2.097,-5.05 4.01,-10.192 5.724,-15.426 -37.922,-20.459 -73.78,-31.23 -124.94,-40.984 54.18,-3.284 89.69,2.965 131.42,16.206 1.244,-6.252 2.24,-12.593 2.929,-19.03 l -5.133,-3.064 c -51.97,-21.437 -93.03,-27.832 -155.79,-29.03 63.909,-14.959 103.19,-11.613 160.63,-1.72 l 1.29,0.188 c -0.871,-18.19 -4.02,-35.783 -9.137,-52.51 -0.008,-0.001 -0.018,0.001 -0.027,0 -26.923,-88.01 -108.77,-152.03 -205.59,-152.03 m -94.52,160.98 -9.326,13.652 -15.803,2.768 c 2.753,-7.784 10.769,-14.219 25.13,-16.421" />
</svg>
