<?xml version="1.0" encoding="UTF-8" standalone="no"?>
<svg
   xmlns:dc="http://purl.org/dc/elements/1.1/"
   xmlns:cc="http://creativecommons.org/ns#"
   xmlns:rdf="http://www.w3.org/1999/02/22-rdf-syntax-ns#"
   xmlns:svg="http://www.w3.org/2000/svg"
   xmlns="http://www.w3.org/2000/svg"
   xmlns:xlink="http://www.w3.org/1999/xlink"
   xmlns:sodipodi="http://sodipodi.sourceforge.net/DTD/sodipodi-0.dtd"
   xmlns:inkscape="http://www.inkscape.org/namespaces/inkscape"
   viewBox="0 0 512 512"
   id="svg2"
   version="1.1"
   inkscape:version="0.91+devel r13804 custom"
   sodipodi:docname="rubymine.svg">
  <metadata
     id="metadata472">
    <rdf:RDF>
      <cc:Work
         rdf:about="">
        <dc:format>image/svg+xml</dc:format>
        <dc:type
           rdf:resource="http://purl.org/dc/dcmitype/StillImage" />
        <dc:title></dc:title>
      </cc:Work>
    </rdf:RDF>
  </metadata>
  <sodipodi:namedview
     pagecolor="#ffffff"
     bordercolor="#666666"
     borderopacity="1"
     objecttolerance="10"
     gridtolerance="10"
     guidetolerance="10"
     inkscape:pageopacity="0"
     inkscape:pageshadow="2"
     inkscape:window-width="1366"
     inkscape:window-height="709"
     id="namedview470"
     showgrid="false"
     inkscape:zoom="0.4609375"
     inkscape:cx="-8.6779661"
     inkscape:cy="237.55932"
     inkscape:window-x="-2"
     inkscape:window-y="-3"
     inkscape:window-maximized="1"
     inkscape:current-layer="svg2" />
  <defs
     id="defs4">
    <filter
       style="color-interpolation-filters:sRGB"
       id="filter9">
      <feGaussianBlur
         stdDeviation="1.71"
         id="feGaussianBlur11" />
    </filter>
    <linearGradient
       gradientTransform="scale(1.0059.99417)"
       gradientUnits="userSpaceOnUse"
       xlink:href="#0"
       y2="7.02"
       x2="0"
       y1="92.54"
       id="linearGradient13" />
    <linearGradient
       gradientTransform="scale(1.0059.99417)"
       gradientUnits="userSpaceOnUse"
       xlink:href="#0"
       y2="7.02"
       x2="0"
       y1="92.54"
       id="linearGradient15" />
    <linearGradient
       gradientTransform="scale(1.0059.99417)"
       gradientUnits="userSpaceOnUse"
       id="0"
       y2="7.02"
       x2="0"
       y1="92.54">
      <stop
         id="stop18" />
      <stop
         offset="1"
         style="stop-opacity:.588"
         id="stop20" />
    </linearGradient>
    <clipPath
       id="0-2">
      <path
         id="path3886"
         d="m26 0c-14.397 0-26 11.603-26 26v460c0 14.397 11.603 26 26 26h460c14.397 0 26-11.603 26-26v-460c0-14.397-11.603-26-26-26h-460" />
    </clipPath>
    <filter
       id="filter4868"
       style="color-interpolation-filters:sRGB">
      <feGaussianBlur
         id="feGaussianBlur4870"
         stdDeviation="1.71" />
    </filter>
    <linearGradient
       id="linearGradient4872"
       y1="92.54"
       x2="0"
       y2="7.02"
       xlink:href="#0-7"
       gradientUnits="userSpaceOnUse"
       gradientTransform="scale(1.0059.99417)" />
    <linearGradient
       id="linearGradient4874"
       y1="92.54"
       x2="0"
       y2="7.02"
       xlink:href="#0-7"
       gradientUnits="userSpaceOnUse"
       gradientTransform="scale(1.0059.99417)" />
    <linearGradient
       y1="92.54"
       x2="0"
       y2="7.02"
       id="0-7"
       gradientUnits="userSpaceOnUse"
       gradientTransform="scale(1.0059.99417)">
      <stop
         id="stop4877" />
      <stop
         id="stop4879"
         style="stop-opacity:.588"
         offset="1" />
    </linearGradient>
    <clipPath
       id="0-9">
      <path
         id="path6328"
         d="m26 0c-14.397 0-26 11.603-26 26v460c0 14.397 11.603 26 26 26h460c14.397 0 26-11.603 26-26v-460c0-14.397-11.603-26-26-26h-460" />
    </clipPath>
    <filter
       id="filter6815"
       style="color-interpolation-filters:sRGB">
      <feGaussianBlur
         id="feGaussianBlur6817"
         stdDeviation="1.71" />
    </filter>
    <linearGradient
       y1="92.54"
       x2="0"
       y2="7.02"
       id="0-6"
       gradientUnits="userSpaceOnUse"
       gradientTransform="scale(1.0059.99417)">
      <stop
         id="stop6820" />
      <stop
         id="stop6822"
         style="stop-opacity:.588"
         offset="1" />
    </linearGradient>
    <linearGradient
       id="linearGradient6824"
       y1="92.54"
       x2="0"
       y2="7.02"
       xlink:href="#0-6"
       gradientUnits="userSpaceOnUse"
       gradientTransform="scale(1.0059.99417)" />
    <linearGradient
       id="linearGradient6826"
       y1="92.54"
       x2="0"
       y2="7.02"
       xlink:href="#0-6"
       gradientUnits="userSpaceOnUse"
       gradientTransform="scale(1.0059.99417)" />
    <linearGradient
       id="linearGradient6828"
       y1="92.54"
       x2="0"
       y2="7.02"
       xlink:href="#0-6"
       gradientUnits="userSpaceOnUse"
       gradientTransform="scale(1.0059.99417)" />
    <clipPath
       id="0-4">
      <path
         id="path9169"
         d="m26 0c-14.397 0-26 11.603-26 26v460c0 14.397 11.603 26 26 26h460c14.397 0 26-11.603 26-26v-460c0-14.397-11.603-26-26-26h-460" />
    </clipPath>
    <filter
       id="filter9565"
       style="color-interpolation-filters:sRGB">
      <feGaussianBlur
         id="feGaussianBlur9567"
         stdDeviation="1.71" />
    </filter>
    <linearGradient
       id="linearGradient9569"
       y1="92.54"
       x2="0"
       y2="7.02"
       xlink:href="#0-64"
       gradientUnits="userSpaceOnUse"
       gradientTransform="scale(1.0059.99417)" />
    <linearGradient
       y1="92.54"
       x2="0"
       y2="7.02"
       id="0-64"
       gradientUnits="userSpaceOnUse"
       gradientTransform="scale(1.0059.99417)">
      <stop
         id="stop9572" />
      <stop
         id="stop9574"
         style="stop-opacity:.588"
         offset="1" />
    </linearGradient>
    <linearGradient
       id="linearGradient9576"
       y1="92.54"
       x2="0"
       y2="7.02"
       xlink:href="#0-64"
       gradientUnits="userSpaceOnUse"
       gradientTransform="scale(1.0059.99417)" />
    <linearGradient
       id="linearGradient9578"
       y1="92.54"
       x2="0"
       y2="7.02"
       xlink:href="#0-64"
       gradientUnits="userSpaceOnUse"
       gradientTransform="scale(1.0059.99417)" />
    <linearGradient
       id="linearGradient9580"
       y1="92.54"
       x2="0"
       y2="7.02"
       xlink:href="#0-64"
       gradientUnits="userSpaceOnUse"
       gradientTransform="scale(1.0059.99417)" />
    <clipPath
       id="0-62">
      <path
         id="path11741"
         d="m26 0c-14.397 0-26 11.603-26 26v460c0 14.397 11.603 26 26 26h460c14.397 0 26-11.603 26-26v-460c0-14.397-11.603-26-26-26h-460" />
    </clipPath>
  </defs>
  <g
     id="g12109"
     transform="translate(-77.703971,234.1778)">
    <path
       id="path11743"
       style="fill:#d23638"
       d="m 103.70397,-234.17819 c -14.396999,0 -25.999999,11.603 -25.999999,26 l 0,460 c 0,14.397 11.603,26 25.999999,26 l 460,0 c 14.397,0 26,-11.603 26,-26 l 0,-460 c 0,-14.397 -11.603,-26 -26,-26 l -460,0"
       inkscape:connector-curvature="0" />
    <text
       id="text11745"
       style="font-size:129.22999573px;line-height:125%;font-family:'Gentium Book Basic';letter-spacing:0;word-spacing:0"
       line-height="125%"
       x="-120.57603"
       y="87.501801"
       sodipodi:linespacing="125%">
      <tspan
         id="tspan11747"
         x="-120.57603"
         y="87.501801" />
    </text>
    <text
       id="text11749"
       style="font-size:46.95399857px;font-family:Arial;text-anchor:middle"
       x="167.03317"
       y="1.9801385"
       transform="scale(4.0128205,0.24920128)" />
    <text
       id="text11751"
       style="font-size:129.22999573px;line-height:125%;font-family:'Gentium Book Basic';letter-spacing:0;word-spacing:0"
       line-height="125%"
       x="460.69397"
       y="7.5018024"
       sodipodi:linespacing="125%">
      <tspan
         id="tspan11753"
         x="460.69397"
         y="7.5018024" />
    </text>
    <text
       id="text11755"
       style="font-size:46.95399857px;font-family:Arial;text-anchor:middle"
       x="311.88242"
       y="-319.05826"
       transform="scale(4.0128205,0.24920128)" />
    <text
       id="text11757"
       style="font-size:129.22999573px;line-height:125%;font-family:'Gentium Book Basic';letter-spacing:0;word-spacing:0"
       line-height="125%"
       x="-610.88605"
       y="-173.75819"
       sodipodi:linespacing="125%">
      <tspan
         id="tspan11759"
         x="-610.88605"
         y="-173.75819" />
    </text>
    <text
       id="text11761"
       style="font-size:46.95399857px;font-family:Arial;text-anchor:middle"
       x="44.8438"
       y="-1046.3945"
       transform="scale(4.0128205,0.24920128)" />
    <text
       id="text11763"
       style="font-size:129.22999573px;line-height:125%;font-family:'Gentium Book Basic';letter-spacing:0;word-spacing:0"
       line-height="125%"
       x="487.16397"
       y="-390.22818"
       sodipodi:linespacing="125%">
      <tspan
         id="tspan11765"
         x="487.16397"
         y="-390.22818" />
    </text>
    <text
       id="text11767"
       style="font-size:46.95399857px;font-family:Arial;text-anchor:middle"
       x="318.48239"
       y="-1915.0701"
       transform="scale(4.0128205,0.24920128)" />
    <text
       id="text11769"
       style="font-size:129.22999573px;line-height:125%;font-family:'Gentium Book Basic';letter-spacing:0;word-spacing:0"
       line-height="125%"
       x="1068.434"
       y="-470.22818"
       sodipodi:linespacing="125%">
      <tspan
         id="tspan11771"
         x="1068.434"
         y="-470.22818" />
    </text>
    <text
       id="text11773"
       style="font-size:46.95399857px;font-family:Arial;text-anchor:middle"
       x="463.33167"
       y="-2236.0984"
       transform="scale(4.0128205,0.24920128)" />
    <text
       id="text11775"
       style="font-size:129.22999573px;line-height:125%;font-family:'Gentium Book Basic';letter-spacing:0;word-spacing:0"
       line-height="125%"
       x="679.31396"
       y="-942.62817"
       sodipodi:linespacing="125%">
      <tspan
         id="tspan11777"
         x="679.31396"
         y="-942.62817" />
    </text>
    <text
       id="text11779"
       style="font-size:46.95399857px;font-family:Arial;text-anchor:middle"
       x="366.36215"
       y="-4131.7388"
       transform="scale(4.0128205,0.24920128)" />
    <text
       id="text11781"
       style="font-size:129.22999573px;line-height:125%;font-family:'Gentium Book Basic';letter-spacing:0;word-spacing:0"
       line-height="125%"
       x="1260.574"
       y="-1022.6382"
       sodipodi:linespacing="125%">
      <tspan
         id="tspan11783"
         x="1260.574"
         y="-1022.6382" />
    </text>
    <text
       id="text11785"
       style="font-size:46.95399857px;font-family:Arial;text-anchor:middle"
       x="511.21143"
       y="-4452.7773"
       transform="scale(4.0128205,0.24920128)" />
    <text
       id="text11787"
       style="font-size:208.33000183px;line-height:125%;font-family:'Gentium Book Basic';letter-spacing:0;word-spacing:0"
       line-height="125%"
       x="-572.22601"
       y="392.08182"
       sodipodi:linespacing="125%">
      <tspan
         id="tspan11789"
         x="-572.22601"
         y="392.08182" />
    </text>
    <path
       style="opacity:0.25"
       id="path11793"
       d="m 247.06445,-157.41992 130.11719,130.117186 0,0.01172 -130.12695,-130.126956 c -21.334,0.137 -42.77339,5.19853 -62.15039,15.26953 l 0.004,0.004 c -25.25741,13.22161 -47.30582,36.77294 -57.375,61.335938 l -0.002,0 c -8.258,20.512 -7.83631,12.557391 -8.32031,149.150391 l -0.50782,132.509761 0.01,0.01 -0.01,0 76.96094,76.96094 368.03906,0 c 14.39701,0 26,-11.603 26,-26 l 0,-297.404299 -74.77929,-74.779301 c 0.0333,0.0333 0.0644,0.0683 0.0977,0.10156 l -0.0977,-0.0977 c -13.9397,-13.9397 -32.12663,-24.33022 -53.41406,-30.35547 l -0.006,-0.006 c -10.641,-2.938 -25.16,-5.55986 -31.25,-5.63086 l 0,0.002 -2.93946,0 0,0.002 0,17.64648 -18.66992,-18.66992 -8.21875,1.06641 8.21875,8.21875 0,0.006 -8.2207,-8.22071 c -19.939,2.526 -43.36899,11.48174 -59.45899,22.67774 l 0,0.002 61.07813,61.076173 -0.002,0.002 -61.07618,-61.078123 -8.26757,5.73437 -0.004,-0.004 -8.40234,-5.92188 -0.0176,-0.0176 c -22.552,-15.821 -49.78399,-23.7678 -77.20899,-23.5918 z"
       inkscape:connector-curvature="0" />
    <path
       id="path11893"
       style="fill:#ffffff"
       d="m 247.05397,-157.41819 c -21.334,0.137 -42.773,5.199 -62.15,15.27 -25.26,13.221 -47.31,36.775 -57.38,61.34 -8.258,20.512 -7.836,12.557 -8.32,149.15 l -0.507,132.51 88.22,0.203 0,-127.59 c 0,-117.63 -0.025,-118.03 2.841,-125.16 6.163,-15.317 22.313,-24.8 40.586,-23.743 22.805,1.129 37.19,16.873 38.1,28.715 l 0,247.57 88.02,0 0.406,-128.35 0.355,-119.02 3.298,-6.24 c 4.407,-8.33 14.13,-17.16 21.764,-19.887 l 6.342,-2.232 0,-82.49 -8.219,1.065 c -19.939,2.526 -43.37,11.481 -59.46,22.677 l -8.269,5.733 -8.422,-5.936 c -22.552,-15.821 -49.785,-23.767 -77.21,-23.591 m 180.25,1.065 0,81.63 6.443,2.689 c 9.03,3.852 15.88,10.455 20.699,20.04 3.565,7.08 4.109,9.569 4.109,18.67 0.072,9.1 -0.428,11.606 -3.653,17.553 -5.03,9.584 -13.812,17.456 -31.1,27.954 -16.732,10.09 -23.398,16.588 -27.446,26.584 -5.392,13.221 -3.135,33.805 5.124,47.38 1.953,3.01 16.406,22.876 32.367,44.09 15.962,21.21 31.25,41.894 33.991,46.01 8.599,12.45 16.256,19.07 26.13,21.866 5.876,1.612 19.546,1.162 26.533,-0.862 l -0.101,-0.051 c 10.713,-3.153 19.04,-9.85 24.15,-19.08 4.192,-7.56 4.42,-8.778 4.01,-18.72 -0.555,-14.06 -4.278,-21.255 -25.417,-48.754 -26.728,-35.06 -35.716,-47.16 -35.716,-48.15 0,-0.484 4.459,-4.364 9.994,-8.574 20.297,-15.532 37.16,-40.42 44.24,-65.39 3.081,-10.641 3.551,-15.08 3.551,-31.1 0.072,-22.03 -2.583,-34.36 -11.11,-51.29 -13.794,-27.498 -39.42,-47.48 -72.6,-56.871 -10.641,-2.938 -25.16,-5.56 -31.25,-5.631 l -2.942,0"
       inkscape:connector-curvature="0" />
  </g>
</svg>
