<?xml version="1.0" encoding="UTF-8" standalone="no"?>
<svg
   xmlns:dc="http://purl.org/dc/elements/1.1/"
   xmlns:cc="http://creativecommons.org/ns#"
   xmlns:rdf="http://www.w3.org/1999/02/22-rdf-syntax-ns#"
   xmlns:svg="http://www.w3.org/2000/svg"
   xmlns="http://www.w3.org/2000/svg"
   xmlns:sodipodi="http://sodipodi.sourceforge.net/DTD/sodipodi-0.dtd"
   xmlns:inkscape="http://www.inkscape.org/namespaces/inkscape"
   viewBox="0 0 512 512"
   id="svg2"
   version="1.1"
   inkscape:version="0.91 r13725"
   sodipodi:docname="scummvm.svg">
  <metadata
     id="metadata926">
    <rdf:RDF>
      <cc:Work
         rdf:about="">
        <dc:format>image/svg+xml</dc:format>
        <dc:type
           rdf:resource="http://purl.org/dc/dcmitype/StillImage" />
      </cc:Work>
    </rdf:RDF>
  </metadata>
  <defs
     id="defs924" />
  <sodipodi:namedview
     pagecolor="#ffffff"
     bordercolor="#666666"
     borderopacity="1"
     objecttolerance="10"
     gridtolerance="10"
     guidetolerance="10"
     inkscape:pageopacity="0"
     inkscape:pageshadow="2"
     inkscape:window-width="640"
     inkscape:window-height="480"
     id="namedview922"
     showgrid="false"
     inkscape:zoom="0.5546875"
     inkscape:cx="36.056338"
     inkscape:cy="240.67606"
     inkscape:current-layer="svg2" />
  <path
     inkscape:connector-curvature="0"
     style="fill:#46b546"
     d="m 26,-5e-4 c -14.397,0 -26,11.603 -26,26 l 0,460 c 0,14.397 11.603,26 26,26 l 460,0 c 14.397,0 26,-11.603 26,-26 l 0,-460 c 0,-14.397 -11.6,-26 -26,-26 l -460,0"
     id="path4" />
  <path
     inkscape:connector-curvature="0"
     style="opacity:0.5;fill:#050504"
     d="m 233.84,470.7595 c -33.32,-4.856 -58.1,-12.198 -76.64,-22.711 -29.648,-16.815 -58.721,-45.29 -66.71,-65.35 -1.688,-4.236 -2,-6.664 -2.02,-15.568 -0.017,-9.89 0.151,-10.946 2.696,-16.818 4.379,-10.1 17.761,-26.497 41.01,-50.24 11,-11.237 13.236,-14.712 13.13,-20.427 -0.1,-5.376 -3.223,-11.1 -11.217,-20.573 -15.559,-18.433 -24.299,-36.14 -29.658,-60.09 -2.8,-12.513 -2.756,-38.808 0.084,-51.999 6.342,-29.422 16.712,-48.22 36.716,-66.55 23.353,-21.397 43.979,-30.796 82.1,-37.4 14.551,-2.523 40.28,-2.72 55.18,-0.419 33.05,5.096 60.12,14.179 82.74,27.755 21.974,13.191 43.967,31.21 50.649,41.51 7.835,12.07 9.535,24.576 5.132,37.744 -3.08,9.212 -5.679,13.383 -21.575,34.625 -16.01,21.396 -17.547,24.07 -17.52,30.519 0.034,6.394 1.908,9.949 11.766,22.24 18.586,23.17 24.659,35.527 30.688,62.47 7.791,34.814 0.776,77.42 -16.949,102.95 -17.917,25.805 -41.904,44.783 -70.03,55.41 -8.364,3.161 -26.04,7.807 -40.01,10.516 -11.06,2.144 -14.451,2.397 -34.596,2.587 -12.284,0.168 -23.516,0 -24.961,-0.168 z"
     id="path916" />
  <path
     inkscape:connector-curvature="0"
     style="opacity:0.25"
     d="m 253.22,73.1295 c -12.37,-0.075 -25.32,0.784 -33.35,2.441 -28.93,5.989 -51.87,19.556 -66.86,39.54 l 232.71,232.71 -232.71,-232.71 c -8.19,10.91 -13.32,22.69 -16.52,37.92 l 0.01,0 c -1.9,9.02 -2.13,30.25 -0.43,38.24 4.78,22.38 14.82,40.68 32.26,58.13 l 102.33,102.33 c -1.09,0.85 -2.35,1.63 -3.83,2.36 -4.16,2.06 -5.63,2.3 -13.57,2.23 l 0,0.01 c -14.47,-0.17 -27.48,-3.63 -45.24,-12.16 l 86.2,86.2 -0.01,0 -86.2,-86.2 c -12.47,-6 -24.51,-13.97 -34.72,-23.02 l -0.06,-0.05 c -10.26,-9.09 -11.21,-9.59 -14.17,-7.44 l 119.41,119.41 -0.01,0 -119.4,-119.4 c -2.29,1.67 -18.85,22 -31.24,38.33 l 0.01,0.01 c -8.08,10.65 -8.35,12.53 -2.85,19.87 l 31.11,31.11 c -0.01,-0.01 -0.02,-0.02 -0.04,-0.03 l -31.08,-31.08 c 2.97,3.96 8.83,10.34 14.92,16.43 l 123.69,123.69 222.42,0 c 14.4,0 26,-11.6 26,-26 l 0,-225.88 -132.68,-132.68 c -0.85,-0.85 -1.83,-1.79 -2.94,-2.86 -29.39,-28.57 -63.5,-45.28 -102.67,-50.28 -5.84,-0.746 -13.06,-1.127 -20.49,-1.172"
     id="path918" />
  <path
     inkscape:connector-curvature="0"
     style="fill:#ffffff"
     d="m 275.25,433.4595 c 42.688,-4.669 77.75,-23.23 96.08,-50.869 6.531,-9.848 10.279,-18.245 13.361,-29.929 3.02,-11.465 3.774,-34.28 1.568,-47.729 -3.624,-22.09 -13.488,-41.899 -29.322,-58.882 -15.869,-17.02 -31.927,-28.18 -70.55,-49.05 -26.981,-14.574 -37.24,-22.412 -39.893,-30.477 -1.432,-4.359 -0.65,-12.146 1.515,-15.08 4.264,-5.773 12.724,-8.07 23.261,-6.322 19.779,3.284 45.28,15.514 67.67,32.457 4.335,3.281 8.576,6.209 9.423,6.505 3.651,1.27 5.664,-1.075 20.22,-23.653 17.936,-27.825 17.609,-26.32 7.802,-35.854 -29.39,-28.57 -63.5,-45.28 -102.67,-50.28 -15.567,-1.989 -40.984,-1.382 -53.841,1.27 -28.931,5.989 -51.874,19.556 -66.859,39.535 -8.185,10.914 -13.315,22.69 -16.515,37.916 -1.895,9.02 -2.133,30.26 -0.427,38.25 6.04,28.309 20.514,50.1 47.734,71.877 11.446,9.157 20.379,15.13 46.09,30.807 30.778,18.769 40.1,26.25 44.45,35.654 1.772,3.835 2.103,5.698 1.815,10.227 -0.459,7.215 -3.02,11.138 -9.329,14.261 -4.162,2.062 -5.635,2.304 -13.575,2.234 -14.472,-0.168 -27.477,-3.626 -45.24,-12.163 -12.492,-6.01 -24.55,-14 -34.778,-23.06 -10.258,-9.09 -11.215,-9.591 -14.17,-7.437 -2.294,1.673 -18.854,21.996 -31.24,38.33 -8.08,10.657 -8.347,12.536 -2.853,19.878 5.544,7.408 21.21,23.24 29.603,29.93 9.134,7.274 15.194,11.165 25.417,16.321 17.353,8.748 31.691,12.557 59.1,15.692 6.226,0.712 28.348,0.503 36.16,-0.363 z"
     id="path920" />
</svg>
