<?xml version="1.0" encoding="UTF-8" standalone="no"?>
<!-- Created with Inkscape (http://www.inkscape.org/) -->

<svg
   xmlns:dc="http://purl.org/dc/elements/1.1/"
   xmlns:cc="http://creativecommons.org/ns#"
   xmlns:rdf="http://www.w3.org/1999/02/22-rdf-syntax-ns#"
   xmlns:svg="http://www.w3.org/2000/svg"
   xmlns="http://www.w3.org/2000/svg"
   xmlns:sodipodi="http://sodipodi.sourceforge.net/DTD/sodipodi-0.dtd"
   xmlns:inkscape="http://www.inkscape.org/namespaces/inkscape"
   id="svg2"
   height="100%"
   width="100%"
   version="1.1"
   viewBox="0 0 512 512"
   inkscape:version="0.91 r13725"
   sodipodi:docname="seahorse.svg">
  <defs
     id="defs32" />
  <sodipodi:namedview
     pagecolor="#ffffff"
     bordercolor="#666666"
     borderopacity="1"
     objecttolerance="10"
     gridtolerance="10"
     guidetolerance="10"
     inkscape:pageopacity="0"
     inkscape:pageshadow="2"
     inkscape:window-width="640"
     inkscape:window-height="480"
     id="namedview30"
     showgrid="false"
     inkscape:zoom="0.5546875"
     inkscape:cx="36.056338"
     inkscape:cy="240.67606"
     inkscape:current-layer="svg2" />
  <metadata
     id="metadata64">
    <rdf:RDF>
      <cc:Work
         rdf:about="">
        <dc:format>image/svg+xml</dc:format>
        <dc:type
           rdf:resource="http://purl.org/dc/dcmitype/StillImage" />
      </cc:Work>
    </rdf:RDF>
  </metadata>
  <g
     id="g3381"
     transform="translate(365.97183,-304.67606)">
    <path
       d="m -339.97383,304.67056 c -14.397,0 -26,11.603 -26,26 l 0,460 c 0,14.397 11.603,26 26,26 l 460,0 c 14.397,0 26,-11.603 26,-26 l 0,-460 c 0,-14.397 -11.6,-26 -26,-26 l -460,0"
       id="path10"
       style="fill:#999647"
       inkscape:connector-curvature="0" />
    <path
       d="m 12.936169,351.17056 c -3.781,0 -7.494,0.213 -11.156,0.656 -0.625,0.076 -1.25399999,0.256 -1.87499999,0.344 -0.327,0.046 -0.643,0.044 -0.96900001,0.094 -0.872,0.132 -1.761,0.279 -2.625,0.438 -1.215,0.221 -2.426,0.513 -3.625,0.781 -2.396,0.537 -4.772,1.124 -7.094,1.844 -1.442,0.448 -2.87,0.92 -4.281,1.438 -0.512,0.186 -1.023,0.335 -1.531,0.531 -3.038,1.174 -5.971,2.585 -8.844,4.063 -0.144,0.074 -0.293,0.144 -0.438,0.219 -0.65,0.338 -1.329,0.616 -1.969,0.969 -0.997,0.55 -1.994,1.165 -2.969,1.75 -1.111,0.668 -2.201,1.379 -3.281,2.094 -0.219,0.144 -0.439,0.292 -0.656,0.438 -1.294,0.87 -2.565,1.692 -3.813,2.625 -0.123,0.092 -0.221,0.221 -0.344,0.313 -1.407,1.063 -2.814,2.14 -4.156,3.281 -0.259,0.221 -0.523,0.432 -0.781,0.656 -0.683,0.593 -1.303,1.262 -1.969,1.875 -0.366,0.338 -0.733,0.626 -1.094,0.969 -0.562,0.535 -1.077,1.108 -1.625,1.656 -1,1 -2.01,2.01 -2.969,3.063 -0.035,0.038 -0.059,0.056 -0.094,0.094 -0.851,0.937 -1.72,1.871 -2.531,2.844 -1.079,1.288 -2.147,2.59 -3.156,3.938 -0.049,0.063 -0.078,0.155 -0.125,0.219 -3.394,4.563 -6.36,9.467 -8.875,14.625 l -5,-5 c -3.887,-1.395 -7.88,-2.621 -12.03,-3.5 -6.161,-1.305 -12.312,-1.928 -18.374999,-1.969 -42.44,-0.285 -80.66,29.26 -89.78,72.41 -2.211,10.444 -2.544,20.61 -1.219,30.625 l -118.56,77.13 c -4.722,3.071 -15.03,41.809 -7.313,53.688 0.448,0.688 1.01,1.35 1.656,2 l 188.28,188.31 252.28,0 c 14.397,0 26,-11.603 26,-26 l 0,-344.5 -66.440001,-66.44 -1.531,-1.563 c -16.666,-16.667 -39.704,-27 -65.12,-27"
       id="path58"
       style="opacity:0.25"
       inkscape:connector-curvature="0" />
    <path
       d="m 12.916169,351.17056 c -3.781,0 -7.494,0.213 -11.156,0.656 -0.625,0.076 -1.23799999,0.24 -1.85999999,0.328 -0.327,0.046 -0.659,0.059 -0.98400001,0.109 -0.872,0.132 -1.761,0.28 -2.625,0.438 -1.215,0.221 -2.411,0.497 -3.61,0.766 -2.396,0.537 -4.787,1.14 -7.109,1.86 -1.442,0.448 -2.855,0.905 -4.266,1.422 -0.512,0.186 -1.024,0.351 -1.531,0.547 -3.038,1.174 -5.986,2.57 -8.859,4.047 -0.144,0.074 -0.293,0.144 -0.438,0.219 -0.65,0.338 -1.329,0.632 -1.969,0.984 -0.997,0.55 -1.978,1.165 -2.953,1.75 -1.111,0.668 -2.2,1.364 -3.28,2.078 -0.219,0.144 -0.439,0.292 -0.656,0.438 -1.294,0.87 -2.581,1.692 -3.828,2.625 -0.123,0.092 -0.205,0.236 -0.328,0.328 -1.407,1.063 -2.814,2.14 -4.157,3.282 -0.259,0.221 -0.508,0.432 -0.766,0.656 -0.683,0.593 -1.303,1.246 -1.969,1.86 -0.366,0.338 -0.733,0.641 -1.094,0.984 -0.562,0.535 -1.093,1.093 -1.641,1.641 -1,1 -1.997,2.01 -2.953,3.063 -0.035,0.038 -0.074,0.072 -0.109,0.109 -0.851,0.937 -1.704,1.872 -2.516,2.844 -1.079,1.288 -2.163,2.59 -3.172,3.938 -0.049,0.063 -0.062,0.155 -0.109,0.219 -11.404,15.331 -18.16,34.34 -18.16,54.906 0,6.679 0.713,13.201 2.078,19.468 l 0,0.109 c 0.381,1.739 0.833,3.44 1.313,5.141 0.582,2.09 1.35,4.1 2.078,6.126 0.117,0.328 0.207,0.658 0.328,0.984 0.308,0.833 0.544,1.695 0.875,2.516 0.035,0.005 0.074,-0.005 0.109,0 1.892,4.644 4.192,9.113 6.779,13.344 -2.523,0.471 -5.113,0.639 -7.765,0.438 -0.184,-0.013 -0.363,-0.093 -0.547,-0.109 -1.161,-0.103 -2.328,-0.189 -3.5,-0.438 -16.421,-3.475 -26.883999,-19.442 -23.405999,-35.874 1.869999,-8.835 7.389999,-15.874 14.655999,-20.01 1.18,-12.953 5.191,-25.489 11.265,-36.968 -3.887,-1.395 -7.88,-2.621 -12.03,-3.5 -6.161,-1.305 -12.312,-1.928 -18.374999,-1.969 -42.44,-0.285 -80.67,29.26 -89.79,72.4 -2.211,10.444 -2.528,20.61 -1.203,30.625 l -118.55,77.11 c -4.722,3.071 -15.05,41.824 -7.327,53.703 7.723,11.854 47.33,18.17 52.06,15.09 l 7.765,-5.03 25.375,5.36 c 5.04,1.065 10.09,-1.862 11.156,-6.89 l 5.359,-25.375 25.05,5.25 c 5.04,1.065 10.09,-1.972 11.156,-6.999 l 5.359,-25.27 25.05,5.25 c 5.04,1.065 10.09,-1.972 11.156,-6.999 l 2.625,-12.469 c 4.862,1.955 10.117,3.58 15.422,4.704 49.309999,10.435 97.729999,-21.03 108.169999,-70.33 7.352,-34.739 -6.189,-69.02 -32.05,-89.9 -3.426,7.128 -5.738,14.82 -6.779,22.64 10.613,6.535 16.51,19.259 13.781,32.16 -0.88,4.162 -2.633,7.901 -4.921,11.156 -0.587,0.605 -0.982,1.182 -1.313,1.75 -0.024,0.043 -0.085,0.066 -0.109,0.109 -0.995,1.201 -2.123,2.255 -3.282,3.282 -2.646,-4.158 -4.975,-8.581 -6.779,-13.234 -2.348,-6.073 -3.874,-12.539 -4.594,-19.249 -0.058,-0.543 -0.173,-1.095 -0.219,-1.641 -0.036,-0.438 -0.08,-0.872 -0.109,-1.313 -0.116,-1.715 -0.219,-3.395 -0.219,-5.141 0,-18.883 6.957,-36.14 18.375,-49.44 1.23,-1.437 2.496,-2.816 3.828,-4.157 0.146,-0.146 0.29,-0.292 0.438,-0.438 1.336,-1.322 2.728,-2.606 4.157,-3.828 0.296,-0.253 0.575,-0.519 0.875,-0.766 2.571,-2.13 5.255,-4.01 8.093,-5.797 0.832,-0.521 1.662,-1.041 2.516,-1.531 0.072,-0.041 0.149,-0.069 0.219,-0.109 0.837,-0.477 1.658,-0.976 2.516,-1.422 0.423,-0.221 0.885,-0.443 1.313,-0.656 1.248,-0.618 2.542,-1.199 3.828,-1.75 0.107,-0.046 0.221,-0.063 0.328,-0.109 0.182,-0.077 0.365,-0.143 0.547,-0.219 3.214,-1.333 6.535,-2.505 9.953,-3.391 0.463,-0.119 0.955,-0.217 1.422,-0.328 3.202,-0.763 6.498,-1.299 9.843,-1.641 1.095,-0.111 2.171,-0.263 3.28,-0.328 1.494,-0.088 2.97,-0.109 4.485,-0.109 41.945,0 75.908,34.06 75.908,76.02 0,1.384 -0.036,2.791 -0.109,4.157 -0.028,0.542 -0.069,1.102 -0.109,1.641 -0.018,0.221 -0.091,0.435 -0.109,0.656 -0.139,1.672 -0.301,3.283 -0.547,4.922 -0.039,0.258 -0.067,0.508 -0.109,0.766 -0.077,0.477 -0.243,0.948 -0.328,1.422 -0.39,2.15 -0.744,4.37 -1.313,6.452 -0.069,0.257 -0.147,0.51 -0.219,0.766 -0.288,1.01 -0.656,1.962 -0.984,2.953 -0.412,1.259 -0.837,2.49 -1.313,3.719 -0.945,2.431 -1.989,4.808 -3.172,7.109 -0.467,0.916 -0.918,1.841 -1.422,2.735 -3.945,6.964 -9.02,13.215 -14.868,18.594 l 0,0.109 c -6.01,5.519 -12.891,10.1 -20.459,13.453 1.199,5.387 2.02,10.898 2.297,16.406 6.44,-2.477 12.51,-5.729 18.16,-9.521 0.024,-0.018 0.085,0.018 0.109,0 3.057,-2.055 5.968,-4.274 8.749,-6.671 0.67,-0.577 1.315,-1.155 1.969,-1.75 0.713,-0.65 1.386,-1.296 2.078,-1.969 0.275,-0.267 0.493,-0.604 0.766,-0.875 1.049,-1.044 2.065,-2.078 3.063,-3.172 1.156,-1.264 2.305,-2.501 3.391,-3.828 0.082,-0.101 0.136,-0.227 0.219,-0.328 0.542,-0.668 1.01,-1.395 1.531,-2.078 0.593,-0.776 1.291,-1.502 1.86,-2.297 0.184,-0.255 0.366,-0.508 0.547,-0.766 0.879,-1.256 1.7,-2.527 2.516,-3.828 0.043,-0.069 0.066,-0.15 0.109,-0.219 0.944,-1.514 1.877,-3.02 2.735,-4.594 0.116,-0.212 0.213,-0.443 0.328,-0.656 1.635,-3.057 3.088,-6.263 4.375,-9.521 0.375,-0.947 0.749,-1.881 1.094,-2.844 0.29,-0.814 0.606001,-1.581 0.875001,-2.406 0.046,-0.143 0.063,-0.294 0.109,-0.438 0.527,-1.645 0.987,-3.348 1.422,-5.03 0.15,-0.579 0.3,-1.167 0.438,-1.75 0.069,-0.292 0.153,-0.582 0.219,-0.875 0.335,-1.473 0.612,-2.984 0.875,-4.485 0.247,-1.417 0.474,-2.828 0.656,-4.266 0.185,-1.453 0.321,-2.902 0.438,-4.375 0.036,-0.466 0.08,-0.953 0.109,-1.422 0.124,-1.959 0.219,-3.915 0.219,-5.907 0,-50.847 -41.250001,-92.09 -92.090001,-92.09 m -14.656,114.84 c 0.61,3.539 0.99300001,7.097 1.20300001,10.718 7.15699999,67.22 -62.53000001,126.24 -127.53999901,110.03 -1.155,1.8 -2.598,3.46 -4.155,5.03 0.139,0.186 0.294,0.362 0.438,0.547 l -64.09,126.1 c -2.554,5.02 7.941,43.66 20.562,50.09 12.616,6.404 50.05,-7.87 52.609,-12.906 l 4.266,-8.312 24.608999,-7.984 c 4.897,-1.596 7.826,-6.82 6.235,-11.703 l -8.095,-24.609 24.281,-7.874 c 4.895,-1.596 7.827,-6.82 6.234,-11.703 l -7.984,-24.609 24.281,-7.874 c 4.898,-1.596 7.718,-6.708 6.126,-11.593 l -3.938,-12.14 c 5.19,-0.737 10.596,-1.93 15.75,-3.61 47.922,-15.618 74.13,-67.15 58.51,-115.06 -5.665,-17.383 -16.09,-31.842 -29.31,-42.547 m -188.119999,53.27 c 2.679,6.331 6.06,12.262 10.06,17.828 l -100.4,65.734 c -4.72,3.072 -11.256,1.658 -14.328,-3.063 -3.08,-4.736 -1.66,-11.244 3.063,-14.328 l 101.61,-66.17 m 75.69,90.34 c 5.485,4.143 11.36,7.577 17.609999,10.39 l -54.139999,107.08 c -2.552,5.02 -8.87,7.147 -13.891,4.594 -5.04,-2.562 -7.14,-8.858 -4.594,-13.891 l 55.02,-108.17"
       id="path60"
       style="fill:#ffffff"
       inkscape:connector-curvature="0" />
  </g>
</svg>
