<?xml version="1.0" encoding="UTF-8" standalone="no"?>
<svg
   xmlns:dc="http://purl.org/dc/elements/1.1/"
   xmlns:cc="http://creativecommons.org/ns#"
   xmlns:rdf="http://www.w3.org/1999/02/22-rdf-syntax-ns#"
   xmlns:svg="http://www.w3.org/2000/svg"
   xmlns="http://www.w3.org/2000/svg"
   xmlns:sodipodi="http://sodipodi.sourceforge.net/DTD/sodipodi-0.dtd"
   xmlns:inkscape="http://www.inkscape.org/namespaces/inkscape"
   viewBox="0 0 512 512"
   id="svg2"
   version="1.1"
   inkscape:version="0.91+devel r13804 custom"
   sodipodi:docname="search.svg">
  <metadata
     id="metadata472">
    <rdf:RDF>
      <cc:Work
         rdf:about="">
        <dc:format>image/svg+xml</dc:format>
        <dc:type
           rdf:resource="http://purl.org/dc/dcmitype/StillImage" />
        <dc:title></dc:title>
      </cc:Work>
    </rdf:RDF>
  </metadata>
  <sodipodi:namedview
     pagecolor="#ffffff"
     bordercolor="#666666"
     borderopacity="1"
     objecttolerance="10"
     gridtolerance="10"
     guidetolerance="10"
     inkscape:pageopacity="0"
     inkscape:pageshadow="2"
     inkscape:window-width="1366"
     inkscape:window-height="709"
     id="namedview470"
     showgrid="false"
     inkscape:zoom="0.4609375"
     inkscape:cx="-8.6779661"
     inkscape:cy="237.55932"
     inkscape:window-x="-2"
     inkscape:window-y="-3"
     inkscape:window-maximized="1"
     inkscape:current-layer="svg2" />
  <defs
     id="defs4" />
  <path
     inkscape:connector-curvature="0"
     d="M 26,0 C 11.603,0 0,11.603 0,26 l 0,460 c 0,14.397 11.603,26 26,26 l 460,0 c 14.397,0 26,-11.603 26,-26 L 512,26 C 512,11.603 500.397,0 486,0 L 26,0"
     style="fill:#0078ad"
     id="path29927" />
  <text
     sodipodi:linespacing="125%"
     y="97.709999"
     x="-26.464001"
     line-height="125%"
     style="font-size:129.22999573px;line-height:125%;font-family:'Gentium Book Basic';letter-spacing:0;word-spacing:0"
     id="text29929">
    <tspan
       y="97.709999"
       x="-26.464001"
       id="tspan29931" />
  </text>
  <text
     transform="scale(4.0128205,0.24920128)"
     y="42.925777"
     x="190.48903"
     style="font-size:46.95399857px;font-family:Arial;text-anchor:middle"
     id="text29933" />
  <text
     sodipodi:linespacing="125%"
     y="17.708"
     x="554.81"
     line-height="125%"
     style="font-size:129.22999573px;line-height:125%;font-family:'Gentium Book Basic';letter-spacing:0;word-spacing:0"
     id="text29935">
    <tspan
       y="17.708"
       x="554.81"
       id="tspan29937" />
  </text>
  <text
     transform="scale(4.0128205,0.24920128)"
     y="-278.09857"
     x="335.33829"
     style="font-size:46.95399857px;font-family:Arial;text-anchor:middle"
     id="text29939" />
  <text
     sodipodi:linespacing="125%"
     y="-163.55"
     x="-516.77002"
     line-height="125%"
     style="font-size:129.22999573px;line-height:125%;font-family:'Gentium Book Basic';letter-spacing:0;word-spacing:0"
     id="text29941">
    <tspan
       y="-163.55"
       x="-516.77002"
       id="tspan29943" />
  </text>
  <text
     transform="scale(4.0128205,0.24920128)"
     y="-1005.4549"
     x="68.299652"
     style="font-size:46.95399857px;font-family:Arial;text-anchor:middle"
     id="text29945" />
  <text
     sodipodi:linespacing="125%"
     y="-380.01999"
     x="581.28003"
     line-height="125%"
     style="font-size:129.22999573px;line-height:125%;font-family:'Gentium Book Basic';letter-spacing:0;word-spacing:0"
     id="text29947">
    <tspan
       y="-380.01999"
       x="581.28003"
       id="tspan29949" />
  </text>
  <text
     transform="scale(4.0128205,0.24920128)"
     y="-1874.1104"
     x="341.93826"
     style="font-size:46.95399857px;font-family:Arial;text-anchor:middle"
     id="text29951" />
  <text
     sodipodi:linespacing="125%"
     y="-460.03"
     x="1162.55"
     line-height="125%"
     style="font-size:129.22999573px;line-height:125%;font-family:'Gentium Book Basic';letter-spacing:0;word-spacing:0"
     id="text29953">
    <tspan
       y="-460.03"
       x="1162.55"
       id="tspan29955" />
  </text>
  <text
     transform="scale(4.0128205,0.24920128)"
     y="-2195.1487"
     x="486.7775"
     style="font-size:46.95399857px;font-family:Arial;text-anchor:middle"
     id="text29957" />
  <text
     sodipodi:linespacing="125%"
     y="-932.42999"
     x="773.42999"
     line-height="125%"
     style="font-size:129.22999573px;line-height:125%;font-family:'Gentium Book Basic';letter-spacing:0;word-spacing:0"
     id="text29959">
    <tspan
       y="-932.42999"
       x="773.42999"
       id="tspan29961" />
  </text>
  <text
     transform="scale(4.0128205,0.24920128)"
     y="-4090.7891"
     x="389.80801"
     style="font-size:46.95399857px;font-family:Arial;text-anchor:middle"
     id="text29963" />
  <text
     sodipodi:linespacing="125%"
     y="-1012.43"
     x="1354.6899"
     line-height="125%"
     style="font-size:129.22999573px;line-height:125%;font-family:'Gentium Book Basic';letter-spacing:0;word-spacing:0"
     id="text29965">
    <tspan
       y="-1012.43"
       x="1354.6899"
       id="tspan29967" />
  </text>
  <text
     transform="scale(4.0128205,0.24920128)"
     y="-4411.8174"
     x="534.65723"
     style="font-size:46.95399857px;font-family:Arial;text-anchor:middle"
     id="text29969" />
  <text
     sodipodi:linespacing="125%"
     y="402.29001"
     x="-478.10999"
     line-height="125%"
     style="font-size:208.33000183px;line-height:125%;font-family:'Gentium Book Basic';letter-spacing:0;word-spacing:0"
     id="text29971">
    <tspan
       y="402.29001"
       x="-478.10999"
       id="tspan29973" />
  </text>
  <path
     d="M 309.75 41 C 220.7 41 148.5 113.2 148.5 202.25 C 148.5 246.775 166.55047 287.08953 195.73047 316.26953 L 391.45898 512 L 486 512 C 500.397 512 512 500.397 512 486 L 512 176.46094 L 423.76953 88.230469 C 394.58953 59.050469 354.28 41 309.75 41 z M 152 304.40625 C 152.00256 304.41019 152.00525 304.41403 152.00781 304.41797 L 152 304.41016 L 50.029297 389.41016 C 38.691297 398.86216 37.929047 415.15061 48.373047 425.59961 L 134.77344 512 L 359.59375 512 L 152 304.40625 z "
     id="path29977"
     style="opacity:0.25" />
  <path
     inkscape:connector-curvature="0"
     d="M 309.75,41 C 220.7,41 148.5,113.2 148.5,202.25 148.5,291.3 220.7,363.5 309.75,363.5 398.8,363.5 471,291.3 471,202.25 471,113.2 398.8,41 309.75,41 m 0,40.31 c 66.69,0 120.94,54.25 120.94,120.94 0,66.69 -54.25,120.94 -120.94,120.94 -66.69,0 -120.94,-54.25 -120.94,-120.94 0,-66.69 54.25,-120.94 120.94,-120.94 M 152,304.4 50.03,389.4 c -11.338,9.452 -12.1,25.741 -1.656,36.19 l 38.03,38.03 c 10.443,10.445 26.739,9.682 36.19,-1.656 l 84.969,-101.97 c -22.18,-14.437 -41.13,-33.39 -55.56,-55.59"
     style="fill:#ffffff"
     id="path30017" />
</svg>
