<?xml version="1.0" encoding="UTF-8" standalone="no"?>
<svg
   xmlns:dc="http://purl.org/dc/elements/1.1/"
   xmlns:cc="http://creativecommons.org/ns#"
   xmlns:rdf="http://www.w3.org/1999/02/22-rdf-syntax-ns#"
   xmlns:svg="http://www.w3.org/2000/svg"
   xmlns="http://www.w3.org/2000/svg"
   xmlns:sodipodi="http://sodipodi.sourceforge.net/DTD/sodipodi-0.dtd"
   xmlns:inkscape="http://www.inkscape.org/namespaces/inkscape"
   viewBox="0 0 512 512"
   id="svg2"
   version="1.1"
   inkscape:version="0.91+devel r13804 custom"
   sodipodi:docname="shares.svg">
  <metadata
     id="metadata472">
    <rdf:RDF>
      <cc:Work
         rdf:about="">
        <dc:format>image/svg+xml</dc:format>
        <dc:type
           rdf:resource="http://purl.org/dc/dcmitype/StillImage" />
        <dc:title></dc:title>
      </cc:Work>
    </rdf:RDF>
  </metadata>
  <sodipodi:namedview
     pagecolor="#ffffff"
     bordercolor="#666666"
     borderopacity="1"
     objecttolerance="10"
     gridtolerance="10"
     guidetolerance="10"
     inkscape:pageopacity="0"
     inkscape:pageshadow="2"
     inkscape:window-width="1366"
     inkscape:window-height="709"
     id="namedview470"
     showgrid="false"
     inkscape:zoom="0.4609375"
     inkscape:cx="-8.6779661"
     inkscape:cy="237.55932"
     inkscape:window-x="-2"
     inkscape:window-y="-3"
     inkscape:window-maximized="1"
     inkscape:current-layer="svg2" />
  <defs
     id="defs4">
    <linearGradient
       y1=".107"
       x2="0"
       y2="512.54"
       id="1"
       gradientUnits="userSpaceOnUse"
       gradientTransform="translate(429.55932,-80.271186)">
      <stop
         id="stop48218"
         style="stop-color:#6a6a6a" />
      <stop
         id="stop48220"
         offset=".47" />
      <stop
         id="stop48222"
         style="stop-color:#fff"
         offset=".494" />
      <stop
         id="stop48224"
         style="stop-color:#fff"
         offset=".901" />
      <stop
         id="stop48226"
         offset=".955" />
      <stop
         id="stop48228"
         offset="1" />
    </linearGradient>
    <linearGradient
       y1="0.107"
       x2="0"
       y2="512.53998"
       id="1-5"
       gradientUnits="userSpaceOnUse"
       gradientTransform="translate(52.067797,180.0678)">
      <stop
         id="stop48218-4"
         style="stop-color:#6a6a6a" />
      <stop
         id="stop48220-9"
         offset=".47" />
      <stop
         id="stop48222-4"
         style="stop-color:#fff"
         offset=".494" />
      <stop
         id="stop48224-5"
         style="stop-color:#fff"
         offset=".901" />
      <stop
         id="stop48226-7"
         offset=".955" />
      <stop
         id="stop48228-1"
         offset="1" />
    </linearGradient>
  </defs>
  <g
     id="g57678"
     transform="translate(-52.067799,-180.0678)">
    <path
       id="path48230"
       style="fill:#6997c7;fill-rule:evenodd"
       d="m 102.3178,180.0678 c -27.823003,0 -50.250003,22.395 -50.250003,50.22 l 0,411.56 c 0,27.823 22.427,50.22 50.250003,50.22 l 411.53,0 c 27.823,0 50.22,-22.395 50.22,-50.22 l 0,-411.56 c 0,-27.823 -22.395,-50.22 -50.22,-50.22 l -411.53,0"
       inkscape:connector-curvature="0" />
    <path
       id="path49544"
       style="opacity:0.05;fill:url(#1-5);fill-rule:evenodd"
       d="m 102.3178,180.0678 c -27.823003,0 -50.250003,22.395 -50.250003,50.22 l 0,411.56 c 0,27.823 22.427,50.22 50.250003,50.22 l 411.53,0 c 27.823,0 50.22,-22.395 50.22,-50.22 l 0,-411.56 c 0,-27.823 -22.395,-50.22 -50.22,-50.22 l -411.53,0"
       inkscape:connector-curvature="0" />
    <path
       id="path52708"
       d="m 322.6784,221.0675 c -16.773,0.02 -26.04086,1.27573 -39.75586,5.42773 l 13.38867,13.38867 c -0.001,3e-4 -0.003,0.002 -0.004,0.002 l -13.38867,-13.38867 c -7.558,2.286 -17.16011,5.94522 -18.28711,6.94922 l 12.30859,12.3086 c -10e-4,5.3e-4 -0.003,10e-4 -0.004,0.002 l -12.30859,-12.3086 c -0.5,0.446 3.70945,14.43016 4.56445,15.28516 l 19.5293,19.52929 c -3.3136,1.05947 -6.7863,2.30629 -10.56445,3.79102 l 11.5664,11.56641 -0.002,0.002 -11.56445,-11.56446 -1.79492,0.68946 0.01,0.01 2.39649,6.88867 0,0.002 c 1.321,3.788 2.46034,6.97713 2.52734,7.07813 l 0.002,0.002 17.95313,17.95312 c -5.56981,1.60236 -10.94336,3.73948 -10.94336,4.45703 0,0.421 0.92636,3.5711 2.06836,6.9961 l 5.00195,5.00195 c -0.003,0.001 -0.005,0.003 -0.008,0.004 l -5.00195,-5.00195 c 1.14098,3.424 1.76617,5.01036 2.32617,5.56836 l 175.94545,175.94505 c -1.33955,-0.72784 -2.67262,-1.4516 -5.72852,-3.08594 L 335.29364,366.94837 c 0.0246,0.0246 0.0459,0.0514 0.0703,0.0762 l -0.0664,-0.0664 c -0.238,-0.238 -0.48519,-0.47127 -0.74218,-0.69726 l 1.35156,1.35156 c 0.0152,0.0171 0.0317,0.0336 0.0469,0.0508 l -1.40625,-1.40625 c -3.29102,-2.88839 -6.11687,-3.93188 -10.63672,-3.92578 l -0.004,-0.004 c -12.375,0.02 -21.80205,13.56963 -17.74805,25.51563 l 14.43945,14.43945 -0.002,0.006 -14.43945,-14.43945 1.29687,3.82031 12.27539,12.27539 -0.002,0.002 -12.2793,-12.2793 -4.09179,7.87305 12.28906,12.28906 c -4.7e-4,9.4e-4 -0.003,10e-4 -0.004,0.002 l -12.2832,-12.28321 c -2.24896,4.32239 -4.3807,7.80652 -4.73633,7.76368 l -0.004,-0.004 c -0.34565,-0.0621 -35.92572,-18.78449 -79.07972,-41.60948 -50.647,-26.79701 -78.63964,-41.23973 -78.93164,-40.76173 l 224.43359,224.4336 c -0.003,3.7e-4 -0.005,0.002 -0.008,0.002 L 140.61786,324.95813 c -1.12401,1.816 -2.1794,21.23617 -1.7754,32.57617 l 0.006,0.006 c 1.53806,43.03526 15.15126,81.54026 40.79493,115.36719 l 37.01171,37.01172 c -0.009,-0.007 -0.0181,-0.0145 -0.0273,-0.0215 l -36.99023,-36.99023 c 5.271,6.953 11.01039,13.5143 17.15039,19.6543 l 0.21875,0.21875 c -0.0721,-0.0718 -0.14679,-0.14093 -0.21875,-0.21289 l 67.85156,67.85156 c -18.80709,-6.50085 -35.71259,-15.69026 -50.70117,-27.60156 -2.79726,-2.22377 -5.32542,-4.04327 -5.6836,-4.08399 l -0.006,-0.006 -0.002,0.002 c -0.002,-1.5e-4 -0.01,-0.004 -0.0117,-0.004 l 0.008,0.008 c -0.31944,0.0353 -2.17598,5.20788 -4.13086,11.51758 l -0.004,-0.004 c -6.583,21.278 -19.20959,58.19114 -23.93359,69.99414 l 0.004,0.006 c -5.256,13.13 -8.18031,19.83377 -14.07031,32.25977 l 8.49219,8.49219 -0.01,0 -8.49219,-8.49219 -4.05078,8.5625 40.99805,40.99805 310.80273,0 c 27.823,0 50.21875,-22.39375 50.21875,-50.21875 l 0,-242.48633 -130.72653,-130.72675 c 0.0692,0.0692 0.13409,0.13785 0.20313,0.20703 l -0.20508,-0.20508 c -6.127,-6.127 -12.84211,-12.19616 -17.78711,-15.91016 l 32.23633,32.23634 c 0.004,0.005 0.008,0.0104 0.0117,0.0156 l -32.25194,-32.25194 c -18.11771,-13.61228 -38.06438,-23.09697 -58.76758,-27.97851 l -0.002,-0.002 c -13.498,-3.179 -18.32931,-3.69478 -34.07031,-3.67578 l 16.84375,16.84375 c -0.01,-0.001 -0.0195,-0.003 -0.0293,-0.004 l -16.84375,-16.84375 z"
       style="opacity:0.25;fill-rule:evenodd"
       inkscape:connector-curvature="0" />
    <path
       id="path52878"
       style="fill:#ffffff;fill-rule:evenodd"
       d="m 322.6778,221.0678 c -16.773,0.02 -26.04,1.276 -39.755,5.428 -7.558,2.286 -17.16,5.945 -18.287,6.949 -0.516,0.461 3.98,15.326 4.635,15.326 0.148,0 2.769,-1.025 5.805,-2.275 34.488,-14.218 74.16,-12.493 108.42,4.72 36.31,18.242 63.52,49.617 77.18,88.94 1.564,4.502 3.182,8.186 3.592,8.186 0.41,0 3.532,-0.934 6.932,-2.068 3.406,-1.132 6.18,-2.293 6.18,-2.589 0,-1.068 -5.289,-15.854 -7.663,-21.403 -5.733,-13.41 -15.335,-29.28 -24.869,-41.09 -6.961,-8.634 -20.762,-22.05 -29.29,-28.461 -18.12,-13.614 -38.07,-23.1 -58.776,-27.981 -13.498,-3.179 -18.329,-3.695 -34.07,-3.676 m -0.711,42.28 c -16.298,0 -27.17,2.16 -43.83,8.707 l -1.796,0.69 2.401,6.897 c 1.321,3.788 2.46,6.977 2.527,7.078 0.067,0.102 2.491,-0.783 5.388,-1.942 29.818,-11.939 64.02,-8.203 90.86,9.918 21.03,14.203 35.728,34.04 45.38,61.2 1.34,3.772 2.117,5.105 2.799,4.843 0.518,-0.199 3.112,-1 5.762,-1.796 7.771,-2.324 7.39,-1.604 4.72,-9.11 -18.561,-52.12 -63.949,-86.49 -114.19,-86.49 m -2.756,38.443 c -5.752,0.024 -11.516,0.721 -17.19,2.13 -6.418,1.594 -13.761,4.381 -13.761,5.22 0,0.421 0.926,3.571 2.068,6.996 1.711,5.138 2.263,6.132 3.173,5.742 7.933,-3.406 18.877,-5.617 27.711,-5.617 11.09,0 22.886,3.129 32.16,8.541 6.622,3.865 17.436,14.337 22.24,21.524 4.572,6.835 8.253,14.241 12.258,24.557 0.321,0.827 0.776,1.503 1,1.503 0.227,0 3.395,-0.936 7.04,-2.068 3.639,-1.132 6.619,-2.313 6.619,-2.632 0,-1.288 -3.681,-10.674 -6.139,-15.662 -15.269,-30.997 -46.11,-50.36 -77.18,-50.25 m -178.63,23.18 c -1.124,1.816 -2.18,21.236 -1.776,32.576 1.536,43.04 15.15,81.55 40.796,115.38 40.17,52.989 107.44,83.2 173.27,77.82 36.998,-3.02 71.939,-15.795 101.64,-37.17 8.845,-6.363 17.594,-13.747 16.975,-14.346 -0.265,-0.256 -35.811,-19.17 -78.994,-42.02 -43.17,-22.848 -78.58,-41.575 -78.66,-41.661 -0.077,-0.077 1.72,-3.704 4.01,-8.06 l 4.155,-7.933 3.863,-1.17 c 13.847,-4.192 18.921,-23.09 8.653,-32.11 -3.294,-2.891 -6.122,-3.934 -10.649,-3.926 -12.375,0.02 -21.802,13.57 -17.748,25.516 l 1.296,3.822 -4.092,7.873 c -2.255,4.334 -4.393,7.83 -4.74,7.768 -0.346,-0.062 -35.926,-18.784 -79.08,-41.609 -50.647,-26.797 -78.64,-41.24 -78.932,-40.762 m 67.63,203.79 c -0.31,0 -2.173,5.194 -4.135,11.527 -6.583,21.278 -19.21,58.19 -23.934,69.993 -5.256,13.13 -8.18,19.834 -14.07,32.26 l -4.051,8.561 84,-0.459 c 46.2,-0.252 84.08,-0.51 84.17,-0.585 0.093,-0.074 -2.2,-5.078 -5.095,-11.11 -9.792,-20.404 -18.19,-40.669 -25.308,-61.08 -1.667,-4.779 -3.112,-8.789 -3.215,-8.917 -0.103,-0.127 -3.719,-0.972 -8.02,-1.88 -28.671,-6.05 -53.55,-17.452 -74.65,-34.22 -2.829,-2.249 -5.391,-4.092 -5.703,-4.092"
       inkscape:connector-curvature="0" />
  </g>
</svg>
