<?xml version="1.0" encoding="UTF-8" standalone="no"?>
<svg
   xmlns:dc="http://purl.org/dc/elements/1.1/"
   xmlns:cc="http://creativecommons.org/ns#"
   xmlns:rdf="http://www.w3.org/1999/02/22-rdf-syntax-ns#"
   xmlns:svg="http://www.w3.org/2000/svg"
   xmlns="http://www.w3.org/2000/svg"
   xmlns:sodipodi="http://sodipodi.sourceforge.net/DTD/sodipodi-0.dtd"
   xmlns:inkscape="http://www.inkscape.org/namespaces/inkscape"
   viewBox="0 0 512 512"
   id="svg2"
   version="1.1"
   inkscape:version="0.91+devel r13804 custom"
   sodipodi:docname="share.svg">
  <metadata
     id="metadata472">
    <rdf:RDF>
      <cc:Work
         rdf:about="">
        <dc:format>image/svg+xml</dc:format>
        <dc:type
           rdf:resource="http://purl.org/dc/dcmitype/StillImage" />
        <dc:title></dc:title>
      </cc:Work>
    </rdf:RDF>
  </metadata>
  <sodipodi:namedview
     pagecolor="#ffffff"
     bordercolor="#666666"
     borderopacity="1"
     objecttolerance="10"
     gridtolerance="10"
     guidetolerance="10"
     inkscape:pageopacity="0"
     inkscape:pageshadow="2"
     inkscape:window-width="1366"
     inkscape:window-height="709"
     id="namedview470"
     showgrid="false"
     inkscape:zoom="0.4609375"
     inkscape:cx="-8.6779661"
     inkscape:cy="237.55932"
     inkscape:window-x="-2"
     inkscape:window-y="-3"
     inkscape:window-maximized="1"
     inkscape:current-layer="svg2" />
  <defs
     id="defs4" />
  <path
     inkscape:connector-curvature="0"
     d="M 26,0 C 11.603,0 0,11.603 0,26 l 0,460 c 0,14.397 11.603,26 26,26 l 460,0 c 14.397,0 26,-11.603 26,-26 L 512,26 C 512,11.603 500.397,0 486,0 L 26,0"
     style="fill:#b24f37"
     id="path46232" />
  <path
     style="fill-rule:evenodd;opacity:0.25"
     d="M 165.41406 66.960938 L 190.57617 92.123047 C 190.57616 92.125641 190.57618 92.128265 190.57617 92.130859 L 165.42969 66.986328 C 161.38269 66.988328 157.29914 67.996359 153.49414 70.068359 L 153.49805 70.072266 C 141.32482 76.696949 136.81788 91.928394 143.43945 104.09961 C 144.62145 106.27161 146.07719 108.20023 147.74219 109.86523 L 147.83203 109.95508 C 147.80216 109.92551 147.76997 109.89888 147.74023 109.86914 L 192.10547 154.23633 L 224.03906 213.0293 C 222.77606 213.98773 221.56286 215.00529 220.39062 216.06641 L 187.33398 183.00977 C 187.35102 183.0268 187.36584 183.04542 187.38281 183.0625 L 187.33008 183.00977 C 186.51987 182.19956 185.64169 181.44 184.70312 180.73242 L 184.63086 180.66016 C 180.46786 177.54716 175.6455 176.04059 170.8125 175.80859 L 194.65039 199.64648 C 194.65045 199.64778 194.65033 199.64909 194.65039 199.65039 L 170.81055 175.81055 C 162.76055 175.42255 154.71039 178.79056 149.52539 185.72656 L 184.74023 220.94141 C 184.73878 220.9425 184.73778 220.94422 184.73633 220.94531 L 149.51953 185.73047 C 141.95553 195.84247 143.16494 209.76941 151.83594 218.44141 L 182.59766 249.20312 L 96.197266 246.32617 L 83.876953 234.00586 C 83.933007 234.06191 83.983541 234.12311 84.039062 234.17969 L 83.869141 234.00977 C 79.519856 229.66048 73.572208 226.88694 66.943359 226.66602 L 66.9375 226.66016 C 53.0855 226.20116 41.472672 237.06692 41.013672 250.91992 L 66.888672 276.79492 C 66.887376 276.79496 66.886062 276.79488 66.884766 276.79492 L 41.009766 250.91992 C 40.770766 258.13892 43.607844 264.7387 48.339844 269.4707 L 137.91016 359.04297 L 133.14062 363.2207 L 142.12109 372.20117 L 142.11523 372.20508 L 133.13086 363.2207 C 123.90486 356.9297 111.24994 357.39866 102.46094 365.09766 L 102.4668 365.10352 C 92.044689 374.23609 91.001033 390.09002 100.13281 400.51562 L 100.1875 400.57031 C 100.54228 400.97295 100.90472 401.36371 101.2793 401.73828 L 101.2793 401.74023 C 101.2927 401.75363 101.30689 401.76593 101.32031 401.7793 L 211.54102 512 L 486 512 C 500.397 512 512 500.397 512 486 L 512 213.73438 L 407.04297 108.77734 C 407.09054 108.82513 407.1363 108.87567 407.18359 108.92383 L 407.03906 108.7793 C 397.54206 99.282294 382.17109 98.934392 372.24609 108.15039 L 372.24805 108.15234 C 363.68026 116.10903 361.89815 128.67201 367.2207 138.5 L 325.71875 176.99805 L 278.23047 129.50977 C 273.91075 125.19005 268.01327 122.42607 261.43164 122.18164 L 261.42969 122.17969 C 253.06786 121.87059 245.52038 125.69434 240.73438 131.81641 L 183.22656 74.306641 C 183.27166 74.351734 183.31263 74.401785 183.35742 74.447266 L 183.2207 74.310547 C 178.4667 69.556547 172.01106 66.955937 165.41406 66.960938 z "
     id="path46236" />
  <path
     inkscape:connector-curvature="0"
     d="m 165.43,66.987 c -4.047,0.002 -8.13,1.01 -11.935,3.082 -12.175,6.624 -16.682,21.858 -10.06,34.03 5.589,10.272 17.315,15.09 28.16,12.36 l 52.45,96.57 c -4.433,3.364 -8.317,7.383 -11.581,11.899 l -0.036,0 -19.549,-14.626 c 4.144,-10.348 1.06,-22.677 -8.252,-29.643 -4.163,-3.113 -8.984,-4.62 -13.817,-4.852 -8.05,-0.388 -16.1,2.98 -21.285,9.916 -8.302,11.1 -6.04,26.795 5.065,35.09 9.365,7 21.997,6.668 30.705,-0.283 l 20.859,15.547 c -2.462,5.864 -3.949,12.207 -4.286,18.876 0.065,-1.72 0.19,-3.443 0.425,-5.1 l -111.69,-3.719 c -2.476,-10.841 -12.02,-19.09 -23.659,-19.479 -13.852,-0.459 -25.465,10.407 -25.924,24.26 -0.459,13.852 10.407,25.429 24.26,25.888 11.637,0.385 21.708,-7.196 24.901,-17.85 l 111.84,3.753 c 0.961,11.233 5.235,21.482 11.828,29.819 l -80.71,70.69 c -9.226,-6.291 -21.88,-5.821 -30.669,1.878 -10.426,9.132 -11.47,24.988 -2.337,35.415 9.132,10.426 24.988,11.47 35.415,2.337 8.773,-7.679 10.886,-20.11 5.915,-30.07 l 81.28,-71.29 c 8.723,6.999 19.584,11.454 31.484,12.182 -1.927,-0.109 -3.807,-0.322 -5.702,-0.637 l -0.744,24.12 c -10.953,2.09 -19.558,11.338 -20.328,22.984 -0.916,13.83 9.544,25.787 23.374,26.703 13.83,0.916 25.788,-9.544 26.703,-23.374 0.772,-11.658 -6.54,-21.995 -17.14,-25.499 0,-0.083 0,-0.165 0,-0.249 l 0.708,-24.05 c 6.609,-0.391 12.929,-1.912 18.738,-4.391 l 55.39,93.14 c -7.774,7.95 -9.549,20.393 -3.577,30.386 7.11,11.898 22.528,15.787 34.423,8.677 11.898,-7.11 15.752,-22.528 8.641,-34.423 -6.01,-10.05 -17.922,-14.372 -28.654,-11.196 l -55.42,-92.75 c 4.983,-3.598 9.363,-7.992 12.926,-12.997 l 18.629,13.03 c -3.924,10.48 -0.431,22.701 9.173,29.394 11.371,7.926 26.992,5.137 34.916,-6.238 7.926,-11.371 5.137,-27.03 -6.238,-34.954 -9.543,-6.653 -22.09,-5.729 -30.564,1.453 l -19.797,-13.78 c 2.163,-5.255 3.544,-10.904 4,-16.822 l 107.73,3.932 c 2.393,10.905 11.911,19.257 23.587,19.691 13.851,0.514 25.48,-10.302 25.995,-24.15 0.514,-13.851 -10.267,-25.48 -24.12,-25.995 -11.648,-0.432 -21.747,7.155 -24.963,17.814 l -108.69,-4.108 c -1.742,-11.443 -6.946,-21.762 -14.521,-29.859 l 77.2,-71.75 c 9.391,5.933 21.967,5.083 30.493,-2.833 10.157,-9.431 10.742,-25.33 1.311,-35.485 -9.431,-10.157 -25.294,-10.742 -35.451,-1.311 -8.57,7.957 -10.354,20.522 -5.03,30.351 l -78.31,72.64 c 0.835,0.558 1.592,1.138 2.337,1.736 -7.53,-5.64 -16.514,-9.424 -26.28,-10.695 l 1.098,-30.422 c 10.832,-2.449 19.08,-11.929 19.513,-23.55 0.512,-13.851 -10.302,-25.517 -24.15,-26.03 -13.851,-0.512 -25.483,10.302 -25.995,24.15 -0.43,11.637 7.135,21.739 17.779,24.963 l -1.097,30.669 c -6.104,0.608 -11.921,2.223 -17.283,4.64 l -52.17,-96.26 c 8.118,-7.626 10.424,-20.04 4.852,-30.28 -4.554,-8.37 -13.196,-13.11 -22.1,-13.1 m 128.23,147.79 c 0.127,0.073 0.245,0.15 0.354,0.249 0.117,0.099 0.219,0.231 0.318,0.354 -0.226,-0.195 -0.444,-0.41 -0.672,-0.603 m -35.946,3.152 c 22.02,0 39.911,17.924 39.911,39.949 0,22.02 -17.888,39.949 -39.911,39.949 -22.02,0 -39.949,-17.924 -39.949,-39.949 0,-22.02 17.924,-39.949 39.949,-39.949 m 0,11.757 c -15.552,0 -28.23,12.638 -28.23,28.19 0,15.552 12.673,28.19 28.23,28.19 15.552,0 28.19,-12.638 28.19,-28.19 0,-15.552 -12.638,-28.19 -28.19,-28.19"
     style="fill:#ffffff;fill-rule:evenodd"
     id="path46456" />
</svg>
