<?xml version="1.0" encoding="UTF-8" standalone="no"?>
<svg
   xmlns:dc="http://purl.org/dc/elements/1.1/"
   xmlns:cc="http://creativecommons.org/ns#"
   xmlns:rdf="http://www.w3.org/1999/02/22-rdf-syntax-ns#"
   xmlns:svg="http://www.w3.org/2000/svg"
   xmlns="http://www.w3.org/2000/svg"
   xmlns:sodipodi="http://sodipodi.sourceforge.net/DTD/sodipodi-0.dtd"
   xmlns:inkscape="http://www.inkscape.org/namespaces/inkscape"
   viewBox="0 0 512 512"
   id="svg2"
   version="1.1"
   inkscape:version="0.91+devel r13804 custom"
   sodipodi:docname="simplescreenrecorder.svg">
  <metadata
     id="metadata472">
    <rdf:RDF>
      <cc:Work
         rdf:about="">
        <dc:format>image/svg+xml</dc:format>
        <dc:type
           rdf:resource="http://purl.org/dc/dcmitype/StillImage" />
        <dc:title></dc:title>
      </cc:Work>
    </rdf:RDF>
  </metadata>
  <sodipodi:namedview
     pagecolor="#ffffff"
     bordercolor="#666666"
     borderopacity="1"
     objecttolerance="10"
     gridtolerance="10"
     guidetolerance="10"
     inkscape:pageopacity="0"
     inkscape:pageshadow="2"
     inkscape:window-width="1366"
     inkscape:window-height="709"
     id="namedview470"
     showgrid="false"
     inkscape:zoom="0.4609375"
     inkscape:cx="-8.6779661"
     inkscape:cy="237.55932"
     inkscape:window-x="-2"
     inkscape:window-y="-3"
     inkscape:window-maximized="1"
     inkscape:current-layer="svg2" />
  <defs
     id="defs4">
    <linearGradient
       x1="0"
       x2="512"
       id="2-3"
       gradientUnits="userSpaceOnUse"
       gradientTransform="translate(-1.5e-4)">
      <stop
         id="stop83581-9"
         style="stop-color:#b22b2d" />
      <stop
         id="stop83583-8"
         style="stop-color:#39962a"
         offset=".5" />
      <stop
         id="stop83585-9"
         style="stop-color:#4f4ddd"
         offset="1" />
    </linearGradient>
  </defs>
  <path
     inkscape:connector-curvature="0"
     d="m 25.99985,0 c -14.397,0 -26,11.603 -26,26 l 0,460 c 0,14.397 11.603,26 26,26 l 460,0 c 14.397,0 26,-11.603 26,-26 l 0,-460 c 0,-14.397 -11.603,-26 -26,-26 l -460,0"
     style="fill:url(#2-3)"
     id="path83600" />
  <path
     inkscape:connector-curvature="0"
     d="m 41.00008,40.99994 0,113.66015 106.89454,106.89453 c 1.47735,29.24011 14.54778,55.41636 34.71289,74.02539 l 0.002,0 176.41992,176.41992 126.97071,0 c 14.397,0 26,-11.603 26,-26 l 0,-126.93945 -176.07032,-176.07031 c -18.62778,-20.3812 -44.9509,-33.60947 -74.375,-35.09571 L 154.66024,40.99994 l -113.66016,0 z m 316.33985,0 0,43.90625 0.004,0.004 -0.004,0 154.66016,154.66014 0,-157.5703 -41,-41 -113.66016,0 z m -316.33985,316.33983 0,113.66016 41,41 157.57032,0 -154.66016,-154.66016 -43.90625,0 43.90625,43.90626 0,0.004 -43.91016,-43.91016 z"
     id="path85984"
     style="opacity:0.25" />
  <path
     inkscape:connector-curvature="0"
     d="m 40.99985,41 0,113.66 43.906,0 0,-69.74999 69.75,0 0,-43.90601 -113.66,0 m 316.34,0 0,43.90601 69.75,0 0,69.74999 43.906,0 0,-113.66 -113.66,0 m -101.34,106.75 c -59.794,0 -108.25,48.46 -108.25,108.25 0,59.794 48.46,108.25 108.25,108.25 59.794,0 108.25,-48.46 108.25,-108.25 0,-59.794 -48.46,-108.25 -108.25,-108.25 m -215,209.59 0,113.66 113.66,0 0,-43.906 -69.75,0 0,-69.75 -43.906,0 m 386.09,0 0,69.75 -69.75,0 0,43.906 113.66,0 0,-113.66 -43.906,0"
     style="fill:#ffffff"
     id="path86044" />
</svg>
