<?xml version="1.0" encoding="UTF-8" standalone="no"?>
<svg
   xmlns:dc="http://purl.org/dc/elements/1.1/"
   xmlns:cc="http://creativecommons.org/ns#"
   xmlns:rdf="http://www.w3.org/1999/02/22-rdf-syntax-ns#"
   xmlns:svg="http://www.w3.org/2000/svg"
   xmlns="http://www.w3.org/2000/svg"
   xmlns:sodipodi="http://sodipodi.sourceforge.net/DTD/sodipodi-0.dtd"
   xmlns:inkscape="http://www.inkscape.org/namespaces/inkscape"
   viewBox="0 0 512 512"
   id="svg2"
   version="1.1"
   inkscape:version="0.91+devel r13804 custom"
   sodipodi:docname="skydrive.svg">
  <metadata
     id="metadata472">
    <rdf:RDF>
      <cc:Work
         rdf:about="">
        <dc:format>image/svg+xml</dc:format>
        <dc:type
           rdf:resource="http://purl.org/dc/dcmitype/StillImage" />
        <dc:title></dc:title>
      </cc:Work>
    </rdf:RDF>
  </metadata>
  <sodipodi:namedview
     pagecolor="#ffffff"
     bordercolor="#666666"
     borderopacity="1"
     objecttolerance="10"
     gridtolerance="10"
     guidetolerance="10"
     inkscape:pageopacity="0"
     inkscape:pageshadow="2"
     inkscape:window-width="1366"
     inkscape:window-height="709"
     id="namedview470"
     showgrid="false"
     inkscape:zoom="0.4609375"
     inkscape:cx="-8.6779661"
     inkscape:cy="237.55932"
     inkscape:window-x="-2"
     inkscape:window-y="-3"
     inkscape:window-maximized="1"
     inkscape:current-layer="svg2" />
  <defs
     id="defs4">
    <linearGradient
       x1="0"
       x2="512"
       id="2-3"
       gradientUnits="userSpaceOnUse"
       gradientTransform="translate(-1.5e-4)">
      <stop
         id="stop83581-9"
         style="stop-color:#b22b2d" />
      <stop
         id="stop83583-8"
         style="stop-color:#39962a"
         offset=".5" />
      <stop
         id="stop83585-9"
         style="stop-color:#4f4ddd"
         offset="1" />
    </linearGradient>
  </defs>
  <path
     inkscape:connector-curvature="0"
     d="M 26,0 C 11.603,0 0,11.603 0,26 l 0,460 c 0,14.397 11.603,26 26,26 l 460,0 c 14.397,0 26,-11.603 26,-26 L 512,26 C 512,11.603 500.397,0 486,0 L 26,0"
     style="fill:#0e64a9"
     id="path92232" />
  <text
     sodipodi:linespacing="125%"
     y="27.139999"
     x="-14.192"
     line-height="125%"
     style="font-size:129.22999573px;line-height:125%;font-family:'Gentium Book Basic';letter-spacing:0;word-spacing:0"
     id="text92234">
    <tspan
       y="27.139999"
       x="-14.192"
       id="tspan92236" />
  </text>
  <text
     transform="scale(4.0128205,0.24920128)"
     y="-240.22876"
     x="193.539"
     style="font-size:46.95399857px;font-family:Arial;text-anchor:middle"
     id="text92238" />
  <text
     sodipodi:linespacing="125%"
     y="-52.859001"
     x="567.08002"
     line-height="125%"
     style="font-size:129.22999573px;line-height:125%;font-family:'Gentium Book Basic';letter-spacing:0;word-spacing:0"
     id="text92240">
    <tspan
       y="-52.859001"
       x="567.08002"
       id="tspan92242" />
  </text>
  <text
     transform="scale(4.0128205,0.24920128)"
     y="-561.26715"
     x="338.38828"
     style="font-size:46.95399857px;font-family:Arial;text-anchor:middle"
     id="text92244" />
  <text
     sodipodi:linespacing="125%"
     y="-234.12"
     x="-504.5"
     line-height="125%"
     style="font-size:129.22999573px;line-height:125%;font-family:'Gentium Book Basic';letter-spacing:0;word-spacing:0"
     id="text92246">
    <tspan
       y="-234.12"
       x="-504.5"
       id="tspan92248" />
  </text>
  <text
     transform="scale(4.0128205,0.24920128)"
     y="-1288.6134"
     x="71.349632"
     style="font-size:46.95399857px;font-family:Arial;text-anchor:middle"
     id="text92250" />
  <text
     sodipodi:linespacing="125%"
     y="-450.59"
     x="593.54999"
     line-height="125%"
     style="font-size:129.22999573px;line-height:125%;font-family:'Gentium Book Basic';letter-spacing:0;word-spacing:0"
     id="text92252">
    <tspan
       y="-450.59"
       x="593.54999"
       id="tspan92254" />
  </text>
  <text
     transform="scale(4.0128205,0.24920128)"
     y="-2157.2791"
     x="344.98822"
     style="font-size:46.95399857px;font-family:Arial;text-anchor:middle"
     id="text92256" />
  <text
     sodipodi:linespacing="125%"
     y="-530.59003"
     x="1174.8199"
     line-height="125%"
     style="font-size:129.22999573px;line-height:125%;font-family:'Gentium Book Basic';letter-spacing:0;word-spacing:0"
     id="text92258">
    <tspan
       y="-530.59003"
       x="1174.8199"
       id="tspan92260" />
  </text>
  <text
     transform="scale(4.0128205,0.24920128)"
     y="-2478.3074"
     x="489.83749"
     style="font-size:46.95399857px;font-family:Arial;text-anchor:middle"
     id="text92262" />
  <text
     sodipodi:linespacing="125%"
     y="-1002.99"
     x="785.70001"
     line-height="125%"
     style="font-size:129.22999573px;line-height:125%;font-family:'Gentium Book Basic';letter-spacing:0;word-spacing:0"
     id="text92264">
    <tspan
       y="-1002.99"
       x="785.70001"
       id="tspan92266" />
  </text>
  <text
     transform="scale(4.0128205,0.24920128)"
     y="-4373.9478"
     x="392.86798"
     style="font-size:46.95399857px;font-family:Arial;text-anchor:middle"
     id="text92268" />
  <text
     sodipodi:linespacing="125%"
     y="-1083"
     x="1366.96"
     line-height="125%"
     style="font-size:129.22999573px;line-height:125%;font-family:'Gentium Book Basic';letter-spacing:0;word-spacing:0"
     id="text92270">
    <tspan
       y="-1083"
       x="1366.96"
       id="tspan92272" />
  </text>
  <text
     transform="scale(4.0128205,0.24920128)"
     y="-4694.9858"
     x="537.71722"
     style="font-size:46.95399857px;font-family:Arial;text-anchor:middle"
     id="text92274" />
  <text
     sodipodi:linespacing="125%"
     y="331.72"
     x="-465.84"
     line-height="125%"
     style="font-size:208.33000183px;line-height:125%;font-family:'Gentium Book Basic';letter-spacing:0;word-spacing:0"
     id="text92276">
    <tspan
       y="331.72"
       x="-465.84"
       id="tspan92278" />
  </text>
  <path
     d="M 276.86914 123.64062 C 262.32714 123.61362 250.18323 126.41734 238.49023 132.52734 L 238.49023 132.5293 C 227.66023 138.1913 214.41919 149.317 207.86719 158.25 L 207.86914 158.25195 C 196.80024 173.36047 197.37941 172.87434 192.14258 170.69141 L 192.14062 170.68945 C 175.62762 163.81845 156.53933 162.60914 141.36133 167.49414 L 197.05273 223.18555 C 197.05173 223.18731 197.05179 223.18964 197.05078 223.19141 L 141.35938 167.5 C 113.25938 176.53 93.139453 204.66984 91.939453 236.58984 C 91.727573 241.72594 91.152971 246.66513 90.615234 247.57617 C 90.067892 248.45404 86.637596 250.01059 82.996094 250.96289 L 128.78711 296.75391 C 128.78586 296.75654 128.78445 296.75909 128.7832 296.76172 L 82.992188 250.9707 C 65.717186 255.4967 51.963203 267.00998 44.783203 282.95898 L 130.71875 368.89648 L 44.78125 282.96094 C 41.37125 290.52894 41 292.99047 41 308.23047 C 41 324.25047 41.246437 325.57386 45.523438 334.63086 C 48.614438 341.17286 53.137314 347.37945 58.445312 352.68945 L 217.75586 512 L 486 512 C 500.397 512 512 500.397 512 486 L 512 321.21094 L 341.26953 150.48047 C 341.37781 150.58877 341.48205 150.70167 341.58984 150.81055 L 341.25977 150.48047 C 324.38709 133.6078 301.67966 123.72148 276.88281 123.6543 L 276.86914 123.64062 z "
     id="path92282"
     style="opacity:0.25" />
  <path
     inkscape:connector-curvature="0"
     d="m 276.87,123.64 c -14.542,-0.027 -26.687,2.778 -38.38,8.888 -10.83,5.662 -24.07,16.787 -30.622,25.72 -11.07,15.11 -10.491,14.625 -15.728,12.442 -16.513,-6.871 -35.601,-8.08 -50.779,-3.195 -28.1,9.03 -48.22,37.17 -49.42,69.09 -0.212,5.139 -0.786,10.08 -1.324,10.987 -0.538,0.877 -3.975,2.438 -7.623,3.392 -17.275,4.526 -31.03,16.04 -38.21,31.989 -3.41,7.568 -3.781,10.03 -3.781,25.27 0,16.02 0.246,17.343 4.523,26.4 7.546,15.973 23.634,29.953 38.825,33.711 5.498,1.352 45.25,1.771 46.49,0.496 0.496,-0.509 -0.331,-3.426 -1.875,-6.525 -4.03,-8.221 -6.939,-22.593 -6.942,-34.32 -0.012,-32.22 18.63,-57.41 50.581,-68.32 10.321,-3.522 12.727,-5.07 12.727,-8.176 0,-4.379 7.621,-21.991 13.6,-31.443 8.386,-13.259 19.485,-23.452 33.31,-30.54 34.579,-17.737 75.27,-12.11 100.2,13.833 l 8.853,9.176 9.69,-2.617 c 5.327,-1.432 11.436,-2.664 13.568,-2.714 4.878,-0.067 5.071,-3.713 0.929,-16.611 -12.952,-40.37 -47.97,-66.827 -88.61,-66.927 z m -2.814,72.64 c -17.227,-0.067 -24.424,1.56 -38.665,8.987 -13.607,7.094 -26.36,24.439 -33.24,45.24 -1.518,4.579 -2.747,9.738 -2.747,11.47 0,5.529 -3.188,7.921 -13.599,10.145 -20.914,4.471 -36.825,16.609 -42.829,32.707 -2.453,6.567 -3.148,11.471 -3.137,21.683 0.04,31.935 14.55,53.47 40.576,60.23 5.408,1.395 36.711,1.753 135.18,1.554 l 128.14,-0.237 5.749,-3.231 c 12.267,-6.83 20.01,-20.576 21.284,-37.808 1.952,-26.348 -8.792,-44.27 -31.686,-52.806 l -8.04,-3 -0.851,-11.408 c -3.271,-41.711 -43.856,-66.66 -84.57,-51.995 l -8.431,3.033 -9.367,-10.275 c -17.07,-18.659 -29.28,-24.17 -53.75,-24.301 z"
     style="fill:#ffffff"
     id="path92380" />
</svg>
