<?xml version="1.0" encoding="UTF-8" standalone="no"?>
<svg
   xmlns:dc="http://purl.org/dc/elements/1.1/"
   xmlns:cc="http://creativecommons.org/ns#"
   xmlns:rdf="http://www.w3.org/1999/02/22-rdf-syntax-ns#"
   xmlns:svg="http://www.w3.org/2000/svg"
   xmlns="http://www.w3.org/2000/svg"
   xmlns:sodipodi="http://sodipodi.sourceforge.net/DTD/sodipodi-0.dtd"
   xmlns:inkscape="http://www.inkscape.org/namespaces/inkscape"
   viewBox="0 0 512 512"
   id="svg2"
   version="1.1"
   inkscape:version="0.91+devel r13804 custom"
   sodipodi:docname="snap.svg">
  <metadata
     id="metadata472">
    <rdf:RDF>
      <cc:Work
         rdf:about="">
        <dc:format>image/svg+xml</dc:format>
        <dc:type
           rdf:resource="http://purl.org/dc/dcmitype/StillImage" />
        <dc:title></dc:title>
      </cc:Work>
    </rdf:RDF>
  </metadata>
  <sodipodi:namedview
     pagecolor="#ffffff"
     bordercolor="#666666"
     borderopacity="1"
     objecttolerance="10"
     gridtolerance="10"
     guidetolerance="10"
     inkscape:pageopacity="0"
     inkscape:pageshadow="2"
     inkscape:window-width="1366"
     inkscape:window-height="709"
     id="namedview470"
     showgrid="false"
     inkscape:zoom="0.4609375"
     inkscape:cx="-8.6779661"
     inkscape:cy="237.55932"
     inkscape:window-x="-2"
     inkscape:window-y="-3"
     inkscape:window-maximized="1"
     inkscape:current-layer="svg2" />
  <defs
     id="defs4" />
  <path
     inkscape:connector-curvature="0"
     d="M 26,0 C 11.603,0 0,11.603 0,26 l 0,460 c 0,14.397 11.603,26 26,26 l 460,0 c 14.397,0 26,-11.603 26,-26 L 512,26 C 512,11.603 500.397,0 486,0 L 26,0"
     style="fill:#88687d"
     id="path103383" />
  <text
     sodipodi:linespacing="125%"
     y="42.481998"
     x="-41.805"
     line-height="125%"
     style="font-size:129.22999573px;line-height:125%;font-family:'Gentium Book Basic';letter-spacing:0;word-spacing:0"
     id="text103385">
    <tspan
       y="42.481998"
       x="-41.805"
       id="tspan103387" />
  </text>
  <text
     transform="scale(4.0128205,0.24920128)"
     y="-178.68909"
     x="186.65904"
     style="font-size:46.95399857px;font-family:Arial;text-anchor:middle"
     id="text103389" />
  <text
     sodipodi:linespacing="125%"
     y="-37.518002"
     x="539.46997"
     line-height="125%"
     style="font-size:129.22999573px;line-height:125%;font-family:'Gentium Book Basic';letter-spacing:0;word-spacing:0"
     id="text103391">
    <tspan
       y="-37.518002"
       x="539.46997"
       id="tspan103393" />
  </text>
  <text
     transform="scale(4.0128205,0.24920128)"
     y="-499.70743"
     x="331.5083"
     style="font-size:46.95399857px;font-family:Arial;text-anchor:middle"
     id="text103395" />
  <text
     sodipodi:linespacing="125%"
     y="-218.78"
     x="-532.10999"
     line-height="125%"
     style="font-size:129.22999573px;line-height:125%;font-family:'Gentium Book Basic';letter-spacing:0;word-spacing:0"
     id="text103397">
    <tspan
       y="-218.78"
       x="-532.10999"
       id="tspan103399" />
  </text>
  <text
     transform="scale(4.0128205,0.24920128)"
     y="-1227.0637"
     x="64.469673"
     style="font-size:46.95399857px;font-family:Arial;text-anchor:middle"
     id="text103401" />
  <text
     sodipodi:linespacing="125%"
     y="-435.25"
     x="565.94"
     line-height="125%"
     style="font-size:129.22999573px;line-height:125%;font-family:'Gentium Book Basic';letter-spacing:0;word-spacing:0"
     id="text103403">
    <tspan
       y="-435.25"
       x="565.94"
       id="tspan103405" />
  </text>
  <text
     transform="scale(4.0128205,0.24920128)"
     y="-2095.7292"
     x="338.10825"
     style="font-size:46.95399857px;font-family:Arial;text-anchor:middle"
     id="text103407" />
  <text
     sodipodi:linespacing="125%"
     y="-515.26001"
     x="1147.21"
     line-height="125%"
     style="font-size:129.22999573px;line-height:125%;font-family:'Gentium Book Basic';letter-spacing:0;word-spacing:0"
     id="text103409">
    <tspan
       y="-515.26001"
       x="1147.21"
       id="tspan103411" />
  </text>
  <text
     transform="scale(4.0128205,0.24920128)"
     y="-2416.7676"
     x="482.95752"
     style="font-size:46.95399857px;font-family:Arial;text-anchor:middle"
     id="text103413" />
  <text
     sodipodi:linespacing="125%"
     y="-987.65997"
     x="758.09003"
     line-height="125%"
     style="font-size:129.22999573px;line-height:125%;font-family:'Gentium Book Basic';letter-spacing:0;word-spacing:0"
     id="text103415">
    <tspan
       y="-987.65997"
       x="758.09003"
       id="tspan103417" />
  </text>
  <text
     transform="scale(4.0128205,0.24920128)"
     y="-4312.4082"
     x="385.98801"
     style="font-size:46.95399857px;font-family:Arial;text-anchor:middle"
     id="text103419" />
  <text
     sodipodi:linespacing="125%"
     y="-1067.66"
     x="1339.35"
     line-height="125%"
     style="font-size:129.22999573px;line-height:125%;font-family:'Gentium Book Basic';letter-spacing:0;word-spacing:0"
     id="text103421">
    <tspan
       y="-1067.66"
       x="1339.35"
       id="tspan103423" />
  </text>
  <text
     transform="scale(4.0128205,0.24920128)"
     y="-4633.4263"
     x="530.83728"
     style="font-size:46.95399857px;font-family:Arial;text-anchor:middle"
     id="text103425" />
  <text
     sodipodi:linespacing="125%"
     y="347.06"
     x="-493.45001"
     line-height="125%"
     style="font-size:208.33000183px;line-height:125%;font-family:'Gentium Book Basic';letter-spacing:0;word-spacing:0"
     id="text103427">
    <tspan
       y="347.06"
       x="-493.45001"
       id="tspan103429" />
  </text>
  <path
     d="M 182.90039 84 C 175.80539 84 168.16092 89.504281 165.91992 96.238281 L 165.91992 96.240234 L 152.58008 136.26953 C 150.33149 142.9983 142.69742 148.5019 135.60352 148.50391 L 135.59961 148.5 L 84 148.5 C 60.35 148.5 41 167.85 41 191.5 L 41 385 C 41 396.825 45.836859 407.57514 53.630859 415.36914 L 150.26172 512 L 486 512 C 500.397 512 512 500.397 512 486 L 512 214.88867 L 460.31055 163.19922 C 452.41395 154.20268 440.84317 148.50253 428.00195 148.50195 L 428 148.50195 L 428 148.5 L 400.69531 148.5 L 341.92188 89.726562 C 341.95938 89.764081 341.99406 89.804008 342.03125 89.841797 L 341.91992 89.730469 C 338.48341 86.293955 333.67902 84.000649 329.09961 84 L 182.90039 84 z "
     id="path103433"
     style="opacity:0.25" />
  <path
     inkscape:connector-curvature="0"
     d="m 256,213 c -35.625,0 -64.5,28.887 -64.5,64.5 0,35.625 28.875,64.5 64.5,64.5 35.617,0 64.5,-28.875 64.5,-64.5 0,-35.613 -28.883,-64.5 -64.5,-64.5 m 172,-64.5 -51.6,0 c -7.095,0 -14.74,-5.504 -16.981,-12.238 L 346.08,96.232 c -2.249,-6.73 -9.886,-12.234 -16.981,-12.234 l -146.2,0 c -7.095,0 -14.74,5.504 -16.981,12.238 l -13.339,40.03 c -2.249,6.73 -9.886,12.233 -16.981,12.233 l -51.6,0 c -23.65,0 -43,19.35 -43,43 l 0,193.5 c 0,23.65 19.35,43 43,43 l 344,0 c 23.65,0 43,-19.35 43,-43 l 0,-193.5 c 0,-23.65 -19.35,-43 -43,-43 m -172,236.5 c -59.37,0 -107.5,-48.13 -107.5,-107.5 0,-59.37 48.13,-107.5 107.5,-107.5 59.36,0 107.5,48.13 107.5,107.5 0,59.37 -48.14,107.5 -107.5,107.5 m 156.95,-163.44 c -8.308,0 -15.05,-6.734 -15.05,-15.05 0,-8.308 6.742,-15.05 15.05,-15.05 8.316,0 15.05,6.742 15.05,15.05 0,8.316 -6.738,15.05 -15.05,15.05"
     style="fill:#ffffff"
     id="path103507" />
</svg>
