<?xml version="1.0" encoding="UTF-8" standalone="no"?>
<svg
   xmlns:dc="http://purl.org/dc/elements/1.1/"
   xmlns:cc="http://creativecommons.org/ns#"
   xmlns:rdf="http://www.w3.org/1999/02/22-rdf-syntax-ns#"
   xmlns:svg="http://www.w3.org/2000/svg"
   xmlns="http://www.w3.org/2000/svg"
   xmlns:sodipodi="http://sodipodi.sourceforge.net/DTD/sodipodi-0.dtd"
   xmlns:inkscape="http://www.inkscape.org/namespaces/inkscape"
   viewBox="0 0 512 512"
   id="svg2"
   version="1.1"
   inkscape:version="0.91+devel r13804 custom"
   sodipodi:docname="software-properties.svg">
  <metadata
     id="metadata472">
    <rdf:RDF>
      <cc:Work
         rdf:about="">
        <dc:format>image/svg+xml</dc:format>
        <dc:type
           rdf:resource="http://purl.org/dc/dcmitype/StillImage" />
        <dc:title></dc:title>
      </cc:Work>
    </rdf:RDF>
  </metadata>
  <sodipodi:namedview
     pagecolor="#ffffff"
     bordercolor="#666666"
     borderopacity="1"
     objecttolerance="10"
     gridtolerance="10"
     guidetolerance="10"
     inkscape:pageopacity="0"
     inkscape:pageshadow="2"
     inkscape:window-width="1366"
     inkscape:window-height="709"
     id="namedview470"
     showgrid="false"
     inkscape:zoom="0.4609375"
     inkscape:cx="-8.6779661"
     inkscape:cy="237.55932"
     inkscape:window-x="-2"
     inkscape:window-y="-3"
     inkscape:window-maximized="1"
     inkscape:current-layer="svg2" />
  <defs
     id="defs4" />
  <rect
     y="0"
     x="0"
     rx="25.988001"
     height="512"
     width="512"
     style="fill:#366378"
     id="rect103846" />
  <path
     inkscape:connector-curvature="0"
     d="M 0,255.72 0,486 c 0,14.397 11.603,26 26,26 l 230.06,0 0,-256.28 -256.06,0"
     style="fill:#924565"
     id="path103848" />
  <path
     inkscape:connector-curvature="0"
     d="m 256.06,255.72 0,256.28 229.94,0 c 14.397,0 26,-11.603 26,-26 l 0,-230.28 -255.94,0"
     style="fill:#e4a146"
     id="path103850" />
  <path
     inkscape:connector-curvature="0"
     d="M 26,0 C 11.603,0 0,11.603 0,26 l 0,229.72 256.06,0 L 256.06,0 26,0"
     style="fill:#9a3034"
     id="path103852" />
  <text
     sodipodi:linespacing="125%"
     y="202.02"
     x="-55.611"
     line-height="125%"
     style="font-size:129.22999573px;line-height:125%;font-family:'Gentium Book Basic';letter-spacing:0;word-spacing:0"
     id="text103854">
    <tspan
       y="202.02"
       x="-55.611"
       id="tspan103856" />
  </text>
  <text
     transform="scale(4.0128205,0.24920128)"
     y="461.52765"
     x="183.21907"
     style="font-size:46.95399857px;font-family:Arial;text-anchor:middle"
     id="text103858" />
  <text
     sodipodi:linespacing="125%"
     y="122.02"
     x="525.65997"
     line-height="125%"
     style="font-size:129.22999573px;line-height:125%;font-family:'Gentium Book Basic';letter-spacing:0;word-spacing:0"
     id="text103860">
    <tspan
       y="122.02"
       x="525.65997"
       id="tspan103862" />
  </text>
  <text
     transform="scale(4.0128205,0.24920128)"
     y="140.49928"
     x="328.06833"
     style="font-size:46.95399857px;font-family:Arial;text-anchor:middle"
     id="text103864" />
  <text
     sodipodi:linespacing="125%"
     y="-59.240002"
     x="-545.91998"
     line-height="125%"
     style="font-size:129.22999573px;line-height:125%;font-family:'Gentium Book Basic';letter-spacing:0;word-spacing:0"
     id="text103866">
    <tspan
       y="-59.240002"
       x="-545.91998"
       id="tspan103868" />
  </text>
  <text
     transform="scale(4.0128205,0.24920128)"
     y="-586.85699"
     x="61.029686"
     style="font-size:46.95399857px;font-family:Arial;text-anchor:middle"
     id="text103870" />
  <text
     sodipodi:linespacing="125%"
     y="-275.70999"
     x="552.13"
     line-height="125%"
     style="font-size:129.22999573px;line-height:125%;font-family:'Gentium Book Basic';letter-spacing:0;word-spacing:0"
     id="text103872">
    <tspan
       y="-275.70999"
       x="552.13"
       id="tspan103874" />
  </text>
  <text
     transform="scale(4.0128205,0.24920128)"
     y="-1455.5126"
     x="334.6683"
     style="font-size:46.95399857px;font-family:Arial;text-anchor:middle"
     id="text103876" />
  <text
     sodipodi:linespacing="125%"
     y="-355.72"
     x="1133.4"
     line-height="125%"
     style="font-size:129.22999573px;line-height:125%;font-family:'Gentium Book Basic';letter-spacing:0;word-spacing:0"
     id="text103878">
    <tspan
       y="-355.72"
       x="1133.4"
       id="tspan103880" />
  </text>
  <text
     transform="scale(4.0128205,0.24920128)"
     y="-1776.5509"
     x="479.51755"
     style="font-size:46.95399857px;font-family:Arial;text-anchor:middle"
     id="text103882" />
  <text
     sodipodi:linespacing="125%"
     y="-828.12"
     x="744.28003"
     line-height="125%"
     style="font-size:129.22999573px;line-height:125%;font-family:'Gentium Book Basic';letter-spacing:0;word-spacing:0"
     id="text103884">
    <tspan
       y="-828.12"
       x="744.28003"
       id="tspan103886" />
  </text>
  <text
     transform="scale(4.0128205,0.24920128)"
     y="-3672.1912"
     x="382.54803"
     style="font-size:46.95399857px;font-family:Arial;text-anchor:middle"
     id="text103888" />
  <text
     sodipodi:linespacing="125%"
     y="-908.12"
     x="1325.54"
     line-height="125%"
     style="font-size:129.22999573px;line-height:125%;font-family:'Gentium Book Basic';letter-spacing:0;word-spacing:0"
     id="text103890">
    <tspan
       y="-908.12"
       x="1325.54"
       id="tspan103892" />
  </text>
  <text
     transform="scale(4.0128205,0.24920128)"
     y="-3993.2195"
     x="527.39734"
     style="font-size:46.95399857px;font-family:Arial;text-anchor:middle"
     id="text103894" />
  <g
     line-height="125%"
     style="line-height:125%;font-family:'Gentium Book Basic';letter-spacing:0;word-spacing:0"
     id="g103896">
    <g
       style="font-size:208.33000183px"
       id="g103898">
      <text
         y="506.60001"
         x="-507.26001"
         id="text103900">
        <tspan
           y="506.60001"
           x="-507.26001"
           id="tspan103902" />
      </text>
      <text
         y="436.25"
         x="-1895.73"
         id="text103904">
        <tspan
           y="436.25"
           x="-1895.73"
           id="tspan103906" />
      </text>
      <text
         y="278.41"
         x="-2188.8"
         id="text103908">
        <tspan
           y="278.41"
           x="-2188.8"
           id="tspan103910" />
      </text>
      <text
         y="473.39001"
         x="-2610.01"
         id="text103912">
        <tspan
           y="473.39001"
           x="-2610.01"
           id="tspan103914" />
      </text>
    </g>
    <text
       transform="scale(1.05082,0.95163)"
       y="301.35999"
       x="-1285.04"
       style="font-size:84.76999664px;fill:#654641"
       id="text103916">
      <tspan
         y="301.35999"
         x="-1285.04"
         id="tspan103918" />
    </text>
  </g>
  <g
     style="fill:#654641"
     id="g103920">
    <text
       transform="scale(4.21677,0.23715)"
       y="980.28998"
       x="-190.96001"
       style="font-size:30.79999924px;font-family:Arial;text-anchor:middle"
       id="text103922" />
    <text
       sodipodi:linespacing="125%"
       transform="scale(1.05082,0.95163)"
       y="277.85999"
       x="-1017.23"
       line-height="125%"
       style="font-size:45.38000107px;line-height:125%;font-family:'Gentium Book Basic';letter-spacing:0;word-spacing:0"
       id="text103924">
      <tspan
         y="277.85999"
         x="-1017.23"
         id="tspan103926" />
    </text>
    <text
       transform="scale(4.21677,0.23715)"
       y="992.41998"
       x="-184.28999"
       style="font-size:16.48800087px;font-family:Arial;text-anchor:middle"
       id="text103928" />
    <text
       sodipodi:linespacing="125%"
       y="366.26999"
       x="-2091.26"
       line-height="125%"
       style="font-size:132.57000732px;line-height:125%;font-family:'Gentium Book Basic';letter-spacing:0;word-spacing:0"
       id="text103930">
      <tspan
         y="366.26999"
         x="-2091.26"
         id="tspan103932" />
    </text>
    <text
       transform="scale(4.0128,0.2492)"
       y="1111.61"
       x="-318.97"
       style="font-size:48.16999817px;font-family:Arial;text-anchor:middle"
       id="text103934" />
  </g>
  <g
     line-height="125%"
     style="font-size:208.33000183px;line-height:125%;font-family:'Gentium Book Basic';letter-spacing:0;word-spacing:0;fill:#000000"
     id="g103936">
    <text
       y="346.39001"
       x="-1829.01"
       id="text103938">
      <tspan
         y="346.39001"
         x="-1829.01"
         id="tspan103940" />
    </text>
    <text
       y="188.56"
       x="-2122.0901"
       id="text103942">
      <tspan
         y="188.56"
         x="-2122.0901"
         id="tspan103944" />
    </text>
  </g>
  <g
     transform="translate(-978.44,-123.66)"
     id="g103946">
    <g
       line-height="125%"
       style="line-height:125%;font-family:'Gentium Book Basic';letter-spacing:0;word-spacing:0"
       id="g103948">
      <text
         y="559.52002"
         x="-272.57001"
         style="font-size:208.33000183px"
         id="text103950">
        <tspan
           y="559.52002"
           x="-272.57001"
           id="tspan103952" />
      </text>
      <text
         transform="scale(1.05082,0.95163)"
         y="391.85999"
         x="939.34998"
         style="font-size:84.76999664px;fill:#654641"
         id="text103954">
        <tspan
           y="391.85999"
           x="939.34998"
           id="tspan103956" />
      </text>
    </g>
    <g
       style="fill:#654641"
       id="g103958">
      <text
         transform="scale(4.21679,0.23715)"
         y="1343.4301"
         x="363.35999"
         style="font-size:30.79999924px;font-family:Arial;text-anchor:middle"
         id="text103960" />
      <text
         sodipodi:linespacing="125%"
         transform="scale(1.05082,0.95163)"
         y="368.35999"
         x="1207.16"
         line-height="125%"
         style="font-size:45.38000107px;line-height:125%;font-family:'Gentium Book Basic';letter-spacing:0;word-spacing:0"
         id="text103962">
        <tspan
           y="368.35999"
           x="1207.16"
           id="tspan103964" />
      </text>
      <text
         transform="scale(4.21679,0.23715)"
         y="1355.5699"
         x="370.03"
         style="font-size:16.48800087px;font-family:Arial;text-anchor:middle"
         id="text103966" />
      <text
         sodipodi:linespacing="125%"
         y="452.39999"
         x="246.17999"
         line-height="125%"
         style="font-size:132.57000732px;line-height:125%;font-family:'Gentium Book Basic';letter-spacing:0;word-spacing:0"
         id="text103968">
        <tspan
           y="452.39999"
           x="246.17999"
           id="tspan103970" />
      </text>
      <text
         transform="scale(4.0128,0.2492)"
         y="1457.2"
         x="263.53"
         style="font-size:48.16999817px;font-family:Arial;text-anchor:middle"
         id="text103972" />
    </g>
    <g
       line-height="125%"
       style="font-size:208.33000183px;line-height:125%;font-family:'Gentium Book Basic';letter-spacing:0;word-spacing:0;fill:#000000"
       id="g103974">
      <text
         y="432.51999"
         x="508.42999"
         id="text103976">
        <tspan
           y="432.51999"
           x="508.42999"
           id="tspan103978" />
      </text>
      <text
         y="274.67999"
         x="215.35001"
         id="text103980">
        <tspan
           y="274.67999"
           x="215.35001"
           id="tspan103982" />
      </text>
    </g>
  </g>
  <g
     transform="translate(-1578.36,-152.06)"
     style="fill:#654641"
     id="g103984">
    <text
       sodipodi:linespacing="125%"
       transform="scale(1.05082,0.95163)"
       y="391.85999"
       x="755.39001"
       line-height="125%"
       style="font-size:84.76999664px;line-height:125%;font-family:'Gentium Book Basic';letter-spacing:0;word-spacing:0"
       id="text103986">
      <tspan
         y="391.85999"
         x="755.39001"
         id="tspan103988" />
    </text>
    <text
       transform="scale(4.21679,0.23715)"
       y="1343.4301"
       x="317.51999"
       style="font-size:30.79999924px;font-family:Arial;text-anchor:middle"
       id="text103990" />
    <text
       sodipodi:linespacing="125%"
       transform="scale(1.05082,0.95163)"
       y="368.35999"
       x="1023.2"
       line-height="125%"
       style="font-size:45.38000107px;line-height:125%;font-family:'Gentium Book Basic';letter-spacing:0;word-spacing:0"
       id="text103992">
      <tspan
         y="368.35999"
         x="1023.2"
         id="tspan103994" />
    </text>
    <text
       transform="scale(4.21679,0.23715)"
       y="1355.5699"
       x="324.19"
       style="font-size:16.48800087px;font-family:Arial;text-anchor:middle"
       id="text103996" />
    <text
       sodipodi:linespacing="125%"
       y="452.39999"
       x="52.874001"
       line-height="125%"
       style="font-size:132.57000732px;line-height:125%;font-family:'Gentium Book Basic';letter-spacing:0;word-spacing:0"
       id="text103998">
      <tspan
         y="452.39999"
         x="52.874001"
         id="tspan104000" />
    </text>
    <text
       transform="scale(4.0128,0.2492)"
       y="1457.2"
       x="215.36"
       style="font-size:48.16999817px;font-family:Arial;text-anchor:middle"
       id="text104002" />
  </g>
  <g
     line-height="125%"
     style="line-height:125%;font-family:'Gentium Book Basic';letter-spacing:0;word-spacing:0"
     id="g104004">
    <g
       style="font-size:208.33000183px"
       id="g104006">
      <text
         y="280.45999"
         x="-1263.24"
         id="text104008">
        <tspan
           y="280.45999"
           x="-1263.24"
           id="tspan104010" />
      </text>
      <text
         y="122.62"
         x="-1556.3101"
         id="text104012">
        <tspan
           y="122.62"
           x="-1556.3101"
           id="tspan104014" />
      </text>
    </g>
    <text
       y="79.300003"
       x="-848.71997"
       style="font-size:129.22999573px"
       id="text104016">
      <tspan
         y="79.300003"
         x="-848.71997"
         id="tspan104018" />
    </text>
  </g>
  <text
     transform="scale(4.0128205,0.24920128)"
     y="-30.944841"
     x="-14.421926"
     style="font-size:46.95399857px;font-family:Arial;text-anchor:middle"
     id="text104020" />
  <text
     sodipodi:linespacing="125%"
     y="-0.70099998"
     x="-267.45001"
     line-height="125%"
     style="font-size:129.22999573px;line-height:125%;font-family:'Gentium Book Basic';letter-spacing:0;word-spacing:0"
     id="text104022">
    <tspan
       y="-0.70099998"
       x="-267.45001"
       id="tspan104024" />
  </text>
  <text
     transform="scale(4.0128205,0.24920128)"
     y="-351.9682"
     x="130.42932"
     style="font-size:46.95399857px;font-family:Arial;text-anchor:middle"
     id="text104026" />
  <text
     sodipodi:linespacing="125%"
     y="-181.96001"
     x="-1339.03"
     line-height="125%"
     style="font-size:129.22999573px;line-height:125%;font-family:'Gentium Book Basic';letter-spacing:0;word-spacing:0"
     id="text104028">
    <tspan
       y="-181.96001"
       x="-1339.03"
       id="tspan104030" />
  </text>
  <text
     transform="scale(4.0128205,0.24920128)"
     y="-1079.3245"
     x="-136.6093"
     style="font-size:46.95399857px;font-family:Arial;text-anchor:middle"
     id="text104032" />
  <text
     sodipodi:linespacing="125%"
     y="-398.42999"
     x="-240.98"
     line-height="125%"
     style="font-size:129.22999573px;line-height:125%;font-family:'Gentium Book Basic';letter-spacing:0;word-spacing:0"
     id="text104034">
    <tspan
       y="-398.42999"
       x="-240.98"
       id="tspan104036" />
  </text>
  <text
     transform="scale(4.0128205,0.24920128)"
     y="-1947.98"
     x="137.0293"
     style="font-size:46.95399857px;font-family:Arial;text-anchor:middle"
     id="text104038" />
  <text
     sodipodi:linespacing="125%"
     y="-478.44"
     x="340.29001"
     line-height="125%"
     style="font-size:129.22999573px;line-height:125%;font-family:'Gentium Book Basic';letter-spacing:0;word-spacing:0"
     id="text104040">
    <tspan
       y="-478.44"
       x="340.29001"
       id="tspan104042" />
  </text>
  <text
     transform="scale(4.0128205,0.24920128)"
     y="-2269.0183"
     x="281.87857"
     style="font-size:46.95399857px;font-family:Arial;text-anchor:middle"
     id="text104044" />
  <text
     sodipodi:linespacing="125%"
     y="-950.84003"
     x="-48.832001"
     line-height="125%"
     style="font-size:129.22999573px;line-height:125%;font-family:'Gentium Book Basic';letter-spacing:0;word-spacing:0"
     id="text104046">
    <tspan
       y="-950.84003"
       x="-48.832001"
       id="tspan104048" />
  </text>
  <text
     transform="scale(4.0128205,0.24920128)"
     y="-4164.6587"
     x="184.90906"
     style="font-size:46.95399857px;font-family:Arial;text-anchor:middle"
     id="text104050" />
  <text
     sodipodi:linespacing="125%"
     y="-1030.84"
     x="532.42999"
     line-height="125%"
     style="font-size:129.22999573px;line-height:125%;font-family:'Gentium Book Basic';letter-spacing:0;word-spacing:0"
     id="text104052">
    <tspan
       y="-1030.84"
       x="532.42999"
       id="tspan104054" />
  </text>
  <text
     transform="scale(4.0128205,0.24920128)"
     y="-4485.687"
     x="329.75833"
     style="font-size:46.95399857px;font-family:Arial;text-anchor:middle"
     id="text104056" />
  <text
     sodipodi:linespacing="125%"
     y="383.88"
     x="-1300.37"
     line-height="125%"
     style="font-size:208.33000183px;line-height:125%;font-family:'Gentium Book Basic';letter-spacing:0;word-spacing:0"
     id="text104058">
    <tspan
       y="383.88"
       x="-1300.37"
       id="tspan104060" />
  </text>
  <path
     style="fill-opacity:0.969;opacity:0.25"
     d="M 254.08008 41.001953 C 227.32008 41.001953 224.49108 42.750625 217.83008 63.390625 L 447.93555 293.49609 C 447.93426 293.49634 447.93293 293.49584 447.93164 293.49609 L 217.83008 63.396484 C 211.77023 82.189007 206.95058 86.749753 183.66211 95.779297 L 183.66016 95.777344 C 162.50601 103.97813 156.38927 103.9869 146.04492 95.8125 L 146.03516 95.802734 C 133.48121 85.880571 117.70133 89.155445 102.18359 104.91602 L 102.17773 104.91016 C 84.684738 122.68716 83.458781 128.54631 93.300781 147.32031 C 102.11657 164.1339 101.79518 171.41027 91.210938 194.66992 C 83.191462 212.28446 79.361243 215.89141 63.009766 221.24023 C 44.392766 227.33023 41 233.06722 41 258.44922 C 41 273.78322 42.078922 281.63947 46.919922 286.48047 L 100.25781 339.81836 C 103.9312 350.24872 102.19961 352.76107 95.660156 365.08008 C 84.760156 385.61608 85.689762 390.13078 104.75977 409.30078 L 105.86523 410.40625 C 105.73377 410.27521 105.61724 410.16412 105.48438 410.03125 L 207.45312 512 L 486.01172 512 C 500.40907 512 512 500.40907 512 486.01172 L 512 206.95508 L 404.97656 99.931641 C 389.20001 84.157092 381.72707 83.675423 363.03125 93.560547 L 363.0293 93.558594 C 349.58653 100.66601 343.88452 101.98487 334.17383 98.699219 L 282.38086 46.90625 C 282.39694 46.922334 282.4117 46.940861 282.42773 46.957031 L 282.38086 46.910156 C 277.05583 41.583131 269.20247 41.009975 254.08789 41.009766 L 254.08008 41.001953 z "
     id="path104064" />
  <path
     inkscape:connector-curvature="0"
     d="m 229.45,465.63 c -6.806,-7.512 -10.217,-14.791 -10.217,-21.811 0,-9.21 -8.928,-16.953 -28.946,-25.11 -22.456,-9.145 -25.997,-9.164 -42.13,-0.223 -19.732,10.933 -24.361,9.954 -43.4,-9.187 -19.07,-19.17 -20,-23.684 -9.1,-44.22 8.881,-16.73 8.932,-15.32 -1.444,-40.31 -9.511,-22.908 -13.212,-26.517 -32.2,-31.401 -18.07,-4.648 -21.02,-9.546 -21.02,-34.913 0,-25.382 3.393,-31.12 22.01,-37.21 16.352,-5.349 20.18,-8.956 28.2,-26.572 10.585,-23.261 10.907,-30.536 2.091,-47.35 -9.842,-18.774 -8.616,-24.633 8.877,-42.41 15.519,-15.764 31.3,-19.04 43.855,-9.117 10.354,8.187 16.465,8.183 37.63,-0.022 23.29,-9.03 28.11,-13.591 34.17,-32.384 6.661,-20.64 9.49,-22.388 36.25,-22.388 28.869,0 31.24,2.09 40.14,35.36 1.414,5.287 8.53,9.435 35.23,20.535 12.893,5.361 18.1,4.843 33.579,-3.341 20.688,-10.939 27.637,-9.184 47.29,11.938 13.349,14.345 14.565,27.858 3.826,42.463 -7.12,9.681 -6.697,16.903 2.267,38.646 9.498,23.04 11.938,25.475 31.348,31.29 21.542,6.449 24.14,11.169 23.02,41.755 -0.941,25.62 -3.825,30.724 -18.713,33.12 -20.04,3.222 -25.19,7.674 -34.375,29.721 -9.436,22.658 -9.09,27.908 3.099,46.45 8.294,12.625 4.606,23.304 -14.323,41.45 -16.12,15.455 -26.487,16.516 -44.07,4.506 -11.391,-7.78 -13.326,-7.643 -38.545,2.725 -23.11,9.5 -25.813,12.529 -30.695,34.37 -3.671,16.427 -8.527,19.01 -35.739,19.01 -20.914,0 -23.546,-0.506 -27.958,-5.375 m 55.16,-147.14 c 44.14,-20.991 53.956,-76.74 19.706,-111.91 -35.27,-36.22 -95.8,-22.884 -113.65,25.03 -21.578,57.931 38.32,113.33 93.94,86.88"
     style="fill:#ffffff;fill-opacity:0.969"
     id="path104160" />
</svg>
