<?xml version="1.0" encoding="UTF-8" standalone="no"?>
<svg
   xmlns:dc="http://purl.org/dc/elements/1.1/"
   xmlns:cc="http://creativecommons.org/ns#"
   xmlns:rdf="http://www.w3.org/1999/02/22-rdf-syntax-ns#"
   xmlns:svg="http://www.w3.org/2000/svg"
   xmlns="http://www.w3.org/2000/svg"
   xmlns:xlink="http://www.w3.org/1999/xlink"
   xmlns:sodipodi="http://sodipodi.sourceforge.net/DTD/sodipodi-0.dtd"
   xmlns:inkscape="http://www.inkscape.org/namespaces/inkscape"
   sodipodi:docname="soundkonverter.svg"
   height="100%"
   width="100%"
   inkscape:version="0.91+devel r13804 custom"
   version="1.1"
   id="svg2"
   viewBox="0 0 512 512">
  <sodipodi:namedview
     pagecolor="#ffffff"
     bordercolor="#666666"
     borderopacity="1"
     objecttolerance="10"
     gridtolerance="10"
     guidetolerance="10"
     inkscape:pageopacity="0"
     inkscape:pageshadow="2"
     inkscape:window-width="1366"
     inkscape:window-height="709"
     id="namedview6"
     showgrid="false"
     showguides="true"
     inkscape:guide-bbox="true"
     inkscape:zoom="0.32593203"
     inkscape:cx="195.72795"
     inkscape:cy="370.59576"
     inkscape:window-x="-2"
     inkscape:window-y="-3"
     inkscape:window-maximized="1"
     inkscape:current-layer="svg2">
    <sodipodi:guide
       orientation="0,1"
       position="260.08346,471.00503"
       id="guide2989" />
    <sodipodi:guide
       orientation="0,1"
       position="267.59322,40.983051"
       id="guide2991" />
    <sodipodi:guide
       orientation="1,0"
       position="40.940284,84.756935"
       id="guide2993" />
    <sodipodi:guide
       orientation="1,0"
       position="471.05085,254.98305"
       id="guide2995" />
  </sodipodi:namedview>
  <metadata
     id="metadata10">
    <rdf:RDF>
      <cc:Work
         rdf:about="">
        <dc:format>image/svg+xml</dc:format>
        <dc:type
           rdf:resource="http://purl.org/dc/dcmitype/StillImage" />
        <dc:title></dc:title>
      </cc:Work>
    </rdf:RDF>
  </metadata>
  <defs
     id="defs8">
    <style
       type="text/css"
       id="style2464" />
    <style
       type="text/css"
       id="style2464-7" />
    <style
       type="text/css"
       id="style2464-7-7" />
    <style
       type="text/css"
       id="style2464-4" />
    <linearGradient
       id="0"
       y2="107.7"
       gradientUnits="userSpaceOnUse"
       x2="500.78"
       y1="383.22"
       x1="-17.301"
       gradientTransform="translate(-756.10427,-17.063068)">
      <stop
         stop-color="#cd1d31"
         offset="0"
         id="stop53418" />
      <stop
         stop-color="#e34547"
         offset="1"
         id="stop53420" />
    </linearGradient>
    <linearGradient
       inkscape:collect="always"
       xlink:href="#0"
       id="linearGradient53947"
       x1="-105.48951"
       y1="411.67377"
       x2="536.54498"
       y2="40.994968"
       gradientUnits="userSpaceOnUse" />
  </defs>
  <path
     id="rect2986"
     d="M 26,0 C 11.6026,0 0,11.60265 0,26 l 0,460 c 0,14.39735 11.6026,26 26,26 l 460,0 c 14.3973,0 26,-11.60265 26,-26 L 512,26 C 512,11.60265 500.3973,0 486,0 L 26,0 Z"
     style="fill:url(#linearGradient53947);fill-opacity:1;stroke:none"
     inkscape:connector-curvature="0" />
  <path
     inkscape:connector-curvature="0"
     style="opacity:0.25;fill:#000000"
     d="m 127.66797,72.51563 c -4.26963,0.0905 -7.63907,2.21734 -9.78711,6.26562 -1.8195,3.42601 -1.48419,4.87907 20.05469,85.26563 12.05297,44.97937 21.69386,81.84 21.40429,81.91796 -0.28956,0.0779 -4.61279,-0.56806 -9.61328,-1.47851 -14.42375,-2.62414 -26.98252,-1.53951 -43.3789,3.74219 -17.19408,5.53924 -25.33669,10.10687 -38.3711,21.49023 -17.5783,15.34116 -27.19679,34.30837 -26.97266,53.16602 0.14,11.76156 4.86099,22.12074 12.84961,30.10937 L 212.85938,512 486,512 c 14.3973,0 26,-11.60265 26,-26 l 0,-273.16797 -53.85938,-53.85937 c -10.85806,-10.85808 -27.75105,-17.33203 -47.39453,-16.98243 l 59.08008,59.08008 c -10e-4,0.005 -8.9e-4,0.0105 -0.002,0.0156 L 410.73828,142 c -1.09977,0.0195 -2.23313,0.0682 -3.34961,0.13086 -12.66829,0.71137 -34.49381,7.53427 -45.85351,14.3125 -23.63517,14.10381 -39.3786,34.4642 -42.9336,55.25781 l -82.84765,-82.84765 c -4.45427,-4.45427 -9.71079,-8.48339 -15.59766,-11.91016 -13.24323,-7.70817 -27.41494,-12.57196 -55.42578,-19.09961 L 156.7207,95.98047 135.72461,74.98438 c -1.25174,-1.25174 -2.75941,-1.78966 -4.9707,-2.19922 -1.07333,-0.1983 -2.09602,-0.28035 -3.07813,-0.26172 l -0.008,-0.008 z"
     id="path53610" />
  <path
     style="fill:#ffffff"
     inkscape:connector-curvature="0"
     d="m 127.66745,72.51597 c -4.26963,0.0905 -7.63856,2.21625 -9.7866,6.26453 -1.8195,3.42601 -1.484,4.88078 20.05488,85.26733 12.05297,44.97938 21.6934,81.83993 21.40383,81.91789 -0.28956,0.0779 -4.61348,-0.56938 -9.61397,-1.47983 -14.42375,-2.62414 -26.98207,-1.53968 -43.37845,3.74202 -17.19407,5.53924 -25.33658,10.10818 -38.37099,21.49154 -17.5783,15.34116 -27.19645,34.3074 -26.97232,53.16505 0.34107,28.654 27.87023,48.98869 63.60316,46.98404 12.66829,-0.71137 34.49394,-7.53415 45.85364,-14.31238 25.11383,-14.98617 41.32367,-37.03735 43.46197,-59.16509 0.72529,-7.51466 0.11415,-10.18474 -18.66276,-80.26405 l -19.44651,-72.47374 6.96059,-0.91323 c 30.47072,-3.88402 63.244,7.88357 84.74529,30.40946 l 5.22044,5.48216 0.39119,-4.6984 c 0.62924,-7.44645 -2.95269,-23.80525 -6.82974,-31.06236 -5.37776,-10.06921 -14.5393,-19.17228 -26.1454,-25.92823 -13.24323,-7.70817 -27.41362,-12.57084 -55.42446,-19.09849 l -21.88272,-5.08959 -2.17589,-6.78658 c -3.36336,-10.49519 -4.6274,-12.20193 -9.91885,-13.18198 -1.0775,-0.19908 -2.10349,-0.28121 -3.08911,-0.26172 m 283.0736,69.47512 c -1.09977,0.0195 -2.23296,0.0682 -3.34944,0.13086 -12.66829,0.71137 -34.49394,7.53415 -45.85364,14.31238 -25.11383,14.98617 -41.32367,37.03734 -43.46197,59.16508 -0.72529,7.51467 -0.11415,10.18475 18.66276,80.26405 l 19.44651,72.47375 -6.96059,0.91323 c -30.47072,3.88401 -63.244,-7.88357 -84.74529,-30.40946 l -5.22044,-5.48217 -0.39119,4.69841 c -0.62924,7.44644 2.95269,23.80524 6.82974,31.06236 5.37776,10.0692 14.5393,19.17227 26.1454,25.92823 13.24323,7.70816 27.41362,12.57084 55.42446,19.09849 l 21.88272,5.08959 2.17589,6.78658 c 3.36336,10.49519 4.6274,12.20193 9.91885,13.18198 5.74806,1.06497 10.23069,-1.02042 12.87711,-6.00421 1.8195,-3.42601 1.484,-4.88077 -20.05488,-85.26733 -12.05297,-44.97938 -21.6934,-81.83993 -21.40384,-81.91788 0.28956,-0.078 4.61349,0.56937 9.61398,1.47982 14.42375,2.62414 26.98206,1.53968 43.37845,-3.74202 17.19407,-5.53924 25.33657,-10.10818 38.37099,-21.49154 17.57829,-15.34116 27.19645,-34.3074 26.97232,-53.16505 -0.32993,-27.75747 -26.14679,-47.72186 -60.25094,-47.1149"
     id="path53484" />
</svg>
