<?xml version="1.0" encoding="UTF-8" standalone="no"?>
<svg
   xmlns:dc="http://purl.org/dc/elements/1.1/"
   xmlns:cc="http://creativecommons.org/ns#"
   xmlns:rdf="http://www.w3.org/1999/02/22-rdf-syntax-ns#"
   xmlns:svg="http://www.w3.org/2000/svg"
   xmlns="http://www.w3.org/2000/svg"
   xmlns:xlink="http://www.w3.org/1999/xlink"
   xmlns:sodipodi="http://sodipodi.sourceforge.net/DTD/sodipodi-0.dtd"
   xmlns:inkscape="http://www.inkscape.org/namespaces/inkscape"
   id="svg2"
   height="100%"
   viewBox="0 0 512 512"
   width="100%"
   version="1.1"
   inkscape:version="0.91 r13725"
   sodipodi:docname="soundcloud.svg">
  <sodipodi:namedview
     pagecolor="#ffffff"
     bordercolor="#666666"
     borderopacity="1"
     objecttolerance="10"
     gridtolerance="10"
     guidetolerance="10"
     inkscape:pageopacity="0"
     inkscape:pageshadow="2"
     inkscape:window-width="640"
     inkscape:window-height="480"
     id="namedview385"
     showgrid="false"
     inkscape:zoom="0.5546875"
     inkscape:cx="36.056338"
     inkscape:cy="240.67606"
     inkscape:current-layer="svg2" />
  <metadata
     id="metadata10">
    <rdf:RDF>
      <cc:Work
         rdf:about="">
        <dc:format>image/svg+xml</dc:format>
        <dc:type
           rdf:resource="http://purl.org/dc/dcmitype/StillImage" />
        <dc:title />
      </cc:Work>
    </rdf:RDF>
  </metadata>
  <defs
     id="defs8">
    <linearGradient
       id="linearGradient3381"
       y2="7.0165"
       xlink:href="#ButtonShadow"
       gradientUnits="userSpaceOnUse"
       x2="45.448"
       gradientTransform="scale(1.0059 .99417)"
       y1="92.54"
       x1="45.448" />
    <linearGradient
       id="ButtonShadow"
       y2="7.0165"
       gradientUnits="userSpaceOnUse"
       x2="45.448"
       gradientTransform="scale(1.0059 .99417)"
       y1="92.54"
       x1="45.448">
      <stop
         id="stop3750"
         offset="0" />
      <stop
         id="stop3752"
         stop-opacity=".58824"
         offset="1" />
    </linearGradient>
    <filter
       id="filter3174"
       color-interpolation-filters="sRGB">
      <feGaussianBlur
         id="feGaussianBlur3176"
         stdDeviation="1.71" />
    </filter>
    <filter
       id="filter3174-3"
       color-interpolation-filters="sRGB">
      <feGaussianBlur
         id="feGaussianBlur3176-9"
         stdDeviation="1.71" />
    </filter>
    <filter
       id="filter3174-4"
       color-interpolation-filters="sRGB">
      <feGaussianBlur
         id="feGaussianBlur3176-96"
         stdDeviation="1.71" />
    </filter>
    <filter
       id="filter3174-43"
       color-interpolation-filters="sRGB">
      <feGaussianBlur
         id="feGaussianBlur3176-0"
         stdDeviation="1.71" />
    </filter>
    <filter
       id="filter3174-9"
       color-interpolation-filters="sRGB">
      <feGaussianBlur
         id="feGaussianBlur3176-2"
         stdDeviation="1.71" />
    </filter>
    <filter
       id="filter3174-6"
       color-interpolation-filters="sRGB">
      <feGaussianBlur
         id="feGaussianBlur3176-4"
         stdDeviation="1.71" />
    </filter>
    <linearGradient
       id="linearGradient4216-1">
      <stop
         id="stop4218-0"
         stop-color="#fff"
         offset="0" />
      <stop
         id="stop4220-2"
         stop-color="#e8e8e8"
         offset=".6875" />
      <stop
         id="stop4222-6"
         stop-color="#686868"
         offset=".875" />
      <stop
         id="stop4224-6"
         offset="1" />
    </linearGradient>
    <radialGradient
       id="radialGradient21305"
       gradientUnits="userSpaceOnUse"
       xlink:href="#linearGradient4216-1"
       cx="64"
       cy="64"
       r="64"
       gradientTransform="matrix(4.1658 0 0 3.8875 75.059 -104.92)" />
    <filter
       id="filter3174-1"
       color-interpolation-filters="sRGB">
      <feGaussianBlur
         id="feGaussianBlur3176-5"
         stdDeviation="1.71" />
    </filter>
    <filter
       id="filter3174-3-9"
       color-interpolation-filters="sRGB">
      <feGaussianBlur
         id="feGaussianBlur3176-9-2"
         stdDeviation="1.71" />
    </filter>
    <filter
       id="filter3174-4-3"
       color-interpolation-filters="sRGB">
      <feGaussianBlur
         id="feGaussianBlur3176-96-4"
         stdDeviation="1.71" />
    </filter>
    <filter
       id="filter3174-43-1"
       color-interpolation-filters="sRGB">
      <feGaussianBlur
         id="feGaussianBlur3176-0-9"
         stdDeviation="1.71" />
    </filter>
    <filter
       id="filter3174-9-8"
       color-interpolation-filters="sRGB">
      <feGaussianBlur
         id="feGaussianBlur3176-2-9"
         stdDeviation="1.71" />
    </filter>
    <filter
       id="filter3174-6-3"
       color-interpolation-filters="sRGB">
      <feGaussianBlur
         id="feGaussianBlur3176-4-8"
         stdDeviation="1.71" />
    </filter>
    <radialGradient
       id="radialGradient21305-1"
       xlink:href="#linearGradient4216-1"
       gradientUnits="userSpaceOnUse"
       cy="64"
       cx="64"
       gradientTransform="matrix(4.1658 0 0 3.8875 73.792 -87.213)"
       r="64" />
  </defs>
  <rect
     id="rect3745"
     opacity=".9"
     transform="matrix(4.5768 0 0 4.5768 -384.47 2.4978)"
     rx="6"
     ry="6"
     height="85"
     filter="url(#filter3174)"
     width="86"
     display="none"
     y="7"
     x="5"
     fill="url(#linearGradient3381)" />
  <rect
     id="rect3745-8"
     opacity=".9"
     transform="matrix(4.5768 0 0 4.5768 -384.47 2.4978)"
     rx="6"
     ry="6"
     height="85"
     filter="url(#filter3174-3)"
     width="86"
     display="none"
     y="7"
     x="5"
     fill="url(#linearGradient3381)" />
  <rect
     id="rect3745-4"
     opacity=".9"
     transform="matrix(4.5768 0 0 4.5768 -384.47 2.4978)"
     rx="6"
     ry="6"
     height="85"
     filter="url(#filter3174-4)"
     width="86"
     display="none"
     y="7"
     x="5"
     fill="url(#linearGradient3381)" />
  <rect
     id="rect3745-3"
     opacity=".9"
     transform="matrix(4.5768 0 0 4.5768 -384.47 2.4978)"
     rx="6"
     ry="6"
     height="85"
     filter="url(#filter3174-43)"
     width="86"
     display="none"
     y="7"
     x="5"
     fill="url(#linearGradient3381)" />
  <rect
     id="rect3745-5"
     opacity=".9"
     transform="matrix(4.5768 0 0 4.5768 -384.47 2.4978)"
     rx="6"
     ry="6"
     height="85"
     filter="url(#filter3174-9)"
     width="86"
     display="none"
     y="7"
     x="5"
     fill="url(#linearGradient3381)" />
  <rect
     id="rect3745-7"
     opacity=".9"
     transform="matrix(4.5768 0 0 4.5768 -384.47 2.4978)"
     rx="6"
     ry="6"
     height="85"
     filter="url(#filter3174-6)"
     width="86"
     display="none"
     y="7"
     x="5"
     fill="url(#linearGradient3381)" />
  <path
     id="path4230"
     d="m392.7 165.47c-2.1202 7.3447-36.402 181.33-29.267 189.98 6.1765 7.4828 15.826 4.2405 17.946-3.1042-2.1202 7.3447-6.3607 22.034-8.4809 29.379-17.946 3.1042-33.92-0.81668-37.444-17.946-4.0713-19.793 27.134-182.59 29.267-189.98-4.7411-8.958-29.531-15.826-33.772-1.1362l-7.9128-2.1202c18.514-34.603 53.838-9.3127 69.663-5.0722z"
     display="none" />
  <path
     id="path4232"
     d="m370.51 183.26c-26.427 32.483-124.22 164.54-147.96 158.17l-15.826-4.2405 12.153-12.569 7.9128 2.1202c15.826 4.2405 123.65-133.04 140.05-160.3 12.573-20.906 3.6724 16.81 3.6724 16.81z"
     display="none" />
  <path
     id="path4234"
     d="m307.63 253.45 47.477 12.721-4.2405 14.689-55.39-14.842z"
     display="none" />
  <ellipse
     id="path3281-0-0"
     rx="266.61"
     transform="matrix(.96593 .25882 -.27735 .96077 0 0)"
     ry="248.8"
     cy="143.88"
     cx="341.67"
     display="none"
     fill="url(#radialGradient21305)" />
  <rect
     id="rect3745-39"
     opacity=".9"
     rx="6"
     ry="6"
     transform="matrix(4.5768 0 0 4.5768 -390.6 19.184)"
     filter="url(#filter3174-1)"
     width="86"
     display="none"
     y="7"
     x="5"
     height="85"
     fill="url(#linearGradient3381)" />
  <rect
     id="rect3745-8-6"
     opacity=".9"
     rx="6"
     ry="6"
     transform="matrix(4.5768 0 0 4.5768 -390.6 19.184)"
     filter="url(#filter3174-3-9)"
     width="86"
     display="none"
     y="7"
     x="5"
     height="85"
     fill="url(#linearGradient3381)" />
  <rect
     id="rect3745-4-3"
     opacity=".9"
     rx="6"
     ry="6"
     transform="matrix(4.5768 0 0 4.5768 -390.6 19.184)"
     filter="url(#filter3174-4-3)"
     width="86"
     display="none"
     y="7"
     x="5"
     height="85"
     fill="url(#linearGradient3381)" />
  <rect
     id="rect3745-3-7"
     opacity=".9"
     rx="6"
     ry="6"
     transform="matrix(4.5768 0 0 4.5768 -390.6 19.184)"
     filter="url(#filter3174-43-1)"
     width="86"
     display="none"
     y="7"
     x="5"
     height="85"
     fill="url(#linearGradient3381)" />
  <rect
     id="rect3745-5-0"
     opacity=".9"
     rx="6"
     ry="6"
     transform="matrix(4.5768 0 0 4.5768 -390.6 19.184)"
     filter="url(#filter3174-9-8)"
     width="86"
     display="none"
     y="7"
     x="5"
     height="85"
     fill="url(#linearGradient3381)" />
  <rect
     id="rect3745-7-1"
     opacity=".9"
     rx="6"
     ry="6"
     transform="matrix(4.5768 0 0 4.5768 -390.6 19.184)"
     filter="url(#filter3174-6-3)"
     width="86"
     display="none"
     y="7"
     x="5"
     height="85"
     fill="url(#linearGradient3381)" />
  <path
     id="path4230-6"
     d="m386.56 182.15c-2.1202 7.3447-36.402 181.33-29.267 189.98 6.1765 7.4828 15.826 4.2405 17.946-3.1042-2.1202 7.3447-6.3607 22.034-8.4809 29.379-17.946 3.1042-33.92-0.81668-37.444-17.946-4.0713-19.793 27.134-182.59 29.267-189.98-4.7411-8.958-29.531-15.826-33.772-1.1362l-7.9128-2.1202c18.514-34.603 53.838-9.3127 69.663-5.0722z"
     display="none" />
  <path
     id="path4232-4"
     d="m364.38 199.95c-26.427 32.483-124.22 164.54-147.96 158.17l-15.826-4.2405 12.153-12.569 7.9128 2.1202c15.826 4.2405 123.65-133.04 140.05-160.3 12.573-20.906 3.6724 16.81 3.6724 16.81z"
     display="none" />
  <path
     id="path4234-9"
     d="m301.49 270.14 47.477 12.721-4.2405 14.689-55.39-14.842z"
     display="none" />
  <ellipse
     id="path3281-0-0-2"
     rx="266.61"
     transform="matrix(.96593 .25882 -.27735 .96077 0 0)"
     ry="248.8"
     cy="161.59"
     cx="340.4"
     display="none"
     fill="url(#radialGradient21305-1)" />
  <g
     id="g3734"
     transform="translate(362.3662,-313.69014)">
    <path
       d="m -336.3662,313.69014 c -14.397,0 -26,11.603 -26,26 l 0,460 c 0,14.397 11.603,26 26,26 l 460,0 c 14.397,0 26,-11.603 26,-26 l 0,-460 c 0,-14.397 -11.6,-26 -26,-26 l -460,0 z"
       id="rect2986"
       style="fill:#f38725"
       inkscape:connector-curvature="0" />
    <path
       d="m -103.6062,450.63014 c -9.2,0 -18.17,1.02 -26.91,3.1 -4.15,1.61 -6.21,5.77 -6.21,12.44 l 0,17.78 -21.65,-21.64 c -1.51,-1.52 -3.39,-2.54 -5.62,-3.06 -1.1,-0.29 -2.19,-0.43 -3.27,-0.42 -3.26,0.02 -6.47,1.37 -9.66,4.05 -4.26,3.56 -6.39,8.68 -6.39,15.35 l 0,86.12 -20.65,-20.65 c -0.08,-0.08 -0.15,-0.16 -0.23,-0.23 -2.88,-2.76 -6.28,-4.16 -10.19,-4.16 -4.14,0 -7.7,1.4 -10.69,4.16 -1.27,1.17 -2.26,2.47 -2.99,3.89 l -21.85,-21.86 c -3,-2.99 -6.56,-4.48 -10.7,-4.48 -3.911,0 -7.312,1.49 -10.188,4.48 -2.875,2.99 -4.308,6.58 -4.308,10.72 l 0,62.27 -20.934,-20.93 c -2.721,-2.72 -6.088,-4.08 -10.117,-4.08 -4.141,0 -7.726,1.43 -10.717,4.31 -2.991,2.88 -4.486,6.4 -4.486,10.54 l 0,57.97 c 0,4.26 1.28,7.68 3.828,10.22 l 169.16,169.17 272.01,0 c 14.4,0 26,-11.6 26,-26 l 0,-165.19 -60.849997,-60.84 c -11.16,-11.17 -24.34,-17.61 -39.52,-19.35 l -68.36,-68.36 c -1.33,-1.32 -2.69,-2.63 -4.09,-3.91 -22.78,-20.94 -49.59,-31.41 -80.420003,-31.41 z"
       id="path7289"
       style="opacity:0.25"
       inkscape:connector-curvature="0" />
    <path
       d="m -103.6062,450.63014 c -9.2026,0 -18.174,1.0233 -26.916,3.0938 -4.1412,1.6104 -6.2098,5.7698 -6.2098,12.442 l 0,216.7 c -0.46013,2.7608 0.81017,4.728 3.801,5.8783 l 173.590003,0 c 18.865,0 34.841,-6.4926 47.955,-19.491 13.113997,-12.999 19.791997,-28.935 20.021997,-47.8 0,-18.635 -6.6161,-34.571 -19.844997,-47.8 -13.2289,-13.229 -29.266,-19.845 -48.131,-19.845 -8.5124,0 -17.157,1.8437 -25.9,5.5247 -2.5307,-30.599 -15.16700018,-56.366 -37.944,-77.302 -22.776,-20.936 -49.589,-31.402 -80.418003,-31.402 z m -63.667,8.1987 c -3.2568,0.0216 -6.4651,1.3696 -9.6572,4.0441 -4.2562,3.566 -6.3866,8.6869 -6.3866,15.359 l 0,199.82 c 0,7.132 4.8342,10.696 14.497,10.696 10.123,0 15.182,-3.5639 15.182,-10.696 l 0,-199.82 c 0,-11.043 -3.4625,-17.372 -10.364,-18.983 -1.0928,-0.28758 -2.185,-0.42707 -3.2706,-0.41988 z m -93.346,62.186 c -3.9111,0 -7.3118,1.4952 -10.188,4.4861 -2.8758,2.9908 -4.3093,6.5768 -4.3093,10.718 l 0,134.91 c 0,3.681 1.3717,6.5701 4.1325,8.6406 2.7608,2.0706 6.2232,3.0938 10.364,3.0938 4.3712,0 7.9968,-1.0233 10.873,-3.0938 2.8758,-2.0706 4.3093,-4.9596 4.3093,-8.6406 l 0,-134.91 c 0,-4.1412 -1.4952,-7.7271 -4.4861,-10.718 -2.9908,-2.9908 -6.5547,-4.4861 -10.696,-4.4861 z m 46.231,18.298 c -4.1412,0 -7.705,1.3938 -10.696,4.1546 -2.9908,2.7608 -4.4861,6.2011 -4.4861,10.342 l 0,123.55 c 0,7.5921 5.0591,11.381 15.182,11.381 9.6627,0 14.497,-3.7888 14.497,-11.381 l 0,-123.55 c 0,-4.1412 -1.4335,-7.5815 -4.3093,-10.342 -2.8758,-2.7608 -6.2765,-4.1546 -10.188,-4.1546 z m -91.777,34.165 c -4.1412,0 -7.7271,1.4335 -10.718,4.3093 -2.98,2.87 -4.475,6.39 -4.475,10.53 l 0,57.965 c 0,5.2915 1.9672,9.2656 5.8783,11.911 3.9111,2.6457 8.1719,3.6294 12.773,2.9392 4.1412,-0.92026 7.0081,-2.3758 8.6186,-4.3314 1.6105,-1.9556 2.4088,-5.4577 2.4088,-10.519 l 0,-57.965 c 0,-4.1412 -1.3717,-7.6654 -4.1325,-10.541 -2.7608,-2.8758 -6.2011,-4.3093 -10.342,-4.3093 z"
       id="path7163"
       style="fill:#ffffff"
       inkscape:connector-curvature="0" />
  </g>
</svg>
