<?xml version="1.0" encoding="UTF-8" standalone="no"?>
<svg
   xmlns:dc="http://purl.org/dc/elements/1.1/"
   xmlns:cc="http://creativecommons.org/ns#"
   xmlns:rdf="http://www.w3.org/1999/02/22-rdf-syntax-ns#"
   xmlns:svg="http://www.w3.org/2000/svg"
   xmlns="http://www.w3.org/2000/svg"
   xmlns:sodipodi="http://sodipodi.sourceforge.net/DTD/sodipodi-0.dtd"
   xmlns:inkscape="http://www.inkscape.org/namespaces/inkscape"
   viewBox="0 0 512 512"
   id="svg2"
   version="1.1"
   inkscape:version="0.91+devel r13804 custom"
   sodipodi:docname="soundkonverter.svg">
  <metadata
     id="metadata472">
    <rdf:RDF>
      <cc:Work
         rdf:about="">
        <dc:format>image/svg+xml</dc:format>
        <dc:type
           rdf:resource="http://purl.org/dc/dcmitype/StillImage" />
        <dc:title />
      </cc:Work>
    </rdf:RDF>
  </metadata>
  <sodipodi:namedview
     pagecolor="#ffffff"
     bordercolor="#666666"
     borderopacity="1"
     objecttolerance="10"
     gridtolerance="10"
     guidetolerance="10"
     inkscape:pageopacity="0"
     inkscape:pageshadow="2"
     inkscape:window-width="1366"
     inkscape:window-height="709"
     id="namedview470"
     showgrid="false"
     inkscape:zoom="0.4609375"
     inkscape:cx="65.084746"
     inkscape:cy="167.05085"
     inkscape:window-x="-2"
     inkscape:window-y="-3"
     inkscape:window-maximized="1"
     inkscape:current-layer="svg2" />
  <defs
     id="defs4" />
  <path
     inkscape:connector-curvature="0"
     d="M 26,0 C 11.603,0 0,11.603 0,26 l 0,460 c 0,14.397 11.603,26 26,26 l 460,0 c 14.397,0 26,-11.603 26,-26 L 512,26 C 512,11.603 500.397,0 486,0 L 26,0"
     style="fill:#4071bc"
     id="path117064" />
  <path
     inkscape:connector-curvature="0"
     style="color:#000000;opacity:0.25"
     d="m 286.41016,41 0,143.39062 -33.67969,-33.67968 c -13.93,0.018 -27.80786,1.75167 -41.38086,5.38867 l 41.38086,41.38086 0,0.01 -41.39063,-41.39062 c -85.43,22.891 -136.25913,110.71062 -113.36913,196.14062 L 68.33008,360.32031 220.00977,512 486,512 c 14.397,0 26,-11.603 26,-26 L 512,266.58984 286.41016,41 Z"
     id="path119928" />
  <path
     inkscape:connector-curvature="0"
     d="m 286.41,41 0,239.83 c -16.649,-7.908 -39.56,-7.994 -60.63,1.54 -31.623,14.308 -46.966,44.801 -34.454,67.945 12.512,23.14 48.26,30.28 79.879,15.976 25.299,-11.447 40.12,-33.24 38.688,-53.32 0.043,0.132 0.153,0.253 0.192,0.385 l 0,-203.45 c 22.24,15.861 74.68,76.01 53.702,147.82 12.392,-36.36 13.465,-74.02 8.277,-94.89 -6.677,-26.865 -29.23,-54.55 -52.55,-79.49 -24.496,-26.2 -33.11,-42.35 -33.11,-42.35 m -33.684,109.71 c -13.93,0.018 -27.807,1.752 -41.38,5.389 -85.43,22.891 -136.26,110.71 -113.37,196.14 l -29.642,8.08 69.49,45.04 37.534,-73.72 -29.642,7.892 c -15.848,-59.14 19.19,-119.85 78.34,-135.7 9.399,-2.518 19.03,-3.842 28.679,-3.85 l 0,-49.27 m 135.51,98.55 -55.43,61.59 30.797,0 c 0,61.23 -49.638,110.87 -110.87,110.87 -19.461,0 -38.58,-5.09 -55.43,-14.821 l -24.637,42.731 c 24.345,14.06 51.961,21.365 80.07,21.365 88.44,0 160.14,-71.7 160.14,-160.14 l 30.797,0 -55.43,-61.59"
     style="color:#000000;fill:#ffffff"
     id="path119990" />
</svg>
