<?xml version="1.0" encoding="UTF-8" standalone="no"?>
<svg
   xmlns:dc="http://purl.org/dc/elements/1.1/"
   xmlns:cc="http://creativecommons.org/ns#"
   xmlns:rdf="http://www.w3.org/1999/02/22-rdf-syntax-ns#"
   xmlns:svg="http://www.w3.org/2000/svg"
   xmlns="http://www.w3.org/2000/svg"
   xmlns:sodipodi="http://sodipodi.sourceforge.net/DTD/sodipodi-0.dtd"
   xmlns:inkscape="http://www.inkscape.org/namespaces/inkscape"
   viewBox="0 0 512 512"
   id="svg2"
   version="1.1"
   inkscape:version="0.91+devel r13804 custom"
   sodipodi:docname="spotify.svg">
  <metadata
     id="metadata472">
    <rdf:RDF>
      <cc:Work
         rdf:about="">
        <dc:format>image/svg+xml</dc:format>
        <dc:type
           rdf:resource="http://purl.org/dc/dcmitype/StillImage" />
        <dc:title></dc:title>
      </cc:Work>
    </rdf:RDF>
  </metadata>
  <sodipodi:namedview
     pagecolor="#ffffff"
     bordercolor="#666666"
     borderopacity="1"
     objecttolerance="10"
     gridtolerance="10"
     guidetolerance="10"
     inkscape:pageopacity="0"
     inkscape:pageshadow="2"
     inkscape:window-width="1366"
     inkscape:window-height="709"
     id="namedview470"
     showgrid="false"
     inkscape:zoom="0.4609375"
     inkscape:cx="-8.6779661"
     inkscape:cy="237.55932"
     inkscape:window-x="-2"
     inkscape:window-y="-3"
     inkscape:window-maximized="1"
     inkscape:current-layer="svg2" />
  <defs
     id="defs4" />
  <path
     inkscape:connector-curvature="0"
     d="M 26,0 C 11.603,0 0,11.603 0,26 l 0,460 c 0,14.397 11.603,26 26,26 l 460,0 c 14.397,0 26,-11.603 26,-26 L 512,26 C 512,11.603 500.397,0 486,0 L 26,0"
     style="fill:#68af4c"
     id="path135637" />
  <text
     sodipodi:linespacing="125%"
     y="-295.01001"
     x="-314.87"
     line-height="125%"
     style="font-size:129.22999573px;line-height:125%;font-family:'Gentium Book Basic';letter-spacing:0;word-spacing:0"
     id="text135639">
    <tspan
       y="-295.01001"
       x="-314.87"
       id="tspan135641" />
  </text>
  <text
     transform="scale(4.0128205,0.24920128)"
     y="-1532.9722"
     x="118.61939"
     style="font-size:46.95399857px;font-family:Arial;text-anchor:middle"
     id="text135643" />
  <text
     sodipodi:linespacing="125%"
     y="-375.01001"
     x="266.39999"
     line-height="125%"
     style="font-size:129.22999573px;line-height:125%;font-family:'Gentium Book Basic';letter-spacing:0;word-spacing:0"
     id="text135645">
    <tspan
       y="-375.01001"
       x="266.39999"
       id="tspan135647" />
  </text>
  <text
     transform="scale(4.0128205,0.24920128)"
     y="-1854.0105"
     x="263.45865"
     style="font-size:46.95399857px;font-family:Arial;text-anchor:middle"
     id="text135649" />
  <text
     sodipodi:linespacing="125%"
     y="-556.27002"
     x="-805.17999"
     line-height="125%"
     style="font-size:129.22999573px;line-height:125%;font-family:'Gentium Book Basic';letter-spacing:0;word-spacing:0"
     id="text135651">
    <tspan
       y="-556.27002"
       x="-805.17999"
       id="tspan135653" />
  </text>
  <text
     transform="scale(4.0128205,0.24920128)"
     y="-2581.3469"
     x="-3.5739815"
     style="font-size:46.95399857px;font-family:Arial;text-anchor:middle"
     id="text135655" />
  <text
     sodipodi:linespacing="125%"
     y="-772.73999"
     x="292.87"
     line-height="125%"
     style="font-size:129.22999573px;line-height:125%;font-family:'Gentium Book Basic';letter-spacing:0;word-spacing:0"
     id="text135657">
    <tspan
       y="-772.73999"
       x="292.87"
       id="tspan135659" />
  </text>
  <text
     transform="scale(4.0128205,0.24920128)"
     y="-3450.0225"
     x="270.05862"
     style="font-size:46.95399857px;font-family:Arial;text-anchor:middle"
     id="text135661" />
  <text
     sodipodi:linespacing="125%"
     y="-852.73999"
     x="874.14001"
     line-height="125%"
     style="font-size:129.22999573px;line-height:125%;font-family:'Gentium Book Basic';letter-spacing:0;word-spacing:0"
     id="text135663">
    <tspan
       y="-852.73999"
       x="874.14001"
       id="tspan135665" />
  </text>
  <text
     transform="scale(4.0128205,0.24920128)"
     y="-3771.0508"
     x="414.90787"
     style="font-size:46.95399857px;font-family:Arial;text-anchor:middle"
     id="text135667" />
  <text
     sodipodi:linespacing="125%"
     y="-1325.14"
     x="485.01999"
     line-height="125%"
     style="font-size:129.22999573px;line-height:125%;font-family:'Gentium Book Basic';letter-spacing:0;word-spacing:0"
     id="text135669">
    <tspan
       y="-1325.14"
       x="485.01999"
       id="tspan135671" />
  </text>
  <text
     transform="scale(4.0128205,0.24920128)"
     y="-5666.6914"
     x="317.93839"
     style="font-size:46.95399857px;font-family:Arial;text-anchor:middle"
     id="text135673" />
  <text
     sodipodi:linespacing="125%"
     y="-1405.15"
     x="1066.28"
     line-height="125%"
     style="font-size:129.22999573px;line-height:125%;font-family:'Gentium Book Basic';letter-spacing:0;word-spacing:0"
     id="text135675">
    <tspan
       y="-1405.15"
       x="1066.28"
       id="tspan135677" />
  </text>
  <text
     transform="scale(4.0128205,0.24920128)"
     y="-5987.7192"
     x="462.78763"
     style="font-size:46.95399857px;font-family:Arial;text-anchor:middle"
     id="text135679" />
  <text
     sodipodi:linespacing="125%"
     y="9.5679998"
     x="-766.52002"
     line-height="125%"
     style="font-size:208.33000183px;line-height:125%;font-family:'Gentium Book Basic';letter-spacing:0;word-spacing:0"
     id="text135681">
    <tspan
       y="9.5679998"
       x="-766.52002"
       id="tspan135683" />
  </text>
  <path
     style="color:#000000;opacity:0.25"
     d="M 257.5293 130.62109 L 308.06055 181.15234 C 308.05726 181.15198 308.05407 181.15075 308.05078 181.15039 L 257.5293 130.63086 C 191.6383 130.67586 125.3207 143.19506 56.970703 167.78906 L 94.966797 205.78516 C 87.781359 208.10918 80.55482 210.57206 73.279297 213.18945 L 115.35742 255.26758 C 104.28899 258.88684 93.175661 262.89173 82 267.2793 L 106.94531 292.22461 C 102.56422 293.83465 98.170734 295.48539 93.75 297.2207 L 135.49219 338.96094 C 125.62192 342.62209 116.05183 346.64763 106.84961 350.99609 L 131.17383 375.32031 C 127.59719 376.85416 124.05521 378.42329 120.58984 380.06055 L 252.5293 512 L 486 512 C 500.397 512 512 500.397 512 486 L 512 224.86914 L 455.4707 168.33984 C 388.8907 143.01084 323.4193 130.57609 257.5293 130.62109 z "
     id="path135687" />
  <path
     inkscape:connector-curvature="0"
     d="m 257.53,130.63 c -65.891,0.045 -132.21,12.566 -200.56,37.16 a 24.12579,24.12579 0 1 0 16.3125,45.40625 c 128.06,-46.07 241.46,-46.762 365.03,0.25 a 24.12579,24.12579 0 1 0 17.15625,-45.09375 c -66.58,-25.329 -132.05,-37.764 -197.94,-37.719 m -2.938,100.66 c -57.54,0.467 -114.21,13.08 -172.59,36 a 16.08326,16.08326 0 1 0 11.75,29.9375 c 111.25,-43.67 209.31,-47.941 326.28,0.656 a 16.08326,16.08326 0 1 0 12.34375,-29.6875 c -61.828,-25.688 -120.24,-37.37 -177.78,-36.906 m 4.03,84.81 c -54.813,0.405 -107.49,13.977 -151.78,34.906 a 16.08326,16.08326 0 1 0 13.75,29.0625 c 76.26,-36.03 180.4,-47.809 271.19,-0.625 a 16.08326,16.08326 0 1 0 14.84375,-28.53125 c -44.44,-23.09 -91.31,-33.576 -137,-34.719 -3.671,-0.092 -7.346,-0.121 -11,-0.094"
     style="color:#000000;fill:#ffffff"
     id="path135707" />
</svg>
