<?xml version="1.0" encoding="UTF-8" standalone="no"?>
<svg
   xmlns:dc="http://purl.org/dc/elements/1.1/"
   xmlns:cc="http://creativecommons.org/ns#"
   xmlns:rdf="http://www.w3.org/1999/02/22-rdf-syntax-ns#"
   xmlns:svg="http://www.w3.org/2000/svg"
   xmlns="http://www.w3.org/2000/svg"
   xmlns:sodipodi="http://sodipodi.sourceforge.net/DTD/sodipodi-0.dtd"
   xmlns:inkscape="http://www.inkscape.org/namespaces/inkscape"
   viewBox="0 0 512 512"
   id="svg2"
   version="1.1"
   inkscape:version="0.91+devel r13804 custom"
   sodipodi:docname="spyder.svg">
  <metadata
     id="metadata472">
    <rdf:RDF>
      <cc:Work
         rdf:about="">
        <dc:format>image/svg+xml</dc:format>
        <dc:type
           rdf:resource="http://purl.org/dc/dcmitype/StillImage" />
        <dc:title></dc:title>
      </cc:Work>
    </rdf:RDF>
  </metadata>
  <sodipodi:namedview
     pagecolor="#ffffff"
     bordercolor="#666666"
     borderopacity="1"
     objecttolerance="10"
     gridtolerance="10"
     guidetolerance="10"
     inkscape:pageopacity="0"
     inkscape:pageshadow="2"
     inkscape:window-width="1366"
     inkscape:window-height="709"
     id="namedview470"
     showgrid="false"
     inkscape:zoom="0.4609375"
     inkscape:cx="-8.6779661"
     inkscape:cy="237.55932"
     inkscape:window-x="-2"
     inkscape:window-y="-3"
     inkscape:window-maximized="1"
     inkscape:current-layer="svg2" />
  <defs
     id="defs4" />
  <path
     inkscape:connector-curvature="0"
     d="m 25.9995,-0.0055 c -14.397,0 -26,11.603 -26,26 l 0,460 c 0,14.397 11.603,26 26,26 l 459.99999,0 c 14.397,0 26.00002,-11.603 26.00002,-26 l 0,-460 c 0,-14.397 -11.60302,-26 -26.00001,-26 l -460,0"
     style="fill:#bf3536"
     id="path135948" />
  <path
     inkscape:connector-curvature="0"
     d="m 131.71949,-0.0055 c 2.539,17.1 5.949,39.572 8.06,53.31 -0.437,0.628 -0.885,1.212 -1.219,1.906 L 26.0005,195.9005 c -10.468,0.149 -18.955,0.037 -26,-0.188 l 0,27.438 c 5.03,0.166 10.556,0.295 17,0.313 l 38.75,174.72 c -34.512,28.829 -55.41,40.06 -55.41,40.06 l -0.344,2 0,37.38 c 9.533,-7.542 38.475,-30.433 66.38,-53.09 0.308,0.201 0.615,0.385 0.938,0.563 l 172.34,84.69 c -0.079,0.849 -0.141,1.391 -0.219,2.219 l 27.5,0 c 0.038,-0.401 0.056,-0.657 0.094,-1.063 l 175.38,-83.75 c 0.62099,-0.273 1.236,-0.612 1.81299,-0.969 15.313,15.858 51.67701,51.562 66.90602,66.47 0.56499,-2.136 0.875,-4.369 0.875,-6.688 l 0,-28.344 c -11.12,-11.453 -38.929,-40.2 -57.19,-60.12 l 40,-172.62 c 11.143,-4.668 9.965,-4.169 17.188,-7.188 l 0,-29.875 c -7.07,2.955 -8.205,3.418 -26.09,10.906 L 375.8215,58.2645 c 15.877,-25.27 34.11,-49.36 40.969,-58.25 l -36.12,0 c -4.329,6.482 -13.146,19.84 -26.469,41 -0.063,0.001 -0.125,-10e-4 -0.188,0 l -187.59,5.125 c -2.02,-13.09 -4.978,-30.724 -7.281,-46.12 l -27.406,0 m 204.19001,70.56 c -13.775,22.467 -30.388,50.15 -49.44,83 -0.861,0.089 -1.731,0.229 -2.563,0.469 l -94.47,27.375 c -3.219,-16.307 -9.447,-50.25 -18.375,-106.31 l 164.84,-4.531 m 23.594,14.13 98.52999,125.72 c -27.14999,11.395 -60.964,25.545 -105.90999,44.531 l -44.25,-83.56 c 20.07,-34.647 37.39,-63.49 51.625,-86.69 m -213.53,7.844 c 8.822,54.941 13.989,81.61 16.281,92.66 -39.524,4.947 -71.7,7.689 -97.69001,9.188 l 81.41001,-101.84 m 135.75,92.38 6.531,11.75 40.656,76.844 -65.66,68.41 -85,-41.781 c 3.674,-29.356 9.099,-60.26 12.438,-88.69 l 91.03,-26.531 m -120.78,28.344 -12.906,93.31 c -0.021,0.156 0.015,0.312 0,0.469 -24.758,28.2 -47.44,51.04 -67.25,69.25 L 46.6675,222.9505 c 28.729,-1.019 66.49001,-3.771 114.28001,-9.656 m 300.72,25.563 -30.438,131.31 c -19.564,-24.01 -41.63,-54.45 -63.28,-91.78 40.569,-17.14 66.848,-28.25 93.72,-39.531 m -114.94,58.09 c 26.593,45.14 53.976,80.7 76.75,106.78 l 0,0.188 -153.41,73.41 c 2.537,-28.927 5.53,-65.38 8.813,-109.59 l 67.844,-70.781 m -179.91,30.03 84.5,41.594 c -3.284,44.603 -6.392,81.5 -8.906,110.19 l -151.78,-74.66 c 22.2,-19.761 47.99,-45.15 76.19,-77.12"
     style="color:#000000;opacity:0.25;fill:#ffffff"
     id="path139374" />
  <path
     inkscape:connector-curvature="0"
     d="m 170.64883,179.60501 c -20.548,0.164 -40.90531,8.05898 -56.07031,23.45898 l 0.006,0.006 -73.58398,73.9707 32.49024,32.49024 -0.002,0.002 -32.48829,-32.48828 32.3711,32.60742 -0.002,0.002 202.33985,202.33984 210.29101,0 c 14.397,0 26,-11.603 26,-26 l 0,-240.44922 -50.99023,-50.99023 c -11.71473,-11.71482 -28.07753,-11.24461 -40.03716,-7.51576 l -0.004,-0.004 c -12.01999,3.746 -22.69203,10.81341 -32.37304,20.56641 l 59.93946,59.93945 c -0.002,0.002 -0.002,0.004 -0.004,0.006 l -59.9414,-59.94141 c -9.60899,9.68101 -16.65802,20.52138 -20.33204,32.60938 l 0.002,0.002 c -1.74134,5.61951 -2.84371,12.20286 -2.26953,18.83984 l -0.002,-0.002 -17.20312,17.35937 32.45702,32.45703 -0.004,0.004 -32.44921,-32.44922 c -10.28198,10.34785 -32.03774,12.04287 -45.20118,2.72266 l -75.92382,-75.92384 2.68945,2.69532 -2.96485,-2.96485 c -15.707,-15.707 -36.20749,-23.54262 -56.6582,-23.34765 l -0.002,-0.002 -0.0781,0 -0.002,0 z"
     id="path140038"
     style="opacity:0.25" />
  <path
     inkscape:connector-curvature="0"
     d="m 170.64949,179.6045 c -20.548,0.164 -40.905,8.06 -56.06999,23.46 l -73.59,73.976 32.374,32.609 69.44,-69.91 4.066,-4.145 c 11.238,-11.31 36.18,-12.294 48.48,0.156 l 34.798,35.03 -0.156,0.156 37.692,37.926 c 31.523,31.813 82.84,30.829 113.38999,0.156 l 18.29801,-18.455 c 5.84899,0.202 11.59399,-0.792 16.57799,-2.346 11.943,-3.746 22.693,-10.807 32.374,-20.488 9.609,-9.754 16.65801,-20.521 20.332,-32.609 3.673,-12.09 4.219,-28.63 -7.507,-40.43 -11.726,-11.871 -28.18,-11.409 -40.19,-7.663 -12.01999,3.746 -22.69299,10.813 -32.374,20.566 -9.609,9.681 -16.658,20.521 -20.332,32.609 -1.742,5.621 -2.843,12.207 -2.268,18.846 l -17.204,17.36 c -11.238,11.31 -36.19,12.294 -48.63999,-0.156 l -34.798,-35.27 -2.73701,-2.737 -34.955,-35.03 c -15.74199,-15.886 -36.36,-23.813 -56.929,-23.616 l -0.078,0"
     style="fill:#ffffff"
     id="path140100" />
</svg>
