<?xml version="1.0" encoding="UTF-8" standalone="no"?>
<svg
   xmlns:dc="http://purl.org/dc/elements/1.1/"
   xmlns:cc="http://creativecommons.org/ns#"
   xmlns:rdf="http://www.w3.org/1999/02/22-rdf-syntax-ns#"
   xmlns:svg="http://www.w3.org/2000/svg"
   xmlns="http://www.w3.org/2000/svg"
   xmlns:sodipodi="http://sodipodi.sourceforge.net/DTD/sodipodi-0.dtd"
   xmlns:inkscape="http://www.inkscape.org/namespaces/inkscape"
   viewBox="0 0 512 512"
   id="svg2"
   version="1.1"
   inkscape:version="0.91+devel r13804 custom"
   sodipodi:docname="start-here-mate.svg">
  <metadata
     id="metadata472">
    <rdf:RDF>
      <cc:Work
         rdf:about="">
        <dc:format>image/svg+xml</dc:format>
        <dc:type
           rdf:resource="http://purl.org/dc/dcmitype/StillImage" />
        <dc:title></dc:title>
      </cc:Work>
    </rdf:RDF>
  </metadata>
  <sodipodi:namedview
     pagecolor="#ffffff"
     bordercolor="#666666"
     borderopacity="1"
     objecttolerance="10"
     gridtolerance="10"
     guidetolerance="10"
     inkscape:pageopacity="0"
     inkscape:pageshadow="2"
     inkscape:window-width="1366"
     inkscape:window-height="709"
     id="namedview470"
     showgrid="false"
     inkscape:zoom="0.4609375"
     inkscape:cx="-8.6779661"
     inkscape:cy="237.55932"
     inkscape:window-x="-2"
     inkscape:window-y="-3"
     inkscape:window-maximized="1"
     inkscape:current-layer="svg2" />
  <defs
     id="defs4" />
  <text
     sodipodi:linespacing="125%"
     y="-301.14999"
     x="-133.85001"
     line-height="125%"
     style="font-size:129.22999573px;line-height:125%;font-family:'Gentium Book Basic';letter-spacing:0;word-spacing:0"
     id="text149577">
    <tspan
       y="-301.14999"
       x="-133.85001"
       id="tspan149579" />
  </text>
  <text
     transform="scale(4.0128205,0.24920128)"
     y="-1557.6021"
     x="163.72916"
     style="font-size:46.95399857px;font-family:Arial;text-anchor:middle"
     id="text149581" />
  <text
     sodipodi:linespacing="125%"
     y="-381.14999"
     x="447.42001"
     line-height="125%"
     style="font-size:129.22999573px;line-height:125%;font-family:'Gentium Book Basic';letter-spacing:0;word-spacing:0"
     id="text149583">
    <tspan
       y="-381.14999"
       x="447.42001"
       id="tspan149585" />
  </text>
  <text
     transform="scale(4.0128205,0.24920128)"
     y="-1878.6304"
     x="308.56842"
     style="font-size:46.95399857px;font-family:Arial;text-anchor:middle"
     id="text149587" />
  <text
     sodipodi:linespacing="125%"
     y="-562.40997"
     x="-624.15997"
     line-height="125%"
     style="font-size:129.22999573px;line-height:125%;font-family:'Gentium Book Basic';letter-spacing:0;word-spacing:0"
     id="text149589">
    <tspan
       y="-562.40997"
       x="-624.15997"
       id="tspan149591" />
  </text>
  <text
     transform="scale(4.0128205,0.24920128)"
     y="-2605.9866"
     x="41.535786"
     style="font-size:46.95399857px;font-family:Arial;text-anchor:middle"
     id="text149593" />
  <text
     sodipodi:linespacing="125%"
     y="-778.88"
     x="473.89001"
     line-height="125%"
     style="font-size:129.22999573px;line-height:125%;font-family:'Gentium Book Basic';letter-spacing:0;word-spacing:0"
     id="text149595">
    <tspan
       y="-778.88"
       x="473.89001"
       id="tspan149597" />
  </text>
  <text
     transform="scale(4.0128205,0.24920128)"
     y="-3474.6421"
     x="315.1684"
     style="font-size:46.95399857px;font-family:Arial;text-anchor:middle"
     id="text149599" />
  <text
     sodipodi:linespacing="125%"
     y="-858.89001"
     x="1055.16"
     line-height="125%"
     style="font-size:129.22999573px;line-height:125%;font-family:'Gentium Book Basic';letter-spacing:0;word-spacing:0"
     id="text149601">
    <tspan
       y="-858.89001"
       x="1055.16"
       id="tspan149603" />
  </text>
  <text
     transform="scale(4.0128205,0.24920128)"
     y="-3795.6804"
     x="460.01764"
     style="font-size:46.95399857px;font-family:Arial;text-anchor:middle"
     id="text149605" />
  <text
     sodipodi:linespacing="125%"
     y="-1331.29"
     x="666.03998"
     line-height="125%"
     style="font-size:129.22999573px;line-height:125%;font-family:'Gentium Book Basic';letter-spacing:0;word-spacing:0"
     id="text149607">
    <tspan
       y="-1331.29"
       x="666.03998"
       id="tspan149609" />
  </text>
  <text
     transform="scale(4.0128205,0.24920128)"
     y="-5691.3208"
     x="363.04813"
     style="font-size:46.95399857px;font-family:Arial;text-anchor:middle"
     id="text149611" />
  <text
     sodipodi:linespacing="125%"
     y="-1411.29"
     x="1247.3"
     line-height="125%"
     style="font-size:129.22999573px;line-height:125%;font-family:'Gentium Book Basic';letter-spacing:0;word-spacing:0"
     id="text149613">
    <tspan
       y="-1411.29"
       x="1247.3"
       id="tspan149615" />
  </text>
  <text
     transform="scale(4.0128205,0.24920128)"
     y="-6012.3491"
     x="507.8974"
     style="font-size:46.95399857px;font-family:Arial;text-anchor:middle"
     id="text149617" />
  <text
     sodipodi:linespacing="125%"
     y="3.4319999"
     x="-585.5"
     line-height="125%"
     style="font-size:208.33000183px;line-height:125%;font-family:'Gentium Book Basic';letter-spacing:0;word-spacing:0"
     id="text149619">
    <tspan
       y="3.4319999"
       x="-585.5"
       id="tspan149621" />
  </text>
  <path
     inkscape:connector-curvature="0"
     d="M 26,0 C 11.603,0 0,11.603 0,26 l 0,460 c 0,14.397 11.603,26 26,26 l 460,0 c 14.397,0 26,-11.603 26,-26 L 512,26 C 512,11.603 500.397,0 486,0 L 26,0"
     style="fill:#79c943"
     id="path149830" />
  <text
     sodipodi:linespacing="125%"
     y="-46.490002"
     x="-465.20999"
     line-height="125%"
     style="font-size:129.22999573px;line-height:125%;font-family:'Gentium Book Basic';letter-spacing:0;word-spacing:0"
     id="text149832">
    <tspan
       y="-46.490002"
       x="-465.20999"
       id="tspan149834" />
  </text>
  <text
     transform="scale(4.0128205,0.24920128)"
     y="-535.71722"
     x="81.14959"
     style="font-size:46.95399857px;font-family:Arial;text-anchor:middle"
     id="text149836" />
  <text
     sodipodi:linespacing="125%"
     y="-126.49"
     x="116.06"
     line-height="125%"
     style="font-size:129.22999573px;line-height:125%;font-family:'Gentium Book Basic';letter-spacing:0;word-spacing:0"
     id="text149838">
    <tspan
       y="-126.49"
       x="116.06"
       id="tspan149840" />
  </text>
  <text
     transform="scale(4.0128205,0.24920128)"
     y="-856.75562"
     x="225.99884"
     style="font-size:46.95399857px;font-family:Arial;text-anchor:middle"
     id="text149842" />
  <text
     sodipodi:linespacing="125%"
     y="-307.75"
     x="-955.52002"
     line-height="125%"
     style="font-size:129.22999573px;line-height:125%;font-family:'Gentium Book Basic';letter-spacing:0;word-spacing:0"
     id="text149844">
    <tspan
       y="-307.75"
       x="-955.52002"
       id="tspan149846" />
  </text>
  <text
     transform="scale(4.0128205,0.24920128)"
     y="-1584.0919"
     x="-41.039791"
     style="font-size:46.95399857px;font-family:Arial;text-anchor:middle"
     id="text149848" />
  <text
     sodipodi:linespacing="125%"
     y="-524.21997"
     x="142.53"
     line-height="125%"
     style="font-size:129.22999573px;line-height:125%;font-family:'Gentium Book Basic';letter-spacing:0;word-spacing:0"
     id="text149850">
    <tspan
       y="-524.21997"
       x="142.53"
       id="tspan149852" />
  </text>
  <text
     transform="scale(4.0128205,0.24920128)"
     y="-2452.7676"
     x="232.59882"
     style="font-size:46.95399857px;font-family:Arial;text-anchor:middle"
     id="text149854" />
  <text
     sodipodi:linespacing="125%"
     y="-604.21997"
     x="723.79999"
     line-height="125%"
     style="font-size:129.22999573px;line-height:125%;font-family:'Gentium Book Basic';letter-spacing:0;word-spacing:0"
     id="text149856">
    <tspan
       y="-604.21997"
       x="723.79999"
       id="tspan149858" />
  </text>
  <text
     transform="scale(4.0128205,0.24920128)"
     y="-2773.7959"
     x="377.44809"
     style="font-size:46.95399857px;font-family:Arial;text-anchor:middle"
     id="text149860" />
  <text
     sodipodi:linespacing="125%"
     y="-1076.62"
     x="334.67999"
     line-height="125%"
     style="font-size:129.22999573px;line-height:125%;font-family:'Gentium Book Basic';letter-spacing:0;word-spacing:0"
     id="text149862">
    <tspan
       y="-1076.62"
       x="334.67999"
       id="tspan149864" />
  </text>
  <text
     transform="scale(4.0128205,0.24920128)"
     y="-4669.436"
     x="280.47858"
     style="font-size:46.95399857px;font-family:Arial;text-anchor:middle"
     id="text149866" />
  <text
     sodipodi:linespacing="125%"
     y="-1156.63"
     x="915.94"
     line-height="125%"
     style="font-size:129.22999573px;line-height:125%;font-family:'Gentium Book Basic';letter-spacing:0;word-spacing:0"
     id="text149868">
    <tspan
       y="-1156.63"
       x="915.94"
       id="tspan149870" />
  </text>
  <text
     transform="scale(4.0128205,0.24920128)"
     y="-4990.4746"
     x="425.32782"
     style="font-size:46.95399857px;font-family:Arial;text-anchor:middle"
     id="text149872" />
  <text
     sodipodi:linespacing="125%"
     y="258.09"
     x="-916.85999"
     line-height="125%"
     style="font-size:208.33000183px;line-height:125%;font-family:'Gentium Book Basic';letter-spacing:0;word-spacing:0"
     id="text149874">
    <tspan
       y="258.09"
       x="-916.85999"
       id="tspan149876" />
  </text>
  <path
     style="fill-rule:evenodd;opacity:0.25"
     d="M 256.73047 41.140625 C 188.54397 41.140625 128.07628 73.476716 88.996094 123.40234 L 88.996094 123.4043 C 88.994401 123.40646 88.991927 123.40799 88.990234 123.41016 L 169.70898 204.12891 L 41.023438 130.67383 L 41 130.65039 L 41 381.25 L 41.005859 381.25586 L 41 381.25977 L 171.74023 512 L 486 512 C 500.397 512 512 500.397 512 486 L 512 207.89062 L 408.00977 103.90039 C 369.31577 65.206392 315.96961 41.269531 257.09961 41.269531 L 292.53711 76.707031 C 292.53323 76.706265 292.52927 76.705845 292.52539 76.705078 L 257.09961 41.279297 L 256.73242 41.142578 L 256.73047 41.140625 z "
     id="path149880" />
  <path
     inkscape:connector-curvature="0"
     d="m 256.73,41.14 c -68.19,0 -128.66,32.34 -167.74,82.27 l 26.795,17.02 c 33.423,-41.05 84.45,-67.17 141.36,-67.17 100.63,0 182.33,81.88 182.33,182.79 0,100.84 -81.71,182.7 -182.33,182.7 -56.713,0 -107.58,-26.01 -141.04,-66.849 l -26.795,17.07 c 39.22,49.785 99.55,81.898 167.79,81.898 118.12,0 213.9,-96.22 213.9,-214.82 0,-118.53 -95.85,-214.77 -213.9,-214.77 l -0.367,-0.138 m 0.092,83.87 -0.092,0.046 c -38.453,0 -73,16.725 -96.99,43.22 l 27.758,17.343 c 17.83,-17.687 42.33,-28.538 69.33,-28.538 54.619,0 98.92,44.781 98.92,99.88 0,55.17 -44.25,99.93 -98.92,99.93 -27.48,0 -52.34,-11.26 -70.24,-29.502 l -26.749,17.02 c 23.989,26.495 58.47,43.22 96.99,43.22 72.32,0 130.95,-58.863 130.95,-131.31 0,-72.52 -58.639,-131.31 -130.95,-131.31 m -215.83,5.643 0,250.6 217.34,-126.54 -217.34,-124.06"
     style="fill:#ffffff;fill-rule:evenodd"
     id="path149946" />
</svg>
