<?xml version="1.0" encoding="UTF-8" standalone="no"?>
<svg
   xmlns:dc="http://purl.org/dc/elements/1.1/"
   xmlns:cc="http://creativecommons.org/ns#"
   xmlns:rdf="http://www.w3.org/1999/02/22-rdf-syntax-ns#"
   xmlns:svg="http://www.w3.org/2000/svg"
   xmlns="http://www.w3.org/2000/svg"
   xmlns:sodipodi="http://sodipodi.sourceforge.net/DTD/sodipodi-0.dtd"
   xmlns:inkscape="http://www.inkscape.org/namespaces/inkscape"
   viewBox="0 0 512 512"
   id="svg2"
   version="1.1"
   inkscape:version="0.91+devel r13804 custom"
   sodipodi:docname="sublime-text.svg">
  <metadata
     id="metadata472">
    <rdf:RDF>
      <cc:Work
         rdf:about="">
        <dc:format>image/svg+xml</dc:format>
        <dc:type
           rdf:resource="http://purl.org/dc/dcmitype/StillImage" />
        <dc:title></dc:title>
      </cc:Work>
    </rdf:RDF>
  </metadata>
  <sodipodi:namedview
     pagecolor="#ffffff"
     bordercolor="#666666"
     borderopacity="1"
     objecttolerance="10"
     gridtolerance="10"
     guidetolerance="10"
     inkscape:pageopacity="0"
     inkscape:pageshadow="2"
     inkscape:window-width="1366"
     inkscape:window-height="709"
     id="namedview470"
     showgrid="false"
     inkscape:zoom="0.4609375"
     inkscape:cx="-8.6779661"
     inkscape:cy="237.55932"
     inkscape:window-x="-2"
     inkscape:window-y="-3"
     inkscape:window-maximized="1"
     inkscape:current-layer="svg2" />
  <defs
     id="defs4" />
  <path
     inkscape:connector-curvature="0"
     d="M 26,0 C 11.603,0 0,11.603 0,26 l 0,460 c 0,14.397 11.603,26 26,26 l 460,0 c 14.397,0 26,-11.603 26,-26 L 512,26 C 512,11.603 500.397,0 486,0 L 26,0"
     style="fill:#ff8100"
     id="path165289" />
  <text
     sodipodi:linespacing="125%"
     y="-396.26001"
     x="7.2849998"
     line-height="125%"
     style="font-size:129.22999573px;line-height:125%;font-family:'Gentium Book Basic';letter-spacing:0;word-spacing:0"
     id="text165291">
    <tspan
       y="-396.26001"
       x="7.2849998"
       id="tspan165293" />
  </text>
  <text
     transform="scale(4.0128205,0.24920128)"
     y="-1939.2701"
     x="198.89897"
     style="font-size:46.95399857px;font-family:Arial;text-anchor:middle"
     id="text165295" />
  <text
     sodipodi:linespacing="125%"
     y="-476.26001"
     x="588.56"
     line-height="125%"
     style="font-size:129.22999573px;line-height:125%;font-family:'Gentium Book Basic';letter-spacing:0;word-spacing:0"
     id="text165297">
    <tspan
       y="-476.26001"
       x="588.56"
       id="tspan165299" />
  </text>
  <text
     transform="scale(4.0128205,0.24920128)"
     y="-2260.2986"
     x="343.74823"
     style="font-size:46.95399857px;font-family:Arial;text-anchor:middle"
     id="text165301" />
  <text
     sodipodi:linespacing="125%"
     y="-657.52002"
     x="-483.01999"
     line-height="125%"
     style="font-size:129.22999573px;line-height:125%;font-family:'Gentium Book Basic';letter-spacing:0;word-spacing:0"
     id="text165303">
    <tspan
       y="-657.52002"
       x="-483.01999"
       id="tspan165305" />
  </text>
  <text
     transform="scale(4.0128205,0.24920128)"
     y="-2987.6445"
     x="76.70961"
     style="font-size:46.95399857px;font-family:Arial;text-anchor:middle"
     id="text165307" />
  <text
     sodipodi:linespacing="125%"
     y="-873.98999"
     x="615.03003"
     line-height="125%"
     style="font-size:129.22999573px;line-height:125%;font-family:'Gentium Book Basic';letter-spacing:0;word-spacing:0"
     id="text165309">
    <tspan
       y="-873.98999"
       x="615.03003"
       id="tspan165311" />
  </text>
  <text
     transform="scale(4.0128205,0.24920128)"
     y="-3856.3103"
     x="350.34821"
     style="font-size:46.95399857px;font-family:Arial;text-anchor:middle"
     id="text165313" />
  <text
     sodipodi:linespacing="125%"
     y="-954"
     x="1196.3"
     line-height="125%"
     style="font-size:129.22999573px;line-height:125%;font-family:'Gentium Book Basic';letter-spacing:0;word-spacing:0"
     id="text165315">
    <tspan
       y="-954"
       x="1196.3"
       id="tspan165317" />
  </text>
  <text
     transform="scale(4.0128205,0.24920128)"
     y="-4177.3486"
     x="495.18747"
     style="font-size:46.95399857px;font-family:Arial;text-anchor:middle"
     id="text165319" />
  <text
     sodipodi:linespacing="125%"
     y="-1426.4"
     x="807.17999"
     line-height="125%"
     style="font-size:129.22999573px;line-height:125%;font-family:'Gentium Book Basic';letter-spacing:0;word-spacing:0"
     id="text165321">
    <tspan
       y="-1426.4"
       x="807.17999"
       id="tspan165323" />
  </text>
  <text
     transform="scale(4.0128205,0.24920128)"
     y="-6072.9888"
     x="398.22797"
     style="font-size:46.95399857px;font-family:Arial;text-anchor:middle"
     id="text165325" />
  <text
     sodipodi:linespacing="125%"
     y="-1506.4"
     x="1388.4399"
     line-height="125%"
     style="font-size:129.22999573px;line-height:125%;font-family:'Gentium Book Basic';letter-spacing:0;word-spacing:0"
     id="text165327">
    <tspan
       y="-1506.4"
       x="1388.4399"
       id="tspan165329" />
  </text>
  <text
     transform="scale(4.0128205,0.24920128)"
     y="-6394.0171"
     x="543.0672"
     style="font-size:46.95399857px;font-family:Arial;text-anchor:middle"
     id="text165331" />
  <text
     sodipodi:linespacing="125%"
     y="-91.68"
     x="-444.35999"
     line-height="125%"
     style="font-size:208.33000183px;line-height:125%;font-family:'Gentium Book Basic';letter-spacing:0;word-spacing:0"
     id="text165333">
    <tspan
       y="-91.68"
       x="-444.35999"
       id="tspan165335" />
  </text>
  <path
     d="M 265.2207 41 C 178.6907 41 117.61914 95.700392 117.61914 164.40039 L 117.63086 164.41211 C 117.63391 199.16632 131.0976 225.71675 150.65039 245.26953 L 290.29688 384.91602 C 281.54642 388.36891 270.44371 390.2207 256.94922 390.2207 L 256.95898 390.23047 C 222.60949 390.2298 184.4315 372.41422 154.53906 346.9707 L 101.09961 411.21094 L 201.88867 512 L 486 512 C 500.397 512 512 500.397 512 486 L 512 208.89648 L 398.80078 95.697266 C 363.18078 60.080266 312.9167 41 265.2207 41 z "
     id="path165339"
     style="opacity:0.25" />
  <path
     inkscape:connector-curvature="0"
     d="m 154.54,346.97 c 29.893,25.444 68.07,43.26 102.42,43.26 38.802,0 57.88,-15.271 57.88,-40.08 0,-26.09 -23.532,-34.35 -59.795,-49.616 l -54.07,-22.9 c -42.624,-17.17 -83.34,-52.797 -83.34,-113.23 0,-68.7 61.07,-123.4 147.6,-123.4 47.703,0 97.97,19.08 133.59,54.712 l -47.717,59.16 c -27.349,-20.992 -52.803,-33.08 -85.88,-33.08 -32.442,0 -52.803,13.994 -52.803,37.526 0,25.444 27.349,34.35 62.986,48.979 l 53.44,21.63 c 50.25,20.355 82.06,54.07 82.06,112.59 0,68.7 -57.25,128.49 -156.5,128.49 -54.07,0 -111.32,-20.351 -153.3,-59.795 l 53.44,-64.24"
     style="fill:#ffffff"
     id="path165381" />
</svg>
