<?xml version="1.0" encoding="UTF-8" standalone="no"?>
<svg
   xmlns:dc="http://purl.org/dc/elements/1.1/"
   xmlns:cc="http://creativecommons.org/ns#"
   xmlns:rdf="http://www.w3.org/1999/02/22-rdf-syntax-ns#"
   xmlns:svg="http://www.w3.org/2000/svg"
   xmlns="http://www.w3.org/2000/svg"
   xmlns:xlink="http://www.w3.org/1999/xlink"
   xmlns:sodipodi="http://sodipodi.sourceforge.net/DTD/sodipodi-0.dtd"
   xmlns:inkscape="http://www.inkscape.org/namespaces/inkscape"
   viewBox="0 0 512 512"
   id="svg2"
   version="1.1"
   inkscape:version="0.91+devel r13804 custom"
   sodipodi:docname="switch-user.svg">
  <metadata
     id="metadata472">
    <rdf:RDF>
      <cc:Work
         rdf:about="">
        <dc:format>image/svg+xml</dc:format>
        <dc:type
           rdf:resource="http://purl.org/dc/dcmitype/StillImage" />
        <dc:title></dc:title>
      </cc:Work>
    </rdf:RDF>
  </metadata>
  <sodipodi:namedview
     pagecolor="#ffffff"
     bordercolor="#666666"
     borderopacity="1"
     objecttolerance="10"
     gridtolerance="10"
     guidetolerance="10"
     inkscape:pageopacity="0"
     inkscape:pageshadow="2"
     inkscape:window-width="1366"
     inkscape:window-height="709"
     id="namedview470"
     showgrid="false"
     inkscape:zoom="0.4609375"
     inkscape:cx="36.881356"
     inkscape:cy="10.001049"
     inkscape:window-x="-2"
     inkscape:window-y="-3"
     inkscape:window-maximized="1"
     inkscape:current-layer="svg2" />
  <defs
     id="defs4">
    <clipPath
       id="1">
      <path
         id="path168980"
         d="m26 0c-14.397 0-26 11.603-26 26v460c0 14.397 11.603 26 26 26h460c14.397 0 26-11.603 26-26v-460c0-14.397-11.603-26-26-26h-460" />
    </clipPath>
  </defs>
  <path
     inkscape:connector-curvature="0"
     d="m 26,-1e-5 c -14.397,0 -26,11.603 -26,26 l 0,460.00003 c 0,14.397 11.603,26 26,26 l 460,0 c 14.397,0 26,-11.603 26,-26 l 0,-460.00003 c 0,-14.397 -11.603,-26 -26,-26 l -460,0"
     style="fill:#68af4c"
     id="path168982" />
  <path
     inkscape:connector-curvature="0"
     id="0"
     d="m 300.44,40.99999 c -0.356,0.019 -0.74,0.105 -1.125,0.156 -2.13,0.277 -4.404,1.243 -5.094,2.188 -0.952,1.302 -1.281,8.393 -1.281,29.375 0,10.1 -0.023,19.485 -0.063,28.563 l -192.69,0 c -20.731,0 -37.41,16.707 -37.41,37.438 l 0,8.313 c 0,20.731 16.675,37.438 37.41,37.438 l 192.34,0 c 0.05,9.285 0.168,17.97 0.406,26.19 0,22.89703 0.323,30.40503 1.281,31.71903 0.69,0.945 3.061,1.952 5.281,2.25 3.36,0.451 4.977,0.04 9.719,-2.656 46.08,-30.88103 81.34,-54.41003 131.03,-87.62003 6.992,-3.929 8.969,-6.481 8.969,-11.5 0,-5.962 -1.158,-7.03 -20.969,-19.5 l -119.41,-79.66 c -3.923,-2.109 -5.91,-2.792 -8.406,-2.656 l 0,-0.031"
     style="fill:#ffffff" />
  <path
     d="M 300.43945 41 C 300.08345 41.019 299.69945 41.10525 299.31445 41.15625 L 423.62109 165.46094 L 423.61523 165.46484 L 299.31055 41.160156 C 297.18512 41.436562 294.91795 42.398738 294.22266 43.341797 L 294.2207 43.339844 C 293.2687 44.641844 292.93945 51.732844 292.93945 72.714844 L 400.88086 180.65625 C 400.87969 180.65703 400.87812 180.65742 400.87695 180.6582 L 292.93945 72.720703 C 292.93945 82.819322 292.91694 92.202451 292.87695 101.2793 L 100.18945 101.2793 C 79.458456 101.2793 62.779297 117.98775 62.779297 138.71875 L 62.78125 138.7207 L 62.78125 147.0332 C 62.782303 157.40464 66.956464 166.76896 73.724609 173.53711 L 178.3125 278.125 L 82.400391 342.10938 L 82.404297 342.11328 C 62.598231 354.58023 61.439453 355.64788 61.439453 361.60938 L 61.439453 361.61133 C 61.439453 364.60733 62.143219 366.7233 64.199219 368.7793 L 64.265625 368.8457 C 64.243136 368.82353 64.213579 368.80149 64.191406 368.7793 L 207.41211 512 L 486 512 C 500.397 512 512 500.397 512 486 L 512 201.34961 L 446.63086 135.98047 L 446.62891 135.97852 L 446.62695 135.97656 C 443.99775 133.34905 438.73713 129.94674 428.25391 123.34375 L 428.25 123.33984 L 308.83984 43.679688 L 427.81836 162.6582 C 427.81661 162.65937 427.81425 162.65899 427.8125 162.66016 L 308.83984 43.6875 C 304.93771 41.589717 302.95006 40.904656 300.47266 41.03125 L 300.43945 41 z "
     id="path169133"
     style="opacity:0.25" />
  <path
     inkscape:connector-curvature="0"
     d="m 210.22,259.77002 c 0.356,0.019 0.74,0.105 1.125,0.156 2.13,0.277 4.404,1.243 5.094,2.188 0.952,1.302 1.281,8.393 1.281,29.375 0,10.1 0.023,19.485 0.063,28.563 l 192.69,0 c 20.731,0 37.41,16.707 37.41,37.438 l 0,8.313 c 0,20.731 -16.675,37.438 -37.41,37.438 l -192.34,0 c -0.05,9.285 -0.168,17.97 -0.406,26.19 0,22.897 -0.323,30.405 -1.281,31.719 -0.69,0.945 -3.061,1.952 -5.281,2.25 -3.36,0.451 -4.977,0.039 -9.719,-2.656 -46.08,-30.881 -81.34,-54.41 -131.03,-87.62 -6.992,-3.929 -8.969,-6.481 -8.969,-11.5 0,-5.962 1.158,-7.03 20.969,-19.5 l 119.41,-79.66 c 3.923,-2.109 5.91,-2.792 8.406,-2.656 l 0,-0.031"
     style="fill:#ffffff"
     id="path169223" />
  <use
     y="0"
     x="0"
     xlink:href="#0"
     height="1"
     width="1"
     id="use169225" />
</svg>
