<?xml version="1.0" encoding="UTF-8" standalone="no"?>
<svg
   xmlns:dc="http://purl.org/dc/elements/1.1/"
   xmlns:cc="http://creativecommons.org/ns#"
   xmlns:rdf="http://www.w3.org/1999/02/22-rdf-syntax-ns#"
   xmlns:svg="http://www.w3.org/2000/svg"
   xmlns="http://www.w3.org/2000/svg"
   xmlns:xlink="http://www.w3.org/1999/xlink"
   xmlns:sodipodi="http://sodipodi.sourceforge.net/DTD/sodipodi-0.dtd"
   xmlns:inkscape="http://www.inkscape.org/namespaces/inkscape"
   viewBox="0 0 512 512"
   id="svg2"
   version="1.1"
   inkscape:version="0.91+devel r13804 custom"
   sodipodi:docname="synapse.svg">
  <metadata
     id="metadata472">
    <rdf:RDF>
      <cc:Work
         rdf:about="">
        <dc:format>image/svg+xml</dc:format>
        <dc:type
           rdf:resource="http://purl.org/dc/dcmitype/StillImage" />
        <dc:title></dc:title>
      </cc:Work>
    </rdf:RDF>
  </metadata>
  <sodipodi:namedview
     pagecolor="#ffffff"
     bordercolor="#666666"
     borderopacity="1"
     objecttolerance="10"
     gridtolerance="10"
     guidetolerance="10"
     inkscape:pageopacity="0"
     inkscape:pageshadow="2"
     inkscape:window-width="1366"
     inkscape:window-height="709"
     id="namedview470"
     showgrid="false"
     inkscape:zoom="0.4609375"
     inkscape:cx="455.59322"
     inkscape:cy="185.72986"
     inkscape:window-x="-2"
     inkscape:window-y="-3"
     inkscape:window-maximized="1"
     inkscape:current-layer="svg2" />
  <defs
     id="defs4">
    <clipPath
       id="2">
      <path
         id="path170136"
         d="m256 176c-44.18 0-80 35.64-80 80 0 0-.53 7.515 1.768 16h122.86c-3.317 9.265-9.266 17.577-17.344 23.13-18.585 14.673-46.731 9.337-62.56-7.125h-38.03c12.35 28.24 40.517 48 73.31 48 44.18 0 80-35.817 80-80 0 0 0-8.222-1.591-16h-122.91c6.916-17.482 23.431-31.648 42.625-31.813.96-.046 1.917-.051 2.875-.031 12.866.261 25.351 6.362 34.03 15.844h38.28c-12.35-28.24-40.517-48-73.31-48"
         transform="translate(0-1.789)" />
    </clipPath>
    <clipPath
       id="3">
      <path
         id="path170139"
         d="m240 92.12v36.879c-52.46 6.538-95.05 44.81-107.97 95h33.19c13.611-36.23 49.647-64.48 89.03-64.22.955-.025 1.922-.037 2.875-.031 14.299.085 28.354 3.635 41.09 10 22.947 10.33 39.986 30.744 48.31 54.25h33.438c-12.918-50.19-55.51-88.46-107.97-95v-36.879zm-107.97 195.88c12.918 50.19 55.51 88.46 107.97 95v36.879h32v-36.879c52.46-6.538 95.05-44.81 107.97-95h-32.969c-12.936 38.16-52.919 65.61-93.34 64.19-39.36.199-75.06-27.918-88.37-64.19z" />
    </clipPath>
  </defs>
  <path
     inkscape:connector-curvature="0"
     d="M 26,0 C 11.603,0 0,11.603 0,26 l 0,460 c 0,14.397 11.603,26 26,26 l 460,0 c 14.397,0 26,-11.603 26,-26 L 512,26 C 512,11.603 500.397,0 486,0 L 26,0"
     style="fill:#20b393"
     id="path170141" />
  <text
     sodipodi:linespacing="125%"
     y="-359.44"
     x="304.89001"
     line-height="125%"
     style="font-size:129.22999573px;line-height:125%;font-family:'Gentium Book Basic';letter-spacing:0;word-spacing:0"
     id="text170143">
    <tspan
       y="-359.44"
       x="304.89001"
       id="tspan170145" />
  </text>
  <text
     transform="scale(4.0128205,0.24920128)"
     y="-1791.5309"
     x="273.05859"
     style="font-size:46.95399857px;font-family:Arial;text-anchor:middle"
     id="text170147" />
  <text
     sodipodi:linespacing="125%"
     y="-439.44"
     x="886.15997"
     line-height="125%"
     style="font-size:129.22999573px;line-height:125%;font-family:'Gentium Book Basic';letter-spacing:0;word-spacing:0"
     id="text170149">
    <tspan
       y="-439.44"
       x="886.15997"
       id="tspan170151" />
  </text>
  <text
     transform="scale(4.0128205,0.24920128)"
     y="-2112.5493"
     x="417.90787"
     style="font-size:46.95399857px;font-family:Arial;text-anchor:middle"
     id="text170153" />
  <text
     sodipodi:linespacing="125%"
     y="-620.70001"
     x="-185.42"
     line-height="125%"
     style="font-size:129.22999573px;line-height:125%;font-family:'Gentium Book Basic';letter-spacing:0;word-spacing:0"
     id="text170155">
    <tspan
       y="-620.70001"
       x="-185.42"
       id="tspan170157" />
  </text>
  <text
     transform="scale(4.0128205,0.24920128)"
     y="-2839.9053"
     x="150.86922"
     style="font-size:46.95399857px;font-family:Arial;text-anchor:middle"
     id="text170159" />
  <text
     sodipodi:linespacing="125%"
     y="-837.16998"
     x="912.63"
     line-height="125%"
     style="font-size:129.22999573px;line-height:125%;font-family:'Gentium Book Basic';letter-spacing:0;word-spacing:0"
     id="text170161">
    <tspan
       y="-837.16998"
       x="912.63"
       id="tspan170163" />
  </text>
  <text
     transform="scale(4.0128205,0.24920128)"
     y="-3708.571"
     x="424.50784"
     style="font-size:46.95399857px;font-family:Arial;text-anchor:middle"
     id="text170165" />
  <text
     sodipodi:linespacing="125%"
     y="-917.17999"
     x="1493.9"
     line-height="125%"
     style="font-size:129.22999573px;line-height:125%;font-family:'Gentium Book Basic';letter-spacing:0;word-spacing:0"
     id="text170167">
    <tspan
       y="-917.17999"
       x="1493.9"
       id="tspan170169" />
  </text>
  <text
     transform="scale(4.0128205,0.24920128)"
     y="-4029.6091"
     x="569.35706"
     style="font-size:46.95399857px;font-family:Arial;text-anchor:middle"
     id="text170171" />
  <text
     sodipodi:linespacing="125%"
     y="-1389.58"
     x="1104.78"
     line-height="125%"
     style="font-size:129.22999573px;line-height:125%;font-family:'Gentium Book Basic';letter-spacing:0;word-spacing:0"
     id="text170173">
    <tspan
       y="-1389.58"
       x="1104.78"
       id="tspan170175" />
  </text>
  <text
     transform="scale(4.0128205,0.24920128)"
     y="-5925.2495"
     x="472.3876"
     style="font-size:46.95399857px;font-family:Arial;text-anchor:middle"
     id="text170177" />
  <text
     sodipodi:linespacing="125%"
     y="-1469.58"
     x="1686.04"
     line-height="125%"
     style="font-size:129.22999573px;line-height:125%;font-family:'Gentium Book Basic';letter-spacing:0;word-spacing:0"
     id="text170179">
    <tspan
       y="-1469.58"
       x="1686.04"
       id="tspan170181" />
  </text>
  <text
     transform="scale(4.0128205,0.24920128)"
     y="-6246.2681"
     x="617.23682"
     style="font-size:46.95399857px;font-family:Arial;text-anchor:middle"
     id="text170183" />
  <text
     sodipodi:linespacing="125%"
     y="-54.862"
     x="-146.75999"
     line-height="125%"
     style="font-size:208.33000183px;line-height:125%;font-family:'Gentium Book Basic';letter-spacing:0;word-spacing:0"
     id="text170185">
    <tspan
       y="-54.862"
       x="-146.75999"
       id="tspan170187" />
  </text>
  <path
     inkscape:connector-curvature="0"
     id="0"
     transform="matrix(1.3341,0,0,1.31194,-85.53,-79.85)"
     d="m 240,92.12 0,36.879 c -52.46,6.538 -95.05,44.81 -107.97,95 l 33.19,0 c 13.611,-36.23 49.647,-64.48 89.03,-64.22 0.955,-0.025 1.922,-0.037 2.875,-0.031 14.299,0.085 28.354,3.635 41.09,10 22.947,10.33 39.986,30.744 48.31,54.25 l 33.438,0 c -12.918,-50.19 -55.51,-88.46 -107.97,-95 l 0,-36.879 z M 132.03,288 c 12.918,50.19 55.51,88.46 107.97,95 l 0,36.879 32,0 0,-36.879 c 52.46,-6.538 95.05,-44.81 107.97,-95 l -32.969,0 c -12.936,38.16 -52.919,65.61 -93.34,64.19 -39.36,0.199 -75.06,-27.918 -88.37,-64.19 z"
     style="fill:#ffffff"
     clip-path="url(#3)" />
  <path
     d="M 234.6543 41.005859 L 234.6543 89.388672 L 277.49805 131.51953 C 277.49678 131.51931 277.49541 131.51975 277.49414 131.51953 L 234.6543 89.390625 C 164.66741 97.968089 107.8479 148.17912 90.611328 214.02539 L 171.94922 294.01172 L 169.875 294.01172 C 174.62273 304.67731 181.3471 314.29475 189.60156 322.41211 L 189.60742 322.41797 C 189.60873 322.41926 189.61002 322.42058 189.61133 322.42188 L 203.1543 335.74023 L 250.38086 382.18164 C 237.76131 381.96186 225.45033 379.60813 213.79492 375.49023 L 134.98242 297.98828 C 141.60489 315.7244 152.36979 331.971 165.98828 345.36328 L 277.3457 454.87109 L 277.3457 464.60352 L 234.6543 422.62109 C 227.37923 421.72922 220.24588 420.3871 213.28516 418.625 L 90.611328 297.98828 C 98.333099 327.48987 114.00135 353.85156 135.24023 374.73633 L 135.43164 374.92383 C 135.36722 374.86068 135.30064 374.79957 135.23633 374.73633 L 274.81836 512 L 486 512 C 500.397 512 512 500.397 512 486 L 512 270.28125 L 376.74805 137.27539 C 372.23286 132.8352 367.46064 128.64919 362.46484 124.72656 L 277.33203 41.007812 L 277.33203 82.974609 L 234.6543 41.005859 z "
     id="path170194"
     style="opacity:0.25" />
  <path
     inkscape:connector-curvature="0"
     transform="matrix(1.17518,0,0,1.15566,-44.818,-38.819)"
     d="m 256,176 c -44.18,0 -80,35.64 -80,80 0,0 -0.53,7.515 1.768,16 l 122.86,0 c -3.317,9.265 -9.266,17.577 -17.344,23.13 -18.585,14.673 -46.731,9.337 -62.56,-7.125 l -38.03,0 c 12.35,28.24 40.517,48 73.31,48 44.18,0 80,-35.817 80,-80 0,0 0,-8.222 -1.591,-16 l -122.91,0 c 6.916,-17.482 23.431,-31.648 42.625,-31.813 0.96,-0.046 1.917,-0.051 2.875,-0.031 12.866,0.261 25.351,6.362 34.03,15.844 l 38.28,0 c -12.35,-28.24 -40.517,-48 -73.31,-48"
     style="fill:#ffffff"
     id="path170278"
     clip-path="url(#2)" />
  <use
     y="0"
     x="0"
     xlink:href="#0"
     height="1"
     width="1"
     id="use170280" />
</svg>
