<?xml version="1.0" encoding="UTF-8" standalone="no"?>
<svg
   xmlns:dc="http://purl.org/dc/elements/1.1/"
   xmlns:cc="http://creativecommons.org/ns#"
   xmlns:rdf="http://www.w3.org/1999/02/22-rdf-syntax-ns#"
   xmlns:svg="http://www.w3.org/2000/svg"
   xmlns="http://www.w3.org/2000/svg"
   xmlns:sodipodi="http://sodipodi.sourceforge.net/DTD/sodipodi-0.dtd"
   xmlns:inkscape="http://www.inkscape.org/namespaces/inkscape"
   viewBox="0 0 512 512"
   id="svg2"
   version="1.1"
   inkscape:version="0.91+devel r13804 custom"
   sodipodi:docname="teamviewer.svg">
  <metadata
     id="metadata472">
    <rdf:RDF>
      <cc:Work
         rdf:about="">
        <dc:format>image/svg+xml</dc:format>
        <dc:type
           rdf:resource="http://purl.org/dc/dcmitype/StillImage" />
        <dc:title></dc:title>
      </cc:Work>
    </rdf:RDF>
  </metadata>
  <sodipodi:namedview
     pagecolor="#ffffff"
     bordercolor="#666666"
     borderopacity="1"
     objecttolerance="10"
     gridtolerance="10"
     guidetolerance="10"
     inkscape:pageopacity="0"
     inkscape:pageshadow="2"
     inkscape:window-width="1366"
     inkscape:window-height="709"
     id="namedview470"
     showgrid="false"
     inkscape:zoom="0.4609375"
     inkscape:cx="455.59322"
     inkscape:cy="185.72986"
     inkscape:window-x="-2"
     inkscape:window-y="-3"
     inkscape:window-maximized="1"
     inkscape:current-layer="svg2" />
  <defs
     id="defs4" />
  <path
     inkscape:connector-curvature="0"
     d="M 26,0 C 11.603,0 0,11.603 0,26 l 0,460 c 0,14.397 11.603,26 26,26 l 460,0 c 14.397,0 26,-11.603 26,-26 L 512,26 C 512,11.603 500.397,0 486,0 L 26,0"
     style="fill:#0078ad"
     id="path187478" />
  <text
     sodipodi:linespacing="125%"
     y="14.869"
     x="-293.39001"
     line-height="125%"
     style="font-size:129.22999573px;line-height:125%;font-family:'Gentium Book Basic';letter-spacing:0;word-spacing:0"
     id="text187480">
    <tspan
       y="14.869"
       x="-293.39001"
       id="tspan187482" />
  </text>
  <text
     transform="scale(4.0128205,0.24920128)"
     y="-289.48849"
     x="123.96937"
     style="font-size:46.95399857px;font-family:Arial;text-anchor:middle"
     id="text187484" />
  <text
     sodipodi:linespacing="125%"
     y="-65.129997"
     x="287.88"
     line-height="125%"
     style="font-size:129.22999573px;line-height:125%;font-family:'Gentium Book Basic';letter-spacing:0;word-spacing:0"
     id="text187486">
    <tspan
       y="-65.129997"
       x="287.88"
       id="tspan187488" />
  </text>
  <text
     transform="scale(4.0128205,0.24920128)"
     y="-610.51691"
     x="268.81863"
     style="font-size:46.95399857px;font-family:Arial;text-anchor:middle"
     id="text187490" />
  <text
     sodipodi:linespacing="125%"
     y="-246.39"
     x="-783.70001"
     line-height="125%"
     style="font-size:129.22999573px;line-height:125%;font-family:'Gentium Book Basic';letter-spacing:0;word-spacing:0"
     id="text187492">
    <tspan
       y="-246.39"
       x="-783.70001"
       id="tspan187494" />
  </text>
  <text
     transform="scale(4.0128205,0.24920128)"
     y="-1337.8732"
     x="1.7779909"
     style="font-size:46.95399857px;font-family:Arial;text-anchor:middle"
     id="text187496" />
  <text
     sodipodi:linespacing="125%"
     y="-462.85999"
     x="314.35001"
     line-height="125%"
     style="font-size:129.22999573px;line-height:125%;font-family:'Gentium Book Basic';letter-spacing:0;word-spacing:0"
     id="text187498">
    <tspan
       y="-462.85999"
       x="314.35001"
       id="tspan187500" />
  </text>
  <text
     transform="scale(4.0128205,0.24920128)"
     y="-2206.5288"
     x="275.41861"
     style="font-size:46.95399857px;font-family:Arial;text-anchor:middle"
     id="text187502" />
  <text
     sodipodi:linespacing="125%"
     y="-542.87"
     x="895.62"
     line-height="125%"
     style="font-size:129.22999573px;line-height:125%;font-family:'Gentium Book Basic';letter-spacing:0;word-spacing:0"
     id="text187504">
    <tspan
       y="-542.87"
       x="895.62"
       id="tspan187506" />
  </text>
  <text
     transform="scale(4.0128205,0.24920128)"
     y="-2527.5671"
     x="420.26782"
     style="font-size:46.95399857px;font-family:Arial;text-anchor:middle"
     id="text187508" />
  <text
     sodipodi:linespacing="125%"
     y="-1015.27"
     x="506.5"
     line-height="125%"
     style="font-size:129.22999573px;line-height:125%;font-family:'Gentium Book Basic';letter-spacing:0;word-spacing:0"
     id="text187510">
    <tspan
       y="-1015.27"
       x="506.5"
       id="tspan187512" />
  </text>
  <text
     transform="scale(4.0128205,0.24920128)"
     y="-4423.2075"
     x="323.29834"
     style="font-size:46.95399857px;font-family:Arial;text-anchor:middle"
     id="text187514" />
  <text
     sodipodi:linespacing="125%"
     y="-1095.27"
     x="1087.76"
     line-height="125%"
     style="font-size:129.22999573px;line-height:125%;font-family:'Gentium Book Basic';letter-spacing:0;word-spacing:0"
     id="text187516">
    <tspan
       y="-1095.27"
       x="1087.76"
       id="tspan187518" />
  </text>
  <text
     transform="scale(4.0128205,0.24920128)"
     y="-4744.2354"
     x="468.14758"
     style="font-size:46.95399857px;font-family:Arial;text-anchor:middle"
     id="text187520" />
  <text
     sodipodi:linespacing="125%"
     y="319.45001"
     x="-745.03998"
     line-height="125%"
     style="font-size:208.33000183px;line-height:125%;font-family:'Gentium Book Basic';letter-spacing:0;word-spacing:0"
     id="text187522">
    <tspan
       y="319.45001"
       x="-745.03998"
       id="tspan187524" />
  </text>
  <path
     style="fill-rule:evenodd;opacity:0.25"
     d="M 188.35938 170.71094 L 114.67969 213.33789 L 114.67969 213.33984 L 41.005859 255.96484 L 41.005859 255.9668 L 41 255.96875 L 297.0332 512 L 486 512 C 500.397 512 512 500.397 512 486 L 512 296.96094 L 471 255.96094 L 397.32031 213.33203 L 451.3418 267.35352 L 451.33594 267.35547 L 397.32031 213.33984 L 323.64062 170.71289 L 323.64062 213.33789 L 323.64062 213.33984 L 230.98828 213.33984 L 188.35938 170.71289 L 188.35938 170.71094 z "
     id="path187528" />
  <path
     inkscape:connector-curvature="0"
     d="m 188.36,170.71 -73.68,42.628 -73.68,42.628 73.68,42.699 73.68,42.628 0,-48.748 135.28,0 0,48.748 73.68,-42.628 73.68,-42.699 -73.68,-42.628 -73.68,-42.628 0,42.628 -135.28,0 0,-42.628"
     style="fill:#ffffff;fill-rule:evenodd"
     id="path187556" />
</svg>
