<?xml version="1.0" encoding="UTF-8" standalone="no"?>
<svg
   xmlns:dc="http://purl.org/dc/elements/1.1/"
   xmlns:cc="http://creativecommons.org/ns#"
   xmlns:rdf="http://www.w3.org/1999/02/22-rdf-syntax-ns#"
   xmlns:svg="http://www.w3.org/2000/svg"
   xmlns="http://www.w3.org/2000/svg"
   xmlns:sodipodi="http://sodipodi.sourceforge.net/DTD/sodipodi-0.dtd"
   xmlns:inkscape="http://www.inkscape.org/namespaces/inkscape"
   viewBox="0 0 512 512"
   id="svg2"
   version="1.1"
   inkscape:version="0.91+devel r13804 custom"
   sodipodi:docname="ted.svg">
  <metadata
     id="metadata472">
    <rdf:RDF>
      <cc:Work
         rdf:about="">
        <dc:format>image/svg+xml</dc:format>
        <dc:type
           rdf:resource="http://purl.org/dc/dcmitype/StillImage" />
        <dc:title></dc:title>
      </cc:Work>
    </rdf:RDF>
  </metadata>
  <sodipodi:namedview
     pagecolor="#ffffff"
     bordercolor="#666666"
     borderopacity="1"
     objecttolerance="10"
     gridtolerance="10"
     guidetolerance="10"
     inkscape:pageopacity="0"
     inkscape:pageshadow="2"
     inkscape:window-width="1366"
     inkscape:window-height="709"
     id="namedview470"
     showgrid="false"
     inkscape:zoom="0.4609375"
     inkscape:cx="455.59322"
     inkscape:cy="185.72986"
     inkscape:window-x="-2"
     inkscape:window-y="-3"
     inkscape:window-maximized="1"
     inkscape:current-layer="svg2" />
  <defs
     id="defs4" />
  <path
     inkscape:connector-curvature="0"
     d="M 26,0 C 11.603,0 0,11.603 0,26 l 0,460 c 0,14.397 11.603,26 26,26 l 460,0 c 14.397,0 26,-11.603 26,-26 L 512,26 C 512,11.603 500.397,0 486,0 L 26,0"
     style="fill:#c02929"
     id="path187780" />
  <text
     sodipodi:linespacing="125%"
     y="57.823002"
     x="-529.64001"
     line-height="125%"
     style="font-size:129.22999573px;line-height:125%;font-family:'Gentium Book Basic';letter-spacing:0;word-spacing:0"
     id="text187782">
    <tspan
       y="57.823002"
       x="-529.64001"
       id="tspan187784" />
  </text>
  <text
     transform="scale(4.0128205,0.24920128)"
     y="-117.1194"
     x="65.089661"
     style="font-size:46.95399857px;font-family:Arial;text-anchor:middle"
     id="text187786" />
  <text
     sodipodi:linespacing="125%"
     y="-22.18"
     x="51.632999"
     line-height="125%"
     style="font-size:129.22999573px;line-height:125%;font-family:'Gentium Book Basic';letter-spacing:0;word-spacing:0"
     id="text187788">
    <tspan
       y="-22.18"
       x="51.632999"
       id="tspan187790" />
  </text>
  <text
     transform="scale(4.0128205,0.24920128)"
     y="-438.14774"
     x="209.93893"
     style="font-size:46.95399857px;font-family:Arial;text-anchor:middle"
     id="text187792" />
  <text
     sodipodi:linespacing="125%"
     y="-203.44"
     x="-1019.95"
     line-height="125%"
     style="font-size:129.22999573px;line-height:125%;font-family:'Gentium Book Basic';letter-spacing:0;word-spacing:0"
     id="text187794">
    <tspan
       y="-203.44"
       x="-1019.95"
       id="tspan187796" />
  </text>
  <text
     transform="scale(4.0128205,0.24920128)"
     y="-1165.494"
     x="-57.089706"
     style="font-size:46.95399857px;font-family:Arial;text-anchor:middle"
     id="text187798" />
  <text
     sodipodi:linespacing="125%"
     y="-419.91"
     x="78.099998"
     line-height="125%"
     style="font-size:129.22999573px;line-height:125%;font-family:'Gentium Book Basic';letter-spacing:0;word-spacing:0"
     id="text187800">
    <tspan
       y="-419.91"
       x="78.099998"
       id="tspan187802" />
  </text>
  <text
     transform="scale(4.0128205,0.24920128)"
     y="-2034.1697"
     x="216.53888"
     style="font-size:46.95399857px;font-family:Arial;text-anchor:middle"
     id="text187804" />
  <text
     sodipodi:linespacing="125%"
     y="-499.91"
     x="659.37"
     line-height="125%"
     style="font-size:129.22999573px;line-height:125%;font-family:'Gentium Book Basic';letter-spacing:0;word-spacing:0"
     id="text187806">
    <tspan
       y="-499.91"
       x="659.37"
       id="tspan187808" />
  </text>
  <text
     transform="scale(4.0128205,0.24920128)"
     y="-2355.188"
     x="361.38815"
     style="font-size:46.95399857px;font-family:Arial;text-anchor:middle"
     id="text187810" />
  <text
     sodipodi:linespacing="125%"
     y="-972.31"
     x="270.25"
     line-height="125%"
     style="font-size:129.22999573px;line-height:125%;font-family:'Gentium Book Basic';letter-spacing:0;word-spacing:0"
     id="text187812">
    <tspan
       y="-972.31"
       x="270.25"
       id="tspan187814" />
  </text>
  <text
     transform="scale(4.0128205,0.24920128)"
     y="-4250.8281"
     x="264.41867"
     style="font-size:46.95399857px;font-family:Arial;text-anchor:middle"
     id="text187816" />
  <text
     sodipodi:linespacing="125%"
     y="-1052.3199"
     x="851.51001"
     line-height="125%"
     style="font-size:129.22999573px;line-height:125%;font-family:'Gentium Book Basic';letter-spacing:0;word-spacing:0"
     id="text187818">
    <tspan
       y="-1052.3199"
       x="851.51001"
       id="tspan187820" />
  </text>
  <text
     transform="scale(4.0128205,0.24920128)"
     y="-4571.8667"
     x="409.26788"
     style="font-size:46.95399857px;font-family:Arial;text-anchor:middle"
     id="text187822" />
  <text
     sodipodi:linespacing="125%"
     y="362.39999"
     x="-981.28998"
     line-height="125%"
     style="font-size:208.33000183px;line-height:125%;font-family:'Gentium Book Basic';letter-spacing:0;word-spacing:0"
     id="text187824">
    <tspan
       y="362.39999"
       x="-981.28998"
       id="tspan187826" />
  </text>
  <path
     d="M 183.24023 178.25 L 183.24023 185.59961 L 175.90039 178.25977 L 108.44922 178.25977 L 41 178.25977 L 41 198.19922 L 41 218.14062 L 84.619141 261.75977 L 84.619141 275.93945 L 84.630859 275.95117 L 84.630859 333.74023 L 84.621094 333.74023 L 262.88086 512 L 486 512 C 500.397 512 512 500.397 512 486 L 512 258.19922 L 450.16992 196.36914 C 450.21339 196.41261 450.25352 196.46028 450.29688 196.50391 L 450.16797 196.375 C 442.51772 188.72176 432.95387 183.47181 421.52734 180.65234 L 421.51758 180.64258 C 417.62858 179.68358 413.69922 179.05753 408.19922 178.51953 L 469.98438 240.30469 C 469.98453 240.30598 469.9842 240.3073 469.98438 240.30859 L 408.19727 178.52148 C 406.92745 178.3975 395.15321 178.33778 364.40039 178.30078 L 322.32031 178.25 L 322.32031 186.33008 L 314.24023 178.25 L 248.74023 178.25 L 183.24023 178.25 z "
     id="path187830"
     style="opacity:0.25" />
  <path
     inkscape:connector-curvature="0"
     d="m 84.62,275.94 0,-57.799 -21.812,0 -21.812,0 0,-19.94 0,-19.94 67.45,0 67.45,0 0,19.94 0,19.94 -21.74,0 -21.74,0 0,57.799 0,57.799 -23.899,0 -23.899,0 0,-57.799 m 98.62,-19.94 0,-77.75 65.5,0 65.5,0 0,19.868 0,19.868 -34.17,0 c -18.793,0 -37.48,0.044 -41.535,0.095 l -7.366,0.095 0,9.551 0,9.551 41.535,0 41.535,0 0,18.5 0,18.5 -41.535,0 -41.535,0 0,9.79 0,9.79 41.535,0 41.535,0 0,19.94 0,19.94 -65.5,0 -65.5,0 0,-77.75 m 139.08,0.001 0,-77.75 42.08,0.051 c 30.763,0.037 42.538,0.097 43.808,0.221 5.5,0.538 9.428,1.164 13.317,2.123 16.192,3.993 28.644,12.874 37.21,26.535 4.553,7.26 8.03,16.254 10.06,26 2.104,10.1 2.744,22.468 1.738,33.527 -1.497,16.439 -6.297,30.01 -14.353,40.584 -11.438,15.01 -29.13,23.704 -52.678,25.877 -5.771,0.533 -9.257,0.576 -45.658,0.578 l -35.525,0 0,-77.75 m 73.51,37.48 c 7.608,-1.234 13.02,-3.876 17.657,-8.62 6.261,-6.406 9.622,-16.613 9.638,-29.28 0.013,-5.871 -0.64,-10.179 -2.276,-15.12 -0.751,-2.269 -2.417,-5.797 -3.586,-7.594 -5.672,-8.723 -14.349,-13.448 -26.77,-14.578 -0.872,-0.08 -5.779,-0.144 -10.905,-0.144 l -9.323,0 0,37.872 0,37.872 11.842,-0.053 c 11.235,-0.049 11.939,-0.068 13.723,-0.357"
     style="fill:#ffffff"
     id="path187962" />
</svg>
