<?xml version="1.0" encoding="UTF-8" standalone="no"?>
<svg
   xmlns:dc="http://purl.org/dc/elements/1.1/"
   xmlns:cc="http://creativecommons.org/ns#"
   xmlns:rdf="http://www.w3.org/1999/02/22-rdf-syntax-ns#"
   xmlns:svg="http://www.w3.org/2000/svg"
   xmlns="http://www.w3.org/2000/svg"
   xmlns:sodipodi="http://sodipodi.sourceforge.net/DTD/sodipodi-0.dtd"
   xmlns:inkscape="http://www.inkscape.org/namespaces/inkscape"
   viewBox="0 0 512 512"
   id="svg2"
   version="1.1"
   inkscape:version="0.91+devel r13804 custom"
   sodipodi:docname="telegram.svg">
  <metadata
     id="metadata472">
    <rdf:RDF>
      <cc:Work
         rdf:about="">
        <dc:format>image/svg+xml</dc:format>
        <dc:type
           rdf:resource="http://purl.org/dc/dcmitype/StillImage" />
        <dc:title></dc:title>
      </cc:Work>
    </rdf:RDF>
  </metadata>
  <sodipodi:namedview
     pagecolor="#ffffff"
     bordercolor="#666666"
     borderopacity="1"
     objecttolerance="10"
     gridtolerance="10"
     guidetolerance="10"
     inkscape:pageopacity="0"
     inkscape:pageshadow="2"
     inkscape:window-width="1366"
     inkscape:window-height="709"
     id="namedview470"
     showgrid="false"
     inkscape:zoom="0.4609375"
     inkscape:cx="455.59322"
     inkscape:cy="185.72986"
     inkscape:window-x="-2"
     inkscape:window-y="-3"
     inkscape:window-maximized="1"
     inkscape:current-layer="svg2" />
  <defs
     id="defs4" />
  <path
     inkscape:connector-curvature="0"
     d="m 25.99956,-4.7e-4 c -14.397,0 -26,11.603 -26,26 l 0,460 c 0,14.397 11.603,26 26,26 l 460,0 c 14.397,0 26,-11.603 26,-26 l 0,-460 c 0,-14.397 -11.603,-26 -26,-26 l -460,0"
     style="fill:#66aabe"
     id="path193031" />
  <path
     inkscape:connector-curvature="0"
     d="m 451.52958,76.25032 c -3.06774,0.11195 -6.29795,0.866 -9.55859,2.3418 l -0.002,-0.002 -380.91011,146.4687 c -19.21,7.68 -24.12886,17.58694 -16.88086,24.83594 l 0.002,0.004 c 0.007,0.007 0.0161,0.0142 0.0234,0.0215 l 141.89063,141.89257 1.59179,5.2168 0.006,0.006 c 2.64626,7.28563 2.92023,11.93363 5.47071,14.48633 l 100.47851,100.47851 192.35938,0 c 14.397,0 26,-11.603 26,-26 l 0,-357.68945 -47.03125,-47.03125 c -3.486,-3.486 -8.2115,-5.2203 -13.4375,-5.0293 l -0.002,0 z"
     id="path193035"
     style="opacity:0.25" />
  <g
     transform="matrix(1.47737,0,0,1.47737,-1598.3904,-38.07048)"
     style="fill:#ffffff"
     id="g197359">
    <path
       inkscape:connector-curvature="0"
       d="m 1219.15,306 c -8.671,0 -7.197,-3.264 -10.188,-11.495 l -25.517,-83.67 157.92,-98.37 18.429,4.805 -15.31,41.834 z"
       style="opacity:0.4"
       id="path197361" />
    <path
       inkscape:connector-curvature="0"
       d="m 1219.15,306 c 6.691,0 9.657,-3.041 13.382,-6.671 5.751,-5.604 80.29,-77.83 80.29,-77.83 l -45.66,-11.02 -42.38,26.683 -5.639,66.61 z"
       style="opacity:0.4"
       id="path197363" />
    <path
       inkscape:connector-curvature="0"
       d="m 1223.7,237.98 107.86,79.45 c 12.309,6.77 21.19,3.265 24.26,-11.393 l 43.906,-206.27 c 4.495,-17.967 -6.87,-26.12 -18.645,-20.787 l -257.82,99.14 c -17.598,7.04 -17.495,16.825 -3.208,21.19 l 66.16,20.587 153.17,-96.34 c 7.23,-4.371 13.867,-2.02 8.42,2.798 z"
       id="path197365" />
  </g>
</svg>
