<?xml version="1.0" encoding="UTF-8" standalone="no"?>
<svg
   xmlns:dc="http://purl.org/dc/elements/1.1/"
   xmlns:cc="http://creativecommons.org/ns#"
   xmlns:rdf="http://www.w3.org/1999/02/22-rdf-syntax-ns#"
   xmlns:svg="http://www.w3.org/2000/svg"
   xmlns="http://www.w3.org/2000/svg"
   xmlns:sodipodi="http://sodipodi.sourceforge.net/DTD/sodipodi-0.dtd"
   xmlns:inkscape="http://www.inkscape.org/namespaces/inkscape"
   viewBox="0 0 512 512"
   id="svg2"
   version="1.1"
   inkscape:version="0.91+devel r13804 custom"
   sodipodi:docname="theme.svg">
  <metadata
     id="metadata472">
    <rdf:RDF>
      <cc:Work
         rdf:about="">
        <dc:format>image/svg+xml</dc:format>
        <dc:type
           rdf:resource="http://purl.org/dc/dcmitype/StillImage" />
        <dc:title></dc:title>
      </cc:Work>
    </rdf:RDF>
  </metadata>
  <sodipodi:namedview
     pagecolor="#ffffff"
     bordercolor="#666666"
     borderopacity="1"
     objecttolerance="10"
     gridtolerance="10"
     guidetolerance="10"
     inkscape:pageopacity="0"
     inkscape:pageshadow="2"
     inkscape:window-width="1366"
     inkscape:window-height="709"
     id="namedview470"
     showgrid="false"
     inkscape:zoom="0.4609375"
     inkscape:cx="455.59322"
     inkscape:cy="185.72986"
     inkscape:window-x="-2"
     inkscape:window-y="-3"
     inkscape:window-maximized="1"
     inkscape:current-layer="svg2" />
  <defs
     id="defs4" />
  <path
     inkscape:connector-curvature="0"
     d="M 26,0 C 11.603,0 0,11.603 0,26 l 0,460 c 0,14.397 11.603,26 26,26 l 460,0 c 14.397,0 26,-11.603 26,-26 L 512,26 C 512,11.603 500.397,0 486,0 L 26,0"
     style="fill:#cd1d31"
     id="path211719" />
  <text
     sodipodi:linespacing="125%"
     y="-101.72"
     x="53.310001"
     line-height="125%"
     style="font-size:129.22999573px;line-height:125%;font-family:'Gentium Book Basic';letter-spacing:0;word-spacing:0"
     id="text211721">
    <tspan
       y="-101.72"
       x="53.310001"
       id="tspan211723" />
  </text>
  <text
     transform="scale(4.0128205,0.24920128)"
     y="-757.33612"
     x="210.36891"
     style="font-size:46.95399857px;font-family:Arial;text-anchor:middle"
     id="text211725" />
  <text
     sodipodi:linespacing="125%"
     y="-181.72"
     x="634.58002"
     line-height="125%"
     style="font-size:129.22999573px;line-height:125%;font-family:'Gentium Book Basic';letter-spacing:0;word-spacing:0"
     id="text211727">
    <tspan
       y="-181.72"
       x="634.58002"
       id="tspan211729" />
  </text>
  <text
     transform="scale(4.0128205,0.24920128)"
     y="-1078.3645"
     x="355.20816"
     style="font-size:46.95399857px;font-family:Arial;text-anchor:middle"
     id="text211731" />
  <text
     sodipodi:linespacing="125%"
     y="-362.98001"
     x="-437"
     line-height="125%"
     style="font-size:129.22999573px;line-height:125%;font-family:'Gentium Book Basic';letter-spacing:0;word-spacing:0"
     id="text211733">
    <tspan
       y="-362.98001"
       x="-437"
       id="tspan211735" />
  </text>
  <text
     transform="scale(4.0128205,0.24920128)"
     y="-1805.7207"
     x="88.17955"
     style="font-size:46.95399857px;font-family:Arial;text-anchor:middle"
     id="text211737" />
  <text
     sodipodi:linespacing="125%"
     y="-579.45001"
     x="661.04999"
     line-height="125%"
     style="font-size:129.22999573px;line-height:125%;font-family:'Gentium Book Basic';letter-spacing:0;word-spacing:0"
     id="text211739">
    <tspan
       y="-579.45001"
       x="661.04999"
       id="tspan211741" />
  </text>
  <text
     transform="scale(4.0128205,0.24920128)"
     y="-2674.3762"
     x="361.80814"
     style="font-size:46.95399857px;font-family:Arial;text-anchor:middle"
     id="text211743" />
  <text
     sodipodi:linespacing="125%"
     y="-659.46002"
     x="1242.3199"
     line-height="125%"
     style="font-size:129.22999573px;line-height:125%;font-family:'Gentium Book Basic';letter-spacing:0;word-spacing:0"
     id="text211745">
    <tspan
       y="-659.46002"
       x="1242.3199"
       id="tspan211747" />
  </text>
  <text
     transform="scale(4.0128205,0.24920128)"
     y="-2995.4146"
     x="506.65741"
     style="font-size:46.95399857px;font-family:Arial;text-anchor:middle"
     id="text211749" />
  <text
     sodipodi:linespacing="125%"
     y="-1131.86"
     x="853.20001"
     line-height="125%"
     style="font-size:129.22999573px;line-height:125%;font-family:'Gentium Book Basic';letter-spacing:0;word-spacing:0"
     id="text211751">
    <tspan
       y="-1131.86"
       x="853.20001"
       id="tspan211753" />
  </text>
  <text
     transform="scale(4.0128205,0.24920128)"
     y="-4891.0552"
     x="409.6879"
     style="font-size:46.95399857px;font-family:Arial;text-anchor:middle"
     id="text211755" />
  <text
     sodipodi:linespacing="125%"
     y="-1211.86"
     x="1434.46"
     line-height="125%"
     style="font-size:129.22999573px;line-height:125%;font-family:'Gentium Book Basic';letter-spacing:0;word-spacing:0"
     id="text211757">
    <tspan
       y="-1211.86"
       x="1434.46"
       id="tspan211759" />
  </text>
  <text
     transform="scale(4.0128205,0.24920128)"
     y="-5212.083"
     x="554.53711"
     style="font-size:46.95399857px;font-family:Arial;text-anchor:middle"
     id="text211761" />
  <text
     sodipodi:linespacing="125%"
     y="202.86"
     x="-398.34"
     line-height="125%"
     style="font-size:208.33000183px;line-height:125%;font-family:'Gentium Book Basic';letter-spacing:0;word-spacing:0"
     id="text211763">
    <tspan
       y="202.86"
       x="-398.34"
       id="tspan211765" />
  </text>
  <path
     d="M 411.75 117.43945 C 408.367 117.44545 405.19207 118.3056 402.69141 119.28125 L 402.68945 119.2793 C 400.98645 119.4623 399.05095 120.27805 397.25195 121.87305 L 465.29492 189.91602 C 465.29754 189.92265 465.30011 189.92891 465.30273 189.93555 L 397.25 121.88086 L 306.41602 202.00586 L 306.41016 202 C 300.99716 206.789 296.60266 216.80225 298.47266 223.78125 L 298.4707 223.7793 L 301.21094 234.02148 L 284.76367 217.57422 L 284.75977 217.57031 C 282.15477 214.96531 278.5137 213.51809 274.7207 213.74609 L 289.51172 228.53711 L 289.51367 228.54297 L 274.7207 213.75 C 273.8497 213.803 272.9717 213.9525 272.0957 214.1875 L 290.63672 232.72852 L 290.63867 232.73828 L 272.08984 214.18945 L 221.13281 227.8418 L 221.13086 227.83984 C 214.13386 229.71484 210.00586 236.91039 211.88086 243.90039 L 265.6582 297.67773 L 265.65039 297.67969 L 211.88086 243.91016 L 216.02539 259.40625 L 198.33984 241.7207 C 194.69984 238.0807 189.6998 235.28539 185.3418 234.40039 L 204.13672 253.19531 L 204.14062 253.21094 L 185.33984 234.41016 L 66.591797 210.44141 L 66.589844 210.44141 L 66.589844 210.43945 C 65.702844 210.25645 64.884844 210.18045 64.089844 210.18945 C 62.764844 210.20445 61.572844 210.4682 60.589844 210.9082 L 60.589844 210.91016 C 52.082844 212.18616 38.229844 217.8677 44.214844 241.9707 L 44.222656 241.97852 C 52.617768 275.83786 34.476186 278.49169 43.689453 312.87695 L 118.24414 387.43164 L 118.24023 387.43555 L 43.6875 312.88086 C 52.900547 347.2653 69.923322 340.46881 79.589844 374 C 81.686844 381.283 84.531219 386.15722 87.699219 389.32422 L 210.375 512 L 486 512 C 500.397 512 512 500.397 512 486 L 512 210.34961 L 424.32031 122.66992 C 420.36031 118.70992 415.89491 117.43245 411.75391 117.43945 L 432.45703 138.14258 C 432.45762 138.14461 432.45839 138.1464 432.45898 138.14844 L 411.75 117.43945 z "
     id="path211769"
     style="opacity:0.25" />
  <path
     inkscape:connector-curvature="0"
     d="m 411.75,117.44 c -3.384,0.006 -6.559,0.868 -9.06,1.844 -1.703,0.183 -3.639,0.999 -5.438,2.594 l -90.84,80.13 c -5.413,4.789 -9.808,14.802 -7.938,21.781 l 13.563,50.688 c 1.868,6.971 10.747,12.957 17.938,13.813 l 115.75,13.25 c 1.48,0.178 2.757,0.053 3.906,-0.219 8.127,-0.754 24.587,-5.407 18.16,-31.28 -8.41,-33.874 9.743,-36.527 0.531,-70.906 -9.223,-34.386 -26.26,-27.624 -35.906,-61.16 -4.721,-16.403 -13.211,-20.544 -20.656,-20.531 M 64.1,210.194 c -1.325,0.015 -2.517,0.279 -3.5,0.719 -8.507,1.276 -22.36,6.957 -16.375,31.06 8.4,33.867 -9.745,36.518 -0.531,70.906 9.214,34.388 26.24,27.587 35.906,61.13 7.365,25.578 23.951,21.444 31.375,18.03 1.114,-0.335 2.276,-0.887 3.469,-1.781 l 93.63,-69.34 c 5.79,-4.334 10.493,-13.935 8.625,-20.906 l -13.594,-50.688 c -1.868,-6.971 -10.659,-13.467 -17.75,-14.906 L 66.605,210.449 c -0.887,-0.183 -1.705,-0.259 -2.5,-0.25 m 210.63,3.563 c -0.871,0.053 -1.749,0.203 -2.625,0.438 l -50.969,13.656 c -6.997,1.875 -11.125,9.07 -9.25,16.06 l 13.625,50.938 c 1.877,7.01 9.1,11.156 16.09,9.281 l 50.938,-13.656 c 6.997,-1.875 11.158,-9.06 9.281,-16.06 l -13.656,-50.938 c -1.642,-6.13 -7.343,-10.09 -13.438,-9.719"
     style="fill:#ffffff"
     id="path211847" />
</svg>
