<?xml version="1.0" encoding="UTF-8" standalone="no"?>
<svg
   xmlns:dc="http://purl.org/dc/elements/1.1/"
   xmlns:cc="http://creativecommons.org/ns#"
   xmlns:rdf="http://www.w3.org/1999/02/22-rdf-syntax-ns#"
   xmlns:svg="http://www.w3.org/2000/svg"
   xmlns="http://www.w3.org/2000/svg"
   xmlns:sodipodi="http://sodipodi.sourceforge.net/DTD/sodipodi-0.dtd"
   xmlns:inkscape="http://www.inkscape.org/namespaces/inkscape"
   viewBox="0 0 512 512"
   id="svg2"
   version="1.1"
   inkscape:version="0.91+devel r13804 custom"
   sodipodi:docname="thunderbird.svg">
  <metadata
     id="metadata472">
    <rdf:RDF>
      <cc:Work
         rdf:about="">
        <dc:format>image/svg+xml</dc:format>
        <dc:type
           rdf:resource="http://purl.org/dc/dcmitype/StillImage" />
        <dc:title></dc:title>
      </cc:Work>
    </rdf:RDF>
  </metadata>
  <sodipodi:namedview
     pagecolor="#ffffff"
     bordercolor="#666666"
     borderopacity="1"
     objecttolerance="10"
     gridtolerance="10"
     guidetolerance="10"
     inkscape:pageopacity="0"
     inkscape:pageshadow="2"
     inkscape:window-width="1366"
     inkscape:window-height="709"
     id="namedview470"
     showgrid="false"
     inkscape:zoom="0.4609375"
     inkscape:cx="455.59322"
     inkscape:cy="185.72986"
     inkscape:window-x="-2"
     inkscape:window-y="-3"
     inkscape:window-maximized="1"
     inkscape:current-layer="svg2" />
  <defs
     id="defs4" />
  <path
     inkscape:connector-curvature="0"
     d="M 26,0 C 11.603,0 0,11.603 0,26 l 0,460 c 0,14.397 11.603,26 26,26 l 460,0 c 14.397,0 26,-11.603 26,-26 L 512,26 C 512,11.603 500.397,0 486,0 L 26,0"
     style="fill:#0078ad"
     id="path212196" />
  <text
     sodipodi:linespacing="125%"
     y="-147.74001"
     x="-66.349998"
     line-height="125%"
     style="font-size:129.22999573px;line-height:125%;font-family:'Gentium Book Basic';letter-spacing:0;word-spacing:0"
     id="text212198">
    <tspan
       y="-147.74001"
       x="-66.349998"
       id="tspan212200" />
  </text>
  <text
     transform="scale(4.0128205,0.24920128)"
     y="-942.00519"
     x="180.54907"
     style="font-size:46.95399857px;font-family:Arial;text-anchor:middle"
     id="text212202" />
  <text
     sodipodi:linespacing="125%"
     y="-227.74001"
     x="514.91998"
     line-height="125%"
     style="font-size:129.22999573px;line-height:125%;font-family:'Gentium Book Basic';letter-spacing:0;word-spacing:0"
     id="text212204">
    <tspan
       y="-227.74001"
       x="514.91998"
       id="tspan212206" />
  </text>
  <text
     transform="scale(4.0128205,0.24920128)"
     y="-1263.0436"
     x="325.39832"
     style="font-size:46.95399857px;font-family:Arial;text-anchor:middle"
     id="text212208" />
  <text
     sodipodi:linespacing="125%"
     y="-409"
     x="-556.65997"
     line-height="125%"
     style="font-size:129.22999573px;line-height:125%;font-family:'Gentium Book Basic';letter-spacing:0;word-spacing:0"
     id="text212210">
    <tspan
       y="-409"
       x="-556.65997"
       id="tspan212212" />
  </text>
  <text
     transform="scale(4.0128205,0.24920128)"
     y="-1990.3799"
     x="58.359703"
     style="font-size:46.95399857px;font-family:Arial;text-anchor:middle"
     id="text212214" />
  <text
     sodipodi:linespacing="125%"
     y="-625.46997"
     x="541.39001"
     line-height="125%"
     style="font-size:129.22999573px;line-height:125%;font-family:'Gentium Book Basic';letter-spacing:0;word-spacing:0"
     id="text212216">
    <tspan
       y="-625.46997"
       x="541.39001"
       id="tspan212218" />
  </text>
  <text
     transform="scale(4.0128205,0.24920128)"
     y="-2859.0554"
     x="331.99829"
     style="font-size:46.95399857px;font-family:Arial;text-anchor:middle"
     id="text212220" />
  <text
     sodipodi:linespacing="125%"
     y="-705.46997"
     x="1122.66"
     line-height="125%"
     style="font-size:129.22999573px;line-height:125%;font-family:'Gentium Book Basic';letter-spacing:0;word-spacing:0"
     id="text212222">
    <tspan
       y="-705.46997"
       x="1122.66"
       id="tspan212224" />
  </text>
  <text
     transform="scale(4.0128205,0.24920128)"
     y="-3180.0837"
     x="476.83755"
     style="font-size:46.95399857px;font-family:Arial;text-anchor:middle"
     id="text212226" />
  <text
     sodipodi:linespacing="125%"
     y="-1177.87"
     x="733.53998"
     line-height="125%"
     style="font-size:129.22999573px;line-height:125%;font-family:'Gentium Book Basic';letter-spacing:0;word-spacing:0"
     id="text212228">
    <tspan
       y="-1177.87"
       x="733.53998"
       id="tspan212230" />
  </text>
  <text
     transform="scale(4.0128205,0.24920128)"
     y="-5075.7241"
     x="379.87805"
     style="font-size:46.95399857px;font-family:Arial;text-anchor:middle"
     id="text212232" />
  <text
     sodipodi:linespacing="125%"
     y="-1257.88"
     x="1314.8"
     line-height="125%"
     style="font-size:129.22999573px;line-height:125%;font-family:'Gentium Book Basic';letter-spacing:0;word-spacing:0"
     id="text212234">
    <tspan
       y="-1257.88"
       x="1314.8"
       id="tspan212236" />
  </text>
  <text
     transform="scale(4.0128205,0.24920128)"
     y="-5396.7622"
     x="524.71729"
     style="font-size:46.95399857px;font-family:Arial;text-anchor:middle"
     id="text212238" />
  <text
     sodipodi:linespacing="125%"
     y="156.84"
     x="-518"
     line-height="125%"
     style="font-size:208.33000183px;line-height:125%;font-family:'Gentium Book Basic';letter-spacing:0;word-spacing:0"
     id="text212240">
    <tspan
       y="156.84"
       x="-518"
       id="tspan212242" />
  </text>
  <path
     style="color:#000000;opacity:0.25"
     d="M 223.23047 41 C 199.78947 46.235 180.56178 59.160781 163.05078 82.675781 L 268.32031 187.94531 L 268.31641 187.94531 L 163.05078 82.679688 C 126.10792 107.58092 81.811333 115.28829 54.871094 199.08203 L 54.869141 199.08008 C 34.648141 249.56008 61.866328 318.58039 74.611328 345.65039 L 74.609375 345.65039 C 86.763375 365.45739 95.374456 377.99078 105.93945 388.55078 L 229.38867 512 L 486 512 C 500.397 512 512 500.397 512 486 L 512 214.42969 L 414.41016 116.83984 C 370.86728 73.296967 306.62658 59.853602 247.68164 65.451172 L 223.23047 41 z "
     id="path212246" />
  <path
     inkscape:connector-curvature="0"
     d="m 223.23,41 c -23.441,5.235 -42.669,18.16 -60.18,41.675 -36.944,24.902 -81.24,32.609 -108.18,116.41 -20.221,50.48 6.997,119.5 19.742,146.57 25.04,40.805 35.04,50.725 78.06,76.19 l 11.05,0.865 0.637,-5.868 12.828,5.959 3.412,-1.137 c -20.921,-16.877 -30.488,-23.478 -36.02,-52.768 12.586,12.587 39.929,29.25 44.859,22.791 -3.343,-5.346 -7.171,-10.486 -10.872,-15.739 l 135.93,44.44 c -14.678,17.08 -33.34,33.527 -57.41,48.13 25.566,1.872 45.552,-3.808 72.05,-14.33 l -22.791,16.194 c 16.976,4.244 63.895,-14.03 77.47,-34.476 13.01,7.278 42.493,-36.726 52.04,-57.723 20.869,-39.731 40.33,-112.43 19.788,-192.16 -35.506,-111.42 -150.38,-135.09 -239.74,-115.63 5.57,-5.131 10.336,-10.244 12.464,-15.375 -8.575,2.544 -22.09,13.01 -33.799,20.562 l 28.659,-34.576 m -104.4,120.24 c 4.748,0.054 10.579,2.814 17.832,9.508 -0.891,12.548 -1.111,23.899 -1.183,35.35 l -27.2,-39.08 c 2.785,-3.58 6.204,-5.827 10.554,-5.779 m 56.999,0.546 c 1.517,-0.062 3.059,0.265 4.413,1.047 4.331,2.5 5.461,8.648 2.547,13.693 -2.914,5.05 -8.771,7.095 -13.1,4.595 -4.331,-2.5 -5.507,-8.6 -2.593,-13.647 2,-3.471 5.397,-5.55 8.734,-5.686 m -72.92,15.375 32.526,46.764 c -0.004,2.62 -0.029,5.159 -0.046,7.87 1.17,-1.027 2.316,-1.97 3.458,-2.957 l 49.31,70.917 2.32,3.321 3.776,-1.502 144.66,-57.866 c 1.404,9.408 2.02,19.579 1.228,30.346 -3.458,12.292 -4.427,25.468 -10.1,36.938 16.91,-0.185 32.12,-21.355 38.39,-28.477 -2.234,33.74 -7.628,62.52 -25.886,96.76 -5.834,10.892 -12.831,21.885 -21.244,32.708 l -186.23,-60.957 c -14.724,-5.379 -29.452,-11.182 -44.17,-17.423 -5.924,-17.17 -10.967,-43.858 -15.421,-77.2 12.798,10.364 16.478,16.436 28.659,17.65 -10.73,-16.636 -13.449,-48.25 -7.779,-72.6 1.73,-7.429 3.627,-16.587 6.551,-24.292 m 123.42,4.959 c 6.083,-0.062 12,0.589 18.242,1.502 l 80.884,14.738 c 3.856,9.04 8.5,21.01 11.601,35.12 l -142.84,57.14 -47.584,-68.42 c 38.42,-31.976 59.831,-39.875 79.69,-40.08"
     style="color:#000000;fill:#ffffff"
     id="path212368" />
</svg>
