<?xml version="1.0" encoding="UTF-8" standalone="no"?>
<svg
   xmlns:dc="http://purl.org/dc/elements/1.1/"
   xmlns:cc="http://creativecommons.org/ns#"
   xmlns:rdf="http://www.w3.org/1999/02/22-rdf-syntax-ns#"
   xmlns:svg="http://www.w3.org/2000/svg"
   xmlns="http://www.w3.org/2000/svg"
   xmlns:sodipodi="http://sodipodi.sourceforge.net/DTD/sodipodi-0.dtd"
   xmlns:inkscape="http://www.inkscape.org/namespaces/inkscape"
   viewBox="0 0 512 512"
   id="svg2"
   version="1.1"
   inkscape:version="0.91+devel r13804 custom"
   sodipodi:docname="trimage.svg">
  <metadata
     id="metadata472">
    <rdf:RDF>
      <cc:Work
         rdf:about="">
        <dc:format>image/svg+xml</dc:format>
        <dc:type
           rdf:resource="http://purl.org/dc/dcmitype/StillImage" />
        <dc:title></dc:title>
      </cc:Work>
    </rdf:RDF>
  </metadata>
  <sodipodi:namedview
     pagecolor="#ffffff"
     bordercolor="#666666"
     borderopacity="1"
     objecttolerance="10"
     gridtolerance="10"
     guidetolerance="10"
     inkscape:pageopacity="0"
     inkscape:pageshadow="2"
     inkscape:window-width="1366"
     inkscape:window-height="709"
     id="namedview470"
     showgrid="false"
     inkscape:zoom="0.4609375"
     inkscape:cx="683.38983"
     inkscape:cy="174.88241"
     inkscape:window-x="-2"
     inkscape:window-y="-3"
     inkscape:window-maximized="1"
     inkscape:current-layer="svg2" />
  <defs
     id="defs4" />
  <path
     inkscape:connector-curvature="0"
     d="M 26,0 C 11.603,0 0,11.603 0,26 l 0,460 c 0,14.397 11.603,26 26,26 l 460,0 c 14.397,0 26,-11.603 26,-26 L 512,26 C 512,11.603 500.397,0 486,0 L 26,0"
     style="fill:#0078ad"
     id="path232557" />
  <text
     sodipodi:linespacing="125%"
     y="195.89"
     x="-363.95999"
     line-height="125%"
     style="font-size:129.22999573px;line-height:125%;font-family:'Gentium Book Basic';letter-spacing:0;word-spacing:0"
     id="text232559">
    <tspan
       y="195.89"
       x="-363.95999"
       id="tspan232561" />
  </text>
  <text
     transform="scale(4.0128205,0.24920128)"
     y="436.91779"
     x="106.37946"
     style="font-size:46.95399857px;font-family:Arial;text-anchor:middle"
     id="text232563" />
  <text
     sodipodi:linespacing="125%"
     y="115.89"
     x="217.31"
     line-height="125%"
     style="font-size:129.22999573px;line-height:125%;font-family:'Gentium Book Basic';letter-spacing:0;word-spacing:0"
     id="text232565">
    <tspan
       y="115.89"
       x="217.31"
       id="tspan232567" />
  </text>
  <text
     transform="scale(4.0128205,0.24920128)"
     y="115.8794"
     x="251.22871"
     style="font-size:46.95399857px;font-family:Arial;text-anchor:middle"
     id="text232569" />
  <text
     sodipodi:linespacing="125%"
     y="-65.370003"
     x="-854.27002"
     line-height="125%"
     style="font-size:129.22999573px;line-height:125%;font-family:'Gentium Book Basic';letter-spacing:0;word-spacing:0"
     id="text232571">
    <tspan
       y="-65.370003"
       x="-854.27002"
       id="tspan232573" />
  </text>
  <text
     transform="scale(4.0128205,0.24920128)"
     y="-611.46686"
     x="-15.806919"
     style="font-size:46.95399857px;font-family:Arial;text-anchor:middle"
     id="text232575" />
  <text
     sodipodi:linespacing="125%"
     y="-281.84"
     x="243.78"
     line-height="125%"
     style="font-size:129.22999573px;line-height:125%;font-family:'Gentium Book Basic';letter-spacing:0;word-spacing:0"
     id="text232577">
    <tspan
       y="-281.84"
       x="243.78"
       id="tspan232579" />
  </text>
  <text
     transform="scale(4.0128205,0.24920128)"
     y="-1480.1324"
     x="257.82867"
     style="font-size:46.95399857px;font-family:Arial;text-anchor:middle"
     id="text232581" />
  <text
     sodipodi:linespacing="125%"
     y="-361.84"
     x="825.04999"
     line-height="125%"
     style="font-size:129.22999573px;line-height:125%;font-family:'Gentium Book Basic';letter-spacing:0;word-spacing:0"
     id="text232583">
    <tspan
       y="-361.84"
       x="825.04999"
       id="tspan232585" />
  </text>
  <text
     transform="scale(4.0128205,0.24920128)"
     y="-1801.1608"
     x="402.67792"
     style="font-size:46.95399857px;font-family:Arial;text-anchor:middle"
     id="text232587" />
  <text
     sodipodi:linespacing="125%"
     y="-834.23999"
     x="435.92999"
     line-height="125%"
     style="font-size:129.22999573px;line-height:125%;font-family:'Gentium Book Basic';letter-spacing:0;word-spacing:0"
     id="text232589">
    <tspan
       y="-834.23999"
       x="435.92999"
       id="tspan232591" />
  </text>
  <text
     transform="scale(4.0128205,0.24920128)"
     y="-3696.801"
     x="305.70844"
     style="font-size:46.95399857px;font-family:Arial;text-anchor:middle"
     id="text232593" />
  <text
     sodipodi:linespacing="125%"
     y="-914.25"
     x="1017.19"
     line-height="125%"
     style="font-size:129.22999573px;line-height:125%;font-family:'Gentium Book Basic';letter-spacing:0;word-spacing:0"
     id="text232595">
    <tspan
       y="-914.25"
       x="1017.19"
       id="tspan232597" />
  </text>
  <text
     transform="scale(4.0128205,0.24920128)"
     y="-4017.8396"
     x="450.55768"
     style="font-size:46.95399857px;font-family:Arial;text-anchor:middle"
     id="text232599" />
  <text
     sodipodi:linespacing="125%"
     y="500.47"
     x="-815.60999"
     line-height="125%"
     style="font-size:208.33000183px;line-height:125%;font-family:'Gentium Book Basic';letter-spacing:0;word-spacing:0"
     id="text232601">
    <tspan
       y="500.47"
       x="-815.60999"
       id="tspan232603" />
  </text>
  <path
     d="M 374.50781 41.009766 C 329.5491 41.78363 221.36685 120.74962 193.14648 142.92578 L 193.14062 142.91992 C 162.54063 166.96992 44.685141 266.67931 50.119141 305.32031 L 50.121094 305.32227 C 51.054094 311.97027 55.993844 319.33955 63.714844 327.06055 L 63.890625 327.23438 C 63.832245 327.17627 63.769004 327.11861 63.710938 327.06055 L 248.65039 512 L 486 512 C 500.397 512 512 500.397 512 486 L 512 167.625 L 392.76172 48.386719 C 390.06672 45.691719 387.311 43.714172 384.5 42.576172 L 401.01562 59.091797 C 401.02347 59.104253 401.03122 59.116439 401.03906 59.128906 L 384.49023 42.580078 C 381.67539 41.440234 378.31808 40.94418 374.50781 41.009766 z "
     id="path232607"
     style="opacity:0.25" />
  <path
     inkscape:connector-curvature="0"
     d="M 443.85,464.8 C 413.246,488.85 268.35,436.188 232.32,421.59 196.28,406.994 55.55,343.96 50.12,305.32 44.686,266.679 162.54,166.97 193.14,142.92 223.744,118.87 348.46,27.98 384.49,42.57 c 36.04,14.596 63.08,166.96 68.51,205.6 5.434,38.641 21.449,192.57 -9.153,216.62"
     style="fill:#ffffff"
     id="path232623" />
</svg>
