<?xml version="1.0" encoding="UTF-8" standalone="no"?>
<svg
   xmlns:dc="http://purl.org/dc/elements/1.1/"
   xmlns:cc="http://creativecommons.org/ns#"
   xmlns:rdf="http://www.w3.org/1999/02/22-rdf-syntax-ns#"
   xmlns:svg="http://www.w3.org/2000/svg"
   xmlns="http://www.w3.org/2000/svg"
   xmlns:sodipodi="http://sodipodi.sourceforge.net/DTD/sodipodi-0.dtd"
   xmlns:inkscape="http://www.inkscape.org/namespaces/inkscape"
   viewBox="0 0 512 512"
   id="svg2"
   version="1.1"
   inkscape:version="0.91+devel r13804 custom"
   sodipodi:docname="truecrypt.svg">
  <metadata
     id="metadata472">
    <rdf:RDF>
      <cc:Work
         rdf:about="">
        <dc:format>image/svg+xml</dc:format>
        <dc:type
           rdf:resource="http://purl.org/dc/dcmitype/StillImage" />
        <dc:title></dc:title>
      </cc:Work>
    </rdf:RDF>
  </metadata>
  <sodipodi:namedview
     pagecolor="#ffffff"
     bordercolor="#666666"
     borderopacity="1"
     objecttolerance="10"
     gridtolerance="10"
     guidetolerance="10"
     inkscape:pageopacity="0"
     inkscape:pageshadow="2"
     inkscape:window-width="1366"
     inkscape:window-height="709"
     id="namedview470"
     showgrid="false"
     inkscape:zoom="0.4609375"
     inkscape:cx="683.38983"
     inkscape:cy="174.88241"
     inkscape:window-x="-2"
     inkscape:window-y="-3"
     inkscape:window-maximized="1"
     inkscape:current-layer="svg2" />
  <defs
     id="defs4" />
  <path
     inkscape:connector-curvature="0"
     d="m 25.99965,-5.1e-4 c -14.397,0 -26,11.603 -26,26 l 0,460 c 0,14.397 11.603,26 26,26 l 460,0 c 14.397,0 26,-11.603 26,-26 l 0,-460 c 0,-14.397 -11.603,-26 -26,-26 l -460,0"
     style="fill:#0c3f9c"
     id="path232817" />
  <path
     inkscape:connector-curvature="0"
     style="color:#000000;opacity:0.25;fill-rule:evenodd"
     d="m 319.16444,40.99611 25.43555,25.43555 0,0.008 -0.002,-0.002 -25.4375,-25.4375 c -14.04,0 -25.43945,11.3955 -25.43945,25.4375 L 319.12338,91.84 c -10e-4,0 -0.003,1e-5 -0.004,0 L 293.71913,66.43947 c 0,0.62069 0.0304,1.23423 0.0742,1.84375 L 273.94959,48.43947 c -4.59314,-4.59314 -10.93487,-7.43448 -17.94531,-7.43554 l -0.004,-0.004 c -14.04,0 -25.43946,11.3955 -25.43946,25.4375 l 25.40235,25.40234 c -0.001,0 -0.003,1e-5 -0.004,0 l -25.4002,-25.4003 c 0,0.62069 0.0304,1.23425 0.0742,1.84375 L 210.78944,48.43947 c -4.59314,-4.59314 -10.93487,-7.43448 -17.94531,-7.43554 l -0.004,-0.004 c -14.04,0 -25.43945,11.3955 -25.43945,25.4375 l 25.40429,25.4043 -0.004,0 -25.40235,-25.40235 c 0,7.01 2.84255,13.35622 7.43555,17.94922 l 0.084,0.084 c -0.0288,-0.0285 -0.0592,-0.0553 -0.0879,-0.084 l 82.31446,82.31446 c -0.3797,-0.0169 -0.76065,-0.0293 -1.14453,-0.0293 l 25.39648,25.39648 0,0.006 -25.39648,-25.39648 c -14.04,0 -25.43946,11.3955 -25.43946,25.4375 l 25.43182,25.43549 -25.43359,-25.43359 c 0,0.61732 0.0309,1.2276 0.0742,1.83399 l -19.84375,-19.84376 c -1.15779,-1.15778 -2.42639,-2.2034 -3.78906,-3.12109 l -59.37305,-59.37305 c 0.0821,0.0821 0.15924,0.16872 0.24023,0.25196 l -0.24804,-0.24805 c -4.60186,-4.60185 -10.9575,-7.45047 -17.97461,-7.45312 l -0.006,-0.006 c -14.04,0 -25.40235,11.3955 -25.40235,25.4375 l 0.004,0.004 c 5.3e-4,7.01922 2.83902,13.37027 7.43359,17.96485 l 0.16407,0.16406 c -0.0553,-0.0543 -0.11321,-0.10539 -0.16797,-0.16016 l 126.33984,126.33985 c 9.9e-4,9.8e-4 9.7e-4,0.003 0.002,0.004 l 19.84571,19.84571 c -0.6141,-0.0444 -1.23191,-0.0762 -1.85742,-0.0762 l 25.39648,25.39649 0,0.006 -25.39648,-25.39649 c -14.04,0 -25.43946,11.3955 -25.43946,25.4375 l 25.40625,25.40625 -0.004,0 -25.40418,-25.40447 c 0,7.01 2.84255,13.35621 7.43555,17.94922 l 20.00195,20.00195 c -0.65863,-0.0511 -1.32229,-0.0859 -1.99414,-0.0859 l 25.39648,25.39649 0,0.008 -25.39843,-25.39844 c -0.439,0 -0.90099,-0.022 -1.33399,0 -13.43251,0.68292 -24.10639,11.80056 -24.10742,25.40234 5.3e-4,7.01923 2.84956,13.37886 7.45312,17.98243 l 19.84376,19.84375 c -0.61269,-0.0441 -1.2295,-0.0742 -1.85352,-0.0742 l 25.39648,25.39648 0,0.008 -25.39843,-25.39843 c -14.04,0 -25.43946,11.35839 -25.43946,25.40039 l -0.002,-0.002 c 0,0.58011 0.0262,1.15412 0.0645,1.72461 l -19.83398,-19.83398 c -4.594,-4.594 -10.93722,-7.43555 -17.94922,-7.43555 l 25.40039,25.40039 0,0.006 -25.40039,-25.40039 c -14.03804,0 -25.43627,11.39235 -25.43945,25.43164 l -0.002,-0.002 c 0,7.02 2.84913,13.38037 7.45313,17.98437 l 0.16601,0.16602 c -0.0552,-0.0543 -0.11322,-0.10541 -0.16796,-0.16016 l 48.56054,48.56055 262.58985,0 c 14.397,0 26,-11.603 26,-26 l 0,-262.69922 L 337.14877,48.44973 c -4.604,-4.604 -10.96337,-7.45313 -17.98437,-7.45313 z"
     id="path237211" />
  <path
     inkscape:connector-curvature="0"
     d="m 192.83965,40.99949 c -14.04,0 -25.438,11.396 -25.438,25.438 0,14.04 11.396,25.402 25.438,25.402 14.04,0 25.402,-11.36 25.402,-25.402 0,-14.04 -11.36,-25.438 -25.402,-25.438 m 63.16,0 c -14.04,0 -25.438,11.396 -25.438,25.438 0,14.04 11.396,25.402 25.438,25.402 14.04,0 25.402,-11.36 25.402,-25.402 0,-14.04 -11.36,-25.438 -25.402,-25.438 m 63.16,0 c -14.04,0 -25.438,11.396 -25.438,25.438 0,14.04 11.396,25.402 25.438,25.402 14.04,0 25.438,-11.36 25.438,-25.402 0,-14.04 -11.396,-25.438 -25.438,-25.438 m -189.53,63.16 c -14.04,0 -25.402,11.396 -25.402,25.438 0,14.04 11.36,25.402 25.402,25.402 14.04,0 25.438,-11.36 25.438,-25.402 0,-14.04 -11.396,-25.438 -25.438,-25.438 m 252.69,0 c -14.04,0 -25.402,11.396 -25.402,25.438 0,14.04 11.36,25.402 25.402,25.402 14.04,0 25.438,-11.36 25.438,-25.402 0,-14.04 -11.396,-25.438 -25.438,-25.438 m -189.49,62.51 c -14.04,0 -25.438,11.396 -25.438,25.438 0,14.04 11.396,25.438 25.438,25.438 14.04,0 25.402,-11.396 25.402,-25.438 0,-14.04 -11.36,-25.438 -25.402,-25.438 m 63.16,0 c -14.04,0 -25.438,11.396 -25.438,25.438 0,14.04 11.396,25.438 25.438,25.438 14.04,0 25.402,-11.396 25.402,-25.438 0,-14.04 -11.36,-25.438 -25.402,-25.438 m 63.16,0 c -14.04,0 -25.438,11.396 -25.438,25.438 0,14.04 11.396,25.438 25.438,25.438 14.04,0 25.438,-11.396 25.438,-25.438 0,-14.04 -11.396,-25.438 -25.438,-25.438 m -63.16,63.848 c -14.04,0 -25.438,11.36 -25.438,25.402 0,14.04 11.396,25.438 25.438,25.438 14.04,0 25.402,-11.396 25.402,-25.438 0,-14.04 -11.36,-25.402 -25.402,-25.402 m 0,63.16 c -14.04,0 -25.438,11.396 -25.438,25.438 0,14.04 11.396,25.402 25.438,25.402 14.04,0 25.402,-11.36 25.402,-25.402 0,-14.04 -11.36,-25.438 -25.402,-25.438 m -1.333,63.31 c -13.435,0.681 -24.11,11.798 -24.11,25.402 0,14.04 11.396,25.438 25.438,25.438 14.04,0 25.402,-11.396 25.402,-25.438 0,-14.04 -11.36,-25.402 -25.402,-25.402 -0.439,0 -0.9,-0.022 -1.333,0 m -61.83,63.02 c -14.04,0 -25.438,11.396 -25.438,25.438 0,14.04 11.396,25.438 25.438,25.438 14.04,0 25.402,-11.396 25.402,-25.438 0,-14.04 -11.36,-25.438 -25.402,-25.438 m 63.16,0.144 c -14.04,0 -25.438,11.36 -25.438,25.402 0,14.04 11.396,25.438 25.438,25.438 14.04,0 25.402,-11.396 25.402,-25.438 0,-14.04 -11.36,-25.402 -25.402,-25.402"
     style="color:#000000;fill:#ffffff;fill-rule:evenodd"
     id="path237369" />
</svg>
