<?xml version="1.0" encoding="UTF-8" standalone="no"?>
<svg
   xmlns:dc="http://purl.org/dc/elements/1.1/"
   xmlns:cc="http://creativecommons.org/ns#"
   xmlns:rdf="http://www.w3.org/1999/02/22-rdf-syntax-ns#"
   xmlns:svg="http://www.w3.org/2000/svg"
   xmlns="http://www.w3.org/2000/svg"
   xmlns:sodipodi="http://sodipodi.sourceforge.net/DTD/sodipodi-0.dtd"
   xmlns:inkscape="http://www.inkscape.org/namespaces/inkscape"
   viewBox="0 0 512 512"
   id="svg2"
   version="1.1"
   inkscape:version="0.91+devel r13804 custom"
   sodipodi:docname="turpial.svg">
  <metadata
     id="metadata472">
    <rdf:RDF>
      <cc:Work
         rdf:about="">
        <dc:format>image/svg+xml</dc:format>
        <dc:type
           rdf:resource="http://purl.org/dc/dcmitype/StillImage" />
        <dc:title></dc:title>
      </cc:Work>
    </rdf:RDF>
  </metadata>
  <sodipodi:namedview
     pagecolor="#ffffff"
     bordercolor="#666666"
     borderopacity="1"
     objecttolerance="10"
     gridtolerance="10"
     guidetolerance="10"
     inkscape:pageopacity="0"
     inkscape:pageshadow="2"
     inkscape:window-width="1366"
     inkscape:window-height="709"
     id="namedview470"
     showgrid="false"
     inkscape:zoom="0.4609375"
     inkscape:cx="683.38983"
     inkscape:cy="174.88241"
     inkscape:window-x="-2"
     inkscape:window-y="-3"
     inkscape:window-maximized="1"
     inkscape:current-layer="svg2" />
  <defs
     id="defs4" />
  <path
     inkscape:connector-curvature="0"
     d="M 25.999664,0 C 11.602664,0 -3.35e-4,11.603 -3.35e-4,25.99999 l 0,460.00001 c 0,14.397 11.602999,26 25.999999,26 l 459.999996,0 c 14.397,0 26,-11.603 26,-26 l 0,-460.00001 C 511.99966,11.603 500.39666,0 485.99966,0 L 25.999664,0"
     style="fill:#fdd835"
     id="path247540" />
  <path
     inkscape:connector-curvature="0"
     d="m 317.38913,79.16951 c -0.96233,-0.006 -1.92105,-0.004 -2.87891,0.01 -0.003,4e-5 -0.007,-5e-5 -0.01,0 C 201.71535,80.76814 121.01807,215.01329 54.759994,296.87092 l 0.006,0.006 c -0.004,-0.002 -0.008,-0.004 -0.0117,-0.006 l 19.10156,19.10156 c -2.77964,-1.05837 -5.45718,-2.14043 -8.02539,-3.23632 l -13.26953,-13.26954 -0.002,0.004 c -3.86,4.72199 -7.79455,9.44286 -11.56055,13.75586 l 198.771486,198.77344 246.23046,0 c 14.39701,0 26.00001,-11.603 26,-26 l 0,-330.92969 -47.38085,-47.38086 -50.43946,3.58984 0,0.002 C 379.4243,88.94146 347.32237,79.35755 317.38913,79.16951 Z"
     id="path251982"
     style="opacity:0.25" />
  <path
     inkscape:connector-curvature="0"
     d="m 314.50966,79.17999 c -112.79,1.581 -193.49,135.83001 -259.749996,217.69001 23.18,12.782 65.179996,26.712 112.429996,26.712 30.893,0 63.965,-5.927 95.89,-21.727 38.959,-19.278 58.42,-54.596 58.41,-86.51999 -0.013,-18.311 -6.329,-35.512 -18.938,-48.04 -12.624,-12.509 -31.611,-20.733 -58.01,-20.733 -8.8,0 -18.5,0.988 -28.906,2.99 l -1.794,-9.169 c 10.932,-2.111 21.245,-3.19 30.7,-3.19 28.33,0 50.04,9.06 64.59,23.522 14.554,14.454 21.736,34.17 21.729,54.621 -0.013,35.676 -21.602,74.11 -63.59,94.89 -33.421,16.541 -68.01,22.726 -100.07,22.726 -49.52,0 -92.969996,-14.42 -117.619996,-28.11 l 2.99,-5.383 c -3.86,4.722 -7.796,9.443 -11.562,13.756 42.747,26.73599 84.349996,44.36 123.399996,54.01999 16.863,4.173 33.21,6.84801 49.04,8.173 l 10.366,57.40999 9.17,-1.595 -9.968,-55.22 c 8.06,0.402 15.993,0.31 23.723,0 l 10.366,56.815 9.17,-1.595 -9.967,-55.619 c 102.45,-8.06 172.9,-78.22 176.82,-175.83 0.504,-12.479 -0.095,-25.387 -1.794,-38.673 l 39.671,-20.533 -43.658,-2.791 37.28,-30.1 -50.44,3.588 c -35.877,-23.06 -68.925,-32.528 -99.68,-32.1 m 36.88,41.664 c 2.881,0 5.459,0.815 8.173,2.192 2.715,1.386 5.536,3.422 8.373,5.783 5.668,4.724 11.638,11.274 17.543,19.14 l -7.376,5.582 c -8.289,-11.1 -17.02,-19.263 -22.726,-22.13 -1.872,-0.965 -3.303,-1.21 -3.987,-1.21 l -0.598,0 -0.399,0.402 c -0.432,0.586 -1.218,2.652 -1.196,5.98 -0.014,4.997 1.315,12.771 4.585,23.524 l -8.771,2.789 c -3.413,-11.284 -5.169,-19.774 -5.183,-26.313 0.013,-3.269 0.423,-6.081 1.396,-8.572 0.943,-2.471 2.785,-4.743 5.183,-5.98 1.584,-0.838 3.313,-1.186 4.984,-1.186 m -81.53,38.475 -2.392,20.932 c -60.62,22.268 -100.71,74.66 -114.43,120.81 l -20.733,3.588 2.791,-8.971 c 15.261,-51.33 57.32,-107.81 125.79,-132.97 l 8.971,-3.39"
     style="fill:#ffffff"
     id="path252096" />
</svg>
