<?xml version="1.0" encoding="UTF-8" standalone="no"?>
<svg
   xmlns:dc="http://purl.org/dc/elements/1.1/"
   xmlns:cc="http://creativecommons.org/ns#"
   xmlns:rdf="http://www.w3.org/1999/02/22-rdf-syntax-ns#"
   xmlns:svg="http://www.w3.org/2000/svg"
   xmlns="http://www.w3.org/2000/svg"
   xmlns:sodipodi="http://sodipodi.sourceforge.net/DTD/sodipodi-0.dtd"
   xmlns:inkscape="http://www.inkscape.org/namespaces/inkscape"
   viewBox="0 0 512 512"
   id="svg2"
   version="1.1"
   inkscape:version="0.91+devel r13804 custom"
   sodipodi:docname="twitter.svg">
  <metadata
     id="metadata472">
    <rdf:RDF>
      <cc:Work
         rdf:about="">
        <dc:format>image/svg+xml</dc:format>
        <dc:type
           rdf:resource="http://purl.org/dc/dcmitype/StillImage" />
        <dc:title></dc:title>
      </cc:Work>
    </rdf:RDF>
  </metadata>
  <sodipodi:namedview
     pagecolor="#ffffff"
     bordercolor="#666666"
     borderopacity="1"
     objecttolerance="10"
     gridtolerance="10"
     guidetolerance="10"
     inkscape:pageopacity="0"
     inkscape:pageshadow="2"
     inkscape:window-width="1366"
     inkscape:window-height="709"
     id="namedview470"
     showgrid="false"
     inkscape:zoom="0.4609375"
     inkscape:cx="683.38983"
     inkscape:cy="174.88241"
     inkscape:window-x="-2"
     inkscape:window-y="-3"
     inkscape:window-maximized="1"
     inkscape:current-layer="svg2" />
  <defs
     id="defs4" />
  <path
     inkscape:connector-curvature="0"
     d="M 26,0 C 11.603,0 0,11.603 0,26 l 0,460 c 0,14.397 11.603,26 26,26 l 460,0 c 14.397,0 26,-11.603 26,-26 L 512,26 C 512,11.603 500.397,0 486,0 L 26,0"
     style="fill:#00abec"
     id="path275567" />
  <text
     sodipodi:linespacing="125%"
     y="-324.03"
     x="-259.64999"
     line-height="125%"
     style="font-size:129.22999573px;line-height:125%;font-family:'Gentium Book Basic';letter-spacing:0;word-spacing:0"
     id="text275569">
    <tspan
       y="-324.03"
       x="-259.64999"
       id="tspan275571" />
  </text>
  <text
     transform="scale(4.0128205,0.24920128)"
     y="-1649.4216"
     x="132.37933"
     style="font-size:46.95399857px;font-family:Arial;text-anchor:middle"
     id="text275573" />
  <text
     sodipodi:linespacing="125%"
     y="-404.03"
     x="321.62"
     line-height="125%"
     style="font-size:129.22999573px;line-height:125%;font-family:'Gentium Book Basic';letter-spacing:0;word-spacing:0"
     id="text275575">
    <tspan
       y="-404.03"
       x="321.62"
       id="tspan275577" />
  </text>
  <text
     transform="scale(4.0128205,0.24920128)"
     y="-1970.4498"
     x="277.22858"
     style="font-size:46.95399857px;font-family:Arial;text-anchor:middle"
     id="text275579" />
  <text
     sodipodi:linespacing="125%"
     y="-585.28998"
     x="-749.96002"
     line-height="125%"
     style="font-size:129.22999573px;line-height:125%;font-family:'Gentium Book Basic';letter-spacing:0;word-spacing:0"
     id="text275581">
    <tspan
       y="-585.28998"
       x="-749.96002"
       id="tspan275583" />
  </text>
  <text
     transform="scale(4.0128205,0.24920128)"
     y="-2697.8062"
     x="10.186948"
     style="font-size:46.95399857px;font-family:Arial;text-anchor:middle"
     id="text275585" />
  <text
     sodipodi:linespacing="125%"
     y="-801.76001"
     x="348.09"
     line-height="125%"
     style="font-size:129.22999573px;line-height:125%;font-family:'Gentium Book Basic';letter-spacing:0;word-spacing:0"
     id="text275587">
    <tspan
       y="-801.76001"
       x="348.09"
       id="tspan275589" />
  </text>
  <text
     transform="scale(4.0128205,0.24920128)"
     y="-3566.4617"
     x="283.82852"
     style="font-size:46.95399857px;font-family:Arial;text-anchor:middle"
     id="text275591" />
  <text
     sodipodi:linespacing="125%"
     y="-881.77002"
     x="929.35999"
     line-height="125%"
     style="font-size:129.22999573px;line-height:125%;font-family:'Gentium Book Basic';letter-spacing:0;word-spacing:0"
     id="text275593">
    <tspan
       y="-881.77002"
       x="929.35999"
       id="tspan275595" />
  </text>
  <text
     transform="scale(4.0128205,0.24920128)"
     y="-3887.5"
     x="428.66782"
     style="font-size:46.95399857px;font-family:Arial;text-anchor:middle"
     id="text275597" />
  <text
     sodipodi:linespacing="125%"
     y="-1354.17"
     x="540.23999"
     line-height="125%"
     style="font-size:129.22999573px;line-height:125%;font-family:'Gentium Book Basic';letter-spacing:0;word-spacing:0"
     id="text275599">
    <tspan
       y="-1354.17"
       x="540.23999"
       id="tspan275601" />
  </text>
  <text
     transform="scale(4.0128205,0.24920128)"
     y="-5783.1401"
     x="331.70828"
     style="font-size:46.95399857px;font-family:Arial;text-anchor:middle"
     id="text275603" />
  <text
     sodipodi:linespacing="125%"
     y="-1434.17"
     x="1121.5"
     line-height="125%"
     style="font-size:129.22999573px;line-height:125%;font-family:'Gentium Book Basic';letter-spacing:0;word-spacing:0"
     id="text275605">
    <tspan
       y="-1434.17"
       x="1121.5"
       id="tspan275607" />
  </text>
  <text
     transform="scale(4.0128205,0.24920128)"
     y="-6104.1689"
     x="476.54755"
     style="font-size:46.95399857px;font-family:Arial;text-anchor:middle"
     id="text275609" />
  <text
     sodipodi:linespacing="125%"
     y="-19.450001"
     x="-711.29999"
     line-height="125%"
     style="font-size:208.33000183px;line-height:125%;font-family:'Gentium Book Basic';letter-spacing:0;word-spacing:0"
     id="text275611">
    <tspan
       y="-19.450001"
       x="-711.29999"
       id="tspan275613" />
  </text>
  <path
     d="M 340.67188 74.078125 C 329.61052 74.011858 318.43716 75.477602 310.40039 78.359375 L 310.39062 78.349609 C 271.55462 92.816609 247.0093 130.06784 249.7793 170.83984 L 250.72266 186.60156 L 385.58984 321.46875 C 385.58856 321.47072 385.58722 321.47264 385.58594 321.47461 L 250.7207 186.60938 L 235.17969 184.66992 L 235.16992 184.66016 C 182.81354 177.81027 136.57791 155.80163 96.726562 119.17969 L 66.804688 89.257812 L 67.123047 89.582031 L 66.800781 89.259766 L 61.515625 104.70703 L 61.519531 104.71094 C 50.321531 139.05094 57.49025 175.38906 80.78125 199.78906 L 80.779297 199.78906 C 93.186297 213.23906 90.411078 215.18263 68.955078 207.14062 L 278.45703 416.64453 L 68.951172 207.14062 C 61.528894 204.60431 55.003077 202.66651 54.355469 203.625 L 54.349609 203.61914 C 52.198609 205.88514 59.635828 235.09816 65.548828 246.66016 L 65.552734 246.66406 C 69.320719 254.17975 74.926077 261.61462 81.669922 268.35547 L 81.763672 268.44922 C 81.729898 268.41554 81.693874 268.38333 81.660156 268.34961 L 108.71289 295.40234 L 105.32031 295.46289 L 239.72656 429.86914 C 239.72457 429.86964 239.7227 429.87059 239.7207 429.87109 L 105.32031 295.4707 C 87.895315 295.4707 87.310391 295.79106 89.150391 302.53906 C 91.889391 311.72906 98.169782 321.16092 106.67578 329.66992 L 149.43359 372.42773 C 124.64286 387.09882 95.563751 395.35285 66.490234 395.99805 L 66.490234 396 C 52.514234 396.32 41.003906 397.61884 41.003906 398.58984 L 43.228516 400.81445 C 43.224965 400.81194 43.220339 400.80915 43.216797 400.80664 L 41 398.58984 C 41 398.81959 41.198087 399.12753 41.572266 399.50195 L 154.07031 512 L 486 512 C 500.397 512 512 500.397 512 486 L 512 133.39062 L 460.36914 81.759766 C 459.78714 81.177766 455.41123 82.7275 450.49023 85.4375 L 450.49023 85.439453 C 444.89058 88.628258 432.48078 93.480542 423.16797 96.349609 L 406.37305 101.80469 L 406.36914 101.80078 L 391.14062 91.214844 L 447.68945 147.76367 C 447.68837 147.76477 447.68663 147.76453 447.68555 147.76562 L 391.14062 91.220703 C 382.76637 85.443908 370.98379 79.018773 364.75977 77.070312 L 364.75781 77.070312 C 357.82113 75.109336 349.28105 74.129701 340.67188 74.078125 z "
     id="path275617"
     style="opacity:0.25" />
  <path
     inkscape:connector-curvature="0"
     d="m 310.39,78.35 c -38.836,14.467 -63.38,51.718 -60.61,92.49 l 0.942,15.762 -15.55,-1.942 c -56.53,-7.396 -105.94,-32.449 -147.86,-74.51 L 66.796,89.257 61.511,104.704 c -11.198,34.34 -4.03,70.68 19.261,95.08 12.407,13.45 9.631,15.392 -11.825,7.35 -7.436,-2.541 -13.976,-4.483 -14.603,-3.512 -2.151,2.266 5.285,31.478 11.198,43.04 8.06,16.09 24.547,31.801 42.552,41.13 l 15.229,7.35 -18.01,0.322 c -17.425,0 -18.01,0.322 -16.17,7.07 6.227,20.893 30.772,43.04 58.1,52.694 l 19.261,6.749 -16.752,10.261 c -24.861,14.791 -54.07,23.11 -83.27,23.758 -13.976,0.32 -25.487,1.618 -25.487,2.589 0,3.189 37.898,21.17 59.972,28.24 66.16,20.893 144.78,11.88 203.81,-23.758 41.926,-25.376 83.9,-75.81 103.47,-124.62 10.571,-26.02 21.14,-73.54 21.14,-96.38 0,-14.745 0.896,-16.687 18.32,-34.34 10.258,-10.261 19.887,-21.54 21.725,-24.729 3.136,-6.102 2.822,-6.102 -13.03,-0.647 -26.427,9.614 -30.15,8.366 -17.07,-6.102 9.631,-10.261 21.1,-28.888 21.1,-34.34 0,-0.971 -4.658,0.601 -9.945,3.512 -5.6,3.189 -18.01,8.04 -27.323,10.909 l -16.798,5.454 -15.229,-10.585 c -8.376,-5.778 -20.16,-12.203 -26.383,-14.15 -15.856,-4.483 -40.09,-3.836 -54.38,1.295"
     style="fill:#ffffff"
     id="path275699" />
</svg>
