<?xml version="1.0" encoding="UTF-8" standalone="no"?>
<svg
   xmlns:dc="http://purl.org/dc/elements/1.1/"
   xmlns:cc="http://creativecommons.org/ns#"
   xmlns:rdf="http://www.w3.org/1999/02/22-rdf-syntax-ns#"
   xmlns:svg="http://www.w3.org/2000/svg"
   xmlns="http://www.w3.org/2000/svg"
   xmlns:sodipodi="http://sodipodi.sourceforge.net/DTD/sodipodi-0.dtd"
   xmlns:inkscape="http://www.inkscape.org/namespaces/inkscape"
   viewBox="0 0 512 512"
   id="svg2"
   version="1.1"
   inkscape:version="0.91+devel r13804 custom"
   sodipodi:docname="typecatcher.svg">
  <metadata
     id="metadata472">
    <rdf:RDF>
      <cc:Work
         rdf:about="">
        <dc:format>image/svg+xml</dc:format>
        <dc:type
           rdf:resource="http://purl.org/dc/dcmitype/StillImage" />
        <dc:title></dc:title>
      </cc:Work>
    </rdf:RDF>
  </metadata>
  <sodipodi:namedview
     pagecolor="#ffffff"
     bordercolor="#666666"
     borderopacity="1"
     objecttolerance="10"
     gridtolerance="10"
     guidetolerance="10"
     inkscape:pageopacity="0"
     inkscape:pageshadow="2"
     inkscape:window-width="1366"
     inkscape:window-height="709"
     id="namedview470"
     showgrid="false"
     inkscape:zoom="0.4609375"
     inkscape:cx="683.38983"
     inkscape:cy="174.88241"
     inkscape:window-x="-2"
     inkscape:window-y="-3"
     inkscape:window-maximized="1"
     inkscape:current-layer="svg2" />
  <defs
     id="defs4" />
  <path
     inkscape:connector-curvature="0"
     d="m 25.9975,-0.007 c -14.397,0 -26,11.603 -26,26 l 0,460 c 0,14.397 11.603,26 26,26 l 460,0 c 14.397,0 26,-11.603 26,-26 l 0,-460 c 0,-14.397 -11.603,-26 -26,-26 l -460,0"
     style="fill:#6788cc"
     id="path276065" />
  <path
     inkscape:connector-curvature="0"
     d="m 298.3775,158.023 c -35.396,0 -61.732,7.545 -88.91,25.5 -27.27,18.02 -50.99,46.509 -62.53,74.938 -4.394,10.831 -6.381,13.915 -8.688,13.531 -1.641,-0.272 -10.23,-0.578 -19.06,-0.688 -29.07,-0.359 -50.13,8.03 -70.22,28.13 -13.216,13.216 -21.19,26.911 -25.438,43.38 -2.934,11.381 -3.882,33.734 -1.844,43.844 l 1.188,5.969 -9.813,2 c -4.508,0.931 -8.865,2.278 -13.06,4 l 0,87.38 c 0,14.397 11.603,26 26,26 l 460,0 c 14.397,0 26,-11.603 26,-26 l 0,-161.34 c -12.444,-8.27 -26.515,-14.331 -41.781,-17.5 l -8.906,-1.813 -2.094,-12.969 c -4.817,-30.962 -18.997,-58.995 -42.41,-83.72 -32.739,-34.581 -70.24,-50.625 -118.44,-50.625"
     style="fill:#ffffff;fill-opacity:0.44600004;fill-rule:evenodd"
     id="path276067" />
  <text
     sodipodi:linespacing="125%"
     y="327.423"
     x="-370.0925"
     line-height="125%"
     style="font-size:129.22999573px;line-height:125%;font-family:'Gentium Book Basic';letter-spacing:0;word-spacing:0"
     id="text276069">
    <tspan
       y="327.423"
       x="-370.0925"
       id="tspan276071" />
  </text>
  <text
     transform="scale(4.0128205,0.24920128)"
     y="964.72699"
     x="104.84884"
     style="font-size:46.95399857px;font-family:Arial;text-anchor:middle"
     id="text276073" />
  <text
     sodipodi:linespacing="125%"
     y="247.42299"
     x="211.17749"
     line-height="125%"
     style="font-size:129.22999573px;line-height:125%;font-family:'Gentium Book Basic';letter-spacing:0;word-spacing:0"
     id="text276075">
    <tspan
       y="247.42299"
       x="211.17749"
       id="tspan276077" />
  </text>
  <text
     transform="scale(4.0128205,0.24920128)"
     y="643.6886"
     x="249.69809"
     style="font-size:46.95399857px;font-family:Arial;text-anchor:middle"
     id="text276079" />
  <text
     sodipodi:linespacing="125%"
     y="66.162994"
     x="-860.40253"
     line-height="125%"
     style="font-size:129.22999573px;line-height:125%;font-family:'Gentium Book Basic';letter-spacing:0;word-spacing:0"
     id="text276081">
    <tspan
       y="66.162994"
       x="-860.40253"
       id="tspan276083" />
  </text>
  <text
     transform="scale(4.0128205,0.24920128)"
     y="-83.657661"
     x="-17.336535"
     style="font-size:46.95399857px;font-family:Arial;text-anchor:middle"
     id="text276085" />
  <text
     sodipodi:linespacing="125%"
     y="-150.30701"
     x="237.64749"
     line-height="125%"
     style="font-size:129.22999573px;line-height:125%;font-family:'Gentium Book Basic';letter-spacing:0;word-spacing:0"
     id="text276087">
    <tspan
       y="-150.30701"
       x="237.64749"
       id="tspan276089" />
  </text>
  <text
     transform="scale(4.0128205,0.24920128)"
     y="-952.32318"
     x="256.29807"
     style="font-size:46.95399857px;font-family:Arial;text-anchor:middle"
     id="text276091" />
  <text
     sodipodi:linespacing="125%"
     y="-230.30701"
     x="818.91748"
     line-height="125%"
     style="font-size:129.22999573px;line-height:125%;font-family:'Gentium Book Basic';letter-spacing:0;word-spacing:0"
     id="text276093">
    <tspan
       y="-230.30701"
       x="818.91748"
       id="tspan276095" />
  </text>
  <text
     transform="scale(4.0128205,0.24920128)"
     y="-1273.3516"
     x="401.14731"
     style="font-size:46.95399857px;font-family:Arial;text-anchor:middle"
     id="text276097" />
  <text
     sodipodi:linespacing="125%"
     y="-702.70703"
     x="429.79749"
     line-height="125%"
     style="font-size:129.22999573px;line-height:125%;font-family:'Gentium Book Basic';letter-spacing:0;word-spacing:0"
     id="text276099">
    <tspan
       y="-702.70703"
       x="429.79749"
       id="tspan276101" />
  </text>
  <text
     transform="scale(4.0128205,0.24920128)"
     y="-3168.9919"
     x="304.17783"
     style="font-size:46.95399857px;font-family:Arial;text-anchor:middle"
     id="text276103" />
  <text
     sodipodi:linespacing="125%"
     y="-782.71704"
     x="1011.0575"
     line-height="125%"
     style="font-size:129.22999573px;line-height:125%;font-family:'Gentium Book Basic';letter-spacing:0;word-spacing:0"
     id="text276105">
    <tspan
       y="-782.71704"
       x="1011.0575"
       id="tspan276107" />
  </text>
  <text
     transform="scale(4.0128205,0.24920128)"
     y="-3490.0303"
     x="449.02707"
     style="font-size:46.95399857px;font-family:Arial;text-anchor:middle"
     id="text276109" />
  <text
     sodipodi:linespacing="125%"
     y="632.00299"
     x="-821.74249"
     line-height="125%"
     style="font-size:208.33000183px;line-height:125%;font-family:'Gentium Book Basic';letter-spacing:0;word-spacing:0"
     id="text276111">
    <tspan
       y="632.00299"
       x="-821.74249"
       id="tspan276113" />
  </text>
  <path
     d="M 317.9082 44.712891 L 317.9082 44.714844 L 128.7168 370.96289 C 98.329794 421.41289 74.832953 440.30273 43.876953 440.30273 L 70.847656 467.27344 L 70.84375 467.27344 L 43.873047 440.30273 L 40.998047 467.27148 L 40.998047 467.27344 L 85.716797 511.99219 L 485.99805 511.99219 C 500.39505 511.99219 511.99805 500.38919 511.99805 485.99219 L 511.99805 215.27344 L 341.4375 44.712891 L 317.9082 44.712891 z "
     id="path276117"
     style="opacity:0.25" />
  <path
     inkscape:connector-curvature="0"
     d="m 317.9075,44.712 -189.19,326.25 c -30.387,50.45 -53.884,69.34 -84.84,69.34 l -2.875,26.969 154.22,0 3.438,-26.969 -13.75,0 c -29.813,0 -39.563,-5.706 -39.563,-22.906 0,-8.6 3.433,-20.06 10.313,-31.531 l 31.531,-55.06 146.22,0 13.188,70.53 c 1.147,6.88 2.281,14.33 2.281,18.344 0,16.627 -8.601,20.625 -41.28,20.625 l -9.156,0 -2.875,26.969 172.56,0 2.875,-26.969 -14.344,0 c -31.533,0 -37.829,-5.155 -43.563,-34.969 l -71.66,-360.62 -23.531,0 m -21.781,94.59 32.688,164.56 -126.12,0 93.44,-164.56"
     style="fill:#ffffff"
     id="path276169" />
</svg>
