<?xml version="1.0" encoding="UTF-8" standalone="no"?>
<svg
   xmlns:dc="http://purl.org/dc/elements/1.1/"
   xmlns:cc="http://creativecommons.org/ns#"
   xmlns:rdf="http://www.w3.org/1999/02/22-rdf-syntax-ns#"
   xmlns:svg="http://www.w3.org/2000/svg"
   xmlns="http://www.w3.org/2000/svg"
   xmlns:sodipodi="http://sodipodi.sourceforge.net/DTD/sodipodi-0.dtd"
   xmlns:inkscape="http://www.inkscape.org/namespaces/inkscape"
   viewBox="0 0 512 512"
   id="svg2"
   version="1.1"
   inkscape:version="0.91+devel r13804 custom"
   sodipodi:docname="ubuntuone.svg">
  <metadata
     id="metadata472">
    <rdf:RDF>
      <cc:Work
         rdf:about="">
        <dc:format>image/svg+xml</dc:format>
        <dc:type
           rdf:resource="http://purl.org/dc/dcmitype/StillImage" />
        <dc:title></dc:title>
      </cc:Work>
    </rdf:RDF>
  </metadata>
  <sodipodi:namedview
     pagecolor="#ffffff"
     bordercolor="#666666"
     borderopacity="1"
     objecttolerance="10"
     gridtolerance="10"
     guidetolerance="10"
     inkscape:pageopacity="0"
     inkscape:pageshadow="2"
     inkscape:window-width="1366"
     inkscape:window-height="709"
     id="namedview470"
     showgrid="false"
     inkscape:zoom="0.4609375"
     inkscape:cx="683.38983"
     inkscape:cy="174.88241"
     inkscape:window-x="-2"
     inkscape:window-y="-3"
     inkscape:window-maximized="1"
     inkscape:current-layer="svg2" />
  <defs
     id="defs4" />
  <path
     inkscape:connector-curvature="0"
     d="M 26,0 C 11.603,0 0,11.603 0,26 l 0,460 c 0,14.397 11.603,26 26,26 l 460,0 c 14.397,0 26,-11.603 26,-26 L 512,26 C 512,11.603 500.397,0 486,0 L 26,0"
     style="fill:#ff6600"
     id="path278016" />
  <text
     sodipodi:linespacing="125%"
     y="159.07001"
     x="-434.51999"
     line-height="125%"
     style="font-size:129.22999573px;line-height:125%;font-family:'Gentium Book Basic';letter-spacing:0;word-spacing:0"
     id="text278018">
    <tspan
       y="159.07001"
       x="-434.51999"
       id="tspan278020" />
  </text>
  <text
     transform="scale(4.0128205,0.24920128)"
     y="289.15851"
     x="88.799545"
     style="font-size:46.95399857px;font-family:Arial;text-anchor:middle"
     id="text278022" />
  <text
     sodipodi:linespacing="125%"
     y="79.07"
     x="146.75"
     line-height="125%"
     style="font-size:129.22999573px;line-height:125%;font-family:'Gentium Book Basic';letter-spacing:0;word-spacing:0"
     id="text278024">
    <tspan
       y="79.07"
       x="146.75"
       id="tspan278026" />
  </text>
  <text
     transform="scale(4.0128205,0.24920128)"
     y="-31.864836"
     x="233.6488"
     style="font-size:46.95399857px;font-family:Arial;text-anchor:middle"
     id="text278028" />
  <text
     sodipodi:linespacing="125%"
     y="-102.19"
     x="-924.83002"
     line-height="125%"
     style="font-size:129.22999573px;line-height:125%;font-family:'Gentium Book Basic';letter-spacing:0;word-spacing:0"
     id="text278030">
    <tspan
       y="-102.19"
       x="-924.83002"
       id="tspan278032" />
  </text>
  <text
     transform="scale(4.0128205,0.24920128)"
     y="-759.21606"
     x="-33.39283"
     style="font-size:46.95399857px;font-family:Arial;text-anchor:middle"
     id="text278034" />
  <text
     sodipodi:linespacing="125%"
     y="-318.66"
     x="173.22"
     line-height="125%"
     style="font-size:129.22999573px;line-height:125%;font-family:'Gentium Book Basic';letter-spacing:0;word-spacing:0"
     id="text278036">
    <tspan
       y="-318.66"
       x="173.22"
       id="tspan278038" />
  </text>
  <text
     transform="scale(4.0128205,0.24920128)"
     y="-1627.8817"
     x="240.24876"
     style="font-size:46.95399857px;font-family:Arial;text-anchor:middle"
     id="text278040" />
  <text
     sodipodi:linespacing="125%"
     y="-398.67001"
     x="754.48999"
     line-height="125%"
     style="font-size:129.22999573px;line-height:125%;font-family:'Gentium Book Basic';letter-spacing:0;word-spacing:0"
     id="text278042">
    <tspan
       y="-398.67001"
       x="754.48999"
       id="tspan278044" />
  </text>
  <text
     transform="scale(4.0128205,0.24920128)"
     y="-1948.92"
     x="385.09802"
     style="font-size:46.95399857px;font-family:Arial;text-anchor:middle"
     id="text278046" />
  <text
     sodipodi:linespacing="125%"
     y="-871.07001"
     x="365.37"
     line-height="125%"
     style="font-size:129.22999573px;line-height:125%;font-family:'Gentium Book Basic';letter-spacing:0;word-spacing:0"
     id="text278048">
    <tspan
       y="-871.07001"
       x="365.37"
       id="tspan278050" />
  </text>
  <text
     transform="scale(4.0128205,0.24920128)"
     y="-3844.5603"
     x="288.12854"
     style="font-size:46.95399857px;font-family:Arial;text-anchor:middle"
     id="text278052" />
  <text
     sodipodi:linespacing="125%"
     y="-951.07001"
     x="946.63"
     line-height="125%"
     style="font-size:129.22999573px;line-height:125%;font-family:'Gentium Book Basic';letter-spacing:0;word-spacing:0"
     id="text278054">
    <tspan
       y="-951.07001"
       x="946.63"
       id="tspan278056" />
  </text>
  <text
     transform="scale(4.0128205,0.24920128)"
     y="-4165.5786"
     x="432.96777"
     style="font-size:46.95399857px;font-family:Arial;text-anchor:middle"
     id="text278058" />
  <text
     sodipodi:linespacing="125%"
     y="463.64999"
     x="-886.16998"
     line-height="125%"
     style="font-size:208.33000183px;line-height:125%;font-family:'Gentium Book Basic';letter-spacing:0;word-spacing:0"
     id="text278060">
    <tspan
       y="463.64999"
       x="-886.16998"
       id="tspan278062" />
  </text>
  <path
     style="fill-opacity:0.94100001;opacity:0.25"
     d="M 208.09961 41 L 150.15625 139.73047 L 52.816406 42.390625 L 54.667969 324.08008 C 54.667969 324.08008 53.92125 374.58055 95.90625 416.56055 L 96.199219 416.85352 C 96.103998 416.75882 96.004941 416.6651 95.910156 416.57031 L 191.33984 512 L 486 512 C 500.397 512 512 500.397 512 486 L 512 96.271484 L 457.85938 42.130859 L 324.41016 42.130859 L 324.41016 157.31055 L 208.09961 41 z "
     id="path278066" />
  <path
     inkscape:connector-curvature="0"
     d="m 52.816,42.39 1.851,281.69 c 0,0 -1.747,118.38 150.8,143.33 87.78,14.333 253.71,-18.946 253.71,-18.946 l -1.323,-406.34 -133.45,0 0,316.18 -125.51,0 0,-209.32 -54.18,0 63.38,-107.99 z"
     style="fill:#ffffff;fill-opacity:0.94100001"
     id="path278088" />
</svg>
