<?xml version="1.0" encoding="UTF-8" standalone="no"?>
<svg
   xmlns:dc="http://purl.org/dc/elements/1.1/"
   xmlns:cc="http://creativecommons.org/ns#"
   xmlns:rdf="http://www.w3.org/1999/02/22-rdf-syntax-ns#"
   xmlns:svg="http://www.w3.org/2000/svg"
   xmlns="http://www.w3.org/2000/svg"
   xmlns:sodipodi="http://sodipodi.sourceforge.net/DTD/sodipodi-0.dtd"
   xmlns:inkscape="http://www.inkscape.org/namespaces/inkscape"
   viewBox="0 0 512 512"
   id="svg2"
   version="1.1"
   inkscape:version="0.91 r13725"
   sodipodi:docname="unity-webapps-yandexmail.svg">
  <metadata
     id="metadata1044">
    <rdf:RDF>
      <cc:Work
         rdf:about="">
        <dc:format>image/svg+xml</dc:format>
        <dc:type
           rdf:resource="http://purl.org/dc/dcmitype/StillImage" />
      </cc:Work>
    </rdf:RDF>
  </metadata>
  <defs
     id="defs1042" />
  <sodipodi:namedview
     pagecolor="#ffffff"
     bordercolor="#666666"
     borderopacity="1"
     objecttolerance="10"
     gridtolerance="10"
     guidetolerance="10"
     inkscape:pageopacity="0"
     inkscape:pageshadow="2"
     inkscape:window-width="640"
     inkscape:window-height="480"
     id="namedview1040"
     showgrid="false"
     inkscape:zoom="0.5546875"
     inkscape:cx="36.056338"
     inkscape:cy="240.67606"
     inkscape:current-layer="svg2" />
  <path
     inkscape:connector-curvature="0"
     style="fill:#8a704d"
     d="M 26,0 C 11.603,0 0,11.603 0,26 l 0,460 c 0,14.397 11.603,26 26,26 l 460,0 c 14.397,0 26,-11.603 26,-26 L 512,26 C 512,11.603 500.4,0 486,0 L 26,0"
     id="path4" />
  <path
     inkscape:connector-curvature="0"
     style="opacity:0.25"
     d="m 61.41,94.75 322.5,322.5 -11.38,0 L 256,300.72 l -52.11,-45.59 162.12,162.12 -0.01,0 -162.12,-162.12 -1.19,1.33 -19.03,-19.03 -8.42,9.42 L 41,112.61 l 0,284.5 19.02,19.01 -1.01,1.13 94.75,94.75 332.24,0 c 14.4,0 26,-11.6 26,-26 l 0,-332.4 -41,-41 0,2.56 -20.41,-20.41 -389.18,0"
     id="path1036" />
  <path
     inkscape:connector-curvature="0"
     style="fill:#ffffff"
     d="m 308.1,255.13 144.87,162.12 -393.95,0 L 203.89,255.13 256,300.72 M 450.59,94.75 61.41,94.75 256,265.03 m 72.33,-27.583 142.67,159.65 0,-284.5 m -430,0 0,284.5 142.66,-159.67"
     id="path1038" />
</svg>
