<?xml version="1.0" encoding="UTF-8" standalone="no"?>
<svg
   xmlns:dc="http://purl.org/dc/elements/1.1/"
   xmlns:cc="http://creativecommons.org/ns#"
   xmlns:rdf="http://www.w3.org/1999/02/22-rdf-syntax-ns#"
   xmlns:svg="http://www.w3.org/2000/svg"
   xmlns="http://www.w3.org/2000/svg"
   xmlns:sodipodi="http://sodipodi.sourceforge.net/DTD/sodipodi-0.dtd"
   xmlns:inkscape="http://www.inkscape.org/namespaces/inkscape"
   viewBox="0 0 512 512"
   id="svg2"
   version="1.1"
   inkscape:version="0.91+devel r13804 custom"
   sodipodi:docname="unlock.svg">
  <metadata
     id="metadata472">
    <rdf:RDF>
      <cc:Work
         rdf:about="">
        <dc:format>image/svg+xml</dc:format>
        <dc:type
           rdf:resource="http://purl.org/dc/dcmitype/StillImage" />
        <dc:title></dc:title>
      </cc:Work>
    </rdf:RDF>
  </metadata>
  <sodipodi:namedview
     pagecolor="#ffffff"
     bordercolor="#666666"
     borderopacity="1"
     objecttolerance="10"
     gridtolerance="10"
     guidetolerance="10"
     inkscape:pageopacity="0"
     inkscape:pageshadow="2"
     inkscape:window-width="1366"
     inkscape:window-height="709"
     id="namedview470"
     showgrid="false"
     inkscape:zoom="0.4609375"
     inkscape:cx="683.38983"
     inkscape:cy="174.88241"
     inkscape:window-x="-2"
     inkscape:window-y="-3"
     inkscape:window-maximized="1"
     inkscape:current-layer="svg2" />
  <defs
     id="defs4" />
  <path
     inkscape:connector-curvature="0"
     d="M 26,0 C 11.603,0 0,11.603 0,26 l 0,460 c 0,14.397 11.603,26 26,26 l 460,0 c 14.397,0 26,-11.603 26,-26 L 512,26 C 512,11.603 500.397,0 486,0 L 26,0"
     style="fill:#499f26"
     id="path305015" />
  <text
     sodipodi:linespacing="125%"
     y="-46.330002"
     x="-164.19"
     line-height="125%"
     style="font-size:129.22999573px;line-height:125%;font-family:'Gentium Book Basic';letter-spacing:0;word-spacing:0"
     id="text305017">
    <tspan
       y="-46.330002"
       x="-164.19"
       id="tspan305019" />
  </text>
  <text
     transform="scale(4.0128205,0.24920128)"
     y="-535.08728"
     x="156.15921"
     style="font-size:46.95399857px;font-family:Arial;text-anchor:middle"
     id="text305021" />
  <text
     sodipodi:linespacing="125%"
     y="-126.33"
     x="417.07999"
     line-height="125%"
     style="font-size:129.22999573px;line-height:125%;font-family:'Gentium Book Basic';letter-spacing:0;word-spacing:0"
     id="text305023">
    <tspan
       y="-126.33"
       x="417.07999"
       id="tspan305025" />
  </text>
  <text
     transform="scale(4.0128205,0.24920128)"
     y="-856.1156"
     x="301.00845"
     style="font-size:46.95399857px;font-family:Arial;text-anchor:middle"
     id="text305027" />
  <text
     sodipodi:linespacing="125%"
     y="-307.60001"
     x="-654.5"
     line-height="125%"
     style="font-size:129.22999573px;line-height:125%;font-family:'Gentium Book Basic';letter-spacing:0;word-spacing:0"
     id="text305029">
    <tspan
       y="-307.60001"
       x="-654.5"
       id="tspan305031" />
  </text>
  <text
     transform="scale(4.0128205,0.24920128)"
     y="-1583.4719"
     x="33.974823"
     style="font-size:46.95399857px;font-family:Arial;text-anchor:middle"
     id="text305033" />
  <text
     sodipodi:linespacing="125%"
     y="-524.06"
     x="443.54999"
     line-height="125%"
     style="font-size:129.22999573px;line-height:125%;font-family:'Gentium Book Basic';letter-spacing:0;word-spacing:0"
     id="text305035">
    <tspan
       y="-524.06"
       x="443.54999"
       id="tspan305037" />
  </text>
  <text
     transform="scale(4.0128205,0.24920128)"
     y="-2452.1274"
     x="307.6084"
     style="font-size:46.95399857px;font-family:Arial;text-anchor:middle"
     id="text305039" />
  <text
     sodipodi:linespacing="125%"
     y="-604.07001"
     x="1024.8199"
     line-height="125%"
     style="font-size:129.22999573px;line-height:125%;font-family:'Gentium Book Basic';letter-spacing:0;word-spacing:0"
     id="text305041">
    <tspan
       y="-604.07001"
       x="1024.8199"
       id="tspan305043" />
  </text>
  <text
     transform="scale(4.0128205,0.24920128)"
     y="-2773.1658"
     x="452.45767"
     style="font-size:46.95399857px;font-family:Arial;text-anchor:middle"
     id="text305045" />
  <text
     sodipodi:linespacing="125%"
     y="-1076.47"
     x="635.70001"
     line-height="125%"
     style="font-size:129.22999573px;line-height:125%;font-family:'Gentium Book Basic';letter-spacing:0;word-spacing:0"
     id="text305047">
    <tspan
       y="-1076.47"
       x="635.70001"
       id="tspan305049" />
  </text>
  <text
     transform="scale(4.0128205,0.24920128)"
     y="-4668.8062"
     x="355.48816"
     style="font-size:46.95399857px;font-family:Arial;text-anchor:middle"
     id="text305051" />
  <text
     sodipodi:linespacing="125%"
     y="-1156.47"
     x="1216.96"
     line-height="125%"
     style="font-size:129.22999573px;line-height:125%;font-family:'Gentium Book Basic';letter-spacing:0;word-spacing:0"
     id="text305053">
    <tspan
       y="-1156.47"
       x="1216.96"
       id="tspan305055" />
  </text>
  <text
     transform="scale(4.0128205,0.24920128)"
     y="-4989.8345"
     x="500.33743"
     style="font-size:46.95399857px;font-family:Arial;text-anchor:middle"
     id="text305057" />
  <g
     transform="translate(-893.83,-277.69)"
     line-height="125%"
     style="font-size:208.33000183px;line-height:125%;font-family:'Gentium Book Basic';letter-spacing:0;word-spacing:0"
     id="g305059">
    <text
       y="535.94"
       x="277.98999"
       id="text305061">
      <tspan
         y="535.94"
         x="277.98999"
         id="tspan305063" />
    </text>
    <text
       y="11.553"
       x="-860.84003"
       id="text305065">
      <tspan
         y="11.553"
         x="-860.84003"
         id="tspan305067" />
    </text>
    <text
       y="289.67001"
       x="-3219.6699"
       id="text305069">
      <tspan
         y="289.67001"
         x="-3219.6699"
         id="tspan305071" />
    </text>
    <text
       y="62.380001"
       x="-2931.46"
       id="text305073">
      <tspan
         y="62.380001"
         x="-2931.46"
         id="tspan305075" />
    </text>
    <text
       y="-194.52"
       x="1263.14"
       id="text305077">
      <tspan
         y="-194.52"
         x="1263.14"
         id="tspan305079" />
    </text>
    <text
       y="-49.48"
       x="-864.78998"
       id="text305081">
      <tspan
         y="-49.48"
         x="-864.78998"
         id="tspan305083" />
    </text>
    <text
       y="228.64"
       x="-3223.6201"
       id="text305085">
      <tspan
         y="228.64"
         x="-3223.6201"
         id="tspan305087" />
    </text>
    <text
       y="1.35"
       x="-2935.4099"
       id="text305089">
      <tspan
         y="1.35"
         x="-2935.4099"
         id="tspan305091" />
    </text>
  </g>
  <path
     style="fill-rule:evenodd;opacity:0.25"
     d="M 254.17969 40.998047 L 369.83984 156.6582 L 369.83984 156.67969 L 254.16016 41 C 197.88016 41 140.89064 78.567076 140.89062 135.58008 L 140.89062 239.32031 L 99.191406 239.32031 L 99.189453 239.32031 L 99.189453 471 L 140.18945 512 L 486 512 C 500.397 512 512 500.397 512 486 L 512 243.71875 L 343.7207 75.439453 C 323.6907 55.409453 292.92369 40.998047 254.17969 40.998047 z "
     id="path305097" />
  <path
     id="path305151"
     style="fill:#ffffff;fill-rule:evenodd"
     d="m 254.16,41 c -56.28,0 -113.27,37.567 -113.27,94.58 l 0,103.74 -41.699,0 0,231.68 313.62,0 0,-231.68 c -74.25,-0.019 -152.42,-0.001 -220.4,0 l 0.092,-0.046 0,-92.7 c 0,-34.962 34.786,-53.48 60.853,-53.613 30.3,-0.158 63.33,20.967 63.33,53.2 l 0,14.984 49.12,0 c 1.365,0 2.711,0.103 4.03,0.276 l 0,-28.686 c 0,-42.846 -44.3,-91.73 -115.66,-91.73 m 0.595,249.14 c 17.338,0 31.388,14.05 31.388,31.388 0,10.338 -5.03,19.483 -12.739,25.2 l 12.464,69.834 -61.674,0 12.373,-69.46 c -7.978,-5.692 -13.197,-15.02 -13.197,-25.57 0,-17.338 14.05,-31.388 31.388,-31.388"
     inkscape:connector-curvature="0" />
</svg>
