<?xml version="1.0" encoding="UTF-8" standalone="no"?>
<svg
   xmlns:dc="http://purl.org/dc/elements/1.1/"
   xmlns:cc="http://creativecommons.org/ns#"
   xmlns:rdf="http://www.w3.org/1999/02/22-rdf-syntax-ns#"
   xmlns:svg="http://www.w3.org/2000/svg"
   xmlns="http://www.w3.org/2000/svg"
   xmlns:sodipodi="http://sodipodi.sourceforge.net/DTD/sodipodi-0.dtd"
   xmlns:inkscape="http://www.inkscape.org/namespaces/inkscape"
   viewBox="0 0 512 512"
   id="svg2"
   version="1.1"
   inkscape:version="0.91+devel r13804 custom"
   sodipodi:docname="unsettings.svg">
  <metadata
     id="metadata472">
    <rdf:RDF>
      <cc:Work
         rdf:about="">
        <dc:format>image/svg+xml</dc:format>
        <dc:type
           rdf:resource="http://purl.org/dc/dcmitype/StillImage" />
        <dc:title></dc:title>
      </cc:Work>
    </rdf:RDF>
  </metadata>
  <sodipodi:namedview
     pagecolor="#ffffff"
     bordercolor="#666666"
     borderopacity="1"
     objecttolerance="10"
     gridtolerance="10"
     guidetolerance="10"
     inkscape:pageopacity="0"
     inkscape:pageshadow="2"
     inkscape:window-width="1366"
     inkscape:window-height="709"
     id="namedview470"
     showgrid="false"
     inkscape:zoom="0.4609375"
     inkscape:cx="683.38983"
     inkscape:cy="174.88241"
     inkscape:window-x="-2"
     inkscape:window-y="-3"
     inkscape:window-maximized="1"
     inkscape:current-layer="svg2" />
  <defs
     id="defs4" />
  <path
     inkscape:connector-curvature="0"
     d="M 26,0 C 11.603,0 0,11.603 0,26 l 0,460 c 0,14.397 11.603,26 26,26 l 460,0 c 14.397,0 26,-11.603 26,-26 L 512,26 C 512,11.603 500.397,0 486,0 L 26,0"
     style="fill:#924565"
     id="path305533" />
  <text
     sodipodi:linespacing="125%"
     y="327.82001"
     x="1685.55"
     line-height="125%"
     style="font-size:129.22999573px;line-height:125%;font-family:'Gentium Book Basic';letter-spacing:0;word-spacing:0"
     id="text305535">
    <tspan
       y="327.82001"
       x="1685.55"
       id="tspan305537" />
  </text>
  <text
     transform="scale(4.0128205,0.24920128)"
     y="966.31506"
     x="617.11682"
     style="font-size:46.95399857px;font-family:Arial;text-anchor:middle"
     id="text305539" />
  <text
     sodipodi:linespacing="125%"
     y="247.82001"
     x="2266.8201"
     line-height="125%"
     style="font-size:129.22999573px;line-height:125%;font-family:'Gentium Book Basic';letter-spacing:0;word-spacing:0"
     id="text305541">
    <tspan
       y="247.82001"
       x="2266.8201"
       id="tspan305543" />
  </text>
  <text
     transform="scale(4.0128205,0.24920128)"
     y="645.28668"
     x="761.96606"
     style="font-size:46.95399857px;font-family:Arial;text-anchor:middle"
     id="text305545" />
  <text
     sodipodi:linespacing="125%"
     y="66.559998"
     x="1195.24"
     line-height="125%"
     style="font-size:129.22999573px;line-height:125%;font-family:'Gentium Book Basic';letter-spacing:0;word-spacing:0"
     id="text305547">
    <tspan
       y="66.559998"
       x="1195.24"
       id="tspan305549" />
  </text>
  <text
     transform="scale(4.0128205,0.24920128)"
     y="-82.059578"
     x="494.92746"
     style="font-size:46.95399857px;font-family:Arial;text-anchor:middle"
     id="text305551" />
  <text
     sodipodi:linespacing="125%"
     y="-149.91"
     x="2293.29"
     line-height="125%"
     style="font-size:129.22999573px;line-height:125%;font-family:'Gentium Book Basic';letter-spacing:0;word-spacing:0"
     id="text305553">
    <tspan
       y="-149.91"
       x="2293.29"
       id="tspan305555" />
  </text>
  <text
     transform="scale(4.0128205,0.24920128)"
     y="-950.73511"
     x="768.5661"
     style="font-size:46.95399857px;font-family:Arial;text-anchor:middle"
     id="text305557" />
  <text
     sodipodi:linespacing="125%"
     y="-229.91"
     x="2874.5601"
     line-height="125%"
     style="font-size:129.22999573px;line-height:125%;font-family:'Gentium Book Basic';letter-spacing:0;word-spacing:0"
     id="text305559">
    <tspan
       y="-229.91"
       x="2874.5601"
       id="tspan305561" />
  </text>
  <text
     transform="scale(4.0128205,0.24920128)"
     y="-1271.7535"
     x="913.41528"
     style="font-size:46.95399857px;font-family:Arial;text-anchor:middle"
     id="text305563" />
  <text
     sodipodi:linespacing="125%"
     y="-702.31"
     x="2485.4399"
     line-height="125%"
     style="font-size:129.22999573px;line-height:125%;font-family:'Gentium Book Basic';letter-spacing:0;word-spacing:0"
     id="text305565">
    <tspan
       y="-702.31"
       x="2485.4399"
       id="tspan305567" />
  </text>
  <text
     transform="scale(4.0128205,0.24920128)"
     y="-3167.3938"
     x="816.44586"
     style="font-size:46.95399857px;font-family:Arial;text-anchor:middle"
     id="text305569" />
  <text
     sodipodi:linespacing="125%"
     y="-782.32001"
     x="3066.7"
     line-height="125%"
     style="font-size:129.22999573px;line-height:125%;font-family:'Gentium Book Basic';letter-spacing:0;word-spacing:0"
     id="text305571">
    <tspan
       y="-782.32001"
       x="3066.7"
       id="tspan305573" />
  </text>
  <text
     transform="scale(4.0128205,0.24920128)"
     y="-3488.4321"
     x="961.29504"
     style="font-size:46.95399857px;font-family:Arial;text-anchor:middle"
     id="text305575" />
  <text
     sodipodi:linespacing="125%"
     y="632.40002"
     x="1233.9"
     line-height="125%"
     style="font-size:208.33000183px;line-height:125%;font-family:'Gentium Book Basic';letter-spacing:0;word-spacing:0"
     id="text305577">
    <tspan
       y="632.40002"
       x="1233.9"
       id="tspan305579" />
  </text>
  <path
     style="color:#000000;opacity:0.25"
     d="M 190.83984 41 L 181.19141 50.603516 L 181.18945 50.603516 C 169.37545 58.096516 177.63333 72.073609 173.98633 82.724609 L 173.98047 82.720703 C 171.87747 88.452703 166.84706 89.587062 156.53906 89.789062 C 142.70106 89.371062 138.8993 92.933641 133.5293 98.306641 L 190.35352 155.13086 C 190.35337 155.13215 190.35366 155.13348 190.35352 155.13477 L 133.5293 98.310547 L 76.359375 155.48047 C 72.004375 160.12947 42.931375 193.11023 41.109375 246.99023 C 40.963375 260.82823 43.797406 303.3207 57.691406 317.2207 L 57.693359 317.2207 L 107.44922 366.97656 L 107.44922 366.97852 L 77.580078 397.0293 C 60.560078 414.0493 60.560078 441.21047 77.580078 458.23047 L 77.777344 458.42773 C 77.712494 458.36366 77.644637 458.30479 77.580078 458.24023 L 131.33984 512 L 486 512 C 500.397 512 512 500.397 512 486 L 512 174.56055 L 468.08984 130.65039 L 467.95312 130.78516 L 405.57422 68.40625 L 405.57031 68.410156 C 401.15322 66.885469 390.14205 65.129518 384.41406 64.876953 L 384.41016 64.873047 C 362.17059 64.634052 340.20197 73.215846 323.16211 90.242188 L 323.16016 90.242188 C 306.91682 106.48674 298.52736 127.04855 297.87695 148.03711 L 190.83984 41 z "
     id="path305583" />
  <path
     inkscape:connector-curvature="0"
     d="m 190.84,41 -9.649,9.604 c -11.814,7.493 -3.556,21.469 -7.203,32.12 -2.103,5.732 -7.133,6.868 -17.441,7.07 -13.838,-0.418 -17.64,3.144 -23.01,8.517 l -57.17,57.17 c -4.355,4.649 -33.428,37.63 -35.25,91.51 -0.163,15.495 3.408,66.919 22.06,73.888 6.626,-2.833 7.113,-46.37 16.807,-72.57 5.965,-12.08 16.978,-26.616 26.457,-34.384 17.11,-13.821 41.755,-17.855 57.53,-4.44 l 75.65,75.65 c -9.02,9.01 -8.971,23.51 0.045,32.527 l 146.46,146.51 c 9.02,9.02 23.51,9.02 32.527,0 L 451.225,431.6 c 9.02,-9.02 9.02,-23.51 0,-32.527 l -146.46,-146.51 c -9.02,-9.02 -23.555,-9.02 -32.572,0 l -73.12,-73.12 c -14.15,-10.795 -9.382,-34.33 -0.544,-44.577 6.573,-7.324 16.196,-10.469 25.958,-11.733 11.606,-0.835 15.08,-0.722 24.871,-10.51 l 6.524,-6.524 -65.05,-65.1 m 193.58,23.874 c -22.24,-0.239 -44.21,8.342 -61.25,25.369 -22.721,22.722 -30.08,53.892 -22.379,82.86 l -36.559,36.559 15.675,16.717 c 14.836,-2.838 30.602,-1.419 41.769,9.74 l 20.884,20.11 20.16,-20.11 c 28.968,7.705 60.14,0.347 82.86,-22.379 22.577,-22.578 29.981,-54.26 22.515,-83.08 l -29.9,29.9 c -17.277,17.277 -45.1,17.277 -62.38,0 -17.277,-17.277 -17.277,-45.1 0,-62.38 l 29.764,-29.764 c -4.418,-1.525 -15.433,-3.282 -21.16,-3.534 m -187.37,211.97 -119.46,120.19 c -17.02,17.02 -17.02,44.19 0,61.2 17.02,17.02 44.18,17.02 61.2,0 l 103.79,-103.74 -20.16,-20.16 c -11.169,-11.167 -12.532,-26.979 -9.695,-41.814 l -15.675,-15.675 m -88.84,129.16 c 5.559,0 11.388,1.683 15.629,5.935 8.484,8.482 8.484,22.14 0,30.624 -8.483,8.487 -22.1,8.484 -30.579,0 -8.483,-8.482 -8.484,-22.14 0,-30.624 4.241,-4.242 9.39,-5.937 14.95,-5.935"
     style="color:#000000;fill:#ffffff"
     id="path305707" />
</svg>
