<?xml version="1.0" encoding="UTF-8" standalone="no"?>
<svg
   xmlns:dc="http://purl.org/dc/elements/1.1/"
   xmlns:cc="http://creativecommons.org/ns#"
   xmlns:rdf="http://www.w3.org/1999/02/22-rdf-syntax-ns#"
   xmlns:svg="http://www.w3.org/2000/svg"
   xmlns="http://www.w3.org/2000/svg"
   xmlns:sodipodi="http://sodipodi.sourceforge.net/DTD/sodipodi-0.dtd"
   xmlns:inkscape="http://www.inkscape.org/namespaces/inkscape"
   viewBox="0 0 512 512"
   id="svg2"
   version="1.1"
   inkscape:version="0.91+devel r13804 custom"
   sodipodi:docname="user-online.svg">
  <metadata
     id="metadata472">
    <rdf:RDF>
      <cc:Work
         rdf:about="">
        <dc:format>image/svg+xml</dc:format>
        <dc:type
           rdf:resource="http://purl.org/dc/dcmitype/StillImage" />
        <dc:title></dc:title>
      </cc:Work>
    </rdf:RDF>
  </metadata>
  <sodipodi:namedview
     pagecolor="#ffffff"
     bordercolor="#666666"
     borderopacity="1"
     objecttolerance="10"
     gridtolerance="10"
     guidetolerance="10"
     inkscape:pageopacity="0"
     inkscape:pageshadow="2"
     inkscape:window-width="1366"
     inkscape:window-height="709"
     id="namedview470"
     showgrid="false"
     inkscape:zoom="0.4609375"
     inkscape:cx="683.38983"
     inkscape:cy="174.88241"
     inkscape:window-x="-2"
     inkscape:window-y="-3"
     inkscape:window-maximized="1"
     inkscape:current-layer="svg2" />
  <defs
     id="defs4" />
  <text
     sodipodi:linespacing="125%"
     y="231.3605"
     x="729.64001"
     line-height="125%"
     style="font-size:129.22999573px;line-height:125%;font-family:'Gentium Book Basic';letter-spacing:0;word-spacing:0"
     id="text309830">
    <tspan
       y="231.3605"
       x="729.64001"
       id="tspan309832" />
  </text>
  <text
     transform="scale(4.0128205,0.24920128)"
     y="579.24902"
     x="378.90805"
     style="font-size:46.95399857px;font-family:Arial;text-anchor:middle"
     id="text309834" />
  <text
     sodipodi:linespacing="125%"
     y="151.3605"
     x="1310.91"
     line-height="125%"
     style="font-size:129.22999573px;line-height:125%;font-family:'Gentium Book Basic';letter-spacing:0;word-spacing:0"
     id="text309836">
    <tspan
       y="151.3605"
       x="1310.91"
       id="tspan309838" />
  </text>
  <text
     transform="scale(4.0128205,0.24920128)"
     y="258.22067"
     x="523.75732"
     style="font-size:46.95399857px;font-family:Arial;text-anchor:middle"
     id="text309840" />
  <text
     sodipodi:linespacing="125%"
     y="-29.900499"
     x="239.33"
     line-height="125%"
     style="font-size:129.22999573px;line-height:125%;font-family:'Gentium Book Basic';letter-spacing:0;word-spacing:0"
     id="text309842">
    <tspan
       y="-29.900499"
       x="239.33"
       id="tspan309844" />
  </text>
  <text
     transform="scale(4.0128205,0.24920128)"
     y="-469.13562"
     x="256.71869"
     style="font-size:46.95399857px;font-family:Arial;text-anchor:middle"
     id="text309846" />
  <text
     sodipodi:linespacing="125%"
     y="-246.36949"
     x="1337.38"
     line-height="125%"
     style="font-size:129.22999573px;line-height:125%;font-family:'Gentium Book Basic';letter-spacing:0;word-spacing:0"
     id="text309848">
    <tspan
       y="-246.36949"
       x="1337.38"
       id="tspan309850" />
  </text>
  <text
     transform="scale(4.0128205,0.24920128)"
     y="-1337.8011"
     x="530.3573"
     style="font-size:46.95399857px;font-family:Arial;text-anchor:middle"
     id="text309852" />
  <text
     sodipodi:linespacing="125%"
     y="-326.37952"
     x="1918.65"
     line-height="125%"
     style="font-size:129.22999573px;line-height:125%;font-family:'Gentium Book Basic';letter-spacing:0;word-spacing:0"
     id="text309854">
    <tspan
       y="-326.37952"
       x="1918.65"
       id="tspan309856" />
  </text>
  <text
     transform="scale(4.0128205,0.24920128)"
     y="-1658.8395"
     x="675.20654"
     style="font-size:46.95399857px;font-family:Arial;text-anchor:middle"
     id="text309858" />
  <text
     sodipodi:linespacing="125%"
     y="-798.77954"
     x="1529.53"
     line-height="125%"
     style="font-size:129.22999573px;line-height:125%;font-family:'Gentium Book Basic';letter-spacing:0;word-spacing:0"
     id="text309860">
    <tspan
       y="-798.77954"
       x="1529.53"
       id="tspan309862" />
  </text>
  <text
     transform="scale(4.0128205,0.24920128)"
     y="-3554.4897"
     x="578.237"
     style="font-size:46.95399857px;font-family:Arial;text-anchor:middle"
     id="text309864" />
  <text
     sodipodi:linespacing="125%"
     y="-878.77954"
     x="2110.79"
     line-height="125%"
     style="font-size:129.22999573px;line-height:125%;font-family:'Gentium Book Basic';letter-spacing:0;word-spacing:0"
     id="text309866">
    <tspan
       y="-878.77954"
       x="2110.79"
       id="tspan309868" />
  </text>
  <text
     transform="scale(4.0128205,0.24920128)"
     y="-3875.5183"
     x="723.0863"
     style="font-size:46.95399857px;font-family:Arial;text-anchor:middle"
     id="text309870" />
  <g
     line-height="125%"
     style="line-height:125%;font-family:'Gentium Book Basic';letter-spacing:0;word-spacing:0"
     id="g309872"
     transform="translate(0,5e-4)">
    <text
       y="535.94"
       x="277.98999"
       style="font-size:208.33000183px"
       id="text309874">
      <tspan
         y="535.94"
         x="277.98999"
         id="tspan309876" />
    </text>
    <text
       y="80.410004"
       x="21.264999"
       style="font-size:129.22999573px"
       id="text309878">
      <tspan
         y="80.410004"
         x="21.264999"
         id="tspan309880" />
    </text>
  </g>
  <text
     transform="scale(4.0128205,0.24920128)"
     y="-26.483858"
     x="202.37897"
     style="font-size:46.95399857px;font-family:Arial;text-anchor:middle"
     id="text309882" />
  <text
     sodipodi:linespacing="125%"
     y="0.40649998"
     x="602.53003"
     line-height="125%"
     style="font-size:129.22999573px;line-height:125%;font-family:'Gentium Book Basic';letter-spacing:0;word-spacing:0"
     id="text309884">
    <tspan
       y="0.40649998"
       x="602.53003"
       id="tspan309886" />
  </text>
  <text
     transform="scale(4.0128205,0.24920128)"
     y="-347.5162"
     x="347.22824"
     style="font-size:46.95399857px;font-family:Arial;text-anchor:middle"
     id="text309888" />
  <text
     sodipodi:linespacing="125%"
     y="-180.8495"
     x="-469.04999"
     line-height="125%"
     style="font-size:129.22999573px;line-height:125%;font-family:'Gentium Book Basic';letter-spacing:0;word-spacing:0"
     id="text309890">
    <tspan
       y="-180.8495"
       x="-469.04999"
       id="tspan309892" />
  </text>
  <text
     transform="scale(4.0128205,0.24920128)"
     y="-1074.8624"
     x="80.18959"
     style="font-size:46.95399857px;font-family:Arial;text-anchor:middle"
     id="text309894" />
  <text
     sodipodi:linespacing="125%"
     y="-397.31952"
     x="629"
     line-height="125%"
     style="font-size:129.22999573px;line-height:125%;font-family:'Gentium Book Basic';letter-spacing:0;word-spacing:0"
     id="text309896">
    <tspan
       y="-397.31952"
       x="629"
       id="tspan309898" />
  </text>
  <text
     transform="scale(4.0128205,0.24920128)"
     y="-1943.5381"
     x="353.82819"
     style="font-size:46.95399857px;font-family:Arial;text-anchor:middle"
     id="text309900" />
  <text
     sodipodi:linespacing="125%"
     y="-477.3295"
     x="1210.27"
     line-height="125%"
     style="font-size:129.22999573px;line-height:125%;font-family:'Gentium Book Basic';letter-spacing:0;word-spacing:0"
     id="text309902">
    <tspan
       y="-477.3295"
       x="1210.27"
       id="tspan309904" />
  </text>
  <text
     transform="scale(4.0128205,0.24920128)"
     y="-2264.5664"
     x="498.67743"
     style="font-size:46.95399857px;font-family:Arial;text-anchor:middle"
     id="text309906" />
  <text
     sodipodi:linespacing="125%"
     y="-949.72949"
     x="821.15002"
     line-height="125%"
     style="font-size:129.22999573px;line-height:125%;font-family:'Gentium Book Basic';letter-spacing:0;word-spacing:0"
     id="text309908">
    <tspan
       y="-949.72949"
       x="821.15002"
       id="tspan309910" />
  </text>
  <text
     transform="scale(4.0128205,0.24920128)"
     y="-4160.2266"
     x="401.70795"
     style="font-size:46.95399857px;font-family:Arial;text-anchor:middle"
     id="text309912" />
  <text
     sodipodi:linespacing="125%"
     y="-1029.7295"
     x="1402.42"
     line-height="125%"
     style="font-size:129.22999573px;line-height:125%;font-family:'Gentium Book Basic';letter-spacing:0;word-spacing:0"
     id="text309914">
    <tspan
       y="-1029.7295"
       x="1402.42"
       id="tspan309916" />
  </text>
  <text
     transform="scale(4.0128205,0.24920128)"
     y="-4481.2549"
     x="546.55719"
     style="font-size:46.95399857px;font-family:Arial;text-anchor:middle"
     id="text309918" />
  <text
     sodipodi:linespacing="125%"
     y="384.99048"
     x="-430.39001"
     line-height="125%"
     style="font-size:208.33000183px;line-height:125%;font-family:'Gentium Book Basic';letter-spacing:0;word-spacing:0"
     id="text309920">
    <tspan
       y="384.99048"
       x="-430.39001"
       id="tspan309922" />
  </text>
  <path
     inkscape:connector-curvature="0"
     d="m 25.992,-0.0125 c -14.397,0 -26,11.603 -26,26 l 0,460 c 0,14.397 11.603,26 26,26 l 460,0 c 14.397,0 26,-11.603 26,-26 l 0,-460 c 0,-14.397 -11.603,-26 -26,-26 l -460,0"
     style="fill:#56a8d6"
     id="path309924" />
  <path
     inkscape:connector-curvature="0"
     d="m 25.992,-0.0125 c -14.397,0 -26,11.603 -26,26 l 0,232.75 c 17.689,-13.975 51.23,-11.519 59.41,11.438 -9.229,-31.487 22.791,-56.2 40.75,-78.81 3.736,-11.04 25.951,-20.511 18.313,-5.844 13.02,-0.446 32.71,-22.719 9.594,-12.438 -0.327,-20.315 -20.231,-14.509 -26.688,-11.625 11.975,-18.03 73.51,-8.148 47.75,-37.625 -19.957,-7.672 -18.346,-52.44 -38.531,-27.5 1.698,-15.366 -41.09,-45.45 -40.16,-19.688 5.222,23.06 0.931,49.636 -10.188,64.75 -2.32,-33.787 -63.06,-26.372 -55.25,-62.37 11.314,-17.16 24.585,-40.853 25.844,-38.719 18.83,-6.822 34.21,-25.742 17.469,-39.656 -2.272,1.737 -4.522,3.488 -6.75,5.281 -3.383,8.306 -9.437,16.352 -12.03,11.688 l 0,-15.281 c 0,-0.79 -0.045,-1.576 -0.125,-2.344 l -3.406,0 m 50.656,0 c 1.324,1.88 2.574,4.179 3.75,7.06 23.08,12.618 2.041,34.04 -8.03,41.41 16.838,-9.377 46.32,37.28 38.28,11.375 -9.908,-6.863 26.63,11.02 7.688,-11.281 -17.431,-26.646 1.337,-11.906 8.688,-5.688 23.863,-20.3 -23.588,-23.58 -16.375,-42.875 l -34,0 m 89.88,0 c 2.161,0.576 4.54,0.588 5.875,0 l -5.875,0 m 12.813,0 c 0.685,7.01 -14.788,12.159 -1.344,19.438 -19.16,9.379 3.109,49.07 17.344,59 23.42,18.706 10.368,-39.623 36.5,-42.656 12.62,-13.669 33.686,-23.01 50.656,-35.781 l -103.16,0 m 278.91,0 c -15.882,13.98 -26.04,34.1 -37.719,51.813 -25.966,11.11 -25.01,58.792 4,43.563 7.765,12.866 -5.43,33.1 17.188,16.281 18.243,-22.903 3.204,-59.903 34.25,-74.34 2.261,11.23 -28.629,53.17 7.469,46.28 32.632,1.168 -23.684,3.068 -7.813,22.844 -16.49,-9.282 -7.944,25.341 -29.469,17.281 -18.647,9.622 -30.896,-4.471 -26.625,-19.906 -14.669,8.119 4.59,31.06 -20.875,32.438 -5.704,19.216 -52.612,16.276 -25.938,35.844 11.843,29.12 -44.11,1.837 -28.22,36.781 13.595,34.554 42.06,-11.427 53.625,-20.313 21.605,-15.903 53.29,25.25 37,29.344 20.504,-3.674 15.706,-23.17 -1.844,-30.813 -9.738,-23.959 30.812,11.8 28.563,23.813 14.313,25.426 8.435,-26.06 23,-3.281 -0.904,12.778 15.716,13.553 27.16,16.09 l 0,-25.09 c -16.414,-0.516 -30.401,-6.136 -10.969,-24.375 2.732,-1.556 7.01,-0.147 10.969,1.563 l 0,-149.81 c 0,-14.397 -11.603,-26 -26,-26 l -27.75,0 m -382.94,11.844 c -11.03,17.14 16.301,6.329 0,0 m 241.56,20.313 c -12.915,14.11 -29.94,-3.75 -30.22,8.375 2.341,3.664 11.709,29.827 32.25,10.531 11.02,-4.409 6.668,-15.498 -2.031,-18.906 m -275,8.375 c -24.497,20.3 41.602,22.21 5.188,2.375 l -5.188,-2.375 m 30.469,7.938 c -0.535,0.301 -1.024,0.673 -1.531,1.094 0.477,-0.314 0.981,-0.692 1.531,-1.094 m 292.41,48.5 c -16.997,10.994 8.791,33.898 0,44.719 -11.05,18.269 41.09,-1.269 13.25,-15.844 -1.907,-12.04 -15.256,-26.614 -13.188,-28.875 l -0.063,0 m -11.594,21.813 c -24.568,6.592 -5.579,40.618 3.125,8.563 0.489,-1.858 1.153,-8.624 -3.125,-8.563 m -196.75,24.594 c -22.861,14.79 -3.566,29.593 13.188,22.938 -3.44,-8.923 -13.03,-14.591 -13.188,-22.938 m 259.72,56.44 c -14.331,8.759 9.911,15.476 0,0 m 2.094,19.688 c -25.22,1.944 -56.46,1.7 -73.34,21.03 -18.262,23.769 -44.561,56.99 -24.656,87.34 19.917,44.969 69.29,2.312 97.69,28.875 8.439,11.07 -7.336,24.26 11.531,36.25 7.101,25.554 -8.06,49.819 9.375,74.25 9.02,22.973 14.656,57.36 48.22,36.38 12.954,-7.398 19.922,-17.07 24.969,-27.375 l 0,-231.91 c -23.828,3.531 -47.27,-6.188 -67.813,0.469 -19.83,-0.167 -18.745,-20.276 -25.969,-25.313 m -361.97,61.969 c -2.416,7.647 45.32,15.407 12.375,3.156 l -4.906,-1.656 -7.469,-1.5 m -25.406,5.594 c -8.704,8.213 -21.944,10.562 -30.844,6.281 l 0,18.438 c 4.936,1.663 10.122,3.03 15.563,4.125 19.517,6.298 35.586,27.957 52.75,23.19 9.706,24.272 -28.774,47.576 1.281,70.22 15.689,22.92 42.07,37.98 27.813,70.16 -3.373,10.629 -5.134,21.567 -6.313,32.531 l 61.19,0 c 1.608,-4.077 4.969,-6.842 14.656,-5.531 16.448,-20.453 21.18,-44.884 48.938,-53 3.316,-24.827 46.16,-62.829 1.906,-72.5 -12.03,-5.624 -42.997,-7.6 -40.625,-10.375 4.795,-24.64 -40.01,-31.702 -59.09,-41.781 -25.05,-16.869 -62.706,28.02 -71.53,-10.656 -5.265,-12.17 -24.53,-12.315 -15.688,-31.09 m 62.44,5.281 c -14.475,13.948 29.836,4.167 0,0"
     style="fill:#ffffff;fill-opacity:0.33000004"
     id="path309926" />
  <text
     sodipodi:linespacing="125%"
     y="158.52051"
     x="-13.877"
     line-height="125%"
     style="font-size:129.22999573px;line-height:125%;font-family:'Gentium Book Basic';letter-spacing:0;word-spacing:0"
     id="text309928">
    <tspan
       y="158.52051"
       x="-13.877"
       id="tspan309930" />
  </text>
  <text
     transform="scale(4.0128205,0.24920128)"
     y="286.95056"
     x="193.619"
     style="font-size:46.95399857px;font-family:Arial;text-anchor:middle"
     id="text309932" />
  <text
     sodipodi:linespacing="125%"
     y="78.5205"
     x="567.39001"
     line-height="125%"
     style="font-size:129.22999573px;line-height:125%;font-family:'Gentium Book Basic';letter-spacing:0;word-spacing:0"
     id="text309934">
    <tspan
       y="78.5205"
       x="567.39001"
       id="tspan309936" />
  </text>
  <text
     transform="scale(4.0128205,0.24920128)"
     y="-34.07782"
     x="338.46826"
     style="font-size:46.95399857px;font-family:Arial;text-anchor:middle"
     id="text309938" />
  <text
     sodipodi:linespacing="125%"
     y="-102.73949"
     x="-504.19"
     line-height="125%"
     style="font-size:129.22999573px;line-height:125%;font-family:'Gentium Book Basic';letter-spacing:0;word-spacing:0"
     id="text309940">
    <tspan
       y="-102.73949"
       x="-504.19"
       id="tspan309942" />
  </text>
  <text
     transform="scale(4.0128205,0.24920128)"
     y="-761.42407"
     x="71.439636"
     style="font-size:46.95399857px;font-family:Arial;text-anchor:middle"
     id="text309944" />
  <text
     sodipodi:linespacing="125%"
     y="-319.2095"
     x="593.85999"
     line-height="125%"
     style="font-size:129.22999573px;line-height:125%;font-family:'Gentium Book Basic';letter-spacing:0;word-spacing:0"
     id="text309946">
    <tspan
       y="-319.2095"
       x="593.85999"
       id="tspan309948" />
  </text>
  <text
     transform="scale(4.0128205,0.24920128)"
     y="-1630.0796"
     x="345.06824"
     style="font-size:46.95399857px;font-family:Arial;text-anchor:middle"
     id="text309950" />
  <text
     sodipodi:linespacing="125%"
     y="-399.21951"
     x="1175.13"
     line-height="125%"
     style="font-size:129.22999573px;line-height:125%;font-family:'Gentium Book Basic';letter-spacing:0;word-spacing:0"
     id="text309952">
    <tspan
       y="-399.21951"
       x="1175.13"
       id="tspan309954" />
  </text>
  <text
     transform="scale(4.0128205,0.24920128)"
     y="-1951.118"
     x="489.91751"
     style="font-size:46.95399857px;font-family:Arial;text-anchor:middle"
     id="text309956" />
  <text
     sodipodi:linespacing="125%"
     y="-871.61951"
     x="786.01001"
     line-height="125%"
     style="font-size:129.22999573px;line-height:125%;font-family:'Gentium Book Basic';letter-spacing:0;word-spacing:0"
     id="text309958">
    <tspan
       y="-871.61951"
       x="786.01001"
       id="tspan309960" />
  </text>
  <text
     transform="scale(4.0128205,0.24920128)"
     y="-3846.7483"
     x="392.948"
     style="font-size:46.95399857px;font-family:Arial;text-anchor:middle"
     id="text309962" />
  <text
     sodipodi:linespacing="125%"
     y="-951.61951"
     x="1367.27"
     line-height="125%"
     style="font-size:129.22999573px;line-height:125%;font-family:'Gentium Book Basic';letter-spacing:0;word-spacing:0"
     id="text309964">
    <tspan
       y="-951.61951"
       x="1367.27"
       id="tspan309966" />
  </text>
  <text
     transform="scale(4.0128205,0.24920128)"
     y="-4167.7764"
     x="537.79724"
     style="font-size:46.95399857px;font-family:Arial;text-anchor:middle"
     id="text309968" />
  <g
     line-height="125%"
     style="line-height:125%;font-family:'Gentium Book Basic';letter-spacing:0;word-spacing:0"
     id="g309970"
     transform="translate(0,5e-4)">
    <text
       y="463.10001"
       x="-465.53"
       style="font-size:208.33000183px"
       id="text309972">
      <tspan
         y="463.10001"
         x="-465.53"
         id="tspan309974" />
    </text>
    <text
       y="88.169998"
       x="22.386"
       style="font-size:129.22999573px"
       id="text309976">
      <tspan
         y="88.169998"
         x="22.386"
         id="tspan309978" />
    </text>
  </g>
  <text
     transform="scale(4.0128205,0.24920128)"
     y="4.6679826"
     x="202.65897"
     style="font-size:46.95399857px;font-family:Arial;text-anchor:middle"
     id="text309980" />
  <text
     sodipodi:linespacing="125%"
     y="8.1744995"
     x="603.65997"
     line-height="125%"
     style="font-size:129.22999573px;line-height:125%;font-family:'Gentium Book Basic';letter-spacing:0;word-spacing:0"
     id="text309982">
    <tspan
       y="8.1744995"
       x="603.65997"
       id="tspan309984" />
  </text>
  <text
     transform="scale(4.0128205,0.24920128)"
     y="-316.35635"
     x="347.50824"
     style="font-size:46.95399857px;font-family:Arial;text-anchor:middle"
     id="text309986" />
  <text
     sodipodi:linespacing="125%"
     y="-173.08949"
     x="-467.92001"
     line-height="125%"
     style="font-size:129.22999573px;line-height:125%;font-family:'Gentium Book Basic';letter-spacing:0;word-spacing:0"
     id="text309988">
    <tspan
       y="-173.08949"
       x="-467.92001"
       id="tspan309990" />
  </text>
  <text
     transform="scale(4.0128205,0.24920128)"
     y="-1043.7126"
     x="80.469589"
     style="font-size:46.95399857px;font-family:Arial;text-anchor:middle"
     id="text309992" />
  <text
     sodipodi:linespacing="125%"
     y="-389.55951"
     x="630.13"
     line-height="125%"
     style="font-size:129.22999573px;line-height:125%;font-family:'Gentium Book Basic';letter-spacing:0;word-spacing:0"
     id="text309994">
    <tspan
       y="-389.55951"
       x="630.13"
       id="tspan309996" />
  </text>
  <text
     transform="scale(4.0128205,0.24920128)"
     y="-1912.3682"
     x="354.10818"
     style="font-size:46.95399857px;font-family:Arial;text-anchor:middle"
     id="text309998" />
  <text
     sodipodi:linespacing="125%"
     y="-469.56952"
     x="1211.4"
     line-height="125%"
     style="font-size:129.22999573px;line-height:125%;font-family:'Gentium Book Basic';letter-spacing:0;word-spacing:0"
     id="text310000">
    <tspan
       y="-469.56952"
       x="1211.4"
       id="tspan310002" />
  </text>
  <text
     transform="scale(4.0128205,0.24920128)"
     y="-2233.4065"
     x="498.95743"
     style="font-size:46.95399857px;font-family:Arial;text-anchor:middle"
     id="text310004" />
  <text
     sodipodi:linespacing="125%"
     y="-941.96948"
     x="822.28003"
     line-height="125%"
     style="font-size:129.22999573px;line-height:125%;font-family:'Gentium Book Basic';letter-spacing:0;word-spacing:0"
     id="text310006">
    <tspan
       y="-941.96948"
       x="822.28003"
       id="tspan310008" />
  </text>
  <text
     transform="scale(4.0128205,0.24920128)"
     y="-4129.0469"
     x="401.98795"
     style="font-size:46.95399857px;font-family:Arial;text-anchor:middle"
     id="text310010" />
  <text
     sodipodi:linespacing="125%"
     y="-1021.9695"
     x="1403.54"
     line-height="125%"
     style="font-size:129.22999573px;line-height:125%;font-family:'Gentium Book Basic';letter-spacing:0;word-spacing:0"
     id="text310012">
    <tspan
       y="-1021.9695"
       x="1403.54"
       id="tspan310014" />
  </text>
  <text
     transform="scale(4.0128205,0.24920128)"
     y="-4450.0752"
     x="546.83722"
     style="font-size:46.95399857px;font-family:Arial;text-anchor:middle"
     id="text310016" />
  <g
     line-height="125%"
     style="line-height:125%;font-family:'Gentium Book Basic';letter-spacing:0;word-spacing:0"
     id="g310018"
     transform="translate(0,5e-4)">
    <text
       y="392.75"
       x="-429.26001"
       style="font-size:208.33000183px"
       id="text310020">
      <tspan
         y="392.75"
         x="-429.26001"
         id="tspan310022" />
    </text>
    <text
       y="88.169998"
       x="22.386"
       style="font-size:129.22999573px"
       id="text310024">
      <tspan
         y="88.169998"
         x="22.386"
         id="tspan310026" />
    </text>
  </g>
  <text
     transform="scale(4.0128205,0.24920128)"
     y="4.6679826"
     x="202.65897"
     style="font-size:46.95399857px;font-family:Arial;text-anchor:middle"
     id="text310028" />
  <text
     sodipodi:linespacing="125%"
     y="8.1744995"
     x="603.65997"
     line-height="125%"
     style="font-size:129.22999573px;line-height:125%;font-family:'Gentium Book Basic';letter-spacing:0;word-spacing:0"
     id="text310030">
    <tspan
       y="8.1744995"
       x="603.65997"
       id="tspan310032" />
  </text>
  <text
     transform="scale(4.0128205,0.24920128)"
     y="-316.35635"
     x="347.50824"
     style="font-size:46.95399857px;font-family:Arial;text-anchor:middle"
     id="text310034" />
  <text
     sodipodi:linespacing="125%"
     y="-173.08949"
     x="-467.92001"
     line-height="125%"
     style="font-size:129.22999573px;line-height:125%;font-family:'Gentium Book Basic';letter-spacing:0;word-spacing:0"
     id="text310036">
    <tspan
       y="-173.08949"
       x="-467.92001"
       id="tspan310038" />
  </text>
  <text
     transform="scale(4.0128205,0.24920128)"
     y="-1043.7126"
     x="80.469589"
     style="font-size:46.95399857px;font-family:Arial;text-anchor:middle"
     id="text310040" />
  <text
     sodipodi:linespacing="125%"
     y="-389.55951"
     x="630.13"
     line-height="125%"
     style="font-size:129.22999573px;line-height:125%;font-family:'Gentium Book Basic';letter-spacing:0;word-spacing:0"
     id="text310042">
    <tspan
       y="-389.55951"
       x="630.13"
       id="tspan310044" />
  </text>
  <text
     transform="scale(4.0128205,0.24920128)"
     y="-1912.3682"
     x="354.10818"
     style="font-size:46.95399857px;font-family:Arial;text-anchor:middle"
     id="text310046" />
  <text
     sodipodi:linespacing="125%"
     y="-469.56952"
     x="1211.4"
     line-height="125%"
     style="font-size:129.22999573px;line-height:125%;font-family:'Gentium Book Basic';letter-spacing:0;word-spacing:0"
     id="text310048">
    <tspan
       y="-469.56952"
       x="1211.4"
       id="tspan310050" />
  </text>
  <text
     transform="scale(4.0128205,0.24920128)"
     y="-2233.4065"
     x="498.95743"
     style="font-size:46.95399857px;font-family:Arial;text-anchor:middle"
     id="text310052" />
  <text
     sodipodi:linespacing="125%"
     y="-941.96948"
     x="822.28003"
     line-height="125%"
     style="font-size:129.22999573px;line-height:125%;font-family:'Gentium Book Basic';letter-spacing:0;word-spacing:0"
     id="text310054">
    <tspan
       y="-941.96948"
       x="822.28003"
       id="tspan310056" />
  </text>
  <text
     transform="scale(4.0128205,0.24920128)"
     y="-4129.0469"
     x="401.98795"
     style="font-size:46.95399857px;font-family:Arial;text-anchor:middle"
     id="text310058" />
  <text
     sodipodi:linespacing="125%"
     y="-1021.9695"
     x="1403.54"
     line-height="125%"
     style="font-size:129.22999573px;line-height:125%;font-family:'Gentium Book Basic';letter-spacing:0;word-spacing:0"
     id="text310060">
    <tspan
       y="-1021.9695"
       x="1403.54"
       id="tspan310062" />
  </text>
  <text
     transform="scale(4.0128205,0.24920128)"
     y="-4450.0752"
     x="546.83722"
     style="font-size:46.95399857px;font-family:Arial;text-anchor:middle"
     id="text310064" />
  <g
     line-height="125%"
     style="font-size:208.33000183px;line-height:125%;font-family:'Gentium Book Basic';letter-spacing:0;word-spacing:0"
     id="g310066"
     transform="translate(0,5e-4)">
    <text
       y="392.75"
       x="-429.26001"
       id="text310068">
      <tspan
         y="392.75"
         x="-429.26001"
         id="tspan310070" />
    </text>
    <text
       y="477.92999"
       x="-1891.6"
       id="text310072">
      <tspan
         y="477.92999"
         x="-1891.6"
         id="tspan310074" />
    </text>
  </g>
  <text
     transform="scale(4.0128205,0.24920128)"
     y="1354.9451"
     x="-153.65921"
     style="font-size:75.69999695px;font-family:Arial;text-anchor:middle"
     id="text310076" />
  <text
     sodipodi:linespacing="125%"
     y="159.77051"
     x="-1.479"
     line-height="125%"
     style="font-size:129.22999573px;line-height:125%;font-family:'Gentium Book Basic';letter-spacing:0;word-spacing:0"
     id="text310078">
    <tspan
       y="159.77051"
       x="-1.479"
       id="tspan310080" />
  </text>
  <text
     transform="scale(4.0128205,0.24920128)"
     y="291.97052"
     x="196.709"
     style="font-size:46.95399857px;font-family:Arial;text-anchor:middle"
     id="text310082" />
  <text
     sodipodi:linespacing="125%"
     y="79.7705"
     x="579.78998"
     line-height="125%"
     style="font-size:129.22999573px;line-height:125%;font-family:'Gentium Book Basic';letter-spacing:0;word-spacing:0"
     id="text310084">
    <tspan
       y="79.7705"
       x="579.78998"
       id="tspan310086" />
  </text>
  <text
     transform="scale(4.0128205,0.24920128)"
     y="-29.067844"
     x="341.55826"
     style="font-size:46.95399857px;font-family:Arial;text-anchor:middle"
     id="text310088" />
  <text
     sodipodi:linespacing="125%"
     y="-101.48949"
     x="-491.79001"
     line-height="125%"
     style="font-size:129.22999573px;line-height:125%;font-family:'Gentium Book Basic';letter-spacing:0;word-spacing:0"
     id="text310090">
    <tspan
       y="-101.48949"
       x="-491.79001"
       id="tspan310092" />
  </text>
  <text
     transform="scale(4.0128205,0.24920128)"
     y="-756.41412"
     x="74.519615"
     style="font-size:46.95399857px;font-family:Arial;text-anchor:middle"
     id="text310094" />
  <text
     sodipodi:linespacing="125%"
     y="-317.9595"
     x="606.26001"
     line-height="125%"
     style="font-size:129.22999573px;line-height:125%;font-family:'Gentium Book Basic';letter-spacing:0;word-spacing:0"
     id="text310096">
    <tspan
       y="-317.9595"
       x="606.26001"
       id="tspan310098" />
  </text>
  <text
     transform="scale(4.0128205,0.24920128)"
     y="-1625.0796"
     x="348.15823"
     style="font-size:46.95399857px;font-family:Arial;text-anchor:middle"
     id="text310100" />
  <text
     sodipodi:linespacing="125%"
     y="-397.9595"
     x="1187.53"
     line-height="125%"
     style="font-size:129.22999573px;line-height:125%;font-family:'Gentium Book Basic';letter-spacing:0;word-spacing:0"
     id="text310102">
    <tspan
       y="-397.9595"
       x="1187.53"
       id="tspan310104" />
  </text>
  <text
     transform="scale(4.0128205,0.24920128)"
     y="-1946.108"
     x="493.00748"
     style="font-size:46.95399857px;font-family:Arial;text-anchor:middle"
     id="text310106" />
  <text
     sodipodi:linespacing="125%"
     y="-870.3595"
     x="798.40997"
     line-height="125%"
     style="font-size:129.22999573px;line-height:125%;font-family:'Gentium Book Basic';letter-spacing:0;word-spacing:0"
     id="text310108">
    <tspan
       y="-870.3595"
       x="798.40997"
       id="tspan310110" />
  </text>
  <text
     transform="scale(4.0128205,0.24920128)"
     y="-3841.7483"
     x="396.03799"
     style="font-size:46.95399857px;font-family:Arial;text-anchor:middle"
     id="text310112" />
  <text
     sodipodi:linespacing="125%"
     y="-950.36951"
     x="1379.67"
     line-height="125%"
     style="font-size:129.22999573px;line-height:125%;font-family:'Gentium Book Basic';letter-spacing:0;word-spacing:0"
     id="text310114">
    <tspan
       y="-950.36951"
       x="1379.67"
       id="tspan310116" />
  </text>
  <text
     transform="scale(4.0128205,0.24920128)"
     y="-4162.7866"
     x="540.88727"
     style="font-size:46.95399857px;font-family:Arial;text-anchor:middle"
     id="text310118" />
  <g
     transform="translate(-731.12,-611.9495)"
     line-height="125%"
     style="font-size:208.33000183px;line-height:125%;font-family:'Gentium Book Basic';letter-spacing:0;word-spacing:0"
     id="g310120">
    <text
       y="1076.3"
       x="277.98999"
       id="text310122">
      <tspan
         y="1076.3"
         x="277.98999"
         id="tspan310124" />
    </text>
    <text
       y="1089.88"
       x="-1160.48"
       id="text310126">
      <tspan
         y="1089.88"
         x="-1160.48"
         id="tspan310128" />
    </text>
  </g>
  <text
     transform="scale(4.0128205,0.24920128)"
     y="1354.9451"
     x="-153.65921"
     style="font-size:75.69999695px;font-family:Arial;text-anchor:middle"
     id="text310130" />
  <text
     sodipodi:linespacing="125%"
     y="159.77051"
     x="-1.479"
     line-height="125%"
     style="font-size:129.22999573px;line-height:125%;font-family:'Gentium Book Basic';letter-spacing:0;word-spacing:0"
     id="text310132">
    <tspan
       y="159.77051"
       x="-1.479"
       id="tspan310134" />
  </text>
  <text
     transform="scale(4.0128205,0.24920128)"
     y="291.97052"
     x="196.709"
     style="font-size:46.95399857px;font-family:Arial;text-anchor:middle"
     id="text310136" />
  <text
     sodipodi:linespacing="125%"
     y="79.7705"
     x="579.78998"
     line-height="125%"
     style="font-size:129.22999573px;line-height:125%;font-family:'Gentium Book Basic';letter-spacing:0;word-spacing:0"
     id="text310138">
    <tspan
       y="79.7705"
       x="579.78998"
       id="tspan310140" />
  </text>
  <text
     transform="scale(4.0128205,0.24920128)"
     y="-29.067844"
     x="341.55826"
     style="font-size:46.95399857px;font-family:Arial;text-anchor:middle"
     id="text310142" />
  <text
     sodipodi:linespacing="125%"
     y="-101.48949"
     x="-491.79001"
     line-height="125%"
     style="font-size:129.22999573px;line-height:125%;font-family:'Gentium Book Basic';letter-spacing:0;word-spacing:0"
     id="text310144">
    <tspan
       y="-101.48949"
       x="-491.79001"
       id="tspan310146" />
  </text>
  <text
     transform="scale(4.0128205,0.24920128)"
     y="-756.41412"
     x="74.519615"
     style="font-size:46.95399857px;font-family:Arial;text-anchor:middle"
     id="text310148" />
  <text
     sodipodi:linespacing="125%"
     y="-317.9595"
     x="606.26001"
     line-height="125%"
     style="font-size:129.22999573px;line-height:125%;font-family:'Gentium Book Basic';letter-spacing:0;word-spacing:0"
     id="text310150">
    <tspan
       y="-317.9595"
       x="606.26001"
       id="tspan310152" />
  </text>
  <text
     transform="scale(4.0128205,0.24920128)"
     y="-1625.0796"
     x="348.15823"
     style="font-size:46.95399857px;font-family:Arial;text-anchor:middle"
     id="text310154" />
  <text
     sodipodi:linespacing="125%"
     y="-397.9595"
     x="1187.53"
     line-height="125%"
     style="font-size:129.22999573px;line-height:125%;font-family:'Gentium Book Basic';letter-spacing:0;word-spacing:0"
     id="text310156">
    <tspan
       y="-397.9595"
       x="1187.53"
       id="tspan310158" />
  </text>
  <text
     transform="scale(4.0128205,0.24920128)"
     y="-1946.108"
     x="493.00748"
     style="font-size:46.95399857px;font-family:Arial;text-anchor:middle"
     id="text310160" />
  <text
     sodipodi:linespacing="125%"
     y="-870.3595"
     x="798.40997"
     line-height="125%"
     style="font-size:129.22999573px;line-height:125%;font-family:'Gentium Book Basic';letter-spacing:0;word-spacing:0"
     id="text310162">
    <tspan
       y="-870.3595"
       x="798.40997"
       id="tspan310164" />
  </text>
  <text
     transform="scale(4.0128205,0.24920128)"
     y="-3841.7483"
     x="396.03799"
     style="font-size:46.95399857px;font-family:Arial;text-anchor:middle"
     id="text310166" />
  <text
     sodipodi:linespacing="125%"
     y="-950.36951"
     x="1379.67"
     line-height="125%"
     style="font-size:129.22999573px;line-height:125%;font-family:'Gentium Book Basic';letter-spacing:0;word-spacing:0"
     id="text310168">
    <tspan
       y="-950.36951"
       x="1379.67"
       id="tspan310170" />
  </text>
  <text
     transform="scale(4.0128205,0.24920128)"
     y="-4162.7866"
     x="540.88727"
     style="font-size:46.95399857px;font-family:Arial;text-anchor:middle"
     id="text310172" />
  <text
     sodipodi:linespacing="125%"
     y="464.35049"
     x="-453.13"
     line-height="125%"
     style="font-size:208.33000183px;line-height:125%;font-family:'Gentium Book Basic';letter-spacing:0;word-spacing:0"
     id="text310174">
    <tspan
       y="464.35049"
       x="-453.13"
       id="tspan310176" />
  </text>
  <path
     style="fill-rule:evenodd;opacity:0.25"
     d="M 255.75977 41 C 201.97377 41 158.23047 84.229762 158.23047 138.00977 C 158.23047 191.79577 201.97577 235.54102 255.75977 235.54102 L 255.77148 235.55078 L 255.75977 235.55078 L 294.2168 274.00781 C 292.39278 275.41007 290.57747 276.90965 288.7793 278.53711 L 415.54688 405.30469 L 288.7793 278.54102 C 257.2682 307.0609 254.26144 307.09032 222.8125 278.64258 L 222.71094 278.54102 C 206.76994 264.11402 189.71316 258.63355 173.41016 260.18555 L 173.41797 260.19336 C 124.53805 264.86014 82.721807 332.50771 97.390625 410.69141 L 108.40039 471 L 149.38867 511.98828 L 485.99219 511.98828 C 500.38919 511.98828 511.99219 500.38528 511.99219 485.98828 L 511.99219 256.62305 L 324.96094 69.589844 C 307.28094 51.909844 282.78953 41 255.76953 41 L 353.2832 138.51367 C 353.28319 138.51693 353.28322 138.52018 353.2832 138.52344 L 255.75977 41 z "
     id="path310180" />
  <path
     inkscape:connector-curvature="0"
     d="m 255.76,41.0005 c -53.786,0 -97.53,43.23 -97.53,97.01 0,53.786 43.746,97.53 97.53,97.53 53.786,0 97.53,-43.746 97.53,-97.53 0,-53.786 -43.746,-97.01 -97.53,-97.01 m -82.34,219.19 c -48.885,4.657 -90.71,72.31 -76.04,150.5 l 11.01,60.31 147.35,0 147.35,0 11.536,-60.31 c 19.558,-104.26 -62.09,-189.85 -125.85,-132.15 -31.551,28.556 -34.519,28.556 -66.08,0 -15.941,-14.427 -32.997,-19.906 -49.3,-18.354"
     style="fill:#ffffff;fill-rule:evenodd"
     id="path310208" />
</svg>
