<?xml version="1.0" encoding="UTF-8" standalone="no"?>
<svg
   xmlns:dc="http://purl.org/dc/elements/1.1/"
   xmlns:cc="http://creativecommons.org/ns#"
   xmlns:rdf="http://www.w3.org/1999/02/22-rdf-syntax-ns#"
   xmlns:svg="http://www.w3.org/2000/svg"
   xmlns="http://www.w3.org/2000/svg"
   xmlns:sodipodi="http://sodipodi.sourceforge.net/DTD/sodipodi-0.dtd"
   xmlns:inkscape="http://www.inkscape.org/namespaces/inkscape"
   viewBox="0 0 512 512"
   id="svg2"
   version="1.1"
   inkscape:version="0.91+devel r13804 custom"
   sodipodi:docname="utilities-desktop-extra.svg">
  <metadata
     id="metadata472">
    <rdf:RDF>
      <cc:Work
         rdf:about="">
        <dc:format>image/svg+xml</dc:format>
        <dc:type
           rdf:resource="http://purl.org/dc/dcmitype/StillImage" />
        <dc:title></dc:title>
      </cc:Work>
    </rdf:RDF>
  </metadata>
  <sodipodi:namedview
     pagecolor="#ffffff"
     bordercolor="#666666"
     borderopacity="1"
     objecttolerance="10"
     gridtolerance="10"
     guidetolerance="10"
     inkscape:pageopacity="0"
     inkscape:pageshadow="2"
     inkscape:window-width="1366"
     inkscape:window-height="709"
     id="namedview470"
     showgrid="false"
     inkscape:zoom="0.4609375"
     inkscape:cx="683.38983"
     inkscape:cy="174.88241"
     inkscape:window-x="-2"
     inkscape:window-y="-3"
     inkscape:window-maximized="1"
     inkscape:current-layer="svg2" />
  <defs
     id="defs4" />
  <path
     inkscape:connector-curvature="0"
     d="M 26,0 C 11.603,0 0,11.603 0,26 l 0,460 c 0,14.397 11.603,26 26,26 l 460,0 c 14.397,0 26,-11.603 26,-26 L 512,26 C 512,11.603 500.397,0 486,0 L 26,0"
     style="fill:#55405f"
     id="path312543" />
  <text
     sodipodi:linespacing="125%"
     y="-167.83"
     x="-355.10999"
     line-height="125%"
     style="font-size:129.22999573px;line-height:125%;font-family:'Gentium Book Basic';letter-spacing:0;word-spacing:0"
     id="text312545">
    <tspan
       y="-167.83"
       x="-355.10999"
       id="tspan312547" />
  </text>
  <text
     transform="scale(4.0128205,0.24920128)"
     y="-1022.6147"
     x="108.58944"
     style="font-size:46.95399857px;font-family:Arial;text-anchor:middle"
     id="text312549" />
  <text
     sodipodi:linespacing="125%"
     y="-247.83"
     x="226.16"
     line-height="125%"
     style="font-size:129.22999573px;line-height:125%;font-family:'Gentium Book Basic';letter-spacing:0;word-spacing:0"
     id="text312551">
    <tspan
       y="-247.83"
       x="226.16"
       id="tspan312553" />
  </text>
  <text
     transform="scale(4.0128205,0.24920128)"
     y="-1343.6332"
     x="253.43871"
     style="font-size:46.95399857px;font-family:Arial;text-anchor:middle"
     id="text312555" />
  <text
     sodipodi:linespacing="125%"
     y="-429.09"
     x="-845.41998"
     line-height="125%"
     style="font-size:129.22999573px;line-height:125%;font-family:'Gentium Book Basic';letter-spacing:0;word-spacing:0"
     id="text312557">
    <tspan
       y="-429.09"
       x="-845.41998"
       id="tspan312559" />
  </text>
  <text
     transform="scale(4.0128205,0.24920128)"
     y="-2070.9895"
     x="-13.60093"
     style="font-size:46.95399857px;font-family:Arial;text-anchor:middle"
     id="text312561" />
  <text
     sodipodi:linespacing="125%"
     y="-645.56"
     x="252.63"
     line-height="125%"
     style="font-size:129.22999573px;line-height:125%;font-family:'Gentium Book Basic';letter-spacing:0;word-spacing:0"
     id="text312563">
    <tspan
       y="-645.56"
       x="252.63"
       id="tspan312565" />
  </text>
  <text
     transform="scale(4.0128205,0.24920128)"
     y="-2939.6548"
     x="260.03867"
     style="font-size:46.95399857px;font-family:Arial;text-anchor:middle"
     id="text312567" />
  <text
     sodipodi:linespacing="125%"
     y="-725.57001"
     x="833.90002"
     line-height="125%"
     style="font-size:129.22999573px;line-height:125%;font-family:'Gentium Book Basic';letter-spacing:0;word-spacing:0"
     id="text312569">
    <tspan
       y="-725.57001"
       x="833.90002"
       id="tspan312571" />
  </text>
  <text
     transform="scale(4.0128205,0.24920128)"
     y="-3260.6934"
     x="404.88794"
     style="font-size:46.95399857px;font-family:Arial;text-anchor:middle"
     id="text312573" />
  <text
     sodipodi:linespacing="125%"
     y="-1197.97"
     x="444.78"
     line-height="125%"
     style="font-size:129.22999573px;line-height:125%;font-family:'Gentium Book Basic';letter-spacing:0;word-spacing:0"
     id="text312575">
    <tspan
       y="-1197.97"
       x="444.78"
       id="tspan312577" />
  </text>
  <text
     transform="scale(4.0128205,0.24920128)"
     y="-5156.3335"
     x="307.91843"
     style="font-size:46.95399857px;font-family:Arial;text-anchor:middle"
     id="text312579" />
  <text
     sodipodi:linespacing="125%"
     y="-1277.97"
     x="1026.04"
     line-height="125%"
     style="font-size:129.22999573px;line-height:125%;font-family:'Gentium Book Basic';letter-spacing:0;word-spacing:0"
     id="text312581">
    <tspan
       y="-1277.97"
       x="1026.04"
       id="tspan312583" />
  </text>
  <text
     transform="scale(4.0128205,0.24920128)"
     y="-5477.3521"
     x="452.76767"
     style="font-size:46.95399857px;font-family:Arial;text-anchor:middle"
     id="text312585" />
  <text
     sodipodi:linespacing="125%"
     y="136.75"
     x="-806.76001"
     line-height="125%"
     style="font-size:208.33000183px;line-height:125%;font-family:'Gentium Book Basic';letter-spacing:0;word-spacing:0"
     id="text312587">
    <tspan
       y="136.75"
       x="-806.76001"
       id="tspan312589" />
  </text>
  <path
     style="fill-rule:evenodd;opacity:0.25"
     d="M 249.15039 41 L 249.16406 41.042969 L 249.14062 41.019531 L 229.12891 91.789062 L 213.10938 75.769531 L 213.10742 75.777344 L 213.10547 75.777344 L 196.93945 116.78906 L 195.2832 115.93359 L 177.75977 98.410156 L 176.83594 106.41016 L 394.49805 324.07422 L 394.49414 324.07422 L 176.83008 106.41016 L 134.00586 84.289062 L 134.01367 84.296875 L 163.93164 153.09766 L 379.48633 368.65234 L 379.48633 368.65625 L 163.92969 153.09961 L 97.976562 119.0293 L 97.984375 119.03711 L 124.60352 180.19922 L 332.17578 387.77148 L 332.17773 387.78906 L 124.59961 180.21094 L 77.746094 169.99609 L 77.748047 170 L 95.515625 192.30859 L 95.517578 192.31055 L 83.173828 196.25195 L 100.83203 213.91211 L 47.140625 231 L 87.988281 271.84766 L 57.630859 291.32031 L 97.912109 331.60156 L 90.40625 346.13086 L 99.464844 355.18945 L 81.728516 374.47852 L 81.720703 374.48047 L 219.24023 512 L 486 512 C 500.397 512 512 500.397 512 486 L 512 242.67969 L 361.15039 91.830078 L 318.51953 110.36914 L 249.15039 41 z "
     id="path312593" />
  <path
     inkscape:connector-curvature="0"
     d="m 249.14,41.02 -26.06,66.11 -9.974,-31.365 -16.17,41.02 -11.06,-5.716 -8.123,-12.668 -0.925,8 -42.824,-22.12 29.922,68.808 -65.953,-34.07 26.623,61.17 -46.856,-10.214 17.775,22.319 -12.347,3.941 22.52,8.887 4.625,5.751 -63.18,20.11 50.47,19.863 -27.346,1.166 22.48,16.77 -35.11,22.52 57.709,6.555 -24.934,48.26 28.954,-12.587 -37.641,40.939 52.841,-7.681 -4.505,20.711 -4.585,4.987 48.06,-6.997 2.858,67.48 40.698,-54.53 3.056,72.55 43.15,-57.829 0.603,14.08 7.923,-10.577 27.02,24.853 -3.741,-25.621 47.49,43.634 -13.191,-90.81 5.509,-0.242 51.44,47.29 -7.159,-49.14 3.941,-0.161 5.147,2.654 -1.246,-2.815 34.07,-1.447 -47.25,-35.27 -0.683,-4.625 91.69,-3.861 -67.762,-50.55 42.03,-13.392 -28.995,-11.417 43.31,-47.1 -51.27,7.44 -32.737,-12.874 26.461,-51.2 -35.595,15.483 -1.569,-37.36 -39.726,53.2 42.15,-81.52 -62.13,27.02 0.081,-0.362 -0.884,0.724 -4.745,2.051 -9.571,-30.08 -10.376,26.341 -24.37,-76.52"
     style="fill:#ffffff;fill-rule:evenodd"
     id="path312725" />
</svg>
