<?xml version="1.0" encoding="UTF-8" standalone="no"?>
<svg
   xmlns:dc="http://purl.org/dc/elements/1.1/"
   xmlns:cc="http://creativecommons.org/ns#"
   xmlns:rdf="http://www.w3.org/1999/02/22-rdf-syntax-ns#"
   xmlns:svg="http://www.w3.org/2000/svg"
   xmlns="http://www.w3.org/2000/svg"
   xmlns:sodipodi="http://sodipodi.sourceforge.net/DTD/sodipodi-0.dtd"
   xmlns:inkscape="http://www.inkscape.org/namespaces/inkscape"
   viewBox="0 0 512 512"
   id="svg2"
   version="1.1"
   inkscape:version="0.91+devel r13804 custom"
   sodipodi:docname="vala.svg">
  <metadata
     id="metadata472">
    <rdf:RDF>
      <cc:Work
         rdf:about="">
        <dc:format>image/svg+xml</dc:format>
        <dc:type
           rdf:resource="http://purl.org/dc/dcmitype/StillImage" />
        <dc:title></dc:title>
      </cc:Work>
    </rdf:RDF>
  </metadata>
  <sodipodi:namedview
     pagecolor="#ffffff"
     bordercolor="#666666"
     borderopacity="1"
     objecttolerance="10"
     gridtolerance="10"
     guidetolerance="10"
     inkscape:pageopacity="0"
     inkscape:pageshadow="2"
     inkscape:window-width="1366"
     inkscape:window-height="709"
     id="namedview470"
     showgrid="false"
     inkscape:zoom="0.4609375"
     inkscape:cx="683.38983"
     inkscape:cy="174.88241"
     inkscape:window-x="-2"
     inkscape:window-y="-3"
     inkscape:window-maximized="1"
     inkscape:current-layer="svg2" />
  <defs
     id="defs4" />
  <path
     inkscape:connector-curvature="0"
     d="m 25.999504,-3.7e-4 c -14.397,0 -26,11.603 -26,26 l 0,460 c 0,14.397 11.603,26 26,26 l 459.999996,0 c 14.397,0 26.00001,-11.603 26.00001,-26 l 0,-460 c 0,-14.397 -11.603,-26 -26,-26 l -460.000006,0"
     style="fill:#714c93"
     id="path313324" />
  <path
     inkscape:connector-curvature="0"
     d="m 423.30473,61.23017 46.83789,46.83789 c -2.8e-4,0.002 2.7e-4,0.004 0,0.006 L 423.30863,61.24007 c -36.99704,0 -55.77815,12.77658 -70.51562,30.48438 l -0.004,-0.004 c -14.73701,17.711 -23.57423,41.32938 -33.69922,61.60938 -6.799,13.619 -21.96668,64.23953 -35.92968,112.01953 -0.28911,0.98914 -0.57804,1.96476 -0.86719,2.95312 L 158.24027,144.2497 c -11.94331,-11.94331 -25.15636,-20.50189 -36.21484,-26.3418 l 0.0176,0.0195 c 9.51299,10.79679 17.1606,24.45748 21.75976,40.58008 l 46.37305,46.37305 c 4.5e-4,0.003 0.002,0.005 0.002,0.008 l -46.3789,-46.37891 c 3.71348,13.01472 6.33486,27.17873 8.291,41.8125 L 91.851595,140.08368 c 0.0761,0.0761 0.15064,0.15754 0.22657,0.23438 l -0.22852,-0.22852 C 84.343565,132.58346 75.827894,128.48755 68.435584,127.3161 l -0.006,-0.006 c -1.75,-0.277 -3.43477,-0.40849 -5.00977,-0.39649 l 45.640636,45.64063 c 0.002,0.007 0.004,0.0141 0.006,0.0215 L 63.410194,126.91949 c -4.734,0.038 -8.67494,1.34883 -11.83594,3.54883 l 0.002,0.002 c -4.21412,2.93239 -7.87589,7.64702 -9.52539,17.55078 l -0.002,-0.002 -1.04688,-0.1582 -0.002,0 c 0.67282,27.0489 18.5293,44.94336 18.5293,44.94336 l 0,0.006 99.689456,99.68945 c 0.92035,14.47917 1.94416,27.8074 3.39648,38.82031 l 0.004,0.004 c 1.89916,14.39603 5.56272,25.07636 6.64063,26.69922 l 0.01,0.01 c 1.34223,2.01396 2.76737,3.75565 4.25587,5.24414 l 0.16796,0.16797 c -0.0576,-0.0567 -0.1164,-0.10858 -0.17383,-0.16601 l 40.11914,40.11914 c -7.2642,2.96098 -14.96252,4.51171 -22.67969,4.51172 -7.09496,0 -14.14747,-1.32434 -20.88671,-3.83594 l 0.008,0.01 c 4.60041,6.39961 10.35685,13.56493 17.11914,20.32422 l 0,0.002 c 0.023,0.023 0.0473,0.0454 0.0703,0.0684 l 87.52149,87.52149 211.20898,0 c 14.397,0 26,-11.603 26,-26 l 0,-364.22852 -49.32226,-49.32226 c 0.0472,0.0472 0.09,0.097 0.13672,0.14453 l -0.13476,-0.13477 c -0.0264,-0.0264 -0.0536,-0.0519 -0.0801,-0.0781 l -0.32031,-0.32031 c -5.741,-5.5 -16.51561,-10.83008 -38.97461,-10.83008 z"
     id="path317556"
     style="opacity:0.25" />
  <path
     inkscape:connector-curvature="0"
     d="m 423.3095,61.23963 c -37,0 -55.78199,12.778 -70.51999,30.488 -14.73701,17.711 -23.57401,41.33 -33.69901,61.61 -6.79899,13.619 -21.966,64.24 -35.929,112.02 -6.982,23.888 -13.987,47.629 -20.524,67.42 -6.537,19.787 -11.499,34.542 -19.05,45.89 -12.466,18.725 -32.485,29.25 -52.621,29.25 -7.097,0 -14.15,-1.324 -20.891,-3.837 23.896,33.25 79.08,87.22 143.51,-2.655 44.683,-62.33 59.61,-196.58 91.15,-247.11 40.11,-64.26 60.25,-49.06 65.03,-43.682 0.899,-5.261 1.418,-10.745 1.181,-15.98 -0.441,-9.704 -2.92,-17.08 -8.661,-22.577 -5.741,-5.5 -16.515,-10.829 -38.974,-10.829 m -301.29,56.666 c 9.524,10.801 17.18,24.471 21.783,40.607 10.289,36.06 12.274,80.882 14.592,120.35 1.16,19.734 2.327,38.06 4.226,52.46 1.899,14.398 5.562,25.08 6.64,26.703 6.121,9.195 13.96,12.668 21.705,12.668 7.744,0 15.61,-3.474 21.731,-12.668 1.609,-2.417 7.448,-15.87 13.253,-32.828 -9.802,-4.115 -24.01,-27.11 -34.984,-115.04 -6.335,-50.751 -43.39,-78.76 -68.945,-92.25 m -58.599996,9.02 c -4.734,0.038 -8.675,1.348 -11.836,3.548 -4.215,2.933 -7.878,7.649 -9.527,17.557 l -1.05,-0.158 c 0.672,27.05 18.529,44.944 18.529,44.944 0,0 -0.005,-18.606 18.581,-27.913 10.020001,-5.02 22.518996,3.14 31.939996,11.696 -0.632,-2.698 -1.309,-5.362 -2.02,-7.858 -7.559,-26.495 -25.602995,-39.21 -39.602996,-41.42 -1.75,-0.277 -3.435,-0.407 -5.01,-0.395"
     style="fill:#ffffff"
     id="path317632" />
</svg>
