<?xml version="1.0" encoding="UTF-8" standalone="no"?>
<svg
   xmlns:dc="http://purl.org/dc/elements/1.1/"
   xmlns:cc="http://creativecommons.org/ns#"
   xmlns:rdf="http://www.w3.org/1999/02/22-rdf-syntax-ns#"
   xmlns:svg="http://www.w3.org/2000/svg"
   xmlns="http://www.w3.org/2000/svg"
   xmlns:sodipodi="http://sodipodi.sourceforge.net/DTD/sodipodi-0.dtd"
   xmlns:inkscape="http://www.inkscape.org/namespaces/inkscape"
   viewBox="0 0 512 512"
   id="svg2"
   version="1.1"
   inkscape:version="0.91+devel r13804 custom"
   sodipodi:docname="vimeo.svg">
  <metadata
     id="metadata472">
    <rdf:RDF>
      <cc:Work
         rdf:about="">
        <dc:format>image/svg+xml</dc:format>
        <dc:type
           rdf:resource="http://purl.org/dc/dcmitype/StillImage" />
        <dc:title></dc:title>
      </cc:Work>
    </rdf:RDF>
  </metadata>
  <sodipodi:namedview
     pagecolor="#ffffff"
     bordercolor="#666666"
     borderopacity="1"
     objecttolerance="10"
     gridtolerance="10"
     guidetolerance="10"
     inkscape:pageopacity="0"
     inkscape:pageshadow="2"
     inkscape:window-width="1366"
     inkscape:window-height="709"
     id="namedview470"
     showgrid="false"
     inkscape:zoom="0.4609375"
     inkscape:cx="683.38983"
     inkscape:cy="174.88241"
     inkscape:window-x="-2"
     inkscape:window-y="-3"
     inkscape:window-maximized="1"
     inkscape:current-layer="svg2" />
  <defs
     id="defs4" />
  <path
     inkscape:connector-curvature="0"
     d="M 26,0 C 11.603,0 0,11.603 0,26 l 0,460 c 0,14.397 11.603,26 26,26 l 460,0 c 14.397,0 26,-11.603 26,-26 L 512,26 C 512,11.603 500.397,0 486,0 L 26,0"
     style="fill:#50a9c4"
     id="path334192" />
  <text
     sodipodi:linespacing="125%"
     y="159.07001"
     x="-259.64001"
     line-height="125%"
     style="font-size:129.22999573px;line-height:125%;font-family:'Gentium Book Basic';letter-spacing:0;word-spacing:0"
     id="text334194">
    <tspan
       y="159.07001"
       x="-259.64001"
       id="tspan334196" />
  </text>
  <text
     transform="scale(4.0128205,0.24920128)"
     y="289.16852"
     x="132.37933"
     style="font-size:46.95399857px;font-family:Arial;text-anchor:middle"
     id="text334198" />
  <text
     sodipodi:linespacing="125%"
     y="79.07"
     x="321.63"
     line-height="125%"
     style="font-size:129.22999573px;line-height:125%;font-family:'Gentium Book Basic';letter-spacing:0;word-spacing:0"
     id="text334200">
    <tspan
       y="79.07"
       x="321.63"
       id="tspan334202" />
  </text>
  <text
     transform="scale(4.0128205,0.24920128)"
     y="-31.863836"
     x="277.22858"
     style="font-size:46.95399857px;font-family:Arial;text-anchor:middle"
     id="text334204" />
  <text
     sodipodi:linespacing="125%"
     y="-102.19"
     x="-749.95001"
     line-height="125%"
     style="font-size:129.22999573px;line-height:125%;font-family:'Gentium Book Basic';letter-spacing:0;word-spacing:0"
     id="text334206">
    <tspan
       y="-102.19"
       x="-749.95001"
       id="tspan334208" />
  </text>
  <text
     transform="scale(4.0128205,0.24920128)"
     y="-759.20612"
     x="10.187947"
     style="font-size:46.95399857px;font-family:Arial;text-anchor:middle"
     id="text334210" />
  <text
     sodipodi:linespacing="125%"
     y="-318.66"
     x="348.10001"
     line-height="125%"
     style="font-size:129.22999573px;line-height:125%;font-family:'Gentium Book Basic';letter-spacing:0;word-spacing:0"
     id="text334212">
    <tspan
       y="-318.66"
       x="348.10001"
       id="tspan334214" />
  </text>
  <text
     transform="scale(4.0128205,0.24920128)"
     y="-1627.8817"
     x="283.82852"
     style="font-size:46.95399857px;font-family:Arial;text-anchor:middle"
     id="text334216" />
  <text
     sodipodi:linespacing="125%"
     y="-398.66"
     x="929.37"
     line-height="125%"
     style="font-size:129.22999573px;line-height:125%;font-family:'Gentium Book Basic';letter-spacing:0;word-spacing:0"
     id="text334218">
    <tspan
       y="-398.66"
       x="929.37"
       id="tspan334220" />
  </text>
  <text
     transform="scale(4.0128205,0.24920128)"
     y="-1948.9"
     x="428.6778"
     style="font-size:46.95399857px;font-family:Arial;text-anchor:middle"
     id="text334222" />
  <text
     sodipodi:linespacing="125%"
     y="-871.06"
     x="540.25"
     line-height="125%"
     style="font-size:129.22999573px;line-height:125%;font-family:'Gentium Book Basic';letter-spacing:0;word-spacing:0"
     id="text334224">
    <tspan
       y="-871.06"
       x="540.25"
       id="tspan334226" />
  </text>
  <text
     transform="scale(4.0128205,0.24920128)"
     y="-3844.5403"
     x="331.70828"
     style="font-size:46.95399857px;font-family:Arial;text-anchor:middle"
     id="text334228" />
  <text
     sodipodi:linespacing="125%"
     y="-951.07001"
     x="1121.51"
     line-height="125%"
     style="font-size:129.22999573px;line-height:125%;font-family:'Gentium Book Basic';letter-spacing:0;word-spacing:0"
     id="text334230">
    <tspan
       y="-951.07001"
       x="1121.51"
       id="tspan334232" />
  </text>
  <text
     transform="scale(4.0128205,0.24920128)"
     y="-4165.5786"
     x="476.55756"
     style="font-size:46.95399857px;font-family:Arial;text-anchor:middle"
     id="text334234" />
  <text
     sodipodi:linespacing="125%"
     y="463.64999"
     x="-711.28998"
     line-height="125%"
     style="font-size:208.33000183px;line-height:125%;font-family:'Gentium Book Basic';letter-spacing:0;word-spacing:0"
     id="text334236">
    <tspan
       y="463.64999"
       x="-711.28998"
       id="tspan334238" />
  </text>
  <path
     d="M 400.32812 63.501953 C 369.12865 63.610832 341.94539 85.620622 295.93945 136.17969 L 295.94336 136.18359 C 294.25505 138.5071 293.50658 151.39525 298.2207 156.10938 L 298.25977 156.14844 C 298.24613 156.13503 298.23034 156.12487 298.2168 156.11133 L 356.99414 214.88867 C 355.3644 220.54871 353.21082 226.3489 350.58203 232.20117 L 206.19141 87.810547 C 199.05781 80.679949 190.30532 75.439975 179.45117 72.630859 L 179.44922 72.630859 C 130.99999 57.453246 89.274668 130.53999 42.53125 172.48047 L 60.123047 190.07227 L 60.117188 190.07422 L 42.525391 172.48242 C 41.131391 179.45042 39.654688 186.475 43.179688 190 L 139.66797 286.48828 C 160.0374 348.34887 180.33374 410.71265 205.9707 436.34961 L 206.17773 436.55664 C 206.10765 436.48719 206.0368 436.42352 205.9668 436.35352 L 281.61328 512 L 486 512 C 500.397 512 512 500.397 512 486 L 512 153.32031 L 444.59961 85.919922 C 431.21861 72.534922 415.31314 65.545781 403.36914 63.550781 L 467.88477 128.06641 C 467.88684 128.07489 467.88856 128.08331 467.89062 128.0918 L 403.35938 63.560547 C 402.34381 63.518703 401.33457 63.498441 400.32812 63.501953 z "
     id="path334242"
     style="opacity:0.25" />
  <path
     inkscape:connector-curvature="0"
     d="m 42.531,172.48 c 46.744,-41.941 88.47,-115.03 136.92,-99.85 80.29,20.78 45.596,174.36 91.22,246.16 62.48,-35.24 103.02,-109.36 86.18,-147.82 -3.766,-10.749 0.818,-37.557 -50.48,-14.13 -13.314,6.079 -12.77,-17.473 -10.426,-20.666 47.49,-52.19 74.922,-73.959 107.42,-72.62 27.33,4.566 75.39,35.28 66.57,108.92 -18.291,109.59 -179.2,281.69 -232.99,275.35 -61.58,13.584 -92.88,-180.95 -139.19,-272.32 L 55.385,191.9 c -17.462,2.752 -15.05,-8.406 -12.849,-19.42"
     style="fill:#ffffff"
     id="path334276" />
</svg>
