<?xml version="1.0" encoding="UTF-8" standalone="no"?>
<svg
   xmlns:dc="http://purl.org/dc/elements/1.1/"
   xmlns:cc="http://creativecommons.org/ns#"
   xmlns:rdf="http://www.w3.org/1999/02/22-rdf-syntax-ns#"
   xmlns:svg="http://www.w3.org/2000/svg"
   xmlns="http://www.w3.org/2000/svg"
   xmlns:sodipodi="http://sodipodi.sourceforge.net/DTD/sodipodi-0.dtd"
   xmlns:inkscape="http://www.inkscape.org/namespaces/inkscape"
   viewBox="0 0 512 512"
   id="svg2"
   version="1.1"
   inkscape:version="0.91+devel r13804 custom"
   sodipodi:docname="vine.svg">
  <metadata
     id="metadata472">
    <rdf:RDF>
      <cc:Work
         rdf:about="">
        <dc:format>image/svg+xml</dc:format>
        <dc:type
           rdf:resource="http://purl.org/dc/dcmitype/StillImage" />
        <dc:title></dc:title>
      </cc:Work>
    </rdf:RDF>
  </metadata>
  <sodipodi:namedview
     pagecolor="#ffffff"
     bordercolor="#666666"
     borderopacity="1"
     objecttolerance="10"
     gridtolerance="10"
     guidetolerance="10"
     inkscape:pageopacity="0"
     inkscape:pageshadow="2"
     inkscape:window-width="1366"
     inkscape:window-height="709"
     id="namedview470"
     showgrid="false"
     inkscape:zoom="0.4609375"
     inkscape:cx="683.38983"
     inkscape:cy="174.88241"
     inkscape:window-x="-2"
     inkscape:window-y="-3"
     inkscape:window-maximized="1"
     inkscape:current-layer="svg2" />
  <defs
     id="defs4" />
  <path
     inkscape:connector-curvature="0"
     d="M 26,0 C 11.603,0 0,11.603 0,26 l 0,460 c 0,14.397 11.603,26 26,26 l 460,0 c 14.397,0 26,-11.603 26,-26 L 512,26 C 512,11.603 500.397,0 486,0 L 26,0"
     style="fill:#7fca9f"
     id="path334515" />
  <text
     sodipodi:linespacing="125%"
     y="217.37"
     x="148.42"
     line-height="125%"
     style="font-size:129.22999573px;line-height:125%;font-family:'Gentium Book Basic';letter-spacing:0;word-spacing:0"
     id="text334517">
    <tspan
       y="217.37"
       x="148.42"
       id="tspan334519" />
  </text>
  <text
     transform="scale(4.0128205,0.24920128)"
     y="523.09729"
     x="234.0688"
     style="font-size:46.95399857px;font-family:Arial;text-anchor:middle"
     id="text334521" />
  <text
     sodipodi:linespacing="125%"
     y="137.37"
     x="729.69"
     line-height="125%"
     style="font-size:129.22999573px;line-height:125%;font-family:'Gentium Book Basic';letter-spacing:0;word-spacing:0"
     id="text334523">
    <tspan
       y="137.37"
       x="729.69"
       id="tspan334525" />
  </text>
  <text
     transform="scale(4.0128205,0.24920128)"
     y="202.05896"
     x="378.91806"
     style="font-size:46.95399857px;font-family:Arial;text-anchor:middle"
     id="text334527" />
  <text
     sodipodi:linespacing="125%"
     y="-43.895"
     x="-341.89001"
     line-height="125%"
     style="font-size:129.22999573px;line-height:125%;font-family:'Gentium Book Basic';letter-spacing:0;word-spacing:0"
     id="text334529">
    <tspan
       y="-43.895"
       x="-341.89001"
       id="tspan334531" />
  </text>
  <text
     transform="scale(4.0128205,0.24920128)"
     y="-525.28729"
     x="111.87943"
     style="font-size:46.95399857px;font-family:Arial;text-anchor:middle"
     id="text334533" />
  <text
     sodipodi:linespacing="125%"
     y="-260.35999"
     x="756.15997"
     line-height="125%"
     style="font-size:129.22999573px;line-height:125%;font-family:'Gentium Book Basic';letter-spacing:0;word-spacing:0"
     id="text334535">
    <tspan
       y="-260.35999"
       x="756.15997"
       id="tspan334537" />
  </text>
  <text
     transform="scale(4.0128205,0.24920128)"
     y="-1393.9529"
     x="385.51801"
     style="font-size:46.95399857px;font-family:Arial;text-anchor:middle"
     id="text334539" />
  <text
     sodipodi:linespacing="125%"
     y="-340.35999"
     x="1337.4301"
     line-height="125%"
     style="font-size:129.22999573px;line-height:125%;font-family:'Gentium Book Basic';letter-spacing:0;word-spacing:0"
     id="text334541">
    <tspan
       y="-340.35999"
       x="1337.4301"
       id="tspan334543" />
  </text>
  <text
     transform="scale(4.0128205,0.24920128)"
     y="-1714.9812"
     x="530.36731"
     style="font-size:46.95399857px;font-family:Arial;text-anchor:middle"
     id="text334545" />
  <text
     sodipodi:linespacing="125%"
     y="-812.76001"
     x="948.31"
     line-height="125%"
     style="font-size:129.22999573px;line-height:125%;font-family:'Gentium Book Basic';letter-spacing:0;word-spacing:0"
     id="text334547">
    <tspan
       y="-812.76001"
       x="948.31"
       id="tspan334549" />
  </text>
  <text
     transform="scale(4.0128205,0.24920128)"
     y="-3610.6213"
     x="433.39777"
     style="font-size:46.95399857px;font-family:Arial;text-anchor:middle"
     id="text334551" />
  <text
     sodipodi:linespacing="125%"
     y="-892.77002"
     x="1529.5699"
     line-height="125%"
     style="font-size:129.22999573px;line-height:125%;font-family:'Gentium Book Basic';letter-spacing:0;word-spacing:0"
     id="text334553">
    <tspan
       y="-892.77002"
       x="1529.5699"
       id="tspan334555" />
  </text>
  <text
     transform="scale(4.0128205,0.24920128)"
     y="-3931.6599"
     x="578.24701"
     style="font-size:46.95399857px;font-family:Arial;text-anchor:middle"
     id="text334557" />
  <text
     sodipodi:linespacing="125%"
     y="521.95001"
     x="-303.23001"
     line-height="125%"
     style="font-size:208.33000183px;line-height:125%;font-family:'Gentium Book Basic';letter-spacing:0;word-spacing:0"
     id="text334559">
    <tspan
       y="521.95001"
       x="-303.23001"
       id="tspan334561" />
  </text>
  <path
     d="M 353.04297 41.003906 C 326.08114 40.783448 298.58969 50.497875 281 69.957031 L 323.625 112.58203 C 323.62413 112.58317 323.62392 112.5848 323.62305 112.58594 L 281 69.962891 C 237.97834 117.58246 243.95167 210.81369 293.46289 265.13477 L 133.50586 105.17969 L 100.66016 105.17969 L 67.810547 105.17969 L 147.04102 184.41016 C 147.04143 184.41215 147.04255 184.41402 147.04297 184.41602 L 67.806641 105.17969 L 69.636719 120.94531 L 69.642578 120.95117 C 72.962971 149.54415 87.34655 215.91447 97.447266 249.24023 L 229.82422 381.61719 C 229.83837 381.63768 229.8511 381.65532 229.86523 381.67578 L 97.439453 249.25 C 122.29045 331.249 159.31153 400.12031 199.26953 440.07031 L 271.19922 512 L 486 512 C 500.397 512 512 500.397 512 486 L 512 160.91797 L 416.00977 64.927734 C 400.21008 49.128047 376.83282 41.198428 353.04297 41.003906 z "
     id="path334565"
     style="opacity:0.25" />
  <path
     inkscape:connector-curvature="0"
     d="m 270.08,464.22 c 11.05,-6.638 57.38,-54.47 74.2,-76.6 7.445,-9.796 21.643,-31.387 31.55,-47.983 15.872,-26.587 18.967,-30.25 26.05,-30.859 4.42,-0.377 15.747,-1.402 25.17,-2.275 l 17.14,-1.588 c -0.005,-14.934 -0.012,-29.87 -0.017,-44.804 l -29.466,0 c -26.23,0 -31.13,-0.798 -44.547,-7.248 -36.02,-17.309 -54.865,-49.691 -55.634,-95.57 -0.216,-12.927 1.177,-27.847 3.128,-33.504 9.762,-28.29 43.61,-32.785 56.674,-7.533 6.457,12.473 7.696,37.19 3.035,60.22 -3.622,13.743 -6.271,18.602 3.639,27.817 8.552,7.951 29.916,13.765 41.932,11.409 6.268,-1.228 8.237,-3.832 11.765,-15.558 15.991,-53.13 9.751,-103.88 -16.322,-132.73 -32.778,-36.28 -103.48,-34.967 -137.38,2.546 -43.06,47.662 -37.04,141.02 12.593,195.32 7.829,8.567 19.623,18.734 26.21,22.592 6.585,3.864 11.974,8.506 11.974,10.321 0,9.322 -41.637,71.898 -65.41,98.3 -14.699,16.328 -15.889,15.618 -44.552,-26.604 -41.33,-60.884 -67.56,-133.13 -82.33,-226.84 l -5.974,-37.883 -32.85,0 -32.85,0 1.83,15.766 c 3.318,28.587 17.706,94.97 27.808,128.3 29,95.7 74.58,173.51 122.05,208.35 21.403,15.711 32.911,17.21 50.589,6.592"
     style="fill:#ffffff"
     id="path334641" />
</svg>
