<?xml version="1.0" encoding="UTF-8" standalone="no"?>
<svg
   xmlns:dc="http://purl.org/dc/elements/1.1/"
   xmlns:cc="http://creativecommons.org/ns#"
   xmlns:rdf="http://www.w3.org/1999/02/22-rdf-syntax-ns#"
   xmlns:svg="http://www.w3.org/2000/svg"
   xmlns="http://www.w3.org/2000/svg"
   xmlns:sodipodi="http://sodipodi.sourceforge.net/DTD/sodipodi-0.dtd"
   xmlns:inkscape="http://www.inkscape.org/namespaces/inkscape"
   viewBox="0 0 512 512"
   id="svg2"
   version="1.1"
   inkscape:version="0.91+devel r13804 custom"
   sodipodi:docname="vk.svg">
  <metadata
     id="metadata472">
    <rdf:RDF>
      <cc:Work
         rdf:about="">
        <dc:format>image/svg+xml</dc:format>
        <dc:type
           rdf:resource="http://purl.org/dc/dcmitype/StillImage" />
        <dc:title></dc:title>
      </cc:Work>
    </rdf:RDF>
  </metadata>
  <sodipodi:namedview
     pagecolor="#ffffff"
     bordercolor="#666666"
     borderopacity="1"
     objecttolerance="10"
     gridtolerance="10"
     guidetolerance="10"
     inkscape:pageopacity="0"
     inkscape:pageshadow="2"
     inkscape:window-width="1366"
     inkscape:window-height="709"
     id="namedview470"
     showgrid="false"
     inkscape:zoom="0.4609375"
     inkscape:cx="683.38983"
     inkscape:cy="174.88241"
     inkscape:window-x="-2"
     inkscape:window-y="-3"
     inkscape:window-maximized="1"
     inkscape:current-layer="svg2" />
  <defs
     id="defs4">
    <clipPath
       id="0">
      <path
         id="path349424"
         d="m26 0c-14.397 0-26 11.603-26 26v460c0 14.397 11.603 26 26 26h460c14.397 0 26-11.603 26-26v-460c0-14.397-11.603-26-26-26h-460" />
    </clipPath>
  </defs>
  <path
     inkscape:connector-curvature="0"
     d="M 26,0 C 11.603,0 0,11.603 0,26 l 0,460 c 0,14.397 11.603,26 26,26 l 460,0 c 14.397,0 26,-11.603 26,-26 L 512,26 C 512,11.603 500.397,0 486,0 L 26,0"
     style="fill:#4a789c"
     id="path349426" />
  <text
     sodipodi:linespacing="125%"
     y="91.57"
     x="-139.98"
     line-height="125%"
     style="font-size:129.22999573px;line-height:125%;font-family:'Gentium Book Basic';letter-spacing:0;word-spacing:0"
     id="text349428">
    <tspan
       y="91.57"
       x="-139.98"
       id="tspan349430" />
  </text>
  <text
     transform="scale(4.0128205,0.24920128)"
     y="18.313906"
     x="162.19917"
     style="font-size:46.95399857px;font-family:Arial;text-anchor:middle"
     id="text349432" />
  <text
     sodipodi:linespacing="125%"
     y="11.572"
     x="441.29001"
     line-height="125%"
     style="font-size:129.22999573px;line-height:125%;font-family:'Gentium Book Basic';letter-spacing:0;word-spacing:0"
     id="text349434">
    <tspan
       y="11.572"
       x="441.29001"
       id="tspan349436" />
  </text>
  <text
     transform="scale(4.0128205,0.24920128)"
     y="-302.71844"
     x="307.0484"
     style="font-size:46.95399857px;font-family:Arial;text-anchor:middle"
     id="text349438" />
  <text
     sodipodi:linespacing="125%"
     y="-169.69"
     x="-630.28998"
     line-height="125%"
     style="font-size:129.22999573px;line-height:125%;font-family:'Gentium Book Basic';letter-spacing:0;word-spacing:0"
     id="text349440">
    <tspan
       y="-169.69"
       x="-630.28998"
       id="tspan349442" />
  </text>
  <text
     transform="scale(4.0128205,0.24920128)"
     y="-1030.0647"
     x="40.009792"
     style="font-size:46.95399857px;font-family:Arial;text-anchor:middle"
     id="text349444" />
  <text
     sodipodi:linespacing="125%"
     y="-386.16"
     x="467.76001"
     line-height="125%"
     style="font-size:129.22999573px;line-height:125%;font-family:'Gentium Book Basic';letter-spacing:0;word-spacing:0"
     id="text349446">
    <tspan
       y="-386.16"
       x="467.76001"
       id="tspan349448" />
  </text>
  <text
     transform="scale(4.0128205,0.24920128)"
     y="-1898.7402"
     x="313.64838"
     style="font-size:46.95399857px;font-family:Arial;text-anchor:middle"
     id="text349450" />
  <text
     sodipodi:linespacing="125%"
     y="-466.16"
     x="1049.03"
     line-height="125%"
     style="font-size:129.22999573px;line-height:125%;font-family:'Gentium Book Basic';letter-spacing:0;word-spacing:0"
     id="text349452">
    <tspan
       y="-466.16"
       x="1049.03"
       id="tspan349454" />
  </text>
  <text
     transform="scale(4.0128205,0.24920128)"
     y="-2219.7585"
     x="458.48764"
     style="font-size:46.95399857px;font-family:Arial;text-anchor:middle"
     id="text349456" />
  <text
     sodipodi:linespacing="125%"
     y="-938.56"
     x="659.90997"
     line-height="125%"
     style="font-size:129.22999573px;line-height:125%;font-family:'Gentium Book Basic';letter-spacing:0;word-spacing:0"
     id="text349458">
    <tspan
       y="-938.56"
       x="659.90997"
       id="tspan349460" />
  </text>
  <text
     transform="scale(4.0128205,0.24920128)"
     y="-4115.3989"
     x="361.52814"
     style="font-size:46.95399857px;font-family:Arial;text-anchor:middle"
     id="text349462" />
  <text
     sodipodi:linespacing="125%"
     y="-1018.57"
     x="1241.17"
     line-height="125%"
     style="font-size:129.22999573px;line-height:125%;font-family:'Gentium Book Basic';letter-spacing:0;word-spacing:0"
     id="text349464">
    <tspan
       y="-1018.57"
       x="1241.17"
       id="tspan349466" />
  </text>
  <text
     transform="scale(4.0128205,0.24920128)"
     y="-4436.437"
     x="506.3674"
     style="font-size:46.95399857px;font-family:Arial;text-anchor:middle"
     id="text349468" />
  <text
     sodipodi:linespacing="125%"
     y="396.14999"
     x="-591.63"
     line-height="125%"
     style="font-size:208.33000183px;line-height:125%;font-family:'Gentium Book Basic';letter-spacing:0;word-spacing:0"
     id="text349470">
    <tspan
       y="396.14999"
       x="-591.63"
       id="tspan349472" />
  </text>
  <path
     style="fill-rule:evenodd;opacity:0.25"
     d="M 239.30078 126.98047 C 219.94265 126.93206 203.73089 127.81975 194.13477 132.8125 C 187.42133 136.27559 182.14953 143.51476 183.83008 145.19531 L 183.8418 145.20703 C 183.83855 145.20387 183.83328 145.20242 183.83008 145.19922 L 208.64062 170.00977 C 210.08262 178.39613 209.98242 186.40234 209.98242 186.40234 L 209.98047 186.40039 C 209.98047 186.40039 211.36334 207.38788 209.74023 225.81055 L 127.42969 143.5 C 127.09769 143.168 126.74691 142.8515 126.37891 142.5625 L 128.37695 144.56055 C 128.38881 144.57492 128.40031 144.58912 128.41211 144.60352 L 126.36914 142.56055 C 122.23459 139.37007 116.49608 138.36541 116.47266 138.36133 L 116.4707 138.35938 L 55.039062 138.80469 L 291.0625 374.82812 C 291.06199 374.82948 291.06106 374.83067 291.06055 374.83203 L 55.039062 138.81055 C 55.039062 138.81055 45.799547 139.09702 42.384766 143.29297 L 42.380859 143.28906 C 39.412859 147.04506 42.150391 154.83008 42.150391 154.83008 C 42.150391 154.83008 90.250238 273.15961 144.74023 332.84961 L 156.23242 344.3418 C 156.19464 344.30735 156.15692 344.27279 156.11914 344.23828 L 144.74023 332.85938 C 146.61923 334.91638 148.5093 336.89011 150.4043 338.78711 L 323.61719 512 L 486 512 C 500.397 512 512 500.397 512 486 L 512 186.19531 L 468.50977 142.70508 C 468.52843 142.72375 468.54402 142.74484 468.5625 142.76367 L 468.50977 142.71094 C 462.7333 136.93447 447.81747 138.81864 447.77344 138.82422 L 447.76953 138.82031 L 383.08984 139.20703 L 445.73438 201.85156 L 445.73242 201.85352 L 383.08984 139.21094 C 383.08984 139.21094 378.33009 138.53644 374.74609 140.77344 L 374.74023 140.76953 C 371.27123 142.94853 369.07617 148.05273 369.07617 148.05273 L 369.07812 148.05469 C 369.07412 148.06583 360.16805 172.8205 348.03711 195.86719 L 287.17969 135.00977 C 284.95469 132.78477 281.94992 131.2085 277.91992 130.1875 L 277.91992 130.18945 C 270.92392 128.39745 265.70506 127.22278 247.78906 127.05078 L 292.82422 172.08594 C 292.82413 172.0885 292.82236 172.09119 292.82227 172.09375 L 247.7793 127.05078 C 244.89555 127.01491 242.06623 126.98738 239.30078 126.98047 z "
     id="path349476" />
  <path
     inkscape:connector-curvature="0"
     d="m 251.53,383.93 25.704,0 c 0,0 7.727,-0.903 11.698,-5.376 3.641,-4.143 3.527,-11.87 3.527,-11.87 0,0 -0.502,-36.28 15.511,-41.603 15.798,-5.261 36.07,35.05 57.49,50.562 16.242,11.698 28.5,9.132 28.5,9.132 l 57.34,-0.846 c 0,0 30.18,-1.964 15.841,-26.765 -1.118,-2.02 -8.286,-18.364 -42.721,-51.967 -36.01,-35.17 -31.19,-29.46 12.257,-90.27 26.378,-37.02 36.958,-59.64 33.66,-69.33 -3.14,-9.247 -22.565,-6.781 -22.565,-6.781 l -64.68,0.387 c 0,0 -4.759,-0.674 -8.343,1.563 -3.469,2.179 -5.663,7.283 -5.663,7.283 0,0 -10.307,28.672 -23.855,53.03 -28.815,51.41 -40.37,54.15 -45.09,50.964 -10.981,-7.455 -8.171,-29.904 -8.171,-45.86 0,-49.846 7.168,-70.62 -14.05,-75.994 -6.996,-1.792 -12.214,-2.968 -30.13,-3.14 -23.07,-0.287 -42.678,0.057 -53.645,5.763 -7.397,3.813 -13.05,12.214 -9.576,12.716 4.258,0.616 13.949,2.738 19.1,10.08 6.609,9.519 6.322,30.793 6.322,30.793 0,0 3.871,58.63 -8.903,65.916 -8.63,5.05 -20.615,-5.204 -46.26,-51.853 -13.16,-23.855 -23.12,-50.29 -23.12,-50.29 0,0 -1.907,-4.932 -5.319,-7.612 -4.143,-3.197 -9.906,-4.2 -9.906,-4.2 l -61.43,0.444 c 0,0 -9.247,0.287 -12.659,4.487 -2.968,3.756 -0.229,11.54 -0.229,11.54 0,0 48.1,118.33 102.59,178.02 49.946,54.662 106.67,51.08 106.67,51.08"
     style="fill:#ffffff;fill-rule:evenodd"
     id="path349568" />
</svg>
