<?xml version="1.0" encoding="UTF-8" standalone="no"?>
<svg
   xmlns:dc="http://purl.org/dc/elements/1.1/"
   xmlns:cc="http://creativecommons.org/ns#"
   xmlns:rdf="http://www.w3.org/1999/02/22-rdf-syntax-ns#"
   xmlns:svg="http://www.w3.org/2000/svg"
   xmlns="http://www.w3.org/2000/svg"
   xmlns:sodipodi="http://sodipodi.sourceforge.net/DTD/sodipodi-0.dtd"
   xmlns:inkscape="http://www.inkscape.org/namespaces/inkscape"
   viewBox="0 0 512 512"
   id="svg2"
   version="1.1"
   inkscape:version="0.91+devel r13804 custom"
   sodipodi:docname="vlc.svg">
  <metadata
     id="metadata472">
    <rdf:RDF>
      <cc:Work
         rdf:about="">
        <dc:format>image/svg+xml</dc:format>
        <dc:type
           rdf:resource="http://purl.org/dc/dcmitype/StillImage" />
        <dc:title></dc:title>
      </cc:Work>
    </rdf:RDF>
  </metadata>
  <sodipodi:namedview
     pagecolor="#ffffff"
     bordercolor="#666666"
     borderopacity="1"
     objecttolerance="10"
     gridtolerance="10"
     guidetolerance="10"
     inkscape:pageopacity="0"
     inkscape:pageshadow="2"
     inkscape:window-width="1366"
     inkscape:window-height="709"
     id="namedview470"
     showgrid="false"
     inkscape:zoom="0.4609375"
     inkscape:cx="683.38983"
     inkscape:cy="174.88241"
     inkscape:window-x="-2"
     inkscape:window-y="-3"
     inkscape:window-maximized="1"
     inkscape:current-layer="svg2" />
  <defs
     id="defs4">
    <clipPath
       id="0">
      <path
         id="path349424"
         d="m26 0c-14.397 0-26 11.603-26 26v460c0 14.397 11.603 26 26 26h460c14.397 0 26-11.603 26-26v-460c0-14.397-11.603-26-26-26h-460" />
    </clipPath>
    <clipPath
       id="0-0">
      <path
         id="path349951"
         d="m26 0c-14.397 0-26 11.603-26 26v460c0 14.397 11.603 26 26 26h460c14.397 0 26-11.603 26-26v-460c0-14.397-11.603-26-26-26h-460" />
    </clipPath>
  </defs>
  <path
     inkscape:connector-curvature="0"
     d="M 26,0 C 11.603,0 0,11.603 0,26 l 0,460 c 0,14.397 11.603,26 26,26 l 460,0 c 14.397,0 26,-11.603 26,-26 L 512,26 C 512,11.603 500.397,0 486,0 L 26,0"
     style="fill:#f38725"
     id="path349953" />
  <text
     sodipodi:linespacing="125%"
     y="401.59"
     x="-1444.7"
     line-height="125%"
     style="font-size:195.71000671px;line-height:125%;font-family:'Gentium Book Basic';letter-spacing:0;word-spacing:0"
     id="text349955">
    <tspan
       y="401.59"
       x="-1444.7"
       id="tspan349957" />
  </text>
  <text
     transform="scale(4.0128205,0.24920128)"
     y="1082.6945"
     x="-61.539684"
     style="font-size:71.11000061px;font-family:Arial;text-anchor:middle"
     id="text349959" />
  <path
     style="color:#000000;opacity:0.25"
     d="M 256.10938 40.996094 L 290.98633 75.873047 L 290.98828 75.878906 L 256.10938 41 C 249.00682 41.034998 242.4023 45.633493 228.83203 54.441406 L 228.83008 54.439453 L 228.61328 54.613281 L 305.28711 131.28711 L 305.28906 131.29688 L 228.60938 54.617188 L 228.52344 54.878906 L 228.52734 54.882812 L 200.03711 165.29688 L 200.0293 165.28906 L 199.8125 166.15625 L 248.18359 214.52734 L 187.83984 214.4707 L 230.25977 256.89062 L 229.69922 256.89062 L 187.2793 214.4707 L 187.15039 214.99023 L 229.05078 256.89062 L 229.04102 256.89062 L 187.15039 215 L 176.56836 256.0293 L 176.35352 256.88672 L 176.35742 256.89062 L 176.34961 256.89062 L 225.375 305.91602 C 204.76617 305.92838 183.89575 305.94751 164.25 305.93359 L 329.15039 470.83398 L 329.14453 470.83398 L 164.25 305.93945 L 163.68555 305.93945 L 163.68945 305.94336 L 163.56055 306.46094 L 146.99219 370.65039 L 146.99023 370.65039 L 146.90234 371.08008 L 113.99219 371.08008 L 213.73047 470.81836 L 213.72656 470.81836 L 113.99219 371.08008 L 113.99023 371.08008 L 105.91992 371.08008 L 102.14648 378.23633 C 81.379968 415.9129 70.756153 435.81213 48.980469 471 L 89.980469 512 L 486 512 C 500.397 512 512 500.397 512 486 L 512 281.10156 L 285.47266 54.574219 L 285.4707 54.570312 L 285.21094 54.439453 C 270.32194 45.495453 263.21838 40.961094 256.10938 40.996094 z "
     id="path349963" />
  <path
     inkscape:connector-curvature="0"
     d="m 256.11,41 c -7.103,0.035 -13.708,4.635 -27.28,13.444 l -0.217,0.173 -0.087,0.26 -28.493,110.42 -0.217,0.867 0.911,0 112.63,-0.043 0.911,0 -0.217,-0.867 -28.493,-110.42 -0.087,-0.26 -0.26,-0.13 C 270.322,45.5 263.22,40.965 256.111,41 m -68.826,173.47 -0.13,0.52 -10.582,41.03 -0.217,0.867 0.867,0 c 53.02,0 108.62,0 160.51,0 l -0.217,-0.867 -10.539,-40.897 -0.13,-0.52 -0.52,0 -138.48,-0.13 z m -23.03,91.46 -0.564,0 -0.13,0.52 -16.567,64.19 -0.087,0.434 -32.917,0 -8.07,0 -3.773,7.156 c -20.769,37.681 -31.393,57.58 -53.17,92.77 128.37,-0.336 261.7,-0.13 392.14,-0.13 l 21.901,0 -9.975,-19.473 -37.25,-72.989 -3.73,-7.329 -8.197,0 -36.603,0 -0.043,-0.173 -16.61,-64.32 c -0.053,-0.196 -0.097,-0.366 -0.136,-0.515 -57.15,-0.296 -125.51,-0.093 -186.22,-0.136"
     style="color:#000000;fill:#ffffff"
     id="path350047" />
</svg>
