<?xml version="1.0" encoding="UTF-8" standalone="no"?>
<svg
   xmlns:dc="http://purl.org/dc/elements/1.1/"
   xmlns:cc="http://creativecommons.org/ns#"
   xmlns:rdf="http://www.w3.org/1999/02/22-rdf-syntax-ns#"
   xmlns:svg="http://www.w3.org/2000/svg"
   xmlns="http://www.w3.org/2000/svg"
   xmlns:sodipodi="http://sodipodi.sourceforge.net/DTD/sodipodi-0.dtd"
   xmlns:inkscape="http://www.inkscape.org/namespaces/inkscape"
   viewBox="0 0 512 512"
   id="svg2"
   version="1.1"
   inkscape:version="0.91+devel r13804 custom"
   sodipodi:docname="vmware.svg">
  <metadata
     id="metadata472">
    <rdf:RDF>
      <cc:Work
         rdf:about="">
        <dc:format>image/svg+xml</dc:format>
        <dc:type
           rdf:resource="http://purl.org/dc/dcmitype/StillImage" />
        <dc:title></dc:title>
      </cc:Work>
    </rdf:RDF>
  </metadata>
  <sodipodi:namedview
     pagecolor="#ffffff"
     bordercolor="#666666"
     borderopacity="1"
     objecttolerance="10"
     gridtolerance="10"
     guidetolerance="10"
     inkscape:pageopacity="0"
     inkscape:pageshadow="2"
     inkscape:window-width="1366"
     inkscape:window-height="709"
     id="namedview470"
     showgrid="false"
     inkscape:zoom="0.4609375"
     inkscape:cx="683.38983"
     inkscape:cy="174.88241"
     inkscape:window-x="-2"
     inkscape:window-y="-3"
     inkscape:window-maximized="1"
     inkscape:current-layer="svg2" />
  <defs
     id="defs4">
    <clipPath
       id="0-0">
      <path
         id="path349951"
         d="m26 0c-14.397 0-26 11.603-26 26v460c0 14.397 11.603 26 26 26h460c14.397 0 26-11.603 26-26v-460c0-14.397-11.603-26-26-26h-460" />
    </clipPath>
    <clipPath
       id="0-5">
      <path
         id="path350330"
         d="m26 0c-14.397 0-26 11.603-26 26v460c0 14.397 11.603 26 26 26h460c14.397 0 26-11.603 26-26v-460c0-14.397-11.603-26-26-26h-460" />
    </clipPath>
  </defs>
  <path
     inkscape:connector-curvature="0"
     d="M 26,0 C 11.603,0 0,11.603 0,26 l 0,460 c 0,14.397 11.603,26 26,26 l 460,0 c 14.397,0 26,-11.603 26,-26 L 512,26 C 512,11.603 500.397,0 486,0 L 26,0"
     style="fill:#66aabe"
     id="path350332" />
  <text
     sodipodi:linespacing="125%"
     y="327.82001"
     x="1685.55"
     line-height="125%"
     style="font-size:129.22999573px;line-height:125%;font-family:'Gentium Book Basic';letter-spacing:0;word-spacing:0"
     id="text350334">
    <tspan
       y="327.82001"
       x="1685.55"
       id="tspan350336" />
  </text>
  <text
     transform="scale(4.0128205,0.24920128)"
     y="966.31506"
     x="617.11682"
     style="font-size:46.95399857px;font-family:Arial;text-anchor:middle"
     id="text350338" />
  <text
     sodipodi:linespacing="125%"
     y="247.82001"
     x="2266.8201"
     line-height="125%"
     style="font-size:129.22999573px;line-height:125%;font-family:'Gentium Book Basic';letter-spacing:0;word-spacing:0"
     id="text350340">
    <tspan
       y="247.82001"
       x="2266.8201"
       id="tspan350342" />
  </text>
  <text
     transform="scale(4.0128205,0.24920128)"
     y="645.28668"
     x="761.96606"
     style="font-size:46.95399857px;font-family:Arial;text-anchor:middle"
     id="text350344" />
  <text
     sodipodi:linespacing="125%"
     y="66.559998"
     x="1195.24"
     line-height="125%"
     style="font-size:129.22999573px;line-height:125%;font-family:'Gentium Book Basic';letter-spacing:0;word-spacing:0"
     id="text350346">
    <tspan
       y="66.559998"
       x="1195.24"
       id="tspan350348" />
  </text>
  <text
     transform="scale(4.0128205,0.24920128)"
     y="-82.059578"
     x="494.92746"
     style="font-size:46.95399857px;font-family:Arial;text-anchor:middle"
     id="text350350" />
  <text
     sodipodi:linespacing="125%"
     y="-149.91"
     x="2293.29"
     line-height="125%"
     style="font-size:129.22999573px;line-height:125%;font-family:'Gentium Book Basic';letter-spacing:0;word-spacing:0"
     id="text350352">
    <tspan
       y="-149.91"
       x="2293.29"
       id="tspan350354" />
  </text>
  <text
     transform="scale(4.0128205,0.24920128)"
     y="-950.73511"
     x="768.5661"
     style="font-size:46.95399857px;font-family:Arial;text-anchor:middle"
     id="text350356" />
  <text
     sodipodi:linespacing="125%"
     y="-229.91"
     x="2874.5601"
     line-height="125%"
     style="font-size:129.22999573px;line-height:125%;font-family:'Gentium Book Basic';letter-spacing:0;word-spacing:0"
     id="text350358">
    <tspan
       y="-229.91"
       x="2874.5601"
       id="tspan350360" />
  </text>
  <text
     transform="scale(4.0128205,0.24920128)"
     y="-1271.7535"
     x="913.41528"
     style="font-size:46.95399857px;font-family:Arial;text-anchor:middle"
     id="text350362" />
  <text
     sodipodi:linespacing="125%"
     y="-702.31"
     x="2485.4399"
     line-height="125%"
     style="font-size:129.22999573px;line-height:125%;font-family:'Gentium Book Basic';letter-spacing:0;word-spacing:0"
     id="text350364">
    <tspan
       y="-702.31"
       x="2485.4399"
       id="tspan350366" />
  </text>
  <text
     transform="scale(4.0128205,0.24920128)"
     y="-3167.3938"
     x="816.44586"
     style="font-size:46.95399857px;font-family:Arial;text-anchor:middle"
     id="text350368" />
  <text
     sodipodi:linespacing="125%"
     y="-782.32001"
     x="3066.7"
     line-height="125%"
     style="font-size:129.22999573px;line-height:125%;font-family:'Gentium Book Basic';letter-spacing:0;word-spacing:0"
     id="text350370">
    <tspan
       y="-782.32001"
       x="3066.7"
       id="tspan350372" />
  </text>
  <text
     transform="scale(4.0128205,0.24920128)"
     y="-3488.4321"
     x="961.29504"
     style="font-size:46.95399857px;font-family:Arial;text-anchor:middle"
     id="text350374" />
  <g
     line-height="125%"
     style="line-height:125%;font-family:'Gentium Book Basic';letter-spacing:0;word-spacing:0"
     id="g350376">
    <text
       y="632.40002"
       x="1233.9"
       style="font-size:208.33000183px"
       id="text350378">
      <tspan
         y="632.40002"
         x="1233.9"
         id="tspan350380" />
    </text>
    <text
       y="248.05"
       x="1556.6899"
       style="font-size:129.22999573px"
       id="text350382">
      <tspan
         y="248.05"
         x="1556.6899"
         id="tspan350384" />
    </text>
  </g>
  <text
     transform="scale(4.0128205,0.24920128)"
     y="646.21667"
     x="585.00702"
     style="font-size:46.95399857px;font-family:Arial;text-anchor:middle"
     id="text350386" />
  <text
     sodipodi:linespacing="125%"
     y="168.05"
     x="2137.96"
     line-height="125%"
     style="font-size:129.22999573px;line-height:125%;font-family:'Gentium Book Basic';letter-spacing:0;word-spacing:0"
     id="text350388">
    <tspan
       y="168.05"
       x="2137.96"
       id="tspan350390" />
  </text>
  <text
     transform="scale(4.0128205,0.24920128)"
     y="325.17831"
     x="729.85626"
     style="font-size:46.95399857px;font-family:Arial;text-anchor:middle"
     id="text350392" />
  <text
     sodipodi:linespacing="125%"
     y="-13.214"
     x="1066.38"
     line-height="125%"
     style="font-size:129.22999573px;line-height:125%;font-family:'Gentium Book Basic';letter-spacing:0;word-spacing:0"
     id="text350394">
    <tspan
       y="-13.214"
       x="1066.38"
       id="tspan350396" />
  </text>
  <text
     transform="scale(4.0128205,0.24920128)"
     y="-402.16797"
     x="462.81763"
     style="font-size:46.95399857px;font-family:Arial;text-anchor:middle"
     id="text350398" />
  <text
     sodipodi:linespacing="125%"
     y="-229.67999"
     x="2164.4299"
     line-height="125%"
     style="font-size:129.22999573px;line-height:125%;font-family:'Gentium Book Basic';letter-spacing:0;word-spacing:0"
     id="text350400">
    <tspan
       y="-229.67999"
       x="2164.4299"
       id="tspan350402" />
  </text>
  <text
     transform="scale(4.0128205,0.24920128)"
     y="-1270.8335"
     x="736.45624"
     style="font-size:46.95399857px;font-family:Arial;text-anchor:middle"
     id="text350404" />
  <text
     sodipodi:linespacing="125%"
     y="-309.67999"
     x="2745.7"
     line-height="125%"
     style="font-size:129.22999573px;line-height:125%;font-family:'Gentium Book Basic';letter-spacing:0;word-spacing:0"
     id="text350406">
    <tspan
       y="-309.67999"
       x="2745.7"
       id="tspan350408" />
  </text>
  <text
     transform="scale(4.0128205,0.24920128)"
     y="-1591.8618"
     x="881.30548"
     style="font-size:46.95399857px;font-family:Arial;text-anchor:middle"
     id="text350410" />
  <text
     sodipodi:linespacing="125%"
     y="-782.08002"
     x="2356.5801"
     line-height="125%"
     style="font-size:129.22999573px;line-height:125%;font-family:'Gentium Book Basic';letter-spacing:0;word-spacing:0"
     id="text350412">
    <tspan
       y="-782.08002"
       x="2356.5801"
       id="tspan350414" />
  </text>
  <text
     transform="scale(4.0128205,0.24920128)"
     y="-3487.5022"
     x="784.336"
     style="font-size:46.95399857px;font-family:Arial;text-anchor:middle"
     id="text350416" />
  <text
     sodipodi:linespacing="125%"
     y="-862.09003"
     x="2937.8401"
     line-height="125%"
     style="font-size:129.22999573px;line-height:125%;font-family:'Gentium Book Basic';letter-spacing:0;word-spacing:0"
     id="text350418">
    <tspan
       y="-862.09003"
       x="2937.8401"
       id="tspan350420" />
  </text>
  <text
     transform="scale(4.0128205,0.24920128)"
     y="-3808.5405"
     x="929.18524"
     style="font-size:46.95399857px;font-family:Arial;text-anchor:middle"
     id="text350422" />
  <g
     line-height="125%"
     style="line-height:125%;font-family:'Gentium Book Basic';letter-spacing:0;word-spacing:0"
     id="g350424">
    <text
       y="552.63"
       x="1105.04"
       style="font-size:208.33000183px"
       id="text350426">
      <tspan
         y="552.63"
         x="1105.04"
         id="tspan350428" />
    </text>
    <text
       y="146.8"
       x="1522.9399"
       style="font-size:129.22999573px"
       id="text350430">
      <tspan
         y="146.8"
         x="1522.9399"
         id="tspan350432" />
    </text>
  </g>
  <text
     transform="scale(4.0128205,0.24920128)"
     y="239.92876"
     x="576.59705"
     style="font-size:46.95399857px;font-family:Arial;text-anchor:middle"
     id="text350434" />
  <text
     sodipodi:linespacing="125%"
     y="66.797997"
     x="2104.21"
     line-height="125%"
     style="font-size:129.22999573px;line-height:125%;font-family:'Gentium Book Basic';letter-spacing:0;word-spacing:0"
     id="text350436">
    <tspan
       y="66.797997"
       x="2104.21"
       id="tspan350438" />
  </text>
  <text
     transform="scale(4.0128205,0.24920128)"
     y="-81.109589"
     x="721.44629"
     style="font-size:46.95399857px;font-family:Arial;text-anchor:middle"
     id="text350440" />
  <text
     sodipodi:linespacing="125%"
     y="-114.46"
     x="1032.63"
     line-height="125%"
     style="font-size:129.22999573px;line-height:125%;font-family:'Gentium Book Basic';letter-spacing:0;word-spacing:0"
     id="text350442">
    <tspan
       y="-114.46"
       x="1032.63"
       id="tspan350444" />
  </text>
  <text
     transform="scale(4.0128205,0.24920128)"
     y="-808.45587"
     x="454.40768"
     style="font-size:46.95399857px;font-family:Arial;text-anchor:middle"
     id="text350446" />
  <text
     sodipodi:linespacing="125%"
     y="-330.92999"
     x="2130.6799"
     line-height="125%"
     style="font-size:129.22999573px;line-height:125%;font-family:'Gentium Book Basic';letter-spacing:0;word-spacing:0"
     id="text350448">
    <tspan
       y="-330.92999"
       x="2130.6799"
       id="tspan350450" />
  </text>
  <text
     transform="scale(4.0128205,0.24920128)"
     y="-1677.1215"
     x="728.04626"
     style="font-size:46.95399857px;font-family:Arial;text-anchor:middle"
     id="text350452" />
  <text
     sodipodi:linespacing="125%"
     y="-410.92999"
     x="2711.95"
     line-height="125%"
     style="font-size:129.22999573px;line-height:125%;font-family:'Gentium Book Basic';letter-spacing:0;word-spacing:0"
     id="text350454">
    <tspan
       y="-410.92999"
       x="2711.95"
       id="tspan350456" />
  </text>
  <text
     transform="scale(4.0128205,0.24920128)"
     y="-1998.1498"
     x="872.89557"
     style="font-size:46.95399857px;font-family:Arial;text-anchor:middle"
     id="text350458" />
  <text
     sodipodi:linespacing="125%"
     y="-883.33002"
     x="2322.8301"
     line-height="125%"
     style="font-size:129.22999573px;line-height:125%;font-family:'Gentium Book Basic';letter-spacing:0;word-spacing:0"
     id="text350460">
    <tspan
       y="-883.33002"
       x="2322.8301"
       id="tspan350462" />
  </text>
  <text
     transform="scale(4.0128205,0.24920128)"
     y="-3893.79"
     x="775.92603"
     style="font-size:46.95399857px;font-family:Arial;text-anchor:middle"
     id="text350464" />
  <text
     sodipodi:linespacing="125%"
     y="-963.34003"
     x="2904.0901"
     line-height="125%"
     style="font-size:129.22999573px;line-height:125%;font-family:'Gentium Book Basic';letter-spacing:0;word-spacing:0"
     id="text350466">
    <tspan
       y="-963.34003"
       x="2904.0901"
       id="tspan350468" />
  </text>
  <text
     transform="scale(4.0128205,0.24920128)"
     y="-4214.8286"
     x="920.77533"
     style="font-size:46.95399857px;font-family:Arial;text-anchor:middle"
     id="text350470" />
  <text
     sodipodi:linespacing="125%"
     y="451.38"
     x="1071.29"
     line-height="125%"
     style="font-size:208.33000183px;line-height:125%;font-family:'Gentium Book Basic';letter-spacing:0;word-spacing:0"
     id="text350472">
    <tspan
       y="451.38"
       x="1071.29"
       id="tspan350474" />
  </text>
  <path
     style="color:#000000;fill-rule:evenodd;opacity:0.25"
     d="M 85.720703 41 C 60.953703 41 40.998047 60.953703 40.998047 85.720703 L 41 85.722656 L 41 294.48047 C 41 306.85447 45.981781 318.01584 54.050781 326.08984 L 185.51562 457.55664 C 185.64196 457.68615 185.76273 457.82126 185.89062 457.94922 L 239.94141 512 L 486 512 C 500.397 512 512 500.397 512 486 L 512 239.95898 L 326.08984 54.050781 C 318.01984 45.980781 306.85447 41 294.48047 41 L 339.1582 85.679688 C 339.15822 85.693442 339.16016 85.706946 339.16016 85.720703 L 339.16016 172.83984 L 471 304.67969 L 471 318.73242 L 266.23633 113.96875 C 261.71033 109.44375 255.45153 106.65039 248.51953 106.65039 L 232.63086 106.65039 L 151.37109 106.65039 L 85.720703 41 z "
     id="path350478" />
  <path
     inkscape:connector-curvature="0"
     d="M 85.72,41 C 60.953,41 40.999,60.954 40.999,85.721 l 0,208.76 c 0,24.767 19.954,44.682 44.721,44.682 l 87.12,0 0,87.15 c 0,24.767 19.915,44.682 44.682,44.682 l 208.76,0 c 24.767,0 44.721,-19.915 44.721,-44.682 l 0,-208.76 c 0,-24.767 -19.954,-44.721 -44.721,-44.721 l -87.12,0 0,-87.12 c 0,-24.767 -19.915,-44.721 -44.682,-44.721 z m 20.926,65.65 24.996,0 100.99,0 15.889,0 c 13.863,0 25.03,11.171 25.03,25.03 l 0,41.16 -22.06,0 c -20.652,0 -33.13,3.513 -7.525,26.602 l 59.815,59.796 c 38.644,38.644 35.37,24.922 35.37,-18.852 l 39.838,0 c 13.548,0 24.453,10.905 24.453,24.453 l 0,14.532 0,99.63 0,24.453 -24.453,0 -89.17,0 -24.995,0 c -13.548,0 -24.453,-10.905 -24.453,-24.453 l 0,-39.838 24.09,0 c 24.08,0 30.04,-2.801 0.041,-32.799 l -61.37,-61.37 c -28.1,-29.31 -30.31,-11.508 -30.3,2.395 l 0,26.17 -41.19,0 c -13.864,0 -24.996,-11.171 -24.996,-25.03 l 0,-32.979 0,-83.86 z"
     style="color:#000000;fill:#ffffff;fill-rule:evenodd"
     id="path350582" />
</svg>
