<?xml version="1.0" encoding="UTF-8" standalone="no"?>
<svg
   xmlns:dc="http://purl.org/dc/elements/1.1/"
   xmlns:cc="http://creativecommons.org/ns#"
   xmlns:rdf="http://www.w3.org/1999/02/22-rdf-syntax-ns#"
   xmlns:svg="http://www.w3.org/2000/svg"
   xmlns="http://www.w3.org/2000/svg"
   xmlns:sodipodi="http://sodipodi.sourceforge.net/DTD/sodipodi-0.dtd"
   xmlns:inkscape="http://www.inkscape.org/namespaces/inkscape"
   viewBox="0 0 512 512"
   id="svg2"
   version="1.1"
   inkscape:version="0.91+devel r13804 custom"
   sodipodi:docname="webstorm.svg">
  <metadata
     id="metadata62">
    <rdf:RDF>
      <cc:Work
         rdf:about="">
        <dc:format>image/svg+xml</dc:format>
        <dc:type
           rdf:resource="http://purl.org/dc/dcmitype/StillImage" />
      </cc:Work>
    </rdf:RDF>
  </metadata>
  <defs
     id="defs60" />
  <sodipodi:namedview
     pagecolor="#ffffff"
     bordercolor="#666666"
     borderopacity="1"
     objecttolerance="10"
     gridtolerance="10"
     guidetolerance="10"
     inkscape:pageopacity="0"
     inkscape:pageshadow="2"
     inkscape:window-width="1366"
     inkscape:window-height="709"
     id="namedview58"
     showgrid="false"
     inkscape:zoom="0.4609375"
     inkscape:cx="199.59322"
     inkscape:cy="237.55932"
     inkscape:window-x="-2"
     inkscape:window-y="-3"
     inkscape:window-maximized="1"
     inkscape:current-layer="svg2" />
  <path
     inkscape:connector-curvature="0"
     d="m 25.995,0 c -14.397,0 -26,11.603 -26,26 l 0,460 c 0,14.397 11.603,26 26,26 l 460,0 c 14.397,0 26,-11.603 26,-26 l 0,-460 c 0,-14.397 -11.603,-26 -26,-26 l -460,0"
     style="fill:#0078ad"
     id="path4" />
  <path
     inkscape:connector-curvature="0"
     id="path8"
     style="color:#000000;fill:#ffffff;fill-opacity:0.30800003"
     d="M 25.995,0 C 24.414,0 22.872,0.169 21.37,0.438 l 0,19.844 -20.75,0 c -0.411,1.841 -0.625,3.751 -0.625,5.719 l 21.375,0 0,45.781 -21.375,0 0,5.719 21.406,0 0,45.781 -21.406,0 0,5.719 21.406,0 0,45.781 -21.406,0 0,5.719 21.406,0 0,45.781 -21.406,0 0,5.719 21.406,0 0,45.781 -21.406,0 0,5.719 21.375,0 0,45.781 -21.375,0 0,5.719 21.375,0 0,45.781 -21.375,0 0,5.719 21.375,0 0,45.781 -21.375,0 0,5.719 21.375,0 0,45.781 -21.375,0 0,2.219 c 0,1.189 0.097,2.354 0.25,3.5 l 21.13,0 0,22.06 c 1.502,0.268 3.044,0.438 4.625,0.438 l 1.094,0 0,-22.5 45.781,0 0,22.5 5.719,0 0,-22.5 45.781,0 0,22.5 5.719,0 0,-22.5 45.781,0 0,22.5 5.719,0 0,-22.5 45.781,0 0,22.5 5.719,0 0,-22.5 45.781,0 0,22.5 5.719,0 0,-22.5 45.781,0 0,22.5 5.719,0 0,-22.5 45.781,0 0,22.5 5.719,0 0,-22.5 45.781,0 0,22.5 5.75,0 0,-22.5 45.781,0 0,22.5 1.094,0 c 1.581,0 3.123,-0.169 4.625,-0.438 l 0,-22.06 21.13,0 c 0.153,-1.146 0.25,-2.311 0.25,-3.5 l 0,-2.219 -21.375,0 0,-45.781 21.375,0 0,-5.719 -21.406,0 0,-45.781 21.406,0 0,-5.719 -21.406,0 0,-45.781 21.406,0 0,-5.719 -21.406,0 0,-45.781 21.406,0 0,-5.719 -21.375,0 0,-45.781 21.375,0 0,-5.719 -21.375,0 0,-45.781 21.375,0 0,-5.719 -21.375,0 0,-45.781 21.375,0 0,-5.719 -21.375,0 0,-45.781 21.375,0 0,-5.719 -21.375,0 0,-45.781 21.375,0 c 0,-1.967 -0.214,-3.878 -0.625,-5.719 l -20.75,0 0,-19.844 C 489.128,0.17 487.586,0 486.005,0 l -1.094,0 0,20.281 -45.781,0 0,-20.281 -5.719,0 0,20.281 -45.781,0 0,-20.281 -5.719,0 0,20.281 -45.781,0 0,-20.281 -5.719,0 0,20.281 -45.781,0 0,-20.281 -5.719,0 0,20.281 -45.781,0 0,-20.281 -5.719,0 0,20.281 -45.781,0 0,-20.281 -5.719,0 0,20.281 -45.781,0 0,-20.281 -5.719,0 0,20.281 -45.781,0 0,-20.281 -5.75,0 0,20.281 -45.781,0 0,-20.281 -1.094,0 m 1.125,26 45.781,0 0,45.781 -45.781,0 0,-45.781 m 51.5,0 45.781,0 0,45.781 -45.781,0 0,-45.781 m 51.5,0 45.781,0 0,45.781 -45.781,0 0,-45.781 m 51.5,0 45.781,0 0,45.781 -45.781,0 0,-45.781 m 51.5,0 45.781,0 0,45.781 -45.781,0 0,-45.781 m 51.5,0 45.781,0 0,45.781 -45.781,0 0,-45.781 m 51.5,0 45.781,0 0,45.781 -45.781,0 0,-45.781 m 51.5,0 45.781,0 0,45.781 -45.781,0 0,-45.781 m 51.5,0 45.781,0 0,45.781 -45.781,0 0,-45.781 m -412,51.5 45.781,0 0,45.781 -45.781,0 0,-45.781 m 51.5,0 45.781,0 0,45.781 -45.781,0 0,-45.781 m 51.5,0 45.781,0 0,45.781 -45.781,0 0,-45.781 m 51.5,0 45.781,0 0,45.781 -45.781,0 0,-45.781 m 51.5,0 45.781,0 0,45.781 -45.781,0 0,-45.781 m 51.5,0 45.781,0 0,45.781 -45.781,0 0,-45.781 m 51.5,0 45.781,0 0,45.781 -45.781,0 0,-45.781 m 51.5,0 45.781,0 0,45.781 -45.781,0 0,-45.781 m 51.5,0 45.781,0 0,45.781 -45.781,0 0,-45.781 m -412,51.5 45.781,0 0,45.781 -45.781,0 0,-45.781 m 51.5,0 45.781,0 0,45.781 -45.781,0 0,-45.781 m 51.5,0 45.781,0 0,45.781 -45.781,0 0,-45.781 m 51.5,0 45.781,0 0,45.781 -45.781,0 0,-45.781 m 51.5,0 45.781,0 0,45.781 -45.781,0 0,-45.781 m 51.5,0 45.781,0 0,45.781 -45.781,0 0,-45.781 m 51.5,0 45.781,0 0,45.781 -45.781,0 0,-45.781 m 51.5,0 45.781,0 0,45.781 -45.781,0 0,-45.781 m 51.5,0 45.781,0 0,45.781 -45.781,0 0,-45.781 m -412,51.5 45.781,0 0,45.781 -45.781,0 0,-45.781 m 51.5,0 45.781,0 0,45.781 -45.781,0 0,-45.781 m 51.5,0 45.781,0 0,45.781 -45.781,0 0,-45.781 m 51.5,0 45.781,0 0,45.781 -45.781,0 0,-45.781 m 51.5,0 45.781,0 0,45.781 -45.781,0 0,-45.781 m 51.5,0 45.781,0 0,45.781 -45.781,0 0,-45.781 m 51.5,0 45.781,0 0,45.781 -45.781,0 0,-45.781 m 51.5,0 45.781,0 0,45.781 -45.781,0 0,-45.781 m 51.5,0 45.781,0 0,45.781 -45.781,0 0,-45.781 m -412,51.5 45.781,0 0,45.781 -45.781,0 0,-45.781 m 51.5,0 45.781,0 0,45.781 -45.781,0 0,-45.781 m 51.5,0 45.781,0 0,45.781 -45.781,0 0,-45.781 m 51.5,0 45.781,0 0,45.781 -45.781,0 0,-45.781 m 51.5,0 45.781,0 0,45.781 -45.781,0 0,-45.781 m 51.5,0 45.75,0 0,45.781 -45.75,0 0,-45.781 m 51.5,0 45.75,0 0,45.781 -45.75,0 0,-45.781 m 51.5,0 45.75,0 0,45.781 -45.75,0 0,-45.781 m 51.5,0 45.75,0 0,45.781 -45.75,0 0,-45.781 m -412,51.5 45.75,0 0,45.781 -45.75,0 0,-45.781 m 51.5,0 45.75,0 0,45.781 -45.75,0 0,-45.781 m 51.47,0 45.781,0 0,45.781 -45.781,0 0,-45.781 m 51.5,0 45.781,0 0,45.781 -45.781,0 0,-45.781 m 51.5,0 45.781,0 0,45.781 -45.781,0 0,-45.781 m 51.5,0 45.781,0 0,45.781 -45.781,0 0,-45.781 m 51.5,0 45.781,0 0,45.781 -45.781,0 0,-45.781 m 51.5,0 45.781,0 0,45.781 -45.781,0 0,-45.781 m 51.5,0 45.781,0 0,45.781 -45.781,0 0,-45.781 m -412,51.5 45.781,0 0,45.781 -45.781,0 0,-45.781 m 51.5,0 45.781,0 0,45.781 -45.781,0 0,-45.781 m 51.5,0 45.781,0 0,45.781 -45.781,0 0,-45.781 m 51.5,0 45.781,0 0,45.781 -45.781,0 0,-45.781 m 51.5,0 45.781,0 0,45.781 -45.781,0 0,-45.781 m 51.5,0 45.781,0 0,45.781 -45.781,0 0,-45.781 m 51.5,0 45.781,0 0,45.781 -45.781,0 0,-45.781 m 51.5,0 45.781,0 0,45.781 -45.781,0 0,-45.781 m 51.5,0 45.781,0 0,45.781 -45.781,0 0,-45.781 m -412,51.5 45.781,0 0,45.781 -45.781,0 0,-45.781 m 51.5,0 45.781,0 0,45.781 -45.781,0 0,-45.781 m 51.5,0 45.781,0 0,45.781 -45.781,0 0,-45.781 m 51.5,0 45.781,0 0,45.781 -45.781,0 0,-45.781 m 51.5,0 45.781,0 0,45.781 -45.781,0 0,-45.781 m 51.5,0 45.781,0 0,45.781 -45.781,0 0,-45.781 m 51.5,0 45.781,0 0,45.781 -45.781,0 0,-45.781 m 51.5,0 45.781,0 0,45.781 -45.781,0 0,-45.781 m 51.5,0 45.781,0 0,45.781 -45.781,0 0,-45.781 m -412,51.5 45.781,0 0,45.781 -45.781,0 0,-45.781 m 51.5,0 45.781,0 0,45.781 -45.781,0 0,-45.781 m 51.5,0 45.781,0 0,45.781 -45.781,0 0,-45.781 m 51.5,0 45.781,0 0,45.781 -45.781,0 0,-45.781 m 51.5,0 45.781,0 0,45.781 -45.781,0 0,-45.781 m 51.5,0 45.781,0 0,45.781 -45.781,0 0,-45.781 m 51.5,0 45.781,0 0,45.781 -45.781,0 0,-45.781 m 51.5,0 45.781,0 0,45.781 -45.781,0 0,-45.781 m 51.5,0 45.781,0 0,45.781 -45.781,0 0,-45.781" />
  <path
     style="fill:#ffffff"
     d="M 189.68359 71.318359 L 189.67578 71.330078 L 154.89258 230.2207 L 124.51758 72.429688 L 40.988281 72.429688 L 115.95898 440.58008 L 188.30859 440.58008 L 221.13086 284.03906 L 253.08203 440.67969 L 281.83008 440.67969 L 294.55664 427.04492 C 317.27264 399.48692 341.33756 379.58562 353.97656 352.26562 C 358.90556 339.61662 360.14469 328.7343 357.80469 319.1543 C 355.72569 310.6503 350.85289 303.18669 343.21289 296.42969 C 325.53789 279.19169 309.2555 265.37906 300.0625 246.28906 C 292.1385 226.63206 287.50066 207.04914 284.84766 190.11914 L 260.54492 71.318359 L 189.68359 71.318359 z M 349.57227 72.658203 C 334.98827 94.287203 324.94506 107.60766 317.03906 124.47266 C 297.09206 157.37966 301.48958 203.6725 317.51758 237.8125 C 326.53758 260.9325 346.76812 274.10216 361.57812 290.53516 C 368.89412 298.14816 373.28117 307.02592 375.45117 316.41992 C 378.89417 331.32492 376.68389 347.45828 371.33789 361.48828 C 357.18789 393.16328 333.26859 413.94883 308.80859 440.29883 L 427.46875 440.29883 C 444.76575 418.65783 457.2042 390.8293 464.1582 367.5293 C 469.5122 349.2633 472.19861 330.96681 470.47461 314.75781 C 468.23661 297.69781 462.24031 281.45878 453.44531 268.92578 C 435.99031 244.94878 409.51531 223.79477 399.19531 204.38477 C 393.33431 192.52377 392.98933 180.11686 396.61133 163.00586 C 405.01533 124.90586 438.23063 106.88578 461.39062 72.675781 L 349.58008 72.675781 L 349.57227 72.658203 z "
     id="path3423" />
</svg>
