<?xml version="1.0" encoding="UTF-8" standalone="no"?>
<svg
   xmlns:dc="http://purl.org/dc/elements/1.1/"
   xmlns:cc="http://creativecommons.org/ns#"
   xmlns:rdf="http://www.w3.org/1999/02/22-rdf-syntax-ns#"
   xmlns:svg="http://www.w3.org/2000/svg"
   xmlns="http://www.w3.org/2000/svg"
   xmlns:xlink="http://www.w3.org/1999/xlink"
   xmlns:sodipodi="http://sodipodi.sourceforge.net/DTD/sodipodi-0.dtd"
   xmlns:inkscape="http://www.inkscape.org/namespaces/inkscape"
   sodipodi:docname="wifi-radar.svg"
   height="100%"
   width="100%"
   inkscape:version="0.91+devel r13804 custom"
   version="1.1"
   id="svg2"
   viewBox="0 0 512 512">
  <sodipodi:namedview
     pagecolor="#ffffff"
     bordercolor="#666666"
     borderopacity="1"
     objecttolerance="10"
     gridtolerance="10"
     guidetolerance="10"
     inkscape:pageopacity="0"
     inkscape:pageshadow="2"
     inkscape:window-width="1366"
     inkscape:window-height="709"
     id="namedview6"
     showgrid="false"
     showguides="true"
     inkscape:guide-bbox="true"
     inkscape:zoom="0.32593203"
     inkscape:cx="413.03383"
     inkscape:cy="255.71586"
     inkscape:window-x="-2"
     inkscape:window-y="-3"
     inkscape:window-maximized="1"
     inkscape:current-layer="svg2">
    <sodipodi:guide
       id="guide2989"
       position="260.08346,471.00503"
       orientation="0,1" />
    <sodipodi:guide
       id="guide2991"
       position="267.59322,40.983051"
       orientation="0,1" />
    <sodipodi:guide
       id="guide2993"
       position="40.940284,84.756935"
       orientation="1,0" />
    <sodipodi:guide
       id="guide2995"
       position="471.05085,254.98305"
       orientation="1,0" />
  </sodipodi:namedview>
  <metadata
     id="metadata10">
    <rdf:RDF>
      <cc:Work
         rdf:about="">
        <dc:format>image/svg+xml</dc:format>
        <dc:type
           rdf:resource="http://purl.org/dc/dcmitype/StillImage" />
        <dc:title></dc:title>
      </cc:Work>
    </rdf:RDF>
  </metadata>
  <defs
     id="defs8">
    <style
       id="style2464"
       type="text/css" />
    <style
       id="style2464-7"
       type="text/css" />
    <style
       id="style2464-7-7"
       type="text/css" />
    <style
       id="style2464-4"
       type="text/css" />
    <radialGradient
       gradientTransform="matrix(1.3220339,0,0,1.3220339,-82.44068,-82.44068)"
       gradientUnits="userSpaceOnUse"
       r="256"
       fy="256"
       fx="256"
       cy="256"
       cx="256"
       id="radialGradient61157"
       xlink:href="#1C-0"
       inkscape:collect="always" />
    <radialGradient
       gradientTransform="translate(-753.03615)"
       id="1C-0"
       gradientUnits="userSpaceOnUse"
       cy="253.05"
       cx="253.03999"
       r="218.91">
      <stop
         id="stop10-5"
         stop-color="#1e9016"
         offset="0" />
      <stop
         id="stop12-5"
         stop-color="#1d6418"
         offset=".7" />
      <stop
         id="stop14-4"
         stop-color="#1d381b"
         offset="1" />
    </radialGradient>
  </defs>
  <path
     inkscape:connector-curvature="0"
     style="fill:url(#radialGradient61157);fill-opacity:1;stroke:none"
     d="M 26,0 C 11.6026,0 0,11.60265 0,26 l 0,460 c 0,14.39735 11.6026,26 26,26 l 460,0 c 14.3973,0 26,-11.60265 26,-26 L 512,26 C 512,11.60265 500.3973,0 486,0 L 26,0 Z"
     id="rect2986" />
  <path
     inkscape:connector-curvature="0"
     id="path3476"
     d="M 14.42969,2.70117 C 11.00985,4.39681 8.02322,6.82132 5.66601,9.77539 l 500.66797,0 c -2.35721,-2.95407 -5.34384,-5.37858 -8.76367,-7.07422 l -483.14062,0 z M 1.65234,16.84765 c -0.83375,2.22723 -1.36822,4.60138 -1.5625,7.07422 l 511.82032,0 c -0.19429,-2.47284 -0.72875,-4.84699 -1.5625,-7.07422 l -508.69532,0 z M 0,30.99414 l 0,7.07421 512,0 0,-7.07421 -512,0 z m 0,14.14843 0,7.07227 512,0 0,-7.07227 -512,0 z m 0,14.14649 0,7.07226 512,0 0,-7.07226 -512,0 z m 0,14.14648 0,7.07227 512,0 0,-7.07227 -512,0 z m 0,14.14649 0,7.07226 512,0 0,-7.07226 -512,0 z m 0,14.14649 0,7.07421 512,0 0,-7.07421 -512,0 z m 0,14.14648 0,7.07422 512,0 0,-7.07422 -512,0 z m 0,14.14648 0,7.07422 512,0 0,-7.07422 -512,0 z m 0,14.14649 0,7.07422 512,0 0,-7.07422 -512,0 z m 0,14.14844 0,7.07226 512,0 0,-7.07226 -512,0 z m 0,14.14648 0,7.07227 512,0 0,-7.07227 -512,0 z m 0,14.14649 0,7.07226 512,0 0,-7.07226 -512,0 z m 0,14.14648 0,7.07422 512,0 0,-7.07422 -512,0 z m 0,14.14648 0,7.07422 512,0 0,-7.07422 -512,0 z m 0,14.14649 0,7.07422 512,0 0,-7.07422 -512,0 z m 0,14.14648 0,7.07422 512,0 0,-7.07422 -512,0 z m 0,14.14649 0,7.07422 512,0 0,-7.07422 -512,0 z m 0,14.14843 0,7.07227 512,0 0,-7.07227 -512,0 z m 0,14.14649 0,7.07226 512,0 0,-7.07226 -512,0 z m 0,14.14648 0,7.07227 512,0 0,-7.07227 -512,0 z m 0,14.14649 0,7.07422 512,0 0,-7.07422 -512,0 z m 0,14.14648 0,7.07422 512,0 0,-7.07422 -512,0 z m 0,14.14649 0,7.07422 512,0 0,-7.07422 -512,0 z m 0,14.14648 0,7.07422 512,0 0,-7.07422 -512,0 z m 0,14.14844 0,7.07226 512,0 0,-7.07226 -512,0 z m 0,14.14648 0,7.07227 512,0 0,-7.07227 -512,0 z m 0,14.14649 0,7.07226 512,0 0,-7.07226 -512,0 z m 0,14.14648 0,7.07422 512,0 0,-7.07422 -512,0 z m 0,14.14649 0,7.07421 512,0 0,-7.07421 -512,0 z m 0,14.14648 0,7.07422 512,0 0,-7.07422 -512,0 z m 0,14.14648 0,7.07422 512,0 0,-7.07422 -512,0 z m 0,14.14649 0,7.07422 512,0 0,-7.07422 -512,0 z M 0,483.69141 0,486 c 0,1.62894 0.15711,3.21904 0.4414,4.76367 l 511.11719,0 C 511.84289,489.21904 512,487.62894 512,486 l 0,-2.30859 -512,0 z m 2.83789,14.14648 c 1.35573,2.65627 3.15328,5.04529 5.29883,7.07227 l 495.72656,0 c 2.14555,-2.02698 3.94309,-4.416 5.29883,-7.07227 l -506.32422,0 z m 22.53125,14.14649 c 0.2103,0.005 0.41932,0.0156 0.63086,0.0156 l 460,0 c 0.21153,0 0.42056,-0.0106 0.63086,-0.0156 l -461.26172,0 z"
     style="opacity:0.2;fill:#ffffff" />
  <path
     inkscape:connector-curvature="0"
     style="opacity:0.25;fill:#000000"
     d="m 255.92969,76.51953 c -60.73724,-0.0914 -120.26654,37.12664 -165.3418,104.75586 -25.24141,37.87261 -51.57022,98.76798 -49.4707,114.41797 0.75099,5.60441 3.86052,11.38005 8.03515,15.55469 L 249.90625,512 486,512 c 14.3973,0 26,-11.60265 26,-26 L 512,263.82227 385.58594,137.4082 c -29.9797,-29.9797 -65.2102,-50.70762 -99.80078,-57.81641 -9.94537,-2.04329 -19.91665,-3.0573 -29.85547,-3.07226 z"
     id="path62937" />
  <path
     style="fill:#ffffff"
     inkscape:connector-curvature="0"
     id="path3708"
     d="m 205.8558,433.70925 c -6.7077,-4.24624 11.40244,-34.68071 26.63672,-44.75734 8.89508,-5.88678 22.31966,-8.32332 33.90176,-6.15168 10.83067,2.03133 28.62476,19.28251 36.59926,35.4859 3.60104,7.31487 6.1779,13.67112 5.72416,14.12486 -0.45373,0.45374 -3.14468,1.3835 -5.98251,2.06673 -4.66588,1.12516 -5.84743,-0.0695 -12.38465,-12.51055 -3.97348,-7.56534 -10.59594,-16.48534 -14.72678,-19.82804 -8.8164,-7.13521 -21.58923,-9.51536 -30.73347,-5.7281 -8.27348,3.42663 -21.39776,18.50355 -26.13708,30.03056 -3.723,9.05507 -7.08538,10.95133 -12.89741,7.2716 m -52.49447,-37.42936 c -6.59624,-5.18388 -6.74836,-7.92073 -1.28515,-22.29213 14.77923,-38.8863 41.134,-71.90681 68.25724,-85.52809 47.32765,-23.76218 99.0353,2.44834 130.2461,66.0279 12.47646,25.41713 14.42517,35.38885 8.15153,41.66511 -2.40376,2.40376 -5.63761,4.36951 -7.18898,4.36951 -6.07299,0 -13.17935,-8.60526 -18.67271,-22.59636 -7.2375,-18.45109 -22.58981,-42.00345 -34.4368,-52.86166 -27.33175,-25.0211 -59.54969,-24.85324 -85.30516,0.438 -16.01456,15.72867 -27.88122,34.35811 -36.41829,57.17872 -2.31852,6.19495 -5.34125,12.16435 -6.71819,13.26459 -5.63237,4.50065 -11.18868,4.6095 -16.63353,0.32654 m -51.5634,-42.04279 c -11.12966,-10.314 -9.7396,-18.76714 9.90616,-60.26964 14.74514,-31.14786 29.2975,-52.21778 50.48282,-73.09361 19.93295,-19.63921 34.02371,-28.80836 56.04044,-36.4655 34.54433,-12.01354 68.25725,-7.48273 104.56932,14.05142 15.3169,9.08392 40.98057,34.70169 53.79274,53.71012 22.13213,32.81069 43.73447,83.08894 39.9577,92.97149 -3.14075,8.21316 -10.1763,12.9551 -19.22219,12.9551 -10.21039,0 -15.80211,-6.08873 -22.57538,-24.61064 -12.39908,-33.87552 -30.29284,-62.8701 -52.30301,-84.74127 -16.43682,-16.33059 -29.63978,-24.20935 -48.80951,-29.1126 -51.58962,-13.21869 -105.38236,31.4862 -136.88167,113.77519 -6.22511,16.25847 -8.61182,19.9618 -15.08348,23.40942 -7.04865,3.75447 -14.02257,2.84831 -19.88049,-2.58473 M 55.97443,316.0537 C 48.63203,312.82902 42.24037,304.07032 41.11783,295.69323 39.01831,280.04324 65.34554,219.14808 90.58695,181.27547 143.03816,102.57965 215.06299,65.06111 285.78563,79.59118 c 48.77016,10.02287 98.81236,47.12177 133.61634,99.04842 25.85252,38.57551 54.62678,104.76208 51.34047,118.10274 -4.44033,18.03145 -22.28557,26.41116 -37.57231,17.6341 -7.58501,-4.35377 -11.02344,-10.0045 -18.06161,-29.69092 -18.49044,-51.70765 -52.87478,-103.40218 -84.90913,-127.63645 -46.96177,-35.52525 -92.99771,-37.55395 -139.93719,-6.15561 -36.59008,24.47294 -66.77276,67.27371 -92.9164,131.74107 -7.09062,17.48592 -12.08698,26.88063 -15.7313,29.57683 -6.10184,4.51376 -19.52904,6.53066 -25.6322,3.84889" />
</svg>
