<?xml version="1.0" encoding="UTF-8" standalone="no"?>
<svg
   xmlns:dc="http://purl.org/dc/elements/1.1/"
   xmlns:cc="http://creativecommons.org/ns#"
   xmlns:rdf="http://www.w3.org/1999/02/22-rdf-syntax-ns#"
   xmlns:svg="http://www.w3.org/2000/svg"
   xmlns="http://www.w3.org/2000/svg"
   xmlns:sodipodi="http://sodipodi.sourceforge.net/DTD/sodipodi-0.dtd"
   xmlns:inkscape="http://www.inkscape.org/namespaces/inkscape"
   viewBox="0 0 512 512"
   id="svg2"
   version="1.1"
   inkscape:version="0.91+devel r13804 custom"
   sodipodi:docname="wine.svg">
  <metadata
     id="metadata472">
    <rdf:RDF>
      <cc:Work
         rdf:about="">
        <dc:format>image/svg+xml</dc:format>
        <dc:type
           rdf:resource="http://purl.org/dc/dcmitype/StillImage" />
        <dc:title></dc:title>
      </cc:Work>
    </rdf:RDF>
  </metadata>
  <sodipodi:namedview
     pagecolor="#ffffff"
     bordercolor="#666666"
     borderopacity="1"
     objecttolerance="10"
     gridtolerance="10"
     guidetolerance="10"
     inkscape:pageopacity="0"
     inkscape:pageshadow="2"
     inkscape:window-width="1366"
     inkscape:window-height="709"
     id="namedview470"
     showgrid="false"
     inkscape:zoom="0.4609375"
     inkscape:cx="683.38983"
     inkscape:cy="174.88241"
     inkscape:window-x="-2"
     inkscape:window-y="-3"
     inkscape:window-maximized="1"
     inkscape:current-layer="svg2" />
  <defs
     id="defs4" />
  <path
     inkscape:connector-curvature="0"
     d="M 26,0 C 11.603,0 0,11.603 0,26 l 0,460 c 0,14.397 11.603,26 26,26 l 460,0 c 14.397,0 26,-11.603 26,-26 L 512,26 C 512,11.603 500.397,0 486,0 L 26,0"
     style="fill:#98d53b"
     id="path370285" />
  <path
     inkscape:connector-curvature="0"
     d="m 256,256 0,256 230,0 c 14.397,0 26,-11.603 26,-26 l 0,-230 -256,0"
     style="fill:#e4b033"
     id="path370287" />
  <path
     inkscape:connector-curvature="0"
     d="m 0,256 0,230 c 0,14.397 11.603,26 26,26 l 230,0 0,-256 -256,0"
     style="fill:#20a9bc"
     id="path370289" />
  <path
     inkscape:connector-curvature="0"
     d="M 26,0 C 11.603,0 0,11.603 0,26 L 0,256 256,256 256,0 26,0"
     style="fill:#fb4e26"
     id="path370291" />
  <text
     sodipodi:linespacing="125%"
     y="149.87"
     x="-456"
     line-height="125%"
     style="font-size:129.22999573px;line-height:125%;font-family:'Gentium Book Basic';letter-spacing:0;word-spacing:0"
     id="text370293">
    <tspan
       y="149.87"
       x="-456"
       id="tspan370295" />
  </text>
  <text
     transform="scale(4.0128205,0.24920128)"
     y="252.2287"
     x="83.439575"
     style="font-size:46.95399857px;font-family:Arial;text-anchor:middle"
     id="text370297" />
  <text
     sodipodi:linespacing="125%"
     y="69.865997"
     x="125.27"
     line-height="125%"
     style="font-size:129.22999573px;line-height:125%;font-family:'Gentium Book Basic';letter-spacing:0;word-spacing:0"
     id="text370299">
    <tspan
       y="69.865997"
       x="125.27"
       id="tspan370301" />
  </text>
  <text
     transform="scale(4.0128205,0.24920128)"
     y="-68.800652"
     x="228.28882"
     style="font-size:46.95399857px;font-family:Arial;text-anchor:middle"
     id="text370303" />
  <text
     sodipodi:linespacing="125%"
     y="-111.39"
     x="-946.31"
     line-height="125%"
     style="font-size:129.22999573px;line-height:125%;font-family:'Gentium Book Basic';letter-spacing:0;word-spacing:0"
     id="text370305">
    <tspan
       y="-111.39"
       x="-946.31"
       id="tspan370307" />
  </text>
  <text
     transform="scale(4.0128205,0.24920128)"
     y="-796.15588"
     x="-38.744801"
     style="font-size:46.95399857px;font-family:Arial;text-anchor:middle"
     id="text370309" />
  <text
     sodipodi:linespacing="125%"
     y="-327.85999"
     x="151.74001"
     line-height="125%"
     style="font-size:129.22999573px;line-height:125%;font-family:'Gentium Book Basic';letter-spacing:0;word-spacing:0"
     id="text370311">
    <tspan
       y="-327.85999"
       x="151.74001"
       id="tspan370313" />
  </text>
  <text
     transform="scale(4.0128205,0.24920128)"
     y="-1664.8114"
     x="234.88879"
     style="font-size:46.95399857px;font-family:Arial;text-anchor:middle"
     id="text370315" />
  <text
     sodipodi:linespacing="125%"
     y="-407.87"
     x="733.01001"
     line-height="125%"
     style="font-size:129.22999573px;line-height:125%;font-family:'Gentium Book Basic';letter-spacing:0;word-spacing:0"
     id="text370317">
    <tspan
       y="-407.87"
       x="733.01001"
       id="tspan370319" />
  </text>
  <text
     transform="scale(4.0128205,0.24920128)"
     y="-1985.8499"
     x="379.73804"
     style="font-size:46.95399857px;font-family:Arial;text-anchor:middle"
     id="text370321" />
  <text
     sodipodi:linespacing="125%"
     y="-880.27002"
     x="343.89001"
     line-height="125%"
     style="font-size:129.22999573px;line-height:125%;font-family:'Gentium Book Basic';letter-spacing:0;word-spacing:0"
     id="text370323">
    <tspan
       y="-880.27002"
       x="343.89001"
       id="tspan370325" />
  </text>
  <text
     transform="scale(4.0128205,0.24920128)"
     y="-3881.4902"
     x="282.76855"
     style="font-size:46.95399857px;font-family:Arial;text-anchor:middle"
     id="text370327" />
  <text
     sodipodi:linespacing="125%"
     y="-960.27002"
     x="925.15002"
     line-height="125%"
     style="font-size:129.22999573px;line-height:125%;font-family:'Gentium Book Basic';letter-spacing:0;word-spacing:0"
     id="text370329">
    <tspan
       y="-960.27002"
       x="925.15002"
       id="tspan370331" />
  </text>
  <text
     transform="scale(4.0128205,0.24920128)"
     y="-4202.5186"
     x="427.6178"
     style="font-size:46.95399857px;font-family:Arial;text-anchor:middle"
     id="text370333" />
  <g
     line-height="125%"
     style="line-height:125%;font-family:'Gentium Book Basic';letter-spacing:0;word-spacing:0"
     id="g370335">
    <text
       y="454.45001"
       x="-907.65002"
       style="font-size:208.33000183px"
       id="text370337">
      <tspan
         y="454.45001"
         x="-907.65002"
         id="tspan370339" />
    </text>
    <text
       y="30.209999"
       x="-753.60999"
       style="font-size:129.22999573px"
       id="text370341">
      <tspan
         y="30.209999"
         x="-753.60999"
         id="tspan370343" />
    </text>
  </g>
  <text
     transform="scale(4.0128205,0.24920128)"
     y="-227.92883"
     x="9.279952"
     style="font-size:46.95399857px;font-family:Arial;text-anchor:middle"
     id="text370345" />
  <text
     sodipodi:linespacing="125%"
     y="-49.791"
     x="-172.34"
     line-height="125%"
     style="font-size:129.22999573px;line-height:125%;font-family:'Gentium Book Basic';letter-spacing:0;word-spacing:0"
     id="text370347">
    <tspan
       y="-49.791"
       x="-172.34"
       id="tspan370349" />
  </text>
  <text
     transform="scale(4.0128205,0.24920128)"
     y="-548.95721"
     x="154.12921"
     style="font-size:46.95399857px;font-family:Arial;text-anchor:middle"
     id="text370351" />
  <text
     sodipodi:linespacing="125%"
     y="-231.05"
     x="-1243.92"
     line-height="125%"
     style="font-size:129.22999573px;line-height:125%;font-family:'Gentium Book Basic';letter-spacing:0;word-spacing:0"
     id="text370353">
    <tspan
       y="-231.05"
       x="-1243.92"
       id="tspan370355" />
  </text>
  <text
     transform="scale(4.0128205,0.24920128)"
     y="-1276.3134"
     x="-112.90942"
     style="font-size:46.95399857px;font-family:Arial;text-anchor:middle"
     id="text370357" />
  <text
     sodipodi:linespacing="125%"
     y="-447.51999"
     x="-145.87"
     line-height="125%"
     style="font-size:129.22999573px;line-height:125%;font-family:'Gentium Book Basic';letter-spacing:0;word-spacing:0"
     id="text370359">
    <tspan
       y="-447.51999"
       x="-145.87"
       id="tspan370361" />
  </text>
  <text
     transform="scale(4.0128205,0.24920128)"
     y="-2144.969"
     x="160.72917"
     style="font-size:46.95399857px;font-family:Arial;text-anchor:middle"
     id="text370363" />
  <text
     sodipodi:linespacing="125%"
     y="-527.53003"
     x="435.39999"
     line-height="125%"
     style="font-size:129.22999573px;line-height:125%;font-family:'Gentium Book Basic';letter-spacing:0;word-spacing:0"
     id="text370365">
    <tspan
       y="-527.53003"
       x="435.39999"
       id="tspan370367" />
  </text>
  <text
     transform="scale(4.0128205,0.24920128)"
     y="-2466.0073"
     x="305.57843"
     style="font-size:46.95399857px;font-family:Arial;text-anchor:middle"
     id="text370369" />
  <text
     sodipodi:linespacing="125%"
     y="-999.92999"
     x="46.279999"
     line-height="125%"
     style="font-size:129.22999573px;line-height:125%;font-family:'Gentium Book Basic';letter-spacing:0;word-spacing:0"
     id="text370371">
    <tspan
       y="-999.92999"
       x="46.279999"
       id="tspan370373" />
  </text>
  <text
     transform="scale(4.0128205,0.24920128)"
     y="-4361.6475"
     x="208.60893"
     style="font-size:46.95399857px;font-family:Arial;text-anchor:middle"
     id="text370375" />
  <text
     sodipodi:linespacing="125%"
     y="-1079.9301"
     x="627.53998"
     line-height="125%"
     style="font-size:129.22999573px;line-height:125%;font-family:'Gentium Book Basic';letter-spacing:0;word-spacing:0"
     id="text370377">
    <tspan
       y="-1079.9301"
       x="627.53998"
       id="tspan370379" />
  </text>
  <text
     transform="scale(4.0128205,0.24920128)"
     y="-4682.6763"
     x="353.45819"
     style="font-size:46.95399857px;font-family:Arial;text-anchor:middle"
     id="text370381" />
  <g
     line-height="125%"
     style="line-height:125%;font-family:'Gentium Book Basic';letter-spacing:0;word-spacing:0"
     id="g370383">
    <text
       y="334.79001"
       x="-1205.26"
       style="font-size:208.33000183px"
       id="text370385">
      <tspan
         y="334.79001"
         x="-1205.26"
         id="tspan370387" />
    </text>
    <text
       y="91.57"
       x="-296.45999"
       style="font-size:129.22999573px"
       id="text370389">
      <tspan
         y="91.57"
         x="-296.45999"
         id="tspan370391" />
    </text>
  </g>
  <text
     transform="scale(4.0128205,0.24920128)"
     y="18.302906"
     x="123.19936"
     style="font-size:46.95399857px;font-family:Arial;text-anchor:middle"
     id="text370393" />
  <text
     sodipodi:linespacing="125%"
     y="11.572"
     x="284.81"
     line-height="125%"
     style="font-size:129.22999573px;line-height:125%;font-family:'Gentium Book Basic';letter-spacing:0;word-spacing:0"
     id="text370395">
    <tspan
       y="11.572"
       x="284.81"
       id="tspan370397" />
  </text>
  <text
     transform="scale(4.0128205,0.24920128)"
     y="-302.72845"
     x="268.04861"
     style="font-size:46.95399857px;font-family:Arial;text-anchor:middle"
     id="text370399" />
  <text
     sodipodi:linespacing="125%"
     y="-169.69"
     x="-786.77002"
     line-height="125%"
     style="font-size:129.22999573px;line-height:125%;font-family:'Gentium Book Basic';letter-spacing:0;word-spacing:0"
     id="text370401">
    <tspan
       y="-169.69"
       x="-786.77002"
       id="tspan370403" />
  </text>
  <text
     transform="scale(4.0128205,0.24920128)"
     y="-1030.0747"
     x="1.0129948"
     style="font-size:46.95399857px;font-family:Arial;text-anchor:middle"
     id="text370405" />
  <text
     sodipodi:linespacing="125%"
     y="-386.16"
     x="311.28"
     line-height="125%"
     style="font-size:129.22999573px;line-height:125%;font-family:'Gentium Book Basic';letter-spacing:0;word-spacing:0"
     id="text370407">
    <tspan
       y="-386.16"
       x="311.28"
       id="tspan370409" />
  </text>
  <text
     transform="scale(4.0128205,0.24920128)"
     y="-1898.7402"
     x="274.64859"
     style="font-size:46.95399857px;font-family:Arial;text-anchor:middle"
     id="text370411" />
  <text
     sodipodi:linespacing="125%"
     y="-466.17001"
     x="892.54999"
     line-height="125%"
     style="font-size:129.22999573px;line-height:125%;font-family:'Gentium Book Basic';letter-spacing:0;word-spacing:0"
     id="text370413">
    <tspan
       y="-466.17001"
       x="892.54999"
       id="tspan370415" />
  </text>
  <text
     transform="scale(4.0128205,0.24920128)"
     y="-2219.7786"
     x="419.49786"
     style="font-size:46.95399857px;font-family:Arial;text-anchor:middle"
     id="text370417" />
  <text
     sodipodi:linespacing="125%"
     y="-938.57001"
     x="503.42999"
     line-height="125%"
     style="font-size:129.22999573px;line-height:125%;font-family:'Gentium Book Basic';letter-spacing:0;word-spacing:0"
     id="text370419">
    <tspan
       y="-938.57001"
       x="503.42999"
       id="tspan370421" />
  </text>
  <text
     transform="scale(4.0128205,0.24920128)"
     y="-4115.4189"
     x="322.52835"
     style="font-size:46.95399857px;font-family:Arial;text-anchor:middle"
     id="text370423" />
  <text
     sodipodi:linespacing="125%"
     y="-1018.57"
     x="1084.6899"
     line-height="125%"
     style="font-size:129.22999573px;line-height:125%;font-family:'Gentium Book Basic';letter-spacing:0;word-spacing:0"
     id="text370425">
    <tspan
       y="-1018.57"
       x="1084.6899"
       id="tspan370427" />
  </text>
  <text
     transform="scale(4.0128205,0.24920128)"
     y="-4436.437"
     x="467.37762"
     style="font-size:46.95399857px;font-family:Arial;text-anchor:middle"
     id="text370429" />
  <g
     line-height="125%"
     style="line-height:125%;font-family:'Gentium Book Basic';letter-spacing:0;word-spacing:0"
     id="g370431">
    <text
       y="396.14999"
       x="-748.10999"
       style="font-size:208.33000183px"
       id="text370433">
      <tspan
         y="396.14999"
         x="-748.10999"
         id="tspan370435" />
    </text>
    <text
       y="145.81"
       x="-923.44"
       style="font-size:129.22999573px"
       id="text370437">
      <tspan
         y="145.81"
         x="-923.44"
         id="tspan370439" />
    </text>
  </g>
  <text
     transform="scale(4.0128205,0.24920128)"
     y="235.94879"
     x="-33.039833"
     style="font-size:46.95399857px;font-family:Arial;text-anchor:middle"
     id="text370441" />
  <text
     sodipodi:linespacing="125%"
     y="65.808998"
     x="-342.17001"
     line-height="125%"
     style="font-size:129.22999573px;line-height:125%;font-family:'Gentium Book Basic';letter-spacing:0;word-spacing:0"
     id="text370443">
    <tspan
       y="65.808998"
       x="-342.17001"
       id="tspan370445" />
  </text>
  <text
     transform="scale(4.0128205,0.24920128)"
     y="-85.079567"
     x="111.80943"
     style="font-size:46.95399857px;font-family:Arial;text-anchor:middle"
     id="text370447" />
  <text
     sodipodi:linespacing="125%"
     y="-115.45"
     x="-1413.75"
     line-height="125%"
     style="font-size:129.22999573px;line-height:125%;font-family:'Gentium Book Basic';letter-spacing:0;word-spacing:0"
     id="text370449">
    <tspan
       y="-115.45"
       x="-1413.75"
       id="tspan370451" />
  </text>
  <text
     transform="scale(4.0128205,0.24920128)"
     y="-812.43585"
     x="-155.2292"
     style="font-size:46.95399857px;font-family:Arial;text-anchor:middle"
     id="text370453" />
  <text
     sodipodi:linespacing="125%"
     y="-331.92001"
     x="-315.70001"
     line-height="125%"
     style="font-size:129.22999573px;line-height:125%;font-family:'Gentium Book Basic';letter-spacing:0;word-spacing:0"
     id="text370455">
    <tspan
       y="-331.92001"
       x="-315.70001"
       id="tspan370457" />
  </text>
  <text
     transform="scale(4.0128205,0.24920128)"
     y="-1681.0913"
     x="118.4094"
     style="font-size:46.95399857px;font-family:Arial;text-anchor:middle"
     id="text370459" />
  <text
     sodipodi:linespacing="125%"
     y="-411.92999"
     x="265.57001"
     line-height="125%"
     style="font-size:129.22999573px;line-height:125%;font-family:'Gentium Book Basic';letter-spacing:0;word-spacing:0"
     id="text370461">
    <tspan
       y="-411.92999"
       x="265.57001"
       id="tspan370463" />
  </text>
  <text
     transform="scale(4.0128205,0.24920128)"
     y="-2002.1298"
     x="263.25867"
     style="font-size:46.95399857px;font-family:Arial;text-anchor:middle"
     id="text370465" />
  <text
     sodipodi:linespacing="125%"
     y="-884.33002"
     x="-123.55"
     line-height="125%"
     style="font-size:129.22999573px;line-height:125%;font-family:'Gentium Book Basic';letter-spacing:0;word-spacing:0"
     id="text370467">
    <tspan
       y="-884.33002"
       x="-123.55"
       id="tspan370469" />
  </text>
  <text
     transform="scale(4.0128205,0.24920128)"
     y="-3897.77"
     x="166.28914"
     style="font-size:46.95399857px;font-family:Arial;text-anchor:middle"
     id="text370471" />
  <text
     sodipodi:linespacing="125%"
     y="-964.33002"
     x="457.70999"
     line-height="125%"
     style="font-size:129.22999573px;line-height:125%;font-family:'Gentium Book Basic';letter-spacing:0;word-spacing:0"
     id="text370473">
    <tspan
       y="-964.33002"
       x="457.70999"
       id="tspan370475" />
  </text>
  <text
     transform="scale(4.0128205,0.24920128)"
     y="-4218.7983"
     x="311.13843"
     style="font-size:46.95399857px;font-family:Arial;text-anchor:middle"
     id="text370477" />
  <g
     transform="translate(-1653.08,-85.55)"
     line-height="125%"
     style="font-size:208.33000183px;line-height:125%;font-family:'Gentium Book Basic';letter-spacing:0;word-spacing:0"
     id="g370479">
    <text
       y="535.94"
       x="277.98999"
       id="text370481">
      <tspan
         y="535.94"
         x="277.98999"
         id="tspan370483" />
    </text>
    <text
       y="413.26999"
       x="-1771.42"
       id="text370485">
      <tspan
         y="413.26999"
         x="-1771.42"
         id="tspan370487" />
    </text>
  </g>
  <text
     transform="scale(4.0128205,0.24920128)"
     y="752.17615"
     x="-535.65723"
     style="font-size:75.69999695px;font-family:Arial;text-anchor:middle"
     id="text370489" />
  <text
     sodipodi:linespacing="125%"
     y="773.63"
     x="-2866.3201"
     line-height="125%"
     style="font-size:208.33000183px;line-height:125%;font-family:'Gentium Book Basic';letter-spacing:0;word-spacing:0"
     id="text370491">
    <tspan
       y="773.63"
       x="-2866.3201"
       id="tspan370493" />
  </text>
  <text
     transform="scale(4.0128205,0.24920128)"
     y="2541.5271"
     x="-396.55795"
     style="font-size:75.69999695px;font-family:Arial;text-anchor:middle"
     id="text370495" />
  <g
     line-height="125%"
     style="line-height:125%;letter-spacing:0;word-spacing:0"
     id="g370497">
    <text
       y="536.10999"
       x="-777.63"
       style="font-size:40px;font-family:Sans"
       id="text370499">
      <tspan
         y="536.10999"
         x="-777.63"
         style="font-style:italic;font-weight:bold"
         id="tspan370501" />
    </text>
    <text
       y="238.2"
       x="-333.32999"
       style="font-size:129.22999573px;font-family:'Gentium Book Basic'"
       id="text370503">
      <tspan
         y="238.2"
         x="-333.32999"
         id="tspan370505" />
    </text>
  </g>
  <text
     transform="scale(4.0128205,0.24920128)"
     y="606.70691"
     x="114.00941"
     style="font-size:46.95399857px;font-family:Arial;text-anchor:middle"
     id="text370507" />
  <text
     sodipodi:linespacing="125%"
     y="158.2"
     x="247.94"
     line-height="125%"
     style="font-size:129.22999573px;line-height:125%;font-family:'Gentium Book Basic';letter-spacing:0;word-spacing:0"
     id="text370509">
    <tspan
       y="158.2"
       x="247.94"
       id="tspan370511" />
  </text>
  <text
     transform="scale(4.0128205,0.24920128)"
     y="285.68854"
     x="258.85867"
     style="font-size:46.95399857px;font-family:Arial;text-anchor:middle"
     id="text370513" />
  <text
     sodipodi:linespacing="125%"
     y="-23.059999"
     x="-823.64001"
     line-height="125%"
     style="font-size:129.22999573px;line-height:125%;font-family:'Gentium Book Basic';letter-spacing:0;word-spacing:0"
     id="text370515">
    <tspan
       y="-23.059999"
       x="-823.64001"
       id="tspan370517" />
  </text>
  <text
     transform="scale(4.0128205,0.24920128)"
     y="-441.66776"
     x="-8.1759577"
     style="font-size:46.95399857px;font-family:Arial;text-anchor:middle"
     id="text370519" />
  <text
     sodipodi:linespacing="125%"
     y="-239.53"
     x="274.41"
     line-height="125%"
     style="font-size:129.22999573px;line-height:125%;font-family:'Gentium Book Basic';letter-spacing:0;word-spacing:0"
     id="text370521">
    <tspan
       y="-239.53"
       x="274.41"
       id="tspan370523" />
  </text>
  <text
     transform="scale(4.0128205,0.24920128)"
     y="-1310.3333"
     x="265.45862"
     style="font-size:46.95399857px;font-family:Arial;text-anchor:middle"
     id="text370525" />
  <text
     sodipodi:linespacing="125%"
     y="-319.54001"
     x="855.67999"
     line-height="125%"
     style="font-size:129.22999573px;line-height:125%;font-family:'Gentium Book Basic';letter-spacing:0;word-spacing:0"
     id="text370527">
    <tspan
       y="-319.54001"
       x="855.67999"
       id="tspan370529" />
  </text>
  <text
     transform="scale(4.0128205,0.24920128)"
     y="-1631.3617"
     x="410.30789"
     style="font-size:46.95399857px;font-family:Arial;text-anchor:middle"
     id="text370531" />
  <text
     sodipodi:linespacing="125%"
     y="-791.94"
     x="466.56"
     line-height="125%"
     style="font-size:129.22999573px;line-height:125%;font-family:'Gentium Book Basic';letter-spacing:0;word-spacing:0"
     id="text370533">
    <tspan
       y="-791.94"
       x="466.56"
       id="tspan370535" />
  </text>
  <text
     transform="scale(4.0128205,0.24920128)"
     y="-3527.002"
     x="313.33838"
     style="font-size:46.95399857px;font-family:Arial;text-anchor:middle"
     id="text370537" />
  <text
     sodipodi:linespacing="125%"
     y="-871.94"
     x="1047.8199"
     line-height="125%"
     style="font-size:129.22999573px;line-height:125%;font-family:'Gentium Book Basic';letter-spacing:0;word-spacing:0"
     id="text370539">
    <tspan
       y="-871.94"
       x="1047.8199"
       id="tspan370541" />
  </text>
  <text
     transform="scale(4.0128205,0.24920128)"
     y="-3848.0303"
     x="458.18765"
     style="font-size:46.95399857px;font-family:Arial;text-anchor:middle"
     id="text370543" />
  <text
     sodipodi:linespacing="125%"
     y="542.78003"
     x="-784.97998"
     line-height="125%"
     style="font-size:208.33000183px;line-height:125%;font-family:'Gentium Book Basic';letter-spacing:0;word-spacing:0"
     id="text370545">
    <tspan
       y="542.78003"
       x="-784.97998"
       id="tspan370547" />
  </text>
  <path
     d="M 273.16992 41 C 261.03992 40.966 251.71928 42.955656 247.86328 47.222656 L 247.86914 47.230469 C 241.75514 54.001469 227.67923 104.49992 210.11523 181.66992 L 309.8418 281.39648 C 309.84093 281.39761 309.84071 281.39926 309.83984 281.40039 L 210.10938 181.66992 C 197.43537 237.19992 206.23064 269.58992 214.89062 286.91992 C 225.96062 309.07992 234.5918 322.40114 217.0918 366.61914 L 217.08984 366.61914 C 204.41584 398.64914 191.48366 404.78078 179.47266 406.30078 L 179.4707 406.30078 C 150.5267 399.33978 128.68308 399.08997 125.83008 406.91797 L 125.83789 406.92578 C 124.68555 410.10003 126.77411 414.24091 131.44727 418.91406 L 131.66797 419.13477 C 131.59633 419.06406 131.50991 418.99038 131.43945 418.91992 L 224.51953 512 L 486 512 C 500.397 512 512 500.397 512 486 L 512 211.96875 L 377.4707 77.439453 C 354.6987 54.667453 304.55069 41.07 273.17969 41 L 283.65234 51.472656 C 283.64907 51.472398 283.64585 51.472914 283.64258 51.472656 L 273.16992 41 z "
     id="path370551"
     style="opacity:0.25" />
  <path
     inkscape:connector-curvature="0"
     d="m 273.17,41 c -12.13,-0.034 -21.451,1.956 -25.307,6.223 -6.114,6.771 -20.19,57.27 -37.754,134.44 -12.674,55.53 -3.88,87.92 4.78,105.25 11.07,22.16 19.701,35.482 2.201,79.7 -12.674,32.03 -25.606,38.16 -37.617,39.68 -28.944,-6.961 -50.787,-7.21 -53.64,0.618 -3.903,10.709 29.12,32.416 73.72,48.48 44.597,16.07 83.983,20.439 87.89,9.731 2.861,-7.855 -14.193,-21.634 -41.06,-34.763 -11.793,-12.151 -22.371,-20.613 -13.03,-58.25 18.268,-73.62 46.14,-48.32 78.987,-94.08 27.861,-38.817 35.24,-68.6 51.37,-114.09 17.1,-48.2 24.597,-70.52 22.384,-74.925 -14.902,-29.679 -76.54,-47.952 -112.92,-48.04 m 2.511,10.111 c 13.554,0.125 30.785,3.077 44.769,8.08 29.964,10.723 57.01,25.707 55.43,34.694 -4.01,22.705 -12.765,41.25 -14.992,47.657 -29.31,-28.345 -66.945,56.25 -127.3,-13.753 0,0 11.54,-44.47 19.496,-69.834 1.519,-4.847 10.63,-6.948 22.59,-6.843"
     style="fill:#ffffff"
     id="path370601" />
</svg>
