<?xml version="1.0" encoding="UTF-8" standalone="no"?>
<svg
   xmlns:dc="http://purl.org/dc/elements/1.1/"
   xmlns:cc="http://creativecommons.org/ns#"
   xmlns:rdf="http://www.w3.org/1999/02/22-rdf-syntax-ns#"
   xmlns:svg="http://www.w3.org/2000/svg"
   xmlns="http://www.w3.org/2000/svg"
   xmlns:sodipodi="http://sodipodi.sourceforge.net/DTD/sodipodi-0.dtd"
   xmlns:inkscape="http://www.inkscape.org/namespaces/inkscape"
   viewBox="0 0 512 512"
   id="svg2"
   version="1.1"
   inkscape:version="0.91+devel r13804 custom"
   sodipodi:docname="wine-uninstaller.svg">
  <metadata
     id="metadata472">
    <rdf:RDF>
      <cc:Work
         rdf:about="">
        <dc:format>image/svg+xml</dc:format>
        <dc:type
           rdf:resource="http://purl.org/dc/dcmitype/StillImage" />
        <dc:title></dc:title>
      </cc:Work>
    </rdf:RDF>
  </metadata>
  <sodipodi:namedview
     pagecolor="#ffffff"
     bordercolor="#666666"
     borderopacity="1"
     objecttolerance="10"
     gridtolerance="10"
     guidetolerance="10"
     inkscape:pageopacity="0"
     inkscape:pageshadow="2"
     inkscape:window-width="1366"
     inkscape:window-height="709"
     id="namedview470"
     showgrid="false"
     inkscape:zoom="0.4609375"
     inkscape:cx="683.38983"
     inkscape:cy="174.88241"
     inkscape:window-x="-2"
     inkscape:window-y="-3"
     inkscape:window-maximized="1"
     inkscape:current-layer="svg2" />
  <defs
     id="defs4" />
  <path
     inkscape:connector-curvature="0"
     d="M 25.999741,0 C 11.60274,0 -2.6e-4,11.603 -2.6e-4,26 l 0,460 c 0,14.397 11.603,26 26.000001,26 l 459.999999,0 c 14.397,0 26,-11.603 26,-26 l 0,-460 c 0,-14.397 -11.603,-26 -26,-26 L 25.999741,0"
     style="fill:#98d53b"
     id="path367697" />
  <path
     inkscape:connector-curvature="0"
     d="m 255.99974,256 0,256 230,0 c 14.397,0 26,-11.603 26,-26 l 0,-230 -256,0"
     style="fill:#e4b033"
     id="path367699" />
  <path
     inkscape:connector-curvature="0"
     d="m -2.6e-4,256 0,230 c 0,14.397 11.603,26 26.000001,26 l 229.999999,0 0,-256 -256,0"
     style="fill:#20a9bc"
     id="path367701" />
  <path
     inkscape:connector-curvature="0"
     d="M 25.999741,0 C 11.60274,0 -2.6e-4,11.603 -2.6e-4,26 l 0,230 256,0 0,-256 -229.999999,0"
     style="fill:#fb4e26"
     id="path367703" />
  <path
     inkscape:connector-curvature="0"
     d="M 358.09987,40.99909 255.97878,143.12019 153.90065,41.04011 41.039321,153.89949 143.1194,255.97957 41.000261,358.10066 153.90065,470.9991 l 41,41 291.09961,0 c 14.397,0 26,-11.603 26,-26 l 0,-291.09961 -41,-41 -112.90039,-112.9004 z"
     id="path367753"
     style="opacity:0.25" />
  <path
     inkscape:connector-curvature="0"
     d="M 358.09974,41 255.97974,143.12 153.89974,41.04 41.039741,153.9 143.11974,255.98 40.999741,358.1 153.89974,471 l 102.12,-102.12 102.12,102.12 112.86,-112.86 -102.12,-102.12 102.12,-102.12 -112.9,-112.9"
     style="fill:#ffffff"
     id="path367777" />
</svg>
