<?xml version="1.0" encoding="UTF-8" standalone="no"?>
<svg
   xmlns:dc="http://purl.org/dc/elements/1.1/"
   xmlns:cc="http://creativecommons.org/ns#"
   xmlns:rdf="http://www.w3.org/1999/02/22-rdf-syntax-ns#"
   xmlns:svg="http://www.w3.org/2000/svg"
   xmlns="http://www.w3.org/2000/svg"
   xmlns:sodipodi="http://sodipodi.sourceforge.net/DTD/sodipodi-0.dtd"
   xmlns:inkscape="http://www.inkscape.org/namespaces/inkscape"
   viewBox="0 0 512 512"
   id="svg2"
   version="1.1"
   inkscape:version="0.91+devel r13804 custom"
   sodipodi:docname="wine-winetricks.svg">
  <metadata
     id="metadata472">
    <rdf:RDF>
      <cc:Work
         rdf:about="">
        <dc:format>image/svg+xml</dc:format>
        <dc:type
           rdf:resource="http://purl.org/dc/dcmitype/StillImage" />
        <dc:title></dc:title>
      </cc:Work>
    </rdf:RDF>
  </metadata>
  <sodipodi:namedview
     pagecolor="#ffffff"
     bordercolor="#666666"
     borderopacity="1"
     objecttolerance="10"
     gridtolerance="10"
     guidetolerance="10"
     inkscape:pageopacity="0"
     inkscape:pageshadow="2"
     inkscape:window-width="1366"
     inkscape:window-height="709"
     id="namedview470"
     showgrid="false"
     inkscape:zoom="0.4609375"
     inkscape:cx="683.38983"
     inkscape:cy="174.88241"
     inkscape:window-x="-2"
     inkscape:window-y="-3"
     inkscape:window-maximized="1"
     inkscape:current-layer="svg2" />
  <defs
     id="defs4" />
  <path
     inkscape:connector-curvature="0"
     d="M 26,0 C 11.603,0 0,11.603 0,26 l 0,460 c 0,14.397 11.603,26 26,26 l 460,0 c 14.397,0 26,-11.603 26,-26 L 512,26 C 512,11.603 500.397,0 486,0 L 26,0"
     style="fill:#98d53b"
     id="path369324" />
  <path
     inkscape:connector-curvature="0"
     d="m 256,256 0,256 230,0 c 14.397,0 26,-11.603 26,-26 l 0,-230 -256,0"
     style="fill:#e4b033"
     id="path369326" />
  <path
     inkscape:connector-curvature="0"
     d="m 0,256 0,230 c 0,14.397 11.603,26 26,26 l 230,0 0,-256 -256,0"
     style="fill:#20a9bc"
     id="path369328" />
  <path
     inkscape:connector-curvature="0"
     d="M 26,0 C 11.603,0 0,11.603 0,26 L 0,256 256,256 256,0 26,0"
     style="fill:#fb4e26"
     id="path369330" />
  <text
     sodipodi:linespacing="125%"
     y="149.87"
     x="-456"
     line-height="125%"
     style="font-size:129.22999573px;line-height:125%;font-family:'Gentium Book Basic';letter-spacing:0;word-spacing:0"
     id="text369332">
    <tspan
       y="149.87"
       x="-456"
       id="tspan369334" />
  </text>
  <text
     transform="scale(4.0128205,0.24920128)"
     y="252.2287"
     x="83.439575"
     style="font-size:46.95399857px;font-family:Arial;text-anchor:middle"
     id="text369336" />
  <text
     sodipodi:linespacing="125%"
     y="69.865997"
     x="125.27"
     line-height="125%"
     style="font-size:129.22999573px;line-height:125%;font-family:'Gentium Book Basic';letter-spacing:0;word-spacing:0"
     id="text369338">
    <tspan
       y="69.865997"
       x="125.27"
       id="tspan369340" />
  </text>
  <text
     transform="scale(4.0128205,0.24920128)"
     y="-68.800652"
     x="228.28882"
     style="font-size:46.95399857px;font-family:Arial;text-anchor:middle"
     id="text369342" />
  <text
     sodipodi:linespacing="125%"
     y="-111.39"
     x="-946.31"
     line-height="125%"
     style="font-size:129.22999573px;line-height:125%;font-family:'Gentium Book Basic';letter-spacing:0;word-spacing:0"
     id="text369344">
    <tspan
       y="-111.39"
       x="-946.31"
       id="tspan369346" />
  </text>
  <text
     transform="scale(4.0128205,0.24920128)"
     y="-796.15588"
     x="-38.744801"
     style="font-size:46.95399857px;font-family:Arial;text-anchor:middle"
     id="text369348" />
  <text
     sodipodi:linespacing="125%"
     y="-327.85999"
     x="151.74001"
     line-height="125%"
     style="font-size:129.22999573px;line-height:125%;font-family:'Gentium Book Basic';letter-spacing:0;word-spacing:0"
     id="text369350">
    <tspan
       y="-327.85999"
       x="151.74001"
       id="tspan369352" />
  </text>
  <text
     transform="scale(4.0128205,0.24920128)"
     y="-1664.8114"
     x="234.88879"
     style="font-size:46.95399857px;font-family:Arial;text-anchor:middle"
     id="text369354" />
  <text
     sodipodi:linespacing="125%"
     y="-407.87"
     x="733.01001"
     line-height="125%"
     style="font-size:129.22999573px;line-height:125%;font-family:'Gentium Book Basic';letter-spacing:0;word-spacing:0"
     id="text369356">
    <tspan
       y="-407.87"
       x="733.01001"
       id="tspan369358" />
  </text>
  <text
     transform="scale(4.0128205,0.24920128)"
     y="-1985.8499"
     x="379.73804"
     style="font-size:46.95399857px;font-family:Arial;text-anchor:middle"
     id="text369360" />
  <text
     sodipodi:linespacing="125%"
     y="-880.27002"
     x="343.89001"
     line-height="125%"
     style="font-size:129.22999573px;line-height:125%;font-family:'Gentium Book Basic';letter-spacing:0;word-spacing:0"
     id="text369362">
    <tspan
       y="-880.27002"
       x="343.89001"
       id="tspan369364" />
  </text>
  <text
     transform="scale(4.0128205,0.24920128)"
     y="-3881.4902"
     x="282.76855"
     style="font-size:46.95399857px;font-family:Arial;text-anchor:middle"
     id="text369366" />
  <text
     sodipodi:linespacing="125%"
     y="-960.27002"
     x="925.15002"
     line-height="125%"
     style="font-size:129.22999573px;line-height:125%;font-family:'Gentium Book Basic';letter-spacing:0;word-spacing:0"
     id="text369368">
    <tspan
       y="-960.27002"
       x="925.15002"
       id="tspan369370" />
  </text>
  <text
     transform="scale(4.0128205,0.24920128)"
     y="-4202.5186"
     x="427.6178"
     style="font-size:46.95399857px;font-family:Arial;text-anchor:middle"
     id="text369372" />
  <g
     line-height="125%"
     style="line-height:125%;font-family:'Gentium Book Basic';letter-spacing:0;word-spacing:0"
     id="g369374">
    <text
       y="454.45001"
       x="-907.65002"
       style="font-size:208.33000183px"
       id="text369376">
      <tspan
         y="454.45001"
         x="-907.65002"
         id="tspan369378" />
    </text>
    <text
       y="30.209999"
       x="-753.60999"
       style="font-size:129.22999573px"
       id="text369380">
      <tspan
         y="30.209999"
         x="-753.60999"
         id="tspan369382" />
    </text>
  </g>
  <text
     transform="scale(4.0128205,0.24920128)"
     y="-227.92883"
     x="9.279952"
     style="font-size:46.95399857px;font-family:Arial;text-anchor:middle"
     id="text369384" />
  <text
     sodipodi:linespacing="125%"
     y="-49.791"
     x="-172.34"
     line-height="125%"
     style="font-size:129.22999573px;line-height:125%;font-family:'Gentium Book Basic';letter-spacing:0;word-spacing:0"
     id="text369386">
    <tspan
       y="-49.791"
       x="-172.34"
       id="tspan369388" />
  </text>
  <text
     transform="scale(4.0128205,0.24920128)"
     y="-548.95721"
     x="154.12921"
     style="font-size:46.95399857px;font-family:Arial;text-anchor:middle"
     id="text369390" />
  <text
     sodipodi:linespacing="125%"
     y="-231.05"
     x="-1243.92"
     line-height="125%"
     style="font-size:129.22999573px;line-height:125%;font-family:'Gentium Book Basic';letter-spacing:0;word-spacing:0"
     id="text369392">
    <tspan
       y="-231.05"
       x="-1243.92"
       id="tspan369394" />
  </text>
  <text
     transform="scale(4.0128205,0.24920128)"
     y="-1276.3134"
     x="-112.90942"
     style="font-size:46.95399857px;font-family:Arial;text-anchor:middle"
     id="text369396" />
  <text
     sodipodi:linespacing="125%"
     y="-447.51999"
     x="-145.87"
     line-height="125%"
     style="font-size:129.22999573px;line-height:125%;font-family:'Gentium Book Basic';letter-spacing:0;word-spacing:0"
     id="text369398">
    <tspan
       y="-447.51999"
       x="-145.87"
       id="tspan369400" />
  </text>
  <text
     transform="scale(4.0128205,0.24920128)"
     y="-2144.969"
     x="160.72917"
     style="font-size:46.95399857px;font-family:Arial;text-anchor:middle"
     id="text369402" />
  <text
     sodipodi:linespacing="125%"
     y="-527.53003"
     x="435.39999"
     line-height="125%"
     style="font-size:129.22999573px;line-height:125%;font-family:'Gentium Book Basic';letter-spacing:0;word-spacing:0"
     id="text369404">
    <tspan
       y="-527.53003"
       x="435.39999"
       id="tspan369406" />
  </text>
  <text
     transform="scale(4.0128205,0.24920128)"
     y="-2466.0073"
     x="305.57843"
     style="font-size:46.95399857px;font-family:Arial;text-anchor:middle"
     id="text369408" />
  <text
     sodipodi:linespacing="125%"
     y="-999.92999"
     x="46.279999"
     line-height="125%"
     style="font-size:129.22999573px;line-height:125%;font-family:'Gentium Book Basic';letter-spacing:0;word-spacing:0"
     id="text369410">
    <tspan
       y="-999.92999"
       x="46.279999"
       id="tspan369412" />
  </text>
  <text
     transform="scale(4.0128205,0.24920128)"
     y="-4361.6475"
     x="208.60893"
     style="font-size:46.95399857px;font-family:Arial;text-anchor:middle"
     id="text369414" />
  <text
     sodipodi:linespacing="125%"
     y="-1079.9301"
     x="627.53998"
     line-height="125%"
     style="font-size:129.22999573px;line-height:125%;font-family:'Gentium Book Basic';letter-spacing:0;word-spacing:0"
     id="text369416">
    <tspan
       y="-1079.9301"
       x="627.53998"
       id="tspan369418" />
  </text>
  <text
     transform="scale(4.0128205,0.24920128)"
     y="-4682.6763"
     x="353.45819"
     style="font-size:46.95399857px;font-family:Arial;text-anchor:middle"
     id="text369420" />
  <g
     line-height="125%"
     style="line-height:125%;font-family:'Gentium Book Basic';letter-spacing:0;word-spacing:0"
     id="g369422">
    <text
       y="334.79001"
       x="-1205.26"
       style="font-size:208.33000183px"
       id="text369424">
      <tspan
         y="334.79001"
         x="-1205.26"
         id="tspan369426" />
    </text>
    <text
       y="91.57"
       x="-296.45999"
       style="font-size:129.22999573px"
       id="text369428">
      <tspan
         y="91.57"
         x="-296.45999"
         id="tspan369430" />
    </text>
  </g>
  <text
     transform="scale(4.0128205,0.24920128)"
     y="18.302906"
     x="123.19936"
     style="font-size:46.95399857px;font-family:Arial;text-anchor:middle"
     id="text369432" />
  <text
     sodipodi:linespacing="125%"
     y="11.572"
     x="284.81"
     line-height="125%"
     style="font-size:129.22999573px;line-height:125%;font-family:'Gentium Book Basic';letter-spacing:0;word-spacing:0"
     id="text369434">
    <tspan
       y="11.572"
       x="284.81"
       id="tspan369436" />
  </text>
  <text
     transform="scale(4.0128205,0.24920128)"
     y="-302.72845"
     x="268.04861"
     style="font-size:46.95399857px;font-family:Arial;text-anchor:middle"
     id="text369438" />
  <text
     sodipodi:linespacing="125%"
     y="-169.69"
     x="-786.77002"
     line-height="125%"
     style="font-size:129.22999573px;line-height:125%;font-family:'Gentium Book Basic';letter-spacing:0;word-spacing:0"
     id="text369440">
    <tspan
       y="-169.69"
       x="-786.77002"
       id="tspan369442" />
  </text>
  <text
     transform="scale(4.0128205,0.24920128)"
     y="-1030.0747"
     x="1.0129948"
     style="font-size:46.95399857px;font-family:Arial;text-anchor:middle"
     id="text369444" />
  <text
     sodipodi:linespacing="125%"
     y="-386.16"
     x="311.28"
     line-height="125%"
     style="font-size:129.22999573px;line-height:125%;font-family:'Gentium Book Basic';letter-spacing:0;word-spacing:0"
     id="text369446">
    <tspan
       y="-386.16"
       x="311.28"
       id="tspan369448" />
  </text>
  <text
     transform="scale(4.0128205,0.24920128)"
     y="-1898.7402"
     x="274.64859"
     style="font-size:46.95399857px;font-family:Arial;text-anchor:middle"
     id="text369450" />
  <text
     sodipodi:linespacing="125%"
     y="-466.17001"
     x="892.54999"
     line-height="125%"
     style="font-size:129.22999573px;line-height:125%;font-family:'Gentium Book Basic';letter-spacing:0;word-spacing:0"
     id="text369452">
    <tspan
       y="-466.17001"
       x="892.54999"
       id="tspan369454" />
  </text>
  <text
     transform="scale(4.0128205,0.24920128)"
     y="-2219.7786"
     x="419.49786"
     style="font-size:46.95399857px;font-family:Arial;text-anchor:middle"
     id="text369456" />
  <text
     sodipodi:linespacing="125%"
     y="-938.57001"
     x="503.42999"
     line-height="125%"
     style="font-size:129.22999573px;line-height:125%;font-family:'Gentium Book Basic';letter-spacing:0;word-spacing:0"
     id="text369458">
    <tspan
       y="-938.57001"
       x="503.42999"
       id="tspan369460" />
  </text>
  <text
     transform="scale(4.0128205,0.24920128)"
     y="-4115.4189"
     x="322.52835"
     style="font-size:46.95399857px;font-family:Arial;text-anchor:middle"
     id="text369462" />
  <text
     sodipodi:linespacing="125%"
     y="-1018.57"
     x="1084.6899"
     line-height="125%"
     style="font-size:129.22999573px;line-height:125%;font-family:'Gentium Book Basic';letter-spacing:0;word-spacing:0"
     id="text369464">
    <tspan
       y="-1018.57"
       x="1084.6899"
       id="tspan369466" />
  </text>
  <text
     transform="scale(4.0128205,0.24920128)"
     y="-4436.437"
     x="467.37762"
     style="font-size:46.95399857px;font-family:Arial;text-anchor:middle"
     id="text369468" />
  <g
     line-height="125%"
     style="line-height:125%;font-family:'Gentium Book Basic';letter-spacing:0;word-spacing:0"
     id="g369470">
    <text
       y="396.14999"
       x="-748.10999"
       style="font-size:208.33000183px"
       id="text369472">
      <tspan
         y="396.14999"
         x="-748.10999"
         id="tspan369474" />
    </text>
    <text
       y="145.81"
       x="-923.44"
       style="font-size:129.22999573px"
       id="text369476">
      <tspan
         y="145.81"
         x="-923.44"
         id="tspan369478" />
    </text>
  </g>
  <text
     transform="scale(4.0128205,0.24920128)"
     y="235.94879"
     x="-33.039833"
     style="font-size:46.95399857px;font-family:Arial;text-anchor:middle"
     id="text369480" />
  <text
     sodipodi:linespacing="125%"
     y="65.808998"
     x="-342.17001"
     line-height="125%"
     style="font-size:129.22999573px;line-height:125%;font-family:'Gentium Book Basic';letter-spacing:0;word-spacing:0"
     id="text369482">
    <tspan
       y="65.808998"
       x="-342.17001"
       id="tspan369484" />
  </text>
  <text
     transform="scale(4.0128205,0.24920128)"
     y="-85.079567"
     x="111.80943"
     style="font-size:46.95399857px;font-family:Arial;text-anchor:middle"
     id="text369486" />
  <text
     sodipodi:linespacing="125%"
     y="-115.45"
     x="-1413.75"
     line-height="125%"
     style="font-size:129.22999573px;line-height:125%;font-family:'Gentium Book Basic';letter-spacing:0;word-spacing:0"
     id="text369488">
    <tspan
       y="-115.45"
       x="-1413.75"
       id="tspan369490" />
  </text>
  <text
     transform="scale(4.0128205,0.24920128)"
     y="-812.43585"
     x="-155.2292"
     style="font-size:46.95399857px;font-family:Arial;text-anchor:middle"
     id="text369492" />
  <text
     sodipodi:linespacing="125%"
     y="-331.92001"
     x="-315.70001"
     line-height="125%"
     style="font-size:129.22999573px;line-height:125%;font-family:'Gentium Book Basic';letter-spacing:0;word-spacing:0"
     id="text369494">
    <tspan
       y="-331.92001"
       x="-315.70001"
       id="tspan369496" />
  </text>
  <text
     transform="scale(4.0128205,0.24920128)"
     y="-1681.0913"
     x="118.4094"
     style="font-size:46.95399857px;font-family:Arial;text-anchor:middle"
     id="text369498" />
  <text
     sodipodi:linespacing="125%"
     y="-411.92999"
     x="265.57001"
     line-height="125%"
     style="font-size:129.22999573px;line-height:125%;font-family:'Gentium Book Basic';letter-spacing:0;word-spacing:0"
     id="text369500">
    <tspan
       y="-411.92999"
       x="265.57001"
       id="tspan369502" />
  </text>
  <text
     transform="scale(4.0128205,0.24920128)"
     y="-2002.1298"
     x="263.25867"
     style="font-size:46.95399857px;font-family:Arial;text-anchor:middle"
     id="text369504" />
  <text
     sodipodi:linespacing="125%"
     y="-884.33002"
     x="-123.55"
     line-height="125%"
     style="font-size:129.22999573px;line-height:125%;font-family:'Gentium Book Basic';letter-spacing:0;word-spacing:0"
     id="text369506">
    <tspan
       y="-884.33002"
       x="-123.55"
       id="tspan369508" />
  </text>
  <text
     transform="scale(4.0128205,0.24920128)"
     y="-3897.77"
     x="166.28914"
     style="font-size:46.95399857px;font-family:Arial;text-anchor:middle"
     id="text369510" />
  <text
     sodipodi:linespacing="125%"
     y="-964.33002"
     x="457.70999"
     line-height="125%"
     style="font-size:129.22999573px;line-height:125%;font-family:'Gentium Book Basic';letter-spacing:0;word-spacing:0"
     id="text369512">
    <tspan
       y="-964.33002"
       x="457.70999"
       id="tspan369514" />
  </text>
  <text
     transform="scale(4.0128205,0.24920128)"
     y="-4218.7983"
     x="311.13843"
     style="font-size:46.95399857px;font-family:Arial;text-anchor:middle"
     id="text369516" />
  <g
     transform="translate(-1653.08,-85.55)"
     line-height="125%"
     style="font-size:208.33000183px;line-height:125%;font-family:'Gentium Book Basic';letter-spacing:0;word-spacing:0"
     id="g369518">
    <text
       y="535.94"
       x="277.98999"
       id="text369520">
      <tspan
         y="535.94"
         x="277.98999"
         id="tspan369522" />
    </text>
    <text
       y="413.26999"
       x="-1771.42"
       id="text369524">
      <tspan
         y="413.26999"
         x="-1771.42"
         id="tspan369526" />
    </text>
  </g>
  <text
     transform="scale(4.0128205,0.24920128)"
     y="752.17615"
     x="-535.65723"
     style="font-size:75.69999695px;font-family:Arial;text-anchor:middle"
     id="text369528" />
  <text
     sodipodi:linespacing="125%"
     y="773.63"
     x="-2866.3201"
     line-height="125%"
     style="font-size:208.33000183px;line-height:125%;font-family:'Gentium Book Basic';letter-spacing:0;word-spacing:0"
     id="text369530">
    <tspan
       y="773.63"
       x="-2866.3201"
       id="tspan369532" />
  </text>
  <text
     transform="scale(4.0128205,0.24920128)"
     y="2541.5271"
     x="-396.55795"
     style="font-size:75.69999695px;font-family:Arial;text-anchor:middle"
     id="text369534" />
  <text
     sodipodi:linespacing="125%"
     y="536.10999"
     x="-777.63"
     line-height="125%"
     style="font-size:40px;line-height:125%;font-family:Sans;letter-spacing:0;word-spacing:0"
     id="text369536">
    <tspan
       y="536.10999"
       x="-777.63"
       style="font-style:italic;font-weight:bold"
       id="tspan369538" />
  </text>
  <path
     d="M 255.94922 41.001953 L 396.89258 181.94531 C 396.89207 181.95703 396.89114 181.96875 396.89062 181.98047 L 255.92969 41.019531 C 178.03469 41.019531 114.9707 101.52023 114.9707 176.24023 C 114.9707 212.59023 129.90794 245.58062 154.21094 269.89062 L 163.27344 278.95312 C 167.59428 284.01059 171.80923 290.77442 175.375 298.78906 L 243.76562 367.17969 L 243.75977 367.17969 L 175.36914 298.78906 C 180.41914 310.12506 183.10014 321.64345 183.36914 330.93945 L 183.37891 330.94922 L 183.4082 331.00781 L 183.41016 331.00977 C 184.02216 340.72477 188.18595 349.44086 194.62695 355.88086 L 220.64453 381.89844 L 193.63086 385.08203 L 210.99023 402.44141 L 195.89062 404.2207 L 210.58008 418.91016 L 193.58984 420.91211 L 211.19336 438.51562 L 195.88086 440.32031 L 225.89062 470.33008 L 220.24023 470.93945 L 261.30078 512 L 486 512 C 500.397 512 512 500.397 512 486 L 512 236.83984 L 357.82031 82.660156 C 357.95613 82.796006 358.08742 82.935875 358.22266 83.072266 L 357.82031 82.669922 C 332.13631 56.985922 295.98322 41.001953 255.94922 41.001953 z "
     id="path369542"
     style="opacity:0.25" />
  <path
     inkscape:connector-curvature="0"
     d="m 255.93,41.02 c -77.895,0 -140.96,60.5 -140.96,135.22 0,38.471 16.735,73.19 43.6,97.82 l 0.038,0.114 c 5.879,5.094 11.918,13.719 16.761,24.608 5.05,11.336 7.731,22.854 8,32.15 l 0.038,0.077 c 1.275,20.254 17.994,36.17 38.581,36.17 l 68.29,0 c 21.423,0 38.696,-17.234 38.696,-38.658 l 0,-3.062 c 0.952,-8.153 3.481,-17.467 7.579,-26.678 4.847,-10.893 10.846,-19.517 16.721,-24.608 26.947,-24.649 43.75,-59.42 43.75,-97.95 0,-74.72 -63.19,-135.22 -141.08,-135.22 m -5.05238,35.78773 a 10.753209,10.753209 0 0 1 1.8755,21.396088 c -19.741,2.459002 -36.926,8.479002 -49.835,19.788002 -12.908,11.31 -22.317,28.14 -25.492,55.23 a 10.764147,10.764147 0 1 1 -21.3578,-2.5262 c 3.642,-31.09 15.527,-53.856 32.694,-68.895 17.16,-15.040002 38.838,-22.120002 61.32,-24.918002 a 10.753209,10.753209 0 0 1 0.80378,-0.0765 m 70.04443,293.306242 a 9.639706,9.639706 0 0 0 -0.68897,0.0765 l -126.62,14.922 a 9.639706,9.639706 0 1 0 2.25825,19.13783 l 126.62,-14.922 a 9.639706,9.639706 0 0 0 -1.5693,-19.21438 m 0,35.82602 a 9.775645,9.775645 0 0 0 -0.68897,0.0765 l -126.66,14.922 a 9.775645,9.775645 0 1 0 2.29652,19.40575 l 126.66,-14.922 a 9.775645,9.775645 0 0 0 -1.60758,-19.48231 m -23.92228,37.08912 a 9.785941,9.785941 0 0 0 -0.42103,0.0383 9.775645,9.775645 0 0 0 -0.68896,0.0765 l -77.77,8.382 a 9.778829,9.778829 0 0 0 2.10517,19.44402 l 77.77,-8.382 a 9.792081,9.792081 0 1 0 -0.99517,-19.55886"
     style="fill:#ffffff"
     id="path369598" />
</svg>
