<?xml version="1.0" encoding="UTF-8" standalone="no"?>
<svg
   xmlns:dc="http://purl.org/dc/elements/1.1/"
   xmlns:cc="http://creativecommons.org/ns#"
   xmlns:rdf="http://www.w3.org/1999/02/22-rdf-syntax-ns#"
   xmlns:svg="http://www.w3.org/2000/svg"
   xmlns="http://www.w3.org/2000/svg"
   xmlns:sodipodi="http://sodipodi.sourceforge.net/DTD/sodipodi-0.dtd"
   xmlns:inkscape="http://www.inkscape.org/namespaces/inkscape"
   viewBox="0 0 512 512"
   id="svg2"
   version="1.1"
   inkscape:version="0.91 r13725"
   sodipodi:docname="workspace-switcher.svg">
  <metadata
     id="metadata472">
    <rdf:RDF>
      <cc:Work
         rdf:about="">
        <dc:format>image/svg+xml</dc:format>
        <dc:type
           rdf:resource="http://purl.org/dc/dcmitype/StillImage" />
        <dc:title />
      </cc:Work>
    </rdf:RDF>
  </metadata>
  <sodipodi:namedview
     pagecolor="#ffffff"
     bordercolor="#666666"
     borderopacity="1"
     objecttolerance="10"
     gridtolerance="10"
     guidetolerance="10"
     inkscape:pageopacity="0"
     inkscape:pageshadow="2"
     inkscape:window-width="1366"
     inkscape:window-height="709"
     id="namedview470"
     showgrid="false"
     inkscape:zoom="0.4609375"
     inkscape:cx="154.03389"
     inkscape:cy="138.00105"
     inkscape:window-x="-2"
     inkscape:window-y="-3"
     inkscape:window-maximized="1"
     inkscape:current-layer="svg2" />
  <defs
     id="defs4" />
  <g
     id="g3375"
     transform="translate(355.7966,-405.69492)">
    <rect
       id="rect378455"
       style="fill:#0078ad"
       width="512"
       height="512"
       rx="25.988001"
       x="-355.7966"
       y="405.69489" />
    <path
       id="path378459"
       d="m -313.92159,497.19487 0,7.125 142.06443,142.06445 -0.006,0 -142.05843,-142.05859 0,134.9082 0,7.14649 0.004,0.004 -0.004,0 30.62109,30.6211 -23.49609,0 -7.125,0 0,7.125 142.06443,142.06445 -0.004,0 -142.06043,-142.06065 0,134.91016 0,7.14648 0.004,0.004 -0.004,0 91.49998,91.5 352.63672,0 c 14.39735,-9e-5 25.98828,-11.59102 25.98828,-25.98837 l 0,-352.64258 -41.86914,-41.86914 -7.15625,0 7.15625,7.15625 0,0.004 -7.16016,-7.16015 -186.499995,0 -7.125,0 149.1875,149.18945 -0.004,0 -149.18936,-149.18945 0,7.125 142.06446,142.06445 -0.006,0 -142.0586,-142.05859 0,19.54883 -26.679545,-26.67969 -7.15625,0 7.15625,7.15625 0,0.004 -7.16016,-7.16015 -186.49998,0 -7.125,0 z"
       style="color:#000000;opacity:0.25;fill-rule:evenodd"
       inkscape:connector-curvature="0" />
    <path
       id="path3351"
       d="m -314.91184,495.80429 0,7.83985 0,144.13086 202.75976,0 0,-151.97071 -202.75976,0 z m 227.464845,0 0,7.83985 0,144.13086 202.759765,0 0,-151.97071 -202.759765,0 z m -227.464845,179.81055 0,7.83985 0,144.13085 202.75976,0 0,-151.9707 -202.75976,0 z m 227.464845,0 0,7.83985 0,144.13085 202.759765,0 0,-151.9707 -202.759765,0 z"
       style="color:#000000;font-style:normal;font-variant:normal;font-weight:normal;font-stretch:normal;font-size:medium;line-height:normal;font-family:sans-serif;text-indent:0;text-align:start;text-decoration:none;text-decoration-line:none;text-decoration-style:solid;text-decoration-color:#000000;letter-spacing:normal;word-spacing:normal;text-transform:none;direction:ltr;block-progression:tb;writing-mode:lr-tb;baseline-shift:baseline;text-anchor:start;white-space:normal;clip-rule:nonzero;display:inline;overflow:visible;visibility:visible;opacity:1;isolation:auto;mix-blend-mode:normal;color-interpolation:sRGB;color-interpolation-filters:linearRGB;solid-color:#000000;solid-opacity:1;fill:#ffffff;fill-opacity:1;fill-rule:nonzero;stroke:none;stroke-width:15.68000031;stroke-linecap:butt;stroke-linejoin:miter;stroke-miterlimit:4;stroke-dasharray:none;stroke-dashoffset:0;stroke-opacity:1;color-rendering:auto;image-rendering:auto;shape-rendering:auto;text-rendering:auto;enable-background:accumulate"
       inkscape:connector-curvature="0" />
  </g>
</svg>
