<?xml version="1.0" encoding="UTF-8" standalone="no"?>
<svg
   xmlns:dc="http://purl.org/dc/elements/1.1/"
   xmlns:cc="http://creativecommons.org/ns#"
   xmlns:rdf="http://www.w3.org/1999/02/22-rdf-syntax-ns#"
   xmlns:svg="http://www.w3.org/2000/svg"
   xmlns="http://www.w3.org/2000/svg"
   xmlns:sodipodi="http://sodipodi.sourceforge.net/DTD/sodipodi-0.dtd"
   xmlns:inkscape="http://www.inkscape.org/namespaces/inkscape"
   viewBox="0 0 512 512"
   id="svg2"
   version="1.1"
   inkscape:version="0.91 r13725"
   sodipodi:docname="wps-office-wpsmain.svg">
  <metadata
     id="metadata472">
    <rdf:RDF>
      <cc:Work
         rdf:about="">
        <dc:format>image/svg+xml</dc:format>
        <dc:type
           rdf:resource="http://purl.org/dc/dcmitype/StillImage" />
        <dc:title />
      </cc:Work>
    </rdf:RDF>
  </metadata>
  <sodipodi:namedview
     pagecolor="#ffffff"
     bordercolor="#666666"
     borderopacity="1"
     objecttolerance="10"
     gridtolerance="10"
     guidetolerance="10"
     inkscape:pageopacity="0"
     inkscape:pageshadow="2"
     inkscape:window-width="1366"
     inkscape:window-height="709"
     id="namedview470"
     showgrid="false"
     inkscape:zoom="0.4609375"
     inkscape:cx="418.71186"
     inkscape:cy="156.44173"
     inkscape:window-x="-2"
     inkscape:window-y="-3"
     inkscape:window-maximized="1"
     inkscape:current-layer="svg2" />
  <defs
     id="defs4" />
  <path
     inkscape:connector-curvature="0"
     d="M 26,0 C 11.603,0 0,11.603 0,26 l 0,460 c 0,14.397 11.603,26 26,26 l 460,0 c 14.397,0 26,-11.603 26,-26 L 512,26 C 512,11.603 500.397,0 486,0 L 26,0"
     style="fill:#0078ad"
     id="path380600" />
  <path
     inkscape:connector-curvature="0"
     d="m 353.10938,41 0,194.24023 -194.21876,-194.2207 -99.21093,0 -0.01,-0.01 0,0.01 0,429.94141 L 100.70878,512 485.9998,512 c 14.397,0 26,-11.603 26,-26 l 0,-385.33984 L 452.33964,41 l -99.2207,0 99.2207,99.2207 0,0.01 L 353.10918,41 Z"
     id="path380656"
     style="opacity:0.25" />
  <path
     inkscape:connector-curvature="0"
     d="m 59.669,41.01 0,429.95 99.22,0 0,-0.432 97.01,-91.83 97.22,92.04 0,0.216 0.216,0 0.053,0.053 0.053,-0.053 98.89,0 0,-429.95 -99.22,0 0,295.61 -97.22,-93.77 -97.01,92.32 0,-294.14 -99.22,0"
     style="fill:#ffffff"
     id="path380690" />
</svg>
