<?xml version="1.0" encoding="UTF-8" standalone="no"?>
<svg
   xmlns:dc="http://purl.org/dc/elements/1.1/"
   xmlns:cc="http://creativecommons.org/ns#"
   xmlns:rdf="http://www.w3.org/1999/02/22-rdf-syntax-ns#"
   xmlns:svg="http://www.w3.org/2000/svg"
   xmlns="http://www.w3.org/2000/svg"
   xmlns:sodipodi="http://sodipodi.sourceforge.net/DTD/sodipodi-0.dtd"
   xmlns:inkscape="http://www.inkscape.org/namespaces/inkscape"
   viewBox="0 0 512 512"
   id="svg2"
   version="1.1"
   inkscape:version="0.91 r13725"
   sodipodi:docname="xampp.svg">
  <metadata
     id="metadata756">
    <rdf:RDF>
      <cc:Work
         rdf:about="">
        <dc:format>image/svg+xml</dc:format>
        <dc:type
           rdf:resource="http://purl.org/dc/dcmitype/StillImage" />
      </cc:Work>
    </rdf:RDF>
  </metadata>
  <defs
     id="defs754" />
  <sodipodi:namedview
     pagecolor="#ffffff"
     bordercolor="#666666"
     borderopacity="1"
     objecttolerance="10"
     gridtolerance="10"
     guidetolerance="10"
     inkscape:pageopacity="0"
     inkscape:pageshadow="2"
     inkscape:window-width="640"
     inkscape:window-height="480"
     id="namedview752"
     showgrid="false"
     inkscape:zoom="0.5546875"
     inkscape:cx="36.056338"
     inkscape:cy="240.67606"
     inkscape:current-layer="svg2" />
  <path
     inkscape:connector-curvature="0"
     style="fill:#ff5722"
     d="m 25.9995,-5e-4 c -14.397,0 -26,11.603 -26,26 l 0,460 c 0,14.397 11.603,26 26,26 l 460,0 c 14.397,0 26,-11.603 26,-26 l 0,-460 c 0,-14.397 -11.6,-26 -26,-26 l -460,0"
     id="path4" />
  <path
     style="opacity:0.25;fill-rule:evenodd"
     inkscape:connector-curvature="0"
     id="path748"
     d="m 359.9695,71.6895 c -43.9,0 -81.86,26.536 -99.86,64.991 l -28.8,-28.8 c -19.88,-19.88 -47.82,-32.25 -78.81,-32.25 -60.36,0 -109.41,47.03 -109.41,105.16 l 89.56,89.56 -0.01,0 -89.56,-89.56 c 0,23.99 8.337,46.15 22.393,63.85 l 0.007,0.01 c -15.309,20.15 -24.476,45.79 -24.476,73.66 l 117.3,117.3 -117.3,-117.3 c 0,33.7 13.378,64.09 34.807,85.52 l 108.17,108.17 302.02,0 c 14.4,0 26,-11.6 26,-26 l 0,-307.02 -75.03,-75.03 c -19.97,-19.974 -47.12,-32.26 -77,-32.26 z" />
  <path
     style="fill:#ffffff;fill-rule:evenodd"
     inkscape:connector-curvature="0"
     id="path750"
     d="m 359.9695,71.6895 c -47.615,0 -88.26,31.2 -104.01,74.974 -14.745,-41.33 -55.43,-71.04 -103.47,-71.04 -60.36,0 -109.41,47.03 -109.41,105.16 0,23.988 8.336,46.15 22.392,63.855 -15.31,20.15 -24.477,45.785 -24.477,73.66 0,64.906 49.612,117.52 110.8,117.52 47,0 87.09,-31.01 103.23,-74.74 14.555,46.09 54.718,79.22 102,79.22 59.51,0 107.79,-52.582 107.79,-117.44 0,-23.883 -6.534,-46.08 -17.759,-64.63 14.932,-19.618 23.936,-44.34 23.936,-71.27 0,-63.66 -49.782,-115.28 -111.03,-115.28 m -200.14,72.58 c 22.13,0 39.997,17.584 39.997,39.3 l 0,39.3 c 0,0 -28.416,0.077 -39.997,0.077 -22.13,0 -40.07,-17.646 -40.07,-39.38 0,-21.717 18,-39.3 40.07,-39.3 m 201.68,3.01 0.154,0.077 c 9.123,-0.123 17.902,3.418 24.322,9.96 6.42,6.527 10.01,15.462 9.883,24.708 0,27.331 -4.055,53.53 -18.222,73.51 3.02,1.599 5.813,3.681 8.262,6.177 6.42,6.466 10.01,15.385 9.883,24.631 l 0.077,40.15 c 0,18.891 -15.07,34.28 -33.665,34.28 -18.553,0 -33.588,-15.391 -33.588,-34.28 l 0,-38.915 c -16.867,4.308 -35.647,5.02 -56.675,5.02 -35.755,0 -63.37,0.716 -72.966,4.556 -4.807,1.858 -5.416,2.336 -7.335,5.868 -1.858,3.548 -4.556,12.12 -4.556,28.26 0,18.891 -15.05,34.21 -33.588,34.21 -18.599,0 -33.665,-15.314 -33.665,-34.21 0,-23.345 3.48,-43.551 12.895,-61.08 9.415,-17.57 25.476,-30.488 41.618,-36.908 32.28,-12.901 63.824,-9.188 97.6,-9.188 32.576,0 47.27,-5.371 50.03,-7.644 2.765,-2.335 6.563,-7.898 6.563,-34.591 -0.246,-18.845 14.494,-34.28 32.97,-34.591" />
</svg>
