<?xml version="1.0" encoding="UTF-8" standalone="no"?>
<!-- Created with Inkscape (http://www.inkscape.org/) -->

<svg
   xmlns:dc="http://purl.org/dc/elements/1.1/"
   xmlns:cc="http://creativecommons.org/ns#"
   xmlns:rdf="http://www.w3.org/1999/02/22-rdf-syntax-ns#"
   xmlns:svg="http://www.w3.org/2000/svg"
   xmlns="http://www.w3.org/2000/svg"
   xmlns:sodipodi="http://sodipodi.sourceforge.net/DTD/sodipodi-0.dtd"
   xmlns:inkscape="http://www.inkscape.org/namespaces/inkscape"
   id="svg2"
   height="100%"
   width="100%"
   version="1.1"
   viewBox="0 0 512 512"
   inkscape:version="0.91 r13725"
   sodipodi:docname="xfce-sensors.svg">
  <defs
     id="defs32" />
  <sodipodi:namedview
     pagecolor="#ffffff"
     bordercolor="#666666"
     borderopacity="1"
     objecttolerance="10"
     gridtolerance="10"
     guidetolerance="10"
     inkscape:pageopacity="0"
     inkscape:pageshadow="2"
     inkscape:window-width="640"
     inkscape:window-height="480"
     id="namedview30"
     showgrid="false"
     inkscape:zoom="0.5546875"
     inkscape:cx="36.056338"
     inkscape:cy="240.67606"
     inkscape:current-layer="svg2" />
  <metadata
     id="metadata60">
    <rdf:RDF>
      <cc:Work
         rdf:about="">
        <dc:format>image/svg+xml</dc:format>
        <dc:type
           rdf:resource="http://purl.org/dc/dcmitype/StillImage" />
      </cc:Work>
    </rdf:RDF>
  </metadata>
  <g
     id="g3381"
     transform="translate(448.90141,-421.85915)">
    <path
       d="m -422.90141,421.85765 c -14.397,0 -26,11.603 -26,26 l 0,460 c 0,14.397 11.603,26 26,26 l 460.000002,0 c 14.397,0 26,-11.603 26,-26 l 0,-460 c 0,-14.397 -11.6,-26 -26,-26 l -460.000002,0"
       id="path4"
       style="fill:#006b65"
       inkscape:connector-curvature="0" />
    <path
       d="m -195.18141,462.85765 c -9.03,0.016 -17.963,1.582 -25.844,4.875 -16.375,6.842 -23.93,13.916 -32.875,30.719 -6.785,12.746 -7.37,19.83 -8.5,100.94 l -1.219,87.22 -14.938,16.594 c -42.886,47.699 -36.33,115.95 4.5,156.78 l 73.875,73.875 237.280002,0 c 14.397,0 26,-11.603 26,-26 l 0,-217.09 -210.690002,-210.69 c -0.414,-0.414 -0.83,-0.808 -1.25,-1.188 -11.477,-10.378 -29.1,-16.06 -46.34,-16.03"
       id="path52"
       style="opacity:0.25"
       inkscape:connector-curvature="0" />
    <path
       d="m -219.33141,890.69765 c -84.94,-21.34 -117.09,-123.13 -59.22,-187.5 l 14.925,-16.6 1.215,-87.22 c 1.13,-81.11 1.727,-88.18 8.512,-100.92 8.945,-16.803 16.508,-23.866 32.883,-30.708 22.927,-9.579 54.692,-4.679 72.18,11.136 10.03,9.07 18.406,28.06 21.09,47.84 l 2.442,17.989 19.552,0 c 20.840002,0 27.776002,3.85 27.776002,15.419 0,11.605 -6.95,15.419 -28.100002,15.419 l -19.874,0 0,34.26 14.563,0.05 c 18.160002,0.063 31.376002,6.475 32.734002,15.884 1.743,12.07 -8.05,18.33 -28.696002,18.33 l -18.601,0 0,20.912 c 0,19.922 0.721,21.714 15.235,37.857 51.010002,56.735 32.993002,148.23 -35.22,178.84 -22.641,10.161 -53.667,13.968 -73.41,9.01 m -40.42,-117.71 c 7.346,-17.14 24.862,-35.88 45.771,-48.975 7.903,-4.95 15.502,-10.696 16.887,-12.77 1.385,-2.074 2.541,-40.39 2.57,-85.15 l 0.052,-81.38 34.26,0 -0.05,-12.849 c -0.071,-18.06 -6.509,-28.972 -21.392,-36.26 -12.431,-6.087 -13.213,-6.087 -25.645,0 -20.704,10.138 -21.336,13.463 -21.392,112.6 l -0.05,89.19 -18.889,17.78 c -18.819,17.714 -23.842,26.06 -29.38,48.837 -6.355,26.13 6.936,33.05 17.254,8.979"
       id="path54"
       style="fill:#ffffff"
       inkscape:connector-curvature="0" />
  </g>
</svg>
