<?xml version="1.0" encoding="UTF-8" standalone="no"?>
<svg
   xmlns:dc="http://purl.org/dc/elements/1.1/"
   xmlns:cc="http://creativecommons.org/ns#"
   xmlns:rdf="http://www.w3.org/1999/02/22-rdf-syntax-ns#"
   xmlns:svg="http://www.w3.org/2000/svg"
   xmlns="http://www.w3.org/2000/svg"
   xmlns:sodipodi="http://sodipodi.sourceforge.net/DTD/sodipodi-0.dtd"
   xmlns:inkscape="http://www.inkscape.org/namespaces/inkscape"
   viewBox="0 0 512 512"
   id="svg2"
   version="1.1"
   inkscape:version="0.91 r13725"
   sodipodi:docname="xiphos.svg">
  <metadata
     id="metadata802">
    <rdf:RDF>
      <cc:Work
         rdf:about="">
        <dc:format>image/svg+xml</dc:format>
        <dc:type
           rdf:resource="http://purl.org/dc/dcmitype/StillImage" />
      </cc:Work>
    </rdf:RDF>
  </metadata>
  <defs
     id="defs800" />
  <sodipodi:namedview
     pagecolor="#ffffff"
     bordercolor="#666666"
     borderopacity="1"
     objecttolerance="10"
     gridtolerance="10"
     guidetolerance="10"
     inkscape:pageopacity="0"
     inkscape:pageshadow="2"
     inkscape:window-width="640"
     inkscape:window-height="480"
     id="namedview798"
     showgrid="false"
     inkscape:zoom="0.5546875"
     inkscape:cx="36.056338"
     inkscape:cy="240.67606"
     inkscape:current-layer="svg2" />
  <path
     inkscape:connector-curvature="0"
     style="fill:#cd1d31"
     d="M 26,0 C 11.603,0 0,11.603 0,26 l 0,460 c 0,14.397 11.603,26 26,26 l 460,0 c 14.397,0 26,-11.603 26,-26 L 512,26 C 512,11.603 500.4,0 486,0 L 26,0"
     id="path4" />
  <path
     inkscape:connector-curvature="0"
     style="color:#000000;opacity:0.2;fill-rule:evenodd"
     d="M 26,0 C 11.603,0 0,11.603 0,26 l 0,460 c 0,14.397 11.603,26 26,26 l 104.31,0 0,-512 L 26,0"
     id="path746" />
  <path
     inkscape:connector-curvature="0"
     style="opacity:0.25"
     d="m 221.19,41 0,108.52 -108.52,0 0,69.62 108.52,108.52 0,143.34 41,41 223.81,0 c 14.4,0 26,-11.6 26,-26 L 512,262.19 290.81,41 l 0,69.62 L 221.19,41"
     id="path794" />
  <path
     inkscape:connector-curvature="0"
     style="fill:#ffffff"
     d="m 221.19,41 0,108.52 -108.52,0 0,69.62 108.52,0 0,251.86 69.62,0 0,-251.86 108.52,0 0,-69.62 -108.52,0 0,-108.52 z"
     id="path796" />
</svg>
