<?xml version="1.0" encoding="UTF-8" standalone="no"?>
<svg
   xmlns:dc="http://purl.org/dc/elements/1.1/"
   xmlns:cc="http://creativecommons.org/ns#"
   xmlns:rdf="http://www.w3.org/1999/02/22-rdf-syntax-ns#"
   xmlns:svg="http://www.w3.org/2000/svg"
   xmlns="http://www.w3.org/2000/svg"
   xmlns:sodipodi="http://sodipodi.sourceforge.net/DTD/sodipodi-0.dtd"
   xmlns:inkscape="http://www.inkscape.org/namespaces/inkscape"
   viewBox="0 0 512 512"
   id="svg2"
   version="1.1"
   inkscape:version="0.91+devel r13804 custom"
   sodipodi:docname="xmind.svg">
  <metadata
     id="metadata472">
    <rdf:RDF>
      <cc:Work
         rdf:about="">
        <dc:format>image/svg+xml</dc:format>
        <dc:type
           rdf:resource="http://purl.org/dc/dcmitype/StillImage" />
        <dc:title></dc:title>
      </cc:Work>
    </rdf:RDF>
  </metadata>
  <sodipodi:namedview
     pagecolor="#ffffff"
     bordercolor="#666666"
     borderopacity="1"
     objecttolerance="10"
     gridtolerance="10"
     guidetolerance="10"
     inkscape:pageopacity="0"
     inkscape:pageshadow="2"
     inkscape:window-width="1366"
     inkscape:window-height="709"
     id="namedview470"
     showgrid="false"
     inkscape:zoom="0.4609375"
     inkscape:cx="683.38983"
     inkscape:cy="174.88241"
     inkscape:window-x="-2"
     inkscape:window-y="-3"
     inkscape:window-maximized="1"
     inkscape:current-layer="svg2" />
  <defs
     id="defs4" />
  <path
     inkscape:connector-curvature="0"
     d="M 26,0 C 11.603,0 0,11.603 0,26 l 0,460 c 0,14.397 11.603,26 26,26 l 460,0 c 14.39699,0 26,-11.603 26,-26 L 512,26 C 512,11.603 500.39699,0 486,0 L 26,0"
     style="fill:#d43328"
     id="path390644" />
  <path
     inkscape:connector-curvature="0"
     d="m 408.93554,130.25977 -106.73632,17.5664 64.47461,64.47852 -64.47461,-64.47461 c 0.91578,39.48722 -23.75712,71.80864 -57.875,65.19336 l -77.74414,-77.74414 -125.57813,17.58203 -0.002,0 c 5.33807,18.4711 14.45517,32.51962 25.8418,43.90625 l 0,0.002 c 0.0186,0.0186 0.038,0.0361 0.0566,0.0547 l 84.07422,84.07617 C 111.4366,294.9993 48.45741,301.27808 50.66011,381.74023 L 180.91988,512 l 305.08008,0 c 14.39699,0 25.99999,-11.603 25.99999,-26 l 0,-252.67969 -103.06055,-103.06054 -0.004,0 z"
     id="path395020"
     style="opacity:0.25" />
  <path
     inkscape:connector-curvature="0"
     d="M 408.93999,130.26 302.2,147.827 c 1.539,66.38 -69.23,112.51 -135.63,-12.55 L 40.99,152.859 c 19.541,67.62 89.72,75.951 136.52,111.51 -23.403,33.36 -129.71,13.263 -126.86,117.37 l 106.74,-17.582 c -1.539,-66.38 121.64,-122.28 188.03,2.786 L 471,349.361 c -19.58701,-67.783 -94.16,-74.24 -140.96,-110.02 23.19,-48.45 99.92999,-4.88 78.89499,-109.09"
     style="fill:#ffffff"
     id="path395048" />
</svg>
