<?xml version="1.0" encoding="UTF-8" standalone="no"?>
<svg
   xmlns:dc="http://purl.org/dc/elements/1.1/"
   xmlns:cc="http://creativecommons.org/ns#"
   xmlns:rdf="http://www.w3.org/1999/02/22-rdf-syntax-ns#"
   xmlns:svg="http://www.w3.org/2000/svg"
   xmlns="http://www.w3.org/2000/svg"
   xmlns:sodipodi="http://sodipodi.sourceforge.net/DTD/sodipodi-0.dtd"
   xmlns:inkscape="http://www.inkscape.org/namespaces/inkscape"
   viewBox="0 0 512 512"
   id="svg2"
   version="1.1"
   inkscape:version="0.91+devel r13804 custom"
   sodipodi:docname="xmoto.svg">
  <metadata
     id="metadata1355">
    <rdf:RDF>
      <cc:Work
         rdf:about="">
        <dc:format>image/svg+xml</dc:format>
        <dc:type
           rdf:resource="http://purl.org/dc/dcmitype/StillImage" />
      </cc:Work>
    </rdf:RDF>
  </metadata>
  <sodipodi:namedview
     pagecolor="#ffffff"
     bordercolor="#666666"
     borderopacity="1"
     objecttolerance="10"
     gridtolerance="10"
     guidetolerance="10"
     inkscape:pageopacity="0"
     inkscape:pageshadow="2"
     inkscape:window-width="1366"
     inkscape:window-height="709"
     id="namedview1353"
     showgrid="false"
     inkscape:zoom="0.4609375"
     inkscape:cx="84.610174"
     inkscape:cy="130.16949"
     inkscape:window-x="-2"
     inkscape:window-y="0"
     inkscape:window-maximized="0"
     inkscape:current-layer="svg2" />
  <defs
     id="defs4" />
  <path
     inkscape:connector-curvature="0"
     d="M 26,0 C 11.603,0 0,11.603 0,26 l 0,460 c 0,14.397 11.603,26 26,26 l 460,0 c 14.397,0 26,-11.603 26,-26 L 512,26 C 512,11.603 500.397,0 486,0 L 26,0"
     style="fill:#d72a2a"
     id="path9" />
  <path
     inkscape:connector-curvature="0"
     d="m 330.82031,41.07031 -45.25,73.1836 -71.26367,-71.26368 0.01,0.0156 -0.0156,-0.0156 -134.01172,0 0.0312,0.0312 75.03907,122.08008 12.91406,12.91406 c -0.67157,0.11556 -1.33725,0.24654 -2.00586,0.3711 l -5.57617,-5.57422 -0.0117,-0.0117 -16.35157,4.37695 0.002,0.002 0.10547,7.07031 0.002,0.002 c -5.32617,1.89681 -10.51599,4.10617 -15.53125,6.5918 l -0.006,-0.004 -5.38086,-5.03906 40.25195,40.25195 c -0.003,7.9e-4 -0.005,0.001 -0.008,0.002 l -40.24414,-40.24414 -14.6582,8.46093 -0.002,-0.002 0,0.004 -0.004,0.002 0.008,0.008 2.05469,7.16016 33.15039,33.15039 -0.002,0.002 -33.14649,-33.14648 c -4.55983,3.15619 -8.92113,6.55614 -13.07617,10.20508 l -0.004,-0.004 -6.85742,-3.66601 37.58985,37.58984 c -0.001,0.001 -0.003,0.003 -0.004,0.004 l -37.5879,-37.58789 -11.97461,11.97461 -0.006,-0.004 4.03906,6.72461 93.31837,93.31836 c 2e-5,10e-4 -1e-5,0.003 0,0.004 L 83.03881,226.6894 c -3.51065,4.1316 -6.80318,8.46109 -9.83594,12.97461 l -0.004,-0.004 -7.88476,-1.84571 0.006,0.006 -8.4668,14.66407 5.7832,5.78124 0,0.002 c -2.26371,4.77607 -4.28829,9.70684 -6.02343,14.7539 l -0.004,-0.002 -8.36133,0.26367 46.3457,46.34571 0,0.004 -46.34375,-46.34375 -4.37891,16.37891 0.004,0.002 6.85743,6.85742 0,0.002 c -0.69592,4.27272 -1.21522,8.60326 -1.52149,12.99414 l 71.53712,71.53906 c -0.003,0.003 -0.005,0.005 -0.008,0.008 l -71.54088,-71.54142 -8.19141,2.47851 -0.008,-0.008 0,0.01 0,0.002 0,16.91992 0.01,0.01 -0.01,-0.002 8.97265,8.97266 c 0.3722,2.95054 0.82401,5.87593 1.3711,8.76953 l 114.43555,114.43508 c -0.005,-8.6e-4 -0.009,-10e-4 -0.0137,-0.002 L 51.3394,346.68921 l -7.35547,4.56446 -0.002,0 4.40235,16.375 0.002,0.002 -0.006,0 14.50586,14.50586 -5.9043,6.26953 13.29687,13.29687 -0.004,0 -13.29296,-13.29296 8.46679,14.66406 15.16602,15.16601 -1.45703,2.7168 91.043,91.04292 315.79883,0 c 14.397,0 26,-11.603 26,-26 l 0,-397.75977 -47.16992,-47.16992 -134.00977,0 z"
     id="path849"
     style="opacity:0.25" />
  <path
     inkscape:connector-curvature="0"
     d="M 330.82,41.07 273.19,134.28 214.297,43 l -134.01,0 75.06,122.11 c 4.389,-1.158 9.288,-0.849 12.369,2.848 0.543,2.887 3.378,1.024 5.143,0.659 2.309,0.36 2.21,-1.054 2.769,-2.822 4.428,-7.295 13.87,-3.209 20.651,-4.721 4.138,-0.155 9.312,1.148 11.314,5.169 0.028,3.981 4.469,1.614 7.02,2.743 3.082,-4.843 10.266,-5.429 15.27,-3.218 6.281,1.809 15.08,2.756 17.222,10.233 -0.367,3.687 4.551,1.807 6.224,4.141 2.715,-3.824 8.692,-3.298 12.29,-0.686 5.687,4.41 15.658,6.05 16.774,14.585 -1.1,3.447 2.831,4.05 4.695,6.198 3.116,-0.54 7.5,-0.858 10.523,1.477 4.727,3.708 8.922,8.193 12.659,12.897 2.254,2.904 2.13,6.923 1.292,9.996 1.632,1.73 2.335,4.867 4.985,5.248 5.221,-0.75 9.648,2.926 10.971,7.807 2.875,5.828 9.261,11.866 5.802,18.936 -2.904,2.437 0.873,5.211 1.477,7.886 3.732,0.607 6.877,3.392 8.44,6.884 1.315,7.05 5.727,14.278 3.297,21.627 -0.247,2.296 -2.844,2.951 -3.323,4.721 1.038,2.226 -0.438,5.438 2.031,6.752 5.567,2.764 6.614,9.346 5.459,14.928 0.288,5.793 0.985,13.165 -4.642,16.8 -3.772,0.471 -1.34,4.739 -2.848,7.253 5.588,3.914 4.64,11.654 2.347,17.14 -1.229,6.188 -3.607,15.09 -11.156,15.613 -1.382,0.974 -0.724,4.609 -2.954,5.512 0.248,2.545 4.66,2.964 6.646,2.189 -2.733,6.382 -7.06,11.898 -10.05,18.09 -1.322,5.617 -6.599,10.925 -12.712,9.1 -1.19,0.552 -2.193,2.01 -3.27,3.244 l 23.42,35.921 135.51,0 -125.94,-207.22 119.76,-201.97 -134.01,0 m -147.64,128.7 -2,6.62 c -5.705,0.451 -11.302,1.25 -16.8,2.347 l -3.692,-5.934 -16.352,4.378 0.105,7.07 c -5.327,1.897 -10.518,4.107 -15.534,6.593 l -5.38,-5.04 -14.664,8.466 2.057,7.174 c -4.561,3.157 -8.924,6.557 -13.08,10.207 l -6.857,-3.666 -11.974,11.974 4.04,6.725 c -3.511,4.132 -6.804,8.462 -9.837,12.976 l -7.886,-1.846 -8.466,14.664 5.855,5.644 c -2.292,4.822 -4.339,9.802 -6.092,14.901 l -8.361,0.264 -4.378,16.378 7.332,4.04 c -0.95,5.184 -1.626,10.462 -2,15.824 l -8.202,2.479 0,16.932 8.255,2.057 c 0.409,5.319 1.112,10.551 2.084,15.692 l -7.358,4.563 4.404,16.378 8.545,-0.158 c 1.751,4.986 3.772,9.867 6.04,14.585 l -5.987,6.356 8.466,14.664 8.281,-2.347 c 2.964,4.349 6.163,8.512 9.574,12.501 l -4.141,7.728 11.974,11.974 7.332,-4.404 c 3.98,3.452 8.157,6.675 12.501,9.679 l -1.952,8.44 14.664,8.466 5.829,-6.04 c 4.75,2.325 9.664,4.399 14.69,6.198 l 0.29,8.413 16.352,4.378 3.956,-7.121 c 5.252,1.031 10.595,1.772 16.04,2.215 l 2.347,7.78 16.932,0 1.899,-7.596 c 5.605,-0.359 11.125,-1.022 16.536,-2 l 3.719,6.752 16.352,-4.378 0.264,-7.622 c 5.291,-1.794 10.46,-3.905 15.455,-6.277 l 5.09,5.275 14.664,-8.466 -1.635,-7.095 c 4.713,-3.146 9.232,-6.568 13.53,-10.233 l 5.987,3.613 11.974,-11.974 -3.27,-6.092 c 3.798,-4.311 7.336,-8.836 10.602,-13.583 l 6.383,1.82 8.466,-14.664 -4.484,-4.8 c 2.577,-5.198 4.861,-10.583 6.804,-16.11 l 6.33,0.105 4.378,-16.352 -5.354,-3.349 c 1.13,-5.709 1.914,-11.529 2.347,-17.46 l 6.01,-1.503 0,-16.932 -5.934,-1.793 c -0.394,-5.983 -1.165,-11.857 -2.268,-17.618 l 5.301,-2.927 -4.378,-16.352 -6.119,-0.211 c -1.937,-5.642 -4.211,-11.131 -6.805,-16.431 l 4.325,-4.167 -8.466,-14.664 -5.961,1.371 c -3.336,-4.923 -6.962,-9.622 -10.866,-14.08 l 3.112,-5.169 -11.974,-11.947 -5.433,2.901 c -4.479,-3.871 -9.201,-7.459 -14.14,-10.761 l 1.688,-5.855 -14.664,-8.466 -4.563,4.273 c -5.274,-2.54 -10.745,-4.755 -16.352,-6.646 l 0.106,-6.303 -16.352,-4.378 -3.455,5.565 c -5.641,-1.042 -11.397,-1.747 -17.249,-2.11 l -1.609,-6.462 -16.932,0 m -6.461,53.25 1.292,2.479 c 3.804,21.558 1.369,41.22 -1.846,57.838 -0.434,0.196 -0.867,0.395 -1.292,0.607 -0.094,0.046 -0.17,0.111 -0.264,0.158 -0.346,0.175 -0.715,0.342 -1.055,0.527 -0.814,0.439 -1.595,0.93 -2.374,1.424 -0.347,0.22 -0.689,0.428 -1.029,0.659 -16.08,-5.532 -34.489,-13.308 -51.38,-27.482 l -1.424,-2.268 c 14.76,-17.681 35.633,-30.06 59.37,-33.943 m 33.468,0.237 c 23.388,4.215 43.888,16.724 58.37,34.37 l -1,1.609 c -17.13,14.378 -35.792,22.15 -52.04,27.693 -0.084,-0.058 -0.179,-0.1 -0.264,-0.158 -0.317,-0.216 -0.626,-0.425 -0.949,-0.633 -0.062,-0.04 -0.123,-0.092 -0.185,-0.132 -0.338,-0.215 -0.683,-0.428 -1.029,-0.633 -0.049,-0.029 -0.109,-0.051 -0.158,-0.079 -0.208,-0.122 -0.422,-0.224 -0.633,-0.343 -0.584,-0.329 -1.164,-0.675 -1.767,-0.976 -0.252,-1.249 -0.505,-2.528 -0.738,-3.824 -0.214,-1.186 -0.411,-2.421 -0.607,-3.64 -0.019,-0.117 -0.034,-0.226 -0.053,-0.343 -0.185,-1.164 -0.361,-2.347 -0.528,-3.534 -0.011,-0.075 -0.016,-0.136 -0.026,-0.211 -0.053,-0.378 -0.108,-0.754 -0.158,-1.134 -0.147,-1.099 -0.293,-2.211 -0.422,-3.323 -0.161,-1.392 -0.317,-2.814 -0.448,-4.22 -0.12,-1.288 -0.224,-2.558 -0.316,-3.851 -0.03,-0.423 -0.052,-0.843 -0.079,-1.266 -0.067,-1.04 -0.138,-2.074 -0.185,-3.112 -0.01,-0.212 -0.018,-0.421 -0.026,-0.633 -0.046,-1.119 -0.058,-2.237 -0.079,-3.35 -0.01,-0.517 -0.022,-1.042 -0.026,-1.556 0,-0.618 -0.03,-1.232 -0.026,-1.846 0.01,-1.198 0.04,-2.381 0.079,-3.561 0.033,-0.996 0.074,-1.975 0.132,-2.954 0.042,-0.713 0.103,-1.434 0.158,-2.136 0.068,-0.861 0.122,-1.715 0.211,-2.558 0,-0.017 0,-0.036 0,-0.053 0.13,-1.221 0.324,-2.409 0.501,-3.587 0.011,-0.076 0.014,-0.161 0.026,-0.237 0.058,-0.38 0.095,-0.733 0.158,-1.108 0.036,-0.211 0.068,-0.424 0.106,-0.633 0.092,-0.518 0.214,-1.049 0.316,-1.556 0.11,-0.545 0.195,-1.051 0.316,-1.582 0.039,-0.17 0.092,-0.333 0.132,-0.501 0.023,-0.095 0.056,-0.195 0.079,-0.29 0.107,-0.439 0.201,-0.889 0.316,-1.319 0.112,-0.417 0.249,-0.832 0.369,-1.24 0.053,-0.18 0.104,-0.35 0.158,-0.527 0.106,-0.346 0.204,-0.69 0.316,-1.029 m -109.61,62.691 c 16.716,3.353 37.482,17.431 52.22,30.356 -0.1,1.152 -0.158,2.33 -0.158,3.508 0,0.76 0.037,1.518 0.079,2.268 0.041,0.741 0.104,1.459 0.185,2.189 -12.457,10.627 -27.781,21.805 -47.37,28.932 l -5.04,0.211 c -3.821,-10.482 -5.908,-21.796 -5.908,-33.6 0,-11.901 2.106,-23.311 5.987,-33.864 m 184.27,0.237 c 3.83,10.49 5.934,21.811 5.934,33.627 0,11.788 -2.095,23.08 -5.908,33.548 l -4.04,-0.158 c -20.07,-7.301 -35.672,-18.839 -48.29,-29.697 0.057,-0.615 0.103,-1.224 0.132,-1.846 0.037,-0.611 0.053,-1.224 0.053,-1.846 0,-0.912 -0.045,-1.819 -0.106,-2.716 14.521,-12.903 35.32,-27.17 52.22,-30.91 m -92.18,17.275 c 9.01,0 16.352,7.339 16.352,16.352 0,9.01 -7.339,16.325 -16.352,16.325 -9.01,0 -16.326,-7.312 -16.326,-16.325 0,-9.01 7.312,-16.352 16.326,-16.352 m 22.866,49.21 c 18.766,6.51 41.23,17.657 51.983,30.567 -14.836,17.484 -35.697,29.687 -59.37,33.442 l -0.501,-0.976 c -3.947,-22.373 -1.178,-42.735 2.215,-59.737 0.062,-0.03 0.097,-0.05 0.158,-0.079 0.584,-0.282 1.173,-0.589 1.741,-0.897 0.566,-0.307 1.113,-0.643 1.662,-0.976 0.55,-0.334 1.102,-0.668 1.635,-1.029 0.157,-0.106 0.32,-0.208 0.475,-0.316 m -45.39,0.238 c 0.579,0.395 1.167,0.746 1.767,1.108 0.552,0.333 1.093,0.669 1.662,0.976 0.01,0.008 0.016,0.021 0.026,0.026 0.399,0.215 0.806,0.43 1.213,0.633 3.972,18.847 6.108,44.08 1.108,60.845 -22.887,-3.939 -43.07,-15.81 -57.6,-32.677 10.421,-13.01 32.909,-24.266 51.825,-30.91"
     style="fill:#ffffff"
     id="path1351" />
</svg>
