<?xml version="1.0" encoding="UTF-8" standalone="no"?>
<svg
   xmlns:dc="http://purl.org/dc/elements/1.1/"
   xmlns:cc="http://creativecommons.org/ns#"
   xmlns:rdf="http://www.w3.org/1999/02/22-rdf-syntax-ns#"
   xmlns:svg="http://www.w3.org/2000/svg"
   xmlns="http://www.w3.org/2000/svg"
   xmlns:sodipodi="http://sodipodi.sourceforge.net/DTD/sodipodi-0.dtd"
   xmlns:inkscape="http://www.inkscape.org/namespaces/inkscape"
   viewBox="0 0 512 512"
   id="svg2"
   version="1.1"
   inkscape:version="0.91+devel r13804 custom"
   sodipodi:docname="xnoise.svg">
  <metadata
     id="metadata1355">
    <rdf:RDF>
      <cc:Work
         rdf:about="">
        <dc:format>image/svg+xml</dc:format>
        <dc:type
           rdf:resource="http://purl.org/dc/dcmitype/StillImage" />
        <dc:title></dc:title>
      </cc:Work>
    </rdf:RDF>
  </metadata>
  <sodipodi:namedview
     pagecolor="#ffffff"
     bordercolor="#666666"
     borderopacity="1"
     objecttolerance="10"
     gridtolerance="10"
     guidetolerance="10"
     inkscape:pageopacity="0"
     inkscape:pageshadow="2"
     inkscape:window-width="1366"
     inkscape:window-height="709"
     id="namedview1353"
     showgrid="false"
     inkscape:zoom="0.4609375"
     inkscape:cx="349.28814"
     inkscape:cy="148.61017"
     inkscape:window-x="-2"
     inkscape:window-y="-3"
     inkscape:window-maximized="1"
     inkscape:current-layer="svg2" />
  <defs
     id="defs4" />
  <path
     inkscape:connector-curvature="0"
     d="M 26,0 C 11.603,0 0,11.603 0,26 l 0,460 c 0,14.397 11.603,26 26,26 l 460,0 c 14.397,0 26,-11.603 26,-26 L 512,26 C 512,11.603 500.397,0 486,0 L 26,0"
     style="fill:#e25f80"
     id="path8660" />
  <text
     sodipodi:linespacing="125%"
     y="-360.64001"
     x="-18.360001"
     line-height="125%"
     style="font-size:129.22999573px;line-height:125%;font-family:'Gentium Book Basic';letter-spacing:0;word-spacing:0"
     id="text8662">
    <tspan
       y="-360.64001"
       x="-18.360001"
       id="tspan8664" />
  </text>
  <text
     transform="scale(4.0128205,0.24920128)"
     y="-1796.3308"
     x="192.509"
     style="font-size:46.95399857px;font-family:Arial;text-anchor:middle"
     id="text8666" />
  <text
     sodipodi:linespacing="125%"
     y="-440.64001"
     x="562.90997"
     line-height="125%"
     style="font-size:129.22999573px;line-height:125%;font-family:'Gentium Book Basic';letter-spacing:0;word-spacing:0"
     id="text8668">
    <tspan
       y="-440.64001"
       x="562.90997"
       id="tspan8670" />
  </text>
  <text
     transform="scale(4.0128205,0.24920128)"
     y="-2117.3594"
     x="337.34827"
     style="font-size:46.95399857px;font-family:Arial;text-anchor:middle"
     id="text8672" />
  <text
     sodipodi:linespacing="125%"
     y="-621.90002"
     x="-508.67001"
     line-height="125%"
     style="font-size:129.22999573px;line-height:125%;font-family:'Gentium Book Basic';letter-spacing:0;word-spacing:0"
     id="text8674">
    <tspan
       y="-621.90002"
       x="-508.67001"
       id="tspan8676" />
  </text>
  <text
     transform="scale(4.0128205,0.24920128)"
     y="-2844.7153"
     x="70.319641"
     style="font-size:46.95399857px;font-family:Arial;text-anchor:middle"
     id="text8678" />
  <text
     sodipodi:linespacing="125%"
     y="-838.37"
     x="589.38"
     line-height="125%"
     style="font-size:129.22999573px;line-height:125%;font-family:'Gentium Book Basic';letter-spacing:0;word-spacing:0"
     id="text8680">
    <tspan
       y="-838.37"
       x="589.38"
       id="tspan8682" />
  </text>
  <text
     transform="scale(4.0128205,0.24920128)"
     y="-3713.3708"
     x="343.94824"
     style="font-size:46.95399857px;font-family:Arial;text-anchor:middle"
     id="text8684" />
  <text
     sodipodi:linespacing="125%"
     y="-918.38"
     x="1170.65"
     line-height="125%"
     style="font-size:129.22999573px;line-height:125%;font-family:'Gentium Book Basic';letter-spacing:0;word-spacing:0"
     id="text8686">
    <tspan
       y="-918.38"
       x="1170.65"
       id="tspan8688" />
  </text>
  <text
     transform="scale(4.0128205,0.24920128)"
     y="-4034.4092"
     x="488.79749"
     style="font-size:46.95399857px;font-family:Arial;text-anchor:middle"
     id="text8690" />
  <text
     sodipodi:linespacing="125%"
     y="-1390.78"
     x="781.53003"
     line-height="125%"
     style="font-size:129.22999573px;line-height:125%;font-family:'Gentium Book Basic';letter-spacing:0;word-spacing:0"
     id="text8692">
    <tspan
       y="-1390.78"
       x="781.53003"
       id="tspan8694" />
  </text>
  <text
     transform="scale(4.0128205,0.24920128)"
     y="-5930.0498"
     x="391.82797"
     style="font-size:46.95399857px;font-family:Arial;text-anchor:middle"
     id="text8696" />
  <text
     sodipodi:linespacing="125%"
     y="-1470.78"
     x="1362.79"
     line-height="125%"
     style="font-size:129.22999573px;line-height:125%;font-family:'Gentium Book Basic';letter-spacing:0;word-spacing:0"
     id="text8698">
    <tspan
       y="-1470.78"
       x="1362.79"
       id="tspan8700" />
  </text>
  <text
     transform="scale(4.0128205,0.24920128)"
     y="-6251.0776"
     x="536.67725"
     style="font-size:46.95399857px;font-family:Arial;text-anchor:middle"
     id="text8702" />
  <text
     sodipodi:linespacing="125%"
     y="-56.060001"
     x="-470.01001"
     line-height="125%"
     style="font-size:208.33000183px;line-height:125%;font-family:'Gentium Book Basic';letter-spacing:0;word-spacing:0"
     id="text8704">
    <tspan
       y="-56.060001"
       x="-470.01001"
       id="tspan8706" />
  </text>
  <path
     d="M 120.8418 107.05859 L 418.4707 404.68555 C 418.46949 404.68557 418.46801 404.68553 418.4668 404.68555 L 120.83984 107.06055 C 85.567442 107.15853 109.70905 107.07457 85.410156 107.06055 C 85.404924 107.06054 85.409533 107.06055 85.404297 107.06055 L 85.408203 107.06445 C 66.950521 128.02774 52.29885 152.40174 42.527344 179.15039 C 42.526153 179.15033 42.524628 179.15045 42.523438 179.15039 L 160.2832 296.9082 C 139.4348 329.1637 136.47071 330.68613 117.73047 330.8125 L 174.875 387.95703 C 174.8736 387.95822 174.87249 387.95975 174.87109 387.96094 L 117.73047 330.82031 L 41 330.82031 C 50.336 358.08031 64.720531 382.96945 83.019531 404.43945 L 190.58008 512 L 486 512 C 500.397 512 512 500.397 512 486 L 512 192.48047 L 426.58008 107.06055 L 392.9043 107.06055 L 465.16992 179.32617 C 465.16855 179.32622 465.16739 179.32612 465.16602 179.32617 L 392.90039 107.06055 L 388.97266 107.06055 L 388.98047 107.06836 L 388.98047 107.10547 L 461.33398 179.45898 C 461.33203 179.45905 461.33009 179.45892 461.32812 179.45898 L 388.98047 107.10938 C 349.85047 108.08338 329.4393 124.45816 290.0293 184.66016 C 280.04287 199.91499 271.97238 209.8504 264.41602 214.36523 L 182.58984 132.53906 C 163.44984 113.39906 146.0128 107.28059 120.8418 107.05859 z "
     id="path8710"
     style="opacity:0.25" />
  <path
     inkscape:connector-curvature="0"
     d="m 85.41,107.06 c -18.459,20.964 -33.11,45.34 -42.882,72.09 12.355,0.604 33.44,0.994 71.01,0.994 20.396,0 30.493,9.265 58.1,53.27 l 14.531,23.16 -21.351,33.31 c -25.05,39.09 -27.06,40.807 -47.08,40.942 l -76.73,0 c 9.336,27.26 23.721,52.15 42.02,73.62 12.285,0.383 28.67,0.497 51.37,0.497 26.717,0 51.48,-20.595 80.891,-66.894 18.495,-29.12 29.914,-43.28 40.85,-43.782 10.949,0.474 22.427,14.641 40.942,43.782 29.411,46.3 46.32,60.31 80.8,66.894 22.525,0 38.842,-0.12 51.11,-0.497 18.303,-21.475 32.689,-46.35 42.02,-73.62 l -76.47,0 c -20.03,-0.139 -22.03,-1.855 -47.08,-40.942 l -21.351,-33.31 14.531,-23.16 c 27.59,-44 37.744,-53.27 58.14,-53.27 37.24,0 58.28,-0.4 70.69,-0.994 -9.773,-26.745 -24.423,-51.12 -42.884,-72.09 l -33.675,0 -3.928,0 0,0.045 c -39.13,0.974 -59.54,17.348 -98.95,77.55 -13.699,20.926 -23.798,31.894 -33.901,32.501 -10.09,-0.623 -20.17,-11.599 -33.856,-32.501 -40.22,-61.43 -60.697,-77.24 -101.43,-77.6 -35.28,0.098 -11.11,0.014 -35.435,0"
     style="fill:#ffffff"
     id="path8782" />
</svg>
