<?xml version="1.0" encoding="UTF-8" standalone="no"?>
<svg
   xmlns:dc="http://purl.org/dc/elements/1.1/"
   xmlns:cc="http://creativecommons.org/ns#"
   xmlns:rdf="http://www.w3.org/1999/02/22-rdf-syntax-ns#"
   xmlns:svg="http://www.w3.org/2000/svg"
   xmlns="http://www.w3.org/2000/svg"
   xmlns:sodipodi="http://sodipodi.sourceforge.net/DTD/sodipodi-0.dtd"
   xmlns:inkscape="http://www.inkscape.org/namespaces/inkscape"
   viewBox="0 0 512 512"
   id="svg2"
   version="1.1"
   inkscape:version="0.91 r13725"
   sodipodi:docname="y-ppa-manager.svg">
  <metadata
     id="metadata1044">
    <rdf:RDF>
      <cc:Work
         rdf:about="">
        <dc:format>image/svg+xml</dc:format>
        <dc:type
           rdf:resource="http://purl.org/dc/dcmitype/StillImage" />
      </cc:Work>
    </rdf:RDF>
  </metadata>
  <defs
     id="defs1042" />
  <sodipodi:namedview
     pagecolor="#ffffff"
     bordercolor="#666666"
     borderopacity="1"
     objecttolerance="10"
     gridtolerance="10"
     guidetolerance="10"
     inkscape:pageopacity="0"
     inkscape:pageshadow="2"
     inkscape:window-width="640"
     inkscape:window-height="480"
     id="namedview1040"
     showgrid="false"
     inkscape:zoom="0.5546875"
     inkscape:cx="36.056338"
     inkscape:cy="240.67606"
     inkscape:current-layer="svg2" />
  <g
     id="g4408"
     transform="translate(275.83099,-322.70423)">
    <path
       id="path4"
       d="m -249.83149,322.70423 c -14.397,0 -26,11.603 -26,26 l 0,460 c 0,14.397 11.603,26 26,26 l 460,0 c 14.397,0 26,-11.603 26,-26 l 0,-460 c 0,-14.397 -11.6,-26 -26,-26 l -460,0"
       style="fill:#4273b6"
       inkscape:connector-curvature="0" />
    <g
       transform="translate(-275.83149,322.70423)"
       id="g1034"
       style="color:#000000;fill-rule:evenodd">
      <path
         id="path1036"
         d="m 97.53,73.26 c -1.715,-0.013 -3.506,0.003 -5.369,0.045 L 92.155,73.299 C 83.203,73.5 72.584,74.377 60.659,75.867 l 0.002,0.002 C 43.243,78.046 41.009,79.204 41.009,86.478 l 9.01,9.01 -0.004,0 -9.01,-9.01 c 0,2.879 0.369,4.81 1.756,6.196 l 0.041,0.041 C 42.789,92.702 42.774,92.69 42.761,92.678 l 81.39,81.39 c 11.96,21.01 24.09,43.41 33.46,62.3 l 72.81,72.81 0,0.01 -72.82,-72.82 22.78,46.02 0.01,0.01 0,61.86 50.78,50.78 -50.78,-50.78 c 0,60.12 -0.23,62.08 -8.04,67.57 -4.42,3.11 -14.07,7.28 -21.44,9.27 l 17.48,17.49 -17.49,-17.49 c -9.7,2.62 -13.4,5.54 -13.4,10.61 0,1.49 0.14,2.67 1.07,3.59 l 0.02,0.03 -0.03,-0.03 76.7,76.7 270.74,0 c 14.4,0 26,-11.6 26,-26 l 0,-258.25 -150.63,-150.63 c -2.87,-2.875 -14.33,-2.927 -54.1,-2.927 l 26.2,26.2 c 0,0.01 -0.01,0.01 -0.01,0.01 l -26.2,-26.2 c -54.76,0 -55.85,0.135 -54.73,7.485 l 0.01,0.007 c 0.32,2.104 1.35,4.02 3.1,5.778 l 0.05,0.045 c -0.02,-0.015 -0.03,-0.029 -0.05,-0.043 l 24.1,24.1 c -7.65,17.73 -25.77,54.31 -41.01,83.41 L 122.361,78.613 c 0.12,0.117 0.25,0.262 0.37,0.388 l -0.38,-0.379 c -0.41,-0.413 -0.8,-0.77 -1.16,-1.068 -3.34,-2.767 -11.65,-4.2 -23.665,-4.289"
         inkscape:connector-curvature="0"
         style="opacity:0.25" />
      <path
         id="path1038"
         d="m 92.15,73.3 c -8.952,0.201 -19.571,1.079 -31.496,2.569 -17.422,2.177 -19.657,3.335 -19.657,10.61 0,7.112 2.256,8.443 16.53,10.05 9.293,1.047 19.23,4.74 22.896,8.488 11.03,11.28 53.17,82.954 77.18,131.35 l 22.784,46.02 0,61.875 c 0,60.12 -0.229,62.08 -8.04,67.57 -4.423,3.109 -14.07,7.277 -21.444,9.27 -9.701,2.622 -13.403,5.536 -13.403,10.61 0,6.718 2.827,7.04 67.906,7.04 65.08,0 67.906,-0.318 67.906,-7.04 0,-5.074 -3.702,-7.988 -13.403,-10.61 -7.371,-1.993 -17.02,-6.161 -21.444,-9.27 -7.802,-5.484 -8.04,-7.41 -8.04,-66.34 l 0,-60.758 19.1,-36.522 c 10.535,-20.05 30.586,-59.02 44.564,-86.67 13.977,-27.653 28.425,-53.01 32.05,-56.29 3.63,-3.285 12.93,-8.167 20.662,-10.834 9.697,-3.344 14.402,-7.198 15.19,-12.509 1.128,-7.606 0.476,-7.706 -54.727,-7.706 -54.757,0 -55.846,0.133 -54.727,7.483 0.767,5.04 5.56,9.03 14.743,12.174 7.518,2.572 14.755,5.804 16.08,7.148 2.809,2.844 -64.55,135.81 -68.8,135.81 -1.567,0 -14.557,-22.958 -28.927,-51.04 -28.11,-54.934 -55.28,-100.62 -64.44,-108.23 -3.811,-3.163 -14.12,-4.58 -29.04,-4.244 m 326.24,229.18 -30.27,86.11 19.545,0 6.255,-20.439 31.27,0 6.255,20.439 19.545,0 -30.379,-86.11 -22.23,0 m -167.87,0.335 0,85.78 18.205,0 0,-30.491 7.707,0 c 10.645,0 18.93,-2.479 24.683,-7.371 5.792,-4.892 8.6,-11.873 8.6,-21.11 0,-8.884 -2.714,-15.642 -8.153,-20.1 -5.401,-4.5 -13.268,-6.701 -23.678,-6.701 l -27.364,0 m 75.61,0 0,85.78 18.205,0 0,-30.491 7.706,0 c 10.645,0 18.93,-2.479 24.683,-7.371 5.792,-4.892 8.6,-11.873 8.6,-21.11 0,-8.884 -2.714,-15.642 -8.153,-20.1 -5.401,-4.5 -13.268,-6.701 -23.678,-6.701 l -27.363,0 m 103.42,12.956 c 0.313,1.409 0.859,3.27 1.564,5.696 0.744,2.426 3.964,12.985 9.717,31.496 l -22.338,0 c 6.105,-19.763 9.765,-32.18 11.06,-37.19 m -160.83,1.899 8.265,0 c 4.97,0 8.525,1.092 10.834,3.127 2.348,2.035 3.574,5.116 3.574,9.382 0,4.227 -1.354,7.486 -4.132,9.717 -2.779,2.192 -7.02,3.239 -12.621,3.239 l -5.919,0 0,-25.465 m 75.61,0 8.265,0 c 4.97,0 8.525,1.092 10.834,3.127 2.348,2.035 3.574,5.116 3.574,9.382 0,4.227 -1.354,7.486 -4.132,9.717 -2.779,2.192 -7.02,3.239 -12.621,3.239 l -5.919,0 0,-25.465"
         inkscape:connector-curvature="0"
         style="fill:#ffffff" />
    </g>
  </g>
</svg>
