<?xml version="1.0" encoding="UTF-8" standalone="no"?>
<svg
   xmlns:dc="http://purl.org/dc/elements/1.1/"
   xmlns:cc="http://creativecommons.org/ns#"
   xmlns:rdf="http://www.w3.org/1999/02/22-rdf-syntax-ns#"
   xmlns:svg="http://www.w3.org/2000/svg"
   xmlns="http://www.w3.org/2000/svg"
   xmlns:sodipodi="http://sodipodi.sourceforge.net/DTD/sodipodi-0.dtd"
   xmlns:inkscape="http://www.inkscape.org/namespaces/inkscape"
   viewBox="0 0 512 512"
   id="svg2"
   version="1.1"
   inkscape:version="0.91+devel r13804 custom"
   sodipodi:docname="youtube-dl.svg">
  <metadata
     id="metadata1355">
    <rdf:RDF>
      <cc:Work
         rdf:about="">
        <dc:format>image/svg+xml</dc:format>
        <dc:type
           rdf:resource="http://purl.org/dc/dcmitype/StillImage" />
        <dc:title></dc:title>
      </cc:Work>
    </rdf:RDF>
  </metadata>
  <sodipodi:namedview
     pagecolor="#ffffff"
     bordercolor="#666666"
     borderopacity="1"
     objecttolerance="10"
     gridtolerance="10"
     guidetolerance="10"
     inkscape:pageopacity="0"
     inkscape:pageshadow="2"
     inkscape:window-width="1366"
     inkscape:window-height="709"
     id="namedview1353"
     showgrid="false"
     inkscape:zoom="0.4609375"
     inkscape:cx="349.28814"
     inkscape:cy="148.61017"
     inkscape:window-x="-2"
     inkscape:window-y="-3"
     inkscape:window-maximized="1"
     inkscape:current-layer="svg2" />
  <defs
     id="defs4" />
  <path
     inkscape:connector-curvature="0"
     d="M 26,0 C 11.603,0 0,11.603 0,26 l 0,460 c 0,14.397 11.603,26 26,26 l 460,0 c 14.397,0 26,-11.603 26,-26 L 512,26 C 512,11.603 500.397,0 486,0 L 26,0"
     style="fill:#db291f"
     id="path23097" />
  <text
     sodipodi:linespacing="125%"
     y="-352.64001"
     x="-66.360001"
     line-height="125%"
     style="font-size:129.22999573px;line-height:125%;font-family:'Gentium Book Basic';letter-spacing:0;word-spacing:0"
     id="text23099">
    <tspan
       y="-352.64001"
       x="-66.360001"
       id="tspan23101" />
  </text>
  <text
     transform="scale(4.0128205,0.24920128)"
     y="-1764.231"
     x="180.53906"
     style="font-size:46.95399857px;font-family:Arial;text-anchor:middle"
     id="text23103" />
  <text
     sodipodi:linespacing="125%"
     y="-432.64001"
     x="514.90997"
     line-height="125%"
     style="font-size:129.22999573px;line-height:125%;font-family:'Gentium Book Basic';letter-spacing:0;word-spacing:0"
     id="text23105">
    <tspan
       y="-432.64001"
       x="514.90997"
       id="tspan23107" />
  </text>
  <text
     transform="scale(4.0128205,0.24920128)"
     y="-2085.2593"
     x="325.38834"
     style="font-size:46.95399857px;font-family:Arial;text-anchor:middle"
     id="text23109" />
  <text
     sodipodi:linespacing="125%"
     y="-613.90002"
     x="-556.66998"
     line-height="125%"
     style="font-size:129.22999573px;line-height:125%;font-family:'Gentium Book Basic';letter-spacing:0;word-spacing:0"
     id="text23111">
    <tspan
       y="-613.90002"
       x="-556.66998"
       id="tspan23113" />
  </text>
  <text
     transform="scale(4.0128205,0.24920128)"
     y="-2812.6057"
     x="58.349701"
     style="font-size:46.95399857px;font-family:Arial;text-anchor:middle"
     id="text23115" />
  <text
     sodipodi:linespacing="125%"
     y="-830.37"
     x="541.38"
     line-height="125%"
     style="font-size:129.22999573px;line-height:125%;font-family:'Gentium Book Basic';letter-spacing:0;word-spacing:0"
     id="text23117">
    <tspan
       y="-830.37"
       x="541.38"
       id="tspan23119" />
  </text>
  <text
     transform="scale(4.0128205,0.24920128)"
     y="-3681.2712"
     x="331.98828"
     style="font-size:46.95399857px;font-family:Arial;text-anchor:middle"
     id="text23121" />
  <text
     sodipodi:linespacing="125%"
     y="-910.38"
     x="1122.65"
     line-height="125%"
     style="font-size:129.22999573px;line-height:125%;font-family:'Gentium Book Basic';letter-spacing:0;word-spacing:0"
     id="text23123">
    <tspan
       y="-910.38"
       x="1122.65"
       id="tspan23125" />
  </text>
  <text
     transform="scale(4.0128205,0.24920128)"
     y="-4002.3096"
     x="476.83755"
     style="font-size:46.95399857px;font-family:Arial;text-anchor:middle"
     id="text23127" />
  <text
     sodipodi:linespacing="125%"
     y="-1382.78"
     x="733.53003"
     line-height="125%"
     style="font-size:129.22999573px;line-height:125%;font-family:'Gentium Book Basic';letter-spacing:0;word-spacing:0"
     id="text23129">
    <tspan
       y="-1382.78"
       x="733.53003"
       id="tspan23131" />
  </text>
  <text
     transform="scale(4.0128205,0.24920128)"
     y="-5897.9497"
     x="379.86804"
     style="font-size:46.95399857px;font-family:Arial;text-anchor:middle"
     id="text23133" />
  <text
     sodipodi:linespacing="125%"
     y="-1462.78"
     x="1314.79"
     line-height="125%"
     style="font-size:129.22999573px;line-height:125%;font-family:'Gentium Book Basic';letter-spacing:0;word-spacing:0"
     id="text23135">
    <tspan
       y="-1462.78"
       x="1314.79"
       id="tspan23137" />
  </text>
  <text
     transform="scale(4.0128205,0.24920128)"
     y="-6218.978"
     x="524.71729"
     style="font-size:46.95399857px;font-family:Arial;text-anchor:middle"
     id="text23139" />
  <text
     sodipodi:linespacing="125%"
     y="-48.060001"
     x="-518.01001"
     line-height="125%"
     style="font-size:208.33000183px;line-height:125%;font-family:'Gentium Book Basic';letter-spacing:0;word-spacing:0"
     id="text23141">
    <tspan
       y="-48.060001"
       x="-518.01001"
       id="tspan23143" />
  </text>
  <path
     d="M 258.58008 107.15039 C 208.36008 107.15039 134.53031 110.04158 112.32031 110.76758 L 112.32031 110.76953 C 88.200314 112.89353 79.019594 114.10205 65.808594 125.24805 L 65.808594 125.25 C 45.678594 142.885 41 177.67969 41 230.67969 L 41 281.33008 C 41.000876 339.14656 48.556797 369.6515 60.955078 382.05078 L 190.9043 512 L 486 512 C 500.397 512 512 500.397 512 486 L 512 191.01953 L 450.13086 129.15039 C 449.85486 128.87439 449.57402 128.60389 449.29102 128.33789 L 450.55273 129.59961 C 450.57125 129.61874 450.58894 129.63902 450.60742 129.6582 L 449.28906 128.33984 C 434.27939 115.82512 428.67556 112.30059 397.60938 110.76953 L 397.60742 110.76953 C 388.81796 110.37239 312.13839 107.15234 258.58984 107.15234 L 469.88281 318.44531 C 469.88267 318.44726 469.88295 318.44923 469.88281 318.45117 L 258.58008 107.15039 z "
     id="path23147"
     style="opacity:0.25" />
  <path
     inkscape:connector-curvature="0"
     d="m 258.58,107.15 c -50.22,0 -124.05,2.892 -146.26,3.618 -24.12,2.124 -33.3,3.332 -46.511,14.478 -20.13,17.635 -24.808,52.43 -24.808,105.43 l 0,50.65 c 0,60.5 8.272,91.09 21.707,102.33 15.508,13.1 25.851,13.934 36.18,15.505 4.01,0.585 32.24,5.686 158.16,5.686 78.51,0 146.01,-3.763 152.97,-4.651 11.209,-1.405 27.11,-3.221 39.28,-16.538 18.01,-20.16 21.707,-53.853 21.707,-102.33 l 0,-58.4 c 0,-31.379 -1.888,-76.01 -21.707,-94.58 -15.01,-12.515 -20.615,-16.04 -51.683,-17.571 -8.786,-0.397 -85.47,-3.618 -139.02,-3.618 m -52.2,49.62 99.22,0 0,115.77 40.83,0 -90.44,93.02 -90.44,-93.02 40.83,0 0,-115.77"
     style="fill:#ffffff"
     id="path23193" />
</svg>
