#define pause2_width 14
#define pause2_height 14
static char pause2_bits[] = {
  0x00, 0x00, 0x00, 0x00, 0x1C, 0x0E, 0x1C, 0x0E, 0x1C, 0x0E, 0x1C, 0x0E, 
  0x1C, 0x0E, 0x1C, 0x0E, 0x1C, 0x0E, 0x1C, 0x0E, 0x1C, 0x0E, 0x1C, 0x0E, 
  0x00, 0x00, 0x00, 0x00, };
