#define play2_width 14
#define play2_height 14
static char play2_bits[] = {
  0x00, 0x00, 0x04, 0x00, 0x1C, 0x00, 0x7C, 0x00, 0xFC, 0x01, 0xFC, 0x07, 
  0xFC, 0x0F, 0xFC, 0x0F, 0xFC, 0x07, 0xFC, 0x01, 0x7C, 0x00, 0x1C, 0x00, 
  0x00, 0x00, 0x00, 0x00, };
