#define bullet_width 6
#define bullet_height 6
static unsigned char bullet_bits[] = {
   0x00, 0x09, 0x12, 0x24, 0x12, 0x09 };
