<?xml version="1.0" encoding="UTF-8" standalone="no"?>
<!-- Created with Inkscape (http://www.inkscape.org/) -->

<svg
   xmlns:dc="http://purl.org/dc/elements/1.1/"
   xmlns:cc="http://creativecommons.org/ns#"
   xmlns:rdf="http://www.w3.org/1999/02/22-rdf-syntax-ns#"
   xmlns:svg="http://www.w3.org/2000/svg"
   xmlns="http://www.w3.org/2000/svg"
   xmlns:xlink="http://www.w3.org/1999/xlink"
   xmlns:sodipodi="http://sodipodi.sourceforge.net/DTD/sodipodi-0.dtd"
   xmlns:inkscape="http://www.inkscape.org/namespaces/inkscape"
   width="48"
   height="48"
   id="svg5453"
   version="1.1"
   inkscape:version="0.48+devel r12923"
   sodipodi:docname="distributor-logo-linux-mint.svg">
  <defs
     id="defs5455">
    <linearGradient
       id="linearGradient4708"
       inkscape:collect="always">
      <stop
         id="stop4710"
         offset="0"
         style="stop-color:#47b73d;stop-opacity:1" />
      <stop
         id="stop4712"
         offset="1"
         style="stop-color:#ade355;stop-opacity:1" />
    </linearGradient>
    <linearGradient
       gradientTransform="translate(384.57142,-504.56409)"
       inkscape:collect="always"
       xlink:href="#linearGradient4708"
       id="linearGradient4101"
       x1="29.109528"
       y1="1049.3851"
       x2="29.109528"
       y2="1007.3748"
       gradientUnits="userSpaceOnUse" />
  </defs>
  <sodipodi:namedview
     id="base"
     pagecolor="#ffffff"
     bordercolor="#666666"
     borderopacity="1.0"
     inkscape:pageopacity="0"
     inkscape:pageshadow="2"
     inkscape:zoom="2.8505242"
     inkscape:cx="31.12593"
     inkscape:cy="48.685623"
     inkscape:document-units="px"
     inkscape:current-layer="layer1"
     showgrid="false"
     fit-margin-top="0"
     fit-margin-left="0"
     fit-margin-right="0"
     fit-margin-bottom="0"
     inkscape:window-width="1366"
     inkscape:window-height="669"
     inkscape:window-x="0"
     inkscape:window-y="26"
     inkscape:window-maximized="1" />
  <metadata
     id="metadata5458">
    <rdf:RDF>
      <cc:Work
         rdf:about="">
        <dc:format>image/svg+xml</dc:format>
        <dc:type
           rdf:resource="http://purl.org/dc/dcmitype/StillImage" />
        <dc:title />
      </cc:Work>
    </rdf:RDF>
  </metadata>
  <g
     inkscape:label="Capa 1"
     inkscape:groupmode="layer"
     id="layer1"
     transform="translate(-384.57143,-499.798)">
    <rect
       style="fill:#000000;fill-opacity:0.01960784;stroke:none"
       id="rect5263"
       width="44.399963"
       height="44.399963"
       x="386.37146"
       y="501.59802"
       ry="6.2786646" />
    <rect
       ry="6.1938181"
       y="501.89807"
       x="386.67148"
       height="43.799973"
       width="43.799973"
       id="rect5261"
       style="fill:#000000;fill-opacity:0.03921569;stroke:none" />
    <rect
       style="fill:#000000;fill-opacity:0.07843137;stroke:none"
       id="rect5259"
       width="43.199982"
       height="43.199982"
       x="386.97147"
       y="502.19806"
       ry="6.1089716" />
    <rect
       ry="6.0241251"
       y="502.49805"
       x="387.27145"
       height="42.599991"
       width="42.599991"
       id="rect5257"
       style="fill:#000000;fill-opacity:0.15686275;stroke:none" />
    <rect
       style="fill:url(#linearGradient4101);fill-opacity:1;stroke:none"
       id="rect5237-3"
       width="42"
       height="42"
       x="387.57144"
       y="502.79803"
       ry="5.9392786" />
    <path
       inkscape:connector-curvature="0"
       style="fill:#000000;fill-opacity:0.11764706;stroke:none"
       d="m 387.57142,536.36057 0,2.5 c 0,3.29036 2.64714,5.9375 5.9375,5.9375 l 30.125,0 c 3.29036,0 5.9375,-2.64714 5.9375,-5.9375 l 0,-2.5 c 0,3.29036 -2.64714,5.9375 -5.9375,5.9375 l -30.125,0 c -3.29036,0 -5.9375,-2.64714 -5.9375,-5.9375 z"
       id="rect5265" />
    <path
       inkscape:connector-curvature="0"
       style="fill:#000000;fill-opacity:0.09803922;stroke:none"
       d="m 387.57142,538.36057 0,0.5 c 0,3.29036 2.64714,5.9375 5.9375,5.9375 l 30.125,0 c 3.29036,0 5.9375,-2.64714 5.9375,-5.9375 l 0,-0.5 c 0,3.2904 -2.64714,5.9375 -5.9375,5.9375 l -30.125,0 c -3.29036,0 -5.9375,-2.6471 -5.9375,-5.9375 z"
       id="path5252" />
    <path
       style="color:#000000;fill:#000000;fill-opacity:0.49803922;fill-rule:evenodd;stroke:none;stroke-width:1;marker:none;visibility:visible;display:inline;overflow:visible;enable-background:accumulate"
       d="m 394.07058,510.798 0,8.31266 3.41973,0 0,1.66845 0.005,6.54266 c 0,5.38814 4.67982,9.47623 10.07281,9.47623 l 15.50417,0 0,-16.44585 c 0,-5.39299 -4.67501,-9.47624 -10.07282,-9.47624 l -4.51034,-0.01 z m 2.20191,2.21178 12.21262,0.0533 0,0.01 4.51428,0 c 4.35027,0 7.87682,3.2588 7.87682,7.27926 l 0,12.03413 c 0,1.33868 -1.20414,2.20979 -2.57959,2.20981 l -10.72856,0 c -4.34542,0 -7.87091,-3.25879 -7.87091,-7.27925 l -0.01,-8.24955 c 0,-1.28076 -1.11739,-2.15361 -2.04612,-2.15361 l -1.36868,0 z m 5.52994,2.44647 0,11.95229 c 0,1.26813 0.46396,2.38045 1.3667,3.2797 0.77161,0.76162 1.69968,1.25521 2.7423,1.36671 l 2.95035,0 0,-2.34194 -2.53323,-0.01 c -1.23096,0 -2.28278,-1.19761 -2.28278,-2.73736 l 0,-11.50953 z m 8.45466,1.96329 c -1.01901,0 -1.92505,0.37839 -2.65256,1.11328 -0.72712,0.7345 -1.10836,1.65126 -1.10836,2.68609 l 0,5.23116 2.37252,0 0,-5.23116 c 0,-0.39664 0.12899,-0.70691 0.41218,-0.99299 0.28413,-0.28698 0.58555,-0.41612 0.97622,-0.41612 0.39885,0 0.69542,0.12848 0.98017,0.41612 0.28319,0.28608 0.41217,0.59635 0.41217,0.99299 l 0,5.23116 2.37252,0 0,-5.23116 c 0,-0.39664 0.12898,-0.70691 0.41217,-0.99299 0.28476,-0.28764 0.58131,-0.41612 0.98017,-0.41612 0.39068,0 0.6921,0.12914 0.97622,0.41612 0.28319,0.28608 0.41219,0.59635 0.41219,0.99299 -0.005,0.49761 0.0148,5.1996 0.0148,5.1996 l 2.36463,0 -0.007,-5.1996 c 0,-1.03483 -0.38122,-1.95159 -1.10836,-2.68609 -0.72748,-0.73489 -1.63355,-1.11328 -2.65256,-1.11328 -1.00024,0 -1.87483,0.37205 -2.58254,1.05313 -0.706,-0.67995 -1.57497,-1.05313 -2.5748,-1.05313 z"
       id="path4130"
       inkscape:connector-curvature="0"
       sodipodi:nodetypes="cccccscsccccccssscsccscccscccccsccsssccscsssccsssccccccscs" />
    <path
       style="fill:#000000"
       d=""
       id="path906"
       inkscape:connector-curvature="0" />
  </g>
</svg>
