<?xml version="1.0" encoding="UTF-8" standalone="no"?>
<!-- Created with Inkscape (http://www.inkscape.org/) -->

<svg
   xmlns:dc="http://purl.org/dc/elements/1.1/"
   xmlns:cc="http://creativecommons.org/ns#"
   xmlns:rdf="http://www.w3.org/1999/02/22-rdf-syntax-ns#"
   xmlns:svg="http://www.w3.org/2000/svg"
   xmlns="http://www.w3.org/2000/svg"
   xmlns:xlink="http://www.w3.org/1999/xlink"
   xmlns:sodipodi="http://sodipodi.sourceforge.net/DTD/sodipodi-0.dtd"
   xmlns:inkscape="http://www.inkscape.org/namespaces/inkscape"
   width="48"
   height="48"
   id="svg5453"
   version="1.1"
   inkscape:version="0.48+devel r12923"
   sodipodi:docname="distributor-logo-archlinux.svg">
  <defs
     id="defs5455">
    <filter
       id="filter3174"
       color-interpolation-filters="sRGB">
      <feGaussianBlur
         stdDeviation="1.71"
         id="feGaussianBlur3176" />
    </filter>
    <linearGradient
       inkscape:collect="always"
       id="linearGradient4678">
      <stop
         style="stop-color:#0a7fe7;stop-opacity:1"
         offset="0"
         id="stop4680" />
      <stop
         style="stop-color:#50bffc;stop-opacity:1"
         offset="1"
         id="stop4682" />
    </linearGradient>
    <linearGradient
       gradientUnits="userSpaceOnUse"
       y2="1007.3748"
       x2="29.109528"
       y1="1049.3851"
       x1="29.109528"
       id="linearGradient4101"
       xlink:href="#linearGradient4678"
       inkscape:collect="always" />
  </defs>
  <sodipodi:namedview
     id="base"
     pagecolor="#ffffff"
     bordercolor="#666666"
     borderopacity="1.0"
     inkscape:pageopacity="0"
     inkscape:pageshadow="2"
     inkscape:zoom="5.7010484"
     inkscape:cx="12.861907"
     inkscape:cy="21.882698"
     inkscape:document-units="px"
     inkscape:current-layer="layer1"
     showgrid="false"
     fit-margin-top="0"
     fit-margin-left="0"
     fit-margin-right="0"
     fit-margin-bottom="0"
     inkscape:window-width="1366"
     inkscape:window-height="669"
     inkscape:window-x="0"
     inkscape:window-y="26"
     inkscape:window-maximized="1" />
  <metadata
     id="metadata5458">
    <rdf:RDF>
      <cc:Work
         rdf:about="">
        <dc:format>image/svg+xml</dc:format>
        <dc:type
           rdf:resource="http://purl.org/dc/dcmitype/StillImage" />
        <dc:title />
      </cc:Work>
    </rdf:RDF>
  </metadata>
  <g
     inkscape:label="Capa 1"
     inkscape:groupmode="layer"
     id="layer1"
     transform="translate(-384.57143,-499.798)">
    <g
       transform="translate(384.57143,-504.56415)"
       id="layer1-3"
       inkscape:label="Capa 1">
      <path
         inkscape:connector-curvature="0"
         id="path906"
         d=""
         style="fill:#000000" />
      <rect
         ry="6.2786646"
         y="1006.1622"
         x="1.8000183"
         height="44.399963"
         width="44.399963"
         id="rect5263-0"
         style="fill:#000000;fill-opacity:0.01960784;stroke:none" />
      <rect
         style="fill:#000000;fill-opacity:0.03921569;stroke:none"
         id="rect5261-1"
         width="43.799973"
         height="43.799973"
         x="2.1000061"
         y="1006.4623"
         ry="6.1938181" />
      <rect
         ry="6.1089716"
         y="1006.7624"
         x="2.3999939"
         height="43.199982"
         width="43.199982"
         id="rect5259-9"
         style="fill:#000000;fill-opacity:0.07843137;stroke:none" />
      <rect
         style="fill:#000000;fill-opacity:0.15686275;stroke:none"
         id="rect5257-6"
         width="42.599991"
         height="42.599991"
         x="2.7000122"
         y="1007.0624"
         ry="6.0241251" />
      <rect
         ry="5.9392786"
         y="1007.3622"
         x="3"
         height="42"
         width="42"
         id="rect5237-3"
         style="fill:url(#linearGradient4101);fill-opacity:1;stroke:none" />
      <path
         id="rect5265-8"
         d="m 2.9999991,1040.9247 0,2.5 c 0,3.2904 2.64714,5.9375 5.9375,5.9375 l 30.1249999,0 c 3.29036,0 5.9375,-2.6471 5.9375,-5.9375 l 0,-2.5 c 0,3.2904 -2.64714,5.9375 -5.9375,5.9375 l -30.1249999,0 c -3.29036,0 -5.9375,-2.6471 -5.9375,-5.9375 z"
         style="fill:#000000;fill-opacity:0.11764706;stroke:none"
         inkscape:connector-curvature="0" />
      <path
         id="path5252-0"
         d="m 2.9999991,1042.9247 0,0.5 c 0,3.2904 2.64714,5.9375 5.9375,5.9375 l 30.1249999,0 c 3.29036,0 5.9375,-2.6471 5.9375,-5.9375 l 0,-0.5 c 0,3.2904 -2.64714,5.9375 -5.9375,5.9375 l -30.1249999,0 c -3.29036,0 -5.9375,-2.6471 -5.9375,-5.9375 z"
         style="fill:#000000;fill-opacity:0.09803922;stroke:none"
         inkscape:connector-curvature="0" />
    </g>
    <g
       id="layer2"
       style="display:none"
       transform="translate(259.84683,475.07301)">
      <rect
         width="86"
         height="85"
         rx="6"
         ry="6"
         x="5"
         y="7"
         id="rect3745"
         style="opacity:0.9;fill:url(#ButtonShadow);fill-opacity:1;fill-rule:nonzero;stroke:none;filter:url(#filter3174)" />
    </g>
    <path
       style="fill:#000000;fill-opacity:0.49803922;fill-rule:evenodd;stroke:none"
       id="path2518"
       inkscape:connector-curvature="0"
       d="m 408.56844,510.798 c -1.15742,2.83725 -1.85552,4.69313 -3.14413,7.44603 0.7901,0.83736 1.75988,1.81252 3.33484,2.91385 -1.69322,-0.69663 -2.8482,-1.39606 -3.71135,-2.12183 -1.64919,3.4408 -4.233,8.34204 -9.47638,17.76195 4.12113,-2.37883 7.31575,-3.84544 10.29298,-4.40505 -0.12786,-0.54976 -0.20053,-1.14446 -0.19561,-1.76495 l 0.006,-0.13199 c 0.0655,-2.6399 1.43887,-4.67 3.06588,-4.53215 1.62701,0.13781 2.89167,2.39093 2.82629,5.03083 -0.0125,0.49675 -0.0682,0.97461 -0.16626,1.41783 2.94491,0.57599 6.10539,2.03882 10.17074,4.38548 -0.80161,-1.47559 -1.51711,-2.80575 -2.20041,-4.07258 -1.07629,-0.83407 -2.19888,-1.91961 -4.48881,-3.09477 1.57396,0.40891 2.70089,0.8807 3.57931,1.40803 -6.94729,-12.93241 -7.50986,-14.65089 -9.89218,-20.24068 z" />
  </g>
</svg>
