<?xml version="1.0" encoding="UTF-8" standalone="no"?>
<!-- Created with Inkscape (http://www.inkscape.org/) -->

<svg
   xmlns:dc="http://purl.org/dc/elements/1.1/"
   xmlns:cc="http://creativecommons.org/ns#"
   xmlns:rdf="http://www.w3.org/1999/02/22-rdf-syntax-ns#"
   xmlns:svg="http://www.w3.org/2000/svg"
   xmlns="http://www.w3.org/2000/svg"
   xmlns:xlink="http://www.w3.org/1999/xlink"
   xmlns:sodipodi="http://sodipodi.sourceforge.net/DTD/sodipodi-0.dtd"
   xmlns:inkscape="http://www.inkscape.org/namespaces/inkscape"
   width="48"
   height="48"
   id="svg5453"
   version="1.1"
   inkscape:version="0.48+devel r12923"
   sodipodi:docname="distributor-logo-lubuntu.svg">
  <defs
     id="defs5455">
    <linearGradient
       gradientUnits="userSpaceOnUse"
       y2="1007.3748"
       x2="29.109528"
       y1="1049.3851"
       x1="29.109528"
       id="linearGradient4101"
       xlink:href="#linearGradient4678"
       inkscape:collect="always"
       gradientTransform="translate(384.57142,-504.56414)" />
    <style
       type="text/css"
       id="style3290"><![CDATA[
    .fil2 {fill:#11A861}
    .fil0 {fill:#3777E3}
    .fil1 {fill:#FFCF63}
   ]]></style>
    <linearGradient
       inkscape:collect="always"
       id="linearGradient4678">
      <stop
         style="stop-color:#0a7fe7;stop-opacity:1"
         offset="0"
         id="stop4680" />
      <stop
         style="stop-color:#50bffc;stop-opacity:1"
         offset="1"
         id="stop4682" />
    </linearGradient>
  </defs>
  <sodipodi:namedview
     id="base"
     pagecolor="#ffffff"
     bordercolor="#666666"
     borderopacity="1.0"
     inkscape:pageopacity="0"
     inkscape:pageshadow="2"
     inkscape:zoom="4.03125"
     inkscape:cx="29.998627"
     inkscape:cy="16.294961"
     inkscape:document-units="px"
     inkscape:current-layer="layer1"
     showgrid="false"
     fit-margin-top="0"
     fit-margin-left="0"
     fit-margin-right="0"
     fit-margin-bottom="0"
     inkscape:window-width="1366"
     inkscape:window-height="669"
     inkscape:window-x="0"
     inkscape:window-y="26"
     inkscape:window-maximized="1" />
  <metadata
     id="metadata5458">
    <rdf:RDF>
      <cc:Work
         rdf:about="">
        <dc:format>image/svg+xml</dc:format>
        <dc:type
           rdf:resource="http://purl.org/dc/dcmitype/StillImage" />
        <dc:title />
      </cc:Work>
    </rdf:RDF>
  </metadata>
  <g
     inkscape:label="Capa 1"
     inkscape:groupmode="layer"
     id="layer1"
     transform="translate(-384.57143,-499.798)">
    <rect
       style="fill:#000000;fill-opacity:0.01960784;stroke:none"
       id="rect5263"
       width="44.399963"
       height="44.399963"
       x="386.37146"
       y="501.59802"
       ry="6.2786646" />
    <rect
       ry="6.1938181"
       y="501.89807"
       x="386.67148"
       height="43.799973"
       width="43.799973"
       id="rect5261"
       style="fill:#000000;fill-opacity:0.03921569;stroke:none" />
    <rect
       style="fill:#000000;fill-opacity:0.07843137;stroke:none"
       id="rect5259"
       width="43.199982"
       height="43.199982"
       x="386.97147"
       y="502.19806"
       ry="6.1089716" />
    <rect
       ry="6.0241251"
       y="502.49805"
       x="387.27145"
       height="42.599991"
       width="42.599991"
       id="rect5257"
       style="fill:#000000;fill-opacity:0.15686275;stroke:none" />
    <rect
       style="fill:url(#linearGradient4101);fill-opacity:1;stroke:none"
       id="rect5237-3"
       width="42"
       height="42"
       x="387.57144"
       y="502.79803"
       ry="5.9392786" />
    <path
       inkscape:connector-curvature="0"
       style="fill:#000000;fill-opacity:0.11764706;stroke:none"
       d="m 387.57142,536.36052 0,2.5 c 0,3.29036 2.64714,5.9375 5.9375,5.9375 l 30.125,0 c 3.29036,0 5.9375,-2.64714 5.9375,-5.9375 l 0,-2.5 c 0,3.29036 -2.64714,5.9375 -5.9375,5.9375 l -30.125,0 c -3.29036,0 -5.9375,-2.64714 -5.9375,-5.9375 z"
       id="rect5265" />
    <path
       inkscape:connector-curvature="0"
       style="fill:#000000;fill-opacity:0.09803922;stroke:none"
       d="m 387.57142,538.36052 0,0.5 c 0,3.29036 2.64714,5.9375 5.9375,5.9375 l 30.125,0 c 3.29036,0 5.9375,-2.64714 5.9375,-5.9375 l 0,-0.5 c 0,3.2904 -2.64714,5.9375 -5.9375,5.9375 l -30.125,0 c -3.29036,0 -5.9375,-2.6471 -5.9375,-5.9375 z"
       id="path5252" />
    <path
       style="color:#000000;fill:#000000;fill-opacity:0.49803922;fill-rule:evenodd;stroke:none;stroke-width:1.41732287;marker:none;visibility:visible;display:inline;overflow:visible;enable-background:accumulate"
       d="m 409.17104,510.1984 c -7.00804,0 -12.70472,5.55002 -12.97362,12.49219 4.30919,-3.04105 11.63889,-8.03098 13.45669,-8.16271 0.60319,-0.76405 2.67641,-1.38176 3.05174,-1.36843 l -1.08815,1.36843 c 0,0 -0.0181,1.38059 -0.42041,1.6487 3.75427,2.50895 5.5479,11.51494 6.31452,16.9816 l -0.32314,0.25885 c 3.02895,-2.38002 4.98237,-6.06768 4.98237,-10.21864 0,-7.17951 -5.82048,-12.99999 -13,-12.99999 z m -0.18467,10.68027 c -1.00988,0.0301 -3.06212,3.04814 -5.40278,6.2799 -1.12478,1.55301 -2.58255,3.67815 -3.65352,5.15053 l -0.77158,-0.84249 c 2.20218,-3.60596 4.94347,-8.0056 4.81091,-8.16766 -0.0283,-0.0135 -0.0654,-0.0406 -0.10554,-0.0346 -0.74593,0.11303 -3.74038,3.84479 -5.88254,6.5272 2.26178,3.82956 6.42003,6.40684 11.18972,6.40684 2.89538,0 5.56023,-0.95822 7.72087,-2.55878 -1.60015,-4.88997 -4.69072,-12.70792 -7.8,-12.7263 -0.0303,-0.006 -0.073,-0.0346 -0.10554,-0.0346 z m -7.54279,1.2629 c -0.92369,-0.006 -3.2849,0.82833 -5.24616,1.58441 0.078,1.9382 0.57495,3.76526 1.41128,5.39454 0.39436,-0.59577 1.07636,-1.5742 1.48384,-2.17299 1.55847,-2.29027 3.09145,-4.31714 2.73683,-4.73506 -0.0633,-0.0697 -0.20405,-0.07 -0.38579,-0.0708 z m -5.26101,0.82106 c -0.002,0.0793 -0.0115,0.15615 -0.0115,0.23576 0,0.10912 0.0137,0.21468 0.0165,0.32314 l -0.005,-0.5589 z m 1.45087,6.21065 c 0.0813,0.15672 0.16644,0.31039 0.2539,0.46329 l -0.2539,-0.46329 z"
       id="path3910-7"
       inkscape:connector-curvature="0" />
    <path
       style="fill:#000000"
       d=""
       id="path906"
       inkscape:connector-curvature="0" />
  </g>
</svg>
