<?xml version="1.0" encoding="UTF-8" standalone="no"?>
<!-- Created with Inkscape (http://www.inkscape.org/) -->

<svg
   xmlns:dc="http://purl.org/dc/elements/1.1/"
   xmlns:cc="http://creativecommons.org/ns#"
   xmlns:rdf="http://www.w3.org/1999/02/22-rdf-syntax-ns#"
   xmlns:svg="http://www.w3.org/2000/svg"
   xmlns="http://www.w3.org/2000/svg"
   xmlns:xlink="http://www.w3.org/1999/xlink"
   xmlns:sodipodi="http://sodipodi.sourceforge.net/DTD/sodipodi-0.dtd"
   xmlns:inkscape="http://www.inkscape.org/namespaces/inkscape"
   width="48"
   height="48"
   id="svg5453"
   version="1.1"
   inkscape:version="0.48+devel r12923"
   sodipodi:docname="distributor-logo-elementary.svg">
  <defs
     id="defs5455">
    <linearGradient
       id="linearGradient7855"
       inkscape:collect="always">
      <stop
         id="stop7857"
         offset="0"
         style="stop-color:#46a8fb;stop-opacity:1" />
      <stop
         id="stop7859"
         offset="1"
         style="stop-color:#54f3fd;stop-opacity:1" />
    </linearGradient>
    <linearGradient
       gradientUnits="userSpaceOnUse"
       y2="1007.3235"
       x2="30.296669"
       y1="1049.4602"
       x1="30.296669"
       id="linearGradient7861"
       xlink:href="#linearGradient7855"
       inkscape:collect="always"
       gradientTransform="translate(384.5714,-504.56405)" />
  </defs>
  <sodipodi:namedview
     id="base"
     pagecolor="#ffffff"
     bordercolor="#666666"
     borderopacity="1.0"
     inkscape:pageopacity="0"
     inkscape:pageshadow="2"
     inkscape:zoom="3.1400306"
     inkscape:cx="-21.593608"
     inkscape:cy="25.99518"
     inkscape:document-units="px"
     inkscape:current-layer="layer1"
     showgrid="false"
     fit-margin-top="0"
     fit-margin-left="0"
     fit-margin-right="0"
     fit-margin-bottom="0"
     inkscape:window-width="1366"
     inkscape:window-height="669"
     inkscape:window-x="0"
     inkscape:window-y="26"
     inkscape:window-maximized="1" />
  <metadata
     id="metadata5458">
    <rdf:RDF>
      <cc:Work
         rdf:about="">
        <dc:format>image/svg+xml</dc:format>
        <dc:type
           rdf:resource="http://purl.org/dc/dcmitype/StillImage" />
        <dc:title />
      </cc:Work>
    </rdf:RDF>
  </metadata>
  <g
     inkscape:label="Capa 1"
     inkscape:groupmode="layer"
     id="layer1"
     transform="translate(-384.57143,-499.798)">
    <rect
       style="fill:#000000;fill-opacity:0.01960784;stroke:none"
       id="rect5263-5"
       width="44.399963"
       height="44.399963"
       x="386.37146"
       y="501.59802"
       ry="6.2786646" />
    <rect
       ry="6.1938181"
       y="501.89813"
       x="386.67145"
       height="43.799973"
       width="43.799973"
       id="rect5261-9"
       style="fill:#000000;fill-opacity:0.03921569;stroke:none" />
    <rect
       style="fill:#000000;fill-opacity:0.07843137;stroke:none"
       id="rect5259-3"
       width="43.199982"
       height="43.199982"
       x="386.97144"
       y="502.19843"
       ry="6.1089716" />
    <rect
       ry="6.0241251"
       y="502.49823"
       x="387.27145"
       height="42.599991"
       width="42.599991"
       id="rect5257-8"
       style="fill:#000000;fill-opacity:0.15686275;stroke:none" />
    <rect
       style="fill:url(#linearGradient7861);fill-opacity:1;stroke:none"
       id="rect5237-1"
       width="42"
       height="42"
       x="387.57144"
       y="502.79803"
       ry="5.9392786" />
    <path
       inkscape:connector-curvature="0"
       style="fill:#000000;fill-opacity:0.11764706;stroke:none"
       d="m 387.5714,536.36052 0,2.5 c 0,3.2904 2.64714,5.9375 5.9375,5.9375 l 30.125,0 c 3.29036,0 5.9375,-2.6471 5.9375,-5.9375 l 0,-2.5 c 0,3.2904 -2.64714,5.9375 -5.9375,5.9375 l -30.125,0 c -3.29036,0 -5.9375,-2.6471 -5.9375,-5.9375 z"
       id="rect5265-2" />
    <path
       inkscape:connector-curvature="0"
       style="fill:#000000;fill-opacity:0.09803922;stroke:none"
       d="m 387.5714,538.36052 0,0.5 c 0,3.2904 2.64714,5.9375 5.9375,5.9375 l 30.125,0 c 3.29036,0 5.9375,-2.6471 5.9375,-5.9375 l 0,-0.5 c 0,3.2904 -2.64714,5.9375 -5.9375,5.9375 l -30.125,0 c -3.29036,0 -5.9375,-2.6471 -5.9375,-5.9375 z"
       id="path5252-0" />
    <g
       id="g5317"
       transform="matrix(0.27083328,0,0,0.27083328,391.2381,256.11663)"
       style="fill:#000000;fill-opacity:0.49803922">
      <path
         style="fill:#000000;fill-opacity:0.49803922;stroke:none"
         id="path5319"
         inkscape:connector-curvature="0"
         d="m 64,940.36218 c -26.509667,0 -48,21.49034 -48,48 0,26.50972 21.490333,48.00002 48,48.00002 26.509664,0 48,-21.4903 48,-48.00002 0,-26.50966 -21.490336,-48 -48,-48 z m 0,4 c 20.15479,0 37.14462,13.55176 42.355,32.04 -4.4877,9.25637 -10.873381,17.59038 -18.650002,24.32502 -3.735795,3.2352 -7.814534,6.1193 -12.32,8.15 -4.505465,2.0307 -9.461145,3.1829 -14.394998,2.9 -3.706902,-0.2126 -7.368725,-1.2452 -10.615,-3.045 8.603218,-4.6618 16.365742,-10.87737 22.720002,-18.32002 4.170803,-4.88521 7.819942,-10.43709 9.224998,-16.705 0.702528,-3.13395 0.821581,-6.4161 0.164998,-9.56 -0.656582,-3.1439 -2.110188,-6.1399 -4.309996,-8.48 -2.149082,-2.28613 -4.97033,-3.90553 -7.995002,-4.74 -3.024672,-0.83446 -6.24345,-0.89907 -9.33,-0.335 -6.173101,1.12814 -11.684554,4.71584 -16.105,9.17 -7.79168,7.8511 -12.608581,18.92915 -11.725,29.955 0.441789,5.51292 2.289248,10.93012 5.455,15.46502 0.706642,1.0122 1.483501,1.9764 2.315,2.89 -4.611828,1.614 -9.386995,2.7629 -14.23,3.41 -4.15805,-6.7188 -6.56,-14.638 -6.56,-23.12002 0,-24.30053 19.69947,-44 44,-44 z m 0.28,8.89 c 3.093024,0.004 6.207066,0.94057 8.675002,2.805 2.223488,1.67977 3.871027,4.06951 4.804998,6.695 0.933971,2.62549 1.173658,5.47662 0.855002,8.245 -0.637319,5.53677 -3.430458,10.61442 -6.804999,15.05 -5.975053,7.85375 -13.917093,14.13972 -22.750003,18.54002 -0.904118,0.4504 -1.822565,0.8785 -2.745,1.29 -1.921973,-1.6819 -3.569314,-3.6768 -4.825,-5.90002 -2.623798,-4.64556 -3.489056,-10.16402 -2.98,-15.475 0.509056,-5.31097 2.331648,-10.42962 4.78,-15.17 2.838755,-5.49625 6.70822,-10.70239 12.125,-13.69 2.70839,-1.4938 5.771973,-2.39419 8.865,-2.39 z m 43.325,29.22 c 0.25778,1.9268 0.395,3.89265 0.395,5.89 0,24.30052 -19.699469,44.00002 -44,44.00002 -13.647425,0 -25.844438,-6.2128 -33.915,-15.965 4.98138,-1.1314 9.850072,-2.7565 14.52,-4.825 2.042194,1.5553 4.297558,2.8309 6.695,3.75 6.904163,2.6469 14.742694,2.2639 21.730003,-0.155 6.987303,-2.4189 13.183469,-6.7606 18.584999,-11.81 6.434617,-6.01522 11.859848,-13.10515 15.989998,-20.88502 z" />
    </g>
  </g>
</svg>
