<?xml version="1.0" encoding="UTF-8" standalone="no"?>
<!-- Created with Inkscape (http://www.inkscape.org/) -->

<svg
   xmlns:dc="http://purl.org/dc/elements/1.1/"
   xmlns:cc="http://creativecommons.org/ns#"
   xmlns:rdf="http://www.w3.org/1999/02/22-rdf-syntax-ns#"
   xmlns:svg="http://www.w3.org/2000/svg"
   xmlns="http://www.w3.org/2000/svg"
   xmlns:xlink="http://www.w3.org/1999/xlink"
   xmlns:sodipodi="http://sodipodi.sourceforge.net/DTD/sodipodi-0.dtd"
   xmlns:inkscape="http://www.inkscape.org/namespaces/inkscape"
   width="48"
   height="48"
   id="svg5453"
   version="1.1"
   inkscape:version="0.48+devel r12923"
   sodipodi:docname="distributor-logo-debian.svg">
  <defs
     id="defs5455">
    <linearGradient
       inkscape:collect="always"
       id="linearGradient6125">
      <stop
         style="stop-color:#f81654;stop-opacity:1"
         offset="0"
         id="stop6127" />
      <stop
         style="stop-color:#fd668f;stop-opacity:1"
         offset="1"
         id="stop6129" />
    </linearGradient>
    <linearGradient
       gradientTransform="translate(384.57143,-504.56418)"
       inkscape:collect="always"
       xlink:href="#linearGradient6125"
       id="linearGradient6131"
       x1="28.399813"
       y1="1049.3252"
       x2="28.399813"
       y2="1007.3821"
       gradientUnits="userSpaceOnUse" />
  </defs>
  <sodipodi:namedview
     id="base"
     pagecolor="#ffffff"
     bordercolor="#666666"
     borderopacity="1.0"
     inkscape:pageopacity="0"
     inkscape:pageshadow="2"
     inkscape:zoom="4.03125"
     inkscape:cx="30.894829"
     inkscape:cy="12.215556"
     inkscape:document-units="px"
     inkscape:current-layer="layer1"
     showgrid="false"
     fit-margin-top="0"
     fit-margin-left="0"
     fit-margin-right="0"
     fit-margin-bottom="0"
     inkscape:window-width="1366"
     inkscape:window-height="669"
     inkscape:window-x="0"
     inkscape:window-y="26"
     inkscape:window-maximized="1" />
  <metadata
     id="metadata5458">
    <rdf:RDF>
      <cc:Work
         rdf:about="">
        <dc:format>image/svg+xml</dc:format>
        <dc:type
           rdf:resource="http://purl.org/dc/dcmitype/StillImage" />
        <dc:title />
      </cc:Work>
    </rdf:RDF>
  </metadata>
  <g
     inkscape:label="Capa 1"
     inkscape:groupmode="layer"
     id="layer1"
     transform="translate(-384.57143,-499.798)">
    <rect
       style="fill:#000000;fill-opacity:0.01960784;stroke:none"
       id="rect5263"
       width="44.399963"
       height="44.399963"
       x="386.37146"
       y="501.59802"
       ry="6.2786646" />
    <rect
       ry="6.1938181"
       y="501.89813"
       x="386.67145"
       height="43.799973"
       width="43.799973"
       id="rect5261"
       style="fill:#000000;fill-opacity:0.03921569;stroke:none" />
    <rect
       style="fill:#000000;fill-opacity:0.07843137;stroke:none"
       id="rect5259"
       width="43.199982"
       height="43.199982"
       x="386.97144"
       y="502.19818"
       ry="6.1089716" />
    <rect
       ry="6.0241251"
       y="502.49817"
       x="387.27145"
       height="42.599991"
       width="42.599991"
       id="rect5257"
       style="fill:#000000;fill-opacity:0.15686275;stroke:none" />
    <rect
       style="fill:url(#linearGradient6131);fill-opacity:1;stroke:none"
       id="rect5237"
       width="42"
       height="42"
       x="387.57144"
       y="502.79803"
       ry="5.9392786" />
    <path
       inkscape:connector-curvature="0"
       style="fill:#000000;fill-opacity:0.11764706;stroke:none"
       d="m 387.57143,536.36052 0,2.5 c 0,3.2904 2.64714,5.9375 5.9375,5.9375 l 30.125,0 c 3.29036,0 5.9375,-2.6471 5.9375,-5.9375 l 0,-2.5 c 0,3.2904 -2.64714,5.9375 -5.9375,5.9375 l -30.125,0 c -3.29036,0 -5.9375,-2.6471 -5.9375,-5.9375 z"
       id="rect5265" />
    <path
       inkscape:connector-curvature="0"
       style="fill:#000000;fill-opacity:0.09803922;stroke:none"
       d="m 387.57143,538.36052 0,0.5 c 0,3.2904 2.64714,5.9375 5.9375,5.9375 l 30.125,0 c 3.29036,0 5.9375,-2.6471 5.9375,-5.9375 l 0,-0.5 c 0,3.2904 -2.64714,5.9375 -5.9375,5.9375 l -30.125,0 c -3.29036,0 -5.9375,-2.6471 -5.9375,-5.9375 z"
       id="path5252" />
    <path
       style="fill:#000000;fill-opacity:0.49803922;display:inline"
       id="path2536"
       inkscape:connector-curvature="0"
       d="m 416.58883,521.92617 c 0.0261,0.7016 -0.20469,1.04251 -0.41348,1.64537 l -0.3755,0.18673 c -0.30694,0.59646 0.0308,0.37866 -0.18932,0.85286 -0.47971,0.42601 -1.4537,1.3326 -1.76556,1.41568 -0.22797,-0.003 0.15417,-0.2689 0.20414,-0.37199 -0.6415,0.44023 -0.51488,0.66092 -1.49612,0.92894 l -0.0285,-0.064 c -2.41898,1.13834 -5.77938,-1.11712 -5.73526,-4.19411 -0.0257,0.19515 -0.0731,0.14637 -0.12698,0.22476 -0.12481,-1.5829 0.73121,-3.17281 2.17503,-3.82298 1.41217,-0.6987 3.06768,-0.41236 4.07854,0.53112 -0.55522,-0.72772 -1.66133,-1.49929 -2.97127,-1.42786 -1.28384,0.0209 -2.48518,0.83662 -2.88593,1.72261 -0.65744,0.4138 -0.73409,1.59597 -1.02042,1.81261 -0.38594,2.83423 0.72511,4.05821 2.60481,5.49885 0.29505,0.19921 0.0831,0.22971 0.12245,0.38129 -0.62436,-0.29214 -1.19585,-0.73353 -1.66628,-1.27395 0.24975,0.36502 0.51893,0.71988 0.86713,0.99867 -0.58923,-0.19894 -1.37589,-1.4267 -1.605,-1.47664 1.01494,1.81724 4.11717,3.18704 5.74248,2.50723 -0.75213,0.0276 -1.7072,0.0154 -2.55166,-0.29678 -0.35572,-0.18266 -0.83749,-0.56044 -0.75124,-0.63102 2.21743,0.8279 4.50744,0.62665 6.42578,-0.91097 0.48843,-0.3804 1.02159,-1.02711 1.17579,-1.03581 -0.23203,0.34905 0.04,0.16784 -0.13857,0.47594 0.48553,-0.78433 -0.2117,-0.31943 0.50237,-1.35437 l 0.26368,0.36297 c -0.0987,-0.65161 0.80874,-1.44207 0.71639,-2.4718 0.20823,-0.31478 0.23203,0.33917 0.0113,1.0634 0.30635,-0.80349 0.0809,-0.93272 0.15944,-1.59597 0.0846,0.223 0.19689,0.45969 0.25409,0.69517 -0.19979,-0.77676 0.20414,-1.30761 0.30463,-1.75918 -0.0991,-0.0435 -0.30812,0.34326 -0.35632,-0.57381 0.01,-0.39842 0.11134,-0.20878 0.15095,-0.30693 -0.0779,-0.0451 -0.28313,-0.35051 -0.4077,-0.93622 0.0897,-0.13797 0.24161,0.35687 0.36473,0.37692 -0.0793,-0.46551 -0.21547,-0.82066 -0.22128,-1.17812 -0.36007,-0.75211 -0.1274,0.10036 -0.41905,-0.3229 -0.38329,-1.19469 0.31771,-0.27734 0.36534,-0.81978 0.58018,0.84067 0.91095,2.14453 1.0634,2.68436 -0.11602,-0.65832 -0.30346,-1.2963 -0.53257,-1.9134 0.17685,0.0744 -0.28431,-1.35409 0.2297,-0.408 -0.54856,-2.01677 -2.34579,-3.9014 -3.99959,-4.78535 0.20186,0.18498 0.45709,0.41729 0.36594,0.45389 -0.823,-0.48931 -0.67837,-0.52793 -0.79627,-0.73471 -0.66935,-0.27265 -0.71408,0.0222 -1.15695,7.7e-4 -1.26314,-0.67023 -1.5065,-0.59909 -2.66896,-1.01841 l 0.053,0.24741 c -0.83663,-0.27876 -0.97487,0.10514 -1.87885,7.7e-4 -0.0548,-0.0428 0.28981,-0.15564 0.57381,-0.19659 -0.80902,0.10682 -0.77127,-0.15971 -1.56287,0.029 0.19486,-0.13672 0.40161,-0.22766 0.60953,-0.34385 -0.65947,0.0402 -1.57509,0.38391 -1.29253,0.0706 -1.0759,0.48029 -2.98697,1.15431 -4.05939,2.15993 l -0.0337,-0.22535 c -0.49133,0.58979 -2.14279,1.76154 -2.27435,2.52611 l -0.13149,0.0303 c -0.25528,0.43295 -0.42106,0.92343 -0.62378,1.3686 -0.33423,0.57005 -0.49016,0.21955 -0.44257,0.30898 -0.65769,1.33348 -0.98498,2.45382 -1.26697,3.37319 0.20095,0.30056 0.003,1.80973 0.0807,3.01747 -0.32989,5.96579 4.18686,11.75765 9.12409,13.0946 0.72368,0.25932 1.79956,0.25003 2.71488,0.27558 -1.07966,-0.30899 -1.21911,-0.16351 -2.27145,-0.53025 -0.75881,-0.35777 -0.92488,-0.76574 -1.46268,-1.23243 l 0.21285,0.37607 c -1.05409,-0.37319 -0.61298,-0.46175 -1.47082,-0.73329 l 0.22735,-0.29645 c -0.34177,-0.0261 -0.90514,-0.57558 -1.05905,-0.88076 l -0.37401,0.0154 c -0.44896,-0.55353 -0.68854,-0.9534 -0.67082,-1.26322 l -0.12083,0.21543 c -0.1367,-0.23491 -1.65262,-2.07858 -0.86624,-1.64936 -0.14606,-0.13305 -0.34033,-0.21693 -0.55087,-0.59994 l 0.16001,-0.18273 c -0.37781,-0.48698 -0.69636,-1.111 -0.67196,-1.3189 0.20182,0.27238 0.34181,0.32348 0.48061,0.37026 -0.95569,-2.37079 -1.00941,-0.13041 -1.7328,-2.41319 l 0.15281,-0.0125 c -0.11701,-0.17741 -0.18876,-0.36878 -0.28285,-0.55724 l 0.0666,-0.66354 c -0.68764,-0.79451 -0.19225,-3.38161 -0.0926,-4.80018 0.068,-0.57669 0.57411,-1.19089 0.9583,-2.15412 l -0.23406,-0.0402 c 0.44778,-0.78059 2.55603,-3.13595 3.53291,-3.01516 0.47304,-0.59412 -0.0939,-7.9e-4 -0.18674,-0.15155 1.03932,-1.0753 1.36601,-0.75965 2.06732,-0.95334 0.75588,-0.44866 -0.64903,0.17538 -0.29069,-0.17106 1.30763,-0.33363 0.92634,-0.75908 2.63182,-0.92837 0.18004,0.10233 -0.4173,0.15797 -0.56714,0.29069 1.08896,-0.53316 3.44665,-0.41149 4.97874,0.29561 1.77632,0.83082 3.77337,3.28549 3.85235,5.59497 l 0.0897,0.0244 c -0.0454,0.91822 0.14054,1.98019 -0.18212,2.95532 l 0.21814,-0.462" />
    <text
       xml:space="preserve"
       style="font-size:40px;font-style:normal;font-variant:normal;font-weight:bold;font-stretch:normal;line-height:125%;letter-spacing:0px;word-spacing:0px;fill:#000000;fill-opacity:1;stroke:none;font-family:Impact;-inkscape-font-specification:Impact Bold"
       x="331.31805"
       y="557.89868"
       id="text830"
       sodipodi:linespacing="125%"><tspan
         sodipodi:role="line"
         id="tspan832"
         x="331.31805"
         y="557.89868" /></text>
  </g>
</svg>
