<?xml version="1.0" encoding="UTF-8" standalone="no"?>
<!-- Created with Inkscape (http://www.inkscape.org/) -->

<svg
   xmlns:dc="http://purl.org/dc/elements/1.1/"
   xmlns:cc="http://creativecommons.org/ns#"
   xmlns:rdf="http://www.w3.org/1999/02/22-rdf-syntax-ns#"
   xmlns:svg="http://www.w3.org/2000/svg"
   xmlns="http://www.w3.org/2000/svg"
   xmlns:xlink="http://www.w3.org/1999/xlink"
   xmlns:sodipodi="http://sodipodi.sourceforge.net/DTD/sodipodi-0.dtd"
   xmlns:inkscape="http://www.inkscape.org/namespaces/inkscape"
   width="48"
   height="48"
   id="svg865"
   version="1.1"
   inkscape:version="0.49 r12742"
   sodipodi:docname="folder-sparkleshare.svg">
  <defs
     id="defs867">
    <linearGradient
       inkscape:collect="always"
       id="linearGradient6589">
      <stop
         style="stop-color:#fa8714;stop-opacity:1"
         offset="0"
         id="stop6591" />
      <stop
         style="stop-color:#fbd89f;stop-opacity:1"
         offset="1"
         id="stop6593" />
    </linearGradient>
    <linearGradient
       inkscape:collect="always"
       id="linearGradient3419">
      <stop
         style="stop-color:#d3d3d4;stop-opacity:1"
         offset="0"
         id="stop3421" />
      <stop
         style="stop-color:#f4f4f4;stop-opacity:1"
         offset="1"
         id="stop3423" />
    </linearGradient>
    <linearGradient
       inkscape:collect="always"
       xlink:href="#linearGradient3419"
       id="linearGradient4053"
       gradientUnits="userSpaceOnUse"
       gradientTransform="matrix(0.8095238,0,0,0.8095238,-1101.9534,-808.48368)"
       x1="2.9250314"
       y1="1029.4803"
       x2="44.956501"
       y2="1029.4803" />
    <linearGradient
       inkscape:collect="always"
       xlink:href="#linearGradient3419"
       id="linearGradient4055"
       gradientUnits="userSpaceOnUse"
       gradientTransform="matrix(0.69047615,0,0,0.69047615,-1099.0959,-686.05959)"
       x1="2.9250314"
       y1="1029.4803"
       x2="44.956501"
       y2="1029.4803" />
    <linearGradient
       inkscape:collect="always"
       xlink:href="#linearGradient6589"
       id="linearGradient4057"
       gradientUnits="userSpaceOnUse"
       gradientTransform="matrix(0,-1,1,0,-1004.3621,1106.5249)"
       x1="2.9281611"
       y1="1031.2874"
       x2="41.929218"
       y2="1031.2874" />
  </defs>
  <sodipodi:namedview
     id="base"
     pagecolor="#ffffff"
     bordercolor="#666666"
     borderopacity="1.0"
     inkscape:pageopacity="0"
     inkscape:pageshadow="2"
     inkscape:zoom="12.002954"
     inkscape:cx="14.914585"
     inkscape:cy="18.470315"
     inkscape:document-units="px"
     inkscape:current-layer="layer1"
     showgrid="false"
     inkscape:window-width="1366"
     inkscape:window-height="718"
     inkscape:window-x="0"
     inkscape:window-y="23"
     inkscape:window-maximized="1" />
  <metadata
     id="metadata870">
    <rdf:RDF>
      <cc:Work
         rdf:about="">
        <dc:format>image/svg+xml</dc:format>
        <dc:type
           rdf:resource="http://purl.org/dc/dcmitype/StillImage" />
        <dc:title />
      </cc:Work>
    </rdf:RDF>
  </metadata>
  <g
     inkscape:label="Capa 1"
     inkscape:groupmode="layer"
     id="layer1"
     transform="translate(0,-1004.3622)">
    <g
       id="g4134"
       transform="translate(0,1004.3622)">
      <g
         transform="translate(0,-1004.3622)"
         id="layer1-9"
         inkscape:label="Capa 1">
        <g
           inkscape:label="Capa 1"
           id="layer1-2">
          <path
             style="fill:#000000"
             d=""
             id="path906"
             inkscape:connector-curvature="0" />
          <g
             id="g3570"
             transform="translate(0,-54.162733)">
            <rect
               style="fill:#000000;fill-opacity:0.01960784;stroke:none"
               id="rect4025"
               width="44.399963"
               height="44.399963"
               x="1.8000183"
               y="1060.325"
               ry="6.2786646" />
            <rect
               ry="6.1938181"
               y="1060.625"
               x="2.1000061"
               height="43.799973"
               width="43.799973"
               id="rect4027"
               style="fill:#000000;fill-opacity:0.03921569;stroke:none" />
            <rect
               style="fill:#000000;fill-opacity:0.07843137;stroke:none"
               id="rect4029"
               width="43.199982"
               height="43.199982"
               x="2.3999939"
               y="1060.9253"
               ry="6.1089716" />
            <rect
               ry="6.0241251"
               y="1061.2251"
               x="2.7000122"
               height="42.599991"
               width="42.599991"
               id="rect4031"
               style="fill:#000000;fill-opacity:0.15686275;stroke:none" />
            <rect
               style="fill:#ff8735;fill-opacity:1;stroke:none"
               id="rect4033"
               width="42"
               height="42"
               x="-1103.5249"
               y="3.0000219"
               ry="5.9392796"
               transform="matrix(0,-1,1,0,0,0)" />
            <rect
               style="opacity:0.1;fill:#000000;fill-opacity:1;stroke:none"
               id="rect4035"
               width="37.000004"
               height="37.000004"
               x="-1101.0249"
               y="5.50002"
               ry="5.2322216"
               transform="matrix(0,-1,1,0,0,0)" />
            <rect
               transform="matrix(0,-1,1,0,0,0)"
               ry="5.0625286"
               y="6.1000223"
               x="-1100.4249"
               height="35.799999"
               width="35.799999"
               id="rect4037"
               style="opacity:0.03999999;fill:#000000;fill-opacity:1;stroke:none" />
            <rect
               transform="matrix(0,-1,1,0,0,0)"
               ry="4.8079882"
               y="7.0000219"
               x="-1099.5249"
               height="34"
               width="34"
               id="rect4039"
               style="fill:url(#linearGradient4053);fill-opacity:1;stroke:none" />
            <rect
               transform="matrix(0,-1,1,0,0,0)"
               ry="4.3837538"
               y="8.50002"
               x="-1098.0249"
               height="31.000004"
               width="31.000004"
               id="rect4041"
               style="opacity:0.1;fill:#000000;fill-opacity:1;stroke:none" />
            <rect
               style="opacity:0.05;fill:#000000;fill-opacity:1;stroke:none"
               id="rect4043"
               width="30"
               height="30"
               x="-1097.5249"
               y="9.0000219"
               ry="4.2423429"
               transform="matrix(0,-1,1,0,0,0)" />
            <rect
               style="fill:url(#linearGradient4055);fill-opacity:1;stroke:none"
               id="rect4045"
               width="29.000004"
               height="29.000004"
               x="-1097.0249"
               y="9.50002"
               ry="4.1009312"
               transform="matrix(0,-1,1,0,0,0)" />
            <path
               inkscape:connector-curvature="0"
               style="fill:url(#linearGradient4057);fill-opacity:1;stroke:none"
               d="m 2.9999782,1097.5855 c 0,3.2903 2.6491,5.9394 5.9395,5.9394 l 30.1209998,0 c 3.2904,0 5.9395,-2.6491 5.9395,-5.9394 l 0,-13.0606 0,-10 0,-2 c 0,-0.1385 -0.014,-0.2738 -0.041,-0.4043 -0.1859,-0.913 -0.9895,-1.5957 -1.959,-1.5957 l -18.7129,0 -2.4863,-4.9023 c -0.1007,-0.1985 -0.2352,-0.3657 -0.3848,-0.5137 -0.089,-0.088 -0.1836,-0.1658 -0.2851,-0.2344 -0.01,0 -0.014,-0.011 -0.021,-0.016 -0.092,-0.06 -0.1887,-0.112 -0.2891,-0.1562 -0.025,-0.011 -0.049,-0.021 -0.074,-0.031 -0.089,-0.035 -0.1787,-0.062 -0.2715,-0.084 -0.039,-0.01 -0.077,-0.018 -0.1172,-0.025 -0.083,-0.014 -0.1656,-0.022 -0.25,-0.025 -0.036,0 -0.071,-0.012 -0.1074,-0.012 l -14.9999998,0 c -1.108,0 -2,0.892 -2,2 l 0,2 0,10 0,19.0606 z"
               id="path4047" />
            <path
               inkscape:connector-curvature="0"
               style="fill:#000000;fill-opacity:0.11764706;stroke:none"
               d="m 3.0000004,1095.0874 0,2.5 c 0,3.2904 2.64714,5.9375 5.9375,5.9375 l 30.1249996,0 c 3.29036,0 5.9375,-2.6471 5.9375,-5.9375 l 0,-2.5 c 0,3.2904 -2.64714,5.9375 -5.9375,5.9375 l -30.1249996,0 c -3.29036,0 -5.9375,-2.6471 -5.9375,-5.9375 z"
               id="path4049" />
            <path
               inkscape:connector-curvature="0"
               style="fill:#000000;fill-opacity:0.09803922;stroke:none"
               d="m 3.0000004,1097.0874 0,0.5 c 0,3.2904 2.64714,5.9375 5.9375,5.9375 l 30.1249996,0 c 3.29036,0 5.9375,-2.6471 5.9375,-5.9375 l 0,-0.5 c 0,3.2904 -2.64714,5.9375 -5.9375,5.9375 l -30.1249996,0 c -3.29036,0 -5.9375,-2.6471 -5.9375,-5.9375 z"
               id="path4051" />
          </g>
        </g>
      </g>
      <g
         inkscape:label="Capa 2"
         id="layer2-97" />
    </g>
    <g
       transform="matrix(1.2592739,0,0,1.2962792,-593.0528,522.88915)"
       id="layer15"
       style="fill:#a04604;fill-opacity:1">
      <path
         d="m 489.81784,387.62809 c -0.56753,0.15216 -1.06188,0.59585 -1.18728,1.18687 -0.25548,0.71825 -0.46808,1.4508 -0.71351,2.17238 -0.93274,0.0214 -1.8703,-0.044 -2.7996,0.0368 -0.9957,0.22174 -1.47218,1.69575 -0.63851,2.3701 0.67834,0.57621 1.4261,1.0654 2.136,1.60267 -0.26037,0.91351 -0.62815,1.80173 -0.80939,2.73454 -0.0663,1.07749 1.39776,1.91089 2.2369,1.16249 0.65399,-0.47249 1.3046,-0.9495 1.9579,-1.4232 0.77794,0.53639 1.502,1.1575 2.3213,1.6296 0.931,0.40804 2.121,-0.53556 1.84623,-1.5432 -0.21896,-0.8646 -0.52501,-1.7057 -0.78206,-2.5603 0.74605,-0.57169 1.5446,-1.0789 2.2509,-1.6997 0.56306,-0.61147 0.3539,-1.6133 -0.30108,-2.0659 -0.58771,-0.38638 -1.313,-0.20409 -1.9737,-0.24485 l -1.3043,0 c -0.30628,-0.8923 -0.5572,-1.8077 -0.899,-2.6854 -0.1084,-0.3999 -0.8083,-0.675 -1.3418,-0.675 z m 0.18322,2.4 c 0.25117,0.723 0.39572,1.49228 0.72189,2.18338 0.44844,0.57611 1.2169,0.43062 1.8562,0.44689 l 1.1981,0 c -0.64205,0.48144 -1.32238,0.91252 -1.9368,1.43024 -0.0666,0.045 -0.17909,0.51574 -0.12209,0.21915 -0.29189,0.49443 0.0617,1.03129 0.17976,1.527 0.13157,0.41687 0.26314,0.83375 0.39475,1.25062 -0.62811,-0.43238 -1.19764,-0.96962 -1.86694,-1.32982 -0.47909,-0.14401 -1.0118,-0.03 -1.3686,0.3244 -0.4492,0.3351 -0.89851,0.67035 -1.3477,1.00547 0.21069,-0.74361 0.514,-1.46844 0.66132,-2.22529 0.0179,-0.49092 -0.26759,-0.93827 -0.69822,-1.15877 -0.48267,-0.34771 -0.965,-0.69532 -1.44743,-1.04297 0.78439,-0.0205 1.57513,0.0401 2.35533,-0.0346 0.47238,-0.10949 0.7727,-0.53452 0.8633,-0.98851 0.18571,-0.53597 0.37151,-1.0721 0.55717,-1.60797 z"
         style="text-indent:0;text-transform:none;block-progression:tb;color:#000000;fill:#a04604;fill-opacity:1;enable-background:new"
         id="path5717-0-9-4"
         inkscape:connector-curvature="0" />
    </g>
    <g
       inkscape:label="Capa 2"
       id="layer2-2"
       transform="translate(-127.58401,1005.7768)" />
  </g>
  <g
     inkscape:groupmode="layer"
     id="layer2"
     inkscape:label="Capa 2" />
</svg>
