/* XPM */
static char * close_inactive_xpm[] = {
"16 20 27 1",
" 	c None",
".	c #1F1F1F",
"+	c #171717",
"@	c #141414",
"#	c #242424",
"$	c #151515",
"%	c #17181A",
"&	c #1C1E1D",
"*	c #1D1D1D",
"=	c #181818",
"-	c #171916",
";	c #3F2B1F",
">	c #99632A",
",	c #955C28",
"'	c #41321F",
")	c #1C1E1B",
"!	c #986229",
"~	c #B36D29",
"{	c #96602B",
"]	c #201C1D",
"^	c #B46E2A",
"/	c #B26D2A",
"(	c #985F27",
"_	c #975E27",
":	c #413321",
"<	c #19171A",
"[	c #1D1F1C",
"                ",
"                ",
"                ",
"                ",
"                ",
"     .+@@+.     ",
"    #$%&*=$#    ",
"    =-;>,'==    ",
"    @)!~~{]@    ",
"    @*,^/()@    ",
"    +='{_:<+    ",
"    .$=][=$.    ",
"     .+@@+.     ",
"                ",
"                ",
"                ",
"                ",
"                ",
"                ",
"                "};
