/* XPM */
static char * top_right_active_xpm[] = {
"4 20 4 1",
" 	c None",
".	c #282828",
"+	c #323232",
"@	c #222222",
"..+ ",
"...+",
"....",
"....",
"....",
"....",
"....",
"....",
"@@@@",
"@@@@",
"@@@@",
"@@@@",
"@@@@",
"@@@@",
"@@@@",
"@@@@",
"@@@@",
"@@@@",
"@@@@",
"@@@@"};
