/* XPM */
static char * close_active_xpm[] = {
"16 20 18 1",
" 	c None",
".	c #1F1F1F",
"+	c #171717",
"@	c #141414",
"#	c #242424",
"$	c #151515",
"%	c #17181A",
"&	c #1C1E1D",
"*	c #1D1D1D",
"=	c #181818",
"-	c #171916",
";	c #552F4F",
">	c #BD31A8",
",	c #1C1E1B",
"'	c #E232C7",
")	c #201C1D",
"!	c #19171A",
"~	c #1D1F1C",
"                ",
"                ",
"                ",
"                ",
"                ",
"     .+@@+.     ",
"    #$%&*=$#    ",
"    =-;>>;==    ",
"    @,>''>)@    ",
"    @*>''>,@    ",
"    +=;>>;!+    ",
"    .$=)~=$.    ",
"     .+@@+.     ",
"                ",
"                ",
"                ",
"                ",
"                ",
"                ",
"                "};
