/* XPM */
static char * top_left_inactive_xpm[] = {
"4 20 4 1",
" 	c None",
".	c #323232",
"+	c #282828",
"@	c #222222",
" .++",
".+++",
"++++",
"++++",
"++++",
"++++",
"++++",
"++++",
"@@@@",
"@@@@",
"@@@@",
"@@@@",
"@@@@",
"@@@@",
"@@@@",
"@@@@",
"@@@@",
"@@@@",
"@@@@",
"@@@@"};
