<?xml version="1.0" encoding="UTF-8" standalone="no"?>
<svg
   xmlns:dc="http://purl.org/dc/elements/1.1/"
   xmlns:cc="http://creativecommons.org/ns#"
   xmlns:rdf="http://www.w3.org/1999/02/22-rdf-syntax-ns#"
   xmlns:svg="http://www.w3.org/2000/svg"
   xmlns="http://www.w3.org/2000/svg"
   id="svg2"
   viewBox="0 0 512 512"
   height="100%"
   width="100%"
   version="1.1">
  <metadata
     id="metadata711">
    <rdf:RDF>
      <cc:Work
         rdf:about="">
        <dc:format>image/svg+xml</dc:format>
        <dc:type
           rdf:resource="http://purl.org/dc/dcmitype/StillImage" />
      </cc:Work>
    </rdf:RDF>
  </metadata>
  <defs
     id="defs4">
    <linearGradient
       gradientUnits="userSpaceOnUse"
       id="0-3"
       y2="471.66"
       x2="0"
       y1="33.752998">
      <stop
         offset="0"
         style="stop-color:#6a6a6a;stop-opacity:1"
         id="stop7-6" />
      <stop
         offset="0.47"
         style="stop-color:#000000;stop-opacity:1"
         id="stop9-1" />
      <stop
         offset="0.49399999"
         style="stop-color:#ffffff;stop-opacity:1"
         id="stop11-7" />
      <stop
         offset="0.90100002"
         style="stop-color:#ffffff;stop-opacity:1"
         id="stop13-8" />
      <stop
         offset="0.95499998"
         style="stop-color:#000000;stop-opacity:1"
         id="stop15-1" />
      <stop
         offset="1"
         style="stop-color:#000000;stop-opacity:1"
         id="stop17-5" />
    </linearGradient>
  </defs>
  <path
     d="m 471.95,253.05 c 0,120.9 -98.01,218.91 -218.91,218.91 -120.9,0 -218.91,-98.01 -218.91,-218.91 0,-120.9 98.01,-218.91 218.91,-218.91 120.9,0 218.91,98.01 218.91,218.91"
     id="path21"
     style="fill:#6997c7;fill-rule:evenodd" />
  <path
     d="m 471.95,253.05 c 0,120.9 -98.01,218.91 -218.91,218.91 -120.9,0 -218.91,-98.01 -218.91,-218.91 0,-120.9 98.01,-218.91 218.91,-218.91 120.9,0 218.91,98.01 218.91,218.91"
     id="path23"
     style="opacity:0.05;fill:url(#0-3);fill-rule:evenodd" />
  <path
     d="m 249.59,34.19 c -8.912,0.137 -17.689,0.797 -26.313,1.969 l 246.66,246.66 c 1.172,-8.62 1.831,-17.404 1.969,-26.313 L 249.596,34.196 m 29.844,1.563 190.94,190.94 c -1.466,-12.221 -3.949,-24.11 -7.344,-35.625 l -148,-148 C 303.54,39.685 291.641,37.229 279.442,35.761 m -79.875,4.969 c -7.363,1.849 -14.579,4.083 -21.625,6.656 l 280.78,280.78 c 2.574,-7.05 4.807,-14.262 6.656,-21.625 L 199.568,40.731 m -41.531,15.03 c -6.281,3.03 -12.383,6.374 -18.313,9.969 l 300.66,300.66 c 3.595,-5.93 6.939,-12.03 9.969,-18.313 L 158.043,55.767 m 207.41,9.438 75.5,75.5 c -18.556,-30.965 -44.539,-56.939 -75.5,-75.5 m -242.62,11.906 c -5.39,3.996 -10.6,8.224 -15.594,12.688 l 309.09,309.09 c 4.463,-4.994 8.692,-10.204 12.688,-15.594 L 122.827,77.105 m -29.875,26.688 c -4.564,4.892 -8.895,9.986 -13,15.281 l 307.09,307.09 c 5.29,-4.101 10.393,-8.441 15.281,-13 L 92.953,103.794 m -24.688,31.875 c -3.702,5.815 -7.13,11.829 -10.281,18 l 294.47,294.47 c 6.171,-3.151 12.185,-6.579 18,-10.281 L 68.264,135.668 m -19.06,37.5 c -2.706,6.9 -5.088,13.967 -7.094,21.19 l 269.66,269.66 c 7.221,-2.01 14.288,-4.387 21.19,-7.094 L 49.21,173.174 m -12.156,44.41 c -1.368,8.386 -2.301,16.917 -2.688,25.594 l 228.56,228.56 c 8.688,-0.385 17.229,-1.287 25.625,-2.656 l -251.5,-251.5 m -2.063,54.5 c 0.997,11.588 2.894,22.905 5.625,33.906 l 159.53,159.53 c 11,2.731 22.319,4.628 33.906,5.625 L 34.989,272.083 m 22.16,78.72 c 21.2,42.43 55.76,76.985 98.19,98.19 l -98.19,-98.19"
     id="path25"
     style="opacity:0;fill:#ffffff;fill-rule:evenodd" />
  <path
     d="M 256,1 C 115.17,1 1,115.17 1,256 1,396.83 115.17,511 256,511 396.83,511 511,396.83 511,256 511,115.17 396.83,1 256,1 m 8.827,44.931 c 120.9,0 218.9,98 218.9,218.9 0,120.9 -98,218.9 -218.9,218.9 -120.9,0 -218.93,-98 -218.93,-218.9 0,-120.9 98.03,-218.9 218.93,-218.9"
     id="path27"
     style="fill-opacity:0.06700003;fill-rule:evenodd" />
  <path
     id="path31"
     d="M 256,4.43 C 117.06,4.43 4.43,117.06 4.43,256 4.43,394.94 117.06,507.57 256,507.57 394.94,507.57 507.57,394.94 507.57,256 507.57,117.06 394.94,4.43 256,4.43 m 5.885,38.556 c 120.9,0 218.9,98 218.9,218.9 0,120.9 -98,218.9 -218.9,218.9 -120.9,0 -218.93,-98 -218.93,-218.9 0,-120.9 98.03,-218.9 218.93,-218.9"
     style="fill-opacity:0.12900002;fill-rule:evenodd" />
  <path
     id="path33"
     d="M 256,8.36 C 119.23,8.36 8.36,119.23 8.36,256 8.36,392.77 119.23,503.64 256,503.64 392.77,503.64 503.64,392.77 503.64,256 503.64,119.23 392.77,8.36 256,8.36 m 2.942,31.691 c 120.9,0 218.9,98 218.9,218.9 0,120.9 -98,218.9 -218.9,218.9 -120.9,0 -218.93,-98 -218.93,-218.9 0,-120.9 98.03,-218.9 218.93,-218.9"
     style="fill-opacity:0.12900002;fill-rule:evenodd" />
  <path
     d="M 253.04,7.86 C 117.62,7.86 7.85,117.64 7.85,253.05 c 0,135.42 109.78,245.19 245.19,245.19 135.42,0 245.19,-109.78 245.19,-245.19 C 498.23,117.63 388.45,7.86 253.04,7.86 Z m 0,26.297 c 120.9,0 218.9,98 218.9,218.9 0,120.9 -98,218.9 -218.9,218.9 -120.9,0 -218.93,-98 -218.93,-218.9 0,-120.9 98.03,-218.9 218.93,-218.9 z"
     id="path35"
     style="fill:#ffffff;fill-rule:evenodd;stroke:#000000;stroke-width:4.90399981;stroke-opacity:0.31000001" />
  <path
     style="fill-opacity:0.23500001"
     id="path445"
     d="m 156.81,123.38 c -7.43,0 -13.469,6 -13.469,13.438 l 0,188.38 c 0,3.923 1.696,7.421 4.375,9.875 0.342,0.386 0.71,0.749 1.094,1.094 0.313,0.346 0.652,0.688 1,1 0.319,0.352 0.646,0.683 1,1 0.339,0.375 0.684,0.728 1.063,1.063 0.271,0.295 0.548,0.574 0.844,0.844 0.307,0.345 0.628,0.657 0.969,0.969 0.342,0.386 0.71,0.749 1.094,1.094 0.313,0.346 0.652,0.688 1,1 0.313,0.346 0.652,0.688 1,1 0.339,0.375 0.684,0.728 1.063,1.063 0.271,0.295 0.548,0.574 0.844,0.844 0.307,0.345 0.628,0.657 0.969,0.969 0.313,0.353 0.652,0.681 1,1 0.342,0.386 0.71,0.749 1.094,1.094 0.313,0.346 0.652,0.688 1,1 0.319,0.352 0.646,0.683 1,1 0.314,0.347 0.621,0.688 0.969,1 0.284,0.314 0.594,0.589 0.906,0.875 0.313,0.353 0.652,0.681 1,1 0.342,0.386 0.71,0.749 1.094,1.094 0.313,0.346 0.652,0.688 1,1 0.319,0.352 0.646,0.683 1,1 0.339,0.375 0.684,0.728 1.063,1.063 0.291,0.317 0.586,0.618 0.906,0.906 0.181,0.201 0.338,0.404 0.531,0.594 0.149,0.151 0.312,0.294 0.469,0.438 0.208,0.23 0.433,0.441 0.656,0.656 0.09,0.09 0.188,0.162 0.281,0.25 0.331,0.37 0.693,0.731 1.063,1.063 0.313,0.346 0.652,0.688 1,1 0.339,0.375 0.684,0.728 1.063,1.063 0.271,0.295 0.548,0.574 0.844,0.844 0.307,0.345 0.628,0.657 0.969,0.969 0.342,0.386 0.71,0.749 1.094,1.094 0.313,0.346 0.652,0.688 1,1 0.313,0.346 0.652,0.688 1,1 0.319,0.352 0.646,0.683 1,1 0.314,0.347 0.621,0.688 0.969,1 0.284,0.314 0.594,0.589 0.906,0.875 0.313,0.353 0.652,0.681 1,1 0.342,0.386 0.71,0.749 1.094,1.094 0.313,0.346 0.652,0.688 1,1 0.319,0.352 0.646,0.683 1,1 0.339,0.375 0.684,0.728 1.063,1.063 0.271,0.295 0.548,0.574 0.844,0.844 0.307,0.345 0.628,0.657 0.969,0.969 0.342,0.386 0.71,0.749 1.094,1.094 0.313,0.346 0.652,0.688 1,1 0.319,0.352 0.646,0.683 1,1 0.339,0.375 0.684,0.728 1.063,1.063 0.321,0.35 0.644,0.686 1,1 0.172,0.188 0.317,0.385 0.5,0.563 0.149,0.153 0.313,0.292 0.469,0.438 0.229,0.25 0.471,0.487 0.719,0.719 0.069,0.069 0.148,0.12 0.219,0.188 0.274,0.303 0.574,0.598 0.875,0.875 0.309,0.35 0.657,0.683 1,1 0.373,0.423 0.765,0.814 1.188,1.188 0.271,0.295 0.548,0.574 0.844,0.844 0.307,0.345 0.628,0.657 0.969,0.969 0.342,0.386 0.71,0.749 1.094,1.094 0.313,0.346 0.652,0.688 1,1 0.313,0.346 0.652,0.688 1,1 0.319,0.352 0.646,0.683 1,1 0.314,0.347 0.621,0.688 0.969,1 0.284,0.314 0.594,0.589 0.906,0.875 0.313,0.353 0.652,0.681 1,1 0.342,0.386 0.71,0.749 1.094,1.094 0.313,0.346 0.652,0.688 1,1 0.319,0.352 0.646,0.683 1,1 0.339,0.375 0.684,0.728 1.063,1.063 0.271,0.295 0.548,0.574 0.844,0.844 0.307,0.345 0.628,0.657 0.969,0.969 0.342,0.386 0.71,0.749 1.094,1.094 0.313,0.346 0.652,0.688 1,1 0.313,0.346 0.652,0.688 1,1 0.339,0.375 0.684,0.728 1.063,1.063 0.271,0.295 0.548,0.574 0.844,0.844 0.307,0.345 0.628,0.657 0.969,0.969 0.342,0.386 0.71,0.749 1.094,1.094 0.313,0.346 0.652,0.688 1,1 0.313,0.346 0.652,0.688 1,1 0.319,0.352 0.646,0.683 1,1 0.314,0.347 0.621,0.688 0.969,1 0.284,0.314 0.594,0.589 0.906,0.875 0.313,0.353 0.652,0.681 1,1 0.342,0.386 0.71,0.749 1.094,1.094 0.313,0.346 0.652,0.688 1,1 0.319,0.352 0.646,0.683 1,1 0.314,0.347 0.621,0.688 0.969,1 0.314,0.347 0.652,0.656 1,0.969 0.289,0.321 0.588,0.615 0.906,0.906 0.342,0.386 0.71,0.749 1.094,1.094 0.313,0.346 0.652,0.688 1,1 0.319,0.352 0.646,0.683 1,1 0.339,0.375 0.684,0.728 1.063,1.063 0.271,0.295 0.548,0.574 0.844,0.844 0.307,0.345 0.628,0.657 0.969,0.969 0.342,0.386 0.71,0.749 1.094,1.094 0.313,0.346 0.652,0.688 1,1 0.313,0.346 0.652,0.688 1,1 0.339,0.375 0.684,0.728 1.063,1.063 0.271,0.295 0.548,0.574 0.844,0.844 0.307,0.345 0.628,0.657 0.969,0.969 0.342,0.386 0.71,0.749 1.094,1.094 0.313,0.346 0.652,0.688 1,1 0.313,0.346 0.652,0.688 1,1 0.319,0.352 0.646,0.683 1,1 0.314,0.347 0.621,0.688 0.969,1 0.284,0.314 0.594,0.589 0.906,0.875 0.313,0.353 0.652,0.681 1,1 0.342,0.386 0.71,0.749 1.094,1.094 0.313,0.346 0.652,0.688 1,1 0.319,0.352 0.646,0.683 1,1 0.339,0.375 0.684,0.728 1.063,1.063 0.271,0.295 0.548,0.574 0.844,0.844 0.307,0.345 0.628,0.657 0.969,0.969 0.342,0.386 0.71,0.749 1.094,1.094 0.313,0.346 0.652,0.688 1,1 0.346,0.382 0.706,0.753 1.094,1.094 0.313,0.339 0.623,0.663 0.969,0.969 0.271,0.295 0.548,0.574 0.844,0.844 0.307,0.345 0.628,0.657 0.969,0.969 0.342,0.386 0.71,0.749 1.094,1.094 0.313,0.346 0.652,0.688 1,1 0.313,0.346 0.652,0.688 1,1 0.319,0.352 0.646,0.683 1,1 0.314,0.347 0.621,0.688 0.969,1 0.284,0.314 0.594,0.589 0.906,0.875 0.313,0.353 0.652,0.681 1,1 0.342,0.386 0.71,0.749 1.094,1.094 0.313,0.346 0.652,0.688 1,1 0.319,0.352 0.646,0.683 1,1 0.314,0.347 0.621,0.688 0.969,1 0.284,0.314 0.594,0.589 0.906,0.875 0.313,0.353 0.652,0.681 1,1 0.342,0.386 0.71,0.749 1.094,1.094 0.313,0.346 0.652,0.688 1,1 0.319,0.352 0.646,0.683 1,1 0.15,0.165 0.315,0.312 0.469,0.469 86.02,-11.618 156.18,-73.19 180.31,-154.56 l -0.094,0 -0.031,0 -0.063,-0.063 c -0.002,-0.002 -0.246,-0.245 -0.313,-0.313 -0.043,-0.043 -0.116,-0.115 -0.156,-0.156 -0.027,-0.028 -0.132,-0.163 -0.156,-0.188 l -0.031,-0.031 0,-0.094 0,-0.031 -0.094,0 -0.031,0 0,-0.125 -0.125,0 -0.688,-0.688 c -0.008,-0.008 -0.024,-0.024 -0.031,-0.031 l 0,-0.125 -0.125,0 0,-0.125 -0.125,0 c -0.063,-0.064 -0.159,-0.127 -0.219,-0.188 -0.097,-0.098 -0.398,-0.428 -0.469,-0.5 l -0.031,-0.031 c -0.008,-0.008 -0.024,-0.024 -0.031,-0.031 l 0,-0.125 -0.125,0 0,-0.125 -0.125,0 -0.719,-0.719 -0.031,-0.031 0,-0.094 0,-0.031 -0.094,0 -0.031,0 0,-0.125 -0.125,0 -0.719,-0.688 c -0.004,-0.004 0.004,-0.027 0,-0.031 l -0.031,-0.031 0,-0.094 0,-0.031 -0.094,0 -0.031,0 0,-0.125 -0.125,0 -0.656,-0.625 c -0.007,-0.007 -0.024,-0.024 -0.031,-0.031 -0.002,-0.002 0.002,-0.029 0,-0.031 -0.008,-0.008 -0.024,-0.024 -0.031,-0.031 l -0.031,-0.031 0,-0.094 0,-0.031 -0.094,0 -0.031,0 0,-0.125 -0.125,0 -0.719,-0.719 -0.031,-0.031 0,-0.094 0,-0.031 -0.094,0 -0.031,0 0,-0.125 -0.125,0 c -0.034,-0.034 -0.092,-0.061 -0.125,-0.094 -0.162,-0.164 -0.22,-0.218 -0.375,-0.375 -10e-4,-10e-4 -0.115,-0.115 -0.125,-0.125 -0.012,-0.012 -0.019,-0.05 -0.031,-0.063 -0.005,-0.005 -0.027,-0.027 -0.031,-0.031 -0.008,-0.008 -0.024,-0.024 -0.031,-0.031 l 0,-0.125 -0.125,0 0,-0.125 -0.125,0 c -0.062,-0.063 -0.717,-0.717 -0.719,-0.719 -0.008,-0.008 -0.024,-0.024 -0.031,-0.031 l 0,-0.094 0,-0.031 -0.094,0 -0.031,0 0,-0.125 -0.125,0 c -0.122,-0.123 -0.262,-0.229 -0.375,-0.344 -0.001,-10e-4 -0.088,-0.088 -0.094,-0.094 -0.016,-0.016 -0.079,-0.079 -0.094,-0.094 -0.001,-10e-4 10e-4,-0.031 0,-0.031 l -0.031,-0.031 c -0.057,-0.057 -0.071,-0.071 -0.125,-0.125 l -0.031,-0.031 0,-0.094 0,-0.031 -0.094,0 c -0.004,-0.004 -0.027,0.004 -0.031,0 l 0,-0.125 -0.125,0 c -0.192,-0.194 -0.57,-0.568 -0.719,-0.719 l -0.031,-0.031 0,-0.094 0,-0.031 -0.094,0 c -0.003,-0.003 -0.028,0.003 -0.031,0 l 0,-0.125 -0.125,0 c -0.037,-0.037 -0.186,-0.154 -0.219,-0.188 -0.001,-10e-4 -0.088,-0.088 -0.094,-0.094 -0.027,-0.027 -0.1,-0.131 -0.125,-0.156 -0.002,-0.002 -0.03,-0.03 -0.031,-0.031 -0.01,-0.01 -0.055,-0.055 -0.063,-0.063 -0.085,-0.086 -0.109,-0.108 -0.188,-0.188 l -0.031,-0.031 0,-0.094 0,-0.031 -0.094,0 c -0.002,-0.002 -0.03,0.002 -0.031,0 l 0,-0.125 -0.125,0 c -0.059,-0.06 -0.717,-0.717 -0.719,-0.719 l -0.031,-0.031 0,-0.094 0,-0.031 -0.094,0 -0.031,0 0,-0.125 -0.125,0 c -0.004,-0.004 -0.059,-0.028 -0.063,-0.031 -0.166,-0.168 -0.285,-0.283 -0.438,-0.438 -0.029,-0.03 -0.066,-0.096 -0.094,-0.125 -0.019,-0.019 -0.108,-0.107 -0.125,-0.125 l -0.031,-0.031 0,-0.094 0,-0.031 -0.094,0 0,-0.094 -0.125,0 -0.719,-0.719 c -0.008,-0.008 -0.024,-0.024 -0.031,-0.031 l 0,-0.094 0,-0.031 -0.094,0 -0.031,0 0,-0.125 -0.125,0 -0.031,0 c -0.048,-0.048 -0.176,-0.175 -0.219,-0.219 -0.006,-0.007 -0.057,-0.088 -0.063,-0.094 -0.086,-0.087 -0.399,-0.399 -0.406,-0.406 l -0.031,-0.031 0,-0.094 0,-0.031 -0.094,0 c -0.003,-0.003 -0.028,0.003 -0.031,0 l 0,-0.125 -0.125,0 c -0.123,-0.124 -0.644,-0.643 -0.719,-0.719 l -0.031,-0.031 0,-0.094 0,-0.031 -0.094,0 -0.031,0 0,-0.125 -0.125,0 -0.125,-0.125 -0.063,-0.063 c -0.047,-0.048 -0.154,-0.154 -0.188,-0.188 l -0.344,-0.344 -0.031,-0.031 0,-0.094 0,-0.031 -0.094,0 c -0.003,-0.003 -0.028,0.003 -0.031,0 l 0,-0.125 -0.125,0 c -0.12,-0.121 -0.646,-0.645 -0.719,-0.719 l -0.031,-0.031 0,-0.094 0,-0.031 -0.094,0 c -10e-4,-10e-4 -0.03,0.001 -0.031,0 l 0,-0.125 -0.125,0 c -0.054,-0.054 -0.718,-0.718 -0.719,-0.719 l -0.031,-0.031 0,-0.094 0,-0.031 -0.094,0 c -10e-4,-10e-4 -0.03,0.001 -0.031,0 l 0,-0.125 -0.125,0 c -0.049,-0.049 -0.686,-0.686 -0.688,-0.688 -0.008,-0.008 -0.024,-0.024 -0.031,-0.031 l 0,-0.094 0,-0.031 -0.094,0 c -0.005,-0.005 -0.026,0.005 -0.031,0 l 0,-0.125 -0.125,0 c -0.216,-0.218 -0.708,-0.708 -0.719,-0.719 -0.008,-0.008 -0.024,-0.024 -0.031,-0.031 l 0,-0.094 0,-0.031 -0.094,0 -0.031,0 0,-0.125 -0.125,0 -0.719,-0.719 -0.031,-0.031 0,-0.094 0,-0.031 -0.094,0 -0.031,0 0,-0.125 -0.125,0 -0.719,-0.719 -0.031,-0.031 0,-0.094 0,-0.031 -0.094,0 c -0.005,-0.005 -0.026,0.005 -0.031,0 l 0,-0.125 -0.125,0 c -0.204,-0.207 -0.709,-0.708 -0.719,-0.719 l -0.031,-0.031 0,-0.094 0,-0.031 -0.094,0 c -0.005,-0.005 -0.026,0.005 -0.031,0 l 0,-0.125 -0.125,0 c -0.202,-0.205 -0.709,-0.709 -0.719,-0.719 l -0.031,-0.031 0,-0.063 0,-0.063 -0.063,0 -0.063,0 0,-0.125 -0.125,0 c -0.185,-0.188 -0.678,-0.678 -0.688,-0.688 -0.008,-0.008 -0.024,-0.024 -0.031,-0.031 l 0,-0.094 0,-0.031 -0.094,0 c -0.001,-0.001 -0.03,10e-4 -0.031,0 l 0,-0.125 -0.125,0 c -0.049,-0.05 -0.718,-0.718 -0.719,-0.719 -0.008,-0.008 -0.024,-0.024 -0.031,-0.031 l 0,-0.094 0,-0.031 -0.094,0 c -0.001,-0.001 -0.03,10e-4 -0.031,0 l 0,-0.125 -0.125,0 c -0.048,-0.049 -0.718,-0.718 -0.719,-0.719 l -0.031,-0.031 0,-0.094 0,-0.031 -0.094,0 c -0.001,-0.001 -0.03,10e-4 -0.031,0 l 0,-0.125 -0.125,0 c -0.048,-0.048 -0.718,-0.718 -0.719,-0.719 l -0.031,-0.031 0,-0.094 0,-0.031 -0.094,0 c -0.001,-0.001 -0.03,10e-4 -0.031,0 l 0,-0.125 -0.125,0 c -0.047,-0.048 -0.718,-0.718 -0.719,-0.719 l -0.031,-0.031 0,-0.094 0,-0.031 -0.094,0 -0.031,0 0,-0.125 -0.125,0 -0.719,-0.719 -0.031,-0.031 0,-0.063 0,-0.063 -0.063,0 -0.063,0 0,-0.125 -0.125,0 -0.719,-0.719 0,-0.094 0,-0.031 -0.094,0 -0.031,0 0,-0.125 -0.125,0 -0.719,-0.719 c -0.008,-0.008 -0.024,-0.024 -0.031,-0.031 l 0,-0.094 0,-0.031 -0.094,0 -0.031,0 0,-0.125 -0.125,0 -0.719,-0.719 -0.031,-0.031 0,-0.094 0,-0.031 -0.094,0 c -0.005,-0.005 -0.026,0.005 -0.031,0 l 0,-0.125 -0.125,0 c -0.229,-0.231 -0.518,-0.515 -0.719,-0.719 l -0.031,-0.031 0,-0.094 0,-0.031 -0.094,0 c -0.004,-0.004 -0.027,0.004 -0.031,0 l 0,-0.125 -0.125,0 c -0.19,-0.192 -0.56,-0.559 -0.719,-0.719 l -0.031,-0.031 0,-0.063 0,-0.063 -0.063,0 -0.063,0 0,-0.125 -0.125,0 c -0.145,-0.147 -0.608,-0.607 -0.719,-0.719 l -0.031,-0.031 0,-0.063 0,-0.063 -0.063,0 -0.063,0 0,-0.125 -0.125,0 c -0.096,-0.097 -0.661,-0.661 -0.719,-0.719 l -0.031,-0.031 0,-0.063 0,-0.063 -0.063,0 -0.063,0 0,-0.125 -0.125,0 c -0.04,-0.04 -0.687,-0.687 -0.688,-0.688 -0.008,-0.008 -0.024,-0.024 -0.031,-0.031 l 0,-0.094 0,-0.031 -0.094,0 -0.031,0 0,-0.125 -0.125,0 -0.719,-0.719 -0.031,-0.031 0,-0.094 0,-0.031 -0.094,0 -0.031,0 0,-0.125 -0.125,0 -0.719,-0.719 -0.031,-0.031 0,-0.094 0,-0.031 -0.094,0 -0.031,0 0,-0.125 -0.125,0 -0.719,-0.719 -0.031,-0.031 0,-0.063 0,-0.063 -0.063,0 -0.063,0 0,-0.125 -0.125,0 c -0.246,-0.249 -0.496,-0.493 -0.719,-0.719 l -0.031,-0.031 0,-0.063 0,-0.063 -0.063,0 -0.063,0 0,-0.125 -0.125,0 c -0.213,-0.216 -0.532,-0.53 -0.719,-0.719 l -0.031,-0.031 0,-0.063 0,-0.063 -0.063,0 -0.063,0 0,-0.125 -0.125,0 c -0.168,-0.17 -0.546,-0.544 -0.688,-0.688 l -0.031,-0.031 0,-0.094 0,-0.031 -0.094,0 c -0.003,-0.003 -0.028,0.003 -0.031,0 l 0,-0.125 -0.125,0 c -0.136,-0.137 -0.616,-0.614 -0.719,-0.719 l -0.031,-0.031 0,-0.094 0,-0.031 -0.094,0 c -0.002,-0.002 -0.029,0.002 -0.031,0 l 0,-0.125 -0.125,0 c -0.09,-0.091 -0.665,-0.664 -0.719,-0.719 l -0.031,-0.031 0,-0.063 0,-0.063 -0.063,0 -0.063,0 0,-0.125 -0.125,0 c -0.04,-0.04 -0.718,-0.718 -0.719,-0.719 l -0.031,-0.031 0,-0.063 0,-0.063 -0.063,0 -0.063,0 0,-0.125 -0.125,0 c -0.039,-0.04 -0.718,-0.718 -0.719,-0.719 l -0.031,-0.031 0,-0.063 0,-0.063 -0.063,0 -0.063,0 0,-0.125 -0.125,0 -0.719,-0.719 -0.031,-0.031 0,-0.063 0,-0.063 -0.063,0 -0.063,0 0,-0.125 -0.125,0 -0.688,-0.688 c -0.008,-0.008 -0.024,-0.024 -0.031,-0.031 l 0,-0.094 0,-0.031 -0.094,0 -0.031,0 0,-0.125 -0.125,0 -0.719,-0.719 c -0.008,-0.008 -0.024,-0.024 -0.031,-0.031 l 0,-0.094 0,-0.031 -0.094,0 -0.031,0 0,-0.125 -0.125,0 -0.719,-0.719 -0.031,-0.031 0,-0.063 0,-0.063 -0.063,0 -0.063,0 0,-0.125 -0.125,0 -0.719,-0.719 -0.031,-0.031 0,-0.063 0,-0.063 -0.063,0 -0.063,0 0,-0.125 -0.125,0 -0.719,-0.719 -0.031,-0.031 0,-0.063 0,-0.063 -0.063,0 -0.063,0 0,-0.125 -0.125,0 c -0.273,-0.277 -0.534,-0.532 -0.719,-0.719 l -0.031,-0.031 0,-0.063 0,-0.063 -0.063,0 -0.063,0 0,-0.125 -0.125,0 c -0.269,-0.272 -0.54,-0.538 -0.719,-0.719 l -0.031,-0.031 0,-0.063 0,-0.063 -0.063,0 -0.031,0 0,-0.094 -0.125,0 -0.719,-0.719 -0.031,-0.031 0,-0.094 0,-0.031 -0.094,0 -0.031,0 0,-0.125 -0.125,0 -0.719,-0.719 -0.031,-0.031 0,-0.063 0,-0.063 -0.063,0 -0.063,0 0,-0.125 -0.125,0 -0.719,-0.719 -0.031,-0.031 0,-0.063 0,-0.063 -0.063,0 -0.063,0 0,-0.125 -0.125,0 -0.719,-0.719 -0.031,-0.031 0,-0.063 0,-0.063 -0.063,0 -0.063,0 0,-0.125 -0.125,0 -0.719,-0.719 -0.031,-0.031 0,-0.063 0,-0.063 -0.063,0 -0.063,0 0,-0.125 -0.125,0 -0.719,-0.719 -0.031,-0.031 0,-0.063 0,-0.063 -0.063,0 -0.063,0 0,-0.125 -0.125,0 -0.688,-0.688 c -0.008,-0.008 -0.024,-0.024 -0.031,-0.031 l 0,-0.063 0,-0.063 -0.063,0 -0.063,0 0,-0.125 -0.125,0 c -0.132,-0.133 -0.713,-0.713 -0.719,-0.719 -0.008,-0.008 -0.024,-0.024 -0.031,-0.031 l 0,-0.063 0,-0.063 -0.063,0 -0.063,0 0,-0.125 -0.125,0 c -0.13,-0.131 -0.713,-0.713 -0.719,-0.719 l -0.031,-0.031 0,-0.063 0,-0.063 -0.063,0 -0.063,0 0,-0.125 -0.125,0 c -0.129,-0.131 -0.713,-0.713 -0.719,-0.719 l -0.031,-0.031 0,-0.063 0,-0.063 -0.063,0 -0.063,0 0,-0.125 -0.125,0 -0.719,-0.719 -0.031,-0.031 0,-0.063 0,-0.063 -0.063,0 -0.063,0 0,-0.125 -0.125,0 -0.719,-0.719 -0.031,-0.031 0,-0.063 0,-0.063 -0.063,0 -0.063,0 0,-0.125 -0.125,0 -0.688,-0.688 -0.031,-0.031 0,-0.063 0,-0.063 -0.063,0 -0.063,0 0,-0.125 -0.125,0 -0.719,-0.719 -0.031,-0.031 0,-0.063 0,-0.063 -0.063,0 -0.063,0 0,-0.125 -0.125,0 -0.719,-0.719 -0.031,-0.031 0,-0.063 0,-0.063 -0.063,0 -0.063,0 0,-0.125 -0.125,0 -0.719,-0.719 -0.031,-0.031 0,-0.063 0,-0.063 -0.063,0 -0.063,0 0,-0.125 -0.125,0 -0.719,-0.719 -0.031,-0.031 0,-0.063 0,-0.063 -0.063,0 -0.063,0 0,-0.125 -0.125,0 -0.719,-0.719 -0.031,-0.031 0,-0.031 0,-0.094 -0.031,0 -0.094,0 0,-0.125 -0.125,0 -0.719,-0.719 0,-0.063 0,-0.063 -0.063,0 -0.063,0 0,-0.125 -0.125,0 -0.719,-0.719 c -0.008,-0.008 -0.024,-0.024 -0.031,-0.031 l 0,-0.063 0,-0.063 -0.063,0 -0.063,0 0,-0.125 -0.125,0 -0.719,-0.719 -0.031,-0.031 0,-0.063 0,-0.063 -0.063,0 -0.063,0 0,-0.125 -0.125,0 -0.719,-0.719 -0.031,-0.031 0,-0.063 0,-0.063 -0.063,0 -0.063,0 0,-0.125 -0.125,0 -0.719,-0.719 -0.031,-0.031 0,-0.063 0,-0.063 -0.063,0 -0.063,0 0,-0.125 -0.125,0 -0.719,-0.719 -0.031,-0.031 0,-0.031 0,-0.094 -0.031,0 -0.094,0 0,-0.125 -0.125,0 -0.719,-0.719 -0.031,-0.031 0,-0.031 0,-0.094 -0.031,0 -0.094,0 0,-0.125 -0.125,0 -0.688,-0.688 c -0.008,-0.008 -0.024,-0.024 -0.031,-0.031 l 0,-0.063 0,-0.063 -0.063,0 -0.063,0 0,-0.125 -0.125,0 -0.719,-0.719 -0.031,-0.031 0,-0.063 0,-0.063 -0.063,0 -0.063,0 0,-0.125 -0.125,0 -0.719,-0.719 -0.031,-0.031 0,-0.063 0,-0.063 -0.063,0 -0.063,0 0,-0.125 -0.125,0 -0.719,-0.719 -0.031,-0.031 0,-0.063 0,-0.063 -0.063,0 -0.063,0 0,-0.125 -0.125,0 -0.719,-0.719 -0.031,-0.031 0,-0.031 0,-0.094 -0.031,0 -0.094,0 0,-0.125 -0.125,0 -0.719,-0.719 -0.031,-0.031 0,-0.031 0,-0.094 -0.031,0 -0.094,0 0,-0.125 -0.125,0 -0.688,-0.688 c -0.008,-0.008 -0.024,-0.024 -0.031,-0.031 l 0,-0.063 0,-0.063 -0.063,0 -0.063,0 0,-0.125 -0.125,0 -0.719,-0.719 c -0.008,-0.008 -0.024,-0.024 -0.031,-0.031 l 0,-0.063 0,-0.063 -0.063,0 -0.063,0 0,-0.125 -0.125,0 -0.719,-0.719 -0.031,-0.031 0,-0.063 0,-0.063 -0.063,0 -0.063,0 0,-0.125 -0.125,0 -0.719,-0.719 -0.031,-0.031 0,-0.031 0,-0.094 -0.031,0 -0.063,0 -0.031,0 0,-0.125 -0.125,0 -0.75,-0.75 0,-0.031 0,-0.094 -0.031,0 -0.063,0 -0.031,0 0,-0.125 -0.125,0 -0.75,-0.75 0,-0.031 0,-0.094 -0.031,0 -0.063,0 -0.031,0 0,-0.125 -0.125,0 -0.719,-0.719 0,-0.031 0,-0.031 0,-0.063 -0.063,0 -0.063,0 0,-0.125 -0.125,0 -0.719,-0.75 -0.031,0 0,-0.031 0,-0.031 0,-0.063 -0.063,0 -0.063,0 0,-0.125 -0.125,0 -0.75,-0.75 0,-0.031 0,-0.031 0,-0.063 -0.063,0 -0.063,0 0,-0.125 -0.125,0 -0.75,-0.75 0,-0.031 0,-0.094 -0.031,0 -0.063,0 -0.031,0 0,-0.125 -0.125,0 -0.719,-0.75 -0.031,0 0,-0.031 0,-0.094 -0.031,0 -0.063,0 -0.031,0 0,-0.125 -0.125,0 -0.719,-0.75 -0.031,0 0,-0.031 0,-0.094 -0.031,0 -0.063,0 -0.031,0 0,-0.125 -0.125,0 -0.75,-0.75 0,-0.031 0,-0.094 -0.031,0 -0.063,0 0,-0.094 -0.125,0 -0.75,-0.75 0,-0.031 0,-0.031 0,-0.063 -0.063,0 -0.063,0 0,-0.125 -0.125,0 -0.75,-0.75 0,-0.031 0,-0.094 -0.031,0 -0.063,0 -0.031,0 0,-0.125 -0.125,0 -0.719,-0.75 -0.031,0 0,-0.031 0,-0.094 -0.031,0 -0.063,0 -0.031,0 0,-0.125 -0.125,0 -0.719,-0.75 -0.031,0 0,-0.031 0,-0.094 -0.031,0 -0.063,0 -0.031,0 0,-0.125 -0.125,0 -0.719,-0.75 -0.031,0 0,-0.031 0,-0.094 -0.031,0 -0.063,0 -0.031,0 0,-0.125 -0.125,0 -0.719,-0.75 -0.031,0 0,-0.031 0,-0.094 -0.031,0 -0.063,0 -0.031,0 0,-0.125 -0.125,0 -0.688,-0.719 -0.031,0 0,-0.031 0,-0.031 0,-0.063 -0.063,0 -0.063,0 0,-0.125 -0.125,0 -0.719,-0.75 -0.031,0 0,-0.031 0,-0.094 -0.031,0 -0.063,0 -0.031,0 0,-0.125 -0.125,0 -0.719,-0.75 -0.031,0 0,-0.031 0,-0.094 -0.031,0 -0.063,0 -0.031,0 0,-0.125 -0.125,0 -0.75,-0.75 0,-0.031 0,-0.094 -0.031,0 -0.063,0 -0.031,0 0,-0.125 -0.125,0 -0.75,-0.75 0,-0.031 0,-0.094 -0.031,0 -0.063,0 -0.031,0 0,-0.125 -0.125,0 -0.719,-0.75 -0.031,0 0,-0.031 0,-0.094 -0.031,0 -0.063,0 -0.031,0 0,-0.125 -0.125,0 -0.719,-0.719 0,-0.031 0,-0.031 0,-0.063 -0.063,0 -0.063,0 0,-0.125 -0.125,0 -0.75,-0.75 0,-0.031 0,-0.094 -0.031,0 -0.063,0 -0.031,0 0,-0.125 -0.125,0 -0.75,-0.75 0,-0.031 0,-0.094 -0.031,0 -0.063,0 -0.031,0 0,-0.125 -0.125,0 -0.719,-0.75 -0.031,0 0,-0.031 0,-0.094 -0.031,0 -0.063,0 -0.031,0 0,-0.125 -0.125,0 -0.719,-0.75 -0.031,0 0,-0.031 0,-0.094 -0.031,0 -0.063,0 -0.031,0 0,-0.125 -0.125,0 -0.75,-0.75 0,-0.031 0,-0.094 -0.031,0 -0.063,0 -0.031,0 0,-0.125 -0.125,0 -0.719,-0.719 0,-0.031 0,-0.094 -0.031,0 -0.063,0 -0.031,0 0,-0.125 -0.125,0 -0.75,-0.75 0,-0.031 0,-0.094 -0.031,0 -0.063,0 -0.031,0 0,-0.125 -0.125,0 -0.75,-0.75 0,-0.031 0,-0.094 -0.031,0 -0.063,0 -0.031,0 0,-0.125 -0.125,0 -0.75,-0.75 0,-0.031 0,-0.094 -0.031,0 -0.063,0 -0.031,0 0,-0.125 -0.125,0 -0.75,-0.75 0,-0.031 0,-0.094 -0.031,0 -0.063,0 -0.031,0 0,-0.125 -0.125,0 -0.75,-0.75 0,-0.031 0,-0.094 -0.031,0 -0.063,0 -0.031,0 0,-0.125 -0.125,0 -0.719,-0.75 -0.031,0 0,-0.125 -0.094,0 -0.031,0 0,-0.125 -0.125,0 -0.688,-0.719 -0.031,0 0,-0.031 0,-0.094 -0.031,0 -0.063,0 -0.031,0 0,-0.125 -0.125,0 -0.719,-0.75 -0.031,0 0,-0.031 0,-0.094 -0.031,0 -0.063,0 -0.031,0 0,-0.125 -0.125,0 -0.719,-0.75 -0.031,0 0,-0.031 0,-0.094 -0.031,0 -0.063,0 -0.031,0 0,-0.125 -0.125,0 -0.719,-0.75 -0.031,0 0,-0.031 0,-0.094 -0.031,0 -0.063,0 -0.031,0 0,-0.125 -0.125,0 -0.719,-0.75 -0.031,0 0,-0.125 -0.094,0 -0.031,0 0,-0.125 -0.125,0 -0.75,-0.75 0,-0.125 -0.094,0 -0.031,0 0,-0.125 -0.125,0 -0.688,-0.719 -0.031,0 0,-0.031 0,-0.094 -0.031,0 -0.063,0 -0.031,0 0,-0.125 -0.125,0 -0.75,-0.75 0,-0.031 0,-0.094 -0.031,0 -0.063,0 -0.031,0 0,-0.125 -0.125,0 -0.719,-0.75 -0.031,0 0,-0.031 0,-0.094 -0.031,0 -0.063,0 -0.031,0 0,-0.125 -0.125,0 -0.75,-0.75 0,-0.031 0,-0.094 -0.031,0 -0.063,0 -0.031,0 0,-0.125 -0.125,0 -0.75,-0.75 0,-0.125 -0.094,0 -0.031,0 0,-0.125 -0.125,0 -0.75,-0.75 0,-0.125 -0.094,0 -0.031,0 0,-0.125 -0.125,0 -0.688,-0.719 -0.031,0 0,-0.031 0,-0.094 -0.031,0 -0.063,0 -0.031,0 0,-0.125 -0.125,0 -0.75,-0.75 0,-0.031 0,-0.094 -0.031,0 -0.063,0 -0.031,0 0,-0.125 -0.125,0 -0.719,-0.75 -0.031,0 0,-0.031 0,-0.094 -0.031,0 -0.063,0 -0.031,0 0,-0.125 -0.125,0 -0.719,-0.719 -0.031,-0.031 0,-0.125 -0.125,0 0,-0.125 -0.125,0 -0.75,-0.75 0,-0.125 -0.125,0 0,-0.125 -0.125,0 -0.75,-0.75 0,-0.125 -0.125,0 0,-0.125 -0.125,0 -0.75,-0.75 0,-0.125 -0.094,0 0,-0.094 -0.125,0 -0.75,-0.75 0,-0.031 0,-0.094 -0.031,0 -0.094,0 0,-0.125 -0.125,0 -0.75,-0.75 0,-0.031 0,-0.094 -0.031,0 -0.094,0 0,-0.125 -0.125,0 -0.75,-0.75 0,-0.125 -0.125,0 0,-0.125 -0.125,0 -0.75,-0.75 0,-0.125 -0.125,0 0,-0.125 -0.125,0 -0.75,-0.75 0,-0.125 -0.125,0 0,-0.125 -0.125,0 -0.75,-0.75 0,-0.125 -0.125,0 0,-0.125 -0.125,0 -0.719,-0.719 0,-0.031 0,-0.094 -0.031,0 -0.094,0 0,-0.125 -0.125,0 -0.75,-0.75 0,-0.031 0,-0.094 -0.031,0 -0.094,0 0,-0.125 -0.125,0 -0.75,-0.75 0,-0.125 -0.125,0 0,-0.125 -0.125,0 -0.156,-0.125 -0.563,-0.594 -0.031,-0.031 0,-0.125 -0.125,0 0,-0.125 -0.125,0 -0.75,-0.75 0,-0.125 -0.125,0 0,-0.125 -0.125,0 -0.75,-0.75 0,-0.125 -0.125,0 0,-0.125 -0.125,0 -0.719,-0.719 0,-0.031 0,-0.094 -0.031,0 -0.094,0 0,-0.125 -0.125,0 -0.75,-0.75 0,-0.125 -0.125,0 0,-0.125 -0.125,0 -0.75,-0.75 0,-0.125 -0.125,0 0,-0.125 -0.125,0 -0.75,-0.75 0,-0.125 -0.125,0 0,-0.125 -0.125,0 -0.75,-0.75 0,-0.125 -0.125,0 0,-0.125 -0.125,0 -0.75,-0.75 0,-0.125 -0.125,0 0,-0.125 -0.125,0 -0.719,-0.719 0,-0.031 0,-0.094 -0.031,0 -0.094,0 0,-0.125 -0.125,0 -0.75,-0.75 0,-0.125 -0.125,0 0,-0.125 -0.125,0 -0.75,-0.75 0,-0.125 -0.125,0 0,-0.125 -0.125,0 -0.75,-0.75 0,-0.125 -0.125,0 0,-0.125 -0.125,0 -0.875,-0.875 0,-0.125 -0.125,0 -0.875,-0.875 0,-0.125 -0.125,0 -0.875,-0.875 0,-0.125 -0.125,0 -0.844,-0.844 0,-0.125 -0.125,0 -0.875,-0.875 0,-0.125 -0.125,0 -0.875,-0.875 0,-0.125 -0.125,0 -0.875,-0.875 0,-0.125 -0.125,0 -0.875,-0.875 0,-0.125 -0.125,0 -0.875,-0.875 0,-0.125 -0.125,0 -0.844,-0.844 0,-0.125 -0.125,0 -0.875,-0.875 0,-0.125 -0.125,0 -0.875,-0.875 0,-0.125 -0.125,0 -0.875,-0.875 0,-0.125 -0.125,0 -0.875,-0.875 0,-0.125 -0.125,0 -0.875,-0.875 0,-0.125 -0.125,0 -0.844,-0.844 0,-0.125 -0.125,0 -0.875,-0.875 0,-0.125 -0.125,0 -0.875,-0.875 0,-0.125 -0.125,0 -0.875,-0.875 0,-0.125 -0.125,0 -0.875,-0.875 0,-0.125 -0.125,0 -0.875,-0.875 0,-0.125 -0.125,0 -0.844,-0.844 0,-0.125 -0.125,0 -0.875,-0.875 0,-0.125 -0.125,0 -0.875,-0.875 0,-0.125 -0.125,0 -0.875,-0.875 0,-0.125 -0.125,0 -13.656,0 -65.875,0 -34.469,0" />
  <path
     d="m 181.82,148.37 c -7.43,0 -13.469,6 -13.469,13.438 l 0,188.38 c 0,7.437 6.04,13.438 13.469,13.438 l 1.531,0 0,-186.81 c 0,-7.437 6.04,-13.438 13.469,-13.438 l 34.469,0 65.875,0 13.469,0 -14.688,-14.875 0,-0.125 -0.125,0 -13.656,0 -65.875,0 -34.469,0"
     id="path699"
     style="fill:#ffffff" />
  <path
     id="path703"
     d="m 320.83405,221.76253 0,-48.39157 47.81849,48.39157 z"
     style="fill:#ffffff" />
  <path
     id="path705"
     d="m 368.65254,375.1761 c 0,7.43656 -6.01734,13.4539 -13.4539,13.4539 l -148.39406,0 c -7.42982,0 -13.4539,-6.01734 -13.4539,-13.4539 l 0,-188.35798 c 0,-7.43656 6.02408,-13.4539 13.4539,-13.4539 l 100.3396,0 0,56.84113 c 0,3.71828 3.00867,6.72695 6.72695,6.72695 l 54.77972,0 0,138.24717 m -155.06876,-20.26007 67.4212,0 0,-15.16977 -67.4212,0 0,15.16977 m 0,-42.13825 67.4212,0 0,-15.16977 -67.4212,0 0,15.16977 m 67.4212,-99.44627 -67.4212,0 0,15.16977 67.4212,0 0,-15.16977 m 64.05014,42.13825 -131.47134,0 0,15.16977 131.47134,0 0,-15.16977 m 0,42.13825 -42.13825,0 0,57.30802 42.13825,0 0,-57.30802"
     style="fill:#ffffff" />
  <path
     d="m 156.82,123.37 c -7.43,0 -13.469,6 -13.469,13.438 l 0,188.38 c 0,7.437 6.04,13.438 13.469,13.438 l 1.531,0 0,-186.81 c 0,-7.437 6.04,-13.438 13.469,-13.438 l 34.469,0 65.875,0 13.469,0 -14.688,-14.875 0,-0.125 -0.125,0 -13.656,0 -65.875,0 -34.469,0"
     id="path707"
     style="fill:#ffffff" />
</svg>
