<?xml version="1.0" encoding="UTF-8" standalone="no"?>
<svg
   xmlns:dc="http://purl.org/dc/elements/1.1/"
   xmlns:cc="http://creativecommons.org/ns#"
   xmlns:rdf="http://www.w3.org/1999/02/22-rdf-syntax-ns#"
   xmlns:svg="http://www.w3.org/2000/svg"
   xmlns="http://www.w3.org/2000/svg"
   id="svg2"
   viewBox="0 0 512 512"
   height="100%"
   width="100%"
   version="1.1">
  <metadata
     id="metadata471">
    <rdf:RDF>
      <cc:Work
         rdf:about="">
        <dc:format>image/svg+xml</dc:format>
        <dc:type
           rdf:resource="http://purl.org/dc/dcmitype/StillImage" />
      </cc:Work>
    </rdf:RDF>
  </metadata>
  <defs
     id="defs4">
    <linearGradient
       gradientTransform="translate(0.0012,-0.0195)"
       gradientUnits="userSpaceOnUse"
       id="0-1"
       y2="453.26001"
       x2="0"
       y1="121.76">
      <stop
         offset="0"
         style="stop-color:#6a6a6a;stop-opacity:1"
         id="stop7-3" />
      <stop
         offset="0.47"
         style="stop-color:#000000;stop-opacity:1"
         id="stop9-0" />
      <stop
         offset="0.49399999"
         style="stop-color:#ffffff;stop-opacity:1"
         id="stop11-2" />
      <stop
         offset="0.90100002"
         style="stop-color:#ffffff;stop-opacity:1"
         id="stop13-6" />
      <stop
         offset="0.95499998"
         style="stop-color:#000000;stop-opacity:1"
         id="stop15-3" />
      <stop
         offset="1"
         style="stop-color:#000000;stop-opacity:1"
         id="stop17-1" />
    </linearGradient>
  </defs>
  <text
     x="729.64124"
     y="233.7205"
     id="text21"
     style="font-size:129.22999573px;line-height:125%;font-family:'Gentium Book Basic';letter-spacing:0;word-spacing:0">
    <tspan
       x="729.64124"
       y="233.7205"
       id="tspan23" />
  </text>
  <text
     x="378.90836"
     y="588.72876"
     transform="scale(4.0128205,0.24920128)"
     id="text25"
     style="font-size:46.95399857px;font-family:Arial;text-anchor:middle" />
  <text
     x="1310.9113"
     y="153.7205"
     id="text27"
     style="font-size:129.22999573px;line-height:125%;font-family:'Gentium Book Basic';letter-spacing:0;word-spacing:0">
    <tspan
       x="1310.9113"
       y="153.7205"
       id="tspan29" />
  </text>
  <text
     x="523.75763"
     y="267.69037"
     transform="scale(4.0128205,0.24920128)"
     id="text31"
     style="font-size:46.95399857px;font-family:Arial;text-anchor:middle" />
  <text
     x="239.33121"
     y="-27.539501"
     id="text33"
     style="font-size:129.22999573px;line-height:125%;font-family:'Gentium Book Basic';letter-spacing:0;word-spacing:0">
    <tspan
       x="239.33121"
       y="-27.539501"
       id="tspan35" />
  </text>
  <text
     x="256.71899"
     y="-459.65588"
     transform="scale(4.0128205,0.24920128)"
     id="text37"
     style="font-size:46.95399857px;font-family:Arial;text-anchor:middle" />
  <text
     x="1337.3812"
     y="-244.00951"
     id="text39"
     style="font-size:129.22999573px;line-height:125%;font-family:'Gentium Book Basic';letter-spacing:0;word-spacing:0">
    <tspan
       x="1337.3812"
       y="-244.00951"
       id="tspan41" />
  </text>
  <text
     x="530.35754"
     y="-1328.3314"
     transform="scale(4.0128205,0.24920128)"
     id="text43"
     style="font-size:46.95399857px;font-family:Arial;text-anchor:middle" />
  <text
     x="1918.6512"
     y="-324.0195"
     id="text45"
     style="font-size:129.22999573px;line-height:125%;font-family:'Gentium Book Basic';letter-spacing:0;word-spacing:0">
    <tspan
       x="1918.6512"
       y="-324.0195"
       id="tspan47" />
  </text>
  <text
     x="675.20685"
     y="-1649.3599"
     transform="scale(4.0128205,0.24920128)"
     id="text49"
     style="font-size:46.95399857px;font-family:Arial;text-anchor:middle" />
  <text
     x="1529.5312"
     y="-796.41949"
     id="text51"
     style="font-size:129.22999573px;line-height:125%;font-family:'Gentium Book Basic';letter-spacing:0;word-spacing:0">
    <tspan
       x="1529.5312"
       y="-796.41949"
       id="tspan53" />
  </text>
  <text
     x="578.2373"
     y="-3545.01"
     transform="scale(4.0128205,0.24920128)"
     id="text55"
     style="font-size:46.95399857px;font-family:Arial;text-anchor:middle" />
  <text
     x="2110.8013"
     y="-876.41949"
     id="text57"
     style="font-size:129.22999573px;line-height:125%;font-family:'Gentium Book Basic';letter-spacing:0;word-spacing:0">
    <tspan
       x="2110.8013"
       y="-876.41949"
       id="tspan59" />
  </text>
  <text
     x="723.08661"
     y="-3866.0483"
     transform="scale(4.0128205,0.24920128)"
     id="text61"
     style="font-size:46.95399857px;font-family:Arial;text-anchor:middle" />
  <text
     style="font-size:208.33000183px;line-height:125%;font-family:'Gentium Book Basic';letter-spacing:0;word-spacing:0"
     id="text65"
     y="538.30054"
     x="277.99118">
    <tspan
       id="tspan67"
       y="538.30054"
       x="277.99118" />
  </text>
  <text
     style="font-size:129.22999573px;line-height:125%;font-family:'Gentium Book Basic';letter-spacing:0;word-spacing:0"
     id="text69"
     y="-509.15952"
     x="3833.7812">
    <tspan
       id="tspan71"
       y="-509.15952"
       x="3833.7812" />
  </text>
  <text
     x="1152.4543"
     y="-2392.2959"
     transform="scale(4.0128205,0.24920128)"
     id="text73"
     style="font-size:46.95399857px;font-family:Arial;text-anchor:middle" />
  <text
     x="4415.0508"
     y="-589.15948"
     id="text75"
     style="font-size:129.22999573px;line-height:125%;font-family:'Gentium Book Basic';letter-spacing:0;word-spacing:0">
    <tspan
       x="4415.0508"
       y="-589.15948"
       id="tspan77" />
  </text>
  <text
     x="1297.3037"
     y="-2713.3245"
     transform="scale(4.0128205,0.24920128)"
     id="text79"
     style="font-size:46.95399857px;font-family:Arial;text-anchor:middle" />
  <text
     x="3343.4712"
     y="-770.40948"
     id="text81"
     style="font-size:129.22999573px;line-height:125%;font-family:'Gentium Book Basic';letter-spacing:0;word-spacing:0">
    <tspan
       x="3343.4712"
       y="-770.40948"
       id="tspan83" />
  </text>
  <text
     x="1030.265"
     y="-3440.6807"
     transform="scale(4.0128205,0.24920128)"
     id="text85"
     style="font-size:46.95399857px;font-family:Arial;text-anchor:middle" />
  <text
     x="4441.521"
     y="-986.88947"
     id="text87"
     style="font-size:129.22999573px;line-height:125%;font-family:'Gentium Book Basic';letter-spacing:0;word-spacing:0">
    <tspan
       x="4441.521"
       y="-986.88947"
       id="tspan89" />
  </text>
  <text
     x="1303.9037"
     y="-4309.3462"
     transform="scale(4.0128205,0.24920128)"
     id="text91"
     style="font-size:46.95399857px;font-family:Arial;text-anchor:middle" />
  <text
     x="5022.791"
     y="-1066.8895"
     id="text93"
     style="font-size:129.22999573px;line-height:125%;font-family:'Gentium Book Basic';letter-spacing:0;word-spacing:0">
    <tspan
       x="5022.791"
       y="-1066.8895"
       id="tspan95" />
  </text>
  <text
     x="1448.7529"
     y="-4630.3745"
     transform="scale(4.0128205,0.24920128)"
     id="text97"
     style="font-size:46.95399857px;font-family:Arial;text-anchor:middle" />
  <text
     x="4633.6709"
     y="-1539.2896"
     id="text99"
     style="font-size:129.22999573px;line-height:125%;font-family:'Gentium Book Basic';letter-spacing:0;word-spacing:0">
    <tspan
       x="4633.6709"
       y="-1539.2896"
       id="tspan101" />
  </text>
  <text
     x="1351.7834"
     y="-6526.0352"
     transform="scale(4.0128205,0.24920128)"
     id="text103"
     style="font-size:46.95399857px;font-family:Arial;text-anchor:middle" />
  <text
     x="5214.9312"
     y="-1619.2896"
     id="text105"
     style="font-size:129.22999573px;line-height:125%;font-family:'Gentium Book Basic';letter-spacing:0;word-spacing:0">
    <tspan
       x="5214.9312"
       y="-1619.2896"
       id="tspan107" />
  </text>
  <text
     x="1496.6327"
     y="-6847.063"
     transform="scale(4.0128205,0.24920128)"
     id="text109"
     style="font-size:46.95399857px;font-family:Arial;text-anchor:middle" />
  <text
     x="3382.1311"
     y="-204.5795"
     id="text111"
     style="font-size:208.33000183px;line-height:125%;font-family:'Gentium Book Basic';letter-spacing:0;word-spacing:0">
    <tspan
       x="3382.1311"
       y="-204.5795"
       id="tspan113" />
  </text>
  <path
     style="fill:#cccccc;fill-rule:evenodd"
     id="path117"
     d="m 108.6312,57.3705 c -7.963,0 -15.228,2.293 -20.693,6.22 -4.545,3.266 -7.751,7.872 -8.752,13.13 l -11.909,0 c -16.447,0 -29.883,13.03 -29.883,29.2 l 0,66.736 c 0,16.17 13.436,29.19 29.883,29.19 l 377.47,0 c 16.447,0 29.883,-13.03 29.883,-29.19 l 0,-66.736 c 0,-16.17 -13.436,-29.2 -29.883,-29.2 l -262.91,0 c -1,-5.256 -4.208,-9.862 -8.753,-13.13 -5.465,-3.927 -12.73,-6.22 -20.693,-6.22 l -43.761,0" />
  <path
     style="fill:#6997c7;fill-rule:evenodd"
     id="path119"
     d="m 37.3612,118.4605 c -19.928,0 -38.06,15.818 -36.23,35.853 l 24.26,265.41 c 1.733,18.966 16.271,34.947 36.2,34.947 l 383.41,0 c 19.933,0 34.1,-16.05 36.2,-34.853 l 29.632,-265.41 c 1.123,-10.05 -3.137,-19.263 -9.971,-25.663 -6.833,-6.399 -16.258,-10.284 -26.22,-10.284 l -437.27,0" />
  <path
     d="m 37.3612,118.4505 c -19.928,0 -38.08,15.84 -36.25,35.875 l 11.781,128.78 12.469,136.63 c 1.733,18.966 16.29,34.938 36.22,34.938 l 383.41,0 c 19.933,0 34.09,-16.04 36.19,-34.844 l 15.281,-136.72 14.375,-128.69 c 1.123,-10.05 -3.135,-19.287 -9.969,-25.688 -6.833,-6.399 -16.257,-10.281 -26.22,-10.281 l -437.28,0"
     id="path121"
     style="opacity:0.05;fill:url(#0-1)" />
  <path
     style="opacity:0;fill:#ffffff;fill-rule:evenodd"
     id="path125"
     d="m 37.3512,118.4505 c -6.165,0 -12.154,1.503 -17.438,4.188 l 332.06,332.03 28.25,0 -336.19,-336.22 -6.688,0 m 34.969,0 336.22,336.22 28.28,0 -336.22,-336.22 -28.28,0 m 56.59,0 332.25,332.28 c 5.997,-3.165 10.884,-8.06 14.375,-13.938 l -318.37,-318.34 -28.25,0 m 56.56,0 296.28,296.31 2.844,-25.469 -270.87,-270.84 -28.25,0 m 56.56,0 245.41,245.44 2.844,-25.469 -220,-219.97 -28.25,0 m 56.56,0 194.53,194.53 2.844,-25.438 -169.12,-169.09 -28.25,0 m 56.56,0 143.63,143.63 2.844,-25.438 -118.19,-118.19 -28.28,0 m 56.56,0 92.75,92.75 2.844,-25.438 -67.28,-67.31 -28.313,0 m 56.59,0 41.844,41.844 0.656,-5.875 c 1.123,-10.05 -3.134,-19.288 -9.969,-25.688 -6.833,-6.399 -16.252,-10.281 -26.22,-10.281 l -6.313,0 m -463.06,17.781 c -3.108,5.286 -4.73,11.464 -4.125,18.09 l 0.625,6.719 293.66,293.63 28.25,0 -318.41,-318.44 m -0.656,55.906 2.844,31.13 231.41,231.41 28.25,0 -262.5,-262.53 m 5.688,62.25 2.844,31.13 169.16,169.16 28.25,0 -200.25,-200.28 m 5.688,62.28 2.844,31.13 106.88,106.88 28.28,0 -138,-138 m 5.688,62.25 2.844,31.13 44.625,44.625 28.28,0 -75.75,-75.75" />
  <path
     style="opacity:0.76399997;fill:#ffffff;fill-rule:evenodd"
     id="path127"
     d="m 108.5512,57.2905 c -7.963,0 -15.11,2.403 -20.572,6.33 -4.545,3.266 -7.702,7.931 -8.703,13.187 l -12.13,0 c -17.677,0 -29.802,12.771 -29.802,30.661 l 0,3.956 c 0,-16.17 13.355,-29.27 29.802,-29.27 l 14.286,0 c 1,-5.256 2,-9.657 6.549,-12.923 5.465,-3.927 12.609,-6.33 20.572,-6.33 l 43.78,0 c 7.963,0 15.371,2.403 20.835,6.33 4.545,3.266 5.766,7.668 6.769,12.923 l 264.88,0 c 16.447,0 29.802,11.455 29.802,27.625 l 0,-3.956 c 0,-16.17 -13.355,-29.01 -29.802,-29.01 l -262.95,0 c -1,-5.256 -4.159,-9.921 -8.703,-13.187 -5.465,-3.927 -12.872,-6.33 -20.835,-6.33 z" />
  <path
     style="opacity:0.4;fill:#ffffff;fill-rule:evenodd"
     id="path129"
     d="m 37.3512,118.4505 c -19.928,0 -38.05,15.84 -36.22,35.875 l 0.406,4.375 c 3,-15.936 18.732,-27.563 35.813,-27.563 l 437.28,0 c 9.966,0 19.386,3.882 26.22,10.281 4.736,4.435 8.234,10.208 9.563,16.688 l 0.406,-3.688 c 1.123,-10.05 -3.134,-19.288 -9.969,-25.688 -6.833,-6.399 -16.252,-10.281 -26.22,-10.281 l -437.28,0" />
  <text
     x="90.121201"
     y="140.6405"
     id="text131"
     style="font-size:129.22999573px;line-height:125%;font-family:'Gentium Book Basic';letter-spacing:0;word-spacing:0">
    <tspan
       x="90.121201"
       y="140.6405"
       id="tspan133" />
  </text>
  <text
     x="219.53917"
     y="215.21065"
     transform="scale(4.0128205,0.24920128)"
     id="text135"
     style="font-size:46.95399857px;font-family:Arial;text-anchor:middle" />
  <text
     x="671.39124"
     y="60.642498"
     id="text137"
     style="font-size:129.22999573px;line-height:125%;font-family:'Gentium Book Basic';letter-spacing:0;word-spacing:0">
    <tspan
       x="671.39124"
       y="60.642498"
       id="tspan139" />
  </text>
  <text
     x="364.38846"
     y="-105.8177"
     transform="scale(4.0128205,0.24920128)"
     id="text141"
     style="font-size:46.95399857px;font-family:Arial;text-anchor:middle" />
  <text
     x="-400.18881"
     y="-120.6195"
     id="text143"
     style="font-size:129.22999573px;line-height:125%;font-family:'Gentium Book Basic';letter-spacing:0;word-spacing:0">
    <tspan
       x="-400.18881"
       y="-120.6195"
       id="tspan145" />
  </text>
  <text
     x="97.3498"
     y="-833.164"
     transform="scale(4.0128205,0.24920128)"
     id="text147"
     style="font-size:46.95399857px;font-family:Arial;text-anchor:middle" />
  <text
     x="697.86121"
     y="-337.08951"
     id="text149"
     style="font-size:129.22999573px;line-height:125%;font-family:'Gentium Book Basic';letter-spacing:0;word-spacing:0">
    <tspan
       x="697.86121"
       y="-337.08951"
       id="tspan151" />
  </text>
  <text
     x="370.9884"
     y="-1701.8296"
     transform="scale(4.0128205,0.24920128)"
     id="text153"
     style="font-size:46.95399857px;font-family:Arial;text-anchor:middle" />
  <text
     x="1279.1312"
     y="-417.09949"
     id="text155"
     style="font-size:129.22999573px;line-height:125%;font-family:'Gentium Book Basic';letter-spacing:0;word-spacing:0">
    <tspan
       x="1279.1312"
       y="-417.09949"
       id="tspan157" />
  </text>
  <text
     x="515.83771"
     y="-2022.8679"
     transform="scale(4.0128205,0.24920128)"
     id="text159"
     style="font-size:46.95399857px;font-family:Arial;text-anchor:middle" />
  <text
     x="890.01123"
     y="-889.49945"
     id="text161"
     style="font-size:129.22999573px;line-height:125%;font-family:'Gentium Book Basic';letter-spacing:0;word-spacing:0">
    <tspan
       x="890.01123"
       y="-889.49945"
       id="tspan163" />
  </text>
  <text
     x="418.86816"
     y="-3918.5081"
     transform="scale(4.0128205,0.24920128)"
     id="text165"
     style="font-size:46.95399857px;font-family:Arial;text-anchor:middle" />
  <text
     x="1471.2712"
     y="-969.49945"
     id="text167"
     style="font-size:129.22999573px;line-height:125%;font-family:'Gentium Book Basic';letter-spacing:0;word-spacing:0">
    <tspan
       x="1471.2712"
       y="-969.49945"
       id="tspan169" />
  </text>
  <text
     x="563.71741"
     y="-4239.5366"
     transform="scale(4.0128205,0.24920128)"
     id="text171"
     style="font-size:46.95399857px;font-family:Arial;text-anchor:middle" />
  <text
     id="text175"
     y="445.22049"
     x="-361.52881"
     style="font-size:medium;line-height:125%;font-family:'Gentium Book Basic';letter-spacing:0;word-spacing:0">
    <tspan
       id="tspan177"
       y="445.22049"
       x="-361.52881" />
  </text>
  <text
     id="text179"
     y="426.2605"
     x="-2585.3589"
     style="font-size:medium;line-height:125%;font-family:'Gentium Book Basic';letter-spacing:0;word-spacing:0">
    <tspan
       id="tspan181"
       y="426.2605"
       x="-2585.3589" />
  </text>
  <text
     x="-326.548"
     y="1147.6158"
     transform="scale(4.0128205,0.24920128)"
     id="text183"
     style="font-size:75.69999695px;font-family:Arial;text-anchor:middle" />
  <text
     x="-1879.0188"
     y="270.63049"
     id="text185"
     style="font-size:208.33000183px;line-height:125%;font-family:'Gentium Book Basic';letter-spacing:0;word-spacing:0">
    <tspan
       x="-1879.0188"
       y="270.63049"
       id="tspan187" />
  </text>
  <text
     x="-150.52893"
     y="523.08905"
     transform="scale(4.0128205,0.24920128)"
     id="text189"
     style="font-size:75.69999695px;font-family:Arial;text-anchor:middle" />
  <text
     x="-1845.6488"
     y="262.5105"
     id="text191"
     style="font-size:208.33000183px;line-height:125%;font-family:'Gentium Book Basic';letter-spacing:0;word-spacing:0">
    <tspan
       x="-1845.6488"
       y="262.5105"
       id="tspan193" />
  </text>
  <text
     x="-142.20898"
     y="490.48926"
     transform="scale(4.0128205,0.24920128)"
     id="text195"
     style="font-size:75.69999695px;font-family:Arial;text-anchor:middle" />
  <text
     x="-695.22876"
     y="108.1005"
     id="text197"
     style="font-size:129.22999573px;line-height:125%;font-family:'Gentium Book Basic';letter-spacing:0;word-spacing:0">
    <tspan
       x="-695.22876"
       y="108.1005"
       id="tspan199" />
  </text>
  <text
     x="23.831177"
     y="84.631317"
     transform="scale(4.0128205,0.24920128)"
     id="text201"
     style="font-size:46.95399857px;font-family:Arial;text-anchor:middle" />
  <text
     x="-113.9688"
     y="28.1005"
     id="text203"
     style="font-size:129.22999573px;line-height:125%;font-family:'Gentium Book Basic';letter-spacing:0;word-spacing:0">
    <tspan
       x="-113.9688"
       y="28.1005"
       id="tspan205" />
  </text>
  <text
     x="168.67943"
     y="-236.40704"
     transform="scale(4.0128205,0.24920128)"
     id="text207"
     style="font-size:46.95399857px;font-family:Arial;text-anchor:middle" />
  <text
     x="-1185.5488"
     y="-153.1595"
     id="text209"
     style="font-size:129.22999573px;line-height:125%;font-family:'Gentium Book Basic';letter-spacing:0;word-spacing:0">
    <tspan
       x="-1185.5488"
       y="-153.1595"
       id="tspan211" />
  </text>
  <text
     x="-98.3592"
     y="-963.73328"
     transform="scale(4.0128205,0.24920128)"
     id="text213"
     style="font-size:46.95399857px;font-family:Arial;text-anchor:middle" />
  <text
     x="-87.498802"
     y="-369.62949"
     id="text215"
     style="font-size:129.22999573px;line-height:125%;font-family:'Gentium Book Basic';letter-spacing:0;word-spacing:0">
    <tspan
       x="-87.498802"
       y="-369.62949"
       id="tspan217" />
  </text>
  <text
     x="175.2794"
     y="-1832.4088"
     transform="scale(4.0128205,0.24920128)"
     id="text219"
     style="font-size:46.95399857px;font-family:Arial;text-anchor:middle" />
  <text
     x="493.77118"
     y="-449.62949"
     id="text221"
     style="font-size:129.22999573px;line-height:125%;font-family:'Gentium Book Basic';letter-spacing:0;word-spacing:0">
    <tspan
       x="493.77118"
       y="-449.62949"
       id="tspan223" />
  </text>
  <text
     x="320.11865"
     y="-2153.4373"
     transform="scale(4.0128205,0.24920128)"
     id="text225"
     style="font-size:46.95399857px;font-family:Arial;text-anchor:middle" />
  <text
     x="104.6512"
     y="-922.02948"
     id="text227"
     style="font-size:129.22999573px;line-height:125%;font-family:'Gentium Book Basic';letter-spacing:0;word-spacing:0">
    <tspan
       x="104.6512"
       y="-922.02948"
       id="tspan229" />
  </text>
  <text
     x="223.15916"
     y="-4049.0676"
     transform="scale(4.0128205,0.24920128)"
     id="text231"
     style="font-size:46.95399857px;font-family:Arial;text-anchor:middle" />
  <text
     x="685.91119"
     y="-1002.0395"
     id="text233"
     style="font-size:129.22999573px;line-height:125%;font-family:'Gentium Book Basic';letter-spacing:0;word-spacing:0">
    <tspan
       x="685.91119"
       y="-1002.0395"
       id="tspan235" />
  </text>
  <text
     x="367.99841"
     y="-4370.0957"
     transform="scale(4.0128205,0.24920128)"
     id="text237"
     style="font-size:46.95399857px;font-family:Arial;text-anchor:middle" />
  <text
     style="font-size:208.33000183px;line-height:125%;font-family:'Gentium Book Basic';letter-spacing:0;word-spacing:0"
     id="text241"
     y="412.68051"
     x="-1146.8888">
    <tspan
       id="tspan243"
       y="412.68051"
       x="-1146.8888" />
  </text>
  <text
     style="font-size:129.22999573px;line-height:125%;font-family:'Gentium Book Basic';letter-spacing:0;word-spacing:0"
     id="text245"
     y="-630.90948"
     x="-745.67877">
    <tspan
       id="tspan247"
       y="-630.90948"
       x="-745.67877" />
  </text>
  <text
     x="11.261241"
     y="-2880.8535"
     transform="scale(4.0128205,0.24920128)"
     id="text249"
     style="font-size:46.95399857px;font-family:Arial;text-anchor:middle" />
  <text
     x="-164.4088"
     y="-710.90948"
     id="text251"
     style="font-size:129.22999573px;line-height:125%;font-family:'Gentium Book Basic';letter-spacing:0;word-spacing:0">
    <tspan
       x="-164.4088"
       y="-710.90948"
       id="tspan253" />
  </text>
  <text
     x="156.1095"
     y="-3201.8818"
     transform="scale(4.0128205,0.24920128)"
     id="text255"
     style="font-size:46.95399857px;font-family:Arial;text-anchor:middle" />
  <text
     x="-1235.9888"
     y="-892.16949"
     id="text257"
     style="font-size:129.22999573px;line-height:125%;font-family:'Gentium Book Basic';letter-spacing:0;word-spacing:0">
    <tspan
       x="-1235.9888"
       y="-892.16949"
       id="tspan259" />
  </text>
  <text
     x="-110.92913"
     y="-3929.238"
     transform="scale(4.0128205,0.24920128)"
     id="text261"
     style="font-size:46.95399857px;font-family:Arial;text-anchor:middle" />
  <text
     x="-137.9388"
     y="-1108.6395"
     id="text263"
     style="font-size:129.22999573px;line-height:125%;font-family:'Gentium Book Basic';letter-spacing:0;word-spacing:0">
    <tspan
       x="-137.9388"
       y="-1108.6395"
       id="tspan265" />
  </text>
  <text
     x="162.70947"
     y="-4797.8838"
     transform="scale(4.0128205,0.24920128)"
     id="text267"
     style="font-size:46.95399857px;font-family:Arial;text-anchor:middle" />
  <text
     x="443.3212"
     y="-1188.6495"
     id="text269"
     style="font-size:129.22999573px;line-height:125%;font-family:'Gentium Book Basic';letter-spacing:0;word-spacing:0">
    <tspan
       x="443.3212"
       y="-1188.6495"
       id="tspan271" />
  </text>
  <text
     x="307.54871"
     y="-5118.9224"
     transform="scale(4.0128205,0.24920128)"
     id="text273"
     style="font-size:46.95399857px;font-family:Arial;text-anchor:middle" />
  <text
     x="54.201202"
     y="-1661.0496"
     id="text275"
     style="font-size:129.22999573px;line-height:125%;font-family:'Gentium Book Basic';letter-spacing:0;word-spacing:0">
    <tspan
       x="54.201202"
       y="-1661.0496"
       id="tspan277" />
  </text>
  <text
     x="210.58922"
     y="-7014.5522"
     transform="scale(4.0128205,0.24920128)"
     id="text279"
     style="font-size:46.95399857px;font-family:Arial;text-anchor:middle" />
  <text
     x="635.47119"
     y="-1741.0496"
     id="text281"
     style="font-size:129.22999573px;line-height:125%;font-family:'Gentium Book Basic';letter-spacing:0;word-spacing:0">
    <tspan
       x="635.47119"
       y="-1741.0496"
       id="tspan283" />
  </text>
  <text
     x="355.42847"
     y="-7335.5806"
     transform="scale(4.0128205,0.24920128)"
     id="text285"
     style="font-size:46.95399857px;font-family:Arial;text-anchor:middle" />
  <text
     style="font-size:208.33000183px;line-height:125%;font-family:'Gentium Book Basic';letter-spacing:0;word-spacing:0"
     id="text289"
     y="-326.3295"
     x="-1197.3387">
    <tspan
       id="tspan291"
       y="-326.3295"
       x="-1197.3387" />
  </text>
  <text
     style="font-size:129.22999573px;line-height:125%;font-family:'Gentium Book Basic';letter-spacing:0;word-spacing:0"
     id="text293"
     y="-1373.7896"
     x="2358.4612">
    <tspan
       id="tspan295"
       y="-1373.7896"
       x="2358.4612" />
  </text>
  <text
     x="784.79626"
     y="-5861.8481"
     transform="scale(4.0128205,0.24920128)"
     id="text297"
     style="font-size:46.95399857px;font-family:Arial;text-anchor:middle" />
  <text
     x="2939.7212"
     y="-1453.7896"
     id="text299"
     style="font-size:129.22999573px;line-height:125%;font-family:'Gentium Book Basic';letter-spacing:0;word-spacing:0">
    <tspan
       x="2939.7212"
       y="-1453.7896"
       id="tspan301" />
  </text>
  <text
     x="929.64557"
     y="-6182.8862"
     transform="scale(4.0128205,0.24920128)"
     id="text303"
     style="font-size:46.95399857px;font-family:Arial;text-anchor:middle" />
  <text
     x="1868.1412"
     y="-1635.0396"
     id="text305"
     style="font-size:129.22999573px;line-height:125%;font-family:'Gentium Book Basic';letter-spacing:0;word-spacing:0">
    <tspan
       x="1868.1412"
       y="-1635.0396"
       id="tspan307" />
  </text>
  <text
     x="662.60687"
     y="-6910.2129"
     transform="scale(4.0128205,0.24920128)"
     id="text309"
     style="font-size:46.95399857px;font-family:Arial;text-anchor:middle" />
  <text
     x="2966.1912"
     y="-1851.5195"
     id="text311"
     style="font-size:129.22999573px;line-height:125%;font-family:'Gentium Book Basic';letter-spacing:0;word-spacing:0">
    <tspan
       x="2966.1912"
       y="-1851.5195"
       id="tspan313" />
  </text>
  <text
     x="936.24548"
     y="-7778.8784"
     transform="scale(4.0128205,0.24920128)"
     id="text315"
     style="font-size:46.95399857px;font-family:Arial;text-anchor:middle" />
  <text
     x="3547.4612"
     y="-1931.5195"
     id="text317"
     style="font-size:129.22999573px;line-height:125%;font-family:'Gentium Book Basic';letter-spacing:0;word-spacing:0">
    <tspan
       x="3547.4612"
       y="-1931.5195"
       id="tspan319" />
  </text>
  <text
     x="1081.0947"
     y="-8099.9165"
     transform="scale(4.0128205,0.24920128)"
     id="text321"
     style="font-size:46.95399857px;font-family:Arial;text-anchor:middle" />
  <text
     x="3158.3413"
     y="-2403.9194"
     id="text323"
     style="font-size:129.22999573px;line-height:125%;font-family:'Gentium Book Basic';letter-spacing:0;word-spacing:0">
    <tspan
       x="3158.3413"
       y="-2403.9194"
       id="tspan325" />
  </text>
  <text
     x="984.12524"
     y="-9995.5469"
     transform="scale(4.0128205,0.24920128)"
     id="text327"
     style="font-size:46.95399857px;font-family:Arial;text-anchor:middle" />
  <text
     x="3739.6113"
     y="-2483.9194"
     id="text329"
     style="font-size:129.22999573px;line-height:125%;font-family:'Gentium Book Basic';letter-spacing:0;word-spacing:0">
    <tspan
       x="3739.6113"
       y="-2483.9194"
       id="tspan331" />
  </text>
  <text
     x="1128.9745"
     y="-10316.565"
     transform="scale(4.0128205,0.24920128)"
     id="text333"
     style="font-size:46.95399857px;font-family:Arial;text-anchor:middle" />
  <text
     id="text337"
     y="-1069.2095"
     x="1906.8013"
     style="font-size:medium;line-height:125%;font-family:'Gentium Book Basic';letter-spacing:0;word-spacing:0">
    <tspan
       id="tspan339"
       y="-1069.2095"
       x="1906.8013" />
  </text>
  <text
     id="text341"
     y="-315.12949"
     x="-2635.8088"
     style="font-size:medium;line-height:125%;font-family:'Gentium Book Basic';letter-spacing:0;word-spacing:0">
    <tspan
       id="tspan343"
       y="-315.12949"
       x="-2635.8088" />
  </text>
  <text
     x="-339.11795"
     y="-1827.4388"
     transform="scale(4.0128205,0.24920128)"
     id="text345"
     style="font-size:75.69999695px;font-family:Arial;text-anchor:middle" />
  <text
     x="-2635.8088"
     y="-315.12949"
     id="text347"
     style="font-size:208.33000183px;line-height:125%;font-family:'Gentium Book Basic';letter-spacing:0;word-spacing:0">
    <tspan
       x="-2635.8088"
       y="-315.12949"
       id="tspan349" />
  </text>
  <text
     x="-339.11795"
     y="-1827.4388"
     transform="scale(4.0128205,0.24920128)"
     id="text351"
     style="font-size:75.69999695px;font-family:Arial;text-anchor:middle" />
  <text
     x="-2969.3589"
     y="317.78049"
     id="text353"
     style="font-size:208.33000183px;line-height:125%;font-family:'Gentium Book Basic';letter-spacing:0;word-spacing:0">
    <tspan
       x="-2969.3589"
       y="317.78049"
       id="tspan355" />
  </text>
  <text
     x="-422.23752"
     y="712.31812"
     transform="scale(4.0128205,0.24920128)"
     id="text357"
     style="font-size:75.69999695px;font-family:Arial;text-anchor:middle" />
  <text
     x="-2263.0188"
     y="162.1505"
     id="text359"
     style="font-size:208.33000183px;line-height:125%;font-family:'Gentium Book Basic';letter-spacing:0;word-spacing:0">
    <tspan
       x="-2263.0188"
       y="162.1505"
       id="tspan361" />
  </text>
  <text
     x="-246.21844"
     y="87.8013"
     transform="scale(4.0128205,0.24920128)"
     id="text363"
     style="font-size:75.69999695px;font-family:Arial;text-anchor:middle" />
  <path
     style="fill-opacity:0.23500001"
     id="path459"
     d="m 256.0012,161.5905 c -69.04,0 -125,55.964 -125,125 0,33.823 13.459,64.5 35.28,87 0.076,0.08 0.143,0.17 0.219,0.25 0.372,0.382 0.748,0.748 1.125,1.125 0.439,0.449 0.867,0.901 1.313,1.344 0.33,0.335 0.666,0.669 1,1 0.33,0.335 0.666,0.669 1,1 0.33,0.335 0.666,0.669 1,1 0.544,0.552 1.102,1.083 1.656,1.625 0.326,0.334 0.639,0.67 0.969,1 0.048,0.046 0.108,0.079 0.156,0.125 0.293,0.299 0.579,0.61 0.875,0.906 0.011,0.01 0.021,0.021 0.031,0.031 0.037,0.036 0.088,0.058 0.125,0.094 0.386,0.393 0.765,0.799 1.156,1.188 0.33,0.335 0.666,0.669 1,1 0.435,0.441 0.871,0.878 1.313,1.313 0.114,0.115 0.229,0.229 0.344,0.344 0.116,0.114 0.227,0.23 0.344,0.344 0.208,0.211 0.416,0.416 0.625,0.625 0.048,0.046 0.108,0.079 0.156,0.125 0.332,0.338 0.665,0.666 1,1 0.011,0.01 0.021,0.021 0.031,0.031 0.386,0.393 0.765,0.799 1.156,1.188 0.33,0.335 0.666,0.669 1,1 0.33,0.335 0.666,0.669 1,1 0.217,0.22 0.438,0.438 0.656,0.656 0.324,0.331 0.673,0.641 1,0.969 0.326,0.334 0.639,0.67 0.969,1 0.048,0.046 0.108,0.079 0.156,0.125 0.396,0.404 0.786,0.82 1.188,1.219 0.33,0.335 0.666,0.669 1,1 0.33,0.335 0.666,0.669 1,1 0.544,0.552 1.102,1.083 1.656,1.625 0.326,0.334 0.639,0.67 0.969,1 0.048,0.046 0.108,0.079 0.156,0.125 0.33,0.336 0.667,0.668 1,1 0.011,0.01 0.021,0.021 0.031,0.031 0.386,0.393 0.765,0.799 1.156,1.188 0.33,0.335 0.666,0.669 1,1 0.435,0.441 0.871,0.878 1.313,1.313 0.114,0.115 0.229,0.229 0.344,0.344 0.116,0.114 0.227,0.23 0.344,0.344 0.208,0.211 0.416,0.416 0.625,0.625 0.048,0.046 0.108,0.079 0.156,0.125 0.296,0.301 0.576,0.608 0.875,0.906 0.011,0.01 0.021,0.021 0.031,0.031 0.037,0.036 0.088,0.058 0.125,0.094 0.386,0.393 0.765,0.799 1.156,1.188 0.33,0.335 0.666,0.669 1,1 0.435,0.441 0.871,0.878 1.313,1.313 0.114,0.115 0.229,0.229 0.344,0.344 0.324,0.331 0.673,0.641 1,0.969 0.043,0.041 0.082,0.084 0.125,0.125 0.285,0.291 0.556,0.587 0.844,0.875 0.048,0.046 0.108,0.079 0.156,0.125 0.396,0.404 0.786,0.82 1.188,1.219 0.33,0.335 0.666,0.669 1,1 0.33,0.335 0.666,0.669 1,1 0.544,0.552 1.102,1.083 1.656,1.625 0.326,0.334 0.639,0.67 0.969,1 0.048,0.046 0.108,0.079 0.156,0.125 0.396,0.404 0.786,0.82 1.188,1.219 0.33,0.335 0.666,0.669 1,1 0.33,0.335 0.666,0.669 1,1 0.544,0.552 1.102,1.083 1.656,1.625 0.326,0.334 0.639,0.67 0.969,1 0.048,0.046 0.108,0.079 0.156,0.125 0.33,0.336 0.667,0.668 1,1 0.011,0.01 0.021,0.021 0.031,0.031 0.386,0.393 0.765,0.799 1.156,1.188 0.33,0.335 0.666,0.669 1,1 0.435,0.441 0.871,0.878 1.313,1.313 0.114,0.115 0.229,0.229 0.344,0.344 0.116,0.114 0.227,0.23 0.344,0.344 0.208,0.211 0.416,0.416 0.625,0.625 0.048,0.046 0.108,0.079 0.156,0.125 0.296,0.301 0.576,0.608 0.875,0.906 0.011,0.01 0.021,0.021 0.031,0.031 0.037,0.036 0.088,0.058 0.125,0.094 0.386,0.393 0.765,0.799 1.156,1.188 0.33,0.335 0.666,0.669 1,1 0.33,0.335 0.666,0.669 1,1 0.217,0.22 0.438,0.438 0.656,0.656 0.324,0.331 0.673,0.641 1,0.969 0.326,0.334 0.639,0.67 0.969,1 0.048,0.046 0.108,0.079 0.156,0.125 0.396,0.404 0.786,0.82 1.188,1.219 0.33,0.335 0.666,0.669 1,1 0.33,0.335 0.666,0.669 1,1 0.544,0.552 1.102,1.083 1.656,1.625 0.326,0.334 0.639,0.67 0.969,1 0.048,0.046 0.108,0.079 0.156,0.125 0.293,0.299 0.579,0.61 0.875,0.906 0.011,0.01 0.021,0.021 0.031,0.031 0.048,0.046 0.108,0.079 0.156,0.125 0.376,0.383 0.744,0.778 1.125,1.156 0.33,0.335 0.666,0.669 1,1 0.544,0.552 1.102,1.083 1.656,1.625 0.036,0.038 0.058,0.088 0.094,0.125 0.29,0.296 0.582,0.582 0.875,0.875 0.048,0.046 0.108,0.079 0.156,0.125 0.332,0.338 0.665,0.666 1,1 0.011,0.01 0.021,0.021 0.031,0.031 0.386,0.393 0.765,0.799 1.156,1.188 0.33,0.335 0.666,0.669 1,1 0.249,0.252 0.5,0.5 0.75,0.75 l 197.69,0 c 19.933,0 34.09,-16.04 36.19,-34.844 l 8.531,-76.31 c -0.016,-0.025 -0.042,-0.042 -0.063,-0.063 -0.288,-0.288 -0.584,-0.559 -0.875,-0.844 -0.026,-0.027 -0.037,-0.067 -0.063,-0.094 -0.021,-0.021 -0.041,-0.042 -0.063,-0.063 -0.205,-0.214 -0.419,-0.412 -0.625,-0.625 -0.116,-0.114 -0.227,-0.23 -0.344,-0.344 -0.333,-0.333 -0.664,-0.671 -1,-1 -0.333,-0.333 -0.664,-0.671 -1,-1 -0.333,-0.333 -0.664,-0.671 -1,-1 -0.276,-0.275 -0.566,-0.54 -0.844,-0.813 -0.01,-0.011 -0.021,-0.021 -0.031,-0.031 -0.006,-0.006 0.006,-0.025 0,-0.031 -0.021,-0.021 -0.041,-0.042 -0.063,-0.063 -0.02,-0.021 -0.042,-0.041 -0.063,-0.063 -0.286,-0.286 -0.586,-0.561 -0.875,-0.844 -0.01,-0.011 -0.021,-0.021 -0.031,-0.031 -0.037,-0.036 -0.057,-0.089 -0.094,-0.125 -0.33,-0.33 -0.666,-0.643 -1,-0.969 -0.119,-0.122 -0.224,-0.254 -0.344,-0.375 -0.213,-0.206 -0.411,-0.42 -0.625,-0.625 -0.333,-0.333 -0.664,-0.671 -1,-1 -0.333,-0.333 -0.664,-0.671 -1,-1 -0.333,-0.333 -0.664,-0.671 -1,-1 -0.286,-0.286 -0.586,-0.561 -0.875,-0.844 -0.01,-0.011 -0.021,-0.021 -0.031,-0.031 -0.037,-0.036 -0.057,-0.089 -0.094,-0.125 -0.322,-0.337 -0.674,-0.635 -1,-0.969 -0.12,-0.12 -0.224,-0.256 -0.344,-0.375 -0.213,-0.206 -0.411,-0.42 -0.625,-0.625 -0.333,-0.333 -0.664,-0.671 -1,-1 -0.333,-0.333 -0.664,-0.671 -1,-1 -0.333,-0.333 -0.664,-0.671 -1,-1 -0.276,-0.275 -0.566,-0.54 -0.844,-0.813 -0.01,-0.011 -0.021,-0.021 -0.031,-0.031 -0.006,-0.006 0.006,-0.025 0,-0.031 -0.021,-0.021 -0.041,-0.042 -0.063,-0.063 -0.02,-0.021 -0.042,-0.041 -0.063,-0.063 -0.288,-0.288 -0.584,-0.559 -0.875,-0.844 -0.026,-0.027 -0.037,-0.067 -0.063,-0.094 -0.021,-0.021 -0.041,-0.042 -0.063,-0.063 -0.325,-0.325 -0.641,-0.648 -0.969,-0.969 -0.333,-0.333 -0.664,-0.671 -1,-1 -0.333,-0.333 -0.664,-0.671 -1,-1 -0.333,-0.333 -0.664,-0.671 -1,-1 -0.276,-0.275 -0.566,-0.54 -0.844,-0.813 -0.01,-0.011 -0.021,-0.021 -0.031,-0.031 -0.01,-0.01 -0.021,-0.021 -0.031,-0.031 -0.037,-0.036 -0.057,-0.089 -0.094,-0.125 -0.288,-0.288 -0.584,-0.559 -0.875,-0.844 -0.026,-0.027 -0.037,-0.067 -0.063,-0.094 -0.021,-0.021 -0.041,-0.042 -0.063,-0.063 -0.33,-0.33 -0.666,-0.643 -1,-0.969 -0.01,-0.011 -0.021,-0.021 -0.031,-0.031 -0.032,-0.031 -0.062,-0.063 -0.094,-0.094 -0.078,-0.079 -0.141,-0.171 -0.219,-0.25 -0.213,-0.206 -0.411,-0.42 -0.625,-0.625 -0.333,-0.333 -0.664,-0.671 -1,-1 -0.333,-0.333 -0.664,-0.671 -1,-1 -0.333,-0.333 -0.664,-0.671 -1,-1 -0.286,-0.286 -0.586,-0.561 -0.875,-0.844 -0.01,-0.011 -0.021,-0.021 -0.031,-0.031 -0.037,-0.036 -0.057,-0.089 -0.094,-0.125 -0.33,-0.33 -0.666,-0.643 -1,-0.969 -0.119,-0.122 -0.224,-0.254 -0.344,-0.375 -0.213,-0.206 -0.411,-0.42 -0.625,-0.625 -0.333,-0.333 -0.664,-0.671 -1,-1 -0.333,-0.333 -0.664,-0.671 -1,-1 -0.333,-0.333 -0.664,-0.671 -1,-1 -0.286,-0.286 -0.586,-0.561 -0.875,-0.844 -0.01,-0.011 -0.021,-0.021 -0.031,-0.031 -0.037,-0.036 -0.057,-0.089 -0.094,-0.125 -0.33,-0.33 -0.666,-0.643 -1,-0.969 -0.12,-0.12 -0.224,-0.256 -0.344,-0.375 -0.213,-0.206 -0.411,-0.42 -0.625,-0.625 -0.218,-0.218 -0.436,-0.44 -0.656,-0.656 -0.116,-0.112 -0.227,-0.232 -0.344,-0.344 -0.333,-0.333 -0.664,-0.671 -1,-1 -0.333,-0.333 -0.664,-0.671 -1,-1 -0.276,-0.275 -0.566,-0.54 -0.844,-0.813 -0.01,-0.011 -0.021,-0.021 -0.031,-0.031 -0.006,-0.006 0.006,-0.025 0,-0.031 -0.021,-0.021 -0.041,-0.042 -0.063,-0.063 -0.02,-0.021 -0.042,-0.041 -0.063,-0.063 -0.288,-0.288 -0.584,-0.559 -0.875,-0.844 -0.026,-0.027 -0.037,-0.067 -0.063,-0.094 -0.021,-0.021 -0.041,-0.042 -0.063,-0.063 -0.325,-0.325 -0.641,-0.648 -0.969,-0.969 -0.333,-0.333 -0.664,-0.671 -1,-1 -0.333,-0.333 -0.664,-0.671 -1,-1 -0.333,-0.333 -0.664,-0.671 -1,-1 -0.276,-0.275 -0.566,-0.54 -0.844,-0.813 -0.01,-0.011 -0.021,-0.021 -0.031,-0.031 -0.01,-0.01 -0.021,-0.021 -0.031,-0.031 -0.037,-0.036 -0.057,-0.089 -0.094,-0.125 -0.286,-0.286 -0.586,-0.561 -0.875,-0.844 -0.01,-0.011 -0.021,-0.021 -0.031,-0.031 -0.037,-0.036 -0.057,-0.089 -0.094,-0.125 -0.33,-0.33 -0.666,-0.643 -1,-0.969 -0.119,-0.122 -0.224,-0.254 -0.344,-0.375 -0.213,-0.206 -0.411,-0.42 -0.625,-0.625 -0.333,-0.333 -0.664,-0.671 -1,-1 -0.333,-0.333 -0.664,-0.671 -1,-1 -0.333,-0.333 -0.664,-0.671 -1,-1 -0.286,-0.286 -0.586,-0.561 -0.875,-0.844 -0.01,-0.011 -0.021,-0.021 -0.031,-0.031 -0.037,-0.036 -0.057,-0.089 -0.094,-0.125 -0.33,-0.33 -0.666,-0.643 -1,-0.969 -0.119,-0.122 -0.224,-0.254 -0.344,-0.375 -0.213,-0.206 -0.411,-0.42 -0.625,-0.625 -0.333,-0.333 -0.664,-0.671 -1,-1 -0.333,-0.333 -0.664,-0.671 -1,-1 -0.333,-0.333 -0.664,-0.671 -1,-1 -0.286,-0.286 -0.586,-0.561 -0.875,-0.844 -0.01,-0.011 -0.021,-0.021 -0.031,-0.031 -0.037,-0.036 -0.057,-0.089 -0.094,-0.125 -0.288,-0.288 -0.584,-0.559 -0.875,-0.844 -0.041,-0.043 -0.084,-0.082 -0.125,-0.125 -0.12,-0.12 -0.224,-0.256 -0.344,-0.375 -0.213,-0.206 -0.411,-0.42 -0.625,-0.625 -0.333,-0.333 -0.664,-0.671 -1,-1 -0.333,-0.333 -0.664,-0.671 -1,-1 -0.333,-0.333 -0.664,-0.671 -1,-1 -0.276,-0.276 -0.566,-0.54 -0.844,-0.813 -0.01,-0.011 -0.021,-0.021 -0.031,-0.031 -0.006,-0.006 0.006,-0.025 0,-0.031 -0.021,-0.021 -0.041,-0.042 -0.063,-0.063 -0.02,-0.021 -0.042,-0.041 -0.063,-0.063 -0.288,-0.288 -0.584,-0.559 -0.875,-0.844 -0.026,-0.027 -0.037,-0.067 -0.063,-0.094 -0.021,-0.021 -0.041,-0.042 -0.063,-0.063 -0.33,-0.33 -0.666,-0.643 -1,-0.969 -0.01,-0.011 -0.021,-0.021 -0.031,-0.031 -0.032,-0.031 -0.062,-0.063 -0.094,-0.094 -0.078,-0.079 -0.141,-0.171 -0.219,-0.25 -0.213,-0.206 -0.411,-0.42 -0.625,-0.625 -0.333,-0.333 -0.664,-0.671 -1,-1 -0.333,-0.333 -0.664,-0.671 -1,-1 -0.333,-0.333 -0.664,-0.671 -1,-1 -0.286,-0.286 -0.586,-0.561 -0.875,-0.844 -0.01,-0.011 -0.021,-0.021 -0.031,-0.031 -0.037,-0.036 -0.057,-0.089 -0.094,-0.125 -0.33,-0.33 -0.666,-0.643 -1,-0.969 -0.119,-0.122 -0.224,-0.254 -0.344,-0.375 -0.213,-0.206 -0.411,-0.42 -0.625,-0.625 -0.333,-0.333 -0.664,-0.671 -1,-1 -0.333,-0.333 -0.664,-0.671 -1,-1 -0.333,-0.333 -0.664,-0.671 -1,-1 -0.286,-0.286 -0.586,-0.561 -0.875,-0.844 -0.01,-0.011 -0.021,-0.021 -0.031,-0.031 -0.037,-0.036 -0.057,-0.089 -0.094,-0.125 -0.33,-0.33 -0.666,-0.643 -1,-0.969 -0.12,-0.12 -0.224,-0.256 -0.344,-0.375 -0.213,-0.206 -0.411,-0.42 -0.625,-0.625 -0.333,-0.333 -0.664,-0.671 -1,-1 -0.333,-0.333 -0.664,-0.671 -1,-1 -0.333,-0.333 -0.664,-0.671 -1,-1 -0.276,-0.276 -0.566,-0.54 -0.844,-0.813 -0.01,-0.011 -0.021,-0.021 -0.031,-0.031 -0.01,-0.01 -0.021,-0.021 -0.031,-0.031 -0.037,-0.036 -0.057,-0.089 -0.094,-0.125 -0.288,-0.288 -0.584,-0.559 -0.875,-0.844 -0.026,-0.027 -0.037,-0.067 -0.063,-0.094 -0.021,-0.021 -0.041,-0.042 -0.063,-0.063 -0.209,-0.209 -0.414,-0.417 -0.625,-0.625 -0.117,-0.113 -0.226,-0.231 -0.344,-0.344 -0.114,-0.116 -0.229,-0.228 -0.344,-0.344 -0.219,-0.217 -0.436,-0.44 -0.656,-0.656 -0.333,-0.333 -0.664,-0.671 -1,-1 -0.333,-0.333 -0.664,-0.671 -1,-1 -0.276,-0.275 -0.566,-0.54 -0.844,-0.813 -0.01,-0.011 -0.021,-0.021 -0.031,-0.031 -0.006,-0.006 0.006,-0.025 0,-0.031 -0.021,-0.021 -0.041,-0.042 -0.063,-0.063 -0.02,-0.021 -0.042,-0.041 -0.063,-0.063 -0.286,-0.286 -0.586,-0.561 -0.875,-0.844 -0.01,-0.011 -0.021,-0.021 -0.031,-0.031 -0.037,-0.036 -0.057,-0.089 -0.094,-0.125 -0.33,-0.33 -0.666,-0.643 -1,-0.969 -0.119,-0.122 -0.224,-0.254 -0.344,-0.375 -0.213,-0.206 -0.411,-0.42 -0.625,-0.625 -0.333,-0.333 -0.664,-0.671 -1,-1 -0.333,-0.333 -0.664,-0.671 -1,-1 -0.333,-0.333 -0.664,-0.671 -1,-1 -0.286,-0.286 -0.586,-0.561 -0.875,-0.844 -0.01,-0.011 -0.021,-0.021 -0.031,-0.031 -0.037,-0.036 -0.057,-0.089 -0.094,-0.125 -0.33,-0.33 -0.666,-0.643 -1,-0.969 -0.119,-0.122 -0.224,-0.254 -0.344,-0.375 -0.213,-0.206 -0.411,-0.42 -0.625,-0.625 -0.333,-0.333 -0.664,-0.671 -1,-1 -0.333,-0.333 -0.664,-0.671 -1,-1 -0.333,-0.333 -0.664,-0.671 -1,-1 -0.286,-0.286 -0.586,-0.561 -0.875,-0.844 -0.01,-0.011 -0.021,-0.021 -0.031,-0.031 -0.037,-0.036 -0.057,-0.089 -0.094,-0.125 -0.288,-0.288 -0.584,-0.559 -0.875,-0.844 -0.041,-0.043 -0.084,-0.082 -0.125,-0.125 -0.12,-0.12 -0.224,-0.256 -0.344,-0.375 -0.213,-0.206 -0.411,-0.42 -0.625,-0.625 -0.333,-0.333 -0.664,-0.671 -1,-1 -0.333,-0.333 -0.664,-0.671 -1,-1 -0.333,-0.333 -0.664,-0.671 -1,-1 -0.276,-0.275 -0.566,-0.54 -0.844,-0.813 -0.01,-0.011 -0.021,-0.021 -0.031,-0.031 -0.01,-0.01 -0.021,-0.021 -0.031,-0.031 -0.037,-0.036 -0.057,-0.089 -0.094,-0.125 -0.288,-0.288 -0.584,-0.559 -0.875,-0.844 -0.026,-0.027 -0.037,-0.067 -0.063,-0.094 -0.021,-0.021 -0.041,-0.042 -0.063,-0.063 -0.33,-0.33 -0.666,-0.643 -1,-0.969 -0.01,-0.011 -0.021,-0.021 -0.031,-0.031 -0.032,-0.031 -0.062,-0.063 -0.094,-0.094 -0.078,-0.079 -0.141,-0.171 -0.219,-0.25 -0.213,-0.206 -0.411,-0.42 -0.625,-0.625 -0.333,-0.333 -0.664,-0.671 -1,-1 -0.333,-0.333 -0.664,-0.671 -1,-1 -0.276,-0.275 -0.566,-0.54 -0.844,-0.813 -0.01,-0.011 -0.021,-0.021 -0.031,-0.031 -0.006,-0.006 0.006,-0.025 0,-0.031 -0.021,-0.021 -0.041,-0.042 -0.063,-0.063 -0.02,-0.021 -0.042,-0.041 -0.063,-0.063 -0.286,-0.286 -0.586,-0.561 -0.875,-0.844 -0.011,-0.01 -0.021,-0.021 -0.031,-0.031 -0.037,-0.036 -0.057,-0.089 -0.094,-0.125 -0.33,-0.33 -0.666,-0.643 -1,-0.969 -0.119,-0.122 -0.224,-0.254 -0.344,-0.375 -0.213,-0.206 -0.411,-0.42 -0.625,-0.625 -0.333,-0.333 -0.664,-0.671 -1,-1 -0.333,-0.333 -0.664,-0.671 -1,-1 -0.333,-0.333 -0.664,-0.671 -1,-1 -0.286,-0.286 -0.586,-0.561 -0.875,-0.844 -0.01,-0.011 -0.021,-0.021 -0.031,-0.031 -0.037,-0.036 -0.057,-0.089 -0.094,-0.125 -0.33,-0.33 -0.666,-0.643 -1,-0.969 -0.12,-0.12 -0.224,-0.256 -0.344,-0.375 -0.213,-0.206 -0.411,-0.42 -0.625,-0.625 -0.333,-0.333 -0.664,-0.671 -1,-1 -0.333,-0.333 -0.664,-0.671 -1,-1 -0.333,-0.333 -0.664,-0.671 -1,-1 -0.276,-0.275 -0.566,-0.54 -0.844,-0.813 -0.01,-0.011 -0.021,-0.021 -0.031,-0.031 -0.006,-0.006 0.006,-0.025 0,-0.031 -0.021,-0.021 -0.041,-0.042 -0.063,-0.063 -0.01,-0.011 -0.021,-0.021 -0.031,-0.031 -0.011,-0.01 -0.021,-0.021 -0.031,-0.031 -0.288,-0.288 -0.584,-0.559 -0.875,-0.844 -0.026,-0.027 -0.037,-0.067 -0.063,-0.094 -0.021,-0.021 -0.041,-0.042 -0.063,-0.063 -0.325,-0.325 -0.641,-0.648 -0.969,-0.969 -0.333,-0.333 -0.664,-0.671 -1,-1 -0.333,-0.333 -0.664,-0.671 -1,-1 -0.333,-0.333 -0.664,-0.671 -1,-1 -0.276,-0.275 -0.566,-0.54 -0.844,-0.813 -0.01,-0.011 -0.021,-0.021 -0.031,-0.031 -0.01,-0.01 -0.021,-0.021 -0.031,-0.031 -0.037,-0.036 -0.057,-0.089 -0.094,-0.125 -0.286,-0.286 -0.586,-0.561 -0.875,-0.844 -0.01,-0.011 -0.021,-0.021 -0.031,-0.031 -0.037,-0.036 -0.057,-0.089 -0.094,-0.125 -0.33,-0.33 -0.666,-0.643 -1,-0.969 -0.119,-0.122 -0.224,-0.254 -0.344,-0.375 -0.213,-0.206 -0.411,-0.42 -0.625,-0.625 -0.333,-0.333 -0.664,-0.671 -1,-1 -0.333,-0.333 -0.664,-0.671 -1,-1 -0.333,-0.333 -0.664,-0.671 -1,-1 -0.333,-0.333 -0.664,-0.671 -1,-1 -0.33,-0.33 -0.666,-0.643 -1,-0.969 -0.377,-0.377 -0.743,-0.753 -1.125,-1.125 -0.08,-0.076 -0.17,-0.143 -0.25,-0.219 -22.503,-21.822 -53.18,-35.28 -87,-35.28" />
  <path
     d="m 256.0048,161.5828 c -69.03298,0 -125.0013,55.96429 -125.0013,125.0013 0,69.03298 55.96429,125.0013 125.0013,125.0013 69.03298,0 125.0013,-55.96429 125.0013,-125.0013 0,-69.03298 -55.96429,-125.0013 -125.0013,-125.0013 m 0,225.8088 c -55.58526,0 -100.8075,-45.22224 -100.8075,-100.8075 0,-55.58526 45.22224,-100.8075 100.8075,-100.8075 55.58526,0 100.8075,45.22224 100.8075,100.8075 0,55.58526 -45.22224,100.8075 -100.8075,100.8075"
     id="path463"
     style="fill:#ffffff" />
  <path
     d="m 173.53217,276.50335 28.21803,0 0,20.1615 -28.21803,0 0,-20.1615 m 50.48843,93.38807 -6.96782,-4.07262 10.72592,-18.41955 6.97185,4.07262 -10.72995,18.41552 m -35.73828,-32.66567 -4.0323,-6.98394 18.4881,-10.68156 4.0323,6.97991 -18.4881,10.68559 m 14.4558,-83.6299 -18.4881,-10.68156 4.0323,-6.98394 18.49213,10.68559 -4.0323,6.97991 m 25.04461,-27.85109 -10.72591,-18.41552 6.97184,-4.07262 10.72592,18.41551 -6.97185,4.07263 m 84.00088,50.27068 c -0.81856,2.52019 -1.23389,6.39926 -1.23389,11.63722 0,5.00005 0.41533,8.82267 1.23389,11.46786 0.81856,2.65325 2.50002,3.97585 5.04037,3.97585 2.54035,0 4.20569,-1.3226 4.99602,-3.97585 0.7863,-2.64519 1.1855,-6.46781 1.1855,-11.46786 0,-5.23796 -0.3992,-9.11703 -1.1855,-11.63722 -0.79033,-2.52019 -2.45567,-3.77827 -4.99602,-3.77827 -2.54438,-0.004 -4.22181,1.25808 -5.04037,3.77827"
     id="path465"
     style="fill:#ffffff" />
  <path
     d="m 254.29107,196.15977 0,90.42433 0,90.42433 c 49.94004,0 90.42433,-40.48429 90.42433,-90.42433 0,-49.94004 -40.48429,-90.42433 -90.42433,-90.42433 m 39.30686,109.71889 c -2.54841,2.78631 -6.31861,4.18552 -11.31463,4.18552 -6.15329,0 -10.42753,-2.00808 -12.82675,-6.02829 -0.72984,-1.24598 -1.27017,-2.7097 -1.62501,-4.40327 -0.45565,-2.18147 1.33872,-3.99601 3.56052,-3.99601 l 0.33871,0 c 2.22583,0 3.99198,1.00001 4.20569,2.20567 0.14113,0.79033 0.36291,1.49598 0.6613,2.11293 1.04033,2.10083 2.92745,3.14922 5.66135,3.14922 1.66937,0 3.13309,-0.58065 4.37907,-1.72985 1.25002,-1.14921 1.87502,-2.79842 1.87502,-4.96376 0,-2.85891 -1.15727,-4.77022 -3.46778,-5.72587 -0.76613,-0.31452 -1.7863,-0.54033 -3.06858,-0.66936 -1.73388,-0.18146 -3.15325,-1.51212 -3.15325,-3.20165 0,-1.68953 1.31856,-3.04439 2.93551,-3.21777 1.25808,-0.13307 2.20567,-0.35081 2.86697,-0.6492 1.89114,-0.83872 2.8347,-2.54035 2.8347,-5.10086 0,-1.66131 -0.47984,-3.0081 -1.44759,-4.0323 -0.96776,-1.04034 -2.33067,-1.5605 -4.08876,-1.5605 -2.01615,0 -3.496,0.64113 -4.44359,1.91937 -0.5121,0.68952 -0.88307,1.50405 -1.10082,2.44357 -0.34678,1.45163 -2.04437,2.68552 -4.25004,2.68552 -2.20567,0 -3.96375,-1.41131 -3.66133,-3.11294 0.18549,-1.04033 0.44355,-2.05244 0.77823,-3.03229 0.70162,-1.70163 1.79841,-3.27019 3.29439,-4.70973 1.12098,-1.02017 2.44761,-1.7984 3.98391,-2.33873 1.54438,-0.54033 3.42746,-0.81049 5.66539,-0.81049 4.15327,0 7.50007,1.07662 10.05252,3.22584 2.54841,2.14921 3.81859,5.03231 3.81859,8.65331 0,2.56051 -0.75807,4.7178 -2.27825,6.47991 -0.44759,0.5121 -0.90324,0.94759 -1.36292,1.30647 -0.82662,0.64113 -0.72984,1.07662 0.18145,1.69759 0.45969,0.31856 0.97179,0.73388 1.54034,1.25405 2.18148,2.02018 3.2702,4.77827 3.2702,8.27831 0.004,3.68149 -1.27421,6.9154 -3.81456,9.70171 m 34.8794,-34.83503 c 2.22986,3.89923 3.33874,9.43961 3.33874,16.6171 0,7.1775 -1.10888,12.70578 -3.33874,16.58485 -2.2339,3.87908 -6.117,5.81861 -11.65738,5.81861 -5.54038,0 -9.42349,-1.93953 -11.65738,-5.81861 -2.22986,-3.87907 -3.33875,-9.40735 -3.33875,-16.58485 0,-7.17749 1.10889,-12.71787 3.33875,-16.61711 2.23389,-3.89923 6.117,-5.84683 11.65738,-5.84683 5.54038,-0.004 9.42348,1.9476 11.65738,5.84683"
     id="path467"
     style="fill:#ffffff" />
</svg>
