<?xml version="1.0" encoding="UTF-8" standalone="no"?>
<svg
   xmlns:dc="http://purl.org/dc/elements/1.1/"
   xmlns:cc="http://creativecommons.org/ns#"
   xmlns:rdf="http://www.w3.org/1999/02/22-rdf-syntax-ns#"
   xmlns:svg="http://www.w3.org/2000/svg"
   xmlns="http://www.w3.org/2000/svg"
   xmlns:sodipodi="http://sodipodi.sourceforge.net/DTD/sodipodi-0.dtd"
   xmlns:inkscape="http://www.inkscape.org/namespaces/inkscape"
   height="48"
   width="48"
   version="1.1"
   viewBox="0 0 512 512"
   id="svg2"
   inkscape:version="0.91 r"
   sodipodi:docname="network-defaultroute.svg">
  <defs
     id="defs39" />
  <sodipodi:namedview
     pagecolor="#ffffff"
     bordercolor="#666666"
     borderopacity="1"
     objecttolerance="10"
     gridtolerance="10"
     guidetolerance="10"
     inkscape:pageopacity="0"
     inkscape:pageshadow="2"
     inkscape:window-width="640"
     inkscape:window-height="480"
     id="namedview37"
     showgrid="false"
     inkscape:zoom="0.4609375"
     inkscape:cx="256"
     inkscape:cy="256"
     inkscape:window-x="0"
     inkscape:window-y="0"
     inkscape:window-maximized="0"
     inkscape:current-layer="svg2" />
  <metadata
     id="metadata72">
    <rdf:RDF>
      <cc:Work
         rdf:about="">
        <dc:format>image/svg+xml</dc:format>
        <dc:type
           rdf:resource="http://purl.org/dc/dcmitype/StillImage" />
      </cc:Work>
    </rdf:RDF>
  </metadata>
  <text
     id="text20"
     font-size="129.23"
     line-height="125%"
     y="231.36"
     x="729.64"
     font-family="Gentium Book Basic"
     word-spacing="0"
     letter-spacing="0">
    <tspan
       id="tspan22"
       y="231.36"
       x="729.64" />
  </text>
  <text
     id="text24"
     transform="scale(4.0128 .2492)"
     font-size="46.954"
     y="579.25"
     x="378.91"
     font-family="Arial"
     text-anchor="middle" />
  <text
     id="text26"
     font-size="129.23"
     line-height="125%"
     y="151.36"
     x="1310.91"
     font-family="Gentium Book Basic"
     word-spacing="0"
     letter-spacing="0">
    <tspan
       id="tspan28"
       y="151.36"
       x="1310.91" />
  </text>
  <text
     id="text30"
     transform="scale(4.0128 .2492)"
     font-size="46.954"
     y="258.22"
     x="523.76"
     font-family="Arial"
     text-anchor="middle" />
  <text
     id="text32"
     font-size="129.23"
     line-height="125%"
     y="-29.901"
     x="239.33"
     font-family="Gentium Book Basic"
     word-spacing="0"
     letter-spacing="0">
    <tspan
       id="tspan34"
       y="-29.901"
       x="239.33" />
  </text>
  <text
     id="text36"
     transform="scale(4.0128 .2492)"
     font-size="46.954"
     y="-469.14"
     x="256.72"
     font-family="Arial"
     text-anchor="middle" />
  <text
     id="text38"
     font-size="129.23"
     line-height="125%"
     y="-246.37"
     x="1337.38"
     font-family="Gentium Book Basic"
     word-spacing="0"
     letter-spacing="0">
    <tspan
       id="tspan40"
       y="-246.37"
       x="1337.38" />
  </text>
  <text
     id="text42"
     transform="scale(4.0128 .2492)"
     font-size="46.954"
     y="-1337.81"
     x="530.36"
     font-family="Arial"
     text-anchor="middle" />
  <text
     id="text44"
     font-size="129.23"
     line-height="125%"
     y="-326.38"
     x="1918.65"
     font-family="Gentium Book Basic"
     word-spacing="0"
     letter-spacing="0">
    <tspan
       id="tspan46"
       y="-326.38"
       x="1918.65" />
  </text>
  <text
     id="text48"
     transform="scale(4.0128 .2492)"
     font-size="46.954"
     y="-1658.85"
     x="675.21"
     font-family="Arial"
     text-anchor="middle" />
  <text
     id="text50"
     font-size="129.23"
     line-height="125%"
     y="-798.78"
     x="1529.53"
     font-family="Gentium Book Basic"
     word-spacing="0"
     letter-spacing="0">
    <tspan
       id="tspan52"
       y="-798.78"
       x="1529.53" />
  </text>
  <text
     id="text54"
     transform="scale(4.0128 .2492)"
     font-size="46.954"
     y="-3554.51"
     x="578.24"
     font-family="Arial"
     text-anchor="middle" />
  <text
     id="text56"
     font-size="129.23"
     line-height="125%"
     y="-878.78"
     x="2110.79"
     font-family="Gentium Book Basic"
     word-spacing="0"
     letter-spacing="0">
    <tspan
       id="tspan58"
       y="-878.78"
       x="2110.79" />
  </text>
  <text
     id="text60"
     transform="scale(4.0128 .2492)"
     font-size="46.954"
     y="-3875.54"
     x="723.09"
     font-family="Arial"
     text-anchor="middle" />
  <text
     id="text62"
     font-size="208.33"
     line-height="125%"
     y="535.94"
     x="277.99"
     font-family="Gentium Book Basic"
     word-spacing="0"
     letter-spacing="0">
    <tspan
       id="tspan64"
       y="535.94"
       x="277.99" />
  </text>
  <path
     id="path66"
     d="m 256.33102,62.333729 c -30.34889,0 -59.12085,7.074719 -84.72459,19.594176 l -0.96767,-0.362696 c -0.11899,0.322556 -0.24514,0.643678 -0.3627,0.967667 C 106.53908,114.28668 62.628515,180.17403 62.628515,256.03911 c 0,75.92384 44.010915,141.78109 107.819575,173.50622 0.17203,0.39854 0.31109,0.81141 0.48312,1.20995 l 1.02788,-0.42291 c 25.51629,12.4062 54.15206,19.3519 84.3619,19.3519 30.13386,0 58.66354,-6.88118 84.06515,-19.23148 l 0.72539,0.30249 c 0.13046,-0.29819 0.23368,-0.60784 0.3627,-0.90746 63.94915,-31.61045 107.89125,-97.64116 107.89125,-173.80728 0,-76.10878 -43.87329,-142.16816 -107.76223,-173.807282 -0.0817,-0.220772 -0.16056,-0.44441 -0.24227,-0.665182 l -0.66519,0.242275 C 315.2182,69.364007 286.59534,62.33803 256.33389,62.33803 m -12.3976,24.733561 0,84.361899 -72.99218,0 c 4.54302,-24.12715 10.78339,-47.97763 18.75123,-71.17869 16.85174,-7.210913 35.09118,-11.805538 54.24525,-13.183209 m 24.19023,0 c 19.1082,1.314593 37.33044,5.762993 54.12483,12.88072 8.01228,23.297109 14.31,47.247939 18.86735,71.481179 l -72.99218,0 0,-84.361899 m 84.83929,29.934589 c 20.2995,14.22112 37.33043,32.81179 49.7094,54.42731 l -36.88889,0 c -3.31157,-18.32545 -7.61948,-36.53049 -12.82051,-54.42731 m -194.06377,0.3627 c -5.15086,17.77926 -9.41432,35.86818 -12.70009,54.06461 l -36.76847,0 c 12.36033,-21.43632 29.30668,-39.88937 49.46856,-54.06461 m -60.897062,78.25915 44.455322,0 c -2.14463,16.10484 -3.56101,32.26273 -4.17315,48.37904 l -50.919338,0 c 1.182704,-16.94206 4.854103,-33.18739 10.6429,-48.37904 m 68.940878,0 76.98327,0 0,48.37904 -81.28401,0 c 0.63938,-16.09194 2.05862,-32.27707 4.29357,-48.37904 m 101.16777,0 76.92305,0 c 2.23065,16.10197 3.71871,32.28853 4.35379,48.37904 l -81.26967,0 0,-48.36901 m 101.41147,0 44.57001,0 c 5.74866,15.19596 9.34838,31.43699 10.52248,48.37904 l -50.91934,0 c -0.61644,-16.11631 -2.02565,-32.27419 -4.17315,-48.37904 m -282.17162,72.56928 50.61972,0 c 0.1792,16.25536 1.1268,32.42328 2.96321,48.37903 l -42.876952,0 C 92.277824,301.40762 88.564851,285.13075 87.364944,268.20734 m 74.933246,0 81.64097,0 0,48.37903 -78.50286,0 c -1.91957,-15.91274 -2.96035,-32.07923 -3.14528,-48.37903 m 105.82977,0 81.57932,0 c -0.18923,16.2998 -1.22141,32.46629 -3.14527,48.37903 l -78.43548,0 0,-48.37903 m 105.95162,0 50.56238,0 c -1.18987,16.92341 -4.82687,33.20172 -10.58269,48.37903 l -42.99738,0 c 1.83355,-15.95575 2.84853,-32.1251 3.02342,-48.37903 m -264.50991,72.56927 34.89335,0 c 3.0822,17.92979 7.28545,35.49975 12.63844,52.61239 -19.31893,-13.9645 -35.55279,-31.88282 -47.53752,-52.61239 m 59.50648,0 74.86157,0 0,84.24148 c -19.3605,-1.39344 -37.78631,-6.08555 -54.79144,-13.42548 -8.96848,-22.48284 -15.63319,-46.2473 -20.08446,-70.81887 m 99.0604,0 74.80422,0 c -4.46703,24.66762 -11.11168,48.55106 -20.1418,71.11849 -16.94492,7.25678 -35.35209,11.79406 -54.66242,13.12299 l 0,-84.22284 m 99.47614,0 34.95356,0 c -11.98473,20.86862 -28.2444,38.90737 -47.65221,52.91488 5.39599,-17.20296 9.60355,-34.88331 12.70008,-52.91488"
     inkscape:connector-curvature="0"
     style="color:#000000;fill:#BFBFBF" />
</svg>
