<svg xmlns="http://www.w3.org/2000/svg" width="48" height="48">
<defs>
<defs
     id="defs4" />
  <g
     id="layer1">
    <path
       d="M 29,8.34375 L 28.15625,9.0625 L 9.15625,25.5625 L 9,25.6875 L 9,9.5 L 9,9 L 8.5,9 L 4.5,9 L 4,9 L 4,9.5 L 4,42.5 L 4,43 L 4.5,43 L 8.5,43 L 9,43 L 9,42.5 L 9,26.1875 L 9.15625,26.3125 L 28.15625,42.75 L 29,43.46875 L 29,42.375 L 29,35 L 43.5,35 L 44,35 L 44,34.5 L 44,17.4375 L 44,16.9375 L 43.5,16.9375 L 29,16.9375 L 29,9.4375 L 29,8.34375 z"
       id="path-main"
        />
  </g>
</defs>
<acyl-settings>
<use id="1" style="fill:#000000" xlink:href="#path-main" />


</acyl-settings>
</svg>
