<svg xmlns="http://www.w3.org/2000/svg" width="48" height="48">
<defs>
<defs
     id="defs4910">
  </defs>
  <path
     d="m 7.6565,4.65625 c -2.0829,0 -3.8125,1.729597 -3.8125,3.8125 l 0,31.0625 c 0,2.082903 1.7296,3.8125 3.8125,3.8125 l 33.71875,0 c 2.0829,0 3.8125,-1.729597 3.8125,-3.8125 l 0,-31.0625 c 0,-2.082903 -1.7296,-3.8125 -3.8125,-3.8125 l -33.71875,0 z m -0.59375,9.4375 5.1875,0 0,5.71875 -5.1875,0 0,-5.71875 z m 7.6875,0 5.125,0 0,5.71875 -5.125,0 0,-5.71875 z m 7.625,0 4.75,0 0,5.71875 -4.75,0 0,-5.71875 z m 7.25,0 5,0 0,5.71875 -5,0 0,-5.71875 z m 7.5,0 4.96875,0 0,5.71875 -4.96875,0 0,-5.71875 z M 7.0315,22.3125 l 5.21875,0 0,4.5 -5.21875,0 0,-4.5 z m 7.71875,0 5.125,0 0,4.5 -5.125,0 0,-4.5 z m 7.625,0 4.75,0 0,4.5 -4.75,0 0,-4.5 z m 7.25,0 5,0 0,4.5 -5,0 0,-4.5 z m 7.5,0 4.84375,0 0,4.5 -4.84375,0 0,-4.5 z m -30.125,7 5.25,0 0,4.125 -5.25,0 0,-4.125 z m 7.75,0 5.125,0 0,4.125 -5.125,0 0,-4.125 z m 7.625,0 4.75,0 0,4.125 -4.75,0 0,-4.125 z m 7.25,0 5,0 0,4.125 -5,0 0,-4.125 z m 7.5,0 4.84375,0 0,4.125 -4.84375,0 0,-4.125 z m -30.125,6.625 5.25,0 0,4.21875 -5.25,0 0,-4.21875 z m 7.75,0 5.125,0 0,4.21875 -5.125,0 0,-4.21875 z m 7.625,0 4.75,0 0,4.21875 -4.75,0 0,-4.21875 z m 7.25,0 5,0 0,4.21875 -5,0 0,-4.21875 z m 7.5,0 4.84375,0 0,3.59375 c 0,0.365454 -0.2283,0.625 -0.59375,0.625 l -4.25,0 0,-4.21875 z"
     id="path-main"
      />
</defs>
<acyl-settings>
<use id="1" style="fill:#000000" xlink:href="#path-main" />


</acyl-settings>
</svg>
