<?xml version="1.0" encoding="UTF-8" standalone="no"?>
<!-- Created with Inkscape (http://www.inkscape.org/) -->

<svg
   xmlns:dc="http://purl.org/dc/elements/1.1/"
   xmlns:cc="http://creativecommons.org/ns#"
   xmlns:rdf="http://www.w3.org/1999/02/22-rdf-syntax-ns#"
   xmlns:svg="http://www.w3.org/2000/svg"
   xmlns="http://www.w3.org/2000/svg"
   xmlns:sodipodi="http://sodipodi.sourceforge.net/DTD/sodipodi-0.dtd"
   xmlns:inkscape="http://www.inkscape.org/namespaces/inkscape"
   version="1.1"
   width="100%"
   height="100%"
   viewBox="0 0 512 512"
   id="svg2"
   inkscape:version="0.91+devel r13804 custom"
   sodipodi:docname="applications-perl.svg">
  <sodipodi:namedview
     pagecolor="#ffffff"
     bordercolor="#666666"
     borderopacity="1"
     objecttolerance="10"
     gridtolerance="10"
     guidetolerance="10"
     inkscape:pageopacity="0"
     inkscape:pageshadow="2"
     inkscape:window-width="1366"
     inkscape:window-height="709"
     id="namedview97"
     showgrid="false"
     inkscape:zoom="0.4609375"
     inkscape:cx="-8.6779661"
     inkscape:cy="237.55932"
     inkscape:window-x="-2"
     inkscape:window-y="-3"
     inkscape:window-maximized="1"
     inkscape:current-layer="svg2" />
  <metadata
     id="metadata10">
    <rdf:RDF>
      <cc:Work
         rdf:about="">
        <dc:format>image/svg+xml</dc:format>
        <dc:type
           rdf:resource="http://purl.org/dc/dcmitype/StillImage" />
        <dc:title></dc:title>
      </cc:Work>
    </rdf:RDF>
  </metadata>
  <defs
     id="defs8" />
  <path
     d="M 26,0 C 11.602648,0 0,11.602648 0,26 l 0,460 c 0,14.39735 11.602648,26 26,26 l 460,0 c 14.39735,0 26,-11.60265 26,-26 L 512,26 C 512,11.602648 500.39735,0 486,0 L 26,0 Z"
     inkscape:connector-curvature="0"
     id="rect2986"
     style="fill:#f38725;fill-opacity:1;stroke:none" />
  <text
     sodipodi:linespacing="125%"
     x="-216.68796"
     y="63.958839"
     id="text10347"
     style="font-size:129.22999573px;line-height:125%;font-family:'Gentium Book Basic';letter-spacing:0;word-spacing:0">
    <tspan
       x="-216.68796"
       y="63.958839"
       id="tspan10349" />
  </text>
  <text
     x="143.08192"
     y="-92.503777"
     transform="scale(4.0128205,0.24920128)"
     id="text10351"
     style="font-size:46.95375824px;font-family:Arial;text-anchor:middle" />
  <text
     sodipodi:linespacing="125%"
     x="364.58206"
     y="-16.041159"
     id="text10353"
     style="font-size:129.22999573px;line-height:125%;font-family:'Gentium Book Basic';letter-spacing:0;word-spacing:0">
    <tspan
       x="364.58206"
       y="-16.041159"
       id="tspan10355" />
  </text>
  <text
     x="287.93118"
     y="-413.53214"
     transform="scale(4.0128205,0.24920128)"
     id="text10357"
     style="font-size:46.95375824px;font-family:Arial;text-anchor:middle" />
  <text
     sodipodi:linespacing="125%"
     x="-706.99799"
     y="-197.30215"
     id="text10359"
     style="font-size:129.22999573px;line-height:125%;font-family:'Gentium Book Basic';letter-spacing:0;word-spacing:0">
    <tspan
       x="-706.99799"
       y="-197.30215"
       id="tspan10361" />
  </text>
  <text
     x="20.892548"
     y="-1140.8884"
     transform="scale(4.0128205,0.24920128)"
     id="text10363"
     style="font-size:46.95375824px;font-family:Arial;text-anchor:middle" />
  <text
     sodipodi:linespacing="125%"
     x="391.05203"
     y="-413.77115"
     id="text10365"
     style="font-size:129.22999573px;line-height:125%;font-family:'Gentium Book Basic';letter-spacing:0;word-spacing:0">
    <tspan
       x="391.05203"
       y="-413.77115"
       id="tspan10367" />
  </text>
  <text
     x="294.53113"
     y="-2009.5541"
     transform="scale(4.0128205,0.24920128)"
     id="text10369"
     style="font-size:46.95375824px;font-family:Arial;text-anchor:middle" />
  <text
     sodipodi:linespacing="125%"
     x="972.32202"
     y="-493.78116"
     id="text10371"
     style="font-size:129.22999573px;line-height:125%;font-family:'Gentium Book Basic';letter-spacing:0;word-spacing:0">
    <tspan
       x="972.32202"
       y="-493.78116"
       id="tspan10373" />
  </text>
  <text
     x="439.38043"
     y="-2330.5923"
     transform="scale(4.0128205,0.24920128)"
     id="text10375"
     style="font-size:46.95375824px;font-family:Arial;text-anchor:middle" />
  <text
     sodipodi:linespacing="125%"
     x="583.20203"
     y="-966.18121"
     id="text10377"
     style="font-size:129.22999573px;line-height:125%;font-family:'Gentium Book Basic';letter-spacing:0;word-spacing:0">
    <tspan
       x="583.20203"
       y="-966.18121"
       id="tspan10379" />
  </text>
  <text
     x="342.41089"
     y="-4226.2427"
     transform="scale(4.0128205,0.24920128)"
     id="text10381"
     style="font-size:46.95375824px;font-family:Arial;text-anchor:middle" />
  <text
     sodipodi:linespacing="125%"
     x="1164.462"
     y="-1046.1812"
     id="text10383"
     style="font-size:129.22999573px;line-height:125%;font-family:'Gentium Book Basic';letter-spacing:0;word-spacing:0">
    <tspan
       x="1164.462"
       y="-1046.1812"
       id="tspan10385" />
  </text>
  <text
     x="487.26019"
     y="-4547.271"
     transform="scale(4.0128205,0.24920128)"
     id="text10387"
     style="font-size:46.95375824px;font-family:Arial;text-anchor:middle" />
  <text
     sodipodi:linespacing="125%"
     x="-668.33801"
     y="368.53885"
     id="text10389"
     style="font-size:208.33000183px;line-height:125%;font-family:'Gentium Book Basic';letter-spacing:0;word-spacing:0">
    <tspan
       x="-668.33801"
       y="368.53885"
       id="tspan10391" />
  </text>
  <path
     style="fill:#000000;fill-rule:evenodd;opacity:0.25"
     d="M 326.79492 41.003906 C 325.74912 41.012758 324.68956 41.037902 323.61133 41.074219 L 386.79297 104.25586 C 386.79964 104.27236 386.80582 104.29016 386.8125 104.30664 L 323.59375 41.087891 C 320.71795 41.185771 317.78924 41.264646 314.53125 41.435547 C 304.88312 43.449069 295.90039 47.934215 286.64844 51.195312 C 272.33472 56.810181 258.57453 66.408531 252.66602 80.994141 C 251.1854 84.227274 244.69842 94.711093 241.33789 99.466797 C 235.04563 106.81242 227.05893 112.83476 219.03125 118.10938 C 216.37931 119.68689 213.85823 121.40514 211.40039 123.31445 L 155.28906 67.203125 C 149.02485 60.938914 141.02036 56.74233 130.8418 56.072266 C 123.89079 56.094016 121.91723 57.191085 114.11328 64.261719 C 108.88837 68.995672 105.40912 70.607036 96.867188 72.800781 C 86.658193 75.309916 75.771976 73.571893 66.195312 78.029297 C 61.615171 80.713994 56.085244 88.891252 54.867188 94.757812 C 54.102542 98.440742 55.294427 102.09912 58 104.80469 L 86.060547 132.86523 C 82.192497 142.11592 77.490103 150.28568 77.873047 160.80078 C 77.229838 176.58114 79.238932 189.62319 80.3125 205.06641 C 81.73253 223.99445 95.404426 234.03276 104.88477 249.85352 C 107.32083 252.96264 110.08091 256.09655 113.10156 259.11719 L 185.64453 331.66016 C 186.43307 337.80217 186.97587 345.19102 186.97461 349.71094 C 186.97261 354.27399 187.87746 359.97885 189.06445 364.69727 C 189.83816 367.77348 189.97443 370.99501 190.28516 381.42773 C 190.49645 388.47196 190.86417 395.35452 191.15625 396.76367 C 192.14282 401.53958 191.92634 405.42767 189.76367 420.28516 C 188.84857 426.57431 185.67076 438.07074 183.48633 442.94141 C 182.30867 445.57018 179.27938 451.71557 176.68945 456.70898 C 176.47194 457.13002 176.33226 457.41988 176.16602 457.75391 L 230.41211 512 L 486 512 C 500.39735 512 512 500.39735 512 486 L 512 205.02344 L 360.98633 54.009766 C 357.35504 50.378483 353.34722 47.196995 348.35742 45.255859 C 340.75816 41.694131 334.11554 40.941945 326.79492 41.003906 z "
     id="path10503" />
  <path
     d="m 323.59368,41.08807 c -2.8758,0.09788 -5.80442,0.177115 -9.06241,0.348016 -9.64813,2.013522 -18.6313,6.497339 -27.88325,9.758438 -14.31372,5.614869 -28.07434,15.213281 -33.98285,29.798891 -1.48062,3.233133 -7.96709,13.717123 -11.32762,18.472827 -6.29226,7.345628 -14.27954,13.369108 -22.30722,18.643728 -9.96663,5.92871 -18.0984,13.75286 -27.88325,26.83765 -9.88894,13.59438 -10.75121,25.40829 -15.6918,40.78315 -7.60509,8.04321 -13.61148,-3.05136 -11.67564,-10.80559 4.65472,-18.76802 13.01643,-35.6841 11.8512,-55.59249 -2.88201,-26.216191 -13.68294,-61.213575 -44.78844,-63.261278 -6.95101,0.02175 -8.92569,1.120177 -16.72964,8.190811 -5.22491,4.733953 -8.70351,6.345082 -17.245447,8.538827 -10.208994,2.509135 -21.095377,0.770608 -30.672039,5.228012 -4.580142,2.684697 -10.109561,10.863079 -11.327618,16.729639 -1.016083,4.893978 1.421584,9.742899 6.276722,12.373219 9.784849,4.60034 26.474093,1.1699 28.580834,14.81244 -3.326352,14.45045 -12.376328,24.43727 -11.851196,38.85664 -0.643209,15.78036 1.365653,28.82165 2.439221,44.26487 1.42003,18.92804 15.092097,28.96769 24.572433,44.78845 14.27177,18.21492 39.60238,37.23929 63.96351,29.79889 8.45338,-2.73286 11.83722,-2.24968 14.98801,2.26521 2.14869,3.08088 2.44854,5.91939 1.21961,12.72124 -1.49772,8.30112 -1.48373,24.07371 0,32.93725 1.09998,6.5657 1.91875,16.55252 1.91719,22.13321 -0.002,4.56305 0.90422,10.26959 2.09121,14.98801 0.77371,3.07621 0.90888,6.29691 1.21961,16.72963 0.21129,7.04423 0.57951,13.92687 0.87159,15.33602 0.98657,4.77591 0.76906,8.66468 -1.39361,23.52217 -0.9151,6.28915 -4.0923,17.78457 -6.27673,22.65524 -1.17766,2.62877 -4.20726,8.77343 -6.79719,13.76684 -0.21751,0.42104 -0.35578,0.71157 -0.52202,1.0456 1.11241,-0.0668 2.39105,-0.10565 3.48482,-0.17401 8.63049,-0.53756 16.82907,-1.26466 24.92045,-1.91719 -2.56041,0.17245 -5.10527,0.32626 -7.66723,0.52202 1.26932,-6.24565 2.52467,-12.93564 2.78879,-17.60123 0.24858,-4.38749 0.84829,-9.43062 1.56918,-12.8968 0.65097,-3.14147 1.3035,-8.39278 1.56918,-11.67563 0.62301,-7.7154 1.22582,-9.9542 4.87999,-17.77525 1.6624,-3.55784 3.54387,-8.25451 4.18241,-10.45602 1.11552,-3.84993 1.14659,-4.59723 1.04561,-15.85804 -0.0917,-10.24007 0.14138,-12.3437 1.0456,-17.77524 1.79446,-10.78851 2.6241,-13.99834 6.0996,-21.08761 4.72464,-9.62949 5.12392,-11.10234 5.57603,-19.86645 0.52824,-10.22142 2.20307,-15.51779 5.75159,-19.17041 1.99644,-2.05392 3.72253,-3.13836 6.9712,-3.48483 1.08289,-0.11652 2.37397,0.005 3.8344,0 6.14932,-0.0171 8.90393,0.81878 10.80559,3.31082 1.78203,2.33668 1.97779,5.21403 0.52202,11.50163 -0.65253,2.81831 -1.46819,7.92513 -1.74318,11.32761 -0.60126,7.4575 -1.90166,11.69894 -5.22802,17.60124 -4.23989,7.52429 -4.35175,8.18615 -4.35641,20.73804 -0.006,10.08159 0.0808,11.11321 1.0456,14.12262 0.5764,1.79291 1.72299,4.19795 2.61478,5.40202 1.97624,2.67227 7.86921,7.72316 14.12263,12.19921 6.05144,4.33622 12.92942,11.00446 17.0792,16.55563 4.40614,5.8417 10.71082,11.61349 11.50163,19.17042 0.0124,5.52165 -3.20361,12.49129 -7.8459,17.0792 -2.37863,2.35067 -4.00996,3.45375 -8.71284,5.75159 -6.47559,3.16167 -8.91791,5.21714 -9.41508,7.84591 -0.18954,1.00676 0.16158,1.78513 0.52202,2.61478 11.52183,-0.0124 22.42375,0.18178 32.76636,0.52202 2.01041,-1.48683 3.59202,-3.40092 4.87999,-6.0996 1.76649,-3.69923 3.12283,-5.55273 4.88,-5.40202 1.75406,0.1507 3.76137,2.36775 6.44762,6.44762 1.80223,2.73597 3.50968,4.65938 5.22801,6.09961 3.91518,0.23149 7.93601,0.41637 11.67564,0.69758 2.15024,-2.01974 3.59979,-5.44863 4.35641,-10.63003 0.45211,-3.08864 0.43502,-4.48692 -0.174,-8.0168 -1.39673,-8.09604 -3.31859,-11.24217 -9.06241,-16.03361 -1.93895,-1.61734 -4.05501,-3.72253 -4.70754,-4.70754 -1.72921,-2.61012 -2.27143,-6.06853 -1.56918,-9.41508 0.85606,-4.0721 4.83494,-11.29189 9.41508,-17.42723 4.09851,-5.49524 6.24565,-8.92723 9.58443,-15.33602 1.24913,-2.40193 3.10418,-4.75725 5.9256,-7.66723 2.259,-2.33202 4.73551,-5.59622 5.57603,-7.14521 l 1.39362,-2.78879 0,-15.85804 c -0.0559,-11.30432 0.59659,-22.26683 2.0912,-33.46083 1.23825,-13.42504 5.99707,-24.01934 12.55344,-35.55204 3.74584,-7.73559 5.50456,-9.934 8.71284,-9.934 4.30515,0 6.92304,4.76658 8.19081,14.81244 1.44955,9.86098 6.24565,18.29882 9.23641,27.70924 1.82243,6.70242 3.12283,9.71805 7.31922,18.12481 3.98044,7.97641 7.33475,16.87569 8.36482,22.30722 0.54533,2.87425 0.69448,6.8609 0.69759,15.16202 0.005,12.22873 0.4086,17.10562 1.91719,23.35127 1.14504,4.75104 1.7059,18.37339 1.21961,27.53523 -0.28431,5.35852 -0.38996,6.0561 -3.31081,14.63843 -4.2834,12.58918 -5.2653,16.26665 -6.09961,22.65524 -0.80323,6.15398 -1.34545,7.64393 -4.18241,13.76684 -0.4055,0.87625 -0.59349,1.63288 -0.87159,2.43922 10.3193,2.00264 19.51843,4.16998 28.22971,6.44762 0.23926,-0.46609 0.55776,-0.89956 0.69758,-1.39362 1.09222,-4.87533 -0.45677,-9.8905 -0.174,-14.81244 0.68671,-1.11086 -0.9353,-9.01735 -3.66039,-17.42722 -4.33156,-13.37377 -4.66093,-15.50848 -2.43922,-24.57244 0.38686,-1.57384 0.98656,-6.80962 1.21961,-11.67563 0.449,-9.35294 0.87004,-11.70049 3.31082,-17.77524 2.18908,-5.44863 2.83384,-7.8459 3.13836,-13.41883 0.35267,-6.47248 -0.41172,-10.27269 -2.78879,-15.85804 -2.35222,-5.52476 -2.65829,-8.04788 -1.56918,-13.9424 1.17921,-6.38082 1.1761,-21.36105 0,-26.14006 -1.1699,-4.75415 -1.7665,-21.99494 -1.56919,-44.09086 l 2.43923,-27.01166 c 3.75826,-14.61513 6.04833,-19.86644 9.0624,-19.86644 2.76083,0 5.35852,4.51644 7.14521,12.72123 1.09377,7.60975 0.54222,15.42303 1.9172,23.00326 1.78203,10.4669 -1.07046,20.94156 -6.44763,29.97445 -3.19118,5.59778 -4.29271,9.62482 -3.48482,12.55344 0.64321,2.33202 3.02339,4.93593 4.88,5.40202 0.80634,0.20198 1.81465,-0.11963 2.9628,-0.69758 1.42158,-0.71468 2.86647,-2.49515 7.8459,-9.934 3.37296,-5.04158 6.58589,-10.37058 7.14521,-11.8512 4.64073,-20.35273 4.83028,-35.37026 2.26521,-55.41848 0,-13.02109 -1.80223,-17.89953 -10.80559,-27.70924 -16.84617,-20.98041 -26.56732,-39.39886 -36.24807,-64.13442 -3.33568,-5.5434 -8.19703,-12.26913 -11.8512,-16.38162 -5.691,-6.40568 -9.08882,-12.74921 -12.19921,-22.307224 -4.48537,-11.381996 -8.32598,-24.827231 -14.988,-34.680441 -6.27673,-7.025578 -12.11998,-14.742528 -21.26162,-18.298819 -8.68487,-4.070547 -16.12061,-4.472941 -24.74644,-4.182409 m -9.41509,241.545023 c 0.68671,0.0451 1.33303,0.44901 2.09121,1.04561 2.14092,1.68415 2.65052,3.57959 3.83439,16.38162 0.6168,6.68222 1.41848,15.06102 1.9172,18.64373 2.20151,15.82697 2.54953,20.78309 1.9172,26.14006 -0.32627,2.75927 -0.6572,8.44716 -0.8716,12.55344 -0.60126,11.55134 -2.23725,16.6706 -8.53883,27.53523 -1.92341,3.31548 -4.28184,7.59577 -5.22801,9.58443 -1.88301,3.95869 -3.90586,6.62319 -5.9256,7.66723 -1.98245,1.02541 -4.57548,0.83897 -7.1452,-0.52202 -3.54076,-1.8768 -9.97285,-6.864 -13.07081,-10.10801 -3.31548,-3.47239 -4.72153,-5.34764 -8.53883,-12.19921 -4.33933,-7.78376 -4.87689,-9.4244 -4.87999,-12.8968 -0.003,-4.5413 1.65618,-7.90805 6.0996,-12.19921 1.9405,-1.8737 6.13845,-6.03435 9.23642,-9.23641 6.41188,-6.62785 6.58434,-6.96188 8.19081,-16.38163 1.45576,-8.53572 1.48839,-8.68021 7.49322,-17.42722 2.15024,-3.13836 3.17254,-5.97842 5.75159,-15.6918 2.38329,-8.97074 3.45686,-11.19401 5.40202,-12.19922 0.93063,-0.48163 1.5785,-0.74109 2.26521,-0.69758"
     inkscape:connector-curvature="0"
     id="path10393"
     style="fill:#ffffff;fill-rule:evenodd" />
</svg>
