<?xml version="1.0" encoding="UTF-8" standalone="no"?>
<!-- Created with Inkscape (http://www.inkscape.org/) -->

<svg
   xmlns:dc="http://purl.org/dc/elements/1.1/"
   xmlns:cc="http://creativecommons.org/ns#"
   xmlns:rdf="http://www.w3.org/1999/02/22-rdf-syntax-ns#"
   xmlns:svg="http://www.w3.org/2000/svg"
   xmlns="http://www.w3.org/2000/svg"
   xmlns:sodipodi="http://sodipodi.sourceforge.net/DTD/sodipodi-0.dtd"
   xmlns:inkscape="http://www.inkscape.org/namespaces/inkscape"
   version="1.1"
   width="100%"
   height="100%"
   viewBox="0 0 512 512"
   id="svg2"
   inkscape:version="0.91+devel r13804 custom"
   sodipodi:docname="applications-puzzles.svg">
  <sodipodi:namedview
     pagecolor="#ffffff"
     bordercolor="#666666"
     borderopacity="1"
     objecttolerance="10"
     gridtolerance="10"
     guidetolerance="10"
     inkscape:pageopacity="0"
     inkscape:pageshadow="2"
     inkscape:window-width="1366"
     inkscape:window-height="709"
     id="namedview97"
     showgrid="false"
     inkscape:zoom="0.4609375"
     inkscape:cx="-8.6779661"
     inkscape:cy="237.55932"
     inkscape:window-x="-2"
     inkscape:window-y="-3"
     inkscape:window-maximized="1"
     inkscape:current-layer="svg2" />
  <metadata
     id="metadata10">
    <rdf:RDF>
      <cc:Work
         rdf:about="">
        <dc:format>image/svg+xml</dc:format>
        <dc:type
           rdf:resource="http://purl.org/dc/dcmitype/StillImage" />
        <dc:title></dc:title>
      </cc:Work>
    </rdf:RDF>
  </metadata>
  <defs
     id="defs8" />
  <path
     d="M 26,0 C 11.60265,0 0,11.60265 0,26 l 0,460 c 0,14.39735 11.60265,26 26,26 l 460,0 c 14.39735,0 26,-11.60265 26,-26 L 512,26 C 512,11.60265 500.39735,0 486,0 L 26,0 Z"
     inkscape:connector-curvature="0"
     id="rect2986"
     style="fill:#97bc47;fill-opacity:1;stroke:none" />
  <path
     inkscape:connector-curvature="0"
     style="color:#000000;opacity:0.25;fill:#000000"
     d="m 213.8418,41 c -30.26693,0 -54.80274,16.98701 -54.80274,37.9414 0.88103,7.81706 5.82271,17.68895 8.43164,21.07813 12.64644,16.863 12.64599,27.40139 9.48438,33.72461 l -102.22656,0 c -18.68356,0 -33.72461,15.0391 -33.72461,33.72266 l 0,85.37304 79.04101,79.04102 c -6.57397,7.89519 -15.02233,12.64648 -24.24023,12.64648 -6.4305,-0.10891 -16.20615,-5.86009 -21.07617,-8.43164 -16.863,-12.64644 -27.40139,-12.64598 -33.72461,-9.48437 l 0,110.66406 c 0,9.83345 4.16484,18.65896 10.83593,24.8125 L 101.75195,512 486,512 c 14.39735,0 26,-11.60265 26,-26 L 512,287.21289 368.39844,143.61133 c -6.09565,-6.09565 -14.52735,-9.85742 -23.86914,-9.85742 l -9.21875,0 -76.375,-76.37501 c -9.8885,-9.88848 -26.39024,-16.36537 -45.08203,-16.36718 l -0.0117,-0.0117 z"
     id="path11446" />
  <path
     d="m 213.84169,41 c -30.26693,0 -54.80232,16.98654 -54.80232,37.94093 0.88103,7.81706 5.82257,17.68876 8.4315,21.07794 12.64644,16.863 12.64644,27.40116 9.48483,33.72438 l -102.22808,0 c -18.68356,0 -33.72437,15.04081 -33.72437,33.72437 l 0,85.37158 c 6.32322,3.16161 16.863,3.16161 33.72437,-9.48482 3.38918,-2.60894 13.26088,-7.55048 21.07794,-8.4315 20.9544,0 37.94094,24.52888 37.94094,54.80231 0,30.26692 -16.98654,54.80231 -37.94094,54.80231 -6.4305,-0.10891 -16.20792,-5.85995 -21.07794,-8.4315 -16.863,-12.64644 -27.40115,-12.64644 -33.72437,-9.48483 l 0,110.66446 C 41.00325,455.95919 56.04406,471 74.72762,471 l 135.95733,0 c 3.16161,-6.32322 3.16161,-16.863 -9.48482,-33.72437 -2.60894,-3.38918 -7.55048,-13.26088 -8.4315,-21.07794 0,-20.9544 24.52888,-37.94094 54.80231,-37.94094 30.26692,0 54.80231,16.98654 54.80231,37.94094 -0.10891,6.4305 -5.85995,16.20792 -8.4315,21.07794 -12.64644,16.863 -12.64644,27.40115 -9.48483,33.72437 l 60.0722,0 c 18.68357,0 33.72438,-15.04081 33.72438,-33.72437 l 0,-93.79658 c 6.32322,-3.16161 16.863,-3.16161 33.72437,9.48483 4.87002,2.56992 14.64581,8.32259 21.07794,8.4315 20.9544,0 37.94094,-24.52889 37.94094,-54.80232 0,-30.26692 -16.98654,-54.80231 -37.94094,-54.80231 -7.81706,0.88103 -17.68876,5.82256 -21.07794,8.4315 -16.863,12.64644 -27.40115,12.64644 -33.72437,9.48483 l 0,-102.22808 c 0,-18.68356 -15.04081,-33.72437 -33.72438,-33.72437 l -93.79657,0 c -3.16161,-6.32322 -3.16161,-16.863 9.48482,-33.72438 2.56993,-4.87002 8.3226,-14.64581 8.4315,-21.07794 0,-20.9544 -24.52888,-37.94093 -54.80231,-37.94093"
     inkscape:connector-curvature="0"
     id="path11336"
     style="color:#000000;fill:#ffffff" />
</svg>
