<?xml version="1.0" encoding="UTF-8" standalone="no"?>
<!-- Created with Inkscape (http://www.inkscape.org/) -->

<svg
   xmlns:dc="http://purl.org/dc/elements/1.1/"
   xmlns:cc="http://creativecommons.org/ns#"
   xmlns:rdf="http://www.w3.org/1999/02/22-rdf-syntax-ns#"
   xmlns:svg="http://www.w3.org/2000/svg"
   xmlns="http://www.w3.org/2000/svg"
   xmlns:sodipodi="http://sodipodi.sourceforge.net/DTD/sodipodi-0.dtd"
   xmlns:inkscape="http://www.inkscape.org/namespaces/inkscape"
   version="1.1"
   width="100%"
   height="100%"
   viewBox="0 0 512 512"
   id="svg2"
   inkscape:version="0.91+devel r13804 custom"
   sodipodi:docname="applications-electronics.svg">
  <sodipodi:namedview
     pagecolor="#ffffff"
     bordercolor="#666666"
     borderopacity="1"
     objecttolerance="10"
     gridtolerance="10"
     guidetolerance="10"
     inkscape:pageopacity="0"
     inkscape:pageshadow="2"
     inkscape:window-width="1366"
     inkscape:window-height="709"
     id="namedview96"
     showgrid="false"
     inkscape:zoom="0.4609375"
     inkscape:cx="169.22034"
     inkscape:cy="235.38983"
     inkscape:window-x="-2"
     inkscape:window-y="-3"
     inkscape:window-maximized="1"
     inkscape:current-layer="svg2" />
  <metadata
     id="metadata10">
    <rdf:RDF>
      <cc:Work
         rdf:about="">
        <dc:format>image/svg+xml</dc:format>
        <dc:type
           rdf:resource="http://purl.org/dc/dcmitype/StillImage" />
        <dc:title></dc:title>
      </cc:Work>
    </rdf:RDF>
  </metadata>
  <defs
     id="defs8">
    <clipPath
       id="clipPath13986">
      <path
         style="fill:#5c805a;fill-opacity:1;stroke:none"
         id="path13988"
         inkscape:connector-curvature="0"
         d="M 26,0 C 11.602648,0 0,11.602648 0,26 l 0,460 c 0,14.39735 11.602648,26 26,26 l 460,0 c 14.39735,0 26,-11.60265 26,-26 L 512,26 C 512,11.602648 500.39735,0 486,0 L 26,0 z" />
    </clipPath>
  </defs>
  <path
     d="M 26,0 C 11.602648,0 0,11.602648 0,26 l 0,460 c 0,14.39735 11.602648,26 26,26 l 460,0 c 14.39735,0 26,-11.60265 26,-26 L 512,26 C 512,11.602648 500.39735,0 486,0 L 26,0 Z"
     inkscape:connector-curvature="0"
     id="rect2986"
     style="fill:#8db173;fill-opacity:1;stroke:none" />
  <text
     sodipodi:linespacing="125%"
     x="-121.57612"
     y="11.80072"
     id="text3004"
     style="font-size:129.22999573px;line-height:125%;font-family:'Gentium Book Basic';letter-spacing:0;word-spacing:0">
    <tspan
       x="-121.57612"
       y="11.80072"
       id="tspan3006" />
  </text>
  <text
     x="166.78392"
     y="-301.80496"
     transform="scale(4.0128205,0.24920128)"
     id="text3008"
     style="font-size:46.95375824px;font-family:Arial;text-anchor:middle" />
  <text
     sodipodi:linespacing="125%"
     x="459.69391"
     y="-68.19928"
     id="text3010"
     style="font-size:129.22999573px;line-height:125%;font-family:'Gentium Book Basic';letter-spacing:0;word-spacing:0">
    <tspan
       x="459.69391"
       y="-68.19928"
       id="tspan3012" />
  </text>
  <text
     x="311.63318"
     y="-622.83331"
     transform="scale(4.0128205,0.24920128)"
     id="text3014"
     style="font-size:46.95375824px;font-family:Arial;text-anchor:middle" />
  <text
     sodipodi:linespacing="125%"
     x="-611.88611"
     y="-249.46028"
     id="text3016"
     style="font-size:129.22999573px;line-height:125%;font-family:'Gentium Book Basic';letter-spacing:0;word-spacing:0">
    <tspan
       x="-611.88611"
       y="-249.46028"
       id="tspan3018" />
  </text>
  <text
     x="44.59454"
     y="-1350.1896"
     transform="scale(4.0128205,0.24920128)"
     id="text3020"
     style="font-size:46.95375824px;font-family:Arial;text-anchor:middle" />
  <text
     sodipodi:linespacing="125%"
     x="486.16388"
     y="-465.92926"
     id="text3022"
     style="font-size:129.22999573px;line-height:125%;font-family:'Gentium Book Basic';letter-spacing:0;word-spacing:0">
    <tspan
       x="486.16388"
       y="-465.92926"
       id="tspan3024" />
  </text>
  <text
     x="318.23312"
     y="-2218.8552"
     transform="scale(4.0128205,0.24920128)"
     id="text3026"
     style="font-size:46.95375824px;font-family:Arial;text-anchor:middle" />
  <text
     sodipodi:linespacing="125%"
     x="1067.4338"
     y="-545.93927"
     id="text3028"
     style="font-size:129.22999573px;line-height:125%;font-family:'Gentium Book Basic';letter-spacing:0;word-spacing:0">
    <tspan
       x="1067.4338"
       y="-545.93927"
       id="tspan3030" />
  </text>
  <text
     x="463.08243"
     y="-2539.8936"
     transform="scale(4.0128205,0.24920128)"
     id="text3032"
     style="font-size:46.95375824px;font-family:Arial;text-anchor:middle" />
  <text
     sodipodi:linespacing="125%"
     x="678.3139"
     y="-1018.3393"
     id="text3034"
     style="font-size:129.22999573px;line-height:125%;font-family:'Gentium Book Basic';letter-spacing:0;word-spacing:0">
    <tspan
       x="678.3139"
       y="-1018.3393"
       id="tspan3036" />
  </text>
  <text
     x="366.11288"
     y="-4435.5439"
     transform="scale(4.0128205,0.24920128)"
     id="text3038"
     style="font-size:46.95375824px;font-family:Arial;text-anchor:middle" />
  <text
     sodipodi:linespacing="125%"
     x="1259.5739"
     y="-1098.3394"
     id="text3040"
     style="font-size:129.22999573px;line-height:125%;font-family:'Gentium Book Basic';letter-spacing:0;word-spacing:0">
    <tspan
       x="1259.5739"
       y="-1098.3394"
       id="tspan3042" />
  </text>
  <text
     x="510.96219"
     y="-4756.5723"
     transform="scale(4.0128205,0.24920128)"
     id="text3044"
     style="font-size:46.95375824px;font-family:Arial;text-anchor:middle" />
  <text
     sodipodi:linespacing="125%"
     x="-573.22614"
     y="316.38074"
     id="text3046"
     style="font-size:208.33000183px;line-height:125%;font-family:'Gentium Book Basic';letter-spacing:0;word-spacing:0">
    <tspan
       x="-573.22614"
       y="316.38074"
       id="tspan3048" />
  </text>
  <path
     style="fill:#000000;opacity:0.25"
     d="M 173.9375 41 C 170.39834 41 167.5 43.890972 167.5 47.4375 L 167.5 85.78125 C 167.5 87.543016 168.21901 89.138941 169.37695 90.296875 L 188.04883 108.96875 L 156.0625 108.96875 C 134.20822 108.96875 116.40625 126.77072 116.40625 148.625 L 116.40625 186.35938 L 90.310547 160.26367 C 89.144771 159.09789 87.531094 158.375 85.75 158.375 L 47.40625 158.375 C 43.867094 158.375 41 161.25684 41 164.78125 C 41 166.54529 41.717604 168.14925 42.878906 169.31055 L 66.880859 193.3125 L 47.40625 193.3125 C 43.867094 193.3125 41 196.18697 41 199.71875 C 41 201.48833 41.715832 203.09083 42.875 204.25 L 67.53125 228.90625 L 47.40625 228.90625 C 43.867094 228.90625 41 231.78985 41 235.34375 C 41 237.11056 41.71672 238.71282 42.876953 239.87305 L 66.816406 263.8125 L 47.40625 263.8125 C 43.867094 263.8125 41 266.69434 41 270.21875 C 41 271.98279 41.717604 273.58675 42.878906 274.74805 L 64.193359 296.0625 L 47.40625 296.0625 C 43.867094 296.0625 41 298.94435 41 302.46875 C 41 304.25169 41.720664 305.86519 42.886719 307.03125 L 66.824219 330.96875 L 47.40625 330.96875 C 43.867094 330.96875 41 333.82847 41 337.375 C 41 339.14181 41.716718 340.74406 42.876953 341.9043 L 167.97461 467.00195 C 168.29938 467.79637 168.7773 468.51168 169.375 469.10938 L 212.26562 512 L 486 512 C 500.39735 512 512 500.39735 512 486 L 512 203.17773 L 469.08984 160.26758 C 468.52275 159.70049 467.84453 159.24009 467.09961 158.91406 L 351.07812 42.890625 C 349.91114 41.723645 348.30083 41 346.53125 41 C 342.99947 41 340.125 43.898345 340.125 47.4375 L 340.125 66.859375 L 316.14062 42.875 C 314.98374 41.71812 313.38952 41 311.625 41 C 308.10059 41 305.21875 43.898345 305.21875 47.4375 L 305.21875 67.552734 L 280.54492 42.878906 C 279.38487 41.718854 277.7875 41 276.03125 41 C 272.4921 41 269.625 43.898345 269.625 47.4375 L 269.625 66.896484 L 245.60742 42.878906 C 244.44737 41.718853 242.84999 41 241.09375 41 C 237.55459 41 234.6875 43.898345 234.6875 47.4375 L 234.6875 64.181641 L 213.38672 42.880859 C 212.2256 41.719745 210.62849 41 208.875 41 C 205.3211 41 202.4375 43.898345 202.4375 47.4375 L 202.4375 66.880859 L 178.41992 42.863281 C 177.26996 41.713323 175.6887 41 173.9375 41 z "
     id="path3286" />
  <path
     d="m 173.9375,41 c -3.53916,0 -6.4375,2.890972 -6.4375,6.4375 l 0,38.34375 c 0,3.539155 2.89834,6.40625 6.4375,6.40625 3.53178,0 6.375,-2.867095 6.375,-6.40625 l 0,-38.34375 c 0,-3.539155 -2.84322,-6.4375 -6.375,-6.4375 z m 34.9375,0 c -3.5539,0 -6.4375,2.898345 -6.4375,6.4375 l 0,38.34375 c 0,3.539155 2.8836,6.40625 6.4375,6.40625 3.51704,0 6.40625,-2.867095 6.40625,-6.40625 l 0,-38.34375 C 215.28125,43.898345 212.39204,41 208.875,41 Z m 32.21875,0 c -3.53916,0 -6.40625,2.898345 -6.40625,6.4375 l 0,38.34375 c 0,3.539155 2.86709,6.40625 6.40625,6.40625 3.53178,0 6.40625,-2.867095 6.40625,-6.40625 l 0,-38.34375 C 247.5,43.898345 244.61815,41 241.09375,41 Z m 34.9375,0 c -3.53915,0 -6.40625,2.898345 -6.40625,6.4375 l 0,38.34375 c 0,3.539155 2.85972,6.40625 6.40625,6.40625 3.53178,0 6.40625,-2.867095 6.40625,-6.40625 l 0,-38.34375 C 282.4375,43.898345 279.55566,41 276.03125,41 Z m 35.59375,0 c -3.52441,0 -6.40625,2.898345 -6.40625,6.4375 l 0,38.34375 c 0,3.539155 2.88184,6.40625 6.40625,6.40625 3.54652,0 6.40625,-2.867095 6.40625,-6.40625 l 0,-38.34375 C 318.03125,43.898345 315.17152,41 311.625,41 Z m 34.90625,0 c -3.53178,0 -6.40625,2.898345 -6.40625,6.4375 l 0,38.34375 c 0,3.539155 2.88184,6.40625 6.40625,6.40625 3.53916,0 6.4375,-2.867095 6.4375,-6.40625 l 0,-38.34375 c 0,-3.539155 -2.89834,-6.4375 -6.4375,-6.4375 z M 156.0625,108.96875 c -21.85428,0 -39.65625,17.80197 -39.65625,39.65625 l 0,208.3125 c 0,21.89115 17.80197,39.6875 39.65625,39.6875 l 208.3125,0 c 21.86166,0 39.65625,-17.79635 39.65625,-39.6875 l 0,-208.3125 c 0,-21.85428 -17.79459,-39.65625 -39.65625,-39.65625 l -208.3125,0 z m 20.15625,38 c 6.96034,0 12.65625,5.68116 12.65625,12.65625 0,6.97509 -5.69591,12.625 -12.65625,12.625 -6.98983,0 -12.625,-5.64991 -12.625,-12.625 0,-6.97509 5.63517,-12.65625 12.625,-12.65625 z M 47.40625,158.375 c -3.539156,0 -6.40625,2.88184 -6.40625,6.40625 0,3.52441 2.867094,6.40625 6.40625,6.40625 l 38.34375,0 c 3.553901,0 6.4375,-2.88184 6.4375,-6.40625 0,-3.52441 -2.883599,-6.40625 -6.4375,-6.40625 l -38.34375,0 z m 378.75,0 c -3.53179,0 -6.40625,2.88184 -6.40625,6.40625 0,3.52441 2.87446,6.40625 6.40625,6.40625 l 38.375,0 c 3.53915,0 6.4375,-2.88184 6.4375,-6.40625 0,-3.52441 -2.89835,-6.40625 -6.4375,-6.40625 l -38.375,0 z m -231.5,23.4375 132.59375,0 0,133.8125 -132.59375,0 0,-133.8125 z m -147.25,11.5 c -3.539156,0 -6.40625,2.87447 -6.40625,6.40625 0,3.53916 2.867094,6.40625 6.40625,6.40625 l 38.34375,0 c 3.553901,0 6.4375,-2.86709 6.4375,-6.40625 0,-3.53915 -2.883599,-6.40625 -6.4375,-6.40625 l -38.34375,0 z m 378.8125,0 c -3.53179,0 -6.40625,2.87447 -6.40625,6.40625 0,3.53916 2.88184,6.40625 6.40625,6.40625 l 38.34375,0 c 3.53915,0 6.4375,-2.86709 6.4375,-6.40625 0,-3.53915 -2.89097,-6.40625 -6.4375,-6.40625 l -38.34375,0 z m -378.8125,35.59375 c -3.539156,0 -6.40625,2.8836 -6.40625,6.4375 0,3.53179 2.867094,6.40625 6.40625,6.40625 l 38.34375,0 c 3.553901,0 6.4375,-2.87446 6.4375,-6.40625 0,-3.5539 -2.883599,-6.4375 -6.4375,-6.4375 l -38.34375,0 z m 378.8125,0 c -3.53179,0 -6.40625,2.8836 -6.40625,6.4375 0,3.53179 2.88184,6.40625 6.40625,6.40625 l 38.34375,0 c 3.53915,0 6.4375,-2.87446 6.4375,-6.40625 0,-3.5539 -2.89097,-6.4375 -6.4375,-6.4375 l -38.34375,0 z M 47.40625,263.8125 c -3.539156,0 -6.40625,2.88184 -6.40625,6.40625 0,3.52441 2.867094,6.40625 6.40625,6.40625 l 38.34375,0 c 3.553901,0 6.4375,-2.88184 6.4375,-6.40625 0,-3.52441 -2.883599,-6.40625 -6.4375,-6.40625 l -38.34375,0 z m 378.8125,0 c -3.53179,0 -6.40625,2.88184 -6.40625,6.40625 0,3.52441 2.88184,6.40625 6.40625,6.40625 l 38.34375,0 c 3.53915,0 6.4375,-2.88184 6.4375,-6.40625 0,-3.52441 -2.89097,-6.40625 -6.4375,-6.40625 l -38.34375,0 z m -378.8125,32.25 c -3.539156,0 -6.40625,2.88185 -6.40625,6.40625 0,3.55391 2.867094,6.4375 6.40625,6.4375 l 38.34375,0 c 3.553901,0 6.4375,-2.88359 6.4375,-6.4375 0,-3.53178 -2.883599,-6.40625 -6.4375,-6.40625 l -38.34375,0 z m 378.8125,0 c -3.53179,0 -6.40625,2.88185 -6.40625,6.40625 0,3.55391 2.88184,6.4375 6.40625,6.4375 l 38.34375,0 c 3.53915,0 6.4375,-2.88359 6.4375,-6.4375 0,-3.53178 -2.89097,-6.40625 -6.4375,-6.40625 l -38.34375,0 z m -378.8125,34.90625 c -3.539156,0 -6.40625,2.85972 -6.40625,6.40625 0,3.53178 2.867094,6.40625 6.40625,6.40625 l 38.34375,0 c 3.553901,0 6.4375,-2.87447 6.4375,-6.40625 0,-3.54653 -2.883599,-6.40625 -6.4375,-6.40625 l -38.34375,0 z m 378.8125,0 c -3.53179,0 -6.40625,2.85972 -6.40625,6.40625 0,3.53178 2.88184,6.40625 6.40625,6.40625 l 38.34375,0 c 3.53915,0 6.4375,-2.87447 6.4375,-6.40625 0,-3.54653 -2.89097,-6.40625 -6.4375,-6.40625 l -38.34375,0 z M 173.9375,419.8125 c -3.53916,0 -6.4375,2.88184 -6.4375,6.40625 l 0,38.375 c 0,3.54652 2.89834,6.40625 6.4375,6.40625 3.53178,0 6.375,-2.85973 6.375,-6.40625 l 0,-38.375 c 0,-3.53179 -2.84322,-6.40625 -6.375,-6.40625 z m 34.9375,0 c -3.5539,0 -6.4375,2.88184 -6.4375,6.40625 l 0,38.375 c 0,3.54652 2.8836,6.40625 6.4375,6.40625 3.51704,0 6.40625,-2.85973 6.40625,-6.40625 l 0,-38.375 c 0,-3.53179 -2.88921,-6.40625 -6.40625,-6.40625 z m 32.21875,0 c -3.53916,0 -6.40625,2.88184 -6.40625,6.40625 l 0,38.375 c 0,3.54652 2.85972,6.40625 6.40625,6.40625 3.53178,0 6.40625,-2.85973 6.40625,-6.40625 l 0,-38.375 c 0,-3.53179 -2.88185,-6.40625 -6.40625,-6.40625 z m 34.9375,0 c -3.53915,0 -6.40625,2.88184 -6.40625,6.40625 l 0,38.375 c 0,3.54652 2.8671,6.40625 6.40625,6.40625 3.53178,0 6.40625,-2.85973 6.40625,-6.40625 l 0,-38.375 c 0,-3.53179 -2.88184,-6.40625 -6.40625,-6.40625 z m 35.59375,0 c -3.52441,0 -6.40625,2.88184 -6.40625,6.40625 l 0,38.375 c 0,3.54652 2.88921,6.40625 6.40625,6.40625 3.54652,0 6.40625,-2.85973 6.40625,-6.40625 l 0,-38.375 c 0,-3.53179 -2.85973,-6.40625 -6.40625,-6.40625 z m 34.90625,0 c -3.53178,0 -6.40625,2.88184 -6.40625,6.40625 l 0,38.375 c 0,3.54652 2.88184,6.40625 6.40625,6.40625 3.53916,0 6.4375,-2.85973 6.4375,-6.40625 l 0,-38.375 c 0,-3.53179 -2.89097,-6.40625 -6.4375,-6.40625 z"
     inkscape:connector-curvature="0"
     id="path3052"
     style="fill:#ffffff" />
</svg>
