<?xml version="1.0" encoding="UTF-8" standalone="no"?>
<!-- Created with Inkscape (http://www.inkscape.org/) -->

<svg
   xmlns:dc="http://purl.org/dc/elements/1.1/"
   xmlns:cc="http://creativecommons.org/ns#"
   xmlns:rdf="http://www.w3.org/1999/02/22-rdf-syntax-ns#"
   xmlns:svg="http://www.w3.org/2000/svg"
   xmlns="http://www.w3.org/2000/svg"
   xmlns:sodipodi="http://sodipodi.sourceforge.net/DTD/sodipodi-0.dtd"
   xmlns:inkscape="http://www.inkscape.org/namespaces/inkscape"
   version="1.1"
   width="100%"
   height="100%"
   viewBox="0 0 512 512"
   id="svg2"
   inkscape:version="0.91+devel r13804 custom"
   sodipodi:docname="applications-roleplaying.svg">
  <sodipodi:namedview
     pagecolor="#ffffff"
     bordercolor="#666666"
     borderopacity="1"
     objecttolerance="10"
     gridtolerance="10"
     guidetolerance="10"
     inkscape:pageopacity="0"
     inkscape:pageshadow="2"
     inkscape:window-width="1366"
     inkscape:window-height="709"
     id="namedview97"
     showgrid="false"
     inkscape:zoom="0.4609375"
     inkscape:cx="-8.6779661"
     inkscape:cy="237.55932"
     inkscape:window-x="-2"
     inkscape:window-y="-3"
     inkscape:window-maximized="1"
     inkscape:current-layer="svg2" />
  <metadata
     id="metadata10">
    <rdf:RDF>
      <cc:Work
         rdf:about="">
        <dc:format>image/svg+xml</dc:format>
        <dc:type
           rdf:resource="http://purl.org/dc/dcmitype/StillImage" />
        <dc:title></dc:title>
      </cc:Work>
    </rdf:RDF>
  </metadata>
  <defs
     id="defs8" />
  <path
     d="M 26,0 C 11.602648,0 0,11.602648 0,26 l 0,460 c 0,14.39735 11.602648,26 26,26 l 460,0 c 14.39735,0 26,-11.60265 26,-26 L 512,26 C 512,11.602648 500.39735,0 486,0 L 26,0 Z"
     inkscape:connector-curvature="0"
     id="rect2986"
     style="fill:#49a026;fill-opacity:1;stroke:none" />
  <text
     sodipodi:linespacing="125%"
     x="-167.59798"
     y="24.073221"
     id="text3004"
     style="font-size:129.22999573px;line-height:125%;font-family:'Gentium Book Basic';letter-spacing:0;word-spacing:0">
    <tspan
       x="-167.59798"
       y="24.073221"
       id="tspan3006" />
  </text>
  <text
     x="155.31522"
     y="-252.55762"
     transform="scale(4.0128205,0.24920128)"
     id="text3008"
     style="font-size:46.95375824px;font-family:Arial;text-anchor:middle" />
  <text
     sodipodi:linespacing="125%"
     x="413.67206"
     y="-55.926781"
     id="text3010"
     style="font-size:129.22999573px;line-height:125%;font-family:'Gentium Book Basic';letter-spacing:0;word-spacing:0">
    <tspan
       x="413.67206"
       y="-55.926781"
       id="tspan3012" />
  </text>
  <text
     x="300.16449"
     y="-573.586"
     transform="scale(4.0128205,0.24920128)"
     id="text3014"
     style="font-size:46.95375824px;font-family:Arial;text-anchor:middle" />
  <text
     sodipodi:linespacing="125%"
     x="-657.90796"
     y="-237.18777"
     id="text3016"
     style="font-size:129.22999573px;line-height:125%;font-family:'Gentium Book Basic';letter-spacing:0;word-spacing:0">
    <tspan
       x="-657.90796"
       y="-237.18777"
       id="tspan3018" />
  </text>
  <text
     x="33.125835"
     y="-1300.9423"
     transform="scale(4.0128205,0.24920128)"
     id="text3020"
     style="font-size:46.95375824px;font-family:Arial;text-anchor:middle" />
  <text
     sodipodi:linespacing="125%"
     x="440.14203"
     y="-453.65677"
     id="text3022"
     style="font-size:129.22999573px;line-height:125%;font-family:'Gentium Book Basic';letter-spacing:0;word-spacing:0">
    <tspan
       x="440.14203"
       y="-453.65677"
       id="tspan3024" />
  </text>
  <text
     x="306.7644"
     y="-2169.6079"
     transform="scale(4.0128205,0.24920128)"
     id="text3026"
     style="font-size:46.95375824px;font-family:Arial;text-anchor:middle" />
  <text
     sodipodi:linespacing="125%"
     x="1021.412"
     y="-533.66681"
     id="text3028"
     style="font-size:129.22999573px;line-height:125%;font-family:'Gentium Book Basic';letter-spacing:0;word-spacing:0">
    <tspan
       x="1021.412"
       y="-533.66681"
       id="tspan3030" />
  </text>
  <text
     x="451.61371"
     y="-2490.6462"
     transform="scale(4.0128205,0.24920128)"
     id="text3032"
     style="font-size:46.95375824px;font-family:Arial;text-anchor:middle" />
  <text
     sodipodi:linespacing="125%"
     x="632.29205"
     y="-1006.0668"
     id="text3034"
     style="font-size:129.22999573px;line-height:125%;font-family:'Gentium Book Basic';letter-spacing:0;word-spacing:0">
    <tspan
       x="632.29205"
       y="-1006.0668"
       id="tspan3036" />
  </text>
  <text
     x="354.64417"
     y="-4386.2964"
     transform="scale(4.0128205,0.24920128)"
     id="text3038"
     style="font-size:46.95375824px;font-family:Arial;text-anchor:middle" />
  <text
     sodipodi:linespacing="125%"
     x="1213.552"
     y="-1086.0668"
     id="text3040"
     style="font-size:129.22999573px;line-height:125%;font-family:'Gentium Book Basic';letter-spacing:0;word-spacing:0">
    <tspan
       x="1213.552"
       y="-1086.0668"
       id="tspan3042" />
  </text>
  <text
     x="499.49347"
     y="-4707.3247"
     transform="scale(4.0128205,0.24920128)"
     id="text3044"
     style="font-size:46.95375824px;font-family:Arial;text-anchor:middle" />
  <text
     sodipodi:linespacing="125%"
     x="-619.24799"
     y="328.65323"
     id="text3046"
     style="font-size:208.33000183px;line-height:125%;font-family:'Gentium Book Basic';letter-spacing:0;word-spacing:0">
    <tspan
       x="-619.24799"
       y="328.65323"
       id="tspan3048" />
  </text>
  <path
     style="fill:#000000;opacity:0.25"
     d="M 213.26172 103.36719 C 213.10461 103.35711 212.92703 103.359 212.73242 103.37695 L 220.26953 110.91406 C 220.27995 110.92955 220.29037 110.94542 220.30078 110.96094 L 212.72656 103.38672 C 211.56142 103.49332 209.7839 104.0519 208.22461 104.84766 C 203.54424 107.23495 184.99348 121.39348 174.96094 130.21875 C 159.40392 143.90287 139.40567 155.26882 127.25977 157.34375 C 122.48396 158.16058 115.27181 158.2585 100.60352 157.66602 C 89.543424 157.2198 73.1238 156.83323 64.125 156.81836 C 44.32888 156.78486 42.187407 157.48735 41.179688 164.21289 C 40.462018 168.99862 41.984753 181.90793 44.132812 189.20117 C 48.494633 204.01448 59.299704 227.7486 70.058594 246.10938 C 74.776144 254.16243 78.169339 258.34165 88.912109 269.37695 C 89.644807 270.12944 90.418456 270.9126 91.222656 271.7168 L 331.50586 512 L 486 512 C 500.39735 512 512 500.39735 512 486 L 512 239.23828 L 465.18359 192.42188 C 462.57443 189.81273 462.24732 189.73783 456.21094 190.34766 C 447.73521 191.20292 433.70181 194.10801 424.14648 196.98242 C 403.97479 203.05475 380.8692 206.68947 370.45117 205.40039 C 360.07405 204.11626 347.77751 198.7923 321.83594 184.41406 C 304.56469 174.84013 292.91343 170.04379 286.32422 169.82812 L 437.9082 321.41211 C 437.90736 321.41329 437.90709 321.41483 437.90625 321.41602 L 286.33398 169.84375 C 285.89396 169.82885 285.47034 169.8472 285.07617 169.875 C 284.65598 169.9035 284.27757 169.94712 283.9082 170.02148 C 283.12957 170.17716 282.36063 170.47757 281.60547 170.90625 L 215.50586 104.80664 C 214.76918 104.06996 214.13673 103.58401 213.66797 103.43555 C 213.55517 103.3996 213.41883 103.37726 213.26172 103.36719 z "
     id="path3168" />
  <path
     d="m 212.72584,103.38624 c -1.16514,0.1066 -2.94135,0.66561 -4.50064,1.46137 -4.68037,2.38729 -23.23078,16.54614 -33.26332,25.37141 -15.55702,13.68412 -35.55641,25.05037 -47.70231,27.1253 -4.77581,0.81683 -11.98848,0.91351 -26.65677,0.32103 -11.060088,-0.44622 -27.479788,-0.83295 -36.478588,-0.84782 -19.79612,-0.0335 -21.93674,0.66933 -22.94446,7.39487 -0.71767,4.78573 0.80444,17.69516 2.9525,24.9884 4.36182,14.81331 15.16781,38.54857 25.9267,56.90934 4.71755,8.05305 8.11008,12.23142 18.85285,23.26672 7.20276,7.39736 18.298798,17.70136 24.669848,22.8862 8.4782,6.90032 13.7213,12.07277 19.4664,19.29164 7.60808,9.54914 17.78564,19.4379 25.54618,24.81486 2.07121,1.43535 6.40823,3.37889 9.61607,4.29612 20.07748,5.74263 44.78327,-3.24006 52.53017,-19.05737 3.61687,-7.39488 7.05897,-22.27388 8.06669,-34.81766 1.05853,-13.16353 2.83598,-24.12074 6.16777,-38.349 1.32503,-5.65834 3.16817,-13.65934 4.12135,-17.77201 4.39652,-18.97928 4.3928,-31.19831 -0.11651,-62.52057 -1.82579,-12.68012 -7.31184,-32.59399 -12.77309,-46.44544 -2.67237,-6.77885 -10.0028,-17.46461 -12.53882,-18.26781 -0.22559,-0.0719 -0.54662,-0.0942 -0.93583,-0.0583 m 73.60174,66.46715 c -0.44002,-0.0149 -0.86269,0.002 -1.25686,0.0298 -0.42019,0.0285 -0.79948,0.0719 -1.16885,0.14626 -7.76177,1.55186 -14.53194,17.06425 -16.83618,38.63533 -1.96461,18.39176 -0.91351,56.18671 1.90016,68.71809 2.16418,9.63714 11.9389,35.69151 17.684,47.11354 5.63355,11.20512 8.13982,17.9319 10.40564,27.94337 4.09408,18.08189 12.34669,35.24405 20.43074,42.4654 12.61319,11.27949 31.03717,16.22511 46.67971,12.53882 7.91175,-1.86545 14.31131,-5.26665 18.96936,-10.05485 6.97717,-7.17177 15.51859,-18.76609 20.66501,-28.05989 5.8517,-10.57296 13.84774,-22.14745 23.12046,-33.43809 8.62943,-10.50851 18.79088,-25.21523 22.47221,-32.53697 3.49416,-6.94247 13.08544,-34.87964 15.84209,-46.12194 2.17781,-8.87982 5.75874,-35.80803 5.75874,-43.3467 0,-8.32946 -2.71823,-18.35581 -5.81699,-21.45457 -2.60916,-2.60915 -2.93639,-2.68476 -8.97277,-2.07493 -8.47573,0.85526 -22.50939,3.76066 -32.06472,6.63507 -20.17169,6.07233 -43.27728,9.70655 -53.69531,8.41747 -10.37712,-1.28413 -22.67176,-6.6078 -48.61333,-20.98604 -17.27125,-9.57393 -28.92382,-14.36957 -35.51303,-14.58524 m -74.21281,4.44238 c 1.5122,-0.295 13.83534,15.53842 13.82543,17.772 0,0.66066 -10.87169,8.03818 -24.1728,16.3974 -13.30112,8.35921 -24.66737,15.19879 -25.25365,15.19879 -0.58753,0 -1.08209,-0.36565 -1.08209,-0.81807 0,-1.60268 35.26264,-48.27247 36.68311,-48.55136 m -126.590518,40.9532 c 2.5509,0 55.367398,16.54986 56.530048,17.71251 0.53795,0.53795 0.74866,1.20976 0.43879,1.51963 -0.31112,0.31112 -11.6501,1.36346 -25.1954,2.33895 -13.5453,0.97425 -26.639408,1.80224 -29.083708,1.81215 l -4.44239,0 0,-11.69224 c 0,-10.83202 0.12024,-11.69224 1.7539,-11.69224 m 254.494918,36.4786 c 1.37585,-0.001 1.9361,0.34954 1.40312,0.84782 -1.41552,1.32007 -45.04357,24.40583 -46.12194,24.40583 -0.53546,0 -1.12919,-0.31607 -1.34486,-0.70156 -0.7375,-1.31883 -3.73091,-18.07444 -3.30328,-18.50207 0.48589,-0.48713 45.87404,-6.04878 49.3682,-6.05002 m 46.15912,4.9952 c 0.46109,-0.46109 47.55976,17.25018 48.57615,18.26781 0.91104,0.90608 -6.80859,17.89967 -8.12619,17.88852 -0.54538,-0.005 -9.94082,-8.05802 -20.89927,-17.88852 -10.95597,-9.83051 -19.76637,-18.05585 -19.55441,-18.26781 m -178.90998,10.87293 c 2.89672,-0.19089 4.56138,1.26057 6.51855,5.17369 2.05014,4.09904 2.33895,5.90499 2.33895,14.52698 0,9.19712 -0.18221,10.24078 -3.01076,15.98836 -3.69744,7.51139 -11.26709,14.94842 -18.64213,18.3273 -6.37725,2.92027 -19.57921,3.82263 -26.56877,1.84191 -13.29492,-3.76933 -26.26508,-18.1389 -26.5105,-29.375 -0.14998,-6.93751 0.75981,-7.27837 19.34989,-7.27837 15.62394,0 16.26229,-0.0806 21.24509,-2.54346 2.82979,-1.39568 8.72611,-5.51084 13.09412,-9.14878 4.37297,-3.63794 8.86245,-6.8495 9.96561,-7.1321 0.81807,-0.20824 1.5531,-0.33591 2.22119,-0.38053 m 141.24146,58.49218 c 0.96061,-0.0111 2.0427,0 3.24502,0 9.31859,0 10.77253,0.2541 15.49132,2.57197 6.3822,3.13471 13.36185,9.82059 16.33914,15.69584 4.06681,8.02455 5.20096,21.69627 2.27944,27.15381 -1.64358,3.07025 -5.61123,2.15054 -17.36544,-3.97509 -10.85062,-5.65586 -11.3365,-5.82195 -19.61267,-6.19628 -6.96973,-0.31607 -10.17757,0.0694 -17.94678,2.07493 -5.20219,1.34362 -10.53578,2.42571 -11.83726,2.42571 -3.2946,0 -4.58492,-2.9116 -4.12135,-9.32355 0.78709,-10.8878 9.11531,-22.18216 20.22623,-27.44261 5.11543,-2.42323 6.57184,-2.90292 13.29987,-2.98101"
     inkscape:connector-curvature="0"
     id="path3050"
     style="fill:#ffffff" />
</svg>
