<?xml version="1.0" encoding="UTF-8" standalone="no"?>
<!-- Created with Inkscape (http://www.inkscape.org/) -->

<svg
   xmlns:dc="http://purl.org/dc/elements/1.1/"
   xmlns:cc="http://creativecommons.org/ns#"
   xmlns:rdf="http://www.w3.org/1999/02/22-rdf-syntax-ns#"
   xmlns:svg="http://www.w3.org/2000/svg"
   xmlns="http://www.w3.org/2000/svg"
   xmlns:sodipodi="http://sodipodi.sourceforge.net/DTD/sodipodi-0.dtd"
   xmlns:inkscape="http://www.inkscape.org/namespaces/inkscape"
   version="1.1"
   width="100%"
   height="100%"
   viewBox="0 0 512 512"
   id="svg2"
   inkscape:version="0.91+devel r13804 custom"
   sodipodi:docname="applications-education-school.svg">
  <sodipodi:namedview
     pagecolor="#ffffff"
     bordercolor="#666666"
     borderopacity="1"
     objecttolerance="10"
     gridtolerance="10"
     guidetolerance="10"
     inkscape:pageopacity="0"
     inkscape:pageshadow="2"
     inkscape:window-width="1366"
     inkscape:window-height="709"
     id="namedview96"
     showgrid="false"
     inkscape:zoom="0.4609375"
     inkscape:cx="169.22034"
     inkscape:cy="235.38983"
     inkscape:window-x="-2"
     inkscape:window-y="-3"
     inkscape:window-maximized="1"
     inkscape:current-layer="svg2" />
  <metadata
     id="metadata10">
    <rdf:RDF>
      <cc:Work
         rdf:about="">
        <dc:format>image/svg+xml</dc:format>
        <dc:type
           rdf:resource="http://purl.org/dc/dcmitype/StillImage" />
        <dc:title></dc:title>
      </cc:Work>
    </rdf:RDF>
  </metadata>
  <defs
     id="defs8">
    <clipPath
       id="clipPath13986">
      <path
         style="fill:#5c805a;fill-opacity:1;stroke:none"
         id="path13988"
         inkscape:connector-curvature="0"
         d="M 26,0 C 11.602648,0 0,11.602648 0,26 l 0,460 c 0,14.39735 11.602648,26 26,26 l 460,0 c 14.39735,0 26,-11.60265 26,-26 L 512,26 C 512,11.602648 500.39735,0 486,0 L 26,0 z" />
    </clipPath>
  </defs>
  <path
     d="M 26,0 C 11.602648,0 0,11.602648 0,26 l 0,460 c 0,14.39735 11.602648,26 26,26 l 460,0 c 14.39735,0 26,-11.60265 26,-26 L 512,26 C 512,11.602648 500.39735,0 486,0 L 26,0 Z"
     inkscape:connector-curvature="0"
     id="rect2986"
     style="fill:#ef6a47;fill-opacity:1;stroke:none" />
  <text
     sodipodi:linespacing="125%"
     x="31.830105"
     y="-252.05797"
     id="text9524"
     style="font-size:129.22999573px;line-height:125%;font-family:'Gentium Book Basic';letter-spacing:0;word-spacing:0">
    <tspan
       x="31.830105"
       y="-252.05797"
       id="tspan9526" />
  </text>
  <text
     x="205.01294"
     y="-1360.6226"
     transform="scale(4.0128205,0.24920128)"
     id="text9528"
     style="font-size:46.95375824px;font-family:Arial;text-anchor:middle" />
  <text
     sodipodi:linespacing="125%"
     x="613.1001"
     y="-332.05798"
     id="text9530"
     style="font-size:129.22999573px;line-height:125%;font-family:'Gentium Book Basic';letter-spacing:0;word-spacing:0">
    <tspan
       x="613.1001"
       y="-332.05798"
       id="tspan9532" />
  </text>
  <text
     x="349.86221"
     y="-1681.6509"
     transform="scale(4.0128205,0.24920128)"
     id="text9534"
     style="font-size:46.95375824px;font-family:Arial;text-anchor:middle" />
  <text
     sodipodi:linespacing="125%"
     x="-458.47992"
     y="-513.31897"
     id="text9536"
     style="font-size:129.22999573px;line-height:125%;font-family:'Gentium Book Basic';letter-spacing:0;word-spacing:0">
    <tspan
       x="-458.47992"
       y="-513.31897"
       id="tspan9538" />
  </text>
  <text
     x="82.82357"
     y="-2409.0071"
     transform="scale(4.0128205,0.24920128)"
     id="text9540"
     style="font-size:46.95375824px;font-family:Arial;text-anchor:middle" />
  <text
     sodipodi:linespacing="125%"
     x="639.57007"
     y="-729.78796"
     id="text9542"
     style="font-size:129.22999573px;line-height:125%;font-family:'Gentium Book Basic';letter-spacing:0;word-spacing:0">
    <tspan
       x="639.57007"
       y="-729.78796"
       id="tspan9544" />
  </text>
  <text
     x="356.46216"
     y="-3277.6729"
     transform="scale(4.0128205,0.24920128)"
     id="text9546"
     style="font-size:46.95375824px;font-family:Arial;text-anchor:middle" />
  <text
     sodipodi:linespacing="125%"
     x="1220.8401"
     y="-809.79797"
     id="text9548"
     style="font-size:129.22999573px;line-height:125%;font-family:'Gentium Book Basic';letter-spacing:0;word-spacing:0">
    <tspan
       x="1220.8401"
       y="-809.79797"
       id="tspan9550" />
  </text>
  <text
     x="501.31143"
     y="-3598.7109"
     transform="scale(4.0128205,0.24920128)"
     id="text9552"
     style="font-size:46.95375824px;font-family:Arial;text-anchor:middle" />
  <text
     sodipodi:linespacing="125%"
     x="831.72009"
     y="-1282.198"
     id="text9554"
     style="font-size:129.22999573px;line-height:125%;font-family:'Gentium Book Basic';letter-spacing:0;word-spacing:0">
    <tspan
       x="831.72009"
       y="-1282.198"
       id="tspan9556" />
  </text>
  <text
     x="404.34192"
     y="-5494.3613"
     transform="scale(4.0128205,0.24920128)"
     id="text9558"
     style="font-size:46.95375824px;font-family:Arial;text-anchor:middle" />
  <text
     sodipodi:linespacing="125%"
     x="1412.9801"
     y="-1362.198"
     id="text9560"
     style="font-size:129.22999573px;line-height:125%;font-family:'Gentium Book Basic';letter-spacing:0;word-spacing:0">
    <tspan
       x="1412.9801"
       y="-1362.198"
       id="tspan9562" />
  </text>
  <text
     x="549.19122"
     y="-5815.3896"
     transform="scale(4.0128205,0.24920128)"
     id="text9564"
     style="font-size:46.95375824px;font-family:Arial;text-anchor:middle" />
  <text
     sodipodi:linespacing="125%"
     x="-419.81992"
     y="52.522034"
     id="text9566"
     style="font-size:208.33000183px;line-height:125%;font-family:'Gentium Book Basic';letter-spacing:0;word-spacing:0">
    <tspan
       x="-419.81992"
       y="52.522034"
       id="tspan9568" />
  </text>
  <path
     style="fill:#000000;opacity:0.25"
     d="M 87.96875 78.375 L 87.96875 120.875 L 75.28125 108.1875 L 64.84375 108.1875 L 64.84375 152.96875 L 52.53125 140.65625 L 41 140.65625 L 41 399.375 L 153.625 512 L 486 512 C 500.39735 512 512 500.39735 512 486 L 512 166.375 L 424 78.375 C 369.91438 82.496164 316.04901 83.838753 258.09375 136.1875 L 258.11133 140.39258 L 253.875 136.15625 C 195.91975 83.807502 142.05437 82.496163 87.96875 78.375 z "
     id="path9759" />
  <path
     d="m 87.96875,78.375 0,268.8125 c 61.08073,1.20703 117.59103,16.02919 164.78125,58.875 l 1.125,-269.90625 C 195.91975,83.807502 142.05437,82.496163 87.96875,78.375 Z M 424,78.375 c -54.08562,4.121164 -107.95099,5.463753 -165.90625,57.8125 l 1.125,269.875 C 306.40897,363.21669 362.93415,348.36327 424,347.15625 L 424,78.375 Z m -359.15625,29.8125 0,263.625 c 90.04347,1.32461 149.98644,19.18908 190.15625,47.90625 0.82007,0.26195 1.37341,0.0461 2,0 40.17725,-28.7127 100.08152,-46.58164 190.125,-47.90625 l 0,-263.625 -10.46875,0 0,252.40625 C 387.48209,364.97685 348.90702,356.57161 255.96875,414 163.05282,356.59394 124.45541,364.97685 75.28125,360.59375 l 0,-252.40625 -10.4375,0 z M 41,140.65625 41,399.375 c 66.53245,5.09899 144.36714,1.38618 186.21875,25.6875 12.0941,6.9832 16.46252,8.88548 28.09375,8.46875 l 0.0625,0 c 12.67902,0.61022 16.8463,-1.21616 29.40625,-8.46875 C 326.63286,400.76118 404.45713,404.47399 471,399.375 l 0,-258.71875 -11.59375,0 0,246.78125 c -60.20858,2.62838 -120.3694,5.39114 -176.6875,26.46875 -10.84094,10.2084 -14.91495,10.39283 -26.1875,10.625 -12.49298,-0.25748 -15.93429,0.0294 -27.25,-10.625 -56.32406,-21.07761 -116.54738,-23.83293 -176.75,-26.46875 l 0,-246.78125 -11.53125,0 z"
     inkscape:connector-curvature="0"
     id="path9572"
     style="fill:#ffffff" />
</svg>
