<?xml version="1.0" encoding="UTF-8" standalone="no"?>
<!-- Created with Inkscape (http://www.inkscape.org/) -->

<svg
   xmlns:dc="http://purl.org/dc/elements/1.1/"
   xmlns:cc="http://creativecommons.org/ns#"
   xmlns:rdf="http://www.w3.org/1999/02/22-rdf-syntax-ns#"
   xmlns:svg="http://www.w3.org/2000/svg"
   xmlns="http://www.w3.org/2000/svg"
   xmlns:sodipodi="http://sodipodi.sourceforge.net/DTD/sodipodi-0.dtd"
   xmlns:inkscape="http://www.inkscape.org/namespaces/inkscape"
   version="1.1"
   width="100%"
   height="100%"
   viewBox="0 0 512 512"
   id="svg2"
   inkscape:version="0.91+devel r13804 custom"
   sodipodi:docname="applications-education-language.svg">
  <sodipodi:namedview
     pagecolor="#ffffff"
     bordercolor="#666666"
     borderopacity="1"
     objecttolerance="10"
     gridtolerance="10"
     guidetolerance="10"
     inkscape:pageopacity="0"
     inkscape:pageshadow="2"
     inkscape:window-width="1366"
     inkscape:window-height="709"
     id="namedview96"
     showgrid="false"
     inkscape:zoom="0.4609375"
     inkscape:cx="169.22034"
     inkscape:cy="235.38983"
     inkscape:window-x="-2"
     inkscape:window-y="-3"
     inkscape:window-maximized="1"
     inkscape:current-layer="svg2" />
  <metadata
     id="metadata10">
    <rdf:RDF>
      <cc:Work
         rdf:about="">
        <dc:format>image/svg+xml</dc:format>
        <dc:type
           rdf:resource="http://purl.org/dc/dcmitype/StillImage" />
        <dc:title></dc:title>
      </cc:Work>
    </rdf:RDF>
  </metadata>
  <defs
     id="defs8" />
  <path
     d="M 26,0 C 11.602648,0 0,11.602648 0,26 l 0,460 c 0,14.39735 11.602648,26 26,26 l 460,0 c 14.39735,0 26,-11.60265 26,-26 L 512,26 C 512,11.602648 500.39735,0 486,0 L 26,0 Z"
     inkscape:connector-curvature="0"
     id="rect2986"
     style="fill:#0078ad;fill-opacity:1;stroke:none" />
  <text
     sodipodi:linespacing="125%"
     x="19.557615"
     y="-239.78548"
     id="text7484"
     style="font-size:129.22999573px;line-height:125%;font-family:'Gentium Book Basic';letter-spacing:0;word-spacing:0">
    <tspan
       x="19.557615"
       y="-239.78548"
       id="tspan7486" />
  </text>
  <text
     x="201.95462"
     y="-1311.3752"
     transform="scale(4.0128205,0.24920128)"
     id="text7488"
     style="font-size:46.95375824px;font-family:Arial;text-anchor:middle" />
  <text
     sodipodi:linespacing="125%"
     x="600.82764"
     y="-319.78546"
     id="text7490"
     style="font-size:129.22999573px;line-height:125%;font-family:'Gentium Book Basic';letter-spacing:0;word-spacing:0">
    <tspan
       x="600.82764"
       y="-319.78546"
       id="tspan7492" />
  </text>
  <text
     x="346.80389"
     y="-1632.4036"
     transform="scale(4.0128205,0.24920128)"
     id="text7494"
     style="font-size:46.95375824px;font-family:Arial;text-anchor:middle" />
  <text
     sodipodi:linespacing="125%"
     x="-470.75241"
     y="-501.04648"
     id="text7496"
     style="font-size:129.22999573px;line-height:125%;font-family:'Gentium Book Basic';letter-spacing:0;word-spacing:0">
    <tspan
       x="-470.75241"
       y="-501.04648"
       id="tspan7498" />
  </text>
  <text
     x="79.765244"
     y="-2359.7598"
     transform="scale(4.0128205,0.24920128)"
     id="text7500"
     style="font-size:46.95375824px;font-family:Arial;text-anchor:middle" />
  <text
     sodipodi:linespacing="125%"
     x="627.29761"
     y="-717.51544"
     id="text7502"
     style="font-size:129.22999573px;line-height:125%;font-family:'Gentium Book Basic';letter-spacing:0;word-spacing:0">
    <tspan
       x="627.29761"
       y="-717.51544"
       id="tspan7504" />
  </text>
  <text
     x="353.40384"
     y="-3228.4255"
     transform="scale(4.0128205,0.24920128)"
     id="text7506"
     style="font-size:46.95375824px;font-family:Arial;text-anchor:middle" />
  <text
     sodipodi:linespacing="125%"
     x="1208.5676"
     y="-797.52545"
     id="text7508"
     style="font-size:129.22999573px;line-height:125%;font-family:'Gentium Book Basic';letter-spacing:0;word-spacing:0">
    <tspan
       x="1208.5676"
       y="-797.52545"
       id="tspan7510" />
  </text>
  <text
     x="498.25311"
     y="-3549.4636"
     transform="scale(4.0128205,0.24920128)"
     id="text7512"
     style="font-size:46.95375824px;font-family:Arial;text-anchor:middle" />
  <text
     sodipodi:linespacing="125%"
     x="819.44763"
     y="-1269.9255"
     id="text7514"
     style="font-size:129.22999573px;line-height:125%;font-family:'Gentium Book Basic';letter-spacing:0;word-spacing:0">
    <tspan
       x="819.44763"
       y="-1269.9255"
       id="tspan7516" />
  </text>
  <text
     x="401.2836"
     y="-5445.1143"
     transform="scale(4.0128205,0.24920128)"
     id="text7518"
     style="font-size:46.95375824px;font-family:Arial;text-anchor:middle" />
  <text
     sodipodi:linespacing="125%"
     x="1400.7076"
     y="-1349.9255"
     id="text7520"
     style="font-size:129.22999573px;line-height:125%;font-family:'Gentium Book Basic';letter-spacing:0;word-spacing:0">
    <tspan
       x="1400.7076"
       y="-1349.9255"
       id="tspan7522" />
  </text>
  <text
     x="546.13287"
     y="-5766.1426"
     transform="scale(4.0128205,0.24920128)"
     id="text7524"
     style="font-size:46.95375824px;font-family:Arial;text-anchor:middle" />
  <text
     sodipodi:linespacing="125%"
     x="-432.09241"
     y="64.794533"
     id="text7526"
     style="font-size:208.33000183px;line-height:125%;font-family:'Gentium Book Basic';letter-spacing:0;word-spacing:0">
    <tspan
       x="-432.09241"
       y="64.794533"
       id="tspan7528" />
  </text>
  <path
     style="fill:#000000;opacity:0.25"
     d="M 312.3125 59.53125 C 309.90322 59.53555 307.47435 59.5625 305.09375 59.5625 L 305.16602 59.634766 C 306.17985 61.235215 303.15586 97.597358 302.65625 100.625 C 300.86988 111.35076 298.02387 121.94638 294.04688 132.08789 L 249.36523 87.40625 C 244.31878 82.359797 236.38128 80.778178 228.03125 80.875 C 218.99233 80.97981 209.4842 83.063088 202.65625 84.84375 C 171.44278 92.98684 140.1691 99.894453 107.75 97.15625 C 95.520038 96.124315 57.36999 92.843005 67.25 116.8125 C 67.747976 118.02054 68.469139 119.06679 69.378906 119.97656 L 111.41602 162.01367 C 104.98608 178.33359 97.69799 193.90507 87.96875 209.40625 C 76.239431 228.10368 63.272026 245.98348 51.0625 264.34375 C 46.835938 270.72155 36.668078 284.57628 43.041016 290.94922 L 100.52539 348.43359 C 89.833738 362.78143 79.260927 376.70422 77.1875 379.40625 C 70.188734 388.56084 47.767306 409.52478 56.65625 422.53125 C 57.112345 423.19767 57.599983 423.78748 58.117188 424.30469 L 145.8125 512 L 486 512 C 500.39735 512 512 500.39735 512 486 L 512 230.45703 L 352.125 70.582031 C 341.70327 60.160306 326.93651 59.505086 312.3125 59.53125 z "
     id="path7726" />
  <path
     d="m 312.3125,59.53125 c -2.40928,0.0043 -4.83815,0.03125 -7.21875,0.03125 1.22606,0 -1.92664,37.966699 -2.4375,41.0625 -2.42147,14.53905 -6.78312,28.84207 -13.28125,42.09375 -17.6655,36.07685 -56.0799,65.65417 -63.90625,106.09375 -3.2695,16.87878 4.71189,28.90326 22.5,28.75 L 248,277.5 c 22.38584,-0.19412 40.38656,-16.59918 60.71875,-23.8125 20.68978,-7.33594 42.36186,-11.62034 63.5625,-17.25 16.82769,-4.47513 32.04812,-6.14942 46.25,5.9375 10.31935,8.7459 21.82386,24.40185 37.34375,19.375 13.84428,-4.47513 18.11098,-21.36618 13.125,-33.71875 -6.35508,-15.79575 -22.48506,-24.98246 -36.125,-33.6875 -16.04096,-10.21718 -29.42898,-24.66206 -45.53125,-34.5625 -12.61821,-7.77527 -16.48389,1.4701 -15.125,14.34375 1.61431,15.30533 11.17097,33.45318 -7.28125,40.125 -24.3884,8.80721 -49.84348,11.74863 -75.4375,13.8125 -3.73949,0.30651 -7.648,-1.12132 -13.09375,-2 -7.30528,-1.18519 27.72392,-53.53997 30.65625,-57.1875 12.98603,-16.09205 29.6768,-28.53598 43,-44.25 11.43302,-13.46624 16.68713,-33.11353 6.53125,-48.53125 C 346.23226,60.377178 329.17745,59.501077 312.3125,59.53125 Z M 228.03125,80.875 c -9.03892,0.10481 -18.54705,2.188088 -25.375,3.96875 -31.21347,8.14309 -62.48715,15.050703 -94.90625,12.3125 -12.229962,-1.031935 -50.38001,-4.313245 -40.5,19.65625 7.100938,17.22616 59.75839,1.72793 52.71875,21.9375 -8.7459,25.12404 -17.75726,47.9639 -32,70.65625 -11.729319,18.69743 -24.696724,36.57723 -36.90625,54.9375 -5.118806,7.72418 -18.952136,26.41441 -1.5625,29.5 14.181441,2.5032 26.136278,-11.54437 35.25,-20.21875 15.88771,10.4726 26.36905,25.476 40.46875,39.71875 1.23628,1.25671 -43.515258,60.1774 -48.03125,66.0625 -6.998766,9.15459 -29.420194,30.11853 -20.53125,43.125 18.012883,26.31945 85.05647,-66.27679 92.75,-76.71875 13.93623,-18.82004 28.59673,-38.55893 36.21875,-60.25 6.60029,-18.78939 16.15889,-36.69762 28.03125,-52.6875 8.44961,-11.38194 24.97619,-25.87072 22.15625,-41.65625 -5.32315,-29.81373 -64.6267,3.97927 -80.71875,-7.21875 -12.34235,-8.59265 14.43954,-45.83344 18.8125,-54.375 2.23756,-4.35252 44.02475,-4.45964 50.09375,-5.59375 12.45474,-2.3193 32.15997,-7.56958 30.75,-23.9375 C 253.42145,84.7699 241.24197,80.721816 228.03125,80.875 Z M 126.25,207.40625 c 14.81491,0.82759 28.75114,1.61051 44.28125,2.46875 -5.7727,19.65785 -6.6102,38.67411 -18.65625,55.59375 -12.67951,-11.66801 -24.14863,-22.21242 -36.5625,-33.625 3.50449,-7.82636 7.20823,-16.10028 10.9375,-24.4375 z m 120.21875,81.40625 c -5.20661,0.0833 -10.03047,1.4192 -14.125,4.75 -11.21846,9.12394 -1.28557,30.17453 0.0937,41.78125 2.60538,21.86476 3.57173,43.81735 8.3125,65.40625 2.66669,12.138 15.69167,68.40199 38.3125,46.84375 9.62458,-9.18524 6.35648,-24.09986 19.8125,-30.28125 12.6693,-5.82379 28.56382,-1.91339 41.96875,-2.8125 9.59393,-0.64368 19.2396,-1.07571 28.84375,-1.21875 6.08944,-0.0817 12.17078,-0.0686 18.25,0.15625 13.77275,0.50064 27.77355,2.65899 41.25,-1.46875 29.11896,-8.92981 -19.5547,-31.01885 2.71875,-43.1875 13.65015,-7.45854 38.83495,-26.59049 36.25,-44.5625 -1.93104,-13.43559 -25.26239,-18.65411 -35.5,-22.8125 l -0.0625,0 c -18.90177,-7.66288 -36.76995,-13.91548 -57.53125,-11.1875 -26.91205,3.5658 -53.27721,14.85368 -80.8125,11.09375 -13.11119,-1.79312 -32.16142,-12.75 -47.78125,-12.5 z m 127.9375,30.03125 c 2.81074,0.002 5.64234,0.13865 8.53125,0.4375 1.77779,11.31042 15.17956,49.63094 -5.5,50.46875 -15.98989,0.64368 -29.29799,0.0116 -45.09375,4.875 -12.27083,3.77013 -29.15457,14.16083 -42.40625,9.59375 -16.88899,-5.80336 -14.88025,-32.88589 -16.75,-46.78125 25.86989,3.61688 45.57407,-6.11247 65.90625,-12.40625 11.58883,-3.59453 23.13264,-6.19518 35.3125,-6.1875 z"
     inkscape:connector-curvature="0"
     id="path7532"
     style="fill:#ffffff" />
</svg>
