<?xml version="1.0" encoding="UTF-8" standalone="no"?>
<!-- Created with Inkscape (http://www.inkscape.org/) -->

<svg
   xmlns:dc="http://purl.org/dc/elements/1.1/"
   xmlns:cc="http://creativecommons.org/ns#"
   xmlns:rdf="http://www.w3.org/1999/02/22-rdf-syntax-ns#"
   xmlns:svg="http://www.w3.org/2000/svg"
   xmlns="http://www.w3.org/2000/svg"
   xmlns:sodipodi="http://sodipodi.sourceforge.net/DTD/sodipodi-0.dtd"
   xmlns:inkscape="http://www.inkscape.org/namespaces/inkscape"
   version="1.1"
   width="100%"
   height="100%"
   viewBox="0 0 512 512"
   id="svg2"
   inkscape:version="0.91+devel r13804 custom"
   sodipodi:docname="applications-education-mathematics.svg">
  <sodipodi:namedview
     pagecolor="#ffffff"
     bordercolor="#666666"
     borderopacity="1"
     objecttolerance="10"
     gridtolerance="10"
     guidetolerance="10"
     inkscape:pageopacity="0"
     inkscape:pageshadow="2"
     inkscape:window-width="1366"
     inkscape:window-height="709"
     id="namedview96"
     showgrid="false"
     inkscape:zoom="0.4609375"
     inkscape:cx="169.22034"
     inkscape:cy="235.38983"
     inkscape:window-x="-2"
     inkscape:window-y="-3"
     inkscape:window-maximized="1"
     inkscape:current-layer="svg2" />
  <metadata
     id="metadata10">
    <rdf:RDF>
      <cc:Work
         rdf:about="">
        <dc:format>image/svg+xml</dc:format>
        <dc:type
           rdf:resource="http://purl.org/dc/dcmitype/StillImage" />
        <dc:title></dc:title>
      </cc:Work>
    </rdf:RDF>
  </metadata>
  <defs
     id="defs8" />
  <path
     d="M 26,0 C 11.602648,0 0,11.602648 0,26 l 0,460 c 0,14.39735 11.602648,26 26,26 l 460,0 c 14.39735,0 26,-11.60265 26,-26 L 512,26 C 512,11.602648 500.39735,0 486,0 L 26,0 Z"
     inkscape:connector-curvature="0"
     id="rect2986"
     style="fill:#68af4c;fill-opacity:1;stroke:none" />
  <text
     sodipodi:linespacing="125%"
     x="-90.894867"
     y="-396.2598"
     id="text8219"
     style="font-size:129.22999573px;line-height:125%;font-family:'Gentium Book Basic';letter-spacing:0;word-spacing:0">
    <tspan
       x="-90.894867"
       y="-396.2598"
       id="tspan8221" />
  </text>
  <text
     x="174.42972"
     y="-1939.2787"
     transform="scale(4.0128205,0.24920128)"
     id="text8223"
     style="font-size:46.95375824px;font-family:Arial;text-anchor:middle" />
  <text
     sodipodi:linespacing="125%"
     x="490.37515"
     y="-476.2598"
     id="text8225"
     style="font-size:129.22999573px;line-height:125%;font-family:'Gentium Book Basic';letter-spacing:0;word-spacing:0">
    <tspan
       x="490.37515"
       y="-476.2598"
       id="tspan8227" />
  </text>
  <text
     x="319.27899"
     y="-2260.3069"
     transform="scale(4.0128205,0.24920128)"
     id="text8229"
     style="font-size:46.95375824px;font-family:Arial;text-anchor:middle" />
  <text
     sodipodi:linespacing="125%"
     x="-581.2049"
     y="-657.52081"
     id="text8231"
     style="font-size:129.22999573px;line-height:125%;font-family:'Gentium Book Basic';letter-spacing:0;word-spacing:0">
    <tspan
       x="-581.2049"
       y="-657.52081"
       id="tspan8233" />
  </text>
  <text
     x="52.240349"
     y="-2987.6633"
     transform="scale(4.0128205,0.24920128)"
     id="text8235"
     style="font-size:46.95375824px;font-family:Arial;text-anchor:middle" />
  <text
     sodipodi:linespacing="125%"
     x="516.84515"
     y="-873.98981"
     id="text8237"
     style="font-size:129.22999573px;line-height:125%;font-family:'Gentium Book Basic';letter-spacing:0;word-spacing:0">
    <tspan
       x="516.84515"
       y="-873.98981"
       id="tspan8239" />
  </text>
  <text
     x="325.87894"
     y="-3856.3289"
     transform="scale(4.0128205,0.24920128)"
     id="text8241"
     style="font-size:46.95375824px;font-family:Arial;text-anchor:middle" />
  <text
     sodipodi:linespacing="125%"
     x="1098.1151"
     y="-953.99982"
     id="text8243"
     style="font-size:129.22999573px;line-height:125%;font-family:'Gentium Book Basic';letter-spacing:0;word-spacing:0">
    <tspan
       x="1098.1151"
       y="-953.99982"
       id="tspan8245" />
  </text>
  <text
     x="470.72824"
     y="-4177.3672"
     transform="scale(4.0128205,0.24920128)"
     id="text8247"
     style="font-size:46.95375824px;font-family:Arial;text-anchor:middle" />
  <text
     sodipodi:linespacing="125%"
     x="708.99518"
     y="-1426.3998"
     id="text8249"
     style="font-size:129.22999573px;line-height:125%;font-family:'Gentium Book Basic';letter-spacing:0;word-spacing:0">
    <tspan
       x="708.99518"
       y="-1426.3998"
       id="tspan8251" />
  </text>
  <text
     x="373.7587"
     y="-6073.0176"
     transform="scale(4.0128205,0.24920128)"
     id="text8253"
     style="font-size:46.95375824px;font-family:Arial;text-anchor:middle" />
  <text
     sodipodi:linespacing="125%"
     x="1290.2551"
     y="-1506.3998"
     id="text8255"
     style="font-size:129.22999573px;line-height:125%;font-family:'Gentium Book Basic';letter-spacing:0;word-spacing:0">
    <tspan
       x="1290.2551"
       y="-1506.3998"
       id="tspan8257" />
  </text>
  <text
     x="518.60797"
     y="-6394.0459"
     transform="scale(4.0128205,0.24920128)"
     id="text8259"
     style="font-size:46.95375824px;font-family:Arial;text-anchor:middle" />
  <text
     sodipodi:linespacing="125%"
     x="-542.54486"
     y="-91.67981"
     id="text8261"
     style="font-size:208.33000183px;line-height:125%;font-family:'Gentium Book Basic';letter-spacing:0;word-spacing:0">
    <tspan
       x="-542.54486"
       y="-91.67981"
       id="tspan8263" />
  </text>
  <path
     style="fill:#000000;opacity:0.25"
     d="M 41 41 L 41 232.5625 L 76.46875 268.03125 L 41 268.03125 L 41 471 L 82 512 L 486 512 C 500.39735 512 512 500.39735 512 486 L 512 82 L 471 41 L 273.78125 41 L 273.78125 76.53125 L 238.25 41 L 41 41 z "
     id="path8396" />
  <path
     d="m 41,41 0,191.5625 197.25,0 L 238.25,41 41,41 Z m 232.78125,0 0,191.5625 197.21875,0 L 471,41 273.78125,41 Z m 75.6875,18.6875 46.46875,0 0,53.0625 53.5,0 0,46.53125 -53.5,0 0,54.5625 -46.46875,0 0,-54.5625 -54.15625,0 0,-46.53125 54.15625,0 0,-53.0625 z M 84.75,114.25 l 118.8125,0 0,45.09375 -118.8125,0 0,-45.09375 z M 41,268.03125 41,471 l 197.25,0 0,-202.96875 -197.25,0 z m 232.78125,0 0,202.96875 197.21875,0 0,-202.96875 -197.21875,0 z M 95.6875,299.71875 c 0,0 41.25807,43.96875 43.9375,43.96875 2.67944,0 43.96875,-43.96875 43.96875,-43.96875 l 25.875,25.875 c 0,0 -43.96875,40.97471 -43.96875,44.03125 0,2.93746 43.96875,43.9375 43.96875,43.9375 l -25.875,25.8125 c 0,0 -40.93205,-43.96875 -43.96875,-43.96875 -2.997,0 -43.9375,43.96875 -43.9375,43.96875 l -25.875,-25.8125 c 0,0 43.9375,-40.34507 43.9375,-43.9375 0,-3.69167 -43.9375,-44.03125 -43.9375,-44.03125 l 25.875,-25.875 z m 217.25,11.90625 118.8125,0 0,45.0625 -118.8125,0 0,-45.0625 z m 0,77.53125 118.8125,0 0,45.09375 -118.8125,0 0,-45.09375 z"
     inkscape:connector-curvature="0"
     id="path8267"
     style="fill:#ffffff" />
</svg>
