<?xml version="1.0" encoding="UTF-8" standalone="no"?>
<!-- Created with Inkscape (http://www.inkscape.org/) -->

<svg
   xmlns:dc="http://purl.org/dc/elements/1.1/"
   xmlns:cc="http://creativecommons.org/ns#"
   xmlns:rdf="http://www.w3.org/1999/02/22-rdf-syntax-ns#"
   xmlns:svg="http://www.w3.org/2000/svg"
   xmlns="http://www.w3.org/2000/svg"
   xmlns:sodipodi="http://sodipodi.sourceforge.net/DTD/sodipodi-0.dtd"
   xmlns:inkscape="http://www.inkscape.org/namespaces/inkscape"
   version="1.1"
   width="100%"
   height="100%"
   viewBox="0 0 512 512"
   id="svg2"
   inkscape:version="0.91+devel r13804 custom"
   sodipodi:docname="applications-education-preschool.svg">
  <sodipodi:namedview
     pagecolor="#ffffff"
     bordercolor="#666666"
     borderopacity="1"
     objecttolerance="10"
     gridtolerance="10"
     guidetolerance="10"
     inkscape:pageopacity="0"
     inkscape:pageshadow="2"
     inkscape:window-width="1366"
     inkscape:window-height="709"
     id="namedview96"
     showgrid="false"
     inkscape:zoom="0.4609375"
     inkscape:cx="169.22034"
     inkscape:cy="235.38983"
     inkscape:window-x="-2"
     inkscape:window-y="-3"
     inkscape:window-maximized="1"
     inkscape:current-layer="svg2" />
  <metadata
     id="metadata10">
    <rdf:RDF>
      <cc:Work
         rdf:about="">
        <dc:format>image/svg+xml</dc:format>
        <dc:type
           rdf:resource="http://purl.org/dc/dcmitype/StillImage" />
        <dc:title></dc:title>
      </cc:Work>
    </rdf:RDF>
  </metadata>
  <defs
     id="defs8">
    <clipPath
       id="clipPath13986">
      <path
         style="fill:#5c805a;fill-opacity:1;stroke:none"
         id="path13988"
         inkscape:connector-curvature="0"
         d="M 26,0 C 11.602648,0 0,11.602648 0,26 l 0,460 c 0,14.39735 11.602648,26 26,26 l 460,0 c 14.39735,0 26,-11.60265 26,-26 L 512,26 C 512,11.602648 500.39735,0 486,0 L 26,0 z" />
    </clipPath>
  </defs>
  <path
     d="M 26,0 C 11.60264,0 0,11.60264 0,26 l 0,460 c 0,14.39735 11.60264,26 26,26 l 460,0 c 14.39735,0 26,-11.60265 26,-26 L 512,26 C 512,11.60264 500.39735,0 486,0 L 26,0 Z"
     inkscape:connector-curvature="0"
     id="rect2986"
     style="fill:#5c805a;fill-opacity:1;stroke:none" />
  <path
     style="fill:#000000;fill-rule:evenodd;opacity:0.25"
     d="M 300.48828 41 C 298.00387 41 295.8521 43.510474 293.76758 43.558594 C 293.45657 44.735994 287.95852 48.389671 287.0625 52.525391 C 286.27017 56.190892 285.45117 62.296657 285.45117 66.587891 L 285.45117 67.869141 C 285.45117 75.281594 287.02961 83.209209 288.45508 89.496094 C 289.28075 93.135671 290.76779 95.683075 291.55273 98.548828 C 292.26732 101.19242 294.86002 104.08033 296.00781 106.25 L 300.97852 111.2207 C 300.27669 111.29088 299.57488 111.36052 298.87305 111.42969 C 298.32136 112.86997 294.54232 113.05427 292.96875 120.18164 C 291.92087 124.93567 293.10938 128.70567 293.10938 133.4375 C 293.33523 133.74482 293.56341 134.05205 293.79297 134.35938 C 293.7506 138.19014 295.76204 143.4702 296.62109 147.44336 L 223.89258 74.714844 C 223.26008 74.082343 222.28371 73.434052 219.83203 72.003906 C 217.64384 70.726535 212.64818 68.808594 209.27148 68.808594 L 206.07422 68.808594 C 198.37668 68.808594 190.71484 76.18513 190.71484 84.164062 C 190.71484 91.010038 195.08022 101.27326 196.85742 107.12695 C 197.85711 110.42218 204.79297 125.83125 204.79297 127.98242 L 204.98633 128.17578 C 206.56006 129.96078 208.94922 140.85087 208.94922 143.97461 L 210.17578 145.20117 C 210.27108 145.30225 210.36416 145.40713 210.45898 145.50195 L 220.35156 155.39453 C 218.56882 156.27067 217.05995 157.25585 216.31445 158.36914 C 216.75876 160.09821 217.20217 161.82777 217.64648 163.56055 C 219.02011 168.57376 220.39785 173.58639 221.77148 178.59961 C 222.07509 181.93928 226.51062 189.94021 228.08789 192.33203 C 229.26714 194.11865 231.02439 197.1826 233.19531 199.35352 L 239.26367 205.42188 C 238.45576 206.35465 237.74805 207.27054 237.74805 207.62109 C 237.74805 209.64925 238.62782 212.68816 239.9668 215.9668 L 148.27344 124.27344 C 148.23774 124.23774 148.20523 124.20673 148.17383 124.17773 C 145.32658 121.54523 138.70258 117.11914 133.47461 117.11914 L 132.51953 117.11914 L 131.88281 116.48242 L 128.36133 116.48242 L 128.36133 117.12305 L 127.40234 117.12305 C 123.98121 117.12305 120.989 120.42247 119.15625 122.31445 C 117.28648 124.24718 115.88281 128.68343 115.88281 132.47852 L 115.88281 132.79688 C 116.11978 134.50004 116.36069 136.19918 116.59766 137.90234 C 117.31965 139.09824 118.59805 143.99702 119.45703 145.85938 C 120.61593 148.3734 121.77459 150.33843 123.14453 152.72656 C 124.2886 154.71852 125.8839 157.40781 127.2168 159.21094 C 127.63752 159.78049 128.03094 160.23602 128.40039 160.60547 L 137.375 169.58008 C 138.63587 172.43074 139.80035 175.46449 140.89062 177.20508 C 141.70888 178.50837 141.5871 179.70782 142.53125 181 C 142.96444 181.59611 143.79395 183.45886 144.30859 184.34375 C 145.43047 186.26538 145.7296 189.70826 147.24023 191.9668 C 147.24023 193.97357 147.91001 194.40563 148.79492 195.84961 C 149.46877 196.95296 150.88015 198.13562 151.08008 198.68359 L 161.0957 208.69922 C 161.94848 212.64411 168.39186 223.21427 170.07812 225.42578 C 171.8037 227.68861 173.0941 230.07262 174.99414 231.97266 L 193.26172 250.24023 C 193.53247 251.32475 193.96603 252.43958 194.39844 252.92188 C 194.78148 253.35062 196.78348 255.57057 197.10938 255.89648 L 197.14648 255.93164 L 222.87109 281.65625 C 221.7662 283.10552 220.95796 284.34894 220.81641 285.05469 C 220.04628 286.08771 220.62949 285.52859 219.85938 286.33203 C 219.64462 286.96517 217.94141 288.00596 217.94141 292.08984 C 216.57887 292.08984 217.30078 299.28062 217.30078 300.72461 C 217.30078 307.33362 222.10312 313.96082 225.53906 317.4375 L 225.57812 317.47852 C 225.5861 317.48649 225.5974 317.49589 225.60547 317.50391 L 240.62109 332.52148 C 239.45902 332.96506 238.21571 333.33594 236.83008 333.33594 L 234.27148 333.33594 C 233.77164 333.33594 231.76082 332.05859 229.47266 332.05859 C 228.72476 332.05859 228.52089 332.71767 227.23242 333.01758 L 227.23242 333.97656 C 227.23242 335.08732 226.5918 334.46541 226.5918 335.57617 L 226.5918 336.85742 C 226.5918 337.10919 227.68418 339.67532 227.94336 339.98633 C 228.04513 340.10926 228.14794 340.22411 228.25391 340.33008 L 234.00391 346.08008 C 229.64435 347.20359 226.16738 348.59231 225.34961 350.61914 L 224.06836 350.61914 C 222.62069 350.61914 219.43722 353.92122 218.54492 355.00977 C 217.48971 356.29454 215.42969 359.65393 215.42969 361.8125 C 215.20384 362.11982 214.97563 362.42707 214.74609 362.73438 C 214.6276 364.02287 214.50907 365.31112 214.39062 366.59961 C 214.33169 367.8263 216.19643 371.85268 217.01758 372.67383 L 217.41602 373.07227 C 218.4194 374.08348 220.63408 376.4345 220.99219 377.04102 C 222.33251 379.31437 225.66797 385.89338 225.66797 388.99609 L 225.66797 391.23633 C 225.66797 392.03607 222.49792 398.04081 221.92773 399.66992 C 220.36526 404.13517 219.89258 403.5982 219.89258 408.82617 L 219.89258 409.23438 L 206.20508 395.54688 C 204.91893 394.26073 203.64371 393.20405 202.58594 392.49609 C 197.15804 391.85924 191.73063 391.21888 186.30273 390.58203 C 186.14217 390.65574 185.98369 390.73186 185.82422 390.80664 L 185.58008 390.5625 C 181.30533 391.1949 177.0306 391.83202 172.75586 392.46484 L 165.73438 385.44336 C 164.79417 384.50316 163.75507 383.85742 162.59375 383.85742 C 162.20498 383.85742 161.63477 384.51644 161.63477 385.13477 L 161.63477 385.77539 C 161.63477 385.9977 161.65405 386.14216 161.68555 386.24219 C 161.74859 386.44226 161.86209 386.46365 161.97266 386.57422 C 162.11524 386.71681 162.25319 387.0075 162.27539 388.01562 C 161.33007 387.99516 159.80636 387.36748 158.41211 386.60352 L 152.57422 380.76562 C 151.77745 379.96886 150.92488 379.38086 150.11719 379.38086 C 146.06056 379.38086 149.83415 384.80626 144.01367 380.56836 L 139.27148 375.82617 C 138.35324 374.90794 130.40151 369.8128 129.00195 369.7832 L 129.00586 369.78711 C 125.59582 369.01329 122.18934 368.24063 118.7793 367.4668 C 117.28349 367.4927 115.78293 367.52097 114.28711 367.54688 C 108.95178 367.54688 105.38994 369.41047 101.47266 370.41016 C 96.363169 371.71344 95.03483 373.21298 91.195312 375.48633 C 85.086156 379.1 80.373047 385.66134 80.373047 395.37305 C 80.373047 401.5188 83.244851 406.23313 86.595703 409.58398 L 189.01172 512 L 486 512 C 500.39735 512 512 500.39735 512 486 L 512 178.64844 L 410.73047 77.378906 C 408.78516 75.433597 406.31566 74.255859 403.20703 74.255859 C 395.56131 74.255859 389.71154 80.854112 389.11914 88 C 388.79332 91.920969 388.52166 96.104249 388.16992 100.80273 C 387.88853 104.5608 388.38936 110.02573 387.65625 114.04297 C 387.45703 115.1411 387.4434 116.03249 387.41797 116.87695 L 315.13672 44.595703 C 314.9561 44.415086 314.78438 44.259724 314.62695 44.136719 C 313.74945 43.448057 309.31009 41 308.16602 41 L 300.48828 41 z "
     id="path11488" />
  <path
     d="m 346.06937,442.98994 c 0.0666,0.0222 0.12962,0.0444 0.19623,0.0666 -0.64793,0.56649 -9.75985,5.75743 -10.23747,5.75743 -0.53317,0 -1.06633,0 -1.5995,0 0.31472,-3.75807 2.55845,-9.46736 2.55845,-12.15538 0,-4.45045 -2.82132,-19.95661 -5.1206,-20.78969 0,-2.38072 -3.51739,-7.82713 -4.64667,-10.07086 -0.96265,-1.91791 -4.20605,-8.48248 -6.23134,-8.48248 -0.10743,0 -0.21475,0 -0.32213,0 -0.7368,0 -0.95894,0.22214 -0.95894,0.95894 0,0.10743 0,0.21475 0,0.31843 0,3.09901 8.63058,10.2745 8.67871,15.94677 1.56988,1.16999 2.09934,5.03913 2.59177,7.01259 0.32582,1.30327 0.8886,5.42419 0.8886,7.10884 0,0.10743 0,0.21474 0,0.31842 0,11.10757 -3.3878,22.78903 -8.87865,28.22433 -1.39955,1.38475 -3.20638,3.35449 -4.75774,4.51709 -2.06971,1.54766 -3.64698,2.17709 -5.75743,3.5211 -3.18417,2.02898 -9.16004,4.35416 -14.19917,4.35416 -0.003,0.19254 -0.003,0.38137 -0.003,0.5739 -2.98423,0.23326 -5.96847,0.47022 -8.9527,0.70347 -18.54965,1.64023 -30.2126,-13.09212 -39.0061,-21.77454 -2.51771,-2.48439 -4.24679,-5.76113 -7.74197,-7.29027 -2.98794,-1.30699 -6.71639,-4.21346 -9.00084,-6.35353 -3.02126,-2.83242 -4.6874,-4.47635 -7.22734,-7.80863 -2.53622,-3.32856 -3.45815,-6.82374 -5.49084,-9.86353 0,-1.50322 0.11844,-2.44365 -0.95894,-2.88056 0,-2.02527 0,-4.05056 0,-6.07583 0,-5.22797 0.47391,-4.6911 2.03638,-9.15635 0.57019,-1.62911 3.73955,-7.63461 3.73955,-8.43435 0,-0.7479 0,-1.49211 0,-2.24003 0,-3.10271 -3.33597,-9.68211 -4.67629,-11.95546 -0.41098,-0.69606 -3.31006,-3.73954 -3.9617,-4.35416 -0.81456,-0.79234 -2.69914,-4.854 -2.63991,-6.08694 0.11844,-1.28849 0.23697,-2.57696 0.35546,-3.86545 0.22954,-0.3073 0.4591,-0.61461 0.68495,-0.92193 0,-2.15857 2.05862,-5.51676 3.11383,-6.80153 0.8923,-1.08855 4.07649,-4.39119 5.52416,-4.39119 0.42579,0 0.85158,0 1.28109,0 2.32147,-5.75373 25.91396,-6.41278 31.03456,-10.23749 3.19897,-0.31841 6.39795,-0.63683 9.59693,-0.95524 2.96943,-0.94044 2.56215,-6.1462 3.5211,-7.03481 0.65906,-0.85527 2.67324,-0.66275 2.88056,-0.64794 1.93273,0.19994 3.86545,0.39988 5.79817,0.59981 0.3073,0.22956 0.61461,0.45912 0.92191,0.68497 1.95125,0 11.18164,1.31439 11.18164,2.24003 0,2.4992 -6.69046,5.16132 -8.89717,6.13509 -1.63281,0.72199 -9.48217,4.39118 -10.61884,4.41711 -0.20363,0.77011 -2.46217,2.55843 -2.88056,2.55843 -1.14778,0 -3.46557,2.27706 -4.46155,3.2175 -1.18481,1.11445 -2.27705,2.32889 -3.46556,3.57294 -1.06262,1.11447 -5.51307,6.74229 -5.51307,8.24182 0,6.32762 4.55782,-2.16598 6.32022,-3.91728 1.08854,-1.08483 6.03142,-5.45752 6.1573,-6.63863 1.0293,-0.11098 4.41711,-3.36188 5.97587,-4.2616 2.13636,-1.23663 4.38009,-2.70283 6.50164,-3.73954 1.50322,-0.7294 1.65873,-1.18852 3.3952,-1.72168 0.89972,-0.27769 2.65472,-1.19962 3.44706,-1.66984 1.30699,-0.77382 10.18935,-5.24277 12.0332,-5.24277 0.21475,0 0.42579,0 0.64054,0 1.03672,0 5.90924,2.24003 6.07954,2.24003 2.66212,0 4.80959,-1.5995 7.67904,-1.5995 0.42579,0 0.85158,0 1.28108,0 4.10239,0 11.10757,1.78092 14.26582,3.01015 8.50471,3.31377 13.93261,7.21993 21.95968,10.67068 2.67321,1.14779 6.9015,5.7093 8.56394,6.1499 -1.38474,-5.93886 -15.65798,-13.68084 -20.30465,-15.8431 -1.55136,-0.722 -2.06601,-1.02191 -3.42483,-1.69207 -2.76949,-1.36992 -4.33935,-1.58097 -7.26805,-2.64729 -1.08114,-0.39617 -16.83908,-6.67936 -12.51454,-6.67936 0.0481,0 3.54701,-0.96636 4.60594,-1.15148 1.86977,-0.32583 4.01353,-0.13335 5.95735,-0.12217 3.61738,0.0185 7.68645,-0.64425 11.51487,-0.64425 2.04009,-0.62571 24.15896,-5.02061 26.23608,-12.79221 -1.85127,0.42948 -4.74293,3.02126 -6.43869,3.79878 -4.9762,2.28076 -10.40779,4.96139 -15.93566,5.96847 -1.11076,0.50726 -4.16534,1.10707 -5.46123,1.10707 -1.70686,0 -3.41373,0 -5.12058,0 -0.8627,0 -0.8812,-0.15182 -1.5995,-0.31842 0.0593,-2.73618 3.33228,-3.09162 5.17984,-3.95801 2.02898,-0.63683 4.05426,-1.26996 6.08325,-1.90679 -0.18143,-0.83678 -6.36836,0.27768 -7.44208,0.38876 -0.94785,0.18883 -8.49359,2.0512 -9.59325,2.27705 -1.4847,1.43658 -4.55411,0.22215 -6.39796,1.5995 -1.93272,0 -10.83358,2.89537 -11.99617,3.68031 -3.03237,2.04379 -11.09277,0.44429 -14.95821,1.04781 -1.72167,0.27027 -12.99216,-0.37025 -14.84712,-0.69978 -1.98084,-0.35174 -5.83148,-0.33694 -7.21992,-0.77754 -1.71797,-0.54797 -4.61334,-1.6439 -6.02401,-1.97343 0.12217,-5.53157 20.8267,-10.00422 21.43761,-11.51486 2.00307,0 8.19739,-2.1956 10.63366,-2.80281 4.93547,-1.23664 9.48217,-2.44366 14.03997,-3.2286 0.30732,-0.22956 0.61462,-0.45912 0.92193,-0.68496 3.05458,0 4.82069,-0.53317 7.55686,-1.08114 1.20332,-0.24066 6.80524,-1.47732 7.47909,-1.47732 4.8318,0 9.25632,-1.87718 14.71013,-1.92901 3.02126,-0.0296 9.74875,-0.20363 10.567,-2.22892 1.85868,0 9.3822,-2.29557 11.50746,-2.88797 1.54024,-0.42948 10.87061,-1.90679 12.48861,-1.90679 1.49581,-0.0407 2.99164,-0.0778 4.48746,-0.11472 3.62477,0.25178 7.24584,0.50355 10.87061,0.75532 0,0.31842 0,0.64053 0,0.95896 0,1.50322 -6.298,2.99904 -6.72008,4.15793 -4.2579,0 -6.99037,2.55844 -10.23749,2.55844 -0.42579,0 -0.85158,0 -1.28107,0 -0.95155,2.35111 -8.00116,-0.0153 -8.31586,3.06198 3.5322,-0.0444 7.06442,-0.0888 10.59291,-0.13691 0.32212,-0.15554 0.64794,-0.3147 0.97007,-0.47021 3.39521,-0.71088 6.79413,-1.42547 10.18935,-2.13636 4.16163,-2.78429 15.67649,-3.79509 15.67649,-10.8743 0,-0.65535 -0.54428,-1.41808 -0.64054,-2.55846 -1.618,-0.13335 -2.24002,-0.95895 -2.88056,-0.95895 -1.06633,0 -2.13267,0 -3.19898,0 -1.35143,0 -5.00582,1.56988 -6.39057,1.92903 -1.81794,0.47021 -5.64634,0.62942 -8.00855,0.62942 -0.32212,0 -0.64054,0 -0.95895,0 0,0.21475 0,0.42579 0,0.64054 -3.85804,0 -8.84163,0.52946 -12.49973,0.93673 -2.68433,0.2962 -3.46556,0.24808 -5.8648,0.85529 -1.00708,0.25547 -5.23537,1.40696 -5.63154,1.40696 -0.32213,0 -0.64054,0 -0.95896,0 0,0.21473 0,0.42579 0,0.64052 -0.42579,0 -0.85158,0 -1.28106,0 -0.1037,0 -4.04317,1.94753 -4.79478,2.24374 -2.39183,0.94045 -4.24679,0.30731 -6.47571,0.88491 -2.58436,0.66644 -10.11531,1.0293 -13.40685,0.98486 -0.3073,0.22956 -0.61462,0.45912 -0.92192,0.68497 -8.63799,0 -36.82901,4.58003 -45.75209,10.5559 -2.50291,0 -16.3985,6.23134 -19.42346,7.44207 -2.40294,0.96637 -5.46861,4.22089 -7.66792,5.76853 -3.98392,2.81023 -5.77593,0.53317 -10.98169,0.53317 -1.11076,-0.74421 -6.7497,-2.42885 -8.75276,-3.40261 -2.13266,-1.03672 -5.74633,-3.55444 -7.3236,-5.15022 -3.43594,-3.47668 -8.23813,-10.10419 -8.23813,-16.7132 0,-1.44399 -0.72199,-8.63429 0.64055,-8.63429 0,-4.08388 1.70316,-5.12429 1.91791,-5.75743 0.77013,-0.80344 0.18882,-0.24435 0.95895,-1.27737 0.52205,-2.60286 9.72653,-12.31088 11.89621,-14.01404 2.50291,-1.96234 4.70222,-3.88025 7.53835,-5.57601 0.48503,-0.2888 9.03786,-5.12429 9.03786,-2.15857 0,0.31842 0,0.64054 0,0.95896 0,2.06971 -0.95896,3.30635 -0.95896,3.83951 0,0.95156 0.003,1.8994 0.003,2.85095 0.74422,0.11471 1.48843,0.23325 2.23263,0.34803 0.19993,-2.40663 8.31587,-9.16375 10.43001,-11.00389 1.56246,-1.35884 3.64329,-2.59548 4.89845,-3.73956 0.70347,-0.64053 4.43561,-3.16196 5.18353,-3.45445 0.65164,-0.25548 5.60561,-2.57696 5.79074,-2.84354 0.47763,-0.68868 0.59241,-1.73649 1.43658,-2.72135 0.63683,-0.74051 1.53655,-1.36625 2.33259,-1.82535 1.60321,-0.92934 4.36158,-1.55876 6.883,-1.71057 4.45784,-0.26288 10.70771,1.06634 15.86902,1.02189 0.3073,0.21846 0.61462,0.43691 0.92563,0.65535 1.27737,0.11844 2.55844,0.23327 3.83581,0.35175 2.7732,0.0259 5.55008,0.0481 8.32698,0.074 1.59579,-0.13335 3.19528,-0.26287 4.79107,-0.39617 0.32953,-0.81456 3.60626,-2.09562 4.45413,-2.90647 1.51063,-1.44769 2.45478,-2.16599 4.60965,-3.06569 2.22892,-0.92934 2.12895,-1.57358 5.2761,-2.40294 1.16628,-0.30732 5.04284,-1.05153 5.49825,-2.18079 2.33628,0 2.34369,-0.64054 4.15793,-0.64054 3.09161,0 6.18692,0 9.27852,0 1.99567,0 3.32858,0.97746 6.39797,0.96265 2.56215,-0.0152 4.64296,0.0407 6.97186,0.38877 2.15116,0.32212 4.39859,0.91082 6.17951,1.1774 3.25081,0.48504 2.94351,1.8957 5.40568,1.95124 0.42208,0.79975 4.45414,3.49887 5.47233,4.44302 1.80313,1.66614 4.10981,2.58067 6.23505,4.00244 3.3619,2.24373 8.92679,6.19062 11.18162,9.27482 0.84789,1.15147 1.27737,1.41065 2.19561,2.60288 0.64053,0.83306 1.64762,2.40294 2.16598,2.9509 1.64391,1.73279 2.28445,4.92437 3.49887,6.7349 1.94753,4.33565 6.34243,11.06684 6.34243,15.72832 0,2.29557 1.70687,4.26531 2.55845,6.39796 0.64053,2.13266 1.28107,4.26531 1.92161,6.39797 0.31841,1.17369 0.64054,2.34369 0.95896,3.51739 0.0119,0.74421 0.0185,1.49212 0.0297,2.23633 0.84417,8.10483 1.68835,16.20594 2.52882,24.31077 0.21475,0 0.42579,0 0.64054,0 0,0.64054 0,1.27737 0,1.91791 0,6.13508 1.86977,18.83104 2.81021,25.01426 0.64425,4.2431 1.29218,8.3751 1.65873,12.41456 0.32953,3.6507 1.92903,8.92679 1.92903,12.14429 0,6.99407 -0.5665,12.4923 -1.5995,19.83071 0,0.53317 0,1.06633 0,1.5995 -0.66645,0.27028 -2.91389,6.34612 -3.42484,7.44207 -1.34401,2.91389 -2.67322,4.5393 -4.2542,6.94224 -2.82132,4.28011 -7.16808,8.00485 -11.45931,10.93355 -1.17,0.79975 -5.74261,3.95059 -6.90891,4.28753 -2.0586,0.5998 -2.16228,0.64054 -3.82471,1.61429 -1.24775,0.72941 -3.00646,0.91083 -4.31714,1.44028 -3.35078,1.35513 -13.80302,4.01354 -18.28306,4.11351 -0.35546,-0.8812 -3.77659,-1.79942 -4.72812,-2.62879 -1.47732,-1.28848 -2.81023,-1.86608 -5.50566,-1.85127 -5.62044,0.0297 -9.2193,-0.95524 -14.0807,-0.95524 -1.49213,0 -2.98794,0 -4.48006,0 -0.86268,0 -0.8812,0.15182 -1.5995,0.31841 0,0.42579 0,0.85158 0,1.27737 0,0.90342 1.01821,1.42547 1.57728,1.89939 2.28816,0.27399 5.32424,1.84387 5.85,3.81361 -0.0593,-0.11843 -0.11844,-0.24067 -0.17403,-0.35914 -2.80281,1.38844 -5.60561,2.78059 -8.41213,4.17274 M 237.10042,96.6411 c 0,1.59208 11.82957,36.93268 12.70336,38.38778 0.13708,1.59579 0.27399,3.19157 0.41469,4.79106 5.06505,3.39151 8.49358,13.38092 10.43001,20.27503 0.97377,3.46185 7.80492,21.54868 7.80492,22.90012 0,0.7479 0,1.4921 0,2.24002 0,3.44706 -12.47751,1.31439 -12.47751,4.15793 0,0.31842 0,0.64054 0,0.95896 1.35143,0.31472 2.72135,0.47762 2.85835,1.77721 -1.59208,0.25918 -3.18417,0.51835 -4.77625,0.78123 0,0.53316 0,1.06633 0,1.59949 1.3144,0.11116 0.71459,0.31842 1.92161,0.31842 5.08727,0 7.20882,-0.61833 10.52998,2.26594 1.35513,1.1774 2.24002,1.81423 3.46556,3.25452 1.13297,1.33292 1.76611,3.48778 2.6436,4.07649 0,1.88087 1.7587,6.6016 1.9216,9.59323 0.22587,4.18756 0.92565,5.80186 0.12963,10.36707 -0.7405,4.2394 -0.80714,5.89442 -2.31407,9.20077 -0.48874,1.06633 -1.35142,2.93241 -2.0475,3.70253 -0.86639,0.96636 -3.09901,1.67354 -3.44335,2.6325 -1.17371,0 -2.34739,0 -3.5211,0 -3.08791,0 -8.04188,-3.44706 -10.17824,-4.85771 -1.59578,-1.05893 -2.651,-2.3363 -3.98391,-3.69143 -4.77255,-4.83919 -11.4334,-18.14607 -11.4334,-23.75168 0,-0.75532 3.18046,-4.08389 3.91728,-4.72073 1.3292,-1.14408 4.35416,-2.16227 4.40228,-4.23568 -0.37394,-0.1 -0.87379,-0.31843 -0.95894,-0.31843 -3.46927,0 -5.82407,3.51741 -7.03851,3.51741 -4.43192,0 -8.01226,-6.54606 -9.982,-9.53031 -1.57727,-2.39182 -6.0129,-10.39298 -6.31651,-13.73265 -1.37363,-5.01322 -2.75097,-10.02645 -4.1246,-15.03966 -0.44431,-1.73278 -0.88861,-3.46186 -1.33292,-5.19093 1.94382,-2.9028 9.04157,-4.95399 12.80333,-6.39057 2.34,-0.8923 4.32086,-1.83275 7.21252,-2.38442 2.32149,-0.44431 6.53866,-1.02931 6.53866,-3.38041 0,-2.79169 -2.74357,-2.24003 -4.48005,-2.24003 -0.74791,0 -1.49212,0 -2.24003,0 -0.8738,-3.27302 -9.00084,-1.91791 -12.79962,-1.91791 -0.47022,1.1663 -4.16165,2.12895 -5.5612,2.43997 -2.55844,0.57018 -4.06537,1.71797 -6.27949,1.71797 -0.65163,0 -1.95493,-1.83274 -2.55843,-2.24003 0,-3.25452 -2.59548,-14.95819 -4.15793,-15.9912 0,-2.15117 -6.93484,-17.56108 -7.93453,-20.85631 -1.7772,-5.85369 -6.14248,-16.11709 -6.14248,-22.96307 0,-7.97893 7.66053,-15.35436 15.35807,-15.35436 1.06633,0 2.13266,0 3.19898,0 3.3767,0 8.37141,1.91789 10.5596,3.19526 5.64265,3.29155 3.46927,2.43627 7.27917,6.79784 1.0404,1.19221 4.61334,6.84598 5.36866,8.38622 0.72569,1.47731 3.79878,9.11192 4.62815,9.44884 m 85.75047,-31.34557 c 1.98455,2.96203 3.19898,25.66961 3.08791,31.81209 -0.70719,0.58871 -1.41808,1.18112 -2.12526,1.76981 -0.31842,0 -0.64053,0 -0.95894,0 -0.7183,0 -0.70349,0.25177 -1.28108,0.61832 -1.91791,0.11472 -3.83952,0.22956 -5.75743,0.34434 0,4.51338 5.48344,3.01756 6.72009,8.31587 1.99196,0.16657 7.13847,3.99873 7.69385,5.74261 1.19221,3.76178 2.22891,6.1425 2.22521,11.21866 -0.003,9.19706 1.36994,16.63914 1.24404,25.90655 0.007,3.25453 1.69947,13.14027 -0.19623,17.8832 -0.63313,1.58098 -1.66242,2.58807 -3.28785,2.58807 -0.53315,0 -1.06631,0 -1.59948,0 0,0.31842 0,0.64053 0,0.95896 0,1.56617 5.52787,4.17644 6.83115,6.92372 0.96267,2.02527 2.7658,8.26772 2.7658,10.98908 0.0778,3.2064 0.15928,6.41647 0.23695,9.62287 -0.50353,4.03944 -1.01079,8.08261 -1.51803,12.12577 -1.42177,2.12524 -2.05119,3.75435 -4.32826,5.26869 -1.51803,1.00708 -4.81697,2.41034 -7.19029,2.41034 -0.74792,0 -1.49213,0 -2.24003,0 -9.90795,0 -18.87548,-18.06092 -18.87548,-28.46501 -0.19252,0 -0.38875,-0.003 -0.58129,-0.003 -0.12589,-1.81054 -0.25177,-3.62106 -0.37765,-5.4316 0,-0.31841 0,-0.64054 0,-0.95895 0,-5.48345 0.39987,-8.27515 6.10176,-8.9342 0.86269,-0.1 4.55781,0.19623 5.713,0.32213 3.29524,0.35544 6.82374,1.57726 10.5781,1.57726 0.52207,0 0.95896,-0.19252 0.95896,-0.64054 0,-2.2289 -4.82439,-4.26159 -6.78303,-4.73181 -5.82407,-1.39956 -9.30444,-2.6251 -15.29142,-2.6251 -0.21846,0.54057 -1.68094,1.27737 -2.24003,1.27737 -3.92838,0 -0.59241,-3.51739 1.59949,-3.51739 2.88057,-0.0153 5.76113,-0.0259 8.6454,-0.0371 2.45106,0.33323 4.90214,0.66645 7.35322,0.99598 0.73309,0.11098 0.86268,-0.23327 1.9216,-0.31843 0,-0.42579 0,-0.85158 0,-1.27736 -1.78832,-0.47764 -4.25421,-3.51741 -7.99745,-3.51741 -5.53527,0 -12.79964,2.87316 -12.79964,-3.51739 0,-0.78863 -3.88394,-9.50809 -4.35416,-11.95915 -0.77382,-4.02465 -3.00275,-9.65249 -2.95832,-13.66972 -0.22956,-0.30732 -0.45912,-0.61462 -0.68497,-0.92194 0,-4.73183 -1.18851,-8.50099 -0.14063,-13.25502 1.57357,-7.12737 5.35383,-7.3125 5.90552,-8.75278 1.27737,-0.12589 2.55474,-0.25548 3.83211,-0.38136 6.06844,-0.70347 14.03628,1.5995 19.46787,1.58838 0.12217,-0.63683 0.24437,-1.27366 0.37026,-1.9068 -3.38782,-1.79201 -5.11319,-2.24003 -10.23748,-2.24003 -1.85126,0 -11.18162,1.4625 -11.18162,0.31843 0,-2.16228 9.71911,-2.99534 12.15907,-3.199 0,-0.31841 0,-0.64052 0,-0.95893 0,-1.56248 -5.46861,-1.5995 -6.72008,-1.5995 -2.01786,0 -4.22086,0.51835 -5.43899,1.27737 -2.29557,1.43287 -2.13267,1.22554 -5.11689,1.92161 -1.14779,-2.16967 -3.73955,-5.05766 -4.45414,-7.70126 -0.78494,-2.86575 -2.27335,-5.41309 -3.09902,-9.05267 -1.42547,-6.28688 -3.00275,-14.214 -3.00275,-21.62645 0,-0.42579 0,-0.85158 0,-1.28107 0,-4.29123 0.81827,-10.39669 1.6106,-14.0622 0.89602,-4.13572 6.39426,-7.7901 6.70527,-8.9675 2.08452,-0.0481 4.23569,-2.55844 6.7201,-2.55844 2.55843,0 5.12058,0 7.67903,0 1.14407,0 5.5834,2.44737 6.4609,3.13603 1.26997,0.99229 3.43223,4.08389 4.26531,5.65006 1.52544,2.85835 3.98761,11.38156 3.98761,15.52097 M 131.87477,117.12 c 0.53315,0 1.06631,0 1.59948,0 5.22797,0 11.85178,4.42451 14.69903,7.05701 1.48841,1.37735 7.9234,10.38189 9.18966,12.56268 0.79604,1.36992 3.45075,5.40568 4.45784,6.41647 0.64793,0.65535 3.29524,5.65375 4.03204,6.84227 1.36254,2.18447 6.65715,12.71816 6.65715,15.41731 1.58467,1.05892 6.51274,9.37108 6.72008,11.83325 -0.77013,0.0185 -7.53094,1.69207 -8.51211,2.04381 -0.074,0.0259 -3.46185,1.59948 -3.70253,1.73278 -1.38103,0.74421 -2.43625,2.11414 -3.13603,2.29926 0,0.31842 0,0.64054 0,0.95896 4.8281,0.39988 6.5979,-2.24003 10.23748,-2.24003 -0.65905,2.82133 -4.15794,3.89505 -4.15794,6.07585 0,0.31842 0,0.64052 0,0.95894 0.53317,0 1.06633,0 1.5995,0 3.65069,0 9.20078,-4.79846 12.1591,-4.79846 1.21071,0 11.14459,15.01374 12.69965,17.05012 2.07712,2.72876 11.03722,15.65797 11.27789,18.73478 -1.38105,0.65164 -2.75838,1.30328 -4.13943,1.95493 0,0.64053 0,1.27738 0,1.9179 1.11817,0.25918 1.07745,0.64054 2.24004,0.64054 0.31841,0 0.64052,0 0.95894,0 5.01322,0 5.65005,-3.11012 5.75743,3.19898 5.20946,0.43319 12.05172,13.43275 14.40283,17.26487 1.91049,3.11012 5.4353,7.96414 5.4353,12.79963 0,0.42579 0,0.85159 0,1.28107 0,5.08358 -5.18724,10.5559 -10.23749,10.5559 -0.75161,0.0334 -1.50322,0.0666 -2.25483,0.1 -1.80682,-0.24807 -3.61736,-0.49243 -5.4242,-0.74051 -0.45541,-1.12556 -1.58468,-0.72568 -2.88797,-1.59207 -1.06632,-0.7109 -1.72538,-1.17002 -2.75467,-2.04381 -1.00709,-0.85527 -4.79847,-3.57663 -4.91696,-4.67998 -1.8994,-0.15928 -5.35015,-3.68031 -6.72749,-4.79107 -0.14436,-0.11844 -2.3437,-2.55844 -2.74726,-3.01015 -0.67387,-0.75161 -1.40327,-3.04348 -1.40327,-4.35417 0,-0.42579 0,-0.85158 0,-1.27737 0,-1.43288 0.91453,-1.78461 0.95896,-3.83952 1.9068,-0.50724 1.69945,-3.47296 3.14714,-4.48375 0.12217,-1.38475 0.24807,-2.76949 0.37025,-4.15053 0.96267,-1.4366 5.1206,-4.70962 5.1206,-6.07585 0,-0.7368 -0.22215,-0.95895 -0.95895,-0.95895 -0.64055,0 -1.28109,0 -1.92161,0 -3.62107,0 -5.59822,3.70252 -8.38253,4.73553 -3.55072,1.30698 -6.26096,5.82036 -7.61608,5.82036 -1.88459,0 -6.30541,-4.32455 -7.68273,-5.4316 -2.50663,-2.01048 -3.93209,-4.82809 -5.95367,-7.47909 -1.80684,-2.36963 -9.07859,-14.34359 -9.07859,-17.47222 0,-0.79234 4.39119,-5.64636 4.48006,-9.59324 -3.80249,0.31471 -4.77626,6.07583 -6.39797,6.07583 -0.61833,0 -1.28107,-0.57019 -1.28107,-0.95894 0,-4.42453 5.61673,-7.30138 6.39796,-10.23378 -0.38877,-0.21846 -0.34063,-0.31843 -0.95896,-0.31843 -1.25885,0 -7.00147,3.91728 -7.36062,4.79848 -0.31841,0 -0.64052,0 -0.95895,0 -0.71088,0 -1.3218,0.95895 -3.83952,0.95895 -0.19993,-0.54797 -1.6106,-1.72907 -2.28445,-2.83242 -0.88491,-1.44398 -1.55507,-1.87718 -1.55507,-3.88395 -1.51063,-2.25854 -1.81052,-5.70188 -2.9324,-7.62351 -0.51464,-0.88489 -1.34401,-2.74726 -1.7772,-3.34337 -0.94415,-1.29218 -0.82197,-2.4918 -1.64022,-3.79509 -2.09193,-3.33967 -4.44673,-11.46673 -7.26065,-13.85115 -1.95864,-1.65873 -3.5137,-0.21844 -6.41278,-4.14312 -1.3329,-1.80313 -2.9287,-4.49116 -4.07277,-6.48312 -1.36994,-2.38813 -2.52882,-4.35416 -3.68772,-6.86819 -0.85898,-1.86236 -2.13635,-6.76081 -2.85834,-7.95671 -0.23697,-1.70316 -0.47763,-3.40263 -0.7146,-5.10579 0,-0.10743 0,-0.21474 0,-0.31842 0,-3.79509 1.40326,-8.2307 3.27303,-10.16343 1.83275,-1.89198 4.8244,-5.19093 8.24553,-5.19093 0.31842,0 0.64054,0 0.95896,0 0,-0.21475 0,-0.42579 0,-0.64054 1.17369,0 2.3474,0 3.5211,0 0,0.21475 0,0.42579 0,0.64054 m -2.88058,252.66027 c 1.39956,0.0296 9.35258,5.12429 10.27082,6.04252 0.31471,0.31472 0.95154,1.49952 1.80683,2.3548 0.76642,0.77013 1.40696,1.24406 2.26223,1.8957 6.82005,5.17983 2.56586,-0.69607 6.77563,-0.69607 1.96974,0 4.20607,3.49887 5.25019,4.9873 0.82935,1.1848 5.02801,3.60625 6.9089,3.64698 -0.0481,-2.18078 -0.64054,-0.99969 -0.64054,-2.24002 0,-0.21475 0,-0.42579 0,-0.64054 0,-0.61833 0.57019,-1.27737 0.95896,-1.27737 4.40599,0 7.0459,9.28592 9.2452,8.74165 4.58002,-0.67756 9.16005,-1.35882 13.74008,-2.03638 0.0152,0.11098 0.0334,0.22215 0.0481,0.33322 0.22586,-0.1037 0.448,-0.21104 0.67387,-0.31472 5.4279,0.63685 10.8558,1.27737 16.2837,1.91422 3.75064,2.5103 10.23747,9.40811 10.23747,15.35436 1.12557,1.68095 1.28108,3.63958 1.28108,6.39797 0,2.48809 -0.95895,4.02835 -0.95895,6.71637 -1.88089,1.25887 -0.24807,2.05491 -1.97715,2.82133 -0.82197,0.36284 -2.79171,1.41065 -3.47297,1.41807 -1.27737,-0.13335 -2.55474,-0.26658 -3.82842,-0.39988 -4.09129,-2.73987 -9.01934,-4.48375 -14.92117,-5.56489 -2.79911,-0.51465 -6.33131,-1.00708 -8.83422,-1.40325 -1.81423,-0.2888 -7.89007,-1.66614 -8.57135,-1.66614 -0.64052,0 -1.82163,0.3147 -2.02527,-0.34434 -5.36497,-2.02898 -4.15053,-2.09933 -7.12366,-6.50164 -1.1737,-1.73647 -1.13668,-3.87654 -3.00645,-4.03203 -0.16657,0.71828 -0.31842,0.7368 -0.31842,1.59948 0.0152,0.1037 0.0334,0.20734 0.0481,0.31101 0.51836,4.16164 1.0367,8.31957 1.55136,12.48122 0.14809,1.01079 -0.22956,1.14038 -0.34434,2.18078 -0.31101,0.1259 -0.62573,0.25178 -0.93674,0.37766 -2.13636,-0.49984 -4.57632,-1.7624 -7.67533,-1.54765 -6.93483,0.3036 -13.86595,0.6035 -20.80078,0.9071 -3.88395,0 -6.74231,0.64055 -11.18164,0.64055 -4.19865,0 -9.81909,-2.55844 -13.7956,-2.51401 -0.30732,-0.22956 -0.61462,-0.45912 -0.92193,-0.68497 -4.35048,0 -13.70675,-5.43902 -16.37628,-7.6198 -4.13201,-3.3693 -8.26032,-8.68242 -8.26032,-16.05045 0,-9.71171 4.71331,-16.27258 10.82247,-19.88625 3.83952,-2.27335 5.16872,-3.77288 10.27821,-5.07616 3.91728,-0.99969 7.47912,-2.86206 12.81445,-2.86206 1.49582,-0.0259 2.99535,-0.0556 4.49116,-0.0815 3.41004,0.77383 6.81634,1.54765 10.22638,2.32147 m 288.27119,-268.98843 0,6.07585 c 0,6.13137 -4.61334,7.0348 -9.59695,7.0348 -2.13636,0 -6.39795,-1.21813 -6.39795,1.28107 1.01819,1.45879 0.35915,1.07373 3.06198,1.73649 2.18078,0.53315 3.98763,0.82196 6.21655,0.82196 0.73309,0 3.52109,-1.77351 3.52109,0 0,1.94011 -0.48132,5.11687 -2.55844,5.11687 -1.28478,0 -3.73955,-2.55843 -4.79847,-2.55843 -1.14038,0 -1.28107,0.27398 -1.28107,1.28106 0,1.37365 1.61429,1.52915 2.69543,2.10305 4.86883,2.57324 4.20977,12.44789 4.98361,17.40555 l 0,4.15795 c 0,5.68337 -1.8846,13.7956 -4.09129,17.33892 -2.41035,3.86173 -5.07618,10.80766 -10.94468,10.80766 -3.18786,0 -5.71669,-1.59948 -7.03849,-1.59948 -6.64233,0 -0.27028,4.15793 2.24002,4.15793 2.04381,0 5.75743,2.16598 5.75743,4.47635 0,2.68064 -3.41742,24.3367 -4.1098,25.9547 -0.38136,0.89601 -1.44398,4.66888 -1.66613,5.69079 -0.55169,2.50291 -1.08855,3.59514 -1.97346,5.70188 -0.76271,1.81423 -1.36251,3.0731 -3.33597,4.02094 -1.84016,0.8849 -3.28783,1.80683 -5.87219,1.80683 l -1.28109,0 c -2.13635,0 -7.6198,-4.13201 -8.3825,-5.69077 -1.46251,-2.98425 -2.81764,-7.24956 -2.82133,-11.57039 -0.003,-5.00211 -0.51836,-9.33037 -0.0152,-13.7845 0.27768,-2.44367 0.24806,-4.02465 0.72569,-6.3091 0.99598,-4.75776 2.14006,-8.6528 3.13604,-13.4957 l 0.64053,0 c 0,-3.30266 1.79203,-4.91326 2.83613,-6.76082 1.65133,-2.93239 -0.27399,-5.36495 -0.27399,-7.95302 0,-2.76578 0.88863,-9.61916 1.41808,-12.33311 0.81085,-4.15423 1.81054,-7.07923 2.93611,-10.81507 1.03669,-3.44335 2.54362,-6.5868 3.83211,-9.92277 0.68866,-1.78461 1.32549,-3.31376 1.96234,-4.75405 0.92932,-2.11414 0.39246,-3.62847 0.85527,-6.17951 0.73311,-4.01724 0.23326,-9.48216 0.51465,-13.24023 0.35174,-4.69849 0.62204,-8.88235 0.94786,-12.80332 0.5924,-7.14589 6.44238,-13.74378 14.0881,-13.74378 11.1446,0 14.07699,15.12851 14.07699,26.5471 m -151.01492,231.25968 0,0.31843 c 0,1.24033 -0.5924,0.0593 -0.64052,2.24002 -1.55877,0.41468 -1.96234,2.22522 -4.87623,3.12122 -2.18079,0.67016 -4.97249,0.19625 -7.60499,0.39248 -5.2872,0.39246 -7.73457,3.19898 -13.11435,3.19898 l -8.9601,0 c -1.56616,0 -2.38072,-0.44431 -3.12864,-1.34772 -0.25918,-0.31101 -1.35142,-2.87686 -1.35142,-3.12863 l 0,-1.28108 c 0,-1.11076 0.64054,-0.48872 0.64054,-1.59948 l 0,-0.95896 c 1.28847,-0.29991 1.49213,-0.95895 2.24003,-0.95895 2.28816,0 4.29863,1.27737 4.79847,1.27737 l 2.55845,0 c 3.60996,0 6.27577,-2.50661 8.96382,-2.30297 l 4.52077,0.32953 1.22923,1.01448 c 2.19931,0 2.46589,0.64054 3.83952,0.64054 1.4551,0 5.71301,-1.3292 6.07956,-2.24004 l 3.52109,0 c 0.74791,0 1.28108,0.52948 1.28108,1.27738 m 14.39911,-31.34558 -0.003,0.92194 -2.87316,0.35915 -1.28107,0 c -5.4242,0 -6.63863,-4.73184 -9.63766,-4.79107 l 0.35913,2.87315 0.0815,1.28478 -0.40358,5.10948 c -1.25886,1.87718 -3.65809,8.95641 -6.07955,8.95641 l -0.95896,0 c -0.7368,0 -0.95894,-0.22215 -0.95894,-0.95895 l 0,-0.95896 c 0,-5.86479 8.20849,-10.91133 5.12059,-16.95015 0,-5.36497 -3.11382,-7.93821 -3.19898,-11.83327 0.32582,0.24067 3.04348,4.38008 3.75064,5.20576 1.4366,1.67723 2.9213,3.00274 4.54671,4.4097 2.37332,2.0512 7.44208,6.28318 11.53707,6.37574 m 37.75095,-14.39171 -0.98488,7.3421 -1.57357,3.21379 c -0.99968,0.0852 -1.13667,0.31843 -2.24003,0.31843 -1.30699,0 -1.92162,-2.12526 -1.92162,-3.51741 l 0,-4.15793 c 0,-1.24775 1.57728,-3.22119 1.61061,-6.06473 0.0334,-2.65471 -0.20734,-5.15762 0.3073,-7.36803 2.73247,0.22585 5.30202,6.83856 4.79848,10.23378 m 36.15514,-12.4738 0.074,5.1243 -0.39248,4.15053 c -1.66243,1.11445 -0.34803,1.21811 -2.88056,2.55843 -1.9142,-0.44429 -2.55844,-0.85158 -2.55844,-3.19898 l 0,-2.24002 c 0,-1.53285 1.09224,-4.56522 1.21814,-6.1425 0.12962,-1.618 -0.89972,-3.87654 -0.89972,-6.3276 -1.72168,-0.69609 -0.1481,-3.38782 3.13233,0.38505 0.69238,0.79604 2.30667,4.22088 2.30667,5.69079"
     inkscape:connector-curvature="0"
     id="path11379"
     style="fill:#ffffff;fill-rule:evenodd" />
</svg>
