<?xml version="1.0" encoding="UTF-8" standalone="no"?>
<!-- Created with Inkscape (http://www.inkscape.org/) -->

<svg
   xmlns:dc="http://purl.org/dc/elements/1.1/"
   xmlns:cc="http://creativecommons.org/ns#"
   xmlns:rdf="http://www.w3.org/1999/02/22-rdf-syntax-ns#"
   xmlns:svg="http://www.w3.org/2000/svg"
   xmlns="http://www.w3.org/2000/svg"
   xmlns:sodipodi="http://sodipodi.sourceforge.net/DTD/sodipodi-0.dtd"
   xmlns:inkscape="http://www.inkscape.org/namespaces/inkscape"
   version="1.1"
   width="100%"
   height="100%"
   viewBox="0 0 512 512"
   id="svg2"
   inkscape:version="0.91+devel r13804 custom"
   sodipodi:docname="applications-games.svg">
  <sodipodi:namedview
     pagecolor="#ffffff"
     bordercolor="#666666"
     borderopacity="1"
     objecttolerance="10"
     gridtolerance="10"
     guidetolerance="10"
     inkscape:pageopacity="0"
     inkscape:pageshadow="2"
     inkscape:window-width="1366"
     inkscape:window-height="709"
     id="namedview96"
     showgrid="false"
     inkscape:zoom="0.4609375"
     inkscape:cx="169.22034"
     inkscape:cy="235.38983"
     inkscape:window-x="-2"
     inkscape:window-y="-3"
     inkscape:window-maximized="1"
     inkscape:current-layer="svg2" />
  <metadata
     id="metadata10">
    <rdf:RDF>
      <cc:Work
         rdf:about="">
        <dc:format>image/svg+xml</dc:format>
        <dc:type
           rdf:resource="http://purl.org/dc/dcmitype/StillImage" />
        <dc:title></dc:title>
      </cc:Work>
    </rdf:RDF>
  </metadata>
  <defs
     id="defs8">
    <clipPath
       id="clipPath13986">
      <path
         style="fill:#5c805a;fill-opacity:1;stroke:none"
         id="path13988"
         inkscape:connector-curvature="0"
         d="M 26,0 C 11.602648,0 0,11.602648 0,26 l 0,460 c 0,14.39735 11.602648,26 26,26 l 460,0 c 14.39735,0 26,-11.60265 26,-26 L 512,26 C 512,11.602648 500.39735,0 486,0 L 26,0 z" />
    </clipPath>
  </defs>
  <path
     d="M 26,0 C 11.602648,0 0,11.602648 0,26 l 0,460 c 0,14.39735 11.602648,26 26,26 l 460,0 c 14.39735,0 26,-11.60265 26,-26 L 512,26 C 512,11.602648 500.39735,0 486,0 L 26,0 Z"
     inkscape:connector-curvature="0"
     id="rect2986"
     style="fill:#009587;fill-opacity:1;stroke:none" />
  <text
     sodipodi:linespacing="125%"
     x="-646.2254"
     y="79.299461"
     id="text20"
     style="font-size:129.22999573px;line-height:125%;font-family:'Gentium Book Basic';letter-spacing:0;word-spacing:0">
    <tspan
       x="-646.2254"
       y="79.299461"
       id="tspan22" />
  </text>
  <text
     x="36.040649"
     y="-30.944624"
     transform="scale(4.0128205,0.24920128)"
     id="text24"
     style="font-size:46.95375824px;font-family:Arial;text-anchor:middle" />
  <text
     sodipodi:linespacing="125%"
     x="-64.955368"
     y="-0.70053941"
     id="text26"
     style="font-size:129.22999573px;line-height:125%;font-family:'Gentium Book Basic';letter-spacing:0;word-spacing:0">
    <tspan
       x="-64.955368"
       y="-0.70053941"
       id="tspan28" />
  </text>
  <text
     x="180.88991"
     y="-351.97299"
     transform="scale(4.0128205,0.24920128)"
     id="text30"
     style="font-size:46.95375824px;font-family:Arial;text-anchor:middle" />
  <text
     sodipodi:linespacing="125%"
     x="-1136.5354"
     y="-181.96153"
     id="text32"
     style="font-size:129.22999573px;line-height:125%;font-family:'Gentium Book Basic';letter-spacing:0;word-spacing:0">
    <tspan
       x="-1136.5354"
       y="-181.96153"
       id="tspan34" />
  </text>
  <text
     x="-86.148727"
     y="-1079.3292"
     transform="scale(4.0128205,0.24920128)"
     id="text36"
     style="font-size:46.95375824px;font-family:Arial;text-anchor:middle" />
  <text
     sodipodi:linespacing="125%"
     x="-38.485394"
     y="-398.43054"
     id="text38"
     style="font-size:129.22999573px;line-height:125%;font-family:'Gentium Book Basic';letter-spacing:0;word-spacing:0">
    <tspan
       x="-38.485394"
       y="-398.43054"
       id="tspan40" />
  </text>
  <text
     x="187.48985"
     y="-1947.9949"
     transform="scale(4.0128205,0.24920128)"
     id="text42"
     style="font-size:46.95375824px;font-family:Arial;text-anchor:middle" />
  <text
     sodipodi:linespacing="125%"
     x="542.78461"
     y="-478.44055"
     id="text44"
     style="font-size:129.22999573px;line-height:125%;font-family:'Gentium Book Basic';letter-spacing:0;word-spacing:0">
    <tspan
       x="542.78461"
       y="-478.44055"
       id="tspan46" />
  </text>
  <text
     x="332.33914"
     y="-2269.0332"
     transform="scale(4.0128205,0.24920128)"
     id="text48"
     style="font-size:46.95375824px;font-family:Arial;text-anchor:middle" />
  <text
     sodipodi:linespacing="125%"
     x="153.66463"
     y="-950.84058"
     id="text50"
     style="font-size:129.22999573px;line-height:125%;font-family:'Gentium Book Basic';letter-spacing:0;word-spacing:0">
    <tspan
       x="153.66463"
       y="-950.84058"
       id="tspan52" />
  </text>
  <text
     x="235.36961"
     y="-4164.6836"
     transform="scale(4.0128205,0.24920128)"
     id="text54"
     style="font-size:46.95375824px;font-family:Arial;text-anchor:middle" />
  <text
     sodipodi:linespacing="125%"
     x="734.92462"
     y="-1030.8406"
     id="text56"
     style="font-size:129.22999573px;line-height:125%;font-family:'Gentium Book Basic';letter-spacing:0;word-spacing:0">
    <tspan
       x="734.92462"
       y="-1030.8406"
       id="tspan58" />
  </text>
  <text
     x="380.2189"
     y="-4485.7119"
     transform="scale(4.0128205,0.24920128)"
     id="text60"
     style="font-size:46.95375824px;font-family:Arial;text-anchor:middle" />
  <text
     sodipodi:linespacing="125%"
     x="-1097.8754"
     y="383.87946"
     id="text62"
     style="font-size:208.33000183px;line-height:125%;font-family:'Gentium Book Basic';letter-spacing:0;word-spacing:0">
    <tspan
       x="-1097.8754"
       y="383.87946"
       id="tspan64" />
  </text>
  <path
     style="fill:#000000;opacity:0.25"
     d="M 420.14062 69.324219 C 416.12354 69.445523 412.23531 70.774416 409.41211 73.416016 C 401.4439 81.339211 390.59091 86.405885 376.1543 89.023438 C 373.3301 89.535504 363.32628 90.321516 353.91211 90.791016 C 322.5673 92.354246 305.46674 96.023865 287.14844 105.12305 C 262.79524 117.21986 245.7083 139.28242 240.9375 164.74219 C 239.01826 174.9846 240.0878 181.81436 244.50977 186.23633 L 279.75195 221.47852 C 277.29388 222.63212 274.82722 223.56815 272.17188 224.40039 C 263.03818 227.26307 248.78604 227.26307 239.65234 224.40039 C 228.68844 220.96407 220.9919 215.82443 203.7207 200.43359 C 183.8113 182.69172 172.42961 177.17803 155.38281 176.94727 C 139.72441 176.73531 123.69346 184.3602 107.00586 200.03125 C 66.760961 237.82472 41.293106 299.98881 41.003906 361.02344 C 40.936906 375.1208 41.873116 381.71595 45.541016 392.90039 C 50.473565 407.94119 58.621294 421.35568 67.783203 430.51758 L 149.26562 512 L 486 512 C 500.39735 512 512 500.39735 512 486 L 512 152.32227 L 434.28906 74.611328 C 430.68451 71.006776 425.30546 69.168257 420.14062 69.324219 z "
     id="path3541" />
  <path
     d="m 409.41278,73.415411 c -7.96821,7.923195 -18.82179,12.990658 -33.2584,15.60821 -2.8242,0.512066 -12.82753,1.29699 -22.2417,1.76649 -31.34481,1.56323 -48.44691,5.23347 -66.76521,14.332649 -24.3532,12.09681 -41.439,34.15922 -46.2098,59.61899 -2.5034,13.3599 0.077,20.91459 8.5515,24.89144 4.2356,1.98777 11.2777,1.6061 15.4567,-0.8431 4.8903,-2.86585 6.8886,-6.61555 8.5113,-16.01884 4.4261,-25.64717 24.6057,-41.64337 59.05698,-46.81195 3.29569,-0.49447 14.08399,-1.30638 23.96797,-1.80664 25.38836,-1.28495 37.48773,-3.66248 52.23193,-10.27775 10.10291,-4.53287 19.1834,-11.25535 26.68251,-19.360219 1.48752,-1.286276 2.11218,-2.872411 2.55552,-4.619913 4.70961,-18.741889 -18.56238,-25.814543 -28.5393,-16.479367 z M 155.38347,176.94659 c -15.6584,-0.21196 -31.6901,7.41374 -48.3777,23.08479 -40.244897,37.79347 -65.713297,99.95673 -66.002497,160.99136 -0.067,14.09736 0.8689,20.69265 4.5368,31.87709 8.2567,25.17711 25.5263,45.79847 41.4722,49.54198 11.0534,2.59486 25.630597,-1.47044 38.742397,-10.79967 3.1098,-2.21262 12.7709,-10.98037 21.4788,-19.47152 29.0834,-28.35893 38.8273,-35.71402 58.2139,-43.96148 15.1767,-6.45649 31.4316,-9.51496 50.4654,-9.51496 19.0336,0 35.3289,3.05847 50.5055,9.51496 19.3866,8.24746 29.13051,15.60255 58.21385,43.96148 8.70809,8.49115 18.36917,17.2589 21.47896,19.47152 11.39225,8.10575 24.39568,12.39268 34.56691,11.40188 20.62276,-2.00891 41.61711,-28.71843 48.85947,-62.14828 3.43247,-15.84356 0.59732,-51.40688 -6.14256,-77.00285 -11.28723,-42.86504 -31.20566,-78.15917 -58.57509,-103.86151 -16.68761,-15.67105 -32.67927,-23.29675 -48.33769,-23.08479 -17.04668,0.23076 -28.42805,5.7444 -48.33755,23.48627 -17.2713,15.39084 -25.0082,20.53172 -35.9721,23.96804 -9.1337,2.86268 -23.3858,2.86268 -32.5195,0 -10.9639,-3.43632 -18.6607,-8.5772 -35.9319,-23.96804 -19.9094,-17.74187 -31.2908,-23.25551 -48.3376,-23.48627 z m 201.78122,60.94386 c 4.67985,8.8e-4 9.44063,1.58128 13.40926,4.97828 11.46136,9.81049 9.82514,27.65204 -3.17172,34.68742 -4.08425,2.2109 -10.29522,3.4262 -13.48955,2.64973 -13.682,-3.32571 -20.84533,-14.52077 -17.2232,-26.8988 2.83756,-9.69647 11.54089,-15.41832 20.47521,-15.41663 z m -219.32572,4.37607 17.1028,0 17.1029,0 0,16.70135 0,16.6612 16.7013,0 16.7014,0 0,17.14297 0,17.10282 -16.7014,0 -16.7013,0 0,16.70135 0,16.6612 -17.1029,0 -17.1028,0 0,-16.6612 0,-16.70135 -16.7013,0 -16.7014,0 0,-17.10282 0,-17.14297 16.7014,0 16.7013,0 0,-16.6612 z m 186.0836,29.10692 c 4.2098,0.0103 11.11656,3.13228 14.45311,6.50389 10.96662,11.08195 6.65793,29.81238 -8.06971,35.00859 -13.7204,4.84082 -28.1107,-5.42086 -28.1433,-20.11388 -0.026,-11.73021 9.8421,-21.42725 21.7599,-21.3986 z m 66.76533,0.36132 c 3.51704,-0.005 7.03216,0.64622 9.43459,1.92708 7.52704,4.0132 11.72306,10.86694 11.72306,19.1102 0,8.66984 -4.42342,15.49502 -12.5661,19.35108 -2.7254,1.29056 -5.8262,2.00737 -8.55147,2.00737 -7.91567,0 -16.61116,-5.76504 -19.63218,-13.00778 -1.64328,-3.94026 -1.73321,-12.61625 -0.16059,-16.38016 1.68542,-4.03375 6.20956,-8.89313 10.27788,-11.04056 2.4384,-1.28713 5.95763,-1.96266 9.47481,-1.96723 z m -33.6838,33.68373 c 18.38009,0 27.97926,21.19818 15.85819,34.96845 -1.91976,2.18099 -5.04445,4.67683 -6.94545,5.54035 -4.15799,1.88874 -13.32099,2.07675 -17.26341,0.36133 -8.04196,-3.49917 -13.70102,-13.02474 -12.84719,-21.55919 1.11989,-11.19429 10.03622,-19.31094 21.19786,-19.31094 z"
     inkscape:connector-curvature="0"
     id="path3069"
     style="fill:#ffffff" />
</svg>
