<?xml version="1.0" encoding="UTF-8" standalone="no"?>
<!-- Created with Inkscape (http://www.inkscape.org/) -->

<svg
   xmlns:dc="http://purl.org/dc/elements/1.1/"
   xmlns:cc="http://creativecommons.org/ns#"
   xmlns:rdf="http://www.w3.org/1999/02/22-rdf-syntax-ns#"
   xmlns:svg="http://www.w3.org/2000/svg"
   xmlns="http://www.w3.org/2000/svg"
   xmlns:sodipodi="http://sodipodi.sourceforge.net/DTD/sodipodi-0.dtd"
   xmlns:inkscape="http://www.inkscape.org/namespaces/inkscape"
   version="1.1"
   width="100%"
   height="100%"
   viewBox="0 0 512 512"
   id="svg2"
   inkscape:version="0.91+devel r13804 custom"
   sodipodi:docname="applications-accessories.svg">
  <sodipodi:namedview
     pagecolor="#ffffff"
     bordercolor="#666666"
     borderopacity="1"
     objecttolerance="10"
     gridtolerance="10"
     guidetolerance="10"
     inkscape:pageopacity="0"
     inkscape:pageshadow="2"
     inkscape:window-width="1366"
     inkscape:window-height="709"
     id="namedview96"
     showgrid="false"
     inkscape:zoom="0.4609375"
     inkscape:cx="169.22034"
     inkscape:cy="235.38983"
     inkscape:window-x="-2"
     inkscape:window-y="-3"
     inkscape:window-maximized="1"
     inkscape:current-layer="svg2" />
  <metadata
     id="metadata10">
    <rdf:RDF>
      <cc:Work
         rdf:about="">
        <dc:format>image/svg+xml</dc:format>
        <dc:type
           rdf:resource="http://purl.org/dc/dcmitype/StillImage" />
        <dc:title />
      </cc:Work>
    </rdf:RDF>
  </metadata>
  <defs
     id="defs8" />
  <path
     d="M 26,0 C 11.60264,0 0,11.60265 0,26 l 0,460 c 0,14.39735 11.60264,26 26,26 l 460,0 c 14.39735,0 26,-11.60265 26,-26 L 512,26 C 512,11.60265 500.39735,0 486,0 L 26,0 Z"
     inkscape:connector-curvature="0"
     id="rect2986"
     style="fill:#cd6e72;fill-opacity:1;stroke:none" />
  <path
     inkscape:connector-curvature="0"
     style="opacity:0.25;fill:#000000"
     d="M 255.41406,111.75 86.83007,142.71289 c -1.92848,0.35381 -3.56774,1.61903 -4.39843,3.39649 l -40.84961,87.32031 c -1.167,2.49335 -0.4865,5.17366 1.21679,6.87695 l 35.48243,35.48242 2.20898,85.26953 c 0.0414,1.59971 0.70614,3.06357 1.77734,4.13477 L 229.07422,512 486,512 c 14.39735,0 26,-11.60265 26,-26 l 0,-257.97461 -83.63672,-83.63672 c -0.85869,-0.85869 -1.96691,-1.45288 -3.19336,-1.67773 L 256.58593,111.75 l 0.93554,2.10742 -2.10741,-2.10742 z"
     id="path3160" />
  <path
     d="m 244.09418,175.68424 -25.45198,61.81194 c -0.86285,2.09629 -2.82489,3.53671 -5.08061,3.73529 l -130.18265,11.4394 c -3.19409,0.28109 -5.62181,2.9969 -5.53511,6.20217 l 2.64729,102.18548 c 0.0727,2.81091 2.06552,5.20228 4.81769,5.78124 l 153.25726,32.2345 c 3.74647,0.78734 7.55587,1.17891 11.36388,1.16912 l 0.003,-30.30743 0,-193.09938 c 0,-8.43271 -2.6291,-8.95573 -5.83996,-1.15512 m -17.82197,190.56816 -57.53266,-9.2648 0,-30.15779 57.53266,0 0,39.42259 M 201.11271,226.52946 47.68765,242.03838 c -4.68764,0.47408 -8.10268,-4.34222 -6.10568,-8.60892 l 40.84902,-87.31985 c 0.83069,-1.77745 2.47108,-3.04305 4.39956,-3.39686 l 168.58416,-30.96191 -49.36565,111.21954 c -0.88382,1.9914 -2.76754,3.3563 -4.93656,3.57446 m 227.51549,26.13023 -130.18266,-11.43941 c -2.25851,-0.19858 -4.22334,-1.63899 -5.0806,-3.73528 l -25.45337,-61.81194 c -3.21227,-7.80061 -5.83997,-7.28039 -5.83997,1.15513 l 0,193.09937 0.003,30.30743 c 3.80801,0.01 7.61602,-0.38178 11.36389,-1.16911 l 153.25726,-32.23451 c 2.75077,-0.57896 4.74357,-2.97173 4.81769,-5.78123 l 2.64729,-102.18549 c 0.0825,-3.20387 -2.34242,-5.92108 -5.53511,-6.20077 m -53.57501,54.5819 -7.19088,0.19998 -0.14544,45.25417 c -0.007,1.99281 -2.03056,3.89891 -4.54919,4.26111 l -11.78482,1.69493 c -2.69204,0.38738 -4.89461,-0.9929 -4.89042,-3.085 l 0.11048,-47.53366 -8.22434,0.22795 c -3.9996,0.11048 -6.52942,-3.09619 -4.49327,-5.74907 l 19.55888,-25.48834 c 1.85296,-2.41514 6.40075,-2.19278 8.18658,0.35242 l 17.1675,24.47025 c 1.62781,2.32005 -0.42933,5.30576 -3.74787,5.39806 m 89.26511,-65.2116 -153.42507,-15.50892 c -2.16901,-0.21816 -4.05273,-1.58306 -4.93657,-3.57446 L 256.58522,111.74944 425.1696,142.71135 c 1.92987,0.35381 3.56887,1.61942 4.39955,3.39686 l 40.84902,87.31985 c 1.997,4.2667 -1.41943,9.083 -6.10707,8.60892"
     inkscape:connector-curvature="0"
     id="path3050"
     style="fill:#ffffff" />
</svg>
