<?xml version="1.0" encoding="UTF-8" standalone="no"?>
<!-- Created with Inkscape (http://www.inkscape.org/) -->

<svg
   xmlns:dc="http://purl.org/dc/elements/1.1/"
   xmlns:cc="http://creativecommons.org/ns#"
   xmlns:rdf="http://www.w3.org/1999/02/22-rdf-syntax-ns#"
   xmlns:svg="http://www.w3.org/2000/svg"
   xmlns="http://www.w3.org/2000/svg"
   xmlns:sodipodi="http://sodipodi.sourceforge.net/DTD/sodipodi-0.dtd"
   xmlns:inkscape="http://www.inkscape.org/namespaces/inkscape"
   version="1.1"
   width="100%"
   height="100%"
   viewBox="0 0 512 512"
   id="svg2"
   inkscape:version="0.91+devel r13804 custom"
   sodipodi:docname="applications-libraries.svg">
  <sodipodi:namedview
     pagecolor="#ffffff"
     bordercolor="#666666"
     borderopacity="1"
     objecttolerance="10"
     gridtolerance="10"
     guidetolerance="10"
     inkscape:pageopacity="0"
     inkscape:pageshadow="2"
     inkscape:window-width="1366"
     inkscape:window-height="709"
     id="namedview97"
     showgrid="false"
     inkscape:zoom="0.4609375"
     inkscape:cx="-8.6779661"
     inkscape:cy="237.55932"
     inkscape:window-x="-2"
     inkscape:window-y="-3"
     inkscape:window-maximized="1"
     inkscape:current-layer="svg2" />
  <metadata
     id="metadata10">
    <rdf:RDF>
      <cc:Work
         rdf:about="">
        <dc:format>image/svg+xml</dc:format>
        <dc:type
           rdf:resource="http://purl.org/dc/dcmitype/StillImage" />
        <dc:title></dc:title>
      </cc:Work>
    </rdf:RDF>
  </metadata>
  <defs
     id="defs8" />
  <path
     d="M 26,0 C 11.602648,0 0,11.602648 0,26 l 0,460 c 0,14.39735 11.602648,26 26,26 l 460,0 c 14.39735,0 26,-11.60265 26,-26 L 512,26 C 512,11.602648 500.39735,0 486,0 L 26,0 Z"
     inkscape:connector-curvature="0"
     id="rect2986"
     style="fill:#924565;fill-opacity:1;stroke:none" />
  <text
     sodipodi:linespacing="125%"
     x="-195.21109"
     y="82.367584"
     id="text7195"
     style="font-size:129.22999573px;line-height:125%;font-family:'Gentium Book Basic';letter-spacing:0;word-spacing:0">
    <tspan
       x="-195.21109"
       y="82.367584"
       id="tspan7197" />
  </text>
  <text
     x="148.43399"
     y="-18.632811"
     transform="scale(4.0128205,0.24920128)"
     id="text7199"
     style="font-size:46.95375824px;font-family:Arial;text-anchor:middle" />
  <text
     sodipodi:linespacing="125%"
     x="386.05893"
     y="2.3675807"
     id="text7201"
     style="font-size:129.22999573px;line-height:125%;font-family:'Gentium Book Basic';letter-spacing:0;word-spacing:0">
    <tspan
       x="386.05893"
       y="2.3675807"
       id="tspan7203" />
  </text>
  <text
     x="293.28326"
     y="-339.66116"
     transform="scale(4.0128205,0.24920128)"
     id="text7205"
     style="font-size:46.95375824px;font-family:Arial;text-anchor:middle" />
  <text
     sodipodi:linespacing="125%"
     x="-685.52112"
     y="-178.89342"
     id="text7207"
     style="font-size:129.22999573px;line-height:125%;font-family:'Gentium Book Basic';letter-spacing:0;word-spacing:0">
    <tspan
       x="-685.52112"
       y="-178.89342"
       id="tspan7209" />
  </text>
  <text
     x="26.24461"
     y="-1067.0175"
     transform="scale(4.0128205,0.24920128)"
     id="text7211"
     style="font-size:46.95375824px;font-family:Arial;text-anchor:middle" />
  <text
     sodipodi:linespacing="125%"
     x="412.5289"
     y="-395.36243"
     id="text7213"
     style="font-size:129.22999573px;line-height:125%;font-family:'Gentium Book Basic';letter-spacing:0;word-spacing:0">
    <tspan
       x="412.5289"
       y="-395.36243"
       id="tspan7215" />
  </text>
  <text
     x="299.88318"
     y="-1935.6831"
     transform="scale(4.0128205,0.24920128)"
     id="text7217"
     style="font-size:46.95375824px;font-family:Arial;text-anchor:middle" />
  <text
     sodipodi:linespacing="125%"
     x="993.79889"
     y="-475.37244"
     id="text7219"
     style="font-size:129.22999573px;line-height:125%;font-family:'Gentium Book Basic';letter-spacing:0;word-spacing:0">
    <tspan
       x="993.79889"
       y="-475.37244"
       id="tspan7221" />
  </text>
  <text
     x="444.73248"
     y="-2256.7214"
     transform="scale(4.0128205,0.24920128)"
     id="text7223"
     style="font-size:46.95375824px;font-family:Arial;text-anchor:middle" />
  <text
     sodipodi:linespacing="125%"
     x="604.67889"
     y="-947.77246"
     id="text7225"
     style="font-size:129.22999573px;line-height:125%;font-family:'Gentium Book Basic';letter-spacing:0;word-spacing:0">
    <tspan
       x="604.67889"
       y="-947.77246"
       id="tspan7227" />
  </text>
  <text
     x="347.76294"
     y="-4152.3716"
     transform="scale(4.0128205,0.24920128)"
     id="text7229"
     style="font-size:46.95375824px;font-family:Arial;text-anchor:middle" />
  <text
     sodipodi:linespacing="125%"
     x="1185.939"
     y="-1027.7725"
     id="text7231"
     style="font-size:129.22999573px;line-height:125%;font-family:'Gentium Book Basic';letter-spacing:0;word-spacing:0">
    <tspan
       x="1185.939"
       y="-1027.7725"
       id="tspan7233" />
  </text>
  <text
     x="492.61224"
     y="-4473.3999"
     transform="scale(4.0128205,0.24920128)"
     id="text7235"
     style="font-size:46.95375824px;font-family:Arial;text-anchor:middle" />
  <text
     sodipodi:linespacing="125%"
     x="-646.86115"
     y="386.94757"
     id="text7237"
     style="font-size:208.33000183px;line-height:125%;font-family:'Gentium Book Basic';letter-spacing:0;word-spacing:0">
    <tspan
       x="-646.86115"
       y="386.94757"
       id="tspan7239" />
  </text>
  <path
     style="fill:#000000;opacity:0.25"
     d="M 345.96875 41 C 344.55388 40.94572 343.09843 41.119764 341.65625 41.5 L 289.28125 55.375 C 284.88303 56.576021 281.52338 59.622273 279.82812 63.435547 L 261.82812 45.435547 C 259.219 42.826429 255.58352 41.21875 251.53125 41.21875 L 197.3125 41.21875 C 189.33116 41.21875 182.9375 47.559834 182.9375 55.46875 L 182.9375 74.966797 L 153.39062 45.419922 C 150.79046 42.819755 147.1694 41.21875 143.125 41.21875 L 61.8125 41.21875 C 53.831157 41.21875 47.4375 47.559834 47.4375 55.46875 L 47.4375 456.71875 C 47.4375 460.65653 49.017525 464.19917 51.585938 466.76758 L 96.818359 512 L 486 512 C 500.39735 512 512 500.39735 512 486 L 512 201.60352 L 355.58203 45.185547 C 353.05752 42.661038 349.62735 41.14035 345.96875 41 z "
     id="path7367" />
  <path
     d="m 345.96875,41 c -1.41487,-0.05428 -2.87032,0.119764 -4.3125,0.5 l -52.375,13.875 c -7.69164,2.100353 -12.22991,9.835052 -10.1875,17.46875 L 383.875,460.4375 c 2.10035,7.6337 9.96461,12.09043 17.65625,10.0625 L 453.875,456.65625 c 7.74958,-2.10035 12.28786,-9.8663 10.1875,-17.5 L 359.25,51.5625 C 357.59054,45.348351 352.09987,41.235201 345.96875,41 Z M 61.8125,41.21875 c -7.981343,0 -14.375,6.341084 -14.375,14.25 l 0,401.25 c 0,7.9234 6.393657,14.25 14.375,14.25 l 81.3125,0 c 8.03929,0 14.40625,-6.3266 14.40625,-14.25 l 0,-401.25 c 0,-7.923401 -6.36696,-14.25 -14.40625,-14.25 l -81.3125,0 z m 135.5,0 c -7.98134,0 -14.375,6.341084 -14.375,14.25 l 0,401.25 c 0,7.9234 6.39366,14.25 14.375,14.25 l 54.21875,0 c 8.03929,0 14.4375,-6.3266 14.4375,-14.25 l 0,-401.25 c 0,-7.923401 -6.39821,-14.25 -14.4375,-14.25 l -54.21875,0 z m 154.875,39.21875 42.03125,155.65625 -52.3125,13.9375 -42.125,-155.71875 52.40625,-13.875 z M 75.375,81.5 l 54.21875,0 0,161.15625 -54.21875,0 0,-161.15625 z m 121.9375,0 54.21875,0 0,161.15625 -54.21875,0 0,-161.15625 z M 395.875,319.9375 c 12.06348,-0.11833 23.16745,7.86228 26.40625,19.9375 3.911,14.31137 -4.69775,29.10885 -19.125,32.875 -14.48519,3.83858 -29.30775,-4.65738 -33.21875,-18.96875 -3.83858,-14.31137 4.7023,-29.09664 19.1875,-32.90625 2.25652,-0.60204 4.51602,-0.91559 6.75,-0.9375 z M 102.46875,323.25 c 14.93424,0 27.125,12.05665 27.125,26.875 0,14.83284 -12.17628,26.875 -27.125,26.875 C 87.476576,377 75.375,364.95784 75.375,350.125 c 0,-14.81835 12.101576,-26.875 27.09375,-26.875 z m 121.9375,0 c 14.99218,0 27.125,12.05665 27.125,26.875 0,14.83284 -12.13282,26.875 -27.125,26.875 -14.93423,0 -27.09375,-12.04216 -27.09375,-26.875 0,-14.81835 12.15952,-26.875 27.09375,-26.875 z"
     inkscape:connector-curvature="0"
     id="path7243"
     style="fill:#ffffff" />
</svg>
