<?xml version="1.0" encoding="UTF-8" standalone="no"?>
<!-- Created with Inkscape (http://www.inkscape.org/) -->

<svg
   xmlns:dc="http://purl.org/dc/elements/1.1/"
   xmlns:cc="http://creativecommons.org/ns#"
   xmlns:rdf="http://www.w3.org/1999/02/22-rdf-syntax-ns#"
   xmlns:svg="http://www.w3.org/2000/svg"
   xmlns="http://www.w3.org/2000/svg"
   xmlns:sodipodi="http://sodipodi.sourceforge.net/DTD/sodipodi-0.dtd"
   xmlns:inkscape="http://www.inkscape.org/namespaces/inkscape"
   version="1.1"
   width="100%"
   height="100%"
   viewBox="0 0 512 512"
   id="svg2"
   inkscape:version="0.91+devel r13804 custom"
   sodipodi:docname="applications-education-miscellaneous.svg">
  <sodipodi:namedview
     pagecolor="#ffffff"
     bordercolor="#666666"
     borderopacity="1"
     objecttolerance="10"
     gridtolerance="10"
     guidetolerance="10"
     inkscape:pageopacity="0"
     inkscape:pageshadow="2"
     inkscape:window-width="1366"
     inkscape:window-height="709"
     id="namedview96"
     showgrid="false"
     inkscape:zoom="0.4609375"
     inkscape:cx="169.22034"
     inkscape:cy="235.38983"
     inkscape:window-x="-2"
     inkscape:window-y="-3"
     inkscape:window-maximized="1"
     inkscape:current-layer="svg2" />
  <metadata
     id="metadata10">
    <rdf:RDF>
      <cc:Work
         rdf:about="">
        <dc:format>image/svg+xml</dc:format>
        <dc:type
           rdf:resource="http://purl.org/dc/dcmitype/StillImage" />
        <dc:title></dc:title>
      </cc:Work>
    </rdf:RDF>
  </metadata>
  <defs
     id="defs8" />
  <path
     d="M 26,0 C 11.602648,0 0,11.602648 0,26 l 0,460 c 0,14.39735 11.602648,26 26,26 l 460,0 c 14.39735,0 26,-11.60265 26,-26 L 512,26 C 512,11.602648 500.39735,0 486,0 L 26,0 Z"
     inkscape:connector-curvature="0"
     id="rect2986"
     style="fill:#9a3034;fill-opacity:1;stroke:none" />
  <text
     sodipodi:linespacing="125%"
     x="28.761984"
     y="-322.62482"
     id="text8781"
     style="font-size:129.22999573px;line-height:125%;font-family:'Gentium Book Basic';letter-spacing:0;word-spacing:0">
    <tspan
       x="28.761984"
       y="-322.62482"
       id="tspan8783" />
  </text>
  <text
     x="204.24837"
     y="-1643.7834"
     transform="scale(4.0128205,0.24920128)"
     id="text8785"
     style="font-size:46.95375824px;font-family:Arial;text-anchor:middle" />
  <text
     sodipodi:linespacing="125%"
     x="610.03198"
     y="-402.62482"
     id="text8787"
     style="font-size:129.22999573px;line-height:125%;font-family:'Gentium Book Basic';letter-spacing:0;word-spacing:0">
    <tspan
       x="610.03198"
       y="-402.62482"
       id="tspan8789" />
  </text>
  <text
     x="349.09763"
     y="-1964.8217"
     transform="scale(4.0128205,0.24920128)"
     id="text8791"
     style="font-size:46.95375824px;font-family:Arial;text-anchor:middle" />
  <text
     sodipodi:linespacing="125%"
     x="-461.54803"
     y="-583.88483"
     id="text8793"
     style="font-size:129.22999573px;line-height:125%;font-family:'Gentium Book Basic';letter-spacing:0;word-spacing:0">
    <tspan
       x="-461.54803"
       y="-583.88483"
       id="tspan8795" />
  </text>
  <text
     x="82.05899"
     y="-2692.168"
     transform="scale(4.0128205,0.24920128)"
     id="text8797"
     style="font-size:46.95375824px;font-family:Arial;text-anchor:middle" />
  <text
     sodipodi:linespacing="125%"
     x="636.50195"
     y="-800.3548"
     id="text8799"
     style="font-size:129.22999573px;line-height:125%;font-family:'Gentium Book Basic';letter-spacing:0;word-spacing:0">
    <tspan
       x="636.50195"
       y="-800.3548"
       id="tspan8801" />
  </text>
  <text
     x="355.69757"
     y="-3560.8435"
     transform="scale(4.0128205,0.24920128)"
     id="text8803"
     style="font-size:46.95375824px;font-family:Arial;text-anchor:middle" />
  <text
     sodipodi:linespacing="125%"
     x="1217.772"
     y="-880.3548"
     id="text8805"
     style="font-size:129.22999573px;line-height:125%;font-family:'Gentium Book Basic';letter-spacing:0;word-spacing:0">
    <tspan
       x="1217.772"
       y="-880.3548"
       id="tspan8807" />
  </text>
  <text
     x="500.54688"
     y="-3881.8718"
     transform="scale(4.0128205,0.24920128)"
     id="text8809"
     style="font-size:46.95375824px;font-family:Arial;text-anchor:middle" />
  <text
     sodipodi:linespacing="125%"
     x="828.65198"
     y="-1352.7548"
     id="text8811"
     style="font-size:129.22999573px;line-height:125%;font-family:'Gentium Book Basic';letter-spacing:0;word-spacing:0">
    <tspan
       x="828.65198"
       y="-1352.7548"
       id="tspan8813" />
  </text>
  <text
     x="403.57733"
     y="-5777.522"
     transform="scale(4.0128205,0.24920128)"
     id="text8815"
     style="font-size:46.95375824px;font-family:Arial;text-anchor:middle" />
  <text
     sodipodi:linespacing="125%"
     x="1409.912"
     y="-1432.7648"
     id="text8817"
     style="font-size:129.22999573px;line-height:125%;font-family:'Gentium Book Basic';letter-spacing:0;word-spacing:0">
    <tspan
       x="1409.912"
       y="-1432.7648"
       id="tspan8819" />
  </text>
  <text
     x="548.42664"
     y="-6098.5605"
     transform="scale(4.0128205,0.24920128)"
     id="text8821"
     style="font-size:46.95375824px;font-family:Arial;text-anchor:middle" />
  <text
     sodipodi:linespacing="125%"
     x="-422.88803"
     y="-18.044752"
     id="text8823"
     style="font-size:208.33000183px;line-height:125%;font-family:'Gentium Book Basic';letter-spacing:0;word-spacing:0">
    <tspan
       x="-422.88803"
       y="-18.044752"
       id="tspan8825" />
  </text>
  <path
     style="fill:#000000;fill-rule:evenodd;opacity:0.25"
     d="M 249.14648 41 L 229.13281 91.769531 L 213.10938 75.746094 L 196.94336 116.76758 L 195.27539 115.90625 L 177.75977 98.390625 L 176.83594 106.39258 L 134.00586 84.273438 L 163.92773 153.08398 L 97.972656 119.02148 L 124.5957 180.19141 L 77.742188 169.97656 L 95.517578 192.29688 L 83.169922 196.23828 L 100.82812 213.89648 L 47.136719 230.98438 L 87.986328 271.83398 L 57.626953 291.30859 L 97.910156 331.5918 L 90.402344 346.125 L 99.460938 355.18164 L 99.460938 355.18359 L 81.720703 374.47852 L 219.24219 512 L 486 512 C 500.39735 512 512 500.39735 512 486 L 512 242.69141 L 361.14648 91.837891 L 318.52539 110.37891 L 249.14648 41 z "
     id="path8936" />
  <path
     d="m 249.14557,41 -26.06139,66.1153 -9.97388,-31.368698 -16.1667,41.021498 -11.05954,-5.71047 -8.12366,-12.667854 -0.92439,8.002724 -42.82995,-22.119071 29.92164,68.810711 -65.955485,-34.06267 26.622945,61.1694 -46.85292,-10.21434 17.77502,22.32065 -12.346764,3.94088 22.520794,8.88823 4.62481,5.75079 -63.179437,20.10758 50.466949,19.86714 -27.347183,1.16628 22.48047,16.77 -35.109446,22.52079 57.709427,6.55566 -24.933988,48.25965 28.955508,-12.58722 -37.637839,40.94086 52.844159,-7.68163 -4.50387,20.71089 -4.5845,4.98622 48.05807,-6.9977 2.85523,67.48316 40.70473,-54.5331 3.05681,72.55434 43.15248,-57.82461 0.6033,14.07603 7.92209,-10.57718 27.0261,24.85335 -3.74075,-25.61792 47.49509,43.64204 -13.19052,-90.81171 5.51033,-0.2419 51.43741,47.29495 -7.15897,-49.14229 3.94089,-0.16126 5.14748,2.65366 -1.24691,-2.81492 34.06267,-1.45426 -47.25463,-35.26927 -0.68393,-4.62481 91.69002,-3.86026 -67.75962,-50.55334 42.0294,-13.3921 -28.9987,-11.42093 43.31086,-47.09337 -51.27614,7.43973 -32.73657,-12.86943 26.46311,-51.19551 -35.59179,15.48277 -1.56801,-37.36138 -39.73426,53.20699 42.14458,-81.524639 -62.12978,27.026099 0.0806,-0.36141 -0.88407,0.72425 -4.74576,2.05036 -9.57217,-30.081474 -10.3756,26.342164 -24.371,-76.528341"
     inkscape:connector-curvature="0"
     id="path8827"
     style="fill:#ffffff;fill-rule:evenodd" />
</svg>
