<?xml version="1.0" encoding="UTF-8" standalone="no"?>
<!-- Created with Inkscape (http://www.inkscape.org/) -->

<svg
   xmlns:dc="http://purl.org/dc/elements/1.1/"
   xmlns:cc="http://creativecommons.org/ns#"
   xmlns:rdf="http://www.w3.org/1999/02/22-rdf-syntax-ns#"
   xmlns:svg="http://www.w3.org/2000/svg"
   xmlns="http://www.w3.org/2000/svg"
   xmlns:sodipodi="http://sodipodi.sourceforge.net/DTD/sodipodi-0.dtd"
   xmlns:inkscape="http://www.inkscape.org/namespaces/inkscape"
   version="1.1"
   width="100%"
   height="100%"
   viewBox="0 0 512 512"
   id="svg2"
   inkscape:version="0.91+devel r13804 custom"
   sodipodi:docname="preferences-other.svg">
  <sodipodi:namedview
     pagecolor="#ffffff"
     bordercolor="#666666"
     borderopacity="1"
     objecttolerance="10"
     gridtolerance="10"
     guidetolerance="10"
     inkscape:pageopacity="0"
     inkscape:pageshadow="2"
     inkscape:window-width="1366"
     inkscape:window-height="709"
     id="namedview97"
     showgrid="false"
     inkscape:zoom="0.4609375"
     inkscape:cx="154.0339"
     inkscape:cy="239.72881"
     inkscape:window-x="-2"
     inkscape:window-y="-3"
     inkscape:window-maximized="1"
     inkscape:current-layer="svg2" />
  <metadata
     id="metadata10">
    <rdf:RDF>
      <cc:Work
         rdf:about="">
        <dc:format>image/svg+xml</dc:format>
        <dc:type
           rdf:resource="http://purl.org/dc/dcmitype/StillImage" />
        <dc:title></dc:title>
      </cc:Work>
    </rdf:RDF>
  </metadata>
  <defs
     id="defs8">
    <clipPath
       clipPathUnits="userSpaceOnUse"
       id="clipPath3776">
      <path
         d="M 26,0 C 11.60265,0 0,11.602648 0,26 l 0,460 c 0,14.39735 11.60265,26 26,26 l 460,0 c 14.39735,0 26,-11.60265 26,-26 L 512,26 C 512,11.602648 500.39735,0 486,0 L 26,0 z"
         inkscape:connector-curvature="0"
         id="path3778"
         style="fill:#dd4051;fill-opacity:1;stroke:none" />
    </clipPath>
    <clipPath
       id="clipPath3251">
      <path
         style="fill:#7ecb4e;fill-rule:evenodd"
         id="path3253"
         inkscape:connector-curvature="0"
         d="m 471.95,253.05 c 0,120.9 -98.01,218.9 -218.9,218.9 -120.9,0 -218.9,-98.01 -218.9,-218.9 0,-120.9 98.01,-218.9 218.9,-218.9 120.9,0 218.9,98.01 218.9,218.9" />
    </clipPath>
  </defs>
  <path
     d="m 26.000001,3e-6 c -14.39735,0 -26,11.60265 -26,25.999995 L 10e-7,486 c 0,14.39735 11.60265,26 26,26 L 486,512 c 14.39735,0 26,-11.60265 26,-26 L 512,25.999998 C 512,11.602653 500.39735,3e-6 486,3e-6 l -459.999999,0 z"
     inkscape:connector-curvature="0"
     id="rect2986-4"
     style="fill:#cd1d31;fill-opacity:1;stroke:none" />
  <path
     inkscape:connector-curvature="0"
     style="opacity:0.25;fill:#000000;fill-opacity:0.969"
     d="m 327.06197,42.968458 c -9.88711,0.13448 -13.58536,4.11723 -18.3125,15.28125 -4.72114,11.13146 -7.28875,13.68119 -16.53125,16.4375 -19.14374,5.70734 -24.74894,6.5889 -27.8125,4.375 -19.28029,-13.9295 -21.48065,-14.03689 -36.9375,-1.4375 -14.32524,11.67514 -15.06682,13.85392 -9.625,27.812502 4.95505,12.70811 4.37568,17.24959 -4.15625,32.25 -7.75055,13.63111 -11.04018,16.30222 -20.15625,16.4375 -11.05433,0.16311 -18.07,8.82095 -19.5,24.03125 -1.03738,11.03447 -0.62002,16.4835 3.39648,20.5 l 29.00782,29.00781 c 0.29878,1.05843 0.59894,2.1582 0.9082,3.33594 3.39481,12.93065 2.92044,16.53013 -3.5,26.53125 -7.31181,11.38686 -6.6396,15.9406 4.4375,29.53125 2.33506,2.86502 4.34448,5.18433 6.16992,7.00976 l 217.92774,217.92774 53.62109,0 c 14.39735,0 26,-11.60265 26,-26 l 0,-314.56055 -81.60352,-81.603522 c -6.80042,-6.80042 -11.47008,-6.39722 -22.02148,-2.02343 -5.78939,2.40082 -9.46044,3.66892 -13.11133,3.61328 L 354.2397,50.403998 c -3.39168,-3.39168 -8.34203,-5.48887 -14.95898,-6.40429 -4.93608,-0.68276 -8.92305,-1.07608 -12.21875,-1.03125 z M 164.3022,270.20478 c -0.40532,-0.0151 -0.79746,-0.0114 -1.17773,0.0137 -3.91138,0.25774 -6.5865,2.65928 -10.3125,7.6875 -4.95505,6.69102 -7.08716,7.99352 -13.71875,8.34375 -10.33859,0.54735 -15.10303,0.50118 -17.55469,-0.39648 l -7.41601,-7.41602 c -6.09434,-6.09435 -9.03282,-5.38816 -18.841799,-0.6875 -11.4741,5.49999 -12.32324,6.84644 -10.9375,17.0625 1.26184,9.30572 0.13492,12.24536 -8,20.90626 -7.39147,7.87067 -10.03293,9.13321 -16.15625,7.75 -7.42435,-1.67655 -13.48994,2.98696 -16.90625,12.9375 -3.06542,8.9305 -3.26087,12.49694 0.86523,16.62304 l 10.94141,10.94141 c 1.36716,3.03492 1.78816,6.91574 1.91211,13.18555 0.18207,9.20204 -0.71157,11.532 -6.625,17.1875 -6.734,6.43562 -6.99802,9.58258 -1.78125,20.46875 2.08618,4.35295 3.70139,7.20334 5.44531,8.94726 l 88.240239,88.24024 280.81836,0 -196.25977,-196.25977 c -2.17223,-2.17223 -4.65796,-2.69934 -8.50781,-2.38086 l -35.67774,-35.67773 c -1.73738,-1.73738 -4.1049,-3.18377 -7.12109,-4.36914 -4.88903,-1.92154 -8.39123,-3.0015 -11.22852,-3.10743 z"
     id="path8783" />
  <path
     d="m 327.0625,42.968748 c -9.88711,0.13448 -13.58536,4.11723 -18.3125,15.28125 -4.72114,11.13146 -7.28875,13.68119 -16.53125,16.4375 -19.14374,5.70734 -24.74894,6.5889 -27.8125,4.375 -19.28029,-13.9295 -21.48065,-14.03689 -36.9375,-1.4375 -14.32524,11.67514 -15.06682,13.85392 -9.625,27.812502 4.95505,12.70812 4.37568,17.24959 -4.15625,32.25 -7.75055,13.63111 -11.04018,16.30222 -20.15625,16.4375 -11.05433,0.16311 -18.07,8.82095 -19.5,24.03125 -1.61206,17.14731 0.28705,20.80458 13.75,26.5625 12.05824,5.15734 15.07906,9.20728 19.5625,26.28125 3.39481,12.93065 2.92044,16.53013 -3.5,26.53125 -7.31181,11.38686 -6.6396,15.9406 4.4375,29.53125 11.06951,13.5818 14.79705,14.8963 26.5,9.5 12.29721,-5.67067 15.84731,-5.33344 30.9375,2.78125 16.46075,8.85181 15.83362,8.10421 18.375,20.9375 3.1293,15.75524 5.57895,17.77795 24.15625,19.71875 18.54695,1.93827 21.45669,0.43308 27.25,-14.03125 4.73884,-11.82939 6.64055,-13.3468 22.65625,-18.25 14.2772,-4.37217 22.44934,-4.14977 26.46875,0.78125 3.06229,3.75643 8.04635,6.1668 14.96875,7.21875 l 0,0.0313 c 4.48723,0.68149 6.11403,-0.21631 17.3125,-9.34375 14.568,-11.87491 16.04661,-15.38312 10.84375,-25.78125 -6.91733,-13.82582 -6.78972,-16.61014 1.4375,-31.78125 8.97825,-16.55684 9.97464,-17.47585 19.46875,-18.28125 14.65904,-1.23908 19.73857,-6.3448 21.625,-21.65625 2.2139,-17.97799 -0.48695,-25.29808 -10.4375,-28.4375 -14.61731,-4.61114 -17.07006,-7.28164 -21.90625,-23.53125 -4.70597,-15.81214 -3.9197,-20.43352 5.40625,-30.90625 6.92745,-7.77963 6.27131,-11.77698 -4.40625,-25.90625 -12.74479,-16.866662 -16.21449,-18.260122 -30.5625,-12.312552 -12.92432,5.35964 -15.29674,5.12932 -30.4375,-3.0625 -14.28858,-7.73159 -17.65032,-11.39706 -18.0625,-19.6875 -0.62207,-12.50582 -7.18643,-19.20768 -20.59375,-21.0625 -4.93608,-0.68276 -8.92305,-1.07608 -12.21875,-1.03125 z M 320.25,144.0625 c 2.0976,-0.0342 4.20685,0.0625 6.375,0.3125 33.68519,3.8816 52.78567,38.00354 38.3125,68.5 -18.24351,38.43541 -74.49029,34.93563 -88.21875,-5.5 -10.64911,-31.35583 12.06724,-62.79983 43.53125,-63.3125 z M 163.125,270.21875 c -3.91138,0.25774 -6.5865,2.65928 -10.3125,7.6875 -4.95505,6.69102 -7.08716,7.99352 -13.71875,8.34375 -13.73225,0.72701 -17.65077,0.4137 -19.34375,-1.5625 -10.6548,-12.44008 -12.08683,-12.87116 -24.468749,-6.9375 -11.4741,5.49999 -12.32324,6.84644 -10.9375,17.0625 1.26184,9.30572 0.13492,12.24536 -8,20.90625 -7.39147,7.87067 -10.03293,9.13321 -16.15625,7.75 -7.42435,-1.67655 -13.48994,2.98696 -16.90625,12.9375 -3.84999,11.21618 -3.1743,13.97025 4.90625,20 7.23722,5.4001 8.57227,8.59819 8.8125,20.75 0.18207,9.20204 -0.71157,11.532 -6.625,17.1875 -6.734,6.43562 -6.99802,9.58258 -1.78125,20.46875 5.21424,10.87986 7.48235,12.37705 16.1875,10.65625 9.15147,-1.80678 11.46141,-1.02691 20.25,6.84375 9.58262,8.58504 9.27671,7.99899 8.90625,17 -0.45517,11.05054 0.87981,12.79112 12.999999,17.09375 12.10123,4.29504 14.28439,3.77559 20.5,-4.96875 5.08401,-7.15125 6.61423,-7.86963 18.125,-8.5625 10.26158,-0.61828 15.66974,0.86262 17.5625,4.8125 1.44137,3.00792 4.41179,5.42679 8.875,7.25 2.8916,1.18091 4.12309,0.86133 13.09375,-3.4375 11.66629,-5.59229 13.20797,-7.70014 11.40625,-15.5 -2.39597,-10.37031 -1.8329,-12.23851 6.125,-21.0625 8.68492,-9.63066 9.48383,-10.0888 15.96875,-9.09375 10.00871,1.5362 14.23129,-1.02705 17.96875,-10.96875 4.38861,-11.67387 3.7774,-17.0091 -2.375,-20.71875 -9.03767,-5.44941 -10.26432,-7.65506 -10.875,-19.3125 -0.59299,-11.34261 0.69111,-14.31125 8.625,-19.8125 5.8932,-4.09148 6.08149,-6.84922 1.21875,-18.03125 -5.79964,-13.34916 -7.90372,-14.84887 -18.46875,-13.1875 -9.51939,1.49701 -11.06618,0.96134 -19.875,-6.96875 -8.31193,-7.48377 -9.97084,-10.47744 -8.90625,-16.09375 1.60575,-8.46997 -1.70147,-14.02877 -10.375,-17.4375 -5.58746,-2.19604 -9.36407,-3.29421 -12.40625,-3.09375 z m -22.78125,66.1875 c 3.45917,0.0809 7.00446,0.73686 10.53125,2.03125 21.91902,8.05147 29.14857,33.98715 14.53125,52.0625 -18.41926,22.77246 -55.50361,11.31393 -58.15625,-17.96875 -1.85518,-20.43576 14.41421,-36.56204 33.09375,-36.125 z"
     inkscape:connector-curvature="0"
     id="path8639"
     style="fill:#ffffff;fill-opacity:0.969" />
</svg>
