<?xml version="1.0" encoding="UTF-8" standalone="no"?>
<!-- Created with Inkscape (http://www.inkscape.org/) -->

<svg
   xmlns:dc="http://purl.org/dc/elements/1.1/"
   xmlns:cc="http://creativecommons.org/ns#"
   xmlns:rdf="http://www.w3.org/1999/02/22-rdf-syntax-ns#"
   xmlns:svg="http://www.w3.org/2000/svg"
   xmlns="http://www.w3.org/2000/svg"
   xmlns:xlink="http://www.w3.org/1999/xlink"
   xmlns:sodipodi="http://sodipodi.sourceforge.net/DTD/sodipodi-0.dtd"
   xmlns:inkscape="http://www.inkscape.org/namespaces/inkscape"
   version="1.1"
   width="100%"
   height="100%"
   viewBox="0 0 512 512"
   id="svg2"
   inkscape:version="0.91+devel r13804 custom"
   sodipodi:docname="preferences-tweaks-cerbere.svg">
  <sodipodi:namedview
     pagecolor="#ffffff"
     bordercolor="#666666"
     borderopacity="1"
     objecttolerance="10"
     gridtolerance="10"
     guidetolerance="10"
     inkscape:pageopacity="0"
     inkscape:pageshadow="2"
     inkscape:window-width="1366"
     inkscape:window-height="709"
     id="namedview97"
     showgrid="false"
     inkscape:zoom="0.4609375"
     inkscape:cx="154.0339"
     inkscape:cy="239.72881"
     inkscape:window-x="-2"
     inkscape:window-y="-3"
     inkscape:window-maximized="1"
     inkscape:current-layer="svg2" />
  <metadata
     id="metadata10">
    <rdf:RDF>
      <cc:Work
         rdf:about="">
        <dc:format>image/svg+xml</dc:format>
        <dc:type
           rdf:resource="http://purl.org/dc/dcmitype/StillImage" />
        <dc:title></dc:title>
      </cc:Work>
    </rdf:RDF>
  </metadata>
  <defs
     id="defs8">
    <clipPath
       clipPathUnits="userSpaceOnUse"
       id="clipPath3776">
      <path
         d="M 26,0 C 11.60265,0 0,11.602648 0,26 l 0,460 c 0,14.39735 11.60265,26 26,26 l 460,0 c 14.39735,0 26,-11.60265 26,-26 L 512,26 C 512,11.602648 500.39735,0 486,0 L 26,0 z"
         inkscape:connector-curvature="0"
         id="path3778"
         style="fill:#dd4051;fill-opacity:1;stroke:none" />
    </clipPath>
    <clipPath
       id="clipPath3251">
      <path
         style="fill:#7ecb4e;fill-rule:evenodd"
         id="path3253"
         inkscape:connector-curvature="0"
         d="m 471.95,253.05 c 0,120.9 -98.01,218.9 -218.9,218.9 -120.9,0 -218.9,-98.01 -218.9,-218.9 0,-120.9 98.01,-218.9 218.9,-218.9 120.9,0 218.9,98.01 218.9,218.9" />
    </clipPath>
    <clipPath
       id="clipPath9253">
      <path
         d="M 26,0 C 11.602648,0 0,11.602648 0,26 l 0,460 c 0,14.39735 11.602648,26 26,26 l 460,0 c 14.39735,0 26,-11.60265 26,-26 L 512,26 C 512,11.602648 500.39735,0 486,0 L 26,0 z"
         inkscape:connector-curvature="0"
         id="path9255"
         style="fill:#cd1d31;fill-opacity:1;stroke:none" />
    </clipPath>
    <clipPath
       id="clipPath3345"
       clipPathUnits="userSpaceOnUse">
      <path
         style="fill:#be68f9;fill-opacity:1;fill-rule:evenodd"
         inkscape:connector-curvature="0"
         id="path3347"
         d="m 18.985794,11.124782 c 0,4.538292 -3.678986,8.217451 -8.217451,8.217451 -4.5382929,0 -8.2174516,-3.678986 -8.2174516,-8.217451 0,-4.5382929 3.678986,-8.2174517 8.2174516,-8.2174517 4.538292,0 8.217451,3.6789861 8.217451,8.2174517" />
    </clipPath>
    <radialGradient
       inkscape:collect="always"
       xlink:href="#linearGradient2867-449-88-871-390-598-476-591-434-148-57-177-8-3-3-6-4-8-8-8"
       id="radialGradient3100"
       gradientUnits="userSpaceOnUse"
       gradientTransform="matrix(2.8175286e-7,14.804026,-26.41724,5.0277765e-7,161.28058,50.499096)"
       cx="9.1239557"
       cy="9.9571075"
       fx="8.5937262"
       fy="9.9571075"
       r="12.671875" />
    <linearGradient
       inkscape:collect="always"
       xlink:href="#linearGradient3924-64"
       id="linearGradient3097"
       gradientUnits="userSpaceOnUse"
       gradientTransform="matrix(2.2869164,0,0,2.2869164,-158.65375,173.12764)"
       x1="23.99999"
       y1="4.999989"
       x2="23.99999"
       y2="43" />
    <linearGradient
       id="linearGradient3924-64">
      <stop
         offset="0"
         style="stop-color:#ffffff;stop-opacity:1"
         id="stop3926-3-6" />
      <stop
         offset="0.06316455"
         style="stop-color:#ffffff;stop-opacity:0.23529412"
         id="stop3928-0" />
      <stop
         offset="0.95056331"
         style="stop-color:#ffffff;stop-opacity:0.15686275"
         id="stop3930-3-59" />
      <stop
         offset="1"
         style="stop-color:#ffffff;stop-opacity:0.39215687"
         id="stop3932-0" />
    </linearGradient>
    <linearGradient
       id="linearGradient2867-449-88-871-390-598-476-591-434-148-57-177-8-3-3-6-4-8-8-8">
      <stop
         offset="0"
         style="stop-color:#ca7dff;stop-opacity:1;"
         id="stop3750-1-0-7-6-6-1-3-9" />
      <stop
         offset="1"
         style="stop-color:#8b0ee2;stop-opacity:1;"
         id="stop3754-1-8-5-2-7-6-7-1" />
    </linearGradient>
    <radialGradient
       gradientTransform="matrix(2.003784,0,0,1.4,27.98813,-17.4)"
       gradientUnits="userSpaceOnUse"
       xlink:href="#linearGradient3688-166-749-9"
       id="radialGradient3082-6"
       fy="43.5"
       fx="4.9929786"
       r="2.5"
       cy="43.5"
       cx="4.9929786" />
    <linearGradient
       id="linearGradient3688-166-749-9">
      <stop
         offset="0"
         style="stop-color:#181818;stop-opacity:1"
         id="stop2883-2" />
      <stop
         offset="1"
         style="stop-color:#181818;stop-opacity:0"
         id="stop2885-2" />
    </linearGradient>
    <radialGradient
       gradientTransform="matrix(2.003784,0,0,1.4,-20.01187,-104.4)"
       gradientUnits="userSpaceOnUse"
       xlink:href="#linearGradient3688-166-749-9"
       id="radialGradient3084-4"
       fy="43.5"
       fx="4.9929786"
       r="2.5"
       cy="43.5"
       cx="4.9929786" />
    <linearGradient
       gradientUnits="userSpaceOnUse"
       xlink:href="#linearGradient3702-501-757-1"
       id="linearGradient3086-8"
       y2="39.999443"
       x2="25.058096"
       y1="47.027729"
       x1="25.058096" />
    <linearGradient
       id="linearGradient3702-501-757-1">
      <stop
         offset="0"
         style="stop-color:#181818;stop-opacity:0"
         id="stop2895-2" />
      <stop
         offset="0.5"
         style="stop-color:#181818;stop-opacity:1"
         id="stop2897-89" />
      <stop
         offset="1"
         style="stop-color:#181818;stop-opacity:0"
         id="stop2899-36" />
    </linearGradient>
    <clipPath
       id="clipPath9253-9">
      <path
         style="fill:#cd1d31;fill-opacity:1;stroke:none"
         id="path9255-1"
         inkscape:connector-curvature="0"
         d="M 26,0 C 11.602648,0 0,11.602648 0,26 l 0,460 c 0,14.39735 11.602648,26 26,26 l 460,0 c 14.39735,0 26,-11.60265 26,-26 L 512,26 C 512,11.602648 500.39735,0 486,0 L 26,0 z" />
    </clipPath>
    <clipPath
       clipPathUnits="userSpaceOnUse"
       id="clipPath3345-3">
      <path
         d="m 18.985794,11.124782 c 0,4.538292 -3.678986,8.217451 -8.217451,8.217451 -4.5382929,0 -8.2174516,-3.678986 -8.2174516,-8.217451 0,-4.5382929 3.678986,-8.2174517 8.2174516,-8.2174517 4.538292,0 8.217451,3.6789861 8.217451,8.2174517"
         id="path3347-4"
         inkscape:connector-curvature="0"
         style="fill:#be68f9;fill-opacity:1;fill-rule:evenodd" />
    </clipPath>
    <radialGradient
       r="12.671875"
       fy="9.9571075"
       fx="8.5937262"
       cy="9.9571075"
       cx="9.1239557"
       gradientTransform="matrix(2.8175286e-7,14.804026,-26.41724,5.0277765e-7,161.28058,50.499096)"
       gradientUnits="userSpaceOnUse"
       id="radialGradient3100-4"
       xlink:href="#linearGradient2867-449-88-871-390-598-476-591-434-148-57-177-8-3-3-6-4-8-8-8"
       inkscape:collect="always" />
    <radialGradient
       cx="4.9929786"
       cy="43.5"
       r="2.5"
       fx="4.9929786"
       fy="43.5"
       id="radialGradient3082-6-5"
       xlink:href="#linearGradient3688-166-749-9"
       gradientUnits="userSpaceOnUse"
       gradientTransform="matrix(2.003784,0,0,1.4,27.98813,-17.4)" />
    <radialGradient
       cx="4.9929786"
       cy="43.5"
       r="2.5"
       fx="4.9929786"
       fy="43.5"
       id="radialGradient3084-4-2"
       xlink:href="#linearGradient3688-166-749-9"
       gradientUnits="userSpaceOnUse"
       gradientTransform="matrix(2.003784,0,0,1.4,-20.01187,-104.4)" />
    <clipPath
       clipPathUnits="userSpaceOnUse"
       id="clipPath3534">
      <path
         d="m 4.4669119,4.1035926 c -0.398281,0 -0.7192507,0.3209697 -0.7192507,0.7192507 l 0,12.7252047 c 0,0.398281 0.3209697,0.71925 0.7192507,0.71925 l 12.7252041,0 c 0.398281,0 0.719251,-0.320969 0.719251,-0.71925 l 0,-12.7252047 c 0,-0.398281 -0.32097,-0.7192507 -0.719251,-0.7192507 l -12.7252041,0 z"
         inkscape:connector-curvature="0"
         id="path3536"
         style="fill:#be68f9;fill-opacity:1;stroke:none" />
    </clipPath>
    <clipPath
       id="clipPath4954"
       clipPathUnits="userSpaceOnUse">
      <path
         style="fill:#8a1cb9;fill-opacity:1;fill-rule:evenodd"
         inkscape:connector-curvature="0"
         id="path4956"
         d="m 471.9456,253.05189 c 0,120.89699 -98.00565,218.90724 -218.90724,218.90724 -120.89698,0 -218.90723,-98.00566 -218.90723,-218.90724 0,-120.89698 98.00565,-218.907232 218.90723,-218.907232 120.89699,0 218.90724,98.005652 218.90724,218.907232" />
    </clipPath>
    <linearGradient
       id="linearGradient3909"
       inkscape:collect="always">
      <stop
         id="stop3911"
         offset="0"
         style="stop-color:#000000;stop-opacity:1;" />
      <stop
         id="stop3913"
         offset="1"
         style="stop-color:#000000;stop-opacity:0;" />
    </linearGradient>
    <linearGradient
       id="linearGradient3862">
      <stop
         id="stop3864"
         offset="0"
         style="stop-color:#d775ff;stop-opacity:0;" />
      <stop
         style="stop-color:#d775ff;stop-opacity:1;"
         offset="0.0585856"
         id="stop3870" />
      <stop
         id="stop3866"
         offset="1"
         style="stop-color:#c12dff;stop-opacity:1;" />
    </linearGradient>
    <linearGradient
       id="linearGradient3850">
      <stop
         id="stop3852"
         offset="0"
         style="stop-color:#8c00c8;stop-opacity:0;" />
      <stop
         style="stop-color:#8c00c8;stop-opacity:1;"
         offset="0.03677667"
         id="stop3858" />
      <stop
         id="stop3854"
         offset="1"
         style="stop-color:#8c00c8;stop-opacity:1;" />
    </linearGradient>
    <linearGradient
       id="linearGradient3842">
      <stop
         id="stop3844"
         offset="0"
         style="stop-color:#df91ff;stop-opacity:1;" />
      <stop
         id="stop3846"
         offset="1"
         style="stop-color:#c12dff;stop-opacity:1;" />
    </linearGradient>
    <linearGradient
       id="linearGradient3821">
      <stop
         id="stop3823"
         offset="0"
         style="stop-color:#e1e1e1;stop-opacity:1;" />
      <stop
         id="stop3825"
         offset="1"
         style="stop-color:#969696;stop-opacity:1;" />
    </linearGradient>
    <linearGradient
       id="linearGradient3802">
      <stop
         id="stop3804"
         offset="0"
         style="stop-color:#ff00ff;stop-opacity:1;" />
      <stop
         style="stop-color:#ff00ff;stop-opacity:1;"
         offset="0.6998378"
         id="stop3810" />
      <stop
         id="stop3806"
         offset="1"
         style="stop-color:#ff00ff;stop-opacity:0" />
    </linearGradient>
    <linearGradient
       id="linearGradient3792">
      <stop
         id="stop3794"
         offset="0"
         style="stop-color:#800080;stop-opacity:1;" />
      <stop
         style="stop-color:#800080;stop-opacity:1;"
         offset="0.73735327"
         id="stop3800" />
      <stop
         id="stop3796"
         offset="1"
         style="stop-color:#800080;stop-opacity:0;" />
    </linearGradient>
    <radialGradient
       r="9.734375"
       fy="4.3122196"
       fx="10.8684"
       cy="4.3122196"
       cx="10.8684"
       gradientTransform="matrix(-1.9547455,0,0,-1.3331442,31.948081,8.1191832)"
       gradientUnits="userSpaceOnUse"
       id="radialGradient3880"
       xlink:href="#linearGradient3842"
       inkscape:collect="always" />
    <radialGradient
       r="8.0937504"
       fy="1033.5725"
       fx="10.851937"
       cy="1033.5725"
       cx="10.851937"
       gradientTransform="matrix(-1.9668414,0,0,-1.1713992,32.195977,1215.7282)"
       gradientUnits="userSpaceOnUse"
       id="radialGradient3882"
       xlink:href="#linearGradient3821"
       inkscape:collect="always" />
    <linearGradient
       y2="10.843039"
       x2="23.148277"
       y1="4.0093255"
       x1="15.162443"
       gradientUnits="userSpaceOnUse"
       id="linearGradient3884"
       xlink:href="#linearGradient3862"
       inkscape:collect="always" />
    <linearGradient
       y2="11.007048"
       x2="18.938709"
       y1="5.0480494"
       x1="14.123719"
       gradientUnits="userSpaceOnUse"
       id="linearGradient3886"
       xlink:href="#linearGradient3850"
       inkscape:collect="always" />
    <radialGradient
       gradientUnits="userSpaceOnUse"
       gradientTransform="matrix(1,0,0,0.15831664,0,17.51608)"
       r="9.6450005"
       fy="20.810772"
       fx="11.345922"
       cy="20.810772"
       cx="11.345922"
       id="radialGradient3915"
       xlink:href="#linearGradient3909"
       inkscape:collect="always" />
    <radialGradient
       r="9.6450005"
       fy="20.810772"
       fx="11.345922"
       cy="20.810772"
       cx="11.345922"
       gradientTransform="matrix(1,0,0,0.15831664,0,17.51608)"
       gradientUnits="userSpaceOnUse"
       id="radialGradient3925"
       xlink:href="#linearGradient3909"
       inkscape:collect="always" />
    <radialGradient
       r="9.734375"
       fy="4.3122196"
       fx="10.8684"
       cy="4.3122196"
       cx="10.8684"
       gradientTransform="matrix(-1.9547455,0,0,-1.3331442,31.948081,8.1191832)"
       gradientUnits="userSpaceOnUse"
       id="radialGradient3927"
       xlink:href="#linearGradient3842"
       inkscape:collect="always" />
    <radialGradient
       r="8.0937504"
       fy="1033.5725"
       fx="10.851937"
       cy="1033.5725"
       cx="10.851937"
       gradientTransform="matrix(-1.9668414,0,0,-1.1713992,32.195977,1215.7282)"
       gradientUnits="userSpaceOnUse"
       id="radialGradient3929"
       xlink:href="#linearGradient3821"
       inkscape:collect="always" />
    <radialGradient
       r="9.734375"
       fy="4.3122196"
       fx="10.8684"
       cy="4.3122196"
       cx="10.8684"
       gradientTransform="matrix(-1.9547455,0,0,-1.3331442,31.948081,8.1191832)"
       gradientUnits="userSpaceOnUse"
       id="radialGradient3798"
       xlink:href="#linearGradient3842"
       inkscape:collect="always" />
    <radialGradient
       r="8.0937504"
       fy="1033.5725"
       fx="10.851937"
       cy="1033.5725"
       cx="10.851937"
       gradientTransform="matrix(-1.9668414,0,0,-1.1713992,32.195977,1215.7282)"
       gradientUnits="userSpaceOnUse"
       id="radialGradient3800"
       xlink:href="#linearGradient3821"
       inkscape:collect="always" />
    <linearGradient
       gradientTransform="matrix(1.0144092,0,0,1.0144092,0.01729132,1027.7306)"
       y2="10.843039"
       x2="23.148277"
       y1="4.0093255"
       x1="15.162443"
       gradientUnits="userSpaceOnUse"
       id="linearGradient3808"
       xlink:href="#linearGradient3862"
       inkscape:collect="always" />
    <linearGradient
       gradientTransform="matrix(1.0144092,0,0,1.0144092,0.01729132,1027.7306)"
       y2="11.007048"
       x2="18.938709"
       y1="5.0480494"
       x1="14.123719"
       gradientUnits="userSpaceOnUse"
       id="linearGradient3810"
       xlink:href="#linearGradient3850"
       inkscape:collect="always" />
    <radialGradient
       r="8.0937504"
       fy="1033.5725"
       fx="10.851937"
       cy="1033.5725"
       cx="10.851937"
       gradientTransform="matrix(-1.995182,0,0,-1.1882781,32.677187,2260.9765)"
       gradientUnits="userSpaceOnUse"
       id="radialGradient3814"
       xlink:href="#linearGradient3821"
       inkscape:collect="always" />
    <radialGradient
       r="9.734375"
       fy="4.3122196"
       fx="10.8684"
       cy="4.3122196"
       cx="10.8684"
       gradientTransform="matrix(-1.9829118,0,0,-1.3523537,32.425719,1035.9668)"
       gradientUnits="userSpaceOnUse"
       id="radialGradient3817"
       xlink:href="#linearGradient3842"
       inkscape:collect="always" />
    <radialGradient
       r="9.734375"
       fy="4.3122196"
       fx="10.8684"
       cy="4.3122196"
       cx="10.8684"
       gradientTransform="matrix(-1.9829118,0,0,-1.3523537,32.425719,1035.9668)"
       gradientUnits="userSpaceOnUse"
       id="radialGradient3828"
       xlink:href="#linearGradient3842"
       inkscape:collect="always" />
    <radialGradient
       r="8.0937504"
       fy="1033.5725"
       fx="10.851937"
       cy="1033.5725"
       cx="10.851937"
       gradientTransform="matrix(-1.995182,0,0,-1.1882781,32.677187,2260.9765)"
       gradientUnits="userSpaceOnUse"
       id="radialGradient3830"
       xlink:href="#linearGradient3821"
       inkscape:collect="always" />
  </defs>
  <path
     d="M 26,0 C 11.60265,0 0,11.60265 0,26 l 0,460 c 0,14.39735 11.60265,26 26,26 l 460,0 c 14.39735,0 26,-11.60265 26,-26 L 512,26 C 512,11.60265 500.39735,0 486,0 L 26,0 Z"
     inkscape:connector-curvature="0"
     id="rect2986"
     style="fill:#8a1cb9;fill-opacity:1;stroke:none" />
  <path
     inkscape:connector-curvature="0"
     style="color:#000000;font-style:normal;font-variant:normal;font-weight:normal;font-stretch:normal;font-size:medium;line-height:normal;font-family:Sans;-inkscape-font-specification:Sans;text-indent:0;text-align:start;text-decoration:none;text-decoration-line:none;letter-spacing:normal;word-spacing:normal;text-transform:none;direction:ltr;block-progression:tb;writing-mode:lr-tb;baseline-shift:baseline;text-anchor:start;visibility:visible;opacity:0.25;fill:#000000;fill-opacity:1;fill-rule:nonzero;stroke:none;stroke-width:15.94080353;marker:none"
     d="M 238.05078,58.94922 C 129.41762,58.94922 41,147.36725 41,256 41,310.31709 63.10383,359.58039 98.78711,395.26367 L 215.52344,512 486,512 c 14.39735,0 26,-11.60265 26,-26 l 0,-275.83398 -41,-41 -16.68945,0.90234 -22.83399,1.25781 -51.63476,-51.63476 c -0.0343,-0.0343 -0.0288,-0.0256 -0.0605,-0.0566 l -0.57813,-0.57813 -0.008,0 -1.88476,-1.88476 c -0.75358,-0.75358 -1.50127,-1.48932 -2.24219,-2.2129 -35.38943,-34.5616 -83.72903,-56.0098 -137.01744,-56.0098 z"
     id="path4282" />
  <path
     style="color:#000000;font-style:normal;font-variant:normal;font-weight:normal;font-stretch:normal;font-size:medium;line-height:normal;font-family:Sans;-inkscape-font-specification:Sans;text-indent:0;text-align:start;text-decoration:none;text-decoration-line:none;letter-spacing:normal;word-spacing:normal;text-transform:none;direction:ltr;block-progression:tb;writing-mode:lr-tb;baseline-shift:baseline;text-anchor:start;display:inline;overflow:visible;visibility:visible;fill:#ffffff;fill-opacity:1;fill-rule:nonzero;stroke:none;stroke-width:15.94080353;marker:none;enable-background:accumulate"
     d="M 238.05057,58.94948 C 129.41741,58.94948 41.00006,147.36725 41.00006,256 c 0,108.63457 88.41747,197.05052 197.05051,197.05052 37.02255,0 71.80374,-10.45596 101.38216,-28.23063 l 9.05937,-5.45065 -6.27765,-8.4955 -29.92221,-40.29725 -4.99957,-6.72874 -7.33019,4.0598 c -8.36557,4.60628 -17.3656,8.32998 -26.80218,11.01409 l -6.65355,1.87953 -0.30073,6.91669 -0.18795,4.13498 c -10.30276,2.30746 -21.14088,3.53352 -32.25284,3.53352 -11.24075,0 -22.2052,-1.24783 -32.62874,-3.6087 l -0.67663,-7.51814 -0.56386,-6.05211 -5.71378,-2.10509 c -17.07992,-6.22024 -32.44101,-15.96469 -45.22164,-28.38098 l -4.62366,-4.51088 -5.93933,2.63135 -9.81117,4.32293 c -14.66925,-15.7553 -25.5114,-34.8903 -31.9521,-56.19812 l 10.93889,-6.65355 5.52583,-3.38317 -1.09013,-6.39043 c -1.17807,-6.98068 -1.76676,-14.18523 -1.76676,-21.53947 0,-9.89084 1.09864,-19.45654 3.19521,-28.64413 l 1.54122,-6.72873 -5.93934,-3.60871 -12.40492,-7.55573 c 6.40627,-21.19283 17.17645,-40.22777 31.72656,-55.93498 l 14.99869,7.51814 5.75137,2.89448 4.8492,-4.24775 c 11.77098,-10.285 25.41155,-18.44192 40.37244,-23.87011 l 5.97692,-2.18026 0.33832,-6.35282 0.7894,-15.71293 c 10.3241,-2.31823 21.19027,-3.53352 32.328,-3.53352 11.59912,0 22.89121,1.35783 33.6061,3.87184 l 4.66125,19.09608 1.12772,4.58607 0.0375,0 0.11275,0.48868 1.31567,5.52583 5.48825,1.50363 c 2.48681,0.67557 5.91976,1.86239 9.77358,3.38316 l 0.90218,0.37591 0.93976,0.15036 c 0.16058,0.0289 0.15059,0.0127 0.30073,0.0375 3.41695,1.56159 6.75658,3.15398 9.99914,4.77402 l 0.0375,0.0375 0.0375,0 c 0.63998,0.3125 1.31141,0.6717 2.0675,1.05254 17.65567,8.89311 36.51813,23.33698 40.63556,32.62875 l 13.83338,-5.14994 c 5.48651,9.86067 9.84102,20.47579 13.00639,31.65138 l -10.75095,15.14907 -2.21785,3.12003 0.52627,3.75907 c 0.78178,5.64857 1.16531,11.63418 1.16531,17.63004 0,5.99586 -0.38292,11.94123 -1.16531,17.59245 l -0.48868,3.75907 2.18026,3.08244 10.78854,15.26184 -0.75181,2.8193 2.36821,3.6463 8.79623,13.45747 9.02176,13.83339 7.51816,-14.73557 32.3656,-63.49071 0,-0.0375 32.3656,-62.85166 7.63092,-14.88593 -16.69027,0.90218 -38.19218,2.10508 c -6.81995,-14.24785 -15.20181,-27.58956 -25.03542,-39.6958 -2.9293,-3.60632 -5.9928,-7.12723 -9.20972,-10.56298 0.58331,0.62305 0.34038,0.30319 -0.15036,-0.22555 -0.0114,-0.0114 -0.0268,-0.0261 -0.0375,-0.0375 -0.47673,-0.51236 -1.00624,-1.08978 -1.6164,-1.72917 l -0.0375,0 0,-0.0375 c -0.47513,-0.49367 -0.76246,-0.72429 -0.82699,-0.7894 -0.006,-0.006 0.006,-0.0311 0,-0.0375 l -0.0375,0 c -1.38187,-1.43004 -2.75175,-2.78326 -4.09738,-4.0974 -35.38957,-34.56157 -83.72974,-56.0102 -137.01815,-56.0102 z m -4.28534,130.06387 c -34.61847,0 -62.70131,28.08295 -62.70131,62.70131 0,34.61836 27.9503,63.30276 62.70131,63.30276 34.75103,0 63.34036,-28.55209 63.34036,-63.30276 0,-34.75068 -28.72188,-62.70131 -63.34036,-62.70131 z"
     id="path3610"
     inkscape:connector-curvature="0" />
</svg>
