<?xml version="1.0" encoding="UTF-8" standalone="no"?>
<!-- Created with Inkscape (http://www.inkscape.org/) -->

<svg
   xmlns:dc="http://purl.org/dc/elements/1.1/"
   xmlns:cc="http://creativecommons.org/ns#"
   xmlns:rdf="http://www.w3.org/1999/02/22-rdf-syntax-ns#"
   xmlns:svg="http://www.w3.org/2000/svg"
   xmlns="http://www.w3.org/2000/svg"
   xmlns:xlink="http://www.w3.org/1999/xlink"
   xmlns:sodipodi="http://sodipodi.sourceforge.net/DTD/sodipodi-0.dtd"
   xmlns:inkscape="http://www.inkscape.org/namespaces/inkscape"
   width="48"
   height="48"
   id="svg2"
   version="1.1"
   inkscape:version="0.48+devel r12877"
   sodipodi:docname="applications-development.svg">
  <defs
     id="defs4">
    <linearGradient
       gradientUnits="userSpaceOnUse"
       y2="1007.5463"
       x2="28.728134"
       y1="1049.4073"
       x1="28.728134"
       id="linearGradient5353"
       xlink:href="#linearGradient4678"
       inkscape:collect="always"
       gradientTransform="translate(326,-495.99997)" />
    <clipPath
       id="clipPath4050"
       clipPathUnits="userSpaceOnUse">
      <path
         id="path4052"
         d="m 205,114 22,0 0,14 -22,0 0,-14 z"
         inkscape:connector-curvature="0" />
    </clipPath>
    <clipPath
       id="clipPath4054"
       clipPathUnits="userSpaceOnUse">
      <path
         id="path4056"
         d="m 205,114 22,0 0,14 -22,0 0,-14 z"
         inkscape:connector-curvature="0" />
    </clipPath>
    <linearGradient
       id="linearGradient4678"
       inkscape:collect="always">
      <stop
         id="stop4680"
         offset="0"
         style="stop-color:#0a7fe7;stop-opacity:1" />
      <stop
         id="stop4682"
         offset="1"
         style="stop-color:#50bffc;stop-opacity:1" />
    </linearGradient>
  </defs>
  <sodipodi:namedview
     id="base"
     pagecolor="#ffffff"
     bordercolor="#666666"
     borderopacity="1.0"
     inkscape:pageopacity="0.0"
     inkscape:pageshadow="2"
     inkscape:zoom="5.7231453"
     inkscape:cx="-4.0867251"
     inkscape:cy="25.035081"
     inkscape:document-units="px"
     inkscape:current-layer="layer1"
     showgrid="false"
     inkscape:window-width="1366"
     inkscape:window-height="671"
     inkscape:window-x="0"
     inkscape:window-y="24"
     inkscape:window-maximized="1">
    <inkscape:grid
       type="xygrid"
       id="grid3850" />
  </sodipodi:namedview>
  <metadata
     id="metadata7">
    <rdf:RDF>
      <cc:Work
         rdf:about="">
        <dc:format>image/svg+xml</dc:format>
        <dc:type
           rdf:resource="http://purl.org/dc/dcmitype/StillImage" />
        <dc:title />
      </cc:Work>
    </rdf:RDF>
  </metadata>
  <g
     inkscape:label="Capa 1"
     inkscape:groupmode="layer"
     id="layer1"
     transform="translate(0,-1004.3622)">
    <g
       id="layer1-9"
       inkscape:label="Capa 1"
       transform="translate(0,-2.6171874e-6)">
      <flowRoot
         transform="translate(-73.72922,1001.5273)"
         style="font-size:40px;font-style:normal;font-variant:normal;font-weight:bold;font-stretch:normal;line-height:125%;letter-spacing:0px;word-spacing:0px;fill:#000000;fill-opacity:1;stroke:none;font-family:Impact;-inkscape-font-specification:Impact Bold"
         id="flowRoot1042"
         xml:space="preserve"><flowRegion
           id="flowRegion1044"><rect
             y="2.1071429"
             x="-79.821426"
             height="63.57143"
             width="70.178574"
             id="rect1046" /></flowRegion><flowPara
           id="flowPara1048">\documentclass[12pt]{article}</flowPara><flowPara
           id="flowPara1050" /></flowRoot>      <g
         inkscape:label="Capa 1"
         id="layer1-1"
         transform="translate(-326,496.00002)">
        <flowRoot
           xml:space="preserve"
           id="flowRoot1042-1"
           style="font-size:40px;font-style:normal;font-variant:normal;font-weight:bold;font-stretch:normal;line-height:125%;letter-spacing:0px;word-spacing:0px;fill:#000000;fill-opacity:1;stroke:none;font-family:Impact;-inkscape-font-specification:Impact Bold"
           transform="translate(252.27078,505.52724)"><flowRegion
             id="flowRegion1044-4"><rect
               id="rect1046-9"
               width="70.178574"
               height="63.57143"
               x="-79.821426"
               y="2.1071429" /></flowRegion><flowPara
             id="flowPara1048-0">\documentclass[12pt]{article}</flowPara><flowPara
             id="flowPara1050-8" /></flowRoot>        <rect
           style="fill:#000000;fill-opacity:0.01960784;stroke:none"
           id="rect5263"
           width="44.399963"
           height="44.399963"
           x="327.80002"
           y="510.1622"
           ry="6.2786646" />
        <rect
           ry="6.1938181"
           y="510.46231"
           x="328.10001"
           height="43.799973"
           width="43.799973"
           id="rect5261"
           style="fill:#000000;fill-opacity:0.03921569;stroke:none" />
        <rect
           style="fill:#000000;fill-opacity:0.07843137;stroke:none"
           id="rect5259"
           width="43.199982"
           height="43.199982"
           x="328.39999"
           y="510.76236"
           ry="6.1089716" />
        <rect
           ry="6.0241251"
           y="511.06235"
           x="328.70001"
           height="42.599991"
           width="42.599991"
           id="rect5257"
           style="fill:#000000;fill-opacity:0.15686275;stroke:none" />
        <rect
           style="fill:url(#linearGradient5353);fill-opacity:1;stroke:none"
           id="rect5237"
           width="42"
           height="42"
           x="329"
           y="511.36221"
           ry="5.9392786" />
        <path
           inkscape:connector-curvature="0"
           style="fill:#000000;fill-opacity:0.11764706;stroke:none"
           d="m 329,544.92473 0,2.5 c 0,3.2904 2.64714,5.9375 5.9375,5.9375 l 30.125,0 c 3.29036,0 5.9375,-2.6471 5.9375,-5.9375 l 0,-2.5 c 0,3.2904 -2.64714,5.9375 -5.9375,5.9375 l -30.125,0 c -3.29036,0 -5.9375,-2.6471 -5.9375,-5.9375 z"
           id="rect5265" />
        <path
           inkscape:connector-curvature="0"
           style="fill:#000000;fill-opacity:0.09803922;stroke:none"
           d="m 329,546.92473 0,0.5 c 0,3.2904 2.64714,5.9375 5.9375,5.9375 l 30.125,0 c 3.29036,0 5.9375,-2.6471 5.9375,-5.9375 l 0,-0.5 c 0,3.2904 -2.64714,5.9375 -5.9375,5.9375 l -30.125,0 c -3.29036,0 -5.9375,-2.6471 -5.9375,-5.9375 z"
           id="path5252" />
        <g
           transform="matrix(1.25,0,0,-1.25,80.53777,680.39563)"
           id="g4058">
          <g
             clip-path="url(#clipPath4050)"
             id="g4060"
             style="opacity:0.25">
            <g
               id="g4062" />
            <g
               id="g4064">
              <g
                 clip-path="url(#clipPath4054)"
                 id="g4066" />
            </g>
          </g>
        </g>
        <rect
           style="fill:#000000;fill-opacity:0.49803922;fill-rule:nonzero;stroke:none"
           id="rect1260-3"
           width="6.0573077"
           height="2.1697817"
           x="340.30389"
           y="539.86877" />
        <path
           style="fill:#000000;fill-opacity:0.49803922;fill-rule:nonzero;stroke:none"
           d="m 340.21172,528.17054 0,2.47445 2.44968,0 0,-2.47445 -2.44968,0 z m 1.75684,0.61862 0.24745,0.24744 -0.74234,0.76709 -0.24744,0.24743 -0.29693,-0.29693 -0.2722,-0.27219 0.24744,-0.24745 0.29694,0.29693 0.76708,-0.74232 z"
           id="rect1264-6"
           inkscape:connector-curvature="0" />
        <path
           id="path879-7"
           d="m 340.21172,532.59872 0,2.47443 2.44968,0 0,-2.47443 -2.44968,0 z m 1.75684,0.61861 0.24745,0.24744 -0.74234,0.76708 -0.24744,0.24744 -0.29693,-0.29693 -0.2722,-0.27219 0.24744,-0.24744 0.29694,0.29694 0.76708,-0.74234 z"
           style="fill:#000000;fill-opacity:0.49803922;fill-rule:nonzero;stroke:none"
           inkscape:connector-curvature="0" />
        <rect
           y="539.86877"
           x="353.36777"
           height="2.1697817"
           width="6.0573077"
           id="rect881-0"
           style="fill:#000000;fill-opacity:0.49803922;fill-rule:nonzero;stroke:none" />
        <rect
           ry="0"
           y="522.68579"
           x="340.21173"
           height="2.4895639"
           width="19.576553"
           id="rect1070-7"
           style="fill:#000000;fill-opacity:0.49803922" />
        <path
           style="fill:#000000;fill-opacity:0.49803922;fill-rule:evenodd;stroke:none"
           d="m 337,519.36218 0,26 26,0 0,-26 -26,0 z m 2,2 22,0 0,22 -22,0 0,-22 z"
           id="rect4152"
           inkscape:connector-curvature="0" />
      </g>
    </g>
  </g>
</svg>
