/* XPM */
static char * hide_prelight_xpm[] = {
"25 26 13 1",
" 	c None",
".	c #EBEBEB",
"+	c #D0D0D0",
"@	c #C5C5C5",
"#	c #AFAFAF",
"$	c #A6A6A6",
"%	c #B1B1B1",
"&	c #BABABA",
"*	c #939393",
"=	c #828282",
"-	c #979797",
";	c #BEBEBE",
">	c #878787",
".........................",
"+++++++++++++++++++++++++",
"+++++++++++++++++++++++++",
"+++++++++++++++++++++++++",
"+++++++++++++++++++++++++",
"+++++++++++++++++++++++++",
"+++++++++++++++++++++++++",
"+++++++++++++++++++++++++",
"+++++++++++++++++++++++++",
"+++++++++++++++++++++++++",
"+++++++++++++++++++++++++",
"+++++++++++++++++++++++++",
"+++++++++++++++++++++++++",
"+++++++++++++++++++++++++",
"+++++++++++++++++++++++++",
"++++++@#$$$$$$$$$%@++++++",
"++++++&*=========-;++++++",
"++++++&*=========-;++++++",
"++++++&->>>>>>>>>-@++++++",
"+++++++++++++++++++++++++",
"+++++++++++++++++++++++++",
"+++++++++++++++++++++++++",
"+++++++++++++++++++++++++",
"+++++++++++++++++++++++++",
"+++++++++++++++++++++++++",
"+++++++++++++++++++++++++"};
