<?xml version="1.0" encoding="UTF-8" standalone="no"?>
<!-- Created with Inkscape (http://www.inkscape.org/) -->

<svg
   xmlns:dc="http://purl.org/dc/elements/1.1/"
   xmlns:cc="http://creativecommons.org/ns#"
   xmlns:rdf="http://www.w3.org/1999/02/22-rdf-syntax-ns#"
   xmlns:svg="http://www.w3.org/2000/svg"
   xmlns="http://www.w3.org/2000/svg"
   xmlns:xlink="http://www.w3.org/1999/xlink"
   xmlns:sodipodi="http://sodipodi.sourceforge.net/DTD/sodipodi-0.dtd"
   xmlns:inkscape="http://www.inkscape.org/namespaces/inkscape"
   width="48"
   height="48"
   id="svg5453"
   version="1.1"
   inkscape:version="0.49 r12742"
   sodipodi:docname="8-ball-pool.svg">
  <defs
     id="defs5455">
    <linearGradient
       id="linearGradient4708"
       inkscape:collect="always">
      <stop
         id="stop4710"
         offset="0"
         style="stop-color:#47b73d;stop-opacity:1" />
      <stop
         id="stop4712"
         offset="1"
         style="stop-color:#ade355;stop-opacity:1" />
    </linearGradient>
    <linearGradient
       gradientTransform="translate(384.57143,-504.56412)"
       inkscape:collect="always"
       xlink:href="#linearGradient4708"
       id="linearGradient4101"
       x1="29.109528"
       y1="1049.3851"
       x2="29.109528"
       y2="1007.3748"
       gradientUnits="userSpaceOnUse" />
  </defs>
  <sodipodi:namedview
     id="base"
     pagecolor="#ffffff"
     bordercolor="#666666"
     borderopacity="1.0"
     inkscape:pageopacity="0"
     inkscape:pageshadow="2"
     inkscape:zoom="6.1060716"
     inkscape:cx="3.5183874"
     inkscape:cy="27.735334"
     inkscape:document-units="px"
     inkscape:current-layer="layer1"
     showgrid="false"
     fit-margin-top="0"
     fit-margin-left="0"
     fit-margin-right="0"
     fit-margin-bottom="0"
     inkscape:window-width="1366"
     inkscape:window-height="718"
     inkscape:window-x="0"
     inkscape:window-y="23"
     inkscape:window-maximized="1"
     inkscape:showpageshadow="false"
     borderlayer="true" />
  <metadata
     id="metadata5458">
    <rdf:RDF>
      <cc:Work
         rdf:about="">
        <dc:format>image/svg+xml</dc:format>
        <dc:type
           rdf:resource="http://purl.org/dc/dcmitype/StillImage" />
        <dc:title />
      </cc:Work>
    </rdf:RDF>
  </metadata>
  <g
     inkscape:label="Capa 1"
     inkscape:groupmode="layer"
     id="layer1"
     transform="translate(-384.57143,-499.798)">
    <path
       style="fill:#000000"
       d=""
       id="path906"
       inkscape:connector-curvature="0" />
    <rect
       style="fill:#000000;fill-opacity:0.01960784;stroke:none"
       id="rect5263-0"
       width="44.399963"
       height="44.399963"
       x="386.37146"
       y="501.59802"
       ry="6.2786646" />
    <rect
       ry="6.1938181"
       y="501.89813"
       x="386.67145"
       height="43.799973"
       width="43.799973"
       id="rect5261-1"
       style="fill:#000000;fill-opacity:0.03921569;stroke:none" />
    <rect
       style="fill:#000000;fill-opacity:0.07843137;stroke:none"
       id="rect5259-9"
       width="43.199982"
       height="43.199982"
       x="386.97144"
       y="502.19836"
       ry="6.1089716" />
    <rect
       ry="6.0241251"
       y="502.49823"
       x="387.27145"
       height="42.599991"
       width="42.599991"
       id="rect5257-6"
       style="fill:#000000;fill-opacity:0.15686275;stroke:none" />
    <rect
       style="fill:url(#linearGradient4101);fill-opacity:1;stroke:none"
       id="rect5237-3"
       width="42"
       height="42"
       x="387.57144"
       y="502.79803"
       ry="5.9392786" />
    <path
       inkscape:connector-curvature="0"
       style="fill:#000000;fill-opacity:0.11764706;stroke:none"
       d="m 387.57143,536.36055 0,2.5 c 0,3.2904 2.64714,5.9375 5.9375,5.9375 l 30.125,0 c 3.29036,0 5.9375,-2.6471 5.9375,-5.9375 l 0,-2.5 c 0,3.2904 -2.64714,5.9375 -5.9375,5.9375 l -30.125,0 c -3.29036,0 -5.9375,-2.6471 -5.9375,-5.9375 z"
       id="rect5265-8" />
    <path
       inkscape:connector-curvature="0"
       style="fill:#000000;fill-opacity:0.09803922;stroke:none"
       d="m 387.57143,538.36055 0,0.5 c 0,3.2904 2.64714,5.9375 5.9375,5.9375 l 30.125,0 c 3.29036,0 5.9375,-2.6471 5.9375,-5.9375 l 0,-0.5 c 0,3.2904 -2.64714,5.9375 -5.9375,5.9375 l -30.125,0 c -3.29036,0 -5.9375,-2.6471 -5.9375,-5.9375 z"
       id="path5252-0" />
    <path
       style="fill:#000000;fill-opacity:0.49803922;stroke:none"
       d="m 408.57144,510.798 a 12.999668,12.999668 0 0 0 -13.00001,13 12.999668,12.999668 0 0 0 13.00001,13 12.999668,12.999668 0 0 0 12.99999,-13 12.999668,12.999668 0 0 0 -12.99999,-13 z m -0.12696,8.35725 0.2539,0 c 2.57214,0 4.64274,2.07062 4.64274,4.64275 0,2.57212 -2.0706,4.64274 -4.64274,4.64274 l -0.2539,0 c -2.57214,0 -4.64274,-2.07062 -4.64274,-4.64274 0,-2.57213 2.0706,-4.64275 4.64274,-4.64275 z m 0.1121,1.65365 c -0.29951,0 -0.56331,0.0408 -0.79136,0.12035 -0.22808,0.077 -0.41822,0.18411 -0.57213,0.3215 -0.15387,0.13465 -0.27146,0.29347 -0.35114,0.47484 -0.077,0.17861 -0.11543,0.36875 -0.11543,0.5721 0,0.16212 0.022,0.31599 0.0658,0.46163 0.0466,0.14565 0.11265,0.27972 0.19783,0.40063 0.0879,0.11815 0.1951,0.21982 0.32151,0.30501 0.12914,0.0852 0.27478,0.14617 0.4369,0.18463 l 0,0.0165 c -0.14838,0.0247 -0.29182,0.0742 -0.43195,0.14837 -0.13741,0.0714 -0.26106,0.16763 -0.37097,0.28854 -0.10719,0.11814 -0.19453,0.25884 -0.2605,0.42371 -0.063,0.16486 -0.094,0.35391 -0.094,0.5655 0,0.24456 0.0385,0.47044 0.11539,0.67926 0.0798,0.20608 0.20059,0.3847 0.36272,0.53584 0.16487,0.14838 0.37095,0.26599 0.61826,0.35116 0.25006,0.0851 0.54463,0.12695 0.88536,0.12695 0.34074,0 0.63694,-0.0418 0.887,-0.12695 0.25005,-0.0852 0.45395,-0.20333 0.61332,-0.35447 0.16212,-0.15112 0.28247,-0.32974 0.3594,-0.53583 0.0798,-0.20884 0.11871,-0.4369 0.11871,-0.68419 0,-0.20885 -0.0303,-0.39568 -0.0907,-0.56057 -0.0605,-0.16486 -0.14287,-0.30722 -0.24728,-0.42535 -0.10442,-0.12091 -0.22808,-0.21708 -0.37099,-0.28854 -0.14289,-0.0742 -0.29731,-0.12419 -0.46491,-0.15167 l 0,-0.0163 c 0.1676,-0.033 0.31381,-0.0907 0.44019,-0.17312 0.12916,-0.0851 0.23632,-0.18684 0.3215,-0.30499 0.0879,-0.12091 0.1539,-0.25337 0.19785,-0.399 0.0466,-0.14564 0.071,-0.29895 0.071,-0.45834 0,-0.20334 -0.0379,-0.39571 -0.1121,-0.57706 -0.0742,-0.18136 -0.18738,-0.33853 -0.34127,-0.47317 -0.15112,-0.13738 -0.34347,-0.24677 -0.57705,-0.32645 -0.23079,-0.0798 -0.50505,-0.12035 -0.82103,-0.12035 z m 0,0.5523 c 0.20059,0 0.37041,0.0247 0.5078,0.0742 0.13739,0.0466 0.24784,0.11483 0.33303,0.20278 0.0852,0.0852 0.14563,0.18738 0.18136,0.30829 0.0385,0.1209 0.0578,0.255 0.0578,0.40063 0,0.11543 -0.0115,0.23358 -0.0363,0.3545 -0.0219,0.12088 -0.0714,0.23079 -0.1484,0.32971 -0.0742,0.0989 -0.18354,0.17916 -0.32642,0.24237 -0.14015,0.0631 -0.32699,0.0955 -0.56057,0.0955 -0.21983,0 -0.39898,-0.0324 -0.53912,-0.0955 -0.14014,-0.0631 -0.25006,-0.14345 -0.32973,-0.24237 -0.0799,-0.099 -0.13466,-0.20883 -0.16489,-0.32971 -0.0303,-0.12092 -0.0462,-0.23907 -0.0462,-0.3545 0,-0.14563 0.0192,-0.27973 0.0579,-0.40063 0.0385,-0.12091 0.10117,-0.22312 0.1863,-0.30829 0.0878,-0.0879 0.19839,-0.15611 0.33303,-0.20278 0.13465,-0.0495 0.29952,-0.0742 0.49462,-0.0742 z m 0,2.56373 c 0.23629,0 0.43362,0.0324 0.59024,0.0956 0.15937,0.0604 0.28577,0.14069 0.37919,0.24236 0.0934,0.099 0.15935,0.21431 0.19785,0.34622 0.0385,0.12915 0.0579,0.26378 0.0579,0.40392 0,0.18411 -0.0215,0.35174 -0.0627,0.50286 -0.0383,0.1484 -0.10442,0.27698 -0.19785,0.38414 -0.0934,0.10441 -0.21709,0.18467 -0.37096,0.24238 -0.15388,0.0578 -0.34347,0.0874 -0.5688,0.0874 -0.22258,0 -0.41217,-0.0297 -0.56879,-0.0874 -0.15663,-0.0579 -0.28303,-0.13794 -0.37921,-0.24238 -0.0962,-0.10718 -0.16544,-0.23354 -0.2094,-0.37919 -0.0439,-0.14838 -0.0658,-0.3127 -0.0658,-0.49132 0,-0.14288 0.0219,-0.28028 0.0658,-0.41216 0.0439,-0.13464 0.11267,-0.2528 0.20611,-0.35447 0.0961,-0.10169 0.21983,-0.18191 0.37095,-0.24236 0.15389,-0.0631 0.33853,-0.0956 0.55562,-0.0956 z"
       id="path5295"
       inkscape:connector-curvature="0" />
  </g>
</svg>
