<?xml version="1.0" encoding="UTF-8" standalone="no"?>
<!-- Created with Inkscape (http://www.inkscape.org/) -->

<svg
   xmlns:dc="http://purl.org/dc/elements/1.1/"
   xmlns:cc="http://creativecommons.org/ns#"
   xmlns:rdf="http://www.w3.org/1999/02/22-rdf-syntax-ns#"
   xmlns:svg="http://www.w3.org/2000/svg"
   xmlns="http://www.w3.org/2000/svg"
   xmlns:xlink="http://www.w3.org/1999/xlink"
   xmlns:sodipodi="http://sodipodi.sourceforge.net/DTD/sodipodi-0.dtd"
   xmlns:inkscape="http://www.inkscape.org/namespaces/inkscape"
   width="48"
   height="48"
   id="svg2"
   version="1.1"
   inkscape:version="0.48+devel r"
   sodipodi:docname="AdobePremierePro.svg">
  <defs
     id="defs4">
    <defs
       id="defs4922">
      <filter
         color-interpolation-filters="sRGB"
         id="Adobe_OpacityMaskFilter"
         filterUnits="userSpaceOnUse"
         x="3.7850001"
         y="4.6750002"
         width="5.8829999"
         height="73.013">
        <feColorMatrix
           type="matrix"
           values="1 0 0 0 0  0 1 0 0 0  0 0 1 0 0  0 0 0 1 0"
           id="feColorMatrix4925" />
      </filter>
    </defs>
    <mask
       maskUnits="userSpaceOnUse"
       x="3.785"
       y="4.675"
       width="5.883"
       height="73.013"
       id="SVGID_2_">
      <g
         style="filter:url(#Adobe_OpacityMaskFilter)"
         id="g4928">
        <linearGradient
           id="SVGID_3_"
           gradientUnits="userSpaceOnUse"
           x1="3.7852001"
           y1="41.181198"
           x2="9.6680002"
           y2="41.181198">
          <stop
             offset="0"
             style="stop-color:#FFFFFF"
             id="stop4931" />
          <stop
             offset="0.0029"
             style="stop-color:#FAFBFB"
             id="stop4933" />
          <stop
             offset="0.0756"
             style="stop-color:#BBBDBF"
             id="stop4935" />
          <stop
             offset="0.1438"
             style="stop-color:#898B8E"
             id="stop4937" />
          <stop
             offset="0.2053"
             style="stop-color:#646567"
             id="stop4939" />
          <stop
             offset="0.259"
             style="stop-color:#444446"
             id="stop4941" />
          <stop
             offset="0.3028"
             style="stop-color:#1D1C1D"
             id="stop4943" />
          <stop
             offset="0.3313"
             style="stop-color:#000000"
             id="stop4945" />
        </linearGradient>
        <rect
           style="fill:url(#SVGID_3_)"
           x="3.7850001"
           y="4.6750002"
           width="5.8829999"
           height="73.013"
           id="rect4947" />
      </g>
    </mask>
    <linearGradient
       inkscape:collect="always"
       id="linearGradient5347">
      <stop
         style="stop-color:#8e3fd0;stop-opacity:1"
         offset="0"
         id="stop5349" />
      <stop
         style="stop-color:#cf7ae6;stop-opacity:1"
         offset="1"
         id="stop5351" />
    </linearGradient>
    <linearGradient
       gradientTransform="translate(6.3818359e-7,-9.5027343e-6)"
       inkscape:collect="always"
       xlink:href="#linearGradient5347"
       id="linearGradient5353"
       x1="28.728134"
       y1="1049.4073"
       x2="28.728134"
       y2="1007.5463"
       gradientUnits="userSpaceOnUse" />
  </defs>
  <sodipodi:namedview
     id="base"
     pagecolor="#ffffff"
     bordercolor="#666666"
     borderopacity="1.0"
     inkscape:pageopacity="0.0"
     inkscape:pageshadow="2"
     inkscape:zoom="4.0625108"
     inkscape:cx="16.187042"
     inkscape:cy="25.661944"
     inkscape:document-units="px"
     inkscape:current-layer="layer1"
     showgrid="false"
     inkscape:window-width="1366"
     inkscape:window-height="665"
     inkscape:window-x="-2"
     inkscape:window-y="26"
     inkscape:window-maximized="1"
     showguides="true"
     inkscape:guide-bbox="true" />
  <metadata
     id="metadata7">
    <rdf:RDF>
      <cc:Work
         rdf:about="">
        <dc:format>image/svg+xml</dc:format>
        <dc:type
           rdf:resource="http://purl.org/dc/dcmitype/StillImage" />
        <dc:title />
      </cc:Work>
    </rdf:RDF>
  </metadata>
  <g
     inkscape:label="Capa 1"
     inkscape:groupmode="layer"
     id="layer1"
     transform="translate(0,-1004.3622)">
    <rect
       style="fill:#000000;fill-opacity:0.01960784;stroke:none"
       id="rect5263"
       width="44.399963"
       height="44.399963"
       x="1.8000183"
       y="1006.1622"
       ry="6.2786646" />
    <rect
       ry="6.1938181"
       y="1006.4623"
       x="2.1000061"
       height="43.799973"
       width="43.799973"
       id="rect5261"
       style="fill:#000000;fill-opacity:0.03921569;stroke:none" />
    <rect
       style="fill:#000000;fill-opacity:0.07843137;stroke:none"
       id="rect5259"
       width="43.199982"
       height="43.199982"
       x="2.3999939"
       y="1006.7623"
       ry="6.1089716" />
    <rect
       ry="6.0241251"
       y="1007.0624"
       x="2.7000122"
       height="42.599991"
       width="42.599991"
       id="rect5257"
       style="fill:#000000;fill-opacity:0.15686275;stroke:none" />
    <rect
       style="fill:url(#linearGradient5353);fill-opacity:1;stroke:none"
       id="rect5237"
       width="42"
       height="42"
       x="3"
       y="1007.3622"
       ry="5.9392786" />
    <path
       inkscape:connector-curvature="0"
       style="fill:#000000;fill-opacity:0.11764706;stroke:none"
       d="m 2.9999996,1040.9247 0,2.5 c 0,3.2904 2.64714,5.9375 5.9375,5.9375 l 30.1250004,0 c 3.29036,0 5.937495,-2.6471 5.937495,-5.9375 l 0,-2.5 c 0,3.2904 -2.647135,5.9375 -5.937495,5.9375 l -30.1250004,0 c -3.29036,0 -5.9375,-2.6471 -5.9375,-5.9375 z"
       id="rect5265" />
    <path
       inkscape:connector-curvature="0"
       style="fill:#000000;fill-opacity:0.09803922;stroke:none"
       d="m 2.9999996,1042.9247 0,0.5 c 0,3.2904 2.64714,5.9375 5.9375,5.9375 l 30.1250004,0 c 3.29036,0 5.937495,-2.6471 5.937495,-5.9375 l 0,-0.5 c 0,3.2904 -2.647135,5.9375 -5.937495,5.9375 l -30.1250004,0 c -3.29036,0 -5.9375,-2.6471 -5.9375,-5.9375 z"
       id="path5252" />
    <path
       style="fill:#000000;fill-opacity:0.49803922;stroke:none"
       d="m 19.150992,1020.8622 c -1.832969,0 -3.179093,0.1339 -4.150993,0.3106 l 0,14.6894 2.694435,0 0,-5.6107 c 0.353419,0.067 0.817424,0.088 1.325741,0.088 1.921099,0 3.621706,-0.509 4.703548,-1.5916 0.839257,-0.7952 1.280833,-1.965 1.280833,-3.3784 0,-1.3915 -0.575185,-2.5637 -1.458509,-3.2925 -0.949422,-0.7951 -2.407858,-1.2147 -4.395055,-1.2147 z m 0.111292,2.0778 c 1.87681,0 3.026359,0.8822 3.026359,2.5388 0,1.745 -1.236759,2.7398 -3.268468,2.7398 -0.552383,0 -0.994133,-0.023 -1.325741,-0.1113 l 0,-5.0364 c 0.28732,-0.066 0.816726,-0.1309 1.56785,-0.1309 z m 13.095351,1.9217 c -1.148166,0 -2.406418,0.7725 -2.936546,2.2966 l -0.08786,0 -0.08786,-2.0545 -2.364466,0 c 0.0661,0.9719 0.08981,2.0105 0.08981,3.4683 l 0,7.2901 2.715914,0 0,-5.5677 c 0,-0.3096 0.04335,-0.5966 0.08786,-0.8396 0.24304,-1.2153 1.126058,-2.0526 2.428896,-2.0526 0.331387,0 0.57562,0.044 0.796616,0.088 l 0,-2.564 c -0.220996,-0.044 -0.377083,-0.064 -0.642369,-0.064 z"
       id="path754-7"
       inkscape:connector-curvature="0" />
  </g>
</svg>
