<?xml version="1.0" encoding="UTF-8" standalone="no"?>
<!-- Created with Inkscape (http://www.inkscape.org/) -->

<svg
   xmlns:dc="http://purl.org/dc/elements/1.1/"
   xmlns:cc="http://creativecommons.org/ns#"
   xmlns:rdf="http://www.w3.org/1999/02/22-rdf-syntax-ns#"
   xmlns:svg="http://www.w3.org/2000/svg"
   xmlns="http://www.w3.org/2000/svg"
   xmlns:xlink="http://www.w3.org/1999/xlink"
   xmlns:sodipodi="http://sodipodi.sourceforge.net/DTD/sodipodi-0.dtd"
   xmlns:inkscape="http://www.inkscape.org/namespaces/inkscape"
   width="48"
   height="48"
   id="svg5453"
   version="1.1"
   inkscape:version="0.48+devel r"
   sodipodi:docname="alchemy.svg"
   viewBox="0 0 48 48">
  <defs
     id="defs5455">
    <linearGradient
       inkscape:collect="always"
       id="linearGradient4708">
      <stop
         style="stop-color:#47b73d;stop-opacity:1"
         offset="0"
         id="stop4710" />
      <stop
         style="stop-color:#ade355;stop-opacity:1"
         offset="1"
         id="stop4712" />
    </linearGradient>
    <linearGradient
       gradientUnits="userSpaceOnUse"
       y2="1007.3748"
       x2="29.109528"
       y1="1049.3851"
       x1="29.109528"
       id="linearGradient4101"
       xlink:href="#linearGradient4708"
       inkscape:collect="always"
       gradientTransform="translate(384.57143,-504.56406)" />
  </defs>
  <sodipodi:namedview
     id="base"
     pagecolor="#ffffff"
     bordercolor="#666666"
     borderopacity="1.0"
     inkscape:pageopacity="0"
     inkscape:pageshadow="2"
     inkscape:zoom="6.2862649"
     inkscape:cx="7.0877233"
     inkscape:cy="23.199043"
     inkscape:document-units="px"
     inkscape:current-layer="layer1"
     showgrid="false"
     fit-margin-top="0"
     fit-margin-left="0"
     fit-margin-right="0"
     fit-margin-bottom="0"
     inkscape:window-width="1366"
     inkscape:window-height="665"
     inkscape:window-x="-2"
     inkscape:window-y="26"
     inkscape:window-maximized="1"
     inkscape:showpageshadow="false"
     borderlayer="true">
    <sodipodi:guide
       position="8.5999872,8.600002"
       orientation="-30.799988,0"
       id="guide4779" />
    <sodipodi:guide
       position="8.5999872,39.39999"
       orientation="0,30.800018"
       id="guide4781" />
    <sodipodi:guide
       position="39.400006,39.39999"
       orientation="30.799988,0"
       id="guide4783" />
    <sodipodi:guide
       position="39.400006,8.600002"
       orientation="0,-30.800018"
       id="guide4785" />
  </sodipodi:namedview>
  <metadata
     id="metadata5458">
    <rdf:RDF>
      <cc:Work
         rdf:about="">
        <dc:format>image/svg+xml</dc:format>
        <dc:type
           rdf:resource="http://purl.org/dc/dcmitype/StillImage" />
        <dc:title />
      </cc:Work>
    </rdf:RDF>
  </metadata>
  <g
     inkscape:label="Capa 1"
     inkscape:groupmode="layer"
     id="layer1"
     transform="translate(-384.57143,-499.798)">
    <rect
       style="fill:#000000;fill-opacity:0.01960784;stroke:none"
       id="rect5263-0"
       width="44.399963"
       height="44.399963"
       x="386.37146"
       y="501.59802"
       ry="6.2786646" />
    <rect
       ry="6.1938181"
       y="501.89813"
       x="386.67145"
       height="43.799973"
       width="43.799973"
       id="rect5261-1"
       style="fill:#000000;fill-opacity:0.03921569;stroke:none" />
    <rect
       style="fill:#000000;fill-opacity:0.07843137;stroke:none"
       id="rect5259-9"
       width="43.199982"
       height="43.199982"
       x="386.97144"
       y="502.19843"
       ry="6.1089716" />
    <rect
       ry="6.0241251"
       y="502.49823"
       x="387.27145"
       height="42.599991"
       width="42.599991"
       id="rect5257-6"
       style="fill:#000000;fill-opacity:0.15686275;stroke:none" />
    <rect
       style="fill:url(#linearGradient4101);fill-opacity:1;stroke:none"
       id="rect5237-3"
       width="42"
       height="42"
       x="387.57144"
       y="502.79803"
       ry="5.9392786" />
    <path
       inkscape:connector-curvature="0"
       style="fill:#000000;fill-opacity:0.11764706;stroke:none"
       d="m 387.57143,536.36056 0,2.5 c 0,3.2904 2.64714,5.9375 5.9375,5.9375 l 30.125,0 c 3.29036,0 5.9375,-2.6471 5.9375,-5.9375 l 0,-2.5 c 0,3.2904 -2.64714,5.9375 -5.9375,5.9375 l -30.125,0 c -3.29036,0 -5.9375,-2.6471 -5.9375,-5.9375 z"
       id="rect5265-8" />
    <path
       inkscape:connector-curvature="0"
       style="fill:#000000;fill-opacity:0.09803922;stroke:none"
       d="m 387.57143,538.36056 0,0.5 c 0,3.2904 2.64714,5.9375 5.9375,5.9375 l 30.125,0 c 3.29036,0 5.9375,-2.6471 5.9375,-5.9375 l 0,-0.5 c 0,3.2904 -2.64714,5.9375 -5.9375,5.9375 l -30.125,0 c -3.29036,0 -5.9375,-2.6471 -5.9375,-5.9375 z"
       id="path5252-0" />
    <path
       style="fill:#000000;fill-opacity:0.49803922;stroke:none"
       d="m 407.82424,510.79801 a 0.57165647,0.57165647 0 0 0 -0.57214,0.57214 0.57165647,0.57165647 0 0 0 0.57214,0.57214 0.57165647,0.57165647 0 0 0 0.57214,-0.57214 0.57165647,0.57165647 0 0 0 -0.57214,-0.57214 z m 1.4823,1.72467 a 1.143313,1.143313 0 0 0 -1.14264,1.14264 1.143313,1.143313 0 0 0 1.14264,1.14428 1.143313,1.143313 0 0 0 1.14429,-1.14428 1.143313,1.143313 0 0 0 -1.14429,-1.14264 z m -2.00003,2.29517 a 0.7145706,0.7145706 0 0 0 -0.71394,0.71395 0.7145706,0.7145706 0 0 0 0.71394,0.71558 0.7145706,0.7145706 0 0 0 0.71395,-0.71558 0.7145706,0.7145706 0 0 0 -0.71395,-0.71395 z m -1.79558,2.53095 c -0.0239,0 -0.0469,0.006 -0.0676,0.0148 -0.008,0.004 -0.0138,0.008 -0.0214,0.0132 -0.003,8.4e-4 -0.008,0.002 -0.01,0.003 -0.006,0.004 -0.007,0.0127 -0.0132,0.0181 -0.0346,0.0317 -0.0627,0.0746 -0.0627,0.12531 1e-5,0.0958 0.079,0.17477 0.17477,0.17477 l 0.0396,0 0.42045,0.81123 0,4.28861 -4.80139,11.9639 c -0.0276,0.0607 -0.0518,0.12305 -0.0709,0.18797 -0.007,0.0221 -0.007,0.0453 -0.0132,0.0676 -0.005,0.0219 -0.0139,0.0438 -0.0181,0.066 -0.007,0.035 -0.009,0.0721 -0.0132,0.10718 -8.5e-4,0.01 -0.004,0.0213 -0.005,0.0313 -0.004,0.0367 -0.002,0.0706 -0.003,0.10717 l 0,0.0313 c 0,0.003 -1e-5,0.005 0,0.008 4e-5,0.006 0,0.0127 0,0.0181 8.5e-4,0.0405 -9.2e-4,0.0807 0.003,0.12036 0.004,0.0371 0.0116,0.0707 0.0181,0.10718 0.003,0.0144 0.002,0.0319 0.005,0.0462 8.5e-4,0.006 0.002,0.011 0.003,0.0165 0.008,0.0376 0.02,0.0756 0.0313,0.11212 8.4e-4,0.003 0.005,0.002 0.005,0.005 0.0134,0.0426 0.0224,0.0829 0.0396,0.12366 8.4e-4,0.003 0.004,0.003 0.005,0.005 0.0173,0.0406 0.0368,0.0817 0.0577,0.12036 8.4e-4,8.4e-4 0,0.004 0,0.005 0.0436,0.0799 0.0991,0.15779 0.15665,0.22755 0.0886,0.10678 0.19251,0.19975 0.30832,0.27699 0.003,0.003 0.01,0.006 0.0132,0.008 0.15602,0.10216 0.33196,0.17423 0.52268,0.2094 0.0133,0.003 0.0264,0.003 0.0396,0.005 0.0256,0.004 0.05,0.0105 0.0758,0.0132 0.059,0.006 0.11627,0.011 0.17478,0.01 l 12.13373,0 c 0.01,0 0.0163,4e-5 0.0264,0 0.0372,0 0.0755,-0.002 0.11213,-0.005 0.012,-8.5e-4 0.0244,-0.004 0.0363,-0.005 0.0361,-0.003 0.072,-0.0104 0.10717,-0.0165 0.0122,-0.003 0.0226,-0.002 0.0346,-0.005 0.0356,-0.008 0.0694,-0.0165 0.10387,-0.0264 0.0474,-0.0134 0.0965,-0.0314 0.1418,-0.0495 0.0894,-0.0357 0.1712,-0.0782 0.25063,-0.13025 0.003,-8.4e-4 0.003,-0.002 0.005,-0.003 0.003,-0.003 0.005,-0.008 0.008,-0.01 0.0757,-0.0511 0.14495,-0.10393 0.20939,-0.16818 0.032,-0.0319 0.0651,-0.069 0.094,-0.10387 8.5e-4,-8.5e-4 0.004,8.4e-4 0.005,0 0.0575,-0.0697 0.10803,-0.14754 0.15169,-0.22755 8.4e-4,-8.4e-4 0.003,-0.002 0.003,-0.003 0.021,-0.0386 0.037,-0.0814 0.0544,-0.12201 8.4e-4,-0.003 0.002,-0.002 0.003,-0.003 0.0171,-0.0407 0.0327,-0.0827 0.0462,-0.12531 8.4e-4,-0.003 -8.4e-4,-0.002 0,-0.005 0.0126,-0.0408 0.0256,-0.0814 0.0346,-0.12366 8.4e-4,-0.004 0.004,-0.0103 0.005,-0.0148 0.003,-0.0109 -0.003,-0.0236 0,-0.0346 0.007,-0.0365 0.0144,-0.0702 0.0181,-0.10718 8.4e-4,-0.0154 0.002,-0.0339 0.003,-0.0495 0.002,-0.0243 0.005,-0.0464 0.005,-0.0709 l 0,-0.028 c 0,-0.0306 -0.003,-0.059 -0.005,-0.089 0,-0.008 8.4e-4,-0.0186 0,-0.0264 -8.5e-4,-0.0109 -0.002,-0.0204 -0.003,-0.0313 -0.002,-0.008 -0.004,-0.0151 -0.005,-0.0231 -0.004,-0.035 -0.007,-0.0721 -0.0132,-0.10718 -0.002,-0.004 8.5e-4,-0.009 0,-0.0132 -0.008,-0.0356 -0.0165,-0.0726 -0.0264,-0.10717 -0.003,-0.0109 -0.0114,-0.0205 -0.0148,-0.0313 -0.0114,-0.0371 -0.0203,-0.0714 -0.0346,-0.10717 -0.008,-0.0201 -0.019,-0.0431 -0.028,-0.0627 l -4.80469,-11.98204 0,-4.26882 0.39737,-0.81288 0.0676,0 c 0.0958,0 0.17311,-0.0789 0.17312,-0.17477 0,-0.0882 -0.0617,-0.15883 -0.14674,-0.16984 -0.008,-0.002 -0.018,-0.003 -0.0264,-0.003 l -6.11881,0 0.002,-0.002 z m 1.24157,7.55329 0.002,0 c 0.28937,-0.0119 0.61179,0.11032 0.99919,0.41551 1.24188,0.97852 1.82814,1.98169 2.84423,0.66447 0.13473,-0.17461 0.27218,-0.32036 0.40726,-0.44682 l 3.35867,8.36615 c 0.007,0.0154 0.0104,0.0288 0.0165,0.0445 0.0112,0.0279 0.0215,0.055 0.0313,0.0841 0.002,0.009 0.008,0.0187 0.01,0.0264 0.008,0.027 0.0107,0.0529 0.0165,0.0808 8.4e-4,0.004 0.004,0.009 0.005,0.0132 0.006,0.0275 0.004,0.0583 0.008,0.0857 0,0.006 0.004,0.0121 0.005,0.0181 0,0.009 -8.4e-4,0.0188 0,0.0264 8.5e-4,0.006 0,0.007 0,0.0132 8.5e-4,0.0236 0.003,0.052 0.003,0.0758 0,0.008 -0.003,0.0116 -0.003,0.0181 0,0.0192 8.5e-4,0.0386 0,0.0577 0,0.0122 8.5e-4,0.0244 0,0.0363 -0.003,0.029 -0.007,0.0605 -0.0132,0.089 -8.4e-4,0.009 8.5e-4,0.0138 0,0.0214 0,0.004 -0.004,0.0105 -0.005,0.0148 -0.007,0.0331 -0.0158,0.0653 -0.0264,0.0973 0,8.4e-4 8.4e-4,0.004 0,0.005 -0.0105,0.0333 -0.0183,0.0622 -0.0313,0.094 0,8.5e-4 -0.004,0.007 -0.005,0.008 -0.0136,0.0317 -0.0282,0.0638 -0.0445,0.094 0,8.4e-4 -0.002,-8.5e-4 -0.003,0 -0.0342,0.0626 -0.072,0.12347 -0.11708,0.17807 0,8.4e-4 8.5e-4,0.004 0,0.005 -0.0226,0.0273 -0.0509,0.0509 -0.0758,0.0758 -0.0504,0.0503 -0.10065,0.0935 -0.15993,0.13355 -0.002,8.5e-4 -0.006,0.004 -0.008,0.005 -8.4e-4,0 8.5e-4,0.002 0,0.003 -0.0622,0.0407 -0.13114,0.0743 -0.20115,0.10222 -0.0355,0.0142 -0.0749,0.0254 -0.11213,0.0363 -0.0269,0.008 -0.0529,0.0173 -0.0808,0.0231 -0.009,8.4e-4 -0.016,0.002 -0.0264,0.003 -0.0274,0.005 -0.0526,0.0109 -0.0808,0.0132 -0.009,8.4e-4 -0.0211,0.005 -0.0313,0.005 -0.0286,0.003 -0.0549,0 -0.0841,0 -0.008,4e-5 -0.0158,0 -0.0231,0 l -9.49891,0 c -0.0458,0 -0.0923,1.2e-4 -0.1385,-0.005 -0.0203,-0.003 -0.0426,-0.01 -0.0627,-0.0132 -0.0105,-8.5e-4 -0.0155,-0.002 -0.0264,-0.003 -0.14931,-0.0275 -0.2884,-0.0865 -0.41056,-0.16653 -0.004,-8.4e-4 -0.009,-0.002 -0.01,-0.003 -0.0906,-0.0605 -0.1763,-0.13071 -0.24567,-0.21435 0,0 8.5e-4,-0.004 0,-0.005 -0.045,-0.0546 -0.0813,-0.1105 -0.11541,-0.17312 0,-8.5e-4 -0.004,-0.004 -0.005,-0.005 -0.0164,-0.0302 -0.0312,-0.0621 -0.0445,-0.094 0,-8.4e-4 0.002,-0.002 0,-0.003 -0.0134,-0.0318 -0.0254,-0.0606 -0.0363,-0.094 0,-8.4e-4 0.002,-0.009 0,-0.01 -0.009,-0.0286 -0.0151,-0.0596 -0.0214,-0.089 0,-0.004 -0.004,-0.008 -0.005,-0.0132 -0.003,-0.0111 -0.002,-0.02 -0.003,-0.0313 -0.006,-0.0286 -0.0109,-0.06 -0.0132,-0.089 -0.004,-0.0311 -0.004,-0.0573 -0.005,-0.089 0,-0.004 -2e-5,-0.008 0,-0.0132 0,-0.002 -3e-5,-0.009 0,-0.01 l 0,-0.0214 c 0,-0.0287 0.003,-0.0569 0.005,-0.0857 0,-0.008 -8.4e-4,-0.0193 0,-0.0264 0.004,-0.0274 0.007,-0.0534 0.0132,-0.0808 0.003,-0.0175 0.008,-0.0307 0.0132,-0.0478 0.004,-0.0174 0.007,-0.0371 0.0132,-0.0544 0.0149,-0.0508 0.0328,-0.0992 0.0544,-0.14675 l 3.56312,-8.88884 c 0.13252,-0.0649 0.26381,-0.10414 0.40561,-0.11047 z m 0.10717,1.56309 c -0.11756,0.005 -0.22942,0.0353 -0.33966,0.089 l -2.72386,6.90859 c -0.0178,0.0393 -0.0372,0.0833 -0.0495,0.12531 -0.004,0.0144 -0.004,0.0251 -0.008,0.0396 -0.004,0.0143 -0.007,0.0268 -0.01,0.0412 -0.004,0.0226 -0.0105,0.0482 -0.0132,0.0709 -8.4e-4,0.006 0,0.0168 0,0.0231 -0.003,0.0238 0,0.0422 0,0.066 l 0,0.0231 0,0.003 c 0,0.004 -10e-6,0.007 0,0.01 8.5e-4,0.0263 -0.003,0.0552 0,0.0808 8.5e-4,0.024 0.009,0.0423 0.0132,0.0659 0.002,0.009 -0.003,0.0172 0,0.0264 0.002,0.004 0.005,0.0115 0.005,0.0148 0.005,0.0243 0.0136,0.0473 0.0214,0.0709 8.5e-4,0.002 3e-5,0.003 0,0.003 0.009,0.0275 0.0169,0.0545 0.028,0.0808 l 0,0.005 c 0.0107,0.0263 0.0262,0.0509 0.0396,0.0758 8.5e-4,0 -8.4e-4,0.002 0,0.003 0.0282,0.0517 0.0618,0.0983 0.0989,0.14344 0.002,0 -1e-5,0.004 0,0.005 0.0572,0.069 0.12633,0.12815 0.20115,0.17807 8.5e-4,0 0.005,0.003 0.008,0.005 0.1008,0.066 0.21645,0.11411 0.33966,0.13686 0.009,0.002 0.0128,-8.4e-4 0.0214,0 0.0164,0.003 0.0327,0.0132 0.0495,0.0148 0.0382,0.004 0.0793,0 0.11707,0 l 7.83689,0 c 0.006,0 0.0119,4e-5 0.0181,0 0.024,0 0.0473,8.5e-4 0.0709,0 0.009,0 0.0154,8.5e-4 0.0231,0 0.0233,-0.002 0.0483,-0.0109 0.0709,-0.0148 0.009,-8.4e-4 0.0153,-0.003 0.0231,-0.003 0.023,-0.005 0.0403,-0.0115 0.0627,-0.0181 0.0306,-0.009 0.0648,-0.0147 0.094,-0.0264 0.0577,-0.0231 0.1135,-0.0521 0.16488,-0.0857 8.4e-4,0 0,-0.002 0,-0.003 8.4e-4,0 0.006,-0.003 0.008,-0.005 0.0489,-0.033 0.0919,-0.069 0.13356,-0.11047 0.0207,-0.0205 0.0407,-0.0401 0.0593,-0.0627 0.002,0 0,-0.003 0,-0.005 0.0371,-0.0451 0.069,-0.0951 0.0973,-0.14674 8.5e-4,0 0.005,8.4e-4 0.005,0 0.0137,-0.0249 0.025,-0.0497 0.0363,-0.0759 8.5e-4,-0.002 0.002,-0.005 0.003,-0.005 0.0106,-0.0263 0.0177,-0.0534 0.0264,-0.0808 l 0,-0.003 c 0.009,-0.0263 0.0172,-0.0534 0.0231,-0.0808 0,-0.004 -8.4e-4,-0.004 0,-0.008 8.5e-4,-0.006 0,-0.0161 0,-0.0231 0.004,-0.0236 0.007,-0.052 0.008,-0.0758 0.002,-0.01 0.005,-0.0163 0.005,-0.0264 0.002,-0.0155 0,-0.0338 0,-0.0495 0,-0.005 0.003,-0.007 0.003,-0.0132 0,-0.0198 -0.003,-0.0432 -0.003,-0.0627 0,-0.005 0.002,-0.008 0,-0.0132 -8.4e-4,-0.006 0,-0.0161 0,-0.0231 -8.4e-4,-0.005 -0.004,-0.008 -0.005,-0.0132 -0.004,-0.0227 -0.004,-0.045 -0.008,-0.0676 -0.002,-0.004 8.5e-4,-0.005 0,-0.008 -0.004,-0.023 -0.0115,-0.0485 -0.0181,-0.0709 -0.002,-0.006 -0.002,-0.016 -0.003,-0.0231 -0.008,-0.024 -0.0187,-0.0428 -0.028,-0.066 -0.005,-0.0132 -0.0125,-0.0285 -0.0181,-0.0412 l -2.55404,-6.47495 c -0.11156,0.10431 -0.2284,0.22526 -0.33965,0.36934 -0.83854,1.08704 -1.74351,0.25843 -2.76839,-0.54906 -0.3228,-0.25144 -0.58691,-0.35314 -0.82607,-0.34296 z m 0.10223,0.72714 0,6.78493 -2.66615,0 2.66615,-6.78493 z"
       id="path1894-4"
       inkscape:connector-curvature="0" />
    <path
       style="fill:#000000"
       d=""
       id="path906"
       inkscape:connector-curvature="0" />
  </g>
</svg>
