<?xml version="1.0" encoding="UTF-8" standalone="no"?>
<svg
   xmlns:dc="http://purl.org/dc/elements/1.1/"
   xmlns:cc="http://creativecommons.org/ns#"
   xmlns:rdf="http://www.w3.org/1999/02/22-rdf-syntax-ns#"
   xmlns:svg="http://www.w3.org/2000/svg"
   xmlns="http://www.w3.org/2000/svg"
   xmlns:xlink="http://www.w3.org/1999/xlink"
   xmlns:sodipodi="http://sodipodi.sourceforge.net/DTD/sodipodi-0.dtd"
   xmlns:inkscape="http://www.inkscape.org/namespaces/inkscape"
   width="48"
   viewBox="0 0 13.546667 13.546667"
   height="48"
   id="svg2"
   version="1.1"
   inkscape:version="0.48+devel r"
   sodipodi:docname="amnesia-dark-descent.svg">
  <metadata
     id="metadata26">
    <rdf:RDF>
      <cc:Work
         rdf:about="">
        <dc:format>image/svg+xml</dc:format>
        <dc:type
           rdf:resource="http://purl.org/dc/dcmitype/StillImage" />
        <dc:title />
      </cc:Work>
    </rdf:RDF>
  </metadata>
  <sodipodi:namedview
     pagecolor="#ffffff"
     bordercolor="#666666"
     borderopacity="1"
     objecttolerance="10"
     gridtolerance="10"
     guidetolerance="10"
     inkscape:pageopacity="0"
     inkscape:pageshadow="2"
     inkscape:window-width="1366"
     inkscape:window-height="665"
     id="namedview24"
     showgrid="true"
     inkscape:zoom="5.8237908"
     inkscape:cx="71.735352"
     inkscape:cy="37.6395"
     inkscape:window-x="-2"
     inkscape:window-y="26"
     inkscape:window-maximized="1"
     inkscape:current-layer="svg2"
     inkscape:showpageshadow="false"
     borderlayer="true">
    <inkscape:grid
       type="xygrid"
       id="grid4473" />
  </sodipodi:namedview>
  <defs
     id="defs4">
    <linearGradient
       inkscape:collect="always"
       id="linearGradient7150">
      <stop
         style="stop-color:#8796a4;stop-opacity:1"
         offset="0"
         id="stop7152" />
      <stop
         style="stop-color:#b0b7c5;stop-opacity:1"
         offset="1"
         id="stop7154" />
    </linearGradient>
    <linearGradient
       gradientTransform="matrix(0.28222223,0,0,0.28222223,8.225708e-7,-283.45332)"
       inkscape:collect="always"
       xlink:href="#linearGradient7150"
       id="linearGradient7156"
       x1="27.568569"
       y1="1049.1152"
       x2="27.568569"
       y2="1007.4026"
       gradientUnits="userSpaceOnUse" />
  </defs>
  <rect
     style="fill:#000000;fill-opacity:0.01960784;stroke:none"
     id="rect5263"
     width="12.530657"
     height="12.530657"
     x="0.50800508"
     y="0.50800508"
     ry="1.7719787" />
  <rect
     ry="1.7480332"
     y="0.59270275"
     x="0.59266847"
     height="12.361326"
     width="12.361326"
     id="rect5261"
     style="fill:#000000;fill-opacity:0.03921569;stroke:none" />
  <rect
     style="fill:#000000;fill-opacity:0.07843137;stroke:none"
     id="rect5259"
     width="12.191996"
     height="12.191996"
     x="0.67733186"
     y="0.67740047"
     ry="1.7240876" />
  <rect
     ry="1.700142"
     y="0.76206362"
     x="0.76200479"
     height="12.022664"
     width="12.022664"
     id="rect5257"
     style="fill:#000000;fill-opacity:0.15686275;stroke:none" />
  <rect
     style="fill:url(#linearGradient7156);fill-opacity:1;stroke:none"
     id="rect5237"
     width="11.853333"
     height="11.853333"
     x="0.84666818"
     y="0.84667522"
     ry="1.6761965" />
  <path
     inkscape:connector-curvature="0"
     style="fill:#000000;fill-opacity:0.11764706;stroke:none"
     d="m 0.84666782,10.318764 0,0.705556 c 0,0.928624 0.74708198,1.675694 1.67569398,1.675694 l 8.5019452,0 c 0.928613,0 1.675695,-0.74707 1.675695,-1.675694 l 0,-0.705556 c 0,0.928624 -0.747082,1.675695 -1.675695,1.675695 l -8.5019452,0 c -0.928612,0 -1.67569398,-0.747071 -1.67569398,-1.675695 z"
     id="rect5265" />
  <path
     inkscape:connector-curvature="0"
     style="fill:#000000;fill-opacity:0.09803922;stroke:none"
     d="m 0.84666782,10.883209 0,0.141111 c 0,0.928624 0.74708198,1.675694 1.67569398,1.675694 l 8.5019452,0 c 0.928613,0 1.675695,-0.74707 1.675695,-1.675694 l 0,-0.141111 c 0,0.928624 -0.747082,1.675694 -1.675695,1.675694 l -8.5019452,0 c -0.928612,0 -1.67569398,-0.74707 -1.67569398,-1.675694 z"
     id="path5252" />
  <path
     style="fill:#000000;fill-opacity:0.49803922"
     d="M 8.4015436,3.104441 8.2603253,3.155015 c -0.1228038,0.04416 -0.140829,0.062253 -0.140829,0.1400512 0,0.095855 -0.00325,0.096258 -0.2567607,0.033846 -0.072234,-0.017786 -0.085587,-0.011051 -0.085587,0.042404 0,0.038683 -0.041928,0.08925 -0.1077616,0.1299364 -0.090032,0.055643 -0.1051348,0.080206 -0.091811,0.1501659 0.013149,0.069024 -0.00252,0.096347 -0.088699,0.1540563 -0.057534,0.038514 -0.1186364,0.070026 -0.1357717,0.070026 -0.059504,0 -0.1953184,0.1722653 -0.2773793,0.3516843 C 7.023054,4.3423521 6.9156742,4.486082 6.7788953,4.6247749 6.661036,4.7442823 6.5500923,4.8687639 6.5326386,4.9013761 c -0.043235,0.080786 -0.03969,0.1351803 0.00739,0.1174874 0.1530351,-0.057513 0.1843459,-0.059095 0.173897,-0.010115 -0.031078,0.145662 -0.44302,0.5213817 -0.734105,0.6695227 -0.1011444,0.051472 -0.088405,0.1046069 0.019452,0.080918 0.1151196,-0.025281 0.1320183,0.033881 0.1100957,0.3839736 C 6.0883013,6.4795894 6.0632483,6.5393575 5.8697252,6.71426 5.6816037,6.8842826 5.617071,6.9137987 5.3729324,6.9410652 c -0.098435,0.010996 -0.1983111,0.039195 -0.2217476,0.062634 -0.023439,0.023432 -0.1249839,0.086173 -0.225638,0.1396621 l -0.1828446,0.097258 0.2022961,-0.022175 c 0.1112632,-0.012195 0.2303057,-0.018338 0.2645412,-0.014005 0.03423,0.00431 0.1952943,0.00872 0.3579085,0.010115 0.2212032,0.00191 0.3207369,-0.010491 0.3952556,-0.049796 0.1070321,-0.056461 0.5072965,-0.075521 0.5072965,-0.02412 0,0.057097 -0.2302462,0.1693406 -0.3582975,0.1746749 -0.088304,0.00367 -0.1751906,0.036095 -0.2680424,0.099981 -0.075597,0.052015 -0.1863423,0.11517 -0.2458676,0.1400512 -0.059525,0.024878 -0.1274513,0.068154 -0.1509442,0.09648 -0.038218,0.046087 -0.032377,0.051742 0.056409,0.051742 0.054577,0 0.1257644,0.013895 0.1579467,0.031122 0.050667,0.027124 0.053819,0.044845 0.024509,0.1322707 -0.018618,0.055523 -0.055704,0.1262556 -0.082475,0.1571687 -0.038747,0.044739 -0.041124,0.068228 -0.01206,0.114764 0.032232,0.051613 0.018253,0.069427 -0.1186547,0.1536675 -0.085287,0.052474 -0.1690615,0.095701 -0.1863457,0.095701 -0.095195,0 -0.1305847,0.5421751 -0.045906,0.704535 0.02557,0.049029 0.046578,0.1145047 0.046683,0.145887 3.529e-4,0.1015351 0.072783,0.036729 0.1700066,-0.1525001 0.1462841,-0.2847101 0.2360743,-0.4178196 0.2816585,-0.4178196 0.022881,0 0.095885,-0.094534 0.1622259,-0.2100766 0.1125394,-0.1959947 0.1370151,-0.2187814 0.3680298,-0.3380684 0.2537334,-0.1310191 0.3183547,-0.2081917 0.199573,-0.239254 -0.064719,-0.016925 -0.065268,-0.019975 -0.01206,-0.089866 0.0302,-0.039678 0.094746,-0.1045851 0.1431634,-0.1443307 0.083417,-0.068474 0.097548,-0.070116 0.2672642,-0.034624 0.09851,0.020602 0.2979974,0.055622 0.4434954,0.078195 0.4437768,0.068848 0.5910042,0.110154 0.6259511,0.1754532 0.01775,0.033171 0.024864,0.080408 0.015561,0.1046492 -0.026382,0.068749 -0.211443,0.1684009 -0.3147261,0.1696177 l -0.093368,0.00117 0.085587,0.075472 c 0.047074,0.041429 0.085587,0.095031 0.085587,0.1194327 0,0.024405 0.022086,0.062851 0.049018,0.085198 0.073479,0.060978 0.1756858,0.2775874 0.1556124,0.3298983 -0.00969,0.025245 0.015708,0.090706 0.056409,0.1451085 0.040709,0.054397 0.097233,0.1408296 0.1256569,0.1921813 0.028429,0.05135 0.085925,0.1410213 0.1279912,0.1991845 0.058318,0.080634 0.076639,0.144937 0.076639,0.270766 0,0.109366 0.014918,0.173353 0.04396,0.189847 0.024102,0.01368 0.080217,0.101927 0.124879,0.196072 0.088054,0.1856147 0.2104101,0.3970457 0.2657084,0.4590557 0.078479,0.08801 0.083772,0.02641 0.01634,-0.186735 C 8.6857704,9.9911873 8.6088235,9.3460553 8.6392409,9.2297386 8.6481009,9.1958626 8.6393075,9.1011568 8.6197889,9.019272 8.6002399,8.937388 8.5810839,8.6010485 8.5773849,8.2715551 c -0.00367,-0.3294943 -0.01277,-0.5990922 -0.020229,-0.599108 -0.00745,-1.54e-5 -0.044906,0.029328 -0.083252,0.065357 -0.038352,0.036029 -0.082535,0.057675 -0.098425,0.04785 C 8.3354826,7.7609288 8.3017917,7.4503842 8.2879466,6.9772453 8.2780659,6.6397991 8.2612058,6.5295189 8.1797959,6.2657074 8.1268069,6.0940021 8.0771467,5.8677413 8.0693112,5.7626904 8.0614771,5.6576399 8.0344767,5.5024386 8.0094003,5.4180087 7.9347455,5.1666178 7.9486534,5.0557656 8.0728124,4.9107123 c 0.060703,-0.07092 0.1089288,-0.161036 0.1089288,-0.2038522 0,-0.042254 0.021001,-0.094233 0.046683,-0.1155424 0.07257,-0.060231 0.05536,-0.093367 -0.04824,-0.093368 -0.059602,0 -0.1234117,0.02888 -0.1723407,0.077807 -0.042791,0.042791 -0.086241,0.077807 -0.09648,0.077806 -0.010241,0 -0.00998,-0.095043 7.763e-4,-0.2112438 0.016431,-0.1767818 0.00948,-0.2304257 -0.042793,-0.3279533 -0.048367,-0.090241 -0.056477,-0.1391854 -0.035791,-0.2166902 0.024335,-0.091175 0.03668,-0.099424 0.1388842,-0.093367 0.085936,0.00508 0.1169265,-0.00704 0.1311034,-0.051742 0.017355,-0.054683 0.1093175,-0.1307792 0.2462566,-0.203463 0.032642,-0.017326 0.078129,-0.085596 0.1007591,-0.1513331 0.034816,-0.1011332 0.034207,-0.1329093 -0.00389,-0.2065755 L 8.4015436,3.104441 Z M 8.2844453,4.1556029 c -0.041887,0 -0.056385,0.098058 -0.019841,0.1346048 0.036545,0.036545 0.1349931,0.022441 0.1349939,-0.019452 0,-0.052043 -0.063103,-0.1151532 -0.1151532,-0.1151534 z M 7.1714274,5.5000942 c 0.00536,0.00536 -0.00886,0.089308 -0.031511,0.186735 -0.036256,0.1559614 -0.035047,0.1903312 0.010115,0.286716 0.063103,0.1346715 0.093412,0.1387561 0.1388842,0.018284 C 7.3295533,5.884168 7.4446685,5.8631581 7.4935452,5.9544825 7.581086,6.1180543 7.7309613,6.918198 7.6608285,6.8476981 7.620466,6.8071229 7.528169,6.5277968 7.528169,6.4462178 c 0,-0.1007175 -0.097818,-0.3298983 -0.1408293,-0.3298983 -0.057929,0 -0.077103,0.077027 -0.043961,0.1766201 0.016078,0.048317 0.048713,0.1716005 0.072748,0.2738779 0.042946,0.1827145 0.042362,0.187099 -0.031122,0.2552044 -0.041139,0.038125 -0.074694,0.08192 -0.074694,0.097258 0,0.015338 -0.059518,0.053478 -0.1322707,0.084809 -0.072749,0.031329 -0.1416201,0.062068 -0.1528892,0.068469 -0.011264,0.00642 -0.02674,5.284e-4 -0.034624,-0.013227 -0.00788,-0.013742 -0.024805,-0.080918 -0.037346,-0.1493876 L 6.9306173,6.7854531 6.8080723,6.9255041 6.6859166,7.0655555 6.7065354,6.9255041 c 0.011292,-0.077028 0.050079,-0.1728971 0.086365,-0.2128 0.054203,-0.059595 0.064572,-0.1056526 0.057966,-0.2575386 -0.00565,-0.1294479 0.00734,-0.2080884 0.042793,-0.2622069 0.041492,-0.063322 0.044072,-0.092917 0.014395,-0.1645601 -0.026784,-0.064656 -0.027381,-0.1110241 -0.00195,-0.1777872 0.033771,-0.088823 0.2462762,-0.3695586 0.2653191,-0.3505171 z"
     id="path4436"
     inkscape:connector-curvature="0" />
  <g
     transform="matrix(0.10190212,0,0,-0.10190212,-25.315475,-3.0646289)"
     id="g312"
     style="fill:#000000;fill-opacity:0.49803922" />
  <g
     transform="matrix(0.10190212,0,0,-0.10190212,-22.110734,-6.2695671)"
     id="g316"
     style="fill:#000000;fill-opacity:0.49803922" />
</svg>
