<?xml version="1.0" encoding="UTF-8" standalone="no"?>
<!-- Created with Inkscape (http://www.inkscape.org/) -->

<svg
   xmlns:dc="http://purl.org/dc/elements/1.1/"
   xmlns:cc="http://creativecommons.org/ns#"
   xmlns:rdf="http://www.w3.org/1999/02/22-rdf-syntax-ns#"
   xmlns:svg="http://www.w3.org/2000/svg"
   xmlns="http://www.w3.org/2000/svg"
   xmlns:xlink="http://www.w3.org/1999/xlink"
   xmlns:sodipodi="http://sodipodi.sourceforge.net/DTD/sodipodi-0.dtd"
   xmlns:inkscape="http://www.inkscape.org/namespaces/inkscape"
   width="48"
   height="48"
   id="svg4230"
   version="1.1"
   inkscape:version="0.48+devel r12753"
   sodipodi:docname="androud-studio.svg">
  <defs
     id="defs4232">
    <linearGradient
       gradientUnits="userSpaceOnUse"
       y2="1007.3625"
       x2="26.056679"
       y1="1049.3649"
       x1="26.056679"
       id="linearGradient4047"
       xlink:href="#linearGradient4678"
       inkscape:collect="always"
       gradientTransform="translate(0,4.7900391e-5)" />
    <linearGradient
       id="linearGradient4678"
       inkscape:collect="always">
      <stop
         id="stop4680"
         offset="0"
         style="stop-color:#0a7fe7;stop-opacity:1" />
      <stop
         id="stop4682"
         offset="1"
         style="stop-color:#50bffc;stop-opacity:1" />
    </linearGradient>
  </defs>
  <sodipodi:namedview
     id="base"
     pagecolor="#ffffff"
     bordercolor="#666666"
     borderopacity="1.0"
     inkscape:pageopacity="0.0"
     inkscape:pageshadow="2"
     inkscape:zoom="6.3993466"
     inkscape:cx="18.283631"
     inkscape:cy="30.634986"
     inkscape:document-units="px"
     inkscape:current-layer="layer1"
     showgrid="false"
     inkscape:showpageshadow="false"
     borderlayer="true"
     inkscape:window-width="1366"
     inkscape:window-height="715"
     inkscape:window-x="0"
     inkscape:window-y="30"
     inkscape:window-maximized="1" />
  <metadata
     id="metadata4235">
    <rdf:RDF>
      <cc:Work
         rdf:about="">
        <dc:format>image/svg+xml</dc:format>
        <dc:type
           rdf:resource="http://purl.org/dc/dcmitype/StillImage" />
        <dc:title></dc:title>
      </cc:Work>
    </rdf:RDF>
  </metadata>
  <g
     inkscape:label="Capa 1"
     inkscape:groupmode="layer"
     id="layer1"
     transform="translate(0,-1004.3622)">
    <rect
       style="fill:#000000;fill-opacity:0.01960784;stroke:none"
       id="rect5263"
       width="44.399963"
       height="44.399963"
       x="1.8000183"
       y="1006.1622"
       ry="6.2786646" />
    <rect
       ry="6.1938181"
       y="1006.4623"
       x="2.1000061"
       height="43.799973"
       width="43.799973"
       id="rect5261"
       style="fill:#000000;fill-opacity:0.03921569;stroke:none" />
    <rect
       style="fill:#000000;fill-opacity:0.07843137;stroke:none"
       id="rect5259"
       width="43.199982"
       height="43.199982"
       x="2.3999939"
       y="1006.7624"
       ry="6.1089716" />
    <rect
       ry="6.0241251"
       y="1007.0624"
       x="2.7000122"
       height="42.599991"
       width="42.599991"
       id="rect5257"
       style="fill:#000000;fill-opacity:0.15686275;stroke:none" />
    <rect
       style="fill:url(#linearGradient4047);fill-opacity:1;stroke:none"
       id="rect5237"
       width="42"
       height="42"
       x="3"
       y="1007.3622"
       ry="5.9392786" />
    <path
       inkscape:connector-curvature="0"
       style="fill:#000000;fill-opacity:0.11764706;stroke:none"
       d="m 2.9999991,1040.9247 0,2.5 c 0,3.2904 2.64714,5.9375 5.9375,5.9375 l 30.1249999,0 c 3.29036,0 5.9375,-2.6471 5.9375,-5.9375 l 0,-2.5 c 0,3.2904 -2.64714,5.9375 -5.9375,5.9375 l -30.1249999,0 C 5.6471391,1046.8622 2.9999991,1044.2151 2.9999991,1040.9247 Z"
       id="rect5265" />
    <path
       inkscape:connector-curvature="0"
       style="fill:#000000;fill-opacity:0.09803922;stroke:none"
       d="m 2.9999991,1042.9247 0,0.5 c 0,3.2904 2.64714,5.9375 5.9375,5.9375 l 30.1249999,0 c 3.29036,0 5.9375,-2.6471 5.9375,-5.9375 l 0,-0.5 c 0,3.2904 -2.64714,5.9375 -5.9375,5.9375 l -30.1249999,0 C 5.6471391,1048.8622 2.9999991,1046.2151 2.9999991,1042.9247 Z"
       id="path5252" />
    <g
       transform="matrix(0.36107049,0,0,-0.36107049,24.938366,1037.2761)"
       id="g312"
       style="fill:#000000;fill-opacity:0.49803922" />
    <g
       transform="matrix(0.36107049,0,0,-0.36107049,36.293746,1025.92)"
       id="g316"
       style="fill:#000000;fill-opacity:0.49803922" />
    <path
       inkscape:connector-curvature="0"
       id="rect4159"
       d="m 19.741615,1015.3707 c -0.141208,0.018 -0.281039,0.063 -0.412423,0.1386 -0.525555,0.3034 -0.704312,0.9707 -0.400879,1.4962 l 0.574098,0.9965 c -1.77978,1.1697 -2.955306,3.1748 -2.977763,5.4672 l -0.0036,0 0,0.2326 c -0.424075,-0.3698 -0.974257,-0.6005 -1.583735,-0.6005 -1.33802,0 -2.415199,1.0772 -2.415199,2.4152 l 0,5.5118 c 0,1.338 1.077179,2.4152 2.415199,2.4152 0.609478,0 1.15966,-0.2307 1.583735,-0.6005 l 0,1.5672 c 0,1.0932 0.879855,1.9748 1.97308,1.9748 l 0.456968,0 c -0.0054,0.062 -0.01819,0.1225 -0.01819,0.1864 l 0,2.3755 c 0,1.3381 1.07717,2.4153 2.415199,2.4153 1.338012,0 2.4152,-1.0772 2.4152,-2.4153 l 0,-2.3755 c 0,-0.064 -0.01333,-0.1239 -0.01819,-0.1864 l 0.53781,0 c -0.0054,0.062 -0.01819,0.1225 -0.01819,0.1864 l 0,2.3755 c 0,1.3381 1.07717,2.4153 2.4152,2.4153 1.33802,0 2.415199,-1.0772 2.415199,-2.4153 l 0,-2.3755 c 0,-0.064 -0.01333,-0.1239 -0.01819,-0.1864 l 0.456968,0 c 1.093225,0 1.97308,-0.8816 1.97308,-1.9748 l 0,-1.5458 c 0.420689,0.3567 0.958464,0.5791 1.555686,0.5791 1.33802,0 2.415208,-1.0772 2.415208,-2.4152 l 0,-5.5117 c 0,-1.3381 -1.077188,-2.4153 -2.415208,-2.4153 -0.597222,0 -1.134997,0.2224 -1.555686,0.5791 l 0,-0.2112 -0.0036,0 c -0.02242,-2.2924 -1.197983,-4.2975 -2.977763,-5.4672 l 0.574107,-0.9965 c 0.303424,-0.5255 0.124676,-1.1928 -0.400888,-1.4962 -0.131384,-0.076 -0.271215,-0.121 -0.412432,-0.1386 -0.423643,-0.053 -0.85629,0.1453 -1.083869,0.5394 l -0.699486,1.211 c -0.51729,-0.1291 -1.056748,-0.2046 -1.615089,-0.2046 l -1.748706,0 c -0.55834,0 -1.097799,0.076 -1.615088,0.2046 l -0.699486,-1.211 c -0.227561,-0.3941 -0.660217,-0.5925 -1.083869,-0.5394 z m 0.04124,0.5592 c 0.180747,-0.023 0.364924,0.063 0.461921,0.231 l 0.661541,1.1466 c -0.298085,0.1063 -0.586435,0.2301 -0.86281,0.3761 l -0.608756,-1.0558 c -0.129341,-0.224 -0.05241,-0.5091 0.17158,-0.6384 0.05592,-0.032 0.116275,-0.052 0.176524,-0.059 z m 8.463103,0 c 0.06024,0.01 0.120516,0.027 0.176523,0.059 0.224014,0.1293 0.300912,0.4144 0.171572,0.6384 l -0.608748,1.0559 c -0.276375,-0.1461 -0.564725,-0.2699 -0.862809,-0.3762 l 0.661541,-1.1466 c 0.097,-0.168 0.281174,-0.2534 0.461921,-0.231 z m -5.006923,1.734 1.550751,0 c 3.060758,0 5.559537,2.3172 5.844979,5.3005 l -13.240718,0 c 0.285442,-2.9833 2.784221,-5.3005 5.844988,-5.3005 z m -2.081962,2.0406 c -0.369228,0 -0.666484,0.2973 -0.666484,0.6665 0,0.3692 0.297256,0.6665 0.666484,0.6665 0.369238,0 0.666494,-0.2973 0.666494,-0.6665 0,-0.3692 -0.297256,-0.6665 -0.666494,-0.6665 z m 5.701456,0 c -0.369228,0 -0.666484,0.2973 -0.666484,0.6665 0,0.3692 0.297256,0.6665 0.666484,0.6665 0.369247,0 0.666494,-0.2973 0.666494,-0.6665 0,-0.3692 -0.297247,-0.6665 -0.666494,-0.6665 z m -9.469434,3.3621 0,0.4026 -0.01981,0 c 0.0027,-0.1352 0.0094,-0.2694 0.01981,-0.4026 z m 13.250622,0 c 0.01045,0.1332 0.01729,0.2674 0.01972,0.4026 l -0.01972,0 0,-0.4026 z m -13.250622,0.7424 13.250622,0 0,1.5821 0,1.4023 c 0.0036,-0.01 0.0054,-0.011 0.0081,-0.016 l 0,4.2514 c 0,0.05 0.0118,0.097 0.01486,0.1467 l 0,2.7123 c 0,0.9699 -0.782039,1.7503 -1.75202,1.7503 l -9.792785,0 c -0.96999,0 -1.75202,-0.7804 -1.75202,-1.7503 l 0,-7.1417 c 0.009,0.015 0.01441,0.032 0.02314,0.048 l 0,-0.3135 0,-0.1699 0,-0.9189 0,-1.5821 z m -2.451496,0.137 c 0.870868,0 1.572191,0.7013 1.572191,1.5722 l 0,5.5084 c 0,0.8709 -0.701323,1.5722 -1.572191,1.5722 -0.87086,0 -1.572192,-0.7013 -1.572192,-1.5722 l 0,-5.5084 c 0,-0.8709 0.701332,-1.5722 1.572192,-1.5722 z m 18.125566,0 c 0.870859,0 1.5722,0.7013 1.5722,1.5722 l 0,5.5084 c 0,0.8709 -0.701341,1.5722 -1.5722,1.5722 -0.816148,0 -1.475078,-0.6179 -1.555686,-1.4122 l 0,-4.7066 0,-1.1202 c 0.07987,-0.795 0.73898,-1.4138 1.555686,-1.4138 z m -13.207725,12.439 2.986011,0 c 0.0036,0.041 0.01315,0.08 0.01315,0.122 l 0,2.5043 c 0,0.8343 -0.671951,1.5062 -1.506197,1.5062 -0.834247,0 -1.506198,-0.6719 -1.506198,-1.5062 l 0,-2.5043 c 0,-0.041 0.0099,-0.081 0.01315,-0.122 z m 5.331921,0 2.986011,0 c 0.0036,0.041 0.01315,0.08 0.01315,0.122 l 0,2.5043 c 0,0.8343 -0.671959,1.5062 -1.506206,1.5062 -0.834238,0 -1.506197,-0.6719 -1.506197,-1.5062 l 0,-2.5043 c 0,-0.041 0.0099,-0.081 0.01315,-0.122 z"
       style="fill:#000000;fill-opacity:0.49803922;fill-rule:evenodd;stroke:none" />
  </g>
</svg>
