<?xml version="1.0" encoding="UTF-8" standalone="no"?>
<svg
   xmlns:dc="http://purl.org/dc/elements/1.1/"
   xmlns:cc="http://creativecommons.org/ns#"
   xmlns:rdf="http://www.w3.org/1999/02/22-rdf-syntax-ns#"
   xmlns:svg="http://www.w3.org/2000/svg"
   xmlns="http://www.w3.org/2000/svg"
   xmlns:xlink="http://www.w3.org/1999/xlink"
   xmlns:sodipodi="http://sodipodi.sourceforge.net/DTD/sodipodi-0.dtd"
   xmlns:inkscape="http://www.inkscape.org/namespaces/inkscape"
   width="48"
   viewBox="0 0 13.546667 13.546667"
   height="48"
   id="svg2"
   version="1.1"
   inkscape:version="0.48+devel r"
   sodipodi:docname="atom.svg">
  <metadata
     id="metadata22">
    <rdf:RDF>
      <cc:Work
         rdf:about="">
        <dc:format>image/svg+xml</dc:format>
        <dc:type
           rdf:resource="http://purl.org/dc/dcmitype/StillImage" />
      </cc:Work>
    </rdf:RDF>
  </metadata>
  <sodipodi:namedview
     pagecolor="#ffffff"
     bordercolor="#666666"
     borderopacity="1"
     objecttolerance="10"
     gridtolerance="10"
     guidetolerance="10"
     inkscape:pageopacity="0"
     inkscape:pageshadow="2"
     inkscape:window-width="1366"
     inkscape:window-height="665"
     id="namedview20"
     showgrid="false"
     inkscape:zoom="6.6040149"
     inkscape:cx="9.6112581"
     inkscape:cy="22.740568"
     inkscape:window-x="-2"
     inkscape:window-y="26"
     inkscape:window-maximized="1"
     inkscape:current-layer="svg2" />
  <defs
     id="defs4">
    <linearGradient
       inkscape:collect="always"
       id="linearGradient4678">
      <stop
         style="stop-color:#0a7fe7;stop-opacity:1"
         offset="0"
         id="stop4680" />
      <stop
         style="stop-color:#50bffc;stop-opacity:1"
         offset="1"
         id="stop4682" />
    </linearGradient>
    <linearGradient
       gradientUnits="userSpaceOnUse"
       y2="1007.3748"
       x2="29.109528"
       y1="1049.3851"
       x1="29.109528"
       id="linearGradient4101"
       xlink:href="#linearGradient4678"
       inkscape:collect="always"
       gradientTransform="matrix(0.28222223,0,0,0.28222223,-8.87146e-7,-283.45333)" />
  </defs>
  <path
     style="fill:#000000"
     d=""
     id="path906"
     inkscape:connector-curvature="0" />
  <rect
     style="fill:#000000;fill-opacity:0.01960784;stroke:none"
     id="rect5263-0"
     width="12.530657"
     height="12.530657"
     x="0.50800508"
     y="0.50800508"
     ry="1.7719787" />
  <rect
     ry="1.7480332"
     y="0.59270275"
     x="0.59266752"
     height="12.361326"
     width="12.361326"
     id="rect5261-1"
     style="fill:#000000;fill-opacity:0.03921569;stroke:none" />
  <rect
     style="fill:#000000;fill-opacity:0.07843137;stroke:none"
     id="rect5259-9"
     width="12.191996"
     height="12.191996"
     x="0.67733091"
     y="0.67740041"
     ry="1.7240876" />
  <rect
     ry="1.700142"
     y="0.76206368"
     x="0.76200289"
     height="12.022664"
     width="12.022664"
     id="rect5257-6"
     style="fill:#000000;fill-opacity:0.15686275;stroke:none" />
  <rect
     style="fill:url(#linearGradient4101);fill-opacity:1;stroke:none"
     id="rect5237-3"
     width="11.853333"
     height="11.853333"
     x="0.84666532"
     y="0.84667522"
     ry="1.6761965" />
  <path
     inkscape:connector-curvature="0"
     style="fill:#000000;fill-opacity:0.11764706;stroke:none"
     d="m 0.84666511,10.318764 0,0.705556 c 0,0.928624 0.74708199,1.675694 1.67569499,1.675694 l 8.5019449,0 c 0.928612,0 1.675694,-0.74707 1.675694,-1.675694 l 0,-0.705556 c 0,0.928624 -0.747082,1.675695 -1.675694,1.675695 l -8.5019449,0 c -0.928613,0 -1.67569499,-0.747071 -1.67569499,-1.675695 z"
     id="rect5265-8" />
  <path
     inkscape:connector-curvature="0"
     style="fill:#000000;fill-opacity:0.09803922;stroke:none"
     d="m 0.84666511,10.883209 0,0.141111 c 0,0.928624 0.74708199,1.675694 1.67569499,1.675694 l 8.5019449,0 c 0.928612,0 1.675694,-0.74707 1.675694,-1.675694 l 0,-0.141111 c 0,0.928624 -0.747082,1.675694 -1.675694,1.675694 l -8.5019449,0 c -0.928613,0 -1.67569499,-0.74707 -1.67569499,-1.675694 z"
     id="path5252-0" />
  <path
     d="M 8.14169,10.428786 C 7.5312508,10.327413 6.7384767,9.628617 6.0146802,8.5539147 5.711022,8.1030403 5.400322,7.5462286 5.1975077,7.0894411 5.1568278,6.9978072 5.1419579,6.9757775 5.1296679,6.9889069 5.1050578,7.0152063 4.9283558,7.3994008 4.8352632,7.6290215 4.6786708,8.0152683 4.5683021,8.3835368 4.5050541,8.7308255 4.4645326,8.9533078 4.4610493,9.3843939 4.4986977,9.5179452 4.5861615,9.8282757 4.7758248,9.9572573 5.0717445,9.9076522 5.2850546,9.8718894 5.5432708,9.755065 5.8172437,9.5703479 5.9389171,9.4883207 5.9709163,9.4727004 6.017977,9.4724296 6.089938,9.4719965 6.1436442,9.5111586 6.1688134,9.582364 6.1855024,9.629562 6.1854364,9.643265 6.1683182,9.6883823 6.1518932,9.7316883 6.1234332,9.7573103 5.9950039,9.8443906 5.8176257,9.9646674 5.5141664,10.119704 5.3589193,10.169363 4.952163,10.299471 4.6357212,10.251785 4.412625,10.026729 4.2079814,9.8202979 4.1198123,9.486328 4.1469839,9.0205169 4.1823445,8.4143114 4.4488457,7.5867265 4.8699307,6.7754837 L 4.975522,6.5720554 4.895766,6.3562585 C 4.8194342,6.1497355 4.6684718,5.6709411 4.6684718,5.6353764 c 0,-0.026202 -0.046185,-0.020814 -0.2486817,0.029001 -0.46396,0.114136 -0.808689,0.2593887 -1.0559169,0.4449359 -0.4859523,0.3647144 -0.3572366,0.7760991 0.3709989,1.1857332 0.1159647,0.065232 0.1427507,0.1003618 0.1427507,0.1872057 0,0.045387 -0.00836,0.064017 -0.04557,0.1012058 C 3.7524149,7.6630908 3.6782659,7.6464887 3.4324079,7.4940102 3.076825,7.2734725 2.8520082,7.022523 2.7728218,6.7577574 2.7439031,6.6610665 2.7437974,6.4662888 2.7726178,6.3690347 2.8146344,6.2272411 2.8853496,6.1146294 3.0129876,5.9862508 3.2990279,5.6985498 3.773381,5.4776436 4.4239511,5.3291639 4.5564559,5.2989195 4.5870595,5.2876047 4.5820659,5.2707174 4.5786596,5.2591447 4.5635196,5.1834275 4.5484124,5.1023297 4.4600194,4.6277985 4.4573329,4.0837289 4.5418849,3.7820138 4.6393867,3.4341135 4.8159157,3.227051 5.0974028,3.1304099 5.2123318,3.0909506 5.4423831,3.0972088 5.6000619,3.1441236 5.7586421,3.1912695 5.9555413,3.2882155 6.1295292,3.4048364 6.3368834,3.543815 6.3980246,3.6021353 6.4068014,3.6692916 6.4269681,3.8236039 6.2675425,3.906819 6.1373935,3.8099124 5.729312,3.5060667 5.4380239,3.3904491 5.204636,3.4396875 5.0350307,3.4754746 4.9053771,3.6498473 4.8399439,3.9301794 c -0.026024,0.1114911 -0.029581,0.1644103 -0.029705,0.4416685 -1.327e-4,0.3146984 0.00435,0.3653084 0.061826,0.6952636 l 0.028876,0.1657975 0.068073,-0.00828 C 5.2814305,5.186854 5.5506674,5.160595 5.7166896,5.151696 L 5.9137416,5.141118 5.9444726,5.101603 C 6.2773085,4.6736609 6.7613808,4.1739183 7.1281481,3.8796092 7.8305311,3.3159889 8.4329396,3.120251 8.8473541,3.3209962 c 0.234096,0.1133913 0.38205,0.3451345 0.439425,0.6882688 0.03746,0.2240119 0.0079,0.7542621 -0.05043,0.903619 -0.02014,0.051601 -0.08472,0.088776 -0.154326,0.088848 -0.04381,3.99e-5 -0.06674,-0.00887 -0.100531,-0.039057 -0.04006,-0.035787 -0.04375,-0.045745 -0.04347,-0.1172917 1.92e-4,-0.043005 0.01146,-0.1656476 0.02507,-0.2725463 0.0396,-0.3108001 0.01236,-0.5980874 -0.07242,-0.7642948 -0.04116,-0.080676 -0.125374,-0.1668168 -0.198196,-0.2027187 -0.05463,-0.02693 -0.08277,-0.03103 -0.210506,-0.030616 -0.1342295,4.362e-4 -0.1604918,0.00486 -0.2929666,0.050103 -0.4098603,0.1397788 -0.8794814,0.4757856 -1.3835866,0.9899123 -0.0964,0.09832 -0.240978,0.2541622 -0.321279,0.346316 L 6.3381362,5.129092 6.4650543,5.132112 c 1.7765615,0.042118 3.2739048,0.4500868 3.9797207,1.0843312 0.158824,0.1427222 0.295682,0.3553495 0.335447,0.5211696 0.02018,0.084064 0.02056,0.2472949 7.74e-4,0.3346839 -0.07289,0.3224718 -0.427425,0.6394907 -0.9442929,0.8443658 -0.0817,0.032389 -0.09895,0.035016 -0.143109,0.021787 -0.07231,-0.02166 -0.119198,-0.082764 -0.119198,-0.1553036 0,-0.085248 0.04107,-0.1261929 0.188656,-0.1880773 C 10.084099,7.4604285 10.333068,7.2716855 10.4276,7.0912518 10.46045,7.0285478 10.46539,7.0041738 10.46538,6.905163 10.465364,6.8021858 10.46098,6.7828557 10.42042,6.7040985 10.363123,6.5930208 10.17379,6.4031721 10.016727,6.2992893 9.2451071,5.7889746 7.7910287,5.4575981 6.3229816,5.4575511 l -0.2421715,-8.5e-6 -0.091259,0.1239917 C 5.8530271,5.7670088 5.5567808,6.2178618 5.438895,6.4195616 l -0.1039564,0.1778681 0.07143,0.1639401 c 0.7165845,1.6446006 1.829075,3.0331679 2.6496163,3.3071442 0.1783898,0.05956 0.313378,0.06246 0.4224918,0.0091 C 8.6826631,9.9777496 8.7896141,9.7184325 8.8060381,9.283407 8.8334461,8.5573666 8.5719501,7.5539051 8.0843342,6.5140099 8.033774,6.4061893 8.0034236,6.3239013 8.0034236,6.2946525 c 0,-0.087947 0.072222,-0.1571105 0.1627599,-0.1558595 0.08039,0.0011 0.1156606,0.033303 0.1769792,0.1615633 0.3954384,0.8271078 0.6590444,1.655697 0.7574774,2.3809705 0.0331,0.2438858 0.0333,0.7402786 3.71e-4,0.917666 -0.05267,0.2837217 -0.146374,0.4881222 -0.289768,0.6320692 -0.174684,0.175358 -0.4013967,0.242331 -0.6695755,0.197795 z M 5.304923,6.0138128 c 0.050061,-0.081092 0.1475052,-0.2300842 0.2165411,-0.3310852 0.06904,-0.1010049 0.1255197,-0.1877334 0.1255197,-0.1927389 0,-0.017229 -0.6333585,0.046859 -0.6525263,0.066035 -0.011481,0.011576 0.026449,0.152629 0.1107785,0.4119623 0.061331,0.1885986 0.077929,0.2269095 0.091771,0.2117643 0.00931,-0.010151 0.057851,-0.084849 0.1079138,-0.1659347 z M 6.6563206,7.2161436 C 6.4549433,7.1442396 6.3372624,6.976226 6.3399433,6.764449 c 0.00139,-0.1108771 0.02668,-0.1869188 0.09152,-0.2752347 0.1642752,-0.2237864 0.4997575,-0.2492381 0.7017233,-0.053231 0.2319834,0.225132 0.1633122,0.6268296 -0.1301239,0.7611698 -0.1009783,0.046231 -0.24792,0.054275 -0.346739,0.018988 z"
     id="path18"
     style="fill:#000000;fill-opacity:0.49803922"
     inkscape:connector-curvature="0" />
</svg>
