<?xml version="1.0" encoding="UTF-8" standalone="no"?>
<!-- Created with Inkscape (http://www.inkscape.org/) -->

<svg
   xmlns:dc="http://purl.org/dc/elements/1.1/"
   xmlns:cc="http://creativecommons.org/ns#"
   xmlns:rdf="http://www.w3.org/1999/02/22-rdf-syntax-ns#"
   xmlns:svg="http://www.w3.org/2000/svg"
   xmlns="http://www.w3.org/2000/svg"
   xmlns:xlink="http://www.w3.org/1999/xlink"
   xmlns:sodipodi="http://sodipodi.sourceforge.net/DTD/sodipodi-0.dtd"
   xmlns:inkscape="http://www.inkscape.org/namespaces/inkscape"
   width="48"
   height="48"
   id="svg2"
   version="1.1"
   inkscape:version="0.91+devel r"
   sodipodi:docname="Awesomenauts.svg">
  <defs
     id="defs4">
    <style
       id="style2464"
       type="text/css" />
    <style
       type="text/css"
       id="style2464-7" />
    <linearGradient
       inkscape:collect="always"
       id="linearGradient4678">
      <stop
         style="stop-color:#0a7fe7;stop-opacity:1"
         offset="0"
         id="stop4680" />
      <stop
         style="stop-color:#50bffc;stop-opacity:1"
         offset="1"
         id="stop4682" />
    </linearGradient>
    <linearGradient
       gradientUnits="userSpaceOnUse"
       y2="1013.6583"
       x2="162.46594"
       y1="1055.6583"
       x1="162.46594"
       id="linearGradient4101"
       xlink:href="#linearGradient4678"
       inkscape:collect="always"
       gradientTransform="translate(-142.46594,-6.2960648)" />
  </defs>
  <sodipodi:namedview
     id="base"
     pagecolor="#ffffff"
     bordercolor="#666666"
     borderopacity="1.0"
     inkscape:pageopacity="0.0"
     inkscape:pageshadow="2"
     inkscape:zoom="7.2820108"
     inkscape:cx="45.654751"
     inkscape:cy="27.45367"
     inkscape:document-units="px"
     inkscape:current-layer="layer1"
     showgrid="true"
     inkscape:window-width="1366"
     inkscape:window-height="670"
     inkscape:window-x="-4"
     inkscape:window-y="29"
     inkscape:window-maximized="1"
     showguides="false">
    <inkscape:grid
       type="xygrid"
       id="grid3850"
       empspacing="5"
       visible="true"
       enabled="true"
       snapvisiblegridlinesonly="true" />
  </sodipodi:namedview>
  <metadata
     id="metadata7">
    <rdf:RDF>
      <cc:Work
         rdf:about="">
        <dc:format>image/svg+xml</dc:format>
        <dc:type
           rdf:resource="http://purl.org/dc/dcmitype/StillImage" />
        <dc:title />
      </cc:Work>
    </rdf:RDF>
  </metadata>
  <g
     inkscape:label="Capa 1"
     inkscape:groupmode="layer"
     id="layer1"
     transform="translate(0,-1004.3622)">
    <rect
       style="fill:#000000;fill-opacity:0.01960784;stroke:none"
       id="rect5263-0"
       width="44.399963"
       height="44.399963"
       x="1.8000183"
       y="1006.1622"
       ry="6.2786646" />
    <rect
       ry="6.1938181"
       y="1006.4623"
       x="2.1000061"
       height="43.799973"
       width="43.799973"
       id="rect5261-1"
       style="fill:#000000;fill-opacity:0.03921569;stroke:none" />
    <rect
       style="fill:#000000;fill-opacity:0.07843137;stroke:none"
       id="rect5259-9"
       width="43.199982"
       height="43.199982"
       x="2.3999939"
       y="1006.7626"
       ry="6.1089716" />
    <rect
       ry="6.0241251"
       y="1007.0624"
       x="2.7000122"
       height="42.599991"
       width="42.599991"
       id="rect5257-6"
       style="fill:#000000;fill-opacity:0.15686275;stroke:none" />
    <rect
       style="fill:url(#linearGradient4101);fill-opacity:1;stroke:none"
       id="rect5237-3"
       width="42"
       height="42"
       x="3"
       y="1007.3622"
       ry="5.9392786" />
    <path
       inkscape:connector-curvature="0"
       style="fill:#000000;fill-opacity:0.11764706;stroke:none"
       d="m 2.9999985,1040.9247 0,2.5 c 0,3.2904 2.64714,5.9375 5.9375,5.9375 l 30.1250005,0 c 3.29036,0 5.9375,-2.6471 5.9375,-5.9375 l 0,-2.5 c 0,3.2904 -2.64714,5.9375 -5.9375,5.9375 l -30.1250005,0 c -3.29036,0 -5.9375,-2.6471 -5.9375,-5.9375 z"
       id="rect5265-8" />
    <path
       inkscape:connector-curvature="0"
       style="fill:#000000;fill-opacity:0.09803922;stroke:none"
       d="m 2.9999985,1042.9247 0,0.5 c 0,3.2904 2.64714,5.9375 5.9375,5.9375 l 30.1250005,0 c 3.29036,0 5.9375,-2.6471 5.9375,-5.9375 l 0,-0.5 c 0,3.2904 -2.64714,5.9375 -5.9375,5.9375 l -30.1250005,0 c -3.29036,0 -5.9375,-2.6471 -5.9375,-5.9375 z"
       id="path5252-0" />
    <path
       style="fill:#000000"
       d=""
       id="path906"
       inkscape:connector-curvature="0" />
    <path
       style="fill:#000000;fill-opacity:0.49803922;fill-rule:evenodd;stroke:none;stroke-width:0.28222221px;stroke-linecap:butt;stroke-linejoin:miter;stroke-opacity:1"
       d="m 23.798873,1015.3622 -0.252241,0.018 -3.279139,1.22 c -0.179565,0.046 -0.197025,0.017 -0.18135,0.282 l 0.0066,0.1582 1.66842,5.9005 -1.399693,0.9397 -2.222361,-0.084 c -0.167348,0.01 -0.248224,0.1873 -0.150026,0.4682 l 0.361051,0.6463 -0.361051,0.067 -0.0676,0.086 -1.976715,0.5177 c -0.207616,0.041 -0.160319,0.096 -0.09398,0.2604 0.599547,0.8862 1.309164,1.513 2.314687,1.9454 l 0.03297,0.2523 c -0.07964,0.093 -0.168078,0.1584 -0.184647,0.2852 l -0.502834,0.45 0.05111,0.4055 c 0.281758,0.2993 0.602798,0.484 0.535807,0.9216 l 0.519321,2.9 0.243997,0.31 c 0.126889,0.066 0.125788,0.1135 0.408863,-0.024 l 0.957857,-0.8045 -0.151675,1.0403 -1.274395,0.671 -2.682332,-3.3715 -3.55446,7.0759 c 5.289119,3.6091 13.228546,4.2093 19.85288,2.6659 1.487454,-1.3101 2.274329,-3.1449 3.017005,-5.0136 l -0.133539,-0.8886 -0.821022,-2.834 0.03297,-1.1391 0.43524,-3.5381 -2.59825,-4.2418 0.921588,-3.3369 -1.30737,-0.4369 -1.442557,1.0402 c -0.160131,0.052 -0.290521,0.08 -0.418753,0.1847 l -0.301701,0.066 c -0.163698,0.048 -0.203949,0.1246 -0.318186,0 l 0.334673,-1.1226 c -0.142442,-0.077 -0.173331,-0.1652 -0.369295,-0.1171 l -5.649877,-3.8232 0,0 z m -0.220917,0.7486 c 1.087959,1.8226 1.456636,4.4351 1.658528,7.2324 -0.976558,0.6141 -2.104638,1.5264 -2.679034,1.019 -0.230941,-2.5594 -0.564152,-5.0724 -1.589286,-7.2787 l 2.609792,-0.9727 z m -0.154973,0.6165 c 0.09485,0.4506 0.237046,6.1882 0.49789,6.8996 0,0 0.118701,-0.3554 0.118701,-1.0667 0,-0.7114 -0.711437,-6.2834 -0.61659,-5.8329 z m 1.315613,0.4386 c 0.816582,1.3396 2.39098,2.2439 4.471101,2.8571 l -0.417104,0.7056 c -0.118049,0.2922 -0.297692,0.421 -0.545699,0.5918 l -2.594954,1.7855 c -0.0028,-2.0554 -0.409064,-4.0101 -0.913344,-5.94 z m 7.394134,3.2939 0,0.026 c -0.0028,0 -0.0055,0 -0.0083,0 l -0.763319,2.9511 c 1.143345,0.9135 1.766943,2.3454 2.649359,3.5199 l 0,0.01 0.01649,0.6496 0,0.01 c 0.03539,0.1642 0.05638,0.3295 0.0643,0.4929 8.2e-5,0 -7.8e-5,-2e-4 0,0.01 0.0077,0.1632 0.0039,0.3243 -0.01154,0.483 -1.56e-4,0 1.58e-4,-2e-4 0,0.01 -0.03109,0.3209 -0.105506,0.629 -0.204429,0.9085 l 0.01649,0.6001 -0.166512,0.2687 0,0.582 0,0.01 0.268728,2.107 0,0.01 c 0,0 0.01786,0.1457 0.02968,0.2473 0.02112,0.1816 0.04367,0.3774 0.05441,0.4419 0.0068,0.04 0.04206,0.2058 0.07914,0.3808 0.06361,0.3003 0.138486,0.6528 0.138486,0.6528 l 0.318187,0.6199 -2.682333,4.4102 c -0.07067,0.018 -0.170243,0.032 -0.243997,0.05 -0.19163,0.045 -0.381092,0.091 -0.591861,0.1334 -0.0011,3e-4 -0.0021,-2e-4 -0.0033,0 -0.206861,0.042 -0.432704,0.084 -0.656158,0.1237 -0.214535,0.039 -0.430739,0.073 -0.659454,0.1088 -0.219835,0.035 -0.43588,0.069 -0.667698,0.1006 -0.272448,0.037 -0.558461,0.069 -0.84575,0.1005 -2.377841,0.2637 -5.190058,0.3381 -7.860699,-0.057 -0.06196,-0.01 -0.122873,-0.02 -0.184648,-0.029 -0.150971,-0.024 -0.302052,-0.047 -0.451726,-0.074 -0.07111,-0.013 -0.138592,-0.033 -0.209377,-0.046 -0.377971,-0.072 -0.749326,-0.1544 -1.116127,-0.2473 -0.107166,-0.027 -0.215472,-0.052 -0.321484,-0.081 -0.472005,-0.1293 -0.934063,-0.2741 -1.378259,-0.4434 -0.453142,-0.1727 -0.886664,-0.3705 -1.302423,-0.5885 -0.107201,-0.056 -0.215767,-0.1108 -0.319835,-0.1699 -0.168492,-0.096 -0.33236,-0.1957 -0.492944,-0.3 -10e-4,-7e-4 -0.0023,0 -0.0033,0 -0.05565,-0.036 -0.106924,-0.077 -0.161566,-0.1138 -0.103971,-0.071 -0.209618,-0.1396 -0.309944,-0.2143 -0.147268,-0.1096 -0.289947,-0.2248 -0.428645,-0.3429 -0.0053,-0.01 -0.01118,-0.01 -0.01649,-0.014 -0.01602,-0.014 -0.03521,-0.024 -0.05111,-0.038 0.0019,-0.01 0.01098,-0.034 0.01319,-0.043 3.866611,-0.3716 7.995866,-0.2076 11.49759,0.9002 l 4.078727,0.9727 c 0.682274,0.1666 1.378306,0.317 2.029471,0.4517 0.0076,0 0.01384,10e-5 0.02143,-0.01 -2.084256,-0.5773 -5.898753,-1.671 -6.177441,-1.7755 -1.93534,-0.7129 -3.889026,-1.0796 -5.926849,-1.2331 -0.09454,-0.024 -2.452098,6e-4 -5.519634,0.6825 0.194748,-0.7797 1.343037,-3.8004 2.481198,-5.4653 l 2.247091,2.3476 c -0.514517,0.2798 -0.935524,0.4694 -0.43524,0.6034 l 3.302219,-1.66 1.073262,1.8283 2.280065,-1.309 2.749926,1.5777 2.463062,-1.6701 0.0017,0 0.03463,-0.024 3.655027,1.5101 0.06595,-0.1996 -0.08244,-0.035 -0.03463,-0.064 0.05111,-1.6255 -0.252241,-0.6859 0.08408,-1.0041 c 0,0 -0.03415,-0.5325 -0.0676,-0.6181 -0.03346,-0.084 -0.165913,-0.6831 -0.166512,-0.6859 l -0.3017,-0.4188 c 0,0 1.42e-4,-0.4152 -0.01649,-0.5506 -0.01676,-0.1339 -0.03457,-1.1362 -0.03463,-1.1391 l -0.150026,1.1886 -0.08408,0.1335 -0.151675,0.7353 -2.161362,-2.0097 0.919939,2.5505 0.118702,0.3314 -3.956728,-1.5251 0.182999,2.8159 -4.761262,-1.6272 0.486348,1.8283 -2.81752,-1.576 -1.239774,1.4095 -0.469862,-2.7499 -0.01649,-0.3693 -0.319836,-0.2688 0.82267,-0.3676 c 0,0 0.161387,0.1662 0.291809,0.249 0.748316,0.3856 1.162755,0.2184 1.768986,-0.2128 -0.142888,0.2335 -0.304893,0.43 -0.588564,0.615 -0.09455,0.071 -1.022843,0.5297 -1.028749,0.5325 0.0057,-3e-4 0.353579,-0.023 0.400619,-0.046 0.04743,-0.024 0.3078,-0.1437 0.450078,-0.2027 0.142275,-0.059 0.34369,-0.2251 0.438537,-0.3199 0.09485,-0.095 0.226315,-0.1418 0.333023,-0.2127 0.106713,-0.071 0.224604,-0.2489 0.272027,-0.3198 0.02573,-0.039 0.104189,-0.162 0.179701,-0.2836 l 0.0033,0 c 0.06259,-0.1006 0.121687,-0.2037 0.148377,-0.2357 0.05928,-0.072 0.202783,-0.1186 0.202783,-0.1186 l 0.283565,-0.035 0.202781,0.012 0.08244,0.1302 c 0,0 0.213062,0.214 0.260484,0.2258 0.04742,0.012 0.09563,-0.014 0.09563,-0.014 0,0 0.07096,-0.034 0.130243,-0.057 0.05928,-0.024 0.13063,-0.1313 0.178051,-0.155 0.04742,-0.024 0.319836,-0.1418 0.319836,-0.1418 0,0 0.08321,-0.013 0.178053,-0.036 0.09486,-0.024 0.141783,-0.046 0.141783,-0.046 l 0.260484,-0.1303 0.178053,-0.427 c 0,0 -0.189663,0.1654 -0.248944,0.2127 -0.05928,0.047 -0.486348,0.178 -0.486348,0.178 0,0 -0.261257,0.072 -0.356105,0.1187 -0.09486,0.047 -0.03463,0.012 -0.03463,0.012 l -0.141783,-0.094 -0.154972,-0.071 -0.153324,-0.2621 c 0,0 -0.07159,-0.083 -0.107161,-0.1418 -0.03557,-0.06 -0.130243,-0.1303 -0.130243,-0.1303 l -0.130241,-0.1418 c -0.235556,-0.5418 -0.185572,-1.1484 -0.08408,-1.6849 l -0.178052,0.2621 c -0.152594,0.4521 -0.145247,0.9398 -0.04617,1.3635 0.03558,0.047 0.05809,0.142 0.105512,0.2011 0.04742,0.059 0.0482,0.1666 0.09563,0.2852 0.103857,0.3541 0.02166,0.4082 -0.331377,0.2358 l -0.154971,-0.1896 -0.153324,-0.2605 -0.191242,-0.3314 -0.130242,-0.2852 c -0.05292,-0.3664 -0.01324,-0.7997 -0.09398,-1.1969 l -0.01154,0.012 0,0.3429 0,0.356 c 1e-6,0.047 0.01154,0.1549 0.01154,0.2853 0,0.1304 -6.35e-4,0.2014 0.02308,0.2605 0.02371,0.059 0.130242,0.2489 0.130242,0.2489 0.129287,0.1344 0.240785,0.2674 0.09562,0.3908 l -0.178053,-0.2242 c -0.175972,-0.2256 -0.35194,-0.4981 -0.285214,-0.8541 0,-0.095 0.0014,-0.2607 0.01319,-0.3198 0.01188,-0.059 0,-0.3201 0,-0.3792 0,-0.059 -0.01319,-0.2258 -0.01319,-0.2258 l -0.07089,-0.1665 -0.03463,0.015 -0.130242,0.295 c 0.05005,0.3655 0.02506,0.6544 -0.01319,1.0683 0,0.059 0.08408,0.1896 0.08408,0.1896 0.09817,0.15 0.177405,0.2984 0.296755,0.4271 0,0 0.153392,0.1186 0.212673,0.1895 0.05927,0.071 0.09436,0.1056 0.141783,0.1765 0.04745,0.071 0.01154,0.178 0.01154,0.178 0,0 0.002,0.073 0.0033,0.1055 -1.034375,-0.4927 -2.150428,-1.5252 -3.124167,-1.5167 0.297065,0.1798 0.253337,0.2016 0.438538,0.3676 l -0.126945,0.122 -0.08573,0.1335 c -0.431996,-0.073 -1.070138,-0.5731 -1.447502,-0.9727 0.507751,-0.2295 1.094635,-0.3968 1.684906,-0.5621 0.383587,-0.1019 0.499862,-0.029 0.816075,0.1022 l 1.002371,0.4121 c 0.03458,0 0.16901,-0.01 0.08408,-0.059 l -1.74096,-0.8704 -0.07419,-0.2869 c -0.103415,-0.6248 -0.05624,-0.6631 0.263783,-0.6496 l 3.450597,0.6167 c 2.695412,-1.266 5.268753,-2.7462 8.035453,-3.8876 0.416993,-0.172 0.839229,-0.335 1.266153,-0.4897 l 0,-0.01 c 0.0016,8e-4 0.0034,0 0.005,0 0.04754,-0.018 0.09423,-0.036 0.141783,-0.052 l 0.0083,-0.03 z m -7.511188,0.8721 c -0.01834,-0.039 -0.05348,0.013 -0.103864,0.1732 -0.201557,0.6402 -0.260484,2.0871 -0.260484,2.0871 0.320122,-1.2183 0.41937,-2.1441 0.364348,-2.2603 z m 5.783417,2.0163 -6.958895,5.2772 c 0,0 0.30275,0.052 0.436889,0.035 0.134139,-0.017 0.285178,-0.2019 0.38578,-0.2686 0.100606,-0.067 0.167001,-0.2006 0.334675,-0.3347 0.167673,-0.1342 0.301944,0 0.38578,0 0.08384,0 0.302466,0.1336 0.453376,0.2341 0.150905,0.1007 0.183765,0.1 0.334672,0.1665 0.08123,0.036 0.148947,0.033 0.219268,0.019 0.0608,-0.011 0.121395,-0.03 0.199485,-0.038 0.16768,-0.017 0.100817,9e-4 0.184648,-0.017 0.08384,-0.017 0.284576,0.017 0.519321,0 0.234744,-0.017 0.95621,-0.4188 0.95621,-0.4188 0,0 0.373968,-0.2892 0.761669,-0.5952 0.387701,-0.306 0.790367,-0.6282 0.849047,-0.6958 0.05857,-0.067 0.209739,-0.2962 0.395673,-0.5539 0.07119,-0.099 0.15072,-0.1995 0.229161,-0.2985 0.02438,-0.03 0.04622,-0.062 0.07089,-0.092 0.0027,0 0.0056,-0.01 0.0083,-0.01 0.101386,-0.1219 0.203687,-0.2357 0.301701,-0.3215 0.201702,-0.1765 0.308707,-0.264 0.370943,-0.3231 0.06144,-0.058 0.07903,-0.088 0.09562,-0.145 0.03341,-0.117 0.134334,-0.3169 0.151675,-0.3842 -0.0084,-0.1341 -0.03101,-0.2528 -0.06595,-0.3627 -0.03505,-0.1099 -0.0847,-0.2092 -0.143431,-0.305 -0.05886,-0.096 -0.129902,-0.1867 -0.209377,-0.2787 -0.07961,-0.092 -0.169456,-0.1837 -0.267079,-0.2819 l 0,-0.01 z m -8.487181,0.2028 0.08903,0.5803 c -0.189702,-0.083 -0.735293,-0.1664 -0.735293,-0.1664 l 0.646265,-0.4139 z m 8.239887,0.3248 c 0.758768,2.4219 -2.999828,4.2819 -4.469454,3.4506 0.177845,-0.095 4.469454,-3.4506 4.469454,-3.4506 z m -11.096972,3.0714 2.299847,1.2514 c 0.01809,0.3962 -0.416358,0.5193 -0.694076,0.6461 -1.27926,0.073 -1.751976,-0.8214 -1.605771,-1.8975 z m 0.550643,3.0813 0.0033,0 -0.0033,0 z"
       id="path4216"
       inkscape:connector-curvature="0" />
  </g>
</svg>
