<?xml version="1.0" encoding="UTF-8" standalone="no"?>
<!-- Created with Inkscape (http://www.inkscape.org/) -->

<svg
   xmlns:dc="http://purl.org/dc/elements/1.1/"
   xmlns:cc="http://creativecommons.org/ns#"
   xmlns:rdf="http://www.w3.org/1999/02/22-rdf-syntax-ns#"
   xmlns:svg="http://www.w3.org/2000/svg"
   xmlns="http://www.w3.org/2000/svg"
   xmlns:xlink="http://www.w3.org/1999/xlink"
   xmlns:sodipodi="http://sodipodi.sourceforge.net/DTD/sodipodi-0.dtd"
   xmlns:inkscape="http://www.inkscape.org/namespaces/inkscape"
   width="48"
   height="48"
   id="svg5453"
   version="1.1"
   inkscape:version="0.49 r12742"
   sodipodi:docname="baloo.svg">
  <defs
     id="defs5455">
    <linearGradient
       gradientUnits="userSpaceOnUse"
       y2="1007.3625"
       x2="26.056679"
       y1="1049.3649"
       x1="26.056679"
       id="linearGradient4047"
       xlink:href="#linearGradient4678"
       inkscape:collect="always"
       gradientTransform="translate(384.57142,-504.56415)" />
    <linearGradient
       id="linearGradient4678"
       inkscape:collect="always">
      <stop
         id="stop4680"
         offset="0"
         style="stop-color:#0a7fe7;stop-opacity:1" />
      <stop
         id="stop4682"
         offset="1"
         style="stop-color:#50bffc;stop-opacity:1" />
    </linearGradient>
  </defs>
  <sodipodi:namedview
     id="base"
     pagecolor="#ffffff"
     bordercolor="#666666"
     borderopacity="1.0"
     inkscape:pageopacity="0"
     inkscape:pageshadow="2"
     inkscape:zoom="4.3176446"
     inkscape:cx="-10.091306"
     inkscape:cy="32.648583"
     inkscape:document-units="px"
     inkscape:current-layer="layer1"
     showgrid="false"
     fit-margin-top="0"
     fit-margin-left="0"
     fit-margin-right="0"
     fit-margin-bottom="0"
     inkscape:window-width="1366"
     inkscape:window-height="718"
     inkscape:window-x="-2"
     inkscape:window-y="23"
     inkscape:window-maximized="1"
     inkscape:showpageshadow="false"
     borderlayer="true" />
  <metadata
     id="metadata5458">
    <rdf:RDF>
      <cc:Work
         rdf:about="">
        <dc:format>image/svg+xml</dc:format>
        <dc:type
           rdf:resource="http://purl.org/dc/dcmitype/StillImage" />
        <dc:title />
      </cc:Work>
    </rdf:RDF>
  </metadata>
  <g
     inkscape:label="Capa 1"
     inkscape:groupmode="layer"
     id="layer1"
     transform="translate(-384.57143,-499.798)">
    <rect
       style="fill:#000000;fill-opacity:0.01960784;stroke:none"
       id="rect5263"
       width="44.399963"
       height="44.399963"
       x="386.37146"
       y="501.59802"
       ry="6.2786646" />
    <rect
       ry="6.1938181"
       y="501.89813"
       x="386.67145"
       height="43.799973"
       width="43.799973"
       id="rect5261"
       style="fill:#000000;fill-opacity:0.03921569;stroke:none" />
    <rect
       style="fill:#000000;fill-opacity:0.07843137;stroke:none"
       id="rect5259"
       width="43.199982"
       height="43.199982"
       x="386.97144"
       y="502.19818"
       ry="6.1089716" />
    <rect
       ry="6.0241251"
       y="502.49817"
       x="387.27145"
       height="42.599991"
       width="42.599991"
       id="rect5257"
       style="fill:#000000;fill-opacity:0.15686275;stroke:none" />
    <rect
       style="fill:url(#linearGradient4047);fill-opacity:1;stroke:none"
       id="rect5237"
       width="42"
       height="42"
       x="387.57144"
       y="502.79803"
       ry="5.9392786" />
    <path
       inkscape:connector-curvature="0"
       style="fill:#000000;fill-opacity:0.11764706;stroke:none"
       d="m 387.57142,536.36055 0,2.5 c 0,3.2904 2.64714,5.9375 5.9375,5.9375 l 30.125,0 c 3.29036,0 5.9375,-2.6471 5.9375,-5.9375 l 0,-2.5 c 0,3.2904 -2.64714,5.9375 -5.9375,5.9375 l -30.125,0 c -3.29036,0 -5.9375,-2.6471 -5.9375,-5.9375 z"
       id="rect5265" />
    <path
       inkscape:connector-curvature="0"
       style="fill:#000000;fill-opacity:0.09803922;stroke:none"
       d="m 387.57142,538.36055 0,0.5 c 0,3.2904 2.64714,5.9375 5.9375,5.9375 l 30.125,0 c 3.29036,0 5.9375,-2.6471 5.9375,-5.9375 l 0,-0.5 c 0,3.2904 -2.64714,5.9375 -5.9375,5.9375 l -30.125,0 c -3.29036,0 -5.9375,-2.6471 -5.9375,-5.9375 z"
       id="path5252" />
    <path
       style="fill:#000000;fill-opacity:0.49803922;fill-rule:evenodd;stroke:none"
       d="m 405.30018,510.80105 a 5.0725361,3.1031986 86.752217 0 0 -2.81085,5.24019 5.0725361,3.1031986 86.752217 0 0 3.38559,4.88853 5.0725361,3.1031986 86.752217 0 0 2.81085,-5.2402 5.0725361,3.1031986 86.752217 0 0 -3.38559,-4.88852 z m 9.38514,0.86292 a 3.1031986,5.0725361 24.091227 0 0 -3.97377,3.5315 3.1031986,5.0725361 24.091227 0 0 0.76236,5.89737 3.1031986,5.0725361 24.091227 0 0 4.90347,-3.36394 3.1031986,5.0725361 24.091227 0 0 -0.76238,-5.89747 3.1031986,5.0725361 24.091227 0 0 -0.92968,-0.16746 z m -16.87215,3.62352 a 5.0725361,3.1031986 71.752218 0 0 -0.61715,0.0969 5.0725361,3.1031986 71.752218 0 0 -1.35877,5.78916 5.0725361,3.1031986 71.752218 0 0 4.53547,3.84572 5.0725361,3.1031986 71.752218 0 0 1.35878,-5.78916 5.0725361,3.1031986 71.752218 0 0 -3.91833,-3.94273 z m 22.83643,2.82884 a 3.1031986,5.0725361 30.810573 0 0 -4.35965,3.04238 3.1031986,5.0725361 30.810573 0 0 0.0672,5.94602 3.1031986,5.0725361 30.810573 0 0 5.26339,-2.76713 3.1031986,5.0725361 30.810573 0 0 -0.0672,-5.94609 3.1031986,5.0725361 30.810573 0 0 -0.90372,-0.27518 z m -12.28524,3.22434 c -1.19991,-8.1e-4 -2.44895,0.75323 -3.294,2.38219 -1.45761,1.72483 -1.95755,2.35917 -5.07256,3.83925 -1.54366,1.09624 -2.29428,2.61099 -1.92954,4.71443 0.99513,3.34051 4.15296,3.4489 5.37093,3.46131 1.69747,0.18566 3.19408,-0.0973 5.09239,0.55697 1.81536,0.13987 3.53802,0.74349 5.45052,0.3978 4.47384,-1.41459 3.61256,-6.11894 1.05919,-7.83184 l -3.4463,-4.77989 c -0.57397,-1.76779 -1.87073,-2.73905 -3.23063,-2.74022 z"
       id="path4126"
       inkscape:connector-curvature="0" />
    <g
       transform="matrix(0.36107049,0,0,-0.36107049,354.71155,518.23045)"
       id="g312"
       style="fill:#000000;fill-opacity:0.49803922" />
    <g
       transform="matrix(0.36107049,0,0,-0.36107049,366.06693,506.87435)"
       id="g316"
       style="fill:#000000;fill-opacity:0.49803922" />
  </g>
</svg>
