<?xml version="1.0" encoding="UTF-8" standalone="no"?>
<!-- Created with Inkscape (http://www.inkscape.org/) -->

<svg
   xmlns:dc="http://purl.org/dc/elements/1.1/"
   xmlns:cc="http://creativecommons.org/ns#"
   xmlns:rdf="http://www.w3.org/1999/02/22-rdf-syntax-ns#"
   xmlns:svg="http://www.w3.org/2000/svg"
   xmlns="http://www.w3.org/2000/svg"
   xmlns:xlink="http://www.w3.org/1999/xlink"
   xmlns:sodipodi="http://sodipodi.sourceforge.net/DTD/sodipodi-0.dtd"
   xmlns:inkscape="http://www.inkscape.org/namespaces/inkscape"
   width="48"
   height="48"
   id="svg2"
   version="1.1"
   inkscape:version="0.48+devel r12788"
   sodipodi:docname="bitcoin.svg">
  <defs
     id="defs4">
    <linearGradient
       id="linearGradient6075"
       inkscape:collect="always">
      <stop
         id="stop6077"
         offset="0"
         style="stop-color:#ec7928;stop-opacity:1" />
      <stop
         id="stop6079"
         offset="1"
         style="stop-color:#f29e34;stop-opacity:1" />
    </linearGradient>
    <linearGradient
       gradientUnits="userSpaceOnUse"
       y2="1007.4396"
       x2="37.957897"
       y1="1049.3441"
       x1="37.957897"
       id="linearGradient6081"
       xlink:href="#linearGradient6075"
       inkscape:collect="always"
       gradientTransform="translate(0,4.7900391e-5)" />
  </defs>
  <sodipodi:namedview
     id="base"
     pagecolor="#ffffff"
     bordercolor="#666666"
     borderopacity="1.0"
     inkscape:pageopacity="0.0"
     inkscape:pageshadow="2"
     inkscape:zoom="4.4647971"
     inkscape:cx="5.5836358"
     inkscape:cy="16.52402"
     inkscape:document-units="px"
     inkscape:current-layer="layer1"
     showgrid="false"
     inkscape:window-width="1366"
     inkscape:window-height="718"
     inkscape:window-x="0"
     inkscape:window-y="30"
     inkscape:window-maximized="1">
    <inkscape:grid
       type="xygrid"
       id="grid3850" />
  </sodipodi:namedview>
  <metadata
     id="metadata7">
    <rdf:RDF>
      <cc:Work
         rdf:about="">
        <dc:format>image/svg+xml</dc:format>
        <dc:type
           rdf:resource="http://purl.org/dc/dcmitype/StillImage" />
        <dc:title></dc:title>
      </cc:Work>
    </rdf:RDF>
  </metadata>
  <g
     inkscape:label="Capa 1"
     inkscape:groupmode="layer"
     id="layer1"
     transform="translate(0,-1004.3622)">
    <rect
       style="fill:#000000;fill-opacity:0.01960784;stroke:none"
       id="rect5263"
       width="44.399963"
       height="44.399963"
       x="1.8000183"
       y="1006.1622"
       ry="6.2786646" />
    <rect
       ry="6.1938181"
       y="1006.4623"
       x="2.1000061"
       height="43.799973"
       width="43.799973"
       id="rect5261"
       style="fill:#000000;fill-opacity:0.03921569;stroke:none" />
    <rect
       style="fill:#000000;fill-opacity:0.07843137;stroke:none"
       id="rect5259"
       width="43.199982"
       height="43.199982"
       x="2.3999939"
       y="1006.7624"
       ry="6.1089716" />
    <rect
       ry="6.0241251"
       y="1007.0624"
       x="2.7000122"
       height="42.599991"
       width="42.599991"
       id="rect5257"
       style="fill:#000000;fill-opacity:0.15686275;stroke:none" />
    <rect
       style="fill:url(#linearGradient6081);fill-opacity:1;stroke:none"
       id="rect5237"
       width="42"
       height="42"
       x="3"
       y="1007.3622"
       ry="5.9392786" />
    <path
       inkscape:connector-curvature="0"
       style="fill:#000000;fill-opacity:0.11764706;stroke:none"
       d="m 2.9999991,1040.9247 0,2.5 c 0,3.2904 2.64714,5.9375 5.9375,5.9375 l 30.1249999,0 c 3.29036,0 5.9375,-2.6471 5.9375,-5.9375 l 0,-2.5 c 0,3.2904 -2.64714,5.9375 -5.9375,5.9375 l -30.1249999,0 c -3.29036,0 -5.9375,-2.6471 -5.9375,-5.9375 z"
       id="rect5265" />
    <path
       inkscape:connector-curvature="0"
       style="fill:#000000;fill-opacity:0.09803922;stroke:none"
       d="m 2.9999991,1042.9247 0,0.5 c 0,3.2904 2.64714,5.9375 5.9375,5.9375 l 30.1249999,0 c 3.29036,0 5.9375,-2.6471 5.9375,-5.9375 l 0,-0.5 c 0,3.2904 -2.64714,5.9375 -5.9375,5.9375 l -30.1249999,0 c -3.29036,0 -5.9375,-2.6471 -5.9375,-5.9375 z"
       id="path5252" />
    <path
       style="fill:#000000;fill-opacity:0.53333309"
       d="m 21.940951,1015.3622 2.1e-5,1.9636 -10e-6,1.9632 0.111861,0.028 c 0.06161,0.015 0.458551,0.022 0.882286,0.013 l 0.770463,-0.014 0.01304,-1.9758 0.01304,-1.9757 1.167576,-10e-5 1.167419,10e-5 -1.6e-5,1.9897 c -2e-6,1.549 0.01382,1.9937 0.0622,2.0078 0.03416,0.01 0.336597,0.055 0.671998,0.099 1.498243,0.1976 2.82567,0.6609 3.716865,1.2969 0.720218,0.5139 1.299617,1.3259 1.489768,2.0879 0.116952,0.4698 0.12012,1.4638 0.0052,1.9357 -0.227829,0.9381 -0.896997,1.8862 -1.733615,2.4564 -0.129702,0.09 -0.235988,0.1803 -0.236006,0.204 -5e-6,0.024 0.117317,0.082 0.260844,0.129 0.408862,0.134 1.020033,0.4567 1.40258,0.7406 0.737724,0.5474 1.265799,1.3027 1.496078,2.1395 0.110767,0.4033 0.151246,1.593 0.07385,2.1793 -0.209247,1.5839 -0.78608,2.661 -1.857541,3.4683 -1.059694,0.7985 -2.345957,1.1654 -4.308478,1.229 l -1.019019,0.033 -0.01288,2.0006 -0.01302,2.0009 -1.166987,0 -1.166998,10e-5 -0.01306,-2.0009 -0.01303,-2.0008 -0.869873,0 -0.869874,0 -0.01304,2.0008 -0.01283,2.0008 -1.167605,0 -1.167594,0 -5e-6,-2.0132 -2.3e-5,-2.0133 -2.361025,10e-5 -2.361051,0 0,-0.4643 c -1.4e-5,-0.2553 0.01459,-0.8033 0.03258,-1.2176 l 0.03256,-0.7539 0.96834,1e-4 c 1.075133,-1e-4 1.278255,-0.036 1.528077,-0.2715 0.334572,-0.3156 0.32154,-0.054 0.320403,-6.4353 -8.83e-4,-5.5858 -0.0035,-5.7506 -0.09785,-5.958 -0.08077,-0.178 -0.144562,-0.2354 -0.384144,-0.346 -0.280152,-0.1294 -0.316269,-0.1331 -1.443041,-0.1527 l -1.155766,-0.021 1.8e-5,-1.1864 -2e-5,-1.1868 2.448044,-0.013 2.448082,-0.013 0.02484,-1.9634 0.02484,-1.9634 1.155755,-0.013 z m 1.7e-5,6.5632 -2.5e-5,2.3818 c 7e-6,1.3101 0.01358,2.4172 0.03023,2.4605 0.02673,0.07 0.228777,0.078 1.762446,0.079 1.689196,0 1.739948,0 2.050879,-0.1159 0.897791,-0.3258 1.39858,-0.8655 1.625356,-1.7522 0.240352,-0.94 0.01337,-1.8314 -0.584027,-2.2931 -0.752833,-0.5818 -1.599178,-0.7599 -3.611299,-0.7598 z m 0.02485,7.3816 -0.01287,2.6095 c -0.0069,1.4354 -0.0017,2.6399 0.01285,2.6768 0.0383,0.1 3.629983,0.05 4.125667,-0.058 1.022513,-0.2218 1.76562,-0.6577 2.153675,-1.2649 0.234558,-0.3669 0.411448,-0.9589 0.441356,-1.4766 0.07126,-1.2332 -0.590999,-1.9643 -2.147549,-2.3708 -0.434888,-0.1136 -0.504926,-0.1167 -2.510228,-0.1169 z"
       id="path3379"
       inkscape:connector-curvature="0"
       sodipodi:nodetypes="ccccccccccsssssssssssssccccccccccccccccccsccssssscccccccccccscsssssccccsssssc" />
  </g>
</svg>
