<?xml version="1.0" encoding="UTF-8" standalone="no"?>
<svg
   xmlns:dc="http://purl.org/dc/elements/1.1/"
   xmlns:cc="http://creativecommons.org/ns#"
   xmlns:rdf="http://www.w3.org/1999/02/22-rdf-syntax-ns#"
   xmlns:svg="http://www.w3.org/2000/svg"
   xmlns="http://www.w3.org/2000/svg"
   xmlns:xlink="http://www.w3.org/1999/xlink"
   xmlns:sodipodi="http://sodipodi.sourceforge.net/DTD/sodipodi-0.dtd"
   xmlns:inkscape="http://www.inkscape.org/namespaces/inkscape"
   width="48"
   viewBox="0 0 13.546667 13.546667"
   height="48"
   id="svg2"
   version="1.1"
   inkscape:version="0.48+devel r"
   sodipodi:docname="bitdefender.svg">
  <metadata
     id="metadata28">
    <rdf:RDF>
      <cc:Work
         rdf:about="">
        <dc:format>image/svg+xml</dc:format>
        <dc:type
           rdf:resource="http://purl.org/dc/dcmitype/StillImage" />
      </cc:Work>
    </rdf:RDF>
  </metadata>
  <sodipodi:namedview
     pagecolor="#ffffff"
     bordercolor="#666666"
     borderopacity="1"
     objecttolerance="10"
     gridtolerance="10"
     guidetolerance="10"
     inkscape:pageopacity="0"
     inkscape:pageshadow="2"
     inkscape:window-width="1366"
     inkscape:window-height="665"
     id="namedview26"
     showgrid="false"
     inkscape:zoom="8.109375"
     inkscape:cx="49.586196"
     inkscape:cy="21.763032"
     inkscape:window-x="-2"
     inkscape:window-y="26"
     inkscape:window-maximized="1"
     inkscape:current-layer="svg2" />
  <defs
     id="defs4">
    <linearGradient
       gradientUnits="userSpaceOnUse"
       y2="1007.4396"
       x2="37.957897"
       y1="1049.3441"
       x1="37.957897"
       id="linearGradient6081"
       xlink:href="#linearGradient6125"
       inkscape:collect="always"
       gradientTransform="matrix(0.28222223,0,0,0.28222223,5.0048829e-8,-283.45333)" />
    <style
       type="text/css"
       id="style2464" />
    <style
       id="style2464-7"
       type="text/css" />
    <linearGradient
       id="linearGradient6125"
       inkscape:collect="always">
      <stop
         id="stop6127"
         offset="0"
         style="stop-color:#f81654;stop-opacity:1" />
      <stop
         id="stop6129"
         offset="1"
         style="stop-color:#fd668f;stop-opacity:1" />
    </linearGradient>
  </defs>
  <rect
     style="fill:#000000;fill-opacity:0.01960784;stroke:none"
     id="rect5263"
     width="12.530657"
     height="12.530657"
     x="0.50800508"
     y="0.50800508"
     ry="1.7719787" />
  <rect
     ry="1.7480332"
     y="0.59270281"
     x="0.59266847"
     height="12.361326"
     width="12.361326"
     id="rect5261"
     style="fill:#000000;fill-opacity:0.03921569;stroke:none" />
  <rect
     style="fill:#000000;fill-opacity:0.07843137;stroke:none"
     id="rect5259"
     width="12.191996"
     height="12.191996"
     x="0.67733186"
     y="0.67738324"
     ry="1.7240876" />
  <rect
     ry="1.700142"
     y="0.7620464"
     x="0.76200384"
     height="12.022664"
     width="12.022664"
     id="rect5257"
     style="fill:#000000;fill-opacity:0.15686275;stroke:none" />
  <rect
     style="fill:url(#linearGradient6081);fill-opacity:1.0;stroke:none"
     id="rect5237"
     width="11.853333"
     height="11.853333"
     x="0.84666628"
     y="0.84667522"
     ry="1.6761965" />
  <path
     inkscape:connector-curvature="0"
     style="fill:#000000;fill-opacity:0.11764706;stroke:none"
     d="m 0.84666605,10.318764 0,0.705556 c 0,0.928624 0.74708205,1.675694 1.67569505,1.675694 l 8.5019449,0 c 0.928612,0 1.675694,-0.74707 1.675694,-1.675694 l 0,-0.705556 c 0,0.928624 -0.747082,1.675695 -1.675694,1.675695 l -8.5019449,0 c -0.928613,0 -1.67569505,-0.747071 -1.67569505,-1.675695 z"
     id="rect5265" />
  <path
     inkscape:connector-curvature="0"
     style="fill:#000000;fill-opacity:0.09803922;stroke:none"
     d="m 0.84666605,10.883209 0,0.141111 c 0,0.928624 0.74708205,1.675694 1.67569505,1.675694 l 8.5019449,0 c 0.928612,0 1.675694,-0.74707 1.675694,-1.675694 l 0,-0.141111 c 0,0.928624 -0.747082,1.675694 -1.675694,1.675694 l -8.5019449,0 c -0.928613,0 -1.67569505,-0.74707 -1.67569505,-1.675694 z"
     id="path5252" />
  <path
     d="M 6.6967385,3.1044883 5.0652702,7.1555291 10.304352,7.8128677 c 0.0036,-0.012347 0.0041,-0.025813 0.0077,-0.038218 L 6.2907863,5.9172864 6.7120575,3.1044883 c -0.00511,4.33e-5 -0.010177,-1.166e-4 -0.015319,0 z m 1.240835,0.275165 c -0.026723,0.00469 -0.051977,0.033666 -0.061276,0.030575 L 6.7580139,5.5962607 10.06978,7.3676354 c 0.08591,-0.00379 0.08306,-0.055335 0.05074,-0.1050975 L 7.8609786,5.2064436 7.9988491,3.4866621 C 7.992492,3.396483 7.9642968,3.3749669 7.9375729,3.3796534 Z M 5.2873951,3.4255143 C 4.0015111,3.9969698 3.1044446,5.278006 3.1044446,6.7733556 c 0,2.0262594 1.6460468,3.6688664 3.6765482,3.6688664 1.5082149,0 2.8031874,-0.9047255 3.3701702,-2.2013196 l -5.7446075,0 z m 3.3318717,0.37453 -0.4059519,1.2458861 1.8261281,1.7675368 c 0.05221,0.076283 0.34171,0.1223636 0.402779,-0.1012592 0,-1.1979902 -0.5579698,-2.1977845 -1.447641,-2.8663025 C 8.787198,3.738852 8.6531313,3.7135698 8.6192668,3.8000443 Z"
     id="path24"
     inkscape:connector-curvature="0"
     style="fill:#000000;fill-opacity:0.49803922" />
</svg>
