<?xml version="1.0" encoding="UTF-8" standalone="no"?>
<svg
   xmlns:dc="http://purl.org/dc/elements/1.1/"
   xmlns:cc="http://creativecommons.org/ns#"
   xmlns:rdf="http://www.w3.org/1999/02/22-rdf-syntax-ns#"
   xmlns:svg="http://www.w3.org/2000/svg"
   xmlns="http://www.w3.org/2000/svg"
   xmlns:xlink="http://www.w3.org/1999/xlink"
   xmlns:sodipodi="http://sodipodi.sourceforge.net/DTD/sodipodi-0.dtd"
   xmlns:inkscape="http://www.inkscape.org/namespaces/inkscape"
   width="48"
   viewBox="0 0 13.546667 13.546667"
   height="48"
   id="svg2"
   version="1.1"
   inkscape:version="0.48+devel r"
   sodipodi:docname="bless-48x48.svg">
  <metadata
     id="metadata56">
    <rdf:RDF>
      <cc:Work
         rdf:about="">
        <dc:format>image/svg+xml</dc:format>
        <dc:type
           rdf:resource="http://purl.org/dc/dcmitype/StillImage" />
      </cc:Work>
    </rdf:RDF>
  </metadata>
  <sodipodi:namedview
     pagecolor="#ffffff"
     bordercolor="#666666"
     borderopacity="1"
     objecttolerance="10"
     gridtolerance="10"
     guidetolerance="10"
     inkscape:pageopacity="0"
     inkscape:pageshadow="2"
     inkscape:window-width="1366"
     inkscape:window-height="665"
     id="namedview54"
     showgrid="false"
     inkscape:zoom="4.6697438"
     inkscape:cx="59.556418"
     inkscape:cy="17.746518"
     inkscape:window-x="-2"
     inkscape:window-y="26"
     inkscape:window-maximized="1"
     inkscape:current-layer="svg2"
     showguides="false" />
  <defs
     id="defs4">
    <linearGradient
       id="linearGradient7161"
       inkscape:collect="always">
      <stop
         id="stop7163"
         offset="0"
         style="stop-color:#dedede;stop-opacity:1" />
      <stop
         id="stop7165"
         offset="1"
         style="stop-color:#f0f0f0;stop-opacity:1" />
    </linearGradient>
    <linearGradient
       gradientUnits="userSpaceOnUse"
       y2="1007.4396"
       x2="29.135878"
       y1="1049.4602"
       x1="29.135878"
       id="linearGradient7167"
       xlink:href="#linearGradient7161"
       inkscape:collect="always"
       gradientTransform="matrix(0.28222223,0,0,0.28222223,-3.8812255e-7,-283.4533)" />
  </defs>
  <rect
     style="fill:#000000;fill-opacity:0.01960784;stroke:none"
     id="rect5263"
     width="12.530657"
     height="12.530657"
     x="0.50800508"
     y="0.50800508"
     ry="1.7719787" />
  <rect
     ry="1.7480332"
     y="0.59270281"
     x="0.59266847"
     height="12.361326"
     width="12.361326"
     id="rect5261"
     style="fill:#000000;fill-opacity:0.03921569;stroke:none" />
  <rect
     style="fill:#000000;fill-opacity:0.07843137;stroke:none"
     id="rect5259"
     width="12.191996"
     height="12.191996"
     x="0.67733186"
     y="0.67743492"
     ry="1.7240876" />
  <rect
     ry="1.700142"
     y="0.76206368"
     x="0.76200289"
     height="12.022664"
     width="12.022664"
     id="rect5257"
     style="fill:#000000;fill-opacity:0.15686275;stroke:none" />
  <rect
     style="fill:url(#linearGradient7167);fill-opacity:1;stroke:none"
     id="rect5237"
     width="11.853333"
     height="11.853333"
     x="0.84666628"
     y="0.84667522"
     ry="1.6761965" />
  <path
     inkscape:connector-curvature="0"
     style="fill:#000000;fill-opacity:0.11764706;stroke:none"
     d="m 0.84666561,10.318764 0,0.705556 c 0,0.928624 0.74708199,1.675694 1.67569499,1.675694 l 8.5019454,0 c 0.928612,0 1.675694,-0.74707 1.675694,-1.675694 l 0,-0.705556 c 0,0.928624 -0.747082,1.675695 -1.675694,1.675695 l -8.5019454,0 c -0.928613,0 -1.67569499,-0.747071 -1.67569499,-1.675695 z"
     id="rect5265" />
  <path
     inkscape:connector-curvature="0"
     style="fill:#000000;fill-opacity:0.09803922;stroke:none"
     d="m 0.84666561,10.883209 0,0.141111 c 0,0.928624 0.74708199,1.675694 1.67569499,1.675694 l 8.5019454,0 c 0.928612,0 1.675694,-0.74707 1.675694,-1.675694 l 0,-0.141111 c 0,0.928624 -0.747082,1.675694 -1.675694,1.675694 l -8.5019454,0 c -0.928613,0 -1.67569499,-0.74707 -1.67569499,-1.675694 z"
     id="path5252" />
  <path
     style="fill:#000000;fill-opacity:0.49803922"
     d="m 2.6793042,3.1044447 0,0.2216617 0,0.4433231 0,0.2216616 0.2216616,0 0.4433232,0 0,-0.2216616 0,-0.6649848 -0.4433232,0 -0.2216616,0 z m 0.94033,0 0,0.2216617 0,0.4433231 0,0.2216616 0.2216617,0 0.4433231,0 0,-0.2216616 0,-0.6649848 -0.4433231,0 -0.2216617,0 z m 0.9403299,0 0,0.2216617 0.2216617,0 0,0.4433231 -0.2216617,0 0,0.2216616 0.2216617,0 0.2216616,0 0.2216615,0 0,-0.2216616 -0.2216615,0 0,-0.6649848 -0.2216616,0 -0.2216617,0 z m 0.9407631,0 0,0.2216617 0,0.4433231 0,0.2216616 0.2216616,0 0.4433232,0 0,-0.2216616 0,-0.6649848 -0.4433232,0 -0.2216616,0 z m 0.9403302,0 0,0.2216617 0,0.4433231 0,0.2216616 0.2216615,0 0.4433232,0 0,-0.2216616 0,-0.6649848 -0.4433232,0 -0.2216615,0 z m 0.9403299,0 0,0.2216617 0.2216616,0 0,0.4433231 -0.2216616,0 0,0.2216616 0.2216616,0 0.2216615,0 0.2216616,0 0,-0.2216616 -0.2216616,0 0,-0.6649848 -0.2216615,0 -0.2216616,0 z m 0.9403301,0 0,0.2216617 0.2216616,0 0,0.4433231 -0.2216616,0 0,0.2216616 0.2216616,0 0.2216616,0 0.2216616,0 0,-0.2216616 -0.2216616,0 0,-0.6649848 -0.2216616,0 -0.2216616,0 z m 0.94033,0 0,0.2216617 0.2216613,0 0,0.4433231 -0.2216613,0 0,0.2216616 0.2216613,0 0.2216621,0 0.2216614,0 0,-0.2216616 -0.2216614,0 0,-0.6649848 -0.2216621,0 -0.2216613,0 z m 0.9403306,0 0,0.2216617 0.221661,0 0,0.4433231 -0.221661,0 0,0.2216616 0.221661,0 0.221662,0 0.221662,0 0,-0.2216616 -0.221662,0 0,-0.6649848 -0.221662,0 -0.221661,0 z m -7.3014122,0.2216617 0.2216616,0 0,0.4433231 -0.2216616,0 0,-0.4433231 z m 0.9403301,0 0.2216615,0 0,0.4433231 -0.2216615,0 0,-0.4433231 z m 1.8810929,0 0.2216616,0 0,0.4433231 -0.2216616,0 0,-0.4433231 z m 0.9403301,0 0.2216616,0 0,0.4433231 -0.2216616,0 0,-0.4433231 z m -3.9834147,1.0684781 0,0.2216616 0,0.4433231 0,0.2216617 0.2216616,0 0.4433232,0 0,-0.2216617 0,-0.6649847 -0.4433232,0 -0.2216616,0 z m 0.94033,0 0,0.2216616 0.2216617,0 0,0.4433231 -0.2216617,0 0,0.2216617 0.2216617,0 0.2216615,0 0.2216616,0 0,-0.2216617 -0.2216616,0 0,-0.6649847 -0.2216615,0 -0.2216617,0 z m 0.9403299,0 0,0.2216616 0,0.4433231 0,0.2216617 0.2216617,0 0.4433231,0 0,-0.2216617 0,-0.6649847 -0.4433231,0 -0.2216617,0 z m 0.9403302,0 0,0.2216616 0,0.4433231 0,0.2216617 0.2216616,0 0.4433232,0 0,-0.2216617 0,-0.6649847 -0.4433232,0 -0.2216616,0 z m 0.9407631,0 0,0.2216616 0.2216615,0 0,0.4433231 -0.2216615,0 0,0.2216617 0.2216615,0 0.2216616,0 0.2216616,0 0,-0.2216617 -0.2216616,0 0,-0.6649847 -0.2216616,0 -0.2216615,0 z m 0.9403299,0 0,0.2216616 0,0.4433231 0,0.2216617 0.2216616,0 0.4433231,0 0,-0.2216617 0,-0.6649847 -0.4433231,0 -0.2216616,0 z m 0.9403301,0 0,0.2216616 0,0.4433231 0,0.2216617 0.2216616,0 0.4433232,0 0,-0.2216617 0,-0.6649847 -0.4433232,0 -0.2216616,0 z m 0.94033,0 0,0.2216616 0,0.4433231 0,0.2216617 0.2216613,0 0.4433235,0 0,-0.2216617 0,-0.6649847 -0.4433235,0 -0.2216613,0 z m 0.9403306,0 0,0.2216616 0,0.4433231 0,0.2216617 0.221661,0 0.443324,0 0,-0.2216617 0,-0.6649847 -0.443324,0 -0.221661,0 z m -7.3014122,0.2216616 0.2216616,0 0,0.4433231 -0.2216616,0 0,-0.4433231 z m 1.88066,0 0.2216616,0 0,0.4433231 -0.2216616,0 0,-0.4433231 z m 0.9403301,0 0.2216616,0 0,0.4433231 -0.2216616,0 0,-0.4433231 z m 1.881093,0 0.2216615,0 0,0.4433231 -0.2216615,0 0,-0.4433231 z m 0.9403301,0 0.2216616,0 0,0.4433231 -0.2216616,0 0,-0.4433231 z m 0.9403297,0 0.2216621,0 0,0.4433231 -0.2216621,0 0,-0.4433231 z m 0.9403303,0 0.221662,0 0,0.4433231 -0.221662,0 0,-0.4433231 z m -7.7447348,1.0684782 0,0.2216616 0.2216616,0 0,0.4433232 -0.2216616,0 0,0.2216616 0.2216616,0 0.2216616,0 0.2216616,0 0,-0.2216616 -0.2216616,0 0,-0.6649848 -0.2216616,0 -0.2216616,0 z m 0.94033,0 0,0.2216616 0,0.4433232 0,0.2216616 0.2216617,0 0.4433231,0 0,-0.2216616 0,-0.6649848 -0.4433231,0 -0.2216617,0 z m 0.9403299,0 0,0.2216616 0.2216617,0 0,0.4433232 -0.2216617,0 0,0.2216616 0.2216617,0 0.2216616,0 0.2216615,0 0,-0.2216616 -0.2216615,0 0,-0.6649848 -0.2216616,0 -0.2216617,0 z m 0.9403302,0 0,0.2216616 0.2216616,0 0,0.4433232 -0.2216616,0 0,0.2216616 0.2216616,0 0.2216616,0 0.2216616,0 0,-0.2216616 -0.2216616,0 0,-0.6649848 -0.2216616,0 -0.2216616,0 z m 0.9407631,0 0,0.2216616 0,0.4433232 0,0.2216616 0.2216615,0 0.4433232,0 0,-0.2216616 0,-0.6649848 -0.4433232,0 -0.2216615,0 z m 0.9403299,0 0,0.2216616 0.2216616,0 0,0.4433232 -0.2216616,0 0,0.2216616 0.2216616,0 0.2216615,0 0.2216616,0 0,-0.2216616 -0.2216616,0 0,-0.6649848 -0.2216615,0 -0.2216616,0 z m 0.9403301,0 0,0.2216616 0.2216616,0 0,0.4433232 -0.2216616,0 0,0.2216616 0.2216616,0 0.2216616,0 0.2216616,0 0,-0.2216616 -0.2216616,0 0,-0.6649848 -0.2216616,0 -0.2216616,0 z m 0.94033,0 0,0.2216616 0.2216613,0 0,0.4433232 -0.2216613,0 0,0.2216616 0.2216613,0 0.2216621,0 0.2216614,0 0,-0.2216616 -0.2216614,0 0,-0.6649848 -0.2216621,0 -0.2216613,0 z m 0.9403306,0 0,0.2216616 0.221661,0 0,0.4433232 -0.221661,0 0,0.2216616 0.221661,0 0.221662,0 0.221662,0 0,-0.2216616 -0.221662,0 0,-0.6649848 -0.221662,0 -0.221661,0 z m -6.3610821,0.2216616 0.2216615,0 0,0.4433232 -0.2216615,0 0,-0.4433232 z m 2.821423,0 0.2216616,0 0,0.4433232 -0.2216616,0 0,-0.4433232 z m -3.9834147,1.068478 0,0.2216616 0,0.4433232 0,0.2216616 0.2216616,0 0.4433232,0 0,-0.2216616 0,-0.6649848 -0.4433232,0 -0.2216616,0 z m 0.94033,0 0,0.2216616 0,0.4433232 0,0.2216616 0.2216617,0 0.4433231,0 0,-0.2216616 0,-0.6649848 -0.4433231,0 -0.2216617,0 z m 0.9403299,0 0,0.2216616 0.2216617,0 0,0.4433232 -0.2216617,0 0,0.2216616 0.2216617,0 0.2216616,0 0.2216615,0 0,-0.2216616 -0.2216615,0 0,-0.6649848 -0.2216616,0 -0.2216617,0 z m 0.9407631,0 0,0.2216616 0,0.4433232 0,0.2216616 0.2216616,0 0.4433232,0 0,-0.2216616 0,-0.6649848 -0.4433232,0 -0.2216616,0 z m 0.9403302,0 0,0.2216616 0,0.4433232 0,0.2216616 0.2216615,0 0.4433232,0 0,-0.2216616 0,-0.6649848 -0.4433232,0 -0.2216615,0 z m 0.9403299,0 0,0.2216616 0.2216616,0 0,0.4433232 -0.2216616,0 0,0.2216616 0.2216616,0 0.2216615,0 0.2216616,0 0,-0.2216616 -0.2216616,0 0,-0.6649848 -0.2216615,0 -0.2216616,0 z m 0.9403301,0 0,0.2216616 0.2216616,0 0,0.4433232 -0.2216616,0 0,0.2216616 0.2216616,0 0.2216616,0 0.2216616,0 0,-0.2216616 -0.2216616,0 0,-0.6649848 -0.2216616,0 -0.2216616,0 z m 0.94033,0 0,0.2216616 0.2216613,0 0,0.4433232 -0.2216613,0 0,0.2216616 0.2216613,0 0.2216621,0 0.2216614,0 0,-0.2216616 -0.2216614,0 0,-0.6649848 -0.2216621,0 -0.2216613,0 z m 0.9403306,0 0,0.2216616 0.221661,0 0,0.4433232 -0.221661,0 0,0.2216616 0.221661,0 0.221662,0 0.221662,0 0,-0.2216616 -0.221662,0 0,-0.6649848 -0.221662,0 -0.221661,0 z m -7.3014122,0.2216616 0.2216616,0 0,0.4433232 -0.2216616,0 0,-0.4433232 z m 0.9403301,0 0.2216615,0 0,0.4433232 -0.2216615,0 0,-0.4433232 z m 1.8810929,0 0.2216616,0 0,0.4433232 -0.2216616,0 0,-0.4433232 z m 0.9403301,0 0.2216616,0 0,0.4433232 -0.2216616,0 0,-0.4433232 z m -3.9834147,1.0689112 0,0.2216616 0,0.4433231 0,0.2216616 0.2216616,0 0.4433232,0 0,-0.2216616 0,-0.6649847 -0.4433232,0 -0.2216616,0 z m 0.94033,0 0,0.2216616 0.2216617,0 0,0.4433231 -0.2216617,0 0,0.2216616 0.2216617,0 0.2216615,0 0.2216616,0 0,-0.2216616 -0.2216616,0 0,-0.6649847 -0.2216615,0 -0.2216617,0 z m 0.9403299,0 0,0.2216616 0,0.4433231 0,0.2216616 0.2216617,0 0.4433231,0 0,-0.2216616 0,-0.6649847 -0.4433231,0 -0.2216617,0 z m 0.9403302,0 0,0.2216616 0,0.4433231 0,0.2216616 0.2216616,0 0.4433232,0 0,-0.2216616 0,-0.6649847 -0.4433232,0 -0.2216616,0 z m 0.9407631,0 0,0.2216616 0.2216615,0 0,0.4433231 -0.2216615,0 0,0.2216616 0.2216615,0 0.2216616,0 0.2216616,0 0,-0.2216616 -0.2216616,0 0,-0.6649847 -0.2216616,0 -0.2216615,0 z m 0.9403299,0 0,0.2216616 0,0.4433231 0,0.2216616 0.2216616,0 0.4433231,0 0,-0.2216616 0,-0.6649847 -0.4433231,0 -0.2216616,0 z m 0.9403301,0 0,0.2216616 0,0.4433231 0,0.2216616 0.2216616,0 0.4433232,0 0,-0.2216616 0,-0.6649847 -0.4433232,0 -0.2216616,0 z m 0.94033,0 0,0.2216616 0,0.4433231 0,0.2216616 0.2216613,0 0.4433235,0 0,-0.2216616 0,-0.6649847 -0.4433235,0 -0.2216613,0 z m 0.9403306,0 0,0.2216616 0,0.4433231 0,0.2216616 0.221661,0 0.443324,0 0,-0.2216616 0,-0.6649847 -0.443324,0 -0.221661,0 z m -7.3014122,0.2216616 0.2216616,0 0,0.4433231 -0.2216616,0 0,-0.4433231 z m 1.88066,0 0.2216616,0 0,0.4433231 -0.2216616,0 0,-0.4433231 z m 0.9403301,0 0.2216616,0 0,0.4433231 -0.2216616,0 0,-0.4433231 z m 1.881093,0 0.2216615,0 0,0.4433231 -0.2216615,0 0,-0.4433231 z m 0.9403301,0 0.2216616,0 0,0.4433231 -0.2216616,0 0,-0.4433231 z m 0.9403297,0 0.2216621,0 0,0.4433231 -0.2216621,0 0,-0.4433231 z m 0.9403303,0 0.221662,0 0,0.4433231 -0.221662,0 0,-0.4433231 z m -7.7447348,1.0684784 0,0.221661 0.2216616,0 0,0.4433223 -0.2216616,0 0,0.221662 0.2216616,0 0.2216616,0 0.2216616,0 0,-0.221662 -0.2216616,0 0,-0.6649833 -0.2216616,0 -0.2216616,0 z m 0.94033,0 0,0.221661 0,0.4433223 0,0.221662 0.2216617,0 0.4433231,0 0,-0.221662 0,-0.6649833 -0.4433231,0 -0.2216617,0 z m 0.9403299,0 0,0.221661 0.2216617,0 0,0.4433223 -0.2216617,0 0,0.221662 0.2216617,0 0.2216616,0 0.2216615,0 0,-0.221662 -0.2216615,0 0,-0.6649833 -0.2216616,0 -0.2216617,0 z m 0.9403302,0 0,0.221661 0.2216616,0 0,0.4433223 -0.2216616,0 0,0.221662 0.2216616,0 0.2216616,0 0.2216616,0 0,-0.221662 -0.2216616,0 0,-0.6649833 -0.2216616,0 -0.2216616,0 z m 0.9407631,0 0,0.221661 0,0.4433223 0,0.221662 0.2216615,0 0.4433232,0 0,-0.221662 0,-0.6649833 -0.4433232,0 -0.2216615,0 z m 0.9403299,0 0,0.221661 0.2216616,0 0,0.4433223 -0.2216616,0 0,0.221662 0.2216616,0 0.2216615,0 0.2216616,0 0,-0.221662 -0.2216616,0 0,-0.6649833 -0.2216615,0 -0.2216616,0 z m 0.9403301,0 0,0.221661 0.2216616,0 0,0.4433223 -0.2216616,0 0,0.221662 0.2216616,0 0.2216616,0 0.2216616,0 0,-0.221662 -0.2216616,0 0,-0.6649833 -0.2216616,0 -0.2216616,0 z m 0.94033,0 0,0.221661 0.2216613,0 0,0.4433223 -0.2216613,0 0,0.221662 0.2216613,0 0.2216621,0 0.2216614,0 0,-0.221662 -0.2216614,0 0,-0.6649833 -0.2216621,0 -0.2216613,0 z m 0.9403306,0 0,0.221661 0.221661,0 0,0.4433223 -0.221661,0 0,0.221662 0.221661,0 0.221662,0 0.221662,0 0,-0.221662 -0.221662,0 0,-0.6649833 -0.221662,0 -0.221661,0 z m -6.3610821,0.221661 0.2216615,0 0,0.4433223 -0.2216615,0 0,-0.4433223 z m 2.821423,0 0.2216616,0 0,0.4433223 -0.2216616,0 0,-0.4433223 z"
     id="path4559-8"
     inkscape:connector-curvature="0" />
</svg>
