<?xml version="1.0" encoding="UTF-8" standalone="no"?>
<svg
   xmlns:dc="http://purl.org/dc/elements/1.1/"
   xmlns:cc="http://creativecommons.org/ns#"
   xmlns:rdf="http://www.w3.org/1999/02/22-rdf-syntax-ns#"
   xmlns:svg="http://www.w3.org/2000/svg"
   xmlns="http://www.w3.org/2000/svg"
   xmlns:xlink="http://www.w3.org/1999/xlink"
   xmlns:sodipodi="http://sodipodi.sourceforge.net/DTD/sodipodi-0.dtd"
   xmlns:inkscape="http://www.inkscape.org/namespaces/inkscape"
   width="48"
   viewBox="0 0 13.546667 13.546667"
   height="48"
   id="svg2"
   version="1.1"
   inkscape:version="0.48+devel r"
   sodipodi:docname="blogger.svg">
  <metadata
     id="metadata20">
    <rdf:RDF>
      <cc:Work
         rdf:about="">
        <dc:format>image/svg+xml</dc:format>
        <dc:type
           rdf:resource="http://purl.org/dc/dcmitype/StillImage" />
      </cc:Work>
    </rdf:RDF>
  </metadata>
  <sodipodi:namedview
     pagecolor="#ffffff"
     bordercolor="#666666"
     borderopacity="1"
     objecttolerance="10"
     gridtolerance="10"
     guidetolerance="10"
     inkscape:pageopacity="0"
     inkscape:pageshadow="2"
     inkscape:window-width="1366"
     inkscape:window-height="665"
     id="namedview18"
     showgrid="false"
     inkscape:zoom="6.6040149"
     inkscape:cx="42.025044"
     inkscape:cy="20.842387"
     inkscape:window-x="-2"
     inkscape:window-y="26"
     inkscape:window-maximized="1"
     inkscape:current-layer="svg2"
     showguides="false" />
  <defs
     id="defs4">
    <linearGradient
       id="linearGradient6075"
       inkscape:collect="always">
      <stop
         id="stop6077"
         offset="0"
         style="stop-color:#ec7928;stop-opacity:1" />
      <stop
         id="stop6079"
         offset="1"
         style="stop-color:#f29e34;stop-opacity:1" />
    </linearGradient>
    <linearGradient
       gradientUnits="userSpaceOnUse"
       y2="1007.4396"
       x2="37.957897"
       y1="1049.3441"
       x1="37.957897"
       id="linearGradient6081"
       xlink:href="#linearGradient6075"
       inkscape:collect="always"
       gradientTransform="matrix(0.28222223,0,0,0.28222223,-4.6643067e-7,-283.45333)" />
  </defs>
  <rect
     style="fill:#000000;fill-opacity:0.01960784;stroke:none"
     id="rect5263"
     width="12.530657"
     height="12.530657"
     x="0.50800508"
     y="0.50800508"
     ry="1.7719787" />
  <rect
     ry="1.7480332"
     y="0.59270275"
     x="0.59266752"
     height="12.361326"
     width="12.361326"
     id="rect5261"
     style="fill:#000000;fill-opacity:0.03921569;stroke:none" />
  <rect
     style="fill:#000000;fill-opacity:0.07843137;stroke:none"
     id="rect5259"
     width="12.191996"
     height="12.191996"
     x="0.67733091"
     y="0.67738318"
     ry="1.7240876" />
  <rect
     ry="1.700142"
     y="0.76204646"
     x="0.76200289"
     height="12.022664"
     width="12.022664"
     id="rect5257"
     style="fill:#000000;fill-opacity:0.15686275;stroke:none" />
  <rect
     style="fill:url(#linearGradient6081);fill-opacity:1;stroke:none"
     id="rect5237"
     width="11.853333"
     height="11.853333"
     x="0.84666628"
     y="0.84667516"
     ry="1.6761965" />
  <path
     inkscape:connector-curvature="0"
     style="fill:#000000;fill-opacity:0.11764706;stroke:none"
     d="m 0.84666553,10.318764 0,0.705556 c 0,0.928624 0.74708197,1.675694 1.67569497,1.675694 l 8.5019455,0 c 0.928612,0 1.675694,-0.74707 1.675694,-1.675694 l 0,-0.705556 c 0,0.928624 -0.747082,1.675695 -1.675694,1.675695 l -8.5019455,0 c -0.928613,0 -1.67569497,-0.747071 -1.67569497,-1.675695 z"
     id="rect5265" />
  <path
     inkscape:connector-curvature="0"
     style="fill:#000000;fill-opacity:0.09803922;stroke:none"
     d="m 0.84666553,10.883209 0,0.141111 c 0,0.928624 0.74708197,1.675694 1.67569497,1.675694 l 8.5019455,0 c 0.928612,0 1.675694,-0.74707 1.675694,-1.675694 l 0,-0.141111 c 0,0.928624 -0.747082,1.675694 -1.675694,1.675694 l -8.5019455,0 c -0.928613,0 -1.67569497,-0.74707 -1.67569497,-1.675694 z"
     id="path5252" />
  <path
     d="m 6.6193607,3.1049756 c -0.1599653,-0.00131 -0.3578415,-4.2e-5 -0.6095022,0.0021 -0.9366022,0.00815 -0.936707,0.0082 -1.1545211,0.066897 -0.4437565,0.1195622 -0.9117997,0.42836 -1.1996681,0.7659668 -0.317656,0.3725441 -0.5512237,0.7966928 -0.5512237,1.3046923 0,0.2414019 0,1.6984192 0,2.6119827 0.050341,1.9741273 1.1987196,2.5371646 2.1399476,2.5856086 0.2004072,0 2.751361,0 3.0570678,0 1.1693462,-0.09421 2.110101,-1.1839877 2.139947,-1.9682007 l 0,-1.089206 c 0.003,-0.9057673 0.0028,-1.2191453 -0.09947,-1.3408146 C 10.234226,5.9160072 10.152978,5.8562491 9.8299946,5.8561128 9.5129331,5.8559922 9.4002962,5.8703937 9.2960439,5.7917114 9.164391,5.6923584 9.1301175,5.6058311 9.1097522,5.3217749 9.0372401,4.3102943 8.4083948,3.4987906 7.4689682,3.2043099 7.2384611,3.1320549 7.0993377,3.108459 6.6194392,3.1049232 Z m -1.1915383,1.8336393 1.3451074,0 c 0.2709804,0 0.48913,0.218223 0.48913,0.4892886 0,0.2710682 -0.2181524,0.4282093 -0.4891327,0.4282093 l -1.3451099,0 c -0.2709778,0 -0.4891248,-0.1571411 -0.4891248,-0.4282093 0,-0.2710656 0.2181522,-0.4892886 0.48913,-0.4892886 z m 0,2.7519419 2.6902148,0 c 0.2709804,0 0.4891326,0.1573679 0.4891326,0.4284335 0,0.2710683 -0.2181522,0.4892912 -0.4891326,0.4892912 l -2.6902148,0 c -0.2709778,0 -0.48913,-0.2182229 -0.48913,-0.4892912 0,-0.2710656 0.2181522,-0.4284335 0.48913,-0.4284335 z"
     id="path16"
     inkscape:connector-curvature="0"
     style="fill:#000000;fill-opacity:0.49803922" />
</svg>
