<?xml version="1.0" encoding="UTF-8" standalone="no"?>
<svg
   xmlns:dc="http://purl.org/dc/elements/1.1/"
   xmlns:cc="http://creativecommons.org/ns#"
   xmlns:rdf="http://www.w3.org/1999/02/22-rdf-syntax-ns#"
   xmlns:svg="http://www.w3.org/2000/svg"
   xmlns="http://www.w3.org/2000/svg"
   xmlns:xlink="http://www.w3.org/1999/xlink"
   xmlns:sodipodi="http://sodipodi.sourceforge.net/DTD/sodipodi-0.dtd"
   xmlns:inkscape="http://www.inkscape.org/namespaces/inkscape"
   width="48"
   viewBox="0 0 13.546667 13.546667"
   height="48"
   enable-background="new"
   id="svg2"
   version="1.1"
   inkscape:version="0.48+devel r"
   sodipodi:docname="calibre-ebook-edit.svg">
  <metadata
     id="metadata87">
    <rdf:RDF>
      <cc:Work
         rdf:about="">
        <dc:format>image/svg+xml</dc:format>
        <dc:type
           rdf:resource="http://purl.org/dc/dcmitype/StillImage" />
      </cc:Work>
    </rdf:RDF>
  </metadata>
  <sodipodi:namedview
     pagecolor="#ffffff"
     bordercolor="#666666"
     borderopacity="1"
     objecttolerance="10"
     gridtolerance="10"
     guidetolerance="10"
     inkscape:pageopacity="0"
     inkscape:pageshadow="2"
     inkscape:window-width="1366"
     inkscape:window-height="665"
     id="namedview85"
     showgrid="false"
     showguides="false"
     inkscape:zoom="4.6697438"
     inkscape:cx="16.974098"
     inkscape:cy="32.318158"
     inkscape:window-x="-2"
     inkscape:window-y="26"
     inkscape:window-maximized="1"
     inkscape:current-layer="svg2" />
  <defs
     id="defs4">
    <linearGradient
       gradientTransform="matrix(0.28222223,0,0,0.28222223,-4.600076e-7,-283.45334)"
       inkscape:collect="always"
       xlink:href="#linearGradient5347"
       id="linearGradient4047"
       x1="26.509884"
       y1="1049.3497"
       x2="26.509884"
       y2="1007.4331"
       gradientUnits="userSpaceOnUse" />
    <linearGradient
       inkscape:collect="always"
       id="linearGradient5347">
      <stop
         style="stop-color:#8e3fd0;stop-opacity:1"
         offset="0"
         id="stop5349" />
      <stop
         style="stop-color:#cf7ae6;stop-opacity:1"
         offset="1"
         id="stop5351" />
    </linearGradient>
  </defs>
  <text
     xml:space="preserve"
     style="font-style:normal;font-weight:normal;font-size:11.28888893px;line-height:125%;font-family:sans-serif;letter-spacing:0px;word-spacing:0px;fill:#000000;fill-opacity:1;stroke:none"
     x="-14.113194"
     y="11.147778"
     id="text959"
     sodipodi:linespacing="125%"><tspan
       y="11.147778"
       x="-14.113194"
       sodipodi:role="line"
       id="tspan961" /></text>
  <text
     xml:space="preserve"
     style="font-style:italic;font-variant:normal;font-weight:bold;font-stretch:normal;font-size:11.28888893px;line-height:125%;font-family:'URW Chancery L';-inkscape-font-specification:'URW Chancery L Bold Italic';letter-spacing:0px;word-spacing:0px;fill:#000000;fill-opacity:1;stroke:none"
     x="19.838417"
     y="9.2696104"
     id="text3025"
     sodipodi:linespacing="125%"><tspan
       sodipodi:role="line"
       id="tspan3027"
       x="19.838417"
       y="9.2696104" /></text>
  <text
     xml:space="preserve"
     style="font-style:normal;font-weight:normal;font-size:11.28888893px;line-height:125%;font-family:sans-serif;letter-spacing:0px;word-spacing:0px;fill:#000000;fill-opacity:1;stroke:none"
     x="-14.111112"
     y="11.147788"
     id="text959-5"
     sodipodi:linespacing="125%"><tspan
       y="11.147788"
       x="-14.111112"
       sodipodi:role="line"
       id="tspan961-9" /></text>
  <text
     xml:space="preserve"
     style="font-style:italic;font-variant:normal;font-weight:bold;font-stretch:normal;font-size:11.28888893px;line-height:125%;font-family:'URW Chancery L';-inkscape-font-specification:'URW Chancery L Bold Italic';letter-spacing:0px;word-spacing:0px;fill:#000000;fill-opacity:1;stroke:none"
     x="19.840502"
     y="9.2696199"
     id="text3025-7"
     sodipodi:linespacing="125%"><tspan
       sodipodi:role="line"
       id="tspan3027-8"
       x="19.840502"
       y="9.2696199" /></text>
  <rect
     style="fill:#000000;fill-opacity:0.01960784;stroke:none"
     id="rect5263"
     width="12.530657"
     height="12.530657"
     x="0.50800514"
     y="0.50800145"
     ry="1.7719787" />
  <rect
     ry="1.7480332"
     y="0.59268194"
     x="0.59267056"
     height="12.361326"
     width="12.361326"
     id="rect5261"
     style="fill:#000000;fill-opacity:0.03921569;stroke:none" />
  <rect
     style="fill:#000000;fill-opacity:0.07843137;stroke:none"
     id="rect5259"
     width="12.191996"
     height="12.191996"
     x="0.67733592"
     y="0.67734516"
     ry="1.7240876" />
  <rect
     ry="1.700142"
     y="0.76200837"
     x="0.76200128"
     height="12.022664"
     width="12.022664"
     id="rect5257"
     style="fill:#000000;fill-opacity:0.15686275;stroke:none" />
  <rect
     style="fill:url(#linearGradient4047);fill-opacity:1;stroke:none"
     id="rect5237"
     width="11.853333"
     height="11.853333"
     x="0.84666669"
     y="0.84667158"
     ry="1.6761965" />
  <path
     inkscape:connector-curvature="0"
     style="fill:#000000;fill-opacity:0.11764706;stroke:none"
     d="m 0.84666622,10.31876 0,0.705556 c 0,0.928624 0.74708178,1.675694 1.67569448,1.675694 l 8.5019443,0 c 0.928613,0 1.675695,-0.74707 1.675695,-1.675694 l 0,-0.705556 c 0,0.928624 -0.747082,1.675695 -1.675695,1.675695 l -8.5019443,0 c -0.9286127,0 -1.67569448,-0.747071 -1.67569448,-1.675695 z"
     id="rect5265" />
  <path
     inkscape:connector-curvature="0"
     style="fill:#000000;fill-opacity:0.09803922;stroke:none"
     d="m 0.84666622,10.883205 0,0.141111 c 0,0.928624 0.74708178,1.675694 1.67569448,1.675694 l 8.5019443,0 c 0.928613,0 1.675695,-0.74707 1.675695,-1.675694 l 0,-0.141111 c 0,0.928624 -0.747082,1.675694 -1.675695,1.675694 l -8.5019443,0 c -0.9286127,0 -1.67569448,-0.74707 -1.67569448,-1.675694 z"
     id="path5252" />
  <path
     style="fill:#000000;fill-opacity:0.49803922"
     d="m 8.6187507,3.1044468 -0.04863,0.1162654 c -0.02677,0.063779 -0.09211,0.1902621 -0.144984,0.2811675 -0.08022,0.137827 -0.110943,0.1690704 -0.185284,0.1889891 -0.07434,0.019917 -0.119465,0.00754 -0.271438,-0.075504 -0.100212,-0.054724 -0.21844,-0.1311008 -0.262648,-0.1695329 -0.093407,-0.081227 -0.1071886,-0.07657 -0.339995,0.1125592 -0.1044005,0.084821 -0.1450089,0.1331703 -0.1296984,0.1542484 0.012272,0.016899 0.056715,0.1314981 0.099126,0.2547648 0.060308,0.175282 0.073915,0.2464609 0.062997,0.3265615 -0.017776,0.1304523 -0.060117,0.1538653 -0.4219828,0.2339202 l -0.284873,0.062997 -0.026866,0.2010324 c -0.014759,0.1105559 -0.022762,0.2169805 -0.017601,0.2362362 0.00517,0.0193 0.09275,0.071401 0.1945476,0.1158014 0.2243296,0.097842 0.3713298,0.2118822 0.3969696,0.3075704 0.02188,0.08166 -0.067044,0.2706853 -0.2214137,0.4706195 -0.053197,0.068918 -0.092531,0.1407443 -0.087546,0.1593437 0.00499,0.018589 0.065402,0.1068977 0.1343303,0.1964001 L 7.1888271,6.4404725 7.4662885,6.3501472 C 7.9169866,6.2030819 7.9750067,6.2373189 8.0679937,6.7026489 l 0.05188,0.2593967 0.119049,0.025015 c 0.218575,0.046712 0.381404,0.051563 0.370565,0.011115 -0.0094,-0.035118 0.1533909,-0.3645967 0.222804,-0.4507018 0.03778,-0.046843 0.09784,-0.092841 0.133404,-0.1023685 0.08852,-0.023722 0.269798,0.051809 0.461817,0.1926944 0.182614,0.1339865 0.178239,0.1345903 0.419667,-0.061604 0.121121,-0.098435 0.134995,-0.1189942 0.11024,-0.1644392 -0.07401,-0.1358987 -0.154381,-0.3986243 -0.15425,-0.5035073 2.28e-4,-0.181487 0.04824,-0.2160788 0.4029923,-0.2922841 0.342527,-0.073562 0.312914,-0.043751 0.343238,-0.3515753 L 10.56655,5.0916123 10.343281,4.9892425 C 10.076334,4.8670516 9.9679337,4.7753446 9.9629857,4.6668512 c -0.0034,-0.072697 0.1834333,-0.4149391 0.2908963,-0.5331529 0.04523,-0.049733 0.04441,-0.055771 -0.01485,-0.1417417 -0.03398,-0.049335 -0.09867,-0.133498 -0.144058,-0.1871362 l -0.08246,-0.097737 -0.3214683,0.086157 c -0.424919,0.1138627 -0.405993,0.125005 -0.522009,-0.3052556 l -0.08799,-0.3261025 -0.231141,-0.02872 -0.231142,-0.028718 z m -0.03288,1.2122157 c 0.05011,-0.00296 0.09731,0.00261 0.163975,0.015748 0.294878,0.058146 0.495845,0.2471857 0.576231,0.5419538 0.14945,0.5480149 -0.316621,1.0484907 -0.870832,0.9352171 -0.307375,-0.062833 -0.495789,-0.243966 -0.579479,-0.558165 -0.05546,-0.2082318 -0.02535,-0.3918829 0.0945,-0.5803997 0.119865,-0.1885662 0.212543,-0.2562804 0.434954,-0.3182241 0.0776,-0.021566 0.130531,-0.033176 0.18065,-0.036131 z M 6.1827384,5.4102971 6.0799062,5.5427746 c -0.056467,0.072907 -0.1839971,0.2133764 -0.2834834,0.3122023 -0.150893,0.1498205 -0.2012514,0.179725 -0.3038646,0.179725 -0.1026064,0 -0.1562383,-0.031919 -0.3233193,-0.191305 C 5.0590768,5.7383375 4.9331343,5.5996526 4.8894609,5.5349002 4.7971926,5.3980548 4.7774551,5.3989887 4.4123565,5.5622295 4.2486278,5.6354436 4.1798881,5.6835839 4.1923327,5.7160147 c 0.00997,0.025997 0.027754,0.1893017 0.039836,0.3626922 0.017183,0.2465577 0.010673,0.3429698 -0.031035,0.4423637 C 4.1332183,6.6829445 4.0699379,6.6984821 3.5762658,6.6767085 L 3.1876341,6.6595696 3.0838756,6.9092389 c -0.057157,0.1372904 -0.1037582,0.271263 -0.1037582,0.2978429 0,0.026642 0.094515,0.1240031 0.2102967,0.2163182 0.2551494,0.2034255 0.405307,0.4010674 0.405307,0.5331526 0,0.1127217 -0.1801133,0.3256865 -0.4479223,0.5299101 -0.092296,0.070404 -0.1676814,0.1489557 -0.1676814,0.1746296 0,0.025659 0.047264,0.1606395 0.1051491,0.2996957 L 3.1904145,9.2137 3.5790464,9.192856 c 0.631207,-0.033874 0.6939463,0.029609 0.6531234,0.660998 l -0.022697,0.352038 0.1445209,0.07411 c 0.2653871,0.135586 0.4733986,0.197574 0.4733986,0.141742 0,-0.04848 0.3237149,-0.416567 0.4428271,-0.5035072 0.064809,-0.047291 0.1579671,-0.086157 0.207054,-0.086157 0.1222118,0 0.329372,0.1599137 0.5280575,0.4076232 0.1889475,0.235578 0.1832291,0.235143 0.561871,0.06578 0.1899641,-0.08498 0.2153739,-0.107096 0.19918,-0.174167 C 6.717945,9.9307468 6.704542,9.5650519 6.740906,9.4300187 6.803827,9.1963591 6.8774962,9.1681163 7.3606786,9.1923927 c 0.4665271,0.023463 0.4184411,0.05201 0.5637241,-0.3339731 l 0.08153,-0.2167815 -0.156565,-0.1296984 0.06623,0.00927 c 0.04658,0.00636 0.14086,0.026667 0.209833,0.045396 0.104586,0.028421 0.130414,0.043179 0.156565,0.088473 0.02615,0.045287 0.02589,0.076941 -0.0019,0.191305 -0.0183,0.075397 -0.04739,0.166644 -0.06484,0.2024218 -0.0369,0.075596 -0.03124,0.083798 0.133867,0.2033485 0.07404,0.053608 0.112533,0.07212 0.123676,0.058366 0.0088,-0.011024 0.07662,-0.060726 0.150081,-0.1102439 0.104455,-0.070416 0.148847,-0.092206 0.203348,-0.099126 0.08875,-0.011271 0.111696,0.012792 0.227897,0.2362364 l 0.09125,0.1760191 0.136646,-0.018065 c 0.07517,-0.00974 0.146222,-0.023334 0.157954,-0.030109 0.0117,-0.00679 0.03043,-0.073135 0.0417,-0.1477631 0.02478,-0.1644588 0.07372,-0.2813218 0.132015,-0.3149817 0.04976,-0.028727 0.189946,-0.00316 0.348331,0.062997 0.05461,0.022797 0.1086413,0.035725 0.1199643,0.029182 0.01131,-0.00651 0.05854,-0.061766 0.105144,-0.1227499 l 0.08483,-0.110712 -0.107926,-0.1662917 C 9.9881697,8.4249338 9.9999527,8.3810642 10.289039,8.2381838 l 0.161199,-0.07967 -0.0043,-0.082451 c -0.0077,-0.15169 -0.03327,-0.2597283 -0.05789,-0.2455006 -0.02141,0.01235 -0.266171,-0.036282 -0.3349,-0.0667 -0.0374,-0.016553 -0.07829,-0.047815 -0.09079,-0.06948 -0.03112,-0.053943 -0.01331,-0.1863941 0.04538,-0.3372156 0.05585,-0.1434321 0.05682,-0.1405257 -0.1144134,-0.264492 -0.08593,-0.062195 -0.101907,-0.067781 -0.127387,-0.043541 -0.07618,0.072492 -0.234532,0.1715549 -0.303399,0.1899156 -0.119171,0.031771 -0.150224,0.00638 -0.26264,-0.2130759 -0.108537,-0.2118968 -0.08353,-0.1982112 -0.290893,-0.1639757 l -0.116727,0.019455 -0.02778,0.1644392 c -0.03327,0.1967133 -0.07466,0.2843144 -0.144984,0.3066437 -0.04711,0.014963 -0.304643,-0.047528 -0.40114,-0.097275 -0.0406,-0.020933 -0.0443,-0.019722 -0.09033,0.03428 -0.02642,0.030988 -0.0705,0.088617 -0.09774,0.1278459 l -0.04912,0.071334 0.113023,0.1959371 c 0.149496,0.2589069 0.153179,0.2442147 -0.10884,0.3960418 l -0.198678,0.1153399 0.02224,0.1565643 0.01992,0.1426683 -0.0755,-0.062533 C 7.4518484,8.1832402 7.3444305,8.0275814 7.3754996,7.886145 7.3963156,7.791373 7.7544726,7.4148869 7.9336667,7.2997234 c 0.0754,-0.048446 0.07672,-0.055973 0.03011,-0.187136 -0.02676,-0.075272 -0.0814,-0.2061497 -0.121359,-0.2908949 l -0.07272,-0.1542482 -0.4432902,0 c -0.5865817,0 -0.5660307,0.02118 -0.566967,-0.5729887 L 6.7589695,5.643754 6.470854,5.5270255 6.1827384,5.4102971 Z M 5.4772723,6.9439795 c 0.214729,-0.00198 0.2884978,0.013273 0.4511649,0.093106 0.3597059,0.1766459 0.5531156,0.4889353 0.5549231,0.8963077 0.00336,0.7573623 -0.7700695,1.241783 -1.4447462,0.904645 C 4.6644353,8.6510426 4.4848991,8.3525705 4.4855436,7.9190329 4.4859584,7.631707 4.5875896,7.4052683 4.8070101,7.2038393 5.0264557,7.0023488 5.1694533,6.9470046 5.4772723,6.9439795 Z m 3.6477634,0.7175096 c 0.25727,-0.00276 0.492652,0.1916403 0.509995,0.4794204 0.01287,0.2128098 -0.07297,0.3682985 -0.264493,0.4784941 -0.126932,0.073038 -0.252611,0.085817 -0.397434,0.0403 -0.144856,-0.045516 -0.206019,-0.094654 -0.285799,-0.2297511 -0.05557,-0.09427 -0.06742,-0.1301975 -0.07364,-0.2223402 -0.01369,-0.2037839 0.07494,-0.3692516 0.254299,-0.4738621 0.08337,-0.048621 0.171325,-0.071341 0.257082,-0.072262 z"
     id="path907-2"
     inkscape:connector-curvature="0" />
</svg>
