<?xml version="1.0" encoding="UTF-8" standalone="no"?>
<svg
   xmlns:dc="http://purl.org/dc/elements/1.1/"
   xmlns:cc="http://creativecommons.org/ns#"
   xmlns:rdf="http://www.w3.org/1999/02/22-rdf-syntax-ns#"
   xmlns:svg="http://www.w3.org/2000/svg"
   xmlns="http://www.w3.org/2000/svg"
   xmlns:xlink="http://www.w3.org/1999/xlink"
   xmlns:sodipodi="http://sodipodi.sourceforge.net/DTD/sodipodi-0.dtd"
   xmlns:inkscape="http://www.inkscape.org/namespaces/inkscape"
   width="48"
   viewBox="0 0 13.546667 13.546667"
   height="48"
   id="svg2"
   version="1.1"
   inkscape:version="0.48+devel r"
   sodipodi:docname="chrome-mojepfklcankkmikonjlnidiooanmpbb-Default.svg">
  <metadata
     id="metadata104">
    <rdf:RDF>
      <cc:Work
         rdf:about="">
        <dc:format>image/svg+xml</dc:format>
        <dc:type
           rdf:resource="http://purl.org/dc/dcmitype/StillImage" />
        <dc:title />
      </cc:Work>
    </rdf:RDF>
  </metadata>
  <sodipodi:namedview
     pagecolor="#ffffff"
     bordercolor="#666666"
     borderopacity="1"
     objecttolerance="10"
     gridtolerance="10"
     guidetolerance="10"
     inkscape:pageopacity="0"
     inkscape:pageshadow="2"
     inkscape:window-width="1366"
     inkscape:window-height="665"
     id="namedview102"
     showgrid="false"
     inkscape:showpageshadow="false"
     borderlayer="true"
     inkscape:zoom="9.4671757"
     inkscape:cx="12.320818"
     inkscape:cy="29.741458"
     inkscape:window-x="-2"
     inkscape:window-y="26"
     inkscape:window-maximized="1"
     inkscape:current-layer="svg2" />
  <defs
     id="defs4">
    <linearGradient
       gradientUnits="userSpaceOnUse"
       y2="1007.3235"
       x2="30.296669"
       y1="1049.4602"
       x1="30.296669"
       id="linearGradient7861"
       xlink:href="#linearGradient6075"
       inkscape:collect="always"
       gradientTransform="matrix(0.28222223,0,0,0.28222223,-3.3050537e-7,-283.45331)" />
    <linearGradient
       id="linearGradient6075"
       inkscape:collect="always">
      <stop
         id="stop6077"
         offset="0"
         style="stop-color:#ec7928;stop-opacity:1" />
      <stop
         id="stop6079"
         offset="1"
         style="stop-color:#f29e34;stop-opacity:1" />
    </linearGradient>
  </defs>
  <rect
     style="fill:#000000;fill-opacity:0.01960784;stroke:none"
     id="rect5263-5"
     width="12.530657"
     height="12.530657"
     x="0.50800508"
     y="0.50800508"
     ry="1.7719787" />
  <rect
     ry="1.7480332"
     y="0.59270275"
     x="0.59266847"
     height="12.361326"
     width="12.361326"
     id="rect5261-9"
     style="fill:#000000;fill-opacity:0.03921569;stroke:none" />
  <rect
     style="fill:#000000;fill-opacity:0.07843137;stroke:none"
     id="rect5259-3"
     width="12.191996"
     height="12.191996"
     x="0.67733186"
     y="0.67743492"
     ry="1.7240876" />
  <rect
     ry="1.700142"
     y="0.76206368"
     x="0.76200289"
     height="12.022664"
     width="12.022664"
     id="rect5257-8"
     style="fill:#000000;fill-opacity:0.15686275;stroke:none" />
  <rect
     style="fill:url(#linearGradient7861);fill-opacity:1;stroke:none"
     id="rect5237-1"
     width="11.853333"
     height="11.853333"
     x="0.84666723"
     y="0.84667522"
     ry="1.6761965" />
  <path
     inkscape:connector-curvature="0"
     style="fill:#000000;fill-opacity:0.11764706;stroke:none"
     d="m 0.84666667,10.318764 0,0.705556 c 0,0.928624 0.74708103,1.675694 1.67569363,1.675694 l 8.5019447,0 c 0.928613,0 1.675694,-0.74707 1.675694,-1.675694 l 0,-0.705556 c 0,0.928624 -0.747081,1.675695 -1.675694,1.675695 l -8.5019447,0 c -0.9286126,0 -1.67569363,-0.747071 -1.67569363,-1.675695 z"
     id="rect5265-2" />
  <path
     inkscape:connector-curvature="0"
     style="fill:#000000;fill-opacity:0.09803922;stroke:none"
     d="m 0.84666667,10.883209 0,0.141111 c 0,0.928624 0.74708103,1.675694 1.67569363,1.675694 l 8.5019447,0 c 0.928613,0 1.675694,-0.74707 1.675694,-1.675694 l 0,-0.141111 c 0,0.928624 -0.747081,1.675694 -1.675694,1.675694 l -8.5019447,0 c -0.9286126,0 -1.67569363,-0.74707 -1.67569363,-1.675694 z"
     id="path5252-0" />
  <path
     style="fill:#000000;fill-opacity:0.49803922;stroke:none"
     d="m 6.773335,3.1044445 c -2.0325645,0 -3.668889,1.6363245 -3.668889,3.668889 0,0.049591 0.00165,0.098694 0.00358,0.147795 l 7.3306121,0 c 0.0019,-0.049101 0.0036,-0.098204 0.0036,-0.147795 0,-2.0325645 -1.6363245,-3.668889 -3.668889,-3.668889 z m -3.5903638,4.428165 c 0.044138,0.21134 0.1068031,0.415405 0.1854151,0.611482 l 6.8098977,0 c 0.07861,-0.196077 0.141277,-0.400142 0.185415,-0.611482 l -7.1807278,0 z m 0.5004116,1.222963 c 0.1417399,0.221092 0.3056657,0.426462 0.4902601,0.611482 l 5.1993841,0 c 0.1845945,-0.18502 0.3485203,-0.39039 0.4902602,-0.611482 l -6.1799044,0 z m 1.2996967,1.222963 c 0.5290267,0.2950715 1.1391399,0.4636875 1.7902555,0.4636875 0.6511156,0 1.2612287,-0.168616 1.7902555,-0.4636875 l -3.580511,0 z"
     id="rect2991-1-7"
     inkscape:connector-curvature="0" />
</svg>
