<?xml version="1.0" encoding="UTF-8" standalone="no"?>
<svg
   xmlns:dc="http://purl.org/dc/elements/1.1/"
   xmlns:cc="http://creativecommons.org/ns#"
   xmlns:rdf="http://www.w3.org/1999/02/22-rdf-syntax-ns#"
   xmlns:svg="http://www.w3.org/2000/svg"
   xmlns="http://www.w3.org/2000/svg"
   xmlns:xlink="http://www.w3.org/1999/xlink"
   xmlns:sodipodi="http://sodipodi.sourceforge.net/DTD/sodipodi-0.dtd"
   xmlns:inkscape="http://www.inkscape.org/namespaces/inkscape"
   width="48"
   viewBox="0 0 13.546667 13.546667"
   height="48"
   enable-background="new"
   id="svg2"
   version="1.1"
   inkscape:version="0.48+devel r"
   sodipodi:docname="chrome-ehjonnoogdmhhidjcldckckmfkpcfefh-Default.svg">
  <metadata
     id="metadata82">
    <rdf:RDF>
      <cc:Work
         rdf:about="">
        <dc:format>image/svg+xml</dc:format>
        <dc:type
           rdf:resource="http://purl.org/dc/dcmitype/StillImage" />
        <dc:title />
      </cc:Work>
    </rdf:RDF>
  </metadata>
  <sodipodi:namedview
     pagecolor="#ffffff"
     bordercolor="#666666"
     borderopacity="1"
     objecttolerance="10"
     gridtolerance="10"
     guidetolerance="10"
     inkscape:pageopacity="0"
     inkscape:pageshadow="2"
     inkscape:window-width="1366"
     inkscape:window-height="665"
     id="namedview80"
     showgrid="true"
     inkscape:showpageshadow="false"
     inkscape:zoom="9.6336266"
     inkscape:cx="28.959392"
     inkscape:cy="24.974991"
     inkscape:window-x="-2"
     inkscape:window-y="26"
     inkscape:window-maximized="1"
     inkscape:current-layer="svg2">
    <inkscape:grid
       type="xygrid"
       id="grid4393" />
    <sodipodi:guide
       position="11.000001,36.999978"
       orientation="25.999999,0"
       id="guide4192" />
    <sodipodi:guide
       position="11.000001,10.999979"
       orientation="0,25.999996"
       id="guide4194" />
    <sodipodi:guide
       position="36.999997,10.999979"
       orientation="-25.999999,0"
       id="guide4196" />
    <sodipodi:guide
       position="36.999997,36.999978"
       orientation="0,-25.999996"
       id="guide4198" />
  </sodipodi:namedview>
  <defs
     id="defs4">
    <linearGradient
       inkscape:collect="always"
       id="linearGradient4887">
      <stop
         style="stop-color:#e0a269;stop-opacity:1"
         offset="0"
         id="stop4889" />
      <stop
         style="stop-color:#f0d3a9;stop-opacity:1"
         offset="1"
         id="stop4891" />
    </linearGradient>
    <linearGradient
       gradientTransform="matrix(0.28222223,0,0,0.28222223,-3.4311111e-6,-283.45333)"
       inkscape:collect="always"
       xlink:href="#linearGradient4887"
       id="linearGradient4047"
       x1="26.509884"
       y1="1049.3497"
       x2="26.509884"
       y2="1007.4331"
       gradientUnits="userSpaceOnUse" />
  </defs>
  <rect
     style="fill:#000000;fill-opacity:0.01960784;stroke:none"
     id="rect5263"
     width="12.530657"
     height="12.530657"
     x="0.50800502"
     y="0.50800246"
     ry="1.7719787" />
  <rect
     ry="1.7480332"
     y="0.5926829"
     x="0.59266824"
     height="12.361326"
     width="12.361326"
     id="rect5261"
     style="fill:#000000;fill-opacity:0.03921569;stroke:none" />
  <rect
     style="fill:#000000;fill-opacity:0.07843137;stroke:none"
     id="rect5259"
     width="12.191996"
     height="12.191996"
     x="0.67733151"
     y="0.67734611"
     ry="1.7240876" />
  <rect
     ry="1.700142"
     y="0.76200938"
     x="0.76199472"
     height="12.022664"
     width="12.022664"
     id="rect5257"
     style="fill:#000000;fill-opacity:0.15686275;stroke:none" />
  <rect
     style="fill:url(#linearGradient4047);fill-opacity:1;stroke:none"
     id="rect5237"
     width="11.853333"
     height="11.853333"
     x="0.84666657"
     y="0.84667259"
     ry="1.6761965" />
  <path
     inkscape:connector-curvature="0"
     style="fill:#000000;fill-opacity:0.11764706;stroke:none"
     d="m 0.84666326,10.318761 0,0.705555 c 0,0.928613 0.74708174,1.675695 1.67569444,1.675695 l 8.5019443,0 c 0.928613,0 1.675695,-0.747082 1.675695,-1.675695 l 0,-0.705555 c 0,0.928612 -0.747082,1.675694 -1.675695,1.675694 l -8.5019443,0 c -0.9286127,0 -1.67569444,-0.747082 -1.67569444,-1.675694 z"
     id="rect5265" />
  <path
     inkscape:connector-curvature="0"
     style="fill:#000000;fill-opacity:0.09803922;stroke:none"
     d="m 0.84666326,10.883205 0,0.141111 c 0,0.928613 0.74708174,1.675695 1.67569444,1.675695 l 8.5019443,0 c 0.928613,0 1.675695,-0.747082 1.675695,-1.675695 l 0,-0.141111 c 0,0.928624 -0.747082,1.675694 -1.675695,1.675694 l -8.5019443,0 c -0.9286127,0 -1.67569444,-0.74707 -1.67569444,-1.675694 z"
     id="path5252" />
  <path
     style="opacity:1;fill:#000000;fill-opacity:0.49803922;stroke:none;stroke-width:2.79999995;stroke-miterlimit:4;stroke-dasharray:none;stroke-opacity:0.55026455"
     d="M 11 11 L 11 12 L 11 35 L 11 37 L 13 37 L 37 37 L 37 35 L 37 11 L 36 11 L 13 11 L 11 11 z M 13 12 L 35 12 L 35 23 L 27 23 L 27 21 L 21 21 L 21 23 L 13 23 L 13 12 z M 13 24 L 21 24 L 21 27 L 27 27 L 27 24 L 35 24 L 35 35 L 13 35 L 13 24 z "
     transform="scale(0.28222223,0.28222223)"
     id="rect4200" />
</svg>
