<?xml version="1.0" encoding="UTF-8" standalone="no"?>
<svg
   xmlns:dc="http://purl.org/dc/elements/1.1/"
   xmlns:cc="http://creativecommons.org/ns#"
   xmlns:rdf="http://www.w3.org/1999/02/22-rdf-syntax-ns#"
   xmlns:svg="http://www.w3.org/2000/svg"
   xmlns="http://www.w3.org/2000/svg"
   xmlns:xlink="http://www.w3.org/1999/xlink"
   xmlns:sodipodi="http://sodipodi.sourceforge.net/DTD/sodipodi-0.dtd"
   xmlns:inkscape="http://www.inkscape.org/namespaces/inkscape"
   width="48"
   viewBox="0 0 13.546667 13.546667"
   height="48"
   id="svg2"
   version="1.1"
   inkscape:version="0.48+devel r"
   sodipodi:docname="chrome-efdcneeepllhjlbejkfnaolelbpdacai-Default.svg">
  <metadata
     id="metadata24">
    <rdf:RDF>
      <cc:Work
         rdf:about="">
        <dc:format>image/svg+xml</dc:format>
        <dc:type
           rdf:resource="http://purl.org/dc/dcmitype/StillImage" />
        <dc:title />
      </cc:Work>
    </rdf:RDF>
  </metadata>
  <sodipodi:namedview
     pagecolor="#ffffff"
     bordercolor="#666666"
     borderopacity="1"
     objecttolerance="10"
     gridtolerance="10"
     guidetolerance="10"
     inkscape:pageopacity="0"
     inkscape:pageshadow="2"
     inkscape:window-width="1366"
     inkscape:window-height="665"
     id="namedview22"
     showgrid="false"
     inkscape:showpageshadow="false"
     borderlayer="true"
     inkscape:zoom="4.6697437"
     inkscape:cx="7.7682535"
     inkscape:cy="11.986612"
     inkscape:window-x="-2"
     inkscape:window-y="26"
     inkscape:window-maximized="1"
     inkscape:current-layer="svg2" />
  <defs
     id="defs4">
    <linearGradient
       inkscape:collect="always"
       id="linearGradient4678">
      <stop
         style="stop-color:#0a7fe7;stop-opacity:1"
         offset="0"
         id="stop4680" />
      <stop
         style="stop-color:#50bffc;stop-opacity:1"
         offset="1"
         id="stop4682" />
    </linearGradient>
    <linearGradient
       gradientUnits="userSpaceOnUse"
       y2="1007.3821"
       x2="28.399813"
       y1="1049.3252"
       x1="28.399813"
       id="linearGradient6131"
       xlink:href="#linearGradient4678"
       inkscape:collect="always" />
  </defs>
  <g
     transform="matrix(0.28222223,0,0,0.28222223,-1.9999999e-8,-283.45333)"
     id="layer1-9"
     inkscape:label="Capa 1">
    <rect
       ry="6.2786646"
       y="1006.1622"
       x="1.8000183"
       height="44.399963"
       width="44.399963"
       id="rect5263"
       style="fill:#000000;fill-opacity:0.01960784;stroke:none" />
    <rect
       style="fill:#000000;fill-opacity:0.03921569;stroke:none"
       id="rect5261"
       width="43.799973"
       height="43.799973"
       x="2.1000061"
       y="1006.4623"
       ry="6.1938181" />
    <rect
       ry="6.1089716"
       y="1006.7623"
       x="2.3999939"
       height="43.199982"
       width="43.199982"
       id="rect5259"
       style="fill:#000000;fill-opacity:0.07843137;stroke:none" />
    <rect
       style="fill:#000000;fill-opacity:0.15686275;stroke:none"
       id="rect5257"
       width="42.599991"
       height="42.599991"
       x="2.7000122"
       y="1007.0623"
       ry="6.0241251" />
    <rect
       ry="5.9392786"
       y="1007.3622"
       x="3"
       height="42"
       width="42"
       id="rect5237"
       style="fill:url(#linearGradient6131);fill-opacity:1;stroke:none" />
    <path
       id="rect5265"
       d="m 2.9999991,1040.9247 0,2.5 c 0,3.2904 2.64714,5.9375 5.9375,5.9375 l 30.1249999,0 c 3.29036,0 5.9375,-2.6471 5.9375,-5.9375 l 0,-2.5 c 0,3.2904 -2.64714,5.9375 -5.9375,5.9375 l -30.1249999,0 c -3.29036,0 -5.9375,-2.6471 -5.9375,-5.9375 z"
       style="fill:#000000;fill-opacity:0.11764706;stroke:none"
       inkscape:connector-curvature="0" />
    <path
       id="path5252"
       d="m 2.9999991,1042.9247 0,0.5 c 0,3.2904 2.64714,5.9375 5.9375,5.9375 l 30.1249999,0 c 3.29036,0 5.9375,-2.6471 5.9375,-5.9375 l 0,-0.5 c 0,3.2904 -2.64714,5.9375 -5.9375,5.9375 l -30.1249999,0 c -3.29036,0 -5.9375,-2.6471 -5.9375,-5.9375 z"
       style="fill:#000000;fill-opacity:0.09803922;stroke:none"
       inkscape:connector-curvature="0" />
    <text
       sodipodi:linespacing="125%"
       id="text830"
       y="1040.7867"
       x="-60.408684"
       style="font-style:normal;font-variant:normal;font-weight:bold;font-stretch:normal;font-size:40px;line-height:125%;font-family:Impact;-inkscape-font-specification:'Impact Bold';letter-spacing:0px;word-spacing:0px;fill:#000000;fill-opacity:1;stroke:none"
       xml:space="preserve"><tspan
         y="1040.7867"
         x="-60.408684"
         id="tspan832"
         sodipodi:role="line" /></text>
    <path
       id="path1046"
       transform="translate(0,1004.3622)"
       d="m 24,11 c -7.179717,0 -13,5.8212 -13,13 0,0.415775 0.02216,0.813325 0.0625,1.21875 0.0755,0.819811 0.248147,1.606409 0.46875,2.375 0.110008,0.383273 0.231566,0.757122 0.375,1.125 0.134257,0.344342 0.275457,0.670646 0.4375,1 0.13017,0.264572 0.258994,0.527194 0.40625,0.78125 0.146473,0.253193 0.306344,0.507709 0.46875,0.75 0.0049,0.0073 -0.0049,0.02398 0,0.03125 0.158266,0.235168 0.358564,0.463439 0.53125,0.6875 0.155623,0.200188 0.301924,0.40315 0.46875,0.59375 0.01986,0.02283 0.04248,0.03981 0.0625,0.0625 0.17253,0.194429 0.347505,0.378755 0.53125,0.5625 0.230301,0.232225 0.471527,0.473315 0.71875,0.6875 0.03948,0.03421 0.0851,0.06002 0.125,0.09375 0.02277,0.01905 0.0396,0.0436 0.0625,0.0625 0.160534,0.133833 0.332969,0.249055 0.5,0.375 0.196285,0.146793 0.389112,0.301764 0.59375,0.4375 0.03214,0.02136 0.06141,0.04143 0.09375,0.0625 0.106152,0.0688 0.233193,0.122817 0.34375,0.1875 0.184497,0.112513 0.372107,0.240322 0.5625,0.34375 0.02787,0.01482 0.06595,0.01655 0.09375,0.03125 0.398676,0.21264 0.796673,0.391549 1.21875,0.5625 0.164915,0.06741 0.33185,0.126704 0.5,0.1875 0.388299,0.138795 0.783137,0.273096 1.1875,0.375 0.248489,0.06262 0.496053,0.139418 0.75,0.1875 0.261382,0.04989 0.545695,0.09116 0.8125,0.125 0.09483,0.01175 0.185803,0.02156 0.28125,0.03125 C 23.100208,36.983997 23.543183,37 24,37 c 0.276482,0 0.540637,-0.01404 0.8125,-0.03125 0.17481,-0.01071 0.358375,-0.01369 0.53125,-0.03125 0.09323,-0.0098 0.188645,-0.01951 0.28125,-0.03125 0.285994,-0.03543 0.563827,-0.0713 0.84375,-0.125 0.250909,-0.04853 0.473267,-0.124695 0.71875,-0.1875 0.404363,-0.101904 0.799201,-0.236205 1.1875,-0.375 0.168627,-0.06027 0.334673,-0.120539 0.5,-0.1875 0.416267,-0.170171 0.824589,-0.352271 1.21875,-0.5625 0.217154,-0.114491 0.443021,-0.250133 0.65625,-0.375 0.109498,-0.06678 0.236413,-0.117608 0.34375,-0.1875 0.06471,-0.04215 0.123614,-0.08171 0.1875,-0.125 0.172901,-0.11681 0.333157,-0.250226 0.5,-0.375 0.167076,-0.125945 0.339443,-0.241167 0.5,-0.375 0.06318,-0.05214 0.125328,-0.102945 0.1875,-0.15625 0.247247,-0.214185 0.488462,-0.455275 0.71875,-0.6875 0.204723,-0.204723 0.402987,-0.407052 0.59375,-0.625 0.166826,-0.1906 0.313127,-0.393562 0.46875,-0.59375 0.172649,-0.224061 0.37302,-0.452332 0.53125,-0.6875 0.0049,-0.0073 -0.0049,-0.02398 0,-0.03125 0.16237,-0.242291 0.3223,-0.496807 0.46875,-0.75 0.147256,-0.254056 0.27608,-0.516678 0.40625,-0.78125 0.110001,-0.22067 0.213169,-0.431146 0.3125,-0.65625 C 35.97775,29.04116 35.99109,29.0214 36,29 c 0.04143,-0.09572 0.08671,-0.183175 0.125,-0.28125 0.106902,-0.274369 0.192854,-0.561054 0.28125,-0.84375 0.02891,-0.09296 0.06688,-0.187412 0.09375,-0.28125 0.09199,-0.31984 0.182502,-0.6395 0.25,-0.96875 0.01271,-0.0621 0.01943,-0.125078 0.03125,-0.1875 0.0671,-0.353929 0.118564,-0.730245 0.15625,-1.09375 0.0041,-0.04057 -0.0037,-0.08432 0,-0.125 C 36.975658,24.813325 37,24.415775 37,24 37,16.8212 31.180647,11 24,11 Z m 0,2 c 6.075132,0 11,4.924868 11,11 0,6.075132 -4.924868,11 -11,11 -6.075132,0 -11,-4.924868 -11,-11 0,-6.075132 4.924868,-11 11,-11 z m 0,1.71875 c -0.512571,0 -0.9375,0.4258 -0.9375,0.9375 0,0.5134 0.424929,0.90625 0.9375,0.90625 0.512572,0 0.9375,-0.39285 0.9375,-0.90625 0,-0.5117 -0.424928,-0.9375 -0.9375,-0.9375 z m -3.59375,4.8125 c 0,0 0.761964,2.7857 1.84375,4.875 -0.05293,0.1727 -0.09375,0.34095 -0.09375,0.53125 0,1.027 0.817678,1.84375 1.84375,1.84375 0.360286,0 0.715856,-0.10265 1,-0.28125 0.01765,-0.011 0.01361,-0.01825 0.03125,-0.03125 0.496786,-0.3342 0.8125,-0.88875 0.8125,-1.53125 0,-0.9649 -0.715608,-1.75275 -1.65625,-1.84375 -1.5145,-1.8026 -3.78125,-3.5625 -3.78125,-3.5625 z m -4.75,3.53125 c -0.513501,0 -0.905322,0.4259 -0.90625,0.9375 0,0.5153 0.392749,0.9375 0.90625,0.9375 0.513501,0 0.93657,-0.4241 0.9375,-0.9375 0,-0.5134 -0.424926,-0.9356 -0.9375,-0.9375 z m 16.6875,0 c -0.5135,0 -0.90625,0.4258 -0.90625,0.9375 0,0.5134 0.39275,0.9375 0.90625,0.9375 0.512572,0 0.938428,-0.4241 0.9375,-0.9375 0,-0.5117 -0.424,-0.9356 -0.9375,-0.9375 z"
       style="fill:#000000;fill-opacity:0.49803922;fill-rule:nonzero;stroke:none"
       inkscape:connector-curvature="0" />
  </g>
</svg>
