<?xml version="1.0" encoding="UTF-8" standalone="no"?>
<!-- Created with Inkscape (http://www.inkscape.org/) -->

<svg
   xmlns:dc="http://purl.org/dc/elements/1.1/"
   xmlns:cc="http://creativecommons.org/ns#"
   xmlns:rdf="http://www.w3.org/1999/02/22-rdf-syntax-ns#"
   xmlns:svg="http://www.w3.org/2000/svg"
   xmlns="http://www.w3.org/2000/svg"
   xmlns:xlink="http://www.w3.org/1999/xlink"
   xmlns:sodipodi="http://sodipodi.sourceforge.net/DTD/sodipodi-0.dtd"
   xmlns:inkscape="http://www.inkscape.org/namespaces/inkscape"
   width="48"
   height="48"
   id="svg2"
   version="1.1"
   inkscape:version="0.49 r12742"
   sodipodi:docname="chrome-app-list.svg"
   inkscape:export-filename="/home/uri/Iconos/NITRUX/apps/16/display.im6.png"
   inkscape:export-xdpi="30"
   inkscape:export-ydpi="30">
  <defs
     id="defs4">
    <style
       type="text/css"
       id="style3290"><![CDATA[
    .fil2 {fill:#11A861}
    .fil0 {fill:#3777E3}
    .fil1 {fill:#FFCF63}
   ]]></style>
    <linearGradient
       id="linearGradient4708"
       inkscape:collect="always">
      <stop
         id="stop4710"
         offset="0"
         style="stop-color:#47b73d;stop-opacity:1" />
      <stop
         id="stop4712"
         offset="1"
         style="stop-color:#ade355;stop-opacity:1" />
    </linearGradient>
    <linearGradient
       gradientTransform="translate(-2.3522949e-6,1.0274414e-4)"
       inkscape:collect="always"
       xlink:href="#linearGradient4708"
       id="linearGradient4101"
       x1="29.109528"
       y1="1049.3851"
       x2="29.109528"
       y2="1007.3748"
       gradientUnits="userSpaceOnUse" />
    <style
       id="style874"
       type="text/css"><![CDATA[
    .fil0 {fill:#1F1A17}
   ]]></style>
    <style
       id="style874-2"
       type="text/css"><![CDATA[
    .fil0 {fill:#1F1A17}
   ]]></style>
  </defs>
  <sodipodi:namedview
     id="base"
     pagecolor="#ffffff"
     bordercolor="#666666"
     borderopacity="1.0"
     inkscape:pageopacity="0.0"
     inkscape:pageshadow="2"
     inkscape:zoom="5.6568542"
     inkscape:cx="-0.86901435"
     inkscape:cy="19.746297"
     inkscape:document-units="px"
     inkscape:current-layer="layer1"
     showgrid="false"
     inkscape:window-width="1366"
     inkscape:window-height="718"
     inkscape:window-x="-2"
     inkscape:window-y="23"
     inkscape:window-maximized="1" />
  <metadata
     id="metadata7">
    <rdf:RDF>
      <cc:Work
         rdf:about="">
        <dc:format>image/svg+xml</dc:format>
        <dc:type
           rdf:resource="http://purl.org/dc/dcmitype/StillImage" />
        <dc:title />
      </cc:Work>
    </rdf:RDF>
  </metadata>
  <g
     inkscape:label="Capa 1"
     inkscape:groupmode="layer"
     id="layer1"
     transform="translate(0,-1004.3622)">
    <rect
       style="fill:#000000;fill-opacity:0.01960784;stroke:none"
       id="rect5263"
       width="44.399963"
       height="44.399963"
       x="1.8000183"
       y="1006.1622"
       ry="6.2786646" />
    <rect
       ry="6.1938181"
       y="1006.4623"
       x="2.1000366"
       height="43.799973"
       width="43.799973"
       id="rect5261"
       style="fill:#000000;fill-opacity:0.03921569;stroke:none" />
    <rect
       style="fill:#000000;fill-opacity:0.07843137;stroke:none"
       id="rect5259"
       width="43.199982"
       height="43.199982"
       x="2.4000244"
       y="1006.7622"
       ry="6.1089716" />
    <rect
       ry="6.0241251"
       y="1007.0623"
       x="2.7000122"
       height="42.599991"
       width="42.599991"
       id="rect5257"
       style="fill:#000000;fill-opacity:0.15686275;stroke:none" />
    <rect
       style="fill:url(#linearGradient4101);fill-opacity:1;stroke:none"
       id="rect5237-3"
       width="42"
       height="42"
       x="3"
       y="1007.3622"
       ry="5.9392786" />
    <path
       inkscape:connector-curvature="0"
       style="fill:#000000;fill-opacity:0.11764706;stroke:none"
       d="m 2.9999976,1040.9248 0,2.5 c 0,3.2903 2.64714,5.9375 5.9375,5.9375 l 30.1250004,0 c 3.29036,0 5.9375,-2.6472 5.9375,-5.9375 l 0,-2.5 c 0,3.2903 -2.64714,5.9375 -5.9375,5.9375 l -30.1250004,0 c -3.29036,0 -5.9375,-2.6472 -5.9375,-5.9375 z"
       id="rect5265" />
    <path
       inkscape:connector-curvature="0"
       style="fill:#000000;fill-opacity:0.09803922;stroke:none"
       d="m 2.9999976,1042.9248 0,0.5 c 0,3.2903 2.64714,5.9375 5.9375,5.9375 l 30.1250004,0 c 3.29036,0 5.9375,-2.6472 5.9375,-5.9375 l 0,-0.5 c 0,3.2904 -2.64714,5.9375 -5.9375,5.9375 l -30.1250004,0 c -3.29036,0 -5.9375,-2.6471 -5.9375,-5.9375 z"
       id="path5252" />
    <path
       style="fill:#000000;fill-opacity:0.49803922;stroke:none"
       d="m 11,1015.3622 0,7.5968 7.597208,0 0,-7.5968 -7.597208,0 z m 9.201394,0 0,7.5968 7.597211,0 0,-7.5968 -7.597211,0 z m 9.201397,0 0,7.5968 7.597209,0 0,-7.5968 -7.597209,0 z M 11,1024.5638 l 0,7.5968 7.597208,0 0,-7.5968 -7.597208,0 z m 9.201394,0 0,7.5968 7.597211,0 0,-7.5968 -7.597211,0 z m 9.201397,0 0,7.5968 7.597209,0 0,-7.5968 -7.597209,0 z M 11,1033.7654 l 0,7.5968 7.597208,0 0,-7.5968 -7.597208,0 z m 9.201394,0 0,7.5968 7.597211,0 0,-7.5968 -7.597211,0 z m 9.201397,0 0,7.5968 7.597209,0 0,-7.5968 -7.597209,0 z"
       id="rect4218"
       inkscape:connector-curvature="0" />
    <path
       style="fill:#000000"
       d=""
       id="path906"
       inkscape:connector-curvature="0" />
  </g>
</svg>
