<?xml version="1.0" encoding="UTF-8" standalone="no"?>
<svg
   xmlns:dc="http://purl.org/dc/elements/1.1/"
   xmlns:cc="http://creativecommons.org/ns#"
   xmlns:rdf="http://www.w3.org/1999/02/22-rdf-syntax-ns#"
   xmlns:svg="http://www.w3.org/2000/svg"
   xmlns="http://www.w3.org/2000/svg"
   xmlns:xlink="http://www.w3.org/1999/xlink"
   xmlns:sodipodi="http://sodipodi.sourceforge.net/DTD/sodipodi-0.dtd"
   xmlns:inkscape="http://www.inkscape.org/namespaces/inkscape"
   width="48"
   viewBox="0 0 13.546667 13.546667"
   height="48"
   id="svg2"
   version="1.1"
   inkscape:version="0.48+devel r"
   sodipodi:docname="chrome-gighmmpiobklfepjocnamgkkbiglidom-Default.svg">
  <metadata
     id="metadata22">
    <rdf:RDF>
      <cc:Work
         rdf:about="">
        <dc:format>image/svg+xml</dc:format>
        <dc:type
           rdf:resource="http://purl.org/dc/dcmitype/StillImage" />
      </cc:Work>
    </rdf:RDF>
  </metadata>
  <sodipodi:namedview
     pagecolor="#ffffff"
     bordercolor="#666666"
     borderopacity="1"
     objecttolerance="10"
     gridtolerance="10"
     guidetolerance="10"
     inkscape:pageopacity="0"
     inkscape:pageshadow="2"
     inkscape:window-width="1366"
     inkscape:window-height="665"
     id="namedview20"
     showgrid="false"
     inkscape:zoom="6.6040149"
     inkscape:cx="31.98748"
     inkscape:cy="29.479271"
     inkscape:window-x="-2"
     inkscape:window-y="26"
     inkscape:window-maximized="1"
     inkscape:current-layer="svg2" />
  <defs
     id="defs4">
    <linearGradient
       inkscape:collect="always"
       id="linearGradient6125">
      <stop
         style="stop-color:#f81654;stop-opacity:1"
         offset="0"
         id="stop6127" />
      <stop
         style="stop-color:#fd668f;stop-opacity:1"
         offset="1"
         id="stop6129" />
    </linearGradient>
    <linearGradient
       gradientTransform="matrix(0.28222223,0,0,0.28222223,-1.2114258e-6,-283.45333)"
       inkscape:collect="always"
       xlink:href="#linearGradient6125"
       id="linearGradient6131"
       x1="28.399813"
       y1="1049.3252"
       x2="28.399813"
       y2="1007.3821"
       gradientUnits="userSpaceOnUse" />
  </defs>
  <rect
     style="fill:#000000;fill-opacity:0.01960784;stroke:none"
     id="rect5263"
     width="12.530657"
     height="12.530657"
     x="0.50800508"
     y="0.50800508"
     ry="1.7719787" />
  <rect
     ry="1.7480332"
     y="0.59270275"
     x="0.59266847"
     height="12.361326"
     width="12.361326"
     id="rect5261"
     style="fill:#000000;fill-opacity:0.03921569;stroke:none" />
  <rect
     style="fill:#000000;fill-opacity:0.07843137;stroke:none"
     id="rect5259"
     width="12.191996"
     height="12.191996"
     x="0.67733186"
     y="0.67738318"
     ry="1.7240876" />
  <rect
     ry="1.700142"
     y="0.7620464"
     x="0.76200289"
     height="12.022664"
     width="12.022664"
     id="rect5257"
     style="fill:#000000;fill-opacity:0.15686275;stroke:none" />
  <rect
     style="fill:url(#linearGradient6131);fill-opacity:1;stroke:none"
     id="rect5237"
     width="11.853333"
     height="11.853333"
     x="0.84666532"
     y="0.84667522"
     ry="1.6761965" />
  <path
     inkscape:connector-curvature="0"
     style="fill:#000000;fill-opacity:0.11764706;stroke:none"
     d="m 0.84666579,10.318764 0,0.705556 c 0,0.928624 0.74708201,1.675694 1.67569401,1.675694 l 8.5019462,0 c 0.928613,0 1.675695,-0.74707 1.675695,-1.675694 l 0,-0.705556 c 0,0.928624 -0.747082,1.675695 -1.675695,1.675695 l -8.5019462,0 c -0.928612,0 -1.67569401,-0.747071 -1.67569401,-1.675695 z"
     id="rect5265" />
  <path
     inkscape:connector-curvature="0"
     style="fill:#000000;fill-opacity:0.09803922;stroke:none"
     d="m 0.84666579,10.883209 0,0.141111 c 0,0.928624 0.74708201,1.675694 1.67569401,1.675694 l 8.5019462,0 c 0.928613,0 1.675695,-0.74707 1.675695,-1.675694 l 0,-0.141111 c 0,0.928624 -0.747082,1.675694 -1.675695,1.675694 l -8.5019462,0 c -0.928612,0 -1.67569401,-0.74707 -1.67569401,-1.675694 z"
     id="path5252" />
  <path
     style="fill:#000000;fill-opacity:0.49803922"
     d="m 8.2864882,3.1044446 2.1557348,2.1557341 0,3.03422 -2.1557347,2.1478243 -3.0342199,0 -2.1478239,-2.1478244 0,-3.0342199 2.1478239,-2.1557342 3.0342199,0 z m -0.1982175,0.4890303 -2.636854,0 -1.857942,1.8649214 0,2.636854 1.857942,1.8579422 2.636854,0 1.8649214,-1.8579422 0,-2.6368539 L 8.0882707,3.5934749 Z M 7.0446032,4.629232 c 0.052493,-0.00141 0.10281,0.010423 0.1391247,0.036759 0.021155,0.015348 0.054848,0.060323 0.074914,0.1000396 l 0.036759,0.072586 0,0.9440934 c 0,0.7204137 0.00418,0.9482262 0.017682,0.9617746 0.047063,0.047221 0.068924,-0.182726 0.092129,-0.9720113 0.019416,-0.6603714 0.03168,-0.8165927 0.068865,-0.8663884 0.102889,-0.1377681 0.2893382,-0.1344583 0.3610727,0.00652 0.027713,0.05447 0.029631,0.097327 0.039085,0.8961677 0.0055,0.4644275 0.017074,0.8818252 0.025591,0.9343219 0.00849,0.052176 0.015196,0.1008175 0.015355,0.1084149 1.857e-4,0.00875 0.0055,0.00875 0.013959,0 0.017567,-0.018166 0.039349,-0.2264101 0.059093,-0.5611517 0.026911,-0.4561321 0.045139,-0.6313204 0.070261,-0.6742193 0.012789,-0.021837 0.049993,-0.050331 0.082358,-0.06328 0.08295,-0.033192 0.1582504,-0.0074 0.2107809,0.072121 0.03836,0.058069 0.038373,0.058482 0.037689,0.3508361 -0.00155,0.6605138 -0.037517,1.8984441 -0.059093,2.0361469 C 8.3100696,8.1406242 8.2617116,8.3044105 8.2227423,8.3953688 8.0677266,8.6638638 8.06568,8.6597969 7.818397,8.9174351 l -0.7044639,0 -0.7561123,0 -0.049322,-0.061419 C 6.2243769,8.7512432 6.1342594,8.6551435 5.9218348,8.4432947 5.6918125,8.2138948 5.7124792,8.2481872 5.5044609,7.7574427 5.3194748,7.3210355 5.1573473,6.9084838 5.1573473,6.8747689 c 0,-0.075964 0.2312617,-0.107373 0.3913172,-0.053044 0.1364037,0.046297 0.2108892,0.145674 0.263825,0.3526973 0.032681,0.1278001 0.057358,0.1579992 0.1433122,0.1735566 0,0 0.098376,0.02232 0.1032966,-0.2303234 l 0.00884,-0.088872 C 6.0793933,6.9099655 6.1007563,6.5188981 6.1284273,5.9255576 6.1725763,4.9788052 6.1732753,4.9700444 6.2005483,4.92842 6.2923853,4.7882642 6.5254025,4.7915616 6.6090816,4.934 c 0.028506,0.048516 0.029807,0.081147 0.03862,0.8100869 0.00848,0.7016022 0.015175,0.8764929 0.037224,0.9906234 0.039394,0.2039041 0.092129,-0.6255881 0.092129,-1.4456866 0,-0.4989863 0.00296,-0.5182758 0.082358,-0.5909308 0.047043,-0.04305 0.1177008,-0.067092 0.1851895,-0.068865 z"
     id="path16"
     inkscape:connector-curvature="0" />
</svg>
