<?xml version="1.0" encoding="UTF-8" standalone="no"?>
<svg
   xmlns:dc="http://purl.org/dc/elements/1.1/"
   xmlns:cc="http://creativecommons.org/ns#"
   xmlns:rdf="http://www.w3.org/1999/02/22-rdf-syntax-ns#"
   xmlns:svg="http://www.w3.org/2000/svg"
   xmlns="http://www.w3.org/2000/svg"
   xmlns:xlink="http://www.w3.org/1999/xlink"
   xmlns:sodipodi="http://sodipodi.sourceforge.net/DTD/sodipodi-0.dtd"
   xmlns:inkscape="http://www.inkscape.org/namespaces/inkscape"
   width="48"
   viewBox="0 0 13.546667 13.546667"
   height="48"
   id="svg2"
   version="1.1"
   inkscape:version="0.48+devel r"
   sodipodi:docname="chrome-cmnpffgfpcohhpoddjankjanolcekbni-Default.svg">
  <metadata
     id="metadata24">
    <rdf:RDF>
      <cc:Work
         rdf:about="">
        <dc:format>image/svg+xml</dc:format>
        <dc:type
           rdf:resource="http://purl.org/dc/dcmitype/StillImage" />
        <dc:title />
      </cc:Work>
    </rdf:RDF>
  </metadata>
  <sodipodi:namedview
     pagecolor="#ffffff"
     bordercolor="#666666"
     borderopacity="1"
     objecttolerance="10"
     gridtolerance="10"
     guidetolerance="10"
     inkscape:pageopacity="0"
     inkscape:pageshadow="2"
     inkscape:window-width="1366"
     inkscape:window-height="665"
     id="namedview22"
     showgrid="false"
     inkscape:showpageshadow="false"
     borderlayer="true"
     inkscape:zoom="4.6697438"
     inkscape:cx="32.011448"
     inkscape:cy="18.664222"
     inkscape:window-x="-2"
     inkscape:window-y="26"
     inkscape:window-maximized="1"
     inkscape:current-layer="svg2" />
  <defs
     id="defs4">
    <linearGradient
       id="linearGradient6125"
       inkscape:collect="always">
      <stop
         id="stop6127"
         offset="0"
         style="stop-color:#f81654;stop-opacity:1" />
      <stop
         id="stop6129"
         offset="1"
         style="stop-color:#fd668f;stop-opacity:1" />
    </linearGradient>
    <linearGradient
       gradientUnits="userSpaceOnUse"
       y2="1007.3821"
       x2="28.399813"
       y1="1049.3252"
       x1="28.399813"
       id="linearGradient6131"
       xlink:href="#linearGradient6125"
       inkscape:collect="always"
       gradientTransform="matrix(0.28222223,0,0,0.28222223,-2.1704101e-7,-283.4533)" />
  </defs>
  <rect
     style="fill:#000000;fill-opacity:0.01960784;stroke:none"
     id="rect5263"
     width="12.530657"
     height="12.530657"
     x="0.50800508"
     y="0.50800508"
     ry="1.7719787" />
  <rect
     ry="1.7480332"
     y="0.59270269"
     x="0.59266847"
     height="12.361326"
     width="12.361326"
     id="rect5261"
     style="fill:#000000;fill-opacity:0.03921569;stroke:none" />
  <rect
     style="fill:#000000;fill-opacity:0.07843137;stroke:none"
     id="rect5259"
     width="12.191996"
     height="12.191996"
     x="0.67733186"
     y="0.67743498"
     ry="1.7240876" />
  <rect
     ry="1.700142"
     y="0.76206356"
     x="0.76200289"
     height="12.022664"
     width="12.022664"
     id="rect5257"
     style="fill:#000000;fill-opacity:0.15686275;stroke:none" />
  <rect
     style="fill:url(#linearGradient6131);fill-opacity:1;stroke:none"
     id="rect5237"
     width="11.853333"
     height="11.853333"
     x="0.84666723"
     y="0.84667522"
     ry="1.6761965" />
  <path
     inkscape:connector-curvature="0"
     style="fill:#000000;fill-opacity:0.11764706;stroke:none"
     d="m 0.84666578,10.318764 0,0.705556 c 0,0.928624 0.74708202,1.675694 1.67569502,1.675694 l 8.5019442,0 c 0.928613,0 1.675695,-0.74707 1.675695,-1.675694 l 0,-0.705556 c 0,0.928624 -0.747082,1.675695 -1.675695,1.675695 l -8.5019442,0 c -0.928613,0 -1.67569502,-0.747071 -1.67569502,-1.675695 z"
     id="rect5265" />
  <path
     inkscape:connector-curvature="0"
     style="fill:#000000;fill-opacity:0.09803922;stroke:none"
     d="m 0.84666578,10.883209 0,0.141111 c 0,0.928624 0.74708202,1.675694 1.67569502,1.675694 l 8.5019442,0 c 0.928613,0 1.675695,-0.74707 1.675695,-1.675694 l 0,-0.141111 c 0,0.928624 -0.747082,1.675694 -1.675695,1.675694 l -8.5019442,0 c -0.928613,0 -1.67569502,-0.74707 -1.67569502,-1.675694 z"
     id="path5252" />
  <text
     style="font-size:11.28888893px;line-height:125%;font-family:Sans;letter-spacing:0;word-spacing:0"
     sodipodi:linespacing="125%"
     x="-42.375668"
     y="7.9445558"
     word-spacing="0"
     line-height="125%"
     letter-spacing="0"
     font-size="40"
     id="text20">
    <tspan
       id="tspan22" />
  </text>
  <path
     style="opacity:1;fill:#000000;fill-opacity:0.49803922;stroke:none;stroke-width:2.79999995;stroke-miterlimit:4;stroke-dasharray:none;stroke-opacity:0.55026455"
     d="m 4.6552887,3.1044445 -2.1185098,3.6688889 2.1185098,3.6688896 4.2360895,0 2.1185098,-3.6688896 -2.1185098,-3.6688889 -4.2360895,0 z m 0.4764669,0.8254418 0.02373,0 c -0.00929,0.00236 -0.018668,0.00451 -0.027918,0.00698 l 0.00419,-0.00698 z m 1.2032653,0 2.0798903,0 0.4550632,0.7882179 C 8.5999333,4.612888 8.3066321,4.5529229 7.9984678,4.5529229 c -0.1747481,0 -0.3447873,0.01911 -0.5085729,0.05444 C 7.1827053,4.281042 6.7841433,4.0433107 6.3350209,3.9298863 Z M 5.2057384,4.5785142 c 0.5165773,0 0.9927404,0.1638367 1.3828708,0.4401737 C 6.3057808,5.2263802 6.0715044,5.4932224 5.9027574,5.8036487 5.6524088,5.7151774 5.3838434,5.664524 5.1024417,5.664524 4.685976,5.664524 4.2985837,5.7749588 3.958735,5.96092 L 4.7292714,4.6269053 c 0.1539079,-0.031155 0.3129816,-0.048391 0.476467,-0.048391 z m 2.7531789,0.7519245 c 0.9348796,0.1989867 1.6634308,0.9409939 1.8439831,1.882603 l -1.3879893,2.4037388 -0.7188881,0 C 8.3240882,9.1866482 8.7350373,8.4645556 8.7350373,7.6425136 c 0,-0.6113925 -0.228779,-1.1660025 -0.603959,-1.5876031 C 8.1110237,5.7998563 8.0521729,5.5563586 7.9589172,5.3304387 Z m -1.0106311,0.00233 c 0.4017634,0.4274908 0.6490932,1.0016828 0.6490932,1.63739 0,0.267856 -0.046351,0.5238875 -0.1274921,0.763557 C 7.3512959,6.8487908 6.7537341,6.1221808 5.9437039,5.8190037 6.2306875,5.5841199 6.5721685,5.4141577 6.9482862,5.3327652 Z M 4.5594369,6.3885306 c 1.325039,0 2.391641,1.0666016 2.391641,2.3916408 0,0.082785 -0.00613,0.1642789 -0.014424,0.2447478 -0.3376443,0.1818162 -0.7244171,0.2852289 -1.136262,0.2852289 -0.3443187,0 -0.6693741,-0.074797 -0.9641012,-0.2051974 L 3.4897127,6.7733334 3.5930094,6.5946583 C 3.8883375,6.4636184 4.2142246,6.3885306 4.5594369,6.3885306 Z m 3.5730371,0.00512 c 0.038161,0.1687396 0.059559,0.3441306 0.059559,0.5248581 0,0.70512 -0.3040553,1.3348998 -0.7863566,1.7718617 0.055523,-0.202064 0.088407,-0.4138798 0.088407,-0.6342036 0,-0.057203 -0.00493,-0.1131942 -0.00884,-0.1693692 0.3730852,-0.394276 0.6119049,-0.9143054 0.6472318,-1.4931444 z"
     id="path4211"
     inkscape:connector-curvature="0" />
  <g
     id="text6110-1-8-2"
     style="font-style:normal;font-weight:normal;font-size:220.81851196px;line-height:125%;font-family:Sans;letter-spacing:0px;word-spacing:0px;fill:#fff8c1;fill-opacity:1;stroke:none"
     transform="matrix(0.01177254,0,0,0.01160919,-28.526167,-0.30550412)" />
</svg>
