<?xml version="1.0" encoding="UTF-8" standalone="no"?>
<!-- Created with Inkscape (http://www.inkscape.org/) -->

<svg
   xmlns:dc="http://purl.org/dc/elements/1.1/"
   xmlns:cc="http://creativecommons.org/ns#"
   xmlns:rdf="http://www.w3.org/1999/02/22-rdf-syntax-ns#"
   xmlns:svg="http://www.w3.org/2000/svg"
   xmlns="http://www.w3.org/2000/svg"
   xmlns:xlink="http://www.w3.org/1999/xlink"
   xmlns:sodipodi="http://sodipodi.sourceforge.net/DTD/sodipodi-0.dtd"
   xmlns:inkscape="http://www.inkscape.org/namespaces/inkscape"
   width="48"
   height="48"
   id="svg4230"
   version="1.1"
   inkscape:version="0.48.5 r10040"
   sodipodi:docname="eclipse.svg">
  <defs
     id="defs4232">
    <linearGradient
       id="linearGradient5347"
       inkscape:collect="always">
      <stop
         id="stop5349"
         offset="0"
         style="stop-color:#8e3fd0;stop-opacity:1" />
      <stop
         id="stop5351"
         offset="1"
         style="stop-color:#cf7ae6;stop-opacity:1" />
    </linearGradient>
    <linearGradient
       gradientUnits="userSpaceOnUse"
       y2="1007.5463"
       x2="28.728134"
       y1="1049.4073"
       x1="28.728134"
       id="linearGradient5353"
       xlink:href="#linearGradient5347"
       inkscape:collect="always"
       gradientTransform="translate(-7.1054687e-7,1.4073906e-4)" />
  </defs>
  <sodipodi:namedview
     id="base"
     pagecolor="#ffffff"
     bordercolor="#666666"
     borderopacity="1.0"
     inkscape:pageopacity="0.0"
     inkscape:pageshadow="2"
     inkscape:zoom="3.1712769"
     inkscape:cx="28.280635"
     inkscape:cy="17.572029"
     inkscape:document-units="px"
     inkscape:current-layer="layer1"
     showgrid="false"
     inkscape:showpageshadow="false"
     borderlayer="true"
     inkscape:window-width="1366"
     inkscape:window-height="767"
     inkscape:window-x="0"
     inkscape:window-y="0"
     inkscape:window-maximized="1" />
  <metadata
     id="metadata4235">
    <rdf:RDF>
      <cc:Work
         rdf:about="">
        <dc:format>image/svg+xml</dc:format>
        <dc:type
           rdf:resource="http://purl.org/dc/dcmitype/StillImage" />
        <dc:title />
      </cc:Work>
    </rdf:RDF>
  </metadata>
  <g
     inkscape:label="Capa 1"
     inkscape:groupmode="layer"
     id="layer1"
     transform="translate(0,-1004.3622)">
    <rect
       style="fill:#000000;fill-opacity:0.01960784;stroke:none"
       id="rect5263-0"
       width="44.399963"
       height="44.399963"
       x="1.8000183"
       y="1006.1622"
       ry="6.2786646" />
    <rect
       ry="6.1938181"
       y="1006.4623"
       x="2.1000061"
       height="43.799973"
       width="43.799973"
       id="rect5261-6"
       style="fill:#000000;fill-opacity:0.03921569;stroke:none" />
    <rect
       style="fill:#000000;fill-opacity:0.07843137;stroke:none"
       id="rect5259-9"
       width="43.199982"
       height="43.199982"
       x="2.3999939"
       y="1006.7626"
       ry="6.1089716" />
    <rect
       ry="6.0241251"
       y="1007.0624"
       x="2.7000122"
       height="42.599991"
       width="42.599991"
       id="rect5257-5"
       style="fill:#000000;fill-opacity:0.15686275;stroke:none" />
    <rect
       style="fill:url(#linearGradient5353);fill-opacity:1;stroke:none"
       id="rect5237-8"
       width="42"
       height="42"
       x="3"
       y="1007.3622"
       ry="5.9392786" />
    <path
       inkscape:connector-curvature="0"
       style="fill:#000000;fill-opacity:0.11764706;stroke:none"
       d="m 2.9999983,1040.9248 0,2.5 c 0,3.2904 2.64714,5.9375 5.9375004,5.9375 l 30.1250003,0 c 3.29036,0 5.9375,-2.6471 5.9375,-5.9375 l 0,-2.5 c 0,3.2904 -2.64714,5.9375 -5.9375,5.9375 l -30.1250003,0 C 5.6471383,1046.8623 2.9999983,1044.2152 2.9999983,1040.9248 Z"
       id="rect5265-0" />
    <path
       inkscape:connector-curvature="0"
       style="fill:#000000;fill-opacity:0.09803922;stroke:none"
       d="m 2.9999983,1042.9248 0,0.5 c 0,3.2904 2.64714,5.9375 5.9375004,5.9375 l 30.1250003,0 c 3.29036,0 5.9375,-2.6471 5.9375,-5.9375 l 0,-0.5 c 0,3.2904 -2.64714,5.9375 -5.9375,5.9375 l -30.1250003,0 C 5.6471383,1048.8623 2.9999983,1046.2152 2.9999983,1042.9248 Z"
       id="path5252-0" />
    <g
       id="g2995"
       transform="matrix(0.24321161,0,0,0.24321161,9.1046452,1014.3898)">
      <path
         id="path2997"
         d="m 105.916,96.173 c -5.82,2.288 -11.195,3.373 -12.942,4.245 -6.922,3.454 -10.882,6.393 -16.123,7.769 -6.993,1.835 -13.652,1.997 -18.495,1.69 -1.339,-0.085 0.66,0.014 -0.532,-0.063 -0.024,-10e-4 -0.047,-0.002 -0.071,-0.003 -0.032,10e-4 -0.059,0.02 -0.091,0.021 -0.114,-0.009 -0.225,-0.026 -0.339,-0.037 -0.194,-0.01 -0.386,-0.009 -0.581,-0.021 C 26.901,107.882 4.143,81.901 6.025,51.85 c 0.002,-0.034 0.006,-0.067 0.009,-0.1 0,-0.019 0,-0.037 0.001,-0.057 C 6.237,48.469 6.719,45.418 7.426,42.521 7.56,41.943 7.713,41.374 7.865,40.803 7.877,40.762 7.886,40.72 7.897,40.679 14.529,15.955 37.741,-1.561 64.091,0.11 c 4.193,0.266 5.96,0.378 5.96,0.378 l 0.01,0.062 c 5.599,0.308 17.396,2.598 20.334,4.072 2.583,1.297 5.801,3.308 6.948,5.145 2.538,4.064 1.875,6.385 2.449,8.006 1.063,3.003 3.489,4.146 5.753,5.784 -0.175,1.053 -0.58,1.702 -1.263,2.708 -2.346,3.453 -6.732,5.074 -10.755,4.219 -10.011,-2.129 -17.022,-2.33 -17.536,-2.362 -0.678,-0.043 -0.737,-0.047 -1.416,-0.09 -0.007,0 -0.122,-0.008 -0.281,-0.018 l -10e-4,0.009 c -11.819,-0.65 -21.682,5.052 -26.15,15.439 -0.342,0.795 -1.425,4.137 -0.211,7.844 0.601,1.836 1.494,3.423 2.623,4.73 1.51,1.748 2.262,4.391 2.529,5.414 1.213,4.636 3.714,8.781 7.122,11.986 -2.704,0.885 -7.945,-0.422 -11.527,-3.37 -1.585,-1.305 -2.328,-2.508 -3.363,-2.439 -0.692,0.046 -0.548,0.87 -0.069,1.669 0.988,1.647 1.61,2.669 3.808,4.673 2.809,2.561 5.449,4.179 6.942,5.171 3.874,2.572 10.139,4.159 15.097,4.473 0.678,0.043 0.419,0.027 1.097,0.07 1.512,0.096 2.351,0.235 4.221,0.034 9.353,-1.006 16.352,-6.209 20.798,-11.059 l 4.431,11.97 c -1.289,0.983 -2.897,2.087 -5.348,3.56 -1.168,0.702 0.04,2.187 1.839,1.053 1.087,-0.483 2.703,-1.369 4.348,-2.346 l 3.436,9.278 z M 91.932,13.841 c -1.401,-0.089 -2.608,0.982 -2.696,2.391 -0.088,1.409 0.976,2.624 2.376,2.713 1.401,0.089 2.607,-0.982 2.696,-2.391 0.088,-1.41 -0.976,-2.624 -2.376,-2.713 z"
         inkscape:connector-curvature="0"
         style="fill:#000000;fill-opacity:0.49803922" />
      <path
         id="path2999"
         d="m 59.45,53.934 c 0.618,-9.811 9.103,-17.29 18.91,-16.672 9.814,0.618 17.292,9.103 16.674,18.915 C 94.415,65.99 85.93,73.469 76.116,72.85 66.31,72.232 58.831,63.747 59.45,53.934"
         inkscape:connector-curvature="0"
         style="fill:#000000;fill-opacity:0.49803922" />
    </g>
  </g>
</svg>
