<?xml version="1.0" encoding="UTF-8" standalone="no"?>
<!-- Created with Inkscape (http://www.inkscape.org/) -->

<svg
   xmlns:dc="http://purl.org/dc/elements/1.1/"
   xmlns:cc="http://creativecommons.org/ns#"
   xmlns:rdf="http://www.w3.org/1999/02/22-rdf-syntax-ns#"
   xmlns:svg="http://www.w3.org/2000/svg"
   xmlns="http://www.w3.org/2000/svg"
   xmlns:xlink="http://www.w3.org/1999/xlink"
   xmlns:sodipodi="http://sodipodi.sourceforge.net/DTD/sodipodi-0.dtd"
   xmlns:inkscape="http://www.inkscape.org/namespaces/inkscape"
   width="48"
   height="48"
   id="svg4230"
   version="1.1"
   inkscape:version="0.48+devel r12852"
   sodipodi:docname="CMakeSetup32.svg">
  <defs
     id="defs4232">
    <linearGradient
       inkscape:collect="always"
       id="linearGradient6125">
      <stop
         style="stop-color:#f81654;stop-opacity:1"
         offset="0"
         id="stop6127" />
      <stop
         style="stop-color:#fd668f;stop-opacity:1"
         offset="1"
         id="stop6129" />
    </linearGradient>
    <linearGradient
       inkscape:collect="always"
       xlink:href="#linearGradient6125"
       id="linearGradient6131"
       x1="28.399813"
       y1="1049.3252"
       x2="28.399813"
       y2="1007.3821"
       gradientUnits="userSpaceOnUse" />
  </defs>
  <sodipodi:namedview
     id="base"
     pagecolor="#ffffff"
     bordercolor="#666666"
     borderopacity="1.0"
     inkscape:pageopacity="0.0"
     inkscape:pageshadow="2"
     inkscape:zoom="4.6662752"
     inkscape:cx="3.8903286"
     inkscape:cy="55.53052"
     inkscape:document-units="px"
     inkscape:current-layer="layer1"
     showgrid="false"
     inkscape:showpageshadow="false"
     borderlayer="true"
     inkscape:window-width="1366"
     inkscape:window-height="673"
     inkscape:window-x="0"
     inkscape:window-y="24"
     inkscape:window-maximized="1" />
  <metadata
     id="metadata4235">
    <rdf:RDF>
      <cc:Work
         rdf:about="">
        <dc:format>image/svg+xml</dc:format>
        <dc:type
           rdf:resource="http://purl.org/dc/dcmitype/StillImage" />
        <dc:title></dc:title>
      </cc:Work>
    </rdf:RDF>
  </metadata>
  <g
     inkscape:label="Capa 1"
     inkscape:groupmode="layer"
     id="layer1"
     transform="translate(0,-1004.3622)">
    <rect
       style="fill:#000000;fill-opacity:0.01960784;stroke:none"
       id="rect5263"
       width="44.399963"
       height="44.399963"
       x="1.8000183"
       y="1006.1622"
       ry="6.2786646" />
    <rect
       ry="6.1938181"
       y="1006.4623"
       x="2.1000061"
       height="43.799973"
       width="43.799973"
       id="rect5261"
       style="fill:#000000;fill-opacity:0.03921569;stroke:none" />
    <rect
       style="fill:#000000;fill-opacity:0.07843137;stroke:none"
       id="rect5259"
       width="43.199982"
       height="43.199982"
       x="2.3999939"
       y="1006.7623"
       ry="6.1089716" />
    <rect
       ry="6.0241251"
       y="1007.0623"
       x="2.7000122"
       height="42.599991"
       width="42.599991"
       id="rect5257"
       style="fill:#000000;fill-opacity:0.15686275;stroke:none" />
    <rect
       style="fill:url(#linearGradient6131);fill-opacity:1;stroke:none"
       id="rect5237"
       width="42"
       height="42"
       x="3"
       y="1007.3622"
       ry="5.9392786" />
    <path
       inkscape:connector-curvature="0"
       style="fill:#000000;fill-opacity:0.11764706;stroke:none"
       d="m 2.9999991,1040.9247 0,2.5 c 0,3.2904 2.64714,5.9375 5.9375,5.9375 l 30.1249999,0 c 3.29036,0 5.9375,-2.6471 5.9375,-5.9375 l 0,-2.5 c 0,3.2904 -2.64714,5.9375 -5.9375,5.9375 l -30.1249999,0 C 5.6471391,1046.8622 2.9999991,1044.2151 2.9999991,1040.9247 Z"
       id="rect5265" />
    <path
       inkscape:connector-curvature="0"
       style="fill:#000000;fill-opacity:0.09803922;stroke:none"
       d="m 2.9999991,1042.9247 0,0.5 c 0,3.2904 2.64714,5.9375 5.9375,5.9375 l 30.1249999,0 c 3.29036,0 5.9375,-2.6471 5.9375,-5.9375 l 0,-0.5 c 0,3.2904 -2.64714,5.9375 -5.9375,5.9375 l -30.1249999,0 C 5.6471391,1048.8622 2.9999991,1046.2151 2.9999991,1042.9247 Z"
       id="path5252" />
    <text
       xml:space="preserve"
       style="font-size:40px;font-style:normal;font-variant:normal;font-weight:bold;font-stretch:normal;line-height:125%;letter-spacing:0px;word-spacing:0px;fill:#000000;fill-opacity:1;stroke:none;font-family:Impact;-inkscape-font-specification:Impact Bold"
       x="-60.408684"
       y="1040.7867"
       id="text830"
       sodipodi:linespacing="125%"><tspan
         sodipodi:role="line"
         id="tspan832"
         x="-60.408684"
         y="1040.7867" /></text>
    <g
       transform="matrix(0.36107049,0,0,-0.36107049,-133.28665,992.65357)"
       id="g312"
       style="fill:#000000;fill-opacity:0.49803922" />
    <g
       transform="matrix(0.36107049,0,0,-0.36107049,-121.93127,981.29749)"
       id="g316"
       style="fill:#000000;fill-opacity:0.49803922" />
    <path
       style="fill:#000000;fill-opacity:0.49803922;stroke:none"
       d="m 24.024011,1015.3622 c -0.328586,0 -0.5785,0.1136 -0.792622,0.2407 -0.03785,0.026 -0.07678,0.05 -0.112302,0.078 -0.04608,0.037 -0.08667,0.076 -0.12695,0.1187 -0.0183,0.018 -0.03639,0.035 -0.05371,0.056 -0.05077,0.058 -0.09535,0.1198 -0.135086,0.1847 -0.0044,0.01 -0.01199,0.012 -0.01628,0.018 l -0.02604,0.046 c -0.0084,0.015 -0.01998,0.029 -0.02767,0.045 l -8.108508,13.8421 6.81297,4.0463 -0.686831,0.4072 -11.1845989,6.6383 c -0.02282,-0.016 -0.04637,-0.03 -0.06836,-0.048 0.02197,0.018 0.04554,0.033 0.06836,0.05 0.03662,0.027 0.07283,0.055 0.112302,0.077 0.0065,0 0.01131,0.011 0.01791,0.013 0.01359,0.011 0.02859,0.012 0.04232,0.018 0.05805,0.031 0.118055,0.058 0.180659,0.079 0.03399,0.012 0.06648,0.021 0.1009089,0.031 0.05008,0.014 0.100793,0.026 0.152991,0.033 0.04789,0.011 0.09522,0.012 0.143225,0.015 0.0279,0 0.05307,0.011 0.08138,0.011 l 14.101187,0 13.113258,0 c 0.02833,0 0.05348,-0.011 0.08138,-0.011 0.04801,0 0.09535,-0.01 0.143226,-0.013 0.0522,-0.01 0.102914,-0.019 0.152991,-0.033 0.03442,-0.011 0.06854,-0.02 0.102537,-0.033 0.0626,-0.021 0.120976,-0.05 0.179031,-0.079 0.01372,-0.01 0.02872,-0.011 0.04232,-0.018 0.0065,0 0.01303,-0.011 0.01952,-0.013 0.06423,-0.039 0.123649,-0.079 0.18066,-0.127 0.01564,-0.013 0.03225,-0.027 0.04719,-0.04 0.04977,-0.046 0.09394,-0.095 0.136714,-0.1467 0.01684,-0.019 0.03488,-0.039 0.05045,-0.059 0.03575,-0.048 0.06677,-0.1004 0.09603,-0.1533 0.01409,-0.026 0.02828,-0.05 0.04069,-0.076 0.02249,-0.048 0.03835,-0.098 0.05534,-0.1483 0.01349,-0.041 0.02927,-0.078 0.03906,-0.1188 0.03006,-0.1154 0.01791,-0.5523 0.01791,-0.5523 -0.0074,-0.044 -0.01787,-0.085 -0.0293,-0.127 -0.0113,-0.042 -0.02366,-0.084 -0.03906,-0.1237 -0.02143,-0.057 -0.04796,-0.11 -0.07649,-0.1633 -0.0087,-0.015 -0.01343,-0.031 -0.02278,-0.049 l -8.28103,-14.1306 -5.359558,3.1839 -0.0016,12.9336 -0.686831,0 0,-12.5494 0,-0.087 -0.0016,0 0,-13.1595 c 0.01127,0.01 0.02286,0 0.03417,0.013 0.04491,0.017 0.08888,0.036 0.131833,0.058 -0.04477,-0.023 -0.09071,-0.048 -0.131833,-0.059 -0.01131,-0.01 -0.0229,-0.011 -0.03417,-0.015 -0.03183,-0.012 -0.06361,-0.024 -0.09603,-0.035 -0.03923,-0.012 -0.08032,-0.017 -0.120439,-0.026 -0.0482,-0.011 -0.09476,-0.02 -0.143226,-0.026 l -0.115556,-0.013 z m 0.699851,0.2012 c 0.01921,0.014 0.03744,0.029 0.05697,0.041 -0.01949,-0.013 -0.03763,-0.03 -0.05697,-0.041 z m 0.192052,0.1401 c 0.01661,0.014 0.03148,0.03 0.04719,0.044 -0.01621,-0.015 -0.03066,-0.03 -0.04719,-0.044 z m 0.177404,0.1797 c 0.0331,0.041 0.06448,0.083 0.09277,0.1253 -0.02965,-0.043 -0.05842,-0.085 -0.09277,-0.1253 z m 0.09603,0.1303 0,11.4974 5.00475,-2.9712 0.345043,0.5903 0.0016,0 -5.263531,-8.9797 c -0.0237,-0.047 -0.05747,-0.09 -0.08789,-0.1352 z m -10.920933,14.5841 -5.0877559,8.6811 c -0.0094,0.015 -0.01414,0.033 -0.02278,0.049 -0.02854,0.054 -0.05344,0.1062 -0.07487,0.1632 -0.01541,0.041 -0.02776,0.082 -0.03906,0.1238 -0.01142,0.043 -0.0219,0.083 -0.0293,0.1269 -0.0086,0.05 -0.01172,0.1001 -0.01465,0.1501 0,0.1061 0.008,0.1923 0.01139,0.2803 0.0059,0.041 0.01014,0.082 0.01954,0.122 0.0098,0.041 0.02558,0.079 0.03906,0.1187 0.01338,0.039 0.02812,0.077 0.04395,0.1154 l 10.9437189,-6.4948 -5.789234,-3.4362 z"
       id="path4237"
       inkscape:connector-curvature="0" />
  </g>
</svg>
