<?xml version="1.0" encoding="UTF-8" standalone="no"?>
<svg
   xmlns:dc="http://purl.org/dc/elements/1.1/"
   xmlns:cc="http://creativecommons.org/ns#"
   xmlns:rdf="http://www.w3.org/1999/02/22-rdf-syntax-ns#"
   xmlns:svg="http://www.w3.org/2000/svg"
   xmlns="http://www.w3.org/2000/svg"
   xmlns:xlink="http://www.w3.org/1999/xlink"
   xmlns:sodipodi="http://sodipodi.sourceforge.net/DTD/sodipodi-0.dtd"
   xmlns:inkscape="http://www.inkscape.org/namespaces/inkscape"
   height="48"
   width="48"
   viewBox="0 0 13.546667 13.546667"
   id="svg2"
   version="1.1"
   inkscape:version="0.48+devel r"
   sodipodi:docname="colorhug-flash.svg">
  <metadata
     id="metadata32">
    <rdf:RDF>
      <cc:Work
         rdf:about="">
        <dc:format>image/svg+xml</dc:format>
        <dc:type
           rdf:resource="http://purl.org/dc/dcmitype/StillImage" />
      </cc:Work>
    </rdf:RDF>
  </metadata>
  <sodipodi:namedview
     pagecolor="#ffffff"
     bordercolor="#666666"
     borderopacity="1"
     objecttolerance="10"
     gridtolerance="10"
     guidetolerance="10"
     inkscape:pageopacity="0"
     inkscape:pageshadow="2"
     inkscape:window-width="1366"
     inkscape:window-height="665"
     id="namedview30"
     showgrid="false"
     inkscape:zoom="9.4489697"
     inkscape:cx="21.796805"
     inkscape:cy="36.73278"
     inkscape:window-x="-2"
     inkscape:window-y="26"
     inkscape:window-maximized="1"
     inkscape:current-layer="svg2" />
  <defs
     id="defs4">
    <linearGradient
       id="linearGradient4917">
      <stop
         style="stop-color:#f2f2f2;stop-opacity:1"
         offset="0"
         id="stop4919" />
      <stop
         style="stop-color:#ffffff;stop-opacity:1;"
         offset="1"
         id="stop4921" />
    </linearGradient>
    <style
       type="text/css"
       id="style2464" />
    <style
       id="style2464-7"
       type="text/css" />
    <linearGradient
       inkscape:collect="always"
       id="linearGradient6125">
      <stop
         style="stop-color:#f81654;stop-opacity:1"
         offset="0"
         id="stop6127" />
      <stop
         style="stop-color:#fd668f;stop-opacity:1"
         offset="1"
         id="stop6129" />
    </linearGradient>
    <linearGradient
       gradientTransform="matrix(0.28222223,0,0,0.28222223,-1.1553345e-6,-283.45332)"
       inkscape:collect="always"
       xlink:href="#linearGradient6125"
       id="linearGradient6131"
       x1="28.399813"
       y1="1049.3252"
       x2="28.399813"
       y2="1007.3821"
       gradientUnits="userSpaceOnUse" />
  </defs>
  <rect
     style="fill:#000000;fill-opacity:0.01960784;stroke:none"
     id="rect5263"
     width="12.530657"
     height="12.530657"
     x="0.50800508"
     y="0.50800508"
     ry="1.7719787" />
  <rect
     ry="1.7480332"
     y="0.59270281"
     x="0.59266847"
     height="12.361326"
     width="12.361326"
     id="rect5261"
     style="fill:#000000;fill-opacity:0.03921569;stroke:none" />
  <rect
     style="fill:#000000;fill-opacity:0.07843137;stroke:none"
     id="rect5259"
     width="12.191996"
     height="12.191996"
     x="0.67733186"
     y="0.67743498"
     ry="1.7240876" />
  <rect
     ry="1.700142"
     y="0.76204652"
     x="0.76200289"
     height="12.022664"
     width="12.022664"
     id="rect5257"
     style="fill:#000000;fill-opacity:0.15686275;stroke:none" />
  <rect
     style="fill:url(#linearGradient6131);fill-opacity:1;stroke:none"
     id="rect5237"
     width="11.853333"
     height="11.853333"
     x="0.84666628"
     y="0.84667534"
     ry="1.6761965" />
  <path
     inkscape:connector-curvature="0"
     style="fill:#000000;fill-opacity:0.11764706;stroke:none"
     d="m 0.84666584,10.318764 0,0.705555 c 0,0.928624 0.74708096,1.675695 1.67569396,1.675695 l 8.5019462,0 c 0.928613,0 1.675694,-0.747071 1.675694,-1.675695 l 0,-0.705555 c 0,0.928624 -0.747081,1.675694 -1.675694,1.675694 l -8.5019462,0 c -0.928613,0 -1.67569396,-0.74707 -1.67569396,-1.675694 z"
     id="rect5265" />
  <path
     inkscape:connector-curvature="0"
     style="fill:#000000;fill-opacity:0.09803922;stroke:none"
     d="m 0.84666584,10.883208 0,0.141111 c 0,0.928624 0.74708096,1.675695 1.67569396,1.675695 l 8.5019462,0 c 0.928613,0 1.675694,-0.747071 1.675694,-1.675695 l 0,-0.141111 c 0,0.928624 -0.747081,1.675695 -1.675694,1.675695 l -8.5019462,0 c -0.928613,0 -1.67569396,-0.747071 -1.67569396,-1.675695 z"
     id="path5252" />
  <path
     style="fill:#000000;fill-opacity:0.49803922"
     d="M 23.974609 11 C 21.335089 11 18.746069 11.792344 16.537109 13.339844 C 15.83095 13.833844 15.679828 14.791947 16.173828 15.498047 C 16.666788 16.204247 17.626911 16.383672 18.332031 15.888672 C 20.038671 14.693672 22.036605 14.100441 24.078125 14.119141 C 24.371405 14.119141 24.649547 14.120477 24.935547 14.146484 C 25.022907 14.156477 25.107952 14.186264 25.195312 14.197266 C 25.430351 14.22625 25.669637 14.257734 25.898438 14.302734 C 26.000357 14.322719 26.112139 14.330498 26.210938 14.353516 C 26.436618 14.404514 26.667279 14.468556 26.886719 14.535156 C 26.956398 14.55716 27.024071 14.590282 27.09375 14.613281 C 27.344389 14.69528 27.579946 14.7742 27.822266 14.875 C 27.847211 14.885984 27.876473 14.890398 27.900391 14.900391 C 29.35431 15.525391 30.621908 16.504684 31.617188 17.708984 C 31.623388 17.718977 31.638295 17.727359 31.644531 17.734375 C 33.044371 19.438875 33.879819 21.60121 33.880859 23.974609 L 31.279297 23.974609 L 35.439453 30.214844 L 39.599609 23.974609 L 37 23.974609 C 36.998997 21.247685 36.154332 18.735078 34.712891 16.642578 C 34.692091 16.606578 34.684076 16.570109 34.660156 16.537109 C 34.481276 16.28131 34.282371 16.049747 34.087891 15.810547 C 34.065011 15.781547 34.033685 15.736031 34.009766 15.707031 C 32.691046 14.106431 31.051028 12.874406 29.173828 12.066406 C 29.121828 12.043406 29.069578 12.010281 29.017578 11.988281 C 28.718058 11.864481 28.416302 11.753391 28.107422 11.650391 C 27.996142 11.613391 27.882891 11.580875 27.769531 11.546875 C 27.500171 11.464875 27.2131 11.401291 26.9375 11.337891 C 26.785659 11.302883 26.650012 11.264373 26.496094 11.234375 C 26.420175 11.220379 26.336599 11.194641 26.261719 11.181641 C 26.055799 11.145641 25.844592 11.130516 25.638672 11.103516 C 25.496192 11.086508 25.366176 11.066738 25.222656 11.052734 C 24.877375 11.020738 24.524841 11.006002 24.181641 11 L 24 11 L 23.974609 11 z M 24 16.685547 C 21.297799 16.685547 19.107422 18.869616 19.107422 21.5625 C 19.107422 21.713069 19.113524 21.860725 19.126953 22.007812 C 19.749792 21.721471 20.444843 21.5625 21.175781 21.5625 C 21.518058 21.5625 21.851441 21.597434 22.173828 21.664062 C 22.171937 21.630259 22.171875 21.596757 22.171875 21.5625 C 22.171875 20.555714 22.98973 19.738281 24 19.738281 C 25.01027 19.738281 25.828125 20.555714 25.828125 21.5625 C 25.828125 21.596764 25.828078 21.630274 25.826172 21.664062 C 26.148609 21.597438 26.481942 21.5625 26.824219 21.5625 C 27.555157 21.5625 28.250209 21.721473 28.873047 22.007812 C 28.886441 21.860723 28.892578 21.713071 28.892578 21.5625 C 28.892578 18.869616 26.702201 16.685547 24 16.685547 z M 28.873047 22.007812 C 28.775445 23.079849 28.328893 24.052192 27.648438 24.810547 C 28.244743 25.110924 28.654297 25.726147 28.654297 26.4375 C 28.654297 27.444286 27.834489 28.259766 26.824219 28.259766 C 26.454587 28.259766 26.109942 28.150764 25.822266 27.962891 C 25.491728 28.964075 24.847686 29.822914 24.001953 30.419922 C 24.799761 30.982848 25.772303 31.314453 26.824219 31.314453 C 29.52642 31.314453 31.716797 29.130384 31.716797 26.4375 C 31.716797 24.47331 30.552394 22.780197 28.873047 22.007812 z M 19.126953 22.007812 C 17.447606 22.780197 16.283203 24.47331 16.283203 26.4375 C 16.283203 29.130384 18.47358 31.314453 21.175781 31.314453 C 22.227697 31.314453 23.200239 30.982847 23.998047 30.419922 C 23.152314 29.822914 22.508272 28.964075 22.177734 27.962891 C 21.890057 28.150764 21.545413 28.259766 21.175781 28.259766 C 20.165511 28.259766 19.345703 27.444286 19.345703 26.4375 C 19.345703 25.726147 19.755257 25.110925 20.351562 24.810547 C 19.671107 24.052191 19.224555 23.079849 19.126953 22.007812 z M 12.560547 17.759766 L 8.4003906 24 L 11 24 C 11 26.7352 11.865733 29.260823 13.314453 31.357422 C 13.332134 31.386477 13.345477 31.406563 13.365234 31.435547 C 13.514996 31.64974 13.672785 31.857746 13.833984 32.060547 C 13.894306 32.137543 13.953227 32.220016 14.015625 32.294922 C 14.252747 32.582922 14.510571 32.83541 14.769531 33.099609 C 14.794476 33.125476 14.798327 33.153746 14.822266 33.177734 C 15.691706 34.048134 16.690645 34.802074 17.759766 35.388672 C 17.787829 35.40568 17.807734 35.423437 17.837891 35.439453 C 18.14573 35.604855 18.452078 35.741427 18.773438 35.882812 C 18.853516 35.916828 18.952083 35.95132 19.033203 35.986328 C 19.307763 36.099714 19.581314 36.204257 19.865234 36.298828 C 19.999395 36.34482 20.119621 36.385746 20.255859 36.427734 C 20.504419 36.501719 20.779316 36.576412 21.035156 36.636719 C 21.204675 36.675731 21.356657 36.707246 21.529297 36.740234 C 21.601056 36.754053 21.66756 36.780957 21.738281 36.792969 C 21.979563 36.834957 22.225517 36.8675 22.466797 36.896484 C 22.554157 36.906406 22.639202 36.913017 22.726562 36.921875 C 23.160242 36.963863 23.59379 37 24.025391 37 C 26.66803 37 29.250811 36.184364 31.462891 34.634766 C 32.16801 34.139762 32.345563 33.155318 31.851562 32.449219 C 31.356522 31.742017 30.372049 31.590938 29.667969 32.085938 C 27.948849 33.290237 25.952564 33.881515 23.896484 33.853516 C 23.625046 33.853516 23.356084 33.853991 23.089844 33.828125 C 22.980643 33.817141 22.861154 33.788395 22.751953 33.775391 C 22.541874 33.747398 22.333786 33.711879 22.128906 33.671875 C 22.003066 33.647781 21.887432 33.622734 21.763672 33.59375 C 21.562951 33.546766 21.361536 33.495504 21.166016 33.4375 C 21.071377 33.408445 20.974459 33.390379 20.880859 33.359375 C 20.655179 33.283371 20.421525 33.191133 20.203125 33.099609 C 20.153207 33.079767 20.097708 33.07069 20.048828 33.048828 C 19.792987 32.936541 19.564713 32.815578 19.320312 32.683594 C 19.308868 32.673672 19.279019 32.664227 19.267578 32.658203 C 18.440778 32.203802 17.69477 31.63115 17.03125 30.96875 C 17.020833 30.957766 17.017304 30.953453 17.005859 30.941406 C 16.799951 30.734258 16.595403 30.51867 16.408203 30.292969 C 16.368683 30.244971 16.316864 30.185517 16.277344 30.136719 C 14.926384 28.446718 14.119141 26.3264 14.119141 24 L 16.720703 24 L 12.560547 17.759766 z M 24 19.957031 C 23.109771 19.957031 22.392578 20.673111 22.392578 21.5625 C 22.392578 22.451888 23.109771 23.166016 24 23.166016 C 24.890229 23.166016 25.607422 22.451888 25.607422 21.5625 C 25.607422 20.673111 24.890229 19.957031 24 19.957031 z M 21.175781 24.832031 C 20.285553 24.832031 19.568359 25.548112 19.568359 26.4375 C 19.568359 27.326889 20.285553 28.042969 21.175781 28.042969 C 22.066009 28.042969 22.783203 27.326889 22.783203 26.4375 C 22.783203 25.548112 22.066009 24.832031 21.175781 24.832031 z M 26.824219 24.832031 C 25.933991 24.832031 25.216797 25.548112 25.216797 26.4375 C 25.216797 27.326889 25.933991 28.042969 26.824219 28.042969 C 27.714447 28.042969 28.431641 27.326889 28.431641 26.4375 C 28.431641 25.548112 27.714447 24.832031 26.824219 24.832031 z "
     transform="scale(0.28222223,0.28222223)"
     id="path18" />
</svg>
