<?xml version="1.0" encoding="UTF-8" standalone="no"?>
<!-- Created with Inkscape (http://www.inkscape.org/) -->

<svg
   xmlns:dc="http://purl.org/dc/elements/1.1/"
   xmlns:cc="http://creativecommons.org/ns#"
   xmlns:rdf="http://www.w3.org/1999/02/22-rdf-syntax-ns#"
   xmlns:svg="http://www.w3.org/2000/svg"
   xmlns="http://www.w3.org/2000/svg"
   xmlns:xlink="http://www.w3.org/1999/xlink"
   xmlns:sodipodi="http://sodipodi.sourceforge.net/DTD/sodipodi-0.dtd"
   xmlns:inkscape="http://www.inkscape.org/namespaces/inkscape"
   width="48"
   height="48"
   id="svg2"
   version="1.1"
   inkscape:version="0.48+devel r12923"
   sodipodi:docname="config-users.svg">
  <defs
     id="defs4">
    <linearGradient
       inkscape:collect="always"
       id="linearGradient7161">
      <stop
         style="stop-color:#dedede;stop-opacity:1"
         offset="0"
         id="stop7163" />
      <stop
         style="stop-color:#f0f0f0;stop-opacity:1"
         offset="1"
         id="stop7165" />
    </linearGradient>
    <linearGradient
       gradientTransform="translate(1.3867187e-6,9.5935547e-5)"
       inkscape:collect="always"
       xlink:href="#linearGradient7161"
       id="linearGradient7167"
       x1="29.135878"
       y1="1049.4602"
       x2="29.135878"
       y2="1007.4396"
       gradientUnits="userSpaceOnUse" />
  </defs>
  <sodipodi:namedview
     id="base"
     pagecolor="#ffffff"
     bordercolor="#666666"
     borderopacity="1.0"
     inkscape:pageopacity="0.0"
     inkscape:pageshadow="2"
     inkscape:zoom="6.4233331"
     inkscape:cx="26.620918"
     inkscape:cy="23.605542"
     inkscape:document-units="px"
     inkscape:current-layer="layer1"
     showgrid="false"
     inkscape:window-width="1366"
     inkscape:window-height="669"
     inkscape:window-x="0"
     inkscape:window-y="26"
     inkscape:window-maximized="1"
     showguides="false">
    <inkscape:grid
       type="xygrid"
       id="grid3850" />
  </sodipodi:namedview>
  <metadata
     id="metadata7">
    <rdf:RDF>
      <cc:Work
         rdf:about="">
        <dc:format>image/svg+xml</dc:format>
        <dc:type
           rdf:resource="http://purl.org/dc/dcmitype/StillImage" />
        <dc:title />
      </cc:Work>
    </rdf:RDF>
  </metadata>
  <g
     inkscape:label="Capa 1"
     inkscape:groupmode="layer"
     id="layer1"
     transform="translate(0,-1004.3622)">
    <rect
       style="fill:#000000;fill-opacity:0.01960784;stroke:none"
       id="rect5263"
       width="44.399963"
       height="44.399963"
       x="1.8000183"
       y="1006.1622"
       ry="6.2786646" />
    <rect
       ry="6.1938181"
       y="1006.4623"
       x="2.1000061"
       height="43.799973"
       width="43.799973"
       id="rect5261"
       style="fill:#000000;fill-opacity:0.03921569;stroke:none" />
    <rect
       style="fill:#000000;fill-opacity:0.07843137;stroke:none"
       id="rect5259"
       width="43.199982"
       height="43.199982"
       x="2.3999939"
       y="1006.7625"
       ry="6.1089716" />
    <rect
       ry="6.0241251"
       y="1007.0624"
       x="2.7000122"
       height="42.599991"
       width="42.599991"
       id="rect5257"
       style="fill:#000000;fill-opacity:0.15686275;stroke:none" />
    <rect
       style="fill:url(#linearGradient7167);fill-opacity:1;stroke:none"
       id="rect5237"
       width="42"
       height="42"
       x="3"
       y="1007.3622"
       ry="5.9392786" />
    <path
       inkscape:connector-curvature="0"
       style="fill:#000000;fill-opacity:0.11764706;stroke:none"
       d="m 3.0000014,1040.9247 0,2.5 c 0,3.2904 2.64714,5.9375 5.9375,5.9375 l 30.1249996,0 c 3.29036,0 5.9375,-2.6471 5.9375,-5.9375 l 0,-2.5 c 0,3.2904 -2.64714,5.9375 -5.9375,5.9375 l -30.1249996,0 c -3.29036,0 -5.9375,-2.6471 -5.9375,-5.9375 z"
       id="rect5265" />
    <path
       inkscape:connector-curvature="0"
       style="fill:#000000;fill-opacity:0.09803922;stroke:none"
       d="m 3.0000014,1042.9247 0,0.5 c 0,3.2904 2.64714,5.9375 5.9375,5.9375 l 30.1249996,0 c 3.29036,0 5.9375,-2.6471 5.9375,-5.9375 l 0,-0.5 c 0,3.2904 -2.64714,5.9375 -5.9375,5.9375 l -30.1249996,0 c -3.29036,0 -5.9375,-2.6471 -5.9375,-5.9375 z"
       id="path5252" />
    <path
       inkscape:connector-curvature="0"
       id="path3286-2"
       d="m 23.996609,1015.3622 c -3.630531,10e-5 -6.929943,3.3033 -6.929943,6.9332 -1e-6,1.6066 0.647259,3.1484 1.682551,4.369 l 0,0.9226 c -1.463034,0.6456 -2.815083,1.5447 -3.945703,2.676 -2.404949,2.4065 -3.803515,5.79 -3.803515,9.1932 l 0,1.906 0.160807,0 2.329167,0 1.176431,0 5.000262,0 1.733336,0 5.2,0 1.733329,0 5.000254,0 1.176436,0 2.32917,0 0.160811,0 0,-1.906 c 0,-3.4034 -1.402272,-6.7867 -3.810288,-9.1932 -1.129882,-1.129 -2.479788,-2.0271 -3.940624,-2.6728 l 0,-0.9274 c 1.035749,-1.2204 1.684241,-2.7612 1.684241,-4.3674 0,-3.6302 -3.306186,-6.9334 -6.936722,-6.9332 z m 0.0013,3.4668 c 1.815281,-10e-5 3.468361,1.6513 3.468361,3.4664 0,1.1969 -0.723541,2.3123 -1.733329,2.9403 0,3.4786 -0.346814,3.479 2.699866,5.7942 0.847431,0.442 1.628913,1.0079 2.30547,1.6843 1.395589,1.3945 2.321619,3.2378 2.652482,5.1812 l -5.05782,0 0,-2.6 -1.733342,0 0,2.6 -5.199986,0 0,-2.6 -1.733335,0 0,2.6 -5.057813,0 c 0.330035,-1.9433 1.253597,-3.7867 2.647396,-5.1812 0.676913,-0.6773 1.458914,-1.2453 2.307161,-1.6879 3.087021,-2.3128 2.703261,-2.312 2.703261,-5.7906 -1.009475,-0.6279 -1.733339,-1.7432 -1.733339,-2.9403 0,-1.815 1.64971,-3.4664 3.464965,-3.4664 z"
       style="fill:#000000;fill-opacity:0.49803922;fill-rule:evenodd;stroke:none" />
  </g>
</svg>
