<?xml version="1.0" encoding="UTF-8" standalone="no"?>
<!-- Created with Inkscape (http://www.inkscape.org/) -->

<svg
   xmlns:dc="http://purl.org/dc/elements/1.1/"
   xmlns:cc="http://creativecommons.org/ns#"
   xmlns:rdf="http://www.w3.org/1999/02/22-rdf-syntax-ns#"
   xmlns:svg="http://www.w3.org/2000/svg"
   xmlns="http://www.w3.org/2000/svg"
   xmlns:xlink="http://www.w3.org/1999/xlink"
   xmlns:sodipodi="http://sodipodi.sourceforge.net/DTD/sodipodi-0.dtd"
   xmlns:inkscape="http://www.inkscape.org/namespaces/inkscape"
   width="48"
   height="48"
   id="svg2"
   version="1.1"
   inkscape:version="0.91+devel r"
   sodipodi:docname="desktop-enviroment-mate.svg">
  <defs
     id="defs4">
    <linearGradient
       id="linearGradient4708"
       inkscape:collect="always">
      <stop
         id="stop4710"
         offset="0"
         style="stop-color:#47b73d;stop-opacity:1" />
      <stop
         id="stop4712"
         offset="1"
         style="stop-color:#ade355;stop-opacity:1" />
    </linearGradient>
    <linearGradient
       gradientUnits="userSpaceOnUse"
       y2="1007.4026"
       x2="27.568569"
       y1="1049.1152"
       x1="27.568569"
       id="linearGradient7156"
       xlink:href="#linearGradient4708"
       inkscape:collect="always"
       gradientTransform="translate(0,5.4819922e-5)" />
  </defs>
  <sodipodi:namedview
     id="base"
     pagecolor="#ffffff"
     bordercolor="#666666"
     borderopacity="1.0"
     inkscape:pageopacity="0.0"
     inkscape:pageshadow="2"
     inkscape:zoom="6.3396372"
     inkscape:cx="7.959498"
     inkscape:cy="26.243109"
     inkscape:document-units="px"
     inkscape:current-layer="layer1"
     showgrid="false"
     inkscape:window-width="1366"
     inkscape:window-height="670"
     inkscape:window-x="-4"
     inkscape:window-y="29"
     inkscape:window-maximized="1">
    <inkscape:grid
       type="xygrid"
       id="grid3850" />
  </sodipodi:namedview>
  <metadata
     id="metadata7">
    <rdf:RDF>
      <cc:Work
         rdf:about="">
        <dc:format>image/svg+xml</dc:format>
        <dc:type
           rdf:resource="http://purl.org/dc/dcmitype/StillImage" />
        <dc:title />
      </cc:Work>
    </rdf:RDF>
  </metadata>
  <g
     inkscape:label="Capa 1"
     inkscape:groupmode="layer"
     id="layer1"
     transform="translate(0,-1004.3622)">
    <rect
       style="fill:#000000;fill-opacity:0.01960784;stroke:none"
       id="rect5263-7"
       width="44.399963"
       height="44.399963"
       x="1.8000183"
       y="1006.1622"
       ry="6.2786646" />
    <rect
       ry="6.1938181"
       y="1006.4623"
       x="2.1000061"
       height="43.799973"
       width="43.799973"
       id="rect5261-4"
       style="fill:#000000;fill-opacity:0.03921569;stroke:none" />
    <rect
       style="fill:#000000;fill-opacity:0.07843137;stroke:none"
       id="rect5259-5"
       width="43.199982"
       height="43.199982"
       x="2.3999939"
       y="1006.7625"
       ry="6.1089716" />
    <rect
       ry="6.0241251"
       y="1007.0623"
       x="2.700012"
       height="42.599991"
       width="42.599991"
       id="rect5257-2"
       style="fill:#000000;fill-opacity:0.15686275;stroke:none" />
    <rect
       style="fill:url(#linearGradient7156);fill-opacity:1;stroke:none"
       id="rect5237-6"
       width="42"
       height="42"
       x="2.9999998"
       y="1007.3622"
       ry="5.9392786" />
    <path
       inkscape:connector-curvature="0"
       style="fill:#000000;fill-opacity:0.11764706;stroke:none"
       d="m 2.9999991,1040.9247 0,2.5 c 0,3.2904 2.64714,5.9375 5.9374997,5.9375 l 30.1250002,0 c 3.29036,0 5.9375,-2.6471 5.9375,-5.9375 l 0,-2.5 c 0,3.2904 -2.64714,5.9375 -5.9375,5.9375 l -30.1250002,0 c -3.2903597,0 -5.9374997,-2.6471 -5.9374997,-5.9375 z"
       id="rect5265-8" />
    <path
       inkscape:connector-curvature="0"
       style="fill:#000000;fill-opacity:0.09803922;stroke:none"
       d="m 2.9999991,1042.9247 0,0.5 c 0,3.2904 2.64714,5.9375 5.9374997,5.9375 l 30.1250002,0 c 3.29036,0 5.9375,-2.6471 5.9375,-5.9375 l 0,-0.5 c 0,3.2904 -2.64714,5.9375 -5.9375,5.9375 l -30.1250002,0 c -3.2903597,0 -5.9374997,-2.6471 -5.9374997,-5.9375 z"
       id="path5252-8" />
    <g
       transform="matrix(0.36107049,0,0,-0.36107049,-94.767574,1006.746)"
       id="g312"
       style="fill:#000000;fill-opacity:0.49803922" />
    <g
       transform="matrix(0.36107049,0,0,-0.36107049,-83.412194,995.38997)"
       id="g316"
       style="fill:#000000;fill-opacity:0.49803922" />
    <path
       id="path4203-2"
       d="m 24.044926,1015.3622 c -4.123153,0 -7.780846,1.9551 -10.143892,4.976 l 1.619387,1.0323 c 2.020985,-2.4837 5.108206,-4.0662 8.549399,-4.0662 6.084599,0 11.023941,4.9543 11.023941,11.0601 0,6.1014 -4.939342,11.0557 -11.023941,11.0557 -3.429282,0 -6.505681,-1.5738 -8.528836,-4.0445 l -1.619378,1.0322 c 2.371707,3.0123 6.017481,4.9544 10.143884,4.9544 7.142183,0 12.93451,-5.822 12.93451,-12.9978 0,-7.1716 -5.796658,-12.9935 -12.93451,-12.9935 M 11,1020.778 l 0,15.1641 13.142342,-7.6579 m -0.09742,-7.8441 c -2.32516,0 -4.414344,1.0116 -5.864857,2.6146 l 1.678916,1.0497 c 1.078147,-1.0703 2.557894,-1.7266 4.190271,-1.7266 3.302633,0 5.982845,2.7079 5.982845,6.0418 0,3.3383 -2.676962,6.0462 -5.982845,6.0462 -1.661602,0 -3.163001,-0.6813 -4.245479,-1.7851 l -1.619378,1.0323 c 1.450513,1.603 3.535367,2.6147 5.864857,2.6147 4.3732,0 7.919398,-3.5625 7.919398,-7.946 0,-4.3878 -3.547278,-7.946 -7.919398,-7.946 m -0.0042,0"
       inkscape:connector-curvature="0"
       style="fill:#000000;fill-opacity:0.49803922;fill-rule:evenodd;stroke:none" />
  </g>
</svg>
