<?xml version="1.0" encoding="UTF-8" standalone="no"?>
<!-- Created with Inkscape (http://www.inkscape.org/) -->

<svg
   xmlns:dc="http://purl.org/dc/elements/1.1/"
   xmlns:cc="http://creativecommons.org/ns#"
   xmlns:rdf="http://www.w3.org/1999/02/22-rdf-syntax-ns#"
   xmlns:svg="http://www.w3.org/2000/svg"
   xmlns="http://www.w3.org/2000/svg"
   xmlns:xlink="http://www.w3.org/1999/xlink"
   xmlns:sodipodi="http://sodipodi.sourceforge.net/DTD/sodipodi-0.dtd"
   xmlns:inkscape="http://www.inkscape.org/namespaces/inkscape"
   width="48"
   height="48"
   id="svg944"
   version="1.1"
   inkscape:version="0.49 r12742"
   sodipodi:docname="eagle.svg">
  <defs
     id="defs946">
    <linearGradient
       gradientUnits="userSpaceOnUse"
       y2="1007.3821"
       x2="28.399813"
       y1="1049.3252"
       x1="28.399813"
       id="linearGradient6131"
       xlink:href="#linearGradient6125"
       inkscape:collect="always"
       gradientTransform="translate(1640.5564,-640.01495)" />
    <linearGradient
       id="linearGradient6125"
       inkscape:collect="always">
      <stop
         id="stop6127"
         offset="0"
         style="stop-color:#f81654;stop-opacity:1" />
      <stop
         id="stop6129"
         offset="1"
         style="stop-color:#fd668f;stop-opacity:1" />
    </linearGradient>
  </defs>
  <sodipodi:namedview
     id="base"
     pagecolor="#ffffff"
     bordercolor="#666666"
     borderopacity="1.0"
     inkscape:pageopacity="0.0"
     inkscape:pageshadow="2"
     inkscape:zoom="4.1232178"
     inkscape:cx="-35.880208"
     inkscape:cy="36.945746"
     inkscape:document-units="px"
     inkscape:current-layer="layer1"
     showgrid="false"
     width="0px"
     height="0px"
     fit-margin-top="0"
     fit-margin-left="0"
     fit-margin-right="0"
     fit-margin-bottom="0"
     inkscape:window-width="1366"
     inkscape:window-height="718"
     inkscape:window-x="-2"
     inkscape:window-y="23"
     inkscape:window-maximized="1">
    <inkscape:grid
       type="xygrid"
       id="grid1823"
       empspacing="5"
       visible="true"
       enabled="true"
       snapvisiblegridlinesonly="true" />
  </sodipodi:namedview>
  <metadata
     id="metadata949">
    <rdf:RDF>
      <cc:Work
         rdf:about="">
        <dc:format>image/svg+xml</dc:format>
        <dc:type
           rdf:resource="http://purl.org/dc/dcmitype/StillImage" />
        <dc:title />
      </cc:Work>
    </rdf:RDF>
  </metadata>
  <g
     inkscape:label="Capa 1"
     inkscape:groupmode="layer"
     id="layer1"
     transform="translate(-1640.5564,-364.34714)">
    <rect
       style="fill:#000000;fill-opacity:0.01960784;stroke:none"
       id="rect5263"
       width="44.399963"
       height="44.399963"
       x="1642.3564"
       y="366.14716"
       ry="6.2786646" />
    <rect
       ry="6.1938181"
       y="366.44727"
       x="1642.6565"
       height="43.799973"
       width="43.799973"
       id="rect5261"
       style="fill:#000000;fill-opacity:0.03921569;stroke:none" />
    <rect
       style="fill:#000000;fill-opacity:0.07843137;stroke:none"
       id="rect5259"
       width="43.199982"
       height="43.199982"
       x="1642.9564"
       y="366.74731"
       ry="6.1089716" />
    <rect
       ry="6.0241251"
       y="367.04736"
       x="1643.2565"
       height="42.599991"
       width="42.599991"
       id="rect5257"
       style="fill:#000000;fill-opacity:0.15686275;stroke:none" />
    <rect
       style="fill:url(#linearGradient6131);fill-opacity:1;stroke:none"
       id="rect5237"
       width="42"
       height="42"
       x="1643.5564"
       y="367.34717"
       ry="5.9392786" />
    <path
       inkscape:connector-curvature="0"
       style="fill:#000000;fill-opacity:0.11764706;stroke:none"
       d="m 1643.5564,400.90968 0,2.5 c 0,3.2904 2.6471,5.9375 5.9375,5.9375 l 30.125,0 c 3.2903,0 5.9375,-2.6471 5.9375,-5.9375 l 0,-2.5 c 0,3.2904 -2.6472,5.9375 -5.9375,5.9375 l -30.125,0 c -3.2904,0 -5.9375,-2.6471 -5.9375,-5.9375 z"
       id="rect5265" />
    <path
       inkscape:connector-curvature="0"
       style="fill:#000000;fill-opacity:0.09803922;stroke:none"
       d="m 1643.5564,402.90968 0,0.5 c 0,3.2904 2.6471,5.9375 5.9375,5.9375 l 30.125,0 c 3.2903,0 5.9375,-2.6471 5.9375,-5.9375 l 0,-0.5 c 0,3.2904 -2.6472,5.9375 -5.9375,5.9375 l -30.125,0 c -3.2904,0 -5.9375,-2.6471 -5.9375,-5.9375 z"
       id="path5252" />
    <path
       inkscape:connector-curvature="0"
       id="path4264-5"
       d="m 1677.3452,375.35029 c 0,-0.0365 -0.4091,0.24767 -0.9096,0.63127 -4.7072,3.60852 -10.5911,6.76431 -13.8855,7.44784 l -0.6212,0.12905 -0.2355,0.62863 c -0.8204,2.19255 -3.1527,3.7474 -6.8093,4.53913 -0.5777,0.1251 -1.1974,0.30352 -1.377,0.39636 -0.5551,0.2868 -1.1999,0.94304 -1.4914,1.518 -0.2355,0.46431 -0.272,0.66459 -0.2364,1.29402 0.03,0.52975 0.1018,0.81034 0.2491,0.97292 0.198,0.21868 0.6916,0.33338 0.5668,0.13167 -0.098,-0.15864 0.3666,-0.66432 0.826,-0.89855 0.7439,-0.37926 1.8996,-0.55852 3.1088,-0.54202 l 0.022,-0.0315 c 0.2156,0.0142 0.4256,0.0349 0.6326,0.0591 0.9055,0.0652 1.8056,0.2386 2.5528,0.52234 0.4018,0.15257 0.742,0.33558 1.0181,0.54158 1.031,0.53679 1.8982,1.23521 2.6268,2.04165 0,-0.0269 0,-0.0524 0,-0.0796 0.01,-0.53018 0.023,-0.96395 0.04,-0.96417 0.017,-2.3e-4 0.083,0.13558 0.1458,0.30228 0.1538,0.40368 0.2339,0.82861 0.249,1.25595 1.3828,1.74565 2.2006,3.89623 2.6807,5.97228 0.6399,-1.10812 1.2461,-2.57362 1.2489,-3.17205 0,-0.88591 0.6181,0.85304 0.8119,2.29932 l 0.1339,1.00135 0.243,-0.60633 c 0.4061,-1.01384 0.5968,-2.07396 0.5979,-3.32255 0,-0.64541 -0.032,-1.27767 -0.073,-1.40513 -0.04,-0.12747 -0.029,-0.23186 0.024,-0.23186 0.133,0 1.1907,1.07712 1.4615,1.48826 0.2557,0.38793 0.2752,0.21852 0.065,-0.56914 -0.5549,-2.08309 -2.1466,-4.04564 -4.4179,-5.44732 l -0.8777,-0.54157 0.4369,-0.0131 c 0.24,-0.007 0.5854,-0.0467 0.7673,-0.0879 l 0.331,-0.0748 -0.4412,-0.15005 -0.4413,-0.15048 0.7069,-0.14437 c 0.3889,-0.0793 1.0593,-0.31086 1.4892,-0.51446 l 0.7813,-0.3701 -0.9923,0.0393 -0.9928,0.0393 0.7722,-0.2603 c 1.0742,-0.36235 3.1352,-1.44382 3.0032,-1.57575 -0.019,-0.0187 -0.4044,0.0623 -0.8571,0.17981 -1.3306,0.34531 -1.4711,0.26969 -0.4311,-0.23229 1.0123,-0.48868 2.4371,-1.40813 3.1372,-2.0246 l 0.4412,-0.38847 -0.8268,0.37272 c -0.7025,0.31659 -2.3058,0.83688 -2.5791,0.83688 -0.046,0 0.2364,-0.16674 0.6276,-0.37054 1.1202,-0.58353 2.1325,-1.35632 3.3846,-2.58279 l 1.1582,-1.13478 -0.9371,0.49477 c -0.8865,0.46767 -2.7573,1.30765 -2.7573,1.23803 0,-0.0177 0.2359,-0.19894 0.524,-0.40247 1.1179,-0.78976 3.0972,-2.87642 4.2687,-4.5002 l 0.4254,-0.58927 -1.0431,0.81455 c -1.1137,0.87003 -3.3882,2.34458 -3.4782,2.25471 -0.03,-0.0297 0.081,-0.14262 0.246,-0.25067 0.487,-0.31892 2.6307,-2.7389 3.8091,-4.29985 0.6012,-0.79624 1.093,-1.47755 1.093,-1.51406 z"
       style="fill:#000000;fill-opacity:0.49803922" />
  </g>
</svg>
