<?xml version="1.0" encoding="UTF-8" standalone="no"?>
<!-- Created with Inkscape (http://www.inkscape.org/) -->

<svg
   xmlns:dc="http://purl.org/dc/elements/1.1/"
   xmlns:cc="http://creativecommons.org/ns#"
   xmlns:rdf="http://www.w3.org/1999/02/22-rdf-syntax-ns#"
   xmlns:svg="http://www.w3.org/2000/svg"
   xmlns="http://www.w3.org/2000/svg"
   xmlns:xlink="http://www.w3.org/1999/xlink"
   xmlns:sodipodi="http://sodipodi.sourceforge.net/DTD/sodipodi-0.dtd"
   xmlns:inkscape="http://www.inkscape.org/namespaces/inkscape"
   width="48"
   height="48"
   id="svg2"
   version="1.1"
   inkscape:version="0.91pre2 r"
   sodipodi:docname="face-smile.svg"
   inkscape:export-filename="/home/uri/workspace/NitruxforAndroid/res/drawable-xhdpi/google_news.png"
   inkscape:export-xdpi="180"
   inkscape:export-ydpi="180">
  <defs
     id="defs4">
    <linearGradient
       inkscape:collect="always"
       id="linearGradient6772">
      <stop
         style="stop-color:#fac602;stop-opacity:1"
         offset="0"
         id="stop6774" />
      <stop
         style="stop-color:#fad23d;stop-opacity:1"
         offset="1"
         id="stop6776" />
    </linearGradient>
    <linearGradient
       gradientTransform="translate(7.4169922e-7,1.8223945e-4)"
       inkscape:collect="always"
       xlink:href="#linearGradient6772"
       id="linearGradient6778"
       x1="40.915409"
       y1="1049.3521"
       x2="40.915409"
       y2="1007.3218"
       gradientUnits="userSpaceOnUse" />
  </defs>
  <sodipodi:namedview
     id="base"
     pagecolor="#ffffff"
     bordercolor="#666666"
     borderopacity="1.0"
     inkscape:pageopacity="0.0"
     inkscape:pageshadow="2"
     inkscape:zoom="9.1549336"
     inkscape:cx="-2.0725083"
     inkscape:cy="18.589275"
     inkscape:document-units="px"
     inkscape:current-layer="layer1"
     showgrid="false"
     inkscape:window-width="1366"
     inkscape:window-height="672"
     inkscape:window-x="-4"
     inkscape:window-y="25"
     inkscape:window-maximized="1">
    <inkscape:grid
       type="xygrid"
       id="grid3850" />
  </sodipodi:namedview>
  <metadata
     id="metadata7">
    <rdf:RDF>
      <cc:Work
         rdf:about="">
        <dc:format>image/svg+xml</dc:format>
        <dc:type
           rdf:resource="http://purl.org/dc/dcmitype/StillImage" />
        <dc:title />
      </cc:Work>
    </rdf:RDF>
  </metadata>
  <g
     inkscape:label="Capa 1"
     inkscape:groupmode="layer"
     id="layer1"
     transform="translate(0,-1004.3622)">
    <rect
       style="fill:#000000;fill-opacity:0.01960784;stroke:none"
       id="rect5263"
       width="44.399963"
       height="44.399963"
       x="1.8000183"
       y="1006.1622"
       ry="6.2786646" />
    <rect
       ry="6.1938181"
       y="1006.4625"
       x="2.1000061"
       height="43.799973"
       width="43.799973"
       id="rect5261"
       style="fill:#000000;fill-opacity:0.03921569;stroke:none" />
    <rect
       style="fill:#000000;fill-opacity:0.07843137;stroke:none"
       id="rect5259"
       width="43.199982"
       height="43.199982"
       x="2.3999939"
       y="1006.7626"
       ry="6.1089716" />
    <rect
       ry="6.0241251"
       y="1007.0624"
       x="2.7000122"
       height="42.599991"
       width="42.599991"
       id="rect5257"
       style="fill:#000000;fill-opacity:0.15686275;stroke:none" />
    <rect
       style="fill:url(#linearGradient6778);fill-opacity:1;stroke:none"
       id="rect5237"
       width="42"
       height="42"
       x="3"
       y="1007.3624"
       ry="5.9392786" />
    <path
       inkscape:connector-curvature="0"
       style="fill:#000000;fill-opacity:0.11764706;stroke:none"
       d="m 2.9999997,1040.9248 0,2.5 c 0,3.2904 2.64714,5.9375 5.9375,5.9375 l 30.1250003,0 c 3.29036,0 5.9375,-2.6471 5.9375,-5.9375 l 0,-2.5 c 0,3.2904 -2.64714,5.9375 -5.9375,5.9375 l -30.1250003,0 c -3.29036,0 -5.9375,-2.6471 -5.9375,-5.9375 z"
       id="rect5265" />
    <path
       inkscape:connector-curvature="0"
       style="fill:#000000;fill-opacity:0.09803922;stroke:none"
       d="m 2.9999997,1042.9248 0,0.5 c 0,3.2904 2.64714,5.9375 5.9375,5.9375 l 30.1250003,0 c 3.29036,0 5.9375,-2.6471 5.9375,-5.9375 l 0,-0.5 c 0,3.2904 -2.64714,5.9375 -5.9375,5.9375 l -30.1250003,0 c -3.29036,0 -5.9375,-2.6471 -5.9375,-5.9375 z"
       id="path5252" />
    <path
       style="fill:#1a1a1a;fill-opacity:0.4981035;stroke:none"
       d="M 17.824219 15.316406 C 15.428983 15.316406 13.5 17.24539 13.5 19.640625 C 13.5 22.03586 15.428983 23.962891 17.824219 23.962891 C 20.219454 23.962891 22.146484 22.03586 22.146484 19.640625 C 22.146484 17.24539 20.219454 15.316406 17.824219 15.316406 z M 30.175781 15.316406 C 27.780546 15.316406 25.853516 17.24539 25.853516 19.640625 C 25.853516 22.03586 27.780546 23.962891 30.175781 23.962891 C 32.571017 23.962891 34.5 22.03586 34.5 19.640625 C 34.5 17.24539 32.571017 15.316406 30.175781 15.316406 z M 18.544922 16.34375 A 1.652918 1.652918 0 0 1 20.197266 17.996094 A 1.652918 1.652918 0 0 1 18.544922 19.650391 A 1.652918 1.652918 0 0 1 16.892578 17.996094 A 1.652918 1.652918 0 0 1 18.544922 16.34375 z M 31.566406 16.34375 A 1.652918 1.652918 0 0 1 33.21875 17.996094 A 1.652918 1.652918 0 0 1 31.566406 19.650391 A 1.652918 1.652918 0 0 1 29.912109 17.996094 A 1.652918 1.652918 0 0 1 31.566406 16.34375 z M 15.947266 21.289062 A 0.58628887 0.58628887 0 0 1 16.533203 21.875 A 0.58628887 0.58628887 0 0 1 15.947266 22.462891 A 0.58628887 0.58628887 0 0 1 15.361328 21.875 A 0.58628887 0.58628887 0 0 1 15.947266 21.289062 z M 28.96875 21.289062 A 0.58628887 0.58628887 0 0 1 29.554688 21.875 A 0.58628887 0.58628887 0 0 1 28.96875 22.462891 A 0.58628887 0.58628887 0 0 1 28.382812 21.875 A 0.58628887 0.58628887 0 0 1 28.96875 21.289062 z M 20.939453 25.916016 C 20.602408 25.926016 20.331146 25.995741 20.117188 26.119141 C 19.699966 26.360041 19.513756 26.781294 19.554688 27.371094 C 19.587788 27.922494 19.809467 28.550794 20.210938 29.246094 C 20.834761 30.326594 21.639353 31.201988 22.636719 31.867188 C 23.766213 32.612887 24.814534 32.850172 25.783203 32.576172 C 25.908712 32.546172 26.011141 32.501413 26.107422 32.445312 C 26.7493 32.074714 26.816693 31.324181 26.310547 30.175781 L 26.310547 30.171875 C 27.418321 31.201175 28.284817 31.542997 28.923828 31.216797 C 29.594933 30.872097 29.717876 30.343737 29.316406 29.648438 C 29.026111 29.145537 28.495093 28.596378 27.71875 28.017578 C 27.78007 28.027578 27.830466 28.039687 27.853516 28.054688 C 27.921016 28.072688 27.976739 28.069922 28.019531 28.044922 C 28.062321 28.019922 28.07034 27.985266 28.0625 27.947266 C 28.0547 27.909266 28.020628 27.871516 27.953125 27.853516 C 27.417665 27.691916 27.076141 27.54645 26.923828 27.40625 C 26.81144 27.28565 26.64662 27.295316 26.443359 27.416016 C 26.347079 27.472016 26.316776 27.518766 26.347656 27.572266 C 26.360006 27.593266 26.381945 27.609906 26.421875 27.628906 C 26.827305 27.837006 27.248792 28.121222 27.685547 28.482422 C 28.174581 28.884722 28.524692 29.267994 28.728516 29.621094 C 28.963222 30.027594 28.931335 30.316994 28.621094 30.496094 C 28.578304 30.521094 28.534279 30.545406 28.474609 30.566406 C 27.922393 30.771106 27.326806 30.600813 26.664062 30.070312 C 26.158154 29.663513 25.71761 29.147844 25.359375 28.527344 C 25.254375 28.345444 25.019845 28.309744 24.859375 28.402344 C 24.741698 28.470344 24.712993 28.572772 24.787109 28.701172 C 24.817989 28.754172 24.871941 28.822506 24.947266 28.878906 C 25.214834 29.095206 25.472008 29.416784 25.712891 29.833984 C 25.953773 30.251184 26.088265 30.631397 26.125 30.966797 C 26.17122 31.367997 26.049633 31.6519 25.771484 31.8125 C 25.653807 31.8805 25.524492 31.926666 25.365234 31.947266 C 24.284178 32.100766 23.23169 31.809378 22.197266 31.080078 C 21.278097 30.426878 20.648083 29.634809 20.322266 28.724609 C 19.984096 27.793009 20.123659 27.143356 20.744141 26.785156 C 20.861818 26.717156 20.991767 26.671006 21.138672 26.628906 C 21.438658 26.555906 21.82034 26.648544 22.294922 26.902344 C 22.712705 27.131844 22.991388 27.36905 23.121094 27.59375 C 23.176684 27.68975 23.239567 27.724841 23.314453 27.681641 C 23.367943 27.650641 23.375582 27.589706 23.326172 27.503906 C 23.134701 27.172306 22.8101 26.831647 22.375 26.498047 C 21.847695 26.103547 21.37609 25.906416 20.939453 25.916016 z "
       transform="translate(0,1004.3622)"
       id="rect4435" />
  </g>
</svg>
