<?xml version="1.0" encoding="UTF-8" standalone="no"?>
<!-- Created with Inkscape (http://www.inkscape.org/) -->

<svg
   xmlns:dc="http://purl.org/dc/elements/1.1/"
   xmlns:cc="http://creativecommons.org/ns#"
   xmlns:rdf="http://www.w3.org/1999/02/22-rdf-syntax-ns#"
   xmlns:svg="http://www.w3.org/2000/svg"
   xmlns="http://www.w3.org/2000/svg"
   xmlns:xlink="http://www.w3.org/1999/xlink"
   xmlns:sodipodi="http://sodipodi.sourceforge.net/DTD/sodipodi-0.dtd"
   xmlns:inkscape="http://www.inkscape.org/namespaces/inkscape"
   width="48"
   height="48"
   id="svg2"
   version="1.1"
   inkscape:version="0.49 r12742"
   sodipodi:docname="fade-in.svg">
  <defs
     id="defs4">
    <linearGradient
       gradientTransform="translate(-1.262207e-7,3.7778125e-5)"
       inkscape:collect="always"
       xlink:href="#linearGradient6125"
       id="linearGradient4101"
       x1="29.109528"
       y1="1049.3851"
       x2="29.109528"
       y2="1007.3748"
       gradientUnits="userSpaceOnUse" />
    <linearGradient
       id="linearGradient6125"
       inkscape:collect="always">
      <stop
         id="stop6127"
         offset="0"
         style="stop-color:#f81654;stop-opacity:1" />
      <stop
         id="stop6129"
         offset="1"
         style="stop-color:#fd668f;stop-opacity:1" />
    </linearGradient>
  </defs>
  <sodipodi:namedview
     id="base"
     pagecolor="#ffffff"
     bordercolor="#666666"
     borderopacity="1.0"
     inkscape:pageopacity="0.0"
     inkscape:pageshadow="2"
     inkscape:zoom="2.875"
     inkscape:cx="-53.799473"
     inkscape:cy="11.952381"
     inkscape:document-units="px"
     inkscape:current-layer="layer1"
     showgrid="false"
     inkscape:window-width="1366"
     inkscape:window-height="718"
     inkscape:window-x="-2"
     inkscape:window-y="23"
     inkscape:window-maximized="1"
     showguides="false"
     borderlayer="true"
     inkscape:showpageshadow="false" />
  <metadata
     id="metadata7">
    <rdf:RDF>
      <cc:Work
         rdf:about="">
        <dc:format>image/svg+xml</dc:format>
        <dc:type
           rdf:resource="http://purl.org/dc/dcmitype/StillImage" />
        <dc:title />
      </cc:Work>
    </rdf:RDF>
  </metadata>
  <g
     inkscape:label="Capa 1"
     inkscape:groupmode="layer"
     id="layer1"
     transform="translate(0,-1004.3622)">
    <rect
       style="fill:#000000;fill-opacity:0.01960784;stroke:none"
       id="rect5263"
       width="44.399963"
       height="44.399963"
       x="1.8000183"
       y="1006.1622"
       ry="6.2786646" />
    <rect
       ry="6.1938181"
       y="1006.4622"
       x="2.1000137"
       height="43.799973"
       width="43.799973"
       id="rect5261"
       style="fill:#000000;fill-opacity:0.03921569;stroke:none" />
    <rect
       style="fill:#000000;fill-opacity:0.07843138;stroke:none"
       id="rect5259"
       width="43.199982"
       height="43.199982"
       x="2.4000092"
       y="1006.7622"
       ry="6.1089716" />
    <rect
       ry="6.0241251"
       y="1007.0622"
       x="2.7000046"
       height="42.599991"
       width="42.599991"
       id="rect5257"
       style="fill:#000000;fill-opacity:0.15686275;stroke:none" />
    <rect
       style="fill:url(#linearGradient4101);fill-opacity:1.0;stroke:none"
       id="rect5237-3"
       width="42"
       height="42"
       x="3"
       y="1007.3622"
       ry="5.9392786" />
    <path
       style="fill:#000000;fill-opacity:0.11764706;stroke:none"
       d="M 3 36.5625 L 3 39.0625 C 3 42.35286 5.6471397 45 8.9375 45 L 39.0625 45 C 42.35286 45 45 42.35286 45 39.0625 L 45 36.5625 C 45 39.85286 42.35286 42.5 39.0625 42.5 L 8.9375 42.5 C 5.6471397 42.5 3 39.85286 3 36.5625 z "
       id="rect5265"
       transform="translate(0,1004.3622)" />
    <path
       style="fill:#000000;fill-opacity:0.09803922;stroke:none"
       d="M 3 38.5625 L 3 39.0625 C 3 42.35286 5.6471397 45 8.9375 45 L 39.0625 45 C 42.35286 45 45 42.35286 45 39.0625 L 45 38.5625 C 45 41.8529 42.35286 44.5 39.0625 44.5 L 8.9375 44.5 C 5.6471397 44.5 3 41.8529 3 38.5625 z "
       transform="translate(0,1004.3622)"
       id="path5252" />
    <path
       style="fill:#000000"
       d=""
       id="path906"
       inkscape:connector-curvature="0" />
    <path
       style="font-size:40px;font-style:normal;font-variant:normal;font-weight:normal;font-stretch:normal;line-height:125%;letter-spacing:0px;word-spacing:0px;fill:#000000;fill-opacity:0.49803922;stroke:none;font-family:DejaVu Serif;-inkscape-font-specification:DejaVu Serif"
       d="m 13.359296,1015.3622 0,1.863 3.308939,0 0,9.4487 14.558013,0 0,-3.7194 -2.14166,0 0,3.2577 -8.881542,0 0,-8.7083 12.294348,0 0,3.6403 2.14331,0 0,-5.782 -21.281408,0 z m -7.0861085,12.1559 0,1.6882 35.4536245,0 0,-1.6882 -35.4536245,0 z m 10.3950475,2.5324 0,9.4652 -3.308939,0 0,1.8465 11.006715,0 0,-1.8465 -4.162965,0 0,-9.4652 -3.534811,0 z m 12.416354,0 0,1.5415 2.14166,0 0,-1.5415 -2.14166,0 z"
       id="path4161"
       inkscape:connector-curvature="0" />
  </g>
</svg>
