<?xml version="1.0" encoding="UTF-8" standalone="no"?>
<!-- Created with Inkscape (http://www.inkscape.org/) -->

<svg
   xmlns:dc="http://purl.org/dc/elements/1.1/"
   xmlns:cc="http://creativecommons.org/ns#"
   xmlns:rdf="http://www.w3.org/1999/02/22-rdf-syntax-ns#"
   xmlns:svg="http://www.w3.org/2000/svg"
   xmlns="http://www.w3.org/2000/svg"
   xmlns:xlink="http://www.w3.org/1999/xlink"
   xmlns:sodipodi="http://sodipodi.sourceforge.net/DTD/sodipodi-0.dtd"
   xmlns:inkscape="http://www.inkscape.org/namespaces/inkscape"
   width="48"
   height="48"
   id="svg5453"
   version="1.1"
   inkscape:version="0.91+devel r"
   sodipodi:docname="firestorm_icon.svg">
  <defs
     id="defs5455">
    <linearGradient
       id="linearGradient6125"
       inkscape:collect="always">
      <stop
         id="stop6127"
         offset="0"
         style="stop-color:#f81654;stop-opacity:1" />
      <stop
         id="stop6129"
         offset="1"
         style="stop-color:#fd668f;stop-opacity:1" />
    </linearGradient>
    <linearGradient
       gradientUnits="userSpaceOnUse"
       y2="1005.2214"
       x2="28.399813"
       y1="1047.2214"
       x1="28.399813"
       id="linearGradient6131"
       xlink:href="#linearGradient6125"
       inkscape:collect="always"
       gradientTransform="translate(380.93823,-502.42341)" />
  </defs>
  <sodipodi:namedview
     id="base"
     pagecolor="#ffffff"
     bordercolor="#666666"
     borderopacity="1.0"
     inkscape:pageopacity="0"
     inkscape:pageshadow="2"
     inkscape:zoom="5.6568543"
     inkscape:cx="-2.1971761"
     inkscape:cy="27.795049"
     inkscape:document-units="px"
     inkscape:current-layer="layer1"
     showgrid="true"
     fit-margin-top="0"
     fit-margin-left="0"
     fit-margin-right="0"
     fit-margin-bottom="0"
     inkscape:window-width="1366"
     inkscape:window-height="670"
     inkscape:window-x="-4"
     inkscape:window-y="29"
     inkscape:window-maximized="1"
     inkscape:showpageshadow="false"
     borderlayer="true"
     showguides="false">
    <inkscape:grid
       type="xygrid"
       id="grid4145" />
  </sodipodi:namedview>
  <metadata
     id="metadata5458">
    <rdf:RDF>
      <cc:Work
         rdf:about="">
        <dc:format>image/svg+xml</dc:format>
        <dc:type
           rdf:resource="http://purl.org/dc/dcmitype/StillImage" />
        <dc:title />
      </cc:Work>
    </rdf:RDF>
  </metadata>
  <g
     inkscape:label="Capa 1"
     inkscape:groupmode="layer"
     id="layer1"
     transform="translate(-384.57143,-499.798)">
    <rect
       style="fill:#000000;fill-opacity:0.01960784;stroke:none"
       id="rect5263"
       width="44.399963"
       height="44.399963"
       x="386.37146"
       y="501.59802"
       ry="6.2786646" />
    <rect
       ry="6.1938181"
       y="501.89813"
       x="386.67145"
       height="43.799973"
       width="43.799973"
       id="rect5261"
       style="fill:#000000;fill-opacity:0.03921569;stroke:none" />
    <rect
       style="fill:#000000;fill-opacity:0.07843137;stroke:none"
       id="rect5259"
       width="43.199982"
       height="43.199982"
       x="386.97144"
       y="502.19836"
       ry="6.1089716" />
    <rect
       ry="6.0241251"
       y="502.49817"
       x="387.27145"
       height="42.599991"
       width="42.599991"
       id="rect5257"
       style="fill:#000000;fill-opacity:0.15686275;stroke:none" />
    <rect
       style="fill:url(#linearGradient6131);fill-opacity:1;stroke:none"
       id="rect5237"
       width="42"
       height="42"
       x="387.57144"
       y="502.79803"
       ry="5.9392786" />
    <path
       inkscape:connector-curvature="0"
       style="fill:#000000;fill-opacity:0.11764706;stroke:none"
       d="m 387.57143,536.36056 0,2.5 c 0,3.2904 2.64714,5.9375 5.9375,5.9375 l 30.125,0 c 3.29036,0 5.9375,-2.6471 5.9375,-5.9375 l 0,-2.5 c 0,3.2904 -2.64714,5.9375 -5.9375,5.9375 l -30.125,0 c -3.29036,0 -5.9375,-2.6471 -5.9375,-5.9375 z"
       id="rect5265" />
    <path
       inkscape:connector-curvature="0"
       style="fill:#000000;fill-opacity:0.09803922;stroke:none"
       d="m 387.57143,538.36056 0,0.5 c 0,3.2904 2.64714,5.9375 5.9375,5.9375 l 30.125,0 c 3.29036,0 5.9375,-2.6471 5.9375,-5.9375 l 0,-0.5 c 0,3.2904 -2.64714,5.9375 -5.9375,5.9375 l -30.125,0 c -3.29036,0 -5.9375,-2.6471 -5.9375,-5.9375 z"
       id="path5252" />
    <path
       style="fill:#000000;fill-opacity:0.49803922"
       d="m 421.92268,510.8011 c 0,-0.0365 -0.40969,0.24786 -0.91008,0.63146 -4.7072,3.60845 -10.591,6.7637 -13.88543,7.44722 l -0.62157,0.13025 -0.23576,0.62815 c -0.82043,2.1925 -3.15271,3.74717 -6.80917,4.5389 -0.5777,0.12509 -1.19704,0.30285 -1.37667,0.39569 -0.55497,0.28681 -1.19892,0.94351 -1.49044,1.51846 -0.23552,0.46431 -0.273,0.66482 -0.23741,1.29424 0.03,0.52974 0.10174,0.81016 0.24895,0.97274 0.19802,0.21867 0.69189,0.3336 0.56716,0.13189 -0.0981,-0.15863 0.36661,-0.66432 0.826,-0.89854 0.74388,-0.37927 1.90032,-0.55892 3.10947,-0.54243 l 0.0214,-0.0313 c 0.21559,0.0142 0.42613,0.0352 0.63311,0.0594 0.90549,0.0652 1.80504,0.23891 2.5522,0.52264 0.40177,0.15257 0.74276,0.33477 1.0189,0.54078 1.03093,0.53677 1.89784,1.23468 2.62639,2.0411 8.5e-4,-0.0269 0.002,-0.052 0.003,-0.0791 0.005,-0.53016 0.0229,-0.96427 0.0396,-0.96449 0.0166,-2.3e-4 0.0816,0.13666 0.14509,0.30336 0.15378,0.40367 0.23382,0.82732 0.24895,1.25467 1.3828,1.7456 2.20073,3.89726 2.6808,5.97327 0.63989,-1.1081 1.24702,-2.5737 1.24973,-3.17212 0.004,-0.88589 0.61732,0.85205 0.81116,2.29831 l 0.13355,1.00241 0.244,-0.60672 c 0.40609,-1.01383 0.59572,-2.0736 0.59684,-3.32215 8.4e-4,-0.64541 -0.0304,-1.27724 -0.0709,-1.4047 -0.0404,-0.12746 -0.0309,-0.23247 0.0231,-0.23247 0.13298,0 1.19147,1.07765 1.4624,1.48878 0.25566,0.38793 0.27412,0.2172 0.0643,-0.57045 -0.55495,-2.08306 -2.14568,-4.04403 -4.41689,-5.44569 l -0.87712,-0.54242 0.43691,-0.0132 c 0.24008,-0.007 0.58469,-0.0461 0.76665,-0.0874 l 0.33139,-0.0758 -0.44185,-0.15004 -0.44186,-0.15003 0.7073,-0.14344 c 0.38891,-0.0793 1.05887,-0.31081 1.48879,-0.5144 l 0.78148,-0.37095 -0.99252,0.0396 -0.99252,0.0396 0.77324,-0.26049 c 1.07425,-0.36235 3.1343,-1.44424 3.0023,-1.57617 -0.0186,-0.0187 -0.40473,0.0622 -0.85733,0.17971 -1.33059,0.34531 -1.47022,0.26951 -0.43031,-0.23247 1.01233,-0.48866 2.43744,-1.40815 3.13749,-2.02461 l 0.44021,-0.38745 -0.826,0.37261 c -0.70241,0.31658 -2.30688,0.83589 -2.58023,0.83589 -0.046,0 0.23693,-0.16551 0.62815,-0.36931 1.12018,-0.58352 2.13282,-1.35707 3.3848,-2.58352 l 1.1574,-1.13432 -0.93647,0.49462 c -0.88636,0.46766 -2.75664,1.30779 -2.75664,1.23818 0,-0.0177 0.23453,-0.19877 0.52264,-0.40229 1.11794,-0.78974 3.09866,-2.87722 4.27016,-4.50097 l 0.42536,-0.58859 -1.04363,0.81446 c -1.11364,0.87001 -3.38885,2.34366 -3.47878,2.25378 -0.0297,-0.0297 0.0823,-0.14255 0.24731,-0.2506 0.487,-0.31891 2.6301,-2.73891 3.80852,-4.29983 0.60112,-0.79623 1.09309,-1.477 1.09309,-1.51352 z m -24.08434,17.628 c 0.22859,1.94979 -1.61916,2.11121 -2.46317,3.94042 -0.84404,1.82883 2.0345,2.55879 2.0345,2.55879 l 0.73533,-0.10551 0.56715,0.10551 c 1.962,0 3.00575,-1.1976 3.02209,-2.02956 0.0198,-1.0239 -1.15575,-2.15651 -1.15575,-2.15651 0.21906,1.344 -0.59683,1.54649 -0.59683,1.54649 0.28545,-2.23424 -2.14332,-3.85963 -2.14332,-3.85963 z"
       id="path4264"
       inkscape:connector-curvature="0" />
  </g>
</svg>
