<?xml version="1.0" encoding="UTF-8" standalone="no"?>
<!-- Created with Inkscape (http://www.inkscape.org/) -->

<svg
   xmlns:dc="http://purl.org/dc/elements/1.1/"
   xmlns:cc="http://creativecommons.org/ns#"
   xmlns:rdf="http://www.w3.org/1999/02/22-rdf-syntax-ns#"
   xmlns:svg="http://www.w3.org/2000/svg"
   xmlns="http://www.w3.org/2000/svg"
   xmlns:xlink="http://www.w3.org/1999/xlink"
   xmlns:sodipodi="http://sodipodi.sourceforge.net/DTD/sodipodi-0.dtd"
   xmlns:inkscape="http://www.inkscape.org/namespaces/inkscape"
   width="48"
   height="48"
   id="svg2"
   version="1.1"
   inkscape:version="0.91+devel r"
   sodipodi:docname="fityk.svg">
  <defs
     id="defs4">
    <linearGradient
       id="linearGradient6075"
       inkscape:collect="always">
      <stop
         id="stop6077"
         offset="0"
         style="stop-color:#ec7928;stop-opacity:1" />
      <stop
         id="stop6079"
         offset="1"
         style="stop-color:#f29e34;stop-opacity:1" />
    </linearGradient>
    <linearGradient
       gradientUnits="userSpaceOnUse"
       y2="1007.4396"
       x2="37.957897"
       y1="1049.3441"
       x1="37.957897"
       id="linearGradient6081"
       xlink:href="#linearGradient6075"
       inkscape:collect="always"
       gradientTransform="translate(0,4.7900391e-5)" />
  </defs>
  <sodipodi:namedview
     id="base"
     pagecolor="#ffffff"
     bordercolor="#666666"
     borderopacity="1.0"
     inkscape:pageopacity="0.0"
     inkscape:pageshadow="2"
     inkscape:zoom="8.18251"
     inkscape:cx="-2.2263273"
     inkscape:cy="24.253115"
     inkscape:document-units="px"
     inkscape:current-layer="layer1"
     showgrid="false"
     inkscape:window-width="1366"
     inkscape:window-height="670"
     inkscape:window-x="-4"
     inkscape:window-y="29"
     inkscape:window-maximized="1">
    <inkscape:grid
       type="xygrid"
       id="grid3850" />
  </sodipodi:namedview>
  <metadata
     id="metadata7">
    <rdf:RDF>
      <cc:Work
         rdf:about="">
        <dc:format>image/svg+xml</dc:format>
        <dc:type
           rdf:resource="http://purl.org/dc/dcmitype/StillImage" />
        <dc:title />
      </cc:Work>
    </rdf:RDF>
  </metadata>
  <g
     inkscape:label="Capa 1"
     inkscape:groupmode="layer"
     id="layer1"
     transform="translate(0,-1004.3622)">
    <rect
       style="fill:#000000;fill-opacity:0.01960784;stroke:none"
       id="rect5263"
       width="44.399963"
       height="44.399963"
       x="1.8000183"
       y="1006.1622"
       ry="6.2786646" />
    <rect
       ry="6.1938181"
       y="1006.4623"
       x="2.1000061"
       height="43.799973"
       width="43.799973"
       id="rect5261"
       style="fill:#000000;fill-opacity:0.03921569;stroke:none" />
    <rect
       style="fill:#000000;fill-opacity:0.07843137;stroke:none"
       id="rect5259"
       width="43.199982"
       height="43.199982"
       x="2.3999939"
       y="1006.7624"
       ry="6.1089716" />
    <rect
       ry="6.0241251"
       y="1007.0624"
       x="2.7000122"
       height="42.599991"
       width="42.599991"
       id="rect5257"
       style="fill:#000000;fill-opacity:0.15686275;stroke:none" />
    <rect
       style="fill:url(#linearGradient6081);fill-opacity:1;stroke:none"
       id="rect5237"
       width="42"
       height="42"
       x="3"
       y="1007.3622"
       ry="5.9392786" />
    <path
       inkscape:connector-curvature="0"
       style="fill:#000000;fill-opacity:0.11764706;stroke:none"
       d="m 2.9999991,1040.9247 0,2.5 c 0,3.2904 2.64714,5.9375 5.9375,5.9375 l 30.1249999,0 c 3.29036,0 5.9375,-2.6471 5.9375,-5.9375 l 0,-2.5 c 0,3.2904 -2.64714,5.9375 -5.9375,5.9375 l -30.1249999,0 c -3.29036,0 -5.9375,-2.6471 -5.9375,-5.9375 z"
       id="rect5265" />
    <path
       inkscape:connector-curvature="0"
       style="fill:#000000;fill-opacity:0.09803922;stroke:none"
       d="m 2.9999991,1042.9247 0,0.5 c 0,3.2904 2.64714,5.9375 5.9375,5.9375 l 30.1249999,0 c 3.29036,0 5.9375,-2.6471 5.9375,-5.9375 l 0,-0.5 c 0,3.2904 -2.64714,5.9375 -5.9375,5.9375 l -30.1249999,0 c -3.29036,0 -5.9375,-2.6471 -5.9375,-5.9375 z"
       id="path5252" />
    <path
       style="fill:#000000;fill-opacity:0.49803922;fill-rule:nonzero;stroke:none"
       d="m 34.118897,1015.3623 c -1.309757,0 -2.375777,1.0645 -2.375777,2.3823 0,1.3168 1.06602,2.3807 2.375777,2.3807 1.312881,0 2.374128,-1.0628 2.374128,-2.3807 0,-1.3167 -1.060207,-2.3823 -2.374128,-2.3823 z m -4.977426,1.5052 c -1.309756,0 -2.374128,1.0629 -2.374128,2.3807 0,1.3168 1.064372,2.3824 2.374128,2.3824 1.312881,0 2.375778,-1.0646 2.375778,-2.3824 0,-1.3167 -1.061855,-2.3807 -2.375778,-2.3807 z m -4.00634,3.515 c -1.309758,0 -2.375777,1.0646 -2.375777,2.3824 0,1.3168 1.066019,2.3824 2.375777,2.3824 1.31288,0 2.374128,-1.0645 2.374128,-2.3824 0,-1.3167 -1.060206,-2.3824 -2.374128,-2.3824 z m -1.571211,5.3319 c -1.312881,0 -2.374129,1.0679 -2.374129,2.3857 0,1.3137 1.060207,2.3824 2.374129,2.3824 1.309757,0 2.375776,-1.0687 2.375776,-2.3824 0,-1.3178 -1.066019,-2.3857 -2.375776,-2.3857 z m 5.640202,0.013 c -1.309757,0 -2.374128,1.0646 -2.374128,2.3824 0,1.3168 1.064371,2.3807 2.374128,2.3807 1.309757,0 2.374128,-1.0628 2.374128,-2.3807 0,-1.3168 -1.064371,-2.3824 -2.374128,-2.3824 z m -10.975396,0.1088 c -1.312881,0 -2.375777,1.0688 -2.375777,2.3824 0,1.3179 1.061855,2.3857 2.375777,2.3857 1.308716,0 2.370831,-1.0678 2.370831,-2.3857 0,-1.3136 -1.061074,-2.3824 -2.370831,-2.3824 z m 4.436652,5.4177 c -1.312881,0 -2.374128,1.0687 -2.374128,2.3823 0,1.3179 1.060207,2.3857 2.374128,2.3857 1.309757,0 2.375777,-1.0678 2.375777,-2.3857 0,-1.3136 -1.06602,-2.3823 -2.375777,-2.3823 z m -3.374889,4.3361 c -1.309757,0 -2.374128,1.0645 -2.374128,2.3823 0,1.3169 1.064371,2.3807 2.374128,2.3807 1.309757,0 2.374128,-1.0628 2.374128,-2.3807 0,-1.3167 -1.064371,-2.3823 -2.374128,-2.3823 z m -5.409385,1.0073 c -1.31288,0 -2.374128,1.0645 -2.374128,2.3824 -10e-7,1.3167 1.060207,2.3824 2.374128,2.3824 1.309757,0 2.375777,-1.0646 2.375777,-2.3824 0,-1.3168 -1.06602,-2.3824 -2.375777,-2.3824 z"
       id="path4219"
       inkscape:connector-curvature="0" />
  </g>
</svg>
