<?xml version="1.0" encoding="UTF-8" standalone="no"?>
<!-- Created with Inkscape (http://www.inkscape.org/) -->

<svg
   xmlns:dc="http://purl.org/dc/elements/1.1/"
   xmlns:cc="http://creativecommons.org/ns#"
   xmlns:rdf="http://www.w3.org/1999/02/22-rdf-syntax-ns#"
   xmlns:svg="http://www.w3.org/2000/svg"
   xmlns="http://www.w3.org/2000/svg"
   xmlns:xlink="http://www.w3.org/1999/xlink"
   xmlns:sodipodi="http://sodipodi.sourceforge.net/DTD/sodipodi-0.dtd"
   xmlns:inkscape="http://www.inkscape.org/namespaces/inkscape"
   width="48"
   height="48"
   id="svg2"
   version="1.1"
   inkscape:version="0.91+devel r"
   sodipodi:docname="fluid.svg">
  <defs
     id="defs4">
    <linearGradient
       gradientTransform="translate(-1.8847656e-6,1.9961484e-4)"
       inkscape:collect="always"
       xlink:href="#linearGradient4678"
       id="linearGradient7861"
       x1="30.296669"
       y1="1049.4602"
       x2="30.296669"
       y2="1007.3235"
       gradientUnits="userSpaceOnUse" />
    <linearGradient
       inkscape:collect="always"
       id="linearGradient4678">
      <stop
         style="stop-color:#0a7fe7;stop-opacity:1"
         offset="0"
         id="stop4680" />
      <stop
         style="stop-color:#50bffc;stop-opacity:1"
         offset="1"
         id="stop4682" />
    </linearGradient>
  </defs>
  <sodipodi:namedview
     id="base"
     pagecolor="#ffffff"
     bordercolor="#666666"
     borderopacity="1.0"
     inkscape:pageopacity="0.0"
     inkscape:pageshadow="2"
     inkscape:zoom="5.75"
     inkscape:cx="-0.5019263"
     inkscape:cy="36.247299"
     inkscape:document-units="px"
     inkscape:current-layer="layer1"
     showgrid="false"
     inkscape:window-width="1366"
     inkscape:window-height="670"
     inkscape:window-x="-4"
     inkscape:window-y="29"
     inkscape:window-maximized="1">
    <inkscape:grid
       type="xygrid"
       id="grid3850"
       empspacing="5"
       visible="true"
       enabled="true"
       snapvisiblegridlinesonly="true" />
  </sodipodi:namedview>
  <metadata
     id="metadata7">
    <rdf:RDF>
      <cc:Work
         rdf:about="">
        <dc:format>image/svg+xml</dc:format>
        <dc:type
           rdf:resource="http://purl.org/dc/dcmitype/StillImage" />
        <dc:title />
      </cc:Work>
    </rdf:RDF>
  </metadata>
  <g
     inkscape:label="Capa 1"
     inkscape:groupmode="layer"
     id="layer1"
     transform="translate(0,-1004.3622)">
    <g
       id="layer1-6"
       inkscape:label="Capa 1"
       transform="translate(0,4.7900391e-5)">
      <rect
         ry="6.2786646"
         y="1006.1622"
         x="1.8000183"
         height="44.399963"
         width="44.399963"
         id="rect5263-5"
         style="fill:#000000;fill-opacity:0.01960784;stroke:none" />
      <rect
         style="fill:#000000;fill-opacity:0.03921569;stroke:none"
         id="rect5261-9"
         width="43.799973"
         height="43.799973"
         x="2.1000061"
         y="1006.4623"
         ry="6.1938181" />
      <rect
         ry="6.1089716"
         y="1006.7626"
         x="2.3999939"
         height="43.199982"
         width="43.199982"
         id="rect5259-3"
         style="fill:#000000;fill-opacity:0.07843137;stroke:none" />
      <rect
         style="fill:#000000;fill-opacity:0.15686275;stroke:none"
         id="rect5257-8"
         width="42.599991"
         height="42.599991"
         x="2.7000122"
         y="1007.0624"
         ry="6.0241251" />
      <rect
         ry="5.9392786"
         y="1007.3622"
         x="3"
         height="42"
         width="42"
         id="rect5237-1"
         style="fill:url(#linearGradient7861);fill-opacity:1;stroke:none" />
      <path
         id="rect5265-2"
         d="m 2.9999971,1040.9248 0,2.5 c 0,3.2904 2.64714,5.9375 5.9375,5.9375 l 30.1249999,0 c 3.29036,0 5.9375,-2.6471 5.9375,-5.9375 l 0,-2.5 c 0,3.2904 -2.64714,5.9375 -5.9375,5.9375 l -30.1249999,0 c -3.29036,0 -5.9375,-2.6471 -5.9375,-5.9375 z"
         style="fill:#000000;fill-opacity:0.11764706;stroke:none"
         inkscape:connector-curvature="0" />
      <path
         id="path5252-0"
         d="m 2.9999971,1042.9248 0,0.5 c 0,3.2904 2.64714,5.9375 5.9375,5.9375 l 30.1249999,0 c 3.29036,0 5.9375,-2.6471 5.9375,-5.9375 l 0,-0.5 c 0,3.2904 -2.64714,5.9375 -5.9375,5.9375 l -30.1249999,0 c -3.29036,0 -5.9375,-2.6471 -5.9375,-5.9375 z"
         style="fill:#000000;fill-opacity:0.09803922;stroke:none"
         inkscape:connector-curvature="0" />
    </g>
    <path
       style="fill:#000000;fill-opacity:0.49803922;stroke:none"
       d="m 23.138621,1013.3615 a 0.65925509,0.65925509 0 0 0 -0.659817,0.6598 0.65925509,0.65925509 0 0 0 0.659817,0.6598 0.65925509,0.65925509 0 0 0 0.659818,-0.6598 0.65925509,0.65925509 0 0 0 -0.659818,-0.6598 z m 1.70944,1.9889 a 1.3185103,1.3185103 0 0 0 -1.317733,1.3178 1.3185103,1.3185103 0 0 0 1.317733,1.3196 1.3185103,1.3185103 0 0 0 1.319634,-1.3196 1.3185103,1.3185103 0 0 0 -1.319634,-1.3178 z m -2.306508,2.6469 a 0.82406888,0.82406888 0 0 0 -0.823345,0.8233 0.82406888,0.82406888 0 0 0 0.823345,0.8253 0.82406888,0.82406888 0 0 0 0.823346,-0.8253 0.82406888,0.82406888 0 0 0 -0.823346,-0.8233 z m -2.070722,2.9207 c -0.02755,0 -0.05411,-4e-4 -0.07796,0.015 -0.0097,0 -0.01586,0.01 -0.02472,0.015 -0.0029,10e-4 -0.009,0 -0.01141,0 -0.0068,0 -0.0085,0.015 -0.01521,0.021 -0.03992,0.037 -0.07226,0.086 -0.07226,0.1445 2e-5,0.1105 0.09105,0.1997 0.201558,0.1997 l 0.04564,0 0.48488,0.9374 0,4.9458 -5.53714,13.7972 c -0.03184,0.07 -0.05976,0.1419 -0.08176,0.2168 -0.0078,0.025 -0.0085,0.051 -0.01521,0.076 -0.0058,0.025 -0.01605,0.053 -0.02092,0.078 -0.0078,0.041 -0.01025,0.083 -0.01521,0.1236 -9.74e-4,0.012 -0.0047,0.024 -0.0057,0.036 -0.0049,0.042 -0.0028,0.082 -0.0038,0.1236 l 0,0.036 c 0,0 -2e-5,0.01 0,0.01 3.8e-5,0.01 0,0.015 0,0.021 9.73e-4,0.047 -0.0011,0.093 0.0038,0.1388 0.0049,0.043 0.01342,0.082 0.02092,0.1236 0.0029,0.016 -9.2e-5,0.035 0.0038,0.051 9.74e-4,0.01 0.0047,0.015 0.0057,0.021 0.0097,0.044 0.02308,0.085 0.03613,0.1274 9.74e-4,0 0.0057,-2e-4 0.0057,0.01 0.01548,0.049 0.02587,0.098 0.04564,0.1445 9.74e-4,0 0.0028,-3e-4 0.0038,0.01 0.01996,0.047 0.04431,0.096 0.06845,0.1407 9.74e-4,0 0,-2e-4 0,0.01 0.05033,0.092 0.114303,0.182 0.180642,0.2624 0.102234,0.1232 0.220114,0.2304 0.353677,0.3194 0.0039,0 0.01322,0.01 0.01711,0.01 0.179914,0.1179 0.380924,0.2027 0.600871,0.2433 0.01528,0 0.03235,-2e-4 0.04754,0.01 0.0295,0 0.05768,0.012 0.08747,0.015 0.06805,0.01 0.132179,0.012 0.199657,0.011 l 13.994968,0 0.03042,0 c 0.04293,0 0.0871,0 0.129301,-0.011 0.01382,-10e-4 0.0262,0 0.03993,0 0.04157,0 0.08303,-0.012 0.123597,-0.019 l 0.04183,0 c 0.04108,-0.01 0.07808,-0.021 0.117892,-0.032 0.05462,-0.016 0.113247,-0.035 0.16543,-0.055 0.103139,-0.041 0.197424,-0.09 0.289026,-0.1502 0.0029,-10e-4 0.0019,0 0.0038,0 0.0039,0 0.0079,-0.01 0.01141,-0.011 0.08733,-0.059 0.167168,-0.1199 0.241489,-0.194 0.0369,-0.037 0.07509,-0.079 0.108385,-0.1198 9.74e-4,-10e-4 0.0047,10e-4 0.0057,0 0.0663,-0.081 0.124584,-0.1701 0.174937,-0.2624 9.74e-4,-10e-4 0.0038,2e-4 0.0038,-0.01 0.02424,-0.045 0.04269,-0.092 0.06275,-0.1388 9.74e-4,0 0.0028,2e-4 0.0038,-0.01 0.01976,-0.047 0.03586,-0.096 0.05134,-0.1445 9.74e-4,0 -9.73e-4,2e-4 0,-0.01 0.01451,-0.047 0.03142,-0.096 0.04183,-0.1446 9.74e-4,-0.01 0.0047,-0.01 0.0057,-0.015 0.0029,-0.013 -0.0029,-0.029 0,-0.042 0.0078,-0.042 0.01473,-0.081 0.01901,-0.1236 9.74e-4,-0.017 0.0047,-0.039 0.0057,-0.057 0.0019,-0.028 0.0038,-0.054 0.0038,-0.082 l 0,-0.03 c 0,-0.035 -0.0019,-0.07 -0.0038,-0.1046 0,-0.01 9.74e-4,-0.022 0,-0.03 -9.74e-4,-0.013 -0.0047,-0.024 -0.0057,-0.036 -0.0019,-0.01 -0.0028,-0.017 -0.0038,-0.027 -0.0049,-0.041 -0.0075,-0.083 -0.01521,-0.1236 -0.0019,0 9.74e-4,-0.01 0,-0.015 -0.0088,-0.041 -0.02093,-0.084 -0.03233,-0.1236 -0.0029,-0.013 -0.01122,-0.024 -0.01521,-0.036 -0.01314,-0.043 -0.02338,-0.083 -0.03993,-0.1236 -0.0097,-0.023 -0.02191,-0.05 -0.03233,-0.072 l -5.540942,-13.8181 0,-4.923 0.458259,-0.9374 0.07796,0 c 0.110528,0 0.199647,-0.091 0.199656,-0.2016 0,-0.1016 -0.07112,-0.1831 -0.169232,-0.1958 l -0.03042,0 -7.058332,0 0.0038,-0.013 z m 1.433723,8.6803 -0.0019,0.028 c 0.334195,-0.015 0.706619,0.1267 1.154204,0.4792 1.43218,1.1284 2.108271,2.2872 3.280071,0.7682 0.155381,-0.2014 0.311987,-0.3695 0.467767,-0.5153 l 3.873335,9.6462 c 0.0078,0.018 0.01391,0.033 0.02092,0.051 0.01295,0.032 0.02483,0.065 0.03613,0.099 0.002,0.01 0.0071,0.022 0.0095,0.03 0.0088,0.031 0.0142,0.061 0.02092,0.093 9.74e-4,0 0.0047,0.01 0.0057,0.015 0.0068,0.032 0.0041,0.065 0.0095,0.097 0,0.01 0.0047,0.014 0.0057,0.021 0,0.01 -9.73e-4,0.022 0,0.03 9.74e-4,0.01 0,0.011 0,0.017 9.74e-4,0.027 0.0038,0.06 0.0038,0.087 0,0.01 -0.0038,0.011 -0.0038,0.019 0,0.022 9.74e-4,0.046 0,0.068 0,0.014 9.74e-4,0.026 0,0.04 -0.0029,0.033 -0.0085,0.07 -0.01521,0.1026 -9.73e-4,0.01 9.74e-4,0.018 0,0.027 0,0 -0.0047,0.01 -0.0057,0.015 -0.0078,0.038 -0.01825,0.078 -0.03042,0.1141 -0.01207,0.038 -0.02104,0.069 -0.03613,0.1065 0,9e-4 -0.0047,0.011 -0.0057,0.011 -0.01567,0.037 -0.03255,0.071 -0.05134,0.1064 0,10e-4 -0.0028,-9e-4 -0.0038,0 -0.03943,0.072 -0.08307,0.1443 -0.135006,0.2073 -0.02609,0.031 -0.05865,0.058 -0.08747,0.088 -0.05812,0.058 -0.116071,0.1079 -0.184444,0.154 -0.002,10e-4 -0.009,0 -0.01141,0 -9.74e-4,0 9.73e-4,-2e-4 0,0.01 -0.07175,0.047 -0.151245,0.088 -0.231982,0.1198 -0.04089,0.017 -0.0845,0.027 -0.1274,0.04 -0.03106,0.01 -0.06105,0.019 -0.09317,0.025 -0.0109,9e-4 -0.01845,0 -0.03042,0 -0.03164,0.01 -0.06066,0.014 -0.09317,0.017 -0.0109,9e-4 -0.02435,0.01 -0.03613,0.01 l -0.09698,0 -0.02662,0 -10.954485,0 c -0.05287,0 -0.106403,0 -0.159725,-0.01 -0.02337,0 -0.04918,-0.013 -0.07226,-0.017 -0.01207,-10e-4 -0.01787,0 -0.03042,0 -0.172185,-0.032 -0.334498,-0.098 -0.475373,-0.1902 -0.0049,-10e-4 -0.008,2e-4 -0.0095,-0.01 -0.104541,-0.07 -0.203323,-0.1507 -0.283321,-0.2472 -10e-6,0 9.74e-4,2e-4 0,-0.01 -0.05189,-0.063 -0.09374,-0.1293 -0.133105,-0.2016 0,0 -0.0047,3e-4 -0.0057,-0.01 -0.01889,-0.035 -0.03596,-0.071 -0.05134,-0.1084 0,0 0.0019,3e-4 0,-0.01 -0.01548,-0.037 -0.02927,-0.07 -0.04183,-0.1084 0,-9e-4 0.0019,-0.01 0,-0.01 -0.01032,-0.033 -0.01742,-0.069 -0.02472,-0.1026 0,-0.01 -0.0047,-0.01 -0.0057,-0.015 -0.0039,-0.013 -0.0019,-0.024 -0.0038,-0.036 -0.0068,-0.033 -0.01449,-0.069 -0.01711,-0.1027 -0.0049,-0.036 -0.0028,-0.068 -0.0038,-0.1045 0,-0.01 -2e-5,-0.01 0,-0.015 0,0 -2.9e-5,-0.01 0,-0.01 l 0,-0.025 c 0,-0.033 0.0019,-0.065 0.0038,-0.099 0,-0.01 -9.74e-4,-0.022 0,-0.03 0.0049,-0.032 0.01039,-0.062 0.01711,-0.093 0.0029,-0.02 0.0097,-0.036 0.01521,-0.055 0.0049,-0.02 0.0085,-0.043 0.01521,-0.063 0.01713,-0.059 0.03592,-0.1144 0.06085,-0.1693 l 4.111022,-10.249 c 0.153424,-0.075 0.305389,-0.1223 0.469668,-0.1293 z m 0.119794,1.8216 0.0019,0.01 c -0.135579,0.01 -0.26459,0.041 -0.391708,0.1027 l -3.141261,7.9691 c -0.02054,0.045 -0.04293,0.094 -0.05705,0.1427 -0.0049,0.017 -0.0069,0.031 -0.01141,0.048 -0.0049,0.016 -0.0061,0.031 -0.0095,0.047 -0.0049,0.026 -0.0121,0.055 -0.01521,0.082 -9.73e-4,0.01 0,0.018 0,0.025 -0.0029,0.027 0,0.051 0,0.078 l 0,0.025 0,0.01 c 0,0 -1.9e-5,0.01 0,0.01 9.74e-4,0.03 -0.0039,0.064 0,0.093 9.74e-4,0.027 0.0099,0.049 0.01521,0.076 0.0019,0.011 -0.0039,0.022 0,0.032 0.0019,0.01 0.0057,0.011 0.0057,0.015 0.0058,0.028 0.01567,0.056 0.02472,0.084 9.73e-4,0 2.9e-5,0.01 0,0.01 0.01071,0.032 0.01947,0.061 0.03233,0.091 0.01236,0.03 0.03016,0.058 0.04564,0.088 0.03252,0.059 0.06937,0.1134 0.112187,0.1654 0.06601,0.08 0.145686,0.1478 0.231983,0.2054 9.73e-4,0 0.008,0 0.01141,0.011 0.116234,0.076 0.249616,0.1335 0.391707,0.1597 0.01071,0 0.01479,-10e-4 0.02472,0 0.01889,0 0.03767,0.013 0.05704,0.015 0.04401,0.01 0.08952,0 0.133105,0 l 9.039684,0 c 0.0068,0 0.01371,1e-4 0.02092,0 0.02765,0 0.0546,0 0.08176,0 0.01022,0 0.01776,0 0.02662,0 0.02687,0 0.05567,-0.01 0.08176,-0.015 0.01013,-10e-4 0.01766,-0.011 0.02662,-0.011 0.02648,-0.01 0.04646,-0.011 0.07226,-0.019 0.03534,-0.011 0.07279,-0.019 0.106484,-0.032 0.06659,-0.026 0.132799,-0.059 0.19205,-0.097 9.74e-4,0 0,2e-4 0,-0.01 l 0.0095,0 c 0.05637,-0.038 0.106034,-0.081 0.154021,-0.1293 0.02385,-0.023 0.04694,-0.046 0.06845,-0.072 0.002,0 0,3e-4 0,-0.01 0.04284,-0.052 0.07957,-0.1096 0.112188,-0.1692 9.73e-4,0 0.0057,10e-4 0.0057,0 0.01577,-0.029 0.02698,-0.057 0.03993,-0.087 l 0.0057,0 c 0.01217,-0.03 0.0204,-0.062 0.03042,-0.093 l 0,-0.01 c 0.01032,-0.03 0.01981,-0.062 0.02662,-0.093 0,0 -9.74e-4,-0.01 0,-0.01 9.73e-4,-0.01 0,-0.017 0,-0.025 0.0049,-0.027 0.0081,-0.06 0.0095,-0.087 0.0019,-0.012 0.0057,-0.021 0.0057,-0.032 0.002,-0.017 0,-0.038 0,-0.055 0,-0.01 0.0038,-0.011 0.0038,-0.017 0,-0.022 -0.0038,-0.05 -0.0038,-0.072 0,-0.01 0.002,-0.01 0,-0.015 -9.74e-4,-0.01 0,-0.017 0,-0.025 -9.74e-4,-0.01 -0.0047,-0.01 -0.0057,-0.015 -0.0049,-0.026 -0.0042,-0.053 -0.0095,-0.078 -0.002,-0.01 9.73e-4,-0.01 0,-0.01 -0.0049,-0.026 -0.01332,-0.057 -0.02092,-0.084 -0.002,-0.01 -0.0047,-0.018 -0.0057,-0.027 -0.0097,-0.027 -0.01971,-0.05 -0.03042,-0.076 -0.0058,-0.016 -0.01439,-0.033 -0.02092,-0.048 l -2.945408,-7.4671 c -0.128657,0.1202 -0.263402,0.2617 -0.391707,0.4278 -0.967031,1.2537 -2.010678,0.2962 -3.192603,-0.6351 -0.372261,-0.2899 -0.678747,-0.4072 -0.954548,-0.3955 z m 0.119794,0.85 0,7.8227 -3.074709,0 3.074709,-7.8227 z"
       id="path1894-4"
       inkscape:connector-curvature="0" />
  </g>
</svg>
