<?xml version="1.0" encoding="UTF-8" standalone="no"?>
<!-- Created with Inkscape (http://www.inkscape.org/) -->

<svg
   xmlns:dc="http://purl.org/dc/elements/1.1/"
   xmlns:cc="http://creativecommons.org/ns#"
   xmlns:rdf="http://www.w3.org/1999/02/22-rdf-syntax-ns#"
   xmlns:svg="http://www.w3.org/2000/svg"
   xmlns="http://www.w3.org/2000/svg"
   xmlns:xlink="http://www.w3.org/1999/xlink"
   xmlns:sodipodi="http://sodipodi.sourceforge.net/DTD/sodipodi-0.dtd"
   xmlns:inkscape="http://www.inkscape.org/namespaces/inkscape"
   width="48"
   height="48"
   id="svg2"
   version="1.1"
   inkscape:version="0.49 r12742"
   sodipodi:docname="fogger.svg">
  <defs
     id="defs4">
    <linearGradient
       gradientUnits="userSpaceOnUse"
       y2="1007.3218"
       x2="40.915409"
       y1="1049.3521"
       x1="40.915409"
       id="linearGradient6778"
       xlink:href="#linearGradient6075"
       inkscape:collect="always"
       gradientTransform="translate(0,4.7900391e-5)" />
    <linearGradient
       id="linearGradient6075"
       inkscape:collect="always">
      <stop
         id="stop6077"
         offset="0"
         style="stop-color:#ec7928;stop-opacity:1" />
      <stop
         id="stop6079"
         offset="1"
         style="stop-color:#f29e34;stop-opacity:1" />
    </linearGradient>
  </defs>
  <sodipodi:namedview
     id="base"
     pagecolor="#ffffff"
     bordercolor="#666666"
     borderopacity="1.0"
     inkscape:pageopacity="0.0"
     inkscape:pageshadow="2"
     inkscape:zoom="6.3735392"
     inkscape:cx="-9.7835268"
     inkscape:cy="22.728216"
     inkscape:document-units="px"
     inkscape:current-layer="layer1"
     showgrid="false"
     inkscape:window-width="1366"
     inkscape:window-height="718"
     inkscape:window-x="-2"
     inkscape:window-y="23"
     inkscape:window-maximized="1" />
  <metadata
     id="metadata7">
    <rdf:RDF>
      <cc:Work
         rdf:about="">
        <dc:format>image/svg+xml</dc:format>
        <dc:type
           rdf:resource="http://purl.org/dc/dcmitype/StillImage" />
        <dc:title />
      </cc:Work>
    </rdf:RDF>
  </metadata>
  <g
     inkscape:label="Capa 1"
     inkscape:groupmode="layer"
     id="layer1"
     transform="translate(0,-1004.3622)">
    <rect
       style="fill:#000000;fill-opacity:0.01960784;stroke:none"
       id="rect5263"
       width="44.399963"
       height="44.399963"
       x="1.8000183"
       y="1006.1622"
       ry="6.2786646" />
    <rect
       ry="6.1938181"
       y="1006.4623"
       x="2.1000061"
       height="43.799973"
       width="43.799973"
       id="rect5261"
       style="fill:#000000;fill-opacity:0.03921569;stroke:none" />
    <rect
       style="fill:#000000;fill-opacity:0.07843137;stroke:none"
       id="rect5259"
       width="43.199982"
       height="43.199982"
       x="2.3999939"
       y="1006.7624"
       ry="6.1089716" />
    <rect
       ry="6.0241251"
       y="1007.0624"
       x="2.7000122"
       height="42.599991"
       width="42.599991"
       id="rect5257"
       style="fill:#000000;fill-opacity:0.15686275;stroke:none" />
    <rect
       style="fill:url(#linearGradient6778);fill-opacity:1;stroke:none"
       id="rect5237"
       width="42"
       height="42"
       x="3"
       y="1007.3622"
       ry="5.9392786" />
    <path
       inkscape:connector-curvature="0"
       style="fill:#000000;fill-opacity:0.11764706;stroke:none"
       d="m 2.9999991,1040.9247 0,2.5 c 0,3.2904 2.64714,5.9375 5.9375,5.9375 l 30.1249999,0 c 3.29036,0 5.9375,-2.6471 5.9375,-5.9375 l 0,-2.5 c 0,3.2904 -2.64714,5.9375 -5.9375,5.9375 l -30.1249999,0 c -3.29036,0 -5.9375,-2.6471 -5.9375,-5.9375 z"
       id="rect5265" />
    <path
       inkscape:connector-curvature="0"
       style="fill:#000000;fill-opacity:0.09803922;stroke:none"
       d="m 2.9999991,1042.9247 0,0.5 c 0,3.2904 2.64714,5.9375 5.9375,5.9375 l 30.1249999,0 c 3.29036,0 5.9375,-2.6471 5.9375,-5.9375 l 0,-0.5 c 0,3.2904 -2.64714,5.9375 -5.9375,5.9375 l -30.1249999,0 c -3.29036,0 -5.9375,-2.6471 -5.9375,-5.9375 z"
       id="path5252" />
    <path
       inkscape:connector-curvature="0"
       id="rect3193-7"
       d="m 26.786264,1015.3622 c -3.137396,0 -5.825407,1.9737 -7.254179,4.8175 -0.804635,-0.6694 -1.833459,-1.103 -2.961023,-1.103 -2.562656,0 -4.642674,2.08 -4.642674,4.6427 0,0.5757 0.09853,1.1168 0.290167,1.6257 -2.9145547,1.3018 -4.9328407,4.2503 -4.9328407,7.6599 0,4.6295 3.7276517,8.3572 8.3571417,8.3572 l 16.714287,0 c 4.629487,0 8.357143,-3.7277 8.357143,-8.3572 0,-3.6677 -2.358206,-6.7615 -5.630232,-7.8924 0.0073,-0.1578 0.05771,-0.3035 0.05771,-0.4649 9e-6,-5.1255 -3.742718,-9.2855 -8.355495,-9.2855 z m -2.79121,7.0911 1.234858,2.468 -2.468069,0 1.233211,-2.468 z m -7.40256,1.2331 2.46807,0 0,1.2349 -1.233211,0 0,1.2333 1.233211,0 0,2.4664 -1.233211,0 0,1.2349 1.233211,0 0,2.4682 -1.233211,0 0,1.2331 1.233211,0 0,2.4666 -1.233211,0 0,1.2348 1.233211,0 0,1.2332 -2.46807,0 0,-14.8054 z m 13.263606,0.5013 0,1.3503 c -0.157378,0.1123 -0.270382,0.2934 -0.270382,0.5012 0,0.3407 0.275924,0.6166 0.616604,0.6166 0.340683,0 0.616605,-0.2759 0.616605,-0.6166 0,-0.2368 -0.150422,-0.4374 -0.346222,-0.5408 l 0,-1.3107 c 0.484942,0.7442 1.231369,1.9 0.809501,2.6609 -0.406571,0.7333 -1.824294,0.7297 -2.235606,0 -0.424045,-0.752 0.310273,-1.9143 0.8095,-2.6609 z m -7.094257,1.9669 2.468069,0 0,12.3372 -2.468069,0 0,-12.3372 z m 6.169349,2.4664 2.466421,0 0,9.8708 -2.466421,0 0,-9.8708 z"
       style="fill:#000000;fill-opacity:0.49803922;fill-rule:evenodd;stroke:none" />
  </g>
  <g
     inkscape:groupmode="layer"
     id="layer2"
     inkscape:label=" Capa 2" />
</svg>
