<?xml version="1.0" encoding="UTF-8" standalone="no"?>
<!-- Created with Inkscape (http://www.inkscape.org/) -->

<svg
   xmlns:dc="http://purl.org/dc/elements/1.1/"
   xmlns:cc="http://creativecommons.org/ns#"
   xmlns:rdf="http://www.w3.org/1999/02/22-rdf-syntax-ns#"
   xmlns:svg="http://www.w3.org/2000/svg"
   xmlns="http://www.w3.org/2000/svg"
   xmlns:xlink="http://www.w3.org/1999/xlink"
   xmlns:sodipodi="http://sodipodi.sourceforge.net/DTD/sodipodi-0.dtd"
   xmlns:inkscape="http://www.inkscape.org/namespaces/inkscape"
   width="48"
   height="48"
   id="svg5453"
   version="1.1"
   inkscape:version="0.49 r12742"
   sodipodi:docname="golly.svg">
  <defs
     id="defs5455">
    <linearGradient
       inkscape:collect="always"
       id="linearGradient7150">
      <stop
         style="stop-color:#8796a4;stop-opacity:1"
         offset="0"
         id="stop7152" />
      <stop
         style="stop-color:#b0b7c5;stop-opacity:1"
         offset="1"
         id="stop7154" />
    </linearGradient>
    <linearGradient
       gradientTransform="translate(384.57143,-504.5641)"
       inkscape:collect="always"
       xlink:href="#linearGradient7150"
       id="linearGradient7156"
       x1="27.568569"
       y1="1049.1152"
       x2="27.568569"
       y2="1007.4026"
       gradientUnits="userSpaceOnUse" />
  </defs>
  <sodipodi:namedview
     id="base"
     pagecolor="#ffffff"
     bordercolor="#666666"
     borderopacity="1.0"
     inkscape:pageopacity="0"
     inkscape:pageshadow="2"
     inkscape:zoom="6.3396376"
     inkscape:cx="-4.0518589"
     inkscape:cy="28.932746"
     inkscape:document-units="px"
     inkscape:current-layer="layer1"
     showgrid="false"
     fit-margin-top="0"
     fit-margin-left="0"
     fit-margin-right="0"
     fit-margin-bottom="0"
     inkscape:window-width="1366"
     inkscape:window-height="718"
     inkscape:window-x="-2"
     inkscape:window-y="23"
     inkscape:window-maximized="1" />
  <metadata
     id="metadata5458">
    <rdf:RDF>
      <cc:Work
         rdf:about="">
        <dc:format>image/svg+xml</dc:format>
        <dc:type
           rdf:resource="http://purl.org/dc/dcmitype/StillImage" />
        <dc:title />
      </cc:Work>
    </rdf:RDF>
  </metadata>
  <g
     inkscape:label="Capa 1"
     inkscape:groupmode="layer"
     id="layer1"
     transform="translate(-384.57143,-499.798)">
    <rect
       style="fill:#000000;fill-opacity:0.01960784;stroke:none"
       id="rect5263-4"
       width="44.399963"
       height="44.399963"
       x="386.37146"
       y="501.59802"
       ry="6.2786646" />
    <rect
       ry="6.1938181"
       y="501.89813"
       x="386.67145"
       height="43.799973"
       width="43.799973"
       id="rect5261-5"
       style="fill:#000000;fill-opacity:0.03921569;stroke:none" />
    <rect
       style="fill:#000000;fill-opacity:0.07843137;stroke:none"
       id="rect5259-8"
       width="43.199982"
       height="43.199982"
       x="386.97144"
       y="502.19824"
       ry="6.1089716" />
    <rect
       ry="6.0241251"
       y="502.49823"
       x="387.27145"
       height="42.599991"
       width="42.599991"
       id="rect5257-8"
       style="fill:#000000;fill-opacity:0.15686275;stroke:none" />
    <rect
       style="fill:url(#linearGradient7156);fill-opacity:1;stroke:none"
       id="rect5237-5"
       width="42"
       height="42"
       x="387.57144"
       y="502.79803"
       ry="5.9392786" />
    <path
       inkscape:connector-curvature="0"
       style="fill:#000000;fill-opacity:0.11764706;stroke:none"
       d="m 387.57143,536.36055 0,2.5 c 0,3.2904 2.64714,5.9375 5.9375,5.9375 l 30.125,0 c 3.29036,0 5.9375,-2.6471 5.9375,-5.9375 l 0,-2.5 c 0,3.2904 -2.64714,5.9375 -5.9375,5.9375 l -30.125,0 c -3.29036,0 -5.9375,-2.6471 -5.9375,-5.9375 z"
       id="rect5265-2" />
    <path
       inkscape:connector-curvature="0"
       style="fill:#000000;fill-opacity:0.09803922;stroke:none"
       d="m 387.57143,538.36055 0,0.5 c 0,3.2904 2.64714,5.9375 5.9375,5.9375 l 30.125,0 c 3.29036,0 5.9375,-2.6471 5.9375,-5.9375 l 0,-0.5 c 0,3.2904 -2.64714,5.9375 -5.9375,5.9375 l -30.125,0 c -3.29036,0 -5.9375,-2.6471 -5.9375,-5.9375 z"
       id="path5252-3" />
    <g
       transform="matrix(0.36107049,0,0,-0.36107049,394.51804,459.2594)"
       id="g312"
       style="fill:#000000;fill-opacity:0.49803922" />
    <g
       transform="matrix(0.36107049,0,0,-0.36107049,405.87342,447.90337)"
       id="g316"
       style="fill:#000000;fill-opacity:0.49803922" />
    <path
       inkscape:connector-curvature="0"
       id="rect4273-7"
       d="m 417.01278,510.798 0,1.68827 -1.68827,0 -1.68827,0 -1.68827,0 0,-1.68827 1.68827,0 1.68827,0 1.68827,0 z m -11.81789,0 0,1.68827 -1.68827,0 -1.68827,0 -1.68827,0 0,-1.68827 1.68827,0 1.68827,0 1.68827,0 z m 16.37654,4.55865 0,1.68827 0,1.68827 0,1.68827 -1.68827,0 0,-1.68827 0,-1.68827 0,-1.68827 1.68827,0 z m -11.31173,0 0,1.68827 0,1.68827 0,1.68827 -1.68827,0 -1.68827,0 0,-1.68827 0,-1.68827 0,-1.68827 1.68827,0 1.68827,0 z m -13,0 0,1.68827 0,1.68827 0,1.68827 -1.68827,0 0,-1.68827 0,-1.68827 0,-1.68827 1.68827,0 z m 19.75308,6.75308 0,1.68827 0,1.68827 -1.68827,0 -1.68827,0 -1.68827,0 0,-1.68827 0,-1.68827 1.68827,0 1.68827,0 1.68827,0 z m -11.81789,0 0,1.68827 0,1.68827 -1.68827,0 -1.68827,0 -1.68827,0 0,-1.68827 0,-1.68827 1.68827,0 1.68827,0 1.68827,0 z m 16.37654,5.06481 0,1.68827 0,1.68827 0,1.68827 -1.68827,0 0,-1.68827 0,-1.68827 0,-1.68827 1.68827,0 z m -11.31173,0 0,1.68827 0,1.68827 0,1.68827 -1.68827,0 -1.68827,0 0,-1.68827 0,-1.68827 0,-1.68827 1.68827,0 1.68827,0 z m -13,0 0,1.68827 0,1.68827 0,1.68827 -1.68827,0 0,-1.68827 0,-1.68827 0,-1.68827 1.68827,0 z m 19.75308,7.93519 0,1.68827 -1.68827,0 -1.68827,0 -1.68827,0 0,-1.68827 1.68827,0 1.68827,0 1.68827,0 z m -11.81789,0 0,1.68827 -1.68827,0 -1.68827,0 -1.68827,0 0,-1.68827 1.68827,0 1.68827,0 1.68827,0 z"
       style="fill:#000000;fill-opacity:0.49803922;stroke:none" />
  </g>
</svg>
