<?xml version="1.0" encoding="UTF-8" standalone="no"?>
<svg
   xmlns:dc="http://purl.org/dc/elements/1.1/"
   xmlns:cc="http://creativecommons.org/ns#"
   xmlns:rdf="http://www.w3.org/1999/02/22-rdf-syntax-ns#"
   xmlns:svg="http://www.w3.org/2000/svg"
   xmlns="http://www.w3.org/2000/svg"
   xmlns:xlink="http://www.w3.org/1999/xlink"
   xmlns:sodipodi="http://sodipodi.sourceforge.net/DTD/sodipodi-0.dtd"
   xmlns:inkscape="http://www.inkscape.org/namespaces/inkscape"
   width="48"
   viewBox="0 0 13.546667 13.546667"
   height="48"
   id="svg2"
   version="1.1"
   inkscape:version="0.48+devel r"
   sodipodi:docname="web-google-hangouts.svg">
  <metadata
     id="metadata26">
    <rdf:RDF>
      <cc:Work
         rdf:about="">
        <dc:format>image/svg+xml</dc:format>
        <dc:type
           rdf:resource="http://purl.org/dc/dcmitype/StillImage" />
      </cc:Work>
    </rdf:RDF>
  </metadata>
  <sodipodi:namedview
     pagecolor="#ffffff"
     bordercolor="#666666"
     borderopacity="1"
     objecttolerance="10"
     gridtolerance="10"
     guidetolerance="10"
     inkscape:pageopacity="0"
     inkscape:pageshadow="2"
     inkscape:window-width="1366"
     inkscape:window-height="665"
     id="namedview24"
     showgrid="false"
     inkscape:zoom="4.6607635"
     inkscape:cx="8.014304"
     inkscape:cy="21.67347"
     inkscape:window-x="-2"
     inkscape:window-y="26"
     inkscape:window-maximized="1"
     inkscape:current-layer="svg2" />
  <defs
     id="defs4">
    <linearGradient
       id="linearGradient4708"
       inkscape:collect="always">
      <stop
         id="stop4710"
         offset="0"
         style="stop-color:#47b73d;stop-opacity:1" />
      <stop
         id="stop4712"
         offset="1"
         style="stop-color:#ade355;stop-opacity:1" />
    </linearGradient>
    <linearGradient
       gradientTransform="matrix(0.28222223,0,0,0.28222223,-3.3374024e-7,-283.45332)"
       inkscape:collect="always"
       xlink:href="#linearGradient4708"
       id="linearGradient4101"
       x1="29.109528"
       y1="1049.3851"
       x2="29.109528"
       y2="1007.3748"
       gradientUnits="userSpaceOnUse" />
  </defs>
  <rect
     style="fill:#000000;fill-opacity:0.01960784;stroke:none"
     id="rect5263-0"
     width="12.530657"
     height="12.530657"
     x="0.50800508"
     y="0.50800508"
     ry="1.7719787" />
  <rect
     ry="1.7480332"
     y="0.59270275"
     x="0.59266847"
     height="12.361326"
     width="12.361326"
     id="rect5261-1"
     style="fill:#000000;fill-opacity:0.03921569;stroke:none" />
  <rect
     style="fill:#000000;fill-opacity:0.07843137;stroke:none"
     id="rect5259-9"
     width="12.191996"
     height="12.191996"
     x="0.67733091"
     y="0.67743486"
     ry="1.7240876" />
  <rect
     ry="1.700142"
     y="0.76206368"
     x="0.76200289"
     height="12.022664"
     width="12.022664"
     id="rect5257-6"
     style="fill:#000000;fill-opacity:0.15686275;stroke:none" />
  <rect
     style="fill:url(#linearGradient4101);fill-opacity:1;stroke:none"
     id="rect5237-3"
     width="11.853333"
     height="11.853333"
     x="0.84666628"
     y="0.84667522"
     ry="1.6761965" />
  <path
     inkscape:connector-curvature="0"
     style="fill:#000000;fill-opacity:0.11764706;stroke:none"
     d="m 0.84666567,10.318764 0,0.705556 c 0,0.928624 0.74708203,1.675694 1.67569503,1.675694 l 8.5019443,0 c 0.928613,0 1.675695,-0.74707 1.675695,-1.675694 l 0,-0.705556 c 0,0.928624 -0.747082,1.675695 -1.675695,1.675695 l -8.5019443,0 c -0.928613,0 -1.67569503,-0.747071 -1.67569503,-1.675695 z"
     id="rect5265-8" />
  <path
     inkscape:connector-curvature="0"
     style="fill:#000000;fill-opacity:0.09803922;stroke:none"
     d="m 0.84666567,10.883209 0,0.141111 c 0,0.928624 0.74708203,1.675694 1.67569503,1.675694 l 8.5019443,0 c 0.928613,0 1.675695,-0.74707 1.675695,-1.675694 l 0,-0.141111 c 0,0.928624 -0.747082,1.675694 -1.675695,1.675694 l -8.5019443,0 c -0.928613,0 -1.67569503,-0.74707 -1.67569503,-1.675694 z"
     id="path5252-0" />
  <path
     style="fill:#000000;fill-opacity:0.49803922;stroke:none"
     d="m 6.7733334,3.1044446 c -2.02622,0 -3.668889,1.2321154 -3.668889,2.7517831 0,1.4963922 1.5938793,2.7111343 3.5772248,2.7480605 l 0,1.8379338 C 10.449811,8.2666976 10.442222,6.8953307 10.442222,5.8562277 10.442222,4.33656 8.7995534,3.1044446 6.7733334,3.1044446 Z m -1.7155604,1.4056706 1.4135808,0 0,1.4140462 -0.00465,0 c 0.003,0.033281 0.00465,0.066879 0.00465,0.10097 0,0.5794315 -0.4435648,1.0544746 -1.0097005,1.1055523 l 0,-0.4089985 c 0.3421231,-0.049386 0.6058202,-0.3407521 0.6058202,-0.6965538 0,-0.034496 -0.00405,-0.067856 -0.00884,-0.10097 l -1.0008599,0 0,-1.4140462 z m 2.0175399,0 1.4135809,0 0,1.4140462 -0.00465,0 c 0.003,0.033305 0.00465,0.066902 0.00465,0.10097 0,0.5794315 -0.4435648,1.0544751 -1.0097005,1.1055523 l 0,-0.4089985 c 0.3421228,-0.049386 0.6058201,-0.340752 0.6058201,-0.6965538 0,-0.034496 -0.00451,-0.067856 -0.00931,-0.10097 l -1.0003946,0 0,-1.4140462 z"
     id="path4084"
     inkscape:connector-curvature="0" />
  <path
     style="fill:#000000"
     d=""
     id="path906"
     inkscape:connector-curvature="0" />
</svg>
