<?xml version="1.0" encoding="UTF-8" standalone="no"?>
<!-- Created with Inkscape (http://www.inkscape.org/) -->

<svg
   xmlns:dc="http://purl.org/dc/elements/1.1/"
   xmlns:cc="http://creativecommons.org/ns#"
   xmlns:rdf="http://www.w3.org/1999/02/22-rdf-syntax-ns#"
   xmlns:svg="http://www.w3.org/2000/svg"
   xmlns="http://www.w3.org/2000/svg"
   xmlns:xlink="http://www.w3.org/1999/xlink"
   xmlns:sodipodi="http://sodipodi.sourceforge.net/DTD/sodipodi-0.dtd"
   xmlns:inkscape="http://www.inkscape.org/namespaces/inkscape"
   width="48"
   height="48.000019"
   id="svg2"
   version="1.1"
   inkscape:version="0.49 r12742"
   sodipodi:docname="gpdftext.svg">
  <defs
     id="defs4">
    <linearGradient
       gradientUnits="userSpaceOnUse"
       y2="1007.4331"
       x2="26.509884"
       y1="1049.3497"
       x1="26.509884"
       id="linearGradient4047"
       xlink:href="#linearGradient4708"
       inkscape:collect="always"
       gradientTransform="translate(353.14286,-564.57143)" />
    <linearGradient
       inkscape:collect="always"
       id="linearGradient4708">
      <stop
         style="stop-color:#47b73d;stop-opacity:1"
         offset="0"
         id="stop4710" />
      <stop
         style="stop-color:#ade355;stop-opacity:1"
         offset="1"
         id="stop4712" />
    </linearGradient>
  </defs>
  <sodipodi:namedview
     id="base"
     pagecolor="#ffffff"
     bordercolor="#666666"
     borderopacity="1.0"
     inkscape:pageopacity="0.0"
     inkscape:pageshadow="2"
     inkscape:zoom="4.1204779"
     inkscape:cx="-33.956269"
     inkscape:cy="18.111376"
     inkscape:document-units="px"
     inkscape:current-layer="layer1"
     showgrid="false"
     fit-margin-top="0"
     fit-margin-left="0"
     fit-margin-right="0"
     fit-margin-bottom="0"
     inkscape:window-width="1366"
     inkscape:window-height="718"
     inkscape:window-x="0"
     inkscape:window-y="23"
     inkscape:window-maximized="1">
    <inkscape:grid
       type="xygrid"
       id="grid894" />
  </sodipodi:namedview>
  <metadata
     id="metadata7">
    <rdf:RDF>
      <cc:Work
         rdf:about="">
        <dc:format>image/svg+xml</dc:format>
        <dc:type
           rdf:resource="http://purl.org/dc/dcmitype/StillImage" />
        <dc:title />
      </cc:Work>
    </rdf:RDF>
  </metadata>
  <g
     inkscape:label="Capa 1"
     inkscape:groupmode="layer"
     id="layer1"
     transform="translate(-353.14286,-439.79074)">
    <text
       xml:space="preserve"
       style="font-size:40px;font-style:normal;font-weight:normal;line-height:125%;letter-spacing:0px;word-spacing:0px;fill:#000000;fill-opacity:1;stroke:none;font-family:sans-serif"
       x="303.14285"
       y="479.2908"
       id="text959"
       sodipodi:linespacing="125%"><tspan
         y="479.2908"
         x="303.14285"
         sodipodi:role="line"
         id="tspan961" /></text>
    <text
       xml:space="preserve"
       style="font-size:40px;font-style:italic;font-variant:normal;font-weight:bold;font-stretch:normal;line-height:125%;letter-spacing:0px;word-spacing:0px;fill:#000000;fill-opacity:1;stroke:none;font-family:URW Chancery L;-inkscape-font-specification:URW Chancery L Bold Italic"
       x="423.44385"
       y="472.63586"
       id="text3025"
       sodipodi:linespacing="125%"><tspan
         sodipodi:role="line"
         id="tspan3027"
         x="423.44385"
         y="472.63586" /></text>
    <rect
       style="fill:#000000;fill-opacity:0.01960784;stroke:none"
       id="rect5263"
       width="44.399963"
       height="44.399963"
       x="354.94287"
       y="441.59076"
       ry="6.2786646" />
    <rect
       ry="6.1938181"
       y="441.89081"
       x="355.24286"
       height="43.799973"
       width="43.799973"
       id="rect5261"
       style="fill:#000000;fill-opacity:0.03921569;stroke:none" />
    <rect
       style="fill:#000000;fill-opacity:0.07843137;stroke:none"
       id="rect5259"
       width="43.199982"
       height="43.199982"
       x="355.54288"
       y="442.1908"
       ry="6.1089716" />
    <rect
       ry="6.0241251"
       y="442.49078"
       x="355.84286"
       height="42.599991"
       width="42.599991"
       id="rect5257"
       style="fill:#000000;fill-opacity:0.15686275;stroke:none" />
    <rect
       style="fill:url(#linearGradient4047);fill-opacity:1.0;stroke:none"
       id="rect5237"
       width="42"
       height="42"
       x="356.14285"
       y="442.79077"
       ry="5.9392786" />
    <path
       inkscape:connector-curvature="0"
       style="fill:#000000;fill-opacity:0.11764706;stroke:none"
       d="m 356.14286,476.3533 0,2.5 c 0,3.2904 2.64714,5.9375 5.9375,5.9375 l 30.125,0 c 3.29036,0 5.9375,-2.6471 5.9375,-5.9375 l 0,-2.5 c 0,3.2904 -2.64714,5.9375 -5.9375,5.9375 l -30.125,0 c -3.29036,0 -5.9375,-2.6471 -5.9375,-5.9375 z"
       id="rect5265" />
    <path
       inkscape:connector-curvature="0"
       style="fill:#000000;fill-opacity:0.09803922;stroke:none"
       d="m 356.14286,478.3533 0,0.5 c 0,3.2904 2.64714,5.9375 5.9375,5.9375 l 30.125,0 c 3.29036,0 5.9375,-2.6471 5.9375,-5.9375 l 0,-0.5 c 0,3.2904 -2.64714,5.9375 -5.9375,5.9375 l -30.125,0 c -3.29036,0 -5.9375,-2.6471 -5.9375,-5.9375 z"
       id="path5252" />
    <path
       inkscape:connector-curvature="0"
       id="path4220-7-9"
       d="m 364.14286,450.79075 0,5.5527 0,0.5136 0,0.2716 0,10.6431 0,5.5527 5.55208,0 1.89584,0 2.51874,0 3.03334,3.4663 3.03334,-3.4663 2.51874,0 1.89584,0 5.55208,0 0,-5.5527 0,-10.6431 0,-0.2716 0,-0.5136 0,-5.5527 -5.55208,0 -0.51458,0 -1.38126,0 c -3.07585,0 -5.55208,2.476 -5.55208,5.5527 0,-3.0767 -2.47623,-5.5527 -5.55208,-5.5527 l -1.38126,0 -0.51458,0 -5.55208,0 z m 3.46666,3.4663 3.21615,0 0.31654,0 0.84974,0 c 1.87992,0 3.41757,1.5235 3.41757,3.4166 l 0,0.4834 0,7.4182 0,4.2818 -3.41757,0 -1.16628,0 -3.21615,0 0,-4.2818 0,-7.4182 0,-0.1655 0,-0.3179 0,-3.4166 z m 14.68425,0 0.84974,0 0.31654,0 3.21614,0 0,3.4166 0,0.3179 0,0.1655 0,7.4182 0,4.2818 -3.21614,0 -1.16628,0 -3.41757,0 0,-4.2818 0,-7.4182 0,-0.4834 c 0,-1.8931 1.53766,-3.4166 3.41757,-3.4166 z"
       style="fill:#000000;fill-opacity:0.49803922;fill-rule:evenodd;stroke:none" />
  </g>
</svg>
