<?xml version="1.0" encoding="UTF-8" standalone="no"?>
<!-- Created with Inkscape (http://www.inkscape.org/) -->

<svg
   xmlns:dc="http://purl.org/dc/elements/1.1/"
   xmlns:cc="http://creativecommons.org/ns#"
   xmlns:rdf="http://www.w3.org/1999/02/22-rdf-syntax-ns#"
   xmlns:svg="http://www.w3.org/2000/svg"
   xmlns="http://www.w3.org/2000/svg"
   xmlns:xlink="http://www.w3.org/1999/xlink"
   xmlns:sodipodi="http://sodipodi.sourceforge.net/DTD/sodipodi-0.dtd"
   xmlns:inkscape="http://www.inkscape.org/namespaces/inkscape"
   width="48"
   height="48"
   id="svg5453"
   version="1.1"
   inkscape:version="0.48+devel r"
   sodipodi:docname="chrome-blelaljgakacjdeaggpjilljobdmboff-Default.svg">
  <defs
     id="defs5455">
    <linearGradient
       inkscape:collect="always"
       id="linearGradient7161">
      <stop
         style="stop-color:#dedede;stop-opacity:1"
         offset="0"
         id="stop7163" />
      <stop
         style="stop-color:#f0f0f0;stop-opacity:1"
         offset="1"
         id="stop7165" />
    </linearGradient>
    <linearGradient
       gradientTransform="translate(384.57144,-504.5641)"
       inkscape:collect="always"
       xlink:href="#linearGradient7161"
       id="linearGradient7167"
       x1="29.135878"
       y1="1049.4602"
       x2="29.135878"
       y2="1007.4396"
       gradientUnits="userSpaceOnUse" />
  </defs>
  <sodipodi:namedview
     id="base"
     pagecolor="#ffffff"
     bordercolor="#666666"
     borderopacity="1.0"
     inkscape:pageopacity="0"
     inkscape:pageshadow="2"
     inkscape:zoom="6.3165732"
     inkscape:cx="29.380722"
     inkscape:cy="29.111684"
     inkscape:document-units="px"
     inkscape:current-layer="layer1"
     showgrid="false"
     fit-margin-top="0"
     fit-margin-left="0"
     fit-margin-right="0"
     fit-margin-bottom="0"
     inkscape:window-width="1366"
     inkscape:window-height="665"
     inkscape:window-x="-2"
     inkscape:window-y="26"
     inkscape:window-maximized="1"
     showguides="false" />
  <metadata
     id="metadata5458">
    <rdf:RDF>
      <cc:Work
         rdf:about="">
        <dc:format>image/svg+xml</dc:format>
        <dc:type
           rdf:resource="http://purl.org/dc/dcmitype/StillImage" />
        <dc:title />
      </cc:Work>
    </rdf:RDF>
  </metadata>
  <g
     inkscape:label="Capa 1"
     inkscape:groupmode="layer"
     id="layer1"
     transform="translate(-384.57143,-499.798)">
    <rect
       style="fill:#000000;fill-opacity:0.01960784;stroke:none"
       id="rect5263"
       width="44.399963"
       height="44.399963"
       x="386.37146"
       y="501.59802"
       ry="6.2786646" />
    <rect
       ry="6.1938181"
       y="501.89813"
       x="386.67145"
       height="43.799973"
       width="43.799973"
       id="rect5261"
       style="fill:#000000;fill-opacity:0.03921569;stroke:none" />
    <rect
       style="fill:#000000;fill-opacity:0.07843137;stroke:none"
       id="rect5259"
       width="43.199982"
       height="43.199982"
       x="386.97144"
       y="502.19824"
       ry="6.1089716" />
    <rect
       ry="6.0241251"
       y="502.49823"
       x="387.27145"
       height="42.599991"
       width="42.599991"
       id="rect5257"
       style="fill:#000000;fill-opacity:0.15686275;stroke:none" />
    <rect
       style="fill:url(#linearGradient7167);fill-opacity:1;stroke:none"
       id="rect5237"
       width="42"
       height="42"
       x="387.57144"
       y="502.79803"
       ry="5.9392786" />
    <path
       inkscape:connector-curvature="0"
       style="fill:#000000;fill-opacity:0.11764706;stroke:none"
       d="m 387.57144,536.36055 0,2.5 c 0,3.2904 2.64714,5.9375 5.9375,5.9375 l 30.125,0 c 3.29036,0 5.9375,-2.6471 5.9375,-5.9375 l 0,-2.5 c 0,3.2904 -2.64714,5.9375 -5.9375,5.9375 l -30.125,0 c -3.29036,0 -5.9375,-2.6471 -5.9375,-5.9375 z"
       id="rect5265" />
    <path
       inkscape:connector-curvature="0"
       style="fill:#000000;fill-opacity:0.09803922;stroke:none"
       d="m 387.57144,538.36055 0,0.5 c 0,3.2904 2.64714,5.9375 5.9375,5.9375 l 30.125,0 c 3.29036,0 5.9375,-2.6471 5.9375,-5.9375 l 0,-0.5 c 0,3.2904 -2.64714,5.9375 -5.9375,5.9375 l -30.125,0 c -3.29036,0 -5.9375,-2.6471 -5.9375,-5.9375 z"
       id="path5252" />
    <path
       style="fill:#000000;fill-opacity:0.49803922;fill-rule:nonzero;stroke:none"
       d="m 408.57143,510.798 c -7.17648,0 -13,5.82365 -13,13 0,7.17608 5.82352,13 13,13 7.17595,0 13,-5.82392 13,-13 0,-7.17635 -5.82405,-13 -13,-13 z m 0,2.65304 c 3.43472,0 6.69821,1.76214 8.58631,4.63083 0.47304,0.71936 0.85478,1.50283 1.1336,2.31536 0.0885,0.25777 0.1733,0.50838 0.2411,0.77183 0.21674,0.85545 0.31922,1.74594 0.31352,2.62894 -0.0136,1.66194 -0.54304,3.4847 -2.62893,2.60485 -0.98551,-0.41574 -1.82357,-1.24293 -2.43591,-2.09842 -0.70289,-0.98238 -1.40724,-1.95439 -2.1948,-2.87004 -0.74057,-0.85998 -1.53194,-1.69138 -2.38784,-2.43604 -0.85276,-0.74398 -1.77466,-1.43802 -2.79775,-1.92946 -0.68624,-0.33084 -1.39059,-0.58648 -2.12238,-0.79601 -0.0821,-0.0229 -0.31998,-0.12579 -0.38595,-0.0239 -0.0411,0.0634 -0.009,0.17141 0,0.24124 0.0173,0.15139 0.03,0.30711 0.048,0.45824 0.21898,1.81456 0.32182,3.73682 -0.2411,5.49904 -0.30233,0.94975 -0.85631,1.81162 -1.59185,2.48428 -0.60902,0.55696 -1.47545,1.1256 -2.33952,1.08531 -0.15947,-0.008 -0.32444,-0.0428 -0.48247,-0.0965 -0.92556,-0.31163 -0.98349,-1.3008 -0.98877,-2.12238 -0.008,-0.883 0.0949,-1.77348 0.31353,-2.62894 0.0666,-0.26344 0.15301,-0.51405 0.2411,-0.7719 1.01037,-2.93076 3.35752,-5.32635 6.29512,-6.36726 1.10051,-0.39024 2.25796,-0.57906 3.42504,-0.57906 z"
       id="path14"
       inkscape:connector-curvature="0" />
  </g>
</svg>
