<?xml version="1.0" encoding="UTF-8" standalone="no"?>
<!-- Created with Inkscape (http://www.inkscape.org/) -->

<svg
   xmlns:dc="http://purl.org/dc/elements/1.1/"
   xmlns:cc="http://creativecommons.org/ns#"
   xmlns:rdf="http://www.w3.org/1999/02/22-rdf-syntax-ns#"
   xmlns:svg="http://www.w3.org/2000/svg"
   xmlns="http://www.w3.org/2000/svg"
   xmlns:xlink="http://www.w3.org/1999/xlink"
   xmlns:sodipodi="http://sodipodi.sourceforge.net/DTD/sodipodi-0.dtd"
   xmlns:inkscape="http://www.inkscape.org/namespaces/inkscape"
   width="48"
   height="48"
   id="svg2"
   version="1.1"
   inkscape:version="0.48.4 r9939"
   sodipodi:docname="hwinfo.svg">
  <defs
     id="defs4">
    <linearGradient
       id="linearGradient4708"
       inkscape:collect="always">
      <stop
         id="stop4710"
         offset="0"
         style="stop-color:#47b73d;stop-opacity:1" />
      <stop
         id="stop4712"
         offset="1"
         style="stop-color:#ade355;stop-opacity:1" />
    </linearGradient>
    <linearGradient
       gradientTransform="translate(-1.262207e-7,3.7778125e-5)"
       inkscape:collect="always"
       xlink:href="#linearGradient4708"
       id="linearGradient4101"
       x1="29.109528"
       y1="1049.3851"
       x2="29.109528"
       y2="1007.3748"
       gradientUnits="userSpaceOnUse" />
  </defs>
  <sodipodi:namedview
     id="base"
     pagecolor="#ffffff"
     bordercolor="#666666"
     borderopacity="1.0"
     inkscape:pageopacity="0.0"
     inkscape:pageshadow="2"
     inkscape:zoom="3.5637769"
     inkscape:cx="45.173423"
     inkscape:cy="17.721375"
     inkscape:document-units="px"
     inkscape:current-layer="layer1"
     showgrid="true"
     inkscape:window-width="1366"
     inkscape:window-height="689"
     inkscape:window-x="-2"
     inkscape:window-y="-3"
     inkscape:window-maximized="1"
     showguides="false"
     borderlayer="true"
     inkscape:showpageshadow="false"
     inkscape:snap-bbox="false" />
  <metadata
     id="metadata7">
    <rdf:RDF>
      <cc:Work
         rdf:about="">
        <dc:format>image/svg+xml</dc:format>
        <dc:type
           rdf:resource="http://purl.org/dc/dcmitype/StillImage" />
        <dc:title></dc:title>
      </cc:Work>
    </rdf:RDF>
  </metadata>
  <g
     inkscape:label="Capa 1"
     inkscape:groupmode="layer"
     id="layer1"
     transform="translate(0,-1004.3622)">
    <rect
       style="fill:#000000;fill-opacity:0.01960784;stroke:none"
       id="rect5263"
       width="44.399963"
       height="44.399963"
       x="1.8000183"
       y="1006.1622"
       ry="6.2786646" />
    <rect
       ry="6.1938181"
       y="1006.4622"
       x="2.1000137"
       height="43.799973"
       width="43.799973"
       id="rect5261"
       style="fill:#000000;fill-opacity:0.03921569;stroke:none" />
    <rect
       style="fill:#000000;fill-opacity:0.07843138;stroke:none"
       id="rect5259"
       width="43.199982"
       height="43.199982"
       x="2.4000092"
       y="1006.7622"
       ry="6.1089716" />
    <rect
       ry="6.0241251"
       y="1007.0622"
       x="2.7000046"
       height="42.599991"
       width="42.599991"
       id="rect5257"
       style="fill:#000000;fill-opacity:0.15686275;stroke:none" />
    <rect
       style="fill:url(#linearGradient4101);fill-opacity:1;stroke:none"
       id="rect5237-3"
       width="42"
       height="42"
       x="3"
       y="1007.3622"
       ry="5.9392786" />
    <path
       style="fill:#000000;fill-opacity:0.11764706;stroke:none"
       d="M 3 36.5625 L 3 39.0625 C 3 42.35286 5.6471397 45 8.9375 45 L 39.0625 45 C 42.35286 45 45 42.35286 45 39.0625 L 45 36.5625 C 45 39.85286 42.35286 42.5 39.0625 42.5 L 8.9375 42.5 C 5.6471397 42.5 3 39.85286 3 36.5625 z "
       id="rect5265"
       transform="translate(0,1004.3622)" />
    <path
       style="fill:#000000;fill-opacity:0.09803922;stroke:none"
       d="M 3 38.5625 L 3 39.0625 C 3 42.35286 5.6471397 45 8.9375 45 L 39.0625 45 C 42.35286 45 45 42.35286 45 39.0625 L 45 38.5625 C 45 41.8529 42.35286 44.5 39.0625 44.5 L 8.9375 44.5 C 5.6471397 44.5 3 41.8529 3 38.5625 z "
       transform="translate(0,1004.3622)"
       id="path5252" />
    <path
       style="fill:#000000"
       d=""
       id="path906"
       inkscape:connector-curvature="0" />
    <path
       inkscape:connector-curvature="0"
       d="m 14.41465,1035.5225 c 0,-0.7491 -0.5141,-1.3758 -1.2083,-1.5517 l 0,-1.0074 c 0.02,-0.9206 0.4247,-1.2445 1.0133,-1.4761 0.899,-0.3167 2.1919,-0.6047 2.4144,-0.6545 0.2085,0.3511 0.5876,0.5888 1.0258,0.5888 0.6609,0 1.197,-0.5358 1.197,-1.197 0,-0.6609 -0.5358,-1.1968 -1.197,-1.1968 -0.5964,0 -1.0869,0.4373 -1.178,1.0075 -0.1748,0.039 -1.5334,0.3368 -2.531,0.6865 -0.804,0.2577 -1.5761,0.9994 -1.5555,2.2416 l 0,1.0133 c -0.6826,0.1839 -1.1856,0.8051 -1.1856,1.5458 0,0.8851 0.7172,1.6029 1.6028,1.6029 0.8849,0 1.602,-0.7175 1.602,-1.6029 z m -2.3936,0 c 0,-0.437 0.3543,-0.7902 0.7913,-0.7907 0.4365,5e-4 0.7902,0.354 0.7907,0.7907 0,0.4369 -0.3545,0.7909 -0.7907,0.7916 -0.437,-7e-4 -0.7907,-0.3543 -0.7913,-0.7916 z m 11.5805,4.1351 c 0,-0.7447 -0.5086,-1.3687 -1.1968,-1.5485 l 0,-2.3755 c 0.4602,-0.1666 0.7912,-0.6036 0.7912,-1.1215 0,-0.6609 -0.5357,-1.1969 -1.1969,-1.1969 -0.6612,0 -1.197,0.5357 -1.197,1.1969 0,0.5179 0.3307,0.9549 0.7911,1.1215 l 0,2.3755 c -0.6883,0.1801 -1.1967,0.8043 -1.1967,1.5488 0,0.8854 0.717,1.6023 1.6023,1.6028 0.8854,0 1.6024,-0.718 1.6028,-1.6031 z m -2.3939,0 c 0,-0.4369 0.3541,-0.7901 0.7911,-0.7909 0.4368,5e-4 0.7908,0.354 0.7911,0.7909 0,0.4368 -0.3543,0.7908 -0.7911,0.7914 -0.437,-6e-4 -0.7904,-0.3545 -0.7911,-0.7914 z m 4.6402,-0.6035 c -0.2077,-0.1579 -0.3394,-0.3808 -0.3473,-0.9176 0,-0.884 0.01,-1.8865 0.014,-2.3346 0.4619,-0.1658 0.7943,-0.6031 0.7943,-1.1223 0,-0.661 -0.5357,-1.197 -1.1971,-1.197 -0.6612,0 -1.1971,0.5358 -1.1971,1.197 0,0.517 0.3297,0.9533 0.7886,1.1206 0,0.4528 -0.013,1.4523 -0.013,2.3366 -0.01,0.6807 0.2226,1.2462 0.6807,1.5728 0.4521,0.3237 1.0184,0.4076 1.6609,0.4106 l 6.5949,0 c 0.1639,0.7112 0.7996,1.2415 1.5606,1.2421 0.8849,-7e-4 1.6024,-0.7173 1.6029,-1.603 0,-0.8851 -0.7172,-1.6017 -1.6029,-1.6023 -0.7281,2e-4 -1.3422,0.4862 -1.5374,1.1512 l -6.6183,0 c -0.5687,0 -0.9703,-0.094 -1.1838,-0.2542 z m 9.3389,-0.086 c 0.4365,5e-4 0.7905,0.3544 0.7909,0.7909 0,0.4374 -0.354,0.7906 -0.7909,0.7917 -0.4367,0 -0.7908,-0.3546 -0.7914,-0.7917 0,-0.4366 0.3546,-0.7905 0.7914,-0.7909 z m -12.0136,-16.4173 c 0,-0.5179 -0.3309,-0.9546 -0.7911,-1.1215 l 0,-2.9158 c 0.6882,-0.1798 1.1963,-0.8039 1.1969,-1.5489 0,-0.8846 -0.7175,-1.6024 -1.6029,-1.6024 -0.8851,9e-4 -1.6023,0.717 -1.6028,1.6024 10e-5,0.745 0.5089,1.3689 1.1968,1.5489 l 0,2.9162 c -0.4602,0.1666 -0.7909,0.6033 -0.7909,1.1212 0,0.6609 0.5357,1.1972 1.1969,1.1972 0.6609,0 1.1971,-0.5363 1.1971,-1.1972 z m -1.9885,-5.5863 c 0,-0.4365 0.3546,-0.7902 0.7913,-0.7908 0.4368,6e-4 0.7908,0.3543 0.7914,0.7908 0,0.4373 -0.3541,0.791 -0.7914,0.7915 -0.4367,-5e-4 -0.7907,-0.3542 -0.7913,-0.7915 z m 3.4521,0.068 c 0,0.5073 0.2365,0.9584 0.6036,1.2521 -0.075,0.1955 -0.1774,0.4622 -0.2745,0.7042 -0.1157,0.2793 -0.2194,0.6066 -0.2144,1.119 0,0.3465 0,1.2241 0,1.3899 -0.4602,0.1669 -0.791,0.6036 -0.791,1.1212 0,0.6609 0.536,1.1972 1.1972,1.1972 0.6612,0 1.1969,-0.536 1.1969,-1.1972 0,-0.5181 -0.3309,-0.9549 -0.7915,-1.1215 l 0,-1.3895 c 0.01,-0.4335 0.055,-0.5519 0.1568,-0.8183 0.092,-0.2309 0.1896,-0.483 0.2639,-0.6766 0.084,0.013 0.1691,0.022 0.2566,0.022 0.8847,0 1.6023,-0.7166 1.6023,-1.6028 0,-0.8846 -0.7174,-1.6021 -1.6023,-1.6029 -0.8851,8e-4 -1.6026,0.7175 -1.6031,1.6029 z m 2.3939,0 c 0,0.4373 -0.3539,0.791 -0.7907,0.7915 -0.4373,-5e-4 -0.7913,-0.3542 -0.7919,-0.7915 0,-0.4365 0.3546,-0.7902 0.7919,-0.7908 0.437,6e-4 0.7902,0.3543 0.7907,0.7908 z m -7.3095,13.7789 c 0,0.9411 0.7629,1.7035 1.704,1.7039 l 4.2736,0 c 0.9409,-5e-4 1.7035,-0.7628 1.7035,-1.7039 l 0,-4.3911 c 0,-0.9411 -0.7628,-1.7037 -1.7039,-1.7043 l 0,6e-4 -4.2738,0 c -0.9411,0 -1.7034,0.7624 -1.7039,1.7037 l 0,4.3911 z m -5.287,-3.354 2.1042,0 c 0.1666,0.4603 0.6034,0.791 1.1215,0.791 0.6609,0 1.197,-0.5356 1.197,-1.1966 0,-0.6612 -0.5358,-1.1972 -1.197,-1.1972 -0.5185,0 -0.9552,0.3312 -1.1215,0.7918 l -2.1039,0 c -0.1801,-0.6888 -0.804,-1.1975 -1.5491,-1.1975 -0.8851,0 -1.6023,0.7172 -1.6028,1.6029 0,0.8851 0.7177,1.6023 1.6028,1.6023 0.7448,0 1.3687,-0.5083 1.5488,-1.1967 z m -2.3406,-0.4056 c 0,-0.4368 0.3548,-0.791 0.7915,-0.7916 0.4371,6e-4 0.7905,0.354 0.7916,0.7916 0,0.4364 -0.3545,0.7907 -0.7916,0.7912 -0.4362,-5e-4 -0.7904,-0.3548 -0.7915,-0.7912 z m 16.1176,3.1755 c 0,0.4887 0.2936,0.9073 0.7131,1.0933 l 0,3.8082 c 0,0.4156 0.098,0.862 0.4121,1.2137 0.3149,0.3537 0.8165,0.5477 1.4472,0.5444 0.1782,-2e-4 0.3683,-0.01 0.5318,-0.013 0.1719,0.7002 0.8016,1.22 1.5548,1.22 0.8851,0 1.6023,-0.7172 1.6027,-1.6024 0,-0.8851 -0.7174,-1.6023 -1.6027,-1.6023 -0.7362,0 -1.3544,0.4963 -1.5426,1.1722 -0.1655,0.01 -0.3656,0.014 -0.5441,0.014 -0.4853,0 -0.7104,-0.1298 -0.8432,-0.275 -0.1333,-0.1466 -0.2047,-0.3767 -0.2047,-0.6715 l 0,-3.7555 c 0.5008,-0.1431 0.8694,-0.599 0.8694,-1.1461 0,-0.6606 -0.5354,-1.1968 -1.1969,-1.1968 -0.6609,10e-5 -1.1969,0.5362 -1.1969,1.1968 z m 4.659,5.4725 c 0.4367,0 0.7907,0.3542 0.7915,0.7915 0,0.4368 -0.3548,0.7902 -0.7915,0.7913 -0.4373,0 -0.7905,-0.3548 -0.791,-0.7913 0,-0.4373 0.3537,-0.7902 0.791,-0.7915 z m -0.4744,-13.1205 c -0.3864,-0.01 -1.0027,-0.023 -1.6118,-0.023 -0.6314,0 -1.1325,0.1907 -1.4473,0.5447 -0.3148,0.3518 -0.4124,0.798 -0.4124,1.2132 l 0,1.5871 0.166,0 c -0.5057,0.1402 -0.8791,0.5987 -0.8791,1.1492 0,0.6605 0.5357,1.1968 1.1969,1.1968 0.6612,0 1.1969,-0.536 1.1969,-1.1968 0,-0.5505 -0.3732,-1.009 -0.8793,-1.1492 l 0.01,0 c 0,0 0,-0.1851 0,-0.4765 0,-0.2913 0,-0.6883 0,-1.1106 0,-0.2945 0.071,-0.5244 0.2042,-0.6713 0.1333,-0.1449 0.3583,-0.2718 0.844,-0.2753 0.6193,0 1.2503,0.013 1.6286,0.024 0.1912,0.671 0.8075,1.1635 1.5401,1.1635 0.8851,0 1.6026,-0.7175 1.6026,-1.6026 0,-0.8852 -0.7172,-1.6026 -1.6026,-1.6026 -0.7561,0 -1.3887,0.5243 -1.5569,1.2296 z m 2.3485,0.3731 c 0,0.437 -0.3543,0.7907 -0.7913,0.7912 -0.437,-5e-4 -0.7908,-0.3542 -0.7913,-0.7912 0,-0.4371 0.3543,-0.7908 0.7913,-0.7913 0.437,5e-4 0.7907,0.354 0.7913,0.7913 z"
       id="path3"
       style="fill:#000000;fill-opacity:0.49411765" />
  </g>
</svg>
