<?xml version="1.0" encoding="UTF-8" standalone="no"?>
<!-- Created with Inkscape (http://www.inkscape.org/) -->

<svg
   xmlns:dc="http://purl.org/dc/elements/1.1/"
   xmlns:cc="http://creativecommons.org/ns#"
   xmlns:rdf="http://www.w3.org/1999/02/22-rdf-syntax-ns#"
   xmlns:svg="http://www.w3.org/2000/svg"
   xmlns="http://www.w3.org/2000/svg"
   xmlns:xlink="http://www.w3.org/1999/xlink"
   xmlns:sodipodi="http://sodipodi.sourceforge.net/DTD/sodipodi-0.dtd"
   xmlns:inkscape="http://www.inkscape.org/namespaces/inkscape"
   width="48"
   height="48"
   id="svg2"
   version="1.1"
   inkscape:version="0.49 r12742"
   sodipodi:docname="instagram.svg">
  <defs
     id="defs4">
    <linearGradient
       gradientTransform="translate(-7.1054687e-7,1.8863945e-4)"
       inkscape:collect="always"
       xlink:href="#linearGradient4678"
       id="linearGradient5353"
       x1="28.728134"
       y1="1049.4073"
       x2="28.728134"
       y2="1007.5463"
       gradientUnits="userSpaceOnUse" />
    <linearGradient
       id="linearGradient4678"
       inkscape:collect="always">
      <stop
         id="stop4680"
         offset="0"
         style="stop-color:#0a7fe7;stop-opacity:1" />
      <stop
         id="stop4682"
         offset="1"
         style="stop-color:#50bffc;stop-opacity:1" />
    </linearGradient>
  </defs>
  <sodipodi:namedview
     id="base"
     pagecolor="#ffffff"
     bordercolor="#666666"
     borderopacity="1.0"
     inkscape:pageopacity="0.0"
     inkscape:pageshadow="2"
     inkscape:zoom="8.1825098"
     inkscape:cx="28.582057"
     inkscape:cy="25.491591"
     inkscape:document-units="px"
     inkscape:current-layer="layer1"
     showgrid="false"
     inkscape:window-width="1366"
     inkscape:window-height="718"
     inkscape:window-x="0"
     inkscape:window-y="23"
     inkscape:window-maximized="1">
    <sodipodi:guide
       position="11,37.000017"
       orientation="26,0"
       id="guide4118" />
    <sodipodi:guide
       position="11,11.000017"
       orientation="0,26"
       id="guide4120" />
    <sodipodi:guide
       position="37,11.000017"
       orientation="-26,0"
       id="guide4122" />
    <sodipodi:guide
       position="37,37.000017"
       orientation="0,-26"
       id="guide4124" />
    <sodipodi:guide
       position="14,34.000017"
       orientation="20,0"
       id="guide4135" />
    <sodipodi:guide
       position="14,14.000017"
       orientation="0,20"
       id="guide4137" />
    <sodipodi:guide
       position="34,14.000017"
       orientation="-20,0"
       id="guide4139" />
    <sodipodi:guide
       position="34,34.000017"
       orientation="0,-20"
       id="guide4141" />
    <sodipodi:guide
       position="30,34.000017"
       orientation="4,0"
       id="guide4145" />
    <sodipodi:guide
       position="30,30.000017"
       orientation="0,4"
       id="guide4147" />
    <sodipodi:guide
       position="34,30.000017"
       orientation="-4,0"
       id="guide4149" />
    <sodipodi:guide
       position="34,34.000017"
       orientation="0,-4"
       id="guide4151" />
    <sodipodi:guide
       position="14,30.000078"
       orientation="3.999939,0"
       id="guide4155" />
    <sodipodi:guide
       position="14,26.000139"
       orientation="0,20"
       id="guide4157" />
    <sodipodi:guide
       position="34,26.000139"
       orientation="-3.999939,0"
       id="guide4159" />
    <sodipodi:guide
       position="34,30.000078"
       orientation="0,-20"
       id="guide4161" />
  </sodipodi:namedview>
  <metadata
     id="metadata7">
    <rdf:RDF>
      <cc:Work
         rdf:about="">
        <dc:format>image/svg+xml</dc:format>
        <dc:type
           rdf:resource="http://purl.org/dc/dcmitype/StillImage" />
        <dc:title></dc:title>
      </cc:Work>
    </rdf:RDF>
  </metadata>
  <g
     inkscape:label="Capa 1"
     inkscape:groupmode="layer"
     id="layer1"
     transform="translate(0,-1004.3622)">
    <rect
       style="fill:#000000;fill-opacity:0.01960784;stroke:none"
       id="rect5263-0"
       width="44.399963"
       height="44.399963"
       x="1.8000183"
       y="1006.1622"
       ry="6.2786646" />
    <rect
       ry="6.1938181"
       y="1006.4623"
       x="2.1000061"
       height="43.799973"
       width="43.799973"
       id="rect5261-6"
       style="fill:#000000;fill-opacity:0.03921569;stroke:none" />
    <rect
       style="fill:#000000;fill-opacity:0.07843137;stroke:none"
       id="rect5259-9"
       width="43.199982"
       height="43.199982"
       x="2.3999939"
       y="1006.7626"
       ry="6.1089716" />
    <rect
       ry="6.0241251"
       y="1007.0624"
       x="2.7000122"
       height="42.599991"
       width="42.599991"
       id="rect5257-5"
       style="fill:#000000;fill-opacity:0.15686275;stroke:none" />
    <rect
       style="fill:url(#linearGradient5353);fill-opacity:1.0;stroke:none"
       id="rect5237-8"
       width="42"
       height="42"
       x="3"
       y="1007.3622"
       ry="5.9392786" />
    <path
       inkscape:connector-curvature="0"
       style="fill:#000000;fill-opacity:0.11764706;stroke:none"
       d="m 2.9999983,1040.9248 0,2.5 c 0,3.2904 2.64714,5.9375 5.9375004,5.9375 l 30.1250003,0 c 3.29036,0 5.9375,-2.6471 5.9375,-5.9375 l 0,-2.5 c 0,3.2904 -2.64714,5.9375 -5.9375,5.9375 l -30.1250003,0 c -3.2903604,0 -5.9375004,-2.6471 -5.9375004,-5.9375 z"
       id="rect5265-0" />
    <path
       inkscape:connector-curvature="0"
       style="fill:#000000;fill-opacity:0.09803922;stroke:none"
       d="m 2.9999983,1042.9248 0,0.5 c 0,3.2904 2.64714,5.9375 5.9375004,5.9375 l 30.1250003,0 c 3.29036,0 5.9375,-2.6471 5.9375,-5.9375 l 0,-0.5 c 0,3.2904 -2.64714,5.9375 -5.9375,5.9375 l -30.1250003,0 c -3.2903604,0 -5.9375004,-2.6471 -5.9375004,-5.9375 z"
       id="path5252-0" />
    <path
       style="fill:#000000;fill-opacity:0.49803922;stroke:none"
       d="M 11 11 L 11 37 L 37 37 L 37 11 L 11 11 z M 30 14 L 34 14 L 34 18 L 30 18 L 30 14 z M 24 19 C 26.77 19 29 21.23 29 24 C 29 26.77 26.77 29 24 29 C 21.23 29 19 26.77 19 24 C 19 21.23 21.23 19 24 19 z M 14 22 L 16.259766 22 C 16.096052 22.639651 16 23.307916 16 24 C 16 28.432 19.568 32 24 32 C 28.432 32 32 28.432 32 24 C 32 23.307916 31.903948 22.639651 31.740234 22 L 34 22 L 34 34 L 14 34 L 14 22 z "
       transform="translate(0,1004.3622)"
       id="rect4126" />
  </g>
</svg>
