<?xml version="1.0" encoding="UTF-8" standalone="no"?>
<!-- Created with Inkscape (http://www.inkscape.org/) -->

<svg
   xmlns:dc="http://purl.org/dc/elements/1.1/"
   xmlns:cc="http://creativecommons.org/ns#"
   xmlns:rdf="http://www.w3.org/1999/02/22-rdf-syntax-ns#"
   xmlns:svg="http://www.w3.org/2000/svg"
   xmlns="http://www.w3.org/2000/svg"
   xmlns:xlink="http://www.w3.org/1999/xlink"
   xmlns:sodipodi="http://sodipodi.sourceforge.net/DTD/sodipodi-0.dtd"
   xmlns:inkscape="http://www.inkscape.org/namespaces/inkscape"
   width="48"
   height="48"
   id="svg2"
   version="1.1"
   inkscape:version="0.49 r12742"
   sodipodi:docname="ipython.svg"
   inkscape:export-filename="/home/uri/splash.png"
   inkscape:export-xdpi="96"
   inkscape:export-ydpi="96">
  <defs
     id="defs4">
    <linearGradient
       inkscape:collect="always"
       id="linearGradient4708">
      <stop
         style="stop-color:#47b73d;stop-opacity:1"
         offset="0"
         id="stop4710" />
      <stop
         style="stop-color:#ade355;stop-opacity:1"
         offset="1"
         id="stop4712" />
    </linearGradient>
    <linearGradient
       gradientUnits="userSpaceOnUse"
       y2="1007.4396"
       x2="29.135878"
       y1="1049.4602"
       x1="29.135878"
       id="linearGradient7167"
       xlink:href="#linearGradient4708"
       inkscape:collect="always"
       gradientTransform="translate(0,4.7900391e-5)" />
  </defs>
  <sodipodi:namedview
     id="base"
     pagecolor="#ffffff"
     bordercolor="#666666"
     borderopacity="1.0"
     inkscape:pageopacity="0.0"
     inkscape:pageshadow="2"
     inkscape:zoom="8.106298"
     inkscape:cx="5.2612691"
     inkscape:cy="25.584494"
     inkscape:document-units="px"
     inkscape:current-layer="layer1"
     showgrid="false"
     inkscape:window-width="1366"
     inkscape:window-height="718"
     inkscape:window-x="-2"
     inkscape:window-y="23"
     inkscape:window-maximized="1">
    <inkscape:grid
       type="xygrid"
       id="grid3850"
       empspacing="5"
       visible="true"
       enabled="true"
       snapvisiblegridlinesonly="true" />
  </sodipodi:namedview>
  <metadata
     id="metadata7">
    <rdf:RDF>
      <cc:Work
         rdf:about="">
        <dc:format>image/svg+xml</dc:format>
        <dc:type
           rdf:resource="http://purl.org/dc/dcmitype/StillImage" />
        <dc:title />
      </cc:Work>
    </rdf:RDF>
  </metadata>
  <g
     inkscape:label="Capa 1"
     inkscape:groupmode="layer"
     id="layer1"
     transform="translate(0,-1004.3622)">
    <path
       style="fill:#000000"
       d=""
       id="path906"
       inkscape:connector-curvature="0" />
    <rect
       style="fill:#000000;fill-opacity:0.01960784;stroke:none"
       id="rect5263-7"
       width="44.399963"
       height="44.399963"
       x="1.8000183"
       y="1006.1622"
       ry="6.2786646" />
    <rect
       ry="6.1938181"
       y="1006.4623"
       x="2.1000061"
       height="43.799973"
       width="43.799973"
       id="rect5261-1"
       style="fill:#000000;fill-opacity:0.03921569;stroke:none" />
    <rect
       style="fill:#000000;fill-opacity:0.07843137;stroke:none"
       id="rect5259-0"
       width="43.199982"
       height="43.199982"
       x="2.3999939"
       y="1006.7624"
       ry="6.1089716" />
    <rect
       ry="6.0241251"
       y="1007.0624"
       x="2.7000122"
       height="42.599991"
       width="42.599991"
       id="rect5257-6"
       style="fill:#000000;fill-opacity:0.15686275;stroke:none" />
    <rect
       style="fill:url(#linearGradient7167);fill-opacity:1;stroke:none"
       id="rect5237"
       width="42"
       height="42"
       x="3"
       y="1007.3622"
       ry="5.9392786" />
    <path
       inkscape:connector-curvature="0"
       style="fill:#000000;fill-opacity:0.11764706;stroke:none"
       d="m 2.9999991,1040.9247 0,2.5 c 0,3.2904 2.64714,5.9375 5.9375,5.9375 l 30.1249999,0 c 3.29036,0 5.9375,-2.6471 5.9375,-5.9375 l 0,-2.5 c 0,3.2904 -2.64714,5.9375 -5.9375,5.9375 l -30.1249999,0 c -3.29036,0 -5.9375,-2.6471 -5.9375,-5.9375 z"
       id="rect5265-1" />
    <path
       inkscape:connector-curvature="0"
       style="fill:#000000;fill-opacity:0.09803922;stroke:none"
       d="m 2.9999991,1042.9247 0,0.5 c 0,3.2904 2.64714,5.9375 5.9375,5.9375 l 30.1249999,0 c 3.29036,0 5.9375,-2.6471 5.9375,-5.9375 l 0,-0.5 c 0,3.2904 -2.64714,5.9375 -5.9375,5.9375 l -30.1249999,0 c -3.29036,0 -5.9375,-2.6471 -5.9375,-5.9375 z"
       id="path5252-7" />
    <path
       inkscape:connector-curvature="0"
       style="fill:#000000;fill-opacity:0.49803922"
       d="m 23.847079,1015.3624 c -1.060355,0 -2.073355,0.093 -2.964352,0.2522 -2.624776,0.4639 -3.101194,1.435 -3.101194,3.225 l 0,2.3659 6.204037,0 0,0.7864 -6.204037,0 -2.326306,0 c -1.802652,0 -3.382373,1.0845 -3.876079,3.1454 -0.56951,2.3629 -0.594767,3.8361 0,6.3032 0.440914,1.8361 1.49307,3.1459 3.295737,3.1459 l 2.135061,0 0,-2.8361 c 0,-2.0468 1.769289,-3.851 3.872781,-3.851 l 6.195792,0 c 1.724602,0 3.102842,-1.4206 3.102842,-3.1524 l 0,-5.9073 c 0,-1.6809 -1.419593,-2.9443 -3.102842,-3.225 -1.065521,-0.1772 -2.171084,-0.2572 -3.23144,-0.2522 z m -3.353445,1.9028 c 0.640688,0 1.163979,0.5316 1.163979,1.1855 0,0.6514 -0.523291,1.1784 -1.163979,1.1784 -0.642991,0 -1.163977,-0.527 -1.163977,-1.1784 0,-0.6539 0.520986,-1.1855 1.163977,-1.1855 z m 10.459317,4.7267 0,2.755 c 0,2.1355 -1.809982,3.9322 -3.874432,3.9322 l -6.195792,0 c -1.697034,0 -3.101194,1.4525 -3.101194,3.1524 l 0,5.9052 c 0,1.681 1.461571,2.6701 3.101194,3.1524 1.963413,0.5773 3.846594,0.682 6.195792,0 1.561542,-0.4522 3.102842,-1.3624 3.102842,-3.1524 l 0,-2.3624 -6.195791,0 0,-0.7879 6.195791,0 3.099544,0 c 1.802661,0 2.474291,-1.2585 3.101193,-3.1459 0.647585,-1.9431 0.620025,-3.8103 0,-6.3032 -0.445498,-1.7943 -1.296239,-3.1454 -3.101193,-3.1454 l -2.327954,0 z m -3.483693,14.9584 c 0.642976,0 1.163978,0.526 1.163978,1.1774 0,0.6538 -0.521002,1.1855 -1.163978,1.1855 -0.640704,0 -1.163977,-0.5317 -1.163977,-1.1855 0,-0.6514 0.523265,-1.1774 1.163977,-1.1774 z"
       id="path4149" />
  </g>
</svg>
