<?xml version="1.0" encoding="UTF-8" standalone="no"?>
<!-- Created with Inkscape (http://www.inkscape.org/) -->

<svg
   xmlns:dc="http://purl.org/dc/elements/1.1/"
   xmlns:cc="http://creativecommons.org/ns#"
   xmlns:rdf="http://www.w3.org/1999/02/22-rdf-syntax-ns#"
   xmlns:svg="http://www.w3.org/2000/svg"
   xmlns="http://www.w3.org/2000/svg"
   xmlns:xlink="http://www.w3.org/1999/xlink"
   xmlns:sodipodi="http://sodipodi.sourceforge.net/DTD/sodipodi-0.dtd"
   xmlns:inkscape="http://www.inkscape.org/namespaces/inkscape"
   width="48"
   height="48"
   id="svg4230"
   version="1.1"
   inkscape:version="0.49 r12742"
   sodipodi:docname="kile.svg">
  <defs
     id="defs4232">
    <linearGradient
       inkscape:collect="always"
       xlink:href="#linearGradient4678"
       id="linearGradient4047"
       x1="26.056679"
       y1="1049.3649"
       x2="26.056679"
       y2="1007.3625"
       gradientUnits="userSpaceOnUse" />
    <linearGradient
       inkscape:collect="always"
       id="linearGradient4678">
      <stop
         style="stop-color:#0a7fe7;stop-opacity:1"
         offset="0"
         id="stop4680" />
      <stop
         style="stop-color:#50bffc;stop-opacity:1"
         offset="1"
         id="stop4682" />
    </linearGradient>
  </defs>
  <sodipodi:namedview
     id="base"
     pagecolor="#ffffff"
     bordercolor="#666666"
     borderopacity="1.0"
     inkscape:pageopacity="0.0"
     inkscape:pageshadow="2"
     inkscape:zoom="2.0156251"
     inkscape:cx="-134.4011"
     inkscape:cy="91.810287"
     inkscape:document-units="px"
     inkscape:current-layer="layer1"
     showgrid="false"
     inkscape:showpageshadow="false"
     borderlayer="true"
     inkscape:window-width="1366"
     inkscape:window-height="718"
     inkscape:window-x="-2"
     inkscape:window-y="23"
     inkscape:window-maximized="1" />
  <metadata
     id="metadata4235">
    <rdf:RDF>
      <cc:Work
         rdf:about="">
        <dc:format>image/svg+xml</dc:format>
        <dc:type
           rdf:resource="http://purl.org/dc/dcmitype/StillImage" />
        <dc:title />
      </cc:Work>
    </rdf:RDF>
  </metadata>
  <g
     inkscape:label="Capa 1"
     inkscape:groupmode="layer"
     id="layer1"
     transform="translate(0,-1004.3622)">
    <rect
       style="fill:#000000;fill-opacity:0.01960784;stroke:none"
       id="rect5263"
       width="44.399963"
       height="44.399963"
       x="1.8000183"
       y="1006.1622"
       ry="6.2786646" />
    <rect
       ry="6.1938181"
       y="1006.4623"
       x="2.1000061"
       height="43.799973"
       width="43.799973"
       id="rect5261"
       style="fill:#000000;fill-opacity:0.03921569;stroke:none" />
    <rect
       style="fill:#000000;fill-opacity:0.07843137;stroke:none"
       id="rect5259"
       width="43.199982"
       height="43.199982"
       x="2.3999939"
       y="1006.7623"
       ry="6.1089716" />
    <rect
       ry="6.0241251"
       y="1007.0623"
       x="2.7000122"
       height="42.599991"
       width="42.599991"
       id="rect5257"
       style="fill:#000000;fill-opacity:0.15686275;stroke:none" />
    <rect
       style="fill:url(#linearGradient4047);fill-opacity:1.0;stroke:none"
       id="rect5237"
       width="42"
       height="42"
       x="3"
       y="1007.3622"
       ry="5.9392786" />
    <path
       inkscape:connector-curvature="0"
       style="fill:#000000;fill-opacity:0.11764706;stroke:none"
       d="m 2.9999991,1040.9247 0,2.5 c 0,3.2904 2.64714,5.9375 5.9375,5.9375 l 30.1249999,0 c 3.29036,0 5.9375,-2.6471 5.9375,-5.9375 l 0,-2.5 c 0,3.2904 -2.64714,5.9375 -5.9375,5.9375 l -30.1249999,0 C 5.6471391,1046.8622 2.9999991,1044.2151 2.9999991,1040.9247 Z"
       id="rect5265" />
    <path
       inkscape:connector-curvature="0"
       style="fill:#000000;fill-opacity:0.09803922;stroke:none"
       d="m 2.9999991,1042.9247 0,0.5 c 0,3.2904 2.64714,5.9375 5.9375,5.9375 l 30.1249999,0 c 3.29036,0 5.9375,-2.6471 5.9375,-5.9375 l 0,-0.5 c 0,3.2904 -2.64714,5.9375 -5.9375,5.9375 l -30.1249999,0 C 5.6471391,1048.8622 2.9999991,1046.2151 2.9999991,1042.9247 Z"
       id="path5252" />
    <g
       transform="matrix(0.36107049,0,0,-0.36107049,24.938366,1037.2761)"
       id="g312"
       style="fill:#000000;fill-opacity:0.49803922" />
    <g
       transform="matrix(0.36107049,0,0,-0.36107049,36.293746,1025.92)"
       id="g316"
       style="fill:#000000;fill-opacity:0.49803922" />
    <path
       style="fill:#000000;fill-opacity:0.49803922"
       inkscape:connector-curvature="0"
       id="path12-5"
       d="m 27.00372,1021.7789 0,0.4365 0.276832,0 c 0.800185,0 1.077421,0.1022 1.353849,0.509 l 2.661226,4.0294 -2.370249,3.506 c -0.203683,0.2907 -0.640552,0.9596 -2.095436,0.9596 l 0,0.4526 0.644594,0 c -0.343786,1.8991 -0.801965,2.8209 -3.103753,2.8209 l -1.919637,0 c -0.683796,0 -0.713296,-0.1014 -0.713296,-0.5821 l 0,-3.8693 1.295249,0 c 1.411238,0 1.570061,0.4668 1.570061,1.7034 l 0.363723,0 0,-3.8415 -0.363723,0 c 0,1.2366 -0.158823,1.6873 -1.570061,1.6873 l -1.295249,0 0,-3.4775 c 0,-0.48 0.0295,-0.5821 0.713296,-0.5821 l 1.861039,0 c 2.225971,0 2.604242,0.8006 2.837022,2.8231 l 0.363722,0 -0.406155,-3.2593 -6.708631,0 -0.274811,-3.2291 -8.860645,0 -0.262688,3.2593 0.349574,0 c 0.203684,-2.3424 0.421919,-2.8231 2.618793,-2.8231 0.26188,0 0.640552,-5e-4 0.786042,0.028 0.305525,0.06 0.305122,0.2191 0.305122,0.5537 l 0,7.6381 c 0,0.4947 -1e-6,0.6972 -1.527629,0.6972 l -0.581954,0 0,0.4526 c 0.596502,-0.042 2.066742,-0.043 2.73599,-0.043 0.669245,0 2.167777,0 2.764279,0.043 l 0,-0.4526 -0.581955,0 c -1.527628,0 -1.527628,-0.2025 -1.527628,-0.6972 l 0,-7.6381 c 0,-0.291 -0.0012,-0.4954 0.260668,-0.5537 0.160037,-0.028 0.554067,-0.028 0.830497,-0.028 2.170761,0 2.39779,0.4827 2.600602,2.7929 l -1.072974,0 0,0.4362 0.333411,0 c 1.120261,0 1.149761,0.1613 1.149761,0.6851 l 0,7.5939 c 0,0.5233 -0.0295,0.6828 -1.149761,0.6828 l -0.333411,0 0,0.4526 8.351435,0 0.533458,-3.2735 2.449054,0 0,-0.4526 c -0.669246,-0.014 -0.917385,-0.4068 -0.917385,-0.6689 0,-0.1307 0.04366,-0.1894 0.145488,-0.3497 l 2.050983,-3.0388 2.299525,3.4612 c 0.0291,0.06 0.07276,0.1163 0.07276,0.1597 0,0.1745 -0.320073,0.4221 -0.945673,0.4365 l 0,0.4526 c 0.50921,-0.042 1.571274,-0.043 2.109583,-0.043 0.611051,0 1.280296,0.014 1.891347,0.043 l 0,-0.4526 -0.276832,0 c -0.756538,0 -1.062468,-0.074 -1.367994,-0.5234 l -3.055256,-4.6253 1.994404,-2.9097 c 0.305526,-0.4655 0.798568,-0.9311 2.093416,-0.9456 l 0,-0.4365 -3.461413,0 0,0.4365 c 0.581955,0.014 0.901221,0.3342 0.901221,0.6687 0,0.1455 -0.0295,0.1736 -0.131342,0.3337 l -1.656953,2.4446 -1.863061,-2.7925 c -0.0291,-0.042 -0.101038,-0.1599 -0.101038,-0.2183 0,-0.1744 0.318458,-0.4217 0.92951,-0.4362 l 0,-0.4365 c -0.494661,0.042 -1.556725,0.041 -2.109579,0.041 -0.451016,0 -1.353045,-0.013 -1.891351,-0.041 z" />
    <path
       inkscape:connector-curvature="0"
       id="path5692_2_-9"
       d="m 36.592767,1034.6122 -1.254453,0.1241 0,5.128 1.240668,-0.1792 0,-2.1918 1.654223,2.4262 1.295807,-0.4136 -1.695578,-2.3296 1.709364,-2.2057 -1.323378,-0.3033 -1.640438,2.2056 0.01378,-2.2607 z m -2.825964,1.2544 c -0.01406,0 -0.0308,0.01 -0.04136,0.014 l -0.482482,0.4963 c -0.02055,0.021 -0.02892,0.058 -0.01379,0.083 l 0.565193,0.9374 c -0.101457,0.1706 -0.176229,0.3574 -0.234348,0.5513 l -1.047675,0.2207 c -0.02922,0.01 -0.05514,0.025 -0.05514,0.055 l 0,0.6893 c 0,0.029 0.02699,0.062 0.05514,0.069 l 1.020104,0.2481 c 0.05436,0.2248 0.13681,0.4384 0.248133,0.6341 l -0.592763,0.8962 c -0.01646,0.025 -0.0075,0.062 0.01379,0.083 l 0.482482,0.4824 c 0.02055,0.02 0.05765,0.03 0.08271,0.014 l 0.923607,-0.5651 c 0.181606,0.1048 0.371982,0.1921 0.578979,0.248 l 0.220562,1.0339 c 0.0061,0.03 0.02535,0.055 0.05514,0.055 l 0.68926,0 c 0.02905,0 0.06199,-0.027 0.06893,-0.055 l 0.248134,-1.0339 c 0.213376,-0.058 0.42052,-0.1522 0.606549,-0.2618 l 0.909822,0.6065 c 0.02505,0.016 0.06144,0.01 0.08271,-0.014 l 0.482484,-0.4825 c 0.02067,-0.021 0.02897,-0.058 0.01379,-0.083 l -0.330845,-0.5513 -0.110281,0.041 c -0.0157,0.01 -0.03212,0 -0.04136,-0.014 0,0 -0.2085,-0.3159 -0.482482,-0.7169 -0.327528,0.641 -0.994997,1.0753 -1.764504,1.0753 -1.093271,0 -1.985067,-0.878 -1.985067,-1.9713 0,-0.8042 0.483064,-1.496 1.171741,-1.8059 l 0,-0.51 c -0.125339,0.044 -0.243327,0.089 -0.358415,0.1517 -8.8e-5,0 -0.01347,0 -0.01379,0 l -0.923608,-0.6066 c -0.01256,-0.01 -0.02729,-0.015 -0.04134,-0.013 z"
       style="fill:#000000;fill-opacity:0.39215686;stroke:none" />
  </g>
</svg>
