<?xml version="1.0" encoding="UTF-8" standalone="no"?>
<!-- Created with Inkscape (http://www.inkscape.org/) -->

<svg
   xmlns:dc="http://purl.org/dc/elements/1.1/"
   xmlns:cc="http://creativecommons.org/ns#"
   xmlns:rdf="http://www.w3.org/1999/02/22-rdf-syntax-ns#"
   xmlns:svg="http://www.w3.org/2000/svg"
   xmlns="http://www.w3.org/2000/svg"
   xmlns:xlink="http://www.w3.org/1999/xlink"
   xmlns:sodipodi="http://sodipodi.sourceforge.net/DTD/sodipodi-0.dtd"
   xmlns:inkscape="http://www.inkscape.org/namespaces/inkscape"
   width="48"
   height="48"
   id="svg2"
   version="1.1"
   inkscape:version="0.49 r12742"
   sodipodi:docname="kuaipan4uk.svg">
  <defs
     id="defs4">
    <linearGradient
       gradientTransform="translate(0,9.5800782e-5)"
       inkscape:collect="always"
       xlink:href="#linearGradient4708"
       id="linearGradient7167"
       x1="29.135878"
       y1="1049.4602"
       x2="29.135878"
       y2="1007.4396"
       gradientUnits="userSpaceOnUse" />
    <linearGradient
       inkscape:collect="always"
       id="linearGradient4708">
      <stop
         style="stop-color:#47b73d;stop-opacity:1"
         offset="0"
         id="stop4710" />
      <stop
         style="stop-color:#ade355;stop-opacity:1"
         offset="1"
         id="stop4712" />
    </linearGradient>
  </defs>
  <sodipodi:namedview
     id="base"
     pagecolor="#ffffff"
     bordercolor="#666666"
     borderopacity="1.0"
     inkscape:pageopacity="0.0"
     inkscape:pageshadow="2"
     inkscape:zoom="3.6239223"
     inkscape:cx="-40.20545"
     inkscape:cy="0.2533777"
     inkscape:document-units="px"
     inkscape:current-layer="layer1"
     showgrid="false"
     inkscape:window-width="1366"
     inkscape:window-height="718"
     inkscape:window-x="-2"
     inkscape:window-y="23"
     inkscape:window-maximized="1" />
  <metadata
     id="metadata7">
    <rdf:RDF>
      <cc:Work
         rdf:about="">
        <dc:format>image/svg+xml</dc:format>
        <dc:type
           rdf:resource="http://purl.org/dc/dcmitype/StillImage" />
        <dc:title />
      </cc:Work>
    </rdf:RDF>
  </metadata>
  <g
     inkscape:label="Capa 1"
     inkscape:groupmode="layer"
     id="layer1"
     transform="translate(0,-1004.3622)">
    <rect
       style="fill:#000000;fill-opacity:0.01960784;stroke:none"
       id="rect5263"
       width="44.399963"
       height="44.399963"
       x="1.8000183"
       y="1006.1622"
       ry="6.2786646" />
    <rect
       ry="6.1938181"
       y="1006.4623"
       x="2.1000061"
       height="43.799973"
       width="43.799973"
       id="rect5261"
       style="fill:#000000;fill-opacity:0.03921569;stroke:none" />
    <rect
       style="fill:#000000;fill-opacity:0.07843137;stroke:none"
       id="rect5259"
       width="43.199982"
       height="43.199982"
       x="2.3999939"
       y="1006.7625"
       ry="6.1089716" />
    <rect
       ry="6.0241251"
       y="1007.0624"
       x="2.7000122"
       height="42.599991"
       width="42.599991"
       id="rect5257"
       style="fill:#000000;fill-opacity:0.15686275;stroke:none" />
    <rect
       style="fill:url(#linearGradient7167);fill-opacity:1.0;stroke:none"
       id="rect5237"
       width="42"
       height="42"
       x="3"
       y="1007.3622"
       ry="5.9392786" />
    <path
       inkscape:connector-curvature="0"
       style="fill:#000000;fill-opacity:0.11764706;stroke:none"
       d="m 2.9999991,1040.9247 0,2.5 c 0,3.2904 2.64714,5.9375 5.9375,5.9375 l 30.1249999,0 c 3.29036,0 5.9375,-2.6471 5.9375,-5.9375 l 0,-2.5 c 0,3.2904 -2.64714,5.9375 -5.9375,5.9375 l -30.1249999,0 c -3.29036,0 -5.9375,-2.6471 -5.9375,-5.9375 z"
       id="rect5265" />
    <path
       inkscape:connector-curvature="0"
       style="fill:#000000;fill-opacity:0.09803922;stroke:none"
       d="m 2.9999991,1042.9247 0,0.5 c 0,3.2904 2.64714,5.9375 5.9375,5.9375 l 30.1249999,0 c 3.29036,0 5.9375,-2.6471 5.9375,-5.9375 l 0,-0.5 c 0,3.2904 -2.64714,5.9375 -5.9375,5.9375 l -30.1249999,0 c -3.29036,0 -5.9375,-2.6471 -5.9375,-5.9375 z"
       id="path5252" />
    <path
       inkscape:connector-curvature="0"
       id="rect4082-4"
       d="m 23.927653,1015.3627 c -0.3296,-0.01 -0.656059,0.111 -0.90186,0.3578 l -4.186139,4.2041 c -0.491601,0.4934 -0.470827,1.3068 0.04778,1.8235 l 6.946132,6.9211 c 0.518639,0.5167 1.331896,0.5347 1.823497,0.041 l 4.187794,-4.2025 c 0.491601,-0.4935 0.46918,-1.3067 -0.04947,-1.8234 l -6.946132,-6.9212 c -0.259324,-0.2584 -0.592038,-0.393 -0.921646,-0.4006 z m -7.824904,7.5328 c -0.213605,0.01 -0.428661,0.097 -0.595196,0.2671 l -4.463131,4.557 c -0.333061,0.3401 -0.341426,0.8713 -0.01975,1.1903 l 2.738551,2.717 c 0.32164,0.319 0.849075,0.3023 1.182144,-0.038 l 4.463131,-4.5585 c 0.333061,-0.3402 0.341426,-0.8714 0.01975,-1.1904 l -2.738551,-2.7154 c -0.16082,-0.1595 -0.373335,-0.236 -0.586948,-0.2292 z m 18.106428,2.5604 c -0.229458,-0.014 -0.453209,0.061 -0.614983,0.2259 l -6.388846,6.5106 c -0.323547,0.3298 -0.279196,0.8965 0.100572,1.2695 l 2.029589,1.9933 c 0.379768,0.373 0.945992,0.4071 1.269531,0.078 l 6.390501,-6.5123 c 0.323539,-0.3296 0.277541,-0.8948 -0.102218,-1.2678 l -2.029598,-1.9932 c -0.189884,-0.1866 -0.42509,-0.2893 -0.654548,-0.3034 z m -13.158567,4.4993 c -0.276182,-0.01 -0.549198,0.091 -0.755121,0.2967 l -3.506866,3.4969 c -0.411845,0.4107 -0.393417,1.0881 0.04119,1.5184 l 5.82004,5.7622 c 0.434638,0.4302 1.114882,0.4453 1.526727,0.035 l 3.506866,-3.4969 c 0.411854,-0.4107 0.393426,-1.0881 -0.0412,-1.5184 l -5.818385,-5.7605 c -0.217327,-0.2152 -0.49708,-0.3267 -0.773261,-0.333 z"
       style="color:#000000;fill:#000000;fill-opacity:0.49803922;fill-rule:nonzero;stroke:none;enable-background:accumulate" />
  </g>
</svg>
