<?xml version="1.0" encoding="UTF-8" standalone="no"?>
<!-- Created with Inkscape (http://www.inkscape.org/) -->

<svg
   xmlns:dc="http://purl.org/dc/elements/1.1/"
   xmlns:cc="http://creativecommons.org/ns#"
   xmlns:rdf="http://www.w3.org/1999/02/22-rdf-syntax-ns#"
   xmlns:svg="http://www.w3.org/2000/svg"
   xmlns="http://www.w3.org/2000/svg"
   xmlns:xlink="http://www.w3.org/1999/xlink"
   xmlns:sodipodi="http://sodipodi.sourceforge.net/DTD/sodipodi-0.dtd"
   xmlns:inkscape="http://www.inkscape.org/namespaces/inkscape"
   width="48"
   height="48"
   id="svg4230"
   version="1.1"
   inkscape:version="0.49 r12742"
   sodipodi:docname="lightworks.svg">
  <defs
     id="defs4232">
    <linearGradient
       id="linearGradient4678">
      <stop
         id="stop4680"
         offset="0"
         style="stop-color:#8796a4;stop-opacity:1;" />
      <stop
         id="stop4682"
         offset="1"
         style="stop-color:#b0b7c5;stop-opacity:1;" />
    </linearGradient>
    <linearGradient
       inkscape:collect="always"
       xlink:href="#linearGradient4678"
       id="linearGradient4101"
       x1="29.109528"
       y1="1049.3851"
       x2="29.109528"
       y2="1007.3748"
       gradientUnits="userSpaceOnUse" />
  </defs>
  <sodipodi:namedview
     id="base"
     pagecolor="#ffffff"
     bordercolor="#666666"
     borderopacity="1.0"
     inkscape:pageopacity="0.0"
     inkscape:pageshadow="2"
     inkscape:zoom="21.767056"
     inkscape:cx="26.025492"
     inkscape:cy="18.868113"
     inkscape:document-units="px"
     inkscape:current-layer="layer1"
     showgrid="false"
     inkscape:showpageshadow="false"
     borderlayer="true"
     inkscape:window-width="1366"
     inkscape:window-height="718"
     inkscape:window-x="0"
     inkscape:window-y="23"
     inkscape:window-maximized="1"
     showguides="true"
     inkscape:guide-bbox="true" />
  <metadata
     id="metadata4235">
    <rdf:RDF>
      <cc:Work
         rdf:about="">
        <dc:format>image/svg+xml</dc:format>
        <dc:type
           rdf:resource="http://purl.org/dc/dcmitype/StillImage" />
        <dc:title />
      </cc:Work>
    </rdf:RDF>
  </metadata>
  <g
     inkscape:label="Capa 1"
     inkscape:groupmode="layer"
     id="layer1"
     transform="translate(0,-1004.3622)">
    <path
       style="fill:#000000"
       d=""
       id="path906"
       inkscape:connector-curvature="0" />
    <rect
       style="fill:#000000;fill-opacity:0.01960784;stroke:none"
       id="rect5263-0"
       width="44.399963"
       height="44.399963"
       x="1.8000183"
       y="1006.1622"
       ry="6.2786646" />
    <rect
       ry="6.1938181"
       y="1006.4623"
       x="2.1000061"
       height="43.799973"
       width="43.799973"
       id="rect5261-1"
       style="fill:#000000;fill-opacity:0.03921569;stroke:none" />
    <rect
       style="fill:#000000;fill-opacity:0.07843137;stroke:none"
       id="rect5259-9"
       width="43.199982"
       height="43.199982"
       x="2.3999939"
       y="1006.7624"
       ry="6.1089716" />
    <rect
       ry="6.0241251"
       y="1007.0624"
       x="2.7000122"
       height="42.599991"
       width="42.599991"
       id="rect5257-6"
       style="fill:#000000;fill-opacity:0.15686275;stroke:none" />
    <rect
       style="fill:url(#linearGradient4101);fill-opacity:1.0;stroke:none"
       id="rect5237-3"
       width="42"
       height="42"
       x="3"
       y="1007.3622"
       ry="5.9392786" />
    <path
       inkscape:connector-curvature="0"
       style="fill:#000000;fill-opacity:0.11764706;stroke:none"
       d="m 2.9999991,1040.9247 0,2.5 c 0,3.2904 2.64714,5.9375 5.9375,5.9375 l 30.1249999,0 c 3.29036,0 5.9375,-2.6471 5.9375,-5.9375 l 0,-2.5 c 0,3.2904 -2.64714,5.9375 -5.9375,5.9375 l -30.1249999,0 C 5.6471391,1046.8622 2.9999991,1044.2151 2.9999991,1040.9247 Z"
       id="rect5265-8" />
    <path
       inkscape:connector-curvature="0"
       style="fill:#000000;fill-opacity:0.09803922;stroke:none"
       d="m 2.9999991,1042.9247 0,0.5 c 0,3.2904 2.64714,5.9375 5.9375,5.9375 l 30.1249999,0 c 3.29036,0 5.9375,-2.6471 5.9375,-5.9375 l 0,-0.5 c 0,3.2904 -2.64714,5.9375 -5.9375,5.9375 l -30.1249999,0 C 5.6471391,1048.8622 2.9999991,1046.2151 2.9999991,1042.9247 Z"
       id="path5252-0" />
    <path
       style="fill:#000000;fill-opacity:0.49803922;stroke:none"
       d="m 17.03299,1015.3622 c -0.684485,7e-4 -1.361756,0.092 -1.897421,0.2718 -1.834498,0.6153 -3.222743,1.9825 -3.854233,3.7951 -0.242815,0.697 -0.278069,0.9494 -0.278199,1.9491 -3e-4,1.9513 0.433035,3.0421 1.737993,4.3575 0.628327,0.6333 0.981207,0.897 1.581706,1.1838 0.886403,0.4233 1.761519,0.6383 2.64451,0.6497 l 0.615799,0.01 0.165672,-0.7497 c 0.520184,-2.3363 2.405777,-4.2331 4.779503,-4.8103 l 0.675199,-0.1655 -0.003,-0.5092 c -0.008,-2.5031 -1.816686,-4.9443 -4.229338,-5.7099 -0.562473,-0.1785 -1.253563,-0.2694 -1.938059,-0.2686 z m 13.822726,0.019 c -0.936587,0 -1.278169,0.046 -1.919306,0.2499 -2.416214,0.7667 -4.223934,3.2031 -4.23246,5.7098 l 0,0.5092 0.67519,0.1656 c 2.378398,0.5783 4.249581,2.4722 4.785746,4.8446 l 0.162551,0.7154 0.562663,0 c 0.310361,0 0.880879,-0.069 1.265991,-0.15 4.603223,-0.9658 6.422635,-6.6853 3.216549,-10.1141 -1.277139,-1.366 -2.595236,-1.9304 -4.516924,-1.9304 z m -7.652197,8.0713 -0.418875,0.069 c -0.672327,0.1075 -1.710184,0.7139 -2.328795,1.3619 -0.6028,0.6315 -1.136433,1.6333 -1.225353,2.2959 l -0.05314,0.3967 2.013079,0 2.01308,0 0,-2.0616 0,-2.0616 z m 1.500431,0 0,2.0616 0,2.0616 2.01308,0 2.01307,0 -0.06564,-0.4249 c -0.109865,-0.7002 -0.612206,-1.6384 -1.212845,-2.2677 -0.618601,-0.648 -1.656467,-1.2544 -2.328795,-1.3619 l -0.418865,-0.069 z m 6.076745,5.635 c -0.04873,0 -0.09677,0.01 -0.140675,0.01 -0.354662,0.031 -0.360356,0.037 -0.575162,0.7777 -0.329984,1.1385 -0.810882,1.9541 -1.659849,2.8082 -0.847407,0.8524 -1.784565,1.3846 -2.960215,1.6805 l -0.69083,0.1718 -0.02812,0.606 c -0.03823,0.7843 0.197715,1.8994 0.572039,2.6987 1.238933,2.6455 4.219111,4.0553 7.045775,3.3329 3.848559,-0.9835 5.764871,-5.1701 3.988654,-8.718 -0.540017,-1.0786 -1.634532,-2.1478 -2.744538,-2.68 -0.835808,-0.4007 -2.076262,-0.7011 -2.80706,-0.6872 z m -3.391608,0.01 c -0.230536,0 -0.480507,0 -0.740834,0.01 l -1.894289,0.025 -0.02812,1.9335 -0.02502,1.9335 0.325091,-0.066 c 0.180013,-0.036 0.643318,-0.2152 1.02843,-0.3967 0.85271,-0.4018 1.41032,-0.8739 1.894289,-1.6024 0.4109,-0.6186 0.802336,-1.644 0.6752,-1.7711 -0.03442,-0.034 -0.54311,-0.059 -1.234741,-0.062 z m -9.765305,0.031 -0.784594,0.028 c -1.620032,0.052 -2.943953,0.6241 -4.091804,1.7711 -1.235661,1.2347 -1.7493,2.4963 -1.747379,4.2918 10e-4,1.2471 0.138624,1.8822 0.612677,2.8519 0.412411,0.8435 1.681314,2.1283 2.55699,2.5863 1.327563,0.6944 2.935557,0.8882 4.357495,0.5248 2.338862,-0.5978 4.045493,-2.37 4.532554,-4.7041 0.08376,-0.4015 0.138084,-1.0022 0.121913,-1.3338 l -0.02812,-0.6029 -0.731468,-0.178 c -1.740464,-0.4267 -3.323161,-1.6969 -4.104302,-3.2892 -0.228336,-0.4654 -0.476855,-1.0939 -0.553287,-1.3962 l -0.140666,-0.5498 z m 1.628599,0 0.03122,0.2999 c 0.05914,0.5489 0.619752,1.5467 1.203469,2.1428 0.562533,0.5744 1.290738,1.0221 2.066216,1.2682 0.696464,0.221 0.658178,0.3297 0.628307,-1.7867 l -0.02812,-1.9242 -1.950567,0 -1.950557,0 z"
       id="rect3071"
       inkscape:connector-curvature="0" />
  </g>
</svg>
