<?xml version="1.0" encoding="UTF-8" standalone="no"?>
<!-- Created with Inkscape (http://www.inkscape.org/) -->

<svg
   xmlns:dc="http://purl.org/dc/elements/1.1/"
   xmlns:cc="http://creativecommons.org/ns#"
   xmlns:rdf="http://www.w3.org/1999/02/22-rdf-syntax-ns#"
   xmlns:svg="http://www.w3.org/2000/svg"
   xmlns="http://www.w3.org/2000/svg"
   xmlns:xlink="http://www.w3.org/1999/xlink"
   xmlns:sodipodi="http://sodipodi.sourceforge.net/DTD/sodipodi-0.dtd"
   xmlns:inkscape="http://www.inkscape.org/namespaces/inkscape"
   width="48"
   height="48"
   id="svg5453"
   version="1.1"
   inkscape:version="0.49 r12742"
   sodipodi:docname="lticon.svg">
  <defs
     id="defs5455">
    <linearGradient
       gradientUnits="userSpaceOnUse"
       y2="1007.3625"
       x2="26.056679"
       y1="1049.3649"
       x1="26.056679"
       id="linearGradient4047"
       xlink:href="#linearGradient4678"
       inkscape:collect="always" />
    <linearGradient
       id="linearGradient4678"
       inkscape:collect="always">
      <stop
         id="stop4680"
         offset="0"
         style="stop-color:#0a7fe7;stop-opacity:1" />
      <stop
         id="stop4682"
         offset="1"
         style="stop-color:#50bffc;stop-opacity:1" />
    </linearGradient>
  </defs>
  <sodipodi:namedview
     id="base"
     pagecolor="#ffffff"
     bordercolor="#666666"
     borderopacity="1.0"
     inkscape:pageopacity="0"
     inkscape:pageshadow="2"
     inkscape:zoom="6.1060716"
     inkscape:cx="20.501662"
     inkscape:cy="23.822826"
     inkscape:document-units="px"
     inkscape:current-layer="layer1"
     showgrid="false"
     fit-margin-top="0"
     fit-margin-left="0"
     fit-margin-right="0"
     fit-margin-bottom="0"
     inkscape:window-width="1366"
     inkscape:window-height="718"
     inkscape:window-x="-2"
     inkscape:window-y="23"
     inkscape:window-maximized="1"
     inkscape:showpageshadow="false"
     borderlayer="true" />
  <metadata
     id="metadata5458">
    <rdf:RDF>
      <cc:Work
         rdf:about="">
        <dc:format>image/svg+xml</dc:format>
        <dc:type
           rdf:resource="http://purl.org/dc/dcmitype/StillImage" />
        <dc:title />
      </cc:Work>
    </rdf:RDF>
  </metadata>
  <g
     inkscape:label="Capa 1"
     inkscape:groupmode="layer"
     id="layer1"
     transform="translate(-384.57143,-499.798)">
    <g
       transform="translate(384.57143,-504.56415)"
       id="layer1-6"
       inkscape:label="Capa 1">
      <rect
         ry="6.2786646"
         y="1006.1622"
         x="1.8000183"
         height="44.399963"
         width="44.399963"
         id="rect5263"
         style="fill:#000000;fill-opacity:0.01960784;stroke:none" />
      <rect
         style="fill:#000000;fill-opacity:0.03921569;stroke:none"
         id="rect5261"
         width="43.799973"
         height="43.799973"
         x="2.1000061"
         y="1006.4623"
         ry="6.1938181" />
      <rect
         ry="6.1089716"
         y="1006.7623"
         x="2.3999939"
         height="43.199982"
         width="43.199982"
         id="rect5259"
         style="fill:#000000;fill-opacity:0.07843137;stroke:none" />
      <rect
         style="fill:#000000;fill-opacity:0.15686275;stroke:none"
         id="rect5257"
         width="42.599991"
         height="42.599991"
         x="2.7000122"
         y="1007.0623"
         ry="6.0241251" />
      <rect
         ry="5.9392786"
         y="1007.3622"
         x="3"
         height="42"
         width="42"
         id="rect5237"
         style="fill:url(#linearGradient4047);fill-opacity:1;stroke:none" />
      <path
         id="rect5265"
         d="m 2.9999991,1040.9247 0,2.5 c 0,3.2904 2.64714,5.9375 5.9375,5.9375 l 30.1249999,0 c 3.29036,0 5.9375,-2.6471 5.9375,-5.9375 l 0,-2.5 c 0,3.2904 -2.64714,5.9375 -5.9375,5.9375 l -30.1249999,0 c -3.29036,0 -5.9375,-2.6471 -5.9375,-5.9375 z"
         style="fill:#000000;fill-opacity:0.11764706;stroke:none"
         inkscape:connector-curvature="0" />
      <path
         id="path5252"
         d="m 2.9999991,1042.9247 0,0.5 c 0,3.2904 2.64714,5.9375 5.9375,5.9375 l 30.1249999,0 c 3.29036,0 5.9375,-2.6471 5.9375,-5.9375 l 0,-0.5 c 0,3.2904 -2.64714,5.9375 -5.9375,5.9375 l -30.1249999,0 c -3.29036,0 -5.9375,-2.6471 -5.9375,-5.9375 z"
         style="fill:#000000;fill-opacity:0.09803922;stroke:none"
         inkscape:connector-curvature="0" />
      <g
         style="fill:#000000;fill-opacity:0.49803922"
         id="g312"
         transform="matrix(0.36107049,0,0,-0.36107049,24.938366,1037.2761)" />
      <g
         style="fill:#000000;fill-opacity:0.49803922"
         id="g316"
         transform="matrix(0.36107049,0,0,-0.36107049,36.293746,1025.92)" />
    </g>
    <path
       style="fill:#000000;fill-opacity:0.49803922;stroke:none"
       d="m 395.29417,510.798 c -0.59429,0 -1.07274,0.47973 -1.07274,1.07565 l 0,23.8487 c 0,0.59592 0.47845,1.07565 1.07274,1.07565 l 15.18386,0 c 0.59433,0 1.07277,-0.47973 1.07277,-1.07565 0,-0.59589 -0.47844,-1.07562 -1.07277,-1.07562 l -11.30356,0 c -1.28097,0 -2.80755,-0.49897 -2.80755,-2.97269 l 0,-19.80039 c 0,-0.59592 -0.47845,-1.07565 -1.07275,-1.07565 z m 11.37064,0 c -0.5943,0 -1.07275,0.47973 -1.07275,1.07565 0,0.59588 0.47845,1.07563 1.07275,1.07563 l 11.30358,0 c 1.28099,0 2.80756,0.49896 2.80756,2.97268 l 0,19.80039 c 0,0.59592 0.47843,1.07565 1.07274,1.07565 0.59429,0 1.07274,-0.47973 1.07274,-1.07565 l 0,-23.8487 c 0,-0.59592 -0.47845,-1.07565 -1.07274,-1.07565 l -15.18388,0 z"
       id="rect4403-2"
       inkscape:connector-curvature="0" />
  </g>
</svg>
