<?xml version="1.0" encoding="UTF-8" standalone="no"?>
<svg
   xmlns:dc="http://purl.org/dc/elements/1.1/"
   xmlns:cc="http://creativecommons.org/ns#"
   xmlns:rdf="http://www.w3.org/1999/02/22-rdf-syntax-ns#"
   xmlns:svg="http://www.w3.org/2000/svg"
   xmlns="http://www.w3.org/2000/svg"
   xmlns:xlink="http://www.w3.org/1999/xlink"
   xmlns:sodipodi="http://sodipodi.sourceforge.net/DTD/sodipodi-0.dtd"
   xmlns:inkscape="http://www.inkscape.org/namespaces/inkscape"
   width="48"
   viewBox="0 0 13.546667 13.546667"
   height="48"
   id="svg2"
   version="1.1"
   inkscape:version="0.48+devel r"
   sodipodi:docname="ms-powerpoint.svg">
  <metadata
     id="metadata94">
    <rdf:RDF>
      <cc:Work
         rdf:about="">
        <dc:format>image/svg+xml</dc:format>
        <dc:type
           rdf:resource="http://purl.org/dc/dcmitype/StillImage" />
        <dc:title />
      </cc:Work>
    </rdf:RDF>
  </metadata>
  <sodipodi:namedview
     pagecolor="#ffffff"
     bordercolor="#666666"
     borderopacity="1"
     objecttolerance="10"
     gridtolerance="10"
     guidetolerance="10"
     inkscape:pageopacity="0"
     inkscape:pageshadow="2"
     inkscape:window-width="1366"
     inkscape:window-height="665"
     id="namedview92"
     showgrid="false"
     inkscape:showpageshadow="false"
     borderlayer="true"
     inkscape:zoom="9.4854171"
     inkscape:cx="1.4174029"
     inkscape:cy="20.67236"
     inkscape:window-x="-2"
     inkscape:window-y="26"
     inkscape:window-maximized="1"
     inkscape:current-layer="svg2" />
  <defs
     id="defs4">
    <defs
       id="defs4922">
      <filter
         height="73.013"
         width="5.8829999"
         y="4.6750002"
         x="3.7850001"
         filterUnits="userSpaceOnUse"
         id="Adobe_OpacityMaskFilter"
         color-interpolation-filters="sRGB">
        <feColorMatrix
           id="feColorMatrix4925"
           values="1 0 0 0 0  0 1 0 0 0  0 0 1 0 0  0 0 0 1 0"
           type="matrix" />
      </filter>
    </defs>
    <mask
       id="SVGID_2_"
       height="73.013"
       width="5.883"
       y="4.675"
       x="3.785"
       maskUnits="userSpaceOnUse">
      <g
         id="g4928"
         style="filter:url(#Adobe_OpacityMaskFilter)">
        <linearGradient
           y2="41.181198"
           x2="9.6680002"
           y1="41.181198"
           x1="3.7852001"
           gradientUnits="userSpaceOnUse"
           id="SVGID_3_">
          <stop
             id="stop4931"
             style="stop-color:#FFFFFF"
             offset="0" />
          <stop
             id="stop4933"
             style="stop-color:#FAFBFB"
             offset="0.0029" />
          <stop
             id="stop4935"
             style="stop-color:#BBBDBF"
             offset="0.0756" />
          <stop
             id="stop4937"
             style="stop-color:#898B8E"
             offset="0.1438" />
          <stop
             id="stop4939"
             style="stop-color:#646567"
             offset="0.2053" />
          <stop
             id="stop4941"
             style="stop-color:#444446"
             offset="0.259" />
          <stop
             id="stop4943"
             style="stop-color:#1D1C1D"
             offset="0.3028" />
          <stop
             id="stop4945"
             style="stop-color:#000000"
             offset="0.3313" />
        </linearGradient>
        <rect
           id="rect4947"
           height="73.013"
           width="5.8829999"
           y="4.6750002"
           x="3.7850001"
           style="fill:url(#SVGID_3_)" />
      </g>
    </mask>
    <linearGradient
       id="linearGradient6075"
       inkscape:collect="always">
      <stop
         id="stop6077"
         offset="0"
         style="stop-color:#ec7928;stop-opacity:1" />
      <stop
         id="stop6079"
         offset="1"
         style="stop-color:#f29e34;stop-opacity:1" />
    </linearGradient>
    <linearGradient
       gradientUnits="userSpaceOnUse"
       y2="1007.4396"
       x2="37.957897"
       y1="1049.3441"
       x1="37.957897"
       id="linearGradient6081"
       xlink:href="#linearGradient6075"
       inkscape:collect="always"
       gradientTransform="matrix(0.28222223,0,0,0.28222223,5.6518557e-8,-283.4533)" />
  </defs>
  <rect
     style="fill:#000000;fill-opacity:0.01960784;stroke:none"
     id="rect5263"
     width="12.530657"
     height="12.530657"
     x="0.50800508"
     y="0.50800508"
     ry="1.7719787" />
  <rect
     ry="1.7480332"
     y="0.59270275"
     x="0.59266847"
     height="12.361326"
     width="12.361326"
     id="rect5261"
     style="fill:#000000;fill-opacity:0.03921569;stroke:none" />
  <rect
     style="fill:#000000;fill-opacity:0.07843137;stroke:none"
     id="rect5259"
     width="12.191996"
     height="12.191996"
     x="0.67733186"
     y="0.67743486"
     ry="1.7240876" />
  <rect
     ry="1.700142"
     y="0.76206368"
     x="0.76200384"
     height="12.022664"
     width="12.022664"
     id="rect5257"
     style="fill:#000000;fill-opacity:0.15686275;stroke:none" />
  <rect
     style="fill:url(#linearGradient6081);fill-opacity:1;stroke:none"
     id="rect5237"
     width="11.853333"
     height="11.853333"
     x="0.84666628"
     y="0.84667522"
     ry="1.6761965" />
  <path
     inkscape:connector-curvature="0"
     style="fill:#000000;fill-opacity:0.11764706;stroke:none"
     d="m 0.84666606,10.318764 0,0.705556 c 0,0.928624 0.74708204,1.675694 1.67569404,1.675694 l 8.5019449,0 c 0.928613,0 1.675695,-0.74707 1.675695,-1.675694 l 0,-0.705556 c 0,0.928624 -0.747082,1.675695 -1.675695,1.675695 l -8.5019449,0 c -0.928612,0 -1.67569404,-0.747071 -1.67569404,-1.675695 z"
     id="rect5265" />
  <path
     inkscape:connector-curvature="0"
     style="fill:#000000;fill-opacity:0.09803922;stroke:none"
     d="m 0.84666606,10.883209 0,0.141111 c 0,0.928624 0.74708204,1.675694 1.67569404,1.675694 l 8.5019449,0 c 0.928613,0 1.675695,-0.74707 1.675695,-1.675694 l 0,-0.141111 c 0,0.928624 -0.747082,1.675694 -1.675695,1.675694 l -8.5019449,0 c -0.928612,0 -1.67569404,-0.74707 -1.67569404,-1.675694 z"
     id="path5252" />
  <path
     style="fill:#000000;fill-opacity:0.49803922;fill-rule:evenodd;stroke:none;stroke-width:0.28222224px;stroke-linecap:butt;stroke-linejoin:miter;stroke-opacity:1"
     d="m 7.3500728,3.1044446 -4.3612552,0.7696058 0,5.807872 4.3612552,0.7602996 z m 0.1661118,0.8440538 0,0.016286 0,0.4322635 0,0.3554889 C 7.7349223,4.5642255 8.0139117,4.4605539 8.3025413,4.4603283 l 0,1.2069876 1.2065226,0 C 9.5090591,6.1553908 9.215044,6.5954031 8.7641187,6.7821741 8.3434279,6.9556957 7.8608964,6.8777927 7.5161846,6.5806993 l 0,0.5630129 0,0.2349764 0,0.3038406 2.4995904,0 0,0.237303 -2.4995904,0 0,0.217295 0,0.2354418 0,0.1144637 2.4995904,0 0,0.2373028 -2.4995904,0 0,0.4066721 0,0.4322637 0,0.01675 0.016286,0 1.2037308,0 0.5848818,0 1.2200158,0 c 0.0092,0 0.01675,-0.0076 0.01675,-0.01675 l 0,-5.5984873 c 0,-0.00916 -0.0076,-0.016286 -0.01675,-0.016286 l -1.2200158,0 -0.5848818,0 -1.2037307,0 z m 0.9729422,0.5281153 c 0.5266303,0.083052 0.9363485,0.5018498 1.0078392,1.0301738 l -1.0078392,0 z m -4.1908418,0.8783855 0.7828462,0 c 0.3045861,0 0.540057,0.07419 0.7069169,0.22251 0.1681843,0.1483202 0.2525573,0.3575847 0.2525573,0.6277389 0,0.2701546 -0.093444,0.4913132 -0.2801681,0.6634707 C 5.5750374,7.0408759 5.3241422,7.1269606 5.0076378,7.1269606 l -0.3755875,0 0,1.0768197 -0.3337652,0 z m 0.3337653,0.3020941 0,1.1681789 0.349601,0 c 0.2304257,0 0.4061248,-0.052519 0.5266347,-0.1571376 0.1218345,-0.1059429 0.1827184,-0.2550295 0.1827184,-0.4470509 0,-0.3760971 -0.222571,-0.5639904 -0.6675309,-0.5639904 z"
     id="path4381"
     inkscape:connector-curvature="0"
     sodipodi:nodetypes="ccccccccccccccccccccccccccccccccsssscccccccccscscsccccccscssc" />
</svg>
