<?xml version="1.0" encoding="UTF-8" standalone="no"?>
<!-- Created with Inkscape (http://www.inkscape.org/) -->

<svg
   xmlns:dc="http://purl.org/dc/elements/1.1/"
   xmlns:cc="http://creativecommons.org/ns#"
   xmlns:rdf="http://www.w3.org/1999/02/22-rdf-syntax-ns#"
   xmlns:svg="http://www.w3.org/2000/svg"
   xmlns="http://www.w3.org/2000/svg"
   xmlns:xlink="http://www.w3.org/1999/xlink"
   xmlns:sodipodi="http://sodipodi.sourceforge.net/DTD/sodipodi-0.dtd"
   xmlns:inkscape="http://www.inkscape.org/namespaces/inkscape"
   width="48"
   height="48"
   id="svg2"
   version="1.1"
   inkscape:version="0.48+devel r12923"
   sodipodi:docname="mysql-workbench.svg">
  <defs
     id="defs4">
    <linearGradient
       id="linearGradient6075"
       inkscape:collect="always">
      <stop
         id="stop6077"
         offset="0"
         style="stop-color:#ec7928;stop-opacity:1" />
      <stop
         id="stop6079"
         offset="1"
         style="stop-color:#f29e34;stop-opacity:1" />
    </linearGradient>
    <linearGradient
       gradientUnits="userSpaceOnUse"
       y2="1007.4396"
       x2="37.957897"
       y1="1049.3441"
       x1="37.957897"
       id="linearGradient6081"
       xlink:href="#linearGradient6075"
       inkscape:collect="always"
       gradientTransform="translate(0,4.7900391e-5)" />
    <style
       type="text/css"
       id="style2464" />
    <style
       id="style2464-7"
       type="text/css" />
  </defs>
  <sodipodi:namedview
     id="base"
     pagecolor="#ffffff"
     bordercolor="#666666"
     borderopacity="1.0"
     inkscape:pageopacity="0.0"
     inkscape:pageshadow="2"
     inkscape:zoom="6.4089597"
     inkscape:cx="36.237236"
     inkscape:cy="18.775049"
     inkscape:document-units="px"
     inkscape:current-layer="layer1"
     showgrid="false"
     inkscape:window-width="1366"
     inkscape:window-height="669"
     inkscape:window-x="0"
     inkscape:window-y="26"
     inkscape:window-maximized="1">
    <inkscape:grid
       type="xygrid"
       id="grid3850" />
  </sodipodi:namedview>
  <metadata
     id="metadata7">
    <rdf:RDF>
      <cc:Work
         rdf:about="">
        <dc:format>image/svg+xml</dc:format>
        <dc:type
           rdf:resource="http://purl.org/dc/dcmitype/StillImage" />
        <dc:title></dc:title>
      </cc:Work>
    </rdf:RDF>
  </metadata>
  <g
     inkscape:label="Capa 1"
     inkscape:groupmode="layer"
     id="layer1"
     transform="translate(0,-1004.3622)">
    <rect
       style="fill:#000000;fill-opacity:0.01960784;stroke:none"
       id="rect5263"
       width="44.399963"
       height="44.399963"
       x="1.8000183"
       y="1006.1622"
       ry="6.2786646" />
    <rect
       ry="6.1938181"
       y="1006.4623"
       x="2.1000061"
       height="43.799973"
       width="43.799973"
       id="rect5261"
       style="fill:#000000;fill-opacity:0.03921569;stroke:none" />
    <rect
       style="fill:#000000;fill-opacity:0.07843137;stroke:none"
       id="rect5259"
       width="43.199982"
       height="43.199982"
       x="2.3999939"
       y="1006.7624"
       ry="6.1089716" />
    <rect
       ry="6.0241251"
       y="1007.0624"
       x="2.7000122"
       height="42.599991"
       width="42.599991"
       id="rect5257"
       style="fill:#000000;fill-opacity:0.15686275;stroke:none" />
    <rect
       style="fill:url(#linearGradient6081);fill-opacity:1;stroke:none"
       id="rect5237"
       width="42"
       height="42"
       x="3"
       y="1007.3622"
       ry="5.9392786" />
    <path
       inkscape:connector-curvature="0"
       style="fill:#000000;fill-opacity:0.11764706;stroke:none"
       d="m 2.9999991,1040.9247 0,2.5 c 0,3.2904 2.64714,5.9375 5.9375,5.9375 l 30.1249999,0 c 3.29036,0 5.9375,-2.6471 5.9375,-5.9375 l 0,-2.5 c 0,3.2904 -2.64714,5.9375 -5.9375,5.9375 l -30.1249999,0 c -3.29036,0 -5.9375,-2.6471 -5.9375,-5.9375 z"
       id="rect5265" />
    <path
       inkscape:connector-curvature="0"
       style="fill:#000000;fill-opacity:0.09803922;stroke:none"
       d="m 2.9999991,1042.9247 0,0.5 c 0,3.2904 2.64714,5.9375 5.9375,5.9375 l 30.1249999,0 c 3.29036,0 5.9375,-2.6471 5.9375,-5.9375 l 0,-0.5 c 0,3.2904 -2.64714,5.9375 -5.9375,5.9375 l -30.1249999,0 c -3.29036,0 -5.9375,-2.6471 -5.9375,-5.9375 z"
       id="path5252" />
    <path
       inkscape:connector-curvature="0"
       id="path26-3-6"
       d="m 12.32948,1015.3632 c -0.631079,-0.011 -1.181004,0.2265 -1.467365,0.925 -0.482156,1.1756 0.720648,2.3226 1.150808,2.9183 0.301965,0.4179 0.687785,0.887 0.903498,1.3569 0.141926,0.3089 0.167118,0.6195 0.288529,0.9464 0.298867,0.8051 0.558145,1.6796 0.944715,2.4237 0.195391,0.3764 0.410809,0.7745 0.657841,1.1113 0.151438,0.2065 0.410733,0.2976 0.451748,0.6166 -0.2538,0.3552 -0.267886,0.9053 -0.41053,1.3553 -0.642396,2.0257 -0.400301,4.5435 0.534186,6.0427 0.286756,0.4603 0.962455,1.447 1.891077,1.0685 0.812342,-0.3309 0.631559,-1.3559 0.86394,-2.2605 0.05258,-0.2051 0.01908,-0.3556 0.122002,-0.493 l 0,0.041 c 0.246669,0.4932 0.493608,0.9858 0.740269,1.4789 0.547536,0.882 1.519325,1.8051 2.342834,2.427 0.427037,0.3225 0.763561,0.8798 1.31569,1.0684 l 0,-0.041 -0.04119,0 c -0.106953,-0.1668 -0.273928,-0.2369 -0.410547,-0.371 -0.321738,-0.3153 -0.680273,-0.707 -0.946361,-1.0683 -0.748962,-1.017 -1.410059,-2.1291 -2.013086,-3.2876 -0.288048,-0.5532 -0.538667,-1.1634 -0.781487,-1.7263 -0.09358,-0.2171 -0.09186,-0.5454 -0.286875,-0.6579 -0.265894,0.4126 -0.658289,0.7462 -0.863941,1.2332 -0.328887,0.7788 -0.371194,1.7276 -0.492968,2.7123 -0.07216,0.026 -0.04009,0.01 -0.08237,0.041 -0.572433,-0.1381 -0.773326,-0.7277 -0.985934,-1.2333 -0.538194,-1.2788 -0.63843,-3.3377 -0.164865,-4.8096 0.122499,-0.3806 0.675892,-1.5806 0.45174,-1.9322 -0.106937,-0.3512 -0.460239,-0.5529 -0.657832,-0.8211 -0.244476,-0.3316 -0.488629,-0.7681 -0.657841,-1.151 -0.440406,-0.997 -0.645924,-2.1167 -1.109597,-3.1243 -0.221579,-0.4819 -0.595659,-0.9699 -0.903498,-1.3983 -0.340786,-0.4744 -0.723525,-0.8242 -0.987579,-1.3979 -0.09394,-0.204 -0.220144,-0.5292 -0.08077,-0.7389 0.04431,-0.1414 0.105755,-0.2011 0.245657,-0.2472 0.238423,-0.1839 0.902483,0.062 1.150799,0.1649 0.659241,0.2737 1.209099,0.5336 1.767438,0.9034 0.26808,0.1778 0.539975,0.5216 0.863924,0.6167 l 0.369312,0 c 0.578669,0.133 1.226856,0.042 1.767429,0.2061 0.955544,0.2905 1.812422,0.7422 2.590145,1.2334 2.369241,1.496 4.3053,3.626 5.630375,6.1664 0.213163,0.409 0.305273,0.7994 0.492983,1.2333 0.378874,0.8748 0.856371,1.7742 1.233237,2.6297 0.376139,0.8536 0.742859,1.715 1.274453,2.4254 0.279634,0.3734 1.359297,0.5742 1.849876,0.7815 0.343901,0.1454 0.907464,0.2967 1.233236,0.493 0.622251,0.3753 1.225033,0.8222 1.808648,1.2333 0.291703,0.2054 1.188566,0.6558 1.233244,1.0271 -1.445573,-0.039 -2.549643,0.095 -3.493632,0.493 -0.268274,0.1132 -0.696519,0.1172 -0.740286,0.4534 0.147421,0.1546 0.17133,0.3853 0.288529,0.5754 0.225419,0.3648 0.605212,0.8533 0.944716,1.1097 0.371007,0.28 0.753063,0.5802 1.150807,0.8227 0.707415,0.4314 1.496742,0.6774 2.17796,1.1096 0.401416,0.2548 0.800325,0.5748 1.192026,0.8623 0.193559,0.1422 0.32379,0.3628 0.575404,0.4518 l 0,-0.04 c -0.132222,-0.1683 -0.165473,-0.4013 -0.286875,-0.577 l -0.534185,-0.5342 c -0.522446,-0.6936 -1.186051,-1.3028 -1.891094,-1.8088 -0.562171,-0.4036 -1.821358,-0.9482 -2.055951,-1.6026 -0.01376,-0.014 -0.02726,-0.028 -0.04118,-0.041 0.398664,-0.045 0.866996,-0.1884 1.23489,-0.2869 0.61804,-0.1657 1.16881,-0.1237 1.806995,-0.2885 0.287685,-0.082 0.576062,-0.1636 0.863933,-0.2457 l 0,-0.1649 c -0.322659,-0.3311 -0.553378,-0.7688 -0.905152,-1.0684 -0.920385,-0.7838 -1.924995,-1.5679 -2.959456,-2.2208 -0.573724,-0.3623 -1.281468,-0.5967 -1.889431,-0.9036 -0.204548,-0.1032 -0.563909,-0.1577 -0.699059,-0.3297 -0.319358,-0.4072 -0.49398,-0.9223 -0.740269,-1.3966 -0.516058,-0.9935 -1.021835,-2.0791 -1.478909,-3.1243 -0.311864,-0.7129 -0.51637,-1.4166 -0.905143,-2.0561 -1.866383,-3.0687 -3.875106,-4.9212 -6.987283,-6.7418 -0.66217,-0.3871 -1.459068,-0.5389 -2.301615,-0.7388 -0.451951,-0.027 -0.904771,-0.055 -1.356891,-0.083 -0.275971,-0.1153 -0.563775,-0.4529 -0.822715,-0.6166 -0.644362,-0.4071 -1.919197,-1.1135 -2.970992,-1.1311 z m 4.451539,4.4599 c -0.301408,-0.01 -0.514842,0.033 -0.740277,0.083 l 0,0.041 0.04118,0 c 0.143767,0.2954 0.397601,0.4858 0.575404,0.7403 0.136981,0.2878 0.273381,0.5748 0.410538,0.8623 0.01359,-0.014 0.02759,-0.026 0.04119,-0.04 0.254525,-0.1793 0.37224,-0.4671 0.370957,-0.9051 -0.102,-0.1073 -0.117646,-0.2413 -0.206092,-0.3694 -0.117563,-0.1706 -0.344821,-0.2687 -0.492967,-0.4122 z"
       style="fill:#000000;fill-opacity:0.49803922;fill-rule:nonzero;stroke:none" />
  </g>
</svg>
