<?xml version="1.0" encoding="UTF-8" standalone="no"?>
<!-- Created with Inkscape (http://www.inkscape.org/) -->

<svg
   xmlns:dc="http://purl.org/dc/elements/1.1/"
   xmlns:cc="http://creativecommons.org/ns#"
   xmlns:rdf="http://www.w3.org/1999/02/22-rdf-syntax-ns#"
   xmlns:svg="http://www.w3.org/2000/svg"
   xmlns="http://www.w3.org/2000/svg"
   xmlns:xlink="http://www.w3.org/1999/xlink"
   xmlns:sodipodi="http://sodipodi.sourceforge.net/DTD/sodipodi-0.dtd"
   xmlns:inkscape="http://www.inkscape.org/namespaces/inkscape"
   width="48"
   height="48"
   id="svg2"
   version="1.1"
   inkscape:version="0.48+devel r12923"
   sodipodi:docname="outlook.svg">
  <defs
     id="defs4">
    <linearGradient
       id="linearGradient4678"
       inkscape:collect="always">
      <stop
         id="stop4680"
         offset="0"
         style="stop-color:#0a7fe7;stop-opacity:1" />
      <stop
         id="stop4682"
         offset="1"
         style="stop-color:#50bffc;stop-opacity:1" />
    </linearGradient>
    <linearGradient
       gradientUnits="userSpaceOnUse"
       y2="1007.3821"
       x2="28.399813"
       y1="1049.3252"
       x1="28.399813"
       id="linearGradient6131"
       xlink:href="#linearGradient4678"
       inkscape:collect="always"
       gradientTransform="translate(-2.3925782e-7,3.6413672e-5)" />
  </defs>
  <sodipodi:namedview
     id="base"
     pagecolor="#ffffff"
     bordercolor="#666666"
     borderopacity="1.0"
     inkscape:pageopacity="0.0"
     inkscape:pageshadow="2"
     inkscape:zoom="8.2464357"
     inkscape:cx="9.3836709"
     inkscape:cy="13.761045"
     inkscape:document-units="px"
     inkscape:current-layer="layer1"
     showgrid="false"
     inkscape:window-width="1366"
     inkscape:window-height="669"
     inkscape:window-x="0"
     inkscape:window-y="26"
     inkscape:window-maximized="1"
     showguides="true"
     inkscape:guide-bbox="true" />
  <metadata
     id="metadata7">
    <rdf:RDF>
      <cc:Work
         rdf:about="">
        <dc:format>image/svg+xml</dc:format>
        <dc:type
           rdf:resource="http://purl.org/dc/dcmitype/StillImage" />
        <dc:title></dc:title>
      </cc:Work>
    </rdf:RDF>
  </metadata>
  <g
     inkscape:label="Capa 1"
     inkscape:groupmode="layer"
     id="layer1"
     transform="translate(0,-1004.3622)">
    <rect
       style="fill:#000000;fill-opacity:0.01960784;stroke:none"
       id="rect5263"
       width="44.399963"
       height="44.399963"
       x="1.8000183"
       y="1006.1622"
       ry="6.2786646" />
    <rect
       ry="6.1938181"
       y="1006.4623"
       x="2.1000061"
       height="43.799973"
       width="43.799973"
       id="rect5261"
       style="fill:#000000;fill-opacity:0.03921569;stroke:none" />
    <rect
       style="fill:#000000;fill-opacity:0.07843137;stroke:none"
       id="rect5259"
       width="43.199982"
       height="43.199982"
       x="2.3999939"
       y="1006.7624"
       ry="6.1089716" />
    <rect
       ry="6.0241251"
       y="1007.0624"
       x="2.7000122"
       height="42.599991"
       width="42.599991"
       id="rect5257"
       style="fill:#000000;fill-opacity:0.15686275;stroke:none" />
    <rect
       style="fill:url(#linearGradient6131);fill-opacity:1;stroke:none"
       id="rect5237"
       width="42"
       height="42"
       x="3"
       y="1007.3622"
       ry="5.9392786" />
    <path
       inkscape:connector-curvature="0"
       style="fill:#000000;fill-opacity:0.11764706;stroke:none"
       d="m 2.9999988,1040.9247 0,2.5 c 0,3.2904 2.64714,5.9375 5.9375,5.9375 l 30.1250012,0 c 3.29036,0 5.9375,-2.6471 5.9375,-5.9375 l 0,-2.5 c 0,3.2904 -2.64714,5.9375 -5.9375,5.9375 l -30.1250012,0 c -3.29036,0 -5.9375,-2.6471 -5.9375,-5.9375 z"
       id="rect5265" />
    <path
       inkscape:connector-curvature="0"
       style="fill:#000000;fill-opacity:0.09803922;stroke:none"
       d="m 2.9999988,1042.9247 0,0.5 c 0,3.2904 2.64714,5.9375 5.9375,5.9375 l 30.1250012,0 c 3.29036,0 5.9375,-2.6471 5.9375,-5.9375 l 0,-0.5 c 0,3.2904 -2.64714,5.9375 -5.9375,5.9375 l -30.1250012,0 c -3.29036,0 -5.9375,-2.6471 -5.9375,-5.9375 z"
       id="path5252" />
    <text
       xml:space="preserve"
       style="font-size:40px;font-style:normal;font-variant:normal;font-weight:bold;font-stretch:normal;line-height:125%;letter-spacing:0px;word-spacing:0px;fill:#000000;fill-opacity:1;stroke:none;font-family:Impact;-inkscape-font-specification:Impact Bold"
       x="8.2301865"
       y="1049.4045"
       id="text830"
       sodipodi:linespacing="125%"><tspan
         sodipodi:role="line"
         id="tspan832"
         x="8.2301865"
         y="1049.4045" /></text>
    <path
       inkscape:connector-curvature="0"
       id="path4075-2"
       d="M 26.304191,1015.3622 11,1018.2927 l 0,19.8956 15.304191,3.1739 0,-26 z m 0.966964,5.5119 0,5.0866 1.79638,1.1193 c 0.04736,0.014 0.151501,0.014 0.198934,0 L 37,1021.9236 c 0,-0.6104 -0.576558,-1.0495 -0.901398,-1.0495 l -8.827447,0 z m -8.446641,2.9411 c 1.010058,0 1.827201,0.4088 2.45023,1.2272 0.623975,0.8183 0.93524,1.8964 0.93524,3.2351 8.45e-4,1.376 -0.322366,2.4845 -0.96909,3.3263 -0.646717,0.8418 -1.489952,1.2632 -2.530645,1.2632 -1.013983,0 -1.838892,-0.4076 -2.477631,-1.2231 -0.637869,-0.8163 -0.958522,-1.878 -0.958522,-3.1886 0,-1.3837 0.324654,-2.5034 0.973286,-3.358 0.648692,-0.8543 1.507882,-1.2821 2.577132,-1.2821 z M 37,1023.9781 c 0,0 -7.856567,5.1615 -7.57911,4.9935 0,0 -0.278867,0.168 -0.509904,0 l -1.639831,-1.113 0,6.9105 8.330248,0 c 0.740493,0 1.398597,-0.4277 1.398597,-1.4452 l 0,-9.3458 z m -18.219914,1.5362 c -0.558831,0 -1.004216,0.2601 -1.332964,0.7785 -0.328816,0.5187 -0.493021,1.2043 -0.493021,2.0588 0,0.8672 0.164205,1.5528 0.493021,2.0567 0.328748,0.5049 0.761775,0.7553 1.294918,0.7553 0.5499,0 0.985746,-0.2439 1.307631,-0.7341 0.321818,-0.4902 0.484512,-1.1718 0.484512,-2.0419 0,-0.9072 -0.156726,-1.6132 -0.469747,-2.118 -0.312963,-0.5039 -0.741313,-0.7553 -1.28435,-0.7553 z"
       style="fill:#000000;fill-opacity:0.49803922" />
  </g>
</svg>
