<?xml version="1.0" encoding="UTF-8" standalone="no"?>
<!-- Created with Inkscape (http://www.inkscape.org/) -->

<svg
   xmlns:dc="http://purl.org/dc/elements/1.1/"
   xmlns:cc="http://creativecommons.org/ns#"
   xmlns:rdf="http://www.w3.org/1999/02/22-rdf-syntax-ns#"
   xmlns:svg="http://www.w3.org/2000/svg"
   xmlns="http://www.w3.org/2000/svg"
   xmlns:xlink="http://www.w3.org/1999/xlink"
   xmlns:sodipodi="http://sodipodi.sourceforge.net/DTD/sodipodi-0.dtd"
   xmlns:inkscape="http://www.inkscape.org/namespaces/inkscape"
   width="48"
   height="48"
   id="svg5453"
   version="1.1"
   inkscape:version="0.49 r12742"
   sodipodi:docname="pocket.svg"
   viewBox="0 0 48 48">
  <defs
     id="defs5455">
    <linearGradient
       inkscape:collect="always"
       xlink:href="#linearGradient6125"
       id="linearGradient6778"
       x1="40.915409"
       y1="1049.3521"
       x2="40.915409"
       y2="1007.3218"
       gradientUnits="userSpaceOnUse"
       gradientTransform="translate(384.57143,-504.56416)" />
    <linearGradient
       inkscape:collect="always"
       id="linearGradient6125">
      <stop
         style="stop-color:#f81654;stop-opacity:1"
         offset="0"
         id="stop6127" />
      <stop
         style="stop-color:#fd668f;stop-opacity:1"
         offset="1"
         id="stop6129" />
    </linearGradient>
  </defs>
  <sodipodi:namedview
     id="base"
     pagecolor="#ffffff"
     bordercolor="#666666"
     borderopacity="1.0"
     inkscape:pageopacity="0"
     inkscape:pageshadow="2"
     inkscape:zoom="5.6568543"
     inkscape:cx="25.588604"
     inkscape:cy="26.021948"
     inkscape:document-units="px"
     inkscape:current-layer="layer1"
     showgrid="false"
     fit-margin-top="0"
     fit-margin-left="0"
     fit-margin-right="0"
     fit-margin-bottom="0"
     inkscape:window-width="1366"
     inkscape:window-height="718"
     inkscape:window-x="0"
     inkscape:window-y="23"
     inkscape:window-maximized="1"
     inkscape:showpageshadow="false"
     borderlayer="true"
     showguides="false">
    <sodipodi:guide
       position="9.0000117,9.0000264"
       orientation="-30,0"
       id="guide4661" />
    <sodipodi:guide
       position="9.0000117,39.000026"
       orientation="0,30"
       id="guide4663" />
    <sodipodi:guide
       position="39.000012,39.000026"
       orientation="30,0"
       id="guide4665" />
    <sodipodi:guide
       position="39.000012,9.0000264"
       orientation="0,-30"
       id="guide4667" />
  </sodipodi:namedview>
  <metadata
     id="metadata5458">
    <rdf:RDF>
      <cc:Work
         rdf:about="">
        <dc:format>image/svg+xml</dc:format>
        <dc:type
           rdf:resource="http://purl.org/dc/dcmitype/StillImage" />
        <dc:title />
      </cc:Work>
    </rdf:RDF>
  </metadata>
  <g
     inkscape:label="Capa 1"
     inkscape:groupmode="layer"
     id="layer1"
     transform="translate(-384.57143,-499.798)">
    <rect
       style="fill:#000000;fill-opacity:0.01960784;stroke:none"
       id="rect5263"
       width="44.399963"
       height="44.399963"
       x="386.37146"
       y="501.59802"
       ry="6.2786646" />
    <rect
       ry="6.1938181"
       y="501.89813"
       x="386.67145"
       height="43.799973"
       width="43.799973"
       id="rect5261"
       style="fill:#000000;fill-opacity:0.03921569;stroke:none" />
    <rect
       style="fill:#000000;fill-opacity:0.07843137;stroke:none"
       id="rect5259"
       width="43.199982"
       height="43.199982"
       x="386.97144"
       y="502.19818"
       ry="6.1089716" />
    <rect
       ry="6.0241251"
       y="502.49817"
       x="387.27145"
       height="42.599991"
       width="42.599991"
       id="rect5257"
       style="fill:#000000;fill-opacity:0.15686275;stroke:none" />
    <rect
       style="fill:url(#linearGradient6778);fill-opacity:1;stroke:none"
       id="rect5237"
       width="42"
       height="42"
       x="387.57144"
       y="502.79803"
       ry="5.9392786" />
    <path
       inkscape:connector-curvature="0"
       style="fill:#000000;fill-opacity:0.11764706;stroke:none"
       d="m 387.57143,536.36054 0,2.5 c 0,3.2904 2.64714,5.9375 5.9375,5.9375 l 30.125,0 c 3.29036,0 5.9375,-2.6471 5.9375,-5.9375 l 0,-2.5 c 0,3.2904 -2.64714,5.9375 -5.9375,5.9375 l -30.125,0 c -3.29036,0 -5.9375,-2.6471 -5.9375,-5.9375 z"
       id="rect5265" />
    <path
       inkscape:connector-curvature="0"
       style="fill:#000000;fill-opacity:0.09803922;stroke:none"
       d="m 387.57143,538.36054 0,0.5 c 0,3.2904 2.64714,5.9375 5.9375,5.9375 l 30.125,0 c 3.29036,0 5.9375,-2.6471 5.9375,-5.9375 l 0,-0.5 c 0,3.2904 -2.64714,5.9375 -5.9375,5.9375 l -30.125,0 c -3.29036,0 -5.9375,-2.6471 -5.9375,-5.9375 z"
       id="path5252" />
    <path
       style="fill:#000000;fill-opacity:0.49803922;stroke:none"
       d="m 398.59349,510.79796 c -2.60417,0 -4.02203,1.27167 -4.02203,3.68978 l 0,9.27728 c 0,0.007 -3e-5,0.0125 0,0.0182 l 0,0.0148 c 0,0.14072 0.0188,0.27753 0.0231,0.41712 0.23736,7.00568 6.37244,12.5829 13.97686,12.5829 7.60444,0 13.73953,-5.57722 13.97688,-12.5829 0.005,-0.13959 0.0231,-0.2764 0.0231,-0.41712 l 0,-0.0148 c 2e-5,-0.007 0,-0.0125 0,-0.0182 l 0,-9.27728 c 0,-2.41811 -1.41788,-3.68978 -4.02203,-3.68978 l -9.97805,0 -9.97637,0 -0.002,0 z m 3.96735,9.20142 5.95103,4.49601 0.11932,0 5.94937,-4.49601 1.20313,2.01636 -7.21216,5.58085 -7.21216,-5.58085 1.20147,-2.01636 z"
       id="rect4669"
       inkscape:connector-curvature="0" />
    <rect
       id="rect6284"
       style="fill:#eeeeec;display:none;enable-background:accumulate"
       height="8.3631706"
       width="8.3799486"
       y="489.41681"
       x="379.02103" />
    <rect
       id="rect6592"
       style="fill:#eeeeec;display:none;enable-background:accumulate"
       height="5.5754471"
       width="5.5866323"
       y="502.65918"
       x="380.2326" />
    <rect
       id="rect8104"
       style="fill:#ffffff;display:none;enable-background:accumulate"
       height="4.1815853"
       width="4.1899743"
       y="511.37085"
       x="380.05804" />
    <rect
       id="rect6749"
       style="fill:#eeeeec;display:none;enable-background:accumulate"
       height="3.8331199"
       width="3.8408098"
       y="511.55554"
       x="380.2326" />
    <rect
       id="rect6833"
       style="fill:#eeeeec;display:none;enable-background:accumulate"
       height="2.7877235"
       width="2.7933161"
       y="518.86279"
       x="380.2326" />
    <rect
       id="rect3068"
       style="fill:#eeeeec;display:none;enable-background:accumulate"
       height="44.603577"
       width="44.693058"
       y="486.28058"
       x="330.13834" />
    <text
       id="context"
       style="font-size:3.19182992px;fill:#000000;display:none;enable-background:new;font-family:Bitstream Vera Sans"
       xml:space="preserve"
       y="484.93994"
       x="330.66379"
       transform="scale(1.0010026,0.99899841)"><tspan
         id="tspan2716"
         x="330.66379"
         y="484.93994">apps</tspan></text>
    <text
       sodipodi:linespacing="125%"
       id="text3021"
       style="font-size:3.19182992px;font-weight:bold;line-height:125%;fill:#000000;display:none;enable-background:new;font-family:Droid Sans"
       xml:space="preserve"
       y="484.93994"
       x="360.48746"
       transform="scale(1.0010026,0.99899841)"><tspan
         id="tspan3023"
         y="484.93994"
         x="360.48746">preferences-color</tspan></text>
    <rect
       id="rect6284-3"
       style="fill:#eeeeec;display:none;enable-background:accumulate"
       height="8.3631706"
       width="8.3799486"
       y="502.60654"
       x="488.34216" />
    <rect
       id="rect6592-0"
       style="fill:#eeeeec;display:none;enable-background:accumulate"
       height="5.5754471"
       width="5.5866323"
       y="515.84894"
       x="489.55377" />
    <rect
       id="rect8104-4"
       style="fill:#ffffff;display:none;enable-background:accumulate"
       height="4.1815853"
       width="4.1899743"
       y="524.56061"
       x="489.37918" />
    <rect
       id="rect6749-4"
       style="fill:#eeeeec;display:none;enable-background:accumulate"
       height="3.8331199"
       width="3.8408098"
       y="524.7453"
       x="489.55377" />
    <rect
       id="rect6833-1"
       style="fill:#eeeeec;display:none;enable-background:accumulate"
       height="2.7877235"
       width="2.7933161"
       y="532.05255"
       x="489.55377" />
    <rect
       id="rect3068-0"
       style="fill:#eeeeec;display:none;enable-background:accumulate"
       height="44.603577"
       width="44.693058"
       y="499.47031"
       x="439.45947" />
    <text
       id="context-8"
       style="font-size:3.19182992px;fill:#000000;display:none;enable-background:new;font-family:Bitstream Vera Sans"
       xml:space="preserve"
       y="498.14288"
       x="439.87546"
       transform="scale(1.0010026,0.99899841)"><tspan
         id="tspan2716-6"
         x="439.87546"
         y="498.14288">apps</tspan></text>
    <text
       sodipodi:linespacing="125%"
       id="text3021-1"
       style="font-size:3.19182992px;font-weight:bold;line-height:125%;fill:#000000;display:none;enable-background:new;font-family:Droid Sans"
       xml:space="preserve"
       y="498.14288"
       x="469.6991"
       transform="scale(1.0010026,0.99899841)"><tspan
         id="tspan3023-7"
         y="498.14288"
         x="469.6991">preferences-color</tspan></text>
  </g>
</svg>
