<?xml version="1.0" encoding="UTF-8" standalone="no"?>
<!-- Created with Inkscape (http://www.inkscape.org/) -->

<svg
   xmlns:dc="http://purl.org/dc/elements/1.1/"
   xmlns:cc="http://creativecommons.org/ns#"
   xmlns:rdf="http://www.w3.org/1999/02/22-rdf-syntax-ns#"
   xmlns:svg="http://www.w3.org/2000/svg"
   xmlns="http://www.w3.org/2000/svg"
   xmlns:xlink="http://www.w3.org/1999/xlink"
   xmlns:sodipodi="http://sodipodi.sourceforge.net/DTD/sodipodi-0.dtd"
   xmlns:inkscape="http://www.inkscape.org/namespaces/inkscape"
   width="48"
   height="48"
   id="svg4230"
   version="1.1"
   inkscape:version="0.48+devel r12923"
   sodipodi:docname="portal.svg">
  <defs
     id="defs4232">
    <linearGradient
       id="linearGradient4678"
       inkscape:collect="always">
      <stop
         id="stop4680"
         offset="0"
         style="stop-color:#0a7fe7;stop-opacity:1" />
      <stop
         id="stop4682"
         offset="1"
         style="stop-color:#50bffc;stop-opacity:1" />
    </linearGradient>
    <linearGradient
       inkscape:collect="always"
       xlink:href="#linearGradient4678"
       id="linearGradient4101"
       x1="29.109528"
       y1="1049.3851"
       x2="29.109528"
       y2="1007.3748"
       gradientUnits="userSpaceOnUse" />
  </defs>
  <sodipodi:namedview
     id="base"
     pagecolor="#ffffff"
     bordercolor="#666666"
     borderopacity="1.0"
     inkscape:pageopacity="0.0"
     inkscape:pageshadow="2"
     inkscape:zoom="5.1139368"
     inkscape:cx="-42.299376"
     inkscape:cy="23.428725"
     inkscape:document-units="px"
     inkscape:current-layer="layer1"
     showgrid="false"
     inkscape:showpageshadow="false"
     borderlayer="true"
     inkscape:window-width="1366"
     inkscape:window-height="669"
     inkscape:window-x="0"
     inkscape:window-y="26"
     inkscape:window-maximized="1" />
  <metadata
     id="metadata4235">
    <rdf:RDF>
      <cc:Work
         rdf:about="">
        <dc:format>image/svg+xml</dc:format>
        <dc:type
           rdf:resource="http://purl.org/dc/dcmitype/StillImage" />
        <dc:title></dc:title>
      </cc:Work>
    </rdf:RDF>
  </metadata>
  <g
     inkscape:label="Capa 1"
     inkscape:groupmode="layer"
     id="layer1"
     transform="translate(0,-1004.3622)">
    <path
       style="fill:#000000"
       d=""
       id="path906"
       inkscape:connector-curvature="0" />
    <rect
       style="fill:#000000;fill-opacity:0.01960784;stroke:none"
       id="rect5263-0"
       width="44.399963"
       height="44.399963"
       x="1.8000183"
       y="1006.1622"
       ry="6.2786646" />
    <rect
       ry="6.1938181"
       y="1006.4623"
       x="2.1000061"
       height="43.799973"
       width="43.799973"
       id="rect5261-1"
       style="fill:#000000;fill-opacity:0.03921569;stroke:none" />
    <rect
       style="fill:#000000;fill-opacity:0.07843137;stroke:none"
       id="rect5259-9"
       width="43.199982"
       height="43.199982"
       x="2.3999939"
       y="1006.7624"
       ry="6.1089716" />
    <rect
       ry="6.0241251"
       y="1007.0624"
       x="2.7000122"
       height="42.599991"
       width="42.599991"
       id="rect5257-6"
       style="fill:#000000;fill-opacity:0.15686275;stroke:none" />
    <rect
       style="fill:url(#linearGradient4101);fill-opacity:1.0;stroke:none"
       id="rect5237-3"
       width="42"
       height="42"
       x="3"
       y="1007.3622"
       ry="5.9392786" />
    <path
       inkscape:connector-curvature="0"
       style="fill:#000000;fill-opacity:0.11764706;stroke:none"
       d="m 2.9999991,1040.9247 0,2.5 c 0,3.2904 2.64714,5.9375 5.9375,5.9375 l 30.1249999,0 c 3.29036,0 5.9375,-2.6471 5.9375,-5.9375 l 0,-2.5 c 0,3.2904 -2.64714,5.9375 -5.9375,5.9375 l -30.1249999,0 C 5.6471391,1046.8622 2.9999991,1044.2151 2.9999991,1040.9247 Z"
       id="rect5265-8" />
    <path
       inkscape:connector-curvature="0"
       style="fill:#000000;fill-opacity:0.09803922;stroke:none"
       d="m 2.9999991,1042.9247 0,0.5 c 0,3.2904 2.64714,5.9375 5.9375,5.9375 l 30.1249999,0 c 3.29036,0 5.9375,-2.6471 5.9375,-5.9375 l 0,-0.5 c 0,3.2904 -2.64714,5.9375 -5.9375,5.9375 l -30.1249999,0 C 5.6471391,1048.8622 2.9999991,1046.2151 2.9999991,1042.9247 Z"
       id="path5252-0" />
    <text
       xml:space="preserve"
       style="font-size:40px;font-style:normal;font-variant:normal;font-weight:bold;font-stretch:normal;line-height:125%;letter-spacing:0px;word-spacing:0px;fill:#000000;fill-opacity:1;stroke:none;font-family:Impact;-inkscape-font-specification:Impact Bold"
       x="-16.731859"
       y="979.19348"
       id="text818"
       sodipodi:linespacing="125%"><tspan
         sodipodi:role="line"
         id="tspan820"
         x="-16.731859"
         y="979.19348" /></text>
    <text
       xml:space="preserve"
       style="font-size:40px;font-style:normal;font-variant:normal;font-weight:bold;font-stretch:normal;line-height:125%;letter-spacing:0px;word-spacing:0px;fill:#000000;fill-opacity:1;stroke:none;font-family:Impact;-inkscape-font-specification:Impact Bold"
       x="-6.0519271"
       y="978.81146"
       id="text818-8"
       sodipodi:linespacing="125%"><tspan
         sodipodi:role="line"
         id="tspan820-9"
         x="-6.0519271"
         y="978.81146" /></text>
    <text
       xml:space="preserve"
       style="font-size:40px;font-style:normal;font-variant:normal;font-weight:bold;font-stretch:normal;line-height:125%;letter-spacing:0px;word-spacing:0px;fill:#000000;fill-opacity:1;stroke:none;font-family:Impact;-inkscape-font-specification:Impact Bold"
       x="111.87868"
       y="990.74011"
       id="text818-6"
       sodipodi:linespacing="125%"><tspan
         sodipodi:role="line"
         id="tspan820-5"
         x="111.87868"
         y="990.74011" /></text>
    <text
       xml:space="preserve"
       style="font-size:40px;font-style:normal;font-variant:normal;font-weight:bold;font-stretch:normal;line-height:125%;letter-spacing:0px;word-spacing:0px;fill:#000000;fill-opacity:1;stroke:none;font-family:Impact;-inkscape-font-specification:Impact Bold"
       x="-16.731859"
       y="979.19348"
       id="text818-2"
       sodipodi:linespacing="125%"><tspan
         sodipodi:role="line"
         id="tspan820-3"
         x="-16.731859"
         y="979.19348" /></text>
    <text
       xml:space="preserve"
       style="font-size:40px;font-style:normal;font-variant:normal;font-weight:bold;font-stretch:normal;line-height:125%;letter-spacing:0px;word-spacing:0px;fill:#000000;fill-opacity:1;stroke:none;font-family:Impact;-inkscape-font-specification:Impact Bold"
       x="96.428848"
       y="978.81146"
       id="text818-0"
       sodipodi:linespacing="125%"><tspan
         sodipodi:role="line"
         id="tspan820-4"
         x="96.428848"
         y="978.81146" /></text>
    <path
       style="fill:#000000;fill-opacity:0.49803922"
       id="path4175-6"
       d="m 21.624677,1041.3022 c -1.223701,-0.2371 -2.874644,-1.5426 -3.871292,-3.0613 -0.542209,-0.826 -1.194427,-2.2264 -1.402443,-3.0113 -0.338126,-1.2751 -0.477723,-4.6781 -0.278816,-6.7936 0.289621,-3.0791 1.415476,-6.4599 2.938665,-8.8243 0.590571,-0.9168 1.2743,-1.7695 1.418616,-1.7695 0.216585,0 0.163682,0.3211 -0.141699,0.8603 -0.182285,0.3215 -0.331465,0.6055 -0.331465,0.6305 0,0.025 0.307762,-0.3319 0.683983,-0.7941 0.746957,-0.9176 1.359297,-1.4947 2.258211,-2.128 1.764254,-1.2429 3.881069,-1.3934 5.414895,-0.3849 1.592503,1.0469 2.912674,3.3737 3.456039,6.0911 0.227896,1.1398 0.24531,1.4014 0.249902,3.7598 0.0051,2.8013 -0.09383,3.6093 -0.704884,5.739 -1.327676,4.6278 -4.44975,8.745 -7.282753,9.6041 -0.476254,0.1444 -1.844803,0.1912 -2.406942,0.082 z m 1.607268,-1.735 c 0.02744,-0.046 -0.192054,-0.1749 -0.487887,-0.2864 -1.277161,-0.4815 -2.150336,-1.3175 -2.828689,-2.7073 -0.393992,-0.8073 -0.846128,-2.4422 -0.777136,-2.8102 0.07403,-0.394 0.268812,-0.1964 0.669624,0.6789 1.274444,2.7827 2.985339,3.9693 4.596557,3.1878 0.935279,-0.4536 2.235359,-1.894 3.342449,-3.7032 1.133926,-1.8527 2.073747,-5.083 2.250301,-7.7338 0.0688,-1.028 -0.02727,-2.8738 -0.14213,-2.7407 -0.03832,0.045 -0.119929,0.4684 -0.180708,0.942 -0.230656,1.7964 -0.870018,3.7783 -1.218754,3.7783 -0.217125,0 -0.217125,-0.02 -2.45e-4,-1.1958 0.700858,-3.8069 0.376079,-6.8844 -0.865865,-8.2034 -0.577476,-0.6134 -1.177948,-0.8721 -2.038266,-0.8781 -0.689015,0 -0.787418,0.021 -1.433405,0.375 -0.871386,0.4777 -1.982122,1.6015 -2.696723,2.7284 -1.263697,1.993 -2.513238,5.1747 -3.106382,7.9099 -0.220561,1.0168 -0.244796,1.3193 -0.244053,3.0422 7.34e-4,1.7537 0.02076,1.9887 0.23876,2.8227 0.284437,1.0877 0.65773,1.966 1.239538,2.9158 0.45965,0.7507 0.90321,1.1431 1.739031,1.539 0.73199,0.3465 1.825548,0.5371 1.944008,0.3389 z"
       inkscape:connector-curvature="0" />
  </g>
</svg>
