<?xml version="1.0" encoding="UTF-8" standalone="no"?>
<!-- Created with Inkscape (http://www.inkscape.org/) -->

<svg
   xmlns:dc="http://purl.org/dc/elements/1.1/"
   xmlns:cc="http://creativecommons.org/ns#"
   xmlns:rdf="http://www.w3.org/1999/02/22-rdf-syntax-ns#"
   xmlns:svg="http://www.w3.org/2000/svg"
   xmlns="http://www.w3.org/2000/svg"
   xmlns:xlink="http://www.w3.org/1999/xlink"
   xmlns:sodipodi="http://sodipodi.sourceforge.net/DTD/sodipodi-0.dtd"
   xmlns:inkscape="http://www.inkscape.org/namespaces/inkscape"
   width="48"
   height="48"
   id="svg2"
   version="1.1"
   inkscape:version="0.48+devel r12923"
   sodipodi:docname="xscreensaver.svg">
  <defs
     id="defs4">
    <linearGradient
       id="linearGradient5347"
       inkscape:collect="always">
      <stop
         id="stop5349"
         offset="0"
         style="stop-color:#8e3fd0;stop-opacity:1" />
      <stop
         id="stop5351"
         offset="1"
         style="stop-color:#cf7ae6;stop-opacity:1" />
    </linearGradient>
    <linearGradient
       gradientTransform="translate(0,4.7900391e-5)"
       inkscape:collect="always"
       xlink:href="#linearGradient5347"
       id="linearGradient7167"
       x1="29.135878"
       y1="1049.4602"
       x2="29.135878"
       y2="1007.4396"
       gradientUnits="userSpaceOnUse" />
  </defs>
  <sodipodi:namedview
     id="base"
     pagecolor="#ffffff"
     bordercolor="#666666"
     borderopacity="1.0"
     inkscape:pageopacity="0.0"
     inkscape:pageshadow="2"
     inkscape:zoom="9.0356456"
     inkscape:cx="6.6997898"
     inkscape:cy="15.997869"
     inkscape:document-units="px"
     inkscape:current-layer="layer1"
     showgrid="false"
     inkscape:window-width="1366"
     inkscape:window-height="669"
     inkscape:window-x="0"
     inkscape:window-y="26"
     inkscape:window-maximized="1"
     width="0px"
     height="0px"
     fit-margin-top="0"
     fit-margin-left="0"
     fit-margin-right="0"
     fit-margin-bottom="0">
    <inkscape:grid
       type="xygrid"
       id="grid3850"
       empspacing="5"
       visible="true"
       enabled="true"
       snapvisiblegridlinesonly="true" />
  </sodipodi:namedview>
  <metadata
     id="metadata7">
    <rdf:RDF>
      <cc:Work
         rdf:about="">
        <dc:format>image/svg+xml</dc:format>
        <dc:type
           rdf:resource="http://purl.org/dc/dcmitype/StillImage" />
        <dc:title />
      </cc:Work>
    </rdf:RDF>
  </metadata>
  <g
     inkscape:label="Capa 1"
     inkscape:groupmode="layer"
     id="layer1"
     transform="translate(0,-1004.3622)">
    <g
       id="layer1-6"
       inkscape:label="Capa 1"
       transform="translate(0,4.7900391e-5)">
      <rect
         ry="6.2786646"
         y="1006.1622"
         x="1.8000183"
         height="44.399963"
         width="44.399963"
         id="rect5263"
         style="fill:#000000;fill-opacity:0.01960784;stroke:none" />
      <rect
         style="fill:#000000;fill-opacity:0.03921569;stroke:none"
         id="rect5261"
         width="43.799973"
         height="43.799973"
         x="2.1000061"
         y="1006.4623"
         ry="6.1938181" />
      <rect
         ry="6.1089716"
         y="1006.7624"
         x="2.3999939"
         height="43.199982"
         width="43.199982"
         id="rect5259"
         style="fill:#000000;fill-opacity:0.07843137;stroke:none" />
      <rect
         style="fill:#000000;fill-opacity:0.15686275;stroke:none"
         id="rect5257"
         width="42.599991"
         height="42.599991"
         x="2.7000122"
         y="1007.0624"
         ry="6.0241251" />
      <rect
         ry="5.9392786"
         y="1007.3622"
         x="3"
         height="42"
         width="42"
         id="rect5237"
         style="fill:url(#linearGradient7167);fill-opacity:1;stroke:none" />
      <path
         id="rect5265"
         d="m 2.9999991,1040.9247 0,2.5 c 0,3.2904 2.64714,5.9375 5.9375,5.9375 l 30.1249999,0 c 3.29036,0 5.9375,-2.6471 5.9375,-5.9375 l 0,-2.5 c 0,3.2904 -2.64714,5.9375 -5.9375,5.9375 l -30.1249999,0 c -3.29036,0 -5.9375,-2.6471 -5.9375,-5.9375 z"
         style="fill:#000000;fill-opacity:0.11764706;stroke:none"
         inkscape:connector-curvature="0" />
      <path
         id="path5252"
         d="m 2.9999991,1042.9247 0,0.5 c 0,3.2904 2.64714,5.9375 5.9375,5.9375 l 30.1249999,0 c 3.29036,0 5.9375,-2.6471 5.9375,-5.9375 l 0,-0.5 c 0,3.2904 -2.64714,5.9375 -5.9375,5.9375 l -30.1249999,0 c -3.29036,0 -5.9375,-2.6471 -5.9375,-5.9375 z"
         style="fill:#000000;fill-opacity:0.09803922;stroke:none"
         inkscape:connector-curvature="0" />
      <path
         style="fill:#000000;fill-opacity:0.49803922;fill-rule:evenodd;stroke:none"
         d="m 23.56818,1015.3622 c -3.588408,0 -6.477271,2.8993 -6.477271,6.5007 l 0,6.4987 -2.590909,0 0,13.0006 19,0 0,-13.0006 -2.590909,0 0,-6.4987 c 0,-3.6014 -2.888863,-6.5007 -6.477271,-6.5007 l -0.86364,0 z M 24,1018.829 c 1.913817,0 3.454543,1.5465 3.454543,3.4668 0,0.013 -0.0018,0.013 -0.002,0.017 l 0.002,0 0,6.05 -6.909085,0 0,-6.05 0.002,0 c -6.9e-5,-0.013 -0.002,-0.013 -0.002,-0.017 0,-1.9203 1.540725,-3.4668 3.454542,-3.4668 z"
         id="rect3272-6"
         inkscape:connector-curvature="0" />
    </g>
  </g>
</svg>
