<?xml version="1.0" encoding="UTF-8" standalone="no"?>
<!-- Created with Inkscape (http://www.inkscape.org/) -->

<svg
   xmlns:dc="http://purl.org/dc/elements/1.1/"
   xmlns:cc="http://creativecommons.org/ns#"
   xmlns:rdf="http://www.w3.org/1999/02/22-rdf-syntax-ns#"
   xmlns:svg="http://www.w3.org/2000/svg"
   xmlns="http://www.w3.org/2000/svg"
   xmlns:xlink="http://www.w3.org/1999/xlink"
   xmlns:sodipodi="http://sodipodi.sourceforge.net/DTD/sodipodi-0.dtd"
   xmlns:inkscape="http://www.inkscape.org/namespaces/inkscape"
   width="48"
   height="48"
   id="svg4230"
   version="1.1"
   inkscape:version="0.48+devel r12923"
   sodipodi:docname="pycharm.svg">
  <defs
     id="defs4232">
    <linearGradient
       id="linearGradient4708"
       inkscape:collect="always">
      <stop
         id="stop4710"
         offset="0"
         style="stop-color:#47b73d;stop-opacity:1" />
      <stop
         id="stop4712"
         offset="1"
         style="stop-color:#ade355;stop-opacity:1" />
    </linearGradient>
    <linearGradient
       gradientTransform="translate(-1.0986328e-6,8.1910157e-5)"
       inkscape:collect="always"
       xlink:href="#linearGradient4708"
       id="linearGradient4101"
       x1="29.109528"
       y1="1049.3851"
       x2="29.109528"
       y2="1007.3748"
       gradientUnits="userSpaceOnUse" />
  </defs>
  <sodipodi:namedview
     id="base"
     pagecolor="#ffffff"
     bordercolor="#666666"
     borderopacity="1.0"
     inkscape:pageopacity="0.0"
     inkscape:pageshadow="2"
     inkscape:zoom="19.458333"
     inkscape:cx="24"
     inkscape:cy="32.253096"
     inkscape:document-units="px"
     inkscape:current-layer="layer1"
     showgrid="false"
     inkscape:showpageshadow="false"
     borderlayer="true"
     inkscape:window-width="1366"
     inkscape:window-height="669"
     inkscape:window-x="0"
     inkscape:window-y="26"
     inkscape:window-maximized="1" />
  <metadata
     id="metadata4235">
    <rdf:RDF>
      <cc:Work
         rdf:about="">
        <dc:format>image/svg+xml</dc:format>
        <dc:type
           rdf:resource="http://purl.org/dc/dcmitype/StillImage" />
        <dc:title></dc:title>
      </cc:Work>
    </rdf:RDF>
  </metadata>
  <g
     inkscape:label="Capa 1"
     inkscape:groupmode="layer"
     id="layer1"
     transform="translate(0,-1004.3622)">
    <path
       style="fill:#000000"
       d=""
       id="path906"
       inkscape:connector-curvature="0" />
    <rect
       style="fill:#000000;fill-opacity:0.01960784;stroke:none"
       id="rect5263-0"
       width="44.399963"
       height="44.399963"
       x="1.8000183"
       y="1006.1622"
       ry="6.2786646" />
    <rect
       ry="6.1938181"
       y="1006.4623"
       x="2.1000061"
       height="43.799973"
       width="43.799973"
       id="rect5261-1"
       style="fill:#000000;fill-opacity:0.03921569;stroke:none" />
    <rect
       style="fill:#000000;fill-opacity:0.07843137;stroke:none"
       id="rect5259-9"
       width="43.199982"
       height="43.199982"
       x="2.3999939"
       y="1006.7626"
       ry="6.1089716" />
    <rect
       ry="6.0241251"
       y="1007.0624"
       x="2.7000122"
       height="42.599991"
       width="42.599991"
       id="rect5257-6"
       style="fill:#000000;fill-opacity:0.15686275;stroke:none" />
    <rect
       style="fill:url(#linearGradient4101);fill-opacity:1;stroke:none"
       id="rect5237-3"
       width="42"
       height="42"
       x="3"
       y="1007.3622"
       ry="5.9392786" />
    <path
       inkscape:connector-curvature="0"
       style="fill:#000000;fill-opacity:0.11764706;stroke:none"
       d="m 2.9999979,1040.9247 0,2.5 c 0,3.2904 2.64714,5.9375 5.9375,5.9375 l 30.1250011,0 c 3.29036,0 5.9375,-2.6471 5.9375,-5.9375 l 0,-2.5 c 0,3.2904 -2.64714,5.9375 -5.9375,5.9375 l -30.1250011,0 C 5.6471379,1046.8622 2.9999979,1044.2151 2.9999979,1040.9247 Z"
       id="rect5265-8" />
    <path
       inkscape:connector-curvature="0"
       style="fill:#000000;fill-opacity:0.09803922;stroke:none"
       d="m 2.9999979,1042.9247 0,0.5 c 0,3.2904 2.64714,5.9375 5.9375,5.9375 l 30.1250011,0 c 3.29036,0 5.9375,-2.6471 5.9375,-5.9375 l 0,-0.5 c 0,3.2904 -2.64714,5.9375 -5.9375,5.9375 l -30.1250011,0 C 5.6471379,1048.8622 2.9999979,1046.2151 2.9999979,1042.9247 Z"
       id="path5252-0" />
    <path
       style="fill:#000000;fill-opacity:0.49803922;stroke:none"
       d="m 21.501213,1015.365 c -5.720978,0 -10.387728,4.5824 -10.496291,10.3006 l -0.0049,0 0,0.1995 0,15.4971 7.000824,0 0,-5.6103 c 1.123783,0.401 2.308869,0.6082 3.502061,0.6116 5.800222,0 10.501237,-4.7001 10.501237,-10.4984 -0.0025,-0.9456 -0.135363,-1.885 -0.389118,-2.7928 -1.612196,0.3603 -4.372941,1.1698 -5.617477,2.7103 0,2.7834 -2.539443,4.5223 -4.494642,4.5816 -2.485796,0 -4.310973,-2.0214 -4.501236,-4.4991 -0.354449,-4.6154 4.642245,-8.3399 8.598516,-9.656 -1.295728,-0.5533 -2.68833,-0.8405 -4.09728,-0.8441 l -0.0016,0 z m 11.864797,0 c -9.807294,-0.021 -17.549276,6.6617 -14.473207,12.424 0.982737,1.529 2.625576,1.8474 4.542457,0.9464 0.56748,-0.4249 0.666895,-0.5857 0.793076,-1.0255 0.522071,-2.0312 1.257359,-3.4899 4.949711,-5.2805 1.295119,-0.3028 2.664145,-0.4273 4.187963,-0.1814 1.30709,0.2109 2.454262,-0.3989 3.094807,-1.4096 -1.50485,-0.1937 -3.65077,-0.4008 -4.085738,-0.8358 -0.670851,-0.6706 0.04545,-0.3803 1.732893,-0.1979 1.556767,0.1683 2.571091,-0.244 2.816159,-1.5365 -0.885503,-1.8926 -1.851443,-2.968 -3.558121,-2.9032 z m -0.09398,1.0205 c 0.612906,3e-4 1.110195,0.4966 1.109646,1.1095 -4.05e-4,0.612 -0.497373,1.1091 -1.109646,1.1095 -0.612314,-4e-4 -1.107557,-0.4975 -1.107996,-1.1095 -5.32e-4,-0.6129 0.49504,-1.1092 1.107996,-1.1095 z m -4.342951,17.8002 c -1.805684,1.5731 -4.064001,2.5325 -6.450123,2.74 0.852342,3.4433 7.398671,4.387 10.888705,4.387 1.964636,0 3.632317,-1.6183 3.632317,-3.6303 0,-2.012 -1.281709,-3.2115 -3.632317,-3.2544 -1.642781,-0.03 -3.070195,0.1049 -4.438582,-0.2423 z"
       id="rect4785-7"
       inkscape:connector-curvature="0" />
  </g>
</svg>
