<?xml version="1.0" encoding="UTF-8" standalone="no"?>
<!-- Created with Inkscape (http://www.inkscape.org/) -->

<svg
   xmlns:dc="http://purl.org/dc/elements/1.1/"
   xmlns:cc="http://creativecommons.org/ns#"
   xmlns:rdf="http://www.w3.org/1999/02/22-rdf-syntax-ns#"
   xmlns:svg="http://www.w3.org/2000/svg"
   xmlns="http://www.w3.org/2000/svg"
   xmlns:xlink="http://www.w3.org/1999/xlink"
   xmlns:sodipodi="http://sodipodi.sourceforge.net/DTD/sodipodi-0.dtd"
   xmlns:inkscape="http://www.inkscape.org/namespaces/inkscape"
   width="48"
   height="48"
   id="svg2"
   version="1.1"
   inkscape:version="0.48+devel r12830"
   sodipodi:docname="qcomicbook.svg">
  <defs
     id="defs4">
    <linearGradient
       id="linearGradient7855"
       inkscape:collect="always">
      <stop
         id="stop7857"
         offset="0"
         style="stop-color:#46a8fb;stop-opacity:1" />
      <stop
         id="stop7859"
         offset="1"
         style="stop-color:#54f3fd;stop-opacity:1" />
    </linearGradient>
    <linearGradient
       gradientUnits="userSpaceOnUse"
       y2="1007.3235"
       x2="30.296669"
       y1="1049.4602"
       x1="30.296669"
       id="linearGradient7861"
       xlink:href="#linearGradient7855"
       inkscape:collect="always"
       gradientTransform="translate(-2.8891602e-6,1.3491758e-4)" />
    <linearGradient
       id="linearGradient4764">
      <stop
         style="stop-color:#bcdffc;stop-opacity:0.99607843"
         offset="0"
         id="stop4766" />
      <stop
         style="stop-color:#f6fafe;stop-opacity:1"
         offset="1"
         id="stop4768" />
    </linearGradient>
    <linearGradient
       id="linearGradient4142">
      <stop
         id="stop4144"
         offset="0"
         style="stop-color:#0a79d6;stop-opacity:0.99803919" />
      <stop
         id="stop4146"
         offset="1"
         style="stop-color:#2995ed;stop-opacity:1" />
    </linearGradient>
    <linearGradient
       id="linearGradient827">
      <stop
         id="stop829"
         offset="0"
         style="stop-color:#a5e1ff;stop-opacity:1" />
      <stop
         id="stop831"
         offset="1"
         style="stop-color:#f5fcff;stop-opacity:1" />
    </linearGradient>
    <linearGradient
       id="linearGradient827-4">
      <stop
         id="stop829-6"
         offset="0"
         style="stop-color:#a5e1ff;stop-opacity:1" />
      <stop
         id="stop831-8"
         offset="1"
         style="stop-color:#f5fcff;stop-opacity:1" />
    </linearGradient>
  </defs>
  <sodipodi:namedview
     id="base"
     pagecolor="#ffffff"
     bordercolor="#666666"
     borderopacity="1.0"
     inkscape:pageopacity="0.0"
     inkscape:pageshadow="2"
     inkscape:zoom="5.785908"
     inkscape:cx="31.366817"
     inkscape:cy="31.490939"
     inkscape:document-units="px"
     inkscape:current-layer="layer1"
     showgrid="false"
     inkscape:window-width="1366"
     inkscape:window-height="673"
     inkscape:window-x="0"
     inkscape:window-y="24"
     inkscape:window-maximized="1" />
  <metadata
     id="metadata7">
    <rdf:RDF>
      <cc:Work
         rdf:about="">
        <dc:format>image/svg+xml</dc:format>
        <dc:type
           rdf:resource="http://purl.org/dc/dcmitype/StillImage" />
        <dc:title></dc:title>
      </cc:Work>
    </rdf:RDF>
  </metadata>
  <g
     inkscape:label="Capa 1"
     inkscape:groupmode="layer"
     id="layer1"
     transform="translate(0,-1004.3622)">
    <rect
       style="fill:#000000;fill-opacity:0.01960784;stroke:none"
       id="rect5263-5"
       width="44.399963"
       height="44.399963"
       x="1.8000183"
       y="1006.1622"
       ry="6.2786646" />
    <rect
       ry="6.1938181"
       y="1006.4623"
       x="2.1000061"
       height="43.799973"
       width="43.799973"
       id="rect5261-9"
       style="fill:#000000;fill-opacity:0.03921569;stroke:none" />
    <rect
       style="fill:#000000;fill-opacity:0.07843137;stroke:none"
       id="rect5259-3"
       width="43.199982"
       height="43.199982"
       x="2.3999939"
       y="1006.7626"
       ry="6.1089716" />
    <rect
       ry="6.0241251"
       y="1007.0624"
       x="2.7000122"
       height="42.599991"
       width="42.599991"
       id="rect5257-8"
       style="fill:#000000;fill-opacity:0.15686275;stroke:none" />
    <rect
       style="fill:url(#linearGradient7861);fill-opacity:1;stroke:none"
       id="rect5237-1"
       width="42"
       height="42"
       x="3"
       y="1007.3622"
       ry="5.9392786" />
    <path
       inkscape:connector-curvature="0"
       style="fill:#000000;fill-opacity:0.11764706;stroke:none"
       d="m 2.9999961,1040.9247 0,2.5 c 0,3.2904 2.64714,5.9375 5.9375,5.9375 l 30.1249999,0 c 3.29036,0 5.9375,-2.6471 5.9375,-5.9375 l 0,-2.5 c 0,3.2904 -2.64714,5.9375 -5.9375,5.9375 l -30.1249999,0 c -3.29036,0 -5.9375,-2.6471 -5.9375,-5.9375 z"
       id="rect5265-2" />
    <path
       inkscape:connector-curvature="0"
       style="fill:#000000;fill-opacity:0.09803922;stroke:none"
       d="m 2.9999961,1042.9247 0,0.5 c 0,3.2904 2.64714,5.9375 5.9375,5.9375 l 30.1249999,0 c 3.29036,0 5.9375,-2.6471 5.9375,-5.9375 l 0,-0.5 c 0,3.2904 -2.64714,5.9375 -5.9375,5.9375 l -30.1249999,0 c -3.29036,0 -5.9375,-2.6471 -5.9375,-5.9375 z"
       id="path5252-0" />
    <path
       sodipodi:nodetypes="ssscccsscscccccscsc"
       inkscape:connector-curvature="0"
       id="path78-8"
       d="m 24.000001,1015.3622 c -7.453926,0 -13.500001,5.0939 -13.500001,11.3744 0,6.2804 6.046076,11.376 13.500001,11.376 1.100249,0 2.153856,-0.1399 3.178894,-0.3528 l 6.463257,3.6024 -0.0412,-6.6394 C 36.007809,1032.6665 37.5,1029.85 37.5,1026.7366 c 0,-6.2805 -6.046067,-11.3744 -13.5,-11.3744 z m 0,2.6874 c 2.783762,0 5.550372,0.9295 7.518696,2.5261 1.968324,1.5966 3.114116,3.8404 3.113873,6.0982 -0.0038,2.2241 -1.118226,4.4339 -3.037171,6.0228 l 0,5.0354 -4.861451,-2.7289 c -0.890396,0.1939 -1.812,0.2934 -2.733947,0.2951 -2.783762,0 -5.550372,-0.9296 -7.518697,-2.5261 -1.968324,-1.5966 -3.114116,-3.8405 -3.113872,-6.0983 -2.44e-4,-2.2578 1.145548,-4.5016 3.113872,-6.0982 1.968324,-1.5966 4.734934,-2.5261 7.518696,-2.5261 z"
       style="fill:#000000;fill-opacity:0.49803922" />
  </g>
</svg>
