<?xml version="1.0" encoding="UTF-8" standalone="no"?>
<!-- Created with Inkscape (http://www.inkscape.org/) -->

<svg
   xmlns:dc="http://purl.org/dc/elements/1.1/"
   xmlns:cc="http://creativecommons.org/ns#"
   xmlns:rdf="http://www.w3.org/1999/02/22-rdf-syntax-ns#"
   xmlns:svg="http://www.w3.org/2000/svg"
   xmlns="http://www.w3.org/2000/svg"
   xmlns:xlink="http://www.w3.org/1999/xlink"
   xmlns:sodipodi="http://sodipodi.sourceforge.net/DTD/sodipodi-0.dtd"
   xmlns:inkscape="http://www.inkscape.org/namespaces/inkscape"
   width="48"
   height="48"
   id="svg2"
   version="1.1"
   inkscape:version="0.48+devel r12923"
   sodipodi:docname="reddit.svg">
  <defs
     id="defs4">
    <style
       type="text/css"
       id="style2464" />
    <style
       id="style2464-7"
       type="text/css" />
    <linearGradient
       id="linearGradient6125"
       inkscape:collect="always">
      <stop
         id="stop6127"
         offset="0"
         style="stop-color:#f81654;stop-opacity:1" />
      <stop
         id="stop6129"
         offset="1"
         style="stop-color:#fd668f;stop-opacity:1" />
    </linearGradient>
    <linearGradient
       gradientUnits="userSpaceOnUse"
       y2="1007.5463"
       x2="28.728134"
       y1="1049.4073"
       x1="28.728134"
       id="linearGradient5353"
       xlink:href="#linearGradient6125"
       inkscape:collect="always" />
    <clipPath
       id="clipPath4050"
       clipPathUnits="userSpaceOnUse">
      <path
         id="path4052"
         d="m 205,114 22,0 0,14 -22,0 L 205,114 Z"
         inkscape:connector-curvature="0" />
    </clipPath>
    <clipPath
       id="clipPath4054"
       clipPathUnits="userSpaceOnUse">
      <path
         id="path4056"
         d="m 205,114 22,0 0,14 -22,0 L 205,114 Z"
         inkscape:connector-curvature="0" />
    </clipPath>
  </defs>
  <sodipodi:namedview
     id="base"
     pagecolor="#ffffff"
     bordercolor="#666666"
     borderopacity="1.0"
     inkscape:pageopacity="0.0"
     inkscape:pageshadow="2"
     inkscape:zoom="8.4345672"
     inkscape:cx="22.559178"
     inkscape:cy="23.590176"
     inkscape:document-units="px"
     inkscape:current-layer="layer1"
     showgrid="false"
     inkscape:window-width="1366"
     inkscape:window-height="669"
     inkscape:window-x="0"
     inkscape:window-y="26"
     inkscape:window-maximized="1">
    <inkscape:grid
       type="xygrid"
       id="grid3850" />
  </sodipodi:namedview>
  <metadata
     id="metadata7">
    <rdf:RDF>
      <cc:Work
         rdf:about="">
        <dc:format>image/svg+xml</dc:format>
        <dc:type
           rdf:resource="http://purl.org/dc/dcmitype/StillImage" />
        <dc:title></dc:title>
      </cc:Work>
    </rdf:RDF>
  </metadata>
  <g
     inkscape:label="Capa 1"
     inkscape:groupmode="layer"
     id="layer1"
     transform="translate(0,-1004.3622)">
    <g
       id="layer1-5"
       inkscape:label="Capa 1"
       transform="translate(0,4.7900391e-5)">
      <rect
         ry="6.2786646"
         y="1006.1622"
         x="1.8000183"
         height="44.399963"
         width="44.399963"
         id="rect5263-8"
         style="fill:#000000;fill-opacity:0.01960784;stroke:none" />
      <rect
         style="fill:#000000;fill-opacity:0.03921569;stroke:none"
         id="rect5261-1"
         width="43.799973"
         height="43.799973"
         x="2.1000061"
         y="1006.4623"
         ry="6.1938181" />
      <rect
         ry="6.1089716"
         y="1006.7623"
         x="2.3999939"
         height="43.199982"
         width="43.199982"
         id="rect5259-9"
         style="fill:#000000;fill-opacity:0.07843137;stroke:none" />
      <rect
         style="fill:#000000;fill-opacity:0.15686275;stroke:none"
         id="rect5257-8"
         width="42.599991"
         height="42.599991"
         x="2.7000122"
         y="1007.0623"
         ry="6.0241251" />
      <rect
         ry="5.9392786"
         y="1007.3622"
         x="3"
         height="42"
         width="42"
         id="rect5237-9"
         style="fill:url(#linearGradient5353);fill-opacity:1;stroke:none" />
      <path
         id="rect5265-8"
         d="m 2.9999991,1040.9247 0,2.5 c 0,3.2904 2.64714,5.9375 5.9375,5.9375 l 30.1249999,0 c 3.29036,0 5.9375,-2.6471 5.9375,-5.9375 l 0,-2.5 c 0,3.2904 -2.64714,5.9375 -5.9375,5.9375 l -30.1249999,0 c -3.29036,0 -5.9375,-2.6471 -5.9375,-5.9375 z"
         style="fill:#000000;fill-opacity:0.11764706;stroke:none"
         inkscape:connector-curvature="0" />
      <path
         id="path5252-6"
         d="m 2.9999991,1042.9247 0,0.5 c 0,3.2904 2.64714,5.9375 5.9375,5.9375 l 30.1249999,0 c 3.29036,0 5.9375,-2.6471 5.9375,-5.9375 l 0,-0.5 c 0,3.2904 -2.64714,5.9375 -5.9375,5.9375 l -30.1249999,0 c -3.29036,0 -5.9375,-2.6471 -5.9375,-5.9375 z"
         style="fill:#000000;fill-opacity:0.09803922;stroke:none"
         inkscape:connector-curvature="0" />
      <g
         id="g4058"
         transform="matrix(1.25,0,0,-1.25,-245.46223,1176.3956)">
        <g
           style="opacity:0.25"
           id="g4060"
           clip-path="url(#clipPath4050)">
          <g
             id="g4062" />
          <g
             id="g4064">
            <g
               id="g4066"
               clip-path="url(#clipPath4054)" />
          </g>
        </g>
      </g>
    </g>
    <path
       inkscape:connector-curvature="0"
       id="path4587-0"
       d="m 26.004823,1015.3734 c -0.200187,0.077 -0.803646,1.5991 -1.434871,3.6191 -0.599166,1.9171 -1.131034,3.6114 -1.182051,3.7656 -0.05093,0.1545 -0.605314,0.3457 -1.231295,0.4238 -2.313175,0.2886 -5.148369,1.0862 -6.736027,1.8961 l -1.633522,0.8344 -0.763405,-0.4682 c -1.464141,-0.8966 -3.606897,-0.3068 -4.367012,1.2019 -0.624633,1.2396 -0.03895,3.5477 1.001461,3.9486 0.260316,0.1008 0.352913,0.5215 0.354617,1.596 0.0069,4.0735 3.777391,7.5476 9.586061,8.8343 2.251892,0.4985 6.742775,0.4348 9.083703,-0.1287 3.843897,-0.9253 7.344951,-3.3187 8.568199,-5.8564 0.374723,-0.7773 0.552656,-1.5796 0.561474,-2.5391 0.0118,-1.2959 0.0812,-1.4705 0.901309,-2.2966 0.794791,-0.801 0.886536,-1.023 0.886536,-2.1156 0,-1.0477 -0.108946,-1.3391 -0.776534,-2.0709 -1.025629,-1.1238 -2.552049,-1.3624 -3.841654,-0.5985 l -0.853701,0.5062 -1.938884,-0.9414 c -2.100417,-1.0193 -4.427087,-1.6645 -6.02188,-1.6701 -0.553326,0 -1.006374,-0.1124 -1.006374,-0.2457 0,-0.2409 1.634355,-5.4496 1.797692,-5.7294 0.07495,-0.1286 5.553396,1.1049 5.645916,1.2712 0.01958,0.036 0.163279,0.364 0.320139,0.7303 0.170487,0.3982 0.627313,0.8095 1.134439,1.0221 2.087929,0.8762 4.164153,-1.3087 3.145559,-3.309 -0.716478,-1.407 -2.506854,-1.7961 -3.664346,-0.7963 l -0.643563,0.5557 -3.273613,-0.7865 c -1.800579,-0.4325 -3.428365,-0.7262 -3.618373,-0.6529 z m -7.130042,12.5241 a 2.5216998,2.5325045 0 0 1 2.5217,2.5324 2.5216998,2.5325045 0 0 1 -2.5217,2.5324 2.5216998,2.5325045 0 0 1 -2.521703,-2.5324 2.5216998,2.5325045 0 0 1 2.521703,-2.5324 z m 10.250968,0 a 2.5216998,2.5325045 0 0 1 2.521703,2.5324 2.5216998,2.5325045 0 0 1 -2.521703,2.5324 2.5216998,2.5325045 0 0 1 -2.521694,-2.5324 2.5216998,2.5325045 0 0 1 2.521694,-2.5324 z m -0.114917,7.8893 c 0.276947,0.032 0.410432,0.2699 0.410432,0.714 0,1.55 -4.572805,2.6927 -7.814638,1.9537 l 0,0 c -1.755421,-0.4002 -3.073326,-1.2352 -3.073326,-1.9457 0,-0.8357 0.624077,-0.9024 1.709042,-0.1812 2.351495,0.8636 5.231255,0.8605 7.501072,-0.022 0.570123,-0.3789 0.990472,-0.5527 1.267418,-0.5209 z"
       style="fill:#000000;fill-opacity:0.49803922" />
  </g>
</svg>
