<?xml version="1.0" encoding="UTF-8" standalone="no"?>
<svg
   xmlns:dc="http://purl.org/dc/elements/1.1/"
   xmlns:cc="http://creativecommons.org/ns#"
   xmlns:rdf="http://www.w3.org/1999/02/22-rdf-syntax-ns#"
   xmlns:svg="http://www.w3.org/2000/svg"
   xmlns="http://www.w3.org/2000/svg"
   xmlns:xlink="http://www.w3.org/1999/xlink"
   xmlns:sodipodi="http://sodipodi.sourceforge.net/DTD/sodipodi-0.dtd"
   xmlns:inkscape="http://www.inkscape.org/namespaces/inkscape"
   width="48"
   viewBox="0 0 13.546667 13.546667"
   height="48"
   id="svg2"
   version="1.1"
   inkscape:version="0.48+devel r"
   sodipodi:docname="web-soundcloud.svg">
  <metadata
     id="metadata20">
    <rdf:RDF>
      <cc:Work
         rdf:about="">
        <dc:format>image/svg+xml</dc:format>
        <dc:type
           rdf:resource="http://purl.org/dc/dcmitype/StillImage" />
      </cc:Work>
    </rdf:RDF>
  </metadata>
  <sodipodi:namedview
     pagecolor="#ffffff"
     bordercolor="#666666"
     borderopacity="1"
     objecttolerance="10"
     gridtolerance="10"
     guidetolerance="10"
     inkscape:pageopacity="0"
     inkscape:pageshadow="2"
     inkscape:window-width="1366"
     inkscape:window-height="665"
     id="namedview18"
     showgrid="false"
     inkscape:zoom="6.604015"
     inkscape:cx="35.864695"
     inkscape:cy="29.868473"
     inkscape:window-x="-2"
     inkscape:window-y="26"
     inkscape:window-maximized="1"
     inkscape:current-layer="svg2" />
  <defs
     id="defs4">
    <linearGradient
       inkscape:collect="always"
       id="linearGradient6075">
      <stop
         style="stop-color:#ec7928;stop-opacity:1"
         offset="0"
         id="stop6077" />
      <stop
         style="stop-color:#f29e34;stop-opacity:1"
         offset="1"
         id="stop6079" />
    </linearGradient>
    <linearGradient
       gradientTransform="translate(0,4.7900391e-5)"
       inkscape:collect="always"
       xlink:href="#linearGradient6075"
       id="linearGradient6081"
       x1="37.957897"
       y1="1049.3441"
       x2="37.957897"
       y2="1007.4396"
       gradientUnits="userSpaceOnUse" />
    <style
       id="style2464"
       type="text/css" />
    <style
       type="text/css"
       id="style2464-7" />
  </defs>
  <g
     transform="matrix(0.28222223,0,0,0.28222223,-1.9999999e-8,-283.45333)"
     id="layer1"
     inkscape:label="Capa 1">
    <rect
       ry="6.2786646"
       y="1006.1622"
       x="1.8000183"
       height="44.399963"
       width="44.399963"
       id="rect5263"
       style="fill:#000000;fill-opacity:0.01960784;stroke:none" />
    <rect
       style="fill:#000000;fill-opacity:0.03921569;stroke:none"
       id="rect5261"
       width="43.799973"
       height="43.799973"
       x="2.1000061"
       y="1006.4623"
       ry="6.1938181" />
    <rect
       ry="6.1089716"
       y="1006.7624"
       x="2.3999939"
       height="43.199982"
       width="43.199982"
       id="rect5259"
       style="fill:#000000;fill-opacity:0.07843137;stroke:none" />
    <rect
       style="fill:#000000;fill-opacity:0.15686275;stroke:none"
       id="rect5257"
       width="42.599991"
       height="42.599991"
       x="2.7000122"
       y="1007.0624"
       ry="6.0241251" />
    <rect
       ry="5.9392786"
       y="1007.3622"
       x="3"
       height="42"
       width="42"
       id="rect5237"
       style="fill:url(#linearGradient6081);fill-opacity:1;stroke:none" />
    <path
       id="rect5265"
       d="m 2.9999991,1040.9247 0,2.5 c 0,3.2904 2.64714,5.9375 5.9375,5.9375 l 30.1249999,0 c 3.29036,0 5.9375,-2.6471 5.9375,-5.9375 l 0,-2.5 c 0,3.2904 -2.64714,5.9375 -5.9375,5.9375 l -30.1249999,0 c -3.29036,0 -5.9375,-2.6471 -5.9375,-5.9375 z"
       style="fill:#000000;fill-opacity:0.11764706;stroke:none"
       inkscape:connector-curvature="0" />
    <path
       id="path5252"
       d="m 2.9999991,1042.9247 0,0.5 c 0,3.2904 2.64714,5.9375 5.9375,5.9375 l 30.1249999,0 c 3.29036,0 5.9375,-2.6471 5.9375,-5.9375 l 0,-0.5 c 0,3.2904 -2.64714,5.9375 -5.9375,5.9375 l -30.1249999,0 c -3.29036,0 -5.9375,-2.6471 -5.9375,-5.9375 z"
       style="fill:#000000;fill-opacity:0.09803922;stroke:none"
       inkscape:connector-curvature="0" />
  </g>
  <path
     d="m 3.1875447,7.1052574 c -0.0153,0 -0.0275,0.012542 -0.0294,0.030505 l -0.0537,0.4332236 0.0537,0.425752 c 0.002,0.01796 0.0141,0.0304 0.0294,0.0304 0.0148,0 0.0269,-0.01244 0.0293,-0.03029 l 0,0 0,-8.5e-5 c 0,0 0,0 0,8.5e-5 l 0.0636,-0.4259219 -0.0636,-0.4333087 c -0.002,-0.017857 -0.0145,-0.030399 -0.0293,-0.030399 z M 3.4893038,6.8685622 c -0.003,-0.018601 -0.0151,-0.031462 -0.0305,-0.031462 -0.0155,0 -0.0284,0.013286 -0.0305,0.031462 0,1.701e-4 -0.0721,0.7004556 -0.0721,0.7004556 l 0.072101,0.6849274 c 0.002,0.01839 0.0149,0.03167 0.0305,0.03167 0.0154,0 0.0279,-0.01286 0.0305,-0.03146 l 0.082099,-0.685097 z M 4.6259706,6.2224629 c -0.029599,0 -0.0541,0.025722 -0.0555,0.058459 l -0.0575,1.2886806 0.0575,0.8328074 c 9.961e-4,0.03252 0.0259,0.05825 0.0555,0.05825 0.0294,0 0.0538,-0.02572 0.055599,-0.05835 l 0,2.56e-4 0.0649,-0.8328925 -0.0649,-1.2886806 c -0.002,-0.032737 -0.0261,-0.058459 -0.055599,-0.058459 z M 4.0376722,6.670365 c -0.0227,0 -0.0413,0.019345 -0.0431,0.045067 l -0.0647,0.8538625 0.0647,0.8261007 c 0.002,0.02562 0.0204,0.04485 0.0431,0.04485 0.0225,0 0.041,-0.01924 0.043,-0.04485 l 0.0736,-0.8261009 -0.0736,-0.8540219 c -0.002,-0.025616 -0.0205,-0.044854 -0.043,-0.044854 z m 1.1861466,1.7901737 c 0.0367,0 0.0665,-0.03146 0.068,-0.07174 l 0.056299,-0.8188089 -0.0563,-1.7156863 c -9.961e-4,-0.040284 -0.0313,-0.071745 -0.068,-0.071745 -0.037,0 -0.066899,0.031568 -0.0681,0.071852 0,7.45e-5 -0.05,1.7155164 -0.05,1.7155164 l 0.05,0.8191384 c 9.961e-4,0.03997 0.0311,0.07143 0.068,0.07143 z m 1.2239466,0.0043 c 0.0505,0 0.0922,-0.04422 0.0931,-0.09853 l 0,5.84e-4 0,-5.84e-4 0.0393,-0.7953193 -0.0393,-1.9815046 c -8.694e-4,-0.054314 -0.0426,-0.09853 -0.0931,-0.09853 -0.0506,0 -0.0923,0.044216 -0.0931,0.098637 l -0.0351,1.9807501 c 0,0.00106 0.0351,0.7964885 0.0351,0.7964885 7.9e-4,0.05389 0.042599,0.09811 0.0931,0.09811 z m -0.6166283,-0.0032 c 0.044,0 0.0794,-0.03752 0.0806,-0.08535 l 0,5.95e-4 0.047799,-0.8063941 -0.0479,-1.7281115 c -9.961e-4,-0.04783 -0.0366,-0.085244 -0.0806,-0.085244 -0.0443,0 -0.0797,0.037414 -0.0807,0.085244 l -0.0425,1.7281965 0.042599,0.8062241 c 9.539e-4,0.0473 0.0364,0.08482 0.0806,0.08482 z m -1.5004557,-0.0074 c 0.0261,0 0.0473,-0.02221 0.0492,-0.05155 l 0.0693,-0.8329715 -0.0693,-0.7923745 c -0.002,-0.02923 -0.023,-0.051338 -0.0492,-0.051338 -0.0265,0 -0.0477,0.022214 -0.049299,0.051656 l -0.061,0.7920449 0.061,0.8328922 c 0.002,0.02934 0.0228,0.05155 0.0493,0.05155 z m -0.5836483,-0.0456 c 0.0191,0 0.034599,-0.01605 0.0368,-0.03816 l 0.0778,-0.8008458 -0.0777,-0.8310531 c -0.002,-0.022215 -0.0178,-0.038264 -0.0369,-0.038264 -0.0193,0 -0.0348,0.016156 -0.0368,0.038264 0,8.51e-5 -0.0685,0.8310531 -0.0685,0.8310531 l 0.0685,0.8006759 c 0.002,0.02221 0.0174,0.03837 0.0368,0.03837 z M 6.1382662,5.8138351 c -0.0477,0 -0.086,0.04039 -0.087,0.092047 l -0.0388,1.665029 0.0388,0.8011864 c 9.37e-4,0.05102 0.0391,0.0913 0.087,0.0913 0.0477,0 0.0857,-0.04028 0.0868,-0.09194 l 0,6.69e-4 0.0436,-0.8011856 -0.0436,-1.6652839 c -10e-4,-0.05155 -0.0391,-0.091834 -0.0868,-0.091834 z M 4.9237897,8.4627397 c 0.033,0 0.0602,-0.02859 0.0618,-0.06505 L 5.0461897,7.5704203 4.9855897,5.987 c -0.002,-0.036563 -0.0288,-0.065049 -0.0618,-0.065049 -0.0333,0 -0.0605,0.028592 -0.0619,0.065049 0,7.45e-5 -0.0537,1.5834203 -0.0537,1.5834203 l 0.0537,0.8276094 c 9.961e-4,0.03614 0.028499,0.06473 0.0618,0.06473 z m 0.6767581,-0.07812 0,-4.25e-4 0.0521,-0.8136003 -0.0521,-1.7734863 c -9.962e-4,-0.044004 -0.0339,-0.078548 -0.0743,-0.078548 -0.0406,0 -0.0732,0.034438 -0.0743,0.078548 l -0.0462,1.7734012 0.046299,0.8140254 c 9.961e-4,0.043579 0.0338,0.07812 0.0743,0.07812 0.0404,0 0.0729,-0.03444 0.0743,-0.07833 l 0,3.4e-4 z M 9.5397496,6.5483062 c -0.1236577,0 -0.2416336,0.026572 -0.3491132,0.074509 C 9.1188241,5.7582169 8.4366987,5.0799864 7.6046361,5.0799864 c -0.2035965,0 -0.4020629,0.042622 -0.5773324,0.1146646 -0.0681,0.02806 -0.0863,0.056865 -0.0869,0.1128154 l 0,3.0447145 c 7.099e-4,0.05867 0.0436,0.1076177 0.0975,0.1133997 0.002,2.55e-4 2.485688,0.0011 2.501786,0.0011 0.4984173,0 0.9025323,-0.4295358 0.9025323,-0.9593762 0,-0.5298511 -0.404036,-0.9594714 -0.9024529,-0.9594714 z M 6.7559245,5.304678 c -0.0542,0 -0.0987,0.047299 -0.0995,0.1054387 l -0.0407,2.1610694 0.0408,0.7843289 c 7.1e-4,0.057289 0.045199,0.1044816 0.0994,0.1044816 0.054099,0 0.0986,-0.04719 0.0994,-0.1053317 l 0,9.117e-4 0.0443,-0.784414 -0.0443,-2.1612395 c -7.896e-4,-0.057926 -0.0453,-0.1052239 -0.099399,-0.1052239 z"
     id="path16"
     inkscape:connector-curvature="0"
     style="fill:#000000;fill-opacity:0.49803922" />
</svg>
