<?xml version="1.0" encoding="UTF-8" standalone="no"?>
<!-- Created with Inkscape (http://www.inkscape.org/) -->

<svg
   xmlns:dc="http://purl.org/dc/elements/1.1/"
   xmlns:cc="http://creativecommons.org/ns#"
   xmlns:rdf="http://www.w3.org/1999/02/22-rdf-syntax-ns#"
   xmlns:svg="http://www.w3.org/2000/svg"
   xmlns="http://www.w3.org/2000/svg"
   xmlns:xlink="http://www.w3.org/1999/xlink"
   xmlns:sodipodi="http://sodipodi.sourceforge.net/DTD/sodipodi-0.dtd"
   xmlns:inkscape="http://www.inkscape.org/namespaces/inkscape"
   width="48"
   height="48"
   id="svg2"
   version="1.1"
   inkscape:version="0.49 r12742"
   sodipodi:docname="supertuxkart_64.svg">
  <defs
     id="defs4">
    <linearGradient
       gradientTransform="matrix(1.0058652,0,0,0.994169,119.23086,972.70405)"
       gradientUnits="userSpaceOnUse"
       id="ButtonShadow"
       y2="7.0165396"
       x2="45.447727"
       y1="92.539597"
       x1="45.447727">
      <stop
         offset="0"
         style="stop-color:#000000;stop-opacity:1"
         id="stop3750" />
      <stop
         offset="1"
         style="stop-color:#000000;stop-opacity:0.58823532"
         id="stop3752" />
    </linearGradient>
    <filter
       id="filter3174"
       color-interpolation-filters="sRGB">
      <feGaussianBlur
         stdDeviation="1.71"
         id="feGaussianBlur3176" />
    </filter>
    <linearGradient
       id="linearGradient7150"
       inkscape:collect="always">
      <stop
         id="stop7152"
         offset="0"
         style="stop-color:#8796a4;stop-opacity:1" />
      <stop
         id="stop7154"
         offset="1"
         style="stop-color:#b0b7c5;stop-opacity:1" />
    </linearGradient>
    <linearGradient
       gradientUnits="userSpaceOnUse"
       y2="1007.4026"
       x2="27.568569"
       y1="1049.1152"
       x1="27.568569"
       id="linearGradient7156"
       xlink:href="#linearGradient7150"
       inkscape:collect="always"
       gradientTransform="translate(1.8598633e-6,9.6960938e-5)" />
  </defs>
  <sodipodi:namedview
     id="base"
     pagecolor="#ffffff"
     bordercolor="#666666"
     borderopacity="1.0"
     inkscape:pageopacity="0.0"
     inkscape:pageshadow="2"
     inkscape:zoom="11.571816"
     inkscape:cx="19.208674"
     inkscape:cy="35.487848"
     inkscape:document-units="px"
     inkscape:current-layer="layer1"
     showgrid="false"
     inkscape:window-width="1366"
     inkscape:window-height="718"
     inkscape:window-x="-2"
     inkscape:window-y="23"
     inkscape:window-maximized="1">
    <inkscape:grid
       type="xygrid"
       id="grid3850" />
  </sodipodi:namedview>
  <metadata
     id="metadata7">
    <rdf:RDF>
      <cc:Work
         rdf:about="">
        <dc:format>image/svg+xml</dc:format>
        <dc:type
           rdf:resource="http://purl.org/dc/dcmitype/StillImage" />
        <dc:title />
      </cc:Work>
    </rdf:RDF>
  </metadata>
  <g
     inkscape:label="Capa 1"
     inkscape:groupmode="layer"
     id="layer1"
     transform="translate(0,-1004.3622)">
    <rect
       style="fill:#000000;fill-opacity:0.01960784;stroke:none"
       id="rect5263"
       width="44.399963"
       height="44.399963"
       x="1.8000183"
       y="1006.1622"
       ry="6.2786646" />
    <rect
       ry="6.1938181"
       y="1006.4623"
       x="2.1000061"
       height="43.799973"
       width="43.799973"
       id="rect5261"
       style="fill:#000000;fill-opacity:0.03921569;stroke:none" />
    <rect
       style="fill:#000000;fill-opacity:0.07843137;stroke:none"
       id="rect5259"
       width="43.199982"
       height="43.199982"
       x="2.3999939"
       y="1006.7625"
       ry="6.1089716" />
    <rect
       ry="6.0241251"
       y="1007.0624"
       x="2.7000122"
       height="42.599991"
       width="42.599991"
       id="rect5257"
       style="fill:#000000;fill-opacity:0.15686275;stroke:none" />
    <rect
       style="fill:url(#linearGradient7156);fill-opacity:1;stroke:none"
       id="rect5237"
       width="42"
       height="42"
       x="3"
       y="1007.3622"
       ry="5.9392786" />
    <path
       inkscape:connector-curvature="0"
       style="fill:#000000;fill-opacity:0.11764706;stroke:none"
       d="m 3.0000009,1040.9248 0,2.4999 c 0,3.2904 2.64714,5.9375 5.9375,5.9375 l 30.1250001,0 c 3.29036,0 5.9375,-2.6471 5.9375,-5.9375 l 0,-2.4999 c 0,3.2903 -2.64714,5.9374 -5.9375,5.9374 l -30.1250001,0 c -3.29036,0 -5.9375,-2.6471 -5.9375,-5.9374 z"
       id="rect5265" />
    <path
       inkscape:connector-curvature="0"
       style="fill:#000000;fill-opacity:0.09803922;stroke:none"
       d="m 3.0000009,1042.9247 0,0.5 c 0,3.2904 2.64714,5.9375 5.9375,5.9375 l 30.1250001,0 c 3.29036,0 5.9375,-2.6471 5.9375,-5.9375 l 0,-0.5 c 0,3.2904 -2.64714,5.9375 -5.9375,5.9375 l -30.1250001,0 c -3.29036,0 -5.9375,-2.6471 -5.9375,-5.9375 z"
       id="path5252" />
    <rect
       style="opacity:0.9;fill:url(#ButtonShadow);fill-opacity:1;fill-rule:nonzero;stroke:none;display:none;filter:url(#filter3174)"
       id="rect3745"
       y="979.70404"
       x="124.23086"
       ry="6"
       rx="6"
       height="85"
       width="86" />
    <g
       transform="matrix(0.36107049,0,0,-0.36107049,-164.22284,965.58774)"
       id="g312"
       style="fill:#000000;fill-opacity:0.49803922" />
    <g
       transform="matrix(0.36107049,0,0,-0.36107049,-152.86746,954.23166)"
       id="g316"
       style="fill:#000000;fill-opacity:0.49803922" />
    <path
       style="fill:#000000;fill-opacity:0.49803922;stroke:#ece5e5;stroke-width:0;stroke-linecap:round;stroke-linejoin:round;stroke-miterlimit:4;stroke-opacity:1;stroke-dasharray:none;stroke-dashoffset:0"
       d="M 24 12.115234 A 11.909831 11.884829 0 0 0 12.089844 24 A 11.909831 11.884829 0 0 0 24 35.884766 A 11.909831 11.884829 0 0 0 35.910156 24 A 11.909831 11.884829 0 0 0 24 12.115234 z M 24 13.296875 A 10.718848 10.702229 0 0 1 34.71875 24 A 10.718848 10.702229 0 0 1 24 34.703125 A 10.718848 10.702229 0 0 1 13.28125 24 A 10.718848 10.702229 0 0 1 24 13.296875 z M 20.238281 18.564453 C 20.199281 18.675953 20.152891 18.776175 20.050781 18.859375 C 19.948651 18.942375 19.842429 19.017675 19.755859 19.046875 L 19.755859 19.341797 C 19.920339 19.286797 20.063367 19.218509 20.185547 19.099609 L 20.158203 20.412109 L 20.505859 20.412109 L 20.533203 18.564453 L 20.238281 18.564453 z M 23.826172 18.619141 C 23.731372 18.618341 23.662807 18.635875 23.585938 18.671875 C 23.509038 18.708875 23.441977 18.766331 23.398438 18.832031 C 23.354937 18.898031 23.313596 18.988609 23.291016 19.099609 L 23.585938 19.152344 C 23.595938 19.072344 23.625516 19.006044 23.666016 18.964844 C 23.706516 18.922844 23.769772 18.911109 23.826172 18.912109 C 23.883372 18.912109 23.925014 18.928844 23.958984 18.964844 C 23.992984 19.001844 24.014472 19.037709 24.013672 19.099609 C 24.012742 19.172609 23.981094 19.243409 23.933594 19.287109 C 23.885994 19.330109 23.80803 19.341797 23.71875 19.341797 L 23.691406 19.634766 C 23.750406 19.617766 23.783812 19.608375 23.826172 19.609375 C 23.890372 19.610175 23.969672 19.6355 24.013672 19.6875 C 24.057672 19.7405 24.067606 19.813544 24.066406 19.902344 C 24.065406 19.996344 24.033628 20.062388 23.986328 20.117188 C 23.939028 20.172188 23.894312 20.198266 23.826172 20.197266 C 23.762672 20.196466 23.710086 20.187531 23.666016 20.144531 C 23.621916 20.097531 23.595038 20.016887 23.585938 19.929688 L 23.263672 19.957031 C 23.278172 20.112131 23.322398 20.260022 23.423828 20.357422 C 23.525238 20.454422 23.670272 20.492188 23.826172 20.492188 C 23.990692 20.492188 24.114652 20.444731 24.226562 20.332031 C 24.338483 20.219531 24.412003 20.091187 24.414062 19.929688 C 24.415063 19.818387 24.366684 19.714566 24.308594 19.634766 C 24.250394 19.555766 24.19218 19.498509 24.09375 19.474609 C 24.26028 19.380609 24.331934 19.261209 24.333984 19.099609 C 24.335984 18.985809 24.306052 18.870697 24.226562 18.779297 C 24.130063 18.667997 23.988342 18.619141 23.826172 18.619141 z M 27.119141 18.699219 L 26.931641 19.634766 L 27.199219 19.689453 C 27.275619 19.600453 27.371997 19.556641 27.466797 19.556641 C 27.542797 19.556641 27.580273 19.577766 27.626953 19.634766 C 27.673653 19.691766 27.708531 19.791297 27.707031 19.904297 C 27.705031 20.024797 27.675453 20.112775 27.626953 20.171875 C 27.578453 20.230875 27.535727 20.252953 27.466797 20.251953 C 27.406497 20.250953 27.352261 20.241266 27.306641 20.197266 C 27.261041 20.150266 27.234963 20.089466 27.226562 20.009766 L 26.878906 20.037109 C 26.896506 20.191309 26.967296 20.320509 27.066406 20.412109 C 27.165506 20.504109 27.280423 20.544922 27.439453 20.544922 C 27.638443 20.544922 27.807775 20.465588 27.921875 20.304688 C 28.005675 20.186788 28.054671 20.053844 28.056641 19.902344 C 28.058641 19.720544 27.994971 19.562366 27.894531 19.447266 C 27.794141 19.332466 27.667984 19.287109 27.521484 19.287109 C 27.444684 19.286209 27.380781 19.302797 27.306641 19.341797 L 27.359375 19.019531 L 27.976562 19.019531 L 27.976562 18.699219 L 27.119141 18.699219 z M 20.378906 20.785156 A 0.25769598 0.27243153 0.00022199454 0 0 20.345703 20.789062 A 0.25769598 0.27243153 0.00022199454 0 0 20.318359 20.789062 A 0.25769598 0.27243153 0.00022199454 0 0 20.292969 20.814453 A 0.25769598 0.27243153 0.00022199454 0 0 20.130859 21.082031 L 20.105469 26.945312 A 0.25866105 0.27345177 0.00022199454 1 0 20.613281 26.945312 L 20.613281 24.589844 L 23.746094 24.589844 L 23.746094 26.998047 A 0.25866105 0.27345177 0.00022199454 0 0 24.228516 27.132812 A 0.25866105 0.27345177 0.00022199454 0 0 24.253906 26.998047 L 24.253906 24.5625 L 27.626953 24.5625 L 27.626953 27.052734 A 0.25866105 0.27345177 0.00022199454 0 0 27.681641 27.212891 A 0.25866105 0.27345177 0.00022199454 0 0 27.734375 27.265625 A 0.25866105 0.27345177 0.00022199454 0 0 28.001953 27.292969 A 0.25866105 0.27345177 0.00022199454 0 0 28.136719 27.052734 L 28.136719 24.402344 A 0.2586795 0.27347128 0.00022199454 0 0 28.136719 24.214844 A 0.2586795 0.27347128 0.00022199454 0 0 28.136719 24.162109 L 28.162109 21.164062 A 0.25769598 0.27243153 0.00022199454 0 0 27.949219 20.894531 A 0.25769598 0.27243153 0.00022199454 0 0 27.894531 20.894531 A 0.25769598 0.27243153 0.00022199454 0 0 27.654297 21.164062 L 27.654297 24.027344 L 24.28125 24.027344 L 24.28125 21.109375 A 0.25769598 0.27243153 0.00022199454 0 0 24.066406 20.841797 A 0.25769598 0.27243153 0.00022199454 0 0 24.013672 20.841797 A 0.25769598 0.27243153 0.00022199454 0 0 23.773438 21.109375 L 23.773438 24.054688 L 20.613281 24.054688 L 20.640625 21.082031 A 0.25769598 0.27243153 0.00022199454 0 0 20.640625 21.003906 A 0.25769598 0.27243153 0.00022199454 0 0 20.378906 20.785156 z M 23.958984 27.533203 L 23.183594 28.685547 L 23.183594 29.005859 L 23.90625 29.005859 L 23.878906 29.380859 L 24.201172 29.380859 L 24.228516 29.005859 L 24.441406 29.005859 L 24.441406 28.685547 L 24.228516 28.685547 L 24.228516 27.533203 L 23.958984 27.533203 z M 27.039062 27.560547 L 27.011719 29.220703 L 27.333984 29.220703 L 27.333984 28.525391 L 27.386719 28.525391 C 27.458019 28.526291 27.514165 28.537781 27.546875 28.550781 C 27.579575 28.563781 27.625307 28.597859 27.654297 28.630859 C 27.683197 28.663859 27.736323 28.744147 27.814453 28.873047 L 28.029297 29.220703 L 28.404297 29.248047 L 28.216797 28.900391 C 28.144297 28.771691 28.072357 28.681359 28.029297 28.630859 C 27.986197 28.579859 27.935781 28.540947 27.869141 28.498047 C 28.004351 28.479047 28.120613 28.442081 28.189453 28.363281 C 28.258253 28.284281 28.295335 28.166169 28.296875 28.042969 C 28.297875 27.945969 28.260597 27.877081 28.216797 27.800781 C 28.172997 27.724781 28.130771 27.671425 28.056641 27.640625 C 27.982541 27.609625 27.845941 27.587891 27.681641 27.587891 L 27.039062 27.560547 z M 20.210938 27.585938 L 20.210938 27.587891 C 20.055817 27.587891 19.942381 27.612212 19.837891 27.695312 C 19.733411 27.778313 19.672451 27.929047 19.650391 28.123047 L 19.970703 28.150391 C 19.978703 28.047491 20.009481 27.979147 20.050781 27.935547 C 20.092081 27.892547 20.141997 27.882812 20.210938 27.882812 C 20.280638 27.883613 20.334027 27.893547 20.373047 27.935547 C 20.412047 27.977547 20.426881 28.044247 20.425781 28.123047 C 20.424881 28.194047 20.392003 28.265991 20.345703 28.337891 C 20.311303 28.390891 20.228865 28.486513 20.078125 28.632812 C 19.890905 28.813713 19.767205 28.950447 19.703125 29.060547 C 19.639025 29.170647 19.609793 29.284403 19.595703 29.408203 L 20.748047 29.435547 L 20.748047 29.113281 L 20.105469 29.087891 C 20.123069 29.056891 20.130003 29.040812 20.158203 29.007812 C 20.186403 28.974813 20.267547 28.893669 20.373047 28.792969 C 20.478537 28.692169 20.545288 28.632125 20.585938 28.578125 C 20.647337 28.497125 20.691933 28.412491 20.720703 28.337891 C 20.749503 28.262891 20.772438 28.180756 20.773438 28.097656 C 20.775437 27.951956 20.709211 27.821856 20.613281 27.722656 C 20.517381 27.622456 20.380938 27.585938 20.210938 27.585938 z M 27.333984 27.855469 L 27.574219 27.855469 L 27.814453 27.855469 C 27.864653 27.865469 27.894685 27.901547 27.921875 27.935547 C 27.949075 27.969547 27.977263 28.012559 27.976562 28.068359 C 27.975932 28.117359 27.943175 28.143681 27.921875 28.175781 C 27.900475 28.207781 27.878997 28.242859 27.841797 28.255859 C 27.804597 28.272859 27.723139 28.283203 27.574219 28.283203 L 27.333984 28.283203 L 27.333984 27.855469 z M 23.90625 28.070312 L 23.90625 28.685547 L 23.503906 28.685547 L 23.90625 28.070312 z "
       transform="translate(0,1004.3622)"
       id="path11138-7" />
  </g>
</svg>
