<?xml version="1.0" encoding="UTF-8" standalone="no"?>
<!-- Created with Inkscape (http://www.inkscape.org/) -->

<svg
   xmlns:dc="http://purl.org/dc/elements/1.1/"
   xmlns:cc="http://creativecommons.org/ns#"
   xmlns:rdf="http://www.w3.org/1999/02/22-rdf-syntax-ns#"
   xmlns:svg="http://www.w3.org/2000/svg"
   xmlns="http://www.w3.org/2000/svg"
   xmlns:xlink="http://www.w3.org/1999/xlink"
   xmlns:sodipodi="http://sodipodi.sourceforge.net/DTD/sodipodi-0.dtd"
   xmlns:inkscape="http://www.inkscape.org/namespaces/inkscape"
   width="48"
   height="48"
   id="svg5453"
   version="1.1"
   inkscape:version="0.49 r12742"
   sodipodi:docname="telegram.svg">
  <defs
     id="defs5455">
    <linearGradient
       gradientUnits="userSpaceOnUse"
       y2="1007.3821"
       x2="28.399813"
       y1="1049.3252"
       x1="28.399813"
       id="linearGradient6131"
       xlink:href="#linearGradient4678"
       inkscape:collect="always"
       gradientTransform="translate(-1e-5,3e-5)" />
    <linearGradient
       inkscape:collect="always"
       id="linearGradient4678">
      <stop
         style="stop-color:#0a7fe7;stop-opacity:1"
         offset="0"
         id="stop4680" />
      <stop
         style="stop-color:#50bffc;stop-opacity:1"
         offset="1"
         id="stop4682" />
    </linearGradient>
  </defs>
  <sodipodi:namedview
     id="base"
     pagecolor="#ffffff"
     bordercolor="#666666"
     borderopacity="1.0"
     inkscape:pageopacity="0"
     inkscape:pageshadow="2"
     inkscape:zoom="8.6352893"
     inkscape:cx="24.398058"
     inkscape:cy="24.343156"
     inkscape:document-units="px"
     inkscape:current-layer="layer1"
     showgrid="false"
     fit-margin-top="0"
     fit-margin-left="0"
     fit-margin-right="0"
     fit-margin-bottom="0"
     inkscape:window-width="1366"
     inkscape:window-height="718"
     inkscape:window-x="-2"
     inkscape:window-y="23"
     inkscape:window-maximized="1"
     inkscape:showpageshadow="false"
     borderlayer="true" />
  <metadata
     id="metadata5458">
    <rdf:RDF>
      <cc:Work
         rdf:about="">
        <dc:format>image/svg+xml</dc:format>
        <dc:type
           rdf:resource="http://purl.org/dc/dcmitype/StillImage" />
        <dc:title />
      </cc:Work>
    </rdf:RDF>
  </metadata>
  <g
     inkscape:label="Capa 1"
     inkscape:groupmode="layer"
     id="layer1"
     transform="translate(-384.57143,-499.798)">
    <g
       id="layer1-4"
       inkscape:label="Capa 1"
       transform="translate(384.57143,-504.5642)">
      <g
         transform="translate(-1.6689301e-6,4.7900391e-5)"
         inkscape:label="Capa 1"
         id="layer1-0">
        <rect
           style="fill:#000000;fill-opacity:0.01960784;stroke:none"
           id="rect5263"
           width="44.399963"
           height="44.399963"
           x="1.80002"
           y="1006.1622"
           ry="6.2786646" />
        <rect
           ry="6.1938181"
           y="1006.4623"
           x="2.1000078"
           height="43.799973"
           width="43.799973"
           id="rect5261"
           style="fill:#000000;fill-opacity:0.03921569;stroke:none" />
        <rect
           style="fill:#000000;fill-opacity:0.07843137;stroke:none"
           id="rect5259"
           width="43.199982"
           height="43.199982"
           x="2.3999956"
           y="1006.7624"
           ry="6.1089716" />
        <rect
           ry="6.0241251"
           y="1007.0624"
           x="2.7000139"
           height="42.599991"
           width="42.599991"
           id="rect5257"
           style="fill:#000000;fill-opacity:0.15686275;stroke:none" />
        <rect
           style="fill:url(#linearGradient6131);fill-opacity:1;stroke:none"
           id="rect5237"
           width="42"
           height="42"
           x="3.0000017"
           y="1007.3622"
           ry="5.9392786" />
        <path
           inkscape:connector-curvature="0"
           style="fill:#000000;fill-opacity:0.11764706;stroke:none"
           d="m 2.99999,1040.9247 0,2.5 c 0,3.2904 2.64714,5.9375 5.9375,5.9375 l 30.125,0 c 3.29036,0 5.9375,-2.6471 5.9375,-5.9375 l 0,-2.5 c 0,3.2904 -2.64714,5.9375 -5.9375,5.9375 l -30.125,0 c -3.29036,0 -5.9375,-2.6471 -5.9375,-5.9375 z"
           id="rect5265" />
        <path
           inkscape:connector-curvature="0"
           style="fill:#000000;fill-opacity:0.09803922;stroke:none"
           d="m 2.99999,1042.9247 0,0.5 c 0,3.2904 2.64714,5.9375 5.9375,5.9375 l 30.125,0 c 3.29036,0 5.9375,-2.6471 5.9375,-5.9375 l 0,-0.5 c 0,3.2904 -2.64714,5.9375 -5.9375,5.9375 l -30.125,0 c -3.29036,0 -5.9375,-2.6471 -5.9375,-5.9375 z"
           id="path5252" />
        <text
           xml:space="preserve"
           style="font-size:40px;font-style:normal;font-variant:normal;font-weight:bold;font-stretch:normal;line-height:125%;letter-spacing:0px;word-spacing:0px;fill:#000000;fill-opacity:1;stroke:none;font-family:Impact;-inkscape-font-specification:Impact Bold"
           x="-3.781523"
           y="1062.653"
           id="text830"
           sodipodi:linespacing="125%"><tspan
             sodipodi:role="line"
             id="tspan832"
             x="-3.781523"
             y="1062.653" /></text>
      </g>
    </g>
    <path
       style="fill:#000000;fill-opacity:0.49803922;stroke:none"
       d="m 36.005859,13.136719 c -0.236819,-0.02637 -0.498756,0.01769 -0.761718,0.136719 l -23.029297,8.855468 c -1.57201,0.62861 -1.56341,1.502998 -0.28711,1.892578 l 5.908204,1.839844 2.033203,6.666016 c 0.352234,0.969441 0.367194,1.027344 0.910156,1.027344 l 0.03711,-0.04297 0.50586,-5.464844 -0.328125,-0.236328 -0.304688,5.190236 c 0,0.416336 -0.348844,0.279628 -0.550781,-0.474009 l -1.75586,-6.431071 13.101563,-8.433594 -0.0332,0.0293 0.794922,-0.61914 c 0.218766,0.03841 0.295075,0.194971 0.02539,0.433593 l -11.085937,9.970703 9.634765,7.097657 c 1.0995,0.6048 1.894039,0.291782 2.167969,-1.017578 L 36.91016,15.130861 c 0.301163,-1.203742 -0.193839,-1.915028 -0.904301,-1.994142 z m -14.423828,15.099609 -0.429687,4.650391 0.367187,0 2.666016,-2.666016 z"
       transform="translate(384.57143,499.798)"
       id="path2993"
       inkscape:connector-curvature="0"
       sodipodi:nodetypes="sccccccccccccccccccccsccccc" />
  </g>
</svg>
