<?xml version="1.0" encoding="UTF-8" standalone="no"?>
<!-- Created with Inkscape (http://www.inkscape.org/) -->

<svg
   xmlns:dc="http://purl.org/dc/elements/1.1/"
   xmlns:cc="http://creativecommons.org/ns#"
   xmlns:rdf="http://www.w3.org/1999/02/22-rdf-syntax-ns#"
   xmlns:svg="http://www.w3.org/2000/svg"
   xmlns="http://www.w3.org/2000/svg"
   xmlns:xlink="http://www.w3.org/1999/xlink"
   xmlns:sodipodi="http://sodipodi.sourceforge.net/DTD/sodipodi-0.dtd"
   xmlns:inkscape="http://www.inkscape.org/namespaces/inkscape"
   width="48"
   height="48"
   id="svg5453"
   version="1.1"
   inkscape:version="0.48+devel r12923"
   sodipodi:docname="viber.svg">
  <defs
     id="defs5455">
    <linearGradient
       inkscape:collect="always"
       id="linearGradient5347">
      <stop
         style="stop-color:#8e3fd0;stop-opacity:1"
         offset="0"
         id="stop5349" />
      <stop
         style="stop-color:#cf7ae6;stop-opacity:1"
         offset="1"
         id="stop5351" />
    </linearGradient>
    <linearGradient
       gradientTransform="translate(384.57143,-504.56401)"
       inkscape:collect="always"
       xlink:href="#linearGradient5347"
       id="linearGradient5353"
       x1="28.728134"
       y1="1049.4073"
       x2="28.728134"
       y2="1007.5463"
       gradientUnits="userSpaceOnUse" />
  </defs>
  <sodipodi:namedview
     id="base"
     pagecolor="#ffffff"
     bordercolor="#666666"
     borderopacity="1.0"
     inkscape:pageopacity="0"
     inkscape:pageshadow="2"
     inkscape:zoom="9.1549323"
     inkscape:cx="14.120686"
     inkscape:cy="34.100098"
     inkscape:document-units="px"
     inkscape:current-layer="layer1"
     showgrid="false"
     fit-margin-top="0"
     fit-margin-left="0"
     fit-margin-right="0"
     fit-margin-bottom="0"
     inkscape:window-width="1366"
     inkscape:window-height="669"
     inkscape:window-x="0"
     inkscape:window-y="26"
     inkscape:window-maximized="1" />
  <metadata
     id="metadata5458">
    <rdf:RDF>
      <cc:Work
         rdf:about="">
        <dc:format>image/svg+xml</dc:format>
        <dc:type
           rdf:resource="http://purl.org/dc/dcmitype/StillImage" />
        <dc:title></dc:title>
      </cc:Work>
    </rdf:RDF>
  </metadata>
  <g
     inkscape:label="Capa 1"
     inkscape:groupmode="layer"
     id="layer1"
     transform="translate(-384.57143,-499.798)">
    <g
       style="fill:#6a6f72;fill-opacity:1"
       transform="matrix(0.46910911,0.09794096,-0.09794096,0.46910911,543.27277,38.29986)"
       inkscape:label="Capa 1"
       id="g854" />
    <rect
       style="fill:#000000;fill-opacity:0.01960784;stroke:none"
       id="rect5263-0"
       width="44.399963"
       height="44.399963"
       x="386.37146"
       y="501.59802"
       ry="6.2786646" />
    <rect
       ry="6.1938181"
       y="501.89813"
       x="386.67145"
       height="43.799973"
       width="43.799973"
       id="rect5261-6"
       style="fill:#000000;fill-opacity:0.03921569;stroke:none" />
    <rect
       style="fill:#000000;fill-opacity:0.07843137;stroke:none"
       id="rect5259-9"
       width="43.199982"
       height="43.199982"
       x="386.97144"
       y="502.19843"
       ry="6.1089716" />
    <rect
       ry="6.0241251"
       y="502.49823"
       x="387.27145"
       height="42.599991"
       width="42.599991"
       id="rect5257-5"
       style="fill:#000000;fill-opacity:0.15686275;stroke:none" />
    <rect
       style="fill:url(#linearGradient5353);fill-opacity:1;stroke:none"
       id="rect5237-8"
       width="42"
       height="42"
       x="387.57144"
       y="502.79803"
       ry="5.9392786" />
    <path
       inkscape:connector-curvature="0"
       style="fill:#000000;fill-opacity:0.11764706;stroke:none"
       d="m 387.57143,536.36065 0,2.5 c 0,3.2904 2.64714,5.9375 5.9375,5.9375 l 30.125,0 c 3.29036,0 5.9375,-2.6471 5.9375,-5.9375 l 0,-2.5 c 0,3.2904 -2.64714,5.9375 -5.9375,5.9375 l -30.125,0 c -3.29036,0 -5.9375,-2.6471 -5.9375,-5.9375 z"
       id="rect5265-0" />
    <path
       inkscape:connector-curvature="0"
       style="fill:#000000;fill-opacity:0.09803922;stroke:none"
       d="m 387.57143,538.36065 0,0.5 c 0,3.2904 2.64714,5.9375 5.9375,5.9375 l 30.125,0 c 3.29036,0 5.9375,-2.6471 5.9375,-5.9375 l 0,-0.5 c 0,3.2904 -2.64714,5.9375 -5.9375,5.9375 l -30.125,0 c -3.29036,0 -5.9375,-2.6471 -5.9375,-5.9375 z"
       id="path5252-0" />
    <path
       inkscape:connector-curvature="0"
       id="path4128-0-1"
       d="m 402.53937,510.798 c -0.44761,-0.002 -6.53493,2.47226 -6.90655,2.80783 -0.44236,0.39952 0.0568,3.19294 1.10433,6.17623 2.37296,6.75922 8.4848,12.90899 15.36808,15.46368 1.99402,0.74006 5.86277,1.67028 6.40309,1.53993 0.15881,-0.0385 0.93482,-1.65372 1.72499,-3.59098 l 0.002,0 c 0.79017,-1.93727 1.43612,-3.56187 1.43612,-3.61078 0,-0.0487 -1.77445,-0.96812 -3.94354,-2.04281 l -3.94354,-1.95377 -1.89337,1.85485 -1.8917,1.8532 -1.19015,-0.81613 c -1.34111,-0.91891 -4.45364,-4.04541 -5.28723,-5.31229 l -0.54804,-0.83427 1.87025,-1.86804 1.87026,-1.86639 -1.97591,-3.89931 c -1.08692,-2.14461 -2.0761,-3.90028 -2.19873,-3.90095 z m 9.83823,0 0,1.86474 c 4.09563,0 7.41991,3.32318 7.41991,7.41775 l 1.87356,0 c 0,-5.12562 -4.16656,-9.28249 -9.29347,-9.28249 z m -0.003,3.68991 0,1.68502 c 2.1571,0 3.90887,1.753 3.90887,3.91086 l 1.69528,0 c 0,-3.09096 -2.51425,-5.59588 -5.60415,-5.59588 z"
       style="fill:#000000;fill-opacity:0.49803922" />
  </g>
</svg>
