<?xml version="1.0" encoding="UTF-8" standalone="no"?>
<svg
   xmlns:dc="http://purl.org/dc/elements/1.1/"
   xmlns:cc="http://creativecommons.org/ns#"
   xmlns:rdf="http://www.w3.org/1999/02/22-rdf-syntax-ns#"
   xmlns:svg="http://www.w3.org/2000/svg"
   xmlns="http://www.w3.org/2000/svg"
   xmlns:xlink="http://www.w3.org/1999/xlink"
   xmlns:sodipodi="http://sodipodi.sourceforge.net/DTD/sodipodi-0.dtd"
   xmlns:inkscape="http://www.inkscape.org/namespaces/inkscape"
   width="48"
   viewBox="0 0 13.546667 13.546667"
   height="48"
   enable-background="new"
   id="svg2"
   version="1.1"
   inkscape:version="0.48+devel r"
   sodipodi:docname="chrome-aiahmijlpehemcpleichkcokhegllfjl-Default.svg">
  <metadata
     id="metadata95">
    <rdf:RDF>
      <cc:Work
         rdf:about="">
        <dc:format>image/svg+xml</dc:format>
        <dc:type
           rdf:resource="http://purl.org/dc/dcmitype/StillImage" />
        <dc:title />
      </cc:Work>
    </rdf:RDF>
  </metadata>
  <sodipodi:namedview
     pagecolor="#ffffff"
     bordercolor="#666666"
     borderopacity="1"
     objecttolerance="10"
     gridtolerance="10"
     guidetolerance="10"
     inkscape:pageopacity="0"
     inkscape:pageshadow="2"
     inkscape:window-width="1366"
     inkscape:window-height="665"
     id="namedview93"
     showgrid="true"
     inkscape:showpageshadow="false"
     borderlayer="true"
     inkscape:zoom="9.3394875"
     inkscape:cx="21.427563"
     inkscape:cy="25.792449"
     inkscape:window-x="-2"
     inkscape:window-y="26"
     inkscape:window-maximized="1"
     inkscape:current-layer="svg2"
     showguides="true">
    <inkscape:grid
       type="xygrid"
       id="grid4281" />
    <sodipodi:guide
       position="8.0000012,8.0000042"
       orientation="-31.999998,0"
       id="guide4283" />
    <sodipodi:guide
       position="8.0000012,40.000002"
       orientation="0,31.999998"
       id="guide4285" />
    <sodipodi:guide
       position="39.999999,40.000002"
       orientation="31.999998,0"
       id="guide4287" />
    <sodipodi:guide
       position="39.999999,8.0000042"
       orientation="0,-31.999998"
       id="guide4289" />
  </sodipodi:namedview>
  <defs
     id="defs4">
    <linearGradient
       gradientUnits="userSpaceOnUse"
       y2="1007.5463"
       x2="28.728134"
       y1="1049.4073"
       x1="28.728134"
       id="linearGradient5353"
       xlink:href="#linearGradient4708"
       inkscape:collect="always"
       gradientTransform="matrix(0.28222223,0,0,0.28222223,1.0736084e-7,-283.45329)" />
    <linearGradient
       id="linearGradient4708"
       inkscape:collect="always">
      <stop
         id="stop4710"
         offset="0"
         style="stop-color:#47b73d;stop-opacity:1" />
      <stop
         id="stop4712"
         offset="1"
         style="stop-color:#ade355;stop-opacity:1" />
    </linearGradient>
  </defs>
  <rect
     style="fill:#000000;fill-opacity:0.01960784;stroke:none"
     id="rect5263-0"
     width="12.530657"
     height="12.530657"
     x="0.50800508"
     y="0.50800508"
     ry="1.7719787" />
  <rect
     ry="1.7480332"
     y="0.59270275"
     x="0.59266847"
     height="12.361326"
     width="12.361326"
     id="rect5261-6"
     style="fill:#000000;fill-opacity:0.03921569;stroke:none" />
  <rect
     style="fill:#000000;fill-opacity:0.07843137;stroke:none"
     id="rect5259-9"
     width="12.191996"
     height="12.191996"
     x="0.67733186"
     y="0.67745209"
     ry="1.7240876" />
  <rect
     ry="1.700142"
     y="0.76206362"
     x="0.76200384"
     height="12.022664"
     width="12.022664"
     id="rect5257-5"
     style="fill:#000000;fill-opacity:0.15686275;stroke:none" />
  <rect
     style="fill:url(#linearGradient5353);fill-opacity:1;stroke:none"
     id="rect5237-8"
     width="11.853333"
     height="11.853333"
     x="0.84666723"
     y="0.84667516"
     ry="1.6761965" />
  <path
     inkscape:connector-curvature="0"
     style="fill:#000000;fill-opacity:0.11764706;stroke:none"
     d="m 0.84666611,10.318792 0,0.705556 c 0,0.928624 0.74708199,1.675694 1.67569499,1.675694 l 8.5019449,0 c 0.928612,0 1.675694,-0.74707 1.675694,-1.675694 l 0,-0.705556 c 0,0.928624 -0.747082,1.675695 -1.675694,1.675695 l -8.5019449,0 c -0.928613,0 -1.67569499,-0.747071 -1.67569499,-1.675695 z"
     id="rect5265-0" />
  <path
     inkscape:connector-curvature="0"
     style="fill:#000000;fill-opacity:0.09803922;stroke:none"
     d="m 0.84666611,10.883237 0,0.141111 c 0,0.928624 0.74708199,1.675694 1.67569499,1.675694 l 8.5019449,0 c 0.928612,0 1.675694,-0.74707 1.675694,-1.675694 l 0,-0.141111 c 0,0.928624 -0.747082,1.675694 -1.675694,1.675694 l -8.5019449,0 c -0.928613,0 -1.67569499,-0.74707 -1.67569499,-1.675694 z"
     id="path5252-0" />
  <path
     style="opacity:1;fill:#000000;fill-opacity:0.49803922;stroke:none;stroke-width:2.79999995;stroke-miterlimit:4;stroke-dasharray:none;stroke-opacity:0.55026455"
     d="m 5.2828474,3.1044445 c -1.2068389,0 -2.1784029,0.9820747 -2.1784029,2.2016917 0,0.6065955 0.2270661,1.1099784 0.5177289,1.5509476 l 0.8437729,1.2920832 0,-0.8021216 c 0.2522662,0.1027344 0.5273923,0.1603348 0.8169011,0.1603348 1.206839,0 2.1784028,-0.9816269 2.1784028,-2.201244 0,-1.219617 -0.9715638,-2.2016917 -2.1784028,-2.2016917 z m 2.9809723,2.2930557 c -0.1426003,0 -0.2812428,0.015008 -0.4160642,0.041203 -0.076466,1.0708772 -0.7864832,1.9572267 -1.7569642,2.2791724 0.027553,0.5534966 0.2410634,1.0206831 0.5123544,1.4322639 l 0.8437729,1.2920825 0,-0.8021205 c 0.2522664,0.102734 0.527392,0.160335 0.8169011,0.160335 1.2068383,0 2.1784033,-0.9816266 2.1784033,-2.2012447 0,-1.2196176 -0.971565,-2.2016916 -2.1784033,-2.2016916 z"
     id="rect4291"
     inkscape:connector-curvature="0" />
</svg>
