<?xml version="1.0" encoding="UTF-8" standalone="no"?>
<svg
   xmlns:dc="http://purl.org/dc/elements/1.1/"
   xmlns:cc="http://creativecommons.org/ns#"
   xmlns:rdf="http://www.w3.org/1999/02/22-rdf-syntax-ns#"
   xmlns:svg="http://www.w3.org/2000/svg"
   xmlns="http://www.w3.org/2000/svg"
   xmlns:xlink="http://www.w3.org/1999/xlink"
   xmlns:sodipodi="http://sodipodi.sourceforge.net/DTD/sodipodi-0.dtd"
   xmlns:inkscape="http://www.inkscape.org/namespaces/inkscape"
   width="48"
   viewBox="0 0 13.546667 13.546667"
   height="48"
   id="svg2"
   version="1.1"
   inkscape:version="0.48+devel r"
   sodipodi:docname="web-google-drawings.svg">
  <metadata
     id="metadata22">
    <rdf:RDF>
      <cc:Work
         rdf:about="">
        <dc:format>image/svg+xml</dc:format>
        <dc:type
           rdf:resource="http://purl.org/dc/dcmitype/StillImage" />
        <dc:title />
      </cc:Work>
    </rdf:RDF>
  </metadata>
  <sodipodi:namedview
     pagecolor="#ffffff"
     bordercolor="#666666"
     borderopacity="1"
     objecttolerance="10"
     gridtolerance="10"
     guidetolerance="10"
     inkscape:pageopacity="0"
     inkscape:pageshadow="2"
     inkscape:window-width="1366"
     inkscape:window-height="665"
     id="namedview20"
     showgrid="false"
     inkscape:showpageshadow="false"
     borderlayer="true"
     inkscape:zoom="6.604015"
     inkscape:cx="9.3877235"
     inkscape:cy="25.258317"
     inkscape:window-x="-2"
     inkscape:window-y="26"
     inkscape:window-maximized="1"
     inkscape:current-layer="svg2">
    <sodipodi:guide
       position="8.5999999,8.6000013"
       orientation="-30.800001,0"
       id="guide4758" />
    <sodipodi:guide
       position="8.5999999,39.400002"
       orientation="0,30.800002"
       id="guide4760" />
    <sodipodi:guide
       position="39.400002,39.400002"
       orientation="30.800001,0"
       id="guide4762" />
    <sodipodi:guide
       position="39.400002,8.6000013"
       orientation="0,-30.800002"
       id="guide4764" />
  </sodipodi:namedview>
  <defs
     id="defs4">
    <linearGradient
       inkscape:collect="always"
       id="linearGradient6125">
      <stop
         style="stop-color:#f81654;stop-opacity:1"
         offset="0"
         id="stop6127" />
      <stop
         style="stop-color:#fd668f;stop-opacity:1"
         offset="1"
         id="stop6129" />
    </linearGradient>
    <linearGradient
       gradientTransform="matrix(0.28222223,0,0,0.28222223,-2.6439209e-6,-283.45334)"
       inkscape:collect="always"
       xlink:href="#linearGradient6125"
       id="linearGradient6131"
       x1="28.399813"
       y1="1049.3252"
       x2="28.399813"
       y2="1007.3821"
       gradientUnits="userSpaceOnUse" />
  </defs>
  <rect
     style="fill:#000000;fill-opacity:0.01960784;stroke:none"
     id="rect5263"
     width="12.530657"
     height="12.530657"
     x="0.50800508"
     y="0.50800508"
     ry="1.7719787" />
  <rect
     ry="1.7480332"
     y="0.59270281"
     x="0.59266847"
     height="12.361326"
     width="12.361326"
     id="rect5261"
     style="fill:#000000;fill-opacity:0.03921569;stroke:none" />
  <rect
     style="fill:#000000;fill-opacity:0.07843137;stroke:none"
     id="rect5259"
     width="12.191996"
     height="12.191996"
     x="0.67733282"
     y="0.67738324"
     ry="1.7240876" />
  <rect
     ry="1.700142"
     y="0.76204646"
     x="0.76200289"
     height="12.022664"
     width="12.022664"
     id="rect5257"
     style="fill:#000000;fill-opacity:0.15686275;stroke:none" />
  <rect
     style="fill:url(#linearGradient6131);fill-opacity:1;stroke:none"
     id="rect5237"
     width="11.853333"
     height="11.853333"
     x="0.84666723"
     y="0.84667522"
     ry="1.6761965" />
  <path
     inkscape:connector-curvature="0"
     style="fill:#000000;fill-opacity:0.11764706;stroke:none"
     d="m 0.84666336,10.318758 0,0.705555 c 0,0.928624 0.74708204,1.675695 1.67569474,1.675695 l 8.5019449,0 c 0.928613,0 1.675694,-0.747071 1.675694,-1.675695 l 0,-0.705555 c 0,0.928624 -0.747081,1.675694 -1.675694,1.675694 l -8.5019449,0 c -0.9286127,0 -1.67569474,-0.74707 -1.67569474,-1.675694 z"
     id="rect5265" />
  <path
     inkscape:connector-curvature="0"
     style="fill:#000000;fill-opacity:0.09803922;stroke:none"
     d="m 0.84666336,10.883202 0,0.141111 c 0,0.928624 0.74708204,1.675695 1.67569474,1.675695 l 8.5019449,0 c 0.928613,0 1.675694,-0.747071 1.675694,-1.675695 l 0,-0.141111 c 0,0.928624 -0.747081,1.675695 -1.675694,1.675695 l -8.5019449,0 c -0.9286127,0 -1.67569474,-0.747071 -1.67569474,-1.675695 z"
     id="path5252" />
  <text
     xml:space="preserve"
     style="font-style:normal;font-variant:normal;font-weight:bold;font-stretch:normal;font-size:11.28888893px;line-height:125%;font-family:Impact;-inkscape-font-specification:'Impact Bold';letter-spacing:0px;word-spacing:0px;fill:#000000;fill-opacity:1;stroke:none"
     x="-1.0672302"
     y="16.450941"
     id="text830"
     sodipodi:linespacing="125%"><tspan
       sodipodi:role="line"
       id="tspan832"
       x="-1.0672302"
       y="16.450941" /></text>
  <path
     style="opacity:1;fill:#000000;fill-opacity:0.49803922;stroke:none;stroke-width:2.79999995;stroke-miterlimit:4;stroke-dasharray:none;stroke-opacity:0.55026455"
     d="m 5.6058986,3.1044425 c -1.3858042,0 -2.5014521,1.1156474 -2.5014521,2.5014511 0,1.385804 1.1156479,2.5014513 2.5014521,2.5014513 1.3858045,0 2.5014521,-1.1156473 2.5014521,-2.5014513 0,-1.3858037 -1.1156476,-2.5014511 -2.5014521,-2.5014511 z m 2.9695439,2.334874 c 0.00305,0.055482 0.00837,0.1103066 0.00837,0.1665771 0,1.6497666 -1.3281521,2.9779181 -2.9779194,2.9779181 -0.056271,0 -0.111095,-0.00533 -0.1665771,-0.00837 l 0,1.8667823 5.002904,0 0,-5.0029021 -1.8667829,0 z"
     id="rect4766"
     inkscape:connector-curvature="0" />
</svg>
