<?xml version="1.0" encoding="UTF-8" standalone="no"?>
<!-- Created with Inkscape (http://www.inkscape.org/) -->

<svg
   xmlns:dc="http://purl.org/dc/elements/1.1/"
   xmlns:cc="http://creativecommons.org/ns#"
   xmlns:rdf="http://www.w3.org/1999/02/22-rdf-syntax-ns#"
   xmlns:svg="http://www.w3.org/2000/svg"
   xmlns="http://www.w3.org/2000/svg"
   xmlns:xlink="http://www.w3.org/1999/xlink"
   xmlns:sodipodi="http://sodipodi.sourceforge.net/DTD/sodipodi-0.dtd"
   xmlns:inkscape="http://www.inkscape.org/namespaces/inkscape"
   width="48"
   height="48"
   id="svg6536"
   version="1.1"
   inkscape:version="0.48+devel r12859"
   sodipodi:docname="application-postscript.svg">
  <defs
     id="defs6538">
    <linearGradient
       gradientUnits="userSpaceOnUse"
       y2="1007.4111"
       x2="25.388002"
       y1="1049.5046"
       x1="25.388002"
       id="linearGradient7270"
       xlink:href="#linearGradient4753-0"
       inkscape:collect="always"
       gradientTransform="translate(521.71429,-398.85713)" />
    <linearGradient
       inkscape:collect="always"
       id="linearGradient4753-0">
      <stop
         style="stop-color:#455865;stop-opacity:1"
         offset="0"
         id="stop4755-1" />
      <stop
         style="stop-color:#607b8e;stop-opacity:1"
         offset="1"
         id="stop4757-3" />
    </linearGradient>
  </defs>
  <sodipodi:namedview
     id="base"
     pagecolor="#ffffff"
     bordercolor="#666666"
     borderopacity="1.0"
     inkscape:pageopacity="0.0"
     inkscape:pageshadow="2"
     inkscape:zoom="6.2534756"
     inkscape:cx="15.571353"
     inkscape:cy="21.540787"
     inkscape:document-units="px"
     inkscape:current-layer="layer1"
     showgrid="false"
     fit-margin-top="0"
     fit-margin-left="0"
     fit-margin-right="0"
     fit-margin-bottom="0"
     inkscape:window-width="1366"
     inkscape:window-height="673"
     inkscape:window-x="0"
     inkscape:window-y="24"
     inkscape:window-maximized="1"
     showguides="false">
    <inkscape:grid
       type="xygrid"
       id="grid3918" />
  </sodipodi:namedview>
  <metadata
     id="metadata6541">
    <rdf:RDF>
      <cc:Work
         rdf:about="">
        <dc:format>image/svg+xml</dc:format>
        <dc:type
           rdf:resource="http://purl.org/dc/dcmitype/StillImage" />
        <dc:title />
      </cc:Work>
    </rdf:RDF>
  </metadata>
  <g
     inkscape:label="Capa 1"
     inkscape:groupmode="layer"
     id="layer1"
     transform="translate(-521.71429,-605.50507)">
    <path
       inkscape:connector-curvature="0"
       style="fill:#000000;fill-opacity:0.01960784;stroke:none"
       d="m 529.79241,607.30585 c -3.47838,0 -6.27734,2.79896 -6.27734,6.27734 l 0,31.84375 c 0,3.47838 2.79896,6.27735 6.27734,6.27735 l 31.84375,0 c 3.47839,0 6.27735,-2.79897 6.27735,-6.27735 l 0,-28.92187 -1.19922,0.008 0,-0.008 1.19922,0 -9.19922,-9.19922 -28.92188,0 z"
       id="rect5263" />
    <path
       inkscape:connector-curvature="0"
       style="fill:#000000;fill-opacity:0.03921569;stroke:none"
       d="m 530.00726,607.60468 c -3.43138,0 -6.19336,2.76394 -6.19336,6.19531 l 0,31.41211 c 0,3.43138 2.76198,6.19336 6.19336,6.19336 l 31.41406,0 c 3.43138,0 6.19336,-2.76198 6.19336,-6.19336 l 0,-28.70703 -0.90039,0.008 0,-0.008 0.90039,0 -8.90039,-8.90039 -28.70703,0 z"
       id="rect5261" />
    <path
       inkscape:connector-curvature="0"
       style="fill:#000000;fill-opacity:0.07843137;stroke:none"
       d="m 530.22406,607.90546 c -3.38437,0 -6.10938,2.72501 -6.10938,6.10938 l 0,30.98242 c 0,3.38437 2.72501,6.10742 6.10938,6.10742 l 30.98046,0 c 3.38437,0 6.10938,-2.72305 6.10938,-6.10742 l 0,-28.49219 -0.59961,0.008 0,-0.008 0.59961,0 -8.59961,-8.59961 -28.49023,0 z"
       id="rect5259" />
    <path
       inkscape:connector-curvature="0"
       style="fill:#000000;fill-opacity:0.15686275;stroke:none"
       d="m 530.4389,608.20429 c -3.33737,0 -6.02539,2.68802 -6.02539,6.02539 l 0,30.55078 c 0,3.33737 2.68802,6.02539 6.02539,6.02539 l 30.55078,0 c 3.33737,0 6.02539,-2.68802 6.02539,-6.02539 l 0,-28.27539 -0.30078,0.008 0,-0.008 0.30078,0 -8.30078,-8.30078 -28.27539,0 z"
       id="rect5257" />
    <path
       inkscape:connector-curvature="0"
       style="fill:url(#linearGradient7270);fill-opacity:1;stroke:none"
       d="m 530.65374,608.50507 c -3.29036,0 -5.93945,2.64909 -5.93945,5.93945 l 0,30.1211 c 0,3.29036 2.64909,5.93945 5.93945,5.93945 l 30.1211,0 c 3.29036,0 5.93945,-2.64909 5.93945,-5.93945 l 0,-28.06055 -8,0 0,-7.90234 0,-0.084 0,-0.0137 -28.06055,0 z"
       id="rect5237" />
    <path
       inkscape:connector-curvature="0"
       style="fill:#000000;fill-opacity:0.11764706;stroke:none"
       d="m 524.71429,642.06762 0,2.5 c 0,3.2904 2.64714,5.9375 5.9375,5.9375 l 30.125,0 c 3.29036,0 5.9375,-2.6471 5.9375,-5.9375 l 0,-2.5 c 0,3.2904 -2.64714,5.9375 -5.9375,5.9375 l -30.125,0 c -3.29036,0 -5.9375,-2.6471 -5.9375,-5.9375 z"
       id="rect5265" />
    <path
       inkscape:connector-curvature="0"
       style="fill:#000000;fill-opacity:0.09803922;stroke:none"
       d="m 524.71429,644.06762 0,0.5 c 0,3.2904 2.64714,5.9375 5.9375,5.9375 l 30.125,0 c 3.29036,0 5.9375,-2.6471 5.9375,-5.9375 l 0,-0.5 c 0,3.2904 -2.64714,5.9375 -5.9375,5.9375 l -30.125,0 c -3.29036,0 -5.9375,-2.6471 -5.9375,-5.9375 z"
       id="path5252" />
    <path
       style="opacity:0.74599998;fill:#fcfdfe;fill-opacity:1;stroke:none"
       d="m 566.71429,616.50507 -8,-8 0,8 z"
       id="rect4179"
       inkscape:connector-curvature="0"
       sodipodi:nodetypes="cccc" />
    <g
       style="font-size:10px;font-style:normal;font-variant:normal;font-weight:normal;font-stretch:normal;line-height:125%;letter-spacing:0px;word-spacing:0px;fill:#000000;fill-opacity:1;stroke:none;font-family:Decker;-inkscape-font-specification:Decker"
       id="text6661" />
    <path
       inkscape:connector-curvature="0"
       id="path306"
       style="fill:#ffffff;fill-opacity:0.49803922;fill-rule:nonzero;stroke:none"
       d="m 548.6026,633.84139 2.88834,0 0,-1.44843 -2.88834,0 0,1.44843 z m 2.88834,1.43947 -11.55364,0 0,1.4484 11.55364,0 0,-1.4484 z m -7.2208,-4.32739 7.2208,0 0,-1.44842 -7.2208,0 0,1.44842 z m -1.4445,-1.44842 -2.88834,0 0,1.44842 2.88834,0 0,-1.44842 z m 1.4445,-7.21526 -4.33284,0 0,5.7758 4.33284,0 0,-5.7758 z m 1.44412,2.88791 5.77668,0 0,-2.88791 -5.77668,0 0,2.88791 z m 5.77668,1.43949 -5.77668,0 0,1.4484 5.77668,0 0,-1.4484 z m -4.33246,5.77577 -7.22118,0 0,1.44843 7.22118,0 0,-1.44843 z m 7.22073,7.22423 -17.33021,0 0,-20.22423 17.33021,0 0,20.22423 z m 0,-23.11212 -17.33021,0 c -1.58876,0 -2.88832,1.30536 -2.88832,2.88789 l 0,20.22423 c 0,1.59146 1.29956,2.88788 2.88832,2.88788 l 17.33021,0 c 1.58877,0 2.88869,-1.29642 2.88869,-2.88788 l 0,-20.22423 c 0,-1.58253 -1.29992,-2.88789 -2.88869,-2.88789" />
    <path
       style="fill:#000000"
       d=""
       id="path906"
       inkscape:connector-curvature="0" />
  </g>
</svg>
