<?xml version="1.0" encoding="UTF-8" standalone="no"?>
<!-- Created with Inkscape (http://www.inkscape.org/) -->

<svg
   xmlns:dc="http://purl.org/dc/elements/1.1/"
   xmlns:cc="http://creativecommons.org/ns#"
   xmlns:rdf="http://www.w3.org/1999/02/22-rdf-syntax-ns#"
   xmlns:svg="http://www.w3.org/2000/svg"
   xmlns="http://www.w3.org/2000/svg"
   xmlns:xlink="http://www.w3.org/1999/xlink"
   xmlns:sodipodi="http://sodipodi.sourceforge.net/DTD/sodipodi-0.dtd"
   xmlns:inkscape="http://www.inkscape.org/namespaces/inkscape"
   width="48"
   height="48"
   id="svg6391"
   version="1.1"
   inkscape:version="0.48+devel r12859"
   sodipodi:docname="application-vnd.oasis.opendocument.graphics.svg">
  <defs
     id="defs6393">
    <linearGradient
       id="linearGradient868">
      <stop
         id="stop870"
         offset="0"
         style="stop-color:#39b6b6;stop-opacity:1" />
      <stop
         id="stop872"
         offset="1"
         style="stop-color:#a8e5e5;stop-opacity:1" />
    </linearGradient>
    <linearGradient
       gradientUnits="userSpaceOnUse"
       y2="1007.4111"
       x2="25.388002"
       y1="1049.5046"
       x1="25.388002"
       id="linearGradient7270"
       xlink:href="#linearGradient868"
       inkscape:collect="always"
       gradientTransform="translate(481.71429,-473.14292)" />
  </defs>
  <sodipodi:namedview
     id="base"
     pagecolor="#ffffff"
     bordercolor="#666666"
     borderopacity="1.0"
     inkscape:pageopacity="0.0"
     inkscape:pageshadow="2"
     inkscape:zoom="3.8452759"
     inkscape:cx="-49.705691"
     inkscape:cy="19.367456"
     inkscape:document-units="px"
     inkscape:current-layer="layer1"
     showgrid="false"
     fit-margin-top="0"
     fit-margin-left="0"
     fit-margin-right="0"
     fit-margin-bottom="0"
     inkscape:window-width="1366"
     inkscape:window-height="673"
     inkscape:window-x="0"
     inkscape:window-y="24"
     inkscape:window-maximized="1" />
  <metadata
     id="metadata6396">
    <rdf:RDF>
      <cc:Work
         rdf:about="">
        <dc:format>image/svg+xml</dc:format>
        <dc:type
           rdf:resource="http://purl.org/dc/dcmitype/StillImage" />
        <dc:title />
      </cc:Work>
    </rdf:RDF>
  </metadata>
  <g
     inkscape:label="Capa 1"
     inkscape:groupmode="layer"
     id="layer1"
     transform="translate(-481.71429,-531.2193)">
    <g
       id="layer1-6"
       inkscape:label="Capa 1">
      <path
         id="rect5263"
         d="m 489.79241,533.02008 c -3.47838,0 -6.27734,2.79896 -6.27734,6.27734 l 0,31.84375 c 0,3.47838 2.79896,6.27735 6.27734,6.27735 l 31.84375,0 c 3.47838,0 6.27735,-2.79897 6.27735,-6.27735 l 0,-28.92187 -1.19922,0.008 0,-0.008 1.19922,0 -9.19922,-9.19922 -28.92188,0 z"
         style="fill:#000000;fill-opacity:0.01960784;stroke:none"
         inkscape:connector-curvature="0" />
      <path
         id="rect5261"
         d="m 490.00726,533.31891 c -3.43138,0 -6.19336,2.76394 -6.19336,6.19531 l 0,31.41211 c 0,3.43138 2.76198,6.19336 6.19336,6.19336 l 31.41406,0 c 3.43138,0 6.19336,-2.76198 6.19336,-6.19336 l 0,-28.70703 -0.90039,0.008 0,-0.008 0.90039,0 -8.90039,-8.90039 -28.70703,0 z"
         style="fill:#000000;fill-opacity:0.03921569;stroke:none"
         inkscape:connector-curvature="0" />
      <path
         id="rect5259"
         d="m 490.22406,533.61969 c -3.38437,0 -6.10938,2.72501 -6.10938,6.10938 l 0,30.98242 c 0,3.38437 2.72501,6.10742 6.10938,6.10742 l 30.98046,0 c 3.38438,0 6.10938,-2.72305 6.10938,-6.10742 l 0,-28.49219 -0.59961,0.008 0,-0.008 0.59961,0 -8.59961,-8.59961 -28.49023,0 z"
         style="fill:#000000;fill-opacity:0.07843137;stroke:none"
         inkscape:connector-curvature="0" />
      <path
         id="rect5257"
         d="m 490.4389,533.91852 c -3.33737,0 -6.02539,2.68802 -6.02539,6.02539 l 0,30.55078 c 0,3.33737 2.68802,6.02539 6.02539,6.02539 l 30.55078,0 c 3.33737,0 6.02539,-2.68802 6.02539,-6.02539 l 0,-28.27539 -0.30078,0.008 0,-0.008 0.30078,0 -8.30078,-8.30078 -28.27539,0 z"
         style="fill:#000000;fill-opacity:0.15686275;stroke:none"
         inkscape:connector-curvature="0" />
      <path
         id="rect5237"
         d="m 490.65374,534.2193 c -3.29036,0 -5.93945,2.64909 -5.93945,5.93945 l 0,30.1211 c 0,3.29036 2.64909,5.93945 5.93945,5.93945 l 30.1211,0 c 3.29036,0 5.93945,-2.64909 5.93945,-5.93945 l 0,-28.06055 -8,0 0,-7.90234 0,-0.084 0,-0.0137 -28.06055,0 z"
         style="fill:url(#linearGradient7270);fill-opacity:1;stroke:none"
         inkscape:connector-curvature="0" />
      <path
         id="rect5265"
         d="m 484.71429,567.78185 0,2.5 c 0,3.2904 2.64714,5.9375 5.9375,5.9375 l 30.125,0 c 3.29036,0 5.9375,-2.6471 5.9375,-5.9375 l 0,-2.5 c 0,3.2904 -2.64714,5.9375 -5.9375,5.9375 l -30.125,0 c -3.29036,0 -5.9375,-2.6471 -5.9375,-5.9375 z"
         style="fill:#000000;fill-opacity:0.11764706;stroke:none"
         inkscape:connector-curvature="0" />
      <path
         id="path5252"
         d="m 484.71429,569.78185 0,0.5 c 0,3.2904 2.64714,5.9375 5.9375,5.9375 l 30.125,0 c 3.29036,0 5.9375,-2.6471 5.9375,-5.9375 l 0,-0.5 c 0,3.2904 -2.64714,5.9375 -5.9375,5.9375 l -30.125,0 c -3.29036,0 -5.9375,-2.6471 -5.9375,-5.9375 z"
         style="fill:#000000;fill-opacity:0.09803922;stroke:none"
         inkscape:connector-curvature="0" />
      <path
         sodipodi:nodetypes="cccc"
         inkscape:connector-curvature="0"
         id="rect4179"
         d="m 526.71429,542.2193 -8,-8 0,8 z"
         style="opacity:0.74599998;fill:#fcfdfe;fill-opacity:1;stroke:none" />
      <path
         id="path2783-7"
         style="fill:#000000;fill-opacity:0.49803922;fill-rule:evenodd;stroke:#addddd;stroke-width:1.08085287px;stroke-opacity:1"
         d="m 496.51951,566.6804 c 4.74083,3.04131 15.09195,-1.02746 6.4863,-11.9164 -8.52684,-10.79016 8.47281,-17.86639 13.51715,-5.38805"
         inkscape:connector-curvature="0" />
      <rect
         id="rect3565-5"
         style="fill:#addddd;fill-opacity:1;stroke:none"
         height="3.2425587"
         width="3.2425587"
         y="564.97491"
         x="493.82495" />
      <rect
         id="rect3567-9"
         style="fill:#addddd;fill-opacity:1;stroke:none"
         height="3.2425587"
         width="3.2425587"
         y="547.68127"
         x="514.36115" />
      <path
         id="path3571-1"
         style="fill:none;stroke:#addddd;stroke-width:1.08085287px;stroke-opacity:1"
         d="m 495.37921,544.9585 16.3533,20.45082"
         inkscape:connector-curvature="0" />
      <path
         id="path3573-4"
         style="fill:#6fcdcd;fill-opacity:1;stroke:#addddd;stroke-width:1.08085287;stroke-opacity:1"
         d="m 496.52707,544.97904 c 4e-4,0.59728 -0.48362,1.08161 -1.08085,1.08161 -0.59722,0 -1.08128,-0.48433 -1.08085,-1.08161 -4e-4,-0.59717 0.48363,-1.08161 1.08085,-1.08161 0.59723,0 1.08129,0.48433 1.08085,1.08161 z"
         inkscape:connector-curvature="0" />
      <path
         id="path3575-2"
         style="fill:#6fcdcd;fill-opacity:1;stroke:#addddd;stroke-width:1.08085287;stroke-opacity:1"
         d="m 512.73987,565.51524 c 4e-4,0.59728 -0.48363,1.08161 -1.08086,1.08161 -0.59722,0 -1.08128,-0.48433 -1.08085,-1.08161 -4e-4,-0.59717 0.48363,-1.08161 1.08085,-1.08161 0.59723,0 1.08129,0.48433 1.08086,1.08161 z"
         inkscape:connector-curvature="0" />
      <rect
         id="rect3569-8"
         style="fill:#addddd;fill-opacity:1;stroke:none"
         height="3.2425587"
         width="3.2425587"
         y="553.08563"
         x="501.39093" />
      <path
         inkscape:connector-curvature="0"
         id="path906"
         d=""
         style="fill:#000000" />
    </g>
  </g>
</svg>
