<?xml version="1.0" encoding="UTF-8" standalone="no"?>
<!-- Created with Inkscape (http://www.inkscape.org/) -->

<svg
   xmlns:dc="http://purl.org/dc/elements/1.1/"
   xmlns:cc="http://creativecommons.org/ns#"
   xmlns:rdf="http://www.w3.org/1999/02/22-rdf-syntax-ns#"
   xmlns:svg="http://www.w3.org/2000/svg"
   xmlns="http://www.w3.org/2000/svg"
   xmlns:xlink="http://www.w3.org/1999/xlink"
   xmlns:sodipodi="http://sodipodi.sourceforge.net/DTD/sodipodi-0.dtd"
   xmlns:inkscape="http://www.inkscape.org/namespaces/inkscape"
   width="48"
   height="48"
   id="svg4768"
   version="1.1"
   inkscape:version="0.48+devel r12859"
   sodipodi:docname="application-x-jar.svg"
   inkscape:export-filename="/home/uri/mintscicon.png"
   inkscape:export-xdpi="13.719384"
   inkscape:export-ydpi="13.719384">
  <defs
     id="defs4770">
    <linearGradient
       id="linearGradient4753"
       inkscape:collect="always">
      <stop
         id="stop4755"
         offset="0"
         style="stop-color:#eb8632;stop-opacity:1" />
      <stop
         id="stop4757"
         offset="1"
         style="stop-color:#f9922a;stop-opacity:1" />
    </linearGradient>
    <style
       type="text/css"
       id="style874"><![CDATA[
    .fil0 {fill:#1F1A17}
   ]]></style>
    <linearGradient
       gradientUnits="userSpaceOnUse"
       y2="1007.4396"
       x2="29.135878"
       y1="1049.4602"
       x1="29.135878"
       id="linearGradient7167"
       xlink:href="#linearGradient4753"
       inkscape:collect="always"
       gradientTransform="translate(0,4.7900391e-5)" />
  </defs>
  <sodipodi:namedview
     id="base"
     pagecolor="#ffffff"
     bordercolor="#666666"
     borderopacity="1.0"
     inkscape:pageopacity="0.0"
     inkscape:pageshadow="2"
     inkscape:zoom="2.2109374"
     inkscape:cx="-64.212745"
     inkscape:cy="2.1311353"
     inkscape:document-units="px"
     inkscape:current-layer="layer1"
     showgrid="false"
     inkscape:window-width="1366"
     inkscape:window-height="673"
     inkscape:window-x="0"
     inkscape:window-y="24"
     inkscape:window-maximized="1"
     showguides="true"
     inkscape:guide-bbox="true"
     fit-margin-top="0"
     fit-margin-left="0"
     fit-margin-right="0"
     fit-margin-bottom="0" />
  <metadata
     id="metadata4773">
    <rdf:RDF>
      <cc:Work
         rdf:about="">
        <dc:format>image/svg+xml</dc:format>
        <dc:type
           rdf:resource="http://purl.org/dc/dcmitype/StillImage" />
        <dc:title />
      </cc:Work>
    </rdf:RDF>
  </metadata>
  <g
     inkscape:label="Capa 1"
     inkscape:groupmode="layer"
     id="layer1"
     transform="translate(-237.12677,-423.77933)">
    <g
       style="font-size:10px;font-style:normal;font-variant:normal;font-weight:normal;font-stretch:normal;line-height:125%;letter-spacing:0px;word-spacing:0px;fill:#000000;fill-opacity:1;stroke:none;font-family:Decker;-inkscape-font-specification:Decker"
       id="text6661"
       transform="translate(-180.25283,-182.16084)" />
    <g
       transform="translate(-420.19827,-187.16322)"
       id="text6661-4"
       style="font-size:10px;font-style:normal;font-variant:normal;font-weight:normal;font-stretch:normal;line-height:125%;letter-spacing:0px;word-spacing:0px;fill:#000000;fill-opacity:1;stroke:none;font-family:Decker;-inkscape-font-specification:Decker" />
    <path
       inkscape:connector-curvature="0"
       id="path906"
       d=""
       style="font-size:7.5px;font-style:normal;font-variant:normal;font-weight:bold;font-stretch:normal;line-height:125%;letter-spacing:0px;word-spacing:0px;fill:#000000;fill-opacity:1;stroke:none;font-family:Impact;-inkscape-font-specification:Impact Bold" />
    <g
       style="font-size:10px;font-style:normal;font-variant:normal;font-weight:normal;font-stretch:normal;line-height:125%;letter-spacing:0px;word-spacing:0px;fill:#000000;fill-opacity:1;stroke:none;font-family:Decker;-inkscape-font-specification:Decker"
       id="text6661-05"
       transform="translate(-98.811128,-187.16437)" />
    <g
       id="layer1-57"
       inkscape:label="Capa 1">
      <g
         transform="translate(-180.25283,-182.16084)"
         id="text6661-0"
         style="font-size:10px;font-style:normal;font-variant:normal;font-weight:normal;font-stretch:normal;line-height:125%;letter-spacing:0px;word-spacing:0px;fill:#000000;fill-opacity:1;stroke:none;font-family:Decker;-inkscape-font-specification:Decker" />
      <g
         inkscape:label="Capa 1"
         id="layer1-1">
        <g
           style="font-size:10px;font-style:normal;font-variant:normal;font-weight:normal;font-stretch:normal;line-height:125%;letter-spacing:0px;word-spacing:0px;fill:#000000;fill-opacity:1;stroke:none;font-family:Decker;-inkscape-font-specification:Decker"
           id="text6661-8"
           transform="translate(-180.25283,-182.16084)" />
        <g
           id="layer1-5"
           inkscape:label="Capa 1">
          <g
             transform="translate(-180.25283,-182.16084)"
             id="text6661-4-1"
             style="font-size:10px;font-style:normal;font-variant:normal;font-weight:normal;font-stretch:normal;line-height:125%;letter-spacing:0px;word-spacing:0px;fill:#000000;fill-opacity:1;stroke:none;font-family:Decker;-inkscape-font-specification:Decker" />
          <g
             transform="translate(0,-2.0996093e-6)"
             inkscape:label="Capa 1"
             id="layer1-0">
            <g
               style="font-size:10px;font-style:normal;font-variant:normal;font-weight:normal;font-stretch:normal;line-height:125%;letter-spacing:0px;word-spacing:0px;fill:#000000;fill-opacity:1;stroke:none;font-family:Decker;-inkscape-font-specification:Decker"
               id="text6661-3"
               transform="translate(-180.25283,-182.16084)" />
            <g
               transform="translate(237.12677,-580.58282)"
               id="layer1-6-5"
               inkscape:label="Capa 1">
              <rect
                 ry="6.2786646"
                 y="1006.1622"
                 x="1.8000183"
                 height="44.399963"
                 width="44.399963"
                 id="rect5263-2"
                 style="fill:#000000;fill-opacity:0.01960784;stroke:none" />
              <rect
                 style="fill:#000000;fill-opacity:0.03921569;stroke:none"
                 id="rect5261-7"
                 width="43.799973"
                 height="43.799973"
                 x="2.1000061"
                 y="1006.4623"
                 ry="6.1938181" />
              <rect
                 ry="6.1089716"
                 y="1006.7624"
                 x="2.3999939"
                 height="43.199982"
                 width="43.199982"
                 id="rect5259-1"
                 style="fill:#000000;fill-opacity:0.07843137;stroke:none" />
              <rect
                 style="fill:#000000;fill-opacity:0.15686275;stroke:none"
                 id="rect5257-2"
                 width="42.599991"
                 height="42.599991"
                 x="2.7000122"
                 y="1007.0624"
                 ry="6.0241251" />
              <rect
                 ry="5.9392786"
                 y="1007.3622"
                 x="3"
                 height="42"
                 width="42"
                 id="rect5237-8"
                 style="fill:url(#linearGradient7167);fill-opacity:1;stroke:none" />
              <path
                 id="rect5265-8"
                 d="m 2.9999991,1040.9247 0,2.5 c 0,3.2904 2.64714,5.9375 5.9375,5.9375 l 30.1249999,0 c 3.29036,0 5.9375,-2.6471 5.9375,-5.9375 l 0,-2.5 c 0,3.2904 -2.64714,5.9375 -5.9375,5.9375 l -30.1249999,0 c -3.29036,0 -5.9375,-2.6471 -5.9375,-5.9375 z"
                 style="fill:#000000;fill-opacity:0.11764706;stroke:none"
                 inkscape:connector-curvature="0" />
              <path
                 id="path5252-3"
                 d="m 2.9999991,1042.9247 0,0.5 c 0,3.2904 2.64714,5.9375 5.9375,5.9375 l 30.1249999,0 c 3.29036,0 5.9375,-2.6471 5.9375,-5.9375 l 0,-0.5 c 0,3.2904 -2.64714,5.9375 -5.9375,5.9375 l -30.1249999,0 c -3.29036,0 -5.9375,-2.6471 -5.9375,-5.9375 z"
                 style="fill:#000000;fill-opacity:0.09803922;stroke:none"
                 inkscape:connector-curvature="0" />
              <path
                 inkscape:connector-curvature="0"
                 id="path906-6"
                 d=""
                 style="fill:#000000" />
              <path
                 id="rect6097"
                 d="m 20.375,1011.9247 c -0.20775,0 -0.375,0.1672 -0.375,0.375 l 0,2.25 c 0,0.2077 0.16725,0.375 0.375,0.375 l 1.21875,0 1.03125,0 0.375,0 0,-0.375 0,-0.4062 1.59375,0 0,-1.5938 -1.59375,0 0,-0.25 0,-0.375 -0.375,0 -1.03125,0 -1.21875,0 z m 4.625,1.9063 0,0.375 0,0.3437 -1.59375,0 0,1.5938 1.59375,0 0,0.3125 0,0.375 0.375,0 1.03125,0 1.21875,0 c 0.20775,0 0.375,-0.1673 0.375,-0.375 l 0,-2.25 c 0,-0.2078 -0.16725,-0.375 -0.375,-0.375 l -1.21875,0 -1.03125,0 -0.375,0 z m -4.625,2.0937 c -0.20775,0 -0.375,0.1671 -0.375,0.375 l 0,2.25 c 0,0.2077 0.16725,0.375 0.375,0.375 l 1.21875,0 1.03125,0 0.375,0 0,-0.375 0,-0.4062 1.59375,0 0,-1.5938 -1.59375,0 0,-0.25 0,-0.375 -0.375,0 -1.03125,0 -1.21875,0 z m 4.625,1.9063 0,0.375 0,0.3437 -1.59375,0 0,1.5938 1.59375,0 0,0.3125 0,0.375 0.375,0 1.03125,0 1.21875,0 c 0.20775,0 0.375,-0.1673 0.375,-0.375 l 0,-2.25 c 0,-0.2078 -0.16725,-0.375 -0.375,-0.375 l -1.21875,0 -1.03125,0 -0.375,0 z m -4.625,2.0937 c -0.20775,0 -0.375,0.1671 -0.375,0.375 l 0,2.25 c 0,0.2077 0.16725,0.375 0.375,0.375 l 1.21875,0 1.03125,0 0.375,0 0,-0.375 0,-0.4062 1.59375,0 0,-1.5938 -1.59375,0 0,-0.25 0,-0.375 -0.375,0 -1.03125,0 -1.21875,0 z m 4.625,1.9063 0,0.375 0,0.3437 -1.59375,0 0,1.5938 1.59375,0 0,0.3125 0,0.375 0.375,0 1.03125,0 1.21875,0 c 0.20775,0 0.375,-0.1673 0.375,-0.375 l 0,-2.25 c 0,-0.2078 -0.16725,-0.375 -0.375,-0.375 l -1.21875,0 -1.03125,0 -0.375,0 z m -4.625,2.0937 c -0.20775,0 -0.375,0.1671 -0.375,0.375 l 0,2.25 c 0,0.2077 0.16725,0.375 0.375,0.375 l 1.21875,0 1.03125,0 0.375,0 0,-0.375 0,-0.4062 1.59375,0 0,-1.5938 -1.59375,0 0,-0.25 0,-0.375 -0.375,0 -1.03125,0 -1.21875,0 z m 4.625,1.9063 0,0.375 0,0.3437 -1.59375,0 0,1.5938 1.59375,0 0,0.3125 0,0.375 0.375,0 1.03125,0 1.21875,0 c 0.20775,0 0.375,-0.1673 0.375,-0.375 l 0,-2.25 c 0,-0.2078 -0.16725,-0.375 -0.375,-0.375 l -1.21875,0 -1.03125,0 -0.375,0 z m -4.625,2.0937 c -0.20775,0 -0.375,0.1672 -0.375,0.375 l 0,2.25 c 0,0.2077 0.16725,0.375 0.375,0.375 l 1.21875,0 1.03125,0 0.375,0 0,-0.375 0,-0.4062 1.59375,0 0,-1.5938 -1.59375,0 0,-0.25 0,-0.375 -0.375,0 -1.03125,0 -1.21875,0 z m 4.625,1.9063 0,0.375 0,0.3437 -1.59375,0 0,1.5938 1.59375,0 0,0.3125 0,0.375 0.375,0 1.03125,0 1.21875,0 c 0.20775,0 0.375,-0.1673 0.375,-0.375 l 0,-2.25 c 0,-0.2078 -0.16725,-0.375 -0.375,-0.375 l -1.21875,0 -1.03125,0 -0.375,0 z m -4.625,2.0937 c -0.20775,0 -0.375,0.1671 -0.375,0.375 l 0,2.25 c 0,0.2077 0.16725,0.375 0.375,0.375 l 1.21875,0 1.03125,0 0.375,0 0,-0.375 0,-0.4062 1.59375,0 0,-1.5938 -1.59375,0 0,-0.25 0,-0.375 -0.375,0 -1.03125,0 -1.21875,0 z m 4.625,1.9063 0,0.375 0,0.3437 -1.59375,0 0,1.5938 1.59375,0 0,0.3125 0,0.375 0.375,0 1.03125,0 1.21875,0 c 0.20775,0 0.375,-0.1673 0.375,-0.375 l 0,-2.25 c 0,-0.2078 -0.16725,-0.375 -0.375,-0.375 l -1.21875,0 -1.03125,0 -0.375,0 z m -1.65625,4.3437 0,1.625 -0.15625,0 0,0.375 0,1.0313 -0.28125,3.2187 c -0.01928,0.2069 0.1673,0.375 0.375,0.375 l 1.4375,0 c 0.2078,0 0.394284,-0.1681 0.375,-0.375 l -0.28125,-3.2187 0,-1.0313 0,-0.375 -0.15625,0 0,-1.625 -1.3125,0 z m -0.03125,4.5 1.375,0 0.125,1.625 -1.625,0 0.125,-1.625 z"
                 style="fill:#ffffff;fill-opacity:0.49803922;stroke:none"
                 inkscape:connector-curvature="0" />
            </g>
          </g>
        </g>
      </g>
    </g>
    <path
       d="m 272.42935,451.27933 c 0.54476,2.14614 -1.9231,2.79871 -2.81322,4.13528 -0.60615,0.91065 0.29753,1.88617 1.52959,2.99769 -0.48047,-1.0861 -2.11051,-2.03787 0,-3.70484 2.63178,-2.07727 1.28363,-3.42813 1.28363,-3.42813 z m 1.62183,2.65949 c 3e-5,0 -4.44658,1.10974 -2.32129,3.5588 0.6274,0.72221 -0.16142,1.36818 -0.16142,1.36818 0,0 1.59192,-0.81518 0.86088,-1.84474 -0.68302,-0.95968 -1.21311,-1.43816 1.62183,-3.08224 z m 0.72252,4.37356 c -0.1363,0.007 -0.27676,0.0333 -0.42275,0.0845 -0.13656,0.0484 -0.20753,0.16141 -0.20753,0.16141 0,0 0.0842,-0.0367 0.27671,-0.0769 0.78717,-0.16403 1.91637,1.0542 -0.52268,2.32129 -0.0113,0.0302 -0.0462,0.0692 -0.0461,0.0692 2.95155,-0.7759 2.2399,-2.62716 0.92236,-2.55957 z m -5.27286,0.12298 c -0.31097,0.008 -1.04484,0.075 -1.89086,0.48424 -1.33443,0.64524 3.30377,0.93857 5.70331,0.30746 0.24946,-0.17024 0.59185,-0.31514 0.59185,-0.31514 0,0 -0.98215,0.17158 -1.96003,0.25365 -1.1969,0.10041 -2.47619,0.12467 -3.12068,0.0385 -1.52589,-0.204 0.83782,-0.76864 0.83782,-0.76864 0,-10e-6 -0.0578,-0.002 -0.16141,-10e-6 z m -0.39201,1.47579 c -2.20127,0.73058 1.22786,1.56093 4.30438,0.66103 -0.32687,-0.11523 -0.53805,-0.32283 -0.53805,-0.32283 -1.50421,0.28949 -2.37372,0.27503 -3.47425,0.16141 -0.85084,-0.0879 -0.29208,-0.49961 -0.29208,-0.49961 z m 0.30745,1.42198 c -1.99876,0.55847 1.22137,1.71295 3.76634,0.6226 -0.41683,-0.16199 -0.71484,-0.34589 -0.71484,-0.34589 -1.13489,0.21452 -1.66776,0.23291 -2.69792,0.1153 -0.85021,-0.0975 -0.35358,-0.39201 -0.35358,-0.39201 z m -1.29131,0.94542 c -0.85893,-0.0331 -2.80236,0.82131 -1.13758,1.09147 5.18847,0.84101 9.45479,-0.37667 8.10914,-0.98386 0,0 0.36496,0.30374 -0.40738,0.53805 -1.46861,0.44483 -6.11182,0.57658 -7.402,0.0154 -0.46346,-0.20187 0.40282,-0.47895 0.67641,-0.53805 0.28526,-0.0617 0.45349,-0.0461 0.45349,-0.0461 -0.0645,-0.0454 -0.16938,-0.0722 -0.29208,-0.0769 z m 7.794,0.76864 c 0,0 -0.16592,0.4201 -1.93697,0.75327 -1.99802,0.37616 -4.45715,0.33353 -5.91852,0.0922 0,0 0.2987,0.24688 1.83705,0.34588 2.34067,0.14965 5.93335,-0.0837 6.01844,-1.19139 z"
       inkscape:connector-curvature="0"
       id="path3672"
       style="font-size:7.5px;font-style:normal;font-variant:normal;font-weight:bold;font-stretch:normal;line-height:125%;letter-spacing:0px;word-spacing:0px;fill:#ffffff;fill-opacity:0.49803922;fill-rule:evenodd;stroke:none;display:inline;font-family:Impact;-inkscape-font-specification:Impact Bold" />
  </g>
</svg>
