<?xml version="1.0" encoding="UTF-8" standalone="no"?>
<!-- Created with Inkscape (http://www.inkscape.org/) -->

<svg
   xmlns:dc="http://purl.org/dc/elements/1.1/"
   xmlns:cc="http://creativecommons.org/ns#"
   xmlns:rdf="http://www.w3.org/1999/02/22-rdf-syntax-ns#"
   xmlns:svg="http://www.w3.org/2000/svg"
   xmlns="http://www.w3.org/2000/svg"
   xmlns:xlink="http://www.w3.org/1999/xlink"
   xmlns:sodipodi="http://sodipodi.sourceforge.net/DTD/sodipodi-0.dtd"
   xmlns:inkscape="http://www.inkscape.org/namespaces/inkscape"
   width="48"
   height="48"
   id="svg4214"
   version="1.1"
   inkscape:version="0.48+devel r12859"
   sodipodi:docname="application-wps-office.dot.svg">
  <defs
     id="defs4216">
    <linearGradient
       inkscape:collect="always"
       id="linearGradient5347">
      <stop
         style="stop-color:#8e3fd0;stop-opacity:1"
         offset="0"
         id="stop5349" />
      <stop
         style="stop-color:#cf7ae6;stop-opacity:1"
         offset="1"
         id="stop5351" />
    </linearGradient>
    <clipPath
       clipPathUnits="userSpaceOnUse"
       id="clipPath4050">
      <path
         inkscape:connector-curvature="0"
         d="m 205,114 22,0 0,14 -22,0 L 205,114 Z"
         id="path4052" />
    </clipPath>
    <clipPath
       clipPathUnits="userSpaceOnUse"
       id="clipPath4054">
      <path
         inkscape:connector-curvature="0"
         d="m 205,114 22,0 0,14 -22,0 L 205,114 Z"
         id="path4056" />
    </clipPath>
    <linearGradient
       gradientUnits="userSpaceOnUse"
       y2="1007.4111"
       x2="25.388002"
       y1="1049.5046"
       x1="25.388002"
       id="linearGradient7270"
       xlink:href="#linearGradient5347"
       inkscape:collect="always" />
  </defs>
  <sodipodi:namedview
     id="base"
     pagecolor="#ffffff"
     bordercolor="#666666"
     borderopacity="1.0"
     inkscape:pageopacity="0.0"
     inkscape:pageshadow="2"
     inkscape:zoom="5.6568543"
     inkscape:cx="-4.1276476"
     inkscape:cy="29.926262"
     inkscape:document-units="px"
     inkscape:current-layer="layer1"
     showgrid="false"
     width="0px"
     height="0px"
     fit-margin-top="0"
     fit-margin-left="0"
     fit-margin-right="0"
     fit-margin-bottom="0"
     inkscape:window-width="1366"
     inkscape:window-height="673"
     inkscape:window-x="0"
     inkscape:window-y="24"
     inkscape:window-maximized="1" />
  <metadata
     id="metadata4219">
    <rdf:RDF>
      <cc:Work
         rdf:about="">
        <dc:format>image/svg+xml</dc:format>
        <dc:type
           rdf:resource="http://purl.org/dc/dcmitype/StillImage" />
        <dc:title />
      </cc:Work>
    </rdf:RDF>
  </metadata>
  <g
     inkscape:label="Capa 1"
     inkscape:groupmode="layer"
     id="layer1"
     transform="translate(0,-1004.3622)">
    <flowRoot
       xml:space="preserve"
       id="flowRoot1042"
       style="font-size:40px;font-style:normal;font-variant:normal;font-weight:bold;font-stretch:normal;line-height:125%;letter-spacing:0px;word-spacing:0px;fill:#000000;fill-opacity:1;stroke:none;font-family:Impact;-inkscape-font-specification:Impact Bold"
       transform="translate(-73.72922,1001.5273)"><flowRegion
         id="flowRegion1044"><rect
           id="rect1046"
           width="70.178574"
           height="63.57143"
           x="-79.821426"
           y="2.1071429" /></flowRegion><flowPara
         id="flowPara1048">\documentclass[12pt]{article}</flowPara><flowPara
         id="flowPara1050" /></flowRoot>    <g
       transform="matrix(1.25,0,0,-1.25,-245.46223,1176.3957)"
       id="g4058">
      <g
         clip-path="url(#clipPath4050)"
         id="g4060"
         style="opacity:0.25">
        <g
           id="g4062" />
        <g
           id="g4064">
          <g
             clip-path="url(#clipPath4054)"
             id="g4066" />
        </g>
      </g>
    </g>
    <g
       id="layer1-1"
       inkscape:label="Capa 1">
      <path
         id="rect5263-9"
         d="m 8.07812,1006.163 c -3.47838,0 -6.27734,2.7989 -6.27734,6.2773 l 0,31.8438 c 0,3.4784 2.79896,6.2773 6.27734,6.2773 l 31.84375,0 c 3.47839,0 6.27735,-2.799 6.27735,-6.2773 l 0,-28.9219 -1.19922,0.01 0,-0.01 1.19922,0 L 37,1006.163 l -28.92188,0 z"
         style="fill:#000000;fill-opacity:0.01960784;stroke:none"
         inkscape:connector-curvature="0" />
      <path
         id="rect5261-1"
         d="m 8.29297,1006.4618 c -3.43138,0 -6.19336,2.764 -6.19336,6.1953 l 0,31.4121 c 0,3.4314 2.76198,6.1934 6.19336,6.1934 l 31.41406,0 c 3.43138,0 6.19336,-2.762 6.19336,-6.1934 l 0,-28.707 -0.90039,0.01 0,-0.01 0.90039,0 -8.90039,-8.9004 -28.70703,0 z"
         style="fill:#000000;fill-opacity:0.03921569;stroke:none"
         inkscape:connector-curvature="0" />
      <path
         id="rect5259-9"
         d="m 8.50977,1006.7626 c -3.38437,0 -6.10938,2.725 -6.10938,6.1094 l 0,30.9824 c 0,3.3844 2.72501,6.1074 6.10938,6.1074 l 30.98046,0 c 3.38437,0 6.10938,-2.723 6.10938,-6.1074 l 0,-28.4922 -0.59961,0.01 0,-0.01 0.59961,0 -8.59961,-8.5996 -28.49023,0 z"
         style="fill:#000000;fill-opacity:0.07843137;stroke:none"
         inkscape:connector-curvature="0" />
      <path
         id="rect5257-6"
         d="m 8.72461,1007.0614 c -3.33737,0 -6.02539,2.688 -6.02539,6.0254 l 0,30.5508 c 0,3.3374 2.68802,6.0254 6.02539,6.0254 l 30.55078,0 c 3.33737,0 6.02539,-2.688 6.02539,-6.0254 l 0,-28.2754 -0.30078,0.01 0,-0.01 0.30078,0 -8.30078,-8.3008 -28.27539,0 z"
         style="fill:#000000;fill-opacity:0.15686275;stroke:none"
         inkscape:connector-curvature="0" />
      <path
         id="rect5237-8"
         d="M 8.93945,1007.3622 C 5.64909,1007.3622 3,1010.0113 3,1013.3016 l 0,30.1212 c 0,3.2903 2.64909,5.9394 5.93945,5.9394 l 30.1211,0 c 3.29036,0 5.93945,-2.6491 5.93945,-5.9394 l 0,-28.0606 -8,0 0,-7.9023 0,-0.084 0,-0.014 -28.06055,0 z"
         style="fill:url(#linearGradient7270);fill-opacity:1;stroke:none"
         inkscape:connector-curvature="0" />
      <path
         id="rect5265-3"
         d="m 3,1040.9248 0,2.5 c 0,3.2904 2.64714,5.9375 5.9375,5.9375 l 30.125,0 c 3.29036,0 5.9375,-2.6471 5.9375,-5.9375 l 0,-2.5 c 0,3.2904 -2.64714,5.9375 -5.9375,5.9375 l -30.125,0 C 5.64714,1046.8623 3,1044.2152 3,1040.9248 Z"
         style="fill:#000000;fill-opacity:0.11764706;stroke:none"
         inkscape:connector-curvature="0" />
      <path
         id="path5252-7"
         d="m 3,1042.9248 0,0.5 c 0,3.2904 2.64714,5.9375 5.9375,5.9375 l 30.125,0 c 3.29036,0 5.9375,-2.6471 5.9375,-5.9375 l 0,-0.5 c 0,3.2904 -2.64714,5.9375 -5.9375,5.9375 l -30.125,0 C 5.64714,1048.8623 3,1046.2152 3,1042.9248 Z"
         style="fill:#000000;fill-opacity:0.09803922;stroke:none"
         inkscape:connector-curvature="0" />
      <path
         sodipodi:nodetypes="cccc"
         inkscape:connector-curvature="0"
         id="rect4179"
         d="m 45,1015.3622 -8,-8 0,8 z"
         style="opacity:0.74599998;fill:#fcfdfe;fill-opacity:1;stroke:none" />
      <g
         transform="translate(-521.71429,398.85713)"
         id="text6661-7"
         style="font-size:10px;font-style:normal;font-variant:normal;font-weight:normal;font-stretch:normal;line-height:125%;letter-spacing:0px;word-spacing:0px;fill:#000000;fill-opacity:1;stroke:none;font-family:Decker;-inkscape-font-specification:Decker" />
      <path
         inkscape:connector-curvature="0"
         id="path906-9"
         d=""
         style="fill:#000000" />
      <path
         inkscape:connector-curvature="0"
         id="rect4639"
         d="m 12.085602,1015.3622 0,23.4761 0,2.5239 6.079332,0 5.835073,-5.835 5.835071,5.835 0.02713,0 6.052198,0 0,-2.5239 0,-23.4761 -6.079336,0 0,17.3966 0,0.1086 -5.835072,-5.8351 -5.835072,5.8624 0,-0.1359 0,-17.3966 -6.079332,0 z"
         style="fill:#ffffff;fill-opacity:0.49803922;stroke:none" />
    </g>
  </g>
</svg>
