<?xml version="1.0" encoding="UTF-8" standalone="no"?>
<!-- Created with Inkscape (http://www.inkscape.org/) -->

<svg
   xmlns:dc="http://purl.org/dc/elements/1.1/"
   xmlns:cc="http://creativecommons.org/ns#"
   xmlns:rdf="http://www.w3.org/1999/02/22-rdf-syntax-ns#"
   xmlns:svg="http://www.w3.org/2000/svg"
   xmlns="http://www.w3.org/2000/svg"
   xmlns:xlink="http://www.w3.org/1999/xlink"
   xmlns:sodipodi="http://sodipodi.sourceforge.net/DTD/sodipodi-0.dtd"
   xmlns:inkscape="http://www.inkscape.org/namespaces/inkscape"
   width="48"
   height="48"
   id="svg4224"
   version="1.1"
   inkscape:version="0.48+devel r12859"
   sodipodi:docname="application-octet-stream.svg">
  <defs
     id="defs4226">
    <linearGradient
       inkscape:collect="always"
       id="linearGradient4753">
      <stop
         style="stop-color:#455865;stop-opacity:1"
         offset="0"
         id="stop4755" />
      <stop
         style="stop-color:#607b8e;stop-opacity:1"
         offset="1"
         id="stop4757" />
    </linearGradient>
    <linearGradient
       inkscape:collect="always"
       xlink:href="#linearGradient4753"
       id="linearGradient7270"
       x1="25.388002"
       y1="1049.5046"
       x2="25.388002"
       y2="1007.4111"
       gradientUnits="userSpaceOnUse" />
  </defs>
  <sodipodi:namedview
     id="base"
     pagecolor="#ffffff"
     bordercolor="#666666"
     borderopacity="1.0"
     inkscape:pageopacity="0.0"
     inkscape:pageshadow="2"
     inkscape:zoom="5.6"
     inkscape:cx="-7.1007671"
     inkscape:cy="31.297114"
     inkscape:document-units="px"
     inkscape:current-layer="layer1"
     showgrid="false"
     width="0px"
     height="0px"
     fit-margin-top="0"
     fit-margin-left="0"
     fit-margin-right="0"
     fit-margin-bottom="0"
     inkscape:window-width="1366"
     inkscape:window-height="673"
     inkscape:window-x="0"
     inkscape:window-y="24"
     inkscape:window-maximized="1" />
  <metadata
     id="metadata4229">
    <rdf:RDF>
      <cc:Work
         rdf:about="">
        <dc:format>image/svg+xml</dc:format>
        <dc:type
           rdf:resource="http://purl.org/dc/dcmitype/StillImage" />
        <dc:title />
      </cc:Work>
    </rdf:RDF>
  </metadata>
  <g
     inkscape:label="Capa 1"
     inkscape:groupmode="layer"
     id="layer1"
     transform="translate(0,-1004.3622)">
    <path
       inkscape:connector-curvature="0"
       style="fill:#000000;fill-opacity:0.01960784;stroke:none"
       d="m 8.078125,1006.163 c -3.4783802,0 -6.2773438,2.7989 -6.2773438,6.2773 l 0,31.8438 c 0,3.4784 2.7989636,6.2773 6.2773438,6.2773 l 31.84375,0 c 3.47838,0 6.277344,-2.7989 6.277344,-6.2773 l 0,-28.9219 -1.199219,0.01 0,-0.01 1.199219,0 L 37,1006.163 l -28.921875,0 z"
       id="rect5263" />
    <path
       inkscape:connector-curvature="0"
       style="fill:#000000;fill-opacity:0.03921569;stroke:none"
       d="m 8.2929688,1006.4618 c -3.4313755,0 -6.1933594,2.7639 -6.1933594,6.1953 l 0,31.4121 c 0,3.4314 2.7619839,6.1934 6.1933594,6.1934 l 31.4140622,0 c 3.431375,0 6.19336,-2.762 6.19336,-6.1934 l 0,-28.707 -0.900391,0.01 0,-0.01 0.900391,0 L 37,1006.4618 l -28.7070312,0 z"
       id="rect5261" />
    <path
       inkscape:connector-curvature="0"
       style="fill:#000000;fill-opacity:0.07843137;stroke:none"
       d="m 8.5097656,1006.7626 c -3.3843702,0 -6.109375,2.725 -6.109375,6.1094 l 0,30.9824 c 0,3.3844 2.7250048,6.1074 6.109375,6.1074 l 30.9804684,0 c 3.384371,0 6.109375,-2.723 6.109375,-6.1074 l 0,-28.4922 -0.599609,0.01 0,-0.01 0.599609,0 L 37,1006.7626 l -28.4902344,0 z"
       id="rect5259" />
    <path
       inkscape:connector-curvature="0"
       style="fill:#000000;fill-opacity:0.15686275;stroke:none"
       d="m 8.7246094,1007.0614 c -3.3373653,0 -6.0253906,2.688 -6.0253906,6.0254 l 0,30.5508 c 0,3.3374 2.6880253,6.0254 6.0253906,6.0254 l 30.5507816,0 c 3.337365,0 6.02539,-2.688 6.02539,-6.0254 l 0,-28.2754 -0.300781,0.01 0,-0.01 0.300781,0 L 37,1007.0614 l -28.2753906,0 z"
       id="rect5257" />
    <path
       inkscape:connector-curvature="0"
       style="fill:url(#linearGradient7270);fill-opacity:1;stroke:none"
       d="M 8.9394531,1007.3622 C 5.6490928,1007.3622 3,1010.0113 3,1013.3017 l 0,30.121 c 0,3.2904 2.6490928,5.9395 5.9394531,5.9395 l 30.1210939,0 c 3.29036,0 5.939453,-2.6491 5.939453,-5.9395 l 0,-28.0605 -8,0 0,-7.9023 0,-0.084 0,-0.014 -28.0605469,0 z"
       id="rect5237" />
    <path
       inkscape:connector-curvature="0"
       style="fill:#000000;fill-opacity:0.11764706;stroke:none"
       d="m 3,1040.9248 0,2.5 c 0,3.2904 2.64714,5.9375 5.9375,5.9375 l 30.125,0 c 3.29036,0 5.9375,-2.6471 5.9375,-5.9375 l 0,-2.5 c 0,3.2904 -2.64714,5.9375 -5.9375,5.9375 l -30.125,0 C 5.64714,1046.8623 3,1044.2152 3,1040.9248 Z"
       id="rect5265" />
    <path
       inkscape:connector-curvature="0"
       style="fill:#000000;fill-opacity:0.09803922;stroke:none"
       d="m 3,1042.9248 0,0.5 c 0,3.2904 2.64714,5.9375 5.9375,5.9375 l 30.125,0 c 3.29036,0 5.9375,-2.6471 5.9375,-5.9375 l 0,-0.5 c 0,3.2904 -2.64714,5.9375 -5.9375,5.9375 l -30.125,0 C 5.64714,1048.8623 3,1046.2152 3,1042.9248 Z"
       id="path5252" />
    <path
       style="fill:#000000"
       d=""
       id="path906-5"
       inkscape:connector-curvature="0" />
    <path
       style="opacity:0.74599998;fill:#fcfdfe;fill-opacity:1;stroke:none"
       d="m 45,1015.3622 -8,-8 0,8 z"
       id="rect4179"
       inkscape:connector-curvature="0"
       sodipodi:nodetypes="cccc" />
    <path
       inkscape:connector-curvature="0"
       id="path4209"
       style="font-size:13.23828888px;font-style:normal;font-variant:normal;font-weight:normal;font-stretch:normal;line-height:125%;letter-spacing:0px;word-spacing:0px;fill:#ffffff;fill-opacity:0.49803922;stroke:none;font-family:HelveNueThin;-inkscape-font-specification:HelveNueThin"
       d="m 17.560089,1020.0883 q 0,2.2505 -0.847251,3.4949 -0.84725,1.2312 -2.462321,1.2312 -1.615071,0 -2.462322,-1.2312 -0.84725,-1.2444 -0.84725,-3.4949 0,-2.2505 0.84725,-3.4817 0.847251,-1.2444 2.462322,-1.2444 1.615071,0 2.462321,1.2444 0.847251,1.2312 0.847251,3.4817 z m -0.503055,0 q 0,-2.0122 -0.728106,-3.1507 -0.714867,-1.1385 -2.078411,-1.1385 -1.363544,0 -2.09165,1.1385 -0.714867,1.1252 -0.714867,3.1507 0,2.0122 0.714867,3.1507 0.728106,1.1385 2.09165,1.1385 1.363544,0 2.078411,-1.1252 0.728106,-1.1385 0.728106,-3.164 z" />
    <path
       inkscape:connector-curvature="0"
       id="path4211"
       style="font-size:13.23828888px;font-style:normal;font-variant:normal;font-weight:normal;font-stretch:normal;line-height:125%;letter-spacing:0px;word-spacing:0px;fill:#ffffff;fill-opacity:0.49803922;stroke:none;font-family:HelveNueThin;-inkscape-font-specification:HelveNueThin"
       d="m 22.321116,1024.6555 -0.503055,0 0,-8.1548 q -0.436864,0.4634 -1.059064,0.7811 -0.622199,0.3045 -1.39002,0.3839 l 0,-0.4369 q 0.794297,-0.1191 1.416497,-0.5427 0.635438,-0.4237 1.08554,-1.165 l 0.450102,0 0,9.1344 z" />
    <path
       inkscape:connector-curvature="0"
       id="path4213"
       style="font-size:13.23828888px;font-style:normal;font-variant:normal;font-weight:normal;font-stretch:normal;line-height:125%;letter-spacing:0px;word-spacing:0px;fill:#ffffff;fill-opacity:0.49803922;stroke:none;font-family:HelveNueThin;-inkscape-font-specification:HelveNueThin"
       d="m 32.298028,1020.0883 q 0,2.2505 -0.847251,3.4949 -0.84725,1.2312 -2.462321,1.2312 -1.615072,0 -2.462322,-1.2312 -0.847251,-1.2444 -0.847251,-3.4949 0,-2.2505 0.847251,-3.4817 0.84725,-1.2444 2.462322,-1.2444 1.615071,0 2.462321,1.2444 0.847251,1.2312 0.847251,3.4817 z m -0.503055,0 q 0,-2.0122 -0.728106,-3.1507 -0.714868,-1.1385 -2.078411,-1.1385 -1.363544,0 -2.09165,1.1385 -0.714868,1.1252 -0.714868,3.1507 0,2.0122 0.714868,3.1507 0.728106,1.1385 2.09165,1.1385 1.363543,0 2.078411,-1.1252 0.728106,-1.1385 0.728106,-3.164 z" />
    <path
       inkscape:connector-curvature="0"
       id="path4215"
       style="font-size:13.23828888px;font-style:normal;font-variant:normal;font-weight:normal;font-stretch:normal;line-height:125%;letter-spacing:0px;word-spacing:0px;fill:#ffffff;fill-opacity:0.49803922;stroke:none;font-family:HelveNueThin;-inkscape-font-specification:HelveNueThin"
       d="m 37.059055,1024.6555 -0.503055,0 0,-8.1548 q -0.436864,0.4634 -1.059063,0.7811 -0.6222,0.3045 -1.390021,0.3839 l 0,-0.4369 q 0.794298,-0.1191 1.416497,-0.5427 0.635438,-0.4237 1.08554,-1.165 l 0.450102,0 0,9.1344 z" />
    <path
       inkscape:connector-curvature="0"
       id="path4217"
       style="font-size:13.23828888px;font-style:normal;font-variant:normal;font-weight:normal;font-stretch:normal;line-height:125%;letter-spacing:0px;word-spacing:0px;fill:#ffffff;fill-opacity:0.49803922;stroke:none;font-family:HelveNueThin;-inkscape-font-specification:HelveNueThin"
       d="m 17.560089,1036.6362 q 0,2.2505 -0.847251,3.4949 -0.84725,1.2311 -2.462321,1.2311 -1.615071,0 -2.462322,-1.2311 -0.84725,-1.2444 -0.84725,-3.4949 0,-2.2505 0.84725,-3.4817 0.847251,-1.2444 2.462322,-1.2444 1.615071,0 2.462321,1.2444 0.847251,1.2312 0.847251,3.4817 z m -0.503055,0 q 0,-2.0123 -0.728106,-3.1507 -0.714867,-1.1385 -2.078411,-1.1385 -1.363544,0 -2.09165,1.1385 -0.714867,1.1252 -0.714867,3.1507 0,2.0122 0.714867,3.1507 0.728106,1.1385 2.09165,1.1385 1.363544,0 2.078411,-1.1253 0.728106,-1.1385 0.728106,-3.1639 z" />
    <path
       inkscape:connector-curvature="0"
       id="path4219"
       style="font-size:13.23828888px;font-style:normal;font-variant:normal;font-weight:normal;font-stretch:normal;line-height:125%;letter-spacing:0px;word-spacing:0px;fill:#ffffff;fill-opacity:0.49803922;stroke:none;font-family:HelveNueThin;-inkscape-font-specification:HelveNueThin"
       d="m 22.321116,1041.2034 -0.503055,0 0,-8.1548 q -0.436864,0.4633 -1.059064,0.7811 -0.622199,0.3044 -1.39002,0.3839 l 0,-0.4369 q 0.794297,-0.1191 1.416497,-0.5428 0.635438,-0.4236 1.08554,-1.1649 l 0.450102,0 0,9.1344 z" />
    <path
       inkscape:connector-curvature="0"
       id="path4221"
       style="font-size:13.23828888px;font-style:normal;font-variant:normal;font-weight:normal;font-stretch:normal;line-height:125%;letter-spacing:0px;word-spacing:0px;fill:#ffffff;fill-opacity:0.49803922;stroke:none;font-family:HelveNueThin;-inkscape-font-specification:HelveNueThin"
       d="m 32.298028,1036.6362 q 0,2.2505 -0.847251,3.4949 -0.84725,1.2311 -2.462321,1.2311 -1.615072,0 -2.462322,-1.2311 -0.847251,-1.2444 -0.847251,-3.4949 0,-2.2505 0.847251,-3.4817 0.84725,-1.2444 2.462322,-1.2444 1.615071,0 2.462321,1.2444 0.847251,1.2312 0.847251,3.4817 z m -0.503055,0 q 0,-2.0123 -0.728106,-3.1507 -0.714868,-1.1385 -2.078411,-1.1385 -1.363544,0 -2.09165,1.1385 -0.714868,1.1252 -0.714868,3.1507 0,2.0122 0.714868,3.1507 0.728106,1.1385 2.09165,1.1385 1.363543,0 2.078411,-1.1253 0.728106,-1.1385 0.728106,-3.1639 z" />
    <path
       inkscape:connector-curvature="0"
       id="path4223"
       style="font-size:13.23828888px;font-style:normal;font-variant:normal;font-weight:normal;font-stretch:normal;line-height:125%;letter-spacing:0px;word-spacing:0px;fill:#ffffff;fill-opacity:0.49803922;stroke:none;font-family:HelveNueThin;-inkscape-font-specification:HelveNueThin"
       d="m 37.059055,1041.2034 -0.503055,0 0,-8.1548 q -0.436864,0.4633 -1.059063,0.7811 -0.6222,0.3044 -1.390021,0.3839 l 0,-0.4369 q 0.794298,-0.1191 1.416497,-0.5428 0.635438,-0.4236 1.08554,-1.1649 l 0.450102,0 0,9.1344 z" />
  </g>
</svg>
