<?xml version="1.0" encoding="UTF-8" standalone="no"?>
<!-- Created with Inkscape (http://www.inkscape.org/) -->

<svg
   xmlns:dc="http://purl.org/dc/elements/1.1/"
   xmlns:cc="http://creativecommons.org/ns#"
   xmlns:rdf="http://www.w3.org/1999/02/22-rdf-syntax-ns#"
   xmlns:svg="http://www.w3.org/2000/svg"
   xmlns="http://www.w3.org/2000/svg"
   xmlns:xlink="http://www.w3.org/1999/xlink"
   xmlns:sodipodi="http://sodipodi.sourceforge.net/DTD/sodipodi-0.dtd"
   xmlns:inkscape="http://www.inkscape.org/namespaces/inkscape"
   width="48"
   height="48"
   id="svg4214"
   version="1.1"
   inkscape:version="0.48+devel r12859"
   sodipodi:docname="application-x-flash-video.svg">
  <defs
     id="defs4216">
    <linearGradient
       inkscape:collect="always"
       id="linearGradient1506">
      <stop
         style="stop-color:#df020c;stop-opacity:1"
         offset="0"
         id="stop1508" />
      <stop
         style="stop-color:#fd2b34;stop-opacity:1"
         offset="1"
         id="stop1510" />
    </linearGradient>
    <linearGradient
       inkscape:collect="always"
       xlink:href="#linearGradient1506"
       id="linearGradient7270"
       x1="25.388002"
       y1="1049.5046"
       x2="25.388002"
       y2="1007.4111"
       gradientUnits="userSpaceOnUse"
       gradientTransform="translate(-9.9999999e-7,1.74e-5)" />
  </defs>
  <sodipodi:namedview
     id="base"
     pagecolor="#ffffff"
     bordercolor="#666666"
     borderopacity="1.0"
     inkscape:pageopacity="0.0"
     inkscape:pageshadow="2"
     inkscape:zoom="3.959798"
     inkscape:cx="0.73540388"
     inkscape:cy="64.302541"
     inkscape:document-units="px"
     inkscape:current-layer="layer1"
     showgrid="false"
     width="0px"
     height="0px"
     fit-margin-top="0"
     fit-margin-left="0"
     fit-margin-right="0"
     fit-margin-bottom="0"
     inkscape:window-width="1366"
     inkscape:window-height="673"
     inkscape:window-x="0"
     inkscape:window-y="24"
     inkscape:window-maximized="1" />
  <metadata
     id="metadata4219">
    <rdf:RDF>
      <cc:Work
         rdf:about="">
        <dc:format>image/svg+xml</dc:format>
        <dc:type
           rdf:resource="http://purl.org/dc/dcmitype/StillImage" />
        <dc:title />
      </cc:Work>
    </rdf:RDF>
  </metadata>
  <g
     inkscape:label="Capa 1"
     inkscape:groupmode="layer"
     id="layer1"
     transform="translate(0,-1004.3622)">
    <path
       inkscape:connector-curvature="0"
       style="fill:#000000;fill-opacity:0.01960784;stroke:none"
       d="m 8.078119,1006.163 c -3.47838,0 -6.27734,2.7989 -6.27734,6.2773 l 0,31.8438 c 0,3.4784 2.79896,6.2773 6.27734,6.2773 l 31.84375,0 c 3.478382,0 6.277352,-2.7989 6.277352,-6.2773 l 0,-28.9219 -1.19922,0.01 0,-0.01 1.19922,0 -9.199222,-9.1992 -28.92188,0 z"
       id="rect5263-4" />
    <path
       inkscape:connector-curvature="0"
       style="fill:#000000;fill-opacity:0.03921569;stroke:none"
       d="m 8.292969,1006.4618 c -3.43138,0 -6.19336,2.764 -6.19336,6.1953 l 0,31.4121 c 0,3.4314 2.76198,6.1934 6.19336,6.1934 l 31.41406,0 c 3.431382,0 6.193362,-2.762 6.193362,-6.1934 l 0,-28.707 -0.90039,0.01 0,-0.01 0.90039,0 -8.900392,-8.9004 -28.70703,0 z"
       id="rect5261-4" />
    <path
       inkscape:connector-curvature="0"
       style="fill:#000000;fill-opacity:0.07843137;stroke:none"
       d="m 8.509769,1006.7626 c -3.38437,0 -6.10938,2.725 -6.10938,6.1094 l 0,30.9824 c 0,3.3844 2.72501,6.1074 6.10938,6.1074 l 30.98046,0 c 3.384382,0 6.109382,-2.723 6.109382,-6.1074 l 0,-28.4922 -0.59961,0.01 0,-0.01 0.59961,0 -8.599612,-8.5996 -28.49023,0 z"
       id="rect5259-5" />
    <path
       inkscape:connector-curvature="0"
       style="fill:#000000;fill-opacity:0.15686275;stroke:none"
       d="m 8.724609,1007.0614 c -3.33737,0 -6.02539,2.688 -6.02539,6.0254 l 0,30.5508 c 0,3.3374 2.68802,6.0254 6.02539,6.0254 l 30.55078,0 c 3.337372,0 6.025392,-2.688 6.025392,-6.0254 l 0,-28.2754 -0.30078,0.01 0,-0.01 0.30078,0 -8.300782,-8.3008 -28.27539,0 z"
       id="rect5257-6" />
    <path
       inkscape:connector-curvature="0"
       style="fill:url(#linearGradient7270);fill-opacity:1;stroke:none"
       d="m 8.939449,1007.3622 c -3.29036,0 -5.93945,2.6491 -5.93945,5.9394 l 0,30.1212 c 0,3.2903 2.64909,5.9394 5.93945,5.9394 l 30.1211,0 c 3.290362,0 5.939452,-2.6491 5.939452,-5.9394 l 0,-28.0606 -8.000002,0 0,-7.9023 0,-0.084 0,-0.014 -28.06055,0 z"
       id="rect5237-7" />
    <path
       inkscape:connector-curvature="0"
       style="fill:#000000;fill-opacity:0.11764706;stroke:none"
       d="m 2.999999,1040.9248 0,2.5 c 0,3.2904 2.64714,5.9375 5.9375,5.9375 l 30.125,0 c 3.290362,0 5.937502,-2.6471 5.937502,-5.9375 l 0,-2.5 c 0,3.2904 -2.64714,5.9375 -5.937502,5.9375 l -30.125,0 c -3.29036,0 -5.9375,-2.6471 -5.9375,-5.9375 z"
       id="rect5265-6" />
    <path
       inkscape:connector-curvature="0"
       style="fill:#000000;fill-opacity:0.09803922;stroke:none"
       d="m 2.999999,1042.9248 0,0.5 c 0,3.2904 2.64714,5.9375 5.9375,5.9375 l 30.125,0 c 3.290362,0 5.937502,-2.6471 5.937502,-5.9375 l 0,-0.5 c 0,3.2904 -2.64714,5.9375 -5.937502,5.9375 l -30.125,0 c -3.29036,0 -5.9375,-2.6471 -5.9375,-5.9375 z"
       id="path5252-1" />
    <path
       style="fill:#000000"
       d=""
       id="path906"
       inkscape:connector-curvature="0" />
    <path
       style="opacity:0.74599998;fill:#fcfdfe;fill-opacity:1;stroke:none"
       d="m 45.000001,1015.3622 -8.000002,-8 0,8 z"
       id="rect4179"
       inkscape:connector-curvature="0"
       sodipodi:nodetypes="cccc" />
    <path
       style="fill:#ffffff;fill-opacity:0.49803922;stroke:none"
       id="path3727"
       inkscape:connector-curvature="0"
       d="m 34.399825,1015.3707 0,5.2307 c -5.22204,0.091 -6.505422,5.1844 -6.505422,5.1844 l 3.938657,0 0,5.2303 -6.107131,0 c -3.673128,11.3321 -12.125754,10.323 -12.125754,10.323 l 0,-5.2305 c 0,0 5.363712,0.9953 8.098588,-8.9924 3.421078,-12.4932 12.701062,-11.7455 12.701062,-11.7455 z" />
  </g>
</svg>
