<?xml version="1.0" encoding="UTF-8" standalone="no"?>
<!-- Created with Inkscape (http://www.inkscape.org/) -->

<svg
   xmlns:dc="http://purl.org/dc/elements/1.1/"
   xmlns:cc="http://creativecommons.org/ns#"
   xmlns:rdf="http://www.w3.org/1999/02/22-rdf-syntax-ns#"
   xmlns:svg="http://www.w3.org/2000/svg"
   xmlns="http://www.w3.org/2000/svg"
   xmlns:xlink="http://www.w3.org/1999/xlink"
   xmlns:sodipodi="http://sodipodi.sourceforge.net/DTD/sodipodi-0.dtd"
   xmlns:inkscape="http://www.inkscape.org/namespaces/inkscape"
   width="48"
   height="48"
   id="svg6654"
   version="1.1"
   inkscape:version="0.48+devel r12859"
   sodipodi:docname="application-ogg.svg">
  <defs
     id="defs6656">
    <linearGradient
       inkscape:collect="always"
       id="linearGradient4753">
      <stop
         style="stop-color:#54b948;stop-opacity:1"
         offset="0"
         id="stop4755" />
      <stop
         style="stop-color:#5dd64f;stop-opacity:1"
         offset="1"
         id="stop4757" />
    </linearGradient>
    <linearGradient
       gradientTransform="translate(167.42857,-193.1429)"
       inkscape:collect="always"
       xlink:href="#linearGradient4753"
       id="linearGradient7270"
       x1="25.388002"
       y1="1049.5046"
       x2="25.388002"
       y2="1007.4111"
       gradientUnits="userSpaceOnUse" />
  </defs>
  <sodipodi:namedview
     id="base"
     pagecolor="#ffffff"
     bordercolor="#666666"
     borderopacity="1.0"
     inkscape:pageopacity="0.0"
     inkscape:pageshadow="2"
     inkscape:zoom="2.8"
     inkscape:cx="52.157938"
     inkscape:cy="32.603955"
     inkscape:document-units="px"
     inkscape:current-layer="layer1"
     showgrid="false"
     fit-margin-top="0"
     fit-margin-left="0"
     fit-margin-right="0"
     fit-margin-bottom="0"
     inkscape:window-width="1366"
     inkscape:window-height="673"
     inkscape:window-x="0"
     inkscape:window-y="24"
     inkscape:window-maximized="1" />
  <metadata
     id="metadata6659">
    <rdf:RDF>
      <cc:Work
         rdf:about="">
        <dc:format>image/svg+xml</dc:format>
        <dc:type
           rdf:resource="http://purl.org/dc/dcmitype/StillImage" />
        <dc:title />
      </cc:Work>
    </rdf:RDF>
  </metadata>
  <g
     inkscape:label="Capa 1"
     inkscape:groupmode="layer"
     id="layer1"
     transform="translate(-167.42857,-811.2193)">
    <path
       inkscape:connector-curvature="0"
       style="fill:#000000;fill-opacity:0.01960784;stroke:none"
       d="m 175.50669,813.02008 c -3.47838,0 -6.27734,2.79896 -6.27734,6.27734 l 0,31.84375 c 0,3.47838 2.79896,6.27735 6.27734,6.27735 l 31.84375,0 c 3.47838,0 6.27735,-2.79897 6.27735,-6.27735 l 0,-28.92187 -1.19922,0.008 0,-0.008 1.19922,0 -9.19922,-9.19922 -28.92188,0 z"
       id="rect5263" />
    <path
       inkscape:connector-curvature="0"
       style="fill:#000000;fill-opacity:0.03921569;stroke:none"
       d="m 175.72154,813.31891 c -3.43138,0 -6.19336,2.76394 -6.19336,6.19531 l 0,31.41211 c 0,3.43138 2.76198,6.19336 6.19336,6.19336 l 31.41406,0 c 3.43138,0 6.19336,-2.76198 6.19336,-6.19336 l 0,-28.70703 -0.90039,0.008 0,-0.008 0.90039,0 -8.90039,-8.90039 -28.70703,0 z"
       id="rect5261" />
    <path
       inkscape:connector-curvature="0"
       style="fill:#000000;fill-opacity:0.07843137;stroke:none"
       d="m 175.93834,813.61969 c -3.38437,0 -6.10938,2.72501 -6.10938,6.10938 l 0,30.98242 c 0,3.38437 2.72501,6.10742 6.10938,6.10742 l 30.98046,0 c 3.38437,0 6.10938,-2.72305 6.10938,-6.10742 l 0,-28.49219 -0.59961,0.008 0,-0.008 0.59961,0 -8.59961,-8.59961 -28.49023,0 z"
       id="rect5259" />
    <path
       inkscape:connector-curvature="0"
       style="fill:#000000;fill-opacity:0.15686275;stroke:none"
       d="m 176.15318,813.91852 c -3.33737,0 -6.02539,2.68802 -6.02539,6.02539 l 0,30.55078 c 0,3.33737 2.68802,6.02539 6.02539,6.02539 l 30.55078,0 c 3.33737,0 6.02539,-2.68802 6.02539,-6.02539 l 0,-28.27539 -0.30078,0.008 0,-0.008 0.30078,0 -8.30078,-8.30078 -28.27539,0 z"
       id="rect5257" />
    <path
       inkscape:connector-curvature="0"
       style="fill:url(#linearGradient7270);fill-opacity:1;stroke:none"
       d="m 176.36802,814.2193 c -3.29036,0 -5.93945,2.64909 -5.93945,5.93945 l 0,30.1211 c 0,3.29036 2.64909,5.93945 5.93945,5.93945 l 30.1211,0 c 3.29036,0 5.93945,-2.64909 5.93945,-5.93945 l 0,-28.06055 -8,0 0,-7.90234 0,-0.084 0,-0.0137 -28.06055,0 z"
       id="rect5237" />
    <path
       inkscape:connector-curvature="0"
       style="fill:#000000;fill-opacity:0.11764706;stroke:none"
       d="m 170.42857,847.78185 0,2.5 c 0,3.2904 2.64714,5.9375 5.9375,5.9375 l 30.125,0 c 3.29036,0 5.9375,-2.6471 5.9375,-5.9375 l 0,-2.5 c 0,3.2904 -2.64714,5.9375 -5.9375,5.9375 l -30.125,0 c -3.29036,0 -5.9375,-2.6471 -5.9375,-5.9375 z"
       id="rect5265" />
    <path
       inkscape:connector-curvature="0"
       style="fill:#000000;fill-opacity:0.09803922;stroke:none"
       d="m 170.42857,849.78185 0,0.5 c 0,3.2904 2.64714,5.9375 5.9375,5.9375 l 30.125,0 c 3.29036,0 5.9375,-2.6471 5.9375,-5.9375 l 0,-0.5 c 0,3.2904 -2.64714,5.9375 -5.9375,5.9375 l -30.125,0 c -3.29036,0 -5.9375,-2.6471 -5.9375,-5.9375 z"
       id="path5252" />
    <path
       style="fill:#000000"
       d=""
       id="path906"
       inkscape:connector-curvature="0" />
    <path
       style="opacity:0.74599998;fill:#fcfdfe;fill-opacity:1;stroke:none"
       d="m 212.42857,822.2193 -8,-8 0,8 z"
       id="rect4179"
       inkscape:connector-curvature="0"
       sodipodi:nodetypes="cccc" />
    <path
       style="fill:#ffffff;fill-opacity:0.49803922;fill-rule:evenodd;stroke:none"
       d="M 23.998047 11 A 1.7345344 1.7332678 0 0 0 23.847656 11.007812 C 16.717293 11.089886 11 16.849981 11 24 L 11 24.001953 L 11 27.464844 L 11 36.998047 L 11 37 L 37 37 L 37 36.998047 L 37 27.464844 L 37 24.001953 L 37 24 A 1.7345344 1.7332678 0 0 0 36.992188 23.847656 C 36.910923 16.778243 31.245926 11.105717 24.179688 11.009766 C 24.125061 11.009024 24.072369 11.000073 24.017578 11 A 1.7345344 1.7332678 0 0 0 23.998047 11 z M 23.998047 14.466797 A 1.7345344 1.7332678 0 0 0 24 14.466797 C 29.274208 14.466797 33.519579 18.707511 33.53125 23.978516 A 1.7345344 1.7332678 0 0 0 33.53125 24 A 1.7345344 1.7332678 0 0 0 33.533203 24.060547 L 33.533203 27.464844 L 30.933594 27.464844 L 30.933594 36.998047 L 24 36.998047 L 17.066406 36.998047 L 17.066406 27.464844 L 14.466797 27.464844 L 14.466797 24 C 14.466797 18.719558 18.717492 14.467857 23.998047 14.466797 z "
       transform="translate(167.42857,811.2193)"
       id="rect3301" />
  </g>
</svg>
