<?xml version="1.0" encoding="UTF-8" standalone="no"?>
<!-- Created with Inkscape (http://www.inkscape.org/) -->

<svg
   xmlns:dc="http://purl.org/dc/elements/1.1/"
   xmlns:cc="http://creativecommons.org/ns#"
   xmlns:rdf="http://www.w3.org/1999/02/22-rdf-syntax-ns#"
   xmlns:svg="http://www.w3.org/2000/svg"
   xmlns="http://www.w3.org/2000/svg"
   xmlns:xlink="http://www.w3.org/1999/xlink"
   xmlns:sodipodi="http://sodipodi.sourceforge.net/DTD/sodipodi-0.dtd"
   xmlns:inkscape="http://www.inkscape.org/namespaces/inkscape"
   width="48"
   height="48"
   id="svg6536"
   version="1.1"
   inkscape:version="0.48+devel r12859"
   sodipodi:docname="application-x-executable.svg">
  <defs
     id="defs6538">
    <linearGradient
       gradientTransform="translate(521.71429,-398.85713)"
       inkscape:collect="always"
       xlink:href="#linearGradient4753-0"
       id="linearGradient7270"
       x1="25.388002"
       y1="1049.5046"
       x2="25.388002"
       y2="1007.4111"
       gradientUnits="userSpaceOnUse" />
    <linearGradient
       id="linearGradient4753-0"
       inkscape:collect="always">
      <stop
         id="stop4755-1"
         offset="0"
         style="stop-color:#455865;stop-opacity:1" />
      <stop
         id="stop4757-3"
         offset="1"
         style="stop-color:#607b8e;stop-opacity:1" />
    </linearGradient>
  </defs>
  <sodipodi:namedview
     id="base"
     pagecolor="#ffffff"
     bordercolor="#666666"
     borderopacity="1.0"
     inkscape:pageopacity="0.0"
     inkscape:pageshadow="2"
     inkscape:zoom="3.1267378"
     inkscape:cx="-20.754229"
     inkscape:cy="36.695767"
     inkscape:document-units="px"
     inkscape:current-layer="layer1"
     showgrid="false"
     fit-margin-top="0"
     fit-margin-left="0"
     fit-margin-right="0"
     fit-margin-bottom="0"
     inkscape:window-width="1366"
     inkscape:window-height="673"
     inkscape:window-x="0"
     inkscape:window-y="24"
     inkscape:window-maximized="1"
     showguides="false">
    <inkscape:grid
       type="xygrid"
       id="grid3918" />
  </sodipodi:namedview>
  <metadata
     id="metadata6541">
    <rdf:RDF>
      <cc:Work
         rdf:about="">
        <dc:format>image/svg+xml</dc:format>
        <dc:type
           rdf:resource="http://purl.org/dc/dcmitype/StillImage" />
        <dc:title />
      </cc:Work>
    </rdf:RDF>
  </metadata>
  <g
     inkscape:label="Capa 1"
     inkscape:groupmode="layer"
     id="layer1"
     transform="translate(-521.71429,-605.50507)">
    <g
       style="font-size:10px;font-style:normal;font-variant:normal;font-weight:normal;font-stretch:normal;line-height:125%;letter-spacing:0px;word-spacing:0px;fill:#000000;fill-opacity:1;stroke:none;font-family:Decker;-inkscape-font-specification:Decker"
       id="text6661" />
    <path
       inkscape:connector-curvature="0"
       style="fill:#000000;fill-opacity:0.01960784;stroke:none"
       d="m 529.79241,607.30585 c -3.47838,0 -6.27734,2.79896 -6.27734,6.27734 l 0,31.84375 c 0,3.47838 2.79896,6.27735 6.27734,6.27735 l 31.84375,0 c 3.47839,0 6.27735,-2.79897 6.27735,-6.27735 l 0,-28.92187 -1.19922,0.008 0,-0.008 1.19922,0 -9.19922,-9.19922 -28.92188,0 z"
       id="rect5263" />
    <path
       inkscape:connector-curvature="0"
       style="fill:#000000;fill-opacity:0.03921569;stroke:none"
       d="m 530.00726,607.60468 c -3.43138,0 -6.19336,2.76394 -6.19336,6.19531 l 0,31.41211 c 0,3.43138 2.76198,6.19336 6.19336,6.19336 l 31.41406,0 c 3.43138,0 6.19336,-2.76198 6.19336,-6.19336 l 0,-28.70703 -0.90039,0.008 0,-0.008 0.90039,0 -8.90039,-8.90039 -28.70703,0 z"
       id="rect5261" />
    <path
       inkscape:connector-curvature="0"
       style="fill:#000000;fill-opacity:0.07843137;stroke:none"
       d="m 530.22406,607.90546 c -3.38437,0 -6.10938,2.72501 -6.10938,6.10938 l 0,30.98242 c 0,3.38437 2.72501,6.10742 6.10938,6.10742 l 30.98046,0 c 3.38437,0 6.10938,-2.72305 6.10938,-6.10742 l 0,-28.49219 -0.59961,0.008 0,-0.008 0.59961,0 -8.59961,-8.59961 -28.49023,0 z"
       id="rect5259" />
    <path
       inkscape:connector-curvature="0"
       style="fill:#000000;fill-opacity:0.15686275;stroke:none"
       d="m 530.4389,608.20429 c -3.33737,0 -6.02539,2.68802 -6.02539,6.02539 l 0,30.55078 c 0,3.33737 2.68802,6.02539 6.02539,6.02539 l 30.55078,0 c 3.33737,0 6.02539,-2.68802 6.02539,-6.02539 l 0,-28.27539 -0.30078,0.008 0,-0.008 0.30078,0 -8.30078,-8.30078 -28.27539,0 z"
       id="rect5257" />
    <path
       inkscape:connector-curvature="0"
       style="fill:url(#linearGradient7270);fill-opacity:1;stroke:none"
       d="m 530.65374,608.50507 c -3.29036,0 -5.93945,2.64909 -5.93945,5.93945 l 0,30.1211 c 0,3.29036 2.64909,5.93945 5.93945,5.93945 l 30.1211,0 c 3.29036,0 5.93945,-2.64909 5.93945,-5.93945 l 0,-28.06055 -8,0 0,-7.90234 0,-0.084 0,-0.0137 -28.06055,0 z"
       id="rect5237" />
    <path
       inkscape:connector-curvature="0"
       style="fill:#000000;fill-opacity:0.11764706;stroke:none"
       d="m 524.71429,642.06762 0,2.5 c 0,3.2904 2.64714,5.9375 5.9375,5.9375 l 30.125,0 c 3.29036,0 5.9375,-2.6471 5.9375,-5.9375 l 0,-2.5 c 0,3.2904 -2.64714,5.9375 -5.9375,5.9375 l -30.125,0 c -3.29036,0 -5.9375,-2.6471 -5.9375,-5.9375 z"
       id="rect5265" />
    <path
       inkscape:connector-curvature="0"
       style="fill:#000000;fill-opacity:0.09803922;stroke:none"
       d="m 524.71429,644.06762 0,0.5 c 0,3.2904 2.64714,5.9375 5.9375,5.9375 l 30.125,0 c 3.29036,0 5.9375,-2.6471 5.9375,-5.9375 l 0,-0.5 c 0,3.2904 -2.64714,5.9375 -5.9375,5.9375 l -30.125,0 c -3.29036,0 -5.9375,-2.6471 -5.9375,-5.9375 z"
       id="path5252" />
    <path
       style="fill:#000000"
       d=""
       id="path906"
       inkscape:connector-curvature="0" />
    <path
       style="opacity:0.74599998;fill:#fcfdfe;fill-opacity:1;stroke:none"
       d="m 566.71429,616.50507 -8,-8 0,8 z"
       id="rect4179"
       inkscape:connector-curvature="0"
       sodipodi:nodetypes="cccc" />
    <path
       inkscape:connector-curvature="0"
       id="path164"
       style="fill:#ffffff;fill-opacity:0.49803922;fill-rule:nonzero;stroke:none"
       d="m 545.71433,635.15724 c -3.12171,0 -5.65255,-2.52912 -5.65255,-5.65217 0,-3.12306 2.53084,-5.65217 5.65255,-5.65217 3.12201,0 5.65284,2.52911 5.65284,5.65217 0,3.12305 -2.53083,5.65217 -5.65284,5.65217 z m 10.4983,-5.65217 c 0,-1.61902 0.99764,-2.90271 2.50006,-3.78408 -0.27054,-0.90051 -0.629,-1.77231 -1.07028,-2.58659 -1.68509,0.44067 -3.04871,-0.22031 -4.19495,-1.36036 -1.14625,-1.14958 -1.49726,-2.50992 -1.05639,-4.19602 -0.81582,-0.44069 -1.68213,-0.80471 -2.58734,-1.07295 -0.87973,1.50406 -2.46801,2.50037 -4.0894,2.50037 -1.62072,0 -3.20928,-0.99631 -4.08911,-2.50037 -0.90481,0.26825 -1.77113,0.63226 -2.58697,1.07295 0.44049,1.6861 0.0898,3.04644 -1.05639,4.19602 -1.14624,1.14005 -2.51059,1.80103 -4.19534,1.36036 -0.44126,0.81428 -0.79973,1.68608 -1.07065,2.58659 1.5029,0.88137 2.50057,2.16506 2.50057,3.78408 0,1.61902 -0.99767,3.20928 -2.50057,4.09064 0.27092,0.90051 0.62939,1.77229 1.07065,2.58661 1.68513,-0.4407 3.0491,-0.0863 4.19534,1.05378 1.14588,1.14958 1.49688,2.50994 1.05639,4.19601 0.81584,0.4407 1.68216,0.79513 2.58735,1.07296 0.87984,-1.50404 2.46801,-2.50037 4.08874,-2.50037 1.62139,0 3.20967,0.99633 4.0894,2.50037 0.90521,-0.27783 1.77153,-0.63226 2.58773,-1.07296 -0.44049,-1.68607 -0.0903,-3.04643 1.056,-4.19601 1.14624,-1.14 2.51024,-1.81062 4.19496,-1.36036 0.44127,-0.82387 0.79972,-1.68606 1.07028,-2.58657 -1.50242,-0.88137 -2.50007,-2.16508 -2.50007,-3.7841" />
  </g>
</svg>
