<?xml version="1.0" encoding="UTF-8" standalone="no"?>
<!-- Created with Inkscape (http://www.inkscape.org/) -->

<svg
   xmlns:dc="http://purl.org/dc/elements/1.1/"
   xmlns:cc="http://creativecommons.org/ns#"
   xmlns:rdf="http://www.w3.org/1999/02/22-rdf-syntax-ns#"
   xmlns:svg="http://www.w3.org/2000/svg"
   xmlns="http://www.w3.org/2000/svg"
   xmlns:xlink="http://www.w3.org/1999/xlink"
   xmlns:sodipodi="http://sodipodi.sourceforge.net/DTD/sodipodi-0.dtd"
   xmlns:inkscape="http://www.inkscape.org/namespaces/inkscape"
   width="48"
   height="48"
   id="svg6391"
   version="1.1"
   inkscape:version="0.48+devel r12859"
   sodipodi:docname="authors.svg">
  <defs
     id="defs6393">
    <linearGradient
       id="linearGradient943">
      <stop
         id="stop945"
         offset="0"
         style="stop-color:#f2f2f2;stop-opacity:1" />
      <stop
         id="stop947"
         offset="1"
         style="stop-color:#ffffff;stop-opacity:1" />
    </linearGradient>
    <linearGradient
       gradientUnits="userSpaceOnUse"
       y2="1007.4111"
       x2="25.388002"
       y1="1049.5046"
       x1="25.388002"
       id="linearGradient7270"
       xlink:href="#linearGradient4753-0"
       inkscape:collect="always"
       gradientTransform="translate(521.71429,-398.85713)" />
    <linearGradient
       inkscape:collect="always"
       id="linearGradient4753-0">
      <stop
         style="stop-color:#455865;stop-opacity:1"
         offset="0"
         id="stop4755-1" />
      <stop
         style="stop-color:#607b8e;stop-opacity:1"
         offset="1"
         id="stop4757-3" />
    </linearGradient>
    <linearGradient
       id="linearGradient3678-6">
      <stop
         style="stop-color:#ffffff;stop-opacity:1;"
         offset="0"
         id="stop3680-8" />
      <stop
         style="stop-color:#e6e6e6;stop-opacity:1;"
         offset="1"
         id="stop3682-9" />
    </linearGradient>
  </defs>
  <sodipodi:namedview
     id="base"
     pagecolor="#ffffff"
     bordercolor="#666666"
     borderopacity="1.0"
     inkscape:pageopacity="0.0"
     inkscape:pageshadow="2"
     inkscape:zoom="5.6"
     inkscape:cx="20.285849"
     inkscape:cy="41.273871"
     inkscape:document-units="px"
     inkscape:current-layer="layer1"
     showgrid="false"
     fit-margin-top="0"
     fit-margin-left="0"
     fit-margin-right="0"
     fit-margin-bottom="0"
     inkscape:window-width="1366"
     inkscape:window-height="673"
     inkscape:window-x="0"
     inkscape:window-y="24"
     inkscape:window-maximized="1" />
  <metadata
     id="metadata6396">
    <rdf:RDF>
      <cc:Work
         rdf:about="">
        <dc:format>image/svg+xml</dc:format>
        <dc:type
           rdf:resource="http://purl.org/dc/dcmitype/StillImage" />
        <dc:title />
      </cc:Work>
    </rdf:RDF>
  </metadata>
  <g
     inkscape:label="Capa 1"
     inkscape:groupmode="layer"
     id="layer1"
     transform="translate(-481.71429,-531.2193)">
    <g
       transform="translate(-40,-74.28577)"
       id="layer1-3"
       inkscape:label="Capa 1">
      <g
         id="text6661"
         style="font-size:10px;font-style:normal;font-variant:normal;font-weight:normal;font-stretch:normal;line-height:125%;letter-spacing:0px;word-spacing:0px;fill:#000000;fill-opacity:1;stroke:none;font-family:Decker;-inkscape-font-specification:Decker" />
      <path
         id="rect5263"
         d="m 529.79241,607.30585 c -3.47838,0 -6.27734,2.79896 -6.27734,6.27734 l 0,31.84375 c 0,3.47838 2.79896,6.27735 6.27734,6.27735 l 31.84375,0 c 3.47839,0 6.27735,-2.79897 6.27735,-6.27735 l 0,-28.92187 -1.19922,0.008 0,-0.008 1.19922,0 -9.19922,-9.19922 -28.92188,0 z"
         style="fill:#000000;fill-opacity:0.01960784;stroke:none"
         inkscape:connector-curvature="0" />
      <path
         id="rect5261"
         d="m 530.00726,607.60468 c -3.43138,0 -6.19336,2.76394 -6.19336,6.19531 l 0,31.41211 c 0,3.43138 2.76198,6.19336 6.19336,6.19336 l 31.41406,0 c 3.43138,0 6.19336,-2.76198 6.19336,-6.19336 l 0,-28.70703 -0.90039,0.008 0,-0.008 0.90039,0 -8.90039,-8.90039 -28.70703,0 z"
         style="fill:#000000;fill-opacity:0.03921569;stroke:none"
         inkscape:connector-curvature="0" />
      <path
         id="rect5259"
         d="m 530.22406,607.90546 c -3.38437,0 -6.10938,2.72501 -6.10938,6.10938 l 0,30.98242 c 0,3.38437 2.72501,6.10742 6.10938,6.10742 l 30.98046,0 c 3.38437,0 6.10938,-2.72305 6.10938,-6.10742 l 0,-28.49219 -0.59961,0.008 0,-0.008 0.59961,0 -8.59961,-8.59961 -28.49023,0 z"
         style="fill:#000000;fill-opacity:0.07843137;stroke:none"
         inkscape:connector-curvature="0" />
      <path
         id="rect5257"
         d="m 530.4389,608.20429 c -3.33737,0 -6.02539,2.68802 -6.02539,6.02539 l 0,30.55078 c 0,3.33737 2.68802,6.02539 6.02539,6.02539 l 30.55078,0 c 3.33737,0 6.02539,-2.68802 6.02539,-6.02539 l 0,-28.27539 -0.30078,0.008 0,-0.008 0.30078,0 -8.30078,-8.30078 -28.27539,0 z"
         style="fill:#000000;fill-opacity:0.15686275;stroke:none"
         inkscape:connector-curvature="0" />
      <path
         id="rect5237"
         d="m 530.65374,608.50507 c -3.29036,0 -5.93945,2.64909 -5.93945,5.93945 l 0,30.1211 c 0,3.29036 2.64909,5.93945 5.93945,5.93945 l 30.1211,0 c 3.29036,0 5.93945,-2.64909 5.93945,-5.93945 l 0,-28.06055 -8,0 0,-7.90234 0,-0.084 0,-0.0137 -28.06055,0 z"
         style="fill:url(#linearGradient7270);fill-opacity:1;stroke:none"
         inkscape:connector-curvature="0" />
      <path
         id="rect5265"
         d="m 524.71429,642.06762 0,2.5 c 0,3.2904 2.64714,5.9375 5.9375,5.9375 l 30.125,0 c 3.29036,0 5.9375,-2.6471 5.9375,-5.9375 l 0,-2.5 c 0,3.2904 -2.64714,5.9375 -5.9375,5.9375 l -30.125,0 c -3.29036,0 -5.9375,-2.6471 -5.9375,-5.9375 z"
         style="fill:#000000;fill-opacity:0.11764706;stroke:none"
         inkscape:connector-curvature="0" />
      <path
         id="path5252"
         d="m 524.71429,644.06762 0,0.5 c 0,3.2904 2.64714,5.9375 5.9375,5.9375 l 30.125,0 c 3.29036,0 5.9375,-2.6471 5.9375,-5.9375 l 0,-0.5 c 0,3.2904 -2.64714,5.9375 -5.9375,5.9375 l -30.125,0 c -3.29036,0 -5.9375,-2.6471 -5.9375,-5.9375 z"
         style="fill:#000000;fill-opacity:0.09803922;stroke:none"
         inkscape:connector-curvature="0" />
      <path
         inkscape:connector-curvature="0"
         id="path906"
         d=""
         style="fill:#000000" />
      <path
         sodipodi:nodetypes="cccc"
         inkscape:connector-curvature="0"
         id="rect4179"
         d="m 566.71429,616.50507 -8,-8 0,8 z"
         style="opacity:0.74599998;fill:#fcfdfe;fill-opacity:1;stroke:none" />
    </g>
    <path
       style="fill:#ffffff;fill-opacity:0.49411765;fill-rule:evenodd;stroke:none"
       d="m 505.71091,542.2193 c -3.63054,2.2e-4 -6.92995,3.30334 -6.92995,6.93334 0,1.60656 0.64726,3.14836 1.68255,4.36888 l 0,0.92252 c -1.46303,0.6459 -2.81508,1.54479 -3.9457,2.67617 -2.40495,2.40659 -3.80352,5.78999 -3.80352,9.1931 l 0,1.90599 0.16081,0 2.32917,0 1.17643,0 5.00026,0 1.73333,0 5.2,0 1.73333,0 5.00027,0 1.17643,0 2.32916,0 0.16081,0 0,-1.90599 c 0,-3.40349 -1.40227,-6.7865 -3.81028,-9.1931 -1.12988,-1.1292 -2.47978,-2.02724 -3.94063,-2.67278 l 0,-0.92761 c 1.03575,-1.22024 1.68424,-2.76124 1.68424,-4.36718 0,-3.6304 -3.30617,-6.93355 -6.93671,-6.93334 z m 0.002,3.46667 c 1.81527,-1.1e-4 3.46836,1.65147 3.46836,3.46667 0,1.19671 -0.72355,2.31216 -1.73333,2.94023 0,3.47852 -0.34682,3.47905 2.69987,5.79414 0.84742,0.44201 1.6289,1.00808 2.30546,1.68425 1.39558,1.39475 2.32163,3.23809 2.65248,5.18138 l -5.05781,0 0,-2.6 -1.73334,0 0,2.6 -5.2,0 0,-2.6 -1.73333,0 0,2.6 -5.05781,0 c 0.33003,-1.94323 1.25359,-3.78663 2.64739,-5.18138 0.67692,-0.67738 1.45892,-1.24533 2.30716,-1.68763 3.08702,-2.31284 2.70326,-2.31224 2.70326,-5.79076 -1.00947,-0.62797 -1.73333,-1.74316 -1.73333,-2.94023 0,-1.815 1.6497,-3.46656 3.46497,-3.46667 z"
       id="path3286"
       inkscape:connector-curvature="0" />
  </g>
</svg>
