<?xml version="1.0" encoding="UTF-8" standalone="no"?>
<!-- Created with Inkscape (http://www.inkscape.org/) -->

<svg
   xmlns:dc="http://purl.org/dc/elements/1.1/"
   xmlns:cc="http://creativecommons.org/ns#"
   xmlns:rdf="http://www.w3.org/1999/02/22-rdf-syntax-ns#"
   xmlns:svg="http://www.w3.org/2000/svg"
   xmlns="http://www.w3.org/2000/svg"
   xmlns:xlink="http://www.w3.org/1999/xlink"
   xmlns:sodipodi="http://sodipodi.sourceforge.net/DTD/sodipodi-0.dtd"
   xmlns:inkscape="http://www.inkscape.org/namespaces/inkscape"
   width="48"
   height="48"
   id="svg6391"
   version="1.1"
   inkscape:version="0.48+devel r12859"
   sodipodi:docname="image-x-compressed-xcf.svg">
  <defs
     id="defs6393">
    <linearGradient
       id="linearGradient6125"
       inkscape:collect="always">
      <stop
         id="stop6127"
         offset="0"
         style="stop-color:#f81654;stop-opacity:1" />
      <stop
         id="stop6129"
         offset="1"
         style="stop-color:#fd668f;stop-opacity:1" />
    </linearGradient>
    <linearGradient
       gradientUnits="userSpaceOnUse"
       y2="1007.4111"
       x2="25.388002"
       y1="1049.5046"
       x1="25.388002"
       id="linearGradient7270"
       xlink:href="#linearGradient6125"
       inkscape:collect="always"
       gradientTransform="translate(481.71429,-473.1429)" />
  </defs>
  <sodipodi:namedview
     id="base"
     pagecolor="#ffffff"
     bordercolor="#666666"
     borderopacity="1.0"
     inkscape:pageopacity="0.0"
     inkscape:pageshadow="2"
     inkscape:zoom="3.8824582"
     inkscape:cx="-2.1608652"
     inkscape:cy="17.360944"
     inkscape:document-units="px"
     inkscape:current-layer="layer1"
     showgrid="false"
     fit-margin-top="0"
     fit-margin-left="0"
     fit-margin-right="0"
     fit-margin-bottom="0"
     inkscape:window-width="1366"
     inkscape:window-height="673"
     inkscape:window-x="0"
     inkscape:window-y="24"
     inkscape:window-maximized="1" />
  <metadata
     id="metadata6396">
    <rdf:RDF>
      <cc:Work
         rdf:about="">
        <dc:format>image/svg+xml</dc:format>
        <dc:type
           rdf:resource="http://purl.org/dc/dcmitype/StillImage" />
        <dc:title />
      </cc:Work>
    </rdf:RDF>
  </metadata>
  <g
     inkscape:label="Capa 1"
     inkscape:groupmode="layer"
     id="layer1"
     transform="translate(-481.71429,-531.2193)">
    <path
       inkscape:connector-curvature="0"
       style="fill:#000000;fill-opacity:0.01960784;stroke:none"
       d="m 489.79241,533.0201 c -3.47838,0 -6.27734,2.7989 -6.27734,6.2773 l 0,31.8438 c 0,3.4784 2.79896,6.2773 6.27734,6.2773 l 31.84375,0 c 3.47839,0 6.27735,-2.7989 6.27735,-6.2773 l 0,-28.9219 -1.19922,0.01 0,-0.01 1.19922,0 -9.19922,-9.1992 -28.92188,0 z"
       id="rect5263-3" />
    <path
       inkscape:connector-curvature="0"
       style="fill:#000000;fill-opacity:0.03921569;stroke:none"
       d="m 490.00726,533.3189 c -3.43138,0 -6.19336,2.7639 -6.19336,6.1953 l 0,31.4121 c 0,3.4314 2.76198,6.1934 6.19336,6.1934 l 31.41406,0 c 3.43138,0 6.19336,-2.762 6.19336,-6.1934 l 0,-28.707 -0.90039,0.01 0,-0.01 0.90039,0 -8.90039,-8.9004 -28.70703,0 z"
       id="rect5261-6" />
    <path
       inkscape:connector-curvature="0"
       style="fill:#000000;fill-opacity:0.07843137;stroke:none"
       d="m 490.22406,533.6197 c -3.38438,0 -6.10938,2.725 -6.10938,6.1094 l 0,30.9824 c 0,3.3844 2.725,6.1074 6.10938,6.1074 l 30.98046,0 c 3.38437,0 6.10938,-2.723 6.10938,-6.1074 l 0,-28.4922 -0.59961,0.01 0,-0.01 0.59961,0 -8.59961,-8.5996 -28.49023,0 z"
       id="rect5259-6" />
    <path
       inkscape:connector-curvature="0"
       style="fill:#000000;fill-opacity:0.15686275;stroke:none"
       d="m 490.4389,533.9185 c -3.33737,0 -6.02539,2.688 -6.02539,6.0254 l 0,30.5508 c 0,3.3374 2.68802,6.0254 6.02539,6.0254 l 30.55078,0 c 3.33737,0 6.02539,-2.688 6.02539,-6.0254 l 0,-28.2754 -0.30078,0.01 0,-0.01 0.30078,0 -8.30078,-8.3008 -28.27539,0 z"
       id="rect5257-4" />
    <path
       inkscape:connector-curvature="0"
       style="fill:url(#linearGradient7270);fill-opacity:1;stroke:none"
       d="m 490.65374,534.2193 c -3.29036,0 -5.93945,2.6491 -5.93945,5.9395 l 0,30.121 c 0,3.2904 2.64909,5.9395 5.93945,5.9395 l 30.1211,0 c 3.29036,0 5.93945,-2.6491 5.93945,-5.9395 l 0,-28.0605 -8,0 0,-7.9023 0,-0.084 0,-0.014 -28.06055,0 z"
       id="rect5237-1" />
    <path
       inkscape:connector-curvature="0"
       style="fill:#000000;fill-opacity:0.11764706;stroke:none"
       d="m 484.71429,567.7819 0,2.5 c 0,3.2904 2.64714,5.9375 5.9375,5.9375 l 30.125,0 c 3.29036,0 5.9375,-2.6471 5.9375,-5.9375 l 0,-2.5 c 0,3.2904 -2.64714,5.9375 -5.9375,5.9375 l -30.125,0 c -3.29036,0 -5.9375,-2.6471 -5.9375,-5.9375 z"
       id="rect5265-0" />
    <path
       inkscape:connector-curvature="0"
       style="fill:#000000;fill-opacity:0.09803922;stroke:none"
       d="m 484.71429,569.7819 0,0.5 c 0,3.2904 2.64714,5.9375 5.9375,5.9375 l 30.125,0 c 3.29036,0 5.9375,-2.6471 5.9375,-5.9375 l 0,-0.5 c 0,3.2904 -2.64714,5.9375 -5.9375,5.9375 l -30.125,0 c -3.29036,0 -5.9375,-2.6471 -5.9375,-5.9375 z"
       id="path5252-9" />
    <path
       style="fill:#000000"
       d=""
       id="path906"
       inkscape:connector-curvature="0" />
    <path
       style="opacity:0.74599998;fill:#fcfdfe;fill-opacity:1;stroke:none"
       d="m 526.71429,542.2193 -8,-8 0,8 z"
       id="rect4179"
       inkscape:connector-curvature="0"
       sodipodi:nodetypes="cccc" />
    <path
       inkscape:connector-curvature="0"
       id="path356"
       style="fill:#ffffff;fill-opacity:0.49803922;fill-rule:nonzero;stroke:none"
       d="m 518.90657,542.36213 c -1.07606,-1.05296 -12.96785,8.47516 -16.51113,11.95939 -1.75584,1.72929 -2.34222,2.65382 -2.88156,3.34724 -0.23542,0.29964 0.0744,0.3938 0.21317,0.46232 0.69684,0.35952 1.18396,0.68485 1.81403,1.30979 0.62836,0.61637 0.96566,1.09575 1.32519,1.78063 0.072,0.12842 0.16525,0.43659 0.47256,0.20547 0.70542,-0.53077 1.64537,-1.10435 3.40463,-2.83363 3.53988,-3.47568 13.2358,-15.16967 12.16311,-16.23121 z m -23.20049,17.84922 c -2.09142,2.05456 -0.32447,4.16906 -3.10587,7.30231 -1.25585,1.4125 5.16902,0.97593 8.35188,-2.14877 1.35004,-1.32691 0.96823,-3.26162 -0.47855,-4.68274 -1.44932,-1.42962 -3.41571,-1.79775 -4.76746,-0.4708" />
  </g>
</svg>
