<?xml version="1.0" encoding="UTF-8" standalone="no"?>
<!-- Created with Inkscape (http://www.inkscape.org/) -->

<svg
   xmlns:dc="http://purl.org/dc/elements/1.1/"
   xmlns:cc="http://creativecommons.org/ns#"
   xmlns:rdf="http://www.w3.org/1999/02/22-rdf-syntax-ns#"
   xmlns:svg="http://www.w3.org/2000/svg"
   xmlns="http://www.w3.org/2000/svg"
   xmlns:xlink="http://www.w3.org/1999/xlink"
   xmlns:sodipodi="http://sodipodi.sourceforge.net/DTD/sodipodi-0.dtd"
   xmlns:inkscape="http://www.inkscape.org/namespaces/inkscape"
   width="48"
   height="48"
   id="svg6391"
   version="1.1"
   inkscape:version="0.48+devel r12859"
   sodipodi:docname="application-x-wine-extension-pdd.svg">
  <defs
     id="defs6393">
    <linearGradient
       inkscape:collect="always"
       id="linearGradient4200">
      <stop
         style="stop-color:#0054bb;stop-opacity:1"
         offset="0"
         id="stop4202" />
      <stop
         style="stop-color:#00a0db;stop-opacity:1"
         offset="1"
         id="stop4204" />
    </linearGradient>
    <linearGradient
       gradientTransform="translate(481.71429,-473.1429)"
       gradientUnits="userSpaceOnUse"
       y2="1007.4111"
       x2="25.388002"
       y1="1049.5046"
       x1="25.388002"
       id="linearGradient7270"
       xlink:href="#linearGradient4200"
       inkscape:collect="always" />
  </defs>
  <sodipodi:namedview
     id="base"
     pagecolor="#ffffff"
     bordercolor="#666666"
     borderopacity="1.0"
     inkscape:pageopacity="0.0"
     inkscape:pageshadow="2"
     inkscape:zoom="4"
     inkscape:cx="19.654866"
     inkscape:cy="20.405727"
     inkscape:document-units="px"
     inkscape:current-layer="layer1"
     showgrid="false"
     fit-margin-top="0"
     fit-margin-left="0"
     fit-margin-right="0"
     fit-margin-bottom="0"
     inkscape:window-width="1366"
     inkscape:window-height="673"
     inkscape:window-x="0"
     inkscape:window-y="24"
     inkscape:window-maximized="1" />
  <metadata
     id="metadata6396">
    <rdf:RDF>
      <cc:Work
         rdf:about="">
        <dc:format>image/svg+xml</dc:format>
        <dc:type
           rdf:resource="http://purl.org/dc/dcmitype/StillImage" />
        <dc:title />
      </cc:Work>
    </rdf:RDF>
  </metadata>
  <g
     inkscape:label="Capa 1"
     inkscape:groupmode="layer"
     id="layer1"
     transform="translate(-481.71429,-531.2193)">
    <path
       inkscape:connector-curvature="0"
       style="fill:#000000;fill-opacity:0.01960784;stroke:none"
       d="m 489.79241,533.0201 c -3.47838,0 -6.27734,2.7989 -6.27734,6.2773 l 0,31.8438 c 0,3.4784 2.79896,6.2773 6.27734,6.2773 l 31.84375,0 c 3.47839,0 6.27735,-2.799 6.27735,-6.2773 l 0,-28.9219 -1.19922,0.01 0,-0.01 1.19922,0 -9.19922,-9.1992 -28.92188,0 z"
       id="rect5263-9" />
    <path
       inkscape:connector-curvature="0"
       style="fill:#000000;fill-opacity:0.03921569;stroke:none"
       d="m 490.00726,533.3189 c -3.43138,0 -6.19336,2.764 -6.19336,6.1953 l 0,31.4121 c 0,3.4314 2.76198,6.1934 6.19336,6.1934 l 31.41406,0 c 3.43138,0 6.19336,-2.762 6.19336,-6.1934 l 0,-28.707 -0.90039,0.01 0,-0.01 0.90039,0 -8.90039,-8.9004 -28.70703,0 z"
       id="rect5261-1" />
    <path
       inkscape:connector-curvature="0"
       style="fill:#000000;fill-opacity:0.07843137;stroke:none"
       d="m 490.22406,533.6197 c -3.38437,0 -6.10938,2.725 -6.10938,6.1094 l 0,30.9824 c 0,3.3844 2.72501,6.1074 6.10938,6.1074 l 30.98046,0 c 3.38437,0 6.10938,-2.723 6.10938,-6.1074 l 0,-28.4922 -0.59961,0.01 0,-0.01 0.59961,0 -8.59961,-8.5996 -28.49023,0 z"
       id="rect5259-9" />
    <path
       inkscape:connector-curvature="0"
       style="fill:#000000;fill-opacity:0.15686275;stroke:none"
       d="m 490.4389,533.9185 c -3.33737,0 -6.02539,2.688 -6.02539,6.0254 l 0,30.5508 c 0,3.3374 2.68802,6.0254 6.02539,6.0254 l 30.55078,0 c 3.33737,0 6.02539,-2.688 6.02539,-6.0254 l 0,-28.2754 -0.30078,0.01 0,-0.01 0.30078,0 -8.30078,-8.3008 -28.27539,0 z"
       id="rect5257-6" />
    <path
       inkscape:connector-curvature="0"
       style="fill:url(#linearGradient7270);fill-opacity:1;stroke:none"
       d="m 490.65374,534.2193 c -3.29036,0 -5.93945,2.6491 -5.93945,5.9394 l 0,30.1212 c 0,3.2903 2.64909,5.9394 5.93945,5.9394 l 30.1211,0 c 3.29036,0 5.93945,-2.6491 5.93945,-5.9394 l 0,-28.0606 -8,0 0,-7.9023 0,-0.084 0,-0.014 -28.06055,0 z"
       id="rect5237-8" />
    <path
       inkscape:connector-curvature="0"
       style="fill:#000000;fill-opacity:0.11764706;stroke:none"
       d="m 484.71429,567.7819 0,2.5 c 0,3.2904 2.64714,5.9375 5.9375,5.9375 l 30.125,0 c 3.29036,0 5.9375,-2.6471 5.9375,-5.9375 l 0,-2.5 c 0,3.2904 -2.64714,5.9375 -5.9375,5.9375 l -30.125,0 c -3.29036,0 -5.9375,-2.6471 -5.9375,-5.9375 z"
       id="rect5265-3" />
    <path
       inkscape:connector-curvature="0"
       style="fill:#000000;fill-opacity:0.09803922;stroke:none"
       d="m 484.71429,569.7819 0,0.5 c 0,3.2904 2.64714,5.9375 5.9375,5.9375 l 30.125,0 c 3.29036,0 5.9375,-2.6471 5.9375,-5.9375 l 0,-0.5 c 0,3.2904 -2.64714,5.9375 -5.9375,5.9375 l -30.125,0 c -3.29036,0 -5.9375,-2.6471 -5.9375,-5.9375 z"
       id="path5252-7" />
    <path
       style="opacity:0.74599998;fill:#fcfdfe;fill-opacity:1;stroke:none"
       d="m 526.71429,542.2193 -8,-8 0,8 z"
       id="rect4179"
       inkscape:connector-curvature="0"
       sodipodi:nodetypes="cccc" />
    <path
       style="fill:#ffffff;fill-opacity:0.49803922"
       d="m 508.31476,559.8423 c 2.36517,0 3.95716,-0.0152 4.20485,-0.0402 1.95146,-0.19679 3.74216,-1.03634 5.16559,-2.42184 1.43531,-1.39704 2.27738,-3.06241 2.58909,-5.12047 0.0935,-0.61682 0.0944,-1.7863 0.002,-2.4037 -0.20072,-1.34015 -0.65851,-2.51831 -1.42905,-3.67772 -1.47661,-2.22182 -3.84377,-3.66755 -6.42926,-3.92671 -0.29662,-0.0297 -2.38832,-0.0382 -6.98593,-0.0285 l -6.56252,0.014 -0.44265,0.0851 c -1.84899,0.3557 -3.38222,1.16411 -4.692,2.4739 -2.23311,2.2331 -3.12758,5.33543 -2.40704,8.34856 0.28827,1.20559 0.87487,2.41363 1.65402,3.40636 0.13294,0.16935 1.88443,1.956 3.89222,3.97033 2.00778,2.01432 4.54252,4.57039 5.63274,5.68013 l 1.98224,2.01772 0.01,-4.18865 0.01,-4.18868 z m 2.37522,-3.88988 c -3.12738,-0.36287 -5.1446,-3.47497 -4.15988,-6.41775 0.82606,-2.46866 3.41241,-3.8762 5.92009,-3.2218 2.42009,0.63155 3.98564,3.0444 3.58388,5.52353 -0.17257,1.06482 -0.69228,2.03396 -1.50429,2.80514 -0.79376,0.75383 -1.76569,1.19888 -2.86446,1.31165 -0.43388,0.0445 -0.58608,0.0444 -0.97534,-7.7e-4 z"
       id="path963"
       inkscape:connector-curvature="0"
       sodipodi:nodetypes="sssssssscsssssscccssssssss" />
    <g
       style="font-size:10px;font-style:normal;font-variant:normal;font-weight:normal;font-stretch:normal;line-height:125%;letter-spacing:0px;word-spacing:0px;fill:#000000;fill-opacity:1;stroke:none;font-family:Decker;-inkscape-font-specification:Decker"
       id="text6661-7"
       transform="translate(-92,-75.03577)" />
    <path
       style="fill:#000000"
       d=""
       id="path906-9"
       inkscape:connector-curvature="0" />
  </g>
</svg>
