<?xml version="1.0" encoding="UTF-8" standalone="no"?>
<!-- Created with Inkscape (http://www.inkscape.org/) -->

<svg
   xmlns:dc="http://purl.org/dc/elements/1.1/"
   xmlns:cc="http://creativecommons.org/ns#"
   xmlns:rdf="http://www.w3.org/1999/02/22-rdf-syntax-ns#"
   xmlns:svg="http://www.w3.org/2000/svg"
   xmlns="http://www.w3.org/2000/svg"
   xmlns:xlink="http://www.w3.org/1999/xlink"
   xmlns:sodipodi="http://sodipodi.sourceforge.net/DTD/sodipodi-0.dtd"
   xmlns:inkscape="http://www.inkscape.org/namespaces/inkscape"
   width="48"
   height="48"
   id="svg6388"
   version="1.1"
   inkscape:version="0.48+devel r12859"
   sodipodi:docname="gnome-mime-text-x-copying.svg">
  <defs
     id="defs6390">
    <style
       id="style1115"
       type="text/css"><![CDATA[ .fil0 {fill:#1F1A17} ]]></style>
    <style
       id="style1246"
       type="text/css"><![CDATA[ .fil0 {fill:#1F1A17} ]]></style>
    <style
       type="text/css"
       id="style1115-1"><![CDATA[ .fil0 {fill:#1F1A17} ]]></style>
    <style
       type="text/css"
       id="style1246-4"><![CDATA[ .fil0 {fill:#1F1A17} ]]></style>
    <style
       id="style1115-2"
       type="text/css"><![CDATA[ .fil0 {fill:#1F1A17} ]]></style>
    <style
       id="style1246-7"
       type="text/css"><![CDATA[ .fil0 {fill:#1F1A17} ]]></style>
    <linearGradient
       gradientTransform="translate(424.57144,-176.00002)"
       inkscape:collect="always"
       xlink:href="#linearGradient4753-0"
       id="linearGradient7270"
       x1="25.388002"
       y1="1049.5046"
       x2="25.388002"
       y2="1007.4111"
       gradientUnits="userSpaceOnUse" />
    <style
       type="text/css"
       id="style1115-0"><![CDATA[ .fil0 {fill:#1F1A17} ]]></style>
    <style
       type="text/css"
       id="style1246-8"><![CDATA[ .fil0 {fill:#1F1A17} ]]></style>
    <style
       id="style874"
       type="text/css"><![CDATA[
    .fil0 {fill:#1F1A17}
   ]]></style>
    <linearGradient
       inkscape:collect="always"
       id="linearGradient4753-0">
      <stop
         style="stop-color:#455865;stop-opacity:1"
         offset="0"
         id="stop4755-1" />
      <stop
         style="stop-color:#607b8e;stop-opacity:1"
         offset="1"
         id="stop4757-3" />
    </linearGradient>
  </defs>
  <sodipodi:namedview
     id="base"
     pagecolor="#ffffff"
     bordercolor="#666666"
     borderopacity="1.0"
     inkscape:pageopacity="0.0"
     inkscape:pageshadow="2"
     inkscape:zoom="5.490625"
     inkscape:cx="20.566443"
     inkscape:cy="24.004213"
     inkscape:document-units="px"
     inkscape:current-layer="layer1"
     showgrid="false"
     fit-margin-top="0"
     fit-margin-left="0"
     fit-margin-right="0"
     fit-margin-bottom="0"
     inkscape:window-width="1366"
     inkscape:window-height="673"
     inkscape:window-x="0"
     inkscape:window-y="24"
     inkscape:window-maximized="1" />
  <metadata
     id="metadata6393">
    <rdf:RDF>
      <cc:Work
         rdf:about="">
        <dc:format>image/svg+xml</dc:format>
        <dc:type
           rdf:resource="http://purl.org/dc/dcmitype/StillImage" />
        <dc:title />
      </cc:Work>
    </rdf:RDF>
  </metadata>
  <g
     inkscape:label="Capa 1"
     inkscape:groupmode="layer"
     id="layer1"
     transform="translate(-424.57144,-828.36218)">
    <g
       style="font-size:10px;font-style:normal;font-variant:normal;font-weight:normal;font-stretch:normal;line-height:125%;letter-spacing:0px;word-spacing:0px;fill:#000000;fill-opacity:1;stroke:none;font-family:Decker;-inkscape-font-specification:Decker"
       id="text6661"
       transform="translate(-97.142852,222.85711)" />
    <g
       style="font-size:7.5px;font-style:normal;font-variant:normal;font-weight:bold;font-stretch:normal;line-height:125%;letter-spacing:0px;word-spacing:0px;fill:#ffffff;fill-opacity:1;stroke:none;font-family:Impact;-inkscape-font-specification:Impact Bold"
       id="text853"
       transform="translate(0.071433,301.35717)" />
    <g
       style="font-size:10px;font-style:normal;font-variant:normal;font-weight:normal;font-stretch:normal;line-height:125%;letter-spacing:0px;word-spacing:0px;fill:#000000;fill-opacity:1;stroke:none;font-family:Decker;-inkscape-font-specification:Decker"
       id="text6661-0"
       transform="translate(-39.928569,227.0714)" />
    <path
       inkscape:connector-curvature="0"
       style="fill:#000000;fill-opacity:0.01960784;stroke:none"
       d="m 432.64956,830.16298 c -3.47838,0 -6.27734,2.7989 -6.27734,6.2773 l 0,31.8438 c 0,3.4784 2.79896,6.2773 6.27734,6.2773 l 31.84375,0 c 3.47839,0 6.27735,-2.799 6.27735,-6.2773 l 0,-28.9219 -1.19922,0.01 0,-0.01 1.19922,0 -9.19922,-9.1992 -28.92188,0 z"
       id="rect5263" />
    <path
       inkscape:connector-curvature="0"
       style="fill:#000000;fill-opacity:0.03921569;stroke:none"
       d="m 432.86441,830.46178 c -3.43138,0 -6.19336,2.764 -6.19336,6.1953 l 0,31.4121 c 0,3.4314 2.76198,6.1934 6.19336,6.1934 l 31.41406,0 c 3.43138,0 6.19336,-2.762 6.19336,-6.1934 l 0,-28.707 -0.90039,0.01 0,-0.01 0.90039,0 -8.90039,-8.9004 -28.70703,0 z"
       id="rect5261" />
    <path
       inkscape:connector-curvature="0"
       style="fill:#000000;fill-opacity:0.07843137;stroke:none"
       d="m 433.08121,830.76258 c -3.38437,0 -6.10938,2.725 -6.10938,6.1094 l 0,30.9824 c 0,3.3844 2.72501,6.1074 6.10938,6.1074 l 30.98046,0 c 3.38437,0 6.10938,-2.723 6.10938,-6.1074 l 0,-28.4922 -0.59961,0.01 0,-0.01 0.59961,0 -8.59961,-8.5996 -28.49023,0 z"
       id="rect5259" />
    <path
       inkscape:connector-curvature="0"
       style="fill:#000000;fill-opacity:0.15686275;stroke:none"
       d="m 433.29605,831.06138 c -3.33737,0 -6.02539,2.688 -6.02539,6.0254 l 0,30.5508 c 0,3.3374 2.68802,6.0254 6.02539,6.0254 l 30.55078,0 c 3.33737,0 6.02539,-2.688 6.02539,-6.0254 l 0,-28.2754 -0.30078,0.01 0,-0.01 0.30078,0 -8.30078,-8.3008 -28.27539,0 z"
       id="rect5257" />
    <path
       inkscape:connector-curvature="0"
       style="fill:url(#linearGradient7270);fill-opacity:1;stroke:none"
       d="m 433.51089,831.36218 c -3.29036,0 -5.93945,2.6491 -5.93945,5.9394 l 0,30.1212 c 0,3.2903 2.64909,5.9394 5.93945,5.9394 l 30.1211,0 c 3.29036,0 5.93945,-2.6491 5.93945,-5.9394 l 0,-28.0606 -8,0 0,-7.9023 0,-0.084 0,-0.014 -28.06055,0 z"
       id="rect5237" />
    <path
       inkscape:connector-curvature="0"
       style="fill:#000000;fill-opacity:0.11764706;stroke:none"
       d="m 427.57144,864.92478 0,2.5 c 0,3.2904 2.64714,5.9375 5.9375,5.9375 l 30.125,0 c 3.29036,0 5.9375,-2.6471 5.9375,-5.9375 l 0,-2.5 c 0,3.2904 -2.64714,5.9375 -5.9375,5.9375 l -30.125,0 c -3.29036,0 -5.9375,-2.6471 -5.9375,-5.9375 z"
       id="rect5265" />
    <path
       inkscape:connector-curvature="0"
       style="fill:#000000;fill-opacity:0.09803922;stroke:none"
       d="m 427.57144,866.92478 0,0.5 c 0,3.2904 2.64714,5.9375 5.9375,5.9375 l 30.125,0 c 3.29036,0 5.9375,-2.6471 5.9375,-5.9375 l 0,-0.5 c 0,3.2904 -2.64714,5.9375 -5.9375,5.9375 l -30.125,0 c -3.29036,0 -5.9375,-2.6471 -5.9375,-5.9375 z"
       id="path5252" />
    <path
       style="opacity:0.74599998;fill:#fcfdfe;fill-opacity:1;stroke:none"
       d="m 469.57144,839.36218 -8,-8 0,8 z"
       id="rect4179"
       inkscape:connector-curvature="0"
       sodipodi:nodetypes="cccc" />
    <path
       style="fill:#000000"
       d=""
       id="path906"
       inkscape:connector-curvature="0" />
    <path
       inkscape:connector-curvature="0"
       id="path460"
       style="fill:#ffffff;fill-opacity:0.49803922;fill-rule:nonzero;stroke:none"
       d="m 452.57575,854.56537 c -0.54911,0 -0.96409,-0.20038 -1.24578,-0.6011 -0.28168,-0.40076 -0.42251,-0.93479 -0.42251,-1.60381 0,-1.46798 0.5558,-2.20155 1.66829,-2.20155 0.23725,0 0.48621,0.0755 0.74528,0.22132 0.25903,0.14922 0.47868,0.40912 0.6564,0.78052 l 1.64566,-0.86687 c -0.65221,-1.20221 -1.74961,-1.80333 -3.29214,-1.80333 -1.05296,0 -1.92398,0.34959 -2.61393,1.04545 -0.68911,0.69836 -1.03368,1.63816 -1.03368,2.82446 0,1.219 0.33703,2.16718 1.01188,2.84962 0.67484,0.68244 1.57607,1.02364 2.70279,1.02364 0.68241,0 1.31283,-0.17606 1.89128,-0.52314 0.57761,-0.34874 1.03787,-0.82579 1.37905,-1.43529 l -1.55762,-0.77967 c -0.29593,0.71178 -0.80813,1.06975 -1.53497,1.06975 z m -7.18538,0 c -0.54829,0 -0.96409,-0.20038 -1.24576,-0.6011 -0.28171,-0.40076 -0.42253,-0.93479 -0.42253,-1.60381 0,-1.46798 0.5558,-2.20155 1.66829,-2.20155 0.22215,0 0.4636,0.0755 0.72263,0.22132 0.25904,0.14922 0.4787,0.40912 0.65644,0.78052 l 1.66828,-0.86687 c -0.6665,-1.20221 -1.77225,-1.80333 -3.31479,-1.80333 -1.05294,0 -1.92397,0.34959 -2.61309,1.04545 -0.68995,0.69836 -1.03533,1.63816 -1.03533,2.82446 0,1.219 0.34204,2.16718 1.02359,2.84962 0.68242,0.68244 1.58026,1.02364 2.69275,1.02364 0.69665,0 1.33461,-0.17606 1.91223,-0.52314 0.57844,-0.34874 1.03116,-0.82579 1.35727,-1.43529 l -1.535,-0.77967 c -0.29677,0.71178 -0.80814,1.06975 -1.53498,1.06975 z m 3.31896,8.06008 c -5.66799,0.0762 -10.32411,-4.45846 -10.4004,-10.12666 -0.0755,-5.66905 4.45828,-10.32452 10.12542,-10.39996 5.668,-0.0762 10.32329,4.4576 10.39957,10.12664 0.0755,5.66823 -4.45744,10.32452 -10.12459,10.39998 z m -0.31187,-23.26222 c -7.17864,0.0947 -12.92042,5.9935 -12.82485,13.17329 0.0964,7.17726 5.99327,12.92179 13.17277,12.82454 7.17866,-0.0947 12.92128,-5.9935 12.82486,-13.17329 -0.0956,-7.1773 -5.99409,-12.91926 -13.17278,-12.82454" />
  </g>
</svg>
