<?xml version="1.0" encoding="UTF-8" standalone="no"?>
<!-- Created with Inkscape (http://www.inkscape.org/) -->

<svg
   xmlns:dc="http://purl.org/dc/elements/1.1/"
   xmlns:cc="http://creativecommons.org/ns#"
   xmlns:rdf="http://www.w3.org/1999/02/22-rdf-syntax-ns#"
   xmlns:svg="http://www.w3.org/2000/svg"
   xmlns="http://www.w3.org/2000/svg"
   xmlns:xlink="http://www.w3.org/1999/xlink"
   xmlns:sodipodi="http://sodipodi.sourceforge.net/DTD/sodipodi-0.dtd"
   xmlns:inkscape="http://www.inkscape.org/namespaces/inkscape"
   width="48"
   height="48"
   id="svg6407"
   version="1.1"
   inkscape:version="0.48.5 r10040"
   sodipodi:docname="text-x-makefile.svg">
  <defs
     id="defs6409">
    <style
       id="style874"
       type="text/css">
    .fil0 {fill:#1F1A17}
   </style>
    <style
       id="style1115"
       type="text/css"> .fil0 {fill:#1F1A17} </style>
    <style
       id="style1246"
       type="text/css"> .fil0 {fill:#1F1A17} </style>
    <style
       type="text/css"
       id="style1115-1"> .fil0 {fill:#1F1A17} </style>
    <style
       type="text/css"
       id="style1246-4"> .fil0 {fill:#1F1A17} </style>
    <style
       id="style1115-2"
       type="text/css"> .fil0 {fill:#1F1A17} </style>
    <style
       id="style1246-7"
       type="text/css"> .fil0 {fill:#1F1A17} </style>
    <linearGradient
       id="linearGradient4133"
       inkscape:collect="always">
      <stop
         id="stop4135"
         offset="0"
         style="stop-color:#329d29;stop-opacity:1" />
      <stop
         id="stop4137"
         offset="1"
         style="stop-color:#88c724;stop-opacity:1" />
    </linearGradient>
    <style
       type="text/css"
       id="style1115-0"> .fil0 {fill:#1F1A17} </style>
    <style
       type="text/css"
       id="style1246-8"> .fil0 {fill:#1F1A17} </style>
    <style
       type="text/css"
       id="style874-7">
    .fil0 {fill:#1F1A17}
   </style>
    <linearGradient
       id="linearGradient943">
      <stop
         style="stop-color:#bf6296;stop-opacity:0.99607843"
         offset="0"
         id="stop945" />
      <stop
         style="stop-color:#ee7a95;stop-opacity:0.99607843"
         offset="1"
         id="stop947" />
    </linearGradient>
    <style
       id="style874-8"
       type="text/css">
    .fil0 {fill:#1F1A17}
   </style>
    <style
       id="style1115-6"
       type="text/css"> .fil0 {fill:#1F1A17} </style>
    <style
       id="style1246-86"
       type="text/css"> .fil0 {fill:#1F1A17} </style>
    <style
       type="text/css"
       id="style1115-1-6"> .fil0 {fill:#1F1A17} </style>
    <style
       type="text/css"
       id="style1246-4-4"> .fil0 {fill:#1F1A17} </style>
    <style
       id="style1115-2-1"
       type="text/css"> .fil0 {fill:#1F1A17} </style>
    <style
       id="style1246-7-7"
       type="text/css"> .fil0 {fill:#1F1A17} </style>
    <style
       type="text/css"
       id="style1115-0-9"> .fil0 {fill:#1F1A17} </style>
    <style
       type="text/css"
       id="style1246-8-2"> .fil0 {fill:#1F1A17} </style>
    <style
       type="text/css"
       id="style874-7-0">
    .fil0 {fill:#1F1A17}
   </style>
    <linearGradient
       inkscape:collect="always"
       xlink:href="#linearGradient4133"
       id="linearGradient7270"
       x1="25.388002"
       y1="1049.5046"
       x2="25.388002"
       y2="1007.4111"
       gradientUnits="userSpaceOnUse"
       gradientTransform="translate(661.71429,-353.14288)" />
  </defs>
  <sodipodi:namedview
     id="base"
     pagecolor="#ffffff"
     bordercolor="#666666"
     borderopacity="1.0"
     inkscape:pageopacity="0.0"
     inkscape:pageshadow="2"
     inkscape:zoom="3.959798"
     inkscape:cx="26.450032"
     inkscape:cy="32.638145"
     inkscape:document-units="px"
     inkscape:current-layer="layer1-4"
     showgrid="false"
     fit-margin-top="0"
     fit-margin-left="0"
     fit-margin-right="0"
     fit-margin-bottom="0"
     inkscape:window-width="1366"
     inkscape:window-height="767"
     inkscape:window-x="0"
     inkscape:window-y="0"
     inkscape:window-maximized="1" />
  <metadata
     id="metadata6412">
    <rdf:RDF>
      <cc:Work
         rdf:about="">
        <dc:format>image/svg+xml</dc:format>
        <dc:type
           rdf:resource="http://purl.org/dc/dcmitype/StillImage" />
        <dc:title />
      </cc:Work>
    </rdf:RDF>
  </metadata>
  <g
     inkscape:label="Capa 1"
     inkscape:groupmode="layer"
     id="layer1"
     transform="translate(-661.71429,-651.21932)">
    <g
       transform="translate(122.81147,41.6265)"
       id="text6661"
       style="font-size:10px;font-style:normal;font-variant:normal;font-weight:normal;font-stretch:normal;line-height:125%;letter-spacing:0px;word-spacing:0px;fill:#000000;fill-opacity:1;stroke:none;font-family:Decker;-inkscape-font-specification:Decker" />
    <path
       inkscape:connector-curvature="0"
       id="path906"
       d=""
       style="font-size:7.5px;font-style:normal;font-variant:normal;font-weight:bold;font-stretch:normal;line-height:125%;letter-spacing:0px;word-spacing:0px;fill:#000000;fill-opacity:1;stroke:none;font-family:Impact;-inkscape-font-specification:Impact Bold" />
    <g
       id="layer1-4"
       inkscape:label="Capa 1">
      <path
         id="rect5263-9"
         d="m 669.79241,653.02012 c -3.47838,0 -6.27734,2.7989 -6.27734,6.2773 l 0,31.8438 c 0,3.4784 2.79896,6.2773 6.27734,6.2773 l 31.84375,0 c 3.47839,0 6.27735,-2.799 6.27735,-6.2773 l 0,-28.9219 -1.19922,0.01 0,-0.01 1.19922,0 -9.19922,-9.1992 -28.92188,0 z"
         style="fill:#000000;fill-opacity:0.01960784;stroke:none"
         inkscape:connector-curvature="0" />
      <path
         id="rect5261-1"
         d="m 670.00726,653.31892 c -3.43138,0 -6.19336,2.764 -6.19336,6.1953 l 0,31.4121 c 0,3.4314 2.76198,6.1934 6.19336,6.1934 l 31.41406,0 c 3.43138,0 6.19336,-2.762 6.19336,-6.1934 l 0,-28.707 -0.90039,0.01 0,-0.01 0.90039,0 -8.90039,-8.9004 -28.70703,0 z"
         style="fill:#000000;fill-opacity:0.03921569;stroke:none"
         inkscape:connector-curvature="0" />
      <path
         id="rect5259-9"
         d="m 670.22406,653.61972 c -3.38437,0 -6.10938,2.725 -6.10938,6.1094 l 0,30.9824 c 0,3.3844 2.72501,6.1074 6.10938,6.1074 l 30.98046,0 c 3.38437,0 6.10938,-2.723 6.10938,-6.1074 l 0,-28.4922 -0.59961,0.01 0,-0.01 0.59961,0 -8.59961,-8.5996 -28.49023,0 z"
         style="fill:#000000;fill-opacity:0.07843137;stroke:none"
         inkscape:connector-curvature="0" />
      <path
         id="rect5257-6"
         d="m 670.4389,653.91852 c -3.33737,0 -6.02539,2.688 -6.02539,6.0254 l 0,30.5508 c 0,3.3374 2.68802,6.0254 6.02539,6.0254 l 30.55078,0 c 3.33737,0 6.02539,-2.688 6.02539,-6.0254 l 0,-28.2754 -0.30078,0.01 0,-0.01 0.30078,0 -8.30078,-8.3008 -28.27539,0 z"
         style="fill:#000000;fill-opacity:0.15686275;stroke:none"
         inkscape:connector-curvature="0" />
      <path
         id="rect5237-8"
         d="m 670.65374,654.21932 c -3.29036,0 -5.93945,2.6491 -5.93945,5.9394 l 0,30.1212 c 0,3.2903 2.64909,5.9394 5.93945,5.9394 l 30.1211,0 c 3.29036,0 5.93945,-2.6491 5.93945,-5.9394 l 0,-28.0606 -8,0 0,-7.9023 0,-0.084 0,-0.014 -28.06055,0 z"
         style="fill:url(#linearGradient7270);fill-opacity:1;stroke:none"
         inkscape:connector-curvature="0" />
      <path
         id="rect5265-3"
         d="m 664.71429,687.78192 0,2.5 c 0,3.2904 2.64714,5.9375 5.9375,5.9375 l 30.125,0 c 3.29036,0 5.9375,-2.6471 5.9375,-5.9375 l 0,-2.5 c 0,3.2904 -2.64714,5.9375 -5.9375,5.9375 l -30.125,0 c -3.29036,0 -5.9375,-2.6471 -5.9375,-5.9375 z"
         style="fill:#000000;fill-opacity:0.11764706;stroke:none"
         inkscape:connector-curvature="0" />
      <path
         id="path5252-7"
         d="m 664.71429,689.78192 0,0.5 c 0,3.2904 2.64714,5.9375 5.9375,5.9375 l 30.125,0 c 3.29036,0 5.9375,-2.6471 5.9375,-5.9375 l 0,-0.5 c 0,3.2904 -2.64714,5.9375 -5.9375,5.9375 l -30.125,0 c -3.29036,0 -5.9375,-2.6471 -5.9375,-5.9375 z"
         style="fill:#000000;fill-opacity:0.09803922;stroke:none"
         inkscape:connector-curvature="0" />
      <path
         sodipodi:nodetypes="cccc"
         inkscape:connector-curvature="0"
         id="rect4179"
         d="m 706.71429,662.21932 -8,-8 0,8 z"
         style="opacity:0.74599998;fill:#fcfdfe;fill-opacity:1;stroke:none" />
      <g
         style="font-size:10px;font-style:normal;font-variant:normal;font-weight:normal;font-stretch:normal;line-height:125%;letter-spacing:0px;word-spacing:0px;fill:#000000;fill-opacity:1;stroke:none;font-family:Decker;-inkscape-font-specification:Decker"
         id="text6661-1"
         transform="translate(122.81147,41.626498)" />
      <path
         style="font-size:7.5px;font-style:normal;font-variant:normal;font-weight:bold;font-stretch:normal;line-height:125%;letter-spacing:0px;word-spacing:0px;fill:#000000;fill-opacity:1;stroke:none;font-family:Impact;-inkscape-font-specification:Impact Bold"
         d=""
         id="path906-0"
         inkscape:connector-curvature="0" />
      <g
         transform="translate(72.07143,45.24996)"
         id="text6661-7"
         style="font-size:10px;font-style:normal;font-variant:normal;font-weight:normal;font-stretch:normal;line-height:125%;letter-spacing:0px;word-spacing:0px;fill:#000000;fill-opacity:1;stroke:none;font-family:Decker;-inkscape-font-specification:Decker" />
      <path
         inkscape:connector-curvature="0"
         id="path906-9"
         d=""
         style="fill:#000000" />
      <text
         xml:space="preserve"
         style="font-size:17.7401371px;font-style:normal;font-weight:normal;line-height:125%;letter-spacing:0px;word-spacing:0px;fill:#c1e291;fill-opacity:1;stroke:none;font-family:Sans"
         x="723.77612"
         y="629.69073"
         id="text3025"
         sodipodi:linespacing="125%"
         transform="scale(0.9216724,1.0849842)"><tspan
           sodipodi:role="line"
           id="tspan3027"
           x="723.77612"
           y="629.69073"
           style="font-style:normal;font-variant:normal;font-weight:bold;font-stretch:normal;fill:#c1e291;fill-opacity:1;font-family:sans;-inkscape-font-specification:sans"
           dx="0 0 0">.mk</tspan></text>
    </g>
  </g>
</svg>
