<?xml version="1.0" encoding="UTF-8" standalone="no"?>
<!-- Created with Inkscape (http://www.inkscape.org/) -->

<svg
   xmlns:dc="http://purl.org/dc/elements/1.1/"
   xmlns:cc="http://creativecommons.org/ns#"
   xmlns:rdf="http://www.w3.org/1999/02/22-rdf-syntax-ns#"
   xmlns:svg="http://www.w3.org/2000/svg"
   xmlns="http://www.w3.org/2000/svg"
   xmlns:xlink="http://www.w3.org/1999/xlink"
   xmlns:sodipodi="http://sodipodi.sourceforge.net/DTD/sodipodi-0.dtd"
   xmlns:inkscape="http://www.inkscape.org/namespaces/inkscape"
   width="48"
   height="48"
   id="svg6388"
   version="1.1"
   inkscape:version="0.48+devel r12859"
   sodipodi:docname="text-x-readme.svg">
  <defs
     id="defs6390">
    <linearGradient
       id="linearGradient943">
      <stop
         id="stop945"
         offset="0"
         style="stop-color:#23a9e1;stop-opacity:1" />
      <stop
         id="stop947"
         offset="1"
         style="stop-color:#66c6ec;stop-opacity:1" />
    </linearGradient>
    <linearGradient
       gradientUnits="userSpaceOnUse"
       y2="1007.4111"
       x2="25.388002"
       y1="1049.5046"
       x1="25.388002"
       id="linearGradient7270"
       xlink:href="#linearGradient943"
       inkscape:collect="always"
       gradientTransform="translate(481.71429,-473.1429)" />
  </defs>
  <sodipodi:namedview
     id="base"
     pagecolor="#ffffff"
     bordercolor="#666666"
     borderopacity="1.0"
     inkscape:pageopacity="0.0"
     inkscape:pageshadow="2"
     inkscape:zoom="3.8824582"
     inkscape:cx="-21.520488"
     inkscape:cy="17.408056"
     inkscape:document-units="px"
     inkscape:current-layer="layer1"
     showgrid="false"
     fit-margin-top="0"
     fit-margin-left="0"
     fit-margin-right="0"
     fit-margin-bottom="0"
     inkscape:window-width="1366"
     inkscape:window-height="673"
     inkscape:window-x="0"
     inkscape:window-y="24"
     inkscape:window-maximized="1" />
  <metadata
     id="metadata6393">
    <rdf:RDF>
      <cc:Work
         rdf:about="">
        <dc:format>image/svg+xml</dc:format>
        <dc:type
           rdf:resource="http://purl.org/dc/dcmitype/StillImage" />
        <dc:title />
      </cc:Work>
    </rdf:RDF>
  </metadata>
  <g
     inkscape:label="Capa 1"
     inkscape:groupmode="layer"
     id="layer1"
     transform="translate(-424.57144,-828.36218)">
    <g
       transform="translate(140.00001,314.28571)"
       id="layer1-36"
       inkscape:label="Capa 1">
      <g
         inkscape:label="Capa 1"
         id="layer1-3"
         transform="translate(-197.14286,-17.14283)">
        <path
           inkscape:connector-curvature="0"
           style="fill:#000000;fill-opacity:0.01960784;stroke:none"
           d="m 489.79241,533.02008 c -3.47838,0 -6.27734,2.79896 -6.27734,6.27734 l 0,31.84375 c 0,3.47838 2.79896,6.27735 6.27734,6.27735 l 31.84375,0 c 3.47839,0 6.27735,-2.79897 6.27735,-6.27735 l 0,-28.92187 -1.19922,0.008 0,-0.008 1.19922,0 -9.19922,-9.19922 -28.92188,0 z"
           id="rect5263" />
        <path
           inkscape:connector-curvature="0"
           style="fill:#000000;fill-opacity:0.03921569;stroke:none"
           d="m 490.00726,533.31891 c -3.43138,0 -6.19336,2.76394 -6.19336,6.19531 l 0,31.41211 c 0,3.43138 2.76198,6.19336 6.19336,6.19336 l 31.41406,0 c 3.43138,0 6.19336,-2.76198 6.19336,-6.19336 l 0,-28.70703 -0.90039,0.008 0,-0.008 0.90039,0 -8.90039,-8.90039 -28.70703,0 z"
           id="rect5261" />
        <path
           inkscape:connector-curvature="0"
           style="fill:#000000;fill-opacity:0.07843137;stroke:none"
           d="m 490.22406,533.61969 c -3.38437,0 -6.10938,2.72501 -6.10938,6.10938 l 0,30.98242 c 0,3.38437 2.72501,6.10742 6.10938,6.10742 l 30.98046,0 c 3.38437,0 6.10938,-2.72305 6.10938,-6.10742 l 0,-28.49219 -0.59961,0.008 0,-0.008 0.59961,0 -8.59961,-8.59961 -28.49023,0 z"
           id="rect5259" />
        <path
           inkscape:connector-curvature="0"
           style="fill:#000000;fill-opacity:0.15686275;stroke:none"
           d="m 490.4389,533.91852 c -3.33737,0 -6.02539,2.68802 -6.02539,6.02539 l 0,30.55078 c 0,3.33737 2.68802,6.02539 6.02539,6.02539 l 30.55078,0 c 3.33737,0 6.02539,-2.68802 6.02539,-6.02539 l 0,-28.27539 -0.30078,0.008 0,-0.008 0.30078,0 -8.30078,-8.30078 -28.27539,0 z"
           id="rect5257" />
        <path
           inkscape:connector-curvature="0"
           style="fill:url(#linearGradient7270);fill-opacity:1;stroke:none"
           d="m 490.65374,534.2193 c -3.29036,0 -5.93945,2.64909 -5.93945,5.93945 l 0,30.1211 c 0,3.29036 2.64909,5.93945 5.93945,5.93945 l 30.1211,0 c 3.29036,0 5.93945,-2.64909 5.93945,-5.93945 l 0,-28.06055 -8,0 0,-7.90234 0,-0.084 0,-0.0137 -28.06055,0 z"
           id="rect5237" />
        <path
           inkscape:connector-curvature="0"
           style="fill:#000000;fill-opacity:0.11764706;stroke:none"
           d="m 484.71429,567.78185 0,2.5 c 0,3.2904 2.64714,5.9375 5.9375,5.9375 l 30.125,0 c 3.29036,0 5.9375,-2.6471 5.9375,-5.9375 l 0,-2.5 c 0,3.2904 -2.64714,5.9375 -5.9375,5.9375 l -30.125,0 c -3.29036,0 -5.9375,-2.6471 -5.9375,-5.9375 z"
           id="rect5265" />
        <path
           inkscape:connector-curvature="0"
           style="fill:#000000;fill-opacity:0.09803922;stroke:none"
           d="m 484.71429,569.78185 0,0.5 c 0,3.2904 2.64714,5.9375 5.9375,5.9375 l 30.125,0 c 3.29036,0 5.9375,-2.6471 5.9375,-5.9375 l 0,-0.5 c 0,3.2904 -2.64714,5.9375 -5.9375,5.9375 l -30.125,0 c -3.29036,0 -5.9375,-2.6471 -5.9375,-5.9375 z"
           id="path5252" />
        <path
           style="fill:#000000"
           d=""
           id="path906"
           inkscape:connector-curvature="0" />
        <path
           style="opacity:0.74599998;fill:#fcfdfe;fill-opacity:1;stroke:none"
           d="m 526.71429,542.2193 -8,-8 0,8 z"
           id="rect4179"
           inkscape:connector-curvature="0"
           sodipodi:nodetypes="cccc" />
      </g>
    </g>
    <path
       inkscape:connector-curvature="0"
       id="path58"
       style="fill:#ffffff;fill-opacity:0.49803922;fill-rule:nonzero;stroke:none"
       d="m 446.37191,865.36218 c -1.37301,0 -2.38141,-0.84987 -1.41967,-4.58092 l 1.5782,-6.61955 c 0.27528,-1.0583 0.31951,-1.48161 0,-1.48161 -0.41364,0 -2.1971,0.72995 -3.25301,1.45265 l -0.68568,-1.14685 c 3.34314,-2.83856 7.19093,-4.5053 8.83915,-4.5053 1.37542,0 1.60481,1.65387 0.91828,4.1995 l -1.80678,6.95753 c -0.32029,1.22651 -0.18268,1.65306 0.13763,1.65306 0.41044,0 1.76493,-0.51265 3.09124,-1.57259 l 0.77986,1.05994 c -3.2522,3.31015 -6.80461,4.58414 -8.17922,4.58414 z m 5.36081,-26 c 1.74239,0 2.61318,1.18631 2.61318,2.54316 0,1.69736 -1.51302,3.26511 -3.484,3.26511 -1.64821,0 -2.61076,-0.97463 -2.56328,-2.58664 0,-1.3569 1.14363,-3.22163 3.4341,-3.22163" />
  </g>
</svg>
