<?xml version="1.0" encoding="UTF-8" standalone="no"?>
<!-- Created with Inkscape (http://www.inkscape.org/) -->

<svg
   xmlns:dc="http://purl.org/dc/elements/1.1/"
   xmlns:cc="http://creativecommons.org/ns#"
   xmlns:rdf="http://www.w3.org/1999/02/22-rdf-syntax-ns#"
   xmlns:svg="http://www.w3.org/2000/svg"
   xmlns="http://www.w3.org/2000/svg"
   xmlns:xlink="http://www.w3.org/1999/xlink"
   xmlns:sodipodi="http://sodipodi.sourceforge.net/DTD/sodipodi-0.dtd"
   xmlns:inkscape="http://www.inkscape.org/namespaces/inkscape"
   width="48"
   height="48"
   id="svg6654"
   version="1.1"
   inkscape:version="0.48+devel r12859"
   sodipodi:docname="application-x-ruby.svg">
  <defs
     id="defs6656">
    <linearGradient
       inkscape:collect="always"
       id="linearGradient1506">
      <stop
         style="stop-color:#df020c;stop-opacity:1"
         offset="0"
         id="stop1508" />
      <stop
         style="stop-color:#fd2b34;stop-opacity:1"
         offset="1"
         id="stop1510" />
    </linearGradient>
    <linearGradient
       gradientUnits="userSpaceOnUse"
       y2="1007.4111"
       x2="25.388002"
       y1="1049.5046"
       x1="25.388002"
       id="linearGradient7270"
       xlink:href="#linearGradient1506"
       inkscape:collect="always"
       gradientTransform="translate(456,-398.85713)" />
  </defs>
  <sodipodi:namedview
     id="base"
     pagecolor="#ffffff"
     bordercolor="#666666"
     borderopacity="1.0"
     inkscape:pageopacity="0.0"
     inkscape:pageshadow="2"
     inkscape:zoom="5.6"
     inkscape:cx="30.324819"
     inkscape:cy="26.892438"
     inkscape:document-units="px"
     inkscape:current-layer="layer1"
     showgrid="false"
     fit-margin-top="0"
     fit-margin-left="0"
     fit-margin-right="0"
     fit-margin-bottom="0"
     inkscape:window-width="1366"
     inkscape:window-height="673"
     inkscape:window-x="0"
     inkscape:window-y="24"
     inkscape:window-maximized="1" />
  <metadata
     id="metadata6659">
    <rdf:RDF>
      <cc:Work
         rdf:about="">
        <dc:format>image/svg+xml</dc:format>
        <dc:type
           rdf:resource="http://purl.org/dc/dcmitype/StillImage" />
        <dc:title />
      </cc:Work>
    </rdf:RDF>
  </metadata>
  <g
     inkscape:label="Capa 1"
     inkscape:groupmode="layer"
     id="layer1"
     transform="translate(-167.42857,-811.2193)">
    <g
       transform="translate(-288.57143,205.71423)"
       id="layer1-1"
       inkscape:label="Capa 1">
      <path
         id="rect5263"
         d="m 464.07812,607.30585 c -3.47838,0 -6.27734,2.79896 -6.27734,6.27734 l 0,31.84375 c 0,3.47838 2.79896,6.27735 6.27734,6.27735 l 31.84375,0 c 3.47839,0 6.27735,-2.79897 6.27735,-6.27735 l 0,-28.92187 -1.19922,0.008 0,-0.008 1.19922,0 -9.19922,-9.19922 -28.92188,0 z"
         style="fill:#000000;fill-opacity:0.01960784;stroke:none"
         inkscape:connector-curvature="0" />
      <path
         id="rect5261"
         d="m 464.29297,607.60468 c -3.43138,0 -6.19336,2.76394 -6.19336,6.19531 l 0,31.41211 c 0,3.43138 2.76198,6.19336 6.19336,6.19336 l 31.41406,0 c 3.43138,0 6.19336,-2.76198 6.19336,-6.19336 l 0,-28.70703 -0.90039,0.008 0,-0.008 0.90039,0 -8.90039,-8.90039 -28.70703,0 z"
         style="fill:#000000;fill-opacity:0.03921569;stroke:none"
         inkscape:connector-curvature="0" />
      <path
         id="rect5259"
         d="m 464.50977,607.90546 c -3.38437,0 -6.10938,2.72501 -6.10938,6.10938 l 0,30.98242 c 0,3.38437 2.72501,6.10742 6.10938,6.10742 l 30.98046,0 c 3.38437,0 6.10938,-2.72305 6.10938,-6.10742 l 0,-28.49219 -0.59961,0.008 0,-0.008 0.59961,0 -8.59961,-8.59961 -28.49023,0 z"
         style="fill:#000000;fill-opacity:0.07843137;stroke:none"
         inkscape:connector-curvature="0" />
      <path
         id="rect5257"
         d="m 464.72461,608.20429 c -3.33737,0 -6.02539,2.68802 -6.02539,6.02539 l 0,30.55078 c 0,3.33737 2.68802,6.02539 6.02539,6.02539 l 30.55078,0 c 3.33737,0 6.02539,-2.68802 6.02539,-6.02539 l 0,-28.27539 -0.30078,0.008 0,-0.008 0.30078,0 -8.30078,-8.30078 -28.27539,0 z"
         style="fill:#000000;fill-opacity:0.15686275;stroke:none"
         inkscape:connector-curvature="0" />
      <path
         id="rect5237"
         d="m 464.93945,608.50507 c -3.29036,0 -5.93945,2.64909 -5.93945,5.93945 l 0,30.1211 c 0,3.29036 2.64909,5.93945 5.93945,5.93945 l 30.1211,0 c 3.29036,0 5.93945,-2.64909 5.93945,-5.93945 l 0,-28.06055 -8,0 0,-7.90234 0,-0.084 0,-0.0137 -28.06055,0 z"
         style="fill:url(#linearGradient7270);fill-opacity:1;stroke:none"
         inkscape:connector-curvature="0" />
      <path
         id="rect5265"
         d="m 459,642.06762 0,2.5 c 0,3.2904 2.64714,5.9375 5.9375,5.9375 l 30.125,0 c 3.29036,0 5.9375,-2.6471 5.9375,-5.9375 l 0,-2.5 c 0,3.2904 -2.64714,5.9375 -5.9375,5.9375 l -30.125,0 c -3.29036,0 -5.9375,-2.6471 -5.9375,-5.9375 z"
         style="fill:#000000;fill-opacity:0.11764706;stroke:none"
         inkscape:connector-curvature="0" />
      <path
         id="path5252"
         d="m 459,644.06762 0,0.5 c 0,3.2904 2.64714,5.9375 5.9375,5.9375 l 30.125,0 c 3.29036,0 5.9375,-2.6471 5.9375,-5.9375 l 0,-0.5 c 0,3.2904 -2.64714,5.9375 -5.9375,5.9375 l -30.125,0 c -3.29036,0 -5.9375,-2.6471 -5.9375,-5.9375 z"
         style="fill:#000000;fill-opacity:0.09803922;stroke:none"
         inkscape:connector-curvature="0" />
      <path
         inkscape:connector-curvature="0"
         id="path906"
         d=""
         style="fill:#000000" />
      <path
         sodipodi:nodetypes="cccc"
         inkscape:connector-curvature="0"
         id="rect4179"
         d="m 501,616.50507 -8,-8 0,8 z"
         style="opacity:0.74599998;fill:#fcfdfe;fill-opacity:1;stroke:none" />
    </g>
    <g
       id="g1133"
       transform="matrix(0.19980163,0,0,0.19980163,176.59408,658.79569)"
       style="fill:#ffffff;fill-opacity:0.49803922">
      <path
         id="path1098"
         transform="translate(167.42857,811.2193)"
         d="m -61.90625,39.46875 -18.40625,0.21875 8.96875,5.90625 9.4375,-6.125 z m 7.71875,0.375 -10.59375,6.03125 19.65625,1.09375 -9.0625,-7.125 z m -32.78125,7.6875 c -2.617643,0.148838 -5.753931,1.041427 -9.25,2.78125 -11.18742,5.567434 -21.71894,17.537967 -23.53125,26.71875 -1.81231,9.180783 5.78133,12.098684 16.96875,6.53125 11.187422,-5.567434 21.718937,-17.506717 23.53125,-26.6875 1.245965,-6.311788 -1.959935,-9.671194 -7.71875,-9.34375 z m 16.5,1.59375 -6.0625,15.65625 L -50.25,64.40625 -70.46875,49.125 Z M -64,49.53125 l 19.25,15.125 0.28125,-13.4375 L -64,49.53125 Z m 18.03125,18.40625 -26.25,0.40625 19.0625,12.875 7.1875,-13.28125 z m -31.9375,1.40625 c -17.817765,17.377547 -21.369186,23.774063 -42.8125,25.375 -3.91428,-0.859937 -4.24849,-8.364551 -6.0625,-13.125 l -0.25,30.3125 c 0.35281,2.00674 2.92133,7.97777 11.5,9.59375 21.739944,0.75514 44.135158,-1.1618 66.53125,-3.03125 2.523456,-13.9741 2.372252,-28.402659 3.03125,-42.6875 -9.653875,14.984578 -20.481656,25.48166 -31.8125,34.09375 L -75,107.09375 l 19.9375,-23.625 -22.84375,-14.125 z"
         style="fill:#ffffff;fill-opacity:0.49803922;stroke:none"
         inkscape:connector-curvature="0" />
      <path
         transform="translate(167.42857,811.2193)"
         inkscape:connector-curvature="0"
         id="path1112"
         d="m -84.600276,27.291873 11.237947,1.136421 -2.65165,-21.7182795 z"
         style="fill:#ffffff;fill-opacity:0.49803922;stroke:none" />
      <path
         style="fill:#ffffff;fill-opacity:0.49803922;stroke:none"
         d="m 122.53277,842.06225 8.30036,7.66075 10.9298,-18.95401 z"
         id="path1114"
         inkscape:connector-curvature="0" />
      <path
         sodipodi:nodetypes="cccc"
         style="fill:#ffffff;fill-opacity:0.49803922;stroke:none"
         d="M 46.535233,861.43599 54.874956,854.0572 36.535268,842.22371 Z"
         id="path1116"
         inkscape:connector-curvature="0" />
      <path
         sodipodi:nodetypes="cccc"
         inkscape:connector-curvature="0"
         id="path1118"
         d="m 28.938769,900.64748 -0.198784,-11.29351 -22.0107195,7.7235 z"
         style="fill:#ffffff;fill-opacity:0.49803922;stroke:none" />
      <path
         style="fill:#ffffff;fill-opacity:0.49803922;stroke:none"
         d="m 36.561923,937.49047 -8.008756,-7.96508 -11.629391,18.53299 z"
         id="path1120"
         inkscape:connector-curvature="0" />
    </g>
  </g>
</svg>
