<?xml version="1.0" encoding="UTF-8" standalone="no"?>
<!-- Created with Inkscape (http://www.inkscape.org/) -->

<svg
   xmlns:dc="http://purl.org/dc/elements/1.1/"
   xmlns:cc="http://creativecommons.org/ns#"
   xmlns:rdf="http://www.w3.org/1999/02/22-rdf-syntax-ns#"
   xmlns:svg="http://www.w3.org/2000/svg"
   xmlns="http://www.w3.org/2000/svg"
   xmlns:xlink="http://www.w3.org/1999/xlink"
   xmlns:sodipodi="http://sodipodi.sourceforge.net/DTD/sodipodi-0.dtd"
   xmlns:inkscape="http://www.inkscape.org/namespaces/inkscape"
   width="48"
   height="48"
   id="svg6391"
   version="1.1"
   inkscape:version="0.91+devel r"
   sodipodi:docname="text-x-matlab.svg">
  <defs
     id="defs6393">
    <linearGradient
       id="linearGradient943">
      <stop
         id="stop945"
         offset="0"
         style="stop-color:#e9871d;stop-opacity:1" />
      <stop
         id="stop947"
         offset="1"
         style="stop-color:#fcd250;stop-opacity:1" />
    </linearGradient>
    <style
       type="text/css"
       id="style874">
    .fil0 {fill:#1F1A17}
   </style>
    <linearGradient
       gradientUnits="userSpaceOnUse"
       y2="1007.4111"
       x2="25.388002"
       y1="1049.5046"
       x1="25.388002"
       id="linearGradient7270"
       xlink:href="#linearGradient943"
       inkscape:collect="always"
       gradientTransform="translate(456,-398.85713)" />
    <style
       id="style874-7-0"
       type="text/css">
    .fil0 {fill:#1F1A17}
   </style>
    <style
       id="style1246-8-2"
       type="text/css"> .fil0 {fill:#1F1A17} </style>
    <style
       id="style1115-0-9"
       type="text/css"> .fil0 {fill:#1F1A17} </style>
    <style
       type="text/css"
       id="style1246-7-7"> .fil0 {fill:#1F1A17} </style>
    <style
       type="text/css"
       id="style1115-2-1"> .fil0 {fill:#1F1A17} </style>
    <style
       id="style1246-4-4"
       type="text/css"> .fil0 {fill:#1F1A17} </style>
    <style
       id="style1115-1-6"
       type="text/css"> .fil0 {fill:#1F1A17} </style>
    <style
       type="text/css"
       id="style1246-86"> .fil0 {fill:#1F1A17} </style>
    <style
       type="text/css"
       id="style1115-6"> .fil0 {fill:#1F1A17} </style>
    <style
       type="text/css"
       id="style874-8">
    .fil0 {fill:#1F1A17}
   </style>
    <style
       id="style874-7"
       type="text/css">
    .fil0 {fill:#1F1A17}
   </style>
    <style
       id="style1246-8"
       type="text/css"> .fil0 {fill:#1F1A17} </style>
    <style
       id="style1115-0"
       type="text/css"> .fil0 {fill:#1F1A17} </style>
    <style
       type="text/css"
       id="style1246-7"> .fil0 {fill:#1F1A17} </style>
    <style
       type="text/css"
       id="style1115-2"> .fil0 {fill:#1F1A17} </style>
    <style
       id="style1246-4"
       type="text/css"> .fil0 {fill:#1F1A17} </style>
    <style
       id="style1115-1"
       type="text/css"> .fil0 {fill:#1F1A17} </style>
    <style
       type="text/css"
       id="style1246"> .fil0 {fill:#1F1A17} </style>
    <style
       type="text/css"
       id="style1115"> .fil0 {fill:#1F1A17} </style>
    <style
       type="text/css"
       id="style874-6">
    .fil0 {fill:#1F1A17}
   </style>
  </defs>
  <sodipodi:namedview
     id="base"
     pagecolor="#ffffff"
     bordercolor="#666666"
     borderopacity="1.0"
     inkscape:pageopacity="0.0"
     inkscape:pageshadow="2"
     inkscape:zoom="11.2"
     inkscape:cx="29.960947"
     inkscape:cy="21.576648"
     inkscape:document-units="px"
     inkscape:current-layer="layer1"
     showgrid="false"
     fit-margin-top="0"
     fit-margin-left="0"
     fit-margin-right="0"
     fit-margin-bottom="0"
     inkscape:window-width="1366"
     inkscape:window-height="670"
     inkscape:window-x="-4"
     inkscape:window-y="29"
     inkscape:window-maximized="1" />
  <metadata
     id="metadata6396">
    <rdf:RDF>
      <cc:Work
         rdf:about="">
        <dc:format>image/svg+xml</dc:format>
        <dc:type
           rdf:resource="http://purl.org/dc/dcmitype/StillImage" />
        <dc:title />
      </cc:Work>
    </rdf:RDF>
  </metadata>
  <g
     inkscape:label="Capa 1"
     inkscape:groupmode="layer"
     id="layer1"
     transform="translate(-481.71429,-531.2193)">
    <g
       transform="translate(25.71429,-74.28577)"
       id="layer1-1"
       inkscape:label="Capa 1">
      <path
         id="rect5263-1"
         d="m 464.07812,607.30585 c -3.47838,0 -6.27734,2.79896 -6.27734,6.27734 l 0,31.84375 c 0,3.47838 2.79896,6.27735 6.27734,6.27735 l 31.84375,0 c 3.47839,0 6.27735,-2.79897 6.27735,-6.27735 l 0,-28.92187 -1.19922,0.008 0,-0.008 1.19922,0 -9.19922,-9.19922 -28.92188,0 z"
         style="fill:#000000;fill-opacity:0.01960784;stroke:none"
         inkscape:connector-curvature="0" />
      <path
         id="rect5261-0"
         d="m 464.29297,607.60468 c -3.43138,0 -6.19336,2.76394 -6.19336,6.19531 l 0,31.41211 c 0,3.43138 2.76198,6.19336 6.19336,6.19336 l 31.41406,0 c 3.43138,0 6.19336,-2.76198 6.19336,-6.19336 l 0,-28.70703 -0.90039,0.008 0,-0.008 0.90039,0 -8.90039,-8.90039 -28.70703,0 z"
         style="fill:#000000;fill-opacity:0.03921569;stroke:none"
         inkscape:connector-curvature="0" />
      <path
         id="rect5259-3"
         d="m 464.50977,607.90546 c -3.38437,0 -6.10938,2.72501 -6.10938,6.10938 l 0,30.98242 c 0,3.38437 2.72501,6.10742 6.10938,6.10742 l 30.98046,0 c 3.38437,0 6.10938,-2.72305 6.10938,-6.10742 l 0,-28.49219 -0.59961,0.008 0,-0.008 0.59961,0 -8.59961,-8.59961 -28.49023,0 z"
         style="fill:#000000;fill-opacity:0.07843137;stroke:none"
         inkscape:connector-curvature="0" />
      <path
         id="rect5257-9"
         d="m 464.72461,608.20429 c -3.33737,0 -6.02539,2.68802 -6.02539,6.02539 l 0,30.55078 c 0,3.33737 2.68802,6.02539 6.02539,6.02539 l 30.55078,0 c 3.33737,0 6.02539,-2.68802 6.02539,-6.02539 l 0,-28.27539 -0.30078,0.008 0,-0.008 0.30078,0 -8.30078,-8.30078 -28.27539,0 z"
         style="fill:#000000;fill-opacity:0.15686275;stroke:none"
         inkscape:connector-curvature="0" />
      <path
         id="rect5237-5"
         d="m 464.93945,608.50507 c -3.29036,0 -5.93945,2.64909 -5.93945,5.93945 l 0,30.1211 c 0,3.29036 2.64909,5.93945 5.93945,5.93945 l 30.1211,0 c 3.29036,0 5.93945,-2.64909 5.93945,-5.93945 l 0,-28.06055 -8,0 0,-7.90234 0,-0.084 0,-0.0137 -28.06055,0 z"
         style="fill:url(#linearGradient7270);fill-opacity:1;stroke:none"
         inkscape:connector-curvature="0" />
      <path
         id="rect5265-5"
         d="m 459,642.06762 0,2.5 c 0,3.2904 2.64714,5.9375 5.9375,5.9375 l 30.125,0 c 3.29036,0 5.9375,-2.6471 5.9375,-5.9375 l 0,-2.5 c 0,3.2904 -2.64714,5.9375 -5.9375,5.9375 l -30.125,0 c -3.29036,0 -5.9375,-2.6471 -5.9375,-5.9375 z"
         style="fill:#000000;fill-opacity:0.11764706;stroke:none"
         inkscape:connector-curvature="0" />
      <path
         id="path5252-3"
         d="m 459,644.06762 0,0.5 c 0,3.2904 2.64714,5.9375 5.9375,5.9375 l 30.125,0 c 3.29036,0 5.9375,-2.6471 5.9375,-5.9375 l 0,-0.5 c 0,3.2904 -2.64714,5.9375 -5.9375,5.9375 l -30.125,0 c -3.29036,0 -5.9375,-2.6471 -5.9375,-5.9375 z"
         style="fill:#000000;fill-opacity:0.09803922;stroke:none"
         inkscape:connector-curvature="0" />
      <path
         inkscape:connector-curvature="0"
         id="path906-5"
         d=""
         style="fill:#000000" />
      <path
         sodipodi:nodetypes="cccc"
         inkscape:connector-curvature="0"
         id="rect4179"
         d="m 501,616.50507 -8,-8 0,8 z"
         style="opacity:0.74599998;fill:#fcfdfe;fill-opacity:1;stroke:none" />
    </g>
    <path
       style="fill:#000000"
       d=""
       id="path906"
       inkscape:connector-curvature="0" />
    <path
       style="fill:#ffffff;fill-opacity:0.49803922"
       d="m 493.1512,542.21929 -0.55275,1.41842 2.92736,1.67096 -2.90195,1.58997 0.55276,1.4184 4.24412,-2.3079 0,-1.36917 -4.26954,-2.42068 z m 17.85644,4.85723 c -0.10744,-0.008 -0.21623,0.0144 -0.31926,0.0429 a 8.2624482,18.909363 27.49713 0 1 -2.91625,7.18737 8.2624482,18.909363 27.49713 0 1 -5.54181,8.07526 c 0.1121,0.074 0.22115,0.17059 0.38438,0.33991 0.26696,0.27691 0.34435,0.37962 0.62582,0.83389 0.35255,0.56895 0.4925,0.83485 0.62423,1.17699 0.0479,0.12442 0.17359,0.40485 0.27796,0.62265 0.10437,0.21777 0.24054,0.532 0.30338,0.69888 0.0629,0.16712 0.16996,0.42886 0.23825,0.58134 0.0683,0.15239 0.20575,0.48077 0.30497,0.72906 0.0992,0.24811 0.22254,0.54157 0.2732,0.65282 0.0654,0.14354 0.10588,0.20172 0.13978,0.20172 0.0613,-2.4e-4 0.44883,-0.0929 0.65758,-0.15724 0.15714,-0.048 0.63963,-0.28321 1.04038,-0.50669 0.1089,-0.061 0.31566,-0.20452 0.46063,-0.31927 0.30212,-0.23933 1.12512,-0.97302 1.21034,-1.0785 0.0315,-0.0399 0.21854,-0.24707 0.41456,-0.4638 0.19601,-0.21673 0.50468,-0.56478 0.68617,-0.77354 0.1815,-0.20876 0.4195,-0.48249 0.52893,-0.60675 0.10942,-0.12436 0.31875,-0.36736 0.46539,-0.54164 0.36402,-0.43249 1.15223,-1.20399 1.47242,-1.44065 0.58376,-0.43119 0.96381,-0.62023 1.43271,-0.71001 0.34948,-0.0667 0.63608,-0.0415 1.0372,0.0953 0.32704,0.11077 0.42643,0.15882 0.67347,0.32562 0.10164,0.0683 0.21681,0.1454 0.25732,0.16996 0.19291,0.1167 0.79019,0.62634 1.20716,1.03085 0.9095,0.88245 1.81469,1.64165 1.87904,1.57725 0.0279,-0.0285 -0.0701,-0.27092 -0.36215,-0.90379 -0.0971,-0.21054 -0.22822,-0.51921 -0.29067,-0.68617 -0.0625,-0.16704 -0.19902,-0.50615 -0.30338,-0.75289 -0.10436,-0.2469 -0.24077,-0.59139 -0.30338,-0.76558 -0.0625,-0.17421 -0.19767,-0.51878 -0.30179,-0.76559 -0.10412,-0.24675 -0.25303,-0.6147 -0.33038,-0.81801 -0.0773,-0.20323 -0.22445,-0.58364 -0.32562,-0.84502 -0.21141,-0.54617 -0.68732,-1.90896 -1.41841,-4.06463 -0.72823,-2.14745 -1.08177,-3.14784 -1.49783,-4.22506 -0.35407,-0.91669 -1.01488,-2.27492 -1.36917,-2.81459 -0.24901,-0.37938 -0.73203,-0.88175 -0.96891,-1.00861 -0.10064,-0.0537 -0.22069,-0.086 -0.34626,-0.0937 z m -1.28023,0.84978 c -0.18965,0.26089 -0.40989,0.596 -0.67664,1.04832 -0.14983,0.25414 -0.35594,0.59309 -0.45904,0.75289 -0.10309,0.15956 -0.22192,0.34911 -0.26367,0.42092 -0.16907,0.29065 -0.7288,1.05481 -1.17063,1.5979 -0.37404,0.45964 -1.08377,1.11875 -1.3517,1.25481 -0.0508,0.026 -0.14047,0.0787 -0.19854,0.11754 -0.13029,0.0876 -0.37095,0.18407 -0.69412,0.27637 -0.27325,0.0781 -0.7858,0.33016 -1.00544,0.49557 -0.37584,0.28319 -1.21744,1.18944 -1.56772,1.68845 -0.0545,0.0773 -0.13809,0.18318 -0.18584,0.23508 -0.0477,0.0529 -0.10975,0.12578 -0.13818,0.1636 -0.0319,0.0423 -0.13825,0.10263 -0.27638,0.15884 -0.12342,0.0504 -0.33154,0.13921 -0.46222,0.19695 -0.13068,0.0569 -0.49155,0.20257 -0.80371,0.32244 -0.31217,0.11996 -0.69255,0.27625 -0.84501,0.34627 -0.15245,0.0699 -0.37306,0.16204 -0.48922,0.2049 -0.3228,0.11897 -1.01102,0.39652 -1.11821,0.45109 -0.0525,0.0268 -0.46479,0.19394 -0.9149,0.37009 -0.45011,0.17631 -0.90766,0.36048 -1.01656,0.41139 -0.10889,0.0512 -0.34041,0.14966 -0.51463,0.2192 -0.41844,0.16704 -0.42044,0.18444 -0.0778,0.40979 0.1193,0.0781 0.53692,0.37978 0.94667,0.68141 0.0855,0.0634 0.23443,0.16778 0.33038,0.23349 0.096,0.0659 0.28615,0.2034 0.42409,0.30497 0.13794,0.10141 0.30092,0.21604 0.36215,0.25573 0.10118,0.0659 0.51816,0.36416 0.91649,0.65758 0.0855,0.0634 0.23443,0.16778 0.33038,0.23349 0.16259,0.1115 0.51866,0.36784 0.88472,0.63694 0.2971,0.21852 0.59911,0.41933 0.63217,0.41933 0.0339,0 0.45953,-0.16653 0.54005,-0.21126 0.10015,-0.0553 0.31841,-0.11055 0.49239,-0.12389 0.0281,0 0.0597,0.008 0.0858,0.008 0.36392,-0.32155 0.72353,-0.6475 1.0658,-0.99273 0.42383,-0.42752 0.83221,-0.87108 1.22304,-1.33105 0.39082,-0.46005 0.76496,-0.93625 1.12298,-1.42477 0.35802,-0.48827 0.69907,-0.99 1.0245,-1.50259 0.32543,-0.51267 0.63455,-1.03505 0.9276,-1.56772 0.5861,-1.06535 1.10832,-2.1672 1.56613,-3.28792 0.45782,-1.12065 0.85215,-2.2612 1.18334,-3.40388 0.0706,-0.2434 0.10669,-0.48406 0.17154,-0.72747 z m -12.30667,1.45812 0,1.16587 5.64188,0 0,-1.16587 -5.64188,0 z"
       id="path4722-0"
       inkscape:connector-curvature="0" />
    <path
       inkscape:connector-curvature="0"
       id="path906-4"
       d=""
       style="font-style:normal;font-variant:normal;font-weight:bold;font-stretch:normal;font-size:7.5px;line-height:125%;font-family:Impact;-inkscape-font-specification:'Impact Bold';letter-spacing:0px;word-spacing:0px;fill:#000000;fill-opacity:1;stroke:none" />
    <path
       inkscape:connector-curvature="0"
       id="path906-0"
       d=""
       style="font-style:normal;font-variant:normal;font-weight:bold;font-stretch:normal;font-size:7.5px;line-height:125%;font-family:Impact;-inkscape-font-specification:'Impact Bold';letter-spacing:0px;word-spacing:0px;fill:#000000;fill-opacity:1;stroke:none" />
    <path
       style="fill:#000000"
       d=""
       id="path906-9"
       inkscape:connector-curvature="0" />
  </g>
</svg>
