<?xml version="1.0" encoding="UTF-8" standalone="no"?>
<!-- Created with Inkscape (http://www.inkscape.org/) -->

<svg
   xmlns:dc="http://purl.org/dc/elements/1.1/"
   xmlns:cc="http://creativecommons.org/ns#"
   xmlns:rdf="http://www.w3.org/1999/02/22-rdf-syntax-ns#"
   xmlns:svg="http://www.w3.org/2000/svg"
   xmlns="http://www.w3.org/2000/svg"
   xmlns:xlink="http://www.w3.org/1999/xlink"
   xmlns:sodipodi="http://sodipodi.sourceforge.net/DTD/sodipodi-0.dtd"
   xmlns:inkscape="http://www.inkscape.org/namespaces/inkscape"
   width="48"
   height="48"
   id="svg2"
   version="1.1"
   inkscape:version="0.48+devel r12859"
   sodipodi:docname="video-quicktime.svg">
  <defs
     id="defs4">
    <linearGradient
       id="linearGradient4128">
      <stop
         id="stop4130"
         offset="0"
         style="stop-color:#007df6;stop-opacity:1" />
      <stop
         id="stop4132"
         offset="1"
         style="stop-color:#2eb2f1;stop-opacity:1" />
    </linearGradient>
    <linearGradient
       gradientUnits="userSpaceOnUse"
       y2="1007.4111"
       x2="25.388002"
       y1="1049.5046"
       x1="25.388002"
       id="linearGradient7270"
       xlink:href="#linearGradient4128"
       inkscape:collect="always"
       gradientTransform="translate(481.71429,-473.1429)" />
  </defs>
  <sodipodi:namedview
     id="base"
     pagecolor="#ffffff"
     bordercolor="#666666"
     borderopacity="1.0"
     inkscape:pageopacity="0.0"
     inkscape:pageshadow="2"
     inkscape:zoom="7.8437497"
     inkscape:cx="22.679848"
     inkscape:cy="22.639497"
     inkscape:document-units="px"
     inkscape:current-layer="layer1"
     showgrid="false"
     inkscape:window-width="1366"
     inkscape:window-height="673"
     inkscape:window-x="0"
     inkscape:window-y="24"
     inkscape:window-maximized="1"
     showguides="true"
     inkscape:guide-bbox="true">
    <inkscape:grid
       type="xygrid"
       id="grid3031" />
  </sodipodi:namedview>
  <metadata
     id="metadata7">
    <rdf:RDF>
      <cc:Work
         rdf:about="">
        <dc:format>image/svg+xml</dc:format>
        <dc:type
           rdf:resource="http://purl.org/dc/dcmitype/StillImage" />
        <dc:title />
      </cc:Work>
    </rdf:RDF>
  </metadata>
  <g
     inkscape:label="Capa 1"
     inkscape:groupmode="layer"
     id="layer1"
     transform="translate(0,-1004.3622)">
    <g
       transform="translate(-284.57143,490.28573)"
       id="layer1-7"
       inkscape:label="Capa 1">
      <g
         inkscape:label="Capa 1"
         id="layer1-3"
         transform="translate(-197.14286,-17.14283)">
        <path
           inkscape:connector-curvature="0"
           style="fill:#000000;fill-opacity:0.01960784;stroke:none"
           d="m 489.79241,533.02008 c -3.47838,0 -6.27734,2.79896 -6.27734,6.27734 l 0,31.84375 c 0,3.47838 2.79896,6.27735 6.27734,6.27735 l 31.84375,0 c 3.47839,0 6.27735,-2.79897 6.27735,-6.27735 l 0,-28.92187 -1.19922,0.008 0,-0.008 1.19922,0 -9.19922,-9.19922 -28.92188,0 z"
           id="rect5263" />
        <path
           inkscape:connector-curvature="0"
           style="fill:#000000;fill-opacity:0.03921569;stroke:none"
           d="m 490.00726,533.31891 c -3.43138,0 -6.19336,2.76394 -6.19336,6.19531 l 0,31.41211 c 0,3.43138 2.76198,6.19336 6.19336,6.19336 l 31.41406,0 c 3.43138,0 6.19336,-2.76198 6.19336,-6.19336 l 0,-28.70703 -0.90039,0.008 0,-0.008 0.90039,0 -8.90039,-8.90039 -28.70703,0 z"
           id="rect5261" />
        <path
           inkscape:connector-curvature="0"
           style="fill:#000000;fill-opacity:0.07843137;stroke:none"
           d="m 490.22406,533.61969 c -3.38437,0 -6.10938,2.72501 -6.10938,6.10938 l 0,30.98242 c 0,3.38437 2.72501,6.10742 6.10938,6.10742 l 30.98046,0 c 3.38437,0 6.10938,-2.72305 6.10938,-6.10742 l 0,-28.49219 -0.59961,0.008 0,-0.008 0.59961,0 -8.59961,-8.59961 -28.49023,0 z"
           id="rect5259" />
        <path
           inkscape:connector-curvature="0"
           style="fill:#000000;fill-opacity:0.15686275;stroke:none"
           d="m 490.4389,533.91852 c -3.33737,0 -6.02539,2.68802 -6.02539,6.02539 l 0,30.55078 c 0,3.33737 2.68802,6.02539 6.02539,6.02539 l 30.55078,0 c 3.33737,0 6.02539,-2.68802 6.02539,-6.02539 l 0,-28.27539 -0.30078,0.008 0,-0.008 0.30078,0 -8.30078,-8.30078 -28.27539,0 z"
           id="rect5257" />
        <path
           inkscape:connector-curvature="0"
           style="fill:url(#linearGradient7270);fill-opacity:1;stroke:none"
           d="m 490.65374,534.2193 c -3.29036,0 -5.93945,2.64909 -5.93945,5.93945 l 0,30.1211 c 0,3.29036 2.64909,5.93945 5.93945,5.93945 l 30.1211,0 c 3.29036,0 5.93945,-2.64909 5.93945,-5.93945 l 0,-28.06055 -8,0 0,-7.90234 0,-0.084 0,-0.0137 -28.06055,0 z"
           id="rect5237" />
        <path
           inkscape:connector-curvature="0"
           style="fill:#000000;fill-opacity:0.11764706;stroke:none"
           d="m 484.71429,567.78185 0,2.5 c 0,3.2904 2.64714,5.9375 5.9375,5.9375 l 30.125,0 c 3.29036,0 5.9375,-2.6471 5.9375,-5.9375 l 0,-2.5 c 0,3.2904 -2.64714,5.9375 -5.9375,5.9375 l -30.125,0 c -3.29036,0 -5.9375,-2.6471 -5.9375,-5.9375 z"
           id="rect5265" />
        <path
           inkscape:connector-curvature="0"
           style="fill:#000000;fill-opacity:0.09803922;stroke:none"
           d="m 484.71429,569.78185 0,0.5 c 0,3.2904 2.64714,5.9375 5.9375,5.9375 l 30.125,0 c 3.29036,0 5.9375,-2.6471 5.9375,-5.9375 l 0,-0.5 c 0,3.2904 -2.64714,5.9375 -5.9375,5.9375 l -30.125,0 c -3.29036,0 -5.9375,-2.6471 -5.9375,-5.9375 z"
           id="path5252" />
        <path
           style="fill:#000000"
           d=""
           id="path906"
           inkscape:connector-curvature="0" />
        <path
           style="opacity:0.74599998;fill:#fcfdfe;fill-opacity:1;stroke:none"
           d="m 526.71429,542.2193 -8,-8 0,8 z"
           id="rect4179"
           inkscape:connector-curvature="0"
           sodipodi:nodetypes="cccc" />
      </g>
    </g>
    <path
       style="fill:#ffffff;fill-opacity:0.49803922;stroke:none"
       d="m 23.984433,1015.3622 c -7.179591,0 -12.984461,5.8047 -12.984461,12.9844 0,7.1794 5.804871,13.0156 12.984461,13.0156 2.491534,0 4.84112,-0.7155 6.819178,-1.9306 l 1.899407,1.9306 0.03114,0 3.829948,-0.436 0.435928,-3.8611 -1.899405,-1.8993 c 1.216813,-1.9779 1.899405,-4.3265 1.899405,-6.8192 -1.25e-4,-7.1884 -5.836004,-12.9844 -13.015597,-12.9844 z m 0,4.5461 c 2.117187,0 4.060528,0.7987 5.542528,2.0861 l -4.795221,4.1415 c -0.229402,-0.074 -0.49287,-0.1247 -0.747307,-0.1247 -1.295563,0 -2.335335,1.0399 -2.335335,2.3354 0,1.2955 1.039772,2.3355 2.335335,2.3355 1.295565,0 2.366473,-1.04 2.366473,-2.3355 0,-0.1099 -0.01651,-0.2056 -0.03114,-0.3114 l 4.826358,-4.1725 c 0.817163,1.299 1.307787,2.8359 1.307787,4.4839 0,4.6601 -3.809174,8.4384 -8.469481,8.4384 -4.660306,0 -8.438343,-3.7783 -8.438343,-8.4384 2e-6,-4.6603 3.778034,-8.4383 8.438341,-8.4383 z m 7.473072,0.436 1.619165,1.8682 -1.899405,1.6192 c -0.443256,-0.7034 -0.994736,-1.3246 -1.619167,-1.8683 l 1.899407,-1.6191 z m -7.473072,7.037 c 0.532145,0 0.965271,0.433 0.965271,0.9653 0,0.5322 -0.433126,0.9653 -0.965271,0.9653 -0.532143,0 -0.934134,-0.4331 -0.934134,-0.9653 2e-6,-0.5323 0.401992,-0.9653 0.934134,-0.9653 z"
       id="path917"
       inkscape:connector-curvature="0" />
  </g>
</svg>
