<?xml version="1.0" encoding="UTF-8" standalone="no"?>
<!-- Created with Inkscape (http://www.inkscape.org/) -->

<svg
   xmlns:dc="http://purl.org/dc/elements/1.1/"
   xmlns:cc="http://creativecommons.org/ns#"
   xmlns:rdf="http://www.w3.org/1999/02/22-rdf-syntax-ns#"
   xmlns:svg="http://www.w3.org/2000/svg"
   xmlns="http://www.w3.org/2000/svg"
   xmlns:xlink="http://www.w3.org/1999/xlink"
   xmlns:sodipodi="http://sodipodi.sourceforge.net/DTD/sodipodi-0.dtd"
   xmlns:inkscape="http://www.inkscape.org/namespaces/inkscape"
   width="48"
   height="48"
   id="svg6389"
   version="1.1"
   inkscape:version="0.48+devel r12859"
   sodipodi:docname="application-vnd.oasis.opendocument.presentation-template.svg">
  <defs
     id="defs6391">
    <linearGradient
       inkscape:collect="always"
       id="linearGradient4135">
      <stop
         style="stop-color:#d86000;stop-opacity:1"
         offset="0"
         id="stop4137" />
      <stop
         style="stop-color:#f99f02;stop-opacity:1"
         offset="1"
         id="stop4139" />
    </linearGradient>
    <linearGradient
       gradientUnits="userSpaceOnUse"
       y2="1007.4111"
       x2="25.388002"
       y1="1049.5046"
       x1="25.388002"
       id="linearGradient7270"
       xlink:href="#linearGradient4135"
       inkscape:collect="always"
       gradientTransform="translate(327.53309,-703.30985)" />
  </defs>
  <sodipodi:namedview
     id="base"
     pagecolor="#ffffff"
     bordercolor="#666666"
     borderopacity="1.0"
     inkscape:pageopacity="0.0"
     inkscape:pageshadow="2"
     inkscape:zoom="3.959798"
     inkscape:cx="66.970064"
     inkscape:cy="-0.66004686"
     inkscape:document-units="px"
     inkscape:current-layer="layer1"
     showgrid="false"
     fit-margin-top="0"
     fit-margin-left="0"
     fit-margin-right="0"
     fit-margin-bottom="0"
     inkscape:window-width="1366"
     inkscape:window-height="673"
     inkscape:window-x="0"
     inkscape:window-y="27"
     inkscape:window-maximized="1" />
  <metadata
     id="metadata6394">
    <rdf:RDF>
      <cc:Work
         rdf:about="">
        <dc:format>image/svg+xml</dc:format>
        <dc:type
           rdf:resource="http://purl.org/dc/dcmitype/StillImage" />
        <dc:title />
      </cc:Work>
    </rdf:RDF>
  </metadata>
  <g
     inkscape:label="Capa 1"
     inkscape:groupmode="layer"
     id="layer1"
     transform="translate(-327.53309,-301.05235)">
    <path
       inkscape:connector-curvature="0"
       style="fill:#000000;fill-opacity:0.01960784;stroke:none"
       d="m 335.61121,302.85315 c -3.47838,0 -6.27734,2.7989 -6.27734,6.2773 l 0,31.8438 c 0,3.4784 2.79896,6.2773 6.27734,6.2773 l 31.84375,0 c 3.47839,0 6.27735,-2.799 6.27735,-6.2773 l 0,-28.9219 -1.19922,0.01 0,-0.01 1.19922,0 -9.19922,-9.1992 -28.92188,0 z"
       id="rect5263" />
    <path
       inkscape:connector-curvature="0"
       style="fill:#000000;fill-opacity:0.03921569;stroke:none"
       d="m 335.82606,303.15195 c -3.43138,0 -6.19336,2.764 -6.19336,6.1953 l 0,31.4121 c 0,3.4314 2.76198,6.1934 6.19336,6.1934 l 31.41406,0 c 3.43138,0 6.19336,-2.762 6.19336,-6.1934 l 0,-28.707 -0.90039,0.01 0,-0.01 0.90039,0 -8.90039,-8.9004 -28.70703,0 z"
       id="rect5261" />
    <path
       inkscape:connector-curvature="0"
       style="fill:#000000;fill-opacity:0.07843137;stroke:none"
       d="m 336.04286,303.45275 c -3.38437,0 -6.10938,2.725 -6.10938,6.1094 l 0,30.9824 c 0,3.3844 2.72501,6.1074 6.10938,6.1074 l 30.98046,0 c 3.38437,0 6.10938,-2.723 6.10938,-6.1074 l 0,-28.4922 -0.59961,0.01 0,-0.01 0.59961,0 -8.59961,-8.5996 -28.49023,0 z"
       id="rect5259" />
    <path
       inkscape:connector-curvature="0"
       style="fill:#000000;fill-opacity:0.15686275;stroke:none"
       d="m 336.2577,303.75155 c -3.33737,0 -6.02539,2.688 -6.02539,6.0254 l 0,30.5508 c 0,3.3374 2.68802,6.0254 6.02539,6.0254 l 30.55078,0 c 3.33737,0 6.02539,-2.688 6.02539,-6.0254 l 0,-28.2754 -0.30078,0.01 0,-0.01 0.30078,0 -8.30078,-8.3008 -28.27539,0 z"
       id="rect5257" />
    <path
       inkscape:connector-curvature="0"
       style="fill:url(#linearGradient7270);fill-opacity:1;stroke:none"
       d="m 336.47254,304.05235 c -3.29036,0 -5.93945,2.6491 -5.93945,5.9394 l 0,30.1212 c 0,3.2903 2.64909,5.9394 5.93945,5.9394 l 30.1211,0 c 3.29036,0 5.93945,-2.6491 5.93945,-5.9394 l 0,-28.0606 -8,0 0,-7.9023 0,-0.084 0,-0.014 -28.06055,0 z"
       id="rect5237" />
    <path
       inkscape:connector-curvature="0"
       style="fill:#000000;fill-opacity:0.11764706;stroke:none"
       d="m 330.53309,337.61495 0,2.5 c 0,3.2904 2.64714,5.9375 5.9375,5.9375 l 30.125,0 c 3.29036,0 5.9375,-2.6471 5.9375,-5.9375 l 0,-2.5 c 0,3.2904 -2.64714,5.9375 -5.9375,5.9375 l -30.125,0 c -3.29036,0 -5.9375,-2.6471 -5.9375,-5.9375 z"
       id="rect5265" />
    <path
       inkscape:connector-curvature="0"
       style="fill:#000000;fill-opacity:0.09803922;stroke:none"
       d="m 330.53309,339.61495 0,0.5 c 0,3.2904 2.64714,5.9375 5.9375,5.9375 l 30.125,0 c 3.29036,0 5.9375,-2.6471 5.9375,-5.9375 l 0,-0.5 c 0,3.2904 -2.64714,5.9375 -5.9375,5.9375 l -30.125,0 c -3.29036,0 -5.9375,-2.6471 -5.9375,-5.9375 z"
       id="path5252" />
    <path
       style="opacity:0.74599998;fill:#fcfdfe;fill-opacity:1;stroke:none"
       d="m 372.53309,312.05235 -8,-8 0,8 z"
       id="rect4179"
       inkscape:connector-curvature="0"
       sodipodi:nodetypes="cccc" />
    <path
       style="fill:#000000"
       d=""
       id="path906"
       inkscape:connector-curvature="0" />
    <path
       inkscape:connector-curvature="0"
       id="path572"
       style="fill:#f9f9f9;fill-opacity:0.49803922;fill-rule:nonzero;stroke:none"
       d="m 349.55947,320.78981 7.33247,4.72858 c 0.61755,0.39957 1.43936,0.23299 1.85636,-0.37148 l 7.54236,-10.9469 c 0.42902,-0.62321 0.27299,-1.47573 -0.34549,-1.90435 -0.62128,-0.4295 -1.47003,-0.27602 -1.89905,0.34717 l -6.79202,9.85857 -7.37333,-4.75852 c -0.30647,-0.19649 -0.67787,-0.26294 -1.03265,-0.18434 -0.35378,0.0786 -0.66205,0.29665 -0.85807,0.60176 l -11.24385,17.78745 c -0.40489,0.64198 -0.21543,1.48512 0.42069,1.89031 0.2275,0.14507 0.47913,0.21429 0.72896,0.21429 0.45224,0 0.89333,-0.22647 1.15149,-0.63728 l 10.51213,-16.62526 z m 14.69652,6.66659 -6.69543,6.07326 -7.86923,-6.13688 c -0.14948,-0.11793 -0.32407,-0.20306 -0.50982,-0.248 l -1.04655,-0.26294 -1.53969,2.4368 1.65019,0.41082 8.54434,6.66559 c 0.24887,0.19091 0.54329,0.28826 0.8367,0.28826 0.32965,0 0.65651,-0.11793 0.91467,-0.35372 l 7.54238,-6.84157 c 0.55811,-0.50817 0.60266,-1.3728 0.0994,-1.93244 -0.50697,-0.56147 -1.36879,-0.60449 -1.92689,-0.0992 z m -26.68797,-0.39301 2.04301,0.51092 1.54246,-2.4368 -2.92796,-0.72803 c -0.73176,-0.18526 -1.47007,0.26202 -1.65021,0.99757 -0.18292,0.73081 0.26095,1.47479 0.9927,1.65634" />
  </g>
</svg>
