<?xml version="1.0" encoding="UTF-8" standalone="no"?>
<svg
   xmlns:dc="http://purl.org/dc/elements/1.1/"
   xmlns:cc="http://creativecommons.org/ns#"
   xmlns:rdf="http://www.w3.org/1999/02/22-rdf-syntax-ns#"
   xmlns:svg="http://www.w3.org/2000/svg"
   xmlns="http://www.w3.org/2000/svg"
   height="100%"
   width="100%"
   version="1.1"
   id="svg2"
   viewBox="0 0 512 512">
  <metadata
     id="metadata508">
    <rdf:RDF>
      <cc:Work
         rdf:about="">
        <dc:format>image/svg+xml</dc:format>
        <dc:type
           rdf:resource="http://purl.org/dc/dcmitype/StillImage" />
        <dc:title />
      </cc:Work>
    </rdf:RDF>
  </metadata>
  <defs
     id="defs506" />
  <path
     id="rect2986"
     d="m 25.99999,-1e-5 c -14.39735,0 -26,11.60265 -26,26 l 0,460.00002 c 0,14.39735 11.60265,26 26,26 l 460.00002,0 c 14.39735,0 26,-11.60265 26,-26 l 0,-460.00002 c 0,-14.39735 -11.60265,-26 -26,-26 l -460.00002,0 z"
     style="fill:#6788cc;fill-opacity:1;stroke:none" />
  <path
     id="path3010"
     d="m 206.94922,56 215.56445,215.56445 c -2.8e-4,0.007 -0.002,0.0161 -0.002,0.0234 L 206.94141,56.01758 c -5.06302,0.0387 -11.29137,1.93745 -20.29883,5.02539 -24.28673,8.32999 -26.30624,10.79026 -25.92383,31.59375 0.3466,18.94873 -2.61103,24.57852 -20.94531,40.02539 -16.66142,14.03753 -22.17818,15.95602 -34.12891,11.74805 -14.48439,-5.10312 -27.8173,2.81012 -36.99805,21.95507 -9.70262,20.23004 -9.67486,26.47554 2.55664,38.70704 l 7.44922,7.44921 c 8.82584,9.78484 10.03182,17.68802 7.99414,38.71485 -1.79031,18.48468 -4.14682,22.97448 -17.3164,32.92578 -15.00573,11.32341 -16.30266,17.55646 -8.40235,40.5957 3.63766,10.60432 6.48967,17.07757 10.25196,20.83985 l 71.26367,71.26367 c -0.0695,5.98304 1.27127,10.04665 4.97266,13.74805 L 228.80664,512 486,512 c 14.39735,0 26,-11.60265 26,-26 L 512,231.24805 359.47461,78.72266 c -2.83646,-2.83647 -6.4661,-5.42331 -10.9043,-7.79492 -24.41993,-13.05214 -31.29806,-12.49958 -46.67187,3.87109 -11.501,12.25294 -16.05229,14.32159 -29.42383,13.47656 -14.36245,-0.91362 -23.35135,-1.7651 -29.0957,-2.98046 L 220.0918,62.00782 C 215.83893,57.75495 211.97233,55.96503 206.94922,56 Z"
     style="opacity:0.25;fill:#000000" />
  <path
     style="fill:#ffffff"
     id="path8"
     d="m 206.94122,56.01768 c -5.06302,0.0387 -11.29046,1.93641 -20.29792,5.02435 -24.28673,8.32999 -26.30621,10.79204 -25.9238,31.59554 0.3466,18.94872 -2.61244,24.57748 -20.94672,40.02435 -16.66142,14.03753 -22.17703,15.95675 -34.12776,11.74878 -14.48439,-5.10312 -27.81725,2.80865 -36.998,21.9536 -10.34518,21.56976 -9.62905,27.24148 5.14752,41.22172 13.24263,12.52078 15.21771,19.23518 12.85162,43.65082 -1.79032,18.48468 -4.14638,22.97337 -17.31596,32.92467 -15.00573,11.32341 -16.30335,17.55659 -8.40304,40.59583 7.90032,23.03065 12.10112,26.58121 29.94845,25.17617 18.76253,-1.47665 23.25695,0.61587 39.02893,18.45174 17.20137,19.45288 16.70009,18.22257 13.84704,36.16442 -3.50187,22.04383 -1.25895,25.86653 22.02664,37.32455 23.2412,11.44659 27.76712,10.8651 42.27443,-5.20337 11.8605,-13.14238 15.06159,-14.23375 38.29562,-12.91894 20.71184,1.16872 31.23604,5.43827 34.10056,13.80263 2.18704,6.36638 7.558,11.90062 16.07419,16.59984 5.52134,3.04354 8.06216,2.68547 27.05098,-3.82698 24.70067,-8.47036 28.30995,-12.34174 26.52537,-28.39875 -2.3661,-21.34346 -0.86653,-24.90262 17.14838,-40.72472 19.66486,-17.25867 21.38928,-17.99342 34.15067,-14.4801 19.69923,5.42682 28.80264,1.19736 38.62648,-17.85305 11.52964,-22.36752 11.52964,-33.19967 0.0731,-42.07248 -16.83472,-13.04069 -18.77685,-17.69121 -17.27299,-41.20023 1.4652,-22.87168 4.75508,-28.50474 21.94787,-37.67547 12.76712,-6.80894 13.79691,-12.37038 6.67431,-35.92094 -8.50474,-28.11373 -12.33602,-31.55257 -33.8986,-30.69895 -19.42997,0.77199 -22.4019,-0.68748 -38.2011,-18.64796 -14.90407,-16.95216 -17.55087,-23.36866 -14.09913,-34.3741 5.20337,-16.60556 -0.0902,-28.48897 -16.67862,-37.3532 C 324.14981,57.87532 317.27211,58.42817 301.8983,74.79884 290.3973,87.05177 285.84702,89.12138 272.47548,88.27635 244.78139,86.51468 237.02716,84.98646 234.10107,80.62811 221.99995,62.62467 216.61753,55.93318 206.94981,56.0005 m 47.39331,90.60441 c 16.18591,0 28.47752,12.5881 28.47752,28.47179 0,16.18591 -13.49471,29.67488 -29.67489,29.67488 -15.8837,0 -28.47751,-12.89028 -28.47751,-28.77398 0,-15.88371 13.79117,-29.37269 29.67488,-29.37269 m 7.50215,68.34577 18.5749,0 0,101.30336 c 0,17.0868 1.80751,20.08022 13.19823,22.77571 l 9.27672,2.09825 0,24.27529 -93.79836,0 0,-24.27529 9.57892,-2.09825 c 11.385,-2.40045 13.19823,-5.69035 13.19823,-22.77571 l 0,-43.16815 c 0,-18.28416 -3.58636,-23.3744 -16.47666,-24.57749 l -6.29905,-0.59868 0,-24.27528" />
</svg>
