<?xml version="1.0" encoding="UTF-8" standalone="no"?>
<svg
   xmlns:dc="http://purl.org/dc/elements/1.1/"
   xmlns:cc="http://creativecommons.org/ns#"
   xmlns:rdf="http://www.w3.org/1999/02/22-rdf-syntax-ns#"
   xmlns:svg="http://www.w3.org/2000/svg"
   xmlns="http://www.w3.org/2000/svg"
   height="100%"
   width="100%"
   version="1.1"
   id="svg2"
   viewBox="0 0 512 512">
  <metadata
     id="metadata508">
    <rdf:RDF>
      <cc:Work
         rdf:about="">
        <dc:format>image/svg+xml</dc:format>
        <dc:type
           rdf:resource="http://purl.org/dc/dcmitype/StillImage" />
        <dc:title />
      </cc:Work>
    </rdf:RDF>
  </metadata>
  <defs
     id="defs506" />
  <path
     style="fill:#66ae4a;fill-opacity:1;stroke:none"
     d="M 26,0 C 11.60264,0 0,11.60264 0,26 l 0,460 c 0,14.39735 11.60264,26 26,26 l 460,0 c 14.39736,0 26,-11.60265 26,-26 L 512,26 C 512,11.60264 500.39736,0 486,0 L 26,0 Z"
     id="rect2986" />
  <path
     id="path3208"
     d="M 118.12695,56 C 104.32111,56 93.12696,67.18162 93.12696,81 l 0,350 c 0,6.90762 2.7959,13.15723 7.31835,17.67969 L 163.76562,512 486,512 c 14.39736,0 26,-11.60265 26,-26 L 512,237.97656 330.02344,56 l 0,25.46093 L 304.5625,56 118.12695,56 Z"
     style="opacity:0.25;fill:#000000" />
  <path
     id="path188"
     d="M 118.12644,56 C 104.3206,56 93.12645,67.18162 93.12645,81 l 0,350 c 0,13.81837 11.19415,25 24.99999,25 l 275.74712,0 c 13.81838,0 25,-11.18163 25,-25 l 0,-256.86781 -101.81034,0 c -6.90918,0 -12.5,-5.59082 -12.5,-12.5 l 0,-105.63219 -186.43678,0 z m 211.89656,0 0,89.94253 88.85056,0 L 330.023,56 Z m -199.31036,74.28161 125.28736,0 0,28.18966 -125.28736,0 0,-28.18966 z m 0,78.30459 244.31036,0 0,28.16092 -244.31036,0 0,-28.16092 z m 0,78.27587 125.28736,0 0,28.18966 -125.28736,0 0,-28.18966 z m 166.00575,0 78.30461,0 0,106.49425 -78.30461,0 0,-106.49425 z m -166.00575,78.30459 125.28736,0 0,28.18966 -125.28736,0 0,-28.18966 z"
     style="fill:#ffffff" />
</svg>
