<?xml version="1.0" encoding="UTF-8" standalone="no"?>
<svg
   xmlns:dc="http://purl.org/dc/elements/1.1/"
   xmlns:cc="http://creativecommons.org/ns#"
   xmlns:rdf="http://www.w3.org/1999/02/22-rdf-syntax-ns#"
   xmlns:svg="http://www.w3.org/2000/svg"
   xmlns="http://www.w3.org/2000/svg"
   height="100%"
   width="100%"
   version="1.1"
   id="svg2"
   viewBox="0 0 512 512">
  <metadata
     id="metadata100">
    <rdf:RDF>
      <cc:Work
         rdf:about="">
        <dc:format>image/svg+xml</dc:format>
        <dc:type
           rdf:resource="http://purl.org/dc/dcmitype/StillImage" />
        <dc:title />
      </cc:Work>
    </rdf:RDF>
  </metadata>
  <defs
     id="defs98" />
  <path
     style="fill:#669966;fill-opacity:1;stroke:none"
     d="m 25.99999,-1e-5 c -14.39735,0 -26,11.60265 -26,26 l 0,460.00002 c 0,14.39735 11.60265,26.00001 26,26.00001 l 460.00002,0 c 14.39735,0 26.00001,-11.60266 26.00001,-26.00001 l 0,-460.00002 c 0,-14.39735 -11.60266,-26 -26.00001,-26 l -460.00002,0 z"
     id="rect2986" />
  <path
     id="path3065"
     d="m 140.56773,76.89368 c -12.35556,0 -22.38476,10.03435 -22.38476,22.38476 l 0,44.76953 22.38476,22.38477 -67.183589,0 c -12.350411,0 -22.384771,10.05852 -22.384771,22.41406 l 0,111.92188 c 0,6.18433 2.50587,11.77929 6.55469,15.82812 l 60.59961,60.59961 0,35.4961 c 0,6.18353 2.51348,11.78497 6.57031,15.84179 l 83.46485,83.46485 277.81054,0 c 14.39735,0 26,-11.60265 26,-26 l 0,-226.03516 -176.5,-176.5 c -4.05733,-4.05733 -9.66377,-6.57031 -15.85547,-6.57031 l -179.07617,0 z"
     style="opacity:0.25;fill:#000000" />
  <path
     id="path10"
     d="m 140.56772,76.89409 c -12.35556,0 -22.38457,10.03415 -22.38457,22.38456 l 0,44.76911 22.38457,0 0,-44.76911 179.07645,0 0,44.76911 22.41401,0 0,-44.76911 c 0,-12.35041 -10.03924,-22.38456 -22.41401,-22.38456 l -179.07645,0 z m -67.183139,89.53823 c -12.350411,0 -22.384551,10.05847 -22.384551,22.41401 l 0,111.9228 c 0,12.37477 10.03414,22.38456 22.384551,22.38456 l 44.769119,0 0,89.53823 c 0,12.37093 10.05846,22.414 22.41402,22.414 l 179.07645,0 c 12.37477,0 22.38456,-10.04436 22.38456,-22.414 l 0,-25.71279 c -7.27179,2.3774 -14.78184,4.02244 -22.38456,4.91871 l 0,20.79408 -179.07645,0 0,-156.6919 57.02171,0 c 11.42538,-47.69097 56.40116,-87.20169 106.53282,-87.12307 19.54346,-0.57907 39.20406,4.21224 56.25592,13.60746 22.27819,11.0534 39.056,30.3748 48.83369,52.89825 l 0,-46.53633 c 0,-12.35554 -10.01492,-22.41401 -22.38456,-22.41401 l -313.442719,0 z m 233.712449,22.00167 c -50.99979,0 -92.3363,41.33906 -92.3363,92.33629 0,50.99981 41.33907,92.36576 92.3363,92.36576 50.9998,0 92.33631,-41.36851 92.33631,-92.36576 0,-50.99979 -41.33907,-92.33629 -92.33631,-92.33629 z m 0,23.09144 c 38.19279,0 69.27431,31.04823 69.27431,69.24485 0.005,38.19278 -31.07768,69.27431 -69.27431,69.27431 -38.19275,0 -69.27431,-31.0777 -69.27431,-69.27431 0,-38.19277 31.0777,-69.24485 69.27431,-69.24485 z m -144.17422,66.85913 0,22.38457 33.87138,0 c -0.50583,-2.87121 -0.89836,-5.76722 -1.1487,-8.68875 -0.6193,-4.57772 -0.86818,-9.15022 -0.82469,-13.69582 l -31.89799,0 z m 0.0293,44.76913 0,22.38456 53.13389,0 c -5.05388,-6.97186 -9.32934,-14.47648 -12.66496,-22.38456 l -40.46893,0 z m 234.47831,16.11098 c -8.27168,12.71596 -19.13724,23.57258 -31.8391,31.8391 l 48.68642,58.40601 c 5.41139,6.49394 14.72355,6.92469 20.70572,0.94251 l 21.79548,-21.76603 c 5.98218,-5.98217 5.55016,-15.32377 -0.9425,-20.73517 l -58.40595,-48.68642 z m -234.47825,28.65813 0,22.38456 119.31558,0 C 265.83384,386.4982 250.41623,378.63377 237.26301,367.9228 l -74.31084,0 z"
     style="fill:#ffffff" />
</svg>
