<?xml version="1.0" encoding="UTF-8" standalone="no"?>
<svg
   xmlns:dc="http://purl.org/dc/elements/1.1/"
   xmlns:cc="http://creativecommons.org/ns#"
   xmlns:rdf="http://www.w3.org/1999/02/22-rdf-syntax-ns#"
   xmlns:svg="http://www.w3.org/2000/svg"
   xmlns="http://www.w3.org/2000/svg"
   height="100%"
   width="100%"
   version="1.1"
   id="svg2"
   viewBox="0 0 512 512">
  <metadata
     id="metadata100">
    <rdf:RDF>
      <cc:Work
         rdf:about="">
        <dc:format>image/svg+xml</dc:format>
        <dc:type
           rdf:resource="http://purl.org/dc/dcmitype/StillImage" />
        <dc:title />
      </cc:Work>
    </rdf:RDF>
  </metadata>
  <defs
     id="defs98" />
  <path
     style="fill:#e65177;fill-opacity:1;stroke:none"
     d="m 25.99986,-1.1e-4 c -14.39735,0 -26,11.60266 -26,26.00001 l 0,460.00002 c 0,14.39734 11.60265,26 26,26 l 460.00002,0 c 14.39735,0 26.00001,-11.60266 26.00001,-26 l 0,-460.00002 c 0,-14.39735 -11.60266,-26.00001 -26.00001,-26.00001 l -460.00002,0 z"
     id="rect2986" />
  <path
     id="path3047"
     d="m 156.00014,56.00011 c -13.79741,0 -25.00002,11.20832 -25,25 l 0,50 25,25 -75,0 c -13.79168,0 -25,11.2026 -25,25 l 0,125 c 0,6.90604 2.79819,13.15366 7.32031,17.67578 l 67.67969,67.67968 0,39.64454 c 0,6.90515 2.79942,13.15294 7.32226,17.67578 l 63.32422,63.32422 284.35352,0 c 14.39734,0 25.99999,-11.60266 26,-26 l 0,-284.35547 L 373.67592,63.32042 c -4.52212,-4.52211 -10.76974,-7.32031 -17.67578,-7.32031 l -200,0 z"
     style="opacity:0.25;fill:#000000" />
  <path
     id="path10"
     d="m 155.99987,55.9999 c -13.7974,0 -25,11.20832 -25,25 l 0,50 25,0 0,-50 200.00001,0 0,50 25,0 0,-50 c 0,-13.79168 -11.18111,-25 -25,-25 l -200.00001,0 z m -75.00001,100 c -13.79167,0 -25,11.2026 -25,25 l 0,125.00001 c 0,13.81888 11.20833,25 25,25 l 50.00001,0 0,100 c 0,13.81459 11.2026,25 25,25 l 200.00001,0 c 13.81889,0 25,-11.18684 25,-25 l 0,-100 50,0 c 13.81458,0 25,-11.18686 25,-25 l 0,-125.00001 c 0,-13.7974 -11.18684,-25 -25,-25 l -350.00002,0 z m 325.00002,25 c 13.81889,0 25,11.20833 25,25 0,13.8189 -11.18111,25 -25,25 -13.81888,0 -25,-11.1811 -25,-25 0,-13.79167 11.18112,-25 25,-25 z m -250.00001,75 200.00001,0 0,175.00001 -200.00001,0 0,-175.00001 z m 25.02873,25.00001 0,25 99.97127,0 0,-25 -99.97127,0 z m 0,50 0,25 150.00001,0 0,-25 -150.00001,0 z m 0,50 0,25 150.00001,0 0,-25 -150.00001,0 z"
     style="fill:#ffffff" />
</svg>
