<?xml version="1.0" encoding="UTF-8" standalone="no"?>
<svg
   xmlns:dc="http://purl.org/dc/elements/1.1/"
   xmlns:cc="http://creativecommons.org/ns#"
   xmlns:rdf="http://www.w3.org/1999/02/22-rdf-syntax-ns#"
   xmlns:svg="http://www.w3.org/2000/svg"
   xmlns="http://www.w3.org/2000/svg"
   height="100%"
   width="100%"
   version="1.1"
   id="svg2"
   viewBox="0 0 512 512">
  <metadata
     id="metadata100">
    <rdf:RDF>
      <cc:Work
         rdf:about="">
        <dc:format>image/svg+xml</dc:format>
        <dc:type
           rdf:resource="http://purl.org/dc/dcmitype/StillImage" />
        <dc:title />
      </cc:Work>
    </rdf:RDF>
  </metadata>
  <defs
     id="defs98" />
  <path
     id="rect2986"
     d="m 25.999731,-2e-4 c -14.397351,0 -26.000001,11.60265 -26.000001,26 l 0,460 c 0,14.39735 11.60265,26 26.000001,26 l 459.999999,0 c 14.39735,0 26,-11.60265 26,-26 l 0,-460 c 0,-14.39735 -11.60265,-26 -26,-26 l -459.999999,0 z"
     style="fill:#0078ad;fill-opacity:1;stroke:none" />
  <path
     id="path3376"
     d="m 222.12528,56.00021 c -11.47988,0 -9.46875,7.625 -9.46875,7.625 l 0,134.59375 0,21.84375 -50.125,0 c -13.33525,0 -3.38909,10.55426 -1.46289,12.48046 l 0.33398,0.33399 88.91016,107.4043 62.625,62.625 -104.75,0 -90.375,-90.375 -53.124999,0 0,116.9375 c 0,7.32168 2.96041,13.94869 7.75976,18.74804 l 63.783209,63.78321 349.76953,0 c 14.39735,0 26,-11.60265 26,-26 l 0,-214.84766 L 298.96121,58.11544 c -1.16669,-1.1667 -3.09208,-2.11523 -6.27343,-2.11523 l -70.5625,0 z"
     style="opacity:0.25;fill:#000000" />
  <path
     id="path188"
     d="m 222.12473,55.9998 c -11.47988,0 -9.46875,7.625 -9.46875,7.625 l 0,134.59375 0,21.84375 -50.125,0 c -14.67418,0 -1.15625,12.78125 -1.15625,12.78125 l 88.9375,107.4375 0.0312,0 c 0,0 7.26816,8.54315 14.875,0.90625 10.54643,-10.53694 86.1875,-110.96875 86.1875,-110.96875 0,0 13.4302,-13.40625 -4.375,-13.40625 l -46.28125,0 0,-19.53125 0,-134.875 c 0,0 0.20725,-6.40625 -8.0625,-6.40625 l -70.5625,0 z m -157.437499,256.53125 0,116.9375 c 0,14.65836 11.87052,26.53125 26.59375,26.53125 l 329.437499,0 c 14.71058,0 26.59375,-11.85865 26.59375,-26.53125 l 0,-116.9375 -53.125,0 0,90.375 -276.375,0 0,-90.375 -53.124999,0 z"
     style="fill:#ffffff" />
</svg>
