<?xml version="1.0" encoding="UTF-8" standalone="no"?>
<svg
   xmlns:dc="http://purl.org/dc/elements/1.1/"
   xmlns:cc="http://creativecommons.org/ns#"
   xmlns:rdf="http://www.w3.org/1999/02/22-rdf-syntax-ns#"
   xmlns:svg="http://www.w3.org/2000/svg"
   xmlns="http://www.w3.org/2000/svg"
   height="100%"
   width="100%"
   version="1.1"
   id="svg2"
   viewBox="0 0 512 512">
  <metadata
     id="metadata100">
    <rdf:RDF>
      <cc:Work
         rdf:about="">
        <dc:format>image/svg+xml</dc:format>
        <dc:type
           rdf:resource="http://purl.org/dc/dcmitype/StillImage" />
        <dc:title />
      </cc:Work>
    </rdf:RDF>
  </metadata>
  <defs
     id="defs98" />
  <path
     style="fill:#f38725;fill-opacity:1;stroke:none"
     d="m 25.999984,-8e-5 c -14.39736,0 -26,11.60265 -26,26 l 0,460.00002 c 0,14.39735 11.60264,26.00001 26,26.00001 l 460.000026,0 c 14.39735,0 26.00001,-11.60266 26.00001,-26.00001 l 0,-460.00002 c 0,-14.39735 -11.60266,-26 -26.00001,-26 l -460.000026,0 z"
     id="rect2986" />
  <path
     id="path3010"
     d="m 291.13466,63.63486 c -9.43401,-0.0537 -19.28656,0.604 -29.61328,2.00781 -50.9186,9.90241 -103.19323,41.60261 -136.75782,82.94531 C 63.035117,88.38438 91.625267,117.10789 66.706917,92.18954 l -10.5039,-10.50586 -0.20313,201.60156 228.714843,228.71485 201.28516,0 c 14.39735,0 26,-11.60265 26,-26 l 0,-267.82227 L 402.44325,108.62118 C 376.06264,82.24057 339.37213,63.89157 291.13661,63.63681 l -0.002,-0.002 z"
     style="opacity:0.25;fill:#000000" />
  <path
     style="fill:#ffffff"
     id="path8"
     d="m 291.13404,63.63458 c -9.43401,-0.0537 -19.28682,0.6034 -29.61356,2.00721 -50.9186,9.90241 -103.19282,41.60445 -136.75741,82.94715 C 56.166687,81.68706 99.104687,124.59888 56.203877,81.68292 l -0.20388,201.60251 201.754063,0 -68.19274,-68.19273 c 32.65399,-47.95947 131.93571,-124.42762 202.82861,-6.03265 22.64963,63.5639 21.50344,167.54748 -25.01777,239.30828 50.30556,-55.046 91.96788,-129.12535 88.41635,-217.63815 C 452.24248,161.07855 402.39429,64.21594 291.12027,63.63733" />
</svg>
