<?xml version="1.0" encoding="UTF-8" standalone="no"?>
<svg
   xmlns:dc="http://purl.org/dc/elements/1.1/"
   xmlns:cc="http://creativecommons.org/ns#"
   xmlns:rdf="http://www.w3.org/1999/02/22-rdf-syntax-ns#"
   xmlns:svg="http://www.w3.org/2000/svg"
   xmlns="http://www.w3.org/2000/svg"
   height="100%"
   width="100%"
   version="1.1"
   id="svg2"
   viewBox="0 0 512 512">
  <metadata
     id="metadata100">
    <rdf:RDF>
      <cc:Work
         rdf:about="">
        <dc:format>image/svg+xml</dc:format>
        <dc:type
           rdf:resource="http://purl.org/dc/dcmitype/StillImage" />
        <dc:title />
      </cc:Work>
    </rdf:RDF>
  </metadata>
  <defs
     id="defs98" />
  <path
     id="rect2986"
     d="m 25.99985,-1.8e-4 c -14.39736,0 -26,11.60265 -26,26 l 0,460.00002 c 0,14.39735 11.60264,26 26,26 l 460.00002,0 c 14.39735,0 26.00001,-11.60265 26.00001,-26 l 0,-460.00002 c 0,-14.39735 -11.60266,-26 -26.00001,-26 l -460.00002,0 z"
     style="fill:#66ae4a;fill-opacity:1;stroke:none" />
  <path
     id="path3131"
     d="m 220.86535,63.6349 0.002,0.002 C 109.60162,64.2223 59.756997,161.08149 56.211097,230.73066 c -3.551527,88.51278 38.11044,162.5907 88.416013,217.63671 l 63.63281,63.63282 277.74024,0 c 14.39735,0 26,-11.60265 26,-26 l 0,-348.11133 -56.20512,-56.20513 c -42.68983,42.70489 -0.56423,0.60272 -67.73633,66.10547 L 372.10559,131.83607 C 339.07197,98.80245 294.27329,74.15774 250.47864,65.64076 240.1519,64.23695 230.29936,63.5812 220.86535,63.6349 Z"
     style="opacity:0.25;fill:#000000" />
  <path
     style="fill:#ffffff"
     id="path8"
     d="m 220.86582,63.63447 c 9.43401,-0.0537 19.28683,0.6034 29.61356,2.00721 50.91861,9.90241 103.19282,41.60446 136.75741,82.94716 68.59638,-66.90189 25.65837,-23.99007 68.55919,-66.90602 l 0.20388,201.6025 -201.75405,0 68.19274,-68.19272 C 289.78456,167.13313 190.50283,90.66497 119.60993,209.05995 96.960297,272.62384 98.106487,376.60742 144.62771,448.36823 94.322137,393.32222 52.65982,319.24287 56.211347,230.73008 59.757377,161.07845 109.60557,64.21583 220.87959,63.63723" />
</svg>
