<?xml version="1.0" encoding="UTF-8" standalone="no"?>
<svg
   xmlns:dc="http://purl.org/dc/elements/1.1/"
   xmlns:cc="http://creativecommons.org/ns#"
   xmlns:rdf="http://www.w3.org/1999/02/22-rdf-syntax-ns#"
   xmlns:svg="http://www.w3.org/2000/svg"
   xmlns="http://www.w3.org/2000/svg"
   height="100%"
   width="100%"
   version="1.1"
   id="svg2"
   viewBox="0 0 512 512">
  <metadata
     id="metadata102">
    <rdf:RDF>
      <cc:Work
         rdf:about="">
        <dc:format>image/svg+xml</dc:format>
        <dc:type
           rdf:resource="http://purl.org/dc/dcmitype/StillImage" />
        <dc:title />
      </cc:Work>
    </rdf:RDF>
  </metadata>
  <defs
     id="defs100" />
  <path
     style="fill:#0078ad;fill-opacity:1;stroke:none"
     d="m 25.99975,-3.7e-4 c -14.39736,0 -26,11.60265 -26,26 l 0,460 c 0,14.39735 11.60264,26 26,26 l 460,0 c 14.39735,0 26,-11.60265 26,-26 l 0,-460 c 0,-14.39735 -11.60265,-26 -26,-26 l -460,0 z"
     id="rect2986" />
  <path
     id="path3497"
     d="m 200.75025,56.00036 c -43.37682,0.91421 -78.1875,36.09415 -78.1875,79.6875 0,22.04018 8.89974,41.94271 23.31055,56.35351 l 54.12695,54.12696 0,67.73828 0,1.53125 -15.03125,-15.03125 -7.53125,6.75 -81.1875,66.90625 -4.53125,3.75 134.1875,134.1875 260.09375,0 c 14.39735,0 26,-11.60265 26,-26 l 0,-254.15625 -175.84375,-175.84375 -4.53125,0 -130.84375,0 -0.0312,0 z"
     style="opacity:0.25;fill:#000000;stroke:none" />
  <path
     id="path3447"
     d="m 200.74975,55.99963 c -43.37682,0.91421 -78.1875,36.09415 -78.1875,79.6875 0,43.32871 34.39749,78.39555 77.4375,79.71875 l 0,98.5 0,5.28125 4.53125,0 25.5625,0 4.53125,0 0,-5.28125 0,-223.3125 15.78125,0 0,223.3125 0,5.28125 5.28125,0 24.78125,0 4.5,0 0,-5.28125 0,-223.3125 46.65625,0 4.53125,0 0,-4.5 0,-25.5625 0,-4.53125 -4.53125,0 -130.84375,0 -0.0312,0 z m -15.78125,244.40625 -7.53125,6.75 -81.1875,66.90625 -4.53125,3.75 4.53125,3.75 81.1875,67.6875 7.53125,6.75 0,-10.53125 0,-42.09375 230.78125,0 4.53125,0 0,-4.53125 0,-42.84375 0,-4.5 -4.53125,0 -230.78125,0 0,-40.625 0,-10.46875 z"
     style="fill:#ffffff;stroke:none" />
  <path
     id="path3688"
     d="m 285.8648,205.88437 c 0,-63.83728 0.27665,-89.95254 0.61478,-58.0339 0.33813,31.91865 0.33813,84.14916 0,116.0678 -0.33813,31.91864 -0.61478,5.80339 -0.61478,-58.0339 z"
     style="opacity:0.25;fill:#000000;fill-opacity:1;stroke:none;stroke-width:23;stroke-linecap:round;stroke-linejoin:round;stroke-miterlimit:4;stroke-dasharray:none;stroke-opacity:1" />
</svg>
