<?xml version="1.0" encoding="UTF-8" standalone="no"?>
<svg
   xmlns:dc="http://purl.org/dc/elements/1.1/"
   xmlns:cc="http://creativecommons.org/ns#"
   xmlns:rdf="http://www.w3.org/1999/02/22-rdf-syntax-ns#"
   xmlns:svg="http://www.w3.org/2000/svg"
   xmlns="http://www.w3.org/2000/svg"
   height="100%"
   width="100%"
   version="1.1"
   id="svg2"
   viewBox="0 0 512 512">
  <metadata
     id="metadata100">
    <rdf:RDF>
      <cc:Work
         rdf:about="">
        <dc:format>image/svg+xml</dc:format>
        <dc:type
           rdf:resource="http://purl.org/dc/dcmitype/StillImage" />
        <dc:title />
      </cc:Work>
    </rdf:RDF>
  </metadata>
  <defs
     id="defs98" />
  <path
     style="fill:#66ae4a;fill-opacity:1;stroke:none"
     d="M 26.000001,-4e-5 C 11.602641,-4e-5 0,11.60261 0,25.99996 l 0,460 c 0,14.39735 11.602641,26 26.000001,26 l 459.999999,0 c 14.39735,0 26,-11.60265 26,-26 l 0,-460 c 0,-14.39735 -11.60265,-26 -26,-26 l -459.999999,0 z"
     id="rect2986" />
  <path
     id="path4217"
     d="m 88.280641,56.00004 c -19.10345,0 -34.5,15.3653 -34.5,34.46875 0,9.55172 3.84887,18.17699 10.08594,24.41406 l 106.617189,106.61719 -82.203129,0 c -19.10345,0 -34.5,15.3653 -34.5,34.46875 0,9.55172 3.84887,18.17699 10.08594,24.41406 l 106.648439,106.64844 -82.234379,0 c -19.10345,0 -34.5,15.3653 -34.5,34.46875 0,9.55172 3.84887,18.17699 10.08594,24.41406 l 66.085939,66.08594 356.04687,0 c 14.39735,0 26,-11.60265 26,-26 l 0,-356.07813 -63.85156,-63.85156 C 441.91857,59.84109 433.30111,56.00004 423.74939,56.00004 l -335.468749,0 z"
     style="opacity:0.25;fill:#000000" />
  <path
     id="path4149"
     d="m 88.281251,55.99996 c -19.10345,0 -34.5,15.3653 -34.5,34.46875 0,19.10345 15.39655,34.5 34.5,34.5 l 335.468749,0 c 19.10345,0 34.46875,-15.39655 34.46875,-34.5 0,-19.10345 -15.3653,-34.46875 -34.46875,-34.46875 l -335.468749,0 z m 0,165.5 c -19.10345,0 -34.5,15.3653 -34.5,34.46875 0,19.10345 15.39655,34.5 34.5,34.5 l 335.468749,0 c 19.10345,0 34.46875,-15.39655 34.46875,-34.5 0,-19.10345 -15.3653,-34.46875 -34.46875,-34.46875 l -335.468749,0 z m 0,165.53125 c -19.10345,0 -34.5,15.3653 -34.5,34.46875 0,19.10345 15.39655,34.5 34.5,34.5 l 335.468749,0 c 19.10345,0 34.46875,-15.39655 34.46875,-34.5 0,-19.10345 -15.3653,-34.46875 -34.46875,-34.46875 l -335.468749,0 z"
     style="fill:#ffffff" />
</svg>
