<?xml version="1.0" encoding="UTF-8" standalone="no"?>
<svg
   xmlns:dc="http://purl.org/dc/elements/1.1/"
   xmlns:cc="http://creativecommons.org/ns#"
   xmlns:rdf="http://www.w3.org/1999/02/22-rdf-syntax-ns#"
   xmlns:svg="http://www.w3.org/2000/svg"
   xmlns="http://www.w3.org/2000/svg"
   height="100%"
   width="100%"
   version="1.1"
   id="svg2"
   viewBox="0 0 512 512">
  <metadata
     id="metadata100">
    <rdf:RDF>
      <cc:Work
         rdf:about="">
        <dc:format>image/svg+xml</dc:format>
        <dc:type
           rdf:resource="http://purl.org/dc/dcmitype/StillImage" />
        <dc:title />
      </cc:Work>
    </rdf:RDF>
  </metadata>
  <defs
     id="defs98" />
  <path
     id="rect2986-1"
     d="M 26,0 C 11.60264,0 0,11.60265 0,26 l 0,460 c 0,14.39735 11.60264,26 26,26 l 460,0 c 14.3974,0 26,-11.60265 26,-26 L 512,26 C 512,11.60265 500.3974,0 486,0 L 26,0 Z"
     style="fill:#66ae4a;fill-opacity:1;stroke:none" />
  <path
     id="path3226"
     d="m 88.28056,55.99978 c -19.10345,0 -34.5,15.3653 -34.5,34.46875 0,9.55172 3.84887,18.17699 10.08594,24.41406 l 106.61719,106.61719 -15.98438,0 c -16.47101,0 -29.71875,13.27899 -29.71875,29.75 l 0,9.5 c 0,8.12269 3.22348,15.46181 8.46485,20.81445 l 105.46679,105.4668 -150.43164,0 c -19.10345,0 -34.5,15.3653 -34.5,34.46875 0,9.55172 3.84887,18.17699 10.08594,24.41406 l 66.08594,66.08594 356.04686,0 c 14.3974,0 26,-11.60265 26,-26 l 0,-356.07812 -63.8515,-63.85157 C 441.9184,59.84084 433.301,55.99978 423.7493,55.99978 l -335.46874,0 z"
     style="opacity:0.25;fill:#000000" />
  <path
     id="rect94"
     d="m 88.28125,56 c -19.10345,0 -34.5,15.3653 -34.5,34.46875 0,19.10345 15.39655,34.5 34.5,34.5 l 335.46875,0 c 19.1035,0 34.4688,-15.39655 34.4688,-34.5 C 458.2188,71.3653 442.8535,56 423.75,56 L 88.28125,56 Z M 154.5,221.5 c -16.47101,0 -29.71875,13.27899 -29.71875,29.75 l 0,9.5 c 0,16.47101 13.24774,29.71875 29.71875,29.71875 l 203.03125,0 c 16.47105,0 29.71875,-13.24774 29.71875,-29.71875 l 0,-9.5 c 0,-16.47101 -13.2477,-29.75 -29.71875,-29.75 L 154.5,221.5 Z M 88.28125,387.03125 c -19.10345,0 -34.5,15.3653 -34.5,34.46875 0,19.10345 15.39655,34.5 34.5,34.5 L 423.75,456 c 19.1035,0 34.4688,-15.39655 34.4688,-34.5 0,-19.10345 -15.3653,-34.46875 -34.4688,-34.46875 l -335.46875,0 z"
     style="fill:#ffffff" />
</svg>
