<?xml version="1.0" encoding="UTF-8" standalone="no"?>
<svg
   xmlns:dc="http://purl.org/dc/elements/1.1/"
   xmlns:cc="http://creativecommons.org/ns#"
   xmlns:rdf="http://www.w3.org/1999/02/22-rdf-syntax-ns#"
   xmlns:svg="http://www.w3.org/2000/svg"
   xmlns="http://www.w3.org/2000/svg"
   height="100%"
   width="100%"
   version="1.1"
   id="svg2"
   viewBox="0 0 512 512">
  <metadata
     id="metadata100">
    <rdf:RDF>
      <cc:Work
         rdf:about="">
        <dc:format>image/svg+xml</dc:format>
        <dc:type
           rdf:resource="http://purl.org/dc/dcmitype/StillImage" />
        <dc:title />
      </cc:Work>
    </rdf:RDF>
  </metadata>
  <defs
     id="defs98" />
  <path
     id="rect2986"
     d="M 26,-5e-5 C 11.60264,-5e-5 0,11.6026 0,25.99996 l 0,459.99999 c 0,14.39735 11.60264,26 26,26 l 460,0 c 14.39735,0 26,-11.60265 26,-26 l 0,-460 c 0,-14.39735 -11.60265,-26 -26,-26 l -460,0 z"
     style="fill:#66ae4a;fill-opacity:1;stroke:none" />
  <path
     id="path3990"
     d="m 88.28095,56.00006 c -19.10345,0 -34.5,15.36531 -34.5,34.46875 0,9.55172 3.84887,18.17699 10.08594,24.41406 l 132.17969,132.17969 c -0.19109,1.36812 -0.29688,2.76529 -0.29688,4.1875 l 0,9.5 c 0,8.12269 3.22152,15.46181 8.46289,20.81445 l 105.4668,105.4668 -221.39844,0 c -19.10345,0 -34.5,15.3653 -34.5,34.46875 0,9.55172 3.84887,18.17699 10.08594,24.41406 l 66.08594,66.08594 356.04687,0 c 14.39735,0 26,-11.60265 26,-26 l 0,-356.07812 -63.85156,-63.85156 C 441.91888,59.84112 433.30142,56.00006 423.7497,56.00006 l -335.46875,0 z"
     style="opacity:0.25;fill:#000000" />
  <path
     id="path3815"
     d="m 88.28125,55.99995 c -19.10345,0 -34.5,15.36531 -34.5,34.46875 0,19.10345 15.39655,34.5 34.5,34.5 l 335.46875,0 c 19.10345,0 34.46875,-15.39655 34.46875,-34.5 0,-19.10344 -15.3653,-34.46875 -34.46875,-34.46875 l -335.46875,0 z m 137.1875,165.5 c -16.47101,0 -29.71875,13.27899 -29.71875,29.75 l 0,9.5 c 0,16.47101 13.24774,29.71875 29.71875,29.71875 l 203.03125,0 c 16.47101,0 29.71875,-13.24774 29.71875,-29.71875 l 0,-9.5 c 0,-16.47101 -13.24774,-29.75 -29.71875,-29.75 l -203.03125,0 z M 88.28125,387.0312 c -19.10345,0 -34.5,15.3653 -34.5,34.46875 0,19.10345 15.39655,34.5 34.5,34.5 l 335.46875,0 c 19.10345,0 34.46875,-15.39655 34.46875,-34.5 0,-19.10345 -15.3653,-34.46875 -34.46875,-34.46875 l -335.46875,0 z"
     style="fill:#ffffff" />
</svg>
