<?xml version="1.0" encoding="UTF-8" standalone="no"?>
<svg
   xmlns:dc="http://purl.org/dc/elements/1.1/"
   xmlns:cc="http://creativecommons.org/ns#"
   xmlns:rdf="http://www.w3.org/1999/02/22-rdf-syntax-ns#"
   xmlns:svg="http://www.w3.org/2000/svg"
   xmlns="http://www.w3.org/2000/svg"
   height="100%"
   width="100%"
   version="1.1"
   id="svg2"
   viewBox="0 0 512 512">
  <metadata
     id="metadata102">
    <rdf:RDF>
      <cc:Work
         rdf:about="">
        <dc:format>image/svg+xml</dc:format>
        <dc:type
           rdf:resource="http://purl.org/dc/dcmitype/StillImage" />
        <dc:title />
      </cc:Work>
    </rdf:RDF>
  </metadata>
  <defs
     id="defs100" />
  <path
     style="fill:#0078ad;fill-opacity:1;stroke:none"
     d="m 25.99996,-1e-5 c -14.39736,0 -26,11.60265 -26,26.000003 l 0,460.000027 c 0,14.39734 11.60264,26 26,26 l 460.00002,0 c 14.39735,0 26,-11.60266 26,-26 l 0,-460.000027 c 0,-14.397353 -11.60265,-26.000003 -26,-26.000003 l -460.00002,0 z"
     id="rect2986" />
  <path
     id="path3030"
     d="m 151.80277,55.999476 c -6.45237,0 -12.91091,2.476 -17.8164,7.38086 L 88.20902,109.15768 c -9.80973,9.80973 -9.80973,24.79378 0,34.60352 l 104.81446,104.84375 45.77734,45.77734 120.10938,120.10938 c 1.39564,10.68536 6.311,20.26218 13.5625,27.51367 l 69.99414,69.99414 43.5332,0 c 14.39735,0 26,-11.60266 26,-26 l 0,-288.89844 -87.94336,-87.94336 -45.80664,-45.777344 c -9.80972,-9.80971 -25.82378,-9.80972 -35.63477,0 L 256.11723,149.87643 169.61918,63.380336 c -4.90485,-4.90485 -11.36404,-7.38086 -17.81641,-7.38086 z M 105.73246,360.47604 c -26.38089,0 -47.77734,21.39645 -47.77734,47.77735 0,13.18309 5.34243,25.11391 13.98046,33.75195 l 69.99415,69.99414 135.11132,0 -137.52734,-137.52734 c -8.64654,-8.64652 -20.5908,-13.9961 -33.78125,-13.9961 z m 150.26758,0 c -26.38091,0 -47.77734,21.39645 -47.77734,47.77735 0,13.18309 5.34439,25.11391 13.98242,33.75195 l 69.99414,69.99414 135.10937,0 -137.52734,-137.52734 c -8.64653,-8.64652 -20.59081,-13.9961 -33.78125,-13.9961 z"
     style="opacity:0.25;fill:#000000;fill-rule:evenodd" />
  <path
     id="path12"
     d="m 151.80298,55.999996 c -6.45237,0 -12.91148,2.47478 -17.81698,7.37964 L 88.20871,109.15693 c -9.80973,9.80973 -9.80973,24.79519 0,34.60493 l 104.81441,104.8438 45.77729,45.7773 c 9.80972,9.80471 25.82298,9.80471 35.63396,0 l 46.80631,-46.80633 102.78577,-103.81478 c 4.90485,-4.90487 7.14444,-10.88384 7.14444,-17.28775 0,-6.40016 -2.21018,-12.41231 -7.11504,-17.31717 L 378.24914,63.379636 c -9.80971,-9.80973 -25.82296,-9.80973 -35.63395,0 l -86.4976,86.497624 -86.49762,-86.497624 c -4.90486,-4.90486 -11.3646,-7.37964 -17.81699,-7.37964 z M 105.73168,360.4763 c -26.38089,0 -47.77655,21.39566 -47.77655,47.77656 0,26.38089 21.39566,47.74716 47.77655,47.74716 26.38089,0 47.77657,-21.36627 47.77657,-47.74716 0,-26.3809 -21.39568,-47.77656 -47.77657,-47.77656 z m 150.26831,0 c -26.38091,0 -47.77658,21.39566 -47.77658,47.77656 0,26.38089 21.39567,47.74716 47.77658,47.74716 26.38088,0 47.77654,-21.36627 47.77654,-47.74716 0,-26.3809 -21.39566,-47.77656 -47.77654,-47.77656 z m 150.26828,0 c -26.38088,0 -47.77656,21.39566 -47.77656,47.77656 0,26.38089 21.39568,47.74716 47.77656,47.74716 26.38088,0 47.77655,-21.36627 47.77655,-47.74716 0,-26.3809 -21.39567,-47.77656 -47.77655,-47.77656 z"
     style="fill:#ffffff;fill-rule:evenodd" />
</svg>
