<?xml version="1.0" encoding="UTF-8" standalone="no"?>
<svg
   xmlns:dc="http://purl.org/dc/elements/1.1/"
   xmlns:cc="http://creativecommons.org/ns#"
   xmlns:rdf="http://www.w3.org/1999/02/22-rdf-syntax-ns#"
   xmlns:svg="http://www.w3.org/2000/svg"
   xmlns="http://www.w3.org/2000/svg"
   height="100%"
   width="100%"
   version="1.1"
   id="svg2"
   viewBox="0 0 512 512">
  <metadata
     id="metadata102">
    <rdf:RDF>
      <cc:Work
         rdf:about="">
        <dc:format>image/svg+xml</dc:format>
        <dc:type
           rdf:resource="http://purl.org/dc/dcmitype/StillImage" />
        <dc:title />
      </cc:Work>
    </rdf:RDF>
  </metadata>
  <defs
     id="defs100" />
  <path
     style="fill:#0078ad;fill-opacity:1;stroke:none"
     d="m 26,-2.4e-4 c -14.39737,0 -26.00001,11.60264 -26.00001,26 l 0,460.00003 c 0,14.39735 11.60264,26 26.00001,26 l 460.00001,0 c 14.39735,0 26,-11.60265 26,-26 l 0,-460.00003 c 0,-14.39736 -11.60265,-26 -26,-26 L 26,-2.4e-4 Z"
     id="rect2986" />
  <path
     id="path3031"
     d="m 103.74709,57.95531 c -26.3809,0 -47.74804,21.39451 -47.74804,47.7754 0,13.19779 5.34842,25.1492 13.99609,33.79688 l 372.47265,372.47265 43.53125,0 c 14.39735,0 26,-11.60265 26,-26 l 0,-288.90039 L 402.84279,87.94359 c -4.90484,-4.90485 -10.91626,-7.11523 -17.31641,-7.11523 -6.40392,0 -12.38419,2.23966 -17.28906,7.14453 L 264.42287,190.76001 260.3799,194.80298 137.52834,71.94945 C 128.88181,63.30292 116.93753,57.95531 103.74709,57.95531 Z m 0,150.26759 c -26.3809,0 -47.74804,21.39646 -47.74804,47.77734 0,13.1978 5.34842,25.14725 13.99609,33.79492 l 222.20507,222.20508 135.10938,0 -289.78125,-289.78125 c -8.64653,-8.64653 -20.5908,-13.99609 -33.78125,-13.99609 z m 0,150.26953 c -26.3809,0 -47.74804,21.39448 -47.74804,47.77539 0,13.19779 5.34842,25.14725 13.99609,33.79492 l 71.9375,71.9375 135.10937,0 -139.51367,-139.51367 c -8.64653,-8.64652 -20.5908,-13.99414 -33.78125,-13.99414 z"
     style="opacity:0.25;fill:#000000;fill-rule:evenodd" />
  <path
     id="path12"
     d="m 456.00001,360.19678 c 0,6.45238 -2.47479,12.91148 -7.37964,17.81698 l -45.7773,45.77728 c -9.80973,9.80973 -24.7952,9.80973 -34.60492,0 l -104.84381,-104.8144 -45.77729,-45.7773 c -9.8047,-9.80973 -9.8047,-25.82297 0,-35.63396 L 264.42337,190.75906 368.23815,87.97331 c 4.90487,-4.90487 10.88384,-7.14444 17.28776,-7.14444 6.40016,0 12.41231,2.21017 17.31716,7.11503 l 45.7773,45.8067 c 9.80972,9.80973 9.80972,25.82297 0,35.63397 l -86.49761,86.49761 86.49761,86.49762 c 4.90485,4.90485 7.37964,11.3646 7.37964,17.81698 z m -304.47629,46.0713 c 0,26.38088 -21.39568,47.77655 -47.77656,47.77655 C 77.36626,454.04463 56,432.64896 56,406.26808 c 0,-26.38091 21.36626,-47.77656 47.74716,-47.77656 26.38088,0 47.77656,21.39565 47.77656,47.77656 z m 0,-150.2683 c 0,26.38089 -21.39568,47.77656 -47.77656,47.77656 C 77.36626,303.77634 56,282.38067 56,255.99978 c 0,-26.38088 21.36626,-47.77655 47.74716,-47.77655 26.38088,0 47.77656,21.39567 47.77656,47.77655 z m 0,-150.2683 c 0,26.38089 -21.39568,47.77656 -47.77656,47.77656 C 77.36626,153.50804 56,132.11237 56,105.73148 56,79.35059 77.36626,57.95493 103.74716,57.95493 c 26.38088,0 47.77656,21.39566 47.77656,47.77655 z"
     style="fill:#ffffff;fill-rule:evenodd" />
</svg>
