<?xml version="1.0" encoding="UTF-8" standalone="no"?>
<svg
   xmlns:dc="http://purl.org/dc/elements/1.1/"
   xmlns:cc="http://creativecommons.org/ns#"
   xmlns:rdf="http://www.w3.org/1999/02/22-rdf-syntax-ns#"
   xmlns:svg="http://www.w3.org/2000/svg"
   xmlns="http://www.w3.org/2000/svg"
   height="100%"
   width="100%"
   version="1.1"
   id="svg2"
   viewBox="0 0 512 512">
  <metadata
     id="metadata102">
    <rdf:RDF>
      <cc:Work
         rdf:about="">
        <dc:format>image/svg+xml</dc:format>
        <dc:type
           rdf:resource="http://purl.org/dc/dcmitype/StillImage" />
        <dc:title />
      </cc:Work>
    </rdf:RDF>
  </metadata>
  <defs
     id="defs100" />
  <path
     style="fill:#0078ad;fill-opacity:1;stroke:none"
     d="m 25.99999,-1.4e-5 c -14.39736,0 -26,11.60265 -26,26 L -1e-5,486 c 0,14.39735 11.60264,26.00001 26,26.00001 l 460.00002,0 c 14.39735,0 26,-11.60266 26,-26.00001 l 0,-460.000014 c 0,-14.39735 -11.60265,-26 -26,-26 l -460.00002,0 z"
     id="rect2986" />
  <path
     id="path3430"
     d="m 408.25188,57.954374 c -26.38089,0 -47.77539,21.39647 -47.77539,47.777336 0,13.19045 5.34958,25.13472 13.9961,33.78125 l 137.52734,137.52735 0,-135.10938 -69.99414,-69.994136 c -8.63804,-8.63804 -20.57081,-13.98242 -33.75391,-13.98242 z m -281.79296,22.89649 c -6.1988,0 -12.39787,2.45255 -17.30273,7.35742 L 63.37884,133.98562 c -4.90486,4.90549 -7.37891,11.36403 -7.37891,17.81641 0,6.45238 2.47406,12.9135 7.37891,17.81836 l 86.49805,86.49804 -86.49805,86.4961 c -9.80972,9.811 -9.80972,25.82503 0,35.63476 l 45.77735,45.80664 87.94335,87.94336 288.90039,0 c 14.39735,0 26,-11.60265 26,-26 l 0,-43.5332 -69.99414,-69.99414 C 434.75476,365.22092 425.17863,360.3074 414.49407,358.9114 L 294.38274,238.80007 248.6054,193.02273 143.76165,88.208284 c -4.90486,-4.90486 -11.10394,-7.35743 -17.30273,-7.35742 z M 408.25188,208.2239 c -26.38089,0 -47.77539,21.3945 -47.77539,47.77539 0,13.19044 5.34958,25.13472 13.9961,33.78125 l 137.52734,137.52735 0,-135.10938 -69.99414,-69.99414 c -8.63804,-8.63804 -20.57081,-13.98047 -33.75391,-13.98047 z"
     style="opacity:0.25;fill:#000000;fill-rule:evenodd" />
  <path
     id="path12"
     d="m 55.99999,151.80299 c 0,-6.45238 2.47479,-12.91148 7.37964,-17.81698 l 45.7773,-45.777276 c 9.80973,-9.80973 24.7952,-9.80973 34.60492,0 l 104.8438,104.814406 45.7773,45.77729 c 9.80469,9.80974 9.80469,25.82298 0,35.63396 l -46.80633,46.80633 -103.81477,102.78573 c -4.90487,4.90487 -10.88384,7.14444 -17.28776,7.14444 -6.40016,0 -12.41231,-2.21017 -17.31716,-7.11502 l -45.7773,-45.8067 c -9.80972,-9.80973 -9.80972,-25.82297 0,-35.63397 l 86.4976,-86.49761 -86.4976,-86.49762 c -4.90485,-4.90485 -7.37964,-11.3646 -7.37964,-17.81698 z m 304.47629,-46.0713 c 0,-26.380876 21.39567,-47.776546 47.77656,-47.776546 26.3809,0 47.74717,21.39567 47.74717,47.776546 0,26.38091 -21.36627,47.77656 -47.74717,47.77656 -26.38089,0 -47.77656,-21.39565 -47.77656,-47.77656 z m 0,150.2683 c 0,-26.38089 21.39567,-47.77656 47.77656,-47.77656 26.3809,0 47.74717,21.39567 47.74717,47.77656 0,26.38088 -21.36627,47.77655 -47.74717,47.77655 -26.38089,0 -47.77656,-21.39567 -47.77656,-47.77655 z m 0,150.2683 c 0,-26.38089 21.39567,-47.77656 47.77656,-47.77656 26.3809,0 47.74717,21.39567 47.74717,47.77655 0,26.38089 -21.36627,47.77656 -47.74717,47.77656 -26.38089,0 -47.77656,-21.39567 -47.77656,-47.77656 z"
     style="fill:#ffffff;fill-rule:evenodd" />
</svg>
