<?xml version="1.0" encoding="UTF-8" standalone="no"?>
<svg
   xmlns:dc="http://purl.org/dc/elements/1.1/"
   xmlns:cc="http://creativecommons.org/ns#"
   xmlns:rdf="http://www.w3.org/1999/02/22-rdf-syntax-ns#"
   xmlns:svg="http://www.w3.org/2000/svg"
   xmlns="http://www.w3.org/2000/svg"
   height="100%"
   width="100%"
   version="1.1"
   id="svg2"
   viewBox="0 0 512 512">
  <metadata
     id="metadata102">
    <rdf:RDF>
      <cc:Work
         rdf:about="">
        <dc:format>image/svg+xml</dc:format>
        <dc:type
           rdf:resource="http://purl.org/dc/dcmitype/StillImage" />
        <dc:title />
      </cc:Work>
    </rdf:RDF>
  </metadata>
  <defs
     id="defs100" />
  <path
     id="rect2986-3"
     d="m 25.99999,-1e-5 c -14.39736,0 -26,11.60265 -26,26 l 0,460.00003 c 0,14.39735 11.60264,26 26,26 l 460.00002,0 c 14.39735,0 26,-11.60265 26,-26 l 0,-460.00003 c 0,-14.39735 -11.60265,-25.9999999999999 -26,-25.9999999999999 l -460.00002,0 z"
     style="fill:#79c843;fill-opacity:1;stroke:none" />
  <path
     id="path3237"
     d="m 256.71084,115.71204 c -7.36716,0 -14.73568,2.80014 -20.33594,8.40039 L 64.4003,296.08704 c -11.20051,11.2005 -11.20051,28.3112 0,39.51172 l 52.29101,52.28906 124.11133,124.11133 245.19726,0 c 14.39735,0 26,-11.60265 26,-26 l 0,-126.93164 -234.95508,-234.95508 c -5.60097,-5.60025 -12.96682,-8.40039 -20.33398,-8.40039 z"
     style="opacity:0.25;fill:#000000;fill-rule:evenodd" />
  <path
     d="m 456.00001,315.84253 c 0,7.30755 -2.53516,14.15533 -8.1354,19.75559 l -52.29007,52.29005 c -11.20051,11.20051 -29.46795,11.20051 -40.66988,0 L 256.13248,289.116 157.36032,387.88817 c -11.20053,11.20051 -29.46795,11.20051 -40.66988,0 L 64.40037,335.59812 c -11.2005,-11.20052 -11.2005,-28.31066 0,-39.51116 L 236.37548,124.11183 c 11.20051,-11.20049 29.46793,-11.20049 40.66988,0 l 53.45307,53.45308 117.3633,118.52205 c 5.60027,5.60024 8.13541,12.44804 8.13541,19.75557"
     id="path10"
     style="fill:#ffffff;fill-rule:evenodd" />
</svg>
