<?xml version="1.0" encoding="UTF-8" standalone="no"?>
<svg
   xmlns:dc="http://purl.org/dc/elements/1.1/"
   xmlns:cc="http://creativecommons.org/ns#"
   xmlns:rdf="http://www.w3.org/1999/02/22-rdf-syntax-ns#"
   xmlns:svg="http://www.w3.org/2000/svg"
   xmlns="http://www.w3.org/2000/svg"
   height="100%"
   width="100%"
   version="1.1"
   id="svg2"
   viewBox="0 0 512 512">
  <metadata
     id="metadata102">
    <rdf:RDF>
      <cc:Work
         rdf:about="">
        <dc:format>image/svg+xml</dc:format>
        <dc:type
           rdf:resource="http://purl.org/dc/dcmitype/StillImage" />
        <dc:title />
      </cc:Work>
    </rdf:RDF>
  </metadata>
  <defs
     id="defs100" />
  <path
     id="rect2986"
     d="m 25.99959,-4.4e-4 c -14.39736,0 -26,11.60265 -26,26 l 0,460 c 0,14.39735 11.60264,26 26,26 l 460,0 c 14.39735,0 26,-11.60265 26,-26 l 0,-460 c 0,-14.39735 -11.60265,-26 -26,-26 l -460,0 z"
     style="fill:#ef6a47;fill-opacity:1;stroke:none" />
  <path
     id="path3179"
     d="m 208.8775,56.00029 -5.77539,21.97266 39.39844,39.39648 0,0.002 -63.0957,281.98242 c -4.62472,20.7987 -8.67487,31.22313 -25.42383,32.37305 l -25.99805,2.29883 -5.19336,21.94922 -0.006,0 0.004,0.004 -0.004,0.0215 56.00001,56 307.21679,0 c 14.39735,0 26,-11.60265 26,-26 l 0,-307.21485 -122.78515,-122.78515 -180.3379,0 z"
     style="opacity:0.25;fill:#000000;stroke:none" />
  <path
     d="m 122.78291,455.97455 180.33873,0 5.19968,-21.97362 -28.89819,-2.29986 c -16.174,-1.72489 -15.59904,-11.54927 -10.97431,-32.37297 L 332.5948,112.64602 c 4.62472,-20.7987 8.67446,-31.22305 25.42342,-32.37297 l 25.42341,-2.29986 5.77463,-21.97363 -180.33873,0 -5.77464,21.97363 29.47316,2.89982 c 16.17399,1.14993 15.59903,10.97431 10.97431,31.79801 L 179.40438,399.3531 c -4.62472,20.7987 -8.67446,31.22305 -25.42342,32.37297 l -25.99837,2.29986 -5.19968,21.97363"
     id="path92"
     style="fill:#ffffff;stroke:none" />
</svg>
