<?xml version="1.0" encoding="UTF-8" standalone="no"?>
<svg
   xmlns:dc="http://purl.org/dc/elements/1.1/"
   xmlns:cc="http://creativecommons.org/ns#"
   xmlns:rdf="http://www.w3.org/1999/02/22-rdf-syntax-ns#"
   xmlns:svg="http://www.w3.org/2000/svg"
   xmlns="http://www.w3.org/2000/svg"
   height="100%"
   width="100%"
   version="1.1"
   id="svg2"
   viewBox="0 0 512 512">
  <metadata
     id="metadata100">
    <rdf:RDF>
      <cc:Work
         rdf:about="">
        <dc:format>image/svg+xml</dc:format>
        <dc:type
           rdf:resource="http://purl.org/dc/dcmitype/StillImage" />
        <dc:title />
      </cc:Work>
    </rdf:RDF>
  </metadata>
  <defs
     id="defs98" />
  <path
     style="fill:#0078ad"
     id="path9"
     d="m 25.99968,0 c -14.397,0 -26,11.603 -26,26 l 0,460 c 0,14.397 11.603,26 26,26 l 460,0 c 14.397,0 26,-11.603 26,-26 l 0,-460 c 0,-14.397 -11.603,-26 -26,-26 l -460,0" />
  <path
     style="opacity:0.25"
     id="path65"
     d="m 211.63899,85.35922 c -94.08,0 -170.63868,76.54062 -170.63868,170.64062 0,47.04 19.13907,89.70938 50.03907,120.60938 L 226.43,511.99984 l 259.57032,0 c 14.397,0 26,-11.603 26,-26 l 0,-187.28906 L 398.68,185.39047 c -0.729,-0.729 -1.76571,-1.14569 -2.76171,-1.05469 l 0.002,0.004 74.98437,74.98242 c 2.8e-4,10e-4 -2.7e-4,0.003 0,0.004 l -74.98437,-74.98633 c -0.33275,0.0289 -0.63735,0.079 -0.95703,0.21484 l -0.004,-0.004 c -1.28,0.526 -2.13281,1.81721 -2.13281,3.19921 l 0.004,0.004 0,8.82617 -60.35547,-60.35351 -0.0859,-0.0859 C 300.75225,104.50373 257.20521,85.37172 211.64875,85.36899 l -0.01,-0.01 z" />
  <path
     style="fill:#ffffff"
     id="path147"
     d="m 211.63968,85.36 c -94.08,0 -170.64,76.54 -170.64,170.64 0,94.08 76.54,170.64 170.64,170.64 67.18,0 128.37,-39.757 155.82,-101.31 0.474,-1.058 0.308,-2.333 -0.32,-3.307 -0.631,-0.966 -1.723,-1.494 -2.881,-1.494 l -62.922,0 c -1.068,0 -2.129,0.43 -2.774,1.28 -20.626,27.14 -53.12,43.4 -86.92,43.4 -60.21,0 -109.21,-48.992 -109.21,-109.21 0,-60.21 48.992,-109.21 109.21,-109.21 35.27,0 68.63,17.272 89.15,46.28 0.642,0.904 1.664,1.494 2.774,1.494 l 62.06,0 c 1.144,0 2.139,-0.538 2.774,-1.494 0.631,-0.952 0.767,-2.144 0.32,-3.199 -26.445,-62.48 -89.57,-104.51 -157.09,-104.51 m 184.29,98.97 c -0.334,0.029 -0.639,0.077 -0.96,0.214 -1.28,0.526 -2.133,1.817 -2.133,3.199 0,0 0,31.806 0,37.539 -6.549,0 -122.85,0 -122.85,0 -1.888,0 -3.413,1.529 -3.413,3.413 l 0,57.692 c 0,1.888 1.525,3.413 3.413,3.413 0,0 116.32,0 122.85,0 0,5.733 0,37.539 0,37.539 0,1.359 0.774,2.554 2.027,3.093 1.253,0.539 2.739,0.292 3.732,-0.641 l 71.35,-67.19 c 0.665,-0.631 1.054,-1.531 1.066,-2.452 0.02,-0.917 -0.315,-1.797 -0.96,-2.452 l -71.35,-72.31 c -0.73,-0.737 -1.772,-1.158 -2.774,-1.066" />
</svg>
