/* XPM */
static char * maximize_toggled_pressed_xpm[] = {
"19 22 6 1",
"       c None",
".      c #949594 s active_shadow_2",
"+      c #D5D6D5 s active_color_2",
"@      c #0A0C12 s active_mid_2",
"=      c #FFFFFF s active_hilight_2",
"#      c #C7C7C9",
"                   ",
"                   ",
"                   ",
"..................+",
".@@@@@@@@@@@@@@@@@=",
".@@@@@@@@@@@@@@@@@=",
".@@@########@@@@@@=",
".@@@########@@@@@@=",
".@@@##....##@@@@@@=",
".@@@##@@@@##.##@@@=",
".@@@##@@@@##.##@@@=",
".@@@##@@@@##@##@@@=",
".@@@########@##@@@=",
".@@@########@##@@@=",
".@@@.....@@@@##@@@=",
".@@@@@@########@@@=",
".@@@@@@########@@@=",
".@@@@@@........@@@=",
".@@@@@@@@@@@@@@@@@=",
"+==================",
"                   ",
"                   "};

