<?xml version="1.0" encoding="UTF-8" standalone="no"?>
<!-- Created with Inkscape (http://www.inkscape.org/) -->

<svg
   xmlns:dc="http://purl.org/dc/elements/1.1/"
   xmlns:cc="http://creativecommons.org/ns#"
   xmlns:rdf="http://www.w3.org/1999/02/22-rdf-syntax-ns#"
   xmlns:svg="http://www.w3.org/2000/svg"
   xmlns="http://www.w3.org/2000/svg"
   xmlns:sodipodi="http://sodipodi.sourceforge.net/DTD/sodipodi-0.dtd"
   xmlns:inkscape="http://www.inkscape.org/namespaces/inkscape"
   width="48.000011"
   height="48.014492"
   id="svg5453"
   version="1.1"
   inkscape:version="0.48+devel r12820"
   sodipodi:docname="application-x-gnome-saved-search.svg">
  <defs
     id="defs5455" />
  <sodipodi:namedview
     id="base"
     pagecolor="#ffffff"
     bordercolor="#666666"
     borderopacity="1.0"
     inkscape:pageopacity="0"
     inkscape:pageshadow="2"
     inkscape:zoom="6.4812881"
     inkscape:cx="25.372691"
     inkscape:cy="34.141723"
     inkscape:document-units="px"
     inkscape:current-layer="layer1"
     showgrid="false"
     fit-margin-top="0"
     fit-margin-left="0"
     fit-margin-right="0"
     fit-margin-bottom="0"
     inkscape:window-width="1366"
     inkscape:window-height="673"
     inkscape:window-x="0"
     inkscape:window-y="24"
     inkscape:window-maximized="1" />
  <metadata
     id="metadata5458">
    <rdf:RDF>
      <cc:Work
         rdf:about="">
        <dc:format>image/svg+xml</dc:format>
        <dc:type
           rdf:resource="http://purl.org/dc/dcmitype/StillImage" />
        <dc:title />
      </cc:Work>
    </rdf:RDF>
  </metadata>
  <g
     inkscape:label="Capa 1"
     inkscape:groupmode="layer"
     id="layer1"
     transform="translate(-384.57143,-499.78351)">
    <g
       inkscape:label="Capa 2"
       id="layer2-8"
       transform="translate(208.56026,490.20319)" />
    <g
       inkscape:label="Capa 2"
       id="layer2-8-5"
       transform="translate(199.81012,499.79076)" />
    <g
       transform="translate(301.92156,499.79076)"
       id="layer2"
       inkscape:label="Capa 2" />
    <g
       inkscape:label="Capa 2"
       id="layer2-8-6"
       transform="translate(257.07144,499.79076)" />
    <g
       transform="translate(359.18288,499.79076)"
       id="layer2-81"
       inkscape:label="Capa 2" />
    <g
       inkscape:label="Capa 2"
       id="layer2-8-4"
       transform="translate(198.96265,505.39399)" />
    <g
       transform="translate(301.07409,505.39399)"
       id="layer2-9"
       inkscape:label="Capa 2" />
    <g
       inkscape:label="Capa 2"
       id="layer2-8-0"
       transform="translate(216.87235,502.80981)" />
    <g
       transform="translate(318.98379,502.80981)"
       id="layer2-5"
       inkscape:label="Capa 2" />
    <g
       id="g4104"
       transform="matrix(1.9999996,0,0,1.9999996,360.57144,-1540.9332)">
      <rect
         style="fill:none;stroke:none"
         id="rect3274"
         width="15"
         height="15"
         x="16.500002"
         y="1024.8622" />
      <rect
         style="fill:none;stroke:none"
         id="rect3276"
         width="9.5"
         height="9.5"
         x="16.500002"
         y="1024.8622" />
      <path
         id="path3296"
         d="m 21.248046,1024.8622 c -1.243633,0 -2.479667,0.5122 -3.358398,1.3916 -0.878732,0.8793 -1.389649,2.1149 -1.389649,3.3584 0,1.2434 0.510917,2.479 1.389649,3.3584 0.878731,0.8793 2.114765,1.3915 3.358398,1.3916 1.243634,0 2.479522,-0.5123 3.359375,-1.3916 0.879853,-0.8794 1.392578,-2.1148 1.392578,-3.3584 0,-1.2436 -0.512725,-2.4791 -1.392578,-3.3584 -0.879853,-0.8794 -2.115741,-1.3917 -3.359375,-1.3916 z m 0.001,2 c 1.439973,-10e-5 2.750953,1.31 2.750953,2.75 0,1.4399 -1.31098,2.7501 -2.750976,2.75 -1.439997,-10e-5 -2.749024,-1.3102 -2.749024,-2.75 0,-1.4398 1.309027,-2.7499 2.749024,-2.75 z"
         style="fill:#4d4d4d;fill-opacity:1;fill-rule:evenodd;stroke:none"
         inkscape:connector-curvature="0" />
      <rect
         transform="matrix(0.70710678,-0.70710678,0.70710678,0.70710678,0,0)"
         y="750.78888"
         x="-714.01971"
         height="5.7785001"
         width="2"
         id="rect3302"
         style="fill:#4d4d4d;fill-opacity:1;fill-rule:evenodd;stroke:none" />
    </g>
  </g>
</svg>
