<?xml version="1.0" encoding="UTF-8" standalone="no"?>
<!-- Created with Inkscape (http://www.inkscape.org/) -->

<svg
   xmlns:dc="http://purl.org/dc/elements/1.1/"
   xmlns:cc="http://creativecommons.org/ns#"
   xmlns:rdf="http://www.w3.org/1999/02/22-rdf-syntax-ns#"
   xmlns:svg="http://www.w3.org/2000/svg"
   xmlns="http://www.w3.org/2000/svg"
   xmlns:sodipodi="http://sodipodi.sourceforge.net/DTD/sodipodi-0.dtd"
   xmlns:inkscape="http://www.inkscape.org/namespaces/inkscape"
   width="48"
   height="48"
   id="svg865"
   version="1.1"
   inkscape:version="0.49 r12742"
   sodipodi:docname="folder-sparkleshare.svg">
  <defs
     id="defs867" />
  <sodipodi:namedview
     id="base"
     pagecolor="#ffffff"
     bordercolor="#666666"
     borderopacity="1.0"
     inkscape:pageopacity="0"
     inkscape:pageshadow="2"
     inkscape:zoom="12.002954"
     inkscape:cx="14.414708"
     inkscape:cy="18.303689"
     inkscape:document-units="px"
     inkscape:current-layer="layer1"
     showgrid="false"
     inkscape:window-width="1366"
     inkscape:window-height="718"
     inkscape:window-x="0"
     inkscape:window-y="23"
     inkscape:window-maximized="1" />
  <metadata
     id="metadata870">
    <rdf:RDF>
      <cc:Work
         rdf:about="">
        <dc:format>image/svg+xml</dc:format>
        <dc:type
           rdf:resource="http://purl.org/dc/dcmitype/StillImage" />
        <dc:title />
      </cc:Work>
    </rdf:RDF>
  </metadata>
  <g
     inkscape:label="Capa 1"
     inkscape:groupmode="layer"
     id="layer1"
     transform="translate(0,-1004.3622)">
    <g
       transform="matrix(2.5185535,0,0,2.5925643,-1210.1084,8.4166768)"
       id="layer15"
       style="fill:#4d4d4d;fill-opacity:1">
      <path
         d="m 489.81784,387.62809 c -0.56753,0.15216 -1.06188,0.59585 -1.18728,1.18687 -0.25548,0.71825 -0.46808,1.4508 -0.71351,2.17238 -0.93274,0.0214 -1.8703,-0.044 -2.7996,0.0368 -0.9957,0.22174 -1.47218,1.69575 -0.63851,2.3701 0.67834,0.57621 1.4261,1.0654 2.136,1.60267 -0.26037,0.91351 -0.62815,1.80173 -0.80939,2.73454 -0.0663,1.07749 1.39776,1.91089 2.2369,1.16249 0.65399,-0.47249 1.3046,-0.9495 1.9579,-1.4232 0.77794,0.53639 1.502,1.1575 2.3213,1.6296 0.931,0.40804 2.121,-0.53556 1.84623,-1.5432 -0.21896,-0.8646 -0.52501,-1.7057 -0.78206,-2.5603 0.74605,-0.57169 1.5446,-1.0789 2.2509,-1.6997 0.56306,-0.61147 0.3539,-1.6133 -0.30108,-2.0659 -0.58771,-0.38638 -1.313,-0.20409 -1.9737,-0.24485 l -1.3043,0 c -0.30628,-0.8923 -0.5572,-1.8077 -0.899,-2.6854 -0.1084,-0.3999 -0.8083,-0.675 -1.3418,-0.675 z m 0.18322,2.4 c 0.25117,0.723 0.39572,1.49228 0.72189,2.18338 0.44844,0.57611 1.2169,0.43062 1.8562,0.44689 l 1.1981,0 c -0.64205,0.48144 -1.32238,0.91252 -1.9368,1.43024 -0.0666,0.045 -0.17909,0.51574 -0.12209,0.21915 -0.29189,0.49443 0.0617,1.03129 0.17976,1.527 0.13157,0.41687 0.26314,0.83375 0.39475,1.25062 -0.62811,-0.43238 -1.19764,-0.96962 -1.86694,-1.32982 -0.47909,-0.14401 -1.0118,-0.03 -1.3686,0.3244 -0.4492,0.3351 -0.89851,0.67035 -1.3477,1.00547 0.21069,-0.74361 0.514,-1.46844 0.66132,-2.22529 0.0179,-0.49092 -0.26759,-0.93827 -0.69822,-1.15877 -0.48267,-0.34771 -0.965,-0.69532 -1.44743,-1.04297 0.78439,-0.0205 1.57513,0.0401 2.35533,-0.0346 0.47238,-0.10949 0.7727,-0.53452 0.8633,-0.98851 0.18571,-0.53597 0.37151,-1.0721 0.55717,-1.60797 z"
         style="text-indent:0;text-transform:none;block-progression:tb;color:#000000;fill:#4d4d4d;fill-opacity:1;enable-background:new"
         id="path5717-0-9-4"
         inkscape:connector-curvature="0" />
    </g>
  </g>
  <g
     inkscape:groupmode="layer"
     id="layer2"
     inkscape:label="Capa 2" />
</svg>
