<?xml version="1.0" encoding="UTF-8" standalone="no"?>
<!-- Created with Inkscape (http://www.inkscape.org/) -->

<svg
   xmlns:dc="http://purl.org/dc/elements/1.1/"
   xmlns:cc="http://creativecommons.org/ns#"
   xmlns:rdf="http://www.w3.org/1999/02/22-rdf-syntax-ns#"
   xmlns:svg="http://www.w3.org/2000/svg"
   xmlns="http://www.w3.org/2000/svg"
   xmlns:sodipodi="http://sodipodi.sourceforge.net/DTD/sodipodi-0.dtd"
   xmlns:inkscape="http://www.inkscape.org/namespaces/inkscape"
   width="48"
   height="48"
   id="svg4230"
   version="1.1"
   inkscape:version="0.48+devel r12859"
   sodipodi:docname="folder-red.svg">
  <defs
     id="defs4232" />
  <sodipodi:namedview
     id="base"
     pagecolor="#ffffff"
     bordercolor="#666666"
     borderopacity="1.0"
     inkscape:pageopacity="0.0"
     inkscape:pageshadow="2"
     inkscape:zoom="10.876083"
     inkscape:cx="32.686226"
     inkscape:cy="20.850686"
     inkscape:document-units="px"
     inkscape:current-layer="layer1"
     showgrid="false"
     inkscape:showpageshadow="false"
     borderlayer="true"
     inkscape:window-width="1366"
     inkscape:window-height="673"
     inkscape:window-x="0"
     inkscape:window-y="24"
     inkscape:window-maximized="1"
     showguides="false"
     inkscape:guide-bbox="true">
    <sodipodi:guide
       orientation="0,1"
       position="44.847656,45.304688"
       id="guide7743" />
    <sodipodi:guide
       orientation="0,1"
       position="45.050781,45.597656"
       id="guide7745" />
    <sodipodi:guide
       orientation="0,1"
       position="44.953125,46.199219"
       id="guide7747" />
    <sodipodi:guide
       orientation="0,1"
       position="44.910156,45.894531"
       id="guide7749" />
    <sodipodi:guide
       orientation="0,1"
       position="44.426193,45.011766"
       id="guide7751" />
    <sodipodi:guide
       orientation="0,1"
       position="59.363824,1.8009126"
       id="guide7760" />
    <sodipodi:guide
       orientation="0,1"
       position="59.351563,2.1015625"
       id="guide7762" />
    <sodipodi:guide
       orientation="0,1"
       position="59.582031,2.4023438"
       id="guide7764" />
    <sodipodi:guide
       orientation="0,1"
       position="59.539063,2.703125"
       id="guide7766" />
    <sodipodi:guide
       orientation="0,1"
       position="61.269698,2.9996795"
       id="guide7768" />
    <sodipodi:guide
       orientation="0,1"
       position="64.265625,5.4921875"
       id="guide7782" />
  </sodipodi:namedview>
  <metadata
     id="metadata4235">
    <rdf:RDF>
      <cc:Work
         rdf:about="">
        <dc:format>image/svg+xml</dc:format>
        <dc:type
           rdf:resource="http://purl.org/dc/dcmitype/StillImage" />
        <dc:title />
      </cc:Work>
    </rdf:RDF>
  </metadata>
  <g
     inkscape:label="Capa 1"
     inkscape:groupmode="layer"
     id="layer1"
     transform="translate(0,-1004.3622)">
    <g
       id="layer1-2"
       inkscape:label="Capa 1"
       transform="matrix(0.714286,0,0,0.714286,6.8571253,293.1561)">
      <path
         inkscape:connector-curvature="0"
         id="path906"
         d=""
         style="fill:#000000" />
      <g
         transform="translate(1.4305115e-5,-53.236826)"
         id="g3570">
        <path
           style="fill:#e74c3c;fill-opacity:1;stroke:none"
           d="M 13.242188 9 C 10.891929 9 9 10.891929 9 13.242188 L 9 34.757812 C 9 37.108071 10.891929 39 13.242188 39 L 34.757812 39 C 37.108071 39 39 37.108071 39 34.757812 L 39 13.242188 C 39 10.891929 37.108071 9 34.757812 9 L 13.242188 9 z M 15.291016 11.857422 L 32.708984 11.857422 C 34.611575 11.857422 36.142578 13.388425 36.142578 15.291016 L 36.142578 32.708984 C 36.142578 34.611575 34.611575 36.142578 32.708984 36.142578 L 15.291016 36.142578 C 13.388425 36.142578 11.857422 34.611575 11.857422 32.708984 L 11.857422 15.291016 C 11.857422 13.388425 13.388425 11.857422 15.291016 11.857422 z "
           transform="matrix(1.3999994,0,0,1.3999994,-9.5999859,1048.925)"
           id="rect4033" />
        <path
           id="path4047"
           d="m 2.9999782,1097.5855 c 0,3.2903 2.6491,5.9394 5.9395,5.9394 l 30.1209998,0 c 3.2904,0 5.9395,-2.6491 5.9395,-5.9394 l 0,-13.0606 0,-10 0,-2 c 0,-0.1385 -0.014,-0.2738 -0.041,-0.4043 -0.1859,-0.913 -1.000174,-1.7392 -1.959,-1.5957 l -24.312898,0 -2.4863,-4.9023 c -0.1007,-0.1985 -0.2352,-0.3657 -0.3848,-0.5137 -0.089,-0.088 -0.1836,-0.1658 -0.2851,-0.2344 -0.01,0 -0.014,-0.011 -0.021,-0.016 -0.092,-0.06 -0.1887,-0.112 -0.2891,-0.1562 -0.025,-0.011 -0.049,-0.021 -0.074,-0.031 -0.089,-0.035 -0.1787,-0.062 -0.2715,-0.084 -0.039,-0.01 -0.077,-0.018 -0.1172,-0.025 -0.083,-0.014 -0.1656,-0.022 -0.25,-0.025 -0.036,0 -0.071,-0.012 -0.1074,-0.012 l -9.4000018,0 c -1.108,0 -2,0.892 -2,2 l 0,2 0,10 0,19.0606 z"
           style="fill:#e74c3c;fill-opacity:1;stroke:none"
           inkscape:connector-curvature="0"
           sodipodi:nodetypes="csssccscsccccccccccssscccc" />
      </g>
    </g>
  </g>
</svg>
