<?xml version="1.0" encoding="UTF-8" standalone="no"?>
<!-- Created with Inkscape (http://www.inkscape.org/) -->

<svg
   xmlns:dc="http://purl.org/dc/elements/1.1/"
   xmlns:cc="http://creativecommons.org/ns#"
   xmlns:rdf="http://www.w3.org/1999/02/22-rdf-syntax-ns#"
   xmlns:svg="http://www.w3.org/2000/svg"
   xmlns="http://www.w3.org/2000/svg"
   xmlns:sodipodi="http://sodipodi.sourceforge.net/DTD/sodipodi-0.dtd"
   xmlns:inkscape="http://www.inkscape.org/namespaces/inkscape"
   width="48"
   height="48"
   id="svg1239"
   version="1.1"
   inkscape:version="0.48+devel r12820"
   sodipodi:docname="folder-videos.svg">
  <defs
     id="defs1241" />
  <sodipodi:namedview
     id="base"
     pagecolor="#ffffff"
     bordercolor="#666666"
     borderopacity="1.0"
     inkscape:pageopacity="0.0"
     inkscape:pageshadow="2"
     inkscape:zoom="4.4983956"
     inkscape:cx="-15.15269"
     inkscape:cy="37.428523"
     inkscape:document-units="px"
     inkscape:current-layer="layer1"
     showgrid="false"
     fit-margin-top="0"
     fit-margin-left="0"
     fit-margin-right="0"
     fit-margin-bottom="0"
     inkscape:window-width="1366"
     inkscape:window-height="673"
     inkscape:window-x="0"
     inkscape:window-y="24"
     inkscape:window-maximized="1"
     showguides="true" />
  <metadata
     id="metadata1244">
    <rdf:RDF>
      <cc:Work
         rdf:about="">
        <dc:format>image/svg+xml</dc:format>
        <dc:type
           rdf:resource="http://purl.org/dc/dcmitype/StillImage" />
        <dc:title />
      </cc:Work>
    </rdf:RDF>
  </metadata>
  <g
     inkscape:label="Capa 1"
     inkscape:groupmode="layer"
     id="layer1"
     transform="translate(-644.57142,-419.79076)">
    <g
       inkscape:label="Capa 1"
       id="layer1-19"
       transform="translate(480.29674,-595.46731)" />
    <g
       transform="translate(570.54308,410.49639)"
       id="layer2"
       inkscape:label="Capa 2" />
    <g
       transform="matrix(0.99990557,0,0,0.99999795,308.60679,91.4293)"
       id="layer1-8"
       inkscape:label="Capa 1">
      <path
         id="rect3311"
         transform="translate(336,328.36218)"
         d="m 15,13 0,9 18,0 0,-9 -18,0 z m 0,13 0,9 18,0 0,-9 -18,0 z"
         style="fill:#4d4d4d;fill-opacity:1;fill-rule:evenodd;stroke:none"
         inkscape:connector-curvature="0" />
      <path
         id="rect3260"
         transform="translate(336,328.36218)"
         d="M 9,9 9,39 39,39 39,9 9,9 Z m 4,2 22,0 0,26 -22,0 0,-26 z"
         style="fill:#4d4d4d;fill-opacity:1;fill-rule:evenodd;stroke:none"
         inkscape:connector-curvature="0" />
      <ellipse
         id="path3280"
         style="fill:none;stroke:none"
         cx="346.99863"
         cy="352.36218"
         rx="2.0013857"
         ry="2.0000615"
         d="m 349.00001,352.36218 a 2.0013857,2.0000615 0 0 1 -2.00138,2.00006 2.0013857,2.0000615 0 0 1 -2.00139,-2.00006 2.0013857,2.0000615 0 0 1 2.00139,-2.00006 2.0013857,2.0000615 0 0 1 2.00138,2.00006 z" />
      <ellipse
         style="fill:none;stroke:none"
         id="path3282"
         cx="372.99863"
         cy="352.36218"
         rx="2.0013857"
         ry="2.0000615"
         d="m 375.00001,352.36218 a 2.0013857,2.0000615 0 0 1 -2.00138,2.00006 2.0013857,2.0000615 0 0 1 -2.00139,-2.00006 2.0013857,2.0000615 0 0 1 2.00139,-2.00006 2.0013857,2.0000615 0 0 1 2.00138,2.00006 z" />
      <ellipse
         id="path3286"
         style="fill:none;stroke:none"
         cx="359.9993"
         cy="338.36218"
         rx="1.0006928"
         ry="1.0000308"
         d="m 360.99999,338.36218 a 1.0006928,1.0000308 0 0 1 -1.00069,1.00003 1.0006928,1.0000308 0 0 1 -1.00069,-1.00003 1.0006928,1.0000308 0 0 1 1.00069,-1.00003 1.0006928,1.0000308 0 0 1 1.00069,1.00003 z" />
      <ellipse
         style="fill:none;stroke:none"
         id="path3288"
         cx="359.9993"
         cy="366.36218"
         rx="1.0006928"
         ry="1.0000308"
         d="m 360.99999,366.36218 a 1.0006928,1.0000308 0 0 1 -1.00069,1.00003 1.0006928,1.0000308 0 0 1 -1.00069,-1.00003 1.0006928,1.0000308 0 0 1 1.00069,-1.00003 1.0006928,1.0000308 0 0 1 1.00069,1.00003 z" />
      <ellipse
         style="fill:none;stroke:none"
         id="path3303"
         cx="359.9993"
         cy="340.3623"
         rx="1.0006928"
         ry="1.0000308"
         d="m 360.99999,340.3623 a 1.0006928,1.0000308 0 0 1 -1.00069,1.00004 1.0006928,1.0000308 0 0 1 -1.00069,-1.00004 1.0006928,1.0000308 0 0 1 1.00069,-1.00003 1.0006928,1.0000308 0 0 1 1.00069,1.00003 z" />
      <ellipse
         id="path3305"
         style="fill:none;stroke:none"
         cx="359.9993"
         cy="364.3623"
         rx="1.0006928"
         ry="1.0000308"
         d="m 360.99999,364.3623 a 1.0006928,1.0000308 0 0 1 -1.00069,1.00004 1.0006928,1.0000308 0 0 1 -1.00069,-1.00004 1.0006928,1.0000308 0 0 1 1.00069,-1.00003 1.0006928,1.0000308 0 0 1 1.00069,1.00003 z" />
      <ellipse
         id="path3307"
         style="fill:none;stroke:none"
         cx="369.9993"
         cy="352.3623"
         rx="1.0006928"
         ry="1.0000308"
         d="m 370.99999,352.3623 a 1.0006928,1.0000308 0 0 1 -1.00069,1.00004 1.0006928,1.0000308 0 0 1 -1.00069,-1.00004 1.0006928,1.0000308 0 0 1 1.00069,-1.00003 1.0006928,1.0000308 0 0 1 1.00069,1.00003 z" />
      <ellipse
         style="fill:none;stroke:none"
         id="path3309"
         cx="349.9993"
         cy="352.3623"
         rx="1.0006928"
         ry="1.0000308"
         d="m 350.99999,352.3623 a 1.0006928,1.0000308 0 0 1 -1.00069,1.00004 1.0006928,1.0000308 0 0 1 -1.00069,-1.00004 1.0006928,1.0000308 0 0 1 1.00069,-1.00003 1.0006928,1.0000308 0 0 1 1.00069,1.00003 z" />
    </g>
  </g>
</svg>
