#define gimp_width 16
#define gimp_height 16
static char gimp_bits[] = {
  0xFF, 0xFF, 0xFF, 0xFF, 0xFF, 0xFF, 0xDF, 0xB5, 0x0F, 0xE0, 0x07, 0x80, 
  0x0F, 0xA0, 0x69, 0xCC, 0x09, 0xC0, 0xBF, 0xF4, 0xFF, 0xFF, 0x9F, 0xC7, 
  0x7F, 0xFD, 0xFF, 0xFF, 0xFF, 0xFF, 0xFF, 0xFF, };
