#define im_width 12
#define im_height 12
static unsigned char im_bits[] = {
   0x00, 0x00, 0x00, 0x00, 0xf6, 0x07, 0xf6, 0x07, 0xf6, 0x07, 0xf6, 0x07,
   0xf6, 0x07, 0xf6, 0x07, 0xf6, 0x07, 0xf6, 0x07, 0x00, 0x00, 0x00, 0x00 };
