#define tabbed_width 12
#define tabbed_height 12
static unsigned char tabbed_bits[] = {
   0x00, 0x00, 0x00, 0x00, 0x66, 0x06, 0x66, 0x06, 0x00, 0x00, 0xfe, 0x07,
   0xfe, 0x07, 0xfe, 0x07, 0xfe, 0x07, 0xfe, 0x07, 0x00, 0x00, 0x00, 0x00 };
