#define workspace_midL_width 24
#define workspace_midL_height 24
static unsigned char workspace_midL_bits[] = {
   0x00, 0x00, 0x00, 0x7e, 0x7e, 0x7e, 0x42, 0x42, 0x42, 0x42, 0x42, 0x42,
   0x42, 0x42, 0x42, 0x42, 0x42, 0x42, 0x7e, 0x7e, 0x7e, 0x00, 0x00, 0x00,
   0x00, 0x00, 0x00, 0x7e, 0x7e, 0x7e, 0x7e, 0x42, 0x42, 0x7e, 0x42, 0x42,
   0x7e, 0x42, 0x42, 0x7e, 0x42, 0x42, 0x7e, 0x7e, 0x7e, 0x00, 0x00, 0x00,
   0x00, 0x00, 0x00, 0x7e, 0x7e, 0x7e, 0x42, 0x42, 0x42, 0x42, 0x42, 0x42,
   0x42, 0x42, 0x42, 0x42, 0x42, 0x42, 0x7e, 0x7e, 0x7e, 0x00, 0x00, 0x00 };
