#define workspace_midC_width 24
#define workspace_midC_height 24
static unsigned char workspace_midC_bits[] = {
   0x00, 0x00, 0x00, 0x7e, 0x7e, 0x7e, 0x42, 0x42, 0x42, 0x42, 0x42, 0x42,
   0x42, 0x42, 0x42, 0x42, 0x42, 0x42, 0x7e, 0x7e, 0x7e, 0x00, 0x00, 0x00,
   0x00, 0x00, 0x00, 0x7e, 0x7e, 0x7e, 0x42, 0x7e, 0x42, 0x42, 0x7e, 0x42,
   0x42, 0x7e, 0x42, 0x42, 0x7e, 0x42, 0x7e, 0x7e, 0x7e, 0x00, 0x00, 0x00,
   0x00, 0x00, 0x00, 0x7e, 0x7e, 0x7e, 0x42, 0x42, 0x42, 0x42, 0x42, 0x42,
   0x42, 0x42, 0x42, 0x42, 0x42, 0x42, 0x7e, 0x7e, 0x7e, 0x00, 0x00, 0x00 };
