#define workspace_midR_width 24
#define workspace_midR_height 24
static unsigned char workspace_midR_bits[] = {
   0x00, 0x00, 0x00, 0x7e, 0x7e, 0x7e, 0x42, 0x42, 0x42, 0x42, 0x42, 0x42,
   0x42, 0x42, 0x42, 0x42, 0x42, 0x42, 0x7e, 0x7e, 0x7e, 0x00, 0x00, 0x00,
   0x00, 0x00, 0x00, 0x7e, 0x7e, 0x7e, 0x42, 0x42, 0x7e, 0x42, 0x42, 0x7e,
   0x42, 0x42, 0x7e, 0x42, 0x42, 0x7e, 0x7e, 0x7e, 0x7e, 0x00, 0x00, 0x00,
   0x00, 0x00, 0x00, 0x7e, 0x7e, 0x7e, 0x42, 0x42, 0x42, 0x42, 0x42, 0x42,
   0x42, 0x42, 0x42, 0x42, 0x42, 0x42, 0x7e, 0x7e, 0x7e, 0x00, 0x00, 0x00 };
