<?xml version="1.0" encoding="UTF-8" standalone="no"?>
<svg
   xmlns:dc="http://purl.org/dc/elements/1.1/"
   xmlns:cc="http://creativecommons.org/ns#"
   xmlns:rdf="http://www.w3.org/1999/02/22-rdf-syntax-ns#"
   xmlns:svg="http://www.w3.org/2000/svg"
   xmlns="http://www.w3.org/2000/svg"
   xmlns:sodipodi="http://sodipodi.sourceforge.net/DTD/sodipodi-0.dtd"
   xmlns:inkscape="http://www.inkscape.org/namespaces/inkscape"
   viewBox="0 0 16 16"
   id="svg2"
   version="1.1"
   inkscape:version="0.91 r13725"
   sodipodi:docname="kazam-recording.svg"
   width="16"
   height="16">
  <metadata
     id="metadata12">
    <rdf:RDF>
      <cc:Work
         rdf:about="">
        <dc:format>image/svg+xml</dc:format>
        <dc:type
           rdf:resource="http://purl.org/dc/dcmitype/StillImage" />
        <dc:title></dc:title>
      </cc:Work>
    </rdf:RDF>
  </metadata>
  <defs
     id="defs10" />
  <sodipodi:namedview
     pagecolor="#ffffff"
     bordercolor="#666666"
     borderopacity="1"
     objecttolerance="10"
     gridtolerance="10"
     guidetolerance="10"
     inkscape:pageopacity="0"
     inkscape:pageshadow="2"
     inkscape:window-width="1920"
     inkscape:window-height="1022"
     id="namedview8"
     showgrid="false"
     inkscape:zoom="9.8333333"
     inkscape:cx="12"
     inkscape:cy="12"
     inkscape:window-x="0"
     inkscape:window-y="0"
     inkscape:window-maximized="1"
     inkscape:current-layer="svg2" />
  <path
     d="m 1.7506053,2.7966102 c -0.1958063,0 -0.3547215,0.1589152 -0.3547215,0.3547215 l 0,9.2227603 c 0,0.195806 0.1589152,0.354722 0.3547215,0.354722 l 8.5133167,0 c 0.195807,0 0.354722,-0.158916 0.354722,-0.354722 l 0,-2.263833 3.743731,1.87222 c 0.235535,0.117059 0.512218,-0.05392 0.512927,-0.317121 l 0,-7.8038737 c 0,-0.2632034 -0.276682,-0.4341792 -0.512927,-0.3171211 l -3.743731,1.8722204 0,-2.263833 c 0,-0.1958063 -0.158915,-0.3547215 -0.354722,-0.3547215"
     mix-blend-mode="normal"
     isolation="auto"
     white-space="normal"
     style="color:#000000;white-space:normal;display:inline;visibility:visible;opacity:1;isolation:auto;mix-blend-mode:normal;color-interpolation:sRGB;color-interpolation-filters:linearRGB;solid-color:#000000;solid-opacity:1;fill:#ececec;fill-opacity:1;fill-rule:evenodd;stroke:none;color-rendering:auto;image-rendering:auto;shape-rendering:auto"
     id="path4"
     inkscape:connector-curvature="0" />
  <path
     d="m 6.0072639,5.1023003 c -1.4600339,0 -2.6604116,1.2003777 -2.6604116,2.6604116 0,1.4600339 1.2003777,2.6604111 2.6604116,2.6604111 1.4600343,0 2.6604113,-1.2003772 2.6604113,-2.6604111 0,-1.4600339 -1.200377,-2.6604116 -2.6604113,-2.6604116"
     mix-blend-mode="normal"
     isolation="auto"
     white-space="normal"
     style="color:#000000;white-space:normal;display:inline;visibility:visible;opacity:1;isolation:auto;mix-blend-mode:normal;color-interpolation:sRGB;color-interpolation-filters:linearRGB;solid-color:#000000;solid-opacity:1;fill:#ef555c;fill-opacity:1;fill-rule:nonzero;stroke:none;color-rendering:auto;image-rendering:auto;shape-rendering:auto"
     id="path6"
     inkscape:connector-curvature="0" />
</svg>
