<?xml version="1.0" encoding="UTF-8" standalone="no"?>
<svg
   xmlns:dc="http://purl.org/dc/elements/1.1/"
   xmlns:cc="http://creativecommons.org/ns#"
   xmlns:rdf="http://www.w3.org/1999/02/22-rdf-syntax-ns#"
   xmlns:svg="http://www.w3.org/2000/svg"
   xmlns="http://www.w3.org/2000/svg"
   xmlns:sodipodi="http://sodipodi.sourceforge.net/DTD/sodipodi-0.dtd"
   xmlns:inkscape="http://www.inkscape.org/namespaces/inkscape"
   width="16"
   viewBox="0 0 4.5155557 4.5155557"
   height="16"
   id="svg2"
   version="1.1"
   inkscape:version="0.91 r13725"
   sodipodi:docname="redshift-status-on.svg">
  <metadata
     id="metadata10">
    <rdf:RDF>
      <cc:Work
         rdf:about="">
        <dc:format>image/svg+xml</dc:format>
        <dc:type
           rdf:resource="http://purl.org/dc/dcmitype/StillImage" />
        <dc:title></dc:title>
      </cc:Work>
    </rdf:RDF>
  </metadata>
  <defs
     id="defs8" />
  <sodipodi:namedview
     pagecolor="#ffffff"
     bordercolor="#666666"
     borderopacity="1"
     objecttolerance="10"
     gridtolerance="10"
     guidetolerance="10"
     inkscape:pageopacity="0"
     inkscape:pageshadow="2"
     inkscape:window-width="1920"
     inkscape:window-height="1022"
     id="namedview6"
     showgrid="false"
     inkscape:zoom="9.8333333"
     inkscape:cx="-4.7796611"
     inkscape:cy="12"
     inkscape:window-x="0"
     inkscape:window-y="0"
     inkscape:window-maximized="1"
     inkscape:current-layer="svg2" />
  <path
     d="m 3.3582596,1.4892826 c 0,-0.1051481 -0.028338,-0.202839 -0.085013,-0.2938182 C 3.2165706,1.1044852 3.1427432,1.0306578 3.0510182,0.97323646 2.960039,0.91581514 2.8586195,0.87032553 2.7475056,0.83751334 2.6363916,0.80470116 2.5245319,0.78829507 2.4111807,0.78829507 c -0.1133512,0 -0.2259566,0.0164061 -0.3363249,0.0492183 -0.1111139,0.0328122 -0.2117877,0.0783018 -0.3035126,0.13572312 -0.090979,0.0574213 -0.1655524,0.13199441 -0.222228,0.22222791 -0.056676,0.090979 -0.085013,0.1886701 -0.085013,0.2938182 0,0.1476548 0.05593,0.2789036 0.1677896,0.3944919 0.016406,0.016406 0.041761,0.04027 0.075319,0.072336 0.033558,0.032066 0.058913,0.05593 0.075319,0.072336 0.2102956,0.2237195 0.3266297,0.4414731 0.3475102,0.6532608 l 0.5622814,0 C 2.7139474,2.4699194 2.829536,2.2521658 3.0398323,2.0284464 c 0.016406,-0.016406 0.041761,-0.040269 0.075319,-0.072336 0.033558,-0.032067 0.058913,-0.05593 0.075319,-0.072336 0.1118594,-0.1155885 0.1677893,-0.2468372 0.1677893,-0.394492 m 0.3154443,0 c 0,0.2267023 -0.085013,0.422084 -0.2542944,0.5876364 -0.073827,0.07159 -0.1349773,0.1349773 -0.1834499,0.1909072 -0.048472,0.055184 -0.097691,0.1252829 -0.1469091,0.2095505 -0.049218,0.084268 -0.077556,0.1625695 -0.083522,0.2356511 0.077556,0.041015 0.1155884,0.1006738 0.1155884,0.1797213 0,0.054438 -0.020881,0.1006737 -0.061896,0.1401975 0.041015,0.039524 0.061896,0.086505 0.061896,0.1401975 0,0.076065 -0.037287,0.1349774 -0.111114,0.1774841 0.021626,0.033558 0.032066,0.067862 0.032066,0.1029109 0,0.067116 -0.026101,0.119317 -0.077556,0.1558579 -0.051455,0.036541 -0.1155884,0.054438 -0.1909072,0.054438 -0.032812,0.064133 -0.082031,0.1155883 -0.1476549,0.1536206 -0.065624,0.038032 -0.1372145,0.056676 -0.2147706,0.056676 -0.077556,0 -0.1491463,-0.018643 -0.2147706,-0.056676 C 2.1307856,3.7794236 2.0815669,3.7279676 2.0487547,3.663835 1.9734357,3.663835 1.909303,3.645937 1.8578475,3.609397 1.8063915,3.572856 1.7802915,3.520655 1.7802915,3.4535391 c 0,-0.035049 0.01044,-0.069353 0.032067,-0.1029109 -0.073827,-0.042507 -0.111114,-0.1014195 -0.111114,-0.1774841 0,-0.054438 0.02088,-0.1006737 0.061896,-0.1401975 -0.041015,-0.039524 -0.061896,-0.086505 -0.061896,-0.1401975 0,-0.079047 0.038778,-0.138706 0.1155884,-0.1797213 C 1.8101212,2.6399462 1.7825291,2.5616444 1.7333109,2.4773767 1.6840926,2.3931091 1.6348743,2.3237561 1.5864018,2.2678262 1.5379292,2.2126421 1.4767793,2.1485092 1.4029519,2.076919 1.2336708,1.9121123 1.1486575,1.7159849 1.1486575,1.4892826 1.1486575,1.3446107 1.1851985,1.2096333 1.25828,1.0850962 1.331362,0.95981329 1.427561,0.85615663 1.546878,0.77412618 1.666195,0.69134998 1.8011724,0.62647136 1.9510644,0.57874454 c 0.1506378,-0.0477268 0.3035127,-0.0715902 0.4601163,-0.0715902 0.1558579,0 0.3094785,0.0238634 0.4601163,0.0715902 0.1506377,0.0477268 0.2856151,0.11260545 0.4041864,0.19538164 0.119317,0.0827762 0.2155164,0.18643284 0.288598,0.31097002 0.073082,0.1252828 0.1096225,0.2595145 0.1096225,0.4041864 z"
     style="fill:#aaaaaa;fill-opacity:1"
     id="path4"
     inkscape:connector-curvature="0" />
</svg>
